<?xml version="1.0" encoding="us-ascii" standalone="no"?><svg xmlns="http://www.w3.org/2000/svg" xmlns:xlink="http://www.w3.org/1999/xlink" contentStyleType="text/css" height="749px" preserveAspectRatio="none" style="width:385px;height:749px;background:#FFFFFF;" version="1.1" viewBox="0 0 385 749" width="385px" zoomAndPan="magnify"><defs/><g><text fill="#000000" font-family="sans-serif" font-size="14" font-weight="bold" lengthAdjust="spacing" textLength="236" x="67.5" y="24.5332">Caso de uso: Crear Administrador</text><g id="startState"><rect fill="#F1F1F1" height="50" rx="12.5" ry="12.5" style="stroke:#181818;stroke-width:0.5;" width="144" x="15" y="45.6094"/><line style="stroke:#181818;stroke-width:0.5;" x1="15" x2="159" y1="73.2188" y2="73.2188"/><text fill="#000000" font-family="sans-serif" font-size="14" lengthAdjust="spacing" textLength="124" x="25" y="65.1426">P&#193;GINA PRINCIPAL</text></g><g id="endState"><rect fill="#F1F1F1" height="50" rx="12.5" ry="12.5" style="stroke:#181818;stroke-width:0.5;" width="144" x="15" y="693.6094"/><line style="stroke:#181818;stroke-width:0.5;" x1="15" x2="159" y1="721.2188" y2="721.2188"/><text fill="#000000" font-family="sans-serif" font-size="14" lengthAdjust="spacing" textLength="124" x="25" y="713.1426">P&#193;GINA PRINCIPAL</text></g><g id="IniciarCreacion"><rect fill="#F1F1F1" height="50" rx="12.5" ry="12.5" style="stroke:#181818;stroke-width:0.5;" width="114" x="30" y="207.6094"/><line style="stroke:#181818;stroke-width:0.5;" x1="30" x2="144" y1="235.2188" y2="235.2188"/><text fill="#000000" font-family="sans-serif" font-size="14" lengthAdjust="spacing" textLength="94" x="40" y="227.1426">IniciarCreacion</text></g><g id="CompletarFormulario"><rect fill="#F1F1F1" height="50" rx="12.5" ry="12.5" style="stroke:#181818;stroke-width:0.5;" width="153" x="10.5" y="369.6094"/><line style="stroke:#181818;stroke-width:0.5;" x1="10.5" x2="163.5" y1="397.2188" y2="397.2188"/><text fill="#000000" font-family="sans-serif" font-size="14" lengthAdjust="spacing" textLength="133" x="20.5" y="389.1426">CompletarFormulario</text></g><g id="GuardarAdministrador"><rect fill="#F1F1F1" height="50" rx="12.5" ry="12.5" style="stroke:#181818;stroke-width:0.5;" width="160" x="7" y="531.6094"/><line style="stroke:#181818;stroke-width:0.5;" x1="7" x2="167" y1="559.2188" y2="559.2188"/><text fill="#000000" font-family="sans-serif" font-size="14" lengthAdjust="spacing" textLength="140" x="17" y="551.1426">GuardarAdministrador</text></g><!--link startState to IniciarCreacion--><g id="link_startState_IniciarCreacion"><path d="M87,95.9094 C87,126.1594 87,171.4994 87,201.6094 " fill="none" id="startState-to-IniciarCreacion" style="stroke:#0000FF;stroke-width:1.0;"/><polygon fill="#0000FF" points="87,207.6094,91,198.6094,87,202.6094,83,198.6094,87,207.6094" style="stroke:#0000FF;stroke-width:1.0;"/><path d="M92,130.6094 L92,172.6094 L378,172.6094 L378,140.6094 L368,130.6094 L92,130.6094 " fill="#FFFFE0" style="stroke:#0000FF;stroke-width:0.5;"/><path d="M368,130.6094 L368,140.6094 L378,140.6094 L368,130.6094 " fill="#FFFFE0" style="stroke:#0000FF;stroke-width:0.5;"/><text fill="#000000" font-family="sans-serif" font-size="13" font-weight="bold" lengthAdjust="spacing" textLength="140" x="98" y="149.1045">Administrador Accede</text><ellipse cx="103.5" cy="160.8125" fill="#000000" rx="2.5" ry="2.5" style="stroke:#000000;stroke-width:0.0;"/><text fill="#000000" font-family="sans-serif" font-size="13" lengthAdjust="spacing" textLength="253" x="110" y="165.4561">Selecciona la opci&#243;n de crear administrador</text></g><!--link IniciarCreacion to CompletarFormulario--><g id="link_IniciarCreacion_CompletarFormulario"><path d="M87,257.9094 C87,288.1594 87,333.4994 87,363.6094 " fill="none" id="IniciarCreacion-to-CompletarFormulario" style="stroke:#0000FF;stroke-width:1.0;"/><polygon fill="#0000FF" points="87,369.6094,91,360.6094,87,364.6094,83,360.6094,87,369.6094" style="stroke:#0000FF;stroke-width:1.0;"/><path d="M92,292.6094 L92,334.6094 L323,334.6094 L323,302.6094 L313,292.6094 L92,292.6094 " fill="#FFFFE0" style="stroke:#0000FF;stroke-width:0.5;"/><path d="M313,292.6094 L313,302.6094 L323,302.6094 L313,292.6094 " fill="#FFFFE0" style="stroke:#0000FF;stroke-width:0.5;"/><text fill="#000000" font-family="sans-serif" font-size="13" font-weight="bold" lengthAdjust="spacing" textLength="105" x="98" y="311.1045">Sistema Muestra</text><ellipse cx="103.5" cy="322.8125" fill="#000000" rx="2.5" ry="2.5" style="stroke:#000000;stroke-width:0.0;"/><text fill="#000000" font-family="sans-serif" font-size="13" lengthAdjust="spacing" textLength="198" x="110" y="327.4561">Formulario de nuevo administrador</text></g><!--link CompletarFormulario to GuardarAdministrador--><g id="link_CompletarFormulario_GuardarAdministrador"><path d="M87,419.9094 C87,450.1594 87,495.4994 87,525.6094 " fill="none" id="CompletarFormulario-to-GuardarAdministrador" style="stroke:#0000FF;stroke-width:1.0;"/><polygon fill="#0000FF" points="87,531.6094,91,522.6094,87,526.6094,83,522.6094,87,531.6094" style="stroke:#0000FF;stroke-width:1.0;"/><path d="M92,454.6094 L92,496.6094 L264,496.6094 L264,464.6094 L254,454.6094 L92,454.6094 " fill="#FFFFE0" style="stroke:#0000FF;stroke-width:0.5;"/><path d="M254,454.6094 L254,464.6094 L264,464.6094 L254,454.6094 " fill="#FFFFE0" style="stroke:#0000FF;stroke-width:0.5;"/><text fill="#000000" font-family="sans-serif" font-size="13" font-weight="bold" lengthAdjust="spacing" textLength="151" x="98" y="473.1045">Administrador Confirma</text><ellipse cx="103.5" cy="484.8125" fill="#000000" rx="2.5" ry="2.5" style="stroke:#000000;stroke-width:0.0;"/><text fill="#000000" font-family="sans-serif" font-size="13" lengthAdjust="spacing" textLength="138" x="110" y="489.4561">Guarda al administrador</text></g><!--link GuardarAdministrador to endState--><g id="link_GuardarAdministrador_endState"><path d="M87,581.9094 C87,612.1594 87,657.4994 87,687.6094 " fill="none" id="GuardarAdministrador-to-endState" style="stroke:#0000FF;stroke-width:1.0;"/><polygon fill="#0000FF" points="87,693.6094,91,684.6094,87,688.6094,83,684.6094,87,693.6094" style="stroke:#0000FF;stroke-width:1.0;"/><path d="M92,616.6094 L92,658.6094 L361,658.6094 L361,626.6094 L351,616.6094 L92,616.6094 " fill="#FFFFE0" style="stroke:#0000FF;stroke-width:0.5;"/><path d="M351,616.6094 L351,626.6094 L361,626.6094 L351,616.6094 " fill="#FFFFE0" style="stroke:#0000FF;stroke-width:0.5;"/><text fill="#000000" font-family="sans-serif" font-size="13" font-weight="bold" lengthAdjust="spacing" textLength="109" x="98" y="635.1045">Sistema Redirige</text><ellipse cx="103.5" cy="646.8125" fill="#000000" rx="2.5" ry="2.5" style="stroke:#000000;stroke-width:0.0;"/><text fill="#000000" font-family="sans-serif" font-size="13" lengthAdjust="spacing" textLength="236" x="110" y="651.4561">P&#225;gina principal con notificaci&#243;n de &#233;xito</text></g><!--SRC=[XPBFIiD04CRlUOgXteJYNKeX1Ym5BQKzUPpkJkFGpKwORAn5FFWe7Ztx27qnDx7s7stD8MIPcU_xxJS971n1XfM09QWhkOLC2HLIMx3dAYXQqIIf5knBL2pWBO7uZ2JG7Pf5hb9xcuaJXIl7-NDu8kTasJQbghBSr6Qkfjsag2KzhZZs55ObGIbkrHoIzsWSC134juPf-uaLTCRhZy5mbC9uCXnbmt7wqDdqaRSNkv8zeMwt3qFFXb6RAniMd_W81-8Rb4NBr9lr3vA0r1YorBkPzTlwDKp9aMc64Ho2b8RNtxu9qxGvua6EaGyQZoGvScvfCYbAHv7mNhIe7IhBIQ9frAC2uR6cHdWFPZVO4FYQNkGimGctbc9GerhKmn_W_s0oyNFMOf_cLmdGdMKuvTL2_2toulqdP5avtz_6UFsPSrn5gUmDbz7QnE4emdCskDtD-kkLWsn1VW00]--></g></svg>