<?xml version="1.0" encoding="us-ascii" standalone="no"?><svg xmlns="http://www.w3.org/2000/svg" xmlns:xlink="http://www.w3.org/1999/xlink" contentStyleType="text/css" height="749px" preserveAspectRatio="none" style="width:366px;height:749px;background:#FFFFFF;" version="1.1" viewBox="0 0 366 749" width="366px" zoomAndPan="magnify"><defs/><g><text fill="#000000" font-family="sans-serif" font-size="14" font-weight="bold" lengthAdjust="spacing" textLength="230" x="61" y="24.5332">Caso de uso: Editar Capacitaci&#243;n</text><g id="startState"><rect fill="#F1F1F1" height="50" rx="12.5" ry="12.5" style="stroke:#181818;stroke-width:0.5;" width="144" x="23" y="45.6094"/><line style="stroke:#181818;stroke-width:0.5;" x1="23" x2="167" y1="73.2188" y2="73.2188"/><text fill="#000000" font-family="sans-serif" font-size="14" lengthAdjust="spacing" textLength="124" x="33" y="65.1426">P&#193;GINA PRINCIPAL</text></g><g id="endState"><rect fill="#F1F1F1" height="50" rx="12.5" ry="12.5" style="stroke:#181818;stroke-width:0.5;" width="144" x="23" y="693.6094"/><line style="stroke:#181818;stroke-width:0.5;" x1="23" x2="167" y1="721.2188" y2="721.2188"/><text fill="#000000" font-family="sans-serif" font-size="14" lengthAdjust="spacing" textLength="124" x="33" y="713.1426">P&#193;GINA PRINCIPAL</text></g><g id="SeleccionarCapacitacion"><rect fill="#F1F1F1" height="50" rx="12.5" ry="12.5" style="stroke:#181818;stroke-width:0.5;" width="176" x="7" y="207.6094"/><line style="stroke:#181818;stroke-width:0.5;" x1="7" x2="183" y1="235.2188" y2="235.2188"/><text fill="#000000" font-family="sans-serif" font-size="14" lengthAdjust="spacing" textLength="156" x="17" y="227.1426">SeleccionarCapacitacion</text></g><g id="EditarCapacitacion"><rect fill="#F1F1F1" height="50" rx="12.5" ry="12.5" style="stroke:#181818;stroke-width:0.5;" width="139" x="25.5" y="369.6094"/><line style="stroke:#181818;stroke-width:0.5;" x1="25.5" x2="164.5" y1="397.2188" y2="397.2188"/><text fill="#000000" font-family="sans-serif" font-size="14" lengthAdjust="spacing" textLength="119" x="35.5" y="389.1426">EditarCapacitacion</text></g><g id="GuardarCambios"><rect fill="#F1F1F1" height="50" rx="12.5" ry="12.5" style="stroke:#181818;stroke-width:0.5;" width="128" x="31" y="531.6094"/><line style="stroke:#181818;stroke-width:0.5;" x1="31" x2="159" y1="559.2188" y2="559.2188"/><text fill="#000000" font-family="sans-serif" font-size="14" lengthAdjust="spacing" textLength="108" x="41" y="551.1426">GuardarCambios</text></g><!--link startState to SeleccionarCapacitacion--><g id="link_startState_SeleccionarCapacitacion"><path d="M95,95.9094 C95,126.1594 95,171.4994 95,201.6094 " fill="none" id="startState-to-SeleccionarCapacitacion" style="stroke:#0000FF;stroke-width:1.0;"/><polygon fill="#0000FF" points="95,207.6094,99,198.6094,95,202.6094,91,198.6094,95,207.6094" style="stroke:#0000FF;stroke-width:1.0;"/><path d="M100,130.6094 L100,172.6094 L359,172.6094 L359,140.6094 L349,130.6094 L100,130.6094 " fill="#FFFFE0" style="stroke:#0000FF;stroke-width:0.5;"/><path d="M349,130.6094 L349,140.6094 L359,140.6094 L349,130.6094 " fill="#FFFFE0" style="stroke:#0000FF;stroke-width:0.5;"/><text fill="#000000" font-family="sans-serif" font-size="13" font-weight="bold" lengthAdjust="spacing" textLength="141" x="106" y="149.1045">Administrador Navega</text><ellipse cx="111.5" cy="160.8125" fill="#000000" rx="2.5" ry="2.5" style="stroke:#000000;stroke-width:0.0;"/><text fill="#000000" font-family="sans-serif" font-size="13" lengthAdjust="spacing" textLength="226" x="118" y="165.4561">Selecciona una capacitaci&#243;n de la lista</text></g><!--link SeleccionarCapacitacion to EditarCapacitacion--><g id="link_SeleccionarCapacitacion_EditarCapacitacion"><path d="M95,257.9094 C95,288.1594 95,333.4994 95,363.6094 " fill="none" id="SeleccionarCapacitacion-to-EditarCapacitacion" style="stroke:#0000FF;stroke-width:1.0;"/><polygon fill="#0000FF" points="95,369.6094,99,360.6094,95,364.6094,91,360.6094,95,369.6094" style="stroke:#0000FF;stroke-width:1.0;"/><path d="M100,292.6094 L100,334.6094 L329,334.6094 L329,302.6094 L319,292.6094 L100,292.6094 " fill="#FFFFE0" style="stroke:#0000FF;stroke-width:0.5;"/><path d="M319,292.6094 L319,302.6094 L329,302.6094 L319,292.6094 " fill="#FFFFE0" style="stroke:#0000FF;stroke-width:0.5;"/><text fill="#000000" font-family="sans-serif" font-size="13" font-weight="bold" lengthAdjust="spacing" textLength="105" x="106" y="311.1045">Sistema Muestra</text><ellipse cx="111.5" cy="322.8125" fill="#000000" rx="2.5" ry="2.5" style="stroke:#000000;stroke-width:0.0;"/><text fill="#000000" font-family="sans-serif" font-size="13" lengthAdjust="spacing" textLength="196" x="118" y="327.4561">Formulario con los datos actuales</text></g><!--link EditarCapacitacion to GuardarCambios--><g id="link_EditarCapacitacion_GuardarCambios"><path d="M95,419.9094 C95,450.1594 95,495.4994 95,525.6094 " fill="none" id="EditarCapacitacion-to-GuardarCambios" style="stroke:#0000FF;stroke-width:1.0;"/><polygon fill="#0000FF" points="95,531.6094,99,522.6094,95,526.6094,91,522.6094,95,531.6094" style="stroke:#0000FF;stroke-width:1.0;"/><path d="M100,454.6094 L100,496.6094 L325,496.6094 L325,464.6094 L315,454.6094 L100,454.6094 " fill="#FFFFE0" style="stroke:#0000FF;stroke-width:0.5;"/><path d="M315,454.6094 L315,464.6094 L325,464.6094 L315,454.6094 " fill="#FFFFE0" style="stroke:#0000FF;stroke-width:0.5;"/><text fill="#000000" font-family="sans-serif" font-size="13" font-weight="bold" lengthAdjust="spacing" textLength="147" x="106" y="473.1045">Administrador Modifica</text><ellipse cx="111.5" cy="484.8125" fill="#000000" rx="2.5" ry="2.5" style="stroke:#000000;stroke-width:0.0;"/><text fill="#000000" font-family="sans-serif" font-size="13" lengthAdjust="spacing" textLength="192" x="118" y="489.4561">Actualiza los campos necesarios</text></g><!--link GuardarCambios to endState--><g id="link_GuardarCambios_endState"><path d="M95,581.9094 C95,612.1594 95,657.4994 95,687.6094 " fill="none" id="GuardarCambios-to-endState" style="stroke:#0000FF;stroke-width:1.0;"/><polygon fill="#0000FF" points="95,693.6094,99,684.6094,95,688.6094,91,684.6094,95,693.6094" style="stroke:#0000FF;stroke-width:1.0;"/><path d="M100,616.6094 L100,658.6094 L340,658.6094 L340,626.6094 L330,616.6094 L100,616.6094 " fill="#FFFFE0" style="stroke:#0000FF;stroke-width:0.5;"/><path d="M330,616.6094 L330,626.6094 L340,626.6094 L330,616.6094 " fill="#FFFFE0" style="stroke:#0000FF;stroke-width:0.5;"/><text fill="#000000" font-family="sans-serif" font-size="13" font-weight="bold" lengthAdjust="spacing" textLength="103" x="106" y="635.1045">Sistema Notifica</text><ellipse cx="111.5" cy="646.8125" fill="#000000" rx="2.5" ry="2.5" style="stroke:#000000;stroke-width:0.0;"/><text fill="#000000" font-family="sans-serif" font-size="13" lengthAdjust="spacing" textLength="207" x="118" y="651.4561">"Cambios guardados exitosamente"</text></g><!--SRC=[ZPB1JiCm38RlUGght90cxcYQL2QO9h5fOYUENc96j3IkafGn40UUYKVOY-663SeGWqfDtSJv_yzEaasEO8YHmH0qaS_XqjY4GUPgr19fkttpIiMLzJK6hE1PWJnJJdI1UhKCt7WpPCS1JfnTtgTRSexNEQaCWTUxjOLhw6id1qFXSCLPJsbJ4zJiDksFUX7ZX8b0nf3cESG8nMpxEXfFIvZTZAV3yQoyBdPvvCtHBDKHwlK6C2T7Mbls6BuAPg-yG0Bx5ccLsVgBGMagwsrC0OrWJ_61bjW_Mmpo-cb72XfvTRT_RNCTYfhOAs64Lb-fNzmpsSSn_0ar5qcg42ODjMGTdYiELUCmM0RTRk881fECg5E3Zc87vATPPXWr64mxNoqintyqPSB6tbdTnIYpctt2JA2ngkNZILDiqReGtzqomFuuZvOk5-hGjDYBBBEcaOWUhHIF5Vb4nQVhEm00]--></g></svg>