<?xml version="1.0" encoding="us-ascii" standalone="no"?><svg xmlns="http://www.w3.org/2000/svg" xmlns:xlink="http://www.w3.org/1999/xlink" contentStyleType="text/css" height="749px" preserveAspectRatio="none" style="width:345px;height:749px;background:#FFFFFF;" version="1.1" viewBox="0 0 345 749" width="345px" zoomAndPan="magnify"><defs/><g><text fill="#000000" font-family="sans-serif" font-size="14" font-weight="bold" lengthAdjust="spacing" textLength="230" x="50.75" y="24.5332">Caso de uso: Eliminar Postulante</text><g id="startState"><rect fill="#F1F1F1" height="50" rx="12.5" ry="12.5" style="stroke:#181818;stroke-width:0.5;" width="144" x="15.5" y="45.6094"/><line style="stroke:#181818;stroke-width:0.5;" x1="15.5" x2="159.5" y1="73.2188" y2="73.2188"/><text fill="#000000" font-family="sans-serif" font-size="14" lengthAdjust="spacing" textLength="124" x="25.5" y="65.1426">P&#193;GINA PRINCIPAL</text></g><g id="endState"><rect fill="#F1F1F1" height="50" rx="12.5" ry="12.5" style="stroke:#181818;stroke-width:0.5;" width="144" x="15.5" y="693.6094"/><line style="stroke:#181818;stroke-width:0.5;" x1="15.5" x2="159.5" y1="721.2188" y2="721.2188"/><text fill="#000000" font-family="sans-serif" font-size="14" lengthAdjust="spacing" textLength="124" x="25.5" y="713.1426">P&#193;GINA PRINCIPAL</text></g><g id="SeleccionarPostulante"><rect fill="#F1F1F1" height="50" rx="12.5" ry="12.5" style="stroke:#181818;stroke-width:0.5;" width="161" x="7" y="207.6094"/><line style="stroke:#181818;stroke-width:0.5;" x1="7" x2="168" y1="235.2188" y2="235.2188"/><text fill="#000000" font-family="sans-serif" font-size="14" lengthAdjust="spacing" textLength="141" x="17" y="227.1426">SeleccionarPostulante</text></g><g id="ConfirmarEliminacion"><rect fill="#F1F1F1" height="50" rx="12.5" ry="12.5" style="stroke:#181818;stroke-width:0.5;" width="153" x="11" y="369.6094"/><line style="stroke:#181818;stroke-width:0.5;" x1="11" x2="164" y1="397.2188" y2="397.2188"/><text fill="#000000" font-family="sans-serif" font-size="14" lengthAdjust="spacing" textLength="133" x="21" y="389.1426">ConfirmarEliminacion</text></g><g id="EliminarPostulante"><rect fill="#F1F1F1" height="50" rx="12.5" ry="12.5" style="stroke:#181818;stroke-width:0.5;" width="137" x="19" y="531.6094"/><line style="stroke:#181818;stroke-width:0.5;" x1="19" x2="156" y1="559.2188" y2="559.2188"/><text fill="#000000" font-family="sans-serif" font-size="14" lengthAdjust="spacing" textLength="117" x="29" y="551.1426">EliminarPostulante</text></g><!--link startState to SeleccionarPostulante--><g id="link_startState_SeleccionarPostulante"><path d="M87.5,95.9094 C87.5,126.1594 87.5,171.4994 87.5,201.6094 " fill="none" id="startState-to-SeleccionarPostulante" style="stroke:#0000FF;stroke-width:1.0;"/><polygon fill="#0000FF" points="87.5,207.6094,91.5,198.6094,87.5,202.6094,83.5,198.6094,87.5,207.6094" style="stroke:#0000FF;stroke-width:1.0;"/><path d="M92.5,130.6094 L92.5,172.6094 L331.5,172.6094 L331.5,140.6094 L321.5,130.6094 L92.5,130.6094 " fill="#FFFFE0" style="stroke:#0000FF;stroke-width:0.5;"/><path d="M321.5,130.6094 L321.5,140.6094 L331.5,140.6094 L321.5,130.6094 " fill="#FFFFE0" style="stroke:#0000FF;stroke-width:0.5;"/><text fill="#000000" font-family="sans-serif" font-size="13" font-weight="bold" lengthAdjust="spacing" textLength="141" x="98.5" y="149.1045">Administrador Navega</text><ellipse cx="104" cy="160.8125" fill="#000000" rx="2.5" ry="2.5" style="stroke:#000000;stroke-width:0.0;"/><text fill="#000000" font-family="sans-serif" font-size="13" lengthAdjust="spacing" textLength="206" x="110.5" y="165.4561">Selecciona un postulante de la lista</text></g><!--link SeleccionarPostulante to ConfirmarEliminacion--><g id="link_SeleccionarPostulante_ConfirmarEliminacion"><path d="M87.5,257.9094 C87.5,288.1594 87.5,333.4994 87.5,363.6094 " fill="none" id="SeleccionarPostulante-to-ConfirmarEliminacion" style="stroke:#0000FF;stroke-width:1.0;"/><polygon fill="#0000FF" points="87.5,369.6094,91.5,360.6094,87.5,364.6094,83.5,360.6094,87.5,369.6094" style="stroke:#0000FF;stroke-width:1.0;"/><path d="M92.5,292.6094 L92.5,334.6094 L287.5,334.6094 L287.5,302.6094 L277.5,292.6094 L92.5,292.6094 " fill="#FFFFE0" style="stroke:#0000FF;stroke-width:0.5;"/><path d="M277.5,292.6094 L277.5,302.6094 L287.5,302.6094 L277.5,292.6094 " fill="#FFFFE0" style="stroke:#0000FF;stroke-width:0.5;"/><text fill="#000000" font-family="sans-serif" font-size="13" font-weight="bold" lengthAdjust="spacing" textLength="103" x="98.5" y="311.1045">Sistema Solicita</text><ellipse cx="104" cy="322.8125" fill="#000000" rx="2.5" ry="2.5" style="stroke:#000000;stroke-width:0.0;"/><text fill="#000000" font-family="sans-serif" font-size="13" lengthAdjust="spacing" textLength="162" x="110.5" y="327.4561">Confirmaci&#243;n de eliminaci&#243;n</text></g><!--link ConfirmarEliminacion to EliminarPostulante--><g id="link_ConfirmarEliminacion_EliminarPostulante"><path d="M87.5,419.9094 C87.5,450.1594 87.5,495.4994 87.5,525.6094 " fill="none" id="ConfirmarEliminacion-to-EliminarPostulante" style="stroke:#0000FF;stroke-width:1.0;"/><polygon fill="#0000FF" points="87.5,531.6094,91.5,522.6094,87.5,526.6094,83.5,522.6094,87.5,531.6094" style="stroke:#0000FF;stroke-width:1.0;"/><path d="M92.5,454.6094 L92.5,496.6094 L287.5,496.6094 L287.5,464.6094 L277.5,454.6094 L92.5,454.6094 " fill="#FFFFE0" style="stroke:#0000FF;stroke-width:0.5;"/><path d="M277.5,454.6094 L277.5,464.6094 L287.5,464.6094 L277.5,454.6094 " fill="#FFFFE0" style="stroke:#0000FF;stroke-width:0.5;"/><text fill="#000000" font-family="sans-serif" font-size="13" font-weight="bold" lengthAdjust="spacing" textLength="137" x="98.5" y="473.1045">Administrador Acepta</text><ellipse cx="104" cy="484.8125" fill="#000000" rx="2.5" ry="2.5" style="stroke:#000000;stroke-width:0.0;"/><text fill="#000000" font-family="sans-serif" font-size="13" lengthAdjust="spacing" textLength="162" x="110.5" y="489.4561">Confirmaci&#243;n de eliminaci&#243;n</text></g><!--link EliminarPostulante to endState--><g id="link_EliminarPostulante_endState"><path d="M87.5,581.9094 C87.5,612.1594 87.5,657.4994 87.5,687.6094 " fill="none" id="EliminarPostulante-to-endState" style="stroke:#0000FF;stroke-width:1.0;"/><polygon fill="#0000FF" points="87.5,693.6094,91.5,684.6094,87.5,688.6094,83.5,684.6094,87.5,693.6094" style="stroke:#0000FF;stroke-width:1.0;"/><path d="M92.5,616.6094 L92.5,658.6094 L338.5,658.6094 L338.5,626.6094 L328.5,616.6094 L92.5,616.6094 " fill="#FFFFE0" style="stroke:#0000FF;stroke-width:0.5;"/><path d="M328.5,616.6094 L328.5,626.6094 L338.5,626.6094 L328.5,616.6094 " fill="#FFFFE0" style="stroke:#0000FF;stroke-width:0.5;"/><text fill="#000000" font-family="sans-serif" font-size="13" font-weight="bold" lengthAdjust="spacing" textLength="103" x="98.5" y="635.1045">Sistema Notifica</text><ellipse cx="104" cy="646.8125" fill="#000000" rx="2.5" ry="2.5" style="stroke:#000000;stroke-width:0.0;"/><text fill="#000000" font-family="sans-serif" font-size="13" lengthAdjust="spacing" textLength="213" x="110.5" y="651.4561">"Postulante eliminado exitosamente"</text></g><!--SRC=[dPB1IiGm48RlUOgXteJ5komBjOWiI2dsv76sdQt3ffcIfgwBUF2PV8HzCQUbrQBBWkOGaipa_x-P972m10cs0YL1ryert5gksQ67JDhGMNI1Z6btx1hqMCEh0Hsf1Bh1ObTvwLoPY1KF5vQhf_18rif-I8gzb_qOszYElc-AByd_Z5Xs50uDGIFsq6_Ccne730Gw-v0FIsmXoexlT-iqXknXdIRhBBwFnZnovTaiCnDQB5QGawMYOD5oPzKwHGHnFT1k85jkLd6fJU4sU2mLEiLdgd1vjLaDySkP47HE2vYq-gvQL2KrDae7lROn9tq7eaJSbdsDVdo6FkaaKAwIL2FaOhdWC8UPD0e-VhYUW2OjtSyeJdaD4DCN-5DFueAQVs7yTXiWfhSyMxt-9jvoCRUDPZgZOob0BnoanPhqEFeo_mG0]--></g></svg>