<svg xmlns="http://www.w3.org/2000/svg" xmlns:xlink="http://www.w3.org/1999/xlink" contentStyleType="text/css" height="774px" preserveAspectRatio="none" style="width:580px;height:774px;background:#FFFFFF;" version="1.1" viewBox="0 0 580 774" width="580px" zoomAndPan="magnify"><defs/><g><ellipse cx="255.387" cy="20" fill="#222222" rx="10" ry="10" style="stroke:#222222;stroke-width:1;"/><rect fill="#F1F1F1" height="33.9688" rx="12.5" ry="12.5" style="stroke:#181818;stroke-width:0.5;" width="265.1035" x="122.8352" y="50"/><text fill="#000000" font-family="sans-serif" font-size="12" lengthAdjust="spacing" textLength="245.1035" x="132.8352" y="71.1387">Acceder al m&#243;dulo "Validaci&#243;n Memoria"</text><rect fill="#F1F1F1" height="33.9688" rx="12.5" ry="12.5" style="stroke:#181818;stroke-width:0.5;" width="435.2715" x="37.7512" y="103.9688"/><text fill="#000000" font-family="sans-serif" font-size="12" lengthAdjust="spacing" textLength="415.2715" x="47.7512" y="125.1074">Seleccionar opci&#243;n "Validar Cumplimiento" para valores consignados</text><rect fill="#F1F1F1" height="33.9688" rx="12.5" ry="12.5" style="stroke:#181818;stroke-width:0.5;" width="341.6504" x="84.5618" y="157.9375"/><text fill="#000000" font-family="sans-serif" font-size="12" lengthAdjust="spacing" textLength="321.6504" x="94.5618" y="179.0762">Obtener lista de titulaciones con valores consignados</text><rect fill="#F1F1F1" height="33.9688" rx="12.5" ry="12.5" style="stroke:#181818;stroke-width:0.5;" width="237.6992" x="136.5374" y="255.9063"/><text fill="#000000" font-family="sans-serif" font-size="12" lengthAdjust="spacing" textLength="217.6992" x="146.5374" y="277.0449">Seleccionar una titulaci&#243;n de la lista</text><rect fill="#F1F1F1" height="33.9688" rx="12.5" ry="12.5" style="stroke:#181818;stroke-width:0.5;" width="281.7852" x="114.4944" y="309.875"/><text fill="#000000" font-family="sans-serif" font-size="12" lengthAdjust="spacing" textLength="261.7852" x="124.4944" y="331.0137">Revisar valores consignados en la memoria</text><rect fill="#F1F1F1" height="33.9688" rx="12.5" ry="12.5" style="stroke:#181818;stroke-width:0.5;" width="254.8789" x="127.9475" y="363.8438"/><text fill="#000000" font-family="sans-serif" font-size="12" lengthAdjust="spacing" textLength="234.8789" x="137.9475" y="384.9824">Comparar con los est&#225;ndares definidos</text><polygon fill="#F1F1F1" points="139.46,417.8125,371.314,417.8125,383.314,429.8125,371.314,441.8125,139.46,441.8125,127.46,429.8125,139.46,417.8125" style="stroke:#181818;stroke-width:0.5;"/><text fill="#000000" font-family="sans-serif" font-size="11" lengthAdjust="spacing" textLength="231.854" x="139.46" y="433.6206">&#191;Los valores cumplen con los est&#225;ndares?</text><text fill="#000000" font-family="sans-serif" font-size="11" lengthAdjust="spacing" textLength="8.7871" x="118.6729" y="427.2183">s&#237;</text><text fill="#000000" font-family="sans-serif" font-size="11" lengthAdjust="spacing" textLength="13.7017" x="383.314" y="427.2183">no</text><rect fill="#F1F1F1" height="33.9688" rx="12.5" ry="12.5" style="stroke:#181818;stroke-width:0.5;" width="212.9199" x="11" y="451.8125"/><text fill="#000000" font-family="sans-serif" font-size="12" lengthAdjust="spacing" textLength="192.9199" x="21" y="472.9512">Marcar titulaci&#243;n como validada</text><rect fill="#F1F1F1" height="33.9688" rx="12.5" ry="12.5" style="stroke:#181818;stroke-width:0.5;" width="248.8613" x="268.8833" y="451.8125"/><text fill="#000000" font-family="sans-serif" font-size="12" lengthAdjust="spacing" textLength="228.8613" x="278.8833" y="472.9512">Registrar incumplimientos detectados</text><rect fill="#F1F1F1" height="33.9688" rx="12.5" ry="12.5" style="stroke:#181818;stroke-width:0.5;" width="294.3066" x="246.1606" y="505.7813"/><text fill="#000000" font-family="sans-serif" font-size="12" lengthAdjust="spacing" textLength="274.3066" x="256.1606" y="526.9199">Notificar necesidad de ajustes en la titulaci&#243;n</text><polygon fill="#F1F1F1" points="255.387,545.75,267.387,557.75,255.387,569.75,243.387,557.75,255.387,545.75" style="stroke:#181818;stroke-width:0.5;"/><rect fill="#F1F1F1" height="33.9688" rx="12.5" ry="12.5" style="stroke:#181818;stroke-width:0.5;" width="260.457" x="125.1584" y="589.75"/><text fill="#000000" font-family="sans-serif" font-size="12" lengthAdjust="spacing" textLength="240.457" x="135.1584" y="610.8887">Remover titulaci&#243;n de la lista pendiente</text><polygon fill="#F1F1F1" points="255.387,211.9063,267.387,223.9063,255.387,235.9063,243.387,223.9063,255.387,211.9063" style="stroke:#181818;stroke-width:0.5;"/><polygon fill="#F1F1F1" points="145.8516,643.7188,364.9224,643.7188,376.9224,655.7188,364.9224,667.7188,145.8516,667.7188,133.8516,655.7188,145.8516,643.7188" style="stroke:#181818;stroke-width:0.5;"/><text fill="#000000" font-family="sans-serif" font-size="11" lengthAdjust="spacing" textLength="219.0708" x="145.8516" y="659.5269">&#191;Quedan titulaciones por validar? == s&#237;</text><rect fill="#F1F1F1" height="33.9688" rx="12.5" ry="12.5" style="stroke:#181818;stroke-width:0.5;" width="240.4355" x="135.1692" y="687.7188"/><text fill="#000000" font-family="sans-serif" font-size="12" lengthAdjust="spacing" textLength="220.4355" x="145.1692" y="708.8574">Notificar finalizaci&#243;n de la validaci&#243;n</text><ellipse cx="255.387" cy="752.6875" fill="none" rx="11" ry="11" style="stroke:#222222;stroke-width:1;"/><ellipse cx="255.387" cy="752.6875" fill="#222222" rx="6" ry="6" style="stroke:#222222;stroke-width:1;"/><line style="stroke:#181818;stroke-width:1;" x1="255.387" x2="255.387" y1="30" y2="50"/><polygon fill="#181818" points="251.387,40,255.387,50,259.387,40,255.387,44" style="stroke:#181818;stroke-width:1;"/><line style="stroke:#181818;stroke-width:1;" x1="255.387" x2="255.387" y1="83.9688" y2="103.9688"/><polygon fill="#181818" points="251.387,93.9688,255.387,103.9688,259.387,93.9688,255.387,97.9688" style="stroke:#181818;stroke-width:1;"/><line style="stroke:#181818;stroke-width:1;" x1="255.387" x2="255.387" y1="137.9375" y2="157.9375"/><polygon fill="#181818" points="251.387,147.9375,255.387,157.9375,259.387,147.9375,255.387,151.9375" style="stroke:#181818;stroke-width:1;"/><line style="stroke:#181818;stroke-width:1;" x1="255.387" x2="255.387" y1="289.875" y2="309.875"/><polygon fill="#181818" points="251.387,299.875,255.387,309.875,259.387,299.875,255.387,303.875" style="stroke:#181818;stroke-width:1;"/><line style="stroke:#181818;stroke-width:1;" x1="255.387" x2="255.387" y1="343.8438" y2="363.8438"/><polygon fill="#181818" points="251.387,353.8438,255.387,363.8438,259.387,353.8438,255.387,357.8438" style="stroke:#181818;stroke-width:1;"/><line style="stroke:#181818;stroke-width:1;" x1="393.314" x2="393.314" y1="485.7813" y2="505.7813"/><polygon fill="#181818" points="389.314,495.7813,393.314,505.7813,397.314,495.7813,393.314,499.7813" style="stroke:#181818;stroke-width:1;"/><line style="stroke:#181818;stroke-width:1;" x1="127.46" x2="117.46" y1="429.8125" y2="429.8125"/><line style="stroke:#181818;stroke-width:1;" x1="117.46" x2="117.46" y1="429.8125" y2="451.8125"/><polygon fill="#181818" points="113.46,441.8125,117.46,451.8125,121.46,441.8125,117.46,445.8125" style="stroke:#181818;stroke-width:1;"/><line style="stroke:#181818;stroke-width:1;" x1="383.314" x2="393.314" y1="429.8125" y2="429.8125"/><line style="stroke:#181818;stroke-width:1;" x1="393.314" x2="393.314" y1="429.8125" y2="451.8125"/><polygon fill="#181818" points="389.314,441.8125,393.314,451.8125,397.314,441.8125,393.314,445.8125" style="stroke:#181818;stroke-width:1;"/><line style="stroke:#181818;stroke-width:1;" x1="117.46" x2="117.46" y1="485.7813" y2="557.75"/><line style="stroke:#181818;stroke-width:1;" x1="117.46" x2="243.387" y1="557.75" y2="557.75"/><polygon fill="#181818" points="233.387,553.75,243.387,557.75,233.387,561.75,237.387,557.75" style="stroke:#181818;stroke-width:1;"/><line style="stroke:#181818;stroke-width:1;" x1="393.314" x2="393.314" y1="539.75" y2="557.75"/><line style="stroke:#181818;stroke-width:1;" x1="393.314" x2="267.387" y1="557.75" y2="557.75"/><polygon fill="#181818" points="277.387,553.75,267.387,557.75,277.387,561.75,273.387,557.75" style="stroke:#181818;stroke-width:1;"/><line style="stroke:#181818;stroke-width:1;" x1="255.387" x2="255.387" y1="397.8125" y2="417.8125"/><polygon fill="#181818" points="251.387,407.8125,255.387,417.8125,259.387,407.8125,255.387,411.8125" style="stroke:#181818;stroke-width:1;"/><line style="stroke:#181818;stroke-width:1;" x1="255.387" x2="255.387" y1="569.75" y2="589.75"/><polygon fill="#181818" points="251.387,579.75,255.387,589.75,259.387,579.75,255.387,583.75" style="stroke:#181818;stroke-width:1;"/><line style="stroke:#181818;stroke-width:1;" x1="255.387" x2="255.387" y1="235.9063" y2="255.9063"/><polygon fill="#181818" points="251.387,245.9063,255.387,255.9063,259.387,245.9063,255.387,249.9063" style="stroke:#181818;stroke-width:1;"/><line style="stroke:#181818;stroke-width:1;" x1="376.9224" x2="554.4673" y1="655.7188" y2="655.7188"/><polygon fill="#181818" points="550.4673,442.3125,554.4673,432.3125,558.4673,442.3125,554.4673,438.3125" style="stroke:#181818;stroke-width:1;"/><line style="stroke:#181818;stroke-width:1;" x1="554.4673" x2="554.4673" y1="223.9063" y2="655.7188"/><line style="stroke:#181818;stroke-width:1;" x1="554.4673" x2="267.387" y1="223.9063" y2="223.9063"/><polygon fill="#181818" points="277.387,219.9063,267.387,223.9063,277.387,227.9063,273.387,223.9063" style="stroke:#181818;stroke-width:1;"/><line style="stroke:#181818;stroke-width:1;" x1="255.387" x2="255.387" y1="623.7188" y2="643.7188"/><polygon fill="#181818" points="251.387,633.7188,255.387,643.7188,259.387,633.7188,255.387,637.7188" style="stroke:#181818;stroke-width:1;"/><line style="stroke:#181818;stroke-width:1;" x1="255.387" x2="255.387" y1="191.9063" y2="211.9063"/><polygon fill="#181818" points="251.387,201.9063,255.387,211.9063,259.387,201.9063,255.387,205.9063" style="stroke:#181818;stroke-width:1;"/><line style="stroke:#181818;stroke-width:1;" x1="255.387" x2="255.387" y1="667.7188" y2="687.7188"/><polygon fill="#181818" points="251.387,677.7188,255.387,687.7188,259.387,677.7188,255.387,681.7188" style="stroke:#181818;stroke-width:1;"/><line style="stroke:#181818;stroke-width:1;" x1="255.387" x2="255.387" y1="721.6875" y2="741.6875"/><polygon fill="#181818" points="251.387,731.6875,255.387,741.6875,259.387,731.6875,255.387,735.6875" style="stroke:#181818;stroke-width:1;"/><!--SRC=[TL9BJiCm4Dtx5AEksYiqgYhKBGLH9FQ3FMa7sPx8TeB4RJW0gnu0YLmCEsbBAfNrlByT4uQabdTQaw40QC7rHzDQWTaBMZQekJzws9AJm3YhrFAPB6dDuZ60DEFvX0smQLrZsJ7v93DeC21qQ2LG12q-yjwZaLWfjNnyJUIpe-MO40n1ujHQBC8Z-3OnK4EO5C1LZjRZXL_oP3cBetHLi3lgE6RS3KaWNx1kB3YWD-9AyZ2ai0KIK__fSxzCDLIpvx440DSm__c-pvYBT5aWQzxWhXUG3laqZ_tN8fEprHQ3paRJx5gS5BMyfndoa8q4SoydoexskLU9nrvFvYxH4kaqxZH07oHnpSN0awPO5Ciq-DR6HEVc4-_1pHkkrJYQaux2VyD2Kw3PcSwl0ky7jbG6UMh9eBz-qaR2gLPOmse5mmXgaZ7lciyVLqxTtn-iL4pI_080]--></g></svg>