<?xml version="1.0" encoding="us-ascii" standalone="no"?><svg xmlns="http://www.w3.org/2000/svg" xmlns:xlink="http://www.w3.org/1999/xlink" contentStyleType="text/css" height="448px" preserveAspectRatio="none" style="width:930px;height:448px;background:#FFFFFF;" version="1.1" viewBox="0 0 930 448" width="930px" zoomAndPan="magnify"><defs/><g><g id="MenuPrincipal"><rect fill="#F1F1F1" height="50" rx="12.5" ry="12.5" style="stroke:#181818;stroke-width:0.5;" width="137" x="347.11" y="87"/><line style="stroke:#181818;stroke-width:0.5;" x1="347.11" x2="484.11" y1="113.4883" y2="113.4883"/><text fill="#000000" font-family="sans-serif" font-size="14" lengthAdjust="spacing" textLength="117" x="357.11" y="105.5352">MENU_PRINCIPAL</text></g><g id="Mensajes"><rect fill="#F1F1F1" height="50" rx="12.5" ry="12.5" style="stroke:#181818;stroke-width:0.5;" width="164" x="333.61" y="232"/><line style="stroke:#181818;stroke-width:0.5;" x1="333.61" x2="497.61" y1="258.4883" y2="258.4883"/><text fill="#000000" font-family="sans-serif" font-size="14" lengthAdjust="spacing" textLength="144" x="343.61" y="250.5352">LISTANDO_MENSAJES</text></g><g id="CreandoMensaje"><rect fill="#F1F1F1" height="50" rx="12.5" ry="12.5" style="stroke:#181818;stroke-width:0.5;" width="155" x="11.11" y="392"/><line style="stroke:#181818;stroke-width:0.5;" x1="11.11" x2="166.11" y1="418.4883" y2="418.4883"/><text fill="#000000" font-family="sans-serif" font-size="14" lengthAdjust="spacing" textLength="135" x="21.11" y="410.5352">CREANDO_MENSAJE</text></g><g id="ViendoMensaje"><rect fill="#F1F1F1" height="50" rx="12.5" ry="12.5" style="stroke:#181818;stroke-width:0.5;" width="139" x="329.11" y="392"/><line style="stroke:#181818;stroke-width:0.5;" x1="329.11" x2="468.11" y1="418.4883" y2="418.4883"/><text fill="#000000" font-family="sans-serif" font-size="14" lengthAdjust="spacing" textLength="119" x="339.11" y="410.5352">VIENDO_MENSAJE</text></g><g id="ActualizandoMensaje"><rect fill="#F1F1F1" height="50" rx="12.5" ry="12.5" style="stroke:#181818;stroke-width:0.5;" width="196" x="665.61" y="392"/><line style="stroke:#181818;stroke-width:0.5;" x1="665.61" x2="861.61" y1="418.4883" y2="418.4883"/><text fill="#000000" font-family="sans-serif" font-size="14" lengthAdjust="spacing" textLength="176" x="675.61" y="410.5352">ACTUALIZANDO_MENSAJE</text></g><ellipse cx="415.61" cy="16" fill="#222222" rx="10" ry="10" style="stroke:#222222;stroke-width:1.0;"/><!--link *start* to MenuPrincipal--><g id="link_*start*_MenuPrincipal"><path d="M415.61,26.36 C415.61,40.29 415.61,60.95 415.61,80.65 " fill="none" id="*start*-to-MenuPrincipal" style="stroke:#181818;stroke-width:1.0;"/><polygon fill="#181818" points="415.61,86.65,419.61,77.65,415.61,81.65,411.61,77.65,415.61,86.65" style="stroke:#181818;stroke-width:1.0;"/></g><!--link MenuPrincipal to Mensajes--><g id="link_MenuPrincipal_Mensajes"><path d="M357.69,137.44 C346.06,145.14 335.35,154.88 328.61,167 C321.05,180.59 321.05,188.41 328.61,202 C335.35,214.12 341.0571,220.5477 352.6871,228.2477 " fill="none" id="MenuPrincipal-to-Mensajes" style="stroke:#181818;stroke-width:1.0;"/><polygon fill="#181818" points="357.69,231.56,352.3939,223.2563,353.5209,228.7997,347.9775,229.9268,357.69,231.56" style="stroke:#181818;stroke-width:1.0;"/><path d="M333.61,172 L333.61,197 L452.61,197 L452.61,182 L442.61,172 L333.61,172 " fill="#FEFFDD" style="stroke:#181818;stroke-width:0.5;"/><path d="M442.61,172 L442.61,182 L452.61,182 L442.61,172 " fill="#FEFFDD" style="stroke:#181818;stroke-width:0.5;"/><text fill="#000000" font-family="sans-serif" font-size="13" lengthAdjust="spacing" textLength="98" x="339.61" y="189.5684">Listar mensajes</text></g><!--link Mensajes to MenuPrincipal--><g id="link_Mensajes_MenuPrincipal"><path d="M442.75,231.55 C450.35,223.03 457.61,212.86 461.61,202 C466.98,187.4 466.98,181.6 461.61,167 C457.61,156.14 454.344,150.4475 446.744,141.9275 " fill="none" id="Mensajes-to-MenuPrincipal" style="stroke:#181818;stroke-width:1.0;"/><polygon fill="#181818" points="442.75,137.45,445.756,146.8289,446.0783,141.1812,451.726,141.5036,442.75,137.45" style="stroke:#181818;stroke-width:1.0;"/><path d="M470.64,172 L470.64,197 L618.64,197 L618.64,182 L608.64,172 L470.64,172 " fill="#FEFFDD" style="stroke:#181818;stroke-width:0.5;"/><path d="M608.64,172 L608.64,182 L618.64,182 L608.64,172 " fill="#FEFFDD" style="stroke:#181818;stroke-width:0.5;"/><text fill="#000000" font-family="sans-serif" font-size="13" lengthAdjust="spacing" textLength="127" x="476.64" y="189.5684">Abrir Men&#250; Principal</text></g><!--link Mensajes to CreandoMensaje--><g id="link_Mensajes_CreandoMensaje"><path d="M333.52,257.1 C229.91,257.91 60.37,266.43 20.61,312 C6,328.74 10.95,341.99 20.61,362 C26.25,373.68 31.0627,379.8796 41.2227,387.9096 " fill="none" id="Mensajes-to-CreandoMensaje" style="stroke:#181818;stroke-width:1.0;"/><polygon fill="#181818" points="45.93,391.63,41.3494,382.9112,42.0073,388.5297,36.3888,389.1876,45.93,391.63" style="stroke:#181818;stroke-width:1.0;"/><path d="M25.61,317 L25.61,357 L125.61,357 L125.61,327 L115.61,317 L25.61,317 " fill="#FEFFDD" style="stroke:#181818;stroke-width:0.5;"/><path d="M115.61,317 L115.61,327 L125.61,327 L115.61,317 " fill="#FEFFDD" style="stroke:#181818;stroke-width:0.5;"/><text fill="#000000" font-family="sans-serif" font-size="13" lengthAdjust="spacing" textLength="75" x="31.61" y="334.5684">Crear nuevo</text><text fill="#000000" font-family="sans-serif" font-size="13" lengthAdjust="spacing" textLength="52" x="31.61" y="349.8789">mensaje</text></g><!--link CreandoMensaje to Mensajes--><g id="link_CreandoMensaje_Mensajes"><path d="M110.65,391.81 C135.96,364.53 176.46,322.61 195.61,312 C237.84,288.6 284.2413,276.2725 327.2613,268.6825 " fill="none" id="CreandoMensaje-to-Mensajes" style="stroke:#181818;stroke-width:1.0;"/><polygon fill="#181818" points="333.17,267.64,323.6119,265.2646,328.246,268.5087,325.0019,273.1429,333.17,267.64" style="stroke:#181818;stroke-width:1.0;"/><path d="M200.61,324.5 L200.61,349.5 L319.61,349.5 L319.61,334.5 L309.61,324.5 L200.61,324.5 " fill="#FEFFDD" style="stroke:#181818;stroke-width:0.5;"/><path d="M309.61,324.5 L309.61,334.5 L319.61,334.5 L309.61,324.5 " fill="#FEFFDD" style="stroke:#181818;stroke-width:0.5;"/><text fill="#000000" font-family="sans-serif" font-size="13" lengthAdjust="spacing" textLength="98" x="206.61" y="342.0684">Listar mensajes</text></g><!--link CreandoMensaje to CreandoMensaje--><g id="link_CreandoMensaje_CreandoMensaje"><path d="M166.43,402.18 C186.24,403.15 201.11,408.09 201.11,417 C201.11,425.91 192.2328,430.5566 172.4228,431.5266 " fill="none" id="CreandoMensaje-to-CreandoMensaje" style="stroke:#181818;stroke-width:1.0;"/><polygon fill="#181818" points="166.43,431.82,175.6149,435.3751,171.424,431.5755,175.2236,427.3846,166.43,431.82" style="stroke:#181818;stroke-width:1.0;"/><path d="M206.11,404.5 L206.11,429.5 L298.11,429.5 L298.11,414.5 L288.11,404.5 L206.11,404.5 " fill="#FEFFDD" style="stroke:#181818;stroke-width:0.5;"/><path d="M288.11,404.5 L288.11,414.5 L298.11,414.5 L288.11,404.5 " fill="#FEFFDD" style="stroke:#181818;stroke-width:0.5;"/><text fill="#000000" font-family="sans-serif" font-size="13" lengthAdjust="spacing" textLength="71" x="212.11" y="422.0684">Crear env&#237;o</text></g><!--link Mensajes to ViendoMensaje--><g id="link_Mensajes_ViendoMensaje"><path d="M366.84,282.3 C355.93,290.19 345.77,300.06 339.61,312 C329.42,331.75 330.65,341.66 339.61,362 C344.65,373.44 348.9458,379.5235 358.2258,387.7735 " fill="none" id="Mensajes-to-ViendoMensaje" style="stroke:#181818;stroke-width:1.0;"/><polygon fill="#181818" points="362.71,391.76,358.6414,382.7908,358.9732,388.4379,353.3261,388.7697,362.71,391.76" style="stroke:#181818;stroke-width:1.0;"/><path d="M344.61,324.5 L344.61,349.5 L441.61,349.5 L441.61,334.5 L431.61,324.5 L344.61,324.5 " fill="#FEFFDD" style="stroke:#181818;stroke-width:0.5;"/><path d="M431.61,324.5 L431.61,334.5 L441.61,334.5 L431.61,324.5 " fill="#FEFFDD" style="stroke:#181818;stroke-width:0.5;"/><text fill="#000000" font-family="sans-serif" font-size="13" lengthAdjust="spacing" textLength="76" x="350.61" y="342.0684">Ver mensaje</text></g><!--link ViendoMensaje to Mensajes--><g id="link_ViendoMensaje_Mensajes"><path d="M429.78,391.58 C438.16,383.2 446.13,373.11 450.61,362 C458.92,341.39 456.91,333.31 450.61,312 C447.51,301.5 445.0466,296.0761 438.9966,287.2661 " fill="none" id="ViendoMensaje-to-Mensajes" style="stroke:#181818;stroke-width:1.0;"/><polygon fill="#181818" points="435.6,282.32,437.3975,292.0034,438.4305,286.4417,443.9922,287.4747,435.6,282.32" style="stroke:#181818;stroke-width:1.0;"/><path d="M461.11,324.5 L461.11,349.5 L580.11,349.5 L580.11,334.5 L570.11,324.5 L461.11,324.5 " fill="#FEFFDD" style="stroke:#181818;stroke-width:0.5;"/><path d="M570.11,324.5 L570.11,334.5 L580.11,334.5 L570.11,324.5 " fill="#FEFFDD" style="stroke:#181818;stroke-width:0.5;"/><text fill="#000000" font-family="sans-serif" font-size="13" lengthAdjust="spacing" textLength="98" x="467.11" y="342.0684">Listar mensajes</text></g><!--link Mensajes to ActualizandoMensaje--><g id="link_Mensajes_ActualizandoMensaje"><path d="M497.95,275.89 C528.98,284.44 563.92,296.29 593.61,312 C624.9,328.55 625.83,342.86 655.61,362 C672.36,372.77 686.1721,380.3399 703.6821,388.9199 " fill="none" id="Mensajes-to-ActualizandoMensaje" style="stroke:#181818;stroke-width:1.0;"/><polygon fill="#181818" points="709.07,391.56,702.7482,384.0079,704.5801,389.3599,699.228,391.1918,709.07,391.56" style="stroke:#181818;stroke-width:1.0;"/><path d="M660.61,324.5 L660.61,349.5 L820.61,349.5 L820.61,334.5 L810.61,324.5 L660.61,324.5 " fill="#FEFFDD" style="stroke:#181818;stroke-width:0.5;"/><path d="M810.61,324.5 L810.61,334.5 L820.61,334.5 L810.61,324.5 " fill="#FEFFDD" style="stroke:#181818;stroke-width:0.5;"/><text fill="#000000" font-family="sans-serif" font-size="13" lengthAdjust="spacing" textLength="139" x="666.61" y="342.0684">Actualizar un mensaje</text></g><!--link ActualizandoMensaje to Mensajes--><g id="link_ActualizandoMensaje_Mensajes"><path d="M804.71,391.69 C814.7,383.6 824.09,373.64 829.61,362 C839.13,341.92 844.27,328.7 829.61,312 C808.09,287.49 618.1462,271.157 503.7062,263.377 " fill="none" id="ActualizandoMensaje-to-Mensajes" style="stroke:#181818;stroke-width:1.0;"/><polygon fill="#181818" points="497.72,262.97,506.428,267.5712,502.7085,263.3091,506.9706,259.5897,497.72,262.97" style="stroke:#181818;stroke-width:1.0;"/><path d="M843.77,317 L843.77,357 L923.77,357 L923.77,327 L913.77,317 L843.77,317 " fill="#FEFFDD" style="stroke:#181818;stroke-width:0.5;"/><path d="M913.77,317 L913.77,327 L923.77,327 L913.77,317 " fill="#FEFFDD" style="stroke:#181818;stroke-width:0.5;"/><text fill="#000000" font-family="sans-serif" font-size="13" lengthAdjust="spacing" textLength="35" x="849.77" y="334.5684">Listar</text><text fill="#000000" font-family="sans-serif" font-size="13" lengthAdjust="spacing" textLength="59" x="849.77" y="349.8789">mensajes</text></g><!--SRC=[hP91Ri8m44NtESM8PIMkW6IbMRWAQKGWYw8AkTGBjs5SsGaBxiG5kkLYEAQcSS15LF7Ee-VdF_RecjKSHjCaMwpo6SrYcfDq14p3b6EJAu5hySMgI9-ub1PpaZq-hyo1WZmbXKCr- -3QKV4iwKAMYHLd-2v_K4UMDEc3fU2N78dd2vBIbmijMTSDgyIkwuwM3wym7azwBKJUrW6du60MIdEJHAW4Vjf2kr9X4YZOT46JpyBMQCjMrkimg6mv1TZmhOHpSTCvzUltbV-uXUFsi9UthOC-XF-3GMF9LQ1jJp1ylcip4_IUOGKD1l9U4TwNkZy6VyRtfpeS_4q9rSA7R_1nvpq2]--></g></svg>