<svg xmlns="http://www.w3.org/2000/svg" xmlns:xlink="http://www.w3.org/1999/xlink" contentStyleType="text/css" height="448px" preserveAspectRatio="none" style="width:1012px;height:448px;background:#FFFFFF;" version="1.1" viewBox="0 0 1012 448" width="1012px" zoomAndPan="magnify"><defs/><g><g id="NoAutenticado"><rect fill="#F1F1F1" height="50" rx="12.5" ry="12.5" style="stroke:#181818;stroke-width:0.5;" width="150.0195" x="349.64" y="87"/><line style="stroke:#181818;stroke-width:0.5;" x1="349.64" x2="499.6595" y1="113.2969" y2="113.2969"/><text fill="#000000" font-family="sans-serif" font-size="14" lengthAdjust="spacing" textLength="130.0195" x="359.64" y="104.9951">NO_AUTENTICADO</text></g><g id="MenuPrincipal"><rect fill="#F1F1F1" height="50" rx="12.5" ry="12.5" style="stroke:#181818;stroke-width:0.5;" width="141.1396" x="354.14" y="232"/><line style="stroke:#181818;stroke-width:0.5;" x1="354.14" x2="495.2796" y1="258.2969" y2="258.2969"/><text fill="#000000" font-family="sans-serif" font-size="14" lengthAdjust="spacing" textLength="121.1396" x="364.14" y="249.9951">MENU_PRINCIPAL</text></g><g id="EditandoGuia"><rect fill="#F1F1F1" height="50" rx="12.5" ry="12.5" style="stroke:#181818;stroke-width:0.5;" width="135.958" x="115.64" y="392"/><line style="stroke:#181818;stroke-width:0.5;" x1="115.64" x2="251.598" y1="418.2969" y2="418.2969"/><text fill="#000000" font-family="sans-serif" font-size="14" lengthAdjust="spacing" textLength="115.958" x="125.64" y="409.9951">EDITANDO_GU&#205;A</text></g><g id="VisualizandoGuia"><rect fill="#F1F1F1" height="50" rx="12.5" ry="12.5" style="stroke:#181818;stroke-width:0.5;" width="167.5879" x="581.64" y="392"/><line style="stroke:#181818;stroke-width:0.5;" x1="581.64" x2="749.2279" y1="418.2969" y2="418.2969"/><text fill="#000000" font-family="sans-serif" font-size="14" lengthAdjust="spacing" textLength="147.5879" x="591.64" y="409.9951">VISUALIZANDO_GU&#205;A</text></g><ellipse cx="424.64" cy="16" fill="#222222" rx="10" ry="10" style="stroke:#222222;stroke-width:1;"/><ellipse cx="663.64" cy="257" fill="none" rx="11" ry="11" style="stroke:#222222;stroke-width:1;"/><ellipse cx="663.64" cy="257" fill="#222222" rx="6" ry="6" style="stroke:#222222;stroke-width:1;"/><!--link *start* to NoAutenticado--><g id="link_*start*_NoAutenticado"><path d="M424.64,26.01 C424.64,39.89 424.64,60.97 424.64,80.84 " fill="none" id="*start*-to-NoAutenticado" style="stroke:#181818;stroke-width:1;"/><polygon fill="#181818" points="424.64,86.84,428.64,77.84,424.64,81.84,420.64,77.84,424.64,86.84" style="stroke:#181818;stroke-width:1;"/></g><!--link NoAutenticado to MenuPrincipal--><g id="link_NoAutenticado_MenuPrincipal"><path d="M424.64,137.26 C424.64,163.55 424.64,199.28 424.64,225.62 " fill="none" id="NoAutenticado-to-MenuPrincipal" style="stroke:#181818;stroke-width:1;"/><polygon fill="#181818" points="424.64,231.62,428.64,222.62,424.64,226.62,420.64,222.62,424.64,231.62" style="stroke:#181818;stroke-width:1;"/><path d="M429.64,172 L429.64,197 L543.64,197 L543.64,182 L533.64,172 L429.64,172 " fill="#FEFFDD" style="stroke:#181818;stroke-width:0.5;"/><path d="M533.64,172 L533.64,182 L543.64,182 L533.64,172 " fill="#FEFFDD" style="stroke:#181818;stroke-width:0.5;"/><text fill="#000000" font-family="sans-serif" font-size="13" lengthAdjust="spacing" textLength="85.0142" x="435.64" y="189.0669">iniciar sesi&#243;n</text></g><!--link MenuPrincipal to *end*--><g id="link_MenuPrincipal_*end*"><path d="M495.38,257 C551.54,257 619.04,257 646.58,257 " fill="none" id="MenuPrincipal-to-*end*" style="stroke:#181818;stroke-width:1;"/><polygon fill="#181818" points="652.58,257,643.58,253,647.58,257,643.58,261,652.58,257" style="stroke:#181818;stroke-width:1;"/><path d="M517.39,224 L517.39,249 L630.39,249 L630.39,234 L620.39,224 L517.39,224 " fill="#FEFFDD" style="stroke:#181818;stroke-width:0.5;"/><path d="M620.39,224 L620.39,234 L630.39,234 L620.39,224 " fill="#FEFFDD" style="stroke:#181818;stroke-width:0.5;"/><text fill="#000000" font-family="sans-serif" font-size="13" lengthAdjust="spacing" textLength="84.627" x="523.39" y="241.0669">cerrar sesi&#243;n</text></g><!--link MenuPrincipal to VisualizandoGuia--><g id="link_MenuPrincipal_VisualizandoGuia"><path d="M486.96,282.05 C503.47,290.11 520.58,300.12 534.64,312 C555.55,329.67 550.27,343.7 570.64,362 C583.48,373.54 593.9582,380.7705 608.8782,389.0805 " fill="none" id="MenuPrincipal-to-VisualizandoGuia" style="stroke:#181818;stroke-width:1;"/><polygon fill="#181818" points="614.12,392,608.2037,384.1262,609.7518,389.5671,604.311,391.1152,614.12,392" style="stroke:#181818;stroke-width:1;"/><path d="M575.64,317 L575.64,357 L776.64,357 L776.64,327 L766.64,317 L575.64,317 " fill="#FEFFDD" style="stroke:#181818;stroke-width:0.5;"/><path d="M766.64,317 L766.64,327 L776.64,327 L766.64,317 " fill="#FEFFDD" style="stroke:#181818;stroke-width:0.5;"/><text fill="#000000" font-family="sans-serif" font-size="13" lengthAdjust="spacing" textLength="171.7485" x="581.64" y="334.0669">Visualizar gu&#237;as asignadas</text><text fill="#000000" font-family="sans-serif" font-size="13" lengthAdjust="spacing" textLength="88.6895" x="581.64" y="349.1997">para consulta</text></g><!--link VisualizandoGuia to MenuPrincipal--><g id="link_VisualizandoGuia_MenuPrincipal"><path d="M749.88,393.17 C764.05,385.55 776.96,375.43 785.64,362 C797.7,343.34 800.14,328.84 785.64,312 C776.23,301.08 603.6979,279.0998 501.2879,266.8998 " fill="none" id="VisualizandoGuia-to-MenuPrincipal" style="stroke:#181818;stroke-width:1;"/><polygon fill="#181818" points="495.33,266.19,503.7936,271.2265,500.2949,266.7815,504.74,263.2827,495.33,266.19" style="stroke:#181818;stroke-width:1;"/><path d="M800.64,324.5 L800.64,349.5 L1005.64,349.5 L1005.64,334.5 L995.64,324.5 L800.64,324.5 " fill="#FEFFDD" style="stroke:#181818;stroke-width:0.5;"/><path d="M995.64,324.5 L995.64,334.5 L1005.64,334.5 L995.64,324.5 " fill="#FEFFDD" style="stroke:#181818;stroke-width:0.5;"/><text fill="#000000" font-family="sans-serif" font-size="13" lengthAdjust="spacing" textLength="175.8618" x="806.64" y="341.5669">Regresar al men&#250; principal</text></g><!--link MenuPrincipal to EditandoGuia--><g id="link_MenuPrincipal_EditandoGuia"><path d="M354.07,262.44 C244.12,270.09 42.22,287.34 20.64,312 C6,328.72 7.63,343.98 20.64,362 C42.28,391.97 75.2914,404.5268 109.6714,410.5968 " fill="none" id="MenuPrincipal-to-EditandoGuia" style="stroke:#181818;stroke-width:1;"/><polygon fill="#181818" points="115.58,411.64,107.4125,406.1361,110.6562,410.7707,106.0216,414.0143,115.58,411.64" style="stroke:#181818;stroke-width:1;"/><path d="M25.64,317 L25.64,357 L228.64,357 L228.64,327 L218.64,317 L25.64,317 " fill="#FEFFDD" style="stroke:#181818;stroke-width:0.5;"/><path d="M218.64,317 L218.64,327 L228.64,327 L218.64,317 " fill="#FEFFDD" style="stroke:#181818;stroke-width:0.5;"/><text fill="#000000" font-family="sans-serif" font-size="13" lengthAdjust="spacing" textLength="173.7861" x="31.64" y="334.0669">Acceder a gu&#237;as asignadas</text><text fill="#000000" font-family="sans-serif" font-size="13" lengthAdjust="spacing" textLength="80.4756" x="31.64" y="349.1997">para edici&#243;n</text></g><!--link EditandoGuia to MenuPrincipal--><g id="link_EditandoGuia_MenuPrincipal"><path d="M210.1,391.79 C219.27,382.83 229.33,372.33 237.64,362 C254.17,341.44 248.93,328.35 269.64,312 C294.02,292.75 319.964,281.7593 348.354,273.5893 " fill="none" id="EditandoGuia-to-MenuPrincipal" style="stroke:#181818;stroke-width:1;"/><polygon fill="#181818" points="354.12,271.93,344.3648,270.575,349.315,273.3128,346.5772,278.263,354.12,271.93" style="stroke:#181818;stroke-width:1;"/><path d="M274.64,324.5 L274.64,349.5 L521.64,349.5 L521.64,334.5 L511.64,324.5 L274.64,324.5 " fill="#FEFFDD" style="stroke:#181818;stroke-width:0.5;"/><path d="M511.64,324.5 L511.64,334.5 L521.64,334.5 L511.64,324.5 " fill="#FEFFDD" style="stroke:#181818;stroke-width:0.5;"/><text fill="#000000" font-family="sans-serif" font-size="13" lengthAdjust="spacing" textLength="217.7373" x="280.64" y="341.5669">Guardar cambios y cerrar edici&#243;n</text></g><!--link EditandoGuia to EditandoGuia--><g id="link_EditandoGuia_EditandoGuia"><path d="M251.98,402.06 C271.55,402.64 286.64,407.62 286.64,417 C286.64,426.38 277.5474,431.1823 257.9774,431.7623 " fill="none" id="EditandoGuia-to-EditandoGuia" style="stroke:#181818;stroke-width:1;"/><polygon fill="#181818" points="251.98,431.94,261.0945,435.6716,256.9778,431.7919,260.8576,427.6751,251.98,431.94" style="stroke:#181818;stroke-width:1;"/><path d="M291.64,404.5 L291.64,429.5 L491.64,429.5 L491.64,414.5 L481.64,404.5 L291.64,404.5 " fill="#FEFFDD" style="stroke:#181818;stroke-width:0.5;"/><path d="M481.64,404.5 L481.64,414.5 L491.64,414.5 L481.64,404.5 " fill="#FEFFDD" style="stroke:#181818;stroke-width:0.5;"/><text fill="#000000" font-family="sans-serif" font-size="13" lengthAdjust="spacing" textLength="171.4692" x="297.64" y="421.5669">Ajustar contenido editable</text></g><!--SRC=[bP9DRi8m48Ntd6B4iX9Ng6H1X291G9ImQ5MXmHwXQOEDx7ZHtg57wQgxRdEnsloKXfyKieWY-vjvxqt6bLWIjBFHNEJJ99kcNT4RjG4TP4RuadJ94fLfkIqtJB9yFfwaMJSTYy666vBsOyjQyXeBW3sPzDAfo7gZUJ-lFiI6J1INg9NfUyO3E4iVSZ587u_W6JkF1R__AMWztJr3ftDVjmRX1kAhVXgvchMMDa7EQ2XOl-vguiEQ9QC5HuwhBxsx8QrWKn1awmb3t-XZYrteASdQMrg6dcVoDWZyqXQMlleCyqB7IuqgV1seDLe4QRJpHObdN9nedWojsSM4bfPSy1305Udg6zP7XSsPZnQYGKb8IOg2qBznIONVUNxeDRaRzLzyM5SRXnbMZCD-KQnT57IDpWqZxNkqAWhXQi76mTj-boxa-W40]--></g></svg>