<svg xmlns="http://www.w3.org/2000/svg" xmlns:xlink="http://www.w3.org/1999/xlink" contentStyleType="text/css" height="352px" preserveAspectRatio="none" style="width:971px;height:352px;background:#FFFFFF;" version="1.1" viewBox="0 0 971 352" width="971px" zoomAndPan="magnify"><defs/><g><g id="MenuPrincipal"><rect fill="#F1F1F1" height="50" rx="12.5" ry="12.5" style="stroke:#181818;stroke-width:0.5;" width="141.1396" x="354.14" y="136"/><line style="stroke:#181818;stroke-width:0.5;" x1="354.14" x2="495.2796" y1="162.2969" y2="162.2969"/><text fill="#000000" font-family="sans-serif" font-size="14" lengthAdjust="spacing" textLength="121.1396" x="364.14" y="153.9951">MENU_PRINCIPAL</text></g><g id="EditandoGuia"><rect fill="#F1F1F1" height="50" rx="12.5" ry="12.5" style="stroke:#181818;stroke-width:0.5;" width="135.958" x="115.64" y="296"/><line style="stroke:#181818;stroke-width:0.5;" x1="115.64" x2="251.598" y1="322.2969" y2="322.2969"/><text fill="#000000" font-family="sans-serif" font-size="14" lengthAdjust="spacing" textLength="115.958" x="125.64" y="313.9951">EDITANDO_GU&#205;A</text></g><g id="VisualizandoGuia"><rect fill="#F1F1F1" height="50" rx="12.5" ry="12.5" style="stroke:#181818;stroke-width:0.5;" width="167.5879" x="581.64" y="296"/><line style="stroke:#181818;stroke-width:0.5;" x1="581.64" x2="749.2279" y1="322.2969" y2="322.2969"/><text fill="#000000" font-family="sans-serif" font-size="14" lengthAdjust="spacing" textLength="147.5879" x="591.64" y="313.9951">VISUALIZANDO_GU&#205;A</text></g><ellipse cx="424.64" cy="16" fill="#222222" rx="10" ry="10" style="stroke:#222222;stroke-width:1;"/><ellipse cx="662.64" cy="161" fill="none" rx="11" ry="11" style="stroke:#222222;stroke-width:1;"/><ellipse cx="662.64" cy="161" fill="#222222" rx="6" ry="6" style="stroke:#222222;stroke-width:1;"/><!--link *start* to MenuPrincipal--><g id="link_*start*_MenuPrincipal"><path d="M424.64,26.38 C424.64,48.38 424.64,97.83 424.64,129.96 " fill="none" id="*start*-to-MenuPrincipal" style="stroke:#181818;stroke-width:1;"/><polygon fill="#181818" points="424.64,135.96,428.64,126.96,424.64,130.96,420.64,126.96,424.64,135.96" style="stroke:#181818;stroke-width:1;"/><path d="M429.64,61 L429.64,101 L537.64,101 L537.64,71 L527.64,61 L429.64,61 " fill="#FEFFDD" style="stroke:#181818;stroke-width:0.5;"/><path d="M527.64,61 L527.64,71 L537.64,71 L527.64,61 " fill="#FEFFDD" style="stroke:#181818;stroke-width:0.5;"/><text fill="#000000" font-family="sans-serif" font-size="13" lengthAdjust="spacing" textLength="53.7837" x="435.64" y="78.0669">Profesor</text><text fill="#000000" font-family="sans-serif" font-size="13" lengthAdjust="spacing" textLength="79.6694" x="435.64" y="93.1997">inicia sesi&#243;n</text></g><!--link MenuPrincipal to *end*--><g id="link_MenuPrincipal_*end*"><path d="M495.4,161 C551.03,161 617.6,161 645.26,161 " fill="none" id="MenuPrincipal-to-*end*" style="stroke:#181818;stroke-width:1;"/><polygon fill="#181818" points="651.26,161,642.26,157,646.26,161,642.26,165,651.26,161" style="stroke:#181818;stroke-width:1;"/><path d="M517.39,113 L517.39,153 L629.39,153 L629.39,123 L619.39,113 L517.39,113 " fill="#FEFFDD" style="stroke:#181818;stroke-width:0.5;"/><path d="M619.39,113 L619.39,123 L629.39,123 L619.39,113 " fill="#FEFFDD" style="stroke:#181818;stroke-width:0.5;"/><text fill="#000000" font-family="sans-serif" font-size="13" lengthAdjust="spacing" textLength="53.7837" x="523.39" y="130.0669">Profesor</text><text fill="#000000" font-family="sans-serif" font-size="13" lengthAdjust="spacing" textLength="82.894" x="523.39" y="145.1997">cierra sesi&#243;n</text></g><!--link MenuPrincipal to VisualizandoGuia--><g id="link_MenuPrincipal_VisualizandoGuia"><path d="M486.96,186.05 C503.47,194.11 520.58,204.12 534.64,216 C555.55,233.67 550.27,247.7 570.64,266 C583.48,277.54 593.9582,284.7705 608.8782,293.0805 " fill="none" id="MenuPrincipal-to-VisualizandoGuia" style="stroke:#181818;stroke-width:1;"/><polygon fill="#181818" points="614.12,296,608.2037,288.1262,609.7518,293.5671,604.311,295.1152,614.12,296" style="stroke:#181818;stroke-width:1;"/><path d="M575.64,221 L575.64,261 L735.64,261 L735.64,231 L725.64,221 L575.64,221 " fill="#FEFFDD" style="stroke:#181818;stroke-width:0.5;"/><path d="M725.64,221 L725.64,231 L735.64,231 L725.64,221 " fill="#FEFFDD" style="stroke:#181818;stroke-width:0.5;"/><text fill="#000000" font-family="sans-serif" font-size="13" lengthAdjust="spacing" textLength="131.1426" x="581.64" y="238.0669">Ver gu&#237;as asignadas</text><text fill="#000000" font-family="sans-serif" font-size="13" lengthAdjust="spacing" textLength="88.6895" x="581.64" y="253.1997">para consulta</text></g><!--link VisualizandoGuia to MenuPrincipal--><g id="link_VisualizandoGuia_MenuPrincipal"><path d="M716.7,295.77 C727.89,287.92 738.28,278.05 744.64,266 C755.01,246.35 758.99,232.97 744.64,216 C728.7,197.15 590.5849,179.4479 501.2749,169.7479 " fill="none" id="VisualizandoGuia-to-MenuPrincipal" style="stroke:#181818;stroke-width:1;"/><polygon fill="#181818" points="495.31,169.1,503.8255,174.0484,500.2808,169.6399,504.6893,166.0952,495.31,169.1" style="stroke:#181818;stroke-width:1;"/><path d="M759.64,228.5 L759.64,253.5 L964.64,253.5 L964.64,238.5 L954.64,228.5 L759.64,228.5 " fill="#FEFFDD" style="stroke:#181818;stroke-width:0.5;"/><path d="M954.64,228.5 L954.64,238.5 L964.64,238.5 L954.64,228.5 " fill="#FEFFDD" style="stroke:#181818;stroke-width:0.5;"/><text fill="#000000" font-family="sans-serif" font-size="13" lengthAdjust="spacing" textLength="175.8618" x="765.64" y="245.5669">Regresar al men&#250; principal</text></g><!--link MenuPrincipal to EditandoGuia--><g id="link_MenuPrincipal_EditandoGuia"><path d="M354.07,166.44 C244.12,174.09 42.22,191.34 20.64,216 C6,232.72 7.63,247.98 20.64,266 C42.28,295.97 75.2914,308.5268 109.6714,314.5968 " fill="none" id="MenuPrincipal-to-EditandoGuia" style="stroke:#181818;stroke-width:1;"/><polygon fill="#181818" points="115.58,315.64,107.4125,310.1361,110.6562,314.7707,106.0216,318.0143,115.58,315.64" style="stroke:#181818;stroke-width:1;"/><path d="M25.64,221 L25.64,261 L228.64,261 L228.64,231 L218.64,221 L25.64,221 " fill="#FEFFDD" style="stroke:#181818;stroke-width:0.5;"/><path d="M218.64,221 L218.64,231 L228.64,231 L218.64,221 " fill="#FEFFDD" style="stroke:#181818;stroke-width:0.5;"/><text fill="#000000" font-family="sans-serif" font-size="13" lengthAdjust="spacing" textLength="173.7861" x="31.64" y="238.0669">Acceder a gu&#237;as asignadas</text><text fill="#000000" font-family="sans-serif" font-size="13" lengthAdjust="spacing" textLength="80.4756" x="31.64" y="253.1997">para edici&#243;n</text></g><!--link EditandoGuia to MenuPrincipal--><g id="link_EditandoGuia_MenuPrincipal"><path d="M210.1,295.79 C219.27,286.83 229.33,276.33 237.64,266 C254.17,245.44 248.93,232.35 269.64,216 C294.02,196.75 319.964,185.7593 348.354,177.5893 " fill="none" id="EditandoGuia-to-MenuPrincipal" style="stroke:#181818;stroke-width:1;"/><polygon fill="#181818" points="354.12,175.93,344.3648,174.575,349.315,177.3128,346.5772,182.263,354.12,175.93" style="stroke:#181818;stroke-width:1;"/><path d="M274.64,228.5 L274.64,253.5 L521.64,253.5 L521.64,238.5 L511.64,228.5 L274.64,228.5 " fill="#FEFFDD" style="stroke:#181818;stroke-width:0.5;"/><path d="M511.64,228.5 L511.64,238.5 L521.64,238.5 L511.64,228.5 " fill="#FEFFDD" style="stroke:#181818;stroke-width:0.5;"/><text fill="#000000" font-family="sans-serif" font-size="13" lengthAdjust="spacing" textLength="217.7373" x="280.64" y="245.5669">Guardar cambios y cerrar edici&#243;n</text></g><!--link EditandoGuia to EditandoGuia--><g id="link_EditandoGuia_EditandoGuia"><path d="M251.98,306.06 C271.55,306.64 286.64,311.62 286.64,321 C286.64,330.38 277.5474,335.1823 257.9774,335.7623 " fill="none" id="EditandoGuia-to-EditandoGuia" style="stroke:#181818;stroke-width:1;"/><polygon fill="#181818" points="251.98,335.94,261.0945,339.6716,256.9778,335.7919,260.8576,331.6751,251.98,335.94" style="stroke:#181818;stroke-width:1;"/><path d="M291.64,308.5 L291.64,333.5 L491.64,333.5 L491.64,318.5 L481.64,308.5 L291.64,308.5 " fill="#FEFFDD" style="stroke:#181818;stroke-width:0.5;"/><path d="M481.64,308.5 L481.64,318.5 L491.64,318.5 L481.64,308.5 " fill="#FEFFDD" style="stroke:#181818;stroke-width:0.5;"/><text fill="#000000" font-family="sans-serif" font-size="13" lengthAdjust="spacing" textLength="171.4692" x="297.64" y="325.5669">Ajustar contenido editable</text></g><!--SRC=[bP9DJiD038NtFONL9LAlW1JHg8hKbgYGBa2eScVSof1wgfdC0kx0KLYnOvkBuT1A_QMGMOqyp_xqtZXKM15qH-cucEMJR7oJvScm2nXWH19pps9uZIL09soKQJ-xJyRzszcWgD-J7sLgkKAnRX0PTy9fTbSam-pXI3pb4B7ajxs6pkFL4_HwroT8q2DEXpc1akLbMsfExjs2WlDx9HOsEYzGuFfJjWyaTZD2COVZbTTmsr8Ca_SjA8evO_a2SqeUbh7-qAmmy5BGwcttl4Qb6oSXbXMUmP_0MWOxeQMdW1vKk2Afls1zr7ZPxD4oN20bnf1Li_YdNRBwi-VJFi2rv3z7NLNVX5cHi7KDfy9vIV_Xj8Xq4D7R1eIhERi0hs2Q7VA_-Ve6]--></g></svg>