<svg xmlns="http://www.w3.org/2000/svg" xmlns:xlink="http://www.w3.org/1999/xlink" contentStyleType="text/css" height="576px" preserveAspectRatio="none" style="width:1390px;height:576px;background:#FFFFFF;" version="1.1" viewBox="0 0 1390 576" width="1390px" zoomAndPan="magnify"><defs/><g><!--entity ADMINISTRADOR--><g id="elem_ADMINISTRADOR"><rect fill="#9ACD32" height="38.6211" rx="2.5" ry="2.5" style="stroke:#181818;stroke-width:0.5;" width="137.4482" x="589.45" y="7"/><text fill="#000000" font-family="sans-serif" font-size="14" lengthAdjust="spacing" textLength="117.4482" x="599.45" y="32.1074">ADMINISTRADOR</text></g><!--entity PAGINA_PRINCIPAL--><g id="elem_PAGINA_PRINCIPAL"><rect fill="#ADD8E6" height="38.6211" rx="2.5" ry="2.5" style="stroke:#181818;stroke-width:0.5;" width="154.5996" x="580.45" y="125"/><text fill="#000000" font-family="sans-serif" font-size="14" lengthAdjust="spacing" textLength="134.5996" x="590.45" y="150.1074">PAGINA_PRINCIPAL</text></g><!--entity NAVEGACION_MENUS--><g id="elem_NAVEGACION_MENUS"><rect fill="#87CEEB" height="38.6211" rx="2.5" ry="2.5" style="stroke:#181818;stroke-width:0.5;" width="171.6963" x="571.95" y="243"/><text fill="#000000" font-family="sans-serif" font-size="14" lengthAdjust="spacing" textLength="151.6963" x="581.95" y="268.1074">NAVEGACION_MENUS</text></g><!--entity MENU_USUARIOS--><g id="elem_MENU_USUARIOS"><rect fill="#FFFF00" height="38.6211" rx="2.5" ry="2.5" style="stroke:#181818;stroke-width:0.5;" width="142.1309" x="67.95" y="361"/><text fill="#000000" font-family="sans-serif" font-size="14" lengthAdjust="spacing" textLength="122.1309" x="77.95" y="386.1074">MENU_USUARIOS</text></g><!--entity MENU_RUTINAS--><g id="elem_MENU_RUTINAS"><rect fill="#98FB98" height="38.6211" rx="2.5" ry="2.5" style="stroke:#181818;stroke-width:0.5;" width="130.4551" x="303.95" y="361"/><text fill="#000000" font-family="sans-serif" font-size="14" lengthAdjust="spacing" textLength="110.4551" x="313.95" y="386.1074">MENU_RUTINAS</text></g><!--entity MENU_RETOS--><g id="elem_MENU_RETOS"><rect fill="#FFA07A" height="38.6211" rx="2.5" ry="2.5" style="stroke:#181818;stroke-width:0.5;" width="117.2344" x="569.45" y="361"/><text fill="#000000" font-family="sans-serif" font-size="14" lengthAdjust="spacing" textLength="97.2344" x="579.45" y="386.1074">MENU_RETOS</text></g><!--entity MENU_CONFIGURACION--><g id="elem_MENU_CONFIGURACION"><rect fill="#FFD700" height="38.6211" rx="2.5" ry="2.5" style="stroke:#181818;stroke-width:0.5;" width="188.0068" x="803.95" y="361"/><text fill="#000000" font-family="sans-serif" font-size="14" lengthAdjust="spacing" textLength="168.0068" x="813.95" y="386.1074">MENU_CONFIGURACION</text></g><!--entity MENU_REPORTES--><g id="elem_MENU_REPORTES"><rect fill="#F08080" height="38.6211" rx="2.5" ry="2.5" style="stroke:#181818;stroke-width:0.5;" width="146.0205" x="1173.95" y="361"/><text fill="#000000" font-family="sans-serif" font-size="14" lengthAdjust="spacing" textLength="126.0205" x="1183.95" y="386.1074">MENU_REPORTES</text></g><!--link ADMINISTRADOR to PAGINA_PRINCIPAL--><g id="link_ADMINISTRADOR_PAGINA_PRINCIPAL"><path d="M611.3,46.16 C598.89,53.52 587,63.32 579.95,76 C568.77,96.11 583.1699,110.2278 605.5599,122.1078 " fill="none" id="ADMINISTRADOR-to-PAGINA_PRINCIPAL" style="stroke:#000000;stroke-width:1.0;"/><polygon fill="#000000" points="610.86,124.92,604.7846,117.1682,606.4432,122.5765,601.035,124.2351,610.86,124.92" style="stroke:#000000;stroke-width:1.0;"/><text fill="#000000" font-family="sans-serif" font-size="13" lengthAdjust="spacing" textLength="109.8208" x="580.95" y="91.0283">Ingresar al sistema</text></g><!--link PAGINA_PRINCIPAL to ADMINISTRADOR--><g id="link_PAGINA_PRINCIPAL_ADMINISTRADOR"><path d="M676.69,124.94 C683.86,116.54 691.22,106.04 694.95,95 C700.85,77.53 693.614,63.7752 682.024,50.6652 " fill="none" id="PAGINA_PRINCIPAL-to-ADMINISTRADOR" style="stroke:#000000;stroke-width:1.0;"/><polygon fill="#000000" points="678.05,46.17,681.0142,55.5622,681.3617,49.916,687.0079,50.2635,678.05,46.17" style="stroke:#000000;stroke-width:1.0;"/><text fill="#000000" font-family="sans-serif" font-size="13" lengthAdjust="spacing" textLength="78.0254" x="697.95" y="91.0283">Cerrar sesi&#243;n</text></g><!--link PAGINA_PRINCIPAL to NAVEGACION_MENUS--><g id="link_PAGINA_PRINCIPAL_NAVEGACION_MENUS"><path d="M609.12,164.04 C596.39,171.36 584.22,181.17 576.95,194 C565.44,214.3 580.1478,228.3986 603.1678,240.1686 " fill="none" id="PAGINA_PRINCIPAL-to-NAVEGACION_MENUS" style="stroke:#87CEEB;stroke-width:1.0;"/><polygon fill="#87CEEB" points="608.51,242.9,602.3176,235.2414,604.0582,240.6238,598.6757,242.3643,608.51,242.9" style="stroke:#87CEEB;stroke-width:1.0;"/><text fill="#000000" font-family="sans-serif" font-size="13" lengthAdjust="spacing" textLength="114.1689" x="577.95" y="209.0283">Navegar por men&#250;s</text></g><!--link NAVEGACION_MENUS to PAGINA_PRINCIPAL--><g id="link_NAVEGACION_MENUS_PAGINA_PRINCIPAL"><path d="M679.12,242.93 C691.34,229.85 703.15,211.62 696.95,194 C693.07,182.99 689.5345,177.1081 682.1045,168.8181 " fill="none" id="NAVEGACION_MENUS-to-PAGINA_PRINCIPAL" style="stroke:#ADD8E6;stroke-width:1.0;"/><polygon fill="#ADD8E6" points="678.1,164.35,681.1281,173.7218,681.4371,168.0734,687.0855,168.3824,678.1,164.35" style="stroke:#ADD8E6;stroke-width:1.0;"/><text fill="#000000" font-family="sans-serif" font-size="13" lengthAdjust="spacing" textLength="100.4326" x="699.95" y="209.0283">Regresar al inicio</text></g><!--link NAVEGACION_MENUS to MENU_USUARIOS--><g id="link_NAVEGACION_MENUS_MENU_USUARIOS"><path d="M571.71,263.76 C407.35,265.16 62.26,272.79 25.95,312 C6,333.54 28.8676,348.5146 62.2576,360.0246 " fill="none" id="NAVEGACION_MENUS-to-MENU_USUARIOS" style="stroke:#FFFF00;stroke-width:1.0;"/><polygon fill="#FFFF00" points="67.93,361.98,60.7249,355.2653,63.203,360.3505,58.1178,362.8286,67.93,361.98" style="stroke:#FFFF00;stroke-width:1.0;"/><text fill="#000000" font-family="sans-serif" font-size="13" lengthAdjust="spacing" textLength="120.6436" x="26.95" y="327.0283">Administrar Usuarios</text></g><!--link MENU_USUARIOS to NAVEGACION_MENUS--><g id="link_MENU_USUARIOS_NAVEGACION_MENUS"><path d="M154.22,360.83 C168.41,344.93 191.05,322.95 215.95,312 C277.78,284.8 455.6269,272.4084 565.7769,267.1084 " fill="none" id="MENU_USUARIOS-to-NAVEGACION_MENUS" style="stroke:#87CEEB;stroke-width:1.0;"/><polygon fill="#87CEEB" points="571.77,266.82,562.5882,263.2572,566.7758,267.0603,562.9726,271.2479,571.77,266.82" style="stroke:#87CEEB;stroke-width:1.0;"/><text fill="#000000" font-family="sans-serif" font-size="13" lengthAdjust="spacing" textLength="85.2554" x="216.95" y="327.0283">Cambiar Men&#250;</text></g><!--link NAVEGACION_MENUS to MENU_RUTINAS--><g id="link_NAVEGACION_MENUS_MENU_RUTINAS"><path d="M571.89,263.31 C481.38,265.16 347.58,274.43 314.95,312 C300.98,328.09 314.2643,343.5755 333.1943,357.3155 " fill="none" id="NAVEGACION_MENUS-to-MENU_RUTINAS" style="stroke:#98FB98;stroke-width:1.0;"/><polygon fill="#98FB98" points="338.05,360.84,333.116,352.3162,334.0035,357.903,328.4168,358.7905,338.05,360.84" style="stroke:#98FB98;stroke-width:1.0;"/><text fill="#000000" font-family="sans-serif" font-size="13" lengthAdjust="spacing" textLength="104.0508" x="315.95" y="327.0283">Gestionar Rutinas</text></g><!--link MENU_RUTINAS to NAVEGACION_MENUS--><g id="link_MENU_RUTINAS_NAVEGACION_MENUS"><path d="M398.11,360.94 C422.26,346.16 457.87,325.75 490.95,312 C519.52,300.12 546.2052,291.5725 574.8652,283.6825 " fill="none" id="MENU_RUTINAS-to-NAVEGACION_MENUS" style="stroke:#87CEEB;stroke-width:1.0;"/><polygon fill="#87CEEB" points="580.65,282.09,570.9111,280.6223,575.8293,283.4171,573.0345,288.3353,580.65,282.09" style="stroke:#87CEEB;stroke-width:1.0;"/><text fill="#000000" font-family="sans-serif" font-size="13" lengthAdjust="spacing" textLength="85.2554" x="491.95" y="327.0283">Cambiar Men&#250;</text></g><!--link NAVEGACION_MENUS to MENU_RETOS--><g id="link_NAVEGACION_MENUS_MENU_RETOS"><path d="M617.45,282.16 C605.79,289.67 594.47,299.56 587.95,312 C579.1,328.89 587.6442,343.2605 601.0542,356.6505 " fill="none" id="NAVEGACION_MENUS-to-MENU_RETOS" style="stroke:#FFA07A;stroke-width:1.0;"/><polygon fill="#FFA07A" points="605.3,360.89,601.7576,351.7003,601.7618,357.3571,596.105,357.3613,605.3,360.89" style="stroke:#FFA07A;stroke-width:1.0;"/><text fill="#000000" font-family="sans-serif" font-size="13" lengthAdjust="spacing" textLength="93.9326" x="588.95" y="327.0283">Gestionar Retos</text></g><!--link MENU_RETOS to NAVEGACION_MENUS--><g id="link_MENU_RETOS_NAVEGACION_MENUS"><path d="M660.66,360.78 C671.04,353.01 681.28,342.99 686.95,331 C694.63,314.74 688.6336,300.7223 678.4836,287.0923 " fill="none" id="MENU_RETOS-to-NAVEGACION_MENUS" style="stroke:#87CEEB;stroke-width:1.0;"/><polygon fill="#87CEEB" points="674.9,282.28,677.0672,291.8875,677.8863,286.2902,683.4836,287.1093,674.9,282.28" style="stroke:#87CEEB;stroke-width:1.0;"/><text fill="#000000" font-family="sans-serif" font-size="13" lengthAdjust="spacing" textLength="85.2554" x="690.95" y="327.0283">Cambiar Men&#250;</text></g><!--link NAVEGACION_MENUS to MENU_CONFIGURACION--><g id="link_NAVEGACION_MENUS_MENU_CONFIGURACION"><path d="M712.59,282 C735.34,290.31 761.8,300.77 784.95,312 C814.97,326.56 842.4537,343.2243 864.8737,357.6443 " fill="none" id="NAVEGACION_MENUS-to-MENU_CONFIGURACION" style="stroke:#FFD700;stroke-width:1.0;"/><polygon fill="#FFD700" points="869.92,360.89,864.5143,352.6572,865.7147,358.1853,860.1867,359.3857,869.92,360.89" style="stroke:#FFD700;stroke-width:1.0;"/><text fill="#000000" font-family="sans-serif" font-size="13" lengthAdjust="spacing" textLength="124.998" x="821.95" y="327.0283">Configurar el Sistema</text></g><!--link MENU_CONFIGURACION to NAVEGACION_MENUS--><g id="link_MENU_CONFIGURACION_NAVEGACION_MENUS"><path d="M930.6,360.85 C950.24,347.28 968.96,328.48 954.95,312 C928.3,280.65 828.0224,269.8225 750.1824,265.8925 " fill="none" id="MENU_CONFIGURACION-to-NAVEGACION_MENUS" style="stroke:#87CEEB;stroke-width:1.0;"/><polygon fill="#87CEEB" points="744.19,265.59,752.9769,270.0387,749.1836,265.8421,753.3802,262.0489,744.19,265.59" style="stroke:#87CEEB;stroke-width:1.0;"/><text fill="#000000" font-family="sans-serif" font-size="13" lengthAdjust="spacing" textLength="85.2554" x="960.95" y="327.0283">Cambiar Men&#250;</text></g><!--link NAVEGACION_MENUS to MENU_REPORTES--><g id="link_NAVEGACION_MENUS_MENU_REPORTES"><path d="M744.07,268.62 C825.13,274.71 949.48,287.32 1054.95,312 C1106.9,324.15 1158.7926,343.2129 1197.1926,358.6429 " fill="none" id="NAVEGACION_MENUS-to-MENU_REPORTES" style="stroke:#F08080;stroke-width:1.0;"/><polygon fill="#F08080" points="1202.76,360.88,1195.9004,353.8128,1198.1205,359.0158,1192.9176,361.2359,1202.76,360.88" style="stroke:#F08080;stroke-width:1.0;"/><text fill="#000000" font-family="sans-serif" font-size="13" lengthAdjust="spacing" textLength="160.3989" x="1120.95" y="327.0283">Ver Reportes y Estad&#237;sticas</text></g><!--link MENU_REPORTES to NAVEGACION_MENUS--><g id="link_MENU_REPORTES_NAVEGACION_MENUS"><path d="M1271.91,360.77 C1288.03,346.47 1303.64,326.78 1289.95,312 C1253.64,272.79 914.5498,265.2111 750.1898,263.8111 " fill="none" id="MENU_REPORTES-to-NAVEGACION_MENUS" style="stroke:#87CEEB;stroke-width:1.0;"/><polygon fill="#87CEEB" points="744.19,263.76,753.1556,267.8365,749.1898,263.8026,753.2237,259.8368,744.19,263.76" style="stroke:#87CEEB;stroke-width:1.0;"/><text fill="#000000" font-family="sans-serif" font-size="13" lengthAdjust="spacing" textLength="85.2554" x="1296.95" y="327.0283">Cambiar Men&#250;</text></g><rect fill="#DDDDDD" height="140.3477" id="_legend" rx="7.5" ry="7.5" style="stroke:#000000;stroke-width:1.0;" width="545.3906" x="818.8147" y="416.6211"/><text fill="#000000" font-family="sans-serif" font-size="14" lengthAdjust="spacing" textLength="57.6064" x="823.8147" y="436.7285">Leyenda:</text><text fill="#000000" font-family="sans-serif" font-size="14" lengthAdjust="spacing" textLength="452.0947" x="823.8147" y="455.3496">- Color amarillo (#Yellow): Men&#250;s y funciones relacionadas con usuarios.</text><text fill="#000000" font-family="sans-serif" font-size="14" lengthAdjust="spacing" textLength="487.1289" x="823.8147" y="473.9707">- Color verde claro (#PaleGreen): Men&#250;s y funciones relacionadas con rutinas.</text><text fill="#000000" font-family="sans-serif" font-size="14" lengthAdjust="spacing" textLength="497.2393" x="823.8147" y="492.5918">- Color salm&#243;n claro (#LightSalmon): Men&#250;s y funciones relacionadas con retos.</text><text fill="#000000" font-family="sans-serif" font-size="14" lengthAdjust="spacing" textLength="465.3633" x="823.8147" y="511.2129">- Color dorado (#Gold): Men&#250;s y funciones relacionadas con configuraci&#243;n.</text><text fill="#000000" font-family="sans-serif" font-size="14" lengthAdjust="spacing" textLength="488.6738" x="823.8147" y="529.834">- Color coral claro (#LightCoral): Men&#250;s y funciones relacionadas con reportes.</text><text fill="#000000" font-family="sans-serif" font-size="14" lengthAdjust="spacing" textLength="535.3906" x="823.8147" y="548.4551">- Color azul cielo (#SkyBlue): Navegaci&#243;n entre men&#250;s o regreso a la p&#225;gina principal.</text><!--SRC=[hLLDRvj04BtpAwRo8U6G_00EbGYX2Ca12zkHgggAjZ2XA0jhxK8Qzz_q1-JKMw_-Ovtb6-oehfHS4eMtRsRUUplx8S77h428N6TZ1zxIlNmnGM9SiYBb22-6SG6Eu4AYWXsJ369MOYhauPKfuqDxs0cNOVG0iB8zFx1NaHyu_ifUmcAPfT_B6rxX3BfTR-t83zUm-8oSYn-ppz5sGppqTSKuUXAnc0FSZJvSqwyPpyKSu8J19z_RHhRZXm4iFC6J8ufL66tSZiKHal4P9B3lNQzbM3_jwpb8ZbkDoUBiyBk01875PQtE7f1ZZaKfI2cP5N6se-wLCIXhtzxvWR_UHFPj69dTxCry0weHyQ5NqHpBEC26vXxkt62xDeSUB-0EYyEVjzhGyDw1leqveFN079imXsWNpAaDCyZ41xCrueYcSSASM45JHCXPd8a2fvDCP8IhBuiRWZrzlVe8S-d00hz8oHmcWN5GcIenPyOHRCmnPRV0GIdfk4Ab3M-kGu4lJLlajaJ8ZzK-LQArHnUPcqTr0lQCAHNQ2TaI6aSe8kcZyCQy4GxprYaL1lsSOcfirpIJG127dUHqL9LwxgsgcCo4CgQWVuxZiFnRHkVh99vkeCzLtqDtxotmK9KaCH54LPaLhAtV0TwZ_2YrGmFrNfcKnx8Rlldu7gNrBUXhJbULfUFrcAML5XyvhDlCde2-cmZrXHjfq2v62-vH2q29BElzvggI9OTNaYRk3Ud0_ziCtQCbxh58cC4nfTyWTIi6TF-swC-hvka1bbC6AQrmENq-JAlRT7juh8fsLyXsRR24AOX50LMRuUiHvJDAsjqnPx9dxJRUUQIooUMOKr6OzACmPQsNv9cSEcnZneISINggwJ8zZpBkqbI_LsFkMBi-xxNTnEUssqHZpCf-LaIQuM3Ma0MpstBDspbPdeBOzEOIm80ps1r-fIJli5El3PsH9Yh6Nm00]--></g></svg>