<svg xmlns="http://www.w3.org/2000/svg" xmlns:xlink="http://www.w3.org/1999/xlink" contentStyleType="text/css" height="576px" preserveAspectRatio="none" style="width:4536px;height:576px;background:#FFFFFF;" version="1.1" viewBox="0 0 4536 576" width="4536px" zoomAndPan="magnify"><defs/><g><!--entity ADMINISTRADOR--><g id="elem_ADMINISTRADOR"><rect fill="#9ACD32" height="38.6211" rx="2.5" ry="2.5" style="stroke:#181818;stroke-width:0.5;" width="137.4482" x="2338.91" y="7"/><text fill="#000000" font-family="sans-serif" font-size="14" lengthAdjust="spacing" textLength="117.4482" x="2348.91" y="32.1074">ADMINISTRADOR</text></g><!--entity PAGINA_PRINCIPAL--><g id="elem_PAGINA_PRINCIPAL"><rect fill="#D3D3D3" height="38.6211" rx="2.5" ry="2.5" style="stroke:#181818;stroke-width:0.5;" width="154.5996" x="2329.91" y="125"/><text fill="#000000" font-family="sans-serif" font-size="14" lengthAdjust="spacing" textLength="134.5996" x="2339.91" y="150.1074">PAGINA_PRINCIPAL</text></g><!--entity CONSULTAR_USUARIOS--><g id="elem_CONSULTAR_USUARIOS"><rect fill="#ADD8E6" height="38.6211" rx="2.5" ry="2.5" style="stroke:#181818;stroke-width:0.5;" width="187.2549" x="441.91" y="243"/><text fill="#000000" font-family="sans-serif" font-size="14" lengthAdjust="spacing" textLength="167.2549" x="451.91" y="268.1074">CONSULTAR_USUARIOS</text></g><!--entity CONSULTAR_RUTINAS--><g id="elem_CONSULTAR_RUTINAS"><rect fill="#98FB98" height="38.6211" rx="2.5" ry="2.5" style="stroke:#181818;stroke-width:0.5;" width="175.5791" x="1447.41" y="243"/><text fill="#000000" font-family="sans-serif" font-size="14" lengthAdjust="spacing" textLength="155.5791" x="1457.41" y="268.1074">CONSULTAR_RUTINAS</text></g><!--entity CONSULTAR_RETOS--><g id="elem_CONSULTAR_RETOS"><rect fill="#FFA07A" height="38.6211" rx="2.5" ry="2.5" style="stroke:#181818;stroke-width:0.5;" width="162.3584" x="2326.41" y="243"/><text fill="#000000" font-family="sans-serif" font-size="14" lengthAdjust="spacing" textLength="142.3584" x="2336.41" y="268.1074">CONSULTAR_RETOS</text></g><!--entity CONSULTAR_CONFIGURACION--><g id="elem_CONSULTAR_CONFIGURACION"><rect fill="#FFD700" height="38.6211" rx="2.5" ry="2.5" style="stroke:#181818;stroke-width:0.5;" width="233.1309" x="3022.91" y="243"/><text fill="#000000" font-family="sans-serif" font-size="14" lengthAdjust="spacing" textLength="213.1309" x="3032.91" y="268.1074">CONSULTAR_CONFIGURACION</text></g><!--entity CONSULTAR_REPORTES--><g id="elem_CONSULTAR_REPORTES"><rect fill="#F08080" height="38.6211" rx="2.5" ry="2.5" style="stroke:#181818;stroke-width:0.5;" width="191.1445" x="3923.91" y="243"/><text fill="#000000" font-family="sans-serif" font-size="14" lengthAdjust="spacing" textLength="171.1445" x="3933.91" y="268.1074">CONSULTAR_REPORTES</text></g><!--entity CREAR_USUARIO--><g id="elem_CREAR_USUARIO"><rect fill="#ADD8E6" height="38.6211" rx="2.5" ry="2.5" style="stroke:#181818;stroke-width:0.5;" width="140.5791" x="42.91" y="361"/><text fill="#000000" font-family="sans-serif" font-size="14" lengthAdjust="spacing" textLength="120.5791" x="52.91" y="386.1074">CREAR_USUARIO</text></g><!--entity MODIFICAR_USUARIO--><g id="elem_MODIFICAR_USUARIO"><rect fill="#ADD8E6" height="38.6211" rx="2.5" ry="2.5" style="stroke:#181818;stroke-width:0.5;" width="170.124" x="265.41" y="361"/><text fill="#000000" font-family="sans-serif" font-size="14" lengthAdjust="spacing" textLength="150.124" x="275.41" y="386.1074">MODIFICAR_USUARIO</text></g><!--entity ELIMINAR_USUARIO--><g id="elem_ELIMINAR_USUARIO"><rect fill="#ADD8E6" height="38.6211" rx="2.5" ry="2.5" style="stroke:#181818;stroke-width:0.5;" width="157.6963" x="592.41" y="361"/><text fill="#000000" font-family="sans-serif" font-size="14" lengthAdjust="spacing" textLength="137.6963" x="602.41" y="386.1074">ELIMINAR_USUARIO</text></g><!--entity CREAR_RUTINA--><g id="elem_CREAR_RUTINA"><rect fill="#98FB98" height="38.6211" rx="2.5" ry="2.5" style="stroke:#181818;stroke-width:0.5;" width="128.9033" x="889.91" y="361"/><text fill="#000000" font-family="sans-serif" font-size="14" lengthAdjust="spacing" textLength="108.9033" x="899.91" y="386.1074">CREAR_RUTINA</text></g><!--entity MODIFICAR_RUTINA--><g id="elem_MODIFICAR_RUTINA"><rect fill="#98FB98" height="38.6211" rx="2.5" ry="2.5" style="stroke:#181818;stroke-width:0.5;" width="158.4482" x="1150.41" y="361"/><text fill="#000000" font-family="sans-serif" font-size="14" lengthAdjust="spacing" textLength="138.4482" x="1160.41" y="386.1074">MODIFICAR_RUTINA</text></g><!--entity ELIMINAR_RUTINA--><g id="elem_ELIMINAR_RUTINA"><rect fill="#98FB98" height="38.6211" rx="2.5" ry="2.5" style="stroke:#181818;stroke-width:0.5;" width="146.0205" x="1438.41" y="361"/><text fill="#000000" font-family="sans-serif" font-size="14" lengthAdjust="spacing" textLength="126.0205" x="1448.41" y="386.1074">ELIMINAR_RUTINA</text></g><!--entity BATERIA_EJERCICIOS--><g id="elem_BATERIA_EJERCICIOS"><rect fill="#98FB98" height="38.6211" rx="2.5" ry="2.5" style="stroke:#181818;stroke-width:0.5;" width="171.7031" x="1756.41" y="361"/><text fill="#000000" font-family="sans-serif" font-size="14" lengthAdjust="spacing" textLength="151.7031" x="1766.41" y="386.1074">BATERIA_EJERCICIOS</text></g><!--entity CREAR_RETO--><g id="elem_CREAR_RETO"><rect fill="#FFA07A" height="38.6211" rx="2.5" ry="2.5" style="stroke:#181818;stroke-width:0.5;" width="115.6826" x="2097.41" y="361"/><text fill="#000000" font-family="sans-serif" font-size="14" lengthAdjust="spacing" textLength="95.6826" x="2107.41" y="386.1074">CREAR_RETO</text></g><!--entity MODIFICAR_RETO--><g id="elem_MODIFICAR_RETO"><rect fill="#FFA07A" height="38.6211" rx="2.5" ry="2.5" style="stroke:#181818;stroke-width:0.5;" width="145.2275" x="2337.91" y="361"/><text fill="#000000" font-family="sans-serif" font-size="14" lengthAdjust="spacing" textLength="125.2275" x="2347.91" y="386.1074">MODIFICAR_RETO</text></g><!--entity ELIMINAR_RETO--><g id="elem_ELIMINAR_RETO"><rect fill="#FFA07A" height="38.6211" rx="2.5" ry="2.5" style="stroke:#181818;stroke-width:0.5;" width="132.7998" x="2600.91" y="361"/><text fill="#000000" font-family="sans-serif" font-size="14" lengthAdjust="spacing" textLength="112.7998" x="2610.91" y="386.1074">ELIMINAR_RETO</text></g><!--entity CONFIGURAR_SISTEMA--><g id="elem_CONFIGURAR_SISTEMA"><rect fill="#FFD700" height="38.6211" rx="2.5" ry="2.5" style="stroke:#181818;stroke-width:0.5;" width="183.3516" x="2858.91" y="361"/><text fill="#000000" font-family="sans-serif" font-size="14" lengthAdjust="spacing" textLength="163.3516" x="2868.91" y="386.1074">CONFIGURAR_SISTEMA</text></g><!--entity ADMINISTRAR_PERMISOS--><g id="elem_ADMINISTRAR_PERMISOS"><rect fill="#FFD700" height="38.6211" rx="2.5" ry="2.5" style="stroke:#181818;stroke-width:0.5;" width="198.1377" x="3195.41" y="361"/><text fill="#000000" font-family="sans-serif" font-size="14" lengthAdjust="spacing" textLength="178.1377" x="3205.41" y="386.1074">ADMINISTRAR_PERMISOS</text></g><!--entity AJUSTES_GENERALES--><g id="elem_AJUSTES_GENERALES"><rect fill="#FFD700" height="38.6211" rx="2.5" ry="2.5" style="stroke:#181818;stroke-width:0.5;" width="176.3857" x="3522.41" y="361"/><text fill="#000000" font-family="sans-serif" font-size="14" lengthAdjust="spacing" textLength="156.3857" x="3532.41" y="386.1074">AJUSTES_GENERALES</text></g><!--entity CONSULTAR_REPORTES_DETALLADOS--><g id="elem_CONSULTAR_REPORTES_DETALLADOS"><rect fill="#F08080" height="38.6211" rx="2.5" ry="2.5" style="stroke:#181818;stroke-width:0.5;" width="291.5166" x="3806.41" y="361"/><text fill="#000000" font-family="sans-serif" font-size="14" lengthAdjust="spacing" textLength="271.5166" x="3816.41" y="386.1074">CONSULTAR_REPORTES_DETALLADOS</text></g><!--entity DESCARGAR_ESTADISTICAS--><g id="elem_DESCARGAR_ESTADISTICAS"><rect fill="#F08080" height="38.6211" rx="2.5" ry="2.5" style="stroke:#181818;stroke-width:0.5;" width="217.5996" x="4263.41" y="361"/><text fill="#000000" font-family="sans-serif" font-size="14" lengthAdjust="spacing" textLength="197.5996" x="4273.41" y="386.1074">DESCARGAR_ESTADISTICAS</text></g><!--link ADMINISTRADOR to PAGINA_PRINCIPAL--><g id="link_ADMINISTRADOR_PAGINA_PRINCIPAL"><path d="M2360.76,46.16 C2348.35,53.52 2336.46,63.32 2329.41,76 C2318.23,96.11 2332.6299,110.2278 2355.0199,122.1078 " fill="none" id="ADMINISTRADOR-to-PAGINA_PRINCIPAL" style="stroke:#000000;stroke-width:1.0;"/><polygon fill="#000000" points="2360.32,124.92,2354.2446,117.1682,2355.9032,122.5765,2350.495,124.2351,2360.32,124.92" style="stroke:#000000;stroke-width:1.0;"/><text fill="#000000" font-family="sans-serif" font-size="13" lengthAdjust="spacing" textLength="109.8208" x="2330.41" y="91.0283">Ingresar al sistema</text></g><!--link PAGINA_PRINCIPAL to ADMINISTRADOR--><g id="link_PAGINA_PRINCIPAL_ADMINISTRADOR"><path d="M2427.51,124.83 C2439.1,111.72 2450.32,93.47 2444.41,76 C2440.68,64.96 2437.2285,59.0209 2430.0485,50.6209 " fill="none" id="PAGINA_PRINCIPAL-to-ADMINISTRADOR" style="stroke:#000000;stroke-width:1.0;"/><polygon fill="#000000" points="2426.15,46.06,2428.9571,55.5003,2429.3987,49.8608,2435.0383,50.3024,2426.15,46.06" style="stroke:#000000;stroke-width:1.0;"/><text fill="#000000" font-family="sans-serif" font-size="13" lengthAdjust="spacing" textLength="78.0254" x="2447.41" y="91.0283">Cerrar sesi&#243;n</text></g><!--link PAGINA_PRINCIPAL to CONSULTAR_USUARIOS--><g id="link_PAGINA_PRINCIPAL_CONSULTAR_USUARIOS"><path d="M2329.81,147.61 C2147.44,152.84 1677.42,167.9 1285.41,194 C1048.82,209.75 776.9686,236.4566 635.0986,251.0366 " fill="none" id="PAGINA_PRINCIPAL-to-CONSULTAR_USUARIOS" style="stroke:#ADD8E6;stroke-width:1.0;"/><polygon fill="#ADD8E6" points="629.13,251.65,638.4918,254.709,634.1038,251.1388,637.6739,246.7509,629.13,251.65" style="stroke:#ADD8E6;stroke-width:1.0;"/><text fill="#000000" font-family="sans-serif" font-size="13" lengthAdjust="spacing" textLength="120.6436" x="1286.41" y="209.0283">Administrar Usuarios</text></g><!--link CONSULTAR_USUARIOS to PAGINA_PRINCIPAL--><g id="link_CONSULTAR_USUARIOS_PAGINA_PRINCIPAL"><path d="M629.1,256.69 C789.39,248.39 1126.55,230.54 1411.41,213 C1753.71,191.93 2155.9253,163.5282 2323.6453,151.5282 " fill="none" id="CONSULTAR_USUARIOS-to-PAGINA_PRINCIPAL" style="stroke:#87CEEB;stroke-width:1.0;"/><polygon fill="#87CEEB" points="2329.63,151.1,2320.3675,147.7525,2324.6427,151.4568,2320.9384,155.7321,2329.63,151.1" style="stroke:#87CEEB;stroke-width:1.0;"/><text fill="#000000" font-family="sans-serif" font-size="13" lengthAdjust="spacing" textLength="54.9072" x="1686.41" y="209.0283">Ir al inicio</text></g><!--link PAGINA_PRINCIPAL to CONSULTAR_RUTINAS--><g id="link_PAGINA_PRINCIPAL_CONSULTAR_RUTINAS"><path d="M2329.84,154.75 C2250.91,164.25 2125.08,179.64 2016.41,194 C1879.1,212.15 1725.9186,233.9438 1629.5086,247.8438 " fill="none" id="PAGINA_PRINCIPAL-to-CONSULTAR_RUTINAS" style="stroke:#98FB98;stroke-width:1.0;"/><polygon fill="#98FB98" points="1623.57,248.7,1633.0487,251.3748,1628.5188,247.9865,1631.9071,243.4566,1623.57,248.7" style="stroke:#98FB98;stroke-width:1.0;"/><text fill="#000000" font-family="sans-serif" font-size="13" lengthAdjust="spacing" textLength="104.0508" x="2017.41" y="209.0283">Gestionar Rutinas</text></g><!--link CONSULTAR_RUTINAS to PAGINA_PRINCIPAL--><g id="link_CONSULTAR_RUTINAS_PAGINA_PRINCIPAL"><path d="M1623.53,258.5 C1739.47,253.59 1949.28,241.37 2126.41,213 C2201.47,200.98 2280.3131,181.135 2336.9031,165.635 " fill="none" id="CONSULTAR_RUTINAS-to-PAGINA_PRINCIPAL" style="stroke:#87CEEB;stroke-width:1.0;"/><polygon fill="#87CEEB" points="2342.69,164.05,2332.953,162.5696,2337.8676,165.3708,2335.0664,170.2854,2342.69,164.05" style="stroke:#87CEEB;stroke-width:1.0;"/><text fill="#000000" font-family="sans-serif" font-size="13" lengthAdjust="spacing" textLength="54.9072" x="2221.41" y="209.0283">Ir al inicio</text></g><!--link PAGINA_PRINCIPAL to CONSULTAR_RETOS--><g id="link_PAGINA_PRINCIPAL_CONSULTAR_RETOS"><path d="M2366.91,164.16 C2355.25,171.67 2343.93,181.56 2337.41,194 C2327.15,213.59 2340.5521,227.7615 2361.1321,239.9015 " fill="none" id="PAGINA_PRINCIPAL-to-CONSULTAR_RETOS" style="stroke:#FFA07A;stroke-width:1.0;"/><polygon fill="#FFA07A" points="2366.3,242.95,2360.5805,234.932,2361.9935,240.4096,2356.5159,241.8225,2366.3,242.95" style="stroke:#FFA07A;stroke-width:1.0;"/><text fill="#000000" font-family="sans-serif" font-size="13" lengthAdjust="spacing" textLength="93.9326" x="2338.41" y="209.0283">Gestionar Retos</text></g><!--link CONSULTAR_RETOS to PAGINA_PRINCIPAL--><g id="link_CONSULTAR_RETOS_PAGINA_PRINCIPAL"><path d="M2423,242.8 C2432.18,229.52 2441.13,211.09 2436.41,194 C2433.49,183.41 2430.9022,177.7896 2425.1722,169.2096 " fill="none" id="CONSULTAR_RETOS-to-PAGINA_PRINCIPAL" style="stroke:#87CEEB;stroke-width:1.0;"/><polygon fill="#87CEEB" points="2421.84,164.22,2423.5119,173.9259,2424.6169,168.378,2430.1647,169.4829,2421.84,164.22" style="stroke:#87CEEB;stroke-width:1.0;"/><text fill="#000000" font-family="sans-serif" font-size="13" lengthAdjust="spacing" textLength="54.9072" x="2439.41" y="209.0283">Ir al inicio</text></g><!--link PAGINA_PRINCIPAL to CONSULTAR_CONFIGURACION--><g id="link_PAGINA_PRINCIPAL_CONSULTAR_CONFIGURACION"><path d="M2484.91,159.85 C2562.76,174.07 2686.22,196.12 2793.41,213 C2869.66,225.01 2949.6442,236.2552 3016.8042,245.3452 " fill="none" id="PAGINA_PRINCIPAL-to-CONSULTAR_CONFIGURACION" style="stroke:#FFD700;stroke-width:1.0;"/><polygon fill="#FFD700" points="3022.75,246.15,3014.3678,240.979,3017.7952,245.4794,3013.2948,248.9067,3022.75,246.15" style="stroke:#FFD700;stroke-width:1.0;"/><text fill="#000000" font-family="sans-serif" font-size="13" lengthAdjust="spacing" textLength="124.998" x="2794.41" y="209.0283">Configurar el Sistema</text></g><!--link CONSULTAR_CONFIGURACION to PAGINA_PRINCIPAL--><g id="link_CONSULTAR_CONFIGURACION_PAGINA_PRINCIPAL"><path d="M3090.42,242.96 C3047.13,227.36 2981.96,205.76 2923.41,194 C2769.92,163.16 2592.6951,152.0813 2491.0751,147.9913 " fill="none" id="CONSULTAR_CONFIGURACION-to-PAGINA_PRINCIPAL" style="stroke:#87CEEB;stroke-width:1.0;"/><polygon fill="#87CEEB" points="2485.08,147.75,2493.9119,152.1087,2490.076,147.9511,2494.2336,144.1152,2485.08,147.75" style="stroke:#87CEEB;stroke-width:1.0;"/><text fill="#000000" font-family="sans-serif" font-size="13" lengthAdjust="spacing" textLength="54.9072" x="2997.41" y="209.0283">Ir al inicio</text></g><!--link PAGINA_PRINCIPAL to CONSULTAR_REPORTES--><g id="link_PAGINA_PRINCIPAL_CONSULTAR_REPORTES"><path d="M2485.16,151.09 C2752.13,170.31 3625.0855,233.1193 3917.7055,254.1793 " fill="none" id="PAGINA_PRINCIPAL-to-CONSULTAR_REPORTES" style="stroke:#F08080;stroke-width:1.0;"/><polygon fill="#F08080" points="3923.69,254.61,3915.0004,249.9743,3918.7029,254.2511,3914.4261,257.9536,3923.69,254.61" style="stroke:#F08080;stroke-width:1.0;"/><text fill="#000000" font-family="sans-serif" font-size="13" lengthAdjust="spacing" textLength="160.3989" x="3310.41" y="209.0283">Ver Reportes y Estad&#237;sticas</text></g><!--link CONSULTAR_REPORTES to PAGINA_PRINCIPAL--><g id="link_CONSULTAR_REPORTES_PAGINA_PRINCIPAL"><path d="M3923.57,247.19 C3815.8,231.65 3635.45,207.26 3479.41,194 C3107.91,162.43 2668.1287,150.7045 2491.2287,147.0345 " fill="none" id="CONSULTAR_REPORTES-to-PAGINA_PRINCIPAL" style="stroke:#87CEEB;stroke-width:1.0;"/><polygon fill="#87CEEB" points="2485.23,146.91,2494.1451,151.0958,2490.2289,147.0137,2494.311,143.0975,2485.23,146.91" style="stroke:#87CEEB;stroke-width:1.0;"/><text fill="#000000" font-family="sans-serif" font-size="13" lengthAdjust="spacing" textLength="54.9072" x="3658.41" y="209.0283">Ir al inicio</text></g><!--link CONSULTAR_USUARIOS to CREAR_USUARIO--><g id="link_CONSULTAR_USUARIOS_CREAR_USUARIO"><path d="M441.82,265.68 C301.75,269.94 50.96,281.72 23.41,312 C6,331.14 25.2328,346.123 53.1328,358.463 " fill="none" id="CONSULTAR_USUARIOS-to-CREAR_USUARIO" style="stroke:#ADD8E6;stroke-width:1.0;"/><polygon fill="#ADD8E6" points="58.62,360.89,52.0071,353.5914,54.0473,358.8675,48.7712,360.9077,58.62,360.89" style="stroke:#ADD8E6;stroke-width:1.0;"/><text fill="#000000" font-family="sans-serif" font-size="13" lengthAdjust="spacing" textLength="87.4136" x="24.41" y="327.0283">Crear Usuarios</text></g><!--link CREAR_USUARIO to CONSULTAR_USUARIOS--><g id="link_CREAR_USUARIO_CONSULTAR_USUARIOS"><path d="M126.24,360.99 C138.29,345.18 157.8,323.27 180.41,312 C224.95,289.8 346.5079,276.8631 435.8979,269.9431 " fill="none" id="CREAR_USUARIO-to-CONSULTAR_USUARIOS" style="stroke:#87CEEB;stroke-width:1.0;"/><polygon fill="#87CEEB" points="441.88,269.48,432.5981,266.1866,436.8949,269.8659,433.2156,274.1627,441.88,269.48" style="stroke:#87CEEB;stroke-width:1.0;"/><text fill="#000000" font-family="sans-serif" font-size="13" lengthAdjust="spacing" textLength="112.709" x="181.41" y="327.0283">Ir al men&#250; Usuarios</text></g><!--link CONSULTAR_USUARIOS to MODIFICAR_USUARIO--><g id="link_CONSULTAR_USUARIOS_MODIFICAR_USUARIO"><path d="M441.87,271.48 C386.42,278.37 323.68,290.69 306.41,312 C293.82,327.54 304.5137,342.8185 320.3937,356.7785 " fill="none" id="CONSULTAR_USUARIOS-to-MODIFICAR_USUARIO" style="stroke:#ADD8E6;stroke-width:1.0;"/><polygon fill="#ADD8E6" points="324.9,360.74,320.7815,351.7936,321.1447,357.4388,315.4996,357.802,324.9,360.74" style="stroke:#ADD8E6;stroke-width:1.0;"/><text fill="#000000" font-family="sans-serif" font-size="13" lengthAdjust="spacing" textLength="107.6436" x="307.41" y="327.0283">Modificar Usuarios</text></g><!--link MODIFICAR_USUARIO to CONSULTAR_USUARIOS--><g id="link_MODIFICAR_USUARIO_CONSULTAR_USUARIOS"><path d="M380.06,360.91 C414.55,339.28 466.0863,306.9669 500.6063,285.3269 " fill="none" id="MODIFICAR_USUARIO-to-CONSULTAR_USUARIOS" style="stroke:#87CEEB;stroke-width:1.0;"/><polygon fill="#87CEEB" points="505.69,282.14,495.9399,283.5312,501.4536,284.7957,500.1891,290.3094,505.69,282.14" style="stroke:#87CEEB;stroke-width:1.0;"/><text fill="#000000" font-family="sans-serif" font-size="13" lengthAdjust="spacing" textLength="112.709" x="455.41" y="327.0283">Ir al men&#250; Usuarios</text></g><!--link CONSULTAR_USUARIOS to ELIMINAR_USUARIO--><g id="link_CONSULTAR_USUARIOS_ELIMINAR_USUARIO"><path d="M555.15,282.25 C569.85,296.04 590.55,315.06 609.41,331 C621.41,341.14 630.3961,348.2993 641.8761,357.1393 " fill="none" id="CONSULTAR_USUARIOS-to-ELIMINAR_USUARIO" style="stroke:#ADD8E6;stroke-width:1.0;"/><polygon fill="#ADD8E6" points="646.63,360.8,641.9396,352.1397,642.6684,357.7494,637.0587,358.4783,646.63,360.8" style="stroke:#ADD8E6;stroke-width:1.0;"/><text fill="#000000" font-family="sans-serif" font-size="13" lengthAdjust="spacing" textLength="101.8608" x="610.41" y="327.0283">Eliminar Usuarios</text></g><!--link ELIMINAR_USUARIO to CONSULTAR_USUARIOS--><g id="link_ELIMINAR_USUARIO_CONSULTAR_USUARIOS"><path d="M697.14,361 C713.19,347.17 728.67,327.98 716.41,312 C705.02,297.16 673.2135,287.0956 635.1635,279.1556 " fill="none" id="ELIMINAR_USUARIO-to-CONSULTAR_USUARIOS" style="stroke:#87CEEB;stroke-width:1.0;"/><polygon fill="#87CEEB" points="629.29,277.93,637.2831,283.6841,634.1846,278.9514,638.9173,275.8528,629.29,277.93" style="stroke:#87CEEB;stroke-width:1.0;"/><text fill="#000000" font-family="sans-serif" font-size="13" lengthAdjust="spacing" textLength="112.709" x="722.41" y="327.0283">Ir al men&#250; Usuarios</text></g><!--link CONSULTAR_RUTINAS to CREAR_RUTINA--><g id="link_CONSULTAR_RUTINAS_CREAR_RUTINA"><path d="M1447.36,263.81 C1282.91,265.32 942.38,273.15 906.41,312 C892.34,327.19 904.6183,342.8849 922.1383,357.0049 " fill="none" id="CONSULTAR_RUTINAS-to-CREAR_RUTINA" style="stroke:#98FB98;stroke-width:1.0;"/><polygon fill="#98FB98" points="926.81,360.77,922.3126,352.008,922.917,357.6325,917.2925,358.2369,926.81,360.77" style="stroke:#98FB98;stroke-width:1.0;"/><text fill="#000000" font-family="sans-serif" font-size="13" lengthAdjust="spacing" textLength="80.1963" x="907.41" y="327.0283">Crear Rutinas</text></g><!--link CREAR_RUTINA to CONSULTAR_RUTINAS--><g id="link_CREAR_RUTINA_CONSULTAR_RUTINAS"><path d="M975.8,360.81 C995.35,344.9 1025.81,322.92 1056.41,312 C1126.18,287.1 1322.9779,273.7368 1441.1279,267.6868 " fill="none" id="CREAR_RUTINA-to-CONSULTAR_RUTINAS" style="stroke:#87CEEB;stroke-width:1.0;"/><polygon fill="#87CEEB" points="1447.12,267.38,1437.9272,263.8455,1442.1265,267.6357,1438.3363,271.835,1447.12,267.38" style="stroke:#87CEEB;stroke-width:1.0;"/><text fill="#000000" font-family="sans-serif" font-size="13" lengthAdjust="spacing" textLength="105.4917" x="1057.41" y="327.0283">Ir al men&#250; Rutinas</text></g><!--link CONSULTAR_RUTINAS to MODIFICAR_RUTINA--><g id="link_CONSULTAR_RUTINAS_MODIFICAR_RUTINA"><path d="M1447.24,269.38 C1346.47,277.01 1193.08,291.79 1175.41,312 C1161.38,328.04 1174.6737,343.5363 1193.6237,357.2863 " fill="none" id="CONSULTAR_RUTINAS-to-MODIFICAR_RUTINA" style="stroke:#98FB98;stroke-width:1.0;"/><polygon fill="#98FB98" points="1198.48,360.81,1193.5447,352.2869,1194.4331,357.8736,1188.8464,358.762,1198.48,360.81" style="stroke:#98FB98;stroke-width:1.0;"/><text fill="#000000" font-family="sans-serif" font-size="13" lengthAdjust="spacing" textLength="100.4263" x="1176.41" y="327.0283">Modificar Rutinas</text></g><!--link MODIFICAR_RUTINA to CONSULTAR_RUTINAS--><g id="link_MODIFICAR_RUTINA_CONSULTAR_RUTINAS"><path d="M1256.95,360.92 C1280.2,345.93 1314.83,325.24 1347.41,312 C1379.11,299.12 1409.3872,290.2368 1441.4372,282.5068 " fill="none" id="MODIFICAR_RUTINA-to-CONSULTAR_RUTINAS" style="stroke:#87CEEB;stroke-width:1.0;"/><polygon fill="#87CEEB" points="1447.27,281.1,1437.583,279.3217,1442.4094,282.2723,1439.4587,287.0987,1447.27,281.1" style="stroke:#87CEEB;stroke-width:1.0;"/><text fill="#000000" font-family="sans-serif" font-size="13" lengthAdjust="spacing" textLength="105.4917" x="1348.41" y="327.0283">Ir al men&#250; Rutinas</text></g><!--link CONSULTAR_RUTINAS to ELIMINAR_RUTINA--><g id="link_CONSULTAR_RUTINAS_ELIMINAR_RUTINA"><path d="M1494.34,282.04 C1482.52,289.55 1471.03,299.46 1464.41,312 C1455.21,329.43 1465.0467,343.761 1480.2567,356.881 " fill="none" id="CONSULTAR_RUTINAS-to-ELIMINAR_RUTINA" style="stroke:#98FB98;stroke-width:1.0;"/><polygon fill="#98FB98" points="1484.8,360.8,1480.5977,351.8926,1481.0139,357.5342,1475.3724,357.9504,1484.8,360.8" style="stroke:#98FB98;stroke-width:1.0;"/><text fill="#000000" font-family="sans-serif" font-size="13" lengthAdjust="spacing" textLength="94.6436" x="1465.41" y="327.0283">Eliminar Rutinas</text></g><!--link ELIMINAR_RUTINA to CONSULTAR_RUTINAS--><g id="link_ELIMINAR_RUTINA_CONSULTAR_RUTINAS"><path d="M1540.03,360.83 C1549.64,352.9 1559.23,342.76 1564.41,331 C1571.66,314.54 1565.6946,300.5663 1555.6646,286.9863 " fill="none" id="ELIMINAR_RUTINA-to-CONSULTAR_RUTINAS" style="stroke:#87CEEB;stroke-width:1.0;"/><polygon fill="#87CEEB" points="1552.1,282.16,1554.2294,291.7759,1555.0705,286.1819,1560.6645,287.023,1552.1,282.16" style="stroke:#87CEEB;stroke-width:1.0;"/><text fill="#000000" font-family="sans-serif" font-size="13" lengthAdjust="spacing" textLength="105.4917" x="1568.41" y="327.0283">Ir al men&#250; Rutinas</text></g><!--link CONSULTAR_RUTINAS to BATERIA_EJERCICIOS--><g id="link_CONSULTAR_RUTINAS_BATERIA_EJERCICIOS"><path d="M1595.16,282.01 C1622.01,290.63 1653.98,301.33 1682.41,312 C1723.2,327.3 1763.4275,344.4249 1795.5175,358.5349 " fill="none" id="CONSULTAR_RUTINAS-to-BATERIA_EJERCICIOS" style="stroke:#98FB98;stroke-width:1.0;"/><polygon fill="#98FB98" points="1801.01,360.95,1794.3813,353.6658,1796.4329,358.9375,1791.1612,360.9891,1801.01,360.95" style="stroke:#98FB98;stroke-width:1.0;"/><text fill="#000000" font-family="sans-serif" font-size="13" lengthAdjust="spacing" textLength="175.5698" x="1728.41" y="327.0283">Modificar Bater&#237;a de Ejercicios</text></g><!--link BATERIA_EJERCICIOS to CONSULTAR_RUTINAS--><g id="link_BATERIA_EJERCICIOS_CONSULTAR_RUTINAS"><path d="M1882.87,360.99 C1906.1,347.87 1927.85,329.56 1912.41,312 C1893.62,290.63 1734.9659,276.4517 1629.5559,269.2017 " fill="none" id="BATERIA_EJERCICIOS-to-CONSULTAR_RUTINAS" style="stroke:#87CEEB;stroke-width:1.0;"/><polygon fill="#87CEEB" points="1623.57,268.79,1632.2743,273.3981,1628.5582,269.1331,1632.8233,265.417,1623.57,268.79" style="stroke:#87CEEB;stroke-width:1.0;"/><text fill="#000000" font-family="sans-serif" font-size="13" lengthAdjust="spacing" textLength="105.4917" x="1919.41" y="327.0283">Ir al men&#250; Rutinas</text></g><!--link CONSULTAR_RETOS to CREAR_RETO--><g id="link_CONSULTAR_RETOS_CREAR_RETO"><path d="M2326.23,265.4 C2248.29,269.14 2138.51,280.1 2111.41,312 C2098.37,327.35 2109.4009,342.8431 2125.5109,356.9131 " fill="none" id="CONSULTAR_RETOS-to-CREAR_RETO" style="stroke:#FFA07A;stroke-width:1.0;"/><polygon fill="#FFA07A" points="2130.03,360.86,2125.8826,351.927,2126.2641,357.571,2120.6201,357.9525,2130.03,360.86" style="stroke:#FFA07A;stroke-width:1.0;"/><text fill="#000000" font-family="sans-serif" font-size="13" lengthAdjust="spacing" textLength="70.0781" x="2112.41" y="327.0283">Crear Retos</text></g><!--link CREAR_RETO to CONSULTAR_RETOS--><g id="link_CREAR_RETO_CONSULTAR_RETOS"><path d="M2178.35,360.76 C2197.47,345.88 2225.93,325.41 2253.41,312 C2278.35,299.83 2301.2812,291.538 2327.0812,283.828 " fill="none" id="CREAR_RETO-to-CONSULTAR_RETOS" style="stroke:#87CEEB;stroke-width:1.0;"/><polygon fill="#87CEEB" points="2332.83,282.11,2323.0615,280.8544,2328.0393,283.5416,2325.3521,288.5195,2332.83,282.11" style="stroke:#87CEEB;stroke-width:1.0;"/><text fill="#000000" font-family="sans-serif" font-size="13" lengthAdjust="spacing" textLength="95.3735" x="2254.41" y="327.0283">Ir al men&#250; Retos</text></g><!--link CONSULTAR_RETOS to MODIFICAR_RETO--><g id="link_CONSULTAR_RETOS_MODIFICAR_RETO"><path d="M2381.44,282.02 C2366.78,294.92 2352.79,312.98 2360.41,331 C2365.36,342.69 2370.1315,349.0139 2379.3815,357.0539 " fill="none" id="CONSULTAR_RETOS-to-MODIFICAR_RETO" style="stroke:#FFA07A;stroke-width:1.0;"/><polygon fill="#FFA07A" points="2383.91,360.99,2379.7414,352.0669,2380.1363,357.7099,2374.4932,358.1048,2383.91,360.99" style="stroke:#FFA07A;stroke-width:1.0;"/><text fill="#000000" font-family="sans-serif" font-size="13" lengthAdjust="spacing" textLength="90.3081" x="2361.41" y="327.0283">Modificar Retos</text></g><!--link MODIFICAR_RETO to CONSULTAR_RETOS--><g id="link_MODIFICAR_RETO_CONSULTAR_RETOS"><path d="M2435.84,360.93 C2450.19,348 2463.89,329.93 2456.41,312 C2451.57,300.4 2446.9475,294.1428 2437.8775,286.0928 " fill="none" id="MODIFICAR_RETO-to-CONSULTAR_RETOS" style="stroke:#87CEEB;stroke-width:1.0;"/><polygon fill="#87CEEB" points="2433.39,282.11,2437.466,291.0758,2437.1295,285.429,2442.7764,285.0926,2433.39,282.11" style="stroke:#87CEEB;stroke-width:1.0;"/><text fill="#000000" font-family="sans-serif" font-size="13" lengthAdjust="spacing" textLength="95.3735" x="2460.41" y="327.0283">Ir al men&#250; Retos</text></g><!--link CONSULTAR_RETOS to ELIMINAR_RETO--><g id="link_CONSULTAR_RETOS_ELIMINAR_RETO"><path d="M2482.5,282.05 C2509,289.79 2538.6,299.85 2564.41,312 C2593.04,325.47 2618.1586,342.3723 2638.3386,357.2323 " fill="none" id="CONSULTAR_RETOS-to-ELIMINAR_RETO" style="stroke:#FFA07A;stroke-width:1.0;"/><polygon fill="#FFA07A" points="2643.17,360.79,2638.2947,352.2325,2639.1438,357.8252,2633.5511,358.6744,2643.17,360.79" style="stroke:#FFA07A;stroke-width:1.0;"/><text fill="#000000" font-family="sans-serif" font-size="13" lengthAdjust="spacing" textLength="84.5254" x="2598.41" y="327.0283">Eliminar Retos</text></g><!--link ELIMINAR_RETO to CONSULTAR_RETOS--><g id="link_ELIMINAR_RETO_CONSULTAR_RETOS"><path d="M2683.17,360.81 C2693.54,346.16 2703.2,325.97 2691.41,312 C2665.85,281.7 2569.0602,270.673 2494.4802,266.403 " fill="none" id="ELIMINAR_RETO-to-CONSULTAR_RETOS" style="stroke:#87CEEB;stroke-width:1.0;"/><polygon fill="#87CEEB" points="2488.49,266.06,2497.2466,270.5679,2493.4818,266.3458,2497.7039,262.581,2488.49,266.06" style="stroke:#87CEEB;stroke-width:1.0;"/><text fill="#000000" font-family="sans-serif" font-size="13" lengthAdjust="spacing" textLength="95.3735" x="2698.41" y="327.0283">Ir al men&#250; Retos</text></g><!--link CONSULTAR_CONFIGURACION to CONFIGURAR_SISTEMA--><g id="link_CONSULTAR_CONFIGURACION_CONFIGURAR_SISTEMA"><path d="M3022.84,272.32 C2967.41,279.19 2909.52,291.2 2892.41,312 C2878.67,328.7 2892.3428,343.9497 2912.0528,357.3897 " fill="none" id="CONSULTAR_CONFIGURACION-to-CONFIGURAR_SISTEMA" style="stroke:#FFD700;stroke-width:1.0;"/><polygon fill="#FFD700" points="2917.01,360.77,2911.8277,352.3948,2912.879,357.9531,2907.3207,359.0044,2917.01,360.77" style="stroke:#FFD700;stroke-width:1.0;"/><text fill="#000000" font-family="sans-serif" font-size="13" lengthAdjust="spacing" textLength="111.2681" x="2893.41" y="327.0283">Configurar Sistema</text></g><!--link CONFIGURAR_SISTEMA to CONSULTAR_CONFIGURACION--><g id="link_CONFIGURAR_SISTEMA_CONSULTAR_CONFIGURACION"><path d="M2977.64,360.95 C2998.22,347.1 3027.3,327.9 3053.41,312 C3070.25,301.75 3084.0632,293.8305 3099.9632,285.0105 " fill="none" id="CONFIGURAR_SISTEMA-to-CONSULTAR_CONFIGURACION" style="stroke:#87CEEB;stroke-width:1.0;"/><polygon fill="#87CEEB" points="3105.21,282.1,3095.3995,282.9679,3100.8377,284.5254,3099.2801,289.9636,3105.21,282.1" style="stroke:#87CEEB;stroke-width:1.0;"/><text fill="#000000" font-family="sans-serif" font-size="13" lengthAdjust="spacing" textLength="141.6289" x="3054.41" y="327.0283">Ir al men&#250; Configuraci&#243;n</text></g><!--link CONSULTAR_CONFIGURACION to ADMINISTRAR_PERMISOS--><g id="link_CONSULTAR_CONFIGURACION_ADMINISTRAR_PERMISOS"><path d="M3163.89,282.22 C3181.73,295.83 3206.5,314.64 3228.41,331 C3241.74,340.95 3251.8273,348.3976 3264.1173,357.3876 " fill="none" id="CONSULTAR_CONFIGURACION-to-ADMINISTRAR_PERMISOS" style="stroke:#FFD700;stroke-width:1.0;"/><polygon fill="#FFD700" points="3268.96,360.93,3264.0576,352.388,3264.9244,357.978,3259.3344,358.8449,3268.96,360.93" style="stroke:#FFD700;stroke-width:1.0;"/><text fill="#000000" font-family="sans-serif" font-size="13" lengthAdjust="spacing" textLength="123.5254" x="3229.41" y="327.0283">Administrar Permisos</text></g><!--link ADMINISTRAR_PERMISOS to CONSULTAR_CONFIGURACION--><g id="link_ADMINISTRAR_PERMISOS_CONSULTAR_CONFIGURACION"><path d="M3330.6,360.98 C3351.58,347.79 3371.35,329.38 3357.41,312 C3343.86,295.1 3306.517,284.7044 3262.067,277.2344 " fill="none" id="ADMINISTRAR_PERMISOS-to-CONSULTAR_CONFIGURACION" style="stroke:#87CEEB;stroke-width:1.0;"/><polygon fill="#87CEEB" points="3256.15,276.24,3264.3626,281.6763,3261.0809,277.0687,3265.6885,273.7869,3256.15,276.24" style="stroke:#87CEEB;stroke-width:1.0;"/><text fill="#000000" font-family="sans-serif" font-size="13" lengthAdjust="spacing" textLength="141.6289" x="3362.41" y="327.0283">Ir al men&#250; Configuraci&#243;n</text></g><!--link CONSULTAR_CONFIGURACION to AJUSTES_GENERALES--><g id="link_CONSULTAR_CONFIGURACION_AJUSTES_GENERALES"><path d="M3256.3,264.65 C3331.61,268.76 3430.4,280.55 3512.41,312 C3541.73,323.24 3566.1862,341.0704 3584.9562,356.8404 " fill="none" id="CONSULTAR_CONFIGURACION-to-AJUSTES_GENERALES" style="stroke:#FFD700;stroke-width:1.0;"/><polygon fill="#FFD700" points="3589.55,360.7,3585.2323,351.848,3585.7218,357.4837,3580.0862,357.9731,3589.55,360.7" style="stroke:#FFD700;stroke-width:1.0;"/><text fill="#000000" font-family="sans-serif" font-size="13" lengthAdjust="spacing" textLength="106.2217" x="3547.41" y="327.0283">Ajustes Generales</text></g><!--link AJUSTES_GENERALES to CONSULTAR_CONFIGURACION--><g id="link_AJUSTES_GENERALES_CONSULTAR_CONFIGURACION"><path d="M3640.19,360.79 C3658.77,346.86 3676.66,327.63 3662.41,312 C3635.59,282.58 3408.0071,270.9176 3262.2171,266.3576 " fill="none" id="AJUSTES_GENERALES-to-CONSULTAR_CONFIGURACION" style="stroke:#87CEEB;stroke-width:1.0;"/><polygon fill="#87CEEB" points="3256.22,266.17,3265.0906,270.4494,3261.2176,266.3263,3265.3407,262.4533,3256.22,266.17" style="stroke:#87CEEB;stroke-width:1.0;"/><text fill="#000000" font-family="sans-serif" font-size="13" lengthAdjust="spacing" textLength="141.6289" x="3668.41" y="327.0283">Ir al men&#250; Configuraci&#243;n</text></g><!--link CONSULTAR_REPORTES to CONSULTAR_REPORTES_DETALLADOS--><g id="link_CONSULTAR_REPORTES_CONSULTAR_REPORTES_DETALLADOS"><path d="M3943.7,282.03 C3929.36,289.05 3916.13,298.72 3907.41,312 C3896.51,328.6 3906.7549,343.4386 3922.2149,356.9686 " fill="none" id="CONSULTAR_REPORTES-to-CONSULTAR_REPORTES_DETALLADOS" style="stroke:#F08080;stroke-width:1.0;"/><polygon fill="#F08080" points="3926.73,360.92,3922.5916,351.9828,3922.9674,357.6271,3917.3231,358.0029,3926.73,360.92" style="stroke:#F08080;stroke-width:1.0;"/><text fill="#000000" font-family="sans-serif" font-size="13" lengthAdjust="spacing" textLength="177.0361" x="3908.41" y="327.0283">Consultar Reportes Detallados</text></g><!--link CONSULTAR_REPORTES_DETALLADOS to CONSULTAR_REPORTES--><g id="link_CONSULTAR_REPORTES_DETALLADOS_CONSULTAR_REPORTES"><path d="M4052.99,360.96 C4067.69,353.92 4081.02,344.26 4090.41,331 C4103.59,312.4 4088.7371,297.7434 4066.6071,285.1734 " fill="none" id="CONSULTAR_REPORTES_DETALLADOS-to-CONSULTAR_REPORTES" style="stroke:#87CEEB;stroke-width:1.0;"/><polygon fill="#87CEEB" points="4061.39,282.21,4067.2401,290.1331,4065.7376,284.6795,4071.1913,283.177,4061.39,282.21" style="stroke:#87CEEB;stroke-width:1.0;"/><text fill="#000000" font-family="sans-serif" font-size="13" lengthAdjust="spacing" textLength="114.1626" x="4095.41" y="327.0283">Ir al men&#250; Reportes</text></g><!--link CONSULTAR_REPORTES to DESCARGAR_ESTADISTICAS--><g id="link_CONSULTAR_REPORTES_DESCARGAR_ESTADISTICAS"><path d="M4110.01,282.08 C4144.35,290.03 4183.55,300.21 4218.41,312 C4259.34,325.84 4299.0002,343.645 4329.7502,358.395 " fill="none" id="CONSULTAR_REPORTES-to-DESCARGAR_ESTADISTICAS" style="stroke:#F08080;stroke-width:1.0;"/><polygon fill="#F08080" points="4335.16,360.99,4328.7752,353.491,4330.6518,358.8275,4325.3153,360.7041,4335.16,360.99" style="stroke:#F08080;stroke-width:1.0;"/><text fill="#000000" font-family="sans-serif" font-size="13" lengthAdjust="spacing" textLength="133.6626" x="4266.41" y="327.0283">Descargar Estad&#237;sticas</text></g><!--link DESCARGAR_ESTADISTICAS to CONSULTAR_REPORTES--><g id="link_DESCARGAR_ESTADISTICAS_CONSULTAR_REPORTES"><path d="M4393.75,360.87 C4407.73,346.45 4421.25,326.53 4408.41,312 C4389.27,290.32 4229.9971,276.4432 4121.1171,269.2932 " fill="none" id="DESCARGAR_ESTADISTICAS-to-CONSULTAR_REPORTES" style="stroke:#87CEEB;stroke-width:1.0;"/><polygon fill="#87CEEB" points="4115.13,268.9,4123.8485,273.4812,4120.1193,269.2276,4124.3728,265.4983,4115.13,268.9" style="stroke:#87CEEB;stroke-width:1.0;"/><text fill="#000000" font-family="sans-serif" font-size="13" lengthAdjust="spacing" textLength="114.1626" x="4414.41" y="327.0283">Ir al men&#250; Reportes</text></g><rect fill="#DDDDDD" height="140.3477" id="_legend" rx="7.5" ry="7.5" style="stroke:#000000;stroke-width:1.0;" width="545.3906" x="3965.182" y="416.6211"/><text fill="#000000" font-family="sans-serif" font-size="14" lengthAdjust="spacing" textLength="57.6064" x="3970.182" y="436.7285">Leyenda:</text><text fill="#000000" font-family="sans-serif" font-size="14" lengthAdjust="spacing" textLength="480.1357" x="3970.182" y="455.3496">- Color azul claro (#LightBlue): Men&#250;s y funciones relacionadas con usuarios.</text><text fill="#000000" font-family="sans-serif" font-size="14" lengthAdjust="spacing" textLength="487.1289" x="3970.182" y="473.9707">- Color verde claro (#PaleGreen): Men&#250;s y funciones relacionadas con rutinas.</text><text fill="#000000" font-family="sans-serif" font-size="14" lengthAdjust="spacing" textLength="497.2393" x="3970.182" y="492.5918">- Color salm&#243;n claro (#LightSalmon): Men&#250;s y funciones relacionadas con retos.</text><text fill="#000000" font-family="sans-serif" font-size="14" lengthAdjust="spacing" textLength="465.3633" x="3970.182" y="511.2129">- Color dorado (#Gold): Men&#250;s y funciones relacionadas con configuraci&#243;n.</text><text fill="#000000" font-family="sans-serif" font-size="14" lengthAdjust="spacing" textLength="488.6738" x="3970.182" y="529.834">- Color coral claro (#LightCoral): Men&#250;s y funciones relacionadas con reportes.</text><text fill="#000000" font-family="sans-serif" font-size="14" lengthAdjust="spacing" textLength="535.3906" x="3970.182" y="548.4551">- Color azul cielo (#SkyBlue): Navegaci&#243;n entre men&#250;s o regreso a la p&#225;gina principal.</text><!--SRC=[lLZBRjms5DthAnXxaMXXVy0i2iWQHb2WUK2Q2L0KnO2Lw8aIZcHGKkhft_G3ikgks_cnNkf9KfIj67PN7bY7XuVtJRvBw7sQKHHYT-UilG1_UBGHft59iYEZwD6otYCtPpcd1NeWdA2ObFIOyyiFKbZlsiNk9jY4XtsqTq9_4w7h83r-AUzOHJL4kD_vQmS0MyAenodDT03UzUiZmawv3d0twu- -jmyTrz-iqRMNisH4iTs4Ezonk3adJ8EidS_OQncYR-TQA1npAJ1fd5x-oL124OdB-jHdH1azqQpCmG8ypUBq0TGNrc0nPxdortwq2vtb9hJHzQ-KiVpFvdm3QkjuSFZ3DlJNhhzr0hjLw75o5jklQ7RvTseBE7Uq3tREO6LRDhC9s1hRbgrjn0cRswhHJJZ5z7PhUpDXum5RSG6SCAh-kA_WS7a6PWKBN-sBYl0qBwvadX0FfxIrq99mgytI_-Yxix0uyC53Jq1DuiAgJ3DYqDOOrbPZsgZiEMIlwpdWdRF3eUySy2SSkhvRkr_56az0IvDjXSDjEU7Csfz03Rf789CEDy_kqsF5IPrRLshGD34L7Y988BpgRQ14cp7NmiCMXoi_6cmnkURJ7hYZWuVNE7G2FB70RCA7d9Uqk7eoqWzBl7E20D9_y4lxILgtn14OreDrEDevIpW467gy06I4b95MX5mEb3g3RdwxlWFOjzzlVa5wRK4Bv6T7g5w48y9GaHObFH5h19CvLFO5SYddiBoWXV1QqmSo-jZ8WdB8AJgDIvPfYxvEYMt6bGpsSf8JbDwY51jsHS4o886iBTXJfwxFMvVnt3AAwOkXAgPhJGlaqQA4GuAIjW9OOzGhw93AhQQaxe6A3f77bevu1GsYXAkRg_rrWVhKvT05KTJ6qHJ-jSnITmpTAcrRNw3FL9YaoKlephWeINBv0SQALLzrAtvILLq5siXMcvGv8DNebhkNi1-dIaWhdrLXniHefDLg1fOvGaRj4SXMUPBUWvKaGMFOMuhI-p1mOPP2wikIHg0NAz8zsNTqOqAhXK7gzBqR-teWVvnIDnGKMLn7CKE2FaOe3knuHg0tawFDAhBhEXOTycPQnkEGOfmxkAA82ufmElvAUImIkx0CgrweS1HOpQ1bgD1wbUy7i26eck8-V9ZKrFO5HL6zUCR6wbodXbBDeG7UH8GoDYe1L3Eedr-WG7UBFdS-qRQaJgWDf6eJb3gWZfiIhBTKMRYgq9gZq3G0QnFKbl9JMkJom2XX_o-T-j0jH7wj2j6qFPfHteoq8zHho1ldPpV5cyU3vuOEQRvlmg6eM4caAMH9Iy8OINBJ02AldexgVhnH0xlPm9ebt7p10CebBI3JZw1O7POc5hnOv7iKq3FD4c8nUeI_Y0jz5kh-lO2VDyrp4Y9_LGp5ZF0SVL1lu_QYUmive-4snjix4Kb8WU8yGrNRvsybqk-KWxyLrkuPP1ufRqgyp5b0_H9FGYfh_MWoarDK9van0OSbFPNwhZAFCbO2NkQEHJ3eMjltcBbo6tVUZfoLKjQJ3czeGBict-cnqQBU37DW4zVG717427gu_7q4ymuNnbjBH4aJBDP_]--></g></svg>