<svg xmlns="http://www.w3.org/2000/svg" xmlns:xlink="http://www.w3.org/1999/xlink" contentStyleType="text/css" height="657px" preserveAspectRatio="none" style="width:466px;height:657px;background:#FFFFFF;" version="1.1" viewBox="0 0 466 657" width="466px" zoomAndPan="magnify"><defs/><g><!--class Profesor--><g id="elem_Profesor"><rect codeLine="4" fill="#F1F1F1" height="26.2969" id="Profesor" rx="2.5" ry="2.5" style="stroke:#181818;stroke-width:0.5;" width="63.9209" x="258" y="7"/><text fill="#000000" font-family="sans-serif" font-size="14" lengthAdjust="spacing" textLength="57.9209" x="261" y="24.9951">Profesor</text></g><!--class Alumno--><g id="elem_Alumno"><rect codeLine="5" fill="#F1F1F1" height="26.2969" id="Alumno" rx="2.5" ry="2.5" style="stroke:#181818;stroke-width:0.5;" width="59.416" x="348.5" y="110"/><text fill="#000000" font-family="sans-serif" font-size="14" lengthAdjust="spacing" textLength="53.416" x="351.5" y="127.9951">Alumno</text></g><!--class Asignatura--><g id="elem_Asignatura"><rect codeLine="6" fill="#F1F1F1" height="26.2969" id="Asignatura" rx="2.5" ry="2.5" style="stroke:#181818;stroke-width:0.5;" width="81.7969" x="220" y="213"/><text fill="#000000" font-family="sans-serif" font-size="14" lengthAdjust="spacing" textLength="75.7969" x="223" y="230.9951">Asignatura</text></g><!--class UnidadesDidacticas--><g id="elem_UnidadesDidacticas"><rect codeLine="7" fill="#F1F1F1" height="26.2969" id="UnidadesDidacticas" rx="2.5" ry="2.5" style="stroke:#181818;stroke-width:0.5;" width="144.0518" x="142" y="316"/><text fill="#000000" font-family="sans-serif" font-size="14" lengthAdjust="spacing" textLength="138.0518" x="145" y="333.9951">UnidadesDidacticas</text></g><!--class ClasesPracticas--><g id="elem_ClasesPracticas"><rect codeLine="8" fill="#F1F1F1" height="26.2969" id="ClasesPracticas" rx="2.5" ry="2.5" style="stroke:#181818;stroke-width:0.5;" width="114.8691" x="156.5" y="419"/><text fill="#000000" font-family="sans-serif" font-size="14" lengthAdjust="spacing" textLength="108.8691" x="159.5" y="436.9951">ClasesPracticas</text></g><!--class ClasesTeoricas--><g id="elem_ClasesTeoricas"><rect codeLine="11" fill="#F1F1F1" height="26.2969" id="ClasesTeoricas" rx="2.5" ry="2.5" style="stroke:#181818;stroke-width:0.5;" width="110.3916" x="7" y="522"/><text fill="#000000" font-family="sans-serif" font-size="14" lengthAdjust="spacing" textLength="104.3916" x="10" y="539.9951">ClasesTeoricas</text></g><!--class CentroDeportivo--><g id="elem_CentroDeportivo"><rect codeLine="12" fill="#F1F1F1" height="26.2969" id="CentroDeportivo" rx="2.5" ry="2.5" style="stroke:#181818;stroke-width:0.5;" width="121.9033" x="153" y="522"/><text fill="#000000" font-family="sans-serif" font-size="14" lengthAdjust="spacing" textLength="115.9033" x="156" y="539.9951">CentroDeportivo</text></g><!--class Rutina--><g id="elem_Rutina"><rect codeLine="13" fill="#F1F1F1" height="26.2969" id="Rutina" rx="2.5" ry="2.5" style="stroke:#181818;stroke-width:0.5;" width="51.4316" x="345.5" y="522"/><text fill="#000000" font-family="sans-serif" font-size="14" lengthAdjust="spacing" textLength="45.4316" x="348.5" y="539.9951">Rutina</text></g><!--class Retos--><g id="elem_Retos"><rect codeLine="14" fill="#F1F1F1" height="26.2969" id="Retos" rx="2.5" ry="2.5" style="stroke:#181818;stroke-width:0.5;" width="45.6895" x="299" y="625"/><text fill="#000000" font-family="sans-serif" font-size="14" lengthAdjust="spacing" textLength="39.6895" x="302" y="642.9951">Retos</text></g><!--class Valoracion--><g id="elem_Valoracion"><rect codeLine="15" fill="#F1F1F1" height="26.2969" id="Valoracion" rx="2.5" ry="2.5" style="stroke:#181818;stroke-width:0.5;" width="79.9717" x="380" y="625"/><text fill="#000000" font-family="sans-serif" font-size="14" lengthAdjust="spacing" textLength="73.9717" x="383" y="642.9951">Valoracion</text></g><!--link Profesor to Alumno--><g id="link_Profesor_Alumno"><path codeLine="17" d="M300.79,33.38 C317.77,52.87 350.53,90.47 367.4,109.83 " fill="none" id="Profesor-Alumno" style="stroke:#181818;stroke-width:1;"/><text fill="#000000" font-family="sans-serif" font-size="13" lengthAdjust="spacing" textLength="67.355" x="341" y="76.0669">esTutorDe</text></g><!--link Profesor to Asignatura--><g id="link_Profesor_Asignatura"><path codeLine="18" d="M288.27,33.15 C283.11,69.43 267.86,176.71 262.72,212.91 " fill="none" id="Profesor-Asignatura" style="stroke:#181818;stroke-width:1;"/><text fill="#000000" font-family="sans-serif" font-size="13" lengthAdjust="spacing" textLength="50.9336" x="278" y="127.5669">imparte</text></g><!--link Asignatura to UnidadesDidacticas--><g id="link_Asignatura_UnidadesDidacticas"><path codeLine="19" d="M255.24,239.38 C246.17,258.87 228.67,296.47 219.66,315.83 " fill="none" id="Asignatura-UnidadesDidacticas" style="stroke:#181818;stroke-width:1;"/><text fill="#000000" font-family="sans-serif" font-size="13" lengthAdjust="spacing" textLength="32.9443" x="242" y="282.0669">tiene</text></g><!--link UnidadesDidacticas to ClasesPracticas--><g id="link_UnidadesDidacticas_ClasesPracticas"><path codeLine="20" d="M214,342.38 C214,361.87 214,399.47 214,418.83 " fill="none" id="UnidadesDidacticas-ClasesPracticas" style="stroke:#181818;stroke-width:1;"/><text fill="#000000" font-family="sans-serif" font-size="13" lengthAdjust="spacing" textLength="46.541" x="215" y="385.0669">incluye</text></g><!--link UnidadesDidacticas to ClasesTeoricas--><g id="link_UnidadesDidacticas_ClasesTeoricas"><path codeLine="21" d="M187.67,342.1 C159.45,356.43 115.4,383 91,419 C68.93,451.55 63.65,499.55 62.39,521.82 " fill="none" id="UnidadesDidacticas-ClasesTeoricas" style="stroke:#181818;stroke-width:1;"/><text fill="#000000" font-family="sans-serif" font-size="13" lengthAdjust="spacing" textLength="46.541" x="92" y="436.5669">incluye</text></g><!--link Alumno to Asignatura--><g id="link_Alumno_Asignatura"><path codeLine="22" d="M363.65,136.38 C341.08,155.87 297.52,193.47 275.1,212.83 " fill="none" id="Alumno-Asignatura" style="stroke:#181818;stroke-width:1;"/><text fill="#000000" font-family="sans-serif" font-size="13" lengthAdjust="spacing" textLength="35.4707" x="328" y="179.0669">cursa</text></g><!--link ClasesPracticas to CentroDeportivo--><g id="link_ClasesPracticas_CentroDeportivo"><path codeLine="23" d="M212.76,445.2 C211.7,457.13 210.42,475.81 211,492 C211.36,502.08 212.2,513.5 212.9,521.88 " fill="none" id="ClasesPracticas-CentroDeportivo" style="stroke:#181818;stroke-width:1;"/><text fill="#000000" font-family="sans-serif" font-size="13" lengthAdjust="spacing" textLength="78.2349" x="212" y="488.0669">seRealizaEn</text></g><!--link ClasesPracticas to Rutina--><g id="link_ClasesPracticas_Rutina"><path codeLine="24" d="M240.21,445.08 C256.4,452.92 277.39,463.73 295,475 C317.79,489.59 342.17,509.34 357,521.88 " fill="none" id="ClasesPracticas-Rutina" style="stroke:#181818;stroke-width:1;"/><text fill="#000000" font-family="sans-serif" font-size="13" lengthAdjust="spacing" textLength="47.2139" x="320" y="488.0669">ense&#241;a</text></g><!--link Rutina to Retos--><g id="link_Rutina_Retos"><path codeLine="25" d="M347.92,548.15 C337,555.25 325.05,565.33 319,578 C311.93,592.81 314.87,612.15 318.07,624.58 " fill="none" id="Rutina-Retos" style="stroke:#181818;stroke-width:1;"/><text fill="#000000" font-family="sans-serif" font-size="13" lengthAdjust="spacing" textLength="56.2847" x="320" y="591.0669">contiene</text></g><!--link Rutina to Valoracion--><g id="link_Rutina_Valoracion"><path codeLine="26" d="M377.01,548.38 C386.46,567.87 404.7,605.47 414.1,624.83 " fill="none" id="Rutina-Valoracion" style="stroke:#181818;stroke-width:1;"/><text fill="#000000" font-family="sans-serif" font-size="13" lengthAdjust="spacing" textLength="32.9443" x="399" y="591.0669">tiene</text></g><!--link Alumno to Rutina--><g id="link_Alumno_Rutina"><path codeLine="27" d="M383.67,136.14 C391.85,154.81 406,191.88 406,225 C406,225 406,225 406,433 C406,466.59 388.5,503.17 378.25,521.72 " fill="none" id="Alumno-Rutina" style="stroke:#181818;stroke-width:1;"/><text fill="#000000" font-family="sans-serif" font-size="13" lengthAdjust="spacing" textLength="43.3228" x="407" y="333.5669">realiza</text></g><!--link ClasesPracticas to ClasesTeoricas--><g id="link_ClasesPracticas_ClasesTeoricas"><path codeLine="29" d="M194.2,445.07 C180.78,453.34 162.7,464.64 147,475 C123.16,490.73 96.15,509.68 79.09,521.78 " fill="none" id="ClasesPracticas-ClasesTeoricas" style="stroke:#181818;stroke-width:1;"/><text fill="#000000" font-family="sans-serif" font-size="13" lengthAdjust="spacing" textLength="54.7866" x="148" y="488.0669">requiere</text></g><!--SRC=[VL1BJiGm3Dtd5Bx0NA0xHDcFAc1lKiDOIftY92CDY4Dn1Yv6IZjD9whOvFEUxUVtJjmJM5Rho9ocDmrZlC10mmjfCCOw306EwbyfU8NFhmMvSsaGl_a7VXECIR5WJy8zzXJQVDd85aFXxlD9uQWhOG30tBAFvBNg8edgMngzHZvlvBiKMJRI7KM_wNj6vxCKUvamizev7Av66iXwANfjwPOklXhWOKIDP3PWBjcnsK1a4Z8xL6welUV1Obsw_5-_fb7AbzthDMtIWAPMcGPLyJKGg2Dq_84FijUmn9h3aK0_tsWMOAB-4ivYNcQlXIffNtCeYyvL3UWiQtRNhFqglIScfLy0]--></g></svg>