<svg xmlns="http://www.w3.org/2000/svg" xmlns:xlink="http://www.w3.org/1999/xlink" contentStyleType="text/css" height="657px" preserveAspectRatio="none" style="width:585px;height:657px;background:#FFFFFF;" version="1.1" viewBox="0 0 585 657" width="585px" zoomAndPan="magnify"><defs/><g><!--class Profesor--><g id="elem_Profesor"><rect codeLine="4" fill="#F1F1F1" height="26.2969" id="Profesor" rx="2.5" ry="2.5" style="stroke:#181818;stroke-width:0.5;" width="63.9209" x="362" y="7"/><text fill="#000000" font-family="sans-serif" font-size="14" lengthAdjust="spacing" textLength="57.9209" x="365" y="24.9951">Profesor</text></g><!--class Alumno--><g id="elem_Alumno"><rect codeLine="5" fill="#F1F1F1" height="26.2969" id="Alumno" rx="2.5" ry="2.5" style="stroke:#181818;stroke-width:0.5;" width="59.416" x="452.5" y="110"/><text fill="#000000" font-family="sans-serif" font-size="14" lengthAdjust="spacing" textLength="53.416" x="455.5" y="127.9951">Alumno</text></g><!--class Asignatura--><g id="elem_Asignatura"><rect codeLine="6" fill="#F1F1F1" height="26.2969" id="Asignatura" rx="2.5" ry="2.5" style="stroke:#181818;stroke-width:0.5;" width="81.7969" x="324" y="213"/><text fill="#000000" font-family="sans-serif" font-size="14" lengthAdjust="spacing" textLength="75.7969" x="327" y="230.9951">Asignatura</text></g><!--class UnidadDidactica--><g id="elem_UnidadDidactica"><rect codeLine="7" fill="#F1F1F1" height="26.2969" id="UnidadDidactica" rx="2.5" ry="2.5" style="stroke:#181818;stroke-width:0.5;" width="120.8506" x="211.5" y="316"/><text fill="#000000" font-family="sans-serif" font-size="14" lengthAdjust="spacing" textLength="114.8506" x="214.5" y="333.9951">UnidadDidactica</text></g><!--class ClasePractica--><g id="elem_ClasePractica"><rect codeLine="8" fill="#F1F1F1" height="26.2969" id="ClasePractica" rx="2.5" ry="2.5" style="stroke:#181818;stroke-width:0.5;" width="100.2813" x="222" y="419"/><text fill="#000000" font-family="sans-serif" font-size="14" lengthAdjust="spacing" textLength="94.2813" x="225" y="436.9951">ClasePractica</text></g><!--class ClaseTeorica--><g id="elem_ClaseTeorica"><rect codeLine="11" fill="#F1F1F1" height="26.2969" id="ClaseTeorica" rx="2.5" ry="2.5" style="stroke:#181818;stroke-width:0.5;" width="95.8037" x="7" y="522"/><text fill="#000000" font-family="sans-serif" font-size="14" lengthAdjust="spacing" textLength="89.8037" x="10" y="539.9951">ClaseTeorica</text></g><!--class CentroDeportivo--><g id="elem_CentroDeportivo"><rect codeLine="12" fill="#F1F1F1" height="26.2969" id="CentroDeportivo" rx="2.5" ry="2.5" style="stroke:#181818;stroke-width:0.5;" width="121.9033" x="211" y="522"/><text fill="#000000" font-family="sans-serif" font-size="14" lengthAdjust="spacing" textLength="115.9033" x="214" y="539.9951">CentroDeportivo</text></g><!--class Rutina--><g id="elem_Rutina"><rect codeLine="13" fill="#F1F1F1" height="26.2969" id="Rutina" rx="2.5" ry="2.5" style="stroke:#181818;stroke-width:0.5;" width="51.4316" x="489.5" y="522"/><text fill="#000000" font-family="sans-serif" font-size="14" lengthAdjust="spacing" textLength="45.4316" x="492.5" y="539.9951">Rutina</text></g><!--class Reto--><g id="elem_Reto"><rect codeLine="14" fill="#F1F1F1" height="26.2969" id="Reto" rx="2.5" ry="2.5" style="stroke:#181818;stroke-width:0.5;" width="38.3955" x="138" y="522"/><text fill="#000000" font-family="sans-serif" font-size="14" lengthAdjust="spacing" textLength="32.3955" x="141" y="539.9951">Reto</text></g><!--class Valoracion--><g id="elem_Valoracion"><rect codeLine="15" fill="#F1F1F1" height="26.2969" id="Valoracion" rx="2.5" ry="2.5" style="stroke:#181818;stroke-width:0.5;" width="79.9717" x="189" y="625"/><text fill="#000000" font-family="sans-serif" font-size="14" lengthAdjust="spacing" textLength="73.9717" x="192" y="642.9951">Valoracion</text></g><!--link Profesor to Alumno--><g id="link_Profesor_Alumno"><path codeLine="17" d="M404.79,33.38 C421.77,52.87 454.53,90.47 471.4,109.83 " fill="none" id="Profesor-Alumno" style="stroke:#181818;stroke-width:1;"/><text fill="#000000" font-family="sans-serif" font-size="13" lengthAdjust="spacing" textLength="67.355" x="445" y="76.0669">esTutorDe</text></g><!--link Profesor to Asignatura--><g id="link_Profesor_Asignatura"><path codeLine="18" d="M392.27,33.15 C387.11,69.43 371.86,176.71 366.72,212.91 " fill="none" id="Profesor-Asignatura" style="stroke:#181818;stroke-width:1;"/><text fill="#000000" font-family="sans-serif" font-size="13" lengthAdjust="spacing" textLength="50.9336" x="382" y="127.5669">imparte</text></g><!--link Asignatura to UnidadDidactica--><g id="link_Asignatura_UnidadDidactica"><path codeLine="19" d="M353.6,239.38 C335.65,258.87 301.03,296.47 283.21,315.83 " fill="none" id="Asignatura-UnidadDidactica" style="stroke:#181818;stroke-width:1;"/><text fill="#000000" font-family="sans-serif" font-size="13" lengthAdjust="spacing" textLength="32.9443" x="326" y="282.0669">tiene</text></g><!--link UnidadDidactica to ClasePractica--><g id="link_UnidadDidactica_ClasePractica"><path codeLine="20" d="M272,342.38 C272,361.87 272,399.47 272,418.83 " fill="none" id="UnidadDidactica-ClasePractica" style="stroke:#181818;stroke-width:1;"/><text fill="#000000" font-family="sans-serif" font-size="13" lengthAdjust="spacing" textLength="46.541" x="273" y="385.0669">incluye</text></g><!--link UnidadDidactica to ClaseTeorica--><g id="link_UnidadDidactica_ClaseTeorica"><path codeLine="21" d="M252.85,342.08 C217.87,364.82 142.69,416.98 93,475 C80.32,489.81 68.65,509.15 61.67,521.58 " fill="none" id="UnidadDidactica-ClaseTeorica" style="stroke:#181818;stroke-width:1;"/><text fill="#000000" font-family="sans-serif" font-size="13" lengthAdjust="spacing" textLength="46.541" x="149" y="436.5669">incluye</text></g><!--link Alumno to Asignatura--><g id="link_Alumno_Asignatura"><path codeLine="22" d="M467.65,136.38 C445.08,155.87 401.52,193.47 379.1,212.83 " fill="none" id="Alumno-Asignatura" style="stroke:#181818;stroke-width:1;"/><text fill="#000000" font-family="sans-serif" font-size="13" lengthAdjust="spacing" textLength="35.4707" x="432" y="179.0669">cursa</text></g><!--link ClasePractica to CentroDeportivo--><g id="link_ClasePractica_CentroDeportivo"><path codeLine="23" d="M272,445.38 C272,464.87 272,502.47 272,521.83 " fill="none" id="ClasePractica-CentroDeportivo" style="stroke:#181818;stroke-width:1;"/><text fill="#000000" font-family="sans-serif" font-size="13" lengthAdjust="spacing" textLength="78.2349" x="273" y="488.0669">seRealizaEn</text></g><!--link ClasePractica to Rutina--><g id="link_ClasePractica_Rutina"><path codeLine="24" d="M322.25,443.19 C352,450.17 390.01,460.75 422,475 C450.82,487.84 481.12,508.64 499.02,521.8 " fill="none" id="ClasePractica-Rutina" style="stroke:#181818;stroke-width:1;"/><text fill="#000000" font-family="sans-serif" font-size="13" lengthAdjust="spacing" textLength="47.2139" x="456" y="488.0669">enseña</text></g><!--link ClasePractica to Reto--><g id="link_ClasePractica_Reto"><path codeLine="25" d="M249.4,445.03 C236.06,452.68 219.25,463.33 206,475 C189.82,489.26 174.49,509.1 165.42,521.75 " fill="none" id="ClasePractica-Reto" style="stroke:#181818;stroke-width:1;"/><text fill="#000000" font-family="sans-serif" font-size="13" lengthAdjust="spacing" textLength="56.2847" x="207" y="488.0669">contiene</text></g><!--link ClasePractica to Valoracion--><g id="link_ClasePractica_Valoracion"><path codeLine="26" d="M320.61,445.02 C335.87,451.33 351.06,460.83 360,475 C369.54,490.12 367.26,520.26 350,548 C327.33,584.42 283.84,610.78 255.64,624.98 " fill="none" id="ClasePractica-Valoracion" style="stroke:#181818;stroke-width:1;"/><text fill="#000000" font-family="sans-serif" font-size="13" lengthAdjust="spacing" textLength="32.9443" x="363" y="539.5669">tiene</text></g><!--link ClaseTeorica to Valoracion--><g id="link_ClaseTeorica_Valoracion"><path codeLine="27" d="M75.99,548.18 C109.52,567.65 174.8,605.54 208.21,624.93 " fill="none" id="ClaseTeorica-Valoracion" style="stroke:#181818;stroke-width:1;"/><text fill="#000000" font-family="sans-serif" font-size="13" lengthAdjust="spacing" textLength="32.9443" x="154" y="591.0669">tiene</text></g><!--link Alumno to Rutina--><g id="link_Alumno_Rutina"><path codeLine="28" d="M492.82,136.07 C507.79,154.07 533,189.64 533,225 C533,225 533,225 533,433 C533,465.59 523.8,503.2 518.56,522 " fill="none" id="Alumno-Rutina" style="stroke:#181818;stroke-width:1;"/><text fill="#000000" font-family="sans-serif" font-size="13" lengthAdjust="spacing" textLength="43.3228" x="534" y="333.5669">realiza</text></g><!--link ClasePractica to ClaseTeorica--><g id="link_ClasePractica_ClaseTeorica"><path codeLine="30" d="M221.72,442.08 C192.62,448.63 155.96,459.15 126,475 C102.49,487.44 79.61,508.56 66.44,521.86 " fill="none" id="ClasePractica-ClaseTeorica" style="stroke:#181818;stroke-width:1;"/><text fill="#000000" font-family="sans-serif" font-size="13" lengthAdjust="spacing" textLength="54.7866" x="127" y="488.0669">requiere</text></g><!--SRC=[TP11JiGm34NtEOKlC1V83b7sesfW7rB3M4gTuYGZ3OX3SGOkHafRcdJA9ag-Vso_VwOEmP9OX-eyth4VuXLwx9zHWbBMcH3WAFu5WnVu-9oLEvTwziKxq2kRcCIisYDJPxec7pQIBGht-SIZBB8205NLJkYb_e4SnJSuU8bqAUQsAH8NnXPZKNqopkSnv7dKr1_6uR00QC1mIj5BWtLvvT50_M0aeYh4RDdYQOY4Z6ghPsiDd1koTUdwltNXNvtpkjlDR99WLDr-RBA9IqF05esZT_F0j_Ovn9m51_p-scdu6siUvtbYl36iIIynL22xZfLfMa23J3kg7Q8w5i6tH2Zu0m00]--></g></svg>