<svg xmlns="http://www.w3.org/2000/svg" xmlns:xlink="http://www.w3.org/1999/xlink" contentStyleType="text/css" height="726px" preserveAspectRatio="none" style="width:352px;height:726px;background:#FFFFFF;" version="1.1" viewBox="0 0 352 726" width="352px" zoomAndPan="magnify"><defs/><g><text fill="#000000" font-family="sans-serif" font-size="14" font-weight="bold" lengthAdjust="spacing" textLength="230.7881" x="54.0151" y="22.9951">Diagrama de Clases - Horario</text><!--class AdministradorDeHorarios--><g id="elem_AdministradorDeHorarios"><rect codeLine="3" fill="#F1F1F1" height="64.2969" id="AdministradorDeHorarios" rx="2.5" ry="2.5" style="stroke:#181818;stroke-width:0.5;" width="209.4063" x="98" y="44.2969"/><ellipse cx="113" cy="60.2969" fill="#ADD1B2" rx="11" ry="11" style="stroke:#181818;stroke-width:1.0;"/><path d="M115.9688,65.9375 Q115.3906,66.2344 114.75,66.375 Q114.1094,66.5313 113.4063,66.5313 Q110.9063,66.5313 109.5781,64.8906 Q108.2656,63.2344 108.2656,60.1094 Q108.2656,56.9844 109.5781,55.3281 Q110.9063,53.6719 113.4063,53.6719 Q114.1094,53.6719 114.75,53.8281 Q115.4063,53.9844 115.9688,54.2813 L115.9688,57 Q115.3438,56.4219 114.75,56.1563 Q114.1563,55.875 113.5313,55.875 Q112.1875,55.875 111.5,56.9531 Q110.8125,58.0156 110.8125,60.1094 Q110.8125,62.2031 111.5,63.2813 Q112.1875,64.3438 113.5313,64.3438 Q114.1563,64.3438 114.75,64.0781 Q115.3438,63.7969 115.9688,63.2188 L115.9688,65.9375 Z " fill="#000000"/><text fill="#000000" font-family="sans-serif" font-size="14" lengthAdjust="spacing" textLength="177.4063" x="127" y="65.1436">AdministradorDeHorarios</text><line style="stroke:#181818;stroke-width:0.5;" x1="99" x2="306.4063" y1="76.2969" y2="76.2969"/><rect fill="none" height="6" style="stroke:#C82930;stroke-width:1.0;" width="6" x="106" y="86.9453"/><text fill="#000000" font-family="sans-serif" font-size="14" lengthAdjust="spacing" textLength="88.0742" x="118" y="93.292">listaHorarios</text><line style="stroke:#181818;stroke-width:0.5;" x1="99" x2="306.4063" y1="100.5938" y2="100.5938"/></g><!--class Profesor--><g id="elem_Profesor"><rect codeLine="7" fill="#F1F1F1" height="80.5938" id="Profesor" rx="2.5" ry="2.5" style="stroke:#181818;stroke-width:0.5;" width="89.9209" x="23.5" y="357.2969"/><ellipse cx="38.5" cy="373.2969" fill="#ADD1B2" rx="11" ry="11" style="stroke:#181818;stroke-width:1.0;"/><path d="M41.4688,378.9375 Q40.8906,379.2344 40.25,379.375 Q39.6094,379.5313 38.9063,379.5313 Q36.4063,379.5313 35.0781,377.8906 Q33.7656,376.2344 33.7656,373.1094 Q33.7656,369.9844 35.0781,368.3281 Q36.4063,366.6719 38.9063,366.6719 Q39.6094,366.6719 40.25,366.8281 Q40.9063,366.9844 41.4688,367.2813 L41.4688,370 Q40.8438,369.4219 40.25,369.1563 Q39.6563,368.875 39.0313,368.875 Q37.6875,368.875 37,369.9531 Q36.3125,371.0156 36.3125,373.1094 Q36.3125,375.2031 37,376.2813 Q37.6875,377.3438 39.0313,377.3438 Q39.6563,377.3438 40.25,377.0781 Q40.8438,376.7969 41.4688,376.2188 L41.4688,378.9375 Z " fill="#000000"/><text fill="#000000" font-family="sans-serif" font-size="14" lengthAdjust="spacing" textLength="57.9209" x="52.5" y="378.1436">Profesor</text><line style="stroke:#181818;stroke-width:0.5;" x1="24.5" x2="112.4209" y1="389.2969" y2="389.2969"/><rect fill="none" height="6" style="stroke:#C82930;stroke-width:1.0;" width="6" x="31.5" y="399.9453"/><text fill="#000000" font-family="sans-serif" font-size="14" lengthAdjust="spacing" textLength="54.332" x="43.5" y="406.292">nombre</text><rect fill="none" height="6" style="stroke:#C82930;stroke-width:1.0;" width="6" x="31.5" y="416.2422"/><text fill="#000000" font-family="sans-serif" font-size="14" lengthAdjust="spacing" textLength="55.2002" x="43.5" y="422.5889">apellido</text><line style="stroke:#181818;stroke-width:0.5;" x1="24.5" x2="112.4209" y1="429.8906" y2="429.8906"/></g><!--class Asignatura--><g id="elem_Asignatura"><rect codeLine="12" fill="#F1F1F1" height="80.5938" id="Asignatura" rx="2.5" ry="2.5" style="stroke:#181818;stroke-width:0.5;" width="107.7969" x="148.5" y="357.2969"/><ellipse cx="163.5" cy="373.2969" fill="#ADD1B2" rx="11" ry="11" style="stroke:#181818;stroke-width:1.0;"/><path d="M166.4688,378.9375 Q165.8906,379.2344 165.25,379.375 Q164.6094,379.5313 163.9063,379.5313 Q161.4063,379.5313 160.0781,377.8906 Q158.7656,376.2344 158.7656,373.1094 Q158.7656,369.9844 160.0781,368.3281 Q161.4063,366.6719 163.9063,366.6719 Q164.6094,366.6719 165.25,366.8281 Q165.9063,366.9844 166.4688,367.2813 L166.4688,370 Q165.8438,369.4219 165.25,369.1563 Q164.6563,368.875 164.0313,368.875 Q162.6875,368.875 162,369.9531 Q161.3125,371.0156 161.3125,373.1094 Q161.3125,375.2031 162,376.2813 Q162.6875,377.3438 164.0313,377.3438 Q164.6563,377.3438 165.25,377.0781 Q165.8438,376.7969 166.4688,376.2188 L166.4688,378.9375 Z " fill="#000000"/><text fill="#000000" font-family="sans-serif" font-size="14" lengthAdjust="spacing" textLength="75.7969" x="177.5" y="378.1436">Asignatura</text><line style="stroke:#181818;stroke-width:0.5;" x1="149.5" x2="255.2969" y1="389.2969" y2="389.2969"/><rect fill="none" height="6" style="stroke:#C82930;stroke-width:1.0;" width="6" x="156.5" y="399.9453"/><text fill="#000000" font-family="sans-serif" font-size="14" lengthAdjust="spacing" textLength="12.7764" x="168.5" y="406.292">id</text><rect fill="none" height="6" style="stroke:#C82930;stroke-width:1.0;" width="6" x="156.5" y="416.2422"/><text fill="#000000" font-family="sans-serif" font-size="14" lengthAdjust="spacing" textLength="54.332" x="168.5" y="422.5889">nombre</text><line style="stroke:#181818;stroke-width:0.5;" x1="149.5" x2="255.2969" y1="429.8906" y2="429.8906"/></g><!--class Aula--><g id="elem_Aula"><rect codeLine="17" fill="#F1F1F1" height="64.2969" id="Aula" rx="2.5" ry="2.5" style="stroke:#181818;stroke-width:0.5;" width="80.3184" x="265.5" y="506.7969"/><ellipse cx="288.3297" cy="522.7969" fill="#ADD1B2" rx="11" ry="11" style="stroke:#181818;stroke-width:1.0;"/><path d="M291.2985,528.4375 Q290.7204,528.7344 290.0797,528.875 Q289.4391,529.0313 288.736,529.0313 Q286.236,529.0313 284.9079,527.3906 Q283.5954,525.7344 283.5954,522.6094 Q283.5954,519.4844 284.9079,517.8281 Q286.236,516.1719 288.736,516.1719 Q289.4391,516.1719 290.0797,516.3281 Q290.736,516.4844 291.2985,516.7813 L291.2985,519.5 Q290.6735,518.9219 290.0797,518.6563 Q289.486,518.375 288.861,518.375 Q287.5172,518.375 286.8297,519.4531 Q286.1422,520.5156 286.1422,522.6094 Q286.1422,524.7031 286.8297,525.7813 Q287.5172,526.8438 288.861,526.8438 Q289.486,526.8438 290.0797,526.5781 Q290.6735,526.2969 291.2985,525.7188 L291.2985,528.4375 Z " fill="#000000"/><text fill="#000000" font-family="sans-serif" font-size="14" lengthAdjust="spacing" textLength="30.9189" x="304.0697" y="527.6436">Aula</text><line style="stroke:#181818;stroke-width:0.5;" x1="266.5" x2="344.8184" y1="538.7969" y2="538.7969"/><rect fill="none" height="6" style="stroke:#C82930;stroke-width:1.0;" width="6" x="273.5" y="549.4453"/><text fill="#000000" font-family="sans-serif" font-size="14" lengthAdjust="spacing" textLength="54.3184" x="285.5" y="555.792">numero</text><line style="stroke:#181818;stroke-width:0.5;" x1="266.5" x2="344.8184" y1="563.0938" y2="563.0938"/></g><!--class Horario--><g id="elem_Horario"><rect codeLine="21" fill="#F1F1F1" height="129.4844" id="Horario" rx="2.5" ry="2.5" style="stroke:#181818;stroke-width:0.5;" width="100.7988" x="152" y="168.2969"/><ellipse cx="174.7221" cy="184.2969" fill="#ADD1B2" rx="11" ry="11" style="stroke:#181818;stroke-width:1.0;"/><path d="M177.6908,189.9375 Q177.1127,190.2344 176.4721,190.375 Q175.8314,190.5313 175.1283,190.5313 Q172.6283,190.5313 171.3002,188.8906 Q169.9877,187.2344 169.9877,184.1094 Q169.9877,180.9844 171.3002,179.3281 Q172.6283,177.6719 175.1283,177.6719 Q175.8314,177.6719 176.4721,177.8281 Q177.1283,177.9844 177.6908,178.2813 L177.6908,181 Q177.0658,180.4219 176.4721,180.1563 Q175.8783,179.875 175.2533,179.875 Q173.9096,179.875 173.2221,180.9531 Q172.5346,182.0156 172.5346,184.1094 Q172.5346,186.2031 173.2221,187.2813 Q173.9096,188.3438 175.2533,188.3438 Q175.8783,188.3438 176.4721,188.0781 Q177.0658,187.7969 177.6908,187.2188 L177.6908,189.9375 Z " fill="#000000"/><text fill="#000000" font-family="sans-serif" font-size="14" lengthAdjust="spacing" textLength="51.6387" x="190.4381" y="189.1436">Horario</text><line style="stroke:#181818;stroke-width:0.5;" x1="153" x2="251.7988" y1="200.2969" y2="200.2969"/><rect fill="none" height="6" style="stroke:#C82930;stroke-width:1.0;" width="6" x="160" y="210.9453"/><text fill="#000000" font-family="sans-serif" font-size="14" lengthAdjust="spacing" textLength="21.3555" x="172" y="217.292">dia</text><rect fill="none" height="6" style="stroke:#C82930;stroke-width:1.0;" width="6" x="160" y="227.2422"/><text fill="#000000" font-family="sans-serif" font-size="14" lengthAdjust="spacing" textLength="68.8174" x="172" y="233.5889">horaInicio</text><rect fill="none" height="6" style="stroke:#C82930;stroke-width:1.0;" width="6" x="160" y="243.5391"/><text fill="#000000" font-family="sans-serif" font-size="14" lengthAdjust="spacing" textLength="52.5889" x="172" y="249.8857">horaFin</text><rect fill="none" height="6" style="stroke:#C82930;stroke-width:1.0;" width="6" x="160" y="259.8359"/><text fill="#000000" font-family="sans-serif" font-size="14" lengthAdjust="spacing" textLength="74.7988" x="172" y="266.1826">asignatura</text><rect fill="none" height="6" style="stroke:#C82930;stroke-width:1.0;" width="6" x="160" y="276.1328"/><text fill="#000000" font-family="sans-serif" font-size="14" lengthAdjust="spacing" textLength="29.9209" x="172" y="282.4795">aula</text><line style="stroke:#181818;stroke-width:0.5;" x1="153" x2="251.7988" y1="289.7813" y2="289.7813"/></g><!--class ProfesorImparte--><g id="elem_ProfesorImparte"><rect codeLine="29" fill="#F1F1F1" height="80.5938" id="ProfesorImparte" rx="2.5" ry="2.5" style="stroke:#181818;stroke-width:0.5;" width="145.0117" x="7" y="498.2969"/><ellipse cx="22" cy="514.2969" fill="#ADD1B2" rx="11" ry="11" style="stroke:#181818;stroke-width:1.0;"/><path d="M24.9688,519.9375 Q24.3906,520.2344 23.75,520.375 Q23.1094,520.5313 22.4063,520.5313 Q19.9063,520.5313 18.5781,518.8906 Q17.2656,517.2344 17.2656,514.1094 Q17.2656,510.9844 18.5781,509.3281 Q19.9063,507.6719 22.4063,507.6719 Q23.1094,507.6719 23.75,507.8281 Q24.4063,507.9844 24.9688,508.2813 L24.9688,511 Q24.3438,510.4219 23.75,510.1563 Q23.1563,509.875 22.5313,509.875 Q21.1875,509.875 20.5,510.9531 Q19.8125,512.0156 19.8125,514.1094 Q19.8125,516.2031 20.5,517.2813 Q21.1875,518.3438 22.5313,518.3438 Q23.1563,518.3438 23.75,518.0781 Q24.3438,517.7969 24.9688,517.2188 L24.9688,519.9375 Z " fill="#000000"/><text fill="#000000" font-family="sans-serif" font-size="14" lengthAdjust="spacing" textLength="113.0117" x="36" y="519.1436">ProfesorImparte</text><line style="stroke:#181818;stroke-width:0.5;" x1="8" x2="151.0117" y1="530.2969" y2="530.2969"/><rect fill="none" height="6" style="stroke:#C82930;stroke-width:1.0;" width="6" x="15" y="540.9453"/><text fill="#000000" font-family="sans-serif" font-size="14" lengthAdjust="spacing" textLength="58.3652" x="27" y="547.292">profesor</text><rect fill="none" height="6" style="stroke:#C82930;stroke-width:1.0;" width="6" x="15" y="557.2422"/><text fill="#000000" font-family="sans-serif" font-size="14" lengthAdjust="spacing" textLength="74.7988" x="27" y="563.5889">asignatura</text><line style="stroke:#181818;stroke-width:0.5;" x1="8" x2="151.0117" y1="570.8906" y2="570.8906"/></g><!--class AsignacionAula--><g id="elem_AsignacionAula"><rect codeLine="34" fill="#F1F1F1" height="80.5938" id="AsignacionAula" rx="2.5" ry="2.5" style="stroke:#181818;stroke-width:0.5;" width="139.0439" x="136" y="639.2969"/><ellipse cx="151" cy="655.2969" fill="#ADD1B2" rx="11" ry="11" style="stroke:#181818;stroke-width:1.0;"/><path d="M153.9688,660.9375 Q153.3906,661.2344 152.75,661.375 Q152.1094,661.5313 151.4063,661.5313 Q148.9063,661.5313 147.5781,659.8906 Q146.2656,658.2344 146.2656,655.1094 Q146.2656,651.9844 147.5781,650.3281 Q148.9063,648.6719 151.4063,648.6719 Q152.1094,648.6719 152.75,648.8281 Q153.4063,648.9844 153.9688,649.2813 L153.9688,652 Q153.3438,651.4219 152.75,651.1563 Q152.1563,650.875 151.5313,650.875 Q150.1875,650.875 149.5,651.9531 Q148.8125,653.0156 148.8125,655.1094 Q148.8125,657.2031 149.5,658.2813 Q150.1875,659.3438 151.5313,659.3438 Q152.1563,659.3438 152.75,659.0781 Q153.3438,658.7969 153.9688,658.2188 L153.9688,660.9375 Z " fill="#000000"/><text fill="#000000" font-family="sans-serif" font-size="14" lengthAdjust="spacing" textLength="107.0439" x="165" y="660.1436">AsignacionAula</text><line style="stroke:#181818;stroke-width:0.5;" x1="137" x2="274.0439" y1="671.2969" y2="671.2969"/><rect fill="none" height="6" style="stroke:#C82930;stroke-width:1.0;" width="6" x="144" y="681.9453"/><text fill="#000000" font-family="sans-serif" font-size="14" lengthAdjust="spacing" textLength="74.7988" x="156" y="688.292">asignatura</text><rect fill="none" height="6" style="stroke:#C82930;stroke-width:1.0;" width="6" x="144" y="698.2422"/><text fill="#000000" font-family="sans-serif" font-size="14" lengthAdjust="spacing" textLength="29.9209" x="156" y="704.5889">aula</text><line style="stroke:#181818;stroke-width:0.5;" x1="137" x2="274.0439" y1="711.8906" y2="711.8906"/></g><!--link AdministradorDeHorarios to Horario--><g id="link_AdministradorDeHorarios_Horario"><path codeLine="39" d="M202.5,108.5669 C202.5,125.6669 202.5,147.5069 202.5,168.0269 " fill="none" id="AdministradorDeHorarios-Horario" style="stroke:#181818;stroke-width:1.0;"/></g><!--link Horario to Profesor--><g id="link_Horario_Profesor"><path codeLine="41" d="M151.84,295.4169 C134.79,316.1569 116.24,338.7169 100.98,357.2869 " fill="none" id="Horario-Profesor" style="stroke:#181818;stroke-width:1.0;"/></g><!--link Horario to Asignatura--><g id="link_Horario_Asignatura"><path codeLine="42" d="M202.5,297.7469 C202.5,317.7269 202.5,339.1869 202.5,356.9969 " fill="none" id="Horario-Asignatura" style="stroke:#181818;stroke-width:1.0;"/></g><!--link Horario to Aula--><g id="link_Horario_Aula"><path codeLine="43" d="M245.37,297.3569 C256.31,316.0069 267.07,336.8869 274.5,357.2969 C292.82,407.6469 300.45,469.9069 303.53,506.5969 " fill="none" id="Horario-Aula" style="stroke:#181818;stroke-width:1.0;"/></g><!--link Profesor to ProfesorImparte--><g id="link_Profesor_ProfesorImparte"><path codeLine="45" d="M71.65,438.6269 C73.13,457.2369 74.87,479.3469 76.35,497.9569 " fill="none" id="Profesor-ProfesorImparte" style="stroke:#181818;stroke-width:1.0;"/></g><!--link Asignatura to ProfesorImparte--><g id="link_Asignatura_ProfesorImparte"><path codeLine="46" d="M167.25,438.6269 C150.78,457.2369 131.22,479.3469 114.75,497.9569 " fill="none" id="Asignatura-ProfesorImparte" style="stroke:#181818;stroke-width:1.0;"/></g><!--link Asignatura to AsignacionAula--><g id="link_Asignatura_AsignacionAula"><path codeLine="47" d="M202.92,438.3169 C203.49,491.5369 204.5,585.6769 205.07,639.0269 " fill="none" id="Asignatura-AsignacionAula" style="stroke:#181818;stroke-width:1.0;"/></g><!--link Aula to AsignacionAula--><g id="link_Aula_AsignacionAula"><path codeLine="48" d="M283.06,570.9869 C268.55,591.1669 249.53,617.5969 233.96,639.2369 " fill="none" id="Aula-AsignacionAula" style="stroke:#181818;stroke-width:1.0;"/></g><!--link ProfesorImparte to AsignacionAula--><g id="link_ProfesorImparte_AsignacionAula"><path codeLine="49" d="M115.61,579.6269 C132.48,598.2369 152.52,620.3469 169.39,638.9569 " fill="none" id="ProfesorImparte-AsignacionAula" style="stroke:#181818;stroke-width:1.0;"/></g><!--SRC=[XL593i8m3Bpd5Vv07r614DpuWY46B6MfdFI4-3i1PMihH4_fpDYUiID7Gx1dl0jQ14smCnWem017BoZibRec9C2eBJiEKL1xsLDc0pmLf6y0apWig7gLihFu6mKlLUUylGZb7vp86DQ-wSV0TuTn5gmLh9UbJJkRfdAp9UaQPIkLrupvzKZCoV4rPMl0WLtnL1qK88tP1ZhP2ILIxJzbVDjbbItDTGldFmV-MldG7QV4J5XnrcDjdGlqCq3LqtIrEPNgpl2NNSPItsnRUBstZU8D]--></g></svg>
