<svg xmlns="http://www.w3.org/2000/svg" xmlns:xlink="http://www.w3.org/1999/xlink" contentStyleType="text/css" height="443px" preserveAspectRatio="none" style="width:317px;height:443px;background:#FFFFFF;" version="1.1" viewBox="0 0 317 443" width="317px" zoomAndPan="magnify"><defs/><g><!--class Usuario--><g id="elem_Usuario"><rect codeLine="1" fill="#F1F1F1" height="48" id="Usuario" rx="2.5" ry="2.5" style="stroke:#181818;stroke-width:0.5;" width="83.3098" x="156.04" y="134"/><ellipse cx="171.04" cy="150" fill="#ADD1B2" rx="11" ry="11" style="stroke:#181818;stroke-width:1.0;"/><path d="M174.0088,155.6406 Q173.4306,155.9375 172.79,156.0781 Q172.1494,156.2344 171.4463,156.2344 Q168.9463,156.2344 167.6181,154.5938 Q166.3056,152.9375 166.3056,149.8125 Q166.3056,146.6875 167.6181,145.0313 Q168.9463,143.375 171.4463,143.375 Q172.1494,143.375 172.79,143.5313 Q173.4463,143.6875 174.0088,143.9844 L174.0088,146.7031 Q173.3838,146.125 172.79,145.8594 Q172.1963,145.5781 171.5713,145.5781 Q170.2275,145.5781 169.54,146.6563 Q168.8525,147.7188 168.8525,149.8125 Q168.8525,151.9063 169.54,152.9844 Q170.2275,154.0469 171.5713,154.0469 Q172.1963,154.0469 172.79,153.7813 Q173.3838,153.5 174.0088,152.9219 L174.0088,155.6406 Z " fill="#000000"/><text fill="#000000" font-family="sans-serif" font-size="14" lengthAdjust="spacing" textLength="51.3098" x="185.04" y="155.432">Usuario</text><line style="stroke:#181818;stroke-width:0.5;" x1="157.04" x2="238.3498" y1="166" y2="166"/><line style="stroke:#181818;stroke-width:0.5;" x1="157.04" x2="238.3498" y1="174" y2="174"/></g><!--class Administrador--><g id="elem_Administrador"><rect codeLine="4" fill="#F1F1F1" height="48" id="Administrador" rx="2.5" ry="2.5" style="stroke:#181818;stroke-width:0.5;" width="126.7797" x="70.04" y="261"/><ellipse cx="85.04" cy="277" fill="#ADD1B2" rx="11" ry="11" style="stroke:#181818;stroke-width:1.0;"/><path d="M88.0087,282.6406 Q87.4306,282.9375 86.79,283.0781 Q86.1494,283.2344 85.4462,283.2344 Q82.9462,283.2344 81.6181,281.5938 Q80.3056,279.9375 80.3056,276.8125 Q80.3056,273.6875 81.6181,272.0313 Q82.9462,270.375 85.4462,270.375 Q86.1494,270.375 86.79,270.5313 Q87.4462,270.6875 88.0087,270.9844 L88.0087,273.7031 Q87.3837,273.125 86.79,272.8594 Q86.1962,272.5781 85.5712,272.5781 Q84.2275,272.5781 83.54,273.6563 Q82.8525,274.7188 82.8525,276.8125 Q82.8525,278.9063 83.54,279.9844 Q84.2275,281.0469 85.5712,281.0469 Q86.1962,281.0469 86.79,280.7813 Q87.3837,280.5 88.0087,279.9219 L88.0087,282.6406 Z " fill="#000000"/><text fill="#000000" font-family="sans-serif" font-size="14" lengthAdjust="spacing" textLength="94.7797" x="99.04" y="282.432">Administrador</text><line style="stroke:#181818;stroke-width:0.5;" x1="71.04" x2="195.8197" y1="293" y2="293"/><line style="stroke:#181818;stroke-width:0.5;" x1="71.04" x2="195.8197" y1="301" y2="301"/></g><!--class Alumni--><g id="elem_Alumni"><rect codeLine="7" fill="#F1F1F1" height="48" id="Alumni" rx="2.5" ry="2.5" style="stroke:#181818;stroke-width:0.5;" width="78.5638" x="232.04" y="261"/><ellipse cx="247.04" cy="277" fill="#ADD1B2" rx="11" ry="11" style="stroke:#181818;stroke-width:1.0;"/><path d="M250.0088,282.6406 Q249.4306,282.9375 248.79,283.0781 Q248.1494,283.2344 247.4463,283.2344 Q244.9463,283.2344 243.6181,281.5938 Q242.3056,279.9375 242.3056,276.8125 Q242.3056,273.6875 243.6181,272.0313 Q244.9463,270.375 247.4463,270.375 Q248.1494,270.375 248.79,270.5313 Q249.4463,270.6875 250.0088,270.9844 L250.0088,273.7031 Q249.3838,273.125 248.79,272.8594 Q248.1963,272.5781 247.5713,272.5781 Q246.2275,272.5781 245.54,273.6563 Q244.8525,274.7188 244.8525,276.8125 Q244.8525,278.9063 245.54,279.9844 Q246.2275,281.0469 247.5713,281.0469 Q248.1963,281.0469 248.79,280.7813 Q249.3838,280.5 250.0088,279.9219 L250.0088,282.6406 Z " fill="#000000"/><text fill="#000000" font-family="sans-serif" font-size="14" lengthAdjust="spacing" textLength="46.5638" x="261.04" y="282.432">Alumni</text><line style="stroke:#181818;stroke-width:0.5;" x1="233.04" x2="309.6038" y1="293" y2="293"/><line style="stroke:#181818;stroke-width:0.5;" x1="233.04" x2="309.6038" y1="301" y2="301"/></g><!--class Empresa--><g id="elem_Empresa"><rect codeLine="10" fill="#F1F1F1" height="48" id="Empresa" rx="2.5" ry="2.5" style="stroke:#181818;stroke-width:0.5;" width="89.7218" x="15.54" y="134"/><ellipse cx="30.54" cy="150" fill="#ADD1B2" rx="11" ry="11" style="stroke:#181818;stroke-width:1.0;"/><path d="M33.5088,155.6406 Q32.9306,155.9375 32.29,156.0781 Q31.6494,156.2344 30.9463,156.2344 Q28.4463,156.2344 27.1181,154.5938 Q25.8056,152.9375 25.8056,149.8125 Q25.8056,146.6875 27.1181,145.0313 Q28.4463,143.375 30.9463,143.375 Q31.6494,143.375 32.29,143.5313 Q32.9463,143.6875 33.5088,143.9844 L33.5088,146.7031 Q32.8838,146.125 32.29,145.8594 Q31.6963,145.5781 31.0713,145.5781 Q29.7275,145.5781 29.04,146.6563 Q28.3525,147.7188 28.3525,149.8125 Q28.3525,151.9063 29.04,152.9844 Q29.7275,154.0469 31.0713,154.0469 Q31.6963,154.0469 32.29,153.7813 Q32.8838,153.5 33.5088,152.9219 L33.5088,155.6406 Z " fill="#000000"/><text fill="#000000" font-family="sans-serif" font-size="14" lengthAdjust="spacing" textLength="57.7218" x="44.54" y="155.432">Empresa</text><line style="stroke:#181818;stroke-width:0.5;" x1="16.54" x2="104.2618" y1="166" y2="166"/><line style="stroke:#181818;stroke-width:0.5;" x1="16.54" x2="104.2618" y1="174" y2="174"/></g><!--class OfertaTrabajo--><g id="elem_OfertaTrabajo"><rect codeLine="13" fill="#F1F1F1" height="48" id="OfertaTrabajo" rx="2.5" ry="2.5" style="stroke:#181818;stroke-width:0.5;" width="124.3017" x="71.54" y="388"/><ellipse cx="86.54" cy="404" fill="#ADD1B2" rx="11" ry="11" style="stroke:#181818;stroke-width:1.0;"/><path d="M89.5087,409.6406 Q88.9306,409.9375 88.29,410.0781 Q87.6494,410.2344 86.9462,410.2344 Q84.4462,410.2344 83.1181,408.5938 Q81.8056,406.9375 81.8056,403.8125 Q81.8056,400.6875 83.1181,399.0313 Q84.4462,397.375 86.9462,397.375 Q87.6494,397.375 88.29,397.5313 Q88.9462,397.6875 89.5087,397.9844 L89.5087,400.7031 Q88.8837,400.125 88.29,399.8594 Q87.6962,399.5781 87.0712,399.5781 Q85.7275,399.5781 85.04,400.6563 Q84.3525,401.7188 84.3525,403.8125 Q84.3525,405.9063 85.04,406.9844 Q85.7275,408.0469 87.0712,408.0469 Q87.6962,408.0469 88.29,407.7813 Q88.8837,407.5 89.5087,406.9219 L89.5087,409.6406 Z " fill="#000000"/><text fill="#000000" font-family="sans-serif" font-size="14" lengthAdjust="spacing" textLength="92.3017" x="100.54" y="409.432">OfertaTrabajo</text><line style="stroke:#181818;stroke-width:0.5;" x1="72.54" x2="194.8417" y1="420" y2="420"/><line style="stroke:#181818;stroke-width:0.5;" x1="72.54" x2="194.8417" y1="428" y2="428"/></g><!--class Plataforma_acceso--><g id="elem_Plataforma_acceso"><rect codeLine="16" fill="#F1F1F1" height="48" id="Plataforma_acceso" rx="2.5" ry="2.5" style="stroke:#181818;stroke-width:0.5;" width="155.4375" x="120.04" y="7"/><ellipse cx="135.04" cy="23" fill="#ADD1B2" rx="11" ry="11" style="stroke:#181818;stroke-width:1.0;"/><path d="M138.0088,28.6406 Q137.4306,28.9375 136.79,29.0781 Q136.1494,29.2344 135.4463,29.2344 Q132.9463,29.2344 131.6181,27.5938 Q130.3056,25.9375 130.3056,22.8125 Q130.3056,19.6875 131.6181,18.0313 Q132.9463,16.375 135.4463,16.375 Q136.1494,16.375 136.79,16.5313 Q137.4463,16.6875 138.0088,16.9844 L138.0088,19.7031 Q137.3838,19.125 136.79,18.8594 Q136.1963,18.5781 135.5713,18.5781 Q134.2275,18.5781 133.54,19.6563 Q132.8525,20.7188 132.8525,22.8125 Q132.8525,24.9063 133.54,25.9844 Q134.2275,27.0469 135.5713,27.0469 Q136.1963,27.0469 136.79,26.7813 Q137.3838,26.5 138.0088,25.9219 L138.0088,28.6406 Z " fill="#000000"/><text fill="#000000" font-family="sans-serif" font-size="14" lengthAdjust="spacing" textLength="123.4375" x="149.04" y="28.432">Plataforma_acceso</text><line style="stroke:#181818;stroke-width:0.5;" x1="121.04" x2="274.4775" y1="39" y2="39"/><line style="stroke:#181818;stroke-width:0.5;" x1="121.04" x2="274.4775" y1="47" y2="47"/></g><!--reverse link Usuario to Administrador--><g id="link_Usuario_Administrador"><path codeLine="20" d="M177.4492,198.2433 C165.9592,220.6933 156.84,238.5 145.36,260.91 " fill="none" id="Usuario-backto-Administrador" style="stroke:#181818;stroke-width:1.0;"/><polygon fill="none" points="185.65,182.22,172.1081,195.5097,182.7903,200.9769,185.65,182.22" style="stroke:#181818;stroke-width:1.0;"/><text fill="#000000" font-family="sans-serif" font-size="13" lengthAdjust="spacing" textLength="43.355" x="169.54" y="226.897">hereda</text></g><!--reverse link Usuario to Alumni--><g id="link_Usuario_Alumni"><path codeLine="21" d="M220.4594,197.7094 C233.7494,220.1594 244.6,238.5 257.87,260.91 " fill="none" id="Usuario-backto-Alumni" style="stroke:#181818;stroke-width:1.0;"/><polygon fill="none" points="211.29,182.22,215.2963,200.7659,225.6226,194.6529,211.29,182.22" style="stroke:#181818;stroke-width:1.0;"/><text fill="#000000" font-family="sans-serif" font-size="13" lengthAdjust="spacing" textLength="43.355" x="239.54" y="226.897">hereda</text></g><!--link Empresa to OfertaTrabajo--><g id="link_Empresa_OfertaTrabajo"><path codeLine="22" d="M46.12,182.15 C29.29,212.32 6,266.25 24.54,309 C39.03,342.41 70.45,369.87 95.85,387.85 " fill="none" id="Empresa-OfertaTrabajo" style="stroke:#181818;stroke-width:1.0;stroke-dasharray:7.0,7.0;"/><text fill="#000000" font-family="sans-serif" font-size="13" lengthAdjust="spacing" textLength="26.234" x="25.54" y="290.397">crea</text></g><!--link Plataforma_acceso to Usuario--><g id="link_Plataforma_acceso_Usuario"><path codeLine="23" d="M197.54,55.22 C197.54,77.67 197.54,111.5 197.54,133.91 " fill="none" id="Plataforma_acceso-Usuario" style="stroke:#181818;stroke-width:1.0;"/><text fill="#000000" font-family="sans-serif" font-size="13" lengthAdjust="spacing" textLength="56.966" x="198.54" y="99.897">autentica</text></g><!--link Empresa to Administrador--><g id="link_Empresa_Administrador"><path codeLine="24" d="M72.58,182.26 C80.08,196.49 90.07,214.96 99.54,231 C105.38,240.88 108.8703,246.5492 114.8303,255.7192 " fill="none" id="Empresa-to-Administrador" style="stroke:#181818;stroke-width:1.0;"/><polygon fill="#181818" points="118.1,260.75,116.5493,251.024,115.3752,256.5577,109.8415,255.3836,118.1,260.75" style="stroke:#181818;stroke-width:1.0;"/><text fill="#000000" font-family="sans-serif" font-size="13" lengthAdjust="spacing" textLength="52.351" x="100.54" y="226.897">contacta</text></g><!--link Administrador to OfertaTrabajo--><g id="link_Administrador_OfertaTrabajo"><path codeLine="25" d="M133.54,309.22 C133.54,331.67 133.54,365.5 133.54,387.91 " fill="none" id="Administrador-OfertaTrabajo" style="stroke:#181818;stroke-width:1.0;"/><text fill="#000000" font-family="sans-serif" font-size="13" lengthAdjust="spacing" textLength="35.893" x="134.54" y="353.897">valida</text></g><!--link Alumni to OfertaTrabajo--><g id="link_Alumni_OfertaTrabajo"><path codeLine="26" d="M245.91,309.22 C221.12,331.67 183.78,365.5 159.04,387.91 " fill="none" id="Alumni-OfertaTrabajo" style="stroke:#181818;stroke-width:1.0;"/><text fill="#000000" font-family="sans-serif" font-size="13" lengthAdjust="spacing" textLength="35.789" x="211.54" y="353.897">busca</text></g><!--SRC=[ROux3i8m44Hxdy8NS0uG8IGAQYYWHfED8upyGMkR1hWx4IIGEBGpepUFB6AKnvZ19iYxU0f1xsZJEkDDJ8msyAomsNapJRRkoZfY6kqwpGa7HeFB3BktIEW2Evn0fEDGYj5WzL2g-AxbMRDkKMm-6jzobAYguhoMn1fYUTn3Hc8jaPFsoT0FfDHw8KB19r22c1SzgVoymPhUQh3yCsXo9Bm0]--></g></svg>