<svg xmlns="http://www.w3.org/2000/svg" xmlns:xlink="http://www.w3.org/1999/xlink" contentStyleType="text/css" height="1185px" preserveAspectRatio="none" style="width:516px;height:1185px;background:#FFFFFF;" version="1.1" viewBox="0 0 516 1185" width="516px" zoomAndPan="magnify"><defs/><g><ellipse cx="247.5" cy="16" fill="#222222" rx="10" ry="10" style="stroke:#222222;stroke-width:1.0;"/><g id="Creada"><rect fill="#F1F1F1" height="50" rx="12.5" ry="12.5" style="stroke:#181818;stroke-width:0.5;" width="66.8438" x="214" y="105"/><line style="stroke:#181818;stroke-width:0.5;" x1="214" x2="280.8438" y1="134.0679" y2="134.0679"/><text fill="#000000" font-family="sans-serif" font-size="14" lengthAdjust="spacing" textLength="46.8438" x="224" y="124.9659">Creada</text></g><g id="EnValidacion"><rect fill="#F1F1F1" height="50" rx="12.5" ry="12.5" style="stroke:#181818;stroke-width:0.5;" width="103.8317" x="195.5" y="234"/><line style="stroke:#181818;stroke-width:0.5;" x1="195.5" x2="299.3317" y1="263.0679" y2="263.0679"/><text fill="#000000" font-family="sans-serif" font-size="14" lengthAdjust="spacing" textLength="83.8317" x="205.5" y="253.9659">EnValidacion</text></g><g id="Publicada"><rect fill="#F1F1F1" height="50" rx="12.5" ry="12.5" style="stroke:#181818;stroke-width:0.5;" width="83.9938" x="98.5" y="363"/><line style="stroke:#181818;stroke-width:0.5;" x1="98.5" x2="182.4938" y1="392.0679" y2="392.0679"/><text fill="#000000" font-family="sans-serif" font-size="14" lengthAdjust="spacing" textLength="63.9938" x="108.5" y="382.9659">Publicada</text></g><g id="Invalidada"><rect fill="#F1F1F1" height="50" rx="12.5" ry="12.5" style="stroke:#181818;stroke-width:0.5;" width="88.5157" x="311" y="443"/><line style="stroke:#181818;stroke-width:0.5;" x1="311" x2="399.5157" y1="472.0679" y2="472.0679"/><text fill="#000000" font-family="sans-serif" font-size="14" lengthAdjust="spacing" textLength="68.5157" x="321" y="462.9659">Invalidada</text></g><path d="M19.5,523 L271.6491,523 A12.5,12.5 0 0 1 284.1491,535.5 L284.1491,552.0679 L7,552.0679 L7,535.5 A12.5,12.5 0 0 1 19.5,523 " fill="#F1F1F1" style="stroke:#F1F1F1;stroke-width:1.0;"/><rect fill="none" height="444.0679" rx="12.5" ry="12.5" style="stroke:#181818;stroke-width:0.5;" width="277.1491" x="7" y="523"/><line style="stroke:#181818;stroke-width:0.5;" x1="7" x2="284.1491" y1="552.0679" y2="552.0679"/><text fill="#000000" font-family="sans-serif" font-size="14" lengthAdjust="spacing" textLength="143.1075" x="74.0208" y="542.9659">Proceso de Aplicaci&#243;n</text><ellipse cx="113" cy="573.0679" fill="#222222" rx="10" ry="10" style="stroke:#222222;stroke-width:1.0;"/><g id="Aplicacion.Enviada"><rect fill="#F1F1F1" height="50" rx="12.5" ry="12.5" style="stroke:#181818;stroke-width:0.5;" width="71.4778" x="77.5" y="638.0679"/><line style="stroke:#181818;stroke-width:0.5;" x1="77.5" x2="148.9778" y1="667.1358" y2="667.1358"/><text fill="#000000" font-family="sans-serif" font-size="14" lengthAdjust="spacing" textLength="51.4778" x="87.5" y="658.0339">Enviada</text></g><g id="Aplicacion.EnRevision"><rect fill="#F1F1F1" height="50" rx="12.5" ry="12.5" style="stroke:#181818;stroke-width:0.5;" width="91.2037" x="67.5" y="743.0679"/><line style="stroke:#181818;stroke-width:0.5;" x1="67.5" x2="158.7037" y1="772.1358" y2="772.1358"/><text fill="#000000" font-family="sans-serif" font-size="14" lengthAdjust="spacing" textLength="71.2037" x="77.5" y="763.0339">EnRevision</text></g><g id="Aplicacion.Aceptada"><rect fill="#F1F1F1" height="50" rx="12.5" ry="12.5" style="stroke:#181818;stroke-width:0.5;" width="81.5438" x="19" y="848.0679"/><line style="stroke:#181818;stroke-width:0.5;" x1="19" x2="100.5438" y1="877.1358" y2="877.1358"/><text fill="#000000" font-family="sans-serif" font-size="14" lengthAdjust="spacing" textLength="61.5438" x="29" y="868.0339">Aceptada</text></g><g id="Aplicacion.Rechazada"><rect fill="#F1F1F1" height="50" rx="12.5" ry="12.5" style="stroke:#181818;stroke-width:0.5;" width="90.7277" x="125.5" y="848.0679"/><line style="stroke:#181818;stroke-width:0.5;" x1="125.5" x2="216.2277" y1="877.1358" y2="877.1358"/><text fill="#000000" font-family="sans-serif" font-size="14" lengthAdjust="spacing" textLength="70.7277" x="135.5" y="868.0339">Rechazada</text></g><ellipse cx="112" cy="946.0679" fill="none" rx="11" ry="11" style="stroke:#222222;stroke-width:1.0;"/><ellipse cx="112" cy="946.0679" fill="#222222" rx="6" ry="6" style="stroke:#222222;stroke-width:1.0;"/><!--link *start*Aplicacion to Enviada--><g id="link_*start*Aplicacion_Enviada"><path d="M113,583.1579 C113,595.9779 113,613.8379 113,631.9779 " fill="none" id="*start*Aplicacion-to-Enviada" style="stroke:#181818;stroke-width:1.0;"/><polygon fill="#181818" points="113,637.9779,117,628.9779,113,632.9779,109,628.9779,113,637.9779" style="stroke:#181818;stroke-width:1.0;"/><text fill="#000000" font-family="sans-serif" font-size="13" lengthAdjust="spacing" textLength="143.6371" x="114" y="615.9649">Alumni env&#237;a aplicaci&#243;n</text></g><!--link Enviada to EnRevision--><g id="link_Enviada_EnRevision"><path d="M113,688.2179 C113,704.6279 113,720.2579 113,736.7179 " fill="none" id="Enviada-to-EnRevision" style="stroke:#181818;stroke-width:1.0;"/><polygon fill="#181818" points="113,742.7179,117,733.7179,113,737.7179,109,733.7179,113,742.7179" style="stroke:#181818;stroke-width:1.0;"/><text fill="#000000" font-family="sans-serif" font-size="13" lengthAdjust="spacing" textLength="157.5601" x="114" y="720.9649">Empresa revisa aplicaci&#243;n</text></g><!--link EnRevision to Aceptada--><g id="link_EnRevision_Aceptada"><path d="M67.48,791.2479 C60.45,796.7279 54.16,803.2979 50,811.0679 C43.97,822.3279 43.9541,830.5606 47.5441,842.2906 " fill="none" id="EnRevision-to-Aceptada" style="stroke:#181818;stroke-width:1.0;"/><polygon fill="#181818" points="49.3,848.0279,50.491,838.2513,47.8367,843.2468,42.8412,840.5926,49.3,848.0279" style="stroke:#181818;stroke-width:1.0;"/><text fill="#000000" font-family="sans-serif" font-size="13" lengthAdjust="spacing" textLength="103.3241" x="51" y="825.9649">Alumni aceptado</text></g><!--link EnRevision to Rechazada--><g id="link_EnRevision_Rechazada"><path d="M141.61,793.4479 C146.64,798.8279 151.41,804.8079 155,811.0679 C161.48,822.3679 164.2301,830.4631 166.5601,842.1831 " fill="none" id="EnRevision-to-Rechazada" style="stroke:#181818;stroke-width:1.0;"/><polygon fill="#181818" points="167.73,848.0679,169.8983,838.4607,166.7551,843.1639,162.0519,840.0206,167.73,848.0679" style="stroke:#181818;stroke-width:1.0;"/><text fill="#000000" font-family="sans-serif" font-size="13" lengthAdjust="spacing" textLength="110.1491" x="164" y="825.9649">Alumni rechazado</text></g><!--link Aceptada to *end*Aplicacion--><g id="link_Aceptada_*end*Aplicacion"><path d="M77.6,898.1079 C87.39,911.4579 95.4085,922.3946 102.3185,931.8446 " fill="none" id="Aceptada-to-*end*Aplicacion" style="stroke:#181818;stroke-width:1.0;"/><polygon fill="#181818" points="105.86,936.6879,103.7766,927.0619,102.9087,932.6518,97.3189,931.784,105.86,936.6879" style="stroke:#181818;stroke-width:1.0;"/></g><!--link Rechazada to *end*Aplicacion--><g id="link_Rechazada_*end*Aplicacion"><path d="M151.03,898.1079 C139.79,911.6179 130.3372,923.0154 122.5172,932.4154 " fill="none" id="Rechazada-to-*end*Aplicacion" style="stroke:#181818;stroke-width:1.0;"/><polygon fill="#181818" points="118.68,937.0279,127.5109,932.6673,121.8777,933.1841,121.3608,927.5509,118.68,937.0279" style="stroke:#181818;stroke-width:1.0;"/></g><g id="Cerrada"><rect fill="#F1F1F1" height="50" rx="12.5" ry="12.5" style="stroke:#181818;stroke-width:0.5;" width="72.6258" x="214" y="1046"/><line style="stroke:#181818;stroke-width:0.5;" x1="214" x2="286.6258" y1="1075.0679" y2="1075.0679"/><text fill="#000000" font-family="sans-serif" font-size="14" lengthAdjust="spacing" textLength="52.6258" x="224" y="1065.9659">Cerrada</text></g><ellipse cx="250.5" cy="1168" fill="none" rx="11" ry="11" style="stroke:#222222;stroke-width:1.0;"/><ellipse cx="250.5" cy="1168" fill="#222222" rx="6" ry="6" style="stroke:#222222;stroke-width:1.0;"/><!--link *start* to Creada--><g id="link_*start*_Creada"><path d="M247.5,26.17 C247.5,43.2 247.5,74.23 247.5,98.89 " fill="none" id="*start*-to-Creada" style="stroke:#181818;stroke-width:1.0;"/><polygon fill="#181818" points="247.5,104.89,251.5,95.89,247.5,99.89,243.5,95.89,247.5,104.89" style="stroke:#181818;stroke-width:1.0;"/><text fill="#000000" font-family="sans-serif" font-size="13" lengthAdjust="spacing" textLength="172.3021" x="248.5" y="70.897">Empresa crea OfertaTrabajo</text></g><!--link Creada to EnValidacion--><g id="link_Creada_EnValidacion"><path d="M247.5,155.19 C247.5,177.78 247.5,205.33 247.5,227.9 " fill="none" id="Creada-to-EnValidacion" style="stroke:#181818;stroke-width:1.0;"/><polygon fill="#181818" points="247.5,233.9,251.5,224.9,247.5,228.9,243.5,224.9,247.5,233.9" style="stroke:#181818;stroke-width:1.0;"/><text fill="#000000" font-family="sans-serif" font-size="13" lengthAdjust="spacing" textLength="113.3211" x="248.5" y="199.897">Enviar a validaci&#243;n</text></g><!--link EnValidacion to Publicada--><g id="link_EnValidacion_Publicada"><path d="M195.31,271.86 C172.85,279.83 148.76,292.89 135.5,314 C126.45,328.42 126.7911,341.9176 130.5611,357.0676 " fill="none" id="EnValidacion-to-Publicada" style="stroke:#181818;stroke-width:1.0;"/><polygon fill="#181818" points="132.01,362.89,133.7183,353.1904,130.8026,358.038,125.9551,355.1223,132.01,362.89" style="stroke:#181818;stroke-width:1.0;"/><text fill="#000000" font-family="sans-serif" font-size="13" lengthAdjust="spacing" textLength="176.0592" x="136.5" y="328.897">Administrador publica oferta</text></g><!--link EnValidacion to Invalidada--><g id="link_EnValidacion_Invalidada"><path d="M288.1,284.08 C299.05,292.33 309.95,302.43 317.5,314 C343.69,354.1 351.3559,404.8888 353.8859,436.8088 " fill="none" id="EnValidacion-to-Invalidada" style="stroke:#181818;stroke-width:1.0;"/><polygon fill="#181818" points="354.36,442.79,357.6364,433.5021,353.9649,437.8056,349.6614,434.1342,354.36,442.79" style="stroke:#181818;stroke-width:1.0;"/><text fill="#000000" font-family="sans-serif" font-size="13" lengthAdjust="spacing" textLength="179.0751" x="329.5" y="328.897">Administrador invalida oferta</text></g><!--link Publicada to Aplicacion--><g id="link_Publicada_Aplicacion"><path d="M140.84,413.12 C141.18,437.62 141.6764,472.2106 142.2964,516.7106 " fill="none" id="Publicada-to-Aplicacion" style="stroke:#181818;stroke-width:1.0;"/><polygon fill="#181818" points="142.38,522.71,146.2542,513.6551,142.3103,517.7105,138.255,513.7666,142.38,522.71" style="stroke:#181818;stroke-width:1.0;"/><text fill="#000000" font-family="sans-serif" font-size="13" lengthAdjust="spacing" textLength="137.6181" x="143.5" y="473.397">Alumni pueden aplicar</text></g><!--link Aplicacion to Cerrada--><g id="link_Aplicacion_Cerrada"><path d="M217.13,967.04 C227.41,998.75 234.6982,1021.2529 240.8082,1040.0829 " fill="none" id="Aplicacion-to-Cerrada" style="stroke:#181818;stroke-width:1.0;"/><polygon fill="#181818" points="242.66,1045.79,243.6869,1035.9948,241.1168,1041.0341,236.0775,1038.464,242.66,1045.79" style="stroke:#181818;stroke-width:1.0;"/><text fill="#000000" font-family="sans-serif" font-size="13" lengthAdjust="spacing" textLength="89.5831" x="234.5" y="1011.897">Oferta cerrada</text></g><!--link Invalidada to Cerrada--><g id="link_Invalidada_Cerrada"><path d="M361.74,493.19 C381.1,573.84 433.08,838.38 332.5,1016 C322.51,1033.65 309.4036,1043.7924 292.5536,1052.5524 " fill="none" id="Invalidada-to-Cerrada" style="stroke:#181818;stroke-width:1.0;"/><polygon fill="#181818" points="287.23,1055.32,297.0604,1054.7176,291.6663,1053.0137,293.3703,1047.6195,287.23,1055.32" style="stroke:#181818;stroke-width:1.0;"/><text fill="#000000" font-family="sans-serif" font-size="13" lengthAdjust="spacing" textLength="105.2611" x="392.5" y="750.397">Oferta invalidada</text></g><!--link Cerrada to *end*--><g id="link_Cerrada_*end*"><path d="M250.5,1096.46 C250.5,1116.04 250.5,1136.49 250.5,1150.8 " fill="none" id="Cerrada-to-*end*" style="stroke:#181818;stroke-width:1.0;"/><polygon fill="#181818" points="250.5,1156.8,254.5,1147.8,250.5,1151.8,246.5,1147.8,250.5,1156.8" style="stroke:#181818;stroke-width:1.0;"/></g><!--SRC=[RLAzJiCm4Dxz5AUEI7q11gG8TM2Ygb2NYk5g7y8eiQEpcm748p7n27qnR9-J9YBU_DttuplVwUuLjji7U6H2Wt0Fkwvd2WWw0V3yHXpnXV6C7rwfIihydJjYQmrgwrrMkS4Y0y9GqUklKmjE5kqlvzPgoMbCPvqDaT5uXbugu4lWV-MJ4-CLgQsbKQjkALdPzFbIdzcqbyxPb4Q6760fiL8XOYJOxDbh2XuCJQhKnWOmp5s-5AHpgdChZSkhn9lSSFt1wYrpoFoH9ve33JRKoTLvSuRMT1EtTAEfZuiy5CIliG-at_5pGUSA2N-oo-pKKW5lgX7zLcesWB8kn2o-iYAW1L2pZrhbsQcUrgaMQymV]--></g></svg>