<svg xmlns="http://www.w3.org/2000/svg" xmlns:xlink="http://www.w3.org/1999/xlink" contentStyleType="text/css" height="417px" preserveAspectRatio="none" style="width:624px;height:417px;background:#FFFFFF;" version="1.1" viewBox="0 0 624 417" width="624px" zoomAndPan="magnify"><defs/><g><g id="elem_OfertaTrabajo"><rect fill="#F1F1F1" height="88.2717" style="stroke:#181818;stroke-width:0.5;" width="300.3989" x="73" y="7"/><text fill="#000000" font-family="sans-serif" font-size="14" lengthAdjust="spacing" textLength="92.3017" x="177.0486" y="23.9659">OfertaTrabajo</text><line style="stroke:#181818;stroke-width:0.5;" x1="74" x2="372.3989" y1="30.0679" y2="30.0679"/><text fill="#000000" font-family="sans-serif" font-size="14" lengthAdjust="spacing" textLength="194.4453" x="79" y="49.0339">titulo = "Desarrollador Junior"</text><text fill="#000000" font-family="sans-serif" font-size="14" lengthAdjust="spacing" textLength="288.3989" x="79" y="68.1018">descripcion = "Puesto de desarrollo en Java"</text><text fill="#000000" font-family="sans-serif" font-size="14" lengthAdjust="spacing" textLength="118.6495" x="79" y="87.1697">salario = "30000&#8364;"</text></g><g id="elem_Administrador"><rect fill="#F1F1F1" height="69.2038" style="stroke:#181818;stroke-width:0.5;" width="232.5131" x="106.5" y="183.5"/><text fill="#000000" font-family="sans-serif" font-size="14" lengthAdjust="spacing" textLength="94.7797" x="175.3667" y="200.4659">Administrador</text><line style="stroke:#181818;stroke-width:0.5;" x1="107.5" x2="338.0131" y1="206.5679" y2="206.5679"/><text fill="#000000" font-family="sans-serif" font-size="14" lengthAdjust="spacing" textLength="120.4835" x="112.5" y="225.5339">nombre = "Carlos"</text><text fill="#000000" font-family="sans-serif" font-size="14" lengthAdjust="spacing" textLength="220.5131" x="112.5" y="244.6018">email = "carlos@universidad.edu"</text></g><g id="elem_Alumni"><rect fill="#F1F1F1" height="88.2717" style="stroke:#181818;stroke-width:0.5;" width="242.6771" x="374.5" y="174"/><text fill="#000000" font-family="sans-serif" font-size="14" lengthAdjust="spacing" textLength="46.5638" x="472.5566" y="190.9659">Alumni</text><line style="stroke:#181818;stroke-width:0.5;" x1="375.5" x2="616.1771" y1="197.0679" y2="197.0679"/><text fill="#000000" font-family="sans-serif" font-size="14" lengthAdjust="spacing" textLength="117.6275" x="380.5" y="216.0339">nombre = "Mario"</text><text fill="#000000" font-family="sans-serif" font-size="14" lengthAdjust="spacing" textLength="230.6771" x="380.5" y="235.1018">email = "MarioDelRio@alumni.edu"</text><text fill="#000000" font-family="sans-serif" font-size="14" lengthAdjust="spacing" textLength="159.5154" x="380.5" y="254.1697">tipo = "Antiguo Alumno"</text></g><g id="elem_Empresa"><rect fill="#F1F1F1" height="69.2038" style="stroke:#181818;stroke-width:0.5;" width="157.6134" x="7" y="341"/><text fill="#000000" font-family="sans-serif" font-size="14" lengthAdjust="spacing" textLength="57.7218" x="56.9458" y="357.9659">Empresa</text><line style="stroke:#181818;stroke-width:0.5;" x1="8" x2="163.6134" y1="364.0679" y2="364.0679"/><text fill="#000000" font-family="sans-serif" font-size="14" lengthAdjust="spacing" textLength="145.6134" x="13" y="383.0339">nombre = "Tech Corp"</text><text fill="#000000" font-family="sans-serif" font-size="14" lengthAdjust="spacing" textLength="138.2634" x="13" y="402.1018">direccion = "Calle 13"</text></g><g id="elem_Plataforma_acceso"><rect fill="#F1F1F1" height="39.0679" style="stroke:#181818;stroke-width:0.5;" width="137.4375" x="226.5" y="356"/><text fill="#000000" font-family="sans-serif" font-size="14" lengthAdjust="spacing" textLength="123.4375" x="233.5" y="372.9659">Plataforma_acceso</text><line style="stroke:#181818;stroke-width:0.5;" x1="227.5" x2="362.9375" y1="379.0679" y2="379.0679"/></g><!--reverse link OfertaTrabajo to Alumni--><g id="link_OfertaTrabajo_Alumni"><path codeLine="28" d="M299.5052,98.2431 C339.6352,122.4931 384.43,149.57 424.57,173.83 " fill="none" id="OfertaTrabajo-backto-Alumni" style="stroke:#181818;stroke-width:1.0;"/><polygon fill="#181818" points="294.37,95.14,300.0041,103.2182,298.6494,97.726,304.1416,96.3712,294.37,95.14" style="stroke:#181818;stroke-width:1.0;"/><text fill="#000000" font-family="sans-serif" font-size="13" lengthAdjust="spacing" textLength="35.789" x="369" y="139.897">busca</text></g><!--reverse link OfertaTrabajo to Administrador--><g id="link_OfertaTrabajo_Administrador"><path codeLine="29" d="M223,101.35 C223,128.85 223,157.9 223,183.31 " fill="none" id="OfertaTrabajo-backto-Administrador" style="stroke:#181818;stroke-width:1.0;"/><polygon fill="#181818" points="223,95.35,219,104.35,223,100.35,227,104.35,223,95.35" style="stroke:#181818;stroke-width:1.0;"/><text fill="#000000" font-family="sans-serif" font-size="13" lengthAdjust="spacing" textLength="35.893" x="224" y="139.897">valida</text></g><!--reverse link OfertaTrabajo to Empresa--><g id="link_OfertaTrabajo_Empresa"><path codeLine="30" d="M132.1948,98.3288 C102.4248,118.0088 77.42,141.08 61,174 C34.15,227.84 54.49,299.52 70.85,340.98 " fill="none" id="OfertaTrabajo-backto-Empresa" style="stroke:#181818;stroke-width:1.0;stroke-dasharray:7.0,7.0;"/><polygon fill="#181818" points="137.2,95.02,127.4864,96.6464,133.029,97.7773,131.8981,103.32,137.2,95.02" style="stroke:#181818;stroke-width:1.0;"/><text fill="#000000" font-family="sans-serif" font-size="13" lengthAdjust="spacing" textLength="26.234" x="62" y="223.397">crea</text></g><!--reverse link Alumni to Plataforma_acceso--><g id="link_Alumni_Plataforma_acceso"><path codeLine="31" d="M435.5344,265.7814 C395.6844,296.6114 348.77,332.9 319.01,355.92 " fill="none" id="Alumni-backto-Plataforma_acceso" style="stroke:#181818;stroke-width:1.0;"/><polygon fill="#181818" points="440.28,262.11,430.714,264.4534,436.3253,265.1695,435.6092,270.7809,440.28,262.11" style="stroke:#181818;stroke-width:1.0;"/><text fill="#000000" font-family="sans-serif" font-size="13" lengthAdjust="spacing" textLength="56.966" x="403" y="306.897">autentica</text></g><!--reverse link Administrador to Plataforma_acceso--><g id="link_Administrador_Plataforma_acceso"><path codeLine="32" d="M241.1409,258.1847 C255.7809,289.8047 274.61,330.46 286.39,355.9 " fill="none" id="Administrador-backto-Plataforma_acceso" style="stroke:#181818;stroke-width:1.0;"/><polygon fill="#181818" points="238.62,252.74,238.7715,262.5877,240.7207,257.2773,246.0312,259.2265,238.62,252.74" style="stroke:#181818;stroke-width:1.0;"/><text fill="#000000" font-family="sans-serif" font-size="13" lengthAdjust="spacing" textLength="56.966" x="267" y="306.897">autentica</text></g><!--reverse link Administrador to Empresa--><g id="link_Administrador_Empresa"><path codeLine="33" d="M189.3034,257.2417 C166.3234,283.3217 138.63,314.76 115.67,340.82 " fill="none" id="Administrador-backto-Empresa" style="stroke:#181818;stroke-width:1.0;"/><polygon fill="#181818" points="193.27,252.74,184.3189,256.8482,189.9645,256.4915,190.3212,262.1371,193.27,252.74" style="stroke:#181818;stroke-width:1.0;"/><text fill="#000000" font-family="sans-serif" font-size="13" lengthAdjust="spacing" textLength="52.351" x="160" y="306.897">contacta</text></g><!--SRC=[dP5DJWCn38NtSmgh-rQWxaOWjMhPL49Kg7laoRYGAXEFd6GsY0tduLISXFoqgDEo8ald-VFpCpS7KXwUzYGUTu8D7XZUAuZFQnyCmprCrkHGX8t1bWKsmMgMITQqv9JeNccsIRWDv3p7QleeBGnaOOC3bWQ71aLdwlmclk_FhqdrKLLSV2pRJbljlEH9nOVbhX5A7IiKmww0g4DjKb7buYAQ6aYSRh6TKHj6K1CwgwzeZyd81IpNrcIUDIymjnLOoQFFlfVMwzV01SldWnwwNkBULvDsfDvWnT8VGzD2wXJP2eqXk9sVSxO6FUvPEdn1fSYbYyJVQdobk-dqj5eDJN0A_n2C4wrXG1CZkXJEPh_UQr12M1t12N7jfWOCdc8CSUJuOl_Hdqrcwr5vh7u0]--></g></svg>