<svg xmlns="http://www.w3.org/2000/svg" xmlns:xlink="http://www.w3.org/1999/xlink" contentStyleType="text/css" height="562px" preserveAspectRatio="none" style="width:1866px;height:562px;background:#FFFFFF;" version="1.1" viewBox="0 0 1866 562" width="1866px" zoomAndPan="magnify"><defs/><g><path d="M19.5,59.5 L520.7028,59.5 A12.5,12.5 0 0 1 533.2028,72 L533.2028,88.5679 L7,88.5679 L7,72 A12.5,12.5 0 0 1 19.5,59.5 " fill="#F1F1F1" style="stroke:#F1F1F1;stroke-width:1.0;"/><rect fill="none" height="444.0679" rx="12.5" ry="12.5" style="stroke:#181818;stroke-width:0.5;" width="526.2028" x="7" y="59.5"/><line style="stroke:#181818;stroke-width:0.5;" x1="7" x2="533.2028" y1="88.5679" y2="88.5679"/><text fill="#000000" font-family="sans-serif" font-size="14" lengthAdjust="spacing" textLength="92.3017" x="223.9506" y="79.4659">OfertaTrabajo</text><ellipse cx="263.0337" cy="109.5679" fill="#222222" rx="10" ry="10" style="stroke:#222222;stroke-width:1.0;"/><g id="OfertaTrabajo.Pendiente"><rect fill="#F1F1F1" height="50" rx="12.5" ry="12.5" style="stroke:#181818;stroke-width:0.5;" width="86.7377" x="219.5337" y="174.5679"/><line style="stroke:#181818;stroke-width:0.5;" x1="219.5337" x2="306.2715" y1="203.6358" y2="203.6358"/><text fill="#000000" font-family="sans-serif" font-size="14" lengthAdjust="spacing" textLength="66.7377" x="229.5337" y="194.5339">Pendiente</text></g><g id="OfertaTrabajo.Disponible"><rect fill="#F1F1F1" height="50" rx="12.5" ry="12.5" style="stroke:#181818;stroke-width:0.5;" width="89.9997" x="119.0337" y="279.5679"/><line style="stroke:#181818;stroke-width:0.5;" x1="119.0337" x2="209.0335" y1="308.6358" y2="308.6358"/><text fill="#000000" font-family="sans-serif" font-size="14" lengthAdjust="spacing" textLength="69.9997" x="129.0337" y="299.5339">Disponible</text></g><g id="OfertaTrabajo.Invalidada"><rect fill="#F1F1F1" height="50" rx="12.5" ry="12.5" style="stroke:#181818;stroke-width:0.5;" width="88.5157" x="157.5337" y="384.5679"/><line style="stroke:#181818;stroke-width:0.5;" x1="157.5337" x2="246.0495" y1="413.6358" y2="413.6358"/><text fill="#000000" font-family="sans-serif" font-size="14" lengthAdjust="spacing" textLength="68.5157" x="167.5337" y="404.5339">Invalidada</text></g><g id="OfertaTrabajo.Cerrada"><rect fill="#F1F1F1" height="50" rx="12.5" ry="12.5" style="stroke:#181818;stroke-width:0.5;" width="72.6258" x="30.5337" y="384.5679"/><line style="stroke:#181818;stroke-width:0.5;" x1="30.5337" x2="103.1595" y1="413.6358" y2="413.6358"/><text fill="#000000" font-family="sans-serif" font-size="14" lengthAdjust="spacing" textLength="52.6258" x="40.5337" y="404.5339">Cerrada</text></g><ellipse cx="116.0337" cy="482.5679" fill="none" rx="11" ry="11" style="stroke:#222222;stroke-width:1.0;"/><ellipse cx="116.0337" cy="482.5679" fill="#222222" rx="6" ry="6" style="stroke:#222222;stroke-width:1.0;"/><!--link *start*OfertaTrabajo to Pendiente--><g id="link_*start*OfertaTrabajo_Pendiente"><path d="M263.0337,119.6579 C263.0337,132.4779 263.0337,150.3379 263.0337,168.4779 " fill="none" id="*start*OfertaTrabajo-to-Pendiente" style="stroke:#181818;stroke-width:1.0;"/><polygon fill="#181818" points="263.0337,174.4779,267.0337,165.4779,263.0337,169.4779,259.0337,165.4779,263.0337,174.4779" style="stroke:#181818;stroke-width:1.0;"/><text fill="#000000" font-family="sans-serif" font-size="13" lengthAdjust="spacing" textLength="123.6171" x="264.0337" y="152.4649">Empresa crea oferta</text></g><!--link Pendiente to Disponible--><g id="link_Pendiente_Disponible"><path d="M219.4137,208.0679 C199.3437,213.9179 177.3037,224.2779 165.0337,242.5679 C157.8837,253.2079 156.6095,261.4548 157.9495,273.4848 " fill="none" id="Pendiente-to-Disponible" style="stroke:#181818;stroke-width:1.0;"/><polygon fill="#181818" points="158.6137,279.4479,161.5928,270.0604,158.0602,274.4786,153.642,270.946,158.6137,279.4479" style="stroke:#181818;stroke-width:1.0;"/><text fill="#000000" font-family="sans-serif" font-size="13" lengthAdjust="spacing" textLength="181.7141" x="166.0337" y="257.4649">Administrador valida la oferta</text></g><!--link Pendiente to Invalidada--><g id="link_Pendiente_Invalidada"><path d="M306.8937,211.6679 C322.6637,217.9979 338.8237,227.7479 348.0337,242.5679 C365.5137,270.7179 416.3437,269.3479 336.0337,366.5679 C314.3737,392.7879 282.4768,402.1588 252.5168,405.9288 " fill="none" id="Pendiente-to-Invalidada" style="stroke:#181818;stroke-width:1.0;"/><polygon fill="#181818" points="246.5637,406.6779,255.9927,409.523,251.5246,406.0537,254.9939,401.5856,246.5637,406.6779" style="stroke:#181818;stroke-width:1.0;"/><text fill="#000000" font-family="sans-serif" font-size="13" lengthAdjust="spacing" textLength="143.1691" x="380.0337" y="309.9649">Empresa cancela oferta</text></g><!--link Disponible to Cerrada--><g id="link_Disponible_Cerrada"><path d="M118.8737,306.4079 C87.8737,309.6379 48.7137,319.5279 28.0337,347.5679 C19.3737,359.2979 22.5153,368.5087 32.9753,379.8987 " fill="none" id="Disponible-to-Cerrada" style="stroke:#181818;stroke-width:1.0;"/><polygon fill="#181818" points="37.0337,384.3179,33.8923,374.9835,33.6517,380.6352,28,380.3947,37.0337,384.3179" style="stroke:#181818;stroke-width:1.0;"/><text fill="#000000" font-family="sans-serif" font-size="13" lengthAdjust="spacing" textLength="146.3671" x="29.0337" y="362.4649">Empresa cierra la oferta</text></g><!--link Disponible to Invalidada--><g id="link_Disponible_Invalidada"><path d="M173.4137,329.9679 C175.6037,335.7379 177.9137,341.8579 180.0337,347.5679 C184.5337,359.7079 187.3987,367.6 191.4287,378.84 " fill="none" id="Disponible-to-Invalidada" style="stroke:#181818;stroke-width:1.0;"/><polygon fill="#181818" points="193.4537,384.4879,194.1815,374.666,191.7662,379.7813,186.6509,377.366,193.4537,384.4879" style="stroke:#181818;stroke-width:1.0;"/><text fill="#000000" font-family="sans-serif" font-size="13" lengthAdjust="spacing" textLength="143.1691" x="188.0337" y="362.4649">Empresa cancela oferta</text></g><!--link Cerrada to *end*OfertaTrabajo--><g id="link_Cerrada_*end*OfertaTrabajo"><path d="M83.6237,434.6079 C92.8337,447.9579 100.3164,458.7993 106.8364,468.2493 " fill="none" id="Cerrada-to-*end*OfertaTrabajo" style="stroke:#181818;stroke-width:1.0;"/><polygon fill="#181818" points="110.2437,473.1879,108.4251,463.5084,107.4042,469.0724,101.8403,468.0516,110.2437,473.1879" style="stroke:#181818;stroke-width:1.0;"/></g><!--link Invalidada to *end*OfertaTrabajo--><g id="link_Invalidada_*end*OfertaTrabajo"><path d="M172.9137,434.6079 C155.7637,448.7679 139.9311,461.8386 128.8211,471.0086 " fill="none" id="Invalidada-to-*end*OfertaTrabajo" style="stroke:#181818;stroke-width:1.0;"/><polygon fill="#181818" points="124.1937,474.8279,133.681,472.1838,128.0499,471.6451,128.5885,466.014,124.1937,474.8279" style="stroke:#181818;stroke-width:1.0;"/></g><path d="M581,59.5 L833.1491,59.5 A12.5,12.5 0 0 1 845.6491,72 L845.6491,88.5679 L568.5,88.5679 L568.5,72 A12.5,12.5 0 0 1 581,59.5 " fill="#F1F1F1" style="stroke:#F1F1F1;stroke-width:1.0;"/><rect fill="none" height="444.0679" rx="12.5" ry="12.5" style="stroke:#181818;stroke-width:0.5;" width="277.1491" x="568.5" y="59.5"/><line style="stroke:#181818;stroke-width:0.5;" x1="568.5" x2="845.6491" y1="88.5679" y2="88.5679"/><text fill="#000000" font-family="sans-serif" font-size="14" lengthAdjust="spacing" textLength="46.5638" x="683.7926" y="79.4659">Alumni</text><ellipse cx="674.5" cy="109.5679" fill="#222222" rx="10" ry="10" style="stroke:#222222;stroke-width:1.0;"/><g id="Alumni.Postula"><rect fill="#F1F1F1" height="50" rx="12.5" ry="12.5" style="stroke:#181818;stroke-width:0.5;" width="68.8178" x="640" y="174.5679"/><line style="stroke:#181818;stroke-width:0.5;" x1="640" x2="708.8178" y1="203.6358" y2="203.6358"/><text fill="#000000" font-family="sans-serif" font-size="14" lengthAdjust="spacing" textLength="48.8178" x="650" y="194.5339">Postula</text></g><g id="Alumni.EnRevision"><rect fill="#F1F1F1" height="50" rx="12.5" ry="12.5" style="stroke:#181818;stroke-width:0.5;" width="91.2037" x="629" y="279.5679"/><line style="stroke:#181818;stroke-width:0.5;" x1="629" x2="720.2037" y1="308.6358" y2="308.6358"/><text fill="#000000" font-family="sans-serif" font-size="14" lengthAdjust="spacing" textLength="71.2037" x="639" y="299.5339">EnRevision</text></g><g id="Alumni.Aceptada"><rect fill="#F1F1F1" height="50" rx="12.5" ry="12.5" style="stroke:#181818;stroke-width:0.5;" width="81.5438" x="580.5" y="384.5679"/><line style="stroke:#181818;stroke-width:0.5;" x1="580.5" x2="662.0438" y1="413.6358" y2="413.6358"/><text fill="#000000" font-family="sans-serif" font-size="14" lengthAdjust="spacing" textLength="61.5438" x="590.5" y="404.5339">Aceptada</text></g><g id="Alumni.Rechazada"><rect fill="#F1F1F1" height="50" rx="12.5" ry="12.5" style="stroke:#181818;stroke-width:0.5;" width="90.7277" x="687" y="384.5679"/><line style="stroke:#181818;stroke-width:0.5;" x1="687" x2="777.7277" y1="413.6358" y2="413.6358"/><text fill="#000000" font-family="sans-serif" font-size="14" lengthAdjust="spacing" textLength="70.7277" x="697" y="404.5339">Rechazada</text></g><ellipse cx="673.5" cy="482.5679" fill="none" rx="11" ry="11" style="stroke:#222222;stroke-width:1.0;"/><ellipse cx="673.5" cy="482.5679" fill="#222222" rx="6" ry="6" style="stroke:#222222;stroke-width:1.0;"/><!--link *start*Alumni to Postula--><g id="link_*start*Alumni_Postula"><path d="M674.5,119.6579 C674.5,132.4779 674.5,150.3379 674.5,168.4779 " fill="none" id="*start*Alumni-to-Postula" style="stroke:#181818;stroke-width:1.0;"/><polygon fill="#181818" points="674.5,174.4779,678.5,165.4779,674.5,169.4779,670.5,165.4779,674.5,174.4779" style="stroke:#181818;stroke-width:1.0;"/><text fill="#000000" font-family="sans-serif" font-size="13" lengthAdjust="spacing" textLength="106.8471" x="675.5" y="152.4649">Env&#237;a postulaci&#243;n</text></g><!--link Postula to EnRevision--><g id="link_Postula_EnRevision"><path d="M674.5,224.7179 C674.5,241.1279 674.5,256.7579 674.5,273.2179 " fill="none" id="Postula-to-EnRevision" style="stroke:#181818;stroke-width:1.0;"/><polygon fill="#181818" points="674.5,279.2179,678.5,270.2179,674.5,274.2179,670.5,270.2179,674.5,279.2179" style="stroke:#181818;stroke-width:1.0;"/><text fill="#000000" font-family="sans-serif" font-size="13" lengthAdjust="spacing" textLength="157.8591" x="675.5" y="257.4649">Empresa revisa postulado</text></g><!--link EnRevision to Aceptada--><g id="link_EnRevision_Aceptada"><path d="M628.98,327.7479 C621.95,333.2279 615.66,339.7979 611.5,347.5679 C605.47,358.8279 605.4541,367.0606 609.0441,378.7906 " fill="none" id="EnRevision-to-Aceptada" style="stroke:#181818;stroke-width:1.0;"/><polygon fill="#181818" points="610.8,384.5279,611.991,374.7513,609.3367,379.7468,604.3412,377.0926,610.8,384.5279" style="stroke:#181818;stroke-width:1.0;"/><text fill="#000000" font-family="sans-serif" font-size="13" lengthAdjust="spacing" textLength="103.3241" x="612.5" y="362.4649">Alumni aceptado</text></g><!--link EnRevision to Rechazada--><g id="link_EnRevision_Rechazada"><path d="M703.11,329.9479 C708.14,335.3279 712.91,341.3079 716.5,347.5679 C722.98,358.8679 725.7301,366.9631 728.0601,378.6831 " fill="none" id="EnRevision-to-Rechazada" style="stroke:#181818;stroke-width:1.0;"/><polygon fill="#181818" points="729.23,384.5679,731.3983,374.9607,728.2551,379.6639,723.5519,376.5206,729.23,384.5679" style="stroke:#181818;stroke-width:1.0;"/><text fill="#000000" font-family="sans-serif" font-size="13" lengthAdjust="spacing" textLength="110.1491" x="725.5" y="362.4649">Alumni rechazado</text></g><!--link Aceptada to *end*Alumni--><g id="link_Aceptada_*end*Alumni"><path d="M639.1,434.6079 C648.89,447.9579 656.9085,458.8946 663.8185,468.3446 " fill="none" id="Aceptada-to-*end*Alumni" style="stroke:#181818;stroke-width:1.0;"/><polygon fill="#181818" points="667.36,473.1879,665.2766,463.5619,664.4087,469.1518,658.8189,468.284,667.36,473.1879" style="stroke:#181818;stroke-width:1.0;"/></g><!--link Rechazada to *end*Alumni--><g id="link_Rechazada_*end*Alumni"><path d="M712.53,434.6079 C701.29,448.1179 691.8372,459.5154 684.0172,468.9154 " fill="none" id="Rechazada-to-*end*Alumni" style="stroke:#181818;stroke-width:1.0;"/><polygon fill="#181818" points="680.18,473.5279,689.0109,469.1673,683.3777,469.6841,682.8608,464.0509,680.18,473.5279" style="stroke:#181818;stroke-width:1.0;"/></g><path d="M893,7 L1248.666,7 A12.5,12.5 0 0 1 1261.166,19.5 L1261.166,36.0679 L880.5,36.0679 L880.5,19.5 A12.5,12.5 0 0 1 893,7 " fill="#F1F1F1" style="stroke:#F1F1F1;stroke-width:1.0;"/><rect fill="none" height="549.0679" rx="12.5" ry="12.5" style="stroke:#181818;stroke-width:0.5;" width="380.666" x="880.5" y="7"/><line style="stroke:#181818;stroke-width:0.5;" x1="880.5" x2="1261.166" y1="36.0679" y2="36.0679"/><text fill="#000000" font-family="sans-serif" font-size="14" lengthAdjust="spacing" textLength="57.7218" x="1041.9721" y="26.9659">Empresa</text><ellipse cx="1058" cy="57.0679" fill="#222222" rx="10" ry="10" style="stroke:#222222;stroke-width:1.0;"/><g id="Empresa.OfertaCreada"><rect fill="#F1F1F1" height="50" rx="12.5" ry="12.5" style="stroke:#181818;stroke-width:0.5;" width="109.1797" x="1003.5" y="122.0679"/><line style="stroke:#181818;stroke-width:0.5;" x1="1003.5" x2="1112.6797" y1="151.1358" y2="151.1358"/><text fill="#000000" font-family="sans-serif" font-size="14" lengthAdjust="spacing" textLength="89.1797" x="1013.5" y="142.0339">OfertaCreada</text></g><g id="Empresa.OfertaPendienteValidacion"><rect fill="#F1F1F1" height="50" rx="12.5" ry="12.5" style="stroke:#181818;stroke-width:0.5;" width="196.4693" x="960" y="227.0679"/><line style="stroke:#181818;stroke-width:0.5;" x1="960" x2="1156.4693" y1="256.1358" y2="256.1358"/><text fill="#000000" font-family="sans-serif" font-size="14" lengthAdjust="spacing" textLength="176.4693" x="970" y="247.0339">OfertaPendienteValidacion</text></g><g id="Empresa.OfertaDisponible"><rect fill="#F1F1F1" height="50" rx="12.5" ry="12.5" style="stroke:#181818;stroke-width:0.5;" width="132.3356" x="893" y="332.0679"/><line style="stroke:#181818;stroke-width:0.5;" x1="893" x2="1025.3356" y1="361.1358" y2="361.1358"/><text fill="#000000" font-family="sans-serif" font-size="14" lengthAdjust="spacing" textLength="112.3356" x="903" y="352.0339">OfertaDisponible</text></g><g id="Empresa.OfertaCancelada"><rect fill="#F1F1F1" height="50" rx="12.5" ry="12.5" style="stroke:#181818;stroke-width:0.5;" width="130.2356" x="1026" y="437.0679"/><line style="stroke:#181818;stroke-width:0.5;" x1="1026" x2="1156.2356" y1="466.1358" y2="466.1358"/><text fill="#000000" font-family="sans-serif" font-size="14" lengthAdjust="spacing" textLength="110.2356" x="1036" y="457.0339">OfertaCancelada</text></g><g id="Empresa.OfertaCerrada"><rect fill="#F1F1F1" height="50" rx="12.5" ry="12.5" style="stroke:#181818;stroke-width:0.5;" width="114.9617" x="892.5" y="437.0679"/><line style="stroke:#181818;stroke-width:0.5;" x1="892.5" x2="1007.4617" y1="466.1358" y2="466.1358"/><text fill="#000000" font-family="sans-serif" font-size="14" lengthAdjust="spacing" textLength="94.9617" x="902.5" y="457.0339">OfertaCerrada</text></g><ellipse cx="1020" cy="535.0679" fill="none" rx="11" ry="11" style="stroke:#222222;stroke-width:1.0;"/><ellipse cx="1020" cy="535.0679" fill="#222222" rx="6" ry="6" style="stroke:#222222;stroke-width:1.0;"/><!--link *start*Empresa to OfertaCreada--><g id="link_*start*Empresa_OfertaCreada"><path d="M1058,67.1579 C1058,79.9779 1058,97.8379 1058,115.9779 " fill="none" id="*start*Empresa-to-OfertaCreada" style="stroke:#181818;stroke-width:1.0;"/><polygon fill="#181818" points="1058,121.9779,1062,112.9779,1058,116.9779,1054,112.9779,1058,121.9779" style="stroke:#181818;stroke-width:1.0;"/><text fill="#000000" font-family="sans-serif" font-size="13" lengthAdjust="spacing" textLength="143.8711" x="1059" y="99.9649">Decide crear una oferta</text></g><!--link OfertaCreada to OfertaPendienteValidacion--><g id="link_OfertaCreada_OfertaPendienteValidacion"><path d="M1058,172.2179 C1058,188.6279 1058,204.2579 1058,220.7179 " fill="none" id="OfertaCreada-to-OfertaPendienteValidacion" style="stroke:#181818;stroke-width:1.0;"/><polygon fill="#181818" points="1058,226.7179,1062,217.7179,1058,221.7179,1054,217.7179,1058,226.7179" style="stroke:#181818;stroke-width:1.0;"/><text fill="#000000" font-family="sans-serif" font-size="13" lengthAdjust="spacing" textLength="169.0131" x="1059" y="204.9649">Env&#237;a oferta para validaci&#243;n</text></g><!--link OfertaPendienteValidacion to OfertaDisponible--><g id="link_OfertaPendienteValidacion_OfertaDisponible"><path d="M977.94,277.2179 C970.95,282.1079 964.75,287.9979 960,295.0679 C952.86,305.7079 951.5758,313.9548 952.9158,325.9848 " fill="none" id="OfertaPendienteValidacion-to-OfertaDisponible" style="stroke:#181818;stroke-width:1.0;"/><polygon fill="#181818" points="953.58,331.9479,956.5591,322.5604,953.0265,326.9786,948.6083,323.446,953.58,331.9479" style="stroke:#181818;stroke-width:1.0;"/><text fill="#000000" font-family="sans-serif" font-size="13" lengthAdjust="spacing" textLength="181.7141" x="961" y="309.9649">Administrador valida la oferta</text></g><!--link OfertaPendienteValidacion to OfertaCancelada--><g id="link_OfertaPendienteValidacion_OfertaCancelada"><path d="M1126.1,277.3079 C1132.77,282.2179 1138.66,288.0779 1143,295.0679 C1172.08,341.8779 1166.76,369.3379 1143,419.0679 C1139.8,425.7679 1139.3063,427.6221 1133.8263,432.8121 " fill="none" id="OfertaPendienteValidacion-to-OfertaCancelada" style="stroke:#181818;stroke-width:1.0;"/><polygon fill="#181818" points="1129.47,436.9379,1138.7551,433.6534,1133.1003,433.4997,1133.254,427.845,1129.47,436.9379" style="stroke:#181818;stroke-width:1.0;"/><text fill="#000000" font-family="sans-serif" font-size="13" lengthAdjust="spacing" textLength="88.166" x="1163" y="362.4649">Cancela oferta</text></g><!--link OfertaDisponible to OfertaCerrada--><g id="link_OfertaDisponible_OfertaCerrada"><path d="M953.63,382.3979 C952.56,388.1579 951.59,394.3079 951,400.0679 C949.76,412.1879 949.4247,419.7279 949.4347,430.9679 " fill="none" id="OfertaDisponible-to-OfertaCerrada" style="stroke:#181818;stroke-width:1.0;"/><polygon fill="#181818" points="949.44,436.9679,953.432,427.9644,949.4356,431.9679,945.432,427.9715,949.44,436.9679" style="stroke:#181818;stroke-width:1.0;"/><text fill="#000000" font-family="sans-serif" font-size="13" lengthAdjust="spacing" textLength="77.337" x="952" y="414.9649">Cierra oferta</text></g><!--link OfertaDisponible to OfertaCancelada--><g id="link_OfertaDisponible_OfertaCancelada"><path d="M1003.68,382.1779 C1012.67,387.6579 1021.85,393.7479 1030,400.0679 C1044.2,411.0879 1054.3744,420.812 1065.5544,432.672 " fill="none" id="OfertaDisponible-to-OfertaCancelada" style="stroke:#181818;stroke-width:1.0;"/><polygon fill="#181818" points="1069.67,437.0379,1066.4072,427.7452,1066.2403,433.3996,1060.5859,433.2327,1069.67,437.0379" style="stroke:#181818;stroke-width:1.0;"/><text fill="#000000" font-family="sans-serif" font-size="13" lengthAdjust="spacing" textLength="88.166" x="1053" y="414.9649">Cancela oferta</text></g><!--link OfertaCerrada to *end*Empresa--><g id="link_OfertaCerrada_*end*Empresa"><path d="M973.7,487.1079 C987.34,500.9479 999.3373,513.1155 1008.5073,522.4155 " fill="none" id="OfertaCerrada-to-*end*Empresa" style="stroke:#181818;stroke-width:1.0;"/><polygon fill="#181818" points="1012.72,526.6879,1009.2493,517.4709,1009.2094,523.1276,1003.5527,523.0878,1012.72,526.6879" style="stroke:#181818;stroke-width:1.0;"/></g><!--link OfertaCancelada to *end*Empresa--><g id="link_OfertaCancelada_*end*Empresa"><path d="M1066.96,487.1079 C1053.12,500.9479 1040.9226,513.1453 1031.6226,522.4453 " fill="none" id="OfertaCancelada-to-*end*Empresa" style="stroke:#181818;stroke-width:1.0;"/><polygon fill="#181818" points="1027.38,526.6879,1036.5724,523.1524,1030.9155,523.1524,1030.9155,517.4955,1027.38,526.6879" style="stroke:#181818;stroke-width:1.0;"/></g><path d="M1309.5,112 L1594.7651,112 A12.5,12.5 0 0 1 1607.2651,124.5 L1607.2651,141.0679 L1297,141.0679 L1297,124.5 A12.5,12.5 0 0 1 1309.5,112 " fill="#F1F1F1" style="stroke:#F1F1F1;stroke-width:1.0;"/><rect fill="none" height="339.0679" rx="12.5" ry="12.5" style="stroke:#181818;stroke-width:0.5;" width="310.2651" x="1297" y="112"/><line style="stroke:#181818;stroke-width:0.5;" x1="1297" x2="1607.2651" y1="141.0679" y2="141.0679"/><text fill="#000000" font-family="sans-serif" font-size="14" lengthAdjust="spacing" textLength="94.7797" x="1404.7427" y="131.9659">Administrador</text><ellipse cx="1440.5" cy="162.0679" fill="#222222" rx="10" ry="10" style="stroke:#222222;stroke-width:1.0;"/><g id="Administrador.RevisandoOferta"><rect fill="#F1F1F1" height="50" rx="12.5" ry="12.5" style="stroke:#181818;stroke-width:0.5;" width="129.9556" x="1375.5" y="227.0679"/><line style="stroke:#181818;stroke-width:0.5;" x1="1375.5" x2="1505.4556" y1="256.1358" y2="256.1358"/><text fill="#000000" font-family="sans-serif" font-size="14" lengthAdjust="spacing" textLength="109.9556" x="1385.5" y="247.0339">RevisandoOferta</text></g><g id="Administrador.OfertaValidada"><rect fill="#F1F1F1" height="50" rx="12.5" ry="12.5" style="stroke:#181818;stroke-width:0.5;" width="118.7416" x="1309" y="332.0679"/><line style="stroke:#181818;stroke-width:0.5;" x1="1309" x2="1427.7416" y1="361.1358" y2="361.1358"/><text fill="#000000" font-family="sans-serif" font-size="14" lengthAdjust="spacing" textLength="98.7416" x="1319" y="352.0339">OfertaValidada</text></g><g id="Administrador.OfertaRechazada"><rect fill="#F1F1F1" height="50" rx="12.5" ry="12.5" style="stroke:#181818;stroke-width:0.5;" width="133.0636" x="1446" y="332.0679"/><line style="stroke:#181818;stroke-width:0.5;" x1="1446" x2="1579.0636" y1="361.1358" y2="361.1358"/><text fill="#000000" font-family="sans-serif" font-size="14" lengthAdjust="spacing" textLength="113.0636" x="1456" y="352.0339">OfertaRechazada</text></g><ellipse cx="1439.5" cy="430.0679" fill="none" rx="11" ry="11" style="stroke:#222222;stroke-width:1.0;"/><ellipse cx="1439.5" cy="430.0679" fill="#222222" rx="6" ry="6" style="stroke:#222222;stroke-width:1.0;"/><!--link *start*Administrador to RevisandoOferta--><g id="link_*start*Administrador_RevisandoOferta"><path d="M1440.5,172.1579 C1440.5,184.9779 1440.5,202.8379 1440.5,220.9779 " fill="none" id="*start*Administrador-to-RevisandoOferta" style="stroke:#181818;stroke-width:1.0;"/><polygon fill="#181818" points="1440.5,226.9779,1444.5,217.9779,1440.5,221.9779,1436.5,217.9779,1440.5,226.9779" style="stroke:#181818;stroke-width:1.0;"/><text fill="#000000" font-family="sans-serif" font-size="13" lengthAdjust="spacing" textLength="80.7431" x="1441.5" y="204.9649">Recibe oferta</text></g><!--link RevisandoOferta to OfertaValidada--><g id="link_RevisandoOferta_OfertaValidada"><path d="M1406.6,277.2879 C1400.67,282.6479 1394.98,288.6479 1390.5,295.0679 C1382.83,306.0579 1379.2341,314.252 1375.7641,326.042 " fill="none" id="RevisandoOferta-to-OfertaValidada" style="stroke:#181818;stroke-width:1.0;"/><polygon fill="#181818" points="1374.07,331.7979,1380.4483,324.2935,1375.4817,327.0013,1372.7738,322.0347,1374.07,331.7979" style="stroke:#181818;stroke-width:1.0;"/><text fill="#000000" font-family="sans-serif" font-size="13" lengthAdjust="spacing" textLength="91.5201" x="1391.5" y="309.9649">Valida la oferta</text></g><!--link RevisandoOferta to OfertaRechazada--><g id="link_RevisandoOferta_OfertaRechazada"><path d="M1468.44,277.4979 C1473.82,282.9579 1479.13,288.9579 1483.5,295.0679 C1491.55,306.3279 1495.9676,314.6526 1500.9576,326.3026 " fill="none" id="RevisandoOferta-to-OfertaRechazada" style="stroke:#181818;stroke-width:1.0;"/><polygon fill="#181818" points="1503.32,331.8179,1503.4533,321.97,1501.3514,327.2218,1496.0995,325.1198,1503.32,331.8179" style="stroke:#181818;stroke-width:1.0;"/><text fill="#000000" font-family="sans-serif" font-size="13" lengthAdjust="spacing" textLength="102.7651" x="1494.5" y="309.9649">Invalida la oferta</text></g><!--link OfertaValidada to *end*Administrador--><g id="link_OfertaValidada_*end*Administrador"><path d="M1392.54,382.1079 C1406.38,395.9479 1418.5774,408.1453 1427.8774,417.4453 " fill="none" id="OfertaValidada-to-*end*Administrador" style="stroke:#181818;stroke-width:1.0;"/><polygon fill="#181818" points="1432.12,421.6879,1428.5845,412.4955,1428.5845,418.1524,1422.9276,418.1524,1432.12,421.6879" style="stroke:#181818;stroke-width:1.0;"/></g><!--link OfertaRechazada to *end*Administrador--><g id="link_OfertaRechazada_*end*Administrador"><path d="M1487.79,382.1079 C1473.56,395.9479 1460.9507,408.2042 1451.3907,417.5042 " fill="none" id="OfertaRechazada-to-*end*Administrador" style="stroke:#181818;stroke-width:1.0;"/><polygon fill="#181818" points="1447.09,421.6879,1456.3303,418.2794,1450.6739,418.2015,1450.7519,412.5451,1447.09,421.6879" style="stroke:#181818;stroke-width:1.0;"/></g><path d="M1655,112 L1840.9011,112 A12.5,12.5 0 0 1 1853.4011,124.5 L1853.4011,141.0679 L1642.5,141.0679 L1642.5,124.5 A12.5,12.5 0 0 1 1655,112 " fill="#F1F1F1" style="stroke:#F1F1F1;stroke-width:1.0;"/><rect fill="none" height="339.0679" rx="12.5" ry="12.5" style="stroke:#181818;stroke-width:0.5;" width="210.9011" x="1642.5" y="112"/><line style="stroke:#181818;stroke-width:0.5;" x1="1642.5" x2="1853.4011" y1="141.0679" y2="141.0679"/><text fill="#000000" font-family="sans-serif" font-size="14" lengthAdjust="spacing" textLength="123.4375" x="1686.2318" y="131.9659">Plataforma_acceso</text><ellipse cx="1714" cy="162.0679" fill="#222222" rx="10" ry="10" style="stroke:#222222;stroke-width:1.0;"/><g id="Plataforma_acceso.Autenticado"><rect fill="#F1F1F1" height="50" rx="12.5" ry="12.5" style="stroke:#181818;stroke-width:0.5;" width="99.5197" x="1664" y="227.0679"/><line style="stroke:#181818;stroke-width:0.5;" x1="1664" x2="1763.5197" y1="256.1358" y2="256.1358"/><text fill="#000000" font-family="sans-serif" font-size="14" lengthAdjust="spacing" textLength="79.5197" x="1674" y="247.0339">Autenticado</text></g><g id="Plataforma_acceso.NoAutenticado"><rect fill="#F1F1F1" height="50" rx="12.5" ry="12.5" style="stroke:#181818;stroke-width:0.5;" width="118.6296" x="1654.5" y="332.0679"/><line style="stroke:#181818;stroke-width:0.5;" x1="1654.5" x2="1773.1296" y1="361.1358" y2="361.1358"/><text fill="#000000" font-family="sans-serif" font-size="14" lengthAdjust="spacing" textLength="98.6296" x="1664.5" y="352.0339">NoAutenticado</text></g><ellipse cx="1714" cy="430.0679" fill="none" rx="11" ry="11" style="stroke:#222222;stroke-width:1.0;"/><ellipse cx="1714" cy="430.0679" fill="#222222" rx="6" ry="6" style="stroke:#222222;stroke-width:1.0;"/><!--link *start*Plataforma_acceso to Autenticado--><g id="link_*start*Plataforma_acceso_Autenticado"><path d="M1714,172.1579 C1714,184.9779 1714,202.8379 1714,220.9779 " fill="none" id="*start*Plataforma_acceso-to-Autenticado" style="stroke:#181818;stroke-width:1.0;"/><polygon fill="#181818" points="1714,226.9779,1718,217.9779,1714,221.9779,1710,217.9779,1714,226.9779" style="stroke:#181818;stroke-width:1.0;"/><text fill="#000000" font-family="sans-serif" font-size="13" lengthAdjust="spacing" textLength="125.0731" x="1715" y="204.9649">Usuario inicia sesi&#243;n</text></g><!--link Autenticado to NoAutenticado--><g id="link_Autenticado_NoAutenticado"><path d="M1714,277.2179 C1714,293.6279 1714,309.2579 1714,325.7179 " fill="none" id="Autenticado-to-NoAutenticado" style="stroke:#181818;stroke-width:1.0;"/><polygon fill="#181818" points="1714,331.7179,1718,322.7179,1714,326.7179,1710,322.7179,1714,331.7179" style="stroke:#181818;stroke-width:1.0;"/><text fill="#000000" font-family="sans-serif" font-size="13" lengthAdjust="spacing" textLength="128.4011" x="1715" y="309.9649">Usuario cierra sesi&#243;n</text></g><!--link NoAutenticado to *end*Plataforma_acceso--><g id="link_NoAutenticado_*end*Plataforma_acceso"><path d="M1714,382.1079 C1714,394.6579 1714,403.3479 1714,412.9179 " fill="none" id="NoAutenticado-to-*end*Plataforma_acceso" style="stroke:#181818;stroke-width:1.0;"/><polygon fill="#181818" points="1714,418.9179,1718,409.9179,1714,413.9179,1710,409.9179,1714,418.9179" style="stroke:#181818;stroke-width:1.0;"/></g><!--SRC=[bPHDJiCm48NtEONNIBq02wGexO8DL0YoGGXDdQamIkp8Th80zKYiE48lXd_oOoTf5RASlCypVdwsqg2HF1vHQdYMS81FGRuJOhxNcpUosToHFVA28JUgMxAhQeaA29K8H3Z8QKUD9RPCrOApGscHjAWOPqfBA8GaBPIi059UeU-v5nbPq10unPWAkbWiGoad3BCbSfLQswnVtJB665SBsBvyIXBb34tBfk9iwgHGkYbT9zwUVu3Kla3P-PTx9pg5LU_u4xPCCS63qQGj3M0X71KeBPXIhBNVKJS6-CgY-Wdf1tn5SjcLl7vOBjpxICssteyQxzqdB3EvSPssI5c1BaUID3poEfAEx92ItBbEEsEyanudDPW3Rxl_lQcNyN7n_qPspPgPZv7RRpQFrAnnG0vPpdo6Ls9h6YubUOhFunmv4f-iInFmGlXLJ6yJ3dR0iFLKCywSZzSlNpBwCXa6jx-AYwUKJs_f-EjAZFSbQ3WAMS4xK8fg-YocZJOdpwXnn0pmeXgGJ13Z4cL05AeXVg7GWWzY6UsUgn2DfVs8oUaF]--></g></svg>