<svg xmlns="http://www.w3.org/2000/svg" xmlns:xlink="http://www.w3.org/1999/xlink" contentStyleType="text/css" height="562px" preserveAspectRatio="none" style="width:1218px;height:562px;background:#FFFFFF;" version="1.1" viewBox="0 0 1218 562" width="1218px" zoomAndPan="magnify"><defs/><g><path d="M19.5,59.5 L271.6491,59.5 A12.5,12.5 0 0 1 284.1491,72 L284.1491,88.5679 L7,88.5679 L7,72 A12.5,12.5 0 0 1 19.5,59.5 " fill="#F1F1F1" style="stroke:#F1F1F1;stroke-width:1.0;"/><rect fill="none" height="444.0679" rx="12.5" ry="12.5" style="stroke:#181818;stroke-width:0.5;" width="277.1491" x="7" y="59.5"/><line style="stroke:#181818;stroke-width:0.5;" x1="7" x2="284.1491" y1="88.5679" y2="88.5679"/><text fill="#000000" font-family="sans-serif" font-size="14" lengthAdjust="spacing" textLength="101.5976" x="94.7757" y="79.4659">Alumni_Postula</text><ellipse cx="113" cy="109.5679" fill="#222222" rx="10" ry="10" style="stroke:#222222;stroke-width:1.0;"/><g id="Alumni_Postula.Postula"><rect fill="#F1F1F1" height="50" rx="12.5" ry="12.5" style="stroke:#181818;stroke-width:0.5;" width="68.8178" x="78.5" y="174.5679"/><line style="stroke:#181818;stroke-width:0.5;" x1="78.5" x2="147.3178" y1="203.6358" y2="203.6358"/><text fill="#000000" font-family="sans-serif" font-size="14" lengthAdjust="spacing" textLength="48.8178" x="88.5" y="194.5339">Postula</text></g><g id="Alumni_Postula.EnRevision"><rect fill="#F1F1F1" height="50" rx="12.5" ry="12.5" style="stroke:#181818;stroke-width:0.5;" width="91.2037" x="67.5" y="279.5679"/><line style="stroke:#181818;stroke-width:0.5;" x1="67.5" x2="158.7037" y1="308.6358" y2="308.6358"/><text fill="#000000" font-family="sans-serif" font-size="14" lengthAdjust="spacing" textLength="71.2037" x="77.5" y="299.5339">EnRevision</text></g><g id="Alumni_Postula.Aceptado"><rect fill="#F1F1F1" height="50" rx="12.5" ry="12.5" style="stroke:#181818;stroke-width:0.5;" width="82.1598" x="19" y="384.5679"/><line style="stroke:#181818;stroke-width:0.5;" x1="19" x2="101.1598" y1="413.6358" y2="413.6358"/><text fill="#000000" font-family="sans-serif" font-size="14" lengthAdjust="spacing" textLength="62.1598" x="29" y="404.5339">Aceptado</text></g><g id="Alumni_Postula.Rechazado"><rect fill="#F1F1F1" height="50" rx="12.5" ry="12.5" style="stroke:#181818;stroke-width:0.5;" width="91.3437" x="125.5" y="384.5679"/><line style="stroke:#181818;stroke-width:0.5;" x1="125.5" x2="216.8437" y1="413.6358" y2="413.6358"/><text fill="#000000" font-family="sans-serif" font-size="14" lengthAdjust="spacing" textLength="71.3437" x="135.5" y="404.5339">Rechazado</text></g><ellipse cx="112" cy="482.5679" fill="none" rx="11" ry="11" style="stroke:#222222;stroke-width:1.0;"/><ellipse cx="112" cy="482.5679" fill="#222222" rx="6" ry="6" style="stroke:#222222;stroke-width:1.0;"/><!--link *start*Alumni_Postula to Postula--><g id="link_*start*Alumni_Postula_Postula"><path d="M113,119.6579 C113,132.4779 113,150.3379 113,168.4779 " fill="none" id="*start*Alumni_Postula-to-Postula" style="stroke:#181818;stroke-width:1.0;"/><polygon fill="#181818" points="113,174.4779,117,165.4779,113,169.4779,109,165.4779,113,174.4779" style="stroke:#181818;stroke-width:1.0;"/><text fill="#000000" font-family="sans-serif" font-size="13" lengthAdjust="spacing" textLength="106.8471" x="114" y="152.4649">Env&#237;a postulaci&#243;n</text></g><!--link Postula to EnRevision--><g id="link_Postula_EnRevision"><path d="M113,224.7179 C113,241.1279 113,256.7579 113,273.2179 " fill="none" id="Postula-to-EnRevision" style="stroke:#181818;stroke-width:1.0;"/><polygon fill="#181818" points="113,279.2179,117,270.2179,113,274.2179,109,270.2179,113,279.2179" style="stroke:#181818;stroke-width:1.0;"/><text fill="#000000" font-family="sans-serif" font-size="13" lengthAdjust="spacing" textLength="157.8591" x="114" y="257.4649">Empresa revisa postulado</text></g><!--link EnRevision to Aceptado--><g id="link_EnRevision_Aceptado"><path d="M67.48,327.7479 C60.45,333.2279 54.16,339.7979 50,347.5679 C43.97,358.8279 43.9541,367.0606 47.5441,378.7906 " fill="none" id="EnRevision-to-Aceptado" style="stroke:#181818;stroke-width:1.0;"/><polygon fill="#181818" points="49.3,384.5279,50.491,374.7513,47.8367,379.7468,42.8412,377.0926,49.3,384.5279" style="stroke:#181818;stroke-width:1.0;"/><text fill="#000000" font-family="sans-serif" font-size="13" lengthAdjust="spacing" textLength="103.3241" x="51" y="362.4649">Alumni aceptado</text></g><!--link EnRevision to Rechazado--><g id="link_EnRevision_Rechazado"><path d="M141.61,329.9479 C146.64,335.3279 151.41,341.3079 155,347.5679 C161.48,358.8679 164.2301,366.9631 166.5601,378.6831 " fill="none" id="EnRevision-to-Rechazado" style="stroke:#181818;stroke-width:1.0;"/><polygon fill="#181818" points="167.73,384.5679,169.8983,374.9607,166.7551,379.6639,162.0519,376.5206,167.73,384.5679" style="stroke:#181818;stroke-width:1.0;"/><text fill="#000000" font-family="sans-serif" font-size="13" lengthAdjust="spacing" textLength="110.1491" x="164" y="362.4649">Alumni rechazado</text></g><!--link Aceptado to *end*Alumni_Postula--><g id="link_Aceptado_*end*Alumni_Postula"><path d="M77.6,434.6079 C87.39,447.9579 95.4085,458.8946 102.3185,468.3446 " fill="none" id="Aceptado-to-*end*Alumni_Postula" style="stroke:#181818;stroke-width:1.0;"/><polygon fill="#181818" points="105.86,473.1879,103.7766,463.5619,102.9087,469.1518,97.3189,468.284,105.86,473.1879" style="stroke:#181818;stroke-width:1.0;"/></g><!--link Rechazado to *end*Alumni_Postula--><g id="link_Rechazado_*end*Alumni_Postula"><path d="M151.03,434.6079 C139.79,448.1179 130.3372,459.5154 122.5172,468.9154 " fill="none" id="Rechazado-to-*end*Alumni_Postula" style="stroke:#181818;stroke-width:1.0;"/><polygon fill="#181818" points="118.68,473.5279,127.5109,469.1673,121.8777,469.6841,121.3608,464.0509,118.68,473.5279" style="stroke:#181818;stroke-width:1.0;"/></g><path d="M332,7 L653.166,7 A12.5,12.5 0 0 1 665.666,19.5 L665.666,36.0679 L319.5,36.0679 L319.5,19.5 A12.5,12.5 0 0 1 332,7 " fill="#F1F1F1" style="stroke:#F1F1F1;stroke-width:1.0;"/><rect fill="none" height="549.0679" rx="12.5" ry="12.5" style="stroke:#181818;stroke-width:0.5;" width="346.166" x="319.5" y="7"/><line style="stroke:#181818;stroke-width:0.5;" x1="319.5" x2="665.666" y1="36.0679" y2="36.0679"/><text fill="#000000" font-family="sans-serif" font-size="14" lengthAdjust="spacing" textLength="94.3176" x="445.4242" y="26.9659">Empresa_Crea</text><ellipse cx="475.5" cy="57.0679" fill="#222222" rx="10" ry="10" style="stroke:#222222;stroke-width:1.0;"/><g id="Empresa_Crea.Creada"><rect fill="#F1F1F1" height="50" rx="12.5" ry="12.5" style="stroke:#181818;stroke-width:0.5;" width="66.8438" x="442" y="122.0679"/><line style="stroke:#181818;stroke-width:0.5;" x1="442" x2="508.8438" y1="151.1358" y2="151.1358"/><text fill="#000000" font-family="sans-serif" font-size="14" lengthAdjust="spacing" textLength="46.8438" x="452" y="142.0339">Creada</text></g><g id="Empresa_Crea.PendienteValidacion"><rect fill="#F1F1F1" height="50" rx="12.5" ry="12.5" style="stroke:#181818;stroke-width:0.5;" width="154.1335" x="398.5" y="227.0679"/><line style="stroke:#181818;stroke-width:0.5;" x1="398.5" x2="552.6335" y1="256.1358" y2="256.1358"/><text fill="#000000" font-family="sans-serif" font-size="14" lengthAdjust="spacing" textLength="134.1335" x="408.5" y="247.0339">PendienteValidacion</text></g><g id="Empresa_Crea.Disponible"><rect fill="#F1F1F1" height="50" rx="12.5" ry="12.5" style="stroke:#181818;stroke-width:0.5;" width="89.9997" x="331.5" y="332.0679"/><line style="stroke:#181818;stroke-width:0.5;" x1="331.5" x2="421.4997" y1="361.1358" y2="361.1358"/><text fill="#000000" font-family="sans-serif" font-size="14" lengthAdjust="spacing" textLength="69.9997" x="341.5" y="352.0339">Disponible</text></g><g id="Empresa_Crea.Cancelada"><rect fill="#F1F1F1" height="50" rx="12.5" ry="12.5" style="stroke:#181818;stroke-width:0.5;" width="87.8997" x="425.5" y="437.0679"/><line style="stroke:#181818;stroke-width:0.5;" x1="425.5" x2="513.3997" y1="466.1358" y2="466.1358"/><text fill="#000000" font-family="sans-serif" font-size="14" lengthAdjust="spacing" textLength="67.8997" x="435.5" y="457.0339">Cancelada</text></g><g id="Empresa_Crea.Cerrada"><rect fill="#F1F1F1" height="50" rx="12.5" ry="12.5" style="stroke:#181818;stroke-width:0.5;" width="72.6258" x="333" y="437.0679"/><line style="stroke:#181818;stroke-width:0.5;" x1="333" x2="405.6258" y1="466.1358" y2="466.1358"/><text fill="#000000" font-family="sans-serif" font-size="14" lengthAdjust="spacing" textLength="52.6258" x="343" y="457.0339">Cerrada</text></g><ellipse cx="418.5" cy="535.0679" fill="none" rx="11" ry="11" style="stroke:#222222;stroke-width:1.0;"/><ellipse cx="418.5" cy="535.0679" fill="#222222" rx="6" ry="6" style="stroke:#222222;stroke-width:1.0;"/><!--link *start*Empresa_Crea to Creada--><g id="link_*start*Empresa_Crea_Creada"><path d="M475.5,67.1579 C475.5,79.9779 475.5,97.8379 475.5,115.9779 " fill="none" id="*start*Empresa_Crea-to-Creada" style="stroke:#181818;stroke-width:1.0;"/><polygon fill="#181818" points="475.5,121.9779,479.5,112.9779,475.5,116.9779,471.5,112.9779,475.5,121.9779" style="stroke:#181818;stroke-width:1.0;"/><text fill="#000000" font-family="sans-serif" font-size="13" lengthAdjust="spacing" textLength="143.8711" x="476.5" y="99.9649">Decide crear una oferta</text></g><!--link Creada to PendienteValidacion--><g id="link_Creada_PendienteValidacion"><path d="M475.5,172.2179 C475.5,188.6279 475.5,204.2579 475.5,220.7179 " fill="none" id="Creada-to-PendienteValidacion" style="stroke:#181818;stroke-width:1.0;"/><polygon fill="#181818" points="475.5,226.7179,479.5,217.7179,475.5,221.7179,471.5,217.7179,475.5,226.7179" style="stroke:#181818;stroke-width:1.0;"/><text fill="#000000" font-family="sans-serif" font-size="13" lengthAdjust="spacing" textLength="169.0131" x="476.5" y="204.9649">Env&#237;a oferta para validaci&#243;n</text></g><!--link PendienteValidacion to Disponible--><g id="link_PendienteValidacion_Disponible"><path d="M398.21,275.3479 C390.09,280.5979 382.86,287.0779 377.5,295.0679 C370.36,305.7079 369.0758,313.9548 370.4158,325.9848 " fill="none" id="PendienteValidacion-to-Disponible" style="stroke:#181818;stroke-width:1.0;"/><polygon fill="#181818" points="371.08,331.9479,374.0591,322.5604,370.5265,326.9786,366.1083,323.446,371.08,331.9479" style="stroke:#181818;stroke-width:1.0;"/><text fill="#000000" font-family="sans-serif" font-size="13" lengthAdjust="spacing" textLength="181.7141" x="378.5" y="309.9649">Administrador valida la oferta</text></g><!--link PendienteValidacion to Cancelada--><g id="link_PendienteValidacion_Cancelada"><path d="M543.6,277.3079 C550.27,282.2179 556.16,288.0779 560.5,295.0679 C564.96,302.2379 560.82,305.6279 560.5,314.0679 C558.72,360.8379 578.51,380.1579 552.5,419.0679 C543.35,432.7679 533.8132,439.8175 519.0332,446.2375 " fill="none" id="PendienteValidacion-to-Cancelada" style="stroke:#181818;stroke-width:1.0;"/><polygon fill="#181818" points="513.53,448.6279,523.3785,448.7111,518.116,446.6359,520.1912,441.3734,513.53,448.6279" style="stroke:#181818;stroke-width:1.0;"/><text fill="#000000" font-family="sans-serif" font-size="13" lengthAdjust="spacing" textLength="88.166" x="567.5" y="362.4649">Cancela oferta</text></g><!--link Disponible to Cerrada--><g id="link_Disponible_Cerrada"><path d="M371.06,382.3879 C370,388.1579 369.04,394.3079 368.5,400.0679 C367.36,412.1979 367.2053,419.7425 367.6453,430.9825 " fill="none" id="Disponible-to-Cerrada" style="stroke:#181818;stroke-width:1.0;"/><polygon fill="#181818" points="367.88,436.9779,371.5249,427.8283,367.6844,431.9817,363.531,428.1413,367.88,436.9779" style="stroke:#181818;stroke-width:1.0;"/><text fill="#000000" font-family="sans-serif" font-size="13" lengthAdjust="spacing" textLength="77.337" x="369.5" y="414.9649">Cierra oferta</text></g><!--link Disponible to Cancelada--><g id="link_Disponible_Cancelada"><path d="M421.78,378.4979 C431.24,384.3879 440.47,391.5679 447.5,400.0679 C456.19,410.5579 460.0143,418.9758 463.2743,431.0358 " fill="none" id="Disponible-to-Cancelada" style="stroke:#181818;stroke-width:1.0;"/><polygon fill="#181818" points="464.84,436.8279,466.3529,427.0959,463.5353,432.0012,458.63,429.1835,464.84,436.8279" style="stroke:#181818;stroke-width:1.0;"/><text fill="#000000" font-family="sans-serif" font-size="13" lengthAdjust="spacing" textLength="88.166" x="459.5" y="414.9649">Cancela oferta</text></g><!--link Cerrada to *end*Empresa_Crea--><g id="link_Cerrada_*end*Empresa_Crea"><path d="M386.09,487.1079 C395.31,500.4579 402.7926,511.2993 409.3126,520.7493 " fill="none" id="Cerrada-to-*end*Empresa_Crea" style="stroke:#181818;stroke-width:1.0;"/><polygon fill="#181818" points="412.72,525.6879,410.9013,516.0084,409.8805,521.5724,404.3165,520.5516,412.72,525.6879" style="stroke:#181818;stroke-width:1.0;"/></g><!--link Cancelada to *end*Empresa_Crea--><g id="link_Cancelada_*end*Empresa_Crea"><path d="M452.23,487.1079 C442.64,500.4579 434.7977,511.3628 428.0177,520.8128 " fill="none" id="Cancelada-to-*end*Empresa_Crea" style="stroke:#181818;stroke-width:1.0;"/><polygon fill="#181818" points="424.52,525.6879,433.0166,520.7071,427.4347,521.6254,426.5165,516.0435,424.52,525.6879" style="stroke:#181818;stroke-width:1.0;"/></g><path d="M713,112 L945.7651,112 A12.5,12.5 0 0 1 958.2651,124.5 L958.2651,141.0679 L700.5,141.0679 L700.5,124.5 A12.5,12.5 0 0 1 713,112 " fill="#F1F1F1" style="stroke:#F1F1F1;stroke-width:1.0;"/><rect fill="none" height="339.0679" rx="12.5" ry="12.5" style="stroke:#181818;stroke-width:0.5;" width="257.7651" x="700.5" y="112"/><line style="stroke:#181818;stroke-width:0.5;" x1="700.5" x2="958.2651" y1="141.0679" y2="141.0679"/><text fill="#000000" font-family="sans-serif" font-size="14" lengthAdjust="spacing" textLength="140.9375" x="758.9138" y="131.9659">Administrador_Valida</text><ellipse cx="801.5" cy="162.0679" fill="#222222" rx="10" ry="10" style="stroke:#222222;stroke-width:1.0;"/><g id="Administrador_Valida.Revisando"><rect fill="#F1F1F1" height="50" rx="12.5" ry="12.5" style="stroke:#181818;stroke-width:0.5;" width="87.6197" x="757.5" y="227.0679"/><line style="stroke:#181818;stroke-width:0.5;" x1="757.5" x2="845.1197" y1="256.1358" y2="256.1358"/><text fill="#000000" font-family="sans-serif" font-size="14" lengthAdjust="spacing" textLength="67.6197" x="767.5" y="247.0339">Revisando</text></g><g id="Administrador_Valida.Validada"><rect fill="#F1F1F1" height="50" rx="12.5" ry="12.5" style="stroke:#181818;stroke-width:0.5;" width="76.4058" x="712.5" y="332.0679"/><line style="stroke:#181818;stroke-width:0.5;" x1="712.5" x2="788.9058" y1="361.1358" y2="361.1358"/><text fill="#000000" font-family="sans-serif" font-size="14" lengthAdjust="spacing" textLength="56.4058" x="722.5" y="352.0339">Validada</text></g><g id="Administrador_Valida.Rechazada"><rect fill="#F1F1F1" height="50" rx="12.5" ry="12.5" style="stroke:#181818;stroke-width:0.5;" width="90.7277" x="810" y="332.0679"/><line style="stroke:#181818;stroke-width:0.5;" x1="810" x2="900.7277" y1="361.1358" y2="361.1358"/><text fill="#000000" font-family="sans-serif" font-size="14" lengthAdjust="spacing" textLength="70.7277" x="820" y="352.0339">Rechazada</text></g><ellipse cx="800.5" cy="430.0679" fill="none" rx="11" ry="11" style="stroke:#222222;stroke-width:1.0;"/><ellipse cx="800.5" cy="430.0679" fill="#222222" rx="6" ry="6" style="stroke:#222222;stroke-width:1.0;"/><!--link *start*Administrador_Valida to Revisando--><g id="link_*start*Administrador_Valida_Revisando"><path d="M801.5,172.1579 C801.5,184.9779 801.5,202.8379 801.5,220.9779 " fill="none" id="*start*Administrador_Valida-to-Revisando" style="stroke:#181818;stroke-width:1.0;"/><polygon fill="#181818" points="801.5,226.9779,805.5,217.9779,801.5,221.9779,797.5,217.9779,801.5,226.9779" style="stroke:#181818;stroke-width:1.0;"/><text fill="#000000" font-family="sans-serif" font-size="13" lengthAdjust="spacing" textLength="80.7431" x="802.5" y="204.9649">Recibe oferta</text></g><!--link Revisando to Validada--><g id="link_Revisando_Validada"><path d="M758.83,277.1479 C753.05,282.2979 747.94,288.2679 744.5,295.0679 C738.79,306.3679 738.3805,314.4903 740.9805,326.2103 " fill="none" id="Revisando-to-Validada" style="stroke:#181818;stroke-width:1.0;"/><polygon fill="#181818" points="742.28,332.0679,744.2359,322.4152,741.1971,327.1866,736.4257,324.1478,742.28,332.0679" style="stroke:#181818;stroke-width:1.0;"/><text fill="#000000" font-family="sans-serif" font-size="13" lengthAdjust="spacing" textLength="91.5201" x="745.5" y="309.9649">Valida la oferta</text></g><!--link Revisando to Rechazada--><g id="link_Revisando_Rechazada"><path d="M825.07,277.0979 C829.67,282.6779 834.11,288.8279 837.5,295.0679 C843.72,306.5179 846.6043,314.5398 849.4443,326.1498 " fill="none" id="Revisando-to-Rechazada" style="stroke:#181818;stroke-width:1.0;"/><polygon fill="#181818" points="850.87,331.9779,852.6169,322.2852,849.6819,327.1211,844.8461,324.1861,850.87,331.9779" style="stroke:#181818;stroke-width:1.0;"/><text fill="#000000" font-family="sans-serif" font-size="13" lengthAdjust="spacing" textLength="102.7651" x="845.5" y="309.9649">Invalida la oferta</text></g><!--link Validada to *end*Administrador_Valida--><g id="link_Validada_*end*Administrador_Valida"><path d="M767.43,382.1079 C776.83,395.4579 784.497,406.3311 791.147,415.7811 " fill="none" id="Validada-to-*end*Administrador_Valida" style="stroke:#181818;stroke-width:1.0;"/><polygon fill="#181818" points="794.6,420.6879,792.6918,411.0257,791.7225,416.5989,786.1493,415.6296,794.6,420.6879" style="stroke:#181818;stroke-width:1.0;"/></g><!--link Rechazada to *end*Administrador_Valida--><g id="link_Rechazada_*end*Administrador_Valida"><path d="M836.88,382.1079 C826.53,395.4579 817.9843,406.4945 810.6643,415.9445 " fill="none" id="Rechazada-to-*end*Administrador_Valida" style="stroke:#181818;stroke-width:1.0;"/><polygon fill="#181818" points="806.99,420.6879,815.6636,416.0223,810.0519,416.7351,809.3391,411.1233,806.99,420.6879" style="stroke:#181818;stroke-width:1.0;"/></g><path d="M1006.5,112 L1192.4011,112 A12.5,12.5 0 0 1 1204.9011,124.5 L1204.9011,141.0679 L994,141.0679 L994,124.5 A12.5,12.5 0 0 1 1006.5,112 " fill="#F1F1F1" style="stroke:#F1F1F1;stroke-width:1.0;"/><rect fill="none" height="339.0679" rx="12.5" ry="12.5" style="stroke:#181818;stroke-width:0.5;" width="210.9011" x="994" y="112"/><line style="stroke:#181818;stroke-width:0.5;" x1="994" x2="1204.9011" y1="141.0679" y2="141.0679"/><text fill="#000000" font-family="sans-serif" font-size="14" lengthAdjust="spacing" textLength="102.0036" x="1048.4487" y="131.9659">Estado_Usuario</text><ellipse cx="1065.5" cy="162.0679" fill="#222222" rx="10" ry="10" style="stroke:#222222;stroke-width:1.0;"/><g id="Estado_Usuario.Autenticado"><rect fill="#F1F1F1" height="50" rx="12.5" ry="12.5" style="stroke:#181818;stroke-width:0.5;" width="99.5197" x="1015.5" y="227.0679"/><line style="stroke:#181818;stroke-width:0.5;" x1="1015.5" x2="1115.0197" y1="256.1358" y2="256.1358"/><text fill="#000000" font-family="sans-serif" font-size="14" lengthAdjust="spacing" textLength="79.5197" x="1025.5" y="247.0339">Autenticado</text></g><g id="Estado_Usuario.NoAutenticado"><rect fill="#F1F1F1" height="50" rx="12.5" ry="12.5" style="stroke:#181818;stroke-width:0.5;" width="118.6296" x="1006" y="332.0679"/><line style="stroke:#181818;stroke-width:0.5;" x1="1006" x2="1124.6296" y1="361.1358" y2="361.1358"/><text fill="#000000" font-family="sans-serif" font-size="14" lengthAdjust="spacing" textLength="98.6296" x="1016" y="352.0339">NoAutenticado</text></g><ellipse cx="1065.5" cy="430.0679" fill="none" rx="11" ry="11" style="stroke:#222222;stroke-width:1.0;"/><ellipse cx="1065.5" cy="430.0679" fill="#222222" rx="6" ry="6" style="stroke:#222222;stroke-width:1.0;"/><!--link *start*Estado_Usuario to Autenticado--><g id="link_*start*Estado_Usuario_Autenticado"><path d="M1065.5,172.1579 C1065.5,184.9779 1065.5,202.8379 1065.5,220.9779 " fill="none" id="*start*Estado_Usuario-to-Autenticado" style="stroke:#181818;stroke-width:1.0;"/><polygon fill="#181818" points="1065.5,226.9779,1069.5,217.9779,1065.5,221.9779,1061.5,217.9779,1065.5,226.9779" style="stroke:#181818;stroke-width:1.0;"/><text fill="#000000" font-family="sans-serif" font-size="13" lengthAdjust="spacing" textLength="125.0731" x="1066.5" y="204.9649">Usuario inicia sesi&#243;n</text></g><!--link Autenticado to NoAutenticado--><g id="link_Autenticado_NoAutenticado"><path d="M1065.5,277.2179 C1065.5,293.6279 1065.5,309.2579 1065.5,325.7179 " fill="none" id="Autenticado-to-NoAutenticado" style="stroke:#181818;stroke-width:1.0;"/><polygon fill="#181818" points="1065.5,331.7179,1069.5,322.7179,1065.5,326.7179,1061.5,322.7179,1065.5,331.7179" style="stroke:#181818;stroke-width:1.0;"/><text fill="#000000" font-family="sans-serif" font-size="13" lengthAdjust="spacing" textLength="128.4011" x="1066.5" y="309.9649">Usuario cierra sesi&#243;n</text></g><!--link NoAutenticado to *end*Estado_Usuario--><g id="link_NoAutenticado_*end*Estado_Usuario"><path d="M1065.5,382.1079 C1065.5,394.6579 1065.5,403.3479 1065.5,412.9179 " fill="none" id="NoAutenticado-to-*end*Estado_Usuario" style="stroke:#181818;stroke-width:1.0;"/><polygon fill="#181818" points="1065.5,418.9179,1069.5,409.9179,1065.5,413.9179,1061.5,409.9179,1065.5,418.9179" style="stroke:#181818;stroke-width:1.0;"/></g><!--SRC=[VP8zRiCm38Ntd89pWLoWGu4WoT2bA08qIr0OZCoY11p9aEGCBNgaJZr2BbRzsdAgnfDCVO_Y8saiMe9LDvmaDy_AsA53-5o0-mvthx1SFa2EtiDMdY_V27qC2Bxyo41cmjDRkQCp6rRI2qwz9eEWVMWKjYge2j8BLu9ww-wSB9O3c28rUaVY7JzckCwXm8_fFEsiXE2aoj6lnSA45gHIcxMcwmRuKElzRqXmIo3SluP18gWtqXO3dA3GC98jaxIqnuvRrwVOYzYyA84UDS8vtOzzh0XzmWsRNaa-TkJTjYUMRAnsDdHA0Tsibl_oh54AwgANT2vbnJE19gqJo_vu2xsTE6SgHp59_enYvh297gv64dO1PHY_6oeVgNnlklLiJ11gszUwDQVpYdZyKLRREoQihLR5pzRuHMnUp82QrPMJrM3Tf5Z4LSwCyoyOmP0PbwC4lV19rQKY3gkKpj6flby0]--></g></svg>