<svg xmlns="http://www.w3.org/2000/svg" xmlns:xlink="http://www.w3.org/1999/xlink" contentStyleType="text/css" height="822px" preserveAspectRatio="none" style="width:951px;height:822px;background:#FFFFFF;" version="1.1" viewBox="0 0 951 822" width="951px" zoomAndPan="magnify"><defs/><g><path d="M19.5,189.5 L271.6491,189.5 A12.5,12.5 0 0 1 284.1491,202 L284.1491,218.5679 L7,218.5679 L7,202 A12.5,12.5 0 0 1 19.5,189.5 " fill="#F1F1F1" style="stroke:#F1F1F1;stroke-width:1.0;"/><rect fill="none" height="444.0679" rx="12.5" ry="12.5" style="stroke:#181818;stroke-width:0.5;" width="277.1491" x="7" y="189.5"/><line style="stroke:#181818;stroke-width:0.5;" x1="7" x2="284.1491" y1="218.5679" y2="218.5679"/><text fill="#000000" font-family="sans-serif" font-size="14" lengthAdjust="spacing" textLength="101.5976" x="94.7757" y="209.4659">Alumni_Postula</text><ellipse cx="113" cy="239.5679" fill="#222222" rx="10" ry="10" style="stroke:#222222;stroke-width:1.0;"/><g id="Alumni_Postula.Postula"><rect fill="#F1F1F1" height="50" rx="12.5" ry="12.5" style="stroke:#181818;stroke-width:0.5;" width="68.8178" x="78.5" y="304.5679"/><line style="stroke:#181818;stroke-width:0.5;" x1="78.5" x2="147.3178" y1="333.6358" y2="333.6358"/><text fill="#000000" font-family="sans-serif" font-size="14" lengthAdjust="spacing" textLength="48.8178" x="88.5" y="324.5339">Postula</text></g><g id="Alumni_Postula.EnRevision"><rect fill="#F1F1F1" height="50" rx="12.5" ry="12.5" style="stroke:#181818;stroke-width:0.5;" width="91.2037" x="67.5" y="409.5679"/><line style="stroke:#181818;stroke-width:0.5;" x1="67.5" x2="158.7037" y1="438.6358" y2="438.6358"/><text fill="#000000" font-family="sans-serif" font-size="14" lengthAdjust="spacing" textLength="71.2037" x="77.5" y="429.5339">EnRevision</text></g><g id="Alumni_Postula.Aceptado"><rect fill="#F1F1F1" height="50" rx="12.5" ry="12.5" style="stroke:#181818;stroke-width:0.5;" width="82.1598" x="19" y="514.5679"/><line style="stroke:#181818;stroke-width:0.5;" x1="19" x2="101.1598" y1="543.6358" y2="543.6358"/><text fill="#000000" font-family="sans-serif" font-size="14" lengthAdjust="spacing" textLength="62.1598" x="29" y="534.5339">Aceptado</text></g><g id="Alumni_Postula.Rechazado"><rect fill="#F1F1F1" height="50" rx="12.5" ry="12.5" style="stroke:#181818;stroke-width:0.5;" width="91.3437" x="125.5" y="514.5679"/><line style="stroke:#181818;stroke-width:0.5;" x1="125.5" x2="216.8437" y1="543.6358" y2="543.6358"/><text fill="#000000" font-family="sans-serif" font-size="14" lengthAdjust="spacing" textLength="71.3437" x="135.5" y="534.5339">Rechazado</text></g><ellipse cx="112" cy="612.5679" fill="none" rx="11" ry="11" style="stroke:#222222;stroke-width:1.0;"/><ellipse cx="112" cy="612.5679" fill="#222222" rx="6" ry="6" style="stroke:#222222;stroke-width:1.0;"/><!--link *start*Alumni_Postula to Postula--><g id="link_*start*Alumni_Postula_Postula"><path d="M113,249.6579 C113,262.4779 113,280.3379 113,298.4779 " fill="none" id="*start*Alumni_Postula-to-Postula" style="stroke:#181818;stroke-width:1.0;"/><polygon fill="#181818" points="113,304.4779,117,295.4779,113,299.4779,109,295.4779,113,304.4779" style="stroke:#181818;stroke-width:1.0;"/><text fill="#000000" font-family="sans-serif" font-size="13" lengthAdjust="spacing" textLength="106.8471" x="114" y="282.4649">Env&#237;a postulaci&#243;n</text></g><!--link Postula to EnRevision--><g id="link_Postula_EnRevision"><path d="M113,354.7179 C113,371.1279 113,386.7579 113,403.2179 " fill="none" id="Postula-to-EnRevision" style="stroke:#181818;stroke-width:1.0;"/><polygon fill="#181818" points="113,409.2179,117,400.2179,113,404.2179,109,400.2179,113,409.2179" style="stroke:#181818;stroke-width:1.0;"/><text fill="#000000" font-family="sans-serif" font-size="13" lengthAdjust="spacing" textLength="157.8591" x="114" y="387.4649">Empresa revisa postulado</text></g><!--link EnRevision to Aceptado--><g id="link_EnRevision_Aceptado"><path d="M67.48,457.7479 C60.45,463.2279 54.16,469.7979 50,477.5679 C43.97,488.8279 43.9541,497.0606 47.5441,508.7906 " fill="none" id="EnRevision-to-Aceptado" style="stroke:#181818;stroke-width:1.0;"/><polygon fill="#181818" points="49.3,514.5279,50.491,504.7513,47.8367,509.7468,42.8412,507.0926,49.3,514.5279" style="stroke:#181818;stroke-width:1.0;"/><text fill="#000000" font-family="sans-serif" font-size="13" lengthAdjust="spacing" textLength="103.3241" x="51" y="492.4649">Alumni aceptado</text></g><!--link EnRevision to Rechazado--><g id="link_EnRevision_Rechazado"><path d="M141.61,459.9479 C146.64,465.3279 151.41,471.3079 155,477.5679 C161.48,488.8679 164.2301,496.9631 166.5601,508.6831 " fill="none" id="EnRevision-to-Rechazado" style="stroke:#181818;stroke-width:1.0;"/><polygon fill="#181818" points="167.73,514.5679,169.8983,504.9607,166.7551,509.6639,162.0519,506.5206,167.73,514.5679" style="stroke:#181818;stroke-width:1.0;"/><text fill="#000000" font-family="sans-serif" font-size="13" lengthAdjust="spacing" textLength="110.1491" x="164" y="492.4649">Alumni rechazado</text></g><!--link Aceptado to *end*Alumni_Postula--><g id="link_Aceptado_*end*Alumni_Postula"><path d="M77.6,564.6079 C87.39,577.9579 95.4085,588.8946 102.3185,598.3446 " fill="none" id="Aceptado-to-*end*Alumni_Postula" style="stroke:#181818;stroke-width:1.0;"/><polygon fill="#181818" points="105.86,603.1879,103.7766,593.5619,102.9087,599.1518,97.3189,598.284,105.86,603.1879" style="stroke:#181818;stroke-width:1.0;"/></g><!--link Rechazado to *end*Alumni_Postula--><g id="link_Rechazado_*end*Alumni_Postula"><path d="M151.03,564.6079 C139.79,578.1179 130.3372,589.5154 122.5172,598.9154 " fill="none" id="Rechazado-to-*end*Alumni_Postula" style="stroke:#181818;stroke-width:1.0;"/><polygon fill="#181818" points="118.68,603.5279,127.5109,599.1673,121.8777,599.6841,121.3608,594.0509,118.68,603.5279" style="stroke:#181818;stroke-width:1.0;"/></g><path d="M331.5,7 L679.7661,7 A12.5,12.5 0 0 1 692.2661,19.5 L692.2661,36.0679 L319,36.0679 L319,19.5 A12.5,12.5 0 0 1 331.5,7 " fill="#F1F1F1" style="stroke:#F1F1F1;stroke-width:1.0;"/><rect fill="none" height="809.0679" rx="12.5" ry="12.5" style="stroke:#181818;stroke-width:0.5;" width="373.2661" x="319" y="7"/><line style="stroke:#181818;stroke-width:0.5;" x1="319" x2="692.2661" y1="36.0679" y2="36.0679"/><text fill="#000000" font-family="sans-serif" font-size="14" lengthAdjust="spacing" textLength="94.3176" x="458.4742" y="26.9659">Empresa_Crea</text><!--cluster Administrador_Valida--><g id="cluster_Administrador_Valida"><path d="M414,330.0679 L659,330.0679 A12.5,12.5 0 0 1 671.5,342.5679 L671.5,354.1358 L401.5,354.1358 L401.5,342.5679 A12.5,12.5 0 0 1 414,330.0679 " fill="#F1F1F1" style="stroke:#F1F1F1;stroke-width:1.0;"/><rect fill="none" height="209" rx="12.5" ry="12.5" style="stroke:#181818;stroke-width:0.5;" width="270" x="401.5" y="330.0679"/><line style="stroke:#181818;stroke-width:0.5;" x1="401.5" x2="671.5" y1="354.1358" y2="354.1358"/><text fill="#000000" font-family="sans-serif" font-size="14" lengthAdjust="spacing" textLength="140.9375" x="466.5" y="349.0339">Administrador_Valida</text></g><g id="Empresa_Crea.Administrador_Valida.Revisando"><rect fill="#F1F1F1" height="50" rx="12.5" ry="12.5" style="stroke:#181818;stroke-width:0.5;" width="87.6197" x="462.5" y="368.0679"/><line style="stroke:#181818;stroke-width:0.5;" x1="462.5" x2="550.1197" y1="397.1358" y2="397.1358"/><text fill="#000000" font-family="sans-serif" font-size="14" lengthAdjust="spacing" textLength="67.6197" x="472.5" y="388.0339">Revisando</text></g><g id="Empresa_Crea.Administrador_Valida.Validada"><rect fill="#F1F1F1" height="50" rx="12.5" ry="12.5" style="stroke:#181818;stroke-width:0.5;" width="76.4058" x="417.5" y="473.0679"/><line style="stroke:#181818;stroke-width:0.5;" x1="417.5" x2="493.9058" y1="502.1358" y2="502.1358"/><text fill="#000000" font-family="sans-serif" font-size="14" lengthAdjust="spacing" textLength="56.4058" x="427.5" y="493.0339">Validada</text></g><g id="Empresa_Crea.Administrador_Valida.Rechazada"><rect fill="#F1F1F1" height="50" rx="12.5" ry="12.5" style="stroke:#181818;stroke-width:0.5;" width="90.7277" x="522" y="473.0679"/><line style="stroke:#181818;stroke-width:0.5;" x1="522" x2="612.7277" y1="502.1358" y2="502.1358"/><text fill="#000000" font-family="sans-serif" font-size="14" lengthAdjust="spacing" textLength="70.7277" x="532" y="493.0339">Rechazada</text></g><ellipse cx="506.5" cy="57.0679" fill="#222222" rx="10" ry="10" style="stroke:#222222;stroke-width:1.0;"/><g id="Empresa_Crea.Creada"><rect fill="#F1F1F1" height="50" rx="12.5" ry="12.5" style="stroke:#181818;stroke-width:0.5;" width="66.8438" x="473" y="122.0679"/><line style="stroke:#181818;stroke-width:0.5;" x1="473" x2="539.8438" y1="151.1358" y2="151.1358"/><text fill="#000000" font-family="sans-serif" font-size="14" lengthAdjust="spacing" textLength="46.8438" x="483" y="142.0339">Creada</text></g><g id="Empresa_Crea.PendienteValidacion"><rect fill="#F1F1F1" height="50" rx="12.5" ry="12.5" style="stroke:#181818;stroke-width:0.5;" width="154.1335" x="429.5" y="227.0679"/><line style="stroke:#181818;stroke-width:0.5;" x1="429.5" x2="583.6335" y1="256.1358" y2="256.1358"/><text fill="#000000" font-family="sans-serif" font-size="14" lengthAdjust="spacing" textLength="134.1335" x="439.5" y="247.0339">PendienteValidacion</text></g><g id="Empresa_Crea.Disponible"><rect fill="#F1F1F1" height="50" rx="12.5" ry="12.5" style="stroke:#181818;stroke-width:0.5;" width="89.9997" x="404.5" y="592.0679"/><line style="stroke:#181818;stroke-width:0.5;" x1="404.5" x2="494.4997" y1="621.1358" y2="621.1358"/><text fill="#000000" font-family="sans-serif" font-size="14" lengthAdjust="spacing" textLength="69.9997" x="414.5" y="612.0339">Disponible</text></g><g id="Empresa_Crea.Cancelada"><rect fill="#F1F1F1" height="50" rx="12.5" ry="12.5" style="stroke:#181818;stroke-width:0.5;" width="87.8997" x="423.5" y="697.0679"/><line style="stroke:#181818;stroke-width:0.5;" x1="423.5" x2="511.3997" y1="726.1358" y2="726.1358"/><text fill="#000000" font-family="sans-serif" font-size="14" lengthAdjust="spacing" textLength="67.8997" x="433.5" y="717.0339">Cancelada</text></g><g id="Empresa_Crea.Cerrada"><rect fill="#F1F1F1" height="50" rx="12.5" ry="12.5" style="stroke:#181818;stroke-width:0.5;" width="72.6258" x="331" y="697.0679"/><line style="stroke:#181818;stroke-width:0.5;" x1="331" x2="403.6258" y1="726.1358" y2="726.1358"/><text fill="#000000" font-family="sans-serif" font-size="14" lengthAdjust="spacing" textLength="52.6258" x="341" y="717.0339">Cerrada</text></g><ellipse cx="416.5" cy="795.0679" fill="none" rx="11" ry="11" style="stroke:#222222;stroke-width:1.0;"/><ellipse cx="416.5" cy="795.0679" fill="#222222" rx="6" ry="6" style="stroke:#222222;stroke-width:1.0;"/><!--link *start*Empresa_Crea to Creada--><g id="link_*start*Empresa_Crea_Creada"><path d="M506.5,67.1579 C506.5,79.9779 506.5,97.8379 506.5,115.9779 " fill="none" id="*start*Empresa_Crea-to-Creada" style="stroke:#181818;stroke-width:1.0;"/><polygon fill="#181818" points="506.5,121.9779,510.5,112.9779,506.5,116.9779,502.5,112.9779,506.5,121.9779" style="stroke:#181818;stroke-width:1.0;"/><text fill="#000000" font-family="sans-serif" font-size="13" lengthAdjust="spacing" textLength="143.8711" x="507.5" y="99.9649">Decide crear una oferta</text></g><!--link Creada to PendienteValidacion--><g id="link_Creada_PendienteValidacion"><path d="M506.5,172.2179 C506.5,188.6279 506.5,204.2579 506.5,220.7179 " fill="none" id="Creada-to-PendienteValidacion" style="stroke:#181818;stroke-width:1.0;"/><polygon fill="#181818" points="506.5,226.7179,510.5,217.7179,506.5,221.7179,502.5,217.7179,506.5,226.7179" style="stroke:#181818;stroke-width:1.0;"/><text fill="#000000" font-family="sans-serif" font-size="13" lengthAdjust="spacing" textLength="169.0131" x="507.5" y="204.9649">Env&#237;a oferta para validaci&#243;n</text></g><!--link PendienteValidacion to Revisando--><g id="link_PendienteValidacion_Revisando"><path d="M506.5,277.2779 C506.5,302.6379 506.5,336.2379 506.5,361.6679 " fill="none" id="PendienteValidacion-to-Revisando" style="stroke:#181818;stroke-width:1.0;"/><polygon fill="#181818" points="506.5,367.6679,510.5,358.6679,506.5,362.6679,502.5,358.6679,506.5,367.6679" style="stroke:#181818;stroke-width:1.0;"/><text fill="#000000" font-family="sans-serif" font-size="13" lengthAdjust="spacing" textLength="169.4161" x="507.5" y="309.9649">Administrador recibe oferta</text></g><!--link Revisando to Validada--><g id="link_Revisando_Validada"><path d="M462.47,411.2179 C452.15,417.4379 442.44,425.5879 436.5,436.0679 C430.05,447.4579 430.9413,455.9193 436.6313,467.5393 " fill="none" id="Revisando-to-Validada" style="stroke:#181818;stroke-width:1.0;"/><polygon fill="#181818" points="439.27,472.9279,438.9044,463.0858,437.0711,468.4374,431.7196,466.6041,439.27,472.9279" style="stroke:#181818;stroke-width:1.0;"/><text fill="#000000" font-family="sans-serif" font-size="13" lengthAdjust="spacing" textLength="91.5201" x="437.5" y="450.9649">Valida la oferta</text></g><!--link Revisando to Rechazada--><g id="link_Revisando_Rechazada"><path d="M520.8,418.2179 C530.52,434.6279 540.2721,451.0956 550.0221,467.5556 " fill="none" id="Revisando-to-Rechazada" style="stroke:#181818;stroke-width:1.0;"/><polygon fill="#181818" points="553.08,472.7179,551.9347,462.9359,550.5318,468.416,545.0517,467.013,553.08,472.7179" style="stroke:#181818;stroke-width:1.0;"/><text fill="#000000" font-family="sans-serif" font-size="13" lengthAdjust="spacing" textLength="102.7651" x="542.5" y="450.9649">Invalida la oferta</text></g><!--link Validada to Disponible--><g id="link_Validada_Disponible"><path d="M452.95,523.2979 C452.01,533.1479 451.05,544.6379 450.5,555.0679 C449.86,567.2279 449.6434,574.7782 449.5434,586.0082 " fill="none" id="Validada-to-Disponible" style="stroke:#181818;stroke-width:1.0;"/><polygon fill="#181818" points="449.49,592.0079,453.57,583.0439,449.5345,587.0081,445.5703,582.9727,449.49,592.0079" style="stroke:#181818;stroke-width:1.0;"/><text fill="#000000" font-family="sans-serif" font-size="13" lengthAdjust="spacing" textLength="106.1971" x="451.5" y="569.9649">Oferta disponible</text></g><!--link Rechazada to Cancelada--><g id="link_Rechazada_Cancelada"><path d="M572.84,523.3679 C579.55,560.4279 586.62,631.7679 554.5,679.0679 C544.51,693.7779 533.4597,701.3018 517.3997,707.6518 " fill="none" id="Rechazada-to-Cancelada" style="stroke:#181818;stroke-width:1.0;"/><polygon fill="#181818" points="511.82,709.8579,521.6603,710.2685,516.4697,708.0194,518.7187,702.8289,511.82,709.8579" style="stroke:#181818;stroke-width:1.0;"/><text fill="#000000" font-family="sans-serif" font-size="13" lengthAdjust="spacing" textLength="103.7661" x="578.5" y="622.4649">Oferta cancelada</text></g><!--link Disponible to Cerrada--><g id="link_Disponible_Cerrada"><path d="M404.4,634.4679 C392.91,640.7579 381.78,649.1379 374.5,660.0679 C367.35,670.8079 365.44,679.018 365.36,691.028 " fill="none" id="Disponible-to-Cerrada" style="stroke:#181818;stroke-width:1.0;"/><polygon fill="#181818" points="365.32,697.0279,369.3799,688.0548,365.3533,692.028,361.38,688.0015,365.32,697.0279" style="stroke:#181818;stroke-width:1.0;"/><text fill="#000000" font-family="sans-serif" font-size="13" lengthAdjust="spacing" textLength="77.337" x="375.5" y="674.9649">Cierra oferta</text></g><!--link Disponible to Cancelada--><g id="link_Disponible_Cancelada"><path d="M453.72,642.2179 C456.59,658.6279 459.3394,674.3471 462.2094,690.8071 " fill="none" id="Disponible-to-Cancelada" style="stroke:#181818;stroke-width:1.0;"/><polygon fill="#181818" points="463.24,696.7179,465.6346,687.1646,462.3811,691.7922,457.7535,688.5388,463.24,696.7179" style="stroke:#181818;stroke-width:1.0;"/><text fill="#000000" font-family="sans-serif" font-size="13" lengthAdjust="spacing" textLength="88.166" x="461.5" y="674.9649">Cancela oferta</text></g><!--link Cerrada to *end*Empresa_Crea--><g id="link_Cerrada_*end*Empresa_Crea"><path d="M384.09,747.1079 C393.31,760.4579 400.7926,771.2993 407.3126,780.7493 " fill="none" id="Cerrada-to-*end*Empresa_Crea" style="stroke:#181818;stroke-width:1.0;"/><polygon fill="#181818" points="410.72,785.6879,408.9013,776.0084,407.8805,781.5724,402.3165,780.5516,410.72,785.6879" style="stroke:#181818;stroke-width:1.0;"/></g><!--link Cancelada to *end*Empresa_Crea--><g id="link_Cancelada_*end*Empresa_Crea"><path d="M450.23,747.1079 C440.64,760.4579 432.7977,771.3628 426.0177,780.8128 " fill="none" id="Cancelada-to-*end*Empresa_Crea" style="stroke:#181818;stroke-width:1.0;"/><polygon fill="#181818" points="422.52,785.6879,431.0166,780.7071,425.4347,781.6254,424.5165,776.0435,422.52,785.6879" style="stroke:#181818;stroke-width:1.0;"/></g><path d="M739.5,242 L925.4011,242 A12.5,12.5 0 0 1 937.9011,254.5 L937.9011,271.0679 L727,271.0679 L727,254.5 A12.5,12.5 0 0 1 739.5,242 " fill="#F1F1F1" style="stroke:#F1F1F1;stroke-width:1.0;"/><rect fill="none" height="339.0679" rx="12.5" ry="12.5" style="stroke:#181818;stroke-width:0.5;" width="210.9011" x="727" y="242"/><line style="stroke:#181818;stroke-width:0.5;" x1="727" x2="937.9011" y1="271.0679" y2="271.0679"/><text fill="#000000" font-family="sans-serif" font-size="14" lengthAdjust="spacing" textLength="102.0036" x="781.4487" y="261.9659">Estado_Usuario</text><ellipse cx="798.5" cy="292.0679" fill="#222222" rx="10" ry="10" style="stroke:#222222;stroke-width:1.0;"/><g id="Estado_Usuario.Autenticado"><rect fill="#F1F1F1" height="50" rx="12.5" ry="12.5" style="stroke:#181818;stroke-width:0.5;" width="99.5197" x="748.5" y="357.0679"/><line style="stroke:#181818;stroke-width:0.5;" x1="748.5" x2="848.0197" y1="386.1358" y2="386.1358"/><text fill="#000000" font-family="sans-serif" font-size="14" lengthAdjust="spacing" textLength="79.5197" x="758.5" y="377.0339">Autenticado</text></g><g id="Estado_Usuario.NoAutenticado"><rect fill="#F1F1F1" height="50" rx="12.5" ry="12.5" style="stroke:#181818;stroke-width:0.5;" width="118.6296" x="739" y="462.0679"/><line style="stroke:#181818;stroke-width:0.5;" x1="739" x2="857.6296" y1="491.1358" y2="491.1358"/><text fill="#000000" font-family="sans-serif" font-size="14" lengthAdjust="spacing" textLength="98.6296" x="749" y="482.0339">NoAutenticado</text></g><ellipse cx="798.5" cy="560.0679" fill="none" rx="11" ry="11" style="stroke:#222222;stroke-width:1.0;"/><ellipse cx="798.5" cy="560.0679" fill="#222222" rx="6" ry="6" style="stroke:#222222;stroke-width:1.0;"/><!--link *start*Estado_Usuario to Autenticado--><g id="link_*start*Estado_Usuario_Autenticado"><path d="M798.5,302.1579 C798.5,314.9779 798.5,332.8379 798.5,350.9779 " fill="none" id="*start*Estado_Usuario-to-Autenticado" style="stroke:#181818;stroke-width:1.0;"/><polygon fill="#181818" points="798.5,356.9779,802.5,347.9779,798.5,351.9779,794.5,347.9779,798.5,356.9779" style="stroke:#181818;stroke-width:1.0;"/><text fill="#000000" font-family="sans-serif" font-size="13" lengthAdjust="spacing" textLength="125.0731" x="799.5" y="334.9649">Usuario inicia sesi&#243;n</text></g><!--link Autenticado to NoAutenticado--><g id="link_Autenticado_NoAutenticado"><path d="M798.5,407.2179 C798.5,423.6279 798.5,439.2579 798.5,455.7179 " fill="none" id="Autenticado-to-NoAutenticado" style="stroke:#181818;stroke-width:1.0;"/><polygon fill="#181818" points="798.5,461.7179,802.5,452.7179,798.5,456.7179,794.5,452.7179,798.5,461.7179" style="stroke:#181818;stroke-width:1.0;"/><text fill="#000000" font-family="sans-serif" font-size="13" lengthAdjust="spacing" textLength="128.4011" x="799.5" y="439.9649">Usuario cierra sesi&#243;n</text></g><!--link NoAutenticado to *end*Estado_Usuario--><g id="link_NoAutenticado_*end*Estado_Usuario"><path d="M798.5,512.1079 C798.5,524.6579 798.5,533.3479 798.5,542.9179 " fill="none" id="NoAutenticado-to-*end*Estado_Usuario" style="stroke:#181818;stroke-width:1.0;"/><polygon fill="#181818" points="798.5,548.9179,802.5,539.9179,798.5,543.9179,794.5,539.9179,798.5,548.9179" style="stroke:#181818;stroke-width:1.0;"/></g><!--SRC=[VPD1JiCm44NtFONNIBq02wIexO8De4gmGIYQEeCOANKYsya2r2EnuWYz61wFdJeb8gjaylxFpFV4UV2egdOu6ggVEkU75jJNIeNhzUPDhTTtAbTlrSwCvszGlHGqdNzC93F1zCxiSIH7dM71iRVeG5akJSAcYwg2P66biVVXNP19EmfIPOdUe_w0pnbkSodoantJOPHOlAXozRHQkHX1QhNUMBmEW4iDpxz5JGqg7Pwj6WoexXsjXmWdA0Q6fY4q7b-WfIRa95b8U29HFLXGOthFEKOJQQLgZcJ8UHiQjRMOf9PYsWls4Wc7R2IIqeAJeGEMtKeOcMUrcCKnqnTR-5-HmsJ9lHcNH2SPQ_9csPPStnawj1XqZv96CzLcnoI23HYDhNmdyJgN8buuHXwj5Nf3V5isT8qMrkb-TgR9gLoXY-Jl2ZbUkFhP3M2fkrgYQl3Xp4ZBocOc798cK0xTz3EL80iVkcMfbk5AwHozzFSB]--></g></svg>