<?xml version="1.0" encoding="us-ascii" standalone="no"?><svg xmlns="http://www.w3.org/2000/svg" xmlns:xlink="http://www.w3.org/1999/xlink" contentStyleType="text/css" height="596px" preserveAspectRatio="none" style="width:462px;height:596px;background:#FFFFFF;" version="1.1" viewBox="0 0 462 596" width="462px" zoomAndPan="magnify"><defs/><g><!--cluster CRUD de Usuarios--><g id="cluster_CRUD de Usuarios"><path d="M242.5,6 L371.5,6 A3.75,3.75 0 0 1 374,8.5 L381,29.6094 L452.5,29.6094 A2.5,2.5 0 0 1 455,32.1094 L455,586.5 A2.5,2.5 0 0 1 452.5,589 L242.5,589 A2.5,2.5 0 0 1 240,586.5 L240,8.5 A2.5,2.5 0 0 1 242.5,6 " fill="none" style="stroke:#000000;stroke-width:1.5;"/><line style="stroke:#000000;stroke-width:1.5;" x1="240" x2="381" y1="29.6094" y2="29.6094"/><text fill="#000000" font-family="sans-serif" font-size="14" font-weight="bold" lengthAdjust="spacing" textLength="128" x="244" y="22.5332">CRUD de Usuarios</text></g><g id="elem_CU1"><ellipse cx="347.6887" cy="61.0377" fill="#F1F1F1" rx="80.6887" ry="18.5377" style="stroke:#181818;stroke-width:0.5;"/><text fill="#000000" font-family="sans-serif" font-size="14" lengthAdjust="spacing" textLength="116" x="289.0015" y="64.9661">Crear Destinatario</text></g><g id="elem_CU2"><ellipse cx="347.7256" cy="131.9451" fill="#F1F1F1" rx="75.2256" ry="17.4451" style="stroke:#181818;stroke-width:0.5;"/><text fill="#000000" font-family="sans-serif" font-size="14" lengthAdjust="spacing" textLength="102" x="293.7256" y="136.4617">Ver Destinatario</text></g><g id="elem_CU3"><ellipse cx="347.2628" cy="205.1526" fill="#F1F1F1" rx="91.2628" ry="20.6526" style="stroke:#181818;stroke-width:0.5;"/><text fill="#000000" font-family="sans-serif" font-size="14" lengthAdjust="spacing" textLength="141" x="276.7628" y="208.8811">Actualizar Destinatario</text></g><g id="elem_CU4"><ellipse cx="347.3351" cy="279.867" fill="#F1F1F1" rx="82.3351" ry="18.867" style="stroke:#181818;stroke-width:0.5;"/><text fill="#000000" font-family="sans-serif" font-size="14" lengthAdjust="spacing" textLength="120" x="287.3351" y="283.5955">Borrar Destinatario</text></g><g id="elem_CU5"><ellipse cx="347.4277" cy="350.0855" fill="#F1F1F1" rx="68.4277" ry="16.0855" style="stroke:#181818;stroke-width:0.5;"/><text fill="#000000" font-family="sans-serif" font-size="14" lengthAdjust="spacing" textLength="83" x="302.9277" y="354.6021">Crear Gestor</text></g><g id="elem_CU6"><ellipse cx="347.4074" cy="417.0891" fill="#F1F1F1" rx="60.9074" ry="15.5891" style="stroke:#181818;stroke-width:0.5;"/><text fill="#000000" font-family="sans-serif" font-size="14" lengthAdjust="spacing" textLength="69" x="309.9074" y="421.6057">Ver Gestor</text></g><g id="elem_CU7"><ellipse cx="347.5069" cy="485.9014" fill="#F1F1F1" rx="77.5069" ry="17.9014" style="stroke:#181818;stroke-width:0.5;"/><text fill="#000000" font-family="sans-serif" font-size="14" lengthAdjust="spacing" textLength="108" x="291.3567" y="490.216">Actualizar Gestor</text></g><g id="elem_CU8"><ellipse cx="347.3041" cy="555.8608" fill="#F1F1F1" rx="69.8041" ry="16.3608" style="stroke:#181818;stroke-width:0.5;"/><text fill="#000000" font-family="sans-serif" font-size="14" lengthAdjust="spacing" textLength="87" x="300.8041" y="560.3774">Borrar Gestor</text></g><!--entity Administrador--><g id="elem_Administrador"><ellipse cx="49.5" cy="384.5" fill="#F1F1F1" rx="8" ry="8" style="stroke:#181818;stroke-width:0.5;"/><path d="M49.5,392.5 L49.5,419.5 M36.5,400.5 L62.5,400.5 M49.5,419.5 L36.5,434.5 M49.5,419.5 L62.5,434.5 " fill="none" style="stroke:#181818;stroke-width:0.5;"/><text fill="#000000" font-family="sans-serif" font-size="14" lengthAdjust="spacing" textLength="87" x="6" y="450.5332">Administrador</text></g><!--entity Usuario--><g id="elem_Usuario"><ellipse cx="174.5" cy="174.5" fill="#F1F1F1" rx="8" ry="8" style="stroke:#181818;stroke-width:0.5;"/><path d="M174.5,182.5 L174.5,209.5 M161.5,190.5 L187.5,190.5 M174.5,209.5 L161.5,224.5 M174.5,209.5 L187.5,224.5 " fill="none" style="stroke:#181818;stroke-width:0.5;"/><text fill="#000000" font-family="sans-serif" font-size="14" lengthAdjust="spacing" textLength="43" x="153" y="240.5332">Gestor</text></g><!--link Administrador to Usuario--><g id="link_Administrador_Usuario"><path d="M73.35,375.99 C96.13,337.09 121.7338,293.3825 143.7238,255.8325 " fill="none" id="Administrador-to-Usuario" style="stroke:#181818;stroke-width:1.0;"/><polygon fill="none" points="152.82,240.3,138.5463,252.8005,148.9014,258.8646,152.82,240.3" style="stroke:#181818;stroke-width:1.0;"/></g><!--link Usuario to CU1--><g id="link_Usuario_CU1"><path d="M187.45,165.88 C196.33,142.86 210.66,114.86 232,97 C246.22,85.1 258.6571,78.8575 276.3071,73.5175 " fill="none" id="Usuario-to-CU1" style="stroke:#181818;stroke-width:1.0;"/><polygon fill="#181818" points="282.05,71.78,272.2773,70.5577,277.2642,73.2279,274.594,78.2149,282.05,71.78" style="stroke:#181818;stroke-width:1.0;"/></g><!--link Usuario to CU2--><g id="link_Usuario_CU2"><path d="M196.07,189.01 C206.42,181.54 219.41,173 232,167 C251.61,157.66 268.5179,151.758 288.4979,146.088 " fill="none" id="Usuario-to-CU2" style="stroke:#181818;stroke-width:1.0;"/><polygon fill="#181818" points="294.27,144.45,284.5199,143.059,289.4599,145.815,286.7039,150.7551,294.27,144.45" style="stroke:#181818;stroke-width:1.0;"/></g><!--link Usuario to CU3--><g id="link_Usuario_CU3"><path d="M196.13,205 C211.41,205 227.39,205 249.85,205 " fill="none" id="Usuario-to-CU3" style="stroke:#181818;stroke-width:1.0;"/><polygon fill="#181818" points="255.85,205,246.85,201,250.85,205,246.85,209,255.85,205" style="stroke:#181818;stroke-width:1.0;"/></g><!--link Usuario to CU4--><g id="link_Usuario_CU4"><path d="M196.12,220.91 C206.47,228.35 219.45,236.9 232,243 C250.98,252.22 267.0609,258.18 286.5409,264.12 " fill="none" id="Usuario-to-CU4" style="stroke:#181818;stroke-width:1.0;"/><polygon fill="#181818" points="292.28,265.87,284.838,259.4189,287.4974,264.4117,282.5046,267.0711,292.28,265.87" style="stroke:#181818;stroke-width:1.0;"/></g><!--link Administrador to CU5--><g id="link_Administrador_CU5"><path d="M93.31,404.2 C111.66,399.67 133.34,394.43 153,390 C200.86,379.22 249.7363,369.1758 288.7663,361.3758 " fill="none" id="Administrador-to-CU5" style="stroke:#181818;stroke-width:1.0;"/><polygon fill="#181818" points="294.65,360.2,285.0406,358.0413,289.747,361.1799,286.6084,365.8862,294.65,360.2" style="stroke:#181818;stroke-width:1.0;"/></g><!--link Administrador to CU6--><g id="link_Administrador_CU6"><path d="M93.22,415.29 C143.98,415.63 222.9701,416.1703 280.3501,416.5503 " fill="none" id="Administrador-to-CU6" style="stroke:#181818;stroke-width:1.0;"/><polygon fill="#181818" points="286.35,416.59,277.3767,412.5305,281.3501,416.5569,277.3237,420.5303,286.35,416.59" style="stroke:#181818;stroke-width:1.0;"/></g><!--link Administrador to CU7--><g id="link_Administrador_CU7"><path d="M93.22,425.25 C145.98,437.9 229.8955,458.0305 287.1755,471.7705 " fill="none" id="Administrador-to-CU7" style="stroke:#181818;stroke-width:1.0;"/><polygon fill="#181818" points="293.01,473.17,285.1913,467.181,288.1479,472.0037,283.3252,474.9603,293.01,473.17" style="stroke:#181818;stroke-width:1.0;"/></g><!--link Administrador to CU8--><g id="link_Administrador_CU8"><path d="M93.01,443.65 C128.88,466.87 182.19,499.2 232,521 C253.33,530.34 272.1355,536.5706 293.0455,542.4706 " fill="none" id="Administrador-to-CU8" style="stroke:#181818;stroke-width:1.0;"/><polygon fill="#181818" points="298.82,544.1,291.2444,537.8063,294.0079,542.7422,289.072,545.5057,298.82,544.1" style="stroke:#181818;stroke-width:1.0;"/></g><!--SRC=[TP2z3i8m38JtF8NLlGEbKAPAq4hiI6MtqW0Hq237NVXvTzeA4AOXI-JpfzFvJcR7m0x8xWyCjIMZsRf6eMP742thissiPyBQKGJeGIXlR6qyl_QLRv6iK-g2-eXx0r6ngKgepNlZ8xWfw5xhZKRV0sIGeEmyR8FSCuDJKKqajpL1Af7KKdEB9tiDMqubl794OJ0DPVowiwXcutHYF_-RIs1PC9505kgXb2WUulYUVxf-_PsO3wt9EVcPfpzpEhBEX-j2wZoePa5ryGG0]--></g></svg>