<svg xmlns="http://www.w3.org/2000/svg" xmlns:xlink="http://www.w3.org/1999/xlink" contentStyleType="text/css" height="896px" preserveAspectRatio="none" style="width:1275px;height:896px;background:#FFFFFF;" version="1.1" viewBox="0 0 1275 896" width="1275px" zoomAndPan="magnify"><defs/><g><ellipse cx="559.2939" cy="20" fill="#222222" rx="10" ry="10" style="stroke:#222222;stroke-width:1;"/><rect fill="#F1F1F1" height="33.9688" rx="12.5" ry="12.5" style="stroke:#181818;stroke-width:0.5;" width="267.793" x="425.3975" y="50"/><text fill="#000000" font-family="sans-serif" font-size="12" lengthAdjust="spacing" textLength="247.793" x="435.3975" y="71.1387">El usuario solicita asignar una asignatura</text><rect fill="#F1F1F1" height="33.9688" rx="12.5" ry="12.5" style="stroke:#181818;stroke-width:0.5;" width="325.5898" x="396.499" y="103.9688"/><text fill="#000000" font-family="sans-serif" font-size="12" lengthAdjust="spacing" textLength="305.5898" x="406.499" y="125.1074">Sistema muestra todas las asignaturas disponibles</text><polygon fill="#F1F1F1" points="517.1013,157.9375,601.4866,157.9375,613.4866,169.9375,601.4866,181.9375,517.1013,181.9375,505.1013,169.9375,517.1013,157.9375" style="stroke:#181818;stroke-width:0.5;"/><text fill="#000000" font-family="sans-serif" font-size="11" lengthAdjust="spacing" textLength="84.3853" x="517.1013" y="173.7456">&#191;Aplicar filtros?</text><text fill="#000000" font-family="sans-serif" font-size="11" lengthAdjust="spacing" textLength="10.0386" x="495.0627" y="167.3433">S&#237;</text><text fill="#000000" font-family="sans-serif" font-size="11" lengthAdjust="spacing" textLength="14.9585" x="613.4866" y="167.3433">No</text><rect fill="#F1F1F1" height="33.9688" rx="12.5" ry="12.5" style="stroke:#181818;stroke-width:0.5;" width="304.748" x="207.6025" y="191.9375"/><text fill="#000000" font-family="sans-serif" font-size="12" lengthAdjust="spacing" textLength="284.748" x="217.6025" y="213.0762">Usuario selecciona grado o profesor como filtro</text><rect fill="#F1F1F1" height="33.9688" rx="12.5" ry="12.5" style="stroke:#181818;stroke-width:0.5;" width="468.3242" x="125.8145" y="245.9063"/><text fill="#000000" font-family="sans-serif" font-size="12" lengthAdjust="spacing" textLength="448.3242" x="135.8145" y="267.0449">Sistema filtra las asignaturas disponibles seg&#250;n los criterios seleccionados</text><rect fill="#F1F1F1" height="33.9688" rx="12.5" ry="12.5" style="stroke:#181818;stroke-width:0.5;" width="288.9453" x="614.1387" y="191.9375"/><text fill="#000000" font-family="sans-serif" font-size="12" lengthAdjust="spacing" textLength="268.9453" x="624.1387" y="213.0762">Contin&#250;a con todas las asignaturas sin filtrar</text><polygon fill="#F1F1F1" points="559.2939,285.875,571.2939,297.875,559.2939,309.875,547.2939,297.875,559.2939,285.875" style="stroke:#181818;stroke-width:0.5;"/><rect fill="#F1F1F1" height="33.9688" rx="12.5" ry="12.5" style="stroke:#181818;stroke-width:0.5;" width="215.0293" x="451.7793" y="329.875"/><text fill="#000000" font-family="sans-serif" font-size="12" lengthAdjust="spacing" textLength="195.0293" x="461.7793" y="351.0137">Usuario selecciona la asignatura</text><rect fill="#F1F1F1" height="33.9688" rx="12.5" ry="12.5" style="stroke:#181818;stroke-width:0.5;" width="231.6465" x="443.4707" y="383.8438"/><text fill="#000000" font-family="sans-serif" font-size="12" lengthAdjust="spacing" textLength="211.6465" x="453.4707" y="404.9824">Usuario selecciona el d&#237;a y la fecha</text><rect fill="#F1F1F1" height="61.9063" rx="12.5" ry="12.5" style="stroke:#181818;stroke-width:0.5;" width="327.4355" x="395.5762" y="437.8125"/><text fill="#000000" font-family="sans-serif" font-size="12" lengthAdjust="spacing" textLength="307.4355" x="405.5762" y="458.9512">Usuario selecciona preferencias de aula (opcional):</text><text fill="#000000" font-family="sans-serif" font-size="12" lengthAdjust="spacing" textLength="80.9707" x="405.5762" y="472.9199">- Aula grande</text><text fill="#000000" font-family="sans-serif" font-size="12" lengthAdjust="spacing" textLength="143.9766" x="405.5762" y="486.8887">- Aula con computadora</text><rect fill="#F1F1F1" height="33.9688" rx="12.5" ry="12.5" style="stroke:#181818;stroke-width:0.5;" width="254.6152" x="431.9863" y="519.7188"/><text fill="#000000" font-family="sans-serif" font-size="12" lengthAdjust="spacing" textLength="234.6152" x="441.9863" y="540.8574">Sistema chequea por aulas disponibles</text><polygon fill="#F1F1F1" points="455.1941,573.6875,663.3938,573.6875,675.3938,585.6875,663.3938,597.6875,455.1941,597.6875,443.1941,585.6875,455.1941,573.6875" style="stroke:#181818;stroke-width:0.5;"/><text fill="#000000" font-family="sans-serif" font-size="11" lengthAdjust="spacing" textLength="208.1997" x="455.1941" y="589.4956">&#191;Aulas que cumplen las preferencias?</text><text fill="#000000" font-family="sans-serif" font-size="11" lengthAdjust="spacing" textLength="10.0386" x="433.1555" y="583.0933">S&#237;</text><text fill="#000000" font-family="sans-serif" font-size="11" lengthAdjust="spacing" textLength="14.9585" x="675.3938" y="583.0933">No</text><rect fill="#F1F1F1" height="33.9688" rx="12.5" ry="12.5" style="stroke:#181818;stroke-width:0.5;" width="470.1582" x="11" y="607.6875"/><text fill="#000000" font-family="sans-serif" font-size="12" lengthAdjust="spacing" textLength="450.1582" x="21" y="628.8262">Sistema asigna autom&#225;ticamente un aula que cumple con las preferencias</text><polygon fill="#F1F1F1" points="773.1355,607.6875,971.8821,607.6875,983.8821,619.6875,971.8821,631.6875,773.1355,631.6875,761.1355,619.6875,773.1355,607.6875" style="stroke:#181818;stroke-width:0.5;"/><text fill="#000000" font-family="sans-serif" font-size="11" lengthAdjust="spacing" textLength="198.7466" x="773.1355" y="623.4956">&#191;Aulas disponibles sin preferencias?</text><text fill="#000000" font-family="sans-serif" font-size="11" lengthAdjust="spacing" textLength="10.0386" x="751.0969" y="617.0933">S&#237;</text><text fill="#000000" font-family="sans-serif" font-size="11" lengthAdjust="spacing" textLength="14.9585" x="983.8821" y="617.0933">No</text><rect fill="#F1F1F1" height="33.9688" rx="12.5" ry="12.5" style="stroke:#181818;stroke-width:0.5;" width="336.0195" x="511.1582" y="641.6875"/><text fill="#000000" font-family="sans-serif" font-size="12" lengthAdjust="spacing" textLength="316.0195" x="521.1582" y="662.8262">Sistema asigna autom&#225;ticamente un aula disponible</text><rect fill="#F1F1F1" height="33.9688" rx="12.5" ry="12.5" style="stroke:#181818;stroke-width:0.5;" width="397.3438" x="867.1777" y="641.6875"/><text fill="#000000" font-family="sans-serif" font-size="12" lengthAdjust="spacing" textLength="377.3438" x="877.1777" y="662.8262">Sistema muestra mensaje de error: "No hay aulas disponibles"</text><polygon fill="#F1F1F1" points="872.5088,681.6563,884.5088,693.6563,872.5088,705.6563,860.5088,693.6563,872.5088,681.6563" style="stroke:#181818;stroke-width:0.5;"/><polygon fill="#F1F1F1" points="559.2939,711.6563,571.2939,723.6563,559.2939,735.6563,547.2939,723.6563,559.2939,711.6563" style="stroke:#181818;stroke-width:0.5;"/><rect fill="#F1F1F1" height="33.9688" rx="12.5" ry="12.5" style="stroke:#181818;stroke-width:0.5;" width="508.1914" x="305.1982" y="755.6563"/><text fill="#000000" font-family="sans-serif" font-size="12" lengthAdjust="spacing" textLength="488.1914" x="315.1982" y="776.7949">Sistema guarda la informaci&#243;n y cambia el estatus de la asignatura a "Asignada"</text><rect fill="#F1F1F1" height="33.9688" rx="12.5" ry="12.5" style="stroke:#181818;stroke-width:0.5;" width="438.4355" x="340.0762" y="809.625"/><text fill="#000000" font-family="sans-serif" font-size="12" lengthAdjust="spacing" textLength="418.4355" x="350.0762" y="830.7637">Sistema muestra confirmaci&#243;n: "Asignatura asignada correctamente"</text><ellipse cx="559.2939" cy="874.5938" fill="none" rx="11" ry="11" style="stroke:#222222;stroke-width:1;"/><ellipse cx="559.2939" cy="874.5938" fill="#222222" rx="6" ry="6" style="stroke:#222222;stroke-width:1;"/><line style="stroke:#181818;stroke-width:1;" x1="559.2939" x2="559.2939" y1="30" y2="50"/><polygon fill="#181818" points="555.2939,40,559.2939,50,563.2939,40,559.2939,44" style="stroke:#181818;stroke-width:1;"/><line style="stroke:#181818;stroke-width:1;" x1="559.2939" x2="559.2939" y1="83.9688" y2="103.9688"/><polygon fill="#181818" points="555.2939,93.9688,559.2939,103.9688,563.2939,93.9688,559.2939,97.9688" style="stroke:#181818;stroke-width:1;"/><line style="stroke:#181818;stroke-width:1;" x1="359.9766" x2="359.9766" y1="225.9063" y2="245.9063"/><polygon fill="#181818" points="355.9766,235.9063,359.9766,245.9063,363.9766,235.9063,359.9766,239.9063" style="stroke:#181818;stroke-width:1;"/><line style="stroke:#181818;stroke-width:1;" x1="505.1013" x2="359.9766" y1="169.9375" y2="169.9375"/><line style="stroke:#181818;stroke-width:1;" x1="359.9766" x2="359.9766" y1="169.9375" y2="191.9375"/><polygon fill="#181818" points="355.9766,181.9375,359.9766,191.9375,363.9766,181.9375,359.9766,185.9375" style="stroke:#181818;stroke-width:1;"/><line style="stroke:#181818;stroke-width:1;" x1="613.4866" x2="758.6113" y1="169.9375" y2="169.9375"/><line style="stroke:#181818;stroke-width:1;" x1="758.6113" x2="758.6113" y1="169.9375" y2="191.9375"/><polygon fill="#181818" points="754.6113,181.9375,758.6113,191.9375,762.6113,181.9375,758.6113,185.9375" style="stroke:#181818;stroke-width:1;"/><line style="stroke:#181818;stroke-width:1;" x1="359.9766" x2="359.9766" y1="279.875" y2="297.875"/><line style="stroke:#181818;stroke-width:1;" x1="359.9766" x2="547.2939" y1="297.875" y2="297.875"/><polygon fill="#181818" points="537.2939,293.875,547.2939,297.875,537.2939,301.875,541.2939,297.875" style="stroke:#181818;stroke-width:1;"/><line style="stroke:#181818;stroke-width:1;" x1="758.6113" x2="758.6113" y1="225.9063" y2="297.875"/><line style="stroke:#181818;stroke-width:1;" x1="758.6113" x2="571.2939" y1="297.875" y2="297.875"/><polygon fill="#181818" points="581.2939,293.875,571.2939,297.875,581.2939,301.875,577.2939,297.875" style="stroke:#181818;stroke-width:1;"/><line style="stroke:#181818;stroke-width:1;" x1="559.2939" x2="559.2939" y1="137.9375" y2="157.9375"/><polygon fill="#181818" points="555.2939,147.9375,559.2939,157.9375,563.2939,147.9375,559.2939,151.9375" style="stroke:#181818;stroke-width:1;"/><line style="stroke:#181818;stroke-width:1;" x1="559.2939" x2="559.2939" y1="309.875" y2="329.875"/><polygon fill="#181818" points="555.2939,319.875,559.2939,329.875,563.2939,319.875,559.2939,323.875" style="stroke:#181818;stroke-width:1;"/><line style="stroke:#181818;stroke-width:1;" x1="559.2939" x2="559.2939" y1="363.8438" y2="383.8438"/><polygon fill="#181818" points="555.2939,373.8438,559.2939,383.8438,563.2939,373.8438,559.2939,377.8438" style="stroke:#181818;stroke-width:1;"/><line style="stroke:#181818;stroke-width:1;" x1="559.2939" x2="559.2939" y1="417.8125" y2="437.8125"/><polygon fill="#181818" points="555.2939,427.8125,559.2939,437.8125,563.2939,427.8125,559.2939,431.8125" style="stroke:#181818;stroke-width:1;"/><line style="stroke:#181818;stroke-width:1;" x1="559.2939" x2="559.2939" y1="499.7188" y2="519.7188"/><polygon fill="#181818" points="555.2939,509.7188,559.2939,519.7188,563.2939,509.7188,559.2939,513.7188" style="stroke:#181818;stroke-width:1;"/><line style="stroke:#181818;stroke-width:1;" x1="761.1355" x2="679.168" y1="619.6875" y2="619.6875"/><line style="stroke:#181818;stroke-width:1;" x1="679.168" x2="679.168" y1="619.6875" y2="641.6875"/><polygon fill="#181818" points="675.168,631.6875,679.168,641.6875,683.168,631.6875,679.168,635.6875" style="stroke:#181818;stroke-width:1;"/><line style="stroke:#181818;stroke-width:1;" x1="983.8821" x2="1065.8496" y1="619.6875" y2="619.6875"/><line style="stroke:#181818;stroke-width:1;" x1="1065.8496" x2="1065.8496" y1="619.6875" y2="641.6875"/><polygon fill="#181818" points="1061.8496,631.6875,1065.8496,641.6875,1069.8496,631.6875,1065.8496,635.6875" style="stroke:#181818;stroke-width:1;"/><line style="stroke:#181818;stroke-width:1;" x1="679.168" x2="679.168" y1="675.6563" y2="693.6563"/><line style="stroke:#181818;stroke-width:1;" x1="679.168" x2="860.5088" y1="693.6563" y2="693.6563"/><polygon fill="#181818" points="850.5088,689.6563,860.5088,693.6563,850.5088,697.6563,854.5088,693.6563" style="stroke:#181818;stroke-width:1;"/><line style="stroke:#181818;stroke-width:1;" x1="1065.8496" x2="1065.8496" y1="675.6563" y2="693.6563"/><line style="stroke:#181818;stroke-width:1;" x1="1065.8496" x2="884.5088" y1="693.6563" y2="693.6563"/><polygon fill="#181818" points="894.5088,689.6563,884.5088,693.6563,894.5088,697.6563,890.5088,693.6563" style="stroke:#181818;stroke-width:1;"/><line style="stroke:#181818;stroke-width:1;" x1="443.1941" x2="246.0791" y1="585.6875" y2="585.6875"/><line style="stroke:#181818;stroke-width:1;" x1="246.0791" x2="246.0791" y1="585.6875" y2="607.6875"/><polygon fill="#181818" points="242.0791,597.6875,246.0791,607.6875,250.0791,597.6875,246.0791,601.6875" style="stroke:#181818;stroke-width:1;"/><line style="stroke:#181818;stroke-width:1;" x1="675.3938" x2="872.5088" y1="585.6875" y2="585.6875"/><line style="stroke:#181818;stroke-width:1;" x1="872.5088" x2="872.5088" y1="585.6875" y2="607.6875"/><polygon fill="#181818" points="868.5088,597.6875,872.5088,607.6875,876.5088,597.6875,872.5088,601.6875" style="stroke:#181818;stroke-width:1;"/><line style="stroke:#181818;stroke-width:1;" x1="246.0791" x2="246.0791" y1="641.6563" y2="723.6563"/><line style="stroke:#181818;stroke-width:1;" x1="246.0791" x2="547.2939" y1="723.6563" y2="723.6563"/><polygon fill="#181818" points="537.2939,719.6563,547.2939,723.6563,537.2939,727.6563,541.2939,723.6563" style="stroke:#181818;stroke-width:1;"/><line style="stroke:#181818;stroke-width:1;" x1="872.5088" x2="872.5088" y1="705.6563" y2="723.6563"/><line style="stroke:#181818;stroke-width:1;" x1="872.5088" x2="571.2939" y1="723.6563" y2="723.6563"/><polygon fill="#181818" points="581.2939,719.6563,571.2939,723.6563,581.2939,727.6563,577.2939,723.6563" style="stroke:#181818;stroke-width:1;"/><line style="stroke:#181818;stroke-width:1;" x1="559.2939" x2="559.2939" y1="553.6875" y2="573.6875"/><polygon fill="#181818" points="555.2939,563.6875,559.2939,573.6875,563.2939,563.6875,559.2939,567.6875" style="stroke:#181818;stroke-width:1;"/><line style="stroke:#181818;stroke-width:1;" x1="559.2939" x2="559.2939" y1="735.6563" y2="755.6563"/><polygon fill="#181818" points="555.2939,745.6563,559.2939,755.6563,563.2939,745.6563,559.2939,749.6563" style="stroke:#181818;stroke-width:1;"/><line style="stroke:#181818;stroke-width:1;" x1="559.2939" x2="559.2939" y1="789.625" y2="809.625"/><polygon fill="#181818" points="555.2939,799.625,559.2939,809.625,563.2939,799.625,559.2939,803.625" style="stroke:#181818;stroke-width:1;"/><line style="stroke:#181818;stroke-width:1;" x1="559.2939" x2="559.2939" y1="843.5938" y2="863.5938"/><polygon fill="#181818" points="555.2939,853.5938,559.2939,863.5938,563.2939,853.5938,559.2939,857.5938" style="stroke:#181818;stroke-width:1;"/><!--SRC=[bLCnRkD03Epr2iALNUG3SX4OmRLfWdi0iw9i7bPB7NUto7FoW5JfqXnm-bYuQmkM4oT02W5QxN0uv8nYGarD-yj3ZXcL1Q9uTfmGCF8-e48EytlAYjkcVU2OQ40OCiMa24awZE3jESCYT1n72VpeAMuRxc7z_zzkD6fZxDadbNYxWNIW0Ek7wMNJ0BI_PmdaoJaMQxnNx0G4HfMUeYWu6UH4i2qrivZw2RzJORJxwIs0bmXEEP6rYejUdPXGyf5WVIzLpvs4n65wG-iQlXWpSZZrLgiE7VVDjJdyXnrUWP27Rdf1U2hWdjpX2zoer9DIS5pc8y1i-BMCzTPlMcXkO5U-sUw2tS_7CeDjRyp9HhqmqXteRoPZjlqMjklcrGl3WSl3wCstSbwA-UJdp7-StAYJ3DDpiWmC519PiexYpwHLv4VUIrUMQYxSDIE-K_C3FMVQ4h5bymN9d7uhZVY7YXEaAjh2wbxWW4-VLxcgT3KZfwJCP7jpkQifuT2B3kXuUWqM1PFso3KRrit2Kns_21CWh7RrrE7gojzf6-rvPcndxB7oL6OOLNBfk0OZYKd6Tm00]--></g></svg>