<svg xmlns="http://www.w3.org/2000/svg" xmlns:xlink="http://www.w3.org/1999/xlink" contentStyleType="text/css" height="460px" preserveAspectRatio="none" style="width:620px;height:460px;background:#FFFFFF;" version="1.1" viewBox="0 0 620 460" width="620px" zoomAndPan="magnify"><defs/><g><ellipse cx="230.5283" cy="20" fill="#222222" rx="10" ry="10" style="stroke:#222222;stroke-width:1;"/><rect fill="#F1F1F1" height="33.9688" rx="12.5" ry="12.5" style="stroke:#181818;stroke-width:0.5;" width="315.6523" x="72.7021" y="50"/><text fill="#000000" font-family="sans-serif" font-size="12" lengthAdjust="spacing" textLength="295.6523" x="82.7021" y="71.1387">El usuario solicita registrar una nueva asignatura</text><rect fill="#F1F1F1" height="33.9688" rx="12.5" ry="12.5" style="stroke:#181818;stroke-width:0.5;" width="342.2363" x="59.4102" y="103.9688"/><text fill="#000000" font-family="sans-serif" font-size="12" lengthAdjust="spacing" textLength="322.2363" x="69.4102" y="125.1074">Sistema muestra formulario para registrar asignatura</text><rect fill="#F1F1F1" height="33.9688" rx="12.5" ry="12.5" style="stroke:#181818;stroke-width:0.5;" width="368.2695" x="46.3936" y="157.9375"/><text fill="#000000" font-family="sans-serif" font-size="12" lengthAdjust="spacing" textLength="348.2695" x="56.3936" y="179.0762">Sistema solicita datos de la asignatura (nombre, cr&#233;ditos)</text><rect fill="#F1F1F1" height="33.9688" rx="12.5" ry="12.5" style="stroke:#181818;stroke-width:0.5;" width="184.0391" x="138.5088" y="260.3086"/><text fill="#000000" font-family="sans-serif" font-size="12" lengthAdjust="spacing" textLength="164.0391" x="148.5088" y="281.4473">Sistema permite el registro</text><rect fill="#F1F1F1" height="33.9688" rx="12.5" ry="12.5" style="stroke:#181818;stroke-width:0.5;" width="439.0566" x="11" y="329.2773"/><text fill="#000000" font-family="sans-serif" font-size="12" lengthAdjust="spacing" textLength="419.0566" x="21" y="350.416">Sistema muestra confirmaci&#243;n: "Asignatura registrada exitosamente"</text><polygon fill="#F1F1F1" points="190.4653,211.9063,270.5913,211.9063,282.5913,223.9063,270.5913,235.9063,190.4653,235.9063,178.4653,223.9063,190.4653,211.9063" style="stroke:#181818;stroke-width:0.5;"/><text fill="#000000" font-family="sans-serif" font-size="11" lengthAdjust="spacing" textLength="10.0386" x="234.5283" y="246.1167">S&#237;</text><text fill="#000000" font-family="sans-serif" font-size="11" lengthAdjust="spacing" textLength="80.126" x="190.4653" y="227.7144">Datos v&#225;lidos?</text><text fill="#000000" font-family="sans-serif" font-size="11" lengthAdjust="spacing" textLength="14.9585" x="282.5913" y="221.312">No</text><polygon fill="#F1F1F1" points="230.5283,383.2461,242.5283,395.2461,230.5283,407.2461,218.5283,395.2461,230.5283,383.2461" style="stroke:#181818;stroke-width:0.5;"/><text fill="#000000" font-family="sans-serif" font-size="11" lengthAdjust="spacing" textLength="366.2764" x="242.5283" y="392.6519">:Sistema muestra mensaje de error: "Faltan datos o son inv&#225;lidos"</text><ellipse cx="230.5283" cy="438.2461" fill="none" rx="11" ry="11" style="stroke:#222222;stroke-width:1;"/><ellipse cx="230.5283" cy="438.2461" fill="#222222" rx="6" ry="6" style="stroke:#222222;stroke-width:1;"/><line style="stroke:#181818;stroke-width:1;" x1="230.5283" x2="230.5283" y1="30" y2="50"/><polygon fill="#181818" points="226.5283,40,230.5283,50,234.5283,40,230.5283,44" style="stroke:#181818;stroke-width:1;"/><line style="stroke:#181818;stroke-width:1;" x1="230.5283" x2="230.5283" y1="83.9688" y2="103.9688"/><polygon fill="#181818" points="226.5283,93.9688,230.5283,103.9688,234.5283,93.9688,230.5283,97.9688" style="stroke:#181818;stroke-width:1;"/><line style="stroke:#181818;stroke-width:1;" x1="230.5283" x2="230.5283" y1="137.9375" y2="157.9375"/><polygon fill="#181818" points="226.5283,147.9375,230.5283,157.9375,234.5283,147.9375,230.5283,151.9375" style="stroke:#181818;stroke-width:1;"/><line style="stroke:#181818;stroke-width:1;" x1="230.5283" x2="230.5283" y1="294.2773" y2="329.2773"/><polygon fill="#181818" points="226.5283,319.2773,230.5283,329.2773,234.5283,319.2773,230.5283,323.2773" style="stroke:#181818;stroke-width:1;"/><line style="stroke:#181818;stroke-width:1;" x1="230.5283" x2="230.5283" y1="235.9063" y2="260.3086"/><polygon fill="#181818" points="226.5283,250.3086,230.5283,260.3086,234.5283,250.3086,230.5283,254.3086" style="stroke:#181818;stroke-width:1;"/><line style="stroke:#FF0000;stroke-width:1;" x1="282.5913" x2="460.0566" y1="223.9063" y2="223.9063"/><polygon fill="#FF0000" points="456.0566,301.7773,460.0566,311.7773,464.0566,301.7773,460.0566,305.7773" style="stroke:#FF0000;stroke-width:1;"/><line style="stroke:#FF0000;stroke-width:1;" x1="460.0566" x2="460.0566" y1="223.9063" y2="395.2461"/><line style="stroke:#FF0000;stroke-width:1;" x1="460.0566" x2="242.5283" y1="395.2461" y2="395.2461"/><polygon fill="#FF0000" points="252.5283,391.2461,242.5283,395.2461,252.5283,399.2461,248.5283,395.2461" style="stroke:#FF0000;stroke-width:1;"/><line style="stroke:#181818;stroke-width:1;" x1="230.5283" x2="230.5283" y1="363.2461" y2="383.2461"/><polygon fill="#181818" points="226.5283,373.2461,230.5283,383.2461,234.5283,373.2461,230.5283,377.2461" style="stroke:#181818;stroke-width:1;"/><line style="stroke:#181818;stroke-width:1;" x1="230.5283" x2="230.5283" y1="191.9063" y2="211.9063"/><polygon fill="#181818" points="226.5283,201.9063,230.5283,211.9063,234.5283,201.9063,230.5283,205.9063" style="stroke:#181818;stroke-width:1;"/><line style="stroke:#181818;stroke-width:1;" x1="230.5283" x2="230.5283" y1="407.2461" y2="427.2461"/><polygon fill="#181818" points="226.5283,417.2461,230.5283,427.2461,234.5283,417.2461,230.5283,421.2461" style="stroke:#181818;stroke-width:1;"/><!--SRC=[RP0nJiH034NxEOMrD8d4NY2HG4X0IRCbeZ0PPp6QyKGUpuhhK59GSOHSZCoAB2j1_R_V_z_PKCrrTm5ABgYS8AV00nk2qfwpAIeKGP121mJCl1UqejYxRhV8515YeUg3CMaiuGYPKCy1_vwTWZnQok09mda0D9BYiz8b33f_U5uyRUzuXERsw3_Cxu5zojSjs0i9DBlvitK09_v46ja8AAnDKd-khxM792Dhn87dB-bWS_DROLtW4UYjDi18OhJf7OLCq3oachXzl53oJzkhF-Z5dV6LwZPIJRhGxp4Ooi_c-cq1bdLB1OldqMLBqpS0]--></g></svg>