<svg xmlns="http://www.w3.org/2000/svg" xmlns:xlink="http://www.w3.org/1999/xlink" contentStyleType="text/css" height="632px" preserveAspectRatio="none" style="width:1172px;height:632px;background:#FFFFFF;" version="1.1" viewBox="0 0 1172 632" width="1172px" zoomAndPan="magnify"><defs/><g><ellipse cx="604.0801" cy="20" fill="#222222" rx="10" ry="10" style="stroke:#222222;stroke-width:1;"/><rect fill="#F1F1F1" height="33.9688" rx="12.5" ry="12.5" style="stroke:#181818;stroke-width:0.5;" width="351.8281" x="428.166" y="50"/><text fill="#000000" font-family="sans-serif" font-size="12" lengthAdjust="spacing" textLength="331.8281" x="438.166" y="71.1387">El usuario solicita asignar un profesor a una asignatura</text><rect fill="#F1F1F1" height="33.9688" rx="12.5" ry="12.5" style="stroke:#181818;stroke-width:0.5;" width="321.1543" x="443.5029" y="103.9688"/><text fill="#000000" font-family="sans-serif" font-size="12" lengthAdjust="spacing" textLength="301.1543" x="453.5029" y="125.1074">Sistema muestra formulario para asignar profesor</text><rect fill="#F1F1F1" height="33.9688" rx="12.5" ry="12.5" style="stroke:#181818;stroke-width:0.5;" width="312.5703" x="447.7949" y="157.9375"/><text fill="#000000" font-family="sans-serif" font-size="12" lengthAdjust="spacing" textLength="292.5703" x="457.7949" y="179.0762">Sistema solicita datos del profesor y asignaturas</text><rect fill="#F1F1F1" height="33.9688" rx="12.5" ry="12.5" style="stroke:#181818;stroke-width:0.5;" width="200.9434" x="503.6084" y="211.9063"/><text fill="#000000" font-family="sans-serif" font-size="12" lengthAdjust="spacing" textLength="180.9434" x="513.6084" y="233.0449">Usuario selecciona al profesor</text><rect fill="#F1F1F1" height="33.9688" rx="12.5" ry="12.5" style="stroke:#181818;stroke-width:0.5;" width="303.3828" x="452.3887" y="265.875"/><text fill="#000000" font-family="sans-serif" font-size="12" lengthAdjust="spacing" textLength="283.3828" x="462.3887" y="287.0137">Usuario selecciona una o m&#250;ltiples asignaturas</text><rect fill="#F1F1F1" height="33.9688" rx="12.5" ry="12.5" style="stroke:#181818;stroke-width:0.5;" width="486.7344" x="360.7129" y="319.8438"/><text fill="#000000" font-family="sans-serif" font-size="12" lengthAdjust="spacing" textLength="466.7344" x="370.7129" y="340.9824">Sistema verifica el n&#250;mero de asignaturas actualmente asignadas al profesor</text><polygon fill="#F1F1F1" points="506.4685,373.8125,701.6917,373.8125,713.6917,385.8125,701.6917,397.8125,506.4685,397.8125,494.4685,385.8125,506.4685,373.8125" style="stroke:#181818;stroke-width:0.5;"/><text fill="#000000" font-family="sans-serif" font-size="11" lengthAdjust="spacing" textLength="195.2231" x="506.4685" y="389.6206">&#191;Excede el l&#237;mite de 8 asignaturas?</text><text fill="#000000" font-family="sans-serif" font-size="11" lengthAdjust="spacing" textLength="10.0386" x="484.4299" y="383.2183">S&#237;</text><text fill="#000000" font-family="sans-serif" font-size="11" lengthAdjust="spacing" textLength="14.9585" x="713.6917" y="383.2183">No</text><rect fill="#F1F1F1" height="33.9688" rx="12.5" ry="12.5" style="stroke:#181818;stroke-width:0.5;" width="601.0391" x="11" y="407.8125"/><text fill="#000000" font-family="sans-serif" font-size="12" lengthAdjust="spacing" textLength="581.0391" x="21" y="428.9512">Sistema muestra mensaje de error: "El profesor ya tiene asignadas el m&#225;ximo de 8 asignaturas"</text><rect fill="#F1F1F1" height="33.9688" rx="12.5" ry="12.5" style="stroke:#181818;stroke-width:0.5;" width="283.2207" x="169.9092" y="461.7813"/><text fill="#000000" font-family="sans-serif" font-size="12" lengthAdjust="spacing" textLength="263.2207" x="179.9092" y="482.9199">Sistema cancela la operaci&#243;n de asignaci&#243;n</text><rect fill="#F1F1F1" height="33.9688" rx="12.5" ry="12.5" style="stroke:#181818;stroke-width:0.5;" width="189.3711" x="801.9551" y="407.8125"/><text fill="#000000" font-family="sans-serif" font-size="12" lengthAdjust="spacing" textLength="169.3711" x="811.9551" y="428.9512">Sistema guarda los cambios</text><rect fill="#F1F1F1" height="33.9688" rx="12.5" ry="12.5" style="stroke:#181818;stroke-width:0.5;" width="500.1582" x="646.5615" y="461.7813"/><text fill="#000000" font-family="sans-serif" font-size="12" lengthAdjust="spacing" textLength="480.1582" x="656.5615" y="482.9199">Sistema actualiza el calendario del profesor con la informaci&#243;n correspondiente</text><rect fill="#F1F1F1" height="33.9688" rx="12.5" ry="12.5" style="stroke:#181818;stroke-width:0.5;" width="529.2031" x="632.0391" y="515.75"/><text fill="#000000" font-family="sans-serif" font-size="12" lengthAdjust="spacing" textLength="509.2031" x="642.0391" y="536.8887">Sistema muestra confirmaci&#243;n: "Profesor asignado correctamente a las asignaturas"</text><polygon fill="#F1F1F1" points="604.0801,555.7188,616.0801,567.7188,604.0801,579.7188,592.0801,567.7188,604.0801,555.7188" style="stroke:#181818;stroke-width:0.5;"/><ellipse cx="604.0801" cy="610.7188" fill="none" rx="11" ry="11" style="stroke:#222222;stroke-width:1;"/><ellipse cx="604.0801" cy="610.7188" fill="#222222" rx="6" ry="6" style="stroke:#222222;stroke-width:1;"/><line style="stroke:#181818;stroke-width:1;" x1="604.0801" x2="604.0801" y1="30" y2="50"/><polygon fill="#181818" points="600.0801,40,604.0801,50,608.0801,40,604.0801,44" style="stroke:#181818;stroke-width:1;"/><line style="stroke:#181818;stroke-width:1;" x1="604.0801" x2="604.0801" y1="83.9688" y2="103.9688"/><polygon fill="#181818" points="600.0801,93.9688,604.0801,103.9688,608.0801,93.9688,604.0801,97.9688" style="stroke:#181818;stroke-width:1;"/><line style="stroke:#181818;stroke-width:1;" x1="604.0801" x2="604.0801" y1="137.9375" y2="157.9375"/><polygon fill="#181818" points="600.0801,147.9375,604.0801,157.9375,608.0801,147.9375,604.0801,151.9375" style="stroke:#181818;stroke-width:1;"/><line style="stroke:#181818;stroke-width:1;" x1="604.0801" x2="604.0801" y1="191.9063" y2="211.9063"/><polygon fill="#181818" points="600.0801,201.9063,604.0801,211.9063,608.0801,201.9063,604.0801,205.9063" style="stroke:#181818;stroke-width:1;"/><line style="stroke:#181818;stroke-width:1;" x1="604.0801" x2="604.0801" y1="245.875" y2="265.875"/><polygon fill="#181818" points="600.0801,255.875,604.0801,265.875,608.0801,255.875,604.0801,259.875" style="stroke:#181818;stroke-width:1;"/><line style="stroke:#181818;stroke-width:1;" x1="604.0801" x2="604.0801" y1="299.8438" y2="319.8438"/><polygon fill="#181818" points="600.0801,309.8438,604.0801,319.8438,608.0801,309.8438,604.0801,313.8438" style="stroke:#181818;stroke-width:1;"/><line style="stroke:#181818;stroke-width:1;" x1="311.5195" x2="311.5195" y1="441.7813" y2="461.7813"/><polygon fill="#181818" points="307.5195,451.7813,311.5195,461.7813,315.5195,451.7813,311.5195,455.7813" style="stroke:#181818;stroke-width:1;"/><line style="stroke:#181818;stroke-width:1;" x1="896.6406" x2="896.6406" y1="441.7813" y2="461.7813"/><polygon fill="#181818" points="892.6406,451.7813,896.6406,461.7813,900.6406,451.7813,896.6406,455.7813" style="stroke:#181818;stroke-width:1;"/><line style="stroke:#181818;stroke-width:1;" x1="896.6406" x2="896.6406" y1="495.75" y2="515.75"/><polygon fill="#181818" points="892.6406,505.75,896.6406,515.75,900.6406,505.75,896.6406,509.75" style="stroke:#181818;stroke-width:1;"/><line style="stroke:#181818;stroke-width:1;" x1="494.4685" x2="311.5195" y1="385.8125" y2="385.8125"/><line style="stroke:#181818;stroke-width:1;" x1="311.5195" x2="311.5195" y1="385.8125" y2="407.8125"/><polygon fill="#181818" points="307.5195,397.8125,311.5195,407.8125,315.5195,397.8125,311.5195,401.8125" style="stroke:#181818;stroke-width:1;"/><line style="stroke:#181818;stroke-width:1;" x1="713.6917" x2="896.6406" y1="385.8125" y2="385.8125"/><line style="stroke:#181818;stroke-width:1;" x1="896.6406" x2="896.6406" y1="385.8125" y2="407.8125"/><polygon fill="#181818" points="892.6406,397.8125,896.6406,407.8125,900.6406,397.8125,896.6406,401.8125" style="stroke:#181818;stroke-width:1;"/><line style="stroke:#181818;stroke-width:1;" x1="311.5195" x2="311.5195" y1="495.75" y2="567.7188"/><line style="stroke:#181818;stroke-width:1;" x1="311.5195" x2="592.0801" y1="567.7188" y2="567.7188"/><polygon fill="#181818" points="582.0801,563.7188,592.0801,567.7188,582.0801,571.7188,586.0801,567.7188" style="stroke:#181818;stroke-width:1;"/><line style="stroke:#181818;stroke-width:1;" x1="896.6406" x2="896.6406" y1="549.7188" y2="567.7188"/><line style="stroke:#181818;stroke-width:1;" x1="896.6406" x2="616.0801" y1="567.7188" y2="567.7188"/><polygon fill="#181818" points="626.0801,563.7188,616.0801,567.7188,626.0801,571.7188,622.0801,567.7188" style="stroke:#181818;stroke-width:1;"/><line style="stroke:#181818;stroke-width:1;" x1="604.0801" x2="604.0801" y1="353.8125" y2="373.8125"/><polygon fill="#181818" points="600.0801,363.8125,604.0801,373.8125,608.0801,363.8125,604.0801,367.8125" style="stroke:#181818;stroke-width:1;"/><line style="stroke:#181818;stroke-width:1;" x1="604.0801" x2="604.0801" y1="579.7188" y2="599.7188"/><polygon fill="#181818" points="600.0801,589.7188,604.0801,599.7188,608.0801,589.7188,604.0801,593.7188" style="stroke:#181818;stroke-width:1;"/><!--SRC=[RP9DJiCm48NtESM8LNi3r2nOTOkGAWumE9CooFP4OmS1j-40hDXrWqGknYHjMhT5oiO_xtqlRvmoQgvMQmzzwb5P88bdnna14syZAlGHEfMMaYYWhUQJt2lMrMh3ALD023sbh0YjQEZzPDMXdcncZq9oH3MO9K53_aHwBoZ9D8zpFFBa7CiOmvUc_rmOimg4OUSpTvxIXUKSuvMKMtO8ne_3Bf2APIal0xhSemyKyxpVZBjb06vXyVkpVdDaMdFomrTWkswhszBhRWdvcI8iDiFNiWAuAj0e2Lyc8QcAhk1cNHQ3a9bYcSDeOVXyuo1Nj9kwH3YCZZo2VTAHekFXEvx-TLhM5Vb4iBYNitHRQxSnfSt9ONXYIMVE-uBuOohHeQVOJDCucwcJEA8vZc_a07UYIgcJsF3ORlrV8wPhULPO7G_7vxYlGFOkBkDXGaP95orO86whbANx0m00]--></g></svg>