<svg xmlns="http://www.w3.org/2000/svg" xmlns:xlink="http://www.w3.org/1999/xlink" contentStyleType="text/css" height="750px" preserveAspectRatio="none" style="width:947px;height:750px;background:#FFFFFF;" version="1.1" viewBox="0 0 947 750" width="947px" zoomAndPan="magnify"><defs/><g><ellipse cx="501.4795" cy="20" fill="#222222" rx="10" ry="10" style="stroke:#222222;stroke-width:1;"/><rect fill="#F1F1F1" height="33.9688" rx="12.5" ry="12.5" style="stroke:#181818;stroke-width:0.5;" width="267.793" x="367.583" y="50"/><text fill="#000000" font-family="sans-serif" font-size="12" lengthAdjust="spacing" textLength="247.793" x="377.583" y="71.1387">El usuario solicita asignar una asignatura</text><rect fill="#F1F1F1" height="33.9688" rx="12.5" ry="12.5" style="stroke:#181818;stroke-width:0.5;" width="325.5898" x="338.6846" y="103.9688"/><text fill="#000000" font-family="sans-serif" font-size="12" lengthAdjust="spacing" textLength="305.5898" x="348.6846" y="125.1074">Sistema muestra todas las asignaturas disponibles</text><polygon fill="#F1F1F1" points="459.2869,157.9375,543.6721,157.9375,555.6721,169.9375,543.6721,181.9375,459.2869,181.9375,447.2869,169.9375,459.2869,157.9375" style="stroke:#181818;stroke-width:0.5;"/><text fill="#000000" font-family="sans-serif" font-size="11" lengthAdjust="spacing" textLength="84.3853" x="459.2869" y="173.7456">&#191;Aplicar filtros?</text><text fill="#000000" font-family="sans-serif" font-size="11" lengthAdjust="spacing" textLength="10.0386" x="437.2483" y="167.3433">S&#237;</text><text fill="#000000" font-family="sans-serif" font-size="11" lengthAdjust="spacing" textLength="14.9585" x="555.6721" y="167.3433">No</text><rect fill="#F1F1F1" height="33.9688" rx="12.5" ry="12.5" style="stroke:#181818;stroke-width:0.5;" width="304.748" x="149.7881" y="191.9375"/><text fill="#000000" font-family="sans-serif" font-size="12" lengthAdjust="spacing" textLength="284.748" x="159.7881" y="213.0762">Usuario selecciona grado o profesor como filtro</text><rect fill="#F1F1F1" height="33.9688" rx="12.5" ry="12.5" style="stroke:#181818;stroke-width:0.5;" width="468.3242" x="68" y="245.9063"/><text fill="#000000" font-family="sans-serif" font-size="12" lengthAdjust="spacing" textLength="448.3242" x="78" y="267.0449">Sistema filtra las asignaturas disponibles seg&#250;n los criterios seleccionados</text><rect fill="#F1F1F1" height="33.9688" rx="12.5" ry="12.5" style="stroke:#181818;stroke-width:0.5;" width="288.9453" x="556.3242" y="191.9375"/><text fill="#000000" font-family="sans-serif" font-size="12" lengthAdjust="spacing" textLength="268.9453" x="566.3242" y="213.0762">Contin&#250;a con todas las asignaturas sin filtrar</text><polygon fill="#F1F1F1" points="501.4795,285.875,513.4795,297.875,501.4795,309.875,489.4795,297.875,501.4795,285.875" style="stroke:#181818;stroke-width:0.5;"/><rect fill="#F1F1F1" height="33.9688" rx="12.5" ry="12.5" style="stroke:#181818;stroke-width:0.5;" width="215.0293" x="393.9648" y="329.875"/><text fill="#000000" font-family="sans-serif" font-size="12" lengthAdjust="spacing" textLength="195.0293" x="403.9648" y="351.0137">Usuario selecciona la asignatura</text><rect fill="#F1F1F1" height="33.9688" rx="12.5" ry="12.5" style="stroke:#181818;stroke-width:0.5;" width="231.6465" x="385.6563" y="383.8438"/><text fill="#000000" font-family="sans-serif" font-size="12" lengthAdjust="spacing" textLength="211.6465" x="395.6563" y="404.9824">Usuario selecciona el d&#237;a y la fecha</text><rect fill="#F1F1F1" height="33.9688" rx="12.5" ry="12.5" style="stroke:#181818;stroke-width:0.5;" width="254.6152" x="374.1719" y="437.8125"/><text fill="#000000" font-family="sans-serif" font-size="12" lengthAdjust="spacing" textLength="234.6152" x="384.1719" y="458.9512">Sistema chequea por aulas disponibles</text><polygon fill="#F1F1F1" points="447.8572,491.7813,555.1018,491.7813,567.1018,503.7813,555.1018,515.7813,447.8572,515.7813,435.8572,503.7813,447.8572,491.7813" style="stroke:#181818;stroke-width:0.5;"/><text fill="#000000" font-family="sans-serif" font-size="11" lengthAdjust="spacing" textLength="107.2446" x="447.8572" y="507.5894">&#191;Aulas disponibles?</text><text fill="#000000" font-family="sans-serif" font-size="11" lengthAdjust="spacing" textLength="10.0386" x="425.8186" y="501.187">S&#237;</text><text fill="#000000" font-family="sans-serif" font-size="11" lengthAdjust="spacing" textLength="14.9585" x="567.1018" y="501.187">No</text><rect fill="#F1F1F1" height="33.9688" rx="12.5" ry="12.5" style="stroke:#181818;stroke-width:0.5;" width="336.0195" x="97.0859" y="525.7813"/><text fill="#000000" font-family="sans-serif" font-size="12" lengthAdjust="spacing" textLength="316.0195" x="107.0859" y="546.9199">Sistema asigna autom&#225;ticamente un aula disponible</text><rect fill="#F1F1F1" height="33.9688" rx="12.5" ry="12.5" style="stroke:#181818;stroke-width:0.5;" width="508.1914" x="11" y="579.75"/><text fill="#000000" font-family="sans-serif" font-size="12" lengthAdjust="spacing" textLength="488.1914" x="21" y="600.8887">Sistema guarda la informaci&#243;n y cambia el estatus de la asignatura a "Asignada"</text><rect fill="#F1F1F1" height="33.9688" rx="12.5" ry="12.5" style="stroke:#181818;stroke-width:0.5;" width="438.4355" x="45.8779" y="633.7188"/><text fill="#000000" font-family="sans-serif" font-size="12" lengthAdjust="spacing" textLength="418.4355" x="55.8779" y="654.8574">Sistema muestra confirmaci&#243;n: "Asignatura asignada correctamente"</text><rect fill="#F1F1F1" height="33.9688" rx="12.5" ry="12.5" style="stroke:#181818;stroke-width:0.5;" width="397.3438" x="539.1914" y="525.7813"/><text fill="#000000" font-family="sans-serif" font-size="12" lengthAdjust="spacing" textLength="377.3438" x="549.1914" y="546.9199">Sistema muestra mensaje de error: "No hay aulas disponibles"</text><polygon fill="#F1F1F1" points="501.4795,673.6875,513.4795,685.6875,501.4795,697.6875,489.4795,685.6875,501.4795,673.6875" style="stroke:#181818;stroke-width:0.5;"/><ellipse cx="501.4795" cy="728.6875" fill="none" rx="11" ry="11" style="stroke:#222222;stroke-width:1;"/><ellipse cx="501.4795" cy="728.6875" fill="#222222" rx="6" ry="6" style="stroke:#222222;stroke-width:1;"/><line style="stroke:#181818;stroke-width:1;" x1="501.4795" x2="501.4795" y1="30" y2="50"/><polygon fill="#181818" points="497.4795,40,501.4795,50,505.4795,40,501.4795,44" style="stroke:#181818;stroke-width:1;"/><line style="stroke:#181818;stroke-width:1;" x1="501.4795" x2="501.4795" y1="83.9688" y2="103.9688"/><polygon fill="#181818" points="497.4795,93.9688,501.4795,103.9688,505.4795,93.9688,501.4795,97.9688" style="stroke:#181818;stroke-width:1;"/><line style="stroke:#181818;stroke-width:1;" x1="302.1621" x2="302.1621" y1="225.9063" y2="245.9063"/><polygon fill="#181818" points="298.1621,235.9063,302.1621,245.9063,306.1621,235.9063,302.1621,239.9063" style="stroke:#181818;stroke-width:1;"/><line style="stroke:#181818;stroke-width:1;" x1="447.2869" x2="302.1621" y1="169.9375" y2="169.9375"/><line style="stroke:#181818;stroke-width:1;" x1="302.1621" x2="302.1621" y1="169.9375" y2="191.9375"/><polygon fill="#181818" points="298.1621,181.9375,302.1621,191.9375,306.1621,181.9375,302.1621,185.9375" style="stroke:#181818;stroke-width:1;"/><line style="stroke:#181818;stroke-width:1;" x1="555.6721" x2="700.7969" y1="169.9375" y2="169.9375"/><line style="stroke:#181818;stroke-width:1;" x1="700.7969" x2="700.7969" y1="169.9375" y2="191.9375"/><polygon fill="#181818" points="696.7969,181.9375,700.7969,191.9375,704.7969,181.9375,700.7969,185.9375" style="stroke:#181818;stroke-width:1;"/><line style="stroke:#181818;stroke-width:1;" x1="302.1621" x2="302.1621" y1="279.875" y2="297.875"/><line style="stroke:#181818;stroke-width:1;" x1="302.1621" x2="489.4795" y1="297.875" y2="297.875"/><polygon fill="#181818" points="479.4795,293.875,489.4795,297.875,479.4795,301.875,483.4795,297.875" style="stroke:#181818;stroke-width:1;"/><line style="stroke:#181818;stroke-width:1;" x1="700.7969" x2="700.7969" y1="225.9063" y2="297.875"/><line style="stroke:#181818;stroke-width:1;" x1="700.7969" x2="513.4795" y1="297.875" y2="297.875"/><polygon fill="#181818" points="523.4795,293.875,513.4795,297.875,523.4795,301.875,519.4795,297.875" style="stroke:#181818;stroke-width:1;"/><line style="stroke:#181818;stroke-width:1;" x1="501.4795" x2="501.4795" y1="137.9375" y2="157.9375"/><polygon fill="#181818" points="497.4795,147.9375,501.4795,157.9375,505.4795,147.9375,501.4795,151.9375" style="stroke:#181818;stroke-width:1;"/><line style="stroke:#181818;stroke-width:1;" x1="501.4795" x2="501.4795" y1="309.875" y2="329.875"/><polygon fill="#181818" points="497.4795,319.875,501.4795,329.875,505.4795,319.875,501.4795,323.875" style="stroke:#181818;stroke-width:1;"/><line style="stroke:#181818;stroke-width:1;" x1="501.4795" x2="501.4795" y1="363.8438" y2="383.8438"/><polygon fill="#181818" points="497.4795,373.8438,501.4795,383.8438,505.4795,373.8438,501.4795,377.8438" style="stroke:#181818;stroke-width:1;"/><line style="stroke:#181818;stroke-width:1;" x1="501.4795" x2="501.4795" y1="417.8125" y2="437.8125"/><polygon fill="#181818" points="497.4795,427.8125,501.4795,437.8125,505.4795,427.8125,501.4795,431.8125" style="stroke:#181818;stroke-width:1;"/><line style="stroke:#181818;stroke-width:1;" x1="265.0957" x2="265.0957" y1="559.75" y2="579.75"/><polygon fill="#181818" points="261.0957,569.75,265.0957,579.75,269.0957,569.75,265.0957,573.75" style="stroke:#181818;stroke-width:1;"/><line style="stroke:#181818;stroke-width:1;" x1="265.0957" x2="265.0957" y1="613.7188" y2="633.7188"/><polygon fill="#181818" points="261.0957,623.7188,265.0957,633.7188,269.0957,623.7188,265.0957,627.7188" style="stroke:#181818;stroke-width:1;"/><line style="stroke:#181818;stroke-width:1;" x1="435.8572" x2="265.0957" y1="503.7813" y2="503.7813"/><line style="stroke:#181818;stroke-width:1;" x1="265.0957" x2="265.0957" y1="503.7813" y2="525.7813"/><polygon fill="#181818" points="261.0957,515.7813,265.0957,525.7813,269.0957,515.7813,265.0957,519.7813" style="stroke:#181818;stroke-width:1;"/><line style="stroke:#181818;stroke-width:1;" x1="567.1018" x2="737.8633" y1="503.7813" y2="503.7813"/><line style="stroke:#181818;stroke-width:1;" x1="737.8633" x2="737.8633" y1="503.7813" y2="525.7813"/><polygon fill="#181818" points="733.8633,515.7813,737.8633,525.7813,741.8633,515.7813,737.8633,519.7813" style="stroke:#181818;stroke-width:1;"/><line style="stroke:#181818;stroke-width:1;" x1="265.0957" x2="265.0957" y1="667.6875" y2="685.6875"/><line style="stroke:#181818;stroke-width:1;" x1="265.0957" x2="489.4795" y1="685.6875" y2="685.6875"/><polygon fill="#181818" points="479.4795,681.6875,489.4795,685.6875,479.4795,689.6875,483.4795,685.6875" style="stroke:#181818;stroke-width:1;"/><line style="stroke:#181818;stroke-width:1;" x1="737.8633" x2="737.8633" y1="559.75" y2="685.6875"/><line style="stroke:#181818;stroke-width:1;" x1="737.8633" x2="513.4795" y1="685.6875" y2="685.6875"/><polygon fill="#181818" points="523.4795,681.6875,513.4795,685.6875,523.4795,689.6875,519.4795,685.6875" style="stroke:#181818;stroke-width:1;"/><line style="stroke:#181818;stroke-width:1;" x1="501.4795" x2="501.4795" y1="471.7813" y2="491.7813"/><polygon fill="#181818" points="497.4795,481.7813,501.4795,491.7813,505.4795,481.7813,501.4795,485.7813" style="stroke:#181818;stroke-width:1;"/><line style="stroke:#181818;stroke-width:1;" x1="501.4795" x2="501.4795" y1="697.6875" y2="717.6875"/><polygon fill="#181818" points="497.4795,707.6875,501.4795,717.6875,505.4795,707.6875,501.4795,711.6875" style="stroke:#181818;stroke-width:1;"/><!--SRC=[VP91Ri9034NtEON52gu0YmfLtR91FO2PEE1gCaxjoOBZz02ikcDJgRbOJI0g1Df5f6Jo_VpzFPPHSp5_YT1QYye29f43PmGqtYPKQDFmdbl5HJ5VisMg4UgMB2j2bX8DeZ-_CeEIhP74cqYsABY2wVVNid6q4okEMSMUPf1tb62wxWwp0c3-EbYWI26mUEEjOYaWqAXKPA8Gf9OBO76g6SpqH_YV2yTkksE2A0P1EPEtigjUfRXHYaOmNKdlvrbIvjGTqRkcFyOqJfVUwjMfvAfuD4SSPVX0GX7Axe2mFuah2hlhhCEEtbj2Q3m2RECV-Ov_t2KyuCvUd9IbxZwoRwMcbCbttTEl63SXRzrqsG_3gHAjCN3tcTonrs-u7y6lXC_eBkXsPa2OBFkl4YStqE4QUSOL3ypve3xNNWfTeqeXdzrEHkiQ0rra-4OdAwGgwioLm0xtzmbEXjrPbkO7]--></g></svg>