<svg xmlns="http://www.w3.org/2000/svg" xmlns:xlink="http://www.w3.org/1999/xlink" contentStyleType="text/css" data-diagram-type="SEQUENCE" height="415px" preserveAspectRatio="none" style="width:743px;height:415px;background:#FFFFFF;" version="1.1" viewBox="0 0 743 415" width="743px" zoomAndPan="magnify"><defs/><g><line style="stroke:#181818;stroke-width:0.5;stroke-dasharray:5.0,5.0;" x1="57" x2="57" y1="81.2969" y2="334.3594"/><line style="stroke:#181818;stroke-width:0.5;stroke-dasharray:5.0,5.0;" x1="357.2778" x2="357.2778" y1="81.2969" y2="334.3594"/><line style="stroke:#181818;stroke-width:0.5;stroke-dasharray:5.0,5.0;" x1="692.6797" x2="692.6797" y1="81.2969" y2="334.3594"/><text fill="#000000" font-family="sans-serif" font-size="14" lengthAdjust="spacing" textLength="99.0801" x="5" y="77.9951">Administrador</text><ellipse cx="57.54" cy="13.5" fill="#E2E2F0" rx="8" ry="8" style="stroke:#181818;stroke-width:0.5;"/><path d="M57.54,21.5 L57.54,48.5 M44.54,29.5 L70.54,29.5 M57.54,48.5 L44.54,63.5 M57.54,48.5 L70.54,63.5 " fill="none" style="stroke:#181818;stroke-width:0.5;"/><text fill="#000000" font-family="sans-serif" font-size="14" lengthAdjust="spacing" textLength="99.0801" x="5" y="346.3545">Administrador</text><ellipse cx="57.54" cy="358.1563" fill="#E2E2F0" rx="8" ry="8" style="stroke:#181818;stroke-width:0.5;"/><path d="M57.54,366.1563 L57.54,393.1563 M44.54,374.1563 L70.54,374.1563 M57.54,393.1563 L44.54,408.1563 M57.54,393.1563 L70.54,408.1563 " fill="none" style="stroke:#181818;stroke-width:0.5;"/><rect fill="#E2E2F0" height="30.2969" rx="2.5" ry="2.5" style="stroke:#181818;stroke-width:0.5;" width="70.3896" x="322.2778" y="50"/><text fill="#000000" font-family="sans-serif" font-size="14" lengthAdjust="spacing" textLength="56.3896" x="329.2778" y="69.9951">Sistema</text><rect fill="#E2E2F0" height="30.2969" rx="2.5" ry="2.5" style="stroke:#181818;stroke-width:0.5;" width="70.3896" x="322.2778" y="333.3594"/><text fill="#000000" font-family="sans-serif" font-size="14" lengthAdjust="spacing" textLength="56.3896" x="329.2778" y="353.3545">Sistema</text><rect fill="#E2E2F0" height="30.2969" rx="2.5" ry="2.5" style="stroke:#181818;stroke-width:0.5;" width="88.7988" x="648.6797" y="50"/><text fill="#000000" font-family="sans-serif" font-size="14" lengthAdjust="spacing" textLength="74.7988" x="655.6797" y="69.9951">BaseDatos</text><rect fill="#E2E2F0" height="30.2969" rx="2.5" ry="2.5" style="stroke:#181818;stroke-width:0.5;" width="88.7988" x="648.6797" y="333.3594"/><text fill="#000000" font-family="sans-serif" font-size="14" lengthAdjust="spacing" textLength="74.7988" x="655.6797" y="353.3545">BaseDatos</text><polygon fill="#181818" points="345.4727,108.4297,355.4727,112.4297,345.4727,116.4297,349.4727,112.4297" style="stroke:#181818;stroke-width:1;"/><line style="stroke:#181818;stroke-width:1;" x1="57.54" x2="351.4727" y1="112.4297" y2="112.4297"/><text fill="#000000" font-family="sans-serif" font-size="13" lengthAdjust="spacing" textLength="193.0132" x="64.54" y="107.3638">Selecciona "Asignar Profesor"</text><polygon fill="#181818" points="345.4727,137.5625,355.4727,141.5625,345.4727,145.5625,349.4727,141.5625" style="stroke:#181818;stroke-width:1;"/><line style="stroke:#181818;stroke-width:1;" x1="57.54" x2="351.4727" y1="141.5625" y2="141.5625"/><text fill="#000000" font-family="sans-serif" font-size="13" lengthAdjust="spacing" textLength="210.7993" x="64.54" y="136.4966">Selecciona asignatura de la lista</text><polygon fill="#181818" points="681.0791,166.6953,691.0791,170.6953,681.0791,174.6953,685.0791,170.6953" style="stroke:#181818;stroke-width:1;"/><line style="stroke:#181818;stroke-width:1;" x1="357.4727" x2="687.0791" y1="170.6953" y2="170.6953"/><text fill="#000000" font-family="sans-serif" font-size="13" lengthAdjust="spacing" textLength="259.0923" x="364.4727" y="165.6294">Consulta lista de profesores disponibles</text><polygon fill="#181818" points="368.4727,195.8281,358.4727,199.8281,368.4727,203.8281,364.4727,199.8281" style="stroke:#181818;stroke-width:1;"/><line style="stroke:#181818;stroke-width:1;stroke-dasharray:2.0,2.0;" x1="362.4727" x2="692.0791" y1="199.8281" y2="199.8281"/><text fill="#000000" font-family="sans-serif" font-size="13" lengthAdjust="spacing" textLength="185.9165" x="374.4727" y="194.7622">Devuelve lista de profesores</text><polygon fill="#181818" points="345.4727,224.9609,355.4727,228.9609,345.4727,232.9609,349.4727,228.9609" style="stroke:#181818;stroke-width:1;"/><line style="stroke:#181818;stroke-width:1;" x1="57.54" x2="351.4727" y1="228.9609" y2="228.9609"/><text fill="#000000" font-family="sans-serif" font-size="13" lengthAdjust="spacing" textLength="195.5396" x="64.54" y="223.895">Selecciona profesor de la lista</text><polygon fill="#181818" points="681.0791,254.0938,691.0791,258.0938,681.0791,262.0938,685.0791,258.0938" style="stroke:#181818;stroke-width:1;"/><line style="stroke:#181818;stroke-width:1;" x1="357.4727" x2="687.0791" y1="258.0938" y2="258.0938"/><text fill="#000000" font-family="sans-serif" font-size="13" lengthAdjust="spacing" textLength="311.6064" x="364.4727" y="253.0278">Vincula profesor con la asignatura seleccionada</text><polygon fill="#181818" points="368.4727,283.2266,358.4727,287.2266,368.4727,291.2266,364.4727,287.2266" style="stroke:#181818;stroke-width:1;"/><line style="stroke:#181818;stroke-width:1;stroke-dasharray:2.0,2.0;" x1="362.4727" x2="692.0791" y1="287.2266" y2="287.2266"/><text fill="#000000" font-family="sans-serif" font-size="13" lengthAdjust="spacing" textLength="180.6606" x="374.4727" y="282.1606">Confirmaci&#243;n de asignaci&#243;n</text><polygon fill="#181818" points="68.54,312.3594,58.54,316.3594,68.54,320.3594,64.54,316.3594" style="stroke:#181818;stroke-width:1;"/><line style="stroke:#181818;stroke-width:1;stroke-dasharray:2.0,2.0;" x1="62.54" x2="356.4727" y1="316.3594" y2="316.3594"/><text fill="#000000" font-family="sans-serif" font-size="13" lengthAdjust="spacing" textLength="275.9326" x="74.54" y="311.2935">Notifica "Profesor asignado exitosamente"</text><!--SRC=[ZP11YW9134NtVOhGUoym2w7KzI08xZDLwI5GdKYbMhpN7C6BcTPkTM16N5Rntlz9C5Oj45BFmbOB9d-XGMYQ08ibxFoJUeGFs56c65a5eGt6tu85jaKxCYtj2nYlR1qAGYB82DafR6RMjHKQRR2gkRXMiI7NYHgDmzH11edjeC9VcQnvI8jVpHiw3fIFz5V0Yobdw9qPzonno4zEL1cbfqtjdfpmtr5zruvBZv7FFp8MtmAkpqUtAy7XJwtSSVJZpqUVyAH09_Pqx4agjHS0]--></g></svg>