<svg xmlns="http://www.w3.org/2000/svg" xmlns:xlink="http://www.w3.org/1999/xlink" contentStyleType="text/css" data-diagram-type="DESCRIPTION" height="1856px" preserveAspectRatio="none" style="width:802px;height:1856px;background:#FFFFFF;" version="1.1" viewBox="0 0 802 1856" width="802px" zoomAndPan="magnify"><defs/><g><!--cluster Gesti?n de Horarios Universitarios--><g id="cluster_Gesti&#243;n de Horarios Universitarios"><rect fill="#FFFFFF" fill-opacity="0.00000" height="1843" rx="2.5" ry="2.5" style="stroke:#181818;stroke-width:1;" width="671.11" x="125.08" y="7"/><text fill="#000000" font-family="sans-serif" font-size="14" font-weight="bold" lengthAdjust="spacing" textLength="272.46" x="324.405" y="21.9951">Gesti&#243;n de Horarios Universitarios</text></g><!--cluster Gesti?n de AsignaturaGradoProfesor--><g id="cluster_Gesti&#243;n de AsignaturaGradoProfesor"><path d="M151.58,1430 L443.3603,1430 A3.75,3.75 0 0 1 445.8603,1432.5 L452.8603,1452.2969 L459.42,1452.2969 A2.5,2.5 0 0 1 461.92,1454.7969 L461.92,1823.5 A2.5,2.5 0 0 1 459.42,1826 L151.58,1826 A2.5,2.5 0 0 1 149.08,1823.5 L149.08,1432.5 A2.5,2.5 0 0 1 151.58,1430 " fill="#FFFFFF" fill-opacity="0.00000" style="stroke:#000000;stroke-width:1.5;"/><line style="stroke:#000000;stroke-width:1.5;" x1="149.08" x2="452.8603" y1="1452.2969" y2="1452.2969"/><text fill="#000000" font-family="sans-serif" font-size="14" font-weight="bold" lengthAdjust="spacing" textLength="290.7803" x="153.08" y="1444.9951">Gesti&#243;n de AsignaturaGradoProfesor</text></g><!--cluster Gesti?n de HorarioAsignaturaAula--><g id="cluster_Gesti&#243;n de HorarioAsignaturaAula"><path d="M160.15,1024 L431.2789,1024 A3.75,3.75 0 0 1 433.7789,1026.5 L440.7789,1046.2969 L769.69,1046.2969 A2.5,2.5 0 0 1 772.19,1048.7969 L772.19,1403.5 A2.5,2.5 0 0 1 769.69,1406 L160.15,1406 A2.5,2.5 0 0 1 157.65,1403.5 L157.65,1026.5 A2.5,2.5 0 0 1 160.15,1024 " fill="#FFFFFF" fill-opacity="0.00000" style="stroke:#000000;stroke-width:1.5;"/><line style="stroke:#000000;stroke-width:1.5;" x1="157.65" x2="440.7789" y1="1046.2969" y2="1046.2969"/><text fill="#000000" font-family="sans-serif" font-size="14" font-weight="bold" lengthAdjust="spacing" textLength="270.1289" x="161.65" y="1038.9951">Gesti&#243;n de HorarioAsignaturaAula</text></g><!--cluster Gesti?n de Horario--><g id="cluster_Gesti&#243;n de Horario"><path d="M208.96,694 L358.628,694 A3.75,3.75 0 0 1 361.128,696.5 L368.128,716.2969 L402.04,716.2969 A2.5,2.5 0 0 1 404.54,718.7969 L404.54,997.5 A2.5,2.5 0 0 1 402.04,1000 L208.96,1000 A2.5,2.5 0 0 1 206.46,997.5 L206.46,696.5 A2.5,2.5 0 0 1 208.96,694 " fill="#FFFFFF" fill-opacity="0.00000" style="stroke:#000000;stroke-width:1.5;"/><line style="stroke:#000000;stroke-width:1.5;" x1="206.46" x2="368.128" y1="716.2969" y2="716.2969"/><text fill="#000000" font-family="sans-serif" font-size="14" font-weight="bold" lengthAdjust="spacing" textLength="148.668" x="210.46" y="708.9951">Gesti&#243;n de Horario</text></g><!--cluster Gesti?n de AsignaturaGrado--><g id="cluster_Gesti&#243;n de AsignaturaGrado"><path d="M178.9,318 L403.4557,318 A3.75,3.75 0 0 1 405.9557,320.5 L412.9557,340.2969 L432.1,340.2969 A2.5,2.5 0 0 1 434.6,342.7969 L434.6,667.5 A2.5,2.5 0 0 1 432.1,670 L178.9,670 A2.5,2.5 0 0 1 176.4,667.5 L176.4,320.5 A2.5,2.5 0 0 1 178.9,318 " fill="#FFFFFF" fill-opacity="0.00000" style="stroke:#000000;stroke-width:1.5;"/><line style="stroke:#000000;stroke-width:1.5;" x1="176.4" x2="412.9557" y1="340.2969" y2="340.2969"/><text fill="#000000" font-family="sans-serif" font-size="14" font-weight="bold" lengthAdjust="spacing" textLength="223.5557" x="180.4" y="332.9951">Gesti&#243;n de AsignaturaGrado</text></g><g id="elem_UC1"><ellipse cx="305.4959" cy="286.0012" fill="#F1F1F1" rx="70.2059" ry="16.4412" style="stroke:#181818;stroke-width:0.5;"/><text fill="#000000" font-family="sans-serif" font-size="14" lengthAdjust="spacing" textLength="93.3857" x="255.803" y="289.7487">Iniciar Sesi&#243;n</text></g><g id="elem_UC2"><ellipse cx="305.5009" cy="216.0002" fill="#F1F1F1" rx="78.6509" ry="18.1302" style="stroke:#181818;stroke-width:0.5;"/><text fill="#000000" font-family="sans-serif" font-size="14" lengthAdjust="spacing" textLength="115.2266" x="245.698" y="219.5306">Asignar Profesor</text></g><g id="elem_UC3"><ellipse cx="305.5045" cy="144.0009" fill="#F1F1F1" rx="81.4545" ry="18.6909" style="stroke:#181818;stroke-width:0.5;"/><text fill="#000000" font-family="sans-serif" font-size="14" lengthAdjust="spacing" textLength="122.0215" x="243.3624" y="147.2198">Editar Asignaci&#243;n</text></g><g id="elem_UC4"><ellipse cx="305.4998" cy="66" fill="#F1F1F1" rx="109.8498" ry="24.37" style="stroke:#181818;stroke-width:0.5;"/><text fill="#000000" font-family="sans-serif" font-size="14" lengthAdjust="spacing" textLength="185.5547" x="212.7225" y="68.8466">Consultar Horario Profesor</text></g><g id="elem_UC5"><ellipse cx="305.4997" cy="1780.0039" fill="#F1F1F1" rx="140.4197" ry="30.4839" style="stroke:#181818;stroke-width:0.5;"/><text fill="#000000" font-family="sans-serif" font-size="14" lengthAdjust="spacing" textLength="250.4824" x="180.2585" y="1782.8506">Actualizar AsignaturaGradoProfesor</text></g><g id="elem_UC6"><ellipse cx="305.4964" cy="1683.9973" fill="#F1F1F1" rx="139.1864" ry="30.2373" style="stroke:#181818;stroke-width:0.5;"/><text fill="#000000" font-family="sans-serif" font-size="14" lengthAdjust="spacing" textLength="247.8984" x="181.5471" y="1686.844">Consultar AsignaturaGradoProfesor</text></g><g id="elem_UC7"><ellipse cx="305.5001" cy="1589" fill="#F1F1F1" rx="134.5501" ry="29.31" style="stroke:#181818;stroke-width:0.5;"/><text fill="#000000" font-family="sans-serif" font-size="14" lengthAdjust="spacing" textLength="238.1641" x="186.4181" y="1591.8467">Eliminar AsignaturaGradoProfesor</text></g><g id="elem_UC8"><ellipse cx="305.4965" cy="1495.0013" fill="#F1F1F1" rx="137.7065" ry="29.9413" style="stroke:#181818;stroke-width:0.5;"/><text fill="#000000" font-family="sans-serif" font-size="14" lengthAdjust="spacing" textLength="244.7949" x="183.099" y="1497.848">Registrar AsignaturaGradoProfesor</text></g><g id="elem_UC9"><ellipse cx="305.5025" cy="1361.0005" fill="#F1F1F1" rx="131.8525" ry="28.7705" style="stroke:#181818;stroke-width:0.5;"/><text fill="#000000" font-family="sans-serif" font-size="14" lengthAdjust="spacing" textLength="232.4834" x="189.2608" y="1363.8472">Actualizar HorarioAsignaturaAula</text></g><g id="elem_UC10"><ellipse cx="305.4974" cy="1268.9955" fill="#F1F1F1" rx="130.6274" ry="28.5255" style="stroke:#181818;stroke-width:0.5;"/><text fill="#000000" font-family="sans-serif" font-size="14" lengthAdjust="spacing" textLength="229.8994" x="190.5477" y="1271.8422">Consultar HorarioAsignaturaAula</text></g><g id="elem_UC11"><ellipse cx="305.5047" cy="1178.0049" fill="#F1F1F1" rx="126.0247" ry="27.6049" style="stroke:#181818;stroke-width:0.5;"/><text fill="#000000" font-family="sans-serif" font-size="14" lengthAdjust="spacing" textLength="220.165" x="195.4222" y="1180.8516">Eliminar HorarioAsignaturaAula</text></g><g id="elem_UC12"><ellipse cx="305.4978" cy="1087.0016" fill="#F1F1F1" rx="129.1578" ry="28.2316" style="stroke:#181818;stroke-width:0.5;"/><text fill="#000000" font-family="sans-serif" font-size="14" lengthAdjust="spacing" textLength="226.7959" x="192.0999" y="1089.8482">Registrar HorarioAsignaturaAula</text></g><g id="elem_UC21"><ellipse cx="631.055" cy="1086.997" fill="#F1F1F1" rx="125.135" ry="27.427" style="stroke:#181818;stroke-width:0.5;"/><text fill="#000000" font-family="sans-serif" font-size="14" lengthAdjust="spacing" textLength="218.2783" x="521.9158" y="1089.8437">Asignar Aula Autom&#225;ticamente</text></g><g id="elem_UC13"><ellipse cx="305.4987" cy="964.9977" fill="#F1F1F1" rx="83.0387" ry="19.0077" style="stroke:#181818;stroke-width:0.5;"/><text fill="#000000" font-family="sans-serif" font-size="14" lengthAdjust="spacing" textLength="125.7676" x="242.035" y="968.0406">Actualizar Horario</text></g><g id="elem_UC14"><ellipse cx="305.5031" cy="891.9986" fill="#F1F1F1" rx="81.9431" ry="18.7886" style="stroke:#181818;stroke-width:0.5;"/><text fill="#000000" font-family="sans-serif" font-size="14" lengthAdjust="spacing" textLength="123.1836" x="242.9533" y="895.1632">Consultar Horario</text></g><g id="elem_UC15"><ellipse cx="305.5035" cy="819.9967" fill="#F1F1F1" rx="77.9335" ry="17.9867" style="stroke:#181818;stroke-width:0.5;"/><text fill="#000000" font-family="sans-serif" font-size="14" lengthAdjust="spacing" textLength="113.4492" x="246.2992" y="823.6069">Eliminar Horario</text></g><g id="elem_UC16"><ellipse cx="305.504" cy="747.9988" fill="#F1F1F1" rx="80.644" ry="18.5288" style="stroke:#181818;stroke-width:0.5;"/><text fill="#000000" font-family="sans-serif" font-size="14" lengthAdjust="spacing" textLength="120.0801" x="244.0381" y="751.3077">Registrar Horario</text></g><g id="elem_UC17"><ellipse cx="305.4967" cy="628.9993" fill="#F1F1F1" rx="113.0967" ry="25.0193" style="stroke:#181818;stroke-width:0.5;"/><text fill="#000000" font-family="sans-serif" font-size="14" lengthAdjust="spacing" textLength="192.5615" x="209.2159" y="631.846">Actualizar AsignaturaGrado</text></g><g id="elem_UC18"><ellipse cx="305.4975" cy="543.9995" fill="#F1F1F1" rx="111.8975" ry="24.7795" style="stroke:#181818;stroke-width:0.5;"/><text fill="#000000" font-family="sans-serif" font-size="14" lengthAdjust="spacing" textLength="189.9775" x="210.5087" y="546.8462">Consultar AsignaturaGrado</text></g><g id="elem_UC19"><ellipse cx="305.4996" cy="459.9999" fill="#F1F1F1" rx="107.3996" ry="23.8799" style="stroke:#181818;stroke-width:0.5;"/><text fill="#000000" font-family="sans-serif" font-size="14" lengthAdjust="spacing" textLength="180.2432" x="215.3781" y="462.8466">Eliminar AsignaturaGrado</text></g><g id="elem_UC20"><ellipse cx="305.5" cy="377.002" fill="#F1F1F1" rx="110.46" ry="24.492" style="stroke:#181818;stroke-width:0.5;"/><text fill="#000000" font-family="sans-serif" font-size="14" lengthAdjust="spacing" textLength="186.874" x="212.063" y="379.8487">Registrar AsignaturaGrado</text></g><!--entity Administrador--><g id="elem_Administrador"><ellipse cx="55.54" cy="826.35" fill="#F1F1F1" rx="8" ry="8" style="stroke:#181818;stroke-width:0.5;"/><path d="M55.54,834.35 L55.54,861.35 M42.54,842.35 L68.54,842.35 M55.54,861.35 L42.54,876.35 M55.54,861.35 L68.54,876.35 " fill="#FFFFFF" fill-opacity="0.00000" style="stroke:#181818;stroke-width:0.5;"/><text fill="#000000" font-family="sans-serif" font-size="14" lengthAdjust="spacing" textLength="99.0801" x="6" y="890.8451">Administrador</text></g><!--link Administrador to UC1--><g id="link_Administrador_UC1"><path d="M58.56,817.7 C64.88,703.89 85.79,373.36 117.08,337 C146.01,303.39 188.7026,291.4749 229.1926,287.2349 " fill="#FFFFFF" fill-opacity="0.00000" id="Administrador-to-UC1" style="stroke:#181818;stroke-width:1;"/><polygon fill="#181818" points="235.16,286.61,225.7924,283.5691,230.1872,287.1307,226.6255,291.5256,235.16,286.61" style="stroke:#181818;stroke-width:1;"/></g><!--link Administrador to UC2--><g id="link_Administrador_UC2"><path d="M57.76,817.7 C62.14,691.42 78.87,293.81 117.08,252 C145.13,221.31 184.7241,212.2718 223.9141,210.8218 " fill="#FFFFFF" fill-opacity="0.00000" id="Administrador-to-UC2" style="stroke:#181818;stroke-width:1;"/><polygon fill="#181818" points="229.91,210.6,220.7683,206.9355,224.9134,210.7849,221.064,214.93,229.91,210.6" style="stroke:#181818;stroke-width:1;"/></g><!--link Administrador to UC3--><g id="link_Administrador_UC3"><path d="M57.33,817.49 C60.49,681.21 74.16,227.47 117.08,180 C144.3,149.9 182.3962,140.6335 220.9662,138.8735 " fill="#FFFFFF" fill-opacity="0.00000" id="Administrador-to-UC3" style="stroke:#181818;stroke-width:1;"/><polygon fill="#181818" points="226.96,138.6,217.787,135.0144,221.9652,138.8279,218.1517,143.0061,226.96,138.6" style="stroke:#181818;stroke-width:1;"/></g><!--link Administrador to UC4--><g id="link_Administrador_UC4"><path d="M57.03,817.51 C59.22,672.13 70.23,161.9 117.08,108 C136.88,85.22 160.2161,74.4744 189.7261,68.5844 " fill="#FFFFFF" fill-opacity="0.00000" id="Administrador-to-UC4" style="stroke:#181818;stroke-width:1;"/><polygon fill="#181818" points="195.61,67.41,186.0012,65.249,190.7067,68.3887,187.567,73.0942,195.61,67.41" style="stroke:#181818;stroke-width:1;"/></g><!--link Administrador to UC5--><g id="link_Administrador_UC5"><path d="M56.59,894.54 C57.16,1055.28 62.9,1666.96 117.08,1732 C131.91,1749.81 146.6992,1759.54 168.6592,1767.13 " fill="#FFFFFF" fill-opacity="0.00000" id="Administrador-to-UC5" style="stroke:#181818;stroke-width:1;"/><polygon fill="#181818" points="174.33,1769.09,167.1304,1762.3694,169.6043,1767.4567,164.5171,1769.9306,174.33,1769.09" style="stroke:#181818;stroke-width:1;"/></g><!--link Administrador to UC6--><g id="link_Administrador_UC6"><path d="M56.94,894.54 C58.85,1043.86 69.03,1578.8 117.08,1636 C132.1,1653.87 147.0921,1663.6404 169.2521,1671.2104 " fill="#FFFFFF" fill-opacity="0.00000" id="Administrador-to-UC6" style="stroke:#181818;stroke-width:1;"/><polygon fill="#181818" points="174.93,1673.15,167.7063,1666.4554,170.1985,1671.5337,165.1202,1674.0258,174.93,1673.15" style="stroke:#181818;stroke-width:1;"/></g><!--link Administrador to UC7--><g id="link_Administrador_UC7"><path d="M57.37,894.52 C60.69,1031.95 74.87,1492.55 117.08,1542 C132.76,1560.37 148.7367,1570.2974 171.8067,1577.6974 " fill="#FFFFFF" fill-opacity="0.00000" id="Administrador-to-UC7" style="stroke:#181818;stroke-width:1;"/><polygon fill="#181818" points="177.52,1579.53,170.1718,1572.9722,172.7589,1578.0028,167.7283,1580.5899,177.52,1579.53" style="stroke:#181818;stroke-width:1;"/></g><!--link Administrador to UC8--><g id="link_Administrador_UC8"><path d="M56.04,894.54 C55.32,1005.61 58.52,1323.72 117.08,1406 C139.95,1438.13 171.9376,1456.9386 207.4676,1470.3686 " fill="#FFFFFF" fill-opacity="0.00000" id="Administrador-to-UC8" style="stroke:#181818;stroke-width:1;"/><polygon fill="#181818" points="213.08,1472.49,206.0756,1465.5662,208.403,1470.7221,203.247,1473.0495,213.08,1472.49" style="stroke:#181818;stroke-width:1;"/></g><!--link Administrador to UC9--><g id="link_Administrador_UC9"><path d="M56.24,894.63 C56.3,993.7 61.83,1253.34 117.08,1315 C133.51,1333.34 150.2215,1343.1881 173.8715,1350.4081 " fill="#FFFFFF" fill-opacity="0.00000" id="Administrador-to-UC9" style="stroke:#181818;stroke-width:1;"/><polygon fill="#181818" points="179.61,1352.16,172.1701,1345.7065,174.8279,1350.7001,169.8343,1353.3579,179.61,1352.16" style="stroke:#181818;stroke-width:1;"/></g><!--link Administrador to UC10--><g id="link_Administrador_UC10"><path d="M57.68,894.51 C60.97,978.76 73.27,1175.67 117.08,1223 C134.04,1241.32 151.2403,1251.1551 175.2803,1258.3251 " fill="#FFFFFF" fill-opacity="0.00000" id="Administrador-to-UC10" style="stroke:#181818;stroke-width:1;"/><polygon fill="#181818" points="181.03,1260.04,173.5487,1253.6346,176.2386,1258.6109,171.2622,1261.3008,181.03,1260.04" style="stroke:#181818;stroke-width:1;"/></g><!--link Administrador to UC11--><g id="link_Administrador_UC11"><path d="M59.96,894.54 C66.77,962.47 84.27,1099.51 117.08,1133 C135.23,1151.52 153.7862,1161.3638 178.8962,1168.2938 " fill="#FFFFFF" fill-opacity="0.00000" id="Administrador-to-UC11" style="stroke:#181818;stroke-width:1;"/><polygon fill="#181818" points="184.68,1169.89,177.0685,1163.6398,179.8602,1168.5598,174.9402,1171.3515,184.68,1169.89" style="stroke:#181818;stroke-width:1;"/></g><!--link Administrador to UC12--><g id="link_Administrador_UC12"><path d="M64.56,894.56 C72.91,926.31 88.85,970.71 117.08,1000 C146.21,1030.22 182.237,1048.8967 218.877,1062.5367 " fill="#FFFFFF" fill-opacity="0.00000" id="Administrador-to-UC12" style="stroke:#181818;stroke-width:1;"/><polygon fill="#181818" points="224.5,1064.63,217.461,1057.7414,219.8142,1062.8856,214.67,1065.2387,224.5,1064.63" style="stroke:#181818;stroke-width:1;"/></g><!--link Administrador to UC13--><g id="link_Administrador_UC13"><path d="M80.92,894.38 C90.7,906.9 103.02,919.7 117.08,928 C149.21,946.97 183.3523,955.6196 218.1923,960.2496 " fill="#FFFFFF" fill-opacity="0.00000" id="Administrador-to-UC13" style="stroke:#181818;stroke-width:1;"/><polygon fill="#181818" points="224.14,961.04,215.7454,955.8892,219.1836,960.3813,214.6915,963.8195,224.14,961.04" style="stroke:#181818;stroke-width:1;"/></g><!--link Administrador to UC14--><g id="link_Administrador_UC14"><path d="M105.53,863.11 C142.65,868.5 188.1921,875.1188 229.4921,881.1088 " fill="#FFFFFF" fill-opacity="0.00000" id="Administrador-to-UC14" style="stroke:#181818;stroke-width:1;"/><polygon fill="#181818" points="235.43,881.97,227.0973,876.7196,230.4818,881.2523,225.9491,884.6368,235.43,881.97" style="stroke:#181818;stroke-width:1;"/></g><!--link Administrador to UC15--><g id="link_Administrador_UC15"><path d="M105.53,848.89 C143.64,843.35 190.9422,836.4816 232.7722,830.4116 " fill="#FFFFFF" fill-opacity="0.00000" id="Administrador-to-UC15" style="stroke:#181818;stroke-width:1;"/><polygon fill="#181818" points="238.71,829.55,229.2289,826.8839,233.7618,830.268,230.3777,834.801,238.71,829.55" style="stroke:#181818;stroke-width:1;"/></g><!--link Administrador to UC16--><g id="link_Administrador_UC16"><path d="M81.6,817.42 C91.3,805.31 103.38,793.02 117.08,785 C149.85,765.81 184.8494,757.1481 220.0994,752.5981 " fill="#FFFFFF" fill-opacity="0.00000" id="Administrador-to-UC16" style="stroke:#181818;stroke-width:1;"/><polygon fill="#181818" points="226.05,751.83,216.612,749.0151,221.0911,752.4701,217.6361,756.9492,226.05,751.83" style="stroke:#181818;stroke-width:1;"/></g><!--link Administrador to UC17--><g id="link_Administrador_UC17"><path d="M64.53,817.61 C72.86,786.02 88.79,741.89 117.08,713 C147.77,681.67 186.5524,662.9904 224.4724,650.0304 " fill="#FFFFFF" fill-opacity="0.00000" id="Administrador-to-UC17" style="stroke:#181818;stroke-width:1;"/><polygon fill="#181818" points="230.15,648.09,220.34,647.2156,225.4187,649.707,222.9273,654.7857,230.15,648.09" style="stroke:#181818;stroke-width:1;"/></g><!--link Administrador to UC18--><g id="link_Administrador_UC18"><path d="M60.13,817.59 C67.14,751.02 84.85,618.23 117.08,586 C137.71,565.37 160.274,555.201 188.744,549.081 " fill="#FFFFFF" fill-opacity="0.00000" id="Administrador-to-UC18" style="stroke:#181818;stroke-width:1;"/><polygon fill="#181818" points="194.61,547.82,184.9704,545.8008,189.7217,548.8708,186.6517,553.6221,194.61,547.82" style="stroke:#181818;stroke-width:1;"/></g><!--link Administrador to UC19--><g id="link_Administrador_UC19"><path d="M57.87,817.55 C61.5,735.46 74.4,546.92 117.08,502 C138.21,479.76 162.4708,469.228 192.4308,463.388 " fill="#FFFFFF" fill-opacity="0.00000" id="Administrador-to-UC19" style="stroke:#181818;stroke-width:1;"/><polygon fill="#181818" points="198.32,462.24,188.721,460.0358,193.4124,463.1966,190.2516,467.888,198.32,462.24" style="stroke:#181818;stroke-width:1;"/></g><!--link Administrador to UC20--><g id="link_Administrador_UC20"><path d="M56.46,817.41 C57.09,721.64 63.98,476.69 117.08,419 C137.29,397.04 160.4024,386.5058 189.5524,380.5258 " fill="#FFFFFF" fill-opacity="0.00000" id="Administrador-to-UC20" style="stroke:#181818;stroke-width:1;"/><polygon fill="#181818" points="195.43,379.32,185.8098,377.2102,190.532,380.3248,187.4174,385.047,195.43,379.32" style="stroke:#181818;stroke-width:1;"/></g><!--link UC12 to UC21--><g id="link_UC12_UC21"><path d="M434.84,1087 C458.13,1087 476.39,1087 499.56,1087 " fill="#FFFFFF" fill-opacity="0.00000" id="UC12-to-UC21" style="stroke:#181818;stroke-width:1;"/><polygon fill="#181818" points="505.56,1087,496.56,1083,500.56,1087,496.56,1091,505.56,1087" style="stroke:#181818;stroke-width:1;"/></g><!--SRC=[bPHDRiCW48Ntd09b7odaFvjAKHIbtLMjUW24YJkg0nNWBXhrC3r3Zv2B5HFJrCa4EvPboUFtmRm7k91RHvsc1l9NHpCmKZZGYX0kd3PqcUr0WNM6PzeGKdtbAYyaxMsaTN3uKJIJz5uRRa1R-gBWGneBBhpsw9uGwg_IIi6jXnuK2E26FajRiJtAFRDYJT7IGgwywD7ehRJQrAfXKxNEgbdeKIp-ZJPgwbPQsRAef7MNv-EEW_wTYpUUd_aw3kvAmpTL02Tm7vXcryALl83FlvuGBCmtkMHFFQRHwIMwBi2lK2ivkoIVP1uMjWsT1_IBN8-f3lOqpB8iU5j8Lw0mvI8LKGfaWqH2IP2b0agIGyHclOChcNyulJjyEn1y9vMJSJkphhbsJ3BsC-eGNjIEs-EAqac7WA9sschjRClTUABYFBCRZb9avjtFK4GMDnoUkBg3686_2MdyHcc_VnV-UbXrY5P7Q7MCLYTeTOfMPsXrZbONk8i1NiRTCTmUm_qnt2337JBS8iCzCjmamrtwvQoQZs_i5m00]--></g></svg>