<svg xmlns="http://www.w3.org/2000/svg" xmlns:xlink="http://www.w3.org/1999/xlink" contentStyleType="text/css" height="507px" preserveAspectRatio="none" style="width:652px;height:507px;background:#FFFFFF;" version="1.1" viewBox="0 0 652 507" width="652px" zoomAndPan="magnify"><title>Consultar Horario Profesor</title><defs/><g><text fill="#000000" font-family="sans-serif" font-size="14" font-weight="bold" lengthAdjust="spacing" textLength="211.9824" x="218.6128" y="32.9951">Consultar Horario Profesor</text><ellipse cx="315.834" cy="57.2969" fill="#222222" rx="10" ry="10" style="stroke:#222222;stroke-width:1;"/><rect fill="#F1F1F1" height="33.9688" rx="12.5" ry="12.5" style="stroke:#181818;stroke-width:0.5;" width="466.0215" x="82.8232" y="87.2969"/><text fill="#000000" font-family="sans-serif" font-size="12" lengthAdjust="spacing" textLength="446.0215" x="92.8232" y="108.4355">El usuario solicita introducir consulta del horario de un profesor espec&#237;fico</text><rect fill="#F1F1F1" height="33.9688" rx="12.5" ry="12.5" style="stroke:#181818;stroke-width:0.5;" width="381.5762" x="125.0459" y="141.2656"/><text fill="#000000" font-family="sans-serif" font-size="12" lengthAdjust="spacing" textLength="361.5762" x="135.0459" y="162.4043">El sistema permite la introducci&#243;n de datos para la consulta</text><rect fill="#F1F1F1" height="33.9688" rx="12.5" ry="12.5" style="stroke:#181818;stroke-width:0.5;" width="275.7266" x="177.9707" y="195.2344"/><text fill="#000000" font-family="sans-serif" font-size="12" lengthAdjust="spacing" textLength="255.7266" x="187.9707" y="216.373">El usuario introduce selecci&#243;n del profesor</text><path d="M475.4463,239.2031 L475.4463,262.9023 L455.4463,266.9023 L475.4463,270.9023 L475.4463,294.6016 A0,0 0 0 0 475.4463,294.6016 L640.208,294.6016 A0,0 0 0 0 640.208,294.6016 L640.208,249.2031 L630.208,239.2031 L475.4463,239.2031 A0,0 0 0 0 475.4463,239.2031 " fill="#FEFFDD" style="stroke:#181818;stroke-width:0.5;"/><path d="M630.208,239.2031 L630.208,249.2031 L640.208,249.2031 L630.208,239.2031 " fill="#FEFFDD" style="stroke:#181818;stroke-width:0.5;"/><text fill="#000000" font-family="sans-serif" font-size="13" lengthAdjust="spacing" textLength="133.9292" x="481.4463" y="256.27">En formato de tabla:</text><text fill="#000000" font-family="sans-serif" font-size="13" lengthAdjust="spacing" textLength="143.7617" x="481.4463" y="271.4028">- D&#237;as como columnas</text><text fill="#000000" font-family="sans-serif" font-size="13" lengthAdjust="spacing" textLength="117.1587" x="481.4463" y="286.5356">- Horas como filas</text><rect fill="#F1F1F1" height="33.9688" rx="12.5" ry="12.5" style="stroke:#181818;stroke-width:0.5;" width="279.2246" x="176.2217" y="249.918"/><text fill="#000000" font-family="sans-serif" font-size="12" lengthAdjust="spacing" textLength="259.2246" x="186.2217" y="271.0566">El sistema presenta un calendario semanal</text><polygon fill="#F1F1F1" points="192.6587,314.6016,439.0093,314.6016,451.0093,326.6016,439.0093,338.6016,192.6587,338.6016,180.6587,326.6016,192.6587,314.6016" style="stroke:#181818;stroke-width:0.5;"/><text fill="#000000" font-family="sans-serif" font-size="11" lengthAdjust="spacing" textLength="246.3506" x="192.6587" y="330.4097">&#191;Existen bloques ocupados con asignaturas?</text><text fill="#000000" font-family="sans-serif" font-size="11" lengthAdjust="spacing" textLength="10.0386" x="170.6201" y="324.0073">S&#237;</text><text fill="#000000" font-family="sans-serif" font-size="11" lengthAdjust="spacing" textLength="14.9585" x="451.0093" y="324.0073">No</text><rect fill="#F1F1F1" height="75.875" rx="12.5" ry="12.5" style="stroke:#181818;stroke-width:0.5;" width="291.0195" x="11" y="348.6016"/><text fill="#000000" font-family="sans-serif" font-size="12" lengthAdjust="spacing" textLength="271.0195" x="21" y="369.7402">El sistema muestra en cada bloque ocupado:</text><text fill="#000000" font-family="sans-serif" font-size="12" lengthAdjust="spacing" textLength="73.1133" x="28.6289" y="383.709">- Asignatura</text><text fill="#000000" font-family="sans-serif" font-size="12" lengthAdjust="spacing" textLength="90.9727" x="28.6289" y="397.6777">- Hora de inicio</text><text fill="#000000" font-family="sans-serif" font-size="12" lengthAdjust="spacing" textLength="34.6465" x="28.6289" y="411.6465">- Aula</text><rect fill="#F1F1F1" height="33.9688" rx="12.5" ry="12.5" style="stroke:#181818;stroke-width:0.5;" width="306.2773" x="322.0195" y="348.6016"/><text fill="#000000" font-family="sans-serif" font-size="12" lengthAdjust="spacing" textLength="286.2773" x="332.0195" y="369.7402">El sistema muestra los bloques libres en blanco</text><polygon fill="#F1F1F1" points="315.834,430.4766,327.834,442.4766,315.834,454.4766,303.834,442.4766,315.834,430.4766" style="stroke:#181818;stroke-width:0.5;"/><ellipse cx="315.834" cy="485.4766" fill="none" rx="11" ry="11" style="stroke:#222222;stroke-width:1;"/><ellipse cx="315.834" cy="485.4766" fill="#222222" rx="6" ry="6" style="stroke:#222222;stroke-width:1;"/><line style="stroke:#181818;stroke-width:1;" x1="315.834" x2="315.834" y1="67.2969" y2="87.2969"/><polygon fill="#181818" points="311.834,77.2969,315.834,87.2969,319.834,77.2969,315.834,81.2969" style="stroke:#181818;stroke-width:1;"/><line style="stroke:#181818;stroke-width:1;" x1="315.834" x2="315.834" y1="121.2656" y2="141.2656"/><polygon fill="#181818" points="311.834,131.2656,315.834,141.2656,319.834,131.2656,315.834,135.2656" style="stroke:#181818;stroke-width:1;"/><line style="stroke:#181818;stroke-width:1;" x1="315.834" x2="315.834" y1="175.2344" y2="195.2344"/><polygon fill="#181818" points="311.834,185.2344,315.834,195.2344,319.834,185.2344,315.834,189.2344" style="stroke:#181818;stroke-width:1;"/><line style="stroke:#181818;stroke-width:1;" x1="315.834" x2="315.834" y1="229.2031" y2="249.918"/><polygon fill="#181818" points="311.834,239.918,315.834,249.918,319.834,239.918,315.834,243.918" style="stroke:#181818;stroke-width:1;"/><line style="stroke:#181818;stroke-width:1;" x1="180.6587" x2="156.5098" y1="326.6016" y2="326.6016"/><line style="stroke:#181818;stroke-width:1;" x1="156.5098" x2="156.5098" y1="326.6016" y2="348.6016"/><polygon fill="#181818" points="152.5098,338.6016,156.5098,348.6016,160.5098,338.6016,156.5098,342.6016" style="stroke:#181818;stroke-width:1;"/><line style="stroke:#181818;stroke-width:1;" x1="451.0093" x2="475.1582" y1="326.6016" y2="326.6016"/><line style="stroke:#181818;stroke-width:1;" x1="475.1582" x2="475.1582" y1="326.6016" y2="348.6016"/><polygon fill="#181818" points="471.1582,338.6016,475.1582,348.6016,479.1582,338.6016,475.1582,342.6016" style="stroke:#181818;stroke-width:1;"/><line style="stroke:#181818;stroke-width:1;" x1="156.5098" x2="156.5098" y1="424.4766" y2="442.4766"/><line style="stroke:#181818;stroke-width:1;" x1="156.5098" x2="303.834" y1="442.4766" y2="442.4766"/><polygon fill="#181818" points="293.834,438.4766,303.834,442.4766,293.834,446.4766,297.834,442.4766" style="stroke:#181818;stroke-width:1;"/><line style="stroke:#181818;stroke-width:1;" x1="475.1582" x2="475.1582" y1="382.5703" y2="442.4766"/><line style="stroke:#181818;stroke-width:1;" x1="475.1582" x2="327.834" y1="442.4766" y2="442.4766"/><polygon fill="#181818" points="337.834,438.4766,327.834,442.4766,337.834,446.4766,333.834,442.4766" style="stroke:#181818;stroke-width:1;"/><line style="stroke:#181818;stroke-width:1;" x1="315.834" x2="315.834" y1="283.8867" y2="314.6016"/><polygon fill="#181818" points="311.834,304.6016,315.834,314.6016,319.834,304.6016,315.834,308.6016" style="stroke:#181818;stroke-width:1;"/><line style="stroke:#181818;stroke-width:1;" x1="315.834" x2="315.834" y1="454.4766" y2="474.4766"/><polygon fill="#181818" points="311.834,464.4766,315.834,474.4766,319.834,464.4766,315.834,468.4766" style="stroke:#181818;stroke-width:1;"/><!--SRC=[TP9BJiD0343tEOMNxQ8NQ1S8GILM28aJk3DEQyaPX_6CnAMwuW18v69uIb8-4fii_7b-zgHm4O8xJLQbO8O7pPXPuIbhJwQvCu-MRhiNg5OlALFXm0M1KyaQQ-0COGP0987Jp8W4DS4uau1if32TUmwwkm2DhT20C58Uk138DpBmz9OQ869HWn4pjlGoPlTBQ6aYC1Awzifrz9zncOoIkxfSGA4KlzRoN4BPTKdT9VFnLBfzWbxpu0xDfU11SDjju7uwexdCeFwHEYGqZxRJpT6UnKDEXWRhk8VLn_l-jGaaE8Y-L3BGK4UCsbeIeF4nOQcEk5b3ENdTwdawhpk0d-w3DnQ_1JNrY3DhGMsz6c03jrVO76XgRGDE_dAwL5NnGv8OmUfH_viaBhWO2n_yTd3P0LDxHb-HU_z7TFm4]--></g></svg>