<svg xmlns="http://www.w3.org/2000/svg" xmlns:xlink="http://www.w3.org/1999/xlink" contentStyleType="text/css" height="470px" preserveAspectRatio="none" style="width:637px;height:470px;background:#FFFFFF;" version="1.1" viewBox="0 0 637 470" width="637px" zoomAndPan="magnify"><defs/><g><ellipse cx="309.7754" cy="20" fill="#222222" rx="10" ry="10" style="stroke:#222222;stroke-width:1;"/><rect fill="#F1F1F1" height="33.9688" rx="12.5" ry="12.5" style="stroke:#181818;stroke-width:0.5;" width="401.5156" x="109.0176" y="50"/><text fill="#000000" font-family="sans-serif" font-size="12" lengthAdjust="spacing" textLength="381.5156" x="119.0176" y="71.1387">El usuario solicita consultar el horario de un profesor espec&#237;fico</text><rect fill="#F1F1F1" height="33.9688" rx="12.5" ry="12.5" style="stroke:#181818;stroke-width:0.5;" width="200.9434" x="209.3037" y="103.9688"/><text fill="#000000" font-family="sans-serif" font-size="12" lengthAdjust="spacing" textLength="180.9434" x="219.3037" y="125.1074">Usuario selecciona al profesor</text><rect fill="#F1F1F1" height="33.9688" rx="12.5" ry="12.5" style="stroke:#181818;stroke-width:0.5;" width="343.6133" x="137.9688" y="157.9375"/><text fill="#000000" font-family="sans-serif" font-size="12" lengthAdjust="spacing" textLength="323.6133" x="147.9688" y="179.0762">Sistema solicita los datos de asignaturas y profesores</text><path d="M461.0498,201.9063 L461.0498,225.6055 L441.0498,229.6055 L461.0498,233.6055 L461.0498,257.3047 A0,0 0 0 0 461.0498,257.3047 L625.8115,257.3047 A0,0 0 0 0 625.8115,257.3047 L625.8115,211.9063 L615.8115,201.9063 L461.0498,201.9063 A0,0 0 0 0 461.0498,201.9063 " fill="#FEFFDD" style="stroke:#181818;stroke-width:0.5;"/><path d="M615.8115,201.9063 L615.8115,211.9063 L625.8115,211.9063 L615.8115,201.9063 " fill="#FEFFDD" style="stroke:#181818;stroke-width:0.5;"/><text fill="#000000" font-family="sans-serif" font-size="13" lengthAdjust="spacing" textLength="133.9292" x="467.0498" y="218.9731">En formato de tabla:</text><text fill="#000000" font-family="sans-serif" font-size="13" lengthAdjust="spacing" textLength="143.7617" x="467.0498" y="234.106">- D&#237;as como columnas</text><text fill="#000000" font-family="sans-serif" font-size="13" lengthAdjust="spacing" textLength="117.1587" x="467.0498" y="249.2388">- Horas como filas</text><rect fill="#F1F1F1" height="33.9688" rx="12.5" ry="12.5" style="stroke:#181818;stroke-width:0.5;" width="262.5488" x="178.501" y="212.6211"/><text fill="#000000" font-family="sans-serif" font-size="12" lengthAdjust="spacing" textLength="242.5488" x="188.501" y="233.7598">Sistema muestra un calendario semanal</text><polygon fill="#F1F1F1" points="211.1353,277.3047,408.4155,277.3047,420.4155,289.3047,408.4155,301.3047,211.1353,301.3047,199.1353,289.3047,211.1353,277.3047" style="stroke:#181818;stroke-width:0.5;"/><text fill="#000000" font-family="sans-serif" font-size="11" lengthAdjust="spacing" textLength="197.2803" x="211.1353" y="293.1128">Bloques ocupados con asignaturas?</text><text fill="#000000" font-family="sans-serif" font-size="11" lengthAdjust="spacing" textLength="10.0386" x="189.0967" y="286.7104">S&#237;</text><text fill="#000000" font-family="sans-serif" font-size="11" lengthAdjust="spacing" textLength="14.9585" x="420.4155" y="286.7104">No</text><rect fill="#F1F1F1" height="75.875" rx="12.5" ry="12.5" style="stroke:#181818;stroke-width:0.5;" width="291.0195" x="11" y="311.3047"/><text fill="#000000" font-family="sans-serif" font-size="12" lengthAdjust="spacing" textLength="271.0195" x="21" y="332.4434">El sistema muestra en cada bloque ocupado:</text><text fill="#000000" font-family="sans-serif" font-size="12" lengthAdjust="spacing" textLength="73.1133" x="28.6289" y="346.4121">- Asignatura</text><text fill="#000000" font-family="sans-serif" font-size="12" lengthAdjust="spacing" textLength="90.9727" x="28.6289" y="360.3809">- Hora de inicio</text><text fill="#000000" font-family="sans-serif" font-size="12" lengthAdjust="spacing" textLength="34.6465" x="28.6289" y="374.3496">- Aula</text><rect fill="#F1F1F1" height="33.9688" rx="12.5" ry="12.5" style="stroke:#181818;stroke-width:0.5;" width="282.043" x="322.0195" y="311.3047"/><text fill="#000000" font-family="sans-serif" font-size="12" lengthAdjust="spacing" textLength="262.043" x="332.0195" y="332.4434">El sistema deja los bloques libres en blanco</text><polygon fill="#F1F1F1" points="309.7754,393.1797,321.7754,405.1797,309.7754,417.1797,297.7754,405.1797,309.7754,393.1797" style="stroke:#181818;stroke-width:0.5;"/><ellipse cx="309.7754" cy="448.1797" fill="none" rx="11" ry="11" style="stroke:#222222;stroke-width:1;"/><ellipse cx="309.7754" cy="448.1797" fill="#222222" rx="6" ry="6" style="stroke:#222222;stroke-width:1;"/><line style="stroke:#181818;stroke-width:1;" x1="309.7754" x2="309.7754" y1="30" y2="50"/><polygon fill="#181818" points="305.7754,40,309.7754,50,313.7754,40,309.7754,44" style="stroke:#181818;stroke-width:1;"/><line style="stroke:#181818;stroke-width:1;" x1="309.7754" x2="309.7754" y1="83.9688" y2="103.9688"/><polygon fill="#181818" points="305.7754,93.9688,309.7754,103.9688,313.7754,93.9688,309.7754,97.9688" style="stroke:#181818;stroke-width:1;"/><line style="stroke:#181818;stroke-width:1;" x1="309.7754" x2="309.7754" y1="137.9375" y2="157.9375"/><polygon fill="#181818" points="305.7754,147.9375,309.7754,157.9375,313.7754,147.9375,309.7754,151.9375" style="stroke:#181818;stroke-width:1;"/><line style="stroke:#181818;stroke-width:1;" x1="309.7754" x2="309.7754" y1="191.9063" y2="212.6211"/><polygon fill="#181818" points="305.7754,202.6211,309.7754,212.6211,313.7754,202.6211,309.7754,206.6211" style="stroke:#181818;stroke-width:1;"/><line style="stroke:#181818;stroke-width:1;" x1="199.1353" x2="156.5098" y1="289.3047" y2="289.3047"/><line style="stroke:#181818;stroke-width:1;" x1="156.5098" x2="156.5098" y1="289.3047" y2="311.3047"/><polygon fill="#181818" points="152.5098,301.3047,156.5098,311.3047,160.5098,301.3047,156.5098,305.3047" style="stroke:#181818;stroke-width:1;"/><line style="stroke:#181818;stroke-width:1;" x1="420.4155" x2="463.041" y1="289.3047" y2="289.3047"/><line style="stroke:#181818;stroke-width:1;" x1="463.041" x2="463.041" y1="289.3047" y2="311.3047"/><polygon fill="#181818" points="459.041,301.3047,463.041,311.3047,467.041,301.3047,463.041,305.3047" style="stroke:#181818;stroke-width:1;"/><line style="stroke:#181818;stroke-width:1;" x1="156.5098" x2="156.5098" y1="387.1797" y2="405.1797"/><line style="stroke:#181818;stroke-width:1;" x1="156.5098" x2="297.7754" y1="405.1797" y2="405.1797"/><polygon fill="#181818" points="287.7754,401.1797,297.7754,405.1797,287.7754,409.1797,291.7754,405.1797" style="stroke:#181818;stroke-width:1;"/><line style="stroke:#181818;stroke-width:1;" x1="463.041" x2="463.041" y1="345.2734" y2="405.1797"/><line style="stroke:#181818;stroke-width:1;" x1="463.041" x2="321.7754" y1="405.1797" y2="405.1797"/><polygon fill="#181818" points="331.7754,401.1797,321.7754,405.1797,331.7754,409.1797,327.7754,405.1797" style="stroke:#181818;stroke-width:1;"/><line style="stroke:#181818;stroke-width:1;" x1="309.7754" x2="309.7754" y1="246.5898" y2="277.3047"/><polygon fill="#181818" points="305.7754,267.3047,309.7754,277.3047,313.7754,267.3047,309.7754,271.3047" style="stroke:#181818;stroke-width:1;"/><line style="stroke:#181818;stroke-width:1;" x1="309.7754" x2="309.7754" y1="417.1797" y2="437.1797"/><polygon fill="#181818" points="305.7754,427.1797,309.7754,437.1797,313.7754,427.1797,309.7754,431.1797" style="stroke:#181818;stroke-width:1;"/><!--SRC=[NP4nSW8n34Lxdq8b55nWAJB9X9bKQPWSGElLWZDQQR7i8eVY55miCc49G-D2-dh_IxQ2kOHknr2jOauAffnYAWXHnIfx7uZXgFdQ7GYgm9nr95Fls4pnSXvJr6telXO4CSMOL12Gxs8Nx9CLcl3VWzLWmD9U0hHq42mrey7FVOpiON2gP2LZon2HIOQRtuI2l0sYXI2dmx64dS2eUN9sGnVi6RkmWVVBsUbH9_M7woHeNltGl5J7n5voCZHOI2EitbXFxWiQwuo3Dg4yXdrPGpcIm6f_EQy3GBkcFGMc5dX0wA-i1TMv6c03htVOhT02jTn9_4wwg2hZDX0RmUfJdvq6-lwxPt-BowdtupLdtrtQ1_bMQGnMTFu5]--></g></svg>