<svg xmlns="http://www.w3.org/2000/svg" xmlns:xlink="http://www.w3.org/1999/xlink" contentStyleType="text/css" height="524px" preserveAspectRatio="none" style="width:959px;height:524px;background:#FFFFFF;" version="1.1" viewBox="0 0 959 524" width="959px" zoomAndPan="magnify"><defs/><g><ellipse cx="510.0928" cy="20" fill="#222222" rx="10" ry="10" style="stroke:#222222;stroke-width:1;"/><rect fill="#F1F1F1" height="33.9688" rx="12.5" ry="12.5" style="stroke:#181818;stroke-width:0.5;" width="258.9512" x="380.6172" y="50"/><text fill="#000000" font-family="sans-serif" font-size="12" lengthAdjust="spacing" textLength="238.9512" x="390.6172" y="71.1387">El usuario solicita editar una asignaci&#243;n</text><rect fill="#F1F1F1" height="33.9688" rx="12.5" ry="12.5" style="stroke:#181818;stroke-width:0.5;" width="511.2969" x="254.4443" y="103.9688"/><text fill="#000000" font-family="sans-serif" font-size="12" lengthAdjust="spacing" textLength="491.2969" x="264.4443" y="125.1074">Sistema muestra la asignatura previamente seleccionada y su informaci&#243;n actual</text><rect fill="#F1F1F1" height="33.9688" rx="12.5" ry="12.5" style="stroke:#181818;stroke-width:0.5;" width="231.6465" x="394.2695" y="157.9375"/><text fill="#000000" font-family="sans-serif" font-size="12" lengthAdjust="spacing" textLength="211.6465" x="404.2695" y="179.0762">Usuario selecciona el d&#237;a y la fecha</text><rect fill="#F1F1F1" height="33.9688" rx="12.5" ry="12.5" style="stroke:#181818;stroke-width:0.5;" width="254.6152" x="382.7852" y="211.9063"/><text fill="#000000" font-family="sans-serif" font-size="12" lengthAdjust="spacing" textLength="234.6152" x="392.7852" y="233.0449">Sistema chequea por aulas disponibles</text><polygon fill="#F1F1F1" points="456.4705,265.875,563.7151,265.875,575.7151,277.875,563.7151,289.875,456.4705,289.875,444.4705,277.875,456.4705,265.875" style="stroke:#181818;stroke-width:0.5;"/><text fill="#000000" font-family="sans-serif" font-size="11" lengthAdjust="spacing" textLength="107.2446" x="456.4705" y="281.6831">&#191;Aulas disponibles?</text><text fill="#000000" font-family="sans-serif" font-size="11" lengthAdjust="spacing" textLength="10.0386" x="434.4319" y="275.2808">S&#237;</text><text fill="#000000" font-family="sans-serif" font-size="11" lengthAdjust="spacing" textLength="14.9585" x="575.7151" y="275.2808">No</text><rect fill="#F1F1F1" height="33.9688" rx="12.5" ry="12.5" style="stroke:#181818;stroke-width:0.5;" width="466.5664" x="37.5547" y="299.875"/><text fill="#000000" font-family="sans-serif" font-size="12" lengthAdjust="spacing" textLength="446.5664" x="47.5547" y="321.0137">Sistema actualiza los datos de la asignatura con los nuevos seleccionados</text><rect fill="#F1F1F1" height="33.9688" rx="12.5" ry="12.5" style="stroke:#181818;stroke-width:0.5;" width="519.6758" x="11" y="353.8438"/><text fill="#000000" font-family="sans-serif" font-size="12" lengthAdjust="spacing" textLength="499.6758" x="21" y="374.9824">Sistema guarda la informaci&#243;n y cambia el estatus de la asignatura si es necesario</text><rect fill="#F1F1F1" height="33.9688" rx="12.5" ry="12.5" style="stroke:#181818;stroke-width:0.5;" width="452.8555" x="44.4102" y="407.8125"/><text fill="#000000" font-family="sans-serif" font-size="12" lengthAdjust="spacing" textLength="432.8555" x="54.4102" y="428.9512">Sistema muestra confirmaci&#243;n: "Asignatura actualizada correctamente"</text><rect fill="#F1F1F1" height="33.9688" rx="12.5" ry="12.5" style="stroke:#181818;stroke-width:0.5;" width="397.3438" x="550.6758" y="299.875"/><text fill="#000000" font-family="sans-serif" font-size="12" lengthAdjust="spacing" textLength="377.3438" x="560.6758" y="321.0137">Sistema muestra mensaje de error: "No hay aulas disponibles"</text><polygon fill="#F1F1F1" points="510.0928,447.7813,522.0928,459.7813,510.0928,471.7813,498.0928,459.7813,510.0928,447.7813" style="stroke:#181818;stroke-width:0.5;"/><ellipse cx="510.0928" cy="502.7813" fill="none" rx="11" ry="11" style="stroke:#222222;stroke-width:1;"/><ellipse cx="510.0928" cy="502.7813" fill="#222222" rx="6" ry="6" style="stroke:#222222;stroke-width:1;"/><line style="stroke:#181818;stroke-width:1;" x1="510.0928" x2="510.0928" y1="30" y2="50"/><polygon fill="#181818" points="506.0928,40,510.0928,50,514.0928,40,510.0928,44" style="stroke:#181818;stroke-width:1;"/><line style="stroke:#181818;stroke-width:1;" x1="510.0928" x2="510.0928" y1="83.9688" y2="103.9688"/><polygon fill="#181818" points="506.0928,93.9688,510.0928,103.9688,514.0928,93.9688,510.0928,97.9688" style="stroke:#181818;stroke-width:1;"/><line style="stroke:#181818;stroke-width:1;" x1="510.0928" x2="510.0928" y1="137.9375" y2="157.9375"/><polygon fill="#181818" points="506.0928,147.9375,510.0928,157.9375,514.0928,147.9375,510.0928,151.9375" style="stroke:#181818;stroke-width:1;"/><line style="stroke:#181818;stroke-width:1;" x1="510.0928" x2="510.0928" y1="191.9063" y2="211.9063"/><polygon fill="#181818" points="506.0928,201.9063,510.0928,211.9063,514.0928,201.9063,510.0928,205.9063" style="stroke:#181818;stroke-width:1;"/><line style="stroke:#181818;stroke-width:1;" x1="270.8379" x2="270.8379" y1="333.8438" y2="353.8438"/><polygon fill="#181818" points="266.8379,343.8438,270.8379,353.8438,274.8379,343.8438,270.8379,347.8438" style="stroke:#181818;stroke-width:1;"/><line style="stroke:#181818;stroke-width:1;" x1="270.8379" x2="270.8379" y1="387.8125" y2="407.8125"/><polygon fill="#181818" points="266.8379,397.8125,270.8379,407.8125,274.8379,397.8125,270.8379,401.8125" style="stroke:#181818;stroke-width:1;"/><line style="stroke:#181818;stroke-width:1;" x1="444.4705" x2="270.8379" y1="277.875" y2="277.875"/><line style="stroke:#181818;stroke-width:1;" x1="270.8379" x2="270.8379" y1="277.875" y2="299.875"/><polygon fill="#181818" points="266.8379,289.875,270.8379,299.875,274.8379,289.875,270.8379,293.875" style="stroke:#181818;stroke-width:1;"/><line style="stroke:#181818;stroke-width:1;" x1="575.7151" x2="749.3477" y1="277.875" y2="277.875"/><line style="stroke:#181818;stroke-width:1;" x1="749.3477" x2="749.3477" y1="277.875" y2="299.875"/><polygon fill="#181818" points="745.3477,289.875,749.3477,299.875,753.3477,289.875,749.3477,293.875" style="stroke:#181818;stroke-width:1;"/><line style="stroke:#181818;stroke-width:1;" x1="270.8379" x2="270.8379" y1="441.7813" y2="459.7813"/><line style="stroke:#181818;stroke-width:1;" x1="270.8379" x2="498.0928" y1="459.7813" y2="459.7813"/><polygon fill="#181818" points="488.0928,455.7813,498.0928,459.7813,488.0928,463.7813,492.0928,459.7813" style="stroke:#181818;stroke-width:1;"/><line style="stroke:#181818;stroke-width:1;" x1="749.3477" x2="749.3477" y1="333.8438" y2="459.7813"/><line style="stroke:#181818;stroke-width:1;" x1="749.3477" x2="522.0928" y1="459.7813" y2="459.7813"/><polygon fill="#181818" points="532.0928,455.7813,522.0928,459.7813,532.0928,463.7813,528.0928,459.7813" style="stroke:#181818;stroke-width:1;"/><line style="stroke:#181818;stroke-width:1;" x1="510.0928" x2="510.0928" y1="245.875" y2="265.875"/><polygon fill="#181818" points="506.0928,255.875,510.0928,265.875,514.0928,255.875,510.0928,259.875" style="stroke:#181818;stroke-width:1;"/><line style="stroke:#181818;stroke-width:1;" x1="510.0928" x2="510.0928" y1="471.7813" y2="491.7813"/><polygon fill="#181818" points="506.0928,481.7813,510.0928,491.7813,514.0928,481.7813,510.0928,485.7813" style="stroke:#181818;stroke-width:1;"/><!--SRC=[RP51RW8n34NtEON52gumiwXOTCi6zG0cyJ2kCZ6D4oHw9rOzGALoiNf0Gu6oIHJPVj__HmlcufhN25KhPXPGYUov852mCqDD2AYyJUZvz9LQrwnP2mq8GoKj6I5E3QNQQvTfppXGAWHAaRndIHWG3g0LE7MIXmiAq9UAiNMkUPl4hmD04SBfE8uPloFVuusqx-cZaeb91gmH5GBhJX9l8cdhk8Fvp_VoiV2oWD9JWldwT5muW2lkiWX_cXUn2IpZIG_6lAHpELNQstNZJKpoXhOrB-4SovtR0tWSDdnsPi4Pz8c8ijKWaIST0xdZJddR8XrFs0Pcox_ngv4mjkLClbo-OjOwYaemNydY6TEQ5DzfN8XobcpObK2FX__nZgWKk7DQPFSB]--></g></svg>