<svg xmlns="http://www.w3.org/2000/svg" xmlns:xlink="http://www.w3.org/1999/xlink" contentStyleType="text/css" height="524px" preserveAspectRatio="none" style="width:1063px;height:524px;background:#FFFFFF;" version="1.1" viewBox="0 0 1063 524" width="1063px" zoomAndPan="magnify"><defs/><g><ellipse cx="580.2236" cy="20" fill="#222222" rx="10" ry="10" style="stroke:#222222;stroke-width:1;"/><rect fill="#F1F1F1" height="33.9688" rx="12.5" ry="12.5" style="stroke:#181818;stroke-width:0.5;" width="347.4746" x="406.4863" y="50"/><text fill="#000000" font-family="sans-serif" font-size="12" lengthAdjust="spacing" textLength="327.4746" x="416.4863" y="71.1387">El usuario solicita introducir edici&#243;n de una asignaci&#243;n</text><rect fill="#F1F1F1" height="33.9688" rx="12.5" ry="12.5" style="stroke:#181818;stroke-width:0.5;" width="373.9941" x="393.2266" y="103.9688"/><text fill="#000000" font-family="sans-serif" font-size="12" lengthAdjust="spacing" textLength="353.9941" x="403.2266" y="125.1074">El sistema permite la introducci&#243;n de datos para la edici&#243;n</text><rect fill="#F1F1F1" height="33.9688" rx="12.5" ry="12.5" style="stroke:#181818;stroke-width:0.5;" width="306.4004" x="427.0234" y="157.9375"/><text fill="#000000" font-family="sans-serif" font-size="12" lengthAdjust="spacing" textLength="286.4004" x="437.0234" y="179.0762">El usuario introduce selecci&#243;n del d&#237;a y la fecha</text><rect fill="#F1F1F1" height="33.9688" rx="12.5" ry="12.5" style="stroke:#181818;stroke-width:0.5;" width="266.7148" x="446.8662" y="211.9063"/><text fill="#000000" font-family="sans-serif" font-size="12" lengthAdjust="spacing" textLength="246.7148" x="456.8662" y="233.0449">El sistema presenta las aulas disponibles</text><polygon fill="#F1F1F1" points="505.0955,265.875,655.3518,265.875,667.3518,277.875,655.3518,289.875,505.0955,289.875,493.0955,277.875,505.0955,265.875" style="stroke:#181818;stroke-width:0.5;"/><text fill="#000000" font-family="sans-serif" font-size="11" lengthAdjust="spacing" textLength="150.2563" x="505.0955" y="281.6831">&#191;Existen aulas disponibles?</text><text fill="#000000" font-family="sans-serif" font-size="11" lengthAdjust="spacing" textLength="10.0386" x="483.0569" y="275.2808">S&#237;</text><text fill="#000000" font-family="sans-serif" font-size="11" lengthAdjust="spacing" textLength="14.9585" x="667.3518" y="275.2808">No</text><rect fill="#F1F1F1" height="33.9688" rx="12.5" ry="12.5" style="stroke:#181818;stroke-width:0.5;" width="479.9316" x="74.8467" y="299.875"/><text fill="#000000" font-family="sans-serif" font-size="12" lengthAdjust="spacing" textLength="459.9316" x="84.8467" y="321.0137">El sistema actualiza los datos de la asignatura con los nuevos seleccionados</text><rect fill="#F1F1F1" height="33.9688" rx="12.5" ry="12.5" style="stroke:#181818;stroke-width:0.5;" width="607.625" x="11" y="353.8438"/><text fill="#000000" font-family="sans-serif" font-size="12" lengthAdjust="spacing" textLength="587.625" x="21" y="374.9824">El sistema guarda la informaci&#243;n y visualiza el cambio de estatus de la asignatura si es necesario</text><rect fill="#F1F1F1" height="33.9688" rx="12.5" ry="12.5" style="stroke:#181818;stroke-width:0.5;" width="469.5313" x="80.0469" y="407.8125"/><text fill="#000000" font-family="sans-serif" font-size="12" lengthAdjust="spacing" textLength="449.5313" x="90.0469" y="428.9512">El sistema presenta confirmaci&#243;n: "Asignatura actualizada correctamente"</text><rect fill="#F1F1F1" height="33.9688" rx="12.5" ry="12.5" style="stroke:#181818;stroke-width:0.5;" width="414.0195" x="638.625" y="299.875"/><text fill="#000000" font-family="sans-serif" font-size="12" lengthAdjust="spacing" textLength="394.0195" x="648.625" y="321.0137">El sistema presenta mensaje de error: "No hay aulas disponibles"</text><polygon fill="#F1F1F1" points="580.2236,447.7813,592.2236,459.7813,580.2236,471.7813,568.2236,459.7813,580.2236,447.7813" style="stroke:#181818;stroke-width:0.5;"/><ellipse cx="580.2236" cy="502.7813" fill="none" rx="11" ry="11" style="stroke:#222222;stroke-width:1;"/><ellipse cx="580.2236" cy="502.7813" fill="#222222" rx="6" ry="6" style="stroke:#222222;stroke-width:1;"/><line style="stroke:#181818;stroke-width:1;" x1="580.2236" x2="580.2236" y1="30" y2="50"/><polygon fill="#181818" points="576.2236,40,580.2236,50,584.2236,40,580.2236,44" style="stroke:#181818;stroke-width:1;"/><line style="stroke:#181818;stroke-width:1;" x1="580.2236" x2="580.2236" y1="83.9688" y2="103.9688"/><polygon fill="#181818" points="576.2236,93.9688,580.2236,103.9688,584.2236,93.9688,580.2236,97.9688" style="stroke:#181818;stroke-width:1;"/><line style="stroke:#181818;stroke-width:1;" x1="580.2236" x2="580.2236" y1="137.9375" y2="157.9375"/><polygon fill="#181818" points="576.2236,147.9375,580.2236,157.9375,584.2236,147.9375,580.2236,151.9375" style="stroke:#181818;stroke-width:1;"/><line style="stroke:#181818;stroke-width:1;" x1="580.2236" x2="580.2236" y1="191.9063" y2="211.9063"/><polygon fill="#181818" points="576.2236,201.9063,580.2236,211.9063,584.2236,201.9063,580.2236,205.9063" style="stroke:#181818;stroke-width:1;"/><line style="stroke:#181818;stroke-width:1;" x1="314.8125" x2="314.8125" y1="333.8438" y2="353.8438"/><polygon fill="#181818" points="310.8125,343.8438,314.8125,353.8438,318.8125,343.8438,314.8125,347.8438" style="stroke:#181818;stroke-width:1;"/><line style="stroke:#181818;stroke-width:1;" x1="314.8125" x2="314.8125" y1="387.8125" y2="407.8125"/><polygon fill="#181818" points="310.8125,397.8125,314.8125,407.8125,318.8125,397.8125,314.8125,401.8125" style="stroke:#181818;stroke-width:1;"/><line style="stroke:#181818;stroke-width:1;" x1="493.0955" x2="314.8125" y1="277.875" y2="277.875"/><line style="stroke:#181818;stroke-width:1;" x1="314.8125" x2="314.8125" y1="277.875" y2="299.875"/><polygon fill="#181818" points="310.8125,289.875,314.8125,299.875,318.8125,289.875,314.8125,293.875" style="stroke:#181818;stroke-width:1;"/><line style="stroke:#181818;stroke-width:1;" x1="667.3518" x2="845.6348" y1="277.875" y2="277.875"/><line style="stroke:#181818;stroke-width:1;" x1="845.6348" x2="845.6348" y1="277.875" y2="299.875"/><polygon fill="#181818" points="841.6348,289.875,845.6348,299.875,849.6348,289.875,845.6348,293.875" style="stroke:#181818;stroke-width:1;"/><line style="stroke:#181818;stroke-width:1;" x1="314.8125" x2="314.8125" y1="441.7813" y2="459.7813"/><line style="stroke:#181818;stroke-width:1;" x1="314.8125" x2="568.2236" y1="459.7813" y2="459.7813"/><polygon fill="#181818" points="558.2236,455.7813,568.2236,459.7813,558.2236,463.7813,562.2236,459.7813" style="stroke:#181818;stroke-width:1;"/><line style="stroke:#181818;stroke-width:1;" x1="845.6348" x2="845.6348" y1="333.8438" y2="459.7813"/><line style="stroke:#181818;stroke-width:1;" x1="845.6348" x2="592.2236" y1="459.7813" y2="459.7813"/><polygon fill="#181818" points="602.2236,455.7813,592.2236,459.7813,602.2236,463.7813,598.2236,459.7813" style="stroke:#181818;stroke-width:1;"/><line style="stroke:#181818;stroke-width:1;" x1="580.2236" x2="580.2236" y1="245.875" y2="265.875"/><polygon fill="#181818" points="576.2236,255.875,580.2236,265.875,584.2236,255.875,580.2236,259.875" style="stroke:#181818;stroke-width:1;"/><line style="stroke:#181818;stroke-width:1;" x1="580.2236" x2="580.2236" y1="471.7813" y2="491.7813"/><polygon fill="#181818" points="576.2236,481.7813,580.2236,491.7813,584.2236,481.7813,580.2236,485.7813" style="stroke:#181818;stroke-width:1;"/><!--SRC=[TP11Ri9034NtEON52gu0YweBjcnw0dV60LUJcMZiGQLtOjK3L2eNgoU1KA3T9DBO_tt_BufPc-KwG962cHD82knO4JXgJhuupa3UdawV4Jn1YGWel8quFAq6iR0eTGWzvOwL85pbaz2Z9e4UCzRn1RcwCR-828G2JTe0_dH4E5HXIsw7TwwPXA9MhW2M-lKiVOhy6aXM3RSm__vQlzVr-BZmj03TsM3-SZek6e3VQ7HQCF27iUtuCO8VyeqTQB4uBiLX70ljxNS-FKNqoTnlWLiBwd4ig4sv6rkqQ7kMivF5TTYzMXtcHA9cyeUfiCqWaYEfrTtxJ9tOSIrVV9OmUxuYfd2-hkLCJh4p4SrM3GKXc6_IuZ-kBGg-qN1ZpYaRUfDWXuV7WYikUcuRqTJ_0000]--></g></svg>