<svg xmlns="http://www.w3.org/2000/svg" xmlns:xlink="http://www.w3.org/1999/xlink" contentStyleType="text/css" height="562px" preserveAspectRatio="none" style="width:1063px;height:562px;background:#FFFFFF;" version="1.1" viewBox="0 0 1063 562" width="1063px" zoomAndPan="magnify"><title>Editar Asignaci&#243;n</title><defs/><g><text fill="#000000" font-family="sans-serif" font-size="14" font-weight="bold" lengthAdjust="spacing" textLength="138.3867" x="461.1289" y="32.9951">Editar Asignaci&#243;n</text><ellipse cx="580.2236" cy="57.2969" fill="#222222" rx="10" ry="10" style="stroke:#222222;stroke-width:1;"/><rect fill="#F1F1F1" height="33.9688" rx="12.5" ry="12.5" style="stroke:#181818;stroke-width:0.5;" width="347.4746" x="406.4863" y="87.2969"/><text fill="#000000" font-family="sans-serif" font-size="12" lengthAdjust="spacing" textLength="327.4746" x="416.4863" y="108.4355">El usuario solicita introducir edici&#243;n de una asignaci&#243;n</text><rect fill="#F1F1F1" height="33.9688" rx="12.5" ry="12.5" style="stroke:#181818;stroke-width:0.5;" width="373.9941" x="393.2266" y="141.2656"/><text fill="#000000" font-family="sans-serif" font-size="12" lengthAdjust="spacing" textLength="353.9941" x="403.2266" y="162.4043">El sistema permite la introducci&#243;n de datos para la edici&#243;n</text><rect fill="#F1F1F1" height="33.9688" rx="12.5" ry="12.5" style="stroke:#181818;stroke-width:0.5;" width="306.4004" x="427.0234" y="195.2344"/><text fill="#000000" font-family="sans-serif" font-size="12" lengthAdjust="spacing" textLength="286.4004" x="437.0234" y="216.373">El usuario introduce selecci&#243;n del d&#237;a y la fecha</text><rect fill="#F1F1F1" height="33.9688" rx="12.5" ry="12.5" style="stroke:#181818;stroke-width:0.5;" width="266.7148" x="446.8662" y="249.2031"/><text fill="#000000" font-family="sans-serif" font-size="12" lengthAdjust="spacing" textLength="246.7148" x="456.8662" y="270.3418">El sistema presenta las aulas disponibles</text><polygon fill="#F1F1F1" points="505.0955,303.1719,655.3518,303.1719,667.3518,315.1719,655.3518,327.1719,505.0955,327.1719,493.0955,315.1719,505.0955,303.1719" style="stroke:#181818;stroke-width:0.5;"/><text fill="#000000" font-family="sans-serif" font-size="11" lengthAdjust="spacing" textLength="150.2563" x="505.0955" y="318.98">&#191;Existen aulas disponibles?</text><text fill="#000000" font-family="sans-serif" font-size="11" lengthAdjust="spacing" textLength="10.0386" x="483.0569" y="312.5776">S&#237;</text><text fill="#000000" font-family="sans-serif" font-size="11" lengthAdjust="spacing" textLength="14.9585" x="667.3518" y="312.5776">No</text><rect fill="#F1F1F1" height="33.9688" rx="12.5" ry="12.5" style="stroke:#181818;stroke-width:0.5;" width="479.9316" x="74.8467" y="337.1719"/><text fill="#000000" font-family="sans-serif" font-size="12" lengthAdjust="spacing" textLength="459.9316" x="84.8467" y="358.3105">El sistema actualiza los datos de la asignatura con los nuevos seleccionados</text><rect fill="#F1F1F1" height="33.9688" rx="12.5" ry="12.5" style="stroke:#181818;stroke-width:0.5;" width="607.625" x="11" y="391.1406"/><text fill="#000000" font-family="sans-serif" font-size="12" lengthAdjust="spacing" textLength="587.625" x="21" y="412.2793">El sistema guarda la informaci&#243;n y visualiza el cambio de estatus de la asignatura si es necesario</text><rect fill="#F1F1F1" height="33.9688" rx="12.5" ry="12.5" style="stroke:#181818;stroke-width:0.5;" width="469.5313" x="80.0469" y="445.1094"/><text fill="#000000" font-family="sans-serif" font-size="12" lengthAdjust="spacing" textLength="449.5313" x="90.0469" y="466.248">El sistema presenta confirmaci&#243;n: "Asignatura actualizada correctamente"</text><rect fill="#F1F1F1" height="33.9688" rx="12.5" ry="12.5" style="stroke:#181818;stroke-width:0.5;" width="414.0195" x="638.625" y="337.1719"/><text fill="#000000" font-family="sans-serif" font-size="12" lengthAdjust="spacing" textLength="394.0195" x="648.625" y="358.3105">El sistema presenta mensaje de error: "No hay aulas disponibles"</text><polygon fill="#F1F1F1" points="580.2236,485.0781,592.2236,497.0781,580.2236,509.0781,568.2236,497.0781,580.2236,485.0781" style="stroke:#181818;stroke-width:0.5;"/><ellipse cx="580.2236" cy="540.0781" fill="none" rx="11" ry="11" style="stroke:#222222;stroke-width:1;"/><ellipse cx="580.2236" cy="540.0781" fill="#222222" rx="6" ry="6" style="stroke:#222222;stroke-width:1;"/><line style="stroke:#181818;stroke-width:1;" x1="580.2236" x2="580.2236" y1="67.2969" y2="87.2969"/><polygon fill="#181818" points="576.2236,77.2969,580.2236,87.2969,584.2236,77.2969,580.2236,81.2969" style="stroke:#181818;stroke-width:1;"/><line style="stroke:#181818;stroke-width:1;" x1="580.2236" x2="580.2236" y1="121.2656" y2="141.2656"/><polygon fill="#181818" points="576.2236,131.2656,580.2236,141.2656,584.2236,131.2656,580.2236,135.2656" style="stroke:#181818;stroke-width:1;"/><line style="stroke:#181818;stroke-width:1;" x1="580.2236" x2="580.2236" y1="175.2344" y2="195.2344"/><polygon fill="#181818" points="576.2236,185.2344,580.2236,195.2344,584.2236,185.2344,580.2236,189.2344" style="stroke:#181818;stroke-width:1;"/><line style="stroke:#181818;stroke-width:1;" x1="580.2236" x2="580.2236" y1="229.2031" y2="249.2031"/><polygon fill="#181818" points="576.2236,239.2031,580.2236,249.2031,584.2236,239.2031,580.2236,243.2031" style="stroke:#181818;stroke-width:1;"/><line style="stroke:#181818;stroke-width:1;" x1="314.8125" x2="314.8125" y1="371.1406" y2="391.1406"/><polygon fill="#181818" points="310.8125,381.1406,314.8125,391.1406,318.8125,381.1406,314.8125,385.1406" style="stroke:#181818;stroke-width:1;"/><line style="stroke:#181818;stroke-width:1;" x1="314.8125" x2="314.8125" y1="425.1094" y2="445.1094"/><polygon fill="#181818" points="310.8125,435.1094,314.8125,445.1094,318.8125,435.1094,314.8125,439.1094" style="stroke:#181818;stroke-width:1;"/><line style="stroke:#181818;stroke-width:1;" x1="493.0955" x2="314.8125" y1="315.1719" y2="315.1719"/><line style="stroke:#181818;stroke-width:1;" x1="314.8125" x2="314.8125" y1="315.1719" y2="337.1719"/><polygon fill="#181818" points="310.8125,327.1719,314.8125,337.1719,318.8125,327.1719,314.8125,331.1719" style="stroke:#181818;stroke-width:1;"/><line style="stroke:#181818;stroke-width:1;" x1="667.3518" x2="845.6348" y1="315.1719" y2="315.1719"/><line style="stroke:#181818;stroke-width:1;" x1="845.6348" x2="845.6348" y1="315.1719" y2="337.1719"/><polygon fill="#181818" points="841.6348,327.1719,845.6348,337.1719,849.6348,327.1719,845.6348,331.1719" style="stroke:#181818;stroke-width:1;"/><line style="stroke:#181818;stroke-width:1;" x1="314.8125" x2="314.8125" y1="479.0781" y2="497.0781"/><line style="stroke:#181818;stroke-width:1;" x1="314.8125" x2="568.2236" y1="497.0781" y2="497.0781"/><polygon fill="#181818" points="558.2236,493.0781,568.2236,497.0781,558.2236,501.0781,562.2236,497.0781" style="stroke:#181818;stroke-width:1;"/><line style="stroke:#181818;stroke-width:1;" x1="845.6348" x2="845.6348" y1="371.1406" y2="497.0781"/><line style="stroke:#181818;stroke-width:1;" x1="845.6348" x2="592.2236" y1="497.0781" y2="497.0781"/><polygon fill="#181818" points="602.2236,493.0781,592.2236,497.0781,602.2236,501.0781,598.2236,497.0781" style="stroke:#181818;stroke-width:1;"/><line style="stroke:#181818;stroke-width:1;" x1="580.2236" x2="580.2236" y1="283.1719" y2="303.1719"/><polygon fill="#181818" points="576.2236,293.1719,580.2236,303.1719,584.2236,293.1719,580.2236,297.1719" style="stroke:#181818;stroke-width:1;"/><line style="stroke:#181818;stroke-width:1;" x1="580.2236" x2="580.2236" y1="509.0781" y2="529.0781"/><polygon fill="#181818" points="576.2236,519.0781,580.2236,529.0781,584.2236,519.0781,580.2236,523.0781" style="stroke:#181818;stroke-width:1;"/><!--SRC=[TL9BRi8m4Dtd52DMv0faKR78barFCDWJcCgn8u-DIk_4gWUeL2xMSGAXGBk9fSpxp7jsukG8Mii98wo5TnuDdpzz9VeZLQlMGPQCaGD8S6mK1-nJ33ORZa2MHpXOWkmHyARGZ6HXITGZ31HxJWJkHf-95bCG631Y6LybcplpAub0oD7CTM3F9uHZ8NPazlZW6ad8fw8hWBbyBSiGF6yTILDn1yllh_QzmFqpuAM6jDV1ylLygYk0tz9eKaR77wgjoqyHx9XlwY1bZME27yS-qq6Fo-h1emtgVY-uqw0MfuAw4FkfHOrsOBauQLo3_LRhK2VI6qhv3rDXdO4dGrAgU_IPEz7bEhxwh62nladCuMo1nKWcOQyaMZGLEI5ORaBzdwu21Tzet37645Lw4s2Fn-U2YvottEbh2yCF]--></g></svg>