<svg xmlns="http://www.w3.org/2000/svg" xmlns:xlink="http://www.w3.org/1999/xlink" contentStyleType="text/css" height="298px" preserveAspectRatio="none" style="width:570px;height:298px;background:#FFFFFF;" version="1.1" viewBox="0 0 570 298" width="570px" zoomAndPan="magnify"><defs/><g><line style="stroke:#181818;stroke-width:0.5;stroke-dasharray:5.0,5.0;" x1="57" x2="57" y1="81.2969" y2="217.8281"/><line style="stroke:#181818;stroke-width:0.5;stroke-dasharray:5.0,5.0;" x1="275.3042" x2="275.3042" y1="81.2969" y2="217.8281"/><line style="stroke:#181818;stroke-width:0.5;stroke-dasharray:5.0,5.0;" x1="519.7251" x2="519.7251" y1="81.2969" y2="217.8281"/><text fill="#000000" font-family="sans-serif" font-size="14" lengthAdjust="spacing" textLength="99.0801" x="5" y="77.9951">Administrador</text><ellipse cx="57.54" cy="13.5" fill="#E2E2F0" rx="8" ry="8" style="stroke:#181818;stroke-width:0.5;"/><path d="M57.54,21.5 L57.54,48.5 M44.54,29.5 L70.54,29.5 M57.54,48.5 L44.54,63.5 M57.54,48.5 L70.54,63.5 " fill="none" style="stroke:#181818;stroke-width:0.5;"/><text fill="#000000" font-family="sans-serif" font-size="14" lengthAdjust="spacing" textLength="99.0801" x="5" y="229.8232">Administrador</text><ellipse cx="57.54" cy="241.625" fill="#E2E2F0" rx="8" ry="8" style="stroke:#181818;stroke-width:0.5;"/><path d="M57.54,249.625 L57.54,276.625 M44.54,257.625 L70.54,257.625 M57.54,276.625 L44.54,291.625 M57.54,276.625 L70.54,291.625 " fill="none" style="stroke:#181818;stroke-width:0.5;"/><rect fill="#E2E2F0" height="30.2969" rx="2.5" ry="2.5" style="stroke:#181818;stroke-width:0.5;" width="70.3896" x="240.3042" y="50"/><text fill="#000000" font-family="sans-serif" font-size="14" lengthAdjust="spacing" textLength="56.3896" x="247.3042" y="69.9951">Sistema</text><rect fill="#E2E2F0" height="30.2969" rx="2.5" ry="2.5" style="stroke:#181818;stroke-width:0.5;" width="70.3896" x="240.3042" y="216.8281"/><text fill="#000000" font-family="sans-serif" font-size="14" lengthAdjust="spacing" textLength="56.3896" x="247.3042" y="236.8232">Sistema</text><rect fill="#E2E2F0" height="30.2969" rx="2.5" ry="2.5" style="stroke:#181818;stroke-width:0.5;" width="88.7988" x="475.7251" y="50"/><text fill="#000000" font-family="sans-serif" font-size="14" lengthAdjust="spacing" textLength="74.7988" x="482.7251" y="69.9951">BaseDatos</text><rect fill="#E2E2F0" height="30.2969" rx="2.5" ry="2.5" style="stroke:#181818;stroke-width:0.5;" width="88.7988" x="475.7251" y="216.8281"/><text fill="#000000" font-family="sans-serif" font-size="14" lengthAdjust="spacing" textLength="74.7988" x="482.7251" y="236.8232">BaseDatos</text><polygon fill="#181818" points="263.499,108.4297,273.499,112.4297,263.499,116.4297,267.499,112.4297" style="stroke:#181818;stroke-width:1;"/><line style="stroke:#181818;stroke-width:1;" x1="57.54" x2="269.499" y1="112.4297" y2="112.4297"/><text fill="#000000" font-family="sans-serif" font-size="13" lengthAdjust="spacing" textLength="79.8916" x="64.54" y="107.3638">Inicia sesi&#243;n</text><polygon fill="#181818" points="508.1245,137.5625,518.1245,141.5625,508.1245,145.5625,512.1245,141.5625" style="stroke:#181818;stroke-width:1;"/><line style="stroke:#181818;stroke-width:1;" x1="275.499" x2="514.1245" y1="141.5625" y2="141.5625"/><text fill="#000000" font-family="sans-serif" font-size="13" lengthAdjust="spacing" textLength="126.5215" x="282.499" y="136.4966">Valida credenciales</text><polygon fill="#181818" points="286.499,166.6953,276.499,170.6953,286.499,174.6953,282.499,170.6953" style="stroke:#181818;stroke-width:1;"/><line style="stroke:#181818;stroke-width:1;stroke-dasharray:2.0,2.0;" x1="280.499" x2="519.1245" y1="170.6953" y2="170.6953"/><text fill="#000000" font-family="sans-serif" font-size="13" lengthAdjust="spacing" textLength="220.6255" x="292.499" y="165.6294">Respuesta (Correcta o Incorrecta)</text><polygon fill="#181818" points="68.54,195.8281,58.54,199.8281,68.54,203.8281,64.54,199.8281" style="stroke:#181818;stroke-width:1;"/><line style="stroke:#181818;stroke-width:1;stroke-dasharray:2.0,2.0;" x1="62.54" x2="274.499" y1="199.8281" y2="199.8281"/><text fill="#000000" font-family="sans-serif" font-size="13" lengthAdjust="spacing" textLength="193.959" x="74.54" y="194.7622">Acceso permitido o denegado</text><!--SRC=[LOun3W8n30JxlC8b5FS12gG03Ir8z9QpGfOkyIaEB-C9VEnSW4vqNk-irop3EkLIjQcFpYKKE-MKCar7kiSIbUb0rwQYJ0xNpxkbdn7CYHqN7kP1FNZMmYGT1Itu6PusV_gxU8ClB_XWsfsjTqXC5Zto5Vkj978v4ba4RhIWLnrQBF2emJE-NW40]--></g></svg>