<svg xmlns="http://www.w3.org/2000/svg" xmlns:xlink="http://www.w3.org/1999/xlink" contentStyleType="text/css" height="454px" preserveAspectRatio="none" style="width:737px;height:454px;background:#FFFFFF;" version="1.1" viewBox="0 0 737 454" width="737px" zoomAndPan="magnify"><title>Iniciar Sesi&#243;n</title><defs/><g><text fill="#000000" font-family="sans-serif" font-size="14" font-weight="bold" lengthAdjust="spacing" textLength="106.5928" x="313.9741" y="32.9951">Iniciar Sesi&#243;n</text><ellipse cx="336.147" cy="57.2969" fill="#222222" rx="10" ry="10" style="stroke:#222222;stroke-width:1;"/><rect fill="#F1F1F1" height="33.9688" rx="12.5" ry="12.5" style="stroke:#181818;stroke-width:0.5;" width="266.6328" x="202.8306" y="87.2969"/><text fill="#000000" font-family="sans-serif" font-size="12" lengthAdjust="spacing" textLength="246.6328" x="212.8306" y="108.4355">El usuario solicita introducir credenciales</text><rect fill="#F1F1F1" height="33.9688" rx="12.5" ry="12.5" style="stroke:#181818;stroke-width:0.5;" width="413.4336" x="129.4302" y="141.2656"/><text fill="#000000" font-family="sans-serif" font-size="12" lengthAdjust="spacing" textLength="393.4336" x="139.4302" y="162.4043">El sistema permite introducir credenciales (usuario y contrase&#241;a)</text><rect fill="#F1F1F1" height="33.9688" rx="12.5" ry="12.5" style="stroke:#181818;stroke-width:0.5;" width="219.6816" x="226.3062" y="195.2344"/><text fill="#000000" font-family="sans-serif" font-size="12" lengthAdjust="spacing" textLength="199.6816" x="236.3062" y="216.373">El usuario introduce credenciales</text><polygon fill="#F1F1F1" points="273.606,249.2031,398.688,249.2031,410.688,261.2031,398.688,273.2031,273.606,273.2031,261.606,261.2031,273.606,249.2031" style="stroke:#181818;stroke-width:0.5;"/><text fill="#000000" font-family="sans-serif" font-size="11" lengthAdjust="spacing" textLength="125.082" x="273.606" y="265.0112">&#191;Credenciales v&#225;lidas?</text><text fill="#000000" font-family="sans-serif" font-size="11" lengthAdjust="spacing" textLength="10.0386" x="251.5674" y="258.6089">S&#237;</text><text fill="#000000" font-family="sans-serif" font-size="11" lengthAdjust="spacing" textLength="14.9585" x="410.688" y="258.6089">No</text><rect fill="#F1F1F1" height="33.9688" rx="12.5" ry="12.5" style="stroke:#181818;stroke-width:0.5;" width="192.4297" x="56.0469" y="283.2031"/><text fill="#000000" font-family="sans-serif" font-size="12" lengthAdjust="spacing" textLength="172.4297" x="66.0469" y="304.3418">El sistema permite el acceso</text><rect fill="#F1F1F1" height="33.9688" rx="12.5" ry="12.5" style="stroke:#181818;stroke-width:0.5;" width="282.5234" x="11" y="337.1719"/><text fill="#000000" font-family="sans-serif" font-size="12" lengthAdjust="spacing" textLength="262.5234" x="21" y="358.3105">El sistema presenta mensaje de bienvenida</text><rect fill="#F1F1F1" height="33.9688" rx="12.5" ry="12.5" style="stroke:#181818;stroke-width:0.5;" width="413.0176" x="313.5234" y="283.2031"/><text fill="#000000" font-family="sans-serif" font-size="12" lengthAdjust="spacing" textLength="393.0176" x="323.5234" y="304.3418">El sistema presenta mensaje de error: "Credenciales incorrectas"</text><polygon fill="#F1F1F1" points="336.147,377.1406,348.147,389.1406,336.147,401.1406,324.147,389.1406,336.147,377.1406" style="stroke:#181818;stroke-width:0.5;"/><ellipse cx="336.147" cy="432.1406" fill="none" rx="11" ry="11" style="stroke:#222222;stroke-width:1;"/><ellipse cx="336.147" cy="432.1406" fill="#222222" rx="6" ry="6" style="stroke:#222222;stroke-width:1;"/><line style="stroke:#181818;stroke-width:1;" x1="336.147" x2="336.147" y1="67.2969" y2="87.2969"/><polygon fill="#181818" points="332.147,77.2969,336.147,87.2969,340.147,77.2969,336.147,81.2969" style="stroke:#181818;stroke-width:1;"/><line style="stroke:#181818;stroke-width:1;" x1="336.147" x2="336.147" y1="121.2656" y2="141.2656"/><polygon fill="#181818" points="332.147,131.2656,336.147,141.2656,340.147,131.2656,336.147,135.2656" style="stroke:#181818;stroke-width:1;"/><line style="stroke:#181818;stroke-width:1;" x1="336.147" x2="336.147" y1="175.2344" y2="195.2344"/><polygon fill="#181818" points="332.147,185.2344,336.147,195.2344,340.147,185.2344,336.147,189.2344" style="stroke:#181818;stroke-width:1;"/><line style="stroke:#181818;stroke-width:1;" x1="152.2617" x2="152.2617" y1="317.1719" y2="337.1719"/><polygon fill="#181818" points="148.2617,327.1719,152.2617,337.1719,156.2617,327.1719,152.2617,331.1719" style="stroke:#181818;stroke-width:1;"/><line style="stroke:#181818;stroke-width:1;" x1="261.606" x2="152.2617" y1="261.2031" y2="261.2031"/><line style="stroke:#181818;stroke-width:1;" x1="152.2617" x2="152.2617" y1="261.2031" y2="283.2031"/><polygon fill="#181818" points="148.2617,273.2031,152.2617,283.2031,156.2617,273.2031,152.2617,277.2031" style="stroke:#181818;stroke-width:1;"/><line style="stroke:#181818;stroke-width:1;" x1="410.688" x2="520.0322" y1="261.2031" y2="261.2031"/><line style="stroke:#181818;stroke-width:1;" x1="520.0322" x2="520.0322" y1="261.2031" y2="283.2031"/><polygon fill="#181818" points="516.0322,273.2031,520.0322,283.2031,524.0322,273.2031,520.0322,277.2031" style="stroke:#181818;stroke-width:1;"/><line style="stroke:#181818;stroke-width:1;" x1="152.2617" x2="152.2617" y1="371.1406" y2="389.1406"/><line style="stroke:#181818;stroke-width:1;" x1="152.2617" x2="324.147" y1="389.1406" y2="389.1406"/><polygon fill="#181818" points="314.147,385.1406,324.147,389.1406,314.147,393.1406,318.147,389.1406" style="stroke:#181818;stroke-width:1;"/><line style="stroke:#181818;stroke-width:1;" x1="520.0322" x2="520.0322" y1="317.1719" y2="389.1406"/><line style="stroke:#181818;stroke-width:1;" x1="520.0322" x2="348.147" y1="389.1406" y2="389.1406"/><polygon fill="#181818" points="358.147,385.1406,348.147,389.1406,358.147,393.1406,354.147,389.1406" style="stroke:#181818;stroke-width:1;"/><line style="stroke:#181818;stroke-width:1;" x1="336.147" x2="336.147" y1="229.2031" y2="249.2031"/><polygon fill="#181818" points="332.147,239.2031,336.147,249.2031,340.147,239.2031,336.147,243.2031" style="stroke:#181818;stroke-width:1;"/><line style="stroke:#181818;stroke-width:1;" x1="336.147" x2="336.147" y1="401.1406" y2="421.1406"/><polygon fill="#181818" points="332.147,411.1406,336.147,421.1406,340.147,411.1406,336.147,415.1406" style="stroke:#181818;stroke-width:1;"/><!--SRC=[ZP0nQWD134NxFOLmjNi5Rv4Yf72JnYTGPhw9pAp6I5g3ZvC3f0WvG21xiGm1WsqSIF_- -ryAYGBQg2HXeorSba_jFDYYMpyLcdrcaqfUIqE2IJIivZc9KJ9aQ0iM-FXBktXWOZh09Wdy1LD_rfuerSQmO_dWORogF8TnKoGxwh-_7Yzzn-MjI6P_62XUeTHlb_UX8xgt2OKu9NWTRm63Gzk94zHv3ygW5u4UeSqzTYWEwf_hy8ySpAgjQNMrKZHLCwHWNpMTPjcrJzV33m00]--></g></svg>