<svg xmlns="http://www.w3.org/2000/svg" xmlns:xlink="http://www.w3.org/1999/xlink" contentStyleType="text/css" height="458px" preserveAspectRatio="none" style="width:700px;height:458px;background:#FFFFFF;" version="1.1" viewBox="0 0 700 458" width="700px" zoomAndPan="magnify"><defs/><g><ellipse cx="357.1147" cy="20" fill="#222222" rx="10" ry="10" style="stroke:#222222;stroke-width:1;"/><rect fill="#F1F1F1" height="33.9688" rx="12.5" ry="12.5" style="stroke:#181818;stroke-width:0.5;" width="325.4316" x="194.3989" y="50"/><text fill="#000000" font-family="sans-serif" font-size="12" lengthAdjust="spacing" textLength="305.4316" x="204.3989" y="71.1387">El usuario solicita listar las asignaturas registradas</text><rect fill="#F1F1F1" height="33.9688" rx="12.5" ry="12.5" style="stroke:#181818;stroke-width:0.5;" width="371.6152" x="171.3071" y="103.9688"/><text fill="#000000" font-family="sans-serif" font-size="12" lengthAdjust="spacing" textLength="351.6152" x="181.3071" y="125.1074">Sistema solicita datos de grados, asignaturas y profesores</text><rect fill="#F1F1F1" height="33.9688" rx="12.5" ry="12.5" style="stroke:#181818;stroke-width:0.5;" width="665.5977" x="24.3159" y="157.9375"/><text fill="#000000" font-family="sans-serif" font-size="12" lengthAdjust="spacing" textLength="645.5977" x="34.3159" y="179.0762">Sistema muestra todas las asignaturas de todos los grados con los profesores asignados a cada asignatura</text><rect fill="#F1F1F1" height="33.9688" rx="12.5" ry="12.5" style="stroke:#181818;stroke-width:0.5;" width="398.4102" x="157.9097" y="211.9063"/><text fill="#000000" font-family="sans-serif" font-size="12" lengthAdjust="spacing" textLength="378.4102" x="167.9097" y="233.0449">Usuario selecciona filtros opcionales (grado, profesor, nombre)</text><polygon fill="#F1F1F1" points="309.5457,265.875,404.6838,265.875,416.6838,277.875,404.6838,289.875,309.5457,289.875,297.5457,277.875,309.5457,265.875" style="stroke:#181818;stroke-width:0.5;"/><text fill="#000000" font-family="sans-serif" font-size="11" lengthAdjust="spacing" textLength="95.1382" x="309.5457" y="281.6831">Filtros aplicados?</text><text fill="#000000" font-family="sans-serif" font-size="11" lengthAdjust="spacing" textLength="10.0386" x="287.5071" y="275.2808">S&#237;</text><text fill="#000000" font-family="sans-serif" font-size="11" lengthAdjust="spacing" textLength="14.9585" x="416.6838" y="275.2808">No</text><rect fill="#F1F1F1" height="75.875" rx="12.5" ry="12.5" style="stroke:#181818;stroke-width:0.5;" width="351.4941" x="11" y="299.875"/><text fill="#000000" font-family="sans-serif" font-size="12" lengthAdjust="spacing" textLength="244.4063" x="21" y="321.0137">Sistema reduce las opciones mostrando:</text><text fill="#000000" font-family="sans-serif" font-size="12" lengthAdjust="spacing" textLength="241.6523" x="28.6289" y="334.9824">- Asignaturas de un grado seleccionado,</text><text fill="#000000" font-family="sans-serif" font-size="12" lengthAdjust="spacing" textLength="231.7676" x="28.6289" y="348.9512">- Asignaturas asignadas a un profesor,</text><text fill="#000000" font-family="sans-serif" font-size="12" lengthAdjust="spacing" textLength="323.8652" x="28.6289" y="362.9199">- O asignaturas que coincidan con el nombre buscado</text><rect fill="#F1F1F1" height="33.9688" rx="12.5" ry="12.5" style="stroke:#181818;stroke-width:0.5;" width="289.9766" x="382.4941" y="299.875"/><text fill="#000000" font-family="sans-serif" font-size="12" lengthAdjust="spacing" textLength="269.9766" x="392.4941" y="321.0137">Sistema mantiene la lista completa sin filtrar</text><polygon fill="#F1F1F1" points="357.1147,381.75,369.1147,393.75,357.1147,405.75,345.1147,393.75,357.1147,381.75" style="stroke:#181818;stroke-width:0.5;"/><ellipse cx="357.1147" cy="436.75" fill="none" rx="11" ry="11" style="stroke:#222222;stroke-width:1;"/><ellipse cx="357.1147" cy="436.75" fill="#222222" rx="6" ry="6" style="stroke:#222222;stroke-width:1;"/><line style="stroke:#181818;stroke-width:1;" x1="357.1147" x2="357.1147" y1="30" y2="50"/><polygon fill="#181818" points="353.1147,40,357.1147,50,361.1147,40,357.1147,44" style="stroke:#181818;stroke-width:1;"/><line style="stroke:#181818;stroke-width:1;" x1="357.1147" x2="357.1147" y1="83.9688" y2="103.9688"/><polygon fill="#181818" points="353.1147,93.9688,357.1147,103.9688,361.1147,93.9688,357.1147,97.9688" style="stroke:#181818;stroke-width:1;"/><line style="stroke:#181818;stroke-width:1;" x1="357.1147" x2="357.1147" y1="137.9375" y2="157.9375"/><polygon fill="#181818" points="353.1147,147.9375,357.1147,157.9375,361.1147,147.9375,357.1147,151.9375" style="stroke:#181818;stroke-width:1;"/><line style="stroke:#181818;stroke-width:1;" x1="357.1147" x2="357.1147" y1="191.9063" y2="211.9063"/><polygon fill="#181818" points="353.1147,201.9063,357.1147,211.9063,361.1147,201.9063,357.1147,205.9063" style="stroke:#181818;stroke-width:1;"/><line style="stroke:#181818;stroke-width:1;" x1="297.5457" x2="186.7471" y1="277.875" y2="277.875"/><line style="stroke:#181818;stroke-width:1;" x1="186.7471" x2="186.7471" y1="277.875" y2="299.875"/><polygon fill="#181818" points="182.7471,289.875,186.7471,299.875,190.7471,289.875,186.7471,293.875" style="stroke:#181818;stroke-width:1;"/><line style="stroke:#181818;stroke-width:1;" x1="416.6838" x2="527.4824" y1="277.875" y2="277.875"/><line style="stroke:#181818;stroke-width:1;" x1="527.4824" x2="527.4824" y1="277.875" y2="299.875"/><polygon fill="#181818" points="523.4824,289.875,527.4824,299.875,531.4824,289.875,527.4824,293.875" style="stroke:#181818;stroke-width:1;"/><line style="stroke:#181818;stroke-width:1;" x1="186.7471" x2="186.7471" y1="375.75" y2="393.75"/><line style="stroke:#181818;stroke-width:1;" x1="186.7471" x2="345.1147" y1="393.75" y2="393.75"/><polygon fill="#181818" points="335.1147,389.75,345.1147,393.75,335.1147,397.75,339.1147,393.75" style="stroke:#181818;stroke-width:1;"/><line style="stroke:#181818;stroke-width:1;" x1="527.4824" x2="527.4824" y1="333.8438" y2="393.75"/><line style="stroke:#181818;stroke-width:1;" x1="527.4824" x2="369.1147" y1="393.75" y2="393.75"/><polygon fill="#181818" points="379.1147,389.75,369.1147,393.75,379.1147,397.75,375.1147,393.75" style="stroke:#181818;stroke-width:1;"/><line style="stroke:#181818;stroke-width:1;" x1="357.1147" x2="357.1147" y1="245.875" y2="265.875"/><polygon fill="#181818" points="353.1147,255.875,357.1147,265.875,361.1147,255.875,357.1147,259.875" style="stroke:#181818;stroke-width:1;"/><line style="stroke:#181818;stroke-width:1;" x1="357.1147" x2="357.1147" y1="405.75" y2="425.75"/><polygon fill="#181818" points="353.1147,415.75,357.1147,425.75,361.1147,415.75,357.1147,419.75" style="stroke:#181818;stroke-width:1;"/><!--SRC=[RP91JiD034NtEOMNgLGkq2uG2rZ20d40TyOfbYPs6CyiE1Idu69uaj0sWaKaZ_p_jvyLAvXBTtXCKArYPWNJn84BGcBp9YGqGEEpOAdPwqndRsICQCVkyEerZNXrHIng40dEBb7RRxoVC6KTo3JJhNcir1AXg8V-6UXPtl3GvD-I2a5bVbxZLajh8WJVxYR3Hxtzqb6Y45W5OU1Kiijrcj_9C_evVd-9tOFeUCgqEtOyGF-qEd1os3RgVWVbdGJwr- -lNGTm8SeKQw0PPOdty54Rf4Gzk1BW3Xwsa5KMkfiTVPT_j2jfgvhfikmgVTbSxwEINuibS4IPxqPffO9JjOPnx2WPGV-i6uOHfJ19erZ-1NUFKo8lZ6Kv7sOtI-IXiwBJ3m00]--></g></svg>