<svg xmlns="http://www.w3.org/2000/svg" xmlns:xlink="http://www.w3.org/1999/xlink" contentStyleType="text/css" height="696px" preserveAspectRatio="none" style="width:1596px;height:696px;background:#FFFFFF;" version="1.1" viewBox="0 0 1596 696" width="1596px" zoomAndPan="magnify"><defs/><g><ellipse cx="662.9646" cy="20" fill="#222222" rx="10" ry="10" style="stroke:#222222;stroke-width:1;"/><rect fill="#F1F1F1" height="33.9688" rx="12.5" ry="12.5" style="stroke:#181818;stroke-width:0.5;" width="354.7285" x="485.6003" y="50"/><text fill="#000000" font-family="sans-serif" font-size="12" lengthAdjust="spacing" textLength="334.7285" x="495.6003" y="71.1387">El usuario solicita introducir registro de un nuevo grado</text><rect fill="#F1F1F1" height="33.9688" rx="12.5" ry="12.5" style="stroke:#181818;stroke-width:0.5;" width="309.5469" x="508.1912" y="103.9688"/><text fill="#000000" font-family="sans-serif" font-size="12" lengthAdjust="spacing" textLength="289.5469" x="518.1912" y="125.1074">El sistema permite introduccion un nuevo grado</text><rect fill="#F1F1F1" height="33.9688" rx="12.5" ry="12.5" style="stroke:#181818;stroke-width:0.5;" width="287.9199" x="519.0046" y="157.9375"/><text fill="#000000" font-family="sans-serif" font-size="12" lengthAdjust="spacing" textLength="267.9199" x="529.0046" y="179.0762">El usuario introduce "Registrar" o "Importar"</text><polygon fill="#F1F1F1" points="601.24,211.9063,724.6892,211.9063,736.6892,223.9063,724.6892,235.9063,601.24,235.9063,589.24,223.9063,601.24,211.9063" style="stroke:#181818;stroke-width:0.5;"/><text fill="#000000" font-family="sans-serif" font-size="11" lengthAdjust="spacing" textLength="123.4492" x="601.24" y="227.7144">&#191;Registrar o Importar?</text><text fill="#000000" font-family="sans-serif" font-size="11" lengthAdjust="spacing" textLength="50.2788" x="538.9612" y="221.312">Registrar</text><text fill="#000000" font-family="sans-serif" font-size="11" lengthAdjust="spacing" textLength="47.7705" x="736.6892" y="221.312">Importar</text><rect fill="#F1F1F1" height="33.9688" rx="12.5" ry="12.5" style="stroke:#181818;stroke-width:0.5;" width="527.5215" x="11" y="245.9063"/><text fill="#000000" font-family="sans-serif" font-size="12" lengthAdjust="spacing" textLength="507.5215" x="21" y="267.0449">El sistema permite introducir datos del grado (nombre, nivel educativo, descripci&#243;n)</text><rect fill="#F1F1F1" height="33.9688" rx="12.5" ry="12.5" style="stroke:#181818;stroke-width:0.5;" width="258.7461" x="145.3877" y="299.875"/><text fill="#000000" font-family="sans-serif" font-size="12" lengthAdjust="spacing" textLength="238.7461" x="155.3877" y="321.0137">El usuario introduce los datos del grado</text><rect fill="#F1F1F1" height="33.9688" rx="12.5" ry="12.5" style="stroke:#181818;stroke-width:0.5;" width="195.7813" x="176.8701" y="353.8438"/><text fill="#000000" font-family="sans-serif" font-size="12" lengthAdjust="spacing" textLength="175.7813" x="186.8701" y="374.9824">El sistema incorpora el grado</text><rect fill="#F1F1F1" height="33.9688" rx="12.5" ry="12.5" style="stroke:#181818;stroke-width:0.5;" width="525.6465" x="788.3452" y="245.9063"/><text fill="#000000" font-family="sans-serif" font-size="12" lengthAdjust="spacing" textLength="505.6465" x="798.3452" y="267.0449">El sistema permite introducir un archivo para importar grados (archivo Excel o CSV)</text><rect fill="#F1F1F1" height="33.9688" rx="12.5" ry="12.5" style="stroke:#181818;stroke-width:0.5;" width="339.0254" x="881.6558" y="299.875"/><text fill="#000000" font-family="sans-serif" font-size="12" lengthAdjust="spacing" textLength="319.0254" x="891.6558" y="321.0137">El usuario introduce carga del archivo con los grados</text><rect fill="#F1F1F1" height="33.9688" rx="12.5" ry="12.5" style="stroke:#181818;stroke-width:0.5;" width="326.5156" x="887.9106" y="353.8438"/><text fill="#000000" font-family="sans-serif" font-size="12" lengthAdjust="spacing" textLength="306.5156" x="897.9106" y="374.9824">El sistema valida el formato y los datos del archivo</text><polygon fill="#F1F1F1" points="972.8364,407.8125,1129.5005,407.8125,1141.5005,419.8125,1129.5005,431.8125,972.8364,431.8125,960.8364,419.8125,972.8364,407.8125" style="stroke:#181818;stroke-width:0.5;"/><text fill="#000000" font-family="sans-serif" font-size="11" lengthAdjust="spacing" textLength="156.6641" x="972.8364" y="423.6206">&#191;Formato y datos correctos?</text><text fill="#000000" font-family="sans-serif" font-size="11" lengthAdjust="spacing" textLength="10.0386" x="950.7979" y="417.2183">S&#237;</text><text fill="#000000" font-family="sans-serif" font-size="11" lengthAdjust="spacing" textLength="14.9585" x="1141.5005" y="417.2183">No</text><rect fill="#F1F1F1" height="33.9688" rx="12.5" ry="12.5" style="stroke:#181818;stroke-width:0.5;" width="345.0313" x="619.3252" y="441.8125"/><text fill="#000000" font-family="sans-serif" font-size="12" lengthAdjust="spacing" textLength="325.0313" x="629.3252" y="462.9512">El sistema importa los datos de los grados del archivo</text><rect fill="#F1F1F1" height="33.9688" rx="12.5" ry="12.5" style="stroke:#181818;stroke-width:0.5;" width="273.5293" x="655.0762" y="495.7813"/><text fill="#000000" font-family="sans-serif" font-size="12" lengthAdjust="spacing" textLength="253.5293" x="665.0762" y="516.9199">El sistema incorpora los grados al sistema</text><rect fill="#F1F1F1" height="33.9688" rx="12.5" ry="12.5" style="stroke:#181818;stroke-width:0.5;" width="446.6387" x="568.5215" y="549.75"/><text fill="#000000" font-family="sans-serif" font-size="12" lengthAdjust="spacing" textLength="426.6387" x="578.5215" y="570.8887">El sistema presenta confirmaci&#243;n: "Grados importados correctamente"</text><rect fill="#F1F1F1" height="33.9688" rx="12.5" ry="12.5" style="stroke:#181818;stroke-width:0.5;" width="550.6719" x="1035.1602" y="441.8125"/><text fill="#000000" font-family="sans-serif" font-size="12" lengthAdjust="spacing" textLength="530.6719" x="1045.1602" y="462.9512">El sistema presenta mensaje de error: "El archivo no tiene el formato o datos correctos"</text><rect fill="#F1F1F1" height="33.9688" rx="12.5" ry="12.5" style="stroke:#181818;stroke-width:0.5;" width="447.4648" x="1086.7637" y="495.7813"/><text fill="#000000" font-family="sans-serif" font-size="12" lengthAdjust="spacing" textLength="427.4648" x="1096.7637" y="516.9199">El sistema permite introducir correcci&#243;n del archivo y volver a cargarlo</text><polygon fill="#F1F1F1" points="1051.1685,589.7188,1063.1685,601.7188,1051.1685,613.7188,1039.1685,601.7188,1051.1685,589.7188" style="stroke:#181818;stroke-width:0.5;"/><polygon fill="#F1F1F1" points="662.9646,619.7188,674.9646,631.7188,662.9646,643.7188,650.9646,631.7188,662.9646,619.7188" style="stroke:#181818;stroke-width:0.5;"/><ellipse cx="662.9646" cy="674.7188" fill="none" rx="11" ry="11" style="stroke:#222222;stroke-width:1;"/><ellipse cx="662.9646" cy="674.7188" fill="#222222" rx="6" ry="6" style="stroke:#222222;stroke-width:1;"/><line style="stroke:#181818;stroke-width:1;" x1="662.9646" x2="662.9646" y1="30" y2="50"/><polygon fill="#181818" points="658.9646,40,662.9646,50,666.9646,40,662.9646,44" style="stroke:#181818;stroke-width:1;"/><line style="stroke:#181818;stroke-width:1;" x1="662.9646" x2="662.9646" y1="83.9688" y2="103.9688"/><polygon fill="#181818" points="658.9646,93.9688,662.9646,103.9688,666.9646,93.9688,662.9646,97.9688" style="stroke:#181818;stroke-width:1;"/><line style="stroke:#181818;stroke-width:1;" x1="662.9646" x2="662.9646" y1="137.9375" y2="157.9375"/><polygon fill="#181818" points="658.9646,147.9375,662.9646,157.9375,666.9646,147.9375,662.9646,151.9375" style="stroke:#181818;stroke-width:1;"/><line style="stroke:#181818;stroke-width:1;" x1="274.7607" x2="274.7607" y1="279.875" y2="299.875"/><polygon fill="#181818" points="270.7607,289.875,274.7607,299.875,278.7607,289.875,274.7607,293.875" style="stroke:#181818;stroke-width:1;"/><line style="stroke:#181818;stroke-width:1;" x1="274.7607" x2="274.7607" y1="333.8438" y2="353.8438"/><polygon fill="#181818" points="270.7607,343.8438,274.7607,353.8438,278.7607,343.8438,274.7607,347.8438" style="stroke:#181818;stroke-width:1;"/><line style="stroke:#181818;stroke-width:1;" x1="1051.1685" x2="1051.1685" y1="279.875" y2="299.875"/><polygon fill="#181818" points="1047.1685,289.875,1051.1685,299.875,1055.1685,289.875,1051.1685,293.875" style="stroke:#181818;stroke-width:1;"/><line style="stroke:#181818;stroke-width:1;" x1="1051.1685" x2="1051.1685" y1="333.8438" y2="353.8438"/><polygon fill="#181818" points="1047.1685,343.8438,1051.1685,353.8438,1055.1685,343.8438,1051.1685,347.8438" style="stroke:#181818;stroke-width:1;"/><line style="stroke:#181818;stroke-width:1;" x1="791.8408" x2="791.8408" y1="475.7813" y2="495.7813"/><polygon fill="#181818" points="787.8408,485.7813,791.8408,495.7813,795.8408,485.7813,791.8408,489.7813" style="stroke:#181818;stroke-width:1;"/><line style="stroke:#181818;stroke-width:1;" x1="791.8408" x2="791.8408" y1="529.75" y2="549.75"/><polygon fill="#181818" points="787.8408,539.75,791.8408,549.75,795.8408,539.75,791.8408,543.75" style="stroke:#181818;stroke-width:1;"/><line style="stroke:#181818;stroke-width:1;" x1="1310.4961" x2="1310.4961" y1="475.7813" y2="495.7813"/><polygon fill="#181818" points="1306.4961,485.7813,1310.4961,495.7813,1314.4961,485.7813,1310.4961,489.7813" style="stroke:#181818;stroke-width:1;"/><line style="stroke:#181818;stroke-width:1;" x1="960.8364" x2="791.8408" y1="419.8125" y2="419.8125"/><line style="stroke:#181818;stroke-width:1;" x1="791.8408" x2="791.8408" y1="419.8125" y2="441.8125"/><polygon fill="#181818" points="787.8408,431.8125,791.8408,441.8125,795.8408,431.8125,791.8408,435.8125" style="stroke:#181818;stroke-width:1;"/><line style="stroke:#181818;stroke-width:1;" x1="1141.5005" x2="1310.4961" y1="419.8125" y2="419.8125"/><line style="stroke:#181818;stroke-width:1;" x1="1310.4961" x2="1310.4961" y1="419.8125" y2="441.8125"/><polygon fill="#181818" points="1306.4961,431.8125,1310.4961,441.8125,1314.4961,431.8125,1310.4961,435.8125" style="stroke:#181818;stroke-width:1;"/><line style="stroke:#181818;stroke-width:1;" x1="791.8408" x2="791.8408" y1="583.7188" y2="601.7188"/><line style="stroke:#181818;stroke-width:1;" x1="791.8408" x2="1039.1685" y1="601.7188" y2="601.7188"/><polygon fill="#181818" points="1029.1685,597.7188,1039.1685,601.7188,1029.1685,605.7188,1033.1685,601.7188" style="stroke:#181818;stroke-width:1;"/><line style="stroke:#181818;stroke-width:1;" x1="1310.4961" x2="1310.4961" y1="529.75" y2="601.7188"/><line style="stroke:#181818;stroke-width:1;" x1="1310.4961" x2="1063.1685" y1="601.7188" y2="601.7188"/><polygon fill="#181818" points="1073.1685,597.7188,1063.1685,601.7188,1073.1685,605.7188,1069.1685,601.7188" style="stroke:#181818;stroke-width:1;"/><line style="stroke:#181818;stroke-width:1;" x1="1051.1685" x2="1051.1685" y1="387.8125" y2="407.8125"/><polygon fill="#181818" points="1047.1685,397.8125,1051.1685,407.8125,1055.1685,397.8125,1051.1685,401.8125" style="stroke:#181818;stroke-width:1;"/><line style="stroke:#181818;stroke-width:1;" x1="589.24" x2="274.7607" y1="223.9063" y2="223.9063"/><line style="stroke:#181818;stroke-width:1;" x1="274.7607" x2="274.7607" y1="223.9063" y2="245.9063"/><polygon fill="#181818" points="270.7607,235.9063,274.7607,245.9063,278.7607,235.9063,274.7607,239.9063" style="stroke:#181818;stroke-width:1;"/><line style="stroke:#181818;stroke-width:1;" x1="736.6892" x2="1051.1685" y1="223.9063" y2="223.9063"/><line style="stroke:#181818;stroke-width:1;" x1="1051.1685" x2="1051.1685" y1="223.9063" y2="245.9063"/><polygon fill="#181818" points="1047.1685,235.9063,1051.1685,245.9063,1055.1685,235.9063,1051.1685,239.9063" style="stroke:#181818;stroke-width:1;"/><line style="stroke:#181818;stroke-width:1;" x1="274.7607" x2="274.7607" y1="387.8125" y2="631.7188"/><line style="stroke:#181818;stroke-width:1;" x1="274.7607" x2="650.9646" y1="631.7188" y2="631.7188"/><polygon fill="#181818" points="640.9646,627.7188,650.9646,631.7188,640.9646,635.7188,644.9646,631.7188" style="stroke:#181818;stroke-width:1;"/><line style="stroke:#181818;stroke-width:1;" x1="1051.1685" x2="1051.1685" y1="613.7188" y2="631.7188"/><line style="stroke:#181818;stroke-width:1;" x1="1051.1685" x2="674.9646" y1="631.7188" y2="631.7188"/><polygon fill="#181818" points="684.9646,627.7188,674.9646,631.7188,684.9646,635.7188,680.9646,631.7188" style="stroke:#181818;stroke-width:1;"/><line style="stroke:#181818;stroke-width:1;" x1="662.9646" x2="662.9646" y1="191.9063" y2="211.9063"/><polygon fill="#181818" points="658.9646,201.9063,662.9646,211.9063,666.9646,201.9063,662.9646,205.9063" style="stroke:#181818;stroke-width:1;"/><line style="stroke:#181818;stroke-width:1;" x1="662.9646" x2="662.9646" y1="643.7188" y2="663.7188"/><polygon fill="#181818" points="658.9646,653.7188,662.9646,663.7188,666.9646,653.7188,662.9646,657.7188" style="stroke:#181818;stroke-width:1;"/><!--SRC=[ZL91JiD03Bpt5LPEgSGBw843AeWB1v2ucutR6YNhoBk9u56SU00I_HXEjadRb5PSgZIU6S-C4o9gd5qlIsX2Wye2GKfs717OHvMYSQoWjEPW_w0WQ3puXbg1jM8XYvuRR4eLGarQSQIHwbZyduHXsG0ao9xI3jGC1BA7gXOrRzbYnYl8Vxx7iKs7uSqSueOyvEDmFWEuPCYo51WbM90o-O7SI_MgT0MUMtj9XiB8hLmP9ZZbsl7soyyNE-LJvsKdToowcDXWxqJDCy8UGMKWo8Se_p1kFQAwZLc36asATzGa620VfijtPsi4RfzVBjXsg6liBGyyPyVgmYIzQOOMIoxw02lHolB2noJwJgSZfflTZS04iXAKd3sDXtlUVdR99ssbO4Vg1yQckyvLVS30SNvAg9K2ULjdyLTiXljxNqDsdxWxDyNUFrQ6fwoJIaTybFbvMGC7VACk0wcAcl9otxaNY4oU3dkLQLtP7wvFluy4xzqVdVK3MYbRKi1qSotxsiWNl9gbtn2b_WK0]--></g></svg>