<svg xmlns="http://www.w3.org/2000/svg" xmlns:xlink="http://www.w3.org/1999/xlink" contentStyleType="text/css" height="588px" preserveAspectRatio="none" style="width:1357px;height:588px;background:#FFFFFF;" version="1.1" viewBox="0 0 1357 588" width="1357px" zoomAndPan="magnify"><defs/><g><ellipse cx="488.8899" cy="20" fill="#222222" rx="10" ry="10" style="stroke:#222222;stroke-width:1;"/><rect fill="#F1F1F1" height="33.9688" rx="12.5" ry="12.5" style="stroke:#181818;stroke-width:0.5;" width="369.8926" x="303.9436" y="50"/><text fill="#000000" font-family="sans-serif" font-size="12" lengthAdjust="spacing" textLength="349.8926" x="313.9436" y="71.1387">El usuario solicita introducir registro de un nuevo profesor</text><polygon fill="#F1F1F1" points="427.1653,103.9688,550.6145,103.9688,562.6145,115.9688,550.6145,127.9688,427.1653,127.9688,415.1653,115.9688,427.1653,103.9688" style="stroke:#181818;stroke-width:0.5;"/><text fill="#000000" font-family="sans-serif" font-size="11" lengthAdjust="spacing" textLength="123.4492" x="427.1653" y="119.7769">&#191;Registrar o Importar?</text><text fill="#000000" font-family="sans-serif" font-size="11" lengthAdjust="spacing" textLength="50.2788" x="364.8865" y="113.3745">Registrar</text><text fill="#000000" font-family="sans-serif" font-size="11" lengthAdjust="spacing" textLength="47.7705" x="562.6145" y="113.3745">Importar</text><rect fill="#F1F1F1" height="33.9688" rx="12.5" ry="12.5" style="stroke:#181818;stroke-width:0.5;" width="294.0898" x="11" y="137.9688"/><text fill="#000000" font-family="sans-serif" font-size="12" lengthAdjust="spacing" textLength="274.0898" x="21" y="159.1074">Sistema permite introducir datos del profesor</text><rect fill="#F1F1F1" height="33.9688" rx="12.5" ry="12.5" style="stroke:#181818;stroke-width:0.5;" width="245.8613" x="35.1143" y="191.9375"/><text fill="#000000" font-family="sans-serif" font-size="12" lengthAdjust="spacing" textLength="225.8613" x="45.1143" y="213.0762">Sistema permite introducir el registro</text><rect fill="#F1F1F1" height="33.9688" rx="12.5" ry="12.5" style="stroke:#181818;stroke-width:0.5;" width="197.5508" x="59.2695" y="245.9063"/><text fill="#000000" font-family="sans-serif" font-size="12" lengthAdjust="spacing" textLength="177.5508" x="69.2695" y="267.0449">Sistema incorpora al profesor</text><rect fill="#F1F1F1" height="33.9688" rx="12.5" ry="12.5" style="stroke:#181818;stroke-width:0.5;" width="534.8281" x="552.3208" y="137.9688"/><text fill="#000000" font-family="sans-serif" font-size="12" lengthAdjust="spacing" textLength="514.8281" x="562.3208" y="159.1074">Sistema permite introducir un archivo para importar profesores (archivo Excel o CSV)</text><rect fill="#F1F1F1" height="33.9688" rx="12.5" ry="12.5" style="stroke:#181818;stroke-width:0.5;" width="348.0195" x="645.7251" y="191.9375"/><text fill="#000000" font-family="sans-serif" font-size="12" lengthAdjust="spacing" textLength="328.0195" x="655.7251" y="213.0762">Usuario introduce carga del archivo con los profesores</text><rect fill="#F1F1F1" height="33.9688" rx="12.5" ry="12.5" style="stroke:#181818;stroke-width:0.5;" width="313.1504" x="663.1597" y="245.9063"/><text fill="#000000" font-family="sans-serif" font-size="12" lengthAdjust="spacing" textLength="293.1504" x="673.1597" y="267.0449">Sistema valida el formato y los datos del archivo</text><polygon fill="#F1F1F1" points="741.4028,299.875,898.0669,299.875,910.0669,311.875,898.0669,323.875,741.4028,323.875,729.4028,311.875,741.4028,299.875" style="stroke:#181818;stroke-width:0.5;"/><text fill="#000000" font-family="sans-serif" font-size="11" lengthAdjust="spacing" textLength="156.6641" x="741.4028" y="315.6831">&#191;Formato y datos correctos?</text><text fill="#000000" font-family="sans-serif" font-size="11" lengthAdjust="spacing" textLength="10.0386" x="719.3643" y="309.2808">S&#237;</text><text fill="#000000" font-family="sans-serif" font-size="11" lengthAdjust="spacing" textLength="14.9585" x="910.0669" y="309.2808">No</text><rect fill="#F1F1F1" height="33.9688" rx="12.5" ry="12.5" style="stroke:#181818;stroke-width:0.5;" width="354.2129" x="384.8623" y="333.875"/><text fill="#000000" font-family="sans-serif" font-size="12" lengthAdjust="spacing" textLength="334.2129" x="394.8623" y="355.0137">Sistema importa los datos de los profesores del archivo</text><rect fill="#F1F1F1" height="33.9688" rx="12.5" ry="12.5" style="stroke:#181818;stroke-width:0.5;" width="282.7109" x="420.6133" y="387.8438"/><text fill="#000000" font-family="sans-serif" font-size="12" lengthAdjust="spacing" textLength="262.7109" x="430.6133" y="408.9824">Sistema incorpora los profesores al sistema</text><rect fill="#F1F1F1" height="33.9688" rx="12.5" ry="12.5" style="stroke:#181818;stroke-width:0.5;" width="453.7578" x="335.0898" y="441.8125"/><text fill="#000000" font-family="sans-serif" font-size="12" lengthAdjust="spacing" textLength="433.7578" x="345.0898" y="462.9512">Sistema presenta confirmaci&#243;n: "Profesores importados correctamente"</text><rect fill="#F1F1F1" height="33.9688" rx="12.5" ry="12.5" style="stroke:#181818;stroke-width:0.5;" width="537.3066" x="808.8477" y="333.875"/><text fill="#000000" font-family="sans-serif" font-size="12" lengthAdjust="spacing" textLength="517.3066" x="818.8477" y="355.0137">Sistema presenta mensaje de error: "El archivo no tiene el formato o datos correctos"</text><rect fill="#F1F1F1" height="33.9688" rx="12.5" ry="12.5" style="stroke:#181818;stroke-width:0.5;" width="434.0996" x="860.4512" y="387.8438"/><text fill="#000000" font-family="sans-serif" font-size="12" lengthAdjust="spacing" textLength="414.0996" x="870.4512" y="408.9824">Sistema permite introducir correcci&#243;n del archivo y volver a cargarlo</text><polygon fill="#F1F1F1" points="819.7349,481.7813,831.7349,493.7813,819.7349,505.7813,807.7349,493.7813,819.7349,481.7813" style="stroke:#181818;stroke-width:0.5;"/><polygon fill="#F1F1F1" points="488.8899,511.7813,500.8899,523.7813,488.8899,535.7813,476.8899,523.7813,488.8899,511.7813" style="stroke:#181818;stroke-width:0.5;"/><ellipse cx="488.8899" cy="566.7813" fill="none" rx="11" ry="11" style="stroke:#222222;stroke-width:1;"/><ellipse cx="488.8899" cy="566.7813" fill="#222222" rx="6" ry="6" style="stroke:#222222;stroke-width:1;"/><line style="stroke:#181818;stroke-width:1;" x1="488.8899" x2="488.8899" y1="30" y2="50"/><polygon fill="#181818" points="484.8899,40,488.8899,50,492.8899,40,488.8899,44" style="stroke:#181818;stroke-width:1;"/><line style="stroke:#181818;stroke-width:1;" x1="158.0449" x2="158.0449" y1="171.9375" y2="191.9375"/><polygon fill="#181818" points="154.0449,181.9375,158.0449,191.9375,162.0449,181.9375,158.0449,185.9375" style="stroke:#181818;stroke-width:1;"/><line style="stroke:#181818;stroke-width:1;" x1="158.0449" x2="158.0449" y1="225.9063" y2="245.9063"/><polygon fill="#181818" points="154.0449,235.9063,158.0449,245.9063,162.0449,235.9063,158.0449,239.9063" style="stroke:#181818;stroke-width:1;"/><line style="stroke:#181818;stroke-width:1;" x1="819.7349" x2="819.7349" y1="171.9375" y2="191.9375"/><polygon fill="#181818" points="815.7349,181.9375,819.7349,191.9375,823.7349,181.9375,819.7349,185.9375" style="stroke:#181818;stroke-width:1;"/><line style="stroke:#181818;stroke-width:1;" x1="819.7349" x2="819.7349" y1="225.9063" y2="245.9063"/><polygon fill="#181818" points="815.7349,235.9063,819.7349,245.9063,823.7349,235.9063,819.7349,239.9063" style="stroke:#181818;stroke-width:1;"/><line style="stroke:#181818;stroke-width:1;" x1="561.9688" x2="561.9688" y1="367.8438" y2="387.8438"/><polygon fill="#181818" points="557.9688,377.8438,561.9688,387.8438,565.9688,377.8438,561.9688,381.8438" style="stroke:#181818;stroke-width:1;"/><line style="stroke:#181818;stroke-width:1;" x1="561.9688" x2="561.9688" y1="421.8125" y2="441.8125"/><polygon fill="#181818" points="557.9688,431.8125,561.9688,441.8125,565.9688,431.8125,561.9688,435.8125" style="stroke:#181818;stroke-width:1;"/><line style="stroke:#181818;stroke-width:1;" x1="1077.501" x2="1077.501" y1="367.8438" y2="387.8438"/><polygon fill="#181818" points="1073.501,377.8438,1077.501,387.8438,1081.501,377.8438,1077.501,381.8438" style="stroke:#181818;stroke-width:1;"/><line style="stroke:#181818;stroke-width:1;" x1="729.4028" x2="561.9688" y1="311.875" y2="311.875"/><line style="stroke:#181818;stroke-width:1;" x1="561.9688" x2="561.9688" y1="311.875" y2="333.875"/><polygon fill="#181818" points="557.9688,323.875,561.9688,333.875,565.9688,323.875,561.9688,327.875" style="stroke:#181818;stroke-width:1;"/><line style="stroke:#181818;stroke-width:1;" x1="910.0669" x2="1077.501" y1="311.875" y2="311.875"/><line style="stroke:#181818;stroke-width:1;" x1="1077.501" x2="1077.501" y1="311.875" y2="333.875"/><polygon fill="#181818" points="1073.501,323.875,1077.501,333.875,1081.501,323.875,1077.501,327.875" style="stroke:#181818;stroke-width:1;"/><line style="stroke:#181818;stroke-width:1;" x1="561.9688" x2="561.9688" y1="475.7813" y2="493.7813"/><line style="stroke:#181818;stroke-width:1;" x1="561.9688" x2="807.7349" y1="493.7813" y2="493.7813"/><polygon fill="#181818" points="797.7349,489.7813,807.7349,493.7813,797.7349,497.7813,801.7349,493.7813" style="stroke:#181818;stroke-width:1;"/><line style="stroke:#181818;stroke-width:1;" x1="1077.501" x2="1077.501" y1="421.8125" y2="493.7813"/><line style="stroke:#181818;stroke-width:1;" x1="1077.501" x2="831.7349" y1="493.7813" y2="493.7813"/><polygon fill="#181818" points="841.7349,489.7813,831.7349,493.7813,841.7349,497.7813,837.7349,493.7813" style="stroke:#181818;stroke-width:1;"/><line style="stroke:#181818;stroke-width:1;" x1="819.7349" x2="819.7349" y1="279.875" y2="299.875"/><polygon fill="#181818" points="815.7349,289.875,819.7349,299.875,823.7349,289.875,819.7349,293.875" style="stroke:#181818;stroke-width:1;"/><line style="stroke:#181818;stroke-width:1;" x1="415.1653" x2="158.0449" y1="115.9688" y2="115.9688"/><line style="stroke:#181818;stroke-width:1;" x1="158.0449" x2="158.0449" y1="115.9688" y2="137.9688"/><polygon fill="#181818" points="154.0449,127.9688,158.0449,137.9688,162.0449,127.9688,158.0449,131.9688" style="stroke:#181818;stroke-width:1;"/><line style="stroke:#181818;stroke-width:1;" x1="562.6145" x2="819.7349" y1="115.9688" y2="115.9688"/><line style="stroke:#181818;stroke-width:1;" x1="819.7349" x2="819.7349" y1="115.9688" y2="137.9688"/><polygon fill="#181818" points="815.7349,127.9688,819.7349,137.9688,823.7349,127.9688,819.7349,131.9688" style="stroke:#181818;stroke-width:1;"/><line style="stroke:#181818;stroke-width:1;" x1="158.0449" x2="158.0449" y1="279.875" y2="523.7813"/><line style="stroke:#181818;stroke-width:1;" x1="158.0449" x2="476.8899" y1="523.7813" y2="523.7813"/><polygon fill="#181818" points="466.8899,519.7813,476.8899,523.7813,466.8899,527.7813,470.8899,523.7813" style="stroke:#181818;stroke-width:1;"/><line style="stroke:#181818;stroke-width:1;" x1="819.7349" x2="819.7349" y1="505.7813" y2="523.7813"/><line style="stroke:#181818;stroke-width:1;" x1="819.7349" x2="500.8899" y1="523.7813" y2="523.7813"/><polygon fill="#181818" points="510.8899,519.7813,500.8899,523.7813,510.8899,527.7813,506.8899,523.7813" style="stroke:#181818;stroke-width:1;"/><line style="stroke:#181818;stroke-width:1;" x1="488.8899" x2="488.8899" y1="83.9688" y2="103.9688"/><polygon fill="#181818" points="484.8899,93.9688,488.8899,103.9688,492.8899,93.9688,488.8899,97.9688" style="stroke:#181818;stroke-width:1;"/><line style="stroke:#181818;stroke-width:1;" x1="488.8899" x2="488.8899" y1="535.7813" y2="555.7813"/><polygon fill="#181818" points="484.8899,545.7813,488.8899,555.7813,492.8899,545.7813,488.8899,549.7813" style="stroke:#181818;stroke-width:1;"/><!--SRC=[XLBBJiCm4BptArOz9RzG3XnGaRWWH0NtbRDfZH9lj7OY-b6S-00a-cDiuhnvNI97dfcTcRKFA66psnTG-nh5CdWkhB41mReWdDN62WWThTS_o0Xg1wwcXg4IpicpN6ri3iddnsC4eG33NLcngFHr2k543fBnCjq0x0vwfXAX8YbjeFce30DxdLFCzFzcA7Jmju1QPrZK1WBEnQZm1CbWy3yxcXR5d6oR5rNAzhnHa3ma0sB_QjGCmytXEUsiFFMT3e841kM8NRo1PDX1eP4dmKMA1WkROHioPocr73XtyAcdNgXbnKNSZi08qXg4Z9x6RHmkRstmULanrq9wPMizxCUgLnHjtaVCYb7fBJaTgF5pgtwDlRox7MmV9dBlAPiYOAaSshPQSOttdFwYgqYFBzJ6814MbTvFfJk6OCdHl5TUrxLTU_x-F2AsyxvOwXaQBXeImBXnARhAo6KstyIl3rnz0G00]--></g></svg>