<svg xmlns="http://www.w3.org/2000/svg" xmlns:xlink="http://www.w3.org/1999/xlink" contentStyleType="text/css" height="362px" preserveAspectRatio="none" style="width:1303px;height:362px;background:#FFFFFF;" version="1.1" viewBox="0 0 1303 362" width="1303px" zoomAndPan="magnify"><defs/><g><ellipse cx="713.3647" cy="20" fill="#222222" rx="10" ry="10" style="stroke:#222222;stroke-width:1;"/><rect fill="#F1F1F1" height="33.9688" rx="12.5" ry="12.5" style="stroke:#181818;stroke-width:0.5;" width="223.625" x="601.5522" y="50"/><text fill="#000000" font-family="sans-serif" font-size="12" lengthAdjust="spacing" textLength="203.625" x="611.5522" y="71.1387">Sistema verifica aulas disponibles</text><polygon fill="#F1F1F1" points="587.759,103.9688,838.9705,103.9688,850.9705,115.9688,838.9705,127.9688,587.759,127.9688,575.759,115.9688,587.759,103.9688" style="stroke:#181818;stroke-width:0.5;"/><text fill="#000000" font-family="sans-serif" font-size="11" lengthAdjust="spacing" textLength="251.2114" x="587.759" y="119.7769">&#191;Existen aulas que cumplen las preferencias?</text><text fill="#000000" font-family="sans-serif" font-size="11" lengthAdjust="spacing" textLength="10.0386" x="565.7205" y="113.3745">S&#237;</text><text fill="#000000" font-family="sans-serif" font-size="11" lengthAdjust="spacing" textLength="14.9585" x="850.9705" y="113.3745">No</text><rect fill="#F1F1F1" height="33.9688" rx="12.5" ry="12.5" style="stroke:#181818;stroke-width:0.5;" width="753.8457" x="11" y="137.9688"/><text fill="#000000" font-family="sans-serif" font-size="12" lengthAdjust="spacing" textLength="733.8457" x="21" y="159.1074">Sistema permite seleccionar autom&#225;ticamente la primera aula disponible que cumple las preferencias en orden num&#233;rico</text><rect fill="#F1F1F1" height="33.9688" rx="12.5" ry="12.5" style="stroke:#181818;stroke-width:0.5;" width="507.9219" x="784.8457" y="137.9688"/><text fill="#000000" font-family="sans-serif" font-size="12" lengthAdjust="spacing" textLength="487.9219" x="794.8457" y="159.1074">Sistema presenta mensaje de error: "No hay aulas disponibles para este horario"</text><polygon fill="#F1F1F1" points="713.3647,177.9375,725.3647,189.9375,713.3647,201.9375,701.3647,189.9375,713.3647,177.9375" style="stroke:#181818;stroke-width:0.5;"/><rect fill="#F1F1F1" height="33.9688" rx="12.5" ry="12.5" style="stroke:#181818;stroke-width:0.5;" width="491.3633" x="467.6831" y="221.9375"/><text fill="#000000" font-family="sans-serif" font-size="12" lengthAdjust="spacing" textLength="471.3633" x="477.6831" y="243.0762">Sistema visualiza el cambio del estado de la asignatura a "Con aula asignada"</text><rect fill="#F1F1F1" height="33.9688" rx="12.5" ry="12.5" style="stroke:#181818;stroke-width:0.5;" width="412.2207" x="507.2544" y="275.9063"/><text fill="#000000" font-family="sans-serif" font-size="12" lengthAdjust="spacing" textLength="392.2207" x="517.2544" y="297.0449">Sistema actualiza la informaci&#243;n del horario con el aula asignada</text><ellipse cx="713.3647" cy="340.875" fill="none" rx="11" ry="11" style="stroke:#222222;stroke-width:1;"/><ellipse cx="713.3647" cy="340.875" fill="#222222" rx="6" ry="6" style="stroke:#222222;stroke-width:1;"/><line style="stroke:#181818;stroke-width:1;" x1="713.3647" x2="713.3647" y1="30" y2="50"/><polygon fill="#181818" points="709.3647,40,713.3647,50,717.3647,40,713.3647,44" style="stroke:#181818;stroke-width:1;"/><line style="stroke:#181818;stroke-width:1;" x1="575.759" x2="387.9229" y1="115.9688" y2="115.9688"/><line style="stroke:#181818;stroke-width:1;" x1="387.9229" x2="387.9229" y1="115.9688" y2="137.9688"/><polygon fill="#181818" points="383.9229,127.9688,387.9229,137.9688,391.9229,127.9688,387.9229,131.9688" style="stroke:#181818;stroke-width:1;"/><line style="stroke:#181818;stroke-width:1;" x1="850.9705" x2="1038.8066" y1="115.9688" y2="115.9688"/><line style="stroke:#181818;stroke-width:1;" x1="1038.8066" x2="1038.8066" y1="115.9688" y2="137.9688"/><polygon fill="#181818" points="1034.8066,127.9688,1038.8066,137.9688,1042.8066,127.9688,1038.8066,131.9688" style="stroke:#181818;stroke-width:1;"/><line style="stroke:#181818;stroke-width:1;" x1="387.9229" x2="387.9229" y1="171.9375" y2="189.9375"/><line style="stroke:#181818;stroke-width:1;" x1="387.9229" x2="701.3647" y1="189.9375" y2="189.9375"/><polygon fill="#181818" points="691.3647,185.9375,701.3647,189.9375,691.3647,193.9375,695.3647,189.9375" style="stroke:#181818;stroke-width:1;"/><line style="stroke:#181818;stroke-width:1;" x1="1038.8066" x2="1038.8066" y1="171.9375" y2="189.9375"/><line style="stroke:#181818;stroke-width:1;" x1="1038.8066" x2="725.3647" y1="189.9375" y2="189.9375"/><polygon fill="#181818" points="735.3647,185.9375,725.3647,189.9375,735.3647,193.9375,731.3647,189.9375" style="stroke:#181818;stroke-width:1;"/><line style="stroke:#181818;stroke-width:1;" x1="713.3647" x2="713.3647" y1="83.9688" y2="103.9688"/><polygon fill="#181818" points="709.3647,93.9688,713.3647,103.9688,717.3647,93.9688,713.3647,97.9688" style="stroke:#181818;stroke-width:1;"/><line style="stroke:#181818;stroke-width:1;" x1="713.3647" x2="713.3647" y1="201.9375" y2="221.9375"/><polygon fill="#181818" points="709.3647,211.9375,713.3647,221.9375,717.3647,211.9375,713.3647,215.9375" style="stroke:#181818;stroke-width:1;"/><line style="stroke:#181818;stroke-width:1;" x1="713.3647" x2="713.3647" y1="255.9063" y2="275.9063"/><polygon fill="#181818" points="709.3647,265.9063,713.3647,275.9063,717.3647,265.9063,713.3647,269.9063" style="stroke:#181818;stroke-width:1;"/><line style="stroke:#181818;stroke-width:1;" x1="713.3647" x2="713.3647" y1="309.875" y2="329.875"/><polygon fill="#181818" points="709.3647,319.875,713.3647,329.875,717.3647,319.875,713.3647,323.875" style="stroke:#181818;stroke-width:1;"/><!--SRC=[PP0nRiCm34LtduBmv5mX7ZeKNRFa18nCromaqINbekrjEdRer0CKg2zMkZ421ra4aVfw_vDMK4krFx8LIWWlfDnpGC0fea77DahcKoHhA-wX-VrvU5saUHKyJmHXIcFqpbAFIZqfvS1eTpieW_URu_orgm0k9YDfua9W52a4bepgk29f_YZkdIZxOtITSY8zPzb4sPZUU8BxYNP-vYdDdyf1segY4JG7kGwXP6w4u7Q6JmGT0QcAxg4-20puThi36D7Za0DW44LbgPsUE-ut6sIRCFAxwoBuC2SMHyVb5tRBTPaCZHypbcaP3kfxEQzpRNVer0iFGrbvBk3SYoOCF7_dV-eQ0u8ZlBoYj9KL6Vy0]--></g></svg>