<svg xmlns="http://www.w3.org/2000/svg" xmlns:xlink="http://www.w3.org/1999/xlink" contentStyleType="text/css" height="724px" preserveAspectRatio="none" style="width:1514px;height:724px;background:#FFFFFF;" version="1.1" viewBox="0 0 1514 724" width="1514px" zoomAndPan="magnify"><defs/><g><ellipse cx="692.0183" cy="20" fill="#222222" rx="10" ry="10" style="stroke:#222222;stroke-width:1;"/><rect fill="#F1F1F1" height="33.9688" rx="12.5" ry="12.5" style="stroke:#181818;stroke-width:0.5;" width="368.375" x="507.8308" y="50"/><text fill="#000000" font-family="sans-serif" font-size="12" lengthAdjust="spacing" textLength="348.375" x="517.8308" y="71.1387">El usuario solicita introducir asignaci&#243;n de una asignatura</text><rect fill="#F1F1F1" height="33.9688" rx="12.5" ry="12.5" style="stroke:#181818;stroke-width:0.5;" width="328.9004" x="527.5681" y="103.9688"/><text fill="#000000" font-family="sans-serif" font-size="12" lengthAdjust="spacing" textLength="308.9004" x="537.5681" y="125.1074">Sistema presenta todas las asignaturas disponibles</text><rect fill="#F1F1F1" height="33.9688" rx="12.5" ry="12.5" style="stroke:#181818;stroke-width:0.5;" width="292.8477" x="545.5945" y="157.9375"/><text fill="#000000" font-family="sans-serif" font-size="12" lengthAdjust="spacing" textLength="272.8477" x="555.5945" y="179.0762">Usuario introduce selecci&#243;n del d&#237;a y la fecha</text><rect fill="#F1F1F1" height="33.9688" rx="12.5" ry="12.5" style="stroke:#181818;stroke-width:0.5;" width="294.6289" x="544.7039" y="211.9063"/><text fill="#000000" font-family="sans-serif" font-size="12" lengthAdjust="spacing" textLength="274.6289" x="554.7039" y="233.0449">El Sistema permite introduccion  de seleccion</text><rect fill="#F1F1F1" height="61.9063" rx="12.5" ry="12.5" style="stroke:#181818;stroke-width:0.5;" width="399.834" x="492.1013" y="265.875"/><text fill="#000000" font-family="sans-serif" font-size="12" lengthAdjust="spacing" textLength="379.834" x="502.1013" y="287.0137">Usuario introduce selecci&#243;n de preferencias de aula (opcional):</text><text fill="#000000" font-family="sans-serif" font-size="12" lengthAdjust="spacing" textLength="80.9707" x="509.7302" y="300.9824">- Aula grande</text><text fill="#000000" font-family="sans-serif" font-size="12" lengthAdjust="spacing" textLength="143.9766" x="509.7302" y="314.9512">- Aula con computadora</text><rect fill="#F1F1F1" height="33.9688" rx="12.5" ry="12.5" style="stroke:#181818;stroke-width:0.5;" width="223.625" x="580.2058" y="347.7813"/><text fill="#000000" font-family="sans-serif" font-size="12" lengthAdjust="spacing" textLength="203.625" x="590.2058" y="368.9199">Sistema verifica aulas disponibles</text><polygon fill="#F1F1F1" points="566.4126,401.75,817.624,401.75,829.624,413.75,817.624,425.75,566.4126,425.75,554.4126,413.75,566.4126,401.75" style="stroke:#181818;stroke-width:0.5;"/><text fill="#000000" font-family="sans-serif" font-size="11" lengthAdjust="spacing" textLength="251.2114" x="566.4126" y="417.5581">&#191;Existen aulas que cumplen las preferencias?</text><text fill="#000000" font-family="sans-serif" font-size="11" lengthAdjust="spacing" textLength="10.0386" x="544.374" y="411.1558">S&#237;</text><text fill="#000000" font-family="sans-serif" font-size="11" lengthAdjust="spacing" textLength="14.9585" x="829.624" y="411.1558">No</text><rect fill="#F1F1F1" height="33.9688" rx="12.5" ry="12.5" style="stroke:#181818;stroke-width:0.5;" width="587.7676" x="11" y="435.75"/><text fill="#000000" font-family="sans-serif" font-size="12" lengthAdjust="spacing" textLength="567.7676" x="21" y="456.8887">Sistema permite introducir asignaci&#243;n autom&#225;tica de un aula que cumple con las preferencias</text><polygon fill="#F1F1F1" points="958.2737,435.75,1200.032,435.75,1212.032,447.75,1200.032,459.75,958.2737,459.75,946.2737,447.75,958.2737,435.75" style="stroke:#181818;stroke-width:0.5;"/><text fill="#000000" font-family="sans-serif" font-size="11" lengthAdjust="spacing" textLength="241.7583" x="958.2737" y="451.5581">&#191;Existen aulas disponibles sin preferencias?</text><text fill="#000000" font-family="sans-serif" font-size="11" lengthAdjust="spacing" textLength="10.0386" x="936.2351" y="445.1558">S&#237;</text><text fill="#000000" font-family="sans-serif" font-size="11" lengthAdjust="spacing" textLength="14.9585" x="1212.032" y="445.1558">No</text><rect fill="#F1F1F1" height="33.9688" rx="12.5" ry="12.5" style="stroke:#181818;stroke-width:0.5;" width="453.6289" x="628.7676" y="469.75"/><text fill="#000000" font-family="sans-serif" font-size="12" lengthAdjust="spacing" textLength="433.6289" x="638.7676" y="490.8887">Sistema permite introducir asignaci&#243;n autom&#225;tica de un aula disponible</text><rect fill="#F1F1F1" height="33.9688" rx="12.5" ry="12.5" style="stroke:#181818;stroke-width:0.5;" width="400.6543" x="1102.3965" y="469.75"/><text fill="#000000" font-family="sans-serif" font-size="12" lengthAdjust="spacing" textLength="380.6543" x="1112.3965" y="490.8887">Sistema presenta mensaje de error: "No hay aulas disponibles"</text><polygon fill="#F1F1F1" points="1079.1528,509.7188,1091.1528,521.7188,1079.1528,533.7188,1067.1528,521.7188,1079.1528,509.7188" style="stroke:#181818;stroke-width:0.5;"/><polygon fill="#F1F1F1" points="692.0183,539.7188,704.0183,551.7188,692.0183,563.7188,680.0183,551.7188,692.0183,539.7188" style="stroke:#181818;stroke-width:0.5;"/><rect fill="#F1F1F1" height="33.9688" rx="12.5" ry="12.5" style="stroke:#181818;stroke-width:0.5;" width="582.7754" x="400.6306" y="583.7188"/><text fill="#000000" font-family="sans-serif" font-size="12" lengthAdjust="spacing" textLength="562.7754" x="410.6306" y="604.8574">Sistema guarda la informaci&#243;n y visualiza el cambio de estatus de la asignatura a "Asignada"</text><rect fill="#F1F1F1" height="33.9688" rx="12.5" ry="12.5" style="stroke:#181818;stroke-width:0.5;" width="441.7461" x="471.1453" y="637.6875"/><text fill="#000000" font-family="sans-serif" font-size="12" lengthAdjust="spacing" textLength="421.7461" x="481.1453" y="658.8262">Sistema presenta confirmaci&#243;n: "Asignatura asignada correctamente"</text><ellipse cx="692.0183" cy="702.6563" fill="none" rx="11" ry="11" style="stroke:#222222;stroke-width:1;"/><ellipse cx="692.0183" cy="702.6563" fill="#222222" rx="6" ry="6" style="stroke:#222222;stroke-width:1;"/><line style="stroke:#181818;stroke-width:1;" x1="692.0183" x2="692.0183" y1="30" y2="50"/><polygon fill="#181818" points="688.0183,40,692.0183,50,696.0183,40,692.0183,44" style="stroke:#181818;stroke-width:1;"/><line style="stroke:#181818;stroke-width:1;" x1="692.0183" x2="692.0183" y1="83.9688" y2="103.9688"/><polygon fill="#181818" points="688.0183,93.9688,692.0183,103.9688,696.0183,93.9688,692.0183,97.9688" style="stroke:#181818;stroke-width:1;"/><line style="stroke:#181818;stroke-width:1;" x1="692.0183" x2="692.0183" y1="137.9375" y2="157.9375"/><polygon fill="#181818" points="688.0183,147.9375,692.0183,157.9375,696.0183,147.9375,692.0183,151.9375" style="stroke:#181818;stroke-width:1;"/><line style="stroke:#181818;stroke-width:1;" x1="692.0183" x2="692.0183" y1="191.9063" y2="211.9063"/><polygon fill="#181818" points="688.0183,201.9063,692.0183,211.9063,696.0183,201.9063,692.0183,205.9063" style="stroke:#181818;stroke-width:1;"/><line style="stroke:#181818;stroke-width:1;" x1="692.0183" x2="692.0183" y1="245.875" y2="265.875"/><polygon fill="#181818" points="688.0183,255.875,692.0183,265.875,696.0183,255.875,692.0183,259.875" style="stroke:#181818;stroke-width:1;"/><line style="stroke:#181818;stroke-width:1;" x1="692.0183" x2="692.0183" y1="327.7813" y2="347.7813"/><polygon fill="#181818" points="688.0183,337.7813,692.0183,347.7813,696.0183,337.7813,692.0183,341.7813" style="stroke:#181818;stroke-width:1;"/><line style="stroke:#181818;stroke-width:1;" x1="946.2737" x2="855.582" y1="447.75" y2="447.75"/><line style="stroke:#181818;stroke-width:1;" x1="855.582" x2="855.582" y1="447.75" y2="469.75"/><polygon fill="#181818" points="851.582,459.75,855.582,469.75,859.582,459.75,855.582,463.75" style="stroke:#181818;stroke-width:1;"/><line style="stroke:#181818;stroke-width:1;" x1="1212.032" x2="1302.7236" y1="447.75" y2="447.75"/><line style="stroke:#181818;stroke-width:1;" x1="1302.7236" x2="1302.7236" y1="447.75" y2="469.75"/><polygon fill="#181818" points="1298.7236,459.75,1302.7236,469.75,1306.7236,459.75,1302.7236,463.75" style="stroke:#181818;stroke-width:1;"/><line style="stroke:#181818;stroke-width:1;" x1="855.582" x2="855.582" y1="503.7188" y2="521.7188"/><line style="stroke:#181818;stroke-width:1;" x1="855.582" x2="1067.1528" y1="521.7188" y2="521.7188"/><polygon fill="#181818" points="1057.1528,517.7188,1067.1528,521.7188,1057.1528,525.7188,1061.1528,521.7188" style="stroke:#181818;stroke-width:1;"/><line style="stroke:#181818;stroke-width:1;" x1="1302.7236" x2="1302.7236" y1="503.7188" y2="521.7188"/><line style="stroke:#181818;stroke-width:1;" x1="1302.7236" x2="1091.1528" y1="521.7188" y2="521.7188"/><polygon fill="#181818" points="1101.1528,517.7188,1091.1528,521.7188,1101.1528,525.7188,1097.1528,521.7188" style="stroke:#181818;stroke-width:1;"/><line style="stroke:#181818;stroke-width:1;" x1="554.4126" x2="304.8838" y1="413.75" y2="413.75"/><line style="stroke:#181818;stroke-width:1;" x1="304.8838" x2="304.8838" y1="413.75" y2="435.75"/><polygon fill="#181818" points="300.8838,425.75,304.8838,435.75,308.8838,425.75,304.8838,429.75" style="stroke:#181818;stroke-width:1;"/><line style="stroke:#181818;stroke-width:1;" x1="829.624" x2="1079.1528" y1="413.75" y2="413.75"/><line style="stroke:#181818;stroke-width:1;" x1="1079.1528" x2="1079.1528" y1="413.75" y2="435.75"/><polygon fill="#181818" points="1075.1528,425.75,1079.1528,435.75,1083.1528,425.75,1079.1528,429.75" style="stroke:#181818;stroke-width:1;"/><line style="stroke:#181818;stroke-width:1;" x1="304.8838" x2="304.8838" y1="469.7188" y2="551.7188"/><line style="stroke:#181818;stroke-width:1;" x1="304.8838" x2="680.0183" y1="551.7188" y2="551.7188"/><polygon fill="#181818" points="670.0183,547.7188,680.0183,551.7188,670.0183,555.7188,674.0183,551.7188" style="stroke:#181818;stroke-width:1;"/><line style="stroke:#181818;stroke-width:1;" x1="1079.1528" x2="1079.1528" y1="533.7188" y2="551.7188"/><line style="stroke:#181818;stroke-width:1;" x1="1079.1528" x2="704.0183" y1="551.7188" y2="551.7188"/><polygon fill="#181818" points="714.0183,547.7188,704.0183,551.7188,714.0183,555.7188,710.0183,551.7188" style="stroke:#181818;stroke-width:1;"/><line style="stroke:#181818;stroke-width:1;" x1="692.0183" x2="692.0183" y1="381.75" y2="401.75"/><polygon fill="#181818" points="688.0183,391.75,692.0183,401.75,696.0183,391.75,692.0183,395.75" style="stroke:#181818;stroke-width:1;"/><line style="stroke:#181818;stroke-width:1;" x1="692.0183" x2="692.0183" y1="563.7188" y2="583.7188"/><polygon fill="#181818" points="688.0183,573.7188,692.0183,583.7188,696.0183,573.7188,692.0183,577.7188" style="stroke:#181818;stroke-width:1;"/><line style="stroke:#181818;stroke-width:1;" x1="692.0183" x2="692.0183" y1="617.6875" y2="637.6875"/><polygon fill="#181818" points="688.0183,627.6875,692.0183,637.6875,696.0183,627.6875,692.0183,631.6875" style="stroke:#181818;stroke-width:1;"/><line style="stroke:#181818;stroke-width:1;" x1="692.0183" x2="692.0183" y1="671.6563" y2="691.6563"/><polygon fill="#181818" points="688.0183,681.6563,692.0183,691.6563,696.0183,681.6563,692.0183,685.6563" style="stroke:#181818;stroke-width:1;"/><!--SRC=[fPCzRi9048Lxds94POfSm1GH1IqDoW66tJ5CjDvrzWU5t2O7eCe18eMBPTROu12I52biQKSpxtjZlmqHVIogXO4K4dfs49nXnH61RVHE9yKUCF36ekBZcmLDa2psfPWypefgnI5IWz1w2cHbDZgD0Omybxu0caFhBAyD1Hbww843Xo2G8JLG3EZZ0M4lAb2JscQEs3oZo3SSwJojs5d8vdeHP_z6PByrURAAipi2J08hNPl7qKmhA03kO9wh6uzMEYu59JpbcZP5rExBLzYHvveLTd9NMtCDvSVxuZctshxXAH6erBH6AlayTdK_XRYLUhaw7gO2htxQ_-elOOgkERx6RAFxOwVTBgZE_pLjLf091ENIPTOjhwDb8B3zrUk_tLvWCv4RMnjB3vbho0Pyf2n0tZjVmMJfO8lxxzOddPxLN1Udzrbj8u7Hc3F7jdQ-wGtkOSUI9SClA3v0OREMM6LIY1BkBZncV2a0OJBlJXedjsw8VFwQ1_rgQ3wDzdFIupsfYB9P9549qRMV]--></g></svg>