<svg xmlns="http://www.w3.org/2000/svg" xmlns:xlink="http://www.w3.org/1999/xlink" contentStyleType="text/css" height="910px" preserveAspectRatio="none" style="width:547px;height:910px;background:#FFFFFF;" version="1.1" viewBox="0 0 547 910" width="547px" zoomAndPan="magnify"><defs/><g><!--cluster IniciarSesion--><g id="cluster_IniciarSesion"><path d="M24.5,81 L427.5,81 A12.5,12.5 0 0 1 440,93.5 L440,102.2969 L12,102.2969 L12,93.5 A12.5,12.5 0 0 1 24.5,81 " fill="#F1F1F1" style="stroke:#F1F1F1;stroke-width:1;"/><rect fill="none" height="452" rx="12.5" ry="12.5" style="stroke:#181818;stroke-width:0.5;" width="428" x="12" y="81"/><line style="stroke:#181818;stroke-width:0.5;" x1="12" x2="440" y1="102.2969" y2="102.2969"/><text fill="#000000" font-family="sans-serif" font-size="14" lengthAdjust="spacing" textLength="88.9355" x="181.5322" y="97.9951">IniciarSesion</text></g><g id="elem_validUser"><polygon fill="#F1F1F1" points="404,345,416,357,404,369,392,357,404,345" style="stroke:#181818;stroke-width:0.5;"/></g><ellipse cx="245" cy="134" fill="#222222" rx="10" ry="10" style="stroke:#222222;stroke-width:1;"/><g id="IniciarSesion.UsuarioDesconocido"><rect fill="#F1F1F1" height="50" rx="12.5" ry="12.5" style="stroke:#181818;stroke-width:0.5;" width="162.6318" x="163.5" y="205"/><line style="stroke:#181818;stroke-width:0.5;" x1="163.5" x2="326.1318" y1="231.2969" y2="231.2969"/><text fill="#000000" font-family="sans-serif" font-size="14" lengthAdjust="spacing" textLength="142.6318" x="173.5" y="222.9951">UsuarioDesconocido</text></g><g id="IniciarSesion.IdentificandoUsuario"><rect fill="#F1F1F1" height="50" rx="12.5" ry="12.5" style="stroke:#181818;stroke-width:0.5;" width="164.5049" x="44.5" y="332"/><line style="stroke:#181818;stroke-width:0.5;" x1="44.5" x2="209.0049" y1="358.2969" y2="358.2969"/><text fill="#000000" font-family="sans-serif" font-size="14" lengthAdjust="spacing" textLength="144.5049" x="54.5" y="349.9951">IdentificandoUsuario</text></g><g id="IniciarSesion.UsuarioActivo"><rect fill="#F1F1F1" height="50" rx="12.5" ry="12.5" style="stroke:#181818;stroke-width:0.5;" width="116.708" x="298.5" y="459"/><line style="stroke:#181818;stroke-width:0.5;" x1="298.5" x2="415.208" y1="485.2969" y2="485.2969"/><text fill="#000000" font-family="sans-serif" font-size="14" lengthAdjust="spacing" textLength="96.708" x="308.5" y="476.9951">UsuarioActivo</text></g><path d="M192,588 L521.7974,588 A12.5,12.5 0 0 1 534.2974,600.5 L534.2974,614.2969 L179.5,614.2969 L179.5,600.5 A12.5,12.5 0 0 1 192,588 " fill="#F1F1F1" style="stroke:#F1F1F1;stroke-width:1;"/><rect fill="none" height="316.2969" rx="12.5" ry="12.5" style="stroke:#181818;stroke-width:0.5;" width="354.7974" x="179.5" y="588"/><line style="stroke:#181818;stroke-width:0.5;" x1="179.5" x2="534.2974" y1="614.2969" y2="614.2969"/><text fill="#000000" font-family="sans-serif" font-size="14" lengthAdjust="spacing" textLength="85.7979" x="313.9998" y="605.9951">Destinatario</text><ellipse cx="320.5" cy="635.2969" fill="#222222" rx="10" ry="10" style="stroke:#222222;stroke-width:1;"/><g id="Destinatario.Activo"><rect fill="#F1F1F1" height="50" rx="12.5" ry="12.5" style="stroke:#181818;stroke-width:0.5;" width="63.5039" x="288.5" y="682.2969"/><line style="stroke:#181818;stroke-width:0.5;" x1="288.5" x2="352.0039" y1="708.5938" y2="708.5938"/><text fill="#000000" font-family="sans-serif" font-size="14" lengthAdjust="spacing" textLength="43.5039" x="298.5" y="700.292">Activo</text></g><g id="Destinatario.GestionandoMensajes"><rect fill="#F1F1F1" height="50" rx="12.5" ry="12.5" style="stroke:#181818;stroke-width:0.5;" width="173.7129" x="191.5" y="769.2969"/><line style="stroke:#181818;stroke-width:0.5;" x1="191.5" x2="365.2129" y1="795.5938" y2="795.5938"/><text fill="#000000" font-family="sans-serif" font-size="14" lengthAdjust="spacing" textLength="153.7129" x="201.5" y="787.292">GestionandoMensajes</text></g><g id="Destinatario.Inactivo"><rect fill="#F1F1F1" height="50" rx="12.5" ry="12.5" style="stroke:#181818;stroke-width:0.5;" width="75.5078" x="383.5" y="769.2969"/><line style="stroke:#181818;stroke-width:0.5;" x1="383.5" x2="459.0078" y1="795.5938" y2="795.5938"/><text fill="#000000" font-family="sans-serif" font-size="14" lengthAdjust="spacing" textLength="55.5078" x="393.5" y="787.292">Inactivo</text></g><ellipse cx="421.5" cy="883.2969" fill="none" rx="11" ry="11" style="stroke:#222222;stroke-width:1;"/><ellipse cx="421.5" cy="883.2969" fill="#222222" rx="6" ry="6" style="stroke:#222222;stroke-width:1;"/><!--link *start*Destinatario to Activo--><g id="link_*start*Destinatario_Activo"><path d="M320.5,645.4469 C320.5,654.7169 320.5,663.4369 320.5,676.0769 " fill="none" id="*start*Destinatario-to-Activo" style="stroke:#181818;stroke-width:1;"/><polygon fill="#181818" points="320.5,682.0769,324.5,673.0769,320.5,677.0769,316.5,673.0769,320.5,682.0769" style="stroke:#181818;stroke-width:1;"/></g><!--link Activo to GestionandoMensajes--><g id="link_Activo_GestionandoMensajes"><path d="M308.58,732.4269 C302.9,743.9169 298.7889,752.2382 293.1089,763.7282 " fill="none" id="Activo-to-GestionandoMensajes" style="stroke:#181818;stroke-width:1;"/><polygon fill="#181818" points="290.45,769.1069,298.0242,762.8115,292.6658,764.6246,290.8526,759.2662,290.45,769.1069" style="stroke:#181818;stroke-width:1;"/></g><!--link Activo to Inactivo--><g id="link_Activo_Inactivo"><path d="M349.17,732.4269 C362.82,743.9169 374.5084,753.7546 388.1684,765.2446 " fill="none" id="Activo-to-Inactivo" style="stroke:#181818;stroke-width:1;"/><polygon fill="#181818" points="392.76,769.1069,388.4473,760.2524,388.9336,765.8884,383.2977,766.3746,392.76,769.1069" style="stroke:#181818;stroke-width:1;"/></g><!--link Inactivo to *end*Destinatario--><g id="link_Inactivo_*end*Destinatario"><path d="M421.5,819.5269 C421.5,836.8269 421.5,853.2169 421.5,866.0469 " fill="none" id="Inactivo-to-*end*Destinatario" style="stroke:#181818;stroke-width:1;"/><polygon fill="#181818" points="421.5,872.0469,425.5,863.0469,421.5,867.0469,417.5,863.0469,421.5,872.0469" style="stroke:#181818;stroke-width:1;"/><text fill="#000000" font-family="sans-serif" font-size="13" lengthAdjust="spacing" textLength="101.7974" x="422.5" y="850.3638">se cierra sesión</text></g><ellipse cx="20" cy="16" fill="#222222" rx="10" ry="10" style="stroke:#222222;stroke-width:1;"/><!--link *start* to IniciarSesion--><g id="link_*start*_IniciarSesion"><path d="M20,26.1 C20,32.83 20,42.7219 20,53.8117 C20,59.3566 20,65.2011 20,71.0995 C20,74.0487 20,77.0114 20,79.9569 C20,80.141 20,74.325 20,74.509 " fill="none" id="*start*-to-IniciarSesion" style="stroke:#181818;stroke-width:1;"/><polygon fill="#181818" points="20,80.509,24,71.509,20,75.509,16,71.509,20,80.509" style="stroke:#181818;stroke-width:1;"/></g><!--link *start*IniciarSesion to UsuarioDesconocido--><g id="link_*start*IniciarSesion_UsuarioDesconocido"><path d="M245,144.01 C245,157.89 245,178.97 245,198.84 " fill="none" id="*start*IniciarSesion-to-UsuarioDesconocido" style="stroke:#181818;stroke-width:1;"/><polygon fill="#181818" points="245,204.84,249,195.84,245,199.84,241,195.84,245,204.84" style="stroke:#181818;stroke-width:1;"/></g><!--link UsuarioDesconocido to IdentificandoUsuario--><g id="link_UsuarioDesconocido_IdentificandoUsuario"><path d="M210.86,255.04 C199.48,263.83 187.14,274.26 177,285 C163.55,299.25 154.1033,312.2921 144.8833,326.6421 " fill="none" id="UsuarioDesconocido-to-IdentificandoUsuario" style="stroke:#181818;stroke-width:1;"/><polygon fill="#181818" points="141.64,331.69,149.8702,326.2804,144.3428,327.4834,143.1397,321.956,141.64,331.69" style="stroke:#181818;stroke-width:1;"/><text fill="#000000" font-family="sans-serif" font-size="13" lengthAdjust="spacing" textLength="158.8501" x="178" y="298.0669">ingresando credenciales</text></g><!--link IdentificandoUsuario to validUser--><g id="link_IdentificandoUsuario_validUser"><path d="M209.73,357 C275.1,357 354.35,357 385.72,357 " fill="none" id="IdentificandoUsuario-to-validUser" style="stroke:#181818;stroke-width:1;"/><polygon fill="#181818" points="391.72,357,382.72,353,386.72,357,382.72,361,391.72,357" style="stroke:#181818;stroke-width:1;"/><text fill="#000000" font-family="sans-serif" font-size="13" lengthAdjust="spacing" textLength="146.9927" x="227.75" y="350.0669">credenciales correctas</text></g><!--reverse link UsuarioDesconocido to validUser--><g id="link_UsuarioDesconocido_validUser"><path d="M300.6169,258.1123 C315.9569,266.5523 327.16,273.84 341,285 C366.14,305.28 389.71,336.12 399.38,349.47 " fill="none" id="UsuarioDesconocido-backto-validUser" style="stroke:#181818;stroke-width:1;"/><polygon fill="#181818" points="295.36,255.22,301.3171,263.063,299.7407,257.6303,305.1735,256.0539,295.36,255.22" style="stroke:#181818;stroke-width:1;"/><text fill="#000000" font-family="sans-serif" font-size="13" lengthAdjust="spacing" textLength="16.1929" x="359" y="298.0669">no</text></g><!--link validUser to UsuarioActivo--><g id="link_validUser_UsuarioActivo"><path d="M400.92,366.2 C393.95,384.72 378.8911,424.7636 368.2011,453.2036 " fill="none" id="validUser-to-UsuarioActivo" style="stroke:#181818;stroke-width:1;"/><polygon fill="#181818" points="366.09,458.82,373.0008,451.8029,367.8492,454.1397,365.5124,448.9881,366.09,458.82" style="stroke:#181818;stroke-width:1;"/><text fill="#000000" font-family="sans-serif" font-size="13" lengthAdjust="spacing" textLength="10.3848" x="384" y="425.0669">si</text></g><!--link UsuarioActivo to Destinatario--><g id="link_UsuarioActivo_Destinatario"><path d="M357,509.46 C357,528.67 357,551.24 357,581.91 " fill="none" id="UsuarioActivo-to-Destinatario" style="stroke:#181818;stroke-width:1;"/><polygon fill="#181818" points="357,587.91,361,578.91,357,582.91,353,578.91,357,587.91" style="stroke:#181818;stroke-width:1;"/></g><!--SRC=[RP11QWCn34NtFeNM0LzW20E5Gfb5Lo6ha8MGrLObo20xsPISgaVenIfdCfqP6l32_dh_IzPXSuGOUnXKID1sN2Hh2ALYvRK8Nm7Wi3d65FjzEQD9VkP2MJD9obxpyr-7XiEGMAky2Q6cV8UW0z5tuz8q86DdlDk9ovYrkurmmPEaVM63xPO-iX3t_LX_c1dDkysURfKBbCsOAjuxp5mykUt1y1reNeDf1f-eogKnHS8rXBNQTkf9LHHhawULBhM_ZJexslozyByqDclxtojhmSzfDGjcK9oSq_McUsoRZ864pT1lHNw-DLn_0G00]--></g></svg>