<svg xmlns="http://www.w3.org/2000/svg" xmlns:xlink="http://www.w3.org/1999/xlink" contentStyleType="text/css" height="554px" preserveAspectRatio="none" style="width:632px;height:554px;background:#FFFFFF;" version="1.1" viewBox="0 0 632 554" width="632px" zoomAndPan="magnify"><defs/><g><!--entity Profesor--><g id="elem_Profesor"><ellipse cx="34.9604" cy="255" fill="#F1F1F1" rx="8" ry="8" style="stroke:#181818;stroke-width:0.5;"/><path d="M34.9604,263 L34.9604,290 M21.9604,271 L47.9604,271 M34.9604,290 L21.9604,305 M34.9604,290 L47.9604,305 " fill="none" style="stroke:#181818;stroke-width:0.5;"/><text fill="#000000" font-family="sans-serif" font-size="14" lengthAdjust="spacing" textLength="57.9209" x="6" y="319.4951">Profesor</text></g><g id="elem_CrearRutinas"><ellipse cx="221.8702" cy="26.574" fill="#F1F1F1" rx="68.3702" ry="16.074" style="stroke:#181818;stroke-width:0.5;"/><text fill="#000000" font-family="sans-serif" font-size="14" lengthAdjust="spacing" textLength="88.3613" x="174.6896" y="30.3216">Crear Rutina</text></g><g id="elem_SeleccionarEjercicios"><ellipse cx="535.1567" cy="26.6313" fill="#F1F1F1" rx="91.1567" ry="20.6313" style="stroke:#181818;stroke-width:0.5;"/><text fill="#000000" font-family="sans-serif" font-size="14" lengthAdjust="spacing" textLength="144.3545" x="462.9795" y="29.478">Seleccionar Ejercicio</text></g><g id="elem_SubirEjercicios"><ellipse cx="222.0295" cy="94.4059" fill="#F1F1F1" rx="72.5295" ry="16.9059" style="stroke:#181818;stroke-width:0.5;"/><text fill="#000000" font-family="sans-serif" font-size="14" lengthAdjust="spacing" textLength="99.5859" x="169.2365" y="98.1535">Subir Ejercicio</text></g><g id="elem_CrearRetosObligatorios"><ellipse cx="221.8959" cy="168.2792" fill="#F1F1F1" rx="96.8959" ry="21.7792" style="stroke:#181818;stroke-width:0.5;"/><text fill="#000000" font-family="sans-serif" font-size="14" lengthAdjust="spacing" textLength="157.1924" x="143.2997" y="171.1259">Crear Reto Obligatorio</text></g><g id="elem_CrearRetosOpcionales"><ellipse cx="221.7504" cy="246.3501" fill="#F1F1F1" rx="89.7504" ry="20.3501" style="stroke:#181818;stroke-width:0.5;"/><text fill="#000000" font-family="sans-serif" font-size="14" lengthAdjust="spacing" textLength="141.1758" x="151.1625" y="249.1968">Crear Reto Opcional</text></g><g id="elem_VerClasesAlumnos"><ellipse cx="221.9783" cy="322.4957" fill="#F1F1F1" rx="87.9783" ry="19.9957" style="stroke:#181818;stroke-width:0.5;"/><text fill="#000000" font-family="sans-serif" font-size="14" lengthAdjust="spacing" textLength="137.1494" x="153.4036" y="325.3423">Ver Clase y Alumno</text></g><g id="elem_IniciarSesion"><ellipse cx="222.2059" cy="394.4412" fill="#F1F1F1" rx="70.2059" ry="16.4412" style="stroke:#181818;stroke-width:0.5;"/><text fill="#000000" font-family="sans-serif" font-size="14" lengthAdjust="spacing" textLength="93.3857" x="172.513" y="398.1887">Iniciar Sesi&#243;n</text></g><g id="elem_CerrarSesion"><ellipse cx="222.2333" cy="462.5467" fill="#F1F1F1" rx="70.7333" ry="16.5467" style="stroke:#181818;stroke-width:0.5;"/><text fill="#000000" font-family="sans-serif" font-size="14" lengthAdjust="spacing" textLength="94.8076" x="171.8295" y="466.2942">Cerrar Sesi&#243;n</text></g><g id="elem_VolverInicio"><ellipse cx="221.8727" cy="531.6745" fill="#F1F1F1" rx="73.8727" ry="17.1745" style="stroke:#181818;stroke-width:0.5;"/><text fill="#000000" font-family="sans-serif" font-size="14" lengthAdjust="spacing" textLength="103.0996" x="167.3229" y="535.4221">Volver al Inicio</text></g><!--link Profesor to CrearRutinas--><g id="link_Profesor_CrearRutinas"><path d="M41.05,246.35 C49.6,196.6 71.58,110 125,59.5 C136.65,48.48 146.4426,42.9809 161.5826,38.0709 " fill="none" id="Profesor-to-CrearRutinas" style="stroke:#181818;stroke-width:1;"/><polygon fill="#181818" points="167.29,36.22,157.495,35.1915,162.5339,37.7624,159.9629,42.8013,167.29,36.22" style="stroke:#181818;stroke-width:1;"/></g><!--link Profesor to SubirEjercicios--><g id="link_Profesor_SubirEjercicios"><path d="M48.92,246.31 C62.64,211.13 87.56,159.8 125,128.5 C137.21,118.29 147.0202,112.9938 161.9702,107.9038 " fill="none" id="Profesor-to-SubirEjercicios" style="stroke:#181818;stroke-width:1;"/><polygon fill="#181818" points="167.65,105.97,157.8411,105.0841,162.9168,107.5815,160.4195,112.6573,167.65,105.97" style="stroke:#181818;stroke-width:1;"/></g><!--link Profesor to CrearRetosObligatorios--><g id="link_Profesor_CrearRetosObligatorios"><path d="M64.27,256.34 C80.94,240.81 103.01,222 125,208.5 C138.39,200.28 148.2176,195.3282 162.6876,189.3282 " fill="none" id="Profesor-to-CrearRetosObligatorios" style="stroke:#181818;stroke-width:1;"/><polygon fill="#181818" points="168.23,187.03,158.3843,186.7823,163.6113,188.9451,161.4485,194.1722,168.23,187.03" style="stroke:#181818;stroke-width:1;"/></g><!--link Profesor to CrearRetosOpcionales--><g id="link_Profesor_CrearRetosOpcionales"><path d="M64.1,278.73 C88.05,273.81 117.5727,267.7472 148.6827,261.3572 " fill="none" id="Profesor-to-CrearRetosOpcionales" style="stroke:#181818;stroke-width:1;"/><polygon fill="#181818" points="154.56,260.15,144.9392,258.0426,149.6622,261.156,146.5488,265.879,154.56,260.15" style="stroke:#181818;stroke-width:1;"/></g><!--link Profesor to VerClasesAlumnos--><g id="link_Profesor_VerClasesAlumnos"><path d="M64.1,290.27 C88.46,295.28 118.7728,301.5025 150.2628,307.9725 " fill="none" id="Profesor-to-VerClasesAlumnos" style="stroke:#181818;stroke-width:1;"/><polygon fill="#181818" points="156.14,309.18,148.1292,303.4505,151.2423,308.1737,146.5191,311.2868,156.14,309.18" style="stroke:#181818;stroke-width:1;"/></g><!--link Profesor to IniciarSesion--><g id="link_Profesor_IniciarSesion"><path d="M64.11,312.64 C80.72,328.08 102.79,346.64 125,359.5 C140.97,368.75 154.1151,374.3413 170.8551,379.9913 " fill="none" id="Profesor-to-IniciarSesion" style="stroke:#181818;stroke-width:1;"/><polygon fill="#181818" points="176.54,381.91,169.2918,375.2419,171.8026,380.311,166.7334,382.8218,176.54,381.91" style="stroke:#181818;stroke-width:1;"/></g><!--link Profesor to CerrarSesion--><g id="link_Profesor_CerrarSesion"><path d="M50.92,322.6 C65.37,354.95 90.23,400.45 125,428.5 C137.8,438.82 148.2775,444.2337 163.6775,449.3637 " fill="none" id="Profesor-to-CerrarSesion" style="stroke:#181818;stroke-width:1;"/><polygon fill="#181818" points="169.37,451.26,162.0955,444.6206,164.6263,449.6798,159.5671,452.2106,169.37,451.26" style="stroke:#181818;stroke-width:1;"/></g><!--link Profesor to VolverInicio--><g id="link_Profesor_VolverInicio"><path d="M42.41,322.7 C52.21,369.71 75.3,449.13 125,496.5 C136.43,507.39 145.8508,512.9467 160.6708,518.1667 " fill="none" id="Profesor-to-VolverInicio" style="stroke:#181818;stroke-width:1;"/><polygon fill="#181818" points="166.33,520.16,159.1701,513.3972,161.614,518.4989,156.5123,520.9428,166.33,520.16" style="stroke:#181818;stroke-width:1;"/></g><!--link CrearRutinas to SeleccionarEjercicios--><g id="link_CrearRutinas_SeleccionarEjercicios"><path d="M290.87,26.5 C335.73,26.5 389.04,26.5 437.84,26.5 " fill="none" id="CrearRutinas-to-SeleccionarEjercicios" style="stroke:#181818;stroke-width:1;"/><polygon fill="#181818" points="443.84,26.5,434.84,22.5,438.84,26.5,434.84,30.5,443.84,26.5" style="stroke:#181818;stroke-width:1;"/><text fill="#000000" font-family="sans-serif" font-size="13" lengthAdjust="spacing" textLength="63.0068" x="350" y="22.5669">&#171;include&#187;</text></g><!--SRC=[TL9BJiCm4Dtx5AFkUm5KHK8L2rOWAdNlkjDYDDXeR2DnBex0nPZOXjX9kelVP_pcEOIN2D43s-jhXBDbDD5wfvGsqJCyixzWyAnK2cXqGDZi6JN3IuhMwGte01aevp393aXeZ8mIySCRih5ooFg6-ITQOphPXMN4riGr3Ce6JoUoLosXgwV44YOqp0thHuv3Sr-5iN4TaM5Fu-SNt5DwT-KoWJCQ2jOO7fr4beiE6EpFjylgYesGL3qbGkQPia1puT7Jf-JGL2RL21aiW59_3mVRxT2_KCVCYrsnBHgyfPdQwXIBQZgshw8VtUxUZ-nMRRShIwtzO707kvrrXj8PX-4N]--></g></svg>