<svg xmlns="http://www.w3.org/2000/svg" xmlns:xlink="http://www.w3.org/1999/xlink" contentStyleType="text/css" height="905px" preserveAspectRatio="none" style="width:724px;height:905px;background:#FFFFFF;" version="1.1" viewBox="0 0 724 905" width="724px" zoomAndPan="magnify"><defs/><g><!--entity Alumno--><g id="elem_Alumno"><ellipse cx="32.708" cy="412" fill="#F1F1F1" rx="8" ry="8" style="stroke:#181818;stroke-width:0.5;"/><path d="M32.708,420 L32.708,447 M19.708,428 L45.708,428 M32.708,447 L19.708,462 M32.708,447 L45.708,462 " fill="none" style="stroke:#181818;stroke-width:0.5;"/><text fill="#000000" font-family="sans-serif" font-size="14" lengthAdjust="spacing" textLength="53.416" x="6" y="476.4951">Alumno</text></g><g id="elem_IniciarSesion"><ellipse cx="264.7059" cy="22.4412" fill="#F1F1F1" rx="70.2059" ry="16.4412" style="stroke:#181818;stroke-width:0.5;"/><text fill="#000000" font-family="sans-serif" font-size="14" lengthAdjust="spacing" textLength="93.3857" x="215.013" y="26.1887">Iniciar Sesi&#243;n</text></g><g id="elem_UsarRutinas"><ellipse cx="264.5287" cy="89.6057" fill="#F1F1F1" rx="66.0287" ry="15.6057" style="stroke:#181818;stroke-width:0.5;"/><text fill="#000000" font-family="sans-serif" font-size="14" lengthAdjust="spacing" textLength="81.7578" x="220.6498" y="93.3533">Usar Rutina</text></g><g id="elem_CrearRutinaPersonalizada"><ellipse cx="264.3702" cy="156.574" fill="#F1F1F1" rx="68.3702" ry="16.074" style="stroke:#181818;stroke-width:0.5;"/><text fill="#000000" font-family="sans-serif" font-size="14" lengthAdjust="spacing" textLength="88.3613" x="217.1896" y="160.3216">Crear Rutina</text></g><g id="elem_VerEjercicio"><ellipse cx="264.4668" cy="223.4934" fill="#F1F1F1" rx="67.9668" ry="15.9934" style="stroke:#181818;stroke-width:0.5;"/><text fill="#000000" font-family="sans-serif" font-size="14" lengthAdjust="spacing" textLength="87.2402" x="217.8467" y="227.2409">Ver Ejercicio</text></g><g id="elem_RetoOpcional"><ellipse cx="264.4125" cy="293.5825" fill="#F1F1F1" rx="83.4125" ry="19.0825" style="stroke:#181818;stroke-width:0.5;"/><text fill="#000000" font-family="sans-serif" font-size="14" lengthAdjust="spacing" textLength="126.6426" x="200.6369" y="296.5838">Ver Reto Opcional</text></g><g id="elem_RetoObligatorio"><ellipse cx="264.4059" cy="368.4812" fill="#F1F1F1" rx="90.4059" ry="20.4812" style="stroke:#181818;stroke-width:0.5;"/><text fill="#000000" font-family="sans-serif" font-size="14" lengthAdjust="spacing" textLength="142.6592" x="193.0763" y="371.3279">Ver Reto Obligatorio</text></g><g id="elem_SubirEvidencia"><ellipse cx="264.3936" cy="441.5787" fill="#F1F1F1" rx="75.8936" ry="17.5787" style="stroke:#181818;stroke-width:0.5;"/><text fill="#000000" font-family="sans-serif" font-size="14" lengthAdjust="spacing" textLength="108.3018" x="207.2427" y="445.3263">Subir Evidencia</text></g><g id="elem_VerClasificaciones"><ellipse cx="264.4426" cy="512.6885" fill="#F1F1F1" rx="78.9426" ry="18.1885" style="stroke:#181818;stroke-width:0.5;"/><text fill="#000000" font-family="sans-serif" font-size="14" lengthAdjust="spacing" textLength="115.9443" x="204.3963" y="516.1865">Ver Clasificacion</text></g><g id="elem_VerPerfil"><ellipse cx="264.5955" cy="580.2585" fill="#F1F1F1" rx="58.0955" ry="14.7585" style="stroke:#181818;stroke-width:0.5;"/><text fill="#000000" font-family="sans-serif" font-size="14" lengthAdjust="spacing" textLength="64.3604" x="229.4153" y="584.0061">Ver perfil</text></g><g id="elem_VerInsignias"><ellipse cx="264.415" cy="646.683" fill="#F1F1F1" rx="68.915" ry="16.183" style="stroke:#181818;stroke-width:0.5;"/><text fill="#000000" font-family="sans-serif" font-size="14" lengthAdjust="spacing" textLength="89.8652" x="216.4824" y="650.4306">Ver insignias</text></g><g id="elem_MostrarQR"><ellipse cx="264.401" cy="729.2802" fill="#F1F1F1" rx="144.401" ry="31.2802" style="stroke:#181818;stroke-width:0.5;"/><text fill="#000000" font-family="sans-serif" font-size="14" lengthAdjust="spacing" textLength="254.3584" x="134.9967" y="732.1269">Mostrar QR para Centros Deportivos</text></g><g id="elem_InscribirClase"><ellipse cx="264.37" cy="814.374" fill="#F1F1F1" rx="77.37" ry="17.874" style="stroke:#181818;stroke-width:0.5;"/><text fill="#000000" font-family="sans-serif" font-size="14" lengthAdjust="spacing" textLength="112.041" x="205.636" y="818.0468">InscribirEnClase</text></g><g id="elem_CerrarSesion"><ellipse cx="264.5942" cy="883.7188" fill="#F1F1F1" rx="69.0942" ry="16.2188" style="stroke:#181818;stroke-width:0.5;"/><text fill="#000000" font-family="sans-serif" font-size="14" lengthAdjust="spacing" textLength="90.3574" x="216.4155" y="887.4664">CerrarSesion</text></g><g id="elem_SeleccionarEjercicios"><ellipse cx="626.4201" cy="156.384" fill="#F1F1F1" rx="92.4201" ry="20.884" style="stroke:#181818;stroke-width:0.5;"/><text fill="#000000" font-family="sans-serif" font-size="14" lengthAdjust="spacing" textLength="147.1982" x="552.8209" y="159.2307">SeleccionarEjercicios</text></g><!--link Alumno to IniciarSesion--><g id="link_Alumno_IniciarSesion"><path d="M36.63,403.23 C44.63,315.35 68.93,103.06 120,56.5 C140.34,37.96 162.9737,29.9277 189.2637,25.7677 " fill="none" id="Alumno-to-IniciarSesion" style="stroke:#181818;stroke-width:1;"/><polygon fill="#181818" points="195.19,24.83,185.6754,22.2858,190.2514,25.6115,186.9258,30.1875,195.19,24.83" style="stroke:#181818;stroke-width:1;"/></g><!--link Alumno to UsarRutinas--><g id="link_Alumno_UsarRutinas"><path d="M38.43,403.44 C49.14,327 77.11,158.98 120,122.5 C141.71,104.03 165.7908,96.2419 192.7708,92.3719 " fill="none" id="Alumno-to-UsarRutinas" style="stroke:#181818;stroke-width:1;"/><polygon fill="#181818" points="198.71,91.52,189.2332,88.8384,193.7607,92.2299,190.3691,96.7574,198.71,91.52" style="stroke:#181818;stroke-width:1;"/></g><!--link Alumno to CrearRutinaPersonalizada--><g id="link_Alumno_CrearRutinaPersonalizada"><path d="M34.97,403.21 C39.32,347.17 56.1,243.59 120,189.5 C141.17,171.58 164.2388,163.8258 190.6288,159.7958 " fill="none" id="Alumno-to-CrearRutinaPersonalizada" style="stroke:#181818;stroke-width:1;"/><polygon fill="#181818" points="196.56,158.89,187.0593,156.2945,191.6173,159.6448,188.267,164.2028,196.56,158.89" style="stroke:#181818;stroke-width:1;"/></g><!--link Alumno to VerEjercicio--><g id="link_Alumno_VerEjercicio"><path d="M40.9,403.46 C51.17,361.11 73.95,293.72 120,256.5 C141.67,238.98 164.9702,231.3154 191.4002,227.2354 " fill="none" id="Alumno-to-VerEjercicio" style="stroke:#181818;stroke-width:1;"/><polygon fill="#181818" points="197.33,226.32,187.8251,223.7399,192.3885,227.0828,189.0456,231.6462,197.33,226.32" style="stroke:#181818;stroke-width:1;"/></g><!--link Alumno to RetoOpcional--><g id="link_Alumno_RetoOpcional"><path d="M54.22,403.48 C69.37,379.14 92.12,348.79 120,330.5 C141.08,316.67 161.1976,309.3325 185.2276,303.9025 " fill="none" id="Alumno-to-RetoOpcional" style="stroke:#181818;stroke-width:1;"/><polygon fill="#181818" points="191.08,302.58,181.4197,300.6621,186.203,303.6821,183.183,308.4653,191.08,302.58" style="stroke:#181818;stroke-width:1;"/></g><!--link Alumno to RetoObligatorio--><g id="link_Alumno_RetoObligatorio"><path d="M59.12,428.48 C68.4,424.04 79.04,419.25 89,415.5 C124.53,402.11 159.6209,392.3018 192.9109,384.1818 " fill="none" id="Alumno-to-RetoObligatorio" style="stroke:#181818;stroke-width:1;"/><polygon fill="#181818" points="198.74,382.76,189.0485,381.0067,193.8824,383.9448,190.9442,388.7788,198.74,382.76" style="stroke:#181818;stroke-width:1;"/></g><!--link Alumno to SubirEvidencia--><g id="link_Alumno_SubirEvidencia"><path d="M59.44,441.5 C90.51,441.5 137.94,441.5 182.33,441.5 " fill="none" id="Alumno-to-SubirEvidencia" style="stroke:#181818;stroke-width:1;"/><polygon fill="#181818" points="188.33,441.5,179.33,437.5,183.33,441.5,179.33,445.5,188.33,441.5" style="stroke:#181818;stroke-width:1;"/></g><!--link Alumno to VerClasificaciones--><g id="link_Alumno_VerClasificaciones"><path d="M59.27,453.02 C76.29,460.36 99.21,469.72 120,476.5 C148.21,485.7 174.3297,492.545 200.9197,498.805 " fill="none" id="Alumno-to-VerClasificaciones" style="stroke:#181818;stroke-width:1;"/><polygon fill="#181818" points="206.76,500.18,198.9162,494.224,201.8931,499.0342,197.0829,502.0111,206.76,500.18" style="stroke:#181818;stroke-width:1;"/></g><!--link Alumno to VerPerfil--><g id="link_Alumno_VerPerfil"><path d="M55.46,479.59 C70.7,502.65 93.07,530.76 120,547.5 C146.49,563.97 174.3838,571.3573 202.5438,575.4973 " fill="none" id="Alumno-to-VerPerfil" style="stroke:#181818;stroke-width:1;"/><polygon fill="#181818" points="208.48,576.37,200.1575,571.1035,203.5332,575.6427,198.9939,579.0184,208.48,576.37" style="stroke:#181818;stroke-width:1;"/></g><!--link Alumno to VerInsignias--><g id="link_Alumno_VerInsignias"><path d="M42.59,479.51 C53.99,518.78 77.41,578.93 120,612.5 C141.82,629.7 165.0005,637.4405 191.2905,641.7905 " fill="none" id="Alumno-to-VerInsignias" style="stroke:#181818;stroke-width:1;"/><polygon fill="#181818" points="197.21,642.77,188.9837,637.3545,192.2771,641.9538,187.6778,645.2472,197.21,642.77" style="stroke:#181818;stroke-width:1;"/></g><!--link Alumno to MostrarQR--><g id="link_Alumno_MostrarQR"><path d="M37.3,479.89 C44.46,531.99 64.61,624.84 120,679.5 C131.92,691.27 141.2726,697.8433 156.8526,704.7333 " fill="none" id="Alumno-to-MostrarQR" style="stroke:#181818;stroke-width:1;"/><polygon fill="#181818" points="162.34,707.16,155.7268,699.8617,157.7672,705.1378,152.4912,707.1782,162.34,707.16" style="stroke:#181818;stroke-width:1;"/></g><!--link Alumno to InscribirClase--><g id="link_Alumno_InscribirClase"><path d="M38.36,479.66 C49.19,558.7 77.71,736.44 120,778.5 C138.12,796.52 157.9413,804.8195 182.6113,809.6395 " fill="none" id="Alumno-to-InscribirClase" style="stroke:#181818;stroke-width:1;"/><polygon fill="#181818" points="188.5,810.79,180.434,805.1384,183.5928,809.8312,178.9,812.99,188.5,810.79" style="stroke:#181818;stroke-width:1;"/></g><!--link Alumno to CerrarSesion--><g id="link_Alumno_CerrarSesion"><path d="M36.24,479.56 C43.62,570.95 67.04,799.04 120,850.5 C139.89,869.83 162.7607,877.849 189.3507,881.659 " fill="none" id="Alumno-to-CerrarSesion" style="stroke:#181818;stroke-width:1;"/><polygon fill="#181818" points="195.29,882.51,186.9483,877.2739,190.3406,881.8008,185.8136,885.193,195.29,882.51" style="stroke:#181818;stroke-width:1;"/></g><!--link CrearRutinaPersonalizada to SeleccionarEjercicios--><g id="link_CrearRutinaPersonalizada_SeleccionarEjercicios"><path d="M333.21,156.5 C389.94,156.5 465.43,156.5 527.97,156.5 " fill="none" id="CrearRutinaPersonalizada-to-SeleccionarEjercicios" style="stroke:#181818;stroke-width:1;"/><polygon fill="#181818" points="533.97,156.5,524.97,152.5,528.97,156.5,524.97,160.5,533.97,156.5" style="stroke:#181818;stroke-width:1;"/><text fill="#000000" font-family="sans-serif" font-size="13" lengthAdjust="spacing" textLength="63.0068" x="440" y="152.5669">&#171;include&#187;</text></g><!--SRC=[TPB1Ri8m38RlVGgBEoym8QI9xS1X6XHjzv0QvYaabPros6lj4VPYIzEM91NSui-_4yU_3PuyU0TCvoyF3J5gJyvMIdl7y6owYtLLrGbg9GYBhILDYk60Gd-_TW5AO6Gz2eKtwOS4NTrviYhA-dW89OasZAKgWY7U8Okpoj2FQbGg-KI6rsza7LvriIQG6oXrDOQllRU1XtkYjYSJkASz6ZghyFNnwYXFB5KSkYE5FgxKe0s_Z-B8RgYyVMEKq8cqwf-UkYuWIbdH8f_8JD9TZ4e5MQ6p9IMJQ3k1f7jpuZcCU5z3grZ11grd9_22hMDFrt2CrQDkN-TUYsRglsJxHd4qUuGHPKOYyxG3Wv4PoCQ61dMSVh9iQFzkfgg63OJbSZtRiooHRrQ67wvIfYbM9-F5cinvjWzPQkP- -SZSwJ8xcbl2P6R6aqt5O0fFyX5a9a1LFPh8qFyz0-09LYkosdGDhjV_]--></g></svg>