<svg xmlns="http://www.w3.org/2000/svg" xmlns:xlink="http://www.w3.org/1999/xlink" contentStyleType="text/css" height="1631px" preserveAspectRatio="none" style="width:705px;height:1631px;background:#FFFFFF;" version="1.1" viewBox="0 0 705 1631" width="705px" zoomAndPan="magnify"><defs/><g><!--cluster Rutinas y Ejercicios--><g id="cluster_Rutinas y Ejercicios"><path d="M110.5,267.5 L265.2676,267.5 A3.75,3.75 0 0 1 267.7676,270 L274.7676,289.7969 L672.5,289.7969 A2.5,2.5 0 0 1 675,292.2969 L675,805 A2.5,2.5 0 0 1 672.5,807.5 L110.5,807.5 A2.5,2.5 0 0 1 108,805 L108,270 A2.5,2.5 0 0 1 110.5,267.5 " fill="none" style="stroke:#000000;stroke-width:1.5;"/><line style="stroke:#000000;stroke-width:1.5;" x1="108" x2="274.7676" y1="289.7969" y2="289.7969"/><text fill="#000000" font-family="sans-serif" font-size="14" font-weight="bold" lengthAdjust="spacing" textLength="153.7676" x="112" y="282.4951">Rutinas y Ejercicios</text></g><!--cluster Rutinas--><g id="cluster_Rutinas"><path d="M468,562.5 L528.9854,562.5 A3.75,3.75 0 0 1 531.4854,565 L538.4854,584.7969 L643,584.7969 A2.5,2.5 0 0 1 645.5,587.2969 L645.5,781 A2.5,2.5 0 0 1 643,783.5 L468,783.5 A2.5,2.5 0 0 1 465.5,781 L465.5,565 A2.5,2.5 0 0 1 468,562.5 " fill="none" style="stroke:#000000;stroke-width:1.5;"/><line style="stroke:#000000;stroke-width:1.5;" x1="465.5" x2="538.4854" y1="584.7969" y2="584.7969"/><text fill="#000000" font-family="sans-serif" font-size="14" font-weight="bold" lengthAdjust="spacing" textLength="59.9854" x="469.5" y="577.4951">Rutinas</text></g><!--cluster Ejercicios--><g id="cluster_Ejercicios"><path d="M462.5,310.5 L538.4082,310.5 A3.75,3.75 0 0 1 540.9082,313 L547.9082,332.7969 L648.5,332.7969 A2.5,2.5 0 0 1 651,335.2969 L651,536 A2.5,2.5 0 0 1 648.5,538.5 L462.5,538.5 A2.5,2.5 0 0 1 460,536 L460,313 A2.5,2.5 0 0 1 462.5,310.5 " fill="none" style="stroke:#000000;stroke-width:1.5;"/><line style="stroke:#000000;stroke-width:1.5;" x1="460" x2="547.9082" y1="332.7969" y2="332.7969"/><text fill="#000000" font-family="sans-serif" font-size="14" font-weight="bold" lengthAdjust="spacing" textLength="74.9082" x="464" y="325.4951">Ejercicios</text></g><!--cluster Retos--><g id="cluster_Retos"><path d="M154,831.5 L199.9189,831.5 A3.75,3.75 0 0 1 202.4189,834 L209.4189,853.7969 L634,853.7969 A2.5,2.5 0 0 1 636.5,856.2969 L636.5,977 A2.5,2.5 0 0 1 634,979.5 L154,979.5 A2.5,2.5 0 0 1 151.5,977 L151.5,834 A2.5,2.5 0 0 1 154,831.5 " fill="none" style="stroke:#000000;stroke-width:1.5;"/><line style="stroke:#000000;stroke-width:1.5;" x1="151.5" x2="209.4189" y1="853.7969" y2="853.7969"/><text fill="#000000" font-family="sans-serif" font-size="14" font-weight="bold" lengthAdjust="spacing" textLength="44.9189" x="155.5" y="846.4951">Retos</text></g><!--cluster Clasificaci?n--><g id="cluster_Clasificación"><path d="M133,1003.5 L232.9707,1003.5 A3.75,3.75 0 0 1 235.4707,1006 L242.4707,1025.7969 L688,1025.7969 A2.5,2.5 0 0 1 690.5,1028.2969 L690.5,1104 A2.5,2.5 0 0 1 688,1106.5 L133,1106.5 A2.5,2.5 0 0 1 130.5,1104 L130.5,1006 A2.5,2.5 0 0 1 133,1003.5 " fill="none" style="stroke:#000000;stroke-width:1.5;"/><line style="stroke:#000000;stroke-width:1.5;" x1="130.5" x2="242.4707" y1="1025.7969" y2="1025.7969"/><text fill="#000000" font-family="sans-serif" font-size="14" font-weight="bold" lengthAdjust="spacing" textLength="98.9707" x="134.5" y="1018.4951">Clasificación</text></g><!--cluster Perfil--><g id="cluster_Perfil"><path d="M155.5,1130.5 L198.8486,1130.5 A3.75,3.75 0 0 1 201.3486,1133 L208.3486,1152.7969 L695.5,1152.7969 A2.5,2.5 0 0 1 698,1155.2969 L698,1622 A2.5,2.5 0 0 1 695.5,1624.5 L155.5,1624.5 A2.5,2.5 0 0 1 153,1622 L153,1133 A2.5,2.5 0 0 1 155.5,1130.5 " fill="none" style="stroke:#000000;stroke-width:1.5;"/><line style="stroke:#000000;stroke-width:1.5;" x1="153" x2="208.3486" y1="1152.7969" y2="1152.7969"/><text fill="#000000" font-family="sans-serif" font-size="14" font-weight="bold" lengthAdjust="spacing" textLength="42.3486" x="157" y="1145.4951">Perfil</text></g><!--cluster Mis Clases--><g id="cluster_Mis Clases"><path d="M458,1173.5 L541.6191,1173.5 A3.75,3.75 0 0 1 544.1191,1176 L551.1191,1195.7969 L653,1195.7969 A2.5,2.5 0 0 1 655.5,1198.2969 L655.5,1532 A2.5,2.5 0 0 1 653,1534.5 L458,1534.5 A2.5,2.5 0 0 1 455.5,1532 L455.5,1176 A2.5,2.5 0 0 1 458,1173.5 " fill="none" style="stroke:#000000;stroke-width:1.5;"/><line style="stroke:#000000;stroke-width:1.5;" x1="455.5" x2="551.1191" y1="1195.7969" y2="1195.7969"/><text fill="#000000" font-family="sans-serif" font-size="14" font-weight="bold" lengthAdjust="spacing" textLength="82.6191" x="459.5" y="1188.4951">Mis Clases</text></g><g id="elem_CambiarARutinasYEjercicios"><ellipse cx="246.4772" cy="505.3954" fill="#F1F1F1" rx="122.4772" ry="26.8954" style="stroke:#181818;stroke-width:0.5;"/><text fill="#000000" font-family="sans-serif" font-size="14" lengthAdjust="spacing" textLength="212.6318" x="140.1612" y="508.2421">Cambiar a Rutinas y Ejercicios</text></g><g id="elem_MostrarRutina"><ellipse cx="555.4885" cy="614.6977" fill="#F1F1F1" rx="73.9885" ry="17.1977" style="stroke:#181818;stroke-width:0.5;"/><text fill="#000000" font-family="sans-serif" font-size="14" lengthAdjust="spacing" textLength="103.4004" x="500.7883" y="618.4453">Mostrar Rutina</text></g><g id="elem_EditarRutina"><ellipse cx="555.4488" cy="683.2898" fill="#F1F1F1" rx="69.4488" ry="16.2898" style="stroke:#181818;stroke-width:0.5;"/><text fill="#000000" font-family="sans-serif" font-size="14" lengthAdjust="spacing" textLength="91.3281" x="506.7847" y="687.0373">Editar Rutina</text></g><g id="elem_CrearRutina"><ellipse cx="555.3702" cy="751.574" fill="#F1F1F1" rx="68.3702" ry="16.074" style="stroke:#181818;stroke-width:0.5;"/><text fill="#000000" font-family="sans-serif" font-size="14" lengthAdjust="spacing" textLength="88.3613" x="508.1896" y="755.3216">Crear Rutina</text></g><g id="elem_MostrarEjercicio"><ellipse cx="555.2968" cy="364.2594" fill="#F1F1F1" rx="79.2968" ry="18.2594" style="stroke:#181818;stroke-width:0.5;"/><text fill="#000000" font-family="sans-serif" font-size="14" lengthAdjust="spacing" textLength="116.8125" x="494.9549" y="367.718">Mostrar Ejercicio</text></g><g id="elem_EditarEjercicio"><ellipse cx="555.506" cy="435.3012" fill="#F1F1F1" rx="74.506" ry="17.3012" style="stroke:#181818;stroke-width:0.5;"/><text fill="#000000" font-family="sans-serif" font-size="14" lengthAdjust="spacing" textLength="104.7402" x="500.1358" y="439.0488">Editar Ejercicio</text></g><g id="elem_CrearEjercicio"><ellipse cx="555.3636" cy="505.5727" fill="#F1F1F1" rx="73.3636" ry="17.0727" style="stroke:#181818;stroke-width:0.5;"/><text fill="#000000" font-family="sans-serif" font-size="14" lengthAdjust="spacing" textLength="101.7734" x="501.4768" y="509.3203">Crear Ejercicio</text></g><g id="elem_CambiarARetos"><ellipse cx="246.5763" cy="884.7153" fill="#F1F1F1" rx="79.0763" ry="18.2153" style="stroke:#181818;stroke-width:0.5;"/><text fill="#000000" font-family="sans-serif" font-size="14" lengthAdjust="spacing" textLength="116.2725" x="186.4184" y="888.1984">Cambiar a Retos</text></g><g id="elem_CrearReto"><ellipse cx="555.3334" cy="948.6667" fill="#F1F1F1" rx="63.8334" ry="15.1667" style="stroke:#181818;stroke-width:0.5;"/><text fill="#000000" font-family="sans-serif" font-size="14" lengthAdjust="spacing" textLength="75.3252" x="514.6708" y="952.4142">Crear Reto</text></g><g id="elem_EditarReto"><ellipse cx="555.3348" cy="882.367" fill="#F1F1F1" rx="64.8348" ry="15.367" style="stroke:#181818;stroke-width:0.5;"/><text fill="#000000" font-family="sans-serif" font-size="14" lengthAdjust="spacing" textLength="78.292" x="513.1888" y="886.1145">Editar Reto</text></g><g id="elem_CambiarAClasificacion"><ellipse cx="246.5332" cy="1063.4066" fill="#F1F1F1" rx="100.0332" ry="22.4066" style="stroke:#181818;stroke-width:0.5;"/><text fill="#000000" font-family="sans-serif" font-size="14" lengthAdjust="spacing" textLength="164.1309" x="164.4678" y="1066.2533">Cambiar a Clasificación</text></g><g id="elem_VerAlumnosDentroDeClase"><ellipse cx="555.7091" cy="1064.7418" fill="#F1F1F1" rx="119.2091" ry="26.2418" style="stroke:#181818;stroke-width:0.5;"/><text fill="#000000" font-family="sans-serif" font-size="14" lengthAdjust="spacing" textLength="205.666" x="452.8761" y="1067.5885">Ver alumnos dentro  de clase</text></g><g id="elem_CambiarAPerfil"><ellipse cx="246.3945" cy="1360.3789" fill="#F1F1F1" rx="77.3945" ry="17.8789" style="stroke:#181818;stroke-width:0.5;"/><text fill="#000000" font-family="sans-serif" font-size="14" lengthAdjust="spacing" textLength="112.1025" x="187.64" y="1364.049">Cambiar a Perfil</text></g><g id="elem_MostrarQR"><ellipse cx="555.6473" cy="1580.7295" fill="#F1F1F1" rx="126.6473" ry="27.7295" style="stroke:#181818;stroke-width:0.5;"/><text fill="#000000" font-family="sans-serif" font-size="14" lengthAdjust="spacing" textLength="221.4844" x="444.9052" y="1583.5761">Mostrar QR en centro deportivo</text></g><g id="elem_CrearClase"><ellipse cx="555.2936" cy="1224.5587" fill="#F1F1F1" rx="65.7936" ry="15.5587" style="stroke:#181818;stroke-width:0.5;"/><text fill="#000000" font-family="sans-serif" font-size="14" lengthAdjust="spacing" textLength="81.0811" x="511.753" y="1228.3063">Crear Clase</text></g><g id="elem_VerMisClases"><ellipse cx="555.5813" cy="1292.5163" fill="#F1F1F1" rx="73.0813" ry="17.0163" style="stroke:#181818;stroke-width:0.5;"/><text fill="#000000" font-family="sans-serif" font-size="14" lengthAdjust="spacing" textLength="101.0352" x="502.0637" y="1296.2638">Ver mis clases</text></g><g id="elem_VerAlumnos"><ellipse cx="555.279" cy="1360.5558" fill="#F1F1F1" rx="68.279" ry="16.0558" style="stroke:#181818;stroke-width:0.5;"/><text fill="#000000" font-family="sans-serif" font-size="14" lengthAdjust="spacing" textLength="88.1084" x="508.2248" y="1364.3034">Ver alumnos</text></g><g id="elem_VerRetosAlumnos"><ellipse cx="555.614" cy="1430.7228" fill="#F1F1F1" rx="84.114" ry="19.2228" style="stroke:#181818;stroke-width:0.5;"/><text fill="#000000" font-family="sans-serif" font-size="14" lengthAdjust="spacing" textLength="128.2764" x="491.2533" y="1433.6461">Ver retos alumnos</text></g><g id="elem_EvaluarRetos"><ellipse cx="555.5544" cy="1501.4109" fill="#F1F1F1" rx="70.0544" ry="16.4109" style="stroke:#181818;stroke-width:0.5;"/><text fill="#000000" font-family="sans-serif" font-size="14" lengthAdjust="spacing" textLength="92.9756" x="506.0666" y="1505.1584">Evaluar retos</text></g><!--entity Profesor--><g id="elem_Profesor"><ellipse cx="34.9604" cy="341" fill="#F1F1F1" rx="8" ry="8" style="stroke:#181818;stroke-width:0.5;"/><path d="M34.9604,349 L34.9604,376 M21.9604,357 L47.9604,357 M34.9604,376 L21.9604,391 M34.9604,376 L47.9604,391 " fill="none" style="stroke:#181818;stroke-width:0.5;"/><text fill="#000000" font-family="sans-serif" font-size="14" lengthAdjust="spacing" textLength="57.9209" x="6" y="405.4951">Profesor</text></g><g id="elem_CerrarSesion"><ellipse cx="246.7333" cy="22.5467" fill="#F1F1F1" rx="70.7333" ry="16.5467" style="stroke:#181818;stroke-width:0.5;"/><text fill="#000000" font-family="sans-serif" font-size="14" lengthAdjust="spacing" textLength="94.8076" x="196.3295" y="26.2942">Cerrar Sesión</text></g><g id="elem_IniciarSesion"><ellipse cx="246.7059" cy="90.4412" fill="#F1F1F1" rx="70.2059" ry="16.4412" style="stroke:#181818;stroke-width:0.5;"/><text fill="#000000" font-family="sans-serif" font-size="14" lengthAdjust="spacing" textLength="93.3857" x="197.013" y="94.1887">Iniciar Sesión</text></g><g id="elem_IngresarAlSistema"><ellipse cx="246.3192" cy="162.3638" fill="#F1F1F1" rx="87.3192" ry="19.8638" style="stroke:#181818;stroke-width:0.5;"/><text fill="#000000" font-family="sans-serif" font-size="14" lengthAdjust="spacing" textLength="135.6455" x="178.4964" y="165.2105">Ingresar al Sistema</text></g><g id="elem_CambiarMenu"><ellipse cx="246.4474" cy="234.5895" fill="#F1F1F1" rx="73.4474" ry="17.0895" style="stroke:#181818;stroke-width:0.5;"/><text fill="#000000" font-family="sans-serif" font-size="14" lengthAdjust="spacing" textLength="101.9922" x="192.4513" y="238.337">Cambiar Menu</text></g><!--link Profesor to IngresarAlSistema--><g id="link_Profesor_IngresarAlSistema"><path d="M40.03,332.49 C46.2,293.52 61.64,233.88 100,199.5 C117.56,183.75 135.0488,175.8914 157.8788,170.5314 " fill="none" id="Profesor-to-IngresarAlSistema" style="stroke:#181818;stroke-width:1;"/><polygon fill="#181818" points="163.72,169.16,154.044,167.323,158.8524,170.3028,155.8725,175.1112,163.72,169.16" style="stroke:#181818;stroke-width:1;"/></g><!--link Profesor to IniciarSesion--><g id="link_Profesor_IniciarSesion"><path d="M41.08,332.3 C50.04,270.66 70.54,153.23 100,124.5 C120.24,104.76 143.6822,96.522 170.7522,92.592 " fill="none" id="Profesor-to-IniciarSesion" style="stroke:#181818;stroke-width:1;"/><polygon fill="#181818" points="176.69,91.73,167.2087,89.0646,171.7419,92.4484,168.3581,96.9816,176.69,91.73" style="stroke:#181818;stroke-width:1;"/></g><!--link Profesor to CambiarMenu--><g id="link_Profesor_CambiarMenu"><path d="M58.24,332.17 C69.1,316.22 83.43,298.62 100,286.5 C127.07,266.71 156.6042,255.4288 185.6642,247.4488 " fill="none" id="Profesor-to-CambiarMenu" style="stroke:#181818;stroke-width:1;"/><polygon fill="#181818" points="191.45,245.86,181.7121,244.386,186.6285,247.184,183.8305,252.1004,191.45,245.86" style="stroke:#181818;stroke-width:1;"/></g><!--link Profesor to CerrarSesion--><g id="link_Profesor_CerrarSesion"><path d="M38.71,332.42 C44.8,257.64 62.15,95.45 100,56.5 C119.62,36.32 142.8008,27.9819 169.8508,24.1019 " fill="none" id="Profesor-to-CerrarSesion" style="stroke:#181818;stroke-width:1;"/><polygon fill="#181818" points="175.79,23.25,166.3132,20.5684,170.8407,23.9599,167.4491,28.4873,175.79,23.25" style="stroke:#181818;stroke-width:1;"/></g><!--link Profesor to CambiarARutinasYEjercicios--><g id="link_Profesor_CambiarARutinasYEjercicios"><path d="M64.25,388.71 C100.78,412.24 159.5365,450.0999 200.8765,476.7399 " fill="none" id="Profesor-to-CambiarARutinasYEjercicios" style="stroke:#181818;stroke-width:1;"/><polygon fill="#181818" points="205.92,479.99,200.5215,471.7525,201.7171,477.2816,196.188,478.4772,205.92,479.99" style="stroke:#181818;stroke-width:1;"/></g><!--link CambiarARutinasYEjercicios to MostrarRutina--><g id="link_CambiarARutinasYEjercicios_MostrarRutina"><path d="M311.86,528.35 C373.04,550.07 457.4956,580.0632 508.9456,598.3232 " fill="none" id="CambiarARutinasYEjercicios-to-MostrarRutina" style="stroke:#181818;stroke-width:1;"/><polygon fill="#181818" points="514.6,600.33,507.4562,593.5502,509.888,598.6577,504.7805,601.0894,514.6,600.33" style="stroke:#181818;stroke-width:1;"/></g><!--link CambiarARutinasYEjercicios to EditarRutina--><g id="link_CambiarARutinasYEjercicios_EditarRutina"><path d="M274.01,532.06 C307.4,564.08 367.83,617.46 429,648.5 C451.19,659.76 471.6483,666.3988 494.4183,671.9088 " fill="none" id="CambiarARutinasYEjercicios-to-EditarRutina" style="stroke:#181818;stroke-width:1;"/><polygon fill="#181818" points="500.25,673.32,492.4433,667.3154,495.3903,672.144,490.5617,675.091,500.25,673.32" style="stroke:#181818;stroke-width:1;"/></g><!--link CambiarARutinasYEjercicios to CrearRutina--><g id="link_CambiarARutinasYEjercicios_CrearRutina"><path d="M263.04,532.49 C290.54,577.8 352.21,668.96 429,717.5 C449.23,730.28 468.366,736.9945 490.706,742.0145 " fill="none" id="CambiarARutinasYEjercicios-to-CrearRutina" style="stroke:#181818;stroke-width:1;"/><polygon fill="#181818" points="496.56,743.33,488.6559,737.4541,491.6816,742.2338,486.902,745.2595,496.56,743.33" style="stroke:#181818;stroke-width:1;"/></g><!--link CambiarARutinasYEjercicios to MostrarEjercicio--><g id="link_CambiarARutinasYEjercicios_MostrarEjercicio"><path d="M285.71,479.67 C321.49,456.41 377.07,422.57 429,400.5 C451.11,391.1 470.6334,384.8589 492.7134,378.9589 " fill="none" id="CambiarARutinasYEjercicios-to-MostrarEjercicio" style="stroke:#181818;stroke-width:1;"/><polygon fill="#181818" points="498.51,377.41,488.7825,375.869,493.6795,378.7008,490.8477,383.5978,498.51,377.41" style="stroke:#181818;stroke-width:1;"/></g><!--link CambiarARutinasYEjercicios to EditarEjercicio--><g id="link_CambiarARutinasYEjercicios_EditarEjercicio"><path d="M332.2,486.19 C386.33,473.84 449.0102,459.5543 495.5702,448.9343 " fill="none" id="CambiarARutinasYEjercicios-to-EditarEjercicio" style="stroke:#181818;stroke-width:1;"/><polygon fill="#181818" points="501.42,447.6,491.7558,445.7016,496.5452,448.7119,493.5349,453.5013,501.42,447.6" style="stroke:#181818;stroke-width:1;"/></g><!--link CambiarARutinasYEjercicios to CrearEjercicio--><g id="link_CambiarARutinasYEjercicios_CrearEjercicio"><path d="M369.28,505.5 C407.44,505.5 442.35,505.5 475.99,505.5 " fill="none" id="CambiarARutinasYEjercicios-to-CrearEjercicio" style="stroke:#181818;stroke-width:1;"/><polygon fill="#181818" points="481.99,505.5,472.99,501.5,476.99,505.5,472.99,509.5,481.99,505.5" style="stroke:#181818;stroke-width:1;"/></g><!--link Profesor to CambiarARetos--><g id="link_Profesor_CambiarARetos"><path d="M37.24,408.66 C40.97,502.87 54.78,743.45 100,807.5 C122.58,839.49 157.0058,857.2825 189.3958,868.7825 " fill="none" id="Profesor-to-CambiarARetos" style="stroke:#181818;stroke-width:1;"/><polygon fill="#181818" points="195.05,870.79,187.907,864.0093,190.3382,869.1171,185.2304,871.5482,195.05,870.79" style="stroke:#181818;stroke-width:1;"/></g><!--link CambiarARetos to CrearReto--><g id="link_CambiarARetos_CrearReto"><path d="M305.24,896.54 C363.6,908.7 446.8362,926.056 501.2062,937.386 " fill="none" id="CambiarARetos-to-CrearReto" style="stroke:#181818;stroke-width:1;"/><polygon fill="#181818" points="507.08,938.61,499.0853,932.8581,502.1852,937.59,497.4533,940.6898,507.08,938.61" style="stroke:#181818;stroke-width:1;"/></g><!--link CambiarARetos to EditarReto--><g id="link_CambiarARetos_EditarReto"><path d="M325.76,883.99 C376.75,883.66 436.4501,883.2688 484.3401,882.9588 " fill="none" id="CambiarARetos-to-EditarReto" style="stroke:#181818;stroke-width:1;"/><polygon fill="#181818" points="490.34,882.92,481.3143,878.9783,485.3401,882.9524,481.3661,886.9782,490.34,882.92" style="stroke:#181818;stroke-width:1;"/></g><!--link Profesor to CambiarAClasificacion--><g id="link_Profesor_CambiarAClasificacion"><path d="M35.59,408.65 C34.99,526.85 38.41,884.66 100,979.5 C120.41,1010.93 151.4569,1029.6595 182.8369,1042.8195 " fill="none" id="Profesor-to-CambiarAClasificacion" style="stroke:#181818;stroke-width:1;"/><polygon fill="#181818" points="188.37,1045.14,181.6173,1037.9706,183.7591,1043.2063,178.5233,1045.3481,188.37,1045.14" style="stroke:#181818;stroke-width:1;"/></g><!--link CambiarAClasificacion to VerAlumnosDentroDeClase--><g id="link_CambiarAClasificacion_VerAlumnosDentroDeClase"><path d="M346.75,1063.82 C375.31,1063.92 400.73,1063.9997 430.31,1064.0997 " fill="none" id="CambiarAClasificacion-to-VerAlumnosDentroDeClase" style="stroke:#181818;stroke-width:1;"/><polygon fill="#181818" points="436.31,1064.12,427.3236,1060.0896,431.31,1064.1031,427.2965,1068.0896,436.31,1064.12" style="stroke:#181818;stroke-width:1;"/></g><!--link Profesor to CambiarAPerfil--><g id="link_Profesor_CambiarAPerfil"><path d="M37.15,408.65 C41.46,540.22 58.56,974.16 100,1106.5 C130.22,1203.01 197.7493,1298.1832 227.9393,1337.9032 " fill="none" id="Profesor-to-CambiarAPerfil" style="stroke:#181818;stroke-width:1;"/><polygon fill="#181818" points="231.57,1342.68,229.3085,1333.0943,228.5444,1338.6993,222.9394,1337.9353,231.57,1342.68" style="stroke:#181818;stroke-width:1;"/></g><!--link CambiarAPerfil to MostrarQR--><g id="link_CambiarAPerfil_MostrarQR"><path d="M261.64,1378.29 C289.97,1412.86 357.15,1489.67 429,1534.5 C444.26,1544.02 456.1738,1549.8522 473.1938,1556.3422 " fill="none" id="CambiarAPerfil-to-MostrarQR" style="stroke:#181818;stroke-width:1;"/><polygon fill="#181818" points="478.8,1558.48,471.8158,1551.5359,474.1281,1556.6985,468.9655,1559.0109,478.8,1558.48" style="stroke:#181818;stroke-width:1;"/></g><!--link CambiarAPerfil to CrearClase--><g id="link_CambiarAPerfil_CrearClase"><path d="M272.58,1343.46 C306.66,1320.99 370.11,1281.48 429,1257.5 C453.2,1247.65 475.3977,1241.3165 498.8277,1235.8365 " fill="none" id="CambiarAPerfil-to-CrearClase" style="stroke:#181818;stroke-width:1;"/><polygon fill="#181818" points="504.67,1234.47,494.9955,1232.6248,499.8014,1235.6087,496.8175,1240.4146,504.67,1234.47" style="stroke:#181818;stroke-width:1;"/></g><!--link CambiarAPerfil to VerMisClases--><g id="link_CambiarAPerfil_VerMisClases"><path d="M303.1,1348.19 C359.6,1335.67 440.6222,1317.7284 496.0222,1305.4484 " fill="none" id="CambiarAPerfil-to-VerMisClases" style="stroke:#181818;stroke-width:1;"/><polygon fill="#181818" points="501.88,1304.15,492.2276,1302.1925,496.9985,1305.232,493.9589,1310.0029,501.88,1304.15" style="stroke:#181818;stroke-width:1;"/></g><!--link CambiarAPerfil to VerAlumnos--><g id="link_CambiarAPerfil_VerAlumnos"><path d="M324.18,1360.5 C374.17,1360.5 432.81,1360.5 480.89,1360.5 " fill="none" id="CambiarAPerfil-to-VerAlumnos" style="stroke:#181818;stroke-width:1;"/><polygon fill="#181818" points="486.89,1360.5,477.89,1356.5,481.89,1360.5,477.89,1364.5,486.89,1360.5" style="stroke:#181818;stroke-width:1;"/></g><!--link CambiarAPerfil to VerRetosAlumnos--><g id="link_CambiarAPerfil_VerRetosAlumnos"><path d="M302.39,1373.01 C356.8,1385.42 434.03,1403.0366 489.79,1415.7466 " fill="none" id="CambiarAPerfil-to-VerRetosAlumnos" style="stroke:#181818;stroke-width:1;"/><polygon fill="#181818" points="495.64,1417.08,487.754,1411.1799,490.765,1415.9688,485.9761,1418.9798,495.64,1417.08" style="stroke:#181818;stroke-width:1;"/></g><!--link CambiarAPerfil to EvaluarRetos--><g id="link_CambiarAPerfil_EvaluarRetos"><path d="M271.98,1377.56 C305.88,1400.53 369.69,1441.4 429,1466.5 C452.75,1476.55 474.4111,1483.1271 497.6011,1488.9571 " fill="none" id="CambiarAPerfil-to-EvaluarRetos" style="stroke:#181818;stroke-width:1;"/><polygon fill="#181818" points="503.42,1490.42,495.6669,1484.3464,498.5709,1489.2009,493.7163,1492.105,503.42,1490.42" style="stroke:#181818;stroke-width:1;"/></g><!--SRC=[ZLHBRXin3Dth54JskK81m_6Y2mE90mJeKfLfL-ru54XoWABmgNg4NgpwZOUSuJZsnj3ZUnH5Sbw7XmZHWRV77n7srgE9rlLAc-WyF7jtmE2yKk_Q_D97X8VTETfU1_WDcv_eZJNMXGVueo3zpW6D3ecqrgVlLdlG8DCJq2YhHlWsXbN9DRrmk8FTitKX-dHFvPIy3Qh8NB7PsyW55LdYhproUW48-p8fTzuLiU8hZHPz1HVhvh8Atb3LwhceO5npKHSwOOotHrhZT8OPKLBVKe1qBPsKE8s1rcQHURIYTQU3FLYZZVttjxzHsfH8QYIXjDvC_uP9svrFlGkmnpvw1-aVJ59WoP48gnf_Ak4dpDcGrVYC_c2x6xKD159JXPIu82yxm1vCBMUFxyv7-y6svMKtMRsj3QK3AAzU7Sdw-gfohW-PSNDBJYcTQUbg4z85DRyiQ3sSj4pc-hmoKqNPeqNPvYFHTPFMTQd8k7vbaSS7ey-TVCKmRaE1CfAMu4hysgTFOS9is9nwz1ZoG3jujI7YIJTwnLTTGzLi1RROd-duyrcfmMBXyV6Ba6KIfZMn4Ct90_J5eaQouELGKNAJ_OJC3FOJBdNN-seOdUokCkwcJsnoeNDbyzY9F2FRs3n6F4vEofrAH0j_oPNahCrh-94sCjc942Gc8KIP9yZnuNEMe-oB5oZq2_yF]--></g></svg>