<svg xmlns="http://www.w3.org/2000/svg" xmlns:xlink="http://www.w3.org/1999/xlink" contentStyleType="text/css" height="582px" preserveAspectRatio="none" style="width:335px;height:582px;background:#FFFFFF;" version="1.1" viewBox="0 0 335 582" width="335px" zoomAndPan="magnify"><defs/><g><!--entity Admin--><g id="elem_Admin"><ellipse cx="28.4321" cy="255.5" fill="#F1F1F1" rx="8" ry="8" style="stroke:#181818;stroke-width:0.5;"/><path d="M28.4321,263.5 L28.4321,290.5 M15.4321,271.5 L41.4321,271.5 M28.4321,290.5 L15.4321,305.5 M28.4321,290.5 L41.4321,305.5 " fill="none" style="stroke:#181818;stroke-width:0.5;"/><text fill="#000000" font-family="sans-serif" font-size="14" lengthAdjust="spacing" textLength="44.8643" x="6" y="319.9951">Admin</text></g><g id="elem_AdministrarUsuarios"><ellipse cx="220.1433" cy="26.8287" fill="#F1F1F1" rx="92.1433" ry="20.8287" style="stroke:#181818;stroke-width:0.5;"/><text fill="#000000" font-family="sans-serif" font-size="14" lengthAdjust="spacing" textLength="146.5762" x="146.8552" y="29.6753">Administrar Usuarios</text></g><g id="elem_GestionarClases"><ellipse cx="220.2032" cy="101.8406" fill="#F1F1F1" rx="79.7032" ry="18.3406" style="stroke:#181818;stroke-width:0.5;"/><text fill="#000000" font-family="sans-serif" font-size="14" lengthAdjust="spacing" textLength="117.8037" x="159.5222" y="105.2541">Gestionar Clases</text></g><g id="elem_GestionarRutinas"><ellipse cx="220.2477" cy="174.9495" fill="#F1F1F1" rx="82.7477" ry="18.9495" style="stroke:#181818;stroke-width:0.5;"/><text fill="#000000" font-family="sans-serif" font-size="14" lengthAdjust="spacing" textLength="125.084" x="157.0267" y="178.0247">Gestionar Rutinas</text></g><g id="elem_GestionarRetos"><ellipse cx="219.8727" cy="246.8745" fill="#F1F1F1" rx="77.3727" ry="17.8745" style="stroke:#181818;stroke-width:0.5;"/><text fill="#000000" font-family="sans-serif" font-size="14" lengthAdjust="spacing" textLength="112.0479" x="161.1364" y="250.5471">Gestionar Retos</text></g><g id="elem_AdministrarAsignaturas"><ellipse cx="219.8251" cy="322.865" fill="#F1F1F1" rx="102.3251" ry="22.865" style="stroke:#181818;stroke-width:0.5;"/><text fill="#000000" font-family="sans-serif" font-size="14" lengthAdjust="spacing" textLength="169.1689" x="135.2406" y="325.7117">Administrar Asignaturas</text></g><g id="elem_ConfigurarSistema"><ellipse cx="220.0541" cy="405.2108" fill="#F1F1F1" rx="109.0541" ry="24.2108" style="stroke:#181818;stroke-width:0.5;"/><text fill="#000000" font-family="sans-serif" font-size="14" lengthAdjust="spacing" textLength="183.832" x="128.1381" y="408.0575">Configuraci&#243;n del Sistema</text></g><g id="elem_VerReportes"><ellipse cx="219.9538" cy="480.7908" fill="#F1F1F1" rx="69.4538" ry="16.2908" style="stroke:#181818;stroke-width:0.5;"/><text fill="#000000" font-family="sans-serif" font-size="14" lengthAdjust="spacing" textLength="91.3418" x="171.2829" y="484.5383">Ver Reportes</text></g><g id="elem_DescargarEstadisticas"><ellipse cx="219.9906" cy="554.9981" fill="#F1F1F1" rx="97.9906" ry="21.9981" style="stroke:#181818;stroke-width:0.5;"/><text fill="#000000" font-family="sans-serif" font-size="14" lengthAdjust="spacing" textLength="159.6191" x="140.181" y="557.8448">Descargar Estad&#237;sticas</text></g><!--link Admin to AdministrarUsuarios--><g id="link_Admin_AdministrarUsuarios"><path d="M33.86,246.86 C41.33,198.51 60.99,115.53 111,66 C122.26,54.85 131.3373,49.0071 146.2373,43.2971 " fill="none" id="Admin-to-AdministrarUsuarios" style="stroke:#181818;stroke-width:1;"/><polygon fill="#181818" points="151.84,41.15,142.0046,40.6355,147.1711,42.9392,144.8674,48.1057,151.84,41.15" style="stroke:#181818;stroke-width:1;"/></g><!--link Admin to GestionarClases--><g id="link_Admin_GestionarClases"><path d="M41.66,246.94 C54.11,213.77 76.54,166.62 111,138 C124.45,126.82 135.8012,120.9166 152.3712,115.5566 " fill="none" id="Admin-to-GestionarClases" style="stroke:#181818;stroke-width:1;"/><polygon fill="#181818" points="158.08,113.71,148.2858,112.6741,153.3227,115.2489,150.748,120.2858,158.08,113.71" style="stroke:#181818;stroke-width:1;"/></g><!--link Admin to GestionarRutinas--><g id="link_Admin_GestionarRutinas"><path d="M51.31,260.47 C66.65,244.49 88.4,224.22 111,211 C126.95,201.67 139.934,196.174 157.264,190.644 " fill="none" id="Admin-to-GestionarRutinas" style="stroke:#181818;stroke-width:1;"/><polygon fill="#181818" points="162.98,188.82,153.19,187.7453,158.2166,190.34,155.6219,195.3667,162.98,188.82" style="stroke:#181818;stroke-width:1;"/></g><!--link Admin to GestionarRetos--><g id="link_Admin_GestionarRetos"><path d="M51.24,280.64 C77.78,275.32 117.8271,267.2897 154.9271,259.8497 " fill="none" id="Admin-to-GestionarRetos" style="stroke:#181818;stroke-width:1;"/><polygon fill="#181818" points="160.81,258.67,151.1992,256.5177,155.9076,259.6531,152.7722,264.3615,160.81,258.67" style="stroke:#181818;stroke-width:1;"/></g><!--link Admin to AdministrarAsignaturas--><g id="link_Admin_AdministrarAsignaturas"><path d="M51.24,289.36 C73.6,293.84 103.8371,299.9102 136.8471,306.5302 " fill="none" id="Admin-to-AdministrarAsignaturas" style="stroke:#181818;stroke-width:1;"/><polygon fill="#181818" points="142.73,307.71,134.6922,302.0184,137.8276,306.7268,133.1192,309.8622,142.73,307.71" style="stroke:#181818;stroke-width:1;"/></g><!--link Admin to ConfigurarSistema--><g id="link_Admin_ConfigurarSistema"><path d="M51.29,310.55 C66.62,327.26 88.37,348.58 111,363 C124.91,371.86 135.4085,377.1585 150.8485,383.2485 " fill="none" id="Admin-to-ConfigurarSistema" style="stroke:#181818;stroke-width:1;"/><polygon fill="#181818" points="156.43,385.45,149.5254,378.4267,151.7787,383.6154,146.59,385.8687,156.43,385.45" style="stroke:#181818;stroke-width:1;"/></g><!--link Admin to VerReportes--><g id="link_Admin_VerReportes"><path d="M39.54,323.22 C51.02,359.69 73.27,413.72 111,446 C125.53,458.43 138.7833,464.8132 156.8133,469.9932 " fill="none" id="Admin-to-VerReportes" style="stroke:#181818;stroke-width:1;"/><polygon fill="#181818" points="162.58,471.65,155.0344,465.3204,157.7744,470.2694,152.8254,473.0093,162.58,471.65" style="stroke:#181818;stroke-width:1;"/></g><!--link Admin to DescargarEstadisticas--><g id="link_Admin_DescargarEstadisticas"><path d="M33.12,323.22 C39.87,373.61 58.8,462.06 111,515 C121.67,525.82 129.9635,531.476 144.1735,537.266 " fill="none" id="Admin-to-DescargarEstadisticas" style="stroke:#181818;stroke-width:1;"/><polygon fill="#181818" points="149.73,539.53,142.9047,532.4297,145.0996,537.6433,139.886,539.8383,149.73,539.53" style="stroke:#181818;stroke-width:1;"/></g><!--SRC=[RL1Bhi8m3Dpt51Pxhl0a18ZzGx2tKbCibGJPxh5OlIFqOYzDFwbAbfvFCZCjFGmiW73pDAXPo1a7NrNeB0WSwXV7erDog0IxTBEQeC1DEnGEkWDKM14pdbqNqk7Hw3cs4HWT2pXY9VLlP-nn8v_0efuiRDK3LCv_K6uyMYVuLM55PUyn-0St4NFS_tcegOLhbDCBatsXPKApyqv3jdSGcxf7OBwpwaJgK9gOxAo6TV-95ToKRU4InIDJfSImt_yKvy_iTke2CwzQejA4nR_MEsN1znAPMpVFQB7UFm00]--></g></svg>