<svg xmlns="http://www.w3.org/2000/svg" xmlns:xlink="http://www.w3.org/1999/xlink" contentStyleType="text/css" height="1463px" preserveAspectRatio="none" style="width:436px;height:1463px;background:#FFFFFF;" version="1.1" viewBox="0 0 436 1463" width="436px" zoomAndPan="magnify"><defs/><g><!--cluster Rutinas--><g id="cluster_Rutinas"><path d="M186.5,122.5 L247.4854,122.5 A3.75,3.75 0 0 1 249.9854,125 L256.9854,144.7969 L350.5,144.7969 A2.5,2.5 0 0 1 353,147.2969 L353,335 A2.5,2.5 0 0 1 350.5,337.5 L186.5,337.5 A2.5,2.5 0 0 1 184,335 L184,125 A2.5,2.5 0 0 1 186.5,122.5 " fill="none" style="stroke:#000000;stroke-width:1.5;"/><line style="stroke:#000000;stroke-width:1.5;" x1="184" x2="256.9854" y1="144.7969" y2="144.7969"/><text fill="#000000" font-family="sans-serif" font-size="14" font-weight="bold" lengthAdjust="spacing" textLength="59.9854" x="188" y="137.4951">Rutinas</text></g><!--cluster Ejercicios--><g id="cluster_Ejercicios"><path d="M162.5,361.5 L238.4082,361.5 A3.75,3.75 0 0 1 240.9082,364 L247.9082,383.7969 L374.5,383.7969 A2.5,2.5 0 0 1 377,386.2969 L377,659 A2.5,2.5 0 0 1 374.5,661.5 L162.5,661.5 A2.5,2.5 0 0 1 160,659 L160,364 A2.5,2.5 0 0 1 162.5,361.5 " fill="none" style="stroke:#000000;stroke-width:1.5;"/><line style="stroke:#000000;stroke-width:1.5;" x1="160" x2="247.9082" y1="383.7969" y2="383.7969"/><text fill="#000000" font-family="sans-serif" font-size="14" font-weight="bold" lengthAdjust="spacing" textLength="74.9082" x="164" y="376.4951">Ejercicios</text></g><!--cluster Retos--><g id="cluster_Retos"><path d="M164.5,685.5 L210.4189,685.5 A3.75,3.75 0 0 1 212.9189,688 L219.9189,707.7969 L372.5,707.7969 A2.5,2.5 0 0 1 375,710.2969 L375,980 A2.5,2.5 0 0 1 372.5,982.5 L164.5,982.5 A2.5,2.5 0 0 1 162,980 L162,688 A2.5,2.5 0 0 1 164.5,685.5 " fill="none" style="stroke:#000000;stroke-width:1.5;"/><line style="stroke:#000000;stroke-width:1.5;" x1="162" x2="219.9189" y1="707.7969" y2="707.7969"/><text fill="#000000" font-family="sans-serif" font-size="14" font-weight="bold" lengthAdjust="spacing" textLength="44.9189" x="166" y="700.4951">Retos</text></g><!--cluster Perfil--><g id="cluster_Perfil"><path d="M110.5,1006.5 L153.8486,1006.5 A3.75,3.75 0 0 1 156.3486,1009 L163.3486,1028.7969 L426.5,1028.7969 A2.5,2.5 0 0 1 429,1031.2969 L429,1184 A2.5,2.5 0 0 1 426.5,1186.5 L110.5,1186.5 A2.5,2.5 0 0 1 108,1184 L108,1009 A2.5,2.5 0 0 1 110.5,1006.5 " fill="none" style="stroke:#000000;stroke-width:1.5;"/><line style="stroke:#000000;stroke-width:1.5;" x1="108" x2="163.3486" y1="1028.7969" y2="1028.7969"/><text fill="#000000" font-family="sans-serif" font-size="14" font-weight="bold" lengthAdjust="spacing" textLength="42.3486" x="112" y="1021.4951">Perfil</text></g><!--cluster Clases--><g id="cluster_Clases"><path d="M147.5,1210.5 L199.1816,1210.5 A3.75,3.75 0 0 1 201.6816,1213 L208.6816,1232.7969 L389.5,1232.7969 A2.5,2.5 0 0 1 392,1235.2969 L392,1454 A2.5,2.5 0 0 1 389.5,1456.5 L147.5,1456.5 A2.5,2.5 0 0 1 145,1454 L145,1213 A2.5,2.5 0 0 1 147.5,1210.5 " fill="none" style="stroke:#000000;stroke-width:1.5;"/><line style="stroke:#000000;stroke-width:1.5;" x1="145" x2="208.6816" y1="1232.7969" y2="1232.7969"/><text fill="#000000" font-family="sans-serif" font-size="14" font-weight="bold" lengthAdjust="spacing" textLength="50.6816" x="149" y="1225.4951">Clases</text></g><g id="elem_VerRutina"><ellipse cx="268.3356" cy="172.5671" fill="#F1F1F1" rx="63.3356" ry="15.0671" style="stroke:#181818;stroke-width:0.5;"/><text fill="#000000" font-family="sans-serif" font-size="14" lengthAdjust="spacing" textLength="73.8281" x="228.4215" y="176.3147">Ver Rutina</text></g><g id="elem_UsarRutinas"><ellipse cx="268.5287" cy="238.6057" fill="#F1F1F1" rx="66.0287" ry="15.6057" style="stroke:#181818;stroke-width:0.5;"/><text fill="#000000" font-family="sans-serif" font-size="14" lengthAdjust="spacing" textLength="81.7578" x="224.6498" y="242.3533">Usar Rutina</text></g><g id="elem_CrearRutinaPersonalizada"><ellipse cx="268.3702" cy="305.574" fill="#F1F1F1" rx="68.3702" ry="16.074" style="stroke:#181818;stroke-width:0.5;"/><text fill="#000000" font-family="sans-serif" font-size="14" lengthAdjust="spacing" textLength="88.3613" x="221.1896" y="309.3216">Crear Rutina</text></g><g id="elem_VerEjercicio"><ellipse cx="268.4668" cy="412.4934" fill="#F1F1F1" rx="67.9668" ry="15.9934" style="stroke:#181818;stroke-width:0.5;"/><text fill="#000000" font-family="sans-serif" font-size="14" lengthAdjust="spacing" textLength="87.2402" x="221.8467" y="416.2409">Ver Ejercicio</text></g><g id="elem_CrearEjercicio"><ellipse cx="268.3636" cy="480.5727" fill="#F1F1F1" rx="73.3636" ry="17.0727" style="stroke:#181818;stroke-width:0.5;"/><text fill="#000000" font-family="sans-serif" font-size="14" lengthAdjust="spacing" textLength="101.7734" x="214.4768" y="484.3203">Crear Ejercicio</text></g><g id="elem_EditarEjercicio"><ellipse cx="268.506" cy="550.3012" fill="#F1F1F1" rx="74.506" ry="17.3012" style="stroke:#181818;stroke-width:0.5;"/><text fill="#000000" font-family="sans-serif" font-size="14" lengthAdjust="spacing" textLength="104.7402" x="213.1358" y="554.0488">Editar Ejercicio</text></g><g id="elem_SeleccionarEjercicios"><ellipse cx="268.4201" cy="624.384" fill="#F1F1F1" rx="92.4201" ry="20.884" style="stroke:#181818;stroke-width:0.5;"/><text fill="#000000" font-family="sans-serif" font-size="14" lengthAdjust="spacing" textLength="147.1982" x="194.8209" y="627.2307">SeleccionarEjercicios</text></g><g id="elem_RetoOpcional"><ellipse cx="268.4125" cy="739.5825" fill="#F1F1F1" rx="83.4125" ry="19.0825" style="stroke:#181818;stroke-width:0.5;"/><text fill="#000000" font-family="sans-serif" font-size="14" lengthAdjust="spacing" textLength="126.6426" x="204.6369" y="742.5838">Ver Reto Opcional</text></g><g id="elem_RetoObligatorio"><ellipse cx="268.4059" cy="814.4812" fill="#F1F1F1" rx="90.4059" ry="20.4812" style="stroke:#181818;stroke-width:0.5;"/><text fill="#000000" font-family="sans-serif" font-size="14" lengthAdjust="spacing" textLength="142.6592" x="197.0763" y="817.3279">Ver Reto Obligatorio</text></g><g id="elem_EditarReto"><ellipse cx="268.3348" cy="885.367" fill="#F1F1F1" rx="64.8348" ry="15.367" style="stroke:#181818;stroke-width:0.5;"/><text fill="#000000" font-family="sans-serif" font-size="14" lengthAdjust="spacing" textLength="78.292" x="226.1888" y="889.1145">Editar Reto</text></g><g id="elem_CrearReto"><ellipse cx="268.3334" cy="951.6667" fill="#F1F1F1" rx="63.8334" ry="15.1667" style="stroke:#181818;stroke-width:0.5;"/><text fill="#000000" font-family="sans-serif" font-size="14" lengthAdjust="spacing" textLength="75.3252" x="227.6708" y="955.4142">Crear Reto</text></g><g id="elem_VerPerfil"><ellipse cx="268.2638" cy="1056.2561" fill="#F1F1F1" rx="57.7638" ry="14.7561" style="stroke:#181818;stroke-width:0.5;"/><text fill="#000000" font-family="sans-serif" font-size="14" lengthAdjust="spacing" textLength="63.916" x="233.3058" y="1060.0037">Ver Perfil</text></g><g id="elem_MostrarQR"><ellipse cx="268.401" cy="1138.2802" fill="#F1F1F1" rx="144.401" ry="31.2802" style="stroke:#181818;stroke-width:0.5;"/><text fill="#000000" font-family="sans-serif" font-size="14" lengthAdjust="spacing" textLength="254.3584" x="138.9967" y="1141.1269">Mostrar QR para Centros Deportivos</text></g><g id="elem_CrearClase"><ellipse cx="268.2936" cy="1261.5587" fill="#F1F1F1" rx="65.7936" ry="15.5587" style="stroke:#181818;stroke-width:0.5;"/><text fill="#000000" font-family="sans-serif" font-size="14" lengthAdjust="spacing" textLength="81.0811" x="224.753" y="1265.3063">Crear Clase</text></g><g id="elem_VerClasificacionClases"><ellipse cx="268.3094" cy="1334.5619" fill="#F1F1F1" rx="100.8094" ry="22.5619" style="stroke:#181818;stroke-width:0.5;"/><text fill="#000000" font-family="sans-serif" font-size="14" lengthAdjust="spacing" textLength="165.8398" x="185.3895" y="1337.4086">Ver Clasificacion Clases</text></g><g id="elem_VerClasificacionAlumnos"><ellipse cx="268.3367" cy="1416.3673" fill="#F1F1F1" rx="107.3367" ry="23.8673" style="stroke:#181818;stroke-width:0.5;"/><text fill="#000000" font-family="sans-serif" font-size="14" lengthAdjust="spacing" textLength="180.1064" x="178.2835" y="1419.214">Ver Clasificacion alumnos</text></g><!--entity Profesor--><g id="elem_Profesor"><ellipse cx="34.9604" cy="710" fill="#F1F1F1" rx="8" ry="8" style="stroke:#181818;stroke-width:0.5;"/><path d="M34.9604,718 L34.9604,745 M21.9604,726 L47.9604,726 M34.9604,745 L21.9604,760 M34.9604,745 L47.9604,760 " fill="none" style="stroke:#181818;stroke-width:0.5;"/><text fill="#000000" font-family="sans-serif" font-size="14" lengthAdjust="spacing" textLength="57.9209" x="6" y="774.4951">Profesor</text></g><g id="elem_IniciarSesion"><ellipse cx="268.7059" cy="22.4412" fill="#F1F1F1" rx="70.2059" ry="16.4412" style="stroke:#181818;stroke-width:0.5;"/><text fill="#000000" font-family="sans-serif" font-size="14" lengthAdjust="spacing" textLength="93.3857" x="219.013" y="26.1887">Iniciar Sesión</text></g><g id="elem_CerrarSesion"><ellipse cx="268.5942" cy="90.7188" fill="#F1F1F1" rx="69.0942" ry="16.2188" style="stroke:#181818;stroke-width:0.5;"/><text fill="#000000" font-family="sans-serif" font-size="14" lengthAdjust="spacing" textLength="90.3574" x="220.4155" y="94.4664">CerrarSesion</text></g><!--link Profesor to IniciarSesion--><g id="link_Profesor_IniciarSesion"><path d="M36.97,701.07 C40.78,564 56.72,104.67 100,56.5 C124.79,28.91 159.3174,20.4582 194.2874,18.7182 " fill="none" id="Profesor-to-IniciarSesion" style="stroke:#181818;stroke-width:1;"/><polygon fill="#181818" points="200.28,18.42,191.0923,14.8722,195.2862,18.6685,191.4899,22.8623,200.28,18.42" style="stroke:#181818;stroke-width:1;"/></g><!--link Profesor to UsarRutinas--><g id="link_Profesor_UsarRutinas"><path d="M35.74,701.41 C35.86,601.13 41.77,333.25 100,271.5 C126.44,243.47 163.2232,235.5949 198.9232,234.4349 " fill="none" id="Profesor-to-UsarRutinas" style="stroke:#181818;stroke-width:1;"/><polygon fill="#181818" points="204.92,234.24,195.7948,230.5344,199.9226,234.4024,196.0547,238.5302,204.92,234.24" style="stroke:#181818;stroke-width:1;"/></g><!--link Profesor to CrearRutinaPersonalizada--><g id="link_Profesor_CrearRutinaPersonalizada"><path d="M38.34,701.42 C44.06,619.54 61.22,430.14 100,380.5 C128.05,344.59 171.2179,326.9281 208.9979,316.9781 " fill="none" id="Profesor-to-CrearRutinaPersonalizada" style="stroke:#181818;stroke-width:1;"/><polygon fill="#181818" points="214.8,315.45,205.078,313.874,209.9649,316.7234,207.1155,321.6102,214.8,315.45" style="stroke:#181818;stroke-width:1;"/></g><!--link Profesor to VerEjercicio--><g id="link_Profesor_VerEjercicio"><path d="M39.18,701.26 C45.91,629.97 64,480.79 100,445.5 C126.46,419.56 161.0188,411.4157 195.5988,409.5357 " fill="none" id="Profesor-to-VerEjercicio" style="stroke:#181818;stroke-width:1;"/><polygon fill="#181818" points="201.59,409.21,192.3861,405.7045,196.5974,409.4814,192.8204,413.6927,201.59,409.21" style="stroke:#181818;stroke-width:1;"/></g><!--link Profesor to RetoOpcional--><g id="link_Profesor_RetoOpcional"><path d="M64.39,739.5 C94.27,739.5 136.72,739.5 178.81,739.5 " fill="none" id="Profesor-to-RetoOpcional" style="stroke:#181818;stroke-width:1;"/><polygon fill="#181818" points="184.81,739.5,175.81,735.5,179.81,739.5,175.81,743.5,184.81,739.5" style="stroke:#181818;stroke-width:1;"/></g><!--link Profesor to RetoObligatorio--><g id="link_Profesor_RetoObligatorio"><path d="M64.14,757.61 C75.01,763.99 87.76,770.74 100,775.5 C130.34,787.29 159.3253,794.8901 189.3753,801.1301 " fill="none" id="Profesor-to-RetoObligatorio" style="stroke:#181818;stroke-width:1;"/><polygon fill="#181818" points="195.25,802.35,187.2512,796.6037,190.3544,801.3334,185.6247,804.4366,195.25,802.35" style="stroke:#181818;stroke-width:1;"/></g><!--link Profesor to CrearReto--><g id="link_Profesor_CrearReto"><path d="M38.87,777.8 C44.08,818.88 58.74,882.96 100,918.5 C128.63,943.16 164.301,951.0766 198.911,953.1766 " fill="none" id="Profesor-to-CrearReto" style="stroke:#181818;stroke-width:1;"/><polygon fill="#181818" points="204.9,953.54,196.1588,949.0023,199.9092,953.2372,195.6743,956.9876,204.9,953.54" style="stroke:#181818;stroke-width:1;"/></g><!--link Profesor to CrearEjercicio--><g id="link_Profesor_CrearEjercicio"><path d="M35.59,701.32 C37.24,651.18 48.03,563.84 100,515.5 C125.34,491.93 156.3386,483.1451 189.0986,479.9351 " fill="none" id="Profesor-to-CrearEjercicio" style="stroke:#181818;stroke-width:1;"/><polygon fill="#181818" points="195.07,479.35,185.7228,476.2467,190.0938,479.8376,186.503,484.2086,195.07,479.35" style="stroke:#181818;stroke-width:1;"/></g><!--link Profesor to VerClasificacionAlumnos--><g id="link_Profesor_VerClasificacionAlumnos"><path d="M37.33,777.85 C42.21,908.29 60.87,1329.23 100,1374.5 C116.27,1393.33 133.7957,1402.8403 157.8957,1409.1503 " fill="none" id="Profesor-to-VerClasificacionAlumnos" style="stroke:#181818;stroke-width:1;"/><polygon fill="#181818" points="163.7,1410.67,156.0066,1404.5208,158.863,1409.4036,153.9803,1412.26,163.7,1410.67" style="stroke:#181818;stroke-width:1;"/></g><!--link Profesor to EditarReto--><g id="link_Profesor_EditarReto"><path d="M48.07,777.52 C58.02,802.65 74.68,834.23 100,852.5 C129.68,873.92 163.7338,881.8163 197.2138,884.8063 " fill="none" id="Profesor-to-EditarReto" style="stroke:#181818;stroke-width:1;"/><polygon fill="#181818" points="203.19,885.34,194.5815,880.5553,198.2098,884.8952,193.8699,888.5236,203.19,885.34" style="stroke:#181818;stroke-width:1;"/></g><!--link Profesor to VerClasificacionClases--><g id="link_Profesor_VerClasificacionClases"><path d="M37.89,777.53 C44.13,896.46 65.69,1255.82 100,1294.5 C117.46,1314.18 136.8581,1323.7352 162.4781,1329.5352 " fill="none" id="Profesor-to-VerClasificacionClases" style="stroke:#181818;stroke-width:1;"/><polygon fill="#181818" points="168.33,1330.86,160.4353,1324.9715,163.4534,1329.756,158.6689,1332.7741,168.33,1330.86" style="stroke:#181818;stroke-width:1;"/></g><!--link Profesor to VerPerfil--><g id="link_Profesor_VerPerfil"><path d="M36.21,777.86 C38.48,830.07 49.89,923.75 100,982.5 C131.05,1018.9 177.664,1036.6053 215.604,1046.2253 " fill="none" id="Profesor-to-VerPerfil" style="stroke:#181818;stroke-width:1;"/><polygon fill="#181818" points="221.42,1047.7,213.6792,1041.6107,216.5734,1046.4711,211.7129,1049.3653,221.42,1047.7" style="stroke:#181818;stroke-width:1;"/></g><!--link Profesor to MostrarQR--><g id="link_Profesor_MostrarQR"><path d="M38.06,777.52 C43.18,858.22 59.18,1042.98 100,1088.5 C113.07,1103.07 124.6186,1111.2281 142.9186,1118.6381 " fill="none" id="Profesor-to-MostrarQR" style="stroke:#181818;stroke-width:1;"/><polygon fill="#181818" points="148.48,1120.89,141.6392,1113.8046,143.8455,1119.0134,138.6367,1121.2197,148.48,1120.89" style="stroke:#181818;stroke-width:1;"/></g><!--link Profesor to CrearClase--><g id="link_Profesor_CrearClase"><path d="M36.84,777.66 C39.66,873.69 51.57,1122.26 100,1186.5 C127.72,1223.26 171.6957,1240.939 209.8157,1250.649 " fill="none" id="Profesor-to-CrearClase" style="stroke:#181818;stroke-width:1;"/><polygon fill="#181818" points="215.63,1252.13,207.8959,1246.0322,210.7847,1250.8958,205.9211,1253.7847,215.63,1252.13" style="stroke:#181818;stroke-width:1;"/></g><!--link Profesor to CerrarSesion--><g id="link_Profesor_CerrarSesion"><path d="M37.67,701.29 C43.45,576.23 64.28,184.7 100,141.5 C124.41,111.98 159.4392,100.0789 194.7392,94.6689 " fill="none" id="Profesor-to-CerrarSesion" style="stroke:#181818;stroke-width:1;"/><polygon fill="#181818" points="200.67,93.76,191.1679,91.1696,195.7277,94.5174,192.3798,99.0772,200.67,93.76" style="stroke:#181818;stroke-width:1;"/></g><!--link Profesor to VerRutina--><g id="link_Profesor_VerRutina"><path d="M38.02,701.23 C44.49,584.99 66.31,241.83 100,205.5 C126.91,176.49 165.3013,168.8838 201.6313,168.1338 " fill="none" id="Profesor-to-VerRutina" style="stroke:#181818;stroke-width:1;"/><polygon fill="#181818" points="207.63,168.01,198.5494,164.1966,202.6311,168.1132,198.7145,172.1949,207.63,168.01" style="stroke:#181818;stroke-width:1;"/></g><!--link Profesor to EditarEjercicio--><g id="link_Profesor_EditarEjercicio"><path d="M41.6,701.22 C48.85,665.84 64.98,614.49 100,585.5 C125.97,564 155.8802,555.3736 187.7602,551.6636 " fill="none" id="Profesor-to-EditarEjercicio" style="stroke:#181818;stroke-width:1;"/><polygon fill="#181818" points="193.72,550.97,184.318,548.0372,188.7535,551.548,185.2427,555.9835,193.72,550.97" style="stroke:#181818;stroke-width:1;"/></g><!--SRC=[XLHBKiCm3Dtd59xkUmLccD852uP-1lR6LOh1s1dPPG73gJW25yE_95RYG5VLUq_oaoL7GUkOCmpb-TcnaqGGJXhTSE4CiXsQ5gp1fkcuUELdO8UBavhRpuRvtyM2u1ROwX4mCol6BVDXYgZgmN8Y2t6kHuKR1AgCG8ftWDPehkG7F_7cQtIsVG4KKaXJCpUGlRy1g9rCrH5Rq6zFqiqI4hYGSGG5mgEwKDYOLcNA3W_Wgiq5dDrtCLN5KW7fWINzav9dxeUSJSUK4Qks6JH5Xo6i3gwNfR45LT657s0h5QlqaPX-GYcYgZjZ7VeJzWVMSUHi0zgXiUm6EeDEllk_CJthzeVou8toDQRtbnn7QhGSmxc_0CjM2XukDfVhtH8kKVyLuEhofaszmdNYWlsXmgts6-7D7i7AdsyTyp8M8Fzenwu0iKTJMmNGDFspPklrrQG4eSe7IeZ5zqXKv9aHXkpdd2dMi79isASvl73IqiKIKR7EVoRdkKurULC9F6xWt6fQBugNyvdMpz_IYkMXwLy0]--></g></svg>