<svg xmlns="http://www.w3.org/2000/svg" xmlns:xlink="http://www.w3.org/1999/xlink" contentStyleType="text/css" height="635px" preserveAspectRatio="none" style="width:352px;height:635px;background:#FFFFFF;" version="1.1" viewBox="0 0 352 635" width="352px" zoomAndPan="magnify"><defs/><g><!--cluster DEVAS--><g id="cluster_DEVAS"><path d="M97.5,6 L151.4375,6 A3.75,3.75 0 0 1 153.9375,8.5 L160.9375,28.2969 L342.5,28.2969 A2.5,2.5 0 0 1 345,30.7969 L345,625.5 A2.5,2.5 0 0 1 342.5,628 L97.5,628 A2.5,2.5 0 0 1 95,625.5 L95,8.5 A2.5,2.5 0 0 1 97.5,6 " fill="none" style="stroke:#000000;stroke-width:1.5;"/><line style="stroke:#000000;stroke-width:1.5;" x1="95" x2="160.9375" y1="28.2969" y2="28.2969"/><text fill="#000000" font-family="sans-serif" font-size="14" font-weight="bold" lengthAdjust="spacing" textLength="52.9375" x="99" y="20.9951">DEVAS</text></g><g id="elem_UC_AdministrarUsuarios"><ellipse cx="220.1433" cy="61.8287" fill="#F1F1F1" rx="92.1433" ry="20.8287" style="stroke:#181818;stroke-width:0.5;"/><text fill="#000000" font-family="sans-serif" font-size="14" lengthAdjust="spacing" textLength="146.5762" x="146.8552" y="64.6753">Administrar Usuarios</text></g><g id="elem_UC_GestionarClases"><ellipse cx="220.2032" cy="136.8406" fill="#F1F1F1" rx="79.7032" ry="18.3406" style="stroke:#181818;stroke-width:0.5;"/><text fill="#000000" font-family="sans-serif" font-size="14" lengthAdjust="spacing" textLength="117.8037" x="159.5222" y="140.2541">Gestionar Clases</text></g><g id="elem_UC_GestionarRutinas"><ellipse cx="220.2477" cy="209.9495" fill="#F1F1F1" rx="82.7477" ry="18.9495" style="stroke:#181818;stroke-width:0.5;"/><text fill="#000000" font-family="sans-serif" font-size="14" lengthAdjust="spacing" textLength="125.084" x="157.0267" y="213.0247">Gestionar Rutinas</text></g><g id="elem_UC_GestionarRetos"><ellipse cx="219.8727" cy="281.8745" fill="#F1F1F1" rx="77.3727" ry="17.8745" style="stroke:#181818;stroke-width:0.5;"/><text fill="#000000" font-family="sans-serif" font-size="14" lengthAdjust="spacing" textLength="112.0479" x="161.1364" y="285.5471">Gestionar Retos</text></g><g id="elem_UC_AdministrarAsignaturas"><ellipse cx="219.8251" cy="357.865" fill="#F1F1F1" rx="102.3251" ry="22.865" style="stroke:#181818;stroke-width:0.5;"/><text fill="#000000" font-family="sans-serif" font-size="14" lengthAdjust="spacing" textLength="169.1689" x="135.2406" y="360.7117">Administrar Asignaturas</text></g><g id="elem_UC_ConfigurarSistema"><ellipse cx="220.0541" cy="440.2108" fill="#F1F1F1" rx="109.0541" ry="24.2108" style="stroke:#181818;stroke-width:0.5;"/><text fill="#000000" font-family="sans-serif" font-size="14" lengthAdjust="spacing" textLength="183.832" x="128.1381" y="443.0575">Configuraci&#243;n del Sistema</text></g><g id="elem_UC_VerReportes"><ellipse cx="219.9538" cy="515.7908" fill="#F1F1F1" rx="69.4538" ry="16.2908" style="stroke:#181818;stroke-width:0.5;"/><text fill="#000000" font-family="sans-serif" font-size="14" lengthAdjust="spacing" textLength="91.3418" x="171.2829" y="519.5383">Ver Reportes</text></g><g id="elem_UC_DescargarEstadisticas"><ellipse cx="219.9906" cy="589.9981" fill="#F1F1F1" rx="97.9906" ry="21.9981" style="stroke:#181818;stroke-width:0.5;"/><text fill="#000000" font-family="sans-serif" font-size="14" lengthAdjust="spacing" textLength="159.6191" x="140.181" y="592.8448">Descargar Estad&#237;sticas</text></g><!--entity Admin--><g id="elem_Admin"><ellipse cx="28.4321" cy="290.5" fill="#F1F1F1" rx="8" ry="8" style="stroke:#181818;stroke-width:0.5;"/><path d="M28.4321,298.5 L28.4321,325.5 M15.4321,306.5 L41.4321,306.5 M28.4321,325.5 L15.4321,340.5 M28.4321,325.5 L41.4321,340.5 " fill="none" style="stroke:#181818;stroke-width:0.5;"/><text fill="#000000" font-family="sans-serif" font-size="14" lengthAdjust="spacing" textLength="44.8643" x="6" y="354.9951">Admin</text></g><!--link Admin to UC_AdministrarUsuarios--><g id="link_Admin_UC_AdministrarUsuarios"><path d="M28.77,281.68 C29.98,233.15 39.52,149.96 87,101 C100.81,86.76 113.802,79.4137 132.812,73.6037 " fill="none" id="Admin-to-UC_AdministrarUsuarios" style="stroke:#181818;stroke-width:1;"/><polygon fill="#181818" points="138.55,71.85,128.7739,70.6552,133.7683,73.3114,131.1121,78.3059,138.55,71.85" style="stroke:#181818;stroke-width:1;"/></g><!--link Admin to UC_GestionarClases--><g id="link_Admin_UC_GestionarClases"><path d="M34.73,281.7 C41.27,248.37 55.71,201.12 87,173 C103.43,158.23 119.5126,150.8787 140.7626,145.6687 " fill="none" id="Admin-to-UC_GestionarClases" style="stroke:#181818;stroke-width:1;"/><polygon fill="#181818" points="146.59,144.24,136.8964,142.4982,141.7338,145.4306,138.8014,150.2681,146.59,144.24" style="stroke:#181818;stroke-width:1;"/></g><!--link Admin to UC_GestionarRutinas--><g id="link_Admin_UC_GestionarRutinas"><path d="M51.08,283.03 C60.56,269.63 72.79,255.48 87,246 C105.58,233.61 122.4903,226.9297 143.8203,221.5797 " fill="none" id="Admin-to-UC_GestionarRutinas" style="stroke:#181818;stroke-width:1;"/><polygon fill="#181818" points="149.64,220.12,139.9373,218.4297,144.7902,221.3364,141.8835,226.1894,149.64,220.12" style="stroke:#181818;stroke-width:1;"/></g><!--link Admin to UC_GestionarRetos--><g id="link_Admin_UC_GestionarRetos"><path d="M51.24,315.64 C77.78,310.32 117.8271,302.2897 154.9271,294.8497 " fill="none" id="Admin-to-UC_GestionarRetos" style="stroke:#181818;stroke-width:1;"/><polygon fill="#181818" points="160.81,293.67,151.1992,291.5177,155.9076,294.6531,152.7722,299.3615,160.81,293.67" style="stroke:#181818;stroke-width:1;"/></g><!--link Admin to UC_AdministrarAsignaturas--><g id="link_Admin_UC_AdministrarAsignaturas"><path d="M51.24,324.36 C73.6,328.84 103.8371,334.9102 136.8471,341.5302 " fill="none" id="Admin-to-UC_AdministrarAsignaturas" style="stroke:#181818;stroke-width:1;"/><polygon fill="#181818" points="142.73,342.71,134.6922,337.0184,137.8276,341.7268,133.1192,344.8622,142.73,342.71" style="stroke:#181818;stroke-width:1;"/></g><!--link Admin to UC_ConfigurarSistema--><g id="link_Admin_UC_ConfigurarSistema"><path d="M50.66,358.26 C60.16,372.45 72.5,387.61 87,398 C102.64,409.21 115.6967,415.6163 134.0967,421.7363 " fill="none" id="Admin-to-UC_ConfigurarSistema" style="stroke:#181818;stroke-width:1;"/><polygon fill="#181818" points="139.79,423.63,132.5124,416.994,135.0456,422.052,129.9876,424.5851,139.79,423.63" style="stroke:#181818;stroke-width:1;"/></g><!--link Admin to UC_VerReportes--><g id="link_Admin_UC_VerReportes"><path d="M33.05,358.07 C38.49,394.69 52.26,449.06 87,481 C104.98,497.53 123.9697,505.2273 147.2897,509.9573 " fill="none" id="Admin-to-UC_VerReportes" style="stroke:#181818;stroke-width:1;"/><polygon fill="#181818" points="153.17,511.15,145.1447,505.4408,148.2698,510.1561,143.5545,513.2811,153.17,511.15" style="stroke:#181818;stroke-width:1;"/></g><!--link Admin to UC_DescargarEstadisticas--><g id="link_Admin_UC_DescargarEstadisticas"><path d="M34.46,358.31 C42.71,416.33 60.96,522.65 87,550 C100.04,563.7 111.9135,570.8759 129.9635,576.8459 " fill="none" id="Admin-to-UC_DescargarEstadisticas" style="stroke:#181818;stroke-width:1;"/><polygon fill="#181818" points="135.66,578.73,128.3713,572.1062,130.9129,577.1599,125.8592,579.7015,135.66,578.73" style="stroke:#181818;stroke-width:1;"/></g><!--SRC=[TP4nRiCm34LtdOB8dYiKC9oWUuDaBGYPKOawKY3IKz4ZTUeHSh7AJcpPZJpgl_ybygkbiu86YEm-51gEP9M3DmQjXWXLS-5qkABzH4Umsv-gmvVfX2mAmMR0B1enmb4wZ1na0oXmhDzdR4Gv-4hIFvDYTPk4AJJfTxaKUEkKFJud7denGXeAWLujxr89Eu_QHIojCwCvNWT_PfSqoxTV3msrS4Xskk1um-I83v339-g7l8QekOgaZL8sxaWiHfT6t8jYS_j9kzWyv8G7odTep30xRBSlQ_-oCFp_Wp8SwrwXGxThxyuBN7YUArhWUIKBKDxx-my0]--></g></svg>