<svg xmlns="http://www.w3.org/2000/svg" xmlns:xlink="http://www.w3.org/1999/xlink" contentStyleType="text/css" height="1976px" preserveAspectRatio="none" style="width:392px;height:1976px;background:#FFFFFF;" version="1.1" viewBox="0 0 392 1976" width="392px" zoomAndPan="magnify"><defs/><g><!--cluster Rutinas y Ejercicios--><g id="cluster_Rutinas y Ejercicios"><path d="M110.5,199.5 L265.2676,199.5 A3.75,3.75 0 0 1 267.7676,202 L274.7676,221.7969 L382.5,221.7969 A2.5,2.5 0 0 1 385,224.2969 L385,859 A2.5,2.5 0 0 1 382.5,861.5 L110.5,861.5 A2.5,2.5 0 0 1 108,859 L108,202 A2.5,2.5 0 0 1 110.5,199.5 " fill="none" style="stroke:#000000;stroke-width:1.5;"/><line style="stroke:#000000;stroke-width:1.5;" x1="108" x2="274.7676" y1="221.7969" y2="221.7969"/><text fill="#000000" font-family="sans-serif" font-size="14" font-weight="bold" lengthAdjust="spacing" textLength="153.7676" x="112" y="214.4951">Rutinas y Ejercicios</text></g><!--cluster Retos--><g id="cluster_Retos"><path d="M154,885.5 L199.9189,885.5 A3.75,3.75 0 0 1 202.4189,888 L209.4189,907.7969 L339,907.7969 A2.5,2.5 0 0 1 341.5,910.2969 L341.5,1169 A2.5,2.5 0 0 1 339,1171.5 L154,1171.5 A2.5,2.5 0 0 1 151.5,1169 L151.5,888 A2.5,2.5 0 0 1 154,885.5 " fill="none" style="stroke:#000000;stroke-width:1.5;"/><line style="stroke:#000000;stroke-width:1.5;" x1="151.5" x2="209.4189" y1="907.7969" y2="907.7969"/><text fill="#000000" font-family="sans-serif" font-size="14" font-weight="bold" lengthAdjust="spacing" textLength="44.9189" x="155.5" y="900.4951">Retos</text></g><!--cluster Clasificaci?n--><g id="cluster_Clasificación"><path d="M114,1195.5 L213.9707,1195.5 A3.75,3.75 0 0 1 216.4707,1198 L223.4707,1217.7969 L379,1217.7969 A2.5,2.5 0 0 1 381.5,1220.2969 L381.5,1377 A2.5,2.5 0 0 1 379,1379.5 L114,1379.5 A2.5,2.5 0 0 1 111.5,1377 L111.5,1198 A2.5,2.5 0 0 1 114,1195.5 " fill="none" style="stroke:#000000;stroke-width:1.5;"/><line style="stroke:#000000;stroke-width:1.5;" x1="111.5" x2="223.4707" y1="1217.7969" y2="1217.7969"/><text fill="#000000" font-family="sans-serif" font-size="14" font-weight="bold" lengthAdjust="spacing" textLength="98.9707" x="115.5" y="1210.4951">Clasificación</text></g><!--cluster Perfil--><g id="cluster_Perfil"><path d="M149,1403.5 L192.3486,1403.5 A3.75,3.75 0 0 1 194.8486,1406 L201.8486,1425.7969 L344,1425.7969 A2.5,2.5 0 0 1 346.5,1428.2969 L346.5,1967 A2.5,2.5 0 0 1 344,1969.5 L149,1969.5 A2.5,2.5 0 0 1 146.5,1967 L146.5,1406 A2.5,2.5 0 0 1 149,1403.5 " fill="none" style="stroke:#000000;stroke-width:1.5;"/><line style="stroke:#000000;stroke-width:1.5;" x1="146.5" x2="201.8486" y1="1425.7969" y2="1425.7969"/><text fill="#000000" font-family="sans-serif" font-size="14" font-weight="bold" lengthAdjust="spacing" textLength="42.3486" x="150.5" y="1418.4951">Perfil</text></g><g id="elem_CambiarARutinasYEjercicios"><ellipse cx="246.4772" cy="261.3954" fill="#F1F1F1" rx="122.4772" ry="26.8954" style="stroke:#181818;stroke-width:0.5;"/><text fill="#000000" font-family="sans-serif" font-size="14" lengthAdjust="spacing" textLength="212.6318" x="140.1612" y="264.2421">Cambiar a Rutinas y Ejercicios</text></g><g id="elem_MostrarRutina"><ellipse cx="246.4885" cy="340.6977" fill="#F1F1F1" rx="73.9885" ry="17.1977" style="stroke:#181818;stroke-width:0.5;"/><text fill="#000000" font-family="sans-serif" font-size="14" lengthAdjust="spacing" textLength="103.4004" x="191.7883" y="344.4453">Mostrar Rutina</text></g><g id="elem_EditarRutina"><ellipse cx="246.4488" cy="409.2898" fill="#F1F1F1" rx="69.4488" ry="16.2898" style="stroke:#181818;stroke-width:0.5;"/><text fill="#000000" font-family="sans-serif" font-size="14" lengthAdjust="spacing" textLength="91.3281" x="197.7847" y="413.0373">Editar Rutina</text></g><g id="elem_CrearRutina"><ellipse cx="246.3702" cy="477.574" fill="#F1F1F1" rx="68.3702" ry="16.074" style="stroke:#181818;stroke-width:0.5;"/><text fill="#000000" font-family="sans-serif" font-size="14" lengthAdjust="spacing" textLength="88.3613" x="199.1896" y="481.3216">Crear Rutina</text></g><g id="elem_BuscarRutina"><ellipse cx="246.3108" cy="545.2622" fill="#F1F1F1" rx="71.8108" ry="16.7622" style="stroke:#181818;stroke-width:0.5;"/><text fill="#000000" font-family="sans-serif" font-size="14" lengthAdjust="spacing" textLength="97.6855" x="194.468" y="549.0097">Buscar Rutina</text></g><g id="elem_MostrarEjercicio"><ellipse cx="246.2968" cy="616.2594" fill="#F1F1F1" rx="79.2968" ry="18.2594" style="stroke:#181818;stroke-width:0.5;"/><text fill="#000000" font-family="sans-serif" font-size="14" lengthAdjust="spacing" textLength="116.8125" x="185.9549" y="619.718">Mostrar Ejercicio</text></g><g id="elem_EditarEjercicio"><ellipse cx="246.506" cy="687.3012" fill="#F1F1F1" rx="74.506" ry="17.3012" style="stroke:#181818;stroke-width:0.5;"/><text fill="#000000" font-family="sans-serif" font-size="14" lengthAdjust="spacing" textLength="104.7402" x="191.1358" y="691.0488">Editar Ejercicio</text></g><g id="elem_CrearEjercicio"><ellipse cx="246.3636" cy="757.5727" fill="#F1F1F1" rx="73.3636" ry="17.0727" style="stroke:#181818;stroke-width:0.5;"/><text fill="#000000" font-family="sans-serif" font-size="14" lengthAdjust="spacing" textLength="101.7734" x="192.4768" y="761.3203">Crear Ejercicio</text></g><g id="elem_BuscarEjercicio"><ellipse cx="246.495" cy="827.299" fill="#F1F1F1" rx="76.995" ry="17.799" style="stroke:#181818;stroke-width:0.5;"/><text fill="#000000" font-family="sans-serif" font-size="14" lengthAdjust="spacing" textLength="111.0977" x="188.0739" y="831.0135">Buscar Ejercicio</text></g><g id="elem_CambiarARetos"><ellipse cx="246.5763" cy="938.7153" fill="#F1F1F1" rx="79.0763" ry="18.2153" style="stroke:#181818;stroke-width:0.5;"/><text fill="#000000" font-family="sans-serif" font-size="14" lengthAdjust="spacing" textLength="116.2725" x="186.4184" y="942.1984">Cambiar a Retos</text></g><g id="elem_MostrarReto"><ellipse cx="246.5967" cy="1007.7193" fill="#F1F1F1" rx="69.0967" ry="16.2193" style="stroke:#181818;stroke-width:0.5;"/><text fill="#000000" font-family="sans-serif" font-size="14" lengthAdjust="spacing" textLength="90.3643" x="198.4145" y="1011.4669">Mostrar Reto</text></g><g id="elem_CrearReto"><ellipse cx="246.3334" cy="1073.6667" fill="#F1F1F1" rx="63.8334" ry="15.1667" style="stroke:#181818;stroke-width:0.5;"/><text fill="#000000" font-family="sans-serif" font-size="14" lengthAdjust="spacing" textLength="75.3252" x="205.6708" y="1077.4142">Crear Reto</text></g><g id="elem_EditarReto"><ellipse cx="246.3348" cy="1139.367" fill="#F1F1F1" rx="64.8348" ry="15.367" style="stroke:#181818;stroke-width:0.5;"/><text fill="#000000" font-family="sans-serif" font-size="14" lengthAdjust="spacing" textLength="78.292" x="204.1888" y="1143.1145">Editar Reto</text></g><g id="elem_CambiarAClasificacion"><ellipse cx="246.5332" cy="1253.4066" fill="#F1F1F1" rx="100.0332" ry="22.4066" style="stroke:#181818;stroke-width:0.5;"/><text fill="#000000" font-family="sans-serif" font-size="14" lengthAdjust="spacing" textLength="164.1309" x="164.4678" y="1256.2533">Cambiar a Clasificación</text></g><g id="elem_VerAlumnosDentroDeClase"><ellipse cx="246.7091" cy="1337.7418" fill="#F1F1F1" rx="119.2091" ry="26.2418" style="stroke:#181818;stroke-width:0.5;"/><text fill="#000000" font-family="sans-serif" font-size="14" lengthAdjust="spacing" textLength="205.666" x="143.8761" y="1340.5885">Ver alumnos dentro  de clase</text></g><g id="elem_CambiarAPerfil"><ellipse cx="246.3945" cy="1456.3789" fill="#F1F1F1" rx="77.3945" ry="17.8789" style="stroke:#181818;stroke-width:0.5;"/><text fill="#000000" font-family="sans-serif" font-size="14" lengthAdjust="spacing" textLength="112.1025" x="187.64" y="1460.049">Cambiar a Perfil</text></g><g id="elem_MostrarQR"><ellipse cx="246.4794" cy="1525.3959" fill="#F1F1F1" rx="64.9794" ry="15.3959" style="stroke:#181818;stroke-width:0.5;"/><text fill="#000000" font-family="sans-serif" font-size="14" lengthAdjust="spacing" textLength="78.7158" x="204.1215" y="1529.1434">Mostrar QR</text></g><g id="elem_CrearClase"><ellipse cx="246.2936" cy="1591.5587" fill="#F1F1F1" rx="65.7936" ry="15.5587" style="stroke:#181818;stroke-width:0.5;"/><text fill="#000000" font-family="sans-serif" font-size="14" lengthAdjust="spacing" textLength="81.0811" x="202.753" y="1595.3063">Crear Clase</text></g><g id="elem_VerMisClases"><ellipse cx="246.5813" cy="1659.5163" fill="#F1F1F1" rx="73.0813" ry="17.0163" style="stroke:#181818;stroke-width:0.5;"/><text fill="#000000" font-family="sans-serif" font-size="14" lengthAdjust="spacing" textLength="101.0352" x="193.0637" y="1663.2638">Ver mis clases</text></g><g id="elem_VerAlumnos"><ellipse cx="246.279" cy="1727.5558" fill="#F1F1F1" rx="68.279" ry="16.0558" style="stroke:#181818;stroke-width:0.5;"/><text fill="#000000" font-family="sans-serif" font-size="14" lengthAdjust="spacing" textLength="88.1084" x="199.2248" y="1731.3034">Ver alumnos</text></g><g id="elem_VerRetosAlumnos"><ellipse cx="246.614" cy="1797.7228" fill="#F1F1F1" rx="84.114" ry="19.2228" style="stroke:#181818;stroke-width:0.5;"/><text fill="#000000" font-family="sans-serif" font-size="14" lengthAdjust="spacing" textLength="128.2764" x="182.2533" y="1800.6461">Ver retos alumnos</text></g><g id="elem_EvaluarRetos"><ellipse cx="246.5544" cy="1868.4109" fill="#F1F1F1" rx="70.0544" ry="16.4109" style="stroke:#181818;stroke-width:0.5;"/><text fill="#000000" font-family="sans-serif" font-size="14" lengthAdjust="spacing" textLength="92.9756" x="197.0666" y="1872.1584">Evaluar retos</text></g><g id="elem_CerrarSesion"><ellipse cx="246.7333" cy="1936.5467" fill="#F1F1F1" rx="70.7333" ry="16.5467" style="stroke:#181818;stroke-width:0.5;"/><text fill="#000000" font-family="sans-serif" font-size="14" lengthAdjust="spacing" textLength="94.8076" x="196.3295" y="1940.2942">Cerrar Sesión</text></g><!--entity Profesor--><g id="elem_Profesor"><ellipse cx="34.9604" cy="909" fill="#F1F1F1" rx="8" ry="8" style="stroke:#181818;stroke-width:0.5;"/><path d="M34.9604,917 L34.9604,944 M21.9604,925 L47.9604,925 M34.9604,944 L21.9604,959 M34.9604,944 L47.9604,959 " fill="none" style="stroke:#181818;stroke-width:0.5;"/><text fill="#000000" font-family="sans-serif" font-size="14" lengthAdjust="spacing" textLength="57.9209" x="6" y="973.4951">Profesor</text></g><g id="elem_IniciarSesion"><ellipse cx="246.7059" cy="22.4412" fill="#F1F1F1" rx="70.2059" ry="16.4412" style="stroke:#181818;stroke-width:0.5;"/><text fill="#000000" font-family="sans-serif" font-size="14" lengthAdjust="spacing" textLength="93.3857" x="197.013" y="26.1887">Iniciar Sesión</text></g><g id="elem_IngresarAlSistema"><ellipse cx="246.3192" cy="94.3638" fill="#F1F1F1" rx="87.3192" ry="19.8638" style="stroke:#181818;stroke-width:0.5;"/><text fill="#000000" font-family="sans-serif" font-size="14" lengthAdjust="spacing" textLength="135.6455" x="178.4964" y="97.2105">Ingresar al Sistema</text></g><g id="elem_CambiarMenu"><ellipse cx="246.4474" cy="166.5895" fill="#F1F1F1" rx="73.4474" ry="17.0895" style="stroke:#181818;stroke-width:0.5;"/><text fill="#000000" font-family="sans-serif" font-size="14" lengthAdjust="spacing" textLength="101.9922" x="192.4513" y="170.337">Cambiar Menu</text></g><!--link Profesor to IngresarAlSistema--><g id="link_Profesor_IngresarAlSistema"><path d="M36.46,900.44 C38.63,748.52 49.98,190.83 100,131.5 C115.12,113.57 131.746,105.0291 154.536,99.7291 " fill="none" id="Profesor-to-IngresarAlSistema" style="stroke:#181818;stroke-width:1;"/><polygon fill="#181818" points="160.38,98.37,150.7079,96.5126,155.51,99.5026,152.52,104.3047,160.38,98.37" style="stroke:#181818;stroke-width:1;"/></g><!--link Profesor to IniciarSesion--><g id="link_Profesor_IniciarSesion"><path d="M36.15,900.48 C37.14,739.76 44.54,121.44 100,56.5 C118.7,34.6 142.5873,26.0516 170.3873,22.5416 " fill="none" id="Profesor-to-IniciarSesion" style="stroke:#181818;stroke-width:1;"/><polygon fill="#181818" points="176.34,21.79,166.9098,18.9489,171.3794,22.4163,167.9119,26.8859,176.34,21.79" style="stroke:#181818;stroke-width:1;"/></g><!--link Profesor to CambiarMenu--><g id="link_Profesor_CambiarMenu"><path d="M37.02,900.17 C41.09,758.9 58.07,272.73 100,218.5 C119.11,193.78 145.1189,182.1618 174.1589,175.3418 " fill="none" id="Profesor-to-CambiarMenu" style="stroke:#181818;stroke-width:1;"/><polygon fill="#181818" points="180,173.97,170.3239,172.1336,175.1324,175.1131,172.1529,179.9217,180,173.97" style="stroke:#181818;stroke-width:1;"/></g><!--link Profesor to CerrarSesion--><g id="link_Profesor_CerrarSesion"><path d="M35.9,976.57 C35.8,1146.53 39.22,1830.89 100,1902.5 C118.55,1924.35 142.2381,1932.9218 169.9481,1936.4518 " fill="none" id="Profesor-to-CerrarSesion" style="stroke:#181818;stroke-width:1;"/><polygon fill="#181818" points="175.9,1937.21,167.4776,1932.1047,170.9401,1936.5782,166.4667,1940.0406,175.9,1937.21" style="stroke:#181818;stroke-width:1;"/></g><!--link Profesor to CambiarARutinasYEjercicios--><g id="link_Profesor_CambiarARutinasYEjercicios"><path d="M37.42,900.34 C42.59,770.53 62.08,351.54 100,305.5 C111.16,291.95 120.7774,284.7289 137.1274,278.1189 " fill="none" id="Profesor-to-CambiarARutinasYEjercicios" style="stroke:#181818;stroke-width:1;"/><polygon fill="#181818" points="142.69,275.87,132.8468,275.5349,138.0545,277.744,135.8453,282.9517,142.69,275.87" style="stroke:#181818;stroke-width:1;"/></g><!--link Profesor to MostrarRutina--><g id="link_Profesor_MostrarRutina"><path d="M37.83,900.35 C43.94,780.14 65.22,414.84 100,375.5 C118.07,355.06 139.8634,346.4354 166.2834,342.2654 " fill="none" id="Profesor-to-MostrarRutina" style="stroke:#181818;stroke-width:1;"/><polygon fill="#181818" points="172.21,341.33,162.6964,338.7821,167.2711,342.1095,163.9437,346.6842,172.21,341.33" style="stroke:#181818;stroke-width:1;"/></g><!--link Profesor to EditarRutina--><g id="link_Profesor_EditarRutina"><path d="M35.53,900.25 C35.08,796.03 39.5,510.44 100,443.5 C119.31,422.14 143.2801,413.6836 170.9701,410.0836 " fill="none" id="Profesor-to-EditarRutina" style="stroke:#181818;stroke-width:1;"/><polygon fill="#181818" points="176.92,409.31,167.4794,406.5037,171.9617,409.9546,168.5108,414.4369,176.92,409.31" style="stroke:#181818;stroke-width:1;"/></g><!--link Profesor to CrearRutina--><g id="link_Profesor_CrearRutina"><path d="M36.38,900.34 C38.13,806.27 47.74,566.81 100,510.5 C119.73,489.24 144.0934,480.9805 171.9534,477.6105 " fill="none" id="Profesor-to-CrearRutina" style="stroke:#181818;stroke-width:1;"/><polygon fill="#181818" points="177.91,476.89,168.4948,473.9997,172.9462,477.4904,169.4555,481.9418,177.91,476.89" style="stroke:#181818;stroke-width:1;"/></g><!--link Profesor to MostrarEjercicio--><g id="link_Profesor_MostrarEjercicio"><path d="M39.6,900.36 C46.93,830.84 65.85,687.42 100,652.5 C117.83,634.27 137.4421,625.8742 162.1321,621.0342 " fill="none" id="Profesor-to-MostrarEjercicio" style="stroke:#181818;stroke-width:1;"/><polygon fill="#181818" points="168.02,619.88,158.4186,617.686,163.1134,620.8418,159.9576,625.5366,168.02,619.88" style="stroke:#181818;stroke-width:1;"/></g><!--link Profesor to EditarEjercicio--><g id="link_Profesor_EditarEjercicio"><path d="M36.32,900.22 C38.88,851.83 50.79,769.22 100,722.5 C119.5,703.99 141.1077,695.742 166.9677,691.272 " fill="none" id="Profesor-to-EditarEjercicio" style="stroke:#181818;stroke-width:1;"/><polygon fill="#181818" points="172.88,690.25,163.3302,687.8414,167.9531,691.1016,164.6928,695.7245,172.88,690.25" style="stroke:#181818;stroke-width:1;"/></g><!--link Profesor to CrearEjercicio--><g id="link_Profesor_CrearEjercicio"><path d="M42.63,900.48 C50.49,866.88 66.97,819.04 100,791.5 C120.72,774.23 142.706,766.392 168.536,761.972 " fill="none" id="Profesor-to-CrearEjercicio" style="stroke:#181818;stroke-width:1;"/><polygon fill="#181818" points="174.45,760.96,164.9043,758.5353,169.5216,761.8033,166.2536,766.4207,174.45,760.96" style="stroke:#181818;stroke-width:1;"/></g><!--link Profesor to BuscarEjercicio--><g id="link_Profesor_BuscarEjercicio"><path d="M64.03,923.6 C75.22,917.65 88.22,910.75 100,904.5 C139.39,883.61 179.4957,862.3943 208.9657,846.8143 " fill="none" id="Profesor-to-BuscarEjercicio" style="stroke:#181818;stroke-width:1;"/><polygon fill="#181818" points="214.27,844.01,204.444,844.6802,209.8497,846.3469,208.183,851.7526,214.27,844.01" style="stroke:#181818;stroke-width:1;"/></g><!--link Profesor to BuscarRutina--><g id="link_Profesor_BuscarRutina"><path d="M37.68,900.27 C42.1,817.66 56.86,626.27 100,580.5 C119.07,560.27 141.6801,551.7545 168.4601,547.6245 " fill="none" id="Profesor-to-BuscarRutina" style="stroke:#181818;stroke-width:1;"/><polygon fill="#181818" points="174.39,546.71,164.8855,544.1285,169.4484,547.4721,166.1048,552.035,174.39,546.71" style="stroke:#181818;stroke-width:1;"/></g><!--link Profesor to CambiarARetos--><g id="link_Profesor_CambiarARetos"><path d="M64.25,938.5 C90.61,938.5 125.18,938.5 161.26,938.5 " fill="none" id="Profesor-to-CambiarARetos" style="stroke:#181818;stroke-width:1;"/><polygon fill="#181818" points="167.26,938.5,158.26,934.5,162.26,938.5,158.26,942.5,167.26,938.5" style="stroke:#181818;stroke-width:1;"/></g><!--link Profesor to CrearReto--><g id="link_Profesor_CrearReto"><path d="M51.02,976.63 C61.55,998.52 77.74,1024.72 100,1040.5 C124.3,1057.73 150.1926,1065.2759 177.8826,1069.3059 " fill="none" id="Profesor-to-CrearReto" style="stroke:#181818;stroke-width:1;"/><polygon fill="#181818" points="183.82,1070.17,175.4899,1064.9155,178.8721,1069.4499,174.3377,1072.8321,183.82,1070.17" style="stroke:#181818;stroke-width:1;"/></g><!--link Profesor to EditarReto--><g id="link_Profesor_EditarReto"><path d="M40.33,976.85 C46.72,1015.06 62.33,1072.64 100,1105.5 C122.39,1125.02 147.9056,1133.0654 175.8556,1136.8954 " fill="none" id="Profesor-to-EditarReto" style="stroke:#181818;stroke-width:1;"/><polygon fill="#181818" points="181.8,1137.71,173.4264,1132.5252,176.8463,1137.0312,172.3403,1140.4511,181.8,1137.71" style="stroke:#181818;stroke-width:1;"/></g><!--link Profesor to CambiarAClasificacion--><g id="link_Profesor_CambiarAClasificacion"><path d="M37.63,976.76 C41.58,1026.5 54.96,1113.8 100,1171.5 C123.02,1200.98 154.2626,1219.2223 185.0826,1232.3923 " fill="none" id="Profesor-to-CambiarAClasificacion" style="stroke:#181818;stroke-width:1;"/><polygon fill="#181818" points="190.6,1234.75,183.8957,1227.5352,186.0022,1232.7853,180.7522,1234.8917,190.6,1234.75" style="stroke:#181818;stroke-width:1;"/></g><!--link Profesor to VerAlumnosDentroDeClase--><g id="link_Profesor_VerAlumnosDentroDeClase"><path d="M37.94,976.54 C42.87,1058.27 58.55,1246.97 100,1293.5 C112.29,1307.29 123.1171,1314.7098 140.5371,1321.2898 " fill="none" id="Profesor-to-VerAlumnosDentroDeClase" style="stroke:#181818;stroke-width:1;"/><polygon fill="#181818" points="146.15,1323.41,139.144,1316.4878,141.4726,1321.6432,136.3172,1323.9717,146.15,1323.41" style="stroke:#181818;stroke-width:1;"/></g><!--link Profesor to CambiarAPerfil--><g id="link_Profesor_CambiarAPerfil"><path d="M37.18,976.66 C40.79,1071.48 54.36,1314.77 100,1379.5 C122.64,1411.62 157.283,1429.4504 189.733,1440.9204 " fill="none" id="Profesor-to-CambiarAPerfil" style="stroke:#181818;stroke-width:1;"/><polygon fill="#181818" points="195.39,1442.92,188.2375,1436.1493,190.6758,1441.2537,185.5714,1443.692,195.39,1442.92" style="stroke:#181818;stroke-width:1;"/></g><!--link Profesor to MostrarQR--><g id="link_Profesor_MostrarQR"><path d="M37.91,976.81 C44.19,1095.77 65.75,1453.09 100,1491.5 C120.2,1514.15 146.3653,1522.5505 175.2953,1525.7005 " fill="none" id="Profesor-to-MostrarQR" style="stroke:#181818;stroke-width:1;"/><polygon fill="#181818" points="181.26,1526.35,172.7459,1521.3993,176.2894,1525.8088,171.8799,1529.3523,181.26,1526.35" style="stroke:#181818;stroke-width:1;"/></g><!--link Profesor to CrearClase--><g id="link_Profesor_CrearClase"><path d="M37.39,976.87 C42.41,1105.35 61.33,1514.88 100,1558.5 C119.93,1580.98 145.7022,1589.2496 174.4622,1592.2396 " fill="none" id="Profesor-to-CrearClase" style="stroke:#181818;stroke-width:1;"/><polygon fill="#181818" points="180.43,1592.86,171.8919,1587.9508,175.4568,1592.343,171.0646,1595.9079,180.43,1592.86" style="stroke:#181818;stroke-width:1;"/></g><!--link Profesor to VerMisClases--><g id="link_Profesor_VerMisClases"><path d="M37,976.57 C40.96,1113.47 57.36,1575.28 100,1624.5 C118.2,1645.51 140.6759,1654.1832 167.5759,1658.2032 " fill="none" id="Profesor-to-VerMisClases" style="stroke:#181818;stroke-width:1;"/><polygon fill="#181818" points="173.51,1659.09,165.2001,1653.8037,168.5649,1658.351,164.0176,1661.7159,173.51,1659.09" style="stroke:#181818;stroke-width:1;"/></g><!--link Profesor to VerAlumnos--><g id="link_Profesor_VerAlumnos"><path d="M36.65,976.84 C39.49,1122.87 52.79,1638.89 100,1693.5 C119.17,1715.67 143.8126,1724.186 172.0126,1727.566 " fill="none" id="Profesor-to-VerAlumnos" style="stroke:#181818;stroke-width:1;"/><polygon fill="#181818" points="177.97,1728.28,169.51,1723.2374,173.0055,1727.685,168.5579,1731.1805,177.97,1728.28" style="stroke:#181818;stroke-width:1;"/></g><!--link Profesor to VerRetosAlumnos--><g id="link_Profesor_VerRetosAlumnos"><path d="M36.4,976.74 C38.36,1130.71 49.04,1699.97 100,1760.5 C115.78,1779.24 133.7236,1787.951 157.5336,1793.061 " fill="none" id="Profesor-to-VerRetosAlumnos" style="stroke:#181818;stroke-width:1;"/><polygon fill="#181818" points="163.4,1794.32,155.4397,1788.5205,158.5113,1793.2708,153.761,1796.3424,163.4,1794.32" style="stroke:#181818;stroke-width:1;"/></g><!--link Profesor to EvaluarRetos--><g id="link_Profesor_EvaluarRetos"><path d="M36.12,976.52 C36.98,1138.7 43.91,1767.32 100,1833.5 C118.65,1855.5 142.5327,1864.2066 170.3427,1867.9166 " fill="none" id="Profesor-to-EvaluarRetos" style="stroke:#181818;stroke-width:1;"/><polygon fill="#181818" points="176.29,1868.71,167.898,1863.555,171.3339,1868.0488,166.8401,1871.4848,176.29,1868.71" style="stroke:#181818;stroke-width:1;"/></g><!--SRC=[VPJ1JiCm38RlVOfezxq2qkXsu31fR18Inv1v8z0rA4cH4EAfU0HUZ2HErxXrnmNrzsVFpf-uWPCNtWYhpwzU7BK5vRLfAwcyiM9dpGcSiLNr8TMxF8DOx3klM-d4bzYyWLLQQUCMuhiIuQzpeAGBK2qlBrfQ8GMF1o4Zgmmy3s5QQckSjw4KSYarIwXGUdFKdiAeS6njWQ99uCZxpYcAeiAnVR_NUSgMhoBRDKr1SIO3UwS9IPlXymGq0SKXuwUq6VnjNp5U6XcL6Uz2Y3WNlbalUWwTc52zkpsMlOrSsNlTIATFMacb_txR6qECmMAQ8XHU0yb_Wf3RT9VME764rbiZmd-XGWQa6W5OONoTmck8rO3qk0DxqisDtdgWw0ab_eWVz-K1F-wvuwsl7QPlR6eosaKxdCNrmsorIwoRFOVHs5FEniinfjEDOLCsdm6LEGsjHeMvP3NOU007S8E9IOfAy2wSUdM57zfmqqTqrZ9Ue6SBBdhHY8Ds7YuouwYlcgnM4_Usq7QbS_6xglfbAfRBEwRAA5psH49bJHeefsPpk6LBEBfPIOZiKLgyM9jSjM71C0LdWgDTHcBZjSK4sJR9dc8cY6k46pdgV2cw90WojmFuGlbbSwSNdlAqLwmr_i7XdSwqCj792wIp5-_j7m00]--></g></svg>