<svg xmlns="http://www.w3.org/2000/svg" xmlns:xlink="http://www.w3.org/1999/xlink" contentStyleType="text/css" height="1281px" preserveAspectRatio="none" style="width:380px;height:1281px;background:#FFFFFF;" version="1.1" viewBox="0 0 380 1281" width="380px" zoomAndPan="magnify"><defs/><g><!--cluster Gesti?n de Usuarios--><g id="cluster_Gesti&#243;n de Usuarios"><path d="M139,6 L298.4297,6 A3.75,3.75 0 0 1 300.9297,8.5 L307.9297,28.2969 L329,28.2969 A2.5,2.5 0 0 1 331.5,30.7969 L331.5,231.5 A2.5,2.5 0 0 1 329,234 L139,234 A2.5,2.5 0 0 1 136.5,231.5 L136.5,8.5 A2.5,2.5 0 0 1 139,6 " fill="none" style="stroke:#000000;stroke-width:1.5;"/><line style="stroke:#000000;stroke-width:1.5;" x1="136.5" x2="307.9297" y1="28.2969" y2="28.2969"/><text fill="#000000" font-family="sans-serif" font-size="14" font-weight="bold" lengthAdjust="spacing" textLength="158.4297" x="140.5" y="20.9951">Gesti&#243;n de Usuarios</text></g><!--cluster Gesti?n de Rutinas--><g id="cluster_Gesti&#243;n de Rutinas"><path d="M130,258 L280.6455,258 A3.75,3.75 0 0 1 283.1455,260.5 L290.1455,280.2969 L338,280.2969 A2.5,2.5 0 0 1 340.5,282.7969 L340.5,486.5 A2.5,2.5 0 0 1 338,489 L130,489 A2.5,2.5 0 0 1 127.5,486.5 L127.5,260.5 A2.5,2.5 0 0 1 130,258 " fill="none" style="stroke:#000000;stroke-width:1.5;"/><line style="stroke:#000000;stroke-width:1.5;" x1="127.5" x2="290.1455" y1="280.2969" y2="280.2969"/><text fill="#000000" font-family="sans-serif" font-size="14" font-weight="bold" lengthAdjust="spacing" textLength="149.6455" x="131.5" y="272.9951">Gesti&#243;n de Rutinas</text></g><!--cluster Gesti?n de Retos--><g id="cluster_Gesti&#243;n de Retos"><path d="M147.5,513 L283.0791,513 A3.75,3.75 0 0 1 285.5791,515.5 L292.5791,535.2969 L320.5,535.2969 A2.5,2.5 0 0 1 323,537.7969 L323,729.5 A2.5,2.5 0 0 1 320.5,732 L147.5,732 A2.5,2.5 0 0 1 145,729.5 L145,515.5 A2.5,2.5 0 0 1 147.5,513 " fill="none" style="stroke:#000000;stroke-width:1.5;"/><line style="stroke:#000000;stroke-width:1.5;" x1="145" x2="292.5791" y1="535.2969" y2="535.2969"/><text fill="#000000" font-family="sans-serif" font-size="14" font-weight="bold" lengthAdjust="spacing" textLength="134.5791" x="149" y="527.9951">Gesti&#243;n de Retos</text></g><!--cluster Configuraci?n del Sistema--><g id="cluster_Configuraci&#243;n del Sistema"><path d="M125,756 L333.2725,756 A3.75,3.75 0 0 1 335.7725,758.5 L342.7725,778.2969 L343,778.2969 A2.5,2.5 0 0 1 345.5,780.7969 L345.5,994.5 A2.5,2.5 0 0 1 343,997 L125,997 A2.5,2.5 0 0 1 122.5,994.5 L122.5,758.5 A2.5,2.5 0 0 1 125,756 " fill="none" style="stroke:#000000;stroke-width:1.5;"/><line style="stroke:#000000;stroke-width:1.5;" x1="122.5" x2="342.7725" y1="778.2969" y2="778.2969"/><text fill="#000000" font-family="sans-serif" font-size="14" font-weight="bold" lengthAdjust="spacing" textLength="207.2725" x="126.5" y="770.9951">Configuraci&#243;n del Sistema</text></g><!--cluster Reportes--><g id="cluster_Reportes"><path d="M97.5,1021 L169.8398,1021 A3.75,3.75 0 0 1 172.3398,1023.5 L179.3398,1043.2969 L370.5,1043.2969 A2.5,2.5 0 0 1 373,1045.7969 L373,1271.5 A2.5,2.5 0 0 1 370.5,1274 L97.5,1274 A2.5,2.5 0 0 1 95,1271.5 L95,1023.5 A2.5,2.5 0 0 1 97.5,1021 " fill="none" style="stroke:#000000;stroke-width:1.5;"/><line style="stroke:#000000;stroke-width:1.5;" x1="95" x2="179.3398" y1="1043.2969" y2="1043.2969"/><text fill="#000000" font-family="sans-serif" font-size="14" font-weight="bold" lengthAdjust="spacing" textLength="71.3398" x="99" y="1035.9951">Reportes</text></g><g id="elem_CrearUsuario"><ellipse cx="234.2282" cy="58.1456" fill="#F1F1F1" rx="71.2282" ry="16.6456" style="stroke:#181818;stroke-width:0.5;"/><text fill="#000000" font-family="sans-serif" font-size="14" lengthAdjust="spacing" textLength="96.1338" x="183.1613" y="61.8932">Crear Usuario</text></g><g id="elem_ModificarUsuario"><ellipse cx="233.9144" cy="128.1829" fill="#F1F1F1" rx="81.4144" ry="18.6829" style="stroke:#181818;stroke-width:0.5;"/><text fill="#000000" font-family="sans-serif" font-size="14" lengthAdjust="spacing" textLength="121.9258" x="171.8057" y="131.4062">Modificar Usuario</text></g><g id="elem_EliminarUsuario"><ellipse cx="234.065" cy="200.113" fill="#F1F1F1" rx="78.565" ry="18.113" style="stroke:#181818;stroke-width:0.5;"/><text fill="#000000" font-family="sans-serif" font-size="14" lengthAdjust="spacing" textLength="115.0146" x="174.3338" y="203.653">Eliminar Usuario</text></g><g id="elem_CrearRutina"><ellipse cx="233.8702" cy="309.074" fill="#F1F1F1" rx="68.3702" ry="16.074" style="stroke:#181818;stroke-width:0.5;"/><text fill="#000000" font-family="sans-serif" font-size="14" lengthAdjust="spacing" textLength="88.3613" x="186.6896" y="312.8216">Crear Rutina</text></g><g id="elem_ModificarRutina"><ellipse cx="234.2169" cy="378.0434" fill="#F1F1F1" rx="78.2169" ry="18.0434" style="stroke:#181818;stroke-width:0.5;"/><text fill="#000000" font-family="sans-serif" font-size="14" lengthAdjust="spacing" textLength="114.1533" x="174.7761" y="381.6221">Modificar Rutina</text></g><g id="elem_BateriaEjercicios"><ellipse cx="234.0783" cy="452.0157" fill="#F1F1F1" rx="90.5783" ry="20.5157" style="stroke:#181818;stroke-width:0.5;"/><text fill="#000000" font-family="sans-serif" font-size="14" lengthAdjust="spacing" textLength="143.0488" x="162.5539" y="454.8623">Bater&#237;a de Ejercicios</text></g><g id="elem_CrearReto"><ellipse cx="233.8334" cy="563.1667" fill="#F1F1F1" rx="63.8334" ry="15.1667" style="stroke:#181818;stroke-width:0.5;"/><text fill="#000000" font-family="sans-serif" font-size="14" lengthAdjust="spacing" textLength="75.3252" x="193.1708" y="566.9142">Crear Reto</text></g><g id="elem_ModificarReto"><ellipse cx="234.1126" cy="630.0225" fill="#F1F1F1" rx="73.1126" ry="17.0225" style="stroke:#181818;stroke-width:0.5;"/><text fill="#000000" font-family="sans-serif" font-size="14" lengthAdjust="spacing" textLength="101.1172" x="180.554" y="633.7701">Modificar Reto</text></g><g id="elem_EliminarReto"><ellipse cx="234.0098" cy="699.002" fill="#F1F1F1" rx="70.5098" ry="16.502" style="stroke:#181818;stroke-width:0.5;"/><text fill="#000000" font-family="sans-serif" font-size="14" lengthAdjust="spacing" textLength="94.2061" x="183.9067" y="702.7495">Eliminar Reto</text></g><g id="elem_ConfigurarSistema"><ellipse cx="233.9155" cy="810.7831" fill="#F1F1F1" rx="86.9155" ry="19.7831" style="stroke:#181818;stroke-width:0.5;"/><text fill="#000000" font-family="sans-serif" font-size="14" lengthAdjust="spacing" textLength="134.7227" x="166.5542" y="813.6298">Configurar Sistema</text></g><g id="elem_AdministrarPermisos"><ellipse cx="233.9774" cy="887.0955" fill="#F1F1F1" rx="93.4774" ry="21.0955" style="stroke:#181818;stroke-width:0.5;"/><text fill="#000000" font-family="sans-serif" font-size="14" lengthAdjust="spacing" textLength="149.5703" x="159.1923" y="889.9422">Administrar Permisos</text></g><g id="elem_AjustesGenerales"><ellipse cx="233.8774" cy="962.0755" fill="#F1F1F1" rx="83.3774" ry="19.0755" style="stroke:#181818;stroke-width:0.5;"/><text fill="#000000" font-family="sans-serif" font-size="14" lengthAdjust="spacing" textLength="126.5605" x="170.1311" y="965.0807">Ajustes Generales</text></g><g id="elem_ConsultarReportes"><ellipse cx="233.8885" cy="1082.9777" fill="#F1F1F1" rx="122.8885" ry="26.9777" style="stroke:#181818;stroke-width:0.5;"/><text fill="#000000" font-family="sans-serif" font-size="14" lengthAdjust="spacing" textLength="213.5068" x="127.1351" y="1085.8244">Consultar Reportes Detallados</text></g><g id="elem_DescargarEstadisticas"><ellipse cx="233.9906" cy="1166.9981" fill="#F1F1F1" rx="97.9906" ry="21.9981" style="stroke:#181818;stroke-width:0.5;"/><text fill="#000000" font-family="sans-serif" font-size="14" lengthAdjust="spacing" textLength="159.6191" x="154.181" y="1169.8448">Descargar Estad&#237;sticas</text></g><g id="elem_CerrarSesion"><ellipse cx="234.2333" cy="1241.0467" fill="#F1F1F1" rx="70.7333" ry="16.5467" style="stroke:#181818;stroke-width:0.5;"/><text fill="#000000" font-family="sans-serif" font-size="14" lengthAdjust="spacing" textLength="94.8076" x="183.8295" y="1244.7942">Cerrar Sesi&#243;n</text></g><!--entity Admin--><g id="elem_Admin"><ellipse cx="28.4321" cy="600.5" fill="#F1F1F1" rx="8" ry="8" style="stroke:#181818;stroke-width:0.5;"/><path d="M28.4321,608.5 L28.4321,635.5 M15.4321,616.5 L41.4321,616.5 M28.4321,635.5 L15.4321,650.5 M28.4321,635.5 L41.4321,650.5 " fill="none" style="stroke:#181818;stroke-width:0.5;"/><text fill="#000000" font-family="sans-serif" font-size="14" lengthAdjust="spacing" textLength="44.8643" x="6" y="664.9951">Admin</text></g><!--link Admin to CrearUsuario--><g id="link_Admin_CrearUsuario"><path d="M31.05,591.92 C36.14,475.4 53.94,129.38 87,92 C105.88,70.65 129.3724,62.1413 156.8824,58.4813 " fill="none" id="Admin-to-CrearUsuario" style="stroke:#181818;stroke-width:1;"/><polygon fill="#181818" points="162.83,57.69,153.3811,54.9119,157.8737,58.3494,154.4361,62.842,162.83,57.69" style="stroke:#181818;stroke-width:1;"/></g><!--link Admin to ModificarUsuario--><g id="link_Admin_ModificarUsuario"><path d="M28.85,591.89 C27.97,492.2 31.06,227.02 87,164 C103.72,145.16 122.6939,136.5733 147.1839,131.7333 " fill="none" id="Admin-to-ModificarUsuario" style="stroke:#181818;stroke-width:1;"/><polygon fill="#181818" points="153.07,130.57,143.4652,128.3908,148.1649,131.5394,145.0163,136.239,153.07,130.57" style="stroke:#181818;stroke-width:1;"/></g><!--link Admin to EliminarUsuario--><g id="link_Admin_EliminarUsuario"><path d="M31.47,591.84 C36.3,511.24 51.06,326.97 87,277 C109.92,245.13 144.4672,227.3315 176.8972,215.7915 " fill="none" id="Admin-to-EliminarUsuario" style="stroke:#181818;stroke-width:1;"/><polygon fill="#181818" points="182.55,213.78,172.7298,213.0287,177.8394,215.4563,175.4118,220.5658,182.55,213.78" style="stroke:#181818;stroke-width:1;"/></g><!--link Admin to CrearRutina--><g id="link_Admin_CrearRutina"><path d="M32.06,591.84 C37.53,521.9 52.78,377.09 87,342 C107.23,321.25 131.5766,313.0661 159.3466,309.5861 " fill="none" id="Admin-to-CrearRutina" style="stroke:#181818;stroke-width:1;"/><polygon fill="#181818" points="165.3,308.84,155.8725,305.9901,160.3388,309.4617,156.8672,313.928,165.3,308.84" style="stroke:#181818;stroke-width:1;"/></g><!--link Admin to ModificarRutina--><g id="link_Admin_ModificarRutina"><path d="M34.96,591.58 C43.57,536.39 61.94,438.6 87,414 C105.63,395.71 126.0851,387.3382 151.2851,382.5582 " fill="none" id="Admin-to-ModificarRutina" style="stroke:#181818;stroke-width:1;"/><polygon fill="#181818" points="157.18,381.44,147.5922,379.1873,152.2676,382.3718,149.0831,387.0472,157.18,381.44" style="stroke:#181818;stroke-width:1;"/></g><!--link Admin to BateriaEjercicios--><g id="link_Admin_BateriaEjercicios"><path d="M45.84,591.82 C55.64,572.19 69.59,548.9 87,532 C115.61,504.21 150.3015,485.5414 181.2815,472.0114 " fill="none" id="Admin-to-BateriaEjercicios" style="stroke:#181818;stroke-width:1;"/><polygon fill="#181818" points="186.78,469.61,176.9313,469.5464,182.1979,471.6111,180.1332,476.8777,186.78,469.61" style="stroke:#181818;stroke-width:1;"/></g><!--link Admin to CrearReto--><g id="link_Admin_CrearReto"><path d="M51.26,614.39 C61.66,607.57 74.53,600 87,595 C116.14,583.32 144.4425,576.5793 172.4225,571.6093 " fill="none" id="Admin-to-CrearReto" style="stroke:#181818;stroke-width:1;"/><polygon fill="#181818" points="178.33,570.56,168.7691,568.1957,173.4071,571.4344,170.1683,576.0724,178.33,570.56" style="stroke:#181818;stroke-width:1;"/></g><!--link Admin to ModificarReto--><g id="link_Admin_ModificarReto"><path d="M51.28,630 C77.32,630 116.25,630 154.91,630 " fill="none" id="Admin-to-ModificarReto" style="stroke:#181818;stroke-width:1;"/><polygon fill="#181818" points="160.91,630,151.91,626,155.91,630,151.91,634,160.91,630" style="stroke:#181818;stroke-width:1;"/></g><!--link Admin to EliminarReto--><g id="link_Admin_EliminarReto"><path d="M51.09,644.85 C61.56,651.5 74.53,658.95 87,664 C115.39,675.49 142.602,682.6062 170.092,688.2362 " fill="none" id="Admin-to-EliminarReto" style="stroke:#181818;stroke-width:1;"/><polygon fill="#181818" points="175.97,689.44,167.9556,683.7156,171.0717,688.4368,166.3505,691.5529,175.97,689.44" style="stroke:#181818;stroke-width:1;"/></g><!--link Admin to ConfigurarSistema--><g id="link_Admin_ConfigurarSistema"><path d="M44.79,668.31 C54.52,689.06 68.73,714.05 87,732 C115.47,759.98 150.3487,778.4615 181.4287,791.6815 " fill="none" id="Admin-to-ConfigurarSistema" style="stroke:#181818;stroke-width:1;"/><polygon fill="#181818" points="186.95,794.03,180.2337,786.8264,182.3489,792.0729,177.1024,794.1881,186.95,794.03" style="stroke:#181818;stroke-width:1;"/></g><!--link Admin to AdministrarPermisos--><g id="link_Admin_AdministrarPermisos"><path d="M28.63,668.34 C29.69,716.87 39.06,799.9 87,848 C102.93,863.98 118.8297,872.0848 140.6297,877.8548 " fill="none" id="Admin-to-AdministrarPermisos" style="stroke:#181818;stroke-width:1;"/><polygon fill="#181818" points="146.43,879.39,138.7531,873.2203,141.5964,878.1107,136.7061,880.954,146.43,879.39" style="stroke:#181818;stroke-width:1;"/></g><!--link Admin to AjustesGenerales--><g id="link_Admin_AjustesGenerales"><path d="M31.95,668.16 C37.29,739.32 52.4,888.42 87,925 C103.98,942.95 122.4541,951.4286 146.4041,956.5786 " fill="none" id="Admin-to-AjustesGenerales" style="stroke:#181818;stroke-width:1;"/><polygon fill="#181818" points="152.27,957.84,144.312,952.0374,147.3817,956.7889,142.6302,959.8586,152.27,957.84" style="stroke:#181818;stroke-width:1;"/></g><!--link Admin to ConsultarReportes--><g id="link_Admin_ConsultarReportes"><path d="M31.4,668.28 C36.15,751.12 50.88,943.86 87,997 C106.51,1025.71 133.6268,1043.6743 163.0368,1057.4543 " fill="none" id="Admin-to-ConsultarReportes" style="stroke:#181818;stroke-width:1;"/><polygon fill="#181818" points="168.47,1060,162.0174,1052.5593,163.9424,1057.8786,158.6231,1059.8036,168.47,1060" style="stroke:#181818;stroke-width:1;"/></g><!--link Admin to DescargarEstadisticas--><g id="link_Admin_DescargarEstadisticas"><path d="M31.48,668.23 C37.54,778.64 57.23,1092.31 87,1127 C101.04,1143.35 115.2978,1151.6575 136.0378,1157.6775 " fill="none" id="Admin-to-DescargarEstadisticas" style="stroke:#181818;stroke-width:1;"/><polygon fill="#181818" points="141.8,1159.35,134.2718,1152.9998,136.9982,1157.9562,132.0417,1160.6827,141.8,1159.35" style="stroke:#181818;stroke-width:1;"/></g><!--link Admin to CerrarSesion--><g id="link_Admin_CerrarSesion"><path d="M30.78,668.15 C35.22,790.2 51.65,1165.49 87,1206 C105.94,1227.7 129.7847,1236.382 157.5247,1240.152 " fill="none" id="Admin-to-CerrarSesion" style="stroke:#181818;stroke-width:1;"/><polygon fill="#181818" points="163.47,1240.96,155.0906,1235.7844,158.5155,1240.2867,154.0133,1243.7116,163.47,1240.96" style="stroke:#181818;stroke-width:1;"/></g><!--SRC=[xLDBRi8m4Dtd52FsNA5I2uXLfOgg1nWvGphKaCfsLbMFnAf7u6ArdTYEdMJHNHUmo_kC7_EHT3HWMb3Sl1keMP4mt5wg2eLf5JpMPxOVdoW-i25OxKaRllrSe2PuqnqgRlKAlYgmlqwJG6r56qMe0hq2rE2H0SYrpstDHnQ5FgApdfracwgm130ulXTI7pfZPKkXUpPbxh-N8e_K4PnpFA4XTRkYUtzt8YLO-BvPdwSO4xeSdCnYhnqt2cs_5YC7PGeyKSV-Hd50l7OSSDDUZjnq2iKGKy8hQqDdd2ODKfKaBd641pHt-GMqXBEza3gp7Xet8W9UE4-ThQTXJnTIA6cmzMW4itzpeCzM6T9psNKdZMz9Bu4j6PGIwo5EL0H1Nc1BshQwiGLssc1zkzgv2kojaVCKzqmbxuTvFypxOVw_mxIvglG-ATytqgxD_OCUSeYxrigt0zRhX_pM4ZmvgKILfrFK6ZPwfjI4cMvpMSijq5ob7C_sRLHYiYk9czk74LkEFIjQJ2vnywCPUVCX_6belm00]--></g></svg>