<svg xmlns="http://www.w3.org/2000/svg" xmlns:xlink="http://www.w3.org/1999/xlink" contentStyleType="text/css" height="1464px" preserveAspectRatio="none" style="width:345px;height:1464px;background:#FFFFFF;" version="1.1" viewBox="0 0 345 1464" width="345px" zoomAndPan="magnify"><defs/><g><!--cluster Rutinas y Ejercicios--><g id="cluster_Rutinas y Ejercicios"><path d="M108.5,200 L263.2676,200 A3.75,3.75 0 0 1 265.7676,202.5 L272.7676,222.2969 L332.5,222.2969 A2.5,2.5 0 0 1 335,224.7969 L335,710.5 A2.5,2.5 0 0 1 332.5,713 L108.5,713 A2.5,2.5 0 0 1 106,710.5 L106,202.5 A2.5,2.5 0 0 1 108.5,200 " fill="none" style="stroke:#000000;stroke-width:1.5;"/><line style="stroke:#000000;stroke-width:1.5;" x1="106" x2="272.7676" y1="222.2969" y2="222.2969"/><text fill="#000000" font-family="sans-serif" font-size="14" font-weight="bold" lengthAdjust="spacing" textLength="153.7676" x="110" y="214.9951">Rutinas y Ejercicios</text></g><!--cluster Retos--><g id="cluster_Retos"><path d="M105.5,737 L151.4189,737 A3.75,3.75 0 0 1 153.9189,739.5 L160.9189,759.2969 L335.5,759.2969 A2.5,2.5 0 0 1 338,761.7969 L338,963.5 A2.5,2.5 0 0 1 335.5,966 L105.5,966 A2.5,2.5 0 0 1 103,963.5 L103,739.5 A2.5,2.5 0 0 1 105.5,737 " fill="none" style="stroke:#000000;stroke-width:1.5;"/><line style="stroke:#000000;stroke-width:1.5;" x1="103" x2="160.9189" y1="759.2969" y2="759.2969"/><text fill="#000000" font-family="sans-serif" font-size="14" font-weight="bold" lengthAdjust="spacing" textLength="44.9189" x="107" y="751.9951">Retos</text></g><!--cluster Clasificacion--><g id="cluster_Clasificacion"><path d="M128,990 L227.9707,990 A3.75,3.75 0 0 1 230.4707,992.5 L237.4707,1012.2969 L313,1012.2969 A2.5,2.5 0 0 1 315.5,1014.7969 L315.5,1074.5 A2.5,2.5 0 0 1 313,1077 L128,1077 A2.5,2.5 0 0 1 125.5,1074.5 L125.5,992.5 A2.5,2.5 0 0 1 128,990 " fill="none" style="stroke:#000000;stroke-width:1.5;"/><line style="stroke:#000000;stroke-width:1.5;" x1="125.5" x2="237.4707" y1="1012.2969" y2="1012.2969"/><text fill="#000000" font-family="sans-serif" font-size="14" font-weight="bold" lengthAdjust="spacing" textLength="98.9707" x="129.5" y="1004.9951">Clasificacion</text></g><!--cluster Perfil--><g id="cluster_Perfil"><path d="M126,1101 L169.3486,1101 A3.75,3.75 0 0 1 171.8486,1103.5 L178.8486,1123.2969 L315,1123.2969 A2.5,2.5 0 0 1 317.5,1125.7969 L317.5,1454.5 A2.5,2.5 0 0 1 315,1457 L126,1457 A2.5,2.5 0 0 1 123.5,1454.5 L123.5,1103.5 A2.5,2.5 0 0 1 126,1101 " fill="none" style="stroke:#000000;stroke-width:1.5;"/><line style="stroke:#000000;stroke-width:1.5;" x1="123.5" x2="178.8486" y1="1123.2969" y2="1123.2969"/><text fill="#000000" font-family="sans-serif" font-size="14" font-weight="bold" lengthAdjust="spacing" textLength="42.3486" x="127.5" y="1115.9951">Perfil</text></g><g id="elem_IrARutinasYEjercicios"><ellipse cx="220.2716" cy="257.0543" fill="#F1F1F1" rx="98.2716" ry="22.0543" style="stroke:#181818;stroke-width:0.5;"/><text fill="#000000" font-family="sans-serif" font-size="14" lengthAdjust="spacing" textLength="160.2412" x="140.151" y="259.901">Ver rutinas y ejercicios</text></g><g id="elem_MostrarRutina"><ellipse cx="220.2954" cy="330.7591" fill="#F1F1F1" rx="71.7954" ry="16.7591" style="stroke:#181818;stroke-width:0.5;"/><text fill="#000000" font-family="sans-serif" font-size="14" lengthAdjust="spacing" textLength="97.6445" x="168.4731" y="334.5066">Mostar Rutina</text></g><g id="elem_CrearRutina"><ellipse cx="220.3702" cy="399.074" fill="#F1F1F1" rx="68.3702" ry="16.074" style="stroke:#181818;stroke-width:0.5;"/><text fill="#000000" font-family="sans-serif" font-size="14" lengthAdjust="spacing" textLength="88.3613" x="173.1896" y="402.8216">Crear Rutina</text></g><g id="elem_EditarRutina"><ellipse cx="220.4488" cy="466.7898" fill="#F1F1F1" rx="69.4488" ry="16.2898" style="stroke:#181818;stroke-width:0.5;"/><text fill="#000000" font-family="sans-serif" font-size="14" lengthAdjust="spacing" textLength="91.3281" x="171.7847" y="470.5373">Editar Rutina</text></g><g id="elem_BuscarRutina"><ellipse cx="220.3108" cy="535.7622" fill="#F1F1F1" rx="71.8108" ry="16.7622" style="stroke:#181818;stroke-width:0.5;"/><text fill="#000000" font-family="sans-serif" font-size="14" lengthAdjust="spacing" textLength="97.6855" x="168.468" y="539.5097">Buscar Rutina</text></g><g id="elem_MostrarEjercicio"><ellipse cx="220.2968" cy="606.7594" fill="#F1F1F1" rx="79.2968" ry="18.2594" style="stroke:#181818;stroke-width:0.5;"/><text fill="#000000" font-family="sans-serif" font-size="14" lengthAdjust="spacing" textLength="116.8125" x="159.9549" y="610.218">Mostrar Ejercicio</text></g><g id="elem_BuscarEjercicio"><ellipse cx="220.495" cy="678.799" fill="#F1F1F1" rx="76.995" ry="17.799" style="stroke:#181818;stroke-width:0.5;"/><text fill="#000000" font-family="sans-serif" font-size="14" lengthAdjust="spacing" textLength="111.0977" x="162.0739" y="682.5135">Buscar Ejercicio</text></g><g id="elem_IrARetos"><ellipse cx="220.3772" cy="786.7776" fill="#F1F1F1" rx="60.8772" ry="14.7776" style="stroke:#181818;stroke-width:0.5;"/><text fill="#000000" font-family="sans-serif" font-size="14" lengthAdjust="spacing" textLength="68.0859" x="183.3342" y="790.5251">Ver Retos</text></g><g id="elem_MostrarReto"><ellipse cx="220.5967" cy="853.2193" fill="#F1F1F1" rx="69.0967" ry="16.2193" style="stroke:#181818;stroke-width:0.5;"/><text fill="#000000" font-family="sans-serif" font-size="14" lengthAdjust="spacing" textLength="90.3643" x="172.4145" y="856.9669">Mostrar Reto</text></g><g id="elem_SubirEvidencia"><ellipse cx="220.3815" cy="927.1763" fill="#F1F1F1" rx="101.3815" ry="22.6763" style="stroke:#181818;stroke-width:0.5;"/><text fill="#000000" font-family="sans-serif" font-size="14" lengthAdjust="spacing" textLength="167.0977" x="136.8327" y="930.023">Subir Evidencia de Reto</text></g><g id="elem_IrAClasificacion"><ellipse cx="220.4426" cy="1043.1885" fill="#F1F1F1" rx="78.9426" ry="18.1885" style="stroke:#181818;stroke-width:0.5;"/><text fill="#000000" font-family="sans-serif" font-size="14" lengthAdjust="spacing" textLength="115.9443" x="160.3963" y="1046.6865">Ver Clasificacion</text></g><g id="elem_IrAPerfil"><ellipse cx="220.2638" cy="1150.7561" fill="#F1F1F1" rx="57.7638" ry="14.7561" style="stroke:#181818;stroke-width:0.5;"/><text fill="#000000" font-family="sans-serif" font-size="14" lengthAdjust="spacing" textLength="63.916" x="185.3058" y="1154.5037">Ver Perfil</text></g><g id="elem_InscribirEnClase"><ellipse cx="220.4057" cy="1220.0811" fill="#F1F1F1" rx="80.9057" ry="18.5811" style="stroke:#181818;stroke-width:0.5;"/><text fill="#000000" font-family="sans-serif" font-size="14" lengthAdjust="spacing" textLength="120.709" x="158.7214" y="1223.361">Inscribir en Clase</text></g><g id="elem_MostrarQRCentros"><ellipse cx="220.4794" cy="1288.8959" fill="#F1F1F1" rx="64.9794" ry="15.3959" style="stroke:#181818;stroke-width:0.5;"/><text fill="#000000" font-family="sans-serif" font-size="14" lengthAdjust="spacing" textLength="78.7158" x="178.1215" y="1292.6434">Mostrar QR</text></g><g id="elem_VerInsignias"><ellipse cx="220.5021" cy="1356.2004" fill="#F1F1F1" rx="69.0021" ry="16.2004" style="stroke:#181818;stroke-width:0.5;"/><text fill="#000000" font-family="sans-serif" font-size="14" lengthAdjust="spacing" textLength="90.1045" x="172.4498" y="1359.948">Ver Insignias</text></g><g id="elem_CerrarSesion"><ellipse cx="220.7333" cy="1424.0467" fill="#F1F1F1" rx="70.7333" ry="16.5467" style="stroke:#181818;stroke-width:0.5;"/><text fill="#000000" font-family="sans-serif" font-size="14" lengthAdjust="spacing" textLength="94.8076" x="170.3295" y="1427.7942">Cerrar Sesion</text></g><!--entity Alumno--><g id="elem_Alumno"><ellipse cx="32.708" cy="613.5" fill="#F1F1F1" rx="8" ry="8" style="stroke:#181818;stroke-width:0.5;"/><path d="M32.708,621.5 L32.708,648.5 M19.708,629.5 L45.708,629.5 M32.708,648.5 L19.708,663.5 M32.708,648.5 L45.708,663.5 " fill="none" style="stroke:#181818;stroke-width:0.5;"/><text fill="#000000" font-family="sans-serif" font-size="14" lengthAdjust="spacing" textLength="53.416" x="6" y="677.9951">Alumno</text></g><g id="elem_IngresarAlSistema"><ellipse cx="220.3192" cy="25.8638" fill="#F1F1F1" rx="87.3192" ry="19.8638" style="stroke:#181818;stroke-width:0.5;"/><text fill="#000000" font-family="sans-serif" font-size="14" lengthAdjust="spacing" textLength="135.6455" x="152.4964" y="28.7105">Ingresar al Sistema</text></g><g id="elem_IniciarSesion"><ellipse cx="220.7059" cy="97.9412" fill="#F1F1F1" rx="70.2059" ry="16.4412" style="stroke:#181818;stroke-width:0.5;"/><text fill="#000000" font-family="sans-serif" font-size="14" lengthAdjust="spacing" textLength="93.3857" x="171.013" y="101.6887">Iniciar Sesion</text></g><g id="elem_CambiarMenu"><ellipse cx="220.4474" cy="167.0895" fill="#F1F1F1" rx="73.4474" ry="17.0895" style="stroke:#181818;stroke-width:0.5;"/><text fill="#000000" font-family="sans-serif" font-size="14" lengthAdjust="spacing" textLength="101.9922" x="166.4513" y="170.837">Cambiar Menu</text></g><!--link Alumno to IngresarAlSistema--><g id="link_Alumno_IngresarAlSistema"><path d="M35.14,604.73 C40.73,482.28 60.57,105.7 95,64 C106.87,49.62 118.3043,42.3949 136.0943,36.7149 " fill="none" id="Alumno-to-IngresarAlSistema" style="stroke:#181818;stroke-width:1;"/><polygon fill="#181818" points="141.81,34.89,132.0198,33.8169,137.0469,36.4108,134.453,41.4379,141.81,34.89" style="stroke:#181818;stroke-width:1;"/></g><!--link Alumno to IniciarSesion--><g id="link_Alumno_IniciarSesion"><path d="M32.79,604.8 C31.61,498.55 33.99,202.69 95,132 C109.35,115.38 125.088,107.7796 146.298,103.1496 " fill="none" id="Alumno-to-IniciarSesion" style="stroke:#181818;stroke-width:1;"/><polygon fill="#181818" points="152.16,101.87,142.514,99.8815,147.275,102.9364,144.2201,107.6974,152.16,101.87" style="stroke:#181818;stroke-width:1;"/></g><!--link Alumno to CerrarSesion--><g id="link_Alumno_CerrarSesion"><path d="M34.14,681.31 C36.88,826.03 49.69,1334.04 95,1389 C109.07,1406.06 124.8832,1413.877 146.2332,1418.627 " fill="none" id="Alumno-to-CerrarSesion" style="stroke:#181818;stroke-width:1;"/><polygon fill="#181818" points="152.09,1419.93,144.1735,1414.0709,147.2093,1418.8441,142.4361,1421.88,152.09,1419.93" style="stroke:#181818;stroke-width:1;"/></g><!--link Alumno to CambiarMenu--><g id="link_Alumno_CambiarMenu"><path d="M34.34,604.71 C37.09,512.03 48.56,278.88 95,219 C111.51,197.71 132.5719,186.8135 157.0819,179.3235 " fill="none" id="Alumno-to-CambiarMenu" style="stroke:#181818;stroke-width:1;"/><polygon fill="#181818" points="162.82,177.57,153.0439,176.3749,158.0383,179.0312,155.3819,184.0256,162.82,177.57" style="stroke:#181818;stroke-width:1;"/></g><!--link Alumno to IrARutinasYEjercicios--><g id="link_Alumno_IrARutinasYEjercicios"><path d="M35.36,604.94 C40.05,524.65 54.95,341.54 95,296 C106.14,283.33 115.7135,276.7867 131.6635,270.9667 " fill="none" id="Alumno-to-IrARutinasYEjercicios" style="stroke:#181818;stroke-width:1;"/><polygon fill="#181818" points="137.3,268.91,127.4741,268.2374,132.6029,270.6239,130.2164,275.7527,137.3,268.91" style="stroke:#181818;stroke-width:1;"/></g><!--link Alumno to MostrarRutina--><g id="link_Alumno_MostrarRutina"><path d="M37.08,604.95 C44.23,537.11 62.45,399.19 95,365 C109.76,349.5 124.985,342.195 145.605,337.415 " fill="none" id="Alumno-to-MostrarRutina" style="stroke:#181818;stroke-width:1;"/><polygon fill="#181818" points="151.45,336.06,141.7792,334.1958,146.5792,337.1891,143.5858,341.9891,151.45,336.06" style="stroke:#181818;stroke-width:1;"/></g><!--link Alumno to CrearRutina--><g id="link_Alumno_CrearRutina"><path d="M33.96,604.79 C36.64,557.84 48.38,478.78 95,433 C111.07,417.22 127.8453,409.857 149.4153,405.197 " fill="none" id="Alumno-to-CrearRutina" style="stroke:#181818;stroke-width:1;"/><polygon fill="#181818" points="155.28,403.93,145.6383,401.9207,150.3928,404.9858,147.3276,409.7403,155.28,403.93" style="stroke:#181818;stroke-width:1;"/></g><!--link Alumno to EditarRutina--><g id="link_Alumno_EditarRutina"><path d="M40.43,604.98 C48.25,572.8 64.15,527.75 95,501 C111.84,486.39 128.5469,479.3296 149.8369,474.5296 " fill="none" id="Alumno-to-EditarRutina" style="stroke:#181818;stroke-width:1;"/><polygon fill="#181818" points="155.69,473.21,146.0306,471.2874,150.8124,474.3097,147.7901,479.0915,155.69,473.21" style="stroke:#181818;stroke-width:1;"/></g><!--link Alumno to MostrarEjercicio--><g id="link_Alumno_MostrarEjercicio"><path d="M59.36,637.99 C84.92,633.05 119.0592,626.4396 152.7092,619.9296 " fill="none" id="Alumno-to-MostrarEjercicio" style="stroke:#181818;stroke-width:1;"/><polygon fill="#181818" points="158.6,618.79,149.0041,616.5723,153.691,619.7397,150.5236,624.4266,158.6,618.79" style="stroke:#181818;stroke-width:1;"/></g><!--link Alumno to BuscarEjercicio--><g id="link_Alumno_BuscarEjercicio"><path d="M59.36,648.01 C85.42,653.05 120.6294,659.8596 154.6694,666.4496 " fill="none" id="Alumno-to-BuscarEjercicio" style="stroke:#181818;stroke-width:1;"/><polygon fill="#181818" points="160.56,667.59,152.4843,661.9523,155.6511,666.6397,150.9638,669.8065,160.56,667.59" style="stroke:#181818;stroke-width:1;"/></g><!--link Alumno to BuscarRutina--><g id="link_Alumno_BuscarRutina"><path d="M59.05,604.87 C68.99,592.52 81.29,579.77 95,571 C114.39,558.6 132.3785,551.932 153.9785,546.702 " fill="none" id="Alumno-to-BuscarRutina" style="stroke:#181818;stroke-width:1;"/><polygon fill="#181818" points="159.81,545.29,150.1214,543.5203,154.9504,546.4666,152.0041,551.2956,159.81,545.29" style="stroke:#181818;stroke-width:1;"/></g><!--link Alumno to IrARetos--><g id="link_Alumno_IrARetos"><path d="M59.11,676.36 C69.48,688.68 82.06,702.25 95,713 C125.37,738.22 159.9565,757.6308 186.3165,770.9708 " fill="none" id="Alumno-to-IrARetos" style="stroke:#181818;stroke-width:1;"/><polygon fill="#181818" points="191.67,773.68,185.4459,766.0471,187.2087,771.4223,181.8336,773.1851,191.67,773.68" style="stroke:#181818;stroke-width:1;"/></g><!--link Alumno to SubirEvidencia--><g id="link_Alumno_SubirEvidencia"><path d="M38.66,681.42 C47.55,742.15 67.48,856.47 95,886 C106.79,898.65 116.9348,905.3125 133.2648,911.3725 " fill="none" id="Alumno-to-SubirEvidencia" style="stroke:#181818;stroke-width:1;"/><polygon fill="#181818" points="138.89,913.46,131.8439,906.5787,134.2024,911.7204,129.0606,914.0789,138.89,913.46" style="stroke:#181818;stroke-width:1;"/></g><!--link Alumno to IrAClasificacion--><g id="link_Alumno_IrAClasificacion"><path d="M36.91,681.18 C44.24,756.32 63.42,920.09 95,966 C115.02,995.11 144.5197,1012.8575 172.3197,1025.2475 " fill="none" id="Alumno-to-IrAClasificacion" style="stroke:#181818;stroke-width:1;"/><polygon fill="#181818" points="177.8,1027.69,171.2078,1020.3727,173.233,1025.6546,167.9511,1027.6798,177.8,1027.69" style="stroke:#181818;stroke-width:1;"/></g><!--link Alumno to IrAPerfil--><g id="link_Alumno_IrAPerfil"><path d="M34.74,681.11 C38.43,774.58 51.91,1012.32 95,1077 C115.77,1108.18 148.9511,1125.9473 177.7311,1137.1873 " fill="none" id="Alumno-to-IrAPerfil" style="stroke:#181818;stroke-width:1;"/><polygon fill="#181818" points="183.32,1139.37,176.3918,1132.37,178.6626,1137.5511,173.4815,1139.8218,183.32,1139.37" style="stroke:#181818;stroke-width:1;"/></g><!--link Alumno to InscribirEnClase--><g id="link_Alumno_InscribirEnClase"><path d="M35.43,681.15 C41.68,797.87 62.8,1144.59 95,1183 C107.75,1198.21 120.6698,1205.6853 139.7198,1211.1153 " fill="none" id="Alumno-to-InscribirEnClase" style="stroke:#181818;stroke-width:1;"/><polygon fill="#181818" points="145.49,1212.76,137.9312,1206.4461,140.6815,1211.3894,135.7383,1214.1397,145.49,1212.76" style="stroke:#181818;stroke-width:1;"/></g><!--link Alumno to MostrarQRCentros--><g id="link_Alumno_MostrarQRCentros"><path d="M34.84,681.32 C39.63,808.68 57.66,1212.2 95,1256 C110.09,1273.7 127.561,1281.3638 150.001,1285.5338 " fill="none" id="Alumno-to-MostrarQRCentros" style="stroke:#181818;stroke-width:1;"/><polygon fill="#181818" points="155.9,1286.63,147.7823,1281.053,150.9842,1285.7165,146.3207,1288.9184,155.9,1286.63" style="stroke:#181818;stroke-width:1;"/></g><!--link Alumno to VerInsignias--><g id="link_Alumno_VerInsignias"><path d="M34.45,681.1 C38.18,817.03 53.67,1272.66 95,1322 C109.32,1339.09 125.4395,1346.79 146.9795,1351.34 " fill="none" id="Alumno-to-VerInsignias" style="stroke:#181818;stroke-width:1;"/><polygon fill="#181818" points="152.85,1352.58,144.871,1346.8063,147.958,1351.5466,143.2176,1354.6336,152.85,1352.58" style="stroke:#181818;stroke-width:1;"/></g><!--SRC=[TLH9RiCm3Bph5KBk-KA1rCWXXm2D0nJeKP4PbwqZ5v9Se2ZwzshnGdhnJSFXQ4YJQk3kfM-bnVhTomejQ8-j4K9ftrfvQBg7QONuKlfJrI1tPUVHA2T_vF43h4QDhTl9No73rpdGoWNIArXfHo8GOW1Ezj2Bl4qI8Wea4IPqRfrNLcP-oew8LJOZouJ20kSdO8jzh70cdv4j_dFdDETdP8lVcvrQHKiOmSrxU5e6UPRuctvD2RvrQtyY1SRMnuDOTHb3hCVXp9dNxeR1rZTMO3GgMS6Kb69ZY1eh6kNmZbe5rsRD82CCHXb8vLx0th5PqycHGI2VEEjadBOOYm2JheNC7k2ZIU1wVoubxSwbBC1uEszcz17ai3QeSjC3CWASMu2DkbTmGzqPoK2icHYlBRX0LesyelFmKBtpZ1-Q7gKfOKouV0_r-XErK8zRf9x1TDb71k9PYFm6oFt-QUKw5gJg9C2gelZMBQil127mHu0gacqdCDlgfSwqKoGsNxT5g9UR6q_xHR3PNipeVCfdmNw2MOjdWxeiPffB4gCp-0y0]--></g></svg>