<svg xmlns="http://www.w3.org/2000/svg" xmlns:xlink="http://www.w3.org/1999/xlink" contentStyleType="text/css" height="1909px" preserveAspectRatio="none" style="width:392px;height:1909px;background:#FFFFFF;" version="1.1" viewBox="0 0 392 1909" width="392px" zoomAndPan="magnify"><defs/><g><!--cluster Rutinas y Ejercicios--><g id="cluster_Rutinas y Ejercicios"><path d="M110.5,199.5 L265.2676,199.5 A3.75,3.75 0 0 1 267.7676,202 L274.7676,221.7969 L382.5,221.7969 A2.5,2.5 0 0 1 385,224.2969 L385,859 A2.5,2.5 0 0 1 382.5,861.5 L110.5,861.5 A2.5,2.5 0 0 1 108,859 L108,202 A2.5,2.5 0 0 1 110.5,199.5 " fill="none" style="stroke:#000000;stroke-width:1.5;"/><line style="stroke:#000000;stroke-width:1.5;" x1="108" x2="274.7676" y1="221.7969" y2="221.7969"/><text fill="#000000" font-family="sans-serif" font-size="14" font-weight="bold" lengthAdjust="spacing" textLength="153.7676" x="112" y="214.4951">Rutinas y Ejercicios</text></g><!--cluster Retos--><g id="cluster_Retos"><path d="M154,885.5 L199.9189,885.5 A3.75,3.75 0 0 1 202.4189,888 L209.4189,907.7969 L339,907.7969 A2.5,2.5 0 0 1 341.5,910.2969 L341.5,1102 A2.5,2.5 0 0 1 339,1104.5 L154,1104.5 A2.5,2.5 0 0 1 151.5,1102 L151.5,888 A2.5,2.5 0 0 1 154,885.5 " fill="none" style="stroke:#000000;stroke-width:1.5;"/><line style="stroke:#000000;stroke-width:1.5;" x1="151.5" x2="209.4189" y1="907.7969" y2="907.7969"/><text fill="#000000" font-family="sans-serif" font-size="14" font-weight="bold" lengthAdjust="spacing" textLength="44.9189" x="155.5" y="900.4951">Retos</text></g><!--cluster Clasificaci?n--><g id="cluster_Clasificación"><path d="M114,1128.5 L213.9707,1128.5 A3.75,3.75 0 0 1 216.4707,1131 L223.4707,1150.7969 L379,1150.7969 A2.5,2.5 0 0 1 381.5,1153.2969 L381.5,1310 A2.5,2.5 0 0 1 379,1312.5 L114,1312.5 A2.5,2.5 0 0 1 111.5,1310 L111.5,1131 A2.5,2.5 0 0 1 114,1128.5 " fill="none" style="stroke:#000000;stroke-width:1.5;"/><line style="stroke:#000000;stroke-width:1.5;" x1="111.5" x2="223.4707" y1="1150.7969" y2="1150.7969"/><text fill="#000000" font-family="sans-serif" font-size="14" font-weight="bold" lengthAdjust="spacing" textLength="98.9707" x="115.5" y="1143.4951">Clasificación</text></g><!--cluster Perfil--><g id="cluster_Perfil"><path d="M149,1336.5 L192.3486,1336.5 A3.75,3.75 0 0 1 194.8486,1339 L201.8486,1358.7969 L344,1358.7969 A2.5,2.5 0 0 1 346.5,1361.2969 L346.5,1900 A2.5,2.5 0 0 1 344,1902.5 L149,1902.5 A2.5,2.5 0 0 1 146.5,1900 L146.5,1339 A2.5,2.5 0 0 1 149,1336.5 " fill="none" style="stroke:#000000;stroke-width:1.5;"/><line style="stroke:#000000;stroke-width:1.5;" x1="146.5" x2="201.8486" y1="1358.7969" y2="1358.7969"/><text fill="#000000" font-family="sans-serif" font-size="14" font-weight="bold" lengthAdjust="spacing" textLength="42.3486" x="150.5" y="1351.4951">Perfil</text></g><g id="elem_CambiarARutinasYEjercicios"><ellipse cx="246.4772" cy="261.3954" fill="#F1F1F1" rx="122.4772" ry="26.8954" style="stroke:#181818;stroke-width:0.5;"/><text fill="#000000" font-family="sans-serif" font-size="14" lengthAdjust="spacing" textLength="212.6318" x="140.1612" y="264.2421">Cambiar a Rutinas y Ejercicios</text></g><g id="elem_MostrarRutina"><ellipse cx="246.4885" cy="340.6977" fill="#F1F1F1" rx="73.9885" ry="17.1977" style="stroke:#181818;stroke-width:0.5;"/><text fill="#000000" font-family="sans-serif" font-size="14" lengthAdjust="spacing" textLength="103.4004" x="191.7883" y="344.4453">Mostrar Rutina</text></g><g id="elem_EditarRutina"><ellipse cx="246.4488" cy="409.2898" fill="#F1F1F1" rx="69.4488" ry="16.2898" style="stroke:#181818;stroke-width:0.5;"/><text fill="#000000" font-family="sans-serif" font-size="14" lengthAdjust="spacing" textLength="91.3281" x="197.7847" y="413.0373">Editar Rutina</text></g><g id="elem_CrearRutina"><ellipse cx="246.3702" cy="477.574" fill="#F1F1F1" rx="68.3702" ry="16.074" style="stroke:#181818;stroke-width:0.5;"/><text fill="#000000" font-family="sans-serif" font-size="14" lengthAdjust="spacing" textLength="88.3613" x="199.1896" y="481.3216">Crear Rutina</text></g><g id="elem_BuscarRutina"><ellipse cx="246.3108" cy="545.2622" fill="#F1F1F1" rx="71.8108" ry="16.7622" style="stroke:#181818;stroke-width:0.5;"/><text fill="#000000" font-family="sans-serif" font-size="14" lengthAdjust="spacing" textLength="97.6855" x="194.468" y="549.0097">Buscar Rutina</text></g><g id="elem_MostrarEjercicio"><ellipse cx="246.2968" cy="616.2594" fill="#F1F1F1" rx="79.2968" ry="18.2594" style="stroke:#181818;stroke-width:0.5;"/><text fill="#000000" font-family="sans-serif" font-size="14" lengthAdjust="spacing" textLength="116.8125" x="185.9549" y="619.718">Mostrar Ejercicio</text></g><g id="elem_EditarEjercicio"><ellipse cx="246.506" cy="687.3012" fill="#F1F1F1" rx="74.506" ry="17.3012" style="stroke:#181818;stroke-width:0.5;"/><text fill="#000000" font-family="sans-serif" font-size="14" lengthAdjust="spacing" textLength="104.7402" x="191.1358" y="691.0488">Editar Ejercicio</text></g><g id="elem_CrearEjercicio"><ellipse cx="246.3636" cy="757.5727" fill="#F1F1F1" rx="73.3636" ry="17.0727" style="stroke:#181818;stroke-width:0.5;"/><text fill="#000000" font-family="sans-serif" font-size="14" lengthAdjust="spacing" textLength="101.7734" x="192.4768" y="761.3203">Crear Ejercicio</text></g><g id="elem_BuscarEjercicio"><ellipse cx="246.495" cy="827.299" fill="#F1F1F1" rx="76.995" ry="17.799" style="stroke:#181818;stroke-width:0.5;"/><text fill="#000000" font-family="sans-serif" font-size="14" lengthAdjust="spacing" textLength="111.0977" x="188.0739" y="831.0135">Buscar Ejercicio</text></g><g id="elem_CambiarARetos"><ellipse cx="246.5763" cy="938.7153" fill="#F1F1F1" rx="79.0763" ry="18.2153" style="stroke:#181818;stroke-width:0.5;"/><text fill="#000000" font-family="sans-serif" font-size="14" lengthAdjust="spacing" textLength="116.2725" x="186.4184" y="942.1984">Cambiar a Retos</text></g><g id="elem_CrearReto"><ellipse cx="246.3334" cy="1006.6667" fill="#F1F1F1" rx="63.8334" ry="15.1667" style="stroke:#181818;stroke-width:0.5;"/><text fill="#000000" font-family="sans-serif" font-size="14" lengthAdjust="spacing" textLength="75.3252" x="205.6708" y="1010.4142">Crear Reto</text></g><g id="elem_EditarReto"><ellipse cx="246.3348" cy="1072.367" fill="#F1F1F1" rx="64.8348" ry="15.367" style="stroke:#181818;stroke-width:0.5;"/><text fill="#000000" font-family="sans-serif" font-size="14" lengthAdjust="spacing" textLength="78.292" x="204.1888" y="1076.1145">Editar Reto</text></g><g id="elem_CambiarAClasificacion"><ellipse cx="246.5332" cy="1186.4066" fill="#F1F1F1" rx="100.0332" ry="22.4066" style="stroke:#181818;stroke-width:0.5;"/><text fill="#000000" font-family="sans-serif" font-size="14" lengthAdjust="spacing" textLength="164.1309" x="164.4678" y="1189.2533">Cambiar a Clasificación</text></g><g id="elem_VerAlumnosDentroDeClase"><ellipse cx="246.7091" cy="1270.7418" fill="#F1F1F1" rx="119.2091" ry="26.2418" style="stroke:#181818;stroke-width:0.5;"/><text fill="#000000" font-family="sans-serif" font-size="14" lengthAdjust="spacing" textLength="205.666" x="143.8761" y="1273.5885">Ver alumnos dentro  de clase</text></g><g id="elem_CambiarAPerfil"><ellipse cx="246.3945" cy="1389.3789" fill="#F1F1F1" rx="77.3945" ry="17.8789" style="stroke:#181818;stroke-width:0.5;"/><text fill="#000000" font-family="sans-serif" font-size="14" lengthAdjust="spacing" textLength="112.1025" x="187.64" y="1393.049">Cambiar a Perfil</text></g><g id="elem_MostrarQR"><ellipse cx="246.4794" cy="1458.3959" fill="#F1F1F1" rx="64.9794" ry="15.3959" style="stroke:#181818;stroke-width:0.5;"/><text fill="#000000" font-family="sans-serif" font-size="14" lengthAdjust="spacing" textLength="78.7158" x="204.1215" y="1462.1434">Mostrar QR</text></g><g id="elem_CrearClase"><ellipse cx="246.2936" cy="1524.5587" fill="#F1F1F1" rx="65.7936" ry="15.5587" style="stroke:#181818;stroke-width:0.5;"/><text fill="#000000" font-family="sans-serif" font-size="14" lengthAdjust="spacing" textLength="81.0811" x="202.753" y="1528.3063">Crear Clase</text></g><g id="elem_VerMisClases"><ellipse cx="246.5813" cy="1592.5163" fill="#F1F1F1" rx="73.0813" ry="17.0163" style="stroke:#181818;stroke-width:0.5;"/><text fill="#000000" font-family="sans-serif" font-size="14" lengthAdjust="spacing" textLength="101.0352" x="193.0637" y="1596.2638">Ver mis clases</text></g><g id="elem_VerAlumnos"><ellipse cx="246.279" cy="1660.5558" fill="#F1F1F1" rx="68.279" ry="16.0558" style="stroke:#181818;stroke-width:0.5;"/><text fill="#000000" font-family="sans-serif" font-size="14" lengthAdjust="spacing" textLength="88.1084" x="199.2248" y="1664.3034">Ver alumnos</text></g><g id="elem_VerRetosAlumnos"><ellipse cx="246.614" cy="1730.7228" fill="#F1F1F1" rx="84.114" ry="19.2228" style="stroke:#181818;stroke-width:0.5;"/><text fill="#000000" font-family="sans-serif" font-size="14" lengthAdjust="spacing" textLength="128.2764" x="182.2533" y="1733.6461">Ver retos alumnos</text></g><g id="elem_EvaluarRetos"><ellipse cx="246.5544" cy="1801.4109" fill="#F1F1F1" rx="70.0544" ry="16.4109" style="stroke:#181818;stroke-width:0.5;"/><text fill="#000000" font-family="sans-serif" font-size="14" lengthAdjust="spacing" textLength="92.9756" x="197.0666" y="1805.1584">Evaluar retos</text></g><g id="elem_CerrarSesion"><ellipse cx="246.7333" cy="1869.5467" fill="#F1F1F1" rx="70.7333" ry="16.5467" style="stroke:#181818;stroke-width:0.5;"/><text fill="#000000" font-family="sans-serif" font-size="14" lengthAdjust="spacing" textLength="94.8076" x="196.3295" y="1873.2942">Cerrar Sesión</text></g><!--entity Profesor--><g id="elem_Profesor"><ellipse cx="34.9604" cy="909" fill="#F1F1F1" rx="8" ry="8" style="stroke:#181818;stroke-width:0.5;"/><path d="M34.9604,917 L34.9604,944 M21.9604,925 L47.9604,925 M34.9604,944 L21.9604,959 M34.9604,944 L47.9604,959 " fill="none" style="stroke:#181818;stroke-width:0.5;"/><text fill="#000000" font-family="sans-serif" font-size="14" lengthAdjust="spacing" textLength="57.9209" x="6" y="973.4951">Profesor</text></g><g id="elem_IniciarSesion"><ellipse cx="246.7059" cy="22.4412" fill="#F1F1F1" rx="70.2059" ry="16.4412" style="stroke:#181818;stroke-width:0.5;"/><text fill="#000000" font-family="sans-serif" font-size="14" lengthAdjust="spacing" textLength="93.3857" x="197.013" y="26.1887">Iniciar Sesión</text></g><g id="elem_IngresarAlSistema"><ellipse cx="246.3192" cy="94.3638" fill="#F1F1F1" rx="87.3192" ry="19.8638" style="stroke:#181818;stroke-width:0.5;"/><text fill="#000000" font-family="sans-serif" font-size="14" lengthAdjust="spacing" textLength="135.6455" x="178.4964" y="97.2105">Ingresar al Sistema</text></g><g id="elem_CambiarMenu"><ellipse cx="246.4474" cy="166.5895" fill="#F1F1F1" rx="73.4474" ry="17.0895" style="stroke:#181818;stroke-width:0.5;"/><text fill="#000000" font-family="sans-serif" font-size="14" lengthAdjust="spacing" textLength="101.9922" x="192.4513" y="170.337">Cambiar Menu</text></g><!--link Profesor to IngresarAlSistema--><g id="link_Profesor_IngresarAlSistema"><path d="M36.46,900.44 C38.63,748.52 49.98,190.83 100,131.5 C115.12,113.57 131.746,105.0291 154.536,99.7291 " fill="none" id="Profesor-to-IngresarAlSistema" style="stroke:#181818;stroke-width:1;"/><polygon fill="#181818" points="160.38,98.37,150.7079,96.5126,155.51,99.5026,152.52,104.3047,160.38,98.37" style="stroke:#181818;stroke-width:1;"/></g><!--link Profesor to IniciarSesion--><g id="link_Profesor_IniciarSesion"><path d="M36.15,900.48 C37.14,739.76 44.54,121.44 100,56.5 C118.7,34.6 142.5873,26.0516 170.3873,22.5416 " fill="none" id="Profesor-to-IniciarSesion" style="stroke:#181818;stroke-width:1;"/><polygon fill="#181818" points="176.34,21.79,166.9098,18.9489,171.3794,22.4163,167.9119,26.8859,176.34,21.79" style="stroke:#181818;stroke-width:1;"/></g><!--link Profesor to CambiarMenu--><g id="link_Profesor_CambiarMenu"><path d="M37.02,900.17 C41.09,758.9 58.07,272.73 100,218.5 C119.11,193.78 145.1189,182.1618 174.1589,175.3418 " fill="none" id="Profesor-to-CambiarMenu" style="stroke:#181818;stroke-width:1;"/><polygon fill="#181818" points="180,173.97,170.3239,172.1336,175.1324,175.1131,172.1529,179.9217,180,173.97" style="stroke:#181818;stroke-width:1;"/></g><!--link Profesor to CerrarSesion--><g id="link_Profesor_CerrarSesion"><path d="M36.1,976.62 C36.89,1139.2 43.58,1769.35 100,1835.5 C118.6,1857.31 142.2987,1865.8573 169.9987,1869.4073 " fill="none" id="Profesor-to-CerrarSesion" style="stroke:#181818;stroke-width:1;"/><polygon fill="#181818" points="175.95,1870.17,167.5315,1865.0584,170.9906,1869.5344,166.5145,1872.9935,175.95,1870.17" style="stroke:#181818;stroke-width:1;"/></g><!--link Profesor to CambiarARutinasYEjercicios--><g id="link_Profesor_CambiarARutinasYEjercicios"><path d="M37.42,900.34 C42.59,770.53 62.08,351.54 100,305.5 C111.16,291.95 120.7774,284.7289 137.1274,278.1189 " fill="none" id="Profesor-to-CambiarARutinasYEjercicios" style="stroke:#181818;stroke-width:1;"/><polygon fill="#181818" points="142.69,275.87,132.8468,275.5349,138.0545,277.744,135.8453,282.9517,142.69,275.87" style="stroke:#181818;stroke-width:1;"/></g><!--link Profesor to MostrarRutina--><g id="link_Profesor_MostrarRutina"><path d="M37.83,900.35 C43.94,780.14 65.22,414.84 100,375.5 C118.07,355.06 139.8634,346.4354 166.2834,342.2654 " fill="none" id="Profesor-to-MostrarRutina" style="stroke:#181818;stroke-width:1;"/><polygon fill="#181818" points="172.21,341.33,162.6964,338.7821,167.2711,342.1095,163.9437,346.6842,172.21,341.33" style="stroke:#181818;stroke-width:1;"/></g><!--link Profesor to EditarRutina--><g id="link_Profesor_EditarRutina"><path d="M35.53,900.25 C35.08,796.03 39.5,510.44 100,443.5 C119.31,422.14 143.2801,413.6836 170.9701,410.0836 " fill="none" id="Profesor-to-EditarRutina" style="stroke:#181818;stroke-width:1;"/><polygon fill="#181818" points="176.92,409.31,167.4794,406.5037,171.9617,409.9546,168.5108,414.4369,176.92,409.31" style="stroke:#181818;stroke-width:1;"/></g><!--link Profesor to CrearRutina--><g id="link_Profesor_CrearRutina"><path d="M36.38,900.34 C38.13,806.27 47.74,566.81 100,510.5 C119.73,489.24 144.0934,480.9805 171.9534,477.6105 " fill="none" id="Profesor-to-CrearRutina" style="stroke:#181818;stroke-width:1;"/><polygon fill="#181818" points="177.91,476.89,168.4948,473.9997,172.9462,477.4904,169.4555,481.9418,177.91,476.89" style="stroke:#181818;stroke-width:1;"/></g><!--link Profesor to MostrarEjercicio--><g id="link_Profesor_MostrarEjercicio"><path d="M39.6,900.36 C46.93,830.84 65.85,687.42 100,652.5 C117.83,634.27 137.4421,625.8742 162.1321,621.0342 " fill="none" id="Profesor-to-MostrarEjercicio" style="stroke:#181818;stroke-width:1;"/><polygon fill="#181818" points="168.02,619.88,158.4186,617.686,163.1134,620.8418,159.9576,625.5366,168.02,619.88" style="stroke:#181818;stroke-width:1;"/></g><!--link Profesor to EditarEjercicio--><g id="link_Profesor_EditarEjercicio"><path d="M36.32,900.22 C38.88,851.83 50.79,769.22 100,722.5 C119.5,703.99 141.1077,695.742 166.9677,691.272 " fill="none" id="Profesor-to-EditarEjercicio" style="stroke:#181818;stroke-width:1;"/><polygon fill="#181818" points="172.88,690.25,163.3302,687.8414,167.9531,691.1016,164.6928,695.7245,172.88,690.25" style="stroke:#181818;stroke-width:1;"/></g><!--link Profesor to CrearEjercicio--><g id="link_Profesor_CrearEjercicio"><path d="M42.63,900.48 C50.49,866.88 66.97,819.04 100,791.5 C120.72,774.23 142.706,766.392 168.536,761.972 " fill="none" id="Profesor-to-CrearEjercicio" style="stroke:#181818;stroke-width:1;"/><polygon fill="#181818" points="174.45,760.96,164.9043,758.5353,169.5216,761.8033,166.2536,766.4207,174.45,760.96" style="stroke:#181818;stroke-width:1;"/></g><!--link Profesor to BuscarEjercicio--><g id="link_Profesor_BuscarEjercicio"><path d="M64.03,923.6 C75.22,917.65 88.22,910.75 100,904.5 C139.39,883.61 179.4957,862.3943 208.9657,846.8143 " fill="none" id="Profesor-to-BuscarEjercicio" style="stroke:#181818;stroke-width:1;"/><polygon fill="#181818" points="214.27,844.01,204.444,844.6802,209.8497,846.3469,208.183,851.7526,214.27,844.01" style="stroke:#181818;stroke-width:1;"/></g><!--link Profesor to BuscarRutina--><g id="link_Profesor_BuscarRutina"><path d="M37.68,900.27 C42.1,817.66 56.86,626.27 100,580.5 C119.07,560.27 141.6801,551.7545 168.4601,547.6245 " fill="none" id="Profesor-to-BuscarRutina" style="stroke:#181818;stroke-width:1;"/><polygon fill="#181818" points="174.39,546.71,164.8855,544.1285,169.4484,547.4721,166.1048,552.035,174.39,546.71" style="stroke:#181818;stroke-width:1;"/></g><!--link Profesor to CambiarARetos--><g id="link_Profesor_CambiarARetos"><path d="M64.25,938.5 C90.61,938.5 125.18,938.5 161.26,938.5 " fill="none" id="Profesor-to-CambiarARetos" style="stroke:#181818;stroke-width:1;"/><polygon fill="#181818" points="167.26,938.5,158.26,934.5,162.26,938.5,158.26,942.5,167.26,938.5" style="stroke:#181818;stroke-width:1;"/></g><!--link Profesor to CrearReto--><g id="link_Profesor_CrearReto"><path d="M64.18,956.12 C75.06,962.32 87.8,968.88 100,973.5 C129.92,984.82 158.9349,991.783 187.0649,997.113 " fill="none" id="Profesor-to-CrearReto" style="stroke:#181818;stroke-width:1;"/><polygon fill="#181818" points="192.96,998.23,184.862,992.6244,188.0474,997.2992,183.3727,1000.4846,192.96,998.23" style="stroke:#181818;stroke-width:1;"/></g><!--link Profesor to EditarReto--><g id="link_Profesor_EditarReto"><path d="M51.6,976.58 C62.21,997.88 78.29,1023.15 100,1038.5 C124.25,1055.65 149.9909,1063.3402 177.5809,1067.6202 " fill="none" id="Profesor-to-EditarReto" style="stroke:#181818;stroke-width:1;"/><polygon fill="#181818" points="183.51,1068.54,175.2296,1063.2076,178.5691,1067.7735,174.0032,1071.1131,183.51,1068.54" style="stroke:#181818;stroke-width:1;"/></g><!--link Profesor to CambiarAClasificacion--><g id="link_Profesor_CambiarAClasificacion"><path d="M42.93,976.62 C51.19,1013 68.09,1067.58 100,1104.5 C124.74,1133.13 156.5764,1151.4675 187.2264,1164.9275 " fill="none" id="Profesor-to-CambiarAClasificacion" style="stroke:#181818;stroke-width:1;"/><polygon fill="#181818" points="192.72,1167.34,186.0879,1160.0588,188.142,1165.3296,182.8712,1167.3836,192.72,1167.34" style="stroke:#181818;stroke-width:1;"/></g><!--link Profesor to VerAlumnosDentroDeClase--><g id="link_Profesor_VerAlumnosDentroDeClase"><path d="M39.73,976.74 C47.28,1046.48 66.56,1190.45 100,1226.5 C112.65,1240.14 123.7482,1247.5034 141.3382,1254.0634 " fill="none" id="Profesor-to-VerAlumnosDentroDeClase" style="stroke:#181818;stroke-width:1;"/><polygon fill="#181818" points="146.96,1256.16,139.9251,1249.2673,142.2752,1254.4128,137.1296,1256.763,146.96,1256.16" style="stroke:#181818;stroke-width:1;"/></g><!--link Profesor to CambiarAPerfil--><g id="link_Profesor_CambiarAPerfil"><path d="M38.3,976.7 C44.03,1060.89 61.36,1259.15 100,1312.5 C123.05,1344.33 157.6601,1362.1604 190.0001,1373.7204 " fill="none" id="Profesor-to-CambiarAPerfil" style="stroke:#181818;stroke-width:1;"/><polygon fill="#181818" points="195.65,1375.74,188.5215,1368.944,190.9418,1374.057,185.8288,1376.4772,195.65,1375.74" style="stroke:#181818;stroke-width:1;"/></g><!--link Profesor to MostrarQR--><g id="link_Profesor_MostrarQR"><path d="M35.64,976.8 C35.48,1079.74 40.65,1358.99 100,1424.5 C120.38,1446.99 146.556,1455.3738 175.456,1458.5538 " fill="none" id="Profesor-to-MostrarQR" style="stroke:#181818;stroke-width:1;"/><polygon fill="#181818" points="181.42,1459.21,172.9115,1454.2496,176.45,1458.6631,172.0365,1462.2016,181.42,1459.21" style="stroke:#181818;stroke-width:1;"/></g><!--link Profesor to CrearClase--><g id="link_Profesor_CrearClase"><path d="M37.9,976.82 C44.15,1095.81 65.62,1453.2 100,1491.5 C120.07,1513.86 145.8629,1522.1028 174.5929,1525.1228 " fill="none" id="Profesor-to-CrearClase" style="stroke:#181818;stroke-width:1;"/><polygon fill="#181818" points="180.56,1525.75,172.0275,1520.8311,175.5874,1525.2273,171.1912,1528.7872,180.56,1525.75" style="stroke:#181818;stroke-width:1;"/></g><!--link Profesor to VerMisClases--><g id="link_Profesor_VerMisClases"><path d="M37.42,976.79 C42.52,1105 61.67,1513.7 100,1557.5 C118.22,1578.32 140.5278,1586.9806 167.3078,1591.0406 " fill="none" id="Profesor-to-VerMisClases" style="stroke:#181818;stroke-width:1;"/><polygon fill="#181818" points="173.24,1591.94,164.9413,1586.6362,168.2965,1591.1905,163.7421,1594.5458,173.24,1591.94" style="stroke:#181818;stroke-width:1;"/></g><!--link Profesor to VerAlumnos--><g id="link_Profesor_VerAlumnos"><path d="M36.99,976.69 C40.87,1114.02 57.09,1577.28 100,1626.5 C119.26,1648.6 143.9132,1657.0913 172.0932,1660.4913 " fill="none" id="Profesor-to-VerAlumnos" style="stroke:#181818;stroke-width:1;"/><polygon fill="#181818" points="178.05,1661.21,169.5939,1656.1607,173.086,1660.6111,168.6357,1664.1031,178.05,1661.21" style="stroke:#181818;stroke-width:1;"/></g><!--link Profesor to VerRetosAlumnos--><g id="link_Profesor_VerRetosAlumnos"><path d="M36.69,976.81 C39.64,1122.74 53.32,1638.44 100,1693.5 C115.84,1712.19 133.8036,1720.881 157.6136,1725.991 " fill="none" id="Profesor-to-VerRetosAlumnos" style="stroke:#181818;stroke-width:1;"/><polygon fill="#181818" points="163.48,1727.25,155.5197,1721.4505,158.5913,1726.2008,153.841,1729.2724,163.48,1727.25" style="stroke:#181818;stroke-width:1;"/></g><!--link Profesor to EvaluarRetos--><g id="link_Profesor_EvaluarRetos"><path d="M36.35,976.51 C38.14,1130.91 48.23,1705.78 100,1766.5 C118.71,1788.45 142.603,1797.1442 170.403,1800.8642 " fill="none" id="Profesor-to-EvaluarRetos" style="stroke:#181818;stroke-width:1;"/><polygon fill="#181818" points="176.35,1801.66,167.96,1796.5017,171.3942,1800.9968,166.899,1804.431,176.35,1801.66" style="stroke:#181818;stroke-width:1;"/></g><!--SRC=[VPHDJiCm48NtEONLVQ-0LD8kM5GghOJ4qhYJOaXZP3j8274gZi35y5yIZpCf6vGttqpVUEnfeR7CAgRbvTMoizGWh5HTnOLLcXsqQi0eNLKVNBpp2x3LiRUouuPziTqRQ265L6R5lYlc_de3WXi7rVpw8hbcdD6u4nAoIS3p5CQbzifOxKf5BgGcAIgOtfsbnN1KABRMWD4WKEHzRmH6eqAnWz-ndzpoA9AkSKeK5pAYTvmGj0K-TO0JeZXb_EHZ1djxhZ6U3z8hv0cxG7Q-xekUsO2bYNakTrIttCX62Yxatsztmre9PXwpaBlZAFy9N6xRNpjbs1awgnLp_vbm6H1gE60JuziGteAl1iZZ0NGZsnlU1Y3p52Nw4ZqUyzlpUAIEjnuTXkzeQjRQLPhOYncQsKiJMBDu3aNRSqxxaPTqk0TaokxJeJobnL57XReweFq1dC1CGmoILzpitAbN8_pGkVjRq4bBU8PUD1W_YvQTfB5mvGcF-gPDQZMRtXwwFf-S_wwgOKMozVgEg5A4SqyebDV4WRnhCeTQeOZ3-nA5q7R4nRDbI5MRrWPHS25OR2WKAvSH4IHjekr3TE3N2DMor-bIU4aWP6a7q8NIowPEpptbkTTOg_p1wPqkM9dfw0NYthFtzWy0]--></g></svg>