<svg xmlns="http://www.w3.org/2000/svg" xmlns:xlink="http://www.w3.org/1999/xlink" contentStyleType="text/css" height="670px" preserveAspectRatio="none" style="width:405px;height:670px;background:#FFFFFF;" version="1.1" viewBox="0 0 405 670" width="405px" zoomAndPan="magnify"><defs/><g><!--entity Alumno--><g id="elem_Alumno"><ellipse cx="32.708" cy="313" fill="#F1F1F1" rx="8" ry="8" style="stroke:#181818;stroke-width:0.5;"/><path d="M32.708,321 L32.708,348 M19.708,329 L45.708,329 M32.708,348 L19.708,363 M32.708,348 L45.708,363 " fill="none" style="stroke:#181818;stroke-width:0.5;"/><text fill="#000000" font-family="sans-serif" font-size="14" lengthAdjust="spacing" textLength="53.416" x="6" y="377.4951">Alumno</text></g><g id="elem_VerClasificaciones"><ellipse cx="259.1634" cy="25.5327" fill="#F1F1F1" rx="85.6634" ry="19.5327" style="stroke:#181818;stroke-width:0.5;"/><text fill="#000000" font-family="sans-serif" font-size="14" lengthAdjust="spacing" textLength="131.8516" x="193.2377" y="28.3794">Ver Clasificaciones</text></g><g id="elem_UsarRutinas"><ellipse cx="259.1198" cy="96.624" fill="#F1F1F1" rx="68.6198" ry="16.124" style="stroke:#181818;stroke-width:0.5;"/><text fill="#000000" font-family="sans-serif" font-size="14" lengthAdjust="spacing" textLength="89.0518" x="211.594" y="100.3715">Usar Rutinas</text></g><g id="elem_CompletarRetosObligatorios"><ellipse cx="259.0965" cy="174.3193" fill="#F1F1F1" rx="119.5965" ry="26.3193" style="stroke:#181818;stroke-width:0.5;"/><text fill="#000000" font-family="sans-serif" font-size="14" lengthAdjust="spacing" textLength="206.4932" x="155.8499" y="177.166">Completar Retos Obligatorios</text></g><g id="elem_CompletarRetosOpcionales"><ellipse cx="259.1356" cy="261.6271" fill="#F1F1F1" rx="116.1356" ry="25.6271" style="stroke:#181818;stroke-width:0.5;"/><text fill="#000000" font-family="sans-serif" font-size="14" lengthAdjust="spacing" textLength="199.0898" x="159.5906" y="264.4738">Completar Retos Opcionales</text></g><g id="elem_InscribirseClases"><ellipse cx="258.9598" cy="342.592" fill="#F1F1F1" rx="90.9598" ry="20.592" style="stroke:#181818;stroke-width:0.5;"/><text fill="#000000" font-family="sans-serif" font-size="14" lengthAdjust="spacing" textLength="143.9102" x="187.0047" y="345.4386">Inscribirse en Clases</text></g><g id="elem_UsarQR"><ellipse cx="259.1553" cy="428.4311" fill="#F1F1F1" rx="140.1553" ry="30.4311" style="stroke:#181818;stroke-width:0.5;"/><text fill="#000000" font-family="sans-serif" font-size="14" lengthAdjust="spacing" textLength="249.9287" x="134.191" y="431.2777">Utilizar QR para Centros Deportivos</text></g><g id="elem_IniciarSesion"><ellipse cx="259.2059" cy="510.4412" fill="#F1F1F1" rx="70.2059" ry="16.4412" style="stroke:#181818;stroke-width:0.5;"/><text fill="#000000" font-family="sans-serif" font-size="14" lengthAdjust="spacing" textLength="93.3857" x="209.513" y="514.1887">Iniciar Sesi&#243;n</text></g><g id="elem_CerrarSesion"><ellipse cx="259.2333" cy="578.5467" fill="#F1F1F1" rx="70.7333" ry="16.5467" style="stroke:#181818;stroke-width:0.5;"/><text fill="#000000" font-family="sans-serif" font-size="14" lengthAdjust="spacing" textLength="94.8076" x="208.8295" y="582.2942">Cerrar Sesi&#243;n</text></g><g id="elem_VolverInicio"><ellipse cx="258.8727" cy="647.6745" fill="#F1F1F1" rx="73.8727" ry="17.1745" style="stroke:#181818;stroke-width:0.5;"/><text fill="#000000" font-family="sans-serif" font-size="14" lengthAdjust="spacing" textLength="103.0996" x="204.3229" y="651.4221">Volver al Inicio</text></g><!--link Alumno to VerClasificaciones--><g id="link_Alumno_VerClasificaciones"><path d="M33.99,304.41 C36.89,244.3 51.5,127.6 119,62.5 C135.18,46.9 151.3355,39.1307 173.0455,33.7607 " fill="none" id="Alumno-to-VerClasificaciones" style="stroke:#181818;stroke-width:1;"/><polygon fill="#181818" points="178.87,32.32,169.1728,30.5981,174.0163,33.5206,171.0938,38.364,178.87,32.32" style="stroke:#181818;stroke-width:1;"/></g><!--link Alumno to UsarRutinas--><g id="link_Alumno_UsarRutinas"><path d="M38.27,304.27 C46.3,256.46 67.1,175.44 119,130.5 C139.1,113.1 160.7664,105.3148 186.0564,100.9748 " fill="none" id="Alumno-to-UsarRutinas" style="stroke:#181818;stroke-width:1;"/><polygon fill="#181818" points="191.97,99.96,182.4231,97.5399,187.042,100.8057,183.7762,105.4246,191.97,99.96" style="stroke:#181818;stroke-width:1;"/></g><!--link Alumno to CompletarRetosObligatorios--><g id="link_Alumno_CompletarRetosObligatorios"><path d="M51.2,304.35 C65.78,276.82 88.94,240.74 119,218.5 C134.26,207.21 146.8417,200.7274 165.0217,194.4174 " fill="none" id="Alumno-to-CompletarRetosObligatorios" style="stroke:#181818;stroke-width:1;"/><polygon fill="#181818" points="170.69,192.45,160.876,191.6222,165.9664,194.0895,163.4992,199.1799,170.69,192.45" style="stroke:#181818;stroke-width:1;"/></g><!--link Alumno to CompletarRetosOpcionales--><g id="link_Alumno_CompletarRetosOpcionales"><path d="M59.36,330.05 C76.15,322.2 98.62,312.15 119,304.5 C140.88,296.29 159.3522,290.1544 181.3622,283.4244 " fill="none" id="Alumno-to-CompletarRetosOpcionales" style="stroke:#181818;stroke-width:1;"/><polygon fill="#181818" points="187.1,281.67,177.3237,280.4765,182.3185,283.132,179.663,288.1268,187.1,281.67" style="stroke:#181818;stroke-width:1;"/></g><!--link Alumno to InscribirseClases--><g id="link_Alumno_InscribirseClases"><path d="M59.25,342.5 C85.8,342.5 122.73,342.5 161.9,342.5 " fill="none" id="Alumno-to-InscribirseClases" style="stroke:#181818;stroke-width:1;"/><polygon fill="#181818" points="167.9,342.5,158.9,338.5,162.9,342.5,158.9,346.5,167.9,342.5" style="stroke:#181818;stroke-width:1;"/></g><!--link Alumno to UsarQR--><g id="link_Alumno_UsarQR"><path d="M59.07,354.55 C75.94,362.33 98.6,372.46 119,380.5 C138.83,388.32 154.8496,394.1788 175.0596,401.1688 " fill="none" id="Alumno-to-UsarQR" style="stroke:#181818;stroke-width:1;"/><polygon fill="#181818" points="180.73,403.13,173.5319,396.4079,176.0047,401.4957,170.9169,403.9685,180.73,403.13" style="stroke:#181818;stroke-width:1;"/></g><!--link Alumno to IniciarSesion--><g id="link_Alumno_IniciarSesion"><path d="M48.3,380.61 C62.09,411.1 85.57,452.56 119,476.5 C140.41,491.83 162.0225,499.1858 186.9125,503.8458 " fill="none" id="Alumno-to-IniciarSesion" style="stroke:#181818;stroke-width:1;"/><polygon fill="#181818" points="192.81,504.95,184.6998,499.3621,187.8954,504.0299,183.2276,507.2254,192.81,504.95" style="stroke:#181818;stroke-width:1;"/></g><!--link Alumno to CerrarSesion--><g id="link_Alumno_CerrarSesion"><path d="M39.12,380.56 C47.92,426.34 69.41,502.29 119,544.5 C138.77,561.33 159.6552,569.0153 184.4452,573.4853 " fill="none" id="Alumno-to-CerrarSesion" style="stroke:#181818;stroke-width:1;"/><polygon fill="#181818" points="190.35,574.55,182.2026,569.0164,185.4294,573.6627,180.783,576.8894,190.35,574.55" style="stroke:#181818;stroke-width:1;"/></g><!--link Alumno to VolverInicio--><g id="link_Alumno_VolverInicio"><path d="M34.41,380.8 C37.95,439.35 53.49,550.81 119,612.5 C137.3,629.73 156.8999,637.6671 181.0699,642.3571 " fill="none" id="Alumno-to-VolverInicio" style="stroke:#181818;stroke-width:1;"/><polygon fill="#181818" points="186.96,643.5,178.8868,637.8588,182.0516,642.5476,177.3628,645.7124,186.96,643.5" style="stroke:#181818;stroke-width:1;"/></g><!--SRC=[VL51JWCn3Bpd5LRl_G8IMYwSK1VHknlSOYcDLqws1xx54_WOsSsgCKlfCUEn9pCJw9WX2oYVFZAyivBFBD4vz5aK7iDuZkBScCXZ8jZiIQ4BcFZ87drXKje09YZu2cuxRmaL-Z5pn4gUWENTM9sSXq1vebAM12-7m2Sids2fMrV2FBVZEqU6wJCOwEQ9wx0TU8x9AnzOouFYR7NPDPEA6eEP0tyMqLqF0of2Hp5haN-YGJJpHPhlNM_5s7DPUwN4trznaPcn2IerD6Eakc9MQ4tSIxYKZZ3KIrBRcS4AE5TBXUtsuLPjPcfxCl2T8lvdjQmDvs-cA_MIrY-wpSPgsIYiFUFx1m00]--></g></svg>