<svg xmlns="http://www.w3.org/2000/svg" xmlns:xlink="http://www.w3.org/1999/xlink" contentStyleType="text/css" height="1422px" preserveAspectRatio="none" style="width:399px;height:1422px;background:#FFFFFF;" version="1.1" viewBox="0 0 399 1422" width="399px" zoomAndPan="magnify"><defs/><g><!--cluster Rutinas y Ejercicios--><g id="cluster_Rutinas y Ejercicios"><path d="M135.5,200 L290.2676,200 A3.75,3.75 0 0 1 292.7676,202.5 L299.7676,222.2969 L359.5,222.2969 A2.5,2.5 0 0 1 362,224.7969 L362,710.5 A2.5,2.5 0 0 1 359.5,713 L135.5,713 A2.5,2.5 0 0 1 133,710.5 L133,202.5 A2.5,2.5 0 0 1 135.5,200 " fill="none" style="stroke:#000000;stroke-width:1.5;"/><line style="stroke:#000000;stroke-width:1.5;" x1="133" x2="299.7676" y1="222.2969" y2="222.2969"/><text fill="#000000" font-family="sans-serif" font-size="14" font-weight="bold" lengthAdjust="spacing" textLength="153.7676" x="137" y="214.9951">Rutinas y Ejercicios</text></g><!--cluster Retos--><g id="cluster_Retos"><path d="M132.5,737 L178.4189,737 A3.75,3.75 0 0 1 180.9189,739.5 L187.9189,759.2969 L362.5,759.2969 A2.5,2.5 0 0 1 365,761.7969 L365,896.5 A2.5,2.5 0 0 1 362.5,899 L132.5,899 A2.5,2.5 0 0 1 130,896.5 L130,739.5 A2.5,2.5 0 0 1 132.5,737 " fill="none" style="stroke:#000000;stroke-width:1.5;"/><line style="stroke:#000000;stroke-width:1.5;" x1="130" x2="187.9189" y1="759.2969" y2="759.2969"/><text fill="#000000" font-family="sans-serif" font-size="14" font-weight="bold" lengthAdjust="spacing" textLength="44.9189" x="134" y="751.9951">Retos</text></g><!--cluster Clasificacion--><g id="cluster_Clasificacion"><path d="M155,923 L254.9707,923 A3.75,3.75 0 0 1 257.4707,925.5 L264.4707,945.2969 L340,945.2969 A2.5,2.5 0 0 1 342.5,947.7969 L342.5,1007.5 A2.5,2.5 0 0 1 340,1010 L155,1010 A2.5,2.5 0 0 1 152.5,1007.5 L152.5,925.5 A2.5,2.5 0 0 1 155,923 " fill="none" style="stroke:#000000;stroke-width:1.5;"/><line style="stroke:#000000;stroke-width:1.5;" x1="152.5" x2="264.4707" y1="945.2969" y2="945.2969"/><text fill="#000000" font-family="sans-serif" font-size="14" font-weight="bold" lengthAdjust="spacing" textLength="98.9707" x="156.5" y="937.9951">Clasificacion</text></g><!--cluster Perfil--><g id="cluster_Perfil"><path d="M105.5,1034 L148.8486,1034 A3.75,3.75 0 0 1 151.3486,1036.5 L158.3486,1056.2969 L389.5,1056.2969 A2.5,2.5 0 0 1 392,1058.7969 L392,1412.5 A2.5,2.5 0 0 1 389.5,1415 L105.5,1415 A2.5,2.5 0 0 1 103,1412.5 L103,1036.5 A2.5,2.5 0 0 1 105.5,1034 " fill="none" style="stroke:#000000;stroke-width:1.5;"/><line style="stroke:#000000;stroke-width:1.5;" x1="103" x2="158.3486" y1="1056.2969" y2="1056.2969"/><text fill="#000000" font-family="sans-serif" font-size="14" font-weight="bold" lengthAdjust="spacing" textLength="42.3486" x="107" y="1048.9951">Perfil</text></g><g id="elem_IrARutinasYEjercicios"><ellipse cx="247.2716" cy="257.0543" fill="#F1F1F1" rx="98.2716" ry="22.0543" style="stroke:#181818;stroke-width:0.5;"/><text fill="#000000" font-family="sans-serif" font-size="14" lengthAdjust="spacing" textLength="160.2412" x="167.151" y="259.901">Ver rutinas y ejercicios</text></g><g id="elem_MostrarRutina"><ellipse cx="247.2954" cy="330.7591" fill="#F1F1F1" rx="71.7954" ry="16.7591" style="stroke:#181818;stroke-width:0.5;"/><text fill="#000000" font-family="sans-serif" font-size="14" lengthAdjust="spacing" textLength="97.6445" x="195.4731" y="334.5066">Mostar Rutina</text></g><g id="elem_CrearRutina"><ellipse cx="247.3702" cy="399.074" fill="#F1F1F1" rx="68.3702" ry="16.074" style="stroke:#181818;stroke-width:0.5;"/><text fill="#000000" font-family="sans-serif" font-size="14" lengthAdjust="spacing" textLength="88.3613" x="200.1896" y="402.8216">Crear Rutina</text></g><g id="elem_EditarRutina"><ellipse cx="247.4488" cy="466.7898" fill="#F1F1F1" rx="69.4488" ry="16.2898" style="stroke:#181818;stroke-width:0.5;"/><text fill="#000000" font-family="sans-serif" font-size="14" lengthAdjust="spacing" textLength="91.3281" x="198.7847" y="470.5373">Editar Rutina</text></g><g id="elem_BuscarRutina"><ellipse cx="247.3108" cy="535.7622" fill="#F1F1F1" rx="71.8108" ry="16.7622" style="stroke:#181818;stroke-width:0.5;"/><text fill="#000000" font-family="sans-serif" font-size="14" lengthAdjust="spacing" textLength="97.6855" x="195.468" y="539.5097">Buscar Rutina</text></g><g id="elem_MostrarEjercicio"><ellipse cx="247.2968" cy="606.7594" fill="#F1F1F1" rx="79.2968" ry="18.2594" style="stroke:#181818;stroke-width:0.5;"/><text fill="#000000" font-family="sans-serif" font-size="14" lengthAdjust="spacing" textLength="116.8125" x="186.9549" y="610.218">Mostrar Ejercicio</text></g><g id="elem_BuscarEjercicio"><ellipse cx="247.495" cy="678.799" fill="#F1F1F1" rx="76.995" ry="17.799" style="stroke:#181818;stroke-width:0.5;"/><text fill="#000000" font-family="sans-serif" font-size="14" lengthAdjust="spacing" textLength="111.0977" x="189.0739" y="682.5135">Buscar Ejercicio</text></g><g id="elem_IrARetos"><ellipse cx="247.3772" cy="786.7776" fill="#F1F1F1" rx="60.8772" ry="14.7776" style="stroke:#181818;stroke-width:0.5;"/><text fill="#000000" font-family="sans-serif" font-size="14" lengthAdjust="spacing" textLength="68.0859" x="210.3342" y="790.5251">Ver Retos</text></g><g id="elem_SubirEvidencia"><ellipse cx="247.3815" cy="860.1763" fill="#F1F1F1" rx="101.3815" ry="22.6763" style="stroke:#181818;stroke-width:0.5;"/><text fill="#000000" font-family="sans-serif" font-size="14" lengthAdjust="spacing" textLength="167.0977" x="163.8327" y="863.023">Subir Evidencia de Reto</text></g><g id="elem_IrAClasificacion"><ellipse cx="247.4426" cy="976.1885" fill="#F1F1F1" rx="78.9426" ry="18.1885" style="stroke:#181818;stroke-width:0.5;"/><text fill="#000000" font-family="sans-serif" font-size="14" lengthAdjust="spacing" textLength="115.9443" x="187.3963" y="979.6865">Ver Clasificacion</text></g><g id="elem_IrAPerfil"><ellipse cx="247.2638" cy="1083.7561" fill="#F1F1F1" rx="57.7638" ry="14.7561" style="stroke:#181818;stroke-width:0.5;"/><text fill="#000000" font-family="sans-serif" font-size="14" lengthAdjust="spacing" textLength="63.916" x="212.3058" y="1087.5037">Ver Perfil</text></g><g id="elem_InscribirEnClase"><ellipse cx="247.4057" cy="1153.0811" fill="#F1F1F1" rx="80.9057" ry="18.5811" style="stroke:#181818;stroke-width:0.5;"/><text fill="#000000" font-family="sans-serif" font-size="14" lengthAdjust="spacing" textLength="120.709" x="185.7214" y="1156.361">Inscribir en Clase</text></g><g id="elem_MostrarQRCentros"><ellipse cx="247.524" cy="1235.1048" fill="#F1F1F1" rx="128.524" ry="28.1048" style="stroke:#181818;stroke-width:0.5;"/><text fill="#000000" font-family="sans-serif" font-size="14" lengthAdjust="spacing" textLength="225.4561" x="134.796" y="1237.9515">Mostrar QR en Centro Deportivo</text></g><g id="elem_VerInsignias"><ellipse cx="247.5021" cy="1314.2004" fill="#F1F1F1" rx="69.0021" ry="16.2004" style="stroke:#181818;stroke-width:0.5;"/><text fill="#000000" font-family="sans-serif" font-size="14" lengthAdjust="spacing" textLength="90.1045" x="199.4498" y="1317.948">Ver Insignias</text></g><g id="elem_CerrarSesion"><ellipse cx="247.7333" cy="1382.0467" fill="#F1F1F1" rx="70.7333" ry="16.5467" style="stroke:#181818;stroke-width:0.5;"/><text fill="#000000" font-family="sans-serif" font-size="14" lengthAdjust="spacing" textLength="94.8076" x="197.3295" y="1385.7942">Cerrar Sesion</text></g><!--entity Alumno--><g id="elem_Alumno"><ellipse cx="32.708" cy="613.5" fill="#F1F1F1" rx="8" ry="8" style="stroke:#181818;stroke-width:0.5;"/><path d="M32.708,621.5 L32.708,648.5 M19.708,629.5 L45.708,629.5 M32.708,648.5 L19.708,663.5 M32.708,648.5 L45.708,663.5 " fill="none" style="stroke:#181818;stroke-width:0.5;"/><text fill="#000000" font-family="sans-serif" font-size="14" lengthAdjust="spacing" textLength="53.416" x="6" y="677.9951">Alumno</text></g><g id="elem_IngresarAlSistema"><ellipse cx="247.3192" cy="25.8638" fill="#F1F1F1" rx="87.3192" ry="19.8638" style="stroke:#181818;stroke-width:0.5;"/><text fill="#000000" font-family="sans-serif" font-size="14" lengthAdjust="spacing" textLength="135.6455" x="179.4964" y="28.7105">Ingresar al Sistema</text></g><g id="elem_IniciarSesion"><ellipse cx="247.7059" cy="97.9412" fill="#F1F1F1" rx="70.2059" ry="16.4412" style="stroke:#181818;stroke-width:0.5;"/><text fill="#000000" font-family="sans-serif" font-size="14" lengthAdjust="spacing" textLength="93.3857" x="198.013" y="101.6887">Iniciar Sesion</text></g><g id="elem_CambiarMenu"><ellipse cx="247.4474" cy="167.0895" fill="#F1F1F1" rx="73.4474" ry="17.0895" style="stroke:#181818;stroke-width:0.5;"/><text fill="#000000" font-family="sans-serif" font-size="14" lengthAdjust="spacing" textLength="101.9922" x="193.4513" y="170.837">Cambiar Menu</text></g><!--link Alumno to IngresarAlSistema--><g id="link_Alumno_IngresarAlSistema"><path d="M35.06,604.66 C40.38,481.99 59.53,104.82 95,64 C111.63,44.86 130.4531,35.8967 155.1031,30.6167 " fill="none" id="Alumno-to-IngresarAlSistema" style="stroke:#181818;stroke-width:1;"/><polygon fill="#181818" points="160.97,29.36,151.3318,27.3338,156.0809,30.4072,153.0074,35.1563,160.97,29.36" style="stroke:#181818;stroke-width:1;"/></g><!--link Alumno to IniciarSesion--><g id="link_Alumno_IniciarSesion"><path d="M35.58,604.83 C42.06,492.2 63.36,167.01 95,132 C115.61,109.2 141.9359,100.6253 171.4259,97.3853 " fill="none" id="Alumno-to-IniciarSesion" style="stroke:#181818;stroke-width:1;"/><polygon fill="#181818" points="177.39,96.73,168.007,93.7368,172.4199,97.2761,168.8807,101.689,177.39,96.73" style="stroke:#181818;stroke-width:1;"/></g><!--link Alumno to CerrarSesion--><g id="link_Alumno_CerrarSesion"><path d="M34.25,681.11 C37.35,820.42 51.09,1296.47 95,1347 C115.19,1370.23 141.4786,1379.0304 171.0386,1382.4004 " fill="none" id="Alumno-to-CerrarSesion" style="stroke:#181818;stroke-width:1;"/><polygon fill="#181818" points="177,1383.08,168.511,1378.0863,172.0322,1382.5136,167.6048,1386.0348,177,1383.08" style="stroke:#181818;stroke-width:1;"/></g><!--link Alumno to CambiarMenu--><g id="link_Alumno_CambiarMenu"><path d="M34.09,604.85 C36.28,511.97 46.58,277.41 95,219 C115.94,193.74 143.9003,181.9999 174.2903,175.3099 " fill="none" id="Alumno-to-CambiarMenu" style="stroke:#181818;stroke-width:1;"/><polygon fill="#181818" points="180.15,174.02,170.5005,172.0485,175.2669,175.095,172.2204,179.8614,180.15,174.02" style="stroke:#181818;stroke-width:1;"/></g><!--link Alumno to IrARutinasYEjercicios--><g id="link_Alumno_IrARutinasYEjercicios"><path d="M35.19,604.78 C39.52,524.18 53.79,340.49 95,296 C110.32,279.46 125.8348,271.1044 147.6448,265.2544 " fill="none" id="Alumno-to-IrARutinasYEjercicios" style="stroke:#181818;stroke-width:1;"/><polygon fill="#181818" points="153.44,263.7,143.711,262.1682,148.6107,264.9953,145.7835,269.895,153.44,263.7" style="stroke:#181818;stroke-width:1;"/></g><!--link Alumno to MostrarRutina--><g id="link_Alumno_MostrarRutina"><path d="M36.94,604.8 C43.84,536.73 61.67,398.43 95,365 C115.94,344 140.9001,335.5438 169.3501,331.8438 " fill="none" id="Alumno-to-MostrarRutina" style="stroke:#181818;stroke-width:1;"/><polygon fill="#181818" points="175.3,331.07,165.8593,328.2641,170.3418,331.7148,166.891,336.1973,175.3,331.07" style="stroke:#181818;stroke-width:1;"/></g><!--link Alumno to CrearRutina--><g id="link_Alumno_CrearRutina"><path d="M33.6,604.86 C35.89,557.59 47.2,477.83 95,433 C117.32,412.07 143.6655,403.7577 172.7255,400.1577 " fill="none" id="Alumno-to-CrearRutina" style="stroke:#181818;stroke-width:1;"/><polygon fill="#181818" points="178.68,399.42,169.2565,396.5568,173.7179,400.0347,170.24,404.4961,178.68,399.42" style="stroke:#181818;stroke-width:1;"/></g><!--link Alumno to EditarRutina--><g id="link_Alumno_EditarRutina"><path d="M40.05,604.95 C47.66,572.51 63.44,527.12 95,501 C118.15,481.84 143.9374,473.7377 172.3674,469.7777 " fill="none" id="Alumno-to-EditarRutina" style="stroke:#181818;stroke-width:1;"/><polygon fill="#181818" points="178.31,468.95,168.8442,466.2299,173.3578,469.6398,169.9479,474.1534,178.31,468.95" style="stroke:#181818;stroke-width:1;"/></g><!--link Alumno to MostrarEjercicio--><g id="link_Alumno_MostrarEjercicio"><path d="M59.19,638.66 C89.62,633.51 135.4839,625.7601 176.8939,618.7601 " fill="none" id="Alumno-to-MostrarEjercicio" style="stroke:#181818;stroke-width:1;"/><polygon fill="#181818" points="182.81,617.76,173.2692,615.316,177.8799,618.5934,174.6026,623.2041,182.81,617.76" style="stroke:#181818;stroke-width:1;"/></g><!--link Alumno to BuscarEjercicio--><g id="link_Alumno_BuscarEjercicio"><path d="M59.19,647.34 C90.06,652.56 136.994,660.4898 178.694,667.5398 " fill="none" id="Alumno-to-BuscarEjercicio" style="stroke:#181818;stroke-width:1;"/><polygon fill="#181818" points="184.61,668.54,176.4027,663.0957,179.68,667.7065,175.0691,670.9837,184.61,668.54" style="stroke:#181818;stroke-width:1;"/></g><!--link Alumno to BuscarRutina--><g id="link_Alumno_BuscarRutina"><path d="M58.52,604.88 C68.49,592.38 80.95,579.53 95,571 C120.5,555.52 146.2981,547.9146 174.1081,543.0946 " fill="none" id="Alumno-to-BuscarRutina" style="stroke:#181818;stroke-width:1;"/><polygon fill="#181818" points="180.02,542.07,170.4691,539.6657,175.0934,542.9239,171.8353,547.5482,180.02,542.07" style="stroke:#181818;stroke-width:1;"/></g><!--link Alumno to IrARetos--><g id="link_Alumno_IrARetos"><path d="M59.25,677.65 C69.46,689.84 81.89,702.99 95,713 C131.41,740.8 174.3253,760.1023 206.5353,772.5823 " fill="none" id="Alumno-to-IrARetos" style="stroke:#181818;stroke-width:1;"/><polygon fill="#181818" points="212.13,774.75,205.1831,767.7686,207.4677,772.9436,202.2928,775.2282,212.13,774.75" style="stroke:#181818;stroke-width:1;"/></g><!--link Alumno to SubirEvidencia--><g id="link_Alumno_SubirEvidencia"><path d="M36.61,681.21 C41.92,721.16 56.26,782.95 95,819 C111.66,834.5 127.7787,842.6448 149.7487,848.7448 " fill="none" id="Alumno-to-SubirEvidencia" style="stroke:#181818;stroke-width:1;"/><polygon fill="#181818" points="155.53,850.35,147.9282,844.088,150.7123,849.0123,145.7879,851.7964,155.53,850.35" style="stroke:#181818;stroke-width:1;"/></g><!--link Alumno to IrAClasificacion--><g id="link_Alumno_IrAClasificacion"><path d="M33.09,681.12 C34.44,735.2 44.31,834.78 95,899 C120.23,930.96 156.6082,948.8826 190.0182,960.4126 " fill="none" id="Alumno-to-IrAClasificacion" style="stroke:#181818;stroke-width:1;"/><polygon fill="#181818" points="195.69,962.37,188.4873,955.6528,190.9635,960.7389,185.8775,963.2151,195.69,962.37" style="stroke:#181818;stroke-width:1;"/></g><!--link Alumno to IrAPerfil--><g id="link_Alumno_IrAPerfil"><path d="M35.53,681.19 C40.64,764.32 56.45,958.36 95,1010 C121.09,1044.95 162.366,1062.6239 197.136,1072.6739 " fill="none" id="Alumno-to-IrAPerfil" style="stroke:#181818;stroke-width:1;"/><polygon fill="#181818" points="202.9,1074.34,195.3646,1067.9982,198.0966,1072.9516,193.1432,1075.6836,202.9,1074.34" style="stroke:#181818;stroke-width:1;"/></g><!--link Alumno to InscribirEnClase--><g id="link_Alumno_InscribirEnClase"><path d="M33.11,681.34 C32.9,782.3 37.83,1052.15 95,1116 C113.15,1136.27 134.4944,1145.2701 160.9044,1150.0101 " fill="none" id="Alumno-to-InscribirEnClase" style="stroke:#181818;stroke-width:1;"/><polygon fill="#181818" points="166.81,1151.07,158.6582,1145.543,161.8886,1150.1867,157.2449,1153.4172,166.81,1151.07" style="stroke:#181818;stroke-width:1;"/></g><!--link Alumno to MostrarQRCentros--><g id="link_Alumno_MostrarQRCentros"><path d="M35.39,681.15 C41.56,798.73 62.54,1150 95,1189 C106.69,1203.05 116.9682,1210.6492 134.0182,1217.5492 " fill="none" id="Alumno-to-MostrarQRCentros" style="stroke:#181818;stroke-width:1;"/><polygon fill="#181818" points="139.58,1219.8,132.7378,1212.7159,134.9452,1217.9243,129.7367,1220.1316,139.58,1219.8" style="stroke:#181818;stroke-width:1;"/></g><!--link Alumno to VerInsignias--><g id="link_Alumno_VerInsignias"><path d="M34.61,681.05 C38.77,811.48 55.25,1234.97 95,1280 C115.69,1303.44 142.7705,1312.0161 172.7205,1315.0461 " fill="none" id="Alumno-to-VerInsignias" style="stroke:#181818;stroke-width:1;"/><polygon fill="#181818" points="178.69,1315.65,170.1383,1310.7644,173.7154,1315.1467,169.3331,1318.7238,178.69,1315.65" style="stroke:#181818;stroke-width:1;"/></g><!--SRC=[TLJBRkCm3BphAuJU-miBPBCvv52WJO02UrGK9ikk8mMKNA0ezjzN5XsRzCCtpGo78aMwWKksELh2wvzipqZWCyPWZFCvajqqxIr4O-xE_tLNi4-7DcDmoNxPtGUGHuynFTblOylN9l0k5T4xaAL1249OW3rjUfFVeuNf3Ag9Cdg9AJkohA_H7KAE69a7R0cqlW9hwjqP9_QChEb_jibhFIDh-lwoOwja2GEucaU7CQYZpB_nQGwGOrfwYKeChUyEMdDiJrYIVU8PWaTdp-nL8oetK3BTjd49B-XTkKjOIgi4Z_GAb7QlG1TibdoOUHZmIQls8Nd2hWW8DIsm-W7lGWNDujky7MeKX4pH_e9xf8oVwg7U3ioc-TrA2hm6TDpUWWo0rcw1kbn7I8zUCC90rmTHp9KW5R5hx15JXflhgs5yq_Ie32a3eUrxgFSVfLjtEtNI5mWjtuE1xcmCRxjzVlwna4wHqbqGgYg9hsLP_1S8WLvtwIZsMi1gV-S-u_O8RhfOCwgtcrwyRfB09hioaUl9dv3zLAiMJuPtNimubuAJC_WV]--></g></svg>