<svg xmlns="http://www.w3.org/2000/svg" xmlns:xlink="http://www.w3.org/1999/xlink" contentStyleType="text/css" height="1110px" preserveAspectRatio="none" style="width:655px;height:1110px;background:#FFFFFF;" version="1.1" viewBox="0 0 655 1110" width="655px" zoomAndPan="magnify"><defs/><g><!--cluster Rutinas y Ejercicios--><g id="cluster_Rutinas y Ejercicios"><path d="M105.5,199 L260.2676,199 A3.75,3.75 0 0 1 262.7676,201.5 L269.7676,221.2969 L620.5,221.2969 A2.5,2.5 0 0 1 623,223.7969 L623,597.5 A2.5,2.5 0 0 1 620.5,600 L105.5,600 A2.5,2.5 0 0 1 103,597.5 L103,201.5 A2.5,2.5 0 0 1 105.5,199 " fill="none" style="stroke:#000000;stroke-width:1.5;"/><line style="stroke:#000000;stroke-width:1.5;" x1="103" x2="269.7676" y1="221.2969" y2="221.2969"/><text fill="#000000" font-family="sans-serif" font-size="14" font-weight="bold" lengthAdjust="spacing" textLength="153.7676" x="107" y="213.9951">Rutinas y Ejercicios</text></g><!--cluster Rutinas--><g id="cluster_Rutinas"><path d="M418,355 L478.9854,355 A3.75,3.75 0 0 1 481.4854,357.5 L488.4854,377.2969 L589,377.2969 A2.5,2.5 0 0 1 591.5,379.7969 L591.5,573.5 A2.5,2.5 0 0 1 589,576 L418,576 A2.5,2.5 0 0 1 415.5,573.5 L415.5,357.5 A2.5,2.5 0 0 1 418,355 " fill="none" style="stroke:#000000;stroke-width:1.5;"/><line style="stroke:#000000;stroke-width:1.5;" x1="415.5" x2="488.4854" y1="377.2969" y2="377.2969"/><text fill="#000000" font-family="sans-serif" font-size="14" font-weight="bold" lengthAdjust="spacing" textLength="59.9854" x="419.5" y="369.9951">Rutinas</text></g><!--cluster Ejercicios--><g id="cluster_Ejercicios"><path d="M410.5,242 L486.4082,242 A3.75,3.75 0 0 1 488.9082,244.5 L495.9082,264.2969 L596.5,264.2969 A2.5,2.5 0 0 1 599,266.7969 L599,328.5 A2.5,2.5 0 0 1 596.5,331 L410.5,331 A2.5,2.5 0 0 1 408,328.5 L408,244.5 A2.5,2.5 0 0 1 410.5,242 " fill="none" style="stroke:#000000;stroke-width:1.5;"/><line style="stroke:#000000;stroke-width:1.5;" x1="408" x2="495.9082" y1="264.2969" y2="264.2969"/><text fill="#000000" font-family="sans-serif" font-size="14" font-weight="bold" lengthAdjust="spacing" textLength="74.9082" x="412" y="256.9951">Ejercicios</text></g><!--cluster Retos--><g id="cluster_Retos"><path d="M143.5,624 L189.4189,624 A3.75,3.75 0 0 1 191.9189,626.5 L198.9189,646.2969 L618.5,646.2969 A2.5,2.5 0 0 1 621,648.7969 L621,718.5 A2.5,2.5 0 0 1 618.5,721 L143.5,721 A2.5,2.5 0 0 1 141,718.5 L141,626.5 A2.5,2.5 0 0 1 143.5,624 " fill="none" style="stroke:#000000;stroke-width:1.5;"/><line style="stroke:#000000;stroke-width:1.5;" x1="141" x2="198.9189" y1="646.2969" y2="646.2969"/><text fill="#000000" font-family="sans-serif" font-size="14" font-weight="bold" lengthAdjust="spacing" textLength="44.9189" x="145" y="638.9951">Retos</text></g><!--cluster Clasificacion--><g id="cluster_Clasificacion"><path d="M125,745 L224.9707,745 A3.75,3.75 0 0 1 227.4707,747.5 L234.4707,767.2969 L309,767.2969 A2.5,2.5 0 0 1 311.5,769.7969 L311.5,829.5 A2.5,2.5 0 0 1 309,832 L125,832 A2.5,2.5 0 0 1 122.5,829.5 L122.5,747.5 A2.5,2.5 0 0 1 125,745 " fill="none" style="stroke:#000000;stroke-width:1.5;"/><line style="stroke:#000000;stroke-width:1.5;" x1="122.5" x2="234.4707" y1="767.2969" y2="767.2969"/><text fill="#000000" font-family="sans-serif" font-size="14" font-weight="bold" lengthAdjust="spacing" textLength="98.9707" x="126.5" y="759.9951">Clasificacion</text></g><!--cluster Perfil--><g id="cluster_Perfil"><path d="M146.5,856 L189.8486,856 A3.75,3.75 0 0 1 192.3486,858.5 L199.3486,878.2969 L645.5,878.2969 A2.5,2.5 0 0 1 648,880.7969 L648,1100.5 A2.5,2.5 0 0 1 645.5,1103 L146.5,1103 A2.5,2.5 0 0 1 144,1100.5 L144,858.5 A2.5,2.5 0 0 1 146.5,856 " fill="none" style="stroke:#000000;stroke-width:1.5;"/><line style="stroke:#000000;stroke-width:1.5;" x1="144" x2="199.3486" y1="878.2969" y2="878.2969"/><text fill="#000000" font-family="sans-serif" font-size="14" font-weight="bold" lengthAdjust="spacing" textLength="42.3486" x="148" y="870.9951">Perfil</text></g><g id="elem_IrARutinasYEjercicios"><ellipse cx="216.8054" cy="440.9611" fill="#F1F1F1" rx="97.8054" ry="21.9611" style="stroke:#181818;stroke-width:0.5;"/><text fill="#000000" font-family="sans-serif" font-size="14" lengthAdjust="spacing" textLength="159.209" x="137.2009" y="443.8078">Ir a rutinas y ejercicios</text></g><g id="elem_MostrarRutina"><ellipse cx="503.2954" cy="406.7591" fill="#F1F1F1" rx="71.7954" ry="16.7591" style="stroke:#181818;stroke-width:0.5;"/><text fill="#000000" font-family="sans-serif" font-size="14" lengthAdjust="spacing" textLength="97.6445" x="451.4731" y="410.5066">Mostar Rutina</text></g><g id="elem_CrearRutina"><ellipse cx="503.3702" cy="475.074" fill="#F1F1F1" rx="68.3702" ry="16.074" style="stroke:#181818;stroke-width:0.5;"/><text fill="#000000" font-family="sans-serif" font-size="14" lengthAdjust="spacing" textLength="88.3613" x="456.1896" y="478.8216">Crear Rutina</text></g><g id="elem_EditarRutina"><ellipse cx="503.4488" cy="542.7898" fill="#F1F1F1" rx="69.4488" ry="16.2898" style="stroke:#181818;stroke-width:0.5;"/><text fill="#000000" font-family="sans-serif" font-size="14" lengthAdjust="spacing" textLength="91.3281" x="454.7847" y="546.5373">Editar Rutina</text></g><g id="elem_MostrarEjercicio"><ellipse cx="503.2968" cy="295.7594" fill="#F1F1F1" rx="79.2968" ry="18.2594" style="stroke:#181818;stroke-width:0.5;"/><text fill="#000000" font-family="sans-serif" font-size="14" lengthAdjust="spacing" textLength="116.8125" x="442.9549" y="299.218">Mostrar Ejercicio</text></g><g id="elem_IrARetos"><ellipse cx="217.1065" cy="677.7725" fill="#F1F1F1" rx="60.1065" ry="14.7725" style="stroke:#181818;stroke-width:0.5;"/><text fill="#000000" font-family="sans-serif" font-size="14" lengthAdjust="spacing" textLength="67.0537" x="180.5796" y="681.52">Ir a Retos</text></g><g id="elem_SubirEvidencia"><ellipse cx="503.3815" cy="682.1763" fill="#F1F1F1" rx="101.3815" ry="22.6763" style="stroke:#181818;stroke-width:0.5;"/><text fill="#000000" font-family="sans-serif" font-size="14" lengthAdjust="spacing" textLength="167.0977" x="419.8327" y="685.023">Subir Evidencia de Reto</text></g><g id="elem_IrAClasificacion"><ellipse cx="217.0235" cy="798.1047" fill="#F1F1F1" rx="78.5235" ry="18.1047" style="stroke:#181818;stroke-width:0.5;"/><text fill="#000000" font-family="sans-serif" font-size="14" lengthAdjust="spacing" textLength="114.9121" x="157.3269" y="801.6493">Ir a Clasificacion</text></g><g id="elem_IrAPerfil"><ellipse cx="216.9931" cy="946.7505" fill="#F1F1F1" rx="56.9931" ry="14.7505" style="stroke:#181818;stroke-width:0.5;"/><text fill="#000000" font-family="sans-serif" font-size="14" lengthAdjust="spacing" textLength="62.8838" x="182.5512" y="950.498">Ir a Perfil</text></g><g id="elem_InscribirEnClase"><ellipse cx="503.4057" cy="1068.0811" fill="#F1F1F1" rx="80.9057" ry="18.5811" style="stroke:#181818;stroke-width:0.5;"/><text fill="#000000" font-family="sans-serif" font-size="14" lengthAdjust="spacing" textLength="120.709" x="441.7214" y="1071.361">Inscribir en Clase</text></g><g id="elem_MostrarQRCentros"><ellipse cx="503.524" cy="986.1048" fill="#F1F1F1" rx="128.524" ry="28.1048" style="stroke:#181818;stroke-width:0.5;"/><text fill="#000000" font-family="sans-serif" font-size="14" lengthAdjust="spacing" textLength="225.4561" x="390.796" y="988.9515">Mostrar QR en Centro Deportivo</text></g><g id="elem_VerInsignias"><ellipse cx="503.5021" cy="907.2004" fill="#F1F1F1" rx="69.0021" ry="16.2004" style="stroke:#181818;stroke-width:0.5;"/><text fill="#000000" font-family="sans-serif" font-size="14" lengthAdjust="spacing" textLength="90.1045" x="455.4498" y="910.948">Ver Insignias</text></g><!--entity Alumno--><g id="elem_Alumno"><ellipse cx="32.708" cy="411.5" fill="#F1F1F1" rx="8" ry="8" style="stroke:#181818;stroke-width:0.5;"/><path d="M32.708,419.5 L32.708,446.5 M19.708,427.5 L45.708,427.5 M32.708,446.5 L19.708,461.5 M32.708,446.5 L45.708,461.5 " fill="none" style="stroke:#181818;stroke-width:0.5;"/><text fill="#000000" font-family="sans-serif" font-size="14" lengthAdjust="spacing" textLength="53.416" x="6" y="475.9951">Alumno</text></g><g id="elem_IngresarAlSistema"><ellipse cx="216.8192" cy="25.8638" fill="#F1F1F1" rx="87.3192" ry="19.8638" style="stroke:#181818;stroke-width:0.5;"/><text fill="#000000" font-family="sans-serif" font-size="14" lengthAdjust="spacing" textLength="135.6455" x="148.9964" y="28.7105">Ingresar al Sistema</text></g><g id="elem_IniciarSesion"><ellipse cx="217.2059" cy="97.9412" fill="#F1F1F1" rx="70.2059" ry="16.4412" style="stroke:#181818;stroke-width:0.5;"/><text fill="#000000" font-family="sans-serif" font-size="14" lengthAdjust="spacing" textLength="93.3857" x="167.513" y="101.6887">Iniciar Sesion</text></g><g id="elem_CerrarSesion"><ellipse cx="217.2333" cy="166.0467" fill="#F1F1F1" rx="70.7333" ry="16.5467" style="stroke:#181818;stroke-width:0.5;"/><text fill="#000000" font-family="sans-serif" font-size="14" lengthAdjust="spacing" textLength="94.8076" x="166.8295" y="169.7942">Cerrar Sesion</text></g><!--link Alumno to IngresarAlSistema--><g id="link_Alumno_IngresarAlSistema"><path d="M34.77,402.93 C38.36,317.54 51.4,114.3 95,64 C106.83,50.36 117.791,43.4265 134.981,37.7665 " fill="none" id="Alumno-to-IngresarAlSistema" style="stroke:#181818;stroke-width:1;"/><polygon fill="#181818" points="140.68,35.89,130.8805,34.9054,135.9308,37.4537,133.3824,42.5041,140.68,35.89" style="stroke:#181818;stroke-width:1;"/></g><!--link Alumno to IniciarSesion--><g id="link_Alumno_IniciarSesion"><path d="M36.19,402.83 C42.14,329.13 58.87,171.04 95,132 C109.3,116.55 124.169,109.2823 144.429,104.5223 " fill="none" id="Alumno-to-IniciarSesion" style="stroke:#181818;stroke-width:1;"/><polygon fill="#181818" points="150.27,103.15,140.5937,101.3145,145.4025,104.2936,142.4234,109.1024,150.27,103.15" style="stroke:#181818;stroke-width:1;"/></g><!--link Alumno to CerrarSesion--><g id="link_Alumno_CerrarSesion"><path d="M34.28,402.81 C37.24,354.28 49.21,270.52 95,218 C112.88,197.49 134.5615,186.6264 158.7715,178.9364 " fill="none" id="Alumno-to-CerrarSesion" style="stroke:#181818;stroke-width:1;"/><polygon fill="#181818" points="164.49,177.12,154.7014,176.0323,159.7246,178.6337,157.1232,183.6569,164.49,177.12" style="stroke:#181818;stroke-width:1;"/></g><!--link Alumno to IrARutinasYEjercicios--><g id="link_Alumno_IrARutinasYEjercicios"><path d="M59.26,441 C75.18,441 90.71,441 112.72,441 " fill="none" id="Alumno-to-IrARutinasYEjercicios" style="stroke:#181818;stroke-width:1;"/><polygon fill="#181818" points="118.72,441,109.72,437,113.72,441,109.72,445,118.72,441" style="stroke:#181818;stroke-width:1;"/></g><!--link IrARutinasYEjercicios to MostrarRutina--><g id="link_IrARutinasYEjercicios_MostrarRutina"><path d="M303.75,430.75 C347.1,425.57 392.8624,420.1023 432.6724,415.3423 " fill="none" id="IrARutinasYEjercicios-to-MostrarRutina" style="stroke:#181818;stroke-width:1;"/><polygon fill="#181818" points="438.63,414.63,429.2188,411.7268,433.6654,415.2236,430.1685,419.6702,438.63,414.63" style="stroke:#181818;stroke-width:1;"/></g><!--link IrARutinasYEjercicios to CrearRutina--><g id="link_IrARutinasYEjercicios_CrearRutina"><path d="M303.75,451.25 C348.41,456.59 395.9924,462.268 436.2424,467.078 " fill="none" id="IrARutinasYEjercicios-to-CrearRutina" style="stroke:#181818;stroke-width:1;"/><polygon fill="#181818" points="442.2,467.79,433.7382,462.7503,437.2353,467.1967,432.7889,470.6938,442.2,467.79" style="stroke:#181818;stroke-width:1;"/></g><!--link IrARutinasYEjercicios to EditarRutina--><g id="link_IrARutinasYEjercicios_EditarRutina"><path d="M260.03,460.78 C291.31,475.04 335.27,494.14 375,508 C400.68,516.96 424.1004,523.6204 448.0804,529.8104 " fill="none" id="IrARutinasYEjercicios-to-EditarRutina" style="stroke:#181818;stroke-width:1;"/><polygon fill="#181818" points="453.89,531.31,446.1754,525.1875,449.0487,530.0603,444.1759,532.9336,453.89,531.31" style="stroke:#181818;stroke-width:1;"/></g><!--link IrARutinasYEjercicios to MostrarEjercicio--><g id="link_IrARutinasYEjercicios_MostrarEjercicio"><path d="M257.56,420.84 C314.05,392.05 411.4641,342.3942 464.1141,315.5642 " fill="none" id="IrARutinasYEjercicios-to-MostrarEjercicio" style="stroke:#181818;stroke-width:1;"/><polygon fill="#181818" points="469.46,312.84,459.625,313.3624,465.0051,315.1102,463.2573,320.4903,469.46,312.84" style="stroke:#181818;stroke-width:1;"/></g><!--link Alumno to IrARetos--><g id="link_Alumno_IrARetos"><path d="M41.13,479.11 C49.59,513.65 66.02,564.43 95,600 C119.47,630.03 153.2513,649.7136 180.3613,662.6036 " fill="none" id="Alumno-to-IrARetos" style="stroke:#181818;stroke-width:1;"/><polygon fill="#181818" points="185.78,665.18,179.3696,657.7029,181.2644,663.033,175.9344,664.9278,185.78,665.18" style="stroke:#181818;stroke-width:1;"/></g><!--link IrARetos to SubirEvidencia--><g id="link_IrARetos_SubirEvidencia"><path d="M276.95,678.83 C313.08,679.34 354.2806,679.9155 396.1606,680.5055 " fill="none" id="IrARetos-to-SubirEvidencia" style="stroke:#181818;stroke-width:1;"/><polygon fill="#181818" points="402.16,680.59,393.2172,676.4636,397.1605,680.5196,393.1045,684.4628,402.16,680.59" style="stroke:#181818;stroke-width:1;"/></g><!--link Alumno to IrAClasificacion--><g id="link_Alumno_IrAClasificacion"><path d="M32.94,479.05 C33.91,536.56 43.1,646.76 95,721 C114.97,749.57 143.8514,767.386 170.8514,779.966 " fill="none" id="Alumno-to-IrAClasificacion" style="stroke:#181818;stroke-width:1;"/><polygon fill="#181818" points="176.29,782.5,169.8214,775.0732,171.7578,780.3883,166.4427,782.3248,176.29,782.5" style="stroke:#181818;stroke-width:1;"/></g><!--link Alumno to IrAPerfil--><g id="link_Alumno_IrAPerfil"><path d="M36.38,479.24 C43.34,565.2 62.94,770.93 95,832 C118.44,876.65 160.9586,910.3413 188.9686,929.5113 " fill="none" id="Alumno-to-IrAPerfil" style="stroke:#181818;stroke-width:1;"/><polygon fill="#181818" points="193.92,932.9,188.752,924.516,189.7938,930.0761,184.2337,931.1178,193.92,932.9" style="stroke:#181818;stroke-width:1;"/></g><!--link IrAPerfil to InscribirEnClase--><g id="link_IrAPerfil_InscribirEnClase"><path d="M240.16,960.78 C269.93,978.83 324.9,1010.59 375,1031 C398.05,1040.39 418.5607,1046.8639 441.2607,1053.0439 " fill="none" id="IrAPerfil-to-InscribirEnClase" style="stroke:#181818;stroke-width:1;"/><polygon fill="#181818" points="447.05,1054.62,439.4168,1048.3963,442.2256,1053.3066,437.3153,1056.1154,447.05,1054.62" style="stroke:#181818;stroke-width:1;"/></g><!--link IrAPerfil to MostrarQRCentros--><g id="link_IrAPerfil_MostrarQRCentros"><path d="M267.88,953.84 C302.78,958.62 344.8056,964.385 388.2756,970.345 " fill="none" id="IrAPerfil-to-MostrarQRCentros" style="stroke:#181818;stroke-width:1;"/><polygon fill="#181818" points="394.22,971.16,385.8468,965.9746,389.2663,970.4808,384.7601,973.9004,394.22,971.16" style="stroke:#181818;stroke-width:1;"/></g><!--link IrAPerfil to VerInsignias--><g id="link_IrAPerfil_VerInsignias"><path d="M267.56,940.03 C316.75,933.12 386.1985,923.3556 438.2485,916.0356 " fill="none" id="IrAPerfil-to-VerInsignias" style="stroke:#181818;stroke-width:1;"/><polygon fill="#181818" points="444.19,915.2,434.7206,912.4924,439.2387,915.8963,435.8348,920.4144,444.19,915.2" style="stroke:#181818;stroke-width:1;"/></g><!--SRC=[XLFBQiCm4BpxAvRSymk5aEQGGw5neD2ZAc_SRHqfhEH0AVdtof8VacpJdEpPsPdrPBV1YmMhWQd-j50HexIaLL48QJN3hcclIXV5JSXlKIDiojQI4WP-uF25B4cIDXluBS3zMeDI64SwCWZWaOaHqm57tlKgxvD6uHLocq4vKN_HnWg6GF6A7SA20p9ls3EcV0-iiGyLPV81YVYFRDfv5BE1tNXJOl7G8zWhFwQmIxJQB6RhAsEOtKjAEhSVvFpkLA6I9A0AOhx3ryPIxBTlXA4BIU6cKOk-2MFmJy1OxnNvGisYK2WD2k4jeoaZcRhFGELzCR07-A0yM2mcVIfz5ohB6fxnfjdIFOdzL8Pg5jmRScT1jI8H0dR827GV5mrOCnfd9Xeuax5u5Vs40TyrFHgtk3_QTPpHZFa5A20JSu_CAJ4WFQy8TmdRxTE2NrACvQF2kjpYTIwYdf_UtZellhbrLd9g_vfEjvD_WJ-9uS6ZsTfd3UaEPyL-FSUdFjbi4TFoRCtIShnLVm00]--></g></svg>