<svg xmlns="http://www.w3.org/2000/svg" xmlns:xlink="http://www.w3.org/1999/xlink" contentStyleType="text/css" height="732px" preserveAspectRatio="none" style="width:718px;height:732px;background:#FFFFFF;" version="1.1" viewBox="0 0 718 732" width="718px" zoomAndPan="magnify"><defs/><g><!--entity Alumno--><g id="elem_Alumno"><ellipse cx="32.708" cy="345.5" fill="#F1F1F1" rx="8" ry="8" style="stroke:#181818;stroke-width:0.5;"/><path d="M32.708,353.5 L32.708,380.5 M19.708,361.5 L45.708,361.5 M32.708,380.5 L19.708,395.5 M32.708,380.5 L45.708,395.5 " fill="none" style="stroke:#181818;stroke-width:0.5;"/><text fill="#000000" font-family="sans-serif" font-size="14" lengthAdjust="spacing" textLength="53.416" x="6" y="409.9951">Alumno</text></g><g id="elem_VerClasificaciones"><ellipse cx="262.4426" cy="24.1885" fill="#F1F1F1" rx="78.9426" ry="18.1885" style="stroke:#181818;stroke-width:0.5;"/><text fill="#000000" font-family="sans-serif" font-size="14" lengthAdjust="spacing" textLength="115.9443" x="202.3963" y="27.6865">Ver Clasificacion</text></g><g id="elem_UsarRutinas"><ellipse cx="262.5287" cy="93.1057" fill="#F1F1F1" rx="66.0287" ry="15.6057" style="stroke:#181818;stroke-width:0.5;"/><text fill="#000000" font-family="sans-serif" font-size="14" lengthAdjust="spacing" textLength="81.7578" x="218.6498" y="96.8533">Usar Rutina</text></g><g id="elem_CompletarRetosObligatorios"><ellipse cx="262.2919" cy="168.9584" fill="#F1F1F1" rx="112.7919" ry="24.9584" style="stroke:#181818;stroke-width:0.5;"/><text fill="#000000" font-family="sans-serif" font-size="14" lengthAdjust="spacing" textLength="191.9053" x="166.3393" y="171.8051">Completar Reto Obligatorio</text></g><g id="elem_CompletarRetosOpcionales"><ellipse cx="262.3986" cy="252.9797" fill="#F1F1F1" rx="105.3986" ry="23.4797" style="stroke:#181818;stroke-width:0.5;"/><text fill="#000000" font-family="sans-serif" font-size="14" lengthAdjust="spacing" textLength="175.8887" x="174.4542" y="255.8264">Completar Reto Opcional</text></g><g id="elem_InscribirseClases"><ellipse cx="262.7444" cy="331.9489" fill="#F1F1F1" rx="87.7444" ry="19.9489" style="stroke:#181818;stroke-width:0.5;"/><text fill="#000000" font-family="sans-serif" font-size="14" lengthAdjust="spacing" textLength="136.6162" x="194.4363" y="334.7956">Inscribirse en Clase</text></g><g id="elem_UsarQR"><ellipse cx="262.2718" cy="417.8544" fill="#F1F1F1" rx="142.2718" ry="30.8544" style="stroke:#181818;stroke-width:0.5;"/><text fill="#000000" font-family="sans-serif" font-size="14" lengthAdjust="spacing" textLength="254.3584" x="135.0926" y="420.701">Mostrar QR para Centros Deportivos</text></g><g id="elem_IniciarSesion"><ellipse cx="262.7059" cy="500.9412" fill="#F1F1F1" rx="70.2059" ry="16.4412" style="stroke:#181818;stroke-width:0.5;"/><text fill="#000000" font-family="sans-serif" font-size="14" lengthAdjust="spacing" textLength="93.3857" x="213.013" y="504.6887">Iniciar Sesi&#243;n</text></g><g id="elem_CerrarSesion"><ellipse cx="262.7333" cy="569.0467" fill="#F1F1F1" rx="70.7333" ry="16.5467" style="stroke:#181818;stroke-width:0.5;"/><text fill="#000000" font-family="sans-serif" font-size="14" lengthAdjust="spacing" textLength="94.8076" x="212.3295" y="572.7942">Cerrar Sesi&#243;n</text></g><g id="elem_VolverInicio"><ellipse cx="262.3727" cy="638.1745" fill="#F1F1F1" rx="73.8727" ry="17.1745" style="stroke:#181818;stroke-width:0.5;"/><text fill="#000000" font-family="sans-serif" font-size="14" lengthAdjust="spacing" textLength="103.0996" x="207.8229" y="641.9221">Volver al Inicio</text></g><g id="elem_CrearRutinaPersonalizada"><ellipse cx="262.3702" cy="706.074" fill="#F1F1F1" rx="68.3702" ry="16.074" style="stroke:#181818;stroke-width:0.5;"/><text fill="#000000" font-family="sans-serif" font-size="14" lengthAdjust="spacing" textLength="88.3613" x="215.1896" y="709.8216">Crear Rutina</text></g><g id="elem_SeleccionarEjercicios"><ellipse cx="621.1567" cy="706.1313" fill="#F1F1F1" rx="91.1567" ry="20.6313" style="stroke:#181818;stroke-width:0.5;"/><text fill="#000000" font-family="sans-serif" font-size="14" lengthAdjust="spacing" textLength="144.3545" x="548.9795" y="708.978">Seleccionar Ejercicio</text></g><!--link Alumno to VerClasificaciones--><g id="link_Alumno_VerClasificaciones"><path d="M38.68,336.94 C49.76,261.38 78.22,96.54 120,60 C138.6,43.73 157.6899,35.8717 181.4699,30.8417 " fill="none" id="Alumno-to-VerClasificaciones" style="stroke:#181818;stroke-width:1;"/><polygon fill="#181818" points="187.34,29.6,177.7071,27.5491,182.4482,30.6347,179.3626,35.3759,187.34,29.6" style="stroke:#181818;stroke-width:1;"/></g><!--link Alumno to UsarRutinas--><g id="link_Alumno_UsarRutinas"><path d="M35.66,336.76 C40.88,281.82 58.77,181.1 120,126 C140.81,107.27 164.2416,99.4376 190.8316,95.5976 " fill="none" id="Alumno-to-UsarRutinas" style="stroke:#181818;stroke-width:1;"/><polygon fill="#181818" points="196.77,94.74,187.2907,92.0675,191.8213,95.4547,188.4341,99.9853,196.77,94.74" style="stroke:#181818;stroke-width:1;"/></g><!--link Alumno to CompletarRetosObligatorios--><g id="link_Alumno_CompletarRetosObligatorios"><path d="M44.29,336.83 C56.69,299.77 80.56,244.49 120,212 C135.16,199.51 148.2094,192.5519 167.0294,186.2619 " fill="none" id="Alumno-to-CompletarRetosObligatorios" style="stroke:#181818;stroke-width:1;"/><polygon fill="#181818" points="172.72,184.36,162.9162,183.4191,167.9778,185.9449,165.4521,191.0066,172.72,184.36" style="stroke:#181818;stroke-width:1;"/></g><!--link Alumno to CompletarRetosOpcionales--><g id="link_Alumno_CompletarRetosOpcionales"><path d="M59.21,344.67 C75.15,327.59 96.93,307.13 120,294 C139.34,283 156.1122,276.393 177.4322,270.283 " fill="none" id="Alumno-to-CompletarRetosOpcionales" style="stroke:#181818;stroke-width:1;"/><polygon fill="#181818" points="183.2,268.63,173.4463,267.2642,178.3935,270.0075,175.6503,274.9547,183.2,268.63" style="stroke:#181818;stroke-width:1;"/></g><!--link Alumno to InscribirseClases--><g id="link_Alumno_InscribirseClases"><path d="M59.21,370.15 C91.7,364.02 142.9539,354.3518 188.2439,345.8118 " fill="none" id="Alumno-to-InscribirseClases" style="stroke:#181818;stroke-width:1;"/><polygon fill="#181818" points="194.14,344.7,184.5547,342.4369,189.2266,345.6265,186.037,350.2984,194.14,344.7" style="stroke:#181818;stroke-width:1;"/></g><!--link Alumno to UsarQR--><g id="link_Alumno_UsarQR"><path d="M59.21,379.85 C82.62,384.26 112.9341,389.9772 148.2741,396.6472 " fill="none" id="Alumno-to-UsarQR" style="stroke:#181818;stroke-width:1;"/><polygon fill="#181818" points="154.17,397.76,146.068,392.1602,149.2567,396.8327,144.5843,400.0214,154.17,397.76" style="stroke:#181818;stroke-width:1;"/></g><!--link Alumno to IniciarSesion--><g id="link_Alumno_IniciarSesion"><path d="M59.03,410.43 C74.59,429.58 96.07,452.09 120,466 C144.17,480.05 167.9507,487.3526 193.8707,492.4026 " fill="none" id="Alumno-to-IniciarSesion" style="stroke:#181818;stroke-width:1;"/><polygon fill="#181818" points="199.76,493.55,191.691,487.9027,194.8523,492.5938,190.1612,495.7551,199.76,493.55" style="stroke:#181818;stroke-width:1;"/></g><!--link Alumno to CerrarSesion--><g id="link_Alumno_CerrarSesion"><path d="M44.2,413.32 C56.47,450.09 80.2,504.4 120,535 C141.23,551.32 163.2323,558.9119 188.6523,563.4219 " fill="none" id="Alumno-to-CerrarSesion" style="stroke:#181818;stroke-width:1;"/><polygon fill="#181818" points="194.56,564.47,186.3972,558.9593,189.6369,563.5965,184.9996,566.8363,194.56,564.47" style="stroke:#181818;stroke-width:1;"/></g><!--link Alumno to VolverInicio--><g id="link_Alumno_VolverInicio"><path d="M37.23,413.4 C44.27,464.34 64.24,553.57 120,603 C139.31,620.12 159.804,628.0479 184.564,632.7179 " fill="none" id="Alumno-to-VolverInicio" style="stroke:#181818;stroke-width:1;"/><polygon fill="#181818" points="190.46,633.83,182.3573,628.2312,185.5466,632.9033,180.8746,636.0926,190.46,633.83" style="stroke:#181818;stroke-width:1;"/></g><!--link Alumno to CrearRutinaPersonalizada--><g id="link_Alumno_CrearRutinaPersonalizada"><path d="M32.83,413.13 C33.9,476.82 45.87,604.59 120,673 C140.02,691.48 162.3978,699.3405 188.4478,703.2905 " fill="none" id="Alumno-to-CrearRutinaPersonalizada" style="stroke:#181818;stroke-width:1;"/><polygon fill="#181818" points="194.38,704.19,186.0814,698.8859,189.4365,703.4404,184.882,706.7955,194.38,704.19" style="stroke:#181818;stroke-width:1;"/></g><!--link CrearRutinaPersonalizada to SeleccionarEjercicios--><g id="link_CrearRutinaPersonalizada_SeleccionarEjercicios"><path d="M331.39,706 C387.66,706 462.1,706 523.78,706 " fill="none" id="CrearRutinaPersonalizada-to-SeleccionarEjercicios" style="stroke:#181818;stroke-width:1;"/><polygon fill="#181818" points="529.78,706,520.78,702,524.78,706,520.78,710,529.78,706" style="stroke:#181818;stroke-width:1;"/><text fill="#000000" font-family="sans-serif" font-size="13" lengthAdjust="spacing" textLength="63.0068" x="436" y="702.0669">&#171;include&#187;</text></g><!--SRC=[VL9BRW8n3Dtd51PxBb0Xf8fsqKNLCgZiGp3KLKX6TeP5hzKZz6BD96Z6K63fzudjvtZS9KWHcFQV2RR4w1B5O8nrAJ8y-kuGeZ6TeBE2C5aZmy9ReHqvwx9o0bOWesSWokZu4ClGT8c2BTg-hgKIBUAXzPXw9UPftZQUzZOFGB5u1hfdHR5tdcZxGQo_vZzHUigN88vfGvmB36L5B5P5551vNgCaplsM3RIMBImm98u2JzX6JdICCYoyR7GhSfHjAnJw_GcdBWNheHp-k1CoNoWhT2bSHt_Cbx6-lbHJgs05r9kCvmSfGAtVaQLFXhxjrewM5Nfq9JE6vozaDxHGp428CVNRm7Gwl_Or5Ai_WuBltFksQhogqlm_tqNtV9apkRw3xgLZr-lfZBN-LgZc5bDiL_E41vZDA3ZVRN4-_mC0]--></g></svg>