<svg xmlns="http://www.w3.org/2000/svg" xmlns:xlink="http://www.w3.org/1999/xlink" contentStyleType="text/css" height="1212px" preserveAspectRatio="none" style="width:380px;height:1212px;background:#FFFFFF;" version="1.1" viewBox="0 0 380 1212" width="380px" zoomAndPan="magnify"><defs/><g><!--cluster Gesti?n de Usuario--><g id="cluster_Gesti&#243;n de Usuario"><path d="M139,6 L290.0967,6 A3.75,3.75 0 0 1 292.5967,8.5 L299.5967,28.2969 L329,28.2969 A2.5,2.5 0 0 1 331.5,30.7969 L331.5,231.5 A2.5,2.5 0 0 1 329,234 L139,234 A2.5,2.5 0 0 1 136.5,231.5 L136.5,8.5 A2.5,2.5 0 0 1 139,6 " fill="none" style="stroke:#000000;stroke-width:1.5;"/><line style="stroke:#000000;stroke-width:1.5;" x1="136.5" x2="299.5967" y1="28.2969" y2="28.2969"/><text fill="#000000" font-family="sans-serif" font-size="14" font-weight="bold" lengthAdjust="spacing" textLength="150.0967" x="140.5" y="20.9951">Gesti&#243;n de Usuario</text></g><!--cluster Gesti?n de Rutina--><g id="cluster_Gesti&#243;n de Rutina"><path d="M130,258 L272.3125,258 A3.75,3.75 0 0 1 274.8125,260.5 L281.8125,280.2969 L338,280.2969 A2.5,2.5 0 0 1 340.5,282.7969 L340.5,486.5 A2.5,2.5 0 0 1 338,489 L130,489 A2.5,2.5 0 0 1 127.5,486.5 L127.5,260.5 A2.5,2.5 0 0 1 130,258 " fill="none" style="stroke:#000000;stroke-width:1.5;"/><line style="stroke:#000000;stroke-width:1.5;" x1="127.5" x2="281.8125" y1="280.2969" y2="280.2969"/><text fill="#000000" font-family="sans-serif" font-size="14" font-weight="bold" lengthAdjust="spacing" textLength="141.3125" x="131.5" y="272.9951">Gesti&#243;n de Rutina</text></g><!--cluster Gesti?n de Reto--><g id="cluster_Gesti&#243;n de Reto"><path d="M147.5,513 L274.7461,513 A3.75,3.75 0 0 1 277.2461,515.5 L284.2461,535.2969 L320.5,535.2969 A2.5,2.5 0 0 1 323,537.7969 L323,729.5 A2.5,2.5 0 0 1 320.5,732 L147.5,732 A2.5,2.5 0 0 1 145,729.5 L145,515.5 A2.5,2.5 0 0 1 147.5,513 " fill="none" style="stroke:#000000;stroke-width:1.5;"/><line style="stroke:#000000;stroke-width:1.5;" x1="145" x2="284.2461" y1="535.2969" y2="535.2969"/><text fill="#000000" font-family="sans-serif" font-size="14" font-weight="bold" lengthAdjust="spacing" textLength="126.2461" x="149" y="527.9951">Gesti&#243;n de Reto</text></g><!--cluster Configuraci?n del Sistema--><g id="cluster_Configuraci&#243;n del Sistema"><path d="M125,756 L333.2725,756 A3.75,3.75 0 0 1 335.7725,758.5 L342.7725,778.2969 L343,778.2969 A2.5,2.5 0 0 1 345.5,780.7969 L345.5,994.5 A2.5,2.5 0 0 1 343,997 L125,997 A2.5,2.5 0 0 1 122.5,994.5 L122.5,758.5 A2.5,2.5 0 0 1 125,756 " fill="none" style="stroke:#000000;stroke-width:1.5;"/><line style="stroke:#000000;stroke-width:1.5;" x1="122.5" x2="342.7725" y1="778.2969" y2="778.2969"/><text fill="#000000" font-family="sans-serif" font-size="14" font-weight="bold" lengthAdjust="spacing" textLength="207.2725" x="126.5" y="770.9951">Configuraci&#243;n del Sistema</text></g><!--cluster Reportes--><g id="cluster_Reportes"><path d="M97.5,1021 L169.8398,1021 A3.75,3.75 0 0 1 172.3398,1023.5 L179.3398,1043.2969 L370.5,1043.2969 A2.5,2.5 0 0 1 373,1045.7969 L373,1202.5 A2.5,2.5 0 0 1 370.5,1205 L97.5,1205 A2.5,2.5 0 0 1 95,1202.5 L95,1023.5 A2.5,2.5 0 0 1 97.5,1021 " fill="none" style="stroke:#000000;stroke-width:1.5;"/><line style="stroke:#000000;stroke-width:1.5;" x1="95" x2="179.3398" y1="1043.2969" y2="1043.2969"/><text fill="#000000" font-family="sans-serif" font-size="14" font-weight="bold" lengthAdjust="spacing" textLength="71.3398" x="99" y="1035.9951">Reportes</text></g><g id="elem_CrearUsuario"><ellipse cx="234.2282" cy="58.1456" fill="#F1F1F1" rx="71.2282" ry="16.6456" style="stroke:#181818;stroke-width:0.5;"/><text fill="#000000" font-family="sans-serif" font-size="14" lengthAdjust="spacing" textLength="96.1338" x="183.1613" y="61.8932">Crear Usuario</text></g><g id="elem_ModificarUsuario"><ellipse cx="233.9144" cy="128.1829" fill="#F1F1F1" rx="81.4144" ry="18.6829" style="stroke:#181818;stroke-width:0.5;"/><text fill="#000000" font-family="sans-serif" font-size="14" lengthAdjust="spacing" textLength="121.9258" x="171.8057" y="131.4062">Modificar Usuario</text></g><g id="elem_EliminarUsuario"><ellipse cx="234.065" cy="200.113" fill="#F1F1F1" rx="78.565" ry="18.113" style="stroke:#181818;stroke-width:0.5;"/><text fill="#000000" font-family="sans-serif" font-size="14" lengthAdjust="spacing" textLength="115.0146" x="174.3338" y="203.653">Eliminar Usuario</text></g><g id="elem_CrearRutina"><ellipse cx="233.8702" cy="309.074" fill="#F1F1F1" rx="68.3702" ry="16.074" style="stroke:#181818;stroke-width:0.5;"/><text fill="#000000" font-family="sans-serif" font-size="14" lengthAdjust="spacing" textLength="88.3613" x="186.6896" y="312.8216">Crear Rutina</text></g><g id="elem_ModificarRutina"><ellipse cx="234.2169" cy="378.0434" fill="#F1F1F1" rx="78.2169" ry="18.0434" style="stroke:#181818;stroke-width:0.5;"/><text fill="#000000" font-family="sans-serif" font-size="14" lengthAdjust="spacing" textLength="114.1533" x="174.7761" y="381.6221">Modificar Rutina</text></g><g id="elem_BateriaEjercicios"><ellipse cx="234.0783" cy="452.0157" fill="#F1F1F1" rx="90.5783" ry="20.5157" style="stroke:#181818;stroke-width:0.5;"/><text fill="#000000" font-family="sans-serif" font-size="14" lengthAdjust="spacing" textLength="143.0488" x="162.5539" y="454.8623">Bater&#237;a de Ejercicios</text></g><g id="elem_CrearReto"><ellipse cx="233.8334" cy="563.1667" fill="#F1F1F1" rx="63.8334" ry="15.1667" style="stroke:#181818;stroke-width:0.5;"/><text fill="#000000" font-family="sans-serif" font-size="14" lengthAdjust="spacing" textLength="75.3252" x="193.1708" y="566.9142">Crear Reto</text></g><g id="elem_ModificarReto"><ellipse cx="234.1126" cy="630.0225" fill="#F1F1F1" rx="73.1126" ry="17.0225" style="stroke:#181818;stroke-width:0.5;"/><text fill="#000000" font-family="sans-serif" font-size="14" lengthAdjust="spacing" textLength="101.1172" x="180.554" y="633.7701">Modificar Reto</text></g><g id="elem_EliminarReto"><ellipse cx="234.0098" cy="699.002" fill="#F1F1F1" rx="70.5098" ry="16.502" style="stroke:#181818;stroke-width:0.5;"/><text fill="#000000" font-family="sans-serif" font-size="14" lengthAdjust="spacing" textLength="94.2061" x="183.9067" y="702.7495">Eliminar Reto</text></g><g id="elem_ConfigurarSistema"><ellipse cx="233.9155" cy="810.7831" fill="#F1F1F1" rx="86.9155" ry="19.7831" style="stroke:#181818;stroke-width:0.5;"/><text fill="#000000" font-family="sans-serif" font-size="14" lengthAdjust="spacing" textLength="134.7227" x="166.5542" y="813.6298">Configurar Sistema</text></g><g id="elem_AdministrarPermisos"><ellipse cx="233.9774" cy="887.0955" fill="#F1F1F1" rx="93.4774" ry="21.0955" style="stroke:#181818;stroke-width:0.5;"/><text fill="#000000" font-family="sans-serif" font-size="14" lengthAdjust="spacing" textLength="149.5703" x="159.1923" y="889.9422">Administrar Permisos</text></g><g id="elem_AjustesGenerales"><ellipse cx="233.8774" cy="962.0755" fill="#F1F1F1" rx="83.3774" ry="19.0755" style="stroke:#181818;stroke-width:0.5;"/><text fill="#000000" font-family="sans-serif" font-size="14" lengthAdjust="spacing" textLength="126.5605" x="170.1311" y="965.0807">Ajustes Generales</text></g><g id="elem_ConsultarReportes"><ellipse cx="233.8885" cy="1082.9777" fill="#F1F1F1" rx="122.8885" ry="26.9777" style="stroke:#181818;stroke-width:0.5;"/><text fill="#000000" font-family="sans-serif" font-size="14" lengthAdjust="spacing" textLength="213.5068" x="127.1351" y="1085.8244">Consultar Reportes Detallados</text></g><g id="elem_DescargarEstadisticas"><ellipse cx="233.9906" cy="1166.9981" fill="#F1F1F1" rx="97.9906" ry="21.9981" style="stroke:#181818;stroke-width:0.5;"/><text fill="#000000" font-family="sans-serif" font-size="14" lengthAdjust="spacing" textLength="159.6191" x="154.181" y="1169.8448">Descargar Estad&#237;sticas</text></g><!--entity Admin--><g id="elem_Admin"><ellipse cx="28.4321" cy="567.5" fill="#F1F1F1" rx="8" ry="8" style="stroke:#181818;stroke-width:0.5;"/><path d="M28.4321,575.5 L28.4321,602.5 M15.4321,583.5 L41.4321,583.5 M28.4321,602.5 L15.4321,617.5 M28.4321,602.5 L41.4321,617.5 " fill="none" style="stroke:#181818;stroke-width:0.5;"/><text fill="#000000" font-family="sans-serif" font-size="14" lengthAdjust="spacing" textLength="44.8643" x="6" y="631.9951">Admin</text></g><!--link Admin to CrearUsuario--><g id="link_Admin_CrearUsuario"><path d="M31.34,558.9 C37.05,447.28 56.04,126.76 87,92 C105.96,70.72 129.4627,62.2137 156.9627,58.5437 " fill="none" id="Admin-to-CrearUsuario" style="stroke:#181818;stroke-width:1;"/><polygon fill="#181818" points="162.91,57.75,153.46,54.9757,157.9539,58.4114,154.5182,62.9054,162.91,57.75" style="stroke:#181818;stroke-width:1;"/></g><!--link Admin to ModificarUsuario--><g id="link_Admin_ModificarUsuario"><path d="M29.26,558.84 C29.48,464.14 35.2,221.82 87,164 C103.81,145.24 122.8039,136.6637 147.2839,131.8237 " fill="none" id="Admin-to-ModificarUsuario" style="stroke:#181818;stroke-width:1;"/><polygon fill="#181818" points="153.17,130.66,143.5651,128.4816,148.265,131.6298,145.1167,136.3297,153.17,130.66" style="stroke:#181818;stroke-width:1;"/></g><!--link Admin to EliminarUsuario--><g id="link_Admin_EliminarUsuario"><path d="M32.2,558.72 C38.15,483.84 54.5,321.42 87,277 C110.27,245.2 145.0093,227.3672 177.4193,215.7972 " fill="none" id="Admin-to-EliminarUsuario" style="stroke:#181818;stroke-width:1;"/><polygon fill="#181818" points="183.07,213.78,173.2491,213.0387,178.3611,215.461,175.9387,220.573,183.07,213.78" style="stroke:#181818;stroke-width:1;"/></g><!--link Admin to CrearRutina--><g id="link_Admin_CrearRutina"><path d="M33.13,558.97 C39.97,495.55 56.84,372.17 87,342 C107.39,321.6 131.599,313.4449 159.219,309.8949 " fill="none" id="Admin-to-CrearRutina" style="stroke:#181818;stroke-width:1;"/><polygon fill="#181818" points="165.17,309.13,155.7335,306.31,160.2108,309.7674,156.7534,314.2447,165.17,309.13" style="stroke:#181818;stroke-width:1;"/></g><!--link Admin to ModificarRutina--><g id="link_Admin_ModificarRutina"><path d="M30.91,558.71 C34.56,517.16 46.83,451.73 87,414 C106.03,396.13 126.5772,387.8489 151.7372,383.0289 " fill="none" id="Admin-to-ModificarRutina" style="stroke:#181818;stroke-width:1;"/><polygon fill="#181818" points="157.63,381.9,148.0381,379.6648,152.7193,382.8408,149.5434,387.5219,157.63,381.9" style="stroke:#181818;stroke-width:1;"/></g><!--link Admin to BateriaEjercicios--><g id="link_Admin_BateriaEjercicios"><path d="M51.1,568.43 C61.16,556.29 73.81,542.53 87,532 C119.07,506.39 155.0492,487.1208 185.5792,472.7808 " fill="none" id="Admin-to-BateriaEjercicios" style="stroke:#181818;stroke-width:1;"/><polygon fill="#181818" points="191.01,470.23,181.1633,470.4358,186.4844,472.3557,184.5644,477.6768,191.01,470.23" style="stroke:#181818;stroke-width:1;"/></g><!--link Admin to CrearReto--><g id="link_Admin_CrearReto"><path d="M51.28,593.36 C82.04,588.22 133.2221,579.6689 175.2321,572.6489 " fill="none" id="Admin-to-CrearReto" style="stroke:#181818;stroke-width:1;"/><polygon fill="#181818" points="181.15,571.66,171.6138,569.1981,176.2184,572.4841,172.9324,577.0887,181.15,571.66" style="stroke:#181818;stroke-width:1;"/></g><!--link Admin to ModificarReto--><g id="link_Admin_ModificarReto"><path d="M51.28,600.53 C80.19,605.22 126.4574,612.7193 167.5174,619.3793 " fill="none" id="Admin-to-ModificarReto" style="stroke:#181818;stroke-width:1;"/><polygon fill="#181818" points="173.44,620.34,165.1965,614.9506,168.5045,619.5395,163.9157,622.8474,173.44,620.34" style="stroke:#181818;stroke-width:1;"/></g><!--link Admin to EliminarReto--><g id="link_Admin_EliminarReto"><path d="M51.04,629.98 C60.66,642.34 73,655.45 87,664 C111.58,679.02 136.2378,686.5109 163.0378,691.4109 " fill="none" id="Admin-to-EliminarReto" style="stroke:#181818;stroke-width:1;"/><polygon fill="#181818" points="168.94,692.49,160.8062,686.9365,164.0215,691.5907,159.3673,694.8061,168.94,692.49" style="stroke:#181818;stroke-width:1;"/></g><!--link Admin to ConfigurarSistema--><g id="link_Admin_ConfigurarSistema"><path d="M38.35,635.12 C46.78,664.46 61.96,704.5 87,732 C113.49,761.08 147.6873,779.3368 179.0273,792.1668 " fill="none" id="Admin-to-ConfigurarSistema" style="stroke:#181818;stroke-width:1;"/><polygon fill="#181818" points="184.58,794.44,177.7664,787.3284,179.9527,792.5457,174.7355,794.732,184.58,794.44" style="stroke:#181818;stroke-width:1;"/></g><!--link Admin to AdministrarPermisos--><g id="link_Admin_AdministrarPermisos"><path d="M33.43,635.07 C40.63,697.53 57.94,817.88 87,848 C102.67,864.24 118.4791,872.4373 140.2791,878.1973 " fill="none" id="Admin-to-AdministrarPermisos" style="stroke:#181818;stroke-width:1;"/><polygon fill="#181818" points="146.08,879.73,138.4004,873.5636,141.2459,878.4527,136.3568,881.2982,146.08,879.73" style="stroke:#181818;stroke-width:1;"/></g><!--link Admin to AjustesGenerales--><g id="link_Admin_AjustesGenerales"><path d="M31.11,635.17 C35.16,712.4 48.36,883.36 87,925 C103.81,943.11 122.233,951.6438 146.193,956.7738 " fill="none" id="Admin-to-AjustesGenerales" style="stroke:#181818;stroke-width:1;"/><polygon fill="#181818" points="152.06,958.03,144.0969,952.2344,147.1708,956.9832,142.422,960.0571,152.06,958.03" style="stroke:#181818;stroke-width:1;"/></g><!--link Admin to ConsultarReportes--><g id="link_Admin_ConsultarReportes"><path d="M30.83,635.03 C34.55,723.12 47.54,938.14 87,997 C106.33,1025.83 133.4234,1043.8217 162.8734,1057.5717 " fill="none" id="Admin-to-ConsultarReportes" style="stroke:#181818;stroke-width:1;"/><polygon fill="#181818" points="168.31,1060.11,161.8473,1052.6781,163.7795,1057.9947,158.4628,1059.9269,168.31,1060.11" style="stroke:#181818;stroke-width:1;"/></g><!--link Admin to DescargarEstadisticas--><g id="link_Admin_DescargarEstadisticas"><path d="M31.19,635.28 C36.63,750.7 55.18,1089.66 87,1127 C100.98,1143.4 115.218,1151.7267 135.948,1157.7467 " fill="none" id="Admin-to-DescargarEstadisticas" style="stroke:#181818;stroke-width:1;"/><polygon fill="#181818" points="141.71,1159.42,134.1826,1153.0688,136.9084,1158.0256,131.9515,1160.7514,141.71,1159.42" style="stroke:#181818;stroke-width:1;"/></g><!--SRC=[TLDBRi8m4Drp2gjxhb2f1SIgKaNL0uoS8HrgOcGxgwf7OjKZSB4wZZ_n9-pyVhoCnmBFXXd95FLVXdMaa1kImsO3t4Z5NhehsSCD-3Vqo9wEg0qz_WRM8VlK8oYIJ-ndm-nlrCX1MyrE8QZ4WcOEyK2kVPCTdOaN-eWsFGT1jbHX2M1m_AwKFet6obOw1p9KdizhZHVg2BOShs1GFUum_VtXWeeJ9wcTpr442LtlZMPjqZCLEzlJQkEWJ7qhTPnk50V4QPVzTd8uKpyguBwbO1-a3LuRymrIbIHJumXxD7UvxRF4P7j7TINjvxOW0buuBwFDq-o80oeGw6qp6i7iQqvuayfCohgx7eLn8vabR8y6X83ErucA8CW3zgZjg7iRSD06kiVTNgjbd3LoZgAPcNgvJsJRxNF-UX9SFP94bO-X3FDRsiYgc7f3gx1fBLfHEPvjqJAZMe74jQvvmPQtcQSMDvAuviZ_0G00]--></g></svg>