<svg xmlns="http://www.w3.org/2000/svg" xmlns:xlink="http://www.w3.org/1999/xlink" contentStyleType="text/css" height="520px" preserveAspectRatio="none" style="width:407px;height:520px;background:#FFFFFF;" version="1.1" viewBox="0 0 407 520" width="407px" zoomAndPan="magnify"><defs/><g><!--class Usuario--><g id="elem_Usuario"><rect codeLine="1" fill="#F1F1F1" height="48" id="Usuario" rx="2.5" ry="2.5" style="stroke:#181818;stroke-width:0.5;" width="80.2412" x="264.5" y="7"/><ellipse cx="279.5" cy="23" fill="#ADD1B2" rx="11" ry="11" style="stroke:#181818;stroke-width:1.0;"/><path d="M282.2656,18.875 Q282.4219,18.6563 282.6094,18.5469 Q282.7969,18.4375 283.0156,18.4375 Q283.3906,18.4375 283.625,18.7031 Q283.8594,18.9531 283.8594,19.5625 L283.8594,21.0156 Q283.8594,21.625 283.625,21.8906 Q283.3906,22.1563 283.0156,22.1563 Q282.6719,22.1563 282.4688,21.9531 Q282.2656,21.7656 282.1563,21.25 Q282.1094,20.8906 281.9219,20.7031 Q281.5938,20.3281 280.9844,20.1094 Q280.375,19.8906 279.75,19.8906 Q278.9844,19.8906 278.3438,20.2188 Q277.7188,20.5469 277.2188,21.2969 Q276.7344,22.0469 276.7344,23.0781 L276.7344,24.1719 Q276.7344,25.4063 277.625,26.2344 Q278.5156,27.0469 280.1094,27.0469 Q281.0469,27.0469 281.7031,26.7969 Q282.0938,26.6406 282.5156,26.2031 Q282.7813,25.9375 282.9219,25.8594 Q283.0781,25.7813 283.2813,25.7813 Q283.6094,25.7813 283.8594,26.0469 Q284.125,26.2969 284.125,26.6406 Q284.125,26.9844 283.7813,27.3906 Q283.2813,27.9688 282.4844,28.2969 Q281.4063,28.75 280.1094,28.75 Q278.5938,28.75 277.3906,28.125 Q276.4063,27.625 275.7188,26.5625 Q275.0313,25.4844 275.0313,24.2031 L275.0313,23.0469 Q275.0313,21.7188 275.6406,20.5781 Q276.2656,19.4219 277.3594,18.8125 Q278.4531,18.1875 279.6875,18.1875 Q280.4219,18.1875 281.0625,18.3594 Q281.7188,18.5156 282.2656,18.875 Z " fill="#000000"/><text fill="#000000" font-family="sans-serif" font-size="14" lengthAdjust="spacing" textLength="48.2412" x="293.5" y="28.7969">Usuario</text><line style="stroke:#181818;stroke-width:0.5;" x1="265.5" x2="343.7412" y1="39" y2="39"/><line style="stroke:#181818;stroke-width:0.5;" x1="265.5" x2="343.7412" y1="47" y2="47"/></g><!--class Post--><g id="elem_Post"><rect codeLine="3" fill="#F1F1F1" height="196.9688" id="Post" rx="2.5" ry="2.5" style="stroke:#181818;stroke-width:0.5;" width="176.2197" x="85.5" y="134"/><ellipse cx="155.353" cy="150" fill="#ADD1B2" rx="11" ry="11" style="stroke:#181818;stroke-width:1.0;"/><path d="M158.1187,145.875 Q158.2749,145.6563 158.4624,145.5469 Q158.6499,145.4375 158.8687,145.4375 Q159.2437,145.4375 159.478,145.7031 Q159.7124,145.9531 159.7124,146.5625 L159.7124,148.0156 Q159.7124,148.625 159.478,148.8906 Q159.2437,149.1563 158.8687,149.1563 Q158.5249,149.1563 158.3218,148.9531 Q158.1187,148.7656 158.0093,148.25 Q157.9624,147.8906 157.7749,147.7031 Q157.4468,147.3281 156.8374,147.1094 Q156.228,146.8906 155.603,146.8906 Q154.8374,146.8906 154.1968,147.2188 Q153.5718,147.5469 153.0718,148.2969 Q152.5874,149.0469 152.5874,150.0781 L152.5874,151.1719 Q152.5874,152.4063 153.478,153.2344 Q154.3687,154.0469 155.9624,154.0469 Q156.8999,154.0469 157.5562,153.7969 Q157.9468,153.6406 158.3687,153.2031 Q158.6343,152.9375 158.7749,152.8594 Q158.9312,152.7813 159.1343,152.7813 Q159.4624,152.7813 159.7124,153.0469 Q159.978,153.2969 159.978,153.6406 Q159.978,153.9844 159.6343,154.3906 Q159.1343,154.9688 158.3374,155.2969 Q157.2593,155.75 155.9624,155.75 Q154.4468,155.75 153.2437,155.125 Q152.2593,154.625 151.5718,153.5625 Q150.8843,152.4844 150.8843,151.2031 L150.8843,150.0469 Q150.8843,148.7188 151.4937,147.5781 Q152.1187,146.4219 153.2124,145.8125 Q154.3062,145.1875 155.5405,145.1875 Q156.2749,145.1875 156.9155,145.3594 Q157.5718,145.5156 158.1187,145.875 Z " fill="#000000"/><text fill="#000000" font-family="sans-serif" font-size="14" lengthAdjust="spacing" textLength="28.0137" x="175.853" y="155.7969">Post</text><line style="stroke:#181818;stroke-width:0.5;" x1="86.5" x2="260.7197" y1="166" y2="166"/><ellipse cx="96.5" cy="180.8105" fill="none" rx="3" ry="3" style="stroke:#038048;stroke-width:1.0;"/><text fill="#000000" font-family="sans-serif" font-size="14" lengthAdjust="spacing" textLength="51.3584" x="105.5" y="185.1074">String id</text><ellipse cx="96.5" cy="199.4316" fill="none" rx="3" ry="3" style="stroke:#038048;stroke-width:1.0;"/><text fill="#000000" font-family="sans-serif" font-size="14" lengthAdjust="spacing" textLength="123.7373" x="105.5" y="203.7285">Date fechaCreacion</text><ellipse cx="96.5" cy="218.0527" fill="none" rx="3" ry="3" style="stroke:#038048;stroke-width:1.0;"/><text fill="#000000" font-family="sans-serif" font-size="14" lengthAdjust="spacing" textLength="122.9648" x="105.5" y="222.3496">Date fechaResuelto</text><ellipse cx="96.5" cy="236.6738" fill="none" rx="3" ry="3" style="stroke:#038048;stroke-width:1.0;"/><text fill="#000000" font-family="sans-serif" font-size="14" lengthAdjust="spacing" textLength="72.3789" x="105.5" y="240.9707">int duracion</text><ellipse cx="96.5" cy="255.2949" fill="none" rx="3" ry="3" style="stroke:#038048;stroke-width:1.0;"/><text fill="#000000" font-family="sans-serif" font-size="14" lengthAdjust="spacing" textLength="93.3789" x="105.5" y="259.5918">String mensaje</text><ellipse cx="96.5" cy="273.916" fill="none" rx="3" ry="3" style="stroke:#038048;stroke-width:1.0;"/><text fill="#000000" font-family="sans-serif" font-size="14" lengthAdjust="spacing" textLength="103.5234" x="105.5" y="278.2129">boolean resuelto</text><ellipse cx="96.5" cy="292.5371" fill="none" rx="3" ry="3" style="stroke:#038048;stroke-width:1.0;"/><text fill="#000000" font-family="sans-serif" font-size="14" lengthAdjust="spacing" textLength="118.2754" x="105.5" y="296.834">Usuario usuarioOP</text><ellipse cx="96.5" cy="311.1582" fill="none" rx="3" ry="3" style="stroke:#038048;stroke-width:1.0;"/><text fill="#000000" font-family="sans-serif" font-size="14" lengthAdjust="spacing" textLength="150.2197" x="105.5" y="315.4551">List&lt;Etiqueta&gt; etiquetas</text><line style="stroke:#181818;stroke-width:0.5;" x1="86.5" x2="260.7197" y1="322.9688" y2="322.9688"/></g><!--class Etiqueta--><g id="elem_Etiqueta"><rect codeLine="13" fill="#F1F1F1" height="103.8633" id="Etiqueta" rx="2.5" ry="2.5" style="stroke:#181818;stroke-width:0.5;" width="146.6133" x="7" y="410"/><ellipse cx="50.4585" cy="426" fill="#ADD1B2" rx="11" ry="11" style="stroke:#181818;stroke-width:1.0;"/><path d="M53.2242,421.875 Q53.3804,421.6563 53.5679,421.5469 Q53.7554,421.4375 53.9742,421.4375 Q54.3492,421.4375 54.5835,421.7031 Q54.8179,421.9531 54.8179,422.5625 L54.8179,424.0156 Q54.8179,424.625 54.5835,424.8906 Q54.3492,425.1563 53.9742,425.1563 Q53.6304,425.1563 53.4273,424.9531 Q53.2242,424.7656 53.1148,424.25 Q53.0679,423.8906 52.8804,423.7031 Q52.5523,423.3281 51.9429,423.1094 Q51.3335,422.8906 50.7085,422.8906 Q49.9429,422.8906 49.3023,423.2188 Q48.6773,423.5469 48.1773,424.2969 Q47.6929,425.0469 47.6929,426.0781 L47.6929,427.1719 Q47.6929,428.4063 48.5835,429.2344 Q49.4742,430.0469 51.0679,430.0469 Q52.0054,430.0469 52.6617,429.7969 Q53.0523,429.6406 53.4742,429.2031 Q53.7398,428.9375 53.8804,428.8594 Q54.0367,428.7813 54.2398,428.7813 Q54.5679,428.7813 54.8179,429.0469 Q55.0835,429.2969 55.0835,429.6406 Q55.0835,429.9844 54.7398,430.3906 Q54.2398,430.9688 53.4429,431.2969 Q52.3648,431.75 51.0679,431.75 Q49.5523,431.75 48.3492,431.125 Q47.3648,430.625 46.6773,429.5625 Q45.9898,428.4844 45.9898,427.2031 L45.9898,426.0469 Q45.9898,424.7188 46.5992,423.5781 Q47.2242,422.4219 48.3179,421.8125 Q49.4117,421.1875 50.646,421.1875 Q51.3804,421.1875 52.021,421.3594 Q52.6773,421.5156 53.2242,421.875 Z " fill="#000000"/><text fill="#000000" font-family="sans-serif" font-size="14" lengthAdjust="spacing" textLength="51.3721" x="70.7827" y="431.7969">Etiqueta</text><line style="stroke:#181818;stroke-width:0.5;" x1="8" x2="152.6133" y1="442" y2="442"/><line style="stroke:#181818;stroke-width:0.5;" x1="8" x2="152.6133" y1="450" y2="450"/><ellipse cx="18" cy="464.8105" fill="#84BE84" rx="3" ry="3" style="stroke:#038048;stroke-width:1.0;"/><text fill="#000000" font-family="sans-serif" font-size="14" lengthAdjust="spacing" textLength="92.5928" x="27" y="469.1074">crearEtiqueta()</text><ellipse cx="18" cy="483.4316" fill="#84BE84" rx="3" ry="3" style="stroke:#038048;stroke-width:1.0;"/><text fill="#000000" font-family="sans-serif" font-size="14" lengthAdjust="spacing" textLength="120.6133" x="27" y="487.7285">actualizarEtiqueta()</text><ellipse cx="18" cy="502.0527" fill="#84BE84" rx="3" ry="3" style="stroke:#038048;stroke-width:1.0;"/><text fill="#000000" font-family="sans-serif" font-size="14" lengthAdjust="spacing" textLength="91.8203" x="27" y="506.3496">obtenerPosts()</text></g><!--class Comunidad--><g id="elem_Comunidad"><rect codeLine="19" fill="#F1F1F1" height="48" id="Comunidad" rx="2.5" ry="2.5" style="stroke:#181818;stroke-width:0.5;" width="103.5996" x="296.5" y="208.5"/><ellipse cx="311.5" cy="224.5" fill="#ADD1B2" rx="11" ry="11" style="stroke:#181818;stroke-width:1.0;"/><path d="M314.2656,220.375 Q314.4219,220.1563 314.6094,220.0469 Q314.7969,219.9375 315.0156,219.9375 Q315.3906,219.9375 315.625,220.2031 Q315.8594,220.4531 315.8594,221.0625 L315.8594,222.5156 Q315.8594,223.125 315.625,223.3906 Q315.3906,223.6563 315.0156,223.6563 Q314.6719,223.6563 314.4688,223.4531 Q314.2656,223.2656 314.1563,222.75 Q314.1094,222.3906 313.9219,222.2031 Q313.5938,221.8281 312.9844,221.6094 Q312.375,221.3906 311.75,221.3906 Q310.9844,221.3906 310.3438,221.7188 Q309.7188,222.0469 309.2188,222.7969 Q308.7344,223.5469 308.7344,224.5781 L308.7344,225.6719 Q308.7344,226.9063 309.625,227.7344 Q310.5156,228.5469 312.1094,228.5469 Q313.0469,228.5469 313.7031,228.2969 Q314.0938,228.1406 314.5156,227.7031 Q314.7813,227.4375 314.9219,227.3594 Q315.0781,227.2813 315.2813,227.2813 Q315.6094,227.2813 315.8594,227.5469 Q316.125,227.7969 316.125,228.1406 Q316.125,228.4844 315.7813,228.8906 Q315.2813,229.4688 314.4844,229.7969 Q313.4063,230.25 312.1094,230.25 Q310.5938,230.25 309.3906,229.625 Q308.4063,229.125 307.7188,228.0625 Q307.0313,226.9844 307.0313,225.7031 L307.0313,224.5469 Q307.0313,223.2188 307.6406,222.0781 Q308.2656,220.9219 309.3594,220.3125 Q310.4531,219.6875 311.6875,219.6875 Q312.4219,219.6875 313.0625,219.8594 Q313.7188,220.0156 314.2656,220.375 Z " fill="#000000"/><text fill="#000000" font-family="sans-serif" font-size="14" lengthAdjust="spacing" textLength="71.5996" x="325.5" y="230.2969">Comunidad</text><line style="stroke:#181818;stroke-width:0.5;" x1="297.5" x2="399.0996" y1="240.5" y2="240.5"/><line style="stroke:#181818;stroke-width:0.5;" x1="297.5" x2="399.0996" y1="248.5" y2="248.5"/></g><!--class Filtro--><g id="elem_Filtro"><rect codeLine="22" fill="#F1F1F1" height="103.8633" id="Filtro" rx="2.5" ry="2.5" style="stroke:#181818;stroke-width:0.5;" width="155.1719" x="189" y="410"/><ellipse cx="246.7808" cy="426" fill="#ADD1B2" rx="11" ry="11" style="stroke:#181818;stroke-width:1.0;"/><path d="M249.5464,421.875 Q249.7026,421.6563 249.8901,421.5469 Q250.0776,421.4375 250.2964,421.4375 Q250.6714,421.4375 250.9058,421.7031 Q251.1401,421.9531 251.1401,422.5625 L251.1401,424.0156 Q251.1401,424.625 250.9058,424.8906 Q250.6714,425.1563 250.2964,425.1563 Q249.9526,425.1563 249.7495,424.9531 Q249.5464,424.7656 249.437,424.25 Q249.3901,423.8906 249.2026,423.7031 Q248.8745,423.3281 248.2651,423.1094 Q247.6558,422.8906 247.0308,422.8906 Q246.2651,422.8906 245.6245,423.2188 Q244.9995,423.5469 244.4995,424.2969 Q244.0151,425.0469 244.0151,426.0781 L244.0151,427.1719 Q244.0151,428.4063 244.9058,429.2344 Q245.7964,430.0469 247.3901,430.0469 Q248.3276,430.0469 248.9839,429.7969 Q249.3745,429.6406 249.7964,429.2031 Q250.062,428.9375 250.2026,428.8594 Q250.3589,428.7813 250.562,428.7813 Q250.8901,428.7813 251.1401,429.0469 Q251.4058,429.2969 251.4058,429.6406 Q251.4058,429.9844 251.062,430.3906 Q250.562,430.9688 249.7651,431.2969 Q248.687,431.75 247.3901,431.75 Q245.8745,431.75 244.6714,431.125 Q243.687,430.625 242.9995,429.5625 Q242.312,428.4844 242.312,427.2031 L242.312,426.0469 Q242.312,424.7188 242.9214,423.5781 Q243.5464,422.4219 244.6401,421.8125 Q245.7339,421.1875 246.9683,421.1875 Q247.7026,421.1875 248.3433,421.3594 Q248.9995,421.5156 249.5464,421.875 Z " fill="#000000"/><text fill="#000000" font-family="sans-serif" font-size="14" lengthAdjust="spacing" textLength="31.1104" x="267.2808" y="431.7969">Filtro</text><line style="stroke:#181818;stroke-width:0.5;" x1="190" x2="343.1719" y1="442" y2="442"/><ellipse cx="200" cy="456.8105" fill="none" rx="3" ry="3" style="stroke:#038048;stroke-width:1.0;"/><text fill="#000000" font-family="sans-serif" font-size="14" lengthAdjust="spacing" textLength="129.1719" x="209" y="461.1074">List&lt;Etiqueta&gt; Filtrar</text><ellipse cx="200" cy="475.4316" fill="none" rx="3" ry="3" style="stroke:#038048;stroke-width:1.0;"/><text fill="#000000" font-family="sans-serif" font-size="14" lengthAdjust="spacing" textLength="79.3652" x="209" y="479.7285">localizarPost</text><line style="stroke:#181818;stroke-width:0.5;" x1="190" x2="343.1719" y1="487.2422" y2="487.2422"/><ellipse cx="200" cy="502.0527" fill="#84BE84" rx="3" ry="3" style="stroke:#038048;stroke-width:1.0;"/><text fill="#000000" font-family="sans-serif" font-size="14" lengthAdjust="spacing" textLength="101.9375" x="209" y="506.3496">elegirEtiquetas()</text></g><!--link Usuario to Post--><g id="link_Usuario_Post"><path codeLine="28" d="M286.31,55.15 C279.31,64.31 271.35,75.02 264.5,85 C253.83,100.56 246.1099,112.2608 235.6999,128.7008 " fill="none" id="Usuario-to-Post" style="stroke:#181818;stroke-width:1.0;"/><polygon fill="#181818" points="232.49,133.77,240.6843,128.3061,235.1649,129.5457,233.9253,124.0263,232.49,133.77" style="stroke:#181818;stroke-width:1.0;"/><text fill="#000000" font-family="sans-serif" font-size="13" lengthAdjust="spacing" textLength="41.1963" x="265.5" y="100.0283">publica</text><text fill="#000000" font-family="sans-serif" font-size="13" lengthAdjust="spacing" textLength="7.23" x="274.0217" y="77.1722">1</text><text fill="#000000" font-family="sans-serif" font-size="13" lengthAdjust="spacing" textLength="7.23" x="229.7388" y="122.6009">n</text></g><!--link Post to Etiqueta--><g id="link_Post_Etiqueta"><path codeLine="29" d="M133.52,331.3 C122.44,358.4 113.1303,381.1761 103.6303,404.4161 " fill="none" id="Post-to-Etiqueta" style="stroke:#181818;stroke-width:1.0;"/><polygon fill="#181818" points="101.36,409.97,108.4681,403.1527,103.2519,405.3418,101.0629,400.1256,101.36,409.97" style="stroke:#181818;stroke-width:1.0;"/><text fill="#000000" font-family="sans-serif" font-size="13" lengthAdjust="spacing" textLength="28.1899" x="120.5" y="376.0283">tiene</text><text fill="#000000" font-family="sans-serif" font-size="13" lengthAdjust="spacing" textLength="7.23" x="123.4632" y="352.8842">n</text><text fill="#000000" font-family="sans-serif" font-size="13" lengthAdjust="spacing" textLength="7.23" x="96.7342" y="398.8933">n</text></g><!--link Post to Filtro--><g id="link_Post_Filtro"><path codeLine="30" d="M213.48,331.3 C224.56,358.4 233.8697,381.1761 243.3697,404.4161 " fill="none" id="Post-to-Filtro" style="stroke:#181818;stroke-width:1.0;"/><polygon fill="#181818" points="245.64,409.97,245.9371,400.1256,243.7481,405.3418,238.5319,403.1527,245.64,409.97" style="stroke:#181818;stroke-width:1.0;"/><text fill="#000000" font-family="sans-serif" font-size="13" lengthAdjust="spacing" textLength="104.0762" x="232.5" y="376.0283">localizado usando</text></g><!--link Usuario to Comunidad--><g id="link_Usuario_Comunidad"><path codeLine="31" d="M309.63,55.28 C318.11,93.72 333.6472,164.1709 342.1072,202.5109 " fill="none" id="Usuario-to-Comunidad" style="stroke:#181818;stroke-width:1.0;"/><polygon fill="#181818" points="343.4,208.37,345.3668,198.7195,342.3226,203.4875,337.5547,200.4433,343.4,208.37" style="stroke:#181818;stroke-width:1.0;"/><text fill="#000000" font-family="sans-serif" font-size="13" lengthAdjust="spacing" textLength="37.5591" x="320.5" y="100.0283">Forma</text></g><!--SRC=[RP51JmCX48Nl-oi89qtJWrTZUgdsP6AZyGTCOQnZM4PXkBZfVnSMsAhfNdPvtuFtXZKEObIlCK4WLjDm6ioix3bANghyh5uaa3ygidLv3uBg3SqxR0E28VR_zMUC2PrmrScBiYdyShO3H_GHFh1g1sQ7u5NuixSNI_NzjA_o8qMvUn3wIYYmKTY-ubA_ipR2lCdajg63g-ip02C977rVfdmGz1ZAXSIiduOMiUKnUR9WfxEs8oU1fuibPmQXCdHuf2KkjhoLOrEBbBHoR9zVtsYrNc-Kzhh-cbkbFzF1aG4zp48XtR5Cdrr2kNtp55uh5jB3RBbUy9Rr4bUCotp5k-CmvgGV]--></g></svg>