<svg xmlns="http://www.w3.org/2000/svg" xmlns:xlink="http://www.w3.org/1999/xlink" contentStyleType="text/css" height="912px" preserveAspectRatio="none" style="width:437px;height:912px;background:#FFFFFF;" version="1.1" viewBox="0 0 437 912" width="437px" zoomAndPan="magnify"><defs/><g><!--cluster Aplicacion--><g id="cluster_Aplicacion"><path d="M96.5,6.0137 L168.293,6.0137 A3.75,3.75 0 0 1 170.793,8.5137 L177.793,30.6348 L427.5,30.6348 A2.5,2.5 0 0 1 430,33.1348 L430,902.5137 A2.5,2.5 0 0 1 427.5,905.0137 L96.5,905.0137 A2.5,2.5 0 0 1 94,902.5137 L94,8.5137 A2.5,2.5 0 0 1 96.5,6.0137 " fill="none" style="stroke:#000000;stroke-width:1.5;"/><line style="stroke:#000000;stroke-width:1.5;" x1="94" x2="177.793" y1="30.6348" y2="30.6348"/><text fill="#000000" font-family="sans-serif" font-size="14" font-weight="bold" lengthAdjust="spacing" textLength="70.793" x="98" y="23.1211">Aplicacion</text></g><!--cluster publicaciones--><g id="cluster_publicaciones"><path d="M120.5,51.0137 L214.8584,51.0137 A3.75,3.75 0 0 1 217.3584,53.5137 L224.3584,75.6348 L403.5,75.6348 A2.5,2.5 0 0 1 406,78.1348 L406,386.5137 A2.5,2.5 0 0 1 403.5,389.0137 L120.5,389.0137 A2.5,2.5 0 0 1 118,386.5137 L118,53.5137 A2.5,2.5 0 0 1 120.5,51.0137 " fill="none" style="stroke:#000000;stroke-width:1.5;"/><line style="stroke:#000000;stroke-width:1.5;" x1="118" x2="224.3584" y1="75.6348" y2="75.6348"/><text fill="#000000" font-family="sans-serif" font-size="14" font-weight="bold" lengthAdjust="spacing" textLength="93.3584" x="122" y="68.1211">publicaciones</text></g><!--cluster Usuarios--><g id="cluster_Usuarios"><path d="M157.5,413.0137 L218.4102,413.0137 A3.75,3.75 0 0 1 220.9102,415.5137 L227.9102,437.6348 L366.5,437.6348 A2.5,2.5 0 0 1 369,440.1348 L369,653.5137 A2.5,2.5 0 0 1 366.5,656.0137 L157.5,656.0137 A2.5,2.5 0 0 1 155,653.5137 L155,415.5137 A2.5,2.5 0 0 1 157.5,413.0137 " fill="none" style="stroke:#000000;stroke-width:1.5;"/><line style="stroke:#000000;stroke-width:1.5;" x1="155" x2="227.9102" y1="437.6348" y2="437.6348"/><text fill="#000000" font-family="sans-serif" font-size="14" font-weight="bold" lengthAdjust="spacing" textLength="59.9102" x="159" y="430.1211">Usuarios</text></g><g id="elem_UC7"><ellipse cx="261.8574" cy="699.8851" fill="#F1F1F1" rx="114.8574" ry="25.3715" style="stroke:#181818;stroke-width:0.5;"/><text fill="#000000" font-family="sans-serif" font-size="14" lengthAdjust="spacing" textLength="191.4199" x="166.1474" y="703.682">Comunicar cambios de pol&#237;tica</text></g><g id="elem_UC8"><ellipse cx="261.9221" cy="787.0981" fill="#F1F1F1" rx="120.9221" ry="26.5844" style="stroke:#181818;stroke-width:0.5;"/><text fill="#000000" font-family="sans-serif" font-size="14" lengthAdjust="spacing" textLength="204.6885" x="159.5779" y="790.895">Bloquear palabras o expresiones</text></g><g id="elem_UC10"><ellipse cx="261.7903" cy="868.7717" fill="#F1F1F1" rx="86.7903" ry="19.7581" style="stroke:#181818;stroke-width:0.5;"/><text fill="#000000" font-family="sans-serif" font-size="14" lengthAdjust="spacing" textLength="126.0547" x="195.763" y="873.5754">Eliminar Comunidad</text></g><g id="elem_UC1"><ellipse cx="261.8345" cy="109.0806" fill="#F1F1F1" rx="90.8345" ry="20.5669" style="stroke:#181818;stroke-width:0.5;"/><text fill="#000000" font-family="sans-serif" font-size="14" lengthAdjust="spacing" textLength="136.1787" x="190.7452" y="113.8843">Revisar publicaciones</text></g><g id="elem_UC2"><ellipse cx="262.0979" cy="185.8333" fill="#F1F1F1" rx="92.0979" ry="20.8196" style="stroke:#181818;stroke-width:0.5;"/><text fill="#000000" font-family="sans-serif" font-size="14" lengthAdjust="spacing" textLength="139.2891" x="189.4534" y="190.637">Eliminar publicaciones</text></g><g id="elem_UC4"><ellipse cx="261.752" cy="269.9641" fill="#F1F1F1" rx="127.752" ry="27.9504" style="stroke:#181818;stroke-width:0.5;"/><text fill="#000000" font-family="sans-serif" font-size="14" lengthAdjust="spacing" textLength="219.4814" x="152.0113" y="273.761">Responder a reportes de contenido</text></g><g id="elem_UC6"><ellipse cx="261.9004" cy="352.8937" fill="#F1F1F1" rx="87.4004" ry="19.8801" style="stroke:#181818;stroke-width:0.5;"/><text fill="#000000" font-family="sans-serif" font-size="14" lengthAdjust="spacing" textLength="127.5996" x="195.1006" y="357.6975">Revisar comentarios</text></g><g id="elem_UC3"><ellipse cx="262.1884" cy="470.1513" fill="#F1F1F1" rx="86.1884" ry="19.6377" style="stroke:#181818;stroke-width:0.5;"/><text fill="#000000" font-family="sans-serif" font-size="14" lengthAdjust="spacing" textLength="124.5234" x="196.9266" y="474.9551">Suspender usuarios</text></g><g id="elem_UC5"><ellipse cx="262.0731" cy="544.0283" fill="#F1F1F1" rx="85.5731" ry="19.5146" style="stroke:#181818;stroke-width:0.5;"/><text fill="#000000" font-family="sans-serif" font-size="14" lengthAdjust="spacing" textLength="122.9512" x="197.5975" y="548.832">Enviar advertencias</text></g><g id="elem_UC9"><ellipse cx="261.8401" cy="619.0817" fill="#F1F1F1" rx="90.8401" ry="20.568" style="stroke:#181818;stroke-width:0.5;"/><text fill="#000000" font-family="sans-serif" font-size="14" lengthAdjust="spacing" textLength="136.1924" x="190.7439" y="623.8854">Desbloquear usuarios</text></g><!--entity Moderador--><g id="elem_Moderador"><ellipse cx="39.8516" cy="476.0137" fill="#F1F1F1" rx="8" ry="8" style="stroke:#181818;stroke-width:0.5;"/><path d="M39.8516,484.0137 L39.8516,511.0137 M26.8516,492.0137 L52.8516,492.0137 M39.8516,511.0137 L26.8516,526.0137 M39.8516,511.0137 L52.8516,526.0137 " fill="none" style="stroke:#181818;stroke-width:0.5;"/><text fill="#000000" font-family="sans-serif" font-size="14" lengthAdjust="spacing" textLength="67.7031" x="6" y="542.6211">Moderador</text></g><!--link Moderador to UC1--><g id="link_Moderador_UC1"><path d="M40.4,467.3537 C40,383.7037 43.87,193.0937 86,147.0137 C107.5,123.4937 133.901,113.5668 164.951,109.1068 " fill="none" id="Moderador-to-UC1" style="stroke:#181818;stroke-width:1.0;"/><polygon fill="#181818" points="170.89,108.2537,161.4127,105.5739,165.9408,108.9646,162.5502,113.4927,170.89,108.2537" style="stroke:#181818;stroke-width:1.0;"/></g><!--link Moderador to UC2--><g id="link_Moderador_UC2"><path d="M41.95,467.4037 C44.45,397.9737 53.49,258.4037 86,224.0137 C107.57,201.1937 133.4273,191.3597 164.0173,186.7397 " fill="none" id="Moderador-to-UC2" style="stroke:#181818;stroke-width:1.0;"/><polygon fill="#181818" points="169.95,185.8437,160.4536,183.2326,165.0061,186.5904,161.6483,191.1428,169.95,185.8437" style="stroke:#181818;stroke-width:1.0;"/></g><!--link Moderador to UC3--><g id="link_Moderador_UC3"><path d="M74.41,501.3937 C105.55,496.1537 147.0132,489.1894 186.2332,482.5894 " fill="none" id="Moderador-to-UC3" style="stroke:#181818;stroke-width:1.0;"/><polygon fill="#181818" points="192.15,481.5937,182.611,479.1427,187.2193,482.4234,183.9386,487.0317,192.15,481.5937" style="stroke:#181818;stroke-width:1.0;"/></g><!--link Moderador to UC4--><g id="link_Moderador_UC4"><path d="M45.48,467.0837 C51.86,417.3537 65.17,336.3037 86,315.0137 C101.8,298.8737 116.8349,290.0805 138.5149,283.1505 " fill="none" id="Moderador-to-UC4" style="stroke:#181818;stroke-width:1.0;"/><polygon fill="#181818" points="144.23,281.3237,134.4394,280.2538,139.4674,282.846,136.8752,287.874,144.23,281.3237" style="stroke:#181818;stroke-width:1.0;"/></g><!--link Moderador to UC5--><g id="link_Moderador_UC5"><path d="M74.41,512.6337 C105.67,517.8937 147.373,524.909 186.693,531.519 " fill="none" id="Moderador-to-UC5" style="stroke:#181818;stroke-width:1.0;"/><polygon fill="#181818" points="192.61,532.5137,184.3977,527.077,187.6792,531.6848,183.0714,534.9663,192.61,532.5137" style="stroke:#181818;stroke-width:1.0;"/></g><!--link Moderador to UC6--><g id="link_Moderador_UC6"><path d="M59.68,467.4737 C66.69,455.6137 75.53,443.3037 86,434.0137 C121.05,402.9037 164.4311,383.5594 201.6911,370.6394 " fill="none" id="Moderador-to-UC6" style="stroke:#181818;stroke-width:1.0;"/><polygon fill="#181818" points="207.36,368.6737,197.5462,367.843,202.6359,370.3118,200.1672,375.4015,207.36,368.6737" style="stroke:#181818;stroke-width:1.0;"/></g><!--link Moderador to UC7--><g id="link_Moderador_UC7"><path d="M42.53,546.7637 C45.99,580.4437 56.28,627.6637 86,656.0137 C104.47,673.6337 123.1238,682.9533 147.8738,689.5733 " fill="none" id="Moderador-to-UC7" style="stroke:#181818;stroke-width:1.0;"/><polygon fill="#181818" points="153.67,691.1237,146.0092,684.934,148.8398,689.8317,143.9421,692.6623,153.67,691.1237" style="stroke:#181818;stroke-width:1.0;"/></g><!--link Moderador to UC8--><g id="link_Moderador_UC8"><path d="M43.5,546.8637 C48.07,606.5837 59.81,715.2537 86,743.0137 C102.45,760.4437 118.9327,769.6946 142.0427,776.4746 " fill="none" id="Moderador-to-UC8" style="stroke:#181818;stroke-width:1.0;"/><polygon fill="#181818" points="147.8,778.1637,140.29,771.7918,143.0022,776.7561,138.0379,779.4683,147.8,778.1637" style="stroke:#181818;stroke-width:1.0;"/></g><!--link Moderador to UC9--><g id="link_Moderador_UC9"><path d="M57.34,546.6237 C64.4,559.3537 73.88,572.3737 86,581.0137 C111.32,599.0537 137.6478,607.7811 167.5378,612.9511 " fill="none" id="Moderador-to-UC9" style="stroke:#181818;stroke-width:1.0;"/><polygon fill="#181818" points="173.45,613.9737,165.2634,608.4983,168.5232,613.1215,163.8999,616.3812,173.45,613.9737" style="stroke:#181818;stroke-width:1.0;"/></g><!--link Moderador to UC10--><g id="link_Moderador_UC10"><path d="M41.04,546.5137 C41.95,623.6737 48.36,790.4037 86,831.0137 C108.61,855.4137 136.9484,865.2931 169.1884,869.4131 " fill="none" id="Moderador-to-UC10" style="stroke:#181818;stroke-width:1.0;"/><polygon fill="#181818" points="175.14,870.1737,166.7196,865.0651,170.1803,869.5399,165.7056,873.0006,175.14,870.1737" style="stroke:#181818;stroke-width:1.0;"/></g><!--SRC=[TP9BJWCn38RtEONLVQNITpT8K5Yo0VK0diIKY9auv352gZWIf-1YfCDaQ4d9ylTd-xUTcfu310Qdzoy1b7OaWsOZK0PsyC2A72fsGbYKhxWdkB6rbYWJSn02qii16wiS8N_eGiSNFKdq1AD7QhL7TywD03tijbSbVb_hHfj_-EcbyjwoINO1mP5b5yY38f1i0Xcjk4-T2r5OajoG2UWqvmRBhi77-OGx7plcmd1FqLlgkiSUwWlDBancMfsQecefcJHIOuON9Nn7lghvBH8MfJUznu7TSXDDMbKQ29igWSVvBTTVdo6fVTRgbx_DXItMMBaKPg1twyYVxdfzih3XA3-j5Afym8b8ong-2up7rzrP_ohJGfaLohnG5eMoB9HLeQmBPLCwd8Xl]--></g></svg>