<svg xmlns="http://www.w3.org/2000/svg" xmlns:xlink="http://www.w3.org/1999/xlink" contentStyleType="text/css" data-diagram-type="STATE" height="990px" preserveAspectRatio="none" style="width:418px;height:990px;background:#FFFFFF;" version="1.1" viewBox="0 0 418 990" width="418px" zoomAndPan="magnify"><defs/><g><rect fill="#F1F1F1" height="40" rx="12.5" ry="12.5" style="stroke:#181818;stroke-width:0.5;" width="160.9375" x="125.53" y="7"/><text fill="#000000" font-family="sans-serif" font-size="14" lengthAdjust="spacing" textLength="150.9375" x="130.53" y="31.8467">LISTANDO_USUARIOS</text><rect fill="#F1F1F1" height="40" rx="12.5" ry="12.5" style="stroke:#181818;stroke-width:0.5;" width="160.9375" x="125.53" y="944.89"/><text fill="#000000" font-family="sans-serif" font-size="14" lengthAdjust="spacing" textLength="150.9375" x="130.53" y="969.7367">LISTANDO_USUARIOS</text><path d="M19.5,107 L392.5,107 A12.5,12.5 0 0 1 405,119.5 L405,133.2969 L7,133.2969 L7,119.5 A12.5,12.5 0 0 1 19.5,107 " fill="#F1F1F1" style="stroke:#F1F1F1;stroke-width:1;"/><rect fill="none" height="677.8869" rx="12.5" ry="12.5" style="stroke:#181818;stroke-width:0.5;" width="398" x="7" y="107"/><line style="stroke:#181818;stroke-width:0.5;" x1="7" x2="405" y1="133.2969" y2="133.2969"/><text fill="#000000" font-family="sans-serif" font-size="14" lengthAdjust="spacing" textLength="91.6836" x="160.1582" y="124.9951">CrearUsuario</text><rect fill="#F1F1F1" height="40" rx="12.5" ry="12.5" style="stroke:#181818;stroke-width:0.5;" width="50" x="80" y="224.8869"/><text fill="#000000" font-family="sans-serif" font-size="14" lengthAdjust="spacing" textLength="4.4502" x="102.7749" y="249.7336">&#160;</text><rect fill="#F1F1F1" height="40" rx="12.5" ry="12.5" style="stroke:#181818;stroke-width:0.5;" width="50" x="80" y="456.8869"/><text fill="#000000" font-family="sans-serif" font-size="14" lengthAdjust="spacing" textLength="4.4502" x="102.7749" y="481.7336">&#160;</text><g id="elem_revisionCrearUsuario"><polygon fill="#F1F1F1" points="105,642.8869,117,654.8869,105,666.8869,93,654.8869,105,642.8869" style="stroke:#181818;stroke-width:0.5;"/></g><rect fill="#F1F1F1" height="42.5938" rx="12.5" ry="12.5" style="stroke:#181818;stroke-width:0.5;" width="143.8955" x="33.05" y="145.2969"/><text fill="#000000" font-family="sans-serif" font-size="14" font-weight="bold" lengthAdjust="spacing" textLength="129.4453" x="38.05" y="163.292">Usuario Solicita:</text><text fill="#000000" font-family="sans-serif" font-size="14" lengthAdjust="spacing" textLength="4.4502" x="167.4953" y="163.292">&#160;</text><text fill="#000000" font-family="sans-serif" font-size="14" lengthAdjust="spacing" textLength="94.7598" x="42.5002" y="179.5889">Crear usuario</text><ellipse cx="105" cy="763.8869" fill="none" rx="11" ry="11" style="stroke:#222222;stroke-width:1;"/><ellipse cx="105" cy="763.8869" fill="#222222" rx="6" ry="6" style="stroke:#222222;stroke-width:1;"/><!--link usuarioSolicita to solicitudCrearUsuario--><g id="link_usuarioSolicita_solicitudCrearUsuario"><path d="M105,188.0369 C105,199.3369 105,207.2969 105,218.4369 " fill="none" id="usuarioSolicita-to-solicitudCrearUsuario" style="stroke:#008000;stroke-width:1;"/><polygon fill="#008000" points="105,224.4369,109,215.4369,105,219.4369,101,215.4369,105,224.4369" style="stroke:#008000;stroke-width:1;"/></g><!--link solicitudCrearUsuario to envioCrearUsuario--><g id="link_solicitudCrearUsuario_envioCrearUsuario"><path d="M105,265.0969 C105,308.3969 105,407.1669 105,450.5669 " fill="none" id="solicitudCrearUsuario-to-envioCrearUsuario" style="stroke:#008000;stroke-width:1;"/><polygon fill="#008000" points="105,456.5669,109,447.5669,105,451.5669,101,447.5669,105,456.5669" style="stroke:#008000;stroke-width:1;"/><path d="M110,287.8869 L110,433.8869 L307,433.8869 L307,297.8869 L297,287.8869 L110,287.8869 " fill="#F5F5F5" style="stroke:#008000;stroke-width:0.5;"/><path d="M297,287.8869 L297,297.8869 L307,297.8869 L297,287.8869 " fill="#F5F5F5" style="stroke:#008000;stroke-width:0.5;"/><text fill="#000000" font-family="sans-serif" font-size="13" font-weight="bold" lengthAdjust="spacing" textLength="117.7871" x="116" y="304.9538">Sistema Solicita</text><ellipse cx="121.5" cy="315.6525" fill="#000000" rx="2.5" ry="2.5" style="stroke:#000000;stroke-width:0;"/><text fill="#000000" font-family="sans-serif" font-size="13" lengthAdjust="spacing" textLength="102.7178" x="128" y="320.0866">Campos a crear</text><ellipse cx="121.5" cy="330.7853" fill="#000000" rx="2.5" ry="2.5" style="stroke:#000000;stroke-width:0;"/><text fill="#000000" font-family="sans-serif" font-size="13" font-weight="bold" lengthAdjust="spacing" textLength="63.0322" x="128" y="335.2194">Campos:</text><text fill="#000000" font-family="sans-serif" font-size="13" lengthAdjust="spacing" textLength="137.0142" x="132.5293" y="350.3522">- Nombre del usuario</text><text fill="#000000" font-family="sans-serif" font-size="13" lengthAdjust="spacing" textLength="128.7495" x="132.5293" y="365.485">- Correo del usuario</text><text fill="#000000" font-family="sans-serif" font-size="13" lengthAdjust="spacing" textLength="159.7324" x="132.5293" y="380.6178">- Contrase&#241;a del usuario</text><text fill="#000000" font-family="sans-serif" font-size="13" lengthAdjust="spacing" textLength="4.1323" x="116" y="395.7506">&#160;</text><text fill="#000000" font-family="sans-serif" font-size="13" font-weight="bold" lengthAdjust="spacing" textLength="121.2212" x="116" y="410.8835">Sistema Permite</text><ellipse cx="121.5" cy="421.5822" fill="#000000" rx="2.5" ry="2.5" style="stroke:#000000;stroke-width:0;"/><text fill="#000000" font-family="sans-serif" font-size="13" lengthAdjust="spacing" textLength="87.9912" x="128" y="426.0163">Crear usuario</text></g><!--link envioCrearUsuario to revisionCrearUsuario--><g id="link_envioCrearUsuario_revisionCrearUsuario"><path d="M105,497.0569 C105,533.7669 105,606.9469 105,636.4769 " fill="none" id="envioCrearUsuario-to-revisionCrearUsuario" style="stroke:#008000;stroke-width:1;"/><polygon fill="#008000" points="105,642.4769,109,633.4769,105,637.4769,101,633.4769,105,642.4769" style="stroke:#008000;stroke-width:1;"/><path d="M110,519.8869 L110,619.8869 L362,619.8869 L362,529.8869 L352,519.8869 L110,519.8869 " fill="#F5F5F5" style="stroke:#008000;stroke-width:0.5;"/><path d="M352,519.8869 L352,529.8869 L362,529.8869 L352,519.8869 " fill="#F5F5F5" style="stroke:#008000;stroke-width:0.5;"/><text fill="#000000" font-family="sans-serif" font-size="13" font-weight="bold" lengthAdjust="spacing" textLength="130.9966" x="116" y="536.9538">Usuario introduce</text><ellipse cx="121.5" cy="547.6525" fill="#000000" rx="2.5" ry="2.5" style="stroke:#000000;stroke-width:0;"/><text fill="#000000" font-family="sans-serif" font-size="13" lengthAdjust="spacing" textLength="102.7178" x="128" y="552.0866">Campos a crear</text><ellipse cx="121.5" cy="562.7853" fill="#000000" rx="2.5" ry="2.5" style="stroke:#000000;stroke-width:0;"/><text fill="#000000" font-family="sans-serif" font-size="13" font-weight="bold" lengthAdjust="spacing" textLength="57.8335" x="128" y="567.2194">Campos</text><text fill="#000000" font-family="sans-serif" font-size="13" lengthAdjust="spacing" textLength="137.0142" x="132.5293" y="582.3522">- Nombre del usuario</text><text fill="#000000" font-family="sans-serif" font-size="13" lengthAdjust="spacing" textLength="128.7495" x="132.5293" y="597.485">- Correo del usuario</text><text fill="#000000" font-family="sans-serif" font-size="13" lengthAdjust="spacing" textLength="214.8999" x="132.5293" y="612.6178">- Generar contrase&#241;a del usuario</text></g><!--link revisionCrearUsuario to *end*CrearUsuario--><g id="link_revisionCrearUsuario_*end*CrearUsuario"><path d="M96.34,658.7769 C74.33,666.1069 18,684.8869 18,684.8869 C18,684.8869 18,734.8869 18,734.8869 C18,734.8869 65.9186,750.3083 88.9686,757.7283 " fill="none" id="revisionCrearUsuario-to-*end*CrearUsuario" style="stroke:#FF0000;stroke-width:1;"/><polygon fill="#FF0000" points="94.68,759.5669,87.3386,753.0015,89.9205,758.0348,84.8872,760.6166,94.68,759.5669" style="stroke:#FF0000;stroke-width:1;"/><path d="M23,689.8869 L23,729.8869 L167,729.8869 L167,699.8869 L157,689.8869 L23,689.8869 " fill="#F5F5F5" style="stroke:#008000;stroke-width:0.5;"/><path d="M157,689.8869 L157,699.8869 L167,699.8869 L157,689.8869 " fill="#F5F5F5" style="stroke:#008000;stroke-width:0.5;"/><text fill="#000000" font-family="sans-serif" font-size="13" font-weight="bold" lengthAdjust="spacing" textLength="123.5762" x="29" y="706.9538">Sistema Muestra</text><text fill="#000000" font-family="sans-serif" font-size="13" lengthAdjust="spacing" textLength="110.3032" x="29" y="722.0866">Mensaje de error</text></g><!--link revisionCrearUsuario to *end*CrearUsuario--><g id="link_revisionCrearUsuario_*end*CrearUsuario"><path d="M112.95,659.3269 C130.7,667.0069 172,684.8869 172,684.8869 C172,684.8869 172,734.8869 172,734.8869 C172,734.8869 139.4551,748.4812 120.7151,756.3212 " fill="none" id="revisionCrearUsuario-to-*end*CrearUsuario-1" style="stroke:#008000;stroke-width:1;"/><polygon fill="#008000" points="115.18,758.6369,125.0265,758.8535,119.7926,756.7072,121.9389,751.4733,115.18,758.6369" style="stroke:#008000;stroke-width:1;"/><path d="M177,689.8869 L177,729.8869 L396,729.8869 L396,699.8869 L386,689.8869 L177,689.8869 " fill="#F5F5F5" style="stroke:#008000;stroke-width:0.5;"/><path d="M386,689.8869 L386,699.8869 L396,699.8869 L386,689.8869 " fill="#F5F5F5" style="stroke:#008000;stroke-width:0.5;"/><text fill="#000000" font-family="sans-serif" font-size="13" font-weight="bold" lengthAdjust="spacing" textLength="123.5762" x="183" y="706.9538">Sistema Muestra</text><text fill="#000000" font-family="sans-serif" font-size="13" lengthAdjust="spacing" textLength="198.3262" x="183" y="722.0866">Usuario creado correctamente</text></g><rect fill="#F1F1F1" height="40" rx="12.5" ry="12.5" style="stroke:#181818;stroke-width:0.5;" width="105.3955" x="206.3" y="844.89"/><text fill="#000000" font-family="sans-serif" font-size="14" lengthAdjust="spacing" textLength="95.3955" x="211.3" y="869.7367">listarUsuarios</text><!--link startState to CrearUsuario--><g id="link_startState_CrearUsuario"><path d="M206,47.28 C206,61.21 206,75.89 206,100.62 " fill="none" id="startState-to-CrearUsuario" style="stroke:#008000;stroke-width:1;"/><polygon fill="#008000" points="206,106.62,210,97.62,206,101.62,202,97.62,206,106.62" style="stroke:#008000;stroke-width:1;"/></g><!--link CrearUsuario to listarUsuarios--><g id="link_CrearUsuario_listarUsuarios"><path d="M248.97,784.98 C252.12,809.74 253.9927,824.508 255.7727,838.498 " fill="none" id="CrearUsuario-to-listarUsuarios" style="stroke:#008000;stroke-width:1;"/><polygon fill="#008000" points="256.53,844.45,259.3621,835.0171,255.8989,839.49,251.426,836.0268,256.53,844.45" style="stroke:#008000;stroke-width:1;"/></g><!--link listarUsuarios to endState--><g id="link_listarUsuarios_endState"><path d="M248.53,885.25 C239.24,902.43 228.5828,922.1216 219.3028,939.2916 " fill="none" id="listarUsuarios-to-endState" style="stroke:#008000;stroke-width:1;"/><polygon fill="#008000" points="216.45,944.57,224.2482,938.5543,218.8274,940.1714,217.2103,934.7505,216.45,944.57" style="stroke:#008000;stroke-width:1;"/></g><!--link CrearUsuario to endState--><g id="link_CrearUsuario_endState"><path d="M191.55,785.31 C190.01,821.17 189,844.89 189,844.89 C189,844.89 189,884.89 189,884.89 C189,884.89 195.588,915.5242 200.618,938.9042 " fill="none" id="CrearUsuario-to-endState" style="stroke:#FF0000;stroke-width:1;"/><polygon fill="#FF0000" points="201.88,944.77,203.8976,935.13,200.8284,939.8818,196.0765,936.8126,201.88,944.77" style="stroke:#FF0000;stroke-width:1;"/></g><!--SRC=[jLJRQjmm47tNLmoRjy3Izx0OjbieWIOfTVSf3KKh3LbrROqPoGbBoKVr6_fZ7VaIRCTTMaByO5kQCpFd78qT3ivNcdK9FnN0DKLyhytXdgdsTaC5CPmzxbt4lAG32cBDJ8zTu9uHVPz5R94dWS9vZCSAeQBYc1RgIQczimXOLl485eDXLqL7NgaGTKIGEyUyUTK15fykyw_hwmyttxVvTltbyYPVT3ZqzYHA3Gejbnbi63LlGwtPaHekccZX4hpR2MgyR11zlqdkxHcZlHk4EteZL78MeDD7XJCkrdQ4I29WCO2XVt1q6iBuu88uDqAjLcPFpc2M3P1r6ypRrhefjTfbVKw_Vx5wjylWcs_9zrbYPQeqhP4ycTNIzfrLsVeu4TRWlKmGa4y3SsWsqYKKSpa8BFKpnSJmENuE6rrMSZuQJ2eu24Xg6xiOPQHhAUDQxXXb-8fUrGIm8MQaam0VMGVy_KkFK7FKFoENylrCcGyjRlPbWXeRLBUQddyoR-x8J_hN9plXIxOs-Dy6leb_7z4ZYtxp5nzV-Z4xxDtN9yRSdj_zqnnTrHYauqZK5VgWVoGzWF9puvVTvvk_icrV9pblvP4yCr6Nw2EEAJpz0G00]--></g></svg>