<svg xmlns="http://www.w3.org/2000/svg" xmlns:xlink="http://www.w3.org/1999/xlink" contentStyleType="text/css" data-diagram-type="STATE" height="698px" preserveAspectRatio="none" style="width:424px;height:698px;background:#FFFFFF;" version="1.1" viewBox="0 0 424 698" width="424px" zoomAndPan="magnify"><defs/><g><rect fill="#F1F1F1" height="40" rx="12.5" ry="12.5" style="stroke:#181818;stroke-width:0.5;" width="160.9375" x="128.53" y="7"/><text fill="#000000" font-family="sans-serif" font-size="14" lengthAdjust="spacing" textLength="150.9375" x="133.53" y="31.8467">LISTANDO_USUARIOS</text><rect fill="#F1F1F1" height="40" rx="12.5" ry="12.5" style="stroke:#181818;stroke-width:0.5;" width="160.9375" x="128.53" y="652.89"/><text fill="#000000" font-family="sans-serif" font-size="14" lengthAdjust="spacing" textLength="150.9375" x="133.53" y="677.7367">LISTANDO_USUARIOS</text><path d="M19.5,107 L398.5,107 A12.5,12.5 0 0 1 411,119.5 L411,133.2969 L7,133.2969 L7,119.5 A12.5,12.5 0 0 1 19.5,107 " fill="#F1F1F1" style="stroke:#F1F1F1;stroke-width:1;"/><rect fill="none" height="385.8869" rx="12.5" ry="12.5" style="stroke:#181818;stroke-width:0.5;" width="404" x="7" y="107"/><line style="stroke:#181818;stroke-width:0.5;" x1="7" x2="411" y1="133.2969" y2="133.2969"/><text fill="#000000" font-family="sans-serif" font-size="14" lengthAdjust="spacing" textLength="97.2207" x="160.3896" y="124.9951">BorrarUsuario</text><rect fill="#F1F1F1" height="40" rx="12.5" ry="12.5" style="stroke:#181818;stroke-width:0.5;" width="50" x="80" y="224.8869"/><text fill="#000000" font-family="sans-serif" font-size="14" lengthAdjust="spacing" textLength="4.4502" x="102.7749" y="249.7336">&#160;</text><g id="elem_revisionBorrarUsuario"><polygon fill="#F1F1F1" points="105,350.8869,117,362.8869,105,374.8869,93,362.8869,105,350.8869" style="stroke:#181818;stroke-width:0.5;"/></g><rect fill="#F1F1F1" height="42.5938" rx="12.5" ry="12.5" style="stroke:#181818;stroke-width:0.5;" width="143.8955" x="33.05" y="145.2969"/><text fill="#000000" font-family="sans-serif" font-size="14" font-weight="bold" lengthAdjust="spacing" textLength="129.4453" x="38.05" y="163.292">Usuario Solicita:</text><text fill="#000000" font-family="sans-serif" font-size="14" lengthAdjust="spacing" textLength="4.4502" x="167.4953" y="163.292">&#160;</text><text fill="#000000" font-family="sans-serif" font-size="14" lengthAdjust="spacing" textLength="100.2969" x="42.5002" y="179.5889">Borrar usuario</text><ellipse cx="105" cy="471.8869" fill="none" rx="11" ry="11" style="stroke:#222222;stroke-width:1;"/><ellipse cx="105" cy="471.8869" fill="#222222" rx="6" ry="6" style="stroke:#222222;stroke-width:1;"/><!--link usuarioSolicita to solicitudBorrarUsuario--><g id="link_usuarioSolicita_solicitudBorrarUsuario"><path d="M105,188.0369 C105,199.3369 105,207.2969 105,218.4369 " fill="none" id="usuarioSolicita-to-solicitudBorrarUsuario" style="stroke:#008000;stroke-width:1;"/><polygon fill="#008000" points="105,224.4369,109,215.4369,105,219.4369,101,215.4369,105,224.4369" style="stroke:#008000;stroke-width:1;"/></g><!--link solicitudBorrarUsuario to revisionBorrarUsuario--><g id="link_solicitudBorrarUsuario_revisionBorrarUsuario"><path d="M105,265.3069 C105,289.5569 105,324.2769 105,344.1969 " fill="none" id="solicitudBorrarUsuario-to-revisionBorrarUsuario" style="stroke:#008000;stroke-width:1;"/><polygon fill="#008000" points="105,350.1969,109,341.1969,105,345.1969,101,341.1969,105,350.1969" style="stroke:#008000;stroke-width:1;"/><path d="M110,287.8869 L110,327.8869 L251,327.8869 L251,297.8869 L241,287.8869 L110,287.8869 " fill="#F5F5F5" style="stroke:#008000;stroke-width:0.5;"/><path d="M241,287.8869 L241,297.8869 L251,297.8869 L241,287.8869 " fill="#F5F5F5" style="stroke:#008000;stroke-width:0.5;"/><text fill="#000000" font-family="sans-serif" font-size="13" font-weight="bold" lengthAdjust="spacing" textLength="120.999" x="116" y="304.9538">Sistema permite</text><ellipse cx="121.5" cy="315.6525" fill="#000000" rx="2.5" ry="2.5" style="stroke:#000000;stroke-width:0;"/><text fill="#000000" font-family="sans-serif" font-size="13" lengthAdjust="spacing" textLength="93.1328" x="128" y="320.0866">Borrar usuario</text></g><!--link revisionBorrarUsuario to *end*BorrarUsuario--><g id="link_revisionBorrarUsuario_*end*BorrarUsuario"><path d="M96.34,366.7769 C74.33,374.1069 18,392.8869 18,392.8869 C18,392.8869 18,442.8869 18,442.8869 C18,442.8869 65.9186,458.3083 88.9686,465.7283 " fill="none" id="revisionBorrarUsuario-to-*end*BorrarUsuario" style="stroke:#FF0000;stroke-width:1;"/><polygon fill="#FF0000" points="94.68,467.5669,87.3386,461.0015,89.9205,466.0348,84.8872,468.6166,94.68,467.5669" style="stroke:#FF0000;stroke-width:1;"/><path d="M23,397.8869 L23,437.8869 L167,437.8869 L167,407.8869 L157,397.8869 L23,397.8869 " fill="#F5F5F5" style="stroke:#008000;stroke-width:0.5;"/><path d="M157,397.8869 L157,407.8869 L167,407.8869 L157,397.8869 " fill="#F5F5F5" style="stroke:#008000;stroke-width:0.5;"/><text fill="#000000" font-family="sans-serif" font-size="13" font-weight="bold" lengthAdjust="spacing" textLength="123.5762" x="29" y="414.9538">Sistema Muestra</text><text fill="#000000" font-family="sans-serif" font-size="13" lengthAdjust="spacing" textLength="110.3032" x="29" y="430.0866">Mensaje de error</text></g><!--link revisionBorrarUsuario to *end*BorrarUsuario--><g id="link_revisionBorrarUsuario_*end*BorrarUsuario"><path d="M112.95,367.3269 C130.7,375.0069 172,392.8869 172,392.8869 C172,392.8869 172,442.8869 172,442.8869 C172,442.8869 139.4551,456.4812 120.7151,464.3212 " fill="none" id="revisionBorrarUsuario-to-*end*BorrarUsuario-1" style="stroke:#008000;stroke-width:1;"/><polygon fill="#008000" points="115.18,466.6369,125.0265,466.8535,119.7926,464.7072,121.9389,459.4733,115.18,466.6369" style="stroke:#008000;stroke-width:1;"/><path d="M177,397.8869 L177,437.8869 L402,437.8869 L402,407.8869 L392,397.8869 L177,397.8869 " fill="#F5F5F5" style="stroke:#008000;stroke-width:0.5;"/><path d="M392,397.8869 L392,407.8869 L402,407.8869 L392,397.8869 " fill="#F5F5F5" style="stroke:#008000;stroke-width:0.5;"/><text fill="#000000" font-family="sans-serif" font-size="13" font-weight="bold" lengthAdjust="spacing" textLength="123.5762" x="183" y="414.9538">Sistema Muestra</text><text fill="#000000" font-family="sans-serif" font-size="13" lengthAdjust="spacing" textLength="204.731" x="183" y="430.0866">Usuario borrado correctamente</text></g><rect fill="#F1F1F1" height="40" rx="12.5" ry="12.5" style="stroke:#181818;stroke-width:0.5;" width="105.3955" x="209.3" y="552.89"/><text fill="#000000" font-family="sans-serif" font-size="14" lengthAdjust="spacing" textLength="95.3955" x="214.3" y="577.7367">listarUsuarios</text><!--link startState to BorrarUsuario--><g id="link_startState_BorrarUsuario"><path d="M209,47.49 C209,61.75 209,76.7 209,100.53 " fill="none" id="startState-to-BorrarUsuario" style="stroke:#008000;stroke-width:1;"/><polygon fill="#008000" points="209,106.53,213,97.53,209,101.53,205,97.53,209,106.53" style="stroke:#008000;stroke-width:1;"/></g><!--link BorrarUsuario to listarUsuarios--><g id="link_BorrarUsuario_listarUsuarios"><path d="M246.6,493.16 C251.31,517.22 254.2871,532.4718 257.0871,546.7718 " fill="none" id="BorrarUsuario-to-listarUsuarios" style="stroke:#008000;stroke-width:1;"/><polygon fill="#008000" points="258.24,552.66,260.4361,543.0591,257.2792,547.7532,252.5851,544.5963,258.24,552.66" style="stroke:#008000;stroke-width:1;"/></g><!--link BorrarUsuario to endState--><g id="link_BorrarUsuario_endState"><path d="M196.03,493.18 C193.7,527.67 192,552.89 192,552.89 C192,552.89 192,592.89 192,592.89 C192,592.89 198.588,623.5242 203.618,646.9042 " fill="none" id="BorrarUsuario-to-endState" style="stroke:#FF0000;stroke-width:1;"/><polygon fill="#FF0000" points="204.88,652.77,206.8976,643.13,203.8284,647.8818,199.0765,644.8126,204.88,652.77" style="stroke:#FF0000;stroke-width:1;"/></g><!--link listarUsuarios to endState--><g id="link_listarUsuarios_endState"><path d="M251.53,593.25 C242.24,610.43 231.5828,630.1216 222.3028,647.2916 " fill="none" id="listarUsuarios-to-endState" style="stroke:#008000;stroke-width:1;"/><polygon fill="#008000" points="219.45,652.57,227.2482,646.5543,221.8274,648.1714,220.2103,642.7505,219.45,652.57" style="stroke:#008000;stroke-width:1;"/></g><!--SRC=[fLBBQiCm4BphAvRa5WYz5sD8sqkWIQ1kJcaeYhKagct9hEI6KFBlbMGxZLst5Eg37vhPcTdrcaogaXClu8C1BBN5EvvcUzAL4lSwrmJZuq5QJ0gTeMFCYFIn0VQ4gDegJGAf1-HIeJsL2ANEJ_w3dHaxI860HMbF8D2a94ihjMBCM6uHt9ri4bwvWT7ZF7cUBHzMh-jaFNkQhv9HmqCbVcMnAw7fD0QNZpYjJSL9QjRv2dWkVK5pOlg4pPXGR1sjjMLTVf2uO4t4heOVBq3JfCvbAcqbkXJV2eokU8JlqhZXT6bHb1wqJ36EhwXL3IQrCWzQqIvkQzhps-Xc5yEBQiArPMvUNgeluhiQpbex3xVXgmQJXoBbbWMqyhkHXGD_kQI96oWM74gamksRptc19xsu0N3Z3c9rzE5HVVsupMJx9_j5XSOIxzWlK1d-Xk3trgq_VRV_mVsVlgtEpgiA3QbxOcfvWSfYDyJv4m00]--></g></svg>