<svg xmlns="http://www.w3.org/2000/svg" xmlns:xlink="http://www.w3.org/1999/xlink" contentStyleType="text/css" height="939px" preserveAspectRatio="none" style="width:671px;height:939px;background:#FFFFFF;" version="1.1" viewBox="0 0 671 939" width="671px" zoomAndPan="magnify"><defs/><g><rect fill="#F1F1F1" height="40" rx="12.5" ry="12.5" style="stroke:#181818;stroke-width:0.5;" width="160.9375" x="252" y="7"/><text fill="#000000" font-family="sans-serif" font-size="14" lengthAdjust="spacing" textLength="150.9375" x="257" y="31.8467">LISTANDO_USUARIOS</text><rect fill="#F1F1F1" height="40" rx="12.5" ry="12.5" style="stroke:#181818;stroke-width:0.5;" width="160.9375" x="252" y="893"/><text fill="#000000" font-family="sans-serif" font-size="14" lengthAdjust="spacing" textLength="150.9375" x="257" y="917.8467">LISTANDO_USUARIOS</text><path d="M19.5,107 L645.5,107 A12.5,12.5 0 0 1 658,119.5 L658,133.2969 L7,133.2969 L7,119.5 A12.5,12.5 0 0 1 19.5,107 " fill="#F1F1F1" style="stroke:#F1F1F1;stroke-width:1;"/><rect fill="none" height="726.2969" rx="12.5" ry="12.5" style="stroke:#181818;stroke-width:0.5;" width="651" x="7" y="107"/><line style="stroke:#181818;stroke-width:0.5;" x1="7" x2="658" y1="133.2969" y2="133.2969"/><text fill="#000000" font-family="sans-serif" font-size="14" lengthAdjust="spacing" textLength="99.3057" x="282.8472" y="124.9951">ListarUsuarios</text><rect fill="#F1F1F1" height="40" rx="12.5" ry="12.5" style="stroke:#181818;stroke-width:0.5;" width="50" x="181" y="251.7969"/><text fill="#000000" font-family="sans-serif" font-size="14" lengthAdjust="spacing" textLength="4.4502" x="203.7749" y="276.6436"> </text><rect fill="#F1F1F1" height="40" rx="12.5" ry="12.5" style="stroke:#181818;stroke-width:0.5;" width="50" x="270" y="459.2969"/><text fill="#000000" font-family="sans-serif" font-size="14" lengthAdjust="spacing" textLength="4.4502" x="292.7749" y="484.1436"> </text><g id="elem_revisionFiltrosEnviados"><polygon fill="#F1F1F1" points="299,655.7969,311,667.7969,299,679.7969,287,667.7969,299,655.7969" style="stroke:#181818;stroke-width:0.5;"/></g><g id="elem_revisionListaUsuarios"><polygon fill="#F1F1F1" points="115,467.2969,127,479.2969,115,491.2969,103,479.2969,115,467.2969" style="stroke:#181818;stroke-width:0.5;"/></g><rect fill="#F1F1F1" height="42.5938" rx="12.5" ry="12.5" style="stroke:#181818;stroke-width:0.5;" width="143.8955" x="19" y="250.2969"/><text fill="#000000" font-family="sans-serif" font-size="14" font-weight="bold" lengthAdjust="spacing" textLength="129.4453" x="24" y="268.292">Usuario Solicita:</text><text fill="#000000" font-family="sans-serif" font-size="14" lengthAdjust="spacing" textLength="4.4502" x="153.4453" y="268.292"> </text><text fill="#000000" font-family="sans-serif" font-size="14" lengthAdjust="spacing" textLength="102.3818" x="28.4502" y="284.5889">Listar usuarios</text><ellipse cx="206" cy="154.2969" fill="#222222" rx="10" ry="10" style="stroke:#222222;stroke-width:1;"/><ellipse cx="131" cy="812.2969" fill="none" rx="11" ry="11" style="stroke:#222222;stroke-width:1;"/><ellipse cx="131" cy="812.2969" fill="#222222" rx="6" ry="6" style="stroke:#222222;stroke-width:1;"/><!--link usuarioSolicita to solicitudFiltros--><g id="link_usuarioSolicita_solicitudFiltros"><path d="M163.27,271.7969 C165.96,271.7969 167.67,271.7969 167.67,271.7969 C167.67,271.7969 167.52,271.7969 174.64,271.7969 " fill="none" id="usuarioSolicita-to-solicitudFiltros" style="stroke:#008000;stroke-width:1;"/><polygon fill="#008000" points="180.64,271.7969,171.64,267.7969,175.64,271.7969,171.64,275.7969,180.64,271.7969" style="stroke:#008000;stroke-width:1;"/></g><!--link *start*ListarUsuarios to solicitudFiltros--><g id="link_*start*ListarUsuarios_solicitudFiltros"><path d="M206,164.3569 C206,183.0769 206,220.3669 206,245.5969 " fill="none" id="*start*ListarUsuarios-to-solicitudFiltros" style="stroke:#008000;stroke-width:1;"/><polygon fill="#008000" points="206,251.5969,210,242.5969,206,246.5969,202,242.5969,206,251.5969" style="stroke:#008000;stroke-width:1;"/><path d="M211,187.2969 L211,227.2969 L355,227.2969 L355,197.2969 L345,187.2969 L211,187.2969 " fill="#F5F5F5" style="stroke:#008000;stroke-width:0.5;"/><path d="M345,187.2969 L345,197.2969 L355,197.2969 L345,187.2969 " fill="#F5F5F5" style="stroke:#008000;stroke-width:0.5;"/><text fill="#000000" font-family="sans-serif" font-size="13" font-weight="bold" lengthAdjust="spacing" textLength="123.5762" x="217" y="204.3638">Sistema Muestra</text><text fill="#000000" font-family="sans-serif" font-size="13" lengthAdjust="spacing" textLength="110.1064" x="217" y="219.4966">Lista de usuarios</text></g><!--link solicitudFiltros to revisionListaUsuarios--><g id="link_solicitudFiltros_revisionListaUsuarios"><path d="M180.93,287.9069 C175.84,290.9869 172,293.2969 172,293.2969 C172,293.2969 99,311.2969 99,311.2969 C99,311.2969 99,436.2969 99,436.2969 C99,436.2969 105.1331,452.3903 109.7831,464.5903 " fill="none" id="solicitudFiltros-to-revisionListaUsuarios" style="stroke:#008000;stroke-width:1;"/><polygon fill="#008000" points="111.92,470.1969,112.4523,460.3624,110.1392,465.5247,104.9769,463.2116,111.92,470.1969" style="stroke:#008000;stroke-width:1;"/></g><!--link revisionListaUsuarios to solicitudFiltros--><g id="link_revisionListaUsuarios_solicitudFiltros"><path d="M115,467.0769 C115,429.6369 115,311.2969 115,311.2969 C115,311.2969 172,293.2969 172,293.2969 C172,293.2969 170.7066,294.0931 175.7966,291.0131 " fill="none" id="revisionListaUsuarios-to-solicitudFiltros" style="stroke:#FF0000;stroke-width:1;"/><polygon fill="#FF0000" points="180.93,287.9069,171.1591,289.144,176.6522,290.4954,175.3008,295.9885,180.93,287.9069" style="stroke:#FF0000;stroke-width:1;"/><path d="M120,353.7969 L120,393.7969 L264,393.7969 L264,363.7969 L254,353.7969 L120,353.7969 " fill="#F5F5F5" style="stroke:#008000;stroke-width:0.5;"/><path d="M254,353.7969 L254,363.7969 L264,363.7969 L254,353.7969 " fill="#F5F5F5" style="stroke:#008000;stroke-width:0.5;"/><text fill="#000000" font-family="sans-serif" font-size="13" font-weight="bold" lengthAdjust="spacing" textLength="123.5762" x="126" y="370.8638">Sistema Muestra</text><text fill="#000000" font-family="sans-serif" font-size="13" lengthAdjust="spacing" textLength="110.3032" x="126" y="385.9966">Mensaje de error</text></g><!--link revisionListaUsuarios to *end*ListarUsuarios--><g id="link_revisionListaUsuarios_*end*ListarUsuarios"><path d="M115.43,490.9069 C117.23,534.8569 124,700.2969 124,700.2969 C124,700.2969 128.243,767.5887 129.973,795.0687 " fill="none" id="revisionListaUsuarios-to-*end*ListarUsuarios" style="stroke:#008000;stroke-width:1;"/><polygon fill="#008000" points="130.35,801.0569,133.7766,791.8233,130.0358,796.0668,125.7924,792.326,130.35,801.0569" style="stroke:#008000;stroke-width:1;"/><path d="M129,640.2969 L129,695.2969 L273,695.2969 L273,650.2969 L263,640.2969 L129,640.2969 " fill="#F5F5F5" style="stroke:#008000;stroke-width:0.5;"/><path d="M263,640.2969 L263,650.2969 L273,650.2969 L263,640.2969 " fill="#F5F5F5" style="stroke:#008000;stroke-width:0.5;"/><text fill="#000000" font-family="sans-serif" font-size="13" font-weight="bold" lengthAdjust="spacing" textLength="123.5762" x="135" y="657.3638">Sistema Muestra</text><text fill="#000000" font-family="sans-serif" font-size="13" lengthAdjust="spacing" textLength="110.1064" x="135" y="672.4966">Lista de usuarios</text><text fill="#000000" font-family="sans-serif" font-size="13" lengthAdjust="spacing" textLength="4.1323" x="135" y="687.6294"> </text></g><!--link solicitudFiltros to envioFiltros--><g id="link_solicitudFiltros_envioFiltros"><path d="M231.33,287.3569 C250.3,298.2569 273,311.2969 273,311.2969 C273,311.2969 285.9161,409.3283 291.6961,453.1883 " fill="none" id="solicitudFiltros-to-envioFiltros" style="stroke:#008000;stroke-width:1;"/><polygon fill="#008000" points="292.48,459.1369,295.2698,449.6914,291.8267,454.1797,287.3384,450.7366,292.48,459.1369" style="stroke:#008000;stroke-width:1;"/><path d="M294,316.2969 L294,431.2969 L489,431.2969 L489,326.2969 L479,316.2969 L294,316.2969 " fill="#F5F5F5" style="stroke:#008000;stroke-width:0.5;"/><path d="M479,316.2969 L479,326.2969 L489,326.2969 L479,316.2969 " fill="#F5F5F5" style="stroke:#008000;stroke-width:0.5;"/><text fill="#000000" font-family="sans-serif" font-size="13" font-weight="bold" lengthAdjust="spacing" textLength="117.7871" x="300" y="333.3638">Sistema Solicita</text><ellipse cx="305.5" cy="344.0625" fill="#000000" rx="2.5" ry="2.5" style="stroke:#000000;stroke-width:0;"/><text fill="#000000" font-family="sans-serif" font-size="13" font-weight="bold" lengthAdjust="spacing" textLength="129.981" x="316.5259" y="348.4966">Filtros opcionales</text><text fill="#000000" font-family="sans-serif" font-size="13" lengthAdjust="spacing" textLength="157.8345" x="316.5293" y="363.6294">- Términos de búsqueda</text><text fill="#000000" font-family="sans-serif" font-size="13" lengthAdjust="spacing" textLength="137.0142" x="316.5293" y="378.7622">- Nombre del usuario</text><text fill="#000000" font-family="sans-serif" font-size="13" lengthAdjust="spacing" textLength="121.145" x="316.5293" y="393.895">- Email del usuario</text><text fill="#000000" font-family="sans-serif" font-size="13" font-weight="bold" lengthAdjust="spacing" textLength="121.2212" x="300" y="409.0278">Sistema Permite</text><ellipse cx="305.5" cy="419.7266" fill="#000000" rx="2.5" ry="2.5" style="stroke:#000000;stroke-width:0;"/><text fill="#000000" font-family="sans-serif" font-size="13" lengthAdjust="spacing" textLength="95.0688" x="312" y="424.1606">Listar usuarios</text></g><!--link envioFiltros to revisionFiltrosEnviados--><g id="link_envioFiltros_revisionFiltrosEnviados"><path d="M295.14,499.3469 C295.41,536.9869 296,617.2969 296,617.2969 C296,617.2969 297.1173,635.7778 297.9973,650.3078 " fill="none" id="envioFiltros-to-revisionFiltrosEnviados" style="stroke:#008000;stroke-width:1;"/><polygon fill="#008000" points="298.36,656.2969,301.8086,647.0715,298.0577,651.306,293.8232,647.5552,298.36,656.2969" style="stroke:#008000;stroke-width:1;"/><path d="M301,527.2969 L301,612.2969 L496,612.2969 L496,537.2969 L486,527.2969 L301,527.2969 " fill="#F5F5F5" style="stroke:#008000;stroke-width:0.5;"/><path d="M486,527.2969 L486,537.2969 L496,537.2969 L486,527.2969 " fill="#F5F5F5" style="stroke:#008000;stroke-width:0.5;"/><text fill="#000000" font-family="sans-serif" font-size="13" font-weight="bold" lengthAdjust="spacing" textLength="131.3774" x="307" y="544.3638">Usuario Introduce</text><ellipse cx="312.5" cy="555.0625" fill="#000000" rx="2.5" ry="2.5" style="stroke:#000000;stroke-width:0;"/><text fill="#000000" font-family="sans-serif" font-size="13" font-weight="bold" lengthAdjust="spacing" textLength="129.981" x="323.5259" y="559.4966">Filtros opcionales</text><text fill="#000000" font-family="sans-serif" font-size="13" lengthAdjust="spacing" textLength="157.8345" x="323.5293" y="574.6294">- Términos de búsqueda</text><text fill="#000000" font-family="sans-serif" font-size="13" lengthAdjust="spacing" textLength="137.0142" x="323.5293" y="589.7622">- Nombre del usuario</text><text fill="#000000" font-family="sans-serif" font-size="13" lengthAdjust="spacing" textLength="121.145" x="323.5293" y="604.895">- Email del usuario</text></g><!--link revisionFiltrosEnviados to solicitudFiltros--><g id="link_revisionFiltrosEnviados_solicitudFiltros"><path d="M307.94,664.6069 C347.03,655.0269 501,617.2969 501,617.2969 C501,617.2969 501,522.2969 501,522.2969 C501,522.2969 498,311.2969 498,311.2969 C498,311.2969 307.9286,286.2304 237.0986,276.9004 " fill="none" id="revisionFiltrosEnviados-to-solicitudFiltros" style="stroke:#FF0000;stroke-width:1;"/><polygon fill="#FF0000" points="231.15,276.1169,239.5505,281.258,236.1072,276.7699,240.5953,273.3265,231.15,276.1169" style="stroke:#FF0000;stroke-width:1;"/><path d="M505,459.2969 L505,499.2969 L649,499.2969 L649,469.2969 L639,459.2969 L505,459.2969 " fill="#F5F5F5" style="stroke:#008000;stroke-width:0.5;"/><path d="M639,459.2969 L639,469.2969 L649,469.2969 L639,459.2969 " fill="#F5F5F5" style="stroke:#008000;stroke-width:0.5;"/><text fill="#000000" font-family="sans-serif" font-size="13" font-weight="bold" lengthAdjust="spacing" textLength="123.5762" x="511" y="476.3638">Sistema Muestra</text><text fill="#000000" font-family="sans-serif" font-size="13" lengthAdjust="spacing" textLength="110.3032" x="511" y="491.4966">Mensaje de error</text></g><!--link revisionFiltrosEnviados to *end*ListarUsuarios--><g id="link_revisionFiltrosEnviados_*end*ListarUsuarios"><path d="M293.99,674.8669 C286.43,684.0269 273,700.2969 273,700.2969 C273,700.2969 174.7569,777.0914 144.1869,800.9914 " fill="none" id="revisionFiltrosEnviados-to-*end*ListarUsuarios" style="stroke:#008000;stroke-width:1;"/><polygon fill="#008000" points="139.46,804.6869,149.014,802.2948,143.399,801.6073,144.0866,795.9924,139.46,804.6869" style="stroke:#008000;stroke-width:1;"/><path d="M254,723.2969 L254,778.2969 L435,778.2969 L435,733.2969 L425,723.2969 L254,723.2969 " fill="#F5F5F5" style="stroke:#008000;stroke-width:0.5;"/><path d="M425,723.2969 L425,733.2969 L435,733.2969 L425,723.2969 " fill="#F5F5F5" style="stroke:#008000;stroke-width:0.5;"/><text fill="#000000" font-family="sans-serif" font-size="13" font-weight="bold" lengthAdjust="spacing" textLength="123.5762" x="260" y="740.3638">Sistema Muestra</text><text fill="#000000" font-family="sans-serif" font-size="13" lengthAdjust="spacing" textLength="160.6655" x="260" y="755.4966">Lista de usuarios filtrada</text><text fill="#000000" font-family="sans-serif" font-size="13" lengthAdjust="spacing" textLength="4.1323" x="260" y="770.6294"> </text></g><!--link startState to ListarUsuarios--><g id="link_startState_ListarUsuarios"><path d="M332.5,47.23 C332.5,61.16 332.5,75.87 332.5,100.76 " fill="none" id="startState-to-ListarUsuarios" style="stroke:#008000;stroke-width:1;"/><polygon fill="#008000" points="332.5,106.76,336.5,97.76,332.5,101.76,328.5,97.76,332.5,106.76" style="stroke:#008000;stroke-width:1;"/></g><!--link ListarUsuarios to endState--><g id="link_ListarUsuarios_endState"><path d="M332.5,833.16 C332.5,858.21 332.5,873.02 332.5,886.97 " fill="none" id="ListarUsuarios-to-endState" style="stroke:#008000;stroke-width:1;"/><polygon fill="#008000" points="332.5,892.97,336.5,883.97,332.5,887.97,328.5,883.97,332.5,892.97" style="stroke:#008000;stroke-width:1;"/></g><!--SRC=[pPJ1Rjim38RlUWeYlHKmTXy20zdM0W7QT9YRKrSCYiKrMcp9e-GMmT07sYlisXSRfTYfxRf13y4m7O98_4L- -aF6RRIf9CaIVWdWjR0UFyXySqUsDkgZBIp1oSDQUynAky6ecH7PXoPqHuZc-QObXVGYL6Y3VbiXLBROXeru56Aj5GAMbT-2GfUJhhosHWZdfKVWJ_9P_2eTJ2xcsVLiyUdgsp9RphxChx99eqEZ3gf49r6If72Xmy7IrPAqTKBqzr7IfcnH1fATJmsbBNIkVQtETU69Wu429Xq5cdjjNuqItcl7hsu4PooMYeNJQRwsEiSq7H57dZtEgBJUHRCTdeo5fwkqkGJj-VlfkrKANqtpnFQQOzj2hc4MzcRuuAYxERsDneq63RS5M1DwO1CFmcAMZ4jYAU6oHkT91f9zEE9mL-o1OeH_bvXj1_V2-eGOOTIZg1ztBxav8LItnuI_HEFa3mpuo8D2VVQmESJ396pd4PrxatMnwvyRzKtbsxRerJyD2cZpsYhd5ye2kKsxgh0Ik7xwJQKsh6FUrTCVzxD69GUYXIrN5CmisYSD16UbrCLelCFw6RcInm7geEj7dEfDRzBfhy707ZIidRgvuIkgpl6_TAp_yDV-cFxvl1ocEVQqmFTGGRAdVOh7lm00]--></g></svg>