<svg xmlns="http://www.w3.org/2000/svg" xmlns:xlink="http://www.w3.org/1999/xlink" contentStyleType="text/css" height="298px" preserveAspectRatio="none" style="width:685px;height:298px;background:#FFFFFF;" version="1.1" viewBox="0 0 685 298" width="685px" zoomAndPan="magnify"><defs/><g><line style="stroke:#181818;stroke-width:0.5;stroke-dasharray:5.0,5.0;" x1="57" x2="57" y1="81.2969" y2="217.8281"/><line style="stroke:#181818;stroke-width:0.5;stroke-dasharray:5.0,5.0;" x1="343.0527" x2="343.0527" y1="81.2969" y2="217.8281"/><line style="stroke:#181818;stroke-width:0.5;stroke-dasharray:5.0,5.0;" x1="635.062" x2="635.062" y1="81.2969" y2="217.8281"/><text fill="#000000" font-family="sans-serif" font-size="14" lengthAdjust="spacing" textLength="99.0801" x="5" y="77.9951">Administrador</text><ellipse cx="57.54" cy="13.5" fill="#E2E2F0" rx="8" ry="8" style="stroke:#181818;stroke-width:0.5;"/><path d="M57.54,21.5 L57.54,48.5 M44.54,29.5 L70.54,29.5 M57.54,48.5 L44.54,63.5 M57.54,48.5 L70.54,63.5 " fill="none" style="stroke:#181818;stroke-width:0.5;"/><text fill="#000000" font-family="sans-serif" font-size="14" lengthAdjust="spacing" textLength="99.0801" x="5" y="229.8232">Administrador</text><ellipse cx="57.54" cy="241.625" fill="#E2E2F0" rx="8" ry="8" style="stroke:#181818;stroke-width:0.5;"/><path d="M57.54,249.625 L57.54,276.625 M44.54,257.625 L70.54,257.625 M57.54,276.625 L44.54,291.625 M57.54,276.625 L70.54,291.625 " fill="none" style="stroke:#181818;stroke-width:0.5;"/><rect fill="#E2E2F0" height="30.2969" rx="2.5" ry="2.5" style="stroke:#181818;stroke-width:0.5;" width="70.3896" x="308.0527" y="50"/><text fill="#000000" font-family="sans-serif" font-size="14" lengthAdjust="spacing" textLength="56.3896" x="315.0527" y="69.9951">Sistema</text><rect fill="#E2E2F0" height="30.2969" rx="2.5" ry="2.5" style="stroke:#181818;stroke-width:0.5;" width="70.3896" x="308.0527" y="216.8281"/><text fill="#000000" font-family="sans-serif" font-size="14" lengthAdjust="spacing" textLength="56.3896" x="315.0527" y="236.8232">Sistema</text><rect fill="#E2E2F0" height="30.2969" rx="2.5" ry="2.5" style="stroke:#181818;stroke-width:0.5;" width="88.7988" x="591.062" y="50"/><text fill="#000000" font-family="sans-serif" font-size="14" lengthAdjust="spacing" textLength="74.7988" x="598.062" y="69.9951">BaseDatos</text><rect fill="#E2E2F0" height="30.2969" rx="2.5" ry="2.5" style="stroke:#181818;stroke-width:0.5;" width="88.7988" x="591.062" y="216.8281"/><text fill="#000000" font-family="sans-serif" font-size="14" lengthAdjust="spacing" textLength="74.7988" x="598.062" y="236.8232">BaseDatos</text><polygon fill="#181818" points="331.2476,108.4297,341.2476,112.4297,331.2476,116.4297,335.2476,112.4297" style="stroke:#181818;stroke-width:1;"/><line style="stroke:#181818;stroke-width:1;" x1="57.54" x2="337.2476" y1="112.4297" y2="112.4297"/><text fill="#000000" font-family="sans-serif" font-size="13" lengthAdjust="spacing" textLength="261.7075" x="64.54" y="107.3638">Selecciona "Ver disponibilidad de aulas"</text><polygon fill="#181818" points="623.4614,137.5625,633.4614,141.5625,623.4614,145.5625,627.4614,141.5625" style="stroke:#181818;stroke-width:1;"/><line style="stroke:#181818;stroke-width:1;" x1="343.2476" x2="629.4614" y1="141.5625" y2="141.5625"/><text fill="#000000" font-family="sans-serif" font-size="13" lengthAdjust="spacing" textLength="268.2139" x="350.2476" y="136.4966">Consulta aulas disponibles por d&#237;a y hora</text><polygon fill="#181818" points="354.2476,166.6953,344.2476,170.6953,354.2476,174.6953,350.2476,170.6953" style="stroke:#181818;stroke-width:1;"/><line style="stroke:#181818;stroke-width:1;stroke-dasharray:2.0,2.0;" x1="348.2476" x2="634.4614" y1="170.6953" y2="170.6953"/><text fill="#000000" font-family="sans-serif" font-size="13" lengthAdjust="spacing" textLength="167.2227" x="360.2476" y="165.6294">Lista de aulas disponibles</text><polygon fill="#181818" points="68.54,195.8281,58.54,199.8281,68.54,203.8281,64.54,199.8281" style="stroke:#181818;stroke-width:1;"/><line style="stroke:#181818;stroke-width:1;stroke-dasharray:2.0,2.0;" x1="62.54" x2="342.2476" y1="199.8281" y2="199.8281"/><text fill="#000000" font-family="sans-serif" font-size="13" lengthAdjust="spacing" textLength="206.0894" x="74.54" y="194.7622">Muestra disponibilidad de aulas</text><!--SRC=[TOyn3i8m34NtdCBgtWim80KOOQh4_eaj4IbDgZWTE1Idu68O8LeOs6phF___4Lgfv7cCEMghODkWv9tpr6zfiAECe0qDaYI4M3AeEqibZZgL72ynHGOJ2s5EqCvz4ADtK3cW5JL-NxBEgU4jM_0aIfDvykCEkj6rLBWLwtyY76t2ulJzOZKrm9lqDCkhpR-KJm00]--></g></svg>