<svg xmlns="http://www.w3.org/2000/svg" xmlns:xlink="http://www.w3.org/1999/xlink" contentStyleType="text/css" height="552px" preserveAspectRatio="none" style="width:1010px;height:552px;background:#FFFFFF;" version="1.1" viewBox="0 0 1010 552" width="1010px" zoomAndPan="magnify"><defs/><g><rect fill="#F5F5F5" height="40" rx="12.5" ry="12.5" style="stroke:#181818;stroke-width:0.5;" width="50" x="477" y="7"/><text fill="#000000" font-family="sans-serif" font-size="14" lengthAdjust="spacing" textLength="4.4502" x="499.7749" y="31.8467">&#160;</text><rect fill="#F5F5F5" height="40" rx="12.5" ry="12.5" style="stroke:#181818;stroke-width:0.5;" width="147.3887" x="428.5" y="506"/><text fill="#000000" font-family="sans-serif" font-size="14" lengthAdjust="spacing" textLength="137.3887" x="433.5" y="530.8467">Tabl&#243;n de Anuncios</text><path d="M19.5,107 L984.5,107 A12.5,12.5 0 0 1 997,119.5 L997,133.2969 L7,133.2969 L7,119.5 A12.5,12.5 0 0 1 19.5,107 " fill="#F5F5F5" style="stroke:#F5F5F5;stroke-width:1;"/><rect fill="none" height="339.2969" rx="12.5" ry="12.5" style="stroke:#181818;stroke-width:0.5;" width="990" x="7" y="107"/><line style="stroke:#181818;stroke-width:0.5;" x1="7" x2="997" y1="133.2969" y2="133.2969"/><text fill="#000000" font-family="sans-serif" font-size="14" lengthAdjust="spacing" textLength="128.4541" x="437.7729" y="124.9951">Cerrado de Sesi&#243;n</text><rect fill="#F5F5F5" height="40" rx="12.5" ry="12.5" style="stroke:#181818;stroke-width:0.5;" width="50" x="169" y="145.2969"/><text fill="#000000" font-family="sans-serif" font-size="14" lengthAdjust="spacing" textLength="4.4502" x="191.7749" y="170.1436">&#160;</text><g id="elem_ValidarCredenciales"><polygon fill="#F1F1F1" points="194,271.2969,206,283.2969,194,295.2969,182,283.2969,194,271.2969" style="stroke:#181818;stroke-width:0.5;"/></g><rect fill="#F5F5F5" height="40" rx="12.5" ry="12.5" style="stroke:#181818;stroke-width:0.5;" width="50" x="169" y="396.2969"/><text fill="#000000" font-family="sans-serif" font-size="14" lengthAdjust="spacing" textLength="4.4502" x="191.7749" y="421.1436">&#160;</text><!--link IngresoCredenciales to ValidarCredenciales--><g id="link_IngresoCredenciales_ValidarCredenciales"><path d="M168.78,171.5969 C120.12,181.8269 18,203.2969 18,203.2969 C18,203.2969 18,253.2969 18,253.2969 C18,253.2969 142.0597,273.742 178.6197,279.762 " fill="none" id="IngresoCredenciales-to-ValidarCredenciales" style="stroke:#008000;stroke-width:1;"/><polygon fill="#008000" points="184.54,280.7369,176.3095,275.3278,179.6064,279.9245,175.0097,283.2215,184.54,280.7369" style="stroke:#008000;stroke-width:1;"/><path d="M23,208.2969 L23,248.2969 L345,248.2969 L345,218.2969 L335,208.2969 L23,208.2969 " fill="#F5F5F5" style="stroke:#000000;stroke-width:0.5;"/><path d="M335,208.2969 L335,218.2969 L345,218.2969 L335,208.2969 " fill="#F5F5F5" style="stroke:#000000;stroke-width:0.5;"/><text fill="#000000" font-family="sans-serif" font-size="13" font-weight="bold" lengthAdjust="spacing" textLength="301.1646" x="29" y="225.3638">Usuario Clickea el bot&#243;n de cerrar sesi&#243;n</text><text fill="#000000" font-family="sans-serif" font-size="13" font-weight="bold" lengthAdjust="spacing" textLength="194.9238" x="29" y="240.4966">Sistema pide confirmaci&#243;n</text></g><!--link ValidarCredenciales to IngresoCredenciales--><g id="link_ValidarCredenciales_IngresoCredenciales"><path d="M203.29,280.5669 C236.88,274.3269 350,253.2969 350,253.2969 C350,253.2969 350,203.2969 350,203.2969 C350,203.2969 268.998,184.0816 224.898,173.6216 " fill="none" id="ValidarCredenciales-to-IngresoCredenciales" style="stroke:#FF0000;stroke-width:1;"/><polygon fill="#FF0000" points="219.06,172.2369,226.8939,178.206,223.925,173.3908,228.7402,170.4219,219.06,172.2369" style="stroke:#FF0000;stroke-width:1;"/><path d="M355,208.2969 L355,248.2969 L988,248.2969 L988,218.2969 L978,208.2969 L355,208.2969 " fill="#F5F5F5" style="stroke:#000000;stroke-width:0.5;"/><path d="M978,208.2969 L978,218.2969 L988,218.2969 L978,208.2969 " fill="#F5F5F5" style="stroke:#000000;stroke-width:0.5;"/><text fill="#000000" font-family="sans-serif" font-size="13" font-weight="bold" lengthAdjust="spacing" textLength="164.4106" x="361" y="225.3638">Usuario indica que no:</text><text fill="#000000" font-family="sans-serif" font-size="13" font-weight="bold" lengthAdjust="spacing" textLength="612.3203" x="361" y="240.4966">Sistema devuelve a donde estuviese el usuario antes de pedir el Cerrado de Sesi&#243;n</text></g><!--link ValidarCredenciales to InicioSesionCorrecto--><g id="link_ValidarCredenciales_InicioSesionCorrecto"><path d="M194,295.4669 C194,317.8669 194,362.4969 194,390.2369 " fill="none" id="ValidarCredenciales-to-InicioSesionCorrecto" style="stroke:#008000;stroke-width:1;"/><polygon fill="#008000" points="194,396.2369,198,387.2369,194,391.2369,190,387.2369,194,396.2369" style="stroke:#008000;stroke-width:1;"/><path d="M199,318.2969 L199,373.2969 L615,373.2969 L615,328.2969 L605,318.2969 L199,318.2969 " fill="#F5F5F5" style="stroke:#000000;stroke-width:0.5;"/><path d="M605,318.2969 L605,328.2969 L615,328.2969 L605,318.2969 " fill="#F5F5F5" style="stroke:#000000;stroke-width:0.5;"/><text fill="#000000" font-family="sans-serif" font-size="13" font-weight="bold" lengthAdjust="spacing" textLength="127.2134" x="205" y="335.3638">Usuario Confirma</text><text fill="#000000" font-family="sans-serif" font-size="13" font-weight="bold" lengthAdjust="spacing" textLength="395.1543" x="205" y="350.4966">Sistema convierte al usuario en usuario no registrado</text><text fill="#000000" font-family="sans-serif" font-size="13" font-weight="bold" lengthAdjust="spacing" textLength="289.9736" x="205" y="365.6294">Sistema te dirige a la pantalla principal</text></g><!--link startState to Cerrado_Sesi?n--><g id="link_startState_Cerrado_Sesi&#243;n"><path d="M502,47.01 C502,61.44 502,76.86 502,100.88 " fill="none" id="startState-to-Cerrado_Sesi&#243;n" style="stroke:#181818;stroke-width:1;"/><polygon fill="#181818" points="502,106.88,506,97.88,502,101.88,498,97.88,502,106.88" style="stroke:#181818;stroke-width:1;"/></g><!--link Cerrado_Sesi?n to endState--><g id="link_Cerrado_Sesi&#243;n_endState"><path d="M502,446.01 C502,469.97 502,485.35 502,499.8 " fill="none" id="Cerrado_Sesi&#243;n-to-endState" style="stroke:#181818;stroke-width:1;"/><polygon fill="#181818" points="502,505.8,506,496.8,502,500.8,498,496.8,502,505.8" style="stroke:#181818;stroke-width:1;"/></g><!--SRC=[bLF1ZjCm4BtdAqRTSyKTLP4W9ovS2bmGGeuzjACwCs7i55M8h-8J-376QTBItNIrv13Puvdtvispqu6uT-ew-5c1VUyburld3pkLWKCZKHGUVkmfuxQJ0rvpH0FgTDv6gnYF8Z7cKu_GIpoLJVMhgjA58sMNSM9wZiMAzXGGiElp2G8chzHd4ZQm4SB-chVZqYLOmMgA8uThz8Dhuv_VRFNmXWVs96bLZGXpxNfTGuEgBiZNBIQox9dXKNW4d685S0gl9Z7dcdUyKqpIA0OqEXSnpUrTapwvIC7fJT9cu_T27klw1esivK8at8Wg-Ympt9YsHBV-_611v2-cR85fh6Fp3uIBMMVNohTfwuzfS4e2JIH_G0SOePKyJT0NxGhfh7lpggt_BTrIojWvw8jhNlWRQUVyJQPPCpAVUr-QWlLkszBvWh8NTKuSo3luFg2blhxNPC3ZWF5ebmI2SBbcAGz7meH5yZ1XESxMavts64ZBoLFx_q_SnPWbPr_cp3JPUyfiygP3o_s_2a6-B5b0SMV9HSSz4AismRGhyubcgGt2nR9GCZ6z8J-LRG_syOCfRsj-Zdy1]--></g></svg>