<svg xmlns="http://www.w3.org/2000/svg" xmlns:xlink="http://www.w3.org/1999/xlink" contentStyleType="text/css" height="658px" preserveAspectRatio="none" style="width:476px;height:658px;background:#FFFFFF;" version="1.1" viewBox="0 0 476 658" width="476px" zoomAndPan="magnify"><defs/><g><rect fill="#F5F5F5" height="40" rx="12.5" ry="12.5" style="stroke:#181818;stroke-width:0.5;" width="208.0576" x="131" y="7"/><text fill="#000000" font-family="sans-serif" font-size="14" lengthAdjust="spacing" textLength="198.0576" x="136" y="31.8467">Interfaz de Creaci&#243;n de Post</text><rect fill="#F5F5F5" height="40" rx="12.5" ry="12.5" style="stroke:#181818;stroke-width:0.5;" width="94.417" x="188" y="612"/><text fill="#000000" font-family="sans-serif" font-size="14" lengthAdjust="spacing" textLength="84.417" x="193" y="636.8467">Post Creado</text><path d="M19.5,107 L450.5,107 A12.5,12.5 0 0 1 463,119.5 L463,133.2969 L7,133.2969 L7,119.5 A12.5,12.5 0 0 1 19.5,107 " fill="#F5F5F5" style="stroke:#F5F5F5;stroke-width:1;"/><rect fill="none" height="445.2969" rx="12.5" ry="12.5" style="stroke:#181818;stroke-width:0.5;" width="456" x="7" y="107"/><line style="stroke:#181818;stroke-width:0.5;" x1="7" x2="463" y1="133.2969" y2="133.2969"/><text fill="#000000" font-family="sans-serif" font-size="14" lengthAdjust="spacing" textLength="121.8301" x="174.085" y="124.9951">Creaci&#243;n del Post</text><rect fill="#F5F5F5" height="40" rx="12.5" ry="12.5" style="stroke:#181818;stroke-width:0.5;" width="50" x="84" y="145.2969"/><text fill="#000000" font-family="sans-serif" font-size="14" lengthAdjust="spacing" textLength="4.4502" x="106.7749" y="170.1436">&#160;</text><g id="elem_ValidarCredenciales"><polygon fill="#F1F1F1" points="109,301.2969,121,313.2969,109,325.2969,97,313.2969,109,301.2969" style="stroke:#181818;stroke-width:0.5;"/></g><rect fill="#F5F5F5" height="40" rx="12.5" ry="12.5" style="stroke:#181818;stroke-width:0.5;" width="50" x="84" y="502.2969"/><text fill="#000000" font-family="sans-serif" font-size="14" lengthAdjust="spacing" textLength="4.4502" x="106.7749" y="527.1436">&#160;</text><!--link IngresoCredenciales to ValidarCredenciales--><g id="link_IngresoCredenciales_ValidarCredenciales"><path d="M83.65,176.6069 C56.73,187.5469 18,203.2969 18,203.2969 C18,203.2969 18,283.2969 18,283.2969 C18,283.2969 72.3533,300.615 94.8833,307.795 " fill="none" id="IngresoCredenciales-to-ValidarCredenciales" style="stroke:#008000;stroke-width:1;"/><polygon fill="#008000" points="100.6,309.6169,93.2395,303.073,95.8361,308.0987,90.8104,310.6953,100.6,309.6169" style="stroke:#008000;stroke-width:1;"/><path d="M23,208.2969 L23,278.2969 L174,278.2969 L174,218.2969 L164,208.2969 L23,208.2969 " fill="#F5F5F5" style="stroke:#000000;stroke-width:0.5;"/><path d="M164,208.2969 L164,218.2969 L174,218.2969 L164,208.2969 " fill="#F5F5F5" style="stroke:#000000;stroke-width:0.5;"/><text fill="#000000" font-family="sans-serif" font-size="13" font-weight="bold" lengthAdjust="spacing" textLength="130.9966" x="29" y="225.3638">Usuario introduce</text><ellipse cx="34.5" cy="236.0625" fill="#000000" rx="2.5" ry="2.5" style="stroke:#000000;stroke-width:0;"/><text fill="#000000" font-family="sans-serif" font-size="13" lengthAdjust="spacing" textLength="53.8027" x="41" y="240.4966">Mensaje</text><ellipse cx="34.5" cy="251.1953" fill="#000000" rx="2.5" ry="2.5" style="stroke:#000000;stroke-width:0;"/><text fill="#000000" font-family="sans-serif" font-size="13" lengthAdjust="spacing" textLength="34.1948" x="41" y="255.6294">Plazo</text><ellipse cx="34.5" cy="266.3281" fill="#000000" rx="2.5" ry="2.5" style="stroke:#000000;stroke-width:0;"/><text fill="#000000" font-family="sans-serif" font-size="13" lengthAdjust="spacing" textLength="65.6284" x="41" y="270.7622">Etiqueta/s</text></g><!--link ValidarCredenciales to IngresoCredenciales--><g id="link_ValidarCredenciales_IngresoCredenciales"><path d="M117.03,308.9669 C135.42,301.3569 179,283.2969 179,283.2969 C179,283.2969 179,203.2969 179,203.2969 C179,203.2969 159.6243,193.0612 139.5743,182.4612 " fill="none" id="ValidarCredenciales-to-IngresoCredenciales" style="stroke:#FF0000;stroke-width:1;"/><polygon fill="#FF0000" points="134.27,179.6569,140.357,187.3995,138.6903,181.9938,144.096,180.3271,134.27,179.6569" style="stroke:#FF0000;stroke-width:1;"/><path d="M184,223.2969 L184,263.2969 L392,263.2969 L392,233.2969 L382,223.2969 L184,223.2969 " fill="#F5F5F5" style="stroke:#000000;stroke-width:0.5;"/><path d="M382,223.2969 L382,233.2969 L392,233.2969 L382,223.2969 " fill="#F5F5F5" style="stroke:#000000;stroke-width:0.5;"/><text fill="#000000" font-family="sans-serif" font-size="13" font-weight="bold" lengthAdjust="spacing" textLength="129.3843" x="190" y="240.3638">Sistema muestra:</text><ellipse cx="195.5" cy="251.0625" fill="#000000" rx="2.5" ry="2.5" style="stroke:#000000;stroke-width:0;"/><text fill="#000000" font-family="sans-serif" font-size="13" lengthAdjust="spacing" textLength="175.5889" x="202" y="255.4966">Error: "Campo sin rellenar"</text></g><!--link ValidarCredenciales to Creaci?ndelPostCorrecta--><g id="link_ValidarCredenciales_Creaci&#243;ndelPostCorrecta"><path d="M109,325.4269 C109,359.0169 109,453.6769 109,496.0969 " fill="none" id="ValidarCredenciales-to-Creaci&#243;ndelPostCorrecta" style="stroke:#008000;stroke-width:1;"/><polygon fill="#008000" points="109,502.0969,113,493.0969,109,497.0969,105,493.0969,109,502.0969" style="stroke:#008000;stroke-width:1;"/><path d="M114,348.2969 L114,479.2969 L454,479.2969 L454,358.2969 L444,348.2969 L114,348.2969 " fill="#F5F5F5" style="stroke:#000000;stroke-width:0.5;"/><path d="M444,348.2969 L444,358.2969 L454,358.2969 L444,348.2969 " fill="#F5F5F5" style="stroke:#000000;stroke-width:0.5;"/><text fill="#000000" font-family="sans-serif" font-size="13" font-weight="bold" lengthAdjust="spacing" textLength="171.3994" x="120" y="365.3638">Sistema asigna al post:</text><ellipse cx="125.5" cy="376.0625" fill="#000000" rx="2.5" ry="2.5" style="stroke:#000000;stroke-width:0;"/><text fill="#000000" font-family="sans-serif" font-size="13" lengthAdjust="spacing" textLength="307.0298" x="132" y="380.4966">Usuario Creador (Recoge los datos del usuario)</text><ellipse cx="125.5" cy="391.1953" fill="#000000" rx="2.5" ry="2.5" style="stroke:#000000;stroke-width:0;"/><text fill="#000000" font-family="sans-serif" font-size="13" lengthAdjust="spacing" textLength="120.6816" x="132" y="395.6294">Fecha de Creaci&#243;n</text><text fill="#000000" font-family="sans-serif" font-size="13" lengthAdjust="spacing" textLength="4.1323" x="120" y="410.7622">&#160;</text><text fill="#000000" font-family="sans-serif" font-size="13" font-weight="bold" lengthAdjust="spacing" textLength="151.4868" x="120" y="425.895">Sistema Crea el post</text><text fill="#000000" font-family="sans-serif" font-size="13" lengthAdjust="spacing" textLength="4.1323" x="120" y="441.0278">&#160;</text><text fill="#000000" font-family="sans-serif" font-size="13" font-weight="bold" lengthAdjust="spacing" textLength="125.0107" x="120" y="456.1606">Sistema Redirige</text><ellipse cx="125.5" cy="466.8594" fill="#000000" rx="2.5" ry="2.5" style="stroke:#000000;stroke-width:0;"/><text fill="#000000" font-family="sans-serif" font-size="13" lengthAdjust="spacing" textLength="226.2622" x="132" y="471.2935">A la direcci&#243;n del post tras crearse</text></g><!--link startState to Creaci?ndelPost--><g id="link_startState_Creaci&#243;ndelPost"><path d="M235,47.25 C235,61.5 235,76.61 235,100.97 " fill="none" id="startState-to-Creaci&#243;ndelPost" style="stroke:#181818;stroke-width:1;"/><polygon fill="#181818" points="235,106.97,239,97.97,235,101.97,231,97.97,235,106.97" style="stroke:#181818;stroke-width:1;"/></g><!--link Creaci?ndelPost to endState--><g id="link_Creaci&#243;ndelPost_endState"><path d="M235,552.05 C235,576.5 235,591.68 235,605.92 " fill="none" id="Creaci&#243;ndelPost-to-endState" style="stroke:#181818;stroke-width:1;"/><polygon fill="#181818" points="235,611.92,239,602.92,235,606.92,231,602.92,235,611.92" style="stroke:#181818;stroke-width:1;"/></g><!--SRC=[ZLF1ZjCm4BttAqRT2o1LUrzLaQ1Qf3s0Lbl11N6OshEjgUC9OqUeY_WgFe4VO-maRLh2QdrmOllDUsyydhXteK716dxEGCT7JlGEpNuht0QxOiy2LpzsBj6wvZsTC2oMf3_VU8qeHzu5IeU6e65_o8lPhzai7ZLYmaIzqdCg6hHpbe3g9Xt0KZJYckGuA5cXq5dIklnYXFbTI2IF-AHGM0cXSNz-XxouvvZcVGm5Uuh81mLgUJuhh0FVOb6TE2pvZ1naB_SBrLZGTufzYbtGNTWAHLQOfM0SUeeb3kOZq6VqpgASWPPBisDdgAf6m4iBAnOXat2WBD0foSMNAzsay5Npcr0hSK4h2nno6Rjwvh7SL9zYY-8ON4Z2jZMqlDvKHy0R-40XuZSQxTnxVEBH-ZQvxoqblEw4j1P5hBCxbRpQrMKsEv7CisRNBYQg4UgMOXAykV1wAy9oesN3kc68Be2GznHGvY-tThp9_vNZHGunkctGZzTsYUdIw73ftIiLUFL0XhS4dYDOJ7dMzzPsgDUZmFTaTdZM2iV3AHSP1THvw2rCmHx8Ed7RozA_1QzQJfC-zK1c0htw24Qv9TBvnMft_zD8kUk61lqB]--></g></svg>