<?xml version="1.0" encoding="us-ascii" standalone="no"?><svg xmlns="http://www.w3.org/2000/svg" xmlns:xlink="http://www.w3.org/1999/xlink" contentStyleType="text/css" height="448px" preserveAspectRatio="none" style="width:771px;height:448px;background:#FFFFFF;" version="1.1" viewBox="0 0 771 448" width="771px" zoomAndPan="magnify"><defs/><g><g id="MenuPrincipal"><rect fill="#F1F1F1" height="50" rx="12.5" ry="12.5" style="stroke:#181818;stroke-width:0.5;" width="137" x="319.5" y="87"/><line style="stroke:#181818;stroke-width:0.5;" x1="319.5" x2="456.5" y1="113.4883" y2="113.4883"/><text fill="#000000" font-family="sans-serif" font-size="14" lengthAdjust="spacing" textLength="117" x="329.5" y="105.5352">MENU_PRINCIPAL</text></g><g id="Usuarios"><rect fill="#F1F1F1" height="50" rx="12.5" ry="12.5" style="stroke:#181818;stroke-width:0.5;" width="166" x="305" y="232"/><line style="stroke:#181818;stroke-width:0.5;" x1="305" x2="471" y1="258.4883" y2="258.4883"/><text fill="#000000" font-family="sans-serif" font-size="14" lengthAdjust="spacing" textLength="146" x="315" y="250.5352">LISTANDO_USUARIOS</text></g><g id="ActualizandoUsuario"><rect fill="#F1F1F1" height="50" rx="12.5" ry="12.5" style="stroke:#181818;stroke-width:0.5;" width="198" x="7" y="392"/><line style="stroke:#181818;stroke-width:0.5;" x1="7" x2="205" y1="418.4883" y2="418.4883"/><text fill="#000000" font-family="sans-serif" font-size="14" lengthAdjust="spacing" textLength="178" x="17" y="410.5352">ACTUALIZANDO_USUARIO</text></g><g id="CreandoUsuario"><rect fill="#F1F1F1" height="50" rx="12.5" ry="12.5" style="stroke:#181818;stroke-width:0.5;" width="157" x="273.5" y="392"/><line style="stroke:#181818;stroke-width:0.5;" x1="273.5" x2="430.5" y1="418.4883" y2="418.4883"/><text fill="#000000" font-family="sans-serif" font-size="14" lengthAdjust="spacing" textLength="137" x="283.5" y="410.5352">CREANDO_USUARIO</text></g><g id="BorrandoUsuario"><rect fill="#F1F1F1" height="50" rx="12.5" ry="12.5" style="stroke:#181818;stroke-width:0.5;" width="167" x="566.5" y="392"/><line style="stroke:#181818;stroke-width:0.5;" x1="566.5" x2="733.5" y1="418.4883" y2="418.4883"/><text fill="#000000" font-family="sans-serif" font-size="14" lengthAdjust="spacing" textLength="147" x="576.5" y="410.5352">BORRANDO_USUARIO</text></g><ellipse cx="388" cy="16" fill="#222222" rx="10" ry="10" style="stroke:#222222;stroke-width:1.0;"/><!--link *start* to MenuPrincipal--><g id="link_*start*_MenuPrincipal"><path d="M388,26.36 C388,40.29 388,60.95 388,80.65 " fill="none" id="*start*-to-MenuPrincipal" style="stroke:#181818;stroke-width:1.0;"/><polygon fill="#181818" points="388,86.65,392,77.65,388,81.65,384,77.65,388,86.65" style="stroke:#181818;stroke-width:1.0;"/></g><!--link MenuPrincipal to Usuarios--><g id="link_MenuPrincipal_Usuarios"><path d="M331.83,137.39 C320.29,145.12 309.65,154.9 303,167 C295.51,180.63 295.51,188.37 303,202 C309.65,214.1 315.305,220.5408 326.845,228.2708 " fill="none" id="MenuPrincipal-to-Usuarios" style="stroke:#181818;stroke-width:1.0;"/><polygon fill="#181818" points="331.83,231.61,326.5786,223.2779,327.6759,228.8274,322.1264,229.9246,331.83,231.61" style="stroke:#181818;stroke-width:1.0;"/><path d="M308,172 L308,197 L422,197 L422,182 L412,172 L308,172 " fill="#FEFFDD" style="stroke:#181818;stroke-width:0.5;"/><path d="M412,172 L412,182 L422,182 L412,172 " fill="#FEFFDD" style="stroke:#181818;stroke-width:0.5;"/><text fill="#000000" font-family="sans-serif" font-size="13" lengthAdjust="spacing" textLength="93" x="314" y="189.5684">Listar usuarios</text></g><!--link Usuarios to MenuPrincipal--><g id="link_Usuarios_MenuPrincipal"><path d="M413.17,231.54 C420.35,222.95 427.24,212.75 431,202 C436.13,187.32 436.13,181.68 431,167 C427.24,156.25 424.198,150.6536 417.018,142.0636 " fill="none" id="Usuarios-to-MenuPrincipal" style="stroke:#181818;stroke-width:1.0;"/><polygon fill="#181818" points="413.17,137.46,415.8729,146.9307,416.3766,141.2963,422.011,141.8001,413.17,137.46" style="stroke:#181818;stroke-width:1.0;"/><path d="M439.85,172 L439.85,197 L587.85,197 L587.85,182 L577.85,172 L439.85,172 " fill="#FEFFDD" style="stroke:#181818;stroke-width:0.5;"/><path d="M577.85,172 L577.85,182 L587.85,182 L577.85,172 " fill="#FEFFDD" style="stroke:#181818;stroke-width:0.5;"/><text fill="#000000" font-family="sans-serif" font-size="13" lengthAdjust="spacing" textLength="127" x="445.85" y="189.5684">Abrir Men&#250; Principal</text></g><!--link Usuarios to CreandoUsuario--><g id="link_Usuarios_CreandoUsuario"><path d="M339.23,282.3 C328.32,290.19 318.16,300.06 312,312 C301.81,331.75 305.04,340.9 312,362 C315.51,372.64 318.318,378.1604 325.078,386.8204 " fill="none" id="Usuarios-to-CreandoUsuario" style="stroke:#181818;stroke-width:1.0;"/><polygon fill="#181818" points="328.77,391.55,326.3852,381.9942,325.6934,387.6086,320.079,386.9168,328.77,391.55" style="stroke:#181818;stroke-width:1.0;"/><path d="M317,317 L317,357 L413,357 L413,327 L403,317 L317,317 " fill="#FEFFDD" style="stroke:#181818;stroke-width:0.5;"/><path d="M403,317 L403,327 L413,327 L403,317 " fill="#FEFFDD" style="stroke:#181818;stroke-width:0.5;"/><text fill="#000000" font-family="sans-serif" font-size="13" lengthAdjust="spacing" textLength="75" x="323" y="334.5684">Crear nuevo</text><text fill="#000000" font-family="sans-serif" font-size="13" lengthAdjust="spacing" textLength="47" x="323" y="349.8789">usuario</text></g><!--link CreandoUsuario to Usuarios--><g id="link_CreandoUsuario_Usuarios"><path d="M396.27,391.58 C406.59,383.59 416.24,373.71 422,362 C431.8,342.06 428.16,333.35 422,312 C418.99,301.57 416.6269,296.2032 410.7569,287.3932 " fill="none" id="CreandoUsuario-to-Usuarios" style="stroke:#181818;stroke-width:1.0;"/><polygon fill="#181818" points="407.43,282.4,409.0916,292.1077,410.2024,286.561,415.7491,287.6718,407.43,282.4" style="stroke:#181818;stroke-width:1.0;"/><path d="M433.06,317 L433.06,357 L508.06,357 L508.06,327 L498.06,317 L433.06,317 " fill="#FEFFDD" style="stroke:#181818;stroke-width:0.5;"/><path d="M498.06,317 L498.06,327 L508.06,327 L498.06,317 " fill="#FEFFDD" style="stroke:#181818;stroke-width:0.5;"/><text fill="#000000" font-family="sans-serif" font-size="13" lengthAdjust="spacing" textLength="35" x="439.06" y="334.5684">Listar</text><text fill="#000000" font-family="sans-serif" font-size="13" lengthAdjust="spacing" textLength="54" x="439.06" y="349.8789">usuarios</text></g><!--link Usuarios to ActualizandoUsuario--><g id="link_Usuarios_ActualizandoUsuario"><path d="M304.76,258.63 C211.05,261.31 67.33,272.05 33,312 C18.52,328.85 23,342.16 33,362 C38.96,373.82 44.0646,380.1072 54.6846,388.0472 " fill="none" id="Usuarios-to-ActualizandoUsuario" style="stroke:#181818;stroke-width:1.0;"/><polygon fill="#181818" points="59.49,391.64,54.677,383.0472,55.4855,388.646,49.8867,389.4545,59.49,391.64" style="stroke:#181818;stroke-width:1.0;"/><path d="M38,317 L38,357 L142,357 L142,327 L132,317 L38,317 " fill="#FEFFDD" style="stroke:#181818;stroke-width:0.5;"/><path d="M132,317 L132,327 L142,327 L132,317 " fill="#FEFFDD" style="stroke:#181818;stroke-width:0.5;"/><text fill="#000000" font-family="sans-serif" font-size="13" lengthAdjust="spacing" textLength="83" x="44" y="334.5684">Actualizar un</text><text fill="#000000" font-family="sans-serif" font-size="13" lengthAdjust="spacing" textLength="47" x="44" y="349.8789">usuario</text></g><!--link ActualizandoUsuario to Usuarios--><g id="link_ActualizandoUsuario_Usuarios"><path d="M125.18,391.57 C144.88,368.04 177.57,333.01 213,312 C241.03,295.38 268.8876,285.0113 299.1476,276.6313 " fill="none" id="ActualizandoUsuario-to-Usuarios" style="stroke:#181818;stroke-width:1.0;"/><polygon fill="#181818" points="304.93,275.03,295.1889,273.5771,300.1114,276.3644,297.324,281.2869,304.93,275.03" style="stroke:#181818;stroke-width:1.0;"/><path d="M218,317 L218,357 L293,357 L293,327 L283,317 L218,317 " fill="#FEFFDD" style="stroke:#181818;stroke-width:0.5;"/><path d="M283,317 L283,327 L293,327 L283,317 " fill="#FEFFDD" style="stroke:#181818;stroke-width:0.5;"/><text fill="#000000" font-family="sans-serif" font-size="13" lengthAdjust="spacing" textLength="35" x="224" y="334.5684">Listar</text><text fill="#000000" font-family="sans-serif" font-size="13" lengthAdjust="spacing" textLength="54" x="224" y="349.8789">usuarios</text></g><!--link Usuarios to BorrandoUsuario--><g id="link_Usuarios_BorrandoUsuario"><path d="M459.21,282.45 C479.74,290.68 501.78,300.68 521,312 C551.5,329.96 555.44,339.78 583,362 C594.98,371.66 603.4979,378.5255 614.9779,387.7755 " fill="none" id="Usuarios-to-BorrandoUsuario" style="stroke:#181818;stroke-width:1.0;"/><polygon fill="#181818" points="619.65,391.54,615.1516,382.7785,615.7566,388.4029,610.1322,389.0079,619.65,391.54" style="stroke:#181818;stroke-width:1.0;"/><path d="M588,317 L588,357 L666,357 L666,327 L656,317 L588,317 " fill="#FEFFDD" style="stroke:#181818;stroke-width:0.5;"/><path d="M656,317 L656,327 L666,327 L656,317 " fill="#FEFFDD" style="stroke:#181818;stroke-width:0.5;"/><text fill="#000000" font-family="sans-serif" font-size="13" lengthAdjust="spacing" textLength="57" x="594" y="334.5684">Borrar un</text><text fill="#000000" font-family="sans-serif" font-size="13" lengthAdjust="spacing" textLength="47" x="594" y="349.8789">usuario</text></g><!--link BorrandoUsuario to Usuarios--><g id="link_BorrandoUsuario_Usuarios"><path d="M666.42,391.88 C679.82,368.91 693.73,334.58 675,312 C649.51,281.27 552.7327,268.3653 477.4327,262.6353 " fill="none" id="BorrandoUsuario-to-Usuarios" style="stroke:#181818;stroke-width:1.0;"/><polygon fill="#181818" points="471.45,262.18,480.1206,266.8514,476.4356,262.5594,480.7276,258.8744,471.45,262.18" style="stroke:#181818;stroke-width:1.0;"/><path d="M689.09,317 L689.09,357 L764.09,357 L764.09,327 L754.09,317 L689.09,317 " fill="#FEFFDD" style="stroke:#181818;stroke-width:0.5;"/><path d="M754.09,317 L754.09,327 L764.09,327 L754.09,317 " fill="#FEFFDD" style="stroke:#181818;stroke-width:0.5;"/><text fill="#000000" font-family="sans-serif" font-size="13" lengthAdjust="spacing" textLength="35" x="695.09" y="334.5684">Listar</text><text fill="#000000" font-family="sans-serif" font-size="13" lengthAdjust="spacing" textLength="54" x="695.09" y="349.8789">usuarios</text></g><!--SRC=[jPA_RiCW48TtdW9bh9HNY4JS34YERU6mjAeYaZ2WM4Trc0vzjAvziTeqTcnYzyyGDj1t7xyxSBMgDLriDvdS5u9d2IzOkg3AqQq6Nw21etbL5N7VNChB7SiUyxqi9HCyBmCgdLTehEiebkmaI_dJa0mWEzPULUPTmSbUYhgQH6nky0Jr1BdEXRX1rnPno9BdXnUwNAwYDiXe6u0-F6qMsEO62xGoS0u7xKfDSpDIFmGrd09CI5SVP57YMMNB8GMltsn_vWT5L_tO-A_4iVd7v5DFC-lluMOgy4i34-BxTH5_Wrbt0F-GFXBUB_dudyvF_e06M_ZpWuxnpli5]--></g></svg>