<svg xmlns="http://www.w3.org/2000/svg" xmlns:xlink="http://www.w3.org/1999/xlink" contentStyleType="text/css" data-diagram-type="STATE" height="338px" preserveAspectRatio="none" style="width:2864px;height:338px;background:#FFFFFF;" version="1.1" viewBox="0 0 2864 338" width="2864px" zoomAndPan="magnify"><defs/><g><g id="MENU_PRINCIPAL"><rect fill="#F1F1F1" height="50" rx="12.5" ry="12.5" style="stroke:#181818;stroke-width:0.5;" width="141.1396" x="1513.07" y="86"/><line style="stroke:#181818;stroke-width:0.5;" x1="1513.07" x2="1654.2096" y1="112.2969" y2="112.2969"/><text fill="#000000" font-family="sans-serif" font-size="14" lengthAdjust="spacing" textLength="121.1396" x="1523.07" y="103.9951">MENU_PRINCIPAL</text></g><g id="ASIGNAR_ASIGNATURA"><rect fill="#F1F1F1" height="50" rx="12.5" ry="12.5" style="stroke:#181818;stroke-width:0.5;" width="181.8135" x="192.73" y="196"/><line style="stroke:#181818;stroke-width:0.5;" x1="192.73" x2="374.5435" y1="222.2969" y2="222.2969"/><text fill="#000000" font-family="sans-serif" font-size="14" lengthAdjust="spacing" textLength="161.8135" x="202.73" y="213.9951">ASIGNAR_ASIGNATURA</text></g><g id="ASIGNAR_PROFESOR"><rect fill="#F1F1F1" height="50" rx="12.5" ry="12.5" style="stroke:#181818;stroke-width:0.5;" width="165.9404" x="467.67" y="196"/><line style="stroke:#181818;stroke-width:0.5;" x1="467.67" x2="633.6104" y1="222.2969" y2="222.2969"/><text fill="#000000" font-family="sans-serif" font-size="14" lengthAdjust="spacing" textLength="145.9404" x="477.67" y="213.9951">ASIGNAR_PROFESOR</text></g><g id="BUSCAR_GRADO"><rect fill="#F1F1F1" height="50" rx="12.5" ry="12.5" style="stroke:#181818;stroke-width:0.5;" width="136.7715" x="779.25" y="196"/><line style="stroke:#181818;stroke-width:0.5;" x1="779.25" x2="916.0215" y1="222.2969" y2="222.2969"/><text fill="#000000" font-family="sans-serif" font-size="14" lengthAdjust="spacing" textLength="116.7715" x="789.25" y="213.9951">BUSCAR_GRADO</text></g><g id="CONSULTAR_HORARIO_PROFESOR"><rect fill="#F1F1F1" height="50" rx="12.5" ry="12.5" style="stroke:#181818;stroke-width:0.5;" width="261.5068" x="1056.88" y="196"/><line style="stroke:#181818;stroke-width:0.5;" x1="1056.88" x2="1318.3868" y1="222.2969" y2="222.2969"/><text fill="#000000" font-family="sans-serif" font-size="14" lengthAdjust="spacing" textLength="241.5068" x="1066.88" y="213.9951">CONSULTAR_HORARIO_PROFESOR</text></g><g id="EDITAR_ASIGNACION"><rect fill="#F1F1F1" height="50" rx="12.5" ry="12.5" style="stroke:#181818;stroke-width:0.5;" width="167.499" x="1409.89" y="196"/><line style="stroke:#181818;stroke-width:0.5;" x1="1409.89" x2="1577.389" y1="222.2969" y2="222.2969"/><text fill="#000000" font-family="sans-serif" font-size="14" lengthAdjust="spacing" textLength="147.499" x="1419.89" y="213.9951">EDITAR_ASIGNACION</text></g><g id="INICIO_SESION"><rect fill="#F1F1F1" height="50" rx="12.5" ry="12.5" style="stroke:#181818;stroke-width:0.5;" width="122.8945" x="1612.19" y="196"/><line style="stroke:#181818;stroke-width:0.5;" x1="1612.19" x2="1735.0845" y1="222.2969" y2="222.2969"/><text fill="#000000" font-family="sans-serif" font-size="14" lengthAdjust="spacing" textLength="102.8945" x="1622.19" y="213.9951">INICIO_SESION</text></g><g id="MOSTRAR_ASIGNATURAS"><rect fill="#F1F1F1" height="50" rx="12.5" ry="12.5" style="stroke:#181818;stroke-width:0.5;" width="197.0508" x="1770.11" y="196"/><line style="stroke:#181818;stroke-width:0.5;" x1="1770.11" x2="1967.1608" y1="222.2969" y2="222.2969"/><text fill="#000000" font-family="sans-serif" font-size="14" lengthAdjust="spacing" textLength="177.0508" x="1780.11" y="213.9951">MOSTRAR_ASIGNATURAS</text></g><g id="REGISTRAR_ASIGNATURA"><rect fill="#F1F1F1" height="50" rx="12.5" ry="12.5" style="stroke:#181818;stroke-width:0.5;" width="198.6162" x="2002.33" y="196"/><line style="stroke:#181818;stroke-width:0.5;" x1="2002.33" x2="2200.9462" y1="222.2969" y2="222.2969"/><text fill="#000000" font-family="sans-serif" font-size="14" lengthAdjust="spacing" textLength="178.6162" x="2012.33" y="213.9951">REGISTRAR_ASIGNATURA</text></g><g id="VER_DISPONIBILIDAD_AULAS"><rect fill="#F1F1F1" height="50" rx="12.5" ry="12.5" style="stroke:#181818;stroke-width:0.5;" width="222.8975" x="2236.19" y="196"/><line style="stroke:#181818;stroke-width:0.5;" x1="2236.19" x2="2459.0875" y1="222.2969" y2="222.2969"/><text fill="#000000" font-family="sans-serif" font-size="14" lengthAdjust="spacing" textLength="202.8975" x="2246.19" y="213.9951">VER_DISPONIBILIDAD_AULAS</text></g><ellipse cx="1583.64" cy="16" fill="#222222" rx="10" ry="10" style="stroke:#222222;stroke-width:1;"/><ellipse cx="2504.64" cy="221" fill="none" rx="11" ry="11" style="stroke:#222222;stroke-width:1;"/><ellipse cx="2504.64" cy="221" fill="#222222" rx="6" ry="6" style="stroke:#222222;stroke-width:1;"/><g id="elem_GMN2"><path d="M6,306 L6,331.1328 A0,0 0 0 0 6,331.1328 L323.2705,331.1328 A0,0 0 0 0 323.2705,331.1328 L323.2705,316 L313.2705,306 L183.36,306 L253.3,246.36 L175.36,306 L6,306 A0,0 0 0 0 6,306 " fill="#FEFFDD" style="stroke:#181818;stroke-width:0.5;"/><path d="M313.2705,306 L313.2705,316 L323.2705,316 L313.2705,306 " fill="#FEFFDD" style="stroke:#181818;stroke-width:0.5;"/><text fill="#000000" font-family="sans-serif" font-size="13" lengthAdjust="spacing" textLength="296.2705" x="12" y="323.0669">Asignar una asignatura a un grado o profesor</text></g><g id="elem_GMN5"><path d="M357.99,306 L357.99,331.1328 A0,0 0 0 0 357.99,331.1328 L621.2737,331.1328 A0,0 0 0 0 621.2737,331.1328 L621.2737,316 L611.2737,306 L501.22,306 L535.24,246.11 L493.22,306 L357.99,306 A0,0 0 0 0 357.99,306 " fill="#FEFFDD" style="stroke:#181818;stroke-width:0.5;"/><path d="M611.2737,306 L611.2737,316 L621.2737,316 L611.2737,306 " fill="#FEFFDD" style="stroke:#181818;stroke-width:0.5;"/><text fill="#000000" font-family="sans-serif" font-size="13" lengthAdjust="spacing" textLength="242.2837" x="363.99" y="323.0669">Asignar un profesor a una asignatura</text></g><g id="elem_GMN8"><path d="M656.31,306 L656.31,331.1328 A0,0 0 0 0 656.31,331.1328 L938.9604,331.1328 A0,0 0 0 0 938.9604,331.1328 L938.9604,316 L928.9604,306 L807.85,306 L835.02,246.11 L799.85,306 L656.31,306 A0,0 0 0 0 656.31,306 " fill="#FEFFDD" style="stroke:#181818;stroke-width:0.5;"/><path d="M928.9604,306 L928.9604,316 L938.9604,316 L928.9604,306 " fill="#FEFFDD" style="stroke:#181818;stroke-width:0.5;"/><text fill="#000000" font-family="sans-serif" font-size="13" lengthAdjust="spacing" textLength="261.6504" x="662.31" y="323.0669">Buscar grados disponibles en el sistema</text></g><g id="elem_GMN11"><path d="M973.58,306 L973.58,331.1328 A0,0 0 0 0 973.58,331.1328 L1291.6947,331.1328 A0,0 0 0 0 1291.6947,331.1328 L1291.6947,316 L1281.6947,306 L1143.48,306 L1173.76,246.11 L1135.48,306 L973.58,306 A0,0 0 0 0 973.58,306 " fill="#FEFFDD" style="stroke:#181818;stroke-width:0.5;"/><path d="M1281.6947,306 L1281.6947,316 L1291.6947,316 L1281.6947,306 " fill="#FEFFDD" style="stroke:#181818;stroke-width:0.5;"/><text fill="#000000" font-family="sans-serif" font-size="13" lengthAdjust="spacing" textLength="297.1147" x="979.58" y="323.0669">Consultar el horario de un profesor espec&#237;fico</text></g><g id="elem_GMN14"><path d="M1326.73,306 L1326.73,331.1328 A0,0 0 0 0 1326.73,331.1328 L1660.5488,331.1328 A0,0 0 0 0 1660.5488,331.1328 L1660.5488,316 L1650.5488,306 L1497.64,306 L1493.64,246.11 L1489.64,306 L1326.73,306 A0,0 0 0 0 1326.73,306 " fill="#FEFFDD" style="stroke:#181818;stroke-width:0.5;"/><path d="M1650.5488,306 L1650.5488,316 L1660.5488,316 L1650.5488,306 " fill="#FEFFDD" style="stroke:#181818;stroke-width:0.5;"/><text fill="#000000" font-family="sans-serif" font-size="13" lengthAdjust="spacing" textLength="312.8188" x="1332.73" y="323.0669">Editar asignaciones de profesores y asignaturas</text></g><g id="elem_GMN17"><path d="M1695.4,306 L1695.4,331.1328 A0,0 0 0 0 1695.4,331.1328 L1935.8639,331.1328 A0,0 0 0 0 1935.8639,331.1328 L1935.8639,316 L1925.8639,306 L1802.07,306 L1709.84,246.36 L1794.07,306 L1695.4,306 A0,0 0 0 0 1695.4,306 " fill="#FEFFDD" style="stroke:#181818;stroke-width:0.5;"/><path d="M1925.8639,306 L1925.8639,316 L1935.8639,316 L1925.8639,306 " fill="#FEFFDD" style="stroke:#181818;stroke-width:0.5;"/><text fill="#000000" font-family="sans-serif" font-size="13" lengthAdjust="spacing" textLength="219.4639" x="1701.4" y="323.0669">Inicio de sesi&#243;n del administrador</text></g><g id="elem_GMN20"><path d="M1970.54,306 L1970.54,331.1328 A0,0 0 0 0 1970.54,331.1328 L2234.7378,331.1328 A0,0 0 0 0 2234.7378,331.1328 L2234.7378,316 L2224.7378,306 L2077.13,306 L1928.59,246.48 L2069.13,306 L1970.54,306 A0,0 0 0 0 1970.54,306 " fill="#FEFFDD" style="stroke:#181818;stroke-width:0.5;"/><path d="M2224.7378,306 L2224.7378,316 L2234.7378,316 L2224.7378,306 " fill="#FEFFDD" style="stroke:#181818;stroke-width:0.5;"/><text fill="#000000" font-family="sans-serif" font-size="13" lengthAdjust="spacing" textLength="243.1978" x="1976.54" y="323.0669">Visualizar las asignaturas registradas</text></g><g id="elem_GMN23"><path d="M2269.64,306 L2269.64,331.1328 A0,0 0 0 0 2269.64,331.1328 L2587.6214,331.1328 A0,0 0 0 0 2587.6214,331.1328 L2587.6214,316 L2577.6214,306 L2391.41,306 L2185.42,246.48 L2383.41,306 L2269.64,306 A0,0 0 0 0 2269.64,306 " fill="#FEFFDD" style="stroke:#181818;stroke-width:0.5;"/><path d="M2577.6214,306 L2577.6214,316 L2587.6214,316 L2577.6214,306 " fill="#FEFFDD" style="stroke:#181818;stroke-width:0.5;"/><text fill="#000000" font-family="sans-serif" font-size="13" lengthAdjust="spacing" textLength="296.9814" x="2275.64" y="323.0669">Registrar una nueva asignatura en el sistema</text></g><g id="elem_GMN26"><path d="M2622.19,306 L2622.19,331.1328 A0,0 0 0 0 2622.19,331.1328 L2857.0743,331.1328 A0,0 0 0 0 2857.0743,331.1328 L2857.0743,316 L2847.0743,306 L2694.21,306 L2448.08,246.48 L2686.21,306 L2622.19,306 A0,0 0 0 0 2622.19,306 " fill="#FEFFDD" style="stroke:#181818;stroke-width:0.5;"/><path d="M2847.0743,306 L2847.0743,316 L2857.0743,316 L2847.0743,306 " fill="#FEFFDD" style="stroke:#181818;stroke-width:0.5;"/><text fill="#000000" font-family="sans-serif" font-size="13" lengthAdjust="spacing" textLength="213.8843" x="2628.19" y="323.0669">Ver la disponibilidad de las aulas</text></g><!--link *start* to MENU_PRINCIPAL--><g id="link_*start*_MENU_PRINCIPAL"><path d="M1583.64,26.25 C1583.64,39.95 1583.64,60.07 1583.64,79.51 " fill="none" id="*start*-to-MENU_PRINCIPAL" style="stroke:#181818;stroke-width:1;"/><polygon fill="#181818" points="1583.64,85.51,1587.64,76.51,1583.64,80.51,1579.64,76.51,1583.64,85.51" style="stroke:#181818;stroke-width:1;"/></g><!--link MENU_PRINCIPAL to ASIGNAR_ASIGNATURA--><g id="link_MENU_PRINCIPAL_ASIGNAR_ASIGNATURA"><path d="M1512.88,115.55 C1334.38,124.88 851.38,152.4 450.64,196 C426.03,198.67 405.4092,201.3481 380.8692,204.8681 " fill="none" id="MENU_PRINCIPAL-to-ASIGNAR_ASIGNATURA" style="stroke:#181818;stroke-width:1;"/><polygon fill="#181818" points="374.93,205.72,384.4068,208.4016,379.8793,205.0101,383.2709,200.4827,374.93,205.72" style="stroke:#181818;stroke-width:1;"/></g><!--link MENU_PRINCIPAL to ASIGNAR_PROFESOR--><g id="link_MENU_PRINCIPAL_ASIGNAR_PROFESOR"><path d="M1512.69,118.97 C1370.26,133.03 1039.39,166.01 761.64,196 C719.57,200.54 678.7907,205.1446 640.0007,209.6046 " fill="none" id="MENU_PRINCIPAL-to-ASIGNAR_PROFESOR" style="stroke:#181818;stroke-width:1;"/><polygon fill="#181818" points="634.04,210.29,643.438,213.2358,639.0073,209.7189,642.5242,205.2882,634.04,210.29" style="stroke:#181818;stroke-width:1;"/></g><!--link MENU_PRINCIPAL to BUSCAR_GRADO--><g id="link_MENU_PRINCIPAL_BUSCAR_GRADO"><path d="M1512.73,122.4 C1371.32,143.15 1061.7964,188.5688 922.2464,209.0488 " fill="none" id="MENU_PRINCIPAL-to-BUSCAR_GRADO" style="stroke:#181818;stroke-width:1;"/><polygon fill="#181818" points="916.31,209.92,925.7954,212.5708,921.257,209.194,924.6338,204.6556,916.31,209.92" style="stroke:#181818;stroke-width:1;"/></g><!--link MENU_PRINCIPAL to CONSULTAR_HORARIO_PROFESOR--><g id="link_MENU_PRINCIPAL_CONSULTAR_HORARIO_PROFESOR"><path d="M1512.84,131.31 C1446.99,149.26 1354.3685,174.521 1283.0685,193.971 " fill="none" id="MENU_PRINCIPAL-to-CONSULTAR_HORARIO_PROFESOR" style="stroke:#181818;stroke-width:1;"/><polygon fill="#181818" points="1277.28,195.55,1287.0154,197.0404,1282.1037,194.2341,1284.91,189.3224,1277.28,195.55" style="stroke:#181818;stroke-width:1;"/></g><!--link MENU_PRINCIPAL to EDITAR_ASIGNACION--><g id="link_MENU_PRINCIPAL_EDITAR_ASIGNACION"><path d="M1563.44,136.23 C1548.62,154.02 1532.4098,173.4596 1517.6098,191.2296 " fill="none" id="MENU_PRINCIPAL-to-EDITAR_ASIGNACION" style="stroke:#181818;stroke-width:1;"/><polygon fill="#181818" points="1513.77,195.84,1522.6033,191.4843,1516.9699,191.998,1516.4562,186.3645,1513.77,195.84" style="stroke:#181818;stroke-width:1;"/></g><!--link MENU_PRINCIPAL to INICIO_SESION--><g id="link_MENU_PRINCIPAL_INICIO_SESION"><path d="M1603.83,136.23 C1618.66,154.02 1634.8602,173.4596 1649.6602,191.2296 " fill="none" id="MENU_PRINCIPAL-to-INICIO_SESION" style="stroke:#181818;stroke-width:1;"/><polygon fill="#181818" points="1653.5,195.84,1650.8138,186.3645,1650.3001,191.998,1644.6667,191.4843,1653.5,195.84" style="stroke:#181818;stroke-width:1;"/></g><!--link MENU_PRINCIPAL to MOSTRAR_ASIGNATURAS--><g id="link_MENU_PRINCIPAL_MOSTRAR_ASIGNATURAS"><path d="M1647.95,136.37 C1694.58,154.04 1751.7694,175.7138 1798.4494,193.4038 " fill="none" id="MENU_PRINCIPAL-to-MOSTRAR_ASIGNATURAS" style="stroke:#181818;stroke-width:1;"/><polygon fill="#181818" points="1804.06,195.53,1797.0615,188.6002,1799.3845,193.7581,1794.2266,196.0811,1804.06,195.53" style="stroke:#181818;stroke-width:1;"/></g><!--link MENU_PRINCIPAL to REGISTRAR_ASIGNATURA--><g id="link_MENU_PRINCIPAL_REGISTRAR_ASIGNATURA"><path d="M1654.57,126.79 C1744.49,145.53 1894.1362,176.7357 1995.9862,197.9657 " fill="none" id="MENU_PRINCIPAL-to-REGISTRAR_ASIGNATURA" style="stroke:#181818;stroke-width:1;"/><polygon fill="#181818" points="2001.86,199.19,1993.8656,193.4376,1996.9652,198.1697,1992.2331,201.2693,2001.86,199.19" style="stroke:#181818;stroke-width:1;"/></g><!--link MENU_PRINCIPAL to VER_DISPONIBILIDAD_AULAS--><g id="link_MENU_PRINCIPAL_VER_DISPONIBILIDAD_AULAS"><path d="M1654.29,120.12 C1771.71,133.89 2014.36,163.51 2218.64,196 C2224.26,196.89 2224.1039,196.8404 2229.9039,197.8204 " fill="none" id="MENU_PRINCIPAL-to-VER_DISPONIBILIDAD_AULAS" style="stroke:#181818;stroke-width:1;"/><polygon fill="#181818" points="2235.82,198.82,2227.6122,193.3765,2230.8899,197.987,2226.2794,201.2647,2235.82,198.82" style="stroke:#181818;stroke-width:1;"/></g><!--link MENU_PRINCIPAL to *end*--><g id="link_MENU_PRINCIPAL_*end*"><path d="M1654.62,113.17 C1838.94,117.08 2328.71,133.25 2476.64,196 C2485.12,199.6 2488.8216,202.3579 2494.0216,207.9179 " fill="none" id="MENU_PRINCIPAL-to-*end*" style="stroke:#181818;stroke-width:1;"/><polygon fill="#181818" points="2498.12,212.3,2494.8938,202.9945,2494.7047,208.6482,2489.051,208.4591,2498.12,212.3" style="stroke:#181818;stroke-width:1;"/></g><!--SRC=[XPJHJeCm58RlznJdsiHNCEa0PvD9btPuOmofqCqch5qecAZnaRpo4Nmn3qFdA6LUhIi_v-j_-X_kBnxWyl8ARfCqorUSfX5TaULivXhPA6yNtcRWRtNl4a4NAU5v_xlEE3clMt5sdGZ6mwfv9Y8KBJY9MLWHiLHaopMARXWddB9_AYOnNH-F5r6MXcKqfVWm5ucObDmoiUO3fo8ivCc2-jAmyYxXUKp5YgLqJfSq9d5EiYNMVV-zX41xZSNzHziqTWTs4xu0ulJMo1fQ8q4UrarRun8tO5lBqeA5VMqtojbwfam9NL6VUMpi1F6ayN-yOza3x9G-uWmkssDuGPYthi3oXwCxABNRMwCVA-L06L0LEEqQjHiZpgJ50vxDLMIDQwi6Ju2i9rlBMbierS2kSdjLV7riT657nnY7qAE7KfgKkYFs3IoqDUWMcRz0_FToqbqtWWuZxG7zl5EZYzwJKqv_VHfSLY3BdJROsgxjuvo41iB3X6VcJhjMLleLtLNIdPg0McrxNi1GSAuyuCJiyP-o_KIOLZqFvk9yY2Qdr6DFwj2nwgmUWwihNSgow_R1VriDt0O-5FSN3zy0]--></g></svg>