<svg xmlns="http://www.w3.org/2000/svg" xmlns:xlink="http://www.w3.org/1999/xlink" contentStyleType="text/css" data-diagram-type="STATE" height="627px" preserveAspectRatio="none" style="width:2861px;height:627px;background:#FFFFFF;" version="1.1" viewBox="0 0 2861 627" width="2861px" zoomAndPan="magnify"><defs/><g><ellipse cx="1432.91" cy="16" fill="#222222" rx="10" ry="10" style="stroke:#222222;stroke-width:1;"/><g id="INICIANDO_SESION"><rect fill="#F1F1F1" height="50" rx="12.5" ry="12.5" style="stroke:#181818;stroke-width:0.5;" width="153.7246" x="1356.05" y="121"/><line style="stroke:#181818;stroke-width:0.5;" x1="1356.05" x2="1509.7746" y1="147.2969" y2="147.2969"/><text fill="#000000" font-family="sans-serif" font-size="14" lengthAdjust="spacing" textLength="133.7246" x="1366.05" y="138.9951">INICIANDO_SESION</text></g><g id="MENU_PRINCIPAL"><rect fill="#F1F1F1" height="50" rx="12.5" ry="12.5" style="stroke:#181818;stroke-width:0.5;" width="141.1396" x="1362.34" y="266"/><line style="stroke:#181818;stroke-width:0.5;" x1="1362.34" x2="1503.4796" y1="292.2969" y2="292.2969"/><text fill="#000000" font-family="sans-serif" font-size="14" lengthAdjust="spacing" textLength="121.1396" x="1372.34" y="283.9951">MENU_PRINCIPAL</text></g><g id="ELIGIENDO_GRADO"><rect fill="#F1F1F1" height="50" rx="12.5" ry="12.5" style="stroke:#181818;stroke-width:0.5;" width="155.8232" x="7" y="426"/><line style="stroke:#181818;stroke-width:0.5;" x1="7" x2="162.8232" y1="452.2969" y2="452.2969"/><text fill="#000000" font-family="sans-serif" font-size="14" lengthAdjust="spacing" textLength="135.8232" x="17" y="443.9951">ELIGIENDO_GRADO</text></g><g id="ASIGNANDO_ASIGNATURA"><rect fill="#F1F1F1" height="50" rx="12.5" ry="12.5" style="stroke:#181818;stroke-width:0.5;" width="204.3584" x="175.73" y="571"/><line style="stroke:#181818;stroke-width:0.5;" x1="175.73" x2="380.0884" y1="597.2969" y2="597.2969"/><text fill="#000000" font-family="sans-serif" font-size="14" lengthAdjust="spacing" textLength="184.3584" x="185.73" y="588.9951">ASIGNANDO_ASIGNATURA</text></g><g id="ASIGNANDO_PROFESOR"><rect fill="#F1F1F1" height="50" rx="12.5" ry="12.5" style="stroke:#181818;stroke-width:0.5;" width="188.4854" x="257.67" y="426"/><line style="stroke:#181818;stroke-width:0.5;" x1="257.67" x2="446.1554" y1="452.2969" y2="452.2969"/><text fill="#000000" font-family="sans-serif" font-size="14" lengthAdjust="spacing" textLength="168.4854" x="267.67" y="443.9951">ASIGNANDO_PROFESOR</text></g><g id="BUSCANDO_GRADO"><rect fill="#F1F1F1" height="50" rx="12.5" ry="12.5" style="stroke:#181818;stroke-width:0.5;" width="159.3164" x="537.25" y="426"/><line style="stroke:#181818;stroke-width:0.5;" x1="537.25" x2="696.5664" y1="452.2969" y2="452.2969"/><text fill="#000000" font-family="sans-serif" font-size="14" lengthAdjust="spacing" textLength="139.3164" x="547.25" y="443.9951">BUSCANDO_GRADO</text></g><g id="CONSULTANDO_HORARIO_PROFESOR"><rect fill="#F1F1F1" height="50" rx="12.5" ry="12.5" style="stroke:#181818;stroke-width:0.5;" width="284.0518" x="813.89" y="426"/><line style="stroke:#181818;stroke-width:0.5;" x1="813.89" x2="1097.9418" y1="452.2969" y2="452.2969"/><text fill="#000000" font-family="sans-serif" font-size="14" lengthAdjust="spacing" textLength="264.0518" x="823.89" y="443.9951">CONSULTANDO_HORARIO_PROFESOR</text></g><g id="EDITANDO_ASIGNACION"><rect fill="#F1F1F1" height="50" rx="12.5" ry="12.5" style="stroke:#181818;stroke-width:0.5;" width="190.0439" x="1173.89" y="426"/><line style="stroke:#181818;stroke-width:0.5;" x1="1173.89" x2="1363.9339" y1="452.2969" y2="452.2969"/><text fill="#000000" font-family="sans-serif" font-size="14" lengthAdjust="spacing" textLength="170.0439" x="1183.89" y="443.9951">EDITANDO_ASIGNACION</text></g><g id="MOSTRANDO_ASIGNATURAS"><rect fill="#F1F1F1" height="50" rx="12.5" ry="12.5" style="stroke:#181818;stroke-width:0.5;" width="219.5957" x="1421.11" y="426"/><line style="stroke:#181818;stroke-width:0.5;" x1="1421.11" x2="1640.7057" y1="452.2969" y2="452.2969"/><text fill="#000000" font-family="sans-serif" font-size="14" lengthAdjust="spacing" textLength="199.5957" x="1431.11" y="443.9951">MOSTRANDO_ASIGNATURAS</text></g><g id="REGISTRANDO_ASIGNATURA"><rect fill="#F1F1F1" height="50" rx="12.5" ry="12.5" style="stroke:#181818;stroke-width:0.5;" width="221.1611" x="1686.33" y="426"/><line style="stroke:#181818;stroke-width:0.5;" x1="1686.33" x2="1907.4911" y1="452.2969" y2="452.2969"/><text fill="#000000" font-family="sans-serif" font-size="14" lengthAdjust="spacing" textLength="201.1611" x="1696.33" y="443.9951">REGISTRANDO_ASIGNATURA</text></g><g id="VIENDO_DISPONIBILIDAD_AULAS"><rect fill="#F1F1F1" height="50" rx="12.5" ry="12.5" style="stroke:#181818;stroke-width:0.5;" width="249.5713" x="1998.13" y="426"/><line style="stroke:#181818;stroke-width:0.5;" x1="1998.13" x2="2247.7013" y1="452.2969" y2="452.2969"/><text fill="#000000" font-family="sans-serif" font-size="14" lengthAdjust="spacing" textLength="229.5713" x="2008.13" y="443.9951">VIENDO_DISPONIBILIDAD_AULAS</text></g><g id="SELECCIONANDO_AULA_AUTOMATICAMENTE"><rect fill="#F1F1F1" height="50" rx="12.5" ry="12.5" style="stroke:#181818;stroke-width:0.5;" width="334.4805" x="2299.67" y="426"/><line style="stroke:#181818;stroke-width:0.5;" x1="2299.67" x2="2634.1505" y1="452.2969" y2="452.2969"/><text fill="#000000" font-family="sans-serif" font-size="14" lengthAdjust="spacing" textLength="314.4805" x="2309.67" y="443.9951">SELECCIONANDO_AULA_AUTOMATICAMENTE</text></g><ellipse cx="2713.91" cy="451" fill="none" rx="11" ry="11" style="stroke:#222222;stroke-width:1;"/><ellipse cx="2713.91" cy="451" fill="#222222" rx="6" ry="6" style="stroke:#222222;stroke-width:1;"/><!--link *start* to INICIANDO_SESION--><g id="link_*start*_INICIANDO_SESION"><path d="M1432.91,26.21 C1432.91,45.75 1432.91,85.96 1432.91,114.64 " fill="none" id="*start*-to-INICIANDO_SESION" style="stroke:#181818;stroke-width:1;"/><polygon fill="#181818" points="1432.91,120.64,1436.91,111.64,1432.91,115.64,1428.91,111.64,1432.91,120.64" style="stroke:#181818;stroke-width:1;"/><path d="M1437.91,61 L1437.91,86 L1543.91,86 L1543.91,71 L1533.91,61 L1437.91,61 " fill="#FEFFDD" style="stroke:#181818;stroke-width:0.5;"/><path d="M1533.91,61 L1533.91,71 L1543.91,71 L1533.91,61 " fill="#FEFFDD" style="stroke:#181818;stroke-width:0.5;"/><text fill="#000000" font-family="sans-serif" font-size="13" lengthAdjust="spacing" textLength="85.2363" x="1443.91" y="78.0669">Iniciar sesi&#243;n</text></g><!--link INICIANDO_SESION to MENU_PRINCIPAL--><g id="link_INICIANDO_SESION_MENU_PRINCIPAL"><path d="M1432.91,171.26 C1432.91,197.55 1432.91,233.28 1432.91,259.62 " fill="none" id="INICIANDO_SESION-to-MENU_PRINCIPAL" style="stroke:#181818;stroke-width:1;"/><polygon fill="#181818" points="1432.91,265.62,1436.91,256.62,1432.91,260.62,1428.91,256.62,1432.91,265.62" style="stroke:#181818;stroke-width:1;"/><path d="M1437.91,206 L1437.91,231 L1521.91,231 L1521.91,216 L1511.91,206 L1437.91,206 " fill="#FEFFDD" style="stroke:#181818;stroke-width:0.5;"/><path d="M1511.91,206 L1511.91,216 L1521.91,216 L1511.91,206 " fill="#FEFFDD" style="stroke:#181818;stroke-width:0.5;"/><text fill="#000000" font-family="sans-serif" font-size="13" lengthAdjust="spacing" textLength="63.5083" x="1443.91" y="223.0669">Ver menu</text></g><!--link MENU_PRINCIPAL to ELIGIENDO_GRADO--><g id="link_MENU_PRINCIPAL_ELIGIENDO_GRADO"><path d="M1362.05,292.13 C1089.12,292.96 118.88,299.21 73.91,346 C53.78,366.95 60.803,396.7913 70.633,420.3913 " fill="none" id="MENU_PRINCIPAL-to-ELIGIENDO_GRADO" style="stroke:#181818;stroke-width:1;"/><polygon fill="#181818" points="72.94,425.93,73.172,416.0839,71.0175,421.3144,65.787,419.1599,72.94,425.93" style="stroke:#181818;stroke-width:1;"/><path d="M78.91,358.5 L78.91,383.5 L177.91,383.5 L177.91,368.5 L167.91,358.5 L78.91,358.5 " fill="#FEFFDD" style="stroke:#181818;stroke-width:0.5;"/><path d="M167.91,358.5 L167.91,368.5 L177.91,368.5 L167.91,358.5 " fill="#FEFFDD" style="stroke:#181818;stroke-width:0.5;"/><text fill="#000000" font-family="sans-serif" font-size="13" lengthAdjust="spacing" textLength="78.9331" x="84.91" y="375.5669">Elegir grado</text></g><!--link ELIGIENDO_GRADO to ASIGNANDO_ASIGNATURA--><g id="link_ELIGIENDO_GRADO_ASIGNANDO_ASIGNATURA"><path d="M76.36,476.44 C71.22,495.9 68.05,522.8 81.91,541 C94.13,557.04 128.6169,568.2454 169.5569,577.1454 " fill="none" id="ELIGIENDO_GRADO-to-ASIGNANDO_ASIGNATURA" style="stroke:#181818;stroke-width:1;"/><polygon fill="#181818" points="175.42,578.42,167.4751,572.5994,170.5341,577.3579,165.7757,580.4168,175.42,578.42" style="stroke:#181818;stroke-width:1;"/><path d="M86.91,511 L86.91,536 L229.91,536 L229.91,521 L219.91,511 L86.91,511 " fill="#FEFFDD" style="stroke:#181818;stroke-width:0.5;"/><path d="M219.91,511 L219.91,521 L229.91,521 L219.91,511 " fill="#FEFFDD" style="stroke:#181818;stroke-width:0.5;"/><text fill="#000000" font-family="sans-serif" font-size="13" lengthAdjust="spacing" textLength="122.6685" x="92.91" y="528.0669">Asignar asignatura</text></g><!--link ASIGNANDO_ASIGNATURA to ELIGIENDO_GRADO--><g id="link_ASIGNANDO_ASIGNATURA_ELIGIENDO_GRADO"><path d="M272.93,570.71 C267.67,550.8 257.47,523.2 238.91,506 C218.03,486.64 195.5542,475.8932 168.9742,467.8732 " fill="none" id="ASIGNANDO_ASIGNATURA-to-ELIGIENDO_GRADO" style="stroke:#181818;stroke-width:1;"/><polygon fill="#181818" points="163.23,466.14,170.6909,472.5693,168.0168,467.5843,173.0018,464.9103,163.23,466.14" style="stroke:#181818;stroke-width:1;"/><path d="M267.91,511 L267.91,536 L366.91,536 L366.91,521 L356.91,511 L267.91,511 " fill="#FEFFDD" style="stroke:#181818;stroke-width:0.5;"/><path d="M356.91,511 L356.91,521 L366.91,521 L356.91,511 " fill="#FEFFDD" style="stroke:#181818;stroke-width:0.5;"/><text fill="#000000" font-family="sans-serif" font-size="13" lengthAdjust="spacing" textLength="78.9331" x="273.91" y="528.0669">Elegir grado</text></g><!--link ASIGNANDO_ASIGNATURA to MENU_PRINCIPAL--><g id="link_ASIGNANDO_ASIGNATURA_MENU_PRINCIPAL"><path d="M380.33,593.95 C835.97,588.81 2660.18,562.83 2742.91,476 C2783.15,433.77 2769.69,383.38 2724.91,346 C2677.76,306.64 1772.7897,295.1674 1509.5697,292.6474 " fill="none" id="ASIGNANDO_ASIGNATURA-to-MENU_PRINCIPAL" style="stroke:#181818;stroke-width:1;"/><polygon fill="#181818" points="1503.57,292.59,1512.5313,296.676,1508.5698,292.6379,1512.6079,288.6763,1503.57,292.59" style="stroke:#181818;stroke-width:1;"/><path d="M2770.91,438.5 L2770.91,463.5 L2854.91,463.5 L2854.91,448.5 L2844.91,438.5 L2770.91,438.5 " fill="#FEFFDD" style="stroke:#181818;stroke-width:0.5;"/><path d="M2844.91,438.5 L2844.91,448.5 L2854.91,448.5 L2844.91,438.5 " fill="#FEFFDD" style="stroke:#181818;stroke-width:0.5;"/><text fill="#000000" font-family="sans-serif" font-size="13" lengthAdjust="spacing" textLength="63.5083" x="2776.91" y="455.5669">Ver menu</text></g><!--link MENU_PRINCIPAL to ASIGNANDO_PROFESOR--><g id="link_MENU_PRINCIPAL_ASIGNANDO_PROFESOR"><path d="M1362.2,292.43 C1106.28,294.33 241.25,303.85 200.91,346 C185.55,362.05 188.11,377.83 200.91,396 C214.38,415.12 229.6327,425.4556 251.6127,433.4656 " fill="none" id="MENU_PRINCIPAL-to-ASIGNANDO_PROFESOR" style="stroke:#181818;stroke-width:1;"/><polygon fill="#181818" points="257.25,435.52,250.1636,428.6802,252.5522,433.808,247.4244,436.1967,257.25,435.52" style="stroke:#181818;stroke-width:1;"/><path d="M205.91,358.5 L205.91,383.5 L333.91,383.5 L333.91,368.5 L323.91,358.5 L205.91,358.5 " fill="#FEFFDD" style="stroke:#181818;stroke-width:0.5;"/><path d="M323.91,358.5 L323.91,368.5 L333.91,368.5 L323.91,358.5 " fill="#FEFFDD" style="stroke:#181818;stroke-width:0.5;"/><text fill="#000000" font-family="sans-serif" font-size="13" lengthAdjust="spacing" textLength="107.4087" x="211.91" y="375.5669">Asignar profesor</text></g><!--link ASIGNANDO_PROFESOR to MENU_PRINCIPAL--><g id="link_ASIGNANDO_PROFESOR_MENU_PRINCIPAL"><path d="M356.02,425.52 C361.58,400.89 374.07,364.03 400.91,346 C480.22,292.74 1135.98,290.6974 1356.06,291.5274 " fill="none" id="ASIGNANDO_PROFESOR-to-MENU_PRINCIPAL" style="stroke:#181818;stroke-width:1;"/><polygon fill="#181818" points="1362.06,291.55,1353.0751,287.5161,1357.06,291.5311,1353.045,295.516,1362.06,291.55" style="stroke:#181818;stroke-width:1;"/><path d="M405.91,358.5 L405.91,383.5 L489.91,383.5 L489.91,368.5 L479.91,358.5 L405.91,358.5 " fill="#FEFFDD" style="stroke:#181818;stroke-width:0.5;"/><path d="M479.91,358.5 L479.91,368.5 L489.91,368.5 L479.91,358.5 " fill="#FEFFDD" style="stroke:#181818;stroke-width:0.5;"/><text fill="#000000" font-family="sans-serif" font-size="13" lengthAdjust="spacing" textLength="63.5083" x="411.91" y="375.5669">Ver menu</text></g><!--link MENU_PRINCIPAL to BUSCANDO_GRADO--><g id="link_MENU_PRINCIPAL_BUSCANDO_GRADO"><path d="M1362.18,293.53 C1151.68,298.42 541.95,315.21 512.91,346 C497.67,362.17 501.37,377.01 512.91,396 C520.46,408.43 526.7618,415.0484 539.3418,422.5784 " fill="none" id="MENU_PRINCIPAL-to-BUSCANDO_GRADO" style="stroke:#181818;stroke-width:1;"/><polygon fill="#181818" points="544.49,425.66,538.8221,417.6055,540.1998,423.092,534.7133,424.4698,544.49,425.66" style="stroke:#181818;stroke-width:1;"/><path d="M517.91,358.5 L517.91,383.5 L624.91,383.5 L624.91,368.5 L614.91,358.5 L517.91,358.5 " fill="#FEFFDD" style="stroke:#181818;stroke-width:0.5;"/><path d="M614.91,358.5 L614.91,368.5 L624.91,368.5 L614.91,358.5 " fill="#FEFFDD" style="stroke:#181818;stroke-width:0.5;"/><text fill="#000000" font-family="sans-serif" font-size="13" lengthAdjust="spacing" textLength="86.29" x="523.91" y="375.5669">Buscar grado</text></g><!--link BUSCANDO_GRADO to MENU_PRINCIPAL--><g id="link_BUSCANDO_GRADO_MENU_PRINCIPAL"><path d="M626.87,425.8 C638.49,401.02 660.23,363.69 691.91,346 C749.48,313.84 1181.9323,298.7664 1356.0023,293.9364 " fill="none" id="BUSCANDO_GRADO-to-MENU_PRINCIPAL" style="stroke:#181818;stroke-width:1;"/><polygon fill="#181818" points="1362,293.77,1352.8925,290.0212,1357.0019,293.9087,1353.1144,298.0181,1362,293.77" style="stroke:#181818;stroke-width:1;"/><path d="M696.91,358.5 L696.91,383.5 L780.91,383.5 L780.91,368.5 L770.91,358.5 L696.91,358.5 " fill="#FEFFDD" style="stroke:#181818;stroke-width:0.5;"/><path d="M770.91,358.5 L770.91,368.5 L780.91,368.5 L770.91,358.5 " fill="#FEFFDD" style="stroke:#181818;stroke-width:0.5;"/><text fill="#000000" font-family="sans-serif" font-size="13" lengthAdjust="spacing" textLength="63.5083" x="702.91" y="375.5669">Ver menu</text></g><!--link MENU_PRINCIPAL to CONSULTANDO_HORARIO_PROFESOR--><g id="link_MENU_PRINCIPAL_CONSULTANDO_HORARIO_PROFESOR"><path d="M1361.98,292.81 C1205.4,295.34 841.04,305.55 803.91,346 C788.89,362.37 791.1,377.85 803.91,396 C812.79,408.58 819.6244,415.3553 833.1144,422.7853 " fill="none" id="MENU_PRINCIPAL-to-CONSULTANDO_HORARIO_PROFESOR" style="stroke:#181818;stroke-width:1;"/><polygon fill="#181818" points="838.37,425.68,832.4164,417.8343,833.9904,423.2678,828.5569,424.8417,838.37,425.68" style="stroke:#181818;stroke-width:1;"/><path d="M808.91,351 L808.91,391 L933.91,391 L933.91,361 L923.91,351 L808.91,351 " fill="#FEFFDD" style="stroke:#181818;stroke-width:0.5;"/><path d="M923.91,351 L923.91,361 L933.91,361 L923.91,351 " fill="#FEFFDD" style="stroke:#181818;stroke-width:0.5;"/><text fill="#000000" font-family="sans-serif" font-size="13" lengthAdjust="spacing" textLength="62.3022" x="814.91" y="368.0669">Consultar</text><text fill="#000000" font-family="sans-serif" font-size="13" lengthAdjust="spacing" textLength="104.7427" x="814.91" y="383.1997">horario profesor</text></g><!--link CONSULTANDO_HORARIO_PROFESOR to MENU_PRINCIPAL--><g id="link_CONSULTANDO_HORARIO_PROFESOR_MENU_PRINCIPAL"><path d="M959.43,425.51 C964.31,401.24 975.57,365 1000.91,346 C1056.39,304.4 1248.3012,294.8104 1355.9412,292.6504 " fill="none" id="CONSULTANDO_HORARIO_PROFESOR-to-MENU_PRINCIPAL" style="stroke:#181818;stroke-width:1;"/><polygon fill="#181818" points="1361.94,292.53,1352.8616,288.7114,1356.941,292.6303,1353.0221,296.7098,1361.94,292.53" style="stroke:#181818;stroke-width:1;"/><path d="M1005.91,358.5 L1005.91,383.5 L1089.91,383.5 L1089.91,368.5 L1079.91,358.5 L1005.91,358.5 " fill="#FEFFDD" style="stroke:#181818;stroke-width:0.5;"/><path d="M1079.91,358.5 L1079.91,368.5 L1089.91,368.5 L1079.91,358.5 " fill="#FEFFDD" style="stroke:#181818;stroke-width:0.5;"/><text fill="#000000" font-family="sans-serif" font-size="13" lengthAdjust="spacing" textLength="63.5083" x="1011.91" y="375.5669">Ver menu</text></g><!--link MENU_PRINCIPAL to EDITANDO_ASIGNACION--><g id="link_MENU_PRINCIPAL_EDITANDO_ASIGNACION"><path d="M1361.9,293.69 C1277.5,297.37 1144.15,309.05 1112.91,346 C1098.56,362.97 1100.02,377.9 1112.91,396 C1127.37,416.31 1144.3359,427.1288 1167.9459,435.1088 " fill="none" id="MENU_PRINCIPAL-to-EDITANDO_ASIGNACION" style="stroke:#181818;stroke-width:1;"/><polygon fill="#181818" points="1173.63,437.03,1166.3846,430.3588,1168.8932,435.429,1163.8231,437.9376,1173.63,437.03" style="stroke:#181818;stroke-width:1;"/><path d="M1117.91,358.5 L1117.91,383.5 L1250.91,383.5 L1250.91,368.5 L1240.91,358.5 L1117.91,358.5 " fill="#FEFFDD" style="stroke:#181818;stroke-width:0.5;"/><path d="M1240.91,358.5 L1240.91,368.5 L1250.91,368.5 L1240.91,358.5 " fill="#FEFFDD" style="stroke:#181818;stroke-width:0.5;"/><text fill="#000000" font-family="sans-serif" font-size="13" lengthAdjust="spacing" textLength="112.3789" x="1123.91" y="375.5669">Editar asignaci&#243;n</text></g><!--link EDITANDO_ASIGNACION to MENU_PRINCIPAL--><g id="link_EDITANDO_ASIGNACION_MENU_PRINCIPAL"><path d="M1275.42,425.76 C1282.68,402.7 1296.46,368.32 1318.91,346 C1331.1,333.88 1341.1652,326.7767 1356.7052,319.0667 " fill="none" id="EDITANDO_ASIGNACION-to-MENU_PRINCIPAL" style="stroke:#181818;stroke-width:1;"/><polygon fill="#181818" points="1362.08,316.4,1352.24,316.8168,1357.601,318.6222,1355.7955,323.9832,1362.08,316.4" style="stroke:#181818;stroke-width:1;"/><path d="M1323.91,358.5 L1323.91,383.5 L1407.91,383.5 L1407.91,368.5 L1397.91,358.5 L1323.91,358.5 " fill="#FEFFDD" style="stroke:#181818;stroke-width:0.5;"/><path d="M1397.91,358.5 L1397.91,368.5 L1407.91,368.5 L1397.91,358.5 " fill="#FEFFDD" style="stroke:#181818;stroke-width:0.5;"/><text fill="#000000" font-family="sans-serif" font-size="13" lengthAdjust="spacing" textLength="63.5083" x="1329.91" y="375.5669">Ver menu</text></g><!--link MENU_PRINCIPAL to MOSTRANDO_ASIGNATURAS--><g id="link_MENU_PRINCIPAL_MOSTRANDO_ASIGNATURAS"><path d="M1425.27,316.15 C1419.71,338.5 1415.43,371.83 1429.91,396 C1437.32,408.37 1443.5123,414.9445 1455.9223,422.4845 " fill="none" id="MENU_PRINCIPAL-to-MOSTRANDO_ASIGNATURAS" style="stroke:#181818;stroke-width:1;"/><polygon fill="#181818" points="1461.05,425.6,1455.4354,417.5083,1456.7769,423.0038,1451.2814,424.3453,1461.05,425.6" style="stroke:#181818;stroke-width:1;"/><path d="M1434.91,358.5 L1434.91,383.5 L1585.91,383.5 L1585.91,368.5 L1575.91,358.5 L1434.91,358.5 " fill="#FEFFDD" style="stroke:#181818;stroke-width:0.5;"/><path d="M1575.91,358.5 L1575.91,368.5 L1585.91,368.5 L1575.91,358.5 " fill="#FEFFDD" style="stroke:#181818;stroke-width:0.5;"/><text fill="#000000" font-family="sans-serif" font-size="13" lengthAdjust="spacing" textLength="130.0571" x="1440.91" y="375.5669">Mostrar asignaturas</text></g><!--link MOSTRANDO_ASIGNATURAS to MENU_PRINCIPAL--><g id="link_MOSTRANDO_ASIGNATURAS_MENU_PRINCIPAL"><path d="M1570.46,425.75 C1580.27,417.61 1589.52,407.6 1594.91,396 C1604.28,375.85 1607.91,364.03 1594.91,346 C1574.11,317.14 1543.103,304.598 1509.773,298.218 " fill="none" id="MOSTRANDO_ASIGNATURAS-to-MENU_PRINCIPAL" style="stroke:#181818;stroke-width:1;"/><polygon fill="#181818" points="1503.88,297.09,1511.9675,302.7107,1508.7908,298.03,1513.4715,294.8534,1503.88,297.09" style="stroke:#181818;stroke-width:1;"/><path d="M1608.91,358.5 L1608.91,383.5 L1692.91,383.5 L1692.91,368.5 L1682.91,358.5 L1608.91,358.5 " fill="#FEFFDD" style="stroke:#181818;stroke-width:0.5;"/><path d="M1682.91,358.5 L1682.91,368.5 L1692.91,368.5 L1682.91,358.5 " fill="#FEFFDD" style="stroke:#181818;stroke-width:0.5;"/><text fill="#000000" font-family="sans-serif" font-size="13" lengthAdjust="spacing" textLength="63.5083" x="1614.91" y="375.5669">Ver menu</text></g><!--link MENU_PRINCIPAL to REGISTRANDO_ASIGNATURA--><g id="link_MENU_PRINCIPAL_REGISTRANDO_ASIGNATURA"><path d="M1503.74,293.57 C1561.59,297.66 1643.67,310.06 1705.91,346 C1739.36,365.31 1763.4601,396.4393 1779.1701,420.6093 " fill="none" id="MENU_PRINCIPAL-to-REGISTRANDO_ASIGNATURA" style="stroke:#181818;stroke-width:1;"/><polygon fill="#181818" points="1782.44,425.64,1780.889,415.914,1779.7151,421.4477,1774.1814,420.2738,1782.44,425.64" style="stroke:#181818;stroke-width:1;"/><path d="M1766.91,358.5 L1766.91,383.5 L1920.91,383.5 L1920.91,368.5 L1910.91,358.5 L1766.91,358.5 " fill="#FEFFDD" style="stroke:#181818;stroke-width:0.5;"/><path d="M1910.91,358.5 L1910.91,368.5 L1920.91,368.5 L1910.91,358.5 " fill="#FEFFDD" style="stroke:#181818;stroke-width:0.5;"/><text fill="#000000" font-family="sans-serif" font-size="13" lengthAdjust="spacing" textLength="133.0088" x="1772.91" y="375.5669">Registrar asignatura</text></g><!--link REGISTRANDO_ASIGNATURA to MENU_PRINCIPAL--><g id="link_REGISTRANDO_ASIGNATURA_MENU_PRINCIPAL"><path d="M1898.95,425.69 C1912.33,418.28 1924.35,408.61 1932.91,396 C1945.39,377.61 1947.76,362.54 1932.91,346 C1904.77,314.65 1640.865,300.1255 1509.735,294.7555 " fill="none" id="REGISTRANDO_ASIGNATURA-to-MENU_PRINCIPAL" style="stroke:#181818;stroke-width:1;"/><polygon fill="#181818" points="1503.74,294.51,1512.5688,298.8749,1508.7358,294.7146,1512.8961,290.8816,1503.74,294.51" style="stroke:#181818;stroke-width:1;"/><path d="M1948.91,358.5 L1948.91,383.5 L2032.91,383.5 L2032.91,368.5 L2022.91,358.5 L1948.91,358.5 " fill="#FEFFDD" style="stroke:#181818;stroke-width:0.5;"/><path d="M2022.91,358.5 L2022.91,368.5 L2032.91,368.5 L2022.91,358.5 " fill="#FEFFDD" style="stroke:#181818;stroke-width:0.5;"/><text fill="#000000" font-family="sans-serif" font-size="13" lengthAdjust="spacing" textLength="63.5083" x="1954.91" y="375.5669">Ver menu</text></g><!--link MENU_PRINCIPAL to VIENDO_DISPONIBILIDAD_AULAS--><g id="link_MENU_PRINCIPAL_VIENDO_DISPONIBILIDAD_AULAS"><path d="M1503.9,291.07 C1644.95,290.38 1954.75,294.92 2045.91,346 C2077.86,363.9 2097.6978,395.7831 2109.8178,420.4931 " fill="none" id="MENU_PRINCIPAL-to-VIENDO_DISPONIBILIDAD_AULAS" style="stroke:#181818;stroke-width:1;"/><polygon fill="#181818" points="2112.46,425.88,2112.0879,416.0382,2110.2582,421.3909,2104.9054,419.5611,2112.46,425.88" style="stroke:#181818;stroke-width:1;"/><path d="M2099.91,351 L2099.91,391 L2240.91,391 L2240.91,361 L2230.91,351 L2099.91,351 " fill="#FEFFDD" style="stroke:#181818;stroke-width:0.5;"/><path d="M2230.91,351 L2230.91,361 L2240.91,361 L2230.91,351 " fill="#FEFFDD" style="stroke:#181818;stroke-width:0.5;"/><text fill="#000000" font-family="sans-serif" font-size="13" lengthAdjust="spacing" textLength="116.6191" x="2105.91" y="368.0669">Ver disponibilidad</text><text fill="#000000" font-family="sans-serif" font-size="13" lengthAdjust="spacing" textLength="54.939" x="2105.91" y="383.1997">de aulas</text></g><!--link VIENDO_DISPONIBILIDAD_AULAS to MENU_PRINCIPAL--><g id="link_VIENDO_DISPONIBILIDAD_AULAS_MENU_PRINCIPAL"><path d="M2220.29,425.62 C2233.56,418.22 2245.5,408.57 2253.91,396 C2266.27,377.53 2269.1,362.22 2253.91,346 C2203.17,291.81 1699.4999,289.9808 1509.6699,291.2208 " fill="none" id="VIENDO_DISPONIBILIDAD_AULAS-to-MENU_PRINCIPAL" style="stroke:#181818;stroke-width:1;"/><polygon fill="#181818" points="1503.67,291.26,1512.6959,295.2011,1508.6699,291.2273,1512.6437,287.2013,1503.67,291.26" style="stroke:#181818;stroke-width:1;"/><path d="M2269.91,358.5 L2269.91,383.5 L2353.91,383.5 L2353.91,368.5 L2343.91,358.5 L2269.91,358.5 " fill="#FEFFDD" style="stroke:#181818;stroke-width:0.5;"/><path d="M2343.91,358.5 L2343.91,368.5 L2353.91,368.5 L2343.91,358.5 " fill="#FEFFDD" style="stroke:#181818;stroke-width:0.5;"/><text fill="#000000" font-family="sans-serif" font-size="13" lengthAdjust="spacing" textLength="63.5083" x="2275.91" y="375.5669">Ver menu</text></g><!--link MENU_PRINCIPAL to SELECCIONANDO_AULA_AUTOMATICAMENTE--><g id="link_MENU_PRINCIPAL_SELECCIONANDO_AULA_AUTOMATICAMENTE"><path d="M1503.94,293.13 C1708.5,296.8 2289.31,310.28 2366.91,346 C2386.25,354.9 2420.1607,393.2292 2443.3507,421.0792 " fill="none" id="MENU_PRINCIPAL-to-SELECCIONANDO_AULA_AUTOMATICAMENTE" style="stroke:#181818;stroke-width:1;"/><polygon fill="#181818" points="2447.19,425.69,2444.5049,416.2142,2443.9906,421.8476,2438.3571,421.3333,2447.19,425.69" style="stroke:#181818;stroke-width:1;"/><path d="M2425.91,351 L2425.91,391 L2561.91,391 L2561.91,361 L2551.91,351 L2425.91,351 " fill="#FEFFDD" style="stroke:#181818;stroke-width:0.5;"/><path d="M2551.91,351 L2551.91,361 L2561.91,361 L2551.91,351 " fill="#FEFFDD" style="stroke:#181818;stroke-width:0.5;"/><text fill="#000000" font-family="sans-serif" font-size="13" lengthAdjust="spacing" textLength="107.1865" x="2431.91" y="368.0669">Seleccionar aula</text><text fill="#000000" font-family="sans-serif" font-size="13" lengthAdjust="spacing" textLength="115.7051" x="2431.91" y="383.1997">autom&#225;ticamente</text></g><!--link SELECCIONANDO_AULA_AUTOMATICAMENTE to MENU_PRINCIPAL--><g id="link_SELECCIONANDO_AULA_AUTOMATICAMENTE_MENU_PRINCIPAL"><path d="M2543.16,425.51 C2555.79,418.04 2567.25,408.39 2574.91,396 C2586.59,377.1 2590.25,362.08 2574.91,346 C2537.86,307.15 1753.6096,295.4667 1509.8596,292.7567 " fill="none" id="SELECCIONANDO_AULA_AUTOMATICAMENTE-to-MENU_PRINCIPAL" style="stroke:#181818;stroke-width:1;"/><polygon fill="#181818" points="1503.86,292.69,1512.815,296.7898,1508.8597,292.7456,1512.9039,288.7903,1503.86,292.69" style="stroke:#181818;stroke-width:1;"/><path d="M2589.91,358.5 L2589.91,383.5 L2673.91,383.5 L2673.91,368.5 L2663.91,358.5 L2589.91,358.5 " fill="#FEFFDD" style="stroke:#181818;stroke-width:0.5;"/><path d="M2663.91,358.5 L2663.91,368.5 L2673.91,368.5 L2663.91,358.5 " fill="#FEFFDD" style="stroke:#181818;stroke-width:0.5;"/><text fill="#000000" font-family="sans-serif" font-size="13" lengthAdjust="spacing" textLength="63.5083" x="2595.91" y="375.5669">Ver menu</text></g><!--link MENU_PRINCIPAL to *end*--><g id="link_MENU_PRINCIPAL_*end*"><path d="M1503.66,292.74 C1761.84,295.73 2640.68,308.62 2686.91,346 C2715.49,369.1 2716.4195,412.2502 2715.1695,433.6702 " fill="none" id="MENU_PRINCIPAL-to-*end*" style="stroke:#181818;stroke-width:1;"/><polygon fill="#181818" points="2714.82,439.66,2719.3375,430.9083,2715.1113,434.6685,2711.3511,430.4423,2714.82,439.66" style="stroke:#181818;stroke-width:1;"/></g><!--SRC=[jPNHJeCm58RlUOfUc_WA9XtKUH96bnQyCMQfK6SZjgQ51_8PV0HVpAwBJXZTl1XS06dAz__zUtfuk7f4rzSt20f80HSPtN32WHO9yfSsdKH6erRfrp2mkq2hMWcBd7JgwrE7SQcRC3aPOm9xHOfgisPGfB36UPnyBorwaxeV8eTV1o39OGbafx9aEADn8cdbLbcqjQ8nG-e84R2Omx88vlTlPSLmd8sTscgVWmZFhhTYg315kvJxAFlYKH-KrepU4axP-KJUhNcMpjYOvn_I1HnFMLvKFCN_Y7VHkrfCnfiC4JFvJ6d1gxmCEdUKOGR_2JarslLjvut_3hqOAwmoaToJKpepBOraKFufp_HaGo6DwdxFKNtSKv89sZp5lgAyPADZnUFSbN6T7NG0Duvc2ZYFTqQMS2mM1pFVMyRsH-wdaJELpFs-9MR0rxI01UIGuMo3g_pK3kpmZNBlHgidrQf6D8TJqKWa-lPeIqxepBCndEGatTNiFaSlv6ybNU4IKkpdboGkmcKhwrgPy9_nYpciJlITUVlww5Gjl0klFB1nNdEUjJvSFNu3]--></g></svg>