<svg xmlns="http://www.w3.org/2000/svg" xmlns:xlink="http://www.w3.org/1999/xlink" contentStyleType="text/css" height="627px" preserveAspectRatio="none" style="width:2862px;height:627px;background:#FFFFFF;" version="1.1" viewBox="0 0 2862 627" width="2862px" zoomAndPan="magnify"><defs/><g><ellipse cx="1433" cy="16" fill="#222222" rx="10" ry="10" style="stroke:#222222;stroke-width:1;"/><g id="INICIANDO_SESION"><rect fill="#F1F1F1" height="50" rx="12.5" ry="12.5" style="stroke:#181818;stroke-width:0.5;" width="153.7246" x="1356" y="121"/><line style="stroke:#181818;stroke-width:0.5;" x1="1356" x2="1509.7246" y1="147.2969" y2="147.2969"/><text fill="#000000" font-family="sans-serif" font-size="14" lengthAdjust="spacing" textLength="133.7246" x="1366" y="138.9951">INICIANDO_SESION</text></g><g id="MENU_PRINCIPAL"><rect fill="#F1F1F1" height="50" rx="12.5" ry="12.5" style="stroke:#181818;stroke-width:0.5;" width="141.1396" x="1362.5" y="266"/><line style="stroke:#181818;stroke-width:0.5;" x1="1362.5" x2="1503.6396" y1="292.2969" y2="292.2969"/><text fill="#000000" font-family="sans-serif" font-size="14" lengthAdjust="spacing" textLength="121.1396" x="1372.5" y="283.9951">MENU_PRINCIPAL</text></g><g id="ELIGIENDO_GRADO"><rect fill="#F1F1F1" height="50" rx="12.5" ry="12.5" style="stroke:#181818;stroke-width:0.5;" width="155.8232" x="7" y="426"/><line style="stroke:#181818;stroke-width:0.5;" x1="7" x2="162.8232" y1="452.2969" y2="452.2969"/><text fill="#000000" font-family="sans-serif" font-size="14" lengthAdjust="spacing" textLength="135.8232" x="17" y="443.9951">ELIGIENDO_GRADO</text></g><g id="VINCULANDO_ASIGNATURA_HORARIO"><rect fill="#F1F1F1" height="50" rx="12.5" ry="12.5" style="stroke:#181818;stroke-width:0.5;" width="285.1729" x="139.5" y="571"/><line style="stroke:#181818;stroke-width:0.5;" x1="139.5" x2="424.6729" y1="597.2969" y2="597.2969"/><text fill="#000000" font-family="sans-serif" font-size="14" lengthAdjust="spacing" textLength="265.1729" x="149.5" y="588.9951">VINCULANDO_ASIGNATURA_HORARIO</text></g><g id="ASIGNANDO_PROFESOR"><rect fill="#F1F1F1" height="50" rx="12.5" ry="12.5" style="stroke:#181818;stroke-width:0.5;" width="188.4854" x="258" y="426"/><line style="stroke:#181818;stroke-width:0.5;" x1="258" x2="446.4854" y1="452.2969" y2="452.2969"/><text fill="#000000" font-family="sans-serif" font-size="14" lengthAdjust="spacing" textLength="168.4854" x="268" y="443.9951">ASIGNANDO_PROFESOR</text></g><g id="BUSCANDO_GRADO"><rect fill="#F1F1F1" height="50" rx="12.5" ry="12.5" style="stroke:#181818;stroke-width:0.5;" width="159.3164" x="537.5" y="426"/><line style="stroke:#181818;stroke-width:0.5;" x1="537.5" x2="696.8164" y1="452.2969" y2="452.2969"/><text fill="#000000" font-family="sans-serif" font-size="14" lengthAdjust="spacing" textLength="139.3164" x="547.5" y="443.9951">BUSCANDO_GRADO</text></g><g id="CONSULTANDO_HORARIO_PROFESOR"><rect fill="#F1F1F1" height="50" rx="12.5" ry="12.5" style="stroke:#181818;stroke-width:0.5;" width="284.0518" x="814" y="426"/><line style="stroke:#181818;stroke-width:0.5;" x1="814" x2="1098.0518" y1="452.2969" y2="452.2969"/><text fill="#000000" font-family="sans-serif" font-size="14" lengthAdjust="spacing" textLength="264.0518" x="824" y="443.9951">CONSULTANDO_HORARIO_PROFESOR</text></g><g id="EDITANDO_ASIGNACION"><rect fill="#F1F1F1" height="50" rx="12.5" ry="12.5" style="stroke:#181818;stroke-width:0.5;" width="190.0439" x="1174" y="426"/><line style="stroke:#181818;stroke-width:0.5;" x1="1174" x2="1364.0439" y1="452.2969" y2="452.2969"/><text fill="#000000" font-family="sans-serif" font-size="14" lengthAdjust="spacing" textLength="170.0439" x="1184" y="443.9951">EDITANDO_ASIGNACION</text></g><g id="MOSTRANDO_ASIGNATURAS"><rect fill="#F1F1F1" height="50" rx="12.5" ry="12.5" style="stroke:#181818;stroke-width:0.5;" width="219.5957" x="1421" y="426"/><line style="stroke:#181818;stroke-width:0.5;" x1="1421" x2="1640.5957" y1="452.2969" y2="452.2969"/><text fill="#000000" font-family="sans-serif" font-size="14" lengthAdjust="spacing" textLength="199.5957" x="1431" y="443.9951">MOSTRANDO_ASIGNATURAS</text></g><g id="REGISTRANDO_ASIGNATURA"><rect fill="#F1F1F1" height="50" rx="12.5" ry="12.5" style="stroke:#181818;stroke-width:0.5;" width="221.1611" x="1687.5" y="426"/><line style="stroke:#181818;stroke-width:0.5;" x1="1687.5" x2="1908.6611" y1="452.2969" y2="452.2969"/><text fill="#000000" font-family="sans-serif" font-size="14" lengthAdjust="spacing" textLength="201.1611" x="1697.5" y="443.9951">REGISTRANDO_ASIGNATURA</text></g><g id="VIENDO_DISPONIBILIDAD_AULAS"><rect fill="#F1F1F1" height="50" rx="12.5" ry="12.5" style="stroke:#181818;stroke-width:0.5;" width="249.5713" x="1998" y="426"/><line style="stroke:#181818;stroke-width:0.5;" x1="1998" x2="2247.5713" y1="452.2969" y2="452.2969"/><text fill="#000000" font-family="sans-serif" font-size="14" lengthAdjust="spacing" textLength="229.5713" x="2008" y="443.9951">VIENDO_DISPONIBILIDAD_AULAS</text></g><g id="SELECCIONANDO_AULA_AUTOMATICAMENTE"><rect fill="#F1F1F1" height="50" rx="12.5" ry="12.5" style="stroke:#181818;stroke-width:0.5;" width="334.4805" x="2300" y="426"/><line style="stroke:#181818;stroke-width:0.5;" x1="2300" x2="2634.4805" y1="452.2969" y2="452.2969"/><text fill="#000000" font-family="sans-serif" font-size="14" lengthAdjust="spacing" textLength="314.4805" x="2310" y="443.9951">SELECCIONANDO_AULA_AUTOMATICAMENTE</text></g><ellipse cx="2714" cy="451" fill="none" rx="11" ry="11" style="stroke:#222222;stroke-width:1;"/><ellipse cx="2714" cy="451" fill="#222222" rx="6" ry="6" style="stroke:#222222;stroke-width:1;"/><!--link *start* to INICIANDO_SESION--><g id="link_*start*_INICIANDO_SESION"><path d="M1433,26.21 C1433,45.81 1433,86.23 1433,114.89 " fill="none" id="*start*-to-INICIANDO_SESION" style="stroke:#181818;stroke-width:1;"/><polygon fill="#181818" points="1433,120.89,1437,111.89,1433,115.89,1429,111.89,1433,120.89" style="stroke:#181818;stroke-width:1;"/><path d="M1438,61 L1438,86 L1544,86 L1544,71 L1534,61 L1438,61 " fill="#FEFFDD" style="stroke:#181818;stroke-width:0.5;"/><path d="M1534,61 L1534,71 L1544,71 L1534,61 " fill="#FEFFDD" style="stroke:#181818;stroke-width:0.5;"/><text fill="#000000" font-family="sans-serif" font-size="13" lengthAdjust="spacing" textLength="85.2363" x="1444" y="78.0669">Iniciar sesi&#243;n</text></g><!--link INICIANDO_SESION to MENU_PRINCIPAL--><g id="link_INICIANDO_SESION_MENU_PRINCIPAL"><path d="M1433,171.26 C1433,197.55 1433,233.28 1433,259.62 " fill="none" id="INICIANDO_SESION-to-MENU_PRINCIPAL" style="stroke:#181818;stroke-width:1;"/><polygon fill="#181818" points="1433,265.62,1437,256.62,1433,260.62,1429,256.62,1433,265.62" style="stroke:#181818;stroke-width:1;"/><path d="M1438,206 L1438,231 L1522,231 L1522,216 L1512,206 L1438,206 " fill="#FEFFDD" style="stroke:#181818;stroke-width:0.5;"/><path d="M1512,206 L1512,216 L1522,216 L1512,206 " fill="#FEFFDD" style="stroke:#181818;stroke-width:0.5;"/><text fill="#000000" font-family="sans-serif" font-size="13" lengthAdjust="spacing" textLength="63.5083" x="1444" y="223.0669">Ver menu</text></g><!--link MENU_PRINCIPAL to ELIGIENDO_GRADO--><g id="link_MENU_PRINCIPAL_ELIGIENDO_GRADO"><path d="M1362.14,292.13 C1089.21,292.96 118.97,299.21 74,346 C53.87,366.95 60.893,396.7913 70.723,420.3913 " fill="none" id="MENU_PRINCIPAL-to-ELIGIENDO_GRADO" style="stroke:#181818;stroke-width:1;"/><polygon fill="#181818" points="73.03,425.93,73.262,416.0839,71.1075,421.3144,65.877,419.1599,73.03,425.93" style="stroke:#181818;stroke-width:1;"/><path d="M79,358.5 L79,383.5 L178,383.5 L178,368.5 L168,358.5 L79,358.5 " fill="#FEFFDD" style="stroke:#181818;stroke-width:0.5;"/><path d="M168,358.5 L168,368.5 L178,368.5 L168,358.5 " fill="#FEFFDD" style="stroke:#181818;stroke-width:0.5;"/><text fill="#000000" font-family="sans-serif" font-size="13" lengthAdjust="spacing" textLength="78.9331" x="85" y="375.5669">Elegir grado</text></g><!--link ELIGIENDO_GRADO to VINCULANDO_ASIGNATURA_HORARIO--><g id="link_ELIGIENDO_GRADO_VINCULANDO_ASIGNATURA_HORARIO"><path d="M76.53,476.06 C71.31,495.56 67.99,522.71 82,541 C91.21,553.03 110.2314,561.4113 139.3814,569.3613 " fill="none" id="ELIGIENDO_GRADO-to-VINCULANDO_ASIGNATURA_HORARIO" style="stroke:#181818;stroke-width:1;"/><polygon fill="#181818" points="145.17,570.94,137.5396,564.7129,140.3462,569.6244,135.4347,572.431,145.17,570.94" style="stroke:#181818;stroke-width:1;"/><path d="M87,511 L87,536 L234,536 L234,521 L224,511 L87,511 " fill="#FEFFDD" style="stroke:#181818;stroke-width:0.5;"/><path d="M224,511 L224,521 L234,521 L224,511 " fill="#FEFFDD" style="stroke:#181818;stroke-width:0.5;"/><text fill="#000000" font-family="sans-serif" font-size="13" lengthAdjust="spacing" textLength="126.6421" x="93" y="528.0669">Vincular asignatura</text></g><!--link VINCULANDO_ASIGNATURA_HORARIO to ELIGIENDO_GRADO--><g id="link_VINCULANDO_ASIGNATURA_HORARIO_ELIGIENDO_GRADO"><path d="M277.06,570.67 C271.81,550.74 261.63,523.13 243,506 C221.02,485.79 196.9195,474.747 169.0695,466.797 " fill="none" id="VINCULANDO_ASIGNATURA_HORARIO-to-ELIGIENDO_GRADO" style="stroke:#181818;stroke-width:1;"/><polygon fill="#181818" points="163.3,465.15,170.8563,471.4668,168.1079,466.5225,173.0523,463.7741,163.3,465.15" style="stroke:#181818;stroke-width:1;"/><path d="M272,511 L272,536 L371,536 L371,521 L361,511 L272,511 " fill="#FEFFDD" style="stroke:#181818;stroke-width:0.5;"/><path d="M361,511 L361,521 L371,521 L361,511 " fill="#FEFFDD" style="stroke:#181818;stroke-width:0.5;"/><text fill="#000000" font-family="sans-serif" font-size="13" lengthAdjust="spacing" textLength="78.9331" x="278" y="528.0669">Elegir grado</text></g><!--link VINCULANDO_ASIGNATURA_HORARIO to MENU_PRINCIPAL--><g id="link_VINCULANDO_ASIGNATURA_HORARIO_MENU_PRINCIPAL"><path d="M424.58,593.47 C937.48,587.3 2662.66,560.32 2743,476 C2783.24,433.77 2769.78,383.38 2725,346 C2677.85,306.64 1772.8797,295.1674 1509.6597,292.6474 " fill="none" id="VINCULANDO_ASIGNATURA_HORARIO-to-MENU_PRINCIPAL" style="stroke:#181818;stroke-width:1;"/><polygon fill="#181818" points="1503.66,292.59,1512.6213,296.676,1508.6598,292.6379,1512.6979,288.6763,1503.66,292.59" style="stroke:#181818;stroke-width:1;"/><path d="M2771,438.5 L2771,463.5 L2855,463.5 L2855,448.5 L2845,438.5 L2771,438.5 " fill="#FEFFDD" style="stroke:#181818;stroke-width:0.5;"/><path d="M2845,438.5 L2845,448.5 L2855,448.5 L2845,438.5 " fill="#FEFFDD" style="stroke:#181818;stroke-width:0.5;"/><text fill="#000000" font-family="sans-serif" font-size="13" lengthAdjust="spacing" textLength="63.5083" x="2777" y="455.5669">Ver menu</text></g><!--link MENU_PRINCIPAL to ASIGNANDO_PROFESOR--><g id="link_MENU_PRINCIPAL_ASIGNANDO_PROFESOR"><path d="M1362.29,292.43 C1106.37,294.33 241.34,303.85 201,346 C185.63,362.05 188.2,377.83 201,396 C214.55,415.23 229.9579,425.6088 252.0979,433.6188 " fill="none" id="MENU_PRINCIPAL-to-ASIGNANDO_PROFESOR" style="stroke:#181818;stroke-width:1;"/><polygon fill="#181818" points="257.74,435.66,250.6377,428.8367,253.0382,433.959,247.916,436.3595,257.74,435.66" style="stroke:#181818;stroke-width:1;"/><path d="M206,358.5 L206,383.5 L334,383.5 L334,368.5 L324,358.5 L206,358.5 " fill="#FEFFDD" style="stroke:#181818;stroke-width:0.5;"/><path d="M324,358.5 L324,368.5 L334,368.5 L324,358.5 " fill="#FEFFDD" style="stroke:#181818;stroke-width:0.5;"/><text fill="#000000" font-family="sans-serif" font-size="13" lengthAdjust="spacing" textLength="107.4087" x="212" y="375.5669">Asignar profesor</text></g><!--link ASIGNANDO_PROFESOR to MENU_PRINCIPAL--><g id="link_ASIGNANDO_PROFESOR_MENU_PRINCIPAL"><path d="M356.01,425.98 C361.51,401.34 373.99,364.14 401,346 C480.31,292.74 1136.07,290.6974 1356.15,291.5274 " fill="none" id="ASIGNANDO_PROFESOR-to-MENU_PRINCIPAL" style="stroke:#181818;stroke-width:1;"/><polygon fill="#181818" points="1362.15,291.55,1353.1651,287.5161,1357.15,291.5311,1353.135,295.516,1362.15,291.55" style="stroke:#181818;stroke-width:1;"/><path d="M406,358.5 L406,383.5 L490,383.5 L490,368.5 L480,358.5 L406,358.5 " fill="#FEFFDD" style="stroke:#181818;stroke-width:0.5;"/><path d="M480,358.5 L480,368.5 L490,368.5 L480,358.5 " fill="#FEFFDD" style="stroke:#181818;stroke-width:0.5;"/><text fill="#000000" font-family="sans-serif" font-size="13" lengthAdjust="spacing" textLength="63.5083" x="412" y="375.5669">Ver menu</text></g><!--link MENU_PRINCIPAL to BUSCANDO_GRADO--><g id="link_MENU_PRINCIPAL_BUSCANDO_GRADO"><path d="M1362.27,293.53 C1151.76,298.42 542.04,315.21 513,346 C497.75,362.17 501.46,377.01 513,396 C520.66,408.61 527.1577,415.3422 539.9377,422.9122 " fill="none" id="MENU_PRINCIPAL-to-BUSCANDO_GRADO" style="stroke:#181818;stroke-width:1;"/><polygon fill="#181818" points="545.1,425.97,539.395,417.9417,540.7981,423.4218,535.3179,424.8248,545.1,425.97" style="stroke:#181818;stroke-width:1;"/><path d="M518,358.5 L518,383.5 L625,383.5 L625,368.5 L615,358.5 L518,358.5 " fill="#FEFFDD" style="stroke:#181818;stroke-width:0.5;"/><path d="M615,358.5 L615,368.5 L625,368.5 L615,358.5 " fill="#FEFFDD" style="stroke:#181818;stroke-width:0.5;"/><text fill="#000000" font-family="sans-serif" font-size="13" lengthAdjust="spacing" textLength="86.29" x="524" y="375.5669">Buscar grado</text></g><!--link BUSCANDO_GRADO to MENU_PRINCIPAL--><g id="link_BUSCANDO_GRADO_MENU_PRINCIPAL"><path d="M626.96,425.8 C638.58,401.02 660.32,363.69 692,346 C749.61,313.82 1182.5523,298.7463 1356.4123,293.9263 " fill="none" id="BUSCANDO_GRADO-to-MENU_PRINCIPAL" style="stroke:#181818;stroke-width:1;"/><polygon fill="#181818" points="1362.41,293.76,1353.3026,290.011,1357.4119,293.8986,1353.5243,298.0079,1362.41,293.76" style="stroke:#181818;stroke-width:1;"/><path d="M697,358.5 L697,383.5 L781,383.5 L781,368.5 L771,358.5 L697,358.5 " fill="#FEFFDD" style="stroke:#181818;stroke-width:0.5;"/><path d="M771,358.5 L771,368.5 L781,368.5 L771,358.5 " fill="#FEFFDD" style="stroke:#181818;stroke-width:0.5;"/><text fill="#000000" font-family="sans-serif" font-size="13" lengthAdjust="spacing" textLength="63.5083" x="703" y="375.5669">Ver menu</text></g><!--link MENU_PRINCIPAL to CONSULTANDO_HORARIO_PROFESOR--><g id="link_MENU_PRINCIPAL_CONSULTANDO_HORARIO_PROFESOR"><path d="M1362.37,292.81 C1205.94,295.33 841.15,305.53 804,346 C788.97,362.37 791.18,377.85 804,396 C812.96,408.7 819.9243,415.5539 833.5643,423.0039 " fill="none" id="MENU_PRINCIPAL-to-CONSULTANDO_HORARIO_PROFESOR" style="stroke:#181818;stroke-width:1;"/><polygon fill="#181818" points="838.83,425.88,832.8488,418.0554,834.4419,423.4833,829.014,425.0764,838.83,425.88" style="stroke:#181818;stroke-width:1;"/><path d="M809,351 L809,391 L934,391 L934,361 L924,351 L809,351 " fill="#FEFFDD" style="stroke:#181818;stroke-width:0.5;"/><path d="M924,351 L924,361 L934,361 L924,351 " fill="#FEFFDD" style="stroke:#181818;stroke-width:0.5;"/><text fill="#000000" font-family="sans-serif" font-size="13" lengthAdjust="spacing" textLength="62.3022" x="815" y="368.0669">Consultar</text><text fill="#000000" font-family="sans-serif" font-size="13" lengthAdjust="spacing" textLength="104.7427" x="815" y="383.1997">horario profesor</text></g><!--link CONSULTANDO_HORARIO_PROFESOR to MENU_PRINCIPAL--><g id="link_CONSULTANDO_HORARIO_PROFESOR_MENU_PRINCIPAL"><path d="M959.43,425.96 C964.25,401.69 975.5,365.12 1001,346 C1056.56,304.34 1248.9312,294.7794 1356.4712,292.6394 " fill="none" id="CONSULTANDO_HORARIO_PROFESOR-to-MENU_PRINCIPAL" style="stroke:#181818;stroke-width:1;"/><polygon fill="#181818" points="1362.47,292.52,1353.3922,288.6999,1357.471,292.6195,1353.5514,296.6983,1362.47,292.52" style="stroke:#181818;stroke-width:1;"/><path d="M1006,358.5 L1006,383.5 L1090,383.5 L1090,368.5 L1080,358.5 L1006,358.5 " fill="#FEFFDD" style="stroke:#181818;stroke-width:0.5;"/><path d="M1080,358.5 L1080,368.5 L1090,368.5 L1080,358.5 " fill="#FEFFDD" style="stroke:#181818;stroke-width:0.5;"/><text fill="#000000" font-family="sans-serif" font-size="13" lengthAdjust="spacing" textLength="63.5083" x="1012" y="375.5669">Ver menu</text></g><!--link MENU_PRINCIPAL to EDITANDO_ASIGNACION--><g id="link_MENU_PRINCIPAL_EDITANDO_ASIGNACION"><path d="M1362.35,293.67 C1277.98,297.34 1144.28,309 1113,346 C1098.65,362.97 1100.11,377.9 1113,396 C1127.46,416.31 1144.4261,427.1281 1168.0261,435.1081 " fill="none" id="MENU_PRINCIPAL-to-EDITANDO_ASIGNACION" style="stroke:#181818;stroke-width:1;"/><polygon fill="#181818" points="1173.71,437.03,1166.4655,430.3579,1168.9735,435.4284,1163.9029,437.9364,1173.71,437.03" style="stroke:#181818;stroke-width:1;"/><path d="M1118,358.5 L1118,383.5 L1251,383.5 L1251,368.5 L1241,358.5 L1118,358.5 " fill="#FEFFDD" style="stroke:#181818;stroke-width:0.5;"/><path d="M1241,358.5 L1241,368.5 L1251,368.5 L1241,358.5 " fill="#FEFFDD" style="stroke:#181818;stroke-width:0.5;"/><text fill="#000000" font-family="sans-serif" font-size="13" lengthAdjust="spacing" textLength="112.3789" x="1124" y="375.5669">Editar asignaci&#243;n</text></g><!--link EDITANDO_ASIGNACION to MENU_PRINCIPAL--><g id="link_EDITANDO_ASIGNACION_MENU_PRINCIPAL"><path d="M1275.5,425.76 C1282.77,402.7 1296.55,368.32 1319,346 C1331.35,333.72 1341.6385,326.5232 1357.3785,318.7632 " fill="none" id="EDITANDO_ASIGNACION-to-MENU_PRINCIPAL" style="stroke:#181818;stroke-width:1;"/><polygon fill="#181818" points="1362.76,316.11,1352.9189,316.502,1358.2754,318.321,1356.4565,323.6774,1362.76,316.11" style="stroke:#181818;stroke-width:1;"/><path d="M1324,358.5 L1324,383.5 L1408,383.5 L1408,368.5 L1398,358.5 L1324,358.5 " fill="#FEFFDD" style="stroke:#181818;stroke-width:0.5;"/><path d="M1398,358.5 L1398,368.5 L1408,368.5 L1398,358.5 " fill="#FEFFDD" style="stroke:#181818;stroke-width:0.5;"/><text fill="#000000" font-family="sans-serif" font-size="13" lengthAdjust="spacing" textLength="63.5083" x="1330" y="375.5669">Ver menu</text></g><!--link MENU_PRINCIPAL to MOSTRANDO_ASIGNATURAS--><g id="link_MENU_PRINCIPAL_MOSTRANDO_ASIGNATURAS"><path d="M1425.35,316.15 C1419.8,338.5 1415.51,371.83 1430,396 C1437.51,408.54 1443.8994,415.2258 1456.5094,422.8158 " fill="none" id="MENU_PRINCIPAL-to-MOSTRANDO_ASIGNATURAS" style="stroke:#181818;stroke-width:1;"/><polygon fill="#181818" points="1461.65,425.91,1456.0018,417.8417,1457.3661,423.3315,1451.8763,424.6958,1461.65,425.91" style="stroke:#181818;stroke-width:1;"/><path d="M1435,358.5 L1435,383.5 L1586,383.5 L1586,368.5 L1576,358.5 L1435,358.5 " fill="#FEFFDD" style="stroke:#181818;stroke-width:0.5;"/><path d="M1576,358.5 L1576,368.5 L1586,368.5 L1576,358.5 " fill="#FEFFDD" style="stroke:#181818;stroke-width:0.5;"/><text fill="#000000" font-family="sans-serif" font-size="13" lengthAdjust="spacing" textLength="130.0571" x="1441" y="375.5669">Mostrar asignaturas</text></g><!--link MOSTRANDO_ASIGNATURAS to MENU_PRINCIPAL--><g id="link_MOSTRANDO_ASIGNATURAS_MENU_PRINCIPAL"><path d="M1570.55,425.75 C1580.36,417.61 1589.61,407.6 1595,396 C1604.36,375.85 1607.99,364.03 1595,346 C1574.11,317.02 1542.8947,304.4794 1509.4547,298.1294 " fill="none" id="MOSTRANDO_ASIGNATURAS-to-MENU_PRINCIPAL" style="stroke:#181818;stroke-width:1;"/><polygon fill="#181818" points="1503.56,297.01,1511.6558,302.6188,1508.4722,297.9428,1513.1482,294.7593,1503.56,297.01" style="stroke:#181818;stroke-width:1;"/><path d="M1609,358.5 L1609,383.5 L1693,383.5 L1693,368.5 L1683,358.5 L1609,358.5 " fill="#FEFFDD" style="stroke:#181818;stroke-width:0.5;"/><path d="M1683,358.5 L1683,368.5 L1693,368.5 L1683,358.5 " fill="#FEFFDD" style="stroke:#181818;stroke-width:0.5;"/><text fill="#000000" font-family="sans-serif" font-size="13" lengthAdjust="spacing" textLength="63.5083" x="1615" y="375.5669">Ver menu</text></g><!--link MENU_PRINCIPAL to REGISTRANDO_ASIGNATURA--><g id="link_MENU_PRINCIPAL_REGISTRANDO_ASIGNATURA"><path d="M1503.78,293.66 C1561.6,297.8 1643.66,310.23 1706,346 C1739.66,365.32 1764.0682,396.4602 1779.9982,420.6302 " fill="none" id="MENU_PRINCIPAL-to-REGISTRANDO_ASIGNATURA" style="stroke:#181818;stroke-width:1;"/><polygon fill="#181818" points="1783.3,425.64,1781.6871,415.9241,1780.5485,421.4652,1775.0074,420.3266,1783.3,425.64" style="stroke:#181818;stroke-width:1;"/><path d="M1767,358.5 L1767,383.5 L1921,383.5 L1921,368.5 L1911,358.5 L1767,358.5 " fill="#FEFFDD" style="stroke:#181818;stroke-width:0.5;"/><path d="M1911,358.5 L1911,368.5 L1921,368.5 L1911,358.5 " fill="#FEFFDD" style="stroke:#181818;stroke-width:0.5;"/><text fill="#000000" font-family="sans-serif" font-size="13" lengthAdjust="spacing" textLength="133.0088" x="1773" y="375.5669">Registrar asignatura</text></g><!--link REGISTRANDO_ASIGNATURA to MENU_PRINCIPAL--><g id="link_REGISTRANDO_ASIGNATURA_MENU_PRINCIPAL"><path d="M1898.63,425.93 C1912.18,418.49 1924.37,408.75 1933,396 C1945.46,377.6 1947.85,362.54 1933,346 C1904.84,314.63 1640.605,300.1052 1509.565,294.7452 " fill="none" id="REGISTRANDO_ASIGNATURA-to-MENU_PRINCIPAL" style="stroke:#181818;stroke-width:1;"/><polygon fill="#181818" points="1503.57,294.5,1512.399,298.8645,1508.5658,294.7043,1512.726,290.8712,1503.57,294.5" style="stroke:#181818;stroke-width:1;"/><path d="M1949,358.5 L1949,383.5 L2033,383.5 L2033,368.5 L2023,358.5 L1949,358.5 " fill="#FEFFDD" style="stroke:#181818;stroke-width:0.5;"/><path d="M2023,358.5 L2023,368.5 L2033,368.5 L2023,358.5 " fill="#FEFFDD" style="stroke:#181818;stroke-width:0.5;"/><text fill="#000000" font-family="sans-serif" font-size="13" lengthAdjust="spacing" textLength="63.5083" x="1955" y="375.5669">Ver menu</text></g><!--link MENU_PRINCIPAL to VIENDO_DISPONIBILIDAD_AULAS--><g id="link_MENU_PRINCIPAL_VIENDO_DISPONIBILIDAD_AULAS"><path d="M1503.72,291.07 C1644.65,290.37 1954.78,294.89 2046,346 C2077.95,363.9 2097.7878,395.7831 2109.9078,420.4931 " fill="none" id="MENU_PRINCIPAL-to-VIENDO_DISPONIBILIDAD_AULAS" style="stroke:#181818;stroke-width:1;"/><polygon fill="#181818" points="2112.55,425.88,2112.1779,416.0382,2110.3482,421.3909,2104.9954,419.5611,2112.55,425.88" style="stroke:#181818;stroke-width:1;"/><path d="M2100,351 L2100,391 L2241,391 L2241,361 L2231,351 L2100,351 " fill="#FEFFDD" style="stroke:#181818;stroke-width:0.5;"/><path d="M2231,351 L2231,361 L2241,361 L2231,351 " fill="#FEFFDD" style="stroke:#181818;stroke-width:0.5;"/><text fill="#000000" font-family="sans-serif" font-size="13" lengthAdjust="spacing" textLength="116.6191" x="2106" y="368.0669">Ver disponibilidad</text><text fill="#000000" font-family="sans-serif" font-size="13" lengthAdjust="spacing" textLength="54.939" x="2106" y="383.1997">de aulas</text></g><!--link VIENDO_DISPONIBILIDAD_AULAS to MENU_PRINCIPAL--><g id="link_VIENDO_DISPONIBILIDAD_AULAS_MENU_PRINCIPAL"><path d="M2219.73,425.98 C2233.26,418.53 2245.45,408.78 2254,396 C2266.36,377.53 2269.19,362.22 2254,346 C2203.26,291.81 1699.5899,289.9808 1509.7499,291.2208 " fill="none" id="VIENDO_DISPONIBILIDAD_AULAS-to-MENU_PRINCIPAL" style="stroke:#181818;stroke-width:1;"/><polygon fill="#181818" points="1503.75,291.26,1512.7759,295.2011,1508.7499,291.2273,1512.7237,287.2013,1503.75,291.26" style="stroke:#181818;stroke-width:1;"/><path d="M2270,358.5 L2270,383.5 L2354,383.5 L2354,368.5 L2344,358.5 L2270,358.5 " fill="#FEFFDD" style="stroke:#181818;stroke-width:0.5;"/><path d="M2344,358.5 L2344,368.5 L2354,368.5 L2344,358.5 " fill="#FEFFDD" style="stroke:#181818;stroke-width:0.5;"/><text fill="#000000" font-family="sans-serif" font-size="13" lengthAdjust="spacing" textLength="63.5083" x="2276" y="375.5669">Ver menu</text></g><!--link MENU_PRINCIPAL to SELECCIONANDO_AULA_AUTOMATICAMENTE--><g id="link_MENU_PRINCIPAL_SELECCIONANDO_AULA_AUTOMATICAMENTE"><path d="M1503.67,293.12 C1707.9,296.79 2289.35,310.26 2367,346 C2386.34,354.9 2420.2517,393.2284 2443.4317,421.0784 " fill="none" id="MENU_PRINCIPAL-to-SELECCIONANDO_AULA_AUTOMATICAMENTE" style="stroke:#181818;stroke-width:1;"/><polygon fill="#181818" points="2447.27,425.69,2444.5869,416.2137,2444.0714,421.847,2438.4381,421.3314,2447.27,425.69" style="stroke:#181818;stroke-width:1;"/><path d="M2426,351 L2426,391 L2562,391 L2562,361 L2552,351 L2426,351 " fill="#FEFFDD" style="stroke:#181818;stroke-width:0.5;"/><path d="M2552,351 L2552,361 L2562,361 L2552,351 " fill="#FEFFDD" style="stroke:#181818;stroke-width:0.5;"/><text fill="#000000" font-family="sans-serif" font-size="13" lengthAdjust="spacing" textLength="107.1865" x="2432" y="368.0669">Seleccionar aula</text><text fill="#000000" font-family="sans-serif" font-size="13" lengthAdjust="spacing" textLength="115.7051" x="2432" y="383.1997">autom&#225;ticamente</text></g><!--link SELECCIONANDO_AULA_AUTOMATICAMENTE to MENU_PRINCIPAL--><g id="link_SELECCIONANDO_AULA_AUTOMATICAMENTE_MENU_PRINCIPAL"><path d="M2542.43,425.99 C2555.38,418.45 2567.18,408.66 2575,396 C2586.68,377.1 2590.34,362.08 2575,346 C2537.93,307.13 1752.7796,295.4466 1509.5296,292.7466 " fill="none" id="SELECCIONANDO_AULA_AUTOMATICAMENTE-to-MENU_PRINCIPAL" style="stroke:#181818;stroke-width:1;"/><polygon fill="#181818" points="1503.53,292.68,1512.485,296.7796,1508.5297,292.7355,1512.5738,288.7801,1503.53,292.68" style="stroke:#181818;stroke-width:1;"/><path d="M2590,358.5 L2590,383.5 L2674,383.5 L2674,368.5 L2664,358.5 L2590,358.5 " fill="#FEFFDD" style="stroke:#181818;stroke-width:0.5;"/><path d="M2664,358.5 L2664,368.5 L2674,368.5 L2664,358.5 " fill="#FEFFDD" style="stroke:#181818;stroke-width:0.5;"/><text fill="#000000" font-family="sans-serif" font-size="13" lengthAdjust="spacing" textLength="63.5083" x="2596" y="375.5669">Ver menu</text></g><!--link MENU_PRINCIPAL to *end*--><g id="link_MENU_PRINCIPAL_*end*"><path d="M1503.75,292.74 C1761.93,295.73 2640.77,308.62 2687,346 C2715.72,369.22 2716.5309,412.7509 2715.2509,433.9909 " fill="none" id="MENU_PRINCIPAL-to-*end*" style="stroke:#181818;stroke-width:1;"/><polygon fill="#181818" points="2714.89,439.98,2719.4241,431.2369,2715.1908,434.9891,2711.4386,430.7557,2714.89,439.98" style="stroke:#181818;stroke-width:1;"/></g><!--SRC=[jPH1JeGm58RtdA9h4wzWqe4wleIXanPcOyoaGXqRiJKj7CWpU0GlPkaO5GOO5qCNB9ho_V_xN_lkhnxGzVKDWWnYm5b2zvnme5c4_DAcaSXeL2lz4ZQw1LgLIbZaf5EV7phiIrs5mz4G4zWRaXNxBOCiXYrEfyaxQT6hr6qVsVyx04aAQo2TofhXX4uJIIqFogA35PNfKmU8WDrvZI8DxZ67TORpWk7z7MMOmOp8JkcohNqYmgc35arhHLzhbdkfWiwBNBmDHvrESSleBU6KJKDnoCQYDskUf3Es3pybNS3ncELLmMFyZvnNhIl5QCvH7x6GpvXcl4ZpeFFTmt-471ljshhnnd-sdeqLLfc9tACvdOLA8mdaVwvfF3jiIAMQdvTLdiwRQ8Isp6NVK9wpmVFYqzoDSOtjpGGtZ6OCk8ntHjPmAZODPdx83EqFt8yZ5xeok-DiJ81lQGOhI271oHxxSSVdyPLoRqQhHrMhIbI_hwAIIFYHFMp9ZCuoZU4a9N5tPuyvUY7_oUa6vn1ZVpudqo9Srh8ibUccQbVCRtMYRSphvtkZIk5TUEMUZVEQozHwV_Nm1G00]--></g></svg>