<svg xmlns="http://www.w3.org/2000/svg" xmlns:xlink="http://www.w3.org/1999/xlink" contentStyleType="text/css" data-diagram-type="STATE" height="482px" preserveAspectRatio="none" style="width:2580px;height:482px;background:#FFFFFF;" version="1.1" viewBox="0 0 2580 482" width="2580px" zoomAndPan="magnify"><defs/><g><ellipse cx="1263.37" cy="16" fill="#222222" rx="10" ry="10" style="stroke:#222222;stroke-width:1;"/><g id="INICIANDO_SESION"><rect fill="#F1F1F1" height="50" rx="12.5" ry="12.5" style="stroke:#181818;stroke-width:0.5;" width="153.7246" x="1186.5" y="121"/><line style="stroke:#181818;stroke-width:0.5;" x1="1186.5" x2="1340.2246" y1="147.2969" y2="147.2969"/><text fill="#000000" font-family="sans-serif" font-size="14" lengthAdjust="spacing" textLength="133.7246" x="1196.5" y="138.9951">INICIANDO_SESION</text></g><g id="MENU_PRINCIPAL"><rect fill="#F1F1F1" height="50" rx="12.5" ry="12.5" style="stroke:#181818;stroke-width:0.5;" width="141.1396" x="1192.8" y="266"/><line style="stroke:#181818;stroke-width:0.5;" x1="1192.8" x2="1333.9396" y1="292.2969" y2="292.2969"/><text fill="#000000" font-family="sans-serif" font-size="14" lengthAdjust="spacing" textLength="121.1396" x="1202.8" y="283.9951">MENU_PRINCIPAL</text></g><g id="ASIGNANDO_ASIGNATURA"><rect fill="#F1F1F1" height="50" rx="12.5" ry="12.5" style="stroke:#181818;stroke-width:0.5;" width="204.3584" x="21.19" y="426"/><line style="stroke:#181818;stroke-width:0.5;" x1="21.19" x2="225.5484" y1="452.2969" y2="452.2969"/><text fill="#000000" font-family="sans-serif" font-size="14" lengthAdjust="spacing" textLength="184.3584" x="31.19" y="443.9951">ASIGNANDO_ASIGNATURA</text></g><g id="ASIGNANDO_PROFESOR"><rect fill="#F1F1F1" height="50" rx="12.5" ry="12.5" style="stroke:#181818;stroke-width:0.5;" width="188.4854" x="308.12" y="426"/><line style="stroke:#181818;stroke-width:0.5;" x1="308.12" x2="496.6054" y1="452.2969" y2="452.2969"/><text fill="#000000" font-family="sans-serif" font-size="14" lengthAdjust="spacing" textLength="168.4854" x="318.12" y="443.9951">ASIGNANDO_PROFESOR</text></g><g id="BUSCANDO_GRADO"><rect fill="#F1F1F1" height="50" rx="12.5" ry="12.5" style="stroke:#181818;stroke-width:0.5;" width="159.3164" x="600.71" y="426"/><line style="stroke:#181818;stroke-width:0.5;" x1="600.71" x2="760.0264" y1="452.2969" y2="452.2969"/><text fill="#000000" font-family="sans-serif" font-size="14" lengthAdjust="spacing" textLength="139.3164" x="610.71" y="443.9951">BUSCANDO_GRADO</text></g><g id="CONSULTANDO_HORARIO_PROFESOR"><rect fill="#F1F1F1" height="50" rx="12.5" ry="12.5" style="stroke:#181818;stroke-width:0.5;" width="284.0518" x="830.34" y="426"/><line style="stroke:#181818;stroke-width:0.5;" x1="830.34" x2="1114.3918" y1="452.2969" y2="452.2969"/><text fill="#000000" font-family="sans-serif" font-size="14" lengthAdjust="spacing" textLength="264.0518" x="840.34" y="443.9951">CONSULTANDO_HORARIO_PROFESOR</text></g><g id="EDITANDO_ASIGNACION"><rect fill="#F1F1F1" height="50" rx="12.5" ry="12.5" style="stroke:#181818;stroke-width:0.5;" width="190.0439" x="1206.34" y="426"/><line style="stroke:#181818;stroke-width:0.5;" x1="1206.34" x2="1396.3839" y1="452.2969" y2="452.2969"/><text fill="#000000" font-family="sans-serif" font-size="14" lengthAdjust="spacing" textLength="170.0439" x="1216.34" y="443.9951">EDITANDO_ASIGNACION</text></g><g id="MOSTRANDO_ASIGNATURAS"><rect fill="#F1F1F1" height="50" rx="12.5" ry="12.5" style="stroke:#181818;stroke-width:0.5;" width="219.5957" x="1510.57" y="426"/><line style="stroke:#181818;stroke-width:0.5;" x1="1510.57" x2="1730.1657" y1="452.2969" y2="452.2969"/><text fill="#000000" font-family="sans-serif" font-size="14" lengthAdjust="spacing" textLength="199.5957" x="1520.57" y="443.9951">MOSTRANDO_ASIGNATURAS</text></g><g id="REGISTRANDO_ASIGNATURA"><rect fill="#F1F1F1" height="50" rx="12.5" ry="12.5" style="stroke:#181818;stroke-width:0.5;" width="221.1611" x="1838.79" y="426"/><line style="stroke:#181818;stroke-width:0.5;" x1="1838.79" x2="2059.9511" y1="452.2969" y2="452.2969"/><text fill="#000000" font-family="sans-serif" font-size="14" lengthAdjust="spacing" textLength="201.1611" x="1848.79" y="443.9951">REGISTRANDO_ASIGNATURA</text></g><g id="VIENDO_DISPONIBILIDAD_AULAS"><rect fill="#F1F1F1" height="50" rx="12.5" ry="12.5" style="stroke:#181818;stroke-width:0.5;" width="249.5713" x="2196.58" y="426"/><line style="stroke:#181818;stroke-width:0.5;" x1="2196.58" x2="2446.1513" y1="452.2969" y2="452.2969"/><text fill="#000000" font-family="sans-serif" font-size="14" lengthAdjust="spacing" textLength="229.5713" x="2206.58" y="443.9951">VIENDO_DISPONIBILIDAD_AULAS</text></g><ellipse cx="2561.37" cy="451" fill="none" rx="11" ry="11" style="stroke:#222222;stroke-width:1;"/><ellipse cx="2561.37" cy="451" fill="#222222" rx="6" ry="6" style="stroke:#222222;stroke-width:1;"/><!--link *start* to INICIANDO_SESION--><g id="link_*start*_INICIANDO_SESION"><path d="M1263.37,26.21 C1263.37,45.75 1263.37,85.96 1263.37,114.64 " fill="none" id="*start*-to-INICIANDO_SESION" style="stroke:#181818;stroke-width:1;"/><polygon fill="#181818" points="1263.37,120.64,1267.37,111.64,1263.37,115.64,1259.37,111.64,1263.37,120.64" style="stroke:#181818;stroke-width:1;"/><path d="M1268.37,61 L1268.37,86 L1374.37,86 L1374.37,71 L1364.37,61 L1268.37,61 " fill="#FEFFDD" style="stroke:#181818;stroke-width:0.5;"/><path d="M1364.37,61 L1364.37,71 L1374.37,71 L1364.37,61 " fill="#FEFFDD" style="stroke:#181818;stroke-width:0.5;"/><text fill="#000000" font-family="sans-serif" font-size="13" lengthAdjust="spacing" textLength="85.2363" x="1274.37" y="78.0669">Iniciar sesi&#243;n</text></g><!--link INICIANDO_SESION to MENU_PRINCIPAL--><g id="link_INICIANDO_SESION_MENU_PRINCIPAL"><path d="M1263.37,171.26 C1263.37,197.55 1263.37,233.28 1263.37,259.62 " fill="none" id="INICIANDO_SESION-to-MENU_PRINCIPAL" style="stroke:#181818;stroke-width:1;"/><polygon fill="#181818" points="1263.37,265.62,1267.37,256.62,1263.37,260.62,1259.37,256.62,1263.37,265.62" style="stroke:#181818;stroke-width:1;"/><path d="M1268.37,206 L1268.37,231 L1352.37,231 L1352.37,216 L1342.37,206 L1268.37,206 " fill="#FEFFDD" style="stroke:#181818;stroke-width:0.5;"/><path d="M1342.37,206 L1342.37,216 L1352.37,216 L1342.37,206 " fill="#FEFFDD" style="stroke:#181818;stroke-width:0.5;"/><text fill="#000000" font-family="sans-serif" font-size="13" lengthAdjust="spacing" textLength="63.5083" x="1274.37" y="223.0669">Ver menu</text></g><!--link MENU_PRINCIPAL to ASIGNANDO_ASIGNATURA--><g id="link_MENU_PRINCIPAL_ASIGNANDO_ASIGNATURA"><path d="M1192.52,292.41 C935.09,294.22 62.06,303.49 21.37,346 C6,362.05 9.9,376.96 21.37,396 C28.81,408.36 34.9982,414.9312 47.4282,422.4612 " fill="none" id="MENU_PRINCIPAL-to-ASIGNANDO_ASIGNATURA" style="stroke:#181818;stroke-width:1;"/><polygon fill="#181818" points="52.56,425.57,46.9348,417.4856,48.2835,422.9793,42.7898,424.328,52.56,425.57" style="stroke:#181818;stroke-width:1;"/><path d="M26.37,358.5 L26.37,383.5 L169.37,383.5 L169.37,368.5 L159.37,358.5 L26.37,358.5 " fill="#FEFFDD" style="stroke:#181818;stroke-width:0.5;"/><path d="M159.37,358.5 L159.37,368.5 L169.37,368.5 L159.37,358.5 " fill="#FEFFDD" style="stroke:#181818;stroke-width:0.5;"/><text fill="#000000" font-family="sans-serif" font-size="13" lengthAdjust="spacing" textLength="122.6685" x="32.37" y="375.5669">Asignar asignatura</text></g><!--link ASIGNANDO_ASIGNATURA to MENU_PRINCIPAL--><g id="link_ASIGNANDO_ASIGNATURA_MENU_PRINCIPAL"><path d="M148.17,425.7 C178.37,396.39 226.68,350.47 237.37,346 C324.84,309.42 968.7807,296.4429 1186.5207,293.0729 " fill="none" id="ASIGNANDO_ASIGNATURA-to-MENU_PRINCIPAL" style="stroke:#181818;stroke-width:1;"/><polygon fill="#181818" points="1192.52,292.98,1183.4592,289.1198,1187.5206,293.0574,1183.583,297.1188,1192.52,292.98" style="stroke:#181818;stroke-width:1;"/><path d="M242.37,358.5 L242.37,383.5 L326.37,383.5 L326.37,368.5 L316.37,358.5 L242.37,358.5 " fill="#FEFFDD" style="stroke:#181818;stroke-width:0.5;"/><path d="M316.37,358.5 L316.37,368.5 L326.37,368.5 L316.37,358.5 " fill="#FEFFDD" style="stroke:#181818;stroke-width:0.5;"/><text fill="#000000" font-family="sans-serif" font-size="13" lengthAdjust="spacing" textLength="63.5083" x="248.37" y="375.5669">Ver menu</text></g><!--link MENU_PRINCIPAL to ASIGNANDO_PROFESOR--><g id="link_MENU_PRINCIPAL_ASIGNANDO_PROFESOR"><path d="M1192.65,293.55 C982.94,298.5 377.22,315.39 348.37,346 C333.12,362.17 339.86,375.47 348.37,396 C352.98,407.15 356.8277,413.0181 365.4277,421.3381 " fill="none" id="MENU_PRINCIPAL-to-ASIGNANDO_PROFESOR" style="stroke:#181818;stroke-width:1;"/><polygon fill="#181818" points="369.74,425.51,366.0529,416.3774,366.1465,422.0334,360.4904,422.127,369.74,425.51" style="stroke:#181818;stroke-width:1;"/><path d="M353.37,358.5 L353.37,383.5 L481.37,383.5 L481.37,368.5 L471.37,358.5 L353.37,358.5 " fill="#FEFFDD" style="stroke:#181818;stroke-width:0.5;"/><path d="M471.37,358.5 L471.37,368.5 L481.37,368.5 L471.37,358.5 " fill="#FEFFDD" style="stroke:#181818;stroke-width:0.5;"/><text fill="#000000" font-family="sans-serif" font-size="13" lengthAdjust="spacing" textLength="107.4087" x="359.37" y="375.5669">Asignar profesor</text></g><!--link ASIGNANDO_PROFESOR to MENU_PRINCIPAL--><g id="link_ASIGNANDO_PROFESOR_MENU_PRINCIPAL"><path d="M445.34,425.52 C459.96,416.7 476.18,406.36 490.37,396 C517.85,375.92 516.93,359.05 548.37,346 C663.41,298.25 1029.53,292.1749 1186.49,291.7849 " fill="none" id="ASIGNANDO_PROFESOR-to-MENU_PRINCIPAL" style="stroke:#181818;stroke-width:1;"/><polygon fill="#181818" points="1192.49,291.77,1183.4801,287.7924,1187.49,291.7824,1183.5,295.7923,1192.49,291.77" style="stroke:#181818;stroke-width:1;"/><path d="M553.37,358.5 L553.37,383.5 L637.37,383.5 L637.37,368.5 L627.37,358.5 L553.37,358.5 " fill="#FEFFDD" style="stroke:#181818;stroke-width:0.5;"/><path d="M627.37,358.5 L627.37,368.5 L637.37,368.5 L627.37,358.5 " fill="#FEFFDD" style="stroke:#181818;stroke-width:0.5;"/><text fill="#000000" font-family="sans-serif" font-size="13" lengthAdjust="spacing" textLength="63.5083" x="559.37" y="375.5669">Ver menu</text></g><!--link MENU_PRINCIPAL to BUSCANDO_GRADO--><g id="link_MENU_PRINCIPAL_BUSCANDO_GRADO"><path d="M1192.53,293.09 C1040.88,296.17 695.68,307.39 660.37,346 C640.64,367.57 650.3327,397.162 662.6327,420.502 " fill="none" id="MENU_PRINCIPAL-to-BUSCANDO_GRADO" style="stroke:#181818;stroke-width:1;"/><polygon fill="#181818" points="665.43,425.81,664.7728,415.9831,663.0989,421.3866,657.6954,419.7128,665.43,425.81" style="stroke:#181818;stroke-width:1;"/><path d="M665.37,358.5 L665.37,383.5 L772.37,383.5 L772.37,368.5 L762.37,358.5 L665.37,358.5 " fill="#FEFFDD" style="stroke:#181818;stroke-width:0.5;"/><path d="M762.37,358.5 L762.37,368.5 L772.37,368.5 L762.37,358.5 " fill="#FEFFDD" style="stroke:#181818;stroke-width:0.5;"/><text fill="#000000" font-family="sans-serif" font-size="13" lengthAdjust="spacing" textLength="86.29" x="671.37" y="375.5669">Buscar grado</text></g><!--link BUSCANDO_GRADO to MENU_PRINCIPAL--><g id="link_BUSCANDO_GRADO_MENU_PRINCIPAL"><path d="M731.17,425.53 C747.62,416.9 765.66,406.67 781.37,396 C809.79,376.68 808.91,359.86 840.37,346 C901.85,318.91 1082.7933,303.4893 1186.3833,296.5793 " fill="none" id="BUSCANDO_GRADO-to-MENU_PRINCIPAL" style="stroke:#181818;stroke-width:1;"/><polygon fill="#181818" points="1192.37,296.18,1183.1237,292.7879,1187.3811,296.5128,1183.6562,300.7701,1192.37,296.18" style="stroke:#181818;stroke-width:1;"/><path d="M845.37,358.5 L845.37,383.5 L929.37,383.5 L929.37,368.5 L919.37,358.5 L845.37,358.5 " fill="#FEFFDD" style="stroke:#181818;stroke-width:0.5;"/><path d="M919.37,358.5 L919.37,368.5 L929.37,368.5 L919.37,358.5 " fill="#FEFFDD" style="stroke:#181818;stroke-width:0.5;"/><text fill="#000000" font-family="sans-serif" font-size="13" lengthAdjust="spacing" textLength="63.5083" x="851.37" y="375.5669">Ver menu</text></g><!--link MENU_PRINCIPAL to CONSULTANDO_HORARIO_PROFESOR--><g id="link_MENU_PRINCIPAL_CONSULTANDO_HORARIO_PROFESOR"><path d="M1192.31,294.05 C1109.92,298.1 981.55,310.15 951.37,346 C932.62,368.27 942.2107,397.3583 954.4407,420.4383 " fill="none" id="MENU_PRINCIPAL-to-CONSULTANDO_HORARIO_PROFESOR" style="stroke:#181818;stroke-width:1;"/><polygon fill="#181818" points="957.25,425.74,956.5704,415.9146,954.9089,421.3219,949.5016,419.6604,957.25,425.74" style="stroke:#181818;stroke-width:1;"/><path d="M956.37,351 L956.37,391 L1081.37,391 L1081.37,361 L1071.37,351 L956.37,351 " fill="#FEFFDD" style="stroke:#181818;stroke-width:0.5;"/><path d="M1071.37,351 L1071.37,361 L1081.37,361 L1071.37,351 " fill="#FEFFDD" style="stroke:#181818;stroke-width:0.5;"/><text fill="#000000" font-family="sans-serif" font-size="13" lengthAdjust="spacing" textLength="62.3022" x="962.37" y="368.0669">Consultar</text><text fill="#000000" font-family="sans-serif" font-size="13" lengthAdjust="spacing" textLength="104.7427" x="962.37" y="383.1997">horario profesor</text></g><!--link CONSULTANDO_HORARIO_PROFESOR to MENU_PRINCIPAL--><g id="link_CONSULTANDO_HORARIO_PROFESOR_MENU_PRINCIPAL"><path d="M1033.24,425.52 C1052.05,417.07 1072.5,406.95 1090.37,396 C1120.84,377.32 1123.15,365.1 1153.37,346 C1170.45,335.2 1184.5928,327.5805 1202.4328,319.0005 " fill="none" id="CONSULTANDO_HORARIO_PROFESOR-to-MENU_PRINCIPAL" style="stroke:#181818;stroke-width:1;"/><polygon fill="#181818" points="1207.84,316.4,1197.9956,316.696,1203.334,318.5671,1201.463,323.9056,1207.84,316.4" style="stroke:#181818;stroke-width:1;"/><path d="M1158.37,358.5 L1158.37,383.5 L1242.37,383.5 L1242.37,368.5 L1232.37,358.5 L1158.37,358.5 " fill="#FEFFDD" style="stroke:#181818;stroke-width:0.5;"/><path d="M1232.37,358.5 L1232.37,368.5 L1242.37,368.5 L1232.37,358.5 " fill="#FEFFDD" style="stroke:#181818;stroke-width:0.5;"/><text fill="#000000" font-family="sans-serif" font-size="13" lengthAdjust="spacing" textLength="63.5083" x="1164.37" y="375.5669">Ver menu</text></g><!--link MENU_PRINCIPAL to EDITANDO_ASIGNACION--><g id="link_MENU_PRINCIPAL_EDITANDO_ASIGNACION"><path d="M1258.02,316.24 C1254.34,337.78 1251.55,369.81 1260.37,396 C1263.97,406.71 1266.8945,412.2927 1273.8145,420.9527 " fill="none" id="MENU_PRINCIPAL-to-EDITANDO_ASIGNACION" style="stroke:#181818;stroke-width:1;"/><polygon fill="#181818" points="1277.56,425.64,1275.0666,416.112,1274.4387,421.7339,1268.8168,421.106,1277.56,425.64" style="stroke:#181818;stroke-width:1;"/><path d="M1265.37,358.5 L1265.37,383.5 L1398.37,383.5 L1398.37,368.5 L1388.37,358.5 L1265.37,358.5 " fill="#FEFFDD" style="stroke:#181818;stroke-width:0.5;"/><path d="M1388.37,358.5 L1388.37,368.5 L1398.37,368.5 L1388.37,358.5 " fill="#FEFFDD" style="stroke:#181818;stroke-width:0.5;"/><text fill="#000000" font-family="sans-serif" font-size="13" lengthAdjust="spacing" textLength="112.3789" x="1271.37" y="375.5669">Editar asignaci&#243;n</text></g><!--link EDITANDO_ASIGNACION to MENU_PRINCIPAL--><g id="link_EDITANDO_ASIGNACION_MENU_PRINCIPAL"><path d="M1375.69,425.59 C1388.3,418.09 1399.76,408.41 1407.37,396 C1418.98,377.05 1420.02,364.27 1407.37,346 C1390.64,321.86 1367.4949,310.0554 1339.9249,302.6554 " fill="none" id="EDITANDO_ASIGNACION-to-MENU_PRINCIPAL" style="stroke:#181818;stroke-width:1;"/><polygon fill="#181818" points="1334.13,301.1,1341.7854,307.2963,1338.9591,302.3962,1343.8593,299.5698,1334.13,301.1" style="stroke:#181818;stroke-width:1;"/><path d="M1422.37,358.5 L1422.37,383.5 L1506.37,383.5 L1506.37,368.5 L1496.37,358.5 L1422.37,358.5 " fill="#FEFFDD" style="stroke:#181818;stroke-width:0.5;"/><path d="M1496.37,358.5 L1496.37,368.5 L1506.37,368.5 L1496.37,358.5 " fill="#FEFFDD" style="stroke:#181818;stroke-width:0.5;"/><text fill="#000000" font-family="sans-serif" font-size="13" lengthAdjust="spacing" textLength="63.5083" x="1428.37" y="375.5669">Ver menu</text></g><!--link MENU_PRINCIPAL to MOSTRANDO_ASIGNATURAS--><g id="link_MENU_PRINCIPAL_MOSTRANDO_ASIGNATURAS"><path d="M1334.32,295.8 C1387.99,301.23 1461.99,314.36 1519.37,346 C1537.99,356.27 1572.1131,393.7636 1595.8231,421.1536 " fill="none" id="MENU_PRINCIPAL-to-MOSTRANDO_ASIGNATURAS" style="stroke:#181818;stroke-width:1;"/><polygon fill="#181818" points="1599.75,425.69,1596.8839,416.2674,1596.4776,421.9096,1590.8353,421.5033,1599.75,425.69" style="stroke:#181818;stroke-width:1;"/><path d="M1578.37,358.5 L1578.37,383.5 L1729.37,383.5 L1729.37,368.5 L1719.37,358.5 L1578.37,358.5 " fill="#FEFFDD" style="stroke:#181818;stroke-width:0.5;"/><path d="M1719.37,358.5 L1719.37,368.5 L1729.37,368.5 L1719.37,358.5 " fill="#FEFFDD" style="stroke:#181818;stroke-width:0.5;"/><text fill="#000000" font-family="sans-serif" font-size="13" lengthAdjust="spacing" textLength="130.0571" x="1584.37" y="375.5669">Mostrar asignaturas</text></g><!--link MOSTRANDO_ASIGNATURAS to MENU_PRINCIPAL--><g id="link_MOSTRANDO_ASIGNATURAS_MENU_PRINCIPAL"><path d="M1709.35,425.58 C1722.43,418.16 1734.22,408.52 1742.37,396 C1754.49,377.38 1757.17,362.57 1742.37,346 C1715.67,316.13 1466.8736,301.0072 1340.1736,295.1472 " fill="none" id="MOSTRANDO_ASIGNATURAS-to-MENU_PRINCIPAL" style="stroke:#181818;stroke-width:1;"/><polygon fill="#181818" points="1334.18,294.87,1342.9856,299.2815,1339.1747,295.101,1343.3552,291.2901,1334.18,294.87" style="stroke:#181818;stroke-width:1;"/><path d="M1758.37,358.5 L1758.37,383.5 L1842.37,383.5 L1842.37,368.5 L1832.37,358.5 L1758.37,358.5 " fill="#FEFFDD" style="stroke:#181818;stroke-width:0.5;"/><path d="M1832.37,358.5 L1832.37,368.5 L1842.37,368.5 L1832.37,358.5 " fill="#FEFFDD" style="stroke:#181818;stroke-width:0.5;"/><text fill="#000000" font-family="sans-serif" font-size="13" lengthAdjust="spacing" textLength="63.5083" x="1764.37" y="375.5669">Ver menu</text></g><!--link MENU_PRINCIPAL to REGISTRANDO_ASIGNATURA--><g id="link_MENU_PRINCIPAL_REGISTRANDO_ASIGNATURA"><path d="M1334.43,292.09 C1471.26,293.29 1765.7,301.19 1855.37,346 C1873.87,355.25 1905.5553,393.3425 1927.2353,421.0825 " fill="none" id="MENU_PRINCIPAL-to-REGISTRANDO_ASIGNATURA" style="stroke:#181818;stroke-width:1;"/><polygon fill="#181818" points="1930.93,425.81,1928.5396,416.2556,1927.8511,421.8704,1922.2363,421.1819,1930.93,425.81" style="stroke:#181818;stroke-width:1;"/><path d="M1911.37,358.5 L1911.37,383.5 L2065.37,383.5 L2065.37,368.5 L2055.37,358.5 L1911.37,358.5 " fill="#FEFFDD" style="stroke:#181818;stroke-width:0.5;"/><path d="M2055.37,358.5 L2055.37,368.5 L2065.37,368.5 L2055.37,358.5 " fill="#FEFFDD" style="stroke:#181818;stroke-width:0.5;"/><text fill="#000000" font-family="sans-serif" font-size="13" lengthAdjust="spacing" textLength="133.0088" x="1917.37" y="375.5669">Registrar asignatura</text></g><!--link REGISTRANDO_ASIGNATURA to MENU_PRINCIPAL--><g id="link_REGISTRANDO_ASIGNATURA_MENU_PRINCIPAL"><path d="M2044.96,425.56 C2058.16,418.16 2070.03,408.53 2078.37,396 C2090.68,377.5 2093.55,362.22 2078.37,346 C2028.07,292.26 1529.2699,290.1341 1340.2799,291.2641 " fill="none" id="REGISTRANDO_ASIGNATURA-to-MENU_PRINCIPAL" style="stroke:#181818;stroke-width:1;"/><polygon fill="#181818" points="1334.28,291.3,1343.3038,295.2461,1339.2799,291.2701,1343.2559,287.2463,1334.28,291.3" style="stroke:#181818;stroke-width:1;"/><path d="M2094.37,358.5 L2094.37,383.5 L2178.37,383.5 L2178.37,368.5 L2168.37,358.5 L2094.37,358.5 " fill="#FEFFDD" style="stroke:#181818;stroke-width:0.5;"/><path d="M2168.37,358.5 L2168.37,368.5 L2178.37,368.5 L2168.37,358.5 " fill="#FEFFDD" style="stroke:#181818;stroke-width:0.5;"/><text fill="#000000" font-family="sans-serif" font-size="13" lengthAdjust="spacing" textLength="63.5083" x="2100.37" y="375.5669">Ver menu</text></g><!--link MENU_PRINCIPAL to VIENDO_DISPONIBILIDAD_AULAS--><g id="link_MENU_PRINCIPAL_VIENDO_DISPONIBILIDAD_AULAS"><path d="M1334.14,293.54 C1537.27,298.31 2112.61,314.49 2191.37,346 C2223.28,358.77 2223.57,374.48 2250.37,396 C2262.68,405.89 2271.6614,412.8548 2283.7814,422.0048 " fill="none" id="MENU_PRINCIPAL-to-VIENDO_DISPONIBILIDAD_AULAS" style="stroke:#181818;stroke-width:1;"/><polygon fill="#181818" points="2288.57,425.62,2283.7972,417.0049,2284.5795,422.6074,2278.977,423.3897,2288.57,425.62" style="stroke:#181818;stroke-width:1;"/><path d="M2255.37,351 L2255.37,391 L2396.37,391 L2396.37,361 L2386.37,351 L2255.37,351 " fill="#FEFFDD" style="stroke:#181818;stroke-width:0.5;"/><path d="M2386.37,351 L2386.37,361 L2396.37,361 L2386.37,351 " fill="#FEFFDD" style="stroke:#181818;stroke-width:0.5;"/><text fill="#000000" font-family="sans-serif" font-size="13" lengthAdjust="spacing" textLength="116.6191" x="2261.37" y="368.0669">Ver disponibilidad</text><text fill="#000000" font-family="sans-serif" font-size="13" lengthAdjust="spacing" textLength="54.939" x="2261.37" y="383.1997">de aulas</text></g><!--link VIENDO_DISPONIBILIDAD_AULAS to MENU_PRINCIPAL--><g id="link_VIENDO_DISPONIBILIDAD_AULAS_MENU_PRINCIPAL"><path d="M2376.46,425.79 C2388.02,418.01 2398.72,408.17 2405.37,396 C2416.01,376.5 2420.7,362.08 2405.37,346 C2368.31,307.15 1584.0596,295.4667 1340.3096,292.7567 " fill="none" id="VIENDO_DISPONIBILIDAD_AULAS-to-MENU_PRINCIPAL" style="stroke:#181818;stroke-width:1;"/><polygon fill="#181818" points="1334.31,292.69,1343.265,296.7898,1339.3097,292.7456,1343.3539,288.7903,1334.31,292.69" style="stroke:#181818;stroke-width:1;"/><path d="M2419.37,358.5 L2419.37,383.5 L2503.37,383.5 L2503.37,368.5 L2493.37,358.5 L2419.37,358.5 " fill="#FEFFDD" style="stroke:#181818;stroke-width:0.5;"/><path d="M2493.37,358.5 L2493.37,368.5 L2503.37,368.5 L2493.37,358.5 " fill="#FEFFDD" style="stroke:#181818;stroke-width:0.5;"/><text fill="#000000" font-family="sans-serif" font-size="13" lengthAdjust="spacing" textLength="63.5083" x="2425.37" y="375.5669">Ver menu</text></g><!--link MENU_PRINCIPAL to *end*--><g id="link_MENU_PRINCIPAL_*end*"><path d="M1334.32,292.99 C1592.23,296.84 2467.46,312.34 2516.37,346 C2548.45,368.08 2557.115,412.2628 2559.705,433.8428 " fill="none" id="MENU_PRINCIPAL-to-*end*" style="stroke:#181818;stroke-width:1;"/><polygon fill="#181818" points="2560.42,439.8,2563.319,430.3875,2559.8242,434.8356,2555.376,431.3408,2560.42,439.8" style="stroke:#181818;stroke-width:1;"/></g><!--SRC=[jPFHReCW58RlVGgkc_GLbb1btKai6D3UD4tZAkl873IWJxP7s8lDigoRLjqk1ZUQ4_t-3pXdjzYZvV8E0OKOC4tOGH01Z4QeMzeq4XcDQgLVVE6oGAkZAYroqgdtD-thKbV-usY8yUmDeSKXuq1Zo70wJTvAYrwbRll8_jyUY0MigK_vVCiBZgUnsAcJxeHB_snQM_O3ncYXlJFExebW_7VhipLFqXaxvVn5-WVZCULL8MAVi-OuOTF4LUkEdUt9bfKPKFk8G9unew98Sv_pm3Zcy9T3ZersRTrqujVIix6bLMRYtAEvd41R8mdaFzepdfrEKgdcskl7sm6DHcXXcdt3HCu7OoMckHlZ6jkRKZSycZ5W67TErd0RDWtcygI6-WFxSMIWbja2kUGa8396OGKf93Wvu2ATku4BlbBkRBHwLBMgokfxAYg9ohQ-kPAPd40xsots7m00]--></g></svg>