<svg xmlns="http://www.w3.org/2000/svg" xmlns:xlink="http://www.w3.org/1999/xlink" contentStyleType="text/css" data-diagram-type="DESCRIPTION" height="957px" preserveAspectRatio="none" style="width:347px;height:957px;background:#FFFFFF;" version="1.1" viewBox="0 0 347 957" width="347px" zoomAndPan="magnify"><defs/><g><!--cluster Cerrar Ofertas de Trabajo--><g id="cluster_Cerrar Ofertas de Trabajo"><rect fill="none" height="805.51" rx="2.5" ry="2.5" style="stroke:#181818;stroke-width:1;" width="218" x="7" y="7"/><text fill="#000000" font-family="sans-serif" font-size="14" font-weight="bold" lengthAdjust="spacing" textLength="202.7197" x="14.6401" y="21.9951">Cerrar Ofertas de Trabajo</text></g><g id="elem_IS"><ellipse cx="123.9959" cy="58.4412" fill="#F1F1F1" rx="70.2059" ry="16.4412" style="stroke:#181818;stroke-width:0.5;"/><text fill="#000000" font-family="sans-serif" font-size="14" lengthAdjust="spacing" textLength="93.3857" x="74.303" y="62.1887">Iniciar Sesi&#243;n</text></g><g id="elem_GO"><ellipse cx="121.0041" cy="190.0308" fill="#F1F1F1" rx="82.3041" ry="18.8608" style="stroke:#181818;stroke-width:0.5;"/><text fill="#000000" font-family="sans-serif" font-size="14" lengthAdjust="spacing" textLength="124.0381" x="58.1532" y="193.1553">Gestionar Ofertas</text></g><g id="elem_SO"><ellipse cx="124.0043" cy="324.5429" fill="#F1F1F1" rx="84.8143" ry="19.3629" style="stroke:#181818;stroke-width:0.5;"/><text fill="#000000" font-family="sans-serif" font-size="14" lengthAdjust="spacing" textLength="129.8965" x="59.0561" y="327.3895">Seleccionar Oferta</text></g><g id="elem_CO"><ellipse cx="122.9997" cy="437.3279" fill="#F1F1F1" rx="70.0897" ry="16.4179" style="stroke:#181818;stroke-width:0.5;"/><text fill="#000000" font-family="sans-serif" font-size="14" lengthAdjust="spacing" textLength="93.0713" x="73.4641" y="441.0755">Cerrar Oferta</text></g><g id="elem_CC"><ellipse cx="122.9958" cy="548.9932" fill="#F1F1F1" rx="79.2158" ry="18.2432" style="stroke:#181818;stroke-width:0.5;"/><text fill="#000000" font-family="sans-serif" font-size="14" lengthAdjust="spacing" textLength="116.6143" x="62.7215" y="552.4608">Confirmar Cierre</text></g><g id="elem_AE"><ellipse cx="122.9971" cy="662.9014" fill="#F1F1F1" rx="81.3571" ry="18.6714" style="stroke:#181818;stroke-width:0.5;"/><text fill="#000000" font-family="sans-serif" font-size="14" lengthAdjust="spacing" textLength="121.7891" x="60.9362" y="666.1311">Actualizar Estado</text></g><g id="elem_NE"><ellipse cx="123.0024" cy="777.5405" fill="#F1F1F1" rx="82.8524" ry="18.9705" style="stroke:#181818;stroke-width:0.5;"/><text fill="#000000" font-family="sans-serif" font-size="14" lengthAdjust="spacing" textLength="125.3301" x="59.6941" y="780.604">Notificar Empresa</text></g><!--entity ADM--><g id="elem_ADM"><ellipse cx="291" cy="160.38" fill="#F1F1F1" rx="8" ry="8" style="stroke:#181818;stroke-width:0.5;"/><path d="M291,168.38 L291,195.38 M278,176.38 L304,176.38 M291,195.38 L278,210.38 M291,195.38 L304,210.38 " fill="none" style="stroke:#181818;stroke-width:0.5;"/><text fill="#000000" font-family="sans-serif" font-size="14" lengthAdjust="spacing" textLength="99.0801" x="241.46" y="224.8751">Administrador</text></g><!--entity EMP--><g id="elem_EMP"><ellipse cx="122.9962" cy="884.01" fill="#F1F1F1" rx="8" ry="8" style="stroke:#181818;stroke-width:0.5;"/><path d="M122.9962,892.01 L122.9962,919.01 M109.9962,900.01 L135.9962,900.01 M122.9962,919.01 L109.9962,934.01 M122.9962,919.01 L135.9962,934.01 " fill="none" style="stroke:#181818;stroke-width:0.5;"/><text fill="#000000" font-family="sans-serif" font-size="14" lengthAdjust="spacing" textLength="61.6123" x="92.19" y="948.5051">Empresa</text></g><!--reverse link IS to ADM--><g id="link_IS_ADM"><path d="M178.8303,72.3788 C201.3803,79.3788 221.63,88.48 241,104.88 C255.78,117.4 267.32,135.46 275.56,151.64 " fill="none" id="IS-backto-ADM" style="stroke:#181818;stroke-width:1;"/><polygon fill="#181818" points="173.1,70.6,180.5095,77.0884,177.8752,72.0823,182.8813,69.448,173.1,70.6" style="stroke:#181818;stroke-width:1;"/><text fill="#000000" font-family="sans-serif" font-size="13" lengthAdjust="spacing" textLength="81.3706" x="256" y="117.9469">Inicia Sesi&#243;n</text></g><!--link IS to GO--><g id="link_IS_GO"><path d="M123.63,75.33 C123.07,99.53 122.1491,139.4816 121.5591,164.9316 " fill="none" id="IS-to-GO" style="stroke:#181818;stroke-width:1;"/><polygon fill="#181818" points="121.42,170.93,125.6275,162.0251,121.5359,165.9313,117.6297,161.8397,121.42,170.93" style="stroke:#181818;stroke-width:1;"/><text fill="#000000" font-family="sans-serif" font-size="13" lengthAdjust="spacing" textLength="109.8335" x="123" y="117.9469">Gestiona Ofertas</text></g><!--link GO to SO--><g id="link_GO_SO"><path d="M121.41,209.18 C121.98,234.27 122.8655,273.3415 123.4355,298.7615 " fill="none" id="GO-to-SO" style="stroke:#181818;stroke-width:1;"/><polygon fill="#181818" points="123.57,304.76,127.3672,295.6726,123.4579,299.7613,119.3692,295.8519,123.57,304.76" style="stroke:#181818;stroke-width:1;"/><text fill="#000000" font-family="sans-serif" font-size="13" lengthAdjust="spacing" textLength="115.2734" x="123" y="271.2469">Selecciona Oferta</text></g><!--link SO to CO--><g id="link_SO_CO"><path d="M123.83,344.34 C123.64,365.82 123.3738,394.6002 123.1938,414.6702 " fill="none" id="SO-to-CO" style="stroke:#181818;stroke-width:1;"/><polygon fill="#181818" points="123.14,420.67,127.2206,411.7062,123.1848,415.6702,119.2209,411.6345,123.14,420.67" style="stroke:#181818;stroke-width:1;"/><text fill="#000000" font-family="sans-serif" font-size="13" lengthAdjust="spacing" textLength="84.6904" x="124" y="386.9769">Cierra Oferta</text></g><!--link CO to CC--><g id="link_CO_CC"><path d="M123,454.04 C123,474.29 123,503.41 123,524.49 " fill="none" id="CO-to-CC" style="stroke:#181818;stroke-width:1;"/><polygon fill="#181818" points="123,530.49,127,521.49,123,525.49,119,521.49,123,530.49" style="stroke:#181818;stroke-width:1;"/><text fill="#000000" font-family="sans-serif" font-size="13" lengthAdjust="spacing" textLength="63.0068" x="124" y="496.8069">&#171;include&#187;</text></g><!--link CC to AE--><g id="link_CC_AE"><path d="M123,567.47 C123,588.25 123,616.75 123,637.8 " fill="none" id="CC-to-AE" style="stroke:#181818;stroke-width:1;"/><polygon fill="#181818" points="123,643.8,127,634.8,123,638.8,119,634.8,123,643.8" style="stroke:#181818;stroke-width:1;"/><text fill="#000000" font-family="sans-serif" font-size="13" lengthAdjust="spacing" textLength="63.0068" x="124" y="610.2969">&#171;include&#187;</text></g><!--link AE to NE--><g id="link_AE_NE"><path d="M123,682 C123,702.89 123,731.08 123,752.12 " fill="none" id="AE-to-NE" style="stroke:#181818;stroke-width:1;"/><polygon fill="#181818" points="123,758.12,127,749.12,123,753.12,119,749.12,123,758.12" style="stroke:#181818;stroke-width:1;"/><text fill="#000000" font-family="sans-serif" font-size="13" lengthAdjust="spacing" textLength="61.1851" x="124" y="724.6369">&#171;extend&#187;</text></g><!--link NE to EMP--><g id="link_NE_EMP"><path d="M123,796.91 C123,817 123,843.73 123,869.27 " fill="none" id="NE-to-EMP" style="stroke:#181818;stroke-width:1;"/><polygon fill="#181818" points="123,875.27,127,866.27,123,870.27,119,866.27,123,875.27" style="stroke:#181818;stroke-width:1;"/><text fill="#000000" font-family="sans-serif" font-size="13" lengthAdjust="spacing" textLength="124.814" x="124" y="841.5769">Recibe Notificaci&#243;n</text></g><!--SRC=[NT91ReCm40NGlKynogOhBX15ICX14OkGgku573D4Ku5TsOvKjUgfUeHUh6C3IKbs_Fy2-8ids9E-U3rgw12ain4_ejk2HE-r1zUZZxcANf_rcnCUJTJsCY1iPdFA9YJqEg4DV0dWtpMWqO5bOyaGKuM1Vd_i1fWtQcqE628vUxzXLeVJMYaSq9Z_BZFrm5QlbeLy5Cxsv4T6aXZZXEGQLIPUzK2VhEeGTUUogkgrQbsadan2uxl7C3smhSMt4Df4vw7gHh8KUCEEhz8jziUvcl-ImlhuB4IZO5SK2S1s6UwsMsgBekHLKhaiTXjCS9vgbUlxLCiEGaszp7q-zxsJSoUvs-t8ck7QOLaA3b9UrGyv1oblfvo_6hGTn-qKyrdICrxGq1bXMSZaK_m1]--></g></svg>