<svg xmlns="http://www.w3.org/2000/svg" xmlns:xlink="http://www.w3.org/1999/xlink" contentStyleType="text/css" height="658px" preserveAspectRatio="none" style="width:607px;height:658px;background:#FFFFFF;" version="1.1" viewBox="0 0 607 658" width="607px" zoomAndPan="magnify"><defs/><g><rect fill="#F5F5F5" height="40" rx="12.5" ry="12.5" style="stroke:#181818;stroke-width:0.5;" width="258.2334" x="171.5" y="7"/><text fill="#000000" font-family="sans-serif" font-size="14" lengthAdjust="spacing" textLength="248.2334" x="176.5" y="31.8467">Interfaz de Creaci&#243;n de Comunidad</text><rect fill="#F5F5F5" height="40" rx="12.5" ry="12.5" style="stroke:#181818;stroke-width:0.5;" width="144.6064" x="228" y="612"/><text fill="#000000" font-family="sans-serif" font-size="14" lengthAdjust="spacing" textLength="134.6064" x="233" y="636.8467">Comunidad Creada</text><path d="M19.5,107 L581.5,107 A12.5,12.5 0 0 1 594,119.5 L594,133.2969 L7,133.2969 L7,119.5 A12.5,12.5 0 0 1 19.5,107 " fill="#F5F5F5" style="stroke:#F5F5F5;stroke-width:1;"/><rect fill="none" height="445.2969" rx="12.5" ry="12.5" style="stroke:#181818;stroke-width:0.5;" width="587" x="7" y="107"/><line style="stroke:#181818;stroke-width:0.5;" x1="7" x2="594" y1="133.2969" y2="133.2969"/><text fill="#000000" font-family="sans-serif" font-size="14" lengthAdjust="spacing" textLength="185.0352" x="207.9824" y="124.9951">Creaci&#243;n de la Comunidad</text><rect fill="#F5F5F5" height="40" rx="12.5" ry="12.5" style="stroke:#181818;stroke-width:0.5;" width="50" x="180" y="145.2969"/><text fill="#000000" font-family="sans-serif" font-size="14" lengthAdjust="spacing" textLength="4.4502" x="202.7749" y="170.1436">&#160;</text><g id="elem_ValidarCredenciales"><polygon fill="#F1F1F1" points="205,301.2969,217,313.2969,205,325.2969,193,313.2969,205,301.2969" style="stroke:#181818;stroke-width:0.5;"/></g><rect fill="#F5F5F5" height="40" rx="12.5" ry="12.5" style="stroke:#181818;stroke-width:0.5;" width="50" x="180" y="502.2969"/><text fill="#000000" font-family="sans-serif" font-size="14" lengthAdjust="spacing" textLength="4.4502" x="202.7749" y="527.1436">&#160;</text><!--link IngresoCredenciales to ValidarCredenciales--><g id="link_IngresoCredenciales_ValidarCredenciales"><path d="M179.78,171.2869 C128.74,181.3869 18,203.2969 18,203.2969 C18,203.2969 18,283.2969 18,283.2969 C18,283.2969 151.4309,303.9874 189.5409,309.8974 " fill="none" id="IngresoCredenciales-to-ValidarCredenciales" style="stroke:#008000;stroke-width:1;"/><polygon fill="#008000" points="195.47,310.8169,187.1893,305.4849,190.5291,310.0506,185.9633,313.3904,195.47,310.8169" style="stroke:#008000;stroke-width:1;"/><path d="M23,208.2969 L23,278.2969 L367,278.2969 L367,218.2969 L357,208.2969 L23,208.2969 " fill="#F5F5F5" style="stroke:#000000;stroke-width:0.5;"/><path d="M357,208.2969 L357,218.2969 L367,218.2969 L357,208.2969 " fill="#F5F5F5" style="stroke:#000000;stroke-width:0.5;"/><text fill="#000000" font-family="sans-serif" font-size="13" font-weight="bold" lengthAdjust="spacing" textLength="130.9966" x="29" y="225.3638">Usuario introduce</text><ellipse cx="34.5" cy="236.0625" fill="#000000" rx="2.5" ry="2.5" style="stroke:#000000;stroke-width:0;"/><text fill="#000000" font-family="sans-serif" font-size="13" lengthAdjust="spacing" textLength="51.9365" x="41" y="240.4966">Nombre</text><ellipse cx="34.5" cy="251.1953" fill="#000000" rx="2.5" ry="2.5" style="stroke:#000000;stroke-width:0;"/><text fill="#000000" font-family="sans-serif" font-size="13" lengthAdjust="spacing" textLength="76.0894" x="41" y="255.6294">Descripci&#243;n</text><ellipse cx="34.5" cy="266.3281" fill="#000000" rx="2.5" ry="2.5" style="stroke:#000000;stroke-width:0;"/><text fill="#000000" font-family="sans-serif" font-size="13" lengthAdjust="spacing" textLength="311.2827" x="41" y="270.7622">Miembro/s (el usuario creador est&#225; por defecto)</text></g><!--link ValidarCredenciales to IngresoCredenciales--><g id="link_ValidarCredenciales_IngresoCredenciales"><path d="M214.46,310.6569 C249.78,304.5169 372,283.2969 372,283.2969 C372,283.2969 372,203.2969 372,203.2969 C372,203.2969 282.448,183.4545 235.858,173.1345 " fill="none" id="ValidarCredenciales-to-IngresoCredenciales" style="stroke:#FF0000;stroke-width:1;"/><polygon fill="#FF0000" points="230,171.8369,237.922,177.6886,234.8817,172.9182,239.6521,169.8779,230,171.8369" style="stroke:#FF0000;stroke-width:1;"/><path d="M377,223.2969 L377,263.2969 L585,263.2969 L585,233.2969 L575,223.2969 L377,223.2969 " fill="#F5F5F5" style="stroke:#000000;stroke-width:0.5;"/><path d="M575,223.2969 L575,233.2969 L585,233.2969 L575,223.2969 " fill="#F5F5F5" style="stroke:#000000;stroke-width:0.5;"/><text fill="#000000" font-family="sans-serif" font-size="13" font-weight="bold" lengthAdjust="spacing" textLength="129.3843" x="383" y="240.3638">Sistema muestra:</text><ellipse cx="388.5" cy="251.0625" fill="#000000" rx="2.5" ry="2.5" style="stroke:#000000;stroke-width:0;"/><text fill="#000000" font-family="sans-serif" font-size="13" lengthAdjust="spacing" textLength="175.5889" x="395" y="255.4966">Error: "Campo sin rellenar"</text></g><!--link ValidarCredenciales to Creaci?ndelaComunidadCorrecta--><g id="link_ValidarCredenciales_Creaci&#243;ndelaComunidadCorrecta"><path d="M205,325.4269 C205,359.0169 205,453.6769 205,496.0969 " fill="none" id="ValidarCredenciales-to-Creaci&#243;ndelaComunidadCorrecta" style="stroke:#008000;stroke-width:1;"/><polygon fill="#008000" points="205,502.0969,209,493.0969,205,497.0969,201,493.0969,205,502.0969" style="stroke:#008000;stroke-width:1;"/><path d="M210,348.2969 L210,479.2969 L550,479.2969 L550,358.2969 L540,348.2969 L210,348.2969 " fill="#F5F5F5" style="stroke:#000000;stroke-width:0.5;"/><path d="M540,348.2969 L540,358.2969 L550,358.2969 L540,348.2969 " fill="#F5F5F5" style="stroke:#000000;stroke-width:0.5;"/><text fill="#000000" font-family="sans-serif" font-size="13" font-weight="bold" lengthAdjust="spacing" textLength="171.3994" x="216" y="365.3638">Sistema asigna al post:</text><ellipse cx="221.5" cy="376.0625" fill="#000000" rx="2.5" ry="2.5" style="stroke:#000000;stroke-width:0;"/><text fill="#000000" font-family="sans-serif" font-size="13" lengthAdjust="spacing" textLength="307.0298" x="228" y="380.4966">Usuario Creador (Recoge los datos del usuario)</text><ellipse cx="221.5" cy="391.1953" fill="#000000" rx="2.5" ry="2.5" style="stroke:#000000;stroke-width:0;"/><text fill="#000000" font-family="sans-serif" font-size="13" lengthAdjust="spacing" textLength="120.6816" x="228" y="395.6294">Fecha de Creaci&#243;n</text><text fill="#000000" font-family="sans-serif" font-size="13" lengthAdjust="spacing" textLength="4.1323" x="216" y="410.7622">&#160;</text><text fill="#000000" font-family="sans-serif" font-size="13" font-weight="bold" lengthAdjust="spacing" textLength="201.6206" x="216" y="425.895">Sistema Crea la Comunidad</text><text fill="#000000" font-family="sans-serif" font-size="13" lengthAdjust="spacing" textLength="4.1323" x="216" y="441.0278">&#160;</text><text fill="#000000" font-family="sans-serif" font-size="13" font-weight="bold" lengthAdjust="spacing" textLength="125.0107" x="216" y="456.1606">Sistema Redirige</text><ellipse cx="221.5" cy="466.8594" fill="#000000" rx="2.5" ry="2.5" style="stroke:#000000;stroke-width:0;"/><text fill="#000000" font-family="sans-serif" font-size="13" lengthAdjust="spacing" textLength="284.54" x="228" y="471.2935">A la direcci&#243;n de la Comunidad tras crearse</text></g><!--link startState to Creaci?ndelPost--><g id="link_startState_Creaci&#243;ndelPost"><path d="M300.5,47.25 C300.5,61.5 300.5,76.61 300.5,100.97 " fill="none" id="startState-to-Creaci&#243;ndelPost" style="stroke:#181818;stroke-width:1;"/><polygon fill="#181818" points="300.5,106.97,304.5,97.97,300.5,101.97,296.5,97.97,300.5,106.97" style="stroke:#181818;stroke-width:1;"/></g><!--link Creaci?ndelPost to endState--><g id="link_Creaci&#243;ndelPost_endState"><path d="M300.5,552.05 C300.5,576.5 300.5,591.68 300.5,605.92 " fill="none" id="Creaci&#243;ndelPost-to-endState" style="stroke:#181818;stroke-width:1;"/><polygon fill="#181818" points="300.5,611.92,304.5,602.92,300.5,606.92,296.5,602.92,300.5,611.92" style="stroke:#181818;stroke-width:1;"/></g><!--SRC=[ZLHBRjim4Dth58IoIGeOsGU6WDP9W2nI537QJT75c9p8X2cECAHGk4KEapFq2BbOHzJ7iYCOqK8sEU_DxyqexAolWQ5IVpCbprUA-0NqhcHgl5cH8rONlxSsuhgY7Humn0Qvjs-SC9B9MOznNwEgoUtRG_QIPM6C4I94x2ETYoAahJMeiAhZNXaCccqTBNbnbbp8c-Cw_OMWyWSVaP_XZq3LYX6qVVldqu6gnbi39k-9wCs1DbeJoK2U9V-3vyMYE7WpwBvHY4C2f_UTlsbe1vFeVSqTzy6NZ844RT1h2mv3egjy0le1JfXy15ekzPQingAO0AUPm1XnHSoe8moE4s4kyEBdXLoY_oN5piHCF2-2A_AjkftCxRFS5Dz30sn9MH-PJADnURqfHi0d6PHgmpYvkEsKJEbEhXyj2f2kWxf4fvhUgsuraS704DzUPQ1OkleiDT5LeegIAR6kjBbsIMboR0kRAVniOMiR8bQWgaQ2CzoSr7N7J7mZUaDLamhMAqRdq0Fd7qzjxFfv0J-K9mHRUlbnqgOGJzCTP5hr3RryGasbJ2W5PI2sxqFRhoR4UzHREDgfqJYNHOiw6li-Zpdi4nhBjZoTcCyjNooeP_T8YHWX3GO7F6wrV3BUxMIxmCF2_mS0]--></g></svg>