<svg xmlns="http://www.w3.org/2000/svg" xmlns:xlink="http://www.w3.org/1999/xlink" contentStyleType="text/css" height="552px" preserveAspectRatio="none" style="width:639px;height:552px;background:#FFFFFF;" version="1.1" viewBox="0 0 639 552" width="639px" zoomAndPan="magnify"><defs/><g><rect fill="#F5F5F5" height="40" rx="12.5" ry="12.5" style="stroke:#181818;stroke-width:0.5;" width="199.6836" x="216.5" y="7"/><text fill="#000000" font-family="sans-serif" font-size="14" lengthAdjust="spacing" textLength="189.6836" x="221.5" y="31.8467">Interfaz de Inicio de Sesi&#243;n</text><rect fill="#F5F5F5" height="40" rx="12.5" ry="12.5" style="stroke:#181818;stroke-width:0.5;" width="147.3887" x="243" y="506"/><text fill="#000000" font-family="sans-serif" font-size="14" lengthAdjust="spacing" textLength="137.3887" x="248" y="530.8467">Tabl&#243;n de Anuncios</text><path d="M19.5,107 L613.5,107 A12.5,12.5 0 0 1 626,119.5 L626,133.2969 L7,133.2969 L7,119.5 A12.5,12.5 0 0 1 19.5,107 " fill="#F5F5F5" style="stroke:#F5F5F5;stroke-width:1;"/><rect fill="none" height="339.2969" rx="12.5" ry="12.5" style="stroke:#181818;stroke-width:0.5;" width="619" x="7" y="107"/><line style="stroke:#181818;stroke-width:0.5;" x1="7" x2="626" y1="133.2969" y2="133.2969"/><text fill="#000000" font-family="sans-serif" font-size="14" lengthAdjust="spacing" textLength="109.5664" x="261.7168" y="124.9951">Inicio de Sesi&#243;n</text><rect fill="#F5F5F5" height="40" rx="12.5" ry="12.5" style="stroke:#181818;stroke-width:0.5;" width="50" x="149" y="145.2969"/><text fill="#000000" font-family="sans-serif" font-size="14" lengthAdjust="spacing" textLength="4.4502" x="171.7749" y="170.1436">&#160;</text><g id="elem_ValidarCredenciales"><polygon fill="#F1F1F1" points="174,286.2969,186,298.2969,174,310.2969,162,298.2969,174,286.2969" style="stroke:#181818;stroke-width:0.5;"/></g><rect fill="#F5F5F5" height="40" rx="12.5" ry="12.5" style="stroke:#181818;stroke-width:0.5;" width="50" x="149" y="396.2969"/><text fill="#000000" font-family="sans-serif" font-size="14" lengthAdjust="spacing" textLength="4.4502" x="171.7749" y="421.1436">&#160;</text><!--link IngresoCredenciales to ValidarCredenciales--><g id="link_IngresoCredenciales_ValidarCredenciales"><path d="M148.94,172.2369 C104.84,182.6969 18,203.2969 18,203.2969 C18,203.2969 18,268.2969 18,268.2969 C18,268.2969 125.2209,288.231 158.8109,294.471 " fill="none" id="IngresoCredenciales-to-ValidarCredenciales" style="stroke:#008000;stroke-width:1;"/><polygon fill="#008000" points="164.71,295.5669,156.592,289.9904,159.7941,294.6537,155.1308,297.8558,164.71,295.5669" style="stroke:#008000;stroke-width:1;"/><path d="M23,208.2969 L23,263.2969 L305,263.2969 L305,218.2969 L295,208.2969 L23,208.2969 " fill="#F5F5F5" style="stroke:#000000;stroke-width:0.5;"/><path d="M295,208.2969 L295,218.2969 L305,218.2969 L295,208.2969 " fill="#F5F5F5" style="stroke:#000000;stroke-width:0.5;"/><text fill="#000000" font-family="sans-serif" font-size="13" font-weight="bold" lengthAdjust="spacing" textLength="130.9966" x="29" y="225.3638">Usuario introduce</text><ellipse cx="34.5" cy="236.0625" fill="#000000" rx="2.5" ry="2.5" style="stroke:#000000;stroke-width:0;"/><text fill="#000000" font-family="sans-serif" font-size="13" lengthAdjust="spacing" textLength="249.082" x="41" y="240.4966">Nombre de usuario/Correo Electr&#243;nico</text><ellipse cx="34.5" cy="251.1953" fill="#000000" rx="2.5" ry="2.5" style="stroke:#000000;stroke-width:0;"/><text fill="#000000" font-family="sans-serif" font-size="13" lengthAdjust="spacing" textLength="74.6548" x="41" y="255.6294">Contrase&#241;a</text></g><!--link ValidarCredenciales to IngresoCredenciales--><g id="link_ValidarCredenciales_IngresoCredenciales"><path d="M183.35,295.3069 C214.07,288.7469 310,268.2969 310,268.2969 C310,268.2969 310,203.2969 310,203.2969 C310,203.2969 244.3796,185.442 205.0496,174.742 " fill="none" id="ValidarCredenciales-to-IngresoCredenciales" style="stroke:#FF0000;stroke-width:1;"/><polygon fill="#FF0000" points="199.26,173.1669,206.8943,179.3892,204.0846,174.4795,208.9944,171.6698,199.26,173.1669" style="stroke:#FF0000;stroke-width:1;"/><path d="M315,215.7969 L315,255.7969 L617,255.7969 L617,225.7969 L607,215.7969 L315,215.7969 " fill="#F5F5F5" style="stroke:#000000;stroke-width:0.5;"/><path d="M607,215.7969 L607,225.7969 L617,225.7969 L607,215.7969 " fill="#F5F5F5" style="stroke:#000000;stroke-width:0.5;"/><text fill="#000000" font-family="sans-serif" font-size="13" font-weight="bold" lengthAdjust="spacing" textLength="129.3843" x="321" y="232.8638">Sistema muestra:</text><ellipse cx="326.5" cy="243.5625" fill="#000000" rx="2.5" ry="2.5" style="stroke:#000000;stroke-width:0;"/><text fill="#000000" font-family="sans-serif" font-size="13" lengthAdjust="spacing" textLength="269.6929" x="333" y="247.9966">Error: "Usuario o Contrase&#241;a incorrectos"</text></g><!--link ValidarCredenciales to InicioSesionCorrecto--><g id="link_ValidarCredenciales_InicioSesionCorrecto"><path d="M174,310.4169 C174,330.1569 174,365.5169 174,389.9869 " fill="none" id="ValidarCredenciales-to-InicioSesionCorrecto" style="stroke:#008000;stroke-width:1;"/><polygon fill="#008000" points="174,395.9869,178,386.9869,174,390.9869,170,386.9869,174,395.9869" style="stroke:#008000;stroke-width:1;"/><path d="M179,333.2969 L179,373.2969 L353,373.2969 L353,343.2969 L343,333.2969 L179,333.2969 " fill="#F5F5F5" style="stroke:#000000;stroke-width:0.5;"/><path d="M343,333.2969 L343,343.2969 L353,343.2969 L343,333.2969 " fill="#F5F5F5" style="stroke:#000000;stroke-width:0.5;"/><text fill="#000000" font-family="sans-serif" font-size="13" font-weight="bold" lengthAdjust="spacing" textLength="121.4116" x="185" y="350.3638">Sistema redirige</text><ellipse cx="190.5" cy="361.0625" fill="#000000" rx="2.5" ry="2.5" style="stroke:#000000;stroke-width:0;"/><text fill="#000000" font-family="sans-serif" font-size="13" lengthAdjust="spacing" textLength="141.6162" x="197" y="365.4966">A la pantalla principal</text></g><!--link startState to Inicio_Sesi?n--><g id="link_startState_Inicio_Sesi&#243;n"><path d="M316.5,47.01 C316.5,61.44 316.5,76.86 316.5,100.88 " fill="none" id="startState-to-Inicio_Sesi&#243;n" style="stroke:#181818;stroke-width:1;"/><polygon fill="#181818" points="316.5,106.88,320.5,97.88,316.5,101.88,312.5,97.88,316.5,106.88" style="stroke:#181818;stroke-width:1;"/></g><!--link Inicio_Sesi?n to endState--><g id="link_Inicio_Sesi&#243;n_endState"><path d="M316.5,446.01 C316.5,469.97 316.5,485.35 316.5,499.8 " fill="none" id="Inicio_Sesi&#243;n-to-endState" style="stroke:#181818;stroke-width:1;"/><polygon fill="#181818" points="316.5,505.8,320.5,496.8,316.5,500.8,312.5,496.8,316.5,505.8" style="stroke:#181818;stroke-width:1;"/></g><!--SRC=[ZLDDIyD04BtdLopn9XJlKW9QF7ZnKlKY8fFDs0xTx8JP3LB57oN-1F-OizkajhM8UmZxyUQzDny9A_8T2BJchJ2wRZZY9TZLGhZtpOmTYpbvMLB4USih_C6mD2Z3U-qq8ZyvyXZN7PgEtJeTYlUY25kD427YeFINYWOjgK63RHVNfi5WXRf8x9KiK-XNuZnl8PZosaUKPtXLgBdsP8dJRew1lZvzESIWRtuYRg5s-fPW5xxt6X7A8hEFl9D9DN0z3KIZ-FxjOE1GTCXoZ5W81fu9DgXQu33aC5FkWEx1KGEo1vfExPB9ObNjiIMn9CH-nY9e8uzq6NPCRl9mefVe7pMj8qevpcjZ3VlKnKqxqvhMrLteGJGzyb6uwIrEp-fg2pZLWMXhmPHzlq6UPLjihfnw4oq7MTx1prY98E3N1-HRxKpMthW_LWTrhyV7t99VkVtfVKuXOWkcxJ6ewFc1zIiHbdDJZYdohZbDs0xr3UN_dMxhVAnH_pAhX2IqEAppXN5WEl0HNDg8sgCEtBup_NSE1ZHDyZZytm00]--></g></svg>