<svg xmlns="http://www.w3.org/2000/svg" xmlns:xlink="http://www.w3.org/1999/xlink" contentStyleType="text/css" height="337px" preserveAspectRatio="none" style="width:1348px;height:337px;background:#FFFFFF;" version="1.1" viewBox="0 0 1348 337" width="1348px" zoomAndPan="magnify"><defs/><g><g id="MenuPrincipal"><rect fill="#F1F1F1" height="50" rx="12.5" ry="12.5" style="stroke:#181818;stroke-width:0.5;" width="141.1396" x="575.5" y="136"/><line style="stroke:#181818;stroke-width:0.5;" x1="575.5" x2="716.6396" y1="162.2969" y2="162.2969"/><text fill="#000000" font-family="sans-serif" font-size="14" lengthAdjust="spacing" textLength="121.1396" x="585.5" y="153.9951">MENU_PRINCIPAL</text></g><g id="CreandoMensaje"><rect fill="#F1F1F1" height="50" rx="12.5" ry="12.5" style="stroke:#181818;stroke-width:0.5;" width="160.0342" x="7" y="281"/><line style="stroke:#181818;stroke-width:0.5;" x1="7" x2="167.0342" y1="307.2969" y2="307.2969"/><text fill="#000000" font-family="sans-serif" font-size="14" lengthAdjust="spacing" textLength="140.0342" x="17" y="298.9951">CREANDO_MENSAJE</text></g><g id="LeyendoMensaje"><rect fill="#F1F1F1" height="50" rx="12.5" ry="12.5" style="stroke:#181818;stroke-width:0.5;" width="156.1514" x="337" y="281"/><line style="stroke:#181818;stroke-width:0.5;" x1="337" x2="493.1514" y1="307.2969" y2="307.2969"/><text fill="#000000" font-family="sans-serif" font-size="14" lengthAdjust="spacing" textLength="136.1514" x="347" y="298.9951">LEYENDO_MENSAJE</text></g><g id="Grupos"><rect fill="#F1F1F1" height="50" rx="12.5" ry="12.5" style="stroke:#181818;stroke-width:0.5;" width="157.3887" x="804.5" y="281"/><line style="stroke:#181818;stroke-width:0.5;" x1="804.5" x2="961.8887" y1="307.2969" y2="307.2969"/><text fill="#000000" font-family="sans-serif" font-size="14" lengthAdjust="spacing" textLength="137.3887" x="814.5" y="298.9951">LISTANDO_GRUPOS</text></g><g id="Usuarios"><rect fill="#F1F1F1" height="50" rx="12.5" ry="12.5" style="stroke:#181818;stroke-width:0.5;" width="170.9375" x="1026.5" y="281"/><line style="stroke:#181818;stroke-width:0.5;" x1="1026.5" x2="1197.4375" y1="307.2969" y2="307.2969"/><text fill="#000000" font-family="sans-serif" font-size="14" lengthAdjust="spacing" textLength="150.9375" x="1036.5" y="298.9951">LISTANDO_USUARIOS</text></g><ellipse cx="646" cy="16" fill="#222222" rx="10" ry="10" style="stroke:#222222;stroke-width:1;"/><ellipse cx="889" cy="161" fill="none" rx="11" ry="11" style="stroke:#222222;stroke-width:1;"/><ellipse cx="889" cy="161" fill="#222222" rx="6" ry="6" style="stroke:#222222;stroke-width:1;"/><!--link *start* to MenuPrincipal--><g id="link_*start*_MenuPrincipal"><path d="M646,26.38 C646,48.38 646,97.83 646,129.96 " fill="none" id="*start*-to-MenuPrincipal" style="stroke:#181818;stroke-width:1;"/><polygon fill="#181818" points="646,135.96,650,126.96,646,130.96,642,126.96,646,135.96" style="stroke:#181818;stroke-width:1;"/><path d="M651,61 L651,101 L768,101 L768,71 L758,61 L651,61 " fill="#FEFFDD" style="stroke:#181818;stroke-width:0.5;"/><path d="M758,61 L758,71 L768,71 L758,61 " fill="#FEFFDD" style="stroke:#181818;stroke-width:0.5;"/><text fill="#000000" font-family="sans-serif" font-size="13" lengthAdjust="spacing" textLength="92.0029" x="657" y="78.0669">Administrador</text><text fill="#000000" font-family="sans-serif" font-size="13" lengthAdjust="spacing" textLength="79.6694" x="657" y="93.1997">inicia sesi&#243;n</text></g><!--link MenuPrincipal to *end*--><g id="link_MenuPrincipal_*end*"><path d="M716.61,161 C773.78,161 843.31,161 871.63,161 " fill="none" id="MenuPrincipal-to-*end*" style="stroke:#181818;stroke-width:1;"/><polygon fill="#181818" points="877.63,161,868.63,157,872.63,161,868.63,165,877.63,161" style="stroke:#181818;stroke-width:1;"/><path d="M738.75,113 L738.75,153 L855.75,153 L855.75,123 L845.75,113 L738.75,113 " fill="#FEFFDD" style="stroke:#181818;stroke-width:0.5;"/><path d="M845.75,113 L845.75,123 L855.75,123 L845.75,113 " fill="#FEFFDD" style="stroke:#181818;stroke-width:0.5;"/><text fill="#000000" font-family="sans-serif" font-size="13" lengthAdjust="spacing" textLength="92.0029" x="744.75" y="130.0669">Administrador</text><text fill="#000000" font-family="sans-serif" font-size="13" lengthAdjust="spacing" textLength="82.894" x="744.75" y="145.1997">cierra sesi&#243;n</text></g><!--link MenuPrincipal to LeyendoMensaje--><g id="link_MenuPrincipal_LeyendoMensaje"><path d="M575.35,167.59 C509.78,174.42 419.07,188.63 397,216 C382.26,234.28 388.0988,256.0574 397.7988,275.5674 " fill="none" id="MenuPrincipal-to-LeyendoMensaje" style="stroke:#181818;stroke-width:1;"/><polygon fill="#181818" points="400.47,280.94,400.045,271.1003,398.244,276.4628,392.8815,274.6619,400.47,280.94" style="stroke:#181818;stroke-width:1;"/><path d="M402,221 L402,246 L513,246 L513,231 L503,221 L402,221 " fill="#FEFFDD" style="stroke:#181818;stroke-width:0.5;"/><path d="M503,221 L503,231 L513,231 L503,221 " fill="#FEFFDD" style="stroke:#181818;stroke-width:0.5;"/><text fill="#000000" font-family="sans-serif" font-size="13" lengthAdjust="spacing" textLength="90.8286" x="408" y="238.0669">Abrir mensaje</text></g><!--link LeyendoMensaje to MenuPrincipal--><g id="link_LeyendoMensaje_MenuPrincipal"><path d="M470.73,280.86 C487.81,272.43 506.24,262.23 522,251 C540.17,238.05 540.38,229.7 558,216 C571.73,205.33 582.5463,198.0791 597.0663,189.3591 " fill="none" id="LeyendoMensaje-to-MenuPrincipal" style="stroke:#181818;stroke-width:1;"/><polygon fill="#181818" points="602.21,186.27,592.4351,187.4744,597.9236,188.8442,596.5538,194.3327,602.21,186.27" style="stroke:#181818;stroke-width:1;"/><path d="M563,221 L563,246 L684,246 L684,231 L674,221 L563,221 " fill="#FEFFDD" style="stroke:#181818;stroke-width:0.5;"/><path d="M674,221 L674,231 L684,231 L674,221 " fill="#FEFFDD" style="stroke:#181818;stroke-width:0.5;"/><text fill="#000000" font-family="sans-serif" font-size="13" lengthAdjust="spacing" textLength="100.458" x="569" y="238.0669">Cerrar mensaje</text></g><!--link MenuPrincipal to CreandoMensaje--><g id="link_MenuPrincipal_CreandoMensaje"><path d="M575.24,163.27 C426.5,166.67 92.27,178.44 58,216 C41.68,233.89 50.8145,256.1328 64.1145,275.7628 " fill="none" id="MenuPrincipal-to-CreandoMensaje" style="stroke:#181818;stroke-width:1;"/><polygon fill="#181818" points="67.48,280.73,65.7433,271.0355,64.6754,276.5906,59.1203,275.5228,67.48,280.73" style="stroke:#181818;stroke-width:1;"/><path d="M63,221 L63,246 L179,246 L179,231 L169,221 L63,221 " fill="#FEFFDD" style="stroke:#181818;stroke-width:0.5;"/><path d="M169,221 L169,231 L179,231 L169,221 " fill="#FEFFDD" style="stroke:#181818;stroke-width:0.5;"/><text fill="#000000" font-family="sans-serif" font-size="13" lengthAdjust="spacing" textLength="95.1133" x="69" y="238.0669">Crear mensaje</text></g><!--link CreandoMensaje to MenuPrincipal--><g id="link_CreandoMensaje_MenuPrincipal"><path d="M132.66,280.96 C150.04,271.71 170,260.97 188,251 C215.34,235.85 219.41,226.07 249,216 C358.97,178.57 488.4157,167.2616 569.2957,163.7316 " fill="none" id="CreandoMensaje-to-MenuPrincipal" style="stroke:#181818;stroke-width:1;"/><polygon fill="#181818" points="575.29,163.47,566.1241,159.8662,570.2948,163.688,566.473,167.8586,575.29,163.47" style="stroke:#181818;stroke-width:1;"/><path d="M254,221 L254,246 L377,246 L377,231 L367,221 L254,221 " fill="#FEFFDD" style="stroke:#181818;stroke-width:0.5;"/><path d="M367,221 L367,231 L377,231 L367,221 " fill="#FEFFDD" style="stroke:#181818;stroke-width:0.5;"/><text fill="#000000" font-family="sans-serif" font-size="13" lengthAdjust="spacing" textLength="102.1909" x="260" y="238.0669">Listar mensajes</text></g><!--link CreandoMensaje to CreandoMensaje--><g id="link_CreandoMensaje_CreandoMensaje"><path d="M167.08,292.69 C187.06,293.62 202,298.05 202,306 C202,313.95 193.0535,318.101 173.0735,319.031 " fill="none" id="CreandoMensaje-to-CreandoMensaje" style="stroke:#181818;stroke-width:1;"/><polygon fill="#181818" points="167.08,319.31,176.2563,322.8872,172.0746,319.0775,175.8843,314.8959,167.08,319.31" style="stroke:#181818;stroke-width:1;"/><path d="M207,293.5 L207,318.5 L303,318.5 L303,303.5 L293,293.5 L207,293.5 " fill="#FEFFDD" style="stroke:#181818;stroke-width:0.5;"/><path d="M293,293.5 L293,303.5 L303,303.5 L293,293.5 " fill="#FEFFDD" style="stroke:#181818;stroke-width:0.5;"/><text fill="#000000" font-family="sans-serif" font-size="13" lengthAdjust="spacing" textLength="75.3594" x="213" y="310.5669">Crear envio</text></g><!--link LeyendoMensaje to LeyendoMensaje--><g id="link_LeyendoMensaje_LeyendoMensaje"><path d="M493.16,292.66 C513.06,293.54 528,297.98 528,306 C528,314.02 519.0541,318.1949 499.1541,319.0749 " fill="none" id="LeyendoMensaje-to-LeyendoMensaje" style="stroke:#181818;stroke-width:1;"/><polygon fill="#181818" points="493.16,319.34,502.3279,322.9385,498.1551,319.1191,501.9745,314.9463,493.16,319.34" style="stroke:#181818;stroke-width:1;"/><path d="M533,293.5 L533,318.5 L738,318.5 L738,303.5 L728,293.5 L533,293.5 " fill="#FEFFDD" style="stroke:#181818;stroke-width:0.5;"/><path d="M728,293.5 L728,303.5 L738,303.5 L728,293.5 " fill="#FEFFDD" style="stroke:#181818;stroke-width:0.5;"/><text fill="#000000" font-family="sans-serif" font-size="13" lengthAdjust="spacing" textLength="184.9453" x="539" y="310.5669">Descargar informe del env&#237;o</text></g><!--link MenuPrincipal to Grupos--><g id="link_MenuPrincipal_Grupos"><path d="M667.64,186.39 C689.72,211.07 721.75,246.26 729,251 C751.77,265.88 773.4212,275.3129 798.7112,283.6429 " fill="none" id="MenuPrincipal-to-Grupos" style="stroke:#181818;stroke-width:1;"/><polygon fill="#181818" points="804.41,285.52,797.1131,278.9052,799.661,283.9558,794.6104,286.5036,804.41,285.52" style="stroke:#181818;stroke-width:1;"/><path d="M734,221 L734,246 L863,246 L863,231 L853,221 L734,221 " fill="#FEFFDD" style="stroke:#181818;stroke-width:0.5;"/><path d="M853,221 L853,231 L863,231 L853,221 " fill="#FEFFDD" style="stroke:#181818;stroke-width:0.5;"/><text fill="#000000" font-family="sans-serif" font-size="13" lengthAdjust="spacing" textLength="108.2783" x="740" y="238.0669">Listar categorias</text></g><!--link Grupos to MenuPrincipal--><g id="link_Grupos_MenuPrincipal"><path d="M886.91,280.81 C888.67,260.97 887.57,233.41 872,216 C851.46,193.03 780.9118,179.0838 722.5518,170.8938 " fill="none" id="Grupos-to-MenuPrincipal" style="stroke:#181818;stroke-width:1;"/><polygon fill="#181818" points="716.61,170.06,724.9668,175.272,721.5615,170.7549,726.0786,167.3496,716.61,170.06" style="stroke:#181818;stroke-width:1;"/><path d="M892,221 L892,246 L1015,246 L1015,231 L1005,221 L892,221 " fill="#FEFFDD" style="stroke:#181818;stroke-width:0.5;"/><path d="M1005,221 L1005,231 L1015,231 L1005,221 " fill="#FEFFDD" style="stroke:#181818;stroke-width:0.5;"/><text fill="#000000" font-family="sans-serif" font-size="13" lengthAdjust="spacing" textLength="102.1909" x="898" y="238.0669">Listar mensajes</text></g><!--link MenuPrincipal to Usuarios--><g id="link_MenuPrincipal_Usuarios"><path d="M716.52,169.42 C819.28,180.61 1000.93,202 1028,216 C1056.87,230.94 1077.7424,254.9349 1092.6724,275.7449 " fill="none" id="MenuPrincipal-to-Usuarios" style="stroke:#181818;stroke-width:1;"/><polygon fill="#181818" points="1096.17,280.62,1094.1736,270.9756,1093.2553,276.5574,1087.6735,275.6391,1096.17,280.62" style="stroke:#181818;stroke-width:1;"/><path d="M1077,221 L1077,246 L1193,246 L1193,231 L1183,221 L1077,221 " fill="#FEFFDD" style="stroke:#181818;stroke-width:0.5;"/><path d="M1183,221 L1183,231 L1193,231 L1183,221 " fill="#FEFFDD" style="stroke:#181818;stroke-width:0.5;"/><text fill="#000000" font-family="sans-serif" font-size="13" lengthAdjust="spacing" textLength="95.0688" x="1083" y="238.0669">Listar usuarios</text></g><!--link Usuarios to MenuPrincipal--><g id="link_Usuarios_MenuPrincipal"><path d="M1175.44,280.81 C1187.64,273.17 1198.83,263.38 1206,251 C1213.79,237.54 1216.51,227.46 1206,216 C1179.92,187.56 898.4,189.82 860,186 C812.2,181.25 764.4201,175.911 722.7601,171.081 " fill="none" id="Usuarios-to-MenuPrincipal" style="stroke:#181818;stroke-width:1;"/><polygon fill="#181818" points="716.8,170.39,725.2794,175.3999,721.7667,170.9658,726.2008,167.4531,716.8,170.39" style="stroke:#181818;stroke-width:1;"/><path d="M1218,221 L1218,246 L1341,246 L1341,231 L1331,221 L1218,221 " fill="#FEFFDD" style="stroke:#181818;stroke-width:0.5;"/><path d="M1331,221 L1331,231 L1341,231 L1331,221 " fill="#FEFFDD" style="stroke:#181818;stroke-width:0.5;"/><text fill="#000000" font-family="sans-serif" font-size="13" lengthAdjust="spacing" textLength="102.1909" x="1224" y="238.0669">Listar mensajes</text></g><!--SRC=[jPFVQeCm58VlVOhGoq5VOI1MYiDQqNannYYPPkLicfGJ7UoXThL7w8ljcFwnsafQs79v-FBzVXmINVDQiCd2Zx9Ld0IH5yHkE65SiuMGJOmWSzZmqj4xpajyDvejLyIdxeDlG0y5buKYNlDtSI13_yaVag7u4XV887qqqdcInSlKa7DiDagV4LcQkKcmPpBTS0IYdEUx5pQTtWygCpfIqNqbMGdommpQunOLID0rya8XEuvfbWDdMcZO_aWpfhP6uJWzDQCiohmv8GU1U6K2HGpMDPxsYe2iEi4wQzznovQyjkkOzhpiu1MCQuaRi_OT5xJCvXNo4vHz1OFHk7KcTCvnJMQGRmehmGfHjYdRRsKlV-McGteftKwqTTNxps7pvVHtrWg13usx-__PyFWrRSRc5EoCX_j_LF4N]--></g></svg>