<?xml version="1.0" encoding="us-ascii" standalone="no"?><svg xmlns="http://www.w3.org/2000/svg" xmlns:xlink="http://www.w3.org/1999/xlink" contentStyleType="text/css" height="337px" preserveAspectRatio="none" style="width:1393px;height:337px;background:#FFFFFF;" version="1.1" viewBox="0 0 1393 337" width="1393px" zoomAndPan="magnify"><defs/><g><g id="MenuPrincipal"><rect fill="#F1F1F1" height="50" rx="12.5" ry="12.5" style="stroke:#181818;stroke-width:0.5;" width="137" x="571.01" y="136"/><line style="stroke:#181818;stroke-width:0.5;" x1="571.01" x2="708.01" y1="162.4883" y2="162.4883"/><text fill="#000000" font-family="sans-serif" font-size="14" lengthAdjust="spacing" textLength="117" x="581.01" y="154.5352">MENU_PRINCIPAL</text></g><g id="ListandoMensaje"><rect fill="#F1F1F1" height="50" rx="12.5" ry="12.5" style="stroke:#181818;stroke-width:0.5;" width="164" x="22.51" y="281"/><line style="stroke:#181818;stroke-width:0.5;" x1="22.51" x2="186.51" y1="307.4883" y2="307.4883"/><text fill="#000000" font-family="sans-serif" font-size="14" lengthAdjust="spacing" textLength="144" x="32.51" y="299.5352">LISTANDO_MENSAJES</text></g><g id="Grupos"><rect fill="#F1F1F1" height="50" rx="12.5" ry="12.5" style="stroke:#181818;stroke-width:0.5;" width="152" x="387.51" y="281"/><line style="stroke:#181818;stroke-width:0.5;" x1="387.51" x2="539.51" y1="307.4883" y2="307.4883"/><text fill="#000000" font-family="sans-serif" font-size="14" lengthAdjust="spacing" textLength="132" x="397.51" y="299.5352">LISTANDO_GRUPOS</text></g><g id="Usuarios"><rect fill="#F1F1F1" height="50" rx="12.5" ry="12.5" style="stroke:#181818;stroke-width:0.5;" width="166" x="735.51" y="281"/><line style="stroke:#181818;stroke-width:0.5;" x1="735.51" x2="901.51" y1="307.4883" y2="307.4883"/><text fill="#000000" font-family="sans-serif" font-size="14" lengthAdjust="spacing" textLength="146" x="745.51" y="299.5352">LISTANDO_USUARIOS</text></g><g id="Auditoria"><rect fill="#F1F1F1" height="50" rx="12.5" ry="12.5" style="stroke:#181818;stroke-width:0.5;" width="167" x="1099.01" y="281"/><line style="stroke:#181818;stroke-width:0.5;" x1="1099.01" x2="1266.01" y1="307.4883" y2="307.4883"/><text fill="#000000" font-family="sans-serif" font-size="14" lengthAdjust="spacing" textLength="147" x="1109.01" y="299.5352">LISTANDO_ACCIONES</text></g><ellipse cx="639.51" cy="16" fill="#222222" rx="10" ry="10" style="stroke:#222222;stroke-width:1.0;"/><ellipse cx="878.51" cy="161" fill="none" rx="11" ry="11" style="stroke:#222222;stroke-width:1.0;"/><ellipse cx="878.51" cy="161" fill="#222222" rx="6" ry="6" style="stroke:#222222;stroke-width:1.0;"/><!--link *start* to MenuPrincipal--><g id="link_*start*_MenuPrincipal"><path d="M639.51,26.38 C639.51,48.32 639.51,97.52 639.51,129.69 " fill="none" id="*start*-to-MenuPrincipal" style="stroke:#181818;stroke-width:1.0;"/><polygon fill="#181818" points="639.51,135.69,643.51,126.69,639.51,130.69,635.51,126.69,639.51,135.69" style="stroke:#181818;stroke-width:1.0;"/><path d="M644.51,61 L644.51,101 L759.51,101 L759.51,71 L749.51,61 L644.51,61 " fill="#FEFFDD" style="stroke:#181818;stroke-width:0.5;"/><path d="M749.51,61 L749.51,71 L759.51,71 L749.51,61 " fill="#FEFFDD" style="stroke:#181818;stroke-width:0.5;"/><text fill="#000000" font-family="sans-serif" font-size="13" lengthAdjust="spacing" textLength="90" x="650.51" y="78.5684">Administrador</text><text fill="#000000" font-family="sans-serif" font-size="13" lengthAdjust="spacing" textLength="79" x="650.51" y="93.8789">inicia sesi&#243;n</text></g><!--link MenuPrincipal to *end*--><g id="link_MenuPrincipal_*end*"><path d="M708.32,161 C764.59,161 833.25,161 861.26,161 " fill="none" id="MenuPrincipal-to-*end*" style="stroke:#181818;stroke-width:1.0;"/><polygon fill="#181818" points="867.26,161,858.26,157,862.26,161,858.26,165,867.26,161" style="stroke:#181818;stroke-width:1.0;"/><path d="M730.26,113 L730.26,153 L845.26,153 L845.26,123 L835.26,113 L730.26,113 " fill="#FEFFDD" style="stroke:#181818;stroke-width:0.5;"/><path d="M835.26,113 L835.26,123 L845.26,123 L835.26,113 " fill="#FEFFDD" style="stroke:#181818;stroke-width:0.5;"/><text fill="#000000" font-family="sans-serif" font-size="13" lengthAdjust="spacing" textLength="90" x="736.26" y="130.5684">Administrador</text><text fill="#000000" font-family="sans-serif" font-size="13" lengthAdjust="spacing" textLength="80" x="736.26" y="145.8789">cierra sesi&#243;n</text></g><!--link MenuPrincipal to ListandoMensaje--><g id="link_MenuPrincipal_ListandoMensaje"><path d="M570.71,162.84 C416.42,165.43 53.39,175.79 16.51,216 C6,227.46 8.92,237.43 16.51,251 C23.34,263.2 29.159,269.6952 40.929,277.3952 " fill="none" id="MenuPrincipal-to-ListandoMensaje" style="stroke:#181818;stroke-width:1.0;"/><polygon fill="#181818" points="45.95,280.68,40.6084,272.4055,41.7658,277.9427,36.2287,279.1002,45.95,280.68" style="stroke:#181818;stroke-width:1.0;"/><path d="M21.51,221 L21.51,246 L140.51,246 L140.51,231 L130.51,221 L21.51,221 " fill="#FEFFDD" style="stroke:#181818;stroke-width:0.5;"/><path d="M130.51,221 L130.51,231 L140.51,231 L130.51,221 " fill="#FEFFDD" style="stroke:#181818;stroke-width:0.5;"/><text fill="#000000" font-family="sans-serif" font-size="13" lengthAdjust="spacing" textLength="98" x="27.51" y="238.5684">Listar mensajes</text></g><!--link ListandoMensaje to MenuPrincipal--><g id="link_ListandoMensaje_MenuPrincipal"><path d="M126.07,280.52 C146.01,259.64 177.6,230.72 211.51,216 C274.46,188.67 460.6128,173.1922 564.7328,166.3722 " fill="none" id="ListandoMensaje-to-MenuPrincipal" style="stroke:#181818;stroke-width:1.0;"/><polygon fill="#181818" points="570.72,165.98,561.4778,162.5768,565.7307,166.3068,562.0007,170.5597,570.72,165.98" style="stroke:#181818;stroke-width:1.0;"/><path d="M216.51,221 L216.51,246 L364.51,246 L364.51,231 L354.51,221 L216.51,221 " fill="#FEFFDD" style="stroke:#181818;stroke-width:0.5;"/><path d="M354.51,221 L354.51,231 L364.51,231 L354.51,221 " fill="#FEFFDD" style="stroke:#181818;stroke-width:0.5;"/><text fill="#000000" font-family="sans-serif" font-size="13" lengthAdjust="spacing" textLength="127" x="222.51" y="238.5684">Abrir Men&#250; Principal</text></g><!--link MenuPrincipal to Grupos--><g id="link_MenuPrincipal_Grupos"><path d="M570.69,166.94 C503.05,173.39 406.69,187.43 383.51,216 C373.71,228.08 376.21,237.26 383.51,251 C389.88,262.99 395.3127,269.3519 406.4827,277.1619 " fill="none" id="MenuPrincipal-to-Grupos" style="stroke:#181818;stroke-width:1.0;"/><polygon fill="#181818" points="411.4,280.6,406.3162,272.1647,407.3023,277.7349,401.732,278.721,411.4,280.6" style="stroke:#181818;stroke-width:1.0;"/><path d="M388.51,221 L388.51,246 L492.51,246 L492.51,231 L482.51,221 L388.51,221 " fill="#FEFFDD" style="stroke:#181818;stroke-width:0.5;"/><path d="M482.51,221 L482.51,231 L492.51,231 L482.51,221 " fill="#FEFFDD" style="stroke:#181818;stroke-width:0.5;"/><text fill="#000000" font-family="sans-serif" font-size="13" lengthAdjust="spacing" textLength="83" x="394.51" y="238.5684">Listar grupos</text></g><!--link Grupos to MenuPrincipal--><g id="link_Grupos_MenuPrincipal"><path d="M479.59,280.85 C493.3,261.56 514.43,234.75 537.51,216 C551.44,204.7 562.7708,197.476 578.5408,189.246 " fill="none" id="Grupos-to-MenuPrincipal" style="stroke:#181818;stroke-width:1.0;"/><polygon fill="#181818" points="583.86,186.47,574.0305,187.0878,579.4273,188.7833,577.7318,194.1801,583.86,186.47" style="stroke:#181818;stroke-width:1.0;"/><path d="M542.51,221 L542.51,246 L690.51,246 L690.51,231 L680.51,221 L542.51,221 " fill="#FEFFDD" style="stroke:#181818;stroke-width:0.5;"/><path d="M680.51,221 L680.51,231 L690.51,231 L680.51,221 " fill="#FEFFDD" style="stroke:#181818;stroke-width:0.5;"/><text fill="#000000" font-family="sans-serif" font-size="13" lengthAdjust="spacing" textLength="127" x="548.51" y="238.5684">Abrir Men&#250; Principal</text></g><!--link MenuPrincipal to Usuarios--><g id="link_MenuPrincipal_Usuarios"><path d="M666.9,186.24 C677.2,195.47 688.97,206.14 699.51,216 C715.81,231.24 718.08,237.07 735.51,251 C748.68,261.52 758.8617,268.6631 772.6717,277.4731 " fill="none" id="MenuPrincipal-to-Usuarios" style="stroke:#181818;stroke-width:1.0;"/><polygon fill="#181818" points="777.73,280.7,772.2938,272.4874,773.5147,278.0109,767.9912,279.2318,777.73,280.7" style="stroke:#181818;stroke-width:1.0;"/><path d="M740.51,221 L740.51,246 L854.51,246 L854.51,231 L844.51,221 L740.51,221 " fill="#FEFFDD" style="stroke:#181818;stroke-width:0.5;"/><path d="M844.51,221 L844.51,231 L854.51,231 L844.51,221 " fill="#FEFFDD" style="stroke:#181818;stroke-width:0.5;"/><text fill="#000000" font-family="sans-serif" font-size="13" lengthAdjust="spacing" textLength="93" x="746.51" y="238.5684">Listar usuarios</text></g><!--link Usuarios to MenuPrincipal--><g id="link_Usuarios_MenuPrincipal"><path d="M844.96,280.82 C862.32,262.01 879.15,235.86 863.51,216 C844.42,191.76 772.9673,177.9237 714.4473,170.1137 " fill="none" id="Usuarios-to-MenuPrincipal" style="stroke:#181818;stroke-width:1.0;"/><polygon fill="#181818" points="708.5,169.32,716.8918,174.4754,713.4561,169.9814,717.95,166.5457,708.5,169.32" style="stroke:#181818;stroke-width:1.0;"/><path d="M874.71,221 L874.71,246 L1022.71,246 L1022.71,231 L1012.71,221 L874.71,221 " fill="#FEFFDD" style="stroke:#181818;stroke-width:0.5;"/><path d="M1012.71,221 L1012.71,231 L1022.71,231 L1012.71,221 " fill="#FEFFDD" style="stroke:#181818;stroke-width:0.5;"/><text fill="#000000" font-family="sans-serif" font-size="13" lengthAdjust="spacing" textLength="127" x="880.71" y="238.5684">Abrir Men&#250; Principal</text></g><!--link MenuPrincipal to Auditoria--><g id="link_MenuPrincipal_Auditoria"><path d="M708.3,169.84 C813.49,182.05 1005.38,205.34 1035.51,216 C1047.08,220.09 1099.4037,252.4715 1138.9537,277.3915 " fill="none" id="MenuPrincipal-to-Auditoria" style="stroke:#181818;stroke-width:1.0;"/><polygon fill="#181818" points="1144.03,280.59,1138.5478,272.4079,1139.7997,277.9245,1134.2831,279.1764,1144.03,280.59" style="stroke:#181818;stroke-width:1.0;"/><path d="M1100.03,221 L1100.03,246 L1215.03,246 L1215.03,231 L1205.03,221 L1100.03,221 " fill="#FEFFDD" style="stroke:#181818;stroke-width:0.5;"/><path d="M1205.03,221 L1205.03,231 L1215.03,231 L1205.03,221 " fill="#FEFFDD" style="stroke:#181818;stroke-width:0.5;"/><text fill="#000000" font-family="sans-serif" font-size="13" lengthAdjust="spacing" textLength="94" x="1106.03" y="238.5684">Listar acciones</text></g><!--link Auditoria to MenuPrincipal--><g id="link_Auditoria_MenuPrincipal"><path d="M1208.64,280.85 C1226.41,261.56 1243.82,234.74 1226.51,216 C1198,185.13 891.34,190.05 849.51,186 C802.4,181.43 755.3977,176.0916 714.4577,171.2016 " fill="none" id="Auditoria-to-MenuPrincipal" style="stroke:#181818;stroke-width:1.0;"/><polygon fill="#181818" points="708.5,170.49,716.9621,175.5292,713.4647,171.083,717.9109,167.5856,708.5,170.49" style="stroke:#181818;stroke-width:1.0;"/><path d="M1238.63,221 L1238.63,246 L1386.63,246 L1386.63,231 L1376.63,221 L1238.63,221 " fill="#FEFFDD" style="stroke:#181818;stroke-width:0.5;"/><path d="M1376.63,221 L1376.63,231 L1386.63,231 L1376.63,221 " fill="#FEFFDD" style="stroke:#181818;stroke-width:0.5;"/><text fill="#000000" font-family="sans-serif" font-size="13" lengthAdjust="spacing" textLength="127" x="1244.63" y="238.5684">Abrir Men&#250; Principal</text></g><!--SRC=[jP91QiCm44NtFiMGPI1NA0Wt11N7DdQyAYMebYZJ9b8OsIVhhjjSh8hisetTrWaqMexU_F-P6Lk9Ii5ilOoBRPhnEEGfYsOWBAoLhbD2NU91x0BRS17FDoo-JxQk8MSFozoZ4RflBOrhiU9LZU1LLgH9WwweFXWx8egyO1blcSBMWl07YeKXJ-BMbDKIAqCeWk1n_WIBnTqWChYdZHCm6dQettpXz9ZSetQHIKX3q9LThKG1LbaylcjVLbfwYI0uamRdvJolTYXH4Lteu2o6O_tLpeC4-uQp0-61p5MJUYQa4tpyW7FyhzpjZgVYllHOhzRqtZvZTsDJAUllOA_urN_peFsPJoKLPOb6ZzRV2VppK3y1]--></g></svg>