<svg xmlns="http://www.w3.org/2000/svg" xmlns:xlink="http://www.w3.org/1999/xlink" contentStyleType="text/css" height="337px" preserveAspectRatio="none" style="width:1695px;height:337px;background:#FFFFFF;" version="1.1" viewBox="0 0 1695 337" width="1695px" zoomAndPan="magnify"><defs/><g><g id="MenuPrincipal"><rect fill="#F1F1F1" height="50" rx="12.5" ry="12.5" style="stroke:#181818;stroke-width:0.5;" width="141.1396" x="750.5" y="136"/><line style="stroke:#181818;stroke-width:0.5;" x1="750.5" x2="891.6396" y1="162.2969" y2="162.2969"/><text fill="#000000" font-family="sans-serif" font-size="14" lengthAdjust="spacing" textLength="121.1396" x="760.5" y="153.9951">MENU_PRINCIPAL</text></g><g id="CreandoMensaje"><rect fill="#F1F1F1" height="50" rx="12.5" ry="12.5" style="stroke:#181818;stroke-width:0.5;" width="160.0342" x="7" y="281"/><line style="stroke:#181818;stroke-width:0.5;" x1="7" x2="167.0342" y1="307.2969" y2="307.2969"/><text fill="#000000" font-family="sans-serif" font-size="14" lengthAdjust="spacing" textLength="140.0342" x="17" y="298.9951">CREANDO_MENSAJE</text></g><g id="LeyendoMensaje"><rect fill="#F1F1F1" height="50" rx="12.5" ry="12.5" style="stroke:#181818;stroke-width:0.5;" width="156.1514" x="337" y="281"/><line style="stroke:#181818;stroke-width:0.5;" x1="337" x2="493.1514" y1="307.2969" y2="307.2969"/><text fill="#000000" font-family="sans-serif" font-size="14" lengthAdjust="spacing" textLength="136.1514" x="347" y="298.9951">LEYENDO_MENSAJE</text></g><g id="Grupos"><rect fill="#F1F1F1" height="50" rx="12.5" ry="12.5" style="stroke:#181818;stroke-width:0.5;" width="157.3887" x="804.5" y="281"/><line style="stroke:#181818;stroke-width:0.5;" x1="804.5" x2="961.8887" y1="307.2969" y2="307.2969"/><text fill="#000000" font-family="sans-serif" font-size="14" lengthAdjust="spacing" textLength="137.3887" x="814.5" y="298.9951">LISTANDO_GRUPOS</text></g><g id="Usuarios"><rect fill="#F1F1F1" height="50" rx="12.5" ry="12.5" style="stroke:#181818;stroke-width:0.5;" width="170.9375" x="1026.5" y="281"/><line style="stroke:#181818;stroke-width:0.5;" x1="1026.5" x2="1197.4375" y1="307.2969" y2="307.2969"/><text fill="#000000" font-family="sans-serif" font-size="14" lengthAdjust="spacing" textLength="150.9375" x="1036.5" y="298.9951">LISTANDO_USUARIOS</text></g><g id="Auditoria"><rect fill="#F1F1F1" height="50" rx="12.5" ry="12.5" style="stroke:#181818;stroke-width:0.5;" width="170.6982" x="1421.5" y="281"/><line style="stroke:#181818;stroke-width:0.5;" x1="1421.5" x2="1592.1982" y1="307.2969" y2="307.2969"/><text fill="#000000" font-family="sans-serif" font-size="14" lengthAdjust="spacing" textLength="150.6982" x="1431.5" y="298.9951">LISTANDO_ACCIONES</text></g><ellipse cx="821" cy="16" fill="#222222" rx="10" ry="10" style="stroke:#222222;stroke-width:1;"/><ellipse cx="1064" cy="161" fill="none" rx="11" ry="11" style="stroke:#222222;stroke-width:1;"/><ellipse cx="1064" cy="161" fill="#222222" rx="6" ry="6" style="stroke:#222222;stroke-width:1;"/><!--link *start* to MenuPrincipal--><g id="link_*start*_MenuPrincipal"><path d="M821,26.38 C821,48.38 821,97.83 821,129.96 " fill="none" id="*start*-to-MenuPrincipal" style="stroke:#181818;stroke-width:1;"/><polygon fill="#181818" points="821,135.96,825,126.96,821,130.96,817,126.96,821,135.96" style="stroke:#181818;stroke-width:1;"/><path d="M826,61 L826,101 L943,101 L943,71 L933,61 L826,61 " fill="#FEFFDD" style="stroke:#181818;stroke-width:0.5;"/><path d="M933,61 L933,71 L943,71 L933,61 " fill="#FEFFDD" style="stroke:#181818;stroke-width:0.5;"/><text fill="#000000" font-family="sans-serif" font-size="13" lengthAdjust="spacing" textLength="92.0029" x="832" y="78.0669">Administrador</text><text fill="#000000" font-family="sans-serif" font-size="13" lengthAdjust="spacing" textLength="79.6694" x="832" y="93.1997">inicia sesi&#243;n</text></g><!--link MenuPrincipal to *end*--><g id="link_MenuPrincipal_*end*"><path d="M891.61,161 C948.78,161 1018.31,161 1046.63,161 " fill="none" id="MenuPrincipal-to-*end*" style="stroke:#181818;stroke-width:1;"/><polygon fill="#181818" points="1052.63,161,1043.63,157,1047.63,161,1043.63,165,1052.63,161" style="stroke:#181818;stroke-width:1;"/><path d="M913.75,113 L913.75,153 L1030.75,153 L1030.75,123 L1020.75,113 L913.75,113 " fill="#FEFFDD" style="stroke:#181818;stroke-width:0.5;"/><path d="M1020.75,113 L1020.75,123 L1030.75,123 L1020.75,113 " fill="#FEFFDD" style="stroke:#181818;stroke-width:0.5;"/><text fill="#000000" font-family="sans-serif" font-size="13" lengthAdjust="spacing" textLength="92.0029" x="919.75" y="130.0669">Administrador</text><text fill="#000000" font-family="sans-serif" font-size="13" lengthAdjust="spacing" textLength="82.894" x="919.75" y="145.1997">cierra sesi&#243;n</text></g><!--link MenuPrincipal to LeyendoMensaje--><g id="link_MenuPrincipal_LeyendoMensaje"><path d="M750.19,165.98 C635.6,173.15 419.93,189.97 397,216 C381.37,233.75 387.5242,255.8998 397.5442,275.6398 " fill="none" id="MenuPrincipal-to-LeyendoMensaje" style="stroke:#181818;stroke-width:1;"/><polygon fill="#181818" points="400.26,280.99,399.7532,271.1542,397.9969,276.5315,392.6196,274.7752,400.26,280.99" style="stroke:#181818;stroke-width:1;"/><path d="M402,221 L402,246 L513,246 L513,231 L503,221 L402,221 " fill="#FEFFDD" style="stroke:#181818;stroke-width:0.5;"/><path d="M503,221 L503,231 L513,231 L503,221 " fill="#FEFFDD" style="stroke:#181818;stroke-width:0.5;"/><text fill="#000000" font-family="sans-serif" font-size="13" lengthAdjust="spacing" textLength="90.8286" x="408" y="238.0669">Abrir mensaje</text></g><!--link LeyendoMensaje to MenuPrincipal--><g id="link_LeyendoMensaje_MenuPrincipal"><path d="M463.99,280.88 C482.29,271.71 503.19,261.05 522,251 C549.91,236.09 554.49,227.41 584,216 C638.12,195.07 696.562,182.0964 744.552,173.5964 " fill="none" id="LeyendoMensaje-to-MenuPrincipal" style="stroke:#181818;stroke-width:1;"/><polygon fill="#181818" points="750.46,172.55,740.9003,170.181,745.5366,173.422,742.2956,178.0583,750.46,172.55" style="stroke:#181818;stroke-width:1;"/><path d="M589,221 L589,246 L710,246 L710,231 L700,221 L589,221 " fill="#FEFFDD" style="stroke:#181818;stroke-width:0.5;"/><path d="M700,221 L700,231 L710,231 L700,221 " fill="#FEFFDD" style="stroke:#181818;stroke-width:0.5;"/><text fill="#000000" font-family="sans-serif" font-size="13" lengthAdjust="spacing" textLength="100.458" x="595" y="238.0669">Cerrar mensaje</text></g><!--link MenuPrincipal to CreandoMensaje--><g id="link_MenuPrincipal_CreandoMensaje"><path d="M750.39,161.65 C570.27,161.49 104.62,165.96 58,216 C41.49,233.72 50.66,255.9958 64.02,275.6758 " fill="none" id="MenuPrincipal-to-CreandoMensaje" style="stroke:#181818;stroke-width:1;"/><polygon fill="#181818" points="67.39,280.64,65.6445,270.9471,64.5817,276.5032,59.0256,275.4404,67.39,280.64" style="stroke:#181818;stroke-width:1;"/><path d="M63,221 L63,246 L179,246 L179,231 L169,221 L63,221 " fill="#FEFFDD" style="stroke:#181818;stroke-width:0.5;"/><path d="M169,221 L169,231 L179,231 L169,221 " fill="#FEFFDD" style="stroke:#181818;stroke-width:0.5;"/><text fill="#000000" font-family="sans-serif" font-size="13" lengthAdjust="spacing" textLength="95.1133" x="69" y="238.0669">Crear mensaje</text></g><!--link CreandoMensaje to MenuPrincipal--><g id="link_CreandoMensaje_MenuPrincipal"><path d="M132.95,280.89 C150.28,271.68 170.12,260.99 188,251 C214.95,235.94 218.61,225.45 248,216 C339.74,186.51 612.5061,171.0704 744.4061,165.1204 " fill="none" id="CreandoMensaje-to-MenuPrincipal" style="stroke:#181818;stroke-width:1;"/><polygon fill="#181818" points="750.4,164.85,741.2289,161.2596,745.4051,165.0753,741.5894,169.2515,750.4,164.85" style="stroke:#181818;stroke-width:1;"/><path d="M253,221 L253,246 L376,246 L376,231 L366,221 L253,221 " fill="#FEFFDD" style="stroke:#181818;stroke-width:0.5;"/><path d="M366,221 L366,231 L376,231 L366,221 " fill="#FEFFDD" style="stroke:#181818;stroke-width:0.5;"/><text fill="#000000" font-family="sans-serif" font-size="13" lengthAdjust="spacing" textLength="102.1909" x="259" y="238.0669">Listar mensajes</text></g><!--link CreandoMensaje to CreandoMensaje--><g id="link_CreandoMensaje_CreandoMensaje"><path d="M167.08,292.69 C187.06,293.62 202,298.05 202,306 C202,313.95 193.0535,318.101 173.0735,319.031 " fill="none" id="CreandoMensaje-to-CreandoMensaje" style="stroke:#181818;stroke-width:1;"/><polygon fill="#181818" points="167.08,319.31,176.2563,322.8872,172.0746,319.0775,175.8843,314.8959,167.08,319.31" style="stroke:#181818;stroke-width:1;"/><path d="M207,293.5 L207,318.5 L303,318.5 L303,303.5 L293,293.5 L207,293.5 " fill="#FEFFDD" style="stroke:#181818;stroke-width:0.5;"/><path d="M293,293.5 L293,303.5 L303,303.5 L293,293.5 " fill="#FEFFDD" style="stroke:#181818;stroke-width:0.5;"/><text fill="#000000" font-family="sans-serif" font-size="13" lengthAdjust="spacing" textLength="75.3594" x="213" y="310.5669">Crear envio</text></g><!--link LeyendoMensaje to LeyendoMensaje--><g id="link_LeyendoMensaje_LeyendoMensaje"><path d="M493.16,292.66 C513.06,293.54 528,297.98 528,306 C528,314.02 519.0541,318.1949 499.1541,319.0749 " fill="none" id="LeyendoMensaje-to-LeyendoMensaje" style="stroke:#181818;stroke-width:1;"/><polygon fill="#181818" points="493.16,319.34,502.3279,322.9385,498.1551,319.1191,501.9745,314.9463,493.16,319.34" style="stroke:#181818;stroke-width:1;"/><path d="M533,293.5 L533,318.5 L738,318.5 L738,303.5 L728,293.5 L533,293.5 " fill="#FEFFDD" style="stroke:#181818;stroke-width:0.5;"/><path d="M728,293.5 L728,303.5 L738,303.5 L728,293.5 " fill="#FEFFDD" style="stroke:#181818;stroke-width:0.5;"/><text fill="#000000" font-family="sans-serif" font-size="13" lengthAdjust="spacing" textLength="184.9453" x="539" y="310.5669">Descargar informe del env&#237;o</text></g><!--link MenuPrincipal to Grupos--><g id="link_MenuPrincipal_Grupos"><path d="M759.36,186.13 C747.23,193.81 736.09,203.62 729,216 C721.27,229.5 720,238.31 729,251 C746.37,275.5 769.9513,287.4668 798.4313,294.8368 " fill="none" id="MenuPrincipal-to-Grupos" style="stroke:#181818;stroke-width:1;"/><polygon fill="#181818" points="804.24,296.34,796.5291,290.2128,799.3995,295.0874,794.5249,297.9577,804.24,296.34" style="stroke:#181818;stroke-width:1;"/><path d="M734,221 L734,246 L863,246 L863,231 L853,221 L734,221 " fill="#FEFFDD" style="stroke:#181818;stroke-width:0.5;"/><path d="M853,221 L853,231 L863,231 L853,221 " fill="#FEFFDD" style="stroke:#181818;stroke-width:0.5;"/><text fill="#000000" font-family="sans-serif" font-size="13" lengthAdjust="spacing" textLength="108.2783" x="740" y="238.0669">Listar categorias</text></g><!--link Grupos to MenuPrincipal--><g id="link_Grupos_MenuPrincipal"><path d="M884.01,280.83 C883.87,262.27 881.61,236.43 872,216 C866.78,204.92 862.6276,198.8875 854.1676,190.3275 " fill="none" id="Grupos-to-MenuPrincipal" style="stroke:#181818;stroke-width:1;"/><polygon fill="#181818" points="849.95,186.06,853.4315,195.273,853.4647,189.6162,859.1215,189.6495,849.95,186.06" style="stroke:#181818;stroke-width:1;"/><path d="M887,221 L887,246 L1010,246 L1010,231 L1000,221 L887,221 " fill="#FEFFDD" style="stroke:#181818;stroke-width:0.5;"/><path d="M1000,221 L1000,231 L1010,231 L1000,221 " fill="#FEFFDD" style="stroke:#181818;stroke-width:0.5;"/><text fill="#000000" font-family="sans-serif" font-size="13" lengthAdjust="spacing" textLength="102.1909" x="893" y="238.0669">Listar mensajes</text></g><!--link MenuPrincipal to Usuarios--><g id="link_MenuPrincipal_Usuarios"><path d="M891.81,171.58 C932.25,179.28 982.75,192.78 1023,216 C1051.58,232.49 1073.631,255.8296 1090.011,276.0296 " fill="none" id="MenuPrincipal-to-Usuarios" style="stroke:#181818;stroke-width:1;"/><polygon fill="#181818" points="1093.79,280.69,1091.2283,271.1801,1090.6408,276.8064,1085.0145,276.2188,1093.79,280.69" style="stroke:#181818;stroke-width:1;"/><path d="M1072,221 L1072,246 L1188,246 L1188,231 L1178,221 L1072,221 " fill="#FEFFDD" style="stroke:#181818;stroke-width:0.5;"/><path d="M1178,221 L1178,231 L1188,231 L1178,221 " fill="#FEFFDD" style="stroke:#181818;stroke-width:0.5;"/><text fill="#000000" font-family="sans-serif" font-size="13" lengthAdjust="spacing" textLength="95.0688" x="1078" y="238.0669">Listar usuarios</text></g><!--link Usuarios to MenuPrincipal--><g id="link_Usuarios_MenuPrincipal"><path d="M1171.22,280.8 C1183.12,273.1 1194.08,263.28 1201,251 C1208.63,237.44 1211.2,227.75 1201,216 C1190.95,204.43 1005.0032,182.2533 897.8432,170.3333 " fill="none" id="Usuarios-to-MenuPrincipal" style="stroke:#181818;stroke-width:1;"/><polygon fill="#181818" points="891.88,169.67,900.3826,174.6405,896.8494,170.2228,901.267,166.6895,891.88,169.67" style="stroke:#181818;stroke-width:1;"/><path d="M1213,221 L1213,246 L1336,246 L1336,231 L1326,221 L1213,221 " fill="#FEFFDD" style="stroke:#181818;stroke-width:0.5;"/><path d="M1326,221 L1326,231 L1336,231 L1326,221 " fill="#FEFFDD" style="stroke:#181818;stroke-width:0.5;"/><text fill="#000000" font-family="sans-serif" font-size="13" lengthAdjust="spacing" textLength="102.1909" x="1219" y="238.0669">Listar mensajes</text></g><!--link MenuPrincipal to Auditoria--><g id="link_MenuPrincipal_Auditoria"><path d="M891.81,170.24 C933.48,175.01 987.22,181.04 1035,186 C1174.44,200.48 1215.24,174.02 1349,216 C1373.33,223.64 1425.0297,254.1059 1463.4697,277.7559 " fill="none" id="MenuPrincipal-to-Auditoria" style="stroke:#181818;stroke-width:1;"/><polygon fill="#181818" points="1468.58,280.9,1463.0106,272.7771,1464.3214,278.2799,1458.8186,279.5907,1468.58,280.9" style="stroke:#181818;stroke-width:1;"/><path d="M1422,221 L1422,246 L1540,246 L1540,231 L1530,221 L1422,221 " fill="#FEFFDD" style="stroke:#181818;stroke-width:0.5;"/><path d="M1530,221 L1530,231 L1540,231 L1530,221 " fill="#FEFFDD" style="stroke:#181818;stroke-width:0.5;"/><text fill="#000000" font-family="sans-serif" font-size="13" lengthAdjust="spacing" textLength="97.0049" x="1428" y="238.0669">Listar acciones</text></g><!--link Auditoria to MenuPrincipal--><g id="link_Auditoria_MenuPrincipal"><path d="M1533.66,280.8 C1551.8,261.47 1569.59,234.64 1552,216 C1512.51,174.15 1092.33,190.87 1035,186 C987.13,181.93 939.3572,176.6152 897.7072,171.6152 " fill="none" id="Auditoria-to-MenuPrincipal" style="stroke:#181818;stroke-width:1;"/><polygon fill="#181818" points="891.75,170.9,900.2091,175.9442,896.7144,171.496,901.1626,168.0012,891.75,170.9" style="stroke:#181818;stroke-width:1;"/><path d="M1565,221 L1565,246 L1688,246 L1688,231 L1678,221 L1565,221 " fill="#FEFFDD" style="stroke:#181818;stroke-width:0.5;"/><path d="M1678,221 L1678,231 L1688,231 L1678,221 " fill="#FEFFDD" style="stroke:#181818;stroke-width:0.5;"/><text fill="#000000" font-family="sans-serif" font-size="13" lengthAdjust="spacing" textLength="102.1909" x="1571" y="238.0669">Listar mensajes</text></g><!--SRC=[jPHDQiCm44RtFeN8if0h58HZWelZ6BjUb5A2AYjXsaGA8xlGGtNL8-HY7Ji_JfmO9T1uEJoz6NreR4jHAZQO174-Iz8mziE4HmCcB9ieNIK8Mi9QB3sxvVmquF5eEYC-uqz10_geX2uCyLPyg3qP1Iz1bupKjxf0Xjbp8nsdUJBD6dACrThOCoBFSfw6EoQtbK2uG77V3wTniALuLK1f48JdlJwyiU7miNCpHfys932QBK5_DeNwuyKADDWIHM6G7SfKao2OLHOslxefqwKQXUUTg1drefutTv2W4A_iG2qwgVPtUqT0jZh2MkkfuvQK_7hMFktvi9t7qgybhizwwhYWPIwlqbzWt15qIltMaR9Iu8BCeES6LueLQbbtsVmOz_1N9XtHIsapiSweTplayabQdaMz85tZzlmz9pniiCjO7OEjSN_-ZYEslm-NKaW9Hfyf3uB_2l8F]--></g></svg>