<?xml version="1.0" encoding="us-ascii" standalone="no"?><svg xmlns="http://www.w3.org/2000/svg" xmlns:xlink="http://www.w3.org/1999/xlink" contentStyleType="text/css" height="314px" preserveAspectRatio="none" style="width:472px;height:314px;background:#FFFFFF;" version="1.1" viewBox="0 0 472 314" width="472px" zoomAndPan="magnify"><defs/><g><!--class Candidato--><g id="elem_Candidato"><rect codeLine="2" fill="#F1F1F1" height="48" id="Candidato" rx="2.5" ry="2.5" style="stroke:#181818;stroke-width:0.5;" width="97" x="235.5" y="133"/><ellipse cx="250.5" cy="149" fill="#ADD1B2" rx="11" ry="11" style="stroke:#181818;stroke-width:1.0;"/><path d="M253.2656,144.875 Q253.4219,144.6563 253.6094,144.5469 Q253.7969,144.4375 254.0156,144.4375 Q254.3906,144.4375 254.625,144.6953 Q254.8594,144.9531 254.8594,145.5625 L254.8594,147.0156 Q254.8594,147.625 254.625,147.8906 Q254.3906,148.1563 254.0156,148.1563 Q253.6719,148.1563 253.4688,147.9531 Q253.2656,147.7656 253.1563,147.25 Q253.1094,146.8906 252.9219,146.7031 Q252.5938,146.3281 251.9844,146.1094 Q251.375,145.8906 250.75,145.8906 Q249.9844,145.8906 249.3516,146.2188 Q248.7188,146.5469 248.2266,147.2969 Q247.7344,148.0469 247.7344,149.0781 L247.7344,150.1719 Q247.7344,151.4063 248.625,152.2266 Q249.5156,153.0469 251.1094,153.0469 Q252.0469,153.0469 252.7031,152.7969 Q253.0938,152.6406 253.5156,152.2031 Q253.7813,151.9375 253.9297,151.8594 Q254.0781,151.7813 254.2813,151.7813 Q254.6094,151.7813 254.8672,152.0391 Q255.125,152.2969 255.125,152.6406 Q255.125,152.9844 254.7813,153.3906 Q254.2813,153.9688 253.4844,154.2969 Q252.4063,154.75 251.1094,154.75 Q249.5938,154.75 248.3906,154.125 Q247.4063,153.625 246.7188,152.5547 Q246.0313,151.4844 246.0313,150.2031 L246.0313,149.0469 Q246.0313,147.7188 246.6484,146.5703 Q247.2656,145.4219 248.3594,144.8047 Q249.4531,144.1875 250.6875,144.1875 Q251.4219,144.1875 252.0703,144.3516 Q252.7188,144.5156 253.2656,144.875 Z " fill="#000000"/><text fill="#000000" font-family="sans-serif" font-size="14" lengthAdjust="spacing" textLength="65" x="264.5" y="154.7285">Candidato</text><line style="stroke:#181818;stroke-width:0.5;" x1="236.5" x2="331.5" y1="165" y2="165"/><line style="stroke:#181818;stroke-width:0.5;" x1="236.5" x2="331.5" y1="173" y2="173"/></g><!--class Test--><g id="elem_Test"><rect codeLine="5" fill="#F1F1F1" height="48" id="Test" rx="2.5" ry="2.5" style="stroke:#181818;stroke-width:0.5;" width="60" x="254" y="259"/><ellipse cx="269" cy="275" fill="#ADD1B2" rx="11" ry="11" style="stroke:#181818;stroke-width:1.0;"/><path d="M271.7656,270.875 Q271.9219,270.6563 272.1094,270.5469 Q272.2969,270.4375 272.5156,270.4375 Q272.8906,270.4375 273.125,270.6953 Q273.3594,270.9531 273.3594,271.5625 L273.3594,273.0156 Q273.3594,273.625 273.125,273.8906 Q272.8906,274.1563 272.5156,274.1563 Q272.1719,274.1563 271.9688,273.9531 Q271.7656,273.7656 271.6563,273.25 Q271.6094,272.8906 271.4219,272.7031 Q271.0938,272.3281 270.4844,272.1094 Q269.875,271.8906 269.25,271.8906 Q268.4844,271.8906 267.8516,272.2188 Q267.2188,272.5469 266.7266,273.2969 Q266.2344,274.0469 266.2344,275.0781 L266.2344,276.1719 Q266.2344,277.4063 267.125,278.2266 Q268.0156,279.0469 269.6094,279.0469 Q270.5469,279.0469 271.2031,278.7969 Q271.5938,278.6406 272.0156,278.2031 Q272.2813,277.9375 272.4297,277.8594 Q272.5781,277.7813 272.7813,277.7813 Q273.1094,277.7813 273.3672,278.0391 Q273.625,278.2969 273.625,278.6406 Q273.625,278.9844 273.2813,279.3906 Q272.7813,279.9688 271.9844,280.2969 Q270.9063,280.75 269.6094,280.75 Q268.0938,280.75 266.8906,280.125 Q265.9063,279.625 265.2188,278.5547 Q264.5313,277.4844 264.5313,276.2031 L264.5313,275.0469 Q264.5313,273.7188 265.1484,272.5703 Q265.7656,271.4219 266.8594,270.8047 Q267.9531,270.1875 269.1875,270.1875 Q269.9219,270.1875 270.5703,270.3516 Q271.2188,270.5156 271.7656,270.875 Z " fill="#000000"/><text fill="#000000" font-family="sans-serif" font-size="14" lengthAdjust="spacing" textLength="28" x="283" y="280.7285">Test</text><line style="stroke:#181818;stroke-width:0.5;" x1="255" x2="313" y1="291" y2="291"/><line style="stroke:#181818;stroke-width:0.5;" x1="255" x2="313" y1="299" y2="299"/></g><!--class Evaluacion--><g id="elem_Evaluacion"><rect codeLine="8" fill="#F1F1F1" height="48" id="Evaluacion" rx="2.5" ry="2.5" style="stroke:#181818;stroke-width:0.5;" width="101" x="61.5" y="259"/><ellipse cx="76.5" cy="275" fill="#ADD1B2" rx="11" ry="11" style="stroke:#181818;stroke-width:1.0;"/><path d="M79.2656,270.875 Q79.4219,270.6563 79.6094,270.5469 Q79.7969,270.4375 80.0156,270.4375 Q80.3906,270.4375 80.625,270.6953 Q80.8594,270.9531 80.8594,271.5625 L80.8594,273.0156 Q80.8594,273.625 80.625,273.8906 Q80.3906,274.1563 80.0156,274.1563 Q79.6719,274.1563 79.4688,273.9531 Q79.2656,273.7656 79.1563,273.25 Q79.1094,272.8906 78.9219,272.7031 Q78.5938,272.3281 77.9844,272.1094 Q77.375,271.8906 76.75,271.8906 Q75.9844,271.8906 75.3516,272.2188 Q74.7188,272.5469 74.2266,273.2969 Q73.7344,274.0469 73.7344,275.0781 L73.7344,276.1719 Q73.7344,277.4063 74.625,278.2266 Q75.5156,279.0469 77.1094,279.0469 Q78.0469,279.0469 78.7031,278.7969 Q79.0938,278.6406 79.5156,278.2031 Q79.7813,277.9375 79.9297,277.8594 Q80.0781,277.7813 80.2813,277.7813 Q80.6094,277.7813 80.8672,278.0391 Q81.125,278.2969 81.125,278.6406 Q81.125,278.9844 80.7813,279.3906 Q80.2813,279.9688 79.4844,280.2969 Q78.4063,280.75 77.1094,280.75 Q75.5938,280.75 74.3906,280.125 Q73.4063,279.625 72.7188,278.5547 Q72.0313,277.4844 72.0313,276.2031 L72.0313,275.0469 Q72.0313,273.7188 72.6484,272.5703 Q73.2656,271.4219 74.3594,270.8047 Q75.4531,270.1875 76.6875,270.1875 Q77.4219,270.1875 78.0703,270.3516 Q78.7188,270.5156 79.2656,270.875 Z " fill="#000000"/><text fill="#000000" font-family="sans-serif" font-size="14" lengthAdjust="spacing" textLength="69" x="90.5" y="280.7285">Evaluacion</text><line style="stroke:#181818;stroke-width:0.5;" x1="62.5" x2="161.5" y1="291" y2="291"/><line style="stroke:#181818;stroke-width:0.5;" x1="62.5" x2="161.5" y1="299" y2="299"/></g><!--class VideoTutorial--><g id="elem_VideoTutorial"><rect codeLine="11" fill="#F1F1F1" height="48" id="VideoTutorial" rx="2.5" ry="2.5" style="stroke:#181818;stroke-width:0.5;" width="116" x="349" y="259"/><ellipse cx="364" cy="275" fill="#ADD1B2" rx="11" ry="11" style="stroke:#181818;stroke-width:1.0;"/><path d="M366.7656,270.875 Q366.9219,270.6563 367.1094,270.5469 Q367.2969,270.4375 367.5156,270.4375 Q367.8906,270.4375 368.125,270.6953 Q368.3594,270.9531 368.3594,271.5625 L368.3594,273.0156 Q368.3594,273.625 368.125,273.8906 Q367.8906,274.1563 367.5156,274.1563 Q367.1719,274.1563 366.9688,273.9531 Q366.7656,273.7656 366.6563,273.25 Q366.6094,272.8906 366.4219,272.7031 Q366.0938,272.3281 365.4844,272.1094 Q364.875,271.8906 364.25,271.8906 Q363.4844,271.8906 362.8516,272.2188 Q362.2188,272.5469 361.7266,273.2969 Q361.2344,274.0469 361.2344,275.0781 L361.2344,276.1719 Q361.2344,277.4063 362.125,278.2266 Q363.0156,279.0469 364.6094,279.0469 Q365.5469,279.0469 366.2031,278.7969 Q366.5938,278.6406 367.0156,278.2031 Q367.2813,277.9375 367.4297,277.8594 Q367.5781,277.7813 367.7813,277.7813 Q368.1094,277.7813 368.3672,278.0391 Q368.625,278.2969 368.625,278.6406 Q368.625,278.9844 368.2813,279.3906 Q367.7813,279.9688 366.9844,280.2969 Q365.9063,280.75 364.6094,280.75 Q363.0938,280.75 361.8906,280.125 Q360.9063,279.625 360.2188,278.5547 Q359.5313,277.4844 359.5313,276.2031 L359.5313,275.0469 Q359.5313,273.7188 360.1484,272.5703 Q360.7656,271.4219 361.8594,270.8047 Q362.9531,270.1875 364.1875,270.1875 Q364.9219,270.1875 365.5703,270.3516 Q366.2188,270.5156 366.7656,270.875 Z " fill="#000000"/><text fill="#000000" font-family="sans-serif" font-size="14" lengthAdjust="spacing" textLength="84" x="378" y="280.7285">VideoTutorial</text><line style="stroke:#181818;stroke-width:0.5;" x1="350" x2="464" y1="291" y2="291"/><line style="stroke:#181818;stroke-width:0.5;" x1="350" x2="464" y1="299" y2="299"/></g><!--class Administracion--><g id="elem_Administracion"><rect codeLine="14" fill="#F1F1F1" height="48" id="Administracion" rx="2.5" ry="2.5" style="stroke:#181818;stroke-width:0.5;" width="124" x="7" y="133"/><ellipse cx="22" cy="149" fill="#ADD1B2" rx="11" ry="11" style="stroke:#181818;stroke-width:1.0;"/><path d="M24.7656,144.875 Q24.9219,144.6563 25.1094,144.5469 Q25.2969,144.4375 25.5156,144.4375 Q25.8906,144.4375 26.125,144.6953 Q26.3594,144.9531 26.3594,145.5625 L26.3594,147.0156 Q26.3594,147.625 26.125,147.8906 Q25.8906,148.1563 25.5156,148.1563 Q25.1719,148.1563 24.9688,147.9531 Q24.7656,147.7656 24.6563,147.25 Q24.6094,146.8906 24.4219,146.7031 Q24.0938,146.3281 23.4844,146.1094 Q22.875,145.8906 22.25,145.8906 Q21.4844,145.8906 20.8516,146.2188 Q20.2188,146.5469 19.7266,147.2969 Q19.2344,148.0469 19.2344,149.0781 L19.2344,150.1719 Q19.2344,151.4063 20.125,152.2266 Q21.0156,153.0469 22.6094,153.0469 Q23.5469,153.0469 24.2031,152.7969 Q24.5938,152.6406 25.0156,152.2031 Q25.2813,151.9375 25.4297,151.8594 Q25.5781,151.7813 25.7813,151.7813 Q26.1094,151.7813 26.3672,152.0391 Q26.625,152.2969 26.625,152.6406 Q26.625,152.9844 26.2813,153.3906 Q25.7813,153.9688 24.9844,154.2969 Q23.9063,154.75 22.6094,154.75 Q21.0938,154.75 19.8906,154.125 Q18.9063,153.625 18.2188,152.5547 Q17.5313,151.4844 17.5313,150.2031 L17.5313,149.0469 Q17.5313,147.7188 18.1484,146.5703 Q18.7656,145.4219 19.8594,144.8047 Q20.9531,144.1875 22.1875,144.1875 Q22.9219,144.1875 23.5703,144.3516 Q24.2188,144.5156 24.7656,144.875 Z " fill="#000000"/><text fill="#000000" font-family="sans-serif" font-size="14" lengthAdjust="spacing" textLength="92" x="36" y="154.7285">Administracion</text><line style="stroke:#181818;stroke-width:0.5;" x1="8" x2="130" y1="165" y2="165"/><line style="stroke:#181818;stroke-width:0.5;" x1="8" x2="130" y1="173" y2="173"/></g><!--class Sede--><g id="elem_Sede"><rect codeLine="17" fill="#F1F1F1" height="48" id="Sede" rx="2.5" ry="2.5" style="stroke:#181818;stroke-width:0.5;" width="65" x="251.5" y="7"/><ellipse cx="266.5" cy="23" fill="#ADD1B2" rx="11" ry="11" style="stroke:#181818;stroke-width:1.0;"/><path d="M269.2656,18.875 Q269.4219,18.6563 269.6094,18.5469 Q269.7969,18.4375 270.0156,18.4375 Q270.3906,18.4375 270.625,18.6953 Q270.8594,18.9531 270.8594,19.5625 L270.8594,21.0156 Q270.8594,21.625 270.625,21.8906 Q270.3906,22.1563 270.0156,22.1563 Q269.6719,22.1563 269.4688,21.9531 Q269.2656,21.7656 269.1563,21.25 Q269.1094,20.8906 268.9219,20.7031 Q268.5938,20.3281 267.9844,20.1094 Q267.375,19.8906 266.75,19.8906 Q265.9844,19.8906 265.3516,20.2188 Q264.7188,20.5469 264.2266,21.2969 Q263.7344,22.0469 263.7344,23.0781 L263.7344,24.1719 Q263.7344,25.4063 264.625,26.2266 Q265.5156,27.0469 267.1094,27.0469 Q268.0469,27.0469 268.7031,26.7969 Q269.0938,26.6406 269.5156,26.2031 Q269.7813,25.9375 269.9297,25.8594 Q270.0781,25.7813 270.2813,25.7813 Q270.6094,25.7813 270.8672,26.0391 Q271.125,26.2969 271.125,26.6406 Q271.125,26.9844 270.7813,27.3906 Q270.2813,27.9688 269.4844,28.2969 Q268.4063,28.75 267.1094,28.75 Q265.5938,28.75 264.3906,28.125 Q263.4063,27.625 262.7188,26.5547 Q262.0313,25.4844 262.0313,24.2031 L262.0313,23.0469 Q262.0313,21.7188 262.6484,20.5703 Q263.2656,19.4219 264.3594,18.8047 Q265.4531,18.1875 266.6875,18.1875 Q267.4219,18.1875 268.0703,18.3516 Q268.7188,18.5156 269.2656,18.875 Z " fill="#000000"/><text fill="#000000" font-family="sans-serif" font-size="14" lengthAdjust="spacing" textLength="33" x="280.5" y="28.7285">Sede</text><line style="stroke:#181818;stroke-width:0.5;" x1="252.5" x2="315.5" y1="39" y2="39"/><line style="stroke:#181818;stroke-width:0.5;" x1="252.5" x2="315.5" y1="47" y2="47"/></g><!--link Candidato to Test--><g id="link_Candidato_Test"><path codeLine="20" d="M284,181.03 C284,203.17 284,236.44 284,258.67 " fill="none" id="Candidato-Test" style="stroke:#181818;stroke-width:1.0;"/><text fill="#000000" font-family="sans-serif" font-size="13" lengthAdjust="spacing" textLength="43" x="285" y="225.4951">Realiza</text></g><!--link Candidato to VideoTutorial--><g id="link_Candidato_VideoTutorial"><path codeLine="21" d="M307.25,181.18 C316.52,190.44 327.28,201.21 337,211 C352.86,226.97 370.66,245.03 384.34,258.94 " fill="none" id="Candidato-VideoTutorial" style="stroke:#181818;stroke-width:1.0;"/><text fill="#000000" font-family="sans-serif" font-size="13" lengthAdjust="spacing" textLength="44" x="356" y="225.4951">Accede</text></g><!--link Candidato to Evaluacion--><g id="link_Candidato_Evaluacion"><path codeLine="22" d="M235.34,181.01 C219.08,189.55 201.24,199.89 186,211 C166.58,225.17 147.07,244.13 132.95,258.9 " fill="none" id="Candidato-Evaluacion" style="stroke:#181818;stroke-width:1.0;"/><text fill="#000000" font-family="sans-serif" font-size="13" lengthAdjust="spacing" textLength="88" x="187" y="225.4951">Es evaluado en</text></g><!--link Administracion to Evaluacion--><g id="link_Administracion_Evaluacion"><path codeLine="23" d="M63.56,181.1 C61.28,195.34 60.3,213.74 66,229 C70.13,240.07 77.74,250.36 85.59,258.87 " fill="none" id="Administracion-Evaluacion" style="stroke:#181818;stroke-width:1.0;"/><text fill="#000000" font-family="sans-serif" font-size="13" lengthAdjust="spacing" textLength="43" x="67" y="225.4951">Realiza</text></g><!--link Sede to Candidato--><g id="link_Sede_Candidato"><path codeLine="24" d="M284,55.03 C284,77.17 284,110.44 284,132.67 " fill="none" id="Sede-Candidato" style="stroke:#181818;stroke-width:1.0;"/><text fill="#000000" font-family="sans-serif" font-size="13" lengthAdjust="spacing" textLength="40" x="285" y="99.4951">Recoje</text></g><!--SRC=[VL4xRiCm3Drz2cwPSe5kGP0Bj45tHdeeLAYIAyePUgqUeHShQQl-16cy613VbzpHCRA0FWTGGLyWI9M98pbEFdYkUPpbtbufCbtWk7DA4ZhEaAxRtHT2f0gfuxF7nMOSmnSNcymMJUzio7-br1jNZWExyFETL6sTiS-5UYxLN0p9_YEa8BLCw6PmQloS7jXaeMlmq5yTQYw18uIcTuDkR6j00h5paByIhyOzD-R3DZSP2SbnUMFFOxU-P5ErFe88j-vnM37lT77v7Itn75KQzGKUXdz67CdQJVCKMvgYJKIwvQxx_NIKvNjIvdZ1BMhRsc07NOfQRL2h_JUnaxIZ-gmvkfjYMyfYRILik8ZRp6h_0W00]--></g></svg>