<svg xmlns="http://www.w3.org/2000/svg" xmlns:xlink="http://www.w3.org/1999/xlink" contentStyleType="text/css" data-diagram-type="DESCRIPTION" height="454px" preserveAspectRatio="none" style="width:527px;height:454px;background:#FFFFFF;" version="1.1" viewBox="0 0 527 454" width="527px" zoomAndPan="magnify"><defs/><g><!--cluster Visualizaci?n y Confirmaci?n de Documentos--><g id="cluster_Visualizaci&#243;n y Confirmaci&#243;n de Documentos"><path d="M154.58,6 L509.5448,6 A3.75,3.75 0 0 1 512.0448,8.5 L519.0448,28.2969 L518.36,28.2969 A2.5,2.5 0 0 1 520.86,30.7969 L520.86,377.5 A2.5,2.5 0 0 1 518.36,380 L154.58,380 A2.5,2.5 0 0 1 152.08,377.5 L152.08,8.5 A2.5,2.5 0 0 1 154.58,6 " fill="none" style="stroke:#000000;stroke-width:1.5;"/><line style="stroke:#000000;stroke-width:1.5;" x1="152.08" x2="519.0448" y1="28.2969" y2="28.2969"/><text fill="#000000" font-family="sans-serif" font-size="14" font-weight="bold" lengthAdjust="spacing" textLength="353.9648" x="156.08" y="20.9951">Visualizaci&#243;n y Confirmaci&#243;n de Documentos</text></g><g id="elem_VCD1"><ellipse cx="335.9687" cy="59.0037" fill="#F1F1F1" rx="75.9687" ry="17.5937" style="stroke:#181818;stroke-width:0.5;"/><text fill="#000000" font-family="sans-serif" font-size="14" lengthAdjust="spacing" textLength="108.4932" x="278.7221" y="62.7513">Listar Mensajes</text></g><g id="elem_VCD2"><ellipse cx="335.9742" cy="145.0048" fill="#F1F1F1" rx="71.2742" ry="16.6548" style="stroke:#181818;stroke-width:0.5;"/><text fill="#000000" font-family="sans-serif" font-size="14" lengthAdjust="spacing" textLength="96.2568" x="284.8458" y="148.7524">Abrir Mensaje</text></g><g id="elem_VCD3"><ellipse cx="335.966" cy="232.0032" fill="#F1F1F1" rx="80.366" ry="18.4732" style="stroke:#181818;stroke-width:0.5;"/><text fill="#000000" font-family="sans-serif" font-size="14" lengthAdjust="spacing" textLength="119.4102" x="274.732" y="235.343">Abrir Documento</text></g><g id="elem_VCD4"><ellipse cx="335.9688" cy="332.9978" fill="#F1F1F1" rx="144.8888" ry="31.3778" style="stroke:#181818;stroke-width:0.5;"/><text fill="#000000" font-family="sans-serif" font-size="14" lengthAdjust="spacing" textLength="259.8271" x="206.0552" y="335.8444">Confirmar Lectura/firmar Documento</text></g><!--entity Usuario--><g id="elem_Usuario"><ellipse cx="55.5421" cy="159.35" fill="#F1F1F1" rx="8" ry="8" style="stroke:#181818;stroke-width:0.5;"/><path d="M55.5421,167.35 L55.5421,194.35 M42.5421,175.35 L68.5421,175.35 M55.5421,194.35 L42.5421,209.35 M55.5421,194.35 L68.5421,209.35 " fill="none" style="stroke:#181818;stroke-width:0.5;"/><text fill="#000000" font-family="sans-serif" font-size="14" lengthAdjust="spacing" textLength="53.2041" x="28.94" y="223.8451">Usuario</text></g><!--entity Destinatario--><g id="elem_Destinatario"><ellipse cx="55.5389" cy="270.35" fill="#F1F1F1" rx="8" ry="8" style="stroke:#181818;stroke-width:0.5;"/><path d="M55.5389,278.35 L55.5389,305.35 M42.5389,286.35 L68.5389,286.35 M55.5389,305.35 L42.5389,320.35 M55.5389,305.35 L68.5389,320.35 " fill="none" style="stroke:#181818;stroke-width:0.5;"/><text fill="#000000" font-family="sans-serif" font-size="14" lengthAdjust="spacing" textLength="85.7979" x="12.64" y="334.8451">Destinatario</text></g><!--entity Administrador--><g id="elem_Administrador"><ellipse cx="55.54" cy="381.35" fill="#F1F1F1" rx="8" ry="8" style="stroke:#181818;stroke-width:0.5;"/><path d="M55.54,389.35 L55.54,416.35 M42.54,397.35 L68.54,397.35 M55.54,416.35 L42.54,431.35 M55.54,416.35 L68.54,431.35 " fill="none" style="stroke:#181818;stroke-width:0.5;"/><text fill="#000000" font-family="sans-serif" font-size="14" lengthAdjust="spacing" textLength="99.0801" x="6" y="445.8451">Administrador</text></g><!--link VCD2 to VCD1--><g id="link_VCD2_VCD1"><path d="M335.97,128.01 C335.97,113.23 335.97,97.87 335.97,82.85 " fill="none" id="VCD2-to-VCD1" style="stroke:#181818;stroke-width:1;stroke-dasharray:7.0,7.0;"/><polygon fill="#181818" points="335.97,76.85,331.97,85.85,335.97,81.85,339.97,85.85,335.97,76.85" style="stroke:#181818;stroke-width:1;"/><text fill="#000000" font-family="sans-serif" font-size="13" lengthAdjust="spacing" textLength="61.1851" x="293.97" y="107.0369">&#171;extend&#187;</text></g><!--link VCD3 to VCD2--><g id="link_VCD3_VCD2"><path d="M335.97,213.12 C335.97,197.93 335.97,182.76 335.97,168.07 " fill="none" id="VCD3-to-VCD2" style="stroke:#181818;stroke-width:1;stroke-dasharray:7.0,7.0;"/><polygon fill="#181818" points="335.97,162.07,331.97,171.07,335.97,167.07,339.97,171.07,335.97,162.07" style="stroke:#181818;stroke-width:1;"/><text fill="#000000" font-family="sans-serif" font-size="13" lengthAdjust="spacing" textLength="61.1851" x="293.97" y="192.1569">&#171;extend&#187;</text></g><!--link VCD4 to VCD3--><g id="link_VCD4_VCD3"><path d="M335.97,301.32 C335.97,284.78 335.97,271.09 335.97,256.93 " fill="none" id="VCD4-to-VCD3" style="stroke:#181818;stroke-width:1;stroke-dasharray:7.0,7.0;"/><polygon fill="#181818" points="335.97,250.93,331.97,259.93,335.97,255.93,339.97,259.93,335.97,250.93" style="stroke:#181818;stroke-width:1;"/><text fill="#000000" font-family="sans-serif" font-size="13" lengthAdjust="spacing" textLength="61.1851" x="293.97" y="280.6169">&#171;extend&#187;</text></g><!--reverse link Usuario to Destinatario--><g id="link_Usuario_Destinatario"><path d="M55.54,245.47 C55.54,256.78 55.54,250.1 55.54,261.41 " fill="none" id="Usuario-backto-Destinatario" style="stroke:#181818;stroke-width:1;"/><polygon fill="none" points="55.54,227.47,49.54,245.47,61.54,245.47,55.54,227.47" style="stroke:#181818;stroke-width:1;"/></g><!--reverse link Destinatario to Administrador--><g id="link_Destinatario_Administrador"><path d="M55.54,356.47 C55.54,367.78 55.54,361.1 55.54,372.41 " fill="none" id="Destinatario-backto-Administrador" style="stroke:#181818;stroke-width:1;"/><polygon fill="none" points="55.54,338.47,49.54,356.47,61.54,356.47,55.54,338.47" style="stroke:#181818;stroke-width:1;"/></g><!--reverse link VCD1 to Usuario--><g id="link_VCD1_Usuario"><path d="M265.7257,69.8326 C227.1857,77.5126 183.79,89.47 144.08,111 C120.82,123.62 98.61,143.53 82.38,160.08 " fill="none" id="VCD1-backto-Usuario" style="stroke:#181818;stroke-width:1;"/><polygon fill="#181818" points="271.61,68.66,262.0018,66.496,266.7064,69.6372,263.5653,74.3417,271.61,68.66" style="stroke:#181818;stroke-width:1;"/></g><!--link Usuario to VCD2--><g id="link_Usuario_VCD2"><path d="M82.48,184.9 C126.29,177.98 210.0635,164.7362 269.8835,155.2862 " fill="none" id="Usuario-to-VCD2" style="stroke:#181818;stroke-width:1;"/><polygon fill="#181818" points="275.81,154.35,266.2961,151.8033,270.8712,155.1302,267.5444,159.7054,275.81,154.35" style="stroke:#181818;stroke-width:1;"/></g><!--link Usuario to VCD3--><g id="link_Usuario_VCD3"><path d="M82.48,193.01 C124.47,199.49 202.6803,211.5745 262.2703,220.7745 " fill="none" id="Usuario-to-VCD3" style="stroke:#181818;stroke-width:1;"/><polygon fill="#181818" points="268.2,221.69,259.9157,216.3636,263.2585,220.9271,258.6951,224.2699,268.2,221.69" style="stroke:#181818;stroke-width:1;"/></g><!--link Usuario to VCD4--><g id="link_Usuario_VCD4"><path d="M82.61,217.78 C98.92,234.36 121.13,254.52 144.08,268 C173.66,285.38 202.8548,297.1534 234.6748,307.3234 " fill="none" id="Usuario-to-VCD4" style="stroke:#181818;stroke-width:1;"/><polygon fill="#181818" points="240.39,309.15,233.035,302.5999,235.6273,307.6278,230.5995,310.2202,240.39,309.15" style="stroke:#181818;stroke-width:1;"/></g><!--SRC=[VP1DJiCm48NtFiKe-r2HP8MYI5MpB4kw7-nf6MZioZyIlwVY25mCDxL3Kn1UUTwy-UnvUzfwy0OixnuyABOaFHijK7fZeRXp0IsR0j11kkTMJywpHZ_rpmKX3YYVS4TGR3ZExVaL9NzzQdY1bT5RjaEg5K5lP1X8U-CAU1CGJt0aqSNXDRl8WrlI3X_9ZUziLltrtBMyjpoPigSQFSSBN7NZ4Dn0szAp9wswxY_2z97Cg3EZJepg7qRUoy8wXXWiBbBv2zjaR9EmzHpx8KGA6zhtSXxiUJ5sbsfW7MEog8oTvifGdfR-KKv2TIdKbqBp3G00]--></g></svg>