<svg xmlns="http://www.w3.org/2000/svg" xmlns:xlink="http://www.w3.org/1999/xlink" contentStyleType="text/css" height="540px" preserveAspectRatio="none" style="width:528px;height:540px;background:#FFFFFF;" version="1.1" viewBox="0 0 528 540" width="528px" zoomAndPan="magnify"><defs/><g><!--cluster Visualizaci?n y Confirmaci?n de Documentos--><g id="cluster_Visualización y Confirmación de Documentos"><path d="M154.5,6 L509.4648,6 A3.75,3.75 0 0 1 511.9648,8.5 L518.9648,28.2969 L518.5,28.2969 A2.5,2.5 0 0 1 521,30.7969 L521,457.5 A2.5,2.5 0 0 1 518.5,460 L154.5,460 A2.5,2.5 0 0 1 152,457.5 L152,8.5 A2.5,2.5 0 0 1 154.5,6 " fill="none" style="stroke:#000000;stroke-width:1.5;"/><line style="stroke:#000000;stroke-width:1.5;" x1="152" x2="518.9648" y1="28.2969" y2="28.2969"/><text fill="#000000" font-family="sans-serif" font-size="14" font-weight="bold" lengthAdjust="spacing" textLength="353.9648" x="156" y="20.9951">Visualización y Confirmación de Documentos</text></g><g id="elem_VCD1"><ellipse cx="335.7742" cy="357.1548" fill="#F1F1F1" rx="71.2742" ry="16.6548" style="stroke:#181818;stroke-width:0.5;"/><text fill="#000000" font-family="sans-serif" font-size="14" lengthAdjust="spacing" textLength="96.2568" x="284.6458" y="360.9024">Abrir Mensaje</text></g><g id="elem_VCD2"><ellipse cx="335.866" cy="174.9732" fill="#F1F1F1" rx="80.366" ry="18.4732" style="stroke:#181818;stroke-width:0.5;"/><text fill="#000000" font-family="sans-serif" font-size="14" lengthAdjust="spacing" textLength="119.4102" x="274.632" y="178.313">Abrir Documento</text></g><g id="elem_VCD3"><ellipse cx="335.8888" cy="72.8778" fill="#F1F1F1" rx="144.8888" ry="31.3778" style="stroke:#181818;stroke-width:0.5;"/><text fill="#000000" font-family="sans-serif" font-size="14" lengthAdjust="spacing" textLength="259.8271" x="205.9752" y="75.7244">Confirmar Lectura/firmar Documento</text></g><g id="elem_VCD4"><ellipse cx="335.8179" cy="275.1636" fill="#F1F1F1" rx="138.8179" ry="30.1636" style="stroke:#181818;stroke-width:0.5;"/><text fill="#000000" font-family="sans-serif" font-size="14" lengthAdjust="spacing" textLength="247.126" x="212.2549" y="278.0103">Cerrar Visualización de Documento</text></g><g id="elem_VCD5"><ellipse cx="336.2389" cy="425.9478" fill="#F1F1F1" rx="75.2389" ry="17.4478" style="stroke:#181818;stroke-width:0.5;"/><text fill="#000000" font-family="sans-serif" font-size="14" lengthAdjust="spacing" textLength="106.627" x="279.9254" y="429.6953">Cerrar Mensaje</text></g><!--entity Usuario--><g id="elem_Usuario"><ellipse cx="55.6021" cy="245.5" fill="#F1F1F1" rx="8" ry="8" style="stroke:#181818;stroke-width:0.5;"/><path d="M55.6021,253.5 L55.6021,280.5 M42.6021,261.5 L68.6021,261.5 M55.6021,280.5 L42.6021,295.5 M55.6021,280.5 L68.6021,295.5 " fill="none" style="stroke:#181818;stroke-width:0.5;"/><text fill="#000000" font-family="sans-serif" font-size="14" lengthAdjust="spacing" textLength="53.2041" x="29" y="309.9951">Usuario</text></g><!--entity Destinatario--><g id="elem_Destinatario"><ellipse cx="55.3989" cy="356.5" fill="#F1F1F1" rx="8" ry="8" style="stroke:#181818;stroke-width:0.5;"/><path d="M55.3989,364.5 L55.3989,391.5 M42.3989,372.5 L68.3989,372.5 M55.3989,391.5 L42.3989,406.5 M55.3989,391.5 L68.3989,406.5 " fill="none" style="stroke:#181818;stroke-width:0.5;"/><text fill="#000000" font-family="sans-serif" font-size="14" lengthAdjust="spacing" textLength="85.7979" x="12.5" y="420.9951">Destinatario</text></g><!--entity Administrador--><g id="elem_Administrador"><ellipse cx="55.54" cy="467.5" fill="#F1F1F1" rx="8" ry="8" style="stroke:#181818;stroke-width:0.5;"/><path d="M55.54,475.5 L55.54,502.5 M42.54,483.5 L68.54,483.5 M55.54,502.5 L42.54,517.5 M55.54,502.5 L68.54,517.5 " fill="none" style="stroke:#181818;stroke-width:0.5;"/><text fill="#000000" font-family="sans-serif" font-size="14" lengthAdjust="spacing" textLength="99.0801" x="6" y="531.9951">Administrador</text></g><!--link VCD3 to VCD2--><g id="link_VCD3_VCD2"><path d="M336,104.81 C336,121.72 336,135.91 336,150.29 " fill="none" id="VCD3-to-VCD2" style="stroke:#181818;stroke-width:1;stroke-dasharray:7.0,7.0;"/><polygon fill="#181818" points="336,156.29,340,147.29,336,151.29,332,147.29,336,156.29" style="stroke:#181818;stroke-width:1;"/><text fill="#000000" font-family="sans-serif" font-size="13" lengthAdjust="spacing" textLength="61.1851" x="294" y="135.0669">«extend»</text></g><!--link VCD4 to VCD2--><g id="link_VCD4_VCD2"><path d="M336,245 C336,228.31 336,214.07 336,199.66 " fill="none" id="VCD4-to-VCD2" style="stroke:#181818;stroke-width:1;stroke-dasharray:7.0,7.0;"/><polygon fill="#181818" points="336,193.66,332,202.66,336,198.66,340,202.66,336,193.66" style="stroke:#181818;stroke-width:1;"/><text fill="#000000" font-family="sans-serif" font-size="13" lengthAdjust="spacing" textLength="61.1851" x="294" y="223.8169">«extend»</text></g><!--reverse link Usuario to Destinatario--><g id="link_Usuario_Destinatario"><path d="M55.5,331.13 C55.5,342.7 55.5,336.27 55.5,347.84 " fill="none" id="Usuario-backto-Destinatario" style="stroke:#181818;stroke-width:1;"/><polygon fill="none" points="55.5,313.13,49.5,331.13,61.5,331.13,55.5,313.13" style="stroke:#181818;stroke-width:1;"/></g><!--reverse link Destinatario to Administrador--><g id="link_Destinatario_Administrador"><path d="M55.5,442.13 C55.5,453.7 55.5,447.27 55.5,458.84 " fill="none" id="Destinatario-backto-Administrador" style="stroke:#181818;stroke-width:1;"/><polygon fill="none" points="55.5,424.13,49.5,442.13,61.5,442.13,55.5,424.13" style="stroke:#181818;stroke-width:1;"/></g><!--link Usuario to VCD1--><g id="link_Usuario_VCD1"><path d="M82.32,291.64 C99.24,301.84 122.19,314.36 144,322 C184.88,336.33 226.9058,344.2733 264.5358,349.4433 " fill="none" id="Usuario-to-VCD1" style="stroke:#181818;stroke-width:1;"/><polygon fill="#181818" points="270.48,350.26,262.1082,345.0722,265.5265,349.5794,261.0193,352.9978,270.48,350.26" style="stroke:#181818;stroke-width:1;"/></g><!--link Usuario to VCD2--><g id="link_Usuario_VCD2"><path d="M82.13,258.84 C99.16,248.63 122.31,235.76 144,227 C186.86,209.69 231.5652,197.576 269.8852,188.686 " fill="none" id="Usuario-to-VCD2" style="stroke:#181818;stroke-width:1;"/><polygon fill="#181818" points="275.73,187.33,266.0589,185.4674,270.8594,188.46,267.8668,193.2604,275.73,187.33" style="stroke:#181818;stroke-width:1;"/></g><!--link Usuario to VCD3--><g id="link_Usuario_VCD3"><path d="M72.49,236.82 C87.02,206.39 111.21,164.76 144,139 C169.38,119.06 195.4873,106.7952 225.8173,96.8752 " fill="none" id="Usuario-to-VCD3" style="stroke:#181818;stroke-width:1;"/><polygon fill="#181818" points="231.52,95.01,221.7225,94.006,226.7677,96.5643,224.2094,101.6096,231.52,95.01" style="stroke:#181818;stroke-width:1;"/></g><!--link Usuario to VCD4--><g id="link_Usuario_VCD4"><path d="M82.2,275 C108.93,275 146.93,275 190.8,275 " fill="none" id="Usuario-to-VCD4" style="stroke:#181818;stroke-width:1;"/><polygon fill="#181818" points="196.8,275,187.8,271,191.8,275,187.8,279,196.8,275" style="stroke:#181818;stroke-width:1;"/></g><!--link Usuario to VCD5--><g id="link_Usuario_VCD5"><path d="M82.03,302.28 C89.71,310.91 97.95,320.65 105,330 C124.37,355.7 117.29,373.05 144,391 C178.14,413.94 217.1409,422.4592 254.8709,425.6192 " fill="none" id="Usuario-to-VCD5" style="stroke:#181818;stroke-width:1;"/><polygon fill="#181818" points="260.85,426.12,252.2152,421.3828,255.8674,425.7027,251.5476,429.3549,260.85,426.12" style="stroke:#181818;stroke-width:1;"/></g><!--SRC=[ZL7BJiCm4BpxArQv1qIRNb0KgMgES6plYxqj2usDrevKNb_59_1Zc117gU60JxipExEQzP7s0O83uSDz0CD2Eh2p2dLm0iNMzoZi2a0FOvsebdnWYs7Yvu1IJwWVyK1Gx3ZgZlo2cZy_B3p3njazIpVsXg1rkk_81kSBU5KGN-z9eu_YzPsmm2rPZmyqRDbjsgk_PYQJDBKudqfR1MvYn5xmScn_2PU3yBk0YsPmWckeQpe5igPfCbiIYIPPo7ceP5ibs-h_jbdmbNfNQlm6gD_AyvFFcu5Tcuuj-o1ed4owicn-ZfW1YnnOva2L0wil]--></g></svg>