<?xml version="1.0" encoding="us-ascii" standalone="no"?><svg xmlns="http://www.w3.org/2000/svg" xmlns:xlink="http://www.w3.org/1999/xlink" contentStyleType="text/css" height="470px" preserveAspectRatio="none" style="width:456px;height:470px;background:#FFFFFF;" version="1.1" viewBox="0 0 456 470" width="456px" zoomAndPan="magnify"><defs/><g><!--cluster Visualizaci?n y Confirmaci?n de Mensajes--><g id="cluster_Visualizaci&#243;n y Confirmaci&#243;n de Mensajes"><path d="M142.5,6 L436.5,6 A3.75,3.75 0 0 1 439,8.5 L446,29.6094 L446.5,29.6094 A2.5,2.5 0 0 1 449,32.1094 L449,334.5 A2.5,2.5 0 0 1 446.5,337 L142.5,337 A2.5,2.5 0 0 1 140,334.5 L140,8.5 A2.5,2.5 0 0 1 142.5,6 " fill="none" style="stroke:#000000;stroke-width:1.5;"/><line style="stroke:#000000;stroke-width:1.5;" x1="140" x2="446" y1="29.6094" y2="29.6094"/><text fill="#000000" font-family="sans-serif" font-size="14" font-weight="bold" lengthAdjust="spacing" textLength="293" x="144" y="22.5332">Visualizaci&#243;n y Confirmaci&#243;n de Mensajes</text></g><g id="elem_VCD1"><ellipse cx="294.1111" cy="304.2222" fill="#F1F1F1" rx="74.1111" ry="17.2222" style="stroke:#181818;stroke-width:0.5;"/><text fill="#000000" font-family="sans-serif" font-size="14" lengthAdjust="spacing" textLength="99" x="241.6111" y="308.7388">Listar Mensajes</text></g><g id="elem_VCD2"><ellipse cx="293.8041" cy="164.8608" fill="#F1F1F1" rx="69.8041" ry="16.3608" style="stroke:#181818;stroke-width:0.5;"/><text fill="#000000" font-family="sans-serif" font-size="14" lengthAdjust="spacing" textLength="87" x="247.3041" y="169.3774">Abrir Mensaje</text></g><g id="elem_VCD3"><ellipse cx="294.2363" cy="234.2473" fill="#F1F1F1" rx="76.7363" ry="17.7473" style="stroke:#181818;stroke-width:0.5;"/><text fill="#000000" font-family="sans-serif" font-size="14" lengthAdjust="spacing" textLength="106" x="238.7006" y="238.6555">Abrir Documento</text></g><g id="elem_VCD4"><ellipse cx="293.8762" cy="68.9752" fill="#F1F1F1" rx="122.8762" ry="26.9752" style="stroke:#181818;stroke-width:0.5;"/><text fill="#000000" font-family="sans-serif" font-size="14" lengthAdjust="spacing" textLength="211" x="188.3762" y="72.7038">Confirmar Lectura/firmar Mensaje</text></g><!--entity Usuario--><g id="elem_Usuario"><ellipse cx="49.5" cy="282.5" fill="#F1F1F1" rx="8" ry="8" style="stroke:#181818;stroke-width:0.5;"/><path d="M49.5,290.5 L49.5,317.5 M36.5,298.5 L62.5,298.5 M49.5,317.5 L36.5,332.5 M49.5,317.5 L62.5,332.5 " fill="none" style="stroke:#181818;stroke-width:0.5;"/><text fill="#000000" font-family="sans-serif" font-size="14" lengthAdjust="spacing" textLength="43" x="28" y="348.5332">Gestor</text></g><!--entity Destinatario--><g id="elem_Destinatario"><ellipse cx="49.5" cy="169.5" fill="#F1F1F1" rx="8" ry="8" style="stroke:#181818;stroke-width:0.5;"/><path d="M49.5,177.5 L49.5,204.5 M36.5,185.5 L62.5,185.5 M49.5,204.5 L36.5,219.5 M49.5,204.5 L62.5,219.5 " fill="none" style="stroke:#181818;stroke-width:0.5;"/><text fill="#000000" font-family="sans-serif" font-size="14" lengthAdjust="spacing" textLength="76" x="11.5" y="235.5332">Destinatario</text></g><!--entity Administrador--><g id="elem_Administrador"><ellipse cx="49.5" cy="395.5" fill="#F1F1F1" rx="8" ry="8" style="stroke:#181818;stroke-width:0.5;"/><path d="M49.5,403.5 L49.5,430.5 M36.5,411.5 L62.5,411.5 M49.5,430.5 L36.5,445.5 M49.5,430.5 L62.5,445.5 " fill="none" style="stroke:#181818;stroke-width:0.5;"/><text fill="#000000" font-family="sans-serif" font-size="14" lengthAdjust="spacing" textLength="87" x="6" y="461.5332">Administrador</text></g><!--link VCD4 to VCD2--><g id="link_VCD4_VCD2"><path d="M294,96.04 C294,112.83 294,127.88 294,142.28 " fill="none" id="VCD4-to-VCD2" style="stroke:#181818;stroke-width:1.0;stroke-dasharray:7.0,7.0;"/><polygon fill="#181818" points="294,148.28,298,139.28,294,143.28,290,139.28,294,148.28" style="stroke:#181818;stroke-width:1.0;"/><text fill="#000000" font-family="sans-serif" font-size="13" lengthAdjust="spacing" textLength="55" x="254.5" y="127.7451">&#171;include&#187;</text></g><!--reverse link Destinatario to Usuario--><g id="link_Destinatario_Usuario"><path d="M49.5,257.16 C49.5,268.68 49.5,262.2 49.5,273.71 " fill="none" id="Destinatario-backto-Usuario" style="stroke:#181818;stroke-width:1.0;"/><polygon fill="none" points="49.5,239.16,43.5,257.16,55.5,257.16,49.5,239.16" style="stroke:#181818;stroke-width:1.0;"/></g><!--reverse link Usuario to Administrador--><g id="link_Usuario_Administrador"><path d="M49.5,370.16 C49.5,381.68 49.5,375.2 49.5,386.71 " fill="none" id="Usuario-backto-Administrador" style="stroke:#181818;stroke-width:1.0;"/><polygon fill="none" points="49.5,352.16,43.5,370.16,55.5,370.16,49.5,352.16" style="stroke:#181818;stroke-width:1.0;"/></g><!--reverse link VCD1 to Destinatario--><g id="link_VCD1_Destinatario"><path d="M220.4221,295.9707 C190.4521,290.9607 161.24,283.43 132,269 C116.04,261.13 100.59,249.45 87.51,237.94 " fill="none" id="VCD1-backto-Destinatario" style="stroke:#181818;stroke-width:1.0;"/><polygon fill="#181818" points="226.34,296.96,218.1227,291.5308,221.4084,296.1356,216.8037,299.4213,226.34,296.96" style="stroke:#181818;stroke-width:1.0;"/></g><!--link Destinatario to VCD2--><g id="link_Destinatario_VCD2"><path d="M87.59,194.65 C126.47,189.04 182.1816,180.9976 227.8116,174.4076 " fill="none" id="Destinatario-to-VCD2" style="stroke:#181818;stroke-width:1.0;"/><polygon fill="#181818" points="233.75,173.55,224.2707,170.8775,228.8013,174.2647,225.4142,178.7954,233.75,173.55" style="stroke:#181818;stroke-width:1.0;"/></g><!--link Destinatario to VCD3--><g id="link_Destinatario_VCD3"><path d="M87.59,205.2 C124.88,210.43 177.1683,217.7559 222.1183,224.0659 " fill="none" id="Destinatario-to-VCD3" style="stroke:#181818;stroke-width:1.0;"/><polygon fill="#181818" points="228.06,224.9,219.7034,219.6877,223.1085,224.2049,218.5913,227.61,228.06,224.9" style="stroke:#181818;stroke-width:1.0;"/></g><!--link Destinatario to VCD4--><g id="link_Destinatario_VCD4"><path d="M87.86,163.82 C101.08,152.3 116.53,140.17 132,131 C159.7,114.58 186.8655,103.0267 215.6355,92.8167 " fill="none" id="Destinatario-to-VCD4" style="stroke:#181818;stroke-width:1.0;"/><polygon fill="#181818" points="221.29,90.81,211.4705,90.0504,216.5779,92.4822,214.1461,97.5897,221.29,90.81" style="stroke:#181818;stroke-width:1.0;"/></g><!--SRC=[RL1BRi8m4Dtx5AFiqwh0geeY8IAnWINif_P0foGs6jkBVZWLH-Z5QaA2aYhUZETzvbVJ8K1m87ny3s1OI0TsLg4EJY1Raqyn0_Imyn65NSzKYM6BuOQr_11GwepwX4U2RC_9L_CNQlwzMlY4bRC7bgRB3S6MhCSFyXbyAqWlUjBeatN3FbKRyAdBVbMzZ5NBD-67gDVCfZILqx4X6rolcezL_MG2ctI5AFZSfV-ABrhRxGDFPTiDNg4esEew6YfBTL5gU0qeVlB7-RhOOalJi4rB2XedOqiUy_A-x1Y-exD9T3w9Blu0]--></g></svg>