<svg xmlns="http://www.w3.org/2000/svg" xmlns:xlink="http://www.w3.org/1999/xlink" contentStyleType="text/css" height="433px" preserveAspectRatio="none" style="width:515px;height:433px;background:#FFFFFF;" version="1.1" viewBox="0 0 515 433" width="515px" zoomAndPan="magnify"><defs/><g><!--cluster Visualizaci?n y Confirmaci?n de Documentos--><g id="cluster_Visualización y Confirmación de Documentos"><path d="M141.72,6 L496.6848,6 A3.75,3.75 0 0 1 499.1848,8.5 L506.1848,28.2969 L505.5,28.2969 A2.5,2.5 0 0 1 508,30.7969 L508,423.5 A2.5,2.5 0 0 1 505.5,426 L141.72,426 A2.5,2.5 0 0 1 139.22,423.5 L139.22,8.5 A2.5,2.5 0 0 1 141.72,6 " fill="none" style="stroke:#000000;stroke-width:1.5;"/><line style="stroke:#000000;stroke-width:1.5;" x1="139.22" x2="506.1848" y1="28.2969" y2="28.2969"/><text fill="#000000" font-family="sans-serif" font-size="14" font-weight="bold" lengthAdjust="spacing" textLength="353.9648" x="143.22" y="20.9951">Visualización y Confirmación de Documentos</text></g><g id="elem_VCD1"><ellipse cx="323.1142" cy="393.0048" fill="#F1F1F1" rx="71.2742" ry="16.6548" style="stroke:#181818;stroke-width:0.5;"/><text fill="#000000" font-family="sans-serif" font-size="14" lengthAdjust="spacing" textLength="96.2568" x="271.9858" y="396.7524">Abrir Mensaje</text></g><g id="elem_VCD2"><ellipse cx="323.106" cy="323.0032" fill="#F1F1F1" rx="80.366" ry="18.4732" style="stroke:#181818;stroke-width:0.5;"/><text fill="#000000" font-family="sans-serif" font-size="14" lengthAdjust="spacing" textLength="119.4102" x="261.872" y="326.343">Abrir Documento</text></g><g id="elem_VCD3"><ellipse cx="323.1088" cy="237.9978" fill="#F1F1F1" rx="144.8888" ry="31.3778" style="stroke:#181818;stroke-width:0.5;"/><text fill="#000000" font-family="sans-serif" font-size="14" lengthAdjust="spacing" textLength="259.8271" x="193.1952" y="240.8444">Confirmar Lectura/firmar Documento</text></g><g id="elem_VCD4"><ellipse cx="323.1079" cy="141.0036" fill="#F1F1F1" rx="138.8179" ry="30.1636" style="stroke:#181818;stroke-width:0.5;"/><text fill="#000000" font-family="sans-serif" font-size="14" lengthAdjust="spacing" textLength="247.126" x="199.5449" y="143.8503">Cerrar Visualización de Documento</text></g><g id="elem_VCD5"><ellipse cx="323.1089" cy="57.9978" fill="#F1F1F1" rx="75.2389" ry="17.4478" style="stroke:#181818;stroke-width:0.5;"/><text fill="#000000" font-family="sans-serif" font-size="14" lengthAdjust="spacing" textLength="106.627" x="266.7954" y="61.7453">Cerrar Mensaje</text></g><!--entity Responsable--><g id="elem_Responsable"><ellipse cx="50.6113" cy="208.35" fill="#F1F1F1" rx="8" ry="8" style="stroke:#181818;stroke-width:0.5;"/><path d="M50.6113,216.35 L50.6113,243.35 M37.6113,224.35 L63.6113,224.35 M50.6113,243.35 L37.6113,258.35 M50.6113,243.35 L63.6113,258.35 " fill="none" style="stroke:#181818;stroke-width:0.5;"/><text fill="#000000" font-family="sans-serif" font-size="14" lengthAdjust="spacing" textLength="89.2227" x="6" y="272.8451">Responsable</text></g><!--entity Destinatario--><g id="elem_Destinatario"><ellipse cx="50.6089" cy="319.35" fill="#F1F1F1" rx="8" ry="8" style="stroke:#181818;stroke-width:0.5;"/><path d="M50.6089,327.35 L50.6089,354.35 M37.6089,335.35 L63.6089,335.35 M50.6089,354.35 L37.6089,369.35 M50.6089,354.35 L63.6089,369.35 " fill="none" style="stroke:#181818;stroke-width:0.5;"/><text fill="#000000" font-family="sans-serif" font-size="14" lengthAdjust="spacing" textLength="85.7979" x="7.71" y="383.8451">Destinatario</text></g><!--reverse link Responsable to Destinatario--><g id="link_Responsable_Destinatario"><path d="M50.61,294.47 C50.61,305.78 50.61,299.1 50.61,310.41 " fill="none" id="Responsable-backto-Destinatario" style="stroke:#181818;stroke-width:1.0;"/><polygon fill="none" points="50.61,276.47,44.61,294.47,56.61,294.47,50.61,276.47" style="stroke:#181818;stroke-width:1.0;"/></g><!--link Responsable to VCD1--><g id="link_Responsable_VCD1"><path d="M83.43,276.44 C87.55,281.89 91.59,287.51 95.22,293 C113.67,320.86 104.1,339.48 131.22,359 C165.92,383.97 207.1803,392.1881 245.9903,394.4681 " fill="none" id="Responsable-to-VCD1" style="stroke:#181818;stroke-width:1.0;"/><polygon fill="#181818" points="251.98,394.82,243.2301,390.2991,246.9886,394.5268,242.7609,398.2853,251.98,394.82" style="stroke:#181818;stroke-width:1.0;"/></g><!--link Responsable to VCD2--><g id="link_Responsable_VCD2"><path d="M95.59,268.99 C106.8,275.77 119.11,282.32 131.22,287 C168.65,301.48 206.5924,309.4068 242.8424,314.6768 " fill="none" id="Responsable-to-VCD2" style="stroke:#181818;stroke-width:1.0;"/><polygon fill="#181818" points="248.78,315.54,240.4491,310.2868,243.832,314.8207,239.2982,318.2036,248.78,315.54" style="stroke:#181818;stroke-width:1.0;"/></g><!--link Responsable to VCD3--><g id="link_Responsable_VCD3"><path d="M95.67,238 C118.5,238 141.82,238 171.74,238 " fill="none" id="Responsable-to-VCD3" style="stroke:#181818;stroke-width:1.0;"/><polygon fill="#181818" points="177.74,238,168.74,234,172.74,238,168.74,242,177.74,238" style="stroke:#181818;stroke-width:1.0;"/></g><!--link Responsable to VCD4--><g id="link_Responsable_VCD4"><path d="M95.37,207.77 C106.69,200.89 119.11,194.11 131.22,189 C158.62,177.45 183.6188,169.6638 212.3688,162.4838 " fill="none" id="Responsable-to-VCD4" style="stroke:#181818;stroke-width:1.0;"/><polygon fill="#181818" points="218.19,161.03,208.489,159.3299,213.339,162.2415,210.4274,167.0915,218.19,161.03" style="stroke:#181818;stroke-width:1.0;"/></g><!--link Responsable to VCD5--><g id="link_Responsable_VCD5"><path d="M62.37,199.61 C73.83,166.09 95.36,118.88 131.22,93 C164.69,68.85 203.857,60.252 241.847,57.382 " fill="none" id="Responsable-to-VCD5" style="stroke:#181818;stroke-width:1.0;"/><polygon fill="#181818" points="247.83,56.93,238.5542,53.6193,242.8442,57.3067,239.1569,61.5966,247.83,56.93" style="stroke:#181818;stroke-width:1.0;"/></g><!--SRC=[RL2x3i8m3Dpp5LRt2l7Q41AY8omCx2OOCBG9SjA1rrVn2VmO4L0KIhBT-Iw-SqaR3zw2y7RdOSr2shCr2hMt0jc2tD4QXwkICa074Mua1JdF1ZqAsvSc9fGweZxWbY1Rigknv3DgVjmDd61gpOQb-k0rGM5rNP7nrcLmKH1UxKYZ2-R9IbXWJc7r_fraEIswASttaqRL-rKrMmLceMejsFd0FsE_PIIH86lLY6Ctna7Is0e_L3UbedF2w9h_dYuUvldutJX1zb9aFqKEKkJm2G00]--></g></svg>