<?xml version="1.0" encoding="us-ascii" standalone="no"?><svg xmlns="http://www.w3.org/2000/svg" xmlns:xlink="http://www.w3.org/1999/xlink" contentStyleType="text/css" height="422px" preserveAspectRatio="none" style="width:469px;height:422px;background:#FFFFFF;" version="1.1" viewBox="0 0 469 422" width="469px" zoomAndPan="magnify"><defs/><g><!--cluster Visualizaci?n y Confirmaci?n de Documentos--><g id="cluster_Visualizaci&#243;n y Confirmaci&#243;n de Documentos"><path d="M135.5,6 L449.5,6 A3.75,3.75 0 0 1 452,8.5 L459,29.6094 L459.5,29.6094 A2.5,2.5 0 0 1 462,32.1094 L462,412.5 A2.5,2.5 0 0 1 459.5,415 L135.5,415 A2.5,2.5 0 0 1 133,412.5 L133,8.5 A2.5,2.5 0 0 1 135.5,6 " fill="none" style="stroke:#000000;stroke-width:1.5;"/><line style="stroke:#000000;stroke-width:1.5;" x1="133" x2="459" y1="29.6094" y2="29.6094"/><text fill="#000000" font-family="sans-serif" font-size="14" font-weight="bold" lengthAdjust="spacing" textLength="313" x="137" y="22.5332">Visualizaci&#243;n y Confirmaci&#243;n de Documentos</text></g><g id="elem_VCD1"><ellipse cx="296.8041" cy="58.8608" fill="#F1F1F1" rx="69.8041" ry="16.3608" style="stroke:#181818;stroke-width:0.5;"/><text fill="#000000" font-family="sans-serif" font-size="14" lengthAdjust="spacing" textLength="87" x="250.3041" y="63.3774">Abrir Mensaje</text></g><g id="elem_VCD2"><ellipse cx="297.2363" cy="128.2473" fill="#F1F1F1" rx="76.7363" ry="17.7473" style="stroke:#181818;stroke-width:0.5;"/><text fill="#000000" font-family="sans-serif" font-size="14" lengthAdjust="spacing" textLength="106" x="241.7006" y="132.6555">Abrir Documento</text></g><g id="elem_VCD3"><ellipse cx="296.7597" cy="209.7519" fill="#F1F1F1" rx="131.7597" ry="28.7519" style="stroke:#181818;stroke-width:0.5;"/><text fill="#000000" font-family="sans-serif" font-size="14" lengthAdjust="spacing" textLength="230" x="181.7597" y="213.4805">Confirmar Lectura/firmar Documento</text></g><g id="elem_VCD4"><ellipse cx="297.0083" cy="302.0017" fill="#F1F1F1" rx="128.0083" ry="28.0017" style="stroke:#181818;stroke-width:0.5;"/><text fill="#000000" font-family="sans-serif" font-size="14" lengthAdjust="spacing" textLength="222" x="186.0083" y="305.7302">Cerrar Visualizaci&#243;n de Documento</text></g><g id="elem_VCD5"><ellipse cx="297.2427" cy="382.1485" fill="#F1F1F1" rx="73.7427" ry="17.1485" style="stroke:#181818;stroke-width:0.5;"/><text fill="#000000" font-family="sans-serif" font-size="14" lengthAdjust="spacing" textLength="98" x="245.2427" y="386.6651">Cerrar Mensaje</text></g><!--entity Responsable--><g id="elem_Responsable"><ellipse cx="47.5" cy="179.5" fill="#F1F1F1" rx="8" ry="8" style="stroke:#181818;stroke-width:0.5;"/><path d="M47.5,187.5 L47.5,214.5 M34.5,195.5 L60.5,195.5 M47.5,214.5 L34.5,229.5 M47.5,214.5 L60.5,229.5 " fill="none" style="stroke:#181818;stroke-width:0.5;"/><text fill="#000000" font-family="sans-serif" font-size="14" lengthAdjust="spacing" textLength="83" x="6" y="245.5332">Responsable</text></g><!--entity Destinatario--><g id="elem_Destinatario"><ellipse cx="47.5" cy="292.5" fill="#F1F1F1" rx="8" ry="8" style="stroke:#181818;stroke-width:0.5;"/><path d="M47.5,300.5 L47.5,327.5 M34.5,308.5 L60.5,308.5 M47.5,327.5 L34.5,342.5 M47.5,327.5 L60.5,342.5 " fill="none" style="stroke:#181818;stroke-width:0.5;"/><text fill="#000000" font-family="sans-serif" font-size="14" lengthAdjust="spacing" textLength="76" x="9.5" y="358.5332">Destinatario</text></g><!--reverse link Responsable to Destinatario--><g id="link_Responsable_Destinatario"><path d="M47.5,267.16 C47.5,278.68 47.5,272.2 47.5,283.71 " fill="none" id="Responsable-backto-Destinatario" style="stroke:#181818;stroke-width:1.0;"/><polygon fill="none" points="47.5,249.16,41.5,267.16,53.5,267.16,47.5,249.16" style="stroke:#181818;stroke-width:1.0;"/></g><!--link Responsable to VCD1--><g id="link_Responsable_VCD1"><path d="M64.31,170.85 C76.89,144.75 97.04,111.88 125,93 C154.85,72.84 187.9351,64.7278 221.1751,61.1178 " fill="none" id="Responsable-to-VCD1" style="stroke:#181818;stroke-width:1.0;"/><polygon fill="#181818" points="227.14,60.47,217.7607,57.4651,222.1692,61.0098,218.6245,65.4183,227.14,60.47" style="stroke:#181818;stroke-width:1.0;"/></g><!--link Responsable to VCD2--><g id="link_Responsable_VCD2"><path d="M89.21,181.38 C100.4,174.53 112.82,167.81 125,163 C158.11,149.91 190.9295,142.4336 223.1595,137.1336 " fill="none" id="Responsable-to-VCD2" style="stroke:#181818;stroke-width:1.0;"/><polygon fill="#181818" points="229.08,136.16,219.5502,133.6734,224.1463,136.9713,220.8483,141.5674,229.08,136.16" style="stroke:#181818;stroke-width:1.0;"/></g><!--link Responsable to VCD3--><g id="link_Responsable_VCD3"><path d="M89.09,210 C110.21,210 131.35,210 158.96,210 " fill="none" id="Responsable-to-VCD3" style="stroke:#181818;stroke-width:1.0;"/><polygon fill="#181818" points="164.96,210,155.96,206,159.96,210,155.96,214,164.96,210" style="stroke:#181818;stroke-width:1.0;"/></g><!--link Responsable to VCD4--><g id="link_Responsable_VCD4"><path d="M89.07,237.25 C100.37,244.04 112.88,250.85 125,256 C150.18,266.71 172.7197,273.9949 198.9797,280.9449 " fill="none" id="Responsable-to-VCD4" style="stroke:#181818;stroke-width:1.0;"/><polygon fill="#181818" points="204.78,282.48,197.103,276.3105,199.9464,281.2007,195.0561,284.0442,204.78,282.48" style="stroke:#181818;stroke-width:1.0;"/></g><!--link Responsable to VCD5--><g id="link_Responsable_VCD5"><path d="M78.32,249.09 C82.1,254.65 85.77,260.38 89,266 C108.65,300.15 94.3,322.31 125,347 C152.39,369.03 184.104,377.6422 217.124,381.1722 " fill="none" id="Responsable-to-VCD5" style="stroke:#181818;stroke-width:1.0;"/><polygon fill="#181818" points="223.09,381.81,214.5662,376.876,218.1183,381.2785,213.7158,384.8306,223.09,381.81" style="stroke:#181818;stroke-width:1.0;"/></g><!--SRC=[RL2x3i8m3Dpp5LRt2l7Q41AY8omCx2OOCBG9SjA1rrVn2VmO4L0KIhBT-Iw-SqaR3zw2y7RdOSr2shCr2hMt0jc2tD4QXwkICa074Mua1JdF1ZqAsvSc9fGweZxWbY1Rigknv3DgVjmDd61gpOQb-k0rGM5rNP7nrcLmKH1UxKYZ2-R9IbXWJc7r_fraEIswASttaqRL-rKrMmLceMejsFd0FsE_PIIH86lLY6Ctna7Is0e_L3UbedF2w9h_dYuUvldutJX1zb9aFqKEKkJm2G00]--></g></svg>