<svg xmlns="http://www.w3.org/2000/svg" xmlns:xlink="http://www.w3.org/1999/xlink" contentStyleType="text/css" height="312px" preserveAspectRatio="none" style="width:762px;height:312px;background:#FFFFFF;" version="1.1" viewBox="0 0 762 312" width="762px" zoomAndPan="magnify"><defs/><g><!--class Remitente--><g id="elem_Remitente"><rect codeLine="1" fill="#F1F1F1" height="48" id="Remitente" rx="2.5" ry="2.5" style="stroke:#181818;stroke-width:0.5;" width="104.9463" x="518.08" y="7"/><ellipse cx="533.08" cy="23" fill="#A9DCDF" rx="11" ry="11" style="stroke:#181818;stroke-width:1.0;"/><path d="M533.1894,18.3438 L532.0331,23.4219 L534.3612,23.4219 L533.1894,18.3438 Z M531.705,16.1094 L534.6894,16.1094 L538.0487,28.5 L535.5956,28.5 L534.83,25.4375 L531.5487,25.4375 L530.7987,28.5 L528.3612,28.5 L531.705,16.1094 Z " fill="#000000"/><text fill="#000000" font-family="sans-serif" font-size="14" font-style="italic" lengthAdjust="spacing" textLength="72.9463" x="547.08" y="27.8467">Remitente</text><line style="stroke:#181818;stroke-width:0.5;" x1="519.08" x2="622.0263" y1="39" y2="39"/><line style="stroke:#181818;stroke-width:0.5;" x1="519.08" x2="622.0263" y1="47" y2="47"/></g><!--class ContenedorMensaje--><g id="elem_ContenedorMensaje"><rect codeLine="4" fill="#F1F1F1" height="48" id="ContenedorMensaje" rx="2.5" ry="2.5" style="stroke:#181818;stroke-width:0.5;" width="171.9521" x="128.58" y="132"/><ellipse cx="143.58" cy="148" fill="#ADD1B2" rx="11" ry="11" style="stroke:#181818;stroke-width:1.0;"/><path d="M146.5487,153.6406 Q145.9706,153.9375 145.33,154.0781 Q144.6894,154.2344 143.9862,154.2344 Q141.4862,154.2344 140.1581,152.5938 Q138.8456,150.9375 138.8456,147.8125 Q138.8456,144.6875 140.1581,143.0313 Q141.4862,141.375 143.9862,141.375 Q144.6894,141.375 145.33,141.5313 Q145.9862,141.6875 146.5487,141.9844 L146.5487,144.7031 Q145.9237,144.125 145.33,143.8594 Q144.7362,143.5781 144.1112,143.5781 Q142.7675,143.5781 142.08,144.6563 Q141.3925,145.7188 141.3925,147.8125 Q141.3925,149.9063 142.08,150.9844 Q142.7675,152.0469 144.1112,152.0469 Q144.7362,152.0469 145.33,151.7813 Q145.9237,151.5 146.5487,150.9219 L146.5487,153.6406 Z " fill="#000000"/><text fill="#000000" font-family="sans-serif" font-size="14" lengthAdjust="spacing" textLength="139.9521" x="157.58" y="152.8467">ContenedorMensaje</text><line style="stroke:#181818;stroke-width:0.5;" x1="129.58" x2="299.5321" y1="164" y2="164"/><line style="stroke:#181818;stroke-width:0.5;" x1="129.58" x2="299.5321" y1="172" y2="172"/></g><!--class Usuario--><g id="elem_Usuario"><rect codeLine="7" fill="#F1F1F1" height="48" id="Usuario" rx="2.5" ry="2.5" style="stroke:#181818;stroke-width:0.5;" width="85.2041" x="526.95" y="257"/><ellipse cx="541.95" cy="273" fill="#ADD1B2" rx="11" ry="11" style="stroke:#181818;stroke-width:1.0;"/><path d="M544.9188,278.6406 Q544.3406,278.9375 543.7,279.0781 Q543.0594,279.2344 542.3563,279.2344 Q539.8563,279.2344 538.5281,277.5938 Q537.2156,275.9375 537.2156,272.8125 Q537.2156,269.6875 538.5281,268.0313 Q539.8563,266.375 542.3563,266.375 Q543.0594,266.375 543.7,266.5313 Q544.3563,266.6875 544.9188,266.9844 L544.9188,269.7031 Q544.2938,269.125 543.7,268.8594 Q543.1063,268.5781 542.4813,268.5781 Q541.1375,268.5781 540.45,269.6563 Q539.7625,270.7188 539.7625,272.8125 Q539.7625,274.9063 540.45,275.9844 Q541.1375,277.0469 542.4813,277.0469 Q543.1063,277.0469 543.7,276.7813 Q544.2938,276.5 544.9188,275.9219 L544.9188,278.6406 Z " fill="#000000"/><text fill="#000000" font-family="sans-serif" font-size="14" lengthAdjust="spacing" textLength="53.2041" x="555.95" y="277.8467">Usuario</text><line style="stroke:#181818;stroke-width:0.5;" x1="527.95" x2="611.1541" y1="289" y2="289"/><line style="stroke:#181818;stroke-width:0.5;" x1="527.95" x2="611.1541" y1="297" y2="297"/></g><!--class ContenedorDocumento--><g id="elem_ContenedorDocumento"><rect codeLine="10" fill="#F1F1F1" height="48" id="ContenedorDocumento" rx="2.5" ry="2.5" style="stroke:#181818;stroke-width:0.5;" width="195.1055" x="7" y="257"/><ellipse cx="22" cy="273" fill="#ADD1B2" rx="11" ry="11" style="stroke:#181818;stroke-width:1.0;"/><path d="M24.9688,278.6406 Q24.3906,278.9375 23.75,279.0781 Q23.1094,279.2344 22.4063,279.2344 Q19.9063,279.2344 18.5781,277.5938 Q17.2656,275.9375 17.2656,272.8125 Q17.2656,269.6875 18.5781,268.0313 Q19.9063,266.375 22.4063,266.375 Q23.1094,266.375 23.75,266.5313 Q24.4063,266.6875 24.9688,266.9844 L24.9688,269.7031 Q24.3438,269.125 23.75,268.8594 Q23.1563,268.5781 22.5313,268.5781 Q21.1875,268.5781 20.5,269.6563 Q19.8125,270.7188 19.8125,272.8125 Q19.8125,274.9063 20.5,275.9844 Q21.1875,277.0469 22.5313,277.0469 Q23.1563,277.0469 23.75,276.7813 Q24.3438,276.5 24.9688,275.9219 L24.9688,278.6406 Z " fill="#000000"/><text fill="#000000" font-family="sans-serif" font-size="14" lengthAdjust="spacing" textLength="163.1055" x="36" y="277.8467">ContenedorDocumento</text><line style="stroke:#181818;stroke-width:0.5;" x1="8" x2="201.1055" y1="289" y2="289"/><line style="stroke:#181818;stroke-width:0.5;" x1="8" x2="201.1055" y1="297" y2="297"/></g><!--class Receptor--><g id="elem_Receptor"><rect codeLine="13" fill="#F1F1F1" height="48" id="Receptor" rx="2.5" ry="2.5" style="stroke:#181818;stroke-width:0.5;" width="95.3486" x="390.88" y="132"/><ellipse cx="405.88" cy="148" fill="#A9DCDF" rx="11" ry="11" style="stroke:#181818;stroke-width:1.0;"/><path d="M405.9894,143.3438 L404.8331,148.4219 L407.1613,148.4219 L405.9894,143.3438 Z M404.505,141.1094 L407.4894,141.1094 L410.8488,153.5 L408.3956,153.5 L407.63,150.4375 L404.3488,150.4375 L403.5988,153.5 L401.1613,153.5 L404.505,141.1094 Z " fill="#000000"/><text fill="#000000" font-family="sans-serif" font-size="14" font-style="italic" lengthAdjust="spacing" textLength="63.3486" x="419.88" y="152.8467">Receptor</text><line style="stroke:#181818;stroke-width:0.5;" x1="391.88" x2="485.2286" y1="164" y2="164"/><line style="stroke:#181818;stroke-width:0.5;" x1="391.88" x2="485.2286" y1="172" y2="172"/></g><!--class Destinatario--><g id="elem_Destinatario"><rect codeLine="16" fill="#F1F1F1" height="48" id="Destinatario" rx="2.5" ry="2.5" style="stroke:#181818;stroke-width:0.5;" width="117.7979" x="236.65" y="257"/><ellipse cx="251.65" cy="273" fill="#ADD1B2" rx="11" ry="11" style="stroke:#181818;stroke-width:1.0;"/><path d="M254.6188,278.6406 Q254.0406,278.9375 253.4,279.0781 Q252.7594,279.2344 252.0563,279.2344 Q249.5563,279.2344 248.2281,277.5938 Q246.9156,275.9375 246.9156,272.8125 Q246.9156,269.6875 248.2281,268.0313 Q249.5563,266.375 252.0563,266.375 Q252.7594,266.375 253.4,266.5313 Q254.0563,266.6875 254.6188,266.9844 L254.6188,269.7031 Q253.9938,269.125 253.4,268.8594 Q252.8063,268.5781 252.1813,268.5781 Q250.8375,268.5781 250.15,269.6563 Q249.4625,270.7188 249.4625,272.8125 Q249.4625,274.9063 250.15,275.9844 Q250.8375,277.0469 252.1813,277.0469 Q252.8063,277.0469 253.4,276.7813 Q253.9938,276.5 254.6188,275.9219 L254.6188,278.6406 Z " fill="#000000"/><text fill="#000000" font-family="sans-serif" font-size="14" lengthAdjust="spacing" textLength="85.7979" x="265.65" y="277.8467">Destinatario</text><line style="stroke:#181818;stroke-width:0.5;" x1="237.65" x2="353.4479" y1="289" y2="289"/><line style="stroke:#181818;stroke-width:0.5;" x1="237.65" x2="353.4479" y1="297" y2="297"/></g><!--class Administrador--><g id="elem_Administrador"><rect codeLine="19" fill="#F1F1F1" height="48" id="Administrador" rx="2.5" ry="2.5" style="stroke:#181818;stroke-width:0.5;" width="131.0801" x="624.01" y="132"/><ellipse cx="639.01" cy="148" fill="#ADD1B2" rx="11" ry="11" style="stroke:#181818;stroke-width:1.0;"/><path d="M641.9788,153.6406 Q641.4006,153.9375 640.76,154.0781 Q640.1194,154.2344 639.4163,154.2344 Q636.9163,154.2344 635.5881,152.5938 Q634.2756,150.9375 634.2756,147.8125 Q634.2756,144.6875 635.5881,143.0313 Q636.9163,141.375 639.4163,141.375 Q640.1194,141.375 640.76,141.5313 Q641.4163,141.6875 641.9788,141.9844 L641.9788,144.7031 Q641.3538,144.125 640.76,143.8594 Q640.1663,143.5781 639.5413,143.5781 Q638.1975,143.5781 637.51,144.6563 Q636.8225,145.7188 636.8225,147.8125 Q636.8225,149.9063 637.51,150.9844 Q638.1975,152.0469 639.5413,152.0469 Q640.1663,152.0469 640.76,151.7813 Q641.3538,151.5 641.9788,150.9219 L641.9788,153.6406 Z " fill="#000000"/><text fill="#000000" font-family="sans-serif" font-size="14" lengthAdjust="spacing" textLength="99.0801" x="653.01" y="152.8467">Administrador</text><line style="stroke:#181818;stroke-width:0.5;" x1="625.01" x2="754.0901" y1="164" y2="164"/><line style="stroke:#181818;stroke-width:0.5;" x1="625.01" x2="754.0901" y1="172" y2="172"/></g><!--class Categoria--><g id="elem_Categoria"><rect codeLine="22" fill="#F1F1F1" height="48" id="Categoria" rx="2.5" ry="2.5" style="stroke:#181818;stroke-width:0.5;" width="100.1338" x="389.49" y="257"/><ellipse cx="404.49" cy="273" fill="#ADD1B2" rx="11" ry="11" style="stroke:#181818;stroke-width:1.0;"/><path d="M407.4588,278.6406 Q406.8806,278.9375 406.24,279.0781 Q405.5994,279.2344 404.8963,279.2344 Q402.3963,279.2344 401.0681,277.5938 Q399.7556,275.9375 399.7556,272.8125 Q399.7556,269.6875 401.0681,268.0313 Q402.3963,266.375 404.8963,266.375 Q405.5994,266.375 406.24,266.5313 Q406.8963,266.6875 407.4588,266.9844 L407.4588,269.7031 Q406.8338,269.125 406.24,268.8594 Q405.6463,268.5781 405.0213,268.5781 Q403.6775,268.5781 402.99,269.6563 Q402.3025,270.7188 402.3025,272.8125 Q402.3025,274.9063 402.99,275.9844 Q403.6775,277.0469 405.0213,277.0469 Q405.6463,277.0469 406.24,276.7813 Q406.8338,276.5 407.4588,275.9219 L407.4588,278.6406 Z " fill="#000000"/><text fill="#000000" font-family="sans-serif" font-size="14" lengthAdjust="spacing" textLength="68.1338" x="418.49" y="277.8467">Categoria</text><line style="stroke:#181818;stroke-width:0.5;" x1="390.49" x2="488.6238" y1="289" y2="289"/><line style="stroke:#181818;stroke-width:0.5;" x1="390.49" x2="488.6238" y1="297" y2="297"/></g><!--reverse link Remitente to Administrador--><g id="link_Remitente_Administrador"><path codeLine="25" d="M605.7334,68.3589 C626.9034,90.2489 645.83,109.8 666.97,131.66 " fill="none" id="Remitente-backto-Administrador" style="stroke:#181818;stroke-width:1.0;"/><polygon fill="none" points="593.22,55.42,601.4204,72.5301,610.0463,64.1878,593.22,55.42" style="stroke:#181818;stroke-width:1.0;"/></g><!--reverse link Remitente to Usuario--><g id="link_Remitente_Usuario"><path codeLine="26" d="M570.3877,73.3299 C570.1977,120.5999 569.84,209.18 569.65,256.55 " fill="none" id="Remitente-backto-Usuario" style="stroke:#181818;stroke-width:1.0;"/><polygon fill="none" points="570.46,55.33,564.3877,73.3057,576.3876,73.354,570.46,55.33" style="stroke:#181818;stroke-width:1.0;"/></g><!--reverse link Receptor to Destinatario--><g id="link_Receptor_Destinatario"><path codeLine="28" d="M397.6735,192.1576 C372.2235,214.0476 348.1,234.8 322.69,256.66 " fill="none" id="Receptor-backto-Destinatario" style="stroke:#181818;stroke-width:1.0;"/><polygon fill="none" points="411.32,180.42,393.7609,187.6088,401.586,196.7065,411.32,180.42" style="stroke:#181818;stroke-width:1.0;"/></g><!--reverse link Receptor to Usuario--><g id="link_Receptor_Usuario"><path codeLine="29" d="M485.9341,191.1278 C497.6941,199.9578 496.39,199.6 507.55,210 C523.11,224.5 538.98,242.49 550.77,256.6 " fill="none" id="Receptor-backto-Usuario" style="stroke:#181818;stroke-width:1.0;"/><polygon fill="none" points="471.54,180.32,482.3315,195.9259,489.5367,186.3298,471.54,180.32" style="stroke:#181818;stroke-width:1.0;"/></g><!--link Receptor to Categoria--><g id="link_Receptor_Categoria"><path codeLine="30" d="M436.61,180.33 C435.72,193.94 434.97,211.44 435.55,227 C435.92,236.68 436.66,247.34 437.4,256.54 " fill="none" id="Receptor-Categoria" style="stroke:#181818;stroke-width:1.0;"/><text fill="#000000" font-family="sans-serif" font-size="13" lengthAdjust="spacing" textLength="66.0728" x="436.55" y="223.0669">pertenece</text></g><!--link Remitente to ContenedorMensaje--><g id="link_Remitente_ContenedorMensaje"><path codeLine="32" d="M517.64,50.28 C455.08,71.9 350.83,107.92 282.39,131.56 " fill="none" id="Remitente-ContenedorMensaje" style="stroke:#181818;stroke-width:1.0;"/><text fill="#000000" font-family="sans-serif" font-size="13" lengthAdjust="spacing" textLength="45.7983" x="415.55" y="98.0669">genera</text><text fill="#000000" font-family="sans-serif" font-size="13" lengthAdjust="spacing" textLength="8.271" x="501.6556" y="49.0128">1</text><text fill="#000000" font-family="sans-serif" font-size="13" lengthAdjust="spacing" textLength="6.5" x="292.2542" y="120.8577">*</text></g><!--link ContenedorMensaje to ContenedorDocumento--><g id="link_ContenedorMensaje_ContenedorDocumento"><path codeLine="34" d="M193.6,180.42 C174.03,202.31 144.97,234.8 125.42,256.66 " fill="none" id="ContenedorMensaje-ContenedorDocumento" style="stroke:#181818;stroke-width:1.0;"/><text fill="#000000" font-family="sans-serif" font-size="13" lengthAdjust="spacing" textLength="56.2847" x="167.55" y="223.0669">contiene</text><text fill="#000000" font-family="sans-serif" font-size="13" lengthAdjust="spacing" textLength="8.271" x="179.8602" y="199.8838">1</text><text fill="#000000" font-family="sans-serif" font-size="13" lengthAdjust="spacing" textLength="6.5" x="123.8361" y="245.9821">*</text></g><!--link ContenedorMensaje to Receptor--><g id="link_ContenedorMensaje_Receptor"><path codeLine="36" d="M300.84,156 C331.28,156 364.4,156 390.53,156 " fill="none" id="ContenedorMensaje-Receptor" style="stroke:#181818;stroke-width:1.0;"/><text fill="#000000" font-family="sans-serif" font-size="13" lengthAdjust="spacing" textLength="54.4121" x="318.7" y="149.0669">se envía</text><text fill="#000000" font-family="sans-serif" font-size="13" lengthAdjust="spacing" textLength="8.271" x="308.6104" y="152.4281">1</text><text fill="#000000" font-family="sans-serif" font-size="13" lengthAdjust="spacing" textLength="6.5" x="376.4378" y="151.8822">*</text></g><!--SRC=[TP0z3i8m38Ntd2BgY9I1jM91xSg2n05CQbL1DAaSmm8SYLDmCT8MGlh3cFVy-RqOZfu9DCizDeRHCjx4GmXz1kzbuSBROkLeXzR3AVKE_W9atE9qwVIb2Ri65tuH6bjsb30bUZOMUB9gMpN6cWwhHkC5CDQE3FHQh2mtTwN6qDJyrEsWeSGWf_aJwqj4DMWnN-QoHUg-gp4jagqpfR9LDZzT8EeW40WnznQmUCC0wg2Q8Fz3gMTZqLnwb6YlhoUy0G00]--></g></svg>