<svg xmlns="http://www.w3.org/2000/svg" xmlns:xlink="http://www.w3.org/1999/xlink" contentStyleType="text/css" height="348px" preserveAspectRatio="none" style="width:659px;height:348px;background:#FFFFFF;" version="1.1" viewBox="0 0 659 348" width="659px" zoomAndPan="magnify"><defs/><g><!--class Remitente--><g id="elem_Remitente"><rect codeLine="4" fill="#F1F1F1" height="26.2969" id="Remitente" rx="2.5" ry="2.5" style="stroke:#181818;stroke-width:0.5;" width="78.9463" x="454.5" y="7"/><text fill="#000000" font-family="sans-serif" font-size="14" font-style="italic" lengthAdjust="spacing" textLength="72.9463" x="457.5" y="24.9951">Remitente</text></g><!--class Mensaje--><g id="elem_Mensaje"><rect codeLine="6" fill="#F1F1F1" height="26.2969" id="Mensaje" rx="2.5" ry="2.5" style="stroke:#181818;stroke-width:0.5;" width="63.9414" x="173" y="110"/><text fill="#000000" font-family="sans-serif" font-size="14" lengthAdjust="spacing" textLength="57.9414" x="176" y="127.9951">Mensaje</text></g><!--class Usuario--><g id="elem_Usuario"><rect codeLine="8" fill="#F1F1F1" height="26.2969" id="Usuario" rx="2.5" ry="2.5" style="stroke:#181818;stroke-width:0.5;" width="59.2041" x="457.5" y="213"/><text fill="#000000" font-family="sans-serif" font-size="14" lengthAdjust="spacing" textLength="53.2041" x="460.5" y="230.9951">Usuario</text></g><!--class RastreadorDocumento--><g id="elem_RastreadorDocumento"><rect codeLine="10" fill="#F1F1F1" height="26.2969" id="RastreadorDocumento" rx="2.5" ry="2.5" style="stroke:#181818;stroke-width:0.5;" width="164.3408" x="7" y="213"/><text fill="#000000" font-family="sans-serif" font-size="14" lengthAdjust="spacing" textLength="158.3408" x="10" y="230.9951">RastreadorDocumento</text></g><!--class Receptor--><g id="elem_Receptor"><rect codeLine="12" fill="#F1F1F1" height="26.2969" id="Receptor" rx="2.5" ry="2.5" style="stroke:#181818;stroke-width:0.5;" width="69.3486" x="327.5" y="110"/><text fill="#000000" font-family="sans-serif" font-size="14" font-style="italic" lengthAdjust="spacing" textLength="63.3486" x="330.5" y="127.9951">Receptor</text></g><!--class Destinatario--><g id="elem_Destinatario"><rect codeLine="14" fill="#F1F1F1" height="26.2969" id="Destinatario" rx="2.5" ry="2.5" style="stroke:#181818;stroke-width:0.5;" width="91.7979" x="206" y="213"/><text fill="#000000" font-family="sans-serif" font-size="14" lengthAdjust="spacing" textLength="85.7979" x="209" y="230.9951">Destinatario</text></g><!--class Administrador--><g id="elem_Administrador"><rect codeLine="16" fill="#F1F1F1" height="26.2969" id="Administrador" rx="2.5" ry="2.5" style="stroke:#181818;stroke-width:0.5;" width="105.0801" x="547.5" y="110"/><text fill="#000000" font-family="sans-serif" font-size="14" lengthAdjust="spacing" textLength="99.0801" x="550.5" y="127.9951">Administrador</text></g><!--class Categoria--><g id="elem_Categoria"><rect codeLine="18" fill="#F1F1F1" height="26.2969" id="Categoria" rx="2.5" ry="2.5" style="stroke:#181818;stroke-width:0.5;" width="74.1338" x="333" y="213"/><text fill="#000000" font-family="sans-serif" font-size="14" lengthAdjust="spacing" textLength="68.1338" x="336" y="230.9951">Categoria</text></g><!--class Documento--><g id="elem_Documento"><rect codeLine="20" fill="#F1F1F1" height="26.2969" id="Documento" rx="2.5" ry="2.5" style="stroke:#181818;stroke-width:0.5;" width="87.0947" x="45.5" y="316"/><text fill="#000000" font-family="sans-serif" font-size="14" lengthAdjust="spacing" textLength="81.0947" x="48.5" y="333.9951">Documento</text></g><!--reverse link Remitente to Administrador--><g id="link_Remitente_Administrador"><path codeLine="22" d="M520.0301,45.7984 C540.4801,65.2884 566.91,90.47 587.23,109.83 " fill="none" id="Remitente-backto-Administrador" style="stroke:#181818;stroke-width:1.0;"/><polygon fill="none" points="507,33.38,515.8906,50.1418,524.1696,41.455,507,33.38" style="stroke:#181818;stroke-width:1.0;"/></g><!--reverse link Remitente to Usuario--><g id="link_Remitente_Usuario"><path codeLine="23" d="M492.9651,51.1395 C491.7251,87.4195 488.66,176.71 487.41,212.91 " fill="none" id="Remitente-backto-Usuario" style="stroke:#181818;stroke-width:1.0;"/><polygon fill="none" points="493.58,33.15,486.9686,50.9345,498.9616,51.3444,493.58,33.15" style="stroke:#181818;stroke-width:1.0;"/></g><!--reverse link Receptor to Destinatario--><g id="link_Receptor_Destinatario"><path codeLine="25" d="M335.2532,148.5561 C314.0332,168.0461 286.34,193.47 265.25,212.83 " fill="none" id="Receptor-backto-Destinatario" style="stroke:#181818;stroke-width:1.0;"/><polygon fill="none" points="348.51,136.38,331.1945,144.1371,339.3118,152.975,348.51,136.38" style="stroke:#181818;stroke-width:1.0;"/></g><!--reverse link Receptor to Usuario--><g id="link_Receptor_Usuario"><path codeLine="26" d="M400.7986,144.7448 C414.7086,152.4648 416.71,154.46 431,166 C448.8,180.37 466.5,200.18 477.09,212.79 " fill="none" id="Receptor-backto-Usuario" style="stroke:#181818;stroke-width:1.0;"/><polygon fill="none" points="385.06,136.01,397.8869,149.991,403.7102,139.4987,385.06,136.01" style="stroke:#181818;stroke-width:1.0;"/></g><!--link Receptor to Categoria--><g id="link_Receptor_Categoria"><path codeLine="27" d="M360.11,136.25 C358.56,148.22 356.93,166.93 359,183 C360.31,193.17 363.33,204.39 365.88,212.67 " fill="none" id="Receptor-Categoria" style="stroke:#181818;stroke-width:1.0;"/><text fill="#000000" font-family="sans-serif" font-size="13" lengthAdjust="spacing" textLength="66.0728" x="360" y="179.0669">pertenece</text></g><!--link Remitente to Mensaje--><g id="link_Remitente_Mensaje"><path codeLine="29" d="M459.43,33.08 C403.09,52.77 292.29,91.5 237.39,110.68 " fill="none" id="Remitente-Mensaje" style="stroke:#181818;stroke-width:1.0;"/><text fill="#000000" font-family="sans-serif" font-size="13" lengthAdjust="spacing" textLength="45.7983" x="368" y="76.0669">genera</text><text fill="#000000" font-family="sans-serif" font-size="13" lengthAdjust="spacing" textLength="8.271" x="438.2274" y="52.1931">1</text><text fill="#000000" font-family="sans-serif" font-size="13" lengthAdjust="spacing" textLength="6.5" x="244.7468" y="103.6421">*</text></g><!--link Mensaje to RastreadorDocumento--><g id="link_Mensaje_RastreadorDocumento"><path codeLine="31" d="M190.78,136.38 C168.39,155.87 125.21,193.47 102.98,212.83 " fill="none" id="Mensaje-RastreadorDocumento" style="stroke:#181818;stroke-width:1.0;"/><text fill="#000000" font-family="sans-serif" font-size="13" lengthAdjust="spacing" textLength="56.2847" x="155" y="179.0669">contiene</text><text fill="#000000" font-family="sans-serif" font-size="13" lengthAdjust="spacing" textLength="8.271" x="175.8965" y="156.3761">1</text><text fill="#000000" font-family="sans-serif" font-size="13" lengthAdjust="spacing" textLength="6.5" x="101.1965" y="201.9852">*</text></g><!--link Mensaje to Receptor--><g id="link_Mensaje_Receptor"><path codeLine="33" d="M237.15,123 C263.44,123 300.52,123 327.44,123 " fill="none" id="Mensaje-Receptor" style="stroke:#181818;stroke-width:1.0;"/><text fill="#000000" font-family="sans-serif" font-size="13" lengthAdjust="spacing" textLength="54.4121" x="255.25" y="116.0669">se env&#237;a</text><text fill="#000000" font-family="sans-serif" font-size="13" lengthAdjust="spacing" textLength="8.271" x="245.0939" y="136.6896">1</text><text fill="#000000" font-family="sans-serif" font-size="13" lengthAdjust="spacing" textLength="6.5" x="312.7718" y="118.3135">*</text></g><!--link RastreadorDocumento to Documento--><g id="link_RastreadorDocumento_Documento"><path codeLine="35" d="M89,239.38 C89,258.87 89,296.47 89,315.83 " fill="none" id="RastreadorDocumento-Documento" style="stroke:#181818;stroke-width:1.0;"/><text fill="#000000" font-family="sans-serif" font-size="13" lengthAdjust="spacing" textLength="49.3721" x="90" y="282.0669">adjunta</text><text fill="#000000" font-family="sans-serif" font-size="13" lengthAdjust="spacing" textLength="8.271" x="79.4617" y="259.3761">1</text><text fill="#000000" font-family="sans-serif" font-size="13" lengthAdjust="spacing" textLength="8.271" x="79.5086" y="304.9852">1</text></g><!--SRC=[RP51QWCn34NtSmhXPM4MsGxTb6RRJQ07K6oHACJs86iAXLuffyZ5gZ3OancorDT_tn_vp860ugY_42aUIKftVaYUnL-fw_1OLD0h72YoKbBJ_1LBWIzA1Izj_2uJ2kSw7j0umf1bd_qK3SohC4-ZPgdkFHNbXFgSy14Y9tu0OJ5-ej8f2sCZb_JM4Dx_-dx3RvQjRMqoowiUwrKbccfQQmC3Z2IMRyld8cxd-jwzkNeiyvtC95Q_AeldnSdCxtDIDcP3o8pKCWCK-yRqSxzPzAkW-PMTMmus08RBb1J_0G00]--></g></svg>