<svg xmlns="http://www.w3.org/2000/svg" xmlns:xlink="http://www.w3.org/1999/xlink" contentStyleType="text/css" height="656px" preserveAspectRatio="none" style="width:1026px;height:656px;background:#FFFFFF;" version="1.1" viewBox="0 0 1026 656" width="1026px" zoomAndPan="magnify"><defs/><g><!--entity USUARIO--><g id="elem_USUARIO"><rect fill="#9ACD32" height="36.2969" rx="2.5" ry="2.5" style="stroke:#181818;stroke-width:0.5;" width="83.834" x="482" y="7"/><text fill="#000000" font-family="sans-serif" font-size="14" lengthAdjust="spacing" textLength="63.834" x="492" y="29.9951">USUARIO</text></g><!--entity ALUMNO--><g id="elem_ALUMNO"><rect fill="#9ACD32" height="36.2969" rx="2.5" ry="2.5" style="stroke:#181818;stroke-width:0.5;" width="81.1953" x="483.5" y="120"/><text fill="#000000" font-family="sans-serif" font-size="14" lengthAdjust="spacing" textLength="61.1953" x="493.5" y="142.9951">ALUMNO</text></g><!--entity PAGINA_PRINCIPAL--><g id="elem_PAGINA_PRINCIPAL"><rect fill="#ADD8E6" height="36.2969" rx="2.5" ry="2.5" style="stroke:#181818;stroke-width:0.5;" width="152.542" x="447.5" y="233"/><text fill="#000000" font-family="sans-serif" font-size="14" lengthAdjust="spacing" textLength="132.542" x="457.5" y="255.9951">PAGINA_PRINCIPAL</text></g><!--entity NAVEGACION_MENUS--><g id="elem_NAVEGACION_MENUS"><rect fill="#87CEEB" height="36.2969" rx="2.5" ry="2.5" style="stroke:#181818;stroke-width:0.5;" width="171.8262" x="438" y="346"/><text fill="#000000" font-family="sans-serif" font-size="14" lengthAdjust="spacing" textLength="151.8262" x="448" y="368.9951">NAVEGACION_MENUS</text></g><!--entity MENU_RUTINAS_y_EJERCICIOS--><g id="elem_MENU_RUTINAS_y_EJERCICIOS"><rect fill="#98FB98" height="36.2969" rx="2.5" ry="2.5" style="stroke:#181818;stroke-width:0.5;" width="231.7842" x="7" y="459"/><text fill="#000000" font-family="sans-serif" font-size="14" lengthAdjust="spacing" textLength="211.7842" x="17" y="481.9951">MENU_RUTINAS_y_EJERCICIOS</text></g><!--entity MENU_RETOS--><g id="elem_MENU_RETOS"><rect fill="#FFA07A" height="36.2969" rx="2.5" ry="2.5" style="stroke:#181818;stroke-width:0.5;" width="115.6758" x="383" y="459"/><text fill="#000000" font-family="sans-serif" font-size="14" lengthAdjust="spacing" textLength="95.6758" x="393" y="481.9951">MENU_RETOS</text></g><!--entity MENU_CLASIFICACION--><g id="elem_MENU_CLASIFICACION"><rect fill="#FFD700" height="36.2969" rx="2.5" ry="2.5" style="stroke:#181818;stroke-width:0.5;" width="175.7432" x="611" y="459"/><text fill="#000000" font-family="sans-serif" font-size="14" lengthAdjust="spacing" textLength="155.7432" x="621" y="481.9951">MENU_CLASIFICACION</text></g><!--entity MENU_PERFIL--><g id="elem_MENU_PERFIL"><rect fill="#F08080" height="36.2969" rx="2.5" ry="2.5" style="stroke:#181818;stroke-width:0.5;" width="115.6416" x="859" y="459"/><text fill="#000000" font-family="sans-serif" font-size="14" lengthAdjust="spacing" textLength="95.6416" x="869" y="481.9951">MENU_PERFIL</text></g><!--link USUARIO to ALUMNO--><g id="link_USUARIO_ALUMNO"><path d="M524,43.34 C524,64.2 524,92.98 524,113.78 " fill="none" id="USUARIO-to-ALUMNO" style="stroke:#9ACD32;stroke-width:1;"/><polygon fill="#9ACD32" points="524,119.78,528,110.78,524,114.78,520,110.78,524,119.78" style="stroke:#9ACD32;stroke-width:1;"/><text fill="#000000" font-family="sans-serif" font-size="13" lengthAdjust="spacing" textLength="85.2363" x="525" y="86.0669">Iniciar sesi&#243;n</text></g><!--link ALUMNO to PAGINA_PRINCIPAL--><g id="link_ALUMNO_PAGINA_PRINCIPAL"><path d="M524,156.34 C524,177.2 524,205.98 524,226.78 " fill="none" id="ALUMNO-to-PAGINA_PRINCIPAL" style="stroke:#9ACD32;stroke-width:1;"/><polygon fill="#9ACD32" points="524,232.78,528,223.78,524,227.78,520,223.78,524,232.78" style="stroke:#9ACD32;stroke-width:1;"/><text fill="#000000" font-family="sans-serif" font-size="13" lengthAdjust="spacing" textLength="124.4775" x="525" y="199.0669">Ingresar al sistema</text></g><!--link PAGINA_PRINCIPAL to NAVEGACION_MENUS--><g id="link_PAGINA_PRINCIPAL_NAVEGACION_MENUS"><path d="M470.63,269.03 C456.98,276.07 443.93,285.78 436,299 C423.81,319.33 439.2301,332.689 463.7201,343.489 " fill="none" id="PAGINA_PRINCIPAL-to-NAVEGACION_MENUS" style="stroke:#87CEEB;stroke-width:1;"/><polygon fill="#87CEEB" points="469.21,345.91,462.5892,338.6186,464.6351,343.8925,459.3612,345.9384,469.21,345.91" style="stroke:#87CEEB;stroke-width:1;"/><text fill="#000000" font-family="sans-serif" font-size="13" lengthAdjust="spacing" textLength="128.6733" x="437" y="312.0669">Navegar por men&#250;s</text></g><!--link NAVEGACION_MENUS to PAGINA_PRINCIPAL--><g id="link_NAVEGACION_MENUS_PAGINA_PRINCIPAL"><path d="M548.86,345.89 C563.21,333.72 577.13,316.48 570,299 C565.26,287.37 560.5695,281.063 551.6595,273.083 " fill="none" id="NAVEGACION_MENUS-to-PAGINA_PRINCIPAL" style="stroke:#ADD8E6;stroke-width:1;"/><polygon fill="#ADD8E6" points="547.19,269.08,551.2256,278.0641,550.9146,272.4158,556.5629,272.1048,547.19,269.08" style="stroke:#ADD8E6;stroke-width:1;"/><text fill="#000000" font-family="sans-serif" font-size="13" lengthAdjust="spacing" textLength="112.728" x="572" y="312.0669">Regresar al inicio</text></g><!--link NAVEGACION_MENUS to MENU_RUTINAS_y_EJERCICIOS--><g id="link_NAVEGACION_MENUS_MENU_RUTINAS_y_EJERCICIOS"><path d="M437.77,366.93 C302.3,370.87 52.18,382.14 25,412 C7.22,431.54 27.1629,445.5945 56.6229,456.8145 " fill="none" id="NAVEGACION_MENUS-to-MENU_RUTINAS_y_EJERCICIOS" style="stroke:#98FB98;stroke-width:1;"/><polygon fill="#98FB98" points="62.23,458.95,55.243,452.0087,57.5574,457.1704,52.3957,459.4848,62.23,458.95" style="stroke:#98FB98;stroke-width:1;"/><text fill="#000000" font-family="sans-serif" font-size="13" lengthAdjust="spacing" textLength="147.8369" x="26" y="425.0669">Ir a rutinas y ejercicios</text></g><!--link MENU_RUTINAS_y_EJERCICIOS to NAVEGACION_MENUS--><g id="link_MENU_RUTINAS_y_EJERCICIOS_NAVEGACION_MENUS"><path d="M148.8,458.89 C172.16,444.2 208.04,423.61 242,412 C305.76,390.21 375.2274,378.9887 432.0274,372.6187 " fill="none" id="MENU_RUTINAS_y_EJERCICIOS-to-NAVEGACION_MENUS" style="stroke:#87CEEB;stroke-width:1;"/><polygon fill="#87CEEB" points="437.99,371.95,428.6003,368.978,433.0211,372.5072,429.4919,376.9281,437.99,371.95" style="stroke:#87CEEB;stroke-width:1;"/><text fill="#000000" font-family="sans-serif" font-size="13" lengthAdjust="spacing" textLength="96.1543" x="243" y="425.0669">Cambiar men&#250;</text></g><!--link NAVEGACION_MENUS to MENU_RETOS--><g id="link_NAVEGACION_MENUS_MENU_RETOS"><path d="M437.6,378.59 C400.49,386.36 363.08,397.48 352,412 C337.04,431.59 354.4662,445.3975 380.8062,456.5675 " fill="none" id="NAVEGACION_MENUS-to-MENU_RETOS" style="stroke:#FFA07A;stroke-width:1;"/><polygon fill="#FFA07A" points="386.33,458.91,379.6059,451.7137,381.7268,456.9579,376.4826,459.0788,386.33,458.91" style="stroke:#FFA07A;stroke-width:1;"/><text fill="#000000" font-family="sans-serif" font-size="13" lengthAdjust="spacing" textLength="58.5762" x="353" y="425.0669">Ir a retos</text></g><!--link MENU_RETOS to NAVEGACION_MENUS--><g id="link_MENU_RETOS_NAVEGACION_MENUS"><path d="M440.33,458.88 C440.59,445.16 442.84,425.94 452,412 C460.2,399.52 467.8191,392.6803 480.3491,385.2503 " fill="none" id="MENU_RETOS-to-NAVEGACION_MENUS" style="stroke:#87CEEB;stroke-width:1;"/><polygon fill="#87CEEB" points="485.51,382.19,475.7285,383.3398,481.2093,384.7402,479.8089,390.221,485.51,382.19" style="stroke:#87CEEB;stroke-width:1;"/><text fill="#000000" font-family="sans-serif" font-size="13" lengthAdjust="spacing" textLength="96.1543" x="453" y="425.0669">Cambiar men&#250;</text></g><!--link NAVEGACION_MENUS to MENU_CLASIFICACION--><g id="link_NAVEGACION_MENUS_MENU_CLASIFICACION"><path d="M538.59,382.28 C551.11,396.28 570.22,415.8 590,429 C608.17,441.13 624.4083,449.0436 643.7283,456.7636 " fill="none" id="NAVEGACION_MENUS-to-MENU_CLASIFICACION" style="stroke:#FFD700;stroke-width:1;"/><polygon fill="#FFD700" points="649.3,458.99,642.4268,451.936,644.657,457.1347,639.4583,459.3649,649.3,458.99" style="stroke:#FFD700;stroke-width:1;"/><text fill="#000000" font-family="sans-serif" font-size="13" lengthAdjust="spacing" textLength="104.7744" x="591" y="425.0669">Ir a clasificaci&#243;n</text></g><!--link MENU_CLASIFICACION to NAVEGACION_MENUS--><g id="link_MENU_CLASIFICACION_NAVEGACION_MENUS"><path d="M704.59,458.97 C708.06,444.92 710.15,425.22 700,412 C688.44,396.95 654.9335,386.8567 616.3335,379.1367 " fill="none" id="MENU_CLASIFICACION-to-NAVEGACION_MENUS" style="stroke:#87CEEB;stroke-width:1;"/><polygon fill="#87CEEB" points="610.45,377.96,618.4908,383.6474,615.3529,378.9406,620.0597,375.8027,610.45,377.96" style="stroke:#87CEEB;stroke-width:1;"/><text fill="#000000" font-family="sans-serif" font-size="13" lengthAdjust="spacing" textLength="96.1543" x="707" y="425.0669">Cambiar men&#250;</text></g><!--link NAVEGACION_MENUS to MENU_PERFIL--><g id="link_NAVEGACION_MENUS_MENU_PERFIL"><path d="M610.01,370.34 C668.44,376.05 746.67,387.81 812,412 C842.63,423.34 869.2893,440.4724 889.6993,455.2424 " fill="none" id="NAVEGACION_MENUS-to-MENU_PERFIL" style="stroke:#F08080;stroke-width:1;"/><polygon fill="#F08080" points="894.56,458.76,889.6139,450.2432,890.5094,455.8287,884.9238,456.7242,894.56,458.76" style="stroke:#F08080;stroke-width:1;"/><text fill="#000000" font-family="sans-serif" font-size="13" lengthAdjust="spacing" textLength="58.8047" x="846" y="425.0669">Ir a perfil</text></g><!--link MENU_PERFIL to NAVEGACION_MENUS--><g id="link_MENU_PERFIL_NAVEGACION_MENUS"><path d="M921.31,458.99 C923.85,444.56 924.61,424.31 913,412 C892.57,390.36 724.2785,376.7107 616.0385,370.0107 " fill="none" id="MENU_PERFIL-to-NAVEGACION_MENUS" style="stroke:#87CEEB;stroke-width:1;"/><polygon fill="#87CEEB" points="610.05,369.64,618.7857,374.1884,615.0404,369.9489,619.2799,366.2037,610.05,369.64" style="stroke:#87CEEB;stroke-width:1;"/><text fill="#000000" font-family="sans-serif" font-size="13" lengthAdjust="spacing" textLength="96.1543" x="922" y="425.0669">Cambiar men&#250;</text></g><rect fill="#DDDDDD" height="124.0781" id="_legend" rx="7.5" ry="7.5" style="stroke:#000000;stroke-width:1;" width="686.252" x="313.9023" y="512.2969"/><text fill="#000000" font-family="sans-serif" font-size="14" lengthAdjust="spacing" textLength="64.3672" x="318.9023" y="530.292">Leyenda:</text><text fill="#000000" font-family="sans-serif" font-size="14" lengthAdjust="spacing" textLength="626.2061" x="318.9023" y="546.5889">- Color verde claro (#PaleGreen): Men&#250;s y acciones relacionadas con rutinas y ejercicios.</text><text fill="#000000" font-family="sans-serif" font-size="14" lengthAdjust="spacing" textLength="555.9053" x="318.9023" y="562.8857">- Color salm&#243;n claro (#LightSalmon): Men&#250;s y acciones relacionadas con retos.</text><text fill="#000000" font-family="sans-serif" font-size="14" lengthAdjust="spacing" textLength="509.9404" x="318.9023" y="579.1826">- Color dorado (#Gold): Men&#250;s y acciones relacionadas con clasificaci&#243;n.</text><text fill="#000000" font-family="sans-serif" font-size="14" lengthAdjust="spacing" textLength="523.9336" x="318.9023" y="595.4795">- Color coral claro (#LightCoral): Men&#250;s y acciones relacionadas con perfil.</text><text fill="#000000" font-family="sans-serif" font-size="14" lengthAdjust="spacing" textLength="676.252" x="318.9023" y="611.7764">- Color azul claro (#LightBlue): Navegaci&#243;n general entre men&#250;s o regreso a la p&#225;gina principal.</text><text fill="#000000" font-family="sans-serif" font-size="14" lengthAdjust="spacing" textLength="652.374" x="318.9023" y="628.0732">- Color amarillo verde (#YellowGreen): Acciones relacionadas con el inicio y cierre de sesi&#243;n.</text><!--SRC=[dPJDRjD04CVlVef1FT1AQHyWKf0MTniPEKvaEuW8eMYnfs5XuutMQMbu3MwzyGpSkER5cFLtlb3eBLdF_6Ts_h-TLodUommXv6xCWg7FBvzwa6YbpHKOJDOYMoY49xWepXpdDGm60s1kF0vv13FWFX_n81v7C0czmFKcpATpYd5QnMaqPQ4txi4CbTBVXmOnk-fyP_vq59p-F653Bs3pHhy7lbnyMRzL3zWD2zXxFcIkDmxcrD4qwa7qRLC6LLtJyVPvlpaREm-dCPM8vfivVyT3roCLofy8XGVTbF4yjW557v5GItqOuleiykuyj-Ye1qEjqeEO2G_llFe-hZP2KQzLio7tYrH-EDbgdd3zyQ8pia_NRw2SP1-yJ2PI6CWnbzlVcLEU7qdOdotOt8N1d9A5WbpcQrmAvo2CbAhfMfNzqPDA81vnGI8hRM29sVPFNb-CHp6x7OCNn3mSyLkFsgtpjpy389X2thNgG9ngDyxOwYSTj9UXQu1vMCjCvB01_8eceT7e_AXinyzMs5hTAE7wHAhrjydPyRxEJPJ8vRrCH59OSh9-mK4ZLI9IQwpGt4jrEhSsv8Yj8RQsIek7hWrn2R8F9Mdby9bRWJUhVTWdiDlQlr7eWokMdosB1GNEaVcyGA0qvIM9np3vFvrgQZwVyU2M5UDGkC0i1MCjS7pSq1_HTwx1jJiJ7j6aQEqt6YvRTA_wC2eU1d4f4l8Zmvm0KyB-52dnckZiABitZNHEh19CZNXt8PqdRu5kzL9YBxL2nRewIs4NwrOgiHZlDbPkkBDKIz1RDV7ZOK-isEprdYbg0vc0jYXcQuFLrW5DufPyJSz7qGlQ_bhGG65bP9R8bUZMM0eZQJjMXbrsToLLOYURnVf5qPKIYOQAKtwrUsySYqP9o5y0]--></g></svg>