<svg xmlns="http://www.w3.org/2000/svg" xmlns:xlink="http://www.w3.org/1999/xlink" contentStyleType="text/css" height="275px" preserveAspectRatio="none" style="width:745px;height:275px;background:#FFFFFF;" version="1.1" viewBox="0 0 745 275" width="745px" zoomAndPan="magnify"><defs/><g><!--entity NAVEGACION_MENUS--><g id="elem_NAVEGACION_MENUS"><rect fill="#87CEEB" height="36.2969" rx="2.5" ry="2.5" style="stroke:#181818;stroke-width:0.5;" width="171.8262" x="291.5" y="233"/><text fill="#000000" font-family="sans-serif" font-size="14" lengthAdjust="spacing" textLength="151.8262" x="301.5" y="255.9951">NAVEGACION_MENUS</text></g><!--entity MENU_PERFIL--><g id="elem_MENU_PERFIL"><rect fill="#F08080" height="36.2969" rx="2.5" ry="2.5" style="stroke:#181818;stroke-width:0.5;" width="115.6416" x="310.5" y="7"/><text fill="#000000" font-family="sans-serif" font-size="14" lengthAdjust="spacing" textLength="95.6416" x="320.5" y="29.9951">MENU_PERFIL</text></g><!--entity VIENDO_INSIGNIAS--><g id="elem_VIENDO_INSIGNIAS"><rect fill="#F08080" height="36.2969" rx="2.5" ry="2.5" style="stroke:#181818;stroke-width:0.5;" width="153.3555" x="7" y="120"/><text fill="#000000" font-family="sans-serif" font-size="14" lengthAdjust="spacing" textLength="133.3555" x="17" y="142.9951">VIENDO_INSIGNIAS</text></g><!--entity INSCRIBIENDO_CLASE--><g id="elem_INSCRIBIENDO_CLASE"><rect fill="#F08080" height="36.2969" rx="2.5" ry="2.5" style="stroke:#181818;stroke-width:0.5;" width="173.8564" x="195.5" y="120"/><text fill="#000000" font-family="sans-serif" font-size="14" lengthAdjust="spacing" textLength="153.8564" x="205.5" y="142.9951">INSCRIBIENDO_CLASE</text></g><!--entity MOSTRANDO_QR--><g id="elem_MOSTRANDO_QR"><rect fill="#F08080" height="36.2969" rx="2.5" ry="2.5" style="stroke:#181818;stroke-width:0.5;" width="139.8613" x="404.5" y="120"/><text fill="#000000" font-family="sans-serif" font-size="14" lengthAdjust="spacing" textLength="119.8613" x="414.5" y="142.9951">MOSTRANDO_QR</text></g><!--entity CERRANDO_SESION--><g id="elem_CERRANDO_SESION"><rect fill="#F08080" height="36.2969" rx="2.5" ry="2.5" style="stroke:#181818;stroke-width:0.5;" width="159.166" x="580" y="120"/><text fill="#000000" font-family="sans-serif" font-size="14" lengthAdjust="spacing" textLength="139.166" x="590" y="142.9951">CERRANDO_SESION</text></g><!--link MENU_PERFIL to VIENDO_INSIGNIAS--><g id="link_MENU_PERFIL_VIENDO_INSIGNIAS"><path d="M310.22,40.11 C279.22,48.34 240.76,59.71 207.5,73 C173.98,86.4 142.6923,102.9258 118.0323,116.8758 " fill="none" id="MENU_PERFIL-to-VIENDO_INSIGNIAS" style="stroke:#F08080;stroke-width:1;"/><polygon fill="#F08080" points="112.81,119.83,122.613,118.8802,117.1619,117.3681,118.674,111.9171,112.81,119.83" style="stroke:#F08080;stroke-width:1;"/><text fill="#000000" font-family="sans-serif" font-size="13" lengthAdjust="spacing" textLength="83.4463" x="208.5" y="86.0669">Ver insignias</text></g><!--link MENU_PERFIL to INSCRIBIENDO_CLASE--><g id="link_MENU_PERFIL_INSCRIBIENDO_CLASE"><path d="M341.61,43.01 C330.54,51.04 318.28,61.42 309.5,73 C298.79,87.13 293.2814,100.4068 288.9914,114.0368 " fill="none" id="MENU_PERFIL-to-INSCRIBIENDO_CLASE" style="stroke:#F08080;stroke-width:1;"/><polygon fill="#F08080" points="287.19,119.76,293.7075,112.3761,288.6911,114.9907,286.0766,109.9743,287.19,119.76" style="stroke:#F08080;stroke-width:1;"/><text fill="#000000" font-family="sans-serif" font-size="13" lengthAdjust="spacing" textLength="110.1572" x="310.5" y="86.0669">Inscribir en clase</text></g><!--link MENU_PERFIL to MOSTRANDO_QR--><g id="link_MENU_PERFIL_MOSTRANDO_QR"><path d="M391.73,43.19 C402.5,51.64 415.17,62.29 425.5,73 C439.68,87.71 450.1942,101.5312 459.5542,114.9312 " fill="none" id="MENU_PERFIL-to-MOSTRANDO_QR" style="stroke:#F08080;stroke-width:1;"/><polygon fill="#F08080" points="462.99,119.85,461.1155,110.1812,460.1268,115.751,454.557,114.7623,462.99,119.85" style="stroke:#F08080;stroke-width:1;"/><text fill="#000000" font-family="sans-serif" font-size="13" lengthAdjust="spacing" textLength="73.0933" x="441.5" y="86.0669">Mostrar QR</text></g><!--link MENU_PERFIL to CERRANDO_SESION--><g id="link_MENU_PERFIL_CERRANDO_SESION"><path d="M426.59,41.45 C455.98,49.8 492.01,60.89 523.5,73 C559.67,86.91 594.2865,103.5108 621.4765,117.2708 " fill="none" id="MENU_PERFIL-to-CERRANDO_SESION" style="stroke:#F08080;stroke-width:1;"/><polygon fill="#F08080" points="626.83,119.98,620.6059,112.3471,622.3687,117.7223,616.9936,119.4851,626.83,119.98" style="stroke:#F08080;stroke-width:1;"/><text fill="#000000" font-family="sans-serif" font-size="13" lengthAdjust="spacing" textLength="86.5566" x="563.5" y="86.0669">Cerrar sesión</text></g><!--link VIENDO_INSIGNIAS to NAVEGACION_MENUS--><g id="link_VIENDO_INSIGNIAS_NAVEGACION_MENUS"><path d="M110.73,156.18 C134.09,170.32 169.02,190.07 201.5,203 C232.2,215.23 261.3488,223.8461 291.9788,231.4961 " fill="none" id="VIENDO_INSIGNIAS-to-NAVEGACION_MENUS" style="stroke:#87CEEB;stroke-width:1;"/><polygon fill="#87CEEB" points="297.8,232.95,290.0375,226.8884,292.949,231.7384,288.099,234.65,297.8,232.95" style="stroke:#87CEEB;stroke-width:1;"/><text fill="#000000" font-family="sans-serif" font-size="13" lengthAdjust="spacing" textLength="96.1543" x="202.5" y="199.0669">Cambiar menú</text></g><!--link INSCRIBIENDO_CLASE to NAVEGACION_MENUS--><g id="link_INSCRIBIENDO_CLASE_NAVEGACION_MENUS"><path d="M290.25,156.13 C296.86,169.68 307.25,188.66 319.5,203 C329.01,214.14 336.6374,220.9902 347.5374,229.2002 " fill="none" id="INSCRIBIENDO_CLASE-to-NAVEGACION_MENUS" style="stroke:#87CEEB;stroke-width:1;"/><polygon fill="#87CEEB" points="352.33,232.81,347.5477,224.2002,348.3362,229.8018,342.7345,230.5903,352.33,232.81" style="stroke:#87CEEB;stroke-width:1;"/><text fill="#000000" font-family="sans-serif" font-size="13" lengthAdjust="spacing" textLength="96.1543" x="320.5" y="199.0669">Cambiar menú</text></g><!--link MOSTRANDO_QR to NAVEGACION_MENUS--><g id="link_MOSTRANDO_QR_NAVEGACION_MENUS"><path d="M460.83,156.08 C450.28,169.11 435.23,187.41 421.5,203 C412.64,213.07 406.5425,219.67 398.1825,228.47 " fill="none" id="MOSTRANDO_QR-to-NAVEGACION_MENUS" style="stroke:#87CEEB;stroke-width:1;"/><polygon fill="#87CEEB" points="394.05,232.82,403.1487,229.05,397.4937,229.195,397.3487,223.54,394.05,232.82" style="stroke:#87CEEB;stroke-width:1;"/><text fill="#000000" font-family="sans-serif" font-size="13" lengthAdjust="spacing" textLength="96.1543" x="436.5" y="199.0669">Cambiar menú</text></g><!--link CERRANDO_SESION to NAVEGACION_MENUS--><g id="link_CERRANDO_SESION_NAVEGACION_MENUS"><path d="M632.2,156.03 C608.81,170.07 573.86,189.77 541.5,203 C512.16,214.99 484.4947,223.614 455.4847,231.404 " fill="none" id="CERRANDO_SESION-to-NAVEGACION_MENUS" style="stroke:#87CEEB;stroke-width:1;"/><polygon fill="#87CEEB" points="449.69,232.96,459.4194,234.4891,454.5189,231.6633,457.3447,226.7628,449.69,232.96" style="stroke:#87CEEB;stroke-width:1;"/><text fill="#000000" font-family="sans-serif" font-size="13" lengthAdjust="spacing" textLength="96.1543" x="579.5" y="199.0669">Cambiar menú</text></g><!--SRC=[bPBHJeCm58RlUOfZTg4ax0LCCEbg9KsWA9tSB8OmhDZ8Ij9YCb_5r_3EMrxCuanWp95msVRx_fo_xSMpU95AG4Bm6h4W95Tx3ugwghKBMXHDhifAm7xnk-KuFSPGIWA4QSooYB17xW5_-rXLxy8TGDr9Ta-IEnfw4ChojS6rpYjt69HImcxZZ39E0qOHFmPxpW8ueQi3ZKF4oJaoYlawGHtsa9nZC4aE22VSTXXDTmc-xuETlls4m_ZTXZEe0ylDebUUbZSmxW7Na0eDKXbPAfcRQVkqdVMfCeMMMwb1A2Ygt8Zfa65ngqUrQNIkmIwclT5bM1KBtPb66Db-AUUacutuU-xE7_-5BY3VRQLDs0dLVZl_j9kPS5HjfZkkDq__0G00]--></g></svg>