<svg xmlns="http://www.w3.org/2000/svg" xmlns:xlink="http://www.w3.org/1999/xlink" contentStyleType="text/css" data-diagram-type="STATE" height="883px" preserveAspectRatio="none" style="width:642px;height:883px;background:#FFFFFF;" version="1.1" viewBox="0 0 642 883" width="642px" zoomAndPan="magnify"><defs/><g><!--cluster ActualizandoEstadoMensaje--><g id="cluster_ActualizandoEstadoMensaje"><path d="M35.5,239 L237.5,239 A12.5,12.5 0 0 1 250,251.5 L250,260.2969 L23,260.2969 L23,251.5 A12.5,12.5 0 0 1 35.5,239 " fill="#F1F1F1" style="stroke:#F1F1F1;stroke-width:1;"/><rect fill="#FFFFFF" fill-opacity="0.00000" height="561" rx="12.5" ry="12.5" style="stroke:#181818;stroke-width:0.5;" width="227" x="23" y="239"/><line style="stroke:#181818;stroke-width:0.5;" x1="23" x2="250" y1="260.2969" y2="260.2969"/><text fill="#000000" font-family="sans-serif" font-size="14" lengthAdjust="spacing" textLength="195.8496" x="38.5752" y="255.9951">ActualizandoEstadoMensaje</text></g><g id="ActualizandoEstadoMensaje.Pendiente"><rect fill="#F1F1F1" height="50" rx="12.5" ry="12.5" style="stroke:#181818;stroke-width:0.5;" width="90.2939" x="86.85" y="504"/><line style="stroke:#181818;stroke-width:0.5;" x1="86.85" x2="177.1439" y1="530.2969" y2="530.2969"/><text fill="#000000" font-family="sans-serif" font-size="14" lengthAdjust="spacing" textLength="70.2939" x="96.85" y="521.9951">Pendiente</text></g><g id="ActualizandoEstadoMensaje.Leído"><rect fill="#F1F1F1" height="50" rx="12.5" ry="12.5" style="stroke:#181818;stroke-width:0.5;" width="57.7549" x="47.12" y="726"/><line style="stroke:#181818;stroke-width:0.5;" x1="47.12" x2="104.8749" y1="752.2969" y2="752.2969"/><text fill="#000000" font-family="sans-serif" font-size="14" lengthAdjust="spacing" textLength="37.7549" x="57.12" y="743.9951">Leído</text></g><g id="ActualizandoEstadoMensaje.Atrasado"><rect fill="#F1F1F1" height="50" rx="12.5" ry="12.5" style="stroke:#181818;stroke-width:0.5;" width="82.7266" x="90.64" y="615"/><line style="stroke:#181818;stroke-width:0.5;" x1="90.64" x2="173.3666" y1="641.2969" y2="641.2969"/><text fill="#000000" font-family="sans-serif" font-size="14" lengthAdjust="spacing" textLength="62.7266" x="100.64" y="632.9951">Atrasado</text></g><g id="ActualizandoEstadoMensaje.Firmado"><rect fill="#F1F1F1" height="50" rx="12.5" ry="12.5" style="stroke:#181818;stroke-width:0.5;" width="77.3672" x="140.32" y="726"/><line style="stroke:#181818;stroke-width:0.5;" x1="140.32" x2="217.6872" y1="752.2969" y2="752.2969"/><text fill="#000000" font-family="sans-serif" font-size="14" lengthAdjust="spacing" textLength="57.3672" x="150.32" y="743.9951">Firmado</text></g><g id="ActualizandoEstadoMensaje.Creado"><rect fill="#F1F1F1" height="50" rx="12.5" ry="12.5" style="stroke:#181818;stroke-width:0.5;" width="70.1758" x="96.91" y="282"/><line style="stroke:#181818;stroke-width:0.5;" x1="96.91" x2="167.0858" y1="308.2969" y2="308.2969"/><text fill="#000000" font-family="sans-serif" font-size="14" lengthAdjust="spacing" textLength="50.1758" x="106.91" y="299.9951">Creado</text></g><g id="ActualizandoEstadoMensaje.Enviado"><rect fill="#F1F1F1" height="50" rx="12.5" ry="12.5" style="stroke:#181818;stroke-width:0.5;" width="75.9248" x="94.04" y="393"/><line style="stroke:#181818;stroke-width:0.5;" x1="94.04" x2="169.9648" y1="419.2969" y2="419.2969"/><text fill="#000000" font-family="sans-serif" font-size="14" lengthAdjust="spacing" textLength="55.9248" x="104.04" y="410.9951">Enviado</text></g><g id="Destinatario"><rect fill="#F1F1F1" height="50" rx="12.5" ry="12.5" style="stroke:#181818;stroke-width:0.5;" width="105.7979" x="61.1" y="7"/><line style="stroke:#181818;stroke-width:0.5;" x1="61.1" x2="166.8979" y1="33.2969" y2="33.2969"/><text fill="#000000" font-family="sans-serif" font-size="14" lengthAdjust="spacing" textLength="85.7979" x="71.1" y="24.9951">Destinatario</text></g><g id="Remitente"><rect fill="#F1F1F1" height="50" rx="12.5" ry="12.5" style="stroke:#181818;stroke-width:0.5;" width="92.9463" x="114.53" y="118"/><line style="stroke:#181818;stroke-width:0.5;" x1="114.53" x2="207.4763" y1="144.2969" y2="144.2969"/><text fill="#000000" font-family="sans-serif" font-size="14" lengthAdjust="spacing" textLength="72.9463" x="124.53" y="135.9951">Remitente</text></g><ellipse cx="16" cy="32" fill="#222222" rx="10" ry="10" style="stroke:#222222;stroke-width:1;"/><g id="RastreadorDocumento"><rect fill="#F1F1F1" height="50" rx="12.5" ry="12.5" style="stroke:#181818;stroke-width:0.5;" width="178.3408" x="343.83" y="7"/><line style="stroke:#181818;stroke-width:0.5;" x1="343.83" x2="522.1708" y1="33.2969" y2="33.2969"/><text fill="#000000" font-family="sans-serif" font-size="14" lengthAdjust="spacing" textLength="158.3408" x="353.83" y="24.9951">RastreadorDocumento</text></g><g id="elem_DocumentosFaltantes"><polygon fill="#F1F1F1" points="345,295,357,307,345,319,333,307,345,295" style="stroke:#181818;stroke-width:0.5;"/></g><ellipse cx="127" cy="866" fill="#FFFFFF" fill-opacity="0.00000" rx="11" ry="11" style="stroke:#222222;stroke-width:1;"/><ellipse cx="127" cy="866" fill="#222222" rx="6" ry="6" style="stroke:#222222;stroke-width:1;"/><!--link startDestinatario to Destinatario--><g id="link_startDestinatario_Destinatario"><path d="M26.34,32 C37.86,32 43.39,32 54.92,32 " fill="#FFFFFF" fill-opacity="0.00000" id="startDestinatario-to-Destinatario" style="stroke:#181818;stroke-width:1;"/><polygon fill="#181818" points="60.92,32,51.92,28,55.92,32,51.92,36,60.92,32" style="stroke:#181818;stroke-width:1;"/></g><!--link startDestinatario to Remitente--><g id="link_startDestinatario_Remitente"><path d="M23.23,39.48 C28.81,44.41 36.76,51.29 44,57 C70.9,78.24 97.4683,97.5398 120.9983,114.1498 " fill="#FFFFFF" fill-opacity="0.00000" id="startDestinatario-to-Remitente" style="stroke:#181818;stroke-width:1;"/><polygon fill="#181818" points="125.9,117.61,120.8542,109.1519,121.8152,114.7265,116.2406,115.6876,125.9,117.61" style="stroke:#181818;stroke-width:1;"/></g><!--link Destinatario to RastreadorDocumento--><g id="link_Destinatario_RastreadorDocumento"><path d="M167.39,32 C215.37,32 280.79,32 337.49,32 " fill="#FFFFFF" fill-opacity="0.00000" id="Destinatario-to-RastreadorDocumento" style="stroke:#181818;stroke-width:1;"/><polygon fill="#181818" points="343.49,32,334.49,28,338.49,32,334.49,36,343.49,32" style="stroke:#181818;stroke-width:1;"/><text fill="#000000" font-family="sans-serif" font-size="13" lengthAdjust="spacing" textLength="140.8228" x="185.36" y="25.0669">Accede al documento</text></g><!--link Remitente to ActualizandoEstadoMensaje--><g id="link_Remitente_ActualizandoEstadoMensaje"><path d="M171.3,168.29 C179.02,183.75 191,203.04 207,215 C217.02,222.49 226.04,213.34 234,223 C236.855,226.4625 239.1359,230.3036 240.94,234.3808 C241.391,235.4001 241.8122,236.4342 242.2051,237.4808 C242.3033,237.7424 242.3998,238.0048 242.4945,238.268 C242.5418,238.3996 240.5951,232.8723 240.6416,233.0042 " fill="#FFFFFF" fill-opacity="0.00000" id="Remitente-to-ActualizandoEstadoMensaje" style="stroke:#181818;stroke-width:1;"/><polygon fill="#181818" points="242.6352,238.6633,243.4175,228.8456,240.9739,233.9474,235.872,231.5038,242.6352,238.6633" style="stroke:#181818;stroke-width:1;"/><text fill="#000000" font-family="sans-serif" font-size="13" lengthAdjust="spacing" textLength="110.3794" x="208" y="211.0669">Crea un mensaje</text></g><!--link RastreadorDocumento to DocumentosFaltantes--><g id="link_RastreadorDocumento_DocumentosFaltantes"><path d="M418.82,57.24 C409.57,73.88 397.8,96.73 390,118 C365.84,183.85 352.0943,261.5664 347.5043,290.0564 " fill="#FFFFFF" fill-opacity="0.00000" id="RastreadorDocumento-to-DocumentosFaltantes" style="stroke:#181818;stroke-width:1;"/><polygon fill="#181818" points="346.55,295.98,351.9306,287.7308,347.3453,291.0437,344.0324,286.4583,346.55,295.98" style="stroke:#181818;stroke-width:1;"/></g><!--link DocumentosFaltantes to RastreadorDocumento--><g id="link_DocumentosFaltantes_RastreadorDocumento"><path d="M349.33,298.7 C358.14,283.58 378.3,247.5 390,215 C409.74,160.17 421.9179,98.6623 428.0379,63.2623 " fill="#FFFFFF" fill-opacity="0.00000" id="DocumentosFaltantes-to-RastreadorDocumento" style="stroke:#181818;stroke-width:1;"/><polygon fill="#181818" points="429.06,57.35,423.5853,65.537,428.2082,62.2769,431.4683,66.8999,429.06,57.35" style="stroke:#181818;stroke-width:1;"/><text fill="#000000" font-family="sans-serif" font-size="13" lengthAdjust="spacing" textLength="217.6675" x="417" y="147.5669">Aún quedan documentos por leer</text></g><!--link DocumentosFaltantes to ActualizandoEstadoMensaje--><g id="link_DocumentosFaltantes_ActualizandoEstadoMensaje"><path d="M332.62,307 C317.65,307 302.68,307 287.71,307 C280.225,307 272.74,307 265.255,307 C261.5125,307 257.77,307 254.0275,307 C253.0919,307 252.1563,307 251.2206,307 C250.9867,307 250.7528,307 250.5189,307 C250.402,307 256.285,307 256.168,307 " fill="#FFFFFF" fill-opacity="0.00000" id="DocumentosFaltantes-to-ActualizandoEstadoMensaje" style="stroke:#181818;stroke-width:1;"/><polygon fill="#181818" points="250.168,307,259.168,311,255.168,307,259.168,303,250.168,307" style="stroke:#181818;stroke-width:1;"/></g><!--link Creado to Enviado--><g id="link_Creado_Enviado"><path d="M132,332.46 C132,350.41 132,368.69 132,386.62 " fill="#FFFFFF" fill-opacity="0.00000" id="Creado-to-Enviado" style="stroke:#181818;stroke-width:1;"/><polygon fill="#181818" points="132,392.62,136,383.62,132,387.62,128,383.62,132,392.62" style="stroke:#181818;stroke-width:1;"/></g><!--link Enviado to Pendiente--><g id="link_Enviado_Pendiente"><path d="M132,443.46 C132,461.41 132,479.69 132,497.62 " fill="#FFFFFF" fill-opacity="0.00000" id="Enviado-to-Pendiente" style="stroke:#181818;stroke-width:1;"/><polygon fill="#181818" points="132,503.62,136,494.62,132,498.62,128,494.62,132,503.62" style="stroke:#181818;stroke-width:1;"/></g><!--link Pendiente to Le?do--><g id="link_Pendiente_Leído"><path d="M109.17,554.22 C95.78,570.15 80.14,592.2 73,615 C61.3,652.36 65.1129,692.5186 69.8929,720.0286 " fill="#FFFFFF" fill-opacity="0.00000" id="Pendiente-to-Leído" style="stroke:#181818;stroke-width:1;"/><polygon fill="#181818" points="70.92,725.94,73.3202,716.3881,70.064,721.0138,65.4383,717.7576,70.92,725.94" style="stroke:#181818;stroke-width:1;"/></g><!--link Pendiente to Firmado--><g id="link_Pendiente_Firmado"><path d="M154.83,554.22 C168.22,570.15 183.86,592.2 191,615 C202.74,652.5 195.6325,692.7297 188.1725,720.1997 " fill="#FFFFFF" fill-opacity="0.00000" id="Pendiente-to-Firmado" style="stroke:#181818;stroke-width:1;"/><polygon fill="#181818" points="186.6,725.99,192.8189,718.3529,187.9104,721.1648,185.0985,716.2563,186.6,725.99" style="stroke:#181818;stroke-width:1;"/></g><!--link Pendiente to Atrasado--><g id="link_Pendiente_Atrasado"><path d="M132,554.46 C132,572.41 132,590.69 132,608.62 " fill="#FFFFFF" fill-opacity="0.00000" id="Pendiente-to-Atrasado" style="stroke:#181818;stroke-width:1;"/><polygon fill="#181818" points="132,614.62,136,605.62,132,609.62,128,605.62,132,614.62" style="stroke:#181818;stroke-width:1;"/></g><!--link Atrasado to Le?do--><g id="link_Atrasado_Leído"><path d="M119.43,665.46 C110.21,683.41 100.4815,702.3529 91.2715,720.2829 " fill="#FFFFFF" fill-opacity="0.00000" id="Atrasado-to-Leído" style="stroke:#181818;stroke-width:1;"/><polygon fill="#181818" points="88.53,725.62,96.2002,719.442,90.8146,721.1724,89.0841,715.7867,88.53,725.62" style="stroke:#181818;stroke-width:1;"/></g><!--link Atrasado to Firmado--><g id="link_Atrasado_Firmado"><path d="M142.55,665.46 C150.29,683.41 158.3846,702.1802 166.1146,720.1102 " fill="#FFFFFF" fill-opacity="0.00000" id="Atrasado-to-Firmado" style="stroke:#181818;stroke-width:1;"/><polygon fill="#181818" points="168.49,725.62,168.6001,715.7718,166.5105,721.0285,161.2538,718.9389,168.49,725.62" style="stroke:#181818;stroke-width:1;"/></g><!--link Le?do to *end*--><g id="link_Leído_*end*"><path d="M86.94,776.24 C98.12,801.01 112.4512,832.7614 120.2612,850.0614 " fill="#FFFFFF" fill-opacity="0.00000" id="Leído-to-*end*" style="stroke:#181818;stroke-width:1;"/><polygon fill="#181818" points="122.73,855.53,122.6726,845.6813,120.6727,850.9729,115.3812,848.973,122.73,855.53" style="stroke:#181818;stroke-width:1;"/></g><!--link Firmado to *end*--><g id="link_Firmado_*end*"><path d="M167.84,776.24 C156.44,801.01 141.828,832.7793 133.868,850.0793 " fill="#FFFFFF" fill-opacity="0.00000" id="Firmado-to-*end*" style="stroke:#181818;stroke-width:1;"/><polygon fill="#181818" points="131.36,855.53,138.7557,849.0259,133.45,850.9877,131.4881,845.682,131.36,855.53" style="stroke:#181818;stroke-width:1;"/></g><!--SRC=[VL6xRiCm3Dpr5PmB-0U2m42HnzG2HTOY0s4Hg0fRQYMwGuD-Kd-WQtwiYYp9TgnaiNKdwdWyEaOcs99ZfP7HAYDSe0xKAIRD5B7_MfxM0QpNWQnhiRoiR5KlPAzhVCbrcmCwjeJIsArf-ixV94EF3VVOgc_Kqkmy9SqpQOVlwMMkTtji6RsaymutRqOrD5Yy9m8d4KjUI4irSVH4vr-PJR15XndkbUr6j0d68zZfBtL1uaS8iOocC2UilBs6906s8FFqEQ6Gr-q1Lg4_z1gwc4kfnqMZa9GefLTLjusU_pHyzYHHZrOTV1WBBP4jozbx_drAGtx1Oael_WCtBYQV0XyND2VJPkPiNbywJ0LcN7elXil0lJuSHUGJ_WS0]--></g></svg>