<svg xmlns="http://www.w3.org/2000/svg" xmlns:xlink="http://www.w3.org/1999/xlink" contentStyleType="text/css" height="946px" preserveAspectRatio="none" style="width:542px;height:946px;background:#FFFFFF;" version="1.1" viewBox="0 0 542 946" width="542px" zoomAndPan="magnify"><defs/><g><ellipse cx="324.5" cy="16" fill="#222222" rx="10" ry="10" style="stroke:#222222;stroke-width:1.0;"/><g id="Usuario"><rect fill="#F1F1F1" height="54.582" rx="12.5" ry="12.5" style="stroke:#181818;stroke-width:0.5;" width="119.3984" x="207" y="87"/><line style="stroke:#181818;stroke-width:0.5;" x1="207" x2="326.3984" y1="115.6211" y2="115.6211"/><text fill="#000000" font-family="sans-serif" font-size="14" lengthAdjust="spacing" textLength="48.2412" x="242.5786" y="107.1074">Usuario</text><text fill="#000000" font-family="sans-serif" font-size="12" lengthAdjust="spacing" textLength="99.3984" x="212" y="133.5703">Estado del usuario</text></g><g id="Alta"><rect fill="#F1F1F1" height="54.582" rx="12.5" ry="12.5" style="stroke:#181818;stroke-width:0.5;" width="96.0313" x="87.5" y="221"/><line style="stroke:#181818;stroke-width:0.5;" x1="87.5" x2="183.5313" y1="249.6211" y2="249.6211"/><text fill="#000000" font-family="sans-serif" font-size="14" lengthAdjust="spacing" textLength="24.124" x="123.4536" y="241.1074">Alta</text><text fill="#000000" font-family="sans-serif" font-size="12" lengthAdjust="spacing" textLength="76.0313" x="92.5" y="267.5703">Usuario activo</text></g><g id="NoAlta"><rect fill="#F1F1F1" height="54.582" rx="12.5" ry="12.5" style="stroke:#181818;stroke-width:0.5;" width="105.3711" x="219" y="221"/><line style="stroke:#181818;stroke-width:0.5;" x1="219" x2="324.3711" y1="249.6211" y2="249.6211"/><text fill="#000000" font-family="sans-serif" font-size="14" lengthAdjust="spacing" textLength="42.0205" x="250.6753" y="241.1074">NoAlta</text><text fill="#000000" font-family="sans-serif" font-size="12" lengthAdjust="spacing" textLength="85.3711" x="224" y="267.5703">Usuario inactivo</text></g><g id="Suspendido"><rect fill="#F1F1F1" height="54.582" rx="12.5" ry="12.5" style="stroke:#181818;stroke-width:0.5;" width="209.4395" x="7" y="355"/><line style="stroke:#181818;stroke-width:0.5;" x1="7" x2="216.4395" y1="383.6211" y2="383.6211"/><text fill="#000000" font-family="sans-serif" font-size="14" lengthAdjust="spacing" textLength="73.9512" x="74.7441" y="375.1074">Suspendido</text><text fill="#000000" font-family="sans-serif" font-size="12" lengthAdjust="spacing" textLength="189.4395" x="12" y="401.5703">Usuario temporalmente suspendido</text></g><g id="Post"><rect fill="#F1F1F1" height="54.582" rx="12.5" ry="12.5" style="stroke:#181818;stroke-width:0.5;" width="102.7227" x="235" y="489"/><line style="stroke:#181818;stroke-width:0.5;" x1="235" x2="337.7227" y1="517.6211" y2="517.6211"/><text fill="#000000" font-family="sans-serif" font-size="14" lengthAdjust="spacing" textLength="28.0137" x="272.3545" y="509.1074">Post</text><text fill="#000000" font-family="sans-serif" font-size="12" lengthAdjust="spacing" textLength="82.7227" x="240" y="535.5703">Estado del post</text></g><g id="Borrador"><rect fill="#F1F1F1" height="50" rx="12.5" ry="12.5" style="stroke:#181818;stroke-width:0.5;" width="74.4688" x="249.5" y="623"/><line style="stroke:#181818;stroke-width:0.5;" x1="249.5" x2="323.9688" y1="651.6211" y2="651.6211"/><text fill="#000000" font-family="sans-serif" font-size="14" lengthAdjust="spacing" textLength="54.4688" x="259.5" y="643.1074">Borrador</text></g><g id="Resuelto"><rect fill="#F1F1F1" height="54.582" rx="12.5" ry="12.5" style="stroke:#181818;stroke-width:0.5;" width="75.2549" x="169" y="752"/><line style="stroke:#181818;stroke-width:0.5;" x1="169" x2="244.2549" y1="780.6211" y2="780.6211"/><text fill="#000000" font-family="sans-serif" font-size="14" lengthAdjust="spacing" textLength="55.2549" x="179" y="772.1074">Resuelto</text><text fill="#000000" font-family="sans-serif" font-size="12" lengthAdjust="spacing" textLength="47.3613" x="174" y="798.5703">Resuelto</text></g><g id="NoResuelto"><rect fill="#F1F1F1" height="54.582" rx="12.5" ry="12.5" style="stroke:#181818;stroke-width:0.5;" width="93.1514" x="205" y="886"/><line style="stroke:#181818;stroke-width:0.5;" x1="205" x2="298.1514" y1="914.6211" y2="914.6211"/><text fill="#000000" font-family="sans-serif" font-size="14" lengthAdjust="spacing" textLength="73.1514" x="215" y="906.1074">NoResuelto</text><text fill="#000000" font-family="sans-serif" font-size="12" lengthAdjust="spacing" textLength="61.3652" x="210" y="932.5703">No resuelto</text></g><!--link *start* to Usuario--><g id="link_*start*_Usuario"><path d="M319.75,24.9 C311.75,38.22 298.2913,60.6077 285.7513,81.4677 " fill="none" id="*start*-to-Usuario" style="stroke:#181818;stroke-width:1.0;"/><polygon fill="#181818" points="282.66,86.61,290.7252,80.9574,285.2361,82.3247,283.8688,76.8356,282.66,86.61" style="stroke:#181818;stroke-width:1.0;"/></g><!--link Usuario to Alta--><g id="link_Usuario_Alta"><path d="M216.95,142.03 C203.82,150.5 190.31,160.66 179.5,172 C166,186.17 157.5993,199.8565 149.9393,215.2765 " fill="none" id="Usuario-to-Alta" style="stroke:#181818;stroke-width:1.0;"/><polygon fill="#181818" points="147.27,220.65,154.8563,214.3693,149.4944,216.1721,147.6917,210.8102,147.27,220.65" style="stroke:#181818;stroke-width:1.0;"/><text fill="#000000" font-family="sans-serif" font-size="13" lengthAdjust="spacing" textLength="73.7217" x="180.5" y="187.0283">Dado de alta</text></g><!--link Usuario to NoAlta--><g id="link_Usuario_NoAlta"><path d="M264.02,142.08 C263.03,156.55 262.36,174.77 263.5,191 C264.19,200.78 264.6561,205.5155 266.0561,214.9155 " fill="none" id="Usuario-to-NoAlta" style="stroke:#181818;stroke-width:1.0;"/><polygon fill="#181818" points="266.94,220.85,269.5706,211.3589,266.2034,215.9045,261.6578,212.5374,266.94,220.85" style="stroke:#181818;stroke-width:1.0;"/><text fill="#000000" font-family="sans-serif" font-size="13" lengthAdjust="spacing" textLength="91.7935" x="264.5" y="187.0283">No dado de alta</text></g><!--link Alta to Suspendido--><g id="link_Alta_Suspendido"><path d="M87.45,268.86 C71.84,277.72 56.29,289.91 47.5,306 C37.78,323.79 45.9748,337.4324 62.6348,351.0524 " fill="none" id="Alta-to-Suspendido" style="stroke:#181818;stroke-width:1.0;"/><polygon fill="#181818" points="67.28,354.85,62.8439,346.0568,63.409,351.6853,57.7804,352.2504,67.28,354.85" style="stroke:#181818;stroke-width:1.0;"/><text fill="#000000" font-family="sans-serif" font-size="13" lengthAdjust="spacing" textLength="56.3608" x="48.5" y="321.0283">Infracci&#243;n</text></g><!--link Suspendido to Alta--><g id="link_Suspendido_Alta"><path d="M116.35,354.83 C120.51,331.94 125.4076,305.0134 129.5676,282.1134 " fill="none" id="Suspendido-to-Alta" style="stroke:#181818;stroke-width:1.0;"/><polygon fill="#181818" points="130.64,276.21,125.0958,284.3501,129.7463,281.1295,132.967,285.78,130.64,276.21" style="stroke:#181818;stroke-width:1.0;"/><text fill="#000000" font-family="sans-serif" font-size="13" lengthAdjust="spacing" textLength="87.439" x="126.5" y="321.0283">Fin suspensi&#243;n</text></g><!--link *start* to Post--><g id="link_*start*_Post"><path d="M331.61,23.22 C347.1,37.5 382.5,74.41 382.5,113.5 C382.5,113.5 382.5,113.5 382.5,383.5 C382.5,426.43 353.3848,460.8168 325.9348,484.9668 " fill="none" id="*start*-to-Post" style="stroke:#181818;stroke-width:1.0;"/><polygon fill="#181818" points="321.43,488.93,330.8293,485.9884,325.184,485.6273,325.545,479.982,321.43,488.93" style="stroke:#181818;stroke-width:1.0;"/></g><!--link Alta to Post--><g id="link_Alta_Post"><path d="M183.63,272.54 C197.82,281.32 212.26,292.52 222.5,306 C264.92,361.89 278.7688,440.0777 283.5688,482.7177 " fill="none" id="Alta-to-Post" style="stroke:#181818;stroke-width:1.0;"/><polygon fill="#181818" points="284.24,488.68,287.2081,479.289,283.6807,483.7114,279.2583,480.1839,284.24,488.68" style="stroke:#181818;stroke-width:1.0;"/><text fill="#000000" font-family="sans-serif" font-size="13" lengthAdjust="spacing" textLength="28.1772" x="269.5" y="388.0283">Crea</text></g><!--link Suspendido to Post--><g id="link_Suspendido_Post"><path d="M127.47,410.15 C137.91,425.89 152.7,445.34 169.5,459 C188.84,474.73 207.7743,485.0152 229.3143,494.3452 " fill="none" id="Suspendido-to-Post" style="stroke:#181818;stroke-width:1.0;stroke-dasharray:7.0,7.0;"/><polygon fill="#181818" points="234.82,496.73,228.1513,489.4824,230.2319,494.7427,224.9716,496.8233,234.82,496.73" style="stroke:#181818;stroke-width:1.0;"/><text fill="#000000" font-family="sans-serif" font-size="13" lengthAdjust="spacing" textLength="89.6099" x="170.5" y="455.0283">No puede crear</text></g><!--link Post to Borrador--><g id="link_Post_Borrador"><path d="M286.5,544.02 C286.5,567.11 286.5,594.3 286.5,616.7 " fill="none" id="Post-to-Borrador" style="stroke:#181818;stroke-width:1.0;"/><polygon fill="#181818" points="286.5,622.7,290.5,613.7,286.5,617.7,282.5,613.7,286.5,622.7" style="stroke:#181818;stroke-width:1.0;"/><text fill="#000000" font-family="sans-serif" font-size="13" lengthAdjust="spacing" textLength="88.1499" x="287.5" y="589.0283">Creaci&#243;n inicial</text></g><!--link Borrador to Resuelto--><g id="link_Borrador_Resuelto"><path d="M249.44,663.17 C232.19,671.87 213.34,684.87 203.5,703 C195.49,717.76 195.1674,730.7267 197.9274,745.9167 " fill="none" id="Borrador-to-Resuelto" style="stroke:#181818;stroke-width:1.0;"/><polygon fill="#181818" points="199,751.82,201.3266,742.2499,198.1061,746.9005,193.4555,743.6801,199,751.82" style="stroke:#181818;stroke-width:1.0;"/><text fill="#000000" font-family="sans-serif" font-size="13" lengthAdjust="spacing" textLength="135.8398" x="204.5" y="718.0283">Marcado como resuelto</text></g><!--link Borrador to NoResuelto--><g id="link_Borrador_NoResuelto"><path d="M321.5,673.07 C330.73,681.38 339.5,691.52 344.5,703 C360.22,739.12 424.74,695.5 331.5,856 C323.64,869.53 316.0726,877.2724 303.2326,885.9424 " fill="none" id="Borrador-to-NoResuelto" style="stroke:#181818;stroke-width:1.0;"/><polygon fill="#181818" points="298.26,889.3,307.9573,887.5786,302.4038,886.502,303.4804,880.9485,298.26,889.3" style="stroke:#181818;stroke-width:1.0;"/><text fill="#000000" font-family="sans-serif" font-size="13" lengthAdjust="spacing" textLength="153.9116" x="380.5" y="785.0283">Marcado como no resuelto</text></g><!--link NoResuelto to Resuelto--><g id="link_NoResuelto_Resuelto"><path d="M242.41,885.83 C234.6,862.94 225.3445,835.7896 217.5445,812.8896 " fill="none" id="NoResuelto-to-Resuelto" style="stroke:#181818;stroke-width:1.0;"/><polygon fill="#181818" points="215.61,807.21,214.7254,817.0191,217.2221,811.943,222.2982,814.4397,215.61,807.21" style="stroke:#181818;stroke-width:1.0;"/><text fill="#000000" font-family="sans-serif" font-size="13" lengthAdjust="spacing" textLength="90.3081" x="232.5" y="852.0283">Marcar resuelto</text></g><!--link Resuelto to NoResuelto--><g id="link_Resuelto_NoResuelto"><path d="M183.03,807.07 C173.05,821.7 165.37,840.07 173.5,856 C180.42,869.55 187.3421,877.1871 199.7521,885.8071 " fill="none" id="Resuelto-to-NoResuelto" style="stroke:#181818;stroke-width:1.0;"/><polygon fill="#181818" points="204.68,889.23,199.5701,880.8104,200.5735,886.3776,195.0063,887.3809,204.68,889.23" style="stroke:#181818;stroke-width:1.0;"/><text fill="#000000" font-family="sans-serif" font-size="13" lengthAdjust="spacing" textLength="42.6245" x="174.5" y="852.0283">Reabrir</text></g><!--SRC=[TP11JWCn34NtEONNIBr05qXGG6B121LrDUh294P4cab6JiB5E08N8vvcfaafgoJ_F__Oxc-EiDdSmY4aPEjLEM4BZo6YyM1eW7HXIi7T435J3oS6C3yRl_E5wB9VGqLUMDJHVdcruejkNN5cNHBVKfZ86MkaksVtmQYr_VbsgZAgpfwiWp0xuP8w_n9fd3pZC9ABL711bEhBObvzYESUvBM57HCsl_O6moUPuqhaeQT4UMITKLOYjYkT97QM9VRUCsU7uPGzZvKtOBN5GQsca7iAYOOeCxmWQudJVlJ0HM_fpl_7kwgaOfQhQYgx2gwCQ_tmbTW_dUm9tzdoBm00]--></g></svg>