<svg xmlns="http://www.w3.org/2000/svg" xmlns:xlink="http://www.w3.org/1999/xlink" contentStyleType="text/css" height="688px" preserveAspectRatio="none" style="width:488px;height:688px;background:#FFFFFF;" version="1.1" viewBox="0 0 488 688" width="488px" zoomAndPan="magnify"><defs/><g><!--class Usuario--><g id="elem_Usuario"><rect codeLine="1" fill="#F1F1F1" height="141.1055" id="Usuario" rx="2.5" ry="2.5" style="stroke:#181818;stroke-width:0.5;" width="145.8408" x="208.5" y="7"/><ellipse cx="253.0498" cy="23" fill="#ADD1B2" rx="11" ry="11" style="stroke:#181818;stroke-width:1.0;"/><path d="M255.8154,18.875 Q255.9717,18.6563 256.1592,18.5469 Q256.3467,18.4375 256.5654,18.4375 Q256.9404,18.4375 257.1748,18.7031 Q257.4092,18.9531 257.4092,19.5625 L257.4092,21.0156 Q257.4092,21.625 257.1748,21.8906 Q256.9404,22.1563 256.5654,22.1563 Q256.2217,22.1563 256.0186,21.9531 Q255.8154,21.7656 255.7061,21.25 Q255.6592,20.8906 255.4717,20.7031 Q255.1436,20.3281 254.5342,20.1094 Q253.9248,19.8906 253.2998,19.8906 Q252.5342,19.8906 251.8936,20.2188 Q251.2686,20.5469 250.7686,21.2969 Q250.2842,22.0469 250.2842,23.0781 L250.2842,24.1719 Q250.2842,25.4063 251.1748,26.2344 Q252.0654,27.0469 253.6592,27.0469 Q254.5967,27.0469 255.2529,26.7969 Q255.6436,26.6406 256.0654,26.2031 Q256.3311,25.9375 256.4717,25.8594 Q256.6279,25.7813 256.8311,25.7813 Q257.1592,25.7813 257.4092,26.0469 Q257.6748,26.2969 257.6748,26.6406 Q257.6748,26.9844 257.3311,27.3906 Q256.8311,27.9688 256.0342,28.2969 Q254.9561,28.75 253.6592,28.75 Q252.1436,28.75 250.9404,28.125 Q249.9561,27.625 249.2686,26.5625 Q248.5811,25.4844 248.5811,24.2031 L248.5811,23.0469 Q248.5811,21.7188 249.1904,20.5781 Q249.8154,19.4219 250.9092,18.8125 Q252.0029,18.1875 253.2373,18.1875 Q253.9717,18.1875 254.6123,18.3594 Q255.2686,18.5156 255.8154,18.875 Z " fill="#000000"/><text fill="#000000" font-family="sans-serif" font-size="14" lengthAdjust="spacing" textLength="48.2412" x="273.5498" y="28.7969">Usuario</text><line style="stroke:#181818;stroke-width:0.5;" x1="209.5" x2="353.3408" y1="39" y2="39"/><ellipse cx="219.5" cy="53.8105" fill="none" rx="3" ry="3" style="stroke:#038048;stroke-width:1.0;"/><text fill="#000000" font-family="sans-serif" font-size="14" lengthAdjust="spacing" textLength="51.3584" x="228.5" y="58.1074">String id</text><ellipse cx="219.5" cy="72.4316" fill="none" rx="3" ry="3" style="stroke:#038048;stroke-width:1.0;"/><text fill="#000000" font-family="sans-serif" font-size="14" lengthAdjust="spacing" textLength="87.9307" x="228.5" y="76.7285">String nombre</text><ellipse cx="219.5" cy="91.0527" fill="none" rx="3" ry="3" style="stroke:#038048;stroke-width:1.0;"/><text fill="#000000" font-family="sans-serif" font-size="14" lengthAdjust="spacing" textLength="80.1445" x="228.5" y="95.3496">String correo</text><ellipse cx="219.5" cy="109.6738" fill="none" rx="3" ry="3" style="stroke:#038048;stroke-width:1.0;"/><text fill="#000000" font-family="sans-serif" font-size="14" lengthAdjust="spacing" textLength="109.7305" x="228.5" y="113.9707">String contrase&#241;a</text><ellipse cx="219.5" cy="128.2949" fill="none" rx="3" ry="3" style="stroke:#038048;stroke-width:1.0;"/><text fill="#000000" font-family="sans-serif" font-size="14" lengthAdjust="spacing" textLength="119.8408" x="228.5" y="132.5918">Date fechaRegistro</text><line style="stroke:#181818;stroke-width:0.5;" x1="209.5" x2="353.3408" y1="140.1055" y2="140.1055"/></g><!--class Post--><g id="elem_Post"><rect codeLine="8" fill="#F1F1F1" height="196.9688" id="Post" rx="2.5" ry="2.5" style="stroke:#181818;stroke-width:0.5;" width="176.2197" x="85.5" y="227"/><ellipse cx="155.353" cy="243" fill="#ADD1B2" rx="11" ry="11" style="stroke:#181818;stroke-width:1.0;"/><path d="M158.1187,238.875 Q158.2749,238.6563 158.4624,238.5469 Q158.6499,238.4375 158.8687,238.4375 Q159.2437,238.4375 159.478,238.7031 Q159.7124,238.9531 159.7124,239.5625 L159.7124,241.0156 Q159.7124,241.625 159.478,241.8906 Q159.2437,242.1563 158.8687,242.1563 Q158.5249,242.1563 158.3218,241.9531 Q158.1187,241.7656 158.0093,241.25 Q157.9624,240.8906 157.7749,240.7031 Q157.4468,240.3281 156.8374,240.1094 Q156.228,239.8906 155.603,239.8906 Q154.8374,239.8906 154.1968,240.2188 Q153.5718,240.5469 153.0718,241.2969 Q152.5874,242.0469 152.5874,243.0781 L152.5874,244.1719 Q152.5874,245.4063 153.478,246.2344 Q154.3687,247.0469 155.9624,247.0469 Q156.8999,247.0469 157.5562,246.7969 Q157.9468,246.6406 158.3687,246.2031 Q158.6343,245.9375 158.7749,245.8594 Q158.9312,245.7813 159.1343,245.7813 Q159.4624,245.7813 159.7124,246.0469 Q159.978,246.2969 159.978,246.6406 Q159.978,246.9844 159.6343,247.3906 Q159.1343,247.9688 158.3374,248.2969 Q157.2593,248.75 155.9624,248.75 Q154.4468,248.75 153.2437,248.125 Q152.2593,247.625 151.5718,246.5625 Q150.8843,245.4844 150.8843,244.2031 L150.8843,243.0469 Q150.8843,241.7188 151.4937,240.5781 Q152.1187,239.4219 153.2124,238.8125 Q154.3062,238.1875 155.5405,238.1875 Q156.2749,238.1875 156.9155,238.3594 Q157.5718,238.5156 158.1187,238.875 Z " fill="#000000"/><text fill="#000000" font-family="sans-serif" font-size="14" lengthAdjust="spacing" textLength="28.0137" x="175.853" y="248.7969">Post</text><line style="stroke:#181818;stroke-width:0.5;" x1="86.5" x2="260.7197" y1="259" y2="259"/><ellipse cx="96.5" cy="273.8105" fill="none" rx="3" ry="3" style="stroke:#038048;stroke-width:1.0;"/><text fill="#000000" font-family="sans-serif" font-size="14" lengthAdjust="spacing" textLength="51.3584" x="105.5" y="278.1074">String id</text><ellipse cx="96.5" cy="292.4316" fill="none" rx="3" ry="3" style="stroke:#038048;stroke-width:1.0;"/><text fill="#000000" font-family="sans-serif" font-size="14" lengthAdjust="spacing" textLength="123.7373" x="105.5" y="296.7285">Date fechaCreacion</text><ellipse cx="96.5" cy="311.0527" fill="none" rx="3" ry="3" style="stroke:#038048;stroke-width:1.0;"/><text fill="#000000" font-family="sans-serif" font-size="14" lengthAdjust="spacing" textLength="122.9648" x="105.5" y="315.3496">Date fechaResuelto</text><ellipse cx="96.5" cy="329.6738" fill="none" rx="3" ry="3" style="stroke:#038048;stroke-width:1.0;"/><text fill="#000000" font-family="sans-serif" font-size="14" lengthAdjust="spacing" textLength="72.3789" x="105.5" y="333.9707">int duracion</text><ellipse cx="96.5" cy="348.2949" fill="none" rx="3" ry="3" style="stroke:#038048;stroke-width:1.0;"/><text fill="#000000" font-family="sans-serif" font-size="14" lengthAdjust="spacing" textLength="93.3789" x="105.5" y="352.5918">String mensaje</text><ellipse cx="96.5" cy="366.916" fill="none" rx="3" ry="3" style="stroke:#038048;stroke-width:1.0;"/><text fill="#000000" font-family="sans-serif" font-size="14" lengthAdjust="spacing" textLength="103.5234" x="105.5" y="371.2129">boolean resuelto</text><ellipse cx="96.5" cy="385.5371" fill="none" rx="3" ry="3" style="stroke:#038048;stroke-width:1.0;"/><text fill="#000000" font-family="sans-serif" font-size="14" lengthAdjust="spacing" textLength="118.2754" x="105.5" y="389.834">Usuario usuarioOP</text><ellipse cx="96.5" cy="404.1582" fill="none" rx="3" ry="3" style="stroke:#038048;stroke-width:1.0;"/><text fill="#000000" font-family="sans-serif" font-size="14" lengthAdjust="spacing" textLength="150.2197" x="105.5" y="408.4551">List&lt;Etiqueta&gt; etiquetas</text><line style="stroke:#181818;stroke-width:0.5;" x1="86.5" x2="260.7197" y1="415.9688" y2="415.9688"/></g><!--class Etiqueta--><g id="elem_Etiqueta"><rect codeLine="18" fill="#F1F1F1" height="178.3477" id="Etiqueta" rx="2.5" ry="2.5" style="stroke:#181818;stroke-width:0.5;" width="146.6133" x="7" y="503"/><ellipse cx="50.4585" cy="519" fill="#ADD1B2" rx="11" ry="11" style="stroke:#181818;stroke-width:1.0;"/><path d="M53.2242,514.875 Q53.3804,514.6563 53.5679,514.5469 Q53.7554,514.4375 53.9742,514.4375 Q54.3492,514.4375 54.5835,514.7031 Q54.8179,514.9531 54.8179,515.5625 L54.8179,517.0156 Q54.8179,517.625 54.5835,517.8906 Q54.3492,518.1563 53.9742,518.1563 Q53.6304,518.1563 53.4273,517.9531 Q53.2242,517.7656 53.1148,517.25 Q53.0679,516.8906 52.8804,516.7031 Q52.5523,516.3281 51.9429,516.1094 Q51.3335,515.8906 50.7085,515.8906 Q49.9429,515.8906 49.3023,516.2188 Q48.6773,516.5469 48.1773,517.2969 Q47.6929,518.0469 47.6929,519.0781 L47.6929,520.1719 Q47.6929,521.4063 48.5835,522.2344 Q49.4742,523.0469 51.0679,523.0469 Q52.0054,523.0469 52.6617,522.7969 Q53.0523,522.6406 53.4742,522.2031 Q53.7398,521.9375 53.8804,521.8594 Q54.0367,521.7813 54.2398,521.7813 Q54.5679,521.7813 54.8179,522.0469 Q55.0835,522.2969 55.0835,522.6406 Q55.0835,522.9844 54.7398,523.3906 Q54.2398,523.9688 53.4429,524.2969 Q52.3648,524.75 51.0679,524.75 Q49.5523,524.75 48.3492,524.125 Q47.3648,523.625 46.6773,522.5625 Q45.9898,521.4844 45.9898,520.2031 L45.9898,519.0469 Q45.9898,517.7188 46.5992,516.5781 Q47.2242,515.4219 48.3179,514.8125 Q49.4117,514.1875 50.646,514.1875 Q51.3804,514.1875 52.021,514.3594 Q52.6773,514.5156 53.2242,514.875 Z " fill="#000000"/><text fill="#000000" font-family="sans-serif" font-size="14" lengthAdjust="spacing" textLength="51.3721" x="70.7827" y="524.7969">Etiqueta</text><line style="stroke:#181818;stroke-width:0.5;" x1="8" x2="152.6133" y1="535" y2="535"/><ellipse cx="18" cy="549.8105" fill="none" rx="3" ry="3" style="stroke:#038048;stroke-width:1.0;"/><text fill="#000000" font-family="sans-serif" font-size="14" lengthAdjust="spacing" textLength="51.3584" x="27" y="554.1074">String id</text><ellipse cx="18" cy="568.4316" fill="none" rx="3" ry="3" style="stroke:#038048;stroke-width:1.0;"/><text fill="#000000" font-family="sans-serif" font-size="14" lengthAdjust="spacing" textLength="87.9307" x="27" y="572.7285">String nombre</text><ellipse cx="18" cy="587.0527" fill="none" rx="3" ry="3" style="stroke:#038048;stroke-width:1.0;"/><text fill="#000000" font-family="sans-serif" font-size="14" lengthAdjust="spacing" textLength="111.2754" x="27" y="591.3496">String descripcion</text><ellipse cx="18" cy="605.6738" fill="none" rx="3" ry="3" style="stroke:#038048;stroke-width:1.0;"/><text fill="#000000" font-family="sans-serif" font-size="14" lengthAdjust="spacing" textLength="70.8066" x="27" y="609.9707">String color</text><line style="stroke:#181818;stroke-width:0.5;" x1="8" x2="152.6133" y1="617.4844" y2="617.4844"/><ellipse cx="18" cy="632.2949" fill="#84BE84" rx="3" ry="3" style="stroke:#038048;stroke-width:1.0;"/><text fill="#000000" font-family="sans-serif" font-size="14" lengthAdjust="spacing" textLength="92.5928" x="27" y="636.5918">crearEtiqueta()</text><ellipse cx="18" cy="650.916" fill="#84BE84" rx="3" ry="3" style="stroke:#038048;stroke-width:1.0;"/><text fill="#000000" font-family="sans-serif" font-size="14" lengthAdjust="spacing" textLength="120.6133" x="27" y="655.2129">actualizarEtiqueta()</text><ellipse cx="18" cy="669.5371" fill="#84BE84" rx="3" ry="3" style="stroke:#038048;stroke-width:1.0;"/><text fill="#000000" font-family="sans-serif" font-size="14" lengthAdjust="spacing" textLength="91.8203" x="27" y="673.834">obtenerPosts()</text></g><!--class Comunidad--><g id="elem_Comunidad"><rect codeLine="28" fill="#F1F1F1" height="122.4844" id="Comunidad" rx="2.5" ry="2.5" style="stroke:#181818;stroke-width:0.5;" width="184.7646" x="297" y="264.5"/><ellipse cx="349.3325" cy="280.5" fill="#ADD1B2" rx="11" ry="11" style="stroke:#181818;stroke-width:1.0;"/><path d="M352.0981,276.375 Q352.2544,276.1563 352.4419,276.0469 Q352.6294,275.9375 352.8481,275.9375 Q353.2231,275.9375 353.4575,276.2031 Q353.6919,276.4531 353.6919,277.0625 L353.6919,278.5156 Q353.6919,279.125 353.4575,279.3906 Q353.2231,279.6563 352.8481,279.6563 Q352.5044,279.6563 352.3013,279.4531 Q352.0981,279.2656 351.9888,278.75 Q351.9419,278.3906 351.7544,278.2031 Q351.4263,277.8281 350.8169,277.6094 Q350.2075,277.3906 349.5825,277.3906 Q348.8169,277.3906 348.1763,277.7188 Q347.5513,278.0469 347.0513,278.7969 Q346.5669,279.5469 346.5669,280.5781 L346.5669,281.6719 Q346.5669,282.9063 347.4575,283.7344 Q348.3481,284.5469 349.9419,284.5469 Q350.8794,284.5469 351.5356,284.2969 Q351.9263,284.1406 352.3481,283.7031 Q352.6138,283.4375 352.7544,283.3594 Q352.9106,283.2813 353.1138,283.2813 Q353.4419,283.2813 353.6919,283.5469 Q353.9575,283.7969 353.9575,284.1406 Q353.9575,284.4844 353.6138,284.8906 Q353.1138,285.4688 352.3169,285.7969 Q351.2388,286.25 349.9419,286.25 Q348.4263,286.25 347.2231,285.625 Q346.2388,285.125 345.5513,284.0625 Q344.8638,282.9844 344.8638,281.7031 L344.8638,280.5469 Q344.8638,279.2188 345.4731,278.0781 Q346.0981,276.9219 347.1919,276.3125 Q348.2856,275.6875 349.52,275.6875 Q350.2544,275.6875 350.895,275.8594 Q351.5513,276.0156 352.0981,276.375 Z " fill="#000000"/><text fill="#000000" font-family="sans-serif" font-size="14" lengthAdjust="spacing" textLength="71.5996" x="369.8325" y="286.2969">Comunidad</text><line style="stroke:#181818;stroke-width:0.5;" x1="298" x2="480.7646" y1="296.5" y2="296.5"/><ellipse cx="308" cy="311.3105" fill="none" rx="3" ry="3" style="stroke:#038048;stroke-width:1.0;"/><text fill="#000000" font-family="sans-serif" font-size="14" lengthAdjust="spacing" textLength="87.9307" x="317" y="315.6074">String nombre</text><ellipse cx="308" cy="329.9316" fill="none" rx="3" ry="3" style="stroke:#038048;stroke-width:1.0;"/><text fill="#000000" font-family="sans-serif" font-size="14" lengthAdjust="spacing" textLength="123.7373" x="317" y="334.2285">Date fechaCreacion</text><ellipse cx="308" cy="348.5527" fill="none" rx="3" ry="3" style="stroke:#038048;stroke-width:1.0;"/><text fill="#000000" font-family="sans-serif" font-size="14" lengthAdjust="spacing" textLength="155.6133" x="317" y="352.8496">List &lt;Usuario&gt; miembros</text><ellipse cx="308" cy="367.1738" fill="none" rx="3" ry="3" style="stroke:#038048;stroke-width:1.0;"/><text fill="#000000" font-family="sans-serif" font-size="14" lengthAdjust="spacing" textLength="158.7646" x="317" y="371.4707">List &lt;Post&gt; publicaciones</text><line style="stroke:#181818;stroke-width:0.5;" x1="298" x2="480.7646" y1="378.9844" y2="378.9844"/></g><!--class Filtro--><g id="elem_Filtro"><rect codeLine="36" fill="#F1F1F1" height="103.8633" id="Filtro" rx="2.5" ry="2.5" style="stroke:#181818;stroke-width:0.5;" width="155.1719" x="189" y="540"/><ellipse cx="246.7808" cy="556" fill="#ADD1B2" rx="11" ry="11" style="stroke:#181818;stroke-width:1.0;"/><path d="M249.5464,551.875 Q249.7026,551.6563 249.8901,551.5469 Q250.0776,551.4375 250.2964,551.4375 Q250.6714,551.4375 250.9058,551.7031 Q251.1401,551.9531 251.1401,552.5625 L251.1401,554.0156 Q251.1401,554.625 250.9058,554.8906 Q250.6714,555.1563 250.2964,555.1563 Q249.9526,555.1563 249.7495,554.9531 Q249.5464,554.7656 249.437,554.25 Q249.3901,553.8906 249.2026,553.7031 Q248.8745,553.3281 248.2651,553.1094 Q247.6558,552.8906 247.0308,552.8906 Q246.2651,552.8906 245.6245,553.2188 Q244.9995,553.5469 244.4995,554.2969 Q244.0151,555.0469 244.0151,556.0781 L244.0151,557.1719 Q244.0151,558.4063 244.9058,559.2344 Q245.7964,560.0469 247.3901,560.0469 Q248.3276,560.0469 248.9839,559.7969 Q249.3745,559.6406 249.7964,559.2031 Q250.062,558.9375 250.2026,558.8594 Q250.3589,558.7813 250.562,558.7813 Q250.8901,558.7813 251.1401,559.0469 Q251.4058,559.2969 251.4058,559.6406 Q251.4058,559.9844 251.062,560.3906 Q250.562,560.9688 249.7651,561.2969 Q248.687,561.75 247.3901,561.75 Q245.8745,561.75 244.6714,561.125 Q243.687,560.625 242.9995,559.5625 Q242.312,558.4844 242.312,557.2031 L242.312,556.0469 Q242.312,554.7188 242.9214,553.5781 Q243.5464,552.4219 244.6401,551.8125 Q245.7339,551.1875 246.9683,551.1875 Q247.7026,551.1875 248.3433,551.3594 Q248.9995,551.5156 249.5464,551.875 Z " fill="#000000"/><text fill="#000000" font-family="sans-serif" font-size="14" lengthAdjust="spacing" textLength="31.1104" x="267.2808" y="561.7969">Filtro</text><line style="stroke:#181818;stroke-width:0.5;" x1="190" x2="343.1719" y1="572" y2="572"/><ellipse cx="200" cy="586.8105" fill="none" rx="3" ry="3" style="stroke:#038048;stroke-width:1.0;"/><text fill="#000000" font-family="sans-serif" font-size="14" lengthAdjust="spacing" textLength="129.1719" x="209" y="591.1074">List&lt;Etiqueta&gt; Filtrar</text><ellipse cx="200" cy="605.4316" fill="none" rx="3" ry="3" style="stroke:#038048;stroke-width:1.0;"/><text fill="#000000" font-family="sans-serif" font-size="14" lengthAdjust="spacing" textLength="79.3652" x="209" y="609.7285">localizarPost</text><line style="stroke:#181818;stroke-width:0.5;" x1="190" x2="343.1719" y1="617.2422" y2="617.2422"/><ellipse cx="200" cy="632.0527" fill="#84BE84" rx="3" ry="3" style="stroke:#038048;stroke-width:1.0;"/><text fill="#000000" font-family="sans-serif" font-size="14" lengthAdjust="spacing" textLength="101.9375" x="209" y="636.3496">elegirEtiquetas()</text></g><!--link Usuario to Post--><g id="link_Usuario_Post"><path codeLine="42" d="M250.98,148.01 C240.26,172.45 230.402,194.8862 218.842,221.2162 " fill="none" id="Usuario-to-Post" style="stroke:#181818;stroke-width:1.0;"/><polygon fill="#181818" points="216.43,226.71,223.7106,220.0773,218.44,222.1318,216.3855,216.8612,216.43,226.71" style="stroke:#181818;stroke-width:1.0;"/><text fill="#000000" font-family="sans-serif" font-size="13" lengthAdjust="spacing" textLength="41.1963" x="238.5" y="193.0283">publica</text><text fill="#000000" font-family="sans-serif" font-size="13" lengthAdjust="spacing" textLength="7.23" x="240.4918" y="170.1958">1</text><text fill="#000000" font-family="sans-serif" font-size="13" lengthAdjust="spacing" textLength="7.23" x="212.326" y="215.871">n</text></g><!--link Post to Etiqueta--><g id="link_Post_Etiqueta"><path codeLine="43" d="M139.13,424.24 C130.08,449.99 122.3487,471.9592 113.4887,497.1792 " fill="none" id="Post-to-Etiqueta" style="stroke:#181818;stroke-width:1.0;"/><polygon fill="#181818" points="111.5,502.84,118.2569,495.6745,113.1572,498.1226,110.7092,493.0229,111.5,502.84" style="stroke:#181818;stroke-width:1.0;"/><text fill="#000000" font-family="sans-serif" font-size="13" lengthAdjust="spacing" textLength="28.1899" x="128.5" y="469.0283">tiene</text><text fill="#000000" font-family="sans-serif" font-size="13" lengthAdjust="spacing" textLength="7.23" x="129.3493" y="446.1556">n</text><text fill="#000000" font-family="sans-serif" font-size="13" lengthAdjust="spacing" textLength="7.23" x="106.8029" y="491.7785">n</text></g><!--link Post to Filtro--><g id="link_Post_Filtro"><path codeLine="44" d="M207.87,424.24 C221.68,463.53 235.0397,501.5297 246.5697,534.3197 " fill="none" id="Post-to-Filtro" style="stroke:#181818;stroke-width:1.0;"/><polygon fill="#181818" points="248.56,539.98,249.348,530.1627,246.9014,535.2631,241.801,532.8165,248.56,539.98" style="stroke:#181818;stroke-width:1.0;"/><text fill="#000000" font-family="sans-serif" font-size="13" lengthAdjust="spacing" textLength="104.0762" x="224.5" y="469.0283">localizado usando</text></g><!--link Usuario to Comunidad--><g id="link_Usuario_Comunidad"><path codeLine="45" d="M312.02,148.01 C328.11,184.66 345.2489,223.6958 360.6789,258.8558 " fill="none" id="Usuario-to-Comunidad" style="stroke:#181818;stroke-width:1.0;"/><polygon fill="#181818" points="363.09,264.35,363.1361,254.5013,361.0807,259.7715,355.8105,257.7161,363.09,264.35" style="stroke:#181818;stroke-width:1.0;"/><text fill="#000000" font-family="sans-serif" font-size="13" lengthAdjust="spacing" textLength="37.5591" x="333.5" y="193.0283">Forma</text></g><!--SRC=[TLB1JiCm3BttAwASG1C7hcZgPR0J4XE83t0JCuBIU3Z9XMaVnJVmOoHjsgwmzjBsFTlFVhQouBruzH7Oa3XM8Zshby36xONHirz7RSCuWnGn8_s1N63m-FCDFNuF0SKRgdTunhtnWQawLQgJtP4F2vfJreOHb27tlvgFQ4DHDou87VaiiXHiqNduA6qtH1R12Pxb3jF7_lsqw-77rEpw8PZFY05gWUNBZ-qFN1dXmXWBzft36hrYSnZxddjfYITK9ITu4BswdWXG8O8rNvTPQW8wv6osJ_YfAkrlg8tEQD37Qd7FIsl8teXrCQuMhS6KG_wSp7grECJ66jLbef-qjyQcGpXUDBhZe9zxXJOTpJYMBtEjBAb-uAoIomuxbBTItDpKGZhPdzUTaAK7MNL0PeQ8SOCfAfZaKed9VDzYPWOndKy4d2OvokN0qSSSkoLkaz8l]--></g></svg>