<svg xmlns="http://www.w3.org/2000/svg" xmlns:xlink="http://www.w3.org/1999/xlink" contentStyleType="text/css" data-diagram-type="STATE" height="824px" preserveAspectRatio="none" style="width:1181px;height:824px;background:#FFFFFF;" version="1.1" viewBox="0 0 1181 824" width="1181px" zoomAndPan="magnify"><defs/><g><!--cluster PantallaPrincipal--><g id="cluster_PantallaPrincipal"><path d="M391.5,7 L504.5,7 A12.5,12.5 0 0 1 517,19.5 L517,28.2969 L379,28.2969 L379,19.5 A12.5,12.5 0 0 1 391.5,7 " fill="#F5F5F5" style="stroke:#F5F5F5;stroke-width:1;"/><rect fill="#FFFFFF" fill-opacity="0.00000" height="91" rx="12.5" ry="12.5" style="stroke:#181818;stroke-width:0.5;" width="138" x="379" y="7"/><line style="stroke:#181818;stroke-width:0.5;" x1="379" x2="517" y1="28.2969" y2="28.2969"/><text fill="#000000" font-family="sans-serif" font-size="14" lengthAdjust="spacing" textLength="120.6748" x="387.6626" y="23.9951">Pantalla Principal</text></g><!--cluster PantallaComunidad--><g id="cluster_PantallaComunidad"><path d="M19.5,188 L548.5,188 A12.5,12.5 0 0 1 561,200.5 L561,209.2969 L7,209.2969 L7,200.5 A12.5,12.5 0 0 1 19.5,188 " fill="#F5F5F5" style="stroke:#F5F5F5;stroke-width:1;"/><rect fill="#FFFFFF" fill-opacity="0.00000" height="630.4" rx="12.5" ry="12.5" style="stroke:#181818;stroke-width:0.5;" width="554" x="7" y="188"/><line style="stroke:#181818;stroke-width:0.5;" x1="7" x2="561" y1="209.2969" y2="209.2969"/><text fill="#000000" font-family="sans-serif" font-size="14" lengthAdjust="spacing" textLength="140.7383" x="213.6309" y="204.9951">Pantalla Comunidad</text></g><rect fill="#F5F5F5" height="40" rx="12.5" ry="12.5" style="stroke:#181818;stroke-width:0.5;" width="105.874" x="395.06" y="42"/><text fill="#000000" font-family="sans-serif" font-size="14" lengthAdjust="spacing" textLength="95.874" x="400.06" y="66.8467">Comunidades</text><rect fill="#F5F5F5" height="40" rx="12.5" ry="12.5" style="stroke:#181818;stroke-width:0.5;" width="95.5449" x="95.23" y="238.7"/><text fill="#000000" font-family="sans-serif" font-size="14" lengthAdjust="spacing" textLength="85.5449" x="100.23" y="263.5467">Ver Detalles</text><rect fill="#F5F5F5" height="40" rx="12.5" ry="12.5" style="stroke:#181818;stroke-width:0.5;" width="152.1191" x="30.94" y="402.4"/><text fill="#000000" font-family="sans-serif" font-size="14" lengthAdjust="spacing" textLength="142.1191" x="35.94" y="427.2467">Unirse a Comunidad</text><g id="elem_ConfirmarUni&#243;n"><polygon fill="#F1F1F1" points="166,588.4,178,600.4,166,612.4,154,600.4,166,588.4" style="stroke:#181818;stroke-width:0.5;"/></g><rect fill="#F5F5F5" height="40" rx="12.5" ry="12.5" style="stroke:#181818;stroke-width:0.5;" width="105.8467" x="268.08" y="754.4"/><text fill="#000000" font-family="sans-serif" font-size="14" lengthAdjust="spacing" textLength="95.8467" x="273.08" y="779.2467">Union Exitosa</text><g id="elem_GMN2"><path d="M226.22,231 L226.22,286.3984 L453.7884,286.3984 L453.7884,241 L443.7884,231 L226.22,231 " fill="#F5F5F5" style="stroke:#000000;stroke-width:0.5;"/><path d="M443.7884,231 L443.7884,241 L453.7884,241 L443.7884,231 " fill="#F5F5F5" style="stroke:#000000;stroke-width:1;"/><text fill="#000000" font-family="sans-serif" font-size="13" font-weight="bold" lengthAdjust="spacing" textLength="88.6577" x="232.22" y="248.0669">Se muestra:</text><ellipse cx="237.72" cy="258.7656" fill="#000000" rx="2.5" ry="2.5"/><text fill="#000000" font-family="sans-serif" font-size="13" lengthAdjust="spacing" textLength="194.5684" x="244.22" y="263.1997">Nombre, descripci&#243;n, y reglas</text><ellipse cx="237.72" cy="273.8984" fill="#000000" rx="2.5" ry="2.5"/><text fill="#000000" font-family="sans-serif" font-size="13" lengthAdjust="spacing" textLength="141.6987" x="244.22" y="278.3325">N&#250;mero de miembros</text></g><!--link Comunidades to PantallaComunidad--><g id="link_Comunidades_PantallaComunidad"><path d="M427.58,82.28 C412.29,96.72 394,114 394,114 C394,114 394,164 394,164 C394,164 545,172 545,172 C545,172 545.4844,177.19 546.2147,185.0156 C546.2603,185.5047 546.3069,186.0041 546.3544,186.5132 C546.3782,186.7677 546.4022,187.0247 546.4264,187.284 C546.4385,187.4136 545.8931,181.5698 545.9053,181.7006 " fill="#FFFFFF" fill-opacity="0.00000" id="Comunidades-to-PantallaComunidad" style="stroke:#000000;stroke-width:1;"/><polygon fill="#000000" points="546.4628,187.6747,549.6093,178.3419,545.9982,182.6963,541.6439,179.0853,546.4628,187.6747" style="stroke:#000000;stroke-width:1;"/><path d="M399,119 L399,159 L678,159 L678,129 L668,119 L399,119 " fill="#F5F5F5" style="stroke:#000000;stroke-width:0.5;"/><path d="M668,119 L668,129 L678,129 L668,119 " fill="#F5F5F5" style="stroke:#000000;stroke-width:0.5;"/><text fill="#000000" font-family="sans-serif" font-size="13" font-weight="bold" lengthAdjust="spacing" textLength="254.1665" x="405" y="136.0669">Usuario selecciona una comunidad</text><ellipse cx="410.5" cy="146.7656" fill="#000000" rx="2.5" ry="2.5"/><text fill="#000000" font-family="sans-serif" font-size="13" lengthAdjust="spacing" textLength="246.0034" x="417" y="151.1997">Puede buscar por nombre o categor&#237;a</text></g><!--link VerDetallesComunidad to UnirseComunidad--><g id="link_VerDetallesComunidad_UnirseComunidad"><path d="M115.92,278.9 C92.71,295.35 63,316.4 63,316.4 C63,316.4 63,351.4 63,351.4 C63,351.4 78.5266,376.1104 91.5466,396.8204 " fill="#FFFFFF" fill-opacity="0.00000" id="VerDetallesComunidad-to-UnirseComunidad" style="stroke:#000000;stroke-width:1;"/><polygon fill="#000000" points="94.74,401.9,93.3362,392.1517,92.0788,397.667,86.5635,396.4096,94.74,401.9" style="stroke:#000000;stroke-width:1;"/><path d="M68,321.4 L68,346.4 L248,346.4 L248,331.4 L238,321.4 L68,321.4 " fill="#F5F5F5" style="stroke:#000000;stroke-width:0.5;"/><path d="M238,321.4 L238,331.4 L248,331.4 L238,321.4 " fill="#F5F5F5" style="stroke:#000000;stroke-width:0.5;"/><text fill="#000000" font-family="sans-serif" font-size="13" font-weight="bold" lengthAdjust="spacing" textLength="159.8911" x="74" y="338.4669">Usuario pulsa 'Unirse'</text></g><!--link UnirseComunidad to ConfirmarUni?n--><g id="link_UnirseComunidad_ConfirmarUni&#243;n"><path d="M94.74,442.9 C81.72,463.61 63,493.4 63,493.4 C63,493.4 63,558.4 63,558.4 C63,558.4 128.065,584.302 152.345,593.962 " fill="#FFFFFF" fill-opacity="0.00000" id="UnirseComunidad-to-ConfirmarUni&#243;n" style="stroke:#000000;stroke-width:1;"/><polygon fill="#000000" points="157.92,596.18,151.0362,589.1363,153.2742,594.3316,148.0789,596.5696,157.92,596.18" style="stroke:#000000;stroke-width:1;"/><path d="M68,498.4 L68,553.4 L344,553.4 L344,508.4 L334,498.4 L68,498.4 " fill="#F5F5F5" style="stroke:#000000;stroke-width:0.5;"/><path d="M334,498.4 L334,508.4 L344,508.4 L334,498.4 " fill="#F5F5F5" style="stroke:#000000;stroke-width:0.5;"/><text fill="#000000" font-family="sans-serif" font-size="13" font-weight="bold" lengthAdjust="spacing" textLength="112.8677" x="74" y="515.4669">Sistema valida:</text><ellipse cx="79.5" cy="526.1656" fill="#000000" rx="2.5" ry="2.5"/><text fill="#000000" font-family="sans-serif" font-size="13" lengthAdjust="spacing" textLength="151.252" x="86" y="530.5997">Usuario no es miembro</text><ellipse cx="79.5" cy="541.2984" fill="#000000" rx="2.5" ry="2.5"/><text fill="#000000" font-family="sans-serif" font-size="13" lengthAdjust="spacing" textLength="243.2358" x="86" y="545.7325">Comunidad acepta nuevos miembros</text></g><!--link ConfirmarUni?n to ExitoUnion--><g id="link_ConfirmarUni&#243;n_ExitoUnion"><path d="M171.52,607.52 C192.6,630.92 264.6437,710.8625 299.4137,749.4525 " fill="#FFFFFF" fill-opacity="0.00000" id="ConfirmarUni&#243;n-to-ExitoUnion" style="stroke:#000000;stroke-width:1;"/><polygon fill="#000000" points="303.43,753.91,300.3773,744.5462,300.0831,750.1954,294.4339,749.9012,303.43,753.91" style="stroke:#000000;stroke-width:1;"/><text fill="#000000" font-family="sans-serif" font-size="13" lengthAdjust="spacing" textLength="104.4888" x="404.5879" y="655.4669">Union permitida</text><path d="M280,664.5328 L280,719.5328 L633,719.5328 L633,674.5328 L623,664.5328 L280,664.5328 " fill="#F5F5F5" style="stroke:#000000;stroke-width:0.5;"/><path d="M623,664.5328 L623,674.5328 L633,674.5328 L623,664.5328 " fill="#F5F5F5" style="stroke:#000000;stroke-width:0.5;"/><text fill="#000000" font-family="sans-serif" font-size="13" font-weight="bold" lengthAdjust="spacing" textLength="78.6982" x="286" y="681.5997">Resultado:</text><ellipse cx="291.5" cy="692.2984" fill="#000000" rx="2.5" ry="2.5"/><text fill="#000000" font-family="sans-serif" font-size="13" lengthAdjust="spacing" textLength="208.2476" x="298" y="696.7325">Usuario a&#241;adido como miembro</text><ellipse cx="291.5" cy="707.4313" fill="#000000" rx="2.5" ry="2.5"/><text fill="#000000" font-family="sans-serif" font-size="13" lengthAdjust="spacing" textLength="320.6646" x="298" y="711.8653">Pantalla principal de la comunidad desbloqueada</text></g><!--reverse link VerDetallesComunidad to ConfirmarUni?n--><g id="link_VerDetallesComunidad_ConfirmarUni&#243;n"><path d="M187.2821,281.7222 C220.3121,298.1522 257,316.4 257,316.4 C257,316.4 353,493.4 353,493.4 C353,493.4 353,558.4 353,558.4 C353,558.4 213.64,588.96 175.53,597.31 " fill="#FFFFFF" fill-opacity="0.00000" id="VerDetallesComunidad-backto-ConfirmarUni&#243;n" style="stroke:#000000;stroke-width:1;"/><polygon fill="#000000" points="181.91,279.05,188.1866,286.6397,186.3867,281.2768,191.7496,279.4769,181.91,279.05" style="stroke:#000000;stroke-width:1;"/><text fill="#000000" font-family="sans-serif" font-size="13" lengthAdjust="spacing" textLength="106.6152" x="420.9036" y="394.4669">Union denegada</text><path d="M341,403.5328 L341,458.5328 L607,458.5328 L607,413.5328 L597,403.5328 L341,403.5328 " fill="#F5F5F5" style="stroke:#000000;stroke-width:0.5;"/><path d="M597,403.5328 L597,413.5328 L607,413.5328 L597,403.5328 " fill="#F5F5F5" style="stroke:#000000;stroke-width:0.5;"/><text fill="#000000" font-family="sans-serif" font-size="13" font-weight="bold" lengthAdjust="spacing" textLength="124.0713" x="347" y="420.5997">Errores posibles:</text><ellipse cx="352.5" cy="431.2984" fill="#000000" rx="2.5" ry="2.5"/><text fill="#000000" font-family="sans-serif" font-size="13" lengthAdjust="spacing" textLength="150.7188" x="359" y="435.7325">Usuario ya es miembro</text><ellipse cx="352.5" cy="446.4313" fill="#000000" rx="2.5" ry="2.5"/><text fill="#000000" font-family="sans-serif" font-size="13" lengthAdjust="spacing" textLength="233.4224" x="359" y="450.8653">Comunidad cerrada temporalmente</text></g><!--reverse link Comunidades to ExitoUnion--><g id="link_Comunidades_ExitoUnion"><path d="M507.2079,75.6321 C577.6479,90.6621 687,114 687,114 C687,114 709,257.7 709,257.7 C709,257.7 709,257.7 709,601.4 C709,601.4 646,724.4 646,724.4 C646,724.4 466.5,751.46 374.3,765.36 " fill="#FFFFFF" fill-opacity="0.00000" id="Comunidades-backto-ExitoUnion" style="stroke:#000000;stroke-width:1;"/><polygon fill="#000000" points="501.34,74.38,509.3072,80.17,506.2299,75.4234,510.9766,72.3461,501.34,74.38" style="stroke:#000000;stroke-width:1;"/><path d="M714,402.4 L714,442.4 L1174,442.4 L1174,412.4 L1164,402.4 L714,402.4 " fill="#F5F5F5" style="stroke:#000000;stroke-width:0.5;"/><path d="M1164,402.4 L1164,412.4 L1174,412.4 L1164,402.4 " fill="#F5F5F5" style="stroke:#000000;stroke-width:0.5;"/><text fill="#000000" font-family="sans-serif" font-size="13" font-weight="bold" lengthAdjust="spacing" textLength="131.0156" x="720" y="419.4669">Vista actualizada:</text><ellipse cx="725.5" cy="430.1656" fill="#000000" rx="2.5" ry="2.5"/><text fill="#000000" font-family="sans-serif" font-size="13" lengthAdjust="spacing" textLength="427.8003" x="732" y="434.5997">Comunidad ahora aparece en la lista de comunidades del usuario</text></g><!--link VerDetallesComunidad to GMN2--><g id="link_VerDetallesComunidad_GMN2"><path d="M191.07,258.7 C201.08,258.7 208.67,258.7 208.67,258.7 C208.67,258.7 216.08,258.7 225.92,258.7 " fill="#FFFFFF" fill-opacity="0.00000" id="VerDetallesComunidad-GMN2" style="stroke:#000000;stroke-width:1;stroke-dasharray:7.0,7.0;"/></g><!--SRC=[ZLLDRzim3BtdLn3PeS3GOlSY2B2rlHR5YlPEIsmYL1OzIcgN3Vj9EmoxxPe_DjgENSLDFmm4YSN7Z_T8CV7UXGO5Q_Wv0tqkET4NDFShuHpi6NiM-F2uTeckQxwd9moB9TdPAwyUdScxG6dJ43JiD-tBxDTi5iSSCM6YNQQtidmMuSVUrCVNI6jd2QXkqWOiHIEkIOx3J5DqWQym9FGUhyG5unhqW17cmocCn_E-WjxfZEiSd4KDsC6Bzta7Am4dbX_3oNBCDDewP51XW4EhGYz7-oogvKtCA8uXaYTZj6A4h1ypE2y-LSiH_n6kCYdDAaU3eaAAngqhqSXWjE0Lo_OtTd0AjilPIZEHO2niNuBnU0wb1hSavzGYAEuxgW46o_o9exZLEW7V7NGicLyJr9bY4ZoTaBpiE1qFVJHk-pSSmmQ4LXvZ2Tp-gqbOWL0xKYUE- -GB7ZV1IQHz2lqPbDptkX_kdDGe2jCAOB4mQtQ6bii2TF7T9LQ0jdONKNzrXn7dVVw32WxJCYdhNRFIP1yHZdhNer6yVTPJlaF22QjN4rwxcAX6U42lCQPj6ie933h-kmOKza9hGqr229aUEBxMggdaGz65ogVGVpSajKiQ_bK6Nobcdz3oIyNZzWzQPxczSNo0n7Wzcd5nwBJvueQsOrfv_fO9BRw7KswKqS6X6BXP2hJ2DwXTw18K5RxXw2eDynB33RxL7aCYcWsqrxfIqDSK4XrWKdIX9r6ilsUbGbdhhGuIwXYah9Fq0v_FKZ4hQoq1KFyKoEX23wtMldDNtKsnRorvo3t7oSRx3m00]--></g></svg>