<svg xmlns="http://www.w3.org/2000/svg" xmlns:xlink="http://www.w3.org/1999/xlink" contentStyleType="text/css" height="663px" preserveAspectRatio="none" style="width:697px;height:663px;background:#FFFFFF;" version="1.1" viewBox="0 0 697 663" width="697px" zoomAndPan="magnify"><defs/><g><rect fill="#F5F5F5" height="40" rx="12.5" ry="12.5" style="stroke:#181818;stroke-width:0.5;" width="129.0137" x="281" y="7"/><text fill="#000000" font-family="sans-serif" font-size="14" lengthAdjust="spacing" textLength="119.0137" x="286" y="31.8467">Perfil del Usuario</text><rect fill="#F5F5F5" height="40" rx="12.5" ry="12.5" style="stroke:#181818;stroke-width:0.5;" width="138.4199" x="276.5" y="617"/><text fill="#000000" font-family="sans-serif" font-size="14" lengthAdjust="spacing" textLength="128.4199" x="281.5" y="641.8467">Datos Modificados</text><path d="M19.5,107 L671.5,107 A12.5,12.5 0 0 1 684,119.5 L684,133.2969 L7,133.2969 L7,119.5 A12.5,12.5 0 0 1 19.5,107 " fill="#F5F5F5" style="stroke:#F5F5F5;stroke-width:1;"/><rect fill="none" height="450.2969" rx="12.5" ry="12.5" style="stroke:#181818;stroke-width:0.5;" width="677" x="7" y="107"/><line style="stroke:#181818;stroke-width:0.5;" x1="7" x2="684" y1="133.2969" y2="133.2969"/><text fill="#000000" font-family="sans-serif" font-size="14" lengthAdjust="spacing" textLength="234.2539" x="228.373" y="124.9951">Modificaci&#243;n de Datos de Usuario</text><rect fill="#F5F5F5" height="40" rx="12.5" ry="12.5" style="stroke:#181818;stroke-width:0.5;" width="50" x="184" y="145.2969"/><text fill="#000000" font-family="sans-serif" font-size="14" lengthAdjust="spacing" textLength="4.4502" x="206.7749" y="170.1436">&#160;</text><g id="elem_ValidarDato"><polygon fill="#F1F1F1" points="209,271.2969,221,283.2969,209,295.2969,197,283.2969,209,271.2969" style="stroke:#181818;stroke-width:0.5;"/></g><rect fill="#F5F5F5" height="40" rx="12.5" ry="12.5" style="stroke:#181818;stroke-width:0.5;" width="50" x="184" y="381.2969"/><text fill="#000000" font-family="sans-serif" font-size="14" lengthAdjust="spacing" textLength="4.4502" x="206.7749" y="406.1436">&#160;</text><rect fill="#F5F5F5" height="40" rx="12.5" ry="12.5" style="stroke:#181818;stroke-width:0.5;" width="50" x="184" y="507.2969"/><text fill="#000000" font-family="sans-serif" font-size="14" lengthAdjust="spacing" textLength="4.4502" x="206.7749" y="532.1436">&#160;</text><!--link SeleccionarDato to ValidarDato--><g id="link_SeleccionarDato_ValidarDato"><path d="M183.64,171.2069 C131.68,181.2769 18,203.2969 18,203.2969 C18,203.2969 18,253.2969 18,253.2969 C18,253.2969 154.408,274.0063 193.338,279.9163 " fill="none" id="SeleccionarDato-to-ValidarDato" style="stroke:#008000;stroke-width:1;"/><polygon fill="#008000" points="199.27,280.8169,190.9723,275.5114,194.3266,280.0664,189.7716,283.4207,199.27,280.8169" style="stroke:#008000;stroke-width:1;"/><path d="M23,208.2969 L23,248.2969 L374,248.2969 L374,218.2969 L364,208.2969 L23,208.2969 " fill="#F5F5F5" style="stroke:#000000;stroke-width:0.5;"/><path d="M364,208.2969 L364,218.2969 L374,218.2969 L364,208.2969 " fill="#F5F5F5" style="stroke:#000000;stroke-width:0.5;"/><text fill="#000000" font-family="sans-serif" font-size="13" font-weight="bold" lengthAdjust="spacing" textLength="285.1494" x="29" y="225.3638">Usuario selecciona un dato a modificar</text><ellipse cx="34.5" cy="236.0625" fill="#000000" rx="2.5" ry="2.5" style="stroke:#000000;stroke-width:0;"/><text fill="#000000" font-family="sans-serif" font-size="13" lengthAdjust="spacing" textLength="318.5" x="41" y="240.4966">Ejemplo: nombre, correo electr&#243;nico, contrase&#241;a</text></g><!--link ValidarDato to ConfirmarModificacion--><g id="link_ValidarDato_ConfirmarModificacion"><path d="M209,295.4169 C209,315.1569 209,350.5169 209,374.9869 " fill="none" id="ValidarDato-to-ConfirmarModificacion" style="stroke:#008000;stroke-width:1;"/><polygon fill="#008000" points="209,380.9869,213,371.9869,209,375.9869,205,371.9869,209,380.9869" style="stroke:#008000;stroke-width:1;"/><path d="M214,318.2969 L214,358.2969 L503,358.2969 L503,328.2969 L493,318.2969 L214,318.2969 " fill="#F5F5F5" style="stroke:#000000;stroke-width:0.5;"/><path d="M493,318.2969 L493,328.2969 L503,328.2969 L493,318.2969 " fill="#F5F5F5" style="stroke:#000000;stroke-width:0.5;"/><text fill="#000000" font-family="sans-serif" font-size="13" font-weight="bold" lengthAdjust="spacing" textLength="195.1841" x="220" y="335.3638">Dato v&#225;lido para modificar</text><ellipse cx="225.5" cy="346.0625" fill="#000000" rx="2.5" ry="2.5" style="stroke:#000000;stroke-width:0;"/><text fill="#000000" font-family="sans-serif" font-size="13" lengthAdjust="spacing" textLength="256.6484" x="232" y="350.4966">Sistema verifica formato y consistencia</text></g><!--link ValidarDato to SeleccionarDato--><g id="link_ValidarDato_SeleccionarDato"><path d="M218.63,280.6569 C254.59,274.5169 379,253.2969 379,253.2969 C379,253.2969 379,203.2969 379,203.2969 C379,203.2969 287.2328,183.3226 239.9428,173.0326 " fill="none" id="ValidarDato-to-SeleccionarDato" style="stroke:#FF0000;stroke-width:1;"/><polygon fill="#FF0000" points="234.08,171.7569,242.0237,177.579,238.9657,172.82,243.7247,169.7619,234.08,171.7569" style="stroke:#FF0000;stroke-width:1;"/><path d="M384,208.2969 L384,248.2969 L675,248.2969 L675,218.2969 L665,208.2969 L384,208.2969 " fill="#F5F5F5" style="stroke:#000000;stroke-width:0.5;"/><path d="M665,208.2969 L665,218.2969 L675,218.2969 L665,208.2969 " fill="#F5F5F5" style="stroke:#000000;stroke-width:0.5;"/><text fill="#000000" font-family="sans-serif" font-size="13" font-weight="bold" lengthAdjust="spacing" textLength="106.3423" x="390" y="225.3638">Dato no v&#225;lido</text><ellipse cx="395.5" cy="236.0625" fill="#000000" rx="2.5" ry="2.5" style="stroke:#000000;stroke-width:0;"/><text fill="#000000" font-family="sans-serif" font-size="13" lengthAdjust="spacing" textLength="258.832" x="402" y="240.4966">Usuario debe corregir el dato ingresado</text></g><!--link ConfirmarModificacion to ModificacionCompletada--><g id="link_ConfirmarModificacion_ModificacionCompletada"><path d="M209,421.3969 C209,444.6369 209,477.6369 209,500.9669 " fill="none" id="ConfirmarModificacion-to-ModificacionCompletada" style="stroke:#008000;stroke-width:1;"/><polygon fill="#008000" points="209,506.9669,213,497.9669,209,501.9669,205,497.9669,209,506.9669" style="stroke:#008000;stroke-width:1;"/><path d="M214,444.2969 L214,484.2969 L500,484.2969 L500,454.2969 L490,444.2969 L214,444.2969 " fill="#F5F5F5" style="stroke:#000000;stroke-width:0.5;"/><path d="M490,444.2969 L490,454.2969 L500,454.2969 L490,444.2969 " fill="#F5F5F5" style="stroke:#000000;stroke-width:0.5;"/><text fill="#000000" font-family="sans-serif" font-size="13" font-weight="bold" lengthAdjust="spacing" textLength="224.7896" x="220" y="461.3638">Dato modificado exitosamente</text><ellipse cx="225.5" cy="472.0625" fill="#000000" rx="2.5" ry="2.5" style="stroke:#000000;stroke-width:0;"/><text fill="#000000" font-family="sans-serif" font-size="13" lengthAdjust="spacing" textLength="253.9189" x="232" y="476.4966">Sistema guarda los cambios realizados</text></g><!--link startState to ProcesoDeModificacion--><g id="link_startState_ProcesoDeModificacion"><path d="M345.5,47.41 C345.5,61.65 345.5,76.68 345.5,100.96 " fill="none" id="startState-to-ProcesoDeModificacion" style="stroke:#181818;stroke-width:1;"/><polygon fill="#181818" points="345.5,106.96,349.5,97.96,345.5,101.96,341.5,97.96,345.5,106.96" style="stroke:#181818;stroke-width:1;"/></g><!--link ProcesoDeModificacion to endState--><g id="link_ProcesoDeModificacion_endState"><path d="M345.5,557.18 C345.5,581.63 345.5,596.76 345.5,610.98 " fill="none" id="ProcesoDeModificacion-to-endState" style="stroke:#181818;stroke-width:1;"/><polygon fill="#181818" points="345.5,616.98,349.5,607.98,345.5,611.98,341.5,607.98,345.5,616.98" style="stroke:#181818;stroke-width:1;"/></g><!--SRC=[ZLJDZjCm4BxtAKRT6wBYZgeSw784hLJ11N5mx6dhhUs9nkv2GVimF0BY4VfYZ9sVPajsImv9cldccy_Vp3JkRMWKAmy_Po3NHqhuJkdzbkaGp8eSCTnyszc4QqzxF6E83N8Nhvrab92p0TEnGMZ87VEFsUDi5eSQCQc4NQMNgaZIpXe4z4qwWi6esJR9KX2oGY5tJklogYBCxv0trWdGmQTuK6nftW4nc3FiLYMAy86CtLYj3CLvuUkP5eiAxfWqHhh57gL7LIU3XVdyuVGdY0veIybBhwSxTKkqHeSw9olEm481yn7WitBMTC7bKk_8Qgog4M15OMFPA_v7oXEUSNH5ld6Ob54zhW0ljIo-t6mPCNmLDqOo2ZP8vq7gI6VRVkThMLVT8I4EN70G6yhHm7SQUFccheQiL_3-NjhhwAsm-fhnDMXYHeBCaLXyj9honv1OHJpzLYLN6bfajEB7Fes5JzhpuX4AnSFfb_0Hv6bzLlVQneHUmGDoYSE6f99a7xFOcAD1s_zGosYorei6N5SP1g4Noles6AonTNDhMVniEs63s1Dbx2UKJO_JsD7fIRekrW_R1lZTob8eZo7XCvvkvG0odqvsHojVMtaoYci_yhO-rVtOR-ML6PzUshph_N_3Nm00]--></g></svg>