<svg xmlns="http://www.w3.org/2000/svg" xmlns:xlink="http://www.w3.org/1999/xlink" contentStyleType="text/css" height="496px" preserveAspectRatio="none" style="width:1822px;height:496px;background:#FFFFFF;" version="1.1" viewBox="0 0 1822 496" width="1822px" zoomAndPan="magnify"><title>Caso de Uso: Crear Comunidad</title><defs/><g><text fill="#000000" font-family="sans-serif" font-size="14" font-weight="bold" lengthAdjust="spacing" textLength="243.332" x="782.7068" y="22.9951">Caso de Uso: Crear Comunidad</text><!--entity Usuario--><g id="elem_Usuario"><ellipse cx="688.9458" cy="51.2969" fill="#F1F1F1" rx="8" ry="8" style="stroke:#181818;stroke-width:0.5;"/><path d="M688.9458,59.2969 L688.9458,86.2969 M675.9458,67.2969 L701.9458,67.2969 M688.9458,86.2969 L675.9458,101.2969 M688.9458,86.2969 L701.9458,101.2969 " fill="none" style="stroke:#181818;stroke-width:0.5;"/><text fill="#000000" font-family="sans-serif" font-size="14" lengthAdjust="spacing" textLength="135.8916" x="621" y="115.792">Usuario_Registrado</text></g><g id="elem_CrearComunidad"><ellipse cx="688.8222" cy="197.5613" fill="#F1F1F1" rx="81.8222" ry="18.7644" style="stroke:#181818;stroke-width:0.5;"/><text fill="#000000" font-family="sans-serif" font-size="14" lengthAdjust="spacing" textLength="122.8965" x="626.3733" y="200.7393">Crear Comunidad</text></g><g id="elem_ValidarDatos"><ellipse cx="391.9242" cy="310.4817" fill="#F1F1F1" rx="123.9242" ry="27.1848" style="stroke:#181818;stroke-width:0.5;"/><text fill="#000000" font-family="sans-serif" font-size="14" lengthAdjust="spacing" textLength="215.708" x="284.0702" y="313.3284">Validar datos de la Comunidad</text></g><g id="elem_AsignarVariables"><ellipse cx="689.0012" cy="310.1971" fill="#F1F1F1" rx="137.5012" ry="29.9002" style="stroke:#181818;stroke-width:0.5;"/><text fill="#000000" font-family="sans-serif" font-size="14" lengthAdjust="spacing" textLength="244.3643" x="566.8191" y="313.0438">Asignar variables de la Comunidad</text></g><g id="elem_Nombre"><ellipse cx="139.7704" cy="447.451" fill="#F1F1F1" rx="133.7704" ry="29.1541" style="stroke:#181818;stroke-width:0.5;"/><text fill="#000000" font-family="sans-serif" font-size="14" lengthAdjust="spacing" textLength="236.5234" x="21.5087" y="450.2976">Asignar Nombre de la Comunidad</text></g><g id="elem_Descripcion"><ellipse cx="397.9006" cy="447.477" fill="#F1F1F1" rx="88.9006" ry="20.1801" style="stroke:#181818;stroke-width:0.5;"/><text fill="#000000" font-family="sans-serif" font-size="14" lengthAdjust="spacing" textLength="139.248" x="328.2766" y="450.3237">Asignar Descripci&#243;n</text></g><g id="elem_Miembros"><ellipse cx="689.1323" cy="447.5233" fill="#F1F1F1" rx="166.6323" ry="35.7265" style="stroke:#181818;stroke-width:0.5;"/><text fill="#000000" font-family="sans-serif" font-size="14" lengthAdjust="spacing" textLength="304.958" x="536.6533" y="450.37">Asignar m&#237;nimo 1 miembro a la Comunidad</text></g><g id="elem_UsuarioCreador"><ellipse cx="1096.782" cy="447.3533" fill="#F1F1F1" rx="205.782" ry="43.5564" style="stroke:#181818;stroke-width:0.5;"/><text fill="#000000" font-family="sans-serif" font-size="14" lengthAdjust="spacing" textLength="385.2939" x="904.135" y="450.2">Asignar Usuario creador (datos de Usuario_Registrado)</text></g><g id="elem_GuardarPost"><ellipse cx="1452.8073" cy="310.4583" fill="#F1F1F1" rx="156.3073" ry="33.6615" style="stroke:#181818;stroke-width:0.5;"/><text fill="#000000" font-family="sans-serif" font-size="14" lengthAdjust="spacing" textLength="283.5889" x="1311.0128" y="313.305">Guardar Comunidad en la base de datos</text></g><g id="elem_FechaCreacion"><ellipse cx="1452.8485" cy="447.1666" fill="#F1F1F1" rx="114.8485" ry="25.3697" style="stroke:#181818;stroke-width:0.5;"/><text fill="#000000" font-family="sans-serif" font-size="14" lengthAdjust="spacing" textLength="196.3281" x="1354.6844" y="450.0132">Registrar Fecha de creaci&#243;n</text></g><g id="elem_NotificarCreacion"><ellipse cx="1710.1229" cy="447.5214" fill="#F1F1F1" rx="106.6229" ry="23.7246" style="stroke:#181818;stroke-width:0.5;"/><text fill="#000000" font-family="sans-serif" font-size="14" lengthAdjust="spacing" textLength="178.5547" x="1620.8455" y="450.3681">Notificar creaci&#243;n exitosa</text></g><!--link Usuario to CrearComunidad--><g id="link_Usuario_CrearComunidad"><path d="M689,118.8169 C689,138.7769 689,156.5269 689,172.5269 " fill="none" id="Usuario-to-CrearComunidad" style="stroke:#181818;stroke-width:1;"/><polygon fill="#181818" points="689,178.5269,693,169.5269,689,173.5269,685,169.5269,689,178.5269" style="stroke:#181818;stroke-width:1;"/></g><!--link CrearComunidad to ValidarDatos--><g id="link_CrearComunidad_ValidarDatos"><path d="M647.39,214.2769 C596.7,233.1369 516.2933,263.0545 458.2433,284.6545 " fill="none" id="CrearComunidad-to-ValidarDatos" style="stroke:#181818;stroke-width:1;"/><polygon fill="#181818" points="452.62,286.7469,462.4499,287.3572,457.3061,285.0032,459.6601,279.8594,452.62,286.7469" style="stroke:#181818;stroke-width:1;"/></g><!--link CrearComunidad to AsignarVariables--><g id="link_CrearComunidad_AsignarVariables"><path d="M689,217.0469 C689,234.2069 689,254.1869 689,274.2069 " fill="none" id="CrearComunidad-to-AsignarVariables" style="stroke:#181818;stroke-width:1;"/><polygon fill="#181818" points="689,280.2069,693,271.2069,689,275.2069,685,271.2069,689,280.2069" style="stroke:#181818;stroke-width:1;"/></g><!--link AsignarVariables to Nombre--><g id="link_AsignarVariables_Nombre"><path d="M594.21,332.0369 C513.39,350.0269 394.24,377.2869 291,403.7969 C267.13,409.9269 247.0345,415.4074 223.5745,422.0274 " fill="none" id="AsignarVariables-to-Nombre" style="stroke:#181818;stroke-width:1;"/><polygon fill="#181818" points="217.8,423.6569,227.5481,425.0623,222.6121,422.299,225.3754,417.363,217.8,423.6569" style="stroke:#181818;stroke-width:1;"/></g><!--link AsignarVariables to Descripcion--><g id="link_AsignarVariables_Descripcion"><path d="M632.2,337.6469 C573.98,364.6569 490.5633,403.3628 440.7033,426.4828 " fill="none" id="AsignarVariables-to-Descripcion" style="stroke:#181818;stroke-width:1;"/><polygon fill="#181818" points="435.26,429.0069,445.1076,428.8497,439.7961,426.9035,441.7422,421.592,435.26,429.0069" style="stroke:#181818;stroke-width:1;"/></g><!--link AsignarVariables to Miembros--><g id="link_AsignarVariables_Miembros"><path d="M689,340.5869 C689,361.3769 689,383.3569 689,405.3169 " fill="none" id="AsignarVariables-to-Miembros" style="stroke:#181818;stroke-width:1;"/><polygon fill="#181818" points="689,411.3169,693,402.3169,689,406.3169,685,402.3169,689,411.3169" style="stroke:#181818;stroke-width:1;"/></g><!--link AsignarVariables to UsuarioCreador--><g id="link_AsignarVariables_UsuarioCreador"><path d="M762.89,335.7469 C825.81,356.5669 911.3738,384.8717 982.6238,408.4517 " fill="none" id="AsignarVariables-to-UsuarioCreador" style="stroke:#181818;stroke-width:1;"/><polygon fill="#181818" points="988.32,410.3369,981.0325,403.7117,983.5732,408.7659,978.519,411.3066,988.32,410.3369" style="stroke:#181818;stroke-width:1;"/></g><!--link CrearComunidad to GuardarPost--><g id="link_CrearComunidad_GuardarPost"><path d="M756.8,208.6069 C884.34,227.0469 1155.8918,266.328 1319.4118,289.978 " fill="none" id="CrearComunidad-to-GuardarPost" style="stroke:#181818;stroke-width:1;"/><polygon fill="#181818" points="1325.35,290.8369,1317.0152,285.5898,1320.4015,290.1212,1315.8701,293.5074,1325.35,290.8369" style="stroke:#181818;stroke-width:1;"/></g><!--link GuardarPost to FechaCreacion--><g id="link_GuardarPost_FechaCreacion"><path d="M1453,343.9769 C1453,367.8569 1453,393.7369 1453,415.5269 " fill="none" id="GuardarPost-to-FechaCreacion" style="stroke:#181818;stroke-width:1;"/><polygon fill="#181818" points="1453,421.5269,1457,412.5269,1453,416.5269,1449,412.5269,1453,421.5269" style="stroke:#181818;stroke-width:1;"/></g><!--link GuardarPost to NotificarCreacion--><g id="link_GuardarPost_NotificarCreacion"><path d="M1510.68,341.5969 C1559.22,367.0969 1622.0585,400.0962 1664.7685,422.5362 " fill="none" id="GuardarPost-to-NotificarCreacion" style="stroke:#181818;stroke-width:1;"/><polygon fill="#181818" points="1670.08,425.3269,1663.9732,417.5998,1665.6537,423.0013,1660.2523,424.6819,1670.08,425.3269" style="stroke:#181818;stroke-width:1;"/></g><!--SRC=[RLAzJiCm4Dxp5ATEC7HWPK12gM2YGaXqHHVxA9OIkx8Tn4inyGXzCMp7SPpOM_lzt5s-prROdg15eu0Jl1jr3wqcrD2gOPI28syQP5PfnuseXVfuexCmLYDNW6P6csOqnD0Gx3RsdLS5R9cOj2Vi7Q21erN67z3ZnXaL1ozOV8z6dANpVRlTsFLKzqRLQHQL_gCQEarLyqILbWCPfiM5YUkV3C84A5cgX-kl58E2EnW4kO4kitBLoqHLxelf0dFvSTV1JGggREDsb_NHJePbuhE3UTuBaFINT9vryyBWC24gNvMnYtrUe-69s1TwXxzfII70RO3o78xAYa_1d2_9WNw4suKnvSWdQpD_ytx_i7qtwxz1iNeV5Rvu0riWg6BPLIxljof8zLNPJI6L4_F0iz-1MyUwPOlq_W40]--></g></svg>
