<svg xmlns="http://www.w3.org/2000/svg" xmlns:xlink="http://www.w3.org/1999/xlink" contentStyleType="text/css" height="663px" preserveAspectRatio="none" style="width:778px;height:663px;background:#FFFFFF;" version="1.1" viewBox="0 0 778 663" width="778px" zoomAndPan="magnify"><defs/><g><rect fill="#F5F5F5" height="40" rx="12.5" ry="12.5" style="stroke:#181818;stroke-width:0.5;" width="156.3027" x="308" y="7"/><text fill="#000000" font-family="sans-serif" font-size="14" lengthAdjust="spacing" textLength="146.3027" x="313" y="31.8467">Panel de Moderaci&#243;n</text><rect fill="#F5F5F5" height="40" rx="12.5" ry="12.5" style="stroke:#181818;stroke-width:0.5;" width="168.0879" x="302" y="617"/><text fill="#000000" font-family="sans-serif" font-size="14" lengthAdjust="spacing" textLength="158.0879" x="307" y="641.8467">Usuario Desbloqueado</text><path d="M19.5,107 L752.5,107 A12.5,12.5 0 0 1 765,119.5 L765,133.2969 L7,133.2969 L7,119.5 A12.5,12.5 0 0 1 19.5,107 " fill="#F5F5F5" style="stroke:#F5F5F5;stroke-width:1;"/><rect fill="none" height="450.2969" rx="12.5" ry="12.5" style="stroke:#181818;stroke-width:0.5;" width="758" x="7" y="107"/><line style="stroke:#181818;stroke-width:0.5;" x1="7" x2="765" y1="133.2969" y2="133.2969"/><text fill="#000000" font-family="sans-serif" font-size="14" lengthAdjust="spacing" textLength="169.8662" x="301.0669" y="124.9951">Desbloqueo de Usuarios</text><rect fill="#F5F5F5" height="40" rx="12.5" ry="12.5" style="stroke:#181818;stroke-width:0.5;" width="50" x="181" y="145.2969"/><text fill="#000000" font-family="sans-serif" font-size="14" lengthAdjust="spacing" textLength="4.4502" x="203.7749" y="170.1436">&#160;</text><g id="elem_ValidarDesbloqueo"><polygon fill="#F1F1F1" points="206,271.2969,218,283.2969,206,295.2969,194,283.2969,206,271.2969" style="stroke:#181818;stroke-width:0.5;"/></g><rect fill="#F5F5F5" height="40" rx="12.5" ry="12.5" style="stroke:#181818;stroke-width:0.5;" width="50" x="181" y="381.2969"/><text fill="#000000" font-family="sans-serif" font-size="14" lengthAdjust="spacing" textLength="4.4502" x="203.7749" y="406.1436">&#160;</text><rect fill="#F5F5F5" height="40" rx="12.5" ry="12.5" style="stroke:#181818;stroke-width:0.5;" width="50" x="181" y="507.2969"/><text fill="#000000" font-family="sans-serif" font-size="14" lengthAdjust="spacing" textLength="4.4502" x="203.7749" y="532.1436">&#160;</text><!--link SeleccionarUsuario to ValidarDesbloqueo--><g id="link_SeleccionarUsuario_ValidarDesbloqueo"><path d="M180.65,171.2869 C129.33,181.3869 18,203.2969 18,203.2969 C18,203.2969 18,253.2969 18,253.2969 C18,253.2969 152.1801,273.9921 190.4901,279.9021 " fill="none" id="SeleccionarUsuario-to-ValidarDesbloqueo" style="stroke:#008000;stroke-width:1;"/><polygon fill="#008000" points="196.42,280.8169,188.1351,275.4915,191.4785,280.0546,186.9154,283.3979,196.42,280.8169" style="stroke:#008000;stroke-width:1;"/><path d="M23,208.2969 L23,248.2969 L368,248.2969 L368,218.2969 L358,208.2969 L23,208.2969 " fill="#F5F5F5" style="stroke:#000000;stroke-width:0.5;"/><path d="M358,208.2969 L358,218.2969 L368,218.2969 L358,208.2969 " fill="#F5F5F5" style="stroke:#000000;stroke-width:0.5;"/><text fill="#000000" font-family="sans-serif" font-size="13" font-weight="bold" lengthAdjust="spacing" textLength="324.9873" x="29" y="225.3638">Moderador selecciona un usuario bloqueado</text><ellipse cx="34.5" cy="236.0625" fill="#000000" rx="2.5" ry="2.5" style="stroke:#000000;stroke-width:0;"/><text fill="#000000" font-family="sans-serif" font-size="13" lengthAdjust="spacing" textLength="255.8105" x="41" y="240.4966">Sistema muestra el motivo del bloqueo</text></g><!--link ValidarDesbloqueo to ConfirmarDesbloqueo--><g id="link_ValidarDesbloqueo_ConfirmarDesbloqueo"><path d="M206,295.4169 C206,315.1569 206,350.5169 206,374.9869 " fill="none" id="ValidarDesbloqueo-to-ConfirmarDesbloqueo" style="stroke:#008000;stroke-width:1;"/><polygon fill="#008000" points="206,380.9869,210,371.9869,206,375.9869,202,371.9869,206,380.9869" style="stroke:#008000;stroke-width:1;"/><path d="M211,318.2969 L211,358.2969 L549,358.2969 L549,328.2969 L539,318.2969 L211,318.2969 " fill="#F5F5F5" style="stroke:#000000;stroke-width:0.5;"/><path d="M539,318.2969 L539,328.2969 L549,328.2969 L539,318.2969 " fill="#F5F5F5" style="stroke:#000000;stroke-width:0.5;"/><text fill="#000000" font-family="sans-serif" font-size="13" font-weight="bold" lengthAdjust="spacing" textLength="226.7256" x="217" y="335.3638">Raz&#243;n v&#225;lida para desbloquear</text><ellipse cx="222.5" cy="346.0625" fill="#000000" rx="2.5" ry="2.5" style="stroke:#000000;stroke-width:0;"/><text fill="#000000" font-family="sans-serif" font-size="13" lengthAdjust="spacing" textLength="305.4238" x="229" y="350.4966">Ejemplo: finalizaci&#243;n de periodo de suspensi&#243;n</text></g><!--link ValidarDesbloqueo to SeleccionarUsuario--><g id="link_ValidarDesbloqueo_SeleccionarUsuario"><path d="M215.46,280.6569 C250.78,274.5169 373,253.2969 373,253.2969 C373,253.2969 373,203.2969 373,203.2969 C373,203.2969 283.448,183.4545 236.858,173.1345 " fill="none" id="ValidarDesbloqueo-to-SeleccionarUsuario" style="stroke:#FF0000;stroke-width:1;"/><polygon fill="#FF0000" points="231,171.8369,238.922,177.6886,235.8817,172.9182,240.6521,169.8779,231,171.8369" style="stroke:#FF0000;stroke-width:1;"/><path d="M378,208.2969 L378,248.2969 L756,248.2969 L756,218.2969 L746,208.2969 L378,208.2969 " fill="#F5F5F5" style="stroke:#000000;stroke-width:0.5;"/><path d="M746,208.2969 L746,218.2969 L756,218.2969 L746,208.2969 " fill="#F5F5F5" style="stroke:#000000;stroke-width:0.5;"/><text fill="#000000" font-family="sans-serif" font-size="13" font-weight="bold" lengthAdjust="spacing" textLength="116.0098" x="384" y="225.3638">Raz&#243;n no v&#225;lida</text><ellipse cx="389.5" cy="236.0625" fill="#000000" rx="2.5" ry="2.5" style="stroke:#000000;stroke-width:0;"/><text fill="#000000" font-family="sans-serif" font-size="13" lengthAdjust="spacing" textLength="345.998" x="396" y="240.4966">Moderador regresa al listado de usuarios bloqueados</text></g><!--link ConfirmarDesbloqueo to DesbloqueoCompletado--><g id="link_ConfirmarDesbloqueo_DesbloqueoCompletado"><path d="M206,421.3969 C206,444.6369 206,477.6369 206,500.9669 " fill="none" id="ConfirmarDesbloqueo-to-DesbloqueoCompletado" style="stroke:#008000;stroke-width:1;"/><polygon fill="#008000" points="206,506.9669,210,497.9669,206,501.9669,202,497.9669,206,506.9669" style="stroke:#008000;stroke-width:1;"/><path d="M211,444.2969 L211,484.2969 L544,484.2969 L544,454.2969 L534,444.2969 L211,444.2969 " fill="#F5F5F5" style="stroke:#000000;stroke-width:0.5;"/><path d="M534,444.2969 L534,454.2969 L544,454.2969 L534,444.2969 " fill="#F5F5F5" style="stroke:#000000;stroke-width:0.5;"/><text fill="#000000" font-family="sans-serif" font-size="13" font-weight="bold" lengthAdjust="spacing" textLength="163.5854" x="217" y="461.3638">Usuario desbloqueado</text><ellipse cx="222.5" cy="472.0625" fill="#000000" rx="2.5" ry="2.5" style="stroke:#000000;stroke-width:0;"/><text fill="#000000" font-family="sans-serif" font-size="13" lengthAdjust="spacing" textLength="300.9233" x="229" y="476.4966">Sistema registra la acci&#243;n y notifica al usuario</text></g><!--link startState to ProcesoDeDesbloqueo--><g id="link_startState_ProcesoDeDesbloqueo"><path d="M386,47.41 C386,61.65 386,76.68 386,100.96 " fill="none" id="startState-to-ProcesoDeDesbloqueo" style="stroke:#181818;stroke-width:1;"/><polygon fill="#181818" points="386,106.96,390,97.96,386,101.96,382,97.96,386,106.96" style="stroke:#181818;stroke-width:1;"/></g><!--link ProcesoDeDesbloqueo to endState--><g id="link_ProcesoDeDesbloqueo_endState"><path d="M386,557.18 C386,581.63 386,596.76 386,610.98 " fill="none" id="ProcesoDeDesbloqueo-to-endState" style="stroke:#181818;stroke-width:1;"/><polygon fill="#181818" points="386,616.98,390,607.98,386,611.98,382,607.98,386,616.98" style="stroke:#181818;stroke-width:1;"/></g><!--SRC=[ZPJFRjim3CRlUGh2lGq8TXy27vhkkA5ei5sA7XI9QRJ8eYlABTAX3xDds2FqnKR9VzjuGNq8OeZy-2FvoNomlbP1LV1x0V9yfuYNIX_k0pNUhCbHW8kdlOsugUY0Omm5Ww4xtph9o4VEUep76g4cTqmlYvV5WeSQ75N4hjAvAfAqjmO1gpeUmI3hOEjeoOjObf3V43Vvhs8ehfL79t7mZOHAQVlwrnTTA7ep1lxWHWLBS8MyTVJGe39KPD5URhaiuJgGHgOh7CAeBpnpb8KdhuBHbU6YwxNDtQ13hQKB5NgEb0h59EQdSjQeC95RhVIUhCQod8IjoUzigDu4dcYDPskgQeTHcksZSjWCqFBsuZuW-ZiPmmbBJlAoVI2VLjtkF3shRTcEtiWcUP25naFJAG_pNdtUbaFY9zXOZbWfg1ha61J88YkAzZ4Dqi6qicmoLs_XJoSrPPyPq5dw6_Kide77rpz95P9Ta-ywwF2E-UilSQQZBx2pNZ2UMyUbpTSelPfi0cwuHi_fvAFu0Ks2FztBHzWzzVZlQCVD19G1iGBbH8Ip7mIqsn2FA-8Pu3dBJIS-vxQpsBtbpEGk_iSRmcspEPomwtROnoHiTrRdTfh9d0Rkb_xMdhq9SrSwVGNw3yS_]--></g></svg>