<svg xmlns="http://www.w3.org/2000/svg" xmlns:xlink="http://www.w3.org/1999/xlink" contentStyleType="text/css" height="663px" preserveAspectRatio="none" style="width:701px;height:663px;background:#FFFFFF;" version="1.1" viewBox="0 0 701 663" width="701px" zoomAndPan="magnify"><defs/><g><rect fill="#F5F5F5" height="40" rx="12.5" ry="12.5" style="stroke:#181818;stroke-width:0.5;" width="104.9102" x="295" y="7"/><text fill="#000000" font-family="sans-serif" font-size="14" lengthAdjust="spacing" textLength="94.9102" x="300" y="31.8467">Vista del Post</text><rect fill="#F5F5F5" height="40" rx="12.5" ry="12.5" style="stroke:#181818;stroke-width:0.5;" width="117.3105" x="289" y="617"/><text fill="#000000" font-family="sans-serif" font-size="14" lengthAdjust="spacing" textLength="107.3105" x="294" y="641.8467">Post Reportado</text><path d="M19.5,107 L675.5,107 A12.5,12.5 0 0 1 688,119.5 L688,133.2969 L7,133.2969 L7,119.5 A12.5,12.5 0 0 1 19.5,107 " fill="#F5F5F5" style="stroke:#F5F5F5;stroke-width:1;"/><rect fill="none" height="450.2969" rx="12.5" ry="12.5" style="stroke:#181818;stroke-width:0.5;" width="681" x="7" y="107"/><line style="stroke:#181818;stroke-width:0.5;" x1="7" x2="688" y1="133.2969" y2="133.2969"/><text fill="#000000" font-family="sans-serif" font-size="14" lengthAdjust="spacing" textLength="111.8428" x="291.5786" y="124.9951">Reporte de Post</text><rect fill="#F5F5F5" height="40" rx="12.5" ry="12.5" style="stroke:#181818;stroke-width:0.5;" width="50" x="184" y="145.2969"/><text fill="#000000" font-family="sans-serif" font-size="14" lengthAdjust="spacing" textLength="4.4502" x="206.7749" y="170.1436">&#160;</text><g id="elem_ValidarMotivo"><polygon fill="#F1F1F1" points="209,271.2969,221,283.2969,209,295.2969,197,283.2969,209,271.2969" style="stroke:#181818;stroke-width:0.5;"/></g><rect fill="#F5F5F5" height="40" rx="12.5" ry="12.5" style="stroke:#181818;stroke-width:0.5;" width="50" x="184" y="381.2969"/><text fill="#000000" font-family="sans-serif" font-size="14" lengthAdjust="spacing" textLength="4.4502" x="206.7749" y="406.1436">&#160;</text><rect fill="#F5F5F5" height="40" rx="12.5" ry="12.5" style="stroke:#181818;stroke-width:0.5;" width="50" x="184" y="507.2969"/><text fill="#000000" font-family="sans-serif" font-size="14" lengthAdjust="spacing" textLength="4.4502" x="206.7749" y="532.1436">&#160;</text><!--link SeleccionarMotivo to ValidarMotivo--><g id="link_SeleccionarMotivo_ValidarMotivo"><path d="M183.64,171.2069 C131.68,181.2769 18,203.2969 18,203.2969 C18,203.2969 18,253.2969 18,253.2969 C18,253.2969 154.408,274.0063 193.338,279.9163 " fill="none" id="SeleccionarMotivo-to-ValidarMotivo" style="stroke:#008000;stroke-width:1;"/><polygon fill="#008000" points="199.27,280.8169,190.9723,275.5114,194.3266,280.0664,189.7716,283.4207,199.27,280.8169" style="stroke:#008000;stroke-width:1;"/><path d="M23,208.2969 L23,248.2969 L374,248.2969 L374,218.2969 L364,208.2969 L23,208.2969 " fill="#F5F5F5" style="stroke:#000000;stroke-width:0.5;"/><path d="M364,208.2969 L364,218.2969 L374,218.2969 L364,208.2969 " fill="#F5F5F5" style="stroke:#000000;stroke-width:0.5;"/><text fill="#000000" font-family="sans-serif" font-size="13" font-weight="bold" lengthAdjust="spacing" textLength="330.4336" x="29" y="225.3638">Usuario selecciona un motivo para el reporte</text><ellipse cx="34.5" cy="236.0625" fill="#000000" rx="2.5" ry="2.5" style="stroke:#000000;stroke-width:0;"/><text fill="#000000" font-family="sans-serif" font-size="13" lengthAdjust="spacing" textLength="260.7998" x="41" y="240.4966">Ejemplo: contenido ofensivo, spam, etc.</text></g><!--link ValidarMotivo to ConfirmarReporte--><g id="link_ValidarMotivo_ConfirmarReporte"><path d="M209,295.4169 C209,315.1569 209,350.5169 209,374.9869 " fill="none" id="ValidarMotivo-to-ConfirmarReporte" style="stroke:#008000;stroke-width:1;"/><polygon fill="#008000" points="209,380.9869,213,371.9869,209,375.9869,205,371.9869,209,380.9869" style="stroke:#008000;stroke-width:1;"/><path d="M214,318.2969 L214,358.2969 L605,358.2969 L605,328.2969 L595,318.2969 L214,318.2969 " fill="#F5F5F5" style="stroke:#000000;stroke-width:0.5;"/><path d="M595,318.2969 L595,328.2969 L605,328.2969 L595,318.2969 " fill="#F5F5F5" style="stroke:#000000;stroke-width:0.5;"/><text fill="#000000" font-family="sans-serif" font-size="13" font-weight="bold" lengthAdjust="spacing" textLength="202.4521" x="220" y="335.3638">Motivo v&#225;lido para reportar</text><ellipse cx="225.5" cy="346.0625" fill="#000000" rx="2.5" ry="2.5" style="stroke:#000000;stroke-width:0;"/><text fill="#000000" font-family="sans-serif" font-size="13" lengthAdjust="spacing" textLength="358.0713" x="232" y="350.4966">Sistema verifica que el motivo cumple con las pol&#237;ticas</text></g><!--link ValidarMotivo to SeleccionarMotivo--><g id="link_ValidarMotivo_SeleccionarMotivo"><path d="M218.63,280.6569 C254.59,274.5169 379,253.2969 379,253.2969 C379,253.2969 379,203.2969 379,203.2969 C379,203.2969 287.2328,183.3226 239.9428,173.0326 " fill="none" id="ValidarMotivo-to-SeleccionarMotivo" style="stroke:#FF0000;stroke-width:1;"/><polygon fill="#FF0000" points="234.08,171.7569,242.0237,177.579,238.9657,172.82,243.7247,169.7619,234.08,171.7569" style="stroke:#FF0000;stroke-width:1;"/><path d="M384,208.2969 L384,248.2969 L679,248.2969 L679,218.2969 L669,208.2969 L384,208.2969 " fill="#F5F5F5" style="stroke:#000000;stroke-width:0.5;"/><path d="M669,208.2969 L669,218.2969 L679,218.2969 L669,208.2969 " fill="#F5F5F5" style="stroke:#000000;stroke-width:0.5;"/><text fill="#000000" font-family="sans-serif" font-size="13" font-weight="bold" lengthAdjust="spacing" textLength="121.5767" x="390" y="225.3638">Motivo no v&#225;lido</text><ellipse cx="395.5" cy="236.0625" fill="#000000" rx="2.5" ry="2.5" style="stroke:#000000;stroke-width:0;"/><text fill="#000000" font-family="sans-serif" font-size="13" lengthAdjust="spacing" textLength="262.9517" x="402" y="240.4966">Usuario regresa a seleccionar un motivo</text></g><!--link ConfirmarReporte to ReporteCompletado--><g id="link_ConfirmarReporte_ReporteCompletado"><path d="M209,421.3969 C209,444.6369 209,477.6369 209,500.9669 " fill="none" id="ConfirmarReporte-to-ReporteCompletado" style="stroke:#008000;stroke-width:1;"/><polygon fill="#008000" points="209,506.9669,213,497.9669,209,501.9669,205,497.9669,209,506.9669" style="stroke:#008000;stroke-width:1;"/><path d="M214,444.2969 L214,484.2969 L510,484.2969 L510,454.2969 L500,444.2969 L214,444.2969 " fill="#F5F5F5" style="stroke:#000000;stroke-width:0.5;"/><path d="M500,444.2969 L500,454.2969 L510,454.2969 L500,444.2969 " fill="#F5F5F5" style="stroke:#000000;stroke-width:0.5;"/><text fill="#000000" font-family="sans-serif" font-size="13" font-weight="bold" lengthAdjust="spacing" textLength="225.5322" x="220" y="461.3638">Reporte enviado exitosamente</text><ellipse cx="225.5" cy="472.0625" fill="#000000" rx="2.5" ry="2.5" style="stroke:#000000;stroke-width:0;"/><text fill="#000000" font-family="sans-serif" font-size="13" lengthAdjust="spacing" textLength="263.7642" x="232" y="476.4966">Sistema registra el reporte para revisi&#243;n</text></g><!--link startState to ProcesoDeReporte--><g id="link_startState_ProcesoDeReporte"><path d="M347.5,47.41 C347.5,61.65 347.5,76.68 347.5,100.96 " fill="none" id="startState-to-ProcesoDeReporte" style="stroke:#181818;stroke-width:1;"/><polygon fill="#181818" points="347.5,106.96,351.5,97.96,347.5,101.96,343.5,97.96,347.5,106.96" style="stroke:#181818;stroke-width:1;"/></g><!--link ProcesoDeReporte to endState--><g id="link_ProcesoDeReporte_endState"><path d="M347.5,557.18 C347.5,581.63 347.5,596.76 347.5,610.98 " fill="none" id="ProcesoDeReporte-to-endState" style="stroke:#181818;stroke-width:1;"/><polygon fill="#181818" points="347.5,616.98,351.5,607.98,347.5,611.98,343.5,607.98,347.5,616.98" style="stroke:#181818;stroke-width:1;"/></g><!--SRC=[ZPF1ZjCm48RlVOfHzuQsx1rLFL0uibfHiHV4mNMcMrF74yPEe4BxC3m09nwXByROYTEaWMfpgDBudvblvX_xWt6LObN2pnd8Sqy1tofzU6AgNR4cImmtt_ScuAQa0vurn0LoTxwr4f6Eh74OZXL2HVOO_yoUPpFVr_111UmgNQiYGNjJ861PXICKw3MRAXXoaYoba5yEc_IgFCmVZNmGdOK7yc7UYT0LPqayW8zO4GTLq3mboYaMYnKyC6dqz0vR3UPAbzzJilmkYAbWrr8RiK6BMWkiuWyKJ4Cf1EO3oQEofkYFbqkz9wDnjHf8rkHsXal5mxgZ9Dt1cihAOcmgIv9cIh7uVFF4YEwBT3i2I7edfWAvw61hPNoMszKdNois1BxF1xM3iaqPNGMPEhSeoxljgezz1U-_Yd-Mte0c5z0P8QGTEY-Hj-0hLTu21lqwHOXN2Q657yzd27uvbgliNNnp-cLZyKJReYg-ODt81c6fe44sEwCLVAinTjOrgkiuvDW8M9coRFVfTn2PVmayOn7H9uwyXDtr-1V0sHT6cOrNe0OEyTcYV_1DDciutybINONC6T0r9YuW_Z21l2hHJPOX3rXuvMsqDjcOndXp-kF6oC_v8lv_tITNDDxdVFd_0W00]--></g></svg>