<svg xmlns="http://www.w3.org/2000/svg" xmlns:xlink="http://www.w3.org/1999/xlink" contentStyleType="text/css" data-diagram-type="STATE" height="908px" preserveAspectRatio="none" style="width:760px;height:908px;background:#FFFFFF;" version="1.1" viewBox="0 0 760 908" width="760px" zoomAndPan="magnify"><defs/><g><!--cluster PantallaPost--><g id="cluster_PantallaPost"><path d="M19.5,267 L572.5,267 A12.5,12.5 0 0 1 585,279.5 L585,288.2969 L7,288.2969 L7,279.5 A12.5,12.5 0 0 1 19.5,267 " fill="#F5F5F5" style="stroke:#F5F5F5;stroke-width:1;"/><rect fill="#FFFFFF" fill-opacity="0.00000" height="635" rx="12.5" ry="12.5" style="stroke:#181818;stroke-width:0.5;" width="578" x="7" y="267"/><line style="stroke:#181818;stroke-width:0.5;" x1="7" x2="585" y1="288.2969" y2="288.2969"/><text fill="#000000" font-family="sans-serif" font-size="14" lengthAdjust="spacing" textLength="86.1123" x="252.9438" y="283.9951">PantallaPost</text></g><rect fill="#F5F5F5" height="40" rx="12.5" ry="12.5" style="stroke:#181818;stroke-width:0.5;" width="127.4346" x="158.28" y="310"/><text fill="#000000" font-family="sans-serif" font-size="14" lengthAdjust="spacing" textLength="117.4346" x="163.28" y="334.8467">Ver Comentarios</text><rect fill="#F5F5F5" height="40" rx="12.5" ry="12.5" style="stroke:#181818;stroke-width:0.5;" width="148.209" x="147.9" y="460"/><text fill="#000000" font-family="sans-serif" font-size="14" lengthAdjust="spacing" textLength="138.209" x="152.9" y="484.8467">Escribir Comentario</text><g id="elem_ValidarComentario"><polygon fill="#F1F1F1" points="308,657,320,669,308,681,296,669,308,657" style="stroke:#181818;stroke-width:0.5;"/></g><rect fill="#F5F5F5" height="40" rx="12.5" ry="12.5" style="stroke:#181818;stroke-width:0.5;" width="163.9043" x="307.05" y="838"/><text fill="#000000" font-family="sans-serif" font-size="14" lengthAdjust="spacing" textLength="153.9043" x="312.05" y="862.8467">Comentario Publicado</text><rect fill="#F5F5F5" height="40" rx="12.5" ry="12.5" style="stroke:#181818;stroke-width:0.5;" width="100.4873" x="552.76" y="7"/><text fill="#000000" font-family="sans-serif" font-size="14" lengthAdjust="spacing" textLength="90.4873" x="557.76" y="31.8467">PantallaFeed</text><rect fill="#F5F5F5" height="40" rx="12.5" ry="12.5" style="stroke:#181818;stroke-width:0.5;" width="68.1875" x="568.91" y="108"/><text fill="#000000" font-family="sans-serif" font-size="14" lengthAdjust="spacing" textLength="58.1875" x="573.91" y="132.8467">Ver Post</text><!--link PantallaFeed to VerPost--><g id="link_PantallaFeed_VerPost"><path d="M603,47.09 C603,64.51 603,84.13 603,101.63 " fill="#FFFFFF" fill-opacity="0.00000" id="PantallaFeed-to-VerPost" style="stroke:#000000;stroke-width:1;"/><polygon fill="#000000" points="603,107.63,607,98.63,603,102.63,599,98.63,603,107.63" style="stroke:#000000;stroke-width:1;"/></g><!--link VerPost to PantallaPost--><g id="link_VerPost_PantallaPost"><path d="M568.66,140 C523.55,154.44 450,178 450,178 C450,178 450,243 450,243 C450,243 569,251 569,251 C569,251 569.4844,255.7238 570.2147,262.8463 C570.306,263.7366 570.4011,264.6644 570.4996,265.6251 C570.5242,265.8653 570.5491,266.1075 570.5741,266.3517 C570.5866,266.4739 569.9872,260.6278 569.9998,260.7509 " fill="#FFFFFF" fill-opacity="0.00000" id="VerPost-to-PantallaPost" style="stroke:#000000;stroke-width:1;"/><polygon fill="#000000" points="570.6118,266.7196,573.673,257.3585,570.1018,261.7456,565.7147,258.1745,570.6118,266.7196" style="stroke:#000000;stroke-width:1;"/><path d="M455,183 L455,238 L722,238 L722,193 L712,183 L455,183 " fill="#F5F5F5" style="stroke:#000000;stroke-width:0.5;"/><path d="M712,183 L712,193 L722,193 L712,183 " fill="#F5F5F5" style="stroke:#000000;stroke-width:0.5;"/><text fill="#000000" font-family="sans-serif" font-size="13" font-weight="bold" lengthAdjust="spacing" textLength="197.0503" x="461" y="200.0669">Usuario selecciona un post</text><text fill="#000000" font-family="sans-serif" font-size="13" lengthAdjust="spacing" textLength="234.2729" x="473.397" y="215.1997">* Se muestra el contenido completo</text><text fill="#000000" font-family="sans-serif" font-size="13" lengthAdjust="spacing" textLength="209.3203" x="473.397" y="230.3325">* Se despliegan los comentarios</text></g><!--link VerComentarios to EscribirComentario--><g id="link_VerComentarios_EscribirComentario"><path d="M222,350.35 C222,378.71 222,425.28 222,453.65 " fill="#FFFFFF" fill-opacity="0.00000" id="VerComentarios-to-EscribirComentario" style="stroke:#000000;stroke-width:1;"/><polygon fill="#000000" points="222,459.65,226,450.65,222,454.65,218,450.65,222,459.65" style="stroke:#000000;stroke-width:1;"/><path d="M227,385 L227,425 L431,425 L431,395 L421,385 L227,385 " fill="#F5F5F5" style="stroke:#000000;stroke-width:0.5;"/><path d="M421,385 L421,395 L431,395 L421,385 " fill="#F5F5F5" style="stroke:#000000;stroke-width:0.5;"/><text fill="#000000" font-family="sans-serif" font-size="13" font-weight="bold" lengthAdjust="spacing" textLength="183.2314" x="233" y="402.0669">Usuario decide comentar</text><ellipse cx="238.5" cy="412.7656" fill="#000000" rx="2.5" ry="2.5"/><text fill="#000000" font-family="sans-serif" font-size="13" lengthAdjust="spacing" textLength="164.0869" x="245" y="417.1997">Campo de texto activado</text></g><!--link EscribirComentario to ValidarComentario--><g id="link_EscribirComentario_ValidarComentario"><path d="M159.16,500.37 C114.72,514.06 63,530 63,530 C63,530 63,627 63,627 C63,627 246.3423,657.6796 292.1723,665.3496 " fill="#FFFFFF" fill-opacity="0.00000" id="EscribirComentario-to-ValidarComentario" style="stroke:#000000;stroke-width:1;"/><polygon fill="#000000" points="298.09,666.34,289.8737,660.9093,293.1586,665.5147,288.5532,668.7996,298.09,666.34" style="stroke:#000000;stroke-width:1;"/><path d="M68,566 L68,591 L313,591 L313,576 L303,566 L68,566 " fill="#F5F5F5" style="stroke:#000000;stroke-width:0.5;"/><path d="M303,566 L303,576 L313,576 L303,566 " fill="#F5F5F5" style="stroke:#000000;stroke-width:0.5;"/><text fill="#000000" font-family="sans-serif" font-size="13" font-weight="bold" lengthAdjust="spacing" textLength="224.4976" x="74" y="583.0669">Usuario escribe un comentario</text></g><!--reverse link EscribirComentario to ValidarComentario--><g id="link_EscribirComentario_ValidarComentario"><path d="M266.9084,503.0092 C294.8584,516.6992 322,530 322,530 C322,530 322,627 322,627 C322,627 315.08,647.27 310.97,659.3 " fill="#FFFFFF" fill-opacity="0.00000" id="EscribirComentario-backto-ValidarComentario" style="stroke:#000000;stroke-width:1;"/><polygon fill="#000000" points="261.52,500.37,267.8431,507.9211,266.0103,502.5694,271.362,500.7366,261.52,500.37" style="stroke:#000000;stroke-width:1;"/><text fill="#000000" font-family="sans-serif" font-size="13" lengthAdjust="spacing" textLength="130.9775" x="352.7676" y="543.0669">Comentario inv&#225;lido</text><path d="M327,552.1328 L327,622.1328 L509,622.1328 L509,562.1328 L499,552.1328 L327,552.1328 " fill="#F5F5F5" style="stroke:#000000;stroke-width:0.5;"/><path d="M499,552.1328 L499,562.1328 L509,562.1328 L499,552.1328 " fill="#F5F5F5" style="stroke:#000000;stroke-width:0.5;"/><text fill="#000000" font-family="sans-serif" font-size="13" font-weight="bold" lengthAdjust="spacing" textLength="58.7983" x="333" y="569.1997">Errores:</text><ellipse cx="338.5" cy="579.8984" fill="#000000" rx="2.5" ry="2.5"/><text fill="#000000" font-family="sans-serif" font-size="13" lengthAdjust="spacing" textLength="84.4175" x="345" y="584.3325">Campo vac&#237;o</text><ellipse cx="338.5" cy="595.0313" fill="#000000" rx="2.5" ry="2.5"/><text fill="#000000" font-family="sans-serif" font-size="13" lengthAdjust="spacing" textLength="149.5127" x="345" y="599.4653">Texto demasiado largo</text><ellipse cx="338.5" cy="610.1641" fill="#000000" rx="2.5" ry="2.5"/><text fill="#000000" font-family="sans-serif" font-size="13" lengthAdjust="spacing" textLength="141.083" x="345" y="614.5981">Lenguaje inapropiado</text></g><!--link ValidarComentario to PublicarComentario--><g id="link_ValidarComentario_PublicarComentario"><path d="M311.48,678.04 C323.44,705.65 360.7058,791.6641 378.1958,832.0541 " fill="#FFFFFF" fill-opacity="0.00000" id="ValidarComentario-to-PublicarComentario" style="stroke:#000000;stroke-width:1;"/><polygon fill="#000000" points="380.58,837.56,380.6743,827.7116,378.5931,832.9717,373.333,830.8906,380.58,837.56" style="stroke:#000000;stroke-width:1;"/><text fill="#000000" font-family="sans-serif" font-size="13" lengthAdjust="spacing" textLength="119.1265" x="430.2676" y="724.0669">Comentario v&#225;lido</text><path d="M372,733.1328 L372,803.1328 L607,803.1328 L607,743.1328 L597,733.1328 L372,733.1328 " fill="#F5F5F5" style="stroke:#000000;stroke-width:0.5;"/><path d="M597,733.1328 L597,743.1328 L607,743.1328 L597,733.1328 " fill="#F5F5F5" style="stroke:#000000;stroke-width:0.5;"/><text fill="#000000" font-family="sans-serif" font-size="13" font-weight="bold" lengthAdjust="spacing" textLength="112.8677" x="378" y="750.1997">Sistema valida:</text><ellipse cx="383.5" cy="760.8984" fill="#000000" rx="2.5" ry="2.5"/><text fill="#000000" font-family="sans-serif" font-size="13" lengthAdjust="spacing" textLength="56.1831" x="390" y="765.3325">No vac&#237;o</text><ellipse cx="383.5" cy="776.0313" fill="#000000" rx="2.5" ry="2.5"/><text fill="#000000" font-family="sans-serif" font-size="13" lengthAdjust="spacing" textLength="202.6616" x="390" y="780.4653">Dentro del l&#237;mite de caracteres</text><ellipse cx="383.5" cy="791.1641" fill="#000000" rx="2.5" ry="2.5"/><text fill="#000000" font-family="sans-serif" font-size="13" lengthAdjust="spacing" textLength="107.999" x="390" y="795.5981">Cumple pol&#237;ticas</text></g><!--reverse link VerPost to PublicarComentario--><g id="link_VerPost_PublicarComentario"><path d="M642.9033,144.2756 C680.8233,158.7956 731,178 731,178 C731,178 753,329 753,329 C753,329 753,329 753,670 C753,670 620,808 620,808 C620,808 537.76,825.45 471.42,839.52 " fill="#FFFFFF" fill-opacity="0.00000" id="VerPost-backto-PublicarComentario" style="stroke:#000000;stroke-width:1;"/><polygon fill="#000000" points="637.3,142.13,644.2745,149.0838,641.9694,143.918,647.1353,141.6128,637.3,142.13" style="stroke:#000000;stroke-width:1;"/></g><!--SRC=[ZLJDZjem4BxdAKRqjjAgTuIGMhezLIiashrFx15uSMpBTg2ewiFq0NWANgnZamGJK8jFyVn-tpSJXwqo3ZqsyAi2FgysqcSKsxMthP4Bgws73_kDYhHgx9OkCTPByfs_rfoHNLePYWT7uAm-f4lrkwh2q2D4ZDHr-b-NJzxR_Tbrhi-LDaeIKEFY0IG5uPMBoXhkaEikqKJK6hyIoSxqHdvfGmGCCE5lI9T9LGR2ixHxypplGwi-fRVtmTbfc3fOatXkgraz_n5QzCf284r2C1Q4rZ3v46SVwtdYyGGhWgQb43q2QH3MH39AMlvgdAPeXoYcvBIYDN9z6vAVk3MN3raGCX9I_weQ4yvupweEj1UNx85zOPiKqIz9oLeLAJcZDnTfPTORQYMnJ9hDnCOgGVDv4RPiQwq4ZeiNrov2SlMSDmBVp-4MPOw-cWXqfvYC996MfXUp7qi-Jx30ngKOYFGpCZ8HrOwHZFHEjpiY3PipLk8XO7b_QqhxSfdq0E-w-QtMmtRUoZij1WQxqnzE_JUYbGgH6eHTxZ8TIVJAHL2SZhQmVU7oFkccGP-E3V-tIKE6mGAIfr0gtAOjJ-_1wHWPQNYCNklkZloQd3AFq7lXXuGnJU-E_eRQzxm8alK8YZS1DFfrwVz6PjtYEt5pTDuwTNzTqcjrPpPdNjqJynS0]--></g></svg>