<svg xmlns="http://www.w3.org/2000/svg" xmlns:xlink="http://www.w3.org/1999/xlink" contentStyleType="text/css" data-diagram-type="STATE" height="788px" preserveAspectRatio="none" style="width:1026px;height:788px;background:#FFFFFF;" version="1.1" viewBox="0 0 1026 788" width="1026px" zoomAndPan="magnify"><defs/><g><!--cluster PantallaPrincipal--><g id="cluster_PantallaPrincipal"><path d="M473.5,7 L621.5,7 A12.5,12.5 0 0 1 634,19.5 L634,28.2969 L461,28.2969 L461,19.5 A12.5,12.5 0 0 1 473.5,7 " fill="#F5F5F5" style="stroke:#F5F5F5;stroke-width:1;"/><rect fill="#FFFFFF" fill-opacity="0.00000" height="107" rx="12.5" ry="12.5" style="stroke:#181818;stroke-width:0.5;" width="173" x="461" y="7"/><line style="stroke:#181818;stroke-width:0.5;" x1="461" x2="634" y1="28.2969" y2="28.2969"/><text fill="#000000" font-family="sans-serif" font-size="14" lengthAdjust="spacing" textLength="120.6748" x="487.1626" y="23.9951">Pantalla Principal</text></g><!--cluster PantallaComunidad--><g id="cluster_PantallaComunidad"><path d="M19.5,197 L609.5,197 A12.5,12.5 0 0 1 622,209.5 L622,218.2969 L7,218.2969 L7,209.5 A12.5,12.5 0 0 1 19.5,197 " fill="#F5F5F5" style="stroke:#F5F5F5;stroke-width:1;"/><rect fill="#FFFFFF" fill-opacity="0.00000" height="585.4" rx="12.5" ry="12.5" style="stroke:#181818;stroke-width:0.5;" width="615" x="7" y="197"/><line style="stroke:#181818;stroke-width:0.5;" x1="7" x2="622" y1="218.2969" y2="218.2969"/><text fill="#000000" font-family="sans-serif" font-size="14" lengthAdjust="spacing" textLength="140.7383" x="244.1309" y="213.9951">Pantalla Comunidad</text></g><rect fill="#F5F5F5" height="40" rx="12.5" ry="12.5" style="stroke:#181818;stroke-width:0.5;" width="105.874" x="485.06" y="50"/><text fill="#000000" font-family="sans-serif" font-size="14" lengthAdjust="spacing" textLength="95.874" x="490.06" y="74.8467">Comunidades</text><rect fill="#F5F5F5" height="40" rx="12.5" ry="12.5" style="stroke:#181818;stroke-width:0.5;" width="95.5449" x="142.23" y="247.7"/><text fill="#000000" font-family="sans-serif" font-size="14" lengthAdjust="spacing" textLength="85.5449" x="147.23" y="272.5467">Ver Detalles</text><rect fill="#F5F5F5" height="40" rx="12.5" ry="12.5" style="stroke:#181818;stroke-width:0.5;" width="225.2842" x="364.36" y="396.4"/><text fill="#000000" font-family="sans-serif" font-size="14" lengthAdjust="spacing" textLength="215.2842" x="369.36" y="421.2467">Presionar 'Salir de Comunidad'</text><g id="elem_ConfirmarSalida"><polygon fill="#F1F1F1" points="260,552.4,272,564.4,260,576.4,248,564.4,260,552.4" style="stroke:#181818;stroke-width:0.5;"/></g><rect fill="#F5F5F5" height="40" rx="12.5" ry="12.5" style="stroke:#181818;stroke-width:0.5;" width="108.1094" x="343.95" y="718.4"/><text fill="#000000" font-family="sans-serif" font-size="14" lengthAdjust="spacing" textLength="98.1094" x="348.95" y="743.2467">Salida Exitosa</text><g id="elem_GMN2"><path d="M272.46,240 L272.46,295.3984 L495.5406,295.3984 L495.5406,250 L485.5406,240 L272.46,240 " fill="#F5F5F5" style="stroke:#000000;stroke-width:0.5;"/><path d="M485.5406,240 L485.5406,250 L495.5406,250 L485.5406,240 " fill="#F5F5F5" style="stroke:#000000;stroke-width:1;"/><text fill="#000000" font-family="sans-serif" font-size="13" font-weight="bold" lengthAdjust="spacing" textLength="88.6577" x="278.46" y="257.0669">Se muestra:</text><ellipse cx="283.96" cy="267.7656" fill="#000000" rx="2.5" ry="2.5"/><text fill="#000000" font-family="sans-serif" font-size="13" lengthAdjust="spacing" textLength="190.0806" x="290.46" y="272.1997">Informacion de la comunidad</text><ellipse cx="283.96" cy="282.8984" fill="#000000" rx="2.5" ry="2.5"/><text fill="#000000" font-family="sans-serif" font-size="13" lengthAdjust="spacing" textLength="181.8096" x="290.46" y="287.3325">Bot&#243;n "Salir de Comunidad"</text></g><!--link Comunidades to PantallaComunidad--><g id="link_Comunidades_PantallaComunidad"><path d="M484.92,81.1 C386.59,99.82 186,138 186,138 C186,138 186,173 186,173 C186,173 606,181 606,181 C606,181 606.4844,186.19 607.2147,194.0156 C607.2603,194.5047 607.3069,195.0041 607.3544,195.5132 C607.3782,195.7677 607.4022,196.0247 607.4264,196.284 C607.4385,196.4136 606.8931,190.5698 606.9053,190.7006 " fill="#FFFFFF" fill-opacity="0.00000" id="Comunidades-to-PantallaComunidad" style="stroke:#000000;stroke-width:1;"/><polygon fill="#000000" points="607.4628,196.6747,610.6093,187.3419,606.9982,191.6963,602.6439,188.0853,607.4628,196.6747" style="stroke:#000000;stroke-width:1;"/><path d="M191,143 L191,168 L607,168 L607,153 L597,143 L191,143 " fill="#F5F5F5" style="stroke:#000000;stroke-width:0.5;"/><path d="M597,143 L597,153 L607,153 L597,143 " fill="#F5F5F5" style="stroke:#000000;stroke-width:0.5;"/><text fill="#000000" font-family="sans-serif" font-size="13" font-weight="bold" lengthAdjust="spacing" textLength="395.8081" x="197" y="160.0669">Usuario selecciona una comunidad a la que pertenece</text></g><!--link PantallaPrincipal to PantallaComunidad--><g id="link_PantallaPrincipal_PantallaComunidad"><path d="M623.3559,114.0879 C623.2791,115.3401 623.2013,116.61 623.1224,117.8961 C622.807,123.0408 622.4756,128.4461 622.1335,134.025 C621.4495,145.183 620.7228,157.0356 619.9962,168.8875 C619.633,174.8134 619.2697,180.7392 618.9118,186.5778 C618.7328,189.4971 618.5552,192.3946 618.3796,195.2595 C618.3577,195.6176 618.3357,195.9752 618.3138,196.3323 C618.3029,196.5108 618.6591,190.7004 618.6481,190.8787 " fill="#FFFFFF" fill-opacity="0.00000" id="PantallaPrincipal-to-PantallaComunidad" style="stroke:#000000;stroke-width:1;"/><polygon fill="#000000" points="618.281,196.8675,622.8242,188.1291,618.587,191.8768,614.8392,187.6396,618.281,196.8675" style="stroke:#000000;stroke-width:1;"/></g><!--link VerDetallesComunidad to PresionarSalir--><g id="link_VerDetallesComunidad_PresionarSalir"><path d="M224.99,288.15 C273.43,315.07 355,360.4 355,360.4 C355,360.4 393.3903,377.7037 428.5203,393.5437 " fill="#FFFFFF" fill-opacity="0.00000" id="VerDetallesComunidad-to-PresionarSalir" style="stroke:#000000;stroke-width:1;"/><polygon fill="#000000" points="433.99,396.01,427.4296,388.6641,429.4319,393.9548,424.1413,395.9571,433.99,396.01" style="stroke:#000000;stroke-width:1;"/><path d="M360,330.4 L360,355.4 L636,355.4 L636,340.4 L626,330.4 L360,330.4 " fill="#F5F5F5" style="stroke:#000000;stroke-width:0.5;"/><path d="M626,330.4 L626,340.4 L636,340.4 L626,330.4 " fill="#F5F5F5" style="stroke:#000000;stroke-width:0.5;"/><text fill="#000000" font-family="sans-serif" font-size="13" font-weight="bold" lengthAdjust="spacing" textLength="255.6582" x="366" y="347.4669">Usuario pulsa 'Salir de Comunidad'</text></g><!--link PresionarSalir to ConfirmarSalida--><g id="link_PresionarSalir_ConfirmarSalida"><path d="M448.18,436.79 C397.23,471.07 298.9885,537.1712 271.7085,555.5212 " fill="#FFFFFF" fill-opacity="0.00000" id="PresionarSalir-to-ConfirmarSalida" style="stroke:#000000;stroke-width:1;"/><polygon fill="#000000" points="266.73,558.87,276.4303,557.1658,270.8788,556.0793,271.9652,550.5278,266.73,558.87" style="stroke:#000000;stroke-width:1;"/><path d="M399,477.4 L399,517.4 L594,517.4 L594,487.4 L584,477.4 L399,477.4 " fill="#F5F5F5" style="stroke:#000000;stroke-width:0.5;"/><path d="M584,477.4 L584,487.4 L594,487.4 L584,477.4 " fill="#F5F5F5" style="stroke:#000000;stroke-width:0.5;"/><text fill="#000000" font-family="sans-serif" font-size="13" font-weight="bold" lengthAdjust="spacing" textLength="112.8677" x="405" y="494.4669">Sistema valida:</text><ellipse cx="410.5" cy="505.1656" fill="#000000" rx="2.5" ry="2.5"/><text fill="#000000" font-family="sans-serif" font-size="13" lengthAdjust="spacing" textLength="162.6396" x="417" y="509.5997">Confirmacion del usuario</text></g><!--link ConfirmarSalida to SalidaExitosa--><g id="link_ConfirmarSalida_SalidaExitosa"><path d="M263.35,573.47 C274.69,600.83 311,688.4 311,688.4 C311,688.4 334.0715,701.3968 358.3915,715.0868 " fill="#FFFFFF" fill-opacity="0.00000" id="ConfirmarSalida-to-SalidaExitosa" style="stroke:#000000;stroke-width:1;"/><polygon fill="#000000" points="363.62,718.03,357.7393,710.1295,359.2629,715.5773,353.8151,717.1009,363.62,718.03" style="stroke:#000000;stroke-width:1;"/><text fill="#000000" font-family="sans-serif" font-size="13" lengthAdjust="spacing" textLength="151.1631" x="400.5818" y="619.4669">Confirmacion aceptada</text><path d="M316,628.5328 L316,683.5328 L636,683.5328 L636,638.5328 L626,628.5328 L316,628.5328 " fill="#F5F5F5" style="stroke:#000000;stroke-width:0.5;"/><path d="M626,628.5328 L626,638.5328 L636,638.5328 L626,628.5328 " fill="#F5F5F5" style="stroke:#000000;stroke-width:0.5;"/><text fill="#000000" font-family="sans-serif" font-size="13" font-weight="bold" lengthAdjust="spacing" textLength="78.6982" x="322" y="645.5997">Resultado:</text><ellipse cx="327.5" cy="656.2984" fill="#000000" rx="2.5" ry="2.5"/><text fill="#000000" font-family="sans-serif" font-size="13" lengthAdjust="spacing" textLength="229.9946" x="334" y="660.7325">Usuario eliminado de la comunidad</text><ellipse cx="327.5" cy="671.4313" fill="#000000" rx="2.5" ry="2.5"/><text fill="#000000" font-family="sans-serif" font-size="13" lengthAdjust="spacing" textLength="287.3267" x="334" y="675.8653">Ya no recibe notificaciones de la comunidad</text></g><!--reverse link VerDetallesComunidad to ConfirmarSalida--><g id="link_VerDetallesComunidad_ConfirmarSalida"><path d="M169.2594,292.5046 C139.3694,326.8246 84,390.4 84,390.4 C84,390.4 84,442.4 84,442.4 C84,442.4 221.17,536.7 253.32,558.8 " fill="#FFFFFF" fill-opacity="0.00000" id="VerDetallesComunidad-backto-ConfirmarSalida" style="stroke:#000000;stroke-width:1;"/><polygon fill="#000000" points="173.2,287.98,164.2728,292.1398,169.9162,291.7505,170.3056,297.3939,173.2,287.98" style="stroke:#000000;stroke-width:1;"/><text fill="#000000" font-family="sans-serif" font-size="13" lengthAdjust="spacing" textLength="158.2217" x="136.6497" y="403.4669">Confirmacion rechazada</text><path d="M89,412.5328 L89,437.5328 L342,437.5328 L342,422.5328 L332,412.5328 L89,412.5328 " fill="#F5F5F5" style="stroke:#000000;stroke-width:0.5;"/><path d="M332,412.5328 L332,422.5328 L342,422.5328 L332,412.5328 " fill="#F5F5F5" style="stroke:#000000;stroke-width:0.5;"/><text fill="#000000" font-family="sans-serif" font-size="13" font-weight="bold" lengthAdjust="spacing" textLength="232.521" x="95" y="429.5997">Accion cancelada por el usuario</text></g><!--link SalidaExitosa to PantallaPrincipal--><g id="link_SalidaExitosa_PantallaPrincipal"><path d="M452.51,726.59 C525.25,712.16 645,688.4 645,688.4 C645,688.4 667,565.4 667,565.4 C667,266.7 667,266.7 667,266.7 C667,266.7 645,138 645,138 C645,138 640.3975,121.77 635.7225,105.2862 C635.4303,104.256 635.1378,103.2248 634.8462,102.1965 C634.7004,101.6823 634.5548,101.1689 634.4095,100.6567 C634.3368,100.4006 634.2643,100.1448 634.1918,99.8893 C634.1556,99.7616 635.7566,105.4063 635.7204,105.2788 " fill="#FFFFFF" fill-opacity="0.00000" id="SalidaExitosa-to-PantallaPrincipal" style="stroke:#000000;stroke-width:1;"/><polygon fill="#000000" points="634.0832,99.5064,632.6908,109.2564,635.4475,104.3167,640.3872,107.0735,634.0832,99.5064" style="stroke:#000000;stroke-width:1;"/><path d="M672,396.4 L672,436.4 L1019,436.4 L1019,406.4 L1009,396.4 L672,396.4 " fill="#F5F5F5" style="stroke:#000000;stroke-width:0.5;"/><path d="M1009,396.4 L1009,406.4 L1019,406.4 L1009,396.4 " fill="#F5F5F5" style="stroke:#000000;stroke-width:0.5;"/><text fill="#000000" font-family="sans-serif" font-size="13" font-weight="bold" lengthAdjust="spacing" textLength="131.0156" x="678" y="413.4669">Vista actualizada:</text><ellipse cx="683.5" cy="424.1656" fill="#000000" rx="2.5" ry="2.5"/><text fill="#000000" font-family="sans-serif" font-size="13" lengthAdjust="spacing" textLength="314.7041" x="690" y="428.5997">Comunidad ya no aparece en la lista del usuario</text></g><!--link VerDetallesComunidad to GMN2--><g id="link_VerDetallesComunidad_GMN2"><path d="M238.01,267.7 C247.54,267.7 254.67,267.7 254.67,267.7 C254.67,267.7 262.14,267.7 272,267.7 " fill="#FFFFFF" fill-opacity="0.00000" id="VerDetallesComunidad-GMN2" style="stroke:#000000;stroke-width:1;stroke-dasharray:7.0,7.0;"/></g><!--SRC=[ZLJBZjim3BpdAmZtiC02GU-BmC1ksaClHT2W2_J8oCnQY2ovUZHDY_sgVa9_h9JyYEruamhmmI8vd1aHT0UfQxHOmUy5yFbiF3sXEBnO4tInDifOU7SifQTjPGvqpZ6s8Dl6TuehKaX9JVvK4zH6dUBFudMnS7qFvz5Js-bMbqThpR49DVYCLCg2WAhQdw0W9woilJIQEoJS3MgFIk76IYraZGhGGTRTGd-TjGoQghMfWfO5Cc2w7Vp3iZ17lSnxv3wMCZNx04P7qOtwU5Qx_AiBQAK1Hug4O888WJ_H5GC2q_aUs2ModZG9MhtVvGc2T95mezfBFSjPBXFvwtEVeVp-UYp_cUm7YXdaneKSW2wIdVLQ-L9wCFlPmg4BMu8gaFCM7tfryTp39xqtjiBe33zZz49S0Dp3a_5__sZ8jgYaZNbd0MEd1c8sbbpqspP5INzt1NUNI7VPQ13qNZAlL5mWh5QYD59GdW-IcjZ7dz8RXwb1czrUPGsTMLVxQHgn_AzHgeFYTdCABYSd_KsSw5fFD5xjlPNEKuNm8wLE7x53QbzHGMYepd2P6jkH6NlvC8P4GRN76nI_a0kAiyoKNUSRALb9pGbN1kqRCZvO4d97iPFSIv4uy0AOgxeXBjGiRVRz9mgvOuc_RabyJ1i416f1YfDvireus_t6yu-jdQwnVg5SxVpCxyyZBdnWiCZpSWGwPQTa8VAIvrt6LA9fAfM_EHcl_m00]--></g></svg>