<svg xmlns="http://www.w3.org/2000/svg" xmlns:xlink="http://www.w3.org/1999/xlink" contentStyleType="text/css" height="202px" preserveAspectRatio="none" style="width:1962px;height:202px;background:#FFFFFF;" version="1.1" viewBox="0 0 1962 202" width="1962px" zoomAndPan="magnify"><defs/><g><!--entity UsuarioNoRegistrado--><g id="elem_UsuarioNoRegistrado"><ellipse cx="84.415" cy="14" fill="#F1F1F1" rx="8" ry="8" style="stroke:#181818;stroke-width:0.5;"/><path d="M84.415,22 L84.415,49 M71.415,30 L97.415,30 M84.415,49 L71.415,64 M84.415,49 L97.415,64 " fill="none" style="stroke:#181818;stroke-width:0.5;"/><text fill="#000000" font-family="sans-serif" font-size="14" lengthAdjust="spacing" textLength="156.8301" x="6" y="78.4951">Usuario No Registrado</text></g><!--entity Profesor--><g id="elem_Profesor"><ellipse cx="605.4604" cy="14" fill="#F1F1F1" rx="8" ry="8" style="stroke:#181818;stroke-width:0.5;"/><path d="M605.4604,22 L605.4604,49 M592.4604,30 L618.4604,30 M605.4604,49 L592.4604,64 M605.4604,49 L618.4604,64 " fill="none" style="stroke:#181818;stroke-width:0.5;"/><text fill="#000000" font-family="sans-serif" font-size="14" lengthAdjust="spacing" textLength="57.9209" x="576.5" y="78.4951">Profesor</text></g><!--entity Alumno--><g id="elem_Alumno"><ellipse cx="1069.708" cy="14" fill="#F1F1F1" rx="8" ry="8" style="stroke:#181818;stroke-width:0.5;"/><path d="M1069.708,22 L1069.708,49 M1056.708,30 L1082.708,30 M1069.708,49 L1056.708,64 M1069.708,49 L1082.708,64 " fill="none" style="stroke:#181818;stroke-width:0.5;"/><text fill="#000000" font-family="sans-serif" font-size="14" lengthAdjust="spacing" textLength="53.416" x="1043" y="78.4951">Alumno</text></g><!--entity Admin--><g id="elem_Admin"><ellipse cx="1655.4321" cy="14" fill="#F1F1F1" rx="8" ry="8" style="stroke:#181818;stroke-width:0.5;"/><path d="M1655.4321,22 L1655.4321,49 M1642.4321,30 L1668.4321,30 M1655.4321,49 L1642.4321,64 M1655.4321,49 L1668.4321,64 " fill="none" style="stroke:#181818;stroke-width:0.5;"/><text fill="#000000" font-family="sans-serif" font-size="14" lengthAdjust="spacing" textLength="44.8643" x="1633" y="78.4951">Admin</text></g><g id="elem_UC_Registrarse"><ellipse cx="84.385" cy="168.977" fill="#F1F1F1" rx="65.385" ry="15.477" style="stroke:#181818;stroke-width:0.5;"/><text fill="#000000" font-family="sans-serif" font-size="14" lengthAdjust="spacing" textLength="79.8984" x="41.4358" y="172.7246">Registrarse</text></g><g id="elem_UC_IniciarSesion"><ellipse cx="961.7059" cy="168.9412" fill="#F1F1F1" rx="70.2059" ry="16.4412" style="stroke:#181818;stroke-width:0.5;"/><text fill="#000000" font-family="sans-serif" font-size="14" lengthAdjust="spacing" textLength="93.3857" x="912.013" y="172.6887">Iniciar Sesión</text></g><g id="elem_UC_VerInfoAsignaturas"><ellipse cx="729.5989" cy="169.2198" fill="#F1F1F1" rx="126.5989" ry="27.7198" style="stroke:#181818;stroke-width:0.5;"/><text fill="#000000" font-family="sans-serif" font-size="14" lengthAdjust="spacing" textLength="221.3818" x="618.908" y="172.0665">Ver Información de Asignaturas</text></g><g id="elem_UC_Matricularse"><ellipse cx="1178.2955" cy="169.1591" fill="#F1F1F1" rx="111.2955" ry="24.6591" style="stroke:#181818;stroke-width:0.5;"/><text fill="#000000" font-family="sans-serif" font-size="14" lengthAdjust="spacing" textLength="188.6787" x="1083.9561" y="172.0058">Matricularse en Asignatura</text></g><g id="elem_UC_ConsultarCalificaciones"><ellipse cx="1426.6585" cy="169.2317" fill="#F1F1F1" rx="101.6585" ry="22.7317" style="stroke:#181818;stroke-width:0.5;"/><text fill="#000000" font-family="sans-serif" font-size="14" lengthAdjust="spacing" textLength="167.7061" x="1342.8054" y="172.0784">Consultar Calificaciones</text></g><g id="elem_UC_ImpartirAsignatura"><ellipse cx="272.6366" cy="168.9273" fill="#F1F1F1" rx="87.6366" ry="19.9273" style="stroke:#181818;stroke-width:0.5;"/><text fill="#000000" font-family="sans-serif" font-size="14" lengthAdjust="spacing" textLength="136.3701" x="204.4515" y="171.774">Impartir Asignatura</text></g><g id="elem_UC_GestionarAlumnos"><ellipse cx="481.6933" cy="169.1387" fill="#F1F1F1" rx="86.1933" ry="19.6387" style="stroke:#181818;stroke-width:0.5;"/><text fill="#000000" font-family="sans-serif" font-size="14" lengthAdjust="spacing" textLength="133.0684" x="415.1592" y="171.9853">Gestionar Alumnos</text></g><g id="elem_UC_AdministrarUsuarios"><ellipse cx="1655.6433" cy="168.8287" fill="#F1F1F1" rx="92.1433" ry="20.8287" style="stroke:#181818;stroke-width:0.5;"/><text fill="#000000" font-family="sans-serif" font-size="14" lengthAdjust="spacing" textLength="146.5762" x="1582.3552" y="171.6753">Administrar Usuarios</text></g><g id="elem_UC_ConfigurarSistema"><ellipse cx="1869.4155" cy="168.7831" fill="#F1F1F1" rx="86.9155" ry="19.7831" style="stroke:#181818;stroke-width:0.5;"/><text fill="#000000" font-family="sans-serif" font-size="14" lengthAdjust="spacing" textLength="134.7227" x="1802.0542" y="171.6298">Configurar Sistema</text></g><!--link UsuarioNoRegistrado to UC_Registrarse--><g id="link_UsuarioNoRegistrado_UC_Registrarse"><path d="M84.5,81.55 C84.5,105.71 84.5,129.91 84.5,147.47 " fill="none" id="UsuarioNoRegistrado-to-UC_Registrarse" style="stroke:#181818;stroke-width:1.0;"/><polygon fill="#181818" points="84.5,153.47,88.5,144.47,84.5,148.47,80.5,144.47,84.5,153.47" style="stroke:#181818;stroke-width:1.0;"/></g><!--link Alumno to UC_IniciarSesion--><g id="link_Alumno_UC_IniciarSesion"><path d="M1042.8,75.03 C1021.32,99.6 995.9484,128.6022 979.0284,147.9622 " fill="none" id="Alumno-to-UC_IniciarSesion" style="stroke:#181818;stroke-width:1.0;"/><polygon fill="#181818" points="975.08,152.48,984.0144,148.3356,978.3703,148.7152,977.9907,143.0711,975.08,152.48" style="stroke:#181818;stroke-width:1.0;"/></g><!--link Alumno to UC_VerInfoAsignaturas--><g id="link_Alumno_UC_VerInfoAsignaturas"><path d="M1042.82,54.19 C989.28,73.64 873.1095,115.8315 798.1195,143.0715 " fill="none" id="Alumno-to-UC_VerInfoAsignaturas" style="stroke:#181818;stroke-width:1.0;"/><polygon fill="#181818" points="792.48,145.12,802.3049,145.8069,797.1796,143.4129,799.5735,138.2876,792.48,145.12" style="stroke:#181818;stroke-width:1.0;"/></g><!--link Alumno to UC_Matricularse--><g id="link_Alumno_UC_Matricularse"><path d="M1096.16,74.71 C1115.2,96.28 1136.45,120.3612 1153.94,140.1812 " fill="none" id="Alumno-to-UC_Matricularse" style="stroke:#181818;stroke-width:1.0;"/><polygon fill="#181818" points="1157.91,144.68,1154.9543,135.2851,1154.6017,140.931,1148.9558,140.5784,1157.91,144.68" style="stroke:#181818;stroke-width:1.0;"/></g><!--link Alumno to UC_ConsultarCalificaciones--><g id="link_Alumno_UC_ConsultarCalificaciones"><path d="M1096.04,53.68 C1154.7,73.97 1290.6197,120.9984 1368.0597,147.7884 " fill="none" id="Alumno-to-UC_ConsultarCalificaciones" style="stroke:#181818;stroke-width:1.0;"/><polygon fill="#181818" points="1373.73,149.75,1366.5323,143.0274,1369.0048,148.1153,1363.9168,150.5878,1373.73,149.75" style="stroke:#181818;stroke-width:1.0;"/></g><!--link Profesor to UC_IniciarSesion--><g id="link_Profesor_UC_IniciarSesion"><path d="M634.63,54.61 C698.9,76.9 847.0913,128.3138 918.3913,153.0438 " fill="none" id="Profesor-to-UC_IniciarSesion" style="stroke:#181818;stroke-width:1.0;"/><polygon fill="#181818" points="924.06,155.01,916.8677,148.2816,919.3361,153.3715,914.2462,155.8399,924.06,155.01" style="stroke:#181818;stroke-width:1.0;"/></g><!--link Profesor to UC_VerInfoAsignaturas--><g id="link_Profesor_UC_VerInfoAsignaturas"><path d="M634.57,73.46 C655.33,94.13 678.7789,117.4858 698.8889,137.5158 " fill="none" id="Profesor-to-UC_VerInfoAsignaturas" style="stroke:#181818;stroke-width:1.0;"/><polygon fill="#181818" points="703.14,141.75,699.5862,132.5647,699.5974,138.2215,693.9406,138.2328,703.14,141.75" style="stroke:#181818;stroke-width:1.0;"/></g><!--link Profesor to UC_ImpartirAsignatura--><g id="link_Profesor_UC_ImpartirAsignatura"><path d="M576.24,55.35 C517.68,77.07 391.3854,123.9033 322.2654,149.5433 " fill="none" id="Profesor-to-UC_ImpartirAsignatura" style="stroke:#181818;stroke-width:1.0;"/><polygon fill="#181818" points="316.64,151.63,326.4693,152.2502,321.3279,149.891,323.687,144.7496,316.64,151.63" style="stroke:#181818;stroke-width:1.0;"/></g><!--link Profesor to UC_GestionarAlumnos--><g id="link_Profesor_UC_GestionarAlumnos"><path d="M576.43,73.46 C552.66,97.13 524.05,125.6147 503.89,145.7047 " fill="none" id="Profesor-to-UC_GestionarAlumnos" style="stroke:#181818;stroke-width:1.0;"/><polygon fill="#181818" points="499.64,149.94,508.8385,146.4205,503.1817,146.4106,503.1915,140.7538,499.64,149.94" style="stroke:#181818;stroke-width:1.0;"/></g><!--link Admin to UC_IniciarSesion--><g id="link_Admin_UC_IniciarSesion"><path d="M1632.73,47.03 C1552.3,56.2 1274.33,89.9 1049.5,141.5 C1033.17,145.25 1021.1582,148.5946 1005.9182,153.3446 " fill="none" id="Admin-to-UC_IniciarSesion" style="stroke:#181818;stroke-width:1.0;"/><polygon fill="#181818" points="1000.19,155.13,1009.9726,156.2708,1004.9635,153.6422,1007.5921,148.6331,1000.19,155.13" style="stroke:#181818;stroke-width:1.0;"/></g><!--link Admin to UC_AdministrarUsuarios--><g id="link_Admin_UC_AdministrarUsuarios"><path d="M1655.5,81.55 C1655.5,103.3 1655.5,123.93 1655.5,141.84 " fill="none" id="Admin-to-UC_AdministrarUsuarios" style="stroke:#181818;stroke-width:1.0;"/><polygon fill="#181818" points="1655.5,147.84,1659.5,138.84,1655.5,142.84,1651.5,138.84,1655.5,147.84" style="stroke:#181818;stroke-width:1.0;"/></g><!--link Admin to UC_ConfigurarSistema--><g id="link_Admin_UC_ConfigurarSistema"><path d="M1678.4,57.72 C1717,79.99 1789.8532,122.041 1833.3132,147.121 " fill="none" id="Admin-to-UC_ConfigurarSistema" style="stroke:#181818;stroke-width:1.0;"/><polygon fill="#181818" points="1838.51,150.12,1832.7142,142.1571,1834.1794,147.6209,1828.7156,149.0861,1838.51,150.12" style="stroke:#181818;stroke-width:1.0;"/></g><!--SRC=[TP9DRiGW38NtdCBAVgvGAPf5DOkEgexQRMKH4bbAe39miXwX5sj-8432BF7tdZ5-e7I6eVcq7faCt0ryg86iO-nC0sWXaBj9TO6hwPrDhwpXS6n7F-d8scuYBOItIg9Lq4GpMxLrlNvdfQIxQPA430zbwUzNHsqeBrMZa_fBCTnqRtX2kSYXKz1Q6ZGwpsYZUvOjgeoa5c_ecAGVbp50wSmUtRaY-Qv6Mp-wUTGhZjIJd2SmMkrtxhp4sKkd7sH7NBaneaIIxLLPDtV2kE_zmXs4UhAiMMohZcdkhen5LBonfy4lliUiKHDchmia024g_mGkbvTZqc8RBw8os99LOYi5HJ8bUhP-4JzjVO0ZhOnmQd0EwoWvHIFMjJ_PGOvgyHI2Kn3_]--></g></svg>