<svg xmlns="http://www.w3.org/2000/svg" xmlns:xlink="http://www.w3.org/1999/xlink" contentStyleType="text/css" height="239px" preserveAspectRatio="none" style="width:978px;height:239px;background:#FFFFFF;" version="1.1" viewBox="0 0 978 239" width="978px" zoomAndPan="magnify"><defs/><g><!--entity UsuarioNoRegistrado--><g id="elem_UsuarioNoRegistrado"><ellipse cx="84.415" cy="14" fill="#F1F1F1" rx="8" ry="8" style="stroke:#181818;stroke-width:0.5;"/><path d="M84.415,22 L84.415,49 M71.415,30 L97.415,30 M84.415,49 L71.415,64 M84.415,49 L97.415,64 " fill="none" style="stroke:#181818;stroke-width:0.5;"/><text fill="#000000" font-family="sans-serif" font-size="14" lengthAdjust="spacing" textLength="156.8301" x="6" y="78.4951">Usuario No Registrado</text></g><!--entity Profesor--><g id="elem_Profesor"><ellipse cx="681.4604" cy="167" fill="#F1F1F1" rx="8" ry="8" style="stroke:#181818;stroke-width:0.5;"/><path d="M681.4604,175 L681.4604,202 M668.4604,183 L694.4604,183 M681.4604,202 L668.4604,217 M681.4604,202 L694.4604,217 " fill="none" style="stroke:#181818;stroke-width:0.5;"/><text fill="#000000" font-family="sans-serif" font-size="14" lengthAdjust="spacing" textLength="57.9209" x="652.5" y="231.4951">Profesor</text></g><!--entity Alumno--><g id="elem_Alumno"><ellipse cx="216.708" cy="167" fill="#F1F1F1" rx="8" ry="8" style="stroke:#181818;stroke-width:0.5;"/><path d="M216.708,175 L216.708,202 M203.708,183 L229.708,183 M216.708,202 L203.708,217 M216.708,202 L229.708,217 " fill="none" style="stroke:#181818;stroke-width:0.5;"/><text fill="#000000" font-family="sans-serif" font-size="14" lengthAdjust="spacing" textLength="53.416" x="190" y="231.4951">Alumno</text></g><!--entity Admin--><g id="elem_Admin"><ellipse cx="596.4321" cy="14" fill="#F1F1F1" rx="8" ry="8" style="stroke:#181818;stroke-width:0.5;"/><path d="M596.4321,22 L596.4321,49 M583.4321,30 L609.4321,30 M596.4321,49 L583.4321,64 M596.4321,49 L609.4321,64 " fill="none" style="stroke:#181818;stroke-width:0.5;"/><text fill="#000000" font-family="sans-serif" font-size="14" lengthAdjust="spacing" textLength="44.8643" x="574" y="78.4951">Admin</text></g><g id="elem_GMN9"><path d="M198.5,16 L198.5,39.5 L163.43,43.5 L198.5,47.5 L198.5,71.3984 A0,0 0 0 0 198.5,71.3984 L454.8521,71.3984 A0,0 0 0 0 454.8521,71.3984 L454.8521,26 L444.8521,16 L198.5,16 A0,0 0 0 0 198.5,16 " fill="#FEFFDD" style="stroke:#181818;stroke-width:0.5;"/><path d="M444.8521,16 L444.8521,26 L454.8521,26 L444.8521,16 " fill="#FEFFDD" style="stroke:#181818;stroke-width:0.5;"/><text fill="#000000" font-family="sans-serif" font-size="13" font-weight="bold" lengthAdjust="spacing" textLength="164.9438" x="204.5" y="33.0669">Usuario No Registrado</text><text fill="#000000" font-family="sans-serif" font-size="13" lengthAdjust="spacing" textLength="4.3799" x="369.4438" y="33.0669">:</text><text fill="#000000" font-family="sans-serif" font-size="13" lengthAdjust="spacing" textLength="210.6406" x="204.5" y="48.1997">Debe registrarse para acceder a</text><text fill="#000000" font-family="sans-serif" font-size="13" lengthAdjust="spacing" textLength="235.3521" x="204.5" y="63.3325">cualquier funcionalidad del sistema.</text></g><g id="elem_GMN12"><path d="M278,169 L278,192.5 L243.25,196.5 L278,200.5 L278,224.3984 A0,0 0 0 0 278,224.3984 L485.1704,224.3984 A0,0 0 0 0 485.1704,224.3984 L485.1704,179 L475.1704,169 L278,169 A0,0 0 0 0 278,169 " fill="#FEFFDD" style="stroke:#181818;stroke-width:0.5;"/><path d="M475.1704,169 L475.1704,179 L485.1704,179 L475.1704,169 " fill="#FEFFDD" style="stroke:#181818;stroke-width:0.5;"/><text fill="#000000" font-family="sans-serif" font-size="13" font-weight="bold" lengthAdjust="spacing" textLength="55.5039" x="284" y="186.0669">Alumno</text><text fill="#000000" font-family="sans-serif" font-size="13" lengthAdjust="spacing" textLength="4.3799" x="339.5039" y="186.0669">:</text><text fill="#000000" font-family="sans-serif" font-size="13" lengthAdjust="spacing" textLength="169.9585" x="284" y="201.1997">Puede usar la aplicaci&#243;n y</text><text fill="#000000" font-family="sans-serif" font-size="13" lengthAdjust="spacing" textLength="186.1704" x="284" y="216.3325">seguir las rutinas asignadas.</text></g><g id="elem_GMN15"><path d="M745.5,169 L745.5,192.5 L710.54,196.5 L745.5,200.5 L745.5,224.3984 A0,0 0 0 0 745.5,224.3984 L971.3452,224.3984 A0,0 0 0 0 971.3452,224.3984 L971.3452,179 L961.3452,169 L745.5,169 A0,0 0 0 0 745.5,169 " fill="#FEFFDD" style="stroke:#181818;stroke-width:0.5;"/><path d="M961.3452,169 L961.3452,179 L971.3452,179 L961.3452,169 " fill="#FEFFDD" style="stroke:#181818;stroke-width:0.5;"/><text fill="#000000" font-family="sans-serif" font-size="13" font-weight="bold" lengthAdjust="spacing" textLength="62.4229" x="751.5" y="186.0669">Profesor</text><text fill="#000000" font-family="sans-serif" font-size="13" lengthAdjust="spacing" textLength="4.3799" x="813.9229" y="186.0669">:</text><text fill="#000000" font-family="sans-serif" font-size="13" lengthAdjust="spacing" textLength="200.7129" x="751.5" y="201.1997">Puede controlar a sus alumnos</text><text fill="#000000" font-family="sans-serif" font-size="13" lengthAdjust="spacing" textLength="181.6445" x="751.5" y="216.3325">y a&#241;adir rutinas y objetivos.</text></g><g id="elem_GMN18"><path d="M654,8 L654,39.5 L619.26,43.5 L654,47.5 L654,78.5313 A0,0 0 0 0 654,78.5313 L909.127,78.5313 A0,0 0 0 0 909.127,78.5313 L909.127,18 L899.127,8 L654,8 A0,0 0 0 0 654,8 " fill="#FEFFDD" style="stroke:#181818;stroke-width:0.5;"/><path d="M899.127,8 L899.127,18 L909.127,18 L899.127,8 " fill="#FEFFDD" style="stroke:#181818;stroke-width:0.5;"/><text fill="#000000" font-family="sans-serif" font-size="13" font-weight="bold" lengthAdjust="spacing" textLength="46.6235" x="660" y="25.0669">Admin</text><text fill="#000000" font-family="sans-serif" font-size="13" lengthAdjust="spacing" textLength="4.3799" x="706.6235" y="25.0669">:</text><text fill="#000000" font-family="sans-serif" font-size="13" lengthAdjust="spacing" textLength="202.2681" x="660" y="40.1997">Tiene control total del sistema,</text><text fill="#000000" font-family="sans-serif" font-size="13" lengthAdjust="spacing" textLength="229.9946" x="660" y="55.3325">incluyendo la gesti&#243;n de usuarios y</text><text fill="#000000" font-family="sans-serif" font-size="13" lengthAdjust="spacing" textLength="212.1006" x="660" y="70.4653">la administraci&#243;n de contenidos.</text></g><!--reverse link UsuarioNoRegistrado to Alumno--><g id="link_UsuarioNoRegistrado_Alumno"><path d="M72.0795,99.4079 C69.9795,114.9479 72.96,114.73 81.5,128.5 C105.15,166.64 157.7,183.75 189.81,190.88 " fill="none" id="UsuarioNoRegistrado-backto-Alumno" style="stroke:#181818;stroke-width:1.0;"/><polygon fill="none" points="74.49,81.57,66.1335,98.6044,78.0254,100.2114,74.49,81.57" style="stroke:#181818;stroke-width:1.0;"/><text fill="#000000" font-family="sans-serif" font-size="13" lengthAdjust="spacing" textLength="241.1094" x="82.5" y="124.5669">necesita registrarse para ser Alumno</text></g><!--reverse link Admin to Profesor--><g id="link_Admin_Profesor"><path d="M629.457,89.9099 C637.277,101.0899 635.51,99.24 642.5,111.5 C651.02,126.45 659.23,143.57 665.9,158.45 " fill="none" id="Admin-backto-Profesor" style="stroke:#181818;stroke-width:1.0;"/><polygon fill="none" points="619.14,75.16,624.5404,93.3489,634.3736,86.4709,619.14,75.16" style="stroke:#181818;stroke-width:1.0;"/><text fill="#000000" font-family="sans-serif" font-size="13" lengthAdjust="spacing" textLength="170.2124" x="652.5" y="124.5669">tiene permisos avanzados</text></g><!--reverse link Admin to Alumno--><g id="link_Admin_Alumno"><path d="M556.7386,56.5539 C531.7386,64.1039 507.43,71.33 471.5,81.5 C422.33,95.42 408.03,92.73 360.5,111.5 C345.52,117.42 342.99,121.47 328.5,128.5 C298.78,142.92 288.53,141.03 260.5,158.5 C254.57,162.2 248.59,166.64 243.04,171.14 " fill="none" id="Admin-backto-Alumno" style="stroke:#181818;stroke-width:1.0;"/><polygon fill="none" points="573.97,51.35,555.004,50.8101,558.4733,62.2977,573.97,51.35" style="stroke:#181818;stroke-width:1.0;"/><text fill="#000000" font-family="sans-serif" font-size="13" lengthAdjust="spacing" textLength="272.1367" x="361.5" y="124.5669">acceso limitado en comparaci&#243;n al Admin</text></g><!--SRC=[VP51JWCn34NtFON5ig8Se6A3nBgg41p09EvWb8bBd20LSId44RWOJfef1GghYSVVVjyskYm9pkwqO6A1bS0D3QmvePSpG8MUMSdN_ncsedMI3Qca7bw5CiOfT-L7ZhFPYMAuV5qikXYM4CcHSaP8NP6KO8i9GUdGitNR5qvGAyrCqRIKHbPHm6UCBmRGO_c1Wyuu0e57WvaBYk1ah2377-yHC4oUesI2nCD31jcS71zWFZ-viFby2PQzfdlwFKzru6qch19NC3mLjd1JecE96DYZ1qy1rEfen8iPHG_LpKzFVIlLnlxPkUjY02YA2OBnje5TdsvNqqf3uPfII2Lpj2yg3n4zwj-mmvKhRWg-0Pt4d2HW7KsBDMsUj0fsW1zlw8qw4NSWzu-K-Ld-OUulqUQhhqwxRVVkDCYIxMP7-pet2KSNoixQIjt0G9hR-6qhxLwwNqLTJ-tSBkGcJMrDaVsnjKy0]--></g></svg>