<svg xmlns="http://www.w3.org/2000/svg" xmlns:xlink="http://www.w3.org/1999/xlink" contentStyleType="text/css" height="275px" preserveAspectRatio="none" style="width:1199px;height:275px;background:#FFFFFF;" version="1.1" viewBox="0 0 1199 275" width="1199px" zoomAndPan="magnify"><defs/><g><!--entity ALUMNOS--><g id="elem_ALUMNOS"><rect fill="#F1F1F1" height="36.2969" rx="2.5" ry="2.5" style="stroke:#181818;stroke-width:0.5;" width="90.082" x="459" y="7"/><text fill="#000000" font-family="sans-serif" font-size="14" lengthAdjust="spacing" textLength="70.082" x="469" y="29.9951">ALUMNOS</text></g><!--entity MENU_PRINCIPAL--><g id="elem_MENU_PRINCIPAL"><rect fill="#F1F1F1" height="36.2969" rx="2.5" ry="2.5" style="stroke:#181818;stroke-width:0.5;" width="141.1396" x="433.5" y="120"/><text fill="#000000" font-family="sans-serif" font-size="14" lengthAdjust="spacing" textLength="121.1396" x="443.5" y="142.9951">MENU_PRINCIPAL</text></g><!--entity MENU_CLASE--><g id="elem_MENU_CLASE"><rect fill="#F1F1F1" height="36.2969" rx="2.5" ry="2.5" style="stroke:#181818;stroke-width:0.5;" width="113.5293" x="7" y="233"/><text fill="#000000" font-family="sans-serif" font-size="14" lengthAdjust="spacing" textLength="93.5293" x="17" y="255.9951">MENU_CLASE</text></g><!--entity MENU_RUTINAS--><g id="elem_MENU_RUTINAS"><rect fill="#F1F1F1" height="36.2969" rx="2.5" ry="2.5" style="stroke:#181818;stroke-width:0.5;" width="130.2363" x="353" y="233"/><text fill="#000000" font-family="sans-serif" font-size="14" lengthAdjust="spacing" textLength="110.2363" x="363" y="255.9951">MENU_RUTINAS</text></g><!--entity MENU_ASIGNATURA--><g id="elem_MENU_ASIGNATURA"><rect fill="#F1F1F1" height="36.2969" rx="2.5" ry="2.5" style="stroke:#181818;stroke-width:0.5;" width="160.2393" x="658" y="233"/><text fill="#000000" font-family="sans-serif" font-size="14" lengthAdjust="spacing" textLength="140.2393" x="668" y="255.9951">MENU_ASIGNATURA</text></g><!--entity MENU_RETOS--><g id="elem_MENU_RETOS"><rect fill="#F1F1F1" height="36.2969" rx="2.5" ry="2.5" style="stroke:#181818;stroke-width:0.5;" width="115.6758" x="928" y="233"/><text fill="#000000" font-family="sans-serif" font-size="14" lengthAdjust="spacing" textLength="95.6758" x="938" y="255.9951">MENU_RETOS</text></g><!--link ALUMNOS to MENU_PRINCIPAL--><g id="link_ALUMNOS_MENU_PRINCIPAL"><path d="M466.99,43.04 C455.21,50.46 443.56,60.39 437,73 C427.2,91.84 440.1272,105.2642 459.9772,116.7542 " fill="none" id="ALUMNOS-to-MENU_PRINCIPAL" style="stroke:#181818;stroke-width:1.0;"/><polygon fill="#181818" points="465.17,119.76,459.3847,111.7894,460.8427,117.2552,455.3769,118.7132,465.17,119.76" style="stroke:#181818;stroke-width:1.0;"/><text fill="#000000" font-family="sans-serif" font-size="13" lengthAdjust="spacing" textLength="86.7153" x="438" y="86.0669">Iniciar Sesión</text></g><!--link MENU_PRINCIPAL to ALUMNOS--><g id="link_MENU_PRINCIPAL_ALUMNOS"><path d="M515.66,119.98 C520.84,111.39 526.36,100.58 529,90 C533.07,73.68 528.2752,60.9922 520.2752,48.3322 " fill="none" id="MENU_PRINCIPAL-to-ALUMNOS" style="stroke:#181818;stroke-width:1.0;"/><polygon fill="#181818" points="517.07,43.26,518.4963,53.005,519.741,47.4868,525.2592,48.7315,517.07,43.26" style="stroke:#181818;stroke-width:1.0;"/><text fill="#000000" font-family="sans-serif" font-size="13" lengthAdjust="spacing" textLength="88.0356" x="531" y="86.0669">Cerrar Sesión</text></g><!--link MENU_PRINCIPAL to MENU_ASIGNATURA--><g id="link_MENU_PRINCIPAL_MENU_ASIGNATURA"><path d="M514.77,156.25 C524.76,170.83 540.93,191.17 560,203 C589.34,221.19 619.733,231.1437 651.863,238.0237 " fill="none" id="MENU_PRINCIPAL-to-MENU_ASIGNATURA" style="stroke:#181818;stroke-width:1.0;"/><polygon fill="#181818" points="657.73,239.28,649.767,233.4842,652.8408,238.2331,648.092,241.3069,657.73,239.28" style="stroke:#181818;stroke-width:1.0;"/><text fill="#000000" font-family="sans-serif" font-size="13" lengthAdjust="spacing" textLength="198.7959" x="561" y="199.0669">Ver Información de Asignatura</text></g><!--link MENU_ASIGNATURA to MENU_PRINCIPAL--><g id="link_MENU_ASIGNATURA_MENU_PRINCIPAL"><path d="M753.83,232.99 C764.77,219.14 775.46,199.71 764,186 C740.29,157.62 649.2774,146.7287 580.7274,142.2787 " fill="none" id="MENU_ASIGNATURA-to-MENU_PRINCIPAL" style="stroke:#181818;stroke-width:1.0;"/><polygon fill="#181818" points="574.74,141.89,583.462,146.4646,579.7295,142.2139,583.9802,138.4814,574.74,141.89" style="stroke:#181818;stroke-width:1.0;"/><text fill="#000000" font-family="sans-serif" font-size="13" lengthAdjust="spacing" textLength="76.1909" x="769" y="199.0669">Volver incio</text></g><!--link MENU_PRINCIPAL to MENU_RUTINAS--><g id="link_MENU_PRINCIPAL_MENU_RUTINAS"><path d="M433.36,147.8 C387,155.19 332.38,167.54 318,186 C302.11,206.41 320.2228,220.0549 348.5328,230.8349 " fill="none" id="MENU_PRINCIPAL-to-MENU_RUTINAS" style="stroke:#181818;stroke-width:1.0;"/><polygon fill="#181818" points="354.14,232.97,347.1526,226.0291,349.4673,231.1907,344.3057,233.5054,354.14,232.97" style="stroke:#181818;stroke-width:1.0;"/><text fill="#000000" font-family="sans-serif" font-size="13" lengthAdjust="spacing" textLength="82.6909" x="319" y="199.0669">Usar Rutinas</text></g><!--link MENU_RUTINAS to MENU_PRINCIPAL--><g id="link_MENU_RUTINAS_MENU_PRINCIPAL"><path d="M421.61,232.96 C425.12,219.27 431.51,200.08 442,186 C450.8,174.19 458.3931,167.3153 469.9031,159.4153 " fill="none" id="MENU_RUTINAS-to-MENU_PRINCIPAL" style="stroke:#181818;stroke-width:1.0;"/><polygon fill="#181818" points="474.85,156.02,465.1661,157.8151,470.7276,158.8495,469.6932,164.4109,474.85,156.02" style="stroke:#181818;stroke-width:1.0;"/><text fill="#000000" font-family="sans-serif" font-size="13" lengthAdjust="spacing" textLength="76.1909" x="443" y="199.0669">Volver incio</text></g><!--link MENU_PRINCIPAL to MENU_RETOS--><g id="link_MENU_PRINCIPAL_MENU_RETOS"><path d="M574.78,141.92 C646.48,146.39 759.92,157.67 854,186 C891.43,197.27 926.2159,215.0714 952.2459,229.8914 " fill="none" id="MENU_PRINCIPAL-to-MENU_RETOS" style="stroke:#181818;stroke-width:1.0;"/><polygon fill="#181818" points="957.46,232.86,951.6179,224.931,953.1149,230.3861,947.6597,231.8831,957.46,232.86" style="stroke:#181818;stroke-width:1.0;"/><text fill="#000000" font-family="sans-serif" font-size="13" lengthAdjust="spacing" textLength="203.2139" x="896" y="199.0669">Participar en Retos/Actividades</text></g><!--link MENU_RETOS to MENU_PRINCIPAL--><g id="link_MENU_RETOS_MENU_PRINCIPAL"><path d="M1044.38,239.61 C1086.6,229.66 1132.28,212.25 1108,186 C1072.42,147.54 732.3298,140.529 580.6398,139.289 " fill="none" id="MENU_RETOS-to-MENU_PRINCIPAL" style="stroke:#181818;stroke-width:1.0;"/><polygon fill="#181818" points="574.64,139.24,583.607,143.3134,579.6398,139.2809,583.6724,135.3137,574.64,139.24" style="stroke:#181818;stroke-width:1.0;"/><text fill="#000000" font-family="sans-serif" font-size="13" lengthAdjust="spacing" textLength="76.1909" x="1115" y="199.0669">Volver incio</text></g><!--link MENU_PRINCIPAL to MENU_CLASE--><g id="link_MENU_PRINCIPAL_MENU_CLASE"><path d="M433.12,141.17 C311.19,145.64 72.35,157.91 47,186 C35.45,198.8 40.1959,213.4174 48.6559,227.5974 " fill="none" id="MENU_PRINCIPAL-to-MENU_CLASE" style="stroke:#181818;stroke-width:1.0;"/><polygon fill="#181818" points="51.73,232.75,50.5539,222.9716,49.1682,228.4561,43.6837,227.0705,51.73,232.75" style="stroke:#181818;stroke-width:1.0;"/><text fill="#000000" font-family="sans-serif" font-size="13" lengthAdjust="spacing" textLength="111.2109" x="48" y="199.0669">Acceder a Clases</text></g><!--link MENU_CLASE to MENU_PRINCIPAL--><g id="link_MENU_CLASE_MENU_PRINCIPAL"><path d="M101.12,232.88 C133.68,218.48 182.62,198.33 227,186 C295.97,166.83 370.9393,154.9577 427.4493,147.6677 " fill="none" id="MENU_CLASE-to-MENU_PRINCIPAL" style="stroke:#181818;stroke-width:1.0;"/><polygon fill="#181818" points="433.4,146.9,423.9622,144.0844,428.4411,147.5397,424.9857,152.0186,433.4,146.9" style="stroke:#181818;stroke-width:1.0;"/><text fill="#000000" font-family="sans-serif" font-size="13" lengthAdjust="spacing" textLength="76.1909" x="228" y="199.0669">Volver incio</text></g><!--link MENU_CLASE to MENU_CLASE--><g id="link_MENU_CLASE_MENU_CLASE"><path d="M121.05,240.5 C140.43,240.45 156,243.95 156,251 C156,258.05 146.43,261.5655 127.05,261.5155 " fill="none" id="MENU_CLASE-to-MENU_CLASE" style="stroke:#181818;stroke-width:1.0;"/><polygon fill="#181818" points="121.05,261.5,130.0397,265.5232,126.05,261.5129,130.0603,257.5232,121.05,261.5" style="stroke:#181818;stroke-width:1.0;"/><text fill="#000000" font-family="sans-serif" font-size="13" lengthAdjust="spacing" textLength="153.7974" x="162" y="255.5669">Consultar calificaciones</text></g><!--SRC=[ZP11QiCm44NtEiLqron2zra4X331u2X6jhCjGXu7WIiNIGwvLu_GYtNSk6rgupRRcV_-dpyFDJRM8QX4b5pkikJniWAF9cftQX4kZFriU5RjvQ5OtOpsYQoUSvLAaUOycsr4nejaDbLLcKe-z-55kfEyh1IV8qav13CstW3hzHP-XyC6KcUDrHuA3FRzpR69O62- -0q8zFvlxUGeOexeAQJf_8is0mKr0W_sv7JilLxq60kJGHKeKlNHEXsMvKDP4kVQHohqIWWwK1YxyCHDj6TRwne3MpJuV3iPS6EmffCrY5O771ElsvbOT2xqRQGmerlRM4CLE_STCw5kttxisZEbM4S0cpxjJkBQ-Lxn-Cz_vHy0]--></g></svg>