<svg xmlns="http://www.w3.org/2000/svg" xmlns:xlink="http://www.w3.org/1999/xlink" contentStyleType="text/css" height="501px" preserveAspectRatio="none" style="width:1161px;height:501px;background:#FFFFFF;" version="1.1" viewBox="0 0 1161 501" width="1161px" zoomAndPan="magnify"><defs/><g><!--entity NO_REGISTRADO--><g id="elem_NO_REGISTRADO"><rect fill="#F1F1F1" height="36.2969" rx="2.5" ry="2.5" style="stroke:#181818;stroke-width:0.5;" width="140.5859" x="620.29" y="7"/><text fill="#000000" font-family="sans-serif" font-size="14" lengthAdjust="spacing" textLength="120.5859" x="630.29" y="29.9951">NO_REGISTRADO</text></g><!--entity REGISTRADO--><g id="elem_REGISTRADO"><rect fill="#F1F1F1" height="36.2969" rx="2.5" ry="2.5" style="stroke:#181818;stroke-width:0.5;" width="112.0938" x="634.79" y="120"/><text fill="#000000" font-family="sans-serif" font-size="14" lengthAdjust="spacing" textLength="92.0938" x="644.79" y="142.9951">REGISTRADO</text></g><!--entity MENU_PRINCIPAL--><g id="elem_MENU_PRINCIPAL"><rect fill="#F1F1F1" height="36.2969" rx="2.5" ry="2.5" style="stroke:#181818;stroke-width:0.5;" width="141.1396" x="620.29" y="233"/><text fill="#000000" font-family="sans-serif" font-size="14" lengthAdjust="spacing" textLength="121.1396" x="630.29" y="255.9951">MENU_PRINCIPAL</text></g><!--entity MENU_CLASE--><g id="elem_MENU_CLASE"><rect fill="#F1F1F1" height="36.2969" rx="2.5" ry="2.5" style="stroke:#181818;stroke-width:0.5;" width="113.5293" x="51.79" y="346"/><text fill="#000000" font-family="sans-serif" font-size="14" lengthAdjust="spacing" textLength="93.5293" x="61.79" y="368.9951">MENU_CLASE</text></g><!--entity MENU_RUTINAS--><g id="elem_MENU_RUTINAS"><rect fill="#F1F1F1" height="36.2969" rx="2.5" ry="2.5" style="stroke:#181818;stroke-width:0.5;" width="130.2363" x="353.79" y="346"/><text fill="#000000" font-family="sans-serif" font-size="14" lengthAdjust="spacing" textLength="110.2363" x="363.79" y="368.9951">MENU_RUTINAS</text></g><!--entity ASIGNATURA--><g id="elem_ASIGNATURA"><rect fill="#F1F1F1" height="36.2969" rx="2.5" ry="2.5" style="stroke:#181818;stroke-width:0.5;" width="111.5947" x="213.79" y="459"/><text fill="#000000" font-family="sans-serif" font-size="14" lengthAdjust="spacing" textLength="91.5947" x="223.79" y="481.9951">ASIGNATURA</text></g><!--entity MENU_RETOS--><g id="elem_MENU_RETOS"><rect fill="#F1F1F1" height="36.2969" rx="2.5" ry="2.5" style="stroke:#181818;stroke-width:0.5;" width="115.6758" x="1039.79" y="346"/><text fill="#000000" font-family="sans-serif" font-size="14" lengthAdjust="spacing" textLength="95.6758" x="1049.79" y="368.9951">MENU_RETOS</text></g><!--link NO_REGISTRADO to REGISTRADO--><g id="link_NO_REGISTRADO_REGISTRADO"><path d="M690.79,43.34 C690.79,64.2 690.79,92.98 690.79,113.78 " fill="none" id="NO_REGISTRADO-to-REGISTRADO" style="stroke:#181818;stroke-width:1.0;"/><polygon fill="#181818" points="690.79,119.78,694.79,110.78,690.79,114.78,686.79,110.78,690.79,119.78" style="stroke:#181818;stroke-width:1.0;"/><text fill="#000000" font-family="sans-serif" font-size="13" lengthAdjust="spacing" textLength="74.1914" x="691.79" y="86.0669">Registrarse</text></g><!--link REGISTRADO to MENU_PRINCIPAL--><g id="link_REGISTRADO_MENU_PRINCIPAL"><path d="M653.77,156.04 C642,163.46 630.34,173.39 623.79,186 C613.99,204.84 626.9172,218.2642 646.7672,229.7542 " fill="none" id="REGISTRADO-to-MENU_PRINCIPAL" style="stroke:#181818;stroke-width:1.0;"/><polygon fill="#181818" points="651.96,232.76,646.1747,224.7894,647.6327,230.2552,642.1669,231.7132,651.96,232.76" style="stroke:#181818;stroke-width:1.0;"/><text fill="#000000" font-family="sans-serif" font-size="13" lengthAdjust="spacing" textLength="86.7153" x="624.79" y="199.0669">Iniciar Sesión</text></g><!--link MENU_PRINCIPAL to REGISTRADO--><g id="link_MENU_PRINCIPAL_REGISTRADO"><path d="M703.85,232.74 C711.86,220.08 719.86,202.32 715.79,186 C713.15,175.42 710.7284,169.7481 705.5484,161.1581 " fill="none" id="MENU_PRINCIPAL-to-REGISTRADO" style="stroke:#181818;stroke-width:1.0;"/><polygon fill="#181818" points="702.45,156.02,703.6722,165.7927,705.032,160.3017,710.523,161.6615,702.45,156.02" style="stroke:#181818;stroke-width:1.0;"/><text fill="#000000" font-family="sans-serif" font-size="13" lengthAdjust="spacing" textLength="88.0356" x="717.79" y="199.0669">Cerrar Sesión</text></g><!--link MENU_PRINCIPAL to ASIGNATURA--><g id="link_MENU_PRINCIPAL_ASIGNATURA"><path d="M708.6,269.23 C733.92,295.81 774.26,347.35 745.79,382 C693.17,446.02 446.2608,466.827 332.0108,473.177 " fill="none" id="MENU_PRINCIPAL-to-ASIGNATURA" style="stroke:#181818;stroke-width:1.0;"/><polygon fill="#181818" points="326.02,473.51,335.2281,477.0044,331.0123,473.2325,334.7842,469.0167,326.02,473.51" style="stroke:#181818;stroke-width:1.0;"/><text fill="#000000" font-family="sans-serif" font-size="13" lengthAdjust="spacing" textLength="205.5688" x="755.79" y="368.5669">Ver Información de Asignaturas</text></g><!--link MENU_PRINCIPAL to MENU_RUTINAS--><g id="link_MENU_PRINCIPAL_MENU_RUTINAS"><path d="M648.88,269.1 C597.77,289.96 517.4251,322.7426 466.2951,343.6126 " fill="none" id="MENU_PRINCIPAL-to-MENU_RUTINAS" style="stroke:#181818;stroke-width:1.0;"/><polygon fill="#181818" points="460.74,345.88,470.5842,346.1822,465.3692,343.9905,467.561,338.7755,460.74,345.88" style="stroke:#181818;stroke-width:1.0;"/><text fill="#000000" font-family="sans-serif" font-size="13" lengthAdjust="spacing" textLength="82.6909" x="572.79" y="312.0669">Usar Rutinas</text></g><!--link MENU_PRINCIPAL to MENU_RETOS--><g id="link_MENU_PRINCIPAL_MENU_RETOS"><path d="M753.49,269.1 C831.53,290.39 957.9814,324.8712 1033.8414,345.5612 " fill="none" id="MENU_PRINCIPAL-to-MENU_RETOS" style="stroke:#181818;stroke-width:1.0;"/><polygon fill="#181818" points="1039.63,347.14,1031.9997,340.9128,1034.8062,345.8244,1029.8946,348.6309,1039.63,347.14" style="stroke:#181818;stroke-width:1.0;"/><text fill="#000000" font-family="sans-serif" font-size="13" lengthAdjust="spacing" textLength="203.2139" x="918.79" y="312.0669">Participar en Retos/Actividades</text></g><!--link MENU_PRINCIPAL to MENU_CLASE--><g id="link_MENU_PRINCIPAL_MENU_CLASE"><path d="M620.25,263.47 C565.05,272.61 486.42,285.99 417.79,299 C329.65,315.71 233.7055,335.9666 171.7755,349.3066 " fill="none" id="MENU_PRINCIPAL-to-MENU_CLASE" style="stroke:#181818;stroke-width:1.0;"/><polygon fill="#181818" points="165.91,350.57,175.5505,352.5851,170.7979,349.5171,173.8659,344.7645,165.91,350.57" style="stroke:#181818;stroke-width:1.0;"/><text fill="#000000" font-family="sans-serif" font-size="13" lengthAdjust="spacing" textLength="111.2109" x="418.79" y="312.0669">Acceder a Clases</text></g><!--link MENU_CLASE to ASIGNATURA--><g id="link_MENU_CLASE_ASIGNATURA"><path d="M56.21,382.08 C29.62,393.52 6,409.94 21.79,429 C45.65,457.81 142.023,468.7053 207.553,473.0253 " fill="none" id="MENU_CLASE-to-ASIGNATURA" style="stroke:#181818;stroke-width:1.0;"/><polygon fill="#181818" points="213.54,473.42,204.8226,468.8366,208.5508,473.0911,204.2964,476.8193,213.54,473.42" style="stroke:#181818;stroke-width:1.0;"/><text fill="#000000" font-family="sans-serif" font-size="13" lengthAdjust="spacing" textLength="126.6294" x="22.79" y="425.0669">Impartir Asignatura</text></g><!--link MENU_CLASE to ASIGNATURA--><g id="link_MENU_CLASE_ASIGNATURA"><path d="M128.84,382.11 C144.88,395.49 168.19,414.23 189.79,429 C205.34,439.64 218.172,447.4082 233.182,455.9282 " fill="none" id="MENU_CLASE-to-ASIGNATURA-1" style="stroke:#181818;stroke-width:1.0;"/><polygon fill="#181818" points="238.4,458.89,232.5476,450.9686,234.0517,456.4218,228.5984,457.9259,238.4,458.89" style="stroke:#181818;stroke-width:1.0;"/><text fill="#000000" font-family="sans-serif" font-size="13" lengthAdjust="spacing" textLength="113.4199" x="190.79" y="425.0669">Calificar Alumnos</text></g><!--link MENU_CLASE to ASIGNATURA--><g id="link_MENU_CLASE_ASIGNATURA"><path d="M166.08,370.62 C218.75,377.11 291.23,389.84 308.79,412 C320.58,426.89 310.657,441.5492 296.147,454.8892 " fill="none" id="MENU_CLASE-to-ASIGNATURA-2" style="stroke:#181818;stroke-width:1.0;"/><polygon fill="#181818" points="291.73,458.95,301.0627,455.8034,295.4108,455.566,295.6483,449.9141,291.73,458.95" style="stroke:#181818;stroke-width:1.0;"/><text fill="#000000" font-family="sans-serif" font-size="13" lengthAdjust="spacing" textLength="110.627" x="314.79" y="425.0669">Evaluar Progreso</text></g><!--link MENU_CLASE to MENU_CLASE--><g id="link_MENU_CLASE_MENU_CLASE"><path d="M165.84,353.5 C185.21,353.45 200.79,356.95 200.79,364 C200.79,371.05 191.21,374.5655 171.84,374.5155 " fill="none" id="MENU_CLASE-to-MENU_CLASE" style="stroke:#181818;stroke-width:1.0;"/><polygon fill="#181818" points="165.84,374.5,174.8296,378.5232,170.84,374.5129,174.8503,370.5232,165.84,374.5" style="stroke:#181818;stroke-width:1.0;"/><text fill="#000000" font-family="sans-serif" font-size="13" lengthAdjust="spacing" textLength="123.5635" x="206.79" y="368.5669">Gestionar Alumnos</text></g><!--link MENU_RUTINAS to MENU_RUTINAS--><g id="link_MENU_RUTINAS_MENU_RUTINAS"><path d="M484.19,358.76 C503.65,358.92 518.79,360.66 518.79,364 C518.79,367.34 509.6498,369.0307 490.1898,369.1907 " fill="none" id="MENU_RUTINAS-to-MENU_RUTINAS" style="stroke:#181818;stroke-width:1.0;"/><polygon fill="#181818" points="484.19,369.24,493.2226,373.1659,489.1898,369.1989,493.1568,365.1661,484.19,369.24" style="stroke:#181818;stroke-width:1.0;"/><text fill="#000000" font-family="sans-serif" font-size="13" lengthAdjust="spacing" textLength="102.1719" x="524.79" y="368.5669">Asignar Rutinas</text></g><!--link MENU_RUTINAS to MENU_RUTINAS--><g id="link_MENU_RUTINAS_MENU_RUTINAS"><path d="M483.98,355.23 C549.23,351.23 632.79,354.16 632.79,364 C632.79,373.84 555.2188,377.1371 489.9688,373.1371 " fill="none" id="MENU_RUTINAS-to-MENU_RUTINAS-1" style="stroke:#181818;stroke-width:1.0;"/><polygon fill="#181818" points="483.98,372.77,492.7184,377.3132,488.9706,373.0759,493.2079,369.3282,483.98,372.77" style="stroke:#181818;stroke-width:1.0;"/><text fill="#000000" font-family="sans-serif" font-size="13" lengthAdjust="spacing" textLength="82.6909" x="638.79" y="368.5669">Usar Rutinas</text></g><!--link MENU_PRINCIPAL to MENU_PRINCIPAL--><g id="link_MENU_PRINCIPAL_MENU_PRINCIPAL"><path d="M761.29,245.78 C781.09,246 796.29,247.75 796.29,251 C796.29,254.25 787.0896,255.9333 767.2896,256.1533 " fill="none" id="MENU_PRINCIPAL-to-MENU_PRINCIPAL" style="stroke:#181818;stroke-width:1.0;"/><polygon fill="#181818" points="761.29,256.22,770.3339,260.1198,766.2897,256.1644,770.245,252.1203,761.29,256.22" style="stroke:#181818;stroke-width:1.0;"/><text fill="#000000" font-family="sans-serif" font-size="13" lengthAdjust="spacing" textLength="136.1064" x="802.29" y="255.5669">Administrar Usuarios</text></g><!--link MENU_PRINCIPAL to MENU_PRINCIPAL--><g id="link_MENU_PRINCIPAL_MENU_PRINCIPAL"><path d="M761.34,242.44 C838.68,238.14 944.29,240.99 944.29,251 C944.29,261.01 844.6707,264.1931 767.3307,259.8931 " fill="none" id="MENU_PRINCIPAL-to-MENU_PRINCIPAL-1" style="stroke:#181818;stroke-width:1.0;"/><polygon fill="#181818" points="761.34,259.56,770.1041,264.0534,766.3323,259.8376,770.5482,256.0658,761.34,259.56" style="stroke:#181818;stroke-width:1.0;"/><text fill="#000000" font-family="sans-serif" font-size="13" lengthAdjust="spacing" textLength="125.0996" x="950.29" y="255.5669">Configurar Sistema</text></g><!--SRC=[ZLF1Ri8m3BttAxBJnc7QVOT9KQbG9IXLMtP5KMigIsc2d1InxzfjLtviBWZHKa2SajhlsNdFxai56pGWiYWiP3ARHs_xYI0elJAr1h4FWaicMQwpQ1RdHIQdoqalSJkwY9BLEitY98nJEHzbmhdCer4qMnLn8lD-NERnB975AfDZT5Gi6HkyYWoqAj4QS0AC9n3QyirvLV7v8qhb-An0jCu60ntY_VrBz3u_kLIDpfCY1vtw0N2eYS6nmH8LYHmS7dvDS0KO5G-1w37y8fVXtq3SOcEfONLCw2H8XxLHlYNbRl7xDdA5bUDsMUlHF89tFZ8uLUHPpvOfODW8Rzs7B3tki58LkCxeAJX-0sYn07Fu4ocXwGXQE13R5ZY79DGv7Mh5BjvhUrm1RYlBaebCE-5lzUaLEh56LiNDjdizzVovnW-QpdWxU65OgjHjOwnxM3rK6ZTOFecETagtZ4t9rWIyScD1Wv6SntLZVYSrz3H-CEz7ysAtL1UNLOFcxeZwktv4dduDRiFwqBgdYA4r6wpRu-8p7nhr3m00]--></g></svg>