<svg xmlns="http://www.w3.org/2000/svg" xmlns:xlink="http://www.w3.org/1999/xlink" contentStyleType="text/css" height="1160px" preserveAspectRatio="none" style="width:588px;height:1160px;background:#FFFFFF;" version="1.1" viewBox="0 0 588 1160" width="588px" zoomAndPan="magnify"><defs/><g><ellipse cx="95.83" cy="16" fill="#222222" rx="10" ry="10" style="stroke:#222222;stroke-width:1.0;"/><rect fill="#F1F1F1" height="40" rx="12.5" ry="12.5" style="stroke:#181818;stroke-width:0.5;" width="61.6934" x="64.83" y="103"/><text fill="#000000" font-family="sans-serif" font-size="14" lengthAdjust="spacing" textLength="51.6934" x="69.83" y="127.8467">Inscrito</text><rect fill="#F1F1F1" height="40" rx="12.5" ry="12.5" style="stroke:#181818;stroke-width:0.5;" width="117.5225" x="153.83" y="781"/><text fill="#000000" font-family="sans-serif" font-size="14" lengthAdjust="spacing" textLength="107.5225" x="158.83" y="805.8467">EnClaseTeorica</text><rect fill="#F1F1F1" height="40" rx="12.5" ry="12.5" style="stroke:#181818;stroke-width:0.5;" width="122" x="159.83" y="220"/><text fill="#000000" font-family="sans-serif" font-size="14" lengthAdjust="spacing" textLength="112" x="164.83" y="244.8467">EnClasePractica</text><rect fill="#F1F1F1" height="40" rx="12.5" ry="12.5" style="stroke:#181818;stroke-width:0.5;" width="103.7959" x="227.83" y="898"/><text fill="#000000" font-family="sans-serif" font-size="14" lengthAdjust="spacing" textLength="93.7959" x="232.83" y="922.8467">EnEvaluacion</text><path d="M132.83,337 L562.7294,337 A12.5,12.5 0 0 1 575.2294,349.5 L575.2294,363.2969 L120.33,363.2969 L120.33,349.5 A12.5,12.5 0 0 1 132.83,337 " fill="#F1F1F1" style="stroke:#F1F1F1;stroke-width:1.0;"/><rect fill="none" height="367.2969" rx="12.5" ry="12.5" style="stroke:#181818;stroke-width:0.5;" width="454.8994" x="120.33" y="337"/><line style="stroke:#181818;stroke-width:0.5;" x1="120.33" x2="575.2294" y1="363.2969" y2="363.2969"/><text fill="#000000" font-family="sans-serif" font-size="14" lengthAdjust="spacing" textLength="45.4316" x="325.0639" y="354.9951">Rutina</text><rect fill="#F1F1F1" height="40" rx="12.5" ry="12.5" style="stroke:#181818;stroke-width:0.5;" width="129.7314" x="264.83" y="375.2969"/><text fill="#000000" font-family="sans-serif" font-size="14" lengthAdjust="spacing" textLength="119.7314" x="269.83" y="400.1436">EsperandoRutina</text><rect fill="#F1F1F1" height="40" rx="12.5" ry="12.5" style="stroke:#181818;stroke-width:0.5;" width="139.0352" x="132.33" y="468.2969"/><text fill="#000000" font-family="sans-serif" font-size="14" lengthAdjust="spacing" textLength="129.0352" x="137.33" y="493.1436">RutinaNoAsignada</text><rect fill="#F1F1F1" height="40" rx="12.5" ry="12.5" style="stroke:#181818;stroke-width:0.5;" width="119.9971" x="302.83" y="468.2969"/><text fill="#000000" font-family="sans-serif" font-size="14" lengthAdjust="spacing" textLength="109.9971" x="307.83" y="493.1436">RutinaAsignada</text><rect fill="#F1F1F1" height="40" rx="12.5" ry="12.5" style="stroke:#181818;stroke-width:0.5;" width="133.7441" x="295.83" y="561.2969"/><text fill="#000000" font-family="sans-serif" font-size="14" lengthAdjust="spacing" textLength="123.7441" x="300.83" y="586.1436">EjecutandoRutina</text><rect fill="#F1F1F1" height="40" rx="12.5" ry="12.5" style="stroke:#181818;stroke-width:0.5;" width="130.7979" x="297.33" y="654.2969"/><text fill="#000000" font-family="sans-serif" font-size="14" lengthAdjust="spacing" textLength="120.7979" x="302.33" y="679.1436">RutinaTerminada</text><!--link EsperandoRutina to RutinaNoAsignada--><g id="link_EsperandoRutina_RutinaNoAsignada"><path d="M264.83,405.5369 C232.61,411.5869 198.53,420.7269 188.83,433.2969 C181.17,443.2269 182.0861,451.5723 187.3561,462.7223 " fill="none" id="EsperandoRutina-to-RutinaNoAsignada" style="stroke:#181818;stroke-width:1.0;"/><polygon fill="#181818" points="189.92,468.1469,189.6905,458.3007,187.7834,463.6264,182.4577,461.7192,189.92,468.1469" style="stroke:#181818;stroke-width:1.0;"/><text fill="#000000" font-family="sans-serif" font-size="13" lengthAdjust="spacing" textLength="125.6709" x="189.83" y="446.3638">Rutina no asignada</text></g><!--link EsperandoRutina to RutinaAsignada--><g id="link_EsperandoRutina_RutinaAsignada"><path d="M336.83,415.5969 C342.43,431.0369 348.1942,446.9464 353.7942,462.3864 " fill="none" id="EsperandoRutina-to-RutinaAsignada" style="stroke:#181818;stroke-width:1.0;"/><polygon fill="#181818" points="355.84,468.0269,356.5317,458.2023,354.1352,463.3265,349.011,460.93,355.84,468.0269" style="stroke:#181818;stroke-width:1.0;"/><text fill="#000000" font-family="sans-serif" font-size="13" lengthAdjust="spacing" textLength="105.3457" x="350.83" y="446.3638">Rutina asignada</text></g><!--link RutinaNoAsignada to EsperandoRutina--><g id="link_RutinaNoAsignada_EsperandoRutina"><path d="M271.43,476.6669 C287.84,471.1769 303.99,462.8669 315.83,450.2969 C324.59,440.9869 327.3683,432.8892 328.6583,421.4392 " fill="none" id="RutinaNoAsignada-to-EsperandoRutina" style="stroke:#181818;stroke-width:1.0;"/><polygon fill="#181818" points="329.33,415.4769,324.3475,423.9725,328.7702,420.4454,332.2973,424.8681,329.33,415.4769" style="stroke:#181818;stroke-width:1.0;"/></g><!--link RutinaAsignada to EjecutandoRutina--><g id="link_RutinaAsignada_EjecutandoRutina"><path d="M362.83,508.5969 C362.83,524.0369 362.83,539.5869 362.83,555.0269 " fill="none" id="RutinaAsignada-to-EjecutandoRutina" style="stroke:#181818;stroke-width:1.0;"/><polygon fill="#181818" points="362.83,561.0269,366.83,552.0269,362.83,556.0269,358.83,552.0269,362.83,561.0269" style="stroke:#181818;stroke-width:1.0;"/><text fill="#000000" font-family="sans-serif" font-size="13" lengthAdjust="spacing" textLength="108.6973" x="363.83" y="539.3638">Comenzar rutina</text></g><!--link EjecutandoRutina to EjecutandoRutina--><g id="link_EjecutandoRutina_EjecutandoRutina"><path d="M430.17,573.3969 C440.67,574.5769 447.83,577.2069 447.83,581.2969 C447.83,585.3869 446.6325,587.3468 436.1325,588.5268 " fill="none" id="EjecutandoRutina-to-EjecutandoRutina" style="stroke:#181818;stroke-width:1.0;"/><polygon fill="#181818" points="430.17,589.1969,439.5604,592.1668,435.1387,588.6385,438.667,584.2168,430.17,589.1969" style="stroke:#181818;stroke-width:1.0;"/><text fill="#000000" font-family="sans-serif" font-size="13" lengthAdjust="spacing" textLength="106.3994" x="453.83" y="585.8638">Continuar rutina</text></g><!--link EjecutandoRutina to RutinaTerminada--><g id="link_EjecutandoRutina_RutinaTerminada"><path d="M362.83,601.5969 C362.83,617.0369 362.83,632.5869 362.83,648.0269 " fill="none" id="EjecutandoRutina-to-RutinaTerminada" style="stroke:#181818;stroke-width:1.0;"/><polygon fill="#181818" points="362.83,654.0269,366.83,645.0269,362.83,649.0269,358.83,645.0269,362.83,654.0269" style="stroke:#181818;stroke-width:1.0;"/><text fill="#000000" font-family="sans-serif" font-size="13" lengthAdjust="spacing" textLength="123.2271" x="363.83" y="632.3638">Rutina completada</text></g><rect fill="#F1F1F1" height="40" rx="12.5" ry="12.5" style="stroke:#181818;stroke-width:0.5;" width="94.3623" x="232.83" y="1015"/><text fill="#000000" font-family="sans-serif" font-size="14" lengthAdjust="spacing" textLength="84.3623" x="237.83" y="1039.8467">FinDelCurso</text><ellipse cx="279.83" cy="1143" fill="none" rx="11" ry="11" style="stroke:#222222;stroke-width:1.0;"/><ellipse cx="279.83" cy="1143" fill="#222222" rx="6" ry="6" style="stroke:#222222;stroke-width:1.0;"/><!--link *start* to Inscrito--><g id="link_*start*_Inscrito"><path d="M95.83,26.32 C95.83,43.38 95.83,73.98 95.83,96.64 " fill="none" id="*start*-to-Inscrito" style="stroke:#181818;stroke-width:1.0;"/><polygon fill="#181818" points="95.83,102.64,99.83,93.64,95.83,97.64,91.83,93.64,95.83,102.64" style="stroke:#181818;stroke-width:1.0;"/><text fill="#000000" font-family="sans-serif" font-size="13" lengthAdjust="spacing" textLength="160.8877" x="96.83" y="69.0669">Inscribirse en asignatura</text></g><!--link Inscrito to EnClaseTeorica--><g id="link_Inscrito_EnClaseTeorica"><path d="M90.54,143.1 C70.6,218.95 6,504.46 102.83,704 C119.1,737.52 147.9032,760.9551 173.7832,777.5951 " fill="none" id="Inscrito-to-EnClaseTeorica" style="stroke:#181818;stroke-width:1.0;"/><polygon fill="#181818" points="178.83,780.84,173.4231,772.608,174.6243,778.1359,169.0965,779.3371,178.83,780.84" style="stroke:#181818;stroke-width:1.0;"/><text fill="#000000" font-family="sans-serif" font-size="13" lengthAdjust="spacing" textLength="152.6294" x="62.83" y="303.0669">Asistir a clases te&#243;ricas</text></g><!--link Inscrito to EnClasePractica--><g id="link_Inscrito_EnClasePractica"><path d="M116.75,143.25 C139.83,164.48 172.3242,194.3779 195.4242,215.6279 " fill="none" id="Inscrito-to-EnClasePractica" style="stroke:#181818;stroke-width:1.0;"/><polygon fill="#181818" points="199.84,219.69,195.9244,210.653,196.1602,216.3049,190.5082,216.5407,199.84,219.69" style="stroke:#181818;stroke-width:1.0;"/><text fill="#000000" font-family="sans-serif" font-size="13" lengthAdjust="spacing" textLength="160.0435" x="166.83" y="186.0669">Asistir a clases pr&#225;cticas</text></g><!--link EnClaseTeorica to EnEvaluacion--><g id="link_EnClaseTeorica_EnEvaluacion"><path d="M207.1,821.01 C204.05,834.83 202.31,853.55 209.83,868 C216.27,880.37 222.4044,886.967 233.9344,894.537 " fill="none" id="EnClaseTeorica-to-EnEvaluacion" style="stroke:#181818;stroke-width:1.0;"/><polygon fill="#181818" points="238.95,897.83,233.6219,889.5468,234.7703,895.0858,229.2313,896.2343,238.95,897.83" style="stroke:#181818;stroke-width:1.0;"/><text fill="#000000" font-family="sans-serif" font-size="13" lengthAdjust="spacing" textLength="110.0684" x="210.83" y="864.0669">Completar teor&#237;a</text></g><!--link EnClasePractica to Rutina--><g id="link_EnClasePractica_Rutina"><path d="M229.56,260.14 C237.57,277.72 247.8515,300.2404 262.0815,331.4604 " fill="none" id="EnClasePractica-to-Rutina" style="stroke:#181818;stroke-width:1.0;"/><polygon fill="#181818" points="264.57,336.92,264.477,327.0716,262.4963,332.3703,257.1975,330.3896,264.57,336.92" style="stroke:#181818;stroke-width:1.0;"/><text fill="#000000" font-family="sans-serif" font-size="13" lengthAdjust="spacing" textLength="87.6294" x="248.83" y="303.0669">Recibir rutina</text></g><!--link Rutina to EnEvaluacion--><g id="link_Rutina_EnEvaluacion"><path d="M359.4,704.15 C356.81,758.69 347.75,817.39 325.83,868 C320.92,879.35 316.5102,885.5364 307.9602,893.7764 " fill="none" id="Rutina-to-EnEvaluacion" style="stroke:#181818;stroke-width:1.0;"/><polygon fill="#181818" points="303.64,897.94,312.8961,894.5748,307.2402,894.4703,307.3446,888.8144,303.64,897.94" style="stroke:#181818;stroke-width:1.0;"/><text fill="#000000" font-family="sans-serif" font-size="13" lengthAdjust="spacing" textLength="131.4028" x="350.83" y="805.5669">Completar pr&#225;cticas</text></g><!--link Rutina to EnClaseTeorica--><g id="link_Rutina_EnClaseTeorica"><path d="M223.26,704.24 C219.25,714.09 215.73,724.03 212.83,734 C208.38,749.29 208.2035,761.4668 209.4735,774.8568 " fill="none" id="Rutina-to-EnClaseTeorica" style="stroke:#181818;stroke-width:1.0;"/><polygon fill="#181818" points="210.04,780.83,213.1723,771.4925,209.5679,775.8523,205.2081,772.2479,210.04,780.83" style="stroke:#181818;stroke-width:1.0;"/><text fill="#000000" font-family="sans-serif" font-size="13" lengthAdjust="spacing" textLength="107.2056" x="213.83" y="747.0669">Refuerzo te&#243;rico</text></g><!--link EnEvaluacion to FinDelCurso--><g id="link_EnEvaluacion_FinDelCurso"><path d="M279.83,938.25 C279.83,959.48 279.83,987.44 279.83,1008.69 " fill="none" id="EnEvaluacion-to-FinDelCurso" style="stroke:#181818;stroke-width:1.0;"/><polygon fill="#181818" points="279.83,1014.69,283.83,1005.69,279.83,1009.69,275.83,1005.69,279.83,1014.69" style="stroke:#181818;stroke-width:1.0;"/><text fill="#000000" font-family="sans-serif" font-size="13" lengthAdjust="spacing" textLength="78.7998" x="280.83" y="981.0669">Es evaluado</text></g><!--link FinDelCurso to *end*--><g id="link_FinDelCurso_*end*"><path d="M279.83,1055.44 C279.83,1078.03 279.83,1108.45 279.83,1125.96 " fill="none" id="FinDelCurso-to-*end*" style="stroke:#181818;stroke-width:1.0;"/><polygon fill="#181818" points="279.83,1131.96,283.83,1122.96,279.83,1126.96,275.83,1122.96,279.83,1131.96" style="stroke:#181818;stroke-width:1.0;"/><text fill="#000000" font-family="sans-serif" font-size="13" lengthAdjust="spacing" textLength="98.6997" x="280.83" y="1098.0669">Terminar curso</text></g><!--SRC=[ZPF1JiCm38RlUGgVaVO2Eo1DfKXS49fsGnnCQY2eIoexGMA8X-41EF48Up7Yh1jjnmGzHVxz-OzZzyar1BJkuYiq99PT5rtmnjoUtS5iTWvNNeCnmBm_tZkMJ7X0SOyUOs8qXoGbQb-rABIYmCvYvXRY93e61Ak2GAJjbshoAtZ3QEC9ikFjHn75c8dFhaBzWcr2crl8U1NMNKiHEJi6tdwYcLeej4pHUNLRajNkW4l068aOQI-_6SXVBHqn-YRqqH_-EYpAUpIbqaxreN-a1l-WZzaHU6HHcXrN6oIEqvx9fZXmBUz2VeE7JilTfcadMPzFwH_mxhWYNhjnQxOVIsxktPYXtQdn3SO-Ifyisf8U4l4cx1Siw98CIYfqwVm5jLLYqPMk1QZeJJ13HJFr3vX3Vty6gy8t]--></g></svg>