<svg xmlns="http://www.w3.org/2000/svg" xmlns:xlink="http://www.w3.org/1999/xlink" contentStyleType="text/css" height="716px" preserveAspectRatio="none" style="width:893px;height:716px;background:#FFFFFF;" version="1.1" viewBox="0 0 893 716" width="893px" zoomAndPan="magnify"><defs/><g><ellipse cx="329" cy="16" fill="#222222" rx="10" ry="10" style="stroke:#222222;stroke-width:1.0;"/><rect fill="#F1F1F1" height="40" rx="12.5" ry="12.5" style="stroke:#181818;stroke-width:0.5;" width="74.5518" x="291.5" y="103"/><text fill="#000000" font-family="sans-serif" font-size="14" lengthAdjust="spacing" textLength="64.5518" x="296.5" y="127.8467">Asignado</text><rect fill="#F1F1F1" height="40" rx="12.5" ry="12.5" style="stroke:#181818;stroke-width:0.5;" width="136.3828" x="261" y="220"/><text fill="#000000" font-family="sans-serif" font-size="14" lengthAdjust="spacing" textLength="126.3828" x="266" y="244.8467">PreparandoClases</text><rect fill="#F1F1F1" height="40" rx="12.5" ry="12.5" style="stroke:#181818;stroke-width:0.5;" width="199.6973" x="7" y="337"/><text fill="#000000" font-family="sans-serif" font-size="14" lengthAdjust="spacing" textLength="189.6973" x="12" y="361.8467">ImpartiendoClasesTeoricas</text><rect fill="#F1F1F1" height="40" rx="12.5" ry="12.5" style="stroke:#181818;stroke-width:0.5;" width="204.1748" x="450" y="337"/><text fill="#000000" font-family="sans-serif" font-size="14" lengthAdjust="spacing" textLength="194.1748" x="455" y="361.8467">ImpartiendoClasesPracticas</text><rect fill="#F1F1F1" height="40" rx="12.5" ry="12.5" style="stroke:#181818;stroke-width:0.5;" width="83.377" x="287.5" y="454"/><text fill="#000000" font-family="sans-serif" font-size="14" lengthAdjust="spacing" textLength="73.377" x="292.5" y="478.8467">Evaluando</text><rect fill="#F1F1F1" height="40" rx="12.5" ry="12.5" style="stroke:#181818;stroke-width:0.5;" width="102.9277" x="277.5" y="571"/><text fill="#000000" font-family="sans-serif" font-size="14" lengthAdjust="spacing" textLength="92.9277" x="282.5" y="595.8467">FinDePeriodo</text><ellipse cx="329" cy="699" fill="none" rx="11" ry="11" style="stroke:#222222;stroke-width:1.0;"/><ellipse cx="329" cy="699" fill="#222222" rx="6" ry="6" style="stroke:#222222;stroke-width:1.0;"/><!--link *start* to Asignado--><g id="link_*start*_Asignado"><path d="M329,26.32 C329,43.38 329,73.98 329,96.64 " fill="none" id="*start*-to-Asignado" style="stroke:#181818;stroke-width:1.0;"/><polygon fill="#181818" points="329,102.64,333,93.64,329,97.64,325,93.64,329,102.64" style="stroke:#181818;stroke-width:1.0;"/><text fill="#000000" font-family="sans-serif" font-size="13" lengthAdjust="spacing" textLength="186.5068" x="330" y="69.0669">inicio del periodo acad&#233;mico</text></g><!--link Asignado to PreparandoClases--><g id="link_Asignado_PreparandoClases"><path d="M329,143.25 C329,164.48 329,192.44 329,213.69 " fill="none" id="Asignado-to-PreparandoClases" style="stroke:#181818;stroke-width:1.0;"/><polygon fill="#181818" points="329,219.69,333,210.69,329,214.69,325,210.69,329,219.69" style="stroke:#181818;stroke-width:1.0;"/><text fill="#000000" font-family="sans-serif" font-size="13" lengthAdjust="spacing" textLength="199.5767" x="330" y="186.0669">preparar materiales did&#225;cticos</text></g><!--link PreparandoClases to ImpartiendoClasesTeoricas--><g id="link_PreparandoClases_ImpartiendoClasesTeoricas"><path d="M292.09,260.12 C251.04,281.39 190.4174,312.7897 149.3274,334.0797 " fill="none" id="PreparandoClases-to-ImpartiendoClasesTeoricas" style="stroke:#181818;stroke-width:1.0;"/><polygon fill="#181818" points="144,336.84,153.8312,336.2512,148.4395,334.5398,150.1509,329.148,144,336.84" style="stroke:#181818;stroke-width:1.0;"/><text fill="#000000" font-family="sans-serif" font-size="13" lengthAdjust="spacing" textLength="139.9595" x="233" y="303.0669">iniciar clases te&#243;ricas</text></g><!--link PreparandoClases to ImpartiendoClasesPracticas--><g id="link_PreparandoClases_ImpartiendoClasesPracticas"><path d="M366.07,260.12 C407.32,281.39 468.2274,312.7998 509.5074,334.0898 " fill="none" id="PreparandoClases-to-ImpartiendoClasesPracticas" style="stroke:#181818;stroke-width:1.0;"/><polygon fill="#181818" points="514.84,336.84,508.6747,329.1596,510.3962,334.5481,505.0077,336.2697,514.84,336.84" style="stroke:#181818;stroke-width:1.0;"/><text fill="#000000" font-family="sans-serif" font-size="13" lengthAdjust="spacing" textLength="147.3735" x="454" y="303.0669">iniciar clases pr&#225;cticas</text></g><!--link ImpartiendoClasesTeoricas to ImpartiendoClasesTeoricas--><g id="link_ImpartiendoClasesTeoricas_ImpartiendoClasesTeoricas"><path d="M207.09,346.54 C227.43,347.68 242,351.17 242,357 C242,362.83 233.4206,365.9842 213.0806,367.1242 " fill="none" id="ImpartiendoClasesTeoricas-to-ImpartiendoClasesTeoricas" style="stroke:#181818;stroke-width:1.0;"/><polygon fill="#181818" points="207.09,367.46,216.2997,370.9501,212.0822,367.1802,215.8521,362.9626,207.09,367.46" style="stroke:#181818;stroke-width:1.0;"/><text fill="#000000" font-family="sans-serif" font-size="13" lengthAdjust="spacing" textLength="178.1152" x="248" y="361.5669">continuar sesiones te&#243;ricas</text></g><!--link ImpartiendoClasesTeoricas to Evaluando--><g id="link_ImpartiendoClasesTeoricas_Evaluando"><path d="M143.91,377.12 C184.96,398.39 245.5826,429.7897 286.6726,451.0797 " fill="none" id="ImpartiendoClasesTeoricas-to-Evaluando" style="stroke:#181818;stroke-width:1.0;"/><polygon fill="#181818" points="292,453.84,285.8491,446.148,287.5605,451.5398,282.1688,453.2512,292,453.84" style="stroke:#181818;stroke-width:1.0;"/><text fill="#000000" font-family="sans-serif" font-size="13" lengthAdjust="spacing" textLength="219.1211" x="233" y="420.0669">finalizar clases te&#243;ricas y calificar</text></g><!--link ImpartiendoClasesPracticas to ImpartiendoClasesPracticas--><g id="link_ImpartiendoClasesPracticas_ImpartiendoClasesPracticas"><path d="M654.17,346.57 C674.5,347.75 689,351.22 689,357 C689,362.78 680.4899,365.9023 660.1599,367.0823 " fill="none" id="ImpartiendoClasesPracticas-to-ImpartiendoClasesPracticas" style="stroke:#181818;stroke-width:1.0;"/><polygon fill="#181818" points="654.17,367.43,663.3867,370.9018,659.1616,367.1403,662.9231,362.9152,654.17,367.43" style="stroke:#181818;stroke-width:1.0;"/><text fill="#000000" font-family="sans-serif" font-size="13" lengthAdjust="spacing" textLength="185.5293" x="695" y="361.5669">continuar sesiones pr&#225;cticas</text></g><!--link ImpartiendoClasesPracticas to Evaluando--><g id="link_ImpartiendoClasesPracticas_Evaluando"><path d="M529.21,377.23 C511.47,391.51 485.78,410.74 461,424 C432.12,439.46 403.0201,450.3174 376.4001,458.9074 " fill="none" id="ImpartiendoClasesPracticas-to-Evaluando" style="stroke:#181818;stroke-width:1.0;"/><polygon fill="#181818" points="370.69,460.75,380.4835,461.7928,375.4484,459.2145,378.0267,454.1794,370.69,460.75" style="stroke:#181818;stroke-width:1.0;"/><text fill="#000000" font-family="sans-serif" font-size="13" lengthAdjust="spacing" textLength="226.5352" x="488" y="420.0669">finalizar clases pr&#225;cticas y calificar</text></g><!--link Evaluando to FinDePeriodo--><g id="link_Evaluando_FinDePeriodo"><path d="M329,494.25 C329,515.48 329,543.44 329,564.69 " fill="none" id="Evaluando-to-FinDePeriodo" style="stroke:#181818;stroke-width:1.0;"/><polygon fill="#181818" points="329,570.69,333,561.69,329,565.69,325,561.69,329,570.69" style="stroke:#181818;stroke-width:1.0;"/><text fill="#000000" font-family="sans-serif" font-size="13" lengthAdjust="spacing" textLength="158.3486" x="330" y="537.0669">consolidar calificaciones</text></g><!--link FinDePeriodo to *end*--><g id="link_FinDePeriodo_*end*"><path d="M329,611.44 C329,634.03 329,664.45 329,681.96 " fill="none" id="FinDePeriodo-to-*end*" style="stroke:#181818;stroke-width:1.0;"/><polygon fill="#181818" points="329,687.96,333,678.96,329,682.96,325,678.96,329,687.96" style="stroke:#181818;stroke-width:1.0;"/><text fill="#000000" font-family="sans-serif" font-size="13" lengthAdjust="spacing" textLength="159.4658" x="330" y="654.0669">acaba el periodo escolar</text></g><!--SRC=[ZP8zJWCn48Lxds9gf5mW1HBYHwBRWWvHJEm9ZEJrMBQ356wJafeZxCKOxuPiLYnPEkjvtkStrdjZHq1jB7jmb6tYM5Y2CSzNBx1QNSDDvjU0Jc0D7DYow9Y7I8b5HRJeki-MhHXpcgos9b74XC79hSTCMUrna1AqMDIENbN7hZlOelviVbagvx5LhJ2Tr2UIn1RpJnxbsM6yKFVLN_sJr2IiBy-XOXfIASlydM0fdvLGEEmKgxf-wYJZPUpzE_fTNK0nMmxe-MDcKTY3rQkjdjDCq771nVrdefxzmGBvOjWHCqqxcYhYWSCTDSTIzN6oU7OLSxJOFfMP35PdxUcwzd23S5PChR9uJDy0]--></g></svg>