<svg xmlns="http://www.w3.org/2000/svg" xmlns:xlink="http://www.w3.org/1999/xlink" contentStyleType="text/css" height="734px" preserveAspectRatio="none" style="width:1348px;height:734px;background:#FFFFFF;" version="1.1" viewBox="0 0 1348 734" width="1348px" zoomAndPan="magnify"><defs/><g><ellipse cx="959.96" cy="16" fill="#222222" rx="10" ry="10" style="stroke:#222222;stroke-width:1.0;"/><rect fill="#F1F1F1" height="40" rx="12.5" ry="12.5" style="stroke:#181818;stroke-width:0.5;" width="84.5049" x="917.46" y="103"/><text fill="#000000" font-family="sans-serif" font-size="14" lengthAdjust="spacing" textLength="74.5049" x="922.46" y="127.8467">SinAsignar</text><rect fill="#F1F1F1" height="40" rx="12.5" ry="12.5" style="stroke:#181818;stroke-width:0.5;" width="74.5518" x="512.46" y="220"/><text fill="#000000" font-family="sans-serif" font-size="14" lengthAdjust="spacing" textLength="64.5518" x="517.46" y="244.8467">Asignado</text><rect fill="#F1F1F1" height="40" rx="12.5" ry="12.5" style="stroke:#181818;stroke-width:0.5;" width="136.3828" x="518.96" y="337"/><text fill="#000000" font-family="sans-serif" font-size="14" lengthAdjust="spacing" textLength="126.3828" x="523.96" y="361.8467">PreparandoClases</text><rect fill="#F1F1F1" height="40" rx="12.5" ry="12.5" style="stroke:#181818;stroke-width:0.5;" width="199.6973" x="650.96" y="454"/><text fill="#000000" font-family="sans-serif" font-size="14" lengthAdjust="spacing" textLength="189.6973" x="655.96" y="478.8467">ImpartiendoClasesTeoricas</text><rect fill="#F1F1F1" height="40" rx="12.5" ry="12.5" style="stroke:#181818;stroke-width:0.5;" width="204.1748" x="137.96" y="454"/><text fill="#000000" font-family="sans-serif" font-size="14" lengthAdjust="spacing" textLength="194.1748" x="142.96" y="478.8467">ImpartiendoClasesPracticas</text><rect fill="#F1F1F1" height="40" rx="12.5" ry="12.5" style="stroke:#181818;stroke-width:0.5;" width="83.377" x="348.46" y="571"/><text fill="#000000" font-family="sans-serif" font-size="14" lengthAdjust="spacing" textLength="73.377" x="353.46" y="595.8467">Evaluando</text><rect fill="#F1F1F1" height="40" rx="12.5" ry="12.5" style="stroke:#181818;stroke-width:0.5;" width="102.9277" x="781.46" y="688"/><text fill="#000000" font-family="sans-serif" font-size="14" lengthAdjust="spacing" textLength="92.9277" x="786.46" y="712.8467">FinDePeriodo</text><ellipse cx="959.96" cy="240" fill="none" rx="11" ry="11" style="stroke:#222222;stroke-width:1.0;"/><ellipse cx="959.96" cy="240" fill="#222222" rx="6" ry="6" style="stroke:#222222;stroke-width:1.0;"/><!--link *start* to SinAsignar--><g id="link_*start*_SinAsignar"><path d="M959.96,26.32 C959.96,43.38 959.96,73.98 959.96,96.64 " fill="none" id="*start*-to-SinAsignar" style="stroke:#181818;stroke-width:1.0;"/><polygon fill="#181818" points="959.96,102.64,963.96,93.64,959.96,97.64,955.96,93.64,959.96,102.64" style="stroke:#181818;stroke-width:1.0;"/><text fill="#000000" font-family="sans-serif" font-size="13" lengthAdjust="spacing" textLength="157.314" x="960.96" y="69.0669">profesor sin asignaturas</text></g><!--link SinAsignar to Asignado--><g id="link_SinAsignar_Asignado"><path d="M917.24,135.98 C836.74,158.56 669.597,205.4396 593.267,226.8496 " fill="none" id="SinAsignar-to-Asignado" style="stroke:#181818;stroke-width:1.0;"/><polygon fill="#181818" points="587.49,228.47,597.2358,229.8907,592.3042,227.1197,595.0753,222.188,587.49,228.47" style="stroke:#181818;stroke-width:1.0;"/><text fill="#000000" font-family="sans-serif" font-size="13" lengthAdjust="spacing" textLength="128.5146" x="780.96" y="186.0669">asignar asignaturas</text></g><!--link Asignado to PreparandoClases--><g id="link_Asignado_PreparandoClases"><path d="M545.35,260.06 C542.97,273.55 541.57,291.87 546.96,307 C550.87,317.97 554.3806,323.7953 561.8606,332.0853 " fill="none" id="Asignado-to-PreparandoClases" style="stroke:#181818;stroke-width:1.0;"/><polygon fill="#181818" points="565.88,336.54,562.8207,327.1784,562.5305,332.8278,556.8811,332.5376,565.88,336.54" style="stroke:#181818;stroke-width:1.0;"/><text fill="#000000" font-family="sans-serif" font-size="13" lengthAdjust="spacing" textLength="176.9092" x="547.96" y="303.0669">crear materiales did&#225;cticos</text></g><!--link Asignado to ImpartiendoClasesTeoricas--><g id="link_Asignado_ImpartiendoClasesTeoricas"><path d="M587.66,246.33 C634.54,253.76 710.65,268.77 728.96,290 C769.4,336.89 762.3004,411.5391 755.9304,448.0791 " fill="none" id="Asignado-to-ImpartiendoClasesTeoricas" style="stroke:#181818;stroke-width:1.0;"/><polygon fill="#181818" points="754.9,453.99,760.3862,445.8107,755.7587,449.0643,752.5051,444.4368,754.9,453.99" style="stroke:#181818;stroke-width:1.0;"/><text fill="#000000" font-family="sans-serif" font-size="13" lengthAdjust="spacing" textLength="152.3184" x="760.96" y="361.5669">impartir clases te&#243;ricas</text></g><!--link Asignado to ImpartiendoClasesPracticas--><g id="link_Asignado_ImpartiendoClasesPracticas"><path d="M512.26,249.53 C466.18,261.71 388.39,288.21 339.96,337 C310.11,367.07 326.86,390.47 300.96,424 C292.16,435.39 284.9958,442.1577 273.9858,450.3877 " fill="none" id="Asignado-to-ImpartiendoClasesPracticas" style="stroke:#181818;stroke-width:1.0;"/><polygon fill="#181818" points="269.18,453.98,278.7835,451.7954,273.1848,450.9864,273.9938,445.3877,269.18,453.98" style="stroke:#181818;stroke-width:1.0;"/><text fill="#000000" font-family="sans-serif" font-size="13" lengthAdjust="spacing" textLength="159.7324" x="340.96" y="361.5669">impartir clases pr&#225;cticas</text></g><!--link Asignado to Evaluando--><g id="link_Asignado_Evaluando"><path d="M512.43,240.59 C419.21,241.88 177.51,259.87 77.96,407 C6,513.36 242.1853,565.5618 342.5053,582.6618 " fill="none" id="Asignado-to-Evaluando" style="stroke:#181818;stroke-width:1.0;"/><polygon fill="#181818" points="348.42,583.67,340.2201,578.2146,343.4911,582.8298,338.8758,586.1008,348.42,583.67" style="stroke:#181818;stroke-width:1.0;"/><text fill="#000000" font-family="sans-serif" font-size="13" lengthAdjust="spacing" textLength="213.4526" x="78.96" y="420.0669">calificar actividades y resultados</text></g><!--link PreparandoClases to ImpartiendoClasesTeoricas--><g id="link_PreparandoClases_ImpartiendoClasesTeoricas"><path d="M580.06,377.25 C576.25,391.55 574.06,410.78 583.96,424 C593.02,436.09 614.6736,444.7081 644.7836,452.5481 " fill="none" id="PreparandoClases-to-ImpartiendoClasesTeoricas" style="stroke:#181818;stroke-width:1.0;"/><polygon fill="#181818" points="650.59,454.06,642.8883,447.9213,645.7513,452.8001,640.8725,455.6631,650.59,454.06" style="stroke:#181818;stroke-width:1.0;"/><text fill="#000000" font-family="sans-serif" font-size="13" lengthAdjust="spacing" textLength="139.9595" x="584.96" y="420.0669">iniciar clases te&#243;ricas</text></g><!--link PreparandoClases to ImpartiendoClasesPracticas--><g id="link_PreparandoClases_ImpartiendoClasesPracticas"><path d="M518.82,377.07 C488.69,385.77 452.92,396.47 420.96,407 C376.17,421.76 331.4233,438.1609 295.2133,451.8309 " fill="none" id="PreparandoClases-to-ImpartiendoClasesPracticas" style="stroke:#181818;stroke-width:1.0;"/><polygon fill="#181818" points="289.6,453.95,299.4327,454.5135,294.2778,452.1841,296.6072,447.0291,289.6,453.95" style="stroke:#181818;stroke-width:1.0;"/><text fill="#000000" font-family="sans-serif" font-size="13" lengthAdjust="spacing" textLength="147.3735" x="421.96" y="420.0669">iniciar clases pr&#225;cticas</text></g><!--link ImpartiendoClasesTeoricas to ImpartiendoClasesTeoricas--><g id="link_ImpartiendoClasesTeoricas_ImpartiendoClasesTeoricas"><path d="M851.05,463.54 C871.39,464.68 885.96,468.17 885.96,474 C885.96,479.83 877.3806,482.9842 857.0406,484.1242 " fill="none" id="ImpartiendoClasesTeoricas-to-ImpartiendoClasesTeoricas" style="stroke:#181818;stroke-width:1.0;"/><polygon fill="#181818" points="851.05,484.46,860.2597,487.9501,856.0422,484.1802,859.8121,479.9626,851.05,484.46" style="stroke:#181818;stroke-width:1.0;"/><text fill="#000000" font-family="sans-serif" font-size="13" lengthAdjust="spacing" textLength="237.123" x="891.96" y="478.5669">continuar con m&#225;s sesiones te&#243;ricas</text></g><!--link ImpartiendoClasesTeoricas to Evaluando--><g id="link_ImpartiendoClasesTeoricas_Evaluando"><path d="M709.5,494.14 C677.58,508.38 632.1,527.59 590.96,541 C536.84,558.65 478.554,572.0068 437.544,580.5468 " fill="none" id="ImpartiendoClasesTeoricas-to-Evaluando" style="stroke:#181818;stroke-width:1.0;"/><polygon fill="#181818" points="431.67,581.77,441.2965,583.8512,436.565,580.7507,439.6655,576.0192,431.67,581.77" style="stroke:#181818;stroke-width:1.0;"/><text fill="#000000" font-family="sans-serif" font-size="13" lengthAdjust="spacing" textLength="250.2817" x="636.96" y="537.0669">calificar actividades en clases te&#243;ricas</text></g><!--link ImpartiendoClasesPracticas to ImpartiendoClasesPracticas--><g id="link_ImpartiendoClasesPracticas_ImpartiendoClasesPracticas"><path d="M342.13,463.57 C362.46,464.75 376.96,468.22 376.96,474 C376.96,479.78 368.4499,482.9023 348.1199,484.0823 " fill="none" id="ImpartiendoClasesPracticas-to-ImpartiendoClasesPracticas" style="stroke:#181818;stroke-width:1.0;"/><polygon fill="#181818" points="342.13,484.43,351.3467,487.9018,347.1216,484.1403,350.8831,479.9152,342.13,484.43" style="stroke:#181818;stroke-width:1.0;"/><text fill="#000000" font-family="sans-serif" font-size="13" lengthAdjust="spacing" textLength="244.5371" x="382.96" y="478.5669">continuar con m&#225;s sesiones pr&#225;cticas</text></g><!--link ImpartiendoClasesPracticas to Evaluando--><g id="link_ImpartiendoClasesPracticas_Evaluando"><path d="M265.07,494.25 C292.76,515.48 332.2882,545.7896 360.0082,567.0396 " fill="none" id="ImpartiendoClasesPracticas-to-Evaluando" style="stroke:#181818;stroke-width:1.0;"/><polygon fill="#181818" points="364.77,570.69,360.0609,562.0399,360.8018,567.648,355.1937,568.389,364.77,570.69" style="stroke:#181818;stroke-width:1.0;"/><text fill="#000000" font-family="sans-serif" font-size="13" lengthAdjust="spacing" textLength="257.6958" x="324.96" y="537.0669">calificar actividades en clases pr&#225;cticas</text></g><!--link Evaluando to FinDePeriodo--><g id="link_Evaluando_FinDePeriodo"><path d="M431.64,602.82 C512.95,623.93 686.7125,669.0322 775.4525,692.0722 " fill="none" id="Evaluando-to-FinDePeriodo" style="stroke:#181818;stroke-width:1.0;"/><polygon fill="#181818" points="781.26,693.58,773.554,687.4466,776.4205,692.3235,771.5436,695.1899,781.26,693.58" style="stroke:#181818;stroke-width:1.0;"/><text fill="#000000" font-family="sans-serif" font-size="13" lengthAdjust="spacing" textLength="156.3047" x="639.96" y="654.0669">completar la evaluaci&#243;n</text></g><!--link FinDePeriodo to SinAsignar--><g id="link_FinDePeriodo_SinAsignar"><path d="M884.66,700.35 C979.35,686.71 1170.96,651.74 1170.96,592 C1170.96,239 1170.96,239 1170.96,239 C1170.96,163.07 1070.2506,137.8222 1008.6006,129.0822 " fill="none" id="FinDePeriodo-to-SinAsignar" style="stroke:#181818;stroke-width:1.0;"/><polygon fill="#181818" points="1002.66,128.24,1011.0094,133.4637,1007.6105,128.9418,1012.1324,125.5429,1002.66,128.24" style="stroke:#181818;stroke-width:1.0;"/><text fill="#000000" font-family="sans-serif" font-size="13" lengthAdjust="spacing" textLength="168.7588" x="1171.96" y="420.0669">fin del periodo acad&#233;mico</text></g><!--link SinAsignar to *end*--><g id="link_SinAsignar_*end*"><path d="M959.96,143.25 C959.96,167.93 959.96,203.82 959.96,222.94 " fill="none" id="SinAsignar-to-*end*" style="stroke:#181818;stroke-width:1.0;"/><polygon fill="#181818" points="959.96,228.94,963.96,219.94,959.96,223.94,955.96,219.94,959.96,228.94" style="stroke:#181818;stroke-width:1.0;"/><text fill="#000000" font-family="sans-serif" font-size="13" lengthAdjust="spacing" textLength="106.3169" x="960.96" y="186.0669">salir del sistema</text></g><!--SRC=[bLExQWCn4EplAxOE-0TS148UaCwGT2758gsJ1RrOwGp-79Uf_GdtOrdT6UVETdn99rOpevb1-ycMW7mgMx2KZN0g74FJlDsyms9n2oySxZ9_11HOGfAufXm5CWV0VbnQmToCK9Kqd6rK2Xx6OtHplA_WbL12mM3ZlSDCMKb6I2aU2mcZqv5bs-rCOHFpbFpibLkOZknNYi86gmeFTm9cq2tKxVkx6OcLO7tgeaQImSUfoEC6NLipLFVeUAqG3QtG3LlKPc4BGhbrHHdQm5desJ213UE5B7zJccIQIeqYDRyxcFDdOYWSsYeR0_Xkbq41-fKcPg_hpvT8uRo0vahOsIwksHuLC_F4VuoFw_xXLPKd3W-qqYyV1w7eawEYGWw1UgJXRX-Q2UviHzUwcfOSf0C03Thko-lgd6vfNV4bPFKhFIDpBkJn6m00]--></g></svg>