<svg xmlns="http://www.w3.org/2000/svg" xmlns:xlink="http://www.w3.org/1999/xlink" contentStyleType="text/css" height="724px" preserveAspectRatio="none" style="width:723px;height:724px;background:#FFFFFF;" version="1.1" viewBox="0 0 723 724" width="723px" zoomAndPan="magnify"><defs/><g><ellipse cx="321.5" cy="16" fill="#222222" rx="10" ry="10" style="stroke:#222222;stroke-width:1.0;"/><g id="Menu_Perfil"><rect fill="#F1F1F1" height="50" rx="12.5" ry="12.5" style="stroke:#181818;stroke-width:0.5;" width="94.7031" x="274" y="105"/><line style="stroke:#181818;stroke-width:0.5;" x1="274" x2="368.7031" y1="133.6211" y2="133.6211"/><text fill="#000000" font-family="sans-serif" font-size="14" lengthAdjust="spacing" textLength="74.7031" x="284" y="125.1074">Menu_Perfil</text></g><g id="elem_rombo"><polygon fill="#F1F1F1" points="312.5,583,324.5,595,312.5,607,300.5,595,312.5,583" style="stroke:#181818;stroke-width:0.5;"/></g><g id="Menu_Retos"><rect fill="#F1F1F1" height="50" rx="12.5" ry="12.5" style="stroke:#181818;stroke-width:0.5;" width="99.3789" x="7" y="668"/><line style="stroke:#181818;stroke-width:0.5;" x1="7" x2="106.3789" y1="696.6211" y2="696.6211"/><text fill="#000000" font-family="sans-serif" font-size="14" lengthAdjust="spacing" textLength="79.3789" x="17" y="688.1074">Menu_Retos</text></g><g id="Menu_Clasificaci&#243;n"><rect fill="#F1F1F1" height="50" rx="12.5" ry="12.5" style="stroke:#181818;stroke-width:0.5;" width="141.3926" x="141" y="668"/><line style="stroke:#181818;stroke-width:0.5;" x1="141" x2="282.3926" y1="696.6211" y2="696.6211"/><text fill="#000000" font-family="sans-serif" font-size="14" lengthAdjust="spacing" textLength="121.3926" x="151" y="688.1074">Menu_Clasificaci&#243;n</text></g><g id="Menu_Rutinas_y_Ejercicios"><rect fill="#F1F1F1" height="50" rx="12.5" ry="12.5" style="stroke:#181818;stroke-width:0.5;" width="192.751" x="317" y="668"/><line style="stroke:#181818;stroke-width:0.5;" x1="317" x2="509.751" y1="696.6211" y2="696.6211"/><text fill="#000000" font-family="sans-serif" font-size="14" lengthAdjust="spacing" textLength="172.751" x="327" y="688.1074">Menu_Rutinas_y_Ejercicios</text></g><g id="Menu_Principal"><rect fill="#F1F1F1" height="50" rx="12.5" ry="12.5" style="stroke:#181818;stroke-width:0.5;" width="116.4961" x="545.5" y="668"/><line style="stroke:#181818;stroke-width:0.5;" x1="545.5" x2="661.9961" y1="696.6211" y2="696.6211"/><text fill="#000000" font-family="sans-serif" font-size="14" lengthAdjust="spacing" textLength="96.4961" x="555.5" y="688.1074">Menu_Principal</text></g><path d="M358,234 L697.1543,234 A12.5,12.5 0 0 1 709.6543,246.5 L709.6543,262.6211 L345.5,262.6211 L345.5,246.5 A12.5,12.5 0 0 1 358,234 " fill="#F1F1F1" style="stroke:#F1F1F1;stroke-width:1.0;"/><rect fill="none" height="287.6211" rx="12.5" ry="12.5" style="stroke:#181818;stroke-width:0.5;" width="364.1543" x="345.5" y="234"/><line style="stroke:#181818;stroke-width:0.5;" x1="345.5" x2="709.6543" y1="262.6211" y2="262.6211"/><text fill="#000000" font-family="sans-serif" font-size="14" lengthAdjust="spacing" textLength="84.7998" x="485.1772" y="254.1074">InscribirClase</text><g id="InscribirClase.IntroducirC&#243;digo"><rect fill="#F1F1F1" height="54.582" rx="12.5" ry="12.5" style="stroke:#181818;stroke-width:0.5;" width="308.1582" x="357.5" y="274.6211"/><line style="stroke:#181818;stroke-width:0.5;" x1="357.5" x2="665.6582" y1="303.2422" y2="303.2422"/><text fill="#000000" font-family="sans-serif" font-size="14" lengthAdjust="spacing" textLength="102.7236" x="460.2173" y="294.7285">IntroducirC&#243;digo</text><text fill="#000000" font-family="sans-serif" font-size="12" lengthAdjust="spacing" textLength="288.1582" x="362.5" y="321.1914">El sistema solicita c&#243;digo correspondiente a una clase</text></g><g id="InscribirClase.AceptarC&#243;digo"><rect fill="#F1F1F1" height="50" rx="12.5" ry="12.5" style="stroke:#181818;stroke-width:0.5;" width="112.6133" x="455" y="384.6211"/><line style="stroke:#181818;stroke-width:0.5;" x1="455" x2="567.6133" y1="413.2422" y2="413.2422"/><text fill="#000000" font-family="sans-serif" font-size="14" lengthAdjust="spacing" textLength="92.6133" x="465" y="404.7285">AceptarC&#243;digo</text></g><ellipse cx="511.5" cy="500.6211" fill="none" rx="11" ry="11" style="stroke:#222222;stroke-width:1.0;"/><ellipse cx="511.5" cy="500.6211" fill="#222222" rx="6" ry="6" style="stroke:#222222;stroke-width:1.0;"/><!--link IntroducirC?digo to AceptarC?digo--><g id="link_IntroducirC&#243;digo_AceptarC&#243;digo"><path d="M511.5,329.7411 C511.5,346.5911 511.5,362.1911 511.5,378.5311 " fill="none" id="IntroducirC&#243;digo-to-AceptarC&#243;digo" style="stroke:#181818;stroke-width:1.0;"/><polygon fill="#181818" points="511.5,384.5311,515.5,375.5311,511.5,379.5311,507.5,375.5311,511.5,384.5311" style="stroke:#181818;stroke-width:1.0;"/><text fill="#000000" font-family="sans-serif" font-size="13" lengthAdjust="spacing" textLength="150.1411" x="512.5" y="362.6494">El alumno pulsa "Aceptar"</text></g><!--link AceptarC?digo to *end*InscribirClase--><g id="link_AceptarC&#243;digo_*end*InscribirClase"><path d="M511.5,434.9411 C511.5,452.8511 511.5,470.2911 511.5,483.4811 " fill="none" id="AceptarC&#243;digo-to-*end*InscribirClase" style="stroke:#181818;stroke-width:1.0;"/><polygon fill="#181818" points="511.5,489.4811,515.5,480.4811,511.5,484.4811,507.5,480.4811,511.5,489.4811" style="stroke:#181818;stroke-width:1.0;"/><text fill="#000000" font-family="sans-serif" font-size="13" lengthAdjust="spacing" textLength="187.1543" x="512.5" y="467.6494">Finaliza inscripci&#243;n en una clase</text></g><!--link *start* to Menu_Perfil--><g id="link_*start*_Menu_Perfil"><path d="M321.5,26.17 C321.5,43.2 321.5,74.23 321.5,98.89 " fill="none" id="*start*-to-Menu_Perfil" style="stroke:#181818;stroke-width:1.0;"/><polygon fill="#181818" points="321.5,104.89,325.5,95.89,321.5,99.89,317.5,95.89,321.5,104.89" style="stroke:#181818;stroke-width:1.0;"/><text fill="#000000" font-family="sans-serif" font-size="13" lengthAdjust="spacing" textLength="101.1689" x="322.5" y="71.0283">Inicio del proceso</text></g><!--reverse link Menu_Perfil to rombo--><g id="link_Menu_Perfil_rombo"><path d="M320.9136,161.2389 C319.2636,246.2689 313.88,523.07 312.72,582.84 " fill="none" id="Menu_Perfil-backto-rombo" style="stroke:#181818;stroke-width:1.0;"/><polygon fill="#181818" points="321.03,155.24,316.8561,164.1607,320.933,160.2391,324.8546,164.3159,321.03,155.24" style="stroke:#181818;stroke-width:1.0;"/></g><!--link rombo to Menu_Retos--><g id="link_rombo_Menu_Retos"><path d="M304.27,599.09 C274.32,610.32 175.148,647.5034 111.838,671.2434 " fill="none" id="rombo-to-Menu_Retos" style="stroke:#181818;stroke-width:1.0;"/><polygon fill="#181818" points="106.22,673.35,116.0514,673.9354,110.9017,671.5945,113.2426,666.4447,106.22,673.35" style="stroke:#181818;stroke-width:1.0;"/></g><!--link rombo to Menu_Clasificaci?n--><g id="link_rombo_Menu_Clasificaci&#243;n"><path d="M306.78,601.44 C293.59,613.97 264.7387,641.3961 241.2487,663.7261 " fill="none" id="rombo-to-Menu_Clasificaci&#243;n" style="stroke:#181818;stroke-width:1.0;"/><polygon fill="#181818" points="236.9,667.86,246.1789,664.5582,240.5239,664.4151,240.667,658.76,236.9,667.86" style="stroke:#181818;stroke-width:1.0;"/></g><!--link rombo to Menu_Rutinas_y_Ejercicios--><g id="link_rombo_Menu_Rutinas_y_Ejercicios"><path d="M318.22,601.44 C331.41,613.97 360.2613,641.3961 383.7513,663.7261 " fill="none" id="rombo-to-Menu_Rutinas_y_Ejercicios" style="stroke:#181818;stroke-width:1.0;"/><polygon fill="#181818" points="388.1,667.86,384.333,658.76,384.4761,664.4151,378.8211,664.5582,388.1,667.86" style="stroke:#181818;stroke-width:1.0;"/></g><!--link rombo to Menu_Principal--><g id="link_rombo_Menu_Principal"><path d="M320.9,598.77 C353.37,609.48 466.8721,646.9303 539.6821,670.9503 " fill="none" id="rombo-to-Menu_Principal" style="stroke:#181818;stroke-width:1.0;"/><polygon fill="#181818" points="545.38,672.83,538.0863,666.2117,540.6317,671.2635,535.5799,673.809,545.38,672.83" style="stroke:#181818;stroke-width:1.0;"/></g><!--link Menu_Perfil to InscribirClase--><g id="link_Menu_Perfil_InscribirClase"><path d="M341.63,155.04 C357.83,174.38 378.1977,198.71 403.8577,229.35 " fill="none" id="Menu_Perfil-to-InscribirClase" style="stroke:#181818;stroke-width:1.0;"/><polygon fill="#181818" points="407.71,233.95,404.9982,224.4818,404.4997,230.1167,398.8649,229.6183,407.71,233.95" style="stroke:#181818;stroke-width:1.0;"/><text fill="#000000" font-family="sans-serif" font-size="13" lengthAdjust="spacing" textLength="173.2466" x="382.5" y="200.0283">Presionar "Incribirse en clase"</text></g><!--link InscribirClase to rombo--><g id="link_InscribirClase_rombo"><path d="M384.39,522.11 C354.71,551.79 333.3526,573.1474 322.4126,584.0874 " fill="none" id="InscribirClase-to-rombo" style="stroke:#181818;stroke-width:1.0;"/><polygon fill="#181818" points="318.17,588.33,327.3624,584.7945,321.7055,584.7945,321.7055,579.1376,318.17,588.33" style="stroke:#181818;stroke-width:1.0;"/></g><!--SRC=[RL7BIaD13DtFLuIx5Fe3fHH4AdGXb6v5IfgRQcHkCinZeU9NzHFwOyxqWVRMxJd9UIJP0cI3hULi0_GIcRAOElTyzmAJoHoUMCjcnN4d7gQmL24nwDb3Y4QSpAMCcI7Qi3MOpUZDX7W-ToTWKgubBl05NNEsD0OVF2RP2I79OQytAoMBOjfyR1Rl7AdbkL5OHL6IWDwvl_aRlzH4KROIcmlNIgl8gJR62DrIJrJ5MO7QGET62qtZwEREpKVybuCAvMXzeOeTzhsyMhLPU4YICWy8oNnDdH7ep9B56YAOzi9Q9H6Auid_NxMMuPuuPBmsG5y6DGZ59uJkFD5LYT5mss__dS9ZFQMNJmGvjWZ7YxVolm6-Vm00]--></g></svg>