<svg xmlns="http://www.w3.org/2000/svg" xmlns:xlink="http://www.w3.org/1999/xlink" contentStyleType="text/css" height="440px" preserveAspectRatio="none" style="width:898px;height:440px;background:#FFFFFF;" version="1.1" viewBox="0 0 898 440" width="898px" zoomAndPan="magnify"><defs/><g><g id="Menu_Rutinas_y_Ejercicios"><rect fill="#F1F1F1" height="50" rx="12.5" ry="12.5" style="stroke:#181818;stroke-width:0.5;" width="192.751" x="282.63" y="126"/><line style="stroke:#181818;stroke-width:0.5;" x1="282.63" x2="475.381" y1="154.6211" y2="154.6211"/><text fill="#000000" font-family="sans-serif" font-size="14" lengthAdjust="spacing" textLength="172.751" x="292.63" y="146.1074">Menu_Rutinas_y_Ejercicios</text></g><g id="elem_rombo2"><polygon fill="#F1F1F1" points="529.13,6,541.13,18,529.13,30,517.13,18,529.13,6" style="stroke:#181818;stroke-width:0.5;"/></g><g id="Obligatorios"><rect fill="#F1F1F1" height="50" rx="12.5" ry="12.5" style="stroke:#181818;stroke-width:0.5;" width="94.7031" x="22.63" y="255"/><line style="stroke:#181818;stroke-width:0.5;" x1="22.63" x2="117.3331" y1="283.6211" y2="283.6211"/><text fill="#000000" font-family="sans-serif" font-size="14" lengthAdjust="spacing" textLength="74.7031" x="32.63" y="275.1074">Obligatorios</text></g><g id="Opcionales"><rect fill="#F1F1F1" height="50" rx="12.5" ry="12.5" style="stroke:#181818;stroke-width:0.5;" width="90.041" x="153.13" y="255"/><line style="stroke:#181818;stroke-width:0.5;" x1="153.13" x2="243.171" y1="283.6211" y2="283.6211"/><text fill="#000000" font-family="sans-serif" font-size="14" lengthAdjust="spacing" textLength="70.041" x="163.13" y="275.1074">Opcionales</text></g><g id="MostrarReto"><rect fill="#F1F1F1" height="50" rx="12.5" ry="12.5" style="stroke:#181818;stroke-width:0.5;" width="97.0205" x="85.63" y="384"/><line style="stroke:#181818;stroke-width:0.5;" x1="85.63" x2="182.6505" y1="412.6211" y2="412.6211"/><text fill="#000000" font-family="sans-serif" font-size="14" lengthAdjust="spacing" textLength="77.0205" x="95.63" y="404.1074">MostrarReto</text></g><g id="Menu_Perfil"><rect fill="#F1F1F1" height="50" rx="12.5" ry="12.5" style="stroke:#181818;stroke-width:0.5;" width="94.7031" x="796.63" y="126"/><line style="stroke:#181818;stroke-width:0.5;" x1="796.63" x2="891.3331" y1="154.6211" y2="154.6211"/><text fill="#000000" font-family="sans-serif" font-size="14" lengthAdjust="spacing" textLength="74.7031" x="806.63" y="146.1074">Menu_Perfil</text></g><g id="Menu_Retos"><rect fill="#F1F1F1" height="50" rx="12.5" ry="12.5" style="stroke:#181818;stroke-width:0.5;" width="99.3789" x="148.63" y="126"/><line style="stroke:#181818;stroke-width:0.5;" x1="148.63" x2="248.0089" y1="154.6211" y2="154.6211"/><text fill="#000000" font-family="sans-serif" font-size="14" lengthAdjust="spacing" textLength="79.3789" x="158.63" y="146.1074">Menu_Retos</text></g><g id="Clasificaci&#243;n"><rect fill="#F1F1F1" height="50" rx="12.5" ry="12.5" style="stroke:#181818;stroke-width:0.5;" width="98.5859" x="510.63" y="126"/><line style="stroke:#181818;stroke-width:0.5;" x1="510.63" x2="609.2159" y1="154.6211" y2="154.6211"/><text fill="#000000" font-family="sans-serif" font-size="14" lengthAdjust="spacing" textLength="78.5859" x="520.63" y="146.1074">Clasificaci&#243;n</text></g><g id="Menu_Principal"><rect fill="#F1F1F1" height="50" rx="12.5" ry="12.5" style="stroke:#181818;stroke-width:0.5;" width="116.4961" x="645.13" y="126"/><line style="stroke:#181818;stroke-width:0.5;" x1="645.13" x2="761.6261" y1="154.6211" y2="154.6211"/><text fill="#000000" font-family="sans-serif" font-size="14" lengthAdjust="spacing" textLength="96.4961" x="655.13" y="146.1074">Menu_Principal</text></g><ellipse cx="24.13" cy="18" fill="#222222" rx="10" ry="10" style="stroke:#222222;stroke-width:1.0;"/><ellipse cx="289.13" cy="280" fill="none" rx="11" ry="11" style="stroke:#222222;stroke-width:1.0;"/><ellipse cx="289.13" cy="280" fill="#222222" rx="6" ry="6" style="stroke:#222222;stroke-width:1.0;"/><!--link *start* to Menu_Retos--><g id="link_*start*_Menu_Retos"><path d="M20.62,27.64 C14.98,43.05 6,75.57 21.13,96 C50.19,135.25 101.1557,146.4958 142.6357,149.5058 " fill="none" id="*start*-to-Menu_Retos" style="stroke:#181818;stroke-width:1.0;"/><polygon fill="#181818" points="148.62,149.94,139.9331,145.2991,143.6331,149.5781,139.3541,153.2781,148.62,149.94" style="stroke:#181818;stroke-width:1.0;"/><text fill="#000000" font-family="sans-serif" font-size="13" lengthAdjust="spacing" textLength="154.1846" x="22.13" y="75.0283">"El alumno solicita entrar a</text><text fill="#000000" font-family="sans-serif" font-size="13" lengthAdjust="spacing" textLength="74.7056" x="61.8695" y="92.3193">Menu Retos"</text></g><!--link Menu_Retos to Obligatorios--><g id="link_Menu_Retos_Obligatorios"><path d="M148.52,164.65 C125.97,172.85 100.87,185.88 85.13,206 C74.37,219.76 71.1749,233.3224 70.1849,248.7224 " fill="none" id="Menu_Retos-to-Obligatorios" style="stroke:#181818;stroke-width:1.0;"/><polygon fill="#181818" points="69.8,254.71,74.3691,245.9852,70.1208,249.7203,66.3856,245.4719,69.8,254.71" style="stroke:#181818;stroke-width:1.0;"/><text fill="#000000" font-family="sans-serif" font-size="13" lengthAdjust="spacing" textLength="103.3398" x="86.13" y="221.0283">El alumno escoge</text></g><!--link Menu_Retos to Opcionales--><g id="link_Menu_Retos_Opcionales"><path d="M198.13,176.19 C198.13,198.78 198.13,226.33 198.13,248.9 " fill="none" id="Menu_Retos-to-Opcionales" style="stroke:#181818;stroke-width:1.0;"/><polygon fill="#181818" points="198.13,254.9,202.13,245.9,198.13,249.9,194.13,245.9,198.13,254.9" style="stroke:#181818;stroke-width:1.0;"/></g><!--link Opcionales to MostrarReto--><g id="link_Opcionales_MostrarReto"><path d="M192.75,305.16 C188.96,319.79 183.13,338.54 175.13,354 C169.72,364.46 165.9927,370.2667 158.9427,379.2167 " fill="none" id="Opcionales-to-MostrarReto" style="stroke:#181818;stroke-width:1.0;"/><polygon fill="#181818" points="155.23,383.93,163.9413,379.3352,158.324,380.0022,157.6569,374.3848,155.23,383.93" style="stroke:#181818;stroke-width:1.0;"/></g><!--link Obligatorios to MostrarReto--><g id="link_Obligatorios_MostrarReto"><path d="M62.06,305.19 C58.55,320 56.73,338.94 64.13,354 C69.95,365.85 74.999,372.1786 85.469,380.2086 " fill="none" id="Obligatorios-to-MostrarReto" style="stroke:#181818;stroke-width:1.0;"/><polygon fill="#181818" points="90.23,383.86,85.5228,375.2088,86.2625,380.8171,80.6542,381.5568,90.23,383.86" style="stroke:#181818;stroke-width:1.0;"/><text fill="#000000" font-family="sans-serif" font-size="13" lengthAdjust="spacing" textLength="101.1563" x="65.13" y="350.0283">El alumno solicita</text></g><!--link Menu_Retos to rombo2--><g id="link_Menu_Retos_rombo2"><path d="M247.67,133.17 C270.36,124.14 296.86,111.62 318.13,96 C335.38,83.33 331.71,70.91 350.13,60 C406.91,26.37 482.9041,20.5409 512.2141,19.4609 " fill="none" id="Menu_Retos-to-rombo2" style="stroke:#181818;stroke-width:1.0;"/><polygon fill="#181818" points="518.21,19.24,509.0688,15.5741,513.2134,19.4241,509.3634,23.5687,518.21,19.24" style="stroke:#181818;stroke-width:1.0;"/><text fill="#000000" font-family="sans-serif" font-size="13" lengthAdjust="spacing" textLength="116.6128" x="351.13" y="75.0283">"El alumno solicita a</text><text fill="#000000" font-family="sans-serif" font-size="13" lengthAdjust="spacing" textLength="90.6064" x="364.1332" y="92.3193">ir a otra opci&#243;n"</text></g><!--link rombo2 to Menu_Retos--><g id="link_rombo2_Menu_Retos"><path d="M517.64,18.75 C466.22,17.86 257.73,16.99 213.13,60 C195.8,76.72 193.406,99.3205 194.616,119.7905 " fill="none" id="rombo2-to-Menu_Retos" style="stroke:#181818;stroke-width:1.0;"/><polygon fill="#181818" points="194.97,125.78,198.432,116.5597,194.675,120.7887,190.4459,117.0317,194.97,125.78" style="stroke:#181818;stroke-width:1.0;"/><text fill="#000000" font-family="sans-serif" font-size="13" lengthAdjust="spacing" textLength="95.9385" x="214.13" y="83.5283">"Volver al men&#250;"</text></g><!--link rombo2 to Menu_Perfil--><g id="link_rombo2_Menu_Perfil"><path d="M537.08,22.14 C554.28,28.95 596.19,45.6 631.13,60 C688.1,83.48 747.8118,108.8042 790.9118,127.2042 " fill="none" id="rombo2-to-Menu_Perfil" style="stroke:#181818;stroke-width:1.0;"/><polygon fill="#181818" points="796.43,129.56,789.7233,122.3475,791.8315,127.5968,786.5822,129.7051,796.43,129.56" style="stroke:#181818;stroke-width:1.0;"/></g><!--link rombo2 to Clasificaci?n--><g id="link_rombo2_Clasificaci&#243;n"><path d="M531.26,28 C535.98,47.95 546.068,90.5713 553.048,120.0613 " fill="none" id="rombo2-to-Clasificaci&#243;n" style="stroke:#181818;stroke-width:1.0;"/><polygon fill="#181818" points="554.43,125.9,556.2495,116.2207,553.2784,121.0344,548.4646,118.0633,554.43,125.9" style="stroke:#181818;stroke-width:1.0;"/></g><!--link rombo2 to Menu_Principal--><g id="link_rombo2_Menu_Principal"><path d="M535.74,23.98 C557.65,40.47 624.1264,90.5215 666.2764,122.2515 " fill="none" id="rombo2-to-Menu_Principal" style="stroke:#181818;stroke-width:1.0;"/><polygon fill="#181818" points="671.07,125.86,666.2853,117.2515,667.0754,122.8529,661.4739,123.6429,671.07,125.86" style="stroke:#181818;stroke-width:1.0;"/></g><!--link rombo2 to Menu_Rutinas_y_Ejercicios--><g id="link_rombo2_Menu_Rutinas_y_Ejercicios"><path d="M525.41,26.63 C517.85,41.52 499.42,74.82 476.13,96 C463.37,107.61 452.934,114.8207 437.924,123.0307 " fill="none" id="rombo2-to-Menu_Rutinas_y_Ejercicios" style="stroke:#181818;stroke-width:1.0;"/><polygon fill="#181818" points="432.66,125.91,442.4755,125.1005,437.0467,123.5106,438.6365,118.0818,432.66,125.91" style="stroke:#181818;stroke-width:1.0;"/></g><!--link Menu_Retos to *end*--><g id="link_Menu_Retos_*end*"><path d="M215.46,176.19 C236.09,204.97 265.956,246.6523 279.566,265.6523 " fill="none" id="Menu_Retos-to-*end*" style="stroke:#181818;stroke-width:1.0;"/><polygon fill="#181818" points="283.06,270.53,281.0708,260.8841,280.1483,266.4652,274.5672,265.5428,283.06,270.53" style="stroke:#181818;stroke-width:1.0;"/></g><!--SRC=[RL8nRiCm3Dpr2i9ZWImTYy1BaJ58aI5BMnYCmAGiPD6Gv09zLxUk-LXfruvb9vjml3loICM4YM1BlgtsRMAFiVgkDfyKB5kMQ69V3r8VvH7MQ_iXRAai1tntT7p6966YxXhLUNGq0bk9AM3OKv8HwRgzK3Ynov6ECOgU7KO-iKNBbny_qmNsbXjqnhm-lCDgLMPgU89Yum1TMtk1A4v390JotGI0RxwZGayjJ2PJbpoAsamk5AsSQS7EOqxF_scol3DJBMQrMOznKhDiCop-VYpDmveAH3r1cdvLXHaaryKCYrx2VG_rFOZx8dLnK9E__CxqYolSE5zFSMD-xoiji-dv_W00]--></g></svg>