<svg xmlns="http://www.w3.org/2000/svg" xmlns:xlink="http://www.w3.org/1999/xlink" contentStyleType="text/css" height="418px" preserveAspectRatio="none" style="width:901px;height:418px;background:#FFFFFF;" version="1.1" viewBox="0 0 901 418" width="901px" zoomAndPan="magnify"><defs/><g><g id="Menu_Clasificacion"><rect fill="#F1F1F1" height="50" rx="12.5" ry="12.5" style="stroke:#181818;stroke-width:0.5;" width="141.3926" x="394" y="122"/><line style="stroke:#181818;stroke-width:0.5;" x1="394" x2="535.3926" y1="150.6211" y2="150.6211"/><text fill="#000000" font-family="sans-serif" font-size="14" lengthAdjust="spacing" textLength="121.3926" x="404" y="142.1074">Menu_Clasificacion</text></g><g id="elem_rombo1"><polygon fill="#F1F1F1" points="276.5,264,288.5,276,276.5,288,264.5,276,276.5,264" style="stroke:#181818;stroke-width:0.5;"/></g><g id="Clasificacion"><rect fill="#F1F1F1" height="50" rx="12.5" ry="12.5" style="stroke:#181818;stroke-width:0.5;" width="98.5859" x="484" y="251"/><line style="stroke:#181818;stroke-width:0.5;" x1="484" x2="582.5859" y1="279.6211" y2="279.6211"/><text fill="#000000" font-family="sans-serif" font-size="14" lengthAdjust="spacing" textLength="78.5859" x="494" y="271.1074">Clasificacion</text></g><g id="Menu_Perfil"><rect fill="#F1F1F1" height="50" rx="12.5" ry="12.5" style="stroke:#181818;stroke-width:0.5;" width="94.7031" x="7" y="362"/><line style="stroke:#181818;stroke-width:0.5;" x1="7" x2="101.7031" y1="390.6211" y2="390.6211"/><text fill="#000000" font-family="sans-serif" font-size="14" lengthAdjust="spacing" textLength="74.7031" x="17" y="382.1074">Menu_Perfil</text></g><g id="Menu_Retos"><rect fill="#F1F1F1" height="50" rx="12.5" ry="12.5" style="stroke:#181818;stroke-width:0.5;" width="99.3789" x="137" y="362"/><line style="stroke:#181818;stroke-width:0.5;" x1="137" x2="236.3789" y1="390.6211" y2="390.6211"/><text fill="#000000" font-family="sans-serif" font-size="14" lengthAdjust="spacing" textLength="79.3789" x="147" y="382.1074">Menu_Retos</text></g><g id="Menu_Rutinas_y_Ejercicios"><rect fill="#F1F1F1" height="50" rx="12.5" ry="12.5" style="stroke:#181818;stroke-width:0.5;" width="192.751" x="271" y="362"/><line style="stroke:#181818;stroke-width:0.5;" x1="271" x2="463.751" y1="390.6211" y2="390.6211"/><text fill="#000000" font-family="sans-serif" font-size="14" lengthAdjust="spacing" textLength="172.751" x="281" y="382.1074">Menu_Rutinas_y_Ejercicios</text></g><g id="Menu_Principal"><rect fill="#F1F1F1" height="50" rx="12.5" ry="12.5" style="stroke:#181818;stroke-width:0.5;" width="116.4961" x="499.5" y="362"/><line style="stroke:#181818;stroke-width:0.5;" x1="499.5" x2="615.9961" y1="390.6211" y2="390.6211"/><text fill="#000000" font-family="sans-serif" font-size="14" lengthAdjust="spacing" textLength="96.4961" x="509.5" y="382.1074">Menu_Principal</text></g><ellipse cx="464.5" cy="16" fill="#222222" rx="10" ry="10" style="stroke:#222222;stroke-width:1.0;"/><ellipse cx="884.5" cy="276" fill="none" rx="11" ry="11" style="stroke:#222222;stroke-width:1.0;"/><ellipse cx="884.5" cy="276" fill="#222222" rx="6" ry="6" style="stroke:#222222;stroke-width:1.0;"/><!--link *start* to Menu_Clasificacion--><g id="link_*start*_Menu_Clasificacion"><path d="M464.5,26.28 C464.5,46.09 464.5,87.09 464.5,115.96 " fill="none" id="*start*-to-Menu_Clasificacion" style="stroke:#181818;stroke-width:1.0;"/><polygon fill="#181818" points="464.5,121.96,468.5,112.96,464.5,116.96,460.5,112.96,464.5,121.96" style="stroke:#181818;stroke-width:1.0;"/><text fill="#000000" font-family="sans-serif" font-size="13" lengthAdjust="spacing" textLength="155.6255" x="465.5" y="71.0283">"El Alumno solicita entrar a</text><text fill="#000000" font-family="sans-serif" font-size="13" lengthAdjust="spacing" textLength="113.7183" x="486.4536" y="88.3193">Menu Clasificacion"</text></g><!--link Menu_Clasificacion to Clasificacion--><g id="link_Menu_Clasificacion_Clasificacion"><path d="M478.03,172.15 C483.21,181.46 489.16,192.21 494.5,202 C503.37,218.28 510.3838,231.392 517.9638,245.652 " fill="none" id="Menu_Clasificacion-to-Clasificacion" style="stroke:#181818;stroke-width:1.0;"/><polygon fill="#181818" points="520.78,250.95,520.0877,241.1255,518.4332,246.535,513.0237,244.8804,520.78,250.95" style="stroke:#181818;stroke-width:1.0;"/><text fill="#000000" font-family="sans-serif" font-size="13" lengthAdjust="spacing" textLength="326.4282" x="505.5" y="217.0283">"El sistema muestra clasificacion de la clase del alumno"</text></g><!--link Menu_Clasificacion to rombo1--><g id="link_Menu_Clasificacion_rombo1"><path d="M393.8,150.03 C311.43,154.06 182.72,166.1 152.5,202 C117.43,243.66 226.1002,266.2738 260.8902,272.3738 " fill="none" id="Menu_Clasificacion-to-rombo1" style="stroke:#181818;stroke-width:1.0;"/><polygon fill="#181818" points="266.8,273.41,258.626,267.9158,261.8751,272.5465,257.2444,275.7956,266.8,273.41" style="stroke:#181818;stroke-width:1.0;"/><text fill="#000000" font-family="sans-serif" font-size="13" lengthAdjust="spacing" textLength="199.9893" x="153.5" y="217.0283">"El alumno solicita ir a otra opci&#243;n"</text></g><!--link rombo1 to Menu_Clasificacion--><g id="link_rombo1_Menu_Clasificacion"><path d="M283.24,270.54 C297.15,261.34 330.04,239.52 357.5,221 C381.55,204.78 403.5786,189.7588 424.4286,175.4888 " fill="none" id="rombo1-to-Menu_Clasificacion" style="stroke:#181818;stroke-width:1.0;"/><polygon fill="#181818" points="429.38,172.1,419.6937,173.8823,425.2539,174.924,424.2121,180.4841,429.38,172.1" style="stroke:#181818;stroke-width:1.0;"/><text fill="#000000" font-family="sans-serif" font-size="13" lengthAdjust="spacing" textLength="95.9385" x="385.5" y="217.0283">"Volver al men&#250;"</text></g><!--link rombo1 to Menu_Perfil--><g id="link_rombo1_Menu_Perfil"><path d="M269.11,280.63 C243.53,293.19 162.6756,332.8851 107.6156,359.9251 " fill="none" id="rombo1-to-Menu_Perfil" style="stroke:#181818;stroke-width:1.0;"/><polygon fill="#181818" points="102.23,362.57,112.0716,362.1931,106.718,360.3659,108.5451,355.0123,102.23,362.57" style="stroke:#181818;stroke-width:1.0;"/></g><!--link rombo1 to Menu_Retos--><g id="link_rombo1_Menu_Retos"><path d="M271.4,283.17 C259.13,298.03 231.2305,331.8336 210.2305,357.2636 " fill="none" id="rombo1-to-Menu_Retos" style="stroke:#181818;stroke-width:1.0;"/><polygon fill="#181818" points="206.41,361.89,215.225,357.4973,209.5937,358.0346,209.0564,352.4034,206.41,361.89" style="stroke:#181818;stroke-width:1.0;"/></g><!--link rombo1 to Menu_Rutinas_y_Ejercicios--><g id="link_rombo1_Menu_Rutinas_y_Ejercicios"><path d="M281.65,283.17 C294.06,298.03 322.2948,331.8541 343.5248,357.2841 " fill="none" id="rombo1-to-Menu_Rutinas_y_Ejercicios" style="stroke:#181818;stroke-width:1.0;"/><polygon fill="#181818" points="347.37,361.89,344.6728,352.4177,344.1657,358.0517,338.5316,357.5446,347.37,361.89" style="stroke:#181818;stroke-width:1.0;"/></g><!--link rombo1 to Menu_Principal--><g id="link_rombo1_Menu_Principal"><path d="M284.61,280.14 C315.65,292.19 423.166,333.8903 493.656,361.2303 " fill="none" id="rombo1-to-Menu_Principal" style="stroke:#181818;stroke-width:1.0;"/><polygon fill="#181818" points="499.25,363.4,492.3055,356.4162,494.5884,361.592,489.4126,363.8748,499.25,363.4" style="stroke:#181818;stroke-width:1.0;"/></g><!--link Menu_Clasificacion to *end*--><g id="link_Menu_Clasificacion_*end*"><path d="M535.12,150.99 C629.82,156.2 791.72,169.66 840.5,202 C863.56,217.29 874.5488,243.486 879.7988,259.576 " fill="none" id="Menu_Clasificacion-to-*end*" style="stroke:#181818;stroke-width:1.0;"/><polygon fill="#181818" points="881.66,265.28,882.6709,255.4832,880.109,260.5266,875.0656,257.9647,881.66,265.28" style="stroke:#181818;stroke-width:1.0;"/></g><!--SRC=[TP6zQWCn48HxFSNYCk0YRJ07nhWCc1Hk4dEibJNPiD8QIMV8SwLBwnUpxWUJkvCxCJlwTZIA2HF1A_cctWX6Fh55o-fDx0P1tL6VORMoNygMgchGIzuEigDmOlcll57IE1AQn1vZ_LDllobOpeZHV1VOMpwZ6FF-T83biYhaWnTOR0NMqZYl45Ko9Y6GJm43u8TlhunZBemfS5fyYHmv9d88hg6OcM17day2wJNAPm7iSkGD3tSCJVPmdCJc71cqNQDdozVVd7Nmtry_53kL-tPdQgdY6V7UytGowsElSg6SKS2Hl_uzRZ9_s0q0]--></g></svg>