<svg xmlns="http://www.w3.org/2000/svg" xmlns:xlink="http://www.w3.org/1999/xlink" contentStyleType="text/css" height="453px" preserveAspectRatio="none" style="width:960px;height:453px;background:#FFFFFF;" version="1.1" viewBox="0 0 960 453" width="960px" zoomAndPan="magnify"><defs/><g><g id="Menu_Rutinas_y_Ejercicios"><rect fill="#F1F1F1" height="50" rx="12.5" ry="12.5" style="stroke:#181818;stroke-width:0.5;" width="192.751" x="7" y="397"/><line style="stroke:#181818;stroke-width:0.5;" x1="7" x2="199.751" y1="425.6211" y2="425.6211"/><text fill="#000000" font-family="sans-serif" font-size="14" lengthAdjust="spacing" textLength="172.751" x="17" y="417.1074">Menu_Rutinas_y_Ejercicios</text></g><g id="elem_rombo2"><polygon fill="#F1F1F1" points="461.5,264,473.5,276,461.5,288,449.5,276,461.5,264" style="stroke:#181818;stroke-width:0.5;"/></g><g id="SubirEvidencia"><rect fill="#F1F1F1" height="50" rx="12.5" ry="12.5" style="stroke:#181818;stroke-width:0.5;" width="113.3857" x="785" y="397"/><line style="stroke:#181818;stroke-width:0.5;" x1="785" x2="898.3857" y1="425.6211" y2="425.6211"/><text fill="#000000" font-family="sans-serif" font-size="14" lengthAdjust="spacing" textLength="93.3857" x="795" y="417.1074">SubirEvidencia</text></g><g id="MostrarReto"><rect fill="#F1F1F1" height="50" rx="12.5" ry="12.5" style="stroke:#181818;stroke-width:0.5;" width="97.0205" x="634" y="122"/><line style="stroke:#181818;stroke-width:0.5;" x1="634" x2="731.0205" y1="150.6211" y2="150.6211"/><text fill="#000000" font-family="sans-serif" font-size="14" lengthAdjust="spacing" textLength="77.0205" x="644" y="142.1074">MostrarReto</text></g><g id="Menu_Perfil"><rect fill="#F1F1F1" height="50" rx="12.5" ry="12.5" style="stroke:#181818;stroke-width:0.5;" width="94.7031" x="235" y="397"/><line style="stroke:#181818;stroke-width:0.5;" x1="235" x2="329.7031" y1="425.6211" y2="425.6211"/><text fill="#000000" font-family="sans-serif" font-size="14" lengthAdjust="spacing" textLength="74.7031" x="245" y="417.1074">Menu_Perfil</text></g><g id="Menu_Retos"><rect fill="#F1F1F1" height="50" rx="12.5" ry="12.5" style="stroke:#181818;stroke-width:0.5;" width="99.3789" x="365" y="397"/><line style="stroke:#181818;stroke-width:0.5;" x1="365" x2="464.3789" y1="425.6211" y2="425.6211"/><text fill="#000000" font-family="sans-serif" font-size="14" lengthAdjust="spacing" textLength="79.3789" x="375" y="417.1074">Menu_Retos</text></g><g id="Clasificaci&#243;n"><rect fill="#F1F1F1" height="50" rx="12.5" ry="12.5" style="stroke:#181818;stroke-width:0.5;" width="98.5859" x="499" y="397"/><line style="stroke:#181818;stroke-width:0.5;" x1="499" x2="597.5859" y1="425.6211" y2="425.6211"/><text fill="#000000" font-family="sans-serif" font-size="14" lengthAdjust="spacing" textLength="78.5859" x="509" y="417.1074">Clasificaci&#243;n</text></g><g id="Menu_Principal"><rect fill="#F1F1F1" height="50" rx="12.5" ry="12.5" style="stroke:#181818;stroke-width:0.5;" width="116.4961" x="633.5" y="397"/><line style="stroke:#181818;stroke-width:0.5;" x1="633.5" x2="749.9961" y1="425.6211" y2="425.6211"/><text fill="#000000" font-family="sans-serif" font-size="14" lengthAdjust="spacing" textLength="96.4961" x="643.5" y="417.1074">Menu_Principal</text></g><g id="Estado1"><rect fill="#F1F1F1" height="50" rx="12.5" ry="12.5" style="stroke:#181818;stroke-width:0.5;" width="50" x="747.5" y="251"/><line style="stroke:#181818;stroke-width:0.5;" x1="747.5" x2="797.5" y1="279.6211" y2="279.6211"/><text fill="#000000" font-family="sans-serif" font-size="14" lengthAdjust="spacing" textLength="3.8896" x="770.5552" y="271.1074">&#160;</text></g><ellipse cx="682.5" cy="16" fill="#222222" rx="10" ry="10" style="stroke:#222222;stroke-width:1.0;"/><ellipse cx="933.5" cy="276" fill="none" rx="11" ry="11" style="stroke:#222222;stroke-width:1.0;"/><ellipse cx="933.5" cy="276" fill="#222222" rx="6" ry="6" style="stroke:#222222;stroke-width:1.0;"/><!--link *start* to MostrarReto--><g id="link_*start*_MostrarReto"><path d="M682.5,26.28 C682.5,46.09 682.5,87.09 682.5,115.96 " fill="none" id="*start*-to-MostrarReto" style="stroke:#181818;stroke-width:1.0;"/><polygon fill="#181818" points="682.5,121.96,686.5,112.96,682.5,116.96,678.5,112.96,682.5,121.96" style="stroke:#181818;stroke-width:1.0;"/><text fill="#000000" font-family="sans-serif" font-size="13" lengthAdjust="spacing" textLength="154.1846" x="683.5" y="71.0283">"El alumno solicita entrar a</text><text fill="#000000" font-family="sans-serif" font-size="13" lengthAdjust="spacing" textLength="66.7583" x="727.2131" y="88.3193">ver un reto"</text></g><!--link MostrarReto to Estado1--><g id="link_MostrarReto_Estado1"><path d="M675.26,172.24 C672.22,187.25 671.08,206.38 679.5,221 C693.94,246.08 719.3074,258.6643 741.5574,266.2043 " fill="none" id="MostrarReto-to-Estado1" style="stroke:#181818;stroke-width:1.0;"/><polygon fill="#181818" points="747.24,268.13,739.9999,261.4531,742.5045,266.5253,737.4323,269.0298,747.24,268.13" style="stroke:#181818;stroke-width:1.0;"/><text fill="#000000" font-family="sans-serif" font-size="13" lengthAdjust="spacing" textLength="226.8716" x="680.5" y="217.0283">El sistema muestra descripcion del reto</text></g><!--link Estado1 to SubirEvidencia--><g id="link_Estado1_SubirEvidencia"><path d="M784.05,301.1 C796.79,327.68 814.5674,364.7991 827.3174,391.4091 " fill="none" id="Estado1-to-SubirEvidencia" style="stroke:#181818;stroke-width:1.0;"/><polygon fill="#181818" points="829.91,396.82,829.6284,386.9752,827.7495,392.3109,822.4138,390.432,829.91,396.82" style="stroke:#181818;stroke-width:1.0;"/><text fill="#000000" font-family="sans-serif" font-size="13" lengthAdjust="spacing" textLength="132.209" x="816.5" y="346.0283">El sitema permite subir</text><text fill="#000000" font-family="sans-serif" font-size="13" lengthAdjust="spacing" textLength="114.9053" x="826.9578" y="363.3193">evidencia al alumno</text></g><!--link MostrarReto to rombo2--><g id="link_MostrarReto_rombo2"><path d="M640.67,172.04 C586.11,203.39 499.7527,253.0213 473.7627,267.9513 " fill="none" id="MostrarReto-to-rombo2" style="stroke:#181818;stroke-width:1.0;"/><polygon fill="#181818" points="468.56,270.94,478.3565,269.9254,472.8956,268.4494,474.3715,262.9885,468.56,270.94" style="stroke:#181818;stroke-width:1.0;"/></g><!--link rombo2 to Menu_Perfil--><g id="link_rombo2_Menu_Perfil"><path d="M455.13,282.13 C432.58,300.26 360.2945,358.4085 317.1345,393.1385 " fill="none" id="rombo2-to-Menu_Perfil" style="stroke:#181818;stroke-width:1.0;"/><polygon fill="#181818" points="312.46,396.9,321.9794,394.3741,316.3554,393.7654,316.9641,388.1414,312.46,396.9" style="stroke:#181818;stroke-width:1.0;"/></g><!--link rombo2 to Menu_Retos--><g id="link_rombo2_Menu_Retos"><path d="M458.7,285.58 C451.67,307.13 434.9008,358.4758 424.2108,391.2458 " fill="none" id="rombo2-to-Menu_Retos" style="stroke:#181818;stroke-width:1.0;"/><polygon fill="#181818" points="422.35,396.95,428.9439,389.6343,423.9006,392.1965,421.3384,387.1532,422.35,396.95" style="stroke:#181818;stroke-width:1.0;"/></g><!--link rombo2 to Clasificaci?n--><g id="link_rombo2_Clasificaci&#243;n"><path d="M465.7,283.95 C477.85,304.06 510.3876,357.9144 530.7276,391.5844 " fill="none" id="rombo2-to-Clasificaci&#243;n" style="stroke:#181818;stroke-width:1.0;"/><polygon fill="#181818" points="533.83,396.72,532.6001,386.9482,531.2446,392.4403,525.7526,391.0848,533.83,396.72" style="stroke:#181818;stroke-width:1.0;"/></g><!--link rombo2 to Menu_Principal--><g id="link_rombo2_Menu_Principal"><path d="M468.38,281.31 C495.52,298.3 591.2448,358.2255 647.6148,393.5255 " fill="none" id="rombo2-to-Menu_Principal" style="stroke:#181818;stroke-width:1.0;"/><polygon fill="#181818" points="652.7,396.71,647.1952,388.5432,648.4623,394.0563,642.9492,395.3235,652.7,396.71" style="stroke:#181818;stroke-width:1.0;"/></g><!--link rombo2 to Menu_Rutinas_y_Ejercicios--><g id="link_rombo2_Menu_Rutinas_y_Ejercicios"><path d="M453.35,280.28 C415.26,295.6 258.4165,358.6908 168.8965,394.7008 " fill="none" id="rombo2-to-Menu_Rutinas_y_Ejercicios" style="stroke:#181818;stroke-width:1.0;"/><polygon fill="#181818" points="163.33,396.94,173.1726,397.2923,167.9688,395.074,170.187,389.8702,163.33,396.94" style="stroke:#181818;stroke-width:1.0;"/></g><!--link MostrarReto to *end*--><g id="link_MostrarReto_*end*"><path d="M731.25,153.75 C790.51,161.69 885.8,177.83 911.5,202 C929.24,218.69 932.6006,243.1048 933.2306,258.8848 " fill="none" id="MostrarReto-to-*end*" style="stroke:#181818;stroke-width:1.0;"/><polygon fill="#181818" points="933.47,264.88,937.1078,255.7276,933.2705,259.884,929.1142,256.0467,933.47,264.88" style="stroke:#181818;stroke-width:1.0;"/></g><!--SRC=[RP91QiCm44NtEiNWPI6BTbc2DyNBG4cNJJ4JUKAdo9BHI86UgqVenIevLb3YuetyzV_JwDiIC13ioCP-7mDRbFwxxxx8QzRiHCcyxzruT4-mtUfFnvhQLYqRR_78lZlpG5OpBkBEIV3eznHSKJB_bVo9JQraHpdYnQ3mYJLg_lsnDpdF2JvXYJRfGO4klGtkKQdtXm_ORDhwM7Y6fZE09exMWJYJBXCGo6O3uC6UoKEqu9EtKQfEPjA2JfG44PP08y8OARjW8D6UfzIEJMipCrH9vFHj9mKoCoRoOrg1P0iSB5rTMAPTJtCfNotVOBvfLUUzVEcqKk-ANM6kxQv8__qFg-bI-ty0]--></g></svg>