<svg xmlns="http://www.w3.org/2000/svg" xmlns:xlink="http://www.w3.org/1999/xlink" contentStyleType="text/css" height="776px" preserveAspectRatio="none" style="width:571px;height:776px;background:#FFFFFF;" version="1.1" viewBox="0 0 571 776" width="571px" zoomAndPan="magnify"><defs/><g><ellipse cx="309.5" cy="16" fill="#222222" rx="10" ry="10" style="stroke:#222222;stroke-width:1.0;"/><g id="Menu_Rutinas_y_Ejercicios"><rect fill="#F1F1F1" height="50" rx="12.5" ry="12.5" style="stroke:#181818;stroke-width:0.5;" width="192.751" x="213" y="105"/><line style="stroke:#181818;stroke-width:0.5;" x1="213" x2="405.751" y1="133.6211" y2="133.6211"/><text fill="#000000" font-family="sans-serif" font-size="14" lengthAdjust="spacing" textLength="172.751" x="223" y="125.1074">Menu_Rutinas_y_Ejercicios</text></g><g id="elem_rombo"><polygon fill="#F1F1F1" points="296.5,635,308.5,647,296.5,659,284.5,647,296.5,635" style="stroke:#181818;stroke-width:0.5;"/></g><g id="Menu_Perfil"><rect fill="#F1F1F1" height="50" rx="12.5" ry="12.5" style="stroke:#181818;stroke-width:0.5;" width="94.7031" x="50" y="720"/><line style="stroke:#181818;stroke-width:0.5;" x1="50" x2="144.7031" y1="748.6211" y2="748.6211"/><text fill="#000000" font-family="sans-serif" font-size="14" lengthAdjust="spacing" textLength="74.7031" x="60" y="740.1074">Menu_Perfil</text></g><g id="Menu_Retos"><rect fill="#F1F1F1" height="50" rx="12.5" ry="12.5" style="stroke:#181818;stroke-width:0.5;" width="99.3789" x="180" y="720"/><line style="stroke:#181818;stroke-width:0.5;" x1="180" x2="279.3789" y1="748.6211" y2="748.6211"/><text fill="#000000" font-family="sans-serif" font-size="14" lengthAdjust="spacing" textLength="79.3789" x="190" y="740.1074">Menu_Retos</text></g><g id="Clasificaci&#243;n"><rect fill="#F1F1F1" height="50" rx="12.5" ry="12.5" style="stroke:#181818;stroke-width:0.5;" width="98.5859" x="314" y="720"/><line style="stroke:#181818;stroke-width:0.5;" x1="314" x2="412.5859" y1="748.6211" y2="748.6211"/><text fill="#000000" font-family="sans-serif" font-size="14" lengthAdjust="spacing" textLength="78.5859" x="324" y="740.1074">Clasificaci&#243;n</text></g><g id="Menu_Principal"><rect fill="#F1F1F1" height="50" rx="12.5" ry="12.5" style="stroke:#181818;stroke-width:0.5;" width="116.4961" x="448.5" y="720"/><line style="stroke:#181818;stroke-width:0.5;" x1="448.5" x2="564.9961" y1="748.6211" y2="748.6211"/><text fill="#000000" font-family="sans-serif" font-size="14" lengthAdjust="spacing" textLength="96.4961" x="458.5" y="740.1074">Menu_Principal</text></g><g id="ListaEjercicios"><rect fill="#F1F1F1" height="50" rx="12.5" ry="12.5" style="stroke:#181818;stroke-width:0.5;" width="109.4756" x="146" y="234"/><line style="stroke:#181818;stroke-width:0.5;" x1="146" x2="255.4756" y1="262.6211" y2="262.6211"/><text fill="#000000" font-family="sans-serif" font-size="14" lengthAdjust="spacing" textLength="89.4756" x="156" y="254.1074">ListaEjercicios</text></g><path d="M19.5,363 L345.1099,363 A12.5,12.5 0 0 1 357.6099,375.5 L357.6099,391.6211 L7,391.6211 L7,375.5 A12.5,12.5 0 0 1 19.5,363 " fill="#F1F1F1" style="stroke:#F1F1F1;stroke-width:1.0;"/><rect fill="none" height="210.6211" rx="12.5" ry="12.5" style="stroke:#181818;stroke-width:0.5;" width="350.6099" x="7" y="363"/><line style="stroke:#181818;stroke-width:0.5;" x1="7" x2="357.6099" y1="391.6211" y2="391.6211"/><text fill="#000000" font-family="sans-serif" font-size="14" lengthAdjust="spacing" textLength="100.3516" x="132.1292" y="383.1074">MostrarEjercicio</text><g id="MostrarEjercicio.VerDetalles"><rect fill="#F1F1F1" height="54.582" rx="12.5" ry="12.5" style="stroke:#181818;stroke-width:0.5;" width="252.0957" x="28.5" y="403.6211"/><line style="stroke:#181818;stroke-width:0.5;" x1="28.5" x2="280.5957" y1="432.2422" y2="432.2422"/><text fill="#000000" font-family="sans-serif" font-size="14" lengthAdjust="spacing" textLength="72.3652" x="118.3652" y="423.7285">VerDetalles</text><text fill="#000000" font-family="sans-serif" font-size="12" lengthAdjust="spacing" textLength="232.0957" x="33.5" y="450.1914">El sistema muestra los detalles del ejercicio</text></g><g id="MostrarEjercicio.EditarEjercicio"><rect fill="#F1F1F1" height="50" rx="12.5" ry="12.5" style="stroke:#181818;stroke-width:0.5;" width="109.4756" x="19" y="513.6211"/><line style="stroke:#181818;stroke-width:0.5;" x1="19" x2="128.4756" y1="542.2422" y2="542.2422"/><text fill="#000000" font-family="sans-serif" font-size="14" lengthAdjust="spacing" textLength="89.4756" x="29" y="533.7285">EditarEjercicio</text></g><ellipse cx="236.5" cy="538.6211" fill="none" rx="11" ry="11" style="stroke:#222222;stroke-width:1.0;"/><ellipse cx="236.5" cy="538.6211" fill="#222222" rx="6" ry="6" style="stroke:#222222;stroke-width:1.0;"/><!--link VerDetalles to EditarEjercicio--><g id="link_VerDetalles_EditarEjercicio"><path d="M90.77,458.6511 C84.35,463.7211 78.67,469.6711 74.5,476.6211 C67.97,487.5211 66.7475,495.6404 67.9275,507.5304 " fill="none" id="VerDetalles-to-EditarEjercicio" style="stroke:#181818;stroke-width:1.0;"/><polygon fill="#181818" points="68.52,513.5011,71.6116,504.1501,68.0262,508.5255,63.6507,504.9401,68.52,513.5011" style="stroke:#181818;stroke-width:1.0;"/><text fill="#000000" font-family="sans-serif" font-size="13" lengthAdjust="spacing" textLength="138.582" x="75.5" y="491.6494">Presionar bot&#243;n "Editar"</text></g><!--link VerDetalles to *end*MostrarEjercicio--><g id="link_VerDetalles_*end*MostrarEjercicio"><path d="M197.07,458.6811 C203.52,464.0411 209.62,470.0611 214.5,476.6211 C226.19,492.3411 230.9486,508.9926 233.5686,521.8126 " fill="none" id="VerDetalles-to-*end*MostrarEjercicio" style="stroke:#181818;stroke-width:1.0;"/><polygon fill="#181818" points="234.77,527.6911,236.8869,518.0724,233.7689,522.7923,229.0489,519.6743,234.77,527.6911" style="stroke:#181818;stroke-width:1.0;"/><text fill="#000000" font-family="sans-serif" font-size="13" lengthAdjust="spacing" textLength="122.1099" x="225.5" y="491.6494">Finaliza visualizaci&#243;n</text></g><!--link *start* to Menu_Rutinas_y_Ejercicios--><g id="link_*start*_Menu_Rutinas_y_Ejercicios"><path d="M309.5,26.17 C309.5,43.2 309.5,74.23 309.5,98.89 " fill="none" id="*start*-to-Menu_Rutinas_y_Ejercicios" style="stroke:#181818;stroke-width:1.0;"/><polygon fill="#181818" points="309.5,104.89,313.5,95.89,309.5,99.89,305.5,95.89,309.5,104.89" style="stroke:#181818;stroke-width:1.0;"/><text fill="#000000" font-family="sans-serif" font-size="13" lengthAdjust="spacing" textLength="101.1689" x="310.5" y="71.0283">Inicio del proceso</text></g><!--link rombo to Menu_Perfil--><g id="link_rombo_Menu_Perfil"><path d="M288.94,651.65 C265.73,662.85 199.4839,694.8028 150.7339,718.3228 " fill="none" id="rombo-to-Menu_Perfil" style="stroke:#181818;stroke-width:1.0;"/><polygon fill="#181818" points="145.33,720.93,155.174,720.6218,149.8333,718.7573,151.6978,713.4166,145.33,720.93" style="stroke:#181818;stroke-width:1.0;"/></g><!--link rombo to Menu_Retos--><g id="link_rombo_Menu_Retos"><path d="M291.89,654.6 C282.67,667.82 264.9544,693.2001 249.8344,714.8601 " fill="none" id="rombo-to-Menu_Retos" style="stroke:#181818;stroke-width:1.0;"/><polygon fill="#181818" points="246.4,719.78,254.8315,714.6898,249.262,715.6801,248.2716,710.1106,246.4,719.78" style="stroke:#181818;stroke-width:1.0;"/></g><!--link rombo to Clasificaci?n--><g id="link_rombo_Clasificaci&#243;n"><path d="M301.11,654.6 C310.33,667.82 328.0456,693.2001 343.1656,714.8601 " fill="none" id="rombo-to-Clasificaci&#243;n" style="stroke:#181818;stroke-width:1.0;"/><polygon fill="#181818" points="346.6,719.78,344.7284,710.1106,343.738,715.6801,338.1685,714.6898,346.6,719.78" style="stroke:#181818;stroke-width:1.0;"/></g><!--link rombo to Menu_Rutinas_y_Ejercicios--><g id="link_rombo_Menu_Rutinas_y_Ejercicios"><path d="M303.89,641.98 C320.29,632.6 359.53,607.5 375.5,574 C421.67,477.15 386.39,440.25 389.5,333 C391.41,267.25 420.37,243.08 389.5,185 C383.05,172.87 377.4599,166.39 366.1299,158.53 " fill="none" id="rombo-to-Menu_Rutinas_y_Ejercicios" style="stroke:#181818;stroke-width:1.0;"/><polygon fill="#181818" points="361.2,155.11,366.3148,163.5266,365.3082,157.96,370.8748,156.9534,361.2,155.11" style="stroke:#181818;stroke-width:1.0;"/></g><!--link rombo to Menu_Principal--><g id="link_rombo_Menu_Principal"><path d="M304.22,651.53 C328.12,662.46 396.9131,693.9055 448.4731,717.4755 " fill="none" id="rombo-to-Menu_Principal" style="stroke:#181818;stroke-width:1.0;"/><polygon fill="#181818" points="453.93,719.97,447.4077,712.5903,449.3826,717.8912,444.0817,719.8661,453.93,719.97" style="stroke:#181818;stroke-width:1.0;"/></g><!--link Menu_Rutinas_y_Ejercicios to ListaEjercicios--><g id="link_Menu_Rutinas_y_Ejercicios_ListaEjercicios"><path d="M257.91,155.22 C245.22,163.2 232.66,173.14 223.5,185 C212.62,199.09 207.9937,212.5459 204.9537,227.7859 " fill="none" id="Menu_Rutinas_y_Ejercicios-to-ListaEjercicios" style="stroke:#181818;stroke-width:1.0;"/><polygon fill="#181818" points="203.78,233.67,209.4633,225.6264,204.7581,228.7666,201.6179,224.0614,203.78,233.67" style="stroke:#181818;stroke-width:1.0;"/><text fill="#000000" font-family="sans-serif" font-size="13" lengthAdjust="spacing" textLength="160.2466" x="224.5" y="200.0283">Presionar bot&#243;n "Ejercicios"</text></g><!--link ListaEjercicios to MostrarEjercicio--><g id="link_ListaEjercicios_MostrarEjercicio"><path d="M194.19,284.03 C192,293.33 189.78,304.09 188.5,314 C186.46,329.74 185.4081,340.4607 184.4281,356.8507 " fill="none" id="ListaEjercicios-to-MostrarEjercicio" style="stroke:#181818;stroke-width:1.0;"/><polygon fill="#181818" points="184.07,362.84,188.6,354.0948,184.3684,357.8489,180.6143,353.6173,184.07,362.84" style="stroke:#181818;stroke-width:1.0;"/><text fill="#000000" font-family="sans-serif" font-size="13" lengthAdjust="spacing" textLength="195.8252" x="189.5" y="329.0283">Seleccionar un ejercicio de la lista</text></g><!--link MostrarEjercicio to rombo--><g id="link_MostrarEjercicio_rombo"><path d="M250.13,574.21 C267.97,601.82 281.103,622.171 288.743,633.991 " fill="none" id="MostrarEjercicio-to-rombo" style="stroke:#181818;stroke-width:1.0;"/><polygon fill="#181818" points="292,639.03,290.4738,629.3001,289.2858,634.8308,283.7551,633.6428,292,639.03" style="stroke:#181818;stroke-width:1.0;"/></g><!--SRC=[TLBDIiD04BxlKmmv5le2fUIY4GI5qeAN8c6wcUB8PBViJq75f_8HV35t4uqsYRTbvfllPsRtYqTOBaku9nFhRGniqDSlTVLCJhDcws45joQ_e261axEQl5K-O21mjZrOMA_rasLDPQdwmi2t8NTa6LUt5Ap_KxmIz7naZPe_Fym4FUDfekFOQ3wXAFL_Zeo-usJy8jl6aMThqC71XYGFnM-xK6DyfsXzSEY6QYBPaP3MFKqqG4Eh8H04oIngCfV9kY3Vsvm0tXJ00xbh2YX2sMqbu1CPjGXjf0m7IRQQ7qG-qQ0-civoLSFXqlfC_WvJp4plqrzPmKrQhV0hmfbzx5xztTw_0000]--></g></svg>