<svg xmlns="http://www.w3.org/2000/svg" xmlns:xlink="http://www.w3.org/1999/xlink" contentStyleType="text/css" height="717px" preserveAspectRatio="none" style="width:385px;height:717px;background:#FFFFFF;" version="1.1" viewBox="0 0 385 717" width="385px" zoomAndPan="magnify"><defs/><g><rect fill="#F1F1F1" height="40" rx="12.5" ry="12.5" style="stroke:#181818;stroke-width:0.5;" width="182.751" x="98" y="7"/><text fill="#000000" font-family="sans-serif" font-size="14" lengthAdjust="spacing" textLength="172.751" x="103" y="32.7969">Menu_Rutinas_y_Ejercicios</text><rect fill="#F1F1F1" height="40" rx="12.5" ry="12.5" style="stroke:#181818;stroke-width:0.5;" width="116.6133" x="131" y="671"/><text fill="#000000" font-family="sans-serif" font-size="14" lengthAdjust="spacing" textLength="106.6133" x="136" y="696.7969">MostrandoRutina</text><path d="M19.5,107 L359.5,107 A12.5,12.5 0 0 1 372,119.5 L372,135.6211 L7,135.6211 L7,119.5 A12.5,12.5 0 0 1 19.5,107 " fill="#F1F1F1" style="stroke:#F1F1F1;stroke-width:1.0;"/><rect fill="none" height="503.6211" rx="12.5" ry="12.5" style="stroke:#181818;stroke-width:0.5;" width="365" x="7" y="107"/><line style="stroke:#181818;stroke-width:0.5;" x1="7" x2="372" y1="135.6211" y2="135.6211"/><text fill="#000000" font-family="sans-serif" font-size="14" lengthAdjust="spacing" textLength="87.917" x="145.5415" y="127.1074">MostrarRutina</text><rect fill="#F1F1F1" height="40" rx="12.5" ry="12.5" style="stroke:#181818;stroke-width:0.5;" width="97.1445" x="32.5" y="239.6211"/><text fill="#000000" font-family="sans-serif" font-size="14" lengthAdjust="spacing" textLength="87.1445" x="37.5" y="265.418">Mostar Rutina</text><ellipse cx="81" cy="156.6211" fill="#222222" rx="10" ry="10" style="stroke:#222222;stroke-width:1.0;"/><rect fill="#F1F1F1" height="40" rx="12.5" ry="12.5" style="stroke:#181818;stroke-width:0.5;" width="69.9033" x="46" y="352.6211"/><text fill="#000000" font-family="sans-serif" font-size="14" lengthAdjust="spacing" textLength="59.9033" x="51" y="378.418">Ejercicios</text><rect fill="#F1F1F1" height="40" rx="12.5" ry="12.5" style="stroke:#181818;stroke-width:0.5;" width="123.6064" x="19" y="465.6211"/><text fill="#000000" font-family="sans-serif" font-size="14" lengthAdjust="spacing" textLength="113.6064" x="24" y="491.418">SeleccionEjercicio</text><ellipse cx="81" cy="589.6211" fill="none" rx="11" ry="11" style="stroke:#222222;stroke-width:1.0;"/><ellipse cx="81" cy="589.6211" fill="#222222" rx="6" ry="6" style="stroke:#222222;stroke-width:1.0;"/><!--link *start*MostrarRutina to VerRutina--><g id="link_*start*MostrarRutina_VerRutina"><path d="M81,166.9411 C81,183.3511 81,211.7011 81,233.3811 " fill="none" id="*start*MostrarRutina-to-VerRutina" style="stroke:#181818;stroke-width:1.0;"/><polygon fill="#181818" points="81,239.3811,85,230.3811,81,234.3811,77,230.3811,81,239.3811" style="stroke:#181818;stroke-width:1.0;"/><path d="M86,189.6211 L86,216.6211 L305,216.6211 L305,199.6211 L295,189.6211 L86,189.6211 " fill="#FEFFDD" style="stroke:#181818;stroke-width:0.5;"/><path d="M295,189.6211 L295,199.6211 L305,199.6211 L295,189.6211 " fill="#FEFFDD" style="stroke:#181818;stroke-width:0.5;"/><text fill="#000000" font-family="sans-serif" font-size="13" lengthAdjust="spacing" textLength="198.0024" x="92" y="208.6494">El alumno introduce ver una rutina</text></g><!--link VerRutina to Ejercicios--><g id="link_VerRutina_Ejercicios"><path d="M81,279.7011 C81,300.0311 81,326.0411 81,346.4211 " fill="none" id="VerRutina-to-Ejercicios" style="stroke:#181818;stroke-width:1.0;"/><polygon fill="#181818" points="81,352.4211,85,343.4211,81,347.4211,77,343.4211,81,352.4211" style="stroke:#181818;stroke-width:1.0;"/><path d="M86,302.6211 L86,329.6211 L363,329.6211 L363,312.6211 L353,302.6211 L86,302.6211 " fill="#FEFFDD" style="stroke:#181818;stroke-width:0.5;"/><path d="M353,302.6211 L353,312.6211 L363,312.6211 L353,302.6211 " fill="#FEFFDD" style="stroke:#181818;stroke-width:0.5;"/><text fill="#000000" font-family="sans-serif" font-size="13" lengthAdjust="spacing" textLength="256.4897" x="92" y="321.6494">El sistema muestra los ejercicios de la rutina</text></g><!--link Ejercicios to SeleccionEjercicio--><g id="link_Ejercicios_SeleccionEjercicio"><path d="M81,392.7011 C81,413.0311 81,439.0411 81,459.4211 " fill="none" id="Ejercicios-to-SeleccionEjercicio" style="stroke:#181818;stroke-width:1.0;"/><polygon fill="#181818" points="81,465.4211,85,456.4211,81,460.4211,77,456.4211,81,465.4211" style="stroke:#181818;stroke-width:1.0;"/><path d="M86,415.6211 L86,442.6211 L299,442.6211 L299,425.6211 L289,415.6211 L86,415.6211 " fill="#FEFFDD" style="stroke:#181818;stroke-width:0.5;"/><path d="M289,415.6211 L289,425.6211 L299,425.6211 L289,415.6211 " fill="#FEFFDD" style="stroke:#181818;stroke-width:0.5;"/><text fill="#000000" font-family="sans-serif" font-size="13" lengthAdjust="spacing" textLength="192.2134" x="92" y="434.6494">El alumno selecciona un ejercicio</text></g><!--link SeleccionEjercicio to *end*MostrarRutina--><g id="link_SeleccionEjercicio_*end*MostrarRutina"><path d="M81,505.8111 C81,527.3911 81,555.6311 81,572.5211 " fill="none" id="SeleccionEjercicio-to-*end*MostrarRutina" style="stroke:#181818;stroke-width:1.0;"/><polygon fill="#181818" points="81,578.5211,85,569.5211,81,573.5211,77,569.5211,81,578.5211" style="stroke:#181818;stroke-width:1.0;"/><path d="M86,528.6211 L86,555.6211 L358,555.6211 L358,538.6211 L348,528.6211 L86,528.6211 " fill="#FEFFDD" style="stroke:#181818;stroke-width:0.5;"/><path d="M348,528.6211 L348,538.6211 L358,538.6211 L348,528.6211 " fill="#FEFFDD" style="stroke:#181818;stroke-width:0.5;"/><text fill="#000000" font-family="sans-serif" font-size="13" lengthAdjust="spacing" textLength="251.437" x="92" y="547.6494">El sistema muestra los detalles del ejercicio</text></g><!--link Menu_Rutinas_y_Ejercicios to MostrarRutina--><g id="link_Menu_Rutinas_y_Ejercicios_MostrarRutina"><path d="M189.5,47.17 C189.5,61.34 189.5,76.38 189.5,100.97 " fill="none" id="Menu_Rutinas_y_Ejercicios-to-MostrarRutina" style="stroke:#181818;stroke-width:1.0;"/><polygon fill="#181818" points="189.5,106.97,193.5,97.97,189.5,101.97,185.5,97.97,189.5,106.97" style="stroke:#181818;stroke-width:1.0;"/></g><!--link MostrarRutina to MostrandoRutina--><g id="link_MostrarRutina_MostrandoRutina"><path d="M189.5,611.38 C189.5,635.84 189.5,650.78 189.5,664.88 " fill="none" id="MostrarRutina-to-MostrandoRutina" style="stroke:#181818;stroke-width:1.0;"/><polygon fill="#181818" points="189.5,670.88,193.5,661.88,189.5,665.88,185.5,661.88,189.5,670.88" style="stroke:#181818;stroke-width:1.0;"/></g><!--SRC=[bL91QiCm4Bph5KEEXNoXjnnxQQ6NKeoG5g96NWMjL0YbVy_QnbPCdK1lsjdP6MPNn-09r9_B1Px4vN0k8R4nKcmXl13NxhMMm5QwItVueko22qdcVfAIBViqSSmApXE87mDC-3lDc1Ni1fRDc92TaZwUFh7VFpUQOfnqBZ5Yu9EMm272njfpGk2Iaw-Ey4qPLLNpF4NinqbzDiz1-YR1jhO4ATHRz9M638X9GCkGxWXnswSfZqPl5CbfnGl-E8pCVAj9ckFQuw_ewALx-qSQJyN6ICCZRXlz6dFtyAFXwhvcVUtMNxx55G00]--></g></svg>