<svg xmlns="http://www.w3.org/2000/svg" xmlns:xlink="http://www.w3.org/1999/xlink" contentStyleType="text/css" height="400px" preserveAspectRatio="none" style="width:851px;height:400px;background:#FFFFFF;" version="1.1" viewBox="0 0 851 400" width="851px" zoomAndPan="magnify"><title>Consultar Profesor</title><defs/><g><text fill="#000000" font-family="sans-serif" font-size="14" font-weight="bold" lengthAdjust="spacing" textLength="148.1006" x="350.3901" y="32.9951">Consultar Profesor</text><ellipse cx="406.1196" cy="57.2969" fill="#222222" rx="10" ry="10" style="stroke:#222222;stroke-width:1;"/><rect fill="#F1F1F1" height="33.9688" rx="12.5" ry="12.5" style="stroke:#181818;stroke-width:0.5;" width="345.6582" x="233.2905" y="87.2969"/><text fill="#000000" font-family="sans-serif" font-size="12" lengthAdjust="spacing" textLength="325.6582" x="243.2905" y="108.4355">El usuario solicita visualizar los profesores disponibles</text><rect fill="#F1F1F1" height="33.9688" rx="12.5" ry="12.5" style="stroke:#181818;stroke-width:0.5;" width="334.25" x="238.9946" y="141.2656"/><text fill="#000000" font-family="sans-serif" font-size="12" lengthAdjust="spacing" textLength="314.25" x="248.9946" y="162.4043">El sistema presenta la lista de profesores existentes</text><polygon fill="#F1F1F1" points="337.2998,195.2344,474.9395,195.2344,486.9395,207.2344,474.9395,219.2344,337.2998,219.2344,325.2998,207.2344,337.2998,195.2344" style="stroke:#181818;stroke-width:0.5;"/><text fill="#000000" font-family="sans-serif" font-size="11" lengthAdjust="spacing" textLength="137.6396" x="337.2998" y="211.0425">&#191;Selecciona un profesor?</text><text fill="#000000" font-family="sans-serif" font-size="11" lengthAdjust="spacing" textLength="10.0386" x="315.2612" y="204.6401">S&#237;</text><text fill="#000000" font-family="sans-serif" font-size="11" lengthAdjust="spacing" textLength="14.9585" x="486.9395" y="204.6401">No</text><rect fill="#F1F1F1" height="33.9688" rx="12.5" ry="12.5" style="stroke:#181818;stroke-width:0.5;" width="282.8984" x="52.2002" y="229.2344"/><text fill="#000000" font-family="sans-serif" font-size="12" lengthAdjust="spacing" textLength="262.8984" x="62.2002" y="250.373">El usuario selecciona un profesor espec&#237;fico</text><rect fill="#F1F1F1" height="33.9688" rx="12.5" ry="12.5" style="stroke:#181818;stroke-width:0.5;" width="365.2988" x="11" y="283.2031"/><text fill="#000000" font-family="sans-serif" font-size="12" lengthAdjust="spacing" textLength="345.2988" x="21" y="304.3418">El sistema muestra los detalles del profesor seleccionado</text><rect fill="#F1F1F1" height="33.9688" rx="12.5" ry="12.5" style="stroke:#181818;stroke-width:0.5;" width="444.582" x="396.2988" y="229.2344"/><text fill="#000000" font-family="sans-serif" font-size="12" lengthAdjust="spacing" textLength="424.582" x="406.2988" y="250.373">El sistema presenta un mensaje: "Operaci&#243;n cancelada por el usuario"</text><polygon fill="#F1F1F1" points="406.1196,323.1719,418.1196,335.1719,406.1196,347.1719,394.1196,335.1719,406.1196,323.1719" style="stroke:#181818;stroke-width:0.5;"/><ellipse cx="406.1196" cy="378.1719" fill="none" rx="11" ry="11" style="stroke:#222222;stroke-width:1;"/><ellipse cx="406.1196" cy="378.1719" fill="#222222" rx="6" ry="6" style="stroke:#222222;stroke-width:1;"/><line style="stroke:#181818;stroke-width:1;" x1="406.1196" x2="406.1196" y1="67.2969" y2="87.2969"/><polygon fill="#181818" points="402.1196,77.2969,406.1196,87.2969,410.1196,77.2969,406.1196,81.2969" style="stroke:#181818;stroke-width:1;"/><line style="stroke:#181818;stroke-width:1;" x1="406.1196" x2="406.1196" y1="121.2656" y2="141.2656"/><polygon fill="#181818" points="402.1196,131.2656,406.1196,141.2656,410.1196,131.2656,406.1196,135.2656" style="stroke:#181818;stroke-width:1;"/><line style="stroke:#181818;stroke-width:1;" x1="193.6494" x2="193.6494" y1="263.2031" y2="283.2031"/><polygon fill="#181818" points="189.6494,273.2031,193.6494,283.2031,197.6494,273.2031,193.6494,277.2031" style="stroke:#181818;stroke-width:1;"/><line style="stroke:#181818;stroke-width:1;" x1="325.2998" x2="193.6494" y1="207.2344" y2="207.2344"/><line style="stroke:#181818;stroke-width:1;" x1="193.6494" x2="193.6494" y1="207.2344" y2="229.2344"/><polygon fill="#181818" points="189.6494,219.2344,193.6494,229.2344,197.6494,219.2344,193.6494,223.2344" style="stroke:#181818;stroke-width:1;"/><line style="stroke:#181818;stroke-width:1;" x1="486.9395" x2="618.5898" y1="207.2344" y2="207.2344"/><line style="stroke:#181818;stroke-width:1;" x1="618.5898" x2="618.5898" y1="207.2344" y2="229.2344"/><polygon fill="#181818" points="614.5898,219.2344,618.5898,229.2344,622.5898,219.2344,618.5898,223.2344" style="stroke:#181818;stroke-width:1;"/><line style="stroke:#181818;stroke-width:1;" x1="193.6494" x2="193.6494" y1="317.1719" y2="335.1719"/><line style="stroke:#181818;stroke-width:1;" x1="193.6494" x2="394.1196" y1="335.1719" y2="335.1719"/><polygon fill="#181818" points="384.1196,331.1719,394.1196,335.1719,384.1196,339.1719,388.1196,335.1719" style="stroke:#181818;stroke-width:1;"/><line style="stroke:#181818;stroke-width:1;" x1="618.5898" x2="618.5898" y1="263.2031" y2="335.1719"/><line style="stroke:#181818;stroke-width:1;" x1="618.5898" x2="418.1196" y1="335.1719" y2="335.1719"/><polygon fill="#181818" points="428.1196,331.1719,418.1196,335.1719,428.1196,339.1719,424.1196,335.1719" style="stroke:#181818;stroke-width:1;"/><line style="stroke:#181818;stroke-width:1;" x1="406.1196" x2="406.1196" y1="175.2344" y2="195.2344"/><polygon fill="#181818" points="402.1196,185.2344,406.1196,195.2344,410.1196,185.2344,406.1196,189.2344" style="stroke:#181818;stroke-width:1;"/><line style="stroke:#181818;stroke-width:1;" x1="406.1196" x2="406.1196" y1="347.1719" y2="367.1719"/><polygon fill="#181818" points="402.1196,357.1719,406.1196,367.1719,410.1196,357.1719,406.1196,361.1719" style="stroke:#181818;stroke-width:1;"/><!--SRC=[RP11JiD034NtFONLLNA5ic21s09IJs1cVeIHuud6amfnfwuu01Av64w5MYfLycQiz-plQT8Kz53CPsrSwQMM0LxgPkFnR9lTezBiCrSfv4KbIMCwI7HKFeFNuZJzEN3AubCnULNutSbryOQHWu73mjMew35b_1VniOBMLay6wdw-zr2a9CMOPZkZzpsrDnXr- -NONwUxoHDyGbgEWwHodMYSuQtowOACngfhVkX5lKpCuK8Tr3sL_lPTiNE4ERzZHzld2PMJB5z6YIr1EGUwfZddtSP4opB4FvVf5m00]--></g></svg>