<svg xmlns="http://www.w3.org/2000/svg" xmlns:xlink="http://www.w3.org/1999/xlink" contentStyleType="text/css" data-diagram-type="STATE" height="1156px" preserveAspectRatio="none" style="width:579px;height:1156px;background:#FFFFFF;" version="1.1" viewBox="0 0 579 1156" width="579px" zoomAndPan="magnify"><defs/><g><path d="M19.5,86 L553.5982,86 A12.5,12.5 0 0 1 566.0982,98.5 L566.0982,112.2969 L7,112.2969 L7,98.5 A12.5,12.5 0 0 1 19.5,86 " fill="#F1F1F1" style="stroke:#F1F1F1;stroke-width:1;"/><rect fill="#FFFFFF" fill-opacity="0.00000" height="982.2969" rx="12.5" ry="12.5" style="stroke:#181818;stroke-width:0.5;" width="559.0982" x="7" y="86"/><line style="stroke:#181818;stroke-width:0.5;" x1="7" x2="566.0982" y1="112.2969" y2="112.2969"/><text fill="#000000" font-family="sans-serif" font-size="14" lengthAdjust="spacing" textLength="108.6709" x="232.2137" y="103.9951">DatosLaborales</text><g id="DatosLaborales.Estado1"><rect fill="#F1F1F1" height="50" rx="12.5" ry="12.5" style="stroke:#181818;stroke-width:0.5;" width="278.2139" x="203.52" y="180.2969"/><line style="stroke:#181818;stroke-width:0.5;" x1="203.52" x2="481.7339" y1="206.5938" y2="206.5938"/><text fill="#000000" font-family="sans-serif" font-size="14" lengthAdjust="spacing" textLength="258.2139" x="213.52" y="198.292">El Usuario solicita acceder al m&#243;dulo</text></g><g id="DatosLaborales.Estado2"><rect fill="#F1F1F1" height="50" rx="12.5" ry="12.5" style="stroke:#181818;stroke-width:0.5;" width="213.2041" x="236.02" y="267.2969"/><line style="stroke:#181818;stroke-width:0.5;" x1="236.02" x2="449.2241" y1="293.5938" y2="293.5938"/><text fill="#000000" font-family="sans-serif" font-size="14" lengthAdjust="spacing" textLength="193.2041" x="246.02" y="285.292">El Sistema permite acceder</text></g><g id="elem_choice1"><polygon fill="#F1F1F1" points="342.63,354.2969,354.63,366.2969,342.63,378.2969,330.63,366.2969,342.63,354.2969" style="stroke:#181818;stroke-width:0.5;"/></g><g id="DatosLaborales.Estado3"><rect fill="#F1F1F1" height="50" rx="12.5" ry="12.5" style="stroke:#181818;stroke-width:0.5;" width="270.585" x="125.33" y="431.2969"/><line style="stroke:#181818;stroke-width:0.5;" x1="125.33" x2="395.915" y1="457.5938" y2="457.5938"/><text fill="#000000" font-family="sans-serif" font-size="14" lengthAdjust="spacing" textLength="250.585" x="135.33" y="449.292">El Sistema presenta opci&#243;n heredar</text></g><g id="DatosLaborales.Estado4"><rect fill="#F1F1F1" height="50" rx="12.5" ry="12.5" style="stroke:#181818;stroke-width:0.5;" width="266.9482" x="290.15" y="611.2969"/><line style="stroke:#181818;stroke-width:0.5;" x1="290.15" x2="557.0982" y1="637.5938" y2="637.5938"/><text fill="#000000" font-family="sans-serif" font-size="14" lengthAdjust="spacing" textLength="246.9482" x="300.15" y="629.292">El Sistema inicia entrada en blanco</text></g><g id="elem_choice2"><polygon fill="#F1F1F1" points="260.63,534.2969,272.63,546.2969,260.63,558.2969,248.63,546.2969,260.63,534.2969" style="stroke:#181818;stroke-width:0.5;"/></g><g id="DatosLaborales.Estado5"><rect fill="#F1F1F1" height="50" rx="12.5" ry="12.5" style="stroke:#181818;stroke-width:0.5;" width="236.5283" x="35.36" y="611.2969"/><line style="stroke:#181818;stroke-width:0.5;" x1="35.36" x2="271.8883" y1="637.5938" y2="637.5938"/><text fill="#000000" font-family="sans-serif" font-size="14" lengthAdjust="spacing" textLength="216.5283" x="45.36" y="629.292">El Sistema carga datos previos</text></g><g id="DatosLaborales.Estado6"><rect fill="#F1F1F1" height="50" rx="12.5" ry="12.5" style="stroke:#181818;stroke-width:0.5;" width="233.3359" x="170.96" y="698.2969"/><line style="stroke:#181818;stroke-width:0.5;" x1="170.96" x2="404.2959" y1="724.5938" y2="724.5938"/><text fill="#000000" font-family="sans-serif" font-size="14" lengthAdjust="spacing" textLength="213.3359" x="180.96" y="716.292">El Usuario solicita tipo de dato</text></g><g id="elem_choice3"><polygon fill="#F1F1F1" points="287.63,785.2969,299.63,797.2969,287.63,809.2969,275.63,797.2969,287.63,785.2969" style="stroke:#181818;stroke-width:0.5;"/></g><g id="DatosLaborales.Estado7"><rect fill="#F1F1F1" height="50" rx="12.5" ry="12.5" style="stroke:#181818;stroke-width:0.5;" width="275.2539" x="19" y="862.2969"/><line style="stroke:#181818;stroke-width:0.5;" x1="19" x2="294.2539" y1="888.5938" y2="888.5938"/><text fill="#000000" font-family="sans-serif" font-size="14" lengthAdjust="spacing" textLength="255.2539" x="29" y="880.292">El Usuario introduce datos categor&#237;a</text></g><g id="DatosLaborales.Estado8"><rect fill="#F1F1F1" height="50" rx="12.5" ry="12.5" style="stroke:#181818;stroke-width:0.5;" width="213.0811" x="312.09" y="862.2969"/><line style="stroke:#181818;stroke-width:0.5;" x1="312.09" x2="525.1711" y1="888.5938" y2="888.5938"/><text fill="#000000" font-family="sans-serif" font-size="14" lengthAdjust="spacing" textLength="193.0811" x="322.09" y="880.292">El Sistema ignora categor&#237;a</text></g><g id="DatosLaborales.Estado9"><rect fill="#F1F1F1" height="50" rx="12.5" ry="12.5" style="stroke:#181818;stroke-width:0.5;" width="190.8506" x="191.2" y="949.2969"/><line style="stroke:#181818;stroke-width:0.5;" x1="191.2" x2="382.0506" y1="975.5938" y2="975.5938"/><text fill="#000000" font-family="sans-serif" font-size="14" lengthAdjust="spacing" textLength="170.8506" x="201.2" y="967.292">El Sistema guarda datos</text></g><ellipse cx="342.63" cy="133.2969" fill="#222222" rx="10" ry="10" style="stroke:#222222;stroke-width:1;"/><ellipse cx="286.63" cy="1047.2969" fill="#FFFFFF" fill-opacity="0.00000" rx="11" ry="11" style="stroke:#222222;stroke-width:1;"/><ellipse cx="286.63" cy="1047.2969" fill="#222222" rx="6" ry="6" style="stroke:#222222;stroke-width:1;"/><!--link *start*DatosLaborales to Estado1--><g id="link_*start*DatosLaborales_Estado1"><path d="M342.63,143.7369 C342.63,152.9969 342.63,161.4869 342.63,173.9769 " fill="#FFFFFF" fill-opacity="0.00000" id="*start*DatosLaborales-to-Estado1" style="stroke:#181818;stroke-width:1;"/><polygon fill="#181818" points="342.63,179.9769,346.63,170.9769,342.63,174.9769,338.63,170.9769,342.63,179.9769" style="stroke:#181818;stroke-width:1;"/></g><!--link Estado1 to Estado2--><g id="link_Estado1_Estado2"><path d="M342.63,230.4269 C342.63,241.8169 342.63,249.3769 342.63,260.8069 " fill="#FFFFFF" fill-opacity="0.00000" id="Estado1-to-Estado2" style="stroke:#181818;stroke-width:1;"/><polygon fill="#181818" points="342.63,266.8069,346.63,257.8069,342.63,261.8069,338.63,257.8069,342.63,266.8069" style="stroke:#181818;stroke-width:1;"/></g><!--link Estado2 to choice1--><g id="link_Estado2_choice1"><path d="M342.63,317.6769 C342.63,329.9169 342.63,338.1569 342.63,347.8569 " fill="#FFFFFF" fill-opacity="0.00000" id="Estado2-to-choice1" style="stroke:#181818;stroke-width:1;"/><polygon fill="#181818" points="342.63,353.8569,346.63,344.8569,342.63,348.8569,338.63,344.8569,342.63,353.8569" style="stroke:#181818;stroke-width:1;"/></g><!--link choice1 to Estado3--><g id="link_choice1_Estado3"><path d="M336.99,373.3469 C326.06,385.0769 305.5507,407.0875 287.2007,426.7775 " fill="#FFFFFF" fill-opacity="0.00000" id="choice1-to-Estado3" style="stroke:#181818;stroke-width:1;"/><polygon fill="#181818" points="283.11,431.1669,292.1722,427.3099,286.5189,427.5091,286.3197,421.8557,283.11,431.1669" style="stroke:#181818;stroke-width:1;"/><text fill="#000000" font-family="sans-serif" font-size="13" lengthAdjust="spacing" textLength="89.5591" x="315.63" y="409.3638">Datos previos</text></g><!--link choice1 to Estado4--><g id="link_choice1_Estado4"><path d="M353.12,368.4669 C368.43,370.7869 396.48,377.4969 409.63,396.2969 C455.61,462.0269 441.5273,558.631 431.1573,605.081 " fill="#FFFFFF" fill-opacity="0.00000" id="choice1-to-Estado4" style="stroke:#181818;stroke-width:1;"/><polygon fill="#181818" points="429.85,610.9369,435.7149,603.0247,430.9394,606.057,427.9071,601.2816,429.85,610.9369" style="stroke:#181818;stroke-width:1;"/><text fill="#000000" font-family="sans-serif" font-size="13" lengthAdjust="spacing" textLength="60.2773" x="442.63" y="512.3638">Sin datos</text></g><!--link Estado3 to choice2--><g id="link_Estado3_choice2"><path d="M260.63,481.3469 C260.63,498.4469 260.63,514.6369 260.63,527.8869 " fill="#FFFFFF" fill-opacity="0.00000" id="Estado3-to-choice2" style="stroke:#181818;stroke-width:1;"/><polygon fill="#181818" points="260.63,533.8869,264.63,524.8869,260.63,528.8869,256.63,524.8869,260.63,533.8869" style="stroke:#181818;stroke-width:1;"/></g><!--link choice2 to Estado5--><g id="link_choice2_Estado5"><path d="M254.25,552.5369 C240.58,563.7869 212.3051,587.0469 187.8151,607.1769 " fill="#FFFFFF" fill-opacity="0.00000" id="choice2-to-Estado5" style="stroke:#181818;stroke-width:1;"/><polygon fill="#181818" points="183.18,610.9869,192.6726,608.3621,187.0426,607.8119,187.5927,602.1819,183.18,610.9869" style="stroke:#181818;stroke-width:1;"/><text fill="#000000" font-family="sans-serif" font-size="13" lengthAdjust="spacing" textLength="52.6792" x="224.63" y="589.3638">Heredar</text></g><!--link choice2 to Estado4--><g id="link_choice2_Estado4"><path d="M267.51,551.8569 C280.55,560.4169 309.86,579.2969 335.63,593.2969 C346.63,599.2769 353.2282,602.6952 364.7282,608.2552 " fill="#FFFFFF" fill-opacity="0.00000" id="choice2-to-Estado4" style="stroke:#181818;stroke-width:1;"/><polygon fill="#181818" points="370.13,610.8669,363.7684,603.3482,365.6285,608.6905,360.2862,610.5506,370.13,610.8669" style="stroke:#181818;stroke-width:1;"/><text fill="#000000" font-family="sans-serif" font-size="13" lengthAdjust="spacing" textLength="72.9536" x="336.63" y="589.3638">No heredar</text></g><!--link Estado5 to Estado6--><g id="link_Estado5_Estado6"><path d="M192.03,661.6569 C209.97,673.0369 226.2134,683.3429 244.1534,694.7229 " fill="#FFFFFF" fill-opacity="0.00000" id="Estado5-to-Estado6" style="stroke:#181818;stroke-width:1;"/><polygon fill="#181818" points="249.22,697.9369,243.7627,689.7382,244.9978,695.2586,239.4775,696.4937,249.22,697.9369" style="stroke:#181818;stroke-width:1;"/></g><!--link Estado4 to Estado6--><g id="link_Estado4_Estado6"><path d="M384.65,661.6569 C366.44,673.0369 349.9089,683.3784 331.6889,694.7584 " fill="#FFFFFF" fill-opacity="0.00000" id="Estado4-to-Estado6" style="stroke:#181818;stroke-width:1;"/><polygon fill="#181818" points="326.6,697.9369,336.3524,696.5618,330.8408,695.2881,332.1144,689.7765,326.6,697.9369" style="stroke:#181818;stroke-width:1;"/></g><!--link Estado6 to choice3--><g id="link_Estado6_choice3"><path d="M287.63,748.6769 C287.63,760.9069 287.63,769.1569 287.63,778.8569 " fill="#FFFFFF" fill-opacity="0.00000" id="Estado6-to-choice3" style="stroke:#181818;stroke-width:1;"/><polygon fill="#181818" points="287.63,784.8569,291.63,775.8569,287.63,779.8569,283.63,775.8569,287.63,784.8569" style="stroke:#181818;stroke-width:1;"/></g><!--link choice3 to Estado7--><g id="link_choice3_Estado7"><path d="M279.71,802.0469 C268.98,807.2369 249.36,817.1369 233.63,827.2969 C217.36,837.8069 204.8728,847.0509 190.8628,858.1509 " fill="#FFFFFF" fill-opacity="0.00000" id="choice3-to-Estado7" style="stroke:#181818;stroke-width:1;"/><polygon fill="#181818" points="186.16,861.8769,195.6983,859.4231,190.079,858.7719,190.7303,853.1526,186.16,861.8769" style="stroke:#181818;stroke-width:1;"/><text fill="#000000" font-family="sans-serif" font-size="13" lengthAdjust="spacing" textLength="135.3955" x="234.63" y="840.3638">Selecciona categor&#237;a</text></g><!--link choice3 to Estado8--><g id="link_choice3_Estado8"><path d="M297.64,799.9569 C314.1,803.0669 347.39,810.9869 370.63,827.2969 C383.7,836.4769 391.6678,845.2636 400.0978,857.1436 " fill="#FFFFFF" fill-opacity="0.00000" id="choice3-to-Estado8" style="stroke:#181818;stroke-width:1;"/><polygon fill="#181818" points="403.57,862.0369,401.6238,852.3822,400.6765,857.9592,395.0995,857.0118,403.57,862.0369" style="stroke:#181818;stroke-width:1;"/><text fill="#000000" font-family="sans-serif" font-size="13" lengthAdjust="spacing" textLength="90.2573" x="390.63" y="840.3638">No selecciona</text></g><!--link Estado7 to Estado9--><g id="link_Estado7_Estado9"><path d="M193.88,912.6569 C211.29,924.0369 226.9377,934.2741 244.3477,945.6541 " fill="#FFFFFF" fill-opacity="0.00000" id="Estado7-to-Estado9" style="stroke:#181818;stroke-width:1;"/><polygon fill="#181818" points="249.37,948.9369,244.0251,940.6645,245.1848,946.2012,239.6481,947.3609,249.37,948.9369" style="stroke:#181818;stroke-width:1;"/></g><!--link Estado8 to Estado9--><g id="link_Estado8_Estado9"><path d="M380.8,912.6569 C363.13,924.0369 347.1744,934.3081 329.5044,945.6881 " fill="#FFFFFF" fill-opacity="0.00000" id="Estado8-to-Estado9" style="stroke:#181818;stroke-width:1;"/><polygon fill="#181818" points="324.46,948.9369,334.1924,947.4267,328.6636,946.2296,329.8607,940.7009,324.46,948.9369" style="stroke:#181818;stroke-width:1;"/></g><!--link Estado9 to *end*DatosLaborales--><g id="link_Estado9_*end*DatosLaborales"><path d="M286.63,999.7269 C286.63,1012.0869 286.63,1020.4269 286.63,1029.8969 " fill="#FFFFFF" fill-opacity="0.00000" id="Estado9-to-*end*DatosLaborales" style="stroke:#181818;stroke-width:1;"/><polygon fill="#181818" points="286.63,1035.8969,290.63,1026.8969,286.63,1030.8969,282.63,1026.8969,286.63,1035.8969" style="stroke:#181818;stroke-width:1;"/></g><ellipse cx="286.55" cy="16" fill="#222222" rx="10" ry="10" style="stroke:#222222;stroke-width:1;"/><ellipse cx="286.55" cy="1139.3" fill="#FFFFFF" fill-opacity="0.00000" rx="11" ry="11" style="stroke:#222222;stroke-width:1;"/><ellipse cx="286.55" cy="1139.3" fill="#222222" rx="6" ry="6" style="stroke:#222222;stroke-width:1;"/><!--link *start* to DatosLaborales--><g id="link_*start*_DatosLaborales"><path d="M286.55,26.24 C286.55,37.46 286.55,52.31 286.55,79.55 " fill="#FFFFFF" fill-opacity="0.00000" id="*start*-to-DatosLaborales" style="stroke:#181818;stroke-width:1;"/><polygon fill="#181818" points="286.55,85.55,290.55,76.55,286.55,80.55,282.55,76.55,286.55,85.55" style="stroke:#181818;stroke-width:1;"/></g><!--link DatosLaborales to *end*--><g id="link_DatosLaborales_*end*"><path d="M286.55,1068.77 C286.55,1095.58 286.55,1110.3 286.55,1121.9 " fill="#FFFFFF" fill-opacity="0.00000" id="DatosLaborales-to-*end*" style="stroke:#181818;stroke-width:1;"/><polygon fill="#181818" points="286.55,1127.9,290.55,1118.9,286.55,1122.9,282.55,1118.9,286.55,1127.9" style="stroke:#181818;stroke-width:1;"/></g><!--SRC=[bLIxRiCm3Dpp5KJ60XbYvuqWKmDqABeKdO8EZ4Gu0Xmha9mkHJ-fKpuXFrRv4OTmBC7LOaCyadT7GhkdJnYDDl2CkRQlkDS6KxA30RXZSyof5O7lCbISNPswTJYfnyrzyrFb3xSfVDWp6gN1wbG9bIEW42J90APml5xaETL3GFjGwbxXNTcSZWWdCaVbxke2B2jw952NOomZ7qjnq4hG6DRhwc-pQLM9oYerBAIrOMh8KkQqwfDGrqi61p8aaLEE0-agSquXk0e6PV65VOgPu3vD7cdSPDmLnwjgWWMVBwLj03fPkUuPo08UzYdo-nGpdw8-FWaq2LPDRnoPngbFOyI8JrVmKfaR03brR_esX7yjQwvE6YIL71crcM_Xfgphh1MRTCOwJOxz9i-OoN4VBSgjaPPdGRNHmW4IRQw_o0JDG-kOPEu1wCvR-6OKCx5pjroKaX1APxnE86LHJimsMNssAN5wPRrEZEBIDwivwxTinHQTiHPeMOBSMrZU_mmQIElTh55_]--></g></svg>