<svg xmlns="http://www.w3.org/2000/svg" xmlns:xlink="http://www.w3.org/1999/xlink" contentStyleType="text/css" height="638px" preserveAspectRatio="none" style="width:1611px;height:638px;background:#FFFFFF;" version="1.1" viewBox="0 0 1611 638" width="1611px" zoomAndPan="magnify"><defs/><g><ellipse cx="802.4287" cy="20" fill="#222222" rx="10" ry="10" style="stroke:#222222;stroke-width:1;"/><rect fill="#F1F1F1" height="33.9688" rx="12.5" ry="12.5" style="stroke:#181818;stroke-width:0.5;" width="305.8086" x="649.5244" y="50"/><text fill="#000000" font-family="sans-serif" font-size="12" lengthAdjust="spacing" textLength="285.8086" x="659.5244" y="71.1387">Acceder al m&#243;dulo "Introducir Datos Laborales"</text><polygon fill="#F1F1F1" points="690.3796,103.9688,914.4778,103.9688,926.4778,115.9688,914.4778,127.9688,690.3796,127.9688,678.3796,115.9688,690.3796,103.9688" style="stroke:#181818;stroke-width:0.5;"/><text fill="#000000" font-family="sans-serif" font-size="11" lengthAdjust="spacing" textLength="224.0981" x="690.3796" y="119.7769">&#191;Hay datos del a&#241;o anterior disponibles?</text><text fill="#000000" font-family="sans-serif" font-size="11" lengthAdjust="spacing" textLength="8.7871" x="669.5925" y="113.3745">s&#237;</text><text fill="#000000" font-family="sans-serif" font-size="11" lengthAdjust="spacing" textLength="13.7017" x="926.4778" y="113.3745">no</text><rect fill="#F1F1F1" height="33.9688" rx="12.5" ry="12.5" style="stroke:#181818;stroke-width:0.5;" width="263.252" x="477.6553" y="137.9688"/><text fill="#000000" font-family="sans-serif" font-size="12" lengthAdjust="spacing" textLength="243.252" x="487.6553" y="159.1074">Ofrecer opci&#243;n de heredar datos previos</text><polygon fill="#F1F1F1" points="562.8186,191.9375,655.7439,191.9375,667.7439,203.9375,655.7439,215.9375,562.8186,215.9375,550.8186,203.9375,562.8186,191.9375" style="stroke:#181818;stroke-width:0.5;"/><text fill="#000000" font-family="sans-serif" font-size="11" lengthAdjust="spacing" textLength="92.9253" x="562.8186" y="207.7456">&#191;Desea heredar?</text><text fill="#000000" font-family="sans-serif" font-size="11" lengthAdjust="spacing" textLength="8.7871" x="542.0315" y="201.3433">s&#237;</text><text fill="#000000" font-family="sans-serif" font-size="11" lengthAdjust="spacing" textLength="13.7017" x="667.7439" y="201.3433">no</text><rect fill="#F1F1F1" height="33.9688" rx="12.5" ry="12.5" style="stroke:#181818;stroke-width:0.5;" width="256.0391" x="350.7949" y="225.9375"/><text fill="#000000" font-family="sans-serif" font-size="12" lengthAdjust="spacing" textLength="236.0391" x="360.7949" y="247.0762">Cargar datos laborales del a&#241;o anterior</text><rect fill="#F1F1F1" height="33.9688" rx="12.5" ry="12.5" style="stroke:#181818;stroke-width:0.5;" width="225.8281" x="626.834" y="225.9375"/><text fill="#000000" font-family="sans-serif" font-size="12" lengthAdjust="spacing" textLength="205.8281" x="636.834" y="247.0762">Iniciar entrada de datos en blanco</text><polygon fill="#F1F1F1" points="609.2813,265.9063,621.2813,277.9063,609.2813,289.9063,597.2813,277.9063,609.2813,265.9063" style="stroke:#181818;stroke-width:0.5;"/><rect fill="#F1F1F1" height="33.9688" rx="12.5" ry="12.5" style="stroke:#181818;stroke-width:0.5;" width="225.8281" x="882.6621" y="137.9688"/><text fill="#000000" font-family="sans-serif" font-size="12" lengthAdjust="spacing" textLength="205.8281" x="892.6621" y="159.1074">Iniciar entrada de datos en blanco</text><polygon fill="#F1F1F1" points="802.4287,295.9063,814.4287,307.9063,802.4287,319.9063,790.4287,307.9063,802.4287,295.9063" style="stroke:#181818;stroke-width:0.5;"/><rect fill="#F1F1F1" height="33.9688" rx="12.5" ry="12.5" style="stroke:#181818;stroke-width:0.5;" width="284.0117" x="660.4229" y="339.9063"/><text fill="#000000" font-family="sans-serif" font-size="12" lengthAdjust="spacing" textLength="264.0117" x="670.4229" y="361.0449">Seleccionar tipo de dato laboral a introducir</text><line style="stroke:#181818;stroke-width:1.5;" x1="193.5942" x2="1377.2739" y1="393.875" y2="393.875"/><polygon fill="#F1F1F1" points="130.2825,413.875,256.906,413.875,268.906,425.875,256.906,437.875,130.2825,437.875,118.2825,425.875,130.2825,413.875" style="stroke:#181818;stroke-width:0.5;"/><text fill="#000000" font-family="sans-serif" font-size="11" lengthAdjust="spacing" textLength="126.6235" x="130.2825" y="429.6831">Selecciona "Contrato"?</text><text fill="#000000" font-family="sans-serif" font-size="11" lengthAdjust="spacing" textLength="8.7871" x="109.4954" y="423.2808">s&#237;</text><text fill="#000000" font-family="sans-serif" font-size="11" lengthAdjust="spacing" textLength="13.7017" x="268.906" y="423.2808">no</text><rect fill="#F1F1F1" height="33.9688" rx="12.5" ry="12.5" style="stroke:#181818;stroke-width:0.5;" width="190.291" x="11" y="447.875"/><text fill="#000000" font-family="sans-serif" font-size="12" lengthAdjust="spacing" textLength="170.291" x="21" y="469.0137">Introducir datos de Contrato</text><rect fill="#F1F1F1" height="33.9688" rx="12.5" ry="12.5" style="stroke:#181818;stroke-width:0.5;" width="119.5039" x="221.291" y="447.875"/><text fill="#000000" font-family="sans-serif" font-size="12" lengthAdjust="spacing" textLength="99.5039" x="231.291" y="469.0137">Ignorar Contrato</text><polygon fill="#F1F1F1" points="193.5942,487.8438,205.5942,499.8438,193.5942,511.8438,181.5942,499.8438,193.5942,487.8438" style="stroke:#181818;stroke-width:0.5;"/><polygon fill="#F1F1F1" points="469.1907,413.875,579.8083,413.875,591.8083,425.875,579.8083,437.875,469.1907,437.875,457.1907,425.875,469.1907,413.875" style="stroke:#181818;stroke-width:0.5;"/><text fill="#000000" font-family="sans-serif" font-size="11" lengthAdjust="spacing" textLength="110.6177" x="469.1907" y="429.6831">Selecciona "Horas"?</text><text fill="#000000" font-family="sans-serif" font-size="11" lengthAdjust="spacing" textLength="8.7871" x="448.4036" y="423.2808">s&#237;</text><text fill="#000000" font-family="sans-serif" font-size="11" lengthAdjust="spacing" textLength="13.7017" x="591.8083" y="423.2808">no</text><rect fill="#F1F1F1" height="33.9688" rx="12.5" ry="12.5" style="stroke:#181818;stroke-width:0.5;" width="172.8301" x="359.3662" y="447.875"/><text fill="#000000" font-family="sans-serif" font-size="12" lengthAdjust="spacing" textLength="152.8301" x="369.3662" y="469.0137">Introducir datos de Horas</text><rect fill="#F1F1F1" height="33.9688" rx="12.5" ry="12.5" style="stroke:#181818;stroke-width:0.5;" width="102.043" x="552.1963" y="447.875"/><text fill="#000000" font-family="sans-serif" font-size="12" lengthAdjust="spacing" textLength="82.043" x="562.1963" y="469.0137">Ignorar Horas</text><polygon fill="#F1F1F1" points="524.4995,487.8438,536.4995,499.8438,524.4995,511.8438,512.4995,499.8438,524.4995,487.8438" style="stroke:#181818;stroke-width:0.5;"/><polygon fill="#F1F1F1" points="838.0637,413.875,992.6814,413.875,1004.6814,425.875,992.6814,437.875,838.0637,437.875,826.0637,425.875,838.0637,413.875" style="stroke:#181818;stroke-width:0.5;"/><text fill="#000000" font-family="sans-serif" font-size="11" lengthAdjust="spacing" textLength="154.6177" x="838.0637" y="429.6831">Selecciona "Temporalidad"?</text><text fill="#000000" font-family="sans-serif" font-size="11" lengthAdjust="spacing" textLength="8.7871" x="817.2766" y="423.2808">s&#237;</text><text fill="#000000" font-family="sans-serif" font-size="11" lengthAdjust="spacing" textLength="13.7017" x="1004.6814" y="423.2808">no</text><rect fill="#F1F1F1" height="33.9688" rx="12.5" ry="12.5" style="stroke:#181818;stroke-width:0.5;" width="220.8301" x="702.2393" y="447.875"/><text fill="#000000" font-family="sans-serif" font-size="12" lengthAdjust="spacing" textLength="200.8301" x="712.2393" y="469.0137">Introducir datos de Temporalidad</text><rect fill="#F1F1F1" height="33.9688" rx="12.5" ry="12.5" style="stroke:#181818;stroke-width:0.5;" width="150.043" x="943.0693" y="447.875"/><text fill="#000000" font-family="sans-serif" font-size="12" lengthAdjust="spacing" textLength="130.043" x="953.0693" y="469.0137">Ignorar Temporalidad</text><polygon fill="#F1F1F1" points="915.3726,487.8438,927.3726,499.8438,915.3726,511.8438,903.3726,499.8438,915.3726,487.8438" style="stroke:#181818;stroke-width:0.5;"/><polygon fill="#F1F1F1" points="1279.042,413.875,1475.5059,413.875,1487.5059,425.875,1475.5059,437.875,1279.042,437.875,1267.042,425.875,1279.042,413.875" style="stroke:#181818;stroke-width:0.5;"/><text fill="#000000" font-family="sans-serif" font-size="11" lengthAdjust="spacing" textLength="196.4639" x="1279.042" y="429.6831">Selecciona "Categor&#237;a Profesional"?</text><text fill="#000000" font-family="sans-serif" font-size="11" lengthAdjust="spacing" textLength="8.7871" x="1258.2549" y="423.2808">s&#237;</text><text fill="#000000" font-family="sans-serif" font-size="11" lengthAdjust="spacing" textLength="13.7017" x="1487.5059" y="423.2808">no</text><rect fill="#F1F1F1" height="33.9688" rx="12.5" ry="12.5" style="stroke:#181818;stroke-width:0.5;" width="266.4805" x="1118.4902" y="447.875"/><text fill="#000000" font-family="sans-serif" font-size="12" lengthAdjust="spacing" textLength="246.4805" x="1128.4902" y="469.0137">Introducir datos de Categor&#237;a Profesional</text><rect fill="#F1F1F1" height="33.9688" rx="12.5" ry="12.5" style="stroke:#181818;stroke-width:0.5;" width="195.6934" x="1404.9707" y="447.875"/><text fill="#000000" font-family="sans-serif" font-size="12" lengthAdjust="spacing" textLength="175.6934" x="1414.9707" y="469.0137">Ignorar Categor&#237;a Profesional</text><polygon fill="#F1F1F1" points="1377.2739,487.8438,1389.2739,499.8438,1377.2739,511.8438,1365.2739,499.8438,1377.2739,487.8438" style="stroke:#181818;stroke-width:0.5;"/><line style="stroke:#181818;stroke-width:1.5;" x1="193.5942" x2="1377.2739" y1="531.8438" y2="531.8438"/><rect fill="#F1F1F1" height="33.9688" rx="12.5" ry="12.5" style="stroke:#181818;stroke-width:0.5;" width="164.8965" x="719.9805" y="551.8438"/><text fill="#000000" font-family="sans-serif" font-size="12" lengthAdjust="spacing" textLength="144.8965" x="729.9805" y="572.9824">Guardar datos laborales</text><ellipse cx="802.4287" cy="616.8125" fill="none" rx="11" ry="11" style="stroke:#222222;stroke-width:1;"/><ellipse cx="802.4287" cy="616.8125" fill="#222222" rx="6" ry="6" style="stroke:#222222;stroke-width:1;"/><line style="stroke:#181818;stroke-width:1;" x1="802.4287" x2="802.4287" y1="30" y2="50"/><polygon fill="#181818" points="798.4287,40,802.4287,50,806.4287,40,802.4287,44" style="stroke:#181818;stroke-width:1;"/><line style="stroke:#181818;stroke-width:1;" x1="550.8186" x2="478.8145" y1="203.9375" y2="203.9375"/><line style="stroke:#181818;stroke-width:1;" x1="478.8145" x2="478.8145" y1="203.9375" y2="225.9375"/><polygon fill="#181818" points="474.8145,215.9375,478.8145,225.9375,482.8145,215.9375,478.8145,219.9375" style="stroke:#181818;stroke-width:1;"/><line style="stroke:#181818;stroke-width:1;" x1="667.7439" x2="739.748" y1="203.9375" y2="203.9375"/><line style="stroke:#181818;stroke-width:1;" x1="739.748" x2="739.748" y1="203.9375" y2="225.9375"/><polygon fill="#181818" points="735.748,215.9375,739.748,225.9375,743.748,215.9375,739.748,219.9375" style="stroke:#181818;stroke-width:1;"/><line style="stroke:#181818;stroke-width:1;" x1="478.8145" x2="478.8145" y1="259.9063" y2="277.9063"/><line style="stroke:#181818;stroke-width:1;" x1="478.8145" x2="597.2813" y1="277.9063" y2="277.9063"/><polygon fill="#181818" points="587.2813,273.9063,597.2813,277.9063,587.2813,281.9063,591.2813,277.9063" style="stroke:#181818;stroke-width:1;"/><line style="stroke:#181818;stroke-width:1;" x1="739.748" x2="739.748" y1="259.9063" y2="277.9063"/><line style="stroke:#181818;stroke-width:1;" x1="739.748" x2="621.2813" y1="277.9063" y2="277.9063"/><polygon fill="#181818" points="631.2813,273.9063,621.2813,277.9063,631.2813,281.9063,627.2813,277.9063" style="stroke:#181818;stroke-width:1;"/><line style="stroke:#181818;stroke-width:1;" x1="609.2813" x2="609.2813" y1="171.9375" y2="191.9375"/><polygon fill="#181818" points="605.2813,181.9375,609.2813,191.9375,613.2813,181.9375,609.2813,185.9375" style="stroke:#181818;stroke-width:1;"/><line style="stroke:#181818;stroke-width:1;" x1="678.3796" x2="609.2813" y1="115.9688" y2="115.9688"/><line style="stroke:#181818;stroke-width:1;" x1="609.2813" x2="609.2813" y1="115.9688" y2="137.9688"/><polygon fill="#181818" points="605.2813,127.9688,609.2813,137.9688,613.2813,127.9688,609.2813,131.9688" style="stroke:#181818;stroke-width:1;"/><line style="stroke:#181818;stroke-width:1;" x1="926.4778" x2="995.5762" y1="115.9688" y2="115.9688"/><line style="stroke:#181818;stroke-width:1;" x1="995.5762" x2="995.5762" y1="115.9688" y2="137.9688"/><polygon fill="#181818" points="991.5762,127.9688,995.5762,137.9688,999.5762,127.9688,995.5762,131.9688" style="stroke:#181818;stroke-width:1;"/><line style="stroke:#181818;stroke-width:1;" x1="609.2813" x2="609.2813" y1="289.9063" y2="307.9063"/><line style="stroke:#181818;stroke-width:1;" x1="609.2813" x2="790.4287" y1="307.9063" y2="307.9063"/><polygon fill="#181818" points="780.4287,303.9063,790.4287,307.9063,780.4287,311.9063,784.4287,307.9063" style="stroke:#181818;stroke-width:1;"/><line style="stroke:#181818;stroke-width:1;" x1="995.5762" x2="995.5762" y1="171.9375" y2="307.9063"/><line style="stroke:#181818;stroke-width:1;" x1="995.5762" x2="814.4287" y1="307.9063" y2="307.9063"/><polygon fill="#181818" points="824.4287,303.9063,814.4287,307.9063,824.4287,311.9063,820.4287,307.9063" style="stroke:#181818;stroke-width:1;"/><line style="stroke:#181818;stroke-width:1;" x1="802.4287" x2="802.4287" y1="83.9688" y2="103.9688"/><polygon fill="#181818" points="798.4287,93.9688,802.4287,103.9688,806.4287,93.9688,802.4287,97.9688" style="stroke:#181818;stroke-width:1;"/><line style="stroke:#181818;stroke-width:1;" x1="802.4287" x2="802.4287" y1="319.9063" y2="339.9063"/><polygon fill="#181818" points="798.4287,329.9063,802.4287,339.9063,806.4287,329.9063,802.4287,333.9063" style="stroke:#181818;stroke-width:1;"/><line style="stroke:#181818;stroke-width:1;" x1="118.2825" x2="106.1455" y1="425.875" y2="425.875"/><line style="stroke:#181818;stroke-width:1;" x1="106.1455" x2="106.1455" y1="425.875" y2="447.875"/><polygon fill="#181818" points="102.1455,437.875,106.1455,447.875,110.1455,437.875,106.1455,441.875" style="stroke:#181818;stroke-width:1;"/><line style="stroke:#181818;stroke-width:1;" x1="268.906" x2="281.043" y1="425.875" y2="425.875"/><line style="stroke:#181818;stroke-width:1;" x1="281.043" x2="281.043" y1="425.875" y2="447.875"/><polygon fill="#181818" points="277.043,437.875,281.043,447.875,285.043,437.875,281.043,441.875" style="stroke:#181818;stroke-width:1;"/><line style="stroke:#181818;stroke-width:1;" x1="106.1455" x2="106.1455" y1="481.8438" y2="499.8438"/><line style="stroke:#181818;stroke-width:1;" x1="106.1455" x2="181.5942" y1="499.8438" y2="499.8438"/><polygon fill="#181818" points="171.5942,495.8438,181.5942,499.8438,171.5942,503.8438,175.5942,499.8438" style="stroke:#181818;stroke-width:1;"/><line style="stroke:#181818;stroke-width:1;" x1="281.043" x2="281.043" y1="481.8438" y2="499.8438"/><line style="stroke:#181818;stroke-width:1;" x1="281.043" x2="205.5942" y1="499.8438" y2="499.8438"/><polygon fill="#181818" points="215.5942,495.8438,205.5942,499.8438,215.5942,503.8438,211.5942,499.8438" style="stroke:#181818;stroke-width:1;"/><line style="stroke:#181818;stroke-width:1;" x1="457.1907" x2="445.7813" y1="425.875" y2="425.875"/><line style="stroke:#181818;stroke-width:1;" x1="445.7813" x2="445.7813" y1="425.875" y2="447.875"/><polygon fill="#181818" points="441.7813,437.875,445.7813,447.875,449.7813,437.875,445.7813,441.875" style="stroke:#181818;stroke-width:1;"/><line style="stroke:#181818;stroke-width:1;" x1="591.8083" x2="603.2178" y1="425.875" y2="425.875"/><line style="stroke:#181818;stroke-width:1;" x1="603.2178" x2="603.2178" y1="425.875" y2="447.875"/><polygon fill="#181818" points="599.2178,437.875,603.2178,447.875,607.2178,437.875,603.2178,441.875" style="stroke:#181818;stroke-width:1;"/><line style="stroke:#181818;stroke-width:1;" x1="445.7813" x2="445.7813" y1="481.8438" y2="499.8438"/><line style="stroke:#181818;stroke-width:1;" x1="445.7813" x2="512.4995" y1="499.8438" y2="499.8438"/><polygon fill="#181818" points="502.4995,495.8438,512.4995,499.8438,502.4995,503.8438,506.4995,499.8438" style="stroke:#181818;stroke-width:1;"/><line style="stroke:#181818;stroke-width:1;" x1="603.2178" x2="603.2178" y1="481.8438" y2="499.8438"/><line style="stroke:#181818;stroke-width:1;" x1="603.2178" x2="536.4995" y1="499.8438" y2="499.8438"/><polygon fill="#181818" points="546.4995,495.8438,536.4995,499.8438,546.4995,503.8438,542.4995,499.8438" style="stroke:#181818;stroke-width:1;"/><line style="stroke:#181818;stroke-width:1;" x1="826.0637" x2="812.6543" y1="425.875" y2="425.875"/><line style="stroke:#181818;stroke-width:1;" x1="812.6543" x2="812.6543" y1="425.875" y2="447.875"/><polygon fill="#181818" points="808.6543,437.875,812.6543,447.875,816.6543,437.875,812.6543,441.875" style="stroke:#181818;stroke-width:1;"/><line style="stroke:#181818;stroke-width:1;" x1="1004.6814" x2="1018.0908" y1="425.875" y2="425.875"/><line style="stroke:#181818;stroke-width:1;" x1="1018.0908" x2="1018.0908" y1="425.875" y2="447.875"/><polygon fill="#181818" points="1014.0908,437.875,1018.0908,447.875,1022.0908,437.875,1018.0908,441.875" style="stroke:#181818;stroke-width:1;"/><line style="stroke:#181818;stroke-width:1;" x1="812.6543" x2="812.6543" y1="481.8438" y2="499.8438"/><line style="stroke:#181818;stroke-width:1;" x1="812.6543" x2="903.3726" y1="499.8438" y2="499.8438"/><polygon fill="#181818" points="893.3726,495.8438,903.3726,499.8438,893.3726,503.8438,897.3726,499.8438" style="stroke:#181818;stroke-width:1;"/><line style="stroke:#181818;stroke-width:1;" x1="1018.0908" x2="1018.0908" y1="481.8438" y2="499.8438"/><line style="stroke:#181818;stroke-width:1;" x1="1018.0908" x2="927.3726" y1="499.8438" y2="499.8438"/><polygon fill="#181818" points="937.3726,495.8438,927.3726,499.8438,937.3726,503.8438,933.3726,499.8438" style="stroke:#181818;stroke-width:1;"/><line style="stroke:#181818;stroke-width:1;" x1="1267.042" x2="1251.7305" y1="425.875" y2="425.875"/><line style="stroke:#181818;stroke-width:1;" x1="1251.7305" x2="1251.7305" y1="425.875" y2="447.875"/><polygon fill="#181818" points="1247.7305,437.875,1251.7305,447.875,1255.7305,437.875,1251.7305,441.875" style="stroke:#181818;stroke-width:1;"/><line style="stroke:#181818;stroke-width:1;" x1="1487.5059" x2="1502.8174" y1="425.875" y2="425.875"/><line style="stroke:#181818;stroke-width:1;" x1="1502.8174" x2="1502.8174" y1="425.875" y2="447.875"/><polygon fill="#181818" points="1498.8174,437.875,1502.8174,447.875,1506.8174,437.875,1502.8174,441.875" style="stroke:#181818;stroke-width:1;"/><line style="stroke:#181818;stroke-width:1;" x1="1251.7305" x2="1251.7305" y1="481.8438" y2="499.8438"/><line style="stroke:#181818;stroke-width:1;" x1="1251.7305" x2="1365.2739" y1="499.8438" y2="499.8438"/><polygon fill="#181818" points="1355.2739,495.8438,1365.2739,499.8438,1355.2739,503.8438,1359.2739,499.8438" style="stroke:#181818;stroke-width:1;"/><line style="stroke:#181818;stroke-width:1;" x1="1502.8174" x2="1502.8174" y1="481.8438" y2="499.8438"/><line style="stroke:#181818;stroke-width:1;" x1="1502.8174" x2="1389.2739" y1="499.8438" y2="499.8438"/><polygon fill="#181818" points="1399.2739,495.8438,1389.2739,499.8438,1399.2739,503.8438,1395.2739,499.8438" style="stroke:#181818;stroke-width:1;"/><line style="stroke:#181818;stroke-width:1;" x1="193.5942" x2="193.5942" y1="395.375" y2="413.875"/><polygon fill="#181818" points="189.5942,403.875,193.5942,413.875,197.5942,403.875,193.5942,407.875" style="stroke:#181818;stroke-width:1;"/><line style="stroke:#181818;stroke-width:1;" x1="524.4995" x2="524.4995" y1="395.375" y2="413.875"/><polygon fill="#181818" points="520.4995,403.875,524.4995,413.875,528.4995,403.875,524.4995,407.875" style="stroke:#181818;stroke-width:1;"/><line style="stroke:#181818;stroke-width:1;" x1="915.3726" x2="915.3726" y1="395.375" y2="413.875"/><polygon fill="#181818" points="911.3726,403.875,915.3726,413.875,919.3726,403.875,915.3726,407.875" style="stroke:#181818;stroke-width:1;"/><line style="stroke:#181818;stroke-width:1;" x1="1377.2739" x2="1377.2739" y1="395.375" y2="413.875"/><polygon fill="#181818" points="1373.2739,403.875,1377.2739,413.875,1381.2739,403.875,1377.2739,407.875" style="stroke:#181818;stroke-width:1;"/><line style="stroke:#181818;stroke-width:1;" x1="193.5942" x2="193.5942" y1="511.8438" y2="531.8438"/><polygon fill="#181818" points="189.5942,521.8438,193.5942,531.8438,197.5942,521.8438,193.5942,525.8438" style="stroke:#181818;stroke-width:1;"/><line style="stroke:#181818;stroke-width:1;" x1="524.4995" x2="524.4995" y1="511.8438" y2="531.8438"/><polygon fill="#181818" points="520.4995,521.8438,524.4995,531.8438,528.4995,521.8438,524.4995,525.8438" style="stroke:#181818;stroke-width:1;"/><line style="stroke:#181818;stroke-width:1;" x1="915.3726" x2="915.3726" y1="511.8438" y2="531.8438"/><polygon fill="#181818" points="911.3726,521.8438,915.3726,531.8438,919.3726,521.8438,915.3726,525.8438" style="stroke:#181818;stroke-width:1;"/><line style="stroke:#181818;stroke-width:1;" x1="1377.2739" x2="1377.2739" y1="511.8438" y2="531.8438"/><polygon fill="#181818" points="1373.2739,521.8438,1377.2739,531.8438,1381.2739,521.8438,1377.2739,525.8438" style="stroke:#181818;stroke-width:1;"/><line style="stroke:#181818;stroke-width:1;" x1="802.4287" x2="802.4287" y1="373.875" y2="393.875"/><polygon fill="#181818" points="798.4287,383.875,802.4287,393.875,806.4287,383.875,802.4287,387.875" style="stroke:#181818;stroke-width:1;"/><line style="stroke:#181818;stroke-width:1;" x1="802.4287" x2="802.4287" y1="533.3438" y2="551.8438"/><polygon fill="#181818" points="798.4287,541.8438,802.4287,551.8438,806.4287,541.8438,802.4287,545.8438" style="stroke:#181818;stroke-width:1;"/><line style="stroke:#181818;stroke-width:1;" x1="802.4287" x2="802.4287" y1="585.8125" y2="605.8125"/><polygon fill="#181818" points="798.4287,595.8125,802.4287,605.8125,806.4287,595.8125,802.4287,599.8125" style="stroke:#181818;stroke-width:1;"/><!--SRC=[ZPDHQiCm38RVSmhHf_OAwSCOBQo5mGRR1LHRIGMU5MHti4FrOVG0W-LYSvAcxTQivDN-F_s_93j4r9ZbzyQG9GLqy5OVxCu9JDO-gjYTOOKbHWdmY1jHT1GcyopZ0gRVNoly0DjUMdA0zQS0-aZAec0vLE9vau2x6SGjUPY6UZ_B0FAdGiaaFwaCrmUVQDYIaaKzbgkKtbd2F8axfoK5mbxqjrwgk40jJxJharx7QYgI2mHJBqTqxTbmOYarZ1QRC5sPvB1nw8sqaBTSP9VeAB33ilo571d3ufC-SYMzkCyA27mQU9flg1p7O_Td5YOBQSoYJ0PcSB6nVYdGwuVwBdrorj-IDcvh3bWY-u48gqI5iVwj-8Rv-Nw4yokzLSsmsA8T6-2IkP7ZIZOYpW8ZbQBr7k5PfQ3G7BlHcncaR-tfVw1xczvshoRB7tQezlexpBCGfVe1]--></g></svg>