<svg xmlns="http://www.w3.org/2000/svg" xmlns:xlink="http://www.w3.org/1999/xlink" contentStyleType="text/css" data-diagram-type="STATE" height="899px" preserveAspectRatio="none" style="width:519px;height:899px;background:#FFFFFF;" version="1.1" viewBox="0 0 519 899" width="519px" zoomAndPan="magnify"><defs/><g><path d="M19.5,86 L493.7764,86 A12.5,12.5 0 0 1 506.2764,98.5 L506.2764,112.2969 L7,112.2969 L7,98.5 A12.5,12.5 0 0 1 19.5,86 " fill="#F1F1F1" style="stroke:#F1F1F1;stroke-width:1;"/><rect fill="#FFFFFF" fill-opacity="0.00000" height="725.2969" rx="12.5" ry="12.5" style="stroke:#181818;stroke-width:0.5;" width="499.2764" x="7" y="86"/><line style="stroke:#181818;stroke-width:0.5;" x1="7" x2="506.2764" y1="112.2969" y2="112.2969"/><text fill="#000000" font-family="sans-serif" font-size="14" lengthAdjust="spacing" textLength="104.9795" x="204.1484" y="103.9951">ModificarDatos</text><g id="ModificarDatos.Estado1"><rect fill="#F1F1F1" height="50" rx="12.5" ry="12.5" style="stroke:#181818;stroke-width:0.5;" width="278.2139" x="199.66" y="180.2969"/><line style="stroke:#181818;stroke-width:0.5;" x1="199.66" x2="477.8739" y1="206.5938" y2="206.5938"/><text fill="#000000" font-family="sans-serif" font-size="14" lengthAdjust="spacing" textLength="258.2139" x="209.66" y="198.292">El Usuario solicita acceder al m&#243;dulo</text></g><g id="ModificarDatos.Estado2"><rect fill="#F1F1F1" height="50" rx="12.5" ry="12.5" style="stroke:#181818;stroke-width:0.5;" width="213.2041" x="232.16" y="267.2969"/><line style="stroke:#181818;stroke-width:0.5;" x1="232.16" x2="445.3641" y1="293.5938" y2="293.5938"/><text fill="#000000" font-family="sans-serif" font-size="14" lengthAdjust="spacing" textLength="193.2041" x="242.16" y="285.292">El Sistema permite acceder</text></g><g id="ModificarDatos.Estado3"><rect fill="#F1F1F1" height="50" rx="12.5" ry="12.5" style="stroke:#181818;stroke-width:0.5;" width="257.6787" x="209.93" y="354.2969"/><line style="stroke:#181818;stroke-width:0.5;" x1="209.93" x2="467.6087" y1="380.5938" y2="380.5938"/><text fill="#000000" font-family="sans-serif" font-size="14" lengthAdjust="spacing" textLength="237.6787" x="219.93" y="372.292">El Usuario solicita modificar datos</text></g><g id="ModificarDatos.Estado4"><rect fill="#F1F1F1" height="50" rx="12.5" ry="12.5" style="stroke:#181818;stroke-width:0.5;" width="259.1348" x="209.2" y="441.2969"/><line style="stroke:#181818;stroke-width:0.5;" x1="209.2" x2="468.3348" y1="467.5938" y2="467.5938"/><text fill="#000000" font-family="sans-serif" font-size="14" lengthAdjust="spacing" textLength="239.1348" x="219.2" y="459.292">El Sistema presenta datos previos</text></g><g id="ModificarDatos.Estado5"><rect fill="#F1F1F1" height="50" rx="12.5" ry="12.5" style="stroke:#181818;stroke-width:0.5;" width="270.9404" x="203.3" y="528.2969"/><line style="stroke:#181818;stroke-width:0.5;" x1="203.3" x2="474.2404" y1="554.5938" y2="554.5938"/><text fill="#000000" font-family="sans-serif" font-size="14" lengthAdjust="spacing" textLength="250.9404" x="213.3" y="546.292">El Usuario introduce modificaciones</text></g><g id="elem_choice"><polygon fill="#F1F1F1" points="273.77,615.2969,285.77,627.2969,273.77,639.2969,261.77,627.2969,273.77,615.2969" style="stroke:#181818;stroke-width:0.5;"/></g><g id="ModificarDatos.Estado6"><rect fill="#F1F1F1" height="50" rx="12.5" ry="12.5" style="stroke:#181818;stroke-width:0.5;" width="199.0264" x="298.25" y="692.2969"/><line style="stroke:#181818;stroke-width:0.5;" x1="298.25" x2="497.2764" y1="718.5938" y2="718.5938"/><text fill="#000000" font-family="sans-serif" font-size="14" lengthAdjust="spacing" textLength="179.0264" x="308.25" y="710.292">El Sistema presenta error</text></g><g id="ModificarDatos.Estado7"><rect fill="#F1F1F1" height="50" rx="12.5" ry="12.5" style="stroke:#181818;stroke-width:0.5;" width="255.5322" x="19" y="692.2969"/><line style="stroke:#181818;stroke-width:0.5;" x1="19" x2="274.5322" y1="718.5938" y2="718.5938"/><text fill="#000000" font-family="sans-serif" font-size="14" lengthAdjust="spacing" textLength="235.5322" x="29" y="710.292">El Sistema presenta confirmaci&#243;n</text></g><ellipse cx="338.77" cy="133.2969" fill="#222222" rx="10" ry="10" style="stroke:#222222;stroke-width:1;"/><ellipse cx="146.77" cy="790.2969" fill="#FFFFFF" fill-opacity="0.00000" rx="11" ry="11" style="stroke:#222222;stroke-width:1;"/><ellipse cx="146.77" cy="790.2969" fill="#222222" rx="6" ry="6" style="stroke:#222222;stroke-width:1;"/><!--link *start*ModificarDatos to Estado1--><g id="link_*start*ModificarDatos_Estado1"><path d="M338.77,143.7369 C338.77,152.9969 338.77,161.4869 338.77,173.9769 " fill="#FFFFFF" fill-opacity="0.00000" id="*start*ModificarDatos-to-Estado1" style="stroke:#181818;stroke-width:1;"/><polygon fill="#181818" points="338.77,179.9769,342.77,170.9769,338.77,174.9769,334.77,170.9769,338.77,179.9769" style="stroke:#181818;stroke-width:1;"/></g><!--link Estado1 to Estado2--><g id="link_Estado1_Estado2"><path d="M338.77,230.4269 C338.77,241.8169 338.77,249.3769 338.77,260.8069 " fill="#FFFFFF" fill-opacity="0.00000" id="Estado1-to-Estado2" style="stroke:#181818;stroke-width:1;"/><polygon fill="#181818" points="338.77,266.8069,342.77,257.8069,338.77,261.8069,334.77,257.8069,338.77,266.8069" style="stroke:#181818;stroke-width:1;"/></g><!--link Estado2 to Estado3--><g id="link_Estado2_Estado3"><path d="M338.77,317.4269 C338.77,328.8169 338.77,336.3769 338.77,347.8069 " fill="#FFFFFF" fill-opacity="0.00000" id="Estado2-to-Estado3" style="stroke:#181818;stroke-width:1;"/><polygon fill="#181818" points="338.77,353.8069,342.77,344.8069,338.77,348.8069,334.77,344.8069,338.77,353.8069" style="stroke:#181818;stroke-width:1;"/></g><!--link Estado3 to Estado4--><g id="link_Estado3_Estado4"><path d="M338.77,404.4269 C338.77,415.8169 338.77,423.3769 338.77,434.8069 " fill="#FFFFFF" fill-opacity="0.00000" id="Estado3-to-Estado4" style="stroke:#181818;stroke-width:1;"/><polygon fill="#181818" points="338.77,440.8069,342.77,431.8069,338.77,435.8069,334.77,431.8069,338.77,440.8069" style="stroke:#181818;stroke-width:1;"/></g><!--link Estado4 to Estado5--><g id="link_Estado4_Estado5"><path d="M338.77,491.4269 C338.77,502.8169 338.77,510.3769 338.77,521.8069 " fill="#FFFFFF" fill-opacity="0.00000" id="Estado4-to-Estado5" style="stroke:#181818;stroke-width:1;"/><polygon fill="#181818" points="338.77,527.8069,342.77,518.8069,338.77,522.8069,334.77,518.8069,338.77,527.8069" style="stroke:#181818;stroke-width:1;"/></g><!--link Estado5 to choice--><g id="link_Estado5_choice"><path d="M316.76,578.6769 C303.35,593.5269 291.2981,606.871 283.1281,615.931 " fill="#FFFFFF" fill-opacity="0.00000" id="Estado5-to-choice" style="stroke:#181818;stroke-width:1;"/><polygon fill="#181818" points="279.11,620.3869,288.1078,616.3819,282.4584,616.6737,282.1666,611.0243,279.11,620.3869" style="stroke:#181818;stroke-width:1;"/></g><!--link choice to Estado7--><g id="link_choice_Estado7"><path d="M261.73,627.7069 C238.89,627.2969 189.12,629.8269 161.77,657.2969 C152.74,666.3569 149.675,674.0871 148.125,685.9871 " fill="#FFFFFF" fill-opacity="0.00000" id="choice-to-Estado7" style="stroke:#181818;stroke-width:1;"/><polygon fill="#181818" points="147.35,691.9369,152.4789,683.5289,147.9958,686.9788,144.546,682.4956,147.35,691.9369" style="stroke:#181818;stroke-width:1;"/><text fill="#000000" font-family="sans-serif" font-size="13" lengthAdjust="spacing" textLength="102.6924" x="162.77" y="670.3638">Datos correctos</text></g><!--link choice to Estado6--><g id="link_choice_Estado6"><path d="M271.23,637.0269 C268.89,647.0369 266.84,663.4669 274.77,674.2969 C280.96,682.7669 283.8403,686.4247 292.7903,691.8547 " fill="#FFFFFF" fill-opacity="0.00000" id="choice-to-Estado6" style="stroke:#181818;stroke-width:1;"/><polygon fill="#181818" points="297.92,694.9669,292.3002,686.8787,293.6452,692.3734,288.1506,693.7184,297.92,694.9669" style="stroke:#181818;stroke-width:1;"/><text fill="#000000" font-family="sans-serif" font-size="13" lengthAdjust="spacing" textLength="114.5435" x="275.77" y="670.3638">Datos incorrectos</text></g><!--link Estado6 to Estado5--><g id="link_Estado6_Estado5"><path d="M396.8,692.0769 C395.89,681.2569 394.13,668.4569 390.77,657.2969 C382.21,628.9169 369.2326,604.0764 357.2126,583.8264 " fill="#FFFFFF" fill-opacity="0.00000" id="Estado6-to-Estado5" style="stroke:#181818;stroke-width:1;"/><polygon fill="#181818" points="354.15,578.6669,355.3042,588.4479,356.7022,582.9665,362.1836,584.3644,354.15,578.6669" style="stroke:#181818;stroke-width:1;"/><text fill="#000000" font-family="sans-serif" font-size="13" lengthAdjust="spacing" textLength="68.6245" x="384.77" y="631.8638">Reintentar</text></g><!--link Estado7 to *end*ModificarDatos--><g id="link_Estado7_*end*ModificarDatos"><path d="M146.77,742.7269 C146.77,755.0869 146.77,763.4269 146.77,772.8969 " fill="#FFFFFF" fill-opacity="0.00000" id="Estado7-to-*end*ModificarDatos" style="stroke:#181818;stroke-width:1;"/><polygon fill="#181818" points="146.77,778.8969,150.77,769.8969,146.77,773.8969,142.77,769.8969,146.77,778.8969" style="stroke:#181818;stroke-width:1;"/></g><ellipse cx="256.64" cy="16" fill="#222222" rx="10" ry="10" style="stroke:#222222;stroke-width:1;"/><ellipse cx="256.64" cy="882.3" fill="#FFFFFF" fill-opacity="0.00000" rx="11" ry="11" style="stroke:#222222;stroke-width:1;"/><ellipse cx="256.64" cy="882.3" fill="#222222" rx="6" ry="6" style="stroke:#222222;stroke-width:1;"/><!--link *start* to ModificarDatos--><g id="link_*start*_ModificarDatos"><path d="M256.64,26.4 C256.64,37.78 256.64,52.79 256.64,79.59 " fill="#FFFFFF" fill-opacity="0.00000" id="*start*-to-ModificarDatos" style="stroke:#181818;stroke-width:1;"/><polygon fill="#181818" points="256.64,85.59,260.64,76.59,256.64,80.59,252.64,76.59,256.64,85.59" style="stroke:#181818;stroke-width:1;"/></g><!--link ModificarDatos to *end*--><g id="link_ModificarDatos_*end*"><path d="M256.64,811.47 C256.64,838.24 256.64,853.37 256.64,865.1 " fill="#FFFFFF" fill-opacity="0.00000" id="ModificarDatos-to-*end*" style="stroke:#181818;stroke-width:1;"/><polygon fill="#181818" points="256.64,871.1,260.64,862.1,256.64,866.1,252.64,862.1,256.64,871.1" style="stroke:#181818;stroke-width:1;"/></g><!--SRC=[ZLEzQiCm4Dxx54V6GeRw5qBmb8nTMZg53a9Iw86jAvBSfVIfyWXviShodoetmHgCTD_FMNUwq-CxRBSLF9F0CtAc3yoIUG2t_CTOPcM4mhU7kdKQv4V74_GqnQTDhzySQtWpBTD8OAX6ZfO1urmAgO7Lq5mlegrf0ymih6Q7LpHMDWm-fMxGnGQ3G9MioTkCbm7HtIQGf_UIQccaSd8lwevV-4UStScDoceIBPTJSewaP2ZFbxKRAX4KE8cm9C3I24i3B8kmBC3oMqtZ7uJkZ_VxVbDLaKdkJNfmwJ6evppb3lhNmqbhoSTNzY-t6BcebkmrJP9QK_WmYZKYJkgCkd6zkLvK82vljQO8oxY35-dwt3dfY5TwdfiL7_-PfokQgu7r2m00]--></g></svg>