<svg xmlns="http://www.w3.org/2000/svg" xmlns:xlink="http://www.w3.org/1999/xlink" contentStyleType="text/css" data-diagram-type="STATE" height="976px" preserveAspectRatio="none" style="width:678px;height:976px;background:#FFFFFF;" version="1.1" viewBox="0 0 678 976" width="678px" zoomAndPan="magnify"><defs/><g><path d="M19.5,86 L652.7416,86 A12.5,12.5 0 0 1 665.2416,98.5 L665.2416,112.2969 L7,112.2969 L7,98.5 A12.5,12.5 0 0 1 19.5,86 " fill="#F1F1F1" style="stroke:#F1F1F1;stroke-width:1;"/><rect fill="#FFFFFF" fill-opacity="0.00000" height="802.2969" rx="12.5" ry="12.5" style="stroke:#181818;stroke-width:0.5;" width="658.2416" x="7" y="86"/><line style="stroke:#181818;stroke-width:0.5;" x1="7" x2="665.2416" y1="112.2969" y2="112.2969"/><text fill="#000000" font-family="sans-serif" font-size="14" lengthAdjust="spacing" textLength="89.8652" x="291.1882" y="103.9951">ValidarDatos</text><g id="ValidarDatos.Estado1"><rect fill="#F1F1F1" height="50" rx="12.5" ry="12.5" style="stroke:#181818;stroke-width:0.5;" width="373.623" x="269.32" y="180.2969"/><line style="stroke:#181818;stroke-width:0.5;" x1="269.32" x2="642.943" y1="206.5938" y2="206.5938"/><text fill="#000000" font-family="sans-serif" font-size="14" lengthAdjust="spacing" textLength="353.623" x="279.32" y="198.292">El Sistema presenta lista de datos del profesorado</text></g><g id="ValidarDatos.Estado2"><rect fill="#F1F1F1" height="50" rx="12.5" ry="12.5" style="stroke:#181818;stroke-width:0.5;" width="255.0947" x="328.59" y="267.2969"/><line style="stroke:#181818;stroke-width:0.5;" x1="328.59" x2="583.6847" y1="293.5938" y2="293.5938"/><text fill="#000000" font-family="sans-serif" font-size="14" lengthAdjust="spacing" textLength="235.0947" x="338.59" y="285.292">Seleccionar un dato para revisi&#243;n</text></g><g id="ValidarDatos.Estado3"><rect fill="#F1F1F1" height="50" rx="12.5" ry="12.5" style="stroke:#181818;stroke-width:0.5;" width="369.9658" x="165.15" y="354.2969"/><line style="stroke:#181818;stroke-width:0.5;" x1="165.15" x2="535.1158" y1="380.5938" y2="380.5938"/><text fill="#000000" font-family="sans-serif" font-size="14" lengthAdjust="spacing" textLength="349.9658" x="175.15" y="372.292">El Sistema presenta detalle del dato seleccionado</text></g><g id="elem_choice1"><polygon fill="#F1F1F1" points="350.14,441.2969,362.14,453.2969,350.14,465.2969,338.14,453.2969,350.14,441.2969" style="stroke:#181818;stroke-width:0.5;"/></g><g id="ValidarDatos.Estado4"><rect fill="#F1F1F1" height="50" rx="12.5" ry="12.5" style="stroke:#181818;stroke-width:0.5;" width="252.2715" x="19" y="518.2969"/><line style="stroke:#181818;stroke-width:0.5;" x1="19" x2="271.2715" y1="544.5938" y2="544.5938"/><text fill="#000000" font-family="sans-serif" font-size="14" lengthAdjust="spacing" textLength="232.2715" x="29" y="536.292">El Sistema registra dato validado</text></g><g id="ValidarDatos.Estado5"><rect fill="#F1F1F1" height="50" rx="12.5" ry="12.5" style="stroke:#181818;stroke-width:0.5;" width="227.6279" x="289.32" y="518.2969"/><line style="stroke:#181818;stroke-width:0.5;" x1="289.32" x2="516.9479" y1="544.5938" y2="544.5938"/><text fill="#000000" font-family="sans-serif" font-size="14" lengthAdjust="spacing" textLength="207.6279" x="299.32" y="536.292">El Sistema registra incidencia</text></g><g id="ValidarDatos.Estado6"><rect fill="#F1F1F1" height="50" rx="12.5" ry="12.5" style="stroke:#181818;stroke-width:0.5;" width="327.1182" x="207.58" y="605.2969"/><line style="stroke:#181818;stroke-width:0.5;" x1="207.58" x2="534.6982" y1="631.5938" y2="631.5938"/><text fill="#000000" font-family="sans-serif" font-size="14" lengthAdjust="spacing" textLength="307.1182" x="217.58" y="623.292">El Sistema remueve dato de lista pendiente</text></g><g id="elem_choice2"><polygon fill="#F1F1F1" points="467.14,692.2969,479.14,704.2969,467.14,716.2969,455.14,704.2969,467.14,692.2969" style="stroke:#181818;stroke-width:0.5;"/></g><g id="ValidarDatos.Estado7"><rect fill="#F1F1F1" height="50" rx="12.5" ry="12.5" style="stroke:#181818;stroke-width:0.5;" width="329.0732" x="302.6" y="769.2969"/><line style="stroke:#181818;stroke-width:0.5;" x1="302.6" x2="631.6732" y1="795.5938" y2="795.5938"/><text fill="#000000" font-family="sans-serif" font-size="14" lengthAdjust="spacing" textLength="309.0732" x="312.6" y="787.292">El Sistema confirma finalizaci&#243;n del proceso</text></g><ellipse cx="456.14" cy="133.2969" fill="#222222" rx="10" ry="10" style="stroke:#222222;stroke-width:1;"/><ellipse cx="467.14" cy="867.2969" fill="#FFFFFF" fill-opacity="0.00000" rx="11" ry="11" style="stroke:#222222;stroke-width:1;"/><ellipse cx="467.14" cy="867.2969" fill="#222222" rx="6" ry="6" style="stroke:#222222;stroke-width:1;"/><!--link *start*ValidarDatos to Estado1--><g id="link_*start*ValidarDatos_Estado1"><path d="M456.14,143.7369 C456.14,152.9969 456.14,161.4869 456.14,173.9769 " fill="#FFFFFF" fill-opacity="0.00000" id="*start*ValidarDatos-to-Estado1" style="stroke:#181818;stroke-width:1;"/><polygon fill="#181818" points="456.14,179.9769,460.14,170.9769,456.14,174.9769,452.14,170.9769,456.14,179.9769" style="stroke:#181818;stroke-width:1;"/></g><!--link Estado1 to Estado2--><g id="link_Estado1_Estado2"><path d="M456.14,230.4269 C456.14,241.8169 456.14,249.3769 456.14,260.8069 " fill="#FFFFFF" fill-opacity="0.00000" id="Estado1-to-Estado2" style="stroke:#181818;stroke-width:1;"/><polygon fill="#181818" points="456.14,266.8069,460.14,257.8069,456.14,261.8069,452.14,257.8069,456.14,266.8069" style="stroke:#181818;stroke-width:1;"/></g><!--link Estado2 to Estado3--><g id="link_Estado2_Estado3"><path d="M425.76,317.6569 C411.57,329.0369 399.3907,338.8031 385.2007,350.1831 " fill="#FFFFFF" fill-opacity="0.00000" id="Estado2-to-Estado3" style="stroke:#181818;stroke-width:1;"/><polygon fill="#181818" points="380.52,353.9369,390.0436,351.4266,384.4206,350.8087,385.0385,345.1857,380.52,353.9369" style="stroke:#181818;stroke-width:1;"/></g><!--link Estado3 to choice1--><g id="link_Estado3_choice1"><path d="M350.14,404.6769 C350.14,416.9069 350.14,425.1569 350.14,434.8569 " fill="#FFFFFF" fill-opacity="0.00000" id="Estado3-to-choice1" style="stroke:#181818;stroke-width:1;"/><polygon fill="#181818" points="350.14,440.8569,354.14,431.8569,350.14,435.8569,346.14,431.8569,350.14,440.8569" style="stroke:#181818;stroke-width:1;"/></g><!--link choice1 to Estado4--><g id="link_choice1_Estado4"><path d="M342.1,457.7469 C319.15,467.5969 257.3038,494.1508 207.7138,515.4308 " fill="#FFFFFF" fill-opacity="0.00000" id="choice1-to-Estado4" style="stroke:#181818;stroke-width:1;"/><polygon fill="#181818" points="202.2,517.7969,212.048,517.9236,206.7948,515.8252,208.8933,510.5719,202.2,517.7969" style="stroke:#181818;stroke-width:1;"/><text fill="#000000" font-family="sans-serif" font-size="13" lengthAdjust="spacing" textLength="10.3848" x="279.14" y="496.3638">si</text></g><!--link choice1 to Estado5--><g id="link_choice1_Estado5"><path d="M354.47,461.4969 C361.84,473.7269 374.0243,493.9572 385.5043,513.0172 " fill="#FFFFFF" fill-opacity="0.00000" id="choice1-to-Estado5" style="stroke:#181818;stroke-width:1;"/><polygon fill="#181818" points="388.6,518.1569,387.3829,508.3835,386.0203,513.8738,380.53,512.5111,388.6,518.1569" style="stroke:#181818;stroke-width:1;"/><text fill="#000000" font-family="sans-serif" font-size="13" lengthAdjust="spacing" textLength="16.1929" x="378.14" y="496.3638">no</text></g><!--link Estado4 to Estado6--><g id="link_Estado4_Estado6"><path d="M210.2,568.7669 C240.32,580.0969 270.4036,591.416 300.5236,602.736 " fill="#FFFFFF" fill-opacity="0.00000" id="Estado4-to-Estado6" style="stroke:#181818;stroke-width:1;"/><polygon fill="#181818" points="306.14,604.8469,299.1226,597.9363,301.4596,603.0879,296.3081,605.4249,306.14,604.8469" style="stroke:#181818;stroke-width:1;"/></g><!--link Estado5 to Estado6--><g id="link_Estado5_Estado6"><path d="M394.05,568.4269 C389.76,579.8169 386.777,587.7627 382.467,599.1927 " fill="#FFFFFF" fill-opacity="0.00000" id="Estado5-to-Estado6" style="stroke:#181818;stroke-width:1;"/><polygon fill="#181818" points="380.35,604.8069,387.2682,597.797,382.1141,600.1284,379.7827,594.9744,380.35,604.8069" style="stroke:#181818;stroke-width:1;"/></g><!--link Estado6 to choice2--><g id="link_Estado6_choice2"><path d="M403.64,655.6769 C424.31,671.1769 444.471,686.2955 455.971,694.9255 " fill="#FFFFFF" fill-opacity="0.00000" id="Estado6-to-choice2" style="stroke:#181818;stroke-width:1;"/><polygon fill="#181818" points="460.77,698.5269,455.9724,689.9255,456.7708,695.5258,451.1706,696.3242,460.77,698.5269" style="stroke:#181818;stroke-width:1;"/></g><!--link choice2 to Estado2--><g id="link_choice2_Estado2"><path d="M476.34,701.1369 C500.37,694.8769 563.14,674.4269 563.14,631.2969 C563.14,378.2969 563.14,378.2969 563.14,378.2969 C563.14,351.2469 547.1095,334.4483 523.5695,320.7883 " fill="#FFFFFF" fill-opacity="0.00000" id="choice2-to-Estado2" style="stroke:#181818;stroke-width:1;"/><polygon fill="#181818" points="518.38,317.7769,524.1567,325.7537,522.7046,320.2864,528.1719,318.8343,518.38,317.7769" style="stroke:#181818;stroke-width:1;"/><text fill="#000000" font-family="sans-serif" font-size="13" lengthAdjust="spacing" textLength="91.1016" x="564.14" y="496.3638">Quedan datos</text></g><!--link choice2 to Estado7--><g id="link_choice2_Estado7"><path d="M467.14,716.7969 C467.14,729.9369 467.14,745.8069 467.14,762.8069 " fill="#FFFFFF" fill-opacity="0.00000" id="choice2-to-Estado7" style="stroke:#181818;stroke-width:1;"/><polygon fill="#181818" points="467.14,768.8069,471.14,759.8069,467.14,763.8069,463.14,759.8069,467.14,768.8069" style="stroke:#181818;stroke-width:1;"/><text fill="#000000" font-family="sans-serif" font-size="13" lengthAdjust="spacing" textLength="110.9316" x="468.14" y="747.3638">No quedan datos</text></g><!--link Estado7 to *end*ValidarDatos--><g id="link_Estado7_*end*ValidarDatos"><path d="M467.14,819.7269 C467.14,832.0869 467.14,840.4269 467.14,849.8969 " fill="#FFFFFF" fill-opacity="0.00000" id="Estado7-to-*end*ValidarDatos" style="stroke:#181818;stroke-width:1;"/><polygon fill="#181818" points="467.14,855.8969,471.14,846.8969,467.14,850.8969,463.14,846.8969,467.14,855.8969" style="stroke:#181818;stroke-width:1;"/></g><ellipse cx="336.12" cy="16" fill="#222222" rx="10" ry="10" style="stroke:#222222;stroke-width:1;"/><ellipse cx="336.12" cy="959.3" fill="#FFFFFF" fill-opacity="0.00000" rx="11" ry="11" style="stroke:#222222;stroke-width:1;"/><ellipse cx="336.12" cy="959.3" fill="#222222" rx="6" ry="6" style="stroke:#222222;stroke-width:1;"/><!--link *start* to ValidarDatos--><g id="link_*start*_ValidarDatos"><path d="M336.12,26.37 C336.12,37.74 336.12,52.78 336.12,79.83 " fill="#FFFFFF" fill-opacity="0.00000" id="*start*-to-ValidarDatos" style="stroke:#181818;stroke-width:1;"/><polygon fill="#181818" points="336.12,85.83,340.12,76.83,336.12,80.83,332.12,76.83,336.12,85.83" style="stroke:#181818;stroke-width:1;"/></g><!--link ValidarDatos to *end*--><g id="link_ValidarDatos_*end*"><path d="M336.12,888.67 C336.12,915.54 336.12,930.56 336.12,942.2 " fill="#FFFFFF" fill-opacity="0.00000" id="ValidarDatos-to-*end*" style="stroke:#181818;stroke-width:1;"/><polygon fill="#181818" points="336.12,948.2,340.12,939.2,336.12,943.2,332.12,939.2,336.12,948.2" style="stroke:#181818;stroke-width:1;"/></g><!--SRC=[ZLJDQiCm3BxlAKIFWnwQfYs4qjDw7Op2BcK7OIkRmRKxE-bXOq-rHzYBJNNIrlahyS48Vz9d-PFa_UCRJASRU4Mj9BedBAn_05vXymKMrC3WEm3djQz3j-mbxUnwVZMgwCbMmqxvWWu8HqUUJ86W-G114iX0AaapPdForZ7N1D1tQ6ks7MaIGbc33aeJuk683i7HINdrzskYw6HCBf8Ar9f24e7ENwzef3Bllh3ECP8XQM59XCs7918VLWcQmNfTMPjDYsKUM6gtBiib_dPLce5NT_151iQEgPYZTxPOtg3CANH2GvLqJB0oGadY3QF8nRZx3oMTgZuvzqlLE4SoKd7nAA9R3fKdZTwzR66BNgotFCbmUPPHUPAXyiITa6JmKfB4gd_z7SzL1iyMFlkSxwWchCcLOoDNXalsXU8y69Sn4pncaN2h8U5M8GyUyt3-S_iM6Xz2xVCF]--></g></svg>