<svg xmlns="http://www.w3.org/2000/svg" xmlns:xlink="http://www.w3.org/1999/xlink" contentStyleType="text/css" height="524px" preserveAspectRatio="none" style="width:444px;height:524px;background:#FFFFFF;" version="1.1" viewBox="0 0 444 524" width="444px" zoomAndPan="magnify"><defs/><g><ellipse cx="263" cy="16" fill="#222222" rx="10" ry="10" style="stroke:#222222;stroke-width:1.0;"/><g id="Usuario"><rect fill="#F1F1F1" height="50.2656" rx="12.5" ry="12.5" style="stroke:#181818;stroke-width:0.5;" width="131.2402" x="133.5" y="87"/><line style="stroke:#181818;stroke-width:0.5;" x1="133.5" x2="264.7402" y1="113.2969" y2="113.2969"/><text fill="#000000" font-family="sans-serif" font-size="14" lengthAdjust="spacing" textLength="53.2041" x="172.5181" y="104.9951">Usuario</text><text fill="#000000" font-family="sans-serif" font-size="12" lengthAdjust="spacing" textLength="111.2402" x="138.5" y="129.4355">Estado del usuario</text></g><g id="Alta"><rect fill="#F1F1F1" height="50.2656" rx="12.5" ry="12.5" style="stroke:#181818;stroke-width:0.5;" width="105.8516" x="7" y="214"/><line style="stroke:#181818;stroke-width:0.5;" x1="7" x2="112.8516" y1="240.2969" y2="240.2969"/><text fill="#000000" font-family="sans-serif" font-size="14" lengthAdjust="spacing" textLength="27.5352" x="46.1582" y="231.9951">Alta</text><text fill="#000000" font-family="sans-serif" font-size="12" lengthAdjust="spacing" textLength="85.8516" x="12" y="256.4355">Usuario activo</text></g><g id="NoAlta"><rect fill="#F1F1F1" height="50.2656" rx="12.5" ry="12.5" style="stroke:#181818;stroke-width:0.5;" width="116.791" x="148.5" y="214"/><line style="stroke:#181818;stroke-width:0.5;" x1="148.5" x2="265.291" y1="240.2969" y2="240.2969"/><text fill="#000000" font-family="sans-serif" font-size="14" lengthAdjust="spacing" textLength="46.5732" x="183.6089" y="231.9951">NoAlta</text><text fill="#000000" font-family="sans-serif" font-size="12" lengthAdjust="spacing" textLength="96.791" x="153.5" y="256.4355">Usuario inactivo</text></g><g id="Post"><rect fill="#F1F1F1" height="50.2656" rx="12.5" ry="12.5" style="stroke:#181818;stroke-width:0.5;" width="112.7305" x="136.5" y="341"/><line style="stroke:#181818;stroke-width:0.5;" x1="136.5" x2="249.2305" y1="367.2969" y2="367.2969"/><text fill="#000000" font-family="sans-serif" font-size="14" lengthAdjust="spacing" textLength="29.791" x="177.9697" y="358.9951">Post</text><text fill="#000000" font-family="sans-serif" font-size="12" lengthAdjust="spacing" textLength="92.7305" x="141.5" y="383.4355">Estado del post</text></g><g id="Resuelto"><rect fill="#F1F1F1" height="50.2656" rx="12.5" ry="12.5" style="stroke:#181818;stroke-width:0.5;" width="81.0654" x="55.5" y="468"/><line style="stroke:#181818;stroke-width:0.5;" x1="55.5" x2="136.5654" y1="494.2969" y2="494.2969"/><text fill="#000000" font-family="sans-serif" font-size="14" lengthAdjust="spacing" textLength="61.0654" x="65.5" y="485.9951">Resuelto</text><text fill="#000000" font-family="sans-serif" font-size="12" lengthAdjust="spacing" textLength="52.3418" x="60.5" y="510.4355">Resuelto</text></g><g id="NoResuelto"><rect fill="#F1F1F1" height="50.2656" rx="12.5" ry="12.5" style="stroke:#181818;stroke-width:0.5;" width="100.1035" x="240" y="468"/><line style="stroke:#181818;stroke-width:0.5;" x1="240" x2="340.1035" y1="494.2969" y2="494.2969"/><text fill="#000000" font-family="sans-serif" font-size="14" lengthAdjust="spacing" textLength="80.1035" x="250" y="485.9951">NoResuelto</text><text fill="#000000" font-family="sans-serif" font-size="12" lengthAdjust="spacing" textLength="69.0703" x="245" y="510.4355">No resuelto</text></g><!--link *start* to Usuario--><g id="link_*start*_Usuario"><path d="M257.76,24.69 C248.63,38.11 232.7966,61.3603 218.8266,81.8803 " fill="none" id="*start*-to-Usuario" style="stroke:#181818;stroke-width:1.0;"/><polygon fill="#181818" points="215.45,86.84,223.8213,81.6515,218.2638,82.7069,217.2084,77.1494,215.45,86.84" style="stroke:#181818;stroke-width:1.0;"/></g><!--link Usuario to Alta--><g id="link_Usuario_Alta"><path d="M143.95,137.09 C129.23,145.2 114.08,155.23 102,167 C88.36,180.29 80.1779,193.5461 72.9479,208.3861 " fill="none" id="Usuario-to-Alta" style="stroke:#181818;stroke-width:1.0;"/><polygon fill="#181818" points="70.32,213.78,77.8578,207.4411,72.5099,209.2851,70.6659,203.9372,70.32,213.78" style="stroke:#181818;stroke-width:1.0;"/><text fill="#000000" font-family="sans-serif" font-size="13" lengthAdjust="spacing" textLength="83.3384" x="103" y="180.0669">Dado de alta</text></g><!--link Usuario to NoAlta--><g id="link_Usuario_NoAlta"><path d="M196.29,137.04 C195.15,150.82 194.43,168.41 196,184 C197,193.9 197.7205,198.808 199.7505,208.108 " fill="none" id="Usuario-to-NoAlta" style="stroke:#181818;stroke-width:1.0;"/><polygon fill="#181818" points="201.03,213.97,203.0187,204.324,199.9637,209.085,195.2027,206.0301,201.03,213.97" style="stroke:#181818;stroke-width:1.0;"/><text fill="#000000" font-family="sans-serif" font-size="13" lengthAdjust="spacing" textLength="103.3906" x="197" y="180.0669">No dado de alta</text></g><!--link *start* to Post--><g id="link_*start*_Post"><path d="M267.39,25.21 C279.76,49.26 313.4,121.78 305,184 C300.07,220.54 300.62,231.61 283,264 C266.84,293.71 244.7319,317.8195 224.6819,336.8495 " fill="none" id="*start*-to-Post" style="stroke:#181818;stroke-width:1.0;"/><polygon fill="#181818" points="220.33,340.98,229.6115,337.6855,223.9566,337.5379,224.1042,331.883,220.33,340.98" style="stroke:#181818;stroke-width:1.0;"/></g><!--link Alta to Post--><g id="link_Alta_Post"><path d="M85.64,264.1 C109.2,286.24 139.5383,314.7504 163.0583,336.8604 " fill="none" id="Alta-to-Post" style="stroke:#181818;stroke-width:1.0;"/><polygon fill="#181818" points="167.43,340.97,163.6122,331.8912,163.787,337.5454,158.1328,337.7201,167.43,340.97" style="stroke:#181818;stroke-width:1.0;"/><text fill="#000000" font-family="sans-serif" font-size="13" lengthAdjust="spacing" textLength="30.3862" x="135" y="307.0669">Crea</text></g><!--link Post to Resuelto--><g id="link_Post_Resuelto"><path d="M136.27,384.72 C119.36,392.95 102.75,404.65 93,421 C84.72,434.88 84.514,447.2684 87.444,461.7984 " fill="none" id="Post-to-Resuelto" style="stroke:#181818;stroke-width:1.0;"/><polygon fill="#181818" points="88.63,467.68,90.772,458.0669,87.6416,462.7787,82.9299,459.6483,88.63,467.68" style="stroke:#181818;stroke-width:1.0;"/><text fill="#000000" font-family="sans-serif" font-size="13" lengthAdjust="spacing" textLength="152.8452" x="94" y="434.0669">Marcado como resuelto</text></g><!--link Post to NoResuelto--><g id="link_Post_NoResuelto"><path d="M222.54,391.16 C232.27,399.96 242.72,410.36 251,421 C262.23,435.42 269.482,448.121 276.482,462.421 " fill="none" id="Post-to-NoResuelto" style="stroke:#181818;stroke-width:1.0;"/><polygon fill="#181818" points="279.12,467.81,278.7557,457.9679,276.9217,463.3192,271.5704,461.4852,279.12,467.81" style="stroke:#181818;stroke-width:1.0;"/><text fill="#000000" font-family="sans-serif" font-size="13" lengthAdjust="spacing" textLength="173.1704" x="263" y="434.0669">Marcado como no resuelto</text></g><!--SRC=[TS_12i8m30RWUvyYPs4li8CWwj4YWgVX8NGz5EeYRRVdjt6fQmLFJVvyWNJOFQ3hzd2FCmP7IbxeuHmJZWIZzJ3_37dXu1DcTLeDO6wRkIOHEizh976nQ99RI7rvoTqaaq4kl59CwtBfUZW6YuhBzjuNqq_Cz6RZR7tYFrqm64Q6dWH1yarg-cUdYbUcbAhPr1j-0m00]--></g></svg>