<svg xmlns="http://www.w3.org/2000/svg" xmlns:xlink="http://www.w3.org/1999/xlink" contentStyleType="text/css" height="562px" preserveAspectRatio="none" style="width:465px;height:562px;background:#FFFFFF;" version="1.1" viewBox="0 0 465 562" width="465px" zoomAndPan="magnify"><defs/><g><!--class Profesor--><g id="elem_Profesor"><rect codeLine="1" fill="#F1F1F1" height="48" id="Profesor" rx="2.5" ry="2.5" style="stroke:#181818;stroke-width:0.5;" width="89.9209" x="110.25" y="7"/><ellipse cx="125.25" cy="23" fill="#ADD1B2" rx="11" ry="11" style="stroke:#181818;stroke-width:1.0;"/><path d="M128.2188,28.6406 Q127.6406,28.9375 127,29.0781 Q126.3594,29.2344 125.6563,29.2344 Q123.1563,29.2344 121.8281,27.5938 Q120.5156,25.9375 120.5156,22.8125 Q120.5156,19.6875 121.8281,18.0313 Q123.1563,16.375 125.6563,16.375 Q126.3594,16.375 127,16.5313 Q127.6563,16.6875 128.2188,16.9844 L128.2188,19.7031 Q127.5938,19.125 127,18.8594 Q126.4063,18.5781 125.7813,18.5781 Q124.4375,18.5781 123.75,19.6563 Q123.0625,20.7188 123.0625,22.8125 Q123.0625,24.9063 123.75,25.9844 Q124.4375,27.0469 125.7813,27.0469 Q126.4063,27.0469 127,26.7813 Q127.5938,26.5 128.2188,25.9219 L128.2188,28.6406 Z " fill="#000000"/><text fill="#000000" font-family="sans-serif" font-size="14" lengthAdjust="spacing" textLength="57.9209" x="139.25" y="27.8467">Profesor</text><line style="stroke:#181818;stroke-width:0.5;" x1="111.25" x2="199.1709" y1="39" y2="39"/><line style="stroke:#181818;stroke-width:0.5;" x1="111.25" x2="199.1709" y1="47" y2="47"/></g><!--class Titulacion--><g id="elem_Titulacion"><rect codeLine="5" fill="#F1F1F1" height="48" id="Titulacion" rx="2.5" ry="2.5" style="stroke:#181818;stroke-width:0.5;" width="100.2979" x="15.25" y="382"/><ellipse cx="30.25" cy="398" fill="#ADD1B2" rx="11" ry="11" style="stroke:#181818;stroke-width:1.0;"/><path d="M33.2188,403.6406 Q32.6406,403.9375 32,404.0781 Q31.3594,404.2344 30.6563,404.2344 Q28.1563,404.2344 26.8281,402.5938 Q25.5156,400.9375 25.5156,397.8125 Q25.5156,394.6875 26.8281,393.0313 Q28.1563,391.375 30.6563,391.375 Q31.3594,391.375 32,391.5313 Q32.6563,391.6875 33.2188,391.9844 L33.2188,394.7031 Q32.5938,394.125 32,393.8594 Q31.4063,393.5781 30.7813,393.5781 Q29.4375,393.5781 28.75,394.6563 Q28.0625,395.7188 28.0625,397.8125 Q28.0625,399.9063 28.75,400.9844 Q29.4375,402.0469 30.7813,402.0469 Q31.4063,402.0469 32,401.7813 Q32.5938,401.5 33.2188,400.9219 L33.2188,403.6406 Z " fill="#000000"/><text fill="#000000" font-family="sans-serif" font-size="14" lengthAdjust="spacing" textLength="68.2979" x="44.25" y="402.8467">Titulacion</text><line style="stroke:#181818;stroke-width:0.5;" x1="16.25" x2="114.5479" y1="414" y2="414"/><line style="stroke:#181818;stroke-width:0.5;" x1="16.25" x2="114.5479" y1="422" y2="422"/></g><!--class Asignatura--><g id="elem_Asignatura"><rect codeLine="9" fill="#F1F1F1" height="48" id="Asignatura" rx="2.5" ry="2.5" style="stroke:#181818;stroke-width:0.5;" width="107.7969" x="108.25" y="257"/><ellipse cx="123.25" cy="273" fill="#ADD1B2" rx="11" ry="11" style="stroke:#181818;stroke-width:1.0;"/><path d="M126.2188,278.6406 Q125.6406,278.9375 125,279.0781 Q124.3594,279.2344 123.6563,279.2344 Q121.1563,279.2344 119.8281,277.5938 Q118.5156,275.9375 118.5156,272.8125 Q118.5156,269.6875 119.8281,268.0313 Q121.1563,266.375 123.6563,266.375 Q124.3594,266.375 125,266.5313 Q125.6563,266.6875 126.2188,266.9844 L126.2188,269.7031 Q125.5938,269.125 125,268.8594 Q124.4063,268.5781 123.7813,268.5781 Q122.4375,268.5781 121.75,269.6563 Q121.0625,270.7188 121.0625,272.8125 Q121.0625,274.9063 121.75,275.9844 Q122.4375,277.0469 123.7813,277.0469 Q124.4063,277.0469 125,276.7813 Q125.5938,276.5 126.2188,275.9219 L126.2188,278.6406 Z " fill="#000000"/><text fill="#000000" font-family="sans-serif" font-size="14" lengthAdjust="spacing" textLength="75.7969" x="137.25" y="277.8467">Asignatura</text><line style="stroke:#181818;stroke-width:0.5;" x1="109.25" x2="215.0469" y1="289" y2="289"/><line style="stroke:#181818;stroke-width:0.5;" x1="109.25" x2="215.0469" y1="297" y2="297"/></g><!--class MemoriaAcademica--><g id="elem_MemoriaAcademica"><rect codeLine="13" fill="#F1F1F1" height="48" id="MemoriaAcademica" rx="2.5" ry="2.5" style="stroke:#181818;stroke-width:0.5;" width="170.2773" x="155.25" y="132"/><ellipse cx="170.25" cy="148" fill="#ADD1B2" rx="11" ry="11" style="stroke:#181818;stroke-width:1.0;"/><path d="M173.2188,153.6406 Q172.6406,153.9375 172,154.0781 Q171.3594,154.2344 170.6563,154.2344 Q168.1563,154.2344 166.8281,152.5938 Q165.5156,150.9375 165.5156,147.8125 Q165.5156,144.6875 166.8281,143.0313 Q168.1563,141.375 170.6563,141.375 Q171.3594,141.375 172,141.5313 Q172.6563,141.6875 173.2188,141.9844 L173.2188,144.7031 Q172.5938,144.125 172,143.8594 Q171.4063,143.5781 170.7813,143.5781 Q169.4375,143.5781 168.75,144.6563 Q168.0625,145.7188 168.0625,147.8125 Q168.0625,149.9063 168.75,150.9844 Q169.4375,152.0469 170.7813,152.0469 Q171.4063,152.0469 172,151.7813 Q172.5938,151.5 173.2188,150.9219 L173.2188,153.6406 Z " fill="#000000"/><text fill="#000000" font-family="sans-serif" font-size="14" lengthAdjust="spacing" textLength="138.2773" x="184.25" y="152.8467">MemoriaAcademica</text><line style="stroke:#181818;stroke-width:0.5;" x1="156.25" x2="324.5273" y1="164" y2="164"/><line style="stroke:#181818;stroke-width:0.5;" x1="156.25" x2="324.5273" y1="172" y2="172"/></g><!--class Departamento--><g id="elem_Departamento"><rect codeLine="17" fill="#F1F1F1" height="48" id="Departamento" rx="2.5" ry="2.5" style="stroke:#181818;stroke-width:0.5;" width="133.8623" x="154.25" y="507"/><ellipse cx="169.25" cy="523" fill="#ADD1B2" rx="11" ry="11" style="stroke:#181818;stroke-width:1.0;"/><path d="M172.2188,528.6406 Q171.6406,528.9375 171,529.0781 Q170.3594,529.2344 169.6563,529.2344 Q167.1563,529.2344 165.8281,527.5938 Q164.5156,525.9375 164.5156,522.8125 Q164.5156,519.6875 165.8281,518.0313 Q167.1563,516.375 169.6563,516.375 Q170.3594,516.375 171,516.5313 Q171.6563,516.6875 172.2188,516.9844 L172.2188,519.7031 Q171.5938,519.125 171,518.8594 Q170.4063,518.5781 169.7813,518.5781 Q168.4375,518.5781 167.75,519.6563 Q167.0625,520.7188 167.0625,522.8125 Q167.0625,524.9063 167.75,525.9844 Q168.4375,527.0469 169.7813,527.0469 Q170.4063,527.0469 171,526.7813 Q171.5938,526.5 172.2188,525.9219 L172.2188,528.6406 Z " fill="#000000"/><text fill="#000000" font-family="sans-serif" font-size="14" lengthAdjust="spacing" textLength="101.8623" x="183.25" y="527.8467">Departamento</text><line style="stroke:#181818;stroke-width:0.5;" x1="155.25" x2="287.1123" y1="539" y2="539"/><line style="stroke:#181818;stroke-width:0.5;" x1="155.25" x2="287.1123" y1="547" y2="547"/></g><!--class PlanEstudios--><g id="elem_PlanEstudios"><rect codeLine="21" fill="#F1F1F1" height="48" id="PlanEstudios" rx="2.5" ry="2.5" style="stroke:#181818;stroke-width:0.5;" width="120.9219" x="150.75" y="382"/><ellipse cx="165.75" cy="398" fill="#ADD1B2" rx="11" ry="11" style="stroke:#181818;stroke-width:1.0;"/><path d="M168.7188,403.6406 Q168.1406,403.9375 167.5,404.0781 Q166.8594,404.2344 166.1563,404.2344 Q163.6563,404.2344 162.3281,402.5938 Q161.0156,400.9375 161.0156,397.8125 Q161.0156,394.6875 162.3281,393.0313 Q163.6563,391.375 166.1563,391.375 Q166.8594,391.375 167.5,391.5313 Q168.1563,391.6875 168.7188,391.9844 L168.7188,394.7031 Q168.0938,394.125 167.5,393.8594 Q166.9063,393.5781 166.2813,393.5781 Q164.9375,393.5781 164.25,394.6563 Q163.5625,395.7188 163.5625,397.8125 Q163.5625,399.9063 164.25,400.9844 Q164.9375,402.0469 166.2813,402.0469 Q166.9063,402.0469 167.5,401.7813 Q168.0938,401.5 168.7188,400.9219 L168.7188,403.6406 Z " fill="#000000"/><text fill="#000000" font-family="sans-serif" font-size="14" lengthAdjust="spacing" textLength="88.9219" x="179.75" y="402.8467">PlanEstudios</text><line style="stroke:#181818;stroke-width:0.5;" x1="151.75" x2="270.6719" y1="414" y2="414"/><line style="stroke:#181818;stroke-width:0.5;" x1="151.75" x2="270.6719" y1="422" y2="422"/></g><!--link Profesor to Titulacion--><g id="link_Profesor_Titulacion"><path codeLine="25" d="M123.96,55.15 C113.47,63.81 102.17,74.19 93.25,85 C52.58,134.28 38.57,148.23 22.25,210 C6,271.5 32.521,339.6318 50.331,376.3418 " fill="none" id="Profesor-to-Titulacion" style="stroke:#181818;stroke-width:1.0;"/><polygon fill="#181818" points="52.95,381.74,52.6204,371.8967,50.7675,377.2415,45.4227,375.3886,52.95,381.74" style="stroke:#181818;stroke-width:1.0;"/><text fill="#000000" font-family="sans-serif" font-size="13" lengthAdjust="spacing" textLength="71.3032" x="23.25" y="223.0669">imparte en</text></g><!--link Profesor to Asignatura--><g id="link_Profesor_Asignatura"><path codeLine="26" d="M132.78,55.22 C107.91,83.84 73.19,134.33 88.25,180 C98.06,209.74 116.3994,233.4899 134.0094,252.2999 " fill="none" id="Profesor-to-Asignatura" style="stroke:#181818;stroke-width:1.0;"/><polygon fill="#181818" points="138.11,256.68,134.8791,247.3762,134.6928,253.03,129.039,252.8437,138.11,256.68" style="stroke:#181818;stroke-width:1.0;"/><text fill="#000000" font-family="sans-serif" font-size="13" lengthAdjust="spacing" textLength="47.2139" x="89.25" y="160.5669">ense&#241;a</text></g><!--link Asignatura to Titulacion--><g id="link_Asignatura_Titulacion"><path codeLine="27" d="M127.21,305.12 C116.28,313.57 104.85,323.82 96.25,335 C85.47,349.01 79.5517,361.7109 74.4017,376.1009 " fill="none" id="Asignatura-to-Titulacion" style="stroke:#181818;stroke-width:1.0;"/><polygon fill="#181818" points="72.38,381.75,79.1787,374.6242,74.0648,377.0424,71.6465,371.9285,72.38,381.75" style="stroke:#181818;stroke-width:1.0;"/><text fill="#000000" font-family="sans-serif" font-size="13" lengthAdjust="spacing" textLength="78.1714" x="97.25" y="348.0669">pertenece a</text></g><!--link MemoriaAcademica to Asignatura--><g id="link_MemoriaAcademica_Asignatura"><path codeLine="28" d="M225.58,180.14 C211.63,202.13 193.9923,229.9423 180.0723,251.9023 " fill="none" id="MemoriaAcademica-to-Asignatura" style="stroke:#181818;stroke-width:1.0;"/><polygon fill="#181818" points="176.86,256.97,185.0569,251.51,179.5369,252.7469,178.3,247.227,176.86,256.97" style="stroke:#181818;stroke-width:1.0;"/><text fill="#000000" font-family="sans-serif" font-size="13" lengthAdjust="spacing" textLength="88.4102" x="207.25" y="223.0669">reporta sobre</text></g><!--link Profesor to MemoriaAcademica--><g id="link_Profesor_MemoriaAcademica"><path codeLine="29" d="M171.24,55.14 C186.43,77.13 205.7498,105.0734 220.9198,127.0334 " fill="none" id="Profesor-to-MemoriaAcademica" style="stroke:#181818;stroke-width:1.0;"/><polygon fill="#181818" points="224.33,131.97,222.5057,122.2916,221.4881,127.8561,215.9236,126.8385,224.33,131.97" style="stroke:#181818;stroke-width:1.0;"/><text fill="#000000" font-family="sans-serif" font-size="13" lengthAdjust="spacing" textLength="49.0928" x="204.25" y="98.0669">elabora</text></g><!--link Asignatura to PlanEstudios--><g id="link_Asignatura_PlanEstudios"><path codeLine="30" d="M171.47,305.14 C180.23,327.13 191.1113,354.4353 199.8513,376.3953 " fill="none" id="Asignatura-to-PlanEstudios" style="stroke:#181818;stroke-width:1.0;"/><polygon fill="#181818" points="202.07,381.97,202.4584,372.1288,200.2211,377.3244,195.0255,375.0871,202.07,381.97" style="stroke:#181818;stroke-width:1.0;"/><text fill="#000000" font-family="sans-serif" font-size="13" lengthAdjust="spacing" textLength="97.6777" x="191.25" y="348.0669">forma parte de</text></g><!--link Profesor to Departamento--><g id="link_Profesor_Departamento"><path codeLine="31" d="M200.38,36.72 C265.54,46.31 378.25,74.53 378.25,155 C378.25,155 378.25,155 378.25,407 C378.25,455.65 336.4297,485.4837 293.7597,504.7237 " fill="none" id="Profesor-to-Departamento" style="stroke:#181818;stroke-width:1.0;"/><polygon fill="#181818" points="288.29,507.19,298.1387,507.137,292.8481,505.1348,294.8503,499.8441,288.29,507.19" style="stroke:#181818;stroke-width:1.0;"/><text fill="#000000" font-family="sans-serif" font-size="13" lengthAdjust="spacing" textLength="78.1714" x="379.25" y="285.5669">pertenece a</text></g><!--link Titulacion to Departamento--><g id="link_Titulacion_Departamento"><path codeLine="32" d="M94.59,430.14 C122.48,452.13 159.4785,481.2949 187.3285,503.2549 " fill="none" id="Titulacion-to-Departamento" style="stroke:#181818;stroke-width:1.0;"/><polygon fill="#181818" points="192.04,506.97,187.4495,498.2564,188.1137,503.8741,182.496,504.5384,192.04,506.97" style="stroke:#181818;stroke-width:1.0;"/><text fill="#000000" font-family="sans-serif" font-size="13" lengthAdjust="spacing" textLength="80.2915" x="154.25" y="473.0669">se ofrece en</text></g><!--SRC=[RP0n3i8m34NtdCBgpWKOa91WH6BW0YPrKQGchknqGXoACt0nN2f1cv3H__ddV_iULU4it96omDs1FVTmpd-4IyXZZpvmcgMVijTmIvX7mMhfH94buDvZIp5uB5SFDA1aZ9GobzgvntJKFBQ1rJIRks-upMQt3BI59iJ9YO1IiyOMwGoZfFHwOkCMuzfi8BDAv0cCh3hKha83MmrGlWeL_rVhKueUhonrYbLbupgMY30NQqlZrUtAq8i-_rWbu4ucrkxr1W00]--></g></svg>