<svg xmlns="http://www.w3.org/2000/svg" xmlns:xlink="http://www.w3.org/1999/xlink" contentStyleType="text/css" data-diagram-type="STATE" height="735px" preserveAspectRatio="none" style="width:466px;height:735px;background:#FFFFFF;" version="1.1" viewBox="0 0 466 735" width="466px" zoomAndPan="magnify"><defs/><g><g id="Profesor_Seleccionado"><rect fill="#F1F1F1" height="50.2656" rx="12.5" ry="12.5" style="stroke:#181818;stroke-width:0.5;" width="208.8477" x="100.83" y="87"/><line style="stroke:#181818;stroke-width:0.5;" x1="100.83" x2="309.6777" y1="113.2969" y2="113.2969"/><text fill="#000000" font-family="sans-serif" font-size="14" lengthAdjust="spacing" textLength="157.6777" x="126.415" y="104.9951">Profesor_Seleccionado</text><text fill="#000000" font-family="sans-serif" font-size="12" lengthAdjust="spacing" textLength="188.8477" x="105.83" y="129.4355">Profesor disponible y verificado</text></g><g id="Asignatura_Asignada"><rect fill="#F1F1F1" height="50.2656" rx="12.5" ry="12.5" style="stroke:#181818;stroke-width:0.5;" width="228.0078" x="91.25" y="214.27"/><line style="stroke:#181818;stroke-width:0.5;" x1="91.25" x2="319.2578" y1="240.5669" y2="240.5669"/><text fill="#000000" font-family="sans-serif" font-size="14" lengthAdjust="spacing" textLength="147.3623" x="131.5728" y="232.2651">Asignatura_Asignada</text><text fill="#000000" font-family="sans-serif" font-size="12" lengthAdjust="spacing" textLength="208.0078" x="96.25" y="256.7055">Grupos y compatibilidad revisados</text></g><g id="Carga_Validada"><rect fill="#F1F1F1" height="50.2656" rx="12.5" ry="12.5" style="stroke:#181818;stroke-width:0.5;" width="179.9082" x="115.3" y="341.53"/><line style="stroke:#181818;stroke-width:0.5;" x1="115.3" x2="295.2082" y1="367.8269" y2="367.8269"/><text fill="#000000" font-family="sans-serif" font-size="14" lengthAdjust="spacing" textLength="109.4434" x="150.5324" y="359.5251">Carga_Validada</text><text fill="#000000" font-family="sans-serif" font-size="12" lengthAdjust="spacing" textLength="159.9082" x="120.3" y="383.9655">EQ TC y balance revisados</text></g><g id="Ajuste_Necesario"><rect fill="#F1F1F1" height="50.2656" rx="12.5" ry="12.5" style="stroke:#181818;stroke-width:0.5;" width="144.5059" x="7" y="468.8"/><line style="stroke:#181818;stroke-width:0.5;" x1="7" x2="151.5059" y1="495.0969" y2="495.0969"/><text fill="#000000" font-family="sans-serif" font-size="14" lengthAdjust="spacing" textLength="120.2168" x="19.1445" y="486.7951">Ajuste_Necesario</text><text fill="#000000" font-family="sans-serif" font-size="12" lengthAdjust="spacing" textLength="124.5059" x="12" y="511.2355">Ajustar proporciones</text></g><g id="Revisi&#243;n_Legal"><rect fill="#F1F1F1" height="50.2656" rx="12.5" ry="12.5" style="stroke:#181818;stroke-width:0.5;" width="141.7871" x="192.36" y="468.8"/><line style="stroke:#181818;stroke-width:0.5;" x1="192.36" x2="334.1471" y1="495.0969" y2="495.0969"/><text fill="#000000" font-family="sans-serif" font-size="14" lengthAdjust="spacing" textLength="103.9063" x="211.3004" y="486.7951">Revisi&#243;n_Legal</text><text fill="#000000" font-family="sans-serif" font-size="12" lengthAdjust="spacing" textLength="121.7871" x="197.36" y="511.2355">Verificar normativas</text></g><g id="Asignacion_Completa"><rect fill="#F1F1F1" height="50.2656" rx="12.5" ry="12.5" style="stroke:#181818;stroke-width:0.5;" width="170.5615" x="95.97" y="596.06"/><line style="stroke:#181818;stroke-width:0.5;" x1="95.97" x2="266.5315" y1="622.3569" y2="622.3569"/><text fill="#000000" font-family="sans-serif" font-size="14" lengthAdjust="spacing" textLength="150.5615" x="105.97" y="614.0551">Asignacion_Completa</text><text fill="#000000" font-family="sans-serif" font-size="12" lengthAdjust="spacing" textLength="79.5703" x="100.97" y="638.4955">Registro final</text></g><ellipse cx="205.25" cy="16" fill="#222222" rx="10" ry="10" style="stroke:#222222;stroke-width:1;"/><g id="No_Valido"><rect fill="#F1F1F1" height="50" rx="12.5" ry="12.5" style="stroke:#181818;stroke-width:0.5;" width="89.4258" x="302.54" y="596.2"/><line style="stroke:#181818;stroke-width:0.5;" x1="302.54" x2="391.9658" y1="622.4969" y2="622.4969"/><text fill="#000000" font-family="sans-serif" font-size="14" lengthAdjust="spacing" textLength="69.4258" x="312.54" y="614.1951">No_Valido</text></g><ellipse cx="263.25" cy="718.33" fill="none" rx="11" ry="11" style="stroke:#222222;stroke-width:1;"/><ellipse cx="263.25" cy="718.33" fill="#222222" rx="6" ry="6" style="stroke:#222222;stroke-width:1;"/><!--link *start* to Profesor_Seleccionado--><g id="link_*start*_Profesor_Seleccionado"><path d="M205.25,26.37 C205.25,40.32 205.25,61.03 205.25,80.75 " fill="none" id="*start*-to-Profesor_Seleccionado" style="stroke:#181818;stroke-width:1;"/><polygon fill="#181818" points="205.25,86.75,209.25,77.75,205.25,81.75,201.25,77.75,205.25,86.75" style="stroke:#181818;stroke-width:1;"/></g><!--link Profesor_Seleccionado to Asignatura_Asignada--><g id="link_Profesor_Seleccionado_Asignatura_Asignada"><path d="M205.25,137.58 C205.25,159.66 205.25,185.96 205.25,208.01 " fill="none" id="Profesor_Seleccionado-to-Asignatura_Asignada" style="stroke:#181818;stroke-width:1;"/><polygon fill="#181818" points="205.25,214.01,209.25,205.01,205.25,209.01,201.25,205.01,205.25,214.01" style="stroke:#181818;stroke-width:1;"/><text fill="#000000" font-family="sans-serif" font-size="13" lengthAdjust="spacing" textLength="122.6685" x="206.25" y="180.3369">Asignar asignatura</text></g><!--link Asignatura_Asignada to Carga_Validada--><g id="link_Asignatura_Asignada_Carga_Validada"><path d="M205.25,264.85 C205.25,286.92 205.25,313.22 205.25,335.28 " fill="none" id="Asignatura_Asignada-to-Carga_Validada" style="stroke:#181818;stroke-width:1;"/><polygon fill="#181818" points="205.25,341.28,209.25,332.28,205.25,336.28,201.25,332.28,205.25,341.28" style="stroke:#181818;stroke-width:1;"/><text fill="#000000" font-family="sans-serif" font-size="13" lengthAdjust="spacing" textLength="109.3447" x="206.25" y="307.5969">Carga registrada</text></g><!--link Carga_Validada to Ajuste_Necesario--><g id="link_Carga_Validada_Ajuste_Necesario"><path d="M114.87,386.3 C96.92,394.25 80.24,405.6 69.25,421.8 C60.01,435.42 61.0221,448.2316 66.0421,462.9416 " fill="none" id="Carga_Validada-to-Ajuste_Necesario" style="stroke:#181818;stroke-width:1;"/><polygon fill="#181818" points="67.98,468.62,68.8589,458.8104,66.3651,463.888,61.2876,461.3942,67.98,468.62" style="stroke:#181818;stroke-width:1;"/><text fill="#000000" font-family="sans-serif" font-size="13" lengthAdjust="spacing" textLength="108.5894" x="70.25" y="434.8669">Carga incorrecta</text></g><!--link Ajuste_Necesario to Carga_Validada--><g id="link_Ajuste_Necesario_Carga_Validada"><path d="M145.69,468.34 C159.63,460.65 173.15,450.91 183.25,438.8 C194.27,425.6 198.691,412.8103 201.441,397.9103 " fill="none" id="Ajuste_Necesario-to-Carga_Validada" style="stroke:#181818;stroke-width:1;"/><polygon fill="#181818" points="202.53,392.01,196.9629,400.1345,201.6225,396.927,204.8301,401.5865,202.53,392.01" style="stroke:#181818;stroke-width:1;"/></g><!--link Carga_Validada to Revisi?n_Legal--><g id="link_Carga_Validada_Revisi&#243;n_Legal"><path d="M216.57,392.12 C226.79,414.19 239.2289,441.0454 249.4389,463.0954 " fill="none" id="Carga_Validada-to-Revisi&#243;n_Legal" style="stroke:#181818;stroke-width:1;"/><polygon fill="#181818" points="251.96,468.54,251.8081,458.6923,249.8591,464.0028,244.5486,462.0538,251.96,468.54" style="stroke:#181818;stroke-width:1;"/><text fill="#000000" font-family="sans-serif" font-size="13" lengthAdjust="spacing" textLength="96.7383" x="239.25" y="434.8669">Carga correcta</text></g><!--link Revisi?n_Legal to No_Valido--><g id="link_Revisi&#243;n_Legal_No_Valido"><path d="M285.95,519.38 C293.78,528.38 302.31,538.87 309.25,549.06 C319.34,563.88 326.1781,576.2828 333.1481,590.3628 " fill="none" id="Revisi&#243;n_Legal-to-No_Valido" style="stroke:#181818;stroke-width:1;"/><polygon fill="#181818" points="335.81,595.74,335.402,585.8996,333.5918,591.259,328.2324,589.4488,335.81,595.74" style="stroke:#181818;stroke-width:1;"/><text fill="#000000" font-family="sans-serif" font-size="13" lengthAdjust="spacing" textLength="137.5093" x="321.25" y="562.1269">No cumple requisitos</text></g><!--link Revisi?n_Legal to Asignacion_Completa--><g id="link_Revisi&#243;n_Legal_Asignacion_Completa"><path d="M205.33,519.46 C193.7,527.17 182.99,536.93 176.25,549.06 C168.44,563.13 168.5201,575.4092 171.8001,589.8392 " fill="none" id="Revisi&#243;n_Legal-to-Asignacion_Completa" style="stroke:#181818;stroke-width:1;"/><polygon fill="#181818" points="173.13,595.69,175.0357,586.0273,172.0217,590.8144,167.2346,587.8005,173.13,595.69" style="stroke:#181818;stroke-width:1;"/><text fill="#000000" font-family="sans-serif" font-size="13" lengthAdjust="spacing" textLength="127.2832" x="177.25" y="562.1269">Cumple normativas</text></g><!--link Asignacion_Completa to *end*--><g id="link_Asignacion_Completa_*end*"><path d="M202.37,646.7 C220.21,667.4 240.7626,691.2453 252.5026,704.8653 " fill="none" id="Asignacion_Completa-to-*end*" style="stroke:#181818;stroke-width:1;"/><polygon fill="#181818" points="256.42,709.41,253.5737,699.9814,253.1555,705.6228,247.5141,705.2046,256.42,709.41" style="stroke:#181818;stroke-width:1;"/></g><!--link No_Valido to *end*--><g id="link_No_Valido_*end*"><path d="M325.62,646.7 C307.34,667.4 286.252,691.293 274.222,704.913 " fill="none" id="No_Valido-to-*end*" style="stroke:#181818;stroke-width:1;"/><polygon fill="#181818" points="270.25,709.41,279.206,705.3125,273.56,705.6625,273.21,700.0165,270.25,709.41" style="stroke:#181818;stroke-width:1;"/></g><!--SRC=[RPB1QiCm38RlUGgV2ts17GQZZ5r6sRhHIob1TTIWaLgPx1J6s5Fj4VPYi-CcRHpxPEJ_bpvBsYtsQhcyLo_2HxGivHisg3MnWOgBmZfmc7zKtuNo9_zsDyPLHRPbGuS6rPSwez2HTCZzKnHvRy1vi5GRS9r06QyL-9pnAWh6ru4mfuzy-KnFqhLiFP3cKmkE3jHG1PKIF9Fr43RWvQm1RWLIGxc5tXAozG7lhSawyQ61AX56e9dxyLMzhppA0Hem6gSCYRhlpKTd7PPhr6X1Y4S0Cff5K3l8sJOXBVtzcl8PQsX6r-WPMfccl_HnNhKF-N6qmYrB61_6lgNIUTE6OYbKh3L7tLxsHfHXEVc1dQ4lbIf3fJN7CW5npKftfxO9NVtilDJvjkPCSS3X3-MAWy7rWutUcvgJVPlAR_SjJRI9ky7gI0QQwt9DTG5ajzWNrnzS8ly0]--></g></svg>