<svg xmlns="http://www.w3.org/2000/svg" xmlns:xlink="http://www.w3.org/1999/xlink" contentStyleType="text/css" height="862px" preserveAspectRatio="none" style="width:1078px;height:862px;background:#FFFFFF;" version="1.1" viewBox="0 0 1078 862" width="1078px" zoomAndPan="magnify"><defs/><g><!--cluster UNEATLANTICO--><g id="cluster_UNEATLANTICO"><path d="M8.5,6 L130.9404,6 A3.75,3.75 0 0 1 133.4404,8.5 L140.4404,28.2969 L1014.5,28.2969 A2.5,2.5 0 0 1 1017,30.7969 L1017,852.5 A2.5,2.5 0 0 1 1014.5,855 L8.5,855 A2.5,2.5 0 0 1 6,852.5 L6,8.5 A2.5,2.5 0 0 1 8.5,6 " fill="none" style="stroke:#000000;stroke-width:1.5;"/><line style="stroke:#000000;stroke-width:1.5;" x1="6" x2="140.4404" y1="28.2969" y2="28.2969"/><text fill="#000000" font-family="sans-serif" font-size="14" font-weight="bold" lengthAdjust="spacing" textLength="121.4404" x="10" y="20.9951">UNEATLANTICO</text></g><!--class Profesor--><g id="elem_Profesor"><rect codeLine="2" fill="#F1F1F1" height="194.6719" id="Profesor" rx="2.5" ry="2.5" style="stroke:#181818;stroke-width:0.5;" width="172.6445" x="477.5" y="41"/><ellipse cx="530.6118" cy="57" fill="#ADD1B2" rx="11" ry="11" style="stroke:#181818;stroke-width:1;"/><path d="M533.5806,62.6406 Q533.0024,62.9375 532.3618,63.0781 Q531.7212,63.2344 531.0181,63.2344 Q528.5181,63.2344 527.1899,61.5938 Q525.8774,59.9375 525.8774,56.8125 Q525.8774,53.6875 527.1899,52.0313 Q528.5181,50.375 531.0181,50.375 Q531.7212,50.375 532.3618,50.5313 Q533.0181,50.6875 533.5806,50.9844 L533.5806,53.7031 Q532.9556,53.125 532.3618,52.8594 Q531.7681,52.5781 531.1431,52.5781 Q529.7993,52.5781 529.1118,53.6563 Q528.4243,54.7188 528.4243,56.8125 Q528.4243,58.9063 529.1118,59.9844 Q529.7993,61.0469 531.1431,61.0469 Q531.7681,61.0469 532.3618,60.7813 Q532.9556,60.5 533.5806,59.9219 L533.5806,62.6406 Z " fill="#000000"/><text fill="#000000" font-family="sans-serif" font-size="14" lengthAdjust="spacing" textLength="57.9209" x="551.1118" y="61.8467">Profesor</text><line style="stroke:#181818;stroke-width:0.5;" x1="478.5" x2="649.1445" y1="73" y2="73"/><rect fill="none" height="6" style="stroke:#C82930;stroke-width:1;" width="6" x="485.5" y="83.6484"/><text fill="#000000" font-family="sans-serif" font-size="14" lengthAdjust="spacing" textLength="78.1416" x="497.5" y="89.9951">id_profesor</text><rect fill="none" height="6" style="stroke:#C82930;stroke-width:1;" width="6" x="485.5" y="99.9453"/><text fill="#000000" font-family="sans-serif" font-size="14" lengthAdjust="spacing" textLength="54.332" x="497.5" y="106.292">nombre</text><rect fill="none" height="6" style="stroke:#C82930;stroke-width:1;" width="6" x="485.5" y="116.2422"/><text fill="#000000" font-family="sans-serif" font-size="14" lengthAdjust="spacing" textLength="65.2354" x="497.5" y="122.5889">titulacion</text><rect fill="none" height="6" style="stroke:#C82930;stroke-width:1;" width="6" x="485.5" y="132.5391"/><text fill="#000000" font-family="sans-serif" font-size="14" lengthAdjust="spacing" textLength="72.8232" x="497.5" y="138.8857">institucion</text><rect fill="none" height="6" style="stroke:#C82930;stroke-width:1;" width="6" x="485.5" y="148.8359"/><text fill="#000000" font-family="sans-serif" font-size="14" lengthAdjust="spacing" textLength="146.6445" x="497.5" y="155.1826">validacion_movilidad</text><rect fill="none" height="6" style="stroke:#C82930;stroke-width:1;" width="6" x="485.5" y="165.1328"/><text fill="#000000" font-family="sans-serif" font-size="14" lengthAdjust="spacing" textLength="134.415" x="497.5" y="171.4795">movilidad_destinos</text><rect fill="none" height="6" style="stroke:#C82930;stroke-width:1;" width="6" x="485.5" y="181.4297"/><text fill="#000000" font-family="sans-serif" font-size="14" lengthAdjust="spacing" textLength="123.375" x="497.5" y="187.7764">validar_movilidad</text><rect fill="none" height="6" style="stroke:#C82930;stroke-width:1;" width="6" x="485.5" y="197.7266"/><text fill="#000000" font-family="sans-serif" font-size="14" lengthAdjust="spacing" textLength="61.4277" x="497.5" y="204.0732">sexenios</text><rect fill="none" height="6" style="stroke:#C82930;stroke-width:1;" width="6" x="485.5" y="214.0234"/><text fill="#000000" font-family="sans-serif" font-size="14" lengthAdjust="spacing" textLength="121.3311" x="497.5" y="220.3701">curso_academico</text><line style="stroke:#181818;stroke-width:0.5;" x1="478.5" x2="649.1445" y1="227.6719" y2="227.6719"/></g><!--class Contrato--><g id="elem_Contrato"><rect codeLine="14" fill="#F1F1F1" height="64.2969" id="Contrato" rx="2.5" ry="2.5" style="stroke:#181818;stroke-width:0.5;" width="148.2402" x="22" y="345.5"/><ellipse cx="61.8164" cy="361.5" fill="#EB937F" rx="11" ry="11" style="stroke:#181818;stroke-width:1;"/><path d="M65.9257,367.5 L58.207,367.5 L58.207,355.1094 L65.9257,355.1094 L65.9257,357.2656 L60.6601,357.2656 L60.6601,359.9375 L65.4257,359.9375 L65.4257,362.0938 L60.6601,362.0938 L60.6601,365.3438 L65.9257,365.3438 L65.9257,367.5 Z " fill="#000000"/><text fill="#000000" font-family="sans-serif" font-size="14" lengthAdjust="spacing" textLength="61.0928" x="81.3311" y="366.3467">Contrato</text><line style="stroke:#181818;stroke-width:0.5;" x1="23" x2="169.2402" y1="377.5" y2="377.5"/><rect fill="none" height="6" style="stroke:#C82930;stroke-width:1;" width="6" x="30" y="388.1484"/><text fill="#000000" font-family="sans-serif" font-size="14" lengthAdjust="spacing" textLength="122.2402" x="42" y="394.4951">historial_contrato</text><line style="stroke:#181818;stroke-width:0.5;" x1="23" x2="169.2402" y1="401.7969" y2="401.7969"/></g><!--class Experiencia--><g id="elem_Experiencia"><rect codeLine="18" fill="#F1F1F1" height="64.2969" id="Experiencia" rx="2.5" ry="2.5" style="stroke:#181818;stroke-width:0.5;" width="170.9219" x="205.5" y="345.5"/><ellipse cx="246.1469" cy="361.5" fill="#EB937F" rx="11" ry="11" style="stroke:#181818;stroke-width:1;"/><path d="M250.2563,367.5 L242.5375,367.5 L242.5375,355.1094 L250.2563,355.1094 L250.2563,357.2656 L244.9907,357.2656 L244.9907,359.9375 L249.7563,359.9375 L249.7563,362.0938 L244.9907,362.0938 L244.9907,365.3438 L250.2563,365.3438 L250.2563,367.5 Z " fill="#000000"/><text fill="#000000" font-family="sans-serif" font-size="14" lengthAdjust="spacing" textLength="81.9287" x="265.8462" y="366.3467">Experiencia</text><line style="stroke:#181818;stroke-width:0.5;" x1="206.5" x2="375.4219" y1="377.5" y2="377.5"/><rect fill="none" height="6" style="stroke:#C82930;stroke-width:1;" width="6" x="213.5" y="388.1484"/><text fill="#000000" font-family="sans-serif" font-size="14" lengthAdjust="spacing" textLength="144.9219" x="225.5" y="394.4951">historial_experiencia</text><line style="stroke:#181818;stroke-width:0.5;" x1="206.5" x2="375.4219" y1="401.7969" y2="401.7969"/></g><!--class Asignatura--><g id="elem_Asignatura"><rect codeLine="22" fill="#F1F1F1" height="145.7813" id="Asignatura" rx="2.5" ry="2.5" style="stroke:#181818;stroke-width:0.5;" width="183.0898" x="476.5" y="519"/><ellipse cx="525.8965" cy="535" fill="#ADD1B2" rx="11" ry="11" style="stroke:#181818;stroke-width:1;"/><path d="M528.8652,540.6406 Q528.2871,540.9375 527.6465,541.0781 Q527.0059,541.2344 526.3027,541.2344 Q523.8027,541.2344 522.4746,539.5938 Q521.1621,537.9375 521.1621,534.8125 Q521.1621,531.6875 522.4746,530.0313 Q523.8027,528.375 526.3027,528.375 Q527.0059,528.375 527.6465,528.5313 Q528.3027,528.6875 528.8652,528.9844 L528.8652,531.7031 Q528.2402,531.125 527.6465,530.8594 Q527.0527,530.5781 526.4277,530.5781 Q525.084,530.5781 524.3965,531.6563 Q523.709,532.7188 523.709,534.8125 Q523.709,536.9063 524.3965,537.9844 Q525.084,539.0469 526.4277,539.0469 Q527.0527,539.0469 527.6465,538.7813 Q528.2402,538.5 528.8652,537.9219 L528.8652,540.6406 Z " fill="#000000"/><text fill="#000000" font-family="sans-serif" font-size="14" lengthAdjust="spacing" textLength="75.7969" x="546.3965" y="539.8467">Asignatura</text><line style="stroke:#181818;stroke-width:0.5;" x1="477.5" x2="658.5898" y1="551" y2="551"/><rect fill="none" height="6" style="stroke:#C82930;stroke-width:1;" width="6" x="484.5" y="561.6484"/><text fill="#000000" font-family="sans-serif" font-size="14" lengthAdjust="spacing" textLength="46.4912" x="496.5" y="567.9951">codigo</text><rect fill="none" height="6" style="stroke:#C82930;stroke-width:1;" width="6" x="484.5" y="577.9453"/><text fill="#000000" font-family="sans-serif" font-size="14" lengthAdjust="spacing" textLength="54.332" x="496.5" y="584.292">nombre</text><rect fill="none" height="6" style="stroke:#C82930;stroke-width:1;" width="6" x="484.5" y="594.2422"/><text fill="#000000" font-family="sans-serif" font-size="14" lengthAdjust="spacing" textLength="65.3105" x="496.5" y="600.5889">semestre</text><rect fill="none" height="6" style="stroke:#C82930;stroke-width:1;" width="6" x="484.5" y="610.5391"/><text fill="#000000" font-family="sans-serif" font-size="14" lengthAdjust="spacing" textLength="157.0898" x="496.5" y="616.8857">porcentaje_asignacion</text><rect fill="none" height="6" style="stroke:#C82930;stroke-width:1;" width="6" x="484.5" y="626.8359"/><text fill="#000000" font-family="sans-serif" font-size="14" lengthAdjust="spacing" textLength="109.5801" x="496.5" y="633.1826">numero_grupos</text><rect fill="none" height="6" style="stroke:#C82930;stroke-width:1;" width="6" x="484.5" y="643.1328"/><text fill="#000000" font-family="sans-serif" font-size="14" lengthAdjust="spacing" textLength="121.3311" x="496.5" y="649.4795">curso_academico</text><line style="stroke:#181818;stroke-width:0.5;" x1="477.5" x2="658.5898" y1="656.7813" y2="656.7813"/></g><!--class Titulacion--><g id="elem_Titulacion"><rect codeLine="31" fill="#F1F1F1" height="96.8906" id="Titulacion" rx="2.5" ry="2.5" style="stroke:#181818;stroke-width:0.5;" width="147.3311" x="411.5" y="329"/><ellipse cx="447.6649" cy="345" fill="#ADD1B2" rx="11" ry="11" style="stroke:#181818;stroke-width:1;"/><path d="M450.6337,350.6406 Q450.0556,350.9375 449.4149,351.0781 Q448.7743,351.2344 448.0712,351.2344 Q445.5712,351.2344 444.2431,349.5938 Q442.9306,347.9375 442.9306,344.8125 Q442.9306,341.6875 444.2431,340.0313 Q445.5712,338.375 448.0712,338.375 Q448.7743,338.375 449.4149,338.5313 Q450.0712,338.6875 450.6337,338.9844 L450.6337,341.7031 Q450.0087,341.125 449.4149,340.8594 Q448.8212,340.5781 448.1962,340.5781 Q446.8524,340.5781 446.1649,341.6563 Q445.4774,342.7188 445.4774,344.8125 Q445.4774,346.9063 446.1649,347.9844 Q446.8524,349.0469 448.1962,349.0469 Q448.8212,349.0469 449.4149,348.7813 Q450.0087,348.5 450.6337,347.9219 L450.6337,350.6406 Z " fill="#000000"/><text fill="#000000" font-family="sans-serif" font-size="14" lengthAdjust="spacing" textLength="68.2979" x="466.3683" y="349.8467">Titulacion</text><line style="stroke:#181818;stroke-width:0.5;" x1="412.5" x2="557.8311" y1="361" y2="361"/><rect fill="none" height="6" style="stroke:#C82930;stroke-width:1;" width="6" x="419.5" y="371.6484"/><text fill="#000000" font-family="sans-serif" font-size="14" lengthAdjust="spacing" textLength="54.332" x="431.5" y="377.9951">nombre</text><rect fill="none" height="6" style="stroke:#C82930;stroke-width:1;" width="6" x="419.5" y="387.9453"/><text fill="#000000" font-family="sans-serif" font-size="14" lengthAdjust="spacing" textLength="112.793" x="431.5" y="394.292">estructura_base</text><rect fill="none" height="6" style="stroke:#C82930;stroke-width:1;" width="6" x="419.5" y="404.2422"/><text fill="#000000" font-family="sans-serif" font-size="14" lengthAdjust="spacing" textLength="121.3311" x="431.5" y="410.5889">curso_academico</text><line style="stroke:#181818;stroke-width:0.5;" x1="412.5" x2="557.8311" y1="417.8906" y2="417.8906"/></g><!--class MemoriaAcademica--><g id="elem_MemoriaAcademica"><rect codeLine="37" fill="#F1F1F1" height="129.4844" id="MemoriaAcademica" rx="2.5" ry="2.5" style="stroke:#181818;stroke-width:0.5;" width="186.1729" x="695" y="527.5"/><ellipse cx="717.153" cy="543.5" fill="#ADD1B2" rx="11" ry="11" style="stroke:#181818;stroke-width:1;"/><path d="M720.1217,549.1406 Q719.5436,549.4375 718.903,549.5781 Q718.2624,549.7344 717.5592,549.7344 Q715.0592,549.7344 713.7311,548.0938 Q712.4186,546.4375 712.4186,543.3125 Q712.4186,540.1875 713.7311,538.5313 Q715.0592,536.875 717.5592,536.875 Q718.2624,536.875 718.903,537.0313 Q719.5592,537.1875 720.1217,537.4844 L720.1217,540.2031 Q719.4967,539.625 718.903,539.3594 Q718.3092,539.0781 717.6842,539.0781 Q716.3405,539.0781 715.653,540.1563 Q714.9655,541.2188 714.9655,543.3125 Q714.9655,545.4063 715.653,546.4844 Q716.3405,547.5469 717.6842,547.5469 Q718.3092,547.5469 718.903,547.2813 Q719.4967,547 720.1217,546.4219 L720.1217,549.1406 Z " fill="#000000"/><text fill="#000000" font-family="sans-serif" font-size="14" lengthAdjust="spacing" textLength="138.2773" x="732.7425" y="548.3467">MemoriaAcademica</text><line style="stroke:#181818;stroke-width:0.5;" x1="696" x2="880.1729" y1="559.5" y2="559.5"/><rect fill="none" height="6" style="stroke:#C82930;stroke-width:1;" width="6" x="703" y="570.1484"/><text fill="#000000" font-family="sans-serif" font-size="14" lengthAdjust="spacing" textLength="160.1729" x="715" y="576.4951">valores_comprometido</text><rect fill="none" height="6" style="stroke:#C82930;stroke-width:1;" width="6" x="703" y="586.4453"/><text fill="#000000" font-family="sans-serif" font-size="14" lengthAdjust="spacing" textLength="134.415" x="715" y="592.792">movilidad_destinos</text><rect fill="none" height="6" style="stroke:#C82930;stroke-width:1;" width="6" x="703" y="602.7422"/><text fill="#000000" font-family="sans-serif" font-size="14" lengthAdjust="spacing" textLength="121.3311" x="715" y="609.0889">curso_academico</text><rect fill="none" height="6" style="stroke:#C82930;stroke-width:1;" width="6" x="703" y="619.0391"/><text fill="#000000" font-family="sans-serif" font-size="14" lengthAdjust="spacing" textLength="104.7471" x="715" y="625.3857">meta_sexenios</text><rect fill="none" height="6" style="stroke:#C82930;stroke-width:1;" width="6" x="703" y="635.3359"/><text fill="#000000" font-family="sans-serif" font-size="14" lengthAdjust="spacing" textLength="111.8291" x="715" y="641.6826">meta_movilidad</text><line style="stroke:#181818;stroke-width:0.5;" x1="696" x2="880.1729" y1="648.9844" y2="648.9844"/></g><!--class Indicador--><g id="elem_Indicador"><rect codeLine="45" fill="#F1F1F1" height="96.8906" id="Indicador" rx="2.5" ry="2.5" style="stroke:#181818;stroke-width:0.5;" width="123.5283" x="802" y="742"/><ellipse cx="828.8195" cy="758" fill="#ADD1B2" rx="11" ry="11" style="stroke:#181818;stroke-width:1;"/><path d="M831.7883,763.6406 Q831.2102,763.9375 830.5695,764.0781 Q829.9289,764.2344 829.2258,764.2344 Q826.7258,764.2344 825.3977,762.5938 Q824.0852,760.9375 824.0852,757.8125 Q824.0852,754.6875 825.3977,753.0313 Q826.7258,751.375 829.2258,751.375 Q829.9289,751.375 830.5695,751.5313 Q831.2258,751.6875 831.7883,751.9844 L831.7883,754.7031 Q831.1633,754.125 830.5695,753.8594 Q829.9758,753.5781 829.3508,753.5781 Q828.007,753.5781 827.3195,754.6563 Q826.632,755.7188 826.632,757.8125 Q826.632,759.9063 827.3195,760.9844 Q828.007,762.0469 829.3508,762.0469 Q829.9758,762.0469 830.5695,761.7813 Q831.1633,761.5 831.7883,760.9219 L831.7883,763.6406 Z " fill="#000000"/><text fill="#000000" font-family="sans-serif" font-size="14" lengthAdjust="spacing" textLength="65.2627" x="845.4461" y="762.8467">Indicador</text><line style="stroke:#181818;stroke-width:0.5;" x1="803" x2="924.5283" y1="774" y2="774"/><rect fill="none" height="6" style="stroke:#C82930;stroke-width:1;" width="6" x="810" y="784.6484"/><text fill="#000000" font-family="sans-serif" font-size="14" lengthAdjust="spacing" textLength="46.4912" x="822" y="790.9951">codigo</text><rect fill="none" height="6" style="stroke:#C82930;stroke-width:1;" width="6" x="810" y="800.9453"/><text fill="#000000" font-family="sans-serif" font-size="14" lengthAdjust="spacing" textLength="35.0752" x="822" y="807.292">valor</text><rect fill="none" height="6" style="stroke:#C82930;stroke-width:1;" width="6" x="810" y="817.2422"/><text fill="#000000" font-family="sans-serif" font-size="14" lengthAdjust="spacing" textLength="97.5283" x="822" y="823.5889">umbral_alerta</text><line style="stroke:#181818;stroke-width:0.5;" x1="803" x2="924.5283" y1="830.8906" y2="830.8906"/></g><!--class CargaAcademica--><g id="elem_CargaAcademica"><rect codeLine="51" fill="#F1F1F1" height="129.4844" id="CargaAcademica" rx="2.5" ry="2.5" style="stroke:#181818;stroke-width:0.5;" width="150.7334" x="593.5" y="313"/><ellipse cx="608.5" cy="329" fill="#ADD1B2" rx="11" ry="11" style="stroke:#181818;stroke-width:1;"/><path d="M611.4688,334.6406 Q610.8906,334.9375 610.25,335.0781 Q609.6094,335.2344 608.9063,335.2344 Q606.4063,335.2344 605.0781,333.5938 Q603.7656,331.9375 603.7656,328.8125 Q603.7656,325.6875 605.0781,324.0313 Q606.4063,322.375 608.9063,322.375 Q609.6094,322.375 610.25,322.5313 Q610.9063,322.6875 611.4688,322.9844 L611.4688,325.7031 Q610.8438,325.125 610.25,324.8594 Q609.6563,324.5781 609.0313,324.5781 Q607.6875,324.5781 607,325.6563 Q606.3125,326.7188 606.3125,328.8125 Q606.3125,330.9063 607,331.9844 Q607.6875,333.0469 609.0313,333.0469 Q609.6563,333.0469 610.25,332.7813 Q610.8438,332.5 611.4688,331.9219 L611.4688,334.6406 Z " fill="#000000"/><text fill="#000000" font-family="sans-serif" font-size="14" lengthAdjust="spacing" textLength="118.7334" x="622.5" y="333.8467">CargaAcademica</text><line style="stroke:#181818;stroke-width:0.5;" x1="594.5" x2="743.2334" y1="345" y2="345"/><rect fill="none" height="6" style="stroke:#C82930;stroke-width:1;" width="6" x="601.5" y="355.6484"/><text fill="#000000" font-family="sans-serif" font-size="14" lengthAdjust="spacing" textLength="56.1914" x="613.5" y="361.9951">creditos</text><rect fill="none" height="6" style="stroke:#C82930;stroke-width:1;" width="6" x="601.5" y="371.9453"/><text fill="#000000" font-family="sans-serif" font-size="14" lengthAdjust="spacing" textLength="73.8008" x="613.5" y="378.292">modalidad</text><rect fill="none" height="6" style="stroke:#C82930;stroke-width:1;" width="6" x="601.5" y="388.2422"/><text fill="#000000" font-family="sans-serif" font-size="14" lengthAdjust="spacing" textLength="26.8311" x="613.5" y="394.5889">tipo</text><rect fill="none" height="6" style="stroke:#C82930;stroke-width:1;" width="6" x="601.5" y="404.5391"/><text fill="#000000" font-family="sans-serif" font-size="14" lengthAdjust="spacing" textLength="56.9229" x="613.5" y="410.8857">facultad</text><rect fill="none" height="6" style="stroke:#C82930;stroke-width:1;" width="6" x="601.5" y="420.8359"/><text fill="#000000" font-family="sans-serif" font-size="14" lengthAdjust="spacing" textLength="121.3311" x="613.5" y="427.1826">curso_academico</text><line style="stroke:#181818;stroke-width:0.5;" x1="594.5" x2="743.2334" y1="434.4844" y2="434.4844"/></g><!--class Asignacion--><g id="elem_Asignacion"><rect codeLine="59" fill="#F1F1F1" height="113.1875" id="Asignacion" rx="2.5" ry="2.5" style="stroke:#181818;stroke-width:0.5;" width="184.4912" x="780" y="321"/><ellipse cx="829.9331" cy="337" fill="#ADD1B2" rx="11" ry="11" style="stroke:#181818;stroke-width:1;"/><path d="M832.9019,342.6406 Q832.3237,342.9375 831.6831,343.0781 Q831.0425,343.2344 830.3394,343.2344 Q827.8394,343.2344 826.5112,341.5938 Q825.1987,339.9375 825.1987,336.8125 Q825.1987,333.6875 826.5112,332.0313 Q827.8394,330.375 830.3394,330.375 Q831.0425,330.375 831.6831,330.5313 Q832.3394,330.6875 832.9019,330.9844 L832.9019,333.7031 Q832.2769,333.125 831.6831,332.8594 Q831.0894,332.5781 830.4644,332.5781 Q829.1206,332.5781 828.4331,333.6563 Q827.7456,334.7188 827.7456,336.8125 Q827.7456,338.9063 828.4331,339.9844 Q829.1206,341.0469 830.4644,341.0469 Q831.0894,341.0469 831.6831,340.7813 Q832.2769,340.5 832.9019,339.9219 L832.9019,342.6406 Z " fill="#000000"/><text fill="#000000" font-family="sans-serif" font-size="14" lengthAdjust="spacing" textLength="76.125" x="850.4331" y="341.8467">Asignacion</text><line style="stroke:#181818;stroke-width:0.5;" x1="781" x2="963.4912" y1="353" y2="353"/><rect fill="none" height="6" style="stroke:#C82930;stroke-width:1;" width="6" x="788" y="363.6484"/><text fill="#000000" font-family="sans-serif" font-size="14" lengthAdjust="spacing" textLength="94.9033" x="800" y="369.9951">id_asignacion</text><rect fill="none" height="6" style="stroke:#C82930;stroke-width:1;" width="6" x="788" y="379.9453"/><text fill="#000000" font-family="sans-serif" font-size="14" lengthAdjust="spacing" textLength="145.5166" x="800" y="386.292">porcentaje_asignado</text><rect fill="none" height="6" style="stroke:#C82930;stroke-width:1;" width="6" x="788" y="396.2422"/><text fill="#000000" font-family="sans-serif" font-size="14" lengthAdjust="spacing" textLength="121.3311" x="800" y="402.5889">curso_academico</text><rect fill="none" height="6" style="stroke:#C82930;stroke-width:1;" width="6" x="788" y="412.5391"/><text fill="#000000" font-family="sans-serif" font-size="14" lengthAdjust="spacing" textLength="158.4912" x="800" y="418.8857">cumplido_en_memoria</text><line style="stroke:#181818;stroke-width:0.5;" x1="781" x2="963.4912" y1="426.1875" y2="426.1875"/></g><!--link Profesor to Contrato--><g id="link_Profesor_Contrato"><path codeLine="66" d="M477.16,174.54 C399.57,207.02 283.71,258.43 188,313 C171.14,322.61 158.3161,330.9559 142.9761,341.7559 " fill="none" id="Profesor-to-Contrato" style="stroke:#181818;stroke-width:1;"/><polygon fill="#181818" points="138.07,345.21,147.7318,343.2996,142.1584,342.3316,143.1264,336.7582,138.07,345.21" style="stroke:#181818;stroke-width:1;"/><text fill="#000000" font-family="sans-serif" font-size="13" lengthAdjust="spacing" textLength="32.9443" x="268" y="279.0669">tiene</text></g><!--link Profesor to Experiencia--><g id="link_Profesor_Experiencia"><path codeLine="67" d="M477.25,214.81 C426.35,259 369.2911,308.537 331.2611,341.547 " fill="none" id="Profesor-to-Experiencia" style="stroke:#181818;stroke-width:1;"/><polygon fill="#181818" points="326.73,345.48,336.1487,342.6012,330.506,342.2025,330.9047,336.5597,326.73,345.48" style="stroke:#181818;stroke-width:1;"/><text fill="#000000" font-family="sans-serif" font-size="13" lengthAdjust="spacing" textLength="32.9443" x="412" y="279.0669">tiene</text></g><!--link Profesor to CargaAcademica--><g id="link_Profesor_CargaAcademica"><path codeLine="68" d="M606.86,236.24 C618.31,262.09 627.9692,283.8944 638.4092,307.4544 " fill="none" id="Profesor-to-CargaAcademica" style="stroke:#181818;stroke-width:1;"/><polygon fill="#181818" points="640.84,312.94,640.8509,303.0911,638.8143,308.3687,633.5368,306.3322,640.84,312.94" style="stroke:#181818;stroke-width:1;"/><text fill="#000000" font-family="sans-serif" font-size="13" lengthAdjust="spacing" textLength="70.1797" x="626" y="279.0669">dedicacion</text></g><!--link Profesor to Asignacion--><g id="link_Profesor_Asignacion"><path codeLine="69" d="M650.61,206.15 C697.68,242.36 750.445,282.9608 795.055,317.2908 " fill="none" id="Profesor-to-Asignacion" style="stroke:#181818;stroke-width:1;"/><polygon fill="#181818" points="799.81,320.95,795.117,312.2911,795.8475,317.9006,790.238,318.6311,799.81,320.95" style="stroke:#181818;stroke-width:1;"/><text fill="#000000" font-family="sans-serif" font-size="13" lengthAdjust="spacing" textLength="57.2495" x="746" y="279.0669">participa</text></g><!--link Profesor to Titulacion--><g id="link_Profesor_Titulacion"><path codeLine="70" d="M531.75,236.24 C521.13,268.11 509.78,302.15 500.93,328.72 " fill="none" id="Profesor-Titulacion" style="stroke:#181818;stroke-width:1;stroke-dasharray:7.0,7.0;"/><text fill="#000000" font-family="sans-serif" font-size="13" lengthAdjust="spacing" textLength="42.8086" x="520" y="279.0669">asigna</text></g><!--link Asignacion to Asignatura--><g id="link_Asignacion_Asignatura"><path codeLine="71" d="M783.55,434.14 C764.72,446.37 745.08,459.43 727,472 C704.92,487.35 686.3406,500.8141 664.5006,517.0941 " fill="none" id="Asignacion-to-Asignatura" style="stroke:#181818;stroke-width:1;"/><polygon fill="#181818" points="659.69,520.68,669.2964,518.5082,663.6988,517.6918,664.5152,512.0941,659.69,520.68" style="stroke:#181818;stroke-width:1;"/><text fill="#000000" font-family="sans-serif" font-size="13" lengthAdjust="spacing" textLength="81.2563" x="728" y="485.0669">corresponde</text></g><!--link Asignacion to MemoriaAcademica--><g id="link_Asignacion_MemoriaAcademica"><path codeLine="72" d="M842.14,434.17 C836.08,446.46 830.03,459.53 825,472 C817.87,489.66 813.0534,503.4981 807.4534,521.5981 " fill="none" id="Asignacion-to-MemoriaAcademica" style="stroke:#181818;stroke-width:1;"/><polygon fill="#181818" points="805.68,527.33,812.1614,519.9144,807.1578,522.5534,804.5188,517.5498,805.68,527.33" style="stroke:#181818;stroke-width:1;"/><text fill="#000000" font-family="sans-serif" font-size="13" lengthAdjust="spacing" textLength="47.9121" x="826" y="485.0669">cumple</text></g><!--link MemoriaAcademica to Indicador--><g id="link_MemoriaAcademica_Indicador"><path codeLine="73" d="M793.9,656.55 C797.01,674.92 801.76,694.68 809,712 C813.26,722.2 815.7538,727.3631 821.9938,736.8131 " fill="none" id="MemoriaAcademica-to-Indicador" style="stroke:#181818;stroke-width:1;"/><polygon fill="#181818" points="825.3,741.82,823.6787,732.1055,822.5449,737.6476,817.0028,736.5137,825.3,741.82" style="stroke:#181818;stroke-width:1;"/><text fill="#000000" font-family="sans-serif" font-size="13" lengthAdjust="spacing" textLength="97.0239" x="810" y="708.0669">meta y valores</text></g><!--link Indicador to Profesor--><g id="link_Indicador_Profesor"><path codeLine="74" d="M896.55,741.93 C902.24,732.3 907.71,722.04 912,712 C928.45,673.53 1039.43,399.01 982,313 C908.38,202.73 756.1257,163.3259 656.8457,148.6759 " fill="none" id="Indicador-to-Profesor" style="stroke:#181818;stroke-width:1;"/><polygon fill="#181818" points="650.91,147.8,659.2297,153.071,655.8564,148.5299,660.3975,145.1567,650.91,147.8" style="stroke:#181818;stroke-width:1;"/><text fill="#000000" font-family="sans-serif" font-size="13" lengthAdjust="spacing" textLength="82.272" x="988" y="485.0669">extrae datos</text></g><!--SRC=[bLJ1RjmW4BtdAr3kcm_mePAroY5Ia_QmFQC9J5nImo30qKPH_Zs07HjiRvlwilBCU-RnvirQ47-WGtRzw-6sFNrl7qvtnn_NxEsAnKVqu3txwUW9FRcfc9u3KvBRgLvK3Ub7XqKXg33q81IPacjygg-gBz0hcQ5SqujABx9eppKkCT8D-GtNxH8zdj6e2Yu6vuc308bQ2SgTzwlyWsRGx4WcE0Wqt_Z0VYiVo2dekPYQKsiYpzpRiqMdq0W5ktHS-kMvezMjLvs1C3Yep1OaLKT_yzcZZgvK9KjEe0dmZ1poPrT-Hx7eY7Tki5yrPnHvccTQYTneIe86aIx37y7Z_nnnZpgvrKw8sequR7Beuo1qZA36e2HzDIXx9qyq3C1tifBhTQuggNT6He5ojHwRYMNHnViGpOffW1vTs0d24LntuVh2eLIXraWIrh4FofRdFu4O-b0X_Zc5TexDUlLt0xK9N3MMoywBGTkedZZ6pHy7NsgP_tuEXs_BPZRnWcXmYoZtxo9ePM_39AOfpXUgm8KD3RFWWXBAGesxkIdNec6Z0HbJq9UlvHLlOanSJB8b8t4Fkrc3PZHh16-wYRB4iSdHPQ-V-v8vIpk1P_aDmtFq5Pc4bApt3m00]--></g></svg>