<svg xmlns="http://www.w3.org/2000/svg" xmlns:xlink="http://www.w3.org/1999/xlink" contentStyleType="text/css" data-diagram-type="STATE" height="875px" preserveAspectRatio="none" style="width:540px;height:875px;background:#FFFFFF;" version="1.1" viewBox="0 0 540 875" width="540px" zoomAndPan="magnify"><defs/><g><g id="Entradas_Preparadas"><rect fill="#F1F1F1" height="78.2031" rx="12.5" ry="12.5" style="stroke:#181818;stroke-width:0.5;" width="168.6748" x="329.99" y="87"/><line style="stroke:#181818;stroke-width:0.5;" x1="329.99" x2="498.6648" y1="113.2969" y2="113.2969"/><text fill="#000000" font-family="sans-serif" font-size="14" lengthAdjust="spacing" textLength="148.6748" x="339.99" y="104.9951">Entradas_Preparadas</text><text fill="#000000" font-family="sans-serif" font-size="12" lengthAdjust="spacing" textLength="139.7285" x="334.99" y="129.4355">Verificar datos iniciales</text><text fill="#000000" font-family="sans-serif" font-size="12" lengthAdjust="spacing" textLength="66.7852" x="334.99" y="143.4043">- Memorias</text><text fill="#000000" font-family="sans-serif" font-size="12" lengthAdjust="spacing" textLength="87.0293" x="334.99" y="157.373">- Asignaciones</text></g><g id="Entradas_Validadas"><rect fill="#F1F1F1" height="78.2031" rx="12.5" ry="12.5" style="stroke:#181818;stroke-width:0.5;" width="157.4639" x="261.6" y="242.21"/><line style="stroke:#181818;stroke-width:0.5;" x1="261.6" x2="419.0639" y1="268.5069" y2="268.5069"/><text fill="#000000" font-family="sans-serif" font-size="14" lengthAdjust="spacing" textLength="137.4639" x="271.6" y="260.2051">Entradas_Validadas</text><text fill="#000000" font-family="sans-serif" font-size="12" lengthAdjust="spacing" textLength="120.3105" x="266.6" y="284.6455">Validar consistencia</text><text fill="#000000" font-family="sans-serif" font-size="12" lengthAdjust="spacing" textLength="135.1875" x="266.6" y="298.6143">- Revisi&#243;n de memoria</text><text fill="#000000" font-family="sans-serif" font-size="12" lengthAdjust="spacing" textLength="95.5313" x="266.6" y="312.583">- Verificar datos</text></g><g id="Entradas_Corrigidas"><rect fill="#F1F1F1" height="64.2344" rx="12.5" ry="12.5" style="stroke:#181818;stroke-width:0.5;" width="160.5811" x="373.04" y="404.39"/><line style="stroke:#181818;stroke-width:0.5;" x1="373.04" x2="533.6211" y1="430.6869" y2="430.6869"/><text fill="#000000" font-family="sans-serif" font-size="14" lengthAdjust="spacing" textLength="140.5811" x="383.04" y="422.3851">Entradas_Corrigidas</text><text fill="#000000" font-family="sans-serif" font-size="12" lengthAdjust="spacing" textLength="85.9395" x="378.04" y="446.8255">Corregir datos</text><text fill="#000000" font-family="sans-serif" font-size="12" lengthAdjust="spacing" textLength="132.3809" x="378.04" y="460.7943">- Ajustar asignaciones</text></g><g id="Indicadores_Generados"><rect fill="#F1F1F1" height="78.2031" rx="12.5" ry="12.5" style="stroke:#181818;stroke-width:0.5;" width="184.1992" x="119.23" y="397.41"/><line style="stroke:#181818;stroke-width:0.5;" x1="119.23" x2="303.4292" y1="423.7069" y2="423.7069"/><text fill="#000000" font-family="sans-serif" font-size="14" lengthAdjust="spacing" textLength="164.1992" x="129.23" y="415.4051">Indicadores_Generados</text><text fill="#000000" font-family="sans-serif" font-size="12" lengthAdjust="spacing" textLength="122.0742" x="124.23" y="439.8455">Calcular indicadores</text><text fill="#000000" font-family="sans-serif" font-size="12" lengthAdjust="spacing" textLength="66.7852" x="124.23" y="453.8143">- Memorias</text><text fill="#000000" font-family="sans-serif" font-size="12" lengthAdjust="spacing" textLength="112.875" x="124.23" y="467.783">- Carga acad&#233;mica</text></g><g id="Informe_Generado"><rect fill="#F1F1F1" height="78.2031" rx="12.5" ry="12.5" style="stroke:#181818;stroke-width:0.5;" width="197.334" x="112.66" y="552.61"/><line style="stroke:#181818;stroke-width:0.5;" x1="112.66" x2="309.994" y1="578.9069" y2="578.9069"/><text fill="#000000" font-family="sans-serif" font-size="14" lengthAdjust="spacing" textLength="130.2383" x="146.2079" y="570.6051">Informe_Generado</text><text fill="#000000" font-family="sans-serif" font-size="12" lengthAdjust="spacing" textLength="83.3086" x="117.66" y="595.0455">Crear informe</text><text fill="#000000" font-family="sans-serif" font-size="12" lengthAdjust="spacing" textLength="118.2773" x="117.66" y="609.0143">- Incluir indicadores</text><text fill="#000000" font-family="sans-serif" font-size="12" lengthAdjust="spacing" textLength="177.334" x="117.66" y="622.983">- Verificar cumplimiento legal</text></g><g id="Informe_Ajustado"><rect fill="#F1F1F1" height="64.2344" rx="12.5" ry="12.5" style="stroke:#181818;stroke-width:0.5;" width="142.6572" x="7" y="714.8"/><line style="stroke:#181818;stroke-width:0.5;" x1="7" x2="149.6572" y1="741.0969" y2="741.0969"/><text fill="#000000" font-family="sans-serif" font-size="14" lengthAdjust="spacing" textLength="122.6572" x="17" y="732.7951">Informe_Ajustado</text><text fill="#000000" font-family="sans-serif" font-size="12" lengthAdjust="spacing" textLength="105.416" x="12" y="757.2355">Modificar informe</text><text fill="#000000" font-family="sans-serif" font-size="12" lengthAdjust="spacing" textLength="87.6211" x="12" y="771.2043">- Ajustar datos</text></g><g id="Informe_Validado"><rect fill="#F1F1F1" height="78.2031" rx="12.5" ry="12.5" style="stroke:#181818;stroke-width:0.5;" width="142.3564" x="198.15" y="707.82"/><line style="stroke:#181818;stroke-width:0.5;" x1="198.15" x2="340.5064" y1="734.1169" y2="734.1169"/><text fill="#000000" font-family="sans-serif" font-size="14" lengthAdjust="spacing" textLength="122.3564" x="208.15" y="725.8151">Informe_Validado</text><text fill="#000000" font-family="sans-serif" font-size="12" lengthAdjust="spacing" textLength="76.3828" x="203.15" y="750.2555">Informe final</text><text fill="#000000" font-family="sans-serif" font-size="12" lengthAdjust="spacing" textLength="60.3047" x="203.15" y="764.2243">- Validado</text><text fill="#000000" font-family="sans-serif" font-size="12" lengthAdjust="spacing" textLength="92.5488" x="203.15" y="778.193">- Listo para uso</text></g><ellipse cx="414.33" cy="16" fill="#222222" rx="10" ry="10" style="stroke:#222222;stroke-width:1;"/><ellipse cx="269.33" cy="858.02" fill="none" rx="11" ry="11" style="stroke:#222222;stroke-width:1;"/><ellipse cx="269.33" cy="858.02" fill="#222222" rx="6" ry="6" style="stroke:#222222;stroke-width:1;"/><!--link *start* to Entradas_Preparadas--><g id="link_*start*_Entradas_Preparadas"><path d="M414.33,26.22 C414.33,39.6 414.33,59.18 414.33,80.97 " fill="none" id="*start*-to-Entradas_Preparadas" style="stroke:#181818;stroke-width:1;"/><polygon fill="#181818" points="414.33,86.97,418.33,77.97,414.33,81.97,410.33,77.97,414.33,86.97" style="stroke:#181818;stroke-width:1;"/></g><!--link Entradas_Preparadas to Entradas_Validadas--><g id="link_Entradas_Preparadas_Entradas_Validadas"><path d="M371.41,165.43 C363.57,174.44 356.31,184.56 351.33,195.21 C344.57,209.65 342.0249,220.8996 340.7949,236.0696 " fill="none" id="Entradas_Preparadas-to-Entradas_Validadas" style="stroke:#181818;stroke-width:1;"/><polygon fill="#181818" points="340.31,242.05,345.0243,233.4027,340.7141,237.0664,337.0504,232.7562,340.31,242.05" style="stroke:#181818;stroke-width:1;"/><text fill="#000000" font-family="sans-serif" font-size="13" lengthAdjust="spacing" textLength="109.3828" x="352.33" y="208.2769">Datos completos</text></g><!--link Entradas_Validadas to Indicadores_Generados--><g id="link_Entradas_Validadas_Indicadores_Generados"><path d="M264.57,320.91 C253.19,329.36 242.53,339.2 234.33,350.41 C224.39,364 219.9398,375.7412 216.7398,391.4212 " fill="none" id="Entradas_Validadas-to-Indicadores_Generados" style="stroke:#181818;stroke-width:1;"/><polygon fill="#181818" points="215.54,397.3,221.2589,389.2816,216.5398,392.401,213.4204,387.6819,215.54,397.3" style="stroke:#181818;stroke-width:1;"/><text fill="#000000" font-family="sans-serif" font-size="13" lengthAdjust="spacing" textLength="87.7944" x="235.33" y="363.4769">Datos v&#225;lidos</text></g><!--link Entradas_Validadas to Entradas_Corrigidas--><g id="link_Entradas_Validadas_Entradas_Corrigidas"><path d="M330.53,320.86 C328.69,336.24 329.4,353.55 337.33,367.41 C345.91,382.41 354.2019,391.1561 368.7919,400.6561 " fill="none" id="Entradas_Validadas-to-Entradas_Corrigidas" style="stroke:#181818;stroke-width:1;"/><polygon fill="#181818" points="373.82,403.93,368.4605,395.6671,369.6299,401.2017,364.0953,402.3712,373.82,403.93" style="stroke:#181818;stroke-width:1;"/><text fill="#000000" font-family="sans-serif" font-size="13" lengthAdjust="spacing" textLength="123.6396" x="338.33" y="363.4769">Errores detectados</text></g><!--link Entradas_Corrigidas to Entradas_Preparadas--><g id="link_Entradas_Corrigidas_Entradas_Preparadas"><path d="M462.26,404.17 C474.02,357.31 490.55,266.85 466.33,195.21 C462.8,184.78 460.4661,179.5662 453.9561,170.4862 " fill="none" id="Entradas_Corrigidas-to-Entradas_Preparadas" style="stroke:#181818;stroke-width:1;"/><polygon fill="#181818" points="450.46,165.61,452.4533,175.255,453.3734,169.6735,458.9549,170.5936,450.46,165.61" style="stroke:#181818;stroke-width:1;"/></g><!--link Indicadores_Generados to Informe_Generado--><g id="link_Indicadores_Generados_Informe_Generado"><path d="M211.33,475.78 C211.33,499.09 211.33,522.78 211.33,546.14 " fill="none" id="Indicadores_Generados-to-Informe_Generado" style="stroke:#181818;stroke-width:1;"/><polygon fill="#181818" points="211.33,552.14,215.33,543.14,211.33,547.14,207.33,543.14,211.33,552.14" style="stroke:#181818;stroke-width:1;"/><text fill="#000000" font-family="sans-serif" font-size="13" lengthAdjust="spacing" textLength="113.3247" x="212.33" y="518.6769">Indicadores listos</text></g><!--link Informe_Generado to Informe_Ajustado--><g id="link_Informe_Generado_Informe_Ajustado"><path d="M112.4,618.82 C92.6,628.71 74.24,642.27 62.33,660.82 C52.09,676.75 53.7018,692.0026 60.1118,709.0826 " fill="none" id="Informe_Generado-to-Informe_Ajustado" style="stroke:#181818;stroke-width:1;"/><polygon fill="#181818" points="62.22,714.7,62.8027,704.8684,60.4632,710.0188,55.3128,707.6793,62.22,714.7" style="stroke:#181818;stroke-width:1;"/><text fill="#000000" font-family="sans-serif" font-size="13" lengthAdjust="spacing" textLength="121.2847" x="63.33" y="673.8869">Ajustes requeridos</text></g><!--link Informe_Ajustado to Informe_Generado--><g id="link_Informe_Ajustado_Informe_Generado"><path d="M148.05,714.42 C163.52,704.61 178.51,692.45 189.33,677.82 C199.31,664.32 203.6475,652.6041 206.6375,636.9041 " fill="none" id="Informe_Ajustado-to-Informe_Generado" style="stroke:#181818;stroke-width:1;"/><polygon fill="#181818" points="207.76,631.01,202.1469,639.1028,206.8246,635.9217,210.0056,640.5994,207.76,631.01" style="stroke:#181818;stroke-width:1;"/></g><!--link Informe_Generado to Informe_Validado--><g id="link_Informe_Generado_Informe_Validado"><path d="M225.81,630.98 C234.64,654.29 243.7543,678.3692 252.6043,701.7292 " fill="none" id="Informe_Generado-to-Informe_Validado" style="stroke:#181818;stroke-width:1;"/><polygon fill="#181818" points="254.73,707.34,255.282,697.5066,252.9586,702.6643,247.8009,700.3409,254.73,707.34" style="stroke:#181818;stroke-width:1;"/><text fill="#000000" font-family="sans-serif" font-size="13" lengthAdjust="spacing" textLength="110.0493" x="243.33" y="673.8869">Informe validado</text></g><!--link Informe_Validado to *end*--><g id="link_Informe_Validado_*end*"><path d="M269.33,786.38 C269.33,807.98 269.33,827.27 269.33,840.96 " fill="none" id="Informe_Validado-to-*end*" style="stroke:#181818;stroke-width:1;"/><polygon fill="#181818" points="269.33,846.96,273.33,837.96,269.33,841.96,265.33,837.96,269.33,846.96" style="stroke:#181818;stroke-width:1;"/></g><!--SRC=[XPF1ReCm38RlF8NFbNY17IPDh9echTAqGozLLKNW8ayXwHBePTh3xBZp7g4lDWSe19emJY7v_Dk_u-nMUqZJUrYhseX2sCEhmPDebqbYQr5Zw0W-4-0lT787MpHqf5mOA4IjBP2Yd8H4kn2JmWOhRKWiGm-MIYLoqehLlf8an4tSR8MaeWz_RAl9TNMIoAiRUoCxS-UBT6l3CigIhL6njJYTmXkUoTBbLq61K7KUb_XPyoOcHz9vV5O5SuKsQ0zFg90PFTeyNxuPPe58zB2TQMEef2x_sXYdnxNMcDTEyAPB7ZzhqqJ9_M19Lnjna2_rlU4S1aJiSZt-dr4DzwIhCzQlJCYyaPoVHc0nO3QhSImJfXGW-F3oKp7ZJ8NfxZwFsbGuxBA41uFaQTEUqHbyzNYZaHbilRK7CIZbpLms56f201w7D6_uDL55g6eD4aiXEvEp8DzVTzsjKhjaRmO_6fPquxOOsezmrvfs2yxzrhmnGvPfOxpa6rtq9aBDyS1nGeSdUKE5Bd1Uqb3zjAI0gICfRcG4Ik7w4oTUtB20UnpGMErNF62kujrg_mS0]--></g></svg>