<svg xmlns="http://www.w3.org/2000/svg" xmlns:xlink="http://www.w3.org/1999/xlink" contentStyleType="text/css" height="547px" preserveAspectRatio="none" style="width:1597px;height:547px;background:#FFFFFF;" version="1.1" viewBox="0 0 1597 547" width="1597px" zoomAndPan="magnify"><defs/><g><!--cluster UNEATLANTICO--><g id="cluster_UNEATLANTICO"><path d="M8.5,6 L130.9404,6 A3.75,3.75 0 0 1 133.4404,8.5 L140.4404,28.2969 L1587.5,28.2969 A2.5,2.5 0 0 1 1590,30.7969 L1590,537.84 A2.5,2.5 0 0 1 1587.5,540.34 L8.5,540.34 A2.5,2.5 0 0 1 6,537.84 L6,8.5 A2.5,2.5 0 0 1 8.5,6 " fill="none" style="stroke:#000000;stroke-width:1.5;"/><line style="stroke:#000000;stroke-width:1.5;" x1="6" x2="140.4404" y1="28.2969" y2="28.2969"/><text fill="#000000" font-family="sans-serif" font-size="14" font-weight="bold" lengthAdjust="spacing" textLength="121.4404" x="10" y="20.9951">UNEATLANTICO</text></g><g id="elem_Profesor"><rect fill="#F1F1F1" height="126.0781" style="stroke:#181818;stroke-width:0.5;" width="227.3525" x="633.32" y="41"/><text fill="#000000" font-family="sans-serif" font-size="14" lengthAdjust="spacing" textLength="57.9209" x="718.0358" y="55.9951">Profesor</text><line style="stroke:#181818;stroke-width:0.5;" x1="634.32" x2="859.6725" y1="61.2969" y2="61.2969"/><text fill="#000000" font-family="sans-serif" font-size="14" lengthAdjust="spacing" textLength="145.5986" x="639.32" y="78.292">titulacion = "Doctor"</text><text fill="#000000" font-family="sans-serif" font-size="14" lengthAdjust="spacing" textLength="215.3525" x="639.32" y="94.5889">institucion = "UNEATLANTICO"</text><text fill="#000000" font-family="sans-serif" font-size="14" lengthAdjust="spacing" textLength="196.0068" x="639.32" y="110.8857">validacion_movilidad = true</text><text fill="#000000" font-family="sans-serif" font-size="14" lengthAdjust="spacing" textLength="163.9531" x="639.32" y="127.1826">movilidad_destinos = 2</text><text fill="#000000" font-family="sans-serif" font-size="14" lengthAdjust="spacing" textLength="172.7373" x="639.32" y="143.4795">validar_movilidad = true</text><text fill="#000000" font-family="sans-serif" font-size="14" lengthAdjust="spacing" textLength="90.9658" x="639.32" y="159.7764">sexenios = 3</text></g><g id="elem_Contrato"><rect fill="#F1F1F1" height="44.5938" style="stroke:#181818;stroke-width:0.5;" width="213.749" x="22.13" y="276.67"/><text fill="#000000" font-family="sans-serif" font-size="14" lengthAdjust="spacing" textLength="61.0928" x="98.4581" y="291.6651">Contrato</text><line style="stroke:#181818;stroke-width:0.5;" x1="23.13" x2="234.879" y1="296.9669" y2="296.9669"/><text fill="#000000" font-family="sans-serif" font-size="14" lengthAdjust="spacing" textLength="201.749" x="28.13" y="313.962">tipo = "Completo Indefinido"</text></g><g id="elem_Experiencia"><rect fill="#F1F1F1" height="93.4844" style="stroke:#181818;stroke-width:0.5;" width="128.5459" x="270.73" y="252.22"/><text fill="#000000" font-family="sans-serif" font-size="14" lengthAdjust="spacing" textLength="81.9287" x="294.0386" y="267.2151">Experiencia</text><line style="stroke:#181818;stroke-width:0.5;" x1="271.73" x2="398.2759" y1="272.5169" y2="272.5169"/><text fill="#000000" font-family="sans-serif" font-size="14" lengthAdjust="spacing" textLength="86.2764" x="276.73" y="289.512">docente = 5</text><text fill="#000000" font-family="sans-serif" font-size="14" lengthAdjust="spacing" textLength="74.2998" x="276.73" y="305.8089">virtual = 2</text><text fill="#000000" font-family="sans-serif" font-size="14" lengthAdjust="spacing" textLength="116.5459" x="276.73" y="322.1057">investigador = 3</text><text fill="#000000" font-family="sans-serif" font-size="14" lengthAdjust="spacing" textLength="107.3789" x="276.73" y="338.4026">profesional = 7</text></g><g id="elem_Asignatura"><rect fill="#F1F1F1" height="93.4844" style="stroke:#181818;stroke-width:0.5;" width="207.5352" x="445.23" y="430.86"/><text fill="#000000" font-family="sans-serif" font-size="14" lengthAdjust="spacing" textLength="75.7969" x="511.0991" y="445.8551">Asignatura</text><line style="stroke:#181818;stroke-width:0.5;" x1="446.23" x2="651.7652" y1="451.1569" y2="451.1569"/><text fill="#000000" font-family="sans-serif" font-size="14" lengthAdjust="spacing" textLength="112.3076" x="451.23" y="468.152">codigo = "IGPS"</text><text fill="#000000" font-family="sans-serif" font-size="14" lengthAdjust="spacing" textLength="114.3242" x="451.23" y="484.4489">semestre = "1&#186;"</text><text fill="#000000" font-family="sans-serif" font-size="14" lengthAdjust="spacing" textLength="195.5352" x="451.23" y="500.7457">porcentaje_asignacion = 50</text><text fill="#000000" font-family="sans-serif" font-size="14" lengthAdjust="spacing" textLength="139.1182" x="451.23" y="517.0426">numero_grupos = 2</text></g><g id="elem_Titulacion"><rect fill="#F1F1F1" height="60.8906" style="stroke:#181818;stroke-width:0.5;" width="382.002" x="556" y="268.52"/><text fill="#000000" font-family="sans-serif" font-size="14" lengthAdjust="spacing" textLength="68.2979" x="712.8521" y="283.5151">Titulacion</text><line style="stroke:#181818;stroke-width:0.5;" x1="557" x2="937.002" y1="288.8169" y2="288.8169"/><text fill="#000000" font-family="sans-serif" font-size="14" lengthAdjust="spacing" textLength="148.0049" x="562" y="305.812">curso = "2024-2025"</text><text fill="#000000" font-family="sans-serif" font-size="14" lengthAdjust="spacing" textLength="370.002" x="562" y="322.1089">estructura_base = "Grado en Ingenier&#237;a Inform&#225;tica"</text></g><g id="elem_MemoriaAcademica"><rect fill="#F1F1F1" height="109.7813" style="stroke:#181818;stroke-width:0.5;" width="221.5352" x="973.23" y="244.07"/><text fill="#000000" font-family="sans-serif" font-size="14" lengthAdjust="spacing" textLength="138.2773" x="1014.8589" y="259.0651">MemoriaAcademica</text><line style="stroke:#181818;stroke-width:0.5;" x1="974.23" x2="1193.7652" y1="264.3669" y2="264.3669"/><text fill="#000000" font-family="sans-serif" font-size="14" lengthAdjust="spacing" textLength="209.5352" x="979.23" y="281.362">valores_comprometido = true</text><text fill="#000000" font-family="sans-serif" font-size="14" lengthAdjust="spacing" textLength="163.9531" x="979.23" y="297.6589">movilidad_destinos = 2</text><text fill="#000000" font-family="sans-serif" font-size="14" lengthAdjust="spacing" textLength="107.3242" x="979.23" y="313.9557">curso = "2023"</text><text fill="#000000" font-family="sans-serif" font-size="14" lengthAdjust="spacing" textLength="134.2852" x="979.23" y="330.2526">meta_sexenios = 3</text><text fill="#000000" font-family="sans-serif" font-size="14" lengthAdjust="spacing" textLength="161.1914" x="979.23" y="346.5495">meta_movilidad = true</text></g><g id="elem_Indicador"><rect fill="#F1F1F1" height="77.1875" style="stroke:#181818;stroke-width:0.5;" width="158.0635" x="1207.97" y="439"/><text fill="#000000" font-family="sans-serif" font-size="14" lengthAdjust="spacing" textLength="65.2627" x="1254.3704" y="453.9951">Indicador</text><line style="stroke:#181818;stroke-width:0.5;" x1="1208.97" x2="1365.0335" y1="459.2969" y2="459.2969"/><text fill="#000000" font-family="sans-serif" font-size="14" lengthAdjust="spacing" textLength="146.0635" x="1213.97" y="476.292">codigo = "IND-2024"</text><text fill="#000000" font-family="sans-serif" font-size="14" lengthAdjust="spacing" textLength="73.5205" x="1213.97" y="492.5889">valor = 85</text><text fill="#000000" font-family="sans-serif" font-size="14" lengthAdjust="spacing" textLength="135.9736" x="1213.97" y="508.8857">umbral_alerta = 70</text></g><g id="elem_CargaAcademica"><rect fill="#F1F1F1" height="93.4844" style="stroke:#181818;stroke-width:0.5;" width="190.958" x="1229.52" y="252.22"/><text fill="#000000" font-family="sans-serif" font-size="14" lengthAdjust="spacing" textLength="118.7334" x="1265.6323" y="267.2151">CargaAcademica</text><line style="stroke:#181818;stroke-width:0.5;" x1="1230.52" x2="1419.478" y1="272.5169" y2="272.5169"/><text fill="#000000" font-family="sans-serif" font-size="14" lengthAdjust="spacing" textLength="85.7295" x="1235.52" y="289.512">creditos = 6</text><text fill="#000000" font-family="sans-serif" font-size="14" lengthAdjust="spacing" textLength="178.958" x="1235.52" y="305.8089">modalidad = "Presencial"</text><text fill="#000000" font-family="sans-serif" font-size="14" lengthAdjust="spacing" textLength="137.7715" x="1235.52" y="322.1057">tipo = "Obligatoria"</text><text fill="#000000" font-family="sans-serif" font-size="14" lengthAdjust="spacing" textLength="170.5566" x="1235.52" y="338.4026">facultad = "Inform&#225;tica"</text></g><!--link Profesor to Contrato--><g id="link_Profesor_Contrato"><path codeLine="55" d="M633.02,127.09 C555.87,143.29 452.17,167.57 363,197.07 C312.53,213.77 301.82,223.03 253,244.07 C228.53,254.62 206.8918,264.0163 184.2518,273.8663 " fill="none" id="Profesor-to-Contrato" style="stroke:#181818;stroke-width:1.0;"/><polygon fill="#181818" points="178.75,276.26,188.5986,276.3374,183.3349,274.2653,185.407,269.0016,178.75,276.26" style="stroke:#181818;stroke-width:1.0;"/><text fill="#000000" font-family="sans-serif" font-size="13" lengthAdjust="spacing" textLength="32.9443" x="364" y="210.1369">tiene</text></g><!--link Profesor to Experiencia--><g id="link_Profesor_Experiencia"><path codeLine="56" d="M632.95,121.74 C568.57,134.95 488.7,157.93 426,197.07 C403.39,211.19 386.7848,227.8362 371.0748,247.2462 " fill="none" id="Profesor-to-Experiencia" style="stroke:#181818;stroke-width:1.0;"/><polygon fill="#181818" points="367.3,251.91,376.0714,247.4308,370.4456,248.0235,369.853,242.3978,367.3,251.91" style="stroke:#181818;stroke-width:1.0;"/><text fill="#000000" font-family="sans-serif" font-size="13" lengthAdjust="spacing" textLength="32.9443" x="427" y="210.1369">tiene</text></g><!--link Profesor to CargaAcademica--><g id="link_Profesor_CargaAcademica"><path codeLine="57" d="M860.92,133.82 C956.08,159.11 1094.65,198.86 1212,244.07 C1218.19,246.46 1218.9779,246.6933 1225.3079,249.3833 " fill="none" id="Profesor-to-CargaAcademica" style="stroke:#181818;stroke-width:1.0;"/><polygon fill="#181818" points="1230.83,251.73,1224.1113,244.5286,1226.2283,249.7745,1220.9825,251.8914,1230.83,251.73" style="stroke:#181818;stroke-width:1.0;"/><text fill="#000000" font-family="sans-serif" font-size="13" lengthAdjust="spacing" textLength="70.1797" x="1125" y="210.1369">dedicacion</text></g><!--link Profesor to Titulacion--><g id="link_Profesor_Titulacion"><path codeLine="58" d="M747,167.41 C747,201.21 747,241.41 747,268.19 " fill="none" id="Profesor-Titulacion" style="stroke:#181818;stroke-width:1.0;stroke-dasharray:7.0,7.0;"/><text fill="#000000" font-family="sans-serif" font-size="13" lengthAdjust="spacing" textLength="42.8086" x="748" y="210.1369">asigna</text></g><!--link Profesor to Asignatura--><g id="link_Profesor_Asignatura"><path codeLine="59" d="M633.16,135.56 C578.53,156.56 518.11,190.59 486,244.07 C450.8,302.7 483.1169,376.1791 513.3369,425.3191 " fill="none" id="Profesor-to-Asignatura" style="stroke:#181818;stroke-width:1.0;"/><polygon fill="#181818" points="516.48,430.43,515.1726,420.6683,513.8608,426.1709,508.3581,424.8591,516.48,430.43" style="stroke:#181818;stroke-width:1.0;"/><text fill="#000000" font-family="sans-serif" font-size="13" lengthAdjust="spacing" textLength="50.9336" x="487" y="303.5269">imparte</text></g><!--link Profesor to MemoriaAcademica--><g id="link_Profesor_MemoriaAcademica"><path codeLine="60" d="M855.95,167.41 C898.83,191.96 942.4128,216.9092 983.8328,240.6192 " fill="none" id="Profesor-to-MemoriaAcademica" style="stroke:#181818;stroke-width:1.0;"/><polygon fill="#181818" points="989.04,243.6,983.2164,235.6574,984.7007,241.116,979.242,242.6003,989.04,243.6" style="stroke:#181818;stroke-width:1.0;"/><text fill="#000000" font-family="sans-serif" font-size="13" lengthAdjust="spacing" textLength="47.9121" x="936" y="210.1369">cumple</text></g><!--link MemoriaAcademica to Indicador--><g id="link_MemoriaAcademica_Indicador"><path codeLine="61" d="M1146.29,354.16 C1177.75,381.54 1210.6337,410.1514 1238.9737,434.8114 " fill="none" id="MemoriaAcademica-to-Indicador" style="stroke:#181818;stroke-width:1.0;"/><polygon fill="#181818" points="1243.5,438.75,1239.3362,429.8246,1239.7281,435.4679,1234.0848,435.8597,1243.5,438.75" style="stroke:#181818;stroke-width:1.0;"/><text fill="#000000" font-family="sans-serif" font-size="13" lengthAdjust="spacing" textLength="97.0239" x="1198" y="396.9269">meta y valores</text></g><!--link Indicador to Profesor--><g id="link_Indicador_Profesor"><path codeLine="62" d="M1357.58,438.64 C1388.3,418.01 1421.09,389.4 1438,353.86 C1458.96,309.8 1468.91,281.83 1438,244.07 C1366.39,156.61 1044.2364,123.3839 867.1264,111.4339 " fill="none" id="Indicador-to-Profesor" style="stroke:#181818;stroke-width:1.0;"/><polygon fill="#181818" points="861.14,111.03,869.8503,115.6268,866.1287,111.3666,870.3889,107.6449,861.14,111.03" style="stroke:#181818;stroke-width:1.0;"/><text fill="#000000" font-family="sans-serif" font-size="13" lengthAdjust="spacing" textLength="82.272" x="1458" y="303.5269">extrae datos</text></g><!--link Titulacion to Asignatura--><g id="link_Titulacion_Asignatura"><path codeLine="63" d="M713.86,329.53 C682.92,357.13 640.7678,394.7364 604.9778,426.6564 " fill="none" id="Titulacion-to-Asignatura" style="stroke:#181818;stroke-width:1.0;"/><polygon fill="#181818" points="600.5,430.65,609.8792,427.6448,604.2315,427.322,604.5543,421.6743,600.5,430.65" style="stroke:#181818;stroke-width:1.0;"/><text fill="#000000" font-family="sans-serif" font-size="13" lengthAdjust="spacing" textLength="40.6758" x="649" y="396.9269">define</text></g><!--SRC=[bLJ1Rjim3BttAmJVKsHfimq6EY18YoB0bWPOTZOOYJ7KsP91oq66eH-p3zWFxBZ-s2WbiUKwESm78p4VoSV79rKWlqEE8lcsV9YjFy-MwyNyAH4_hmG_TlECqeaLsItMbevV_UEqQmgGsXfn9v9xAvsbf8rgKtl0ATmhtO9sK6WLIcIbtMd_Hp7QKOCjfWra2hcaiJKZ9czAqENy6lTeTCYw2HzVhkB1vjOu0cTxWrNMSvxRiYgGGmkZSAkDLZOvLl3lkCh3laBIQAI6g92o4er3hZNj-6fo3HIz6RJP-T5oK2pmYQP_gg0wonCIFfoXFwjrRi0r5FULLkayZB1uN7rD8YbAxaEUKFBkxvykK5doJE4PCmW5ZskRZbk8QKeac-NKLD46-cJMdICYCWtLWSjaFBaTyMlQzVLi6kdPPnke0wz7OXK46XOzvxqXlVu6_hsrLBx-Sbf2SgRn5omjQPX9K5Wo9chF_h24TIPvcMHBTBp5_xHOFC5DHvvhGJPmLnivQyW-RVOLarMzKnNjRddlvRfD-hDmw6DdfwRS41GP54WEl4V6vpmEb9yLHn8gxGBxzv4Q2ax4anLh5snT98FpyRGfsBFEAzy5jo2RmXsIBwwjlKr6eq_T2KovCXeS8kBJTH7qPiXKAFJgUZVsmTVNiL5JSN3yi61qj5AXomh8dMaxi5xAVl7tHe0EeZwbMtiQh29-d5mQShgm1xVDKe5xrWc5OgqEo6YC0U5mO-7Lopy0]--></g></svg>