<svg xmlns="http://www.w3.org/2000/svg" xmlns:xlink="http://www.w3.org/1999/xlink" contentStyleType="text/css" height="1696px" preserveAspectRatio="none" style="width:993px;height:1696px;background:#FFFFFF;" version="1.1" viewBox="0 0 993 1696" width="993px" zoomAndPan="magnify"><defs/><g><!--cluster No_Valido--><g id="cluster_No_Valido"><path d="M213.51,1167.42 L459.51,1167.42 A12.5,12.5 0 0 1 472.01,1179.92 L472.01,1221.6544 L201.01,1221.6544 L201.01,1179.92 A12.5,12.5 0 0 1 213.51,1167.42 " fill="#F1F1F1" style="stroke:#F1F1F1;stroke-width:1;"/><rect fill="none" height="236.46" rx="12.5" ry="12.5" style="stroke:#181818;stroke-width:0.5;" width="271" x="201.01" y="1167.42"/><line style="stroke:#181818;stroke-width:0.5;" x1="201.01" x2="472.01" y1="1221.6544" y2="1221.6544"/><line style="stroke:#181818;stroke-width:0.5;" x1="201.01" x2="472.01" y1="1188.7169" y2="1188.7169"/><text fill="#000000" font-family="sans-serif" font-size="14" lengthAdjust="spacing" textLength="69.4258" x="301.7971" y="1184.4151">No_Valido</text><text fill="#000000" font-family="sans-serif" font-size="12" lengthAdjust="spacing" textLength="205.9512" x="206.01" y="1202.3555">Estado de fin por incompatibilidad</text><text fill="#000000" font-family="sans-serif" font-size="12" lengthAdjust="spacing" textLength="210.0059" x="206.01" y="1216.3243">- Contrato o EQ TC fuera de l&#237;mites</text></g><ellipse cx="244.01" cy="1368.88" fill="none" rx="11" ry="11" style="stroke:#222222;stroke-width:1;"/><ellipse cx="244.01" cy="1368.88" fill="#222222" rx="6" ry="6" style="stroke:#222222;stroke-width:1;"/><g id="elem_choice"><polygon fill="#F1F1F1" points="509.01,565.74,521.01,577.74,509.01,589.74,497.01,577.74,509.01,565.74" style="stroke:#181818;stroke-width:0.5;"/></g><g id="Sin_Asignacion"><rect fill="#F1F1F1" height="50.2656" rx="12.5" ry="12.5" style="stroke:#181818;stroke-width:0.5;" width="220.3496" x="19.83" y="87"/><line style="stroke:#181818;stroke-width:0.5;" x1="19.83" x2="240.1796" y1="113.2969" y2="113.2969"/><text fill="#000000" font-family="sans-serif" font-size="14" lengthAdjust="spacing" textLength="104.7744" x="77.6176" y="104.9951">Sin_Asignacion</text><text fill="#000000" font-family="sans-serif" font-size="12" lengthAdjust="spacing" textLength="200.3496" x="24.83" y="129.4355">Estado inicial sin carga asignada.</text></g><g id="Propuesta_Carga"><rect fill="#F1F1F1" height="92.1719" rx="12.5" ry="12.5" style="stroke:#181818;stroke-width:0.5;" width="182.2695" x="38.87" y="214.26"/><line style="stroke:#181818;stroke-width:0.5;" x1="38.87" x2="221.1395" y1="240.5569" y2="240.5569"/><text fill="#000000" font-family="sans-serif" font-size="14" lengthAdjust="spacing" textLength="119.0752" x="70.4672" y="232.2551">Propuesta_Carga</text><text fill="#000000" font-family="sans-serif" font-size="12" lengthAdjust="spacing" textLength="162.2695" x="43.87" y="256.6955">Proponer carga basada en:</text><text fill="#000000" font-family="sans-serif" font-size="12" lengthAdjust="spacing" textLength="63.5977" x="43.87" y="270.6643">- Docencia</text><text fill="#000000" font-family="sans-serif" font-size="12" lengthAdjust="spacing" textLength="54.0645" x="43.87" y="284.633">- Gesti&#243;n</text><text fill="#000000" font-family="sans-serif" font-size="12" lengthAdjust="spacing" textLength="87.9141" x="43.87" y="298.6018">- Investigaci&#243;n</text></g><g id="Asignacion_Inicial"><rect fill="#F1F1F1" height="78.2031" rx="12.5" ry="12.5" style="stroke:#181818;stroke-width:0.5;" width="246.0137" x="7" y="383.43"/><line style="stroke:#181818;stroke-width:0.5;" x1="7" x2="253.0137" y1="409.7269" y2="409.7269"/><text fill="#000000" font-family="sans-serif" font-size="14" lengthAdjust="spacing" textLength="124.0723" x="67.9707" y="401.4251">Asignacion_Inicial</text><text fill="#000000" font-family="sans-serif" font-size="12" lengthAdjust="spacing" textLength="226.0137" x="12" y="425.8655">Generar asignaci&#243;n inicial basada en:</text><text fill="#000000" font-family="sans-serif" font-size="12" lengthAdjust="spacing" textLength="60.5098" x="12" y="439.8343">- Contrato</text><text fill="#000000" font-family="sans-serif" font-size="12" lengthAdjust="spacing" textLength="169.0957" x="12" y="453.803">- Necesidades del programa</text></g><g id="Verificar_Contrato"><rect fill="#F1F1F1" height="78.2031" rx="12.5" ry="12.5" style="stroke:#181818;stroke-width:0.5;" width="238.1211" x="10.95" y="538.64"/><line style="stroke:#181818;stroke-width:0.5;" x1="10.95" x2="249.0711" y1="564.9369" y2="564.9369"/><text fill="#000000" font-family="sans-serif" font-size="14" lengthAdjust="spacing" textLength="126.7793" x="66.6209" y="556.6351">Verificar_Contrato</text><text fill="#000000" font-family="sans-serif" font-size="12" lengthAdjust="spacing" textLength="162.5156" x="15.95" y="581.0755">- Verificar tipo de contrato:</text><text fill="#000000" font-family="sans-serif" font-size="12" lengthAdjust="spacing" textLength="150.6855" x="15.95" y="595.0443">- Parcial, Completo, Obra</text><text fill="#000000" font-family="sans-serif" font-size="12" lengthAdjust="spacing" textLength="218.1211" x="15.95" y="609.013">- Asegurar compatibilidad con carga</text></g><g id="Revisi&#243;n_EQ_TC"><rect fill="#F1F1F1" height="78.2031" rx="12.5" ry="12.5" style="stroke:#181818;stroke-width:0.5;" width="172.6719" x="422.67" y="693.84"/><line style="stroke:#181818;stroke-width:0.5;" x1="422.67" x2="595.3419" y1="720.1369" y2="720.1369"/><text fill="#000000" font-family="sans-serif" font-size="14" lengthAdjust="spacing" textLength="111.3301" x="453.3409" y="711.8351">Revisi&#243;n_EQ_TC</text><text fill="#000000" font-family="sans-serif" font-size="12" lengthAdjust="spacing" textLength="89.1035" x="427.67" y="736.2755">Revisar EQ TC:</text><text fill="#000000" font-family="sans-serif" font-size="12" lengthAdjust="spacing" textLength="152.6719" x="427.67" y="750.2443">- EQ TC REAL vs Contrato</text><text fill="#000000" font-family="sans-serif" font-size="12" lengthAdjust="spacing" textLength="152.5254" x="427.67" y="764.213">- Verificar l&#237;mite de carga</text></g><g id="Revisi&#243;n_Carga"><rect fill="#F1F1F1" height="92.1719" rx="12.5" ry="12.5" style="stroke:#181818;stroke-width:0.5;" width="222.6582" x="572.68" y="849.04"/><line style="stroke:#181818;stroke-width:0.5;" x1="572.68" x2="795.3382" y1="875.3369" y2="875.3369"/><text fill="#000000" font-family="sans-serif" font-size="14" lengthAdjust="spacing" textLength="107.7139" x="630.1522" y="867.0351">Revisi&#243;n_Carga</text><text fill="#000000" font-family="sans-serif" font-size="12" lengthAdjust="spacing" textLength="173.7012" x="577.68" y="891.4755">Revisar proporci&#243;n de carga:</text><text fill="#000000" font-family="sans-serif" font-size="12" lengthAdjust="spacing" textLength="202.6582" x="577.68" y="905.4443">- Docencia, gesti&#243;n, investigaci&#243;n</text><text fill="#000000" font-family="sans-serif" font-size="12" lengthAdjust="spacing" textLength="168.1113" x="577.68" y="919.413">- Validaci&#243;n por asignaturas</text><text fill="#000000" font-family="sans-serif" font-size="12" lengthAdjust="spacing" textLength="150.1289" x="577.68" y="933.3818">- Detectar subasignaci&#243;n</text></g><g id="Verificar_Memoria"><rect fill="#F1F1F1" height="78.2031" rx="12.5" ry="12.5" style="stroke:#181818;stroke-width:0.5;" width="277.6895" x="562.16" y="1018.21"/><line style="stroke:#181818;stroke-width:0.5;" x1="562.16" x2="839.8495" y1="1044.5069" y2="1044.5069"/><text fill="#000000" font-family="sans-serif" font-size="14" lengthAdjust="spacing" textLength="126.8066" x="637.6014" y="1036.2051">Verificar_Memoria</text><text fill="#000000" font-family="sans-serif" font-size="12" lengthAdjust="spacing" textLength="257.6895" x="567.16" y="1060.6455">Verificar memoria aprobada del programa:</text><text fill="#000000" font-family="sans-serif" font-size="12" lengthAdjust="spacing" textLength="198.123" x="567.16" y="1074.6143">- Carga vs compromisos oficiales</text><text fill="#000000" font-family="sans-serif" font-size="12" lengthAdjust="spacing" textLength="147.334" x="567.16" y="1088.583">- Identificar desbalances</text></g><g id="Asignada"><rect fill="#F1F1F1" height="78.2031" rx="12.5" ry="12.5" style="stroke:#181818;stroke-width:0.5;" width="241.2324" x="496.39" y="1329.78"/><line style="stroke:#181818;stroke-width:0.5;" x1="496.39" x2="737.6224" y1="1356.0769" y2="1356.0769"/><text fill="#000000" font-family="sans-serif" font-size="14" lengthAdjust="spacing" textLength="64.5654" x="584.7235" y="1347.7751">Asignada</text><text fill="#000000" font-family="sans-serif" font-size="12" lengthAdjust="spacing" textLength="127.6465" x="501.39" y="1372.2155">Carga final asignada:</text><text fill="#000000" font-family="sans-serif" font-size="12" lengthAdjust="spacing" textLength="221.2324" x="501.39" y="1386.1843">- Tipo de contrato y EQ TC reflejados</text><text fill="#000000" font-family="sans-serif" font-size="12" lengthAdjust="spacing" textLength="202.0137" x="501.39" y="1400.153">- Estado final de gesti&#243;n de carga</text></g><g id="Cumplimiento_Legal"><rect fill="#F1F1F1" height="64.2344" rx="12.5" ry="12.5" style="stroke:#181818;stroke-width:0.5;" width="218.6973" x="413.66" y="1484.98"/><line style="stroke:#181818;stroke-width:0.5;" x1="413.66" x2="632.3573" y1="1511.2769" y2="1511.2769"/><text fill="#000000" font-family="sans-serif" font-size="14" lengthAdjust="spacing" textLength="142.7891" x="451.6141" y="1502.9751">Cumplimiento_Legal</text><text fill="#000000" font-family="sans-serif" font-size="12" lengthAdjust="spacing" textLength="117.6621" x="418.66" y="1527.4155">Validar normativas:</text><text fill="#000000" font-family="sans-serif" font-size="12" lengthAdjust="spacing" textLength="198.6973" x="418.66" y="1541.3843">- Compatibilidad con marco legal</text></g><g id="Ajuste_Carga"><rect fill="#F1F1F1" height="64.2344" rx="12.5" ry="12.5" style="stroke:#181818;stroke-width:0.5;" width="274.584" x="682.71" y="1626.22"/><line style="stroke:#181818;stroke-width:0.5;" x1="682.71" x2="957.294" y1="1652.5169" y2="1652.5169"/><text fill="#000000" font-family="sans-serif" font-size="14" lengthAdjust="spacing" textLength="92.3125" x="773.8457" y="1644.2151">Ajuste_Carga</text><text fill="#000000" font-family="sans-serif" font-size="12" lengthAdjust="spacing" textLength="177.4453" x="687.71" y="1668.6555">Modificar carga seg&#250;n EQ TC:</text><text fill="#000000" font-family="sans-serif" font-size="12" lengthAdjust="spacing" textLength="254.584" x="687.71" y="1682.6243">- Ajustar docencia, gesti&#243;n o investigaci&#243;n</text></g><ellipse cx="130.01" cy="16" fill="#222222" rx="10" ry="10" style="stroke:#222222;stroke-width:1;"/><g id="Aprobada"><rect fill="#F1F1F1" height="50" rx="12.5" ry="12.5" style="stroke:#181818;stroke-width:0.5;" width="87.7168" x="697.15" y="1202.78"/><line style="stroke:#181818;stroke-width:0.5;" x1="697.15" x2="784.8668" y1="1229.0769" y2="1229.0769"/><text fill="#000000" font-family="sans-serif" font-size="14" lengthAdjust="spacing" textLength="67.7168" x="707.15" y="1220.7751">Aprobada</text></g><ellipse cx="339.01" cy="1658.33" fill="none" rx="11" ry="11" style="stroke:#222222;stroke-width:1;"/><ellipse cx="339.01" cy="1658.33" fill="#222222" rx="6" ry="6" style="stroke:#222222;stroke-width:1;"/><!--link *start* to Sin_Asignacion--><g id="link_*start*_Sin_Asignacion"><path d="M130.01,26.37 C130.01,40.32 130.01,61.02 130.01,80.74 " fill="none" id="*start*-to-Sin_Asignacion" style="stroke:#181818;stroke-width:1;"/><polygon fill="#181818" points="130.01,86.74,134.01,77.74,130.01,81.74,126.01,77.74,130.01,86.74" style="stroke:#181818;stroke-width:1;"/></g><!--link Sin_Asignacion to Propuesta_Carga--><g id="link_Sin_Asignacion_Propuesta_Carga"><path d="M130.01,137.6 C130.01,158.33 130.01,182.61 130.01,207.79 " fill="none" id="Sin_Asignacion-to-Propuesta_Carga" style="stroke:#181818;stroke-width:1;"/><polygon fill="#181818" points="130.01,213.79,134.01,204.79,130.01,208.79,126.01,204.79,130.01,213.79" style="stroke:#181818;stroke-width:1;"/><text fill="#000000" font-family="sans-serif" font-size="13" lengthAdjust="spacing" textLength="164.9058" x="131.01" y="180.3269">Generar propuesta inicial</text></g><!--link Propuesta_Carga to Asignacion_Inicial--><g id="link_Propuesta_Carga_Asignacion_Inicial"><path d="M130.01,306.82 C130.01,330.87 130.01,354.08 130.01,377 " fill="none" id="Propuesta_Carga-to-Asignacion_Inicial" style="stroke:#181818;stroke-width:1;"/><polygon fill="#181818" points="130.01,383,134.01,374,130.01,378,126.01,374,130.01,383" style="stroke:#181818;stroke-width:1;"/><text fill="#000000" font-family="sans-serif" font-size="13" lengthAdjust="spacing" textLength="233.1621" x="131.01" y="349.4969">Validar y registrar asignaci&#243;n inicial</text></g><!--link Asignacion_Inicial to Verificar_Contrato--><g id="link_Asignacion_Inicial_Verificar_Contrato"><path d="M130.01,461.8 C130.01,485.11 130.01,508.8 130.01,532.16 " fill="none" id="Asignacion_Inicial-to-Verificar_Contrato" style="stroke:#181818;stroke-width:1;"/><polygon fill="#181818" points="130.01,538.16,134.01,529.16,130.01,533.16,126.01,529.16,130.01,538.16" style="stroke:#181818;stroke-width:1;"/><text fill="#000000" font-family="sans-serif" font-size="13" lengthAdjust="spacing" textLength="186.9004" x="131.01" y="504.7069">Validar contrato del profesor</text></g><!--link Verificar_Contrato to No_Valido--><g id="link_Verificar_Contrato_No_Valido"><path d="M114.99,617.13 C104.37,647.73 92.01,691.93 92.01,731.94 C92.01,731.94 92.01,731.94 92.01,1058.32 C92.01,1118.41 144.5775,1160.1575 197.9663,1187.0613 C198.8004,1187.4816 194.2578,1185.2361 195.0923,1185.6492 " fill="none" id="Verificar_Contrato-to-No_Valido" style="stroke:#181818;stroke-width:1;"/><polygon fill="#181818" points="200.4693,1188.3115,194.1786,1180.7334,195.9884,1186.0929,190.6289,1187.9027,200.4693,1188.3115" style="stroke:#181818;stroke-width:1;"/><text fill="#000000" font-family="sans-serif" font-size="13" lengthAdjust="spacing" textLength="145.2661" x="93.01" y="899.6969">Contrato incompatible</text></g><!--link No_Valido to *end*No_Valido--><g id="link_No_Valido_*end*No_Valido"><path d="M308.96,1228.88 C307.31,1232.42 265.1607,1322.6145 250.8807,1353.1645 " fill="none" id="No_Valido-to-*end*No_Valido" style="stroke:#181818;stroke-width:1;"/><polygon fill="#181818" points="248.34,1358.6,255.7748,1352.1406,250.4573,1354.0704,248.5274,1348.7529,248.34,1358.6" style="stroke:#181818;stroke-width:1;"/><text fill="#000000" font-family="sans-serif" font-size="13" lengthAdjust="spacing" textLength="218.918" x="284.01" y="1295.8469">Proceso terminado sin asignaci&#243;n</text></g><!--link Verificar_Contrato to Revisi?n_EQ_TC--><g id="link_Verificar_Contrato_Revisi&#243;n_EQ_TC"><path d="M225.16,617.2 C285.67,641.66 357.8671,670.8519 416.6871,694.6219 " fill="none" id="Verificar_Contrato-to-Revisi&#243;n_EQ_TC" style="stroke:#181818;stroke-width:1;"/><polygon fill="#181818" points="422.25,696.87,415.4043,689.7893,417.6142,694.9966,412.4069,697.2065,422.25,696.87" style="stroke:#181818;stroke-width:1;"/><text fill="#000000" font-family="sans-serif" font-size="13" lengthAdjust="spacing" textLength="99.9502" x="331.01" y="659.9069">Contrato v&#225;lido</text></g><!--link Revisi?n_EQ_TC to No_Valido--><g id="link_Revisi&#243;n_EQ_TC_No_Valido"><path d="M504.01,772.3 C497.74,814.62 485.16,884.26 464.01,941.21 C439.265,1007.845 401.33,1078.065 369.1825,1132.1988 C365.1641,1138.9655 361.2361,1145.4808 357.4355,1151.7064 C355.5353,1154.8192 353.6669,1157.8596 351.835,1160.8227 C350.9191,1162.3043 350.0123,1163.7665 349.1152,1165.2089 C348.6666,1165.93 351.3962,1161.5555 350.9526,1162.2667 " fill="none" id="Revisi&#243;n_EQ_TC-to-No_Valido" style="stroke:#181818;stroke-width:1;"/><polygon fill="#181818" points="347.7769,1167.3574,355.9342,1161.8385,350.4233,1163.1151,349.1466,1157.6042,347.7769,1167.3574" style="stroke:#181818;stroke-width:1;"/><text fill="#000000" font-family="sans-serif" font-size="13" lengthAdjust="spacing" textLength="136.6079" x="452.01" y="984.2769">EQ TC no compatible</text></g><!--link Revisi?n_EQ_TC to Revisi?n_Carga--><g id="link_Revisi&#243;n_EQ_TC_Revisi&#243;n_Carga"><path d="M550.92,772.31 C576,795.26 603.5841,820.5088 629.9241,844.6188 " fill="none" id="Revisi&#243;n_EQ_TC-to-Revisi&#243;n_Carga" style="stroke:#181818;stroke-width:1;"/><polygon fill="#181818" points="634.35,848.67,630.412,839.6427,630.6618,845.294,625.0105,845.5438,634.35,848.67" style="stroke:#181818;stroke-width:1;"/><text fill="#000000" font-family="sans-serif" font-size="13" lengthAdjust="spacing" textLength="107.5039" x="602.01" y="815.1069">EQ TC adecuado</text></g><!--link Revisi?n_Carga to Verificar_Memoria--><g id="link_Revisi&#243;n_Carga_Verificar_Memoria"><path d="M688.83,941.6 C691.39,965.65 693.8448,988.8937 696.2848,1011.8137 " fill="none" id="Revisi&#243;n_Carga-to-Verificar_Memoria" style="stroke:#181818;stroke-width:1;"/><polygon fill="#181818" points="696.92,1017.78,699.9448,1008.4071,696.3907,1012.8081,691.9897,1009.254,696.92,1017.78" style="stroke:#181818;stroke-width:1;"/><text fill="#000000" font-family="sans-serif" font-size="13" lengthAdjust="spacing" textLength="202.8521" x="694.01" y="984.2769">Validaci&#243;n preliminar completa</text></g><!--link Verificar_Memoria to No_Valido--><g id="link_Verificar_Memoria_No_Valido"><path d="M626.79,1096.72 C596.46,1111.92 560.85,1129.13 528.01,1143.42 C516.2588,1148.5325 504.0836,1153.6489 491.7668,1158.6909 C485.6084,1161.2118 479.4145,1163.7142 473.2206,1166.1882 C472.4463,1166.4974 477.2463,1164.5861 476.4721,1164.8945 " fill="none" id="Verificar_Memoria-to-No_Valido" style="stroke:#181818;stroke-width:1;"/><polygon fill="#181818" points="470.8979,1167.1145,480.7392,1167.5006,475.5431,1165.2645,477.7791,1160.0683,470.8979,1167.1145" style="stroke:#181818;stroke-width:1;"/><text fill="#000000" font-family="sans-serif" font-size="13" lengthAdjust="spacing" textLength="132.4819" x="562.01" y="1139.4869">Memoria incumplida</text></g><!--link Verificar_Memoria to Aprobada--><g id="link_Verificar_Memoria_Aprobada"><path d="M710.08,1096.54 C717.81,1129.06 727.2747,1168.9421 733.8547,1196.6721 " fill="none" id="Verificar_Memoria-to-Aprobada" style="stroke:#181818;stroke-width:1;"/><polygon fill="#181818" points="735.24,1202.51,737.054,1192.8296,734.0856,1197.6451,729.2702,1194.6767,735.24,1202.51" style="stroke:#181818;stroke-width:1;"/><text fill="#000000" font-family="sans-serif" font-size="13" lengthAdjust="spacing" textLength="120.6309" x="722.01" y="1139.4869">Memoria cumplida</text></g><!--link Aprobada to Asignada--><g id="link_Aprobada_Asignada"><path d="M696.87,1234.97 C667.98,1241.57 632.31,1255.1 614.01,1282.78 C605.04,1296.34 603.5303,1308.0135 605.6403,1323.7035 " fill="none" id="Aprobada-to-Asignada" style="stroke:#181818;stroke-width:1;"/><polygon fill="#181818" points="606.44,1329.65,609.2048,1320.1972,605.7736,1324.6946,601.2762,1321.2634,606.44,1329.65" style="stroke:#181818;stroke-width:1;"/><text fill="#000000" font-family="sans-serif" font-size="13" lengthAdjust="spacing" textLength="178.3691" x="615.01" y="1295.8469">Carga aceptada y asignada</text></g><!--link Asignada to Cumplimiento_Legal--><g id="link_Asignada_Cumplimiento_Legal"><path d="M544.46,1408.43 C534.61,1416.83 525.89,1426.66 520.01,1437.98 C512.62,1452.19 511.8032,1463.9644 514.0132,1478.9244 " fill="none" id="Asignada-to-Cumplimiento_Legal" style="stroke:#181818;stroke-width:1;"/><polygon fill="#181818" points="514.89,1484.86,517.5318,1475.3721,514.1593,1479.9137,509.6177,1476.5412,514.89,1484.86" style="stroke:#181818;stroke-width:1;"/><text fill="#000000" font-family="sans-serif" font-size="13" lengthAdjust="spacing" textLength="255.8296" x="521.01" y="1451.0469">Revisi&#243;n opcional de conformidad legal</text></g><!--link Cumplimiento_Legal to Ajuste_Carga--><g id="link_Cumplimiento_Legal_Ajuste_Carga"><path d="M534.17,1549.71 C541.43,1565.89 552.48,1584.58 568.01,1596.22 C600.97,1620.92 636.7036,1634.465 676.5536,1643.345 " fill="none" id="Cumplimiento_Legal-to-Ajuste_Carga" style="stroke:#181818;stroke-width:1;"/><polygon fill="#181818" points="682.41,1644.65,674.4955,1638.7883,677.5297,1643.5625,672.7555,1646.5967,682.41,1644.65" style="stroke:#181818;stroke-width:1;"/><text fill="#000000" font-family="sans-serif" font-size="13" lengthAdjust="spacing" textLength="224.98" x="569.01" y="1592.2869">No cumple con normativas legales</text></g><!--link Cumplimiento_Legal to *end*--><g id="link_Cumplimiento_Legal_*end*"><path d="M413.33,1530.03 C383.48,1538.89 354.35,1553.92 336.01,1579.22 C321.19,1599.65 327.4909,1625.9728 333.1309,1641.9328 " fill="none" id="Cumplimiento_Legal-to-*end*" style="stroke:#181818;stroke-width:1;"/><polygon fill="#181818" points="335.13,1647.59,335.9027,1637.7715,333.464,1642.8757,328.3598,1640.437,335.13,1647.59" style="stroke:#181818;stroke-width:1;"/><text fill="#000000" font-family="sans-serif" font-size="13" lengthAdjust="spacing" textLength="190.5566" x="337.01" y="1592.2869">Cumple, proceso completado</text></g><!--link Aprobada to Ajuste_Carga--><g id="link_Aprobada_Ajuste_Carga"><path d="M775,1253.14 C784.06,1261.46 792.77,1271.53 798.01,1282.78 C812.3,1313.49 817.7771,1535.5611 819.3671,1620.0111 " fill="none" id="Aprobada-to-Ajuste_Carga" style="stroke:#181818;stroke-width:1;"/><polygon fill="#181818" points="819.48,1626.01,823.3099,1616.9363,819.3859,1621.0109,815.3113,1617.0869,819.48,1626.01" style="stroke:#181818;stroke-width:1;"/><text fill="#000000" font-family="sans-serif" font-size="13" lengthAdjust="spacing" textLength="141.9082" x="815.01" y="1451.0469">Se requieren cambios</text></g><!--link Ajuste_Carga to choice--><g id="link_Ajuste_Carga_choice"><path d="M899.12,1625.93 C941.87,1603.22 986.01,1567.75 986.01,1518.1 C986.01,731.94 986.01,731.94 986.01,731.94 C986.01,630.39 595.1409,587.2206 525.3809,580.3206 " fill="none" id="Ajuste_Carga-to-choice" style="stroke:#181818;stroke-width:1;"/><polygon fill="#181818" points="519.41,579.73,527.9726,584.5964,524.3857,580.2222,528.76,576.6353,519.41,579.73" style="stroke:#181818;stroke-width:1;"/></g><!--link choice to No_Valido--><g id="link_choice_No_Valido"><path d="M499.63,580.92 C460.09,590.74 309.01,634.62 309.01,731.94 C309.01,731.94 309.01,731.94 309.01,1058.32 C309.01,1076.745 309.01,1096.3038 309.01,1115.3223 C309.01,1124.8316 309.01,1134.2059 309.01,1143.2359 C309.01,1147.7509 309.01,1152.1798 309.01,1156.4965 C309.01,1158.6548 309.01,1160.7851 309.01,1162.8841 C309.01,1163.9336 309.01,1164.9752 309.01,1166.0086 C309.01,1166.267 309.01,1160.5248 309.01,1160.7822 " fill="none" id="choice-to-No_Valido" style="stroke:#181818;stroke-width:1;"/><polygon fill="#181818" points="309.01,1166.7822,313.01,1157.7822,309.01,1161.7822,305.01,1157.7822,309.01,1166.7822" style="stroke:#181818;stroke-width:1;"/><text fill="#000000" font-family="sans-serif" font-size="13" lengthAdjust="spacing" textLength="145.8755" x="310.01" y="899.6969">Inviabilidad de ajustes</text></g><!--link choice to Revisi?n_EQ_TC--><g id="link_choice_Revisi&#243;n_EQ_TC"><path d="M509.01,590.25 C509.01,611.9 509.01,653.52 509.01,687.58 " fill="none" id="choice-to-Revisi&#243;n_EQ_TC" style="stroke:#181818;stroke-width:1;"/><polygon fill="#181818" points="509.01,693.58,513.01,684.58,509.01,688.58,505.01,684.58,509.01,693.58" style="stroke:#181818;stroke-width:1;"/><text fill="#000000" font-family="sans-serif" font-size="13" lengthAdjust="spacing" textLength="125.3408" x="510.01" y="659.9069">Reenviar a revisi&#243;n</text></g><!--SRC=[VLPBRjim4Dtx5BCkh1v02084QH04IDBya4rG6BGqTXb8f4lA1eAYX-a1kkgksroiC_peGrF9oY7dlVbmverUFds3eZY5HwbMPrPkbQYaLek5xKI7K7tNia8uEV4_Ja_ZnTGSVYw0_fB34Yx8kDOWbQoaQC1A1PKmMm72MTNYy-BNOf70E9exetTx9FJgtDcNS8aAZJ2mYpUHDKQKGdn8nqHyeeahHB8Mbk80LEMCVG5VT8MANCqQNDB_ylslcZMuKWSssLA2R4OvfrQSz523rLMeM0dFef4rvVq61hVITbm34Go9Awr2XiCN8aiUYveXJ0kJnHTmhXM5rEcFR6wnGaj9r6YXneQVS6j4AxWE6GYNuXcDt4XweLLqC2f55Oy2sGQjDh406QGlG9Qo68wXapkcxEdBZs1tmd2mIof0kskmqqlukZRY8yYPnUtUkFZRdUZaMd8wDVlplSZro62v7hTwvR9dflv2giZKO4n_CFHPZu5X6Yd53GtYJfiHWu_b238yC6Yuk8UdSzZigMMOf7d_qyeERGBYS5z8LDoaqSDhwD2qKh5h5e1HhtsGy0CUf6MRrSNzYhoEqZwy_sP7CUFKqkTzZ7SdL7sNHJbZL8Ga7oxEhk5Wf-sTCn_Q9vJ3TL1ypHIHFgLtfZIC7ZA76SwYfdWaZLIr5xbQZ3Nm61rhmMAgZP_x67SvWnbqS0dR87XBwg29iir1_UXwHznulWaw6WSxxmuxh3gAqkxNITEavbF9kC5M6obwnGXk3JQI-z0F8CsiEDQC24qbOqJPFtWRpWHLSSrIETQsSfQ0Hih5JDt5SHZTIgijw8rJlp1EUU1LZQeBtabCrw8HYYPiEaOHaFPQFAUPtrFwL9SPq5dCPy3qY4L_EImiP-bp4XNkEZvuwpVyT37LOhAEHb2I9DB-Y2fJemAU4dac7tu836uQVAKfiCUW87cUdC2nSITJsYCuftENQYkfqdfrZLktm_f-0xtZNUN9A9AD9cbZ4M_OCkQQuV1PPydZMbF4HHfm4BQSDoxSmacsHqlBI8SGA9yCqBtMwzvss0_OhVRFwl8OEVSyr5KpD5xRtIKkkT-TniUHOYsQziZKwoFIU_tOIpJ8MwzTItgss29Zqz0cK_IDhaFx-uytsgZl_zHOqXD0uGzuNex42tHElIO4d83_ygMwXc_XTAxesqwA-1hK5S8HsB5vRXaXmqW8gHpXyZy0]--></g></svg>