<svg xmlns="http://www.w3.org/2000/svg" xmlns:xlink="http://www.w3.org/1999/xlink" contentStyleType="text/css" data-diagram-type="STATE" height="740px" preserveAspectRatio="none" style="width:384px;height:740px;background:#FFFFFF;" version="1.1" viewBox="0 0 384 740" width="384px" zoomAndPan="magnify"><defs/><g><path d="M19.5,7 L358.4781,7 A12.5,12.5 0 0 1 370.9781,19.5 L370.9781,33.2969 L7,33.2969 L7,19.5 A12.5,12.5 0 0 1 19.5,7 " fill="#F1F1F1" style="stroke:#F1F1F1;stroke-width:1;"/><rect fill="#FFFFFF" fill-opacity="0.00000" height="727.8869" rx="12.5" ry="12.5" style="stroke:#181818;stroke-width:0.5;" width="363.9781" x="7" y="7"/><line style="stroke:#181818;stroke-width:0.5;" x1="7" x2="370.9781" y1="33.2969" y2="33.2969"/><text fill="#000000" font-family="sans-serif" font-size="14" lengthAdjust="spacing" textLength="75.7969" x="151.0906" y="24.9951">Asignatura</text><path d="M60.5578,101.2969 L220.714,101.2969 A12.5,12.5 0 0 1 233.214,113.7969 L233.214,127.5938 L48.0578,127.5938 L48.0578,113.7969 A12.5,12.5 0 0 1 60.5578,101.2969 " fill="#F1F1F1" style="stroke:#F1F1F1;stroke-width:1;"/><rect fill="#FFFFFF" fill-opacity="0.00000" height="153.2969" rx="12.5" ry="12.5" style="stroke:#181818;stroke-width:0.5;" width="185.1563" x="48.0578" y="101.2969"/><line style="stroke:#181818;stroke-width:0.5;" x1="48.0578" x2="233.214" y1="127.5938" y2="127.5938"/><text fill="#000000" font-family="sans-serif" font-size="14" lengthAdjust="spacing" textLength="34.9453" x="123.1632" y="119.292">Libre</text><ellipse cx="142.1378" cy="148.5938" fill="#222222" rx="10" ry="10" style="stroke:#222222;stroke-width:1;"/><g id="Asignatura.Libre.CapacidadVerificada"><rect fill="#F1F1F1" height="50" rx="12.5" ry="12.5" style="stroke:#181818;stroke-width:0.5;" width="164.1563" x="60.0578" y="194.5938"/><line style="stroke:#181818;stroke-width:0.5;" x1="60.0578" x2="224.214" y1="220.8906" y2="220.8906"/><text fill="#000000" font-family="sans-serif" font-size="14" lengthAdjust="spacing" textLength="144.1563" x="70.0578" y="212.5889">CapacidadVerificada</text></g><!--link *start*Libre to CapacidadVerificada--><g id="link_*start*Libre_CapacidadVerificada"><path d="M142.1378,158.9038 C142.1378,167.9438 142.1378,176.0838 142.1378,188.3238 " fill="#FFFFFF" fill-opacity="0.00000" id="*start*Libre-to-CapacidadVerificada" style="stroke:#181818;stroke-width:1;"/><polygon fill="#181818" points="142.1378,194.3238,146.1378,185.3238,142.1378,189.3238,138.1378,185.3238,142.1378,194.3238" style="stroke:#181818;stroke-width:1;"/></g><path d="M48.4078,307.5869 L186.8804,307.5869 A12.5,12.5 0 0 1 199.3804,320.0869 L199.3804,333.8838 L35.9078,333.8838 L35.9078,320.0869 A12.5,12.5 0 0 1 48.4078,307.5869 " fill="#F1F1F1" style="stroke:#F1F1F1;stroke-width:1;"/><rect fill="#FFFFFF" fill-opacity="0.00000" height="239.2969" rx="12.5" ry="12.5" style="stroke:#181818;stroke-width:0.5;" width="163.4727" x="35.9078" y="307.5869"/><line style="stroke:#181818;stroke-width:0.5;" x1="35.9078" x2="199.3804" y1="333.8838" y2="333.8838"/><text fill="#000000" font-family="sans-serif" font-size="14" lengthAdjust="spacing" textLength="72.6523" x="81.3179" y="325.582">EnProceso</text><ellipse cx="119.1478" cy="354.8838" fill="#222222" rx="10" ry="10" style="stroke:#222222;stroke-width:1;"/><g id="Asignatura.EnProceso.ProfesorValidado"><rect fill="#F1F1F1" height="50" rx="12.5" ry="12.5" style="stroke:#181818;stroke-width:0.5;" width="138.7744" x="49.7578" y="400.8838"/><line style="stroke:#181818;stroke-width:0.5;" x1="49.7578" x2="188.5322" y1="427.1806" y2="427.1806"/><text fill="#000000" font-family="sans-serif" font-size="14" lengthAdjust="spacing" textLength="118.7744" x="59.7578" y="418.8789">ProfesorValidado</text></g><g id="Asignatura.EnProceso.ProfesorAsignado"><rect fill="#F1F1F1" height="50" rx="12.5" ry="12.5" style="stroke:#181818;stroke-width:0.5;" width="142.4727" x="47.9078" y="486.8838"/><line style="stroke:#181818;stroke-width:0.5;" x1="47.9078" x2="190.3804" y1="513.1806" y2="513.1806"/><text fill="#000000" font-family="sans-serif" font-size="14" lengthAdjust="spacing" textLength="122.4727" x="57.9078" y="504.8789">ProfesorAsignado</text></g><!--link *start*EnProceso to ProfesorValidado--><g id="link_*start*EnProceso_ProfesorValidado"><path d="M119.1478,365.1938 C119.1478,374.2338 119.1478,382.3738 119.1478,394.6138 " fill="#FFFFFF" fill-opacity="0.00000" id="*start*EnProceso-to-ProfesorValidado" style="stroke:#181818;stroke-width:1;"/><polygon fill="#181818" points="119.1478,400.6138,123.1478,391.6138,119.1478,395.6138,115.1478,391.6138,119.1478,400.6138" style="stroke:#181818;stroke-width:1;"/></g><!--link ProfesorValidado to ProfesorAsignado--><g id="link_ProfesorValidado_ProfesorAsignado"><path d="M119.1478,451.1838 C119.1478,462.3238 119.1478,469.5038 119.1478,480.6438 " fill="#FFFFFF" fill-opacity="0.00000" id="ProfesorValidado-to-ProfesorAsignado" style="stroke:#181818;stroke-width:1;"/><polygon fill="#181818" points="119.1478,486.6438,123.1478,477.6438,119.1478,481.6438,115.1478,477.6438,119.1478,486.6438" style="stroke:#181818;stroke-width:1;"/></g><ellipse cx="140.6378" cy="54.2969" fill="#222222" rx="10" ry="10" style="stroke:#222222;stroke-width:1;"/><g id="Asignatura.Completa"><rect fill="#F1F1F1" height="50" rx="12.5" ry="12.5" style="stroke:#181818;stroke-width:0.5;" width="87.4365" x="149.9178" y="599.8869"/><line style="stroke:#181818;stroke-width:0.5;" x1="149.9178" x2="237.3543" y1="626.1838" y2="626.1838"/><text fill="#000000" font-family="sans-serif" font-size="14" lengthAdjust="spacing" textLength="67.4365" x="159.9178" y="617.882">Completa</text></g><ellipse cx="193.6378" cy="713.8869" fill="#FFFFFF" fill-opacity="0.00000" rx="11" ry="11" style="stroke:#222222;stroke-width:1;"/><ellipse cx="193.6378" cy="713.8869" fill="#222222" rx="6" ry="6" style="stroke:#222222;stroke-width:1;"/><!--link *start*Asignatura to Libre--><g id="link_*start*Asignatura_Libre"><path d="M140.6378,64.4369 C140.6378,72.8869 140.6378,80.3369 140.6378,95.0369 " fill="#FFFFFF" fill-opacity="0.00000" id="*start*Asignatura-to-Libre" style="stroke:#181818;stroke-width:1;"/><polygon fill="#181818" points="140.6378,101.0369,144.6378,92.0369,140.6378,96.0369,136.6378,92.0369,140.6378,101.0369" style="stroke:#181818;stroke-width:1;"/></g><!--link Libre to EnProceso--><g id="link_Libre_EnProceso"><path d="M47.6878,247.0769 C41.3278,254.9969 35.8078,263.5169 31.6378,272.5869 C21.9478,293.7069 22.9938,310.4066 32.9038,331.0766 " fill="#FFFFFF" fill-opacity="0.00000" id="Libre-to-EnProceso" style="stroke:#181818;stroke-width:1;"/><polygon fill="#181818" points="35.4978,336.4869,35.2138,326.6421,33.3362,331.9783,28,330.1007,35.4978,336.4869" style="stroke:#181818;stroke-width:1;"/><text fill="#000000" font-family="sans-serif" font-size="13" lengthAdjust="spacing" textLength="85.2046" x="32.6378" y="285.6538">No est&#225; llena</text></g><!--link EnProceso to Completa--><g id="link_EnProceso_Completa"><path d="M105.8778,547.0569 C108.2878,559.3369 112.3378,571.2069 118.6378,581.8869 C125.6978,593.8369 132.2109,599.8664 144.4109,606.2464 " fill="#FFFFFF" fill-opacity="0.00000" id="EnProceso-to-Completa" style="stroke:#181818;stroke-width:1;"/><polygon fill="#181818" points="149.7278,609.0269,143.6061,601.3116,145.297,606.7098,139.8988,608.4008,149.7278,609.0269" style="stroke:#181818;stroke-width:1;"/><text fill="#000000" font-family="sans-serif" font-size="13" lengthAdjust="spacing" textLength="135.5098" x="119.6378" y="577.9538">Asignacion completa</text></g><!--link Completa to Libre--><g id="link_Completa_Libre"><path d="M237.8278,602.0769 C244.9978,596.5169 251.4378,589.8069 255.6378,581.8869 C320.0678,460.4369 309.3678,396.8969 250.6378,272.5869 C246.1978,263.1769 244.1227,258.9796 237.3627,250.8096 " fill="#FFFFFF" fill-opacity="0.00000" id="Completa-to-Libre" style="stroke:#181818;stroke-width:1;"/><polygon fill="#181818" points="233.5378,246.1869,236.1933,255.671,236.7252,250.0392,242.357,250.571,233.5378,246.1869" style="stroke:#181818;stroke-width:1;"/><text fill="#000000" font-family="sans-serif" font-size="13" lengthAdjust="spacing" textLength="36.8989" x="299.6378" y="431.8038">Reset</text></g><!--link Completa to *end*Asignatura--><g id="link_Completa_*end*Asignatura"><path d="M193.6378,650.1169 C193.6378,667.4169 193.6378,683.8069 193.6378,696.6369 " fill="#FFFFFF" fill-opacity="0.00000" id="Completa-to-*end*Asignatura" style="stroke:#181818;stroke-width:1;"/><polygon fill="#181818" points="193.6378,702.6369,197.6378,693.6369,193.6378,697.6369,189.6378,693.6369,193.6378,702.6369" style="stroke:#181818;stroke-width:1;"/><text fill="#000000" font-family="sans-serif" font-size="13" lengthAdjust="spacing" textLength="166.3403" x="194.6378" y="680.9538">Todas las horas cubiertas</text></g><!--link EnProceso to Libre--><g id="link_EnProceso_Libre"><path d="M128.7078,307.2469 C130.3678,289.4069 131.4803,277.4009 133.0303,260.7909 " fill="#FFFFFF" fill-opacity="0.00000" id="EnProceso-to-Libre" style="stroke:#181818;stroke-width:1;"/><polygon fill="#181818" points="133.5878,254.8169,128.7688,263.4063,133.1232,259.7952,136.7342,264.1496,133.5878,254.8169" style="stroke:#181818;stroke-width:1;"/><text fill="#000000" font-family="sans-serif" font-size="13" lengthAdjust="spacing" textLength="112.9058" x="133.6378" y="285.6538">Cancelar proceso</text></g><!--SRC=[RP112i8m44NtFSMiXLuW2q6AEn4HwKPSJDEf1c9IadGbFOndyMAcIMohDf0ivh_y-JFMeIFOM75Lw3g3yCZ0d_Fg0dc-Xfse36MXP0CP2WcQWmMso4MDTKb6D89ZZO7fvv-twc0q9wiN3BpIUCMKA0SRFGA_mXSTWoSwzOeH1shins2lWQnxFK5AKZ7Qb2OCeE-j98SiBOCBhO2dOk0_nBGO1aUovFvLFnI3awxHWlJtfer_ULS9CWxjGlTaLw3Y9D506xMiVmC0]--></g></svg>