<svg xmlns="http://www.w3.org/2000/svg" xmlns:xlink="http://www.w3.org/1999/xlink" contentStyleType="text/css" height="620px" preserveAspectRatio="none" style="width:860px;height:620px;background:#FFFFFF;" version="1.1" viewBox="0 0 860 620" width="860px" zoomAndPan="magnify"><defs/><g><!--cluster UNEATLANTICO--><g id="cluster_UNEATLANTICO"><path d="M8.5,6 L130.9404,6 A3.75,3.75 0 0 1 133.4404,8.5 L140.4404,28.2969 L833.5,28.2969 A2.5,2.5 0 0 1 836,30.7969 L836,610.55 A2.5,2.5 0 0 1 833.5,613.05 L8.5,613.05 A2.5,2.5 0 0 1 6,610.55 L6,8.5 A2.5,2.5 0 0 1 8.5,6 " fill="none" style="stroke:#000000;stroke-width:1.5;"/><line style="stroke:#000000;stroke-width:1.5;" x1="6" x2="140.4404" y1="28.2969" y2="28.2969"/><text fill="#000000" font-family="sans-serif" font-size="14" font-weight="bold" lengthAdjust="spacing" textLength="121.4404" x="10" y="20.9951">UNEATLANTICO</text></g><g id="elem_Ingenieria_Informatica"><rect fill="#F1F1F1" height="44.5938" style="stroke:#181818;stroke-width:0.5;" width="171.2266" x="569.39" y="41"/><text fill="#000000" font-family="sans-serif" font-size="14" lengthAdjust="spacing" textLength="157.2266" x="576.39" y="55.9951">Ingenieria_Informatica</text><line style="stroke:#181818;stroke-width:0.5;" x1="570.39" x2="739.6166" y1="61.2969" y2="61.2969"/><text fill="#000000" font-family="sans-serif" font-size="14" lengthAdjust="spacing" textLength="148.0049" x="575.39" y="78.292">curso = "2023-2024"</text></g><g id="elem_deptoInformatica"><rect fill="#F1F1F1" height="44.5938" style="stroke:#181818;stroke-width:0.5;" width="221.1318" x="22.43" y="552.46"/><text fill="#000000" font-family="sans-serif" font-size="14" lengthAdjust="spacing" textLength="120.5654" x="72.7132" y="567.4551">deptoInformatica</text><line style="stroke:#181818;stroke-width:0.5;" x1="23.43" x2="242.5618" y1="572.7569" y2="572.7569"/><text fill="#000000" font-family="sans-serif" font-size="14" lengthAdjust="spacing" textLength="209.1318" x="28.43" y="589.752">jefeDepartamento = "Masias"</text></g><g id="elem_Alberto_Lopez"><rect fill="#F1F1F1" height="142.375" style="stroke:#181818;stroke-width:0.5;" width="210.4814" x="266.76" y="333.08"/><text fill="#000000" font-family="sans-serif" font-size="14" lengthAdjust="spacing" textLength="98.9912" x="322.5051" y="348.0751">Alberto_Lopez</text><line style="stroke:#181818;stroke-width:0.5;" x1="267.76" x2="476.2414" y1="353.3769" y2="353.3769"/><text fill="#000000" font-family="sans-serif" font-size="14" lengthAdjust="spacing" textLength="145.5986" x="272.76" y="370.372">titulaci&#243;n = "Doctor"</text><text fill="#000000" font-family="sans-serif" font-size="14" lengthAdjust="spacing" textLength="162.6201" x="272.76" y="386.6689">categor&#237;a = "Asociado"</text><text fill="#000000" font-family="sans-serif" font-size="14" lengthAdjust="spacing" textLength="169.8662" x="272.76" y="402.9657">experienciaDocente = 5</text><text fill="#000000" font-family="sans-serif" font-size="14" lengthAdjust="spacing" textLength="157.2881" x="272.76" y="419.2626">experienciaVirtual = 2</text><text fill="#000000" font-family="sans-serif" font-size="14" lengthAdjust="spacing" textLength="198.4814" x="272.76" y="435.5595">experienciaInvestigador = 3</text><text fill="#000000" font-family="sans-serif" font-size="14" lengthAdjust="spacing" textLength="188.6309" x="272.76" y="451.8564">experienciaProfesional = 7</text><text fill="#000000" font-family="sans-serif" font-size="14" lengthAdjust="spacing" textLength="74.5049" x="272.76" y="468.1532">ECTS = 20</text></g><g id="elem_contrato"><rect fill="#F1F1F1" height="44.5938" style="stroke:#181818;stroke-width:0.5;" width="213.749" x="278.13" y="552.46"/><text fill="#000000" font-family="sans-serif" font-size="14" lengthAdjust="spacing" textLength="59.0146" x="355.4972" y="567.4551">contrato</text><line style="stroke:#181818;stroke-width:0.5;" x1="279.13" x2="490.879" y1="572.7569" y2="572.7569"/><text fill="#000000" font-family="sans-serif" font-size="14" lengthAdjust="spacing" textLength="201.749" x="284.13" y="589.752">tipo = "Completo Indefinido"</text></g><g id="elem_Programacion"><rect fill="#F1F1F1" height="93.4844" style="stroke:#181818;stroke-width:0.5;" width="198.4229" x="454.79" y="162.6"/><text fill="#000000" font-family="sans-serif" font-size="14" lengthAdjust="spacing" textLength="97.2275" x="505.3877" y="177.5951">Programacion</text><line style="stroke:#181818;stroke-width:0.5;" x1="455.79" x2="652.2129" y1="182.8969" y2="182.8969"/><text fill="#000000" font-family="sans-serif" font-size="14" lengthAdjust="spacing" textLength="114.3242" x="460.79" y="199.892">semestre = "1&#186;"</text><text fill="#000000" font-family="sans-serif" font-size="14" lengthAdjust="spacing" textLength="186.4229" x="460.79" y="216.1889">codigoCampus = "INF101"</text><text fill="#000000" font-family="sans-serif" font-size="14" lengthAdjust="spacing" textLength="137.7715" x="460.79" y="232.4857">tipo = "Obligatoria"</text><text fill="#000000" font-family="sans-serif" font-size="14" lengthAdjust="spacing" textLength="65.5977" x="460.79" y="248.7826">ECTS = 6</text></g><g id="elem_planEstudios"><rect fill="#F1F1F1" height="36.2969" style="stroke:#181818;stroke-width:0.5;" width="103.3662" x="527.32" y="556.6"/><text fill="#000000" font-family="sans-serif" font-size="14" lengthAdjust="spacing" textLength="89.3662" x="534.32" y="571.5951">planEstudios</text><line style="stroke:#181818;stroke-width:0.5;" x1="528.32" x2="629.6862" y1="576.8969" y2="576.8969"/></g><g id="elem_memoriaAcademica"><rect fill="#F1F1F1" height="44.5938" style="stroke:#181818;stroke-width:0.5;" width="153.8359" x="666.08" y="552.46"/><text fill="#000000" font-family="sans-serif" font-size="14" lengthAdjust="spacing" textLength="139.8359" x="673.08" y="567.4551">memoriaAcademica</text><line style="stroke:#181818;stroke-width:0.5;" x1="667.08" x2="818.9159" y1="572.7569" y2="572.7569"/><text fill="#000000" font-family="sans-serif" font-size="14" lengthAdjust="spacing" textLength="82.2773" x="672.08" y="589.752">a&#241;o = 2023</text></g><!--link Ingenieria_Informatica to Programacion--><g id="link_Ingenieria_Informatica_Programacion"><path codeLine="39" d="M639.88,85.86 C625.79,105.96 607.7646,131.6573 589.8146,157.2573 " fill="none" id="Ingenieria_Informatica-to-Programacion" style="stroke:#181818;stroke-width:1.0;"/><polygon fill="#181818" points="586.37,162.17,594.8121,157.0974,589.2405,158.0761,588.2618,152.5045,586.37,162.17" style="stroke:#181818;stroke-width:1.0;"/><text fill="#000000" font-family="sans-serif" font-size="13" lengthAdjust="spacing" textLength="56.2847" x="617" y="128.6669">contiene</text></g><!--link Programacion to Alberto_Lopez--><g id="link_Programacion_Alberto_Lopez"><path codeLine="40" d="M489.71,256.39 C478.32,265.68 466.94,275.78 457,286.08 C443.3,300.28 433.5724,311.962 421.7224,328.022 " fill="none" id="Programacion-to-Alberto_Lopez" style="stroke:#181818;stroke-width:1.0;"/><polygon fill="#181818" points="418.16,332.85,426.7222,327.9829,421.1286,328.8267,420.2849,323.2331,418.16,332.85" style="stroke:#181818;stroke-width:1.0;"/><text fill="#000000" font-family="sans-serif" font-size="13" lengthAdjust="spacing" textLength="88.4482" x="458" y="299.1469">impartida por</text></g><!--link Alberto_Lopez to deptoInformatica--><g id="link_Alberto_Lopez_deptoInformatica"><path codeLine="41" d="M266.47,448.72 C236.59,463.99 205.34,483.03 180,505.46 C165.13,518.62 155.6191,532.2376 147.2591,546.7876 " fill="none" id="Alberto_Lopez-to-deptoInformatica" style="stroke:#181818;stroke-width:1.0;"/><polygon fill="#181818" points="144.27,551.99,152.222,546.1792,146.761,547.6547,145.2855,542.1936,144.27,551.99" style="stroke:#181818;stroke-width:1.0;"/><text fill="#000000" font-family="sans-serif" font-size="13" lengthAdjust="spacing" textLength="78.1714" x="181" y="518.5269">pertenece a</text></g><!--link Alberto_Lopez to contrato--><g id="link_Alberto_Lopez_contrato"><path codeLine="42" d="M276.34,475.88 C266.83,490.74 263.93,506.7 274,522.46 C282.12,535.15 288.9992,541.8833 302.3292,549.1333 " fill="none" id="Alberto_Lopez-to-contrato" style="stroke:#181818;stroke-width:1.0;"/><polygon fill="#181818" points="307.6,552,301.6049,544.186,303.2076,549.6111,297.7826,551.2138,307.6,552" style="stroke:#181818;stroke-width:1.0;"/><text fill="#000000" font-family="sans-serif" font-size="13" lengthAdjust="spacing" textLength="53.5552" x="275" y="518.5269">tiene un</text></g><!--link Alberto_Lopez to planEstudios--><g id="link_Alberto_Lopez_planEstudios"><path codeLine="43" d="M355.19,475.8 C355,492.59 358.44,509.4 369,522.46 C409.01,571.94 447.39,536.51 509,552.46 C514.9,553.98 515.2852,554.0267 521.3852,555.7867 " fill="none" id="Alberto_Lopez-to-planEstudios" style="stroke:#181818;stroke-width:1.0;"/><polygon fill="#181818" points="527.15,557.45,519.6116,551.1118,522.346,556.0639,517.3939,558.7983,527.15,557.45" style="stroke:#181818;stroke-width:1.0;"/><text fill="#000000" font-family="sans-serif" font-size="13" lengthAdjust="spacing" textLength="55.4849" x="370" y="518.5269">sigue un</text></g><!--link memoriaAcademica to Ingenieria_Informatica--><g id="link_memoriaAcademica_Ingenieria_Informatica"><path codeLine="44" d="M742.79,552.17 C741.58,485.51 733.64,277.68 682,115.6 C678.76,105.43 676.5154,100.1229 671.5454,91.2629 " fill="none" id="memoriaAcademica-to-Ingenieria_Informatica" style="stroke:#181818;stroke-width:1.0;"/><polygon fill="#181818" points="668.61,86.03,669.5245,95.8363,671.0562,90.3908,676.5017,91.9224,668.61,86.03" style="stroke:#181818;stroke-width:1.0;"/><text fill="#000000" font-family="sans-serif" font-size="13" lengthAdjust="spacing" textLength="129.0479" x="723" y="299.1469">envia informacion a</text></g><!--link Programacion to memoriaAcademica--><g id="link_Programacion_memoriaAcademica"><path codeLine="45" d="M554.24,256.43 C555.38,322.51 560.62,440.1 583,475.46 C605.76,511.4 641.4204,533.7735 676.2804,549.4935 " fill="none" id="Programacion-to-memoriaAcademica" style="stroke:#181818;stroke-width:1.0;"/><polygon fill="#181818" points="681.75,551.96,675.1899,544.6139,677.192,549.9046,671.9013,551.9067,681.75,551.96" style="stroke:#181818;stroke-width:1.0;"/><text fill="#000000" font-family="sans-serif" font-size="13" lengthAdjust="spacing" textLength="106.5645" x="584" y="408.8369">guarda datos en</text></g><!--link Alberto_Lopez to memoriaAcademica--><g id="link_Alberto_Lopez_memoriaAcademica"><path codeLine="46" d="M414.96,475.77 C429.08,493.6 446.3,510.94 466,522.46 C536.77,563.83 567.53,536.82 648,552.46 C653.81,553.58 653.9268,553.5728 659.9568,554.8328 " fill="none" id="Alberto_Lopez-to-memoriaAcademica" style="stroke:#181818;stroke-width:1.0;"/><polygon fill="#181818" points="665.83,556.06,657.8384,550.3037,660.9357,555.0373,656.2021,558.1346,665.83,556.06" style="stroke:#181818;stroke-width:1.0;"/><text fill="#000000" font-family="sans-serif" font-size="13" lengthAdjust="spacing" textLength="106.5645" x="467" y="518.5269">guarda datos en</text></g><!--SRC=[ZL9DQnin4Btlhn1xD_WZRM6XXSLnOI5r2dLx3MFjU9bafH6IDfIM_AGUIcyzrd-i8uN4tjg1NdIOzzxCUpDoeE-WG_LvlQetL_LwqoolrVUYuEqjwgWQsw4bz0GtZTsnDn19Wn2KqeCFhDwgSZwTBoRoN9J5mxEmHHVvNyajxl0I7VW81ctCwWyG2CAnjEwtw2FVNB73RraNAGuzQDh_iabooJgoBvC7YDYnt_-0LAy3QuAM4u9VdRX6AmMXop0Knginy8Ly7A0NO3u66dkF8L8dlRoWYp7wqVCE0x7DqZS2hfQRJwdBz2Y5PXizICR702w7NR9nFKgniItko58oUz18vyw3aQHiiowW4IC-UIzdVtxdoDnInqimRWYftApVpwQpycZ8zRONwx8XWl9WxlNH7DU3NOKujCH1vXm0WoR9QWqjcgUhmVudvtJpHQA-y2KcatTZ_rLUWQmCYr4z4SSdhXIPz2ce1UNO5sCqyKz-KwNa755wQrHmHl2y_Kfb2sgmPrYZFLGgK3TaviaQ4lc5t9L2Uq-WwB6M8y9fufEMbUe6y9Au5Pj1cfpnzn-Yuk4l]--></g></svg>