<?xml version="1.0" encoding="us-ascii" standalone="no"?><svg xmlns="http://www.w3.org/2000/svg" xmlns:xlink="http://www.w3.org/1999/xlink" contentStyleType="text/css" height="497px" preserveAspectRatio="none" style="width:2594px;height:497px;background:#FFFFFF;" version="1.1" viewBox="0 0 2594 497" width="2594px" zoomAndPan="magnify"><defs/><g><g id="ListandoMensajes"><rect fill="#F1F1F1" height="50" rx="12.5" ry="12.5" style="stroke:#181818;stroke-width:0.5;" width="164" x="958.6" y="136"/><line style="stroke:#181818;stroke-width:0.5;" x1="958.6" x2="1122.6" y1="162.4883" y2="162.4883"/><text fill="#000000" font-family="sans-serif" font-size="14" lengthAdjust="spacing" textLength="144" x="968.6" y="154.5352">LISTANDO_MENSAJES</text></g><g id="CreandoMensaje"><rect fill="#F1F1F1" height="50" rx="12.5" ry="12.5" style="stroke:#181818;stroke-width:0.5;" width="155" x="334.1" y="281"/><line style="stroke:#181818;stroke-width:0.5;" x1="334.1" x2="489.1" y1="307.4883" y2="307.4883"/><text fill="#000000" font-family="sans-serif" font-size="14" lengthAdjust="spacing" textLength="135" x="344.1" y="299.5352">CREANDO_MENSAJE</text></g><g id="DescargandoResumen"><rect fill="#F1F1F1" height="50" rx="12.5" ry="12.5" style="stroke:#181818;stroke-width:0.5;" width="198" x="27.6" y="441"/><line style="stroke:#181818;stroke-width:0.5;" x1="27.6" x2="225.6" y1="467.4883" y2="467.4883"/><text fill="#000000" font-family="sans-serif" font-size="14" lengthAdjust="spacing" textLength="178" x="37.6" y="459.5352">DESCARGANDO_RESUMEN</text></g><g id="LeyendoMensaje"><rect fill="#F1F1F1" height="50" rx="12.5" ry="12.5" style="stroke:#181818;stroke-width:0.5;" width="150" x="726.6" y="281"/><line style="stroke:#181818;stroke-width:0.5;" x1="726.6" x2="876.6" y1="307.4883" y2="307.4883"/><text fill="#000000" font-family="sans-serif" font-size="14" lengthAdjust="spacing" textLength="130" x="736.6" y="299.5352">LEYENDO_MENSAJE</text></g><g id="LeyendoDocumento"><rect fill="#F1F1F1" height="50" rx="12.5" ry="12.5" style="stroke:#181818;stroke-width:0.5;" width="181" x="561.1" y="441"/><line style="stroke:#181818;stroke-width:0.5;" x1="561.1" x2="742.1" y1="467.4883" y2="467.4883"/><text fill="#000000" font-family="sans-serif" font-size="14" lengthAdjust="spacing" textLength="161" x="571.1" y="459.5352">LEYENDO_DOCUMENTO</text></g><g id="CreandoEnvio"><rect fill="#F1F1F1" height="50" rx="12.5" ry="12.5" style="stroke:#181818;stroke-width:0.5;" width="137" x="322.1" y="441"/><line style="stroke:#181818;stroke-width:0.5;" x1="322.1" x2="459.1" y1="467.4883" y2="467.4883"/><text fill="#000000" font-family="sans-serif" font-size="14" lengthAdjust="spacing" textLength="117" x="332.1" y="459.5352">CREANDO_ENVIO</text></g><g id="Categorias"><rect fill="#F1F1F1" height="50" rx="12.5" ry="12.5" style="stroke:#181818;stroke-width:0.5;" width="109" x="1228.1" y="281"/><line style="stroke:#181818;stroke-width:0.5;" x1="1228.1" x2="1337.1" y1="307.4883" y2="307.4883"/><text fill="#000000" font-family="sans-serif" font-size="14" lengthAdjust="spacing" textLength="89" x="1238.1" y="299.5352">CATEGORIAS</text></g><g id="CreandoCategoria"><rect fill="#F1F1F1" height="50" rx="12.5" ry="12.5" style="stroke:#181818;stroke-width:0.5;" width="176" x="965.6" y="441"/><line style="stroke:#181818;stroke-width:0.5;" x1="965.6" x2="1141.6" y1="467.4883" y2="467.4883"/><text fill="#000000" font-family="sans-serif" font-size="14" lengthAdjust="spacing" textLength="156" x="975.6" y="459.5352">CREANDO_CATEGORIA</text></g><g id="ActualizandoCategoria"><rect fill="#F1F1F1" height="50" rx="12.5" ry="12.5" style="stroke:#181818;stroke-width:0.5;" width="217" x="1201.1" y="441"/><line style="stroke:#181818;stroke-width:0.5;" x1="1201.1" x2="1418.1" y1="467.4883" y2="467.4883"/><text fill="#000000" font-family="sans-serif" font-size="14" lengthAdjust="spacing" textLength="197" x="1211.1" y="459.5352">ACTUALIZANDO_CATEGORIA</text></g><g id="BorrandoCategoria"><rect fill="#F1F1F1" height="50" rx="12.5" ry="12.5" style="stroke:#181818;stroke-width:0.5;" width="205" x="1500.1" y="441"/><line style="stroke:#181818;stroke-width:0.5;" x1="1500.1" x2="1705.1" y1="467.4883" y2="467.4883"/><text fill="#000000" font-family="sans-serif" font-size="14" lengthAdjust="spacing" textLength="185" x="1510.1" y="459.5352">BORRARANDO_CATEGORIA</text></g><g id="Usuarios"><rect fill="#F1F1F1" height="50" rx="12.5" ry="12.5" style="stroke:#181818;stroke-width:0.5;" width="90" x="2029.6" y="281"/><line style="stroke:#181818;stroke-width:0.5;" x1="2029.6" x2="2119.6" y1="307.4883" y2="307.4883"/><text fill="#000000" font-family="sans-serif" font-size="14" lengthAdjust="spacing" textLength="70" x="2039.6" y="299.5352">USUARIOS</text></g><g id="ActualizandoUsuario"><rect fill="#F1F1F1" height="50" rx="12.5" ry="12.5" style="stroke:#181818;stroke-width:0.5;" width="198" x="1792.6" y="441"/><line style="stroke:#181818;stroke-width:0.5;" x1="1792.6" x2="1990.6" y1="467.4883" y2="467.4883"/><text fill="#000000" font-family="sans-serif" font-size="14" lengthAdjust="spacing" textLength="178" x="1802.6" y="459.5352">ACTUALIZANDO_USUARIO</text></g><g id="CreandoUsuario"><rect fill="#F1F1F1" height="50" rx="12.5" ry="12.5" style="stroke:#181818;stroke-width:0.5;" width="157" x="2128.1" y="441"/><line style="stroke:#181818;stroke-width:0.5;" x1="2128.1" x2="2285.1" y1="467.4883" y2="467.4883"/><text fill="#000000" font-family="sans-serif" font-size="14" lengthAdjust="spacing" textLength="137" x="2138.1" y="459.5352">CREANDO_USUARIO</text></g><g id="BorrandoUsuario"><rect fill="#F1F1F1" height="50" rx="12.5" ry="12.5" style="stroke:#181818;stroke-width:0.5;" width="167" x="2389.1" y="441"/><line style="stroke:#181818;stroke-width:0.5;" x1="2389.1" x2="2556.1" y1="467.4883" y2="467.4883"/><text fill="#000000" font-family="sans-serif" font-size="14" lengthAdjust="spacing" textLength="147" x="2399.1" y="459.5352">BORRANDO_USUARIO</text></g><ellipse cx="1040.6" cy="16" fill="#222222" rx="10" ry="10" style="stroke:#222222;stroke-width:1.0;"/><ellipse cx="1282.6" cy="161" fill="none" rx="11" ry="11" style="stroke:#222222;stroke-width:1.0;"/><ellipse cx="1282.6" cy="161" fill="#222222" rx="6" ry="6" style="stroke:#222222;stroke-width:1.0;"/><!--link *start* to ListandoMensajes--><g id="link_*start*_ListandoMensajes"><path d="M1040.6,26.38 C1040.6,48.32 1040.6,97.52 1040.6,129.69 " fill="none" id="*start*-to-ListandoMensajes" style="stroke:#181818;stroke-width:1.0;"/><polygon fill="#181818" points="1040.6,135.69,1044.6,126.69,1040.6,130.69,1036.6,126.69,1040.6,135.69" style="stroke:#181818;stroke-width:1.0;"/><path d="M1045.6,61 L1045.6,101 L1149.6,101 L1149.6,71 L1139.6,61 L1045.6,61 " fill="#FEFFDD" style="stroke:#181818;stroke-width:0.5;"/><path d="M1139.6,61 L1139.6,71 L1149.6,71 L1139.6,61 " fill="#FEFFDD" style="stroke:#181818;stroke-width:0.5;"/><text fill="#000000" font-family="sans-serif" font-size="13" lengthAdjust="spacing" textLength="79" x="1051.6" y="78.5684">Responsable</text><text fill="#000000" font-family="sans-serif" font-size="13" lengthAdjust="spacing" textLength="79" x="1051.6" y="93.8789">inicia sesi&#243;n</text></g><!--link ListandoMensajes to *end*--><g id="link_ListandoMensajes_*end*"><path d="M1122.86,161 C1177.95,161 1239,161 1265.27,161 " fill="none" id="ListandoMensajes-to-*end*" style="stroke:#181818;stroke-width:1.0;"/><polygon fill="#181818" points="1271.27,161,1262.27,157,1266.27,161,1262.27,165,1271.27,161" style="stroke:#181818;stroke-width:1.0;"/><path d="M1145.1,113 L1145.1,153 L1249.1,153 L1249.1,123 L1239.1,113 L1145.1,113 " fill="#FEFFDD" style="stroke:#181818;stroke-width:0.5;"/><path d="M1239.1,113 L1239.1,123 L1249.1,123 L1239.1,113 " fill="#FEFFDD" style="stroke:#181818;stroke-width:0.5;"/><text fill="#000000" font-family="sans-serif" font-size="13" lengthAdjust="spacing" textLength="79" x="1151.1" y="130.5684">Responsable</text><text fill="#000000" font-family="sans-serif" font-size="13" lengthAdjust="spacing" textLength="80" x="1151.1" y="145.8789">cierra sesi&#243;n</text></g><!--link ListandoMensajes to LeyendoMensaje--><g id="link_ListandoMensajes_LeyendoMensaje"><path d="M958.34,169.37 C895.96,176.86 817.64,191.01 797.6,216 C783.18,233.98 785.2427,255.4134 790.8727,275.0034 " fill="none" id="ListandoMensajes-to-LeyendoMensaje" style="stroke:#181818;stroke-width:1.0;"/><polygon fill="#181818" points="792.53,280.77,793.8885,271.0153,791.1489,275.9645,786.1997,273.225,792.53,280.77" style="stroke:#181818;stroke-width:1.0;"/><path d="M802.6,221 L802.6,246 L910.6,246 L910.6,231 L900.6,221 L802.6,221 " fill="#FEFFDD" style="stroke:#181818;stroke-width:0.5;"/><path d="M900.6,221 L900.6,231 L910.6,231 L900.6,221 " fill="#FEFFDD" style="stroke:#181818;stroke-width:0.5;"/><text fill="#000000" font-family="sans-serif" font-size="13" lengthAdjust="spacing" textLength="87" x="808.6" y="238.5684">Abrir mensaje</text></g><!--link LeyendoMensaje to ListandoMensajes--><g id="link_LeyendoMensaje_ListandoMensajes"><path d="M865.6,280.5 C883.75,272.3 903.05,262.33 919.6,251 C938.01,238.4 938.09,229.83 955.6,216 C968.9,205.49 979.2373,198.3625 993.2673,189.6225 " fill="none" id="LeyendoMensaje-to-ListandoMensajes" style="stroke:#181818;stroke-width:1.0;"/><polygon fill="#181818" points="998.36,186.45,988.606,187.8136,994.1161,189.0937,992.836,194.6038,998.36,186.45" style="stroke:#181818;stroke-width:1.0;"/><path d="M960.6,221 L960.6,246 L1075.6,246 L1075.6,231 L1065.6,221 L960.6,221 " fill="#FEFFDD" style="stroke:#181818;stroke-width:0.5;"/><path d="M1065.6,221 L1065.6,231 L1075.6,231 L1065.6,221 " fill="#FEFFDD" style="stroke:#181818;stroke-width:0.5;"/><text fill="#000000" font-family="sans-serif" font-size="13" lengthAdjust="spacing" textLength="94" x="966.6" y="238.5684">Cerrar mensaje</text></g><!--link LeyendoMensaje to LeyendoDocumento--><g id="link_LeyendoMensaje_LeyendoDocumento"><path d="M726.13,309.63 C688.66,315.23 646.4,328.95 622.6,361 C605.16,384.47 616.5685,412.8667 630.6285,435.4467 " fill="none" id="LeyendoMensaje-to-LeyendoDocumento" style="stroke:#181818;stroke-width:1.0;"/><polygon fill="#181818" points="633.8,440.54,632.4383,430.7857,631.1571,436.2956,625.6473,435.0144,633.8,440.54" style="stroke:#181818;stroke-width:1.0;"/><path d="M627.6,373.5 L627.6,398.5 L754.6,398.5 L754.6,383.5 L744.6,373.5 L627.6,373.5 " fill="#FEFFDD" style="stroke:#181818;stroke-width:0.5;"/><path d="M744.6,373.5 L744.6,383.5 L754.6,383.5 L744.6,373.5 " fill="#FEFFDD" style="stroke:#181818;stroke-width:0.5;"/><text fill="#000000" font-family="sans-serif" font-size="13" lengthAdjust="spacing" textLength="106" x="633.6" y="391.0684">Abrir documento</text></g><!--link LeyendoDocumento to LeyendoMensaje--><g id="link_LeyendoDocumento_LeyendoMensaje"><path d="M723.22,440.64 C738.05,432.99 752.51,423.24 763.6,411 C783.98,388.49 792.5423,360.0411 796.9823,337.0511 " fill="none" id="LeyendoDocumento-to-LeyendoMensaje" style="stroke:#181818;stroke-width:1.0;"/><polygon fill="#181818" points="798.12,331.16,792.486,339.2382,797.1719,336.0693,800.3408,340.7552,798.12,331.16" style="stroke:#181818;stroke-width:1.0;"/><path d="M795.36,373.5 L795.36,398.5 L940.36,398.5 L940.36,383.5 L930.36,373.5 L795.36,373.5 " fill="#FEFFDD" style="stroke:#181818;stroke-width:0.5;"/><path d="M930.36,373.5 L930.36,383.5 L940.36,383.5 L930.36,373.5 " fill="#FEFFDD" style="stroke:#181818;stroke-width:0.5;"/><text fill="#000000" font-family="sans-serif" font-size="13" lengthAdjust="spacing" textLength="124" x="801.36" y="391.0684">Cerrar visualizaci&#243;n</text></g><!--link LeyendoDocumento to LeyendoDocumento--><g id="link_LeyendoDocumento_LeyendoDocumento"><path d="M742.41,451.4 C762.48,452.78 777.1,457.64 777.1,466 C777.1,474.36 768.4659,478.8084 748.3959,480.1884 " fill="none" id="LeyendoDocumento-to-LeyendoDocumento" style="stroke:#181818;stroke-width:1.0;"/><polygon fill="#181818" points="742.41,480.6,751.6632,483.9732,747.3982,480.257,751.1144,475.992,742.41,480.6" style="stroke:#181818;stroke-width:1.0;"/><path d="M782.1,453.5 L782.1,478.5 L916.1,478.5 L916.1,463.5 L906.1,453.5 L782.1,453.5 " fill="#FEFFDD" style="stroke:#181818;stroke-width:0.5;"/><path d="M906.1,453.5 L906.1,463.5 L916.1,463.5 L906.1,453.5 " fill="#FEFFDD" style="stroke:#181818;stroke-width:0.5;"/><text fill="#000000" font-family="sans-serif" font-size="13" lengthAdjust="spacing" textLength="113" x="788.1" y="471.0684">Confirmar Lectura</text></g><!--link ListandoMensajes to CreandoMensaje--><g id="link_ListandoMensajes_CreandoMensaje"><path d="M958.1,165.23 C806.91,171.79 497.11,188.44 456.6,216 C434.69,230.9 424.548,254.0108 418.598,274.8408 " fill="none" id="ListandoMensajes-to-CreandoMensaje" style="stroke:#181818;stroke-width:1.0;"/><polygon fill="#181818" points="416.95,280.61,423.2681,273.0548,418.3233,275.8023,415.5758,270.8575,416.95,280.61" style="stroke:#181818;stroke-width:1.0;"/><path d="M461.6,221 L461.6,246 L571.6,246 L571.6,231 L561.6,221 L461.6,221 " fill="#FEFFDD" style="stroke:#181818;stroke-width:0.5;"/><path d="M561.6,221 L561.6,231 L571.6,231 L561.6,221 " fill="#FEFFDD" style="stroke:#181818;stroke-width:0.5;"/><text fill="#000000" font-family="sans-serif" font-size="13" lengthAdjust="spacing" textLength="89" x="467.6" y="238.5684">Crear mensaje</text></g><!--link CreandoMensaje to ListandoMensajes--><g id="link_CreandoMensaje_ListandoMensajes"><path d="M489.37,282.61 C518.32,273.64 551.25,262.66 580.6,251 C614.03,237.72 619.15,226.39 653.6,216 C755.89,185.15 872.8153,172.2487 952.2553,166.5587 " fill="none" id="CreandoMensaje-to-ListandoMensajes" style="stroke:#181818;stroke-width:1.0;"/><polygon fill="#181818" points="958.24,166.13,948.9772,162.7832,953.2528,166.4872,949.5488,170.7628,958.24,166.13" style="stroke:#181818;stroke-width:1.0;"/><path d="M658.6,221 L658.6,246 L774.6,246 L774.6,231 L764.6,221 L658.6,221 " fill="#FEFFDD" style="stroke:#181818;stroke-width:0.5;"/><path d="M764.6,221 L764.6,231 L774.6,231 L764.6,221 " fill="#FEFFDD" style="stroke:#181818;stroke-width:0.5;"/><text fill="#000000" font-family="sans-serif" font-size="13" lengthAdjust="spacing" textLength="95" x="664.6" y="238.5684">listar mensajes</text></g><!--link CreandoMensaje to CreandoEnvio--><g id="link_CreandoMensaje_CreandoEnvio"><path d="M371.1,331.42 C361.26,339.51 352.02,349.45 346.6,361 C337.15,381.12 339.15,390.06 346.6,411 C350.45,421.82 353.5966,427.4933 360.9466,436.0733 " fill="none" id="CreandoMensaje-to-CreandoEnvio" style="stroke:#181818;stroke-width:1.0;"/><polygon fill="#181818" points="364.85,440.63,362.0326,431.1927,361.5971,436.8328,355.9571,436.3973,364.85,440.63" style="stroke:#181818;stroke-width:1.0;"/><path d="M351.6,373.5 L351.6,398.5 L443.6,398.5 L443.6,383.5 L433.6,373.5 L351.6,373.5 " fill="#FEFFDD" style="stroke:#181818;stroke-width:0.5;"/><path d="M433.6,373.5 L433.6,383.5 L443.6,383.5 L433.6,373.5 " fill="#FEFFDD" style="stroke:#181818;stroke-width:0.5;"/><text fill="#000000" font-family="sans-serif" font-size="13" lengthAdjust="spacing" textLength="71" x="357.6" y="391.0684">Crear envio</text></g><!--link CreandoEnvio to CreandoMensaje--><g id="link_CreandoEnvio_CreandoMensaje"><path d="M428.93,440.53 C438.44,432.39 447.39,422.43 452.6,411 C461.8,390.77 459.69,382.06 452.6,361 C448.99,350.29 446.0655,344.7073 439.1455,336.0473 " fill="none" id="CreandoEnvio-to-CreandoMensaje" style="stroke:#181818;stroke-width:1.0;"/><polygon fill="#181818" points="435.4,331.36,437.8934,340.888,438.5213,335.2661,444.1432,335.894,435.4,331.36" style="stroke:#181818;stroke-width:1.0;"/><path d="M463.73,373.5 L463.73,398.5 L547.73,398.5 L547.73,383.5 L537.73,373.5 L463.73,373.5 " fill="#FEFFDD" style="stroke:#181818;stroke-width:0.5;"/><path d="M537.73,373.5 L537.73,383.5 L547.73,383.5 L537.73,373.5 " fill="#FEFFDD" style="stroke:#181818;stroke-width:0.5;"/><text fill="#000000" font-family="sans-serif" font-size="13" lengthAdjust="spacing" textLength="63" x="469.73" y="391.0684">pending...</text></g><!--link CreandoMensaje to DescargandoResumen--><g id="link_CreandoMensaje_DescargandoResumen"><path d="M333.82,306.19 C231.62,306.99 60.38,315.34 20.6,361 C6,377.75 8.98,392.05 20.6,411 C28.2,423.41 34.5032,430.0229 47.1132,437.5229 " fill="none" id="CreandoMensaje-to-DescargandoResumen" style="stroke:#181818;stroke-width:1.0;"/><polygon fill="#181818" points="52.27,440.59,46.5795,432.5515,47.9726,438.0341,42.49,439.4272,52.27,440.59" style="stroke:#181818;stroke-width:1.0;"/><path d="M25.6,373.5 L25.6,398.5 L167.6,398.5 L167.6,383.5 L157.6,373.5 L25.6,373.5 " fill="#FEFFDD" style="stroke:#181818;stroke-width:0.5;"/><path d="M157.6,373.5 L157.6,383.5 L167.6,383.5 L157.6,373.5 " fill="#FEFFDD" style="stroke:#181818;stroke-width:0.5;"/><text fill="#000000" font-family="sans-serif" font-size="13" lengthAdjust="spacing" textLength="121" x="31.6" y="391.0684">Descargar resumen</text></g><!--link DescargandoResumen to CreandoMensaje--><g id="link_DescargandoResumen_CreandoMensaje"><path d="M150.36,440.55 C177.1,413.48 219.31,372.18 238.6,361 C267.72,344.11 296.9347,333.5006 327.8147,325.0106 " fill="none" id="DescargandoResumen-to-CreandoMensaje" style="stroke:#181818;stroke-width:1.0;"/><polygon fill="#181818" points="333.6,323.42,323.8616,321.949,328.7789,324.7455,325.9824,329.6628,333.6,323.42" style="stroke:#181818;stroke-width:1.0;"/><path d="M243.6,373.5 L243.6,398.5 L327.6,398.5 L327.6,383.5 L317.6,373.5 L243.6,373.5 " fill="#FEFFDD" style="stroke:#181818;stroke-width:0.5;"/><path d="M317.6,373.5 L317.6,383.5 L327.6,383.5 L317.6,373.5 " fill="#FEFFDD" style="stroke:#181818;stroke-width:0.5;"/><text fill="#000000" font-family="sans-serif" font-size="13" lengthAdjust="spacing" textLength="63" x="249.6" y="391.0684">pending...</text></g><!--link ListandoMensajes to Categorias--><g id="link_ListandoMensajes_Categorias"><path d="M1060.04,186.32 C1078.92,209.4 1106.69,241.89 1120.6,251 C1153.08,272.29 1188.9198,284.4723 1221.8598,292.7223 " fill="none" id="ListandoMensajes-to-Categorias" style="stroke:#181818;stroke-width:1.0;"/><polygon fill="#181818" points="1227.68,294.18,1219.9215,288.1133,1222.8298,292.9652,1217.9778,295.8736,1227.68,294.18" style="stroke:#181818;stroke-width:1.0;"/><path d="M1125.6,221 L1125.6,246 L1235.6,246 L1235.6,231 L1225.6,221 L1125.6,221 " fill="#FEFFDD" style="stroke:#181818;stroke-width:0.5;"/><path d="M1225.6,221 L1225.6,231 L1235.6,231 L1225.6,221 " fill="#FEFFDD" style="stroke:#181818;stroke-width:0.5;"/><text fill="#000000" font-family="sans-serif" font-size="13" lengthAdjust="spacing" textLength="89" x="1131.6" y="238.5684">Ver categorias</text></g><!--link Categorias to ListandoMensajes--><g id="link_Categorias_ListandoMensajes"><path d="M1278.35,280.74 C1273.56,260.58 1263.78,232.59 1244.6,216 C1211.06,187 1169.5887,174.2725 1128.9087,167.9425 " fill="none" id="Categorias-to-ListandoMensajes" style="stroke:#181818;stroke-width:1.0;"/><polygon fill="#181818" points="1122.98,167.02,1131.258,172.3562,1127.9205,167.7888,1132.488,164.4514,1122.98,167.02" style="stroke:#181818;stroke-width:1.0;"/><path d="M1273.22,221 L1273.22,246 L1392.22,246 L1392.22,231 L1382.22,221 L1273.22,221 " fill="#FEFFDD" style="stroke:#181818;stroke-width:0.5;"/><path d="M1382.22,221 L1382.22,231 L1392.22,231 L1382.22,221 " fill="#FEFFDD" style="stroke:#181818;stroke-width:0.5;"/><text fill="#000000" font-family="sans-serif" font-size="13" lengthAdjust="spacing" textLength="98" x="1279.22" y="238.5684">Listar mensajes</text></g><!--link Categorias to CreandoCategoria--><g id="link_Categorias_CreandoCategoria"><path d="M1227.68,309.23 C1152.53,313.56 1023.63,326.01 994.6,361 C980.4,378.1 985.64,390.66 994.6,411 C999.63,422.44 1003.9358,428.5235 1013.2158,436.7735 " fill="none" id="Categorias-to-CreandoCategoria" style="stroke:#181818;stroke-width:1.0;"/><polygon fill="#181818" points="1017.7,440.76,1013.6314,431.7908,1013.9632,437.4379,1008.3161,437.7697,1017.7,440.76" style="stroke:#181818;stroke-width:1.0;"/><path d="M999.6,366 L999.6,406 L1098.6,406 L1098.6,376 L1088.6,366 L999.6,366 " fill="#FEFFDD" style="stroke:#181818;stroke-width:0.5;"/><path d="M1088.6,366 L1088.6,376 L1098.6,376 L1088.6,366 " fill="#FEFFDD" style="stroke:#181818;stroke-width:0.5;"/><text fill="#000000" font-family="sans-serif" font-size="13" lengthAdjust="spacing" textLength="74" x="1005.6" y="383.5684">Crear nueva</text><text fill="#000000" font-family="sans-serif" font-size="13" lengthAdjust="spacing" textLength="58" x="1005.6" y="398.8789">categoria</text></g><!--link CreandoCategoria to Categorias--><g id="link_CreandoCategoria_Categorias"><path d="M1077.32,440.6 C1100.08,418.07 1136.14,384.62 1171.6,361 C1188.99,349.42 1203.8024,341.3775 1222.2024,332.7075 " fill="none" id="CreandoCategoria-to-Categorias" style="stroke:#181818;stroke-width:1.0;"/><polygon fill="#181818" points="1227.63,330.15,1217.7836,330.3678,1223.107,332.2812,1221.1935,337.6046,1227.63,330.15" style="stroke:#181818;stroke-width:1.0;"/><path d="M1176.6,366 L1176.6,406 L1262.6,406 L1262.6,376 L1252.6,366 L1176.6,366 " fill="#FEFFDD" style="stroke:#181818;stroke-width:0.5;"/><path d="M1252.6,366 L1252.6,376 L1262.6,376 L1252.6,366 " fill="#FEFFDD" style="stroke:#181818;stroke-width:0.5;"/><text fill="#000000" font-family="sans-serif" font-size="13" lengthAdjust="spacing" textLength="35" x="1182.6" y="383.5684">Listar</text><text fill="#000000" font-family="sans-serif" font-size="13" lengthAdjust="spacing" textLength="65" x="1182.6" y="398.8789">categorias</text></g><!--link Categorias to ActualizandoCategoria--><g id="link_Categorias_ActualizandoCategoria"><path d="M1278.1,331.39 C1275.06,352.74 1272.71,384.42 1279.6,411 C1282.26,421.28 1284.3058,426.5096 1289.5458,435.4096 " fill="none" id="Categorias-to-ActualizandoCategoria" style="stroke:#181818;stroke-width:1.0;"/><polygon fill="#181818" points="1292.59,440.58,1291.4707,430.795,1290.0532,436.2713,1284.5768,434.8538,1292.59,440.58" style="stroke:#181818;stroke-width:1.0;"/><path d="M1284.6,366 L1284.6,406 L1399.6,406 L1399.6,376 L1389.6,366 L1284.6,366 " fill="#FEFFDD" style="stroke:#181818;stroke-width:0.5;"/><path d="M1389.6,366 L1389.6,376 L1399.6,376 L1389.6,366 " fill="#FEFFDD" style="stroke:#181818;stroke-width:0.5;"/><text fill="#000000" font-family="sans-serif" font-size="13" lengthAdjust="spacing" textLength="90" x="1290.6" y="383.5684">Actualizar una</text><text fill="#000000" font-family="sans-serif" font-size="13" lengthAdjust="spacing" textLength="58" x="1290.6" y="398.8789">categoria</text></g><!--link ActualizandoCategoria to Categorias--><g id="link_ActualizandoCategoria_Categorias"><path d="M1377.85,440.51 C1390.12,432.96 1401.3,423.29 1408.6,411 C1419.94,391.89 1420.83,379.55 1408.6,361 C1392.74,336.96 1369.503,325.2149 1343.303,317.7949 " fill="none" id="ActualizandoCategoria-to-Categorias" style="stroke:#181818;stroke-width:1.0;"/><polygon fill="#181818" points="1337.53,316.16,1345.0995,322.461,1342.3408,317.5224,1347.2794,314.7638,1337.53,316.16" style="stroke:#181818;stroke-width:1.0;"/><path d="M1422.44,366 L1422.44,406 L1508.44,406 L1508.44,376 L1498.44,366 L1422.44,366 " fill="#FEFFDD" style="stroke:#181818;stroke-width:0.5;"/><path d="M1498.44,366 L1498.44,376 L1508.44,376 L1498.44,366 " fill="#FEFFDD" style="stroke:#181818;stroke-width:0.5;"/><text fill="#000000" font-family="sans-serif" font-size="13" lengthAdjust="spacing" textLength="35" x="1428.44" y="383.5684">Listar</text><text fill="#000000" font-family="sans-serif" font-size="13" lengthAdjust="spacing" textLength="65" x="1428.44" y="398.8789">categorias</text></g><!--link Categorias to BorrandoCategoria--><g id="link_Categorias_BorrandoCategoria"><path d="M1337.37,308.96 C1388.59,313.08 1465.39,325.32 1521.6,361 C1552.7,380.75 1573.7746,411.5627 1587.3146,435.5927 " fill="none" id="Categorias-to-BorrandoCategoria" style="stroke:#181818;stroke-width:1.0;"/><polygon fill="#181818" points="1590.26,440.82,1589.3268,431.0155,1587.8055,436.4639,1582.357,434.9426,1590.26,440.82" style="stroke:#181818;stroke-width:1.0;"/><path d="M1574.47,366 L1574.47,406 L1663.47,406 L1663.47,376 L1653.47,366 L1574.47,366 " fill="#FEFFDD" style="stroke:#181818;stroke-width:0.5;"/><path d="M1653.47,366 L1653.47,376 L1663.47,376 L1653.47,366 " fill="#FEFFDD" style="stroke:#181818;stroke-width:0.5;"/><text fill="#000000" font-family="sans-serif" font-size="13" lengthAdjust="spacing" textLength="64" x="1580.47" y="383.5684">Borrar una</text><text fill="#000000" font-family="sans-serif" font-size="13" lengthAdjust="spacing" textLength="58" x="1580.47" y="398.8789">categoria</text></g><!--link BorrandoCategoria to Categorias--><g id="link_BorrandoCategoria_Categorias"><path d="M1649.73,440.76 C1660.5,432.82 1670.54,422.91 1676.6,411 C1686.66,391.19 1691.2,377.75 1676.6,361 C1633.25,311.31 1441.26,305.6879 1343.52,306.0479 " fill="none" id="BorrandoCategoria-to-Categorias" style="stroke:#181818;stroke-width:1.0;"/><polygon fill="#181818" points="1337.52,306.07,1346.5347,310.0368,1342.52,306.0516,1346.5052,302.0369,1337.52,306.07" style="stroke:#181818;stroke-width:1.0;"/><path d="M1690.93,366 L1690.93,406 L1776.93,406 L1776.93,376 L1766.93,366 L1690.93,366 " fill="#FEFFDD" style="stroke:#181818;stroke-width:0.5;"/><path d="M1766.93,366 L1766.93,376 L1776.93,376 L1766.93,366 " fill="#FEFFDD" style="stroke:#181818;stroke-width:0.5;"/><text fill="#000000" font-family="sans-serif" font-size="13" lengthAdjust="spacing" textLength="35" x="1696.93" y="383.5684">Listar</text><text fill="#000000" font-family="sans-serif" font-size="13" lengthAdjust="spacing" textLength="65" x="1696.93" y="398.8789">categorias</text></g><!--link ListandoMensajes to Usuarios--><g id="link_ListandoMensajes_Usuarios"><path d="M1123.03,173.4 C1330.56,202.1 1863.4566,275.7979 2023.3066,297.9079 " fill="none" id="ListandoMensajes-to-Usuarios" style="stroke:#181818;stroke-width:1.0;"/><polygon fill="#181818" points="2029.25,298.73,2020.8829,293.5346,2024.2972,298.0449,2019.7868,301.4592,2029.25,298.73" style="stroke:#181818;stroke-width:1.0;"/><path d="M1685.62,221 L1685.62,246 L1784.62,246 L1784.62,231 L1774.62,221 L1685.62,221 " fill="#FEFFDD" style="stroke:#181818;stroke-width:0.5;"/><path d="M1774.62,221 L1774.62,231 L1784.62,231 L1774.62,221 " fill="#FEFFDD" style="stroke:#181818;stroke-width:0.5;"/><text fill="#000000" font-family="sans-serif" font-size="13" lengthAdjust="spacing" textLength="78" x="1691.62" y="238.5684">Ver usuarios</text></g><!--link Usuarios to ListandoMensajes--><g id="link_Usuarios_ListandoMensajes"><path d="M2029.45,286.53 C1975.37,265.34 1881.54,231.53 1797.6,216 C1559.49,171.94 1494.89,206.23 1253.6,186 C1210.39,182.38 1168.3581,177.7878 1128.8781,173.0978 " fill="none" id="Usuarios-to-ListandoMensajes" style="stroke:#181818;stroke-width:1.0;"/><polygon fill="#181818" points="1122.92,172.39,1131.3853,177.4238,1127.8851,172.9798,1132.329,169.4796,1122.92,172.39" style="stroke:#181818;stroke-width:1.0;"/><path d="M1933.38,221 L1933.38,246 L2052.38,246 L2052.38,231 L2042.38,221 L1933.38,221 " fill="#FEFFDD" style="stroke:#181818;stroke-width:0.5;"/><path d="M2042.38,221 L2042.38,231 L2052.38,231 L2042.38,221 " fill="#FEFFDD" style="stroke:#181818;stroke-width:0.5;"/><text fill="#000000" font-family="sans-serif" font-size="13" lengthAdjust="spacing" textLength="98" x="1939.38" y="238.5684">Listar mensajes</text></g><!--link Usuarios to CreandoUsuario--><g id="link_Usuarios_CreandoUsuario"><path d="M2085.03,331.07 C2095.46,353.37 2113.02,386.67 2134.6,411 C2144.34,421.99 2151.7835,428.6528 2163.4435,437.1628 " fill="none" id="Usuarios-to-CreandoUsuario" style="stroke:#181818;stroke-width:1.0;"/><polygon fill="#181818" points="2168.29,440.7,2163.3784,432.1632,2164.2513,437.7523,2158.6622,438.6252,2168.29,440.7" style="stroke:#181818;stroke-width:1.0;"/><path d="M2139.6,366 L2139.6,406 L2235.6,406 L2235.6,376 L2225.6,366 L2139.6,366 " fill="#FEFFDD" style="stroke:#181818;stroke-width:0.5;"/><path d="M2225.6,366 L2225.6,376 L2235.6,376 L2225.6,366 " fill="#FEFFDD" style="stroke:#181818;stroke-width:0.5;"/><text fill="#000000" font-family="sans-serif" font-size="13" lengthAdjust="spacing" textLength="75" x="2145.6" y="383.5684">Crear nuevo</text><text fill="#000000" font-family="sans-serif" font-size="13" lengthAdjust="spacing" textLength="47" x="2145.6" y="398.8789">usuario</text></g><!--link CreandoUsuario to Usuarios--><g id="link_CreandoUsuario_Usuarios"><path d="M2227.57,440.87 C2244.32,418.53 2262.3,385.2 2244.6,361 C2216.25,322.26 2165.8915,311.1106 2125.8515,307.9606 " fill="none" id="CreandoUsuario-to-Usuarios" style="stroke:#181818;stroke-width:1.0;"/><polygon fill="#181818" points="2119.87,307.49,2128.5286,312.1835,2124.8546,307.8821,2129.156,304.2082,2119.87,307.49" style="stroke:#181818;stroke-width:1.0;"/><path d="M2256.9,366 L2256.9,406 L2331.9,406 L2331.9,376 L2321.9,366 L2256.9,366 " fill="#FEFFDD" style="stroke:#181818;stroke-width:0.5;"/><path d="M2321.9,366 L2321.9,376 L2331.9,376 L2321.9,366 " fill="#FEFFDD" style="stroke:#181818;stroke-width:0.5;"/><text fill="#000000" font-family="sans-serif" font-size="13" lengthAdjust="spacing" textLength="35" x="2262.9" y="383.5684">Listar</text><text fill="#000000" font-family="sans-serif" font-size="13" lengthAdjust="spacing" textLength="54" x="2262.9" y="398.8789">usuarios</text></g><!--link Usuarios to ActualizandoUsuario--><g id="link_Usuarios_ActualizandoUsuario"><path d="M2029.54,311.64 C1971.85,318.61 1876.79,333.95 1855.6,361 C1837.21,384.46 1851.0754,413.0943 1867.4654,435.6743 " fill="none" id="Usuarios-to-ActualizandoUsuario" style="stroke:#181818;stroke-width:1.0;"/><polygon fill="#181818" points="1870.99,440.53,1868.9403,430.8968,1868.0529,436.4836,1862.4661,435.5962,1870.99,440.53" style="stroke:#181818;stroke-width:1.0;"/><path d="M1860.6,366 L1860.6,406 L1964.6,406 L1964.6,376 L1954.6,366 L1860.6,366 " fill="#FEFFDD" style="stroke:#181818;stroke-width:0.5;"/><path d="M1954.6,366 L1954.6,376 L1964.6,376 L1954.6,366 " fill="#FEFFDD" style="stroke:#181818;stroke-width:0.5;"/><text fill="#000000" font-family="sans-serif" font-size="13" lengthAdjust="spacing" textLength="83" x="1866.6" y="383.5684">Actualizar un</text><text fill="#000000" font-family="sans-serif" font-size="13" lengthAdjust="spacing" textLength="47" x="1866.6" y="398.8789">usuario</text></g><!--link ActualizandoUsuario to Usuarios--><g id="link_ActualizandoUsuario_Usuarios"><path d="M1935.17,440.64 C1948.3,432.2 1962.23,422.05 1973.6,411 C1993.05,392.09 1990.15,380.89 2008.6,361 C2018.36,350.47 2025.5123,343.915 2036.4523,335.175 " fill="none" id="ActualizandoUsuario-to-Usuarios" style="stroke:#181818;stroke-width:1.0;"/><polygon fill="#181818" points="2041.14,331.43,2031.6117,333.9224,2037.2336,334.5509,2036.6051,340.1727,2041.14,331.43" style="stroke:#181818;stroke-width:1.0;"/><path d="M2013.6,366 L2013.6,406 L2088.6,406 L2088.6,376 L2078.6,366 L2013.6,366 " fill="#FEFFDD" style="stroke:#181818;stroke-width:0.5;"/><path d="M2078.6,366 L2078.6,376 L2088.6,376 L2078.6,366 " fill="#FEFFDD" style="stroke:#181818;stroke-width:0.5;"/><text fill="#000000" font-family="sans-serif" font-size="13" lengthAdjust="spacing" textLength="35" x="2019.6" y="383.5684">Listar</text><text fill="#000000" font-family="sans-serif" font-size="13" lengthAdjust="spacing" textLength="54" x="2019.6" y="398.8789">usuarios</text></g><!--link Usuarios to BorrandoUsuario--><g id="link_Usuarios_BorrandoUsuario"><path d="M2119.69,309.34 C2175.06,313.69 2270.71,326.03 2344.6,361 C2376.28,375.99 2378.39,388.89 2405.6,411 C2417.54,420.71 2426.0363,427.5775 2437.5263,436.8275 " fill="none" id="Usuarios-to-BorrandoUsuario" style="stroke:#181818;stroke-width:1.0;"/><polygon fill="#181818" points="2442.2,440.59,2437.6978,431.8304,2438.3053,437.4546,2432.6811,438.062,2442.2,440.59" style="stroke:#181818;stroke-width:1.0;"/><path d="M2410.6,366 L2410.6,406 L2488.6,406 L2488.6,376 L2478.6,366 L2410.6,366 " fill="#FEFFDD" style="stroke:#181818;stroke-width:0.5;"/><path d="M2478.6,366 L2478.6,376 L2488.6,376 L2478.6,366 " fill="#FEFFDD" style="stroke:#181818;stroke-width:0.5;"/><text fill="#000000" font-family="sans-serif" font-size="13" lengthAdjust="spacing" textLength="57" x="2416.6" y="383.5684">Borrar un</text><text fill="#000000" font-family="sans-serif" font-size="13" lengthAdjust="spacing" textLength="47" x="2416.6" y="398.8789">usuario</text></g><!--link BorrandoUsuario to Usuarios--><g id="link_BorrandoUsuario_Usuarios"><path d="M2489.31,440.63 C2502.92,417.48 2516.98,383.02 2497.6,361 C2472.89,332.94 2229.7897,315.8908 2125.8097,309.8008 " fill="none" id="BorrandoUsuario-to-Usuarios" style="stroke:#181818;stroke-width:1.0;"/><polygon fill="#181818" points="2119.82,309.45,2128.5707,313.9694,2124.8114,309.7423,2129.0385,305.9831,2119.82,309.45" style="stroke:#181818;stroke-width:1.0;"/><path d="M2512.11,366 L2512.11,406 L2587.11,406 L2587.11,376 L2577.11,366 L2512.11,366 " fill="#FEFFDD" style="stroke:#181818;stroke-width:0.5;"/><path d="M2577.11,366 L2577.11,376 L2587.11,376 L2577.11,366 " fill="#FEFFDD" style="stroke:#181818;stroke-width:0.5;"/><text fill="#000000" font-family="sans-serif" font-size="13" lengthAdjust="spacing" textLength="35" x="2518.11" y="383.5684">Listar</text><text fill="#000000" font-family="sans-serif" font-size="13" lengthAdjust="spacing" textLength="54" x="2518.11" y="398.8789">usuarios</text></g><!--SRC=[jPPVRjmW4CRVznGeZv6oHwX4R1IvSjQIlOxKLbL57BAYsOK8x9NQQ_K8lLZnFumDZh5KxoFxpM- -6GQCB759m4qSPKTu29CVZ-YGmSyekm5OWfZA4hCN_aYOn3-9tCbM7QJ853VQG113sYj3b0KmVMZKASfo5T6eGo8BB4vrH4faTI6iZuZH5pHbn-GNiTczCao2cdjCJ6t8YvfQygbdT7YA4jCnObSwgE0HFIHf1Di616hnn0N5LkbQQAAql5V3u9Z3EFhg2855MU4p_UsCkq_I5AQEg7ikX3CYptAOHabhEvSL5fHBfurEQPdeWgQ5clAkp8coCJkLzaPxxUxRxNTmT_V9dYcWVemh46VWJDbRir3_r62ySoLwFXEW5ocZ1SL04ad__c7Dijhk1h3RJTb0vLDvLwOeA57UPr8uSjH5ZGTqDXzy5bI0Yo4pp8yO9dQOvGNmoqXeeJLd9JpWx9MA2nOgHWsCm2lmYoq9wcOBSAModSJ2jQ-ErdYFKPTWfkcktPnSPVDafPi3Znacjhrl5g14Yona4x_AvxjYK7RQx_VB9XqNyootrmeW3Ec0jrcRsVOVXtEjrBiclUPX-0hCOf-80CLOPnZMVvWD6ExmXM5W5RbYutuQnLbjqLXlxt7R4Zl1GXtkJzZy7TNB1QYOHprE_EP5sL_OsHIDrBCO2xjv8Vv78bv_9FGBuyC3KPcgWTW7cuUXVoTu70MkroeZo3e77T7JRjk3AVb3vwx7az_mBnJW06zNnVIXjZpj2-udmEsS_wS1_mS0]--></g></svg>