<svg xmlns="http://www.w3.org/2000/svg" xmlns:xlink="http://www.w3.org/1999/xlink" contentStyleType="text/css" height="497px" preserveAspectRatio="none" style="width:2249px;height:497px;background:#FFFFFF;" version="1.1" viewBox="0 0 2249 497" width="2249px" zoomAndPan="magnify"><defs/><g><g id="ListandoMensajes"><rect fill="#F1F1F1" height="50" rx="12.5" ry="12.5" style="stroke:#181818;stroke-width:0.5;" width="169.9395" x="733.16" y="136"/><line style="stroke:#181818;stroke-width:0.5;" x1="733.16" x2="903.0995" y1="162.2969" y2="162.2969"/><text fill="#000000" font-family="sans-serif" font-size="14" lengthAdjust="spacing" textLength="149.9395" x="743.16" y="153.9951">LISTANDO_MENSAJES</text></g><g id="CreandoMensaje"><rect fill="#F1F1F1" height="50" rx="12.5" ry="12.5" style="stroke:#181818;stroke-width:0.5;" width="160.0342" x="658.11" y="281"/><line style="stroke:#181818;stroke-width:0.5;" x1="658.11" x2="818.1442" y1="307.2969" y2="307.2969"/><text fill="#000000" font-family="sans-serif" font-size="14" lengthAdjust="spacing" textLength="140.0342" x="668.11" y="298.9951">CREANDO_MENSAJE</text></g><g id="VerResumen"><rect fill="#F1F1F1" height="50" rx="12.5" ry="12.5" style="stroke:#181818;stroke-width:0.5;" width="124.2549" x="7" y="281"/><line style="stroke:#181818;stroke-width:0.5;" x1="7" x2="131.2549" y1="307.2969" y2="307.2969"/><text fill="#000000" font-family="sans-serif" font-size="14" lengthAdjust="spacing" textLength="104.2549" x="17" y="298.9951">VER_RESUMEN</text></g><g id="LeyendoMensaje"><rect fill="#F1F1F1" height="50" rx="12.5" ry="12.5" style="stroke:#181818;stroke-width:0.5;" width="156.1514" x="343.05" y="281"/><line style="stroke:#181818;stroke-width:0.5;" x1="343.05" x2="499.2014" y1="307.2969" y2="307.2969"/><text fill="#000000" font-family="sans-serif" font-size="14" lengthAdjust="spacing" textLength="136.1514" x="353.05" y="298.9951">LEYENDO_MENSAJE</text></g><g id="LeyendoDocumento"><rect fill="#F1F1F1" height="50" rx="12.5" ry="12.5" style="stroke:#181818;stroke-width:0.5;" width="186.1064" x="195.07" y="441"/><line style="stroke:#181818;stroke-width:0.5;" x1="195.07" x2="381.1764" y1="467.2969" y2="467.2969"/><text fill="#000000" font-family="sans-serif" font-size="14" lengthAdjust="spacing" textLength="166.1064" x="205.07" y="458.9951">LEYENDO_DOCUMENTO</text></g><g id="Categorias"><rect fill="#F1F1F1" height="50" rx="12.5" ry="12.5" style="stroke:#181818;stroke-width:0.5;" width="189.1553" x="980.55" y="281"/><line style="stroke:#181818;stroke-width:0.5;" x1="980.55" x2="1169.7053" y1="307.2969" y2="307.2969"/><text fill="#000000" font-family="sans-serif" font-size="14" lengthAdjust="spacing" textLength="169.1553" x="990.55" y="298.9951">LISTANDO_CATEGORIAS</text></g><g id="CreandoCategoria"><rect fill="#F1F1F1" height="50" rx="12.5" ry="12.5" style="stroke:#181818;stroke-width:0.5;" width="179.25" x="609.5" y="441"/><line style="stroke:#181818;stroke-width:0.5;" x1="609.5" x2="788.75" y1="467.2969" y2="467.2969"/><text fill="#000000" font-family="sans-serif" font-size="14" lengthAdjust="spacing" textLength="159.25" x="619.5" y="458.9951">CREANDO_CATEGORIA</text></g><g id="ActualizandoCategoria"><rect fill="#F1F1F1" height="50" rx="12.5" ry="12.5" style="stroke:#181818;stroke-width:0.5;" width="220.1494" x="837.05" y="441"/><line style="stroke:#181818;stroke-width:0.5;" x1="837.05" x2="1057.1994" y1="467.2969" y2="467.2969"/><text fill="#000000" font-family="sans-serif" font-size="14" lengthAdjust="spacing" textLength="200.1494" x="847.05" y="458.9951">ACTUALIZANDO_CATEGORIA</text></g><g id="BorrandoCategoria"><rect fill="#F1F1F1" height="50" rx="12.5" ry="12.5" style="stroke:#181818;stroke-width:0.5;" width="190.9805" x="1151.64" y="441"/><line style="stroke:#181818;stroke-width:0.5;" x1="1151.64" x2="1342.6205" y1="467.2969" y2="467.2969"/><text fill="#000000" font-family="sans-serif" font-size="14" lengthAdjust="spacing" textLength="170.9805" x="1161.64" y="458.9951">BORRANDO_CATEGORIA</text></g><g id="Usuarios"><rect fill="#F1F1F1" height="50" rx="12.5" ry="12.5" style="stroke:#181818;stroke-width:0.5;" width="170.9375" x="1636.66" y="281"/><line style="stroke:#181818;stroke-width:0.5;" x1="1636.66" x2="1807.5975" y1="307.2969" y2="307.2969"/><text fill="#000000" font-family="sans-serif" font-size="14" lengthAdjust="spacing" textLength="150.9375" x="1646.66" y="298.9951">LISTANDO_USUARIOS</text></g><g id="ActualizandoUsuario"><rect fill="#F1F1F1" height="50" rx="12.5" ry="12.5" style="stroke:#181818;stroke-width:0.5;" width="201.9316" x="1435.16" y="441"/><line style="stroke:#181818;stroke-width:0.5;" x1="1435.16" x2="1637.0916" y1="467.2969" y2="467.2969"/><text fill="#000000" font-family="sans-serif" font-size="14" lengthAdjust="spacing" textLength="181.9316" x="1445.16" y="458.9951">ACTUALIZANDO_USUARIO</text></g><g id="CreandoUsuario"><rect fill="#F1F1F1" height="50" rx="12.5" ry="12.5" style="stroke:#181818;stroke-width:0.5;" width="161.0322" x="1740.61" y="441"/><line style="stroke:#181818;stroke-width:0.5;" x1="1740.61" x2="1901.6422" y1="467.2969" y2="467.2969"/><text fill="#000000" font-family="sans-serif" font-size="14" lengthAdjust="spacing" textLength="141.0322" x="1750.61" y="458.9951">CREANDO_USUARIO</text></g><g id="BorrandoUsuario"><rect fill="#F1F1F1" height="50" rx="12.5" ry="12.5" style="stroke:#181818;stroke-width:0.5;" width="172.7627" x="2039.75" y="441"/><line style="stroke:#181818;stroke-width:0.5;" x1="2039.75" x2="2212.5127" y1="467.2969" y2="467.2969"/><text fill="#000000" font-family="sans-serif" font-size="14" lengthAdjust="spacing" textLength="152.7627" x="2049.75" y="458.9951">BORRANDO_USUARIO</text></g><ellipse cx="818.13" cy="16" fill="#222222" rx="10" ry="10" style="stroke:#222222;stroke-width:1;"/><ellipse cx="1065.13" cy="161" fill="none" rx="11" ry="11" style="stroke:#222222;stroke-width:1;"/><ellipse cx="1065.13" cy="161" fill="#222222" rx="6" ry="6" style="stroke:#222222;stroke-width:1;"/><!--link *start* to ListandoMensajes--><g id="link_*start*_ListandoMensajes"><path d="M818.13,26.38 C818.13,48.32 818.13,97.52 818.13,129.69 " fill="none" id="*start*-to-ListandoMensajes" style="stroke:#181818;stroke-width:1;"/><polygon fill="#181818" points="818.13,135.69,822.13,126.69,818.13,130.69,814.13,126.69,818.13,135.69" style="stroke:#181818;stroke-width:1;"/><path d="M823.13,61 L823.13,101 L930.13,101 L930.13,71 L920.13,61 L823.13,61 " fill="#FEFFDD" style="stroke:#181818;stroke-width:0.5;"/><path d="M920.13,61 L920.13,71 L930.13,71 L920.13,61 " fill="#FEFFDD" style="stroke:#181818;stroke-width:0.5;"/><text fill="#000000" font-family="sans-serif" font-size="13" lengthAdjust="spacing" textLength="82.8496" x="829.13" y="78.0669">Responsable</text><text fill="#000000" font-family="sans-serif" font-size="13" lengthAdjust="spacing" textLength="79.6694" x="829.13" y="93.1997">inicia sesi&#243;n</text></g><!--link ListandoMensajes to *end*--><g id="link_ListandoMensajes_*end*"><path d="M903.48,161 C959.53,161 1021.22,161 1047.71,161 " fill="none" id="ListandoMensajes-to-*end*" style="stroke:#181818;stroke-width:1;"/><polygon fill="#181818" points="1053.71,161,1044.71,157,1048.71,161,1044.71,165,1053.71,161" style="stroke:#181818;stroke-width:1;"/><path d="M925.11,113 L925.11,153 L1032.11,153 L1032.11,123 L1022.11,113 L925.11,113 " fill="#FEFFDD" style="stroke:#181818;stroke-width:0.5;"/><path d="M1022.11,113 L1022.11,123 L1032.11,123 L1022.11,113 " fill="#FEFFDD" style="stroke:#181818;stroke-width:0.5;"/><text fill="#000000" font-family="sans-serif" font-size="13" lengthAdjust="spacing" textLength="82.8496" x="931.11" y="130.0669">Responsable</text><text fill="#000000" font-family="sans-serif" font-size="13" lengthAdjust="spacing" textLength="82.894" x="931.11" y="145.1997">cierra sesi&#243;n</text></g><!--link ListandoMensajes to LeyendoMensaje--><g id="link_ListandoMensajes_LeyendoMensaje"><path d="M732.81,167.08 C616.95,174.85 421.72,191.44 400.13,216 C384.51,233.77 391.2991,255.7424 402.1091,275.4024 " fill="none" id="ListandoMensajes-to-LeyendoMensaje" style="stroke:#181818;stroke-width:1;"/><polygon fill="#181818" points="405,280.66,404.1687,270.8463,402.5909,276.2786,397.1586,274.7008,405,280.66" style="stroke:#181818;stroke-width:1;"/><path d="M405.13,221 L405.13,246 L516.13,246 L516.13,231 L506.13,221 L405.13,221 " fill="#FEFFDD" style="stroke:#181818;stroke-width:0.5;"/><path d="M506.13,221 L506.13,231 L516.13,231 L506.13,221 " fill="#FEFFDD" style="stroke:#181818;stroke-width:0.5;"/><text fill="#000000" font-family="sans-serif" font-size="13" lengthAdjust="spacing" textLength="90.8286" x="411.13" y="238.0669">Abrir mensaje</text></g><!--link LeyendoMensaje to ListandoMensajes--><g id="link_LeyendoMensaje_ListandoMensajes"><path d="M469.24,280.55 C486.9,271.44 507,260.9 525.13,251 C552.56,236.02 557.04,227.44 586.13,216 C633.17,197.49 682.3005,185.4962 726.9505,176.8062 " fill="none" id="LeyendoMensaje-to-ListandoMensajes" style="stroke:#181818;stroke-width:1;"/><polygon fill="#181818" points="732.84,175.66,723.2416,173.453,727.9321,176.6152,724.7699,181.3057,732.84,175.66" style="stroke:#181818;stroke-width:1;"/><path d="M591.13,221 L591.13,246 L712.13,246 L712.13,231 L702.13,221 L591.13,221 " fill="#FEFFDD" style="stroke:#181818;stroke-width:0.5;"/><path d="M702.13,221 L702.13,231 L712.13,231 L702.13,221 " fill="#FEFFDD" style="stroke:#181818;stroke-width:0.5;"/><text fill="#000000" font-family="sans-serif" font-size="13" lengthAdjust="spacing" textLength="100.458" x="597.13" y="238.0669">Cerrar mensaje</text></g><!--link LeyendoMensaje to LeyendoDocumento--><g id="link_LeyendoMensaje_LeyendoDocumento"><path d="M342.77,327.85 C294.65,341.03 241.55,356.42 238.13,361 C224.82,378.8 230.02,390.31 238.13,411 C242.46,422.06 246.0847,427.8914 254.2347,436.3414 " fill="none" id="LeyendoMensaje-to-LeyendoDocumento" style="stroke:#181818;stroke-width:1;"/><polygon fill="#181818" points="258.4,440.66,255.0311,431.4052,254.9289,437.0612,249.273,436.9589,258.4,440.66" style="stroke:#181818;stroke-width:1;"/><path d="M243.13,373.5 L243.13,398.5 L373.13,398.5 L373.13,383.5 L363.13,373.5 L243.13,373.5 " fill="#FEFFDD" style="stroke:#181818;stroke-width:0.5;"/><path d="M363.13,373.5 L363.13,383.5 L373.13,383.5 L363.13,373.5 " fill="#FEFFDD" style="stroke:#181818;stroke-width:0.5;"/><text fill="#000000" font-family="sans-serif" font-size="13" lengthAdjust="spacing" textLength="109.1226" x="249.13" y="390.5669">Abrir documento</text></g><!--link LeyendoDocumento to LeyendoMensaje--><g id="link_LeyendoDocumento_LeyendoMensaje"><path d="M345.04,440.66 C358.58,432.77 372.02,422.91 382.13,411 C401.73,387.92 410.6675,359.9013 415.6475,337.1413 " fill="none" id="LeyendoDocumento-to-LeyendoMensaje" style="stroke:#181818;stroke-width:1;"/><polygon fill="#181818" points="416.93,331.28,411.0987,339.217,415.8613,336.1644,418.9138,340.927,416.93,331.28" style="stroke:#181818;stroke-width:1;"/><path d="M413.13,373.5 L413.13,398.5 L562.13,398.5 L562.13,383.5 L552.13,373.5 L413.13,373.5 " fill="#FEFFDD" style="stroke:#181818;stroke-width:0.5;"/><path d="M552.13,373.5 L552.13,383.5 L562.13,383.5 L552.13,373.5 " fill="#FEFFDD" style="stroke:#181818;stroke-width:0.5;"/><text fill="#000000" font-family="sans-serif" font-size="13" lengthAdjust="spacing" textLength="128.4575" x="419.13" y="390.5669">Cerrar visualizaci&#243;n</text></g><!--link LeyendoDocumento to LeyendoDocumento--><g id="link_LeyendoDocumento_LeyendoDocumento"><path d="M381.65,451.46 C401.68,452.91 416.18,457.76 416.18,466 C416.18,474.24 407.6643,478.6568 387.6343,480.1068 " fill="none" id="LeyendoDocumento-to-LeyendoDocumento" style="stroke:#181818;stroke-width:1;"/><polygon fill="#181818" points="381.65,480.54,390.9153,483.8797,386.6369,480.179,390.3377,475.9006,381.65,480.54" style="stroke:#181818;stroke-width:1;"/><path d="M421.18,453.5 L421.18,478.5 L559.18,478.5 L559.18,463.5 L549.18,453.5 L421.18,453.5 " fill="#FEFFDD" style="stroke:#181818;stroke-width:0.5;"/><path d="M549.18,453.5 L549.18,463.5 L559.18,463.5 L549.18,453.5 " fill="#FEFFDD" style="stroke:#181818;stroke-width:0.5;"/><text fill="#000000" font-family="sans-serif" font-size="13" lengthAdjust="spacing" textLength="117.9458" x="427.18" y="470.5669">Confirmar Lectura</text></g><!--link ListandoMensajes to CreandoMensaje--><g id="link_ListandoMensajes_CreandoMensaje"><path d="M761.31,186.27 C749.64,194 738.87,203.81 732.13,216 C721.19,235.79 723.1344,256.1525 728.1544,274.9825 " fill="none" id="ListandoMensajes-to-CreandoMensaje" style="stroke:#181818;stroke-width:1;"/><polygon fill="#181818" points="729.7,280.78,731.2466,271.0533,728.412,275.9487,723.5166,273.1141,729.7,280.78" style="stroke:#181818;stroke-width:1;"/><path d="M737.13,221 L737.13,246 L853.13,246 L853.13,231 L843.13,221 L737.13,221 " fill="#FEFFDD" style="stroke:#181818;stroke-width:0.5;"/><path d="M843.13,221 L843.13,231 L853.13,231 L843.13,221 " fill="#FEFFDD" style="stroke:#181818;stroke-width:0.5;"/><text fill="#000000" font-family="sans-serif" font-size="13" lengthAdjust="spacing" textLength="95.1133" x="743.13" y="238.0669">Crear mensaje</text></g><!--link CreandoMensaje to ListandoMensajes--><g id="link_CreandoMensaje_ListandoMensajes"><path d="M818.45,285.95 C835.66,278.02 851.77,266.81 862.13,251 C875.73,230.24 864.0857,209.1637 847.8157,190.7737 " fill="none" id="CreandoMensaje-to-ListandoMensajes" style="stroke:#181818;stroke-width:1;"/><polygon fill="#181818" points="843.84,186.28,846.8077,195.6711,847.1531,190.0248,852.7994,190.3701,843.84,186.28" style="stroke:#181818;stroke-width:1;"/><path d="M873.13,221 L873.13,246 L996.13,246 L996.13,231 L986.13,221 L873.13,221 " fill="#FEFFDD" style="stroke:#181818;stroke-width:0.5;"/><path d="M986.13,221 L986.13,231 L996.13,231 L986.13,221 " fill="#FEFFDD" style="stroke:#181818;stroke-width:0.5;"/><text fill="#000000" font-family="sans-serif" font-size="13" lengthAdjust="spacing" textLength="102.1909" x="879.13" y="238.0669">Listar mensajes</text></g><!--link CreandoMensaje to CreandoMensaje--><g id="link_CreandoMensaje_CreandoMensaje"><path d="M818.48,292.61 C838.34,293.57 853.14,298.03 853.14,306 C853.14,313.97 844.333,318.1403 824.473,319.1003 " fill="none" id="CreandoMensaje-to-CreandoMensaje" style="stroke:#181818;stroke-width:1;"/><polygon fill="#181818" points="818.48,319.39,827.6626,322.9508,823.4742,319.1486,827.2764,314.9601,818.48,319.39" style="stroke:#181818;stroke-width:1;"/><path d="M858.14,293.5 L858.14,318.5 L954.14,318.5 L954.14,303.5 L944.14,293.5 L858.14,293.5 " fill="#FEFFDD" style="stroke:#181818;stroke-width:0.5;"/><path d="M944.14,293.5 L944.14,303.5 L954.14,303.5 L944.14,293.5 " fill="#FEFFDD" style="stroke:#181818;stroke-width:0.5;"/><text fill="#000000" font-family="sans-serif" font-size="13" lengthAdjust="spacing" textLength="75.3594" x="864.14" y="310.5669">Crear envio</text></g><!--link ListandoMensajes to VerResumen--><g id="link_ListandoMensajes_VerResumen"><path d="M732.91,166.09 C601.07,173.15 354.11,189.46 270.13,216 C239.95,225.53 236.73,237.46 208.13,251 C183.56,262.63 161.3749,271.6951 137.1349,280.8251 " fill="none" id="ListandoMensajes-to-VerResumen" style="stroke:#181818;stroke-width:1;"/><polygon fill="#181818" points="131.52,282.94,141.3523,283.511,136.1991,281.1776,138.5325,276.0244,131.52,282.94" style="stroke:#181818;stroke-width:1;"/><path d="M275.13,221 L275.13,246 L379.13,246 L379.13,231 L369.13,221 L275.13,221 " fill="#FEFFDD" style="stroke:#181818;stroke-width:0.5;"/><path d="M369.13,221 L369.13,231 L379.13,231 L369.13,221 " fill="#FEFFDD" style="stroke:#181818;stroke-width:0.5;"/><text fill="#000000" font-family="sans-serif" font-size="13" lengthAdjust="spacing" textLength="83.624" x="281.13" y="238.0669">Ver resumen</text></g><!--reverse link ListandoMensajes to VerResumen--><g id="link_ListandoMensajes_VerResumen"><path d="M726.96,161.8787 C540.67,162.4587 115.94,168.9 71.13,216 C55.04,232.91 57.24,260.83 61.74,280.9 " fill="none" id="ListandoMensajes-backto-VerResumen" style="stroke:#181818;stroke-width:1;"/><polygon fill="#181818" points="732.96,161.86,723.9476,157.888,727.96,161.8756,723.9725,165.888,732.96,161.86" style="stroke:#181818;stroke-width:1;"/><path d="M76.13,221 L76.13,246 L199.13,246 L199.13,231 L189.13,221 L76.13,221 " fill="#FEFFDD" style="stroke:#181818;stroke-width:0.5;"/><path d="M189.13,221 L189.13,231 L199.13,231 L189.13,221 " fill="#FEFFDD" style="stroke:#181818;stroke-width:0.5;"/><text fill="#000000" font-family="sans-serif" font-size="13" lengthAdjust="spacing" textLength="102.1909" x="82.13" y="238.0669">Listar mensajes</text></g><!--reverse link VerResumen to VerResumen--><g id="link_VerResumen_VerResumen"><path d="M137.7194,292.5038 C157.0594,292.7738 166.25,297.22 166.25,306 C166.25,314.78 151.06,319.31 131.72,319.58 " fill="none" id="VerResumen-backto-VerResumen" style="stroke:#181818;stroke-width:1;"/><polygon fill="#181818" points="131.72,292.42,140.6633,296.5452,136.7195,292.4898,140.775,288.546,131.72,292.42" style="stroke:#181818;stroke-width:1;"/><path d="M171.25,293.5 L171.25,318.5 L320.25,318.5 L320.25,303.5 L310.25,293.5 L171.25,293.5 " fill="#FEFFDD" style="stroke:#181818;stroke-width:0.5;"/><path d="M310.25,293.5 L310.25,303.5 L320.25,303.5 L310.25,293.5 " fill="#FEFFDD" style="stroke:#181818;stroke-width:0.5;"/><text fill="#000000" font-family="sans-serif" font-size="13" lengthAdjust="spacing" textLength="128.1909" x="177.25" y="310.5669">Descargar resumen</text></g><!--link ListandoMensajes to Categorias--><g id="link_ListandoMensajes_Categorias"><path d="M903.2,173.65 C938.28,181.47 977.93,194.47 1009.13,216 C1033.03,232.5 1048.7716,255.2632 1060.0616,275.4532 " fill="none" id="ListandoMensajes-to-Categorias" style="stroke:#181818;stroke-width:1;"/><polygon fill="#181818" points="1062.99,280.69,1062.0887,270.8825,1060.5497,276.326,1055.1062,274.787,1062.99,280.69" style="stroke:#181818;stroke-width:1;"/><path d="M1048.13,221 L1048.13,246 L1177.13,246 L1177.13,231 L1167.13,221 L1048.13,221 " fill="#FEFFDD" style="stroke:#181818;stroke-width:0.5;"/><path d="M1167.13,221 L1167.13,231 L1177.13,231 L1167.13,221 " fill="#FEFFDD" style="stroke:#181818;stroke-width:0.5;"/><text fill="#000000" font-family="sans-serif" font-size="13" lengthAdjust="spacing" textLength="108.2783" x="1054.13" y="238.0669">Listar categorias</text></g><!--link Categorias to ListandoMensajes--><g id="link_Categorias_ListandoMensajes"><path d="M1157.66,280.56 C1170.55,273.12 1182.2,263.47 1190.13,251 C1198.47,237.87 1200.31,227.76 1190.13,216 C1180.79,205.2 1016.3402,184.6197 909.4402,172.2497 " fill="none" id="Categorias-to-ListandoMensajes" style="stroke:#181818;stroke-width:1;"/><polygon fill="#181818" points="903.48,171.56,911.9605,176.568,908.4469,172.1347,912.8801,168.6211,903.48,171.56" style="stroke:#181818;stroke-width:1;"/><path d="M1202.13,221 L1202.13,246 L1325.13,246 L1325.13,231 L1315.13,221 L1202.13,221 " fill="#FEFFDD" style="stroke:#181818;stroke-width:0.5;"/><path d="M1315.13,221 L1315.13,231 L1325.13,231 L1315.13,221 " fill="#FEFFDD" style="stroke:#181818;stroke-width:0.5;"/><text fill="#000000" font-family="sans-serif" font-size="13" lengthAdjust="spacing" textLength="102.1909" x="1208.13" y="238.0669">Listar mensajes</text></g><!--link Categorias to CreandoCategoria--><g id="link_Categorias_CreandoCategoria"><path d="M980.21,327.73 C973.43,328.92 966.68,330.03 960.13,331 C922.28,336.58 642.97,332.79 617.13,361 C602.11,377.38 606.59,391.44 617.13,411 C623.6,423 629.0874,429.3784 640.3774,437.1484 " fill="none" id="Categorias-to-CreandoCategoria" style="stroke:#181818;stroke-width:1;"/><polygon fill="#181818" points="645.32,440.55,640.1738,432.1526,641.2012,437.7153,635.6384,438.7427,645.32,440.55" style="stroke:#181818;stroke-width:1;"/><path d="M622.13,366 L622.13,406 L727.13,406 L727.13,376 L717.13,366 L622.13,366 " fill="#FEFFDD" style="stroke:#181818;stroke-width:0.5;"/><path d="M717.13,366 L717.13,376 L727.13,376 L717.13,366 " fill="#FEFFDD" style="stroke:#181818;stroke-width:0.5;"/><text fill="#000000" font-family="sans-serif" font-size="13" lengthAdjust="spacing" textLength="79.9995" x="628.13" y="383.0669">Crear nueva</text><text fill="#000000" font-family="sans-serif" font-size="13" lengthAdjust="spacing" textLength="61.3374" x="628.13" y="398.1997">categoria</text></g><!--link CreandoCategoria to Categorias--><g id="link_CreandoCategoria_Categorias"><path d="M715.11,440.55 C732.33,416.31 762.05,380.1 797.13,361 C861.82,325.78 887.85,345.19 960.13,331 C966.63,329.72 967.4582,329.5651 974.2082,328.2051 " fill="none" id="CreandoCategoria-to-Categorias" style="stroke:#181818;stroke-width:1;"/><polygon fill="#181818" points="980.09,327.02,970.4772,324.8764,975.1885,328.0076,972.0573,332.7188,980.09,327.02" style="stroke:#181818;stroke-width:1;"/><path d="M802.13,366 L802.13,406 L891.13,406 L891.13,376 L881.13,366 L802.13,366 " fill="#FEFFDD" style="stroke:#181818;stroke-width:0.5;"/><path d="M881.13,366 L881.13,376 L891.13,376 L881.13,366 " fill="#FEFFDD" style="stroke:#181818;stroke-width:0.5;"/><text fill="#000000" font-family="sans-serif" font-size="13" lengthAdjust="spacing" textLength="36.0356" x="808.13" y="383.0669">Listar</text><text fill="#000000" font-family="sans-serif" font-size="13" lengthAdjust="spacing" textLength="68.1104" x="808.13" y="398.1997">categorias</text></g><!--link Categorias to ActualizandoCategoria--><g id="link_Categorias_ActualizandoCategoria"><path d="M980.45,328.02 C949.32,336.98 920.31,348.31 911.13,361 C893.66,385.15 907.3445,413.6206 923.4345,435.9706 " fill="none" id="Categorias-to-ActualizandoCategoria" style="stroke:#181818;stroke-width:1;"/><polygon fill="#181818" points="926.94,440.84,924.928,431.1989,924.0187,436.7822,918.4354,435.8729,926.94,440.84" style="stroke:#181818;stroke-width:1;"/><path d="M916.13,366 L916.13,406 L1034.13,406 L1034.13,376 L1024.13,366 L916.13,366 " fill="#FEFFDD" style="stroke:#181818;stroke-width:0.5;"/><path d="M1024.13,366 L1024.13,376 L1034.13,376 L1024.13,366 " fill="#FEFFDD" style="stroke:#181818;stroke-width:0.5;"/><text fill="#000000" font-family="sans-serif" font-size="13" lengthAdjust="spacing" textLength="93.2788" x="922.13" y="383.0669">Actualizar una</text><text fill="#000000" font-family="sans-serif" font-size="13" lengthAdjust="spacing" textLength="61.3374" x="922.13" y="398.1997">categoria</text></g><!--link ActualizandoCategoria to Categorias--><g id="link_ActualizandoCategoria_Categorias"><path d="M1006.75,440.7 C1020.23,432.89 1033.41,423.06 1043.13,411 C1061.74,387.91 1068.7093,359.9694 1071.9693,337.2094 " fill="none" id="ActualizandoCategoria-to-Categorias" style="stroke:#181818;stroke-width:1;"/><polygon fill="#181818" points="1072.82,331.27,1067.5843,339.6119,1072.1111,336.2195,1075.5035,340.7462,1072.82,331.27" style="stroke:#181818;stroke-width:1;"/><path d="M1071.13,366 L1071.13,406 L1160.13,406 L1160.13,376 L1150.13,366 L1071.13,366 " fill="#FEFFDD" style="stroke:#181818;stroke-width:0.5;"/><path d="M1150.13,366 L1150.13,376 L1160.13,376 L1150.13,366 " fill="#FEFFDD" style="stroke:#181818;stroke-width:0.5;"/><text fill="#000000" font-family="sans-serif" font-size="13" lengthAdjust="spacing" textLength="36.0356" x="1077.13" y="383.0669">Listar</text><text fill="#000000" font-family="sans-serif" font-size="13" lengthAdjust="spacing" textLength="68.1104" x="1077.13" y="398.1997">categorias</text></g><!--link Categorias to BorrandoCategoria--><g id="link_Categorias_BorrandoCategoria"><path d="M1129.61,331.41 C1144.62,339.58 1160.29,349.56 1173.13,361 C1199.1,384.15 1218.0567,412.82 1231.1467,435.56 " fill="none" id="Categorias-to-BorrandoCategoria" style="stroke:#181818;stroke-width:1;"/><polygon fill="#181818" points="1234.14,440.76,1233.1167,430.9644,1231.6456,436.4267,1226.1834,434.9555,1234.14,440.76" style="stroke:#181818;stroke-width:1;"/><path d="M1219.13,366 L1219.13,406 L1313.13,406 L1313.13,376 L1303.13,366 L1219.13,366 " fill="#FEFFDD" style="stroke:#181818;stroke-width:0.5;"/><path d="M1303.13,366 L1303.13,376 L1313.13,376 L1303.13,366 " fill="#FEFFDD" style="stroke:#181818;stroke-width:0.5;"/><text fill="#000000" font-family="sans-serif" font-size="13" lengthAdjust="spacing" textLength="69.4497" x="1225.13" y="383.0669">Borrar una</text><text fill="#000000" font-family="sans-serif" font-size="13" lengthAdjust="spacing" textLength="61.3374" x="1225.13" y="398.1997">categoria</text></g><!--link BorrandoCategoria to Categorias--><g id="link_BorrandoCategoria_Categorias"><path d="M1298.19,440.77 C1309.38,432.92 1319.77,423.05 1326.13,411 C1336.5,391.35 1340.09,378.29 1326.13,361 C1306.42,336.6 1238.4666,323.4308 1175.9066,315.8608 " fill="none" id="BorrandoCategoria-to-Categorias" style="stroke:#181818;stroke-width:1;"/><polygon fill="#181818" points="1169.95,315.14,1178.4043,320.1922,1174.9138,315.7406,1179.3653,312.2501,1169.95,315.14" style="stroke:#181818;stroke-width:1;"/><path d="M1341.13,366 L1341.13,406 L1430.13,406 L1430.13,376 L1420.13,366 L1341.13,366 " fill="#FEFFDD" style="stroke:#181818;stroke-width:0.5;"/><path d="M1420.13,366 L1420.13,376 L1430.13,376 L1420.13,366 " fill="#FEFFDD" style="stroke:#181818;stroke-width:0.5;"/><text fill="#000000" font-family="sans-serif" font-size="13" lengthAdjust="spacing" textLength="36.0356" x="1347.13" y="383.0669">Listar</text><text fill="#000000" font-family="sans-serif" font-size="13" lengthAdjust="spacing" textLength="68.1104" x="1347.13" y="398.1997">categorias</text></g><!--link ListandoMensajes to Usuarios--><g id="link_ListandoMensajes_Usuarios"><path d="M903.52,171.61 C943.74,176.09 992.39,181.42 1036.13,186 C1170.28,200.05 1205.04,194.06 1338.13,216 C1394.68,225.32 1535.7924,259.122 1630.6324,282.362 " fill="none" id="ListandoMensajes-to-Usuarios" style="stroke:#181818;stroke-width:1;"/><polygon fill="#181818" points="1636.46,283.79,1628.6706,277.7629,1631.6037,282.6,1626.7666,285.533,1636.46,283.79" style="stroke:#181818;stroke-width:1;"/><path d="M1495.13,221 L1495.13,246 L1611.13,246 L1611.13,231 L1601.13,221 L1495.13,221 " fill="#FEFFDD" style="stroke:#181818;stroke-width:0.5;"/><path d="M1601.13,221 L1601.13,231 L1611.13,231 L1601.13,221 " fill="#FEFFDD" style="stroke:#181818;stroke-width:0.5;"/><text fill="#000000" font-family="sans-serif" font-size="13" lengthAdjust="spacing" textLength="95.0688" x="1501.13" y="238.0669">Listar usuarios</text></g><!--link Usuarios to ListandoMensajes--><g id="link_Usuarios_ListandoMensajes"><path d="M1703.76,280.76 C1686.01,259.42 1657.02,229.68 1624.13,216 C1503.32,165.76 1166.54,196.5 1036.13,186 C992.29,182.47 949.5998,177.9337 909.3898,173.2537 " fill="none" id="Usuarios-to-ListandoMensajes" style="stroke:#181818;stroke-width:1;"/><polygon fill="#181818" points="903.43,172.56,911.9072,177.5737,908.3965,173.138,912.8321,169.6273,903.43,172.56" style="stroke:#181818;stroke-width:1;"/><path d="M1680.13,221 L1680.13,246 L1803.13,246 L1803.13,231 L1793.13,221 L1680.13,221 " fill="#FEFFDD" style="stroke:#181818;stroke-width:0.5;"/><path d="M1793.13,221 L1793.13,231 L1803.13,231 L1793.13,221 " fill="#FEFFDD" style="stroke:#181818;stroke-width:0.5;"/><text fill="#000000" font-family="sans-serif" font-size="13" lengthAdjust="spacing" textLength="102.1909" x="1686.13" y="238.0669">Listar mensajes</text></g><!--link Usuarios to CreandoUsuario--><g id="link_Usuarios_CreandoUsuario"><path d="M1735.27,331.38 C1746.99,352.72 1764.91,384.4 1782.13,411 C1788.54,420.9 1792.4853,426.649 1799.1853,435.799 " fill="none" id="Usuarios-to-CreandoUsuario" style="stroke:#181818;stroke-width:1;"/><polygon fill="#181818" points="1802.73,440.64,1800.6402,431.0154,1799.776,436.6059,1794.1856,435.7417,1802.73,440.64" style="stroke:#181818;stroke-width:1;"/><path d="M1787.13,366 L1787.13,406 L1887.13,406 L1887.13,376 L1877.13,366 L1787.13,366 " fill="#FEFFDD" style="stroke:#181818;stroke-width:0.5;"/><path d="M1877.13,366 L1877.13,376 L1887.13,376 L1877.13,366 " fill="#FEFFDD" style="stroke:#181818;stroke-width:0.5;"/><text fill="#000000" font-family="sans-serif" font-size="13" lengthAdjust="spacing" textLength="79.9868" x="1793.13" y="383.0669">Crear nuevo</text><text fill="#000000" font-family="sans-serif" font-size="13" lengthAdjust="spacing" textLength="48.1279" x="1793.13" y="398.1997">usuario</text></g><!--link CreandoUsuario to Usuarios--><g id="link_CreandoUsuario_Usuarios"><path d="M1869.27,440.59 C1880.04,432.7 1890.06,422.85 1896.13,411 C1906.26,391.22 1909.31,378.89 1896.13,361 C1875.58,333.12 1846.6576,320.4157 1813.5576,313.6257 " fill="none" id="CreandoUsuario-to-Usuarios" style="stroke:#181818;stroke-width:1;"/><polygon fill="#181818" points="1807.68,312.42,1815.6926,318.147,1812.578,313.4248,1817.3002,310.3102,1807.68,312.42" style="stroke:#181818;stroke-width:1;"/><path d="M1910.13,366 L1910.13,406 L1985.13,406 L1985.13,376 L1975.13,366 L1910.13,366 " fill="#FEFFDD" style="stroke:#181818;stroke-width:0.5;"/><path d="M1975.13,366 L1975.13,376 L1985.13,376 L1975.13,366 " fill="#FEFFDD" style="stroke:#181818;stroke-width:0.5;"/><text fill="#000000" font-family="sans-serif" font-size="13" lengthAdjust="spacing" textLength="36.0356" x="1916.13" y="383.0669">Listar</text><text fill="#000000" font-family="sans-serif" font-size="13" lengthAdjust="spacing" textLength="54.9009" x="1916.13" y="398.1997">usuarios</text></g><!--link Usuarios to ActualizandoUsuario--><g id="link_Usuarios_ActualizandoUsuario"><path d="M1636.16,317.04 C1581.55,325.39 1518.05,339.45 1501.13,361 C1482.66,384.53 1496.5183,413.4307 1512.6983,436.0407 " fill="none" id="Usuarios-to-ActualizandoUsuario" style="stroke:#181818;stroke-width:1;"/><polygon fill="#181818" points="1516.19,440.92,1514.2053,431.2732,1513.2802,436.8539,1507.6995,435.9288,1516.19,440.92" style="stroke:#181818;stroke-width:1;"/><path d="M1506.13,366 L1506.13,406 L1612.13,406 L1612.13,376 L1602.13,366 L1506.13,366 " fill="#FEFFDD" style="stroke:#181818;stroke-width:0.5;"/><path d="M1602.13,366 L1602.13,376 L1612.13,376 L1602.13,366 " fill="#FEFFDD" style="stroke:#181818;stroke-width:0.5;"/><text fill="#000000" font-family="sans-serif" font-size="13" lengthAdjust="spacing" textLength="85.3125" x="1512.13" y="383.0669">Actualizar un</text><text fill="#000000" font-family="sans-serif" font-size="13" lengthAdjust="spacing" textLength="48.1279" x="1512.13" y="398.1997">usuario</text></g><!--link ActualizandoUsuario to Usuarios--><g id="link_ActualizandoUsuario_Usuarios"><path d="M1580.46,440.68 C1594.18,432.17 1608.89,421.97 1621.13,411 C1642.31,392 1641.51,381.62 1661.13,361 C1670.88,350.75 1677.7915,344.2061 1688.1115,335.2361 " fill="none" id="ActualizandoUsuario-to-Usuarios" style="stroke:#181818;stroke-width:1;"/><polygon fill="#181818" points="1692.64,331.3,1683.2232,334.1852,1688.8663,334.5801,1688.4713,340.2231,1692.64,331.3" style="stroke:#181818;stroke-width:1;"/><path d="M1666.13,366 L1666.13,406 L1741.13,406 L1741.13,376 L1731.13,366 L1666.13,366 " fill="#FEFFDD" style="stroke:#181818;stroke-width:0.5;"/><path d="M1731.13,366 L1731.13,376 L1741.13,376 L1731.13,366 " fill="#FEFFDD" style="stroke:#181818;stroke-width:0.5;"/><text fill="#000000" font-family="sans-serif" font-size="13" lengthAdjust="spacing" textLength="36.0356" x="1672.13" y="383.0669">Listar</text><text fill="#000000" font-family="sans-serif" font-size="13" lengthAdjust="spacing" textLength="54.9009" x="1672.13" y="398.1997">usuarios</text></g><!--link Usuarios to BorrandoUsuario--><g id="link_Usuarios_BorrandoUsuario"><path d="M1808.07,312.54 C1864.4,318.84 1938.39,332.28 1998.13,361 C2029.11,375.89 2030.48,389.29 2057.13,411 C2069.16,420.8 2077.8265,427.673 2089.5865,436.833 " fill="none" id="Usuarios-to-BorrandoUsuario" style="stroke:#181818;stroke-width:1;"/><polygon fill="#181818" points="2094.32,440.52,2089.6777,431.8338,2090.3754,437.4475,2084.7617,438.1452,2094.32,440.52" style="stroke:#181818;stroke-width:1;"/><path d="M2062.13,366 L2062.13,406 L2144.13,406 L2144.13,376 L2134.13,366 L2062.13,366 " fill="#FEFFDD" style="stroke:#181818;stroke-width:0.5;"/><path d="M2134.13,366 L2134.13,376 L2144.13,376 L2134.13,366 " fill="#FEFFDD" style="stroke:#181818;stroke-width:0.5;"/><text fill="#000000" font-family="sans-serif" font-size="13" lengthAdjust="spacing" textLength="61.4834" x="2068.13" y="383.0669">Borrar un</text><text fill="#000000" font-family="sans-serif" font-size="13" lengthAdjust="spacing" textLength="48.1279" x="2068.13" y="398.1997">usuario</text></g><!--link BorrandoUsuario to Usuarios--><g id="link_BorrandoUsuario_Usuarios"><path d="M2143.54,440.66 C2157.77,417.53 2172.63,383.1 2153.13,361 C2130.7,335.59 1933.2682,319.6158 1814.0782,312.1358 " fill="none" id="BorrandoUsuario-to-Usuarios" style="stroke:#181818;stroke-width:1;"/><polygon fill="#181818" points="1808.09,311.76,1816.8218,316.3158,1813.0802,312.0732,1817.3229,308.3316,1808.09,311.76" style="stroke:#181818;stroke-width:1;"/><path d="M2167.13,366 L2167.13,406 L2242.13,406 L2242.13,376 L2232.13,366 L2167.13,366 " fill="#FEFFDD" style="stroke:#181818;stroke-width:0.5;"/><path d="M2232.13,366 L2232.13,376 L2242.13,376 L2232.13,366 " fill="#FEFFDD" style="stroke:#181818;stroke-width:0.5;"/><text fill="#000000" font-family="sans-serif" font-size="13" lengthAdjust="spacing" textLength="36.0356" x="2173.13" y="383.0669">Listar</text><text fill="#000000" font-family="sans-serif" font-size="13" lengthAdjust="spacing" textLength="54.9009" x="2173.13" y="398.1997">usuarios</text></g><!--SRC=[jPRVRfim5CRlynHMBolb5IQv15MPQ94WL5ghgdAfLtbBxCg6IDjhxH7sOZC46-C_CqWbTp7V-Ptl78wDHOCQ3AwoVNc0zxlyvIwzB-7NjBm2I82CY0RHDtQ7gK0_iDY8YpefKbFSQnEE3QbIFgJ5Iv6MbLJsgWVC2opQ4wPAaQNVKfkLuL_OPIdbBaywtY4tjJjMTzI6QRMgA867z3Olzl1IKoAVlZDEa5ED5fhrQBbIm-HGmMp_w0c1TTEY8_djZRl9Yy8JSyCuz-gr_wgiOB7FB-uhqI9EcF2w6PIEbo78hjUK3zLQIktPb2h7Ihjvkdu6s-qNTrg0_54cGOo28w4_-uNk9qVWWqdHwn43lKWegGa20Wlozm_jb-MBxG6RZSq6Cf_Ckp15JR3q7aZXoT4LDHt5O3xuoWa79qDcc9ymm4WTXpR2VPi87RBcc9Pdm1D6lnD-Gbp6o7dXQ04-sf6awpK7Po8kWrZxNglLcKLJD2G8zDptCgqpAaoMkX1uol1WGOoBwPcmYDqEQvoLGQBK06w8Hk8O3RR7HNtjbRfy4U4Q_yF87HOrukyePDRJrC_own-4yICGmzPJgU5PFp27O3p78rD0Mtn6nj4qYNCwex5BxRi98dNuFsBXyqd9EMZfZ7gy-DMBSh-omHIzT6On3dRrGbRT5Vfo4OEsfd24gdXpFwXRmepTmFHQQmGvMs4WBd9ia__ht7TrcZV_aG8yuFMgiAzfyO6FkBU0wpd_d1d_1m00]--></g></svg>