<svg xmlns="http://www.w3.org/2000/svg" xmlns:xlink="http://www.w3.org/1999/xlink" contentStyleType="text/css" data-diagram-type="STATE" height="978px" preserveAspectRatio="none" style="width:483px;height:978px;background:#FFFFFF;" version="1.1" viewBox="0 0 483 978" width="483px" zoomAndPan="magnify"><defs/><g><rect fill="#F1F1F1" height="40" rx="12.5" ry="12.5" style="stroke:#181818;stroke-width:0.5;" width="100.4805" x="188.26" y="7"/><text fill="#000000" font-family="sans-serif" font-size="14" lengthAdjust="spacing" textLength="90.4805" x="193.26" y="31.8467">DASHBOARD</text><rect fill="#F1F1F1" height="40" rx="12.5" ry="12.5" style="stroke:#181818;stroke-width:0.5;" width="100.4805" x="188.26" y="932.3"/><text fill="#000000" font-family="sans-serif" font-size="14" lengthAdjust="spacing" textLength="90.4805" x="193.26" y="957.1467">DASHBOARD</text><path d="M19.5,157 L457.5,157 A12.5,12.5 0 0 1 470,169.5 L470,183.2969 L7,183.2969 L7,169.5 A12.5,12.5 0 0 1 19.5,157 " fill="#F1F1F1" style="stroke:#F1F1F1;stroke-width:1;"/><rect fill="none" height="714.2969" rx="12.5" ry="12.5" style="stroke:#181818;stroke-width:0.5;" width="463" x="7" y="157"/><line style="stroke:#181818;stroke-width:0.5;" x1="7" x2="470" y1="183.2969" y2="183.2969"/><text fill="#000000" font-family="sans-serif" font-size="14" lengthAdjust="spacing" textLength="96.4209" x="190.2896" y="174.9951">CrearMensaje</text><rect fill="#F1F1F1" height="40" rx="12.5" ry="12.5" style="stroke:#181818;stroke-width:0.5;" width="50" x="160" y="195.2969"/><text fill="#000000" font-family="sans-serif" font-size="14" lengthAdjust="spacing" textLength="4.4502" x="182.7749" y="220.1436">&#160;</text><rect fill="#F1F1F1" height="40" rx="12.5" ry="12.5" style="stroke:#181818;stroke-width:0.5;" width="50" x="19" y="477.2969"/><text fill="#000000" font-family="sans-serif" font-size="14" lengthAdjust="spacing" textLength="4.4502" x="41.7749" y="502.1436">&#160;</text><g id="elem_revisionFiltrosEnviados"><polygon fill="#F1F1F1" points="185,729.2969,197,741.2969,185,753.2969,173,741.2969,185,729.2969" style="stroke:#181818;stroke-width:0.5;"/></g><ellipse cx="185" cy="850.2969" fill="none" rx="11" ry="11" style="stroke:#222222;stroke-width:1;"/><ellipse cx="185" cy="850.2969" fill="#222222" rx="6" ry="6" style="stroke:#222222;stroke-width:1;"/><!--link solicitudFiltros to envioFiltros--><g id="link_solicitudFiltros_envioFiltros"><path d="M159.65,222.9969 C119.3,233.6569 45,253.2969 45,253.2969 C45,253.2969 44.345,413.1569 44.105,470.8269 " fill="none" id="solicitudFiltros-to-envioFiltros" style="stroke:#008000;stroke-width:1;"/><polygon fill="#008000" points="44.08,476.8269,48.1174,467.8436,44.1008,471.8269,40.1175,467.8103,44.08,476.8269" style="stroke:#008000;stroke-width:1;"/><path d="M50,258.2969 L50,449.2969 L307,449.2969 L307,268.2969 L297,258.2969 L50,258.2969 " fill="#F5F5F5" style="stroke:#008000;stroke-width:0.5;"/><path d="M297,258.2969 L297,268.2969 L307,268.2969 L297,258.2969 " fill="#F5F5F5" style="stroke:#008000;stroke-width:0.5;"/><text fill="#000000" font-family="sans-serif" font-size="13" font-weight="bold" lengthAdjust="spacing" textLength="117.7871" x="56" y="275.3638">Sistema Solicita</text><ellipse cx="61.5" cy="286.0625" fill="#000000" rx="2.5" ry="2.5" style="stroke:#000000;stroke-width:0;"/><text fill="#000000" font-family="sans-serif" font-size="13" lengthAdjust="spacing" textLength="123.9126" x="68" y="290.4966">Destinatario/Grupo</text><ellipse cx="61.5" cy="301.1953" fill="#000000" rx="2.5" ry="2.5" style="stroke:#000000;stroke-width:0;"/><text fill="#000000" font-family="sans-serif" font-size="13" lengthAdjust="spacing" textLength="45.1953" x="68" y="305.6294">Asunto</text><ellipse cx="61.5" cy="316.3281" fill="#000000" rx="2.5" ry="2.5" style="stroke:#000000;stroke-width:0;"/><text fill="#000000" font-family="sans-serif" font-size="13" lengthAdjust="spacing" textLength="36.4546" x="68" y="320.7622">T&#237;tulo</text><ellipse cx="61.5" cy="331.4609" fill="#000000" rx="2.5" ry="2.5" style="stroke:#000000;stroke-width:0;"/><text fill="#000000" font-family="sans-serif" font-size="13" lengthAdjust="spacing" textLength="130.2412" x="68" y="335.895">Cuerpo del mensaje</text><ellipse cx="61.5" cy="346.5938" fill="#000000" rx="2.5" ry="2.5" style="stroke:#000000;stroke-width:0;"/><text fill="#000000" font-family="sans-serif" font-size="13" font-weight="bold" lengthAdjust="spacing" textLength="80.4883" x="68" y="351.0278">Opcionales</text><text fill="#000000" font-family="sans-serif" font-size="13" lengthAdjust="spacing" textLength="137.6172" x="72.5293" y="366.1606">- Documento adjunto</text><text fill="#000000" font-family="sans-serif" font-size="13" lengthAdjust="spacing" textLength="219.9272" x="72.5293" y="381.2935">- Solicitar confirmaci&#243;n de lectura</text><text fill="#000000" font-family="sans-serif" font-size="13" lengthAdjust="spacing" textLength="99.7153" x="72.5293" y="396.4263">- Solicitar firma</text><text fill="#000000" font-family="sans-serif" font-size="13" lengthAdjust="spacing" textLength="88.3784" x="72.5293" y="411.5591">- Fecha l&#237;mite</text><text fill="#000000" font-family="sans-serif" font-size="13" font-weight="bold" lengthAdjust="spacing" textLength="121.2212" x="56" y="426.6919">Sistema Permite</text><ellipse cx="61.5" cy="437.3906" fill="#000000" rx="2.5" ry="2.5" style="stroke:#000000;stroke-width:0;"/><text fill="#000000" font-family="sans-serif" font-size="13" lengthAdjust="spacing" textLength="95.1133" x="68" y="441.8247">Crear mensaje</text></g><!--link envioFiltros to revisionFiltrosEnviados--><g id="link_envioFiltros_revisionFiltrosEnviados"><path d="M44.09,517.5769 C44.34,570.0069 45,711.2969 45,711.2969 C45,711.2969 137.875,730.5284 169.505,737.0884 " fill="none" id="envioFiltros-to-revisionFiltrosEnviados" style="stroke:#008000;stroke-width:1;"/><polygon fill="#008000" points="175.38,738.3069,167.3798,732.5625,170.4842,737.2915,165.7552,740.3958,175.38,738.3069" style="stroke:#008000;stroke-width:1;"/><path d="M50,545.2969 L50,706.2969 L307,706.2969 L307,555.2969 L297,545.2969 L50,545.2969 " fill="#F5F5F5" style="stroke:#008000;stroke-width:0.5;"/><path d="M297,545.2969 L297,555.2969 L307,555.2969 L297,545.2969 " fill="#F5F5F5" style="stroke:#008000;stroke-width:0.5;"/><text fill="#000000" font-family="sans-serif" font-size="13" font-weight="bold" lengthAdjust="spacing" textLength="130.9966" x="56" y="562.3638">Usuario introduce</text><ellipse cx="61.5" cy="573.0625" fill="#000000" rx="2.5" ry="2.5" style="stroke:#000000;stroke-width:0;"/><text fill="#000000" font-family="sans-serif" font-size="13" lengthAdjust="spacing" textLength="123.9126" x="68" y="577.4966">Destinatario/Grupo</text><ellipse cx="61.5" cy="588.1953" fill="#000000" rx="2.5" ry="2.5" style="stroke:#000000;stroke-width:0;"/><text fill="#000000" font-family="sans-serif" font-size="13" lengthAdjust="spacing" textLength="45.1953" x="68" y="592.6294">Asunto</text><ellipse cx="61.5" cy="603.3281" fill="#000000" rx="2.5" ry="2.5" style="stroke:#000000;stroke-width:0;"/><text fill="#000000" font-family="sans-serif" font-size="13" lengthAdjust="spacing" textLength="36.4546" x="68" y="607.7622">T&#237;tulo</text><ellipse cx="61.5" cy="618.4609" fill="#000000" rx="2.5" ry="2.5" style="stroke:#000000;stroke-width:0;"/><text fill="#000000" font-family="sans-serif" font-size="13" lengthAdjust="spacing" textLength="130.2412" x="68" y="622.895">Cuerpo del mensaje</text><ellipse cx="61.5" cy="633.5938" fill="#000000" rx="2.5" ry="2.5" style="stroke:#000000;stroke-width:0;"/><text fill="#000000" font-family="sans-serif" font-size="13" font-weight="bold" lengthAdjust="spacing" textLength="80.4883" x="68" y="638.0278">Opcionales</text><text fill="#000000" font-family="sans-serif" font-size="13" lengthAdjust="spacing" textLength="137.6172" x="72.5293" y="653.1606">- Documento adjunto</text><text fill="#000000" font-family="sans-serif" font-size="13" lengthAdjust="spacing" textLength="219.9272" x="72.5293" y="668.2935">- Solicitar confirmaci&#243;n de lectura</text><text fill="#000000" font-family="sans-serif" font-size="13" lengthAdjust="spacing" textLength="99.7153" x="72.5293" y="683.4263">- Solicitar firma</text><text fill="#000000" font-family="sans-serif" font-size="13" lengthAdjust="spacing" textLength="88.3784" x="72.5293" y="698.5591">- Fecha l&#237;mite</text></g><!--link revisionFiltrosEnviados to solicitudFiltros--><g id="link_revisionFiltrosEnviados_solicitudFiltros"><path d="M194.13,738.2069 C223.25,731.5569 312,711.2969 312,711.2969 C312,711.2969 312,253.2969 312,253.2969 C312,253.2969 253.2204,236.1756 216.1604,225.3756 " fill="none" id="revisionFiltrosEnviados-to-solicitudFiltros" style="stroke:#FF0000;stroke-width:1;"/><polygon fill="#FF0000" points="210.4,223.6969,217.9214,230.0552,215.2003,225.0958,220.1597,222.3747,210.4,223.6969" style="stroke:#FF0000;stroke-width:1;"/><path d="M317,477.2969 L317,517.2969 L461,517.2969 L461,487.2969 L451,477.2969 L317,477.2969 " fill="#F5F5F5" style="stroke:#008000;stroke-width:0.5;"/><path d="M451,477.2969 L451,487.2969 L461,487.2969 L451,477.2969 " fill="#F5F5F5" style="stroke:#008000;stroke-width:0.5;"/><text fill="#000000" font-family="sans-serif" font-size="13" font-weight="bold" lengthAdjust="spacing" textLength="123.5762" x="323" y="494.3638">Sistema Muestra</text><text fill="#000000" font-family="sans-serif" font-size="13" lengthAdjust="spacing" textLength="110.3032" x="323" y="509.4966">Mensaje de error</text></g><!--link revisionFiltrosEnviados to *end*CrearMensaje--><g id="link_revisionFiltrosEnviados_*end*CrearMensaje"><path d="M176.34,745.1869 C154.33,752.5169 98,771.2969 98,771.2969 C98,771.2969 98,821.2969 98,821.2969 C98,821.2969 145.9186,836.7183 168.9686,844.1383 " fill="none" id="revisionFiltrosEnviados-to-*end*CrearMensaje" style="stroke:#FF0000;stroke-width:1;"/><polygon fill="#FF0000" points="174.68,845.9769,167.3386,839.4115,169.9205,844.4448,164.8872,847.0266,174.68,845.9769" style="stroke:#FF0000;stroke-width:1;"/><path d="M103,776.2969 L103,816.2969 L247,816.2969 L247,786.2969 L237,776.2969 L103,776.2969 " fill="#F5F5F5" style="stroke:#008000;stroke-width:0.5;"/><path d="M237,776.2969 L237,786.2969 L247,786.2969 L237,776.2969 " fill="#F5F5F5" style="stroke:#008000;stroke-width:0.5;"/><text fill="#000000" font-family="sans-serif" font-size="13" font-weight="bold" lengthAdjust="spacing" textLength="123.5762" x="109" y="793.3638">Sistema Muestra</text><text fill="#000000" font-family="sans-serif" font-size="13" lengthAdjust="spacing" textLength="110.3032" x="109" y="808.4966">Mensaje de error</text></g><!--link revisionFiltrosEnviados to *end*CrearMensaje--><g id="link_revisionFiltrosEnviados_*end*CrearMensaje"><path d="M192.95,745.7369 C210.7,753.4169 252,771.2969 252,771.2969 C252,771.2969 252,821.2969 252,821.2969 C252,821.2969 219.4551,834.8912 200.7151,842.7312 " fill="none" id="revisionFiltrosEnviados-to-*end*CrearMensaje-1" style="stroke:#008000;stroke-width:1;"/><polygon fill="#008000" points="195.18,845.0469,205.0265,845.2635,199.7926,843.1172,201.9389,837.8833,195.18,845.0469" style="stroke:#008000;stroke-width:1;"/><path d="M257,776.2969 L257,816.2969 L440,816.2969 L440,786.2969 L430,776.2969 L257,776.2969 " fill="#F5F5F5" style="stroke:#008000;stroke-width:0.5;"/><path d="M430,776.2969 L430,786.2969 L440,786.2969 L430,776.2969 " fill="#F5F5F5" style="stroke:#008000;stroke-width:0.5;"/><text fill="#000000" font-family="sans-serif" font-size="13" font-weight="bold" lengthAdjust="spacing" textLength="123.5762" x="263" y="793.3638">Sistema Muestra</text><text fill="#000000" font-family="sans-serif" font-size="13" lengthAdjust="spacing" textLength="162.7729" x="263" y="808.4966">Mensaje de confirmaci&#243;n</text></g><!--link startState to CrearMensaje--><g id="link_startState_CrearMensaje"><path d="M238.5,47.32 C238.5,69.66 238.5,103.48 238.5,150.77 " fill="none" id="startState-to-CrearMensaje" style="stroke:#008000;stroke-width:1;"/><polygon fill="#008000" points="238.5,156.77,242.5,147.77,238.5,151.77,234.5,147.77,238.5,156.77" style="stroke:#008000;stroke-width:1;"/><path d="M243.5,82 L243.5,122 L379.5,122 L379.5,92 L369.5,82 L243.5,82 " fill="#F5F5F5" style="stroke:#008000;stroke-width:0.5;"/><path d="M369.5,82 L369.5,92 L379.5,92 L369.5,82 " fill="#F5F5F5" style="stroke:#008000;stroke-width:0.5;"/><text fill="#000000" font-family="sans-serif" font-size="13" font-weight="bold" lengthAdjust="spacing" textLength="115.0005" x="249.5" y="99.0669">Usuario Solicita</text><ellipse cx="255" cy="109.7656" fill="#000000" rx="2.5" ry="2.5" style="stroke:#000000;stroke-width:0;"/><text fill="#000000" font-family="sans-serif" font-size="13" lengthAdjust="spacing" textLength="95.1133" x="261.5" y="114.1997">Crear mensaje</text></g><!--link CrearMensaje to endState--><g id="link_CrearMensaje_endState"><path d="M228.38,871.56 C229.51,896.84 230.2205,911.9508 232.0705,926.0708 " fill="none" id="CrearMensaje-to-endState" style="stroke:#008000;stroke-width:1;"/><polygon fill="#008000" points="232.85,932.02,235.6469,922.5766,232.2005,927.0624,227.7147,923.6159,232.85,932.02" style="stroke:#008000;stroke-width:1;"/></g><!--link CrearMensaje to endState--><g id="link_CrearMensaje_endState"><path d="M249.22,871.56 C248.02,896.84 247.265,911.957 245.305,926.077 " fill="none" id="CrearMensaje-to-endState-1" style="stroke:#FF0000;stroke-width:1;"/><polygon fill="#FF0000" points="244.48,932.02,249.6794,923.6554,245.1675,927.0675,241.7554,922.5555,244.48,932.02" style="stroke:#FF0000;stroke-width:1;"/></g><!--SRC=[xLHBRjim4Dtp50Dd5y381Gm1ZjsqcpH5rQw2B1Xo6ZEcECAGJ604EL9MFO8lLkfNKqfS54M1Rgg58F6zuRnvmw7V6bTBbXKy2O2F5F1SgkqTKtHwHPOOJXut9c1PqHOJOybCZprmnuXkY2BMo1F06eTXLoFKP7VDZtWMOcCq0bPrs856hzZKmP0JmWSP4DARGzb-IW-pzRByS7wr_BoUzJWw_IOgii3vl80Le-HBT5xUet19891hz6oJB835RV7LHyc6e2Hhb0boSNPRjDXf5mjL7vmoGhE14FcURP91p0IvFc7KDpdUYyzfJssolkXEGzGNnWOctnO7iuo1xi7GKPJnmVXaOazubyXI9-9YeJPa51Q5wDZJF5qHXwrRrYktUiTAumDMyhLZdMjhzC4u6HfNpzvph2a3bpwwa2zysR-4QFELLKIkAPq9-zFw0vZINzKgbIWj-b7Yvfd3cbHCKO50wljHgWuVD3CeSjyCLrAP_NUNie555IBBem4jUu9UeDf8iFkNAet6MnvzGcwWYKNZWzMi7GvNzvTrkUdDaSR-iat3mJOkXUYey7-ViZwD3JysE8SHdexCRqt8PKmUytX0XjkXkVpI7Sf_fERwzEQV2FXxgKTj7Kju_W40]--></g></svg>