<svg xmlns="http://www.w3.org/2000/svg" xmlns:xlink="http://www.w3.org/1999/xlink" contentStyleType="text/css" height="671px" preserveAspectRatio="none" style="width:382px;height:671px;background:#FFFFFF;" version="1.1" viewBox="0 0 382 671" width="382px" zoomAndPan="magnify"><defs/><g><rect fill="#F1F1F1" height="40" rx="12.5" ry="12.5" style="stroke:#181818;stroke-width:0.5;" width="107.9863" x="134" y="7"/><text fill="#000000" font-family="sans-serif" font-size="14" lengthAdjust="spacing" textLength="97.9863" x="139" y="31.8467">VER_MENSAJE</text><rect fill="#F1F1F1" height="40" rx="12.5" ry="12.5" style="stroke:#181818;stroke-width:0.5;" width="159.9395" x="91" y="625"/><text fill="#000000" font-family="sans-serif" font-size="14" lengthAdjust="spacing" textLength="149.9395" x="96" y="649.8467">LISTANDO_MENSAJES</text><path d="M19.5,157 L356.5,157 A12.5,12.5 0 0 1 369,169.5 L369,183.2969 L7,183.2969 L7,169.5 A12.5,12.5 0 0 1 19.5,157 " fill="#F1F1F1" style="stroke:#F1F1F1;stroke-width:1;"/><rect fill="none" height="306.2969" rx="12.5" ry="12.5" style="stroke:#181818;stroke-width:0.5;" width="362" x="7" y="157"/><line style="stroke:#181818;stroke-width:0.5;" x1="7" x2="369" y1="183.2969" y2="183.2969"/><text fill="#000000" font-family="sans-serif" font-size="14" lengthAdjust="spacing" textLength="102.1699" x="136.915" y="174.9951">EnviarMensaje</text><rect fill="#F1F1F1" height="40" rx="12.5" ry="12.5" style="stroke:#181818;stroke-width:0.5;" width="50" x="100" y="195.2969"/><text fill="#000000" font-family="sans-serif" font-size="14" lengthAdjust="spacing" textLength="4.4502" x="122.7749" y="220.1436">&#160;</text><g id="elem_revisionFiltrosEnviados"><polygon fill="#F1F1F1" points="125,321.2969,137,333.2969,125,345.2969,113,333.2969,125,321.2969" style="stroke:#181818;stroke-width:0.5;"/></g><ellipse cx="125" cy="442.2969" fill="none" rx="11" ry="11" style="stroke:#222222;stroke-width:1;"/><ellipse cx="125" cy="442.2969" fill="#222222" rx="6" ry="6" style="stroke:#222222;stroke-width:1;"/><!--link solicitudFiltros to revisionFiltrosEnviados--><g id="link_solicitudFiltros_revisionFiltrosEnviados"><path d="M125,235.4569 C125,259.9069 125,295.4069 125,315.1769 " fill="none" id="solicitudFiltros-to-revisionFiltrosEnviados" style="stroke:#008000;stroke-width:1;"/><polygon fill="#008000" points="125,321.1769,129,312.1769,125,316.1769,121,312.1769,125,321.1769" style="stroke:#008000;stroke-width:1;"/><path d="M130,258.2969 L130,298.2969 L272,298.2969 L272,268.2969 L262,258.2969 L130,258.2969 " fill="#F5F5F5" style="stroke:#008000;stroke-width:0.5;"/><path d="M262,258.2969 L262,268.2969 L272,268.2969 L262,258.2969 " fill="#F5F5F5" style="stroke:#008000;stroke-width:0.5;"/><text fill="#000000" font-family="sans-serif" font-size="13" font-weight="bold" lengthAdjust="spacing" textLength="121.2212" x="136" y="275.3638">Sistema Permite</text><text fill="#000000" font-family="sans-serif" font-size="13" lengthAdjust="spacing" textLength="99.0044" x="136" y="290.4966">Enviar Mensaje</text></g><!--link revisionFiltrosEnviados to *end*EnviarMensaje--><g id="link_revisionFiltrosEnviados_*end*EnviarMensaje"><path d="M116.24,336.6669 C90.69,343.5969 18,363.2969 18,363.2969 C18,363.2969 18,413.2969 18,413.2969 C18,413.2969 81.4753,429.9087 108.5453,436.9887 " fill="none" id="revisionFiltrosEnviados-to-*end*EnviarMensaje" style="stroke:#008000;stroke-width:1;"/><polygon fill="#008000" points="114.35,438.5069,106.655,432.3597,109.5127,437.2417,104.6307,440.0994,114.35,438.5069" style="stroke:#008000;stroke-width:1;"/><path d="M23,368.2969 L23,408.2969 L206,408.2969 L206,378.2969 L196,368.2969 L23,368.2969 " fill="#F5F5F5" style="stroke:#008000;stroke-width:0.5;"/><path d="M196,368.2969 L196,378.2969 L206,378.2969 L196,368.2969 " fill="#F5F5F5" style="stroke:#008000;stroke-width:0.5;"/><text fill="#000000" font-family="sans-serif" font-size="13" font-weight="bold" lengthAdjust="spacing" textLength="123.5762" x="29" y="385.3638">Sistema Muestra</text><text fill="#000000" font-family="sans-serif" font-size="13" lengthAdjust="spacing" textLength="162.7729" x="29" y="400.4966">Mensaje de confirmaci&#243;n</text></g><!--link revisionFiltrosEnviados to *end*EnviarMensaje--><g id="link_revisionFiltrosEnviados_*end*EnviarMensaje"><path d="M133.25,337.0769 C154.77,344.3369 211,363.2969 211,363.2969 C211,363.2969 211,413.2969 211,413.2969 C211,413.2969 163.685,428.6986 140.905,436.1186 " fill="none" id="revisionFiltrosEnviados-to-*end*EnviarMensaje-1" style="stroke:#FF0000;stroke-width:1;"/><polygon fill="#FF0000" points="135.2,437.9769,144.9963,438.9928,139.9542,436.4283,142.5186,431.3862,135.2,437.9769" style="stroke:#FF0000;stroke-width:1;"/><path d="M216,368.2969 L216,408.2969 L360,408.2969 L360,378.2969 L350,368.2969 L216,368.2969 " fill="#F5F5F5" style="stroke:#008000;stroke-width:0.5;"/><path d="M350,368.2969 L350,378.2969 L360,378.2969 L350,368.2969 " fill="#F5F5F5" style="stroke:#008000;stroke-width:0.5;"/><text fill="#000000" font-family="sans-serif" font-size="13" font-weight="bold" lengthAdjust="spacing" textLength="123.5762" x="222" y="385.3638">Sistema Muestra</text><text fill="#000000" font-family="sans-serif" font-size="13" lengthAdjust="spacing" textLength="110.3032" x="222" y="400.4966">Mensaje de error</text></g><rect fill="#F1F1F1" height="40" rx="12.5" ry="12.5" style="stroke:#181818;stroke-width:0.5;" width="110.1328" x="204" y="524"/><text fill="#000000" font-family="sans-serif" font-size="14" lengthAdjust="spacing" textLength="100.1328" x="209" y="548.8467">listarMensajes</text><!--link startState to EnviarMensaje--><g id="link_startState_EnviarMensaje"><path d="M188,47.31 C188,70.94 188,107.21 188,150.98 " fill="none" id="startState-to-EnviarMensaje" style="stroke:#008000;stroke-width:1;"/><polygon fill="#008000" points="188,156.98,192,147.98,188,151.98,184,147.98,188,156.98" style="stroke:#008000;stroke-width:1;"/><path d="M193,82 L193,122 L329,122 L329,92 L319,82 L193,82 " fill="#F5F5F5" style="stroke:#008000;stroke-width:0.5;"/><path d="M319,82 L319,92 L329,92 L319,82 " fill="#F5F5F5" style="stroke:#008000;stroke-width:0.5;"/><text fill="#000000" font-family="sans-serif" font-size="13" font-weight="bold" lengthAdjust="spacing" textLength="115.0005" x="199" y="99.0669">Usuario Solicita</text><ellipse cx="204.5" cy="109.7656" fill="#000000" rx="2.5" ry="2.5" style="stroke:#000000;stroke-width:0;"/><text fill="#000000" font-family="sans-serif" font-size="13" lengthAdjust="spacing" textLength="100.4517" x="211" y="114.1997">Enviar mensaje</text></g><!--link EnviarMensaje to listarMensajes--><g id="link_EnviarMensaje_listarMensajes"><path d="M234.57,463.16 C241.94,487.24 246.8437,503.2828 251.3437,517.9828 " fill="none" id="EnviarMensaje-to-listarMensajes" style="stroke:#008000;stroke-width:1;"/><polygon fill="#008000" points="253.1,523.72,254.2904,513.9433,251.6364,518.939,246.6408,516.2851,253.1,523.72" style="stroke:#008000;stroke-width:1;"/></g><!--link listarMensajes to endState--><g id="link_listarMensajes_endState"><path d="M242.03,564.09 C226.45,581.62 207.4655,602.975 191.9055,620.485 " fill="none" id="listarMensajes-to-endState" style="stroke:#008000;stroke-width:1;"/><polygon fill="#008000" points="187.92,624.97,196.8883,620.8995,191.2413,621.2325,190.9083,615.5854,187.92,624.97" style="stroke:#008000;stroke-width:1;"/></g><!--link EnviarMensaje to endState--><g id="link_EnviarMensaje_endState"><path d="M180.22,463.37 C176.98,526.91 173.8963,587.2178 172.2763,618.9078 " fill="none" id="EnviarMensaje-to-endState" style="stroke:#FF0000;stroke-width:1;"/><polygon fill="#FF0000" points="171.97,624.9,176.4243,616.116,172.2253,619.9065,168.4347,615.7075,171.97,624.9" style="stroke:#FF0000;stroke-width:1;"/></g><!--SRC=[hPFHIiCm58RlynI7xMumV85Ic5f1SLEiUZE6PCrnYssJSf9kZB6dyX5yCPEQpdKoyS9UX2RdF-Ty-PEONAgA4ozXom0csk8vp_85wLg92rreWlvwAIscfSxHAKP4UXq22q9KRPOcWNGKAAH2kwaGAbri_8Jj65jAWO1bPJSWq6GaAokrOinORX7SI3PjVhc1tdFoy39E9kde9ka51Ihn7R-zJXz7aykxLfJsca9jYU4mXaIj9ASnAiFVa2d72bfvjDmH0aJp-CdKdAI6L1SoavP7P_EuYGr2CfGXs_K6Nu6nJbNVff2-RrWmh3lrWfQxcmh3QPzGp0u5OQCTtRO12XvzSTRYIXQMj6cSWDw1Wd0bZNCr29fAmWcZA5jgcM4Sio_rSIKFUYAvIVXXNx0mTTl5aiCzKkbkozv1_mKFsnFmItiV_QGPJX5xeEbWzgVcungD9TvftjhixbocrQkaacVourrrCNv7s9_GFu6WUqFK1TXz0W00]--></g></svg>