<svg xmlns="http://www.w3.org/2000/svg" xmlns:xlink="http://www.w3.org/1999/xlink" contentStyleType="text/css" data-diagram-type="STATE" height="1069px" preserveAspectRatio="none" style="width:389px;height:1069px;background:#FFFFFF;" version="1.1" viewBox="0 0 389 1069" width="389px" zoomAndPan="magnify"><defs/><g><rect fill="#F1F1F1" height="40" rx="12.5" ry="12.5" style="stroke:#181818;stroke-width:0.5;" width="159.9395" x="111.53" y="7"/><text fill="#000000" font-family="sans-serif" font-size="14" lengthAdjust="spacing" textLength="149.9395" x="116.53" y="31.8467">LISTANDO_MENSAJES</text><rect fill="#F1F1F1" height="40" rx="12.5" ry="12.5" style="stroke:#181818;stroke-width:0.5;" width="159.9395" x="94.53" y="1023.3"/><text fill="#000000" font-family="sans-serif" font-size="14" lengthAdjust="spacing" textLength="149.9395" x="99.53" y="1048.1467">LISTANDO_MENSAJES</text><path d="M19.5,157 L363.5,157 A12.5,12.5 0 0 1 376,169.5 L376,183.2969 L7,183.2969 L7,169.5 A12.5,12.5 0 0 1 19.5,157 " fill="#F1F1F1" style="stroke:#F1F1F1;stroke-width:1;"/><rect fill="none" height="704.2969" rx="12.5" ry="12.5" style="stroke:#181818;stroke-width:0.5;" width="369" x="7" y="157"/><line style="stroke:#181818;stroke-width:0.5;" x1="7" x2="376" y1="183.2969" y2="183.2969"/><text fill="#000000" font-family="sans-serif" font-size="14" lengthAdjust="spacing" textLength="96.4209" x="143.2896" y="174.9951">CrearMensaje</text><rect fill="#F1F1F1" height="40" rx="12.5" ry="12.5" style="stroke:#181818;stroke-width:0.5;" width="50" x="80" y="195.2969"/><text fill="#000000" font-family="sans-serif" font-size="14" lengthAdjust="spacing" textLength="4.4502" x="102.7749" y="220.1436">&#160;</text><rect fill="#F1F1F1" height="40" rx="12.5" ry="12.5" style="stroke:#181818;stroke-width:0.5;" width="50" x="80" y="472.2969"/><text fill="#000000" font-family="sans-serif" font-size="14" lengthAdjust="spacing" textLength="4.4502" x="102.7749" y="497.1436">&#160;</text><g id="elem_revisionFiltrosEnviados"><polygon fill="#F1F1F1" points="105,719.2969,117,731.2969,105,743.2969,93,731.2969,105,719.2969" style="stroke:#181818;stroke-width:0.5;"/></g><ellipse cx="105" cy="840.2969" fill="none" rx="11" ry="11" style="stroke:#222222;stroke-width:1;"/><ellipse cx="105" cy="840.2969" fill="#222222" rx="6" ry="6" style="stroke:#222222;stroke-width:1;"/><!--link solicitudFiltros to envioFiltros--><g id="link_solicitudFiltros_envioFiltros"><path d="M105,235.6369 C105,286.1269 105,415.5169 105,465.9769 " fill="none" id="solicitudFiltros-to-envioFiltros" style="stroke:#008000;stroke-width:1;"/><polygon fill="#008000" points="105,471.9769,109,462.9769,105,466.9769,101,462.9769,105,471.9769" style="stroke:#008000;stroke-width:1;"/><path d="M110,258.2969 L110,449.2969 L367,449.2969 L367,268.2969 L357,258.2969 L110,258.2969 " fill="#F5F5F5" style="stroke:#008000;stroke-width:0.5;"/><path d="M357,258.2969 L357,268.2969 L367,268.2969 L357,258.2969 " fill="#F5F5F5" style="stroke:#008000;stroke-width:0.5;"/><text fill="#000000" font-family="sans-serif" font-size="13" font-weight="bold" lengthAdjust="spacing" textLength="117.7871" x="116" y="275.3638">Sistema Solicita</text><ellipse cx="121.5" cy="286.0625" fill="#000000" rx="2.5" ry="2.5" style="stroke:#000000;stroke-width:0;"/><text fill="#000000" font-family="sans-serif" font-size="13" lengthAdjust="spacing" textLength="123.9126" x="128" y="290.4966">Destinatario/Grupo</text><ellipse cx="121.5" cy="301.1953" fill="#000000" rx="2.5" ry="2.5" style="stroke:#000000;stroke-width:0;"/><text fill="#000000" font-family="sans-serif" font-size="13" lengthAdjust="spacing" textLength="45.1953" x="128" y="305.6294">Asunto</text><ellipse cx="121.5" cy="316.3281" fill="#000000" rx="2.5" ry="2.5" style="stroke:#000000;stroke-width:0;"/><text fill="#000000" font-family="sans-serif" font-size="13" lengthAdjust="spacing" textLength="36.4546" x="128" y="320.7622">T&#237;tulo</text><ellipse cx="121.5" cy="331.4609" fill="#000000" rx="2.5" ry="2.5" style="stroke:#000000;stroke-width:0;"/><text fill="#000000" font-family="sans-serif" font-size="13" lengthAdjust="spacing" textLength="130.2412" x="128" y="335.895">Cuerpo del mensaje</text><ellipse cx="121.5" cy="346.5938" fill="#000000" rx="2.5" ry="2.5" style="stroke:#000000;stroke-width:0;"/><text fill="#000000" font-family="sans-serif" font-size="13" font-weight="bold" lengthAdjust="spacing" textLength="80.4883" x="128" y="351.0278">Opcionales</text><text fill="#000000" font-family="sans-serif" font-size="13" lengthAdjust="spacing" textLength="137.6172" x="132.5293" y="366.1606">- Documento adjunto</text><text fill="#000000" font-family="sans-serif" font-size="13" lengthAdjust="spacing" textLength="219.9272" x="132.5293" y="381.2935">- Solicitar confirmaci&#243;n de lectura</text><text fill="#000000" font-family="sans-serif" font-size="13" lengthAdjust="spacing" textLength="99.7153" x="132.5293" y="396.4263">- Solicitar firma</text><text fill="#000000" font-family="sans-serif" font-size="13" lengthAdjust="spacing" textLength="88.3784" x="132.5293" y="411.5591">- Fecha l&#237;mite</text><text fill="#000000" font-family="sans-serif" font-size="13" font-weight="bold" lengthAdjust="spacing" textLength="121.2212" x="116" y="426.6919">Sistema Permite</text><ellipse cx="121.5" cy="437.3906" fill="#000000" rx="2.5" ry="2.5" style="stroke:#000000;stroke-width:0;"/><text fill="#000000" font-family="sans-serif" font-size="13" lengthAdjust="spacing" textLength="95.1133" x="128" y="441.8247">Crear mensaje</text></g><!--link envioFiltros to revisionFiltrosEnviados--><g id="link_envioFiltros_revisionFiltrosEnviados"><path d="M105,512.6869 C105,560.1169 105,674.8369 105,712.7369 " fill="none" id="envioFiltros-to-revisionFiltrosEnviados" style="stroke:#008000;stroke-width:1;"/><polygon fill="#008000" points="105,718.7369,109,709.7369,105,713.7369,101,709.7369,105,718.7369" style="stroke:#008000;stroke-width:1;"/><path d="M110,535.2969 L110,696.2969 L367,696.2969 L367,545.2969 L357,535.2969 L110,535.2969 " fill="#F5F5F5" style="stroke:#008000;stroke-width:0.5;"/><path d="M357,535.2969 L357,545.2969 L367,545.2969 L357,535.2969 " fill="#F5F5F5" style="stroke:#008000;stroke-width:0.5;"/><text fill="#000000" font-family="sans-serif" font-size="13" font-weight="bold" lengthAdjust="spacing" textLength="130.9966" x="116" y="552.3638">Usuario introduce</text><ellipse cx="121.5" cy="563.0625" fill="#000000" rx="2.5" ry="2.5" style="stroke:#000000;stroke-width:0;"/><text fill="#000000" font-family="sans-serif" font-size="13" lengthAdjust="spacing" textLength="123.9126" x="128" y="567.4966">Destinatario/Grupo</text><ellipse cx="121.5" cy="578.1953" fill="#000000" rx="2.5" ry="2.5" style="stroke:#000000;stroke-width:0;"/><text fill="#000000" font-family="sans-serif" font-size="13" lengthAdjust="spacing" textLength="45.1953" x="128" y="582.6294">Asunto</text><ellipse cx="121.5" cy="593.3281" fill="#000000" rx="2.5" ry="2.5" style="stroke:#000000;stroke-width:0;"/><text fill="#000000" font-family="sans-serif" font-size="13" lengthAdjust="spacing" textLength="36.4546" x="128" y="597.7622">T&#237;tulo</text><ellipse cx="121.5" cy="608.4609" fill="#000000" rx="2.5" ry="2.5" style="stroke:#000000;stroke-width:0;"/><text fill="#000000" font-family="sans-serif" font-size="13" lengthAdjust="spacing" textLength="130.2412" x="128" y="612.895">Cuerpo del mensaje</text><ellipse cx="121.5" cy="623.5938" fill="#000000" rx="2.5" ry="2.5" style="stroke:#000000;stroke-width:0;"/><text fill="#000000" font-family="sans-serif" font-size="13" font-weight="bold" lengthAdjust="spacing" textLength="80.4883" x="128" y="628.0278">Opcionales</text><text fill="#000000" font-family="sans-serif" font-size="13" lengthAdjust="spacing" textLength="137.6172" x="132.5293" y="643.1606">- Documento adjunto</text><text fill="#000000" font-family="sans-serif" font-size="13" lengthAdjust="spacing" textLength="219.9272" x="132.5293" y="658.2935">- Solicitar confirmaci&#243;n de lectura</text><text fill="#000000" font-family="sans-serif" font-size="13" lengthAdjust="spacing" textLength="99.7153" x="132.5293" y="673.4263">- Solicitar firma</text><text fill="#000000" font-family="sans-serif" font-size="13" lengthAdjust="spacing" textLength="88.3784" x="132.5293" y="688.5591">- Fecha l&#237;mite</text></g><!--link revisionFiltrosEnviados to *end*CrearMensaje--><g id="link_revisionFiltrosEnviados_*end*CrearMensaje"><path d="M96.34,735.1869 C74.33,742.5169 18,761.2969 18,761.2969 C18,761.2969 18,811.2969 18,811.2969 C18,811.2969 65.9186,826.7183 88.9686,834.1383 " fill="none" id="revisionFiltrosEnviados-to-*end*CrearMensaje" style="stroke:#FF0000;stroke-width:1;"/><polygon fill="#FF0000" points="94.68,835.9769,87.3386,829.4115,89.9205,834.4448,84.8872,837.0266,94.68,835.9769" style="stroke:#FF0000;stroke-width:1;"/><path d="M23,766.2969 L23,806.2969 L167,806.2969 L167,776.2969 L157,766.2969 L23,766.2969 " fill="#F5F5F5" style="stroke:#008000;stroke-width:0.5;"/><path d="M157,766.2969 L157,776.2969 L167,776.2969 L157,766.2969 " fill="#F5F5F5" style="stroke:#008000;stroke-width:0.5;"/><text fill="#000000" font-family="sans-serif" font-size="13" font-weight="bold" lengthAdjust="spacing" textLength="123.5762" x="29" y="783.3638">Sistema Muestra</text><text fill="#000000" font-family="sans-serif" font-size="13" lengthAdjust="spacing" textLength="110.3032" x="29" y="798.4966">Mensaje de error</text></g><!--link revisionFiltrosEnviados to *end*CrearMensaje--><g id="link_revisionFiltrosEnviados_*end*CrearMensaje"><path d="M112.95,735.7369 C130.7,743.4169 172,761.2969 172,761.2969 C172,761.2969 172,811.2969 172,811.2969 C172,811.2969 139.4551,824.8912 120.7151,832.7312 " fill="none" id="revisionFiltrosEnviados-to-*end*CrearMensaje-1" style="stroke:#008000;stroke-width:1;"/><polygon fill="#008000" points="115.18,835.0469,125.0265,835.2635,119.7926,833.1172,121.9389,827.8833,115.18,835.0469" style="stroke:#008000;stroke-width:1;"/><path d="M177,766.2969 L177,806.2969 L360,806.2969 L360,776.2969 L350,766.2969 L177,766.2969 " fill="#F5F5F5" style="stroke:#008000;stroke-width:0.5;"/><path d="M350,766.2969 L350,776.2969 L360,776.2969 L350,766.2969 " fill="#F5F5F5" style="stroke:#008000;stroke-width:0.5;"/><text fill="#000000" font-family="sans-serif" font-size="13" font-weight="bold" lengthAdjust="spacing" textLength="123.5762" x="183" y="783.3638">Sistema Muestra</text><text fill="#000000" font-family="sans-serif" font-size="13" lengthAdjust="spacing" textLength="162.7729" x="183" y="798.4966">Mensaje de confirmaci&#243;n</text></g><rect fill="#F1F1F1" height="40" rx="12.5" ry="12.5" style="stroke:#181818;stroke-width:0.5;" width="110.1328" x="207.43" y="922.3"/><text fill="#000000" font-family="sans-serif" font-size="14" lengthAdjust="spacing" textLength="100.1328" x="212.43" y="947.1467">listarMensajes</text><!--link startState to CrearMensaje--><g id="link_startState_CrearMensaje"><path d="M191.5,47.42 C191.5,69.79 191.5,103.59 191.5,150.75 " fill="none" id="startState-to-CrearMensaje" style="stroke:#008000;stroke-width:1;"/><polygon fill="#008000" points="191.5,156.75,195.5,147.75,191.5,151.75,187.5,147.75,191.5,156.75" style="stroke:#008000;stroke-width:1;"/><path d="M196.5,82 L196.5,122 L332.5,122 L332.5,92 L322.5,82 L196.5,82 " fill="#F5F5F5" style="stroke:#008000;stroke-width:0.5;"/><path d="M322.5,82 L322.5,92 L332.5,92 L322.5,82 " fill="#F5F5F5" style="stroke:#008000;stroke-width:0.5;"/><text fill="#000000" font-family="sans-serif" font-size="13" font-weight="bold" lengthAdjust="spacing" textLength="115.0005" x="202.5" y="99.0669">Usuario Solicita</text><ellipse cx="208" cy="109.7656" fill="#000000" rx="2.5" ry="2.5" style="stroke:#000000;stroke-width:0;"/><text fill="#000000" font-family="sans-serif" font-size="13" lengthAdjust="spacing" textLength="95.1133" x="214.5" y="114.1997">Crear mensaje</text></g><!--link CrearMensaje to listarMensajes--><g id="link_CrearMensaje_listarMensajes"><path d="M249.39,861.72 C253.55,886.93 256.0352,902.0297 258.3552,916.1197 " fill="none" id="CrearMensaje-to-listarMensajes" style="stroke:#008000;stroke-width:1;"/><polygon fill="#008000" points="259.33,922.04,261.8146,912.5097,258.5177,917.1064,253.9209,913.8094,259.33,922.04" style="stroke:#008000;stroke-width:1;"/></g><!--link listarMensajes to endState--><g id="link_listarMensajes_endState"><path d="M245.53,962.39 C230.05,979.81 211.2668,1000.9461 195.7068,1018.4461 " fill="none" id="listarMensajes-to-endState" style="stroke:#008000;stroke-width:1;"/><polygon fill="#008000" points="191.72,1022.93,200.6895,1018.862,195.0423,1019.1934,194.711,1013.5463,191.72,1022.93" style="stroke:#008000;stroke-width:1;"/></g><!--link CrearMensaje to endState--><g id="link_CrearMensaje_endState"><path d="M180.27,861.77 C178.03,931.86 176.2608,987.083 175.3108,1016.943 " fill="none" id="CrearMensaje-to-endState" style="stroke:#FF0000;stroke-width:1;"/><polygon fill="#FF0000" points="175.12,1022.94,179.4042,1014.0717,175.279,1017.9425,171.4082,1013.8174,175.12,1022.94" style="stroke:#FF0000;stroke-width:1;"/></g><!--SRC=[xLJDQXin4BxhAGRd5Z1v0MDmRQUqr4vXqrC8HP6ciMAjj8oa11FoI3dr4VnYbVOdrcxga42FzM6nz7qpy-aRZTnMcOeJB-6H0QojnqzSR6_91YFdLbk2auUDybYKTekHCIEo3ormIuYcYx8aaGQ0LWRzhaAehDwb1NjYRACa0fQLtu549qXLNbd3cFFS8yGl-QB-onsCldqfBcVhnSNFrN9TpBukYr7BGoFVPB4iqNWyXJaXfnKQn- -GcIWOh4dwjb4cmEHc-iC5Jif2ORKIolF9sSsqnawRM2ZRu5WPKWB6yfnr4QrIrNR7iVuo4JhLWz2h4q9vdUFjANFQOwscTQaH6UIvqfwigrs0KSP0Sw_iKPJmNhdeUajOHZANaJYPY8rL0gTJrh27TPf375BNh5TsjfOMyVnOyjUMDhOkq7bbk4-sdtscKDaCdBbWVBvnkN_sGUSxyu1KsNY9z4jl3c0iVr69U4IkqVKAfzyO5bQ46EKjS7dNAzNWdMO2OSqlHIKNQl_Rn6gWKVX0_6X0pHwWvoWs7FJ-kOopz3UFlYCbQ61H_-QblSFjQrPPbrDlZZJspJPrDr-P62A3mFzzolhKD_pOu1n6-Ehq-br3iGhHLkhFHFSWf0SolhFq4G7_hdJFoBw4fpy0]--></g></svg>