<svg xmlns="http://www.w3.org/2000/svg" xmlns:xlink="http://www.w3.org/1999/xlink" contentStyleType="text/css" height="275px" preserveAspectRatio="none" style="width:879px;height:275px;background:#FFFFFF;" version="1.1" viewBox="0 0 879 275" width="879px" zoomAndPan="magnify"><defs/><g><!--entity MENU_AULA--><g id="elem_MENU_AULA"><rect fill="#F1F1F1" height="36.2969" rx="2.5" ry="2.5" style="stroke:#181818;stroke-width:0.5;" width="105.8457" x="337.5" y="7"/><text fill="#000000" font-family="sans-serif" font-size="14" lengthAdjust="spacing" textLength="85.8457" x="347.5" y="29.9951">MENU_AULA</text></g><!--entity REGISTRANDO_AULA--><g id="elem_REGISTRANDO_AULA"><rect fill="#F1F1F1" height="36.2969" rx="2.5" ry="2.5" style="stroke:#181818;stroke-width:0.5;" width="166.7676" x="7" y="120"/><text fill="#000000" font-family="sans-serif" font-size="14" lengthAdjust="spacing" textLength="146.7676" x="17" y="142.9951">REGISTRANDO_AULA</text></g><!--entity ACTUALIZANDO_AULA--><g id="elem_ACTUALIZANDO_AULA"><rect fill="#F1F1F1" height="36.2969" rx="2.5" ry="2.5" style="stroke:#181818;stroke-width:0.5;" width="175.2988" x="214" y="120"/><text fill="#000000" font-family="sans-serif" font-size="14" lengthAdjust="spacing" textLength="155.2988" x="224" y="142.9951">ACTUALIZANDO_AULA</text></g><!--entity CONSULTANDO_AULA--><g id="elem_CONSULTANDO_AULA"><rect fill="#F1F1F1" height="36.2969" rx="2.5" ry="2.5" style="stroke:#181818;stroke-width:0.5;" width="172.8037" x="428" y="120"/><text fill="#000000" font-family="sans-serif" font-size="14" lengthAdjust="spacing" textLength="152.8037" x="438" y="142.9951">CONSULTANDO_AULA</text></g><!--entity ELIMINANDO_AULA--><g id="elem_ELIMINANDO_AULA"><rect fill="#F1F1F1" height="36.2969" rx="2.5" ry="2.5" style="stroke:#181818;stroke-width:0.5;" width="153.5059" x="647.5" y="120"/><text fill="#000000" font-family="sans-serif" font-size="14" lengthAdjust="spacing" textLength="133.5059" x="657.5" y="142.9951">ELIMINANDO_AULA</text></g><!--entity MENU_PRINCIPAL--><g id="elem_MENU_PRINCIPAL"><rect fill="#F1F1F1" height="36.2969" rx="2.5" ry="2.5" style="stroke:#181818;stroke-width:0.5;" width="141.1396" x="337" y="233"/><text fill="#000000" font-family="sans-serif" font-size="14" lengthAdjust="spacing" textLength="121.1396" x="347" y="255.9951">MENU_PRINCIPAL</text></g><!--link MENU_AULA to REGISTRANDO_AULA--><g id="link_MENU_AULA_REGISTRANDO_AULA"><path d="M337.31,41.26 C308.43,49.89 272.25,61.29 240.5,73 C201.45,87.41 163.2619,103.9086 133.1619,117.4486 " fill="none" id="MENU_AULA-to-REGISTRANDO_AULA" style="stroke:#181818;stroke-width:1;"/><polygon fill="#181818" points="127.69,119.91,137.5388,119.8658,132.2499,117.8588,134.2568,112.5699,127.69,119.91" style="stroke:#181818;stroke-width:1;"/><text fill="#000000" font-family="sans-serif" font-size="13" lengthAdjust="spacing" textLength="91.3364" x="241.5" y="86.0669">Registrar aula</text></g><!--link REGISTRANDO_AULA to MENU_PRINCIPAL--><g id="link_REGISTRANDO_AULA_MENU_PRINCIPAL"><path d="M89.9,156 C90.38,170.63 93.56,191.18 106.5,203 C139.3,232.97 252.6876,243.5381 330.8876,247.4781 " fill="none" id="REGISTRANDO_AULA-to-MENU_PRINCIPAL" style="stroke:#181818;stroke-width:1;"/><polygon fill="#181818" points="336.88,247.78,328.0927,243.3322,331.8863,247.5284,327.6901,251.3221,336.88,247.78" style="stroke:#181818;stroke-width:1;"/><text fill="#000000" font-family="sans-serif" font-size="13" lengthAdjust="spacing" textLength="175.8618" x="107.5" y="199.0669">Regresar al men&#250; principal</text></g><!--link MENU_AULA to ACTUALIZANDO_AULA--><g id="link_MENU_AULA_ACTUALIZANDO_AULA"><path d="M376.59,43.34 C359.87,64.2 335.7437,94.2992 319.0637,115.0992 " fill="none" id="MENU_AULA-to-ACTUALIZANDO_AULA" style="stroke:#181818;stroke-width:1;"/><polygon fill="#181818" points="315.31,119.78,324.061,115.2612,318.438,115.8793,317.8199,110.2563,315.31,119.78" style="stroke:#181818;stroke-width:1;"/><text fill="#000000" font-family="sans-serif" font-size="13" lengthAdjust="spacing" textLength="96.6177" x="352.5" y="86.0669">Actualizar aula</text></g><!--link ACTUALIZANDO_AULA to MENU_PRINCIPAL--><g id="link_ACTUALIZANDO_AULA_MENU_PRINCIPAL"><path d="M294.72,156.22 C290.48,170.01 287.39,189.25 296.5,203 C306.04,217.39 315.4543,224.9822 331.2943,231.9222 " fill="none" id="ACTUALIZANDO_AULA-to-MENU_PRINCIPAL" style="stroke:#181818;stroke-width:1;"/><polygon fill="#181818" points="336.79,234.33,330.1517,227.0545,332.2103,232.3235,326.9413,234.382,336.79,234.33" style="stroke:#181818;stroke-width:1;"/><text fill="#000000" font-family="sans-serif" font-size="13" lengthAdjust="spacing" textLength="175.8618" x="297.5" y="199.0669">Regresar al men&#250; principal</text></g><!--link MENU_AULA to CONSULTANDO_AULA--><g id="link_MENU_AULA_CONSULTANDO_AULA"><path d="M416.72,43.17 C428.94,51.62 443.42,62.28 455.5,73 C472,87.65 484.9756,101.8356 496.4256,115.2556 " fill="none" id="MENU_AULA-to-CONSULTANDO_AULA" style="stroke:#181818;stroke-width:1;"/><polygon fill="#181818" points="500.32,119.82,497.5214,110.3771,497.0747,116.0163,491.4355,115.5696,500.32,119.82" style="stroke:#181818;stroke-width:1;"/><text fill="#000000" font-family="sans-serif" font-size="13" lengthAdjust="spacing" textLength="94.2183" x="474.5" y="86.0669">Consultar aula</text></g><!--link CONSULTANDO_AULA to MENU_PRINCIPAL--><g id="link_CONSULTANDO_AULA_MENU_PRINCIPAL"><path d="M507.23,156.15 C500.81,169.9 490.47,189.13 477.5,203 C466.6,214.65 457.3938,221.7454 444.5638,229.6754 " fill="none" id="CONSULTANDO_AULA-to-MENU_PRINCIPAL" style="stroke:#181818;stroke-width:1;"/><polygon fill="#181818" points="439.46,232.83,449.2187,231.5007,443.7132,230.2012,445.0126,224.6956,439.46,232.83" style="stroke:#181818;stroke-width:1;"/><text fill="#000000" font-family="sans-serif" font-size="13" lengthAdjust="spacing" textLength="175.8618" x="491.5" y="199.0669">Regresar al men&#250; principal</text></g><!--link MENU_AULA to ELIMINANDO_AULA--><g id="link_MENU_AULA_ELIMINANDO_AULA"><path d="M443.57,36.89 C481.37,45.24 533.14,57.88 577.5,73 C616.89,86.42 654.991,103.4142 684.381,117.3842 " fill="none" id="MENU_AULA-to-ELIMINANDO_AULA" style="stroke:#181818;stroke-width:1;"/><polygon fill="#181818" points="689.8,119.96,683.3888,112.4836,685.2842,117.8135,679.9543,119.7089,689.8,119.96" style="stroke:#181818;stroke-width:1;"/><text fill="#000000" font-family="sans-serif" font-size="13" lengthAdjust="spacing" textLength="85.1792" x="620.5" y="86.0669">Eliminar aula</text></g><!--link ELIMINANDO_AULA to MENU_PRINCIPAL--><g id="link_ELIMINANDO_AULA_MENU_PRINCIPAL"><path d="M716.14,156.06 C707.91,170.93 693.92,191.82 675.5,203 C643.09,222.67 551.9455,235.5074 483.9955,242.8274 " fill="none" id="ELIMINANDO_AULA-to-MENU_PRINCIPAL" style="stroke:#181818;stroke-width:1;"/><polygon fill="#181818" points="478.03,243.47,487.4067,246.483,483.0012,242.9345,486.5498,238.5291,478.03,243.47" style="stroke:#181818;stroke-width:1;"/><text fill="#000000" font-family="sans-serif" font-size="13" lengthAdjust="spacing" textLength="175.8618" x="695.5" y="199.0669">Regresar al men&#250; principal</text></g><!--SRC=[fP6z3i8W54PtdkAwsS4NS30XI0m9nGRRnSMGYeO4iQ5jOdmqLr_Cgga_qCMuyds7So-Cjdfdd0P9IOx5WjFnAG6loqQvlTLmGkYTf5GK6rnmd7mSIhfWgrnYCLz66IPvWJbR3uPaALO5pmSpobdAn63q62AJJ12MOPuWz9eA9fCPXEF05AJUcxhnoeDghK9Huuvzt_g4lAxlZ8M3TjSBLDwuqbJAXifeomx7PTCgQywzDExyQmsVhwF9qTMjRNfdrFXN6VnA1rDh3iRrmZ3_rNS3]--></g></svg>