<svg xmlns="http://www.w3.org/2000/svg" xmlns:xlink="http://www.w3.org/1999/xlink" contentStyleType="text/css" height="275px" preserveAspectRatio="none" style="width:968px;height:275px;background:#FFFFFF;" version="1.1" viewBox="0 0 968 275" width="968px" zoomAndPan="magnify"><defs/><g><!--entity MENU_PROFESOR--><g id="elem_MENU_PROFESOR"><rect fill="#F1F1F1" height="36.2969" rx="2.5" ry="2.5" style="stroke:#181818;stroke-width:0.5;" width="144.3662" x="385.5" y="7"/><text fill="#000000" font-family="sans-serif" font-size="14" lengthAdjust="spacing" textLength="124.3662" x="395.5" y="29.9951">MENU_PROFESOR</text></g><!--entity REGISTRANDO_PROFESOR--><g id="elem_REGISTRANDO_PROFESOR"><rect fill="#F1F1F1" height="36.2969" rx="2.5" ry="2.5" style="stroke:#181818;stroke-width:0.5;" width="205.2881" x="7" y="120"/><text fill="#000000" font-family="sans-serif" font-size="14" lengthAdjust="spacing" textLength="185.2881" x="17" y="142.9951">REGISTRANDO_PROFESOR</text></g><!--entity ACTUALIZANDO_PROFESOR--><g id="elem_ACTUALIZANDO_PROFESOR"><rect fill="#F1F1F1" height="36.2969" rx="2.5" ry="2.5" style="stroke:#181818;stroke-width:0.5;" width="213.8193" x="247.5" y="120"/><text fill="#000000" font-family="sans-serif" font-size="14" lengthAdjust="spacing" textLength="193.8193" x="257.5" y="142.9951">ACTUALIZANDO_PROFESOR</text></g><!--entity CONSULTANDO_PROFESOR--><g id="elem_CONSULTANDO_PROFESOR"><rect fill="#F1F1F1" height="36.2969" rx="2.5" ry="2.5" style="stroke:#181818;stroke-width:0.5;" width="211.3242" x="497" y="120"/><text fill="#000000" font-family="sans-serif" font-size="14" lengthAdjust="spacing" textLength="191.3242" x="507" y="142.9951">CONSULTANDO_PROFESOR</text></g><!--entity ELIMINANDO_PROFESOR--><g id="elem_ELIMINANDO_PROFESOR"><rect fill="#F1F1F1" height="36.2969" rx="2.5" ry="2.5" style="stroke:#181818;stroke-width:0.5;" width="192.0264" x="743.5" y="120"/><text fill="#000000" font-family="sans-serif" font-size="14" lengthAdjust="spacing" textLength="172.0264" x="753.5" y="142.9951">ELIMINANDO_PROFESOR</text></g><!--entity MENU_PRINCIPAL--><g id="elem_MENU_PRINCIPAL"><rect fill="#F1F1F1" height="36.2969" rx="2.5" ry="2.5" style="stroke:#181818;stroke-width:0.5;" width="141.1396" x="408" y="233"/><text fill="#000000" font-family="sans-serif" font-size="14" lengthAdjust="spacing" textLength="121.1396" x="418" y="255.9951">MENU_PRINCIPAL</text></g><!--link MENU_PROFESOR to REGISTRANDO_PROFESOR--><g id="link_MENU_PROFESOR_REGISTRANDO_PROFESOR"><path d="M385.3,42.12 C350.86,50.37 309.25,61.17 272.5,73 C229.53,86.84 187.0894,103.8306 154.3794,117.6106 " fill="none" id="MENU_PROFESOR-to-REGISTRANDO_PROFESOR" style="stroke:#181818;stroke-width:1;"/><polygon fill="#181818" points="148.85,119.94,158.697,120.1321,153.4578,117.9988,155.5911,112.7597,148.85,119.94" style="stroke:#181818;stroke-width:1;"/><text fill="#000000" font-family="sans-serif" font-size="13" lengthAdjust="spacing" textLength="117.749" x="273.5" y="86.0669">Registrar profesor</text></g><!--link REGISTRANDO_PROFESOR to MENU_PRINCIPAL--><g id="link_REGISTRANDO_PROFESOR_MENU_PRINCIPAL"><path d="M123.1,156.15 C135.96,171.08 156.65,192.01 179.5,203 C252.07,237.9 338.9143,247.6338 401.7443,250.0038 " fill="none" id="REGISTRANDO_PROFESOR-to-MENU_PRINCIPAL" style="stroke:#181818;stroke-width:1;"/><polygon fill="#181818" points="407.74,250.23,398.8972,245.8936,402.7436,250.0415,398.5956,253.8879,407.74,250.23" style="stroke:#181818;stroke-width:1;"/><text fill="#000000" font-family="sans-serif" font-size="13" lengthAdjust="spacing" textLength="175.8618" x="180.5" y="199.0669">Regresar al men&#250; principal</text></g><!--link MENU_PROFESOR to ACTUALIZANDO_PROFESOR--><g id="link_MENU_PROFESOR_ACTUALIZANDO_PROFESOR"><path d="M441.17,43.38 C432.87,52.23 422.63,63.17 413.5,73 C398.79,88.83 386.1727,102.5348 374.3027,115.4348 " fill="none" id="MENU_PROFESOR-to-ACTUALIZANDO_PROFESOR" style="stroke:#181818;stroke-width:1;"/><polygon fill="#181818" points="370.24,119.85,379.2776,115.9356,373.6256,116.1706,373.3906,110.5187,370.24,119.85" style="stroke:#181818;stroke-width:1;"/><text fill="#000000" font-family="sans-serif" font-size="13" lengthAdjust="spacing" textLength="123.0303" x="414.5" y="86.0669">Actualizar profesor</text></g><!--link ACTUALIZANDO_PROFESOR to MENU_PRINCIPAL--><g id="link_ACTUALIZANDO_PROFESOR_MENU_PRINCIPAL"><path d="M355.99,156.11 C358.05,170.2 362.93,189.93 374.5,203 C386.19,216.2 396.8242,223.5024 412.8942,230.5424 " fill="none" id="ACTUALIZANDO_PROFESOR-to-MENU_PRINCIPAL" style="stroke:#181818;stroke-width:1;"/><polygon fill="#181818" points="418.39,232.95,411.7514,225.6748,413.8102,230.9437,408.5413,233.0024,418.39,232.95" style="stroke:#181818;stroke-width:1;"/><text fill="#000000" font-family="sans-serif" font-size="13" lengthAdjust="spacing" textLength="175.8618" x="375.5" y="199.0669">Regresar al men&#250; principal</text></g><!--link MENU_PROFESOR to CONSULTANDO_PROFESOR--><g id="link_MENU_PROFESOR_CONSULTANDO_PROFESOR"><path d="M494.2,43.09 C509.79,51.14 527.73,61.5 542.5,73 C560.29,86.84 573.7301,101.4513 585.1401,115.2113 " fill="none" id="MENU_PROFESOR-to-CONSULTANDO_PROFESOR" style="stroke:#181818;stroke-width:1;"/><polygon fill="#181818" points="588.97,119.83,586.3043,110.3488,585.7784,115.9811,580.1461,115.4552,588.97,119.83" style="stroke:#181818;stroke-width:1;"/><text fill="#000000" font-family="sans-serif" font-size="13" lengthAdjust="spacing" textLength="120.6309" x="562.5" y="86.0669">Consultar profesor</text></g><!--link CONSULTANDO_PROFESOR to MENU_PRINCIPAL--><g id="link_CONSULTANDO_PROFESOR_MENU_PRINCIPAL"><path d="M592.49,156.19 C583.89,169.97 570.53,189.2 555.5,203 C542.81,214.65 532.036,222.0223 517.906,229.9923 " fill="none" id="CONSULTANDO_PROFESOR-to-MENU_PRINCIPAL" style="stroke:#181818;stroke-width:1;"/><polygon fill="#181818" points="512.68,232.94,522.4841,232.0024,517.035,230.4836,518.5538,225.0344,512.68,232.94" style="stroke:#181818;stroke-width:1;"/><text fill="#000000" font-family="sans-serif" font-size="13" lengthAdjust="spacing" textLength="175.8618" x="571.5" y="199.0669">Regresar al men&#250; principal</text></g><!--link MENU_PROFESOR to ELIMINANDO_PROFESOR--><g id="link_MENU_PROFESOR_ELIMINANDO_PROFESOR"><path d="M529.65,36.47 C576.42,44.23 638.31,56.36 691.5,73 C731.84,85.62 770.6895,103.0058 800.1895,117.2858 " fill="none" id="MENU_PROFESOR-to-ELIMINANDO_PROFESOR" style="stroke:#181818;stroke-width:1;"/><polygon fill="#181818" points="805.59,119.9,799.232,112.3783,801.0896,117.7215,795.7464,119.579,805.59,119.9" style="stroke:#181818;stroke-width:1;"/><text fill="#000000" font-family="sans-serif" font-size="13" lengthAdjust="spacing" textLength="111.5918" x="738.5" y="86.0669">Eliminar profesor</text></g><!--link ELIMINANDO_PROFESOR to MENU_PRINCIPAL--><g id="link_ELIMINANDO_PROFESOR_MENU_PRINCIPAL"><path d="M822.46,156.03 C806.54,170.88 781.4,191.76 755.5,203 C689.17,231.8 612.7531,242.5504 555.1331,246.8804 " fill="none" id="ELIMINANDO_PROFESOR-to-MENU_PRINCIPAL" style="stroke:#181818;stroke-width:1;"/><polygon fill="#181818" points="549.15,247.33,558.4244,250.6443,554.1359,246.9553,557.825,242.6668,549.15,247.33" style="stroke:#181818;stroke-width:1;"/><text fill="#000000" font-family="sans-serif" font-size="13" lengthAdjust="spacing" textLength="175.8618" x="784.5" y="199.0669">Regresar al men&#250; principal</text></g><!--SRC=[hP6n2i8m48RtFCMvsS4NS112Z1A8gQJjuYAXHWd4LD8AugEv-c965Anm7GJd_xl_Fkv6ExjtmOBchAHgAVduaa6qTMV2mLku4F99LbnLsxNE5xp8TTOBD5-AejHKpNCqfwoig1IRGO3bggXaEPXpALP23SPlCQ6OM5EP4V9b2fF93315c8As1zTsqKGunMPlsoOIb7nMV6zv3KVRfbdZuMZ3_PPANAZToNXC0Rr2gg5rTpRUNViIEFiF2-pKgOKreJtxhk-0alzGGBwPIhXtHnVw0XZtw_u7]--></g></svg>