<svg xmlns="http://www.w3.org/2000/svg" xmlns:xlink="http://www.w3.org/1999/xlink" contentStyleType="text/css" height="407px" preserveAspectRatio="none" style="width:1143px;height:407px;background:#FFFFFF;" version="1.1" viewBox="0 0 1143 407" width="1143px" zoomAndPan="magnify"><defs/><g><!--entity MENU_CASOSADICIONALES--><g id="elem_MENU_CASOSADICIONALES"><rect fill="#F1F1F1" height="36.2969" rx="2.5" ry="2.5" style="stroke:#181818;stroke-width:0.5;" width="211.7822" x="354" y="7"/><text fill="#000000" font-family="sans-serif" font-size="14" lengthAdjust="spacing" textLength="191.7822" x="364" y="29.9951">MENU_CASOSADICIONALES</text></g><!--entity ASIGNANDO_PROFESOR--><g id="elem_ASIGNANDO_PROFESOR"><rect fill="#F1F1F1" height="36.2969" rx="2.5" ry="2.5" style="stroke:#181818;stroke-width:0.5;" width="188.4854" x="7" y="186"/><text fill="#000000" font-family="sans-serif" font-size="14" lengthAdjust="spacing" textLength="168.4854" x="17" y="208.9951">ASIGNANDO_PROFESOR</text></g><!--entity CONSULTANDO_HORARIO_PROFESOR--><g id="elem_CONSULTANDO_HORARIO_PROFESOR"><rect fill="#F1F1F1" height="36.2969" rx="2.5" ry="2.5" style="stroke:#181818;stroke-width:0.5;" width="284.0518" x="203" y="186"/><text fill="#000000" font-family="sans-serif" font-size="14" lengthAdjust="spacing" textLength="264.0518" x="213" y="208.9951">CONSULTANDO_HORARIO_PROFESOR</text></g><!--entity EDITANDO_ASIGNACION--><g id="elem_EDITANDO_ASIGNACION"><rect fill="#F1F1F1" height="36.2969" rx="2.5" ry="2.5" style="stroke:#181818;stroke-width:0.5;" width="190.0439" x="548" y="252"/><text fill="#000000" font-family="sans-serif" font-size="14" lengthAdjust="spacing" textLength="170.0439" x="558" y="274.9951">EDITANDO_ASIGNACION</text></g><!--entity ELIGIENDO_GRADO--><g id="elem_ELIGIENDO_GRADO"><rect fill="#F1F1F1" height="36.2969" rx="2.5" ry="2.5" style="stroke:#181818;stroke-width:0.5;" width="155.8232" x="814" y="120"/><text fill="#000000" font-family="sans-serif" font-size="14" lengthAdjust="spacing" textLength="135.8232" x="824" y="142.9951">ELIGIENDO_GRADO</text></g><!--entity REGISTRANDO_HORARIOASIGNATURAAULA--><g id="elem_REGISTRANDO_HORARIOASIGNATURAAULA"><rect fill="#F1F1F1" height="36.2969" rx="2.5" ry="2.5" style="stroke:#181818;stroke-width:0.5;" width="324.0898" x="773" y="252"/><text fill="#000000" font-family="sans-serif" font-size="14" lengthAdjust="spacing" textLength="304.0898" x="783" y="274.9951">REGISTRANDO_HORARIOASIGNATURAAULA</text></g><!--entity MENU_PRINCIPAL--><g id="elem_MENU_PRINCIPAL"><rect fill="#F1F1F1" height="36.2969" rx="2.5" ry="2.5" style="stroke:#181818;stroke-width:0.5;" width="141.1396" x="294.5" y="365"/><text fill="#000000" font-family="sans-serif" font-size="14" lengthAdjust="spacing" textLength="121.1396" x="304.5" y="387.9951">MENU_PRINCIPAL</text></g><!--link MENU_CASOSADICIONALES to ASIGNANDO_PROFESOR--><g id="link_MENU_CASOSADICIONALES_ASIGNANDO_PROFESOR"><path d="M353.89,36.8 C316.38,43.63 274.88,54.79 240,73 C185.23,101.6 140.0411,153.0812 117.6411,181.2912 " fill="none" id="MENU_CASOSADICIONALES-to-ASIGNANDO_PROFESOR" style="stroke:#181818;stroke-width:1;"/><polygon fill="#181818" points="113.91,185.99,122.6392,181.4291,117.0192,182.0743,116.3741,176.4544,113.91,185.99" style="stroke:#181818;stroke-width:1;"/><text fill="#000000" font-family="sans-serif" font-size="13" lengthAdjust="spacing" textLength="107.4087" x="241" y="86.0669">Asignar profesor</text></g><!--link ASIGNANDO_PROFESOR to MENU_PRINCIPAL--><g id="link_ASIGNANDO_PROFESOR_MENU_PRINCIPAL"><path d="M111.06,222.2 C122.47,240.47 142.54,269.27 166,288 C210.34,323.41 264.5661,347.3062 307.0161,362.8562 " fill="none" id="ASIGNANDO_PROFESOR-to-MENU_PRINCIPAL" style="stroke:#181818;stroke-width:1;"/><polygon fill="#181818" points="312.65,364.92,305.575,358.0684,307.9551,363.2002,302.8233,365.5803,312.65,364.92" style="stroke:#181818;stroke-width:1;"/><text fill="#000000" font-family="sans-serif" font-size="13" lengthAdjust="spacing" textLength="175.8618" x="167" y="274.5669">Regresar al men&#250; principal</text></g><!--link MENU_CASOSADICIONALES to CONSULTANDO_HORARIO_PROFESOR--><g id="link_MENU_CASOSADICIONALES_CONSULTANDO_HORARIO_PROFESOR"><path d="M404.46,43.2 C389.91,50.25 375.61,59.91 366,73 C341.09,106.9 340.6927,153.2467 342.6927,179.9967 " fill="none" id="MENU_CASOSADICIONALES-to-CONSULTANDO_HORARIO_PROFESOR" style="stroke:#181818;stroke-width:1;"/><polygon fill="#181818" points="343.14,185.98,346.4578,176.7068,342.7672,180.9939,338.4801,177.3033,343.14,185.98" style="stroke:#181818;stroke-width:1;"/><text fill="#000000" font-family="sans-serif" font-size="13" lengthAdjust="spacing" textLength="195.1714" x="367" y="86.0669">Consultar horario del profesor</text></g><!--link CONSULTANDO_HORARIO_PROFESOR to MENU_PRINCIPAL--><g id="link_CONSULTANDO_HORARIO_PROFESOR_MENU_PRINCIPAL"><path d="M346.82,222.17 C348.61,238.96 351.43,265.24 354,288 C357.02,314.78 359.9692,339.8622 362.2192,358.7222 " fill="none" id="CONSULTANDO_HORARIO_PROFESOR-to-MENU_PRINCIPAL" style="stroke:#181818;stroke-width:1;"/><polygon fill="#181818" points="362.93,364.68,365.8357,355.2695,362.3377,359.7152,357.892,356.2172,362.93,364.68" style="stroke:#181818;stroke-width:1;"/><text fill="#000000" font-family="sans-serif" font-size="13" lengthAdjust="spacing" textLength="175.8618" x="355" y="274.5669">Regresar al men&#250; principal</text></g><!--link MENU_CASOSADICIONALES to EDITANDO_ASIGNACION--><g id="link_MENU_CASOSADICIONALES_EDITANDO_ASIGNACION"><path d="M520.7,43.02 C537.4,50.08 554.37,59.81 567,73 C617.21,125.47 634.3926,208.866 639.9526,246.046 " fill="none" id="MENU_CASOSADICIONALES-to-EDITANDO_ASIGNACION" style="stroke:#181818;stroke-width:1;"/><polygon fill="#181818" points="640.84,251.98,643.4649,242.4874,640.1005,247.035,635.5529,243.6706,640.84,251.98" style="stroke:#181818;stroke-width:1;"/><text fill="#000000" font-family="sans-serif" font-size="13" lengthAdjust="spacing" textLength="112.3789" x="616" y="142.5669">Editar asignaci&#243;n</text></g><!--link EDITANDO_ASIGNACION to MENU_PRINCIPAL--><g id="link_EDITANDO_ASIGNACION_MENU_PRINCIPAL"><path d="M600.17,288.1 C547.93,308.96 465.7121,341.7848 413.4521,362.6548 " fill="none" id="EDITANDO_ASIGNACION-to-MENU_PRINCIPAL" style="stroke:#181818;stroke-width:1;"/><polygon fill="#181818" points="407.88,364.88,417.7216,365.2569,412.5234,363.0257,414.7547,357.8274,407.88,364.88" style="stroke:#181818;stroke-width:1;"/><text fill="#000000" font-family="sans-serif" font-size="13" lengthAdjust="spacing" textLength="175.8618" x="521" y="331.0669">Regresar al men&#250; principal</text></g><!--link MENU_CASOSADICIONALES to ELIGIENDO_GRADO--><g id="link_MENU_CASOSADICIONALES_ELIGIENDO_GRADO"><path d="M526.55,43.1 C607.85,63.99 738.7388,97.6168 819.9188,118.4768 " fill="none" id="MENU_CASOSADICIONALES-to-ELIGIENDO_GRADO" style="stroke:#181818;stroke-width:1;"/><polygon fill="#181818" points="825.73,119.97,818.0087,113.856,820.8873,118.7256,816.0177,121.6043,825.73,119.97" style="stroke:#181818;stroke-width:1;"/><text fill="#000000" font-family="sans-serif" font-size="13" lengthAdjust="spacing" textLength="78.9331" x="702" y="86.0669">Elegir grado</text></g><!--link ELIGIENDO_GRADO to REGISTRANDO_HORARIOASIGNATURAAULA--><g id="link_ELIGIENDO_GRADO_REGISTRANDO_HORARIOASIGNATURAAULA"><path d="M897.71,156.26 C905.93,181.13 919.1457,221.0636 927.3857,245.9736 " fill="none" id="ELIGIENDO_GRADO-to-REGISTRANDO_HORARIOASIGNATURAAULA" style="stroke:#181818;stroke-width:1;"/><polygon fill="#181818" points="929.27,251.67,930.2411,241.8691,927.6997,246.923,922.6459,244.3816,929.27,251.67" style="stroke:#181818;stroke-width:1;"/><text fill="#000000" font-family="sans-serif" font-size="13" lengthAdjust="spacing" textLength="216.5884" x="919" y="208.5669">Registrar horario-asignatura-aula</text></g><!--link REGISTRANDO_HORARIOASIGNATURAAULA to MENU_PRINCIPAL--><g id="link_REGISTRANDO_HORARIOASIGNATURAAULA_MENU_PRINCIPAL"><path d="M881.59,288.06 C835.29,302.31 766.28,322.3 705,335 C612.81,354.11 510.8652,366.8843 441.7652,374.3643 " fill="none" id="REGISTRANDO_HORARIOASIGNATURAAULA-to-MENU_PRINCIPAL" style="stroke:#181818;stroke-width:1;"/><polygon fill="#181818" points="435.8,375.01,445.1782,378.0182,440.771,374.4719,444.3172,370.0646,435.8,375.01" style="stroke:#181818;stroke-width:1;"/><text fill="#000000" font-family="sans-serif" font-size="13" lengthAdjust="spacing" textLength="175.8618" x="776" y="331.0669">Regresar al men&#250; principal</text></g><!--SRC=[hLAzReCm4Dxz5EvM1bwWGwKJkDGIjP4DSsI1Gosv9Z8WvRswTSsB5S80f8YeKkRlvxxlxfugVJHEOq6Y75YIakTpWBqkE-Lgg_4PeHdv8AmuH22vX9X6b3D8YGmM190qOS1YViW4VoEIYoKQSIQBDB_Yxro0eDiy4jE9DDcDWrPmIXDAHZmH4FCb94X2PIwM4oQFl100HGh1RPjCK1RH3D80eSrwE0nVyTzU-0L3QsgdF3xvvgZRngCDrYXUpnc4GjTUjuDIMVobtULdi32kD2TbzqBihMzmZHhNzhORR3yRhxnfSANj76vN_SYO6zSRp4XbncZgkhFINBuTsY8-DCZwJyOGLjV6uzghga6ty2Yv-pzJ6jDsVjvpE9NgUgz2rLk5xhlyj-Ol]--></g></svg>