<svg xmlns="http://www.w3.org/2000/svg" xmlns:xlink="http://www.w3.org/1999/xlink" contentStyleType="text/css" height="275px" preserveAspectRatio="none" style="width:1515px;height:275px;background:#FFFFFF;" version="1.1" viewBox="0 0 1515 275" width="1515px" zoomAndPan="magnify"><defs/><g><!--entity MENU_ASIGNATURAGRADOPROFESOR--><g id="elem_MENU_ASIGNATURAGRADOPROFESOR"><rect fill="#F1F1F1" height="36.2969" rx="2.5" ry="2.5" style="stroke:#181818;stroke-width:0.5;" width="287.9141" x="592.5" y="7"/><text fill="#000000" font-family="sans-serif" font-size="14" lengthAdjust="spacing" textLength="267.9141" x="602.5" y="29.9951">MENU_ASIGNATURAGRADOPROFESOR</text></g><!--entity REGISTRANDO_ASIGNATURAGRADOPROFESOR--><g id="elem_REGISTRANDO_ASIGNATURAGRADOPROFESOR"><rect fill="#F1F1F1" height="36.2969" rx="2.5" ry="2.5" style="stroke:#181818;stroke-width:0.5;" width="348.8359" x="7" y="120"/><text fill="#000000" font-family="sans-serif" font-size="14" lengthAdjust="spacing" textLength="328.8359" x="17" y="142.9951">REGISTRANDO_ASIGNATURAGRADOPROFESOR</text></g><!--entity ACTUALIZANDO_ASIGNATURAGRADOPROFESOR--><g id="elem_ACTUALIZANDO_ASIGNATURAGRADOPROFESOR"><rect fill="#F1F1F1" height="36.2969" rx="2.5" ry="2.5" style="stroke:#181818;stroke-width:0.5;" width="357.3672" x="391" y="120"/><text fill="#000000" font-family="sans-serif" font-size="14" lengthAdjust="spacing" textLength="337.3672" x="401" y="142.9951">ACTUALIZANDO_ASIGNATURAGRADOPROFESOR</text></g><!--entity CONSULTANDO_ASIGNATURAGRADOPROFESOR--><g id="elem_CONSULTANDO_ASIGNATURAGRADOPROFESOR"><rect fill="#F1F1F1" height="36.2969" rx="2.5" ry="2.5" style="stroke:#181818;stroke-width:0.5;" width="354.8721" x="783" y="120"/><text fill="#000000" font-family="sans-serif" font-size="14" lengthAdjust="spacing" textLength="334.8721" x="793" y="142.9951">CONSULTANDO_ASIGNATURAGRADOPROFESOR</text></g><!--entity ELIMINANDO_ASIGNATURAGRADOPROFESOR--><g id="elem_ELIMINANDO_ASIGNATURAGRADOPROFESOR"><rect fill="#F1F1F1" height="36.2969" rx="2.5" ry="2.5" style="stroke:#181818;stroke-width:0.5;" width="335.5742" x="1173.5" y="120"/><text fill="#000000" font-family="sans-serif" font-size="14" lengthAdjust="spacing" textLength="315.5742" x="1183.5" y="142.9951">ELIMINANDO_ASIGNATURAGRADOPROFESOR</text></g><!--entity MENU_PRINCIPAL--><g id="elem_MENU_PRINCIPAL"><rect fill="#F1F1F1" height="36.2969" rx="2.5" ry="2.5" style="stroke:#181818;stroke-width:0.5;" width="141.1396" x="694" y="233"/><text fill="#000000" font-family="sans-serif" font-size="14" lengthAdjust="spacing" textLength="121.1396" x="704" y="255.9951">MENU_PRINCIPAL</text></g><!--link MENU_ASIGNATURAGRADOPROFESOR to REGISTRANDO_ASIGNATURAGRADOPROFESOR--><g id="link_MENU_ASIGNATURAGRADOPROFESOR_REGISTRANDO_ASIGNATURAGRADOPROFESOR"><path d="M592.1,39.34 C527.51,46.8 450.72,57.74 382.5,73 C328.18,85.15 273.1475,103.4137 232.8175,117.8837 " fill="none" id="MENU_ASIGNATURAGRADOPROFESOR-to-REGISTRANDO_ASIGNATURAGRADOPROFESOR" style="stroke:#181818;stroke-width:1;"/><polygon fill="#181818" points="227.17,119.91,236.9921,120.6356,231.8762,118.2214,234.2904,113.1056,227.17,119.91" style="stroke:#181818;stroke-width:1;"/><text fill="#000000" font-family="sans-serif" font-size="13" lengthAdjust="spacing" textLength="234.3555" x="383.5" y="86.0669">Registrar asignatura-grado-profesor</text></g><!--link REGISTRANDO_ASIGNATURAGRADOPROFESOR to MENU_PRINCIPAL--><g id="link_REGISTRANDO_ASIGNATURAGRADOPROFESOR_MENU_PRINCIPAL"><path d="M252.81,156.03 C311.16,169.67 395.91,188.79 470.5,203 C546.54,217.48 628.2843,230.2338 687.9643,239.0438 " fill="none" id="REGISTRANDO_ASIGNATURAGRADOPROFESOR-to-MENU_PRINCIPAL" style="stroke:#181818;stroke-width:1;"/><polygon fill="#181818" points="693.9,239.92,685.5806,234.6485,688.9536,239.1898,684.4123,242.5628,693.9,239.92" style="stroke:#181818;stroke-width:1;"/><text fill="#000000" font-family="sans-serif" font-size="13" lengthAdjust="spacing" textLength="175.8618" x="471.5" y="199.0669">Regresar al men&#250; principal</text></g><!--link MENU_ASIGNATURAGRADOPROFESOR to ACTUALIZANDO_ASIGNATURAGRADOPROFESOR--><g id="link_MENU_ASIGNATURAGRADOPROFESOR_ACTUALIZANDO_ASIGNATURAGRADOPROFESOR"><path d="M700.93,43.05 C684.54,51.39 665.1,61.99 648.5,73 C626.88,87.34 608.561,102.3754 593.031,115.9254 " fill="none" id="MENU_ASIGNATURAGRADOPROFESOR-to-ACTUALIZANDO_ASIGNATURAGRADOPROFESOR" style="stroke:#181818;stroke-width:1;"/><polygon fill="#181818" points="588.51,119.87,597.9213,116.9671,592.2775,116.5828,592.6618,110.939,588.51,119.87" style="stroke:#181818;stroke-width:1;"/><text fill="#000000" font-family="sans-serif" font-size="13" lengthAdjust="spacing" textLength="239.6367" x="649.5" y="86.0669">Actualizar asignatura-grado-profesor</text></g><!--link ACTUALIZANDO_ASIGNATURAGRADOPROFESOR to MENU_PRINCIPAL--><g id="link_ACTUALIZANDO_ASIGNATURAGRADOPROFESOR_MENU_PRINCIPAL"><path d="M599.54,156.1 C636.19,176.96 692.5457,209.0416 729.2057,229.9116 " fill="none" id="ACTUALIZANDO_ASIGNATURAGRADOPROFESOR-to-MENU_PRINCIPAL" style="stroke:#181818;stroke-width:1;"/><polygon fill="#181818" points="734.42,232.88,728.5775,224.9512,730.0748,230.4063,724.6197,231.9036,734.42,232.88" style="stroke:#181818;stroke-width:1;"/><text fill="#000000" font-family="sans-serif" font-size="13" lengthAdjust="spacing" textLength="175.8618" x="680.5" y="199.0669">Regresar al men&#250; principal</text></g><!--link MENU_ASIGNATURAGRADOPROFESOR to CONSULTANDO_ASIGNATURAGRADOPROFESOR--><g id="link_MENU_ASIGNATURAGRADOPROFESOR_CONSULTANDO_ASIGNATURAGRADOPROFESOR"><path d="M819.79,43.07 C844.52,50.18 870.99,59.91 893.5,73 C914.64,85.29 930.3633,101.0134 942.8533,115.4434 " fill="none" id="MENU_ASIGNATURAGRADOPROFESOR-to-CONSULTANDO_ASIGNATURAGRADOPROFESOR" style="stroke:#181818;stroke-width:1;"/><polygon fill="#181818" points="946.78,119.98,943.9144,110.5573,943.5077,116.1995,937.8655,115.7929,946.78,119.98" style="stroke:#181818;stroke-width:1;"/><text fill="#000000" font-family="sans-serif" font-size="13" lengthAdjust="spacing" textLength="237.2373" x="917.5" y="86.0669">Consultar asignatura-grado-profesor</text></g><!--link CONSULTANDO_ASIGNATURAGRADOPROFESOR to MENU_PRINCIPAL--><g id="link_CONSULTANDO_ASIGNATURAGRADOPROFESOR_MENU_PRINCIPAL"><path d="M937.06,156.06 C917.99,169.58 890.15,188.53 864.5,203 C845.29,213.84 828.629,221.9623 810.079,230.3323 " fill="none" id="CONSULTANDO_ASIGNATURAGRADOPROFESOR-to-MENU_PRINCIPAL" style="stroke:#181818;stroke-width:1;"/><polygon fill="#181818" points="804.61,232.8,814.4587,232.7445,809.1675,230.7436,811.1684,225.4524,804.61,232.8" style="stroke:#181818;stroke-width:1;"/><text fill="#000000" font-family="sans-serif" font-size="13" lengthAdjust="spacing" textLength="175.8618" x="893.5" y="199.0669">Regresar al men&#250; principal</text></g><!--link MENU_ASIGNATURAGRADOPROFESOR to ELIMINANDO_ASIGNATURAGRADOPROFESOR--><g id="link_MENU_ASIGNATURAGRADOPROFESOR_ELIMINANDO_ASIGNATURAGRADOPROFESOR"><path d="M880.74,33.4 C964.16,39.78 1070.68,51.52 1163.5,73 C1212.61,84.36 1261.2805,102.8047 1296.8205,117.5947 " fill="none" id="MENU_ASIGNATURAGRADOPROFESOR-to-ELIMINANDO_ASIGNATURAGRADOPROFESOR" style="stroke:#181818;stroke-width:1;"/><polygon fill="#181818" points="1302.36,119.9,1295.5876,112.7491,1297.7438,117.979,1292.5139,120.1351,1302.36,119.9" style="stroke:#181818;stroke-width:1;"/><text fill="#000000" font-family="sans-serif" font-size="13" lengthAdjust="spacing" textLength="228.1982" x="1218.5" y="86.0669">Eliminar asignatura-grado-profesor</text></g><!--link ELIMINANDO_ASIGNATURAGRADOPROFESOR to MENU_PRINCIPAL--><g id="link_ELIMINANDO_ASIGNATURAGRADOPROFESOR_MENU_PRINCIPAL"><path d="M1278.1,156.05 C1224.84,169.96 1146.57,189.47 1077.5,203 C994.73,219.21 904.629,232.0994 840.989,240.4494 " fill="none" id="ELIMINANDO_ASIGNATURAGRADOPROFESOR-to-MENU_PRINCIPAL" style="stroke:#181818;stroke-width:1;"/><polygon fill="#181818" points="835.04,241.23,844.4839,244.0252,839.9975,240.5795,843.4432,236.0932,835.04,241.23" style="stroke:#181818;stroke-width:1;"/><text fill="#000000" font-family="sans-serif" font-size="13" lengthAdjust="spacing" textLength="175.8618" x="1150.5" y="199.0669">Regresar al men&#250; principal</text></g><!--SRC=[jPAnRiCW54Ltle9kzU0Vw5094MeX4R0mNhfKo24M4i4MO2dAfsNjZzLfXxQB-pfavkhSUz1xEBYZZmvhHWsHZM2FvmedDnGRn-3m6Q7lbpsJ_HlfU2E9wJLfDDcfLgiNrYbT_SXfrl3EQ29t2X8drFH4y5TedYhPzS90uqpmFPVGzATZgxcal2MYGcXB6jVrCmROuYUitUXpIJPXc_qORLcIhSTa3rCzf-deyfGGX7Hh_Btn2vvSlh43FhduViLpyd7mimq00SZ_hoLaA8iD_hAf06BTmG5m4si7dM9UGjaqW93k8F3tbQuLBFYJZvlp0Pp_hly0]--></g></svg>