<svg xmlns="http://www.w3.org/2000/svg" xmlns:xlink="http://www.w3.org/1999/xlink" contentStyleType="text/css" height="275px" preserveAspectRatio="none" style="width:1011px;height:275px;background:#FFFFFF;" version="1.1" viewBox="0 0 1011 275" width="1011px" zoomAndPan="magnify"><defs/><g><!--entity MENU_ASIGNATURA--><g id="elem_MENU_ASIGNATURA"><rect fill="#F1F1F1" height="36.2969" rx="2.5" ry="2.5" style="stroke:#181818;stroke-width:0.5;" width="160.2393" x="409.5" y="7"/><text fill="#000000" font-family="sans-serif" font-size="14" lengthAdjust="spacing" textLength="140.2393" x="419.5" y="29.9951">MENU_ASIGNATURA</text></g><!--entity REGISTRANDO_ASIGNATURA--><g id="elem_REGISTRANDO_ASIGNATURA"><rect fill="#F1F1F1" height="36.2969" rx="2.5" ry="2.5" style="stroke:#181818;stroke-width:0.5;" width="221.1611" x="7" y="120"/><text fill="#000000" font-family="sans-serif" font-size="14" lengthAdjust="spacing" textLength="201.1611" x="17" y="142.9951">REGISTRANDO_ASIGNATURA</text></g><!--entity ACTUALIZANDO_ASIGNATURA--><g id="elem_ACTUALIZANDO_ASIGNATURA"><rect fill="#F1F1F1" height="36.2969" rx="2.5" ry="2.5" style="stroke:#181818;stroke-width:0.5;" width="229.6924" x="263.5" y="120"/><text fill="#000000" font-family="sans-serif" font-size="14" lengthAdjust="spacing" textLength="209.6924" x="273.5" y="142.9951">ACTUALIZANDO_ASIGNATURA</text></g><!--entity CONSULTANDO_ASIGNATURA--><g id="elem_CONSULTANDO_ASIGNATURA"><rect fill="#F1F1F1" height="36.2969" rx="2.5" ry="2.5" style="stroke:#181818;stroke-width:0.5;" width="227.1973" x="529" y="120"/><text fill="#000000" font-family="sans-serif" font-size="14" lengthAdjust="spacing" textLength="207.1973" x="539" y="142.9951">CONSULTANDO_ASIGNATURA</text></g><!--entity ELIMINANDO_ASIGNATURA--><g id="elem_ELIMINANDO_ASIGNATURA"><rect fill="#F1F1F1" height="36.2969" rx="2.5" ry="2.5" style="stroke:#181818;stroke-width:0.5;" width="207.8994" x="791.5" y="120"/><text fill="#000000" font-family="sans-serif" font-size="14" lengthAdjust="spacing" textLength="187.8994" x="801.5" y="142.9951">ELIMINANDO_ASIGNATURA</text></g><!--entity MENU_PRINCIPAL--><g id="elem_MENU_PRINCIPAL"><rect fill="#F1F1F1" height="36.2969" rx="2.5" ry="2.5" style="stroke:#181818;stroke-width:0.5;" width="141.1396" x="440" y="233"/><text fill="#000000" font-family="sans-serif" font-size="14" lengthAdjust="spacing" textLength="121.1396" x="450" y="255.9951">MENU_PRINCIPAL</text></g><!--link MENU_ASIGNATURA to REGISTRANDO_ASIGNATURA--><g id="link_MENU_ASIGNATURA_REGISTRANDO_ASIGNATURA"><path d="M409.35,41.03 C370.14,49.14 322.46,60.13 280.5,73 C237.05,86.33 194.2753,103.5575 161.6153,117.5475 " fill="none" id="MENU_ASIGNATURA-to-REGISTRANDO_ASIGNATURA" style="stroke:#181818;stroke-width:1;"/><polygon fill="#181818" points="156.1,119.91,165.948,120.0431,160.6961,117.9413,162.798,112.6894,156.1,119.91" style="stroke:#181818;stroke-width:1;"/><text fill="#000000" font-family="sans-serif" font-size="13" lengthAdjust="spacing" textLength="133.0088" x="281.5" y="86.0669">Registrar asignatura</text></g><!--link REGISTRANDO_ASIGNATURA to MENU_PRINCIPAL--><g id="link_REGISTRANDO_ASIGNATURA_MENU_PRINCIPAL"><path d="M137.15,156.05 C155.41,170.91 184,191.79 212.5,203 C286.71,232.18 372.0638,242.8735 433.9138,247.0735 " fill="none" id="REGISTRANDO_ASIGNATURA-to-MENU_PRINCIPAL" style="stroke:#181818;stroke-width:1;"/><polygon fill="#181818" points="439.9,247.48,431.1917,242.8794,434.9115,247.1412,430.6497,250.8611,439.9,247.48" style="stroke:#181818;stroke-width:1;"/><text fill="#000000" font-family="sans-serif" font-size="13" lengthAdjust="spacing" textLength="175.8618" x="213.5" y="199.0669">Regresar al men&#250; principal</text></g><!--link MENU_ASIGNATURA to ACTUALIZANDO_ASIGNATURA--><g id="link_MENU_ASIGNATURA_ACTUALIZANDO_ASIGNATURA"><path d="M470.3,43.09 C460.61,51.86 448.76,62.83 438.5,73 C422.93,88.44 409.9333,102.327 398.0033,115.407 " fill="none" id="MENU_ASIGNATURA-to-ACTUALIZANDO_ASIGNATURA" style="stroke:#181818;stroke-width:1;"/><polygon fill="#181818" points="393.96,119.84,402.9803,115.886,397.3294,116.1458,397.0696,110.4949,393.96,119.84" style="stroke:#181818;stroke-width:1;"/><text fill="#000000" font-family="sans-serif" font-size="13" lengthAdjust="spacing" textLength="138.29" x="439.5" y="86.0669">Actualizar asignatura</text></g><!--link ACTUALIZANDO_ASIGNATURA to MENU_PRINCIPAL--><g id="link_ACTUALIZANDO_ASIGNATURA_MENU_PRINCIPAL"><path d="M383.56,156.14 C388.47,170.25 397.16,189.98 410.5,203 C423.68,215.86 435.5447,223.2813 452.0847,230.5313 " fill="none" id="ACTUALIZANDO_ASIGNATURA-to-MENU_PRINCIPAL" style="stroke:#181818;stroke-width:1;"/><polygon fill="#181818" points="457.58,232.94,450.9429,225.6634,453.0006,230.9327,447.7313,232.9904,457.58,232.94" style="stroke:#181818;stroke-width:1;"/><text fill="#000000" font-family="sans-serif" font-size="13" lengthAdjust="spacing" textLength="175.8618" x="411.5" y="199.0669">Regresar al men&#250; principal</text></g><!--link MENU_ASIGNATURA to CONSULTANDO_ASIGNATURA--><g id="link_MENU_ASIGNATURA_CONSULTANDO_ASIGNATURA"><path d="M530.66,43 C547.51,50.9 566.72,61.18 582.5,73 C600.66,86.6 614.2159,101.4019 625.5459,115.2819 " fill="none" id="MENU_ASIGNATURA-to-CONSULTANDO_ASIGNATURA" style="stroke:#181818;stroke-width:1;"/><polygon fill="#181818" points="629.34,119.93,626.7475,110.4285,626.1782,116.0566,620.5501,115.4873,629.34,119.93" style="stroke:#181818;stroke-width:1;"/><text fill="#000000" font-family="sans-serif" font-size="13" lengthAdjust="spacing" textLength="135.8906" x="602.5" y="86.0669">Consultar asignatura</text></g><!--link CONSULTANDO_ASIGNATURA to MENU_PRINCIPAL--><g id="link_CONSULTANDO_ASIGNATURA_MENU_PRINCIPAL"><path d="M631.43,156.23 C621.98,170.02 607.42,189.26 591.5,203 C577.96,214.68 566.3836,222.1569 551.5536,230.1369 " fill="none" id="CONSULTANDO_ASIGNATURA-to-MENU_PRINCIPAL" style="stroke:#181818;stroke-width:1;"/><polygon fill="#181818" points="546.27,232.98,556.0908,232.2378,550.673,230.6107,552.3,225.1929,546.27,232.98" style="stroke:#181818;stroke-width:1;"/><text fill="#000000" font-family="sans-serif" font-size="13" lengthAdjust="spacing" textLength="175.8618" x="608.5" y="199.0669">Regresar al men&#250; principal</text></g><!--link MENU_ASIGNATURA to ELIMINANDO_ASIGNATURA--><g id="link_MENU_ASIGNATURA_ELIMINANDO_ASIGNATURA"><path d="M569.62,35.92 C620.88,43.42 688.42,55.46 746.5,73 C787.33,85.33 826.6218,102.8609 856.3018,117.2609 " fill="none" id="MENU_ASIGNATURA-to-ELIMINANDO_ASIGNATURA" style="stroke:#181818;stroke-width:1;"/><polygon fill="#181818" points="861.7,119.88,855.3488,112.3526,857.2015,117.6974,851.8567,119.5502,861.7,119.88" style="stroke:#181818;stroke-width:1;"/><text fill="#000000" font-family="sans-serif" font-size="13" lengthAdjust="spacing" textLength="126.8516" x="794.5" y="86.0669">Eliminar asignatura</text></g><!--link ELIMINANDO_ASIGNATURA to MENU_PRINCIPAL--><g id="link_ELIMINANDO_ASIGNATURA_MENU_PRINCIPAL"><path d="M873.53,156.23 C853.54,171 822.64,191.64 792.5,203 C723.42,229.05 645.3863,240.1577 587.1163,245.3477 " fill="none" id="ELIMINANDO_ASIGNATURA-to-MENU_PRINCIPAL" style="stroke:#181818;stroke-width:1;"/><polygon fill="#181818" points="581.14,245.88,590.4594,249.0658,586.1203,245.4364,589.7496,241.0973,581.14,245.88" style="stroke:#181818;stroke-width:1;"/><text fill="#000000" font-family="sans-serif" font-size="13" lengthAdjust="spacing" textLength="175.8618" x="827.5" y="199.0669">Regresar al men&#250; principal</text></g><!--SRC=[hP6nQiCm441tVSLrYuVyG8V2eGWZK9GWoqkN8bpL21Gro3A4V5hM_5YSTcXT94CXypszU-YUtks72nOKenfbBTZgL46qNJAXznPEXFnCjaosRzZmMg9k5LQ_HehLlD4AvMPN893g5WL_NK3eJZQjq0i44tpBvGBmbRXNN5A-Hr4HygSPrkiNoCV2CoZRko554y4ChWycZT6G0dqNpRTz2w8Txkyz76ouNk0ONUZSqVXyIk5N9XLsQJJUdUSn9VunDVa3J2Rw6ORHftbBWNvCIlRIauXvTt1X7f9d_zjn0m00]--></g></svg>