<svg xmlns="http://www.w3.org/2000/svg" xmlns:xlink="http://www.w3.org/1999/xlink" contentStyleType="text/css" height="388px" preserveAspectRatio="none" style="width:3265px;height:388px;background:#FFFFFF;" version="1.1" viewBox="0 0 3265 388" width="3265px" zoomAndPan="magnify"><defs/><g><!--entity ADMINISTRADOR--><g id="elem_ADMINISTRADOR"><rect fill="#F1F1F1" height="36.2969" rx="2.5" ry="2.5" style="stroke:#181818;stroke-width:0.5;" width="139.4375" x="1771" y="7"/><text fill="#000000" font-family="sans-serif" font-size="14" lengthAdjust="spacing" textLength="119.4375" x="1781" y="29.9951">ADMINISTRADOR</text></g><!--entity PAGINA_PRINCIPAL--><g id="elem_PAGINA_PRINCIPAL"><rect fill="#F1F1F1" height="36.2969" rx="2.5" ry="2.5" style="stroke:#181818;stroke-width:0.5;" width="152.542" x="1764" y="120"/><text fill="#000000" font-family="sans-serif" font-size="14" lengthAdjust="spacing" textLength="132.542" x="1774" y="142.9951">PAGINA_PRINCIPAL</text></g><!--entity MENU_USUARIOS--><g id="elem_MENU_USUARIOS"><rect fill="#F1F1F1" height="36.2969" rx="2.5" ry="2.5" style="stroke:#181818;stroke-width:0.5;" width="141.3652" x="521" y="233"/><text fill="#000000" font-family="sans-serif" font-size="14" lengthAdjust="spacing" textLength="121.3652" x="531" y="255.9951">MENU_USUARIOS</text></g><!--entity MENU_RUTINAS--><g id="elem_MENU_RUTINAS"><rect fill="#F1F1F1" height="36.2969" rx="2.5" ry="2.5" style="stroke:#181818;stroke-width:0.5;" width="130.2363" x="1407.5" y="233"/><text fill="#000000" font-family="sans-serif" font-size="14" lengthAdjust="spacing" textLength="110.2363" x="1417.5" y="255.9951">MENU_RUTINAS</text></g><!--entity MENU_RETOS--><g id="elem_MENU_RETOS"><rect fill="#F1F1F1" height="36.2969" rx="2.5" ry="2.5" style="stroke:#181818;stroke-width:0.5;" width="115.6758" x="1848.5" y="233"/><text fill="#000000" font-family="sans-serif" font-size="14" lengthAdjust="spacing" textLength="95.6758" x="1858.5" y="255.9951">MENU_RETOS</text></g><!--entity MENU_CONFIGURACION--><g id="elem_MENU_CONFIGURACION"><rect fill="#F1F1F1" height="36.2969" rx="2.5" ry="2.5" style="stroke:#181818;stroke-width:0.5;" width="187.8906" x="2168.5" y="233"/><text fill="#000000" font-family="sans-serif" font-size="14" lengthAdjust="spacing" textLength="167.8906" x="2178.5" y="255.9951">MENU_CONFIGURACION</text></g><!--entity MENU_REPORTES--><g id="elem_MENU_REPORTES"><rect fill="#F1F1F1" height="36.2969" rx="2.5" ry="2.5" style="stroke:#181818;stroke-width:0.5;" width="142.6914" x="2808" y="233"/><text fill="#000000" font-family="sans-serif" font-size="14" lengthAdjust="spacing" textLength="122.6914" x="2818" y="255.9951">MENU_REPORTES</text></g><!--entity CREAR_USUARIOS--><g id="elem_CREAR_USUARIOS"><rect fill="#F1F1F1" height="36.2969" rx="2.5" ry="2.5" style="stroke:#181818;stroke-width:0.5;" width="147.374" x="7" y="346"/><text fill="#000000" font-family="sans-serif" font-size="14" lengthAdjust="spacing" textLength="127.374" x="17" y="368.9951">CREAR_USUARIOS</text></g><!--entity MODIFICAR_USUARIOS--><g id="elem_MODIFICAR_USUARIOS"><rect fill="#F1F1F1" height="36.2969" rx="2.5" ry="2.5" style="stroke:#181818;stroke-width:0.5;" width="178.9902" x="189" y="346"/><text fill="#000000" font-family="sans-serif" font-size="14" lengthAdjust="spacing" textLength="158.9902" x="199" y="368.9951">MODIFICAR_USUARIOS</text></g><!--entity ELIMINAR_USUARIOS--><g id="elem_ELIMINAR_USUARIOS"><rect fill="#F1F1F1" height="36.2969" rx="2.5" ry="2.5" style="stroke:#181818;stroke-width:0.5;" width="166.4805" x="403.5" y="346"/><text fill="#000000" font-family="sans-serif" font-size="14" lengthAdjust="spacing" textLength="146.4805" x="413.5" y="368.9951">ELIMINAR_USUARIOS</text></g><!--entity CONSULTAR_USUARIOS--><g id="elem_CONSULTAR_USUARIOS"><rect fill="#F1F1F1" height="36.2969" rx="2.5" ry="2.5" style="stroke:#181818;stroke-width:0.5;" width="185.7783" x="604.5" y="346"/><text fill="#000000" font-family="sans-serif" font-size="14" lengthAdjust="spacing" textLength="165.7783" x="614.5" y="368.9951">CONSULTAR_USUARIOS</text></g><!--entity CREAR_RUTINAS--><g id="elem_CREAR_RUTINAS"><rect fill="#F1F1F1" height="36.2969" rx="2.5" ry="2.5" style="stroke:#181818;stroke-width:0.5;" width="136.2451" x="825.5" y="346"/><text fill="#000000" font-family="sans-serif" font-size="14" lengthAdjust="spacing" textLength="116.2451" x="835.5" y="368.9951">CREAR_RUTINAS</text></g><!--entity MODIFICAR_RUTINAS--><g id="elem_MODIFICAR_RUTINAS"><rect fill="#F1F1F1" height="36.2969" rx="2.5" ry="2.5" style="stroke:#181818;stroke-width:0.5;" width="167.8613" x="996.5" y="346"/><text fill="#000000" font-family="sans-serif" font-size="14" lengthAdjust="spacing" textLength="147.8613" x="1006.5" y="368.9951">MODIFICAR_RUTINAS</text></g><!--entity ELIMINAR_RUTINAS--><g id="elem_ELIMINAR_RUTINAS"><rect fill="#F1F1F1" height="36.2969" rx="2.5" ry="2.5" style="stroke:#181818;stroke-width:0.5;" width="155.3516" x="1200" y="346"/><text fill="#000000" font-family="sans-serif" font-size="14" lengthAdjust="spacing" textLength="135.3516" x="1210" y="368.9951">ELIMINAR_RUTINAS</text></g><!--entity CONSULTAR_RUTINAS--><g id="elem_CONSULTAR_RUTINAS"><rect fill="#F1F1F1" height="36.2969" rx="2.5" ry="2.5" style="stroke:#181818;stroke-width:0.5;" width="174.6494" x="1390" y="346"/><text fill="#000000" font-family="sans-serif" font-size="14" lengthAdjust="spacing" textLength="154.6494" x="1400" y="368.9951">CONSULTAR_RUTINAS</text></g><!--entity BATERIA_EJERCICIOS--><g id="elem_BATERIA_EJERCICIOS"><rect fill="#F1F1F1" height="36.2969" rx="2.5" ry="2.5" style="stroke:#181818;stroke-width:0.5;" width="166.2754" x="1600.5" y="346"/><text fill="#000000" font-family="sans-serif" font-size="14" lengthAdjust="spacing" textLength="146.2754" x="1610.5" y="368.9951">BATERIA_EJERCICIOS</text></g><!--entity MODIFICAR_RETOS--><g id="elem_MODIFICAR_RETOS"><rect fill="#F1F1F1" height="36.2969" rx="2.5" ry="2.5" style="stroke:#181818;stroke-width:0.5;" width="153.3008" x="1802" y="346"/><text fill="#000000" font-family="sans-serif" font-size="14" lengthAdjust="spacing" textLength="133.3008" x="1812" y="368.9951">MODIFICAR_RETOS</text></g><!--entity ELIMINAR_RETOS--><g id="elem_ELIMINAR_RETOS"><rect fill="#F1F1F1" height="36.2969" rx="2.5" ry="2.5" style="stroke:#181818;stroke-width:0.5;" width="140.791" x="1990" y="346"/><text fill="#000000" font-family="sans-serif" font-size="14" lengthAdjust="spacing" textLength="120.791" x="2000" y="368.9951">ELIMINAR_RETOS</text></g><!--entity CONFIGURAR_SISTEMA--><g id="elem_CONFIGURAR_SISTEMA"><rect fill="#F1F1F1" height="36.2969" rx="2.5" ry="2.5" style="stroke:#181818;stroke-width:0.5;" width="181.5332" x="2166.5" y="346"/><text fill="#000000" font-family="sans-serif" font-size="14" lengthAdjust="spacing" textLength="161.5332" x="2176.5" y="368.9951">CONFIGURAR_SISTEMA</text></g><!--entity ADMINISTRAR_PERMISOS--><g id="elem_ADMINISTRAR_PERMISOS"><rect fill="#F1F1F1" height="36.2969" rx="2.5" ry="2.5" style="stroke:#181818;stroke-width:0.5;" width="196.6543" x="2384" y="346"/><text fill="#000000" font-family="sans-serif" font-size="14" lengthAdjust="spacing" textLength="176.6543" x="2394" y="368.9951">ADMINISTRAR_PERMISOS</text></g><!--entity AJUSTES_GENERALES--><g id="elem_AJUSTES_GENERALES"><rect fill="#F1F1F1" height="36.2969" rx="2.5" ry="2.5" style="stroke:#181818;stroke-width:0.5;" width="169.9736" x="2616.5" y="346"/><text fill="#000000" font-family="sans-serif" font-size="14" lengthAdjust="spacing" textLength="149.9736" x="2626.5" y="368.9951">AJUSTES_GENERALES</text></g><!--entity CONSULTAR_REPORTES--><g id="elem_CONSULTAR_REPORTES"><rect fill="#F1F1F1" height="36.2969" rx="2.5" ry="2.5" style="stroke:#181818;stroke-width:0.5;" width="187.1045" x="2822" y="346"/><text fill="#000000" font-family="sans-serif" font-size="14" lengthAdjust="spacing" textLength="167.1045" x="2832" y="368.9951">CONSULTAR_REPORTES</text></g><!--entity DESCARGAR_ESTADISTICAS--><g id="elem_DESCARGAR_ESTADISTICAS"><rect fill="#F1F1F1" height="36.2969" rx="2.5" ry="2.5" style="stroke:#181818;stroke-width:0.5;" width="215.3232" x="3044" y="346"/><text fill="#000000" font-family="sans-serif" font-size="14" lengthAdjust="spacing" textLength="195.3232" x="3054" y="368.9951">DESCARGAR_ESTADISTICAS</text></g><!--link ADMINISTRADOR to PAGINA_PRINCIPAL--><g id="link_ADMINISTRADOR_PAGINA_PRINCIPAL"><path d="M1801.67,43.24 C1781.82,54.73 1763.7,71.16 1773.5,90 C1780.06,102.61 1786.6332,109.3422 1798.4132,116.7622 " fill="none" id="ADMINISTRADOR-to-PAGINA_PRINCIPAL" style="stroke:#181818;stroke-width:1;"/><polygon fill="#181818" points="1803.49,119.96,1798.0066,111.7788,1799.2593,117.2952,1793.7429,118.5479,1803.49,119.96" style="stroke:#181818;stroke-width:1;"/><text fill="#000000" font-family="sans-serif" font-size="13" lengthAdjust="spacing" textLength="86.7153" x="1774.5" y="86.0669">Iniciar Sesión</text></g><!--link PAGINA_PRINCIPAL to ADMINISTRADOR--><g id="link_PAGINA_PRINCIPAL_ADMINISTRADOR"><path d="M1852.16,119.98 C1857.34,111.39 1862.86,100.58 1865.5,90 C1869.57,73.68 1864.7752,60.9922 1856.7752,48.3322 " fill="none" id="PAGINA_PRINCIPAL-to-ADMINISTRADOR" style="stroke:#181818;stroke-width:1;"/><polygon fill="#181818" points="1853.57,43.26,1854.9963,53.005,1856.241,47.4868,1861.7592,48.7315,1853.57,43.26" style="stroke:#181818;stroke-width:1;"/><text fill="#000000" font-family="sans-serif" font-size="13" lengthAdjust="spacing" textLength="88.0356" x="1868.5" y="86.0669">Cerrar Sesión</text></g><!--link PAGINA_PRINCIPAL to MENU_USUARIOS--><g id="link_PAGINA_PRINCIPAL_MENU_USUARIOS"><path d="M1763.73,140.98 C1617.56,145.27 1289.34,157.45 1014.5,186 C890.02,198.93 752.0605,221.5375 668.2505,236.1775 " fill="none" id="PAGINA_PRINCIPAL-to-MENU_USUARIOS" style="stroke:#181818;stroke-width:1;"/><polygon fill="#181818" points="662.34,237.21,671.8941,239.6017,667.2654,236.3496,670.5175,231.721,662.34,237.21" style="stroke:#181818;stroke-width:1;"/><text fill="#000000" font-family="sans-serif" font-size="13" lengthAdjust="spacing" textLength="136.1064" x="1015.5" y="199.0669">Administrar Usuarios</text></g><!--link MENU_USUARIOS to PAGINA_PRINCIPAL--><g id="link_MENU_USUARIOS_PAGINA_PRINCIPAL"><path d="M662.43,244.34 C769.5,235.73 978.79,218.7 1156.5,203 C1377.03,183.51 1631.3978,159.2165 1757.8778,147.0065 " fill="none" id="MENU_USUARIOS-to-PAGINA_PRINCIPAL" style="stroke:#181818;stroke-width:1;"/><polygon fill="#181818" points="1763.85,146.43,1754.5073,143.3133,1758.8731,146.9105,1755.276,151.2763,1763.85,146.43" style="stroke:#181818;stroke-width:1;"/><text fill="#000000" font-family="sans-serif" font-size="13" lengthAdjust="spacing" textLength="95.5132" x="1345.5" y="199.0669">Volver al inicio</text></g><!--link PAGINA_PRINCIPAL to MENU_RUTINAS--><g id="link_PAGINA_PRINCIPAL_MENU_RUTINAS"><path d="M1763.92,143.37 C1660.99,150.03 1488.63,164.29 1469.5,186 C1458.39,198.6 1459.6754,212.8623 1464.0454,227.1523 " fill="none" id="PAGINA_PRINCIPAL-to-MENU_RUTINAS" style="stroke:#181818;stroke-width:1;"/><polygon fill="#181818" points="1465.8,232.89,1466.9932,223.1137,1464.3378,228.1086,1459.3429,225.4532,1465.8,232.89" style="stroke:#181818;stroke-width:1;"/><text fill="#000000" font-family="sans-serif" font-size="13" lengthAdjust="spacing" textLength="116.1494" x="1470.5" y="199.0669">Gestionar Rutinas</text></g><!--link MENU_RUTINAS to PAGINA_PRINCIPAL--><g id="link_MENU_RUTINAS_PAGINA_PRINCIPAL"><path d="M1517.64,232.97 C1554.46,219.39 1607.97,200.32 1655.5,186 C1691.99,175.01 1727.2019,165.8359 1761.3319,157.4859 " fill="none" id="MENU_RUTINAS-to-PAGINA_PRINCIPAL" style="stroke:#181818;stroke-width:1;"/><polygon fill="#181818" points="1767.16,156.06,1757.4673,154.3134,1762.3032,157.2482,1759.3684,162.0842,1767.16,156.06" style="stroke:#181818;stroke-width:1;"/><text fill="#000000" font-family="sans-serif" font-size="13" lengthAdjust="spacing" textLength="95.5132" x="1656.5" y="199.0669">Volver al inicio</text></g><!--link PAGINA_PRINCIPAL to MENU_RETOS--><g id="link_PAGINA_PRINCIPAL_MENU_RETOS"><path d="M1795.68,156.12 C1772.26,167.73 1751.02,184.33 1764.5,203 C1783.58,229.42 1812.1662,240.2163 1842.3862,245.3963 " fill="none" id="PAGINA_PRINCIPAL-to-MENU_RETOS" style="stroke:#181818;stroke-width:1;"/><polygon fill="#181818" points="1848.3,246.41,1840.1052,240.947,1843.3719,245.5653,1838.7536,248.832,1848.3,246.41" style="stroke:#181818;stroke-width:1;"/><text fill="#000000" font-family="sans-serif" font-size="13" lengthAdjust="spacing" textLength="104.0444" x="1765.5" y="199.0669">Gestionar Retos</text></g><!--link MENU_RETOS to PAGINA_PRINCIPAL--><g id="link_MENU_RETOS_PAGINA_PRINCIPAL"><path d="M1898.81,232.75 C1892.74,219.64 1883.77,201.3 1874.5,186 C1868.34,175.84 1864.2327,169.858 1857.7227,161.188 " fill="none" id="MENU_RETOS-to-PAGINA_PRINCIPAL" style="stroke:#181818;stroke-width:1;"/><polygon fill="#181818" points="1854.12,156.39,1856.3253,165.9888,1857.1222,160.3883,1862.7227,161.1852,1854.12,156.39" style="stroke:#181818;stroke-width:1;"/><text fill="#000000" font-family="sans-serif" font-size="13" lengthAdjust="spacing" textLength="95.5132" x="1884.5" y="199.0669">Volver al inicio</text></g><!--link PAGINA_PRINCIPAL to MENU_CONFIGURACION--><g id="link_PAGINA_PRINCIPAL_MENU_CONFIGURACION"><path d="M1893.72,156.02 C1944.82,172.25 2018.4,195.34 2047.5,203 C2089.71,214.12 2131.1976,223.439 2170.6976,231.719 " fill="none" id="PAGINA_PRINCIPAL-to-MENU_CONFIGURACION" style="stroke:#181818;stroke-width:1;"/><polygon fill="#181818" points="2176.57,232.95,2168.5821,227.1886,2171.6764,231.9242,2166.9408,235.0185,2176.57,232.95" style="stroke:#181818;stroke-width:1;"/><text fill="#000000" font-family="sans-serif" font-size="13" lengthAdjust="spacing" textLength="170.7012" x="2048.5" y="199.0669">Configuración del Sistema</text></g><!--link MENU_CONFIGURACION to PAGINA_PRINCIPAL--><g id="link_MENU_CONFIGURACION_PAGINA_PRINCIPAL"><path d="M2256.88,232.79 C2251.03,217.81 2240.34,196.86 2223.5,186 C2174.38,154.32 2020.2664,144.1978 1923.2964,140.8378 " fill="none" id="MENU_CONFIGURACION-to-PAGINA_PRINCIPAL" style="stroke:#181818;stroke-width:1;"/><polygon fill="#181818" points="1917.3,140.63,1926.1561,144.9393,1922.297,140.8031,1926.4331,136.9441,1917.3,140.63" style="stroke:#181818;stroke-width:1;"/><text fill="#000000" font-family="sans-serif" font-size="13" lengthAdjust="spacing" textLength="95.5132" x="2242.5" y="199.0669">Volver al inicio</text></g><!--link PAGINA_PRINCIPAL to MENU_REPORTES--><g id="link_PAGINA_PRINCIPAL_MENU_REPORTES"><path d="M1917.29,145.49 C2016.49,154.01 2194.51,169.82 2346.5,186 C2511.69,203.59 2699.2981,226.9521 2801.6281,239.9821 " fill="none" id="PAGINA_PRINCIPAL-to-MENU_REPORTES" style="stroke:#181818;stroke-width:1;"/><polygon fill="#181818" points="2807.58,240.74,2799.1573,235.6352,2802.62,240.1084,2798.1468,243.5711,2807.58,240.74" style="stroke:#181818;stroke-width:1;"/><text fill="#000000" font-family="sans-serif" font-size="13" lengthAdjust="spacing" textLength="178.0581" x="2494.5" y="199.0669">Ver Reportes y Estadísticas</text></g><!--link MENU_REPORTES to PAGINA_PRINCIPAL--><g id="link_MENU_REPORTES_PAGINA_PRINCIPAL"><path d="M2837.45,232.91 C2797.91,217.69 2736.73,196.29 2681.5,186 C2536.21,158.93 2102.0781,145.4623 1923.2581,140.9223 " fill="none" id="MENU_REPORTES-to-PAGINA_PRINCIPAL" style="stroke:#181818;stroke-width:1;"/><polygon fill="#181818" points="1917.26,140.77,1926.1556,144.9971,1922.2584,140.8969,1926.3586,136.9997,1917.26,140.77" style="stroke:#181818;stroke-width:1;"/><text fill="#000000" font-family="sans-serif" font-size="13" lengthAdjust="spacing" textLength="95.5132" x="2748.5" y="199.0669">Volver al inicio</text></g><!--link MENU_USUARIOS to CREAR_USUARIOS--><g id="link_MENU_USUARIOS_CREAR_USUARIOS"><path d="M520.74,257.36 C451.76,263.63 344.28,276.18 253.5,299 C206.14,310.9 159.339,329.0097 124.769,343.5797 " fill="none" id="MENU_USUARIOS-to-CREAR_USUARIOS" style="stroke:#181818;stroke-width:1;"/><polygon fill="#181818" points="119.24,345.91,129.087,346.1006,123.8475,343.9681,125.98,338.7286,119.24,345.91" style="stroke:#181818;stroke-width:1;"/><text fill="#000000" font-family="sans-serif" font-size="13" lengthAdjust="spacing" textLength="96.04" x="254.5" y="312.0669">Crear Usuarios</text></g><!--link MENU_USUARIOS to MODIFICAR_USUARIOS--><g id="link_MENU_USUARIOS_MODIFICAR_USUARIOS"><path d="M520.74,264.25 C482.86,271.97 435.82,283.46 395.5,299 C362.88,311.58 333.131,328.4209 310.041,342.7209 " fill="none" id="MENU_USUARIOS-to-MODIFICAR_USUARIOS" style="stroke:#181818;stroke-width:1;"/><polygon fill="#181818" points="304.94,345.88,314.6975,344.542,309.1908,343.2474,310.4854,337.7407,304.94,345.88" style="stroke:#181818;stroke-width:1;"/><text fill="#000000" font-family="sans-serif" font-size="13" lengthAdjust="spacing" textLength="119.9897" x="396.5" y="312.0669">Modificar Usuarios</text></g><!--link MENU_USUARIOS to ELIMINAR_USUARIOS--><g id="link_MENU_USUARIOS_ELIMINAR_USUARIOS"><path d="M571.12,269.21 C561.26,277.83 549.43,288.63 539.5,299 C525.03,314.11 513.6492,327.906 503.2892,341.136 " fill="none" id="MENU_USUARIOS-to-ELIMINAR_USUARIOS" style="stroke:#181818;stroke-width:1;"/><polygon fill="#181818" points="499.59,345.86,508.2881,341.2402,502.6727,341.9234,501.9895,336.3079,499.59,345.86" style="stroke:#181818;stroke-width:1;"/><text fill="#000000" font-family="sans-serif" font-size="13" lengthAdjust="spacing" textLength="113.5723" x="540.5" y="312.0669">Eliminar Usuarios</text></g><!--link MENU_USUARIOS to CONSULTAR_USUARIOS--><g id="link_MENU_USUARIOS_CONSULTAR_USUARIOS"><path d="M621.25,269.08 C633.68,277.13 647.71,287.49 658.5,299 C671.67,313.05 679.9448,326.8844 686.8648,340.5844 " fill="none" id="MENU_USUARIOS-to-CONSULTAR_USUARIOS" style="stroke:#181818;stroke-width:1;"/><polygon fill="#181818" points="689.57,345.94,689.0827,336.1032,687.3157,341.477,681.9419,339.7101,689.57,345.94" style="stroke:#181818;stroke-width:1;"/><text fill="#000000" font-family="sans-serif" font-size="13" lengthAdjust="spacing" textLength="122.6113" x="672.5" y="312.0669">Consultar Usuarios</text></g><!--link MENU_RUTINAS to CREAR_RUTINAS--><g id="link_MENU_RUTINAS_CREAR_RUTINAS"><path d="M1407.46,255.3 C1328.19,260.32 1190.6,272.29 1075.5,299 C1025.58,310.58 975.883,328.9322 939.503,343.6322 " fill="none" id="MENU_RUTINAS-to-CREAR_RUTINAS" style="stroke:#181818;stroke-width:1;"/><polygon fill="#181818" points="933.94,345.88,943.7831,346.2169,938.5759,344.0068,940.786,338.7996,933.94,345.88" style="stroke:#181818;stroke-width:1;"/><text fill="#000000" font-family="sans-serif" font-size="13" lengthAdjust="spacing" textLength="88.8228" x="1076.5" y="312.0669">Crear Rutinas</text></g><!--link MENU_RUTINAS to MODIFICAR_RUTINAS--><g id="link_MENU_RUTINAS_MODIFICAR_RUTINAS"><path d="M1407.45,259 C1354.57,265.83 1278.5,278.29 1214.5,299 C1177.22,311.06 1142.235,328.4826 1115.685,342.9926 " fill="none" id="MENU_RUTINAS-to-MODIFICAR_RUTINAS" style="stroke:#181818;stroke-width:1;"/><polygon fill="#181818" points="1110.42,345.87,1120.2358,345.0639,1114.8075,343.4722,1116.3993,338.0439,1110.42,345.87" style="stroke:#181818;stroke-width:1;"/><text fill="#000000" font-family="sans-serif" font-size="13" lengthAdjust="spacing" textLength="112.7725" x="1215.5" y="312.0669">Modificar Rutinas</text></g><!--link MENU_RUTINAS to ELIMINAR_RUTINAS--><g id="link_MENU_RUTINAS_ELIMINAR_RUTINAS"><path d="M1423.58,269.03 C1403.17,276.98 1379.59,287.27 1359.5,299 C1336.26,312.57 1316.8284,328.0838 1300.8484,341.9738 " fill="none" id="MENU_RUTINAS-to-ELIMINAR_RUTINAS" style="stroke:#181818;stroke-width:1;"/><polygon fill="#181818" points="1296.32,345.91,1305.7367,343.0247,1300.0937,342.6299,1300.4885,336.9868,1296.32,345.91" style="stroke:#181818;stroke-width:1;"/><text fill="#000000" font-family="sans-serif" font-size="13" lengthAdjust="spacing" textLength="106.355" x="1360.5" y="312.0669">Eliminar Rutinas</text></g><!--link MENU_RUTINAS to CONSULTAR_RUTINAS--><g id="link_MENU_RUTINAS_CONSULTAR_RUTINAS"><path d="M1473.28,269.34 C1474.22,290.2 1475.522,318.986 1476.452,339.786 " fill="none" id="MENU_RUTINAS-to-CONSULTAR_RUTINAS" style="stroke:#181818;stroke-width:1;"/><polygon fill="#181818" points="1476.72,345.78,1480.314,336.6103,1476.4967,340.785,1472.322,336.9677,1476.72,345.78" style="stroke:#181818;stroke-width:1;"/><text fill="#000000" font-family="sans-serif" font-size="13" lengthAdjust="spacing" textLength="115.394" x="1476.5" y="312.0669">Consultar Rutinas</text></g><!--link MENU_RUTINAS to BATERIA_EJERCICIOS--><g id="link_MENU_RUTINAS_BATERIA_EJERCICIOS"><path d="M1530.21,269.01 C1552.81,276.73 1578.53,286.87 1600.5,299 C1624.4,312.19 1644.2593,327.9549 1660.3593,342.0049 " fill="none" id="MENU_RUTINAS-to-BATERIA_EJERCICIOS" style="stroke:#181818;stroke-width:1;"/><polygon fill="#181818" points="1664.88,345.95,1660.729,337.0186,1661.1128,342.6624,1655.4689,343.0462,1664.88,345.95" style="stroke:#181818;stroke-width:1;"/><text fill="#000000" font-family="sans-serif" font-size="13" lengthAdjust="spacing" textLength="196.644" x="1628.5" y="312.0669">Modificar Bateria de Ejercicios</text></g><!--link MENU_RETOS to MODIFICAR_RETOS--><g id="link_MENU_RETOS_MODIFICAR_RETOS"><path d="M1902.12,269.34 C1896.86,290.2 1889.5584,319.1625 1884.3084,339.9625 " fill="none" id="MENU_RETOS-to-MODIFICAR_RETOS" style="stroke:#181818;stroke-width:1;"/><polygon fill="#181818" points="1882.84,345.78,1888.9209,338.0326,1884.0636,340.932,1881.1642,336.0748,1882.84,345.78" style="stroke:#181818;stroke-width:1;"/><text fill="#000000" font-family="sans-serif" font-size="13" lengthAdjust="spacing" textLength="100.6675" x="1895.5" y="312.0669">Modificar Retos</text></g><!--link MENU_RETOS to ELIMINAR_RETOS--><g id="link_MENU_RETOS_ELIMINAR_RETOS"><path d="M1951.6,269.04 C1969.03,276.76 1988.57,286.9 2004.5,299 C2022.02,312.31 2034.5288,326.986 2044.9288,340.966 " fill="none" id="MENU_RETOS-to-ELIMINAR_RETOS" style="stroke:#181818;stroke-width:1;"/><polygon fill="#181818" points="2048.51,345.78,2046.3475,336.1715,2045.5256,341.7683,2039.9288,340.9465,2048.51,345.78" style="stroke:#181818;stroke-width:1;"/><text fill="#000000" font-family="sans-serif" font-size="13" lengthAdjust="spacing" textLength="94.25" x="2023.5" y="312.0669">Eliminar Retos</text></g><!--link MENU_CONFIGURACION to CONFIGURAR_SISTEMA--><g id="link_MENU_CONFIGURACION_CONFIGURAR_SISTEMA"><path d="M2261.72,269.34 C2260.78,290.2 2259.478,318.986 2258.548,339.786 " fill="none" id="MENU_CONFIGURACION-to-CONFIGURAR_SISTEMA" style="stroke:#181818;stroke-width:1;"/><polygon fill="#181818" points="2258.28,345.78,2262.678,336.9677,2258.5033,340.785,2254.686,336.6103,2258.28,345.78" style="stroke:#181818;stroke-width:1;"/><text fill="#000000" font-family="sans-serif" font-size="13" lengthAdjust="spacing" textLength="125.0996" x="2261.5" y="312.0669">Configurar Sistema</text></g><!--link MENU_CONFIGURACION to ADMINISTRAR_PERMISOS--><g id="link_MENU_CONFIGURACION_ADMINISTRAR_PERMISOS"><path d="M2322.68,269.1 C2346.07,276.8 2372.67,286.91 2395.5,299 C2420.36,312.16 2441.3344,328.0364 2458.2744,342.1064 " fill="none" id="MENU_CONFIGURACION-to-ADMINISTRAR_PERMISOS" style="stroke:#181818;stroke-width:1;"/><polygon fill="#181818" points="2462.89,345.94,2458.5224,337.1126,2459.0437,342.7453,2453.4109,343.2667,2462.89,345.94" style="stroke:#181818;stroke-width:1;"/><text fill="#000000" font-family="sans-serif" font-size="13" lengthAdjust="spacing" textLength="138.8867" x="2424.5" y="312.0669">Administrar Permisos</text></g><!--link MENU_CONFIGURACION to AJUSTES_GENERALES--><g id="link_MENU_CONFIGURACION_AJUSTES_GENERALES"><path d="M2356.81,258.8 C2418.89,265.1 2501.35,276.98 2571.5,299 C2608.34,310.57 2642.5369,328.282 2668.1869,343.012 " fill="none" id="MENU_CONFIGURACION-to-AJUSTES_GENERALES" style="stroke:#181818;stroke-width:1;"/><polygon fill="#181818" points="2673.39,346,2667.5774,338.0493,2669.0541,343.51,2663.5934,344.9868,2673.39,346" style="stroke:#181818;stroke-width:1;"/><text fill="#000000" font-family="sans-serif" font-size="13" lengthAdjust="spacing" textLength="117.5205" x="2612.5" y="312.0669">Ajustes Generales</text></g><!--link MENU_REPORTES to CONSULTAR_REPORTES--><g id="link_MENU_REPORTES_CONSULTAR_REPORTES"><path d="M2885.12,269.34 C2891.89,290.2 2901.3204,319.2722 2908.0604,340.0722 " fill="none" id="MENU_REPORTES-to-CONSULTAR_REPORTES" style="stroke:#181818;stroke-width:1;"/><polygon fill="#181818" points="2909.91,345.78,2910.9409,335.9852,2908.3687,341.0235,2903.3305,338.4513,2909.91,345.78" style="stroke:#181818;stroke-width:1;"/><text fill="#000000" font-family="sans-serif" font-size="13" lengthAdjust="spacing" textLength="124.8838" x="2900.5" y="312.0669">Consultar Reportes</text></g><!--link MENU_REPORTES to DESCARGAR_ESTADISTICAS--><g id="link_MENU_REPORTES_DESCARGAR_ESTADISTICAS"><path d="M2945.72,269.05 C2973.31,276.96 3005.4,287.23 3033.5,299 C3065.53,312.41 3095.0936,328.8221 3118.5236,342.7621 " fill="none" id="MENU_REPORTES-to-DESCARGAR_ESTADISTICAS" style="stroke:#181818;stroke-width:1;"/><polygon fill="#181818" points="3123.68,345.83,3117.9907,337.7906,3119.383,343.2735,3113.9002,344.6658,3123.68,345.83" style="stroke:#181818;stroke-width:1;"/><text fill="#000000" font-family="sans-serif" font-size="13" lengthAdjust="spacing" textLength="148.2178" x="3067.5" y="312.0669">Descargar Estadísticas</text></g><!--SRC=[fLR1Zfim4BtdAznJcyF-m1ugUOaNUPKGP62l4GsJo2iMLZPKkv_J3-YfjrxpOnq721WCghIN9ChmF6_U6y_m9OEJB808viKqyBVis_kQA3XMQN7EWRolLds4RdOyu54iw6OlreD0I7qUq4CeUE3na6xNgzLNieFYybUJDoMBetnBSz03n8u5oI694YhuFbgF0oA9yJp7_onsFEtjWqVk9u9wV1yuCE5Un2owSXAGfqTv-LCGA2e51792irTPI5sfD2iL-I1vIiBBhxCiyBkZlh8g9tTttycuP79FU26FCbKa0crIh2QF69nzqZtnGAa11ZbwPG7l4ZyqoK1du6H4KfANkjNOdScI63FrXIgIw3fLibn2jXuWq0TT8H-4YRf25eieuv2DWMenZ-MU4QGiJl9SgzQd32sAa3Myfejf6vCH_mmcvrkfAXJmWp1TfTdbDx8v8d6KDwf_d6eKiHMuaT3yk6dIDv0d61NkDjrl-2FtPg9ioz7bcI0M72NRs8hQNfcoxDH65mL3uwQ8AIL4xSfCdh3qHUI4BW9PBh5Tbd7JIXh_T9rNoqZ7xNakyvze7RQsDFUeNFIgQyInLQx1SPF54RnLxeZrrJc23pHcWjC3UsB2urvlOdTjUW_xYzHOs76VF3vXQlat2nlNC3Hl5ZGfpd9k5ZOjs-Bua5QWP6eSOY-WZiP7nocVTlywKfmMZnT4BquJ6GofaUJju1e8Viqo0jZdMLAx7lzifVOmj9kpcPhY4E4sOJkwTYvgSGYPsF78LeK-9OY93ZuBcA1RrWbZp-AsJqPvXYDQtKRp3Dn5PBIAGb2lKdVIEOuOSpNubrgRyUv30UhwPZ43_dodDOl4FHPkRnPzTCCYx2OVeooAwGPBn-xg-wxTKgCRs2-lmHNiCa-HxXo8te36nZqZsjvwqoF-GvT_]--></g></svg>