<svg xmlns="http://www.w3.org/2000/svg" xmlns:xlink="http://www.w3.org/1999/xlink" contentStyleType="text/css" height="388px" preserveAspectRatio="none" style="width:4963px;height:388px;background:#FFFFFF;" version="1.1" viewBox="0 0 4963 388" width="4963px" zoomAndPan="magnify"><defs/><g><!--entity ADMINISTRADOR--><g id="elem_ADMINISTRADOR"><rect fill="#F1F1F1" height="36.2969" rx="2.5" ry="2.5" style="stroke:#181818;stroke-width:0.5;" width="139.4375" x="2422.64" y="7"/><text fill="#000000" font-family="sans-serif" font-size="14" lengthAdjust="spacing" textLength="119.4375" x="2432.64" y="29.9951">ADMINISTRADOR</text></g><!--entity PAGINA_PRINCIPAL--><g id="elem_PAGINA_PRINCIPAL"><rect fill="#F1F1F1" height="36.2969" rx="2.5" ry="2.5" style="stroke:#181818;stroke-width:0.5;" width="152.542" x="2415.64" y="120"/><text fill="#000000" font-family="sans-serif" font-size="14" lengthAdjust="spacing" textLength="132.542" x="2425.64" y="142.9951">PAGINA_PRINCIPAL</text></g><!--entity CONSULTAR_USUARIOS--><g id="elem_CONSULTAR_USUARIOS"><rect fill="#F1F1F1" height="36.2969" rx="2.5" ry="2.5" style="stroke:#181818;stroke-width:0.5;" width="185.7783" x="451.14" y="233"/><text fill="#000000" font-family="sans-serif" font-size="14" lengthAdjust="spacing" textLength="165.7783" x="461.14" y="255.9951">CONSULTAR_USUARIOS</text></g><!--entity CONSULTAR_RUTINAS--><g id="elem_CONSULTAR_RUTINAS"><rect fill="#F1F1F1" height="36.2969" rx="2.5" ry="2.5" style="stroke:#181818;stroke-width:0.5;" width="174.6494" x="1550.64" y="233"/><text fill="#000000" font-family="sans-serif" font-size="14" lengthAdjust="spacing" textLength="154.6494" x="1560.64" y="255.9951">CONSULTAR_RUTINAS</text></g><!--entity CONSULTAR_RETOS--><g id="elem_CONSULTAR_RETOS"><rect fill="#F1F1F1" height="36.2969" rx="2.5" ry="2.5" style="stroke:#181818;stroke-width:0.5;" width="160.0889" x="2517.14" y="233"/><text fill="#000000" font-family="sans-serif" font-size="14" lengthAdjust="spacing" textLength="140.0889" x="2527.14" y="255.9951">CONSULTAR_RETOS</text></g><!--entity CONSULTAR_CONFIGURACION--><g id="elem_CONSULTAR_CONFIGURACION"><rect fill="#F1F1F1" height="36.2969" rx="2.5" ry="2.5" style="stroke:#181818;stroke-width:0.5;" width="232.3037" x="3325.14" y="233"/><text fill="#000000" font-family="sans-serif" font-size="14" lengthAdjust="spacing" textLength="212.3037" x="3335.14" y="255.9951">CONSULTAR_CONFIGURACION</text></g><!--entity CONSULTAR_REPORTES--><g id="elem_CONSULTAR_REPORTES"><rect fill="#F1F1F1" height="36.2969" rx="2.5" ry="2.5" style="stroke:#181818;stroke-width:0.5;" width="187.1045" x="4262.64" y="233"/><text fill="#000000" font-family="sans-serif" font-size="14" lengthAdjust="spacing" textLength="167.1045" x="4272.64" y="255.9951">CONSULTAR_REPORTES</text></g><!--entity CREAR_USUARIO--><g id="elem_CREAR_USUARIO"><rect fill="#F1F1F1" height="36.2969" rx="2.5" ry="2.5" style="stroke:#181818;stroke-width:0.5;" width="138.4873" x="302.14" y="346"/><text fill="#000000" font-family="sans-serif" font-size="14" lengthAdjust="spacing" textLength="118.4873" x="312.14" y="368.9951">CREAR_USUARIO</text></g><!--entity MODIFICAR_USUARIO--><g id="elem_MODIFICAR_USUARIO"><rect fill="#F1F1F1" height="36.2969" rx="2.5" ry="2.5" style="stroke:#181818;stroke-width:0.5;" width="170.1035" x="27.14" y="346"/><text fill="#000000" font-family="sans-serif" font-size="14" lengthAdjust="spacing" textLength="150.1035" x="37.14" y="368.9951">MODIFICAR_USUARIO</text></g><!--entity ELIMINAR_USUARIO--><g id="elem_ELIMINAR_USUARIO"><rect fill="#F1F1F1" height="36.2969" rx="2.5" ry="2.5" style="stroke:#181818;stroke-width:0.5;" width="157.5938" x="621.14" y="346"/><text fill="#000000" font-family="sans-serif" font-size="14" lengthAdjust="spacing" textLength="137.5938" x="631.14" y="368.9951">ELIMINAR_USUARIO</text></g><!--entity CREAR_RUTINA--><g id="elem_CREAR_RUTINA"><rect fill="#F1F1F1" height="36.2969" rx="2.5" ry="2.5" style="stroke:#181818;stroke-width:0.5;" width="127.3584" x="943.64" y="346"/><text fill="#000000" font-family="sans-serif" font-size="14" lengthAdjust="spacing" textLength="107.3584" x="953.64" y="368.9951">CREAR_RUTINA</text></g><!--entity MODIFICAR_RUTINA--><g id="elem_MODIFICAR_RUTINA"><rect fill="#F1F1F1" height="36.2969" rx="2.5" ry="2.5" style="stroke:#181818;stroke-width:0.5;" width="158.9746" x="1225.64" y="346"/><text fill="#000000" font-family="sans-serif" font-size="14" lengthAdjust="spacing" textLength="138.9746" x="1235.64" y="368.9951">MODIFICAR_RUTINA</text></g><!--entity ELIMINAR_RUTINA--><g id="elem_ELIMINAR_RUTINA"><rect fill="#F1F1F1" height="36.2969" rx="2.5" ry="2.5" style="stroke:#181818;stroke-width:0.5;" width="146.4648" x="1564.14" y="346"/><text fill="#000000" font-family="sans-serif" font-size="14" lengthAdjust="spacing" textLength="126.4648" x="1574.14" y="368.9951">ELIMINAR_RUTINA</text></g><!--entity BATERIA_EJERCICIOS--><g id="elem_BATERIA_EJERCICIOS"><rect fill="#F1F1F1" height="36.2969" rx="2.5" ry="2.5" style="stroke:#181818;stroke-width:0.5;" width="166.2754" x="1944.14" y="346"/><text fill="#000000" font-family="sans-serif" font-size="14" lengthAdjust="spacing" textLength="146.2754" x="1954.14" y="368.9951">BATERIA_EJERCICIOS</text></g><!--entity CREAR_RETO--><g id="elem_CREAR_RETO"><rect fill="#F1F1F1" height="36.2969" rx="2.5" ry="2.5" style="stroke:#181818;stroke-width:0.5;" width="112.7979" x="2594.64" y="346"/><text fill="#000000" font-family="sans-serif" font-size="14" lengthAdjust="spacing" textLength="92.7979" x="2604.64" y="368.9951">CREAR_RETO</text></g><!--entity MODIFICAR_RETO--><g id="elem_MODIFICAR_RETO"><rect fill="#F1F1F1" height="36.2969" rx="2.5" ry="2.5" style="stroke:#181818;stroke-width:0.5;" width="144.4141" x="2308.14" y="346"/><text fill="#000000" font-family="sans-serif" font-size="14" lengthAdjust="spacing" textLength="124.4141" x="2318.14" y="368.9951">MODIFICAR_RETO</text></g><!--entity ELIMINAR_RETO--><g id="elem_ELIMINAR_RETO"><rect fill="#F1F1F1" height="36.2969" rx="2.5" ry="2.5" style="stroke:#181818;stroke-width:0.5;" width="131.9043" x="2840.14" y="346"/><text fill="#000000" font-family="sans-serif" font-size="14" lengthAdjust="spacing" textLength="111.9043" x="2850.14" y="368.9951">ELIMINAR_RETO</text></g><!--entity CONFIGURAR_SISTEMA--><g id="elem_CONFIGURAR_SISTEMA"><rect fill="#F1F1F1" height="36.2969" rx="2.5" ry="2.5" style="stroke:#181818;stroke-width:0.5;" width="181.5332" x="3519.14" y="346"/><text fill="#000000" font-family="sans-serif" font-size="14" lengthAdjust="spacing" textLength="161.5332" x="3529.14" y="368.9951">CONFIGURAR_SISTEMA</text></g><!--entity ADMINISTRAR_PERMISOS--><g id="elem_ADMINISTRAR_PERMISOS"><rect fill="#F1F1F1" height="36.2969" rx="2.5" ry="2.5" style="stroke:#181818;stroke-width:0.5;" width="196.6543" x="3151.64" y="346"/><text fill="#000000" font-family="sans-serif" font-size="14" lengthAdjust="spacing" textLength="176.6543" x="3161.64" y="368.9951">ADMINISTRAR_PERMISOS</text></g><!--entity AJUSTES_GENERALES--><g id="elem_AJUSTES_GENERALES"><rect fill="#F1F1F1" height="36.2969" rx="2.5" ry="2.5" style="stroke:#181818;stroke-width:0.5;" width="169.9736" x="3881.14" y="346"/><text fill="#000000" font-family="sans-serif" font-size="14" lengthAdjust="spacing" textLength="149.9736" x="3891.14" y="368.9951">AJUSTES_GENERALES</text></g><!--entity CONSULTAR_REPORTES_DETALLADOS--><g id="elem_CONSULTAR_REPORTES_DETALLADOS"><rect fill="#F1F1F1" height="36.2969" rx="2.5" ry="2.5" style="stroke:#181818;stroke-width:0.5;" width="287.7227" x="4562.14" y="346"/><text fill="#000000" font-family="sans-serif" font-size="14" lengthAdjust="spacing" textLength="267.7227" x="4572.14" y="368.9951">CONSULTAR_REPORTES_DETALLADOS</text></g><!--entity DESCARGAR_ESTADISTICAS--><g id="elem_DESCARGAR_ESTADISTICAS"><rect fill="#F1F1F1" height="36.2969" rx="2.5" ry="2.5" style="stroke:#181818;stroke-width:0.5;" width="215.3232" x="4232.64" y="346"/><text fill="#000000" font-family="sans-serif" font-size="14" lengthAdjust="spacing" textLength="195.3232" x="4242.64" y="368.9951">DESCARGAR_ESTADISTICAS</text></g><!--link ADMINISTRADOR to PAGINA_PRINCIPAL--><g id="link_ADMINISTRADOR_PAGINA_PRINCIPAL"><path d="M2440.41,43.04 C2426.9,50.11 2413.95,59.83 2406.14,73 C2394.13,93.25 2409.5179,106.649 2433.6879,117.519 " fill="none" id="ADMINISTRADOR-to-PAGINA_PRINCIPAL" style="stroke:#181818;stroke-width:1;"/><polygon fill="#181818" points="2439.16,119.98,2432.5925,112.6405,2434.5999,117.9292,2429.3112,119.9366,2439.16,119.98" style="stroke:#181818;stroke-width:1;"/><text fill="#000000" font-family="sans-serif" font-size="13" lengthAdjust="spacing" textLength="124.4775" x="2407.14" y="86.0669">Ingresar al sistema</text></g><!--link PAGINA_PRINCIPAL to ADMINISTRADOR--><g id="link_PAGINA_PRINCIPAL_ADMINISTRADOR"><path d="M2514.34,119.73 C2522.86,111.72 2531.62,101.44 2536.14,90 C2542.98,72.69 2534.1434,59.4374 2520.4034,47.2174 " fill="none" id="PAGINA_PRINCIPAL-to-ADMINISTRADOR" style="stroke:#181818;stroke-width:1;"/><polygon fill="#181818" points="2515.92,43.23,2519.9868,52.2,2519.6561,46.5528,2525.3033,46.2222,2515.92,43.23" style="stroke:#181818;stroke-width:1;"/><text fill="#000000" font-family="sans-serif" font-size="13" lengthAdjust="spacing" textLength="88.0356" x="2539.14" y="86.0669">Cerrar Sesi&#243;n</text></g><!--link PAGINA_PRINCIPAL to CONSULTAR_USUARIOS--><g id="link_PAGINA_PRINCIPAL_CONSULTAR_USUARIOS"><path d="M2415.48,143.37 C2108.94,160.84 977.8403,225.2887 643.2903,244.3487 " fill="none" id="PAGINA_PRINCIPAL-to-CONSULTAR_USUARIOS" style="stroke:#181818;stroke-width:1;"/><polygon fill="#181818" points="637.3,244.69,646.5129,248.1716,642.2919,244.4056,646.0579,240.1846,637.3,244.69" style="stroke:#181818;stroke-width:1;"/><text fill="#000000" font-family="sans-serif" font-size="13" lengthAdjust="spacing" textLength="136.1064" x="1636.14" y="199.0669">Administrar Usuarios</text></g><!--link CONSULTAR_USUARIOS to PAGINA_PRINCIPAL--><g id="link_CONSULTAR_USUARIOS_PAGINA_PRINCIPAL"><path d="M637.4,241.15 C784.35,227.49 1078.86,201.25 1329.14,186 C1738.34,161.06 2223.3723,146.2949 2409.5423,141.1749 " fill="none" id="CONSULTAR_USUARIOS-to-PAGINA_PRINCIPAL" style="stroke:#181818;stroke-width:1;"/><polygon fill="#181818" points="2415.54,141.01,2406.4334,137.2589,2410.5419,141.1475,2406.6534,145.2559,2415.54,141.01" style="stroke:#181818;stroke-width:1;"/><text fill="#000000" font-family="sans-serif" font-size="13" lengthAdjust="spacing" textLength="63.1973" x="1330.14" y="199.0669">Ir al inicio</text></g><!--link PAGINA_PRINCIPAL to CONSULTAR_RUTINAS--><g id="link_PAGINA_PRINCIPAL_CONSULTAR_RUTINAS"><path d="M2415.53,147.91 C2337.23,157.11 2212.15,172.04 2104.14,186 C1972.13,203.06 1825.2411,223.5016 1731.6311,236.7116 " fill="none" id="PAGINA_PRINCIPAL-to-CONSULTAR_RUTINAS" style="stroke:#181818;stroke-width:1;"/><polygon fill="#181818" points="1725.69,237.55,1735.1606,240.2532,1730.6409,236.8513,1734.0428,232.3316,1725.69,237.55" style="stroke:#181818;stroke-width:1;"/><text fill="#000000" font-family="sans-serif" font-size="13" lengthAdjust="spacing" textLength="116.1494" x="2105.14" y="199.0669">Gestionar Rutinas</text></g><!--link CONSULTAR_RUTINAS to PAGINA_PRINCIPAL--><g id="link_CONSULTAR_RUTINAS_PAGINA_PRINCIPAL"><path d="M1697.06,232.94 C1750.41,218.18 1831.4,197.45 1903.14,186 C2085.48,156.89 2296.6042,145.7037 2409.4442,141.4937 " fill="none" id="CONSULTAR_RUTINAS-to-PAGINA_PRINCIPAL" style="stroke:#181818;stroke-width:1;"/><polygon fill="#181818" points="2415.44,141.27,2406.2971,137.6083,2410.4435,141.4564,2406.5954,145.6028,2415.44,141.27" style="stroke:#181818;stroke-width:1;"/><text fill="#000000" font-family="sans-serif" font-size="13" lengthAdjust="spacing" textLength="63.1973" x="1904.14" y="199.0669">Ir al inicio</text></g><!--link PAGINA_PRINCIPAL to CONSULTAR_RETOS--><g id="link_PAGINA_PRINCIPAL_CONSULTAR_RETOS"><path d="M2521.43,156.15 C2533.68,164.22 2547.5,174.57 2558.14,186 C2571.26,200.1 2579.5255,213.9292 2586.4655,227.6092 " fill="none" id="PAGINA_PRINCIPAL-to-CONSULTAR_RETOS" style="stroke:#181818;stroke-width:1;"/><polygon fill="#181818" points="2589.18,232.96,2588.6754,223.1241,2586.9179,228.501,2581.541,226.7434,2589.18,232.96" style="stroke:#181818;stroke-width:1;"/><text fill="#000000" font-family="sans-serif" font-size="13" lengthAdjust="spacing" textLength="104.0444" x="2572.14" y="199.0669">Gestionar Retos</text></g><!--link CONSULTAR_RETOS to PAGINA_PRINCIPAL--><g id="link_CONSULTAR_RETOS_PAGINA_PRINCIPAL"><path d="M2522.34,232.9 C2507.66,226.04 2494.07,216.43 2485.14,203 C2475.98,189.22 2477.7727,175.6548 2482.5827,161.8748 " fill="none" id="CONSULTAR_RETOS-to-PAGINA_PRINCIPAL" style="stroke:#181818;stroke-width:1;"/><polygon fill="#181818" points="2484.56,156.21,2477.8174,163.389,2482.9122,160.9307,2485.3705,166.0254,2484.56,156.21" style="stroke:#181818;stroke-width:1;"/><text fill="#000000" font-family="sans-serif" font-size="13" lengthAdjust="spacing" textLength="63.1973" x="2486.14" y="199.0669">Ir al inicio</text></g><!--link PAGINA_PRINCIPAL to CONSULTAR_CONFIGURACION--><g id="link_PAGINA_PRINCIPAL_CONSULTAR_CONFIGURACION"><path d="M2568.77,144.01 C2673.6,151.25 2867.49,165.98 3032.14,186 C3139.34,199.04 3255.6754,217.811 3338.3854,231.921 " fill="none" id="PAGINA_PRINCIPAL-to-CONSULTAR_CONFIGURACION" style="stroke:#181818;stroke-width:1;"/><polygon fill="#181818" points="3344.3,232.93,3336.1008,227.4735,3339.3712,232.0892,3334.7555,235.3595,3344.3,232.93" style="stroke:#181818;stroke-width:1;"/><text fill="#000000" font-family="sans-serif" font-size="13" lengthAdjust="spacing" textLength="140.8418" x="3158.14" y="199.0669">Configurar el Sistema</text></g><!--link CONSULTAR_CONFIGURACION to PAGINA_PRINCIPAL--><g id="link_CONSULTAR_CONFIGURACION_PAGINA_PRINCIPAL"><path d="M3325.11,239.96 C3227.39,231.21 3083.98,217.64 2959.14,203 C2821.37,186.85 2667.2463,164.9021 2574.8063,151.3221 " fill="none" id="CONSULTAR_CONFIGURACION-to-PAGINA_PRINCIPAL" style="stroke:#181818;stroke-width:1;"/><polygon fill="#181818" points="2568.87,150.45,2577.193,155.7156,2573.8169,151.1767,2578.3558,147.8006,2568.87,150.45" style="stroke:#181818;stroke-width:1;"/><text fill="#000000" font-family="sans-serif" font-size="13" lengthAdjust="spacing" textLength="63.1973" x="2960.14" y="199.0669">Ir al inicio</text></g><!--link PAGINA_PRINCIPAL to CONSULTAR_REPORTES--><g id="link_PAGINA_PRINCIPAL_CONSULTAR_REPORTES"><path d="M2568.72,140.33 C2761.35,144.01 3281.53,156.15 3714.14,186 C3909.55,199.49 4131.6098,223.7204 4256.4998,238.1704 " fill="none" id="PAGINA_PRINCIPAL-to-CONSULTAR_REPORTES" style="stroke:#181818;stroke-width:1;"/><polygon fill="#181818" points="4262.46,238.86,4253.9794,233.8521,4257.4931,238.2853,4253.0599,241.7991,4262.46,238.86" style="stroke:#181818;stroke-width:1;"/><text fill="#000000" font-family="sans-serif" font-size="13" lengthAdjust="spacing" textLength="178.0581" x="3909.14" y="199.0669">Ver Reportes y Estad&#237;sticas</text></g><!--link CONSULTAR_REPORTES to PAGINA_PRINCIPAL--><g id="link_CONSULTAR_REPORTES_PAGINA_PRINCIPAL"><path d="M4262.47,244.18 C4079.09,232.81 3659.8,206.93 3307.14,186 C3035.68,169.89 2719.2904,151.8696 2574.8204,143.6796 " fill="none" id="CONSULTAR_REPORTES-to-PAGINA_PRINCIPAL" style="stroke:#181818;stroke-width:1;"/><polygon fill="#181818" points="2568.83,143.34,2577.5892,147.843,2573.822,143.623,2578.042,139.8558,2568.83,143.34" style="stroke:#181818;stroke-width:1;"/><text fill="#000000" font-family="sans-serif" font-size="13" lengthAdjust="spacing" textLength="63.1973" x="3567.14" y="199.0669">Ir al inicio</text></g><!--link CONSULTAR_USUARIOS to CREAR_USUARIO--><g id="link_CONSULTAR_USUARIOS_CREAR_USUARIO"><path d="M451.03,259.71 C396.86,266.35 336,278.25 319.14,299 C306.23,314.89 319.0763,329.5284 337.2463,342.4184 " fill="none" id="CONSULTAR_USUARIOS-to-CREAR_USUARIO" style="stroke:#181818;stroke-width:1;"/><polygon fill="#181818" points="342.14,345.89,337.1139,337.4201,338.062,342.997,332.4851,343.945,342.14,345.89" style="stroke:#181818;stroke-width:1;"/><text fill="#000000" font-family="sans-serif" font-size="13" lengthAdjust="spacing" textLength="96.04" x="320.14" y="312.0669">Crear Usuarios</text></g><!--link CREAR_USUARIO to CONSULTAR_USUARIOS--><g id="link_CREAR_USUARIO_CONSULTAR_USUARIOS"><path d="M394.91,345.95 C413.51,332.77 440.17,314.26 464.14,299 C480.31,288.7 493.532,280.8268 508.622,272.1268 " fill="none" id="CREAR_USUARIO-to-CONSULTAR_USUARIOS" style="stroke:#181818;stroke-width:1;"/><polygon fill="#181818" points="513.82,269.13,504.0251,270.1599,509.4884,271.6274,508.0209,277.0906,513.82,269.13" style="stroke:#181818;stroke-width:1;"/><text fill="#000000" font-family="sans-serif" font-size="13" lengthAdjust="spacing" textLength="126.4707" x="465.14" y="312.0669">Ir al men&#250; Usuarios</text></g><!--link CONSULTAR_USUARIOS to MODIFICAR_USUARIO--><g id="link_CONSULTAR_USUARIOS_MODIFICAR_USUARIO"><path d="M451.01,258.14 C361.1,265.16 232.04,278.4 186.14,299 C162.27,309.71 144.3803,326.2542 130.6903,341.2842 " fill="none" id="CONSULTAR_USUARIOS-to-MODIFICAR_USUARIO" style="stroke:#181818;stroke-width:1;"/><polygon fill="#181818" points="126.65,345.72,135.6676,341.7599,130.0169,342.0235,129.7533,336.3728,126.65,345.72" style="stroke:#181818;stroke-width:1;"/><text fill="#000000" font-family="sans-serif" font-size="13" lengthAdjust="spacing" textLength="119.9897" x="187.14" y="312.0669">Modificar Usuarios</text></g><!--link MODIFICAR_USUARIO to CONSULTAR_USUARIOS--><g id="link_MODIFICAR_USUARIO_CONSULTAR_USUARIOS"><path d="M58.73,345.94 C30.94,334.35 6,317.76 23.14,299 C51.36,268.12 302.8419,257.4924 444.9519,253.8824 " fill="none" id="MODIFICAR_USUARIO-to-CONSULTAR_USUARIOS" style="stroke:#181818;stroke-width:1;"/><polygon fill="#181818" points="450.95,253.73,441.8513,249.9598,445.9516,253.857,442.0545,257.9573,450.95,253.73" style="stroke:#181818;stroke-width:1;"/><text fill="#000000" font-family="sans-serif" font-size="13" lengthAdjust="spacing" textLength="126.4707" x="24.14" y="312.0669">Ir al men&#250; Usuarios</text></g><!--link CONSULTAR_USUARIOS to ELIMINAR_USUARIO--><g id="link_CONSULTAR_USUARIOS_ELIMINAR_USUARIO"><path d="M637.23,261.04 C687.25,268.04 741.75,279.85 757.14,299 C770.28,315.35 756.6744,329.8304 737.2944,342.4804 " fill="none" id="CONSULTAR_USUARIOS-to-ELIMINAR_USUARIO" style="stroke:#181818;stroke-width:1;"/><polygon fill="#181818" points="732.27,345.76,741.9929,344.1902,736.457,343.027,737.6202,337.491,732.27,345.76" style="stroke:#181818;stroke-width:1;"/><text fill="#000000" font-family="sans-serif" font-size="13" lengthAdjust="spacing" textLength="113.5723" x="763.14" y="312.0669">Eliminar Usuarios</text></g><!--link ELIMINAR_USUARIO to CONSULTAR_USUARIOS--><g id="link_ELIMINAR_USUARIO_CONSULTAR_USUARIOS"><path d="M668.67,345.79 C653.9,337.33 636.26,326.68 621.14,316 C600.41,301.36 582.7765,286.5726 567.5865,273.1526 " fill="none" id="ELIMINAR_USUARIO-to-CONSULTAR_USUARIOS" style="stroke:#181818;stroke-width:1;"/><polygon fill="#181818" points="563.09,269.18,567.1864,278.1365,566.8371,272.4905,572.4832,272.1412,563.09,269.18" style="stroke:#181818;stroke-width:1;"/><text fill="#000000" font-family="sans-serif" font-size="13" lengthAdjust="spacing" textLength="126.4707" x="622.14" y="312.0669">Ir al men&#250; Usuarios</text></g><!--link CONSULTAR_RUTINAS to CREAR_RUTINA--><g id="link_CONSULTAR_RUTINAS_CREAR_RUTINA"><path d="M1550.3,252.58 C1452.8,255.06 1291.47,264.65 1157.14,299 C1114.76,309.84 1074.2553,328.1944 1044.5453,343.2044 " fill="none" id="CONSULTAR_RUTINAS-to-CREAR_RUTINA" style="stroke:#181818;stroke-width:1;"/><polygon fill="#181818" points="1039.19,345.91,1049.0268,345.4218,1043.6528,343.6553,1045.4193,338.2814,1039.19,345.91" style="stroke:#181818;stroke-width:1;"/><text fill="#000000" font-family="sans-serif" font-size="13" lengthAdjust="spacing" textLength="88.8228" x="1158.14" y="312.0669">Crear Rutinas</text></g><!--link CREAR_RUTINA to CONSULTAR_RUTINAS--><g id="link_CREAR_RUTINA_CONSULTAR_RUTINAS"><path d="M989.68,345.78 C977.61,331.8 965.75,312.3 978.14,299 C1016.33,257.99 1373.74,252.2055 1544.41,251.7655 " fill="none" id="CREAR_RUTINA-to-CONSULTAR_RUTINAS" style="stroke:#181818;stroke-width:1;"/><polygon fill="#181818" points="1550.41,251.75,1541.3997,247.7732,1545.41,251.7629,1541.4203,255.7732,1550.41,251.75" style="stroke:#181818;stroke-width:1;"/><text fill="#000000" font-family="sans-serif" font-size="13" lengthAdjust="spacing" textLength="119.2534" x="979.14" y="312.0669">Ir al men&#250; Rutinas</text></g><!--link CONSULTAR_RUTINAS to MODIFICAR_RUTINA--><g id="link_CONSULTAR_RUTINAS_MODIFICAR_RUTINA"><path d="M1550.58,265.74 C1511.49,273.29 1465.28,284.18 1425.14,299 C1391.69,311.34 1361.08,328.2782 1337.39,342.6482 " fill="none" id="CONSULTAR_RUTINAS-to-MODIFICAR_RUTINA" style="stroke:#181818;stroke-width:1;"/><polygon fill="#181818" points="1332.26,345.76,1342.0295,344.5123,1336.535,343.1669,1337.8805,337.6723,1332.26,345.76" style="stroke:#181818;stroke-width:1;"/><text fill="#000000" font-family="sans-serif" font-size="13" lengthAdjust="spacing" textLength="112.7725" x="1426.14" y="312.0669">Modificar Rutinas</text></g><!--link MODIFICAR_RUTINA to CONSULTAR_RUTINAS--><g id="link_MODIFICAR_RUTINA_CONSULTAR_RUTINAS"><path d="M1279.63,346 C1262.73,332.68 1245.91,313.97 1259.14,299 C1278.13,277.51 1438.5422,263.9822 1544.4522,257.2222 " fill="none" id="MODIFICAR_RUTINA-to-CONSULTAR_RUTINAS" style="stroke:#181818;stroke-width:1;"/><polygon fill="#181818" points="1550.44,256.84,1541.2035,253.4214,1545.4502,257.1585,1541.7131,261.4052,1550.44,256.84" style="stroke:#181818;stroke-width:1;"/><text fill="#000000" font-family="sans-serif" font-size="13" lengthAdjust="spacing" textLength="119.2534" x="1260.14" y="312.0669">Ir al men&#250; Rutinas</text></g><!--link CONSULTAR_RUTINAS to ELIMINAR_RUTINA--><g id="link_CONSULTAR_RUTINAS_ELIMINAR_RUTINA"><path d="M1660.1,269.15 C1673.03,281.47 1685.68,298.86 1679.14,316 C1674.77,327.45 1670.4639,333.679 1662.1939,341.789 " fill="none" id="CONSULTAR_RUTINAS-to-ELIMINAR_RUTINA" style="stroke:#181818;stroke-width:1;"/><polygon fill="#181818" points="1657.91,345.99,1667.1365,342.5444,1661.4799,342.4892,1661.5352,336.8326,1657.91,345.99" style="stroke:#181818;stroke-width:1;"/><text fill="#000000" font-family="sans-serif" font-size="13" lengthAdjust="spacing" textLength="106.355" x="1682.14" y="312.0669">Eliminar Rutinas</text></g><!--link ELIMINAR_RUTINA to CONSULTAR_RUTINAS--><g id="link_ELIMINAR_RUTINA_CONSULTAR_RUTINAS"><path d="M1583.22,345.93 C1558.88,335.08 1537.99,319.26 1550.14,299 C1558.07,285.78 1565.7875,278.8203 1579.4375,271.7803 " fill="none" id="ELIMINAR_RUTINA-to-CONSULTAR_RUTINAS" style="stroke:#181818;stroke-width:1;"/><polygon fill="#181818" points="1584.77,269.03,1574.9377,269.6004,1580.3262,271.3219,1578.6047,276.7104,1584.77,269.03" style="stroke:#181818;stroke-width:1;"/><text fill="#000000" font-family="sans-serif" font-size="13" lengthAdjust="spacing" textLength="119.2534" x="1551.14" y="312.0669">Ir al men&#250; Rutinas</text></g><!--link CONSULTAR_RUTINAS to BATERIA_EJERCICIOS--><g id="link_CONSULTAR_RUTINAS_BATERIA_EJERCICIOS"><path d="M1725.77,255.24 C1815.05,260.02 1946.17,271.6 1988.14,299 C2004.92,309.96 2013.4259,325.3056 2019.2959,340.2456 " fill="none" id="CONSULTAR_RUTINAS-to-BATERIA_EJERCICIOS" style="stroke:#181818;stroke-width:1;"/><polygon fill="#181818" points="2021.49,345.83,2021.9217,335.9906,2019.6615,341.1763,2014.4758,338.9161,2021.49,345.83" style="stroke:#181818;stroke-width:1;"/><text fill="#000000" font-family="sans-serif" font-size="13" lengthAdjust="spacing" textLength="196.644" x="2007.14" y="312.0669">Modificar Bater&#237;a de Ejercicios</text></g><!--link BATERIA_EJERCICIOS to CONSULTAR_RUTINAS--><g id="link_BATERIA_EJERCICIOS_CONSULTAR_RUTINAS"><path d="M1965.66,345.94 C1933.84,337.08 1894.39,326.03 1859.14,316 C1804.01,300.31 1747.0001,283.7798 1702.4901,270.7998 " fill="none" id="BATERIA_EJERCICIOS-to-CONSULTAR_RUTINAS" style="stroke:#181818;stroke-width:1;"/><polygon fill="#181818" points="1696.73,269.12,1704.2503,275.4797,1701.5301,270.5198,1706.4899,267.7996,1696.73,269.12" style="stroke:#181818;stroke-width:1;"/><text fill="#000000" font-family="sans-serif" font-size="13" lengthAdjust="spacing" textLength="119.2534" x="1860.14" y="312.0669">Ir al men&#250; Rutinas</text></g><!--link BATERIA_EJERCICIOS to PAGINA_PRINCIPAL--><g id="link_BATERIA_EJERCICIOS_PAGINA_PRINCIPAL"><path d="M2110.48,347.69 C2142.96,340.23 2180.02,329.82 2212.14,316 C2315.95,271.34 2420.6116,194.6278 2465.8716,159.6678 " fill="none" id="BATERIA_EJERCICIOS-to-PAGINA_PRINCIPAL" style="stroke:#181818;stroke-width:1;"/><polygon fill="#181818" points="2470.62,156,2461.0522,158.3361,2466.663,159.0565,2465.9426,164.6673,2470.62,156" style="stroke:#181818;stroke-width:1;"/><text fill="#000000" font-family="sans-serif" font-size="13" lengthAdjust="spacing" textLength="63.1973" x="2363.14" y="255.5669">Ir al inicio</text></g><!--link CONSULTAR_RETOS to CREAR_RETO--><g id="link_CONSULTAR_RETOS_CREAR_RETO"><path d="M2592.12,269.16 C2589.16,282.56 2587.21,301.31 2594.14,316 C2599.88,328.18 2605.6486,334.7496 2616.1886,342.4196 " fill="none" id="CONSULTAR_RETOS-to-CREAR_RETO" style="stroke:#181818;stroke-width:1;"/><polygon fill="#181818" points="2621.04,345.95,2616.1165,337.4201,2616.9971,343.008,2611.4093,343.8887,2621.04,345.95" style="stroke:#181818;stroke-width:1;"/><text fill="#000000" font-family="sans-serif" font-size="13" lengthAdjust="spacing" textLength="76.7178" x="2595.14" y="312.0669">Crear Retos</text></g><!--link CREAR_RETO to CONSULTAR_RETOS--><g id="link_CREAR_RETO_CONSULTAR_RETOS"><path d="M2665.99,345.82 C2675.53,332.57 2684.69,314.04 2676.14,299 C2668.8,286.1 2661.6122,279.2887 2648.7522,272.1287 " fill="none" id="CREAR_RETO-to-CONSULTAR_RETOS" style="stroke:#181818;stroke-width:1;"/><polygon fill="#181818" points="2643.51,269.21,2649.4276,277.0829,2647.8785,271.6423,2653.3192,270.0932,2643.51,269.21" style="stroke:#181818;stroke-width:1;"/><text fill="#000000" font-family="sans-serif" font-size="13" lengthAdjust="spacing" textLength="107.1484" x="2681.14" y="312.0669">Ir al men&#250; Retos</text></g><!--link CONSULTAR_RETOS to MODIFICAR_RETO--><g id="link_CONSULTAR_RETOS_MODIFICAR_RETO"><path d="M2548.99,269.01 C2527.5,277.19 2502.13,287.67 2480.14,299 C2453.02,312.97 2428.7609,328.7615 2408.9709,342.4815 " fill="none" id="CONSULTAR_RETOS-to-MODIFICAR_RETO" style="stroke:#181818;stroke-width:1;"/><polygon fill="#181818" points="2404.04,345.9,2413.7154,344.0595,2408.1491,343.0513,2409.1574,337.485,2404.04,345.9" style="stroke:#181818;stroke-width:1;"/><text fill="#000000" font-family="sans-serif" font-size="13" lengthAdjust="spacing" textLength="100.6675" x="2481.14" y="312.0669">Modificar Retos</text></g><!--link MODIFICAR_RETO to CONSULTAR_RETOS--><g id="link_MODIFICAR_RETO_CONSULTAR_RETOS"><path d="M2354.97,345.86 C2338.62,332.63 2322.5,314.11 2335.14,299 C2358.04,271.62 2442.7446,260.5888 2511.0546,255.8088 " fill="none" id="MODIFICAR_RETO-to-CONSULTAR_RETOS" style="stroke:#181818;stroke-width:1;"/><polygon fill="#181818" points="2517.04,255.39,2507.7827,252.028,2512.0522,255.739,2508.3412,260.0085,2517.04,255.39" style="stroke:#181818;stroke-width:1;"/><text fill="#000000" font-family="sans-serif" font-size="13" lengthAdjust="spacing" textLength="107.1484" x="2336.14" y="312.0669">Ir al men&#250; Retos</text></g><!--link CONSULTAR_RETOS to ELIMINAR_RETO--><g id="link_CONSULTAR_RETOS_ELIMINAR_RETO"><path d="M2677.17,256.41 C2781.99,263.03 2954.82,277.12 2974.14,299 C2989.16,316.01 2972.6894,330.6906 2949.8994,343.1006 " fill="none" id="CONSULTAR_RETOS-to-ELIMINAR_RETO" style="stroke:#181818;stroke-width:1;"/><polygon fill="#181818" points="2944.63,345.97,2954.447,345.1789,2949.0212,343.5788,2950.6212,338.153,2944.63,345.97" style="stroke:#181818;stroke-width:1;"/><text fill="#000000" font-family="sans-serif" font-size="13" lengthAdjust="spacing" textLength="94.25" x="2980.14" y="312.0669">Eliminar Retos</text></g><!--link ELIMINAR_RETO to CONSULTAR_RETOS--><g id="link_ELIMINAR_RETO_CONSULTAR_RETOS"><path d="M2881.7,345.75 C2860.3,331.37 2827.9,311.32 2797.14,299 C2758.89,283.69 2720.3312,273.8082 2683.0612,266.2782 " fill="none" id="ELIMINAR_RETO-to-CONSULTAR_RETOS" style="stroke:#181818;stroke-width:1;"/><polygon fill="#181818" points="2677.18,265.09,2685.2096,270.7931,2682.081,266.0802,2686.7939,262.9516,2677.18,265.09" style="stroke:#181818;stroke-width:1;"/><text fill="#000000" font-family="sans-serif" font-size="13" lengthAdjust="spacing" textLength="107.1484" x="2833.14" y="312.0669">Ir al men&#250; Retos</text></g><!--link CONSULTAR_CONFIGURACION to CONFIGURAR_SISTEMA--><g id="link_CONSULTAR_CONFIGURACION_CONFIGURAR_SISTEMA"><path d="M3462.82,269.02 C3480.13,282.34 3505.2,301.06 3528.14,316 C3544.36,326.57 3557.8054,334.4656 3573.2454,343.0456 " fill="none" id="CONSULTAR_CONFIGURACION-to-CONFIGURAR_SISTEMA" style="stroke:#181818;stroke-width:1;"/><polygon fill="#181818" points="3578.49,345.96,3572.566,338.0919,3574.1195,343.5313,3568.6801,345.0848,3578.49,345.96" style="stroke:#181818;stroke-width:1;"/><text fill="#000000" font-family="sans-serif" font-size="13" lengthAdjust="spacing" textLength="125.0996" x="3529.14" y="312.0669">Configurar Sistema</text></g><!--link CONFIGURAR_SISTEMA to CONSULTAR_CONFIGURACION--><g id="link_CONFIGURAR_SISTEMA_CONSULTAR_CONFIGURACION"><path d="M3637.34,345.97 C3654.71,332.97 3671.8,314.68 3659.14,299 C3645.49,282.09 3607.8243,271.9298 3563.1643,264.7698 " fill="none" id="CONFIGURAR_SISTEMA-to-CONSULTAR_CONFIGURACION" style="stroke:#181818;stroke-width:1;"/><polygon fill="#181818" points="3557.24,263.82,3565.4933,269.1943,3562.177,264.6115,3566.7597,261.2951,3557.24,263.82" style="stroke:#181818;stroke-width:1;"/><text fill="#000000" font-family="sans-serif" font-size="13" lengthAdjust="spacing" textLength="160.5068" x="3664.14" y="312.0669">Ir al men&#250; Configuraci&#243;n</text></g><!--link CONSULTAR_CONFIGURACION to ADMINISTRAR_PERMISOS--><g id="link_CONSULTAR_CONFIGURACION_ADMINISTRAR_PERMISOS"><path d="M3409.49,269.13 C3393.43,277.91 3373.66,288.87 3356.14,299 C3329.34,314.49 3304.2655,329.6744 3282.9755,342.7244 " fill="none" id="CONSULTAR_CONFIGURACION-to-ADMINISTRAR_PERMISOS" style="stroke:#181818;stroke-width:1;"/><polygon fill="#181818" points="3277.86,345.86,3287.6236,344.5669,3282.1229,343.247,3283.4428,337.7463,3277.86,345.86" style="stroke:#181818;stroke-width:1;"/><text fill="#000000" font-family="sans-serif" font-size="13" lengthAdjust="spacing" textLength="138.8867" x="3357.14" y="312.0669">Administrar Permisos</text></g><!--link ADMINISTRAR_PERMISOS to CONSULTAR_CONFIGURACION--><g id="link_ADMINISTRAR_PERMISOS_CONSULTAR_CONFIGURACION"><path d="M3195.42,345.97 C3168.04,334.6 3143.85,318.24 3160.14,299 C3181.55,273.71 3251.5591,262.498 3319.1191,257.098 " fill="none" id="ADMINISTRAR_PERMISOS-to-CONSULTAR_CONFIGURACION" style="stroke:#181818;stroke-width:1;"/><polygon fill="#181818" points="3325.1,256.62,3315.8099,253.3498,3320.1159,257.0184,3316.4473,261.3244,3325.1,256.62" style="stroke:#181818;stroke-width:1;"/><text fill="#000000" font-family="sans-serif" font-size="13" lengthAdjust="spacing" textLength="160.5068" x="3161.14" y="312.0669">Ir al men&#250; Configuraci&#243;n</text></g><!--link CONSULTAR_CONFIGURACION to AJUSTES_GENERALES--><g id="link_CONSULTAR_CONFIGURACION_AJUSTES_GENERALES"><path d="M3557.21,252.44 C3727.74,254.31 4029.54,262.77 4063.14,299 C4081.11,318.38 4060.8924,332.5321 4031.3924,343.8421 " fill="none" id="CONSULTAR_CONFIGURACION-to-AJUSTES_GENERALES" style="stroke:#181818;stroke-width:1;"/><polygon fill="#181818" points="4025.79,345.99,4035.6255,346.5031,4030.4586,344.2001,4032.7616,339.0332,4025.79,345.99" style="stroke:#181818;stroke-width:1;"/><text fill="#000000" font-family="sans-serif" font-size="13" lengthAdjust="spacing" textLength="117.5205" x="4069.14" y="312.0669">Ajustes Generales</text></g><!--link AJUSTES_GENERALES to CONSULTAR_CONFIGURACION--><g id="link_AJUSTES_GENERALES_CONSULTAR_CONFIGURACION"><path d="M3937.66,345.88 C3911.46,330.97 3871.02,310.05 3833.14,299 C3742.67,272.6 3642.2777,261.3846 3563.1877,256.3046 " fill="none" id="AJUSTES_GENERALES-to-CONSULTAR_CONFIGURACION" style="stroke:#181818;stroke-width:1;"/><polygon fill="#181818" points="3557.2,255.92,3565.9251,260.4887,3562.1897,256.2405,3566.4379,252.5051,3557.2,255.92" style="stroke:#181818;stroke-width:1;"/><text fill="#000000" font-family="sans-serif" font-size="13" lengthAdjust="spacing" textLength="160.5068" x="3879.14" y="312.0669">Ir al men&#250; Configuraci&#243;n</text></g><!--link CONSULTAR_REPORTES to CONSULTAR_REPORTES_DETALLADOS--><g id="link_CONSULTAR_REPORTES_CONSULTAR_REPORTES_DETALLADOS"><path d="M4449.68,256.67 C4560.4,263.18 4732.37,276.74 4752.14,299 C4765.41,313.94 4753.292,328.9356 4736.382,342.2656 " fill="none" id="CONSULTAR_REPORTES-to-CONSULTAR_REPORTES_DETALLADOS" style="stroke:#181818;stroke-width:1;"/><polygon fill="#181818" points="4731.67,345.98,4741.2143,343.5497,4735.5967,342.8846,4736.2617,337.267,4731.67,345.98" style="stroke:#181818;stroke-width:1;"/><text fill="#000000" font-family="sans-serif" font-size="13" lengthAdjust="spacing" textLength="198.2563" x="4757.14" y="312.0669">Consultar Reportes Detallados</text></g><!--link CONSULTAR_REPORTES_DETALLADOS to CONSULTAR_REPORTES--><g id="link_CONSULTAR_REPORTES_DETALLADOS_CONSULTAR_REPORTES"><path d="M4669.73,345.94 C4638.91,331.97 4593.3,312.39 4552.14,299 C4515.87,287.2 4480.803,278.24 4445.773,270.34 " fill="none" id="CONSULTAR_REPORTES_DETALLADOS-to-CONSULTAR_REPORTES" style="stroke:#181818;stroke-width:1;"/><polygon fill="#181818" points="4439.92,269.02,4447.8195,274.902,4444.7975,270.12,4449.5795,267.098,4439.92,269.02" style="stroke:#181818;stroke-width:1;"/><text fill="#000000" font-family="sans-serif" font-size="13" lengthAdjust="spacing" textLength="128.7432" x="4596.14" y="312.0669">Ir al men&#250; Reportes</text></g><!--link CONSULTAR_REPORTES to DESCARGAR_ESTADISTICAS--><g id="link_CONSULTAR_REPORTES_DESCARGAR_ESTADISTICAS"><path d="M4294.05,269.1 C4279.88,276.03 4266.53,285.67 4258.14,299 C4245.73,318.72 4261.2137,332.2711 4285.0237,343.3911 " fill="none" id="CONSULTAR_REPORTES-to-DESCARGAR_ESTADISTICAS" style="stroke:#181818;stroke-width:1;"/><polygon fill="#181818" points="4290.46,345.93,4283.9981,338.4974,4285.9297,343.8142,4280.6129,345.7458,4290.46,345.93" style="stroke:#181818;stroke-width:1;"/><text fill="#000000" font-family="sans-serif" font-size="13" lengthAdjust="spacing" textLength="148.2178" x="4259.14" y="312.0669">Descargar Estad&#237;sticas</text></g><!--link DESCARGAR_ESTADISTICAS to CONSULTAR_REPORTES--><g id="link_DESCARGAR_ESTADISTICAS_CONSULTAR_REPORTES"><path d="M4380.98,345.87 C4393.24,338.56 4405.24,328.73 4412.14,316 C4421.77,298.21 4410.0052,284.5132 4392.3852,272.4832 " fill="none" id="DESCARGAR_ESTADISTICAS-to-CONSULTAR_REPORTES" style="stroke:#181818;stroke-width:1;"/><polygon fill="#181818" points="4387.43,269.1,4392.6074,277.4782,4391.5594,271.9193,4397.1183,270.8713,4387.43,269.1" style="stroke:#181818;stroke-width:1;"/><text fill="#000000" font-family="sans-serif" font-size="13" lengthAdjust="spacing" textLength="128.7432" x="4415.14" y="312.0669">Ir al men&#250; Reportes</text></g><!--SRC=[jLTBRjim4Dth5EmgzI8NoA808p420riMABbRWxLfGu4i1QG49CVf0RBghbjVh2F9jaY9L9F6tTW6PXxVV1uvuozRiSiAWHZnKno5S_BrPOQas5IysES2lNXURy71WaOqIHaEbcoc6M8SqWYlOqOZdyPuFlEy6xGGnV6tGiyoApRPCy-5qX3-CafMynIpzIfPOKQNoSngPQiKJdOPIUh2mQy76guOzkaoSg7Z9Kj9qWRBHCutsV5NWKHHIO54Zl3sa1MPgYJVbXAzefoZ-FXpdnNmVSx9Cqg2Rc-_eM4jq1sYnLuAnINYEL9meZXmR-JMOCtJxf0lf0HO8bGJMXEdNnRY9OCFXRP2ROKrAiHHNgfJ0-nCu_e3NP-nH2jLSvcLohDukj9i4uGJDbdf_Otsr5Y0XK9La15mihg2F7JAizTL61krc7oYCXBiFAx1PSYlQMHPxB9ztHGMb9MSDE3olqwsdRe1zrqqgJwNiWBLl2AYAhuzla4HDcQjpuXtqT-WfFwngq5m9p5sScj-NAIZtJf6UW7frt6n3EW3zUr6CgTm7tIRGup6yKsvfJ0aR9YTykyIFBHfNB0kob7WSC2Yt6OxgAf6FNQx3lsmD80dUGRNLoSVENsGUwB7vwiwR75tOUqT7jik0OvDzpWbZE8rUIJCftux8EplWavywVtbAT6DhXT8p_uCT90Dip6wViQEdAv0F2YLtkypSkXo1TPn5uo4xtabvF6DDueWJq9kchT1UHRKHs9nm3_p97Kl_KYiyDuxf3gmzALj3RQHqH_PYx2RBxt1Ff2C6hGGAu4PdIcy5ZLm-1IPaR0XjXPZcj_DDD6XouHijp1pOUj68ridi1gHXV5Cz1iJMyU4BMXYReJuSGMOP1sIY30y9yOhCfwwOp9pU6kJU-WtlG3enHYaEXcGBR_1fXOBUSWKbDVg-v_26fQrYUcfLis64Of2o7RT7tlzUpIJbxlRRIQt_7L0KZoVms9jw2CW2LoO41n9ak80gWSNo1mr-beqUMud5LNd5TSMha1KFC_XFuHjrzBHpltDl4YdN5qHsXE2KmAXuAdOGsZc0kW0V2YQFm00]--></g></svg>