<svg xmlns="http://www.w3.org/2000/svg" xmlns:xlink="http://www.w3.org/1999/xlink" contentStyleType="text/css" height="388px" preserveAspectRatio="none" style="width:4965px;height:388px;background:#FFFFFF;" version="1.1" viewBox="0 0 4965 388" width="4965px" zoomAndPan="magnify"><defs/><g><!--entity ADMINISTRADOR--><g id="elem_ADMINISTRADOR"><rect fill="#F1F1F1" height="36.2969" rx="2.5" ry="2.5" style="stroke:#181818;stroke-width:0.5;" width="139.4375" x="2425.07" y="7"/><text fill="#000000" font-family="sans-serif" font-size="14" lengthAdjust="spacing" textLength="119.4375" x="2435.07" y="29.9951">ADMINISTRADOR</text></g><!--entity PAGINA_PRINCIPAL--><g id="elem_PAGINA_PRINCIPAL"><rect fill="#F1F1F1" height="36.2969" rx="2.5" ry="2.5" style="stroke:#181818;stroke-width:0.5;" width="152.542" x="2418.07" y="120"/><text fill="#000000" font-family="sans-serif" font-size="14" lengthAdjust="spacing" textLength="132.542" x="2428.07" y="142.9951">PAGINA_PRINCIPAL</text></g><!--entity CONSULTANDO_USUARIOS--><g id="elem_CONSULTANDO_USUARIOS"><rect fill="#F1F1F1" height="36.2969" rx="2.5" ry="2.5" style="stroke:#181818;stroke-width:0.5;" width="208.3232" x="442.57" y="233"/><text fill="#000000" font-family="sans-serif" font-size="14" lengthAdjust="spacing" textLength="188.3232" x="452.57" y="255.9951">CONSULTANDO_USUARIOS</text></g><!--entity CONSULTANDO_RUTINAS--><g id="elem_CONSULTANDO_RUTINAS"><rect fill="#F1F1F1" height="36.2969" rx="2.5" ry="2.5" style="stroke:#181818;stroke-width:0.5;" width="197.1943" x="1542.07" y="233"/><text fill="#000000" font-family="sans-serif" font-size="14" lengthAdjust="spacing" textLength="177.1943" x="1552.07" y="255.9951">CONSULTANDO_RUTINAS</text></g><!--entity CONSULTANDO_RETOS--><g id="elem_CONSULTANDO_RETOS"><rect fill="#F1F1F1" height="36.2969" rx="2.5" ry="2.5" style="stroke:#181818;stroke-width:0.5;" width="182.6338" x="2508.07" y="233"/><text fill="#000000" font-family="sans-serif" font-size="14" lengthAdjust="spacing" textLength="162.6338" x="2518.07" y="255.9951">CONSULTANDO_RETOS</text></g><!--entity CONSULTANDO_CONFIGURACION--><g id="elem_CONSULTANDO_CONFIGURACION"><rect fill="#F1F1F1" height="36.2969" rx="2.5" ry="2.5" style="stroke:#181818;stroke-width:0.5;" width="254.8486" x="3316.07" y="233"/><text fill="#000000" font-family="sans-serif" font-size="14" lengthAdjust="spacing" textLength="234.8486" x="3326.07" y="255.9951">CONSULTANDO_CONFIGURACION</text></g><!--entity CONSULTANDO_REPORTES--><g id="elem_CONSULTANDO_REPORTES"><rect fill="#F1F1F1" height="36.2969" rx="2.5" ry="2.5" style="stroke:#181818;stroke-width:0.5;" width="209.6494" x="4253.57" y="233"/><text fill="#000000" font-family="sans-serif" font-size="14" lengthAdjust="spacing" textLength="189.6494" x="4263.57" y="255.9951">CONSULTANDO_REPORTES</text></g><!--entity CREANDO_USUARIO--><g id="elem_CREANDO_USUARIO"><rect fill="#F1F1F1" height="36.2969" rx="2.5" ry="2.5" style="stroke:#181818;stroke-width:0.5;" width="161.0322" x="294.07" y="346"/><text fill="#000000" font-family="sans-serif" font-size="14" lengthAdjust="spacing" textLength="141.0322" x="304.07" y="368.9951">CREANDO_USUARIO</text></g><!--entity MODIFICANDO_USUARIO--><g id="elem_MODIFICANDO_USUARIO"><rect fill="#F1F1F1" height="36.2969" rx="2.5" ry="2.5" style="stroke:#181818;stroke-width:0.5;" width="192.6484" x="8.07" y="346"/><text fill="#000000" font-family="sans-serif" font-size="14" lengthAdjust="spacing" textLength="172.6484" x="18.07" y="368.9951">MODIFICANDO_USUARIO</text></g><!--entity ELIMINANDO_USUARIO--><g id="elem_ELIMINANDO_USUARIO"><rect fill="#F1F1F1" height="36.2969" rx="2.5" ry="2.5" style="stroke:#181818;stroke-width:0.5;" width="180.1387" x="601.57" y="346"/><text fill="#000000" font-family="sans-serif" font-size="14" lengthAdjust="spacing" textLength="160.1387" x="611.57" y="368.9951">ELIMINANDO_USUARIO</text></g><!--entity CREANDO_RUTINA--><g id="elem_CREANDO_RUTINA"><rect fill="#F1F1F1" height="36.2969" rx="2.5" ry="2.5" style="stroke:#181818;stroke-width:0.5;" width="149.9033" x="923.57" y="346"/><text fill="#000000" font-family="sans-serif" font-size="14" lengthAdjust="spacing" textLength="129.9033" x="933.57" y="368.9951">CREANDO_RUTINA</text></g><!--entity MODIFICANDO_RUTINA--><g id="elem_MODIFICANDO_RUTINA"><rect fill="#F1F1F1" height="36.2969" rx="2.5" ry="2.5" style="stroke:#181818;stroke-width:0.5;" width="181.5195" x="1205.57" y="346"/><text fill="#000000" font-family="sans-serif" font-size="14" lengthAdjust="spacing" textLength="161.5195" x="1215.57" y="368.9951">MODIFICANDO_RUTINA</text></g><!--entity ELIMINANDO_RUTINA--><g id="elem_ELIMINANDO_RUTINA"><rect fill="#F1F1F1" height="36.2969" rx="2.5" ry="2.5" style="stroke:#181818;stroke-width:0.5;" width="169.0098" x="1555.07" y="346"/><text fill="#000000" font-family="sans-serif" font-size="14" lengthAdjust="spacing" textLength="149.0098" x="1565.07" y="368.9951">ELIMINANDO_RUTINA</text></g><!--entity CONSULTANDO_RUTINA--><g id="elem_CONSULTANDO_RUTINA"><rect fill="#F1F1F1" height="36.2969" rx="2.5" ry="2.5" style="stroke:#181818;stroke-width:0.5;" width="188.3076" x="2599.57" y="7"/><text fill="#000000" font-family="sans-serif" font-size="14" lengthAdjust="spacing" textLength="168.3076" x="2609.57" y="29.9951">CONSULTANDO_RUTINA</text></g><!--entity BATERIA_EJERCICIOS--><g id="elem_BATERIA_EJERCICIOS"><rect fill="#F1F1F1" height="36.2969" rx="2.5" ry="2.5" style="stroke:#181818;stroke-width:0.5;" width="166.2754" x="1946.57" y="346"/><text fill="#000000" font-family="sans-serif" font-size="14" lengthAdjust="spacing" textLength="146.2754" x="1956.57" y="368.9951">BATERIA_EJERCICIOS</text></g><!--entity CREANDO_RETO--><g id="elem_CREANDO_RETO"><rect fill="#F1F1F1" height="36.2969" rx="2.5" ry="2.5" style="stroke:#181818;stroke-width:0.5;" width="135.3428" x="2575.07" y="346"/><text fill="#000000" font-family="sans-serif" font-size="14" lengthAdjust="spacing" textLength="115.3428" x="2585.07" y="368.9951">CREANDO_RETO</text></g><!--entity MODIFICANDO_RETO--><g id="elem_MODIFICANDO_RETO"><rect fill="#F1F1F1" height="36.2969" rx="2.5" ry="2.5" style="stroke:#181818;stroke-width:0.5;" width="166.959" x="2299.07" y="346"/><text fill="#000000" font-family="sans-serif" font-size="14" lengthAdjust="spacing" textLength="146.959" x="2309.07" y="368.9951">MODIFICANDO_RETO</text></g><!--entity ELIMINANDO_RETO--><g id="elem_ELIMINANDO_RETO"><rect fill="#F1F1F1" height="36.2969" rx="2.5" ry="2.5" style="stroke:#181818;stroke-width:0.5;" width="154.4492" x="2820.57" y="346"/><text fill="#000000" font-family="sans-serif" font-size="14" lengthAdjust="spacing" textLength="134.4492" x="2830.57" y="368.9951">ELIMINANDO_RETO</text></g><!--entity CONFIGURANDO_SISTEMA--><g id="elem_CONFIGURANDO_SISTEMA"><rect fill="#F1F1F1" height="36.2969" rx="2.5" ry="2.5" style="stroke:#181818;stroke-width:0.5;" width="204.0781" x="3504.57" y="346"/><text fill="#000000" font-family="sans-serif" font-size="14" lengthAdjust="spacing" textLength="184.0781" x="3514.57" y="368.9951">CONFIGURANDO_SISTEMA</text></g><!--entity ADMINISTRANDO_PERMISOS--><g id="elem_ADMINISTRANDO_PERMISOS"><rect fill="#F1F1F1" height="36.2969" rx="2.5" ry="2.5" style="stroke:#181818;stroke-width:0.5;" width="219.1992" x="3143.07" y="346"/><text fill="#000000" font-family="sans-serif" font-size="14" lengthAdjust="spacing" textLength="199.1992" x="3153.07" y="368.9951">ADMINISTRANDO_PERMISOS</text></g><!--entity AJUSTES_GENERALES--><g id="elem_AJUSTES_GENERALES"><rect fill="#F1F1F1" height="36.2969" rx="2.5" ry="2.5" style="stroke:#181818;stroke-width:0.5;" width="169.9736" x="3878.57" y="346"/><text fill="#000000" font-family="sans-serif" font-size="14" lengthAdjust="spacing" textLength="149.9736" x="3888.57" y="368.9951">AJUSTES_GENERALES</text></g><!--entity CONSULTANDO_REPORTES_DETALLADOS--><g id="elem_CONSULTANDO_REPORTES_DETALLADOS"><rect fill="#F1F1F1" height="36.2969" rx="2.5" ry="2.5" style="stroke:#181818;stroke-width:0.5;" width="310.2676" x="4553.57" y="346"/><text fill="#000000" font-family="sans-serif" font-size="14" lengthAdjust="spacing" textLength="290.2676" x="4563.57" y="368.9951">CONSULTANDO_REPORTES_DETALLADOS</text></g><!--entity DESCARGANDO_ESTADISTICAS--><g id="elem_DESCARGANDO_ESTADISTICAS"><rect fill="#F1F1F1" height="36.2969" rx="2.5" ry="2.5" style="stroke:#181818;stroke-width:0.5;" width="237.8682" x="4212.57" y="346"/><text fill="#000000" font-family="sans-serif" font-size="14" lengthAdjust="spacing" textLength="217.8682" x="4222.57" y="368.9951">DESCARGANDO_ESTADISTICAS</text></g><!--link ADMINISTRADOR to PAGINA_PRINCIPAL--><g id="link_ADMINISTRADOR_PAGINA_PRINCIPAL"><path d="M2455.74,43.24 C2435.89,54.73 2417.77,71.16 2427.57,90 C2434.13,102.61 2440.7032,109.3422 2452.4832,116.7622 " fill="none" id="ADMINISTRADOR-to-PAGINA_PRINCIPAL" style="stroke:#181818;stroke-width:1;"/><polygon fill="#181818" points="2457.56,119.96,2452.0766,111.7788,2453.3293,117.2952,2447.8129,118.5479,2457.56,119.96" style="stroke:#181818;stroke-width:1;"/><text fill="#000000" font-family="sans-serif" font-size="13" lengthAdjust="spacing" textLength="86.7153" x="2428.57" y="86.0669">Iniciar Sesi&#243;n</text></g><!--link PAGINA_PRINCIPAL to ADMINISTRADOR--><g id="link_PAGINA_PRINCIPAL_ADMINISTRADOR"><path d="M2506.23,119.98 C2511.41,111.39 2516.93,100.58 2519.57,90 C2523.64,73.68 2518.8452,60.9922 2510.8452,48.3322 " fill="none" id="PAGINA_PRINCIPAL-to-ADMINISTRADOR" style="stroke:#181818;stroke-width:1;"/><polygon fill="#181818" points="2507.64,43.26,2509.0663,53.005,2510.311,47.4868,2515.8292,48.7315,2507.64,43.26" style="stroke:#181818;stroke-width:1;"/><text fill="#000000" font-family="sans-serif" font-size="13" lengthAdjust="spacing" textLength="88.0356" x="2522.57" y="86.0669">Cerrar Sesi&#243;n</text></g><!--link PAGINA_PRINCIPAL to CONSULTANDO_USUARIOS--><g id="link_PAGINA_PRINCIPAL_CONSULTANDO_USUARIOS"><path d="M2417.91,143.37 C2114.63,160.65 1004.3503,223.9187 656.6603,243.7287 " fill="none" id="PAGINA_PRINCIPAL-to-CONSULTANDO_USUARIOS" style="stroke:#181818;stroke-width:1;"/><polygon fill="#181818" points="650.67,244.07,659.883,247.5516,655.6619,243.7856,659.4279,239.5645,650.67,244.07" style="stroke:#181818;stroke-width:1;"/><text fill="#000000" font-family="sans-serif" font-size="13" lengthAdjust="spacing" textLength="136.1064" x="1638.57" y="199.0669">Administrar Usuarios</text></g><!--link CONSULTANDO_USUARIOS to PAGINA_PRINCIPAL--><g id="link_CONSULTANDO_USUARIOS_PAGINA_PRINCIPAL"><path d="M650.6,240.15 C800.81,226.25 1087.26,200.89 1331.57,186 C1740.77,161.06 2225.8023,146.2949 2411.9723,141.1749 " fill="none" id="CONSULTANDO_USUARIOS-to-PAGINA_PRINCIPAL" style="stroke:#181818;stroke-width:1;"/><polygon fill="#181818" points="2417.97,141.01,2408.8634,137.2589,2412.9719,141.1475,2409.0834,145.2559,2417.97,141.01" style="stroke:#181818;stroke-width:1;"/><text fill="#000000" font-family="sans-serif" font-size="13" lengthAdjust="spacing" textLength="63.1973" x="1332.57" y="199.0669">Ir al inicio</text></g><!--link PAGINA_PRINCIPAL to CONSULTANDO_RUTINAS--><g id="link_PAGINA_PRINCIPAL_CONSULTANDO_RUTINAS"><path d="M2417.96,147.91 C2339.66,157.11 2214.58,172.04 2106.57,186 C1979.62,202.41 1839.3613,221.8831 1745.0813,235.1631 " fill="none" id="PAGINA_PRINCIPAL-to-CONSULTANDO_RUTINAS" style="stroke:#181818;stroke-width:1;"/><polygon fill="#181818" points="1739.14,236,1748.6099,238.7056,1744.0911,235.3026,1747.4941,230.7838,1739.14,236" style="stroke:#181818;stroke-width:1;"/><text fill="#000000" font-family="sans-serif" font-size="13" lengthAdjust="spacing" textLength="116.1494" x="2107.57" y="199.0669">Gestionar Rutinas</text></g><!--link CONSULTANDO_RUTINAS to PAGINA_PRINCIPAL--><g id="link_CONSULTANDO_RUTINAS_PAGINA_PRINCIPAL"><path d="M1699.5,232.94 C1752.84,218.18 1833.83,197.45 1905.57,186 C2087.91,156.89 2299.0342,145.7037 2411.8742,141.4937 " fill="none" id="CONSULTANDO_RUTINAS-to-PAGINA_PRINCIPAL" style="stroke:#181818;stroke-width:1;"/><polygon fill="#181818" points="2417.87,141.27,2408.7271,137.6083,2412.8735,141.4564,2409.0254,145.6028,2417.87,141.27" style="stroke:#181818;stroke-width:1;"/><text fill="#000000" font-family="sans-serif" font-size="13" lengthAdjust="spacing" textLength="63.1973" x="1906.57" y="199.0669">Ir al inicio</text></g><!--link PAGINA_PRINCIPAL to CONSULTANDO_RETOS--><g id="link_PAGINA_PRINCIPAL_CONSULTANDO_RETOS"><path d="M2523.87,156.15 C2536.11,164.22 2549.93,174.57 2560.57,186 C2573.69,200.1 2581.9686,213.9276 2588.8986,227.6076 " fill="none" id="PAGINA_PRINCIPAL-to-CONSULTANDO_RETOS" style="stroke:#181818;stroke-width:1;"/><polygon fill="#181818" points="2591.61,232.96,2591.1111,223.1238,2589.3505,228.4997,2583.9746,226.739,2591.61,232.96" style="stroke:#181818;stroke-width:1;"/><text fill="#000000" font-family="sans-serif" font-size="13" lengthAdjust="spacing" textLength="104.0444" x="2574.57" y="199.0669">Gestionar Retos</text></g><!--link CONSULTANDO_RETOS to PAGINA_PRINCIPAL--><g id="link_CONSULTANDO_RETOS_PAGINA_PRINCIPAL"><path d="M2524.77,232.9 C2510.1,226.04 2496.5,216.43 2487.57,203 C2478.41,189.22 2480.2027,175.6548 2485.0127,161.8748 " fill="none" id="CONSULTANDO_RETOS-to-PAGINA_PRINCIPAL" style="stroke:#181818;stroke-width:1;"/><polygon fill="#181818" points="2486.99,156.21,2480.2474,163.389,2485.3422,160.9307,2487.8005,166.0254,2486.99,156.21" style="stroke:#181818;stroke-width:1;"/><text fill="#000000" font-family="sans-serif" font-size="13" lengthAdjust="spacing" textLength="63.1973" x="2488.57" y="199.0669">Ir al inicio</text></g><!--link PAGINA_PRINCIPAL to CONSULTANDO_CONFIGURACION--><g id="link_PAGINA_PRINCIPAL_CONSULTANDO_CONFIGURACION"><path d="M2571.2,144.01 C2676.03,151.25 2869.92,165.98 3034.57,186 C3141.77,199.04 3258.1054,217.811 3340.8154,231.921 " fill="none" id="PAGINA_PRINCIPAL-to-CONSULTANDO_CONFIGURACION" style="stroke:#181818;stroke-width:1;"/><polygon fill="#181818" points="3346.73,232.93,3338.5308,227.4735,3341.8012,232.0892,3337.1855,235.3595,3346.73,232.93" style="stroke:#181818;stroke-width:1;"/><text fill="#000000" font-family="sans-serif" font-size="13" lengthAdjust="spacing" textLength="170.7012" x="3160.57" y="199.0669">Configuraci&#243;n del Sistema</text></g><!--link CONSULTANDO_CONFIGURACION to PAGINA_PRINCIPAL--><g id="link_CONSULTANDO_CONFIGURACION_PAGINA_PRINCIPAL"><path d="M3316.06,238.93 C3218.82,230.16 3081.61,217.07 2961.57,203 C2823.8,186.85 2669.6763,164.9022 2577.2463,151.3222 " fill="none" id="CONSULTANDO_CONFIGURACION-to-PAGINA_PRINCIPAL" style="stroke:#181818;stroke-width:1;"/><polygon fill="#181818" points="2571.31,150.45,2579.633,155.7158,2576.2569,151.1768,2580.7959,147.8007,2571.31,150.45" style="stroke:#181818;stroke-width:1;"/><text fill="#000000" font-family="sans-serif" font-size="13" lengthAdjust="spacing" textLength="63.1973" x="2962.57" y="199.0669">Ir al inicio</text></g><!--link PAGINA_PRINCIPAL to CONSULTANDO_REPORTES--><g id="link_PAGINA_PRINCIPAL_CONSULTANDO_REPORTES"><path d="M2571.1,140.16 C2766.06,143.49 3297.14,154.91 3738.57,186 C3919.92,198.77 4124.3023,221.629 4247.4823,236.329 " fill="none" id="PAGINA_PRINCIPAL-to-CONSULTANDO_REPORTES" style="stroke:#181818;stroke-width:1;"/><polygon fill="#181818" points="4253.44,237.04,4244.9774,232.0017,4248.4752,236.4475,4244.0294,239.9453,4253.44,237.04" style="stroke:#181818;stroke-width:1;"/><text fill="#000000" font-family="sans-serif" font-size="13" lengthAdjust="spacing" textLength="178.0581" x="3926.57" y="199.0669">Ver Reportes y Estad&#237;sticas</text></g><!--link CONSULTANDO_REPORTES to PAGINA_PRINCIPAL--><g id="link_CONSULTANDO_REPORTES_PAGINA_PRINCIPAL"><path d="M4253.33,243.14 C4068.47,231.15 3673.34,205.76 3339.57,186 C3056.31,169.23 2725.5214,151.3303 2577.1814,143.4003 " fill="none" id="CONSULTANDO_REPORTES-to-PAGINA_PRINCIPAL" style="stroke:#181818;stroke-width:1;"/><polygon fill="#181818" points="2571.19,143.08,2579.9636,147.5547,2576.1829,143.3469,2580.3907,139.5661,2571.19,143.08" style="stroke:#181818;stroke-width:1;"/><text fill="#000000" font-family="sans-serif" font-size="13" lengthAdjust="spacing" textLength="63.1973" x="3619.57" y="199.0669">Ir al inicio</text></g><!--link CONSULTANDO_USUARIOS to CREANDO_USUARIO--><g id="link_CONSULTANDO_USUARIOS_CREANDO_USUARIO"><path d="M442.47,261.12 C391.31,267.99 337.3,279.64 321.57,299 C308.56,315.01 321.6951,329.6728 340.1751,342.5328 " fill="none" id="CONSULTANDO_USUARIOS-to-CREANDO_USUARIO" style="stroke:#181818;stroke-width:1;"/><polygon fill="#181818" points="345.1,345.96,339.9974,337.536,340.9959,343.104,335.4279,344.1025,345.1,345.96" style="stroke:#181818;stroke-width:1;"/><text fill="#000000" font-family="sans-serif" font-size="13" lengthAdjust="spacing" textLength="96.04" x="322.57" y="312.0669">Crear Usuarios</text></g><!--link CREANDO_USUARIO to CONSULTANDO_USUARIOS--><g id="link_CREANDO_USUARIO_CONSULTANDO_USUARIOS"><path d="M398.06,345.92 C416.45,332.72 442.81,314.21 466.57,299 C482.71,288.66 495.9405,280.7743 511.0305,272.0843 " fill="none" id="CREANDO_USUARIO-to-CONSULTANDO_USUARIOS" style="stroke:#181818;stroke-width:1;"/><polygon fill="#181818" points="516.23,269.09,506.4346,270.1151,511.8971,271.5852,510.427,277.0477,516.23,269.09" style="stroke:#181818;stroke-width:1;"/><text fill="#000000" font-family="sans-serif" font-size="13" lengthAdjust="spacing" textLength="126.4707" x="467.57" y="312.0669">Ir al men&#250; Usuarios</text></g><!--link CONSULTANDO_USUARIOS to MODIFICANDO_USUARIO--><g id="link_CONSULTANDO_USUARIOS_MODIFICANDO_USUARIO"><path d="M442.18,259.72 C353.29,267.38 233.13,280.64 188.57,299 C162.46,309.76 141.7265,326.6044 125.8765,341.6144 " fill="none" id="CONSULTANDO_USUARIOS-to-MODIFICANDO_USUARIO" style="stroke:#181818;stroke-width:1;"/><polygon fill="#181818" points="121.52,345.74,130.8052,342.4559,125.1504,342.302,125.3043,336.6472,121.52,345.74" style="stroke:#181818;stroke-width:1;"/><text fill="#000000" font-family="sans-serif" font-size="13" lengthAdjust="spacing" textLength="119.9897" x="189.57" y="312.0669">Modificar Usuarios</text></g><!--link MODIFICANDO_USUARIO to CONSULTANDO_USUARIOS--><g id="link_MODIFICANDO_USUARIO_CONSULTANDO_USUARIOS"><path d="M56.48,345.94 C30.18,334.06 6,317.13 22.57,299 C50.29,268.69 291.7521,257.9279 436.4721,254.1179 " fill="none" id="MODIFICANDO_USUARIO-to-CONSULTANDO_USUARIOS" style="stroke:#181818;stroke-width:1;"/><polygon fill="#181818" points="442.47,253.96,433.3678,250.1982,437.4717,254.0916,433.5784,258.1955,442.47,253.96" style="stroke:#181818;stroke-width:1;"/><text fill="#000000" font-family="sans-serif" font-size="13" lengthAdjust="spacing" textLength="126.4707" x="23.57" y="312.0669">Ir al men&#250; Usuarios</text></g><!--link CONSULTANDO_USUARIOS to ELIMINANDO_USUARIO--><g id="link_CONSULTANDO_USUARIOS_ELIMINANDO_USUARIO"><path d="M650.7,262.66 C697.45,269.81 745.31,281.25 759.57,299 C773.58,316.44 757.9908,330.7949 735.7808,342.9749 " fill="none" id="CONSULTANDO_USUARIOS-to-ELIMINANDO_USUARIO" style="stroke:#181818;stroke-width:1;"/><polygon fill="#181818" points="730.52,345.86,740.3346,345.0396,734.904,343.4558,736.4879,338.0252,730.52,345.86" style="stroke:#181818;stroke-width:1;"/><text fill="#000000" font-family="sans-serif" font-size="13" lengthAdjust="spacing" textLength="113.5723" x="765.57" y="312.0669">Eliminar Usuarios</text></g><!--link ELIMINANDO_USUARIO to CONSULTANDO_USUARIOS--><g id="link_ELIMINANDO_USUARIO_CONSULTANDO_USUARIOS"><path d="M665.68,345.9 C652.82,337.2 637.17,326.32 623.57,316 C603.49,300.76 586.0095,286.1718 570.6695,272.9818 " fill="none" id="ELIMINANDO_USUARIO-to-CONSULTANDO_USUARIOS" style="stroke:#181818;stroke-width:1;"/><polygon fill="#181818" points="566.12,269.07,570.3363,277.9707,569.9112,272.3299,575.5521,271.9048,566.12,269.07" style="stroke:#181818;stroke-width:1;"/><text fill="#000000" font-family="sans-serif" font-size="13" lengthAdjust="spacing" textLength="126.4707" x="624.57" y="312.0669">Ir al men&#250; Usuarios</text></g><!--link CONSULTANDO_RUTINAS to CREANDO_RUTINA--><g id="link_CONSULTANDO_RUTINAS_CREANDO_RUTINA"><path d="M1541.84,253.31 C1443.04,256.54 1287.34,266.88 1156.57,299 C1112.16,309.91 1069.224,328.3738 1037.864,343.3538 " fill="none" id="CONSULTANDO_RUTINAS-to-CREANDO_RUTINA" style="stroke:#181818;stroke-width:1;"/><polygon fill="#181818" points="1032.45,345.94,1042.2952,345.6701,1036.9617,343.7849,1038.8469,338.4514,1032.45,345.94" style="stroke:#181818;stroke-width:1;"/><text fill="#000000" font-family="sans-serif" font-size="13" lengthAdjust="spacing" textLength="88.8228" x="1157.57" y="312.0669">Crear Rutinas</text></g><!--link CREANDO_RUTINA to CONSULTANDO_RUTINAS--><g id="link_CREANDO_RUTINA_CONSULTANDO_RUTINAS"><path d="M983.39,345.87 C972.76,331.76 962.43,312.02 974.57,299 C1012.38,258.43 1359.85,252.2681 1535.9,251.7381 " fill="none" id="CREANDO_RUTINA-to-CONSULTANDO_RUTINAS" style="stroke:#181818;stroke-width:1;"/><polygon fill="#181818" points="1541.9,251.72,1532.888,247.7471,1536.9,251.7351,1532.9121,255.7471,1541.9,251.72" style="stroke:#181818;stroke-width:1;"/><text fill="#000000" font-family="sans-serif" font-size="13" lengthAdjust="spacing" textLength="119.2534" x="975.57" y="312.0669">Ir al men&#250; Rutinas</text></g><!--link CONSULTANDO_RUTINAS to MODIFICANDO_RUTINA--><g id="link_CONSULTANDO_RUTINAS_MODIFICANDO_RUTINA"><path d="M1541.93,268.69 C1505.46,276.18 1464.13,286.24 1427.57,299 C1391.48,311.6 1357.6481,328.71 1331.6481,343 " fill="none" id="CONSULTANDO_RUTINAS-to-MODIFICANDO_RUTINA" style="stroke:#181818;stroke-width:1;"/><polygon fill="#181818" points="1326.39,345.89,1336.2039,345.0605,1330.7718,343.4817,1332.3506,338.0496,1326.39,345.89" style="stroke:#181818;stroke-width:1;"/><text fill="#000000" font-family="sans-serif" font-size="13" lengthAdjust="spacing" textLength="112.7725" x="1428.57" y="312.0669">Modificar Rutinas</text></g><!--link MODIFICANDO_RUTINA to CONSULTANDO_RUTINAS--><g id="link_MODIFICANDO_RUTINA_CONSULTANDO_RUTINAS"><path d="M1274.92,345.81 C1260.38,332.22 1245.98,313.23 1258.57,299 C1277.11,278.04 1428.9326,264.7787 1535.8326,257.8387 " fill="none" id="MODIFICANDO_RUTINA-to-CONSULTANDO_RUTINAS" style="stroke:#181818;stroke-width:1;"/><polygon fill="#181818" points="1541.82,257.45,1532.5798,254.0415,1536.8305,257.7739,1533.098,262.0247,1541.82,257.45" style="stroke:#181818;stroke-width:1;"/><text fill="#000000" font-family="sans-serif" font-size="13" lengthAdjust="spacing" textLength="119.2534" x="1259.57" y="312.0669">Ir al men&#250; Rutinas</text></g><!--link CONSULTANDO_RUTINAS to ELIMINANDO_RUTINA--><g id="link_CONSULTANDO_RUTINAS_ELIMINANDO_RUTINA"><path d="M1662.53,269.15 C1675.46,281.47 1688.11,298.86 1681.57,316 C1677.2,327.45 1672.8939,333.679 1664.6239,341.789 " fill="none" id="CONSULTANDO_RUTINAS-to-ELIMINANDO_RUTINA" style="stroke:#181818;stroke-width:1;"/><polygon fill="#181818" points="1660.34,345.99,1669.5665,342.5444,1663.9099,342.4892,1663.9652,336.8326,1660.34,345.99" style="stroke:#181818;stroke-width:1;"/><text fill="#000000" font-family="sans-serif" font-size="13" lengthAdjust="spacing" textLength="106.355" x="1684.57" y="312.0669">Eliminar Rutinas</text></g><!--link ELIMINANDO_RUTINA to CONSULTANDO_RUTINAS--><g id="link_ELIMINANDO_RUTINA_CONSULTANDO_RUTINAS"><path d="M1585.65,345.93 C1561.31,335.08 1540.42,319.26 1552.57,299 C1560.5,285.78 1568.2175,278.8203 1581.8675,271.7803 " fill="none" id="ELIMINANDO_RUTINA-to-CONSULTANDO_RUTINAS" style="stroke:#181818;stroke-width:1;"/><polygon fill="#181818" points="1587.2,269.03,1577.3677,269.6004,1582.7562,271.3219,1581.0347,276.7104,1587.2,269.03" style="stroke:#181818;stroke-width:1;"/><text fill="#000000" font-family="sans-serif" font-size="13" lengthAdjust="spacing" textLength="119.2534" x="1553.57" y="312.0669">Ir al men&#250; Rutinas</text></g><!--link CONSULTANDO_RUTINAS to BATERIA_EJERCICIOS--><g id="link_CONSULTANDO_RUTINAS_BATERIA_EJERCICIOS"><path d="M1739.46,255.87 C1828.15,261.01 1950.34,272.73 1990.57,299 C2007.35,309.96 2015.8559,325.3056 2021.7259,340.2456 " fill="none" id="CONSULTANDO_RUTINAS-to-BATERIA_EJERCICIOS" style="stroke:#181818;stroke-width:1;"/><polygon fill="#181818" points="2023.92,345.83,2024.3517,335.9906,2022.0915,341.1763,2016.9058,338.9161,2023.92,345.83" style="stroke:#181818;stroke-width:1;"/><text fill="#000000" font-family="sans-serif" font-size="13" lengthAdjust="spacing" textLength="196.644" x="2009.57" y="312.0669">Modificar Bater&#237;a de Ejercicios</text></g><!--link BATERIA_EJERCICIOS to CONSULTANDO_RUTINAS--><g id="link_BATERIA_EJERCICIOS_CONSULTANDO_RUTINAS"><path d="M1968.09,345.94 C1936.28,337.08 1896.82,326.03 1861.57,316 C1806.44,300.31 1749.4301,283.7798 1704.9201,270.7998 " fill="none" id="BATERIA_EJERCICIOS-to-CONSULTANDO_RUTINAS" style="stroke:#181818;stroke-width:1;"/><polygon fill="#181818" points="1699.16,269.12,1706.6803,275.4797,1703.9601,270.5198,1708.9199,267.7996,1699.16,269.12" style="stroke:#181818;stroke-width:1;"/><text fill="#000000" font-family="sans-serif" font-size="13" lengthAdjust="spacing" textLength="119.2534" x="1862.57" y="312.0669">Ir al men&#250; Rutinas</text></g><!--link BATERIA_EJERCICIOS to PAGINA_PRINCIPAL--><g id="link_BATERIA_EJERCICIOS_PAGINA_PRINCIPAL"><path d="M2112.91,347.69 C2145.39,340.23 2182.45,329.82 2214.57,316 C2318.38,271.34 2423.0416,194.6278 2468.3016,159.6678 " fill="none" id="BATERIA_EJERCICIOS-to-PAGINA_PRINCIPAL" style="stroke:#181818;stroke-width:1;"/><polygon fill="#181818" points="2473.05,156,2463.4822,158.3361,2469.093,159.0565,2468.3726,164.6673,2473.05,156" style="stroke:#181818;stroke-width:1;"/><text fill="#000000" font-family="sans-serif" font-size="13" lengthAdjust="spacing" textLength="63.1973" x="2365.57" y="255.5669">Ir al inicio</text></g><!--link CONSULTANDO_RETOS to CREANDO_RETO--><g id="link_CONSULTANDO_RETOS_CREANDO_RETO"><path d="M2594.93,269.24 C2592.25,282.52 2590.48,301.07 2596.57,316 C2601.31,327.63 2606.0005,333.937 2614.9105,341.917 " fill="none" id="CONSULTANDO_RETOS-to-CREANDO_RETO" style="stroke:#181818;stroke-width:1;"/><polygon fill="#181818" points="2619.38,345.92,2615.3444,336.9359,2615.6554,342.5842,2610.0071,342.8952,2619.38,345.92" style="stroke:#181818;stroke-width:1;"/><text fill="#000000" font-family="sans-serif" font-size="13" lengthAdjust="spacing" textLength="76.7178" x="2597.57" y="312.0669">Crear Retos</text></g><!--link CREANDO_RETO to CONSULTANDO_RETOS--><g id="link_CREANDO_RETO_CONSULTANDO_RETOS"><path d="M2662.69,345.86 C2675.29,332.96 2687.58,314.85 2678.57,299 C2671.23,286.1 2664.0422,279.2887 2651.1822,272.1287 " fill="none" id="CREANDO_RETO-to-CONSULTANDO_RETOS" style="stroke:#181818;stroke-width:1;"/><polygon fill="#181818" points="2645.94,269.21,2651.8576,277.0829,2650.3085,271.6423,2655.7492,270.0932,2645.94,269.21" style="stroke:#181818;stroke-width:1;"/><text fill="#000000" font-family="sans-serif" font-size="13" lengthAdjust="spacing" textLength="107.1484" x="2683.57" y="312.0669">Ir al men&#250; Retos</text></g><!--link CONSULTANDO_RETOS to MODIFICANDO_RETO--><g id="link_CONSULTANDO_RETOS_MODIFICANDO_RETO"><path d="M2551.86,269.1 C2530.57,277.3 2505.41,287.77 2483.57,299 C2456.25,313.05 2431.7116,328.8515 2411.6916,342.5515 " fill="none" id="CONSULTANDO_RETOS-to-MODIFICANDO_RETO" style="stroke:#181818;stroke-width:1;"/><polygon fill="#181818" points="2406.74,345.94,2416.4264,344.1584,2410.8663,343.1163,2411.9084,337.5562,2406.74,345.94" style="stroke:#181818;stroke-width:1;"/><text fill="#000000" font-family="sans-serif" font-size="13" lengthAdjust="spacing" textLength="100.6675" x="2484.57" y="312.0669">Modificar Retos</text></g><!--link MODIFICANDO_RETO to CONSULTANDO_RETOS--><g id="link_MODIFICANDO_RETO_CONSULTANDO_RETOS"><path d="M2357.85,345.8 C2341.81,332.54 2326.03,314 2338.57,299 C2360.09,273.26 2435.7289,262.0654 2502.0389,256.7954 " fill="none" id="MODIFICANDO_RETO-to-CONSULTANDO_RETOS" style="stroke:#181818;stroke-width:1;"/><polygon fill="#181818" points="2508.02,256.32,2498.7314,253.0456,2503.0357,256.7161,2499.3652,261.0205,2508.02,256.32" style="stroke:#181818;stroke-width:1;"/><text fill="#000000" font-family="sans-serif" font-size="13" lengthAdjust="spacing" textLength="107.1484" x="2339.57" y="312.0669">Ir al men&#250; Retos</text></g><!--link CONSULTANDO_RETOS to ELIMINANDO_RETO--><g id="link_CONSULTANDO_RETOS_ELIMINANDO_RETO"><path d="M2691.41,257.17 C2796.91,264.08 2957.96,277.93 2976.57,299 C2992.52,317.06 2974.432,331.5117 2949.002,343.4417 " fill="none" id="CONSULTANDO_RETOS-to-ELIMINANDO_RETO" style="stroke:#181818;stroke-width:1;"/><polygon fill="#181818" points="2943.57,345.99,2953.4168,345.7889,2948.0966,343.8664,2950.0191,338.5462,2943.57,345.99" style="stroke:#181818;stroke-width:1;"/><text fill="#000000" font-family="sans-serif" font-size="13" lengthAdjust="spacing" textLength="94.25" x="2983.57" y="312.0669">Eliminar Retos</text></g><!--link ELIMINANDO_RETO to CONSULTANDO_RETOS--><g id="link_ELIMINANDO_RETO_CONSULTANDO_RETOS"><path d="M2876.25,345.92 C2857.19,331.44 2827.96,311.16 2799.57,299 C2765.47,284.4 2731.9416,275.1344 2697.1716,267.8244 " fill="none" id="ELIMINANDO_RETO-to-CONSULTANDO_RETOS" style="stroke:#181818;stroke-width:1;"/><polygon fill="#181818" points="2691.3,266.59,2699.2845,272.3561,2696.193,267.6187,2700.9304,264.5272,2691.3,266.59" style="stroke:#181818;stroke-width:1;"/><text fill="#000000" font-family="sans-serif" font-size="13" lengthAdjust="spacing" textLength="107.1484" x="2832.57" y="312.0669">Ir al men&#250; Retos</text></g><!--link CONSULTANDO_CONFIGURACION to CONFIGURANDO_SISTEMA--><g id="link_CONSULTANDO_CONFIGURACION_CONFIGURANDO_SISTEMA"><path d="M3465.75,269.08 C3483.12,282.27 3508.04,300.78 3530.57,316 C3545.87,326.33 3558.2371,334.113 3572.5771,342.793 " fill="none" id="CONSULTANDO_CONFIGURACION-to-CONFIGURANDO_SISTEMA" style="stroke:#181818;stroke-width:1;"/><polygon fill="#181818" points="3577.71,345.9,3572.0819,337.8176,3573.4326,343.3109,3567.9393,344.6615,3577.71,345.9" style="stroke:#181818;stroke-width:1;"/><text fill="#000000" font-family="sans-serif" font-size="13" lengthAdjust="spacing" textLength="125.0996" x="3531.57" y="312.0669">Configurar Sistema</text></g><!--link CONFIGURANDO_SISTEMA to CONSULTANDO_CONFIGURACION--><g id="link_CONFIGURANDO_SISTEMA_CONSULTANDO_CONFIGURACION"><path d="M3637.35,345.86 C3656.29,333.11 3674.64,315.19 3661.57,299 C3649.11,283.56 3617.5777,273.9985 3577.1777,266.8285 " fill="none" id="CONFIGURANDO_SISTEMA-to-CONSULTANDO_CONFIGURACION" style="stroke:#181818;stroke-width:1;"/><polygon fill="#181818" points="3571.27,265.78,3579.4325,271.2912,3576.1931,266.6537,3580.8305,263.4142,3571.27,265.78" style="stroke:#181818;stroke-width:1;"/><text fill="#000000" font-family="sans-serif" font-size="13" lengthAdjust="spacing" textLength="160.5068" x="3666.57" y="312.0669">Ir al men&#250; Configuraci&#243;n</text></g><!--link CONSULTANDO_CONFIGURACION to ADMINISTRANDO_PERMISOS--><g id="link_CONSULTANDO_CONFIGURACION_ADMINISTRANDO_PERMISOS"><path d="M3411.92,269.13 C3395.86,277.91 3376.09,288.87 3358.57,299 C3331.77,314.49 3306.6948,329.6733 3285.4148,342.7233 " fill="none" id="CONSULTANDO_CONFIGURACION-to-ADMINISTRANDO_PERMISOS" style="stroke:#181818;stroke-width:1;"/><polygon fill="#181818" points="3280.3,345.86,3290.0633,344.5649,3284.5623,343.2461,3285.8811,337.7451,3280.3,345.86" style="stroke:#181818;stroke-width:1;"/><text fill="#000000" font-family="sans-serif" font-size="13" lengthAdjust="spacing" textLength="138.8867" x="3359.57" y="312.0669">Administrar Permisos</text></g><!--link ADMINISTRANDO_PERMISOS to CONSULTANDO_CONFIGURACION--><g id="link_ADMINISTRANDO_PERMISOS_CONSULTANDO_CONFIGURACION"><path d="M3197.86,345.97 C3170.47,334.6 3146.28,318.24 3162.57,299 C3182.74,275.17 3245.3841,263.9474 3309.7641,258.1574 " fill="none" id="ADMINISTRANDO_PERMISOS-to-CONSULTANDO_CONFIGURACION" style="stroke:#181818;stroke-width:1;"/><polygon fill="#181818" points="3315.74,257.62,3306.4179,254.4422,3310.7601,258.0679,3307.1345,262.4101,3315.74,257.62" style="stroke:#181818;stroke-width:1;"/><text fill="#000000" font-family="sans-serif" font-size="13" lengthAdjust="spacing" textLength="160.5068" x="3163.57" y="312.0669">Ir al men&#250; Configuraci&#243;n</text></g><!--link CONSULTANDO_CONFIGURACION to AJUSTES_GENERALES--><g id="link_CONSULTANDO_CONFIGURACION_AJUSTES_GENERALES"><path d="M3571.4,252.58 C3743.68,254.71 4032.73,263.59 4065.57,299 C4083.91,318.77 4063.4944,332.8075 4033.1444,343.9175 " fill="none" id="CONSULTANDO_CONFIGURACION-to-AJUSTES_GENERALES" style="stroke:#181818;stroke-width:1;"/><polygon fill="#181818" points="4027.51,345.98,4037.3366,346.6424,4032.2053,344.2612,4034.5865,339.13,4027.51,345.98" style="stroke:#181818;stroke-width:1;"/><text fill="#000000" font-family="sans-serif" font-size="13" lengthAdjust="spacing" textLength="117.5205" x="4072.57" y="312.0669">Ajustes Generales</text></g><!--link AJUSTES_GENERALES to CONSULTANDO_CONFIGURACION--><g id="link_AJUSTES_GENERALES_CONSULTANDO_CONFIGURACION"><path d="M3936.26,345.85 C3911.09,330.92 3872.22,310 3835.57,299 C3749.57,273.2 3654.9163,261.8957 3577.1563,256.6257 " fill="none" id="AJUSTES_GENERALES-to-CONSULTANDO_CONFIGURACION" style="stroke:#181818;stroke-width:1;"/><polygon fill="#181818" points="3571.17,256.22,3579.8789,260.8194,3576.1586,256.5581,3580.4199,252.8377,3571.17,256.22" style="stroke:#181818;stroke-width:1;"/><text fill="#000000" font-family="sans-serif" font-size="13" lengthAdjust="spacing" textLength="160.5068" x="3879.57" y="312.0669">Ir al men&#250; Configuraci&#243;n</text></g><!--link CONSULTANDO_REPORTES to CONSULTANDO_REPORTES_DETALLADOS--><g id="link_CONSULTANDO_REPORTES_CONSULTANDO_REPORTES_DETALLADOS"><path d="M4463.91,257.38 C4574.65,264.13 4735.49,277.52 4754.57,299 C4767.84,313.94 4755.722,328.9356 4738.812,342.2656 " fill="none" id="CONSULTANDO_REPORTES-to-CONSULTANDO_REPORTES_DETALLADOS" style="stroke:#181818;stroke-width:1;"/><polygon fill="#181818" points="4734.1,345.98,4743.6443,343.5497,4738.0267,342.8846,4738.6917,337.267,4734.1,345.98" style="stroke:#181818;stroke-width:1;"/><text fill="#000000" font-family="sans-serif" font-size="13" lengthAdjust="spacing" textLength="198.2563" x="4759.57" y="312.0669">Consultar Reportes Detallados</text></g><!--link CONSULTANDO_REPORTES_DETALLADOS to CONSULTANDO_REPORTES--><g id="link_CONSULTANDO_REPORTES_DETALLADOS_CONSULTANDO_REPORTES"><path d="M4672.41,345.91 C4641.8,331.93 4596.49,312.34 4555.57,299 C4519.3,287.17 4484.2444,278.2439 4449.1344,270.3639 " fill="none" id="CONSULTANDO_REPORTES_DETALLADOS-to-CONSULTANDO_REPORTES" style="stroke:#181818;stroke-width:1;"/><polygon fill="#181818" points="4443.28,269.05,4451.1856,274.9238,4448.1586,270.1449,4452.9375,267.118,4443.28,269.05" style="stroke:#181818;stroke-width:1;"/><text fill="#000000" font-family="sans-serif" font-size="13" lengthAdjust="spacing" textLength="128.7432" x="4598.57" y="312.0669">Ir al men&#250; Reportes</text></g><!--link CONSULTANDO_REPORTES to DESCARGANDO_ESTADISTICAS--><g id="link_CONSULTANDO_REPORTES_DESCARGANDO_ESTADISTICAS"><path d="M4296.48,269.1 C4282.31,276.03 4268.96,285.67 4260.57,299 C4248.81,317.68 4263.1547,331.3801 4284.7247,342.9701 " fill="none" id="CONSULTANDO_REPORTES-to-DESCARGANDO_ESTADISTICAS" style="stroke:#181818;stroke-width:1;"/><polygon fill="#181818" points="4290.01,345.81,4283.9753,338.0266,4285.6055,343.4434,4280.1887,345.0737,4290.01,345.81" style="stroke:#181818;stroke-width:1;"/><text fill="#000000" font-family="sans-serif" font-size="13" lengthAdjust="spacing" textLength="148.2178" x="4261.57" y="312.0669">Descargar Estad&#237;sticas</text></g><!--link DESCARGANDO_ESTADISTICAS to CONSULTANDO_REPORTES--><g id="link_DESCARGANDO_ESTADISTICAS_CONSULTANDO_REPORTES"><path d="M4381.1,345.82 C4394.3,338.72 4406.98,329.02 4414.57,316 C4424.83,298.4 4412.7274,284.5452 4394.8074,272.4052 " fill="none" id="DESCARGANDO_ESTADISTICAS-to-CONSULTANDO_REPORTES" style="stroke:#181818;stroke-width:1;"/><polygon fill="#181818" points="4389.84,269.04,4395.0477,277.3994,4393.9795,271.8443,4399.5346,270.7762,4389.84,269.04" style="stroke:#181818;stroke-width:1;"/><text fill="#000000" font-family="sans-serif" font-size="13" lengthAdjust="spacing" textLength="128.7432" x="4418.57" y="312.0669">Ir al men&#250; Reportes</text></g><!--SRC=[jLVDRgCm4Bxp5DvJDuU-G0yhkU16hX901lOQiS69N16eR93Qnza7w6blUysBxG0XiG4dZPgzv4VpzytuyypuMyOtek284JV6_dn1lh_DaEJhAYssEKTlZdEIO6z9VHh537i1csc24C-fZrSXexvBGxoOESuTMl9Y_rUXLocAjNXDSwuq2pVmesG1VxnWbKG9PZI8PXOvIsBmRXUJs6uBlv_eF67OfO5lzn06B2PH2vlnF5sB_Py2yQAI7F4SuMmd2g4gcMQbHEyeJr6u_xqL1NptsJb6ST3z_Gyqh0fwGBGGQv5A577LX716AesTwUa1kLnApGOmkcN1tmHyA9HnbV59H2X5UQaEnp0TQUeK8E0fNuaILQTIbCgPrBMbAH745qsofNCvzE60mN3ELGLvGLnMLv2D6RRNkr7KXZTcJ5uD4krqRXFFe69ph6Mn4TjQ7jYM0T4YA3hVfOxTx5QfTuG7ov-yoVkrb1MGwHqHLQNP_WCgiXuMlxVv58Gx5DM_DZKmyS3IZeVDZoEZjCl8YCuh_Puk0uy-KTSc9WiAbyMKMfaw2DESWUG6nmSAP-v8b-wkJUfeRmyzaGOuMPQPs42bDGXJYhU3CIuN-22vWFkkWvXGknh36GRqTtjCWEw6syv_BDM0ZeNZrg5B7t5C6CKhyaoOIzrs_jYQZGdlo9jZZpB5zlQcLwetjWOTPsumfhUVKBiHW55nTQxqrcEbAwFRuuzFo2Z0OrfnkVz86qQH5oxNJUTHpeJLTOWi3hxIyhh1Ca5t62zMiWzaUg5RqVISqbsVYDeDDbracuP6HLepIw0XLfEShUL8vSj11qKm2DdQ3HMkY7Zc_CnHRRQORZWtlYFOsSZIQ3AdLQvH20bRqiXSLl5p0bRHQavyml223BhGUFfFXTIt2Qbl4MFDIrk9NfX1sXU0JUSwM2T3BdT2GRajslyHth3G3RANMZLxpvmNNBOlbB7MLn2TRGdTpdNXIRBoI8mN2tW96ApnIEHYDczLIHHZ3oe95squmlILxOBtZaAgpgjKMmWzNgLv3i-UwLrGjp-pOvgNxP2t7QajEV3aSGNjPGiGpKNLQd8bgdy0]--></g></svg>