<svg xmlns="http://www.w3.org/2000/svg" xmlns:xlink="http://www.w3.org/1999/xlink" contentStyleType="text/css" height="275px" preserveAspectRatio="none" style="width:859px;height:275px;background:#FFFFFF;" version="1.1" viewBox="0 0 859 275" width="859px" zoomAndPan="magnify"><defs/><g><!--entity ADMINISTRADOR--><g id="elem_ADMINISTRADOR"><rect fill="#F1F1F1" height="36.2969" rx="2.5" ry="2.5" style="stroke:#181818;stroke-width:0.5;" width="139.4375" x="307.45" y="7"/><text fill="#000000" font-family="sans-serif" font-size="14" lengthAdjust="spacing" textLength="119.4375" x="317.45" y="29.9951">ADMINISTRADOR</text></g><!--entity MENU_PRINCIPAL--><g id="elem_MENU_PRINCIPAL"><rect fill="#F1F1F1" height="36.2969" rx="2.5" ry="2.5" style="stroke:#181818;stroke-width:0.5;" width="141.1396" x="306.45" y="120"/><text fill="#000000" font-family="sans-serif" font-size="14" lengthAdjust="spacing" textLength="121.1396" x="316.45" y="142.9951">MENU_PRINCIPAL</text></g><!--entity MENU_CLASE--><g id="elem_MENU_CLASE"><rect fill="#F1F1F1" height="36.2969" rx="2.5" ry="2.5" style="stroke:#181818;stroke-width:0.5;" width="113.5293" x="44.95" y="233"/><text fill="#000000" font-family="sans-serif" font-size="14" lengthAdjust="spacing" textLength="93.5293" x="54.95" y="255.9951">MENU_CLASE</text></g><!--entity MENU_RUTINAS--><g id="elem_MENU_RUTINAS"><rect fill="#F1F1F1" height="36.2969" rx="2.5" ry="2.5" style="stroke:#181818;stroke-width:0.5;" width="130.2363" x="337.95" y="233"/><text fill="#000000" font-family="sans-serif" font-size="14" lengthAdjust="spacing" textLength="110.2363" x="347.95" y="255.9951">MENU_RUTINAS</text></g><!--entity MENU_RETOS--><g id="elem_MENU_RETOS"><rect fill="#F1F1F1" height="36.2969" rx="2.5" ry="2.5" style="stroke:#181818;stroke-width:0.5;" width="115.6758" x="553.95" y="233"/><text fill="#000000" font-family="sans-serif" font-size="14" lengthAdjust="spacing" textLength="95.6758" x="563.95" y="255.9951">MENU_RETOS</text></g><!--link ADMINISTRADOR to MENU_PRINCIPAL--><g id="link_ADMINISTRADOR_MENU_PRINCIPAL"><path d="M339.93,43.04 C328.16,50.46 316.5,60.39 309.95,73 C300.15,91.84 313.0772,105.2642 332.9272,116.7542 " fill="none" id="ADMINISTRADOR-to-MENU_PRINCIPAL" style="stroke:#181818;stroke-width:1.0;"/><polygon fill="#181818" points="338.12,119.76,332.3347,111.7894,333.7927,117.2552,328.3269,118.7132,338.12,119.76" style="stroke:#181818;stroke-width:1.0;"/><text fill="#000000" font-family="sans-serif" font-size="13" lengthAdjust="spacing" textLength="86.7153" x="310.95" y="86.0669">Iniciar Sesión</text></g><!--link MENU_PRINCIPAL to ADMINISTRADOR--><g id="link_MENU_PRINCIPAL_ADMINISTRADOR"><path d="M388.61,119.98 C393.79,111.39 399.31,100.58 401.95,90 C406.02,73.68 401.228,60.9904 393.218,48.3304 " fill="none" id="MENU_PRINCIPAL-to-ADMINISTRADOR" style="stroke:#181818;stroke-width:1.0;"/><polygon fill="#181818" points="390.01,43.26,391.4418,53.0042,392.6834,47.4853,398.2023,48.7269,390.01,43.26" style="stroke:#181818;stroke-width:1.0;"/><text fill="#000000" font-family="sans-serif" font-size="13" lengthAdjust="spacing" textLength="88.0356" x="403.95" y="86.0669">Cerrar Sesión</text></g><!--link MENU_PRINCIPAL to MENU_CLASE--><g id="link_MENU_PRINCIPAL_MENU_CLASE"><path d="M306.13,143.43 C207.94,150.31 40.36,164.99 21.95,186 C6,204.19 24.1367,218.5961 49.7367,230.4661 " fill="none" id="MENU_PRINCIPAL-to-MENU_CLASE" style="stroke:#181818;stroke-width:1.0;"/><polygon fill="#181818" points="55.18,232.99,48.6976,225.5752,50.6439,230.8867,45.3324,232.833,55.18,232.99" style="stroke:#181818;stroke-width:1.0;"/><text fill="#000000" font-family="sans-serif" font-size="13" lengthAdjust="spacing" textLength="111.2109" x="22.95" y="199.0669">Acceder a Clases</text></g><!--link MENU_CLASE to MENU_PRINCIPAL--><g id="link_MENU_CLASE_MENU_PRINCIPAL"><path d="M124.76,232.92 C144.74,218.66 175.03,198.66 203.95,186 C236.45,171.77 268.4761,162.292 300.4761,154.602 " fill="none" id="MENU_CLASE-to-MENU_PRINCIPAL" style="stroke:#181818;stroke-width:1.0;"/><polygon fill="#181818" points="306.31,153.2,296.6245,151.4137,301.4484,154.3683,298.4938,159.1922,306.31,153.2" style="stroke:#181818;stroke-width:1.0;"/><text fill="#000000" font-family="sans-serif" font-size="13" lengthAdjust="spacing" textLength="95.5132" x="204.95" y="199.0669">Volver al inicio</text></g><!--link MENU_PRINCIPAL to MENU_RUTINAS--><g id="link_MENU_PRINCIPAL_MENU_RUTINAS"><path d="M339.66,156.14 C319.51,167.94 300.83,184.74 311.95,203 C319.99,216.21 327.7314,223.151 341.5014,230.151 " fill="none" id="MENU_PRINCIPAL-to-MENU_RUTINAS" style="stroke:#181818;stroke-width:1.0;"/><polygon fill="#181818" points="346.85,232.87,340.6398,225.2258,342.3929,230.6042,337.0145,232.3573,346.85,232.87" style="stroke:#181818;stroke-width:1.0;"/><text fill="#000000" font-family="sans-serif" font-size="13" lengthAdjust="spacing" textLength="82.6909" x="312.95" y="199.0669">Usar Rutinas</text></g><!--link MENU_RUTINAS to MENU_PRINCIPAL--><g id="link_MENU_RUTINAS_MENU_PRINCIPAL"><path d="M404.01,232.88 C404.38,219.83 403.93,201.52 399.95,186 C397.29,175.62 395.0717,170.0827 390.3517,161.4627 " fill="none" id="MENU_RUTINAS-to-MENU_PRINCIPAL" style="stroke:#181818;stroke-width:1.0;"/><polygon fill="#181818" points="387.47,156.2,388.284,166.0152,389.8714,160.5856,395.301,162.1729,387.47,156.2" style="stroke:#181818;stroke-width:1.0;"/><text fill="#000000" font-family="sans-serif" font-size="13" lengthAdjust="spacing" textLength="95.5132" x="402.95" y="199.0669">Volver al inicio</text></g><!--link MENU_PRINCIPAL to MENU_RETOS--><g id="link_MENU_PRINCIPAL_MENU_RETOS"><path d="M431.7,156.07 C455.3,164.12 482.93,174.48 506.95,186 C535.44,199.66 561.0829,215.599 581.8629,229.409 " fill="none" id="MENU_PRINCIPAL-to-MENU_RETOS" style="stroke:#181818;stroke-width:1.0;"/><polygon fill="#181818" points="586.86,232.73,581.5783,224.4171,582.6957,229.9625,577.1504,231.0799,586.86,232.73" style="stroke:#181818;stroke-width:1.0;"/><text fill="#000000" font-family="sans-serif" font-size="13" lengthAdjust="spacing" textLength="203.2139" x="536.95" y="199.0669">Participar en Retos/Actividades</text></g><!--link MENU_RETOS to MENU_PRINCIPAL--><g id="link_MENU_RETOS_MENU_PRINCIPAL"><path d="M670.26,242.48 C718.87,233.87 776.12,216.82 748.95,186 C729.39,163.81 556.088,149.8185 453.728,143.3485 " fill="none" id="MENU_RETOS-to-MENU_PRINCIPAL" style="stroke:#181818;stroke-width:1.0;"/><polygon fill="#181818" points="447.74,142.97,456.4697,147.5298,452.73,143.2854,456.9744,139.5457,447.74,142.97" style="stroke:#181818;stroke-width:1.0;"/><text fill="#000000" font-family="sans-serif" font-size="13" lengthAdjust="spacing" textLength="95.5132" x="755.95" y="199.0669">Volver al inicio</text></g><!--link MENU_PRINCIPAL to MENU_PRINCIPAL--><g id="link_MENU_PRINCIPAL_MENU_PRINCIPAL"><path d="M447.45,132.78 C467.25,133 482.45,134.75 482.45,138 C482.45,141.25 473.2496,142.9333 453.4496,143.1533 " fill="none" id="MENU_PRINCIPAL-to-MENU_PRINCIPAL" style="stroke:#181818;stroke-width:1.0;"/><polygon fill="#181818" points="447.45,143.22,456.4939,147.1198,452.4497,143.1644,456.405,139.1203,447.45,143.22" style="stroke:#181818;stroke-width:1.0;"/><text fill="#000000" font-family="sans-serif" font-size="13" lengthAdjust="spacing" textLength="136.1064" x="488.45" y="142.5669">Administrar Usuarios</text></g><!--link MENU_PRINCIPAL to MENU_PRINCIPAL--><g id="link_MENU_PRINCIPAL_MENU_PRINCIPAL"><path d="M447.5,129.44 C524.84,125.14 630.45,127.99 630.45,138 C630.45,148.01 530.8307,151.1931 453.4907,146.8931 " fill="none" id="MENU_PRINCIPAL-to-MENU_PRINCIPAL-1" style="stroke:#181818;stroke-width:1.0;"/><polygon fill="#181818" points="447.5,146.56,456.2641,151.0534,452.4923,146.8376,456.7082,143.0658,447.5,146.56" style="stroke:#181818;stroke-width:1.0;"/><text fill="#000000" font-family="sans-serif" font-size="13" lengthAdjust="spacing" textLength="125.0996" x="636.45" y="142.5669">Configurar Sistema</text></g><!--SRC=[bP6nJiCm48RtFCKnGOUAlGEIbGOKgKqZ9sL5bdsjJd9jP3jLUIusrhuODY0r8QKgwzrzzvy_toZSa47WHTwowcbHt1qcu506OROQuP1bfmwRBykgR5hEvYi-wJMMHRL-gNbPvMND5gDElc1DCQhoTLjMh1dNYtOLgzajSDH2ql7T09hW4503Kpiov8CJoZfuIwKbckC7r8wCf5UXiy6LC9q-mF0yc45fI99mqA1FwrFMOnTnQz236iKez0hFHVrQdBA6wJF8qRbUqXdYf2YECobHeGC1kHOU_P_0Zxs8h7tSpxj0HbmOJrBZS2rSe7IyYqwZu63zFPE1zgI4kX3NjtUIus9u9npPwy3ScWrjkoyVaSUTo7h7dKMUhTud7Hee_PdD1e__1_8j-2hW4m00]--></g></svg>
