<svg xmlns="http://www.w3.org/2000/svg" xmlns:xlink="http://www.w3.org/1999/xlink" contentStyleType="text/css" height="501px" preserveAspectRatio="none" style="width:4965px;height:501px;background:#FFFFFF;" version="1.1" viewBox="0 0 4965 501" width="4965px" zoomAndPan="magnify"><defs/><g><!--entity ADMINISTRADOR--><g id="elem_ADMINISTRADOR"><rect fill="#F1F1F1" height="36.2969" rx="2.5" ry="2.5" style="stroke:#181818;stroke-width:0.5;" width="139.4375" x="2432.07" y="7"/><text fill="#000000" font-family="sans-serif" font-size="14" lengthAdjust="spacing" textLength="119.4375" x="2442.07" y="29.9951">ADMINISTRADOR</text></g><!--entity AUTENTICANDO--><g id="elem_AUTENTICANDO"><rect fill="#F1F1F1" height="36.2969" rx="2.5" ry="2.5" style="stroke:#181818;stroke-width:0.5;" width="132" x="2361.57" y="120"/><text fill="#000000" font-family="sans-serif" font-size="14" lengthAdjust="spacing" textLength="112" x="2371.57" y="142.9951">AUTENTICANDO</text></g><!--entity PAGINA_PRINCIPAL--><g id="elem_PAGINA_PRINCIPAL"><rect fill="#F1F1F1" height="36.2969" rx="2.5" ry="2.5" style="stroke:#181818;stroke-width:0.5;" width="152.542" x="2418.07" y="233"/><text fill="#000000" font-family="sans-serif" font-size="14" lengthAdjust="spacing" textLength="132.542" x="2428.07" y="255.9951">PAGINA_PRINCIPAL</text></g><!--entity CONSULTANDO_USUARIOS--><g id="elem_CONSULTANDO_USUARIOS"><rect fill="#F1F1F1" height="36.2969" rx="2.5" ry="2.5" style="stroke:#181818;stroke-width:0.5;" width="208.3232" x="442.57" y="346"/><text fill="#000000" font-family="sans-serif" font-size="14" lengthAdjust="spacing" textLength="188.3232" x="452.57" y="368.9951">CONSULTANDO_USUARIOS</text></g><!--entity CONSULTANDO_RUTINAS--><g id="elem_CONSULTANDO_RUTINAS"><rect fill="#F1F1F1" height="36.2969" rx="2.5" ry="2.5" style="stroke:#181818;stroke-width:0.5;" width="197.1943" x="1542.07" y="346"/><text fill="#000000" font-family="sans-serif" font-size="14" lengthAdjust="spacing" textLength="177.1943" x="1552.07" y="368.9951">CONSULTANDO_RUTINAS</text></g><!--entity CONSULTANDO_RETOS--><g id="elem_CONSULTANDO_RETOS"><rect fill="#F1F1F1" height="36.2969" rx="2.5" ry="2.5" style="stroke:#181818;stroke-width:0.5;" width="182.6338" x="2508.07" y="346"/><text fill="#000000" font-family="sans-serif" font-size="14" lengthAdjust="spacing" textLength="162.6338" x="2518.07" y="368.9951">CONSULTANDO_RETOS</text></g><!--entity CONSULTANDO_CONFIGURACION--><g id="elem_CONSULTANDO_CONFIGURACION"><rect fill="#F1F1F1" height="36.2969" rx="2.5" ry="2.5" style="stroke:#181818;stroke-width:0.5;" width="254.8486" x="3316.07" y="346"/><text fill="#000000" font-family="sans-serif" font-size="14" lengthAdjust="spacing" textLength="234.8486" x="3326.07" y="368.9951">CONSULTANDO_CONFIGURACION</text></g><!--entity CONSULTANDO_REPORTES--><g id="elem_CONSULTANDO_REPORTES"><rect fill="#F1F1F1" height="36.2969" rx="2.5" ry="2.5" style="stroke:#181818;stroke-width:0.5;" width="209.6494" x="4253.57" y="346"/><text fill="#000000" font-family="sans-serif" font-size="14" lengthAdjust="spacing" textLength="189.6494" x="4263.57" y="368.9951">CONSULTANDO_REPORTES</text></g><!--entity CREANDO_USUARIO--><g id="elem_CREANDO_USUARIO"><rect fill="#F1F1F1" height="36.2969" rx="2.5" ry="2.5" style="stroke:#181818;stroke-width:0.5;" width="161.0322" x="294.07" y="459"/><text fill="#000000" font-family="sans-serif" font-size="14" lengthAdjust="spacing" textLength="141.0322" x="304.07" y="481.9951">CREANDO_USUARIO</text></g><!--entity MODIFICANDO_USUARIO--><g id="elem_MODIFICANDO_USUARIO"><rect fill="#F1F1F1" height="36.2969" rx="2.5" ry="2.5" style="stroke:#181818;stroke-width:0.5;" width="192.6484" x="8.07" y="459"/><text fill="#000000" font-family="sans-serif" font-size="14" lengthAdjust="spacing" textLength="172.6484" x="18.07" y="481.9951">MODIFICANDO_USUARIO</text></g><!--entity ELIMINANDO_USUARIO--><g id="elem_ELIMINANDO_USUARIO"><rect fill="#F1F1F1" height="36.2969" rx="2.5" ry="2.5" style="stroke:#181818;stroke-width:0.5;" width="180.1387" x="601.57" y="459"/><text fill="#000000" font-family="sans-serif" font-size="14" lengthAdjust="spacing" textLength="160.1387" x="611.57" y="481.9951">ELIMINANDO_USUARIO</text></g><!--entity CREANDO_RUTINA--><g id="elem_CREANDO_RUTINA"><rect fill="#F1F1F1" height="36.2969" rx="2.5" ry="2.5" style="stroke:#181818;stroke-width:0.5;" width="149.9033" x="923.57" y="459"/><text fill="#000000" font-family="sans-serif" font-size="14" lengthAdjust="spacing" textLength="129.9033" x="933.57" y="481.9951">CREANDO_RUTINA</text></g><!--entity MODIFICANDO_RUTINA--><g id="elem_MODIFICANDO_RUTINA"><rect fill="#F1F1F1" height="36.2969" rx="2.5" ry="2.5" style="stroke:#181818;stroke-width:0.5;" width="181.5195" x="1205.57" y="459"/><text fill="#000000" font-family="sans-serif" font-size="14" lengthAdjust="spacing" textLength="161.5195" x="1215.57" y="481.9951">MODIFICANDO_RUTINA</text></g><!--entity ELIMINANDO_RUTINA--><g id="elem_ELIMINANDO_RUTINA"><rect fill="#F1F1F1" height="36.2969" rx="2.5" ry="2.5" style="stroke:#181818;stroke-width:0.5;" width="169.0098" x="1555.07" y="459"/><text fill="#000000" font-family="sans-serif" font-size="14" lengthAdjust="spacing" textLength="149.0098" x="1565.07" y="481.9951">ELIMINANDO_RUTINA</text></g><!--entity BATERIA_EJERCICIOS--><g id="elem_BATERIA_EJERCICIOS"><rect fill="#F1F1F1" height="36.2969" rx="2.5" ry="2.5" style="stroke:#181818;stroke-width:0.5;" width="166.2754" x="1946.57" y="459"/><text fill="#000000" font-family="sans-serif" font-size="14" lengthAdjust="spacing" textLength="146.2754" x="1956.57" y="481.9951">BATERIA_EJERCICIOS</text></g><!--entity CREANDO_RETO--><g id="elem_CREANDO_RETO"><rect fill="#F1F1F1" height="36.2969" rx="2.5" ry="2.5" style="stroke:#181818;stroke-width:0.5;" width="135.3428" x="2575.07" y="459"/><text fill="#000000" font-family="sans-serif" font-size="14" lengthAdjust="spacing" textLength="115.3428" x="2585.07" y="481.9951">CREANDO_RETO</text></g><!--entity MODIFICANDO_RETO--><g id="elem_MODIFICANDO_RETO"><rect fill="#F1F1F1" height="36.2969" rx="2.5" ry="2.5" style="stroke:#181818;stroke-width:0.5;" width="166.959" x="2299.07" y="459"/><text fill="#000000" font-family="sans-serif" font-size="14" lengthAdjust="spacing" textLength="146.959" x="2309.07" y="481.9951">MODIFICANDO_RETO</text></g><!--entity ELIMINANDO_RETO--><g id="elem_ELIMINANDO_RETO"><rect fill="#F1F1F1" height="36.2969" rx="2.5" ry="2.5" style="stroke:#181818;stroke-width:0.5;" width="154.4492" x="2820.57" y="459"/><text fill="#000000" font-family="sans-serif" font-size="14" lengthAdjust="spacing" textLength="134.4492" x="2830.57" y="481.9951">ELIMINANDO_RETO</text></g><!--entity CONFIGURANDO_SISTEMA--><g id="elem_CONFIGURANDO_SISTEMA"><rect fill="#F1F1F1" height="36.2969" rx="2.5" ry="2.5" style="stroke:#181818;stroke-width:0.5;" width="204.0781" x="3504.57" y="459"/><text fill="#000000" font-family="sans-serif" font-size="14" lengthAdjust="spacing" textLength="184.0781" x="3514.57" y="481.9951">CONFIGURANDO_SISTEMA</text></g><!--entity ADMINISTRANDO_PERMISOS--><g id="elem_ADMINISTRANDO_PERMISOS"><rect fill="#F1F1F1" height="36.2969" rx="2.5" ry="2.5" style="stroke:#181818;stroke-width:0.5;" width="219.1992" x="3143.07" y="459"/><text fill="#000000" font-family="sans-serif" font-size="14" lengthAdjust="spacing" textLength="199.1992" x="3153.07" y="481.9951">ADMINISTRANDO_PERMISOS</text></g><!--entity AJUSTES_GENERALES--><g id="elem_AJUSTES_GENERALES"><rect fill="#F1F1F1" height="36.2969" rx="2.5" ry="2.5" style="stroke:#181818;stroke-width:0.5;" width="169.9736" x="3878.57" y="459"/><text fill="#000000" font-family="sans-serif" font-size="14" lengthAdjust="spacing" textLength="149.9736" x="3888.57" y="481.9951">AJUSTES_GENERALES</text></g><!--entity CONSULTANDO_REPORTES_DETALLADOS--><g id="elem_CONSULTANDO_REPORTES_DETALLADOS"><rect fill="#F1F1F1" height="36.2969" rx="2.5" ry="2.5" style="stroke:#181818;stroke-width:0.5;" width="310.2676" x="4553.57" y="459"/><text fill="#000000" font-family="sans-serif" font-size="14" lengthAdjust="spacing" textLength="290.2676" x="4563.57" y="481.9951">CONSULTANDO_REPORTES_DETALLADOS</text></g><!--entity DESCARGANDO_ESTADISTICAS--><g id="elem_DESCARGANDO_ESTADISTICAS"><rect fill="#F1F1F1" height="36.2969" rx="2.5" ry="2.5" style="stroke:#181818;stroke-width:0.5;" width="237.8682" x="4212.57" y="459"/><text fill="#000000" font-family="sans-serif" font-size="14" lengthAdjust="spacing" textLength="217.8682" x="4222.57" y="481.9951">DESCARGANDO_ESTADISTICAS</text></g><!--link ADMINISTRADOR to AUTENTICANDO--><g id="link_ADMINISTRADOR_AUTENTICANDO"><path d="M2479.96,43.03 C2470.57,51.29 2460.04,61.83 2452.57,73 C2442.89,87.48 2437.841,100.5121 2433.811,113.9721 " fill="none" id="ADMINISTRADOR-to-AUTENTICANDO" style="stroke:#181818;stroke-width:1;"/><polygon fill="#181818" points="2432.09,119.72,2438.5034,112.2455,2433.5241,114.9301,2430.8395,109.9509,2432.09,119.72" style="stroke:#181818;stroke-width:1;"/><text fill="#000000" font-family="sans-serif" font-size="13" lengthAdjust="spacing" textLength="89.2417" x="2453.57" y="86.0669">Autenticación</text></g><!--link AUTENTICANDO to PAGINA_PRINCIPAL--><g id="link_AUTENTICANDO_PAGINA_PRINCIPAL"><path d="M2419.28,156.09 C2413.98,169.62 2409.48,188.58 2417.57,203 C2424.77,215.84 2431.8507,222.6305 2444.5307,229.8205 " fill="none" id="AUTENTICANDO-to-PAGINA_PRINCIPAL" style="stroke:#181818;stroke-width:1;"/><polygon fill="#181818" points="2449.75,232.78,2443.8941,224.8612,2445.4006,230.3137,2439.948,231.8202,2449.75,232.78" style="stroke:#181818;stroke-width:1;"/><text fill="#000000" font-family="sans-serif" font-size="13" lengthAdjust="spacing" textLength="124.4775" x="2418.57" y="199.0669">Ingresar al sistema</text></g><!--link PAGINA_PRINCIPAL to ADMINISTRADOR--><g id="link_PAGINA_PRINCIPAL_ADMINISTRADOR"><path d="M2522.05,232.97 C2532.03,225.18 2542.17,215 2547.57,203 C2571.27,150.31 2569.39,126.5 2547.57,73 C2542.83,61.37 2538.1395,55.063 2529.2295,47.083 " fill="none" id="PAGINA_PRINCIPAL-to-ADMINISTRADOR" style="stroke:#181818;stroke-width:1;"/><polygon fill="#181818" points="2524.76,43.08,2528.7956,52.0641,2528.4846,46.4158,2534.1329,46.1048,2524.76,43.08" style="stroke:#181818;stroke-width:1;"/><text fill="#000000" font-family="sans-serif" font-size="13" lengthAdjust="spacing" textLength="88.0356" x="2566.57" y="142.5669">Cerrar Sesión</text></g><!--link PAGINA_PRINCIPAL to CONSULTANDO_USUARIOS--><g id="link_PAGINA_PRINCIPAL_CONSULTANDO_USUARIOS"><path d="M2417.91,256.37 C2114.63,273.65 1004.3503,336.9187 656.6603,356.7287 " fill="none" id="PAGINA_PRINCIPAL-to-CONSULTANDO_USUARIOS" style="stroke:#181818;stroke-width:1;"/><polygon fill="#181818" points="650.67,357.07,659.883,360.5516,655.6619,356.7856,659.4279,352.5645,650.67,357.07" style="stroke:#181818;stroke-width:1;"/><text fill="#000000" font-family="sans-serif" font-size="13" lengthAdjust="spacing" textLength="136.1064" x="1638.57" y="312.0669">Administrar Usuarios</text></g><!--link CONSULTANDO_USUARIOS to PAGINA_PRINCIPAL--><g id="link_CONSULTANDO_USUARIOS_PAGINA_PRINCIPAL"><path d="M650.6,353.15 C800.81,339.25 1087.26,313.89 1331.57,299 C1740.77,274.06 2225.8023,259.2949 2411.9723,254.1749 " fill="none" id="CONSULTANDO_USUARIOS-to-PAGINA_PRINCIPAL" style="stroke:#181818;stroke-width:1;"/><polygon fill="#181818" points="2417.97,254.01,2408.8634,250.2589,2412.9719,254.1475,2409.0834,258.2559,2417.97,254.01" style="stroke:#181818;stroke-width:1;"/><text fill="#000000" font-family="sans-serif" font-size="13" lengthAdjust="spacing" textLength="63.1973" x="1332.57" y="312.0669">Ir al inicio</text></g><!--link PAGINA_PRINCIPAL to CONSULTANDO_RUTINAS--><g id="link_PAGINA_PRINCIPAL_CONSULTANDO_RUTINAS"><path d="M2417.96,260.91 C2339.66,270.11 2214.58,285.04 2106.57,299 C1979.62,315.41 1839.3613,334.8831 1745.0813,348.1631 " fill="none" id="PAGINA_PRINCIPAL-to-CONSULTANDO_RUTINAS" style="stroke:#181818;stroke-width:1;"/><polygon fill="#181818" points="1739.14,349,1748.6099,351.7056,1744.0911,348.3026,1747.4941,343.7838,1739.14,349" style="stroke:#181818;stroke-width:1;"/><text fill="#000000" font-family="sans-serif" font-size="13" lengthAdjust="spacing" textLength="116.1494" x="2107.57" y="312.0669">Gestionar Rutinas</text></g><!--link CONSULTANDO_RUTINAS to PAGINA_PRINCIPAL--><g id="link_CONSULTANDO_RUTINAS_PAGINA_PRINCIPAL"><path d="M1699.5,345.94 C1752.84,331.18 1833.83,310.45 1905.57,299 C2087.91,269.89 2299.0342,258.7037 2411.8742,254.4937 " fill="none" id="CONSULTANDO_RUTINAS-to-PAGINA_PRINCIPAL" style="stroke:#181818;stroke-width:1;"/><polygon fill="#181818" points="2417.87,254.27,2408.7271,250.6083,2412.8735,254.4564,2409.0254,258.6028,2417.87,254.27" style="stroke:#181818;stroke-width:1;"/><text fill="#000000" font-family="sans-serif" font-size="13" lengthAdjust="spacing" textLength="63.1973" x="1906.57" y="312.0669">Ir al inicio</text></g><!--link PAGINA_PRINCIPAL to CONSULTANDO_RETOS--><g id="link_PAGINA_PRINCIPAL_CONSULTANDO_RETOS"><path d="M2523.87,269.15 C2536.11,277.22 2549.93,287.57 2560.57,299 C2573.69,313.1 2581.9686,326.9276 2588.8986,340.6076 " fill="none" id="PAGINA_PRINCIPAL-to-CONSULTANDO_RETOS" style="stroke:#181818;stroke-width:1;"/><polygon fill="#181818" points="2591.61,345.96,2591.1111,336.1238,2589.3505,341.4997,2583.9746,339.739,2591.61,345.96" style="stroke:#181818;stroke-width:1;"/><text fill="#000000" font-family="sans-serif" font-size="13" lengthAdjust="spacing" textLength="104.0444" x="2574.57" y="312.0669">Gestionar Retos</text></g><!--link CONSULTANDO_RETOS to PAGINA_PRINCIPAL--><g id="link_CONSULTANDO_RETOS_PAGINA_PRINCIPAL"><path d="M2524.77,345.9 C2510.1,339.04 2496.5,329.43 2487.57,316 C2478.41,302.22 2480.2027,288.6548 2485.0127,274.8748 " fill="none" id="CONSULTANDO_RETOS-to-PAGINA_PRINCIPAL" style="stroke:#181818;stroke-width:1;"/><polygon fill="#181818" points="2486.99,269.21,2480.2474,276.389,2485.3422,273.9307,2487.8005,279.0254,2486.99,269.21" style="stroke:#181818;stroke-width:1;"/><text fill="#000000" font-family="sans-serif" font-size="13" lengthAdjust="spacing" textLength="63.1973" x="2488.57" y="312.0669">Ir al inicio</text></g><!--link PAGINA_PRINCIPAL to CONSULTANDO_CONFIGURACION--><g id="link_PAGINA_PRINCIPAL_CONSULTANDO_CONFIGURACION"><path d="M2571.2,257.01 C2676.03,264.25 2869.92,278.98 3034.57,299 C3141.77,312.04 3258.1054,330.811 3340.8154,344.921 " fill="none" id="PAGINA_PRINCIPAL-to-CONSULTANDO_CONFIGURACION" style="stroke:#181818;stroke-width:1;"/><polygon fill="#181818" points="3346.73,345.93,3338.5308,340.4735,3341.8012,345.0892,3337.1855,348.3595,3346.73,345.93" style="stroke:#181818;stroke-width:1;"/><text fill="#000000" font-family="sans-serif" font-size="13" lengthAdjust="spacing" textLength="170.7012" x="3159.57" y="312.0669">Configuración del Sistema</text></g><!--link CONSULTANDO_CONFIGURACION to PAGINA_PRINCIPAL--><g id="link_CONSULTANDO_CONFIGURACION_PAGINA_PRINCIPAL"><path d="M3316.06,351.93 C3218.82,343.16 3081.61,330.07 2961.57,316 C2823.8,299.85 2669.6763,277.9022 2577.2463,264.3222 " fill="none" id="CONSULTANDO_CONFIGURACION-to-PAGINA_PRINCIPAL" style="stroke:#181818;stroke-width:1;"/><polygon fill="#181818" points="2571.31,263.45,2579.633,268.7158,2576.2569,264.1768,2580.7959,260.8007,2571.31,263.45" style="stroke:#181818;stroke-width:1;"/><text fill="#000000" font-family="sans-serif" font-size="13" lengthAdjust="spacing" textLength="63.1973" x="2962.57" y="312.0669">Ir al inicio</text></g><!--link PAGINA_PRINCIPAL to CONSULTANDO_REPORTES--><g id="link_PAGINA_PRINCIPAL_CONSULTANDO_REPORTES"><path d="M2571.1,253.16 C2766.06,256.49 3297.14,267.91 3738.57,299 C3919.92,311.77 4124.3023,334.629 4247.4823,349.329 " fill="none" id="PAGINA_PRINCIPAL-to-CONSULTANDO_REPORTES" style="stroke:#181818;stroke-width:1;"/><polygon fill="#181818" points="4253.44,350.04,4244.9774,345.0017,4248.4752,349.4475,4244.0294,352.9453,4253.44,350.04" style="stroke:#181818;stroke-width:1;"/><text fill="#000000" font-family="sans-serif" font-size="13" lengthAdjust="spacing" textLength="178.0581" x="3926.57" y="312.0669">Ver Reportes y Estadísticas</text></g><!--link CONSULTANDO_REPORTES to PAGINA_PRINCIPAL--><g id="link_CONSULTANDO_REPORTES_PAGINA_PRINCIPAL"><path d="M4253.23,356.15 C4068.18,344.16 3672.67,318.78 3338.57,299 C3055.65,282.25 2725.2514,264.3411 2577.0914,256.4011 " fill="none" id="CONSULTANDO_REPORTES-to-PAGINA_PRINCIPAL" style="stroke:#181818;stroke-width:1;"/><polygon fill="#181818" points="2571.1,256.08,2579.873,260.5559,2576.0928,256.3476,2580.3012,252.5674,2571.1,256.08" style="stroke:#181818;stroke-width:1;"/><text fill="#000000" font-family="sans-serif" font-size="13" lengthAdjust="spacing" textLength="63.1973" x="3619.57" y="312.0669">Ir al inicio</text></g><!--link CONSULTANDO_USUARIOS to CREANDO_USUARIO--><g id="link_CONSULTANDO_USUARIOS_CREANDO_USUARIO"><path d="M442.47,374.12 C391.31,380.99 337.3,392.64 321.57,412 C308.56,428.01 321.6951,442.6728 340.1751,455.5328 " fill="none" id="CONSULTANDO_USUARIOS-to-CREANDO_USUARIO" style="stroke:#181818;stroke-width:1;"/><polygon fill="#181818" points="345.1,458.96,339.9974,450.536,340.9959,456.104,335.4279,457.1025,345.1,458.96" style="stroke:#181818;stroke-width:1;"/><text fill="#000000" font-family="sans-serif" font-size="13" lengthAdjust="spacing" textLength="96.04" x="322.57" y="425.0669">Crear Usuarios</text></g><!--link CREANDO_USUARIO to CONSULTANDO_USUARIOS--><g id="link_CREANDO_USUARIO_CONSULTANDO_USUARIOS"><path d="M398.06,458.92 C416.45,445.72 442.81,427.21 466.57,412 C482.71,401.66 495.9405,393.7743 511.0305,385.0843 " fill="none" id="CREANDO_USUARIO-to-CONSULTANDO_USUARIOS" style="stroke:#181818;stroke-width:1;"/><polygon fill="#181818" points="516.23,382.09,506.4346,383.1151,511.8971,384.5852,510.427,390.0477,516.23,382.09" style="stroke:#181818;stroke-width:1;"/><text fill="#000000" font-family="sans-serif" font-size="13" lengthAdjust="spacing" textLength="126.4707" x="467.57" y="425.0669">Ir al menú Usuarios</text></g><!--link CONSULTANDO_USUARIOS to MODIFICANDO_USUARIO--><g id="link_CONSULTANDO_USUARIOS_MODIFICANDO_USUARIO"><path d="M442.18,372.72 C353.29,380.38 233.13,393.64 188.57,412 C162.46,422.76 141.7265,439.6044 125.8765,454.6144 " fill="none" id="CONSULTANDO_USUARIOS-to-MODIFICANDO_USUARIO" style="stroke:#181818;stroke-width:1;"/><polygon fill="#181818" points="121.52,458.74,130.8052,455.4559,125.1504,455.302,125.3043,449.6472,121.52,458.74" style="stroke:#181818;stroke-width:1;"/><text fill="#000000" font-family="sans-serif" font-size="13" lengthAdjust="spacing" textLength="119.9897" x="189.57" y="425.0669">Modificar Usuarios</text></g><!--link MODIFICANDO_USUARIO to CONSULTANDO_USUARIOS--><g id="link_MODIFICANDO_USUARIO_CONSULTANDO_USUARIOS"><path d="M56.48,458.94 C30.18,447.06 6,430.13 22.57,412 C50.29,381.69 291.7521,370.9279 436.4721,367.1179 " fill="none" id="MODIFICANDO_USUARIO-to-CONSULTANDO_USUARIOS" style="stroke:#181818;stroke-width:1;"/><polygon fill="#181818" points="442.47,366.96,433.3678,363.1982,437.4717,367.0916,433.5784,371.1955,442.47,366.96" style="stroke:#181818;stroke-width:1;"/><text fill="#000000" font-family="sans-serif" font-size="13" lengthAdjust="spacing" textLength="126.4707" x="23.57" y="425.0669">Ir al menú Usuarios</text></g><!--link CONSULTANDO_USUARIOS to ELIMINANDO_USUARIO--><g id="link_CONSULTANDO_USUARIOS_ELIMINANDO_USUARIO"><path d="M650.7,375.66 C697.45,382.81 745.31,394.25 759.57,412 C773.58,429.44 757.9908,443.7949 735.7808,455.9749 " fill="none" id="CONSULTANDO_USUARIOS-to-ELIMINANDO_USUARIO" style="stroke:#181818;stroke-width:1;"/><polygon fill="#181818" points="730.52,458.86,740.3346,458.0396,734.904,456.4558,736.4879,451.0252,730.52,458.86" style="stroke:#181818;stroke-width:1;"/><text fill="#000000" font-family="sans-serif" font-size="13" lengthAdjust="spacing" textLength="113.5723" x="765.57" y="425.0669">Eliminar Usuarios</text></g><!--link ELIMINANDO_USUARIO to CONSULTANDO_USUARIOS--><g id="link_ELIMINANDO_USUARIO_CONSULTANDO_USUARIOS"><path d="M665.68,458.9 C652.82,450.2 637.17,439.32 623.57,429 C603.49,413.76 586.0095,399.1718 570.6695,385.9818 " fill="none" id="ELIMINANDO_USUARIO-to-CONSULTANDO_USUARIOS" style="stroke:#181818;stroke-width:1;"/><polygon fill="#181818" points="566.12,382.07,570.3363,390.9707,569.9112,385.3299,575.5521,384.9048,566.12,382.07" style="stroke:#181818;stroke-width:1;"/><text fill="#000000" font-family="sans-serif" font-size="13" lengthAdjust="spacing" textLength="126.4707" x="624.57" y="425.0669">Ir al menú Usuarios</text></g><!--link CONSULTANDO_RUTINAS to CREANDO_RUTINA--><g id="link_CONSULTANDO_RUTINAS_CREANDO_RUTINA"><path d="M1541.84,366.31 C1443.04,369.54 1287.34,379.88 1156.57,412 C1112.16,422.91 1069.224,441.3738 1037.864,456.3538 " fill="none" id="CONSULTANDO_RUTINAS-to-CREANDO_RUTINA" style="stroke:#181818;stroke-width:1;"/><polygon fill="#181818" points="1032.45,458.94,1042.2952,458.6701,1036.9617,456.7849,1038.8469,451.4514,1032.45,458.94" style="stroke:#181818;stroke-width:1;"/><text fill="#000000" font-family="sans-serif" font-size="13" lengthAdjust="spacing" textLength="88.8228" x="1157.57" y="425.0669">Crear Rutinas</text></g><!--link CREANDO_RUTINA to CONSULTANDO_RUTINAS--><g id="link_CREANDO_RUTINA_CONSULTANDO_RUTINAS"><path d="M983.39,458.87 C972.76,444.76 962.43,425.02 974.57,412 C1012.38,371.43 1359.85,365.2681 1535.9,364.7381 " fill="none" id="CREANDO_RUTINA-to-CONSULTANDO_RUTINAS" style="stroke:#181818;stroke-width:1;"/><polygon fill="#181818" points="1541.9,364.72,1532.888,360.7471,1536.9,364.7351,1532.9121,368.7471,1541.9,364.72" style="stroke:#181818;stroke-width:1;"/><text fill="#000000" font-family="sans-serif" font-size="13" lengthAdjust="spacing" textLength="119.2534" x="975.57" y="425.0669">Ir al menú Rutinas</text></g><!--link CONSULTANDO_RUTINAS to MODIFICANDO_RUTINA--><g id="link_CONSULTANDO_RUTINAS_MODIFICANDO_RUTINA"><path d="M1541.93,381.69 C1505.46,389.18 1464.13,399.24 1427.57,412 C1391.48,424.6 1357.6481,441.71 1331.6481,456 " fill="none" id="CONSULTANDO_RUTINAS-to-MODIFICANDO_RUTINA" style="stroke:#181818;stroke-width:1;"/><polygon fill="#181818" points="1326.39,458.89,1336.2039,458.0605,1330.7718,456.4817,1332.3506,451.0496,1326.39,458.89" style="stroke:#181818;stroke-width:1;"/><text fill="#000000" font-family="sans-serif" font-size="13" lengthAdjust="spacing" textLength="112.7725" x="1428.57" y="425.0669">Modificar Rutinas</text></g><!--link MODIFICANDO_RUTINA to CONSULTANDO_RUTINAS--><g id="link_MODIFICANDO_RUTINA_CONSULTANDO_RUTINAS"><path d="M1274.92,458.81 C1260.38,445.22 1245.98,426.23 1258.57,412 C1277.11,391.04 1428.9326,377.7787 1535.8326,370.8387 " fill="none" id="MODIFICANDO_RUTINA-to-CONSULTANDO_RUTINAS" style="stroke:#181818;stroke-width:1;"/><polygon fill="#181818" points="1541.82,370.45,1532.5798,367.0415,1536.8305,370.7739,1533.098,375.0247,1541.82,370.45" style="stroke:#181818;stroke-width:1;"/><text fill="#000000" font-family="sans-serif" font-size="13" lengthAdjust="spacing" textLength="119.2534" x="1259.57" y="425.0669">Ir al menú Rutinas</text></g><!--link CONSULTANDO_RUTINAS to ELIMINANDO_RUTINA--><g id="link_CONSULTANDO_RUTINAS_ELIMINANDO_RUTINA"><path d="M1662.53,382.15 C1675.46,394.47 1688.11,411.86 1681.57,429 C1677.2,440.45 1672.8939,446.679 1664.6239,454.789 " fill="none" id="CONSULTANDO_RUTINAS-to-ELIMINANDO_RUTINA" style="stroke:#181818;stroke-width:1;"/><polygon fill="#181818" points="1660.34,458.99,1669.5665,455.5444,1663.9099,455.4892,1663.9652,449.8326,1660.34,458.99" style="stroke:#181818;stroke-width:1;"/><text fill="#000000" font-family="sans-serif" font-size="13" lengthAdjust="spacing" textLength="106.355" x="1684.57" y="425.0669">Eliminar Rutinas</text></g><!--link ELIMINANDO_RUTINA to CONSULTANDO_RUTINAS--><g id="link_ELIMINANDO_RUTINA_CONSULTANDO_RUTINAS"><path d="M1585.65,458.93 C1561.31,448.08 1540.42,432.26 1552.57,412 C1560.5,398.78 1568.2175,391.8203 1581.8675,384.7803 " fill="none" id="ELIMINANDO_RUTINA-to-CONSULTANDO_RUTINAS" style="stroke:#181818;stroke-width:1;"/><polygon fill="#181818" points="1587.2,382.03,1577.3677,382.6004,1582.7562,384.3219,1581.0347,389.7104,1587.2,382.03" style="stroke:#181818;stroke-width:1;"/><text fill="#000000" font-family="sans-serif" font-size="13" lengthAdjust="spacing" textLength="119.2534" x="1553.57" y="425.0669">Ir al menú Rutinas</text></g><!--link CONSULTANDO_RUTINAS to BATERIA_EJERCICIOS--><g id="link_CONSULTANDO_RUTINAS_BATERIA_EJERCICIOS"><path d="M1739.46,368.87 C1828.15,374.01 1950.34,385.73 1990.57,412 C2007.35,422.96 2015.8559,438.3056 2021.7259,453.2456 " fill="none" id="CONSULTANDO_RUTINAS-to-BATERIA_EJERCICIOS" style="stroke:#181818;stroke-width:1;"/><polygon fill="#181818" points="2023.92,458.83,2024.3517,448.9906,2022.0915,454.1763,2016.9058,451.9161,2023.92,458.83" style="stroke:#181818;stroke-width:1;"/><text fill="#000000" font-family="sans-serif" font-size="13" lengthAdjust="spacing" textLength="196.644" x="2009.57" y="425.0669">Modificar Batería de Ejercicios</text></g><!--link BATERIA_EJERCICIOS to CONSULTANDO_RUTINAS--><g id="link_BATERIA_EJERCICIOS_CONSULTANDO_RUTINAS"><path d="M1968.09,458.94 C1936.28,450.08 1896.82,439.03 1861.57,429 C1806.44,413.31 1749.4301,396.7798 1704.9201,383.7998 " fill="none" id="BATERIA_EJERCICIOS-to-CONSULTANDO_RUTINAS" style="stroke:#181818;stroke-width:1;"/><polygon fill="#181818" points="1699.16,382.12,1706.6803,388.4797,1703.9601,383.5198,1708.9199,380.7996,1699.16,382.12" style="stroke:#181818;stroke-width:1;"/><text fill="#000000" font-family="sans-serif" font-size="13" lengthAdjust="spacing" textLength="119.2534" x="1862.57" y="425.0669">Ir al menú Rutinas</text></g><!--link BATERIA_EJERCICIOS to PAGINA_PRINCIPAL--><g id="link_BATERIA_EJERCICIOS_PAGINA_PRINCIPAL"><path d="M2112.91,460.69 C2145.39,453.23 2182.45,442.82 2214.57,429 C2318.38,384.34 2423.0416,307.6278 2468.3016,272.6678 " fill="none" id="BATERIA_EJERCICIOS-to-PAGINA_PRINCIPAL" style="stroke:#181818;stroke-width:1;"/><polygon fill="#181818" points="2473.05,269,2463.4822,271.3361,2469.093,272.0565,2468.3726,277.6673,2473.05,269" style="stroke:#181818;stroke-width:1;"/><text fill="#000000" font-family="sans-serif" font-size="13" lengthAdjust="spacing" textLength="63.1973" x="2365.57" y="368.5669">Ir al inicio</text></g><!--link CONSULTANDO_RETOS to CREANDO_RETO--><g id="link_CONSULTANDO_RETOS_CREANDO_RETO"><path d="M2594.93,382.24 C2592.25,395.52 2590.48,414.07 2596.57,429 C2601.31,440.63 2606.0005,446.937 2614.9105,454.917 " fill="none" id="CONSULTANDO_RETOS-to-CREANDO_RETO" style="stroke:#181818;stroke-width:1;"/><polygon fill="#181818" points="2619.38,458.92,2615.3444,449.9359,2615.6554,455.5842,2610.0071,455.8952,2619.38,458.92" style="stroke:#181818;stroke-width:1;"/><text fill="#000000" font-family="sans-serif" font-size="13" lengthAdjust="spacing" textLength="76.7178" x="2597.57" y="425.0669">Crear Retos</text></g><!--link CREANDO_RETO to CONSULTANDO_RETOS--><g id="link_CREANDO_RETO_CONSULTANDO_RETOS"><path d="M2662.69,458.86 C2675.29,445.96 2687.58,427.85 2678.57,412 C2671.23,399.1 2664.0422,392.2887 2651.1822,385.1287 " fill="none" id="CREANDO_RETO-to-CONSULTANDO_RETOS" style="stroke:#181818;stroke-width:1;"/><polygon fill="#181818" points="2645.94,382.21,2651.8576,390.0829,2650.3085,384.6423,2655.7492,383.0932,2645.94,382.21" style="stroke:#181818;stroke-width:1;"/><text fill="#000000" font-family="sans-serif" font-size="13" lengthAdjust="spacing" textLength="107.1484" x="2682.57" y="425.0669">Ir al menú Retos</text></g><!--link CONSULTANDO_RETOS to MODIFICANDO_RETO--><g id="link_CONSULTANDO_RETOS_MODIFICANDO_RETO"><path d="M2551.42,382.01 C2529.93,390.19 2504.56,400.67 2482.57,412 C2455.45,425.97 2431.1909,441.7615 2411.4009,455.4815 " fill="none" id="CONSULTANDO_RETOS-to-MODIFICANDO_RETO" style="stroke:#181818;stroke-width:1;"/><polygon fill="#181818" points="2406.47,458.9,2416.1454,457.0595,2410.5791,456.0513,2411.5874,450.485,2406.47,458.9" style="stroke:#181818;stroke-width:1;"/><text fill="#000000" font-family="sans-serif" font-size="13" lengthAdjust="spacing" textLength="100.6675" x="2483.57" y="425.0669">Modificar Retos</text></g><!--link MODIFICANDO_RETO to CONSULTANDO_RETOS--><g id="link_MODIFICANDO_RETO_CONSULTANDO_RETOS"><path d="M2357.4,458.86 C2341.05,445.63 2324.93,427.11 2337.57,412 C2359.22,386.13 2435.4085,374.9505 2502.0285,369.7105 " fill="none" id="MODIFICANDO_RETO-to-CONSULTANDO_RETOS" style="stroke:#181818;stroke-width:1;"/><polygon fill="#181818" points="2508.01,369.24,2498.7241,365.958,2503.0254,369.6321,2499.3514,373.9334,2508.01,369.24" style="stroke:#181818;stroke-width:1;"/><text fill="#000000" font-family="sans-serif" font-size="13" lengthAdjust="spacing" textLength="107.1484" x="2338.57" y="425.0669">Ir al menú Retos</text></g><!--link CONSULTANDO_RETOS to ELIMINANDO_RETO--><g id="link_CONSULTANDO_RETOS_ELIMINANDO_RETO"><path d="M2691.41,370.17 C2796.91,377.08 2957.96,390.93 2976.57,412 C2992.52,430.06 2974.432,444.5117 2949.002,456.4417 " fill="none" id="CONSULTANDO_RETOS-to-ELIMINANDO_RETO" style="stroke:#181818;stroke-width:1;"/><polygon fill="#181818" points="2943.57,458.99,2953.4168,458.7889,2948.0966,456.8664,2950.0191,451.5462,2943.57,458.99" style="stroke:#181818;stroke-width:1;"/><text fill="#000000" font-family="sans-serif" font-size="13" lengthAdjust="spacing" textLength="94.25" x="2982.57" y="425.0669">Eliminar Retos</text></g><!--link ELIMINANDO_RETO to CONSULTANDO_RETOS--><g id="link_ELIMINANDO_RETO_CONSULTANDO_RETOS"><path d="M2876,458.93 C2856.72,444.47 2827.19,424.2 2798.57,412 C2764.77,397.59 2731.639,388.3967 2697.179,381.0767 " fill="none" id="ELIMINANDO_RETO-to-CONSULTANDO_RETOS" style="stroke:#181818;stroke-width:1;"/><polygon fill="#181818" points="2691.31,379.83,2699.2824,385.6128,2696.2009,380.8689,2700.9447,377.7874,2691.31,379.83" style="stroke:#181818;stroke-width:1;"/><text fill="#000000" font-family="sans-serif" font-size="13" lengthAdjust="spacing" textLength="107.1484" x="2830.57" y="425.0669">Ir al menú Retos</text></g><!--link CONSULTANDO_CONFIGURACION to CONFIGURANDO_SISTEMA--><g id="link_CONSULTANDO_CONFIGURACION_CONFIGURANDO_SISTEMA"><path d="M3465.75,382.08 C3483.12,395.27 3508.04,413.78 3530.57,429 C3545.87,439.33 3558.2371,447.113 3572.5771,455.793 " fill="none" id="CONSULTANDO_CONFIGURACION-to-CONFIGURANDO_SISTEMA" style="stroke:#181818;stroke-width:1;"/><polygon fill="#181818" points="3577.71,458.9,3572.0819,450.8176,3573.4326,456.3109,3567.9393,457.6615,3577.71,458.9" style="stroke:#181818;stroke-width:1;"/><text fill="#000000" font-family="sans-serif" font-size="13" lengthAdjust="spacing" textLength="125.0996" x="3531.57" y="425.0669">Configurar Sistema</text></g><!--link CONFIGURANDO_SISTEMA to CONSULTANDO_CONFIGURACION--><g id="link_CONFIGURANDO_SISTEMA_CONSULTANDO_CONFIGURACION"><path d="M3637.35,458.86 C3656.29,446.11 3674.64,428.19 3661.57,412 C3649.11,396.56 3617.5777,386.9985 3577.1777,379.8285 " fill="none" id="CONFIGURANDO_SISTEMA-to-CONSULTANDO_CONFIGURACION" style="stroke:#181818;stroke-width:1;"/><polygon fill="#181818" points="3571.27,378.78,3579.4325,384.2912,3576.1931,379.6537,3580.8305,376.4142,3571.27,378.78" style="stroke:#181818;stroke-width:1;"/><text fill="#000000" font-family="sans-serif" font-size="13" lengthAdjust="spacing" textLength="160.5068" x="3666.57" y="425.0669">Ir al menú Configuración</text></g><!--link CONSULTANDO_CONFIGURACION to ADMINISTRANDO_PERMISOS--><g id="link_CONSULTANDO_CONFIGURACION_ADMINISTRANDO_PERMISOS"><path d="M3411.51,382.05 C3395.25,390.82 3375.25,401.79 3357.57,412 C3330.95,427.38 3306.1448,442.5309 3285.0848,455.6309 " fill="none" id="CONSULTANDO_CONFIGURACION-to-ADMINISTRANDO_PERMISOS" style="stroke:#181818;stroke-width:1;"/><polygon fill="#181818" points="3279.99,458.8,3289.7449,457.4428,3284.2356,456.1591,3285.5194,450.6498,3279.99,458.8" style="stroke:#181818;stroke-width:1;"/><text fill="#000000" font-family="sans-serif" font-size="13" lengthAdjust="spacing" textLength="138.8867" x="3358.57" y="425.0669">Administrar Permisos</text></g><!--link ADMINISTRANDO_PERMISOS to CONSULTANDO_CONFIGURACION--><g id="link_ADMINISTRANDO_PERMISOS_CONSULTANDO_CONFIGURACION"><path d="M3196.08,458.9 C3168.38,447.62 3144.15,431.37 3160.57,412 C3181.02,387.87 3244.853,376.6447 3310.013,370.9247 " fill="none" id="ADMINISTRANDO_PERMISOS-to-CONSULTANDO_CONFIGURACION" style="stroke:#181818;stroke-width:1;"/><polygon fill="#181818" points="3315.99,370.4,3306.6747,367.2024,3311.0092,370.8372,3307.3743,375.1717,3315.99,370.4" style="stroke:#181818;stroke-width:1;"/><text fill="#000000" font-family="sans-serif" font-size="13" lengthAdjust="spacing" textLength="160.5068" x="3161.57" y="425.0669">Ir al menú Configuración</text></g><!--link CONSULTANDO_CONFIGURACION to AJUSTES_GENERALES--><g id="link_CONSULTANDO_CONFIGURACION_AJUSTES_GENERALES"><path d="M3571.4,365.58 C3743.68,367.71 4032.73,376.59 4065.57,412 C4083.91,431.77 4063.4944,445.8075 4033.1444,456.9175 " fill="none" id="CONSULTANDO_CONFIGURACION-to-AJUSTES_GENERALES" style="stroke:#181818;stroke-width:1;"/><polygon fill="#181818" points="4027.51,458.98,4037.3366,459.6424,4032.2053,457.2612,4034.5865,452.13,4027.51,458.98" style="stroke:#181818;stroke-width:1;"/><text fill="#000000" font-family="sans-serif" font-size="13" lengthAdjust="spacing" textLength="117.5205" x="4072.57" y="425.0669">Ajustes Generales</text></g><!--link AJUSTES_GENERALES to CONSULTANDO_CONFIGURACION--><g id="link_AJUSTES_GENERALES_CONSULTANDO_CONFIGURACION"><path d="M3936.26,458.85 C3911.09,443.92 3872.22,423 3835.57,412 C3749.57,386.2 3654.9163,374.8957 3577.1563,369.6257 " fill="none" id="AJUSTES_GENERALES-to-CONSULTANDO_CONFIGURACION" style="stroke:#181818;stroke-width:1;"/><polygon fill="#181818" points="3571.17,369.22,3579.8789,373.8194,3576.1586,369.5581,3580.4199,365.8377,3571.17,369.22" style="stroke:#181818;stroke-width:1;"/><text fill="#000000" font-family="sans-serif" font-size="13" lengthAdjust="spacing" textLength="160.5068" x="3879.57" y="425.0669">Ir al menú Configuración</text></g><!--link CONSULTANDO_REPORTES to CONSULTANDO_REPORTES_DETALLADOS--><g id="link_CONSULTANDO_REPORTES_CONSULTANDO_REPORTES_DETALLADOS"><path d="M4463.91,370.38 C4574.65,377.13 4735.49,390.52 4754.57,412 C4767.84,426.94 4755.722,441.9356 4738.812,455.2656 " fill="none" id="CONSULTANDO_REPORTES-to-CONSULTANDO_REPORTES_DETALLADOS" style="stroke:#181818;stroke-width:1;"/><polygon fill="#181818" points="4734.1,458.98,4743.6443,456.5497,4738.0267,455.8846,4738.6917,450.267,4734.1,458.98" style="stroke:#181818;stroke-width:1;"/><text fill="#000000" font-family="sans-serif" font-size="13" lengthAdjust="spacing" textLength="198.2563" x="4759.57" y="425.0669">Consultar Reportes Detallados</text></g><!--link CONSULTANDO_REPORTES_DETALLADOS to CONSULTANDO_REPORTES--><g id="link_CONSULTANDO_REPORTES_DETALLADOS_CONSULTANDO_REPORTES"><path d="M4672.41,458.91 C4641.8,444.93 4596.49,425.34 4555.57,412 C4519.3,400.17 4484.2444,391.2439 4449.1344,383.3639 " fill="none" id="CONSULTANDO_REPORTES_DETALLADOS-to-CONSULTANDO_REPORTES" style="stroke:#181818;stroke-width:1;"/><polygon fill="#181818" points="4443.28,382.05,4451.1856,387.9238,4448.1586,383.1449,4452.9375,380.118,4443.28,382.05" style="stroke:#181818;stroke-width:1;"/><text fill="#000000" font-family="sans-serif" font-size="13" lengthAdjust="spacing" textLength="128.7432" x="4598.57" y="425.0669">Ir al menú Reportes</text></g><!--link CONSULTANDO_REPORTES to DESCARGANDO_ESTADISTICAS--><g id="link_CONSULTANDO_REPORTES_DESCARGANDO_ESTADISTICAS"><path d="M4296.48,382.1 C4282.31,389.03 4268.96,398.67 4260.57,412 C4248.81,430.68 4263.1547,444.3801 4284.7247,455.9701 " fill="none" id="CONSULTANDO_REPORTES-to-DESCARGANDO_ESTADISTICAS" style="stroke:#181818;stroke-width:1;"/><polygon fill="#181818" points="4290.01,458.81,4283.9753,451.0266,4285.6055,456.4434,4280.1887,458.0737,4290.01,458.81" style="stroke:#181818;stroke-width:1;"/><text fill="#000000" font-family="sans-serif" font-size="13" lengthAdjust="spacing" textLength="148.2178" x="4261.57" y="425.0669">Descargar Estadísticas</text></g><!--link DESCARGANDO_ESTADISTICAS to CONSULTANDO_REPORTES--><g id="link_DESCARGANDO_ESTADISTICAS_CONSULTANDO_REPORTES"><path d="M4381.1,458.82 C4394.3,451.72 4406.98,442.02 4414.57,429 C4424.83,411.4 4412.7274,397.5452 4394.8074,385.4052 " fill="none" id="DESCARGANDO_ESTADISTICAS-to-CONSULTANDO_REPORTES" style="stroke:#181818;stroke-width:1;"/><polygon fill="#181818" points="4389.84,382.04,4395.0477,390.3994,4393.9795,384.8443,4399.5346,383.7762,4389.84,382.04" style="stroke:#181818;stroke-width:1;"/><text fill="#000000" font-family="sans-serif" font-size="13" lengthAdjust="spacing" textLength="128.7432" x="4418.57" y="425.0669">Ir al menú Reportes</text></g><!--SRC=[jLTDRk8m5Dxd59vLXyLSe8kHtCH5hY0W9vajyX23N8MaiXEfFSuSeAlPpPQBpKi2r4vi65HcqoBUx_VylH- -v68ZIu4O2LCSJsVaw-i4AR6kURaj17eDWWy9ZkOqfadASBHW4rEGfIHEQOZZQ65-lyHJ6kFLaj4uf4iycmJ17PgBSlz7enSboxLyuONGXaMuY9DibhQELbcIOKONoSGZPraAtlrYalfjuVCZdMOCXtGH-pqi5ombIPSs4mLVo_tl4ecoLWA90k5y9qkfQyNpIg4tL72qtF_QoXB-7z45Lj7Gjs_VaLajT8zmKuD7kUwz1vQqLHyM4KnekLL2SuLuWJGa87Oy6AbreQpWzoWKIe5P8dGN2s25LIbU9VpHA1Sw5quGYAEYqeUNSqToFLmBxbGYXJBTS2Kh7JXrVL0xaE1ZBQlWSkW39y1mAdGDk20kQsf0OuSzwjqeQairEwQe1q1xdTl4izZRFcjLRkIsKGU2vi3Dv40BlzcjeFSz0fO_H8lxfL8raEaD4LtpVF-kMseFIt6m-QSKxb3I_DmqmCG3ItiUjXzEZ3Bwbn6JLsPhpnSHVUmRooKcCmhDOakzJ1s4QTz02OlZ0uKpFTB3tNMWJlR-q0uOu6HUvN83bJPIS2dUBernkS07AIJqkvc4G-tg7CumuDZROmBq7Uvx_x7KI7GiVC0fOHIlo1DX8GsxfUGR9tO29sQSff0jzWyminP7Os_GCJQB4qTxXzgD4XYLpsJ3qNgiTAFeu_Unu3_mMgZzEsyPGvw5MhUJHGSEg-loyJZup4Zh5uU3ph0-l6GUoCmoToBt7Z9TVz2qNrocoBVjh8fqPfv0mrnjQdQM8vLF1nqKmQ9ZPpTKk2BYcVUpLx5zMFRBj_MTm4r6vjQ8-JZLMeKbONEQsFShVih0AbbDIKmOdf7131flTrT8yrfGvfKmrhnqTPY56S2-a9WRw-1SN0granhAxT7-Z-aD2zrczjpezgwPYbAexaVBMEip6PqT2VrDTU5NoYeYAPxDuDAtM1EH9CHisgcI9CKHL18QRRZ0p9FiWlUUGhefQcuSV96eUL70Bo7thMVQdxaXxMOxuFPdwWC7dYAXORni8KNx4FMQN9dLNm00]--></g></svg>