<svg xmlns="http://www.w3.org/2000/svg" xmlns:xlink="http://www.w3.org/1999/xlink" contentStyleType="text/css" height="388px" preserveAspectRatio="none" style="width:1870px;height:388px;background:#FFFFFF;" version="1.1" viewBox="0 0 1870 388" width="1870px" zoomAndPan="magnify"><defs/><g><!--entity ALUMNOS--><g id="elem_ALUMNOS"><rect fill="#F1F1F1" height="36.2969" rx="2.5" ry="2.5" style="stroke:#181818;stroke-width:0.5;" width="90.082" x="695.62" y="7"/><text fill="#000000" font-family="sans-serif" font-size="14" lengthAdjust="spacing" textLength="70.082" x="705.62" y="29.9951">ALUMNOS</text></g><!--entity PAGINA_PRINCIPAL--><g id="elem_PAGINA_PRINCIPAL"><rect fill="#F1F1F1" height="36.2969" rx="2.5" ry="2.5" style="stroke:#181818;stroke-width:0.5;" width="152.542" x="664.12" y="120"/><text fill="#000000" font-family="sans-serif" font-size="14" lengthAdjust="spacing" textLength="132.542" x="674.12" y="142.9951">PAGINA_PRINCIPAL</text></g><!--entity MENU_RUTINAS--><g id="elem_MENU_RUTINAS"><rect fill="#F1F1F1" height="36.2969" rx="2.5" ry="2.5" style="stroke:#181818;stroke-width:0.5;" width="130.2363" x="80.62" y="233"/><text fill="#000000" font-family="sans-serif" font-size="14" lengthAdjust="spacing" textLength="110.2363" x="90.62" y="255.9951">MENU_RUTINAS</text></g><!--entity MENU_RETOS--><g id="elem_MENU_RETOS"><rect fill="#F1F1F1" height="36.2969" rx="2.5" ry="2.5" style="stroke:#181818;stroke-width:0.5;" width="115.6758" x="352.62" y="233"/><text fill="#000000" font-family="sans-serif" font-size="14" lengthAdjust="spacing" textLength="95.6758" x="362.62" y="255.9951">MENU_RETOS</text></g><!--entity MENU_CLASIFICACION--><g id="elem_MENU_CLASIFICACION"><rect fill="#F1F1F1" height="36.2969" rx="2.5" ry="2.5" style="stroke:#181818;stroke-width:0.5;" width="175.7432" x="830.62" y="233"/><text fill="#000000" font-family="sans-serif" font-size="14" lengthAdjust="spacing" textLength="155.7432" x="840.62" y="255.9951">MENU_CLASIFICACION</text></g><!--entity MENU_PERFIL--><g id="elem_MENU_PERFIL"><rect fill="#F1F1F1" height="36.2969" rx="2.5" ry="2.5" style="stroke:#181818;stroke-width:0.5;" width="115.6416" x="1204.62" y="233"/><text fill="#000000" font-family="sans-serif" font-size="14" lengthAdjust="spacing" textLength="95.6416" x="1214.62" y="255.9951">MENU_PERFIL</text></g><!--entity INSIGNIAS--><g id="elem_INSIGNIAS"><rect fill="#F1F1F1" height="36.2969" rx="2.5" ry="2.5" style="stroke:#181818;stroke-width:0.5;" width="91.5313" x="922.62" y="346"/><text fill="#000000" font-family="sans-serif" font-size="14" lengthAdjust="spacing" textLength="71.5313" x="932.62" y="368.9951">INSIGNIAS</text></g><!--entity INSCRIPCION_CLASE--><g id="elem_INSCRIPCION_CLASE"><rect fill="#F1F1F1" height="36.2969" rx="2.5" ry="2.5" style="stroke:#181818;stroke-width:0.5;" width="162.8438" x="1184.12" y="346"/><text fill="#000000" font-family="sans-serif" font-size="14" lengthAdjust="spacing" textLength="142.8438" x="1194.12" y="368.9951">INSCRIPCION_CLASE</text></g><!--entity QR_CENTROS_DEPORTIVOS--><g id="elem_QR_CENTROS_DEPORTIVOS"><rect fill="#F1F1F1" height="36.2969" rx="2.5" ry="2.5" style="stroke:#181818;stroke-width:0.5;" width="213.0059" x="1563.12" y="346"/><text fill="#000000" font-family="sans-serif" font-size="14" lengthAdjust="spacing" textLength="193.0059" x="1573.12" y="368.9951">QR_CENTROS_DEPORTIVOS</text></g><!--entity RETOS_OBLIGATORIOS--><g id="elem_RETOS_OBLIGATORIOS"><rect fill="#F1F1F1" height="36.2969" rx="2.5" ry="2.5" style="stroke:#181818;stroke-width:0.5;" width="180.3438" x="116.62" y="346"/><text fill="#000000" font-family="sans-serif" font-size="14" lengthAdjust="spacing" textLength="160.3438" x="126.62" y="368.9951">RETOS_OBLIGATORIOS</text></g><!--entity RETOS_OPCIONALES--><g id="elem_RETOS_OPCIONALES"><rect fill="#F1F1F1" height="36.2969" rx="2.5" ry="2.5" style="stroke:#181818;stroke-width:0.5;" width="163.999" x="434.62" y="346"/><text fill="#000000" font-family="sans-serif" font-size="14" lengthAdjust="spacing" textLength="143.999" x="444.62" y="368.9951">RETOS_OPCIONALES</text></g><!--link ALUMNOS to PAGINA_PRINCIPAL--><g id="link_ALUMNOS_PAGINA_PRINCIPAL"><path d="M701.8,43.24 C681.95,54.73 663.83,71.16 673.62,90 C680.18,102.61 686.7644,109.3403 698.5344,116.7603 " fill="none" id="ALUMNOS-to-PAGINA_PRINCIPAL" style="stroke:#181818;stroke-width:1;"/><polygon fill="#181818" points="703.61,119.96,698.1298,111.7767,699.3803,117.2936,693.8634,118.5441,703.61,119.96" style="stroke:#181818;stroke-width:1;"/><text fill="#000000" font-family="sans-serif" font-size="13" lengthAdjust="spacing" textLength="86.7153" x="674.62" y="86.0669">Iniciar Sesi&#243;n</text></g><!--link PAGINA_PRINCIPAL to ALUMNOS--><g id="link_PAGINA_PRINCIPAL_ALUMNOS"><path d="M752.28,119.98 C757.47,111.39 762.98,100.58 765.62,90 C769.69,73.68 764.908,60.9904 756.898,48.3304 " fill="none" id="PAGINA_PRINCIPAL-to-ALUMNOS" style="stroke:#181818;stroke-width:1;"/><polygon fill="#181818" points="753.69,43.26,755.1218,53.0042,756.3634,47.4853,761.8823,48.7269,753.69,43.26" style="stroke:#181818;stroke-width:1;"/><text fill="#000000" font-family="sans-serif" font-size="13" lengthAdjust="spacing" textLength="88.0356" x="768.62" y="86.0669">Cerrar Sesi&#243;n</text></g><!--link PAGINA_PRINCIPAL to MENU_RUTINAS--><g id="link_PAGINA_PRINCIPAL_MENU_RUTINAS"><path d="M664.07,138.73 C498.68,138.95 119.67,144.07 80.62,186 C65.4,202.34 81.4587,217.1265 103.6287,229.7765 " fill="none" id="PAGINA_PRINCIPAL-to-MENU_RUTINAS" style="stroke:#181818;stroke-width:1;"/><polygon fill="#181818" points="108.84,232.75,103.0054,224.8155,104.4972,230.272,99.0406,231.7639,108.84,232.75" style="stroke:#181818;stroke-width:1;"/><text fill="#000000" font-family="sans-serif" font-size="13" lengthAdjust="spacing" textLength="82.6909" x="81.62" y="199.0669">Usar Rutinas</text></g><!--link MENU_RUTINAS to PAGINA_PRINCIPAL--><g id="link_MENU_RUTINAS_PAGINA_PRINCIPAL"><path d="M162.64,232.79 C178.84,217.61 204.69,196.32 231.62,186 C308.59,156.51 535.8433,145.2692 658.0633,141.2092 " fill="none" id="MENU_RUTINAS-to-PAGINA_PRINCIPAL" style="stroke:#181818;stroke-width:1;"/><polygon fill="#181818" points="664.06,141.01,654.9322,137.311,659.0628,141.176,655.1978,145.3066,664.06,141.01" style="stroke:#181818;stroke-width:1;"/><text fill="#000000" font-family="sans-serif" font-size="13" lengthAdjust="spacing" textLength="150.084" x="232.62" y="199.0669">Volver p&#225;gina principal</text></g><!--link PAGINA_PRINCIPAL to MENU_RETOS--><g id="link_PAGINA_PRINCIPAL_MENU_RETOS"><path d="M664.03,138.25 C573.44,139.2 430.61,147.06 396.62,186 C385.41,198.85 389.3316,213.3178 396.8316,227.4778 " fill="none" id="PAGINA_PRINCIPAL-to-MENU_RETOS" style="stroke:#181818;stroke-width:1;"/><polygon fill="#181818" points="399.64,232.78,398.9622,222.9545,397.2997,228.3615,391.8927,226.699,399.64,232.78" style="stroke:#181818;stroke-width:1;"/><text fill="#000000" font-family="sans-serif" font-size="13" lengthAdjust="spacing" textLength="203.2139" x="397.62" y="199.0669">Participar en Retos/Actividades</text></g><!--link MENU_RETOS to PAGINA_PRINCIPAL--><g id="link_MENU_RETOS_PAGINA_PRINCIPAL"><path d="M468.7,239.28 C507.96,231.24 560.64,218.89 605.62,203 C625.31,196.04 668.2579,175.1923 701.4079,158.7023 " fill="none" id="MENU_RETOS-to-PAGINA_PRINCIPAL" style="stroke:#181818;stroke-width:1;"/><polygon fill="#181818" points="706.78,156.03,696.9404,156.457,702.3033,158.2569,700.5034,163.6198,706.78,156.03" style="stroke:#181818;stroke-width:1;"/><text fill="#000000" font-family="sans-serif" font-size="13" lengthAdjust="spacing" textLength="150.084" x="643.62" y="199.0669">Volver p&#225;gina principal</text></g><!--link PAGINA_PRINCIPAL to MENU_CLASIFICACION--><g id="link_PAGINA_PRINCIPAL_MENU_CLASIFICACION"><path d="M764.28,156.23 C782.83,169.5 809.45,188.05 833.62,203 C850.55,213.47 864.6487,221.4226 880.6187,230.0326 " fill="none" id="PAGINA_PRINCIPAL-to-MENU_CLASIFICACION" style="stroke:#181818;stroke-width:1;"/><polygon fill="#181818" points="885.9,232.88,879.8762,225.0881,881.4989,230.5072,876.0798,232.1299,885.9,232.88" style="stroke:#181818;stroke-width:1;"/><text fill="#000000" font-family="sans-serif" font-size="13" lengthAdjust="spacing" textLength="122.4336" x="834.62" y="199.0669">Ver Clasificaciones</text></g><!--link MENU_CLASIFICACION to PAGINA_PRINCIPAL--><g id="link_MENU_CLASIFICACION_PAGINA_PRINCIPAL"><path d="M942.75,232.85 C958.42,219.61 973.84,201.08 961.62,186 C943.54,163.67 879.7426,152.1685 823.3726,145.8485 " fill="none" id="MENU_CLASIFICACION-to-PAGINA_PRINCIPAL" style="stroke:#181818;stroke-width:1;"/><polygon fill="#181818" points="817.41,145.18,825.9083,150.1579,822.3789,145.7371,826.7996,142.2077,817.41,145.18" style="stroke:#181818;stroke-width:1;"/><text fill="#000000" font-family="sans-serif" font-size="13" lengthAdjust="spacing" textLength="150.084" x="967.62" y="199.0669">Volver p&#225;gina principal</text></g><!--link PAGINA_PRINCIPAL to MENU_PERFIL--><g id="link_PAGINA_PRINCIPAL_MENU_PERFIL"><path d="M817.12,141.16 C896.05,145.04 1022.02,155.86 1126.62,186 C1165.24,197.13 1201.3625,215.1208 1228.2025,230.0008 " fill="none" id="PAGINA_PRINCIPAL-to-MENU_PERFIL" style="stroke:#181818;stroke-width:1;"/><polygon fill="#181818" points="1233.45,232.91,1227.5182,225.0478,1229.0771,230.4857,1223.6392,232.0445,1233.45,232.91" style="stroke:#181818;stroke-width:1;"/><text fill="#000000" font-family="sans-serif" font-size="13" lengthAdjust="spacing" textLength="99.417" x="1174.62" y="199.0669">Consultar Perfil</text></g><!--link MENU_PERFIL to PAGINA_PRINCIPAL--><g id="link_MENU_PERFIL_PAGINA_PRINCIPAL"><path d="M1276.14,232.79 C1285.53,218.63 1294.42,198.87 1282.62,186 C1251.82,152.41 965.3989,142.8644 823.3389,140.1544 " fill="none" id="MENU_PERFIL-to-PAGINA_PRINCIPAL" style="stroke:#181818;stroke-width:1;"/><polygon fill="#181818" points="817.34,140.04,826.2621,144.2109,822.3391,140.1354,826.4147,136.2124,817.34,140.04" style="stroke:#181818;stroke-width:1;"/><text fill="#000000" font-family="sans-serif" font-size="13" lengthAdjust="spacing" textLength="150.084" x="1288.62" y="199.0669">Volver p&#225;gina principal</text></g><!--link MENU_PERFIL to INSIGNIAS--><g id="link_MENU_PERFIL_INSIGNIAS"><path d="M1204.32,257.07 C1099.12,266.5 887.36,286.87 876.62,299 C857.66,320.41 885.1635,336.311 916.8335,347.691 " fill="none" id="MENU_PERFIL-to-INSIGNIAS" style="stroke:#181818;stroke-width:1;"/><polygon fill="#181818" points="922.48,349.72,915.3629,342.9122,917.7746,348.0292,912.6576,350.4409,922.48,349.72" style="stroke:#181818;stroke-width:1;"/><text fill="#000000" font-family="sans-serif" font-size="13" lengthAdjust="spacing" textLength="164.1631" x="877.62" y="312.0669">Ver Insignias Conseguida</text></g><!--link INSIGNIAS to MENU_PERFIL--><g id="link_INSIGNIAS_MENU_PERFIL"><path d="M1004.22,345.97 C1033.3,332.39 1075.65,313.32 1113.62,299 C1143.19,287.85 1170.9562,278.8445 1198.7062,270.4645 " fill="none" id="INSIGNIAS-to-MENU_PERFIL" style="stroke:#181818;stroke-width:1;"/><polygon fill="#181818" points="1204.45,268.73,1194.6779,267.5026,1199.6635,270.1754,1196.9906,275.161,1204.45,268.73" style="stroke:#181818;stroke-width:1;"/><text fill="#000000" font-family="sans-serif" font-size="13" lengthAdjust="spacing" textLength="94.3198" x="1114.62" y="312.0669">Volver al Perfil</text></g><!--link MENU_PERFIL to INSCRIPCION_CLASE--><g id="link_MENU_PERFIL_INSCRIPCION_CLASE"><path d="M1238.96,269.03 C1225.04,281.3 1211.45,298.68 1218.62,316 C1223.39,327.51 1228.0039,333.7069 1236.9439,341.6069 " fill="none" id="MENU_PERFIL-to-INSCRIPCION_CLASE" style="stroke:#181818;stroke-width:1;"/><polygon fill="#181818" points="1241.44,345.58,1237.3446,336.623,1237.6933,342.2691,1232.0472,342.6178,1241.44,345.58" style="stroke:#181818;stroke-width:1;"/><text fill="#000000" font-family="sans-serif" font-size="13" lengthAdjust="spacing" textLength="133.6309" x="1219.62" y="312.0669">Inscribirse en Clases</text></g><!--link INSCRIPCION_CLASE to MENU_PERFIL--><g id="link_INSCRIPCION_CLASE_MENU_PERFIL"><path d="M1323.62,345.98 C1348.99,335.28 1370.4,319.58 1357.62,299 C1349.08,285.24 1340.5961,277.9928 1326.0361,270.9828 " fill="none" id="INSCRIPCION_CLASE-to-MENU_PERFIL" style="stroke:#181818;stroke-width:1;"/><polygon fill="#181818" points="1320.63,268.38,1327.0039,275.8882,1325.1351,270.549,1330.4743,268.6801,1320.63,268.38" style="stroke:#181818;stroke-width:1;"/><text fill="#000000" font-family="sans-serif" font-size="13" lengthAdjust="spacing" textLength="94.3198" x="1361.62" y="312.0669">Volver al Perfil</text></g><!--link MENU_PERFIL to QR_CENTROS_DEPORTIVOS--><g id="link_MENU_PERFIL_QR_CENTROS_DEPORTIVOS"><path d="M1320.81,264.34 C1361.33,273.23 1416.5,285.91 1464.62,299 C1517.51,313.39 1571.5491,330.4792 1612.8391,344.0292 " fill="none" id="MENU_PERFIL-to-QR_CENTROS_DEPORTIVOS" style="stroke:#181818;stroke-width:1;"/><polygon fill="#181818" points="1618.54,345.9,1611.2359,339.2932,1613.7893,344.341,1608.7415,346.8943,1618.54,345.9" style="stroke:#181818;stroke-width:1;"/><text fill="#000000" font-family="sans-serif" font-size="13" lengthAdjust="spacing" textLength="232.0767" x="1521.62" y="312.0669">Utilizar QR para Centros Deportivos</text></g><!--link QR_CENTROS_DEPORTIVOS to MENU_PERFIL--><g id="link_QR_CENTROS_DEPORTIVOS_MENU_PERFIL"><path d="M1726.2,345.96 C1754.77,334.55 1780.04,318.13 1762.62,299 C1733.35,266.84 1452.0482,256.4083 1326.6582,253.3083 " fill="none" id="QR_CENTROS_DEPORTIVOS-to-MENU_PERFIL" style="stroke:#181818;stroke-width:1;"/><polygon fill="#181818" points="1320.66,253.16,1329.5584,257.3812,1325.6585,253.2836,1329.7561,249.3837,1320.66,253.16" style="stroke:#181818;stroke-width:1;"/><text fill="#000000" font-family="sans-serif" font-size="13" lengthAdjust="spacing" textLength="94.3198" x="1768.62" y="312.0669">Volver al Perfil</text></g><!--link MENU_RETOS to RETOS_OBLIGATORIOS--><g id="link_MENU_RETOS_RETOS_OBLIGATORIOS"><path d="M352.38,257.28 C249.63,266.87 45.99,287.25 35.62,299 C6,332.57 55.1759,347.763 110.5459,355.373 " fill="none" id="MENU_RETOS-to-RETOS_OBLIGATORIOS" style="stroke:#181818;stroke-width:1;"/><polygon fill="#181818" points="116.49,356.19,108.1185,351.0018,111.5366,355.5092,107.0292,358.9273,116.49,356.19" style="stroke:#181818;stroke-width:1;"/><text fill="#000000" font-family="sans-serif" font-size="13" lengthAdjust="spacing" textLength="191.7437" x="36.62" y="312.0669">Completar Retos Obligatorios</text></g><!--link RETOS_OBLIGATORIOS to MENU_RETOS--><g id="link_RETOS_OBLIGATORIOS_MENU_RETOS"><path d="M225.35,345.75 C241.27,331.76 265.21,312.26 288.62,299 C309.76,287.03 328.8934,278.8889 350.5734,271.0989 " fill="none" id="RETOS_OBLIGATORIOS-to-MENU_RETOS" style="stroke:#181818;stroke-width:1;"/><polygon fill="#181818" points="356.22,269.07,346.3976,268.349,351.5145,270.7608,349.1028,275.8777,356.22,269.07" style="stroke:#181818;stroke-width:1;"/><text fill="#000000" font-family="sans-serif" font-size="13" lengthAdjust="spacing" textLength="138.0171" x="289.62" y="312.0669">Volver al Men&#250; Retos</text></g><!--link MENU_RETOS to RETOS_OPCIONALES--><g id="link_MENU_RETOS_RETOS_OPCIONALES"><path d="M418.24,269.1 C424.91,282.81 435.57,302.02 448.62,316 C459.39,327.54 468.4005,334.6148 480.9505,342.6148 " fill="none" id="MENU_RETOS-to-RETOS_OPCIONALES" style="stroke:#181818;stroke-width:1;"/><polygon fill="#181818" points="486.01,345.84,480.5709,337.6293,481.7938,343.1524,476.2707,344.3752,486.01,345.84" style="stroke:#181818;stroke-width:1;"/><text fill="#000000" font-family="sans-serif" font-size="13" lengthAdjust="spacing" textLength="184.8691" x="449.62" y="312.0669">Completar Retos Opcionales</text></g><!--link RETOS_OPCIONALES to MENU_RETOS--><g id="link_RETOS_OPCIONALES_MENU_RETOS"><path d="M598.69,346.84 C631.08,336.7 656.75,321.25 638.62,299 C617.59,273.19 535.1768,261.667 474.8368,256.347 " fill="none" id="RETOS_OPCIONALES-to-MENU_RETOS" style="stroke:#181818;stroke-width:1;"/><polygon fill="#181818" points="468.86,255.82,477.4739,260.595,473.8407,256.2591,478.1765,252.6259,468.86,255.82" style="stroke:#181818;stroke-width:1;"/><text fill="#000000" font-family="sans-serif" font-size="13" lengthAdjust="spacing" textLength="138.0171" x="645.62" y="312.0669">Volver al Men&#250; Retos</text></g><!--SRC=[dLB1RgCm4BtxAxotzb3jlOULN4eZImIe8RaYbpXe9Az1Decg_PlzXjvwpOzrJ6W3WMRRlSxCU_FcpVknKLimYeemo5cyYCAhvsjgLTbAKsb5dmavTLYqMiP9TZqefMp1OrQaWiS1Jraqx2t3U5M8LOu3sRGUvicq6aGiumyyO05Fuaat3SK37wtWSSONCH_pOp4GFFKK7M4uR3wA8WZZN2HPSH-cYSZvUgoZ4rOaTn5Vi3mHVBRRaRCen1xfNQ4tDx_ekHtqbd839KXBC-NWy6B8PCJZtZbkQQ2i7KpFZm-THSpA8KBiMZ3ING9uxJYUIjkYfWP1ob2XsjhzP6KBUzZ8ZRh4C7eFCgsLfO6M3hPGoX9gSn5zV9-_iJPkfrlSdogx1Kt8iE_dF_xQB-76GML0kWwhgXrAdGED_zwvxqeBJs2TyiTwiQZn73aR2czi2nh-eCv7GT4kYTynhQqTlLTDZIRkQzThFthhkQRvwIx-tMZbB-xificJXagsjONQVKBm4R4vUEFDbXfFcLatUVYwrdiqKMgwLERmUYGXaprVn95H-Zv9VGzj3dyhJ2LjB1YVE7r-xBUXumZ-5yNWyT_1abCefv4-MTL7UXh6Bu3cS_Xlu1i0]--></g></svg>