<svg xmlns="http://www.w3.org/2000/svg" xmlns:xlink="http://www.w3.org/1999/xlink" contentStyleType="text/css" height="646.2px" preserveAspectRatio="none" style="width:1530px;height:646px;background:#FFFFFF;" version="1.1" viewBox="0 0 1530 646" width="1530.6px" zoomAndPan="magnify"><defs/><g><!--entity ALUMNO--><g id="elem_ALUMNO"><rect fill="#9ACD32" height="23.1727" rx="1.5" ry="1.5" style="stroke:#181818;stroke-width:0.3;" width="47.9379" x="1194.6" y="4.2"/><text fill="#000000" font-family="sans-serif" font-size="8.4" lengthAdjust="spacing" textLength="35.9379" x="1200.6" y="19.2645">ALUMNO</text></g><!--entity PAGINA_PRINCIPAL--><g id="elem_PAGINA_PRINCIPAL"><rect fill="#ADD8E6" height="23.1727" rx="1.5" ry="1.5" style="stroke:#181818;stroke-width:0.3;" width="92.7598" x="923.1" y="75"/><text fill="#000000" font-family="sans-serif" font-size="8.4" lengthAdjust="spacing" textLength="80.7598" x="929.1" y="90.0645">PAGINA_PRINCIPAL</text></g><!--entity MENU_RUTINAS_EJERCICIOS--><g id="elem_MENU_RUTINAS_EJERCICIOS"><rect fill="#98FB98" height="23.1727" rx="1.5" ry="1.5" style="stroke:#181818;stroke-width:0.3;" width="133.3529" x="589.2" y="145.8"/><text fill="#000000" font-family="sans-serif" font-size="8.4" lengthAdjust="spacing" textLength="121.3529" x="595.2" y="160.8645">MENU_RUTINAS_EJERCICIOS</text></g><!--entity MENU_RETOS--><g id="elem_MENU_RETOS"><rect fill="#FFA07A" height="23.1727" rx="1.5" ry="1.5" style="stroke:#181818;stroke-width:0.3;" width="70.3406" x="921.3" y="549"/><text fill="#000000" font-family="sans-serif" font-size="8.4" lengthAdjust="spacing" textLength="58.3406" x="927.3" y="564.0645">MENU_RETOS</text></g><!--entity MENU_CLASIFICACION--><g id="elem_MENU_CLASIFICACION"><rect fill="#FFD700" height="23.1727" rx="1.5" ry="1.5" style="stroke:#181818;stroke-width:0.3;" width="105.815" x="348.6" y="418.2"/><text fill="#000000" font-family="sans-serif" font-size="8.4" lengthAdjust="spacing" textLength="93.815" x="354.6" y="433.2645">MENU_CLASIFICACION</text></g><!--entity MENU_PERFIL--><g id="elem_MENU_PERFIL"><rect fill="#F08080" height="23.1727" rx="1.5" ry="1.5" style="stroke:#181818;stroke-width:0.3;" width="70.8123" x="756" y="287.4"/><text fill="#000000" font-family="sans-serif" font-size="8.4" lengthAdjust="spacing" textLength="58.8123" x="762" y="302.4645">MENU_PERFIL</text></g><!--entity VER_INSIGNIAS--><g id="elem_VER_INSIGNIAS"><rect fill="#FFE4E1" height="23.1727" rx="1.5" ry="1.5" style="stroke:#181818;stroke-width:0.3;" width="76.4191" x="926.1" y="358.2"/><text fill="#000000" font-family="sans-serif" font-size="8.4" lengthAdjust="spacing" textLength="64.4191" x="932.1" y="373.2645">VER_INSIGNIAS</text></g><!--entity INSCRIBIR_CLASE--><g id="elem_INSCRIBIR_CLASE"><rect fill="#FFE4E1" height="23.1727" rx="1.5" ry="1.5" style="stroke:#181818;stroke-width:0.3;" width="86.6895" x="610.2" y="358.2"/><text fill="#000000" font-family="sans-serif" font-size="8.4" lengthAdjust="spacing" textLength="74.6895" x="616.2" y="373.2645">INSCRIBIR_CLASE</text></g><!--entity MOSTRAR_QR--><g id="elem_MOSTRAR_QR"><rect fill="#FFE4E1" height="23.1727" rx="1.5" ry="1.5" style="stroke:#181818;stroke-width:0.3;" width="71.2717" x="833.7" y="358.2"/><text fill="#000000" font-family="sans-serif" font-size="8.4" lengthAdjust="spacing" textLength="59.2717" x="839.7" y="373.2645">MOSTRAR_QR</text></g><!--entity CREAR_RUTINA--><g id="elem_CREAR_RUTINA"><rect fill="#98FB98" height="23.1727" rx="1.5" ry="1.5" style="stroke:#181818;stroke-width:0.3;" width="77.342" x="444.3" y="216.6"/><text fill="#000000" font-family="sans-serif" font-size="8.4" lengthAdjust="spacing" textLength="65.342" x="450.3" y="231.6645">CREAR_RUTINA</text></g><!--entity EDITAR_RUTINA--><g id="elem_EDITAR_RUTINA"><rect fill="#98FB98" height="23.1727" rx="1.5" ry="1.5" style="stroke:#181818;stroke-width:0.3;" width="78.7406" x="791.7" y="216.6"/><text fill="#000000" font-family="sans-serif" font-size="8.4" lengthAdjust="spacing" textLength="66.7406" x="797.7" y="231.6645">EDITAR_RUTINA</text></g><!--entity SUBIR_EVIDENCIA_RETO--><g id="elem_SUBIR_EVIDENCIA_RETO"><rect fill="#FFA07A" height="23.1727" rx="1.5" ry="1.5" style="stroke:#181818;stroke-width:0.3;" width="115.626" x="898.5" y="619.8"/><text fill="#000000" font-family="sans-serif" font-size="8.4" lengthAdjust="spacing" textLength="103.626" x="904.5" y="634.8645">SUBIR_EVIDENCIA_RETO</text></g><!--entity VER_ALUMNOS_CLASE--><g id="elem_VER_ALUMNOS_CLASE"><rect fill="#FFD700" height="23.1727" rx="1.5" ry="1.5" style="stroke:#181818;stroke-width:0.3;" width="107.7018" x="566.4" y="489"/><text fill="#000000" font-family="sans-serif" font-size="8.4" lengthAdjust="spacing" textLength="95.7018" x="572.4" y="504.0645">VER_ALUMNOS_CLASE</text></g><!--link ALUMNO to PAGINA_PRINCIPAL--><g id="link_ALUMNO_PAGINA_PRINCIPAL"><path d="M1194.498,23.238 C1151.598,35.226 1065.0711,59.4149 1012.8651,74.0069 " fill="none" id="ALUMNO-to-PAGINA_PRINCIPAL" style="stroke:#9ACD32;stroke-width:0.6;"/><polygon fill="#9ACD32" points="1009.398,74.976,1015.2447,75.8338,1012.2873,74.1684,1013.9526,71.211,1009.398,74.976" style="stroke:#9ACD32;stroke-width:0.6;"/><text fill="#000000" font-family="sans-serif" font-size="7.8" lengthAdjust="spacing" textLength="65.8925" x="1110" y="54.617">Ingresar al sistema</text></g><!--link PAGINA_PRINCIPAL to MENU_RUTINAS_EJERCICIOS--><g id="link_PAGINA_PRINCIPAL_MENU_RUTINAS_EJERCICIOS"><path d="M923.004,89.928 C878.412,93.276 809.586,100.656 751.8,116.4 C725.358,123.606 699.8301,134.8867 680.7501,144.1867 " fill="none" id="PAGINA_PRINCIPAL-to-MENU_RUTINAS_EJERCICIOS" style="stroke:#98FB98;stroke-width:0.6;"/><polygon fill="#98FB98" points="677.514,145.764,683.4196,145.5554,680.2107,144.4496,681.3165,141.2406,677.514,145.764" style="stroke:#98FB98;stroke-width:0.6;"/><text fill="#000000" font-family="sans-serif" font-size="7.8" lengthAdjust="spacing" textLength="82.7912" x="752.4" y="125.417">Usar rutinas y ejercicios</text></g><!--link MENU_RUTINAS_EJERCICIOS to PAGINA_PRINCIPAL--><g id="link_MENU_RUTINAS_EJERCICIOS_PAGINA_PRINCIPAL"><path d="M722.502,148.488 C757.074,143.556 799.848,136.566 837.6,127.8 C872.274,119.748 907.7245,108.5558 934.2505,99.6158 " fill="none" id="MENU_RUTINAS_EJERCICIOS-to-PAGINA_PRINCIPAL" style="stroke:#ADD8E6;stroke-width:0.6;"/><polygon fill="#ADD8E6" points="937.662,98.466,931.7783,97.9163,934.8191,99.4241,933.3113,102.4649,937.662,98.466" style="stroke:#ADD8E6;stroke-width:0.6;"/><text fill="#000000" font-family="sans-serif" font-size="7.8" lengthAdjust="spacing" textLength="31.2114" x="879" y="125.417">Ir a inicio</text></g><!--link PAGINA_PRINCIPAL to MENU_RETOS--><g id="link_PAGINA_PRINCIPAL_MENU_RETOS"><path d="M1016.13,88.482 C1100.16,91.038 1273.86,98.37 1331.4,116.4 C1365.552,127.098 1401,121.11 1401,156.9 C1401,156.9 1401,156.9 1401,501.3 C1401,519.138 1390.056,523.218 1374,531 C1340.01,547.47 1089.4725,556.2745 995.1225,559.0405 " fill="none" id="PAGINA_PRINCIPAL-to-MENU_RETOS" style="stroke:#FFA07A;stroke-width:0.6;"/><polygon fill="#FFA07A" points="991.524,559.146,996.992,561.3867,994.5227,559.0581,996.8514,556.5888,991.524,559.146" style="stroke:#FFA07A;stroke-width:0.6;"/><text fill="#000000" font-family="sans-serif" font-size="7.8" lengthAdjust="spacing" textLength="110.99" x="1401.6" y="337.817">Participar en retos o actividades</text></g><!--link MENU_RETOS to PAGINA_PRINCIPAL--><g id="link_MENU_RETOS_PAGINA_PRINCIPAL"><path d="M991.548,558.636 C1089.498,554.082 1358.4,538.218 1358.4,501.3 C1358.4,399.6 1358.4,399.6 1358.4,399.6 C1358.4,367.998 1246.896,172.506 1230,145.8 C1221.162,131.826 1221.576,124.566 1207.2,116.4 C1175.538,98.418 1079.4745,91.5739 1019.7505,88.9519 " fill="none" id="MENU_RETOS-to-PAGINA_PRINCIPAL" style="stroke:#ADD8E6;stroke-width:0.6;"/><polygon fill="#ADD8E6" points="1016.154,88.794,1021.4435,91.4285,1019.1511,88.9256,1021.6541,86.6332,1016.154,88.794" style="stroke:#ADD8E6;stroke-width:0.6;"/><text fill="#000000" font-family="sans-serif" font-size="7.8" lengthAdjust="spacing" textLength="31.2114" x="1335.6" y="337.817">Ir a inicio</text></g><!--link PAGINA_PRINCIPAL to MENU_CLASIFICACION--><g id="link_PAGINA_PRINCIPAL_MENU_CLASIFICACION"><path d="M923.094,87.702 C751.236,89.334 160.128,96.396 125.4,116.4 C57.27,155.64 9.126,195.732 36.6,269.4 C59.652,331.218 76.608,348.708 133.8,381.6 C169.542,402.156 277.6049,416.487 344.8649,423.759 " fill="none" id="PAGINA_PRINCIPAL-to-MENU_CLASIFICACION" style="stroke:#FFD700;stroke-width:0.6;"/><polygon fill="#FFD700" points="348.444,424.146,343.3333,421.1795,345.4614,423.8235,342.8173,425.9516,348.444,424.146" style="stroke:#FFD700;stroke-width:0.6;"/><text fill="#000000" font-family="sans-serif" font-size="7.8" lengthAdjust="spacing" textLength="77.6001" x="37.2" y="267.017">Consultar clasificaci&#243;n</text></g><!--link MENU_CLASIFICACION to PAGINA_PRINCIPAL--><g id="link_MENU_CLASIFICACION_PAGINA_PRINCIPAL"><path d="M354.456,418.134 C290.01,399.828 177.732,356.424 139.2,269.4 C104.67,191.424 175.56,147.42 255,116.4 C316.842,92.25 770.526,88.1568 919.344,87.4608 " fill="none" id="MENU_CLASIFICACION-to-PAGINA_PRINCIPAL" style="stroke:#ADD8E6;stroke-width:0.6;"/><polygon fill="#ADD8E6" points="922.944,87.444,917.5328,85.0693,919.944,87.458,917.5553,89.8692,922.944,87.444" style="stroke:#ADD8E6;stroke-width:0.6;"/><text fill="#000000" font-family="sans-serif" font-size="7.8" lengthAdjust="spacing" textLength="31.2114" x="139.8" y="267.017">Ir a inicio</text></g><!--link PAGINA_PRINCIPAL to MENU_PERFIL--><g id="link_PAGINA_PRINCIPAL_MENU_PERFIL"><path d="M993.906,98.496 C1001.646,103.086 1009.632,109.068 1015.2,116.4 C1048.422,160.152 1058.862,205.146 1016.4,240 C961.26,285.258 878.6001,295.7394 830.4801,297.9954 " fill="none" id="PAGINA_PRINCIPAL-to-MENU_PERFIL" style="stroke:#F08080;stroke-width:0.6;"/><polygon fill="#F08080" points="826.884,298.164,832.3905,300.3085,829.8807,298.0235,832.1657,295.5137,826.884,298.164" style="stroke:#F08080;stroke-width:0.6;"/><text fill="#000000" font-family="sans-serif" font-size="7.8" lengthAdjust="spacing" textLength="45.5127" x="1045.2" y="196.217">Revisar perfil</text></g><!--link MENU_PERFIL to PAGINA_PRINCIPAL--><g id="link_MENU_PERFIL_PAGINA_PRINCIPAL"><path d="M811.356,287.334 C830.13,276.396 858.6,258.702 880.8,240 C913.704,212.286 921.762,204.18 946.8,169.2 C958.95,152.22 963.762,148.014 969,127.8 C971.502,118.134 971.6717,110.319 971.0897,102.081 " fill="none" id="MENU_PERFIL-to-PAGINA_PRINCIPAL" style="stroke:#ADD8E6;stroke-width:0.6;"/><polygon fill="#ADD8E6" points="970.836,98.49,968.8225,104.0457,971.0474,101.4825,973.6106,103.7074,970.836,98.49" style="stroke:#ADD8E6;stroke-width:0.6;"/><text fill="#000000" font-family="sans-serif" font-size="7.8" lengthAdjust="spacing" textLength="31.2114" x="934.2" y="196.217">Ir a inicio</text></g><!--link MENU_RUTINAS_EJERCICIOS to MENU_RETOS--><g id="link_MENU_RUTINAS_EJERCICIOS_MENU_RETOS"><path d="M722.46,159.498 C801.384,161.976 927.576,168.774 970.8,187.2 C1036.962,215.406 1215,327.678 1215,399.6 C1215,399.6 1215,399.6 1215,501.3 C1215,546.594 1065.8499,556.8765 995.1459,559.2645 " fill="none" id="MENU_RUTINAS_EJERCICIOS-to-MENU_RETOS" style="stroke:#FFA07A;stroke-width:0.6;"/><polygon fill="#FFA07A" points="991.548,559.386,997.0259,561.6024,994.5463,559.2847,996.8639,556.8051,991.548,559.386" style="stroke:#FFA07A;stroke-width:0.6;"/><text fill="#000000" font-family="sans-serif" font-size="7.8" lengthAdjust="spacing" textLength="30.7772" x="1212" y="373.217">Ir a retos</text></g><!--link MENU_RETOS to MENU_RUTINAS_EJERCICIOS--><g id="link_MENU_RETOS_MENU_RUTINAS_EJERCICIOS"><path d="M991.5,557.544 C1076.946,550.854 1288.8,531.246 1288.8,501.3 C1288.8,399.6 1288.8,399.6 1288.8,399.6 C1288.8,239.694 1152.9,228.414 998.4,187.2 C948.078,173.778 810.7697,165.3082 726.1577,161.1622 " fill="none" id="MENU_RETOS-to-MENU_RUTINAS_EJERCICIOS" style="stroke:#98FB98;stroke-width:0.6;"/><polygon fill="#98FB98" points="722.562,160.986,727.8381,163.6474,725.5584,161.1328,728.073,158.8532,722.562,160.986" style="stroke:#98FB98;stroke-width:0.6;"/><text fill="#000000" font-family="sans-serif" font-size="7.8" lengthAdjust="spacing" textLength="36.8481" x="1288.8" y="373.217">Ir a rutinas</text></g><!--link MENU_RUTINAS_EJERCICIOS to MENU_CLASIFICACION--><g id="link_MENU_RUTINAS_EJERCICIOS_MENU_CLASIFICACION"><path d="M589.128,160.458 C494.778,164.274 331.128,172.872 307.8,187.2 C255.468,219.342 226.674,252.504 246,310.8 C261.594,357.828 272.376,371.268 312.6,400.2 C323.532,408.066 333.2932,412.7461 346.1092,417.0241 " fill="none" id="MENU_RUTINAS_EJERCICIOS-to-MENU_CLASIFICACION" style="stroke:#FFD700;stroke-width:0.6;"/><polygon fill="#FFD700" points="349.524,418.164,345.1617,414.1777,346.6784,417.2141,343.6419,418.7307,349.524,418.164" style="stroke:#FFD700;stroke-width:0.6;"/><text fill="#000000" font-family="sans-serif" font-size="7.8" lengthAdjust="spacing" textLength="55.4874" x="246.6" y="302.417">Ir a clasificaci&#243;n</text></g><!--link MENU_CLASIFICACION to MENU_RUTINAS_EJERCICIOS--><g id="link_MENU_CLASIFICACION_MENU_RUTINAS_EJERCICIOS"><path d="M392.994,418.2 C365.526,380.496 283.656,255.894 346.2,187.2 C362.214,169.608 499.3278,162.5653 585.4458,159.8053 " fill="none" id="MENU_CLASIFICACION-to-MENU_RUTINAS_EJERCICIOS" style="stroke:#98FB98;stroke-width:0.6;"/><polygon fill="#98FB98" points="589.044,159.69,583.5699,157.4642,586.0455,159.7861,583.7236,162.2617,589.044,159.69" style="stroke:#98FB98;stroke-width:0.6;"/><text fill="#000000" font-family="sans-serif" font-size="7.8" lengthAdjust="spacing" textLength="36.8481" x="334.8" y="302.417">Ir a rutinas</text></g><!--link MENU_RUTINAS_EJERCICIOS to MENU_PERFIL--><g id="link_MENU_RUTINAS_EJERCICIOS_MENU_PERFIL"><path d="M648.984,169.362 C644.922,177.54 641.13,188.832 644.4,198.6 C651.714,220.452 659.082,223.938 675.6,240 C691.782,255.732 697.146,258.678 717,269.4 C729.876,276.354 741.3988,281.2639 754.4668,286.1119 " fill="none" id="MENU_RUTINAS_EJERCICIOS-to-MENU_PERFIL" style="stroke:#F08080;stroke-width:0.6;"/><polygon fill="#F08080" points="757.842,287.364,753.6139,283.2356,755.0293,286.3205,751.9444,287.7359,757.842,287.364" style="stroke:#F08080;stroke-width:0.6;"/><text fill="#000000" font-family="sans-serif" font-size="7.8" lengthAdjust="spacing" textLength="30.3431" x="676.2" y="231.617">Ir a perfil</text></g><!--link MENU_PERFIL to MENU_RUTINAS_EJERCICIOS--><g id="link_MENU_PERFIL_MENU_RUTINAS_EJERCICIOS"><path d="M782.28,287.22 C768.072,270.21 739.17,237.726 709.2,216.6 C693.99,205.878 684.042,212.25 671.4,198.6 C663.822,190.416 660.5978,181.6662 658.5518,172.7802 " fill="none" id="MENU_PERFIL-to-MENU_RUTINAS_EJERCICIOS" style="stroke:#98FB98;stroke-width:0.6;"/><polygon fill="#98FB98" points="657.744,169.272,656.6168,175.0728,658.4171,172.1955,661.2945,173.9958,657.744,169.272" style="stroke:#98FB98;stroke-width:0.6;"/><text fill="#000000" font-family="sans-serif" font-size="7.8" lengthAdjust="spacing" textLength="36.8481" x="737.4" y="231.617">Ir a rutinas</text></g><!--link MENU_RETOS to MENU_CLASIFICACION--><g id="link_MENU_RETOS_MENU_CLASIFICACION"><path d="M921.12,559.416 C809.988,557.106 468.132,548.7 358.8,531 C328.464,526.086 310.782,536.88 292.2,512.4 C268.128,480.69 319.2709,456.4848 359.6209,442.7928 " fill="none" id="MENU_RETOS-to-MENU_CLASIFICACION" style="stroke:#FFD700;stroke-width:0.6;"/><polygon fill="#FFD700" points="363.03,441.636,357.1452,441.0985,360.1891,442.6,358.6876,445.6439,363.03,441.636" style="stroke:#FFD700;stroke-width:0.6;"/><text fill="#000000" font-family="sans-serif" font-size="7.8" lengthAdjust="spacing" textLength="55.4874" x="292.8" y="504.017">Ir a clasificaci&#243;n</text></g><!--link MENU_CLASIFICACION to MENU_RETOS--><g id="link_MENU_CLASIFICACION_MENU_RETOS"><path d="M393.642,441.768 C388.698,450.474 384.3,462.444 390.6,471 C427.362,520.92 463.11,499.746 523.8,512.4 C669.516,542.784 843.5449,554.4649 917.6809,558.3229 " fill="none" id="MENU_CLASIFICACION-to-MENU_RETOS" style="stroke:#FFA07A;stroke-width:0.6;"/><polygon fill="#FFA07A" points="921.276,558.51,916.008,555.8326,918.2801,558.3541,915.7586,560.6261,921.276,558.51" style="stroke:#FFA07A;stroke-width:0.6;"/><text fill="#000000" font-family="sans-serif" font-size="7.8" lengthAdjust="spacing" textLength="30.7772" x="524.4" y="504.017">Ir a retos</text></g><!--link MENU_RETOS to MENU_PERFIL--><g id="link_MENU_RETOS_MENU_PERFIL"><path d="M977.994,548.868 C985.308,544.176 992.988,538.14 998.4,531 C1045.212,469.26 1091.178,374.874 1050,328.8 C1035.396,312.462 898.0163,304.3389 830.5823,301.2849 " fill="none" id="MENU_RETOS-to-MENU_PERFIL" style="stroke:#F08080;stroke-width:0.6;"/><polygon fill="#F08080" points="826.986,301.122,832.2719,303.7639,829.9829,301.2577,832.4891,298.9688,826.986,301.122" style="stroke:#F08080;stroke-width:0.6;"/><text fill="#000000" font-family="sans-serif" font-size="7.8" lengthAdjust="spacing" textLength="30.3431" x="1059.6" y="433.217">Ir a perfil</text></g><!--link MENU_PERFIL to MENU_RETOS--><g id="link_MENU_PERFIL_MENU_RETOS"><path d="M826.956,301.32 C877.41,304.206 966.648,311.616 993.6,328.8 C1006.758,337.188 1008.348,343.242 1012.8,358.2 C1028.208,409.968 1011.504,417.498 969.6,531 C967.374,537.036 965.9886,540.3204 963.4626,545.6724 " fill="none" id="MENU_PERFIL-to-MENU_RETOS" style="stroke:#FFA07A;stroke-width:0.6;"/><polygon fill="#FFA07A" points="961.926,548.928,966.4012,545.069,963.2065,546.215,962.0604,543.0202,961.926,548.928" style="stroke:#FFA07A;stroke-width:0.6;"/><text fill="#000000" font-family="sans-serif" font-size="7.8" lengthAdjust="spacing" textLength="30.7772" x="1014.6" y="433.217">Ir a retos</text></g><!--link MENU_CLASIFICACION to MENU_PERFIL--><g id="link_MENU_CLASIFICACION_MENU_PERFIL"><path d="M454.284,427.848 C531.69,424.626 670.602,414.324 706.8,381.6 C724.794,365.334 704.64,347.064 720.6,328.8 C729.738,318.342 739.8068,312.7364 752.5568,308.3864 " fill="none" id="MENU_CLASIFICACION-to-MENU_PERFIL" style="stroke:#F08080;stroke-width:0.6;"/><polygon fill="#F08080" points="755.964,307.224,750.0783,306.6962,753.1247,308.1927,751.6282,311.2391,755.964,307.224" style="stroke:#F08080;stroke-width:0.6;"/><text fill="#000000" font-family="sans-serif" font-size="7.8" lengthAdjust="spacing" textLength="30.3431" x="715.8" y="373.217">Ir a perfil</text></g><!--link MENU_PERFIL to MENU_CLASIFICACION--><g id="link_MENU_PERFIL_MENU_CLASIFICACION"><path d="M755.886,301.722 C716.868,304.716 652.74,311.922 600,328.8 C563.472,340.488 467.3339,392.7331 424.5779,416.3911 " fill="none" id="MENU_PERFIL-to-MENU_CLASIFICACION" style="stroke:#FFD700;stroke-width:0.6;"/><polygon fill="#FFD700" points="421.428,418.134,427.3149,417.6195,424.053,416.6815,424.991,413.4196,421.428,418.134" style="stroke:#FFD700;stroke-width:0.6;"/><text fill="#000000" font-family="sans-serif" font-size="7.8" lengthAdjust="spacing" textLength="55.4874" x="534.6" y="373.217">Ir a clasificaci&#243;n</text></g><!--link MENU_RUTINAS_EJERCICIOS to CREAR_RUTINA--><g id="link_MENU_RUTINAS_EJERCICIOS_CREAR_RUTINA"><path d="M589.092,165.48 C567.534,169.758 544.128,176.52 524.4,187.2 C511.05,194.43 501.3259,204.4376 493.7239,213.7136 " fill="none" id="MENU_RUTINAS_EJERCICIOS-to-CREAR_RUTINA" style="stroke:#98FB98;stroke-width:0.6;"/><polygon fill="#98FB98" points="491.442,216.498,496.7211,213.8427,493.3436,214.1777,493.0086,210.8001,491.442,216.498" style="stroke:#98FB98;stroke-width:0.6;"/><text fill="#000000" font-family="sans-serif" font-size="7.8" lengthAdjust="spacing" textLength="41.1823" x="525" y="196.217">Crear rutina</text></g><!--link CREAR_RUTINA to MENU_RUTINAS_EJERCICIOS--><g id="link_CREAR_RUTINA_MENU_RUTINAS_EJERCICIOS"><path d="M444.246,227.058 C397.794,224.982 329.376,216.978 356.4,187.2 C371.73,170.304 502.0463,163.0468 585.5003,160.0588 " fill="none" id="CREAR_RUTINA-to-MENU_RUTINAS_EJERCICIOS" style="stroke:#98FB98;stroke-width:0.6;"/><polygon fill="#98FB98" points="589.098,159.93,583.6156,157.7248,586.0999,160.0373,583.7873,162.5217,589.098,159.93" style="stroke:#98FB98;stroke-width:0.6;"/><text fill="#000000" font-family="sans-serif" font-size="7.8" lengthAdjust="spacing" textLength="118.3482" x="357" y="196.217">Volver al men&#250; rutinas y ejercicios</text></g><!--link CREAR_RUTINA to MENU_RUTINAS_EJERCICIOS--><g id="link_CREAR_RUTINA_MENU_RUTINAS_EJERCICIOS"><path d="M486.036,216.456 C489.144,207.15 494.916,194.34 504.6,187.2 C518.178,177.186 551.5725,170.4654 585.5505,165.7254 " fill="none" id="CREAR_RUTINA-to-MENU_RUTINAS_EJERCICIOS-1" style="stroke:#98FB98;stroke-width:0.6;"/><polygon fill="#98FB98" points="589.116,165.228,583.4362,163.5971,586.1448,165.6425,584.0994,168.3511,589.116,165.228" style="stroke:#98FB98;stroke-width:0.6;"/></g><!--link MENU_RUTINAS_EJERCICIOS to EDITAR_RUTINA--><g id="link_MENU_RUTINAS_EJERCICIOS_EDITAR_RUTINA"><path d="M661.986,169.368 C667.71,178.692 677.082,191.508 688.8,198.6 C689.922,199.278 746.3866,210.7125 788.0806,219.0945 " fill="none" id="MENU_RUTINAS_EJERCICIOS-to-EDITAR_RUTINA" style="stroke:#98FB98;stroke-width:0.6;"/><polygon fill="#98FB98" points="791.61,219.804,786.7889,216.3868,788.6688,219.2127,785.8429,221.0926,791.61,219.804" style="stroke:#98FB98;stroke-width:0.6;"/><text fill="#000000" font-family="sans-serif" font-size="7.8" lengthAdjust="spacing" textLength="42.0545" x="689.4" y="196.217">Editar rutina</text></g><!--link EDITAR_RUTINA to MENU_RUTINAS_EJERCICIOS--><g id="link_EDITAR_RUTINA_MENU_RUTINAS_EJERCICIOS"><path d="M800.016,216.6 C786.366,211.47 770.232,205.092 756,198.6 C746.124,194.094 744.312,191.628 734.4,187.2 C719.718,180.642 706.4584,175.5344 692.2744,170.4704 " fill="none" id="EDITAR_RUTINA-to-MENU_RUTINAS_EJERCICIOS" style="stroke:#98FB98;stroke-width:0.6;"/><polygon fill="#98FB98" points="688.884,169.26,693.1626,173.3359,691.7093,170.2687,694.7766,168.8154,688.884,169.26" style="stroke:#98FB98;stroke-width:0.6;"/><text fill="#000000" font-family="sans-serif" font-size="7.8" lengthAdjust="spacing" textLength="118.3482" x="756.6" y="196.217">Volver al men&#250; rutinas y ejercicios</text></g><!--link EDITAR_RUTINA to MENU_RUTINAS_EJERCICIOS--><g id="link_EDITAR_RUTINA_MENU_RUTINAS_EJERCICIOS"><path d="M858.564,216.588 C873.63,208.926 887.436,198.186 877.8,187.2 C867.594,175.566 787.7655,167.4222 726.1755,162.7182 " fill="none" id="EDITAR_RUTINA-to-MENU_RUTINAS_EJERCICIOS-1" style="stroke:#98FB98;stroke-width:0.6;"/><polygon fill="#98FB98" points="722.586,162.444,727.7875,165.2483,725.5773,162.6725,728.1531,160.4622,722.586,162.444" style="stroke:#98FB98;stroke-width:0.6;"/></g><!--link MENU_RETOS to SUBIR_EVIDENCIA_RETO--><g id="link_MENU_RETOS_SUBIR_EVIDENCIA_RETO"><path d="M961.974,572.616 C964.266,577.884 966.654,584.322 967.8,590.4 C969.696,600.45 967.5877,608.3342 963.9517,616.3982 " fill="none" id="MENU_RETOS-to-SUBIR_EVIDENCIA_RETO" style="stroke:#FFA07A;stroke-width:0.6;"/><polygon fill="#FFA07A" points="962.472,619.68,966.8795,615.7438,963.7051,616.9452,962.5037,613.7708,962.472,619.68" style="stroke:#FFA07A;stroke-width:0.6;"/><text fill="#000000" font-family="sans-serif" font-size="7.8" lengthAdjust="spacing" textLength="79.7824" x="969" y="599.417">Subir evidencia de reto</text></g><!--link SUBIR_EVIDENCIA_RETO to MENU_RETOS--><g id="link_SUBIR_EVIDENCIA_RETO_MENU_RETOS"><path d="M898.428,622.698 C875.148,616.788 856.302,606.852 868.2,590.4 C880.248,573.738 898.6197,567.044 917.5977,563.924 " fill="none" id="SUBIR_EVIDENCIA_RETO-to-MENU_RETOS" style="stroke:#FFA07A;stroke-width:0.6;"/><polygon fill="#FFA07A" points="921.15,563.34,915.4322,561.8478,918.1897,563.8267,916.2109,566.5842,921.15,563.34" style="stroke:#FFA07A;stroke-width:0.6;"/><text fill="#000000" font-family="sans-serif" font-size="7.8" lengthAdjust="spacing" textLength="71.533" x="868.8" y="599.417">Volver al men&#250; retos</text></g><!--link SUBIR_EVIDENCIA_RETO to MENU_RETOS--><g id="link_SUBIR_EVIDENCIA_RETO_MENU_RETOS"><path d="M956.4,619.746 C956.4,606.768 956.4,589.068 956.4,576.084 " fill="none" id="SUBIR_EVIDENCIA_RETO-to-MENU_RETOS-1" style="stroke:#FFA07A;stroke-width:0.6;"/><polygon fill="#FFA07A" points="956.4,572.484,954,577.884,956.4,575.484,958.8,577.884,956.4,572.484" style="stroke:#FFA07A;stroke-width:0.6;"/></g><!--link MENU_CLASIFICACION to VER_ALUMNOS_CLASE--><g id="link_MENU_CLASIFICACION_VER_ALUMNOS_CLASE"><path d="M397.098,441.678 C394.428,450.69 392.688,463.116 399.6,471 C410.448,483.372 500.9315,491.9009 562.7375,496.3949 " fill="none" id="MENU_CLASIFICACION-to-VER_ALUMNOS_CLASE" style="stroke:#FFD700;stroke-width:0.6;"/><polygon fill="#FFD700" points="566.328,496.656,561.1163,493.8707,563.3359,496.4384,560.7682,498.6581,566.328,496.656" style="stroke:#FFD700;stroke-width:0.6;"/><text fill="#000000" font-family="sans-serif" font-size="7.8" lengthAdjust="spacing" textLength="83.2444" x="400.2" y="468.617">Ver alumnos de la clase</text></g><!--link VER_ALUMNOS_CLASE to MENU_CLASIFICACION--><g id="link_VER_ALUMNOS_CLASE_MENU_CLASIFICACION"><path d="M566.802,488.982 C547.8,484.332 526.464,478.296 507.6,471 C497.478,467.082 495.96,463.914 486,459.6 C470.46,452.874 456.2389,447.7314 441.1009,442.7394 " fill="none" id="VER_ALUMNOS_CLASE-to-MENU_CLASIFICACION" style="stroke:#FFD700;stroke-width:0.6;"/><polygon fill="#FFD700" points="437.682,441.612,442.0587,445.5824,440.5311,442.5515,443.562,441.0239,437.682,441.612" style="stroke:#FFD700;stroke-width:0.6;"/><text fill="#000000" font-family="sans-serif" font-size="7.8" lengthAdjust="spacing" textLength="96.2432" x="508.2" y="468.617">Volver al men&#250; clasificaci&#243;n</text></g><!--link VER_ALUMNOS_CLASE to MENU_CLASIFICACION--><g id="link_VER_ALUMNOS_CLASE_MENU_CLASIFICACION"><path d="M619.878,488.874 C618.81,479.58 615.756,466.776 607.2,459.6 C584.67,440.7 510.9926,434.2271 457.8266,431.9051 " fill="none" id="VER_ALUMNOS_CLASE-to-MENU_CLASIFICACION-1" style="stroke:#FFD700;stroke-width:0.6;"/><polygon fill="#FFD700" points="454.23,431.748,459.5201,434.3813,457.2271,431.8789,459.7296,429.5859,454.23,431.748" style="stroke:#FFD700;stroke-width:0.6;"/></g><!--link MENU_PERFIL to VER_INSIGNIAS--><g id="link_MENU_PERFIL_VER_INSIGNIAS"><path d="M826.95,305.526 C849.852,310.074 879.894,317.532 904.8,328.8 C921.858,336.516 936.4909,346.8632 948.0289,355.9592 " fill="none" id="MENU_PERFIL-to-VER_INSIGNIAS" style="stroke:#F08080;stroke-width:0.6;"/><polygon fill="#F08080" points="950.856,358.188,948.1012,352.9601,948.5001,356.3307,945.1295,356.7296,950.856,358.188" style="stroke:#F08080;stroke-width:0.6;"/><text fill="#000000" font-family="sans-serif" font-size="7.8" lengthAdjust="spacing" textLength="44.6558" x="926.4" y="337.817">Ver insignias</text></g><!--link VER_INSIGNIAS to MENU_PERFIL--><g id="link_VER_INSIGNIAS_MENU_PERFIL"><path d="M972.57,358.164 C978.138,349.296 983.25,337.05 976.2,328.8 C957.39,306.798 878.7767,301.4223 830.5787,300.1323 " fill="none" id="VER_INSIGNIAS-to-MENU_PERFIL" style="stroke:#F08080;stroke-width:0.6;"/><polygon fill="#F08080" points="826.98,300.036,832.3139,302.5796,829.9789,300.1163,832.4423,297.7813,826.98,300.036" style="stroke:#F08080;stroke-width:0.6;"/></g><!--link MENU_PERFIL to INSCRIBIR_CLASE--><g id="link_MENU_PERFIL_INSCRIBIR_CLASE"><path d="M755.85,300.078 C707.928,301.422 626.454,306.96 607.8,328.8 C598.446,339.75 608.7138,348.8278 623.3778,356.4958 " fill="none" id="MENU_PERFIL-to-INSCRIBIR_CLASE" style="stroke:#F08080;stroke-width:0.6;"/><polygon fill="#F08080" points="626.568,358.164,622.8949,353.5349,623.9095,356.7738,620.6706,357.7885,626.568,358.164" style="stroke:#F08080;stroke-width:0.6;"/><text fill="#000000" font-family="sans-serif" font-size="7.8" lengthAdjust="spacing" textLength="58.5229" x="608.4" y="337.817">Inscribir en clase</text></g><!--link INSCRIBIR_CLASE to MENU_PERFIL--><g id="link_INSCRIBIR_CLASE_MENU_PERFIL"><path d="M662.46,358.188 C670.428,349.092 682.776,336.516 696,328.8 C714.396,318.066 733.637,311.7789 752.303,307.2609 " fill="none" id="INSCRIBIR_CLASE-to-MENU_PERFIL" style="stroke:#F08080;stroke-width:0.6;"/><polygon fill="#F08080" points="755.802,306.414,749.989,305.3517,752.8862,307.1198,751.1182,310.017,755.802,306.414" style="stroke:#F08080;stroke-width:0.6;"/></g><!--link MENU_PERFIL to MOSTRAR_QR--><g id="link_MENU_PERFIL_MOSTRAR_QR"><path d="M787.47,310.866 C785.142,319.626 783.666,331.722 789.6,340.2 C795.012,347.934 811.5022,354.2113 830.0962,359.5573 " fill="none" id="MENU_PERFIL-to-MOSTRAR_QR" style="stroke:#F08080;stroke-width:0.6;"/><polygon fill="#F08080" points="833.556,360.552,829.0294,356.7533,830.6728,359.723,827.7031,361.3664,833.556,360.552" style="stroke:#F08080;stroke-width:0.6;"/><text fill="#000000" font-family="sans-serif" font-size="7.8" lengthAdjust="spacing" textLength="109.2457" x="790.2" y="337.817">Mostrar QR en centro deportivo</text></g><!--link MOSTRAR_QR to MENU_PERFIL--><g id="link_MOSTRAR_QR_MENU_PERFIL"><path d="M833.664,361.968 C812.118,356.742 787.626,349.086 781.2,340.2 C774.996,331.62 777.46,322.8163 782.206,314.1163 " fill="none" id="MOSTRAR_QR-to-MENU_PERFIL" style="stroke:#F08080;stroke-width:0.6;"/><polygon fill="#F08080" points="783.93,310.956,779.2371,314.5472,782.4933,313.5896,783.4509,316.8459,783.93,310.956" style="stroke:#F08080;stroke-width:0.6;"/></g><!--link MENU_PERFIL to ALUMNO--><g id="link_MENU_PERFIL_ALUMNO"><path d="M826.842,294.936 C949.506,281.748 1351.98,231.042 1416.6,127.8 C1459.8,58.776 1308.0338,29.2088 1246.3538,20.1548 " fill="none" id="MENU_PERFIL-to-ALUMNO" style="stroke:#9ACD32;stroke-width:0.6;"/><polygon fill="#9ACD32" points="1242.792,19.632,1247.7862,22.7908,1245.7602,20.0677,1248.4833,18.0417,1242.792,19.632" style="stroke:#9ACD32;stroke-width:0.6;"/><text fill="#000000" font-family="sans-serif" font-size="7.8" lengthAdjust="spacing" textLength="46.8152" x="1401" y="160.817">Cerrar sesi&#243;n</text></g><!--link CREAR_RUTINA to PAGINA_PRINCIPAL--><g id="link_CREAR_RUTINA_PAGINA_PRINCIPAL"><path d="M444.186,225.774 C415.494,222.9 376.338,215.838 346.2,198.6 C163.398,94.032 249.018,150.18 281.4,116.4 C303.588,93.252 768.1501,88.4864 919.3561,87.5444 " fill="none" id="CREAR_RUTINA-to-PAGINA_PRINCIPAL" style="stroke:#ADD8E6;stroke-width:0.6;"/><polygon fill="#ADD8E6" points="922.956,87.522,917.5412,85.1557,919.9561,87.5407,917.5711,89.9556,922.956,87.522" style="stroke:#ADD8E6;stroke-width:0.6;"/></g><!--link CREAR_RUTINA to MENU_RETOS--><g id="link_CREAR_RUTINA_MENU_RETOS"><path d="M470.82,240.066 C421.536,285.852 241.422,459.312 282,512.4 C301.134,537.432 319.284,526.08 350.4,531 C461.526,548.562 805.5728,557.0008 917.6228,559.3408 " fill="none" id="CREAR_RUTINA-to-MENU_RETOS" style="stroke:#FFA07A;stroke-width:0.6;"/><polygon fill="#FFA07A" points="921.222,559.416,915.8733,556.9038,918.2227,559.3534,915.7731,561.7027,921.222,559.416" style="stroke:#FFA07A;stroke-width:0.6;"/></g><!--link CREAR_RUTINA to MENU_CLASIFICACION--><g id="link_CREAR_RUTINA_MENU_CLASIFICACION"><path d="M480.444,240.192 C476.526,256.398 468.18,286.926 456,310.8 C444.192,333.942 433.152,334.836 421.8,358.2 C412.092,378.186 406.877,400.0926 404.069,414.4926 " fill="none" id="CREAR_RUTINA-to-MENU_CLASIFICACION" style="stroke:#FFD700;stroke-width:0.6;"/><polygon fill="#FFD700" points="403.38,418.026,406.7692,413.1852,403.9542,415.0815,402.0579,412.2665,403.38,418.026" style="stroke:#FFD700;stroke-width:0.6;"/></g><!--link CREAR_RUTINA to MENU_PERFIL--><g id="link_CREAR_RUTINA_MENU_PERFIL"><path d="M521.856,239.292 C554.34,247.83 601.944,260.01 643.8,269.4 C681.966,277.962 722.4429,285.8044 752.4129,291.3904 " fill="none" id="CREAR_RUTINA-to-MENU_PERFIL" style="stroke:#F08080;stroke-width:0.6;"/><polygon fill="#F08080" points="755.952,292.05,751.0832,288.7012,753.0028,291.5003,750.2037,293.4199,755.952,292.05" style="stroke:#F08080;stroke-width:0.6;"/></g><!--link EDITAR_RUTINA to PAGINA_PRINCIPAL--><g id="link_EDITAR_RUTINA_PAGINA_PRINCIPAL"><path d="M864.72,216.57 C875.208,212.07 886.338,206.118 895.2,198.6 C929.67,169.356 953.2062,123.5718 963.2502,101.6898 " fill="none" id="EDITAR_RUTINA-to-PAGINA_PRINCIPAL" style="stroke:#ADD8E6;stroke-width:0.6;"/><polygon fill="#ADD8E6" points="964.752,98.418,960.3181,102.3245,963.5005,101.1445,964.6805,104.3269,964.752,98.418" style="stroke:#ADD8E6;stroke-width:0.6;"/></g><!--link EDITAR_RUTINA to MENU_RETOS--><g id="link_EDITAR_RUTINA_MENU_RETOS"><path d="M870.372,233.718 C949.35,245.808 1119.6,285.138 1119.6,399.6 C1119.6,399.6 1119.6,399.6 1119.6,501.3 C1119.6,528.294 1043.1363,545.6924 995.1603,554.0744 " fill="none" id="EDITAR_RUTINA-to-MENU_RETOS" style="stroke:#FFA07A;stroke-width:0.6;"/><polygon fill="#FFA07A" points="991.614,554.694,997.3465,556.1288,994.5692,554.1777,996.5204,551.4004,991.614,554.694" style="stroke:#FFA07A;stroke-width:0.6;"/></g><!--link EDITAR_RUTINA to MENU_CLASIFICACION--><g id="link_EDITAR_RUTINA_MENU_CLASIFICACION"><path d="M791.598,239.772 C708.564,263.16 518.766,319.29 464.4,358.2 C451.992,367.08 426.874,397.447 412.642,415.171 " fill="none" id="EDITAR_RUTINA-to-MENU_CLASIFICACION" style="stroke:#FFD700;stroke-width:0.6;"/><polygon fill="#FFD700" points="410.388,417.978,415.6404,415.2701,412.2663,415.6388,411.8976,412.2648,410.388,417.978" style="stroke:#FFD700;stroke-width:0.6;"/></g><!--link EDITAR_RUTINA to MENU_PERFIL--><g id="link_EDITAR_RUTINA_MENU_PERFIL"><path d="M824.64,240.084 C817.248,253.068 806.9076,271.2386 799.5276,284.2166 " fill="none" id="EDITAR_RUTINA-to-MENU_PERFIL" style="stroke:#F08080;stroke-width:0.6;"/><polygon fill="#F08080" points="797.748,287.346,802.5036,283.8383,799.231,284.7382,798.3311,281.4655,797.748,287.346" style="stroke:#F08080;stroke-width:0.6;"/></g><!--link SUBIR_EVIDENCIA_RETO to PAGINA_PRINCIPAL--><g id="link_SUBIR_EVIDENCIA_RETO_PAGINA_PRINCIPAL"><path d="M1014.456,629.814 C1159.548,626.34 1526.4,612.486 1526.4,561.3 C1526.4,369.3 1526.4,369.3 1526.4,369.3 C1526.4,258.51 1490.718,227.604 1416,145.8 C1399.89,128.16 1393.638,124.038 1371,116.4 C1306.452,94.614 1110.9416,89.1842 1019.7176,87.8102 " fill="none" id="SUBIR_EVIDENCIA_RETO-to-PAGINA_PRINCIPAL" style="stroke:#ADD8E6;stroke-width:0.6;"/><polygon fill="#ADD8E6" points="1016.118,87.756,1021.4812,90.2371,1019.1177,87.8012,1021.5535,85.4376,1016.118,87.756" style="stroke:#ADD8E6;stroke-width:0.6;"/></g><!--link SUBIR_EVIDENCIA_RETO to MENU_RUTINAS_EJERCICIOS--><g id="link_SUBIR_EVIDENCIA_RETO_MENU_RUTINAS_EJERCICIOS"><path d="M898.356,629.544 C696.822,624.456 39.6,604.548 39.6,561.3 C39.6,429.3 39.6,429.3 39.6,429.3 C39.6,363.528 195.51,259.458 245.4,216.6 C262.518,201.894 265.584,194.898 286.8,187.2 C340.602,167.676 494.581,161.3156 585.475,159.2036 " fill="none" id="SUBIR_EVIDENCIA_RETO-to-MENU_RUTINAS_EJERCICIOS" style="stroke:#98FB98;stroke-width:0.6;"/><polygon fill="#98FB98" points="589.074,159.12,583.6197,156.8461,586.0748,159.1897,583.7312,161.6448,589.074,159.12" style="stroke:#98FB98;stroke-width:0.6;"/></g><!--link SUBIR_EVIDENCIA_RETO to MENU_CLASIFICACION--><g id="link_SUBIR_EVIDENCIA_RETO_MENU_CLASIFICACION"><path d="M898.452,627.492 C730.608,617.046 253.092,582.96 207.6,531 C162.66,479.67 273.1863,451.4569 344.8743,438.8629 " fill="none" id="SUBIR_EVIDENCIA_RETO-to-MENU_CLASIFICACION" style="stroke:#FFD700;stroke-width:0.6;"/><polygon fill="#FFD700" points="348.42,438.24,342.6862,436.8106,345.4652,438.7591,343.5167,441.5382,348.42,438.24" style="stroke:#FFD700;stroke-width:0.6;"/></g><!--link SUBIR_EVIDENCIA_RETO to MENU_PERFIL--><g id="link_SUBIR_EVIDENCIA_RETO_MENU_PERFIL"><path d="M1014.546,622.794 C1075.404,612.636 1162.2,592.65 1162.2,561.3 C1162.2,399.6 1162.2,399.6 1162.2,399.6 C1162.2,347.862 1117.866,347.94 1069.8,328.8 C1026.516,311.562 895.4786,303.9774 830.6246,301.1754 " fill="none" id="SUBIR_EVIDENCIA_RETO-to-MENU_PERFIL" style="stroke:#F08080;stroke-width:0.6;"/><polygon fill="#F08080" points="827.028,301.02,832.3194,303.6509,830.0252,301.1495,832.5266,298.8553,827.028,301.02" style="stroke:#F08080;stroke-width:0.6;"/></g><!--link VER_ALUMNOS_CLASE to PAGINA_PRINCIPAL--><g id="link_VER_ALUMNOS_CLASE_PAGINA_PRINCIPAL"><path d="M566.304,489.894 C564.312,489.582 562.338,489.282 560.4,489 C485.298,478.092 465,485.964 390.6,471 C254.952,443.724 220.536,433.8 92.4,381.6 C51.144,364.794 3.6,379.65 3.6,335.1 C3.6,156.9 3.6,156.9 3.6,156.9 C3.6,109.608 55.764,126.348 102,116.4 C182.25,99.126 750.7323,90.2288 919.3443,87.9428 " fill="none" id="VER_ALUMNOS_CLASE-to-PAGINA_PRINCIPAL" style="stroke:#ADD8E6;stroke-width:0.6;"/><polygon fill="#ADD8E6" points="922.944,87.894,917.512,85.5674,919.9443,87.9347,917.577,90.367,922.944,87.894" style="stroke:#ADD8E6;stroke-width:0.6;"/></g><!--link VER_ALUMNOS_CLASE to MENU_RUTINAS_EJERCICIOS--><g id="link_VER_ALUMNOS_CLASE_MENU_RUTINAS_EJERCICIOS"><path d="M625.95,488.91 C629.346,480.36 632.148,468.558 627,459.6 C561.21,345.096 454.95,424.428 493.2,358.2 C501.204,344.34 511.68,349.914 524.4,340.2 C559.914,313.074 569.334,305.406 595.8,269.4 C620.172,236.244 618.366,223.14 638.4,187.2 C641.724,181.236 643.7371,177.7789 646.9951,172.4149 " fill="none" id="VER_ALUMNOS_CLASE-to-MENU_RUTINAS_EJERCICIOS" style="stroke:#98FB98;stroke-width:0.6;"/><polygon fill="#98FB98" points="648.864,169.338,644.0094,172.7075,647.3066,171.9021,648.112,175.1993,648.864,169.338" style="stroke:#98FB98;stroke-width:0.6;"/></g><!--link VER_ALUMNOS_CLASE to MENU_RETOS--><g id="link_VER_ALUMNOS_CLASE_MENU_RETOS"><path d="M654,512.406 C674.022,518.664 700.038,526.17 723.6,531 C792.93,545.22 871.8008,553.2381 917.6288,557.1201 " fill="none" id="VER_ALUMNOS_CLASE-to-MENU_RETOS" style="stroke:#FFA07A;stroke-width:0.6;"/><polygon fill="#FFA07A" points="921.216,557.424,916.0378,554.5768,918.2267,557.1708,915.6327,559.3596,921.216,557.424" style="stroke:#FFA07A;stroke-width:0.6;"/></g><!--link VER_ALUMNOS_CLASE to MENU_PERFIL--><g id="link_VER_ALUMNOS_CLASE_MENU_PERFIL"><path d="M637.224,488.952 C664.68,469.968 719.25,428.796 751.2,381.6 C765.468,360.516 761.736,351.426 773.4,328.8 C776.502,322.782 778.4739,319.3825 781.8519,314.1025 " fill="none" id="VER_ALUMNOS_CLASE-to-MENU_PERFIL" style="stroke:#F08080;stroke-width:0.6;"/><polygon fill="#F08080" points="783.792,311.07,778.8602,314.3253,782.1752,313.5971,782.9035,316.9121,783.792,311.07" style="stroke:#F08080;stroke-width:0.6;"/></g><!--link VER_INSIGNIAS to PAGINA_PRINCIPAL--><g id="link_VER_INSIGNIAS_PAGINA_PRINCIPAL"><path d="M1002.468,364.728 C1059.666,357.024 1163.16,339.432 1185.6,310.8 C1238.898,242.796 1243.692,181.428 1186.8,116.4 C1175.748,103.764 1080.2785,94.9836 1019.8225,90.5796 " fill="none" id="VER_INSIGNIAS-to-PAGINA_PRINCIPAL" style="stroke:#ADD8E6;stroke-width:0.6;"/><polygon fill="#ADD8E6" points="1016.232,90.318,1021.4434,93.104,1019.2241,90.536,1021.7921,88.3167,1016.232,90.318" style="stroke:#ADD8E6;stroke-width:0.6;"/></g><!--link VER_INSIGNIAS to MENU_RUTINAS_EJERCICIOS--><g id="link_VER_INSIGNIAS_MENU_RUTINAS_EJERCICIOS"><path d="M979.788,358.134 C985.23,353.304 990.696,347.16 993.6,340.2 C995.55,335.526 994.782,333.726 993.6,328.8 C976.452,257.184 946.752,205.422 916.2,187.2 C884.556,168.33 792.2798,161.815 726.1418,159.481 " fill="none" id="VER_INSIGNIAS-to-MENU_RUTINAS_EJERCICIOS" style="stroke:#98FB98;stroke-width:0.6;"/><polygon fill="#98FB98" points="722.544,159.354,727.856,161.943,725.5421,159.4598,728.0253,157.1459,722.544,159.354" style="stroke:#98FB98;stroke-width:0.6;"/></g><!--link VER_INSIGNIAS to MENU_RETOS--><g id="link_VER_INSIGNIAS_MENU_RETOS"><path d="M962.052,381.63 C960.306,391.26 957.972,405.594 957,418.2 C953.256,466.71 954.7854,521.2289 955.7514,545.2589 " fill="none" id="VER_INSIGNIAS-to-MENU_RETOS" style="stroke:#FFA07A;stroke-width:0.6;"/><polygon fill="#FFA07A" points="955.896,548.856,958.0772,543.364,955.7755,545.8584,953.281,543.5568,955.896,548.856" style="stroke:#FFA07A;stroke-width:0.6;"/></g><!--link VER_INSIGNIAS to MENU_CLASIFICACION--><g id="link_VER_INSIGNIAS_MENU_CLASIFICACION"><path d="M926.07,379.572 C922.536,380.304 919.008,380.994 915.6,381.6 C852.072,392.928 835.788,393.534 771.6,400.2 C658.824,411.906 529.8643,421.0307 457.9423,425.7407 " fill="none" id="VER_INSIGNIAS-to-MENU_CLASIFICACION" style="stroke:#FFD700;stroke-width:0.6;"/><polygon fill="#FFD700" points="454.35,425.976,459.8953,428.018,457.3436,425.78,459.5816,423.2283,454.35,425.976" style="stroke:#FFD700;stroke-width:0.6;"/></g><!--link INSCRIBIR_CLASE to PAGINA_PRINCIPAL--><g id="link_INSCRIBIR_CLASE_PAGINA_PRINCIPAL"><path d="M621.966,358.188 C535.806,326.916 304.938,237.15 346.2,187.2 C419.412,98.574 787.5481,88.1402 919.4761,87.2522 " fill="none" id="INSCRIBIR_CLASE-to-PAGINA_PRINCIPAL" style="stroke:#ADD8E6;stroke-width:0.6;"/><polygon fill="#ADD8E6" points="923.076,87.228,917.66,84.8644,920.0761,87.2482,917.6923,89.6643,923.076,87.228" style="stroke:#ADD8E6;stroke-width:0.6;"/></g><!--link INSCRIBIR_CLASE to MENU_RUTINAS_EJERCICIOS--><g id="link_INSCRIBIR_CLASE_MENU_RUTINAS_EJERCICIOS"><path d="M621.192,358.176 C613.02,353.82 605.112,347.958 600,340.2 C569.706,294.204 587.094,271.542 591,216.6 C591.936,203.436 587.394,197.844 595.2,187.2 C600.96,179.34 606.1805,175.0965 614.9465,170.8065 " fill="none" id="INSCRIBIR_CLASE-to-MENU_RUTINAS_EJERCICIOS" style="stroke:#98FB98;stroke-width:0.6;"/><polygon fill="#98FB98" points="618.18,169.224,612.2747,169.442,615.4854,170.5427,614.3847,173.7534,618.18,169.224" style="stroke:#98FB98;stroke-width:0.6;"/></g><!--link INSCRIBIR_CLASE to MENU_RETOS--><g id="link_INSCRIBIR_CLASE_MENU_RETOS"><path d="M671.22,381.654 C724.944,415.272 881.8523,513.4543 935.5463,547.0543 " fill="none" id="INSCRIBIR_CLASE-to-MENU_RETOS" style="stroke:#FFA07A;stroke-width:0.6;"/><polygon fill="#FFA07A" points="938.598,548.964,935.2935,544.065,936.0549,547.3726,932.7473,548.134,938.598,548.964" style="stroke:#FFA07A;stroke-width:0.6;"/></g><!--link INSCRIBIR_CLASE to MENU_CLASIFICACION--><g id="link_INSCRIBIR_CLASE_MENU_CLASIFICACION"><path d="M616.902,381.6 C596.796,387.522 571.332,394.698 548.4,400.2 C517.41,407.64 485.9564,413.9547 457.8884,419.2167 " fill="none" id="INSCRIBIR_CLASE-to-MENU_CLASIFICACION" style="stroke:#FFD700;stroke-width:0.6;"/><polygon fill="#FFD700" points="454.35,419.88,460.0998,421.2439,457.2986,419.3272,459.2153,416.5261,454.35,419.88" style="stroke:#FFD700;stroke-width:0.6;"/></g><!--link MOSTRAR_QR to PAGINA_PRINCIPAL--><g id="link_MOSTRAR_QR_PAGINA_PRINCIPAL"><path d="M905.19,360.672 C933.786,353.586 970.062,344.118 976.2,340.2 C1045.59,295.908 1067.352,275.922 1095.6,198.6 C1113.426,149.802 1048.9055,116.355 1005.8855,99.711 " fill="none" id="MOSTRAR_QR-to-PAGINA_PRINCIPAL" style="stroke:#ADD8E6;stroke-width:0.6;"/><polygon fill="#ADD8E6" points="1002.528,98.412,1006.6982,102.5988,1005.3259,99.4945,1008.4302,98.1221,1002.528,98.412" style="stroke:#ADD8E6;stroke-width:0.6;"/></g><!--link MOSTRAR_QR to MENU_RUTINAS_EJERCICIOS--><g id="link_MOSTRAR_QR_MENU_RUTINAS_EJERCICIOS"><path d="M887.376,358.086 C893.304,353.364 899.196,347.304 902.4,340.2 C930.408,278.154 941.616,236.994 895.2,187.2 C883.53,174.684 792.7061,166.5228 726.0041,162.0888 " fill="none" id="MOSTRAR_QR-to-MENU_RUTINAS_EJERCICIOS" style="stroke:#98FB98;stroke-width:0.6;"/><polygon fill="#98FB98" points="722.412,161.85,727.6409,164.6029,725.4054,162.049,727.9593,159.8135,722.412,161.85" style="stroke:#98FB98;stroke-width:0.6;"/></g><!--link MOSTRAR_QR to MENU_RETOS--><g id="link_MOSTRAR_QR_MENU_RETOS"><path d="M874.584,381.792 C890.058,415.512 934.3068,511.948 949.7448,545.596 " fill="none" id="MOSTRAR_QR-to-MENU_RETOS" style="stroke:#FFA07A;stroke-width:0.6;"/><polygon fill="#FFA07A" points="951.246,548.868,951.1755,542.9591,949.995,546.1413,946.8128,544.9608,951.246,548.868" style="stroke:#FFA07A;stroke-width:0.6;"/></g><!--link MOSTRAR_QR to MENU_CLASIFICACION--><g id="link_MOSTRAR_QR_MENU_CLASIFICACION"><path d="M833.676,381.384 C811.098,387.846 781.182,395.64 754.2,400.2 C648.756,418.008 527.2653,424.9125 457.9473,427.6005 " fill="none" id="MOSTRAR_QR-to-MENU_CLASIFICACION" style="stroke:#FFD700;stroke-width:0.6;"/><polygon fill="#FFD700" points="454.35,427.74,459.8389,429.929,457.3477,427.6238,459.6529,425.1326,454.35,427.74" style="stroke:#FFD700;stroke-width:0.6;"/></g><!--SRC=[hLTBRjim4Dth52ooI0Cu5oYG0eh262nisQNie45H6AhCf2mOCf3aD3b7Txr6TztwOXrAihwa9ATT6B2bcJVp7X-7z9ijk-EI8OgzbUjFP_ZjymH5IgZu3CKiIaDvBnXwHYVPC-SKNLnS8DTRBIWEq2t2Cpp7_ceHe2KblaUMxWoUGunJ0RgpzTnVJD0j4qBzcCQCoRFQwwKx9RwxAVCdQCRllwMNOiVEdA8WrDZ_QkF2m_M6hbUG7Mpm1qmzuf55C47BKB1EcJmQhtH0LY08nOFgXdWpDo3Nn7C1ov-WgHBRJimIqsjoQDHJSIZAJbrFvtKqkC5qG_o0J7tYGWDpdgGlL2Mi3WtlFKek2Srwm9Qe-I9OKPTkFb9BW4SnlCvriMY1hyXgA2POwqxm3Rd2i2vk9frLEKqlN-RWq7mkNA4AnJEtqANjapmDdNy-gVdZo_bxrFO5UeU8l8zP4iOe52W1xkmXT3fXW5GIqZWMcm3SMaF5kvJBC44lY7rdSSGZhX8ZQ8rw1Qlz14ZBC4uXyn7mc8Hzawe4AHH6AN_Yst3Bp8XQeXAguJk0z9HCTY85n4Y42R_ZKHZn_MzfxoqpOecNUnI0A7lYckWZY- -uEAo81ulnALyHsByK7xPOUtbiwWq8Gc2DSXtw47e5o21Qt8UwiKYGGHNyXo3qtB7PJyDmgItYE3MwunsNov8xheNmIYqEwSVHRsGTnRZPsRymxo0TuoTpybZ-vkoZT2Z0_qM02k8OvbNMwnpJgZgMTEqSHWK_VVnN30U6HKEb-X6bHrtCoa4y6gDnXW48tlAqGcbK6Bz8DqeyiUnuUM1o_yTyE3Gh_sVmfj2P1ofb6zksyelfg8PwmUuhX_C8JY0c8nwYBSjyv1Z31rpOwJqpPAFPcWFtF_sgwyvcE_YsSsdGTR8YkmS91oZqAt8FCwSRExG1sXstzaAZzM9Fb2stzaWvLXgtkA9RBXD-BxbbKvUfhSjTTfb9efXdIoGBbhq8rSKFakSgIMEmE_pGsKociGB17XNSGvvK6wXriogkNB3nMAn14fRKDUbS3S0mnUtWrdPDEDLkouHEuD-3r7ySjYhxYbAblmdu5EyVOoxrNKd0jQYzJtjdqgjsjRc4oUQTIBk_pA2cuyVfZej-Zg-QBfOYHfQTq1wQPbWppzwnOgLhonh5-kX9PiteqQ2tY5aAuxJgry6OCae4Up6Z0aTEqXvuE_TgHexYtGWVpRbRnCgt4Jh0jGjhvjaUw8DC3GcZkDeA6TaQWdlusg3DZ6i7q23PPkmedWPu8yLcN0yx0w29s5y0]--></g></svg>