<svg xmlns="http://www.w3.org/2000/svg" xmlns:xlink="http://www.w3.org/1999/xlink" contentStyleType="text/css" height="759px" preserveAspectRatio="none" style="width:2903px;height:759px;background:#FFFFFF;" version="1.1" viewBox="0 0 2903 759" width="2903px" zoomAndPan="magnify"><defs/><g><!--entity ALUMNO--><g id="elem_ALUMNO"><rect fill="#9ACD32" height="38.6211" rx="2.5" ry="2.5" style="stroke:#181818;stroke-width:0.5;" width="79.8965" x="7" y="7"/><text fill="#000000" font-family="sans-serif" font-size="14" lengthAdjust="spacing" textLength="59.8965" x="17" y="32.1074">ALUMNO</text></g><!--entity PAGINA_PRINCIPAL--><g id="elem_PAGINA_PRINCIPAL"><rect fill="#ADD8E6" height="38.6211" rx="2.5" ry="2.5" style="stroke:#181818;stroke-width:0.5;" width="154.5996" x="1454.5" y="125"/><text fill="#000000" font-family="sans-serif" font-size="14" lengthAdjust="spacing" textLength="134.5996" x="1464.5" y="150.1074">PAGINA_PRINCIPAL</text></g><!--entity MENU_RUTINAS_EJERCICIOS--><g id="elem_MENU_RUTINAS_EJERCICIOS"><rect fill="#98FB98" height="38.6211" rx="2.5" ry="2.5" style="stroke:#181818;stroke-width:0.5;" width="222.2549" x="1174" y="243"/><text fill="#000000" font-family="sans-serif" font-size="14" lengthAdjust="spacing" textLength="202.2549" x="1184" y="268.1074">MENU_RUTINAS_EJERCICIOS</text></g><!--entity MENU_RETOS--><g id="elem_MENU_RETOS"><rect fill="#FFA07A" height="38.6211" rx="2.5" ry="2.5" style="stroke:#181818;stroke-width:0.5;" width="117.2344" x="1580.5" y="361"/><text fill="#000000" font-family="sans-serif" font-size="14" lengthAdjust="spacing" textLength="97.2344" x="1590.5" y="386.1074">MENU_RETOS</text></g><!--entity MENU_CLASIFICACION--><g id="elem_MENU_CLASIFICACION"><rect fill="#FFD700" height="38.6211" rx="2.5" ry="2.5" style="stroke:#181818;stroke-width:0.5;" width="176.3584" x="1995" y="597"/><text fill="#000000" font-family="sans-serif" font-size="14" lengthAdjust="spacing" textLength="156.3584" x="2005" y="622.1074">MENU_CLASIFICACION</text></g><!--entity MENU_PERFIL--><g id="elem_MENU_PERFIL"><rect fill="#F08080" height="38.6211" rx="2.5" ry="2.5" style="stroke:#181818;stroke-width:0.5;" width="118.0205" x="765" y="479"/><text fill="#000000" font-family="sans-serif" font-size="14" lengthAdjust="spacing" textLength="98.0205" x="775" y="504.1074">MENU_PERFIL</text></g><!--entity CREANDO_RUTINA--><g id="elem_CREANDO_RUTINA"><rect fill="#98FB98" height="38.6211" rx="2.5" ry="2.5" style="stroke:#181818;stroke-width:0.5;" width="149.9033" x="605" y="361"/><text fill="#000000" font-family="sans-serif" font-size="14" lengthAdjust="spacing" textLength="129.9033" x="615" y="386.1074">CREANDO_RUTINA</text></g><!--entity EDITANDO_RUTINA--><g id="elem_EDITANDO_RUTINA"><rect fill="#98FB98" height="38.6211" rx="2.5" ry="2.5" style="stroke:#181818;stroke-width:0.5;" width="152.2344" x="1351" y="361"/><text fill="#000000" font-family="sans-serif" font-size="14" lengthAdjust="spacing" textLength="132.2344" x="1361" y="386.1074">EDITANDO_RUTINA</text></g><!--entity SUBIENDO_EVIDENCIA_RETO--><g id="elem_SUBIENDO_EVIDENCIA_RETO"><rect fill="#FFA07A" height="38.6211" rx="2.5" ry="2.5" style="stroke:#181818;stroke-width:0.5;" width="223.0479" x="1806.5" y="479"/><text fill="#000000" font-family="sans-serif" font-size="14" lengthAdjust="spacing" textLength="203.0479" x="1816.5" y="504.1074">SUBIENDO_EVIDENCIA_RETO</text></g><!--entity VIENDO_ALUMNOS_CLASE--><g id="elem_VIENDO_ALUMNOS_CLASE"><rect fill="#FFD700" height="38.6211" rx="2.5" ry="2.5" style="stroke:#181818;stroke-width:0.5;" width="204.3926" x="1981" y="715"/><text fill="#000000" font-family="sans-serif" font-size="14" lengthAdjust="spacing" textLength="184.3926" x="1991" y="740.1074">VIENDO_ALUMNOS_CLASE</text></g><!--entity VIENDO_INSIGNIAS--><g id="elem_VIENDO_INSIGNIAS"><rect fill="#FFE4E1" height="38.6211" rx="2.5" ry="2.5" style="stroke:#181818;stroke-width:0.5;" width="152.2549" x="1001" y="597"/><text fill="#000000" font-family="sans-serif" font-size="14" lengthAdjust="spacing" textLength="132.2549" x="1011" y="622.1074">VIENDO_INSIGNIAS</text></g><!--entity INSCRIBIENDO_CLASE--><g id="elem_INSCRIBIENDO_CLASE"><rect fill="#FFE4E1" height="38.6211" rx="2.5" ry="2.5" style="stroke:#181818;stroke-width:0.5;" width="174.8203" x="583.5" y="597"/><text fill="#000000" font-family="sans-serif" font-size="14" lengthAdjust="spacing" textLength="154.8203" x="593.5" y="622.1074">INSCRIBIENDO_CLASE</text></g><!--entity MOSTRANDO_QR--><g id="elem_MOSTRANDO_QR"><rect fill="#FFE4E1" height="38.6211" rx="2.5" ry="2.5" style="stroke:#181818;stroke-width:0.5;" width="139.7861" x="268" y="597"/><text fill="#000000" font-family="sans-serif" font-size="14" lengthAdjust="spacing" textLength="119.7861" x="278" y="622.1074">MOSTRANDO_QR</text></g><!--link ALUMNO to PAGINA_PRINCIPAL--><g id="link_ALUMNO_PAGINA_PRINCIPAL"><path d="M87.1,30.63 C287.72,46.3 1177.4382,115.8028 1448.2282,136.9528 " fill="none" id="ALUMNO-to-PAGINA_PRINCIPAL" style="stroke:#181818;stroke-width:1.0;"/><polygon fill="#181818" points="1454.21,137.42,1445.5488,132.7313,1449.2252,137.0307,1444.9259,140.707,1454.21,137.42" style="stroke:#181818;stroke-width:1.0;"/><text fill="#000000" font-family="sans-serif" font-size="13" lengthAdjust="spacing" textLength="152.4517" x="880" y="91.0283">Ingresar al sistema #Black</text></g><!--link PAGINA_PRINCIPAL to MENU_RUTINAS_EJERCICIOS--><g id="link_PAGINA_PRINCIPAL_MENU_RUTINAS_EJERCICIOS"><path d="M1525.98,164.11 C1520.04,179.53 1509.42,200.83 1493,213 C1465.08,233.7 1435.5858,244.5353 1401.9658,251.4853 " fill="none" id="PAGINA_PRINCIPAL-to-MENU_RUTINAS_EJERCICIOS" style="stroke:#181818;stroke-width:1.0;"/><polygon fill="#181818" points="1396.09,252.7,1405.7134,254.7952,1400.9865,251.6878,1404.0939,246.9608,1396.09,252.7" style="stroke:#181818;stroke-width:1.0;"/><text fill="#000000" font-family="sans-serif" font-size="13" lengthAdjust="spacing" textLength="184.958" x="1512" y="209.0283">Usar rutinas y ejercicios #Green</text></g><!--link MENU_RUTINAS_EJERCICIOS to PAGINA_PRINCIPAL--><g id="link_MENU_RUTINAS_EJERCICIOS_PAGINA_PRINCIPAL"><path d="M1276.38,242.77 C1270.96,227.9 1266.89,207.44 1278,194 C1300.1,167.28 1382.06,155.6292 1448.32,150.2092 " fill="none" id="MENU_RUTINAS_EJERCICIOS-to-PAGINA_PRINCIPAL" style="stroke:#181818;stroke-width:1.0;"/><polygon fill="#181818" points="1454.3,149.72,1445.0039,146.4671,1449.3166,150.1276,1445.6561,154.4404,1454.3,149.72" style="stroke:#181818;stroke-width:1.0;"/><text fill="#000000" font-family="sans-serif" font-size="13" lengthAdjust="spacing" textLength="205.2451" x="1279" y="209.0283">Volviendo a p&#225;gina principal #Black</text></g><!--link PAGINA_PRINCIPAL to MENU_RETOS--><g id="link_PAGINA_PRINCIPAL_MENU_RETOS"><path d="M1609.71,151.08 C1740.25,161.83 1996.23,189.25 2067,243 C2095.23,264.44 2097.8,277.77 2107,312 C2109.19,320.15 2112.66,324.73 2107,331 C2080.06,360.88 1823.4363,373.278 1703.8163,377.508 " fill="none" id="PAGINA_PRINCIPAL-to-MENU_RETOS" style="stroke:#181818;stroke-width:1.0;"/><polygon fill="#181818" points="1697.82,377.72,1706.9557,381.3994,1702.8169,377.5433,1706.673,373.4044,1697.82,377.72" style="stroke:#181818;stroke-width:1.0;"/><text fill="#000000" font-family="sans-serif" font-size="13" lengthAdjust="spacing" textLength="228.3442" x="2098" y="268.0283">Participar en retos/actividades #Orange</text></g><!--link MENU_RETOS to PAGINA_PRINCIPAL--><g id="link_MENU_RETOS_PAGINA_PRINCIPAL"><path d="M1697.67,379.64 C1782.7,378.46 1933.76,370.66 1968,331 C1973.52,324.61 1973.17,318.68 1968,312 C1935.4,269.89 1901.13,302.55 1852,282 C1781.75,252.61 1774.94,224.1 1705,194 C1674.77,180.99 1645.8874,171.9778 1615.5374,164.0978 " fill="none" id="MENU_RETOS-to-PAGINA_PRINCIPAL" style="stroke:#181818;stroke-width:1.0;"/><polygon fill="#181818" points="1609.73,162.59,1617.4359,168.7234,1614.5695,163.8465,1619.4464,160.9801,1609.73,162.59" style="stroke:#181818;stroke-width:1.0;"/><text fill="#000000" font-family="sans-serif" font-size="13" lengthAdjust="spacing" textLength="205.2451" x="1853" y="268.0283">Volviendo a p&#225;gina principal #Black</text></g><!--link PAGINA_PRINCIPAL to MENU_CLASIFICACION--><g id="link_PAGINA_PRINCIPAL_MENU_CLASIFICACION"><path d="M1609.71,145.12 C1869.12,144.89 2689,152.74 2689,261.5 C2689,261.5 2689,261.5 2689,499.5 C2689,551.59 2345.1625,590.9157 2177.0925,607.0757 " fill="none" id="PAGINA_PRINCIPAL-to-MENU_CLASIFICACION" style="stroke:#181818;stroke-width:1.0;"/><polygon fill="#181818" points="2171.12,607.65,2180.4615,610.7703,2176.097,607.1715,2179.6958,602.807,2171.12,607.65" style="stroke:#181818;stroke-width:1.0;"/><text fill="#000000" font-family="sans-serif" font-size="13" lengthAdjust="spacing" textLength="205.9434" x="2690" y="386.0283">Consultar clasificaci&#243;n #GoldenRod</text></g><!--link MENU_CLASIFICACION to PAGINA_PRINCIPAL--><g id="link_MENU_CLASIFICACION_PAGINA_PRINCIPAL"><path d="M2171.17,602.15 C2268.62,584.84 2412,550.68 2412,499.5 C2412,261.5 2412,261.5 2412,261.5 C2412,180.93 1830.7569,154.7838 1615.7069,147.8338 " fill="none" id="MENU_CLASIFICACION-to-PAGINA_PRINCIPAL" style="stroke:#181818;stroke-width:1.0;"/><polygon fill="#181818" points="1609.71,147.64,1618.5761,151.9286,1614.7074,147.8015,1618.8345,143.9328,1609.71,147.64" style="stroke:#181818;stroke-width:1.0;"/><text fill="#000000" font-family="sans-serif" font-size="13" lengthAdjust="spacing" textLength="205.2451" x="2413" y="386.0283">Volviendo a p&#225;gina principal #Black</text></g><!--link PAGINA_PRINCIPAL to MENU_PERFIL--><g id="link_PAGINA_PRINCIPAL_MENU_PERFIL"><path d="M1454.2,145.62 C1235.07,147.78 620.64,166.88 497,312 C414.04,409.38 643.8909,465.2845 758.9609,486.6545 " fill="none" id="PAGINA_PRINCIPAL-to-MENU_PERFIL" style="stroke:#181818;stroke-width:1.0;"/><polygon fill="#181818" points="764.86,487.75,756.7417,482.1739,759.9441,486.837,755.2809,490.0394,764.86,487.75" style="stroke:#181818;stroke-width:1.0;"/><text fill="#000000" font-family="sans-serif" font-size="13" lengthAdjust="spacing" textLength="110.5444" x="498" y="327.0283">Revisar perfil #Red</text></g><!--link MENU_PERFIL to PAGINA_PRINCIPAL--><g id="link_MENU_PERFIL_PAGINA_PRINCIPAL"><path d="M764.94,498.05 C597.79,497.58 141.68,481.14 271,312 C342.05,219.07 412.01,273.31 525,243 C607.15,220.96 626.01,207.46 710,194 C981.02,150.56 1301.88,145.0029 1448.38,144.9329 " fill="none" id="MENU_PERFIL-to-PAGINA_PRINCIPAL" style="stroke:#181818;stroke-width:1.0;"/><polygon fill="#181818" points="1454.38,144.93,1445.38,140.93,1449.38,144.93,1445.38,148.93,1454.38,144.93" style="stroke:#181818;stroke-width:1.0;"/><text fill="#000000" font-family="sans-serif" font-size="13" lengthAdjust="spacing" textLength="205.2451" x="272" y="327.0283">Volviendo a p&#225;gina principal #Black</text></g><!--link MENU_RUTINAS_EJERCICIOS to CREANDO_RUTINA--><g id="link_MENU_RUTINAS_EJERCICIOS_CREANDO_RUTINA"><path d="M1173.88,268.82 C1103.24,274.62 1010.62,286.72 932,312 C914.78,317.54 912.97,324.74 896,331 C850.47,347.79 803.218,358.7084 761.028,366.5884 " fill="none" id="MENU_RUTINAS_EJERCICIOS-to-CREANDO_RUTINA" style="stroke:#181818;stroke-width:1.0;"/><polygon fill="#181818" points="755.13,367.69,764.7114,369.9696,760.045,366.772,763.2426,362.1056,755.13,367.69" style="stroke:#181818;stroke-width:1.0;"/><text fill="#000000" font-family="sans-serif" font-size="13" lengthAdjust="spacing" textLength="115.6099" x="933" y="327.0283">Crear rutina #Green</text></g><!--link CREANDO_RUTINA to MENU_RUTINAS_EJERCICIOS--><g id="link_CREANDO_RUTINA_MENU_RUTINAS_EJERCICIOS"><path d="M646.85,360.83 C626.54,347.08 607.06,328.07 622,312 C658.68,272.53 988.6702,264.8829 1167.7602,263.6029 " fill="none" id="CREANDO_RUTINA-to-MENU_RUTINAS_EJERCICIOS" style="stroke:#181818;stroke-width:1.0;"/><polygon fill="#181818" points="1173.76,263.56,1164.7316,259.6244,1168.7601,263.5957,1164.7888,267.6242,1173.76,263.56" style="stroke:#181818;stroke-width:1.0;"/><text fill="#000000" font-family="sans-serif" font-size="13" lengthAdjust="spacing" textLength="264.4688" x="623" y="327.0283">Volviendo al men&#250; rutinas y ejercicios #Green</text></g><!--link MENU_RUTINAS_EJERCICIOS to EDITANDO_RUTINA--><g id="link_MENU_RUTINAS_EJERCICIOS_EDITANDO_RUTINA"><path d="M1396.11,278.75 C1413.68,286.08 1429.73,296.7 1441,312 C1451.43,326.17 1447.9074,340.9307 1440.7674,355.5207 " fill="none" id="MENU_RUTINAS_EJERCICIOS-to-EDITANDO_RUTINA" style="stroke:#181818;stroke-width:1.0;"/><polygon fill="#181818" points="1438.13,360.91,1445.6789,354.5843,1440.3278,356.4189,1438.4932,351.0678,1438.13,360.91" style="stroke:#181818;stroke-width:1.0;"/><text fill="#000000" font-family="sans-serif" font-size="13" lengthAdjust="spacing" textLength="117.0635" x="1448" y="327.0283">Editar rutina #Green</text></g><!--link EDITANDO_RUTINA to MENU_RUTINAS_EJERCICIOS--><g id="link_EDITANDO_RUTINA_MENU_RUTINAS_EJERCICIOS"><path d="M1350.7,370.25 C1278.29,360.69 1178.79,345.19 1167,331 C1148.98,309.31 1167.8334,295.1607 1199.1034,284.1007 " fill="none" id="EDITANDO_RUTINA-to-MENU_RUTINAS_EJERCICIOS" style="stroke:#181818;stroke-width:1.0;"/><polygon fill="#181818" points="1204.76,282.1,1194.9413,281.33,1200.0462,283.7673,1197.6089,288.8721,1204.76,282.1" style="stroke:#181818;stroke-width:1.0;"/><text fill="#000000" font-family="sans-serif" font-size="13" lengthAdjust="spacing" textLength="264.4688" x="1168" y="327.0283">Volviendo al men&#250; rutinas y ejercicios #Green</text></g><!--link MENU_RUTINAS_EJERCICIOS to MENU_RETOS--><g id="link_MENU_RUTINAS_EJERCICIOS_MENU_RETOS"><path d="M1396.17,274.89 C1464.04,283.23 1543.46,295.89 1574,312 C1595.87,323.53 1611.1062,340.3579 1622.7762,356.0279 " fill="none" id="MENU_RUTINAS_EJERCICIOS-to-MENU_RETOS" style="stroke:#181818;stroke-width:1.0;"/><polygon fill="#181818" points="1626.36,360.84,1624.1924,351.2326,1623.3735,356.8299,1617.7763,356.011,1626.36,360.84" style="stroke:#181818;stroke-width:1.0;"/><text fill="#000000" font-family="sans-serif" font-size="13" lengthAdjust="spacing" textLength="174.8906" x="1600" y="327.0283">Cambiando de men&#250; #Orange</text></g><!--link MENU_RETOS to MENU_RUTINAS_EJERCICIOS--><g id="link_MENU_RETOS_MENU_RUTINAS_EJERCICIOS"><path d="M1697.57,371.86 C1749.41,362.79 1812.59,344.61 1783,312 C1757.52,283.91 1541.0761,271.7964 1402.2361,266.7864 " fill="none" id="MENU_RETOS-to-MENU_RUTINAS_EJERCICIOS" style="stroke:#181818;stroke-width:1.0;"/><polygon fill="#181818" points="1396.24,266.57,1405.0899,270.8919,1401.2367,266.7503,1405.3784,262.8972,1396.24,266.57" style="stroke:#181818;stroke-width:1.0;"/><text fill="#000000" font-family="sans-serif" font-size="13" lengthAdjust="spacing" textLength="167.6606" x="1792" y="327.0283">Cambiando de men&#250; #Green</text></g><!--link MENU_RUTINAS_EJERCICIOS to MENU_CLASIFICACION--><g id="link_MENU_RUTINAS_EJERCICIOS_MENU_CLASIFICACION"><path d="M1396.32,265.99 C1577.33,270.84 1920.15,283.66 1968,312 C2070.54,372.73 2082.04,534.2708 2082.98,590.6808 " fill="none" id="MENU_RUTINAS_EJERCICIOS-to-MENU_CLASIFICACION" style="stroke:#181818;stroke-width:1.0;"/><polygon fill="#181818" points="2083.08,596.68,2086.9295,587.6146,2082.9967,591.6807,2078.9306,587.7479,2083.08,596.68" style="stroke:#181818;stroke-width:1.0;"/><text fill="#000000" font-family="sans-serif" font-size="13" lengthAdjust="spacing" textLength="197.2979" x="2063" y="445.0283">Cambiando de men&#250; #GoldenRod</text></g><!--link MENU_RUTINAS_EJERCICIOS to MENU_PERFIL--><g id="link_MENU_RUTINAS_EJERCICIOS_MENU_PERFIL"><path d="M1219.68,282.08 C1197.69,289.72 1173.53,299.71 1153,312 C1102.49,342.24 1103.76,368.54 1054,400 C999.2,434.65 935.6236,460.0992 887.5036,476.9292 " fill="none" id="MENU_RUTINAS_EJERCICIOS-to-MENU_PERFIL" style="stroke:#181818;stroke-width:1.0;"/><polygon fill="#181818" points="881.84,478.91,891.6559,479.7145,886.5597,477.2593,889.0148,472.163,881.84,478.91" style="stroke:#181818;stroke-width:1.0;"/><text fill="#000000" font-family="sans-serif" font-size="13" lengthAdjust="spacing" textLength="155.3779" x="1100" y="386.0283">Cambiando de men&#250; #Red</text></g><!--link MENU_PERFIL to MENU_RUTINAS_EJERCICIOS--><g id="link_MENU_PERFIL_MENU_RUTINAS_EJERCICIOS"><path d="M825.56,478.69 C829.11,448.78 840.57,390.74 877,361 C938.47,310.82 975.67,348.78 1053,331 C1057.26,330.02 1148.6408,303.3627 1215.8608,283.7227 " fill="none" id="MENU_PERFIL-to-MENU_RUTINAS_EJERCICIOS" style="stroke:#181818;stroke-width:1.0;"/><polygon fill="#181818" points="1221.62,282.04,1211.8594,280.7246,1216.8207,283.4422,1214.103,288.4035,1221.62,282.04" style="stroke:#181818;stroke-width:1.0;"/><text fill="#000000" font-family="sans-serif" font-size="13" lengthAdjust="spacing" textLength="167.6606" x="878" y="386.0283">Cambiando de men&#250; #Green</text></g><!--link MENU_RETOS to SUBIENDO_EVIDENCIA_RETO--><g id="link_MENU_RETOS_SUBIENDO_EVIDENCIA_RETO"><path d="M1631.19,400.01 C1626.26,414.95 1622.71,435.62 1634,449 C1639.82,455.89 1723.3143,469.544 1800.2843,480.904 " fill="none" id="MENU_RETOS-to-SUBIENDO_EVIDENCIA_RETO" style="stroke:#181818;stroke-width:1.0;"/><polygon fill="#181818" points="1806.22,481.78,1797.9005,476.5088,1801.2736,481.05,1796.7324,484.4231,1806.22,481.78" style="stroke:#181818;stroke-width:1.0;"/><text fill="#000000" font-family="sans-serif" font-size="13" lengthAdjust="spacing" textLength="169.1016" x="1635" y="445.0283">Subir evidencia reto #Orange</text></g><!--link SUBIENDO_EVIDENCIA_RETO to MENU_RETOS--><g id="link_SUBIENDO_EVIDENCIA_RETO_MENU_RETOS"><path d="M1889.88,478.85 C1863.31,461.46 1825.18,437.15 1809,430 C1773.35,414.24 1737.0589,403.6027 1703.6689,395.4527 " fill="none" id="SUBIENDO_EVIDENCIA_RETO-to-MENU_RETOS" style="stroke:#181818;stroke-width:1.0;"/><polygon fill="#181818" points="1697.84,394.03,1705.6348,400.05,1702.6974,395.2156,1707.5318,392.2782,1697.84,394.03" style="stroke:#181818;stroke-width:1.0;"/><text fill="#000000" font-family="sans-serif" font-size="13" lengthAdjust="spacing" textLength="193.6733" x="1843" y="445.0283">Volviendo al men&#250; retos #Orange</text></g><!--link MENU_RETOS to MENU_PERFIL--><g id="link_MENU_RETOS_MENU_PERFIL"><path d="M1580.3,390.84 C1517.88,401.14 1423.51,417.85 1389,430 C1371.94,436.01 1370.34,443.85 1353,449 C1266.35,474.72 1008.2936,489.2025 889.2736,494.7125 " fill="none" id="MENU_RETOS-to-MENU_PERFIL" style="stroke:#181818;stroke-width:1.0;"/><polygon fill="#181818" points="883.28,494.99,892.4554,498.5695,888.2747,494.7588,892.0854,490.5781,883.28,494.99" style="stroke:#181818;stroke-width:1.0;"/><text fill="#000000" font-family="sans-serif" font-size="13" lengthAdjust="spacing" textLength="155.3779" x="1390" y="445.0283">Cambiando de men&#250; #Red</text></g><!--link MENU_PERFIL to MENU_RETOS--><g id="link_MENU_PERFIL_MENU_RETOS"><path d="M883.07,494.77 C947,490.35 1051.2,478.84 1136,449 C1151.96,443.38 1152.85,435.06 1169,430 C1318.4,383.16 1364.55,418.7 1520,400 C1539.72,397.63 1555.2637,395.4078 1574.4737,392.3678 " fill="none" id="MENU_PERFIL-to-MENU_RETOS" style="stroke:#181818;stroke-width:1.0;"/><polygon fill="#181818" points="1580.4,391.43,1570.8854,388.8859,1575.4615,392.2115,1572.1358,396.7876,1580.4,391.43" style="stroke:#181818;stroke-width:1.0;"/><text fill="#000000" font-family="sans-serif" font-size="13" lengthAdjust="spacing" textLength="174.8906" x="1170" y="445.0283">Cambiando de men&#250; #Orange</text></g><!--link MENU_RETOS to MENU_CLASIFICACION--><g id="link_MENU_RETOS_MENU_CLASIFICACION"><path d="M1621.79,400.25 C1597.95,428.54 1560.91,482.59 1590,518 C1640.26,579.18 1861.0831,602.2235 1988.8231,610.6835 " fill="none" id="MENU_RETOS-to-MENU_CLASIFICACION" style="stroke:#181818;stroke-width:1.0;"/><polygon fill="#181818" points="1994.81,611.08,1986.094,606.494,1989.8209,610.7496,1985.5653,614.4765,1994.81,611.08" style="stroke:#181818;stroke-width:1.0;"/><text fill="#000000" font-family="sans-serif" font-size="13" lengthAdjust="spacing" textLength="197.2979" x="1591" y="504.0283">Cambiando de men&#250; #GoldenRod</text></g><!--link MENU_CLASIFICACION to VIENDO_ALUMNOS_CLASE--><g id="link_MENU_CLASIFICACION_VIENDO_ALUMNOS_CLASE"><path d="M1994.74,633.15 C1977.57,640.33 1961.62,650.78 1951,666 C1935.02,688.9 1950.6239,702.5364 1980.4539,712.9264 " fill="none" id="MENU_CLASIFICACION-to-VIENDO_ALUMNOS_CLASE" style="stroke:#181818;stroke-width:1.0;"/><polygon fill="#181818" points="1986.12,714.9,1978.9365,708.1622,1981.3982,713.2554,1976.3051,715.7171,1986.12,714.9" style="stroke:#181818;stroke-width:1.0;"/><text fill="#000000" font-family="sans-serif" font-size="13" lengthAdjust="spacing" textLength="216.0742" x="1952" y="681.0283">Ver alumnos de tu clase #GoldenRod</text></g><!--link VIENDO_ALUMNOS_CLASE to MENU_CLASIFICACION--><g id="link_VIENDO_ALUMNOS_CLASE_MENU_CLASIFICACION"><path d="M2139.71,714.89 C2164.52,703.41 2185.47,686.88 2173,666 C2165.27,653.05 2158.028,646.2036 2144.748,639.0236 " fill="none" id="VIENDO_ALUMNOS_CLASE-to-MENU_CLASIFICACION" style="stroke:#181818;stroke-width:1.0;"/><polygon fill="#181818" points="2139.47,636.17,2145.4846,643.969,2143.8683,638.548,2149.2894,636.9318,2139.47,636.17" style="stroke:#181818;stroke-width:1.0;"/><text fill="#000000" font-family="sans-serif" font-size="13" lengthAdjust="spacing" textLength="257.2642" x="2177" y="681.0283">Volviendo al men&#250; clasificaci&#243;n #GoldenRod</text></g><!--link MENU_PERFIL to VIENDO_INSIGNIAS--><g id="link_MENU_PERFIL_VIENDO_INSIGNIAS"><path d="M867.78,518.01 C888.54,526.89 913.63,537.81 936,548 C971.19,564.04 1005.4966,580.501 1033.7866,594.291 " fill="none" id="MENU_PERFIL-to-VIENDO_INSIGNIAS" style="stroke:#181818;stroke-width:1.0;"/><polygon fill="#181818" points="1039.18,596.92,1032.8426,589.3809,1034.6855,594.7292,1029.3373,596.5721,1039.18,596.92" style="stroke:#181818;stroke-width:1.0;"/><text fill="#000000" font-family="sans-serif" font-size="13" lengthAdjust="spacing" textLength="145.9453" x="976" y="563.0283">Ver insignias #MistyRose</text></g><!--link VIENDO_INSIGNIAS to MENU_PERFIL--><g id="link_VIENDO_INSIGNIAS_MENU_PERFIL"><path d="M1107.34,596.84 C1125.93,583.1 1143.74,564.09 1130,548 C1098.91,511.6 969.1176,502.5382 889.2476,500.2982 " fill="none" id="VIENDO_INSIGNIAS-to-MENU_PERFIL" style="stroke:#181818;stroke-width:1.0;"/><polygon fill="#181818" points="883.25,500.13,892.1343,504.3807,888.248,500.2702,892.3586,496.3839,883.25,500.13" style="stroke:#181818;stroke-width:1.0;"/><text fill="#000000" font-family="sans-serif" font-size="13" lengthAdjust="spacing" textLength="137.3062" x="1136" y="563.0283">Volviendo al perfil #Red</text></g><!--link MENU_PERFIL to INSCRIBIENDO_CLASE--><g id="link_MENU_PERFIL_INSCRIBIENDO_CLASE"><path d="M799.42,518.14 C770.87,539.78 728.8312,571.6551 700.3012,593.2851 " fill="none" id="MENU_PERFIL-to-INSCRIBIENDO_CLASE" style="stroke:#181818;stroke-width:1.0;"/><polygon fill="#181818" points="695.52,596.91,705.1084,594.6602,699.5044,593.8893,700.2753,588.2852,695.52,596.91" style="stroke:#181818;stroke-width:1.0;"/><text fill="#000000" font-family="sans-serif" font-size="13" lengthAdjust="spacing" textLength="169.0571" x="758" y="563.0283">Inscribir en clase #MistyRose</text></g><!--link INSCRIBIENDO_CLASE to MENU_PERFIL--><g id="link_INSCRIBIENDO_CLASE_MENU_PERFIL"><path d="M623.89,596.9 C599.12,584.38 576.76,566.76 592,548 C613.38,521.69 697.3447,509.7039 758.7547,504.1139 " fill="none" id="INSCRIBIENDO_CLASE-to-MENU_PERFIL" style="stroke:#181818;stroke-width:1.0;"/><polygon fill="#181818" points="764.73,503.57,755.4044,500.4023,759.7506,504.0233,756.1297,508.3694,764.73,503.57" style="stroke:#181818;stroke-width:1.0;"/><text fill="#000000" font-family="sans-serif" font-size="13" lengthAdjust="spacing" textLength="137.3062" x="593" y="563.0283">Volviendo al perfil #Red</text></g><!--link MENU_PERFIL to MOSTRANDO_QR--><g id="link_MENU_PERFIL_MOSTRANDO_QR"><path d="M764.82,499.05 C602.75,498.43 160.79,501.1 117,548 C69.77,598.58 180.5345,611.4082 261.7345,614.5482 " fill="none" id="MENU_PERFIL-to-MOSTRANDO_QR" style="stroke:#181818;stroke-width:1.0;"/><polygon fill="#181818" points="267.73,614.78,258.8913,610.4352,262.7337,614.5868,258.5822,618.4292,267.73,614.78" style="stroke:#181818;stroke-width:1.0;"/><text fill="#000000" font-family="sans-serif" font-size="13" lengthAdjust="spacing" textLength="253.5952" x="118" y="563.0283">Mostrar QR en centro deportivo #MistyRose</text></g><!--link MOSTRANDO_QR to MENU_PERFIL--><g id="link_MOSTRANDO_QR_MENU_PERFIL"><path d="M360.09,596.69 C379.91,580.93 410.51,559.24 441,548 C550.43,507.68 682.0404,499.8325 758.9704,498.9025 " fill="none" id="MOSTRANDO_QR-to-MENU_PERFIL" style="stroke:#181818;stroke-width:1.0;"/><polygon fill="#181818" points="764.97,498.83,755.9223,494.9391,759.9704,498.8904,756.019,502.9385,764.97,498.83" style="stroke:#181818;stroke-width:1.0;"/><text fill="#000000" font-family="sans-serif" font-size="13" lengthAdjust="spacing" textLength="137.3062" x="442" y="563.0283">Volviendo al perfil #Red</text></g><!--link MENU_PERFIL to ALUMNO--><g id="link_MENU_PERFIL_ALUMNO"><path d="M764.73,495.21 C578.6,487.24 18,456.96 18,381.5 C18,143.5 18,143.5 18,143.5 C18,108.21 28.6591,74.2488 37.2491,51.6388 " fill="none" id="MENU_PERFIL-to-ALUMNO" style="stroke:#181818;stroke-width:1.0;"/><polygon fill="#181818" points="39.38,46.03,32.4444,53.0227,37.6042,50.704,39.9229,55.8639,39.38,46.03" style="stroke:#181818;stroke-width:1.0;"/><text fill="#000000" font-family="sans-serif" font-size="13" lengthAdjust="spacing" textLength="157.5234" x="19" y="268.0283">Cerrando sesi&#243;n #DarkRed</text></g><!--link MENU_PERFIL to MENU_CLASIFICACION--><g id="link_MENU_PERFIL_MENU_CLASIFICACION"><path d="M883.07,502.37 C970.8,507.4 1140.41,520.04 1282,548 C1311.53,553.83 1317.36,561.76 1347,567 C1578.23,607.91 1849.8401,615.0559 1988.7401,615.8459 " fill="none" id="MENU_PERFIL-to-MENU_CLASIFICACION" style="stroke:#181818;stroke-width:1.0;"/><polygon fill="#181818" points="1994.74,615.88,1985.7629,611.8289,1989.7401,615.8516,1985.7174,619.8287,1994.74,615.88" style="stroke:#181818;stroke-width:1.0;"/><text fill="#000000" font-family="sans-serif" font-size="13" lengthAdjust="spacing" textLength="197.2979" x="1348" y="563.0283">Cambiando de men&#250; #GoldenRod</text></g><!--SRC=[hPQ_Rjim4CPtFmKR3ss6e7k70egi62nisPNi09q2HhguR6ZI86KtUPm-GxUkUR4UALdM_pH9HyF77- - - - -weTodSSGaa2loL5qvdmOU7Sw8XoPZS220Fez5xCh4XFE5FloL9WR0aKneCUIGWO0ioKuRiD9S9tp41PdH2URFrF5oSa_4t44Bzd6e0MVbxwKrfwDqi8nhwTEdDC736Dz-pIx47U-ySvDEVFlOy2DStqNg5XFWc-194FlNf8aR64YERL-NHmSe5k4jY9hQg5UBFl9XUKTz3LeYXKoNIPimoYAvecQolD1CsstX_kyqJVaI94gvaBLy_2hnmiYXIxaapcD3Lyr7n-f86DYguffC0jVDSQRsLNUVHUJTYLsFGhgs8ec5Cfo7rh51pRhB7I1ceXE7_VaIB18wehi3v8bv5hfYlKIq4jOf0i5oXMdVp3Cd5nMVIz0RvHAZSeEsO9amGWpJOCZA-HD3zQDGAjumUYo1gRJ5wdt79d8z_W4xGu6ZaSIxs0C-Q215BfZDk4zS494uCJi57d0n-u2bBiQxnGkC8mG2fvZKa-agQlSWGc0Xc-1rFM3vphbCW8vKEq79N8YQ20xVbxK3VSK764QJbC96pg2mwA8i-6_KfPUbruzeyDPJg7VKQ0ZHCZOGWvLaBqRXdk87NIXmuo5HPCxYn6sndCuN_2X-glMOPdsrlERDStA8vz-YIPnajitImJZPv5bUwfOlJS8orzj4YhX9BwTb1ICGzo74cS0u01vkvqIZhx3lMqggh1pQHXc9bFlzMLTUXroXR9tIQg1FZ_7AIrg_DUQ5nFHzxITV-jXA1NONxhKHLy8vix_O6LBFjFDbRUOVc_PleLCNIBPeY-w85bRJB1wL8cKl3DvBZC5NUXERPzYlZ7W2JQExS9O-rzYEgxmyUdYkJQLmw-CEUniyMRLkpKxZ63se8LBnAs5BGsdNKWCdbc31zN_ggUlTBnhvvxXM6R5tzGaUsMjKUgPevgczBHwjUSBhMfHUSG_kjK4F3Yyy8sy-YAZEu_Ze-B2gNaDtJhurzbChFakCdHcFmtuHfZ_YRS9NklvBp5m00]--></g></svg>