<svg xmlns="http://www.w3.org/2000/svg" xmlns:xlink="http://www.w3.org/1999/xlink" contentStyleType="text/css" height="812px" preserveAspectRatio="none" style="width:2159px;height:812px;background:#FFFFFF;" version="1.1" viewBox="0 0 2159 812" width="2159px" zoomAndPan="magnify"><defs/><g><!--entity USUARIO--><g id="elem_USUARIO"><rect fill="#9ACD32" height="38.6211" rx="2.5" ry="2.5" style="stroke:#181818;stroke-width:0.5;" width="83.7861" x="1702" y="7"/><text fill="#000000" font-family="sans-serif" font-size="14" lengthAdjust="spacing" textLength="63.7861" x="1712" y="32.1074">USUARIO</text></g><!--entity ALUMNO--><g id="elem_ALUMNO"><rect fill="#9ACD32" height="38.6211" rx="2.5" ry="2.5" style="stroke:#181818;stroke-width:0.5;" width="79.8965" x="1704" y="125"/><text fill="#000000" font-family="sans-serif" font-size="14" lengthAdjust="spacing" textLength="59.8965" x="1714" y="150.1074">ALUMNO</text></g><!--entity PAGINA_PRINCIPAL--><g id="elem_PAGINA_PRINCIPAL"><rect fill="#ADD8E6" height="38.6211" rx="2.5" ry="2.5" style="stroke:#181818;stroke-width:0.5;" width="154.5996" x="1256.5" y="243"/><text fill="#000000" font-family="sans-serif" font-size="14" lengthAdjust="spacing" textLength="134.5996" x="1266.5" y="268.1074">PAGINA_PRINCIPAL</text></g><!--entity NAVEGACION_MENUS--><g id="elem_NAVEGACION_MENUS"><rect fill="#87CEEB" height="38.6211" rx="2.5" ry="2.5" style="stroke:#181818;stroke-width:0.5;" width="171.6963" x="1092" y="361"/><text fill="#000000" font-family="sans-serif" font-size="14" lengthAdjust="spacing" textLength="151.6963" x="1102" y="386.1074">NAVEGACION_MENUS</text></g><!--entity MENU_RUTINAS_EJERCICIOS--><g id="elem_MENU_RUTINAS_EJERCICIOS"><rect fill="#98FB98" height="38.6211" rx="2.5" ry="2.5" style="stroke:#181818;stroke-width:0.5;" width="222.2549" x="342" y="479"/><text fill="#000000" font-family="sans-serif" font-size="14" lengthAdjust="spacing" textLength="202.2549" x="352" y="504.1074">MENU_RUTINAS_EJERCICIOS</text></g><!--entity MENU_RETOS--><g id="elem_MENU_RETOS"><rect fill="#FFA07A" height="38.6211" rx="2.5" ry="2.5" style="stroke:#181818;stroke-width:0.5;" width="117.2344" x="1192.5" y="479"/><text fill="#000000" font-family="sans-serif" font-size="14" lengthAdjust="spacing" textLength="97.2344" x="1202.5" y="504.1074">MENU_RETOS</text></g><!--entity MENU_CLASIFICACION--><g id="elem_MENU_CLASIFICACION"><rect fill="#FFD700" height="38.6211" rx="2.5" ry="2.5" style="stroke:#181818;stroke-width:0.5;" width="176.3584" x="981" y="479"/><text fill="#000000" font-family="sans-serif" font-size="14" lengthAdjust="spacing" textLength="156.3584" x="991" y="504.1074">MENU_CLASIFICACION</text></g><!--entity MENU_PERFIL--><g id="elem_MENU_PERFIL"><rect fill="#F08080" height="38.6211" rx="2.5" ry="2.5" style="stroke:#181818;stroke-width:0.5;" width="118.0205" x="1816" y="479"/><text fill="#000000" font-family="sans-serif" font-size="14" lengthAdjust="spacing" textLength="98.0205" x="1826" y="504.1074">MENU_PERFIL</text></g><!--entity VER_INSIGNIAS--><g id="elem_VER_INSIGNIAS"><rect fill="#FFE4E1" height="38.6211" rx="2.5" ry="2.5" style="stroke:#181818;stroke-width:0.5;" width="127.3652" x="1752.5" y="597"/><text fill="#000000" font-family="sans-serif" font-size="14" lengthAdjust="spacing" textLength="107.3652" x="1762.5" y="622.1074">VER_INSIGNIAS</text></g><!--entity INSCRIBIR_CLASE--><g id="elem_INSCRIBIR_CLASE"><rect fill="#FFE4E1" height="38.6211" rx="2.5" ry="2.5" style="stroke:#181818;stroke-width:0.5;" width="144.4824" x="1977" y="597"/><text fill="#000000" font-family="sans-serif" font-size="14" lengthAdjust="spacing" textLength="124.4824" x="1987" y="622.1074">INSCRIBIR_CLASE</text></g><!--entity MOSTRAR_QR--><g id="elem_MOSTRAR_QR"><rect fill="#FFE4E1" height="38.6211" rx="2.5" ry="2.5" style="stroke:#181818;stroke-width:0.5;" width="118.7861" x="1508.5" y="597"/><text fill="#000000" font-family="sans-serif" font-size="14" lengthAdjust="spacing" textLength="98.7861" x="1518.5" y="622.1074">MOSTRAR_QR</text></g><!--entity CREAR_RUTINA--><g id="elem_CREAR_RUTINA"><rect fill="#98FB98" height="38.6211" rx="2.5" ry="2.5" style="stroke:#181818;stroke-width:0.5;" width="128.9033" x="265.5" y="597"/><text fill="#000000" font-family="sans-serif" font-size="14" lengthAdjust="spacing" textLength="108.9033" x="275.5" y="622.1074">CREAR_RUTINA</text></g><!--entity EDITAR_RUTINA--><g id="elem_EDITAR_RUTINA"><rect fill="#98FB98" height="38.6211" rx="2.5" ry="2.5" style="stroke:#181818;stroke-width:0.5;" width="131.2344" x="694.5" y="597"/><text fill="#000000" font-family="sans-serif" font-size="14" lengthAdjust="spacing" textLength="111.2344" x="704.5" y="622.1074">EDITAR_RUTINA</text></g><!--entity MOSTRAR_RUTINA--><g id="elem_MOSTRAR_RUTINA"><rect fill="#98FB98" height="38.6211" rx="2.5" ry="2.5" style="stroke:#181818;stroke-width:0.5;" width="149.8965" x="455" y="597"/><text fill="#000000" font-family="sans-serif" font-size="14" lengthAdjust="spacing" textLength="129.8965" x="465" y="622.1074">MOSTRAR_RUTINA</text></g><!--entity MOSTRAR_EJERCICIO--><g id="elem_MOSTRAR_EJERCICIO"><rect fill="#98FB98" height="38.6211" rx="2.5" ry="2.5" style="stroke:#181818;stroke-width:0.5;" width="172.4619" x="7" y="597"/><text fill="#000000" font-family="sans-serif" font-size="14" lengthAdjust="spacing" textLength="152.4619" x="17" y="622.1074">MOSTRAR_EJERCICIO</text></g><!--entity SUBIR_EVIDENCIA_RETO--><g id="elem_SUBIR_EVIDENCIA_RETO"><rect fill="#FFA07A" height="38.6211" rx="2.5" ry="2.5" style="stroke:#181818;stroke-width:0.5;" width="192.71" x="1219.5" y="597"/><text fill="#000000" font-family="sans-serif" font-size="14" lengthAdjust="spacing" textLength="172.71" x="1229.5" y="622.1074">SUBIR_EVIDENCIA_RETO</text></g><!--entity VER_ALUMNOS_CLASE--><g id="elem_VER_ALUMNOS_CLASE"><rect fill="#FFD700" height="38.6211" rx="2.5" ry="2.5" style="stroke:#181818;stroke-width:0.5;" width="179.5029" x="1821" y="7"/><text fill="#000000" font-family="sans-serif" font-size="14" lengthAdjust="spacing" textLength="159.5029" x="1831" y="32.1074">VER_ALUMNOS_CLASE</text></g><!--link USUARIO to ALUMNO--><g id="link_USUARIO_ALUMNO"><path d="M1744,46.14 C1744,67.78 1744,97.28 1744,118.91 " fill="none" id="USUARIO-to-ALUMNO" style="stroke:#9ACD32;stroke-width:1.0;"/><polygon fill="#9ACD32" points="1744,124.91,1748,115.91,1744,119.91,1740,115.91,1744,124.91" style="stroke:#9ACD32;stroke-width:1.0;"/><text fill="#000000" font-family="sans-serif" font-size="13" lengthAdjust="spacing" textLength="75.8672" x="1745" y="91.0283">Iniciar sesi&#243;n</text></g><!--link ALUMNO to PAGINA_PRINCIPAL--><g id="link_ALUMNO_PAGINA_PRINCIPAL"><path d="M1703.94,156.83 C1633.11,176.87 1490.9534,217.0967 1405.1634,241.3667 " fill="none" id="ALUMNO-to-PAGINA_PRINCIPAL" style="stroke:#9ACD32;stroke-width:1.0;"/><polygon fill="#9ACD32" points="1399.39,243,1409.139,244.399,1404.2012,241.6389,1406.9613,236.7011,1399.39,243" style="stroke:#9ACD32;stroke-width:1.0;"/><text fill="#000000" font-family="sans-serif" font-size="13" lengthAdjust="spacing" textLength="109.8208" x="1565" y="209.0283">Ingresar al sistema</text></g><!--link PAGINA_PRINCIPAL to NAVEGACION_MENUS--><g id="link_PAGINA_PRINCIPAL_NAVEGACION_MENUS"><path d="M1256.27,267.94 C1225.9,273.94 1193.89,286.49 1175,312 C1164.74,325.86 1165.6736,340.2708 1169.6736,354.9608 " fill="none" id="PAGINA_PRINCIPAL-to-NAVEGACION_MENUS" style="stroke:#87CEEB;stroke-width:1.0;"/><polygon fill="#87CEEB" points="1171.25,360.75,1172.7449,351.0153,1169.9364,355.9257,1165.026,353.1171,1171.25,360.75" style="stroke:#87CEEB;stroke-width:1.0;"/><text fill="#000000" font-family="sans-serif" font-size="13" lengthAdjust="spacing" textLength="114.1689" x="1176" y="327.0283">Navegar por men&#250;s</text></g><!--link NAVEGACION_MENUS to PAGINA_PRINCIPAL--><g id="link_NAVEGACION_MENUS_PAGINA_PRINCIPAL"><path d="M1243.62,360.98 C1261.66,353.7 1280.29,343.9 1295,331 C1310.16,317.7 1318.5595,302.5489 1324.8695,287.5789 " fill="none" id="NAVEGACION_MENUS-to-PAGINA_PRINCIPAL" style="stroke:#ADD8E6;stroke-width:1.0;"/><polygon fill="#ADD8E6" points="1327.2,282.05,1320.0183,288.7897,1325.2579,286.6574,1327.3902,291.897,1327.2,282.05" style="stroke:#ADD8E6;stroke-width:1.0;"/><text fill="#000000" font-family="sans-serif" font-size="13" lengthAdjust="spacing" textLength="100.4326" x="1312" y="327.0283">Regresar al inicio</text></g><!--link NAVEGACION_MENUS to MENU_RUTINAS_EJERCICIOS--><g id="link_NAVEGACION_MENUS_MENU_RUTINAS_EJERCICIOS"><path d="M1091.71,383.88 C897.42,389.65 440.76,405.74 418,430 C404.72,444.15 414.0897,459.9674 428.0097,474.5674 " fill="none" id="NAVEGACION_MENUS-to-MENU_RUTINAS_EJERCICIOS" style="stroke:#98FB98;stroke-width:1.0;"/><polygon fill="#98FB98" points="432.15,478.91,428.8346,469.636,428.6997,475.2912,423.0445,475.1564,432.15,478.91" style="stroke:#98FB98;stroke-width:1.0;"/><text fill="#000000" font-family="sans-serif" font-size="13" lengthAdjust="spacing" textLength="129.3208" x="419" y="445.0283">Ir a rutinas y ejercicios</text></g><!--link MENU_RUTINAS_EJERCICIOS to NAVEGACION_MENUS--><g id="link_MENU_RUTINAS_EJERCICIOS_NAVEGACION_MENUS"><path d="M492.09,478.92 C510.63,470.01 533.03,459.11 553,449 C569.14,440.83 571.63,435.07 589,430 C680.91,403.18 945.8444,389.9185 1085.9344,384.5785 " fill="none" id="MENU_RUTINAS_EJERCICIOS-to-NAVEGACION_MENUS" style="stroke:#87CEEB;stroke-width:1.0;"/><polygon fill="#87CEEB" points="1091.93,384.35,1082.7842,380.6957,1086.9336,384.5405,1083.0889,388.6899,1091.93,384.35" style="stroke:#87CEEB;stroke-width:1.0;"/><text fill="#000000" font-family="sans-serif" font-size="13" lengthAdjust="spacing" textLength="85.2554" x="590" y="445.0283">Cambiar men&#250;</text></g><!--link NAVEGACION_MENUS to MENU_RETOS--><g id="link_NAVEGACION_MENUS_MENU_RETOS"><path d="M1172.19,400.15 C1168.87,414.41 1166.82,434.08 1175,449 C1181.92,461.63 1188.5466,468.3339 1200.7766,475.7339 " fill="none" id="NAVEGACION_MENUS-to-MENU_RETOS" style="stroke:#FFA07A;stroke-width:1.0;"/><polygon fill="#FFA07A" points="1205.91,478.84,1200.2806,470.7586,1201.6321,476.2516,1196.1391,477.6032,1205.91,478.84" style="stroke:#FFA07A;stroke-width:1.0;"/><text fill="#000000" font-family="sans-serif" font-size="13" lengthAdjust="spacing" textLength="51.2954" x="1176" y="445.0283">Ir a retos</text></g><!--link MENU_RETOS to NAVEGACION_MENUS--><g id="link_MENU_RETOS_NAVEGACION_MENUS"><path d="M1248.64,478.89 C1246.18,464.65 1241.33,444.99 1232,430 C1224.88,418.55 1218.9033,412.0121 1208.9733,403.8421 " fill="none" id="MENU_RETOS-to-NAVEGACION_MENUS" style="stroke:#87CEEB;stroke-width:1.0;"/><polygon fill="#87CEEB" points="1204.34,400.03,1208.7486,408.8371,1208.2011,403.2068,1213.8314,402.6593,1204.34,400.03" style="stroke:#87CEEB;stroke-width:1.0;"/><text fill="#000000" font-family="sans-serif" font-size="13" lengthAdjust="spacing" textLength="85.2554" x="1242" y="445.0283">Cambiar men&#250;</text></g><!--link NAVEGACION_MENUS to MENU_CLASIFICACION--><g id="link_NAVEGACION_MENUS_MENU_CLASIFICACION"><path d="M1091.88,385.69 C1023.74,391.03 936.44,403.06 914,430 C908.6,436.49 909,442.2 914,449 C922.85,461.04 945.1556,469.8728 975.0356,477.9028 " fill="none" id="NAVEGACION_MENUS-to-MENU_CLASIFICACION" style="stroke:#FFD700;stroke-width:1.0;"/><polygon fill="#FFD700" points="980.83,479.46,973.1765,473.2613,976.0013,478.1623,971.1003,480.9871,980.83,479.46" style="stroke:#FFD700;stroke-width:1.0;"/><text fill="#000000" font-family="sans-serif" font-size="13" lengthAdjust="spacing" textLength="92.479" x="915" y="445.0283">Ir a clasificaci&#243;n</text></g><!--link MENU_CLASIFICACION to NAVEGACION_MENUS--><g id="link_MENU_CLASIFICACION_NAVEGACION_MENUS"><path d="M1065.95,478.92 C1064.59,464.33 1065.1,444.18 1075,430 C1084.17,416.87 1092.4664,409.8489 1106.8764,402.7589 " fill="none" id="MENU_CLASIFICACION-to-NAVEGACION_MENUS" style="stroke:#87CEEB;stroke-width:1.0;"/><polygon fill="#87CEEB" points="1112.26,400.11,1102.4186,400.4942,1107.7736,402.3174,1105.9504,407.6724,1112.26,400.11" style="stroke:#87CEEB;stroke-width:1.0;"/><text fill="#000000" font-family="sans-serif" font-size="13" lengthAdjust="spacing" textLength="85.2554" x="1076" y="445.0283">Cambiar men&#250;</text></g><!--link NAVEGACION_MENUS to MENU_PERFIL--><g id="link_NAVEGACION_MENUS_MENU_PERFIL"><path d="M1264.39,380.76 C1372.56,381.75 1562.79,389.86 1720,430 C1722.97,430.76 1782.5269,456.8364 1827.4069,476.5564 " fill="none" id="NAVEGACION_MENUS-to-MENU_PERFIL" style="stroke:#F08080;stroke-width:1.0;"/><polygon fill="#F08080" points="1832.9,478.97,1826.2694,471.6875,1828.3224,476.9586,1823.0512,479.0116,1832.9,478.97" style="stroke:#F08080;stroke-width:1.0;"/><text fill="#000000" font-family="sans-serif" font-size="13" lengthAdjust="spacing" textLength="50.5718" x="1765" y="445.0283">Ir a perfil</text></g><!--link MENU_PERFIL to NAVEGACION_MENUS--><g id="link_MENU_PERFIL_NAVEGACION_MENUS"><path d="M1865.67,478.72 C1856.63,462.74 1841.31,440.72 1821,430 C1772.95,404.64 1434.0364,390.057 1270.1064,384.397 " fill="none" id="MENU_PERFIL-to-NAVEGACION_MENUS" style="stroke:#87CEEB;stroke-width:1.0;"/><polygon fill="#87CEEB" points="1264.11,384.19,1272.9666,388.4982,1269.107,384.3625,1273.2427,380.5029,1264.11,384.19" style="stroke:#87CEEB;stroke-width:1.0;"/><text fill="#000000" font-family="sans-serif" font-size="13" lengthAdjust="spacing" textLength="85.2554" x="1846" y="445.0283">Cambiar men&#250;</text></g><!--link MENU_RUTINAS_EJERCICIOS to CREAR_RUTINA--><g id="link_MENU_RUTINAS_EJERCICIOS_CREAR_RUTINA"><path d="M428.89,518.2 C417.97,526.95 405.06,537.7 394,548 C377.1,563.74 363.1379,578.513 350.5479,592.413 " fill="none" id="MENU_RUTINAS_EJERCICIOS-to-CREAR_RUTINA" style="stroke:#98FB98;stroke-width:1.0;"/><polygon fill="#98FB98" points="346.52,596.86,355.5265,592.8747,349.8766,593.1542,349.5972,587.5042,346.52,596.86" style="stroke:#98FB98;stroke-width:1.0;"/><text fill="#000000" font-family="sans-serif" font-size="13" lengthAdjust="spacing" textLength="68.6372" x="395" y="563.0283">Crear rutina</text></g><!--link MENU_RUTINAS_EJERCICIOS to EDITAR_RUTINA--><g id="link_MENU_RUTINAS_EJERCICIOS_EDITAR_RUTINA"><path d="M501.98,518.01 C559.29,539.66 647.9871,573.1797 705.3271,594.8397 " fill="none" id="MENU_RUTINAS_EJERCICIOS-to-EDITAR_RUTINA" style="stroke:#98FB98;stroke-width:1.0;"/><polygon fill="#98FB98" points="710.94,596.96,703.9342,590.0377,706.2626,595.1931,701.1072,597.5216,710.94,596.96" style="stroke:#98FB98;stroke-width:1.0;"/><text fill="#000000" font-family="sans-serif" font-size="13" lengthAdjust="spacing" textLength="70.0908" x="626" y="563.0283">Editar rutina</text></g><!--link MENU_RUTINAS_EJERCICIOS to MOSTRAR_RUTINA--><g id="link_MENU_RUTINAS_EJERCICIOS_MOSTRAR_RUTINA"><path d="M458.9,518.21 C463.84,532.32 471.74,551.77 482,567 C489.28,577.81 494.8116,584.1564 503.7216,592.5864 " fill="none" id="MENU_RUTINAS_EJERCICIOS-to-MOSTRAR_RUTINA" style="stroke:#98FB98;stroke-width:1.0;"/><polygon fill="#98FB98" points="508.08,596.71,504.2915,587.619,504.448,593.2737,498.7933,593.4302,508.08,596.71" style="stroke:#98FB98;stroke-width:1.0;"/><text fill="#000000" font-family="sans-serif" font-size="13" lengthAdjust="spacing" textLength="80.1899" x="483" y="563.0283">Mostrar rutina</text></g><!--link MENU_RUTINAS_EJERCICIOS to MOSTRAR_EJERCICIO--><g id="link_MENU_RUTINAS_EJERCICIOS_MOSTRAR_EJERCICIO"><path d="M375.9,518.01 C343.04,526.4 304.41,536.91 270,548 C224.3,562.73 178.7118,580.3593 143.2018,594.7293 " fill="none" id="MENU_RUTINAS_EJERCICIOS-to-MOSTRAR_EJERCICIO" style="stroke:#98FB98;stroke-width:1.0;"/><polygon fill="#98FB98" points="137.64,596.98,147.4833,597.3118,142.2749,595.1044,144.4823,589.896,137.64,596.98" style="stroke:#98FB98;stroke-width:1.0;"/><text fill="#000000" font-family="sans-serif" font-size="13" lengthAdjust="spacing" textLength="96.7954" x="271" y="563.0283">Mostrar Ejercicio</text></g><!--link CREAR_RUTINA to NAVEGACION_MENUS--><g id="link_CREAR_RUTINA_NAVEGACION_MENUS"><path d="M265.48,605.05 C243.51,598.07 221.18,586.43 208,567 C184.88,532.92 206.27,506.41 237,479 C295.04,427.23 328.39,443.41 405,430 C651.53,386.86 942.19,380.8133 1085.77,380.7333 " fill="none" id="CREAR_RUTINA-to-NAVEGACION_MENUS" style="stroke:#87CEEB;stroke-width:1.0;"/><polygon fill="#87CEEB" points="1091.77,380.73,1082.77,376.73,1086.77,380.73,1082.77,384.73,1091.77,380.73" style="stroke:#87CEEB;stroke-width:1.0;"/><text fill="#000000" font-family="sans-serif" font-size="13" lengthAdjust="spacing" textLength="85.2554" x="238" y="504.0283">Cambiar men&#250;</text></g><!--link EDITAR_RUTINA to NAVEGACION_MENUS--><g id="link_EDITAR_RUTINA_NAVEGACION_MENUS"><path d="M768.51,596.8 C786.97,558.53 834.64,471.38 903,430 C934.16,411.14 1017.5092,398.3951 1085.9792,390.5251 " fill="none" id="EDITAR_RUTINA-to-NAVEGACION_MENUS" style="stroke:#87CEEB;stroke-width:1.0;"/><polygon fill="#87CEEB" points="1091.94,389.84,1082.5421,386.8939,1086.9727,390.4109,1083.4556,394.8415,1091.94,389.84" style="stroke:#87CEEB;stroke-width:1.0;"/><text fill="#000000" font-family="sans-serif" font-size="13" lengthAdjust="spacing" textLength="85.2554" x="846" y="504.0283">Cambiar men&#250;</text></g><!--link MOSTRAR_RUTINA to NAVEGACION_MENUS--><g id="link_MOSTRAR_RUTINA_NAVEGACION_MENUS"><path d="M605.12,603.82 C631.19,596.71 659.1,585.3 680,567 C712.61,538.45 689.49,507.66 722,479 C776.04,431.35 969.4268,403.4936 1085.8868,390.5336 " fill="none" id="MOSTRAR_RUTINA-to-NAVEGACION_MENUS" style="stroke:#87CEEB;stroke-width:1.0;"/><polygon fill="#87CEEB" points="1091.85,389.87,1082.4628,386.8899,1086.8807,390.423,1083.3476,394.8409,1091.85,389.87" style="stroke:#87CEEB;stroke-width:1.0;"/><text fill="#000000" font-family="sans-serif" font-size="13" lengthAdjust="spacing" textLength="85.2554" x="723" y="504.0283">Cambiar men&#250;</text></g><!--link MOSTRAR_EJERCICIO to NAVEGACION_MENUS--><g id="link_MOSTRAR_EJERCICIO_NAVEGACION_MENUS"><path d="M89.3,596.68 C84.78,567.79 80.86,512.39 109,479 C158.57,420.18 199.19,443.04 275,430 C430.3,403.29 891.322,388.7965 1085.682,383.7265 " fill="none" id="MOSTRAR_EJERCICIO-to-NAVEGACION_MENUS" style="stroke:#87CEEB;stroke-width:1.0;"/><polygon fill="#87CEEB" points="1091.68,383.57,1082.5788,379.8061,1086.6817,383.7004,1082.7874,387.8033,1091.68,383.57" style="stroke:#87CEEB;stroke-width:1.0;"/><text fill="#000000" font-family="sans-serif" font-size="13" lengthAdjust="spacing" textLength="85.2554" x="110" y="504.0283">Cambiar men&#250;</text></g><!--link MENU_RETOS to SUBIR_EVIDENCIA_RETO--><g id="link_MENU_RETOS_SUBIR_EVIDENCIA_RETO"><path d="M1232.56,518.16 C1221.14,532.07 1210.34,551.29 1220,567 C1228.02,580.04 1235.4444,586.9171 1249.0444,594.0371 " fill="none" id="MENU_RETOS-to-SUBIR_EVIDENCIA_RETO" style="stroke:#FFA07A;stroke-width:1.0;"/><polygon fill="#FFA07A" points="1254.36,596.82,1248.2418,589.102,1249.9303,594.5009,1244.5313,596.1894,1254.36,596.82" style="stroke:#FFA07A;stroke-width:1.0;"/><text fill="#000000" font-family="sans-serif" font-size="13" lengthAdjust="spacing" textLength="132.9707" x="1221" y="563.0283">Subir evidencia de reto</text></g><!--link SUBIR_EVIDENCIA_RETO to NAVEGACION_MENUS--><g id="link_SUBIR_EVIDENCIA_RETO_NAVEGACION_MENUS"><path d="M1337.67,596.91 C1345.67,588.66 1353.8,578.27 1358,567 C1379.54,509.22 1377.06,476.01 1336,430 C1317.56,409.34 1296.3754,398.8855 1269.9054,391.9755 " fill="none" id="SUBIR_EVIDENCIA_RETO-to-NAVEGACION_MENUS" style="stroke:#87CEEB;stroke-width:1.0;"/><polygon fill="#87CEEB" points="1264.1,390.46,1271.7978,396.6036,1268.9379,391.7229,1273.8185,388.863,1264.1,390.46" style="stroke:#87CEEB;stroke-width:1.0;"/><text fill="#000000" font-family="sans-serif" font-size="13" lengthAdjust="spacing" textLength="85.2554" x="1373" y="504.0283">Cambiar men&#250;</text></g><!--link MENU_PERFIL to VER_INSIGNIAS--><g id="link_MENU_PERFIL_VER_INSIGNIAS"><path d="M1865.52,518.14 C1854.51,539.78 1839.1798,569.9319 1828.1798,591.5619 " fill="none" id="MENU_PERFIL-to-VER_INSIGNIAS" style="stroke:#F08080;stroke-width:1.0;"/><polygon fill="#F08080" points="1825.46,596.91,1833.1051,590.701,1827.7265,592.4532,1825.9743,587.0746,1825.46,596.91" style="stroke:#F08080;stroke-width:1.0;"/><text fill="#000000" font-family="sans-serif" font-size="13" lengthAdjust="spacing" textLength="74.4263" x="1851" y="563.0283">Ver insignias</text></g><!--link MENU_PERFIL to INSCRIBIR_CLASE--><g id="link_MENU_PERFIL_INSCRIBIR_CLASE"><path d="M1902.96,518.14 C1935.43,539.78 1983.6779,571.9514 2016.1179,593.5814 " fill="none" id="MENU_PERFIL-to-INSCRIBIR_CLASE" style="stroke:#F08080;stroke-width:1.0;"/><polygon fill="#F08080" points="2021.11,596.91,2015.8409,588.5891,2016.9499,594.1362,2011.4029,595.2452,2021.11,596.91" style="stroke:#F08080;stroke-width:1.0;"/><text fill="#000000" font-family="sans-serif" font-size="13" lengthAdjust="spacing" textLength="97.5381" x="1974" y="563.0283">Inscribir en clase</text></g><!--link MENU_PERFIL to MOSTRAR_QR--><g id="link_MENU_PERFIL_MOSTRAR_QR"><path d="M1815.96,512.2 C1749.38,526.53 1650.24,547.88 1650,548 C1624.94,560.12 1605.1595,577.1942 1589.6695,592.6342 " fill="none" id="MENU_PERFIL-to-MOSTRAR_QR" style="stroke:#F08080;stroke-width:1.0;"/><polygon fill="#F08080" points="1585.42,596.87,1594.6181,593.3493,1588.9612,593.3402,1588.9704,587.6833,1585.42,596.87" style="stroke:#F08080;stroke-width:1.0;"/><text fill="#000000" font-family="sans-serif" font-size="13" lengthAdjust="spacing" textLength="182.0762" x="1651" y="563.0283">Mostrar QR en centro deportivo</text></g><!--link MENU_PERFIL to ALUMNO--><g id="link_MENU_PERFIL_ALUMNO"><path d="M1911.65,478.98 C1922.84,471.33 1933.81,461.33 1940,449 C1943.79,441.45 1942.51,438.06 1940,430 C1904.45,315.74 1809.4985,211.0566 1767.4485,168.5266 " fill="none" id="MENU_PERFIL-to-ALUMNO" style="stroke:#9ACD32;stroke-width:1.0;"/><polygon fill="#9ACD32" points="1763.23,164.26,1766.7133,173.4723,1766.7454,167.8155,1772.4022,167.8476,1763.23,164.26" style="stroke:#9ACD32;stroke-width:1.0;"/><text fill="#000000" font-family="sans-serif" font-size="13" lengthAdjust="spacing" textLength="78.0254" x="1894" y="327.0283">Cerrar sesi&#243;n</text></g><!--link VER_INSIGNIAS to NAVEGACION_MENUS--><g id="link_VER_INSIGNIAS_NAVEGACION_MENUS"><path d="M1752.4,607.82 C1700.77,600.25 1633.59,586.9 1615,567 C1587.91,538.01 1626.4,508.62 1600,479 C1556.16,429.81 1380.5419,402.9552 1270.3519,390.4752 " fill="none" id="VER_INSIGNIAS-to-NAVEGACION_MENUS" style="stroke:#87CEEB;stroke-width:1.0;"/><polygon fill="#87CEEB" points="1264.39,389.8,1272.8827,394.7874,1269.3582,390.3627,1273.783,386.8383,1264.39,389.8" style="stroke:#87CEEB;stroke-width:1.0;"/><text fill="#000000" font-family="sans-serif" font-size="13" lengthAdjust="spacing" textLength="85.2554" x="1611" y="504.0283">Cambiar men&#250;</text></g><!--link INSCRIBIR_CLASE to NAVEGACION_MENUS--><g id="link_INSCRIBIR_CLASE_NAVEGACION_MENUS"><path d="M2066.79,596.86 C2077.48,583.29 2087.67,564.49 2080,548 C2045.69,474.21 2015.51,460.33 1940,430 C1878.65,405.36 1456.1472,389.8546 1269.9972,384.1246 " fill="none" id="INSCRIBIR_CLASE-to-NAVEGACION_MENUS" style="stroke:#87CEEB;stroke-width:1.0;"/><polygon fill="#87CEEB" points="1264,383.94,1272.8727,388.215,1268.9976,384.0938,1273.1188,380.2188,1264,383.94" style="stroke:#87CEEB;stroke-width:1.0;"/><text fill="#000000" font-family="sans-serif" font-size="13" lengthAdjust="spacing" textLength="85.2554" x="2066" y="504.0283">Cambiar men&#250;</text></g><!--link MOSTRAR_QR to NAVEGACION_MENUS--><g id="link_MOSTRAR_QR_NAVEGACION_MENUS"><path d="M1557.84,596.55 C1541.76,567.99 1508.01,513.6 1467,479 C1409.32,430.35 1332.1955,406.8163 1269.9255,394.4763 " fill="none" id="MOSTRAR_QR-to-NAVEGACION_MENUS" style="stroke:#87CEEB;stroke-width:1.0;"/><polygon fill="#87CEEB" points="1264.04,393.31,1272.0908,398.9832,1268.9446,394.2819,1273.6459,391.1358,1264.04,393.31" style="stroke:#87CEEB;stroke-width:1.0;"/><text fill="#000000" font-family="sans-serif" font-size="13" lengthAdjust="spacing" textLength="85.2554" x="1506" y="504.0283">Cambiar men&#250;</text></g><rect fill="#DDDDDD" height="140.3477" id="_legend" rx="7.5" ry="7.5" style="stroke:#000000;stroke-width:1.0;" width="604.5557" x="1528.6997" y="652.6211"/><text fill="#000000" font-family="sans-serif" font-size="14" lengthAdjust="spacing" textLength="57.6064" x="1533.6997" y="672.7285">Leyenda:</text><text fill="#000000" font-family="sans-serif" font-size="14" lengthAdjust="spacing" textLength="555.584" x="1533.6997" y="691.3496">- Color verde claro (#PaleGreen): Men&#250;s y acciones relacionadas con rutinas y ejercicios.</text><text fill="#000000" font-family="sans-serif" font-size="14" lengthAdjust="spacing" textLength="492.5635" x="1533.6997" y="709.9707">- Color salm&#243;n claro (#LightSalmon): Men&#250;s y acciones relacionadas con retos.</text><text fill="#000000" font-family="sans-serif" font-size="14" lengthAdjust="spacing" textLength="452.8877" x="1533.6997" y="728.5918">- Color dorado (#Gold): Men&#250;s y acciones relacionadas con clasificaci&#243;n.</text><text fill="#000000" font-family="sans-serif" font-size="14" lengthAdjust="spacing" textLength="462.9844" x="1533.6997" y="747.2129">- Color coral claro (#LightCoral): Men&#250;s y acciones relacionadas con perfil.</text><text fill="#000000" font-family="sans-serif" font-size="14" lengthAdjust="spacing" textLength="594.5557" x="1533.6997" y="765.834">- Color azul claro (#LightBlue): Navegaci&#243;n general entre men&#250;s o regreso a la p&#225;gina principal.</text><text fill="#000000" font-family="sans-serif" font-size="14" lengthAdjust="spacing" textLength="577.3701" x="1533.6997" y="784.4551">- Color amarillo verde (#YellowGreen): Acciones relacionadas con el inicio y cierre de sesi&#243;n.</text><!--SRC=[fLRDRkD63BxhALZieGdWx0Cia09QPTQOGfRTaHqqA0fZLcBSQMKf62dffg_HMszzXjvwzOkLC_gNhApjtlH3VaD-v4VEDp4-gXH1C6_j1dEVNNsPGPGbcRu6ZL4Xqrs2y0NUsM-EyotStjw2wwsNWeNm0Cnd2nQibo6i10yyld9z-ausJeku2JUkuCiPF62IPB_FDM9wtVdl-fj5CFrxvSvvu6uR_1duQlTByJ5vngvPuDwpkUlnPR2bY3RX3CBVNakZAchwVFXh69ontOhDceu8j-nx9ZnE6EIzaWcEOYcjsTeOs2X2cUopiOddko7_n3qRpmpcMHAFR5PCVE9rDbwcPNBTyclyHaJUCx7bGSZd0NSfW8NAYrUHvJqQwByd-4SkR0nimcgn3DV25TiVn8I19nZzBdcPu8BTyVNNREfpJZ9gs9-m2pScBNRFxnXrWclhC5a6mrNPM67DH5c5YcB1VBSYUTYvLR_2pK_lEYtvyyrtK09-09wgI4aDEURgy4_gbD-FE0nx5uplJcDEpZA1dAZ7lNH6PeHKTQz16ROseGJo1NS4yfHfs6Dw-3Ul4sFXshrR0W_MJ2oeHXHkxN_uCm0Igs1TAOp0wUo6VdFwX49CAfG4wET2fJA7Ly1VKKT4J9OV1UqKgeKrKcgGi9XmDPLhV7hQgdsZHERgKKKoiWMPFD_gh84g9LXZFA5-LCcqRrsE8qKLs1PLcUR8UaC7AlhCm6m9DEnFaJiiGbUFT9wdaGuhgJyPeoTO0c6nAiv7wKkQO1PPNkZBSHgJ3XIhEydfvVrLLNXo_zdeqYh2wUTxflCWpGkzs-JE1EXtZrL9soxsTQoeO_EHWCFdpqe3lgWOKvfQ4ADLcdFK_F-4MQcfYRDw7qcljyO8yXurYIPNkrJ9_6tNmNQpupIFjB8PfdOAuDi8xURhz1kz66zC2vqHFpHK2_MI3O6EBWD32MhTMGRzzCuaT9ZWXNr72LrMIOysue_bMYmtHNCLUQYNnd1T3bXwuz1HjEDnVW508uUp7OyEgJDGAivyzi22EzUIaU0EqnYqwJd7nrTwaH-S6_3CzHbUK9Fwg4kfpQxQSNXDdMXtE2rH6T7OIp4dZIRIFCgObckKfKSNxVi6EgSnGDtNW7UlHQV1c-tRuiKacDW0sLlJIGZz7Tn2HKPx_S3Aw-v9gELMRj7a7yy3C7l9hwz4zcoW8g0vr2WQgmiIP0HkrdH6kpwXTN_uUqU4mfDMD1UVPFUClTIAn5uLxAehVJh9dGmMw_LFAKMAvWAQSLjDXlUEQOsoGvp_0000]--></g></svg>