<svg xmlns="http://www.w3.org/2000/svg" xmlns:xlink="http://www.w3.org/1999/xlink" contentStyleType="text/css" height="759px" preserveAspectRatio="none" style="width:2180px;height:759px;background:#FFFFFF;" version="1.1" viewBox="0 0 2180 759" width="2180px" zoomAndPan="magnify"><defs/><g><!--entity ALUMNO--><g id="elem_ALUMNO"><rect fill="#9ACD32" height="38.6211" rx="2.5" ry="2.5" style="stroke:#181818;stroke-width:0.5;" width="79.8965" x="7" y="7"/><text fill="#000000" font-family="sans-serif" font-size="14" lengthAdjust="spacing" textLength="59.8965" x="17" y="32.1074">ALUMNO</text></g><!--entity PAGINA_PRINCIPAL--><g id="elem_PAGINA_PRINCIPAL"><rect fill="#ADD8E6" height="38.6211" rx="2.5" ry="2.5" style="stroke:#181818;stroke-width:0.5;" width="154.5996" x="1062.5" y="125"/><text fill="#000000" font-family="sans-serif" font-size="14" lengthAdjust="spacing" textLength="134.5996" x="1072.5" y="150.1074">PAGINA_PRINCIPAL</text></g><!--entity MENU_RUTINAS_EJERCICIOS--><g id="elem_MENU_RUTINAS_EJERCICIOS"><rect fill="#98FB98" height="38.6211" rx="2.5" ry="2.5" style="stroke:#181818;stroke-width:0.5;" width="222.2549" x="845" y="243"/><text fill="#000000" font-family="sans-serif" font-size="14" lengthAdjust="spacing" textLength="202.2549" x="855" y="268.1074">MENU_RUTINAS_EJERCICIOS</text></g><!--entity MENU_RETOS--><g id="elem_MENU_RETOS"><rect fill="#FFA07A" height="38.6211" rx="2.5" ry="2.5" style="stroke:#181818;stroke-width:0.5;" width="117.2344" x="1175.5" y="361"/><text fill="#000000" font-family="sans-serif" font-size="14" lengthAdjust="spacing" textLength="97.2344" x="1185.5" y="386.1074">MENU_RETOS</text></g><!--entity MENU_CLASIFICACION--><g id="elem_MENU_CLASIFICACION"><rect fill="#FFD700" height="38.6211" rx="2.5" ry="2.5" style="stroke:#181818;stroke-width:0.5;" width="176.3584" x="1462" y="597"/><text fill="#000000" font-family="sans-serif" font-size="14" lengthAdjust="spacing" textLength="156.3584" x="1472" y="622.1074">MENU_CLASIFICACION</text></g><!--entity MENU_PERFIL--><g id="elem_MENU_PERFIL"><rect fill="#F08080" height="38.6211" rx="2.5" ry="2.5" style="stroke:#181818;stroke-width:0.5;" width="118.0205" x="591" y="479"/><text fill="#000000" font-family="sans-serif" font-size="14" lengthAdjust="spacing" textLength="98.0205" x="601" y="504.1074">MENU_PERFIL</text></g><!--entity VER_INSIGNIAS--><g id="elem_VER_INSIGNIAS"><rect fill="#FFE4E1" height="38.6211" rx="2.5" ry="2.5" style="stroke:#181818;stroke-width:0.5;" width="127.3652" x="783.5" y="597"/><text fill="#000000" font-family="sans-serif" font-size="14" lengthAdjust="spacing" textLength="107.3652" x="793.5" y="622.1074">VER_INSIGNIAS</text></g><!--entity INSCRIBIR_CLASE--><g id="elem_INSCRIBIR_CLASE"><rect fill="#FFE4E1" height="38.6211" rx="2.5" ry="2.5" style="stroke:#181818;stroke-width:0.5;" width="144.4824" x="516" y="597"/><text fill="#000000" font-family="sans-serif" font-size="14" lengthAdjust="spacing" textLength="124.4824" x="526" y="622.1074">INSCRIBIR_CLASE</text></g><!--entity MOSTRAR_QR--><g id="elem_MOSTRAR_QR"><rect fill="#FFE4E1" height="38.6211" rx="2.5" ry="2.5" style="stroke:#181818;stroke-width:0.5;" width="118.7861" x="271.5" y="597"/><text fill="#000000" font-family="sans-serif" font-size="14" lengthAdjust="spacing" textLength="98.7861" x="281.5" y="622.1074">MOSTRAR_QR</text></g><!--entity CREAR_RUTINA--><g id="elem_CREAR_RUTINA"><rect fill="#98FB98" height="38.6211" rx="2.5" ry="2.5" style="stroke:#181818;stroke-width:0.5;" width="128.9033" x="419.5" y="361"/><text fill="#000000" font-family="sans-serif" font-size="14" lengthAdjust="spacing" textLength="108.9033" x="429.5" y="386.1074">CREAR_RUTINA</text></g><!--entity EDITAR_RUTINA--><g id="elem_EDITAR_RUTINA"><rect fill="#98FB98" height="38.6211" rx="2.5" ry="2.5" style="stroke:#181818;stroke-width:0.5;" width="131.2344" x="987.5" y="361"/><text fill="#000000" font-family="sans-serif" font-size="14" lengthAdjust="spacing" textLength="111.2344" x="997.5" y="386.1074">EDITAR_RUTINA</text></g><!--entity SUBIR_EVIDENCIA_RETO--><g id="elem_SUBIR_EVIDENCIA_RETO"><rect fill="#FFA07A" height="38.6211" rx="2.5" ry="2.5" style="stroke:#181818;stroke-width:0.5;" width="192.71" x="1297.5" y="479"/><text fill="#000000" font-family="sans-serif" font-size="14" lengthAdjust="spacing" textLength="172.71" x="1307.5" y="504.1074">SUBIR_EVIDENCIA_RETO</text></g><!--entity VER_ALUMNOS_CLASE--><g id="elem_VER_ALUMNOS_CLASE"><rect fill="#FFD700" height="38.6211" rx="2.5" ry="2.5" style="stroke:#181818;stroke-width:0.5;" width="179.5029" x="1460" y="715"/><text fill="#000000" font-family="sans-serif" font-size="14" lengthAdjust="spacing" textLength="159.5029" x="1470" y="740.1074">VER_ALUMNOS_CLASE</text></g><!--link ALUMNO to PAGINA_PRINCIPAL--><g id="link_ALUMNO_PAGINA_PRINCIPAL"><path d="M87.2,31.77 C248.09,48.84 841.3435,111.8069 1056.4935,134.6369 " fill="none" id="ALUMNO-to-PAGINA_PRINCIPAL" style="stroke:#000000;stroke-width:1.0;"/><polygon fill="#000000" points="1062.46,135.27,1053.9323,130.3427,1057.4879,134.7424,1053.0882,138.298,1062.46,135.27" style="stroke:#000000;stroke-width:1.0;"/><text fill="#000000" font-family="sans-serif" font-size="13" lengthAdjust="spacing" textLength="109.8208" x="660" y="91.0283">Ingresar al sistema</text></g><!--link PAGINA_PRINCIPAL to MENU_RUTINAS_EJERCICIOS--><g id="link_PAGINA_PRINCIPAL_MENU_RUTINAS_EJERCICIOS"><path d="M1133.57,164.03 C1127.41,179.19 1116.72,200.16 1101,213 C1084.86,226.18 1070.6427,233.8283 1050.8327,240.8783 " fill="none" id="PAGINA_PRINCIPAL-to-MENU_RUTINAS_EJERCICIOS" style="stroke:#008000;stroke-width:1.0;"/><polygon fill="#008000" points="1045.18,242.89,1055.0002,243.6409,1049.8906,241.2136,1052.3179,236.104,1045.18,242.89" style="stroke:#008000;stroke-width:1.0;"/><text fill="#000000" font-family="sans-serif" font-size="13" lengthAdjust="spacing" textLength="137.9854" x="1119" y="209.0283">Usar rutinas y ejercicios</text></g><!--link MENU_RUTINAS_EJERCICIOS to PAGINA_PRINCIPAL--><g id="link_MENU_RUTINAS_EJERCICIOS_PAGINA_PRINCIPAL"><path d="M947.6,242.94 C942.31,228.17 938.29,207.76 949,194 C963.23,175.7 1009.9915,164.1754 1056.4215,156.4454 " fill="none" id="MENU_RUTINAS_EJERCICIOS-to-PAGINA_PRINCIPAL" style="stroke:#008000;stroke-width:1.0;"/><polygon fill="#008000" points="1062.34,155.46,1052.8053,152.9924,1057.4079,156.2811,1054.1191,160.8837,1062.34,155.46" style="stroke:#008000;stroke-width:1.0;"/><text fill="#000000" font-family="sans-serif" font-size="13" lengthAdjust="spacing" textLength="142.3652" x="950" y="209.0283">Volver a p&#225;gina principal</text></g><!--link PAGINA_PRINCIPAL to MENU_RETOS--><g id="link_PAGINA_PRINCIPAL_MENU_RETOS"><path d="M1217.86,145.46 C1303.26,149.46 1439.77,168.3 1527,243 C1553.92,266.06 1557.8,277.77 1567,312 C1569.19,320.15 1572.52,324.61 1567,331 C1532.22,371.21 1384.5796,378.6895 1298.6696,379.6995 " fill="none" id="PAGINA_PRINCIPAL-to-MENU_RETOS" style="stroke:#FFA500;stroke-width:1.0;"/><polygon fill="#FFA500" points="1292.67,379.77,1301.7164,383.6639,1297.6697,379.7112,1301.6224,375.6645,1292.67,379.77" style="stroke:#FFA500;stroke-width:1.0;"/><text fill="#000000" font-family="sans-serif" font-size="13" lengthAdjust="spacing" textLength="184.9834" x="1559" y="268.0283">Participar en retos o actividades</text></g><!--link MENU_RETOS to PAGINA_PRINCIPAL--><g id="link_MENU_RETOS_PAGINA_PRINCIPAL"><path d="M1292.7,379.44 C1359.18,376.91 1454.67,364.41 1425,312 C1412.23,289.45 1396.28,296.79 1375,282 C1323.6,246.26 1319.26,225.24 1265,194 C1244.32,182.09 1225.7936,174.0145 1204.2636,166.1245 " fill="none" id="MENU_RETOS-to-PAGINA_PRINCIPAL" style="stroke:#FFA500;stroke-width:1.0;"/><polygon fill="#FFA500" points="1198.63,164.06,1205.7041,170.9125,1203.3247,165.7804,1208.4568,163.401,1198.63,164.06" style="stroke:#FFA500;stroke-width:1.0;"/><text fill="#000000" font-family="sans-serif" font-size="13" lengthAdjust="spacing" textLength="142.3652" x="1376" y="268.0283">Volver a p&#225;gina principal</text></g><!--link PAGINA_PRINCIPAL to MENU_CLASIFICACION--><g id="link_PAGINA_PRINCIPAL_MENU_CLASIFICACION"><path d="M1217.68,147.38 C1436.48,153.71 2042,178.71 2042,261.5 C2042,261.5 2042,261.5 2042,499.5 C2042,581.5 1785.8226,605.3025 1644.2326,612.3325 " fill="none" id="PAGINA_PRINCIPAL-to-MENU_CLASIFICACION" style="stroke:#DAA520;stroke-width:1.0;"/><polygon fill="#DAA520" points="1638.24,612.63,1647.4273,616.1788,1643.2338,612.3821,1647.0306,608.1886,1638.24,612.63" style="stroke:#DAA520;stroke-width:1.0;"/><text fill="#000000" font-family="sans-serif" font-size="13" lengthAdjust="spacing" textLength="129.3335" x="2043" y="386.0283">Consultar clasificaci&#243;n</text></g><!--link MENU_CLASIFICACION to PAGINA_PRINCIPAL--><g id="link_MENU_CLASIFICACION_PAGINA_PRINCIPAL"><path d="M1638.34,614.07 C1719.75,607.49 1828,583.04 1828,499.5 C1828,261.5 1828,261.5 1828,261.5 C1828,200.18 1403.495,163.7138 1223.565,150.9738 " fill="none" id="MENU_CLASIFICACION-to-PAGINA_PRINCIPAL" style="stroke:#DAA520;stroke-width:1.0;"/><polygon fill="#DAA520" points="1217.58,150.55,1226.275,155.1757,1222.5675,150.9031,1226.84,147.1956,1217.58,150.55" style="stroke:#DAA520;stroke-width:1.0;"/><text fill="#000000" font-family="sans-serif" font-size="13" lengthAdjust="spacing" textLength="142.3652" x="1829" y="386.0283">Volver a p&#225;gina principal</text></g><!--link PAGINA_PRINCIPAL to MENU_PERFIL--><g id="link_PAGINA_PRINCIPAL_MENU_PERFIL"><path d="M1062.44,149.96 C882.21,162.11 443.68,202.53 355,312 C281.78,402.37 479.0577,460.3067 584.7577,484.2067 " fill="none" id="PAGINA_PRINCIPAL-to-MENU_PERFIL" style="stroke:#FF0000;stroke-width:1.0;"/><polygon fill="#FF0000" points="590.61,485.53,582.7138,479.6436,585.7331,484.4273,580.9494,487.4466,590.61,485.53" style="stroke:#FF0000;stroke-width:1.0;"/><text fill="#000000" font-family="sans-serif" font-size="13" lengthAdjust="spacing" textLength="75.8545" x="356" y="327.0283">Revisar perfil</text></g><!--link MENU_PERFIL to PAGINA_PRINCIPAL--><g id="link_MENU_PERFIL_PAGINA_PRINCIPAL"><path d="M590.95,495.5 C445.87,488.34 90.89,456.03 192,312 C291.73,169.93 847.9206,148.8844 1056.2906,145.9544 " fill="none" id="MENU_PERFIL-to-PAGINA_PRINCIPAL" style="stroke:#FF0000;stroke-width:1.0;"/><polygon fill="#FF0000" points="1062.29,145.87,1053.2346,141.9969,1057.2905,145.9403,1053.3471,149.9961,1062.29,145.87" style="stroke:#FF0000;stroke-width:1.0;"/><text fill="#000000" font-family="sans-serif" font-size="13" lengthAdjust="spacing" textLength="142.3652" x="193" y="327.0283">Volver a p&#225;gina principal</text></g><!--link MENU_RUTINAS_EJERCICIOS to CREAR_RUTINA--><g id="link_MENU_RUTINAS_EJERCICIOS_CREAR_RUTINA"><path d="M844.85,275.82 C795.87,283.23 738.17,294.68 688,312 C670.9,317.9 668.78,324.23 652,331 C618.78,344.4 586.2917,354.2202 554.6617,362.5602 " fill="none" id="MENU_RUTINAS_EJERCICIOS-to-CREAR_RUTINA" style="stroke:#006400;stroke-width:1.0;"/><polygon fill="#006400" points="548.86,364.09,558.5824,365.6632,553.6948,362.8152,556.5427,357.9276,548.86,364.09" style="stroke:#006400;stroke-width:1.0;"/><text fill="#000000" font-family="sans-serif" font-size="13" lengthAdjust="spacing" textLength="68.6372" x="689" y="327.0283">Crear rutina</text></g><!--link CREAR_RUTINA to MENU_RUTINAS_EJERCICIOS--><g id="link_CREAR_RUTINA_MENU_RUTINAS_EJERCICIOS"><path d="M461.22,360.92 C446.26,346.52 431.7,326.62 445,312 C471.36,283.01 696.6933,271.1582 838.9133,266.4582 " fill="none" id="CREAR_RUTINA-to-MENU_RUTINAS_EJERCICIOS" style="stroke:#006400;stroke-width:1.0;"/><polygon fill="#006400" points="844.91,266.26,835.7828,262.5594,839.9127,266.4251,836.047,270.5551,844.91,266.26" style="stroke:#006400;stroke-width:1.0;"/><text fill="#000000" font-family="sans-serif" font-size="13" lengthAdjust="spacing" textLength="197.2471" x="446" y="327.0283">Volver al men&#250; rutinas y ejercicios</text></g><!--link MENU_RUTINAS_EJERCICIOS to EDITAR_RUTINA--><g id="link_MENU_RUTINAS_EJERCICIOS_EDITAR_RUTINA"><path d="M1045.83,282.01 C1060.48,289.02 1073.83,298.68 1083,312 C1093.47,327.21 1086.4507,342.011 1075.0007,356.121 " fill="none" id="MENU_RUTINAS_EJERCICIOS-to-EDITAR_RUTINA" style="stroke:#006400;stroke-width:1.0;"/><polygon fill="#006400" points="1071.22,360.78,1079.997,356.312,1074.3706,356.8975,1073.785,351.271,1071.22,360.78" style="stroke:#006400;stroke-width:1.0;"/><text fill="#000000" font-family="sans-serif" font-size="13" lengthAdjust="spacing" textLength="70.0908" x="1089" y="327.0283">Editar rutina</text></g><!--link EDITAR_RUTINA to MENU_RUTINAS_EJERCICIOS--><g id="link_EDITAR_RUTINA_MENU_RUTINAS_EJERCICIOS"><path d="M987.12,369.91 C942.68,361.94 889.72,348.99 876,331 C861.4,311.86 877.9791,297.1446 902.5491,284.7946 " fill="none" id="EDITAR_RUTINA-to-MENU_RUTINAS_EJERCICIOS" style="stroke:#006400;stroke-width:1.0;"/><polygon fill="#006400" points="907.91,282.1,898.0723,282.568,903.4426,284.3455,901.6651,289.7159,907.91,282.1" style="stroke:#006400;stroke-width:1.0;"/><text fill="#000000" font-family="sans-serif" font-size="13" lengthAdjust="spacing" textLength="197.2471" x="877" y="327.0283">Volver al men&#250; rutinas y ejercicios</text></g><!--link MENU_RUTINAS_EJERCICIOS to MENU_RETOS--><g id="link_MENU_RUTINAS_EJERCICIOS_MENU_RETOS"><path d="M1067.14,276.57 C1101.01,283.74 1137.37,294.83 1168,312 C1189.59,324.1 1204.9842,340.6755 1217.0042,356.1155 " fill="none" id="MENU_RUTINAS_EJERCICIOS-to-MENU_RETOS" style="stroke:#FFA500;stroke-width:1.0;"/><polygon fill="#FFA500" points="1220.69,360.85,1218.3177,351.2911,1217.6185,356.9046,1212.005,356.2055,1220.69,360.85" style="stroke:#FFA500;stroke-width:1.0;"/><text fill="#000000" font-family="sans-serif" font-size="13" lengthAdjust="spacing" textLength="103.3271" x="1194" y="327.0283">Cambiar de men&#250;</text></g><!--link MENU_RETOS to MENU_RUTINAS_EJERCICIOS--><g id="link_MENU_RETOS_MENU_RUTINAS_EJERCICIOS"><path d="M1275.95,360.92 C1299.55,347.92 1321.47,329.77 1306,312 C1275.38,276.84 1163.7273,266.5215 1073.1973,263.7815 " fill="none" id="MENU_RETOS-to-MENU_RUTINAS_EJERCICIOS" style="stroke:#008000;stroke-width:1.0;"/><polygon fill="#008000" points="1067.2,263.6,1076.0749,267.8704,1072.1977,263.7513,1076.3169,259.8741,1067.2,263.6" style="stroke:#008000;stroke-width:1.0;"/><text fill="#000000" font-family="sans-serif" font-size="13" lengthAdjust="spacing" textLength="103.3271" x="1313" y="327.0283">Cambiar de men&#250;</text></g><!--link MENU_RUTINAS_EJERCICIOS to MENU_CLASIFICACION--><g id="link_MENU_RUTINAS_EJERCICIOS_MENU_CLASIFICACION"><path d="M1067.01,269.78 C1196.13,277.9 1395.46,293.23 1425,312 C1526.48,376.49 1545.2047,534.8624 1548.7947,590.6524 " fill="none" id="MENU_RUTINAS_EJERCICIOS-to-MENU_CLASIFICACION" style="stroke:#DAA520;stroke-width:1.0;"/><polygon fill="#DAA520" points="1549.18,596.64,1552.5938,587.4017,1548.8589,591.6503,1544.6103,587.9154,1549.18,596.64" style="stroke:#DAA520;stroke-width:1.0;"/><text fill="#000000" font-family="sans-serif" font-size="13" lengthAdjust="spacing" textLength="103.3271" x="1522" y="445.0283">Cambiar de men&#250;</text></g><!--link MENU_RUTINAS_EJERCICIOS to MENU_PERFIL--><g id="link_MENU_RUTINAS_EJERCICIOS_MENU_PERFIL"><path d="M915.89,282.1 C899.32,290.43 880.23,300.87 864,312 C814.89,345.66 807.98,361 763,400 C731.29,427.5 699.0074,455.3257 676.2374,474.9257 " fill="none" id="MENU_RUTINAS_EJERCICIOS-to-MENU_PERFIL" style="stroke:#FF0000;stroke-width:1.0;"/><polygon fill="#FF0000" points="671.69,478.84,681.1205,476.0002,675.4795,475.5781,675.9015,469.937,671.69,478.84" style="stroke:#FF0000;stroke-width:1.0;"/><text fill="#000000" font-family="sans-serif" font-size="13" lengthAdjust="spacing" textLength="103.3271" x="805" y="386.0283">Cambiar de men&#250;</text></g><!--link MENU_PERFIL to MENU_RUTINAS_EJERCICIOS--><g id="link_MENU_PERFIL_MENU_RUTINAS_EJERCICIOS"><path d="M643.56,478.92 C634.94,450.37 623.6,395.4 650,361 C681.37,320.12 712.74,346.14 762,331 C811.25,315.86 861.0809,298.3495 900.0409,284.1895 " fill="none" id="MENU_PERFIL-to-MENU_RUTINAS_EJERCICIOS" style="stroke:#008000;stroke-width:1.0;"/><polygon fill="#008000" points="905.68,282.14,895.855,281.4549,900.9808,283.8479,898.5877,288.9737,905.68,282.14" style="stroke:#008000;stroke-width:1.0;"/><text fill="#000000" font-family="sans-serif" font-size="13" lengthAdjust="spacing" textLength="103.3271" x="651" y="386.0283">Cambiar de men&#250;</text></g><!--link MENU_RETOS to SUBIR_EVIDENCIA_RETO--><g id="link_MENU_RETOS_SUBIR_EVIDENCIA_RETO"><path d="M1219.23,400.27 C1209.73,414.78 1201.04,434.73 1212,449 C1223.21,463.59 1253.8395,473.4803 1291.2495,481.3803 " fill="none" id="MENU_RETOS-to-SUBIR_EVIDENCIA_RETO" style="stroke:#FF8C00;stroke-width:1.0;"/><polygon fill="#FF8C00" points="1297.12,482.62,1289.1407,476.8468,1292.2279,481.5869,1287.4877,484.6741,1297.12,482.62" style="stroke:#FF8C00;stroke-width:1.0;"/><text fill="#000000" font-family="sans-serif" font-size="13" lengthAdjust="spacing" textLength="132.9707" x="1213" y="445.0283">Subir evidencia de reto</text></g><!--link SUBIR_EVIDENCIA_RETO to MENU_RETOS--><g id="link_SUBIR_EVIDENCIA_RETO_MENU_RETOS"><path d="M1385.76,478.97 C1378.29,464.02 1366.01,443.34 1350,430 C1333.4,416.17 1317.8918,407.9295 1298.2418,400.3895 " fill="none" id="SUBIR_EVIDENCIA_RETO-to-MENU_RETOS" style="stroke:#FF8C00;stroke-width:1.0;"/><polygon fill="#FF8C00" points="1292.64,398.24,1299.6097,405.1987,1297.3081,400.0312,1302.4756,397.7297,1292.64,398.24" style="stroke:#FF8C00;stroke-width:1.0;"/><text fill="#000000" font-family="sans-serif" font-size="13" lengthAdjust="spacing" textLength="119.2217" x="1368" y="445.0283">Volver al men&#250; retos</text></g><!--link MENU_RETOS to MENU_PERFIL--><g id="link_MENU_RETOS_MENU_PERFIL"><path d="M1175.49,393.39 C1123.95,404.19 1053.01,419.92 1026,430 C1009.05,436.33 1007.21,443.42 990,449 C894.72,479.91 784.0596,490.7873 715.1196,494.8473 " fill="none" id="MENU_RETOS-to-MENU_PERFIL" style="stroke:#FF0000;stroke-width:1.0;"/><polygon fill="#FF0000" points="709.13,495.2,718.3496,498.664,714.1214,494.9061,717.8793,490.6778,709.13,495.2" style="stroke:#FF0000;stroke-width:1.0;"/><text fill="#000000" font-family="sans-serif" font-size="13" lengthAdjust="spacing" textLength="103.3271" x="1027" y="445.0283">Cambiar de men&#250;</text></g><!--link MENU_PERFIL to MENU_RETOS--><g id="link_MENU_PERFIL_MENU_RETOS"><path d="M709.01,487.49 C748.44,479.68 800.95,467.09 845,449 C860.3,442.71 861.33,435.29 877,430 C986.79,392.94 1021.44,417.43 1136,400 C1148.75,398.06 1156.4801,396.7714 1169.4001,394.3814 " fill="none" id="MENU_PERFIL-to-MENU_RETOS" style="stroke:#FFA500;stroke-width:1.0;"/><polygon fill="#FFA500" points="1175.3,393.29,1165.7226,390.9938,1170.3834,394.1995,1167.1777,398.8604,1175.3,393.29" style="stroke:#FFA500;stroke-width:1.0;"/><text fill="#000000" font-family="sans-serif" font-size="13" lengthAdjust="spacing" textLength="103.3271" x="878" y="445.0283">Cambiar de men&#250;</text></g><!--link MENU_RETOS to MENU_CLASIFICACION--><g id="link_MENU_RETOS_MENU_CLASIFICACION"><path d="M1214.41,400.26 C1187.75,428.1 1146.42,481.03 1175,518 C1209.82,563.03 1356.5675,590.3115 1456.0575,604.1815 " fill="none" id="MENU_RETOS-to-MENU_CLASIFICACION" style="stroke:#DAA520;stroke-width:1.0;"/><polygon fill="#DAA520" points="1462,605.01,1453.6385,599.8056,1457.0479,604.3196,1452.5339,607.729,1462,605.01" style="stroke:#DAA520;stroke-width:1.0;"/><text fill="#000000" font-family="sans-serif" font-size="13" lengthAdjust="spacing" textLength="103.3271" x="1176" y="504.0283">Cambiar de men&#250;</text></g><!--link MENU_CLASIFICACION to VER_ALUMNOS_CLASE--><g id="link_MENU_CLASIFICACION_VER_ALUMNOS_CLASE"><path d="M1491.21,636.05 C1477.67,643.2 1464.93,652.92 1457,666 C1444.23,687.07 1459.9459,701.0636 1485.3059,712.4436 " fill="none" id="MENU_CLASIFICACION-to-VER_ALUMNOS_CLASE" style="stroke:#DAA520;stroke-width:1.0;"/><polygon fill="#DAA520" points="1490.78,714.9,1484.2065,707.5659,1486.2182,712.853,1480.9312,714.8647,1490.78,714.9" style="stroke:#DAA520;stroke-width:1.0;"/><text fill="#000000" font-family="sans-serif" font-size="13" lengthAdjust="spacing" textLength="138.7407" x="1458" y="681.0283">Ver alumnos de la clase</text></g><!--link VER_ALUMNOS_CLASE to MENU_CLASIFICACION--><g id="link_VER_ALUMNOS_CLASE_MENU_CLASIFICACION"><path d="M1577.29,714.86 C1586.63,706.87 1595.99,696.68 1601,685 C1608.82,666.78 1598.8539,652.7993 1583.2939,640.0693 " fill="none" id="VER_ALUMNOS_CLASE-to-MENU_CLASIFICACION" style="stroke:#DAA520;stroke-width:1.0;"/><polygon fill="#DAA520" points="1578.65,636.27,1583.083,645.0648,1582.5199,639.4361,1588.1487,638.873,1578.65,636.27" style="stroke:#DAA520;stroke-width:1.0;"/><text fill="#000000" font-family="sans-serif" font-size="13" lengthAdjust="spacing" textLength="160.4053" x="1604" y="681.0283">Volver al men&#250; clasificaci&#243;n</text></g><!--link MENU_PERFIL to VER_INSIGNIAS--><g id="link_MENU_PERFIL_VER_INSIGNIAS"><path d="M681.65,518.14 C718.41,539.78 773.5299,572.2354 810.2599,593.8654 " fill="none" id="MENU_PERFIL-to-VER_INSIGNIAS" style="stroke:#8B0000;stroke-width:1.0;"/><polygon fill="#8B0000" points="815.43,596.91,809.7046,588.8963,811.1216,594.3728,805.6451,595.7898,815.43,596.91" style="stroke:#8B0000;stroke-width:1.0;"/><text fill="#000000" font-family="sans-serif" font-size="13" lengthAdjust="spacing" textLength="74.4263" x="762" y="563.0283">Ver insignias</text></g><!--link VER_INSIGNIAS to MENU_PERFIL--><g id="link_VER_INSIGNIAS_MENU_PERFIL"><path d="M852.05,596.81 C854.86,581.96 855.89,561.51 845,548 C828.04,526.95 766.0701,514.4554 715.1301,507.2054 " fill="none" id="VER_INSIGNIAS-to-MENU_PERFIL" style="stroke:#8B0000;stroke-width:1.0;"/><polygon fill="#8B0000" points="709.19,506.36,717.5366,511.5882,714.1401,507.0645,718.6638,503.668,709.19,506.36" style="stroke:#8B0000;stroke-width:1.0;"/><text fill="#000000" font-family="sans-serif" font-size="13" lengthAdjust="spacing" textLength="82.3672" x="854" y="563.0283">Volver al perfil</text></g><!--link MENU_PERFIL to INSCRIBIR_CLASE--><g id="link_MENU_PERFIL_INSCRIBIR_CLASE"><path d="M640.04,518.14 C628.47,539.78 612.3281,569.9883 600.7681,591.6183 " fill="none" id="MENU_PERFIL-to-INSCRIBIR_CLASE" style="stroke:#8B0000;stroke-width:1.0;"/><polygon fill="#8B0000" points="597.94,596.91,605.7099,590.8579,600.2967,592.5003,598.6544,587.0871,597.94,596.91" style="stroke:#8B0000;stroke-width:1.0;"/><text fill="#000000" font-family="sans-serif" font-size="13" lengthAdjust="spacing" textLength="97.5381" x="624" y="563.0283">Inscribir en clase</text></g><!--link INSCRIBIR_CLASE to MENU_PERFIL--><g id="link_INSCRIBIR_CLASE_MENU_PERFIL"><path d="M550.8,596.84 C530.41,584.02 511.57,566.11 524,548 C539.19,525.87 560.1961,515.3612 585.1861,508.8112 " fill="none" id="INSCRIBIR_CLASE-to-MENU_PERFIL" style="stroke:#8B0000;stroke-width:1.0;"/><polygon fill="#8B0000" points="590.99,507.29,581.2699,505.7026,586.1534,508.5577,583.2982,513.4412,590.99,507.29" style="stroke:#8B0000;stroke-width:1.0;"/><text fill="#000000" font-family="sans-serif" font-size="13" lengthAdjust="spacing" textLength="82.3672" x="525" y="563.0283">Volver al perfil</text></g><!--link MENU_PERFIL to MOSTRAR_QR--><g id="link_MENU_PERFIL_MOSTRAR_QR"><path d="M590.76,501.2 C469.57,505.28 202.4,517.66 175,548 C142.76,583.7 208.8802,600.4522 265.4902,608.5322 " fill="none" id="MENU_PERFIL-to-MOSTRAR_QR" style="stroke:#8B0000;stroke-width:1.0;"/><polygon fill="#8B0000" points="271.43,609.38,263.0855,604.1484,266.4802,608.6735,261.9551,612.0682,271.43,609.38" style="stroke:#8B0000;stroke-width:1.0;"/><text fill="#000000" font-family="sans-serif" font-size="13" lengthAdjust="spacing" textLength="182.0762" x="176" y="563.0283">Mostrar QR en centro deportivo</text></g><!--link MOSTRAR_QR to MENU_PERFIL--><g id="link_MOSTRAR_QR_MENU_PERFIL"><path d="M352.87,596.71 C371.81,581.39 400.57,560.34 429,548 C481.25,525.32 539.2721,513.6313 584.9121,507.0113 " fill="none" id="MOSTRAR_QR-to-MENU_PERFIL" style="stroke:#8B0000;stroke-width:1.0;"/><polygon fill="#8B0000" points="590.85,506.15,581.369,503.4833,585.9018,506.8677,582.5174,511.4005,590.85,506.15" style="stroke:#8B0000;stroke-width:1.0;"/><text fill="#000000" font-family="sans-serif" font-size="13" lengthAdjust="spacing" textLength="82.3672" x="430" y="563.0283">Volver al perfil</text></g><!--link MENU_PERFIL to ALUMNO--><g id="link_MENU_PERFIL_ALUMNO"><path d="M590.83,492.84 C433.72,479.69 18,439.4 18,381.5 C18,143.5 18,143.5 18,143.5 C18,108.21 28.6591,74.2488 37.2491,51.6388 " fill="none" id="MENU_PERFIL-to-ALUMNO" style="stroke:#8B0000;stroke-width:1.0;"/><polygon fill="#8B0000" points="39.38,46.03,32.4444,53.0227,37.6042,50.704,39.9229,55.8639,39.38,46.03" style="stroke:#8B0000;stroke-width:1.0;"/><text fill="#000000" font-family="sans-serif" font-size="13" lengthAdjust="spacing" textLength="78.0254" x="19" y="268.0283">Cerrar sesi&#243;n</text></g><!--link MENU_PERFIL to MENU_CLASIFICACION--><g id="link_MENU_PERFIL_MENU_CLASIFICACION"><path d="M709.26,508.04 C768.98,516.93 863.68,531.8 945,548 C981.26,555.23 989.5,561.06 1026,567 C1178.17,591.77 1351.4202,604.6098 1455.9302,610.7198 " fill="none" id="MENU_PERFIL-to-MENU_CLASIFICACION" style="stroke:#DAA520;stroke-width:1.0;"/><polygon fill="#DAA520" points="1461.92,611.07,1453.1688,606.5515,1456.9285,610.7782,1452.7019,614.5379,1461.92,611.07" style="stroke:#DAA520;stroke-width:1.0;"/><text fill="#000000" font-family="sans-serif" font-size="13" lengthAdjust="spacing" textLength="103.3271" x="1027" y="563.0283">Cambiar de men&#250;</text></g><!--SRC=[hPRDZjem4CVlUGfNUsYHs1Uej9MomOjSGQ0EhBIgAkGDNkgkiP4TwFOvUkkjpz1RhxnOnqaWv8i5r6EIcT_C_6V6pfivVnAA8ug3YH_s1_ZTInV5MchJGOR72LCBoT4BkahVUTvRT7DpW_nWCg8uGWy83_0GXvDHXCQKX04P-mDu3pPUGVG7qs4uwg87BgN-tZUSgyx1vx7V9w4_s_jtqK0ilYQtSiqxku0GO_khoeMNqncTJi0xck6Fc0Oa8AEeYyPCybgOp1fFd44Q869ogUicmS2Fo1q9V625NTJNSbwp6MDwHtQ91jemsIcaSNur3UundP4m8lsG-930KDZa1zMM7wBXUq39BQ5f3hZ5QZYA9jIdiq-qnI2W63vdkhHeWNjayffDD7MPu7lImz0NFvMkLJbNNjRcQ9Ty9bok2iK3FzUbEYUP6xh-V7KhMVpyvVe3gau4Ue-8MXXkcK5C8WjLyoNpl9eTGD8w7AHbEe0rTHopJeHY5lr0_1itiOY5jet0aO4Tu0NHJH10nimauBG255UmAecsI2CM9s8ZvcpEcs5E5AwedkzvfN43Rg2LNSi4iB5aLZo9cCLY-qSruYWlGDbC0e7oZN0LhhXv4hAqGIZNmorkeOZhGfjQ4AJ7pFDUrSFXSjaQljVoP4Pf-W22vo8fAAK8LTVsfjvhkU7fU2ovslvjxcyvyd-67wk_POW2jdmKKFgSP-1ZY1D6vmnQu-JK0ENPIPCkXYLzp3KiwciwDW0ThHy5R0hi1bUnO2w4snclqRm6BObMQuRRFQ-Ir6drbNqkLdWFU7sIZajy46_xCooqBkTHJRLs-3gHKeNMImN74iIIB3rEk5UtFQdmgkQLiwbKH2xtFldyEMzgtfZIVPZdAvGL2oMOFU9NkIFJcy76HgJJfV8YszsBonCyXzec1de13ywLgyHe46kbuMJVw2EK_Cg2RdBZ09RRJ8QAorbRNxXTEeS7X4i6iToIYcwbFIgc8RzZgbqvo_cW9sVvrNyj_9whBjp_MXmxJNSADVnhx2AXrVRt0ivvj392kQjULlQzwEy5bECxVG6mQ7-kttcCVm00]--></g></svg>