<svg xmlns="http://www.w3.org/2000/svg" xmlns:xlink="http://www.w3.org/1999/xlink" contentStyleType="text/css" height="1108px" preserveAspectRatio="none" style="width:3300px;height:1108px;background:#FFFFFF;" version="1.1" viewBox="0 0 3300 1108" width="3300px" zoomAndPan="magnify"><defs/><g><!--entity USUARIO--><g id="elem_USUARIO"><rect fill="#9ACD32" height="36.2969" rx="2.5" ry="2.5" style="stroke:#181818;stroke-width:0.5;" width="83.834" x="1514.86" y="7"/><text fill="#000000" font-family="sans-serif" font-size="14" lengthAdjust="spacing" textLength="63.834" x="1524.86" y="29.9951">USUARIO</text></g><!--entity PROFESOR--><g id="elem_PROFESOR"><rect fill="#9ACD32" height="36.2969" rx="2.5" ry="2.5" style="stroke:#181818;stroke-width:0.5;" width="95.7217" x="1508.86" y="120"/><text fill="#000000" font-family="sans-serif" font-size="14" lengthAdjust="spacing" textLength="75.7217" x="1518.86" y="142.9951">PROFESOR</text></g><!--entity PAGINA_PRINCIPAL--><g id="elem_PAGINA_PRINCIPAL"><rect fill="#ADD8E6" height="36.2969" rx="2.5" ry="2.5" style="stroke:#181818;stroke-width:0.5;" width="152.542" x="1480.36" y="233"/><text fill="#000000" font-family="sans-serif" font-size="14" lengthAdjust="spacing" textLength="132.542" x="1490.36" y="255.9951">PAGINA_PRINCIPAL</text></g><!--entity NAVEGACION_MENUS--><g id="elem_NAVEGACION_MENUS"><rect fill="#87CEEB" height="36.2969" rx="2.5" ry="2.5" style="stroke:#181818;stroke-width:0.5;" width="171.8262" x="1470.86" y="346"/><text fill="#000000" font-family="sans-serif" font-size="14" lengthAdjust="spacing" textLength="151.8262" x="1480.86" y="368.9951">NAVEGACION_MENUS</text></g><!--entity MENU_RUTINAS_EJERCICIOS--><g id="elem_MENU_RUTINAS_EJERCICIOS"><rect fill="#98FB98" height="36.2969" rx="2.5" ry="2.5" style="stroke:#181818;stroke-width:0.5;" width="216.499" x="435.86" y="459"/><text fill="#000000" font-family="sans-serif" font-size="14" lengthAdjust="spacing" textLength="196.499" x="445.86" y="481.9951">MENU_RUTINAS_EJERCICIOS</text></g><!--entity MENU_RETOS--><g id="elem_MENU_RETOS"><rect fill="#FFA07A" height="36.2969" rx="2.5" ry="2.5" style="stroke:#181818;stroke-width:0.5;" width="115.6758" x="1305.86" y="459"/><text fill="#000000" font-family="sans-serif" font-size="14" lengthAdjust="spacing" textLength="95.6758" x="1315.86" y="481.9951">MENU_RETOS</text></g><!--entity MENU_CLASIFICACION--><g id="elem_MENU_CLASIFICACION"><rect fill="#FFD700" height="36.2969" rx="2.5" ry="2.5" style="stroke:#181818;stroke-width:0.5;" width="175.7432" x="1624.86" y="459"/><text fill="#000000" font-family="sans-serif" font-size="14" lengthAdjust="spacing" textLength="155.7432" x="1634.86" y="481.9951">MENU_CLASIFICACION</text></g><!--entity MENU_PERFIL--><g id="elem_MENU_PERFIL"><rect fill="#F08080" height="36.2969" rx="2.5" ry="2.5" style="stroke:#181818;stroke-width:0.5;" width="115.6416" x="2410.86" y="459"/><text fill="#000000" font-family="sans-serif" font-size="14" lengthAdjust="spacing" textLength="95.6416" x="2420.86" y="481.9951">MENU_PERFIL</text></g><!--entity CREAR_RUTINA--><g id="elem_CREAR_RUTINA"><rect fill="#98FB98" height="36.2969" rx="2.5" ry="2.5" style="stroke:#181818;stroke-width:0.5;" width="127.3584" x="292.36" y="572"/><text fill="#000000" font-family="sans-serif" font-size="14" lengthAdjust="spacing" textLength="107.3584" x="302.36" y="594.9951">CREAR_RUTINA</text></g><!--entity MOSTRAR_RUTINA--><g id="elem_MOSTRAR_RUTINA"><rect fill="#98FB98" height="36.2969" rx="2.5" ry="2.5" style="stroke:#181818;stroke-width:0.5;" width="149.2744" x="469.36" y="572"/><text fill="#000000" font-family="sans-serif" font-size="14" lengthAdjust="spacing" textLength="129.2744" x="479.36" y="594.9951">MOSTRAR_RUTINA</text></g><!--entity EDITAR_RUTINA--><g id="elem_EDITAR_RUTINA"><rect fill="#98FB98" height="36.2969" rx="2.5" ry="2.5" style="stroke:#181818;stroke-width:0.5;" width="131.3164" x="95.36" y="685"/><text fill="#000000" font-family="sans-serif" font-size="14" lengthAdjust="spacing" textLength="111.3164" x="105.36" y="707.9951">EDITAR_RUTINA</text></g><!--entity CREAR_EJERCICIO--><g id="elem_CREAR_EJERCICIO"><rect fill="#98FB98" height="36.2969" rx="2.5" ry="2.5" style="stroke:#181818;stroke-width:0.5;" width="145.0293" x="82.36" y="572"/><text fill="#000000" font-family="sans-serif" font-size="14" lengthAdjust="spacing" textLength="125.0293" x="92.36" y="594.9951">CREAR_EJERCICIO</text></g><!--entity MOSTRAR_EJERCICIO--><g id="elem_MOSTRAR_EJERCICIO"><rect fill="#98FB98" height="36.2969" rx="2.5" ry="2.5" style="stroke:#181818;stroke-width:0.5;" width="166.9453" x="850.36" y="572"/><text fill="#000000" font-family="sans-serif" font-size="14" lengthAdjust="spacing" textLength="146.9453" x="860.36" y="594.9951">MOSTRAR_EJERCICIO</text></g><!--entity EDITAR_EJERCICIO--><g id="elem_EDITAR_EJERCICIO"><rect fill="#98FB98" height="36.2969" rx="2.5" ry="2.5" style="stroke:#181818;stroke-width:0.5;" width="148.9873" x="938.36" y="685"/><text fill="#000000" font-family="sans-serif" font-size="14" lengthAdjust="spacing" textLength="128.9873" x="948.36" y="707.9951">EDITAR_EJERCICIO</text></g><!--entity CREAR_RETOS--><g id="elem_CREAR_RETOS"><rect fill="#FFA07A" height="36.2969" rx="2.5" ry="2.5" style="stroke:#181818;stroke-width:0.5;" width="121.6846" x="1169.86" y="572"/><text fill="#000000" font-family="sans-serif" font-size="14" lengthAdjust="spacing" textLength="101.6846" x="1179.86" y="594.9951">CREAR_RETOS</text></g><!--entity EDITAR_RETOS--><g id="elem_EDITAR_RETOS"><rect fill="#FFA07A" height="36.2969" rx="2.5" ry="2.5" style="stroke:#181818;stroke-width:0.5;" width="125.6426" x="1393.86" y="572"/><text fill="#000000" font-family="sans-serif" font-size="14" lengthAdjust="spacing" textLength="105.6426" x="1403.86" y="594.9951">EDITAR_RETOS</text></g><!--entity VER_CLASES--><g id="elem_VER_CLASES"><rect fill="#FFD700" height="36.2969" rx="2.5" ry="2.5" style="stroke:#181818;stroke-width:0.5;" width="108.9219" x="1749.36" y="572"/><text fill="#000000" font-family="sans-serif" font-size="14" lengthAdjust="spacing" textLength="88.9219" x="1759.36" y="594.9951">VER_CLASES</text></g><!--entity VER_ALUMNOS_CLASE--><g id="elem_VER_ALUMNOS_CLASE"><rect fill="#FFD700" height="36.2969" rx="2.5" ry="2.5" style="stroke:#181818;stroke-width:0.5;" width="177.1172" x="1824.36" y="685"/><text fill="#000000" font-family="sans-serif" font-size="14" lengthAdjust="spacing" textLength="157.1172" x="1834.36" y="707.9951">VER_ALUMNOS_CLASE</text></g><!--entity CREAR_CLASE--><g id="elem_CREAR_CLASE"><rect fill="#F08080" height="36.2969" rx="2.5" ry="2.5" style="stroke:#181818;stroke-width:0.5;" width="119.5381" x="2120.86" y="572"/><text fill="#000000" font-family="sans-serif" font-size="14" lengthAdjust="spacing" textLength="99.5381" x="2130.86" y="594.9951">CREAR_CLASE</text></g><!--entity MOSTRAR_QR--><g id="elem_MOSTRAR_QR"><rect fill="#F08080" height="36.2969" rx="2.5" ry="2.5" style="stroke:#181818;stroke-width:0.5;" width="117.3164" x="2315.36" y="572"/><text fill="#000000" font-family="sans-serif" font-size="14" lengthAdjust="spacing" textLength="97.3164" x="2325.36" y="594.9951">MOSTRAR_QR</text></g><!--entity VER_MIS_CLASES--><g id="elem_VER_MIS_CLASES"><rect fill="#F08080" height="36.2969" rx="2.5" ry="2.5" style="stroke:#181818;stroke-width:0.5;" width="141.0166" x="2879.36" y="572"/><text fill="#000000" font-family="sans-serif" font-size="14" lengthAdjust="spacing" textLength="121.0166" x="2889.36" y="594.9951">VER_MIS_CLASES</text></g><!--entity VER_ALUMNOS--><g id="elem_VER_ALUMNOS"><rect fill="#F08080" height="36.2969" rx="2.5" ry="2.5" style="stroke:#181818;stroke-width:0.5;" width="125.2324" x="2927.36" y="685"/><text fill="#000000" font-family="sans-serif" font-size="14" lengthAdjust="spacing" textLength="105.2324" x="2937.36" y="707.9951">VER_ALUMNOS</text></g><!--entity VER_RETOS_ALUMNOS--><g id="elem_VER_RETOS_ALUMNOS"><rect fill="#F08080" height="36.2969" rx="2.5" ry="2.5" style="stroke:#181818;stroke-width:0.5;" width="179.2637" x="2900.36" y="798"/><text fill="#000000" font-family="sans-serif" font-size="14" lengthAdjust="spacing" textLength="159.2637" x="2910.36" y="820.9951">VER_RETOS_ALUMNOS</text></g><!--entity EVALUAR_RETOS--><g id="elem_EVALUAR_RETOS"><rect fill="#F08080" height="36.2969" rx="2.5" ry="2.5" style="stroke:#181818;stroke-width:0.5;" width="139.3828" x="3007.36" y="911"/><text fill="#000000" font-family="sans-serif" font-size="14" lengthAdjust="spacing" textLength="119.3828" x="3017.36" y="933.9951">EVALUAR_RETOS</text></g><!--link USUARIO to PROFESOR--><g id="link_USUARIO_PROFESOR"><path d="M1556.86,43.34 C1556.86,64.2 1556.86,92.98 1556.86,113.78 " fill="none" id="USUARIO-to-PROFESOR" style="stroke:#000000;stroke-width:1;"/><polygon fill="#000000" points="1556.86,119.78,1560.86,110.78,1556.86,114.78,1552.86,110.78,1556.86,119.78" style="stroke:#000000;stroke-width:1;"/><text fill="#000000" font-family="sans-serif" font-size="13" lengthAdjust="spacing" textLength="85.2363" x="1557.86" y="86.0669">Iniciar sesión</text></g><!--link PROFESOR to PAGINA_PRINCIPAL--><g id="link_PROFESOR_PAGINA_PRINCIPAL"><path d="M1556.86,156.34 C1556.86,177.2 1556.86,205.98 1556.86,226.78 " fill="none" id="PROFESOR-to-PAGINA_PRINCIPAL" style="stroke:#000000;stroke-width:1;"/><polygon fill="#000000" points="1556.86,232.78,1560.86,223.78,1556.86,227.78,1552.86,223.78,1556.86,232.78" style="stroke:#000000;stroke-width:1;"/><text fill="#000000" font-family="sans-serif" font-size="13" lengthAdjust="spacing" textLength="124.4775" x="1557.86" y="199.0669">Ingresar al sistema</text></g><!--link PAGINA_PRINCIPAL to NAVEGACION_MENUS--><g id="link_PAGINA_PRINCIPAL_NAVEGACION_MENUS"><path d="M1503.49,269.03 C1489.84,276.07 1476.78,285.78 1468.86,299 C1456.67,319.33 1472.0905,332.6882 1496.5705,343.4882 " fill="none" id="PAGINA_PRINCIPAL-to-NAVEGACION_MENUS" style="stroke:#87CEEB;stroke-width:1;"/><polygon fill="#87CEEB" points="1502.06,345.91,1495.4403,338.6176,1497.4854,343.8918,1492.2112,345.9369,1502.06,345.91" style="stroke:#87CEEB;stroke-width:1;"/><text fill="#000000" font-family="sans-serif" font-size="13" lengthAdjust="spacing" textLength="128.6733" x="1469.86" y="312.0669">Navegar por menús</text></g><!--link NAVEGACION_MENUS to PAGINA_PRINCIPAL--><g id="link_NAVEGACION_MENUS_PAGINA_PRINCIPAL"><path d="M1580.05,345.92 C1588.95,337.94 1598.11,327.63 1602.86,316 C1609.99,298.52 1600.6473,285.1592 1586.2873,272.9892 " fill="none" id="NAVEGACION_MENUS-to-PAGINA_PRINCIPAL" style="stroke:#ADD8E6;stroke-width:1;"/><polygon fill="#ADD8E6" points="1581.71,269.11,1585.9898,277.9804,1585.5244,272.3427,1591.1621,271.8773,1581.71,269.11" style="stroke:#ADD8E6;stroke-width:1;"/><text fill="#000000" font-family="sans-serif" font-size="13" lengthAdjust="spacing" textLength="112.728" x="1605.86" y="312.0669">Regresar al inicio</text></g><!--link NAVEGACION_MENUS to MENU_RUTINAS_EJERCICIOS--><g id="link_NAVEGACION_MENUS_MENU_RUTINAS_EJERCICIOS"><path d="M1470.78,365.79 C1231.31,368.4 572.75,378.6 540.86,412 C529.18,424.23 530.6243,438.7781 535.1843,453.2281 " fill="none" id="NAVEGACION_MENUS-to-MENU_RUTINAS_EJERCICIOS" style="stroke:#98FB98;stroke-width:1;"/><polygon fill="#98FB98" points="536.99,458.95,538.0961,449.1635,535.4853,454.1818,530.467,451.571,536.99,458.95" style="stroke:#98FB98;stroke-width:1;"/><text fill="#000000" font-family="sans-serif" font-size="13" lengthAdjust="spacing" textLength="197.4438" x="541.86" y="425.0669">Cambiar a Rutinas y Ejercicios</text></g><!--link NAVEGACION_MENUS to MENU_RETOS--><g id="link_NAVEGACION_MENUS_MENU_RETOS"><path d="M1470.75,374.58 C1423.4,381.81 1371.37,393.69 1356.86,412 C1346.45,425.14 1348.539,439.2399 1353.799,453.3099 " fill="none" id="NAVEGACION_MENUS-to-MENU_RETOS" style="stroke:#FFA07A;stroke-width:1;"/><polygon fill="#FFA07A" points="1355.9,458.93,1356.4952,449.0991,1354.1491,454.2466,1349.0017,451.9005,1355.9,458.93" style="stroke:#FFA07A;stroke-width:1;"/><text fill="#000000" font-family="sans-serif" font-size="13" lengthAdjust="spacing" textLength="107.9673" x="1357.86" y="425.0669">Cambiar a Retos</text></g><!--link NAVEGACION_MENUS to MENU_CLASIFICACION--><g id="link_NAVEGACION_MENUS_MENU_CLASIFICACION"><path d="M1580.89,382.1 C1610.21,402.96 1654.5813,434.5314 1683.9113,455.4014 " fill="none" id="NAVEGACION_MENUS-to-MENU_CLASIFICACION" style="stroke:#FFD700;stroke-width:1;"/><polygon fill="#FFD700" points="1688.8,458.88,1683.786,450.403,1684.7261,455.9812,1679.1479,456.9212,1688.8,458.88" style="stroke:#FFD700;stroke-width:1;"/><text fill="#000000" font-family="sans-serif" font-size="13" lengthAdjust="spacing" textLength="152.4072" x="1645.86" y="425.0669">Cambiar a Clasificación</text></g><!--link NAVEGACION_MENUS to MENU_PERFIL--><g id="link_NAVEGACION_MENUS_MENU_PERFIL"><path d="M1643.13,367.11 C1811.94,371.78 2180.2,384.81 2303.86,412 C2350.52,422.26 2395.9298,441.1393 2428.6698,456.3693 " fill="none" id="NAVEGACION_MENUS-to-MENU_PERFIL" style="stroke:#F08080;stroke-width:1;"/><polygon fill="#F08080" points="2434.11,458.9,2427.6368,451.4772,2429.5765,456.7911,2424.2626,458.7308,2434.11,458.9" style="stroke:#F08080;stroke-width:1;"/><text fill="#000000" font-family="sans-serif" font-size="13" lengthAdjust="spacing" textLength="104.0952" x="2360.86" y="425.0669">Cambiar a Perfil</text></g><!--link MENU_RUTINAS_EJERCICIOS to CREAR_RUTINA--><g id="link_MENU_RUTINAS_EJERCICIOS_CREAR_RUTINA"><path d="M508.82,495 C491.71,503.58 470.96,514.39 452.86,525 C427.44,539.89 404.4099,555.2044 385.0599,568.5444 " fill="none" id="MENU_RUTINAS_EJERCICIOS-to-CREAR_RUTINA" style="stroke:#008000;stroke-width:1;"/><polygon fill="#008000" points="380.12,571.95,389.8002,570.1349,384.2365,569.112,385.2594,563.5484,380.12,571.95" style="stroke:#008000;stroke-width:1;"/><text fill="#000000" font-family="sans-serif" font-size="13" lengthAdjust="spacing" textLength="78.3618" x="453.86" y="538.0669">Crear rutina</text></g><!--link MENU_RUTINAS_EJERCICIOS to CREAR_EJERCICIO--><g id="link_MENU_RUTINAS_EJERCICIOS_CREAR_EJERCICIO"><path d="M447.15,495.04 C407.91,502.84 362.38,513.03 321.86,525 C277.19,538.2 233.0615,555.5756 199.6015,569.6356 " fill="none" id="MENU_RUTINAS_EJERCICIOS-to-CREAR_EJERCICIO" style="stroke:#008000;stroke-width:1;"/><polygon fill="#008000" points="194.07,571.96,203.9168,572.1611,198.6796,570.023,200.8177,564.7858,194.07,571.96" style="stroke:#008000;stroke-width:1;"/><text fill="#000000" font-family="sans-serif" font-size="13" lengthAdjust="spacing" textLength="94.2881" x="322.86" y="538.0669">Crear ejercicio</text></g><!--link MENU_RUTINAS_EJERCICIOS to MOSTRAR_RUTINA--><g id="link_MENU_RUTINAS_EJERCICIOS_MOSTRAR_RUTINA"><path d="M542.32,495.11 C541.35,508 540.35,526.1 540.86,542 C541.17,551.81 541.424,556.7651 542.054,565.6151 " fill="none" id="MENU_RUTINAS_EJERCICIOS-to-MOSTRAR_RUTINA" style="stroke:#008000;stroke-width:1;"/><polygon fill="#008000" points="542.48,571.6,545.8308,562.3387,542.125,566.6126,537.851,562.9067,542.48,571.6" style="stroke:#008000;stroke-width:1;"/><text fill="#000000" font-family="sans-serif" font-size="13" lengthAdjust="spacing" textLength="92.3267" x="541.86" y="538.0669">Mostrar rutina</text></g><!--link MENU_RUTINAS_EJERCICIOS to MOSTRAR_EJERCICIO--><g id="link_MENU_RUTINAS_EJERCICIOS_MOSTRAR_EJERCICIO"><path d="M603.94,495.1 C677.34,515.99 794.9793,549.4673 868.2593,570.3273 " fill="none" id="MENU_RUTINAS_EJERCICIOS-to-MOSTRAR_EJERCICIO" style="stroke:#008000;stroke-width:1;"/><polygon fill="#008000" points="874.03,571.97,866.469,565.6588,869.221,570.6011,864.2787,573.3531,874.03,571.97" style="stroke:#008000;stroke-width:1;"/><text fill="#000000" font-family="sans-serif" font-size="13" lengthAdjust="spacing" textLength="108.2529" x="763.86" y="538.0669">Mostrar ejercicio</text></g><!--link MOSTRAR_RUTINA to EDITAR_RUTINA--><g id="link_MOSTRAR_RUTINA_EDITAR_RUTINA"><path d="M484.85,608.1 C412.78,628.99 297.3428,662.4397 225.3728,683.2997 " fill="none" id="MOSTRAR_RUTINA-to-EDITAR_RUTINA" style="stroke:#008000;stroke-width:1;"/><polygon fill="#008000" points="219.61,684.97,229.3678,686.3064,224.4123,683.5781,227.1407,678.6227,219.61,684.97" style="stroke:#008000;stroke-width:1;"/><text fill="#000000" font-family="sans-serif" font-size="13" lengthAdjust="spacing" textLength="81.1167" x="376.86" y="651.0669">Editar rutina</text></g><!--link MOSTRAR_EJERCICIO to EDITAR_EJERCICIO--><g id="link_MOSTRAR_EJERCICIO_EDITAR_EJERCICIO"><path d="M936.05,608.27 C938.43,621.9 943.27,640.91 952.86,655 C960.9,666.82 967.9298,673.5677 979.0398,681.4177 " fill="none" id="MOSTRAR_EJERCICIO-to-EDITAR_EJERCICIO" style="stroke:#008000;stroke-width:1;"/><polygon fill="#008000" points="983.94,684.88,978.8979,676.4197,979.8565,681.9947,974.2814,682.9533,983.94,684.88" style="stroke:#008000;stroke-width:1;"/><text fill="#000000" font-family="sans-serif" font-size="13" lengthAdjust="spacing" textLength="97.043" x="953.86" y="651.0669">Editar ejercicio</text></g><!--link MENU_RETOS to CREAR_RETOS--><g id="link_MENU_RETOS_CREAR_RETOS"><path d="M1337.38,495.15 C1324.77,503.68 1309.67,514.41 1296.86,525 C1278.9,539.85 1264.1393,554.2749 1251.1793,567.6249 " fill="none" id="MENU_RETOS-to-CREAR_RETOS" style="stroke:#FFA500;stroke-width:1;"/><polygon fill="#FFA500" points="1247,571.93,1256.139,568.2586,1250.4827,568.3425,1250.3989,562.6862,1247,571.93" style="stroke:#FFA500;stroke-width:1;"/><text fill="#000000" font-family="sans-serif" font-size="13" lengthAdjust="spacing" textLength="73.0298" x="1297.86" y="538.0669">Crear retos</text></g><!--link MENU_RETOS to EDITAR_RETOS--><g id="link_MENU_RETOS_EDITAR_RETOS"><path d="M1367.6,495.17 C1371.26,508.93 1377.91,528.15 1388.86,542 C1398.29,553.93 1406.5013,560.8452 1418.8213,568.5952 " fill="none" id="MENU_RETOS-to-EDITAR_RETOS" style="stroke:#FFA500;stroke-width:1;"/><polygon fill="#FFA500" points="1423.9,571.79,1418.4118,563.612,1419.6677,569.1277,1414.1521,570.3836,1423.9,571.79" style="stroke:#FFA500;stroke-width:1;"/><text fill="#000000" font-family="sans-serif" font-size="13" lengthAdjust="spacing" textLength="75.7847" x="1389.86" y="538.0669">Editar retos</text></g><!--link MENU_CLASIFICACION to VER_CLASES--><g id="link_MENU_CLASIFICACION_VER_CLASES"><path d="M1727.08,495.34 C1744.17,516.2 1768.8863,546.3397 1785.9363,567.1397 " fill="none" id="MENU_CLASIFICACION-to-VER_CLASES" style="stroke:#DAA520;stroke-width:1;"/><polygon fill="#DAA520" points="1789.74,571.78,1787.128,562.2838,1786.5703,567.9131,1780.941,567.3554,1789.74,571.78" style="stroke:#DAA520;stroke-width:1;"/><text fill="#000000" font-family="sans-serif" font-size="13" lengthAdjust="spacing" textLength="66.6377" x="1764.86" y="538.0669">Ver clases</text></g><!--link VER_CLASES to VER_ALUMNOS_CLASE--><g id="link_VER_CLASES_VER_ALUMNOS_CLASE"><path d="M1797.84,608.24 C1794.17,622.04 1791.74,641.29 1800.86,655 C1809.79,668.43 1817.9442,675.4998 1832.6242,682.3598 " fill="none" id="VER_CLASES-to-VER_ALUMNOS_CLASE" style="stroke:#DAA520;stroke-width:1;"/><polygon fill="#DAA520" points="1838.06,684.9,1831.5998,677.4659,1833.5302,682.7832,1828.2129,684.7136,1838.06,684.9" style="stroke:#DAA520;stroke-width:1;"/><text fill="#000000" font-family="sans-serif" font-size="13" lengthAdjust="spacing" textLength="193.6162" x="1801.86" y="651.0669">Ver alumnos dentro de clases</text></g><!--link MENU_PERFIL to CREAR_CLASE--><g id="link_MENU_PERFIL_CREAR_CLASE"><path d="M2410.62,492.24 C2379.65,500.51 2341.18,511.87 2307.86,525 C2273.63,538.49 2241.4773,555.0684 2216.1873,568.9784 " fill="none" id="MENU_PERFIL-to-CREAR_CLASE" style="stroke:#FF0000;stroke-width:1;"/><polygon fill="#FF0000" points="2210.93,571.87,2220.7436,571.0374,2215.311,569.4603,2216.8881,564.0278,2210.93,571.87" style="stroke:#FF0000;stroke-width:1;"/><text fill="#000000" font-family="sans-serif" font-size="13" lengthAdjust="spacing" textLength="73.3599" x="2308.86" y="538.0669">Crear clase</text></g><!--link MENU_PERFIL to MOSTRAR_QR--><g id="link_MENU_PERFIL_MOSTRAR_QR"><path d="M2436.41,495.12 C2424.01,502.92 2410.54,513.09 2400.86,525 C2389.6,538.85 2384.0522,552.3325 2379.9322,566.0825 " fill="none" id="MENU_PERFIL-to-MOSTRAR_QR" style="stroke:#FF0000;stroke-width:1;"/><polygon fill="#FF0000" points="2378.21,571.83,2384.6249,564.3568,2379.6451,567.0404,2376.9616,562.0606,2378.21,571.83" style="stroke:#FF0000;stroke-width:1;"/><text fill="#000000" font-family="sans-serif" font-size="13" lengthAdjust="spacing" textLength="205.6641" x="2401.86" y="538.0669">Mostrar QR en centro deportivo</text></g><!--link MENU_PERFIL to VER_MIS_CLASES--><g id="link_MENU_PERFIL_VER_MIS_CLASES"><path d="M2526.88,491.39 C2615.33,511.8 2777.8236,549.3011 2873.3036,571.3311 " fill="none" id="MENU_PERFIL-to-VER_MIS_CLASES" style="stroke:#FF0000;stroke-width:1;"/><polygon fill="#FF0000" points="2879.15,572.68,2871.2797,566.759,2874.278,571.5559,2869.4811,574.5542,2879.15,572.68" style="stroke:#FF0000;stroke-width:1;"/><text fill="#000000" font-family="sans-serif" font-size="13" lengthAdjust="spacing" textLength="93.8184" x="2739.86" y="538.0669">Ver mis clases</text></g><!--link VER_MIS_CLASES to VER_ALUMNOS--><g id="link_VER_MIS_CLASES_VER_ALUMNOS"><path d="M2952.64,608.2 C2955.05,621.29 2959.08,639.62 2964.86,655 C2968.69,665.21 2971.3416,670.7757 2976.2716,679.4357 " fill="none" id="VER_MIS_CLASES-to-VER_ALUMNOS" style="stroke:#FF0000;stroke-width:1;"/><polygon fill="#FF0000" points="2979.24,684.65,2978.2636,674.8497,2976.7663,680.3048,2971.3112,678.8075,2979.24,684.65" style="stroke:#FF0000;stroke-width:1;"/><text fill="#000000" font-family="sans-serif" font-size="13" lengthAdjust="spacing" textLength="81.8149" x="2965.86" y="651.0669">Ver alumnos</text></g><!--link VER_ALUMNOS to VER_RETOS_ALUMNOS--><g id="link_VER_ALUMNOS_VER_RETOS_ALUMNOS"><path d="M2989.86,721.34 C2989.86,742.2 2989.86,770.98 2989.86,791.78 " fill="none" id="VER_ALUMNOS-to-VER_RETOS_ALUMNOS" style="stroke:#FF0000;stroke-width:1;"/><polygon fill="#FF0000" points="2989.86,797.78,2993.86,788.78,2989.86,792.78,2985.86,788.78,2989.86,797.78" style="stroke:#FF0000;stroke-width:1;"/><text fill="#000000" font-family="sans-serif" font-size="13" lengthAdjust="spacing" textLength="119.1138" x="2990.86" y="764.0669">Ver retos alumnos</text></g><!--link VER_RETOS_ALUMNOS to EVALUAR_RETOS--><g id="link_VER_RETOS_ALUMNOS_EVALUAR_RETOS"><path d="M3003.45,834.34 C3019.8,855.2 3043.3591,885.2574 3059.6591,906.0574 " fill="none" id="VER_RETOS_ALUMNOS-to-EVALUAR_RETOS" style="stroke:#FF0000;stroke-width:1;"/><polygon fill="#FF0000" points="3063.36,910.78,3060.9571,901.2288,3060.2759,906.8445,3054.6602,906.1633,3063.36,910.78" style="stroke:#FF0000;stroke-width:1;"/><text fill="#000000" font-family="sans-serif" font-size="13" lengthAdjust="spacing" textLength="86.3345" x="3038.86" y="877.0669">Evaluar retos</text></g><!--link CREAR_RUTINA to NAVEGACION_MENUS--><g id="link_CREAR_RUTINA_NAVEGACION_MENUS"><path d="M298.08,571.88 C284.18,564.9 271.01,555.25 262.86,542 C239.41,503.88 281.51,482.06 319.86,459 C400.34,410.61 432.8,424.63 525.86,412 C707.4,387.35 1250.8117,372.2343 1464.5117,367.0943 " fill="none" id="CREAR_RUTINA-to-NAVEGACION_MENUS" style="stroke:#87CEEB;stroke-width:1;"/><polygon fill="#87CEEB" points="1470.51,366.95,1461.4164,363.1676,1465.5114,367.0702,1461.6088,371.1653,1470.51,366.95" style="stroke:#87CEEB;stroke-width:1;"/><text fill="#000000" font-family="sans-serif" font-size="13" lengthAdjust="spacing" textLength="96.1543" x="320.86" y="481.5669">Cambiar menú</text></g><!--link MOSTRAR_RUTINA to NAVEGACION_MENUS--><g id="link_MOSTRAR_RUTINA_NAVEGACION_MENUS"><path d="M618.42,581.55 C680.15,574.15 761.94,561.13 788.86,542 C823.59,517.31 803.54,485.57 836.86,459 C892.14,414.91 919.44,425.44 988.86,412 C1157.4,379.37 1352.3922,369.5433 1464.4222,366.4933 " fill="none" id="MOSTRAR_RUTINA-to-NAVEGACION_MENUS" style="stroke:#87CEEB;stroke-width:1;"/><polygon fill="#87CEEB" points="1470.42,366.33,1461.3145,362.5764,1465.4219,366.4661,1461.5322,370.5735,1470.42,366.33" style="stroke:#87CEEB;stroke-width:1;"/><text fill="#000000" font-family="sans-serif" font-size="13" lengthAdjust="spacing" textLength="96.1543" x="837.86" y="481.5669">Cambiar menú</text></g><!--link EDITAR_RUTINA to NAVEGACION_MENUS--><g id="link_EDITAR_RUTINA_NAVEGACION_MENUS"><path d="M133.45,684.95 C88.22,654.53 6,588.14 37.86,525 C75.94,449.53 111.03,439.81 190.86,412 C311.09,370.11 1183.86,365.429 1464.77,365.009 " fill="none" id="EDITAR_RUTINA-to-NAVEGACION_MENUS" style="stroke:#87CEEB;stroke-width:1;"/><polygon fill="#87CEEB" points="1470.77,365,1461.764,361.0135,1465.77,365.0075,1461.776,369.0135,1470.77,365" style="stroke:#87CEEB;stroke-width:1;"/><text fill="#000000" font-family="sans-serif" font-size="13" lengthAdjust="spacing" textLength="96.1543" x="38.86" y="538.0669">Cambiar menú</text></g><!--link CREAR_EJERCICIO to NAVEGACION_MENUS--><g id="link_CREAR_EJERCICIO_NAVEGACION_MENUS"><path d="M150.08,571.87 C143.57,544.5 135.62,490.75 162.86,459 C226.82,384.43 281.4,424.45 378.86,412 C590.13,385.01 1230.481,370.9516 1464.841,366.5916 " fill="none" id="CREAR_EJERCICIO-to-NAVEGACION_MENUS" style="stroke:#87CEEB;stroke-width:1;"/><polygon fill="#87CEEB" points="1470.84,366.48,1461.7672,362.6481,1465.8409,366.573,1461.916,370.6467,1470.84,366.48" style="stroke:#87CEEB;stroke-width:1;"/><text fill="#000000" font-family="sans-serif" font-size="13" lengthAdjust="spacing" textLength="96.1543" x="163.86" y="481.5669">Cambiar menú</text></g><!--link MOSTRAR_EJERCICIO to NAVEGACION_MENUS--><g id="link_MOSTRAR_EJERCICIO_NAVEGACION_MENUS"><path d="M932.86,571.86 C932.2,544.94 934.71,492.4 960.86,459 C990.63,420.96 1012.31,424.91 1058.86,412 C1134.07,391.13 1343.1897,376.7418 1464.6597,369.8118 " fill="none" id="MOSTRAR_EJERCICIO-to-NAVEGACION_MENUS" style="stroke:#87CEEB;stroke-width:1;"/><polygon fill="#87CEEB" points="1470.65,369.47,1461.4368,365.9891,1465.6581,369.7548,1461.8924,373.9761,1470.65,369.47" style="stroke:#87CEEB;stroke-width:1;"/><text fill="#000000" font-family="sans-serif" font-size="13" lengthAdjust="spacing" textLength="96.1543" x="961.86" y="481.5669">Cambiar menú</text></g><!--link EDITAR_EJERCICIO to NAVEGACION_MENUS--><g id="link_EDITAR_EJERCICIO_NAVEGACION_MENUS"><path d="M1033.01,684.58 C1041.28,676.4 1050.22,666.03 1055.86,655 C1082.73,602.47 1051.76,575.15 1082.86,525 C1125.73,455.86 1152.04,443.94 1226.86,412 C1304.96,378.66 1395.9655,368.357 1464.5355,365.417 " fill="none" id="EDITAR_EJERCICIO-to-NAVEGACION_MENUS" style="stroke:#87CEEB;stroke-width:1;"/><polygon fill="#87CEEB" points="1470.53,365.16,1461.3669,361.5492,1465.5346,365.3742,1461.7096,369.5419,1470.53,365.16" style="stroke:#87CEEB;stroke-width:1;"/><text fill="#000000" font-family="sans-serif" font-size="13" lengthAdjust="spacing" textLength="96.1543" x="1083.86" y="538.0669">Cambiar menú</text></g><!--link CREAR_RETOS to NAVEGACION_MENUS--><g id="link_CREAR_RETOS_NAVEGACION_MENUS"><path d="M1216.48,571.81 C1196.13,545.29 1164.12,493.83 1189.86,459 C1222.98,414.17 1367.1817,388.2861 1464.8717,375.3761 " fill="none" id="CREAR_RETOS-to-NAVEGACION_MENUS" style="stroke:#87CEEB;stroke-width:1;"/><polygon fill="#87CEEB" points="1470.82,374.59,1461.3735,371.8036,1465.8631,375.2451,1462.4216,379.7346,1470.82,374.59" style="stroke:#87CEEB;stroke-width:1;"/><text fill="#000000" font-family="sans-serif" font-size="13" lengthAdjust="spacing" textLength="96.1543" x="1190.86" y="481.5669">Cambiar menú</text></g><!--link EDITAR_RETOS to NAVEGACION_MENUS--><g id="link_EDITAR_RETOS_NAVEGACION_MENUS"><path d="M1463.1,571.96 C1472.41,546.92 1490.76,498.84 1508.86,459 C1521.28,431.64 1534.6483,406.0444 1544.6883,387.3744 " fill="none" id="EDITAR_RETOS-to-NAVEGACION_MENUS" style="stroke:#87CEEB;stroke-width:1;"/><polygon fill="#87CEEB" points="1547.53,382.09,1539.7445,388.1221,1545.1619,386.4936,1546.7903,391.911,1547.53,382.09" style="stroke:#87CEEB;stroke-width:1;"/><text fill="#000000" font-family="sans-serif" font-size="13" lengthAdjust="spacing" textLength="96.1543" x="1509.86" y="481.5669">Cambiar menú</text></g><!--link VER_CLASES to NAVEGACION_MENUS--><g id="link_VER_CLASES_NAVEGACION_MENUS"><path d="M1821.33,571.9 C1828.55,563.63 1836.1,553.1 1839.86,542 C1858.99,485.54 1851.03,452.03 1806.86,412 C1783.05,390.43 1711.5174,378.8147 1649.0474,372.2747 " fill="none" id="VER_CLASES-to-NAVEGACION_MENUS" style="stroke:#87CEEB;stroke-width:1;"/><polygon fill="#87CEEB" points="1643.08,371.65,1651.6146,376.5653,1648.0528,372.1706,1652.4476,368.6088,1643.08,371.65" style="stroke:#87CEEB;stroke-width:1;"/><text fill="#000000" font-family="sans-serif" font-size="13" lengthAdjust="spacing" textLength="96.1543" x="1850.86" y="481.5669">Cambiar menú</text></g><!--link VER_ALUMNOS_CLASE to NAVEGACION_MENUS--><g id="link_VER_ALUMNOS_CLASE_NAVEGACION_MENUS"><path d="M1965.63,684.85 C1979.13,677.8 1992.03,668.12 1999.86,655 C2045.59,578.32 2014.18,526.59 1955.86,459 C1915.7,412.46 1754.0088,386.6317 1649.2188,374.2917 " fill="none" id="VER_ALUMNOS_CLASE-to-NAVEGACION_MENUS" style="stroke:#87CEEB;stroke-width:1;"/><polygon fill="#87CEEB" points="1643.26,373.59,1651.7304,378.6151,1648.2257,374.1748,1652.666,370.67,1643.26,373.59" style="stroke:#87CEEB;stroke-width:1;"/><text fill="#000000" font-family="sans-serif" font-size="13" lengthAdjust="spacing" textLength="96.1543" x="2013.86" y="538.0669">Cambiar menú</text></g><!--link CREAR_CLASE to NAVEGACION_MENUS--><g id="link_CREAR_CLASE_NAVEGACION_MENUS"><path d="M2173.82,571.87 C2157.72,535.18 2114.41,449.31 2047.86,412 C1980.58,374.29 1770.8996,366.4479 1648.9596,365.0679 " fill="none" id="CREAR_CLASE-to-NAVEGACION_MENUS" style="stroke:#87CEEB;stroke-width:1;"/><polygon fill="#87CEEB" points="1642.96,365,1651.9142,369.1016,1647.9597,365.0566,1652.0047,361.1021,1642.96,365" style="stroke:#87CEEB;stroke-width:1;"/><text fill="#000000" font-family="sans-serif" font-size="13" lengthAdjust="spacing" textLength="96.1543" x="2131.86" y="481.5669">Cambiar menú</text></g><!--link MOSTRAR_QR to NAVEGACION_MENUS--><g id="link_MOSTRAR_QR_NAVEGACION_MENUS"><path d="M2315.34,574.03 C2297.14,566.9 2278.33,556.62 2264.86,542 C2238.48,513.37 2264.68,486.23 2236.86,459 C2154.28,378.2 1812.7698,365.9147 1648.9698,364.6947 " fill="none" id="MOSTRAR_QR-to-NAVEGACION_MENUS" style="stroke:#87CEEB;stroke-width:1;"/><polygon fill="#87CEEB" points="1642.97,364.65,1651.94,368.7169,1647.9699,364.6872,1651.9995,360.7171,1642.97,364.65" style="stroke:#87CEEB;stroke-width:1;"/><text fill="#000000" font-family="sans-serif" font-size="13" lengthAdjust="spacing" textLength="96.1543" x="2252.86" y="481.5669">Cambiar menú</text></g><!--link VER_MIS_CLASES to NAVEGACION_MENUS--><g id="link_VER_MIS_CLASES_NAVEGACION_MENUS"><path d="M2941.14,571.78 C2921.19,534.53 2868.23,446.97 2794.86,412 C2743.01,387.29 1921.6191,371.193 1649.1291,366.513 " fill="none" id="VER_MIS_CLASES-to-NAVEGACION_MENUS" style="stroke:#87CEEB;stroke-width:1;"/><polygon fill="#87CEEB" points="1643.13,366.41,1652.06,370.564,1648.1293,366.4959,1652.1974,362.5651,1643.13,366.41" style="stroke:#87CEEB;stroke-width:1;"/><text fill="#000000" font-family="sans-serif" font-size="13" lengthAdjust="spacing" textLength="96.1543" x="2890.86" y="481.5669">Cambiar menú</text></g><!--link VER_ALUMNOS to NAVEGACION_MENUS--><g id="link_VER_ALUMNOS_NAVEGACION_MENUS"><path d="M3023.52,684.83 C3034.64,677.31 3045.73,667.34 3051.86,655 C3092.17,573.86 3062.18,520.72 2995.86,459 C2941.29,408.22 2908.44,423.91 2834.86,412 C2604.59,374.75 1897.3199,367.0182 1649.0799,365.4382 " fill="none" id="VER_ALUMNOS-to-NAVEGACION_MENUS" style="stroke:#87CEEB;stroke-width:1;"/><polygon fill="#87CEEB" points="1643.08,365.4,1652.0544,369.4572,1648.0799,365.4318,1652.1053,361.4574,1643.08,365.4" style="stroke:#87CEEB;stroke-width:1;"/><text fill="#000000" font-family="sans-serif" font-size="13" lengthAdjust="spacing" textLength="96.1543" x="3060.86" y="538.0669">Cambiar menú</text></g><!--link VER_RETOS_ALUMNOS to NAVEGACION_MENUS--><g id="link_VER_RETOS_ALUMNOS_NAVEGACION_MENUS"><path d="M2961.71,797.86 C2913,766.62 2813.44,695.49 2763.86,608 C2745.29,575.24 2770.83,554.04 2746.86,525 C2663.25,423.74 2601.96,440.89 2473.86,412 C2317.28,376.69 1845.6196,367.9162 1648.9096,365.7462 " fill="none" id="VER_RETOS_ALUMNOS-to-NAVEGACION_MENUS" style="stroke:#87CEEB;stroke-width:1;"/><polygon fill="#87CEEB" points="1642.91,365.68,1651.8653,369.779,1647.9097,365.7352,1651.9536,361.7795,1642.91,365.68" style="stroke:#87CEEB;stroke-width:1;"/><text fill="#000000" font-family="sans-serif" font-size="13" lengthAdjust="spacing" textLength="96.1543" x="2764.86" y="594.5669">Cambiar menú</text></g><!--link EVALUAR_RETOS to NAVEGACION_MENUS--><g id="link_EVALUAR_RETOS_NAVEGACION_MENUS"><path d="M3116.15,910.85 C3150.48,892.9 3194.86,861.16 3194.86,817 C3194.86,476 3194.86,476 3194.86,476 C3194.86,350.08 3043.7,428.47 2918.86,412 C2670.66,379.25 1908.0697,368.5932 1649.0697,365.8632 " fill="none" id="EVALUAR_RETOS-to-NAVEGACION_MENUS" style="stroke:#87CEEB;stroke-width:1;"/><polygon fill="#87CEEB" points="1643.07,365.8,1652.0273,369.8946,1648.0697,365.8527,1652.1117,361.8951,1643.07,365.8" style="stroke:#87CEEB;stroke-width:1;"/><text fill="#000000" font-family="sans-serif" font-size="13" lengthAdjust="spacing" textLength="96.1543" x="3195.86" y="651.0669">Cambiar menú</text></g><rect fill="#DDDDDD" height="124.0781" id="_legend" rx="7.5" ry="7.5" style="stroke:#000000;stroke-width:1;" width="676.5928" x="2597.4215" y="964.2969"/><text fill="#000000" font-family="sans-serif" font-size="14" lengthAdjust="spacing" textLength="64.3672" x="2602.4215" y="982.292">Leyenda:</text><text fill="#000000" font-family="sans-serif" font-size="14" lengthAdjust="spacing" textLength="626.2061" x="2602.4215" y="998.5889">- Color verde claro (#PaleGreen): Menús y acciones relacionadas con rutinas y ejercicios.</text><text fill="#000000" font-family="sans-serif" font-size="14" lengthAdjust="spacing" textLength="555.9053" x="2602.4215" y="1014.8857">- Color salmón claro (#LightSalmon): Menús y acciones relacionadas con retos.</text><text fill="#000000" font-family="sans-serif" font-size="14" lengthAdjust="spacing" textLength="509.9404" x="2602.4215" y="1031.1826">- Color dorado (#Gold): Menús y acciones relacionadas con clasificación.</text><text fill="#000000" font-family="sans-serif" font-size="14" lengthAdjust="spacing" textLength="523.9336" x="2602.4215" y="1047.4795">- Color coral claro (#LightCoral): Menús y acciones relacionadas con perfil.</text><text fill="#000000" font-family="sans-serif" font-size="14" lengthAdjust="spacing" textLength="666.5928" x="2602.4215" y="1063.7764">- Color azul claro (#SkyBlue): Navegación general entre menús o regreso a la página principal.</text><text fill="#000000" font-family="sans-serif" font-size="14" lengthAdjust="spacing" textLength="594.8633" x="2602.4215" y="1080.0732">- Color amarillo verde (#YellowGreen): Acciones relacionadas con el inicio de sesión.</text><!--SRC=[dLZDSjis4BxpAL3d4FlWF80FdM4OMiEE_WfAdkbqEXw4NAji8485ATVks_GPUklLBzO52920I4OMRudmxRUBtSMtI_-GmrDH0g5nj0cNitby_N9396GrAtSSo4iGV2HV5AJ8YhT_Iv83OLaj95JabG27FPIrgCX15cLM71Y7AkYejkasfCdgXdpu1JWNVyqaGEcSh-dgFavNT1mGpf9b-BYcoJ9Ark4SWVDYztlzcH_1WIt3XtWMHibg-RY8bziKOUctLmt2y1TGllqt5gB2FzBj1jsaZ_5FCOqIv54CQqIUnjEWuuq6w4XInlUY1udcOPhS9v6E2Q4pmVDJp3gczqbxeqX8nbMqwV7hlWaOKtr5ZtLHCfNh-0-G6HP1L5SEKqJZa9huns9UfHjw3XH_IJRdC8slDaTdt9t36O_3i7uUe1wy-7TBOIyr0EevY3YhYgSYOxhDNKyFCTNrZDD-8TLPEDykbgkqmLX8ZtyDygdW_HjOAwS9-hdycOuXL02B9Eq274MPCBy7qOaw1umV472QrRPxAN3Ce2Z1Vsz62CZjhny-8-3RRxS_4lluoHr9bBemIIgeLFQ3ziZ3dsY1jjkX4A4XuwGggXhsBEZ1aCE8WM8vbGfaMR9ds279GKZIL4pTfFcr4JtKE0dshCU03jhELIv690KzHMp_LTsJaQ5tFSZiD6t7hLBlqwddCMYlkh4rz6J98_3RVpmINUYMhv4mZwZfyt42MuU1QbBeggddZMZLUqm8nrAjBcxBuKga2bK2kf2QxWBxzh2b01l7krXy5KQIXQXgULaaFMbrQ9neV4ykWQVoQ1pdHUs4qACVi7Lz6_FEjLEkHg-TTaMkbSIb0foQs3vkIg9xUCp2rN8dSctJkJrLyO6kDsy2IYhqm-Za7MaVG98CEL2odD-7J3pLDvQC7_UbK7gFUY6Kx1kkBa0x1jpdW_GKyYujbh99YwOOmNVpmUa4_0-K9BCneAhLnRCOOV3dXxd7lgZSB3Zdlg79WN_xm3tnyTvyCLQwWfwjZ-eOlC6ZMk0PhTmUY73il3Ip1rFFaRPgHp0Zd97IaVGTb81IHZA1kH8SfTyC2RNMriMVHwWPzfFHDSro5NXISdQkUCO3p_8IQ__bNcXygc0J8vzCq9EE2-q3Louc9cwAxOa6N6BQbuXfTvvawyZ2XB3zvpxnqbDCUm__eZfxwd1fiZ-IERn2cRE00of3JgJQLG9YVxx3VzwYm2YTU0RPA3lAwtMt-TtSsG_DL_n2DZkmDEimot5rKL8ZspMcdPhL9uUymarFoPEbTzQ_TpfGQkWovhYnvOfAZR3tSMJU57N9Cg4rqmrERuJlupteuUVoiR-F7PsfsCsTjtjReNPtS2AGN2sBeX7smzi_EqnhzydX-TWpMN0kJE6ktJyreAzmD5omQwWQ9-RJv5EWkgDfaly1]--></g></svg>