<svg xmlns="http://www.w3.org/2000/svg" xmlns:xlink="http://www.w3.org/1999/xlink" contentStyleType="text/css" height="995px" preserveAspectRatio="none" style="width:3012px;height:995px;background:#FFFFFF;" version="1.1" viewBox="0 0 3012 995" width="3012px" zoomAndPan="magnify"><defs/><g><!--entity PROFESOR--><g id="elem_PROFESOR"><rect fill="#9ACD32" height="38.6211" rx="2.5" ry="2.5" style="stroke:#181818;stroke-width:0.5;" width="98.5654" x="7" y="7"/><text fill="#000000" font-family="sans-serif" font-size="14" lengthAdjust="spacing" textLength="78.5654" x="17" y="32.1074">PROFESOR</text></g><!--entity PAGINA_PRINCIPAL--><g id="elem_PAGINA_PRINCIPAL"><rect fill="#ADD8E6" height="38.6211" rx="2.5" ry="2.5" style="stroke:#181818;stroke-width:0.5;" width="154.5996" x="1422" y="125"/><text fill="#000000" font-family="sans-serif" font-size="14" lengthAdjust="spacing" textLength="134.5996" x="1432" y="150.1074">PAGINA_PRINCIPAL</text></g><!--entity MENU_RUTINAS_EJERCICIOS--><g id="elem_MENU_RUTINAS_EJERCICIOS"><rect fill="#98FB98" height="38.6211" rx="2.5" ry="2.5" style="stroke:#181818;stroke-width:0.5;" width="222.2549" x="1204.5" y="243"/><text fill="#000000" font-family="sans-serif" font-size="14" lengthAdjust="spacing" textLength="202.2549" x="1214.5" y="268.1074">MENU_RUTINAS_EJERCICIOS</text></g><!--entity MENU_RETOS--><g id="elem_MENU_RETOS"><rect fill="#FFA07A" height="38.6211" rx="2.5" ry="2.5" style="stroke:#181818;stroke-width:0.5;" width="117.2344" x="2101" y="361"/><text fill="#000000" font-family="sans-serif" font-size="14" lengthAdjust="spacing" textLength="97.2344" x="2111" y="386.1074">MENU_RETOS</text></g><!--entity MENU_CLASIFICACION--><g id="elem_MENU_CLASIFICACION"><rect fill="#FFD700" height="38.6211" rx="2.5" ry="2.5" style="stroke:#181818;stroke-width:0.5;" width="176.3584" x="2414.5" y="597"/><text fill="#000000" font-family="sans-serif" font-size="14" lengthAdjust="spacing" textLength="156.3584" x="2424.5" y="622.1074">MENU_CLASIFICACION</text></g><!--entity MENU_PERFIL--><g id="elem_MENU_PERFIL"><rect fill="#F08080" height="38.6211" rx="2.5" ry="2.5" style="stroke:#181818;stroke-width:0.5;" width="118.0205" x="547.5" y="479"/><text fill="#000000" font-family="sans-serif" font-size="14" lengthAdjust="spacing" textLength="98.0205" x="557.5" y="504.1074">MENU_PERFIL</text></g><!--entity CREAR_RUTINA--><g id="elem_CREAR_RUTINA"><rect fill="#98FB98" height="38.6211" rx="2.5" ry="2.5" style="stroke:#181818;stroke-width:0.5;" width="128.9033" x="1343" y="361"/><text fill="#000000" font-family="sans-serif" font-size="14" lengthAdjust="spacing" textLength="108.9033" x="1353" y="386.1074">CREAR_RUTINA</text></g><!--entity CREAR_EJERCICIO--><g id="elem_CREAR_EJERCICIO"><rect fill="#98FB98" height="38.6211" rx="2.5" ry="2.5" style="stroke:#181818;stroke-width:0.5;" width="151.4688" x="1588" y="361"/><text fill="#000000" font-family="sans-serif" font-size="14" lengthAdjust="spacing" textLength="131.4688" x="1598" y="386.1074">CREAR_EJERCICIO</text></g><!--entity EDITAR_RUTINA--><g id="elem_EDITAR_RUTINA"><rect fill="#98FB98" height="38.6211" rx="2.5" ry="2.5" style="stroke:#181818;stroke-width:0.5;" width="131.2344" x="585" y="361"/><text fill="#000000" font-family="sans-serif" font-size="14" lengthAdjust="spacing" textLength="111.2344" x="595" y="386.1074">EDITAR_RUTINA</text></g><!--entity EDITAR_EJERCICIO--><g id="elem_EDITAR_EJERCICIO"><rect fill="#98FB98" height="38.6211" rx="2.5" ry="2.5" style="stroke:#181818;stroke-width:0.5;" width="153.7998" x="839.5" y="361"/><text fill="#000000" font-family="sans-serif" font-size="14" lengthAdjust="spacing" textLength="133.7998" x="849.5" y="386.1074">EDITAR_EJERCICIO</text></g><!--entity CREAR_RETOS--><g id="elem_CREAR_RETOS"><rect fill="#FFA07A" height="38.6211" rx="2.5" ry="2.5" style="stroke:#181818;stroke-width:0.5;" width="125.0205" x="1981" y="479"/><text fill="#000000" font-family="sans-serif" font-size="14" lengthAdjust="spacing" textLength="105.0205" x="1991" y="504.1074">CREAR_RETOS</text></g><!--entity EDITAR_RETOS--><g id="elem_EDITAR_RETOS"><rect fill="#FFA07A" height="38.6211" rx="2.5" ry="2.5" style="stroke:#181818;stroke-width:0.5;" width="127.3516" x="2250" y="479"/><text fill="#000000" font-family="sans-serif" font-size="14" lengthAdjust="spacing" textLength="107.3516" x="2260" y="504.1074">EDITAR_RETOS</text></g><!--entity VER_CLASES--><g id="elem_VER_CLASES"><rect fill="#FFD700" height="38.6211" rx="2.5" ry="2.5" style="stroke:#181818;stroke-width:0.5;" width="111.8203" x="2335.5" y="715"/><text fill="#000000" font-family="sans-serif" font-size="14" lengthAdjust="spacing" textLength="91.8203" x="2345.5" y="740.1074">VER_CLASES</text></g><!--entity VER_ALUMNOS_CLASE--><g id="elem_VER_ALUMNOS_CLASE"><rect fill="#FFD700" height="38.6211" rx="2.5" ry="2.5" style="stroke:#181818;stroke-width:0.5;" width="179.5029" x="2399.5" y="833"/><text fill="#000000" font-family="sans-serif" font-size="14" lengthAdjust="spacing" textLength="159.5029" x="2409.5" y="858.1074">VER_ALUMNOS_CLASE</text></g><!--entity CREAR_CLASE--><g id="elem_CREAR_CLASE"><rect fill="#FFE4E1" height="38.6211" rx="2.5" ry="2.5" style="stroke:#181818;stroke-width:0.5;" width="122.7031" x="823" y="597"/><text fill="#000000" font-family="sans-serif" font-size="14" lengthAdjust="spacing" textLength="102.7031" x="833" y="622.1074">CREAR_CLASE</text></g><!--entity MOSTRAR_QR--><g id="elem_MOSTRAR_QR"><rect fill="#FFE4E1" height="38.6211" rx="2.5" ry="2.5" style="stroke:#181818;stroke-width:0.5;" width="118.7861" x="505" y="597"/><text fill="#000000" font-family="sans-serif" font-size="14" lengthAdjust="spacing" textLength="98.7861" x="515" y="622.1074">MOSTRAR_QR</text></g><!--entity VER_MIS_CLASES--><g id="elem_VER_MIS_CLASES"><rect fill="#FFE4E1" height="38.6211" rx="2.5" ry="2.5" style="stroke:#181818;stroke-width:0.5;" width="144.4961" x="284.5" y="597"/><text fill="#000000" font-family="sans-serif" font-size="14" lengthAdjust="spacing" textLength="124.4961" x="294.5" y="622.1074">VER_MIS_CLASES</text></g><!--entity VER_ALUMNOS--><g id="elem_VER_ALUMNOS"><rect fill="#FFE4E1" height="38.6211" rx="2.5" ry="2.5" style="stroke:#181818;stroke-width:0.5;" width="125.8066" x="294.5" y="715"/><text fill="#000000" font-family="sans-serif" font-size="14" lengthAdjust="spacing" textLength="105.8066" x="304.5" y="740.1074">VER_ALUMNOS</text></g><!--entity VER_RETOS_ALUMNOS--><g id="elem_VER_RETOS_ALUMNOS"><rect fill="#FFE4E1" height="38.6211" rx="2.5" ry="2.5" style="stroke:#181818;stroke-width:0.5;" width="181.8203" x="267.5" y="833"/><text fill="#000000" font-family="sans-serif" font-size="14" lengthAdjust="spacing" textLength="161.8203" x="277.5" y="858.1074">VER_RETOS_ALUMNOS</text></g><!--entity EVALUAR_RETOS--><g id="elem_EVALUAR_RETOS"><rect fill="#FFE4E1" height="38.6211" rx="2.5" ry="2.5" style="stroke:#181818;stroke-width:0.5;" width="141.3721" x="288" y="951"/><text fill="#000000" font-family="sans-serif" font-size="14" lengthAdjust="spacing" textLength="121.3721" x="298" y="976.1074">EVALUAR_RETOS</text></g><!--link PROFESOR to PAGINA_PRINCIPAL--><g id="link_PROFESOR_PAGINA_PRINCIPAL"><path d="M106.17,31.49 C319.77,48.66 1155.1193,115.8192 1415.9693,136.7892 " fill="none" id="PROFESOR-to-PAGINA_PRINCIPAL" style="stroke:#000000;stroke-width:1.0;"/><polygon fill="#000000" points="1421.95,137.27,1413.2995,132.5617,1416.9661,136.8693,1412.6584,140.5359,1421.95,137.27" style="stroke:#000000;stroke-width:1.0;"/><text fill="#000000" font-family="sans-serif" font-size="13" lengthAdjust="spacing" textLength="109.8208" x="865.5" y="91.0283">Ingresar al sistema</text></g><!--link PAGINA_PRINCIPAL to MENU_RUTINAS_EJERCICIOS--><g id="link_PAGINA_PRINCIPAL_MENU_RUTINAS_EJERCICIOS"><path d="M1493.07,164.03 C1486.91,179.19 1476.22,200.16 1460.5,213 C1444.36,226.18 1430.1427,233.8283 1410.3327,240.8783 " fill="none" id="PAGINA_PRINCIPAL-to-MENU_RUTINAS_EJERCICIOS" style="stroke:#008000;stroke-width:1.0;"/><polygon fill="#008000" points="1404.68,242.89,1414.5002,243.6409,1409.3906,241.2136,1411.8179,236.104,1404.68,242.89" style="stroke:#008000;stroke-width:1.0;"/><text fill="#000000" font-family="sans-serif" font-size="13" lengthAdjust="spacing" textLength="166.8989" x="1478.5" y="209.0283">Gestionar rutinas y ejercicios</text></g><!--link MENU_RUTINAS_EJERCICIOS to PAGINA_PRINCIPAL--><g id="link_MENU_RUTINAS_EJERCICIOS_PAGINA_PRINCIPAL"><path d="M1307.1,242.94 C1301.81,228.17 1297.79,207.76 1308.5,194 C1322.73,175.7 1369.4915,164.1754 1415.9215,156.4454 " fill="none" id="MENU_RUTINAS_EJERCICIOS-to-PAGINA_PRINCIPAL" style="stroke:#000000;stroke-width:1.0;"/><polygon fill="#000000" points="1421.84,155.46,1412.3053,152.9924,1416.9079,156.2811,1413.6191,160.8837,1421.84,155.46" style="stroke:#000000;stroke-width:1.0;"/><text fill="#000000" font-family="sans-serif" font-size="13" lengthAdjust="spacing" textLength="142.3652" x="1309.5" y="209.0283">Volver a p&#225;gina principal</text></g><!--link PAGINA_PRINCIPAL to MENU_RETOS--><g id="link_PAGINA_PRINCIPAL_MENU_RETOS"><path d="M1577.15,147.05 C1752.49,151.06 2174.59,163.64 2313.5,194 C2372.2,206.83 2405.58,193.41 2439.5,243 C2497.36,327.58 2322.0953,361.0088 2224.0353,373.0488 " fill="none" id="PAGINA_PRINCIPAL-to-MENU_RETOS" style="stroke:#FFA500;stroke-width:1.0;"/><polygon fill="#FFA500" points="2218.08,373.78,2227.5004,376.6534,2223.0427,373.1707,2226.5255,368.713,2218.08,373.78" style="stroke:#FFA500;stroke-width:1.0;"/><text fill="#000000" font-family="sans-serif" font-size="13" lengthAdjust="spacing" textLength="88.8735" x="2451.5" y="268.0283">Gestionar retos</text></g><!--link MENU_RETOS to PAGINA_PRINCIPAL--><g id="link_MENU_RETOS_PAGINA_PRINCIPAL"><path d="M2215.88,360.9 C2242.97,348.91 2266.44,331.87 2250.5,312 C2166.54,207.39 1757.9318,164.8975 1583.2718,151.2475 " fill="none" id="MENU_RETOS-to-PAGINA_PRINCIPAL" style="stroke:#000000;stroke-width:1.0;"/><polygon fill="#000000" points="1577.29,150.78,1585.951,155.4691,1582.2748,151.1696,1586.5743,147.4934,1577.29,150.78" style="stroke:#000000;stroke-width:1.0;"/><text fill="#000000" font-family="sans-serif" font-size="13" lengthAdjust="spacing" textLength="142.3652" x="2210.5" y="268.0283">Volver a p&#225;gina principal</text></g><!--link PAGINA_PRINCIPAL to MENU_CLASIFICACION--><g id="link_PAGINA_PRINCIPAL_MENU_CLASIFICACION"><path d="M1577.25,145.61 C1805.84,146.4 2473.06,152.34 2686.5,194 C2773.63,211.01 2874.5,172.72 2874.5,261.5 C2874.5,261.5 2874.5,261.5 2874.5,499.5 C2874.5,558.69 2706.6077,590.3795 2596.6077,604.9995 " fill="none" id="PAGINA_PRINCIPAL-to-MENU_CLASIFICACION" style="stroke:#DAA520;stroke-width:1.0;"/><polygon fill="#DAA520" points="2590.66,605.79,2600.1085,608.5694,2595.6164,605.1312,2599.0545,600.6391,2590.66,605.79" style="stroke:#DAA520;stroke-width:1.0;"/><text fill="#000000" font-family="sans-serif" font-size="13" lengthAdjust="spacing" textLength="129.3335" x="2875.5" y="386.0283">Consultar clasificaci&#243;n</text></g><!--link MENU_CLASIFICACION to PAGINA_PRINCIPAL--><g id="link_MENU_CLASIFICACION_PAGINA_PRINCIPAL"><path d="M2565.4,597 C2609.46,579.72 2660.5,549.01 2660.5,499.5 C2660.5,261.5 2660.5,261.5 2660.5,261.5 C2660.5,152.3 1842.84,144.7521 1583.03,145.0921 " fill="none" id="MENU_CLASIFICACION-to-PAGINA_PRINCIPAL" style="stroke:#000000;stroke-width:1.0;"/><polygon fill="#000000" points="1577.03,145.1,1586.0352,149.0882,1582.03,145.0935,1586.0248,141.0882,1577.03,145.1" style="stroke:#000000;stroke-width:1.0;"/><text fill="#000000" font-family="sans-serif" font-size="13" lengthAdjust="spacing" textLength="142.3652" x="2661.5" y="386.0283">Volver a p&#225;gina principal</text></g><!--link PAGINA_PRINCIPAL to MENU_PERFIL--><g id="link_PAGINA_PRINCIPAL_MENU_PERFIL"><path d="M1421.77,144.59 C1190.91,143.72 516.92,154.92 381.5,312 C320.35,382.94 459.4381,446.1781 544.4281,476.9381 " fill="none" id="PAGINA_PRINCIPAL-to-MENU_PERFIL" style="stroke:#FF0000;stroke-width:1.0;"/><polygon fill="#FF0000" points="550.07,478.98,542.9685,472.1559,545.3685,477.2784,540.2459,479.6783,550.07,478.98" style="stroke:#FF0000;stroke-width:1.0;"/><text fill="#000000" font-family="sans-serif" font-size="13" lengthAdjust="spacing" textLength="75.8545" x="382.5" y="327.0283">Revisar perfil</text></g><!--link MENU_PERFIL to PAGINA_PRINCIPAL--><g id="link_MENU_PERFIL_PAGINA_PRINCIPAL"><path d="M547.05,492.32 C418.36,478.71 132.29,434.16 218.5,312 C271.27,237.23 325.18,270.37 412.5,243 C491.62,218.2 510.64,207.18 592.5,194 C751.2,168.45 1226.3823,153.0079 1415.7423,147.7079 " fill="none" id="MENU_PERFIL-to-PAGINA_PRINCIPAL" style="stroke:#000000;stroke-width:1.0;"/><polygon fill="#000000" points="1421.74,147.54,1412.6316,143.7934,1416.742,147.6799,1412.8554,151.7902,1421.74,147.54" style="stroke:#000000;stroke-width:1.0;"/><text fill="#000000" font-family="sans-serif" font-size="13" lengthAdjust="spacing" textLength="142.3652" x="219.5" y="327.0283">Volver a p&#225;gina principal</text></g><!--link MENU_RUTINAS_EJERCICIOS to CREAR_RUTINA--><g id="link_MENU_RUTINAS_EJERCICIOS_CREAR_RUTINA"><path d="M1282.31,282.03 C1263.05,295.23 1244.86,313.63 1257.5,331 C1268.05,345.5 1301.2481,356.4495 1336.8481,365.0595 " fill="none" id="MENU_RUTINAS_EJERCICIOS-to-CREAR_RUTINA" style="stroke:#008000;stroke-width:1.0;"/><polygon fill="#008000" points="1342.68,366.47,1334.8725,360.4664,1337.8201,365.2946,1332.9919,368.2422,1342.68,366.47" style="stroke:#008000;stroke-width:1.0;"/><text fill="#000000" font-family="sans-serif" font-size="13" lengthAdjust="spacing" textLength="68.6372" x="1258.5" y="327.0283">Crear rutina</text></g><!--link CREAR_RUTINA to MENU_RUTINAS_EJERCICIOS--><g id="link_CREAR_RUTINA_MENU_RUTINAS_EJERCICIOS"><path d="M1391.78,360.73 C1384.34,351.79 1375.39,340.9 1367.5,331 C1354.5,314.69 1343.6725,300.6455 1333.3125,287.0255 " fill="none" id="CREAR_RUTINA-to-MENU_RUTINAS_EJERCICIOS" style="stroke:#008000;stroke-width:1.0;"/><polygon fill="#008000" points="1329.68,282.25,1331.945,291.8349,1332.707,286.2296,1338.3123,286.9916,1329.68,282.25" style="stroke:#008000;stroke-width:1.0;"/><text fill="#000000" font-family="sans-serif" font-size="13" lengthAdjust="spacing" textLength="197.2471" x="1368.5" y="327.0283">Volver al men&#250; rutinas y ejercicios</text></g><!--link MENU_RUTINAS_EJERCICIOS to CREAR_EJERCICIO--><g id="link_MENU_RUTINAS_EJERCICIOS_CREAR_EJERCICIO"><path d="M1426.58,273.84 C1472.49,280.83 1525.41,292.52 1570.5,312 C1598.15,323.95 1621.0127,341.3525 1638.8227,356.8425 " fill="none" id="MENU_RUTINAS_EJERCICIOS-to-CREAR_EJERCICIO" style="stroke:#008000;stroke-width:1.0;"/><polygon fill="#008000" points="1643.35,360.78,1639.1841,351.8556,1639.5773,357.4987,1633.9341,357.8919,1643.35,360.78" style="stroke:#008000;stroke-width:1.0;"/><text fill="#000000" font-family="sans-serif" font-size="13" lengthAdjust="spacing" textLength="83.8018" x="1604.5" y="327.0283">Crear ejercicio</text></g><!--link CREAR_EJERCICIO to MENU_RUTINAS_EJERCICIOS--><g id="link_CREAR_EJERCICIO_MENU_RUTINAS_EJERCICIOS"><path d="M1682.82,360.99 C1695.68,346.44 1708.1,326.31 1695.5,312 C1677.84,291.94 1538.5044,278.3821 1432.8244,270.7521 " fill="none" id="CREAR_EJERCICIO-to-MENU_RUTINAS_EJERCICIOS" style="stroke:#008000;stroke-width:1.0;"/><polygon fill="#008000" points="1426.84,270.32,1435.5286,274.9577,1431.827,270.6801,1436.1047,266.9785,1426.84,270.32" style="stroke:#008000;stroke-width:1.0;"/><text fill="#000000" font-family="sans-serif" font-size="13" lengthAdjust="spacing" textLength="197.2471" x="1702.5" y="327.0283">Volver al men&#250; rutinas y ejercicios</text></g><!--link MENU_RUTINAS_EJERCICIOS to EDITAR_RUTINA--><g id="link_MENU_RUTINAS_EJERCICIOS_EDITAR_RUTINA"><path d="M1204.3,266.12 C986.63,271.79 523.28,286.76 499.5,312 C493.71,318.15 494.52,324.18 499.5,331 C510.08,345.52 543.2863,356.4371 579.0063,365.0271 " fill="none" id="MENU_RUTINAS_EJERCICIOS-to-EDITAR_RUTINA" style="stroke:#008000;stroke-width:1.0;"/><polygon fill="#008000" points="584.84,366.43,577.0247,360.4365,579.9786,365.2609,575.1542,368.2148,584.84,366.43" style="stroke:#008000;stroke-width:1.0;"/><text fill="#000000" font-family="sans-serif" font-size="13" lengthAdjust="spacing" textLength="70.0908" x="500.5" y="327.0283">Editar rutina</text></g><!--link EDITAR_RUTINA to MENU_RUTINAS_EJERCICIOS--><g id="link_EDITAR_RUTINA_MENU_RUTINAS_EJERCICIOS"><path d="M639.63,360.78 C632.46,345.72 626.42,324.98 638.5,312 C676.16,271.54 1016.2701,264.3719 1198.4701,263.4019 " fill="none" id="EDITAR_RUTINA-to-MENU_RUTINAS_EJERCICIOS" style="stroke:#008000;stroke-width:1.0;"/><polygon fill="#008000" points="1204.47,263.37,1195.4488,259.418,1199.4701,263.3966,1195.4914,267.4179,1204.47,263.37" style="stroke:#008000;stroke-width:1.0;"/><text fill="#000000" font-family="sans-serif" font-size="13" lengthAdjust="spacing" textLength="197.2471" x="639.5" y="327.0283">Volver al men&#250; rutinas y ejercicios</text></g><!--link MENU_RUTINAS_EJERCICIOS to EDITAR_EJERCICIO--><g id="link_MENU_RUTINAS_EJERCICIOS_EDITAR_EJERCICIO"><path d="M1204.29,267.43 C1074.28,273.19 873.78,286.17 850.5,312 C835.14,329.05 851.1679,344.5649 873.5179,357.9049 " fill="none" id="MENU_RUTINAS_EJERCICIOS-to-EDITAR_EJERCICIO" style="stroke:#008000;stroke-width:1.0;"/><polygon fill="#008000" points="878.67,360.98,872.992,352.9326,874.3766,358.4174,868.8918,359.8021,878.67,360.98" style="stroke:#008000;stroke-width:1.0;"/><text fill="#000000" font-family="sans-serif" font-size="13" lengthAdjust="spacing" textLength="85.2554" x="851.5" y="327.0283">Editar ejercicio</text></g><!--link EDITAR_EJERCICIO to MENU_RUTINAS_EJERCICIOS--><g id="link_EDITAR_EJERCICIO_MENU_RUTINAS_EJERCICIOS"><path d="M928.03,360.72 C938.78,344.96 956.31,323.28 977.5,312 C1015.9,291.56 1115.3633,279.1478 1198.3733,271.8178 " fill="none" id="EDITAR_EJERCICIO-to-MENU_RUTINAS_EJERCICIOS" style="stroke:#008000;stroke-width:1.0;"/><polygon fill="#008000" points="1204.35,271.29,1195.033,268.0971,1199.3694,271.7298,1195.7367,276.0661,1204.35,271.29" style="stroke:#008000;stroke-width:1.0;"/><text fill="#000000" font-family="sans-serif" font-size="13" lengthAdjust="spacing" textLength="197.2471" x="978.5" y="327.0283">Volver al men&#250; rutinas y ejercicios</text></g><!--link MENU_RUTINAS_EJERCICIOS to MENU_RETOS--><g id="link_MENU_RUTINAS_EJERCICIOS_MENU_RETOS"><path d="M1426.52,264.4 C1633.56,266.93 2062.96,276.44 2120.5,312 C2138.12,322.89 2146.6265,339.2073 2152.2065,355.1373 " fill="none" id="MENU_RUTINAS_EJERCICIOS-to-MENU_RETOS" style="stroke:#FFA500;stroke-width:1.0;"/><polygon fill="#FFA500" points="2154.19,360.8,2154.9898,350.9837,2152.5371,356.0811,2147.4396,353.6284,2154.19,360.8" style="stroke:#FFA500;stroke-width:1.0;"/><text fill="#000000" font-family="sans-serif" font-size="13" lengthAdjust="spacing" textLength="103.3271" x="2138.5" y="327.0283">Cambiar de men&#250;</text></g><!--link MENU_RETOS to MENU_RUTINAS_EJERCICIOS--><g id="link_MENU_RETOS_MENU_RUTINAS_EJERCICIOS"><path d="M2100.97,364.2 C2072.23,355.85 2037.44,344.45 2007.5,331 C1992.41,324.22 1991.28,316.96 1975.5,312 C1876.31,280.82 1593.4482,269.6278 1432.7082,265.6678 " fill="none" id="MENU_RETOS-to-MENU_RUTINAS_EJERCICIOS" style="stroke:#008000;stroke-width:1.0;"/><polygon fill="#008000" points="1426.71,265.52,1435.6088,269.7404,1431.7085,265.6431,1435.8058,261.7429,1426.71,265.52" style="stroke:#008000;stroke-width:1.0;"/><text fill="#000000" font-family="sans-serif" font-size="13" lengthAdjust="spacing" textLength="103.3271" x="2008.5" y="327.0283">Cambiar de men&#250;</text></g><!--link MENU_RUTINAS_EJERCICIOS to MENU_CLASIFICACION--><g id="link_MENU_RUTINAS_EJERCICIOS_MENU_CLASIFICACION"><path d="M1426.51,264.63 C1589.18,267.46 1876.58,277.37 1908.5,312 C1914.22,318.21 1913.05,323.89 1908.5,331 C1904.95,336.54 1697.05,424.46 1693.5,430 C1688.95,437.11 1688.32,442.33 1693.5,449 C1781.23,561.97 2217.5404,599.6262 2408.5104,610.9062 " fill="none" id="MENU_RUTINAS_EJERCICIOS-to-MENU_CLASIFICACION" style="stroke:#DAA520;stroke-width:1.0;"/><polygon fill="#DAA520" points="2414.5,611.26,2405.7515,606.7363,2409.5087,610.9652,2405.2798,614.7224,2414.5,611.26" style="stroke:#DAA520;stroke-width:1.0;"/><text fill="#000000" font-family="sans-serif" font-size="13" lengthAdjust="spacing" textLength="103.3271" x="1694.5" y="445.0283">Cambiar de men&#250;</text></g><!--link MENU_RUTINAS_EJERCICIOS to MENU_PERFIL--><g id="link_MENU_RUTINAS_EJERCICIOS_MENU_PERFIL"><path d="M1204.43,263.93 C992.47,265.62 546.04,273.75 487.5,312 C453.46,334.24 443.44,364.08 462.5,400 C482.45,437.6 518.6712,460.8263 552.0712,476.3863 " fill="none" id="MENU_RUTINAS_EJERCICIOS-to-MENU_PERFIL" style="stroke:#FF0000;stroke-width:1.0;"/><polygon fill="#FF0000" points="557.51,478.92,551.041,471.4935,552.9777,476.8085,547.6627,478.7452,557.51,478.92" style="stroke:#FF0000;stroke-width:1.0;"/><text fill="#000000" font-family="sans-serif" font-size="13" lengthAdjust="spacing" textLength="103.3271" x="463.5" y="386.0283">Cambiar de men&#250;</text></g><!--link MENU_PERFIL to MENU_RUTINAS_EJERCICIOS--><g id="link_MENU_PERFIL_MENU_RUTINAS_EJERCICIOS"><path d="M665.8,486.07 C745.23,470.12 890.13,438.72 1010.5,400 C1088.13,375.03 1106.2,364.59 1180.5,331 C1214.88,315.46 1247.973,298.801 1275.003,284.791 " fill="none" id="MENU_PERFIL-to-MENU_RUTINAS_EJERCICIOS" style="stroke:#008000;stroke-width:1.0;"/><polygon fill="#008000" points="1280.33,282.03,1270.4988,282.6202,1275.8909,284.3309,1274.1802,289.7229,1280.33,282.03" style="stroke:#008000;stroke-width:1.0;"/><text fill="#000000" font-family="sans-serif" font-size="13" lengthAdjust="spacing" textLength="103.3271" x="1115.5" y="386.0283">Cambiar de men&#250;</text></g><!--link MENU_RETOS to CREAR_RETOS--><g id="link_MENU_RETOS_CREAR_RETOS"><path d="M2148.89,400.29 C2140.25,414.62 2127.11,434.33 2112.5,449 C2101.34,460.21 2092.3246,467.2803 2079.8346,475.5403 " fill="none" id="MENU_RETOS-to-CREAR_RETOS" style="stroke:#FFA500;stroke-width:1.0;"/><polygon fill="#FFA500" points="2074.83,478.85,2084.5434,477.2219,2079.0005,476.0919,2080.1304,470.5491,2074.83,478.85" style="stroke:#FFA500;stroke-width:1.0;"/><text fill="#000000" font-family="sans-serif" font-size="13" lengthAdjust="spacing" textLength="65.019" x="2129.5" y="445.0283">Crear retos</text></g><!--link CREAR_RETOS to MENU_RETOS--><g id="link_CREAR_RETOS_MENU_RETOS"><path d="M2009.08,478.95 C1989.12,465.75 1970.29,447.34 1983.5,430 C1997.86,411.15 2049.558,398.8037 2095.008,390.9337 " fill="none" id="CREAR_RETOS-to-MENU_RETOS" style="stroke:#FFA500;stroke-width:1.0;"/><polygon fill="#FFA500" points="2100.92,389.91,2091.3695,387.5042,2095.9933,390.7631,2092.7344,395.3869,2100.92,389.91" style="stroke:#FFA500;stroke-width:1.0;"/><text fill="#000000" font-family="sans-serif" font-size="13" lengthAdjust="spacing" textLength="119.2217" x="1984.5" y="445.0283">Volver al men&#250; retos</text></g><!--link MENU_RETOS to EDITAR_RETOS--><g id="link_MENU_RETOS_EDITAR_RETOS"><path d="M2218.13,386.2 C2276.58,392.25 2360.47,405.09 2380.5,430 C2394.68,447.63 2379.6441,462.6483 2357.8141,475.6583 " fill="none" id="MENU_RETOS-to-EDITAR_RETOS" style="stroke:#FFA500;stroke-width:1.0;"/><polygon fill="#FFA500" points="2352.66,478.73,2362.4389,477.5585,2356.9551,476.1703,2358.3434,470.6864,2352.66,478.73" style="stroke:#FFA500;stroke-width:1.0;"/><text fill="#000000" font-family="sans-serif" font-size="13" lengthAdjust="spacing" textLength="66.4727" x="2385.5" y="445.0283">Editar retos</text></g><!--link EDITAR_RETOS to MENU_RETOS--><g id="link_EDITAR_RETOS_MENU_RETOS"><path d="M2288.82,478.91 C2260.11,457.28 2217.7732,425.3891 2189.0332,403.7491 " fill="none" id="EDITAR_RETOS-to-MENU_RETOS" style="stroke:#FFA500;stroke-width:1.0;"/><polygon fill="#FFA500" points="2184.24,400.14,2189.0237,408.7491,2188.2343,403.1476,2193.8358,402.3581,2184.24,400.14" style="stroke:#FFA500;stroke-width:1.0;"/><text fill="#000000" font-family="sans-serif" font-size="13" lengthAdjust="spacing" textLength="119.2217" x="2246.5" y="445.0283">Volver al men&#250; retos</text></g><!--link MENU_RETOS to MENU_PERFIL--><g id="link_MENU_RETOS_MENU_PERFIL"><path d="M2100.97,388.56 C2041.27,396.36 1946.2,410.46 1865.5,430 C1838.73,436.48 1833.62,444.18 1806.5,449 C1583.64,488.63 881.5999,495.8826 671.6899,497.1926 " fill="none" id="MENU_RETOS-to-MENU_PERFIL" style="stroke:#FF0000;stroke-width:1.0;"/><polygon fill="#FF0000" points="665.69,497.23,674.7148,501.1738,670.6899,497.1988,674.6649,493.1739,665.69,497.23" style="stroke:#FF0000;stroke-width:1.0;"/><text fill="#000000" font-family="sans-serif" font-size="13" lengthAdjust="spacing" textLength="103.3271" x="1866.5" y="445.0283">Cambiar de men&#250;</text></g><!--link MENU_PERFIL to MENU_RETOS--><g id="link_MENU_PERFIL_MENU_RETOS"><path d="M665.6,493.09 C911.97,474.68 1849.7567,404.637 2095.0067,386.317 " fill="none" id="MENU_PERFIL-to-MENU_RETOS" style="stroke:#FFA500;stroke-width:1.0;"/><polygon fill="#FFA500" points="2100.99,385.87,2091.717,382.5515,2096.0039,386.2425,2092.313,390.5293,2100.99,385.87" style="stroke:#FFA500;stroke-width:1.0;"/><text fill="#000000" font-family="sans-serif" font-size="13" lengthAdjust="spacing" textLength="103.3271" x="1477.5" y="445.0283">Cambiar de men&#250;</text></g><!--link MENU_RETOS to MENU_CLASIFICACION--><g id="link_MENU_RETOS_MENU_CLASIFICACION"><path d="M2218.05,383.34 C2295.53,387.02 2426.35,397.93 2460.5,430 C2507.56,474.19 2507.6818,553.0863 2504.9018,590.7363 " fill="none" id="MENU_RETOS-to-MENU_CLASIFICACION" style="stroke:#DAA520;stroke-width:1.0;"/><polygon fill="#DAA520" points="2504.46,596.72,2509.1119,588.039,2504.8282,591.7336,2501.1336,587.4499,2504.46,596.72" style="stroke:#DAA520;stroke-width:1.0;"/><text fill="#000000" font-family="sans-serif" font-size="13" lengthAdjust="spacing" textLength="103.3271" x="2501.5" y="504.0283">Cambiar de men&#250;</text></g><!--link MENU_CLASIFICACION to VER_CLASES--><g id="link_MENU_CLASIFICACION_VER_CLASES"><path d="M2494.55,636.18 C2487.77,650.63 2476.98,670.55 2463.5,685 C2452.7,696.57 2443.7313,703.6193 2430.9113,711.6693 " fill="none" id="MENU_CLASIFICACION-to-VER_CLASES" style="stroke:#DAA520;stroke-width:1.0;"/><polygon fill="#DAA520" points="2425.83,714.86,2435.5791,713.4615,2430.0644,712.2011,2431.3248,706.6865,2425.83,714.86" style="stroke:#DAA520;stroke-width:1.0;"/><text fill="#000000" font-family="sans-serif" font-size="13" lengthAdjust="spacing" textLength="60.6899" x="2478.5" y="681.0283">Ver clases</text></g><!--link VER_CLASES to MENU_CLASIFICACION--><g id="link_VER_CLASES_MENU_CLASIFICACION"><path d="M2335.23,717.28 C2304.56,705.54 2276.09,687.92 2293.5,666 C2308.85,646.68 2358.3647,635.2485 2408.2947,627.8585 " fill="none" id="VER_CLASES-to-MENU_CLASIFICACION" style="stroke:#DAA520;stroke-width:1.0;"/><polygon fill="#DAA520" points="2414.23,626.98,2404.7413,624.3408,2409.2839,627.7121,2405.9126,632.2546,2414.23,626.98" style="stroke:#DAA520;stroke-width:1.0;"/><text fill="#000000" font-family="sans-serif" font-size="13" lengthAdjust="spacing" textLength="160.4053" x="2294.5" y="681.0283">Volver al men&#250; clasificaci&#243;n</text></g><!--link VER_CLASES to VER_ALUMNOS_CLASE--><g id="link_VER_CLASES_VER_ALUMNOS_CLASE"><path d="M2385.26,754.15 C2381.64,768.59 2379.38,788.5 2388.5,803 C2396.79,816.17 2404.412,823.1299 2418.332,830.2099 " fill="none" id="VER_CLASES-to-VER_ALUMNOS_CLASE" style="stroke:#DAA520;stroke-width:1.0;"/><polygon fill="#DAA520" points="2423.68,832.93,2417.4714,825.2845,2419.2233,830.6632,2413.8446,832.4152,2423.68,832.93" style="stroke:#DAA520;stroke-width:1.0;"/><text fill="#000000" font-family="sans-serif" font-size="13" lengthAdjust="spacing" textLength="171.9834" x="2389.5" y="799.0283">Ver alumnos dentro de clases</text></g><!--link VER_ALUMNOS_CLASE to MENU_CLASIFICACION--><g id="link_VER_ALUMNOS_CLASE_MENU_CLASIFICACION"><path d="M2534.59,832.84 C2546.82,825.44 2558.58,815.63 2565.5,803 C2595.02,749.15 2574.19,721.31 2547.5,666 C2542.11,654.83 2537.5481,648.6467 2529.1081,640.3867 " fill="none" id="VER_ALUMNOS_CLASE-to-MENU_CLASIFICACION" style="stroke:#DAA520;stroke-width:1.0;"/><polygon fill="#DAA520" points="2524.82,636.19,2528.4544,645.3437,2528.3934,639.6872,2534.05,639.6263,2524.82,636.19" style="stroke:#DAA520;stroke-width:1.0;"/><text fill="#000000" font-family="sans-serif" font-size="13" lengthAdjust="spacing" textLength="160.4053" x="2580.5" y="740.0283">Volver al men&#250; clasificaci&#243;n</text></g><!--link MENU_PERFIL to CREAR_CLASE--><g id="link_MENU_PERFIL_CREAR_CLASE"><path d="M665.66,511.28 C700.07,519.27 743.77,531.43 780.5,548 C809.74,561.19 835.3419,578.3277 855.6719,593.3277 " fill="none" id="MENU_PERFIL-to-CREAR_CLASE" style="stroke:#FFE4E1;stroke-width:1.0;"/><polygon fill="#FFE4E1" points="860.5,596.89,855.6327,588.3279,856.4766,593.9214,850.8831,594.7653,860.5,596.89" style="stroke:#FFE4E1;stroke-width:1.0;"/><text fill="#000000" font-family="sans-serif" font-size="13" lengthAdjust="spacing" textLength="66.4663" x="815.5" y="563.0283">Crear clase</text></g><!--link CREAR_CLASE to MENU_PERFIL--><g id="link_CREAR_CLASE_MENU_PERFIL"><path d="M892.8,596.7 C897.97,581.79 901.73,561.31 890.5,548 C862.32,514.6 746.2744,504.4602 671.6444,501.2202 " fill="none" id="CREAR_CLASE-to-MENU_PERFIL" style="stroke:#FF0000;stroke-width:1.0;"/><polygon fill="#FF0000" points="665.65,500.96,674.468,505.3466,670.6453,501.1769,674.815,497.3541,665.65,500.96" style="stroke:#FF0000;stroke-width:1.0;"/><text fill="#000000" font-family="sans-serif" font-size="13" lengthAdjust="spacing" textLength="82.3672" x="899.5" y="563.0283">Volver al perfil</text></g><!--link MENU_PERFIL to MOSTRAR_QR--><g id="link_MENU_PERFIL_MOSTRAR_QR"><path d="M599.75,518.14 C591.91,539.78 581.1023,569.6383 573.2723,591.2683 " fill="none" id="MENU_PERFIL-to-MOSTRAR_QR" style="stroke:#FFE4E1;stroke-width:1.0;"/><polygon fill="#FFE4E1" points="571.23,596.91,578.0546,589.8089,572.9319,592.2086,570.5323,587.0859,571.23,596.91" style="stroke:#FFE4E1;stroke-width:1.0;"/><text fill="#000000" font-family="sans-serif" font-size="13" lengthAdjust="spacing" textLength="182.0762" x="589.5" y="563.0283">Mostrar QR en centro deportivo</text></g><!--link MOSTRAR_QR to MENU_PERFIL--><g id="link_MOSTRAR_QR_MENU_PERFIL"><path d="M521.35,596.97 C499.01,584.6 478.81,567.13 491.5,548 C504.2,528.86 520.4023,519.1405 541.7023,512.1105 " fill="none" id="MOSTRAR_QR-to-MENU_PERFIL" style="stroke:#FF0000;stroke-width:1.0;"/><polygon fill="#FF0000" points="547.4,510.23,537.5998,509.2523,542.6519,511.7971,540.1071,516.8492,547.4,510.23" style="stroke:#FF0000;stroke-width:1.0;"/><text fill="#000000" font-family="sans-serif" font-size="13" lengthAdjust="spacing" textLength="82.3672" x="492.5" y="563.0283">Volver al perfil</text></g><!--link MENU_PERFIL to VER_MIS_CLASES--><g id="link_MENU_PERFIL_VER_MIS_CLASES"><path d="M547.18,500.4 C501.41,503.88 438.67,515.01 394.5,548 C378.23,560.15 370.0123,575.8229 364.3023,591.2529 " fill="none" id="MENU_PERFIL-to-VER_MIS_CLASES" style="stroke:#FFE4E1;stroke-width:1.0;"/><polygon fill="#FFE4E1" points="362.22,596.88,369.0949,589.8276,363.9553,592.1908,361.5921,587.0512,362.22,596.88" style="stroke:#FFE4E1;stroke-width:1.0;"/><text fill="#000000" font-family="sans-serif" font-size="13" lengthAdjust="spacing" textLength="84.519" x="395.5" y="563.0283">Ver mis clases</text></g><!--link MENU_PERFIL to PROFESOR--><g id="link_MENU_PERFIL_PROFESOR"><path d="M547.26,498.04 C399.69,497.78 27.5,486.71 27.5,381.5 C27.5,143.5 27.5,143.5 27.5,143.5 C27.5,108.21 38.1591,74.2488 46.7491,51.6388 " fill="none" id="MENU_PERFIL-to-PROFESOR" style="stroke:#8B0000;stroke-width:1.0;"/><polygon fill="#8B0000" points="48.88,46.03,41.9444,53.0227,47.1042,50.704,49.4229,55.8639,48.88,46.03" style="stroke:#8B0000;stroke-width:1.0;"/><text fill="#000000" font-family="sans-serif" font-size="13" lengthAdjust="spacing" textLength="78.0254" x="28.5" y="268.0283">Cerrar sesi&#243;n</text></g><!--link MENU_PERFIL to MENU_CLASIFICACION--><g id="link_MENU_PERFIL_MENU_CLASIFICACION"><path d="M665.65,504.02 C816.34,515.45 1226.98,546.09 1569.5,567 C1879.94,585.95 2242.7765,603.4402 2408.3565,611.1702 " fill="none" id="MENU_PERFIL-to-MENU_CLASIFICACION" style="stroke:#DAA520;stroke-width:1.0;"/><polygon fill="#DAA520" points="2414.35,611.45,2405.5463,607.0346,2409.3554,611.2168,2405.1733,615.0259,2414.35,611.45" style="stroke:#DAA520;stroke-width:1.0;"/><text fill="#000000" font-family="sans-serif" font-size="13" lengthAdjust="spacing" textLength="103.3271" x="1570.5" y="563.0283">Cambiar de men&#250;</text></g><!--link VER_MIS_CLASES to VER_ALUMNOS--><g id="link_VER_MIS_CLASES_VER_ALUMNOS"><path d="M376.14,636.44 C383.38,644.74 390.73,655.08 394.5,666 C400.52,683.43 393.2681,697.1984 381.6481,710.3184 " fill="none" id="VER_MIS_CLASES-to-VER_ALUMNOS" style="stroke:#FFE4E1;stroke-width:1.0;"/><polygon fill="#FFE4E1" points="377.67,714.81,386.6316,710.7246,380.9851,711.067,380.6427,705.4205,377.67,714.81" style="stroke:#FFE4E1;stroke-width:1.0;"/><text fill="#000000" font-family="sans-serif" font-size="13" lengthAdjust="spacing" textLength="72.979" x="397.5" y="681.0283">Ver alumnos</text></g><!--link VER_ALUMNOS to VER_MIS_CLASES--><g id="link_VER_ALUMNOS_VER_MIS_CLASES"><path d="M306.03,714.83 C293.15,707.58 280.91,697.83 273.5,685 C261.71,664.57 276.6712,650.4787 300.1612,638.7587 " fill="none" id="VER_ALUMNOS-to-VER_MIS_CLASES" style="stroke:#FFE4E1;stroke-width:1.0;"/><polygon fill="#FFE4E1" points="305.53,636.08,295.6909,636.5188,301.056,638.3123,299.2625,643.6773,305.53,636.08" style="stroke:#FFE4E1;stroke-width:1.0;"/><text fill="#000000" font-family="sans-serif" font-size="13" lengthAdjust="spacing" textLength="111.979" x="274.5" y="681.0283">Volver a mis clases</text></g><!--link VER_ALUMNOS to VER_RETOS_ALUMNOS--><g id="link_VER_ALUMNOS_VER_RETOS_ALUMNOS"><path d="M312.08,754 C290.03,765.95 270.46,782.99 281.5,803 C288.52,815.73 295.287,822.4965 307.677,829.8865 " fill="none" id="VER_ALUMNOS-to-VER_RETOS_ALUMNOS" style="stroke:#FFE4E1;stroke-width:1.0;"/><polygon fill="#FFE4E1" points="312.83,832.96,307.1495,824.9144,308.5358,830.3987,303.0515,831.7851,312.83,832.96" style="stroke:#FFE4E1;stroke-width:1.0;"/><text fill="#000000" font-family="sans-serif" font-size="13" lengthAdjust="spacing" textLength="105.4917" x="282.5" y="799.0283">Ver retos alumnos</text></g><!--link VER_RETOS_ALUMNOS to VER_ALUMNOS--><g id="link_VER_RETOS_ALUMNOS_VER_ALUMNOS"><path d="M376.83,832.97 C387.6,819.76 398.11,801.36 392.5,784 C388.99,773.13 385.7964,767.3206 379.0064,758.9006 " fill="none" id="VER_RETOS_ALUMNOS-to-VER_ALUMNOS" style="stroke:#FFE4E1;stroke-width:1.0;"/><polygon fill="#FFE4E1" points="375.24,754.23,377.7759,763.7468,378.3787,758.1221,384.0033,758.7249,375.24,754.23" style="stroke:#FFE4E1;stroke-width:1.0;"/><text fill="#000000" font-family="sans-serif" font-size="13" lengthAdjust="spacing" textLength="100.439" x="395.5" y="799.0283">Volver a alumnos</text></g><!--link VER_RETOS_ALUMNOS to EVALUAR_RETOS--><g id="link_VER_RETOS_ALUMNOS_EVALUAR_RETOS"><path d="M305.38,872.17 C292.36,879.4 280.02,889.12 272.5,902 C260.44,922.65 275.6754,936.7142 299.7554,948.3242 " fill="none" id="VER_RETOS_ALUMNOS-to-EVALUAR_RETOS" style="stroke:#FFE4E1;stroke-width:1.0;"/><polygon fill="#FFE4E1" points="305.16,950.93,298.7903,943.4182,300.6562,948.7585,295.3159,950.6244,305.16,950.93" style="stroke:#FFE4E1;stroke-width:1.0;"/><text fill="#000000" font-family="sans-serif" font-size="13" lengthAdjust="spacing" textLength="124.2681" x="273.5" y="917.0283">Evaluar/calificar retos</text></g><!--link EVALUAR_RETOS to VER_RETOS_ALUMNOS--><g id="link_EVALUAR_RETOS_VER_RETOS_ALUMNOS"><path d="M381.65,950.64 C389.87,942.49 398.16,932.24 402.5,921 C409.4,903.12 400.6644,889.1779 387.0144,876.2379 " fill="none" id="EVALUAR_RETOS-to-VER_RETOS_ALUMNOS" style="stroke:#FFE4E1;stroke-width:1.0;"/><polygon fill="#FFE4E1" points="382.66,872.11,386.4396,881.2047,386.2886,875.5499,391.9435,875.3989,382.66,872.11" style="stroke:#FFE4E1;stroke-width:1.0;"/><text fill="#000000" font-family="sans-serif" font-size="13" lengthAdjust="spacing" textLength="132.9517" x="405.5" y="917.0283">Volver a retos alumnos</text></g><!--SRC=[jLRBRjim4BphAzZaqEOGzDv30KLH31L-bN8254KHCF8cPKDB1YMxoUVq6thhDJ_MfIXHf6p9ZxH7GRF3uN1doJTpkESf41e6Ctyy68Rldiw8XAHWwOC0ykHvRycbWl24l_nEoHm8IufCGawU2GXOG5faELbAdYPyoGJaNaCrfPEhC9xGCtBw1OJ8VWuaG6e3_44qzc-dD1e7qTGV8d387xuN5s85QkKHf2z_kjX7uVZwbbxFa26-3J-5D8Y2Q18ZnnIHxQKqEfoLW7AHc8b5jW49XduSNKM1ZrnZX0uoCMzZfY6zYepO89DCABNnwcwX1J-ZIGdFKaTlG4EVLe8xH6g8sKi7AhoCPhkOAimkgafJhotrShsWcv2MreNnfcVgdp-y7eqdiSPiGhIE-kU8vyKppNAmZP_4CugOpxG3e5OPHN6ZeWjKIUb1b5lTWGjlyBzbIuF1Jg0Wc3v_ftVhF93phwSNY7ZyTlwHj3D0Ff0eVS20CKcO83dome8Hpzi08ajvdegb8mn8De2yG2d89bS5JraPt1yW4qmq9dShxKHY_A7XLNjqgQ3egbKd2odDvgRSYHJI15cQhqI1D8bWER_d2TF3PIiVXOP91myfAAovCcW9yfuBOcO5EQ5caw7Pv8dNPOzjePrFfLA2yOmSG61-6WxZzduqJhoH99ppua0bxVGtB9OMPx_xzT9D9jPGjcKvw3ewgkt3l-HspVaFpFz7Ti-XTMGjO8ixZWU65wucxZtutPaxX6vhv3OPhD2fSL2dhDo0ip7hbcc2fIT8LubzwLWPq4KsNxU36oUZYntcWwjTlNiQvHOTVrYQmVHbNrlsdLRWJDtgs5mDRPdDzQwi0JsvyNRph1_RQfnhlofbOhL8qKj45Z9J2cqojs8lkzf7rRvLUZGUnTSuEIsldyh1gW5m2VCMQ9g_Da0tVxbXqblMl7UmQfJbXSGw_82K9BLnoqmMV9tr4xdlekeC5ZmthhUABvbyhFhQl5TGDqWb00kq1wsYmuPOKtTq5YoAtJDwInXQhcmphUh4LjVQJRgrp7ayLiLwU3WKBgnDvBmkrVnROp6JxnCcoauqez05xgMdwkx3HRLCgNdsTiRjmhhSRaNF3alNV6tYMR_-hAmSKDHz__MzpOtkvSkl1_KWCm_yzfn_5Sl6E7uLMvEM8sd-0W00]--></g></svg>