<svg xmlns="http://www.w3.org/2000/svg" xmlns:xlink="http://www.w3.org/1999/xlink" contentStyleType="text/css" height="1166px" preserveAspectRatio="none" style="width:2775px;height:1166px;background:#FFFFFF;" version="1.1" viewBox="0 0 2775 1166" width="2775px" zoomAndPan="magnify"><defs/><g><!--entity USUARIO--><g id="elem_USUARIO"><rect fill="#9ACD32" height="38.6211" rx="2.5" ry="2.5" style="stroke:#181818;stroke-width:0.5;" width="83.7861" x="1472" y="7"/><text fill="#000000" font-family="sans-serif" font-size="14" lengthAdjust="spacing" textLength="63.7861" x="1482" y="32.1074">USUARIO</text></g><!--entity PROFESOR--><g id="elem_PROFESOR"><rect fill="#9ACD32" height="38.6211" rx="2.5" ry="2.5" style="stroke:#181818;stroke-width:0.5;" width="98.5654" x="1464.5" y="125"/><text fill="#000000" font-family="sans-serif" font-size="14" lengthAdjust="spacing" textLength="78.5654" x="1474.5" y="150.1074">PROFESOR</text></g><!--entity PAGINA_PRINCIPAL--><g id="elem_PAGINA_PRINCIPAL"><rect fill="#ADD8E6" height="38.6211" rx="2.5" ry="2.5" style="stroke:#181818;stroke-width:0.5;" width="154.5996" x="1436.5" y="243"/><text fill="#000000" font-family="sans-serif" font-size="14" lengthAdjust="spacing" textLength="134.5996" x="1446.5" y="268.1074">PAGINA_PRINCIPAL</text></g><!--entity NAVEGACION_MENUS--><g id="elem_NAVEGACION_MENUS"><rect fill="#87CEEB" height="38.6211" rx="2.5" ry="2.5" style="stroke:#181818;stroke-width:0.5;" width="171.6963" x="1210" y="361"/><text fill="#000000" font-family="sans-serif" font-size="14" lengthAdjust="spacing" textLength="151.6963" x="1220" y="386.1074">NAVEGACION_MENUS</text></g><!--entity MENU_RUTINAS_EJERCICIOS--><g id="elem_MENU_RUTINAS_EJERCICIOS"><rect fill="#98FB98" height="38.6211" rx="2.5" ry="2.5" style="stroke:#181818;stroke-width:0.5;" width="222.2549" x="263" y="479"/><text fill="#000000" font-family="sans-serif" font-size="14" lengthAdjust="spacing" textLength="202.2549" x="273" y="504.1074">MENU_RUTINAS_EJERCICIOS</text></g><!--entity MENU_RETOS--><g id="elem_MENU_RETOS"><rect fill="#FFA07A" height="38.6211" rx="2.5" ry="2.5" style="stroke:#181818;stroke-width:0.5;" width="117.2344" x="1518.5" y="479"/><text fill="#000000" font-family="sans-serif" font-size="14" lengthAdjust="spacing" textLength="97.2344" x="1528.5" y="504.1074">MENU_RETOS</text></g><!--entity MENU_CLASIFICACION--><g id="elem_MENU_CLASIFICACION"><rect fill="#FFD700" height="38.6211" rx="2.5" ry="2.5" style="stroke:#181818;stroke-width:0.5;" width="176.3584" x="2142" y="479"/><text fill="#000000" font-family="sans-serif" font-size="14" lengthAdjust="spacing" textLength="156.3584" x="2152" y="504.1074">MENU_CLASIFICACION</text></g><!--entity MENU_PERFIL--><g id="elem_MENU_PERFIL"><rect fill="#F08080" height="38.6211" rx="2.5" ry="2.5" style="stroke:#181818;stroke-width:0.5;" width="118.0205" x="2510" y="479"/><text fill="#000000" font-family="sans-serif" font-size="14" lengthAdjust="spacing" textLength="98.0205" x="2520" y="504.1074">MENU_PERFIL</text></g><!--entity CREAR_RUTINA--><g id="elem_CREAR_RUTINA"><rect fill="#98FB98" height="38.6211" rx="2.5" ry="2.5" style="stroke:#181818;stroke-width:0.5;" width="128.9033" x="313.5" y="597"/><text fill="#000000" font-family="sans-serif" font-size="14" lengthAdjust="spacing" textLength="108.9033" x="323.5" y="622.1074">CREAR_RUTINA</text></g><!--entity MOSTRAR_RUTINA--><g id="elem_MOSTRAR_RUTINA"><rect fill="#98FB98" height="38.6211" rx="2.5" ry="2.5" style="stroke:#181818;stroke-width:0.5;" width="149.8965" x="7" y="597"/><text fill="#000000" font-family="sans-serif" font-size="14" lengthAdjust="spacing" textLength="129.8965" x="17" y="622.1074">MOSTRAR_RUTINA</text></g><!--entity EDITAR_RUTINA--><g id="elem_EDITAR_RUTINA"><rect fill="#98FB98" height="38.6211" rx="2.5" ry="2.5" style="stroke:#181818;stroke-width:0.5;" width="131.2344" x="97.5" y="715"/><text fill="#000000" font-family="sans-serif" font-size="14" lengthAdjust="spacing" textLength="111.2344" x="107.5" y="740.1074">EDITAR_RUTINA</text></g><!--entity CREAR_EJERCICIO--><g id="elem_CREAR_EJERCICIO"><rect fill="#98FB98" height="38.6211" rx="2.5" ry="2.5" style="stroke:#181818;stroke-width:0.5;" width="151.4688" x="557.5" y="597"/><text fill="#000000" font-family="sans-serif" font-size="14" lengthAdjust="spacing" textLength="131.4688" x="567.5" y="622.1074">CREAR_EJERCICIO</text></g><!--entity MOSTRAR_EJERCICIO--><g id="elem_MOSTRAR_EJERCICIO"><rect fill="#98FB98" height="38.6211" rx="2.5" ry="2.5" style="stroke:#181818;stroke-width:0.5;" width="172.4619" x="855" y="597"/><text fill="#000000" font-family="sans-serif" font-size="14" lengthAdjust="spacing" textLength="152.4619" x="865" y="622.1074">MOSTRAR_EJERCICIO</text></g><!--entity EDITAR_EJERCICIO--><g id="elem_EDITAR_EJERCICIO"><rect fill="#98FB98" height="38.6211" rx="2.5" ry="2.5" style="stroke:#181818;stroke-width:0.5;" width="153.7998" x="789" y="715"/><text fill="#000000" font-family="sans-serif" font-size="14" lengthAdjust="spacing" textLength="133.7998" x="799" y="740.1074">EDITAR_EJERCICIO</text></g><!--entity CREAR_RETOS--><g id="elem_CREAR_RETOS"><rect fill="#FFA07A" height="38.6211" rx="2.5" ry="2.5" style="stroke:#181818;stroke-width:0.5;" width="125.0205" x="1312.5" y="597"/><text fill="#000000" font-family="sans-serif" font-size="14" lengthAdjust="spacing" textLength="105.0205" x="1322.5" y="622.1074">CREAR_RETOS</text></g><!--entity EDITAR_RETOS--><g id="elem_EDITAR_RETOS"><rect fill="#FFA07A" height="38.6211" rx="2.5" ry="2.5" style="stroke:#181818;stroke-width:0.5;" width="127.3516" x="1482.5" y="597"/><text fill="#000000" font-family="sans-serif" font-size="14" lengthAdjust="spacing" textLength="107.3516" x="1492.5" y="622.1074">EDITAR_RETOS</text></g><!--entity VER_ALUMNOS_CLASE--><g id="elem_VER_ALUMNOS_CLASE"><rect fill="#FFD700" height="38.6211" rx="2.5" ry="2.5" style="stroke:#181818;stroke-width:0.5;" width="179.5029" x="1664" y="597"/><text fill="#000000" font-family="sans-serif" font-size="14" lengthAdjust="spacing" textLength="159.5029" x="1674" y="622.1074">VER_ALUMNOS_CLASE</text></g><!--entity CREAR_CLASE--><g id="elem_CREAR_CLASE"><rect fill="#F08080" height="38.6211" rx="2.5" ry="2.5" style="stroke:#181818;stroke-width:0.5;" width="122.7031" x="2359.5" y="597"/><text fill="#000000" font-family="sans-serif" font-size="14" lengthAdjust="spacing" textLength="102.7031" x="2369.5" y="622.1074">CREAR_CLASE</text></g><!--entity MOSTRAR_QR--><g id="elem_MOSTRAR_QR"><rect fill="#F08080" height="38.6211" rx="2.5" ry="2.5" style="stroke:#181818;stroke-width:0.5;" width="118.7861" x="2193.5" y="597"/><text fill="#000000" font-family="sans-serif" font-size="14" lengthAdjust="spacing" textLength="98.7861" x="2203.5" y="622.1074">MOSTRAR_QR</text></g><!--entity VER_MIS_CLASES--><g id="elem_VER_MIS_CLASES"><rect fill="#F08080" height="38.6211" rx="2.5" ry="2.5" style="stroke:#181818;stroke-width:0.5;" width="144.4961" x="1888" y="597"/><text fill="#000000" font-family="sans-serif" font-size="14" lengthAdjust="spacing" textLength="124.4961" x="1898" y="622.1074">VER_MIS_CLASES</text></g><!--entity VER_ALUMNOS--><g id="elem_VER_ALUMNOS"><rect fill="#F08080" height="38.6211" rx="2.5" ry="2.5" style="stroke:#181818;stroke-width:0.5;" width="125.8066" x="1042" y="715"/><text fill="#000000" font-family="sans-serif" font-size="14" lengthAdjust="spacing" textLength="105.8066" x="1052" y="740.1074">VER_ALUMNOS</text></g><!--entity VER_RETOS_ALUMNOS--><g id="elem_VER_RETOS_ALUMNOS"><rect fill="#F08080" height="38.6211" rx="2.5" ry="2.5" style="stroke:#181818;stroke-width:0.5;" width="181.8203" x="1144" y="833"/><text fill="#000000" font-family="sans-serif" font-size="14" lengthAdjust="spacing" textLength="161.8203" x="1154" y="858.1074">VER_RETOS_ALUMNOS</text></g><!--entity EVALUAR_RETOS--><g id="elem_EVALUAR_RETOS"><rect fill="#F08080" height="38.6211" rx="2.5" ry="2.5" style="stroke:#181818;stroke-width:0.5;" width="141.3721" x="1887.5" y="951"/><text fill="#000000" font-family="sans-serif" font-size="14" lengthAdjust="spacing" textLength="121.3721" x="1897.5" y="976.1074">EVALUAR_RETOS</text></g><!--link USUARIO to PROFESOR--><g id="link_USUARIO_PROFESOR"><path d="M1514,46.14 C1514,67.78 1514,97.28 1514,118.91 " fill="none" id="USUARIO-to-PROFESOR" style="stroke:#000000;stroke-width:1.0;"/><polygon fill="#000000" points="1514,124.91,1518,115.91,1514,119.91,1510,115.91,1514,124.91" style="stroke:#000000;stroke-width:1.0;"/><text fill="#000000" font-family="sans-serif" font-size="13" lengthAdjust="spacing" textLength="75.8672" x="1515" y="91.0283">Iniciar sesi&#243;n</text></g><!--link PROFESOR to PAGINA_PRINCIPAL--><g id="link_PROFESOR_PAGINA_PRINCIPAL"><path d="M1514,164.14 C1514,185.78 1514,215.28 1514,236.91 " fill="none" id="PROFESOR-to-PAGINA_PRINCIPAL" style="stroke:#000000;stroke-width:1.0;"/><polygon fill="#000000" points="1514,242.91,1518,233.91,1514,237.91,1510,233.91,1514,242.91" style="stroke:#000000;stroke-width:1.0;"/><text fill="#000000" font-family="sans-serif" font-size="13" lengthAdjust="spacing" textLength="109.8208" x="1515" y="209.0283">Ingresar al sistema</text></g><!--link PAGINA_PRINCIPAL to NAVEGACION_MENUS--><g id="link_PAGINA_PRINCIPAL_NAVEGACION_MENUS"><path d="M1436.32,270.33 C1380.09,277.07 1310.94,289.69 1293,312 C1282.12,325.53 1283.1799,340.1985 1287.3999,355.0485 " fill="none" id="PAGINA_PRINCIPAL-to-NAVEGACION_MENUS" style="stroke:#87CEEB;stroke-width:1.0;"/><polygon fill="#87CEEB" points="1289.04,360.82,1290.4275,351.0694,1287.6732,356.0104,1282.7322,353.2562,1289.04,360.82" style="stroke:#87CEEB;stroke-width:1.0;"/><text fill="#000000" font-family="sans-serif" font-size="13" lengthAdjust="spacing" textLength="114.1689" x="1294" y="327.0283">Navegar por men&#250;s</text></g><!--link NAVEGACION_MENUS to PAGINA_PRINCIPAL--><g id="link_NAVEGACION_MENUS_PAGINA_PRINCIPAL"><path d="M1346.81,360.96 C1367.74,352.68 1391.96,342.25 1413,331 C1440.15,316.48 1464.3301,300.0887 1484.2601,285.6587 " fill="none" id="NAVEGACION_MENUS-to-PAGINA_PRINCIPAL" style="stroke:#ADD8E6;stroke-width:1.0;"/><polygon fill="#ADD8E6" points="1489.12,282.14,1479.4843,284.1782,1485.0701,285.0723,1484.176,290.658,1489.12,282.14" style="stroke:#ADD8E6;stroke-width:1.0;"/><text fill="#000000" font-family="sans-serif" font-size="13" lengthAdjust="spacing" textLength="100.4326" x="1446" y="327.0283">Regresar al inicio</text></g><!--link NAVEGACION_MENUS to MENU_RUTINAS_EJERCICIOS--><g id="link_NAVEGACION_MENUS_MENU_RUTINAS_EJERCICIOS"><path d="M1209.64,382.85 C985.33,386.77 399.61,399.85 371,430 C358.89,442.76 360.2437,458.0028 364.8937,473.1928 " fill="none" id="NAVEGACION_MENUS-to-MENU_RUTINAS_EJERCICIOS" style="stroke:#98FB98;stroke-width:1.0;"/><polygon fill="#98FB98" points="366.65,478.93,367.8404,469.1533,365.1864,474.149,360.1908,471.4951,366.65,478.93" style="stroke:#98FB98;stroke-width:1.0;"/><text fill="#000000" font-family="sans-serif" font-size="13" lengthAdjust="spacing" textLength="177.0044" x="372" y="445.0283">Cambiar a Rutinas y Ejercicios</text></g><!--link NAVEGACION_MENUS to MENU_RETOS--><g id="link_NAVEGACION_MENUS_MENU_RETOS"><path d="M1345.23,400.09 C1367.12,408.69 1393.07,419.35 1416,430 C1432.41,437.62 1435.54,441.49 1452,449 C1475.72,459.82 1496.9935,468.3392 1519.7435,476.8892 " fill="none" id="NAVEGACION_MENUS-to-MENU_RETOS" style="stroke:#FFA07A;stroke-width:1.0;"/><polygon fill="#FFA07A" points="1525.36,479,1518.3425,472.0895,1520.6796,477.241,1515.5281,479.5781,1525.36,479" style="stroke:#FFA07A;stroke-width:1.0;"/><text fill="#000000" font-family="sans-serif" font-size="13" lengthAdjust="spacing" textLength="97.5381" x="1453" y="445.0283">Cambiar a Retos</text></g><!--link NAVEGACION_MENUS to MENU_CLASIFICACION--><g id="link_NAVEGACION_MENUS_MENU_CLASIFICACION"><path d="M1382.25,383.97 C1551.52,389.33 1921.53,403.72 2046,430 C2097.1,440.79 2147.5805,460.5108 2184.2105,476.4908 " fill="none" id="NAVEGACION_MENUS-to-MENU_CLASIFICACION" style="stroke:#FFD700;stroke-width:1.0;"/><polygon fill="#FFD700" points="2189.71,478.89,2183.0603,471.625,2185.1271,476.8907,2179.8614,478.9576,2189.71,478.89" style="stroke:#FFD700;stroke-width:1.0;"/><text fill="#000000" font-family="sans-serif" font-size="13" lengthAdjust="spacing" textLength="136.5508" x="2109" y="445.0283">Cambiar a Clasificaci&#243;n</text></g><!--link NAVEGACION_MENUS to MENU_PERFIL--><g id="link_NAVEGACION_MENUS_MENU_PERFIL"><path d="M1382.12,383.08 C1625.87,387.87 2309.29,403.52 2407,430 C2424.46,434.73 2426.53,441.52 2443,449 C2466.79,459.81 2488.1367,468.3175 2511.0067,476.8275 " fill="none" id="NAVEGACION_MENUS-to-MENU_PERFIL" style="stroke:#F08080;stroke-width:1.0;"/><polygon fill="#F08080" points="2516.63,478.92,2509.59,472.0324,2511.9439,477.1763,2506.8001,479.5302,2516.63,478.92" style="stroke:#F08080;stroke-width:1.0;"/><text fill="#000000" font-family="sans-serif" font-size="13" lengthAdjust="spacing" textLength="93.1963" x="2444" y="445.0283">Cambiar a Perfil</text></g><!--link MENU_RUTINAS_EJERCICIOS to CREAR_RUTINA--><g id="link_MENU_RUTINAS_EJERCICIOS_CREAR_RUTINA"><path d="M352.02,518.13 C339.38,531.22 327.23,549.46 334,567 C338.34,578.24 342.3693,584.2655 350.5893,592.4155 " fill="none" id="MENU_RUTINAS_EJERCICIOS-to-CREAR_RUTINA" style="stroke:#008000;stroke-width:1.0;"/><polygon fill="#008000" points="354.85,596.64,351.2752,587.4628,351.2994,593.1196,345.6426,593.1438,354.85,596.64" style="stroke:#008000;stroke-width:1.0;"/><text fill="#000000" font-family="sans-serif" font-size="13" lengthAdjust="spacing" textLength="68.6372" x="335" y="563.0283">Crear rutina</text></g><!--link MENU_RUTINAS_EJERCICIOS to CREAR_EJERCICIO--><g id="link_MENU_RUTINAS_EJERCICIOS_CREAR_EJERCICIO"><path d="M400.85,518.25 C422.76,532.93 454.88,553.13 485,567 C510.54,578.76 534.0301,587.1901 559.7201,595.1701 " fill="none" id="MENU_RUTINAS_EJERCICIOS-to-CREAR_EJERCICIO" style="stroke:#008000;stroke-width:1.0;"/><polygon fill="#008000" points="565.45,596.95,558.0417,590.4602,560.6751,595.4668,555.6685,598.1001,565.45,596.95" style="stroke:#008000;stroke-width:1.0;"/><text fill="#000000" font-family="sans-serif" font-size="13" lengthAdjust="spacing" textLength="83.8018" x="486" y="563.0283">Crear ejercicio</text></g><!--link MENU_RUTINAS_EJERCICIOS to MOSTRAR_RUTINA--><g id="link_MENU_RUTINAS_EJERCICIOS_MOSTRAR_RUTINA"><path d="M262.77,504.04 C191.62,509.5 108.43,521.52 85,548 C73.42,561.09 73.2163,575.9087 75.9763,590.9387 " fill="none" id="MENU_RUTINAS_EJERCICIOS-to-MOSTRAR_RUTINA" style="stroke:#008000;stroke-width:1.0;"/><polygon fill="#008000" points="77.06,596.84,79.3687,587.2656,76.1569,591.9222,71.5003,588.7105,77.06,596.84" style="stroke:#008000;stroke-width:1.0;"/><text fill="#000000" font-family="sans-serif" font-size="13" lengthAdjust="spacing" textLength="80.1899" x="86" y="563.0283">Mostrar rutina</text></g><!--link MENU_RUTINAS_EJERCICIOS to MOSTRAR_EJERCICIO--><g id="link_MENU_RUTINAS_EJERCICIOS_MOSTRAR_EJERCICIO"><path d="M452.98,518.04 C513.81,532.1 600.05,551.57 676,567 C735.58,579.11 797.082,590.3731 849.002,599.5731 " fill="none" id="MENU_RUTINAS_EJERCICIOS-to-MOSTRAR_EJERCICIO" style="stroke:#008000;stroke-width:1.0;"/><polygon fill="#008000" points="854.91,600.62,846.746,595.1111,849.9867,599.7476,845.3501,602.9883,854.91,600.62" style="stroke:#008000;stroke-width:1.0;"/><text fill="#000000" font-family="sans-serif" font-size="13" lengthAdjust="spacing" textLength="95.3545" x="677" y="563.0283">Mostrar ejercicio</text></g><!--link MOSTRAR_RUTINA to EDITAR_RUTINA--><g id="link_MOSTRAR_RUTINA_EDITAR_RUTINA"><path d="M88.09,636.29 C93.19,650.44 101.36,669.91 112,685 C119.75,695.98 125.7637,702.4959 135.2337,710.9059 " fill="none" id="MOSTRAR_RUTINA-to-EDITAR_RUTINA" style="stroke:#008000;stroke-width:1.0;"/><polygon fill="#008000" points="139.72,714.89,135.6467,705.923,135.9814,711.5699,130.3345,711.9047,139.72,714.89" style="stroke:#008000;stroke-width:1.0;"/><text fill="#000000" font-family="sans-serif" font-size="13" lengthAdjust="spacing" textLength="70.0908" x="113" y="681.0283">Editar rutina</text></g><!--link MOSTRAR_EJERCICIO to EDITAR_EJERCICIO--><g id="link_MOSTRAR_EJERCICIO_EDITAR_EJERCICIO"><path d="M928.95,636.14 C914.95,657.78 895.2569,688.2409 881.2769,709.8709 " fill="none" id="MOSTRAR_EJERCICIO-to-EDITAR_EJERCICIO" style="stroke:#008000;stroke-width:1.0;"/><polygon fill="#008000" points="878.02,714.91,886.2648,709.5226,880.7341,710.7107,879.5459,705.1801,878.02,714.91" style="stroke:#008000;stroke-width:1.0;"/><text fill="#000000" font-family="sans-serif" font-size="13" lengthAdjust="spacing" textLength="85.2554" x="909" y="681.0283">Editar ejercicio</text></g><!--link MENU_RETOS to CREAR_RETOS--><g id="link_MENU_RETOS_CREAR_RETOS"><path d="M1540.44,518.08 C1523.44,526.89 1503.04,537.72 1485,548 C1457.16,563.86 1431.1765,579.8618 1409.1765,593.7218 " fill="none" id="MENU_RETOS-to-CREAR_RETOS" style="stroke:#FFA500;stroke-width:1.0;"/><polygon fill="#FFA500" points="1404.1,596.92,1413.847,595.507,1408.3305,594.2548,1409.5827,588.7383,1404.1,596.92" style="stroke:#FFA500;stroke-width:1.0;"/><text fill="#000000" font-family="sans-serif" font-size="13" lengthAdjust="spacing" textLength="65.019" x="1486" y="563.0283">Crear retos</text></g><!--link MENU_RETOS to EDITAR_RETOS--><g id="link_MENU_RETOS_EDITAR_RETOS"><path d="M1572.02,518.14 C1566.23,539.78 1558.299,569.4834 1552.519,591.1134 " fill="none" id="MENU_RETOS-to-EDITAR_RETOS" style="stroke:#FFA500;stroke-width:1.0;"/><polygon fill="#FFA500" points="1550.97,596.91,1557.1579,589.2477,1552.2608,592.0795,1549.4291,587.1824,1550.97,596.91" style="stroke:#FFA500;stroke-width:1.0;"/><text fill="#000000" font-family="sans-serif" font-size="13" lengthAdjust="spacing" textLength="66.4727" x="1565" y="563.0283">Editar retos</text></g><!--link MENU_CLASIFICACION to VER_ALUMNOS_CLASE--><g id="link_MENU_CLASIFICACION_VER_ALUMNOS_CLASE"><path d="M2141.79,513.73 C2132.74,515.18 2123.69,516.62 2115,518 C2029.7,531.53 2006.3,525.17 1923,548 C1877.14,560.57 1832.2554,579.2143 1798.5454,594.4843 " fill="none" id="MENU_CLASIFICACION-to-VER_ALUMNOS_CLASE" style="stroke:#DAA520;stroke-width:1.0;"/><polygon fill="#DAA520" points="1793.08,596.96,1802.9286,596.89,1797.6345,594.8969,1799.6276,589.6028,1793.08,596.96" style="stroke:#DAA520;stroke-width:1.0;"/><text fill="#000000" font-family="sans-serif" font-size="13" lengthAdjust="spacing" textLength="171.9834" x="1924" y="563.0283">Ver alumnos dentro de clases</text></g><!--link MENU_PERFIL to CREAR_CLASE--><g id="link_MENU_PERFIL_CREAR_CLASE"><path d="M2568.56,518.01 C2567.25,532.95 2563.15,553.62 2551,567 C2533.27,586.53 2512.6871,596.5745 2488.3371,603.5645 " fill="none" id="MENU_PERFIL-to-CREAR_CLASE" style="stroke:#FF0000;stroke-width:1.0;"/><polygon fill="#FF0000" points="2482.57,605.22,2492.3243,606.5814,2487.3759,603.8404,2490.1169,598.892,2482.57,605.22" style="stroke:#FF0000;stroke-width:1.0;"/><text fill="#000000" font-family="sans-serif" font-size="13" lengthAdjust="spacing" textLength="66.4663" x="2562" y="563.0283">Crear clase</text></g><!--link MENU_PERFIL to MOSTRAR_QR--><g id="link_MENU_PERFIL_MOSTRAR_QR"><path d="M2509.87,512.64 C2450.27,525.96 2366.07,545.03 2359,548 C2328.82,560.65 2302.4407,578.0913 2281.7807,593.3113 " fill="none" id="MENU_PERFIL-to-MOSTRAR_QR" style="stroke:#FF0000;stroke-width:1.0;"/><polygon fill="#FF0000" points="2276.95,596.87,2286.5685,594.7524,2280.9756,593.9044,2281.8236,588.3115,2276.95,596.87" style="stroke:#FF0000;stroke-width:1.0;"/><text fill="#000000" font-family="sans-serif" font-size="13" lengthAdjust="spacing" textLength="182.0762" x="2360" y="563.0283">Mostrar QR en centro deportivo</text></g><!--link MENU_PERFIL to VER_MIS_CLASES--><g id="link_MENU_PERFIL_VER_MIS_CLASES"><path d="M2509.92,512.98 C2500.93,514.81 2491.74,516.55 2483,518 C2370.43,536.69 2340.23,527.35 2228,548 C2157.33,561 2083.4182,580.2736 2029.4382,595.3736 " fill="none" id="MENU_PERFIL-to-VER_MIS_CLASES" style="stroke:#FF0000;stroke-width:1.0;"/><polygon fill="#FF0000" points="2023.66,596.99,2033.4048,598.4176,2028.4752,595.643,2031.2497,590.7134,2023.66,596.99" style="stroke:#FF0000;stroke-width:1.0;"/><text fill="#000000" font-family="sans-serif" font-size="13" lengthAdjust="spacing" textLength="84.519" x="2229" y="563.0283">Ver mis clases</text></g><!--link VER_MIS_CLASES to VER_ALUMNOS--><g id="link_VER_MIS_CLASES_VER_ALUMNOS"><path d="M1887.83,631.62 C1879.14,633.17 1870.38,634.67 1862,636 C1605.65,676.67 1304.3734,711.5185 1174.2034,725.9585 " fill="none" id="VER_MIS_CLASES-to-VER_ALUMNOS" style="stroke:#FF0000;stroke-width:1.0;"/><polygon fill="#FF0000" points="1168.24,726.62,1177.6262,729.6033,1173.2095,726.0687,1176.7441,721.6521,1168.24,726.62" style="stroke:#FF0000;stroke-width:1.0;"/><text fill="#000000" font-family="sans-serif" font-size="13" lengthAdjust="spacing" textLength="72.979" x="1655" y="681.0283">Ver alumnos</text></g><!--link VER_ALUMNOS to VER_RETOS_ALUMNOS--><g id="link_VER_ALUMNOS_VER_RETOS_ALUMNOS"><path d="M1098.45,754.11 C1094.57,768.71 1092.11,788.87 1102,803 C1112.22,817.6 1121.81,825.4221 1138.21,832.5721 " fill="none" id="VER_ALUMNOS-to-VER_RETOS_ALUMNOS" style="stroke:#FF0000;stroke-width:1.0;"/><polygon fill="#FF0000" points="1143.71,834.97,1137.0586,827.7065,1139.1267,832.9718,1133.8614,835.0399,1143.71,834.97" style="stroke:#FF0000;stroke-width:1.0;"/><text fill="#000000" font-family="sans-serif" font-size="13" lengthAdjust="spacing" textLength="105.4917" x="1103" y="799.0283">Ver retos alumnos</text></g><!--link VER_RETOS_ALUMNOS to EVALUAR_RETOS--><g id="link_VER_RETOS_ALUMNOS_EVALUAR_RETOS"><path d="M1326.2,868.13 C1472.26,891.57 1749.6558,936.0694 1881.4658,957.2194 " fill="none" id="VER_RETOS_ALUMNOS-to-EVALUAR_RETOS" style="stroke:#FF0000;stroke-width:1.0;"/><polygon fill="#FF0000" points="1887.39,958.17,1879.1374,952.7946,1882.4532,957.3778,1877.8699,960.6936,1887.39,958.17" style="stroke:#FF0000;stroke-width:1.0;"/><text fill="#000000" font-family="sans-serif" font-size="13" lengthAdjust="spacing" textLength="76.5908" x="1640" y="917.0283">Evaluar retos</text></g><!--link CREAR_RUTINA to NAVEGACION_MENUS--><g id="link_CREAR_RUTINA_NAVEGACION_MENUS"><path d="M442.76,601.86 C471.57,594.16 505.19,582.83 533,567 C583.87,538.04 580.82,509.15 631,479 C685.35,446.34 703.13,443.89 765,430 C919.23,395.38 1097.9521,385.5203 1203.8721,382.6903 " fill="none" id="CREAR_RUTINA-to-NAVEGACION_MENUS" style="stroke:#87CEEB;stroke-width:1.0;"/><polygon fill="#87CEEB" points="1209.87,382.53,1200.7664,378.7718,1204.8718,382.6635,1200.98,386.769,1209.87,382.53" style="stroke:#87CEEB;stroke-width:1.0;"/><text fill="#000000" font-family="sans-serif" font-size="13" lengthAdjust="spacing" textLength="85.2554" x="632" y="504.0283">Cambiar men&#250;</text></g><!--link MOSTRAR_RUTINA to NAVEGACION_MENUS--><g id="link_MOSTRAR_RUTINA_NAVEGACION_MENUS"><path d="M75.77,596.84 C73.11,587.92 70.32,577.03 69,567 C63.64,526.31 69.89,509.81 97,479 C126.32,445.69 141.33,442.19 184,430 C281.43,402.17 959.701,387.4889 1203.771,383.0589 " fill="none" id="MOSTRAR_RUTINA-to-NAVEGACION_MENUS" style="stroke:#87CEEB;stroke-width:1.0;"/><polygon fill="#87CEEB" points="1209.77,382.95,1200.6989,379.114,1204.7708,383.0407,1200.8441,387.1127,1209.77,382.95" style="stroke:#87CEEB;stroke-width:1.0;"/><text fill="#000000" font-family="sans-serif" font-size="13" lengthAdjust="spacing" textLength="85.2554" x="98" y="504.0283">Cambiar men&#250;</text></g><!--link EDITAR_RUTINA to NAVEGACION_MENUS--><g id="link_EDITAR_RUTINA_NAVEGACION_MENUS"><path d="M173.91,714.57 C178.68,705.77 184.07,695.06 188,685 C222.61,596.53 183.02,550.99 245,479 C279.92,438.44 302.95,442.48 355,430 C515.77,391.46 1003.2802,383.5885 1203.8702,381.9685 " fill="none" id="EDITAR_RUTINA-to-NAVEGACION_MENUS" style="stroke:#87CEEB;stroke-width:1.0;"/><polygon fill="#87CEEB" points="1209.87,381.92,1200.838,377.9928,1204.8702,381.9604,1200.9026,385.9926,1209.87,381.92" style="stroke:#87CEEB;stroke-width:1.0;"/><text fill="#000000" font-family="sans-serif" font-size="13" lengthAdjust="spacing" textLength="85.2554" x="211" y="563.0283">Cambiar men&#250;</text></g><!--link CREAR_EJERCICIO to NAVEGACION_MENUS--><g id="link_CREAR_EJERCICIO_NAVEGACION_MENUS"><path d="M674.49,596.97 C687.72,589.33 701.4,579.33 711,567 C736.21,534.61 713.1,510.84 739,479 C767.01,444.58 783.71,443.45 826,430 C895.28,407.97 1087.951,393.563 1203.611,386.553 " fill="none" id="CREAR_EJERCICIO-to-NAVEGACION_MENUS" style="stroke:#87CEEB;stroke-width:1.0;"/><polygon fill="#87CEEB" points="1209.6,386.19,1200.3745,382.7418,1204.6092,386.4925,1200.8585,390.7272,1209.6,386.19" style="stroke:#87CEEB;stroke-width:1.0;"/><text fill="#000000" font-family="sans-serif" font-size="13" lengthAdjust="spacing" textLength="85.2554" x="740" y="504.0283">Cambiar men&#250;</text></g><!--link MOSTRAR_EJERCICIO to NAVEGACION_MENUS--><g id="link_MOSTRAR_EJERCICIO_NAVEGACION_MENUS"><path d="M939.84,596.82 C939.05,568.61 941.38,514.66 967,479 C992.89,442.96 1012.39,445.44 1054,430 C1104.11,411.4 1156.9228,400.342 1203.9828,392.942 " fill="none" id="MOSTRAR_EJERCICIO-to-NAVEGACION_MENUS" style="stroke:#87CEEB;stroke-width:1.0;"/><polygon fill="#87CEEB" points="1209.91,392.01,1200.3979,389.4566,1204.9707,392.7867,1201.6406,397.3595,1209.91,392.01" style="stroke:#87CEEB;stroke-width:1.0;"/><text fill="#000000" font-family="sans-serif" font-size="13" lengthAdjust="spacing" textLength="85.2554" x="968" y="504.0283">Cambiar men&#250;</text></g><!--link EDITAR_EJERCICIO to NAVEGACION_MENUS--><g id="link_EDITAR_EJERCICIO_NAVEGACION_MENUS"><path d="M857.02,714.81 C841.46,679.45 814.05,601.54 846,548 C888.93,476.06 916.42,463.97 993,430 C1061.91,399.43 1141.2239,388.2479 1203.7439,383.9879 " fill="none" id="EDITAR_EJERCICIO-to-NAVEGACION_MENUS" style="stroke:#87CEEB;stroke-width:1.0;"/><polygon fill="#87CEEB" points="1209.73,383.58,1200.4789,380.2011,1204.7416,383.9199,1201.0227,388.1826,1209.73,383.58" style="stroke:#87CEEB;stroke-width:1.0;"/><text fill="#000000" font-family="sans-serif" font-size="13" lengthAdjust="spacing" textLength="85.2554" x="847" y="563.0283">Cambiar men&#250;</text></g><!--link CREAR_RETOS to NAVEGACION_MENUS--><g id="link_CREAR_RETOS_NAVEGACION_MENUS"><path d="M1342.15,596.91 C1316.07,580.08 1281.5,552.65 1266,518 C1248.27,478.35 1267.1381,432.6835 1281.8181,405.6335 " fill="none" id="CREAR_RETOS-to-NAVEGACION_MENUS" style="stroke:#87CEEB;stroke-width:1.0;"/><polygon fill="#87CEEB" points="1284.68,400.36,1276.8715,406.3623,1282.2951,404.7546,1283.9028,410.1781,1284.68,400.36" style="stroke:#87CEEB;stroke-width:1.0;"/><text fill="#000000" font-family="sans-serif" font-size="13" lengthAdjust="spacing" textLength="85.2554" x="1267" y="504.0283">Cambiar men&#250;</text></g><!--link EDITAR_RETOS to NAVEGACION_MENUS--><g id="link_EDITAR_RETOS_NAVEGACION_MENUS"><path d="M1517.03,596.85 C1489.3,578.37 1446.92,548.49 1414,518 C1372.63,479.69 1334.7468,432.5346 1313.7368,405.0846 " fill="none" id="EDITAR_RETOS-to-NAVEGACION_MENUS" style="stroke:#87CEEB;stroke-width:1.0;"/><polygon fill="#87CEEB" points="1310.09,400.32,1312.3838,409.898,1313.129,404.2905,1318.7365,405.0357,1310.09,400.32" style="stroke:#87CEEB;stroke-width:1.0;"/><text fill="#000000" font-family="sans-serif" font-size="13" lengthAdjust="spacing" textLength="85.2554" x="1415" y="504.0283">Cambiar men&#250;</text></g><!--link VER_ALUMNOS_CLASE to NAVEGACION_MENUS--><g id="link_VER_ALUMNOS_CLASE_NAVEGACION_MENUS"><path d="M1743.79,596.61 C1727.63,568.14 1693.79,513.86 1653,479 C1576.93,413.99 1467.2548,392.5389 1388.3348,385.2889 " fill="none" id="VER_ALUMNOS_CLASE-to-NAVEGACION_MENUS" style="stroke:#87CEEB;stroke-width:1.0;"/><polygon fill="#87CEEB" points="1382.36,384.74,1390.9563,389.5465,1387.339,385.1974,1391.6882,381.5801,1382.36,384.74" style="stroke:#87CEEB;stroke-width:1.0;"/><text fill="#000000" font-family="sans-serif" font-size="13" lengthAdjust="spacing" textLength="85.2554" x="1691" y="504.0283">Cambiar men&#250;</text></g><!--link CREAR_CLASE to NAVEGACION_MENUS--><g id="link_CREAR_CLASE_NAVEGACION_MENUS"><path d="M2363.92,596.95 C2350.49,589.78 2337.83,580.05 2330,567 C2325.65,559.76 2329.17,556.4 2330,548 C2333.03,517.37 2351.19,505.77 2336,479 C2315.05,442.07 2294.63,442.33 2254,430 C2171.98,405.11 1608.3082,389.0373 1388.3682,383.6373 " fill="none" id="CREAR_CLASE-to-NAVEGACION_MENUS" style="stroke:#87CEEB;stroke-width:1.0;"/><polygon fill="#87CEEB" points="1382.37,383.49,1391.2691,387.7097,1387.3685,383.6127,1391.4655,379.7121,1382.37,383.49" style="stroke:#87CEEB;stroke-width:1.0;"/><text fill="#000000" font-family="sans-serif" font-size="13" lengthAdjust="spacing" textLength="85.2554" x="2342" y="504.0283">Cambiar men&#250;</text></g><!--link MOSTRAR_QR to NAVEGACION_MENUS--><g id="link_MOSTRAR_QR_NAVEGACION_MENUS"><path d="M2204.64,596.89 C2160.12,578.99 2092.88,550 2038,518 C2011.48,502.54 2009.49,490.41 1981,479 C1777.22,397.38 1521.2995,382.6797 1388.0995,380.9097 " fill="none" id="MOSTRAR_QR-to-NAVEGACION_MENUS" style="stroke:#87CEEB;stroke-width:1.0;"/><polygon fill="#87CEEB" points="1382.1,380.83,1391.0461,384.9492,1387.0996,380.8964,1391.1524,376.9499,1382.1,380.83" style="stroke:#87CEEB;stroke-width:1.0;"/><text fill="#000000" font-family="sans-serif" font-size="13" lengthAdjust="spacing" textLength="85.2554" x="2039" y="504.0283">Cambiar men&#250;</text></g><!--link VER_MIS_CLASES to NAVEGACION_MENUS--><g id="link_VER_MIS_CLASES_NAVEGACION_MENUS"><path d="M1958.06,596.85 C1955.63,582.02 1950.18,561.58 1938,548 C1913.1,520.23 1820,491.89 1785,479 C1711.62,451.97 1692.38,446.78 1616,430 C1537.52,412.75 1452.8223,400.3948 1388.0823,392.1848 " fill="none" id="VER_MIS_CLASES-to-NAVEGACION_MENUS" style="stroke:#87CEEB;stroke-width:1.0;"/><polygon fill="#87CEEB" points="1382.13,391.43,1390.5553,396.5305,1387.0903,392.059,1391.5617,388.594,1382.13,391.43" style="stroke:#87CEEB;stroke-width:1.0;"/><text fill="#000000" font-family="sans-serif" font-size="13" lengthAdjust="spacing" textLength="85.2554" x="1888" y="504.0283">Cambiar men&#250;</text></g><!--link VER_ALUMNOS to NAVEGACION_MENUS--><g id="link_VER_ALUMNOS_NAVEGACION_MENUS"><path d="M1098.7,714.79 C1081.86,660.82 1042.4,503.98 1125,430 C1148.33,409.1 1174.191,398.4875 1203.971,391.6775 " fill="none" id="VER_ALUMNOS-to-NAVEGACION_MENUS" style="stroke:#87CEEB;stroke-width:1.0;"/><polygon fill="#87CEEB" points="1209.82,390.34,1200.1548,388.447,1204.9458,391.4546,1201.9382,396.2456,1209.82,390.34" style="stroke:#87CEEB;stroke-width:1.0;"/><text fill="#000000" font-family="sans-serif" font-size="13" lengthAdjust="spacing" textLength="85.2554" x="1076" y="563.0283">Cambiar men&#250;</text></g><!--link VER_RETOS_ALUMNOS to NAVEGACION_MENUS--><g id="link_VER_RETOS_ALUMNOS_NAVEGACION_MENUS"><path d="M1233.07,832.77 C1229.56,799.25 1221.67,726.84 1213,666 C1211.09,652.62 1209.11,649.47 1208,636 C1206.57,618.73 1205.49,614.15 1208,597 C1219.23,520.34 1222.38,498.8 1258,430 C1263.51,419.36 1267.61,413.3435 1274.82,404.7635 " fill="none" id="VER_RETOS_ALUMNOS-to-NAVEGACION_MENUS" style="stroke:#87CEEB;stroke-width:1.0;"/><polygon fill="#87CEEB" points="1278.68,400.17,1269.8276,404.4869,1275.4633,403.9979,1275.9523,409.6336,1278.68,400.17" style="stroke:#87CEEB;stroke-width:1.0;"/><text fill="#000000" font-family="sans-serif" font-size="13" lengthAdjust="spacing" textLength="85.2554" x="1209" y="622.0283">Cambiar men&#250;</text></g><!--link EVALUAR_RETOS to NAVEGACION_MENUS--><g id="link_EVALUAR_RETOS_NAVEGACION_MENUS"><path d="M2028.64,965.53 C2210.57,954.36 2681,919.13 2681,853.5 C2681,556.5 2681,556.5 2681,556.5 C2681,472.97 2623.14,449.82 2542,430 C2430.28,402.71 1651.4991,387.4113 1388.0291,382.9613 " fill="none" id="EVALUAR_RETOS-to-NAVEGACION_MENUS" style="stroke:#87CEEB;stroke-width:1.0;"/><polygon fill="#87CEEB" points="1382.03,382.86,1390.9612,387.0114,1387.0293,382.9444,1391.0963,379.0126,1382.03,382.86" style="stroke:#87CEEB;stroke-width:1.0;"/><text fill="#000000" font-family="sans-serif" font-size="13" lengthAdjust="spacing" textLength="85.2554" x="2682" y="681.0283">Cambiar men&#250;</text></g><!--link MENU_RUTINAS_EJERCICIOS to PAGINA_PRINCIPAL--><g id="link_MENU_RUTINAS_EJERCICIOS_PAGINA_PRINCIPAL"><path d="M360.41,478.87 C351.39,464.05 343.2,443.62 355,430 C426.22,347.81 1182.2854,287.1103 1430.4154,269.2703 " fill="none" id="MENU_RUTINAS_EJERCICIOS-to-PAGINA_PRINCIPAL" style="stroke:#ADD8E6;stroke-width:1.0;"/><polygon fill="#ADD8E6" points="1436.4,268.84,1427.1363,265.4957,1431.4129,269.1986,1427.71,273.4751,1436.4,268.84" style="stroke:#ADD8E6;stroke-width:1.0;"/></g><!--link MENU_CLASIFICACION to PAGINA_PRINCIPAL--><g id="link_MENU_CLASIFICACION_PAGINA_PRINCIPAL"><path d="M2318.2,483.21 C2327.25,481.77 2336.31,480.35 2345,479 C2672.73,428.18 2589.56,481.15 2546,430 C2422.75,285.27 1816.0797,265.9718 1597.5797,263.7218 " fill="none" id="MENU_CLASIFICACION-to-PAGINA_PRINCIPAL" style="stroke:#ADD8E6;stroke-width:1.0;"/><polygon fill="#ADD8E6" points="1591.58,263.66,1600.5383,267.7525,1596.5797,263.7115,1600.6207,259.7529,1591.58,263.66" style="stroke:#ADD8E6;stroke-width:1.0;"/></g><!--link MENU_PERFIL to PAGINA_PRINCIPAL--><g id="link_MENU_PERFIL_PAGINA_PRINCIPAL"><path d="M2579.5,478.71 C2585.84,464.74 2591.38,445.5 2584,430 C2563.08,386.07 2542.43,382.94 2499,361 C2421.54,321.87 2395.71,325.59 2310,312 C2048.99,270.61 1740.6799,264.0094 1597.6599,263.3094 " fill="none" id="MENU_PERFIL-to-PAGINA_PRINCIPAL" style="stroke:#ADD8E6;stroke-width:1.0;"/><polygon fill="#ADD8E6" points="1591.66,263.28,1600.6403,267.324,1596.6599,263.3045,1600.6795,259.3241,1591.66,263.28" style="stroke:#ADD8E6;stroke-width:1.0;"/></g><!--link MENU_RETOS to PAGINA_PRINCIPAL--><g id="link_MENU_RETOS_PAGINA_PRINCIPAL"><path d="M1578.23,478.95 C1579.78,444.5 1579.75,368.96 1555,312 C1550.25,301.08 1546.3035,295.136 1538.5935,286.836 " fill="none" id="MENU_RETOS-to-PAGINA_PRINCIPAL" style="stroke:#ADD8E6;stroke-width:1.0;"/><polygon fill="#ADD8E6" points="1534.51,282.44,1537.7046,291.7564,1537.9129,286.1033,1543.5659,286.3117,1534.51,282.44" style="stroke:#ADD8E6;stroke-width:1.0;"/></g><rect fill="#DDDDDD" height="140.3477" id="_legend" rx="7.5" ry="7.5" style="stroke:#000000;stroke-width:1.0;" width="597.5352" x="2151.7202" y="1006.6211"/><text fill="#000000" font-family="sans-serif" font-size="14" lengthAdjust="spacing" textLength="57.6064" x="2156.7202" y="1026.7285">Leyenda:</text><text fill="#000000" font-family="sans-serif" font-size="14" lengthAdjust="spacing" textLength="555.584" x="2156.7202" y="1045.3496">- Color verde claro (#PaleGreen): Men&#250;s y acciones relacionadas con rutinas y ejercicios.</text><text fill="#000000" font-family="sans-serif" font-size="14" lengthAdjust="spacing" textLength="492.5635" x="2156.7202" y="1063.9707">- Color salm&#243;n claro (#LightSalmon): Men&#250;s y acciones relacionadas con retos.</text><text fill="#000000" font-family="sans-serif" font-size="14" lengthAdjust="spacing" textLength="452.8877" x="2156.7202" y="1082.5918">- Color dorado (#Gold): Men&#250;s y acciones relacionadas con clasificaci&#243;n.</text><text fill="#000000" font-family="sans-serif" font-size="14" lengthAdjust="spacing" textLength="462.9844" x="2156.7202" y="1101.2129">- Color coral claro (#LightCoral): Men&#250;s y acciones relacionadas con perfil.</text><text fill="#000000" font-family="sans-serif" font-size="14" lengthAdjust="spacing" textLength="587.5352" x="2156.7202" y="1119.834">- Color azul claro (#SkyBlue): Navegaci&#243;n general entre men&#250;s o regreso a la p&#225;gina principal.</text><text fill="#000000" font-family="sans-serif" font-size="14" lengthAdjust="spacing" textLength="527.584" x="2156.7202" y="1138.4551">- Color amarillo verde (#YellowGreen): Acciones relacionadas con el inicio de sesi&#243;n.</text><!--SRC=[dLZDSjis4BxpAL3d4FlWF80FdM4OMiEC_afAdkbqEXg4N2ji8485ATVks_GPUklLBzO52920I4gYRaduxRUB_VbsbPyoUCuB874OhFpvP1hUljuH0Mb5Yoq3ykfv7yaN2SdJ_FtVWcH0Q5fn0ILv8y1W1qN5Ix8NUP7cUygWz5ggTRBsusXnHpxy2epnloO2eB2-B-F5OvWiuc60Fudc_cOPH_CWMlfJ14xpxVVgCpk01PlxJ-743wB5V3CBv-i4OScFDmN2y6TGlFyt5AB4R-Br2jqac_1h60SHyaY69IAFuwdHuKe1L2G9PJlUWGHJFuaUeq35XD09PzanPXd6Zr7pee0BocIqoU7RhWuOKtqJ7wgye3BNuHyWKYm2BsyifY0E_LZ7FnJp8bd5vq3XbsXr3bFxQd9qnjqvdFRO3-lc0QhUXvyiXNbK3wZZ862qp9_pbAesjpqzXV76dwvdyqMYwXgQUdOubY2USzQDqbXPXUxcwvTu2243c4NQUN8AfSCy1L79E0SCdn1mdBccGsDWc2LUW3jJUjZ9_MyVFYFWn-_tFnCpuEI1H591g20bb3B3NlF9mH_DkxBRejYW8MMapCiATjJhm9133xnaEPO3P9dJ5zWYoPuBKbTClgJ-rrhOKCS4c6yT1dJGTATqCI0Rw2cWks_odPJqpMulizMOBRTClKidHw3NNdPZO-X8ZqFWjlXm9AhG3LyjKmvHtUV31AOEFTMCeQscsYcyKUWXiHjAjNouAOSjWp9K0UX2ABeHzit7XW9C71Unk4gB93DULc9S91tvj6YiQ5nFDe6Zv6WSPdbbXT2Xxx6rVMlprhLLhbgJhNP5heN0mm6icfW-hakYUdZ8mjPhAt9bqxezLkgUhjSp0KNCrM2GZeOZ_HF8BZpi2YxL6wUVIn5FaHriTqRKxM50_XYozf66idwaeXZ0jsflrHN_0WL9JGoeKLN-mWSOt6sWtx7BInFvqNVNKEV0VRrdVt7nphRGLgeUZgsBQXcSDI8B-e9MTaK3N2AlzIR1r3EaBPk5IWcZfB04UWi5e32Hb6EkE4CXrv8l3z4g__C05SNkq2gbM6uyHnZERWd7k6V8nbYxSpZI-5YFhepyQeAE48oqz-pXlp9nrzXwNdVIhmlzAbjhkaTQTgTshBKrVcDDE_CxgbpEa8-krucTUFAM693z2snQHRq0tBpgDFOZcS8R51dr6A1EPKH8k4VCFp_W7-zHxgHglO2ezmoA_MrxLTuzc1-gR_WBMz_NGf_QDCEpI0gVQ4waPYENdopo4gz8APQ6tZejBtGWjTbcpF0Qp2ILtAYNSQJEXhR9KguKt0vENPkNyUxLAhRvwD-7bauttjs3SzURjM7VzuGZkJn4URrczk__R36jxSyPnyUEYfmnhWjtQ_zN1Vho1yC5S-BAvQP_zdpoP7VKJUBz3m00]--></g></svg>