<svg xmlns="http://www.w3.org/2000/svg" xmlns:xlink="http://www.w3.org/1999/xlink" contentStyleType="text/css" height="577px" preserveAspectRatio="none" style="width:947px;height:577px;background:#FFFFFF;" version="1.1" viewBox="0 0 947 577" width="947px" zoomAndPan="magnify"><title>Consultar Aula</title><defs/><g><text fill="#000000" font-family="sans-serif" font-size="14" font-weight="bold" lengthAdjust="spacing" textLength="115.9238" x="414.2939" y="32.9951">Consultar Aula</text><ellipse cx="465.4092" cy="57.2969" fill="#222222" rx="10" ry="10" style="stroke:#222222;stroke-width:1;"/><rect fill="#F1F1F1" height="33.9688" rx="12.5" ry="12.5" style="stroke:#181818;stroke-width:0.5;" width="266.1641" x="332.3271" y="87.2969"/><text fill="#000000" font-family="sans-serif" font-size="12" lengthAdjust="spacing" textLength="246.1641" x="342.3271" y="108.4355">El usuario solicita listar aulas disponibles</text><rect fill="#F1F1F1" height="33.9688" rx="12.5" ry="12.5" style="stroke:#181818;stroke-width:0.5;" width="273.5" x="328.6592" y="141.2656"/><text fill="#000000" font-family="sans-serif" font-size="12" lengthAdjust="spacing" textLength="253.5" x="338.6592" y="162.4043">El sistema permite listar aulas disponibles</text><rect fill="#F1F1F1" height="33.9688" rx="12.5" ry="12.5" style="stroke:#181818;stroke-width:0.5;" width="278.6563" x="326.0811" y="195.2344"/><text fill="#000000" font-family="sans-serif" font-size="12" lengthAdjust="spacing" textLength="258.6563" x="336.0811" y="216.373">El usuario solicita introducir datos de aulas</text><rect fill="#F1F1F1" height="103.8125" rx="12.5" ry="12.5" style="stroke:#181818;stroke-width:0.5;" width="276.6699" x="327.0742" y="249.2031"/><text fill="#000000" font-family="sans-serif" font-size="12" lengthAdjust="spacing" textLength="256.6699" x="337.0742" y="270.3418">Sistema permite introducir datos de aulas:</text><text fill="#000000" font-family="sans-serif" font-size="12" lengthAdjust="spacing" textLength="31.8867" x="344.7031" y="284.3105">- D&#237;a,</text><text fill="#000000" font-family="sans-serif" font-size="12" lengthAdjust="spacing" textLength="40.6113" x="344.7031" y="298.2793">- Hora,</text><text fill="#000000" font-family="sans-serif" font-size="12" lengthAdjust="spacing" textLength="84.7852" x="344.7031" y="312.248">- Aula grande,</text><text fill="#000000" font-family="sans-serif" font-size="12" lengthAdjust="spacing" textLength="149.6484" x="344.7031" y="326.2168">- Aulas con ordenadores,</text><text fill="#000000" font-family="sans-serif" font-size="12" lengthAdjust="spacing" textLength="58.2305" x="344.7031" y="340.1855">- Ninguno</text><rect fill="#F1F1F1" height="33.9688" rx="12.5" ry="12.5" style="stroke:#181818;stroke-width:0.5;" width="272.0645" x="329.377" y="373.0156"/><text fill="#000000" font-family="sans-serif" font-size="12" lengthAdjust="spacing" textLength="252.0645" x="339.377" y="394.1543">Usuario introduce especificaci&#243;n de filtros</text><polygon fill="#F1F1F1" points="351.7622,426.9844,579.0562,426.9844,591.0562,438.9844,579.0562,450.9844,351.7622,450.9844,339.7622,438.9844,351.7622,426.9844" style="stroke:#181818;stroke-width:0.5;"/><text fill="#000000" font-family="sans-serif" font-size="11" lengthAdjust="spacing" textLength="227.2939" x="351.7622" y="442.7925">&#191;Existen aulas disponibles con los filtros?</text><text fill="#000000" font-family="sans-serif" font-size="11" lengthAdjust="spacing" textLength="10.0386" x="329.7236" y="436.3901">S&#237;</text><text fill="#000000" font-family="sans-serif" font-size="11" lengthAdjust="spacing" textLength="14.9585" x="591.0562" y="436.3901">No</text><rect fill="#F1F1F1" height="33.9688" rx="12.5" ry="12.5" style="stroke:#181818;stroke-width:0.5;" width="436.0625" x="11" y="460.9844"/><text fill="#000000" font-family="sans-serif" font-size="12" lengthAdjust="spacing" textLength="416.0625" x="21" y="482.123">Sistema presenta las aulas disponibles entre los filtros seleccionados</text><rect fill="#F1F1F1" height="33.9688" rx="12.5" ry="12.5" style="stroke:#181818;stroke-width:0.5;" width="469.4492" x="467.0625" y="460.9844"/><text fill="#000000" font-family="sans-serif" font-size="12" lengthAdjust="spacing" textLength="449.4492" x="477.0625" y="482.123">Sistema presenta mensaje de error: "No se encontraron aulas disponibles"</text><polygon fill="#F1F1F1" points="465.4092,500.9531,477.4092,512.9531,465.4092,524.9531,453.4092,512.9531,465.4092,500.9531" style="stroke:#181818;stroke-width:0.5;"/><ellipse cx="465.4092" cy="555.9531" fill="none" rx="11" ry="11" style="stroke:#222222;stroke-width:1;"/><ellipse cx="465.4092" cy="555.9531" fill="#222222" rx="6" ry="6" style="stroke:#222222;stroke-width:1;"/><line style="stroke:#181818;stroke-width:1;" x1="465.4092" x2="465.4092" y1="67.2969" y2="87.2969"/><polygon fill="#181818" points="461.4092,77.2969,465.4092,87.2969,469.4092,77.2969,465.4092,81.2969" style="stroke:#181818;stroke-width:1;"/><line style="stroke:#181818;stroke-width:1;" x1="465.4092" x2="465.4092" y1="121.2656" y2="141.2656"/><polygon fill="#181818" points="461.4092,131.2656,465.4092,141.2656,469.4092,131.2656,465.4092,135.2656" style="stroke:#181818;stroke-width:1;"/><line style="stroke:#181818;stroke-width:1;" x1="465.4092" x2="465.4092" y1="175.2344" y2="195.2344"/><polygon fill="#181818" points="461.4092,185.2344,465.4092,195.2344,469.4092,185.2344,465.4092,189.2344" style="stroke:#181818;stroke-width:1;"/><line style="stroke:#181818;stroke-width:1;" x1="465.4092" x2="465.4092" y1="229.2031" y2="249.2031"/><polygon fill="#181818" points="461.4092,239.2031,465.4092,249.2031,469.4092,239.2031,465.4092,243.2031" style="stroke:#181818;stroke-width:1;"/><line style="stroke:#181818;stroke-width:1;" x1="465.4092" x2="465.4092" y1="353.0156" y2="373.0156"/><polygon fill="#181818" points="461.4092,363.0156,465.4092,373.0156,469.4092,363.0156,465.4092,367.0156" style="stroke:#181818;stroke-width:1;"/><line style="stroke:#181818;stroke-width:1;" x1="339.7622" x2="229.0313" y1="438.9844" y2="438.9844"/><line style="stroke:#181818;stroke-width:1;" x1="229.0313" x2="229.0313" y1="438.9844" y2="460.9844"/><polygon fill="#181818" points="225.0313,450.9844,229.0313,460.9844,233.0313,450.9844,229.0313,454.9844" style="stroke:#181818;stroke-width:1;"/><line style="stroke:#181818;stroke-width:1;" x1="591.0562" x2="701.7871" y1="438.9844" y2="438.9844"/><line style="stroke:#181818;stroke-width:1;" x1="701.7871" x2="701.7871" y1="438.9844" y2="460.9844"/><polygon fill="#181818" points="697.7871,450.9844,701.7871,460.9844,705.7871,450.9844,701.7871,454.9844" style="stroke:#181818;stroke-width:1;"/><line style="stroke:#181818;stroke-width:1;" x1="229.0313" x2="229.0313" y1="494.9531" y2="512.9531"/><line style="stroke:#181818;stroke-width:1;" x1="229.0313" x2="453.4092" y1="512.9531" y2="512.9531"/><polygon fill="#181818" points="443.4092,508.9531,453.4092,512.9531,443.4092,516.9531,447.4092,512.9531" style="stroke:#181818;stroke-width:1;"/><line style="stroke:#181818;stroke-width:1;" x1="701.7871" x2="701.7871" y1="494.9531" y2="512.9531"/><line style="stroke:#181818;stroke-width:1;" x1="701.7871" x2="477.4092" y1="512.9531" y2="512.9531"/><polygon fill="#181818" points="487.4092,508.9531,477.4092,512.9531,487.4092,516.9531,483.4092,512.9531" style="stroke:#181818;stroke-width:1;"/><line style="stroke:#181818;stroke-width:1;" x1="465.4092" x2="465.4092" y1="406.9844" y2="426.9844"/><polygon fill="#181818" points="461.4092,416.9844,465.4092,426.9844,469.4092,416.9844,465.4092,420.9844" style="stroke:#181818;stroke-width:1;"/><line style="stroke:#181818;stroke-width:1;" x1="465.4092" x2="465.4092" y1="524.9531" y2="544.9531"/><polygon fill="#181818" points="461.4092,534.9531,465.4092,544.9531,469.4092,534.9531,465.4092,538.9531" style="stroke:#181818;stroke-width:1;"/><!--SRC=[XL9BJWCn3Dtt55PNhGGNA0k4e1AhsLGSm2IUOfJQ8piZSQckE00IlHXEMrH4YzWvyvxV9vdAjH3Sg_XOAXhSZGKd7bETB9O5HX_HMC6rSEAAKBY1W45poEo32ZyNyfiztGEb3S90jk5A_x3Fn5cgQHuJ6sIi6Yjqs0t-wfVqdzp51E0Q7dPRlDfFZsh7gNM3jQ5aEdrmI2gWbaamgv4Ve8vbFOg6yTCnvRSX0Vb0YNjEc7ZtBisvvn9evEGUPfyVoxUMLiwBxyrAf3qktCwXlWHnjjfjvs5ygXb9IDg5Xy2vJ416FuN0gL1AhAr5vA3Y1BDEBujkI1nVgIKdCxK5JBjuXpX91Ao6fXV2JqDMClVnV-Zm1G00]--></g></svg>