<svg xmlns="http://www.w3.org/2000/svg" xmlns:xlink="http://www.w3.org/1999/xlink" contentStyleType="text/css" height="1609px" preserveAspectRatio="none" style="width:784px;height:1609px;background:#FFFFFF;" version="1.1" viewBox="0 0 784 1609" width="784px" zoomAndPan="magnify"><defs/><g><!--cluster Aplicaci?n--><g id="cluster_Aplicaci&#243;n"><path d="M225.5,6 L307.3828,6 A3.75,3.75 0 0 1 309.8828,8.5 L316.8828,28.2969 L545.5,28.2969 A2.5,2.5 0 0 1 548,30.7969 L548,1599.5 A2.5,2.5 0 0 1 545.5,1602 L225.5,1602 A2.5,2.5 0 0 1 223,1599.5 L223,8.5 A2.5,2.5 0 0 1 225.5,6 " fill="none" style="stroke:#000000;stroke-width:1.5;"/><line style="stroke:#000000;stroke-width:1.5;" x1="223" x2="316.8828" y1="28.2969" y2="28.2969"/><text fill="#000000" font-family="sans-serif" font-size="14" font-weight="bold" lengthAdjust="spacing" textLength="80.8828" x="227" y="20.9951">Aplicaci&#243;n</text></g><!--cluster Sistema de Publicaciones--><g id="cluster_Sistema de Publicaciones"><path d="M275,828 L476.8057,828 A3.75,3.75 0 0 1 479.3057,830.5 L486.3057,850.2969 L496,850.2969 A2.5,2.5 0 0 1 498.5,852.7969 L498.5,1283.5 A2.5,2.5 0 0 1 496,1286 L275,1286 A2.5,2.5 0 0 1 272.5,1283.5 L272.5,830.5 A2.5,2.5 0 0 1 275,828 " fill="none" style="stroke:#000000;stroke-width:1.5;"/><line style="stroke:#000000;stroke-width:1.5;" x1="272.5" x2="486.3057" y1="850.2969" y2="850.2969"/><text fill="#000000" font-family="sans-serif" font-size="14" font-weight="bold" lengthAdjust="spacing" textLength="200.8057" x="276.5" y="842.9951">Sistema de Publicaciones</text></g><!--cluster Gesti?n de Usuarios--><g id="cluster_Gesti&#243;n de Usuarios"><path d="M250.5,346 L409.9297,346 A3.75,3.75 0 0 1 412.4297,348.5 L419.4297,368.2969 L520.5,368.2969 A2.5,2.5 0 0 1 523,370.7969 L523,801.5 A2.5,2.5 0 0 1 520.5,804 L250.5,804 A2.5,2.5 0 0 1 248,801.5 L248,348.5 A2.5,2.5 0 0 1 250.5,346 " fill="none" style="stroke:#000000;stroke-width:1.5;"/><line style="stroke:#000000;stroke-width:1.5;" x1="248" x2="419.4297" y1="368.2969" y2="368.2969"/><text fill="#000000" font-family="sans-serif" font-size="14" font-weight="bold" lengthAdjust="spacing" textLength="158.4297" x="252" y="360.9951">Gesti&#243;n de Usuarios</text></g><!--cluster Gesti?n de Contenido--><g id="cluster_Gesti&#243;n de Contenido"><path d="M251,1310 L422.1123,1310 A3.75,3.75 0 0 1 424.6123,1312.5 L431.6123,1332.2969 L520,1332.2969 A2.5,2.5 0 0 1 522.5,1334.7969 L522.5,1575.5 A2.5,2.5 0 0 1 520,1578 L251,1578 A2.5,2.5 0 0 1 248.5,1575.5 L248.5,1312.5 A2.5,2.5 0 0 1 251,1310 " fill="none" style="stroke:#000000;stroke-width:1.5;"/><line style="stroke:#000000;stroke-width:1.5;" x1="248.5" x2="431.6123" y1="1332.2969" y2="1332.2969"/><text fill="#000000" font-family="sans-serif" font-size="14" font-weight="bold" lengthAdjust="spacing" textLength="170.1123" x="252.5" y="1324.9951">Gesti&#243;n de Contenido</text></g><!--cluster Comunidad y Notificaciones--><g id="cluster_Comunidad y Notificaciones"><path d="M249.5,49 L470.0498,49 A3.75,3.75 0 0 1 472.5498,51.5 L479.5498,71.2969 L521.5,71.2969 A2.5,2.5 0 0 1 524,73.7969 L524,319.5 A2.5,2.5 0 0 1 521.5,322 L249.5,322 A2.5,2.5 0 0 1 247,319.5 L247,51.5 A2.5,2.5 0 0 1 249.5,49 " fill="none" style="stroke:#000000;stroke-width:1.5;"/><line style="stroke:#000000;stroke-width:1.5;" x1="247" x2="479.5498" y1="71.2969" y2="71.2969"/><text fill="#000000" font-family="sans-serif" font-size="14" font-weight="bold" lengthAdjust="spacing" textLength="219.5498" x="251" y="63.9951">Comunidad y Notificaciones</text></g><g id="elem_UC_U1"><ellipse cx="385.2643" cy="1096.7667" fill="#F1F1F1" rx="59.2643" ry="14.7667" style="stroke:#181818;stroke-width:0.5;"/><text fill="#000000" font-family="sans-serif" font-size="14" lengthAdjust="spacing" textLength="65.9258" x="349.3014" y="1100.5143">Ver posts</text></g><g id="elem_UC_U2"><ellipse cx="385.5783" cy="879.0157" fill="#F1F1F1" rx="65.5783" ry="15.5157" style="stroke:#181818;stroke-width:0.5;"/><text fill="#000000" font-family="sans-serif" font-size="14" lengthAdjust="spacing" textLength="80.459" x="342.3488" y="882.7632">Crear posts</text></g><g id="elem_UC_U3"><ellipse cx="385.4012" cy="951.0802" fill="#F1F1F1" rx="93.4012" ry="21.0802" style="stroke:#181818;stroke-width:0.5;"/><text fill="#000000" font-family="sans-serif" font-size="14" lengthAdjust="spacing" textLength="149.3994" x="310.7014" y="953.9269">Interactuar con posts</text></g><g id="elem_UC_U4"><ellipse cx="385.5683" cy="1027.0137" fill="#F1F1F1" rx="88.0683" ry="20.0137" style="stroke:#181818;stroke-width:0.5;"/><text fill="#000000" font-family="sans-serif" font-size="14" lengthAdjust="spacing" textLength="137.3545" x="316.8911" y="1029.8603">Reportar Contenido</text></g><g id="elem_UC_M1"><ellipse cx="385.6666" cy="1247.8333" fill="#F1F1F1" rx="94.6666" ry="21.3333" style="stroke:#181818;stroke-width:0.5;"/><text fill="#000000" font-family="sans-serif" font-size="14" lengthAdjust="spacing" textLength="152.2295" x="309.5518" y="1250.68">Revisar publicaciones</text></g><g id="elem_UC_M2"><ellipse cx="385.5099" cy="1168.802" fill="#F1F1F1" rx="97.0099" ry="21.802" style="stroke:#181818;stroke-width:0.5;"/><text fill="#000000" font-family="sans-serif" font-size="14" lengthAdjust="spacing" textLength="157.4453" x="306.7872" y="1171.6487">Eliminar publicaciones</text></g><g id="elem_UC_U5"><ellipse cx="385.385" cy="396.977" fill="#F1F1F1" rx="65.385" ry="15.477" style="stroke:#181818;stroke-width:0.5;"/><text fill="#000000" font-family="sans-serif" font-size="14" lengthAdjust="spacing" textLength="79.8984" x="342.4358" y="400.7246">Registrarse</text></g><g id="elem_UC_U6"><ellipse cx="385.6192" cy="463.8238" fill="#F1F1F1" rx="69.6192" ry="16.3238" style="stroke:#181818;stroke-width:0.5;"/><text fill="#000000" font-family="sans-serif" font-size="14" lengthAdjust="spacing" textLength="91.793" x="336.7227" y="467.5714">Iniciar sesi&#243;n</text></g><g id="elem_UC_U7"><ellipse cx="385.6428" cy="531.9286" fill="#F1F1F1" rx="70.1428" ry="16.4286" style="stroke:#181818;stroke-width:0.5;"/><text fill="#000000" font-family="sans-serif" font-size="14" lengthAdjust="spacing" textLength="93.2148" x="336.0353" y="535.6761">Cerrar sesi&#243;n</text></g><g id="elem_UC_M3"><ellipse cx="385.4646" cy="604.0929" fill="#F1F1F1" rx="88.4646" ry="20.0929" style="stroke:#181818;stroke-width:0.5;"/><text fill="#000000" font-family="sans-serif" font-size="14" lengthAdjust="spacing" textLength="138.2568" x="316.3362" y="606.9396">Suspender usuarios</text></g><g id="elem_UC_M4"><ellipse cx="385.393" cy="686.1786" fill="#F1F1F1" rx="121.393" ry="26.6786" style="stroke:#181818;stroke-width:0.5;"/><text fill="#000000" font-family="sans-serif" font-size="14" lengthAdjust="spacing" textLength="152.3115" x="304.0122" y="681.7777">Desbloquear usuarios</text><text fill="#000000" font-family="sans-serif" font-size="14" lengthAdjust="spacing" textLength="130.4434" x="319.3965" y="698.0746">o borrar sanciones</text></g><g id="elem_UC_M5"><ellipse cx="385.3946" cy="768.1789" fill="#F1F1F1" rx="88.8946" ry="20.1789" style="stroke:#181818;stroke-width:0.5;"/><text fill="#000000" font-family="sans-serif" font-size="14" lengthAdjust="spacing" textLength="139.2344" x="315.7774" y="771.0256">Enviar advertencias</text></g><g id="elem_UC_M6"><ellipse cx="385.6724" cy="1535.1345" fill="#F1F1F1" rx="121.1724" ry="26.6345" style="stroke:#181818;stroke-width:0.5;"/><text fill="#000000" font-family="sans-serif" font-size="14" lengthAdjust="spacing" textLength="151.6689" x="304.6129" y="1530.7336">Responder a reportes</text><text fill="#000000" font-family="sans-serif" font-size="14" lengthAdjust="spacing" textLength="91.4033" x="339.1959" y="1547.0305">de contenido</text></g><g id="elem_UC_M7"><ellipse cx="385.3023" cy="1453.0605" fill="#F1F1F1" rx="90.8023" ry="20.5605" style="stroke:#181818;stroke-width:0.5;"/><text fill="#000000" font-family="sans-serif" font-size="14" lengthAdjust="spacing" textLength="143.5547" x="313.5249" y="1455.9071">Revisar comentarios</text></g><g id="elem_UC_M8"><ellipse cx="385.721" cy="1371.2314" fill="#F1F1F1" rx="105.721" ry="26.2314" style="stroke:#181818;stroke-width:0.5;"/><text fill="#000000" font-family="sans-serif" font-size="14" lengthAdjust="spacing" textLength="127.668" x="316.662" y="1366.8305">Bloquear palabras</text><text fill="#000000" font-family="sans-serif" font-size="14" lengthAdjust="spacing" textLength="97.6992" x="336.0965" y="1383.1274">o expresiones</text></g><g id="elem_UC_U8"><ellipse cx="385.3162" cy="105.9632" fill="#F1F1F1" rx="95.3162" ry="21.4632" style="stroke:#181818;stroke-width:0.5;"/><text fill="#000000" font-family="sans-serif" font-size="14" lengthAdjust="spacing" textLength="153.6787" x="308.4769" y="108.8099">Entrar/Salir de grupos</text></g><g id="elem_UC_U9"><ellipse cx="385.7395" cy="189.9479" fill="#F1F1F1" rx="122.7395" ry="26.9479" style="stroke:#181818;stroke-width:0.5;"/><text fill="#000000" font-family="sans-serif" font-size="14" lengthAdjust="spacing" textLength="149.7549" x="308.6369" y="184.6461">Recibir notificaciones</text><text fill="#000000" font-family="sans-serif" font-size="14" lengthAdjust="spacing" textLength="159.0244" x="308.4523" y="200.943">de Anuncios o Eventos</text></g><g id="elem_UC_M9"><ellipse cx="385.6998" cy="278.7637" fill="#F1F1F1" rx="113.6998" ry="26.2637" style="stroke:#181818;stroke-width:0.5;"/><text fill="#000000" font-family="sans-serif" font-size="14" lengthAdjust="spacing" textLength="138.6465" x="311.1515" y="274.3628">Comunicar cambios</text><text fill="#000000" font-family="sans-serif" font-size="14" lengthAdjust="spacing" textLength="72.8369" x="348.5064" y="290.6597">de pol&#237;tica</text></g><!--entity A_Usuario--><g id="elem_A_Usuario"><ellipse cx="104.6021" cy="502.5" fill="#F1F1F1" rx="8" ry="8" style="stroke:#181818;stroke-width:0.5;"/><path d="M104.6021,510.5 L104.6021,537.5 M91.6021,518.5 L117.6021,518.5 M104.6021,537.5 L91.6021,552.5 M104.6021,537.5 L117.6021,552.5 " fill="none" style="stroke:#181818;stroke-width:0.5;"/><text fill="#000000" font-family="sans-serif" font-size="14" lengthAdjust="spacing" textLength="53.2041" x="78" y="566.9951">Usuario</text></g><!--entity A_Moderador--><g id="elem_A_Moderador"><ellipse cx="104.3438" cy="1154.5" fill="#F1F1F1" rx="8" ry="8" style="stroke:#181818;stroke-width:0.5;"/><path d="M104.3438,1162.5 L104.3438,1189.5 M91.3438,1170.5 L117.3438,1170.5 M104.3438,1189.5 L91.3438,1204.5 M104.3438,1189.5 L117.3438,1204.5 " fill="none" style="stroke:#181818;stroke-width:0.5;"/><text fill="#000000" font-family="sans-serif" font-size="14" lengthAdjust="spacing" textLength="75.6875" x="66.5" y="1218.9951">Moderador</text></g><g id="elem_GMN45"><path d="M7,1055.5 L7,1110.8984 A0,0 0 0 0 7,1110.8984 L202.1924,1110.8984 A0,0 0 0 0 202.1924,1110.8984 L202.1924,1091.86 L326.91,1094.11 L202.1924,1083.86 L202.1924,1065.5 L192.1924,1055.5 L7,1055.5 A0,0 0 0 0 7,1055.5 " fill="#FEFFDD" style="stroke:#181818;stroke-width:0.5;"/><path d="M192.1924,1055.5 L192.1924,1065.5 L202.1924,1065.5 L192.1924,1055.5 " fill="#FEFFDD" style="stroke:#181818;stroke-width:0.5;"/><text fill="#000000" font-family="sans-serif" font-size="13" lengthAdjust="spacing" textLength="170.0601" x="13" y="1072.5669">Sistema de publicaciones:</text><text fill="#000000" font-family="sans-serif" font-size="13" lengthAdjust="spacing" textLength="138.3662" x="13" y="1087.6997">Gesti&#243;n e interacci&#243;n</text><text fill="#000000" font-family="sans-serif" font-size="13" lengthAdjust="spacing" textLength="59.3633" x="13" y="1102.8325">de posts.</text></g><g id="elem_GMN48"><path d="M582.5,576.5 L582.5,600 L474.1,604 L582.5,608 L582.5,631.8984 A0,0 0 0 0 582.5,631.8984 L763.2134,631.8984 A0,0 0 0 0 763.2134,631.8984 L763.2134,586.5 L753.2134,576.5 L582.5,576.5 A0,0 0 0 0 582.5,576.5 " fill="#FEFFDD" style="stroke:#181818;stroke-width:0.5;"/><path d="M753.2134,576.5 L753.2134,586.5 L763.2134,586.5 L753.2134,576.5 " fill="#FEFFDD" style="stroke:#181818;stroke-width:0.5;"/><text fill="#000000" font-family="sans-serif" font-size="13" lengthAdjust="spacing" textLength="133.542" x="588.5" y="593.5669">Gesti&#243;n de usuarios:</text><text fill="#000000" font-family="sans-serif" font-size="13" lengthAdjust="spacing" textLength="159.7134" x="588.5" y="608.6997">Control y administraci&#243;n</text><text fill="#000000" font-family="sans-serif" font-size="13" lengthAdjust="spacing" textLength="75.9751" x="588.5" y="623.8325">de cuentas.</text></g><g id="elem_GMN51"><path d="M6,1507.5 L6,1562.8984 A0,0 0 0 0 6,1562.8984 L202.9824,1562.8984 A0,0 0 0 0 202.9824,1562.8984 L202.9824,1539 L264.4,1535 L202.9824,1531 L202.9824,1517.5 L192.9824,1507.5 L6,1507.5 A0,0 0 0 0 6,1507.5 " fill="#FEFFDD" style="stroke:#181818;stroke-width:0.5;"/><path d="M192.9824,1507.5 L192.9824,1517.5 L202.9824,1517.5 L192.9824,1507.5 " fill="#FEFFDD" style="stroke:#181818;stroke-width:0.5;"/><text fill="#000000" font-family="sans-serif" font-size="13" lengthAdjust="spacing" textLength="143.1333" x="12" y="1524.5669">Gesti&#243;n de contenido:</text><text fill="#000000" font-family="sans-serif" font-size="13" lengthAdjust="spacing" textLength="142.8667" x="12" y="1539.6997">Moderaci&#243;n y revisi&#243;n</text><text fill="#000000" font-family="sans-serif" font-size="13" lengthAdjust="spacing" textLength="175.9824" x="12" y="1554.8325">de reportes y comentarios.</text></g><g id="elem_GMN54"><path d="M568,251.5 L568,275 L499.34,279 L568,283 L568,306.8984 A0,0 0 0 0 568,306.8984 L777.9634,306.8984 A0,0 0 0 0 777.9634,306.8984 L777.9634,261.5 L767.9634,251.5 L568,251.5 A0,0 0 0 0 568,251.5 " fill="#FEFFDD" style="stroke:#181818;stroke-width:0.5;"/><path d="M767.9634,251.5 L767.9634,261.5 L777.9634,261.5 L767.9634,251.5 " fill="#FEFFDD" style="stroke:#181818;stroke-width:0.5;"/><text fill="#000000" font-family="sans-serif" font-size="13" lengthAdjust="spacing" textLength="184.52" x="574" y="268.5669">Comunidad y notificaciones:</text><text fill="#000000" font-family="sans-serif" font-size="13" lengthAdjust="spacing" textLength="166.7339" x="574" y="283.6997">Administraci&#243;n de grupos</text><text fill="#000000" font-family="sans-serif" font-size="13" lengthAdjust="spacing" textLength="188.9634" x="574" y="298.8325">y comunicaciones generales.</text></g><!--link A_Usuario to UC_U1--><g id="link_A_Usuario_UC_U1"><path d="M112.15,570.07 C133.05,688.94 197.13,1046.32 215,1064 C244.3,1092.99 285.0308,1100.261 322.0008,1100.871 " fill="none" id="A_Usuario-to-UC_U1" style="stroke:#181818;stroke-width:1.0;"/><polygon fill="#181818" points="328,1100.97,319.0672,1096.8221,323.0007,1100.8875,318.9352,1104.821,328,1100.97" style="stroke:#181818;stroke-width:1.0;"/></g><!--link A_Usuario to UC_U2--><g id="link_A_Usuario_UC_U2"><path d="M111.52,570.35 C122.43,628.01 150.61,737.39 215,804 C248.1,838.24 293.8033,856.3385 331.3533,866.8785 " fill="none" id="A_Usuario-to-UC_U2" style="stroke:#181818;stroke-width:1.0;"/><polygon fill="#181818" points="337.13,868.5,329.5459,862.2166,332.316,867.1488,327.3839,869.9189,337.13,868.5" style="stroke:#181818;stroke-width:1.0;"/></g><!--link A_Usuario to UC_U3--><g id="link_A_Usuario_UC_U3"><path d="M104.63,570.17 C105.08,646.76 117.54,819.71 215,912 C235.94,931.83 258.9457,941.1688 286.9657,946.4988 " fill="none" id="A_Usuario-to-UC_U3" style="stroke:#181818;stroke-width:1.0;"/><polygon fill="#181818" points="292.86,947.62,284.766,942.0086,287.9481,946.6856,283.2711,949.8677,292.86,947.62" style="stroke:#181818;stroke-width:1.0;"/></g><!--link A_Usuario to UC_U4--><g id="link_A_Usuario_UC_U4"><path d="M109.47,570.02 C120.55,668.78 155,929.87 215,989 C236.8,1010.49 262.0354,1019.9615 291.7054,1024.7115 " fill="none" id="A_Usuario-to-UC_U4" style="stroke:#181818;stroke-width:1.0;"/><polygon fill="#181818" points="297.63,1025.66,289.3755,1020.2876,292.6929,1024.8696,288.1108,1028.187,297.63,1025.66" style="stroke:#181818;stroke-width:1.0;"/></g><!--link A_Usuario to UC_U5--><g id="link_A_Usuario_UC_U5"><path d="M131.32,499.78 C151.61,476.71 181.9,446.86 215,430 C247.99,413.2 282.6444,405.6483 315.8444,401.5883 " fill="none" id="A_Usuario-to-UC_U5" style="stroke:#181818;stroke-width:1.0;"/><polygon fill="#181818" points="321.8,400.86,312.381,397.982,316.837,401.4669,313.3521,405.9229,321.8,400.86" style="stroke:#181818;stroke-width:1.0;"/></g><!--link A_Usuario to UC_U6--><g id="link_A_Usuario_UC_U6"><path d="M131.39,523.13 C153.45,515.78 186.07,505.37 215,498 C252.66,488.4 289.6999,480.9002 322.9299,474.7602 " fill="none" id="A_Usuario-to-UC_U6" style="stroke:#181818;stroke-width:1.0;"/><polygon fill="#181818" points="328.83,473.67,319.253,471.3719,323.9132,474.5785,320.7066,479.2387,328.83,473.67" style="stroke:#181818;stroke-width:1.0;"/></g><!--link A_Usuario to UC_U7--><g id="link_A_Usuario_UC_U7"><path d="M131.25,532 C172.73,532 249.73,532 309.42,532 " fill="none" id="A_Usuario-to-UC_U7" style="stroke:#181818;stroke-width:1.0;"/><polygon fill="#181818" points="315.42,532,306.42,528,310.42,532,306.42,536,315.42,532" style="stroke:#181818;stroke-width:1.0;"/></g><!--link A_Usuario to UC_U8--><g id="link_A_Usuario_UC_U8"><path d="M111.29,493.77 C125.37,405.94 163.97,193.56 215,145 C235.45,125.54 257.6936,116.2519 285.1536,110.8319 " fill="none" id="A_Usuario-to-UC_U8" style="stroke:#181818;stroke-width:1.0;"/><polygon fill="#181818" points="291.04,109.67,281.4358,107.4885,286.1346,110.6382,282.9849,115.3371,291.04,109.67" style="stroke:#181818;stroke-width:1.0;"/></g><!--link A_Usuario to UC_U9--><g id="link_A_Usuario_UC_U9"><path d="M108.51,493.98 C115.61,430.77 139.01,304.18 215,235 C232.11,219.42 248.259,210.8739 270.579,204.0939 " fill="none" id="A_Usuario-to-UC_U9" style="stroke:#181818;stroke-width:1.0;"/><polygon fill="#181818" points="276.32,202.35,266.5459,201.1385,271.5359,203.8032,268.8711,208.7932,276.32,202.35" style="stroke:#181818;stroke-width:1.0;"/></g><!--link A_Moderador to UC_M1--><g id="link_A_Moderador_UC_M1"><path d="M142.55,1192.5 C187.31,1202.77 257.6019,1218.8883 312.5219,1231.4883 " fill="none" id="A_Moderador-to-UC_M1" style="stroke:#181818;stroke-width:1.0;"/><polygon fill="#181818" points="318.37,1232.83,310.4924,1226.9188,313.4966,1231.7119,308.7034,1234.7162,318.37,1232.83" style="stroke:#181818;stroke-width:1.0;"/></g><!--link A_Moderador to UC_M2--><g id="link_A_Moderador_UC_M2"><path d="M142.55,1182.01 C180.2,1179.98 234.0487,1177.0923 284.7987,1174.3623 " fill="none" id="A_Moderador-to-UC_M2" style="stroke:#181818;stroke-width:1.0;"/><polygon fill="#181818" points="290.79,1174.04,281.5881,1170.5292,285.7972,1174.3086,282.0179,1178.5177,290.79,1174.04" style="stroke:#181818;stroke-width:1.0;"/></g><!--link A_Moderador to UC_M3--><g id="link_A_Moderador_UC_M3"><path d="M142.69,1172.9 C164.31,1164.34 189.82,1150.14 203,1128 C216.82,1104.79 197.86,662.87 215,642 C234.81,617.88 260.3598,607.8953 290.8598,603.5553 " fill="none" id="A_Moderador-to-UC_M3" style="stroke:#181818;stroke-width:1.0;"/><polygon fill="#181818" points="296.8,602.71,287.3263,600.0178,291.8499,603.4144,288.4533,607.938,296.8,602.71" style="stroke:#181818;stroke-width:1.0;"/></g><!--link A_Moderador to UC_M4--><g id="link_A_Moderador_UC_M4"><path d="M142.64,1172.87 C164.25,1164.3 189.76,1150.1 203,1128 C225.74,1090.05 187.41,764.58 215,730 C228.94,712.53 243.132,703.3191 264.432,696.4191 " fill="none" id="A_Moderador-to-UC_M4" style="stroke:#181818;stroke-width:1.0;"/><polygon fill="#181818" points="270.14,694.57,260.3453,693.5383,265.3834,696.1109,262.8107,701.1489,270.14,694.57" style="stroke:#181818;stroke-width:1.0;"/></g><!--link A_Moderador to UC_M5--><g id="link_A_Moderador_UC_M5"><path d="M142.55,1172.81 C164.11,1164.22 189.62,1150.02 203,1128 C235.46,1074.59 180.3,898.98 215,847 C238.34,812.03 275.7019,793.9502 312.5919,782.9102 " fill="none" id="A_Moderador-to-UC_M5" style="stroke:#181818;stroke-width:1.0;"/><polygon fill="#181818" points="318.34,781.19,308.571,779.9383,313.5499,782.6235,310.8646,787.6024,318.34,781.19" style="stroke:#181818;stroke-width:1.0;"/></g><!--link A_Moderador to UC_M6--><g id="link_A_Moderador_UC_M6"><path d="M107.94,1222.01 C114.19,1286.93 136.41,1419.09 215,1491 C232.05,1506.6 248.1605,1515.0944 270.4805,1521.7544 " fill="none" id="A_Moderador-to-UC_M6" style="stroke:#181818;stroke-width:1.0;"/><polygon fill="#181818" points="276.23,1523.47,268.7495,1517.0636,271.4387,1522.0404,266.462,1524.7296,276.23,1523.47" style="stroke:#181818;stroke-width:1.0;"/></g><!--link A_Moderador to UC_M7--><g id="link_A_Moderador_UC_M7"><path d="M112.91,1222.19 C124.98,1273.81 153.95,1365 215,1414 C238.08,1432.52 262.4331,1441.4725 290.9731,1446.8325 " fill="none" id="A_Moderador-to-UC_M7" style="stroke:#181818;stroke-width:1.0;"/><polygon fill="#181818" points="296.87,1447.94,288.763,1442.3475,291.9559,1447.0171,287.2863,1450.2101,296.87,1447.94" style="stroke:#181818;stroke-width:1.0;"/></g><!--link A_Moderador to UC_M8--><g id="link_A_Moderador_UC_M8"><path d="M141.23,1222.23 C161.6,1242.71 188.33,1267.47 215,1286 C251.22,1311.18 290.4911,1330.8343 324.9011,1346.1943 " fill="none" id="A_Moderador-to-UC_M8" style="stroke:#181818;stroke-width:1.0;"/><polygon fill="#181818" points="330.38,1348.64,323.7921,1341.3188,325.8142,1346.6019,320.5312,1348.6241,330.38,1348.64" style="stroke:#181818;stroke-width:1.0;"/></g><!--link A_Moderador to UC_M9--><g id="link_A_Moderador_UC_M9"><path d="M142.76,1172.94 C164.4,1164.39 189.92,1150.2 203,1128 C224.53,1091.48 192.53,400.95 215,365 C235.55,332.12 267.3205,313.4026 301.7705,300.5126 " fill="none" id="A_Moderador-to-UC_M9" style="stroke:#181818;stroke-width:1.0;"/><polygon fill="#181818" points="307.39,298.41,297.559,297.8176,302.7071,300.1622,300.3625,305.3103,307.39,298.41" style="stroke:#181818;stroke-width:1.0;"/></g><!--SRC=[XLNBRjim4BppAnQvfqNyjWy5NDSeUd1Hn71F0GAQMhj4PL8bAQD1qK_ggP-G7-jIecN9tgGwsSFbQcRseHnt0O85f_VV0cJQeGhQ6Y6a2jR1nfVIQGlIm_mn_Kb7AvkXandzgWwRlq8KKdsNUuIRUP5h9PL-_cjku9SGG4zpkDO-u452Xl2btDQ1rg2FaP2UqgEIdeA_eeF2-a2dzBRDud5pTnsqS2WlmthNOPzC8AOga1XGrbnSw5zVkCV2ka3H2qjNZSvi4ptWee_QHnvTKVM55KDxcUk3DY_Ug1Nyld3l8_eGVOtsfRhmpjtZdensqdbiM0yvKxJInC6ZhykLGaUCpUWS4pc-ZboNla13VK7GYM9InTZy0Vqsjp_AMCHJF3mOiB2rzHkbkV26iNzfZb67p8xeg5WawXm-_A-LhGgpNlh2LdeakAefi6985zLbQwn6BxU6iWSqeMi8Oz_xank5pENMoUG6_YmSUTynOi8gMzX3IPna1a_msGQzUtt8bYRsoTkrpBMBclQkBCuCDnDEaD9R2ZQTvCcIkIbZlJnHNXv9RolLbEcgYgkAxiZ3DfMUiXGsV_uJwA3HEarQIMspa-3szbrQ2zTOZy7w33PWi263ZHXip60J1fj6qkVLcU3L7OlsMBJFeWCM7RBeY4N7B3fXKP91DKV8u-V3xfBrhPNUsMKp4CsG8UXw_rQV1L5LcFRl6q6B8lOHfipr1wbEJPBRGtfQ3ZCHnzNPdDfRPhH3gqNNv5Lb7BBhp2tEv4GxSJF4HBZMN2MZz2vExYbnC_fFxKb-NS5Kj8UnEoypCU-oFm-Vg5vH3KQQhJqQufLZwtt_0000]--></g></svg>