<svg xmlns="http://www.w3.org/2000/svg" xmlns:xlink="http://www.w3.org/1999/xlink" contentStyleType="text/css" height="906px" preserveAspectRatio="none" style="width:597px;height:906px;background:#FFFFFF;" version="1.1" viewBox="0 0 597 906" width="597px" zoomAndPan="magnify"><defs/><g><ellipse cx="347.49" cy="16" fill="#222222" rx="10" ry="10" style="stroke:#222222;stroke-width:1.0;"/><g id="Usuario"><rect fill="#F1F1F1" height="50.2656" rx="12.5" ry="12.5" style="stroke:#181818;stroke-width:0.5;" width="131.2402" x="217.87" y="87"/><line style="stroke:#181818;stroke-width:0.5;" x1="217.87" x2="349.1102" y1="113.2969" y2="113.2969"/><text fill="#000000" font-family="sans-serif" font-size="14" lengthAdjust="spacing" textLength="53.2041" x="256.8881" y="104.9951">Usuario</text><text fill="#000000" font-family="sans-serif" font-size="12" lengthAdjust="spacing" textLength="111.2402" x="222.87" y="129.4355">Estado del usuario</text></g><g id="Alta"><rect fill="#F1F1F1" height="50.2656" rx="12.5" ry="12.5" style="stroke:#181818;stroke-width:0.5;" width="105.8516" x="93.56" y="214.26"/><line style="stroke:#181818;stroke-width:0.5;" x1="93.56" x2="199.4116" y1="240.5569" y2="240.5569"/><text fill="#000000" font-family="sans-serif" font-size="14" lengthAdjust="spacing" textLength="27.5352" x="132.7182" y="232.2551">Alta</text><text fill="#000000" font-family="sans-serif" font-size="12" lengthAdjust="spacing" textLength="85.8516" x="98.56" y="256.6955">Usuario activo</text></g><g id="NoAlta"><rect fill="#F1F1F1" height="50.2656" rx="12.5" ry="12.5" style="stroke:#181818;stroke-width:0.5;" width="116.791" x="234.09" y="214.26"/><line style="stroke:#181818;stroke-width:0.5;" x1="234.09" x2="350.881" y1="240.5569" y2="240.5569"/><text fill="#000000" font-family="sans-serif" font-size="14" lengthAdjust="spacing" textLength="46.5732" x="269.1989" y="232.2551">NoAlta</text><text fill="#000000" font-family="sans-serif" font-size="12" lengthAdjust="spacing" textLength="96.791" x="239.09" y="256.6955">Usuario inactivo</text></g><g id="Suspendido"><rect fill="#F1F1F1" height="50.2656" rx="12.5" ry="12.5" style="stroke:#181818;stroke-width:0.5;" width="234.9805" x="7" y="341.53"/><line style="stroke:#181818;stroke-width:0.5;" x1="7" x2="241.9805" y1="367.8269" y2="367.8269"/><text fill="#000000" font-family="sans-serif" font-size="14" lengthAdjust="spacing" textLength="81.6553" x="83.6626" y="359.5251">Suspendido</text><text fill="#000000" font-family="sans-serif" font-size="12" lengthAdjust="spacing" textLength="214.9805" x="12" y="383.9655">Usuario temporalmente suspendido</text></g><g id="Post"><rect fill="#F1F1F1" height="50.2656" rx="12.5" ry="12.5" style="stroke:#181818;stroke-width:0.5;" width="112.7305" x="255.13" y="468.79"/><line style="stroke:#181818;stroke-width:0.5;" x1="255.13" x2="367.8605" y1="495.0869" y2="495.0869"/><text fill="#000000" font-family="sans-serif" font-size="14" lengthAdjust="spacing" textLength="29.791" x="296.5997" y="486.7851">Post</text><text fill="#000000" font-family="sans-serif" font-size="12" lengthAdjust="spacing" textLength="92.7305" x="260.13" y="511.2255">Estado del post</text></g><g id="Borrador"><rect fill="#F1F1F1" height="50" rx="12.5" ry="12.5" style="stroke:#181818;stroke-width:0.5;" width="81.4688" x="270.76" y="596.06"/><line style="stroke:#181818;stroke-width:0.5;" x1="270.76" x2="352.2288" y1="622.3569" y2="622.3569"/><text fill="#000000" font-family="sans-serif" font-size="14" lengthAdjust="spacing" textLength="61.4688" x="280.76" y="614.0551">Borrador</text></g><g id="Resuelto"><rect fill="#F1F1F1" height="50.2656" rx="12.5" ry="12.5" style="stroke:#181818;stroke-width:0.5;" width="81.0654" x="182.96" y="723.06"/><line style="stroke:#181818;stroke-width:0.5;" x1="182.96" x2="264.0254" y1="749.3569" y2="749.3569"/><text fill="#000000" font-family="sans-serif" font-size="14" lengthAdjust="spacing" textLength="61.0654" x="192.96" y="741.0551">Resuelto</text><text fill="#000000" font-family="sans-serif" font-size="12" lengthAdjust="spacing" textLength="52.3418" x="187.96" y="765.4955">Resuelto</text></g><g id="NoResuelto"><rect fill="#F1F1F1" height="50.2656" rx="12.5" ry="12.5" style="stroke:#181818;stroke-width:0.5;" width="100.1035" x="223.44" y="850.32"/><line style="stroke:#181818;stroke-width:0.5;" x1="223.44" x2="323.5435" y1="876.6169" y2="876.6169"/><text fill="#000000" font-family="sans-serif" font-size="14" lengthAdjust="spacing" textLength="80.1035" x="233.44" y="868.3151">NoResuelto</text><text fill="#000000" font-family="sans-serif" font-size="12" lengthAdjust="spacing" textLength="69.0703" x="228.44" y="892.7555">No resuelto</text></g><!--link *start* to Usuario--><g id="link_*start*_Usuario"><path d="M342.25,24.7 C333.18,38.05 317.5333,61.048 303.5833,81.568 " fill="none" id="*start*-to-Usuario" style="stroke:#181818;stroke-width:1.0;"/><polygon fill="#181818" points="300.21,86.53,308.5779,81.3359,303.0211,82.395,301.9619,76.8382,300.21,86.53" style="stroke:#181818;stroke-width:1.0;"/></g><!--link Usuario to Alta--><g id="link_Usuario_Alta"><path d="M227.26,137.69 C212.87,145.72 198.17,155.62 186.49,167.26 C173.24,180.46 165.5178,193.5046 158.7278,208.3346 " fill="none" id="Usuario-to-Alta" style="stroke:#181818;stroke-width:1.0;"/><polygon fill="#181818" points="156.23,213.79,163.6136,207.2721,158.3115,209.2439,156.3397,203.9418,156.23,213.79" style="stroke:#181818;stroke-width:1.0;"/><text fill="#000000" font-family="sans-serif" font-size="13" lengthAdjust="spacing" textLength="83.3384" x="187.49" y="180.3269">Dado de alta</text></g><!--link Usuario to NoAlta--><g id="link_Usuario_NoAlta"><path d="M280.64,137.55 C279.5,151.31 278.79,168.78 280.49,184.26 C281.56,194.02 282.3012,198.7606 284.4712,207.9506 " fill="none" id="Usuario-to-NoAlta" style="stroke:#181818;stroke-width:1.0;"/><polygon fill="#181818" points="285.85,213.79,287.6747,204.1116,284.701,208.9238,279.8888,205.9501,285.85,213.79" style="stroke:#181818;stroke-width:1.0;"/><text fill="#000000" font-family="sans-serif" font-size="13" lengthAdjust="spacing" textLength="103.3906" x="281.49" y="180.3269">No dado de alta</text></g><!--link Alta to Suspendido--><g id="link_Alta_Suspendido"><path d="M93.33,258.8 C77.34,267.11 61.63,278.71 52.49,294.53 C42.2,312.33 51.4032,325.3291 69.8032,337.8791 " fill="none" id="Alta-to-Suspendido" style="stroke:#181818;stroke-width:1.0;"/><polygon fill="#181818" points="74.76,341.26,69.5787,332.8842,70.6293,338.4426,65.0709,339.4932,74.76,341.26" style="stroke:#181818;stroke-width:1.0;"/><text fill="#000000" font-family="sans-serif" font-size="13" lengthAdjust="spacing" textLength="64.0605" x="53.49" y="307.5969">Infracci&#243;n</text></g><!--link Suspendido to Alta--><g id="link_Suspendido_Alta"><path d="M128.77,341.27 C132.65,319.22 137.2816,292.8295 141.1616,270.7495 " fill="none" id="Suspendido-to-Alta" style="stroke:#181818;stroke-width:1.0;"/><polygon fill="#181818" points="142.2,264.84,136.7027,273.0119,141.3346,269.7645,144.582,274.3965,142.2,264.84" style="stroke:#181818;stroke-width:1.0;"/><text fill="#000000" font-family="sans-serif" font-size="13" lengthAdjust="spacing" textLength="96.313" x="138.49" y="307.5969">Fin suspensi&#243;n</text></g><!--link *start* to Post--><g id="link_*start*_Post"><path d="M355.34,22.86 C372.43,36.38 411.49,71.61 411.49,111.13 C411.49,111.13 411.49,111.13 411.49,367.66 C411.49,409.82 381.1874,442.2424 352.5974,464.7124 " fill="none" id="*start*-to-Post" style="stroke:#181818;stroke-width:1.0;"/><polygon fill="#181818" points="347.88,468.42,357.4278,466.0036,351.8112,465.3303,352.4844,459.7137,347.88,468.42" style="stroke:#181818;stroke-width:1.0;"/></g><!--link Alta to Post--><g id="link_Alta_Post"><path d="M199.76,261.4 C215.56,269.74 231.75,280.71 243.49,294.53 C287.46,346.28 302.6502,421.9735 308.1002,462.4935 " fill="none" id="Alta-to-Post" style="stroke:#181818;stroke-width:1.0;"/><polygon fill="#181818" points="308.9,468.44,311.6646,458.9871,308.2335,463.4846,303.736,460.0535,308.9,468.44" style="stroke:#181818;stroke-width:1.0;"/><text fill="#000000" font-family="sans-serif" font-size="13" lengthAdjust="spacing" textLength="30.3862" x="292.49" y="371.2269">Crea</text></g><!--link Suspendido to Post--><g id="link_Suspendido_Post"><path d="M140.16,391.99 C150.88,407.08 166.24,425.97 183.49,438.79 C204.79,454.63 225.802,464.7433 249.242,473.5333 " fill="none" id="Suspendido-to-Post" style="stroke:#181818;stroke-width:1.0;stroke-dasharray:7.0,7.0;"/><polygon fill="#181818" points="254.86,475.64,247.8375,468.7346,250.1784,473.8844,245.0285,476.2252,254.86,475.64" style="stroke:#181818;stroke-width:1.0;"/><text fill="#000000" font-family="sans-serif" font-size="13" lengthAdjust="spacing" textLength="100.4834" x="184.49" y="434.8569">No puede crear</text></g><!--link Post to Borrador--><g id="link_Post_Borrador"><path d="M311.49,519.35 C311.49,541.4 311.49,567.67 311.49,589.7 " fill="none" id="Post-to-Borrador" style="stroke:#181818;stroke-width:1.0;"/><polygon fill="#181818" points="311.49,595.7,315.49,586.7,311.49,590.7,307.49,586.7,311.49,595.7" style="stroke:#181818;stroke-width:1.0;"/><text fill="#000000" font-family="sans-serif" font-size="13" lengthAdjust="spacing" textLength="99.271" x="312.49" y="562.1269">Creaci&#243;n inicial</text></g><!--link Borrador to Resuelto--><g id="link_Borrador_Resuelto"><path d="M270.49,635.58 C251.73,644.06 231.31,657.06 220.49,676.06 C212.54,690.02 212.2954,702.2602 215.1054,716.7202 " fill="none" id="Borrador-to-Resuelto" style="stroke:#181818;stroke-width:1.0;"/><polygon fill="#181818" points="216.25,722.61,218.4597,713.0122,215.2962,717.7018,210.6066,714.5383,216.25,722.61" style="stroke:#181818;stroke-width:1.0;"/><text fill="#000000" font-family="sans-serif" font-size="13" lengthAdjust="spacing" textLength="152.8452" x="221.49" y="689.1269">Marcado como resuelto</text></g><!--link Borrador to NoResuelto--><g id="link_Borrador_NoResuelto"><path d="M352.5,645.7 C362.91,653.88 372.75,664.06 378.49,676.06 C395.21,711 466.33,659.98 362.49,820.32 C353.15,834.75 343.7114,842.9642 328.9614,851.3142 " fill="none" id="Borrador-to-NoResuelto" style="stroke:#181818;stroke-width:1.0;"/><polygon fill="#181818" points="323.74,854.27,333.5427,853.3172,328.0912,851.8068,329.6015,846.3553,323.74,854.27" style="stroke:#181818;stroke-width:1.0;"/><text fill="#000000" font-family="sans-serif" font-size="13" lengthAdjust="spacing" textLength="173.1704" x="416.49" y="752.7569">Marcado como no resuelto</text></g><!--link NoResuelto to Resuelto--><g id="link_NoResuelto_Resuelto"><path d="M263.76,850.07 C254.95,828.02 244.2844,801.2824 235.4744,779.2124 " fill="none" id="NoResuelto-to-Resuelto" style="stroke:#181818;stroke-width:1.0;"/><polygon fill="#181818" points="233.25,773.64,232.8717,783.4816,235.1037,778.2837,240.3016,780.5157,233.25,773.64" style="stroke:#181818;stroke-width:1.0;"/><text fill="#000000" font-family="sans-serif" font-size="13" lengthAdjust="spacing" textLength="102.1338" x="251.49" y="816.3869">Marcar resuelto</text></g><!--link Resuelto to NoResuelto--><g id="link_Resuelto_NoResuelto"><path d="M199.38,773.5 C188.63,787.37 180.08,805 188.49,820.32 C196.23,834.44 204.252,842.3014 217.932,850.5514 " fill="none" id="Resuelto-to-NoResuelto" style="stroke:#181818;stroke-width:1.0;"/><polygon fill="#181818" points="223.07,853.65,217.4287,845.5768,218.7883,851.0679,213.2973,852.4275,223.07,853.65" style="stroke:#181818;stroke-width:1.0;"/><text fill="#000000" font-family="sans-serif" font-size="13" lengthAdjust="spacing" textLength="47.5503" x="189.49" y="816.3869">Reabrir</text></g><!--SRC=[TP11JWCn34NtEONNIBr05qXGG6B121LrDUh294P4cab6JiB5E08N8vvcfaafgoJ_F__Oxc-EiDdSmY4aPEjLEM4BZo6YyM1eW7HXIi7T435J3oS6C3yRl_E5wB9VGqLUMDJHVdcruejkNN5cNHBVKfZ86MkaksVtmQYr_VbsgZAgpfwiWp0xuP8w_n9fd3pZC9ABL711bEhBObvzYESUvBM57HCsl_O6moUPuqhaeQT4UMITKLOYjYkT97QM9VRUCsU7uPGzZvKtOBN5GQsca7iAYOOeCxmWQudJVlJ0HM_fpl_7kwgaOfQhQYgx2gwCQ_tmbTW_dUm9tzdoBm00]--></g></svg>
