<?xml version="1.0" encoding="us-ascii" standalone="no"?><svg xmlns="http://www.w3.org/2000/svg" xmlns:xlink="http://www.w3.org/1999/xlink" contentStyleType="text/css" height="351px" preserveAspectRatio="none" style="width:683px;height:351px;background:#FFFFFF;" version="1.1" viewBox="0 0 683 351" width="683px" zoomAndPan="magnify"><defs/><g><!--cluster RastreadorDocumento--><g id="cluster_RastreadorDocumento"><path d="M193.5,7 L618.5,7 A12.5,12.5 0 0 1 631,19.5 L631,29.6094 L181,29.6094 L181,19.5 A12.5,12.5 0 0 1 193.5,7 " fill="#F1F1F1" style="stroke:#F1F1F1;stroke-width:1.0;"/><rect fill="none" height="338" rx="12.5" ry="12.5" style="stroke:#181818;stroke-width:0.5;" width="450" x="181" y="7"/><line style="stroke:#181818;stroke-width:0.5;" x1="181" x2="631" y1="29.6094" y2="29.6094"/><text fill="#000000" font-family="sans-serif" font-size="14" lengthAdjust="spacing" textLength="143" x="334.5" y="25.5332">RastreadorDocumento</text></g><g id="RastreadorDocumento.ActualizandoEstadoMensaje"><rect fill="#F1F1F1" height="50" rx="12.5" ry="12.5" style="stroke:#181818;stroke-width:0.5;" width="197" x="253.5" y="161"/><line style="stroke:#181818;stroke-width:0.5;" x1="253.5" x2="450.5" y1="188.6094" y2="188.6094"/><text fill="#000000" font-family="sans-serif" font-size="14" lengthAdjust="spacing" textLength="177" x="263.5" y="180.5332">ActualizandoEstadoMensaje</text></g><g id="RastreadorDocumento.AccediendoDocumento"><rect fill="#F1F1F1" height="50" rx="12.5" ry="12.5" style="stroke:#181818;stroke-width:0.5;" width="166" x="269" y="51"/><line style="stroke:#181818;stroke-width:0.5;" x1="269" x2="435" y1="78.6094" y2="78.6094"/><text fill="#000000" font-family="sans-serif" font-size="14" lengthAdjust="spacing" textLength="146" x="279" y="70.5332">AccediendoDocumento</text></g><g id="RastreadorDocumento.Pendiente"><rect fill="#F1F1F1" height="50" rx="12.5" ry="12.5" style="stroke:#181818;stroke-width:0.5;" width="84" x="205" y="271"/><line style="stroke:#181818;stroke-width:0.5;" x1="205" x2="289" y1="298.6094" y2="298.6094"/><text fill="#000000" font-family="sans-serif" font-size="14" lengthAdjust="spacing" textLength="64" x="215" y="290.5332">Pendiente</text></g><g id="RastreadorDocumento.Leido"><rect fill="#F1F1F1" height="50" rx="12.5" ry="12.5" style="stroke:#181818;stroke-width:0.5;" width="55" x="324.5" y="271"/><line style="stroke:#181818;stroke-width:0.5;" x1="324.5" x2="379.5" y1="298.6094" y2="298.6094"/><text fill="#000000" font-family="sans-serif" font-size="14" lengthAdjust="spacing" textLength="35" x="334.5" y="290.5332">Leido</text></g><g id="RastreadorDocumento.Atrasado"><rect fill="#F1F1F1" height="50" rx="12.5" ry="12.5" style="stroke:#181818;stroke-width:0.5;" width="77" x="414.5" y="271"/><line style="stroke:#181818;stroke-width:0.5;" x1="414.5" x2="491.5" y1="298.6094" y2="298.6094"/><text fill="#000000" font-family="sans-serif" font-size="14" lengthAdjust="spacing" textLength="57" x="424.5" y="290.5332">Atrasado</text></g><g id="RastreadorDocumento.Firmado"><rect fill="#F1F1F1" height="50" rx="12.5" ry="12.5" style="stroke:#181818;stroke-width:0.5;" width="72" x="527" y="271"/><line style="stroke:#181818;stroke-width:0.5;" x1="527" x2="599" y1="298.6094" y2="298.6094"/><text fill="#000000" font-family="sans-serif" font-size="14" lengthAdjust="spacing" textLength="52" x="537" y="290.5332">Firmado</text></g><g id="Destinatario"><rect fill="#F1F1F1" height="50" rx="12.5" ry="12.5" style="stroke:#181818;stroke-width:0.5;" width="96" x="61" y="161"/><line style="stroke:#181818;stroke-width:0.5;" x1="61" x2="157" y1="188.6094" y2="188.6094"/><text fill="#000000" font-family="sans-serif" font-size="14" lengthAdjust="spacing" textLength="76" x="71" y="180.5332">Destinatario</text></g><ellipse cx="16" cy="186" fill="#222222" rx="10" ry="10" style="stroke:#222222;stroke-width:1.0;"/><ellipse cx="666" cy="186" fill="none" rx="11" ry="11" style="stroke:#222222;stroke-width:1.0;"/><ellipse cx="666" cy="186" fill="#222222" rx="6" ry="6" style="stroke:#222222;stroke-width:1.0;"/><!--link startDestinatario to Destinatario--><g id="link_startDestinatario_Destinatario"><path d="M26.17,186 C37.71,186 43.25,186 54.79,186 " fill="none" id="startDestinatario-to-Destinatario" style="stroke:#181818;stroke-width:1.0;"/><polygon fill="#181818" points="60.79,186,51.79,182,55.79,186,51.79,190,60.79,186" style="stroke:#181818;stroke-width:1.0;"/></g><!--link ActualizandoEstadoMensaje to AccediendoDocumento--><g id="link_ActualizandoEstadoMensaje_AccediendoDocumento"><path d="M363.47,160.84 C366.17,143.08 367.0808,124.952 364.3808,107.172 " fill="none" id="ActualizandoEstadoMensaje-to-AccediendoDocumento" style="stroke:#181818;stroke-width:1.0;"/><polygon fill="#181818" points="363.48,101.24,360.8766,110.7385,364.2307,106.1833,368.7859,109.5375,363.48,101.24" style="stroke:#181818;stroke-width:1.0;"/></g><!--link AccediendoDocumento to ActualizandoEstadoMensaje--><g id="link_AccediendoDocumento_ActualizandoEstadoMensaje"><path d="M341.16,101.24 C338.61,119.02 337.754,137.1414 340.314,154.9014 " fill="none" id="AccediendoDocumento-to-ActualizandoEstadoMensaje" style="stroke:#181818;stroke-width:1.0;"/><polygon fill="#181818" points="341.17,160.84,343.8451,151.3614,340.4567,155.8911,335.9269,152.5027,341.17,160.84" style="stroke:#181818;stroke-width:1.0;"/></g><!--link ActualizandoEstadoMensaje to Pendiente--><g id="link_ActualizandoEstadoMensaje_Pendiente"><path d="M328.44,211.24 C311.14,229.02 291.9429,248.7784 274.6729,266.5384 " fill="none" id="ActualizandoEstadoMensaje-to-Pendiente" style="stroke:#181818;stroke-width:1.0;"/><polygon fill="#181818" points="270.49,270.84,279.632,267.1762,273.9757,267.2554,273.8966,261.5991,270.49,270.84" style="stroke:#181818;stroke-width:1.0;"/></g><!--link ActualizandoEstadoMensaje to Leido--><g id="link_ActualizandoEstadoMensaje_Leido"><path d="M352,211.24 C352,229.02 352,247.08 352,264.84 " fill="none" id="ActualizandoEstadoMensaje-to-Leido" style="stroke:#181818;stroke-width:1.0;"/><polygon fill="#181818" points="352,270.84,356,261.84,352,265.84,348,261.84,352,270.84" style="stroke:#181818;stroke-width:1.0;"/></g><!--link ActualizandoEstadoMensaje to Atrasado--><g id="link_ActualizandoEstadoMensaje_Atrasado"><path d="M374.67,211.24 C391.3,229.02 409.6903,248.6991 426.3103,266.4591 " fill="none" id="ActualizandoEstadoMensaje-to-Atrasado" style="stroke:#181818;stroke-width:1.0;"/><polygon fill="#181818" points="430.41,270.84,427.181,261.5355,426.9936,267.1892,421.3398,267.0018,430.41,270.84" style="stroke:#181818;stroke-width:1.0;"/></g><!--link ActualizandoEstadoMensaje to Firmado--><g id="link_ActualizandoEstadoMensaje_Firmado"><path d="M399.09,211.1 C437.71,230.87 486.2491,255.716 521.5291,273.776 " fill="none" id="ActualizandoEstadoMensaje-to-Firmado" style="stroke:#181818;stroke-width:1.0;"/><polygon fill="#181818" points="526.87,276.51,520.6814,268.8484,522.4193,274.2316,517.036,275.9696,526.87,276.51" style="stroke:#181818;stroke-width:1.0;"/></g><!--link Destinatario to ActualizandoEstadoMensaje--><g id="link_Destinatario_ActualizandoEstadoMensaje"><path d="M157.41,186 C189.34,186 215.26,186 247.18,186 " fill="none" id="Destinatario-to-ActualizandoEstadoMensaje" style="stroke:#181818;stroke-width:1.0;"/><polygon fill="#181818" points="253.18,186,244.18,182,248.18,186,244.18,190,253.18,186" style="stroke:#181818;stroke-width:1.0;"/></g><!--link RastreadorDocumento to *end*--><g id="link_RastreadorDocumento_*end*"><path d="M631.1244,97.4097 C631.3401,97.9516 631.5588,98.5009 631.7804,99.0574 C632.2234,100.1702 632.6778,101.3113 633.142,102.4772 C634.9989,107.1411 637.0144,112.2031 639.1025,117.4475 C647.455,138.425 654.7491,156.7462 659.9291,169.7462 " fill="none" id="RastreadorDocumento-to-*end*" style="stroke:#181818;stroke-width:1.0;"/><polygon fill="#181818" points="662.15,175.32,662.5345,165.4786,660.2992,170.6752,655.1027,168.4399,662.15,175.32" style="stroke:#181818;stroke-width:1.0;"/></g><!--SRC=[ZP2_2i903CRtUuhCGj-W50hLIK5SnI7SPJYn5yYbYyLtDwqYIYqjX0nVllpo9oigGKDPOq95YUpoA5aM_TO1od8KgyfDYuKKrI_cpJbXLY4CB0txhgMa3Bq3iAYzTdYBTqo1j-OEVA2KyKfG6Apsda8agtqQnvw9-fez2ripwsX0WoejElSK0o_lhe8PLnXtKTh1zt1k-ixvazo_hmwyy-Ro1000]--></g></svg>