<svg xmlns="http://www.w3.org/2000/svg" xmlns:xlink="http://www.w3.org/1999/xlink" contentStyleType="text/css" height="393px" preserveAspectRatio="none" style="width:659px;height:393px;background:#FFFFFF;" version="1.1" viewBox="0 0 659 393" width="659px" zoomAndPan="magnify"><defs/><g><!--cluster RastreadorDocumento--><g id="cluster_RastreadorDocumento"><path d="M149.5,50 L594.5,50 A12.5,12.5 0 0 1 607,62.5 L607,71.2969 L137,71.2969 L137,62.5 A12.5,12.5 0 0 1 149.5,50 " fill="#F1F1F1" style="stroke:#F1F1F1;stroke-width:1;"/><rect fill="none" height="337" rx="12.5" ry="12.5" style="stroke:#181818;stroke-width:0.5;" width="470" x="137" y="50"/><line style="stroke:#181818;stroke-width:0.5;" x1="137" x2="607" y1="71.2969" y2="71.2969"/><text fill="#000000" font-family="sans-serif" font-size="14" lengthAdjust="spacing" textLength="158.3408" x="292.8296" y="66.9951">RastreadorDocumento</text></g><g id="RastreadorDocumento.AccediendoMensaje"><rect fill="#F1F1F1" height="50" rx="12.5" ry="12.5" style="stroke:#181818;stroke-width:0.5;" width="159.2412" x="235.5" y="93"/><line style="stroke:#181818;stroke-width:0.5;" x1="235.5" x2="394.7412" y1="119.2969" y2="119.2969"/><text fill="#000000" font-family="sans-serif" font-size="14" lengthAdjust="spacing" textLength="139.2412" x="245.5" y="110.9951">AccediendoMensaje</text></g><g id="RastreadorDocumento.ActualizandoEstadoDocumento"><rect fill="#F1F1F1" height="50" rx="12.5" ry="12.5" style="stroke:#181818;stroke-width:0.5;" width="239.0029" x="195.5" y="203"/><line style="stroke:#181818;stroke-width:0.5;" x1="195.5" x2="434.5029" y1="229.2969" y2="229.2969"/><text fill="#000000" font-family="sans-serif" font-size="14" lengthAdjust="spacing" textLength="219.0029" x="205.5" y="220.9951">ActualizandoEstadoDocumento</text></g><g id="RastreadorDocumento.Pendiente"><rect fill="#F1F1F1" height="50" rx="12.5" ry="12.5" style="stroke:#181818;stroke-width:0.5;" width="90.2939" x="161" y="313"/><line style="stroke:#181818;stroke-width:0.5;" x1="161" x2="251.2939" y1="339.2969" y2="339.2969"/><text fill="#000000" font-family="sans-serif" font-size="14" lengthAdjust="spacing" textLength="70.2939" x="171" y="330.9951">Pendiente</text></g><g id="RastreadorDocumento.Leido"><rect fill="#F1F1F1" height="50" rx="12.5" ry="12.5" style="stroke:#181818;stroke-width:0.5;" width="57.7549" x="286" y="313"/><line style="stroke:#181818;stroke-width:0.5;" x1="286" x2="343.7549" y1="339.2969" y2="339.2969"/><text fill="#000000" font-family="sans-serif" font-size="14" lengthAdjust="spacing" textLength="37.7549" x="296" y="330.9951">Leido</text></g><g id="RastreadorDocumento.Atrasado"><rect fill="#F1F1F1" height="50" rx="12.5" ry="12.5" style="stroke:#181818;stroke-width:0.5;" width="82.7266" x="379.5" y="313"/><line style="stroke:#181818;stroke-width:0.5;" x1="379.5" x2="462.2266" y1="339.2969" y2="339.2969"/><text fill="#000000" font-family="sans-serif" font-size="14" lengthAdjust="spacing" textLength="62.7266" x="389.5" y="330.9951">Atrasado</text></g><g id="RastreadorDocumento.Firmado"><rect fill="#F1F1F1" height="50" rx="12.5" ry="12.5" style="stroke:#181818;stroke-width:0.5;" width="77.3672" x="497.5" y="313"/><line style="stroke:#181818;stroke-width:0.5;" x1="497.5" x2="574.8672" y1="339.2969" y2="339.2969"/><text fill="#000000" font-family="sans-serif" font-size="14" lengthAdjust="spacing" textLength="57.3672" x="507.5" y="330.9951">Firmado</text></g><g id="Destinatario"><rect fill="#F1F1F1" height="50" rx="12.5" ry="12.5" style="stroke:#181818;stroke-width:0.5;" width="105.7979" x="7" y="93"/><line style="stroke:#181818;stroke-width:0.5;" x1="7" x2="112.7979" y1="119.2969" y2="119.2969"/><text fill="#000000" font-family="sans-serif" font-size="14" lengthAdjust="spacing" textLength="85.7979" x="17" y="110.9951">Destinatario</text></g><ellipse cx="60" cy="16" fill="#222222" rx="10" ry="10" style="stroke:#222222;stroke-width:1;"/><ellipse cx="599" cy="16" fill="#222222" rx="10" ry="10" style="stroke:#222222;stroke-width:1;"/><ellipse cx="642" cy="228" fill="none" rx="11" ry="11" style="stroke:#222222;stroke-width:1;"/><ellipse cx="642" cy="228" fill="#222222" rx="6" ry="6" style="stroke:#222222;stroke-width:1;"/><!--link *start* to RastreadorDocumento--><g id="link_*start*_RastreadorDocumento"><path d="M599,26.23 C599,29.2763 599,32.9472 599,37.0429 C599,39.0908 599,41.2449 599,43.4802 C599,44.5979 599,45.7358 599,46.891 C599,47.4686 599,48.0504 599,48.6362 C599,48.9291 599,49.2229 599,49.5177 C599,49.6651 599,43.8128 599,43.9606 " fill="none" id="*start*-to-RastreadorDocumento" style="stroke:#181818;stroke-width:1;"/><polygon fill="#181818" points="599,49.9606,603,40.9606,599,44.9606,595,40.9606,599,49.9606" style="stroke:#181818;stroke-width:1;"/></g><!--link startDestinatario to Destinatario--><g id="link_startDestinatario_Destinatario"><path d="M60,26.23 C60,41.22 60,65.33 60,86.76 " fill="none" id="startDestinatario-to-Destinatario" style="stroke:#181818;stroke-width:1;"/><polygon fill="#181818" points="60,92.76,64,83.76,60,87.76,56,83.76,60,92.76" style="stroke:#181818;stroke-width:1;"/></g><!--link AccediendoMensaje to ActualizandoEstadoDocumento--><g id="link_AccediendoMensaje_ActualizandoEstadoDocumento"><path d="M304.16,143.24 C301.61,161.02 300.754,179.1414 303.314,196.9014 " fill="none" id="AccediendoMensaje-to-ActualizandoEstadoDocumento" style="stroke:#181818;stroke-width:1;"/><polygon fill="#181818" points="304.17,202.84,306.8451,193.3614,303.4567,197.8911,298.9269,194.5027,304.17,202.84" style="stroke:#181818;stroke-width:1;"/></g><!--link ActualizandoEstadoDocumento to AccediendoMensaje--><g id="link_ActualizandoEstadoDocumento_AccediendoMensaje"><path d="M326.47,202.84 C329.17,185.08 330.0808,166.952 327.3808,149.172 " fill="none" id="ActualizandoEstadoDocumento-to-AccediendoMensaje" style="stroke:#181818;stroke-width:1;"/><polygon fill="#181818" points="326.48,143.24,323.8766,152.7385,327.2307,148.1833,331.7859,151.5375,326.48,143.24" style="stroke:#181818;stroke-width:1;"/></g><!--link ActualizandoEstadoDocumento to Pendiente--><g id="link_ActualizandoEstadoDocumento_Pendiente"><path d="M290.54,253.24 C272.59,271.02 252.5728,290.8576 234.6428,308.6176 " fill="none" id="ActualizandoEstadoDocumento-to-Pendiente" style="stroke:#181818;stroke-width:1;"/><polygon fill="#181818" points="230.38,312.84,239.5891,309.3483,233.9323,309.3213,233.9593,303.6646,230.38,312.84" style="stroke:#181818;stroke-width:1;"/></g><!--link ActualizandoEstadoDocumento to Leido--><g id="link_ActualizandoEstadoDocumento_Leido"><path d="M315,253.24 C315,271.02 315,289.08 315,306.84 " fill="none" id="ActualizandoEstadoDocumento-to-Leido" style="stroke:#181818;stroke-width:1;"/><polygon fill="#181818" points="315,312.84,319,303.84,315,307.84,311,303.84,315,312.84" style="stroke:#181818;stroke-width:1;"/></g><!--link ActualizandoEstadoDocumento to Atrasado--><g id="link_ActualizandoEstadoDocumento_Atrasado"><path d="M338.79,253.24 C356.25,271.02 375.6461,290.799 393.0861,308.559 " fill="none" id="ActualizandoEstadoDocumento-to-Atrasado" style="stroke:#181818;stroke-width:1;"/><polygon fill="#181818" points="397.29,312.84,393.8382,303.6159,393.7868,309.2725,388.1301,309.221,397.29,312.84" style="stroke:#181818;stroke-width:1;"/></g><!--link ActualizandoEstadoDocumento to Firmado--><g id="link_ActualizandoEstadoDocumento_Firmado"><path d="M364.32,253.1 C404.52,272.75 455.1097,297.4647 492.0697,315.5347 " fill="none" id="ActualizandoEstadoDocumento-to-Firmado" style="stroke:#181818;stroke-width:1;"/><polygon fill="#181818" points="497.46,318.17,491.1315,310.6235,492.9681,315.9739,487.6177,317.8105,497.46,318.17" style="stroke:#181818;stroke-width:1;"/></g><!--link Destinatario to AccediendoMensaje--><g id="link_Destinatario_AccediendoMensaje"><path d="M113.29,118 C154,118 188.71,118 229.42,118 " fill="none" id="Destinatario-to-AccediendoMensaje" style="stroke:#181818;stroke-width:1;"/><polygon fill="#181818" points="235.42,118,226.42,114,230.42,118,226.42,122,235.42,118" style="stroke:#181818;stroke-width:1;"/></g><!--link RastreadorDocumento to *end*--><g id="link_RastreadorDocumento_*end*"><path d="M607.1244,139.4097 C607.3401,139.9516 607.5588,140.5009 607.7804,141.0574 C608.2234,142.1702 608.6778,143.3113 609.142,144.4772 C610.9989,149.1411 613.0144,154.2031 615.1025,159.4475 C623.455,180.425 630.7491,198.7462 635.9291,211.7462 " fill="none" id="RastreadorDocumento-to-*end*" style="stroke:#181818;stroke-width:1;"/><polygon fill="#181818" points="638.15,217.32,638.5345,207.4786,636.2992,212.6752,631.1027,210.4399,638.15,217.32" style="stroke:#181818;stroke-width:1;"/></g><!--SRC=[ZL2z2eD03DxlAJ8Ble48WktKGkag3k4kmvLw1xcuLFhkZM9fRKM4aE7BzvEaoLh8ynAkc8G9NUGwshwZ8D6O92W4DINn0GNPnndIplAD0nJ519Qb-H-E0GkNsMOb50O3e5LPIyvJSF5C8U6D9fFAIezt_q353-hXucTRs9hEwX_FTzIsxA8ALGdju9x8krsh26F2NTIZvsvaFerPFfLNJp9hJysTSfkiVG40]--></g></svg>