<svg xmlns="http://www.w3.org/2000/svg" xmlns:xlink="http://www.w3.org/1999/xlink" contentStyleType="text/css" data-diagram-type="STATE" height="874px" preserveAspectRatio="none" style="width:474px;height:874px;background:#FFFFFF;" version="1.1" viewBox="0 0 474 874" width="474px" zoomAndPan="magnify"><defs/><g><g id="Estado1"><rect fill="#F1F1F1" height="50" rx="12.5" ry="12.5" style="stroke:#181818;stroke-width:0.5;" width="50" x="7" y="121"/><line style="stroke:#181818;stroke-width:0.5;" x1="7" x2="57" y1="147.2969" y2="147.2969"/><text fill="#000000" font-family="sans-serif" font-size="14" lengthAdjust="spacing" textLength="4.4502" x="29.7749" y="138.9951">&#160;</text></g><g id="Estado2"><rect fill="#F1F1F1" height="50" rx="12.5" ry="12.5" style="stroke:#181818;stroke-width:0.5;" width="50" x="7" y="266"/><line style="stroke:#181818;stroke-width:0.5;" x1="7" x2="57" y1="292.2969" y2="292.2969"/><text fill="#000000" font-family="sans-serif" font-size="14" lengthAdjust="spacing" textLength="4.4502" x="29.7749" y="283.9951">&#160;</text></g><g id="Estado3"><rect fill="#F1F1F1" height="50" rx="12.5" ry="12.5" style="stroke:#181818;stroke-width:0.5;" width="50" x="7" y="411"/><line style="stroke:#181818;stroke-width:0.5;" x1="7" x2="57" y1="437.2969" y2="437.2969"/><text fill="#000000" font-family="sans-serif" font-size="14" lengthAdjust="spacing" textLength="4.4502" x="29.7749" y="428.9951">&#160;</text></g><g id="Estado4"><rect fill="#F1F1F1" height="50" rx="12.5" ry="12.5" style="stroke:#181818;stroke-width:0.5;" width="50" x="7" y="556"/><line style="stroke:#181818;stroke-width:0.5;" x1="7" x2="57" y1="582.2969" y2="582.2969"/><text fill="#000000" font-family="sans-serif" font-size="14" lengthAdjust="spacing" textLength="4.4502" x="29.7749" y="573.9951">&#160;</text></g><g id="Estado5"><rect fill="#F1F1F1" height="50" rx="12.5" ry="12.5" style="stroke:#181818;stroke-width:0.5;" width="50" x="7" y="701"/><line style="stroke:#181818;stroke-width:0.5;" x1="7" x2="57" y1="727.2969" y2="727.2969"/><text fill="#000000" font-family="sans-serif" font-size="14" lengthAdjust="spacing" textLength="4.4502" x="29.7749" y="718.9951">&#160;</text></g><ellipse cx="32" cy="16" fill="#222222" rx="10" ry="10" style="stroke:#222222;stroke-width:1;"/><ellipse cx="32" cy="857" fill="#FFFFFF" fill-opacity="0.00000" rx="11" ry="11" style="stroke:#222222;stroke-width:1;"/><ellipse cx="32" cy="857" fill="#222222" rx="6" ry="6" style="stroke:#222222;stroke-width:1;"/><!--link *start* to Estado1--><g id="link_*start*_Estado1"><path d="M32,26.21 C32,45.75 32,85.96 32,114.64 " fill="#FFFFFF" fill-opacity="0.00000" id="*start*-to-Estado1" style="stroke:#181818;stroke-width:1;"/><polygon fill="#181818" points="32,120.64,36,111.64,32,115.64,28,111.64,32,120.64" style="stroke:#181818;stroke-width:1;"/><path d="M37,61 L37,86 L445,86 L445,71 L435,61 L37,61 " fill="#FEFFDD" style="stroke:#181818;stroke-width:0.5;"/><path d="M435,61 L435,71 L445,71 L435,61 " fill="#FEFFDD" style="stroke:#181818;stroke-width:0.5;"/><text fill="#000000" font-family="sans-serif" font-size="13" lengthAdjust="spacing" textLength="387.9243" x="43" y="78.0669">El alumni solicita acceder a la secci&#243;n de ofertas de trabajo</text></g><!--link Estado1 to Estado2--><g id="link_Estado1_Estado2"><path d="M32,171.26 C32,197.55 32,233.28 32,259.62 " fill="#FFFFFF" fill-opacity="0.00000" id="Estado1-to-Estado2" style="stroke:#181818;stroke-width:1;"/><polygon fill="#181818" points="32,265.62,36,256.62,32,260.62,28,256.62,32,265.62" style="stroke:#181818;stroke-width:1;"/><path d="M37,206 L37,231 L383,231 L383,216 L373,206 L37,206 " fill="#FEFFDD" style="stroke:#181818;stroke-width:0.5;"/><path d="M373,206 L373,216 L383,216 L373,206 " fill="#FEFFDD" style="stroke:#181818;stroke-width:0.5;"/><text fill="#000000" font-family="sans-serif" font-size="13" lengthAdjust="spacing" textLength="325.7554" x="43" y="223.0669">El sistema muestra una lista de ofertas de trabajo</text></g><!--link Estado2 to Estado3--><g id="link_Estado2_Estado3"><path d="M32,316.26 C32,342.55 32,378.28 32,404.62 " fill="#FFFFFF" fill-opacity="0.00000" id="Estado2-to-Estado3" style="stroke:#181818;stroke-width:1;"/><polygon fill="#181818" points="32,410.62,36,401.62,32,405.62,28,401.62,32,410.62" style="stroke:#181818;stroke-width:1;"/><path d="M37,351 L37,376 L378,376 L378,361 L368,351 L37,351 " fill="#FEFFDD" style="stroke:#181818;stroke-width:0.5;"/><path d="M368,351 L368,361 L378,361 L368,351 " fill="#FEFFDD" style="stroke:#181818;stroke-width:0.5;"/><text fill="#000000" font-family="sans-serif" font-size="13" lengthAdjust="spacing" textLength="320.6328" x="43" y="368.0669">El alumni solicita acceder a una oferta de trabajo</text></g><!--link Estado3 to Estado4--><g id="link_Estado3_Estado4"><path d="M32,461.26 C32,487.55 32,523.28 32,549.62 " fill="#FFFFFF" fill-opacity="0.00000" id="Estado3-to-Estado4" style="stroke:#181818;stroke-width:1;"/><polygon fill="#181818" points="32,555.62,36,546.62,32,550.62,28,546.62,32,555.62" style="stroke:#181818;stroke-width:1;"/><path d="M37,496 L37,521 L393,521 L393,506 L383,496 L37,496 " fill="#FEFFDD" style="stroke:#181818;stroke-width:0.5;"/><path d="M383,496 L383,506 L393,506 L383,496 " fill="#FEFFDD" style="stroke:#181818;stroke-width:0.5;"/><text fill="#000000" font-family="sans-serif" font-size="13" lengthAdjust="spacing" textLength="335.2515" x="43" y="513.0669">El sistema le permite acceder a la oferta de trabajo</text></g><!--link Estado4 to Estado5--><g id="link_Estado4_Estado5"><path d="M32,606.26 C32,632.55 32,668.28 32,694.62 " fill="#FFFFFF" fill-opacity="0.00000" id="Estado4-to-Estado5" style="stroke:#181818;stroke-width:1;"/><polygon fill="#181818" points="32,700.62,36,691.62,32,695.62,28,691.62,32,700.62" style="stroke:#181818;stroke-width:1;"/><path d="M37,641 L37,666 L311,666 L311,651 L301,641 L37,641 " fill="#FEFFDD" style="stroke:#181818;stroke-width:0.5;"/><path d="M301,641 L301,651 L311,651 L301,641 " fill="#FEFFDD" style="stroke:#181818;stroke-width:0.5;"/><text fill="#000000" font-family="sans-serif" font-size="13" lengthAdjust="spacing" textLength="253.2144" x="43" y="658.0669">El alumni solicita postularse a la oferta</text></g><!--link Estado5 to *end*--><g id="link_Estado5_*end*"><path d="M32,751.26 C32,779.58 32,819.13 32,839.53 " fill="#FFFFFF" fill-opacity="0.00000" id="Estado5-to-*end*" style="stroke:#181818;stroke-width:1;"/><polygon fill="#181818" points="32,845.53,36,836.53,32,840.53,28,836.53,32,845.53" style="stroke:#181818;stroke-width:1;"/><path d="M37,786 L37,811 L467,811 L467,796 L457,786 L37,786 " fill="#FEFFDD" style="stroke:#181818;stroke-width:0.5;"/><path d="M457,786 L457,796 L467,796 L457,786 " fill="#FEFFDD" style="stroke:#181818;stroke-width:0.5;"/><text fill="#000000" font-family="sans-serif" font-size="13" lengthAdjust="spacing" textLength="409.4111" x="43" y="803.0669">El sistema confirma la solicitud o muestra un mensaje de error</text></g><!--SRC=[dT9DJiGm30NWVKzXiHnf5lHdosvEWLYOn2DbIEnHd9oC8t0nt7Q4CgA2Ghgfdb9_UccqO25ui0SLJbhGosEdtyD-Anosmd4hdBhk-V02n-FJ5mAsM6oZCCJ0RqimhrC4Z3Ln09KON2W8w1nvoe0G4PIS2n_l3Dw-FLCkfjXhoVYA5rd64FjbTdV36hZ_4TQWXH92ggGs42eRQHdkn_e66_xPScPNxHTiQB1nLxD8SAMSWkswEzLTtDXmqv-wNKLBZPYLMcxBc1R3RikkEaxu779QByQALG_I_418n8eNcgjHpfBlq4y0]--></g></svg>