<svg xmlns="http://www.w3.org/2000/svg" xmlns:xlink="http://www.w3.org/1999/xlink" contentStyleType="text/css" data-diagram-type="STATE" height="294px" preserveAspectRatio="none" style="width:409px;height:294px;background:#FFFFFF;" version="1.1" viewBox="0 0 409 294" width="409px" zoomAndPan="magnify"><defs/><g><g id="Estado1"><rect fill="#F1F1F1" height="50" rx="12.5" ry="12.5" style="stroke:#181818;stroke-width:0.5;" width="50" x="7" y="121"/><line style="stroke:#181818;stroke-width:0.5;" x1="7" x2="57" y1="147.2969" y2="147.2969"/><text fill="#000000" font-family="sans-serif" font-size="14" lengthAdjust="spacing" textLength="4.4502" x="29.7749" y="138.9951">&#160;</text></g><ellipse cx="32" cy="16" fill="#222222" rx="10" ry="10" style="stroke:#222222;stroke-width:1;"/><ellipse cx="32" cy="277" fill="#FFFFFF" fill-opacity="0.00000" rx="11" ry="11" style="stroke:#222222;stroke-width:1;"/><ellipse cx="32" cy="277" fill="#222222" rx="6" ry="6" style="stroke:#222222;stroke-width:1;"/><!--link *start* to Estado1--><g id="link_*start*_Estado1"><path d="M32,26.21 C32,45.75 32,85.96 32,114.64 " fill="#FFFFFF" fill-opacity="0.00000" id="*start*-to-Estado1" style="stroke:#181818;stroke-width:1;"/><polygon fill="#181818" points="32,120.64,36,111.64,32,115.64,28,111.64,32,120.64" style="stroke:#181818;stroke-width:1;"/><path d="M37,61 L37,86 L402,86 L402,71 L392,61 L37,61 " fill="#FEFFDD" style="stroke:#181818;stroke-width:0.5;"/><path d="M392,61 L392,71 L402,71 L392,61 " fill="#FEFFDD" style="stroke:#181818;stroke-width:0.5;"/><text fill="#000000" font-family="sans-serif" font-size="13" lengthAdjust="spacing" textLength="344.3413" x="43" y="78.0669">El administrador solicita ver las estadisticas globales</text></g><!--link Estado1 to *end*--><g id="link_Estado1_*end*"><path d="M32,171.26 C32,199.58 32,239.13 32,259.53 " fill="#FFFFFF" fill-opacity="0.00000" id="Estado1-to-*end*" style="stroke:#181818;stroke-width:1;"/><polygon fill="#181818" points="32,265.53,36,256.53,32,260.53,28,256.53,32,265.53" style="stroke:#181818;stroke-width:1;"/><path d="M37,206 L37,231 L398,231 L398,216 L388,206 L37,206 " fill="#FEFFDD" style="stroke:#181818;stroke-width:0.5;"/><path d="M388,206 L388,216 L398,216 L388,206 " fill="#FEFFDD" style="stroke:#181818;stroke-width:0.5;"/><text fill="#000000" font-family="sans-serif" font-size="13" lengthAdjust="spacing" textLength="340.3613" x="43" y="223.0669">El sistema muestra las estadisticas de la plataforma</text></g><!--SRC=[VOr12W8n34NtFKLmEJ0BB-1kJZ6uYDEC1DD6ckZvJOi88lYpoi_FV-Re18SOD5ZCCUinfNKwmpoVFWQ4gaPGAmZNsp2w5W7CXIkRjqWsC1NUs16Ur42Yatf5d7cBvIfwGI4R_rJpA4rloY06-I_DeeeAGdbGH_uYCeK7Tq77NLl1BzGB]--></g></svg>