<svg xmlns="http://www.w3.org/2000/svg" xmlns:xlink="http://www.w3.org/1999/xlink" contentStyleType="text/css" height="652px" preserveAspectRatio="none" style="width:922px;height:652px;background:#FFFFFF;" version="1.1" viewBox="0 0 922 652" width="922px" zoomAndPan="magnify"><defs/><g><!--entity NAVEGACION_MENUS--><g id="elem_NAVEGACION_MENUS"><rect fill="#F1F1F1" height="36.2969" rx="2.5" ry="2.5" style="stroke:#181818;stroke-width:0.5;" width="171.8262" x="339" y="610"/><text fill="#000000" font-family="sans-serif" font-size="14" lengthAdjust="spacing" textLength="151.8262" x="349" y="632.9951">NAVEGACION_MENUS</text></g><!--entity MENU_PERFIL--><g id="elem_MENU_PERFIL"><rect fill="#F1F1F1" height="36.2969" rx="2.5" ry="2.5" style="stroke:#181818;stroke-width:0.5;" width="115.6416" x="118" y="7"/><text fill="#000000" font-family="sans-serif" font-size="14" lengthAdjust="spacing" textLength="95.6416" x="128" y="29.9951">MENU_PERFIL</text></g><!--entity CREANDO_CLASE--><g id="elem_CREANDO_CLASE"><rect fill="#F1F1F1" height="36.2969" rx="2.5" ry="2.5" style="stroke:#181818;stroke-width:0.5;" width="142.083" x="7" y="186"/><text fill="#000000" font-family="sans-serif" font-size="14" lengthAdjust="spacing" textLength="122.083" x="17" y="208.9951">CREANDO_CLASE</text></g><!--entity MOSTRANDO_QR--><g id="elem_MOSTRANDO_QR"><rect fill="#F1F1F1" height="36.2969" rx="2.5" ry="2.5" style="stroke:#181818;stroke-width:0.5;" width="139.8613" x="133" y="318"/><text fill="#000000" font-family="sans-serif" font-size="14" lengthAdjust="spacing" textLength="119.8613" x="143" y="340.9951">MOSTRANDO_QR</text></g><!--entity VIENDO_MIS_CLASES--><g id="elem_VIENDO_MIS_CLASES"><rect fill="#F1F1F1" height="36.2969" rx="2.5" ry="2.5" style="stroke:#181818;stroke-width:0.5;" width="167.6904" x="418" y="120"/><text fill="#000000" font-family="sans-serif" font-size="14" lengthAdjust="spacing" textLength="147.6904" x="428" y="142.9951">VIENDO_MIS_CLASES</text></g><!--entity VIENDO_ALUMNOS--><g id="elem_VIENDO_ALUMNOS"><rect fill="#F1F1F1" height="36.2969" rx="2.5" ry="2.5" style="stroke:#181818;stroke-width:0.5;" width="151.9063" x="426" y="252"/><text fill="#000000" font-family="sans-serif" font-size="14" lengthAdjust="spacing" textLength="131.9063" x="436" y="274.9951">VIENDO_ALUMNOS</text></g><!--entity VIENDO_RETOS_ALUMNOS--><g id="elem_VIENDO_RETOS_ALUMNOS"><rect fill="#F1F1F1" height="36.2969" rx="2.5" ry="2.5" style="stroke:#181818;stroke-width:0.5;" width="205.9375" x="554" y="384"/><text fill="#000000" font-family="sans-serif" font-size="14" lengthAdjust="spacing" textLength="185.9375" x="564" y="406.9951">VIENDO_RETOS_ALUMNOS</text></g><!--entity EVALUANDO_RETOS--><g id="elem_EVALUANDO_RETOS"><rect fill="#F1F1F1" height="36.2969" rx="2.5" ry="2.5" style="stroke:#181818;stroke-width:0.5;" width="161.9277" x="755" y="497"/><text fill="#000000" font-family="sans-serif" font-size="14" lengthAdjust="spacing" textLength="141.9277" x="765" y="519.9951">EVALUANDO_RETOS</text></g><!--link CREANDO_CLASE to NAVEGACION_MENUS--><g id="link_CREANDO_CLASE_NAVEGACION_MENUS"><path d="M78,222.24 C78,247.14 78,294.6 78,335 C78,335 78,335 78,516 C78,570.63 230.0702,601.2321 332.8402,615.9021 " fill="none" id="CREANDO_CLASE-to-NAVEGACION_MENUS" style="stroke:#181818;stroke-width:1;"/><polygon fill="#181818" points="338.78,616.75,330.4356,611.5183,333.8302,616.0434,329.3051,619.438,338.78,616.75" style="stroke:#181818;stroke-width:1;"/><text fill="#000000" font-family="sans-serif" font-size="13" lengthAdjust="spacing" textLength="96.1543" x="79" y="406.5669">Cambiar men&#250;</text></g><!--link MOSTRANDO_QR to NAVEGACION_MENUS--><g id="link_MOSTRANDO_QR_NAVEGACION_MENUS"><path d="M203.17,354.29 C204.04,380.07 208.15,429.55 226,467 C254.6,527.01 270.92,539.98 324,580 C340.22,592.22 354.6067,599.9628 372.4467,607.6228 " fill="none" id="MOSTRANDO_QR-to-NAVEGACION_MENUS" style="stroke:#181818;stroke-width:1;"/><polygon fill="#181818" points="377.96,609.99,371.2683,602.7636,373.3656,608.0173,368.1119,610.1146,377.96,609.99" style="stroke:#181818;stroke-width:1;"/><text fill="#000000" font-family="sans-serif" font-size="13" lengthAdjust="spacing" textLength="96.1543" x="227" y="463.0669">Cambiar men&#250;</text></g><!--link VIENDO_MIS_CLASES to NAVEGACION_MENUS--><g id="link_VIENDO_MIS_CLASES_NAVEGACION_MENUS"><path d="M455.15,156.14 C410.49,175.86 350,212.92 350,269 C350,269 350,269 350,516 C350,554.61 377.0829,585.8032 399.2529,605.7832 " fill="none" id="VIENDO_MIS_CLASES-to-NAVEGACION_MENUS" style="stroke:#181818;stroke-width:1;"/><polygon fill="#181818" points="403.71,609.8,399.7023,600.8034,399.9958,606.4527,394.3465,606.7462,403.71,609.8" style="stroke:#181818;stroke-width:1;"/><text fill="#000000" font-family="sans-serif" font-size="13" lengthAdjust="spacing" textLength="96.1543" x="351" y="406.5669">Cambiar men&#250;</text></g><!--link VIENDO_ALUMNOS to NAVEGACION_MENUS--><g id="link_VIENDO_ALUMNOS_NAVEGACION_MENUS"><path d="M498.29,288.17 C485.28,348.31 443.1284,543.1956 430.0384,603.7156 " fill="none" id="VIENDO_ALUMNOS-to-NAVEGACION_MENUS" style="stroke:#181818;stroke-width:1;"/><polygon fill="#181818" points="428.77,609.58,434.5822,601.629,429.827,604.693,426.763,599.9378,428.77,609.58" style="stroke:#181818;stroke-width:1;"/><text fill="#000000" font-family="sans-serif" font-size="13" lengthAdjust="spacing" textLength="96.1543" x="463" y="463.0669">Cambiar men&#250;</text></g><!--link VIENDO_RETOS_ALUMNOS to NAVEGACION_MENUS--><g id="link_VIENDO_RETOS_ALUMNOS_NAVEGACION_MENUS"><path d="M648.33,420.09 C630.11,454.5 584.74,532.87 527,580 C511.67,592.51 497.9809,600.1405 480.3809,607.6305 " fill="none" id="VIENDO_RETOS_ALUMNOS-to-NAVEGACION_MENUS" style="stroke:#181818;stroke-width:1;"/><polygon fill="#181818" points="474.86,609.98,484.7076,610.1363,479.4607,608.0221,481.5749,602.7752,474.86,609.98" style="stroke:#181818;stroke-width:1;"/><text fill="#000000" font-family="sans-serif" font-size="13" lengthAdjust="spacing" textLength="96.1543" x="600" y="519.5669">Cambiar men&#250;</text></g><!--link EVALUANDO_RETOS to NAVEGACION_MENUS--><g id="link_EVALUANDO_RETOS_NAVEGACION_MENUS"><path d="M790.89,533.07 C753.1,546.95 697.54,566.4 648,580 C603.26,592.28 558.6169,602.0107 516.9769,610.2107 " fill="none" id="EVALUANDO_RETOS-to-NAVEGACION_MENUS" style="stroke:#181818;stroke-width:1;"/><polygon fill="#181818" points="511.09,611.37,520.6933,613.5557,515.9958,610.4039,519.1475,605.7064,511.09,611.37" style="stroke:#181818;stroke-width:1;"/><text fill="#000000" font-family="sans-serif" font-size="13" lengthAdjust="spacing" textLength="96.1543" x="701" y="576.0669">Cambiar men&#250;</text></g><!--link MENU_PERFIL to CREANDO_CLASE--><g id="link_MENU_PERFIL_CREANDO_CLASE"><path d="M117.86,40.12 C101.16,47.15 84.83,57.59 75,73 C52.79,107.83 62.1128,153.5631 70.2328,180.0731 " fill="none" id="MENU_PERFIL-to-CREANDO_CLASE" style="stroke:#181818;stroke-width:1;"/><polygon fill="#181818" points="71.99,185.81,73.1788,176.0332,70.5257,181.0292,65.5296,178.3761,71.99,185.81" style="stroke:#181818;stroke-width:1;"/><text fill="#000000" font-family="sans-serif" font-size="13" lengthAdjust="spacing" textLength="73.3599" x="76" y="86.0669">Crear clase</text></g><!--link MENU_PERFIL to MOSTRANDO_QR--><g id="link_MENU_PERFIL_MOSTRANDO_QR"><path d="M177.49,43.05 C182.21,97.08 196.2782,258.0727 200.9882,312.0227 " fill="none" id="MENU_PERFIL-to-MOSTRANDO_QR" style="stroke:#181818;stroke-width:1;"/><polygon fill="#181818" points="201.51,318,204.7121,308.6862,201.0751,313.0189,196.7424,309.382,201.51,318" style="stroke:#181818;stroke-width:1;"/><text fill="#000000" font-family="sans-serif" font-size="13" lengthAdjust="spacing" textLength="205.6641" x="189" y="142.5669">Mostrar QR en centro deportivo</text></g><!--link MENU_PERFIL to VIENDO_MIS_CLASES--><g id="link_MENU_PERFIL_VIENDO_MIS_CLASES"><path d="M226.22,43.1 C287.57,63.99 385.0503,97.176 446.3103,118.036 " fill="none" id="MENU_PERFIL-to-VIENDO_MIS_CLASES" style="stroke:#181818;stroke-width:1;"/><polygon fill="#181818" points="451.99,119.97,444.7597,113.2824,447.2569,118.3583,442.181,120.8554,451.99,119.97" style="stroke:#181818;stroke-width:1;"/><text fill="#000000" font-family="sans-serif" font-size="13" lengthAdjust="spacing" textLength="93.8184" x="360" y="86.0669">Ver mis clases</text></g><!--link VIENDO_MIS_CLASES to VIENDO_ALUMNOS--><g id="link_VIENDO_MIS_CLASES_VIENDO_ALUMNOS"><path d="M502,156.26 C502,181.13 502,220.76 502,245.67 " fill="none" id="VIENDO_MIS_CLASES-to-VIENDO_ALUMNOS" style="stroke:#181818;stroke-width:1;"/><polygon fill="#181818" points="502,251.67,506,242.67,502,246.67,498,242.67,502,251.67" style="stroke:#181818;stroke-width:1;"/><text fill="#000000" font-family="sans-serif" font-size="13" lengthAdjust="spacing" textLength="81.8149" x="503" y="208.5669">Ver alumnos</text></g><!--link VIENDO_ALUMNOS to VIENDO_RETOS_ALUMNOS--><g id="link_VIENDO_ALUMNOS_VIENDO_RETOS_ALUMNOS"><path d="M522.58,288.26 C552.23,313.13 602.0435,354.9035 631.7335,379.8135 " fill="none" id="VIENDO_ALUMNOS-to-VIENDO_RETOS_ALUMNOS" style="stroke:#181818;stroke-width:1;"/><polygon fill="#181818" points="636.33,383.67,632.0062,374.821,632.4996,380.4563,626.8643,380.9496,636.33,383.67" style="stroke:#181818;stroke-width:1;"/><text fill="#000000" font-family="sans-serif" font-size="13" lengthAdjust="spacing" textLength="119.1138" x="598" y="340.5669">Ver retos alumnos</text></g><!--link VIENDO_RETOS_ALUMNOS to EVALUANDO_RETOS--><g id="link_VIENDO_RETOS_ALUMNOS_EVALUANDO_RETOS"><path d="M684.58,420.1 C718.21,440.96 769.6411,472.8476 803.2911,493.7176 " fill="none" id="VIENDO_RETOS_ALUMNOS-to-EVALUANDO_RETOS" style="stroke:#181818;stroke-width:1;"/><polygon fill="#181818" points="808.39,496.88,802.8499,488.7371,804.1409,494.2447,798.6333,495.5357,808.39,496.88" style="stroke:#181818;stroke-width:1;"/><text fill="#000000" font-family="sans-serif" font-size="13" lengthAdjust="spacing" textLength="86.3345" x="758" y="463.0669">Evaluar retos</text></g><!--SRC=[bPBFReCm3CRlF8NNozP3Nu33f8Xb5HA4Zb2kAANkX0J9bD2gpxRhNcm1gfL_a-WD_Fdds9_zTCHJ8H5YwYM4RGFwSbs3nhmMyhD4k3hENM4afLlY-H7BGihsVDtJca2se_6x7wp1SPw1dmyLofzl0qU4rGxrgIXNFS2BAM5lKUO5X5EBz4f5F8bRxICU2AbFcsZeyuxYSoe9zY6BPgMO9X6VJQ2fZPA_d6Q2GN-msRp2U7nmmHFLeH0QsacTVkFBYCb43s6tIHvY1Xui8qVcB8Fi1OJDnttrlGjfImmDjhn6I-UbC3Z97JZhGgXChMso_K49ESfQAtjcNqhNnKLDwAdBBgHeEorCzvxvPn4ZdpjAbETAAZEtX5cFEqfZhSoOdIvZxBKBz68XSIlm2m00]--></g></svg>