<svg xmlns="http://www.w3.org/2000/svg" xmlns:xlink="http://www.w3.org/1999/xlink" contentStyleType="text/css" data-diagram-type="CLASS" height="618px" preserveAspectRatio="none" style="width:378px;height:618px;background:#FFFFFF;" version="1.1" viewBox="0 0 378 618" width="378px" zoomAndPan="magnify"><defs/><g><!--cluster AsignaturaGradoPorfesor--><g id="cluster_AsignaturaGradoPorfesor"><path d="M87.96,188 L290.0801,188 A3.75,3.75 0 0 1 292.5801,190.5 L299.5801,210.2969 L368.96,210.2969 A2.5,2.5 0 0 1 371.46,212.7969 L371.46,608.5 A2.5,2.5 0 0 1 368.96,611 L87.96,611 A2.5,2.5 0 0 1 85.46,608.5 L85.46,190.5 A2.5,2.5 0 0 1 87.96,188 " fill="#FFFFFF" fill-opacity="0.00000" style="stroke:#000000;stroke-width:1.5;"/><line style="stroke:#000000;stroke-width:1.5;" x1="85.46" x2="299.5801" y1="210.2969" y2="210.2969"/><text fill="#000000" font-family="sans-serif" font-size="14" font-weight="bold" lengthAdjust="spacing" textLength="201.1201" x="89.46" y="202.9951">AsignaturaGradoPorfesor</text></g><!--class AsignaturaGradoProfesor--><g id="elem_AsignaturaGradoProfesor"><rect codeLine="12" fill="#F1F1F1" height="48" id="AsignaturaGradoProfesor" rx="2.5" ry="2.5" style="stroke:#181818;stroke-width:0.5;" width="208.3535" x="122.28" y="223"/><ellipse cx="137.28" cy="239" fill="#ADD1B2" rx="11" ry="11" style="stroke:#181818;stroke-width:1;"/><path d="M140.2488,244.6406 Q139.6706,244.9375 139.03,245.0781 Q138.3894,245.2344 137.6863,245.2344 Q135.1863,245.2344 133.8581,243.5938 Q132.5456,241.9375 132.5456,238.8125 Q132.5456,235.6875 133.8581,234.0313 Q135.1863,232.375 137.6863,232.375 Q138.3894,232.375 139.03,232.5313 Q139.6863,232.6875 140.2488,232.9844 L140.2488,235.7031 Q139.6238,235.125 139.03,234.8594 Q138.4363,234.5781 137.8113,234.5781 Q136.4675,234.5781 135.78,235.6563 Q135.0925,236.7188 135.0925,238.8125 Q135.0925,240.9063 135.78,241.9844 Q136.4675,243.0469 137.8113,243.0469 Q138.4363,243.0469 139.03,242.7813 Q139.6238,242.5 140.2488,241.9219 L140.2488,244.6406 Z " fill="#000000"/><text fill="#000000" font-family="sans-serif" font-size="14" lengthAdjust="spacing" textLength="176.3535" x="151.28" y="243.8467">AsignaturaGradoProfesor</text><line style="stroke:#181818;stroke-width:0.5;" x1="123.28" x2="329.6335" y1="255" y2="255"/><line style="stroke:#181818;stroke-width:0.5;" x1="123.28" x2="329.6335" y1="263" y2="263"/></g><!--class AsignaturaGrado--><g id="elem_AsignaturaGrado"><rect codeLine="15" fill="#F1F1F1" height="48" id="AsignaturaGrado" rx="2.5" ry="2.5" style="stroke:#181818;stroke-width:0.5;" width="150.4326" x="151.24" y="331"/><ellipse cx="166.24" cy="347" fill="#ADD1B2" rx="11" ry="11" style="stroke:#181818;stroke-width:1;"/><path d="M169.2088,352.6406 Q168.6306,352.9375 167.99,353.0781 Q167.3494,353.2344 166.6463,353.2344 Q164.1463,353.2344 162.8181,351.5938 Q161.5056,349.9375 161.5056,346.8125 Q161.5056,343.6875 162.8181,342.0313 Q164.1463,340.375 166.6463,340.375 Q167.3494,340.375 167.99,340.5313 Q168.6463,340.6875 169.2088,340.9844 L169.2088,343.7031 Q168.5838,343.125 167.99,342.8594 Q167.3963,342.5781 166.7713,342.5781 Q165.4275,342.5781 164.74,343.6563 Q164.0525,344.7188 164.0525,346.8125 Q164.0525,348.9063 164.74,349.9844 Q165.4275,351.0469 166.7713,351.0469 Q167.3963,351.0469 167.99,350.7813 Q168.5838,350.5 169.2088,349.9219 L169.2088,352.6406 Z " fill="#000000"/><text fill="#000000" font-family="sans-serif" font-size="14" lengthAdjust="spacing" textLength="118.4326" x="180.24" y="351.8467">AsignaturaGrado</text><line style="stroke:#181818;stroke-width:0.5;" x1="152.24" x2="300.6726" y1="363" y2="363"/><line style="stroke:#181818;stroke-width:0.5;" x1="152.24" x2="300.6726" y1="371" y2="371"/></g><!--class Profesor--><g id="elem_Profesor"><rect codeLine="18" fill="#F1F1F1" height="48" id="Profesor" rx="2.5" ry="2.5" style="stroke:#181818;stroke-width:0.5;" width="89.9209" x="242.5" y="547"/><ellipse cx="257.5" cy="563" fill="#ADD1B2" rx="11" ry="11" style="stroke:#181818;stroke-width:1;"/><path d="M260.4688,568.6406 Q259.8906,568.9375 259.25,569.0781 Q258.6094,569.2344 257.9063,569.2344 Q255.4063,569.2344 254.0781,567.5938 Q252.7656,565.9375 252.7656,562.8125 Q252.7656,559.6875 254.0781,558.0313 Q255.4063,556.375 257.9063,556.375 Q258.6094,556.375 259.25,556.5313 Q259.9063,556.6875 260.4688,556.9844 L260.4688,559.7031 Q259.8438,559.125 259.25,558.8594 Q258.6563,558.5781 258.0313,558.5781 Q256.6875,558.5781 256,559.6563 Q255.3125,560.7188 255.3125,562.8125 Q255.3125,564.9063 256,565.9844 Q256.6875,567.0469 258.0313,567.0469 Q258.6563,567.0469 259.25,566.7813 Q259.8438,566.5 260.4688,565.9219 L260.4688,568.6406 Z " fill="#000000"/><text fill="#000000" font-family="sans-serif" font-size="14" lengthAdjust="spacing" textLength="57.9209" x="271.5" y="567.8467">Profesor</text><line style="stroke:#181818;stroke-width:0.5;" x1="243.5" x2="331.4209" y1="579" y2="579"/><line style="stroke:#181818;stroke-width:0.5;" x1="243.5" x2="331.4209" y1="587" y2="587"/></g><!--class Grado--><g id="elem_Grado"><rect codeLine="21" fill="#F1F1F1" height="48" id="Grado" rx="2.5" ry="2.5" style="stroke:#181818;stroke-width:0.5;" width="74.6357" x="101.14" y="439"/><ellipse cx="116.14" cy="455" fill="#ADD1B2" rx="11" ry="11" style="stroke:#181818;stroke-width:1;"/><path d="M119.1088,460.6406 Q118.5306,460.9375 117.89,461.0781 Q117.2494,461.2344 116.5463,461.2344 Q114.0463,461.2344 112.7181,459.5938 Q111.4056,457.9375 111.4056,454.8125 Q111.4056,451.6875 112.7181,450.0313 Q114.0463,448.375 116.5463,448.375 Q117.2494,448.375 117.89,448.5313 Q118.5463,448.6875 119.1088,448.9844 L119.1088,451.7031 Q118.4838,451.125 117.89,450.8594 Q117.2963,450.5781 116.6713,450.5781 Q115.3275,450.5781 114.64,451.6563 Q113.9525,452.7188 113.9525,454.8125 Q113.9525,456.9063 114.64,457.9844 Q115.3275,459.0469 116.6713,459.0469 Q117.2963,459.0469 117.89,458.7813 Q118.4838,458.5 119.1088,457.9219 L119.1088,460.6406 Z " fill="#000000"/><text fill="#000000" font-family="sans-serif" font-size="14" lengthAdjust="spacing" textLength="42.6357" x="130.14" y="459.8467">Grado</text><line style="stroke:#181818;stroke-width:0.5;" x1="102.14" x2="174.7757" y1="471" y2="471"/><line style="stroke:#181818;stroke-width:0.5;" x1="102.14" x2="174.7757" y1="479" y2="479"/></g><!--class Asignatura--><g id="elem_Asignatura"><rect codeLine="24" fill="#F1F1F1" height="48" id="Asignatura" rx="2.5" ry="2.5" style="stroke:#181818;stroke-width:0.5;" width="107.7969" x="210.56" y="439"/><ellipse cx="225.56" cy="455" fill="#ADD1B2" rx="11" ry="11" style="stroke:#181818;stroke-width:1;"/><path d="M228.5288,460.6406 Q227.9506,460.9375 227.31,461.0781 Q226.6694,461.2344 225.9663,461.2344 Q223.4663,461.2344 222.1381,459.5938 Q220.8256,457.9375 220.8256,454.8125 Q220.8256,451.6875 222.1381,450.0313 Q223.4663,448.375 225.9663,448.375 Q226.6694,448.375 227.31,448.5313 Q227.9663,448.6875 228.5288,448.9844 L228.5288,451.7031 Q227.9038,451.125 227.31,450.8594 Q226.7163,450.5781 226.0913,450.5781 Q224.7475,450.5781 224.06,451.6563 Q223.3725,452.7188 223.3725,454.8125 Q223.3725,456.9063 224.06,457.9844 Q224.7475,459.0469 226.0913,459.0469 Q226.7163,459.0469 227.31,458.7813 Q227.9038,458.5 228.5288,457.9219 L228.5288,460.6406 Z " fill="#000000"/><text fill="#000000" font-family="sans-serif" font-size="14" lengthAdjust="spacing" textLength="75.7969" x="239.56" y="459.8467">Asignatura</text><line style="stroke:#181818;stroke-width:0.5;" x1="211.56" x2="317.3569" y1="471" y2="471"/><line style="stroke:#181818;stroke-width:0.5;" x1="211.56" x2="317.3569" y1="479" y2="479"/></g><!--class Horario--><g id="elem_Horario"><rect codeLine="1" fill="#F1F1F1" height="48" id="Horario" rx="2.5" ry="2.5" style="stroke:#181818;stroke-width:0.5;" width="83.6387" x="98.64" y="7"/><ellipse cx="113.64" cy="23" fill="#ADD1B2" rx="11" ry="11" style="stroke:#181818;stroke-width:1;"/><path d="M116.6088,28.6406 Q116.0306,28.9375 115.39,29.0781 Q114.7494,29.2344 114.0463,29.2344 Q111.5463,29.2344 110.2181,27.5938 Q108.9056,25.9375 108.9056,22.8125 Q108.9056,19.6875 110.2181,18.0313 Q111.5463,16.375 114.0463,16.375 Q114.7494,16.375 115.39,16.5313 Q116.0463,16.6875 116.6088,16.9844 L116.6088,19.7031 Q115.9838,19.125 115.39,18.8594 Q114.7963,18.5781 114.1713,18.5781 Q112.8275,18.5781 112.14,19.6563 Q111.4525,20.7188 111.4525,22.8125 Q111.4525,24.9063 112.14,25.9844 Q112.8275,27.0469 114.1713,27.0469 Q114.7963,27.0469 115.39,26.7813 Q115.9838,26.5 116.6088,25.9219 L116.6088,28.6406 Z " fill="#000000"/><text fill="#000000" font-family="sans-serif" font-size="14" lengthAdjust="spacing" textLength="51.6387" x="127.64" y="27.8467">Horario</text><line style="stroke:#181818;stroke-width:0.5;" x1="99.64" x2="181.2787" y1="39" y2="39"/><line style="stroke:#181818;stroke-width:0.5;" x1="99.64" x2="181.2787" y1="47" y2="47"/></g><!--class HorarioAsignaturaAula--><g id="elem_HorarioAsignaturaAula"><rect codeLine="4" fill="#F1F1F1" height="48" id="HorarioAsignaturaAula" rx="2.5" ry="2.5" style="stroke:#181818;stroke-width:0.5;" width="190.3545" x="45.28" y="115"/><ellipse cx="60.28" cy="131" fill="#ADD1B2" rx="11" ry="11" style="stroke:#181818;stroke-width:1;"/><path d="M63.2488,136.6406 Q62.6706,136.9375 62.03,137.0781 Q61.3894,137.2344 60.6863,137.2344 Q58.1863,137.2344 56.8581,135.5938 Q55.5456,133.9375 55.5456,130.8125 Q55.5456,127.6875 56.8581,126.0313 Q58.1863,124.375 60.6863,124.375 Q61.3894,124.375 62.03,124.5313 Q62.6863,124.6875 63.2488,124.9844 L63.2488,127.7031 Q62.6238,127.125 62.03,126.8594 Q61.4363,126.5781 60.8113,126.5781 Q59.4675,126.5781 58.78,127.6563 Q58.0925,128.7188 58.0925,130.8125 Q58.0925,132.9063 58.78,133.9844 Q59.4675,135.0469 60.8113,135.0469 Q61.4363,135.0469 62.03,134.7813 Q62.6238,134.5 63.2488,133.9219 L63.2488,136.6406 Z " fill="#000000"/><text fill="#000000" font-family="sans-serif" font-size="14" lengthAdjust="spacing" textLength="158.3545" x="74.28" y="135.8467">HorarioAsignaturaAula</text><line style="stroke:#181818;stroke-width:0.5;" x1="46.28" x2="234.6345" y1="147" y2="147"/><line style="stroke:#181818;stroke-width:0.5;" x1="46.28" x2="234.6345" y1="155" y2="155"/></g><!--class Aula--><g id="elem_Aula"><rect codeLine="7" fill="#F1F1F1" height="48" id="Aula" rx="2.5" ry="2.5" style="stroke:#181818;stroke-width:0.5;" width="62.9189" x="7" y="223"/><ellipse cx="22" cy="239" fill="#ADD1B2" rx="11" ry="11" style="stroke:#181818;stroke-width:1;"/><path d="M24.9688,244.6406 Q24.3906,244.9375 23.75,245.0781 Q23.1094,245.2344 22.4063,245.2344 Q19.9063,245.2344 18.5781,243.5938 Q17.2656,241.9375 17.2656,238.8125 Q17.2656,235.6875 18.5781,234.0313 Q19.9063,232.375 22.4063,232.375 Q23.1094,232.375 23.75,232.5313 Q24.4063,232.6875 24.9688,232.9844 L24.9688,235.7031 Q24.3438,235.125 23.75,234.8594 Q23.1563,234.5781 22.5313,234.5781 Q21.1875,234.5781 20.5,235.6563 Q19.8125,236.7188 19.8125,238.8125 Q19.8125,240.9063 20.5,241.9844 Q21.1875,243.0469 22.5313,243.0469 Q23.1563,243.0469 23.75,242.7813 Q24.3438,242.5 24.9688,241.9219 L24.9688,244.6406 Z " fill="#000000"/><text fill="#000000" font-family="sans-serif" font-size="14" lengthAdjust="spacing" textLength="30.9189" x="36" y="243.8467">Aula</text><line style="stroke:#181818;stroke-width:0.5;" x1="8" x2="68.9189" y1="255" y2="255"/><line style="stroke:#181818;stroke-width:0.5;" x1="8" x2="68.9189" y1="263" y2="263"/></g><!--link AsignaturaGradoProfesor to AsignaturaGrado--><g id="link_AsignaturaGradoProfesor_AsignaturaGrado"><path codeLine="27" d="M226.46,271.26 C226.46,288.94 226.46,313.13 226.46,330.79 " fill="#FFFFFF" fill-opacity="0.00000" id="AsignaturaGradoProfesor-AsignaturaGrado" style="stroke:#181818;stroke-width:1;"/></g><!--link AsignaturaGradoProfesor to Profesor--><g id="link_AsignaturaGradoProfesor_Profesor"><path codeLine="28" d="M263.1,271.21 C283.06,285.87 306.31,306.62 319.46,331 C352.54,392.34 353.52,419.68 335.46,487 C329.59,508.86 316.41,530.92 305.34,546.8 " fill="#FFFFFF" fill-opacity="0.00000" id="AsignaturaGradoProfesor-Profesor" style="stroke:#181818;stroke-width:1;"/></g><!--link AsignaturaGrado to Grado--><g id="link_AsignaturaGrado_Grado"><path codeLine="29" d="M207.15,379.26 C192.48,396.94 172.39,421.13 157.73,438.79 " fill="#FFFFFF" fill-opacity="0.00000" id="AsignaturaGrado-Grado" style="stroke:#181818;stroke-width:1;"/></g><!--link AsignaturaGrado to Asignatura--><g id="link_AsignaturaGrado_Asignatura"><path codeLine="30" d="M234.8,379.26 C241.13,396.94 249.81,421.13 256.14,438.79 " fill="#FFFFFF" fill-opacity="0.00000" id="AsignaturaGrado-Asignatura" style="stroke:#181818;stroke-width:1;"/></g><!--link Asignatura to Profesor--><g id="link_Asignatura_Profesor"><path codeLine="31" d="M269.51,487.26 C273.34,504.94 278.59,529.13 282.42,546.79 " fill="#FFFFFF" fill-opacity="0.00000" id="Asignatura-Profesor" style="stroke:#181818;stroke-width:1;"/></g><!--link Horario to HorarioAsignaturaAula--><g id="link_Horario_HorarioAsignaturaAula"><path codeLine="34" d="M140.46,55.26 C140.46,72.94 140.46,97.13 140.46,114.79 " fill="#FFFFFF" fill-opacity="0.00000" id="Horario-HorarioAsignaturaAula" style="stroke:#181818;stroke-width:1;"/></g><!--link HorarioAsignaturaAula to Aula--><g id="link_HorarioAsignaturaAula_Aula"><path codeLine="35" d="M104.76,163.36 C98.02,168.47 91.27,174.13 85.46,180 C72.79,192.8 61.04,209.3 52.46,222.6 " fill="#FFFFFF" fill-opacity="0.00000" id="HorarioAsignaturaAula-Aula" style="stroke:#181818;stroke-width:1;"/></g><!--link HorarioAsignaturaAula to AsignaturaGradoProfesor--><g id="link_HorarioAsignaturaAula_AsignaturaGradoProfesor"><path codeLine="36" d="M159.33,163.26 C173.67,180.94 193.3,205.13 207.63,222.79 " fill="#FFFFFF" fill-opacity="0.00000" id="HorarioAsignaturaAula-AsignaturaGradoProfesor" style="stroke:#181818;stroke-width:1;"/></g><!--SRC=[VP4n3eCm34Ltd-ABdKCmjMElO0MA4AYk79WgxbvJWKBI12b3ul_y7UkxYRt7NPHr47ne9NBdKkE7_iNpejmi4v-1y7wp6xdlK0NufjpAG_JPUT7AC0BsjeHH-J6606iHI-LIMnOENhi2s2bzfAvJwHe-xl_KfXOCuYcH7ddQ5aSsLivcGlcajW7NQdwbBm00]--></g></svg>