<svg xmlns="http://www.w3.org/2000/svg" xmlns:xlink="http://www.w3.org/1999/xlink" contentStyleType="text/css" data-diagram-type="CLASS" height="821px" preserveAspectRatio="none" style="width:446px;height:821px;background:#FFFFFF;" version="1.1" viewBox="0 0 446 821" width="446px" zoomAndPan="magnify"><defs/><g><!--cluster AsignaturaGradoPorfesor--><g id="cluster_AsignaturaGradoPorfesor"><path d="M61.37,6 L263.4901,6 A3.75,3.75 0 0 1 265.9901,8.5 L272.9901,28.2969 L437.37,28.2969 A2.5,2.5 0 0 1 439.87,30.7969 L439.87,481.46 A2.5,2.5 0 0 1 437.37,483.96 L61.37,483.96 A2.5,2.5 0 0 1 58.87,481.46 L58.87,8.5 A2.5,2.5 0 0 1 61.37,6 " fill="none" style="stroke:#000000;stroke-width:1.5;"/><line style="stroke:#000000;stroke-width:1.5;" x1="58.87" x2="272.9901" y1="28.2969" y2="28.2969"/><text fill="#000000" font-family="sans-serif" font-size="14" font-weight="bold" lengthAdjust="spacing" textLength="201.1201" x="62.87" y="20.9951">AsignaturaGradoPorfesor</text></g><!--class Grado--><g id="elem_Grado"><rect codeLine="2" fill="#F1F1F1" height="80.5938" id="Grado" rx="2.5" ry="2.5" style="stroke:#181818;stroke-width:0.5;" width="135.7305" x="96" y="49.14"/><ellipse cx="138.4926" cy="65.14" fill="#ADD1B2" rx="11" ry="11" style="stroke:#181818;stroke-width:1;"/><path d="M141.4614,70.7806 Q140.8833,71.0775 140.2426,71.2181 Q139.602,71.3744 138.8989,71.3744 Q136.3989,71.3744 135.0708,69.7337 Q133.7583,68.0775 133.7583,64.9525 Q133.7583,61.8275 135.0708,60.1712 Q136.3989,58.515 138.8989,58.515 Q139.602,58.515 140.2426,58.6712 Q140.8989,58.8275 141.4614,59.1244 L141.4614,61.8431 Q140.8364,61.265 140.2426,60.9994 Q139.6489,60.7181 139.0239,60.7181 Q137.6801,60.7181 136.9926,61.7962 Q136.3051,62.8587 136.3051,64.9525 Q136.3051,67.0462 136.9926,68.1244 Q137.6801,69.1869 139.0239,69.1869 Q139.6489,69.1869 140.2426,68.9212 Q140.8364,68.64 141.4614,68.0619 L141.4614,70.7806 Z " fill="#000000"/><text fill="#000000" font-family="sans-serif" font-size="14" lengthAdjust="spacing" textLength="42.6357" x="158.6021" y="69.9867">Grado</text><line style="stroke:#181818;stroke-width:0.5;" x1="97" x2="230.7305" y1="81.14" y2="81.14"/><rect fill="none" height="6" style="stroke:#C82930;stroke-width:1;" width="6" x="104" y="91.7884"/><text fill="#000000" font-family="sans-serif" font-size="14" lengthAdjust="spacing" textLength="87.2813" x="116" y="98.1351">idGrado : int</text><rect fill="none" height="6" style="stroke:#C82930;stroke-width:1;" width="6" x="104" y="108.0853"/><text fill="#000000" font-family="sans-serif" font-size="14" lengthAdjust="spacing" textLength="109.7305" x="116" y="114.432">nombre : String</text><line style="stroke:#181818;stroke-width:0.5;" x1="97" x2="230.7305" y1="121.7337" y2="121.7337"/></g><!--class Asignatura--><g id="elem_Asignatura"><rect codeLine="7" fill="#F1F1F1" height="96.8906" id="Asignatura" rx="2.5" ry="2.5" style="stroke:#181818;stroke-width:0.5;" width="146.4424" x="271.64" y="41"/><ellipse cx="304.0305" cy="57" fill="#ADD1B2" rx="11" ry="11" style="stroke:#181818;stroke-width:1;"/><path d="M306.9992,62.6406 Q306.4211,62.9375 305.7805,63.0781 Q305.1399,63.2344 304.4367,63.2344 Q301.9367,63.2344 300.6086,61.5938 Q299.2961,59.9375 299.2961,56.8125 Q299.2961,53.6875 300.6086,52.0313 Q301.9367,50.375 304.4367,50.375 Q305.1399,50.375 305.7805,50.5313 Q306.4367,50.6875 306.9992,50.9844 L306.9992,53.7031 Q306.3742,53.125 305.7805,52.8594 Q305.1867,52.5781 304.5617,52.5781 Q303.218,52.5781 302.5305,53.6563 Q301.843,54.7188 301.843,56.8125 Q301.843,58.9063 302.5305,59.9844 Q303.218,61.0469 304.5617,61.0469 Q305.1867,61.0469 305.7805,60.7813 Q306.3742,60.5 306.9992,59.9219 L306.9992,62.6406 Z " fill="#000000"/><text fill="#000000" font-family="sans-serif" font-size="14" lengthAdjust="spacing" textLength="75.7969" x="321.895" y="61.8467">Asignatura</text><line style="stroke:#181818;stroke-width:0.5;" x1="272.64" x2="417.0824" y1="73" y2="73"/><rect fill="none" height="6" style="stroke:#C82930;stroke-width:1;" width="6" x="279.64" y="83.6484"/><text fill="#000000" font-family="sans-serif" font-size="14" lengthAdjust="spacing" textLength="120.4424" x="291.64" y="89.9951">idAsignatura : int</text><rect fill="none" height="6" style="stroke:#C82930;stroke-width:1;" width="6" x="279.64" y="99.9453"/><text fill="#000000" font-family="sans-serif" font-size="14" lengthAdjust="spacing" textLength="109.7305" x="291.64" y="106.292">nombre : String</text><rect fill="none" height="6" style="stroke:#C82930;stroke-width:1;" width="6" x="279.64" y="116.2422"/><text fill="#000000" font-family="sans-serif" font-size="14" lengthAdjust="spacing" textLength="101.2607" x="291.64" y="122.5889">creditos : float</text><line style="stroke:#181818;stroke-width:0.5;" x1="272.64" x2="417.0824" y1="129.8906" y2="129.8906"/></g><!--class AsignaturaGrado--><g id="elem_AsignaturaGrado"><rect codeLine="13" fill="#F1F1F1" height="96.8906" id="AsignaturaGrado" rx="2.5" ry="2.5" style="stroke:#181818;stroke-width:0.5;" width="178.3662" x="74.68" y="206.04"/><ellipse cx="102.2501" cy="222.04" fill="#ADD1B2" rx="11" ry="11" style="stroke:#181818;stroke-width:1;"/><path d="M105.2189,227.6806 Q104.6407,227.9775 104.0001,228.1181 Q103.3595,228.2744 102.6564,228.2744 Q100.1564,228.2744 98.8282,226.6338 Q97.5157,224.9775 97.5157,221.8525 Q97.5157,218.7275 98.8282,217.0713 Q100.1564,215.415 102.6564,215.415 Q103.3595,215.415 104.0001,215.5713 Q104.6564,215.7275 105.2189,216.0244 L105.2189,218.7431 Q104.5939,218.165 104.0001,217.8994 Q103.4064,217.6181 102.7814,217.6181 Q101.4376,217.6181 100.7501,218.6963 Q100.0626,219.7588 100.0626,221.8525 Q100.0626,223.9463 100.7501,225.0244 Q101.4376,226.0869 102.7814,226.0869 Q103.4064,226.0869 104.0001,225.8213 Q104.5939,225.54 105.2189,224.9619 L105.2189,227.6806 Z " fill="#000000"/><text fill="#000000" font-family="sans-serif" font-size="14" lengthAdjust="spacing" textLength="118.4326" x="119.0435" y="226.8867">AsignaturaGrado</text><line style="stroke:#181818;stroke-width:0.5;" x1="75.68" x2="252.0462" y1="238.04" y2="238.04"/><rect fill="none" height="6" style="stroke:#C82930;stroke-width:1;" width="6" x="82.68" y="248.6884"/><text fill="#000000" font-family="sans-serif" font-size="14" lengthAdjust="spacing" textLength="87.2813" x="94.68" y="255.0351">idGrado : int</text><rect fill="none" height="6" style="stroke:#C82930;stroke-width:1;" width="6" x="82.68" y="264.9853"/><text fill="#000000" font-family="sans-serif" font-size="14" lengthAdjust="spacing" textLength="120.4424" x="94.68" y="271.332">idAsignatura : int</text><rect fill="none" height="6" style="stroke:#C82930;stroke-width:1;" width="6" x="82.68" y="281.2822"/><text fill="#000000" font-family="sans-serif" font-size="14" lengthAdjust="spacing" textLength="152.3662" x="94.68" y="287.6289">nombreGrado : String</text><line style="stroke:#181818;stroke-width:0.5;" x1="75.68" x2="252.0462" y1="294.9306" y2="294.9306"/></g><!--class AsignaturaGradoProfesor--><g id="elem_AsignaturaGradoProfesor"><rect codeLine="19" fill="#F1F1F1" height="96.8906" id="AsignaturaGradoProfesor" rx="2.5" ry="2.5" style="stroke:#181818;stroke-width:0.5;" width="246.999" x="125.37" y="371.07"/><ellipse cx="157.7605" cy="387.07" fill="#ADD1B2" rx="11" ry="11" style="stroke:#181818;stroke-width:1;"/><path d="M160.7292,392.7106 Q160.1511,393.0075 159.5105,393.1481 Q158.8699,393.3044 158.1667,393.3044 Q155.6667,393.3044 154.3386,391.6638 Q153.0261,390.0075 153.0261,386.8825 Q153.0261,383.7575 154.3386,382.1013 Q155.6667,380.445 158.1667,380.445 Q158.8699,380.445 159.5105,380.6013 Q160.1667,380.7575 160.7292,381.0544 L160.7292,383.7731 Q160.1042,383.195 159.5105,382.9294 Q158.9167,382.6481 158.2917,382.6481 Q156.948,382.6481 156.2605,383.7263 Q155.573,384.7888 155.573,386.8825 Q155.573,388.9763 156.2605,390.0544 Q156.948,391.1169 158.2917,391.1169 Q158.9167,391.1169 159.5105,390.8513 Q160.1042,390.57 160.7292,389.9919 L160.7292,392.7106 Z " fill="#000000"/><text fill="#000000" font-family="sans-serif" font-size="14" lengthAdjust="spacing" textLength="176.3535" x="175.625" y="391.9167">AsignaturaGradoProfesor</text><line style="stroke:#181818;stroke-width:0.5;" x1="126.37" x2="371.369" y1="403.07" y2="403.07"/><rect fill="none" height="6" style="stroke:#C82930;stroke-width:1;" width="6" x="133.37" y="413.7184"/><text fill="#000000" font-family="sans-serif" font-size="14" lengthAdjust="spacing" textLength="220.999" x="145.37" y="420.0651">idAsignaturaGradoProfesor : int</text><rect fill="none" height="6" style="stroke:#C82930;stroke-width:1;" width="6" x="133.37" y="430.0153"/><text fill="#000000" font-family="sans-serif" font-size="14" lengthAdjust="spacing" textLength="163.0781" x="145.37" y="436.362">idAsignaturaGrado : int</text><rect fill="none" height="6" style="stroke:#C82930;stroke-width:1;" width="6" x="133.37" y="446.3122"/><text fill="#000000" font-family="sans-serif" font-size="14" lengthAdjust="spacing" textLength="102.5664" x="145.37" y="452.6589">idProfesor : int</text><line style="stroke:#181818;stroke-width:0.5;" x1="126.37" x2="371.369" y1="459.9606" y2="459.9606"/></g><!--class Profesor--><g id="elem_Profesor"><rect codeLine="25" fill="#F1F1F1" height="113.1875" id="Profesor" rx="2.5" ry="2.5" style="stroke:#181818;stroke-width:0.5;" width="136.5986" x="287.57" y="197.89"/><ellipse cx="323.575" cy="213.89" fill="#ADD1B2" rx="11" ry="11" style="stroke:#181818;stroke-width:1;"/><path d="M326.5437,219.5306 Q325.9656,219.8275 325.325,219.9681 Q324.6844,220.1244 323.9812,220.1244 Q321.4812,220.1244 320.1531,218.4838 Q318.8406,216.8275 318.8406,213.7025 Q318.8406,210.5775 320.1531,208.9213 Q321.4812,207.265 323.9812,207.265 Q324.6844,207.265 325.325,207.4213 Q325.9812,207.5775 326.5437,207.8744 L326.5437,210.5931 Q325.9187,210.015 325.325,209.7494 Q324.7312,209.4681 324.1062,209.4681 Q322.7625,209.4681 322.075,210.5463 Q321.3875,211.6088 321.3875,213.7025 Q321.3875,215.7963 322.075,216.8744 Q322.7625,217.9369 324.1062,217.9369 Q324.7312,217.9369 325.325,217.6713 Q325.9187,217.39 326.5437,216.8119 L326.5437,219.5306 Z " fill="#000000"/><text fill="#000000" font-family="sans-serif" font-size="14" lengthAdjust="spacing" textLength="57.9209" x="342.2428" y="218.7367">Profesor</text><line style="stroke:#181818;stroke-width:0.5;" x1="288.57" x2="423.1686" y1="229.89" y2="229.89"/><rect fill="none" height="6" style="stroke:#C82930;stroke-width:1;" width="6" x="295.57" y="240.5384"/><text fill="#000000" font-family="sans-serif" font-size="14" lengthAdjust="spacing" textLength="102.5664" x="307.57" y="246.8851">idProfesor : int</text><rect fill="none" height="6" style="stroke:#C82930;stroke-width:1;" width="6" x="295.57" y="256.8353"/><text fill="#000000" font-family="sans-serif" font-size="14" lengthAdjust="spacing" textLength="109.7305" x="307.57" y="263.182">nombre : String</text><rect fill="none" height="6" style="stroke:#C82930;stroke-width:1;" width="6" x="295.57" y="273.1322"/><text fill="#000000" font-family="sans-serif" font-size="14" lengthAdjust="spacing" textLength="110.5986" x="307.57" y="279.4789">apellido : String</text><rect fill="none" height="6" style="stroke:#C82930;stroke-width:1;" width="6" x="295.57" y="289.4291"/><text fill="#000000" font-family="sans-serif" font-size="14" lengthAdjust="spacing" textLength="94.0078" x="307.57" y="295.7757">email : String</text><line style="stroke:#181818;stroke-width:0.5;" x1="288.57" x2="423.1686" y1="303.0775" y2="303.0775"/></g><!--class Horario--><g id="elem_Horario"><rect codeLine="39" fill="#F1F1F1" height="113.1875" id="Horario" rx="2.5" ry="2.5" style="stroke:#181818;stroke-width:0.5;" width="143.127" x="177.3" y="527.96"/><ellipse cx="219.0697" cy="543.96" fill="#ADD1B2" rx="11" ry="11" style="stroke:#181818;stroke-width:1;"/><path d="M222.0385,549.6006 Q221.4604,549.8975 220.8197,550.0381 Q220.1791,550.1944 219.476,550.1944 Q216.976,550.1944 215.6479,548.5538 Q214.3354,546.8975 214.3354,543.7725 Q214.3354,540.6475 215.6479,538.9913 Q216.976,537.335 219.476,537.335 Q220.1791,537.335 220.8197,537.4913 Q221.476,537.6475 222.0385,537.9444 L222.0385,540.6631 Q221.4135,540.085 220.8197,539.8194 Q220.226,539.5381 219.601,539.5381 Q218.2572,539.5381 217.5697,540.6163 Q216.8822,541.6788 216.8822,543.7725 Q216.8822,545.8663 217.5697,546.9444 Q218.2572,548.0069 219.601,548.0069 Q220.226,548.0069 220.8197,547.7413 Q221.4135,547.46 222.0385,546.8819 L222.0385,549.6006 Z " fill="#000000"/><text fill="#000000" font-family="sans-serif" font-size="14" lengthAdjust="spacing" textLength="51.6387" x="239.0186" y="548.8067">Horario</text><line style="stroke:#181818;stroke-width:0.5;" x1="178.3" x2="319.427" y1="559.96" y2="559.96"/><rect fill="none" height="6" style="stroke:#C82930;stroke-width:1;" width="6" x="185.3" y="570.6084"/><text fill="#000000" font-family="sans-serif" font-size="14" lengthAdjust="spacing" textLength="96.2842" x="197.3" y="576.9551">idHorario : int</text><rect fill="none" height="6" style="stroke:#C82930;stroke-width:1;" width="6" x="185.3" y="586.9053"/><text fill="#000000" font-family="sans-serif" font-size="14" lengthAdjust="spacing" textLength="76.7539" x="197.3" y="593.252">dia : String</text><rect fill="none" height="6" style="stroke:#C82930;stroke-width:1;" width="6" x="185.3" y="603.2022"/><text fill="#000000" font-family="sans-serif" font-size="14" lengthAdjust="spacing" textLength="117.127" x="197.3" y="609.5489">horaInicio : Time</text><rect fill="none" height="6" style="stroke:#C82930;stroke-width:1;" width="6" x="185.3" y="619.4991"/><text fill="#000000" font-family="sans-serif" font-size="14" lengthAdjust="spacing" textLength="100.8984" x="197.3" y="625.8457">horaFin : Time</text><line style="stroke:#181818;stroke-width:0.5;" x1="178.3" x2="319.427" y1="633.1475" y2="633.1475"/></g><!--class HorarioAsignaturaAula--><g id="elem_HorarioAsignaturaAula"><rect codeLine="46" fill="#F1F1F1" height="113.1875" id="HorarioAsignaturaAula" rx="2.5" ry="2.5" style="stroke:#181818;stroke-width:0.5;" width="246.999" x="38.37" y="701.15"/><ellipse cx="78.86" cy="717.15" fill="#ADD1B2" rx="11" ry="11" style="stroke:#181818;stroke-width:1;"/><path d="M81.8288,722.7906 Q81.2507,723.0875 80.61,723.2281 Q79.9694,723.3844 79.2663,723.3844 Q76.7663,723.3844 75.4382,721.7438 Q74.1257,720.0875 74.1257,716.9625 Q74.1257,713.8375 75.4382,712.1813 Q76.7663,710.525 79.2663,710.525 Q79.9694,710.525 80.61,710.6813 Q81.2663,710.8375 81.8288,711.1344 L81.8288,713.8531 Q81.2038,713.275 80.61,713.0094 Q80.0163,712.7281 79.3913,712.7281 Q78.0475,712.7281 77.36,713.8063 Q76.6725,714.8688 76.6725,716.9625 Q76.6725,719.0563 77.36,720.1344 Q78.0475,721.1969 79.3913,721.1969 Q80.0163,721.1969 80.61,720.9313 Q81.2038,720.65 81.8288,720.0719 L81.8288,722.7906 Z " fill="#000000"/><text fill="#000000" font-family="sans-serif" font-size="14" lengthAdjust="spacing" textLength="158.3545" x="98.5245" y="721.9967">HorarioAsignaturaAula</text><line style="stroke:#181818;stroke-width:0.5;" x1="39.37" x2="284.369" y1="733.15" y2="733.15"/><rect fill="none" height="6" style="stroke:#C82930;stroke-width:1;" width="6" x="46.37" y="743.7984"/><text fill="#000000" font-family="sans-serif" font-size="14" lengthAdjust="spacing" textLength="203" x="58.37" y="750.1451">idHorarioAsignaturaAula : int</text><rect fill="none" height="6" style="stroke:#C82930;stroke-width:1;" width="6" x="46.37" y="760.0953"/><text fill="#000000" font-family="sans-serif" font-size="14" lengthAdjust="spacing" textLength="220.999" x="58.37" y="766.442">idAsignaturaGradoProfesor : int</text><rect fill="none" height="6" style="stroke:#C82930;stroke-width:1;" width="6" x="46.37" y="776.3922"/><text fill="#000000" font-family="sans-serif" font-size="14" lengthAdjust="spacing" textLength="96.2842" x="58.37" y="782.7389">idHorario : int</text><rect fill="none" height="6" style="stroke:#C82930;stroke-width:1;" width="6" x="46.37" y="792.6891"/><text fill="#000000" font-family="sans-serif" font-size="14" lengthAdjust="spacing" textLength="75.5645" x="58.37" y="799.0357">idAula : int</text><line style="stroke:#181818;stroke-width:0.5;" x1="39.37" x2="284.369" y1="806.3375" y2="806.3375"/></g><!--class Aula--><g id="elem_Aula"><rect codeLine="53" fill="#F1F1F1" height="96.8906" id="Aula" rx="2.5" ry="2.5" style="stroke:#181818;stroke-width:0.5;" width="135.7305" x="7" y="536.11"/><ellipse cx="55.1558" cy="552.11" fill="#ADD1B2" rx="11" ry="11" style="stroke:#181818;stroke-width:1;"/><path d="M58.1245,557.7506 Q57.5464,558.0475 56.9058,558.1881 Q56.2651,558.3444 55.562,558.3444 Q53.062,558.3444 51.7339,556.7038 Q50.4214,555.0475 50.4214,551.9225 Q50.4214,548.7975 51.7339,547.1413 Q53.062,545.485 55.562,545.485 Q56.2651,545.485 56.9058,545.6413 Q57.562,545.7975 58.1245,546.0944 L58.1245,548.8131 Q57.4995,548.235 56.9058,547.9694 Q56.312,547.6881 55.687,547.6881 Q54.3433,547.6881 53.6558,548.7663 Q52.9683,549.8288 52.9683,551.9225 Q52.9683,554.0163 53.6558,555.0944 Q54.3433,556.1569 55.687,556.1569 Q56.312,556.1569 56.9058,555.8913 Q57.4995,555.61 58.1245,555.0319 L58.1245,557.7506 Z " fill="#000000"/><text fill="#000000" font-family="sans-serif" font-size="14" lengthAdjust="spacing" textLength="30.9189" x="75.6558" y="556.9567">Aula</text><line style="stroke:#181818;stroke-width:0.5;" x1="8" x2="141.7305" y1="568.11" y2="568.11"/><rect fill="none" height="6" style="stroke:#C82930;stroke-width:1;" width="6" x="15" y="578.7584"/><text fill="#000000" font-family="sans-serif" font-size="14" lengthAdjust="spacing" textLength="75.5645" x="27" y="585.1051">idAula : int</text><rect fill="none" height="6" style="stroke:#C82930;stroke-width:1;" width="6" x="15" y="595.0553"/><text fill="#000000" font-family="sans-serif" font-size="14" lengthAdjust="spacing" textLength="109.7305" x="27" y="601.402">nombre : String</text><rect fill="none" height="6" style="stroke:#C82930;stroke-width:1;" width="6" x="15" y="611.3522"/><text fill="#000000" font-family="sans-serif" font-size="14" lengthAdjust="spacing" textLength="103.5508" x="27" y="617.6989">capacidad : int</text><line style="stroke:#181818;stroke-width:0.5;" x1="8" x2="141.7305" y1="625.0006" y2="625.0006"/></g><!--link Asignatura to Profesor--><g id="link_Asignatura_Profesor"><path codeLine="32" d="M348.08,138.04 C349.33,156.65 350.78,178.13 352.09,197.48 " fill="none" id="Asignatura-Profesor" style="stroke:#181818;stroke-width:1;"/></g><!--link Grado to AsignaturaGrado--><g id="link_Grado_AsignaturaGrado"><path codeLine="33" d="M163.87,129.91 C163.87,152.72 163.87,181.57 163.87,205.66 " fill="none" id="Grado-AsignaturaGrado" style="stroke:#181818;stroke-width:1;"/></g><!--link Asignatura to AsignaturaGrado--><g id="link_Asignatura_AsignaturaGrado"><path codeLine="34" d="M292.03,138.04 C268.44,159.28 240.71,184.26 217.08,205.54 " fill="none" id="Asignatura-AsignaturaGrado" style="stroke:#181818;stroke-width:1;"/></g><!--link AsignaturaGrado to AsignaturaGradoProfesor--><g id="link_AsignaturaGrado_AsignaturaGradoProfesor"><path codeLine="35" d="M188.68,303.08 C199.75,324.32 212.78,349.3 223.87,370.58 " fill="none" id="AsignaturaGrado-AsignaturaGradoProfesor" style="stroke:#181818;stroke-width:1;"/></g><!--link Profesor to AsignaturaGradoProfesor--><g id="link_Profesor_AsignaturaGradoProfesor"><path codeLine="36" d="M319.34,311.13 C306.63,330.51 292.49,352.05 280.23,370.73 " fill="none" id="Profesor-AsignaturaGradoProfesor" style="stroke:#181818;stroke-width:1;"/></g><!--link AsignaturaGradoProfesor to Horario--><g id="link_AsignaturaGradoProfesor_Horario"><path codeLine="59" d="M248.87,468.12 C248.87,486.73 248.87,508.21 248.87,527.56 " fill="none" id="AsignaturaGradoProfesor-Horario" style="stroke:#181818;stroke-width:1;"/></g><!--link Horario to HorarioAsignaturaAula--><g id="link_Horario_HorarioAsignaturaAula"><path codeLine="60" d="M220.38,641.61 C210.71,660.63 199.92,681.86 190.27,700.86 " fill="none" id="Horario-HorarioAsignaturaAula" style="stroke:#181818;stroke-width:1;"/></g><!--link Aula to HorarioAsignaturaAula--><g id="link_Aula_HorarioAsignaturaAula"><path codeLine="61" d="M99.1,633.24 C109.76,654.22 122.35,679 133.45,700.83 " fill="none" id="Aula-HorarioAsignaturaAula" style="stroke:#181818;stroke-width:1;"/></g><!--SRC=[XLDBSeGW4DrxYgxPSu7iPfFFBbN91Jh0cAuWMEYiKhbxMXa14RNA3Qy_xmFsA7-mrN2v3jHQ7EyUNpmgz-xyJG_EN-2t0P06Xm7cmdm6440gd9-0xFZ0hEk-l6ReO_HaMqR_cZYU6B8T6NYyQ4Abruf6Dp1-Cmx7lVtdGa-8bu5Z6o4ex-QWgfxM7Ni2Ql8sGvc22cMLenuYzjeOMjkRSDqXcRLd0Fwoe8I8t5m8iXahd6ncZkfxIpAUwEsWYzC9sRmwZvx2vK_1BESb5m6AC7Sfu9jRtYp9kUkJEXtHPx8BL18a8TUxmPAkg2RoyyTH5yrpQL7Kig8kcBQNp_yFzYX9eKgBzkHmrWyLpQ8cGMjxpSoyL_q7]--></g></svg>