<svg xmlns="http://www.w3.org/2000/svg" xmlns:xlink="http://www.w3.org/1999/xlink" contentStyleType="text/css" height="787px" preserveAspectRatio="none" style="width:912px;height:787px;background:#FFFFFF;" version="1.1" viewBox="0 0 912 787" width="912px" zoomAndPan="magnify"><title>Diagrama de Estados de Asignatura</title><defs/><g><text fill="#000000" font-family="sans-serif" font-size="14" font-weight="bold" lengthAdjust="spacing" textLength="283.2266" x="307.7588" y="22.9951">Diagrama de Estados de Asignatura</text><ellipse cx="653.5" cy="53.2969" fill="#222222" rx="10" ry="10" style="stroke:#222222;stroke-width:1;"/><g id="SinAsignar"><rect fill="#F1F1F1" height="50.2656" rx="12.5" ry="12.5" style="stroke:#181818;stroke-width:0.5;" width="344.5918" x="481" y="124.2969"/><line style="stroke:#181818;stroke-width:0.5;" x1="481" x2="825.5918" y1="150.5938" y2="150.5938"/><text fill="#000000" font-family="sans-serif" font-size="14" lengthAdjust="spacing" textLength="74.5049" x="616.0435" y="142.292">SinAsignar</text><text fill="#000000" font-family="sans-serif" font-size="12" lengthAdjust="spacing" textLength="324.5918" x="486" y="166.7324">La asignatura, profesor y aula a&#250;n no est&#225;n definidos.</text></g><g id="GrupoDefinido"><rect fill="#F1F1F1" height="50.2656" rx="12.5" ry="12.5" style="stroke:#181818;stroke-width:0.5;" width="300.0723" x="385.5" y="251.2969"/><line style="stroke:#181818;stroke-width:0.5;" x1="385.5" x2="685.5723" y1="277.5938" y2="277.5938"/><text fill="#000000" font-family="sans-serif" font-size="14" lengthAdjust="spacing" textLength="101.3564" x="484.8579" y="269.292">GrupoDefinido</text><text fill="#000000" font-family="sans-serif" font-size="12" lengthAdjust="spacing" textLength="280.0723" x="390.5" y="293.7324">Grupo creado, pero a&#250;n sin profesor asignado.</text></g><g id="ProfesorAsignado"><rect fill="#F1F1F1" height="50.2656" rx="12.5" ry="12.5" style="stroke:#181818;stroke-width:0.5;" width="217.1211" x="144" y="378.2969"/><line style="stroke:#181818;stroke-width:0.5;" x1="144" x2="361.1211" y1="404.5938" y2="404.5938"/><text fill="#000000" font-family="sans-serif" font-size="14" lengthAdjust="spacing" textLength="122.4727" x="191.3242" y="396.292">ProfesorAsignado</text><text fill="#000000" font-family="sans-serif" font-size="12" lengthAdjust="spacing" textLength="197.1211" x="149" y="420.7324">Profesor asignado, pero sin aula.</text></g><g id="AulaAsignada"><rect fill="#F1F1F1" height="50.2656" rx="12.5" ry="12.5" style="stroke:#181818;stroke-width:0.5;" width="287.7734" x="72.5" y="505.2969"/><line style="stroke:#181818;stroke-width:0.5;" x1="72.5" x2="360.2734" y1="531.5938" y2="531.5938"/><text fill="#000000" font-family="sans-serif" font-size="14" lengthAdjust="spacing" textLength="95.4844" x="168.6445" y="523.292">AulaAsignada</text><text fill="#000000" font-family="sans-serif" font-size="12" lengthAdjust="spacing" textLength="267.7734" x="77.5" y="547.7324">Todo listo: grupo, profesor y aula asignados.</text></g><g id="Confirmado"><rect fill="#F1F1F1" height="50.2656" rx="12.5" ry="12.5" style="stroke:#181818;stroke-width:0.5;" width="264.5059" x="7" y="632.2969"/><line style="stroke:#181818;stroke-width:0.5;" x1="7" x2="271.5059" y1="658.5938" y2="658.5938"/><text fill="#000000" font-family="sans-serif" font-size="14" lengthAdjust="spacing" textLength="81.457" x="98.5244" y="650.292">Confirmado</text><text fill="#000000" font-family="sans-serif" font-size="12" lengthAdjust="spacing" textLength="244.5059" x="12" y="674.7324">Configuraci&#243;n finalizada y lista para uso.</text></g><g id="Cancelado"><rect fill="#F1F1F1" height="50" rx="12.5" ry="12.5" style="stroke:#181818;stroke-width:0.5;" width="93.459" x="384" y="632.2969"/><line style="stroke:#181818;stroke-width:0.5;" x1="384" x2="477.459" y1="658.5938" y2="658.5938"/><text fill="#000000" font-family="sans-serif" font-size="14" lengthAdjust="spacing" textLength="73.459" x="394" y="650.292">Cancelado</text></g><ellipse cx="245.5" cy="770.2969" fill="none" rx="11" ry="11" style="stroke:#222222;stroke-width:1;"/><ellipse cx="245.5" cy="770.2969" fill="#222222" rx="6" ry="6" style="stroke:#222222;stroke-width:1;"/><!--link *start* to SinAsignar--><g id="link_*start*_SinAsignar"><path d="M653.5,63.3069 C653.5,77.1869 653.5,98.2669 653.5,118.1369 " fill="none" id="*start*-to-SinAsignar" style="stroke:#181818;stroke-width:1;"/><polygon fill="#181818" points="653.5,124.1369,657.5,115.1369,653.5,119.1369,649.5,115.1369,653.5,124.1369" style="stroke:#181818;stroke-width:1;"/></g><!--link SinAsignar to GrupoDefinido--><g id="link_SinAsignar_GrupoDefinido"><path d="M566.14,174.3369 C552.81,181.7969 540.76,191.5569 532.5,204.2969 C523.64,217.9569 523.4618,230.5381 526.5818,245.2081 " fill="none" id="SinAsignar-to-GrupoDefinido" style="stroke:#181818;stroke-width:1;"/><polygon fill="#181818" points="527.83,251.0769,529.8703,241.4417,526.7899,246.1863,522.0453,243.1059,527.83,251.0769" style="stroke:#181818;stroke-width:1;"/><text fill="#000000" font-family="sans-serif" font-size="13" lengthAdjust="spacing" textLength="212.3799" x="533.5" y="217.3638">Crear grupo en AsignaturaGrado</text></g><!--link GrupoDefinido to ProfesorAsignado--><g id="link_GrupoDefinido_ProfesorAsignado"><path d="M385.32,288.3469 C326.09,296.1069 267.8,309.2169 249.5,331.2969 C238.95,344.0269 238.8594,357.0451 242.5094,372.1351 " fill="none" id="GrupoDefinido-to-ProfesorAsignado" style="stroke:#181818;stroke-width:1;"/><polygon fill="#181818" points="243.92,377.9669,245.692,368.2787,242.7445,373.107,237.9162,370.1595,243.92,377.9669" style="stroke:#181818;stroke-width:1;"/><text fill="#000000" font-family="sans-serif" font-size="13" lengthAdjust="spacing" textLength="339.7139" x="250.5" y="344.3638">Asignar profesor a grupo (AsignaturaGradoProfesor)</text></g><!--link ProfesorAsignado to AulaAsignada--><g id="link_ProfesorAsignado_AulaAsignada"><path d="M245.56,428.3969 C239.18,450.5369 231.4511,477.3914 225.0811,499.5014 " fill="none" id="ProfesorAsignado-to-AulaAsignada" style="stroke:#181818;stroke-width:1;"/><polygon fill="#181818" points="223.42,505.2669,229.7553,497.726,224.8042,500.4623,222.0679,495.5113,223.42,505.2669" style="stroke:#181818;stroke-width:1;"/><text fill="#000000" font-family="sans-serif" font-size="13" lengthAdjust="spacing" textLength="80.9961" x="237.5" y="471.3638">Asignar aula</text></g><!--link AulaAsignada to Confirmado--><g id="link_AulaAsignada_Confirmado"><path d="M94.4,555.4369 C80.75,562.8969 68.54,572.6269 59.5,585.2969 C46.77,603.1369 57.6361,616.5281 78.5861,629.1081 " fill="none" id="AulaAsignada-to-Confirmado" style="stroke:#181818;stroke-width:1;"/><polygon fill="#181818" points="83.73,632.1969,78.0734,624.1345,79.4434,629.6229,73.955,630.993,83.73,632.1969" style="stroke:#181818;stroke-width:1;"/><text fill="#000000" font-family="sans-serif" font-size="13" lengthAdjust="spacing" textLength="170.8091" x="60.5" y="598.3638">Confirmar asignaci&#243;n final</text></g><!--link SinAsignar to Cancelado--><g id="link_SinAsignar_Cancelado"><path d="M713.47,174.3569 C727.18,182.1969 740.6,192.0969 750.5,204.2969 C771.31,229.9469 772.5,242.2569 772.5,275.2969 C772.5,275.2969 772.5,275.2969 772.5,531.2969 C772.5,593.4069 576.9202,632.8416 483.2602,648.2716 " fill="none" id="SinAsignar-to-Cancelado" style="stroke:#181818;stroke-width:1;"/><polygon fill="#181818" points="477.34,649.2469,486.8705,651.7307,482.2735,648.4341,485.5701,643.8371,477.34,649.2469" style="stroke:#181818;stroke-width:1;"/><text fill="#000000" font-family="sans-serif" font-size="13" lengthAdjust="spacing" textLength="131.2441" x="773.5" y="407.8638">Cancelar asignaci&#243;n</text></g><!--link GrupoDefinido to Cancelado--><g id="link_GrupoDefinido_Cancelado"><path d="M571.4,301.5369 C580.68,309.7869 589.46,319.8569 594.5,331.2969 C620.88,391.2069 806.53,119.5569 544.5,555.2969 C525.49,586.9069 498.2247,610.5587 472.9047,628.7287 " fill="none" id="GrupoDefinido-to-Cancelado" style="stroke:#181818;stroke-width:1;"/><polygon fill="#181818" points="468.03,632.2269,477.6742,630.2294,472.0923,629.3117,473.01,623.7298,468.03,632.2269" style="stroke:#181818;stroke-width:1;"/><text fill="#000000" font-family="sans-serif" font-size="13" lengthAdjust="spacing" textLength="131.2441" x="602.5" y="471.3638">Cancelar asignaci&#243;n</text></g><!--link ProfesorAsignado to Cancelado--><g id="link_ProfesorAsignado_Cancelado"><path d="M293.96,428.3069 C321.57,446.2669 356.66,473.1869 378.5,505.2969 C405.71,545.2969 418.8032,595.0454 425.1332,626.4154 " fill="none" id="ProfesorAsignado-to-Cancelado" style="stroke:#181818;stroke-width:1;"/><polygon fill="#181818" points="426.32,632.2969,428.4608,622.6835,425.331,627.3957,420.6188,624.2659,426.32,632.2969" style="stroke:#181818;stroke-width:1;"/><text fill="#000000" font-family="sans-serif" font-size="13" lengthAdjust="spacing" textLength="131.2441" x="404.5" y="534.8638">Cancelar asignaci&#243;n</text></g><!--link AulaAsignada to Cancelado--><g id="link_AulaAsignada_Cancelado"><path d="M230.05,555.3569 C239.79,570.7169 254.24,589.9869 271.5,602.2969 C305.08,626.2469 344.2722,638.8738 377.8422,646.5838 " fill="none" id="AulaAsignada-to-Cancelado" style="stroke:#181818;stroke-width:1;"/><polygon fill="#181818" points="383.69,647.9269,375.8137,642.0138,378.8169,646.8077,374.023,649.8108,383.69,647.9269" style="stroke:#181818;stroke-width:1;"/><text fill="#000000" font-family="sans-serif" font-size="13" lengthAdjust="spacing" textLength="131.2441" x="272.5" y="598.3638">Cancelar asignaci&#243;n</text></g><!--link Confirmado to *end*--><g id="link_Confirmado_*end*"><path d="M155.55,682.5869 C165.6,696.9369 179.3,715.0269 193.5,729.2969 C207.15,743.0269 220.6162,752.816 231.4762,760.096 " fill="none" id="Confirmado-to-*end*" style="stroke:#181818;stroke-width:1;"/><polygon fill="#181818" points="236.46,763.4369,231.2115,755.103,232.3068,760.6528,226.757,761.7481,236.46,763.4369" style="stroke:#181818;stroke-width:1;"/><text fill="#000000" font-family="sans-serif" font-size="13" lengthAdjust="spacing" textLength="147.7861" x="194.5" y="725.3638">Operaci&#243;n completada</text></g><!--link Cancelado to *end*--><g id="link_Cancelado_*end*"><path d="M406.41,682.3469 C390.44,697.3169 368.45,716.1569 346.5,729.2969 C315.75,747.7069 280.7692,759.1341 261.8092,764.6741 " fill="none" id="Cancelado-to-*end*" style="stroke:#181818;stroke-width:1;"/><polygon fill="#181818" points="256.05,766.3569,265.8106,767.6721,260.8493,764.9545,263.5669,759.9932,256.05,766.3569" style="stroke:#181818;stroke-width:1;"/><text fill="#000000" font-family="sans-serif" font-size="13" lengthAdjust="spacing" textLength="141.1147" x="369.5" y="725.3638">Asignaci&#243;n cancelada</text></g><!--SRC=[XPCzQiGm48LxdMBA96Hp01S1umtRB6GXwKAAmPQDmDOOIIusjyaPqgNrnJ9QoV4lk9Cqyzvyl45EkLh2KM5bi44e9BnOXmLPVqojgZIwpg3uUFY4m-4PtfGEhqQ8yGm9d17ml_qHMaEbj6JW2jZLNEj_DMW2QLt_hTcyL5hncAUPZPzmCbrBnrXduyn8hbJ-5QIUC9qCSufb- -qEEOiAOWnfACosIezGWRGWdZxNUu1Bx4fZ4viEVAD11BfRu0pQUx7XSbcEZtmUpOV4D2kL1qgv5Xzm0kCbGYoAxyIYMbb7IK3SM4NqvkndOZyg8rqgqmJUuJ80vwh_qS19OItMZHLdCEbGNzxpUcD1QD4WT9RMwyvGvxAEFk4ycxUne5t9PegxgdKOUuf92BxV_v44NdcdCOYSchQM_9rGZ5vZPpf9DOzr_0C0]--></g></svg>