<svg xmlns="http://www.w3.org/2000/svg" xmlns:xlink="http://www.w3.org/1999/xlink" contentStyleType="text/css" height="821px" preserveAspectRatio="none" style="width:449px;height:821px;background:#FFFFFF;" version="1.1" viewBox="0 0 449 821" width="449px" zoomAndPan="magnify"><defs/><g><!--cluster AGP--><g id="cluster_AGP"><path d="M61.5,6 L95.0869,6 A3.75,3.75 0 0 1 97.5869,8.5 L104.5869,28.2969 L439.5,28.2969 A2.5,2.5 0 0 1 442,30.7969 L442,481.5 A2.5,2.5 0 0 1 439.5,484 L61.5,484 A2.5,2.5 0 0 1 59,481.5 L59,8.5 A2.5,2.5 0 0 1 61.5,6 " fill="none" style="stroke:#000000;stroke-width:1.5;"/><line style="stroke:#000000;stroke-width:1.5;" x1="59" x2="104.5869" y1="28.2969" y2="28.2969"/><text fill="#000000" font-family="sans-serif" font-size="14" font-weight="bold" lengthAdjust="spacing" textLength="32.5869" x="63" y="20.9951">AGP</text></g><!--class Grado--><g id="elem_Grado"><rect codeLine="2" fill="#F1F1F1" height="80.5938" id="Grado" rx="2.5" ry="2.5" style="stroke:#181818;stroke-width:0.5;" width="135.7305" x="269" y="49"/><ellipse cx="311.4926" cy="65" fill="#ADD1B2" rx="11" ry="11" style="stroke:#181818;stroke-width:1;"/><path d="M314.4614,70.6406 Q313.8833,70.9375 313.2426,71.0781 Q312.602,71.2344 311.8989,71.2344 Q309.3989,71.2344 308.0708,69.5938 Q306.7583,67.9375 306.7583,64.8125 Q306.7583,61.6875 308.0708,60.0313 Q309.3989,58.375 311.8989,58.375 Q312.602,58.375 313.2426,58.5313 Q313.8989,58.6875 314.4614,58.9844 L314.4614,61.7031 Q313.8364,61.125 313.2426,60.8594 Q312.6489,60.5781 312.0239,60.5781 Q310.6801,60.5781 309.9926,61.6563 Q309.3051,62.7188 309.3051,64.8125 Q309.3051,66.9063 309.9926,67.9844 Q310.6801,69.0469 312.0239,69.0469 Q312.6489,69.0469 313.2426,68.7813 Q313.8364,68.5 314.4614,67.9219 L314.4614,70.6406 Z " fill="#000000"/><text fill="#000000" font-family="sans-serif" font-size="14" lengthAdjust="spacing" textLength="42.6357" x="331.6021" y="69.8467">Grado</text><line style="stroke:#181818;stroke-width:0.5;" x1="270" x2="403.7305" y1="81" y2="81"/><rect fill="none" height="6" style="stroke:#C82930;stroke-width:1;" width="6" x="277" y="91.6484"/><text fill="#000000" font-family="sans-serif" font-size="14" lengthAdjust="spacing" textLength="87.2813" x="289" y="97.9951">idGrado : int</text><rect fill="none" height="6" style="stroke:#C82930;stroke-width:1;" width="6" x="277" y="107.9453"/><text fill="#000000" font-family="sans-serif" font-size="14" lengthAdjust="spacing" textLength="109.7305" x="289" y="114.292">nombre : String</text><line style="stroke:#181818;stroke-width:0.5;" x1="270" x2="403.7305" y1="121.5938" y2="121.5938"/></g><!--class Asignatura--><g id="elem_Asignatura"><rect codeLine="7" fill="#F1F1F1" height="96.8906" id="Asignatura" rx="2.5" ry="2.5" style="stroke:#181818;stroke-width:0.5;" width="146.4424" x="82" y="41"/><ellipse cx="114.3905" cy="57" fill="#ADD1B2" rx="11" ry="11" style="stroke:#181818;stroke-width:1;"/><path d="M117.3592,62.6406 Q116.7811,62.9375 116.1405,63.0781 Q115.4999,63.2344 114.7967,63.2344 Q112.2967,63.2344 110.9686,61.5938 Q109.6561,59.9375 109.6561,56.8125 Q109.6561,53.6875 110.9686,52.0313 Q112.2967,50.375 114.7967,50.375 Q115.4999,50.375 116.1405,50.5313 Q116.7967,50.6875 117.3592,50.9844 L117.3592,53.7031 Q116.7342,53.125 116.1405,52.8594 Q115.5467,52.5781 114.9217,52.5781 Q113.578,52.5781 112.8905,53.6563 Q112.203,54.7188 112.203,56.8125 Q112.203,58.9063 112.8905,59.9844 Q113.578,61.0469 114.9217,61.0469 Q115.5467,61.0469 116.1405,60.7813 Q116.7342,60.5 117.3592,59.9219 L117.3592,62.6406 Z " fill="#000000"/><text fill="#000000" font-family="sans-serif" font-size="14" lengthAdjust="spacing" textLength="75.7969" x="132.255" y="61.8467">Asignatura</text><line style="stroke:#181818;stroke-width:0.5;" x1="83" x2="227.4424" y1="73" y2="73"/><rect fill="none" height="6" style="stroke:#C82930;stroke-width:1;" width="6" x="90" y="83.6484"/><text fill="#000000" font-family="sans-serif" font-size="14" lengthAdjust="spacing" textLength="120.4424" x="102" y="89.9951">idAsignatura : int</text><rect fill="none" height="6" style="stroke:#C82930;stroke-width:1;" width="6" x="90" y="99.9453"/><text fill="#000000" font-family="sans-serif" font-size="14" lengthAdjust="spacing" textLength="109.7305" x="102" y="106.292">nombre : String</text><rect fill="none" height="6" style="stroke:#C82930;stroke-width:1;" width="6" x="90" y="116.2422"/><text fill="#000000" font-family="sans-serif" font-size="14" lengthAdjust="spacing" textLength="101.2607" x="102" y="122.5889">creditos : float</text><line style="stroke:#181818;stroke-width:0.5;" x1="83" x2="227.4424" y1="129.8906" y2="129.8906"/></g><!--class AsignaturaGrado--><g id="elem_AsignaturaGrado"><rect codeLine="13" fill="#F1F1F1" height="96.8906" id="AsignaturaGrado" rx="2.5" ry="2.5" style="stroke:#181818;stroke-width:0.5;" width="178.3662" x="248" y="206"/><ellipse cx="275.5701" cy="222" fill="#ADD1B2" rx="11" ry="11" style="stroke:#181818;stroke-width:1;"/><path d="M278.5389,227.6406 Q277.9607,227.9375 277.3201,228.0781 Q276.6795,228.2344 275.9764,228.2344 Q273.4764,228.2344 272.1482,226.5938 Q270.8357,224.9375 270.8357,221.8125 Q270.8357,218.6875 272.1482,217.0313 Q273.4764,215.375 275.9764,215.375 Q276.6795,215.375 277.3201,215.5313 Q277.9764,215.6875 278.5389,215.9844 L278.5389,218.7031 Q277.9139,218.125 277.3201,217.8594 Q276.7264,217.5781 276.1014,217.5781 Q274.7576,217.5781 274.0701,218.6563 Q273.3826,219.7188 273.3826,221.8125 Q273.3826,223.9063 274.0701,224.9844 Q274.7576,226.0469 276.1014,226.0469 Q276.7264,226.0469 277.3201,225.7813 Q277.9139,225.5 278.5389,224.9219 L278.5389,227.6406 Z " fill="#000000"/><text fill="#000000" font-family="sans-serif" font-size="14" lengthAdjust="spacing" textLength="118.4326" x="292.3635" y="226.8467">AsignaturaGrado</text><line style="stroke:#181818;stroke-width:0.5;" x1="249" x2="425.3662" y1="238" y2="238"/><rect fill="none" height="6" style="stroke:#C82930;stroke-width:1;" width="6" x="256" y="248.6484"/><text fill="#000000" font-family="sans-serif" font-size="14" lengthAdjust="spacing" textLength="87.2813" x="268" y="254.9951">idGrado : int</text><rect fill="none" height="6" style="stroke:#C82930;stroke-width:1;" width="6" x="256" y="264.9453"/><text fill="#000000" font-family="sans-serif" font-size="14" lengthAdjust="spacing" textLength="120.4424" x="268" y="271.292">idAsignatura : int</text><rect fill="none" height="6" style="stroke:#C82930;stroke-width:1;" width="6" x="256" y="281.2422"/><text fill="#000000" font-family="sans-serif" font-size="14" lengthAdjust="spacing" textLength="152.3662" x="268" y="287.5889">nombreGrado : String</text><line style="stroke:#181818;stroke-width:0.5;" x1="249" x2="425.3662" y1="294.8906" y2="294.8906"/></g><!--class AsignaturaGradoProfesor--><g id="elem_AsignaturaGradoProfesor"><rect codeLine="19" fill="#F1F1F1" height="96.8906" id="AsignaturaGradoProfesor" rx="2.5" ry="2.5" style="stroke:#181818;stroke-width:0.5;" width="246.999" x="126.5" y="371"/><ellipse cx="158.8905" cy="387" fill="#ADD1B2" rx="11" ry="11" style="stroke:#181818;stroke-width:1;"/><path d="M161.8592,392.6406 Q161.2811,392.9375 160.6405,393.0781 Q159.9999,393.2344 159.2967,393.2344 Q156.7967,393.2344 155.4686,391.5938 Q154.1561,389.9375 154.1561,386.8125 Q154.1561,383.6875 155.4686,382.0313 Q156.7967,380.375 159.2967,380.375 Q159.9999,380.375 160.6405,380.5313 Q161.2967,380.6875 161.8592,380.9844 L161.8592,383.7031 Q161.2342,383.125 160.6405,382.8594 Q160.0467,382.5781 159.4217,382.5781 Q158.078,382.5781 157.3905,383.6563 Q156.703,384.7188 156.703,386.8125 Q156.703,388.9063 157.3905,389.9844 Q158.078,391.0469 159.4217,391.0469 Q160.0467,391.0469 160.6405,390.7813 Q161.2342,390.5 161.8592,389.9219 L161.8592,392.6406 Z " fill="#000000"/><text fill="#000000" font-family="sans-serif" font-size="14" lengthAdjust="spacing" textLength="176.3535" x="176.755" y="391.8467">AsignaturaGradoProfesor</text><line style="stroke:#181818;stroke-width:0.5;" x1="127.5" x2="372.499" y1="403" y2="403"/><rect fill="none" height="6" style="stroke:#C82930;stroke-width:1;" width="6" x="134.5" y="413.6484"/><text fill="#000000" font-family="sans-serif" font-size="14" lengthAdjust="spacing" textLength="220.999" x="146.5" y="419.9951">idAsignaturaGradoProfesor : int</text><rect fill="none" height="6" style="stroke:#C82930;stroke-width:1;" width="6" x="134.5" y="429.9453"/><text fill="#000000" font-family="sans-serif" font-size="14" lengthAdjust="spacing" textLength="163.0781" x="146.5" y="436.292">idAsignaturaGrado : int</text><rect fill="none" height="6" style="stroke:#C82930;stroke-width:1;" width="6" x="134.5" y="446.2422"/><text fill="#000000" font-family="sans-serif" font-size="14" lengthAdjust="spacing" textLength="102.5664" x="146.5" y="452.5889">idProfesor : int</text><line style="stroke:#181818;stroke-width:0.5;" x1="127.5" x2="372.499" y1="459.8906" y2="459.8906"/></g><!--class Profesor--><g id="elem_Profesor"><rect codeLine="25" fill="#F1F1F1" height="113.1875" id="Profesor" rx="2.5" ry="2.5" style="stroke:#181818;stroke-width:0.5;" width="136.5986" x="75.5" y="198"/><ellipse cx="111.505" cy="214" fill="#ADD1B2" rx="11" ry="11" style="stroke:#181818;stroke-width:1;"/><path d="M114.4737,219.6406 Q113.8956,219.9375 113.255,220.0781 Q112.6144,220.2344 111.9112,220.2344 Q109.4112,220.2344 108.0831,218.5938 Q106.7706,216.9375 106.7706,213.8125 Q106.7706,210.6875 108.0831,209.0313 Q109.4112,207.375 111.9112,207.375 Q112.6144,207.375 113.255,207.5313 Q113.9112,207.6875 114.4737,207.9844 L114.4737,210.7031 Q113.8487,210.125 113.255,209.8594 Q112.6612,209.5781 112.0362,209.5781 Q110.6925,209.5781 110.005,210.6563 Q109.3175,211.7188 109.3175,213.8125 Q109.3175,215.9063 110.005,216.9844 Q110.6925,218.0469 112.0362,218.0469 Q112.6612,218.0469 113.255,217.7813 Q113.8487,217.5 114.4737,216.9219 L114.4737,219.6406 Z " fill="#000000"/><text fill="#000000" font-family="sans-serif" font-size="14" lengthAdjust="spacing" textLength="57.9209" x="130.1728" y="218.8467">Profesor</text><line style="stroke:#181818;stroke-width:0.5;" x1="76.5" x2="211.0986" y1="230" y2="230"/><rect fill="none" height="6" style="stroke:#C82930;stroke-width:1;" width="6" x="83.5" y="240.6484"/><text fill="#000000" font-family="sans-serif" font-size="14" lengthAdjust="spacing" textLength="102.5664" x="95.5" y="246.9951">idProfesor : int</text><rect fill="none" height="6" style="stroke:#C82930;stroke-width:1;" width="6" x="83.5" y="256.9453"/><text fill="#000000" font-family="sans-serif" font-size="14" lengthAdjust="spacing" textLength="109.7305" x="95.5" y="263.292">nombre : String</text><rect fill="none" height="6" style="stroke:#C82930;stroke-width:1;" width="6" x="83.5" y="273.2422"/><text fill="#000000" font-family="sans-serif" font-size="14" lengthAdjust="spacing" textLength="110.5986" x="95.5" y="279.5889">apellido : String</text><rect fill="none" height="6" style="stroke:#C82930;stroke-width:1;" width="6" x="83.5" y="289.5391"/><text fill="#000000" font-family="sans-serif" font-size="14" lengthAdjust="spacing" textLength="94.0078" x="95.5" y="295.8857">email : String</text><line style="stroke:#181818;stroke-width:0.5;" x1="76.5" x2="211.0986" y1="303.1875" y2="303.1875"/></g><!--class Horario--><g id="elem_Horario"><rect codeLine="39" fill="#F1F1F1" height="113.1875" id="Horario" rx="2.5" ry="2.5" style="stroke:#181818;stroke-width:0.5;" width="143.127" x="178.5" y="528"/><ellipse cx="220.2697" cy="544" fill="#ADD1B2" rx="11" ry="11" style="stroke:#181818;stroke-width:1;"/><path d="M223.2385,549.6406 Q222.6604,549.9375 222.0197,550.0781 Q221.3791,550.2344 220.676,550.2344 Q218.176,550.2344 216.8479,548.5938 Q215.5354,546.9375 215.5354,543.8125 Q215.5354,540.6875 216.8479,539.0313 Q218.176,537.375 220.676,537.375 Q221.3791,537.375 222.0197,537.5313 Q222.676,537.6875 223.2385,537.9844 L223.2385,540.7031 Q222.6135,540.125 222.0197,539.8594 Q221.426,539.5781 220.801,539.5781 Q219.4572,539.5781 218.7697,540.6563 Q218.0822,541.7188 218.0822,543.8125 Q218.0822,545.9063 218.7697,546.9844 Q219.4572,548.0469 220.801,548.0469 Q221.426,548.0469 222.0197,547.7813 Q222.6135,547.5 223.2385,546.9219 L223.2385,549.6406 Z " fill="#000000"/><text fill="#000000" font-family="sans-serif" font-size="14" lengthAdjust="spacing" textLength="51.6387" x="240.2186" y="548.8467">Horario</text><line style="stroke:#181818;stroke-width:0.5;" x1="179.5" x2="320.627" y1="560" y2="560"/><rect fill="none" height="6" style="stroke:#C82930;stroke-width:1;" width="6" x="186.5" y="570.6484"/><text fill="#000000" font-family="sans-serif" font-size="14" lengthAdjust="spacing" textLength="96.2842" x="198.5" y="576.9951">idHorario : int</text><rect fill="none" height="6" style="stroke:#C82930;stroke-width:1;" width="6" x="186.5" y="586.9453"/><text fill="#000000" font-family="sans-serif" font-size="14" lengthAdjust="spacing" textLength="76.7539" x="198.5" y="593.292">dia : String</text><rect fill="none" height="6" style="stroke:#C82930;stroke-width:1;" width="6" x="186.5" y="603.2422"/><text fill="#000000" font-family="sans-serif" font-size="14" lengthAdjust="spacing" textLength="117.127" x="198.5" y="609.5889">horaInicio : Time</text><rect fill="none" height="6" style="stroke:#C82930;stroke-width:1;" width="6" x="186.5" y="619.5391"/><text fill="#000000" font-family="sans-serif" font-size="14" lengthAdjust="spacing" textLength="100.8984" x="198.5" y="625.8857">horaFin : Time</text><line style="stroke:#181818;stroke-width:0.5;" x1="179.5" x2="320.627" y1="633.1875" y2="633.1875"/></g><!--class HorarioAsignaturaAula--><g id="elem_HorarioAsignaturaAula"><rect codeLine="46" fill="#F1F1F1" height="113.1875" id="HorarioAsignaturaAula" rx="2.5" ry="2.5" style="stroke:#181818;stroke-width:0.5;" width="246.999" x="38.5" y="701"/><ellipse cx="78.99" cy="717" fill="#ADD1B2" rx="11" ry="11" style="stroke:#181818;stroke-width:1;"/><path d="M81.9588,722.6406 Q81.3807,722.9375 80.74,723.0781 Q80.0994,723.2344 79.3963,723.2344 Q76.8963,723.2344 75.5682,721.5938 Q74.2557,719.9375 74.2557,716.8125 Q74.2557,713.6875 75.5682,712.0313 Q76.8963,710.375 79.3963,710.375 Q80.0994,710.375 80.74,710.5313 Q81.3963,710.6875 81.9588,710.9844 L81.9588,713.7031 Q81.3338,713.125 80.74,712.8594 Q80.1463,712.5781 79.5213,712.5781 Q78.1775,712.5781 77.49,713.6563 Q76.8025,714.7188 76.8025,716.8125 Q76.8025,718.9063 77.49,719.9844 Q78.1775,721.0469 79.5213,721.0469 Q80.1463,721.0469 80.74,720.7813 Q81.3338,720.5 81.9588,719.9219 L81.9588,722.6406 Z " fill="#000000"/><text fill="#000000" font-family="sans-serif" font-size="14" lengthAdjust="spacing" textLength="158.3545" x="98.6545" y="721.8467">HorarioAsignaturaAula</text><line style="stroke:#181818;stroke-width:0.5;" x1="39.5" x2="284.499" y1="733" y2="733"/><rect fill="none" height="6" style="stroke:#C82930;stroke-width:1;" width="6" x="46.5" y="743.6484"/><text fill="#000000" font-family="sans-serif" font-size="14" lengthAdjust="spacing" textLength="203" x="58.5" y="749.9951">idHorarioAsignaturaAula : int</text><rect fill="none" height="6" style="stroke:#C82930;stroke-width:1;" width="6" x="46.5" y="759.9453"/><text fill="#000000" font-family="sans-serif" font-size="14" lengthAdjust="spacing" textLength="220.999" x="58.5" y="766.292">idAsignaturaGradoProfesor : int</text><rect fill="none" height="6" style="stroke:#C82930;stroke-width:1;" width="6" x="46.5" y="776.2422"/><text fill="#000000" font-family="sans-serif" font-size="14" lengthAdjust="spacing" textLength="96.2842" x="58.5" y="782.5889">idHorario : int</text><rect fill="none" height="6" style="stroke:#C82930;stroke-width:1;" width="6" x="46.5" y="792.5391"/><text fill="#000000" font-family="sans-serif" font-size="14" lengthAdjust="spacing" textLength="75.5645" x="58.5" y="798.8857">idAula : int</text><line style="stroke:#181818;stroke-width:0.5;" x1="39.5" x2="284.499" y1="806.1875" y2="806.1875"/></g><!--class Aula--><g id="elem_Aula"><rect codeLine="53" fill="#F1F1F1" height="96.8906" id="Aula" rx="2.5" ry="2.5" style="stroke:#181818;stroke-width:0.5;" width="135.7305" x="7" y="536"/><ellipse cx="55.1558" cy="552" fill="#ADD1B2" rx="11" ry="11" style="stroke:#181818;stroke-width:1;"/><path d="M58.1245,557.6406 Q57.5464,557.9375 56.9058,558.0781 Q56.2651,558.2344 55.562,558.2344 Q53.062,558.2344 51.7339,556.5938 Q50.4214,554.9375 50.4214,551.8125 Q50.4214,548.6875 51.7339,547.0313 Q53.062,545.375 55.562,545.375 Q56.2651,545.375 56.9058,545.5313 Q57.562,545.6875 58.1245,545.9844 L58.1245,548.7031 Q57.4995,548.125 56.9058,547.8594 Q56.312,547.5781 55.687,547.5781 Q54.3433,547.5781 53.6558,548.6563 Q52.9683,549.7188 52.9683,551.8125 Q52.9683,553.9063 53.6558,554.9844 Q54.3433,556.0469 55.687,556.0469 Q56.312,556.0469 56.9058,555.7813 Q57.4995,555.5 58.1245,554.9219 L58.1245,557.6406 Z " fill="#000000"/><text fill="#000000" font-family="sans-serif" font-size="14" lengthAdjust="spacing" textLength="30.9189" x="75.6558" y="556.8467">Aula</text><line style="stroke:#181818;stroke-width:0.5;" x1="8" x2="141.7305" y1="568" y2="568"/><rect fill="none" height="6" style="stroke:#C82930;stroke-width:1;" width="6" x="15" y="578.6484"/><text fill="#000000" font-family="sans-serif" font-size="14" lengthAdjust="spacing" textLength="75.5645" x="27" y="584.9951">idAula : int</text><rect fill="none" height="6" style="stroke:#C82930;stroke-width:1;" width="6" x="15" y="594.9453"/><text fill="#000000" font-family="sans-serif" font-size="14" lengthAdjust="spacing" textLength="109.7305" x="27" y="601.292">nombre : String</text><rect fill="none" height="6" style="stroke:#C82930;stroke-width:1;" width="6" x="15" y="611.2422"/><text fill="#000000" font-family="sans-serif" font-size="14" lengthAdjust="spacing" textLength="103.5508" x="27" y="617.5889">capacidad : int</text><line style="stroke:#181818;stroke-width:0.5;" x1="8" x2="141.7305" y1="624.8906" y2="624.8906"/></g><!--link Asignatura to Profesor--><g id="link_Asignatura_Profesor"><path codeLine="32" d="M151.79,138.08 C150.53,156.78 149.4738,172.3936 148.1638,191.8136 " fill="none" id="Asignatura-to-Profesor" style="stroke:#181818;stroke-width:1;"/><polygon fill="#181818" points="147.76,197.8,152.3567,189.0896,148.0965,192.8113,144.3748,188.5512,147.76,197.8" style="stroke:#181818;stroke-width:1;"/></g><!--link Grado to AsignaturaGrado--><g id="link_Grado_AsignaturaGrado"><path codeLine="33" d="M337,130.37 C337,153.18 337,175.94 337,199.92 " fill="none" id="Grado-to-AsignaturaGrado" style="stroke:#181818;stroke-width:1;"/><polygon fill="#181818" points="337,205.92,341,196.92,337,200.92,333,196.92,337,205.92" style="stroke:#181818;stroke-width:1;"/></g><!--link Asignatura to AsignaturaGrado--><g id="link_Asignatura_AsignaturaGrado"><path codeLine="34" d="M208.13,138.08 C231.95,159.42 255.5111,180.5164 279.3311,201.8564 " fill="none" id="Asignatura-to-AsignaturaGrado" style="stroke:#181818;stroke-width:1;"/><polygon fill="#181818" points="283.8,205.86,279.7657,196.8753,280.0759,202.5236,274.4276,202.8338,283.8,205.86" style="stroke:#181818;stroke-width:1;"/></g><!--link AsignaturaGrado to AsignaturaGradoProfesor--><g id="link_AsignaturaGrado_AsignaturaGradoProfesor"><path codeLine="35" d="M311.6,303.08 C300.22,324.42 289.6452,344.2268 278.2552,365.5668 " fill="none" id="AsignaturaGrado-to-AsignaturaGradoProfesor" style="stroke:#181818;stroke-width:1;"/><polygon fill="#181818" points="275.43,370.86,283.1966,364.8036,277.7843,366.449,276.139,361.0367,275.43,370.86" style="stroke:#181818;stroke-width:1;"/></g><!--link Profesor to AsignaturaGradoProfesor--><g id="link_Profesor_AsignaturaGradoProfesor"><path codeLine="36" d="M180.18,311.14 C192.84,330.6 203.6503,347.2192 215.8303,365.9592 " fill="none" id="Profesor-to-AsignaturaGradoProfesor" style="stroke:#181818;stroke-width:1;"/><polygon fill="#181818" points="219.1,370.99,217.5492,361.264,216.3752,366.7977,210.8415,365.6237,219.1,370.99" style="stroke:#181818;stroke-width:1;"/></g><!--link AsignaturaGradoProfesor to Horario--><g id="link_AsignaturaGradoProfesor_Horario"><path codeLine="59" d="M250,468.08 C250,486.78 250,502.38 250,521.8 " fill="none" id="AsignaturaGradoProfesor-to-Horario" style="stroke:#181818;stroke-width:1;"/><polygon fill="#181818" points="250,527.8,254,518.8,250,522.8,246,518.8,250,527.8" style="stroke:#181818;stroke-width:1;"/></g><!--reverse link Horario to HorarioAsignaturaAula--><g id="link_Horario_HorarioAsignaturaAula"><path codeLine="60" d="M215.9372,651.6891 C206.0472,670.8991 200.47,681.75 190.58,700.97 " fill="none" id="Horario-backto-HorarioAsignaturaAula" style="stroke:#181818;stroke-width:1;"/><polygon fill="#181818" points="221.43,641.02,215.1272,644.5236,215.9372,651.6891,222.2399,648.1855,221.43,641.02" style="stroke:#181818;stroke-width:1;"/></g><!--link Aula to HorarioAsignaturaAula--><g id="link_Aula_HorarioAsignaturaAula"><path codeLine="61" d="M99.23,633.13 C109.94,654.18 119.8906,673.7216 131.0206,695.6116 " fill="none" id="Aula-to-HorarioAsignaturaAula" style="stroke:#181818;stroke-width:1;"/><polygon fill="#181818" points="133.74,700.96,133.2265,691.1245,131.4738,696.503,126.0954,694.7504,133.74,700.96" style="stroke:#181818;stroke-width:1;"/></g><!--SRC=[XLDBReCm4DrpYb6MaNo1BYgnITfTfFO2K-pGKOsDR6TLzUwr8HWR34XivitdVMHwR7wm5N2ghxSJ_5O0ZKHhuMgGww46O41yh5-0b7jYIdTVHdZemnbIhKV_ghXUMseLkeV1v4O2xXyAQ6C49wUjn-zIezkwVopqW7XQsBSnJDsClWkhJT5JFh4be2HljPGeA50MESeXOY-afDnUm4M797FF0FvBWcBiDPBxpgWxW0ilwwszWSqp2LNqjpVc8ne3UjC63Oql8AGprLCu33XXQfN1jnzvLzGCKv_KYOXUI4tGac0MKZyaBkaMtPdy-8MKHVkz-L3Kab4lcDOlmFz4s6D37FbyQ4jE2Fifevhad1ahswy6xcGbR_y3]--></g></svg>