<svg xmlns="http://www.w3.org/2000/svg" xmlns:xlink="http://www.w3.org/1999/xlink" contentStyleType="text/css" height="694px" preserveAspectRatio="none" style="width:334px;height:694px;background:#FFFFFF;" version="1.1" viewBox="0 0 334 694" width="334px" zoomAndPan="magnify"><title>Diagrama de Clases - Horario</title><defs/><g><text fill="#000000" font-family="sans-serif" font-size="14" font-weight="bold" lengthAdjust="spacing" textLength="230.7881" x="45.0664" y="22.9951">Diagrama de Clases - Horario</text><!--class Administrador--><g id="elem_Administrador"><rect codeLine="3" fill="#F1F1F1" height="64.2969" id="Administrador" rx="2.5" ry="2.5" style="stroke:#181818;stroke-width:0.5;" width="131.0801" x="73.5" y="44.2969"/><ellipse cx="88.5" cy="60.2969" fill="#ADD1B2" rx="11" ry="11" style="stroke:#181818;stroke-width:1;"/><path d="M91.4688,65.9375 Q90.8906,66.2344 90.25,66.375 Q89.6094,66.5313 88.9063,66.5313 Q86.4063,66.5313 85.0781,64.8906 Q83.7656,63.2344 83.7656,60.1094 Q83.7656,56.9844 85.0781,55.3281 Q86.4063,53.6719 88.9063,53.6719 Q89.6094,53.6719 90.25,53.8281 Q90.9063,53.9844 91.4688,54.2813 L91.4688,57 Q90.8438,56.4219 90.25,56.1563 Q89.6563,55.875 89.0313,55.875 Q87.6875,55.875 87,56.9531 Q86.3125,58.0156 86.3125,60.1094 Q86.3125,62.2031 87,63.2813 Q87.6875,64.3438 89.0313,64.3438 Q89.6563,64.3438 90.25,64.0781 Q90.8438,63.7969 91.4688,63.2188 L91.4688,65.9375 Z " fill="#000000"/><text fill="#000000" font-family="sans-serif" font-size="14" lengthAdjust="spacing" textLength="99.0801" x="102.5" y="65.1436">Administrador</text><line style="stroke:#181818;stroke-width:0.5;" x1="74.5" x2="203.5801" y1="76.2969" y2="76.2969"/><rect fill="none" height="6" style="stroke:#C82930;stroke-width:1;" width="6" x="81.5" y="86.9453"/><text fill="#000000" font-family="sans-serif" font-size="14" lengthAdjust="spacing" textLength="88.0742" x="93.5" y="93.292">listaHorarios</text><line style="stroke:#181818;stroke-width:0.5;" x1="74.5" x2="203.5801" y1="100.5938" y2="100.5938"/></g><!--class Profesor--><g id="elem_Profesor"><rect codeLine="6" fill="#F1F1F1" height="80.5938" id="Profesor" rx="2.5" ry="2.5" style="stroke:#181818;stroke-width:0.5;" width="89.9209" x="238" y="168.2969"/><ellipse cx="253" cy="184.2969" fill="#ADD1B2" rx="11" ry="11" style="stroke:#181818;stroke-width:1;"/><path d="M255.9688,189.9375 Q255.3906,190.2344 254.75,190.375 Q254.1094,190.5313 253.4063,190.5313 Q250.9063,190.5313 249.5781,188.8906 Q248.2656,187.2344 248.2656,184.1094 Q248.2656,180.9844 249.5781,179.3281 Q250.9063,177.6719 253.4063,177.6719 Q254.1094,177.6719 254.75,177.8281 Q255.4063,177.9844 255.9688,178.2813 L255.9688,181 Q255.3438,180.4219 254.75,180.1563 Q254.1563,179.875 253.5313,179.875 Q252.1875,179.875 251.5,180.9531 Q250.8125,182.0156 250.8125,184.1094 Q250.8125,186.2031 251.5,187.2813 Q252.1875,188.3438 253.5313,188.3438 Q254.1563,188.3438 254.75,188.0781 Q255.3438,187.7969 255.9688,187.2188 L255.9688,189.9375 Z " fill="#000000"/><text fill="#000000" font-family="sans-serif" font-size="14" lengthAdjust="spacing" textLength="57.9209" x="267" y="189.1436">Profesor</text><line style="stroke:#181818;stroke-width:0.5;" x1="239" x2="326.9209" y1="200.2969" y2="200.2969"/><rect fill="none" height="6" style="stroke:#C82930;stroke-width:1;" width="6" x="246" y="210.9453"/><text fill="#000000" font-family="sans-serif" font-size="14" lengthAdjust="spacing" textLength="54.332" x="258" y="217.292">nombre</text><rect fill="none" height="6" style="stroke:#C82930;stroke-width:1;" width="6" x="246" y="227.2422"/><text fill="#000000" font-family="sans-serif" font-size="14" lengthAdjust="spacing" textLength="55.2002" x="258" y="233.5889">apellido</text><line style="stroke:#181818;stroke-width:0.5;" x1="239" x2="326.9209" y1="240.8906" y2="240.8906"/></g><!--class Asignatura--><g id="elem_Asignatura"><rect codeLine="10" fill="#F1F1F1" height="80.5938" id="Asignatura" rx="2.5" ry="2.5" style="stroke:#181818;stroke-width:0.5;" width="107.7969" x="7" y="466.2969"/><ellipse cx="22" cy="482.2969" fill="#ADD1B2" rx="11" ry="11" style="stroke:#181818;stroke-width:1;"/><path d="M24.9688,487.9375 Q24.3906,488.2344 23.75,488.375 Q23.1094,488.5313 22.4063,488.5313 Q19.9063,488.5313 18.5781,486.8906 Q17.2656,485.2344 17.2656,482.1094 Q17.2656,478.9844 18.5781,477.3281 Q19.9063,475.6719 22.4063,475.6719 Q23.1094,475.6719 23.75,475.8281 Q24.4063,475.9844 24.9688,476.2813 L24.9688,479 Q24.3438,478.4219 23.75,478.1563 Q23.1563,477.875 22.5313,477.875 Q21.1875,477.875 20.5,478.9531 Q19.8125,480.0156 19.8125,482.1094 Q19.8125,484.2031 20.5,485.2813 Q21.1875,486.3438 22.5313,486.3438 Q23.1563,486.3438 23.75,486.0781 Q24.3438,485.7969 24.9688,485.2188 L24.9688,487.9375 Z " fill="#000000"/><text fill="#000000" font-family="sans-serif" font-size="14" lengthAdjust="spacing" textLength="75.7969" x="36" y="487.1436">Asignatura</text><line style="stroke:#181818;stroke-width:0.5;" x1="8" x2="113.7969" y1="498.2969" y2="498.2969"/><rect fill="none" height="6" style="stroke:#C82930;stroke-width:1;" width="6" x="15" y="508.9453"/><text fill="#000000" font-family="sans-serif" font-size="14" lengthAdjust="spacing" textLength="12.7764" x="27" y="515.292">id</text><rect fill="none" height="6" style="stroke:#C82930;stroke-width:1;" width="6" x="15" y="525.2422"/><text fill="#000000" font-family="sans-serif" font-size="14" lengthAdjust="spacing" textLength="54.332" x="27" y="531.5889">nombre</text><line style="stroke:#181818;stroke-width:0.5;" x1="8" x2="113.7969" y1="538.8906" y2="538.8906"/></g><!--class Aula--><g id="elem_Aula"><rect codeLine="14" fill="#F1F1F1" height="64.2969" id="Aula" rx="2.5" ry="2.5" style="stroke:#181818;stroke-width:0.5;" width="80.3184" x="150" y="474.7969"/><ellipse cx="172.8297" cy="490.7969" fill="#ADD1B2" rx="11" ry="11" style="stroke:#181818;stroke-width:1;"/><path d="M175.7985,496.4375 Q175.2204,496.7344 174.5797,496.875 Q173.9391,497.0313 173.236,497.0313 Q170.736,497.0313 169.4079,495.3906 Q168.0954,493.7344 168.0954,490.6094 Q168.0954,487.4844 169.4079,485.8281 Q170.736,484.1719 173.236,484.1719 Q173.9391,484.1719 174.5797,484.3281 Q175.236,484.4844 175.7985,484.7813 L175.7985,487.5 Q175.1735,486.9219 174.5797,486.6563 Q173.986,486.375 173.361,486.375 Q172.0172,486.375 171.3297,487.4531 Q170.6422,488.5156 170.6422,490.6094 Q170.6422,492.7031 171.3297,493.7813 Q172.0172,494.8438 173.361,494.8438 Q173.986,494.8438 174.5797,494.5781 Q175.1735,494.2969 175.7985,493.7188 L175.7985,496.4375 Z " fill="#000000"/><text fill="#000000" font-family="sans-serif" font-size="14" lengthAdjust="spacing" textLength="30.9189" x="188.5697" y="495.6436">Aula</text><line style="stroke:#181818;stroke-width:0.5;" x1="151" x2="229.3184" y1="506.7969" y2="506.7969"/><rect fill="none" height="6" style="stroke:#C82930;stroke-width:1;" width="6" x="158" y="517.4453"/><text fill="#000000" font-family="sans-serif" font-size="14" lengthAdjust="spacing" textLength="54.3184" x="170" y="523.792">numero</text><line style="stroke:#181818;stroke-width:0.5;" x1="151" x2="229.3184" y1="531.0938" y2="531.0938"/></g><!--class Horario--><g id="elem_Horario"><rect codeLine="17" fill="#F1F1F1" height="80.5938" id="Horario" rx="2.5" ry="2.5" style="stroke:#181818;stroke-width:0.5;" width="126.7207" x="75.5" y="168.2969"/><ellipse cx="109.8869" cy="184.2969" fill="#ADD1B2" rx="11" ry="11" style="stroke:#181818;stroke-width:1;"/><path d="M112.8557,189.9375 Q112.2775,190.2344 111.6369,190.375 Q110.9963,190.5313 110.2932,190.5313 Q107.7932,190.5313 106.465,188.8906 Q105.1525,187.2344 105.1525,184.1094 Q105.1525,180.9844 106.465,179.3281 Q107.7932,177.6719 110.2932,177.6719 Q110.9963,177.6719 111.6369,177.8281 Q112.2932,177.9844 112.8557,178.2813 L112.8557,181 Q112.2307,180.4219 111.6369,180.1563 Q111.0432,179.875 110.4182,179.875 Q109.0744,179.875 108.3869,180.9531 Q107.6994,182.0156 107.6994,184.1094 Q107.6994,186.2031 108.3869,187.2813 Q109.0744,188.3438 110.4182,188.3438 Q111.0432,188.3438 111.6369,188.0781 Q112.2307,187.7969 112.8557,187.2188 L112.8557,189.9375 Z " fill="#000000"/><text fill="#000000" font-family="sans-serif" font-size="14" lengthAdjust="spacing" textLength="51.6387" x="128.1951" y="189.1436">Horario</text><line style="stroke:#181818;stroke-width:0.5;" x1="76.5" x2="201.2207" y1="200.2969" y2="200.2969"/><rect fill="none" height="6" style="stroke:#C82930;stroke-width:1;" width="6" x="83.5" y="210.9453"/><text fill="#000000" font-family="sans-serif" font-size="14" lengthAdjust="spacing" textLength="21.3555" x="95.5" y="217.292">dia</text><rect fill="none" height="6" style="stroke:#C82930;stroke-width:1;" width="6" x="83.5" y="227.2422"/><text fill="#000000" font-family="sans-serif" font-size="14" lengthAdjust="spacing" textLength="100.7207" x="95.5" y="233.5889">listaHoraClase</text><line style="stroke:#181818;stroke-width:0.5;" x1="76.5" x2="201.2207" y1="240.8906" y2="240.8906"/></g><!--class HoraClase--><g id="elem_HoraClase"><rect codeLine="21" fill="#F1F1F1" height="96.8906" id="HoraClase" rx="2.5" ry="2.5" style="stroke:#181818;stroke-width:0.5;" width="103.5791" x="106" y="309.2969"/><ellipse cx="121" cy="325.2969" fill="#ADD1B2" rx="11" ry="11" style="stroke:#181818;stroke-width:1;"/><path d="M123.9688,330.9375 Q123.3906,331.2344 122.75,331.375 Q122.1094,331.5313 121.4063,331.5313 Q118.9063,331.5313 117.5781,329.8906 Q116.2656,328.2344 116.2656,325.1094 Q116.2656,321.9844 117.5781,320.3281 Q118.9063,318.6719 121.4063,318.6719 Q122.1094,318.6719 122.75,318.8281 Q123.4063,318.9844 123.9688,319.2813 L123.9688,322 Q123.3438,321.4219 122.75,321.1563 Q122.1563,320.875 121.5313,320.875 Q120.1875,320.875 119.5,321.9531 Q118.8125,323.0156 118.8125,325.1094 Q118.8125,327.2031 119.5,328.2813 Q120.1875,329.3438 121.5313,329.3438 Q122.1563,329.3438 122.75,329.0781 Q123.3438,328.7969 123.9688,328.2188 L123.9688,330.9375 Z " fill="#000000"/><text fill="#000000" font-family="sans-serif" font-size="14" lengthAdjust="spacing" textLength="71.5791" x="135" y="330.1436">HoraClase</text><line style="stroke:#181818;stroke-width:0.5;" x1="107" x2="208.5791" y1="341.2969" y2="341.2969"/><rect fill="none" height="6" style="stroke:#C82930;stroke-width:1;" width="6" x="114" y="351.9453"/><text fill="#000000" font-family="sans-serif" font-size="14" lengthAdjust="spacing" textLength="31.7734" x="126" y="358.292">hora</text><rect fill="none" height="6" style="stroke:#C82930;stroke-width:1;" width="6" x="114" y="368.2422"/><text fill="#000000" font-family="sans-serif" font-size="14" lengthAdjust="spacing" textLength="74.7988" x="126" y="374.5889">asignatura</text><rect fill="none" height="6" style="stroke:#C82930;stroke-width:1;" width="6" x="114" y="384.5391"/><text fill="#000000" font-family="sans-serif" font-size="14" lengthAdjust="spacing" textLength="29.9209" x="126" y="390.8857">aula</text><line style="stroke:#181818;stroke-width:0.5;" x1="107" x2="208.5791" y1="398.1875" y2="398.1875"/></g><!--class ProfesorImparte--><g id="elem_ProfesorImparte"><rect codeLine="26" fill="#F1F1F1" height="80.5938" id="ProfesorImparte" rx="2.5" ry="2.5" style="stroke:#181818;stroke-width:0.5;" width="145.0117" x="99.5" y="607.2969"/><ellipse cx="114.5" cy="623.2969" fill="#ADD1B2" rx="11" ry="11" style="stroke:#181818;stroke-width:1;"/><path d="M117.4688,628.9375 Q116.8906,629.2344 116.25,629.375 Q115.6094,629.5313 114.9063,629.5313 Q112.4063,629.5313 111.0781,627.8906 Q109.7656,626.2344 109.7656,623.1094 Q109.7656,619.9844 111.0781,618.3281 Q112.4063,616.6719 114.9063,616.6719 Q115.6094,616.6719 116.25,616.8281 Q116.9063,616.9844 117.4688,617.2813 L117.4688,620 Q116.8438,619.4219 116.25,619.1563 Q115.6563,618.875 115.0313,618.875 Q113.6875,618.875 113,619.9531 Q112.3125,621.0156 112.3125,623.1094 Q112.3125,625.2031 113,626.2813 Q113.6875,627.3438 115.0313,627.3438 Q115.6563,627.3438 116.25,627.0781 Q116.8438,626.7969 117.4688,626.2188 L117.4688,628.9375 Z " fill="#000000"/><text fill="#000000" font-family="sans-serif" font-size="14" lengthAdjust="spacing" textLength="113.0117" x="128.5" y="628.1436">ProfesorImparte</text><line style="stroke:#181818;stroke-width:0.5;" x1="100.5" x2="243.5117" y1="639.2969" y2="639.2969"/><rect fill="none" height="6" style="stroke:#C82930;stroke-width:1;" width="6" x="107.5" y="649.9453"/><text fill="#000000" font-family="sans-serif" font-size="14" lengthAdjust="spacing" textLength="58.3652" x="119.5" y="656.292">profesor</text><rect fill="none" height="6" style="stroke:#C82930;stroke-width:1;" width="6" x="107.5" y="666.2422"/><text fill="#000000" font-family="sans-serif" font-size="14" lengthAdjust="spacing" textLength="74.7988" x="119.5" y="672.5889">asignatura</text><line style="stroke:#181818;stroke-width:0.5;" x1="100.5" x2="243.5117" y1="679.8906" y2="679.8906"/></g><!--link Administrador to Horario--><g id="link_Administrador_Horario"><path codeLine="31" d="M139,108.5569 C139,126.3469 139,148.8269 139,167.8869 " fill="none" id="Administrador-Horario" style="stroke:#181818;stroke-width:1;"/></g><!--link Horario to HoraClase--><g id="link_Horario_HoraClase"><path codeLine="32" d="M144.14,249.5769 C146.52,267.9469 149.35,289.8969 151.84,309.1369 " fill="none" id="Horario-HoraClase" style="stroke:#181818;stroke-width:1;"/></g><!--link HoraClase to Asignatura--><g id="link_HoraClase_Asignatura"><path codeLine="33" d="M126.51,406.5269 C113.78,425.8069 99.27,447.7969 87.15,466.1769 " fill="none" id="HoraClase-Asignatura" style="stroke:#181818;stroke-width:1;"/></g><!--link HoraClase to Aula--><g id="link_HoraClase_Aula"><path codeLine="34" d="M168.39,406.5269 C173.24,428.8269 178.89,454.7469 183.19,474.5069 " fill="none" id="HoraClase-Aula" style="stroke:#181818;stroke-width:1;"/></g><!--link Profesor to HoraClase--><g id="link_Profesor_HoraClase"><path codeLine="35" d="M249.17,249.5769 C233.56,267.9469 214.89,289.8969 198.52,309.1369 " fill="none" id="Profesor-HoraClase" style="stroke:#181818;stroke-width:1;"/></g><!--link Profesor to ProfesorImparte--><g id="link_Profesor_ProfesorImparte"><path codeLine="36" d="M285.67,249.3769 C288.58,314.1469 288.31,445.7269 248,547.2969 C239.42,568.9169 224.74,589.8469 210.55,606.8869 " fill="none" id="Profesor-ProfesorImparte" style="stroke:#181818;stroke-width:1;"/></g><!--link Asignatura to ProfesorImparte--><g id="link_Asignatura_ProfesorImparte"><path codeLine="37" d="M92.81,547.6269 C107.67,566.2369 125.32,588.3469 140.19,606.9569 " fill="none" id="Asignatura-ProfesorImparte" style="stroke:#181818;stroke-width:1;"/></g><!--SRC=[PP1D4eCW38Ntd28Ny11EksXtlK9QKfiPVfo0guvtBre4KNPyUIyyNkHe2AwCWw15q0GNWu42T73pWi9UgLSY0NfjsN68WjeBV1Maqu591BCog3bh7-BV57Oov-rJA5zm96DO-oBl0myEuoHO3AnRPv5EfehSP4dgcXoZZ3NZCUNwkSQmacBv9BAbBA4sa9u-_V1kHvHO5uoPdvVCIhKLThNYBNb6_vGrNSAreWDVGfMw6_-U7kAgNUFdwGy0]--></g></svg>