<?xml version="1.0" encoding="us-ascii" standalone="no"?><svg xmlns="http://www.w3.org/2000/svg" xmlns:xlink="http://www.w3.org/1999/xlink" contentStyleType="text/css" height="532px" preserveAspectRatio="none" style="width:662px;height:532px;background:#FFFFFF;" version="1.1" viewBox="0 0 662 532" width="662px" zoomAndPan="magnify"><defs/><g><ellipse cx="370.51" cy="16" fill="#222222" rx="10" ry="10" style="stroke:#222222;stroke-width:1.0;"/><g id="CreandoMensaje"><rect fill="#F1F1F1" height="82.8906" rx="12.5" ry="12.5" style="stroke:#181818;stroke-width:0.5;" width="136" x="302.51" y="104"/><line style="stroke:#181818;stroke-width:0.5;" x1="302.51" x2="438.51" y1="131.6094" y2="131.6094"/><text fill="#000000" font-family="sans-serif" font-size="14" lengthAdjust="spacing" textLength="108" x="316.51" y="123.5332">CreandoMensaje</text><text fill="#000000" font-family="sans-serif" font-size="12" lengthAdjust="spacing" textLength="112" x="307.51" y="149.0664">- A&#241;adir Destinatario</text><text fill="#000000" font-family="sans-serif" font-size="12" lengthAdjust="spacing" textLength="83" x="307.51" y="164.1602">- A&#241;adir Asunto</text><text fill="#000000" font-family="sans-serif" font-size="12" lengthAdjust="spacing" textLength="116" x="307.51" y="179.2539">- A&#241;adir Documentos</text></g><g id="SeleccionandoConfirmacion"><rect fill="#F1F1F1" height="50" rx="12.5" ry="12.5" style="stroke:#181818;stroke-width:0.5;" width="196" x="118.51" y="265"/><line style="stroke:#181818;stroke-width:0.5;" x1="118.51" x2="314.51" y1="292.6094" y2="292.6094"/><text fill="#000000" font-family="sans-serif" font-size="14" lengthAdjust="spacing" textLength="176" x="128.51" y="284.5332">SeleccionandoConfirmacion</text></g><g id="elem_SeleccionandoConfirmacion2"><polygon fill="#F1F1F1" points="346.51,406,358.51,418,346.51,430,334.51,418,346.51,406" style="stroke:#181818;stroke-width:0.5;"/></g><g id="CreandoEnvio"><rect fill="#F1F1F1" height="50" rx="12.5" ry="12.5" style="stroke:#181818;stroke-width:0.5;" width="110" x="534.51" y="265"/><line style="stroke:#181818;stroke-width:0.5;" x1="534.51" x2="644.51" y1="292.6094" y2="292.6094"/><text fill="#000000" font-family="sans-serif" font-size="14" lengthAdjust="spacing" textLength="90" x="544.51" y="284.5332">CreandoEnvio</text></g><g id="EnviandoMensaje"><rect fill="#F1F1F1" height="50" rx="12.5" ry="12.5" style="stroke:#181818;stroke-width:0.5;" width="132" x="523.51" y="393"/><line style="stroke:#181818;stroke-width:0.5;" x1="523.51" x2="655.51" y1="420.6094" y2="420.6094"/><text fill="#000000" font-family="sans-serif" font-size="14" lengthAdjust="spacing" textLength="112" x="533.51" y="412.5332">EnviandoMensaje</text></g><ellipse cx="589.51" cy="515" fill="none" rx="11" ry="11" style="stroke:#222222;stroke-width:1.0;"/><ellipse cx="589.51" cy="515" fill="#222222" rx="6" ry="6" style="stroke:#222222;stroke-width:1.0;"/><!--link *start* to CreandoMensaje--><g id="link_*start*_CreandoMensaje"><path d="M370.51,26.17 C370.51,42.21 370.51,70.29 370.51,97.77 " fill="none" id="*start*-to-CreandoMensaje" style="stroke:#181818;stroke-width:1.0;"/><polygon fill="#181818" points="370.51,103.77,374.51,94.77,370.51,98.77,366.51,94.77,370.51,103.77" style="stroke:#181818;stroke-width:1.0;"/><text fill="#000000" font-family="sans-serif" font-size="13" lengthAdjust="spacing" textLength="139" x="371.51" y="70.4951">Crear un nuevo mensaje</text></g><!--link CreandoMensaje to SeleccionandoConfirmacion--><g id="link_CreandoMensaje_SeleccionandoConfirmacion"><path d="M302.47,150.95 C214.45,158.29 68.47,176.39 35.51,217 C6,253.37 55.4724,270.5304 112.5424,279.4804 " fill="none" id="CreandoMensaje-to-SeleccionandoConfirmacion" style="stroke:#181818;stroke-width:1.0;"/><polygon fill="#181818" points="118.47,280.41,110.1984,275.0639,113.5304,279.6353,108.9589,282.9673,118.47,280.41" style="stroke:#181818;stroke-width:1.0;"/><text fill="#000000" font-family="sans-serif" font-size="13" lengthAdjust="spacing" textLength="179" x="36.51" y="231.4951">Seleccionar tipo de documento</text></g><!--link SeleccionandoConfirmacion to CreandoMensaje--><g id="link_SeleccionandoConfirmacion_CreandoMensaje"><path d="M226.09,264.97 C232.94,249.94 243.28,230.86 256.51,217 C269.69,203.2 281.0382,194.1898 297.2882,183.9898 " fill="none" id="SeleccionandoConfirmacion-to-CreandoMensaje" style="stroke:#181818;stroke-width:1.0;"/><polygon fill="#181818" points="302.37,180.8,292.6207,182.1969,298.1351,183.4582,296.8738,188.9726,302.37,180.8" style="stroke:#181818;stroke-width:1.0;"/><rect fill="none" height="6" style="stroke:#C82930;stroke-width:1.0;" width="6" x="259.51" y="223.6758"/><text fill="#000000" font-family="sans-serif" font-size="13" lengthAdjust="spacing" textLength="185" x="269.51" y="231.4951">Se requiere vista del documento</text></g><!--link SeleccionandoConfirmacion to SeleccionandoConfirmacion2--><g id="link_SeleccionandoConfirmacion_SeleccionandoConfirmacion2"><path d="M208.66,315.33 C205.39,330.3 204.22,349.2 213.51,363 C241.9,405.17 303.5176,413.9603 329.8076,415.9803 " fill="none" id="SeleccionandoConfirmacion-to-SeleccionandoConfirmacion2" style="stroke:#181818;stroke-width:1.0;"/><polygon fill="#181818" points="335.79,416.44,327.1229,411.7623,330.8047,416.057,326.51,419.7388,335.79,416.44" style="stroke:#181818;stroke-width:1.0;"/><rect fill="none" height="6" style="stroke:#C82930;stroke-width:1.0;" width="6" x="216.51" y="351.6758"/><text fill="#000000" font-family="sans-serif" font-size="13" lengthAdjust="spacing" textLength="228" x="226.51" y="359.4951">Se requiere vista y firma del documento</text></g><!--link SeleccionandoConfirmacion2 to CreandoMensaje--><g id="link_SeleccionandoConfirmacion2_CreandoMensaje"><path d="M356.35,415.76 C379.27,412.3 436.09,400.15 459.51,363 C494.12,308.11 487.76,275.42 459.51,217 C454.11,205.82 450.3414,199.9798 441.1514,191.3398 " fill="none" id="SeleccionandoConfirmacion2-to-CreandoMensaje" style="stroke:#181818;stroke-width:1.0;"/><polygon fill="#181818" points="436.78,187.23,440.5973,196.309,440.4229,190.6548,446.077,190.4804,436.78,187.23" style="stroke:#181818;stroke-width:1.0;"/></g><!--link CreandoMensaje to CreandoEnvio--><g id="link_CreandoMensaje_CreandoEnvio"><path d="M438.59,177.4 C461.2,188.74 486.07,202.39 507.51,217 C528.34,231.18 545.3064,245.9313 560.9864,260.8013 " fill="none" id="CreandoMensaje-to-CreandoEnvio" style="stroke:#181818;stroke-width:1.0;"/><polygon fill="#181818" points="565.34,264.93,561.5621,255.8345,561.712,261.4894,556.0571,261.6393,565.34,264.93" style="stroke:#181818;stroke-width:1.0;"/></g><!--link CreandoEnvio to EnviandoMensaje--><g id="link_CreandoEnvio_EnviandoMensaje"><path d="M589.51,315.29 C589.51,337.61 589.51,364.49 589.51,386.78 " fill="none" id="CreandoEnvio-to-EnviandoMensaje" style="stroke:#181818;stroke-width:1.0;"/><polygon fill="#181818" points="589.51,392.78,593.51,383.78,589.51,387.78,585.51,383.78,589.51,392.78" style="stroke:#181818;stroke-width:1.0;"/></g><!--link EnviandoMensaje to *end*--><g id="link_EnviandoMensaje_*end*"><path d="M589.51,443.46 C589.51,463.04 589.51,483.49 589.51,497.8 " fill="none" id="EnviandoMensaje-to-*end*" style="stroke:#181818;stroke-width:1.0;"/><polygon fill="#181818" points="589.51,503.8,593.51,494.8,589.51,498.8,585.51,494.8,589.51,503.8" style="stroke:#181818;stroke-width:1.0;"/></g><!--SRC=[bP5DRi8m48NtFiLR8sN3CaAHK63P5Kl4magcwY2OAVw9r6Fr3BrO7HVK00a8hpmpdzzxycndEnH5XTgHbLRVIBpTKvbhXoYGI9tY-DStvff3YGBBds_RiiEAV62nmJhMHzpIHmaFYPKsCJa6zNU6VTOD7QXfMAKVr2hlx8wshyl1o27mfw8bj1SrOtomWQRVOx6eFvGRggfdw7p88frfqR7lBH8FHwV8v0WT9xSKzJ38-bnpEjku_XSoyOhFV2Jyw4hEhRLq_xlFHPxsjw72JPsPxMndVW40]--></g></svg>