<?xml version="1.0" encoding="us-ascii" standalone="no"?><svg xmlns="http://www.w3.org/2000/svg" xmlns:xlink="http://www.w3.org/1999/xlink" contentStyleType="text/css" height="106px" preserveAspectRatio="none" style="width:450px;height:106px;background:#FFFFFF;" version="1.1" viewBox="0 0 450 106" width="450px" zoomAndPan="magnify"><defs/><g><!--cluster Men? Principal--><g id="cluster_Men&#250; Principal"><path d="M242.5,6 L348.5,6 A3.75,3.75 0 0 1 351,8.5 L358,29.6094 L440.5,29.6094 A2.5,2.5 0 0 1 443,32.1094 L443,95.5 A2.5,2.5 0 0 1 440.5,98 L242.5,98 A2.5,2.5 0 0 1 240,95.5 L240,8.5 A2.5,2.5 0 0 1 242.5,6 " fill="none" style="stroke:#000000;stroke-width:1.5;"/><line style="stroke:#000000;stroke-width:1.5;" x1="240" x2="358" y1="29.6094" y2="29.6094"/><text fill="#000000" font-family="sans-serif" font-size="14" font-weight="bold" lengthAdjust="spacing" textLength="105" x="244" y="22.5332">Men&#250; Principal</text></g><g id="elem_MS1"><ellipse cx="341.2698" cy="61.954" fill="#F1F1F1" rx="85.2698" ry="19.454" style="stroke:#181818;stroke-width:0.5;"/><text fill="#000000" font-family="sans-serif" font-size="14" lengthAdjust="spacing" textLength="127" x="277.7698" y="65.6825">Abrir Men&#250; Principal</text></g><!--entity Administrador--><g id="elem_Administrador"><ellipse cx="49.5" cy="31.5" fill="#F1F1F1" rx="8" ry="8" style="stroke:#181818;stroke-width:0.5;"/><path d="M49.5,39.5 L49.5,66.5 M36.5,47.5 L62.5,47.5 M49.5,66.5 L36.5,81.5 M49.5,66.5 L62.5,81.5 " fill="none" style="stroke:#181818;stroke-width:0.5;"/><text fill="#000000" font-family="sans-serif" font-size="14" lengthAdjust="spacing" textLength="87" x="6" y="97.5332">Administrador</text></g><!--entity Usuario--><g id="elem_Usuario"><ellipse cx="174.5" cy="31.5" fill="#F1F1F1" rx="8" ry="8" style="stroke:#181818;stroke-width:0.5;"/><path d="M174.5,39.5 L174.5,66.5 M161.5,47.5 L187.5,47.5 M174.5,66.5 L161.5,81.5 M174.5,66.5 L187.5,81.5 " fill="none" style="stroke:#181818;stroke-width:0.5;"/><text fill="#000000" font-family="sans-serif" font-size="14" lengthAdjust="spacing" textLength="43" x="153" y="97.5332">Gestor</text></g><!--link Administrador to Usuario--><g id="link_Administrador_Usuario"><path d="M93.17,62 C113.43,62 118.71,62 134.98,62 " fill="none" id="Administrador-to-Usuario" style="stroke:#181818;stroke-width:1.0;"/><polygon fill="none" points="152.98,62,134.98,56,134.98,68,152.98,62" style="stroke:#181818;stroke-width:1.0;"/></g><!--link Usuario to MS1--><g id="link_Usuario_MS1"><path d="M196.06,62 C211.44,62 227.58,62 249.93,62 " fill="none" id="Usuario-to-MS1" style="stroke:#181818;stroke-width:1.0;"/><polygon fill="#181818" points="255.93,62,246.93,58,250.93,62,246.93,66,255.93,62" style="stroke:#181818;stroke-width:1.0;"/></g><!--SRC=[POt12i9034Jl-OgmznxyWK9FdWg2-05nDzPWtIr9Ub9_pAi_vWfLACvbOEOnC_B9qGkg36V79ChHfMIWw4KnTEagMSoLKj60PBXAljYMpPV-O3Ef5829ueK6nj1pVZrnfvAZJ3G6l05MpSQHhFRTKKNnZwfR_Nu33u3L9JRDlVszB5x3zaE_0G00]--></g></svg>