<?xml version="1.0" encoding="us-ascii" standalone="no"?><svg xmlns="http://www.w3.org/2000/svg" xmlns:xlink="http://www.w3.org/1999/xlink" contentStyleType="text/css" height="457px" preserveAspectRatio="none" style="width:296px;height:457px;background:#FFFFFF;" version="1.1" viewBox="0 0 296 457" width="296px" zoomAndPan="magnify"><defs/><g><line style="stroke:#181818;stroke-width:0.5;stroke-dasharray:5.0,5.0;" x1="41" x2="41" y1="82.6094" y2="375.7734"/><line style="stroke:#181818;stroke-width:0.5;stroke-dasharray:5.0,5.0;" x1="137" x2="137" y1="82.6094" y2="375.7734"/><line style="stroke:#181818;stroke-width:0.5;stroke-dasharray:5.0,5.0;" x1="257.5" x2="257.5" y1="82.6094" y2="375.7734"/><text fill="#000000" font-family="sans-serif" font-size="14" lengthAdjust="spacing" textLength="67" x="5" y="79.5332">Estudiante</text><ellipse cx="41.5" cy="13.5" fill="#E2E2F0" rx="8" ry="8" style="stroke:#181818;stroke-width:0.5;"/><path d="M41.5,21.5 L41.5,48.5 M28.5,29.5 L54.5,29.5 M41.5,48.5 L28.5,63.5 M41.5,48.5 L54.5,63.5 " fill="none" style="stroke:#181818;stroke-width:0.5;"/><text fill="#000000" font-family="sans-serif" font-size="14" lengthAdjust="spacing" textLength="67" x="5" y="389.3066">Estudiante</text><ellipse cx="41.5" cy="400.8828" fill="#E2E2F0" rx="8" ry="8" style="stroke:#181818;stroke-width:0.5;"/><path d="M41.5,408.8828 L41.5,435.8828 M28.5,416.8828 L54.5,416.8828 M41.5,435.8828 L28.5,450.8828 M41.5,435.8828 L54.5,450.8828 " fill="none" style="stroke:#181818;stroke-width:0.5;"/><text fill="#000000" font-family="sans-serif" font-size="14" lengthAdjust="spacing" textLength="92" x="88" y="79.5332">Administracion</text><ellipse cx="137" cy="13.5" fill="#E2E2F0" rx="8" ry="8" style="stroke:#181818;stroke-width:0.5;"/><path d="M137,21.5 L137,48.5 M124,29.5 L150,29.5 M137,48.5 L124,63.5 M137,48.5 L150,63.5 " fill="none" style="stroke:#181818;stroke-width:0.5;"/><text fill="#000000" font-family="sans-serif" font-size="14" lengthAdjust="spacing" textLength="92" x="88" y="389.3066">Administracion</text><ellipse cx="137" cy="400.8828" fill="#E2E2F0" rx="8" ry="8" style="stroke:#181818;stroke-width:0.5;"/><path d="M137,408.8828 L137,435.8828 M124,416.8828 L150,416.8828 M137,435.8828 L124,450.8828 M137,435.8828 L150,450.8828 " fill="none" style="stroke:#181818;stroke-width:0.5;"/><rect fill="#E2E2F0" height="31.6094" rx="2.5" ry="2.5" style="stroke:#181818;stroke-width:0.5;" width="66" x="224.5" y="50"/><text fill="#000000" font-family="sans-serif" font-size="14" lengthAdjust="spacing" textLength="52" x="231.5" y="71.5332">Campus</text><rect fill="#E2E2F0" height="31.6094" rx="2.5" ry="2.5" style="stroke:#181818;stroke-width:0.5;" width="66" x="224.5" y="374.7734"/><text fill="#000000" font-family="sans-serif" font-size="14" lengthAdjust="spacing" textLength="52" x="231.5" y="396.3066">Campus</text><polygon fill="#181818" points="245.5,110.9609,255.5,114.9609,245.5,118.9609,249.5,114.9609" style="stroke:#181818;stroke-width:1.0;"/><line style="stroke:#181818;stroke-width:1.0;" x1="41.5" x2="251.5" y1="114.9609" y2="114.9609"/><text fill="#000000" font-family="sans-serif" font-size="13" lengthAdjust="spacing" textLength="112" x="48.5" y="110.1045">Acceder al campus</text><polygon fill="#181818" points="52.5,141.3125,42.5,145.3125,52.5,149.3125,48.5,145.3125" style="stroke:#181818;stroke-width:1.0;"/><line style="stroke:#181818;stroke-width:1.0;" x1="46.5" x2="256.5" y1="145.3125" y2="145.3125"/><text fill="#000000" font-family="sans-serif" font-size="13" lengthAdjust="spacing" textLength="125" x="58.5" y="140.4561">Autenticaci&#243;n exitosa</text><polygon fill="#181818" points="245.5,171.6641,255.5,175.6641,245.5,179.6641,249.5,175.6641" style="stroke:#181818;stroke-width:1.0;"/><line style="stroke:#181818;stroke-width:1.0;" x1="41.5" x2="251.5" y1="175.6641" y2="175.6641"/><text fill="#000000" font-family="sans-serif" font-size="13" lengthAdjust="spacing" textLength="110" x="48.5" y="170.8076">Realizar test inicial</text><polygon fill="#181818" points="148,202.0156,138,206.0156,148,210.0156,144,206.0156" style="stroke:#181818;stroke-width:1.0;"/><line style="stroke:#181818;stroke-width:1.0;" x1="142" x2="256.5" y1="206.0156" y2="206.0156"/><text fill="#000000" font-family="sans-serif" font-size="13" lengthAdjust="spacing" textLength="61" x="154" y="201.1592">Enviar test</text><polygon fill="#181818" points="245.5,232.3672,255.5,236.3672,245.5,240.3672,249.5,236.3672" style="stroke:#181818;stroke-width:1.0;"/><line style="stroke:#181818;stroke-width:1.0;" x1="137" x2="251.5" y1="236.3672" y2="236.3672"/><text fill="#000000" font-family="sans-serif" font-size="13" lengthAdjust="spacing" textLength="68" x="144" y="231.5107">Evaluar test</text><polygon fill="#181818" points="52.5,262.7188,42.5,266.7188,52.5,270.7188,48.5,266.7188" style="stroke:#181818;stroke-width:1.0;"/><line style="stroke:#181818;stroke-width:1.0;" x1="46.5" x2="256.5" y1="266.7188" y2="266.7188"/><text fill="#000000" font-family="sans-serif" font-size="13" lengthAdjust="spacing" textLength="164" x="58.5" y="261.8623">Notificar aceptaci&#243;n/rechazo</text><polygon fill="#181818" points="245.5,293.0703,255.5,297.0703,245.5,301.0703,249.5,297.0703" style="stroke:#181818;stroke-width:1.0;"/><line style="stroke:#181818;stroke-width:1.0;" x1="41.5" x2="251.5" y1="297.0703" y2="297.0703"/><text fill="#000000" font-family="sans-serif" font-size="13" lengthAdjust="spacing" textLength="192" x="48.5" y="292.2139">Acceder a recursos (si aceptado)</text><polygon fill="#181818" points="52.5,323.4219,42.5,327.4219,52.5,331.4219,48.5,327.4219" style="stroke:#181818;stroke-width:1.0;"/><line style="stroke:#181818;stroke-width:1.0;" x1="46.5" x2="256.5" y1="327.4219" y2="327.4219"/><text fill="#000000" font-family="sans-serif" font-size="13" lengthAdjust="spacing" textLength="97" x="58.5" y="322.5654">Proveer recursos</text><polygon fill="#181818" points="245.5,353.7734,255.5,357.7734,245.5,361.7734,249.5,357.7734" style="stroke:#181818;stroke-width:1.0;"/><line style="stroke:#181818;stroke-width:1.0;" x1="41.5" x2="251.5" y1="357.7734" y2="357.7734"/><text fill="#000000" font-family="sans-serif" font-size="13" lengthAdjust="spacing" textLength="172" x="48.5" y="352.917">Realizar tests de seguimiento</text><!--SRC=[ZP1DQiD038NtSmgHLReetMSH2CNRKfeJ28tI2koH6MbCoRLwX5wi8eb9lJ3jLlEzdtb8hXKwyvO5YtF2o-6G1obYNf54Ingnkf2CGS0npZmWeC7c6OUnsIQbkm4yxcTa1mSYpbm1Uw0BccPrK7TDWCsvH4J4VNyLu4znDLopVMFivOmLdCqXYf9W_zjwMNy7NPdaXgVbsyAtcx1lCxVIz4LTJb4qFaKy-hNmKsNwmBF-FGG4sQgfmTRaPf7rOItjjUh4ePjL_rh483COlpSP95RL7m00]--></g></svg>