<svg xmlns="http://www.w3.org/2000/svg" xmlns:xlink="http://www.w3.org/1999/xlink" contentStyleType="text/css" data-diagram-type="STATE" height="909px" preserveAspectRatio="none" style="width:547px;height:909px;background:#FFFFFF;" version="1.1" viewBox="0 0 547 909" width="547px" zoomAndPan="magnify"><defs/><g><ellipse cx="274.2" cy="16" fill="#222222" rx="10" ry="10" style="stroke:#222222;stroke-width:1;"/><g id="Inicio"><rect fill="#F1F1F1" height="50.2656" rx="12.5" ry="12.5" style="stroke:#181818;stroke-width:0.5;" width="182.7969" x="182.8" y="87"/><line style="stroke:#181818;stroke-width:0.5;" x1="182.8" x2="365.5969" y1="113.2969" y2="113.2969"/><text fill="#000000" font-family="sans-serif" font-size="14" lengthAdjust="spacing" textLength="37.0439" x="255.6765" y="104.9951">Inicio</text><text fill="#000000" font-family="sans-serif" font-size="12" lengthAdjust="spacing" textLength="162.7969" x="187.8" y="129.4355">Iniciar sesi&#243;n en el sistema</text></g><g id="SeleccionarProfesor"><rect fill="#F1F1F1" height="50.2656" rx="12.5" ry="12.5" style="stroke:#181818;stroke-width:0.5;" width="158.9814" x="194.71" y="214.27"/><line style="stroke:#181818;stroke-width:0.5;" x1="194.71" x2="353.6914" y1="240.5669" y2="240.5669"/><text fill="#000000" font-family="sans-serif" font-size="14" lengthAdjust="spacing" textLength="138.9814" x="204.71" y="232.2651">SeleccionarProfesor</text><text fill="#000000" font-family="sans-serif" font-size="12" lengthAdjust="spacing" textLength="122.9414" x="199.71" y="256.7055">Seleccionar Profesor</text></g><g id="SeleccionarAsignaturas"><rect fill="#F1F1F1" height="50.2656" rx="12.5" ry="12.5" style="stroke:#181818;stroke-width:0.5;" width="184.1514" x="110.12" y="325.53"/><line style="stroke:#181818;stroke-width:0.5;" x1="110.12" x2="294.2714" y1="351.8269" y2="351.8269"/><text fill="#000000" font-family="sans-serif" font-size="14" lengthAdjust="spacing" textLength="164.1514" x="120.12" y="343.5251">SeleccionarAsignaturas</text><text fill="#000000" font-family="sans-serif" font-size="12" lengthAdjust="spacing" textLength="144.5156" x="115.12" y="367.9655">Seleccionar Asignaturas</text></g><g id="RevisarAsignacion"><rect fill="#F1F1F1" height="50.2656" rx="12.5" ry="12.5" style="stroke:#181818;stroke-width:0.5;" width="148.2695" x="129.06" y="436.8"/><line style="stroke:#181818;stroke-width:0.5;" x1="129.06" x2="277.3295" y1="463.0969" y2="463.0969"/><text fill="#000000" font-family="sans-serif" font-size="14" lengthAdjust="spacing" textLength="128.2695" x="139.06" y="454.7951">RevisarAsignacion</text><text fill="#000000" font-family="sans-serif" font-size="12" lengthAdjust="spacing" textLength="113.7598" x="134.06" y="479.2355">Revisar Asignaci&#243;n</text></g><g id="ConfirmarAsignacion"><rect fill="#F1F1F1" height="50.2656" rx="12.5" ry="12.5" style="stroke:#181818;stroke-width:0.5;" width="165.8857" x="128.26" y="548.06"/><line style="stroke:#181818;stroke-width:0.5;" x1="128.26" x2="294.1457" y1="574.3569" y2="574.3569"/><text fill="#000000" font-family="sans-serif" font-size="14" lengthAdjust="spacing" textLength="145.8857" x="138.26" y="566.0551">ConfirmarAsignacion</text><text fill="#000000" font-family="sans-serif" font-size="12" lengthAdjust="spacing" textLength="128.8594" x="133.26" y="590.4955">Confirmar Asignaci&#243;n</text></g><g id="GuardarAsignacion"><rect fill="#F1F1F1" height="50.2656" rx="12.5" ry="12.5" style="stroke:#181818;stroke-width:0.5;" width="222.2773" x="225.06" y="659.33"/><line style="stroke:#181818;stroke-width:0.5;" x1="225.06" x2="447.3373" y1="685.6269" y2="685.6269"/><text fill="#000000" font-family="sans-serif" font-size="14" lengthAdjust="spacing" textLength="133.4033" x="269.497" y="677.3251">GuardarAsignacion</text><text fill="#000000" font-family="sans-serif" font-size="12" lengthAdjust="spacing" textLength="202.2773" x="230.06" y="701.7655">Guardar Asignaci&#243;n en el sistema</text></g><g id="ModificarAsignacion"><rect fill="#F1F1F1" height="50.2656" rx="12.5" ry="12.5" style="stroke:#181818;stroke-width:0.5;" width="160.3965" x="7" y="659.33"/><line style="stroke:#181818;stroke-width:0.5;" x1="7" x2="167.3965" y1="685.6269" y2="685.6269"/><text fill="#000000" font-family="sans-serif" font-size="14" lengthAdjust="spacing" textLength="140.3965" x="17" y="677.3251">ModificarAsignacion</text><text fill="#000000" font-family="sans-serif" font-size="12" lengthAdjust="spacing" textLength="124.1543" x="12" y="701.7655">Modificar Asignaci&#243;n</text></g><g id="Finalizado"><rect fill="#F1F1F1" height="50.2656" rx="12.5" ry="12.5" style="stroke:#181818;stroke-width:0.5;" width="236.2695" x="218.06" y="770.59"/><line style="stroke:#181818;stroke-width:0.5;" x1="218.06" x2="454.3295" y1="796.8869" y2="796.8869"/><text fill="#000000" font-family="sans-serif" font-size="14" lengthAdjust="spacing" textLength="70.5537" x="300.9179" y="788.5851">Finalizado</text><text fill="#000000" font-family="sans-serif" font-size="12" lengthAdjust="spacing" textLength="216.2695" x="223.06" y="813.0255">Asignaci&#243;n completada y registrada</text></g><ellipse cx="336.2" cy="892.86" fill="transparent" rx="11" ry="11" style="stroke:#222222;stroke-width:1;"/><ellipse cx="336.2" cy="892.86" fill="#222222" rx="6" ry="6" style="stroke:#222222;stroke-width:1;"/><!--link *start* to Inicio--><g id="link_*start*_Inicio"><path d="M274.2,26.37 C274.2,40.32 274.2,61.02 274.2,80.75 " fill="transparent" id="*start*-to-Inicio" style="stroke:#181818;stroke-width:1;"/><polygon fill="#181818" points="274.2,86.75,278.2,77.75,274.2,81.75,270.2,77.75,274.2,86.75" style="stroke:#181818;stroke-width:1;"/></g><!--link Inicio to SeleccionarProfesor--><g id="link_Inicio_SeleccionarProfesor"><path d="M269.84,137.46 C267.87,151.19 266.19,168.66 267.2,184.27 C267.83,194.01 268.2593,198.7264 269.5393,207.9964 " fill="transparent" id="Inicio-to-SeleccionarProfesor" style="stroke:#181818;stroke-width:1;"/><polygon fill="#181818" points="270.36,213.94,273.0914,204.4775,269.6761,208.987,265.1666,205.5717,270.36,213.94" style="stroke:#181818;stroke-width:1;"/></g><!--link SeleccionarProfesor to Inicio--><g id="link_SeleccionarProfesor_Inicio"><path d="M274.2,214.01 C274.2,191.96 274.2,165.66 274.2,143.58 " fill="transparent" id="SeleccionarProfesor-to-Inicio" style="stroke:#181818;stroke-width:1;"/><polygon fill="#181818" points="274.2,137.58,270.2,146.58,274.2,142.58,278.2,146.58,274.2,137.58" style="stroke:#181818;stroke-width:1;"/><text fill="#000000" font-family="sans-serif" font-size="13" lengthAdjust="spacing" textLength="95.7354" x="275.2" y="180.3369">Volver al Inicio</text></g><!--link SeleccionarProfesor to SeleccionarAsignaturas--><g id="link_SeleccionarProfesor_SeleccionarAsignaturas"><path d="M258.04,264.92 C246.18,282.92 233.4518,302.2402 221.6018,320.2202 " fill="transparent" id="SeleccionarProfesor-to-SeleccionarAsignaturas" style="stroke:#181818;stroke-width:1;"/><polygon fill="#181818" points="218.3,325.23,226.5926,319.9165,221.0515,321.0552,219.9128,315.5141,218.3,325.23" style="stroke:#181818;stroke-width:1;"/></g><!--link SeleccionarAsignaturas to RevisarAsignacion--><g id="link_SeleccionarAsignaturas_RevisarAsignacion"><path d="M202.42,376.19 C202.59,394.18 202.7566,412.5102 202.9166,430.4902 " fill="transparent" id="SeleccionarAsignaturas-to-RevisarAsignacion" style="stroke:#181818;stroke-width:1;"/><polygon fill="#181818" points="202.97,436.49,206.8898,427.4548,202.9255,431.4902,198.8901,427.526,202.97,436.49" style="stroke:#181818;stroke-width:1;"/></g><!--link RevisarAsignacion to ConfirmarAsignacion--><g id="link_RevisarAsignacion_ConfirmarAsignacion"><path d="M204.99,487.45 C206.31,505.45 207.6507,523.7961 208.9707,541.7761 " fill="transparent" id="RevisarAsignacion-to-ConfirmarAsignacion" style="stroke:#181818;stroke-width:1;"/><polygon fill="#181818" points="209.41,547.76,212.7403,538.4913,209.0439,542.7734,204.7618,539.077,209.41,547.76" style="stroke:#181818;stroke-width:1;"/></g><!--link ConfirmarAsignacion to GuardarAsignacion--><g id="link_ConfirmarAsignacion_GuardarAsignacion"><path d="M239.25,598.72 C259.84,616.71 283.1514,637.1026 303.7214,655.0726 " fill="transparent" id="ConfirmarAsignacion-to-GuardarAsignacion" style="stroke:#181818;stroke-width:1;"/><polygon fill="#181818" points="308.24,659.02,304.0938,650.0864,304.4745,655.7305,298.8305,656.1112,308.24,659.02" style="stroke:#181818;stroke-width:1;"/></g><!--link ConfirmarAsignacion to ModificarAsignacion--><g id="link_ConfirmarAsignacion_ModificarAsignacion"><path d="M183.37,598.72 C162.95,616.71 139.8323,637.084 119.4323,655.054 " fill="transparent" id="ConfirmarAsignacion-to-ModificarAsignacion" style="stroke:#181818;stroke-width:1;"/><polygon fill="#181818" points="114.93,659.02,124.3275,656.0725,118.6819,655.715,119.0395,650.0695,114.93,659.02" style="stroke:#181818;stroke-width:1;"/></g><!--link ModificarAsignacion to SeleccionarAsignaturas--><g id="link_ModificarAsignacion_SeleccionarAsignaturas"><path d="M84.14,659.17 C79.47,613.13 74.59,511.09 111.2,436.8 C123.34,412.15 141.072,394.6653 160.662,379.6153 " fill="transparent" id="ModificarAsignacion-to-SeleccionarAsignaturas" style="stroke:#181818;stroke-width:1;"/><polygon fill="#181818" points="165.42,375.96,155.8461,378.271,161.455,379.0061,160.7199,384.615,165.42,375.96" style="stroke:#181818;stroke-width:1;"/></g><!--link GuardarAsignacion to Finalizado--><g id="link_GuardarAsignacion_Finalizado"><path d="M336.2,709.98 C336.2,727.98 336.2,746.31 336.2,764.29 " fill="transparent" id="GuardarAsignacion-to-Finalizado" style="stroke:#181818;stroke-width:1;"/><polygon fill="#181818" points="336.2,770.29,340.2,761.29,336.2,765.29,332.2,761.29,336.2,770.29" style="stroke:#181818;stroke-width:1;"/></g><!--link Finalizado to *end*--><g id="link_Finalizado_*end*"><path d="M336.2,821.23 C336.2,840.83 336.2,861.32 336.2,875.64 " fill="transparent" id="Finalizado-to-*end*" style="stroke:#181818;stroke-width:1;"/><polygon fill="#181818" points="336.2,881.64,340.2,872.64,336.2,876.64,332.2,872.64,336.2,881.64" style="stroke:#181818;stroke-width:1;"/></g><!--link GuardarAsignacion to SeleccionarProfesor--><g id="link_GuardarAsignacion_SeleccionarProfesor"><path d="M340.05,659.23 C343.22,637.13 347.2,603.56 347.2,574.2 C347.2,349.66 347.2,349.66 347.2,349.66 C347.2,316.13 327.3872,289.3081 306.8872,268.9481 " fill="transparent" id="GuardarAsignacion-to-SeleccionarProfesor" style="stroke:#181818;stroke-width:1;"/><polygon fill="#181818" points="302.63,264.72,306.197,273.9002,306.1776,268.2434,311.8344,268.224,302.63,264.72" style="stroke:#181818;stroke-width:1;"/><text fill="#000000" font-family="sans-serif" font-size="13" lengthAdjust="spacing" textLength="190.9121" x="348.2" y="466.4969">Volver a Seleccionar Profesor</text></g><!--SRC=[dPF1IiGm48RlFiMS5_O5SX14K3m8eh2NPGz3Erq6qaGctGNtjVOHV37Zr92sYHOiXNQ-pl__J9FiDmVORc_XoN73_WRYDRwQyOa2WG9_NXrGl2q43WFr2DewwLUNDxBKnCAXl8ZlA7ZHbWetKmYpxjyaouYxm4U7mqamB2MJJ_EWfUOFeSQzqfb3mjyjAYYeIGWIYtyi1nJzwdtlNSVI5-uLRZAi9rGqcl5uGccBX8AQXARkynLVpthsBNVS56aLRZAiprFHh2r_VJ9LFR13onTinnsUIpERj_7zkwK1MuGF43h6mIKMsJqBrNQ_EQmbLtV-pjip2U0_Zq0weCd6_f0l]--></g></svg>