<svg xmlns="http://www.w3.org/2000/svg" xmlns:xlink="http://www.w3.org/1999/xlink" contentStyleType="text/css" data-diagram-type="STATE" height="975px" preserveAspectRatio="none" style="width:992px;height:975px;background:#FFFFFF;" version="1.1" viewBox="0 0 992 975" width="992px" zoomAndPan="magnify"><defs/><g><ellipse cx="636.38" cy="16" fill="#222222" rx="10" ry="10" style="stroke:#222222;stroke-width:1;"/><g id="IniciarSesion"><rect fill="#F1F1F1" height="50.2656" rx="12.5" ry="12.5" style="stroke:#181818;stroke-width:0.5;" width="201.7051" x="535.52" y="87"/><line style="stroke:#181818;stroke-width:0.5;" x1="535.52" x2="737.2251" y1="113.2969" y2="113.2969"/><text fill="#000000" font-family="sans-serif" font-size="14" lengthAdjust="spacing" textLength="88.9355" x="591.9048" y="104.9951">IniciarSesion</text><text fill="#000000" font-family="sans-serif" font-size="12" lengthAdjust="spacing" textLength="181.7051" x="540.52" y="129.4355">Iniciar sesi&#243;n en la plataforma</text></g><g id="PantallaInicio"><rect fill="#F1F1F1" height="50.2656" rx="12.5" ry="12.5" style="stroke:#181818;stroke-width:0.5;" width="199.4668" x="536.64" y="214.27"/><line style="stroke:#181818;stroke-width:0.5;" x1="536.64" x2="736.1068" y1="240.5669" y2="240.5669"/><text fill="#000000" font-family="sans-serif" font-size="14" lengthAdjust="spacing" textLength="93.3652" x="589.6908" y="232.2651">PantallaInicio</text><text fill="#000000" font-family="sans-serif" font-size="12" lengthAdjust="spacing" textLength="179.4668" x="541.64" y="256.7055">Entrada a la pantalla de inicio</text></g><g id="SeleccionarOpcion"><rect fill="#F1F1F1" height="50.2656" rx="12.5" ry="12.5" style="stroke:#181818;stroke-width:0.5;" width="300.752" x="7" y="341.53"/><line style="stroke:#181818;stroke-width:0.5;" x1="7" x2="307.752" y1="367.8269" y2="367.8269"/><text fill="#000000" font-family="sans-serif" font-size="14" lengthAdjust="spacing" textLength="129.9922" x="92.3799" y="359.5251">SeleccionarOpcion</text><text fill="#000000" font-family="sans-serif" font-size="12" lengthAdjust="spacing" textLength="280.752" x="12" y="383.9655">Seleccionar opci&#243;n 'Datos Laborales' del men&#250;</text></g><g id="MostrarFormulario"><rect fill="#F1F1F1" height="50.2656" rx="12.5" ry="12.5" style="stroke:#181818;stroke-width:0.5;" width="246.3945" x="84.18" y="452.8"/><line style="stroke:#181818;stroke-width:0.5;" x1="84.18" x2="330.5745" y1="479.0969" y2="479.0969"/><text fill="#000000" font-family="sans-serif" font-size="14" lengthAdjust="spacing" textLength="129.083" x="142.8358" y="470.7951">MostrarFormulario</text><text fill="#000000" font-family="sans-serif" font-size="12" lengthAdjust="spacing" textLength="226.3945" x="89.18" y="495.2355">Mostrar formulario de datos laborales</text></g><g id="IngresarDatos"><rect fill="#F1F1F1" height="50.2656" rx="12.5" ry="12.5" style="stroke:#181818;stroke-width:0.5;" width="225.8867" x="123.43" y="566.63"/><line style="stroke:#181818;stroke-width:0.5;" x1="123.43" x2="349.3167" y1="592.9269" y2="592.9269"/><text fill="#000000" font-family="sans-serif" font-size="14" lengthAdjust="spacing" textLength="98.5947" x="187.076" y="584.6251">IngresarDatos</text><text fill="#000000" font-family="sans-serif" font-size="12" lengthAdjust="spacing" textLength="205.8867" x="128.43" y="609.0655">Ingresar/modificar datos laborales</text></g><g id="Validacion"><rect fill="#F1F1F1" height="50.2656" rx="12.5" ry="12.5" style="stroke:#181818;stroke-width:0.5;" width="127.5313" x="172.61" y="680.46"/><line style="stroke:#181818;stroke-width:0.5;" x1="172.61" x2="300.1413" y1="706.7569" y2="706.7569"/><text fill="#000000" font-family="sans-serif" font-size="14" lengthAdjust="spacing" textLength="72.4268" x="200.1622" y="698.4551">Validacion</text><text fill="#000000" font-family="sans-serif" font-size="12" lengthAdjust="spacing" textLength="107.5313" x="177.61" y="722.8955">&#191;Datos correctos?</text></g><g id="ModificarDatos"><rect fill="#F1F1F1" height="50.2656" rx="12.5" ry="12.5" style="stroke:#181818;stroke-width:0.5;" width="124.9795" x="131.89" y="807.73"/><line style="stroke:#181818;stroke-width:0.5;" x1="131.89" x2="256.8695" y1="834.0269" y2="834.0269"/><text fill="#000000" font-family="sans-serif" font-size="14" lengthAdjust="spacing" textLength="104.9795" x="141.89" y="825.7251">ModificarDatos</text><text fill="#000000" font-family="sans-serif" font-size="12" lengthAdjust="spacing" textLength="92.1738" x="136.89" y="850.1655">Modificar datos</text></g><g id="ConfirmarCambios"><rect fill="#F1F1F1" height="50.2656" rx="12.5" ry="12.5" style="stroke:#181818;stroke-width:0.5;" width="150.3887" x="292.18" y="807.73"/><line style="stroke:#181818;stroke-width:0.5;" x1="292.18" x2="442.5687" y1="834.0269" y2="834.0269"/><text fill="#000000" font-family="sans-serif" font-size="14" lengthAdjust="spacing" textLength="130.3887" x="302.18" y="825.7251">ConfirmarCambios</text><text fill="#000000" font-family="sans-serif" font-size="12" lengthAdjust="spacing" textLength="113.7949" x="297.18" y="850.1655">Confirmar cambios</text></g><g id="GuardarCambios"><rect fill="#F1F1F1" height="50.2656" rx="12.5" ry="12.5" style="stroke:#181818;stroke-width:0.5;" width="137.9063" x="426.42" y="918.99"/><line style="stroke:#181818;stroke-width:0.5;" x1="426.42" x2="564.3263" y1="945.2869" y2="945.2869"/><text fill="#000000" font-family="sans-serif" font-size="14" lengthAdjust="spacing" textLength="117.9063" x="436.42" y="936.9851">GuardarCambios</text><text fill="#000000" font-family="sans-serif" font-size="12" lengthAdjust="spacing" textLength="103.0957" x="431.42" y="961.4255">Guardar cambios</text></g><ellipse cx="644.38" cy="366.67" fill="transparent" rx="11" ry="11" style="stroke:#222222;stroke-width:1;"/><ellipse cx="644.38" cy="366.67" fill="#222222" rx="6" ry="6" style="stroke:#222222;stroke-width:1;"/><g id="elem_GMN2"><path d="M771.21,226.83 L771.21,235.4 L736.58,239.4 L771.21,243.4 L771.21,251.9628 A0,0 0 0 0 771.21,251.9628 L985.5342,251.9628 A0,0 0 0 0 985.5342,251.9628 L985.5342,236.83 L975.5342,226.83 L771.21,226.83 A0,0 0 0 0 771.21,226.83 " fill="#FEFFDD" style="stroke:#181818;stroke-width:0.5;"/><path d="M975.5342,226.83 L975.5342,236.83 L985.5342,236.83 L975.5342,226.83 " fill="#FEFFDD" style="stroke:#181818;stroke-width:0.5;"/><text fill="#000000" font-family="sans-serif" font-size="13" lengthAdjust="spacing" textLength="193.3242" x="777.21" y="243.8969">Pantalla principal tras el login</text></g><g id="elem_GMN5"><path d="M342.51,346.53 L342.51,362.67 L308.07,366.67 L342.51,370.67 L342.51,386.7956 A0,0 0 0 0 342.51,386.7956 L598.2463,386.7956 A0,0 0 0 0 598.2463,386.7956 L598.2463,356.53 L588.2463,346.53 L342.51,346.53 A0,0 0 0 0 342.51,346.53 " fill="#FEFFDD" style="stroke:#181818;stroke-width:0.5;"/><path d="M588.2463,346.53 L588.2463,356.53 L598.2463,356.53 L588.2463,346.53 " fill="#FEFFDD" style="stroke:#181818;stroke-width:0.5;"/><text fill="#000000" font-family="sans-serif" font-size="13" lengthAdjust="spacing" textLength="234.7363" x="348.51" y="363.5969">Acceso a la funcionalidad espec&#237;fica</text><text fill="#000000" font-family="sans-serif" font-size="13" lengthAdjust="spacing" textLength="198.6816" x="348.51" y="378.7297">para gestionar datos laborales</text></g><g id="elem_GMN8"><path d="M365.09,457.8 L365.09,473.93 L330.89,477.93 L365.09,481.93 L365.09,498.0656 A0,0 0 0 0 365.09,498.0656 L559.6667,498.0656 A0,0 0 0 0 559.6667,498.0656 L559.6667,467.8 L549.6667,457.8 L365.09,457.8 A0,0 0 0 0 365.09,457.8 " fill="#FEFFDD" style="stroke:#181818;stroke-width:0.5;"/><path d="M549.6667,457.8 L549.6667,467.8 L559.6667,467.8 L549.6667,457.8 " fill="#FEFFDD" style="stroke:#181818;stroke-width:0.5;"/><text fill="#000000" font-family="sans-serif" font-size="13" lengthAdjust="spacing" textLength="173.5767" x="371.09" y="474.8669">Formulario para ingresar o</text><text fill="#000000" font-family="sans-serif" font-size="13" lengthAdjust="spacing" textLength="164.9121" x="371.09" y="489.9997">modificar datos laborales</text></g><g id="elem_GMN11"><path d="M384.15,564.06 L384.15,587.76 L349.58,591.76 L384.15,595.76 L384.15,619.4584 A0,0 0 0 0 384.15,619.4584 L640.6036,619.4584 A0,0 0 0 0 640.6036,619.4584 L640.6036,574.06 L630.6036,564.06 L384.15,564.06 A0,0 0 0 0 384.15,564.06 " fill="#FEFFDD" style="stroke:#181818;stroke-width:0.5;"/><path d="M630.6036,564.06 L630.6036,574.06 L640.6036,574.06 L630.6036,564.06 " fill="#FEFFDD" style="stroke:#181818;stroke-width:0.5;"/><text fill="#000000" font-family="sans-serif" font-size="13" lengthAdjust="spacing" textLength="235.4536" x="390.15" y="581.1269">Campos incluyen contrato, horas de</text><text fill="#000000" font-family="sans-serif" font-size="13" lengthAdjust="spacing" textLength="222.8535" x="390.15" y="596.2597">trabajo, temporalidad, y categor&#237;a</text><text fill="#000000" font-family="sans-serif" font-size="13" lengthAdjust="spacing" textLength="72.2808" x="390.15" y="611.3925">profesional</text></g><g id="elem_GMN14"><path d="M599.81,923.99 L599.81,940.13 L564.7,944.13 L599.81,948.13 L599.81,964.2556 A0,0 0 0 0 599.81,964.2556 L798.9443,964.2556 A0,0 0 0 0 798.9443,964.2556 L798.9443,933.99 L788.9443,923.99 L599.81,923.99 A0,0 0 0 0 599.81,923.99 " fill="#FEFFDD" style="stroke:#181818;stroke-width:0.5;"/><path d="M788.9443,923.99 L788.9443,933.99 L798.9443,933.99 L788.9443,923.99 " fill="#FEFFDD" style="stroke:#181818;stroke-width:0.5;"/><text fill="#000000" font-family="sans-serif" font-size="13" lengthAdjust="spacing" textLength="178.1343" x="605.81" y="941.0569">Los cambios se guardan en</text><text fill="#000000" font-family="sans-serif" font-size="13" lengthAdjust="spacing" textLength="107.2563" x="605.81" y="956.1897">la base de datos</text></g><!--link *start* to IniciarSesion--><g id="link_*start*_IniciarSesion"><path d="M636.38,26.37 C636.38,40.32 636.38,61.03 636.38,80.75 " fill="transparent" id="*start*-to-IniciarSesion" style="stroke:#181818;stroke-width:1;"/><polygon fill="#181818" points="636.38,86.75,640.38,77.75,636.38,81.75,632.38,77.75,636.38,86.75" style="stroke:#181818;stroke-width:1;"/></g><!--link IniciarSesion to PantallaInicio--><g id="link_IniciarSesion_PantallaInicio"><path d="M636.38,137.58 C636.38,159.66 636.38,185.96 636.38,208.01 " fill="transparent" id="IniciarSesion-to-PantallaInicio" style="stroke:#181818;stroke-width:1;"/><polygon fill="#181818" points="636.38,214.01,640.38,205.01,636.38,209.01,632.38,205.01,636.38,214.01" style="stroke:#181818;stroke-width:1;"/><text fill="#000000" font-family="sans-serif" font-size="13" lengthAdjust="spacing" textLength="86.5122" x="637.38" y="180.3369">Login exitoso</text></g><!--link PantallaInicio to SeleccionarOpcion--><g id="link_PantallaInicio_SeleccionarOpcion"><path d="M542.31,265 C458.12,287.02 341.1548,317.602 257.0248,339.602 " fill="transparent" id="PantallaInicio-to-SeleccionarOpcion" style="stroke:#181818;stroke-width:1;"/><polygon fill="#181818" points="251.22,341.12,260.9392,342.7129,256.0573,339.855,258.9152,334.9732,251.22,341.12" style="stroke:#181818;stroke-width:1;"/></g><!--link SeleccionarOpcion to MostrarFormulario--><g id="link_SeleccionarOpcion_MostrarFormulario"><path d="M168.6,392.19 C176.83,410.18 185.4741,429.0637 193.6941,447.0337 " fill="transparent" id="SeleccionarOpcion-to-MostrarFormulario" style="stroke:#181818;stroke-width:1;"/><polygon fill="#181818" points="196.19,452.49,196.0837,442.6417,194.1101,447.9431,188.8087,445.9695,196.19,452.49" style="stroke:#181818;stroke-width:1;"/></g><!--link MostrarFormulario to IngresarDatos--><g id="link_MostrarFormulario_IngresarDatos"><path d="M213.74,503.47 C218.58,522.12 223.6942,541.842 228.5242,560.472 " fill="transparent" id="MostrarFormulario-to-IngresarDatos" style="stroke:#181818;stroke-width:1;"/><polygon fill="#181818" points="230.03,566.28,231.6433,556.5642,228.7752,561.44,223.8994,558.5719,230.03,566.28" style="stroke:#181818;stroke-width:1;"/></g><!--link IngresarDatos to Validacion--><g id="link_IngresarDatos_Validacion"><path d="M236.38,617.31 C236.38,635.95 236.38,655.48 236.38,674.11 " fill="transparent" id="IngresarDatos-to-Validacion" style="stroke:#181818;stroke-width:1;"/><polygon fill="#181818" points="236.38,680.11,240.38,671.11,236.38,675.11,232.38,671.11,236.38,680.11" style="stroke:#181818;stroke-width:1;"/></g><!--link Validacion to ModificarDatos--><g id="link_Validacion_ModificarDatos"><path d="M209.81,731.21 C202.38,739.76 195.28,749.92 191.38,760.73 C186,775.61 185.8678,787.4552 187.9578,801.5152 " fill="transparent" id="Validacion-to-ModificarDatos" style="stroke:#181818;stroke-width:1;"/><polygon fill="#181818" points="188.84,807.45,191.4732,797.9597,188.1048,802.5043,183.5602,799.1359,188.84,807.45" style="stroke:#181818;stroke-width:1;"/><text fill="#000000" font-family="sans-serif" font-size="13" lengthAdjust="spacing" textLength="17.6782" x="192.38" y="773.7969">No</text></g><!--link ModificarDatos to Validacion--><g id="link_ModificarDatos_Validacion"><path d="M203.72,807.44 C207.18,798.17 211.06,787.5 214.38,777.73 C219.61,762.3 223.2925,750.5759 227.4325,736.8059 " fill="transparent" id="ModificarDatos-to-Validacion" style="stroke:#181818;stroke-width:1;"/><polygon fill="#181818" points="229.16,731.06,222.7381,738.5272,227.7204,735.8483,230.3993,740.8306,229.16,731.06" style="stroke:#181818;stroke-width:1;"/></g><!--link Validacion to ConfirmarCambios--><g id="link_Validacion_ConfirmarCambios"><path d="M261.95,731.05 C285.03,753.12 314.4735,781.2734 337.5335,803.3234 " fill="transparent" id="Validacion-to-ConfirmarCambios" style="stroke:#181818;stroke-width:1;"/><polygon fill="#181818" points="341.87,807.47,338.1296,798.3591,338.2562,804.0145,332.6008,804.1411,341.87,807.47" style="stroke:#181818;stroke-width:1;"/><text fill="#000000" font-family="sans-serif" font-size="13" lengthAdjust="spacing" textLength="11.8638" x="311.38" y="773.7969">S&#237;</text></g><!--link ConfirmarCambios to GuardarCambios--><g id="link_ConfirmarCambios_GuardarCambios"><path d="M396.1,858.38 C417.18,876.38 441.1268,896.8142 462.1868,914.7942 " fill="transparent" id="ConfirmarCambios-to-GuardarCambios" style="stroke:#181818;stroke-width:1;"/><polygon fill="#181818" points="466.75,918.69,462.5024,909.8042,462.9474,915.4435,457.308,915.8884,466.75,918.69" style="stroke:#181818;stroke-width:1;"/></g><!--link GuardarCambios to PantallaInicio--><g id="link_GuardarCambios_PantallaInicio"><path d="M564.68,923.05 C629.17,902.24 715.38,868.03 715.38,833.86 C715.38,365.67 715.38,365.67 715.38,365.67 C715.38,332.57 710.83,322.65 693.38,294.53 C686.61,283.63 681.5472,277.5006 672.2572,268.9606 " fill="transparent" id="GuardarCambios-to-PantallaInicio" style="stroke:#181818;stroke-width:1;"/><polygon fill="#181818" points="667.84,264.9,671.7587,273.9357,671.521,268.2838,677.1729,268.0461,667.84,264.9" style="stroke:#181818;stroke-width:1;"/><text fill="#000000" font-family="sans-serif" font-size="13" lengthAdjust="spacing" textLength="91.9014" x="716.38" y="596.3269">Volver a inicio</text></g><!--link GuardarCambios to IngresarDatos--><g id="link_GuardarCambios_IngresarDatos"><path d="M493.12,918.61 C489.61,890.24 480.98,842.93 460.38,807.73 C411.78,724.69 326.9231,656.4404 277.0431,620.6104 " fill="transparent" id="GuardarCambios-to-IngresarDatos" style="stroke:#181818;stroke-width:1;"/><polygon fill="#181818" points="272.17,617.11,277.146,625.6094,276.2309,620.027,281.8132,619.112,272.17,617.11" style="stroke:#181818;stroke-width:1;"/><text fill="#000000" font-family="sans-serif" font-size="13" lengthAdjust="spacing" textLength="148.1289" x="441.38" y="773.7969">Continuar modificando</text></g><!--link PantallaInicio to *end*--><g id="link_PantallaInicio_*end*"><path d="M633.64,264.81 C632.52,278.56 631.82,296.04 633.38,311.53 C634.95,327.18 637.5521,339.1823 640.2721,349.9623 " fill="transparent" id="PantallaInicio-to-*end*" style="stroke:#181818;stroke-width:1;"/><polygon fill="#181818" points="641.74,355.78,643.4166,346.0749,640.5167,350.9319,635.6597,348.0321,641.74,355.78" style="stroke:#181818;stroke-width:1;"/><text fill="#000000" font-family="sans-serif" font-size="13" lengthAdjust="spacing" textLength="54.6533" x="634.38" y="307.5969">Finalizar</text></g><!--SRC=[VLGxRzmm3DxxAxW5219qzz2YI1yeS6aB790bbu4douuAdMX8kgBfVxgfMvS2zHyhnVDBjd6Up8_anwVuUFq4jxTluBCpog3Vwc38lGB-CgJeHGWijxyTQ0SMeR4OiI9_GF5PEWhvDtGHhKNHK04RgWqp_3IH0edFtEA3YnvB19GWdH9A3KOCnCTHrE1D_Ho1gWL3BqFZZLEcGGjC6K1Ri2dyc6_kAGbljTMA1OV-QwFwZYpGOWe1CPOwS_KUkIxOu9uyMXskE6yB1-tQFojvhv2-Kqe7EjTU7PqehIcn11qQhTfJPHJkN8CUeTOXdiEN4jNsKSVw5X6an7iAt0__aMTtjEYxdYxGeeUW6h0qXxLeUM4hLEC_IFB6rLw7rBgTEr1fKbqN2bamTfjx9f6kTmiuGOf1V7qvH9xzZECE3mrxy2RPumkllgAqe95ku9dILfLwbu0zVcSeQZRsvv7Tm0ieZBectvxIq3nLyZ3GJb_C99WKzI3Um-QDOW7__fxD57cl5V-z7Ob6ksx6NS5T5L_w8UVmVTwN5PkrdDO2tf6h31y3p_tQcyIzRKzYkDGC2FT7e95rRYpSduxeom4IknmgUZaZpCSwzzYaHdP1WePQrEcuxHm_lZqorY_xc5vEidhX7iZ-q1vmUgzMtEPRnbjb79j1lwgkf8k7wl7wYP-LIVVX5_h_]--></g></svg>