<svg xmlns="http://www.w3.org/2000/svg" xmlns:xlink="http://www.w3.org/1999/xlink" contentStyleType="text/css" data-diagram-type="STATE" height="762px" preserveAspectRatio="none" style="width:1395px;height:762px;background:#FFFFFF;" version="1.1" viewBox="0 0 1395 762" width="1395px" zoomAndPan="magnify"><defs/><g><ellipse cx="1260.68" cy="604.46" fill="#222222" rx="10" ry="10" style="stroke:#222222;stroke-width:1;"/><g id="InicioSesion"><rect fill="#F1F1F1" height="50.2656" rx="12.5" ry="12.5" style="stroke:#181818;stroke-width:0.5;" width="382.4668" x="1006.44" y="706.59"/><line style="stroke:#181818;stroke-width:0.5;" x1="1006.44" x2="1388.9068" y1="732.8869" y2="732.8869"/><text fill="#000000" font-family="sans-serif" font-size="14" lengthAdjust="spacing" textLength="83.166" x="1156.0904" y="724.5851">InicioSesion</text><text fill="#000000" font-family="sans-serif" font-size="12" lengthAdjust="spacing" textLength="362.4668" x="1011.44" y="749.0255">Administrador/T&#233;cnico de calidad inicia sesi&#243;n en el sistema</text></g><g id="SeleccionarDatos"><rect fill="#F1F1F1" height="50.2656" rx="12.5" ry="12.5" style="stroke:#181818;stroke-width:0.5;" width="298.0684" x="713.64" y="7"/><line style="stroke:#181818;stroke-width:0.5;" x1="713.64" x2="1011.7084" y1="33.2969" y2="33.2969"/><text fill="#000000" font-family="sans-serif" font-size="14" lengthAdjust="spacing" textLength="121.7686" x="801.7899" y="24.9951">SeleccionarDatos</text><text fill="#000000" font-family="sans-serif" font-size="12" lengthAdjust="spacing" textLength="278.0684" x="718.64" y="49.4355">Seleccionar datos relevantes para indicadores</text></g><g id="ProcesarDatos"><rect fill="#F1F1F1" height="50.2656" rx="12.5" ry="12.5" style="stroke:#181818;stroke-width:0.5;" width="171.4121" x="237.97" y="118.27"/><line style="stroke:#181818;stroke-width:0.5;" x1="237.97" x2="409.3821" y1="144.5669" y2="144.5669"/><text fill="#000000" font-family="sans-serif" font-size="14" lengthAdjust="spacing" textLength="101.4111" x="272.9705" y="136.2651">ProcesarDatos</text><text fill="#000000" font-family="sans-serif" font-size="12" lengthAdjust="spacing" textLength="151.4121" x="242.97" y="160.7055">Procesar y analizar datos</text></g><g id="GenerarIndicadores"><rect fill="#F1F1F1" height="50.2656" rx="12.5" ry="12.5" style="stroke:#181818;stroke-width:0.5;" width="217.4668" x="518.94" y="229.53"/><line style="stroke:#181818;stroke-width:0.5;" x1="518.94" x2="736.4068" y1="255.8269" y2="255.8269"/><text fill="#000000" font-family="sans-serif" font-size="14" lengthAdjust="spacing" textLength="138.209" x="558.5689" y="247.5251">GenerarIndicadores</text><text fill="#000000" font-family="sans-serif" font-size="12" lengthAdjust="spacing" textLength="197.4668" x="523.94" y="271.9655">Generar informes de indicadores</text></g><g id="ValidarIndicadores"><rect fill="#F1F1F1" height="50.2656" rx="12.5" ry="12.5" style="stroke:#181818;stroke-width:0.5;" width="326.7031" x="223.32" y="356.8"/><line style="stroke:#181818;stroke-width:0.5;" x1="223.32" x2="550.0231" y1="383.0969" y2="383.0969"/><text fill="#000000" font-family="sans-serif" font-size="14" lengthAdjust="spacing" textLength="130.3271" x="321.508" y="374.7951">ValidarIndicadores</text><text fill="#000000" font-family="sans-serif" font-size="12" lengthAdjust="spacing" textLength="306.7031" x="228.32" y="399.2355">Validar la exactitud y relevancia de los indicadores</text></g><g id="ModificarIndicadores"><rect fill="#F1F1F1" height="50.2656" rx="12.5" ry="12.5" style="stroke:#181818;stroke-width:0.5;" width="275.3516" x="7" y="468.06"/><line style="stroke:#181818;stroke-width:0.5;" x1="7" x2="282.3516" y1="494.3569" y2="494.3569"/><text fill="#000000" font-family="sans-serif" font-size="14" lengthAdjust="spacing" textLength="145.4414" x="71.9551" y="486.0551">ModificarIndicadores</text><text fill="#000000" font-family="sans-serif" font-size="12" lengthAdjust="spacing" textLength="255.3516" x="12" y="510.4955">Modificar indicadores seg&#250;n sea necesario</text></g><g id="InformesFinalizados"><rect fill="#F1F1F1" height="50.2656" rx="12.5" ry="12.5" style="stroke:#181818;stroke-width:0.5;" width="304.8652" x="352.24" y="468.06"/><line style="stroke:#181818;stroke-width:0.5;" x1="352.24" x2="657.1052" y1="494.3569" y2="494.3569"/><text fill="#000000" font-family="sans-serif" font-size="14" lengthAdjust="spacing" textLength="139.6445" x="434.8504" y="486.0551">InformesFinalizados</text><text fill="#000000" font-family="sans-serif" font-size="12" lengthAdjust="spacing" textLength="284.8652" x="357.24" y="510.4955">Informes de indicadores finalizados y validados</text></g><g id="GuardarIndicadores"><rect fill="#F1F1F1" height="50.2656" rx="12.5" ry="12.5" style="stroke:#181818;stroke-width:0.5;" width="287.5156" x="676.92" y="579.33"/><line style="stroke:#181818;stroke-width:0.5;" x1="676.92" x2="964.4356" y1="605.6269" y2="605.6269"/><text fill="#000000" font-family="sans-serif" font-size="14" lengthAdjust="spacing" textLength="138.4482" x="751.4537" y="597.3251">GuardarIndicadores</text><text fill="#000000" font-family="sans-serif" font-size="12" lengthAdjust="spacing" textLength="267.5156" x="681.92" y="621.7655">Guardar indicadores validados en el sistema</text></g><ellipse cx="820.68" cy="731.73" fill="transparent" rx="11" ry="11" style="stroke:#222222;stroke-width:1;"/><ellipse cx="820.68" cy="731.73" fill="#222222" rx="6" ry="6" style="stroke:#222222;stroke-width:1;"/><g id="elem_GMN2"><path d="M1047.1,12 L1047.1,28.13 L1012.04,32.13 L1047.1,36.13 L1047.1,52.2656 A0,0 0 0 0 1047.1,52.2656 L1310.2567,52.2656 A0,0 0 0 0 1310.2567,52.2656 L1310.2567,22 L1300.2567,12 L1047.1,12 A0,0 0 0 0 1047.1,12 " fill="#FEFFDD" style="stroke:#181818;stroke-width:0.5;"/><path d="M1300.2567,12 L1300.2567,22 L1310.2567,22 L1300.2567,12 " fill="#FEFFDD" style="stroke:#181818;stroke-width:0.5;"/><text fill="#000000" font-family="sans-serif" font-size="13" lengthAdjust="spacing" textLength="189.9028" x="1053.1" y="29.0669">Seleccion conjuntos de datos</text><text fill="#000000" font-family="sans-serif" font-size="13" lengthAdjust="spacing" textLength="242.1567" x="1053.1" y="44.1997">necesarios para generar indicadores.</text></g><g id="elem_GMN5"><path d="M444.76,130.83 L444.76,139.4 L409.81,143.4 L444.76,147.4 L444.76,155.9628 A0,0 0 0 0 444.76,155.9628 L792.6008,155.9628 A0,0 0 0 0 792.6008,155.9628 L792.6008,140.83 L782.6008,130.83 L444.76,130.83 A0,0 0 0 0 444.76,130.83 " fill="#FEFFDD" style="stroke:#181818;stroke-width:0.5;"/><path d="M782.6008,130.83 L782.6008,140.83 L792.6008,140.83 L782.6008,130.83 " fill="#FEFFDD" style="stroke:#181818;stroke-width:0.5;"/><text fill="#000000" font-family="sans-serif" font-size="13" lengthAdjust="spacing" textLength="326.8408" x="450.76" y="147.8969">Analisis datos para transformarlos en indicadores.</text></g><g id="elem_GMN8"><path d="M770.92,234.53 L770.92,250.66 L736.6,254.66 L770.92,258.66 L770.92,274.7956 A0,0 0 0 0 770.92,274.7956 L1144.4371,274.7956 A0,0 0 0 0 1144.4371,274.7956 L1144.4371,244.53 L1134.4371,234.53 L770.92,234.53 A0,0 0 0 0 770.92,234.53 " fill="#FEFFDD" style="stroke:#181818;stroke-width:0.5;"/><path d="M1134.4371,234.53 L1134.4371,244.53 L1144.4371,244.53 L1134.4371,234.53 " fill="#FEFFDD" style="stroke:#181818;stroke-width:0.5;"/><text fill="#000000" font-family="sans-serif" font-size="13" lengthAdjust="spacing" textLength="212.9448" x="776.92" y="251.5969">Utilizar herramientas espec&#237;ficas</text><text fill="#000000" font-family="sans-serif" font-size="13" lengthAdjust="spacing" textLength="352.5171" x="776.92" y="266.7297">para crear informes basados en los datos procesados.</text></g><g id="elem_GMN11"><path d="M584.73,361.8 L584.73,377.93 L550.35,381.93 L584.73,385.93 L584.73,402.0656 A0,0 0 0 0 584.73,402.0656 L912.6265,402.0656 A0,0 0 0 0 912.6265,402.0656 L912.6265,371.8 L902.6265,361.8 L584.73,361.8 A0,0 0 0 0 584.73,361.8 " fill="#FEFFDD" style="stroke:#181818;stroke-width:0.5;"/><path d="M902.6265,361.8 L902.6265,371.8 L912.6265,371.8 L902.6265,361.8 " fill="#FEFFDD" style="stroke:#181818;stroke-width:0.5;"/><text fill="#000000" font-family="sans-serif" font-size="13" lengthAdjust="spacing" textLength="210.5771" x="590.73" y="378.8669">Revisar y validar los indicadores</text><text fill="#000000" font-family="sans-serif" font-size="13" lengthAdjust="spacing" textLength="306.8965" x="590.73" y="393.9997">para asegurar que son correctos y pertinentes.</text></g><!--link *start* to InicioSesion--><g id="link_*start*_InicioSesion"><path d="M1256.54,613.68 C1247.23,632.19 1227.0261,672.3698 1212.6861,700.8798 " fill="transparent" id="*start*-to-InicioSesion" style="stroke:#181818;stroke-width:1;"/><polygon fill="#181818" points="1209.99,706.24,1217.6075,699.9971,1212.2367,701.7732,1210.4607,696.4024,1209.99,706.24" style="stroke:#181818;stroke-width:1;"/></g><!--link InicioSesion to SeleccionarDatos--><g id="link_InicioSesion_SeleccionarDatos"><path d="M1197.68,706.24 C1197.68,680.99 1197.68,640.48 1197.68,605.46 C1197.68,142.4 1197.68,142.4 1197.68,142.4 C1197.68,100.42 1107.2707,73.1802 1017.9407,55.8902 " fill="transparent" id="InicioSesion-to-SeleccionarDatos" style="stroke:#181818;stroke-width:1;"/><polygon fill="#181818" points="1012.05,54.75,1020.1259,60.3873,1016.9589,55.7001,1021.6461,52.5331,1012.05,54.75" style="stroke:#181818;stroke-width:1;"/></g><!--link SeleccionarDatos to ProcesarDatos--><g id="link_SeleccionarDatos_ProcesarDatos"><path d="M730.61,57.74 C644.25,74.14 529.08,96.59 427.68,118.27 C421.78,119.53 421.5667,119.5464 415.4567,120.9064 " fill="transparent" id="SeleccionarDatos-to-ProcesarDatos" style="stroke:#181818;stroke-width:1;"/><polygon fill="#181818" points="409.6,122.21,419.2541,124.159,414.4806,121.1237,417.5159,116.3501,409.6,122.21" style="stroke:#181818;stroke-width:1;"/></g><!--link ProcesarDatos to GenerarIndicadores--><g id="link_ProcesarDatos_GenerarIndicadores"><path d="M391.9,168.92 C441.79,186.85 503.5438,209.0502 553.5038,227.0102 " fill="transparent" id="ProcesarDatos-to-GenerarIndicadores" style="stroke:#181818;stroke-width:1;"/><polygon fill="#181818" points="559.15,229.04,552.0338,222.2312,554.4448,227.3485,549.3275,229.7595,559.15,229.04" style="stroke:#181818;stroke-width:1;"/></g><!--link GenerarIndicadores to ValidarIndicadores--><g id="link_GenerarIndicadores_ValidarIndicadores"><path d="M580.35,280.26 C537.99,302.28 481.5439,331.623 439.2139,353.623 " fill="transparent" id="GenerarIndicadores-to-ValidarIndicadores" style="stroke:#181818;stroke-width:1;"/><polygon fill="#181818" points="433.89,356.39,443.7205,355.7888,438.3266,354.0842,440.0312,348.6903,433.89,356.39" style="stroke:#181818;stroke-width:1;"/></g><!--link ValidarIndicadores to ModificarIndicadores--><g id="link_ValidarIndicadores_ModificarIndicadores"><path d="M332.37,407.45 C292.65,425.38 244.4583,447.1406 204.6883,465.1006 " fill="transparent" id="ValidarIndicadores-to-ModificarIndicadores" style="stroke:#181818;stroke-width:1;"/><polygon fill="#181818" points="199.22,467.57,209.0687,467.5113,203.7769,465.5121,205.7761,460.2203,199.22,467.57" style="stroke:#181818;stroke-width:1;"/></g><!--link ModificarIndicadores to ProcesarDatos--><g id="link_ModificarIndicadores_ProcesarDatos"><path d="M132.86,467.85 C117.04,431.58 93.7,362.03 118.68,309.8 C150.23,243.79 217.1386,198.5273 266.8486,171.7273 " fill="transparent" id="ModificarIndicadores-to-ProcesarDatos" style="stroke:#181818;stroke-width:1;"/><polygon fill="#181818" points="272.13,168.88,262.3097,169.6301,267.7289,171.2528,266.1062,176.6719,272.13,168.88" style="stroke:#181818;stroke-width:1;"/><text fill="#000000" font-family="sans-serif" font-size="13" lengthAdjust="spacing" textLength="224.0405" x="119.68" y="322.8669">Re-procesar los datos modificados</text></g><!--link ValidarIndicadores to InformesFinalizados--><g id="link_ValidarIndicadores_InformesFinalizados"><path d="M413.16,407.45 C432.59,425.45 454.4683,445.7026 473.8783,463.6826 " fill="transparent" id="ValidarIndicadores-to-InformesFinalizados" style="stroke:#181818;stroke-width:1;"/><polygon fill="#181818" points="478.28,467.76,474.3957,458.7094,474.6119,464.3622,468.9592,464.5784,478.28,467.76" style="stroke:#181818;stroke-width:1;"/></g><!--link InformesFinalizados to GuardarIndicadores--><g id="link_InformesFinalizados_GuardarIndicadores"><path d="M575.59,518.72 C627.45,536.65 691.8492,558.9198 743.7792,576.8698 " fill="transparent" id="InformesFinalizados-to-GuardarIndicadores" style="stroke:#181818;stroke-width:1;"/><polygon fill="#181818" points="749.45,578.83,742.2506,572.1093,744.7243,577.1965,739.6371,579.6703,749.45,578.83" style="stroke:#181818;stroke-width:1;"/></g><!--link ValidarIndicadores to ProcesarDatos--><g id="link_ValidarIndicadores_ProcesarDatos"><path d="M373.33,356.33 C363.06,336.29 349.36,306.98 341.68,279.8 C330.97,241.92 326.9641,202.2177 325.2041,174.7777 " fill="transparent" id="ValidarIndicadores-to-ProcesarDatos" style="stroke:#181818;stroke-width:1;"/><polygon fill="#181818" points="324.82,168.79,321.4043,178.0276,325.14,173.7797,329.3879,177.5155,324.82,168.79" style="stroke:#181818;stroke-width:1;"/><text fill="#000000" font-family="sans-serif" font-size="13" lengthAdjust="spacing" textLength="158.5391" x="342.68" y="259.2269">Correcciones necesarias</text></g><!--link GenerarIndicadores to SeleccionarDatos--><g id="link_GenerarIndicadores_SeleccionarDatos"><path d="M713.06,229.13 C746.81,215.82 783.67,196.27 809.68,168.53 C839.2,137.04 851.7655,93.0959 857.6255,63.4759 " fill="transparent" id="GenerarIndicadores-to-SeleccionarDatos" style="stroke:#181818;stroke-width:1;"/><polygon fill="#181818" points="858.79,57.59,853.1194,65.6426,857.8196,62.4949,860.9672,67.1952,858.79,57.59" style="stroke:#181818;stroke-width:1;"/><text fill="#000000" font-family="sans-serif" font-size="13" lengthAdjust="spacing" textLength="166.4736" x="841.68" y="147.9669">Seleccionar nuevos datos</text></g><!--link GuardarIndicadores to InicioSesion--><g id="link_GuardarIndicadores_InicioSesion"><path d="M894.71,630.06 C960.97,652.08 1051.9061,682.2881 1118.1161,704.2881 " fill="transparent" id="GuardarIndicadores-to-InicioSesion" style="stroke:#181818;stroke-width:1;"/><polygon fill="#181818" points="1123.81,706.18,1116.5304,699.5461,1119.0651,704.6034,1114.0078,707.138,1123.81,706.18" style="stroke:#181818;stroke-width:1;"/><text fill="#000000" font-family="sans-serif" font-size="13" lengthAdjust="spacing" textLength="95.7354" x="1032.68" y="672.6569">Volver al Inicio</text></g><!--link GuardarIndicadores to *end*--><g id="link_GuardarIndicadores_*end*"><path d="M820.68,629.91 C820.68,657.39 820.68,694.74 820.68,714.41 " fill="transparent" id="GuardarIndicadores-to-*end*" style="stroke:#181818;stroke-width:1;"/><polygon fill="#181818" points="820.68,720.41,824.68,711.41,820.68,715.41,816.68,711.41,820.68,720.41" style="stroke:#181818;stroke-width:1;"/></g><!--SRC=[XLMnZjim3Dtz5PmFIBjtA71eqKE60iLTs-Lm0oinEHMsb4goqUiVTUZKhMj-hAHi9qea9q608CyK7zyZAJ_UFC5gzHRMrYZZ7YWOPnlWJmx06xZLdR4cH8_Q-TUVzxyLFtUW2HIsHgC68mSG0f_O_xL0_6qXy17gi2bJ2ka3jQGOikZVOtGXHPs3J9v1e1Fc6HdGHWgmGuzChesIqYYCNDP50c-spn7SfawKKO5ozdjl9JChqbc89KK1lN4JqPOiUIuZ8toLGidgHDhKHOZSJzwbPCSIJX0MEl-75q3BllwQ1TT4bUa0RkKKcpxPb4hcdjcmSRv3tpB6ZRbI_6bLKldTg7gTkIo19SmQxWuE2ISbHw-qPo4zm9TeHXEUoNli3Dc8h23iIEt_R3Xu3an2bQUSzni6JfO4Y-x9aL4RupNb5K4Y_siQyQA-4cRv4mWj0lr45KtiDRTp6bZP4FP3whdYoG8dm3qDPXoHOQOwovPPWe6slNJZHqyGqg1xJqgSU84T-MWioHPLp5YIA8PyTDg8_KLvjGTioW7Ew-IhOhl_P_a7ZsksdANO8CvxJwlTl3B77dVJSJtlpOAAzJGf7youQtfQemhENElwFCCcYvfxSc2kfKeBrQElTBU4PQ56y8JqG5FUivSKd_ltBas3t5CSCFS0mwLTk78zsvw6kH5BaixVDx8rhXt80xRJWmQQIwSVRvx-0m00]--></g></svg>