<svg xmlns="http://www.w3.org/2000/svg" xmlns:xlink="http://www.w3.org/1999/xlink" contentStyleType="text/css" data-diagram-type="STATE" height="946px" preserveAspectRatio="none" style="width:964px;height:946px;background:#FFFFFF;" version="1.1" viewBox="0 0 964 946" width="964px" zoomAndPan="magnify"><defs/><g><ellipse cx="508.4" cy="16" fill="#222222" rx="10" ry="10" style="stroke:#222222;stroke-width:1;"/><g id="InicioSesion"><rect fill="#F1F1F1" height="50.2656" rx="12.5" ry="12.5" style="stroke:#181818;stroke-width:0.5;" width="305.1641" x="355.82" y="87"/><line style="stroke:#181818;stroke-width:0.5;" x1="355.82" x2="660.9841" y1="113.2969" y2="113.2969"/><text fill="#000000" font-family="sans-serif" font-size="14" lengthAdjust="spacing" textLength="83.166" x="466.819" y="104.9951">InicioSesion</text><text fill="#000000" font-family="sans-serif" font-size="12" lengthAdjust="spacing" textLength="285.1641" x="360.82" y="129.4355">RRHH/Administrador inicia sesi&#243;n en el sistema</text></g><g id="BuscarProfesor"><rect fill="#F1F1F1" height="50.2656" rx="12.5" ry="12.5" style="stroke:#181818;stroke-width:0.5;" width="283.6016" x="366.6" y="198.27"/><line style="stroke:#181818;stroke-width:0.5;" x1="366.6" x2="650.2016" y1="224.5669" y2="224.5669"/><text fill="#000000" font-family="sans-serif" font-size="14" lengthAdjust="spacing" textLength="105.7246" x="455.5385" y="216.2651">BuscarProfesor</text><text fill="#000000" font-family="sans-serif" font-size="12" lengthAdjust="spacing" textLength="263.6016" x="371.6" y="240.7055">Buscar y seleccionar el profesor a modificar</text></g><g id="ModificarDatos"><rect fill="#F1F1F1" height="50.2656" rx="12.5" ry="12.5" style="stroke:#181818;stroke-width:0.5;" width="292.4316" x="110.18" y="319.67"/><line style="stroke:#181818;stroke-width:0.5;" x1="110.18" x2="402.6116" y1="345.9669" y2="345.9669"/><text fill="#000000" font-family="sans-serif" font-size="14" lengthAdjust="spacing" textLength="104.9795" x="203.9061" y="337.6651">ModificarDatos</text><text fill="#000000" font-family="sans-serif" font-size="12" lengthAdjust="spacing" textLength="272.4316" x="115.18" y="362.1055">Modificar datos del profesorado seleccionado</text></g><g id="ValidacionDatos"><rect fill="#F1F1F1" height="50.2656" rx="12.5" ry="12.5" style="stroke:#181818;stroke-width:0.5;" width="254.7969" x="7" y="457.07"/><line style="stroke:#181818;stroke-width:0.5;" x1="7" x2="261.7969" y1="483.3669" y2="483.3669"/><text fill="#000000" font-family="sans-serif" font-size="14" lengthAdjust="spacing" textLength="113.1348" x="77.8311" y="475.0651">ValidacionDatos</text><text fill="#000000" font-family="sans-serif" font-size="12" lengthAdjust="spacing" textLength="234.7969" x="12" y="499.5055">Revisar y validar los datos modificados</text></g><g id="DatosCorrectos"><rect fill="#F1F1F1" height="50.2656" rx="12.5" ry="12.5" style="stroke:#181818;stroke-width:0.5;" width="191.7852" x="267.51" y="584.33"/><line style="stroke:#181818;stroke-width:0.5;" x1="267.51" x2="459.2952" y1="610.6269" y2="610.6269"/><text fill="#000000" font-family="sans-serif" font-size="14" lengthAdjust="spacing" textLength="108.2197" x="309.2927" y="602.3251">DatosCorrectos</text><text fill="#000000" font-family="sans-serif" font-size="12" lengthAdjust="spacing" textLength="171.7852" x="272.51" y="626.7655">Datos completos y correctos</text></g><g id="GuardarDatos"><rect fill="#F1F1F1" height="50.2656" rx="12.5" ry="12.5" style="stroke:#181818;stroke-width:0.5;" width="227.9551" x="474.42" y="695.6"/><line style="stroke:#181818;stroke-width:0.5;" x1="474.42" x2="702.3751" y1="721.8969" y2="721.8969"/><text fill="#000000" font-family="sans-serif" font-size="14" lengthAdjust="spacing" textLength="97.9863" x="539.4044" y="713.5951">GuardarDatos</text><text fill="#000000" font-family="sans-serif" font-size="12" lengthAdjust="spacing" textLength="207.9551" x="479.42" y="738.0355">Guardar los cambios en el sistema</text></g><g id="Finalizado"><rect fill="#F1F1F1" height="50.2656" rx="12.5" ry="12.5" style="stroke:#181818;stroke-width:0.5;" width="289.3789" x="529.71" y="806.86"/><line style="stroke:#181818;stroke-width:0.5;" x1="529.71" x2="819.0889" y1="833.1569" y2="833.1569"/><text fill="#000000" font-family="sans-serif" font-size="14" lengthAdjust="spacing" textLength="70.5537" x="639.1226" y="824.8551">Finalizado</text><text fill="#000000" font-family="sans-serif" font-size="12" lengthAdjust="spacing" textLength="269.3789" x="534.71" y="849.2955">Modificaci&#243;n completada y datos registrados</text></g><ellipse cx="674.4" cy="929.13" fill="transparent" rx="11" ry="11" style="stroke:#222222;stroke-width:1;"/><ellipse cx="674.4" cy="929.13" fill="#222222" rx="6" ry="6" style="stroke:#222222;stroke-width:1;"/><g id="elem_GMN2"><path d="M685.62,203.27 L685.62,219.4 L650.53,223.4 L685.62,227.4 L685.62,243.5356 A0,0 0 0 0 685.62,243.5356 L957.1683,243.5356 A0,0 0 0 0 957.1683,243.5356 L957.1683,213.27 L947.1683,203.27 L685.62,203.27 A0,0 0 0 0 685.62,203.27 " fill="#FEFFDD" style="stroke:#181818;stroke-width:0.5;"/><path d="M947.1683,203.27 L947.1683,213.27 L957.1683,213.27 L947.1683,203.27 " fill="#FEFFDD" style="stroke:#181818;stroke-width:0.5;"/><text fill="#000000" font-family="sans-serif" font-size="13" lengthAdjust="spacing" textLength="250.5483" x="691.62" y="220.3369">RRHH/Administrador busca al profesor</text><text fill="#000000" font-family="sans-serif" font-size="13" lengthAdjust="spacing" textLength="184.5454" x="691.62" y="235.4697">usando criterios espec&#237;ficos.</text></g><g id="elem_GMN5"><path d="M437.73,309.54 L437.73,340.8 L402.95,344.8 L437.73,348.8 L437.73,380.0712 A0,0 0 0 0 437.73,380.0712 L699.065,380.0712 A0,0 0 0 0 699.065,380.0712 L699.065,319.54 L689.065,309.54 L437.73,309.54 A0,0 0 0 0 437.73,309.54 " fill="#FEFFDD" style="stroke:#181818;stroke-width:0.5;"/><path d="M689.065,309.54 L689.065,319.54 L699.065,319.54 L689.065,309.54 " fill="#FEFFDD" style="stroke:#181818;stroke-width:0.5;"/><text fill="#000000" font-family="sans-serif" font-size="13" lengthAdjust="spacing" textLength="240.335" x="443.73" y="326.6069">RRHH/Administrador puede cambiar:</text><text fill="#000000" font-family="sans-serif" font-size="13" lengthAdjust="spacing" textLength="146.6245" x="443.73" y="341.7397">- Informaci&#243;n personal</text><text fill="#000000" font-family="sans-serif" font-size="13" lengthAdjust="spacing" textLength="174.4653" x="443.73" y="356.8725">- Credenciales acad&#233;micas</text><text fill="#000000" font-family="sans-serif" font-size="13" lengthAdjust="spacing" textLength="141.7178" x="443.73" y="372.0053">- Experiencia docente</text></g><g id="elem_GMN8"><path d="M297.23,462.07 L297.23,478.2 L262.18,482.2 L297.23,486.2 L297.23,502.3356 A0,0 0 0 0 297.23,502.3356 L535.5674,502.3356 A0,0 0 0 0 535.5674,502.3356 L535.5674,472.07 L525.5674,462.07 L297.23,462.07 A0,0 0 0 0 297.23,462.07 " fill="#FEFFDD" style="stroke:#181818;stroke-width:0.5;"/><path d="M525.5674,462.07 L525.5674,472.07 L535.5674,472.07 L525.5674,462.07 " fill="#FEFFDD" style="stroke:#181818;stroke-width:0.5;"/><text fill="#000000" font-family="sans-serif" font-size="13" lengthAdjust="spacing" textLength="217.3374" x="303.23" y="479.1369">Asegurar que todos los datos son</text><text fill="#000000" font-family="sans-serif" font-size="13" lengthAdjust="spacing" textLength="148.3003" x="303.23" y="494.2697">correctos y completos.</text></g><!--link *start* to InicioSesion--><g id="link_*start*_InicioSesion"><path d="M508.4,26.37 C508.4,40.33 508.4,61.03 508.4,80.75 " fill="transparent" id="*start*-to-InicioSesion" style="stroke:#181818;stroke-width:1;"/><polygon fill="#181818" points="508.4,86.75,512.4,77.75,508.4,81.75,504.4,77.75,508.4,86.75" style="stroke:#181818;stroke-width:1;"/></g><!--link InicioSesion to BuscarProfesor--><g id="link_InicioSesion_BuscarProfesor"><path d="M508.4,137.66 C508.4,155.65 508.4,173.99 508.4,191.96 " fill="transparent" id="InicioSesion-to-BuscarProfesor" style="stroke:#181818;stroke-width:1;"/><polygon fill="#181818" points="508.4,197.96,512.4,188.96,508.4,192.96,504.4,188.96,508.4,197.96" style="stroke:#181818;stroke-width:1;"/></g><!--link BuscarProfesor to ModificarDatos--><g id="link_BuscarProfesor_ModificarDatos"><path d="M456.49,249 C413.12,269.55 357.0121,296.1309 313.6621,316.6709 " fill="transparent" id="BuscarProfesor-to-ModificarDatos" style="stroke:#181818;stroke-width:1;"/><polygon fill="#181818" points="308.24,319.24,318.086,319.0011,312.7585,317.0991,314.6605,311.7716,308.24,319.24" style="stroke:#181818;stroke-width:1;"/></g><!--link ModificarDatos to ValidacionDatos--><g id="link_ModificarDatos_ValidacionDatos"><path d="M232.64,370.25 C221.23,382.13 207.46,396.7 195.4,410.07 C181.67,425.29 170.5446,438.1788 158.8646,451.9888 " fill="transparent" id="ModificarDatos-to-ValidacionDatos" style="stroke:#181818;stroke-width:1;"/><polygon fill="#181818" points="154.99,456.57,163.8561,452.2813,158.2188,452.7523,157.7478,447.1151,154.99,456.57" style="stroke:#181818;stroke-width:1;"/></g><!--link ValidacionDatos to ModificarDatos--><g id="link_ValidacionDatos_ModificarDatos"><path d="M167.31,456.62 C178.08,447.86 189.75,437.55 199.4,427.07 C215.62,409.44 227.8109,392.0633 238.5109,375.2333 " fill="transparent" id="ValidacionDatos-to-ModificarDatos" style="stroke:#181818;stroke-width:1;"/><polygon fill="#181818" points="241.73,370.17,233.5258,375.6189,239.0474,374.3894,240.2769,379.9111,241.73,370.17" style="stroke:#181818;stroke-width:1;"/><text fill="#000000" font-family="sans-serif" font-size="13" lengthAdjust="spacing" textLength="240.4619" x="215.4" y="423.1369">Datos incorrectos, volver a modificar</text></g><!--link ValidacionDatos to DatosCorrectos--><g id="link_ValidacionDatos_DatosCorrectos"><path d="M179.37,507.8 C219.62,529.82 273.046,559.0407 313.266,581.0407 " fill="transparent" id="ValidacionDatos-to-DatosCorrectos" style="stroke:#181818;stroke-width:1;"/><polygon fill="#181818" points="318.53,583.92,312.5536,576.0917,314.1434,581.5205,308.7145,583.1103,318.53,583.92" style="stroke:#181818;stroke-width:1;"/></g><!--link DatosCorrectos to GuardarDatos--><g id="link_DatosCorrectos_GuardarDatos"><path d="M413.89,634.99 C450.82,652.92 495.3126,674.5294 532.2826,692.4794 " fill="transparent" id="DatosCorrectos-to-GuardarDatos" style="stroke:#181818;stroke-width:1;"/><polygon fill="#181818" points="537.68,695.1,531.3309,687.5708,533.1821,692.9162,527.8368,694.7674,537.68,695.1" style="stroke:#181818;stroke-width:1;"/></g><!--link GuardarDatos to Finalizado--><g id="link_GuardarDatos_Finalizado"><path d="M607.7,746.25 C621.86,764.25 637.2994,783.865 651.4494,801.845 " fill="transparent" id="GuardarDatos-to-Finalizado" style="stroke:#181818;stroke-width:1;"/><polygon fill="#181818" points="655.16,806.56,652.7374,797.0137,652.0678,802.6308,646.4507,801.9613,655.16,806.56" style="stroke:#181818;stroke-width:1;"/></g><!--link Finalizado to BuscarProfesor--><g id="link_Finalizado_BuscarProfesor"><path d="M710.04,806.4 C734.06,786.65 761.4,756.53 761.4,721.73 C761.4,343.8 761.4,343.8 761.4,343.8 C761.4,306.77 677.3515,273.2647 604.7515,250.7847 " fill="transparent" id="Finalizado-to-BuscarProfesor" style="stroke:#181818;stroke-width:1;"/><polygon fill="#181818" points="599.02,249.01,606.4341,255.4931,603.7963,250.4889,608.8004,247.8511,599.02,249.01" style="stroke:#181818;stroke-width:1;"/><text fill="#000000" font-family="sans-serif" font-size="13" lengthAdjust="spacing" textLength="41.4946" x="762.4" y="550.3969">Volver</text></g><!--link GuardarDatos to ModificarDatos--><g id="link_GuardarDatos_ModificarDatos"><path d="M587.94,695.12 C586.43,637.39 580.03,495.28 553.4,457.07 C529.98,423.47 439.2868,392.9353 362.5568,371.9153 " fill="transparent" id="GuardarDatos-to-ModificarDatos" style="stroke:#181818;stroke-width:1;"/><polygon fill="#181818" points="356.77,370.33,364.3933,376.5658,361.5923,371.6511,366.507,368.8501,356.77,370.33" style="stroke:#181818;stroke-width:1;"/><text fill="#000000" font-family="sans-serif" font-size="13" lengthAdjust="spacing" textLength="131.3901" x="579.4" y="550.3969">Modificar m&#225;s datos</text></g><!--link Finalizado to *end*--><g id="link_Finalizado_*end*"><path d="M674.4,857.5 C674.4,877.1 674.4,897.59 674.4,911.91 " fill="transparent" id="Finalizado-to-*end*" style="stroke:#181818;stroke-width:1;"/><polygon fill="#181818" points="674.4,917.91,678.4,908.91,674.4,912.91,670.4,908.91,674.4,917.91" style="stroke:#181818;stroke-width:1;"/></g><!--SRC=[VLIzRjmm3Dxx59o3NhjxA92cF-bGe4Y1B446Hk9T1TYYIzc7fc_JiKEdFiAzM2dQFijtlWeUJEhZnnzzqiFL8smsR-1J32xmLqg1umlGLJegkBkxlNrzxPiGG-e4FGk43418YZZyZK3wrP1qcneqXZCQI_IsJmxbY_2M4ejXbgvgjE5PkMjo6XxLKl9sH012mpviWwAC8797867thGFUhcN8QwM5fum4d9cFu3vXz0nEGaSIE06bbjpXZ-RazCfW5BqbddjT9hPkFqzrliEEaw6MhcgsmMS7-A9JhR8OWkULRbSoNEYsxSaJE6oU0afrH6xqZBOi3JexnvOaQQwwsByH3Onws3KbG8V-yBlHZAc0lF-XSS50uDbH7EToFgHblJQaUwo3nzpYtCE9JnL8-v1C5NlR4gZpi8naKeCVWvSJMgFFwphHhXSb-juJTAp11MKQhq5UZaN8PU-p_ZTjJTrb4PnaimRjxsPYCTZILGtsp6wPIlnAa55_x55yUVYbeveiQynEFajv_QQMWKRz8QWCmiz9ThCvQtQGp5WrUjIoX_49xKRT5UNF32ilGGNtNEz9uF-ZFBqzmqw8nsczXFt0S_f8dFLt-I8sXr-Z3YuM_t3r-0y0]--></g></svg>