<svg xmlns="http://www.w3.org/2000/svg" xmlns:xlink="http://www.w3.org/1999/xlink" contentStyleType="text/css" data-diagram-type="STATE" height="612px" preserveAspectRatio="none" style="width:860px;height:612px;background:#FFFFFF;" version="1.1" viewBox="0 0 860 612" width="860px" zoomAndPan="magnify"><defs/><g><ellipse cx="362.95" cy="16" fill="#222222" rx="10" ry="10" style="stroke:#222222;stroke-width:1;"/><g id="ValidacionDatos"><rect fill="#F1F1F1" height="50.2656" rx="12.5" ry="12.5" style="stroke:#181818;stroke-width:0.5;" width="223.4551" x="251.22" y="97.13"/><line style="stroke:#181818;stroke-width:0.5;" x1="251.22" x2="474.6751" y1="123.4269" y2="123.4269"/><text fill="#000000" font-family="sans-serif" font-size="14" lengthAdjust="spacing" textLength="113.1348" x="306.3802" y="115.1251">ValidacionDatos</text><text fill="#000000" font-family="sans-serif" font-size="12" lengthAdjust="spacing" textLength="203.4551" x="256.22" y="139.5655">Revisar y validar datos existentes</text></g><g id="DatosCorrectos"><rect fill="#F1F1F1" height="50.2656" rx="12.5" ry="12.5" style="stroke:#181818;stroke-width:0.5;" width="191.7852" x="493.06" y="234.53"/><line style="stroke:#181818;stroke-width:0.5;" x1="493.06" x2="684.8452" y1="260.8269" y2="260.8269"/><text fill="#000000" font-family="sans-serif" font-size="14" lengthAdjust="spacing" textLength="108.2197" x="534.8427" y="252.5251">DatosCorrectos</text><text fill="#000000" font-family="sans-serif" font-size="12" lengthAdjust="spacing" textLength="171.7852" x="498.06" y="276.9655">Datos completos y correctos</text></g><g id="RequiereCorreccion"><rect fill="#F1F1F1" height="50.2656" rx="12.5" ry="12.5" style="stroke:#181818;stroke-width:0.5;" width="213.9043" x="7" y="234.53"/><line style="stroke:#181818;stroke-width:0.5;" x1="7" x2="220.9043" y1="260.8269" y2="260.8269"/><text fill="#000000" font-family="sans-serif" font-size="14" lengthAdjust="spacing" textLength="138.1611" x="44.8716" y="252.5251">RequiereCorreccion</text><text fill="#000000" font-family="sans-serif" font-size="12" lengthAdjust="spacing" textLength="193.9043" x="12" y="276.9655">Datos incompletos o incorrectos</text></g><g id="Aprobacion"><rect fill="#F1F1F1" height="50.2656" rx="12.5" ry="12.5" style="stroke:#181818;stroke-width:0.5;" width="122.1348" x="610.88" y="345.8"/><line style="stroke:#181818;stroke-width:0.5;" x1="610.88" x2="733.0148" y1="372.0969" y2="372.0969"/><text fill="#000000" font-family="sans-serif" font-size="14" lengthAdjust="spacing" textLength="79.2764" x="632.3092" y="363.7951">Aprobacion</text><text fill="#000000" font-family="sans-serif" font-size="12" lengthAdjust="spacing" textLength="102.1348" x="615.88" y="388.2355">Datos aprobados</text></g><g id="DatosGuardados"><rect fill="#F1F1F1" height="50.2656" rx="12.5" ry="12.5" style="stroke:#181818;stroke-width:0.5;" width="208.3086" x="567.8" y="473.06"/><line style="stroke:#181818;stroke-width:0.5;" x1="567.8" x2="776.1086" y1="499.3569" y2="499.3569"/><text fill="#000000" font-family="sans-serif" font-size="14" lengthAdjust="spacing" textLength="116.9766" x="613.466" y="491.0551">DatosGuardados</text><text fill="#000000" font-family="sans-serif" font-size="12" lengthAdjust="spacing" textLength="188.3086" x="572.8" y="515.4955">Actualizar estado en el sistema</text></g><ellipse cx="671.95" cy="595.33" fill="transparent" rx="11" ry="11" style="stroke:#222222;stroke-width:1;"/><ellipse cx="671.95" cy="595.33" fill="#222222" rx="6" ry="6" style="stroke:#222222;stroke-width:1;"/><g id="elem_GMN2"><path d="M509.22,87 L509.22,118.27 L474.94,122.27 L509.22,126.27 L509.22,157.5313 A0,0 0 0 0 509.22,157.5313 L704.6853,157.5313 A0,0 0 0 0 704.6853,157.5313 L704.6853,97 L694.6853,87 L509.22,87 A0,0 0 0 0 509.22,87 " fill="#FEFFDD" style="stroke:#181818;stroke-width:0.5;"/><path d="M694.6853,87 L694.6853,97 L704.6853,97 L694.6853,87 " fill="#FEFFDD" style="stroke:#181818;stroke-width:0.5;"/><text fill="#000000" font-family="sans-serif" font-size="13" lengthAdjust="spacing" textLength="72.103" x="515.22" y="104.0669">Se validan:</text><text fill="#000000" font-family="sans-serif" font-size="13" lengthAdjust="spacing" textLength="146.6245" x="515.22" y="119.1997">- Informaci&#243;n personal</text><text fill="#000000" font-family="sans-serif" font-size="13" lengthAdjust="spacing" textLength="174.4653" x="515.22" y="134.3325">- Credenciales acad&#233;micas</text><text fill="#000000" font-family="sans-serif" font-size="13" lengthAdjust="spacing" textLength="141.7178" x="515.22" y="149.4653">- Experiencia docente</text></g><g id="elem_GMN5"><path d="M255.55,239.53 L255.55,255.67 L221.21,259.67 L255.55,263.67 L255.55,279.7956 A0,0 0 0 0 255.55,279.7956 L458.3596,279.7956 A0,0 0 0 0 458.3596,279.7956 L458.3596,249.53 L448.3596,239.53 L255.55,239.53 A0,0 0 0 0 255.55,239.53 " fill="#FEFFDD" style="stroke:#181818;stroke-width:0.5;"/><path d="M448.3596,239.53 L448.3596,249.53 L458.3596,249.53 L448.3596,239.53 " fill="#FEFFDD" style="stroke:#181818;stroke-width:0.5;"/><text fill="#000000" font-family="sans-serif" font-size="13" lengthAdjust="spacing" textLength="166.7974" x="261.55" y="256.5969">Se notifica al profesorado</text><text fill="#000000" font-family="sans-serif" font-size="13" lengthAdjust="spacing" textLength="181.8096" x="261.55" y="271.7297">para corregir la informaci&#243;n</text></g><!--link *start* to ValidacionDatos--><g id="link_*start*_ValidacionDatos"><path d="M362.95,26.25 C362.95,41.9 362.95,68.09 362.95,90.65 " fill="transparent" id="*start*-to-ValidacionDatos" style="stroke:#181818;stroke-width:1;"/><polygon fill="#181818" points="362.95,96.65,366.95,87.65,362.95,91.65,358.95,87.65,362.95,96.65" style="stroke:#181818;stroke-width:1;"/></g><!--link ValidacionDatos to DatosCorrectos--><g id="link_ValidacionDatos_DatosCorrectos"><path d="M403.88,147.79 C444.71,172.25 501.943,206.5364 542.803,231.0164 " fill="transparent" id="ValidacionDatos-to-DatosCorrectos" style="stroke:#181818;stroke-width:1;"/><polygon fill="#181818" points="547.95,234.1,542.2853,226.0432,543.6609,231.5303,538.1738,232.9058,547.95,234.1" style="stroke:#181818;stroke-width:1;"/></g><!--link ValidacionDatos to RequiereCorreccion--><g id="link_ValidacionDatos_RequiereCorreccion"><path d="M312.09,147.84 C288.45,159.51 260.07,173.86 234.95,187.53 C207.66,202.38 182.6836,217.0008 159.3236,231.0308 " fill="transparent" id="ValidacionDatos-to-RequiereCorreccion" style="stroke:#181818;stroke-width:1;"/><polygon fill="#181818" points="154.18,234.12,163.9549,232.9152,158.4663,231.5456,159.8359,226.0571,154.18,234.12" style="stroke:#181818;stroke-width:1;"/></g><!--link RequiereCorreccion to ValidacionDatos--><g id="link_RequiereCorreccion_ValidacionDatos"><path d="M176.3,234.15 C196.63,225.5 219.07,215.25 238.95,204.53 C270.56,187.5 299.6221,168.3273 324.0021,151.2873 " fill="transparent" id="RequiereCorreccion-to-ValidacionDatos" style="stroke:#181818;stroke-width:1;"/><polygon fill="#181818" points="328.92,147.85,319.2517,149.7273,324.8218,150.7144,323.8347,156.2844,328.92,147.85" style="stroke:#181818;stroke-width:1;"/><text fill="#000000" font-family="sans-serif" font-size="13" lengthAdjust="spacing" textLength="111.8076" x="268.95" y="200.5969">Nueva validaci&#243;n</text></g><!--link DatosCorrectos to Aprobacion--><g id="link_DatosCorrectos_Aprobacion"><path d="M607.58,285.19 C621.25,303.18 636.099,322.7434 649.759,340.7134 " fill="transparent" id="DatosCorrectos-to-Aprobacion" style="stroke:#181818;stroke-width:1;"/><polygon fill="#181818" points="653.39,345.49,651.128,335.9044,650.3642,341.5095,644.7591,340.7457,653.39,345.49" style="stroke:#181818;stroke-width:1;"/></g><!--link Aprobacion to DatosGuardados--><g id="link_Aprobacion_DatosGuardados"><path d="M668.11,396.39 C666.83,405.66 665.58,416.32 664.95,426.06 C663.95,441.67 664.7821,453.2002 666.7421,466.9302 " fill="transparent" id="Aprobacion-to-DatosGuardados" style="stroke:#181818;stroke-width:1;"/><polygon fill="#181818" points="667.59,472.87,670.278,463.395,666.8834,467.9202,662.3583,464.5256,667.59,472.87" style="stroke:#181818;stroke-width:1;"/></g><!--link DatosGuardados to Aprobacion--><g id="link_DatosGuardados_Aprobacion"><path d="M671.95,472.81 C671.95,450.76 671.95,424.45 671.95,402.38 " fill="transparent" id="DatosGuardados-to-Aprobacion" style="stroke:#181818;stroke-width:1;"/><polygon fill="#181818" points="671.95,396.38,667.95,405.38,671.95,401.38,675.95,405.38,671.95,396.38" style="stroke:#181818;stroke-width:1;"/><text fill="#000000" font-family="sans-serif" font-size="13" lengthAdjust="spacing" textLength="131.3394" x="672.95" y="439.1269">Volver a Aprobaci&#243;n</text></g><!--link DatosGuardados to *end*--><g id="link_DatosGuardados_*end*"><path d="M671.95,523.7 C671.95,543.3 671.95,563.79 671.95,578.11 " fill="transparent" id="DatosGuardados-to-*end*" style="stroke:#181818;stroke-width:1;"/><polygon fill="#181818" points="671.95,584.11,675.95,575.11,671.95,579.11,667.95,575.11,671.95,584.11" style="stroke:#181818;stroke-width:1;"/></g><!--link Aprobacion to ValidacionDatos--><g id="link_Aprobacion_ValidacionDatos"><path d="M688.11,345.32 C704.98,316.23 725.89,267.58 701.95,234.53 C687.01,213.9 557.0876,175.4222 461.9776,149.4222 " fill="transparent" id="Aprobacion-to-ValidacionDatos" style="stroke:#181818;stroke-width:1;"/><polygon fill="#181818" points="456.19,147.84,463.8167,154.0717,461.013,149.1585,465.9262,146.3548,456.19,147.84" style="stroke:#181818;stroke-width:1;"/><text fill="#000000" font-family="sans-serif" font-size="13" lengthAdjust="spacing" textLength="139.623" x="712.95" y="264.2369">Revisar nuevos datos</text></g><!--SRC=[TLCxRiCm3Drx2iu5SW4F1OAqABfqI84iGGPMebC1ikHIif7qHfrxX5oij9pu5zkJz4Y-HpxH-yS3h5PFi4DhD2hZtJD67nv0lWcMmPPg4v3X37KACUWc07Go8PABrDOv7mdO7ByY-7oMkVa-wChYiWvRmPlBFHUIVlbpK187xz0EuXicJKuPj1G05UhBRs4KXa7AoqdgJ4e2xLNJLugIqwcrT9aRC1cHJXlFJEhMxHZAsZieNvIMcjDPpiFyHUujVLU6c5gk9fPIx-6RXd6zYa-teSxOvmNogzMIQt8n2j12oJwdu1crxr9AP6p7E1e6YoBMFyI2VMDVqeHhuVx4Jho_tYR2XEYXK_UDpsra1kyLrNZTcRwjYKx_XgyLikwKnb06QnKhOVgH7QOG1PFvW2o4PfCBd0pP5IRw_UDXKNhndt7IlTHhZBCTJTpBOETjJGpOWJBmFm00]--></g></svg>