<svg xmlns="http://www.w3.org/2000/svg" xmlns:xlink="http://www.w3.org/1999/xlink" contentStyleType="text/css" data-diagram-type="DESCRIPTION" height="363px" preserveAspectRatio="none" style="width:1111px;height:363px;background:#FFFFFF;" version="1.1" viewBox="0 0 1111 363" width="1111px" zoomAndPan="magnify"><title>Casos de Uso - T&#233;cnico de Calidad</title><defs/><g><text fill="#000000" font-family="sans-serif" font-size="14" font-weight="bold" lengthAdjust="spacing" textLength="268.249" x="414.5234" y="22.9951">Casos de Uso - T&#233;cnico de Calidad</text><!--entity TecnicoCalidad--><g id="elem_TecnicoCalidad"><ellipse cx="542.8672" cy="51.2969" fill="#F1F1F1" rx="8" ry="8" style="stroke:#181818;stroke-width:0.5;"/><path d="M542.8672,59.2969 L542.8672,86.2969 M529.8672,67.2969 L555.8672,67.2969 M542.8672,86.2969 L529.8672,101.2969 M542.8672,86.2969 L555.8672,101.2969 " fill="#FFFFFF" fill-opacity="0.00000" style="stroke:#181818;stroke-width:0.5;"/><text fill="#000000" font-family="sans-serif" font-size="14" lengthAdjust="spacing" textLength="132.7744" x="476.48" y="115.792">T&#233;cnico de Calidad</text></g><g id="elem_GenerarVersion"><ellipse cx="140.8719" cy="208.5913" fill="#F1F1F1" rx="134.8719" ry="29.3744" style="stroke:#181818;stroke-width:0.5;"/><text fill="#000000" font-family="sans-serif" font-size="14" lengthAdjust="spacing" textLength="238.8408" x="21.4515" y="211.4379">Generar Nueva Versi&#243;n de la Gu&#237;a</text></g><g id="elem_AsignarGuias"><ellipse cx="411.8726" cy="208.5894" fill="#F1F1F1" rx="101.4126" ry="22.6825" style="stroke:#181818;stroke-width:0.5;"/><text fill="#000000" font-family="sans-serif" font-size="14" lengthAdjust="spacing" textLength="167.166" x="328.2896" y="211.4361">Asignar Gu&#237;as Docentes</text></g><g id="elem_AsignarGuiaProfesor"><ellipse cx="272.8748" cy="327.7958" fill="#F1F1F1" rx="136.6448" ry="29.729" style="stroke:#181818;stroke-width:0.5;"/><text fill="#000000" font-family="sans-serif" font-size="14" lengthAdjust="spacing" textLength="242.5664" x="151.5916" y="330.6425">Asignar Gu&#237;as Docentes a Profesor</text></g><g id="elem_AsignarGuiaTitulacion"><ellipse cx="549.8664" cy="327.8002" fill="#F1F1F1" rx="105.1164" ry="23.4233" style="stroke:#181818;stroke-width:0.5;"/><text fill="#000000" font-family="sans-serif" font-size="14" lengthAdjust="spacing" textLength="175.2734" x="462.2297" y="330.6468">Asignar Gu&#237;a a Titulaci&#243;n</text></g><g id="elem_AsignarAsignaturaTitulacion"><ellipse cx="673.8686" cy="208.5906" fill="#F1F1F1" rx="125.4186" ry="27.4837" style="stroke:#181818;stroke-width:0.5;"/><text fill="#000000" font-family="sans-serif" font-size="14" lengthAdjust="spacing" textLength="218.8799" x="564.4286" y="211.4373">Asignar Asignatura a Titulaci&#243;n</text></g><g id="elem_EditarPlantilla"><ellipse cx="969.8679" cy="208.5825" fill="#F1F1F1" rx="135.4279" ry="29.4856" style="stroke:#181818;stroke-width:0.5;"/><text fill="#000000" font-family="sans-serif" font-size="14" lengthAdjust="spacing" textLength="240.0098" x="849.863" y="211.4291">Editar Plantilla de la Gu&#237;a Docente</text></g><!--link TecnicoCalidad to GenerarVersion--><g id="link_TecnicoCalidad_GenerarVersion"><path d="M476.04,102.8369 C404.59,125.1669 297.2569,158.7072 222.5069,182.0672 " fill="#FFFFFF" fill-opacity="0.00000" id="TecnicoCalidad-to-GenerarVersion" style="stroke:#181818;stroke-width:1;"/><polygon fill="#181818" points="216.78,183.8569,226.5634,184.9902,221.5524,182.3655,224.1772,177.3544,216.78,183.8569" style="stroke:#181818;stroke-width:1;"/></g><!--link TecnicoCalidad to AsignarGuias--><g id="link_TecnicoCalidad_AsignarGuias"><path d="M503.92,119.3069 C481.15,141.1469 457.5402,163.7837 438.4602,182.0837 " fill="#FFFFFF" fill-opacity="0.00000" id="TecnicoCalidad-to-AsignarGuias" style="stroke:#181818;stroke-width:1;"/><polygon fill="#181818" points="434.13,186.2369,443.3941,182.8939,437.7385,182.7759,437.8565,177.1202,434.13,186.2369" style="stroke:#181818;stroke-width:1;"/></g><!--link TecnicoCalidad to AsignarAsignaturaTitulacion--><g id="link_TecnicoCalidad_AsignarAsignaturaTitulacion"><path d="M581.82,119.3069 C602.64,139.2669 623.4293,159.2041 642.1693,177.1741 " fill="#FFFFFF" fill-opacity="0.00000" id="TecnicoCalidad-to-AsignarAsignaturaTitulacion" style="stroke:#181818;stroke-width:1;"/><polygon fill="#181818" points="646.5,181.3269,642.7725,172.2107,642.8911,177.8663,637.2355,177.9849,646.5,181.3269" style="stroke:#181818;stroke-width:1;"/></g><!--link TecnicoCalidad to EditarPlantilla--><g id="link_TecnicoCalidad_EditarPlantilla"><path d="M609.59,101.5769 C685.59,123.9369 803.924,158.7531 884.804,182.5531 " fill="#FFFFFF" fill-opacity="0.00000" id="TecnicoCalidad-to-EditarPlantilla" style="stroke:#181818;stroke-width:1;"/><polygon fill="#181818" points="890.56,184.2469,883.0552,177.8689,885.7634,182.8354,880.7969,185.5435,890.56,184.2469" style="stroke:#181818;stroke-width:1;"/></g><!--reverse link AsignarGuias to AsignarGuiaProfesor--><g id="link_AsignarGuias_AsignarGuiaProfesor"><path d="M372.9398,242.4111 C350.4098,261.4111 330.97,277.8069 306.23,298.6669 " fill="#FFFFFF" fill-opacity="0.00000" id="AsignarGuias-backto-AsignarGuiaProfesor" style="stroke:#181818;stroke-width:1;"/><polygon fill="#FFFFFF" fill-opacity="0.00000" points="386.7,230.8069,369.0718,237.8244,376.8079,246.9978,386.7,230.8069" style="stroke:#181818;stroke-width:1;"/></g><!--reverse link AsignarGuias to AsignarGuiaTitulacion--><g id="link_AsignarGuias_AsignarGuiaTitulacion"><path d="M450.579,242.4597 C475.279,263.4397 499.17,283.7369 524.13,304.9369 " fill="#FFFFFF" fill-opacity="0.00000" id="AsignarGuias-backto-AsignarGuiaTitulacion" style="stroke:#181818;stroke-width:1;"/><polygon fill="#FFFFFF" fill-opacity="0.00000" points="436.86,230.8069,446.6947,247.0327,454.4633,237.8867,436.86,230.8069" style="stroke:#181818;stroke-width:1;"/></g><!--SRC=[XP51Zi8m34NtEONLVMw0Ha8Tr1rYKTXRgGTPYX8fJcOr5ve5gpb2BpPje1HAW5Ka__- -7Jjoj0GrYXVe2FRYGKFR_nh7ne-L6Yrts2c59le0LK6h00LQokMhFGaP58Ag8KS10smJVICSA0ZtVsx4BKAJ-XDc_cBBkdSplXO-kW7FJe5FRyX5ainSj2Onobi247R1Vv7ui8Id-fECWMmv9ejcd7m9Jr9fwFCRKtYHCNjAIPkEun2qi-WYss5ZDtkRlfRJpiQhJwdxWu3M7yiT5nnt6tsk5sSks1-6KhSDOFMZTV4EBrrpoty0]--></g></svg>