<svg xmlns="http://www.w3.org/2000/svg" xmlns:xlink="http://www.w3.org/1999/xlink" contentStyleType="text/css" data-diagram-type="DESCRIPTION" height="384px" preserveAspectRatio="none" style="width:494px;height:384px;background:#FFFFFF;" version="1.1" viewBox="0 0 494 384" width="494px" zoomAndPan="magnify"><title>Casos de Uso - Direcci&#243;n de Calidad</title><defs/><g><text fill="#000000" font-family="sans-serif" font-size="14" font-weight="bold" lengthAdjust="spacing" textLength="282.0234" x="99.4592" y="22.9951">Casos de Uso - Direcci&#243;n de Calidad</text><!--entity DireccionCalidad--><g id="elem_DireccionCalidad"><ellipse cx="145.5942" cy="51.2969" fill="#F1F1F1" rx="8" ry="8" style="stroke:#181818;stroke-width:0.5;"/><path d="M145.5942,59.2969 L145.5942,86.2969 M132.5942,67.2969 L158.5942,67.2969 M145.5942,86.2969 L132.5942,101.2969 M145.5942,86.2969 L158.5942,101.2969 " fill="#FFFFFF" fill-opacity="0.00000" style="stroke:#181818;stroke-width:0.5;"/><text fill="#000000" font-family="sans-serif" font-size="14" lengthAdjust="spacing" textLength="144.6484" x="73.27" y="115.792">Direcci&#243;n de Calidad</text></g><g id="elem_AuditarGuias"><ellipse cx="106.5919" cy="356.1453" fill="#F1F1F1" rx="100.5919" ry="22.5184" style="stroke:#181818;stroke-width:0.5;"/><text fill="#000000" font-family="sans-serif" font-size="14" lengthAdjust="spacing" textLength="165.3613" x="23.9113" y="358.9919">Auditar Gu&#237;as Docentes</text></g><g id="elem_VerificarMemoria"><ellipse cx="309.5909" cy="218.3571" fill="#F1F1F1" rx="179.3509" ry="38.2702" style="stroke:#181818;stroke-width:0.5;"/><text fill="#000000" font-family="sans-serif" font-size="14" lengthAdjust="spacing" textLength="331.1602" x="144.0108" y="221.2037">Verificar Cumplimiento con Memoria Verificada</text></g><!--link DireccionCalidad to AuditarGuias--><g id="link_DireccionCalidad_AuditarGuias"><path d="M130.12,119.4869 C123.44,137.4969 116.31,159.5669 112.59,180.0869 C102.72,234.5469 103.5838,294.0628 105.0638,327.3828 " fill="#FFFFFF" fill-opacity="0.00000" id="DireccionCalidad-to-AuditarGuias" style="stroke:#181818;stroke-width:1;"/><polygon fill="#181818" points="105.33,333.3769,108.9267,324.2082,105.1081,328.3818,100.9346,324.5632,105.33,333.3769" style="stroke:#181818;stroke-width:1;"/></g><!--link DireccionCalidad to VerificarMemoria--><g id="link_DireccionCalidad_VerificarMemoria"><path d="M190.84,119.3069 C214.07,138.4869 237.6336,157.9363 260.7136,176.9963 " fill="#FFFFFF" fill-opacity="0.00000" id="DireccionCalidad-to-VerificarMemoria" style="stroke:#181818;stroke-width:1;"/><polygon fill="#181818" points="265.34,180.8169,260.9475,172.0018,261.4847,177.6331,255.8534,178.1703,265.34,180.8169" style="stroke:#181818;stroke-width:1;"/></g><!--link VerificarMemoria to AuditarGuias--><g id="link_VerificarMemoria_AuditarGuias"><path d="M255.99,255.2169 C218.28,280.4369 174.1169,309.9806 142.6969,331.0006 " fill="#FFFFFF" fill-opacity="0.00000" id="VerificarMemoria-to-AuditarGuias" style="stroke:#181818;stroke-width:1;"/><polygon fill="#181818" points="137.71,334.3369,147.4146,332.6571,141.8658,331.5567,142.9662,326.0079,137.71,334.3369" style="stroke:#181818;stroke-width:1;"/><text fill="#000000" font-family="sans-serif" font-size="13" lengthAdjust="spacing" textLength="61.1851" x="208.59" y="299.6938">&#171;extend&#187;</text></g><!--SRC=[ROv12eCm44NtESNWtWiK4Oe5Lrss-o6Pma3Cb4m2lLHNFO8NgufQgcx_- -_F94wUe44L1KTmKu4IBXp9Mku_OSmQzEpG6OCsIOJYa1Q0kdWILYKhMLI2ufmT9upGvluzDiLIIAIJDhCsC-hFk5Fa1zl1QNBtzDpnO0XO2N2bJY8ZB1M7qyvgpDoOxKDGblN_kSF6VcYRx8RW15L5hqJ1rVKN]--></g></svg>