<svg xmlns="http://www.w3.org/2000/svg" xmlns:xlink="http://www.w3.org/1999/xlink" contentStyleType="text/css" data-diagram-type="STATE" height="1018px" preserveAspectRatio="none" style="width:555px;height:1018px;background:#FFFFFF;" version="1.1" viewBox="0 0 555 1018" width="555px" zoomAndPan="magnify"><defs/><g><path d="M19.5,86 L529.9546,86 A12.5,12.5 0 0 1 542.4546,98.5 L542.4546,112.2969 L7,112.2969 L7,98.5 A12.5,12.5 0 0 1 19.5,86 " fill="#F1F1F1" style="stroke:#F1F1F1;stroke-width:1;"/><rect fill="#FFFFFF" fill-opacity="0.00000" height="844.2969" rx="12.5" ry="12.5" style="stroke:#181818;stroke-width:0.5;" width="535.4546" x="7" y="86"/><line style="stroke:#181818;stroke-width:0.5;" x1="7" x2="542.4546" y1="112.2969" y2="112.2969"/><text fill="#000000" font-family="sans-serif" font-size="14" lengthAdjust="spacing" textLength="90.3574" x="229.5486" y="103.9951">CerrarSesion</text><g id="CerrarSesion.Estado1"><rect fill="#F1F1F1" height="50" rx="12.5" ry="12.5" style="stroke:#181818;stroke-width:0.5;" width="239.7207" x="192.75" y="180.2969"/><line style="stroke:#181818;stroke-width:0.5;" x1="192.75" x2="432.4707" y1="206.5938" y2="206.5938"/><text fill="#000000" font-family="sans-serif" font-size="14" lengthAdjust="spacing" textLength="219.7207" x="202.75" y="198.292">El Usuario solicita cerrar sesi&#243;n</text></g><g id="CerrarSesion.Estado2"><rect fill="#F1F1F1" height="50" rx="12.5" ry="12.5" style="stroke:#181818;stroke-width:0.5;" width="275.4111" x="91.9" y="267.2969"/><line style="stroke:#181818;stroke-width:0.5;" x1="91.9" x2="367.3111" y1="293.5938" y2="293.5938"/><text fill="#000000" font-family="sans-serif" font-size="14" lengthAdjust="spacing" textLength="255.4111" x="101.9" y="285.292">El Sistema verifica datos pendientes</text></g><g id="CerrarSesion.Estado3"><rect fill="#F1F1F1" height="50" rx="12.5" ry="12.5" style="stroke:#181818;stroke-width:0.5;" width="277.2158" x="19" y="550.2969"/><line style="stroke:#181818;stroke-width:0.5;" x1="19" x2="296.2158" y1="576.5938" y2="576.5938"/><text fill="#000000" font-family="sans-serif" font-size="14" lengthAdjust="spacing" textLength="257.2158" x="29" y="568.292">El Sistema guarda registro de sesi&#243;n</text></g><g id="CerrarSesion.Estado4"><rect fill="#F1F1F1" height="50" rx="12.5" ry="12.5" style="stroke:#181818;stroke-width:0.5;" width="204.29" x="55.46" y="637.2969"/><line style="stroke:#181818;stroke-width:0.5;" x1="55.46" x2="259.75" y1="663.5938" y2="663.5938"/><text fill="#000000" font-family="sans-serif" font-size="14" lengthAdjust="spacing" textLength="184.29" x="65.46" y="655.292">El Sistema invalida tokens</text></g><g id="CerrarSesion.Estado5"><rect fill="#F1F1F1" height="50" rx="12.5" ry="12.5" style="stroke:#181818;stroke-width:0.5;" width="237.041" x="39.09" y="724.2969"/><line style="stroke:#181818;stroke-width:0.5;" x1="39.09" x2="276.131" y1="750.5938" y2="750.5938"/><text fill="#000000" font-family="sans-serif" font-size="14" lengthAdjust="spacing" textLength="217.041" x="49.09" y="742.292">El Sistema limpia datos locales</text></g><g id="CerrarSesion.Estado6"><rect fill="#F1F1F1" height="50" rx="12.5" ry="12.5" style="stroke:#181818;stroke-width:0.5;" width="207.79" x="53.71" y="811.2969"/><line style="stroke:#181818;stroke-width:0.5;" x1="53.71" x2="261.5" y1="837.5938" y2="837.5938"/><text fill="#000000" font-family="sans-serif" font-size="14" lengthAdjust="spacing" textLength="187.79" x="63.71" y="829.292">El Sistema redirige al login</text></g><g id="elem_choice1"><polygon fill="#F1F1F1" points="229.61,370.2969,241.61,382.2969,229.61,394.2969,217.61,382.2969,229.61,370.2969" style="stroke:#181818;stroke-width:0.5;"/></g><g id="CerrarSesion.Estado7"><rect fill="#F1F1F1" height="50" rx="12.5" ry="12.5" style="stroke:#181818;stroke-width:0.5;" width="275.6846" x="257.77" y="447.2969"/><line style="stroke:#181818;stroke-width:0.5;" x1="257.77" x2="533.4546" y1="473.5938" y2="473.5938"/><text fill="#000000" font-family="sans-serif" font-size="14" lengthAdjust="spacing" textLength="255.6846" x="267.77" y="465.292">El Sistema notifica datos pendientes</text></g><ellipse cx="312.61" cy="133.2969" fill="#222222" rx="10" ry="10" style="stroke:#222222;stroke-width:1;"/><ellipse cx="157.61" cy="909.2969" fill="#FFFFFF" fill-opacity="0.00000" rx="11" ry="11" style="stroke:#222222;stroke-width:1;"/><ellipse cx="157.61" cy="909.2969" fill="#222222" rx="6" ry="6" style="stroke:#222222;stroke-width:1;"/><!--link *start*CerrarSesion to Estado1--><g id="link_*start*CerrarSesion_Estado1"><path d="M312.61,143.7369 C312.61,152.9969 312.61,161.4869 312.61,173.9769 " fill="#FFFFFF" fill-opacity="0.00000" id="*start*CerrarSesion-to-Estado1" style="stroke:#181818;stroke-width:1;"/><polygon fill="#181818" points="312.61,179.9769,316.61,170.9769,312.61,174.9769,308.61,170.9769,312.61,179.9769" style="stroke:#181818;stroke-width:1;"/></g><!--link Estado1 to Estado2--><g id="link_Estado1_Estado2"><path d="M289.05,230.4269 C277.93,241.8169 268.8716,251.0838 257.7116,262.5138 " fill="#FFFFFF" fill-opacity="0.00000" id="Estado1-to-Estado2" style="stroke:#181818;stroke-width:1;"/><polygon fill="#181818" points="253.52,266.8069,262.6695,263.1617,257.013,263.2293,256.9454,257.5729,253.52,266.8069" style="stroke:#181818;stroke-width:1;"/></g><!--link Estado2 to choice1--><g id="link_Estado2_choice1"><path d="M229.61,317.3469 C229.61,334.4469 229.61,350.6369 229.61,363.8869 " fill="#FFFFFF" fill-opacity="0.00000" id="Estado2-to-choice1" style="stroke:#181818;stroke-width:1;"/><polygon fill="#181818" points="229.61,369.8869,233.61,360.8869,229.61,364.8869,225.61,360.8869,229.61,369.8869" style="stroke:#181818;stroke-width:1;"/></g><!--link choice1 to Estado3--><g id="link_choice1_Estado3"><path d="M221.6,386.8069 C204.68,394.7169 165.65,415.7469 150.61,447.2969 C134.93,480.1869 140.7876,517.6493 148.0576,544.2393 " fill="#FFFFFF" fill-opacity="0.00000" id="choice1-to-Estado3" style="stroke:#181818;stroke-width:1;"/><polygon fill="#181818" points="149.64,550.0269,151.1248,540.2906,148.3213,545.2039,143.408,542.4004,149.64,550.0269" style="stroke:#181818;stroke-width:1;"/><text fill="#000000" font-family="sans-serif" font-size="13" lengthAdjust="spacing" textLength="96.6938" x="151.61" y="476.8638">Sin pendientes</text></g><!--link choice1 to Estado7--><g id="link_choice1_Estado7"><path d="M234.71,389.5069 C242.99,399.2269 260.3,418.0869 278.61,429.2969 C289.56,435.9969 296.1913,439.574 308.4413,444.614 " fill="#FFFFFF" fill-opacity="0.00000" id="choice1-to-Estado7" style="stroke:#181818;stroke-width:1;"/><polygon fill="#181818" points="313.99,446.8969,307.1888,439.7734,309.3661,444.9945,304.145,447.1717,313.99,446.8969" style="stroke:#181818;stroke-width:1;"/><text fill="#000000" font-family="sans-serif" font-size="13" lengthAdjust="spacing" textLength="101.8608" x="279.61" y="425.3638">Con pendientes</text></g><!--link Estado7 to Estado1--><g id="link_Estado7_Estado1"><path d="M398.62,446.9169 C402.43,407.1169 405.38,326.6769 376.61,267.2969 C369.78,253.2069 362.7577,244.6054 351.3277,234.6154 " fill="#FFFFFF" fill-opacity="0.00000" id="Estado7-to-Estado1" style="stroke:#181818;stroke-width:1;"/><polygon fill="#181818" points="346.81,230.6669,350.9542,239.6014,350.5747,233.9573,356.2188,233.5779,346.81,230.6669" style="stroke:#181818;stroke-width:1;"/><text fill="#000000" font-family="sans-serif" font-size="13" lengthAdjust="spacing" textLength="57.3511" x="399.61" y="348.3638">Cancelar</text></g><!--link Estado7 to Estado3--><g id="link_Estado7_Estado3"><path d="M337.99,497.7469 C300.71,513.5669 257.8833,531.7432 220.6233,547.5532 " fill="#FFFFFF" fill-opacity="0.00000" id="Estado7-to-Estado3" style="stroke:#181818;stroke-width:1;"/><polygon fill="#181818" points="215.1,549.8969,224.9474,550.0636,219.7028,547.9438,221.8226,542.6992,215.1,549.8969" style="stroke:#181818;stroke-width:1;"/><text fill="#000000" font-family="sans-serif" font-size="13" lengthAdjust="spacing" textLength="63.7686" x="292.61" y="528.3638">Continuar</text></g><!--link Estado3 to Estado4--><g id="link_Estado3_Estado4"><path d="M157.61,600.4269 C157.61,611.8169 157.61,619.3769 157.61,630.8069 " fill="#FFFFFF" fill-opacity="0.00000" id="Estado3-to-Estado4" style="stroke:#181818;stroke-width:1;"/><polygon fill="#181818" points="157.61,636.8069,161.61,627.8069,157.61,631.8069,153.61,627.8069,157.61,636.8069" style="stroke:#181818;stroke-width:1;"/></g><!--link Estado4 to Estado5--><g id="link_Estado4_Estado5"><path d="M157.61,687.4269 C157.61,698.8169 157.61,706.3769 157.61,717.8069 " fill="#FFFFFF" fill-opacity="0.00000" id="Estado4-to-Estado5" style="stroke:#181818;stroke-width:1;"/><polygon fill="#181818" points="157.61,723.8069,161.61,714.8069,157.61,718.8069,153.61,714.8069,157.61,723.8069" style="stroke:#181818;stroke-width:1;"/></g><!--link Estado5 to Estado6--><g id="link_Estado5_Estado6"><path d="M157.61,774.4269 C157.61,785.8169 157.61,793.3769 157.61,804.8069 " fill="#FFFFFF" fill-opacity="0.00000" id="Estado5-to-Estado6" style="stroke:#181818;stroke-width:1;"/><polygon fill="#181818" points="157.61,810.8069,161.61,801.8069,157.61,805.8069,153.61,801.8069,157.61,810.8069" style="stroke:#181818;stroke-width:1;"/></g><!--link Estado6 to *end*CerrarSesion--><g id="link_Estado6_*end*CerrarSesion"><path d="M157.61,861.7269 C157.61,874.0869 157.61,882.4269 157.61,891.8969 " fill="#FFFFFF" fill-opacity="0.00000" id="Estado6-to-*end*CerrarSesion" style="stroke:#181818;stroke-width:1;"/><polygon fill="#181818" points="157.61,897.8969,161.61,888.8969,157.61,892.8969,153.61,888.8969,157.61,897.8969" style="stroke:#181818;stroke-width:1;"/></g><ellipse cx="274.73" cy="16" fill="#222222" rx="10" ry="10" style="stroke:#222222;stroke-width:1;"/><ellipse cx="274.73" cy="1001.3" fill="#FFFFFF" fill-opacity="0.00000" rx="11" ry="11" style="stroke:#222222;stroke-width:1;"/><ellipse cx="274.73" cy="1001.3" fill="#222222" rx="6" ry="6" style="stroke:#222222;stroke-width:1;"/><!--link *start* to CerrarSesion--><g id="link_*start*_CerrarSesion"><path d="M274.73,26.36 C274.73,37.67 274.73,52.62 274.73,79.66 " fill="#FFFFFF" fill-opacity="0.00000" id="*start*-to-CerrarSesion" style="stroke:#181818;stroke-width:1;"/><polygon fill="#181818" points="274.73,85.66,278.73,76.66,274.73,80.66,270.73,76.66,274.73,85.66" style="stroke:#181818;stroke-width:1;"/></g><!--link CerrarSesion to *end*--><g id="link_CerrarSesion_*end*"><path d="M274.73,930.71 C274.73,957.32 274.73,972.12 274.73,983.8 " fill="#FFFFFF" fill-opacity="0.00000" id="CerrarSesion-to-*end*" style="stroke:#181818;stroke-width:1;"/><polygon fill="#181818" points="274.73,989.8,278.73,980.8,274.73,984.8,270.73,980.8,274.73,989.8" style="stroke:#181818;stroke-width:1;"/></g><!--SRC=[XLDBRi8m4DrpYX7BIYp8Lq8e6yG942lKnSYPfgCQ6zc6JTLJzGYzM5qJ4fDIrul8clVnYyTpU7g6nQA13Hc3PaUMjPg1N-5Z7Jgwm-0z03_hq4ktdjNgvL0VDbVrV2jXRyzeM8FLaWKx114imNhFhqyr1xI_R4RrZgsZ8yA53B-mG6ZHQGidKYsJScGZVPRGTpv4Ys2eymMZeQK70VA40QiBIlOMJh-HYeyj4Yh9nnFVGaijKDubBXDIGoqRxWXGUcN7ST1gDWZxgukwaVtL3V6gMT0IrklhhcacBbbmwMcfdjuoAkt-xKezw6_dZr7pbRTIaIx1hLUmqG-vax-euvVfHQW4IJG9LXwi7QjpH9lmyuXVJB0Ymie9LaPODS6gWFbP2lMFSVRkfgxdV0C0]--></g></svg>