<svg xmlns="http://www.w3.org/2000/svg" xmlns:xlink="http://www.w3.org/1999/xlink" contentStyleType="text/css" height="498px" preserveAspectRatio="none" style="width:673px;height:498px;background:#FFFFFF;" version="1.1" viewBox="0 0 673 498" width="673px" zoomAndPan="magnify"><defs/><g><ellipse cx="346.6865" cy="20" fill="#222222" rx="10" ry="10" style="stroke:#222222;stroke-width:1;"/><rect fill="#F1F1F1" height="33.9688" rx="12.5" ry="12.5" style="stroke:#181818;stroke-width:0.5;" width="266.1406" x="213.6162" y="50"/><text fill="#000000" font-family="sans-serif" font-size="12" lengthAdjust="spacing" textLength="246.1406" x="223.6162" y="71.1387">Acceder al m&#243;dulo "Asignaci&#243;n Docente"</text><rect fill="#F1F1F1" height="33.9688" rx="12.5" ry="12.5" style="stroke:#181818;stroke-width:0.5;" width="274.5605" x="209.4063" y="103.9688"/><text fill="#000000" font-family="sans-serif" font-size="12" lengthAdjust="spacing" textLength="254.5605" x="219.4063" y="125.1074">Seleccionar opci&#243;n "Consultar Asignaci&#243;n"</text><rect fill="#F1F1F1" height="33.9688" rx="12.5" ry="12.5" style="stroke:#181818;stroke-width:0.5;" width="228.7227" x="232.3252" y="157.9375"/><text fill="#000000" font-family="sans-serif" font-size="12" lengthAdjust="spacing" textLength="208.7227" x="242.3252" y="179.0762">Solicitar identificaci&#243;n del profesor</text><rect fill="#F1F1F1" height="33.9688" rx="12.5" ry="12.5" style="stroke:#181818;stroke-width:0.5;" width="274.4316" x="209.4707" y="211.9063"/><text fill="#000000" font-family="sans-serif" font-size="12" lengthAdjust="spacing" textLength="254.4316" x="219.4707" y="233.0449">Buscar asignaciones asociadas al profesor</text><polygon fill="#F1F1F1" points="277.7996,265.875,415.5735,265.875,427.5735,277.875,415.5735,289.875,277.7996,289.875,265.7996,277.875,277.7996,265.875" style="stroke:#181818;stroke-width:0.5;"/><text fill="#000000" font-family="sans-serif" font-size="11" lengthAdjust="spacing" textLength="137.7739" x="277.7996" y="281.6831">&#191;Asignaci&#243;n encontrada?</text><text fill="#000000" font-family="sans-serif" font-size="11" lengthAdjust="spacing" textLength="8.7871" x="257.0125" y="275.2808">s&#237;</text><text fill="#000000" font-family="sans-serif" font-size="11" lengthAdjust="spacing" textLength="13.7017" x="427.5735" y="275.2808">no</text><rect fill="#F1F1F1" height="33.9688" rx="12.5" ry="12.5" style="stroke:#181818;stroke-width:0.5;" width="335.832" x="11" y="299.875"/><text fill="#000000" font-family="sans-serif" font-size="12" lengthAdjust="spacing" textLength="315.832" x="21" y="321.0137">Mostrar asignaturas y cr&#233;ditos asignados al profesor</text><rect fill="#F1F1F1" height="33.9688" rx="12.5" ry="12.5" style="stroke:#181818;stroke-width:0.5;" width="295.25" x="366.832" y="299.875"/><text fill="#000000" font-family="sans-serif" font-size="12" lengthAdjust="spacing" textLength="275.25" x="376.832" y="321.0137">Notificar que no hay asignaciones registradas</text><polygon fill="#F1F1F1" points="346.6865,339.8438,358.6865,351.8438,346.6865,363.8438,334.6865,351.8438,346.6865,339.8438" style="stroke:#181818;stroke-width:0.5;"/><rect fill="#F1F1F1" height="33.9688" rx="12.5" ry="12.5" style="stroke:#181818;stroke-width:0.5;" width="74.1348" x="309.6191" y="432.2461"/><text fill="#000000" font-family="sans-serif" font-size="12" lengthAdjust="spacing" textLength="54.1348" x="319.6191" y="453.3848">&gt; restart</text><polygon fill="#F1F1F1" points="280.7671,383.8438,412.606,383.8438,424.606,395.8438,412.606,407.8438,280.7671,407.8438,268.7671,395.8438,280.7671,383.8438" style="stroke:#181818;stroke-width:0.5;"/><text fill="#000000" font-family="sans-serif" font-size="11" lengthAdjust="spacing" textLength="8.7871" x="350.6865" y="418.0542">s&#237;</text><text fill="#000000" font-family="sans-serif" font-size="11" lengthAdjust="spacing" textLength="131.8389" x="280.7671" y="399.6519">&#191;Realizar otra consulta?</text><text fill="#000000" font-family="sans-serif" font-size="11" lengthAdjust="spacing" textLength="13.7017" x="424.606" y="393.2495">no</text><ellipse cx="460.3076" cy="395.8438" fill="none" rx="11" ry="11" style="stroke:#222222;stroke-width:1;"/><ellipse cx="460.3076" cy="395.8438" fill="#222222" rx="6" ry="6" style="stroke:#222222;stroke-width:1;"/><line style="stroke:#181818;stroke-width:1;" x1="346.6865" x2="346.6865" y1="30" y2="50"/><polygon fill="#181818" points="342.6865,40,346.6865,50,350.6865,40,346.6865,44" style="stroke:#181818;stroke-width:1;"/><line style="stroke:#181818;stroke-width:1;" x1="346.6865" x2="346.6865" y1="83.9688" y2="103.9688"/><polygon fill="#181818" points="342.6865,93.9688,346.6865,103.9688,350.6865,93.9688,346.6865,97.9688" style="stroke:#181818;stroke-width:1;"/><line style="stroke:#181818;stroke-width:1;" x1="346.6865" x2="346.6865" y1="137.9375" y2="157.9375"/><polygon fill="#181818" points="342.6865,147.9375,346.6865,157.9375,350.6865,147.9375,346.6865,151.9375" style="stroke:#181818;stroke-width:1;"/><line style="stroke:#181818;stroke-width:1;" x1="346.6865" x2="346.6865" y1="191.9063" y2="211.9063"/><polygon fill="#181818" points="342.6865,201.9063,346.6865,211.9063,350.6865,201.9063,346.6865,205.9063" style="stroke:#181818;stroke-width:1;"/><line style="stroke:#181818;stroke-width:1;" x1="265.7996" x2="178.916" y1="277.875" y2="277.875"/><line style="stroke:#181818;stroke-width:1;" x1="178.916" x2="178.916" y1="277.875" y2="299.875"/><polygon fill="#181818" points="174.916,289.875,178.916,299.875,182.916,289.875,178.916,293.875" style="stroke:#181818;stroke-width:1;"/><line style="stroke:#181818;stroke-width:1;" x1="427.5735" x2="514.457" y1="277.875" y2="277.875"/><line style="stroke:#181818;stroke-width:1;" x1="514.457" x2="514.457" y1="277.875" y2="299.875"/><polygon fill="#181818" points="510.457,289.875,514.457,299.875,518.457,289.875,514.457,293.875" style="stroke:#181818;stroke-width:1;"/><line style="stroke:#181818;stroke-width:1;" x1="178.916" x2="178.916" y1="333.8438" y2="351.8438"/><line style="stroke:#181818;stroke-width:1;" x1="178.916" x2="334.6865" y1="351.8438" y2="351.8438"/><polygon fill="#181818" points="324.6865,347.8438,334.6865,351.8438,324.6865,355.8438,328.6865,351.8438" style="stroke:#181818;stroke-width:1;"/><line style="stroke:#181818;stroke-width:1;" x1="514.457" x2="514.457" y1="333.8438" y2="351.8438"/><line style="stroke:#181818;stroke-width:1;" x1="514.457" x2="358.6865" y1="351.8438" y2="351.8438"/><polygon fill="#181818" points="368.6865,347.8438,358.6865,351.8438,368.6865,355.8438,364.6865,351.8438" style="stroke:#181818;stroke-width:1;"/><line style="stroke:#181818;stroke-width:1;" x1="346.6865" x2="346.6865" y1="245.875" y2="265.875"/><polygon fill="#181818" points="342.6865,255.875,346.6865,265.875,350.6865,255.875,346.6865,259.875" style="stroke:#181818;stroke-width:1;"/><line style="stroke:#181818;stroke-width:1;" x1="346.6865" x2="346.6865" y1="407.8438" y2="432.2461"/><polygon fill="#181818" points="342.6865,422.2461,346.6865,432.2461,350.6865,422.2461,346.6865,426.2461" style="stroke:#181818;stroke-width:1;"/><line style="stroke:#181818;stroke-width:1;" x1="424.606" x2="449.3076" y1="395.8438" y2="395.8438"/><polygon fill="#181818" points="439.3076,391.8438,449.3076,395.8438,439.3076,399.8438,443.3076,395.8438" style="stroke:#181818;stroke-width:1;"/><line style="stroke:#181818;stroke-width:1;" x1="346.6865" x2="346.6865" y1="466.2148" y2="486.2148"/><polygon fill="#181818" points="342.6865,476.2148,346.6865,486.2148,350.6865,476.2148,346.6865,480.2148" style="stroke:#181818;stroke-width:1;"/><line style="stroke:#181818;stroke-width:1;" x1="346.6865" x2="346.6865" y1="363.8438" y2="383.8438"/><polygon fill="#181818" points="342.6865,373.8438,346.6865,383.8438,350.6865,373.8438,346.6865,377.8438" style="stroke:#181818;stroke-width:1;"/><!--SRC=[NP4zJWD134RxFOMrrQRW0a421MYXW1ECFDx4qc1lnhD5k145LGw0n5uCxq_4adBc-_pcoMCbv59jTuWKAKD8y3wSOvyKwftnNWBoS1PuKYGfLDzMspTAXCWg8ODsSrm_gbYVd0MhAMzxNHCZZmb7Ht3Bk30Z9UYojcIQdVlG6tehBFCgP7vGv123ZM9_tOfRQ7w-ru8ag5AoT-ytK0uaqDZmjQa0jizg7bp8fS-EEm7cuJDoKLlkeruzGia86j69yQApUOPZJo0AXt3whvffppO9cCzAvFQY-KeXySUuBOy1bqrTQzxSESActrY_R4Mx6VSB]--></g></svg>