<svg xmlns="http://www.w3.org/2000/svg" xmlns:xlink="http://www.w3.org/1999/xlink" contentStyleType="text/css" data-diagram-type="STATE" height="777px" preserveAspectRatio="none" style="width:536px;height:777px;background:#FFFFFF;" version="1.1" viewBox="0 0 536 777" width="536px" zoomAndPan="magnify"><defs/><g><path d="M19.5,7 L495.504,7 A12.5,12.5 0 0 1 508.004,19.5 L508.004,33.2969 L7,33.2969 L7,19.5 A12.5,12.5 0 0 1 19.5,7 " fill="#F1F1F1" style="stroke:#F1F1F1;stroke-width:1;"/><rect fill="#FFFFFF" fill-opacity="0.00000" height="570.1869" rx="12.5" ry="12.5" style="stroke:#181818;stroke-width:0.5;" width="501.004" x="7" y="7"/><line style="stroke:#181818;stroke-width:0.5;" x1="7" x2="508.004" y1="33.2969" y2="33.2969"/><text fill="#000000" font-family="sans-serif" font-size="14" lengthAdjust="spacing" textLength="88.9355" x="213.0342" y="24.9951">IniciarSesion</text><g id="IniciarSesion.Estado1"><rect fill="#F1F1F1" height="50" rx="12.5" ry="12.5" style="stroke:#181818;stroke-width:0.5;" width="240.1377" x="233.52" y="101.2969"/><line style="stroke:#181818;stroke-width:0.5;" x1="233.52" x2="473.6577" y1="127.5938" y2="127.5938"/><text fill="#000000" font-family="sans-serif" font-size="14" lengthAdjust="spacing" textLength="220.1377" x="243.52" y="119.292">El Usuario solicita iniciar sesi&#243;n</text></g><g id="IniciarSesion.Estado2"><rect fill="#F1F1F1" height="50" rx="12.5" ry="12.5" style="stroke:#181818;stroke-width:0.5;" width="240.1719" x="233.5" y="188.2969"/><line style="stroke:#181818;stroke-width:0.5;" x1="233.5" x2="473.6719" y1="214.5938" y2="214.5938"/><text fill="#000000" font-family="sans-serif" font-size="14" lengthAdjust="spacing" textLength="220.1719" x="243.5" y="206.292">El Sistema solicita credenciales</text></g><g id="IniciarSesion.Estado3"><rect fill="#F1F1F1" height="68.8906" rx="12.5" ry="12.5" style="stroke:#181818;stroke-width:0.5;" width="161.4834" x="215.85" y="275.2969"/><line style="stroke:#181818;stroke-width:0.5;" x1="215.85" x2="377.3334" y1="334.1875" y2="334.1875"/><text fill="#000000" font-family="sans-serif" font-size="14" lengthAdjust="spacing" textLength="141.4834" x="225.85" y="293.292">El Usuario introduce</text><text fill="#000000" font-family="sans-serif" font-size="14" lengthAdjust="spacing" textLength="56.5332" x="225.85" y="309.5889">- Correo</text><text fill="#000000" font-family="sans-serif" font-size="14" lengthAdjust="spacing" textLength="89.8994" x="225.85" y="325.8857">- Contrase&#241;a</text></g><g id="elem_choice1"><polygon fill="#F1F1F1" points="279.59,381.1869,291.59,393.1869,279.59,405.1869,267.59,393.1869,279.59,381.1869" style="stroke:#181818;stroke-width:0.5;"/></g><g id="IniciarSesion.Estado4"><rect fill="#F1F1F1" height="50" rx="12.5" ry="12.5" style="stroke:#181818;stroke-width:0.5;" width="267.1807" x="19" y="458.1869"/><line style="stroke:#181818;stroke-width:0.5;" x1="19" x2="286.1807" y1="484.4838" y2="484.4838"/><text fill="#000000" font-family="sans-serif" font-size="14" lengthAdjust="spacing" textLength="247.1807" x="29" y="476.182">El Sistema identifica departamento</text></g><g id="IniciarSesion.Estado5"><rect fill="#F1F1F1" height="50" rx="12.5" ry="12.5" style="stroke:#181818;stroke-width:0.5;" width="188.834" x="310.17" y="458.1869"/><line style="stroke:#181818;stroke-width:0.5;" x1="310.17" x2="499.004" y1="484.4838" y2="484.4838"/><text fill="#000000" font-family="sans-serif" font-size="14" lengthAdjust="spacing" textLength="168.834" x="320.17" y="476.182">El Sistema notifica error</text></g><ellipse cx="353.59" cy="54.2969" fill="#222222" rx="10" ry="10" style="stroke:#222222;stroke-width:1;"/><ellipse cx="152.59" cy="556.1869" fill="#FFFFFF" fill-opacity="0.00000" rx="11" ry="11" style="stroke:#222222;stroke-width:1;"/><ellipse cx="152.59" cy="556.1869" fill="#222222" rx="6" ry="6" style="stroke:#222222;stroke-width:1;"/><!--link *start*IniciarSesion to Estado1--><g id="link_*start*IniciarSesion_Estado1"><path d="M353.59,64.7369 C353.59,73.9869 353.59,82.4869 353.59,94.9769 " fill="#FFFFFF" fill-opacity="0.00000" id="*start*IniciarSesion-to-Estado1" style="stroke:#181818;stroke-width:1;"/><polygon fill="#181818" points="353.59,100.9769,357.59,91.9769,353.59,95.9769,349.59,91.9769,353.59,100.9769" style="stroke:#181818;stroke-width:1;"/></g><!--link Estado1 to Estado2--><g id="link_Estado1_Estado2"><path d="M353.59,151.4269 C353.59,162.8169 353.59,170.3769 353.59,181.8069 " fill="#FFFFFF" fill-opacity="0.00000" id="Estado1-to-Estado2" style="stroke:#181818;stroke-width:1;"/><polygon fill="#181818" points="353.59,187.8069,357.59,178.8069,353.59,182.8069,349.59,178.8069,353.59,187.8069" style="stroke:#181818;stroke-width:1;"/></g><!--link Estado2 to Estado3--><g id="link_Estado2_Estado3"><path d="M338.91,238.6169 C332.25,249.6569 327.3615,257.7706 320.1215,269.7606 " fill="#FFFFFF" fill-opacity="0.00000" id="Estado2-to-Estado3" style="stroke:#181818;stroke-width:1;"/><polygon fill="#181818" points="317.02,274.8969,325.0963,269.2601,319.6045,270.6167,318.248,265.1249,317.02,274.8969" style="stroke:#181818;stroke-width:1;"/></g><!--link Estado3 to choice1--><g id="link_Estado3_choice1"><path d="M289.58,344.3369 C286.69,358.1869 284.7857,367.2934 282.8157,376.7334 " fill="#FFFFFF" fill-opacity="0.00000" id="Estado3-to-choice1" style="stroke:#181818;stroke-width:1;"/><polygon fill="#181818" points="281.59,382.6069,287.3442,374.6138,282.6114,377.7123,279.5129,372.9795,281.59,382.6069" style="stroke:#181818;stroke-width:1;"/></g><!--link choice1 to Estado4--><g id="link_choice1_Estado4"><path d="M267.55,393.5969 C244.71,393.1869 194.94,395.7169 167.59,423.1869 C158.57,432.2469 155.49,439.9765 153.95,451.8765 " fill="#FFFFFF" fill-opacity="0.00000" id="choice1-to-Estado4" style="stroke:#181818;stroke-width:1;"/><polygon fill="#181818" points="153.18,457.8269,158.302,449.4147,153.8217,452.8682,150.3682,448.3879,153.18,457.8269" style="stroke:#181818;stroke-width:1;"/><text fill="#000000" font-family="sans-serif" font-size="13" lengthAdjust="spacing" textLength="102.6924" x="168.59" y="436.2538">Datos correctos</text></g><!--link choice1 to Estado5--><g id="link_choice1_Estado5"><path d="M277.05,402.9169 C274.7,412.9369 272.65,429.3669 280.59,440.1869 C288.19,450.5369 293.1442,455.6036 304.5542,461.5236 " fill="#FFFFFF" fill-opacity="0.00000" id="choice1-to-Estado5" style="stroke:#181818;stroke-width:1;"/><polygon fill="#181818" points="309.88,464.2869,303.7334,456.5914,305.4418,461.9842,300.0491,463.6925,309.88,464.2869" style="stroke:#181818;stroke-width:1;"/><text fill="#000000" font-family="sans-serif" font-size="13" lengthAdjust="spacing" textLength="114.5435" x="281.59" y="436.2538">Datos incorrectos</text></g><!--link Estado5 to Estado2--><g id="link_Estado5_Estado2"><path d="M405.63,457.6969 C406.61,418.3469 405.7,339.0169 386.59,275.2969 C382.75,262.4969 379.0896,254.4941 372.7096,243.6841 " fill="#FFFFFF" fill-opacity="0.00000" id="Estado5-to-Estado2" style="stroke:#181818;stroke-width:1;"/><polygon fill="#181818" points="369.66,238.5169,370.7897,248.3007,372.2014,242.8229,377.6792,244.2345,369.66,238.5169" style="stroke:#181818;stroke-width:1;"/></g><!--link Estado4 to *end*IniciarSesion--><g id="link_Estado4_*end*IniciarSesion"><path d="M152.59,508.6169 C152.59,520.9769 152.59,529.3169 152.59,538.7869 " fill="#FFFFFF" fill-opacity="0.00000" id="Estado4-to-*end*IniciarSesion" style="stroke:#181818;stroke-width:1;"/><polygon fill="#181818" points="152.59,544.7869,156.59,535.7869,152.59,539.7869,148.59,535.7869,152.59,544.7869" style="stroke:#181818;stroke-width:1;"/></g><g id="elem_choice2"><polygon fill="#F1F1F1" points="257.5,637.19,269.5,649.19,257.5,661.19,245.5,649.19,257.5,637.19" style="stroke:#181818;stroke-width:0.5;"/></g><g id="Profesor"><rect fill="#F1F1F1" height="50" rx="12.5" ry="12.5" style="stroke:#181818;stroke-width:0.5;" width="77.9209" x="13.54" y="721.19"/><line style="stroke:#181818;stroke-width:0.5;" x1="13.54" x2="91.4609" y1="747.4869" y2="747.4869"/><text fill="#000000" font-family="sans-serif" font-size="14" lengthAdjust="spacing" textLength="57.9209" x="23.54" y="739.1851">Profesor</text></g><g id="RRHH"><rect fill="#F1F1F1" height="50" rx="12.5" ry="12.5" style="stroke:#181818;stroke-width:0.5;" width="60.5098" x="126.25" y="721.19"/><line style="stroke:#181818;stroke-width:0.5;" x1="126.25" x2="186.7598" y1="747.4869" y2="747.4869"/><text fill="#000000" font-family="sans-serif" font-size="14" lengthAdjust="spacing" textLength="40.5098" x="136.25" y="739.1851">RRHH</text></g><g id="Calidad"><rect fill="#F1F1F1" height="50" rx="12.5" ry="12.5" style="stroke:#181818;stroke-width:0.5;" width="72.4863" x="221.26" y="721.19"/><line style="stroke:#181818;stroke-width:0.5;" x1="221.26" x2="293.7463" y1="747.4869" y2="747.4869"/><text fill="#000000" font-family="sans-serif" font-size="14" lengthAdjust="spacing" textLength="52.4863" x="231.26" y="739.1851">Calidad</text></g><g id="Admin"><rect fill="#F1F1F1" height="50" rx="12.5" ry="12.5" style="stroke:#181818;stroke-width:0.5;" width="64.8643" x="329.07" y="721.19"/><line style="stroke:#181818;stroke-width:0.5;" x1="329.07" x2="393.9343" y1="747.4869" y2="747.4869"/><text fill="#000000" font-family="sans-serif" font-size="14" lengthAdjust="spacing" textLength="44.8643" x="339.07" y="739.1851">Admin</text></g><g id="Ordenacion"><rect fill="#F1F1F1" height="50" rx="12.5" ry="12.5" style="stroke:#181818;stroke-width:0.5;" width="100.7529" x="429.13" y="721.19"/><line style="stroke:#181818;stroke-width:0.5;" x1="429.13" x2="529.8829" y1="747.4869" y2="747.4869"/><text fill="#000000" font-family="sans-serif" font-size="14" lengthAdjust="spacing" textLength="80.7529" x="439.13" y="739.1851">Ordenacion</text></g><!--link IniciarSesion to choice2--><g id="link_IniciarSesion_choice2"><path d="M257.5,577.61 C257.5,603.55 257.5,618.64 257.5,630.8 " fill="#FFFFFF" fill-opacity="0.00000" id="IniciarSesion-to-choice2" style="stroke:#181818;stroke-width:1;"/><polygon fill="#181818" points="257.5,636.8,261.5,627.8,257.5,631.8,253.5,627.8,257.5,636.8" style="stroke:#181818;stroke-width:1;"/></g><!--link choice2 to Profesor--><g id="link_choice2_Profesor"><path d="M249.72,653.8 C224.12,665.66 146.804,701.4875 96.994,724.5675 " fill="#FFFFFF" fill-opacity="0.00000" id="choice2-to-Profesor" style="stroke:#181818;stroke-width:1;"/><polygon fill="#181818" points="91.55,727.09,101.3976,726.9355,96.0866,724.9879,98.0343,719.6769,91.55,727.09" style="stroke:#181818;stroke-width:1;"/></g><!--link choice2 to RRHH--><g id="link_choice2_RRHH"><path d="M251.49,655.85 C238.15,668.39 209.8201,695.0387 186.5201,716.9587 " fill="#FFFFFF" fill-opacity="0.00000" id="choice2-to-RRHH" style="stroke:#181818;stroke-width:1;"/><polygon fill="#181818" points="182.15,721.07,191.446,717.8165,185.7917,717.644,185.9643,711.9897,182.15,721.07" style="stroke:#181818;stroke-width:1;"/></g><!--link choice2 to Calidad--><g id="link_choice2_Calidad"><path d="M257.5,661.84 C257.5,676.5 257.5,696.07 257.5,715.03 " fill="#FFFFFF" fill-opacity="0.00000" id="choice2-to-Calidad" style="stroke:#181818;stroke-width:1;"/><polygon fill="#181818" points="257.5,721.03,261.5,712.03,257.5,716.03,253.5,712.03,257.5,721.03" style="stroke:#181818;stroke-width:1;"/></g><!--link choice2 to Admin--><g id="link_choice2_Admin"><path d="M263.39,655.57 C276.88,667.89 306.3001,694.7633 330.4601,716.8333 " fill="#FFFFFF" fill-opacity="0.00000" id="choice2-to-Admin" style="stroke:#181818;stroke-width:1;"/><polygon fill="#181818" points="334.89,720.88,330.9429,711.8567,331.1984,717.5077,325.5473,717.7632,334.89,720.88" style="stroke:#181818;stroke-width:1;"/></g><!--link choice2 to Ordenacion--><g id="link_choice2_Ordenacion"><path d="M265.67,653.68 C291.72,664.83 368.8135,697.8304 423.4035,721.1804 " fill="#FFFFFF" fill-opacity="0.00000" id="choice2-to-Ordenacion" style="stroke:#181818;stroke-width:1;"/><polygon fill="#181818" points="428.92,723.54,422.2183,716.3229,424.3229,721.5737,419.0721,723.6783,428.92,723.54" style="stroke:#181818;stroke-width:1;"/></g><!--SRC=[VLBDJi904Bxp51EE9XmeS364n209dZGGJ-fXiZl4ISgEcLrEneSoFW8lvj8MkdQnFKs_lvtzMXym43muDeow9S_Yu7C0pUChThWguTaVK5d0Incb0O5h2_ZeEVwu8Q27LTHR6L-nRza7scDhDqgMN4meoIVUekTeTa757WozkX4iHPMadYAEdexVc0HDBa6NuUNc3KQZHRPbyvvmHOSh4kvASBsgUHSsD8Rvl9uMYqxAf4ffPF-bf6LnR2ZmZWs2fG_KWFi8I7BBQO_RIUCbLT74DClFFk_UNdDw2_SOn8Cv5MtYr2EUdSNiSdcdXLbFpzEAYz-fmhy65tlQSD5j-E_FstPSjFwpyqG-gUp8YsR4PhDUP-0IIxPeC_pExjbbwAF6JuOcxl4B]--></g></svg>