<svg xmlns="http://www.w3.org/2000/svg" xmlns:xlink="http://www.w3.org/1999/xlink" contentStyleType="text/css" data-diagram-type="STATE" height="938px" preserveAspectRatio="none" style="width:560px;height:938px;background:#FFFFFF;" version="1.1" viewBox="0 0 560 938" width="560px" zoomAndPan="magnify"><defs/><g><path d="M19.5,86 L534.7414,86 A12.5,12.5 0 0 1 547.2414,98.5 L547.2414,112.2969 L7,112.2969 L7,98.5 A12.5,12.5 0 0 1 19.5,86 " fill="#F1F1F1" style="stroke:#F1F1F1;stroke-width:1;"/><rect fill="#FFFFFF" fill-opacity="0.00000" height="764.2969" rx="12.5" ry="12.5" style="stroke:#181818;stroke-width:0.5;" width="540.2414" x="7" y="86"/><line style="stroke:#181818;stroke-width:0.5;" x1="7" x2="547.2414" y1="112.2969" y2="112.2969"/><text fill="#000000" font-family="sans-serif" font-size="14" lengthAdjust="spacing" textLength="132.9658" x="210.6378" y="103.9951">RevisionProfesores</text><g id="RevisionProfesores.Estado1"><rect fill="#F1F1F1" height="50" rx="12.5" ry="12.5" style="stroke:#181818;stroke-width:0.5;" width="311.8467" x="219.42" y="180.2969"/><line style="stroke:#181818;stroke-width:0.5;" x1="219.42" x2="531.2667" y1="206.5938" y2="206.5938"/><text fill="#000000" font-family="sans-serif" font-size="14" lengthAdjust="spacing" textLength="291.8467" x="229.42" y="198.292">El Sistema presenta listado de profesores</text></g><g id="RevisionProfesores.Estado2"><rect fill="#F1F1F1" height="50" rx="12.5" ry="12.5" style="stroke:#181818;stroke-width:0.5;" width="270.6807" x="159" y="267.2969"/><line style="stroke:#181818;stroke-width:0.5;" x1="159" x2="429.6807" y1="293.5938" y2="293.5938"/><text fill="#000000" font-family="sans-serif" font-size="14" lengthAdjust="spacing" textLength="250.6807" x="169" y="285.292">El Sistema obtiene cargas docentes</text></g><g id="RevisionProfesores.Estado3"><rect fill="#F1F1F1" height="50" rx="12.5" ry="12.5" style="stroke:#181818;stroke-width:0.5;" width="210.9688" x="188.86" y="354.2969"/><line style="stroke:#181818;stroke-width:0.5;" x1="188.86" x2="399.8288" y1="380.5938" y2="380.5938"/><text fill="#000000" font-family="sans-serif" font-size="14" lengthAdjust="spacing" textLength="190.9688" x="198.86" y="372.292">El Sistema compara cargas</text></g><g id="elem_choice1"><polygon fill="#F1F1F1" points="294.34,441.2969,306.34,453.2969,294.34,465.2969,282.34,453.2969,294.34,441.2969" style="stroke:#181818;stroke-width:0.5;"/></g><g id="RevisionProfesores.Estado4"><rect fill="#F1F1F1" height="50" rx="12.5" ry="12.5" style="stroke:#181818;stroke-width:0.5;" width="252.6816" x="19" y="586.2969"/><line style="stroke:#181818;stroke-width:0.5;" x1="19" x2="271.6816" y1="612.5938" y2="612.5938"/><text fill="#000000" font-family="sans-serif" font-size="14" lengthAdjust="spacing" textLength="232.6816" x="29" y="604.292">El Sistema registra cumplimiento</text></g><g id="RevisionProfesores.Estado5"><rect fill="#F1F1F1" height="50" rx="12.5" ry="12.5" style="stroke:#181818;stroke-width:0.5;" width="265.4443" x="163.62" y="518.2969"/><line style="stroke:#181818;stroke-width:0.5;" x1="163.62" x2="429.0643" y1="544.5938" y2="544.5938"/><text fill="#000000" font-family="sans-serif" font-size="14" lengthAdjust="spacing" textLength="245.4443" x="173.62" y="536.292">El Sistema registra incumplimiento</text></g><g id="RevisionProfesores.Estado6"><rect fill="#F1F1F1" height="50" rx="12.5" ry="12.5" style="stroke:#181818;stroke-width:0.5;" width="204.4199" x="194.13" y="654.2969"/><line style="stroke:#181818;stroke-width:0.5;" x1="194.13" x2="398.5499" y1="680.5938" y2="680.5938"/><text fill="#000000" font-family="sans-serif" font-size="14" lengthAdjust="spacing" textLength="184.4199" x="204.13" y="672.292">El Sistema notifica ajustes</text></g><g id="elem_choice2"><polygon fill="#F1F1F1" points="296.34,741.2969,308.34,753.2969,296.34,765.2969,284.34,753.2969,296.34,741.2969" style="stroke:#181818;stroke-width:0.5;"/></g><ellipse cx="375.34" cy="133.2969" fill="#222222" rx="10" ry="10" style="stroke:#222222;stroke-width:1;"/><ellipse cx="296.34" cy="829.2969" fill="#FFFFFF" fill-opacity="0.00000" rx="11" ry="11" style="stroke:#222222;stroke-width:1;"/><ellipse cx="296.34" cy="829.2969" fill="#222222" rx="6" ry="6" style="stroke:#222222;stroke-width:1;"/><!--link *start*RevisionProfesores to Estado1--><g id="link_*start*RevisionProfesores_Estado1"><path d="M375.34,143.7369 C375.34,152.9969 375.34,161.4869 375.34,173.9769 " fill="#FFFFFF" fill-opacity="0.00000" id="*start*RevisionProfesores-to-Estado1" style="stroke:#181818;stroke-width:1;"/><polygon fill="#181818" points="375.34,179.9769,379.34,170.9769,375.34,174.9769,371.34,170.9769,375.34,179.9769" style="stroke:#181818;stroke-width:1;"/></g><!--link Estado1 to Estado2--><g id="link_Estado1_Estado2"><path d="M352.35,230.4269 C341.5,241.8169 332.7108,251.0348 321.8108,262.4648 " fill="#FFFFFF" fill-opacity="0.00000" id="Estado1-to-Estado2" style="stroke:#181818;stroke-width:1;"/><polygon fill="#181818" points="317.67,266.8069,326.7759,263.0542,321.1206,263.1884,320.9864,257.5332,317.67,266.8069" style="stroke:#181818;stroke-width:1;"/></g><!--link Estado2 to Estado3--><g id="link_Estado2_Estado3"><path d="M294.34,317.4269 C294.34,328.8169 294.34,336.3769 294.34,347.8069 " fill="#FFFFFF" fill-opacity="0.00000" id="Estado2-to-Estado3" style="stroke:#181818;stroke-width:1;"/><polygon fill="#181818" points="294.34,353.8069,298.34,344.8069,294.34,348.8069,290.34,344.8069,294.34,353.8069" style="stroke:#181818;stroke-width:1;"/></g><!--link Estado3 to choice1--><g id="link_Estado3_choice1"><path d="M294.34,404.6769 C294.34,416.9069 294.34,425.1569 294.34,434.8569 " fill="#FFFFFF" fill-opacity="0.00000" id="Estado3-to-choice1" style="stroke:#181818;stroke-width:1;"/><polygon fill="#181818" points="294.34,440.8569,298.34,431.8569,294.34,435.8569,290.34,431.8569,294.34,440.8569" style="stroke:#181818;stroke-width:1;"/></g><!--link choice1 to Estado4--><g id="link_choice1_Estado4"><path d="M284.06,455.5369 C257.49,459.3469 186.32,473.4869 154.34,518.2969 C140.36,537.8969 139.1236,560.1318 140.9536,580.1418 " fill="#FFFFFF" fill-opacity="0.00000" id="choice1-to-Estado4" style="stroke:#181818;stroke-width:1;"/><polygon fill="#181818" points="141.5,586.1169,144.6637,576.79,141.0446,581.1377,136.697,577.5186,141.5,586.1169" style="stroke:#181818;stroke-width:1;"/><text fill="#000000" font-family="sans-serif" font-size="13" lengthAdjust="spacing" textLength="49.8418" x="195.34" y="496.3638">Cumple</text></g><!--link choice1 to Estado5--><g id="link_choice1_Estado5"><path d="M294.59,465.4469 C294.89,478.5769 295.2638,494.7884 295.6538,511.9684 " fill="#FFFFFF" fill-opacity="0.00000" id="choice1-to-Estado5" style="stroke:#181818;stroke-width:1;"/><polygon fill="#181818" points="295.79,517.9669,299.5847,508.8784,295.6765,512.9682,291.5868,509.06,295.79,517.9669" style="stroke:#181818;stroke-width:1;"/><text fill="#000000" font-family="sans-serif" font-size="13" lengthAdjust="spacing" textLength="69.7227" x="296.34" y="496.3638">No cumple</text></g><!--link Estado5 to Estado6--><g id="link_Estado5_Estado6"><path d="M296.34,568.5669 C296.34,592.8469 296.34,623.9869 296.34,648.2069 " fill="#FFFFFF" fill-opacity="0.00000" id="Estado5-to-Estado6" style="stroke:#181818;stroke-width:1;"/><polygon fill="#181818" points="296.34,654.2069,300.34,645.2069,296.34,649.2069,292.34,645.2069,296.34,654.2069" style="stroke:#181818;stroke-width:1;"/></g><!--link Estado4 to choice2--><g id="link_Estado4_choice2"><path d="M150.61,636.6569 C156.15,657.0469 166.73,685.7169 185.34,704.2969 C214.91,733.8069 259.6933,745.2863 280.7933,749.4463 " fill="#FFFFFF" fill-opacity="0.00000" id="Estado4-to-choice2" style="stroke:#181818;stroke-width:1;"/><polygon fill="#181818" points="286.68,750.6069,278.6237,744.9415,281.7744,749.6397,277.0762,752.7904,286.68,750.6069" style="stroke:#181818;stroke-width:1;"/></g><!--link Estado6 to choice2--><g id="link_Estado6_choice2"><path d="M296.34,704.6769 C296.34,716.9069 296.34,725.1569 296.34,734.8569 " fill="#FFFFFF" fill-opacity="0.00000" id="Estado6-to-choice2" style="stroke:#181818;stroke-width:1;"/><polygon fill="#181818" points="296.34,740.8569,300.34,731.8569,296.34,735.8569,292.34,731.8569,296.34,740.8569" style="stroke:#181818;stroke-width:1;"/></g><!--link choice2 to Estado1--><g id="link_choice2_Estado1"><path d="M307.92,752.4069 C344.84,752.1069 457.34,745.8169 457.34,680.2969 C457.34,291.2969 457.34,291.2969 457.34,291.2969 C457.34,265.8669 442.929,248.6978 423.089,234.0678 " fill="#FFFFFF" fill-opacity="0.00000" id="choice2-to-Estado1" style="stroke:#181818;stroke-width:1;"/><polygon fill="#181818" points="418.26,230.5069,423.1296,239.0676,422.2842,233.4743,427.8775,232.6289,418.26,230.5069" style="stroke:#181818;stroke-width:1;"/><text fill="#000000" font-family="sans-serif" font-size="13" lengthAdjust="spacing" textLength="78.9014" x="458.34" y="457.8638">Revisar otro</text></g><!--link choice2 to *end*RevisionProfesores--><g id="link_choice2_*end*RevisionProfesores"><path d="M296.34,765.8569 C296.34,780.1669 296.34,798.3169 296.34,812.0069 " fill="#FFFFFF" fill-opacity="0.00000" id="choice2-to-*end*RevisionProfesores" style="stroke:#181818;stroke-width:1;"/><polygon fill="#181818" points="296.34,818.0069,300.34,809.0069,296.34,813.0069,292.34,809.0069,296.34,818.0069" style="stroke:#181818;stroke-width:1;"/><text fill="#000000" font-family="sans-serif" font-size="13" lengthAdjust="spacing" textLength="54.6533" x="297.34" y="796.3638">Finalizar</text></g><ellipse cx="277.12" cy="16" fill="#222222" rx="10" ry="10" style="stroke:#222222;stroke-width:1;"/><ellipse cx="277.12" cy="921.3" fill="#FFFFFF" fill-opacity="0.00000" rx="11" ry="11" style="stroke:#222222;stroke-width:1;"/><ellipse cx="277.12" cy="921.3" fill="#222222" rx="6" ry="6" style="stroke:#222222;stroke-width:1;"/><!--link *start* to RevisionProfesores--><g id="link_*start*_RevisionProfesores"><path d="M277.12,26.41 C277.12,37.77 277.12,52.75 277.12,79.63 " fill="#FFFFFF" fill-opacity="0.00000" id="*start*-to-RevisionProfesores" style="stroke:#181818;stroke-width:1;"/><polygon fill="#181818" points="277.12,85.63,281.12,76.63,277.12,80.63,273.12,76.63,277.12,85.63" style="stroke:#181818;stroke-width:1;"/></g><!--link RevisionProfesores to *end*--><g id="link_RevisionProfesores_*end*"><path d="M277.12,850.8 C277.12,877.54 277.12,892.54 277.12,904.18 " fill="#FFFFFF" fill-opacity="0.00000" id="RevisionProfesores-to-*end*" style="stroke:#181818;stroke-width:1;"/><polygon fill="#181818" points="277.12,910.18,281.12,901.18,277.12,905.18,273.12,901.18,277.12,910.18" style="stroke:#181818;stroke-width:1;"/></g><!--SRC=[ZLExRiCm3Dpz5KJ60Xdy78p0Iv6EHT6EGGVLPb86jcX8IeSM_VVAZxYANuWcGhmxyOxGuU4TjjiCNl6BDB5yKNn4pGgrvu4zsWY3CrtuQTlDEVGIUuijs1_kXwBJsEnBU2Dji19GMmMKHa19BGaAj7TNxGq8FL6RYl278PG8kL0dIoWujv8tx625dNDL2oLwjaCAfmRwMHoNmQWNEBrmAO7yaob77tQxhigoaKhOglImUt9KUB9Lu-9IrILLDW_3ZfVe7Yx91NQymfPiw4Yv076-wDlKa-daL-V_8KKfF3QluWecJk6PEskuj9JOmIVhmGVBmKTEyEFL9hEzqTZk_lsq-oz20Hl5iqZxPr9u8YbA-XQgXVnwW-xCT-j9Vm00]--></g></svg>