<?xml version="1.0" encoding="us-ascii" standalone="no"?><svg xmlns="http://www.w3.org/2000/svg" xmlns:xlink="http://www.w3.org/1999/xlink" contentStyleType="text/css" height="551px" preserveAspectRatio="none" style="width:910px;height:551px;background:#FFFFFF;" version="1.1" viewBox="0 0 910 551" width="910px" zoomAndPan="magnify"><defs/><g><ellipse cx="452" cy="16" fill="#222222" rx="10" ry="10" style="stroke:#222222;stroke-width:1.0;"/><path d="M19.5,104 L884,104 A12.5,12.5 0 0 1 896.5,116.5 L896.5,131.6094 L7,131.6094 L7,116.5 A12.5,12.5 0 0 1 19.5,104 " fill="#F1F1F1" style="stroke:#F1F1F1;stroke-width:1.0;"/><rect fill="none" height="441.6094" rx="12.5" ry="12.5" style="stroke:#181818;stroke-width:0.5;" width="889.5" x="7" y="104"/><line style="stroke:#181818;stroke-width:0.5;" x1="7" x2="896.5" y1="131.6094" y2="131.6094"/><text fill="#000000" font-family="sans-serif" font-size="14" lengthAdjust="spacing" textLength="135" x="384.25" y="123.5332">UsuarioAdministrador</text><ellipse cx="397.5" cy="152.6094" fill="#222222" rx="10" ry="10" style="stroke:#222222;stroke-width:1.0;"/><g id="UsuarioAdministrador.Activo"><rect fill="#F1F1F1" height="50" rx="12.5" ry="12.5" style="stroke:#181818;stroke-width:0.5;" width="58" x="368.5" y="216.6094"/><line style="stroke:#181818;stroke-width:0.5;" x1="368.5" x2="426.5" y1="244.2188" y2="244.2188"/><text fill="#000000" font-family="sans-serif" font-size="14" lengthAdjust="spacing" textLength="38" x="378.5" y="236.1426">Activo</text></g><g id="UsuarioAdministrador.CreaPostulantes"><rect fill="#F1F1F1" height="50" rx="12.5" ry="12.5" style="stroke:#181818;stroke-width:0.5;" width="125" x="19" y="303.6094"/><line style="stroke:#181818;stroke-width:0.5;" x1="19" x2="144" y1="331.2188" y2="331.2188"/><text fill="#000000" font-family="sans-serif" font-size="14" lengthAdjust="spacing" textLength="105" x="29" y="323.1426">CreaPostulantes</text></g><g id="UsuarioAdministrador.EliminaPostulantes"><rect fill="#F1F1F1" height="50" rx="12.5" ry="12.5" style="stroke:#181818;stroke-width:0.5;" width="139" x="162" y="303.6094"/><line style="stroke:#181818;stroke-width:0.5;" x1="162" x2="301" y1="331.2188" y2="331.2188"/><text fill="#000000" font-family="sans-serif" font-size="14" lengthAdjust="spacing" textLength="119" x="172" y="323.1426">EliminaPostulantes</text></g><g id="UsuarioAdministrador.DesactivaPostulantes"><rect fill="#F1F1F1" height="50" rx="12.5" ry="12.5" style="stroke:#181818;stroke-width:0.5;" width="156" x="319.5" y="303.6094"/><line style="stroke:#181818;stroke-width:0.5;" x1="319.5" x2="475.5" y1="331.2188" y2="331.2188"/><text fill="#000000" font-family="sans-serif" font-size="14" lengthAdjust="spacing" textLength="136" x="329.5" y="323.1426">DesactivaPostulantes</text></g><g id="UsuarioAdministrador.ActualizaPostulantes"><rect fill="#F1F1F1" height="50" rx="12.5" ry="12.5" style="stroke:#181818;stroke-width:0.5;" width="150" x="493.5" y="303.6094"/><line style="stroke:#181818;stroke-width:0.5;" x1="493.5" x2="643.5" y1="331.2188" y2="331.2188"/><text fill="#000000" font-family="sans-serif" font-size="14" lengthAdjust="spacing" textLength="130" x="503.5" y="323.1426">ActualizaPostulantes</text></g><g id="elem_acci&#243;n"><polygon fill="#F1F1F1" points="568.5,407.6094,580.5,419.6094,568.5,431.6094,556.5,419.6094,568.5,407.6094" style="stroke:#181818;stroke-width:0.5;"/></g><g id="UsuarioAdministrador.CreaBecario"><rect fill="#F1F1F1" height="50" rx="12.5" ry="12.5" style="stroke:#181818;stroke-width:0.5;" width="99" x="452" y="485.6094"/><line style="stroke:#181818;stroke-width:0.5;" x1="452" x2="551" y1="513.2188" y2="513.2188"/><text fill="#000000" font-family="sans-serif" font-size="14" lengthAdjust="spacing" textLength="79" x="462" y="505.1426">CreaBecario</text></g><g id="UsuarioAdministrador.EliminaPostulante"><rect fill="#F1F1F1" height="50" rx="12.5" ry="12.5" style="stroke:#181818;stroke-width:0.5;" width="132" x="569.5" y="485.6094"/><line style="stroke:#181818;stroke-width:0.5;" x1="569.5" x2="701.5" y1="513.2188" y2="513.2188"/><text fill="#000000" font-family="sans-serif" font-size="14" lengthAdjust="spacing" textLength="112" x="579.5" y="505.1426">EliminaPostulante</text></g><g id="UsuarioAdministrador.RevisaEstad&#237;sticasFinales"><rect fill="#F1F1F1" height="50" rx="12.5" ry="12.5" style="stroke:#181818;stroke-width:0.5;" width="184" x="661.5" y="303.6094"/><line style="stroke:#181818;stroke-width:0.5;" x1="661.5" x2="845.5" y1="331.2188" y2="331.2188"/><text fill="#000000" font-family="sans-serif" font-size="14" lengthAdjust="spacing" textLength="164" x="671.5" y="323.1426">RevisaEstad&#237;sticasFinales</text></g><g id="UsuarioAdministrador.Inactivo"><rect fill="#F1F1F1" height="50" rx="12.5" ry="12.5" style="stroke:#181818;stroke-width:0.5;" width="68" x="444.5" y="216.6094"/><line style="stroke:#181818;stroke-width:0.5;" x1="444.5" x2="512.5" y1="244.2188" y2="244.2188"/><text fill="#000000" font-family="sans-serif" font-size="14" lengthAdjust="spacing" textLength="48" x="454.5" y="236.1426">Inactivo</text></g><!--link *start*UsuarioAdministrador to Activo--><g id="link_*start*UsuarioAdministrador_Activo"><path d="M397.5,162.9194 C397.5,175.5494 397.5,192.5494 397.5,210.2594 " fill="none" id="*start*UsuarioAdministrador-to-Activo" style="stroke:#181818;stroke-width:1.0;"/><polygon fill="#181818" points="397.5,216.2594,401.5,207.2594,397.5,211.2594,393.5,207.2594,397.5,216.2594" style="stroke:#181818;stroke-width:1.0;"/><text fill="#000000" font-family="sans-serif" font-size="13" lengthAdjust="spacing" textLength="488" x="398.5" y="195.1045">necesita gestionar postulantes, ver estad&#237;sticas, gestionar pruebas y capacitaciones</text></g><!--link Activo to CreaPostulantes--><g id="link_Activo_CreaPostulantes"><path d="M368.25,249.0694 C322.1,259.4594 229.69,280.9994 152.5,303.6094 C149.75,304.4094 152.6834,303.4906 149.8634,304.3606 " fill="none" id="Activo-to-CreaPostulantes" style="stroke:#181818;stroke-width:1.0;"/><polygon fill="#181818" points="144.13,306.1294,153.9092,307.2984,148.9078,304.6554,151.5508,299.6539,144.13,306.1294" style="stroke:#181818;stroke-width:1.0;"/></g><!--link Activo to EliminaPostulantes--><g id="link_Activo_EliminaPostulantes"><path d="M368.2,257.6094 C343.35,270.3394 312.5804,286.0944 283.7204,300.8744 " fill="none" id="Activo-to-EliminaPostulantes" style="stroke:#181818;stroke-width:1.0;"/><polygon fill="#181818" points="278.38,303.6094,288.2139,303.0672,282.8303,301.3302,284.5673,295.9467,278.38,303.6094" style="stroke:#181818;stroke-width:1.0;"/></g><!--link Activo to DesactivaPostulantes--><g id="link_Activo_DesactivaPostulantes"><path d="M397.5,266.7394 C397.5,278.2294 397.5,285.9294 397.5,297.4194 " fill="none" id="Activo-to-DesactivaPostulantes" style="stroke:#181818;stroke-width:1.0;"/><polygon fill="#181818" points="397.5,303.4194,401.5,294.4194,397.5,298.4194,393.5,294.4194,397.5,303.4194" style="stroke:#181818;stroke-width:1.0;"/></g><!--link Activo to ActualizaPostulantes--><g id="link_Activo_ActualizaPostulantes"><path d="M426.73,261.6094 C429.66,263.3494 432.62,265.0494 435.5,266.6094 C459.96,279.8594 482.3382,290.5002 506.2282,301.1302 " fill="none" id="Activo-to-ActualizaPostulantes" style="stroke:#181818;stroke-width:1.0;"/><polygon fill="#181818" points="511.71,303.5694,505.1134,296.2561,507.1418,301.5367,501.8611,303.5652,511.71,303.5694" style="stroke:#181818;stroke-width:1.0;"/></g><!--link ActualizaPostulantes to acci?n--><g id="link_ActualizaPostulantes_acci&#243;n"><path d="M568.5,353.9294 C568.5,371.4294 568.5,388.2094 568.5,401.5394 " fill="none" id="ActualizaPostulantes-to-acci&#243;n" style="stroke:#181818;stroke-width:1.0;"/><polygon fill="#181818" points="568.5,407.5394,572.5,398.5394,568.5,402.5394,564.5,398.5394,568.5,407.5394" style="stroke:#181818;stroke-width:1.0;"/><text fill="#000000" font-family="sans-serif" font-size="13" lengthAdjust="spacing" textLength="107" x="569.5" y="386.1045">pasa a ser becario</text></g><!--link acci?n to CreaBecario--><g id="link_acci&#243;n_CreaBecario"><path d="M563.68,427.0094 C554.62,439.0494 538.217,460.8246 523.337,480.6046 " fill="none" id="acci&#243;n-to-CreaBecario" style="stroke:#181818;stroke-width:1.0;"/><polygon fill="#181818" points="519.73,485.3994,528.337,480.6119,522.7358,481.4037,521.944,475.8026,519.73,485.3994" style="stroke:#181818;stroke-width:1.0;"/><text fill="#000000" font-family="sans-serif" font-size="13" lengthAdjust="spacing" textLength="10" x="545.5" y="464.1045">si</text></g><!--link acci?n to EliminaPostulante--><g id="link_acci&#243;n_EliminaPostulante"><path d="M573.32,427.0094 C582.38,439.0494 598.783,460.8246 613.663,480.6046 " fill="none" id="acci&#243;n-to-EliminaPostulante" style="stroke:#181818;stroke-width:1.0;"/><polygon fill="#181818" points="617.27,485.3994,615.056,475.8026,614.2642,481.4037,608.663,480.6119,617.27,485.3994" style="stroke:#181818;stroke-width:1.0;"/><text fill="#000000" font-family="sans-serif" font-size="13" lengthAdjust="spacing" textLength="14" x="602.5" y="464.1045">no</text></g><!--link Activo to RevisaEstad?sticasFinales--><g id="link_Activo_RevisaEstad&#237;sticasFinales"><path d="M426.78,262.6494 C429.65,264.1394 432.59,265.4894 435.5,266.6094 C526.85,301.6294 556.64,284.0694 652.5,303.6094 C655.41,304.1994 652.5029,303.5635 655.4929,304.2035 " fill="none" id="Activo-to-RevisaEstad&#237;sticasFinales" style="stroke:#181818;stroke-width:1.0;"/><polygon fill="#181818" points="661.36,305.4594,653.3966,299.6642,656.4707,304.4128,651.7221,307.487,661.36,305.4594" style="stroke:#181818;stroke-width:1.0;"/></g><!--link Activo to Inactivo--><g id="link_Activo_Inactivo"><path d="M426.61,258.8794 C432.56,260.4294 432.5646,261.6372 438.5146,260.7572 " fill="none" id="Activo-to-Inactivo" style="stroke:#181818;stroke-width:1.0;"/><polygon fill="#181818" points="444.45,259.8794,434.9616,257.2392,439.5038,260.6109,436.1321,265.1531,444.45,259.8794" style="stroke:#181818;stroke-width:1.0;"/></g><!--reverse link Activo to Inactivo--><g id="link_Activo_Inactivo"><path d="M432.4162,222.8268 C438.3662,221.2768 438.5,222.4594 444.45,223.3394 " fill="none" id="Activo-backto-Inactivo" style="stroke:#181818;stroke-width:1.0;"/><polygon fill="#181818" points="426.61,224.3394,436.3277,225.9414,431.4485,223.0789,434.311,218.1997,426.61,224.3394" style="stroke:#181818;stroke-width:1.0;"/></g><!--link *start* to UsuarioAdministrador--><g id="link_*start*_UsuarioAdministrador"><path d="M452,26.19 C452,40.26 452,63.16 452,97.66 " fill="none" id="*start*-to-UsuarioAdministrador" style="stroke:#181818;stroke-width:1.0;"/><polygon fill="#181818" points="452,103.66,456,94.66,452,98.66,448,94.66,452,103.66" style="stroke:#181818;stroke-width:1.0;"/><text fill="#000000" font-family="sans-serif" font-size="13" lengthAdjust="spacing" textLength="125" x="453" y="70.4951">se crea administrador</text></g><!--SRC=[TP9DJiD038NtSmgl4Rb0L5KgK2Hs2C4AiN0TKomcCs4y4_4ZZiIA8_HYk2GLWTBDoF9dF_jPeuyIEapOGiFtM7o-vkUyyB8EBOSCP0ydvswFxg2gvd2Z1PF4HTDA4Cq9cvXgK0PAZ83Jj7EQCVE_BMyEm2HDSK5P-bX3O6ALZB1cpH839kYYvkBH5j1Zw3c14Mms7yO9BJMfJ8LNgF02X1sIoP01LfiowDkWKrlmyaTnYfPURBT3z8mLj_4XRa51Bwz_-60UYMJp6M0seuSenFCvr42bxJo3Zmg9dugOxpXAxYdPW9r63Hsg7TdEdM35jBsgTOruj7WovArOvHVSCsab8KwDN74lYilfaS-jmq_iGfNi4ro4xuDictSXLDx0KEJUtHS0]--></g></svg>