<?xml version="1.0" encoding="us-ascii" standalone="no"?><svg xmlns="http://www.w3.org/2000/svg" xmlns:xlink="http://www.w3.org/1999/xlink" contentStyleType="text/css" height="369px" preserveAspectRatio="none" style="width:868px;height:369px;background:#FFFFFF;" version="1.1" viewBox="0 0 868 369" width="868px" zoomAndPan="magnify"><defs/><g><ellipse cx="430.5" cy="16" fill="#222222" rx="10" ry="10" style="stroke:#222222;stroke-width:1.0;"/><path d="M19.5,104 L842,104 A12.5,12.5 0 0 1 854.5,116.5 L854.5,131.6094 L7,131.6094 L7,116.5 A12.5,12.5 0 0 1 19.5,104 " fill="#F1F1F1" style="stroke:#F1F1F1;stroke-width:1.0;"/><rect fill="none" height="259.6094" rx="12.5" ry="12.5" style="stroke:#181818;stroke-width:0.5;" width="847.5" x="7" y="104"/><line style="stroke:#181818;stroke-width:0.5;" x1="7" x2="854.5" y1="131.6094" y2="131.6094"/><text fill="#000000" font-family="sans-serif" font-size="14" lengthAdjust="spacing" textLength="81" x="390.25" y="123.5332">UsuarioSede</text><ellipse cx="397.5" cy="152.6094" fill="#222222" rx="10" ry="10" style="stroke:#222222;stroke-width:1.0;"/><g id="UsuarioSede.Activo"><rect fill="#F1F1F1" height="50" rx="12.5" ry="12.5" style="stroke:#181818;stroke-width:0.5;" width="58" x="368.5" y="216.6094"/><line style="stroke:#181818;stroke-width:0.5;" x1="368.5" x2="426.5" y1="244.2188" y2="244.2188"/><text fill="#000000" font-family="sans-serif" font-size="14" lengthAdjust="spacing" textLength="38" x="378.5" y="236.1426">Activo</text></g><g id="UsuarioSede.CreaPostulantes"><rect fill="#F1F1F1" height="50" rx="12.5" ry="12.5" style="stroke:#181818;stroke-width:0.5;" width="125" x="19" y="303.6094"/><line style="stroke:#181818;stroke-width:0.5;" x1="19" x2="144" y1="331.2188" y2="331.2188"/><text fill="#000000" font-family="sans-serif" font-size="14" lengthAdjust="spacing" textLength="105" x="29" y="323.1426">CreaPostulantes</text></g><g id="UsuarioSede.EliminaPostulantes"><rect fill="#F1F1F1" height="50" rx="12.5" ry="12.5" style="stroke:#181818;stroke-width:0.5;" width="139" x="162" y="303.6094"/><line style="stroke:#181818;stroke-width:0.5;" x1="162" x2="301" y1="331.2188" y2="331.2188"/><text fill="#000000" font-family="sans-serif" font-size="14" lengthAdjust="spacing" textLength="119" x="172" y="323.1426">EliminaPostulantes</text></g><g id="UsuarioSede.DesactivaPostulantes"><rect fill="#F1F1F1" height="50" rx="12.5" ry="12.5" style="stroke:#181818;stroke-width:0.5;" width="156" x="319.5" y="303.6094"/><line style="stroke:#181818;stroke-width:0.5;" x1="319.5" x2="475.5" y1="331.2188" y2="331.2188"/><text fill="#000000" font-family="sans-serif" font-size="14" lengthAdjust="spacing" textLength="136" x="329.5" y="323.1426">DesactivaPostulantes</text></g><g id="UsuarioSede.ActualizaPostulantes"><rect fill="#F1F1F1" height="50" rx="12.5" ry="12.5" style="stroke:#181818;stroke-width:0.5;" width="150" x="493.5" y="303.6094"/><line style="stroke:#181818;stroke-width:0.5;" x1="493.5" x2="643.5" y1="331.2188" y2="331.2188"/><text fill="#000000" font-family="sans-serif" font-size="14" lengthAdjust="spacing" textLength="130" x="503.5" y="323.1426">ActualizaPostulantes</text></g><g id="UsuarioSede.RevisaEstad&#237;sticasFinales"><rect fill="#F1F1F1" height="50" rx="12.5" ry="12.5" style="stroke:#181818;stroke-width:0.5;" width="184" x="661.5" y="303.6094"/><line style="stroke:#181818;stroke-width:0.5;" x1="661.5" x2="845.5" y1="331.2188" y2="331.2188"/><text fill="#000000" font-family="sans-serif" font-size="14" lengthAdjust="spacing" textLength="164" x="671.5" y="323.1426">RevisaEstad&#237;sticasFinales</text></g><g id="UsuarioSede.Inactivo"><rect fill="#F1F1F1" height="50" rx="12.5" ry="12.5" style="stroke:#181818;stroke-width:0.5;" width="68" x="444.5" y="216.6094"/><line style="stroke:#181818;stroke-width:0.5;" x1="444.5" x2="512.5" y1="244.2188" y2="244.2188"/><text fill="#000000" font-family="sans-serif" font-size="14" lengthAdjust="spacing" textLength="48" x="454.5" y="236.1426">Inactivo</text></g><!--link *start*UsuarioSede to Activo--><g id="link_*start*UsuarioSede_Activo"><path d="M397.5,162.9194 C397.5,175.5494 397.5,192.5494 397.5,210.2594 " fill="none" id="*start*UsuarioSede-to-Activo" style="stroke:#181818;stroke-width:1.0;"/><polygon fill="#181818" points="397.5,216.2594,401.5,207.2594,397.5,211.2594,393.5,207.2594,397.5,216.2594" style="stroke:#181818;stroke-width:1.0;"/><text fill="#000000" font-family="sans-serif" font-size="13" lengthAdjust="spacing" textLength="282" x="398.5" y="195.1045">necesita gestionar postulantes y ver estad&#237;sticas</text></g><!--link Activo to CreaPostulantes--><g id="link_Activo_CreaPostulantes"><path d="M368.25,249.0694 C322.1,259.4594 229.69,280.9994 152.5,303.6094 C149.75,304.4094 152.6834,303.4906 149.8634,304.3606 " fill="none" id="Activo-to-CreaPostulantes" style="stroke:#181818;stroke-width:1.0;"/><polygon fill="#181818" points="144.13,306.1294,153.9092,307.2984,148.9078,304.6554,151.5508,299.6539,144.13,306.1294" style="stroke:#181818;stroke-width:1.0;"/></g><!--link Activo to EliminaPostulantes--><g id="link_Activo_EliminaPostulantes"><path d="M368.2,257.6094 C343.35,270.3394 312.5804,286.0944 283.7204,300.8744 " fill="none" id="Activo-to-EliminaPostulantes" style="stroke:#181818;stroke-width:1.0;"/><polygon fill="#181818" points="278.38,303.6094,288.2139,303.0672,282.8303,301.3302,284.5673,295.9467,278.38,303.6094" style="stroke:#181818;stroke-width:1.0;"/></g><!--link Activo to DesactivaPostulantes--><g id="link_Activo_DesactivaPostulantes"><path d="M397.5,266.7394 C397.5,278.2294 397.5,285.9294 397.5,297.4194 " fill="none" id="Activo-to-DesactivaPostulantes" style="stroke:#181818;stroke-width:1.0;"/><polygon fill="#181818" points="397.5,303.4194,401.5,294.4194,397.5,298.4194,393.5,294.4194,397.5,303.4194" style="stroke:#181818;stroke-width:1.0;"/></g><!--link Activo to ActualizaPostulantes--><g id="link_Activo_ActualizaPostulantes"><path d="M426.73,261.6094 C429.66,263.3494 432.62,265.0494 435.5,266.6094 C459.96,279.8594 482.3382,290.5002 506.2282,301.1302 " fill="none" id="Activo-to-ActualizaPostulantes" style="stroke:#181818;stroke-width:1.0;"/><polygon fill="#181818" points="511.71,303.5694,505.1134,296.2561,507.1418,301.5367,501.8611,303.5652,511.71,303.5694" style="stroke:#181818;stroke-width:1.0;"/></g><!--link Activo to RevisaEstad?sticasFinales--><g id="link_Activo_RevisaEstad&#237;sticasFinales"><path d="M426.78,262.6494 C429.65,264.1394 432.59,265.4894 435.5,266.6094 C526.85,301.6294 556.64,284.0694 652.5,303.6094 C655.41,304.1994 652.5029,303.5635 655.4929,304.2035 " fill="none" id="Activo-to-RevisaEstad&#237;sticasFinales" style="stroke:#181818;stroke-width:1.0;"/><polygon fill="#181818" points="661.36,305.4594,653.3966,299.6642,656.4707,304.4128,651.7221,307.487,661.36,305.4594" style="stroke:#181818;stroke-width:1.0;"/></g><!--link Activo to Inactivo--><g id="link_Activo_Inactivo"><path d="M426.61,258.8794 C432.56,260.4294 432.5646,261.6372 438.5146,260.7572 " fill="none" id="Activo-to-Inactivo" style="stroke:#181818;stroke-width:1.0;"/><polygon fill="#181818" points="444.45,259.8794,434.9616,257.2392,439.5038,260.6109,436.1321,265.1531,444.45,259.8794" style="stroke:#181818;stroke-width:1.0;"/></g><!--reverse link Activo to Inactivo--><g id="link_Activo_Inactivo"><path d="M432.4162,222.8268 C438.3662,221.2768 438.5,222.4594 444.45,223.3394 " fill="none" id="Activo-backto-Inactivo" style="stroke:#181818;stroke-width:1.0;"/><polygon fill="#181818" points="426.61,224.3394,436.3277,225.9414,431.4485,223.0789,434.311,218.1997,426.61,224.3394" style="stroke:#181818;stroke-width:1.0;"/></g><!--link *start* to UsuarioSede--><g id="link_*start*_UsuarioSede"><path d="M430.5,26.01 C430.5,40.54 430.5,64.89 430.5,97.99 " fill="none" id="*start*-to-UsuarioSede" style="stroke:#181818;stroke-width:1.0;"/><polygon fill="#181818" points="430.5,103.99,434.5,94.99,430.5,98.99,426.5,94.99,430.5,103.99" style="stroke:#181818;stroke-width:1.0;"/><text fill="#000000" font-family="sans-serif" font-size="13" lengthAdjust="spacing" textLength="125" x="431.5" y="70.4951">se crea administrador</text></g><!--SRC=[TP1DQWCn38NtFiLR5-O2MGH2ca1t8KrMfGjXgq74OmTBC_I77gcdwCMg9fJEPZRcuU_fFI4zIxbGenw9NsZ8Tk1NMsKvbPwB8Vh3BOIdksTqtH977QX9VUJ42oWZDYPGwgM8MgDKtQj6nbFdHm0ymETNqMIi2nIEh6A44wj9BTHmgMf39gzJl67a1aUKlh_S44azuZRiAMiltVtRfsYJnNUPe_UizAldk8k1ihpFyJsFehIPxhNrjZnneMj-feToxQd-_IVHPGStK_WCFm00]--></g></svg>