<svg xmlns="http://www.w3.org/2000/svg" xmlns:xlink="http://www.w3.org/1999/xlink" contentStyleType="text/css" height="537px" preserveAspectRatio="none" style="width:505px;height:537px;background:#FFFFFF;" version="1.1" viewBox="0 0 505 537" width="505px" zoomAndPan="magnify"><defs/><g><rect fill="#F5F5F5" height="40" rx="12.5" ry="12.5" style="stroke:#181818;stroke-width:0.5;" width="131.1396" x="184" y="7"/><text fill="#000000" font-family="sans-serif" font-size="14" lengthAdjust="spacing" textLength="121.1396" x="189" y="31.8467">MENU_PRINCIPAL</text><rect fill="#F5F5F5" height="40" rx="12.5" ry="12.5" style="stroke:#181818;stroke-width:0.5;" width="131.1396" x="184" y="491"/><text fill="#000000" font-family="sans-serif" font-size="14" lengthAdjust="spacing" textLength="121.1396" x="189" y="515.8467">MENU_PRINCIPAL</text><path d="M19.5,107 L479.5,107 A12.5,12.5 0 0 1 492,119.5 L492,133.2969 L7,133.2969 L7,119.5 A12.5,12.5 0 0 1 19.5,107 " fill="#F5F5F5" style="stroke:#F5F5F5;stroke-width:1;"/><rect fill="none" height="324.2969" rx="12.5" ry="12.5" style="stroke:#181818;stroke-width:0.5;" width="485" x="7" y="107"/><line style="stroke:#181818;stroke-width:0.5;" x1="7" x2="492" y1="133.2969" y2="133.2969"/><text fill="#000000" font-family="sans-serif" font-size="14" lengthAdjust="spacing" textLength="98.3418" x="200.3291" y="124.9951">MenuPrincipal</text><rect fill="#F5F5F5" height="40" rx="12.5" ry="12.5" style="stroke:#181818;stroke-width:0.5;" width="50" x="155" y="145.2969"/><text fill="#000000" font-family="sans-serif" font-size="14" lengthAdjust="spacing" textLength="4.4502" x="177.7749" y="170.1436">&#160;</text><g id="elem_BuscarMensajesEnviados"><polygon fill="#F1F1F1" points="180,271.2969,192,283.2969,180,295.2969,168,283.2969,180,271.2969" style="stroke:#181818;stroke-width:0.5;"/></g><rect fill="#F5F5F5" height="40" rx="12.5" ry="12.5" style="stroke:#181818;stroke-width:0.5;" width="50" x="155" y="381.2969"/><text fill="#000000" font-family="sans-serif" font-size="14" lengthAdjust="spacing" textLength="4.4502" x="177.7749" y="406.1436">&#160;</text><!--link SolicitudAbrirMenu to BuscarMensajesEnviados--><g id="link_SolicitudAbrirMenu_BuscarMensajesEnviados"><path d="M180,185.4569 C180,209.9069 180,245.4069 180,265.1769 " fill="none" id="SolicitudAbrirMenu-to-BuscarMensajesEnviados" style="stroke:#008000;stroke-width:1;"/><polygon fill="#008000" points="180,271.1769,184,262.1769,180,266.1769,176,262.1769,180,271.1769" style="stroke:#008000;stroke-width:1;"/><path d="M185,208.2969 L185,248.2969 L350,248.2969 L350,218.2969 L340,208.2969 L185,208.2969 " fill="#F5F5F5" style="stroke:#000000;stroke-width:0.5;"/><path d="M340,208.2969 L340,218.2969 L350,218.2969 L340,208.2969 " fill="#F5F5F5" style="stroke:#000000;stroke-width:0.5;"/><text fill="#000000" font-family="sans-serif" font-size="13" font-weight="bold" lengthAdjust="spacing" textLength="113.3755" x="191" y="225.3638">Usuario solicita</text><ellipse cx="196.5" cy="236.0625" fill="#000000" rx="2.5" ry="2.5" style="stroke:#000000;stroke-width:0;"/><text fill="#000000" font-family="sans-serif" font-size="13" lengthAdjust="spacing" textLength="132.8882" x="203" y="240.4966">Abrir men&#250; principal</text></g><!--link BuscarMensajesEnviados to MostrarMensajesEnviados--><g id="link_BuscarMensajesEnviados_MostrarMensajesEnviados"><path d="M170.35,286.0269 C135.48,292.2669 18,313.2969 18,313.2969 C18,313.2969 18,363.2969 18,363.2969 C18,363.2969 103.2707,382.7707 148.8407,393.1807 " fill="none" id="BuscarMensajesEnviados-to-MostrarMensajesEnviados" style="stroke:#FF0000;stroke-width:1;"/><polygon fill="#FF0000" points="154.69,394.5169,146.8068,388.613,149.8156,393.4034,145.0252,396.4121,154.69,394.5169" style="stroke:#FF0000;stroke-width:1;"/><path d="M23,318.2969 L23,358.2969 L317,358.2969 L317,328.2969 L307,318.2969 L23,318.2969 " fill="#F5F5F5" style="stroke:#000000;stroke-width:0.5;"/><path d="M307,318.2969 L307,328.2969 L317,328.2969 L307,318.2969 " fill="#F5F5F5" style="stroke:#000000;stroke-width:0.5;"/><text fill="#000000" font-family="sans-serif" font-size="13" font-weight="bold" lengthAdjust="spacing" textLength="124.1855" x="29" y="335.3638">Sistema muestra</text><ellipse cx="34.5" cy="346.0625" fill="#000000" rx="2.5" ry="2.5" style="stroke:#000000;stroke-width:0;"/><text fill="#000000" font-family="sans-serif" font-size="13" lengthAdjust="spacing" textLength="261.1743" x="41" y="350.4966">Error obteniendo los mensajes enviados</text></g><!--link BuscarMensajesEnviados to MostrarMensajesEnviados--><g id="link_BuscarMensajesEnviados_MostrarMensajesEnviados"><path d="M189.32,286.1969 C220.91,292.6469 322,313.2969 322,313.2969 C322,313.2969 322,363.2969 322,363.2969 C322,363.2969 251.6362,381.6344 210.8662,392.2544 " fill="none" id="BuscarMensajesEnviados-to-MostrarMensajesEnviados-1" style="stroke:#008000;stroke-width:1;"/><polygon fill="#008000" points="205.06,393.7669,214.7777,395.369,209.8985,392.5065,212.7611,387.6274,205.06,393.7669" style="stroke:#008000;stroke-width:1;"/><path d="M327,318.2969 L327,358.2969 L483,358.2969 L483,328.2969 L473,318.2969 L327,318.2969 " fill="#F5F5F5" style="stroke:#000000;stroke-width:0.5;"/><path d="M473,318.2969 L473,328.2969 L483,328.2969 L473,318.2969 " fill="#F5F5F5" style="stroke:#000000;stroke-width:0.5;"/><text fill="#000000" font-family="sans-serif" font-size="13" font-weight="bold" lengthAdjust="spacing" textLength="124.1855" x="333" y="335.3638">Sistema muestra</text><ellipse cx="338.5" cy="346.0625" fill="#000000" rx="2.5" ry="2.5" style="stroke:#000000;stroke-width:0;"/><text fill="#000000" font-family="sans-serif" font-size="13" lengthAdjust="spacing" textLength="123.1953" x="345" y="350.4966">Mensajes enviados</text></g><!--link startState to MenuPrincipal--><g id="link_startState_MenuPrincipal"><path d="M249.5,47.23 C249.5,61.69 249.5,77.04 249.5,100.85 " fill="none" id="startState-to-MenuPrincipal" style="stroke:#008000;stroke-width:1;"/><polygon fill="#008000" points="249.5,106.85,253.5,97.85,249.5,101.85,245.5,97.85,249.5,106.85" style="stroke:#008000;stroke-width:1;"/></g><!--link MenuPrincipal to endState--><g id="link_MenuPrincipal_endState"><path d="M237.44,431.08 C238.27,454.91 238.9001,470.3557 241.2201,484.8257 " fill="none" id="MenuPrincipal-to-endState" style="stroke:#FF0000;stroke-width:1;"/><polygon fill="#FF0000" points="242.17,490.75,244.6948,481.2303,241.3785,485.8131,236.7957,482.4967,242.17,490.75" style="stroke:#FF0000;stroke-width:1;"/></g><!--link MenuPrincipal to endState--><g id="link_MenuPrincipal_endState"><path d="M262.27,431.08 C261.39,454.91 260.7256,470.3649 258.2656,484.8349 " fill="none" id="MenuPrincipal-to-endState-1" style="stroke:#008000;stroke-width:1;"/><polygon fill="#008000" points="257.26,490.75,262.7118,482.5477,258.098,485.8207,254.825,481.2069,257.26,490.75" style="stroke:#008000;stroke-width:1;"/></g><!--SRC=[jLB1Qi904BtdAmQz5QG_408g7eH6fC5JAMMJ7NHhiXDcDnKf_R5U-sFTNQD6YT9Bzn2Il3VllPqPirMw5Ymg-8p0dGLPd8XYksPgj9nIIGp3tKPPp2hQOk2CcMdNGcj6rETAOedSGddfT09KAersNoFKLExzH_GLHURaRAomsFhVytP56oKHiAhj7YIQWbLj5Mad5YJSasqMNeM1GJfRhDwMp_F5TBuSFmrQ4cfvcnAKZXgZKG8fwcR9IXUg5kNHv-9d6_o0P5IgGjb6ZdDMx7d11WOTpgGnXV2O4UzePlf32Ka6uhZOa2emIJhSb8pb7d8h6fWzdZvvlqseq6vKGDhFvJ0WV-8yMPb6i28m1qKHF-R92N-0e0yLwfzlg4yzyPZhQH0z1BfnmT7Ba56- -gRst-fkjamPYvM0ga5VV1LjvbQIWNABMham1AKph5fz5wzZyBUi_v8olH_8xVVbPfqxTbpQQq87-WK0]--></g></svg>