<svg xmlns="http://www.w3.org/2000/svg" xmlns:xlink="http://www.w3.org/1999/xlink" contentStyleType="text/css" height="588px" preserveAspectRatio="none" style="width:505px;height:588px;background:#FFFFFF;" version="1.1" viewBox="0 0 505 588" width="505px" zoomAndPan="magnify"><defs/><g><rect fill="#F5F5F5" height="40" rx="12.5" ry="12.5" style="stroke:#181818;stroke-width:0.5;" width="131.1396" x="184" y="7"/><text fill="#000000" font-family="sans-serif" font-size="14" lengthAdjust="spacing" textLength="121.1396" x="189" y="31.8467">MENU_PRINCIPAL</text><rect fill="#F5F5F5" height="40" rx="12.5" ry="12.5" style="stroke:#181818;stroke-width:0.5;" width="131.1396" x="184" y="542"/><text fill="#000000" font-family="sans-serif" font-size="14" lengthAdjust="spacing" textLength="121.1396" x="189" y="566.8467">MENU_PRINCIPAL</text><path d="M19.5,157 L479.5,157 A12.5,12.5 0 0 1 492,169.5 L492,183.2969 L7,183.2969 L7,169.5 A12.5,12.5 0 0 1 19.5,157 " fill="#F5F5F5" style="stroke:#F5F5F5;stroke-width:1;"/><rect fill="none" height="324.2969" rx="12.5" ry="12.5" style="stroke:#181818;stroke-width:0.5;" width="485" x="7" y="157"/><line style="stroke:#181818;stroke-width:0.5;" x1="7" x2="492" y1="183.2969" y2="183.2969"/><text fill="#000000" font-family="sans-serif" font-size="14" lengthAdjust="spacing" textLength="98.3418" x="200.3291" y="174.9951">MenuPrincipal</text><rect fill="#F5F5F5" height="40" rx="12.5" ry="12.5" style="stroke:#181818;stroke-width:0.5;" width="50" x="155" y="195.2969"/><text fill="#000000" font-family="sans-serif" font-size="14" lengthAdjust="spacing" textLength="4.4502" x="177.7749" y="220.1436">&#160;</text><g id="elem_BuscarMensajesEnviados"><polygon fill="#F1F1F1" points="180,321.2969,192,333.2969,180,345.2969,168,333.2969,180,321.2969" style="stroke:#181818;stroke-width:0.5;"/></g><rect fill="#F5F5F5" height="40" rx="12.5" ry="12.5" style="stroke:#181818;stroke-width:0.5;" width="50" x="155" y="431.2969"/><text fill="#000000" font-family="sans-serif" font-size="14" lengthAdjust="spacing" textLength="4.4502" x="177.7749" y="456.1436">&#160;</text><!--link SolicitudAbrirMenu to BuscarMensajesEnviados--><g id="link_SolicitudAbrirMenu_BuscarMensajesEnviados"><path d="M180,235.4569 C180,259.9069 180,295.4069 180,315.1769 " fill="none" id="SolicitudAbrirMenu-to-BuscarMensajesEnviados" style="stroke:#008000;stroke-width:1;"/><polygon fill="#008000" points="180,321.1769,184,312.1769,180,316.1769,176,312.1769,180,321.1769" style="stroke:#008000;stroke-width:1;"/><path d="M185,258.2969 L185,298.2969 L350,298.2969 L350,268.2969 L340,258.2969 L185,258.2969 " fill="#F5F5F5" style="stroke:#000000;stroke-width:0.5;"/><path d="M340,258.2969 L340,268.2969 L350,268.2969 L340,258.2969 " fill="#F5F5F5" style="stroke:#000000;stroke-width:0.5;"/><text fill="#000000" font-family="sans-serif" font-size="13" font-weight="bold" lengthAdjust="spacing" textLength="116.9302" x="191" y="275.3638">Sistena Permite</text><ellipse cx="196.5" cy="286.0625" fill="#000000" rx="2.5" ry="2.5" style="stroke:#000000;stroke-width:0;"/><text fill="#000000" font-family="sans-serif" font-size="13" lengthAdjust="spacing" textLength="132.8882" x="203" y="290.4966">Abrir men&#250; principal</text></g><!--link BuscarMensajesEnviados to MostrarMensajesEnviados--><g id="link_BuscarMensajesEnviados_MostrarMensajesEnviados"><path d="M170.35,336.0269 C135.48,342.2669 18,363.2969 18,363.2969 C18,363.2969 18,413.2969 18,413.2969 C18,413.2969 103.2707,432.7707 148.8407,443.1807 " fill="none" id="BuscarMensajesEnviados-to-MostrarMensajesEnviados" style="stroke:#FF0000;stroke-width:1;"/><polygon fill="#FF0000" points="154.69,444.5169,146.8068,438.613,149.8156,443.4034,145.0252,446.4121,154.69,444.5169" style="stroke:#FF0000;stroke-width:1;"/><path d="M23,368.2969 L23,408.2969 L317,408.2969 L317,378.2969 L307,368.2969 L23,368.2969 " fill="#F5F5F5" style="stroke:#000000;stroke-width:0.5;"/><path d="M307,368.2969 L307,378.2969 L317,378.2969 L307,368.2969 " fill="#F5F5F5" style="stroke:#000000;stroke-width:0.5;"/><text fill="#000000" font-family="sans-serif" font-size="13" font-weight="bold" lengthAdjust="spacing" textLength="124.1855" x="29" y="385.3638">Sistema muestra</text><ellipse cx="34.5" cy="396.0625" fill="#000000" rx="2.5" ry="2.5" style="stroke:#000000;stroke-width:0;"/><text fill="#000000" font-family="sans-serif" font-size="13" lengthAdjust="spacing" textLength="261.1743" x="41" y="400.4966">Error obteniendo los mensajes enviados</text></g><!--link BuscarMensajesEnviados to MostrarMensajesEnviados--><g id="link_BuscarMensajesEnviados_MostrarMensajesEnviados"><path d="M189.32,336.1969 C220.91,342.6469 322,363.2969 322,363.2969 C322,363.2969 322,413.2969 322,413.2969 C322,413.2969 251.6362,431.6344 210.8662,442.2544 " fill="none" id="BuscarMensajesEnviados-to-MostrarMensajesEnviados-1" style="stroke:#008000;stroke-width:1;"/><polygon fill="#008000" points="205.06,443.7669,214.7777,445.369,209.8985,442.5065,212.7611,437.6274,205.06,443.7669" style="stroke:#008000;stroke-width:1;"/><path d="M327,368.2969 L327,408.2969 L483,408.2969 L483,378.2969 L473,368.2969 L327,368.2969 " fill="#F5F5F5" style="stroke:#000000;stroke-width:0.5;"/><path d="M473,368.2969 L473,378.2969 L483,378.2969 L473,368.2969 " fill="#F5F5F5" style="stroke:#000000;stroke-width:0.5;"/><text fill="#000000" font-family="sans-serif" font-size="13" font-weight="bold" lengthAdjust="spacing" textLength="124.1855" x="333" y="385.3638">Sistema muestra</text><ellipse cx="338.5" cy="396.0625" fill="#000000" rx="2.5" ry="2.5" style="stroke:#000000;stroke-width:0;"/><text fill="#000000" font-family="sans-serif" font-size="13" lengthAdjust="spacing" textLength="123.1953" x="345" y="400.4966">Mensajes enviados</text></g><!--link startState to MenuPrincipal--><g id="link_startState_MenuPrincipal"><path d="M249.5,47.03 C249.5,70.47 249.5,106.64 249.5,150.83 " fill="none" id="startState-to-MenuPrincipal" style="stroke:#008000;stroke-width:1;"/><polygon fill="#008000" points="249.5,156.83,253.5,147.83,249.5,151.83,245.5,147.83,249.5,156.83" style="stroke:#008000;stroke-width:1;"/><path d="M254.5,82 L254.5,122 L419.5,122 L419.5,92 L409.5,82 L254.5,82 " fill="#F5F5F5" style="stroke:#000000;stroke-width:0.5;"/><path d="M409.5,82 L409.5,92 L419.5,92 L409.5,82 " fill="#F5F5F5" style="stroke:#000000;stroke-width:0.5;"/><text fill="#000000" font-family="sans-serif" font-size="13" font-weight="bold" lengthAdjust="spacing" textLength="113.3755" x="260.5" y="99.0669">Usuario solicita</text><ellipse cx="266" cy="109.7656" fill="#000000" rx="2.5" ry="2.5" style="stroke:#000000;stroke-width:0;"/><text fill="#000000" font-family="sans-serif" font-size="13" lengthAdjust="spacing" textLength="132.8882" x="272.5" y="114.1997">Abrir men&#250; principal</text></g><!--link MenuPrincipal to endState--><g id="link_MenuPrincipal_endState"><path d="M237.42,481.09 C238.24,505.35 238.877,521.2062 241.237,535.8762 " fill="none" id="MenuPrincipal-to-endState" style="stroke:#FF0000;stroke-width:1;"/><polygon fill="#FF0000" points="242.19,541.8,244.7097,532.2789,241.3958,536.8635,236.8113,533.5496,242.19,541.8" style="stroke:#FF0000;stroke-width:1;"/></g><!--link MenuPrincipal to endState--><g id="link_MenuPrincipal_endState"><path d="M262.3,481.09 C261.42,505.35 260.734,521.2146 258.244,535.8846 " fill="none" id="MenuPrincipal-to-endState-1" style="stroke:#008000;stroke-width:1;"/><polygon fill="#008000" points="257.24,541.8,262.6897,533.5963,258.0767,536.8705,254.8025,532.2575,257.24,541.8" style="stroke:#008000;stroke-width:1;"/></g><!--SRC=[jLF1Qi904BtdAmQz5QG_408g7eH6GeEdKiec6NHhiXDcDnKf_R5U-sFTNQD6YROKkeUGvRrvxytihjv8LGiM5Rm7ODU234v4lbanDQgOKaaCm-rQ6amhsg3dZ9bfsq8hHbIdIk82kOMoqkfug9GApQv6gAdSkKtm4GJwwAoDCDZwt_AsHMjP861LcnqKg7EMjP6ah9YNi5ysgVyL6WRnRB5yIHxdY-ay6JyCMXAguZh5AnqqHgC8ObHDmbBbiXPbe6oFGCerjE_ChJ2BbheHB0aqbJANHeJtMNJ4xs2SiMIeK7rzGdqKSvWD0qxqqC6PNJkIFPBkfPl2YpcURm067SwaqRbmc1Qlg6VgJOg2D8HXlYQPOnHrk35fmptaLjGpUppTJFfjVCMr0QLI6rG24kJAdkSVvkClHtz_ewSXO_7iJgk_gP-ZLGAg1btnHRIPlUiCbDdqqeOXAArXrUhRU1s3tsNzbvJnxK3suPnVhDF43g_Xaj21lW40]--></g></svg>