<svg xmlns="http://www.w3.org/2000/svg" xmlns:xlink="http://www.w3.org/1999/xlink" contentStyleType="text/css" height="1196px" preserveAspectRatio="none" style="width:585px;height:1196px;background:#FFFFFF;" version="1.1" viewBox="0 0 585 1196" width="585px" zoomAndPan="magnify"><defs/><g><!--cluster Funciones Combinadas--><g id="cluster_Funciones Combinadas"><rect fill="none" height="953" rx="2.5" ry="2.5" style="stroke:#181818;stroke-width:1;" width="430" x="149" y="7"/><text fill="#000000" font-family="sans-serif" font-size="14" font-weight="bold" lengthAdjust="spacing" textLength="181.3984" x="273.3008" y="21.9951">Funciones Combinadas</text></g><!--cluster Consultas Comunes--><g id="cluster_Consultas Comunes"><rect fill="none" height="206" rx="2.5" ry="2.5" style="stroke:#181818;stroke-width:1;" width="359" x="184.5" y="984"/><text fill="#000000" font-family="sans-serif" font-size="14" font-weight="bold" lengthAdjust="spacing" textLength="154.5469" x="286.7266" y="998.9951">Consultas Comunes</text></g><g id="elem_UC1"><ellipse cx="363.9492" cy="75.0898" fill="#F1F1F1" rx="153.4492" ry="33.0898" style="stroke:#181818;stroke-width:0.5;"/><text fill="#000000" font-family="sans-serif" font-size="14" lengthAdjust="spacing" textLength="277.6553" x="225.1216" y="77.9365">Validar/modificar datos del profesorado</text></g><g id="elem_UC2"><ellipse cx="364.0077" cy="184.2015" fill="#F1F1F1" rx="191.5077" ry="40.7015" style="stroke:#181818;stroke-width:0.5;"/><text fill="#000000" font-family="sans-serif" font-size="14" lengthAdjust="spacing" textLength="356.1045" x="185.9555" y="187.0482">Introducir datos de contrato y categor&#237;a (herencia)</text></g><g id="elem_UC3"><ellipse cx="363.9298" cy="302.186" fill="#F1F1F1" rx="198.9298" ry="42.186" style="stroke:#181818;stroke-width:0.5;"/><text fill="#000000" font-family="sans-serif" font-size="14" lengthAdjust="spacing" textLength="371.2939" x="178.2828" y="305.0326">Revisar profesores con carga no ajustada al contrato</text></g><g id="elem_UC4"><ellipse cx="364.1959" cy="407.9392" fill="#F1F1F1" rx="132.6959" ry="28.9392" style="stroke:#181818;stroke-width:0.5;"/><text fill="#000000" font-family="sans-serif" font-size="14" lengthAdjust="spacing" textLength="234.2607" x="247.0655" y="410.7859">Asignar carga docente (herencia)</text></g><g id="elem_UC5"><ellipse cx="364.1476" cy="511.0295" fill="#F1F1F1" rx="183.1476" ry="39.0295" style="stroke:#181818;stroke-width:0.5;"/><text fill="#000000" font-family="sans-serif" font-size="14" lengthAdjust="spacing" textLength="338.96" x="194.6676" y="513.8762">Revisar cumplimiento de memoria por titulaci&#243;n</text></g><g id="elem_UC6"><ellipse cx="363.7693" cy="627.1539" fill="#F1F1F1" rx="198.7693" ry="42.1539" style="stroke:#181818;stroke-width:0.5;"/><text fill="#000000" font-family="sans-serif" font-size="14" lengthAdjust="spacing" textLength="370.9658" x="178.2864" y="630.0005">Asignar valores en memoria por titulaci&#243;n (herencia)</text></g><g id="elem_UC7"><ellipse cx="364.1768" cy="728.1354" fill="#F1F1F1" rx="106.1768" ry="23.6354" style="stroke:#181818;stroke-width:0.5;"/><text fill="#000000" font-family="sans-serif" font-size="14" lengthAdjust="spacing" textLength="177.584" x="275.3848" y="730.982">Asignar datos a SIIU/DGU</text></g><g id="elem_UC8"><ellipse cx="363.8354" cy="815.9671" fill="#F1F1F1" rx="132.8354" ry="28.9671" style="stroke:#181818;stroke-width:0.5;"/><text fill="#000000" font-family="sans-serif" font-size="14" lengthAdjust="spacing" textLength="234.5547" x="246.558" y="818.8138">Validar memoria vs compromisos</text></g><g id="elem_UC9"><ellipse cx="363.8761" cy="912.0752" fill="#F1F1F1" rx="148.3761" ry="32.0752" style="stroke:#181818;stroke-width:0.5;"/><text fill="#000000" font-family="sans-serif" font-size="14" lengthAdjust="spacing" textLength="267.1006" x="230.3258" y="914.9219">Obtener indicadores y emitir informes</text></g><g id="elem_UC10"><ellipse cx="363.8873" cy="1044.1775" fill="#F1F1F1" rx="111.3873" ry="24.6775" style="stroke:#181818;stroke-width:0.5;"/><text fill="#000000" font-family="sans-serif" font-size="14" lengthAdjust="spacing" textLength="188.877" x="269.4489" y="1047.0241">Consultar claustro docente</text></g><g id="elem_UC11"><ellipse cx="363.9267" cy="1139.0853" fill="#F1F1F1" rx="163.4267" ry="35.0853" style="stroke:#181818;stroke-width:0.5;"/><text fill="#000000" font-family="sans-serif" font-size="14" lengthAdjust="spacing" textLength="298.334" x="214.7597" y="1141.932">Consultar asignaci&#243;n docente por profesor</text></g><!--entity A_Administrador--><g id="elem_A_Administrador"><ellipse cx="55.54" cy="597.5" fill="#F1F1F1" rx="8" ry="8" style="stroke:#181818;stroke-width:0.5;"/><path d="M55.54,605.5 L55.54,632.5 M42.54,613.5 L68.54,613.5 M55.54,632.5 L42.54,647.5 M55.54,632.5 L68.54,647.5 " fill="none" style="stroke:#181818;stroke-width:0.5;"/><text fill="#000000" font-family="sans-serif" font-size="14" lengthAdjust="spacing" textLength="99.0801" x="6" y="661.9951">Administrador</text></g><!--link A_Administrador to UC1--><g id="link_A_Administrador_UC1"><path d="M57.62,588.94 C61.5,483.85 77.84,192.98 141,126 C160.87,104.92 181.7864,93.3976 209.7464,85.3076 " fill="none" id="A_Administrador-to-UC1" style="stroke:#181818;stroke-width:1;"/><polygon fill="#181818" points="215.51,83.64,205.7529,82.2991,210.707,85.0297,207.9764,89.9839,215.51,83.64" style="stroke:#181818;stroke-width:1;"/></g><!--link A_Administrador to UC2--><g id="link_A_Administrador_UC2"><path d="M59.86,588.84 C68.31,501.69 93.22,291.7 141,242 C157.01,225.34 171.5972,215.5083 193.1972,206.7783 " fill="none" id="A_Administrador-to-UC2" style="stroke:#181818;stroke-width:1;"/><polygon fill="#181818" points="198.76,204.53,188.9169,204.1939,194.1243,206.4036,191.9146,211.611,198.76,204.53" style="stroke:#181818;stroke-width:1;"/></g><!--link A_Administrador to UC3--><g id="link_A_Administrador_UC3"><path d="M57.57,588.9 C61.3,531.22 76.99,422.02 141,361 C157.31,345.45 171.6692,336.1433 192.8192,327.5733 " fill="none" id="A_Administrador-to-UC3" style="stroke:#181818;stroke-width:1;"/><polygon fill="#181818" points="198.38,325.32,188.5366,324.9927,193.746,327.1977,191.5409,332.4071,198.38,325.32" style="stroke:#181818;stroke-width:1;"/></g><!--link A_Administrador to UC4--><g id="link_A_Administrador_UC4"><path d="M64.72,588.69 C75.34,548.79 97.84,487.52 141,454 C167.73,433.24 195.6822,422.4347 228.8122,415.6447 " fill="none" id="A_Administrador-to-UC4" style="stroke:#181818;stroke-width:1;"/><polygon fill="#181818" points="234.69,414.44,225.0702,412.3284,229.7918,415.4439,226.6764,420.1655,234.69,414.44" style="stroke:#181818;stroke-width:1;"/></g><!--link A_Administrador to UC5--><g id="link_A_Administrador_UC5"><path d="M103.76,588.84 C115.43,580.75 128.26,572.88 141,567 C167.8,554.64 191.9376,546.2945 220.9276,538.4645 " fill="none" id="A_Administrador-to-UC5" style="stroke:#181818;stroke-width:1;"/><polygon fill="#181818" points="226.72,536.9,216.9883,535.3851,221.893,538.2037,219.0743,543.1084,226.72,536.9" style="stroke:#181818;stroke-width:1;"/></g><!--link A_Administrador to UC6--><g id="link_A_Administrador_UC6"><path d="M105.07,627 C122.28,627 136.88,627 158.82,627 " fill="none" id="A_Administrador-to-UC6" style="stroke:#181818;stroke-width:1;"/><polygon fill="#181818" points="164.82,627,155.82,623,159.82,627,155.82,631,164.82,627" style="stroke:#181818;stroke-width:1;"/></g><!--link A_Administrador to UC7--><g id="link_A_Administrador_UC7"><path d="M103.59,665.06 C115.27,673 128.14,680.59 141,686 C180.41,702.58 220.5788,711.7541 260.5188,717.8541 " fill="none" id="A_Administrador-to-UC7" style="stroke:#181818;stroke-width:1;"/><polygon fill="#181818" points="266.45,718.76,258.1571,713.447,261.5073,718.0051,256.9493,721.3553,266.45,718.76" style="stroke:#181818;stroke-width:1;"/></g><!--link A_Administrador to UC8--><g id="link_A_Administrador_UC8"><path d="M69.2,665.06 C82.1,697.72 105.31,743.45 141,769 C168.79,788.89 197.3648,799.4827 230.7648,806.4027 " fill="none" id="A_Administrador-to-UC8" style="stroke:#181818;stroke-width:1;"/><polygon fill="#181818" points="236.64,807.62,228.6387,801.8773,231.744,806.6056,227.0157,809.7109,236.64,807.62" style="stroke:#181818;stroke-width:1;"/></g><!--link A_Administrador to UC9--><g id="link_A_Administrador_UC9"><path d="M59.19,665.37 C65.01,717.78 83.33,811.05 141,862 C163.72,882.07 186.974,893.0966 216.514,900.7966 " fill="none" id="A_Administrador-to-UC9" style="stroke:#181818;stroke-width:1;"/><polygon fill="#181818" points="222.32,902.31,214.6199,896.1692,217.4817,901.0488,212.6021,903.9105,222.32,902.31" style="stroke:#181818;stroke-width:1;"/></g><!--link A_Administrador to UC10--><g id="link_A_Administrador_UC10"><path d="M61.7,665.22 C73,743.04 101.92,916.23 141,960 C174.62,997.66 221.0842,1017.0349 266.4642,1028.5449 " fill="none" id="A_Administrador-to-UC10" style="stroke:#181818;stroke-width:1;"/><polygon fill="#181818" points="272.28,1030.02,264.5396,1023.9301,267.4335,1028.7907,262.5728,1031.6846,272.28,1030.02" style="stroke:#181818;stroke-width:1;"/></g><!--link A_Administrador to UC11--><g id="link_A_Administrador_UC11"><path d="M58.3,665.04 C63.75,763.88 83.41,1025.32 141,1086 C159.68,1105.69 178.5514,1116.7828 204.5414,1125.1928 " fill="none" id="A_Administrador-to-UC11" style="stroke:#181818;stroke-width:1;"/><polygon fill="#181818" points="210.25,1127.04,202.9186,1120.4635,205.4929,1125.5007,200.4557,1128.0749,210.25,1127.04" style="stroke:#181818;stroke-width:1;"/></g><!--SRC=[TLBBRjim4BphAnO-jOSWTjwv531SjF2fG0hd6cp8jR85oJL8oa1Gv9DooYVanxgIfGIgHTyyuipipewZROOi4Bb-oc0vaiaieQhGP8amMrhFWLEEQ2NE01Ci7qPOLRKK3BKZcFreWb4s9LY9V-I05jCC_bQWloQHmQIFxj6nnNZgnVAM3KQmc2M19GUxA5jAqYftPflLOanUXnp5DeO_MM14GVq3ps0mKotn_HNXonD5qd7mQwzqDbQwepqdDHyiTMWLKeLO8mG1_DEah0i0kW-7NkbyhBHCN0TLEb2j60gPZlqlflrDutUEFIj9scqyUOcCiDFuC-V6eU7tjz2BN4vRxz5r6r0eyO_dkPgMEiIAy7kztfn-_xdfNrzF7l73RT-cvpLBpqbIpxaPStuzPWeKWOFLizjku6SWpvbRS2lHqq2zhLv6pLf9I8tBs3Mh2NHSg-659kfGJnTbECNGf7c9WDtgXvY6yxNn3TKO11RjKF_r7qvEldKrdSRF2lXv0Ryeu9S5_Ag0NnVmcm9-MzfhNlgm-0S0]--></g></svg>