<svg xmlns="http://www.w3.org/2000/svg" xmlns:xlink="http://www.w3.org/1999/xlink" contentStyleType="text/css" data-diagram-type="DESCRIPTION" height="1268px" preserveAspectRatio="none" style="width:1008px;height:1268px;background:#FFFFFF;" version="1.1" viewBox="0 0 1008 1268" width="1008px" zoomAndPan="magnify"><defs/><g><!--cluster Gesti?n de Carga Docente--><g id="cluster_Gesti&#243;n de Carga Docente"><path d="M8.5,6 L215.3164,6 A3.75,3.75 0 0 1 217.8164,8.5 L224.8164,28.2969 L999.39,28.2969 A2.5,2.5 0 0 1 1001.89,30.7969 L1001.89,1258.5 A2.5,2.5 0 0 1 999.39,1261 L8.5,1261 A2.5,2.5 0 0 1 6,1258.5 L6,8.5 A2.5,2.5 0 0 1 8.5,6 " fill="transparent" style="stroke:#000000;stroke-width:1.5;"/><line style="stroke:#000000;stroke-width:1.5;" x1="6" x2="224.8164" y1="28.2969" y2="28.2969"/><text fill="#000000" font-family="sans-serif" font-size="14" font-weight="bold" lengthAdjust="spacing" textLength="205.8164" x="10" y="20.9951">Gesti&#243;n de Carga Docente</text></g><!--cluster Asignaciones--><g id="cluster_Asignaciones"><rect fill="transparent" height="866" rx="2.5" ry="2.5" style="stroke:#181818;stroke-width:1;" width="686.91" x="290.98" y="371"/><text fill="#000000" font-family="sans-serif" font-size="14" font-weight="bold" lengthAdjust="spacing" textLength="103.9131" x="582.4785" y="385.9951">Asignaciones</text></g><!--cluster cargaDocentePackage--><g id="cluster_cargaDocentePackage"><path d="M371.45,422 L488.6063,422 A3.75,3.75 0 0 1 491.1063,424.5 L498.1063,444.2969 L558.97,444.2969 A2.5,2.5 0 0 1 561.47,446.7969 L561.47,614.5 A2.5,2.5 0 0 1 558.97,617 L371.45,617 A2.5,2.5 0 0 1 368.95,614.5 L368.95,424.5 A2.5,2.5 0 0 1 371.45,422 " fill="transparent" style="stroke:#000000;stroke-width:1.5;"/><line style="stroke:#000000;stroke-width:1.5;" x1="368.95" x2="498.1063" y1="444.2969" y2="444.2969"/><text fill="#000000" font-family="sans-serif" font-size="14" font-weight="bold" lengthAdjust="spacing" textLength="116.1563" x="372.95" y="436.9951">Carga Docente</text></g><!--cluster valoresPackage--><g id="cluster_valoresPackage"><path d="M351.04,657 L411.4716,657 A3.75,3.75 0 0 1 413.9716,659.5 L420.9716,679.2969 L579.38,679.2969 A2.5,2.5 0 0 1 581.88,681.7969 L581.88,926.5 A2.5,2.5 0 0 1 579.38,929 L351.04,929 A2.5,2.5 0 0 1 348.54,926.5 L348.54,659.5 A2.5,2.5 0 0 1 351.04,657 " fill="transparent" style="stroke:#000000;stroke-width:1.5;"/><line style="stroke:#000000;stroke-width:1.5;" x1="348.54" x2="420.9716" y1="679.2969" y2="679.2969"/><text fill="#000000" font-family="sans-serif" font-size="14" font-weight="bold" lengthAdjust="spacing" textLength="59.4316" x="352.54" y="671.9951">Valores</text></g><!--cluster SIIUyDGUPackage--><g id="cluster_SIIUyDGUPackage"><path d="M325.48,969 L411.7036,969 A3.75,3.75 0 0 1 414.2036,971.5 L421.2036,991.2969 L943.39,991.2969 A2.5,2.5 0 0 1 945.89,993.7969 L945.89,1202.5 A2.5,2.5 0 0 1 943.39,1205 L325.48,1205 A2.5,2.5 0 0 1 322.98,1202.5 L322.98,971.5 A2.5,2.5 0 0 1 325.48,969 " fill="transparent" style="stroke:#000000;stroke-width:1.5;"/><line style="stroke:#000000;stroke-width:1.5;" x1="322.98" x2="421.2036" y1="991.2969" y2="991.2969"/><text fill="#000000" font-family="sans-serif" font-size="14" font-weight="bold" lengthAdjust="spacing" textLength="85.2236" x="326.98" y="983.9951">SIIU y DGU</text></g><!--cluster Tipos--><g id="cluster_Tipos"><path d="M667.7,1028 L711.0213,1028 A3.75,3.75 0 0 1 713.5213,1030.5 L720.5213,1050.2969 L781.85,1050.2969 A2.5,2.5 0 0 1 784.35,1052.7969 L784.35,1170.5 A2.5,2.5 0 0 1 781.85,1173 L667.7,1173 A2.5,2.5 0 0 1 665.2,1170.5 L665.2,1030.5 A2.5,2.5 0 0 1 667.7,1028 " fill="transparent" style="stroke:#000000;stroke-width:1.5;"/><line style="stroke:#000000;stroke-width:1.5;" x1="665.2" x2="720.5213" y1="1050.2969" y2="1050.2969"/><text fill="#000000" font-family="sans-serif" font-size="14" font-weight="bold" lengthAdjust="spacing" textLength="42.3213" x="669.2" y="1042.9951">Tipos</text></g><!--cluster Revisi?n de Cumplimiento--><g id="cluster_Revisi&#243;n de Cumplimiento"><rect fill="transparent" height="298" rx="2.5" ry="2.5" style="stroke:#181818;stroke-width:1;" width="351.98" x="289.22" y="49"/><text fill="#000000" font-family="sans-serif" font-size="14" font-weight="bold" lengthAdjust="spacing" textLength="205.7891" x="362.3155" y="63.9951">Revisi&#243;n de Cumplimiento</text></g><!--cluster revisionPackage--><g id="cluster_revisionPackage"><path d="M323.72,100 L391.637,100 A3.75,3.75 0 0 1 394.137,102.5 L401.137,122.2969 L606.7,122.2969 A2.5,2.5 0 0 1 609.2,124.7969 L609.2,312.5 A2.5,2.5 0 0 1 606.7,315 L323.72,315 A2.5,2.5 0 0 1 321.22,312.5 L321.22,102.5 A2.5,2.5 0 0 1 323.72,100 " fill="transparent" style="stroke:#000000;stroke-width:1.5;"/><line style="stroke:#000000;stroke-width:1.5;" x1="321.22" x2="401.137" y1="122.2969" y2="122.2969"/><text fill="#000000" font-family="sans-serif" font-size="14" font-weight="bold" lengthAdjust="spacing" textLength="66.917" x="325.22" y="114.9951">Revision</text></g><!--entity ord--><g id="elem_ord"><ellipse cx="117.1065" cy="269.35" fill="#F1F1F1" rx="8" ry="8" style="stroke:#181818;stroke-width:0.5;"/><path d="M117.1065,277.35 L117.1065,304.35 M104.1065,285.35 L130.1065,285.35 M117.1065,304.35 L104.1065,319.35 M117.1065,304.35 L130.1065,319.35 " fill="transparent" style="stroke:#181818;stroke-width:0.5;"/><text fill="#000000" font-family="sans-serif" font-size="14" lengthAdjust="spacing" textLength="80.7529" x="76.73" y="333.8451">Ordenaci&#243;n</text></g><!--entity tec--><g id="elem_tec"><ellipse cx="117.1121" cy="844.35" fill="#F1F1F1" rx="8" ry="8" style="stroke:#181818;stroke-width:0.5;"/><path d="M117.1121,852.35 L117.1121,879.35 M104.1121,860.35 L130.1121,860.35 M117.1121,879.35 L104.1121,894.35 M117.1121,879.35 L130.1121,894.35 " fill="transparent" style="stroke:#181818;stroke-width:0.5;"/><text fill="#000000" font-family="sans-serif" font-size="14" lengthAdjust="spacing" textLength="110.8242" x="61.7" y="908.8451">T&#233;cnico Calidad</text></g><!--entity rrhh--><g id="elem_rrhh"><ellipse cx="117.1149" cy="97.35" fill="#F1F1F1" rx="8" ry="8" style="stroke:#181818;stroke-width:0.5;"/><path d="M117.1149,105.35 L117.1149,132.35 M104.1149,113.35 L130.1149,113.35 M117.1149,132.35 L104.1149,147.35 M117.1149,132.35 L130.1149,147.35 " fill="transparent" style="stroke:#181818;stroke-width:0.5;"/><text fill="#000000" font-family="sans-serif" font-size="14" lengthAdjust="spacing" textLength="40.5098" x="96.86" y="161.8451">RRHH</text></g><!--entity admin--><g id="elem_admin"><ellipse cx="117.11" cy="959.35" fill="#F1F1F1" rx="8" ry="8" style="stroke:#181818;stroke-width:0.5;"/><path d="M117.11,967.35 L117.11,994.35 M104.11,975.35 L130.11,975.35 M117.11,994.35 L104.11,1009.35 M117.11,994.35 L130.11,1009.35 " fill="transparent" style="stroke:#181818;stroke-width:0.5;"/><text fill="#000000" font-family="sans-serif" font-size="14" lengthAdjust="spacing" textLength="99.0801" x="67.57" y="1023.8451">Administrador</text></g><g id="elem_GMN40"><path d="M22,1062.3 L22,1117.6984 A0,0 0 0 0 22,1117.6984 L212.2222,1117.6984 A0,0 0 0 0 212.2222,1117.6984 L212.2222,1072.3 L202.2222,1062.3 L121.11,1062.3 L117.11,1027.49 L113.11,1062.3 L22,1062.3 A0,0 0 0 0 22,1062.3 " fill="#FEFFDD" style="stroke:#181818;stroke-width:0.5;"/><path d="M202.2222,1062.3 L202.2222,1072.3 L212.2222,1072.3 L202.2222,1062.3 " fill="#FEFFDD" style="stroke:#181818;stroke-width:0.5;"/><text fill="#000000" font-family="sans-serif" font-size="13" lengthAdjust="spacing" textLength="145.0376" x="28" y="1079.3669">El Administrador tiene</text><text fill="#000000" font-family="sans-serif" font-size="13" lengthAdjust="spacing" textLength="160.4624" x="28" y="1094.4997">acceso a todos los casos</text><text fill="#000000" font-family="sans-serif" font-size="13" lengthAdjust="spacing" textLength="169.2222" x="28" y="1109.6325">de uso de Departamentos</text></g><g id="elem_asignarCarga"><ellipse cx="465.2126" cy="501.0025" fill="#F1F1F1" rx="72.2626" ry="16.8525" style="stroke:#181818;stroke-width:0.5;"/><text fill="#000000" font-family="sans-serif" font-size="14" lengthAdjust="spacing" textLength="98.8818" x="412.7716" y="504.7501">Asignar Carga</text></g><g id="elem_GMN10"><path d="M405.52,552.87 L405.52,593.1356 A0,0 0 0 0 405.52,593.1356 L524.8896,593.1356 A0,0 0 0 0 524.8896,593.1356 L524.8896,562.87 L514.8896,552.87 L469.21,552.87 L465.21,518.29 L461.21,552.87 L405.52,552.87 A0,0 0 0 0 405.52,552.87 " fill="#FEFFDD" style="stroke:#181818;stroke-width:0.5;"/><path d="M514.8896,552.87 L514.8896,562.87 L524.8896,562.87 L514.8896,552.87 " fill="#FEFFDD" style="stroke:#181818;stroke-width:0.5;"/><text fill="#000000" font-family="sans-serif" font-size="13" lengthAdjust="spacing" textLength="98.3696" x="411.52" y="569.9369">De asignaturas</text><text fill="#000000" font-family="sans-serif" font-size="13" lengthAdjust="spacing" textLength="81.0659" x="411.52" y="585.0697">a profesores</text></g><g id="elem_asignarValores"><ellipse cx="465.2058" cy="811.9992" fill="#F1F1F1" rx="76.3958" ry="17.6792" style="stroke:#181818;stroke-width:0.5;"/><text fill="#000000" font-family="sans-serif" font-size="14" lengthAdjust="spacing" textLength="109.5801" x="407.4157" y="815.7467">Asignar Valores</text></g><g id="elem_GMN15"><path d="M372.54,864.87 L372.54,905.1356 A0,0 0 0 0 372.54,905.1356 L557.8872,905.1356 A0,0 0 0 0 557.8872,905.1356 L557.8872,874.87 L547.8872,864.87 L469.21,864.87 L465.21,830.04 L461.21,864.87 L372.54,864.87 A0,0 0 0 0 372.54,864.87 " fill="#FEFFDD" style="stroke:#181818;stroke-width:0.5;"/><path d="M547.8872,864.87 L547.8872,874.87 L557.8872,874.87 L547.8872,864.87 " fill="#FEFFDD" style="stroke:#181818;stroke-width:0.5;"/><text fill="#000000" font-family="sans-serif" font-size="13" lengthAdjust="spacing" textLength="164.3472" x="378.54" y="881.9369">Consignados en Memoria</text><text fill="#000000" font-family="sans-serif" font-size="13" lengthAdjust="spacing" textLength="89.1021" x="378.54" y="897.0697">por Titulaci&#243;n</text></g><g id="elem_valoresDef"><path d="M384.58,718.87 L384.58,759.1356 L545.8442,759.1356 L545.8442,728.87 L535.8442,718.87 L384.58,718.87 " fill="#FEFFDD" style="stroke:#181818;stroke-width:0.5;"/><path d="M535.8442,718.87 L535.8442,728.87 L545.8442,728.87 L535.8442,718.87 " fill="#FEFFDD" style="stroke:#181818;stroke-width:1;"/><text fill="#000000" font-family="sans-serif" font-size="13" lengthAdjust="spacing" textLength="140.2642" x="390.58" y="735.9369">Permitir validar datos</text><text fill="#000000" font-family="sans-serif" font-size="13" lengthAdjust="spacing" textLength="103.8413" x="390.58" y="751.0697">del a&#241;o anterior</text></g><g id="elem_asignarValor"><ellipse cx="465.2069" cy="1109.9954" fill="#F1F1F1" rx="118.2269" ry="26.0454" style="stroke:#181818;stroke-width:0.5;"/><text fill="#000000" font-family="sans-serif" font-size="14" lengthAdjust="spacing" textLength="203.5674" x="363.4233" y="1112.8421">Asignar Valor de Informaci&#243;n</text></g><g id="elem_PDI"><ellipse cx="875.1227" cy="1109.9978" fill="#F1F1F1" rx="46.7727" ry="14.6578" style="stroke:#181818;stroke-width:0.5;"/><text fill="#000000" font-family="sans-serif" font-size="14" lengthAdjust="spacing" textLength="49.1914" x="847.527" y="1113.7454">del PDI</text></g><g id="elem_SIIU"><ellipse cx="724.7748" cy="1141.9957" fill="#F1F1F1" rx="40.2348" ry="14.5757" style="stroke:#181818;stroke-width:0.5;"/><text fill="#000000" font-family="sans-serif" font-size="14" lengthAdjust="spacing" textLength="40.4209" x="702.0688" y="1145.6182">a SIIU</text></g><g id="elem_DGU"><ellipse cx="724.7745" cy="1078" fill="#F1F1F1" rx="43.5745" ry="14.62" style="stroke:#181818;stroke-width:0.5;"/><text fill="#000000" font-family="sans-serif" font-size="14" lengthAdjust="spacing" textLength="44.9053" x="699.3219" y="1081.7475">a DGU</text></g><g id="elem_revisarCarga"><ellipse cx="465.2073" cy="188.9975" fill="#F1F1F1" rx="119.9873" ry="26.3975" style="stroke:#181818;stroke-width:0.5;"/><text fill="#000000" font-family="sans-serif" font-size="14" lengthAdjust="spacing" textLength="207.3271" x="361.5437" y="191.8441">Revisar Listado de Profesores</text></g><g id="elem_GMN28"><path d="M346.06,250.87 L346.06,291.1356 A0,0 0 0 0 346.06,291.1356 L584.3657,291.1356 A0,0 0 0 0 584.3657,291.1356 L584.3657,260.87 L574.3657,250.87 L469.21,250.87 L465.21,215.43 L461.21,250.87 L346.06,250.87 A0,0 0 0 0 346.06,250.87 " fill="#FEFFDD" style="stroke:#181818;stroke-width:0.5;"/><path d="M574.3657,250.87 L574.3657,260.87 L584.3657,260.87 L574.3657,250.87 " fill="#FEFFDD" style="stroke:#181818;stroke-width:0.5;"/><text fill="#000000" font-family="sans-serif" font-size="13" lengthAdjust="spacing" textLength="217.3057" x="352.06" y="267.9369">Cuya Carga Docente no se ajusta</text><text fill="#000000" font-family="sans-serif" font-size="13" lengthAdjust="spacing" textLength="196.8599" x="352.06" y="283.0697">a carga supuesta por contrato</text></g><!--link ord to cargaDocentePackage--><g id="link_ord_cargaDocentePackage"><path d="M157.81,316.21 C202.555,335.6 277.48,368.07 342.0363,396.0475 C358.1753,403.0419 373.6663,409.7555 387.8757,415.9137 C391.4281,417.4533 394.9003,418.9581 398.2826,420.424 C399.1281,420.7904 394.4629,418.7685 395.297,419.13 " fill="transparent" id="ord-to-cargaDocentePackage" style="stroke:#181818;stroke-width:1;"/><polygon fill="#181818" points="400.8022,421.516,394.135,414.2669,396.2145,419.5277,390.9538,421.6072,400.8022,421.516" style="stroke:#181818;stroke-width:1;"/></g><!--link ord to revisionPackage--><g id="link_ord_revisionPackage"><path d="M147.07,260.43 C176.52,224.4 225.62,172.47 281.22,147 C290.3725,142.8075 300.0431,139.3439 309.9658,136.4933 C312.4465,135.7807 314.9429,135.1063 317.4509,134.4685 C318.0779,134.3091 318.7056,134.1519 319.334,133.997 C319.6482,133.9195 314.1319,135.2578 314.4464,135.1815 " fill="transparent" id="ord-to-revisionPackage" style="stroke:#181818;stroke-width:1;"/><polygon fill="#181818" points="320.2771,133.7663,310.5876,132.0019,315.4182,134.9456,312.4745,139.7762,320.2771,133.7663" style="stroke:#181818;stroke-width:1;"/></g><!--link rrhh to revisionPackage--><g id="link_rrhh_revisionPackage"><path d="M137.71,127 C155.87,127 185.1094,127 218.8144,127 C235.6669,127 253.6358,127 271.8944,127 C281.0237,127 290.2254,127 299.3962,127 C303.9816,127 308.5593,127 313.1163,127 C315.3948,127 311.6681,127 313.9347,127 " fill="transparent" id="rrhh-to-revisionPackage" style="stroke:#181818;stroke-width:1;"/><polygon fill="#181818" points="319.9347,127,310.9347,123,314.9347,127,310.9347,131,319.9347,127" style="stroke:#181818;stroke-width:1;"/></g><!--link tec to valoresPackage--><g id="link_tec_valoresPackage"><path d="M142.51,835.48 C170.56,794.86 220.64,732.73 281.22,703 C299.285,694.135 319.5406,688.4825 339.8147,684.9983 C342.3489,684.5628 344.8835,684.1611 347.4141,683.7913 C347.7304,683.7451 342.1071,684.5491 342.4233,684.5038 " fill="transparent" id="tec-to-valoresPackage" style="stroke:#181818;stroke-width:1;"/><polygon fill="#181818" points="348.3629,683.6541,338.8871,680.969,343.4133,684.3622,340.0201,688.8884,348.3629,683.6541" style="stroke:#181818;stroke-width:1;"/></g><!--link tec to SIIUyDGUPackage--><g id="link_tec_SIIUyDGUPackage"><path d="M172.95,893.33 C220.985,910.26 292.2925,935.395 352.3275,956.5575 C359.8319,959.2028 367.1601,961.7861 374.2448,964.2834 C377.7871,965.5321 381.2685,966.7594 384.6806,967.9622 C385.5336,968.2629 380.7236,966.5673 381.5678,966.8649 " fill="transparent" id="tec-to-SIIUyDGUPackage" style="stroke:#181818;stroke-width:1;"/><polygon fill="#181818" points="387.2265,968.8596,380.0683,962.095,382.5109,967.1973,377.4086,969.64,387.2265,968.8596" style="stroke:#181818;stroke-width:1;"/></g><!--link asignarValor to SIIU--><g id="link_asignarValor_SIIU"><path d="M569.12,1122.79 C610.45,1127.92 649.5357,1132.7806 680.2957,1136.6006 " fill="transparent" id="asignarValor-to-SIIU" style="stroke:#181818;stroke-width:1;stroke-dasharray:7.0,7.0;"/><polygon fill="#181818" points="686.25,1137.34,677.8116,1132.2613,681.2881,1136.7238,676.8256,1140.2003,686.25,1137.34" style="stroke:#181818;stroke-width:1;"/></g><!--link asignarValor to DGU--><g id="link_asignarValor_DGU"><path d="M569.12,1097.21 C609.19,1092.24 646.7956,1087.5582 677.4456,1083.7582 " fill="transparent" id="asignarValor-to-DGU" style="stroke:#181818;stroke-width:1;stroke-dasharray:7.0,7.0;"/><polygon fill="#181818" points="683.4,1083.02,673.9762,1080.1577,678.438,1083.6352,674.9605,1088.097,683.4,1083.02" style="stroke:#181818;stroke-width:1;"/></g><!--link SIIU to PDI--><g id="link_SIIU_PDI"><path d="M760.18,1134.58 C782.77,1129.7 806.495,1124.5854 829.855,1119.5454 " fill="transparent" id="SIIU-to-PDI" style="stroke:#181818;stroke-width:1;stroke-dasharray:7.0,7.0;"/><polygon fill="#181818" points="835.72,1118.28,826.0788,1116.2681,830.8325,1119.3345,827.766,1124.0881,835.72,1118.28" style="stroke:#181818;stroke-width:1;"/></g><!--link DGU to PDI--><g id="link_DGU_PDI"><path d="M762.06,1085.83 C784.36,1090.64 807.0446,1095.5365 829.7446,1100.4265 " fill="transparent" id="DGU-to-PDI" style="stroke:#181818;stroke-width:1;stroke-dasharray:7.0,7.0;"/><polygon fill="#181818" points="835.61,1101.69,827.6542,1095.8844,830.7221,1100.6371,825.9695,1103.705,835.61,1101.69" style="stroke:#181818;stroke-width:1;"/></g><!--SRC=[bLHBRjim4Dth50FldIC42AB2CT2YXkjqrSs0f6os4aSWgG16uGDrMVG8lbY7b2nHbcAtt4YS3pdp-EQLgl3W2QpU7pn8RPNmcaoMrIX-u5x1OgMSr-S_1gI2PxHxX9o4Cbuju6S6l51uih3uRAKoA4Be0j01MPcwT-TVmcX1V4Qf9SeOuvL8OxRRbvTej_PmI1rFij96EszHaeqH62nPZ0abezcNNEkJq_jG0ndbBkM5rJTprG0V98AbCsowi24nhCOfWQu_tROej5MqbcWOvHZoYc6jWOhtWyBALUVtZKKtSIFKbWhboAgnKnaPB-cDfspQxLSiGs8izQtz_ySMqyok_ivqhysviB2UoSG0IOwBXq-g8gkdUDJyt3ljcx9bqdpFqneM6sKhxRKDVJAzB4ZqvBuPgKh0ysy2vFUrkcDF1qQkYfluVLclN-48-UerPeNjaJV_Ws6OchKfo5R9QAHGZPlfhzxfcaOKdbo3iPw-i5k1bmRuEmexPVCT1D0s-Jhcy3TBG4hIahdRgZVjUf5eghhKbUQ9ejaXRAEfnS9scpkWnXm6zIEh07CetBFf9sCuwDuilXiKATeSSInnd0jyEtvl-DQPuOpY0Qwf6nP9ZEGLP5YcFDsRrWH8LafOBfUFSreq3hW2gti75iiRRjROrZjMWB7lYjfjPafJU7Xu77WsyLoO5ISc609jehwjXdqsaOmeuXTCFfGmqddmJA41CXI2Nvj1znGqfAIWtOu6fM5AD2uo8rSrMezLO63hxn_Wz1S0]--></g></svg>