<svg xmlns="http://www.w3.org/2000/svg" xmlns:xlink="http://www.w3.org/1999/xlink" contentStyleType="text/css" data-diagram-type="DESCRIPTION" height="1269px" preserveAspectRatio="none" style="width:1005px;height:1269px;background:#FFFFFF;" version="1.1" viewBox="0 0 1005 1269" width="1005px" zoomAndPan="magnify"><defs/><g><!--cluster Gesti?n de Carga Docente--><g id="cluster_Gesti&#243;n de Carga Docente"><path d="M8.5,6 L215.3164,6 A3.75,3.75 0 0 1 217.8164,8.5 L224.8164,28.2969 L995.83,28.2969 A2.5,2.5 0 0 1 998.33,30.7969 L998.33,1259.5 A2.5,2.5 0 0 1 995.83,1262 L8.5,1262 A2.5,2.5 0 0 1 6,1259.5 L6,8.5 A2.5,2.5 0 0 1 8.5,6 " fill="#FFFFFF" fill-opacity="0.00000" style="stroke:#000000;stroke-width:1.5;"/><line style="stroke:#000000;stroke-width:1.5;" x1="6" x2="224.8164" y1="28.2969" y2="28.2969"/><text fill="#000000" font-family="sans-serif" font-size="14" font-weight="bold" lengthAdjust="spacing" textLength="205.8164" x="10" y="20.9951">Gesti&#243;n de Carga Docente</text></g><!--cluster Asignaciones--><g id="cluster_Asignaciones"><rect fill="#FFFFFF" fill-opacity="0.00000" height="866" rx="2.5" ry="2.5" style="stroke:#181818;stroke-width:1;" width="685.11" x="289.22" y="372"/><text fill="#000000" font-family="sans-serif" font-size="14" font-weight="bold" lengthAdjust="spacing" textLength="103.9131" x="579.8185" y="386.9951">Asignaciones</text></g><!--cluster cargaDocentePackage--><g id="cluster_cargaDocentePackage"><path d="M369.69,423 L486.8463,423 A3.75,3.75 0 0 1 489.3463,425.5 L496.3463,445.2969 L557.21,445.2969 A2.5,2.5 0 0 1 559.71,447.7969 L559.71,615.5 A2.5,2.5 0 0 1 557.21,618 L369.69,618 A2.5,2.5 0 0 1 367.19,615.5 L367.19,425.5 A2.5,2.5 0 0 1 369.69,423 " fill="#FFFFFF" fill-opacity="0.00000" style="stroke:#000000;stroke-width:1.5;"/><line style="stroke:#000000;stroke-width:1.5;" x1="367.19" x2="496.3463" y1="445.2969" y2="445.2969"/><text fill="#000000" font-family="sans-serif" font-size="14" font-weight="bold" lengthAdjust="spacing" textLength="116.1563" x="371.19" y="437.9951">Carga Docente</text></g><!--cluster valoresPackage--><g id="cluster_valoresPackage"><path d="M349.28,658 L419.0632,658 A3.75,3.75 0 0 1 421.5632,660.5 L428.5632,680.2969 L577.62,680.2969 A2.5,2.5 0 0 1 580.12,682.7969 L580.12,927.5 A2.5,2.5 0 0 1 577.62,930 L349.28,930 A2.5,2.5 0 0 1 346.78,927.5 L346.78,660.5 A2.5,2.5 0 0 1 349.28,658 " fill="#FFFFFF" fill-opacity="0.00000" style="stroke:#000000;stroke-width:1.5;"/><line style="stroke:#000000;stroke-width:1.5;" x1="346.78" x2="428.5632" y1="680.2969" y2="680.2969"/><text fill="#000000" font-family="sans-serif" font-size="14" font-weight="bold" lengthAdjust="spacing" textLength="68.7832" x="350.78" y="672.9951">Memoria</text></g><!--cluster SIIUyDGUPackage--><g id="cluster_SIIUyDGUPackage"><path d="M323.72,970 L409.9436,970 A3.75,3.75 0 0 1 412.4436,972.5 L419.4436,992.2969 L939.83,992.2969 A2.5,2.5 0 0 1 942.33,994.7969 L942.33,1203.5 A2.5,2.5 0 0 1 939.83,1206 L323.72,1206 A2.5,2.5 0 0 1 321.22,1203.5 L321.22,972.5 A2.5,2.5 0 0 1 323.72,970 " fill="#FFFFFF" fill-opacity="0.00000" style="stroke:#000000;stroke-width:1.5;"/><line style="stroke:#000000;stroke-width:1.5;" x1="321.22" x2="419.4436" y1="992.2969" y2="992.2969"/><text fill="#000000" font-family="sans-serif" font-size="14" font-weight="bold" lengthAdjust="spacing" textLength="85.2236" x="325.22" y="984.9951">SIIU y DGU</text></g><!--cluster Tipos--><g id="cluster_Tipos"><path d="M664.14,1029 L707.4613,1029 A3.75,3.75 0 0 1 709.9613,1031.5 L716.9613,1051.2969 L778.29,1051.2969 A2.5,2.5 0 0 1 780.79,1053.7969 L780.79,1171.5 A2.5,2.5 0 0 1 778.29,1174 L664.14,1174 A2.5,2.5 0 0 1 661.64,1171.5 L661.64,1031.5 A2.5,2.5 0 0 1 664.14,1029 " fill="#FFFFFF" fill-opacity="0.00000" style="stroke:#000000;stroke-width:1.5;"/><line style="stroke:#000000;stroke-width:1.5;" x1="661.64" x2="716.9613" y1="1051.2969" y2="1051.2969"/><text fill="#000000" font-family="sans-serif" font-size="14" font-weight="bold" lengthAdjust="spacing" textLength="42.3213" x="665.64" y="1043.9951">Tipos</text></g><!--cluster Revisi?n de Cumplimiento--><g id="cluster_Revisi&#243;n de Cumplimiento"><rect fill="#FFFFFF" fill-opacity="0.00000" height="299" rx="2.5" ry="2.5" style="stroke:#181818;stroke-width:1;" width="348.38" x="289.26" y="49"/><text fill="#000000" font-family="sans-serif" font-size="14" font-weight="bold" lengthAdjust="spacing" textLength="205.7891" x="360.5555" y="63.9951">Revisi&#243;n de Cumplimiento</text></g><!--cluster revisionPackage--><g id="cluster_revisionPackage"><path d="M323.76,100 L391.677,100 A3.75,3.75 0 0 1 394.177,102.5 L401.177,122.2969 L603.14,122.2969 A2.5,2.5 0 0 1 605.64,124.7969 L605.64,313.5 A2.5,2.5 0 0 1 603.14,316 L323.76,316 A2.5,2.5 0 0 1 321.26,313.5 L321.26,102.5 A2.5,2.5 0 0 1 323.76,100 " fill="#FFFFFF" fill-opacity="0.00000" style="stroke:#000000;stroke-width:1.5;"/><line style="stroke:#000000;stroke-width:1.5;" x1="321.26" x2="401.177" y1="122.2969" y2="122.2969"/><text fill="#000000" font-family="sans-serif" font-size="14" font-weight="bold" lengthAdjust="spacing" textLength="66.917" x="325.26" y="114.9951">Revisi&#243;n</text></g><!--entity ord--><g id="elem_ord"><ellipse cx="117.1065" cy="269.35" fill="#F1F1F1" rx="8" ry="8" style="stroke:#181818;stroke-width:0.5;"/><path d="M117.1065,277.35 L117.1065,304.35 M104.1065,285.35 L130.1065,285.35 M117.1065,304.35 L104.1065,319.35 M117.1065,304.35 L130.1065,319.35 " fill="#FFFFFF" fill-opacity="0.00000" style="stroke:#181818;stroke-width:0.5;"/><text fill="#000000" font-family="sans-serif" font-size="14" lengthAdjust="spacing" textLength="80.7529" x="76.73" y="333.8451">Ordenaci&#243;n</text></g><!--entity tec--><g id="elem_tec"><ellipse cx="117.1121" cy="845.35" fill="#F1F1F1" rx="8" ry="8" style="stroke:#181818;stroke-width:0.5;"/><path d="M117.1121,853.35 L117.1121,880.35 M104.1121,861.35 L130.1121,861.35 M117.1121,880.35 L104.1121,895.35 M117.1121,880.35 L130.1121,895.35 " fill="#FFFFFF" fill-opacity="0.00000" style="stroke:#181818;stroke-width:0.5;"/><text fill="#000000" font-family="sans-serif" font-size="14" lengthAdjust="spacing" textLength="110.8242" x="61.7" y="909.8451">T&#233;cnico Calidad</text></g><!--entity rrhh--><g id="elem_rrhh"><ellipse cx="117.1149" cy="97.35" fill="#F1F1F1" rx="8" ry="8" style="stroke:#181818;stroke-width:0.5;"/><path d="M117.1149,105.35 L117.1149,132.35 M104.1149,113.35 L130.1149,113.35 M117.1149,132.35 L104.1149,147.35 M117.1149,132.35 L130.1149,147.35 " fill="#FFFFFF" fill-opacity="0.00000" style="stroke:#181818;stroke-width:0.5;"/><text fill="#000000" font-family="sans-serif" font-size="14" lengthAdjust="spacing" textLength="40.5098" x="96.86" y="161.8451">RRHH</text></g><!--entity admin--><g id="elem_admin"><ellipse cx="117.11" cy="960.35" fill="#F1F1F1" rx="8" ry="8" style="stroke:#181818;stroke-width:0.5;"/><path d="M117.11,968.35 L117.11,995.35 M104.11,976.35 L130.11,976.35 M117.11,995.35 L104.11,1010.35 M117.11,995.35 L130.11,1010.35 " fill="#FFFFFF" fill-opacity="0.00000" style="stroke:#181818;stroke-width:0.5;"/><text fill="#000000" font-family="sans-serif" font-size="14" lengthAdjust="spacing" textLength="99.0801" x="67.57" y="1024.8451">Administrador</text></g><g id="elem_GMN40"><path d="M22,1063.3 L22,1118.6984 A0,0 0 0 0 22,1118.6984 L212.2222,1118.6984 A0,0 0 0 0 212.2222,1118.6984 L212.2222,1073.3 L202.2222,1063.3 L121.11,1063.3 L117.11,1028.49 L113.11,1063.3 L22,1063.3 A0,0 0 0 0 22,1063.3 " fill="#FEFFDD" style="stroke:#181818;stroke-width:0.5;"/><path d="M202.2222,1063.3 L202.2222,1073.3 L212.2222,1073.3 L202.2222,1063.3 " fill="#FEFFDD" style="stroke:#181818;stroke-width:0.5;"/><text fill="#000000" font-family="sans-serif" font-size="13" lengthAdjust="spacing" textLength="145.0376" x="28" y="1080.3669">El Administrador tiene</text><text fill="#000000" font-family="sans-serif" font-size="13" lengthAdjust="spacing" textLength="160.4624" x="28" y="1095.4997">acceso a todos los casos</text><text fill="#000000" font-family="sans-serif" font-size="13" lengthAdjust="spacing" textLength="169.2222" x="28" y="1110.6325">de uso de Departamentos</text></g><g id="elem_asignarCarga"><ellipse cx="463.4526" cy="502.0025" fill="#F1F1F1" rx="72.2626" ry="16.8525" style="stroke:#181818;stroke-width:0.5;"/><text fill="#000000" font-family="sans-serif" font-size="14" lengthAdjust="spacing" textLength="98.8818" x="411.0116" y="505.7501">Asignar Carga</text></g><g id="elem_GMN10"><path d="M403.76,553.87 L403.76,594.1356 A0,0 0 0 0 403.76,594.1356 L523.1296,594.1356 A0,0 0 0 0 523.1296,594.1356 L523.1296,563.87 L513.1296,553.87 L467.45,553.87 L463.45,519.29 L459.45,553.87 L403.76,553.87 A0,0 0 0 0 403.76,553.87 " fill="#FEFFDD" style="stroke:#181818;stroke-width:0.5;"/><path d="M513.1296,553.87 L513.1296,563.87 L523.1296,563.87 L513.1296,553.87 " fill="#FEFFDD" style="stroke:#181818;stroke-width:0.5;"/><text fill="#000000" font-family="sans-serif" font-size="13" lengthAdjust="spacing" textLength="98.3696" x="409.76" y="570.9369">De asignaturas</text><text fill="#000000" font-family="sans-serif" font-size="13" lengthAdjust="spacing" textLength="81.0659" x="409.76" y="586.0697">a profesores</text></g><g id="elem_asignarValores"><ellipse cx="463.4458" cy="812.9992" fill="#F1F1F1" rx="76.3958" ry="17.6792" style="stroke:#181818;stroke-width:0.5;"/><text fill="#000000" font-family="sans-serif" font-size="14" lengthAdjust="spacing" textLength="109.5801" x="405.6557" y="816.7467">Asignar Valores</text></g><g id="elem_GMN15"><path d="M370.78,865.87 L370.78,906.1356 A0,0 0 0 0 370.78,906.1356 L556.1272,906.1356 A0,0 0 0 0 556.1272,906.1356 L556.1272,875.87 L546.1272,865.87 L467.45,865.87 L463.45,831.04 L459.45,865.87 L370.78,865.87 A0,0 0 0 0 370.78,865.87 " fill="#FEFFDD" style="stroke:#181818;stroke-width:0.5;"/><path d="M546.1272,865.87 L546.1272,875.87 L556.1272,875.87 L546.1272,865.87 " fill="#FEFFDD" style="stroke:#181818;stroke-width:0.5;"/><text fill="#000000" font-family="sans-serif" font-size="13" lengthAdjust="spacing" textLength="164.3472" x="376.78" y="882.9369">Consignados en Memoria</text><text fill="#000000" font-family="sans-serif" font-size="13" lengthAdjust="spacing" textLength="89.1021" x="376.78" y="898.0697">por Titulaci&#243;n</text></g><g id="elem_valoresDef"><path d="M382.82,719.87 L382.82,760.1356 L544.0842,760.1356 L544.0842,729.87 L534.0842,719.87 L382.82,719.87 " fill="#FEFFDD" style="stroke:#181818;stroke-width:0.5;"/><path d="M534.0842,719.87 L534.0842,729.87 L544.0842,729.87 L534.0842,719.87 " fill="#FEFFDD" style="stroke:#181818;stroke-width:1;"/><text fill="#000000" font-family="sans-serif" font-size="13" lengthAdjust="spacing" textLength="140.2642" x="388.82" y="736.9369">Permitir validar datos</text><text fill="#000000" font-family="sans-serif" font-size="13" lengthAdjust="spacing" textLength="103.8413" x="388.82" y="752.0697">del a&#241;o anterior</text></g><g id="elem_asignarValor"><ellipse cx="463.4469" cy="1110.9954" fill="#F1F1F1" rx="118.2269" ry="26.0454" style="stroke:#181818;stroke-width:0.5;"/><text fill="#000000" font-family="sans-serif" font-size="14" lengthAdjust="spacing" textLength="203.5674" x="361.6633" y="1113.8421">Asignar Valor de Informaci&#243;n</text></g><g id="elem_PDI"><ellipse cx="871.5627" cy="1110.9978" fill="#F1F1F1" rx="46.7727" ry="14.6578" style="stroke:#181818;stroke-width:0.5;"/><text fill="#000000" font-family="sans-serif" font-size="14" lengthAdjust="spacing" textLength="49.1914" x="843.967" y="1114.7454">del PDI</text></g><g id="elem_SIIU"><ellipse cx="721.2148" cy="1142.9957" fill="#F1F1F1" rx="40.2348" ry="14.5757" style="stroke:#181818;stroke-width:0.5;"/><text fill="#000000" font-family="sans-serif" font-size="14" lengthAdjust="spacing" textLength="40.4209" x="698.5088" y="1146.6182">a SIIU</text></g><g id="elem_DGU"><ellipse cx="721.2145" cy="1079" fill="#F1F1F1" rx="43.5745" ry="14.62" style="stroke:#181818;stroke-width:0.5;"/><text fill="#000000" font-family="sans-serif" font-size="14" lengthAdjust="spacing" textLength="44.9053" x="695.7619" y="1082.7475">a DGU</text></g><g id="elem_revisarCarga"><ellipse cx="463.4526" cy="181.9985" fill="#F1F1F1" rx="85.0426" ry="19.4085" style="stroke:#181818;stroke-width:0.5;"/><text fill="#000000" font-family="sans-serif" font-size="14" lengthAdjust="spacing" textLength="130.4229" x="398.2412" y="184.8452">Revisar Profesores</text></g><g id="elem_GMN28"><path d="M345.26,236.3 L345.26,291.6984 A0,0 0 0 0 345.26,291.6984 L581.636,291.6984 A0,0 0 0 0 581.636,291.6984 L581.636,246.3 L571.636,236.3 L467.45,236.3 L463.45,201.76 L459.45,236.3 L345.26,236.3 A0,0 0 0 0 345.26,236.3 " fill="#FEFFDD" style="stroke:#181818;stroke-width:0.5;"/><path d="M571.636,236.3 L571.636,246.3 L581.636,246.3 L571.636,236.3 " fill="#FEFFDD" style="stroke:#181818;stroke-width:0.5;"/><text fill="#000000" font-family="sans-serif" font-size="13" lengthAdjust="spacing" textLength="192.5181" x="351.26" y="253.3669">Revisar Listado de Profesores</text><text fill="#000000" font-family="sans-serif" font-size="13" lengthAdjust="spacing" textLength="215.376" x="351.26" y="268.4997">cuya Carga Docente no se ajusta</text><text fill="#000000" font-family="sans-serif" font-size="13" lengthAdjust="spacing" textLength="196.8599" x="351.26" y="283.6325">a carga supuesta por contrato</text></g><!--link ord to cargaDocentePackage--><g id="link_ord_cargaDocentePackage"><path d="M157.95,316.47 C202.56,336.035 277.0225,368.6875 341.1438,396.805 C357.1741,403.8344 372.558,410.5803 386.6677,416.7675 C390.1951,418.3142 393.6428,419.8261 397.0011,421.2987 C397.8407,421.6669 398.6747,422.0326 399.5029,422.3958 C399.9171,422.5774 394.8348,420.3488 395.2461,420.5291 " fill="#FFFFFF" fill-opacity="0.00000" id="ord-to-cargaDocentePackage" style="stroke:#181818;stroke-width:1;"/><polygon fill="#181818" points="400.741,422.9387,394.105,415.6611,396.1619,420.9307,390.8922,422.9876,400.741,422.9387" style="stroke:#181818;stroke-width:1;"/></g><!--link ord to revisionPackage--><g id="link_ord_revisionPackage"><path d="M147.08,260.44 C176.53,224.42 225.63,172.5 281.22,147 C290.2838,142.8425 299.8609,139.4053 309.688,136.5741 C312.1447,135.8663 314.6171,135.1964 317.101,134.5626 C318.3429,134.2456 313.7532,135.337 315.0003,135.0379 " fill="#FFFFFF" fill-opacity="0.00000" id="ord-to-revisionPackage" style="stroke:#181818;stroke-width:1;"/><polygon fill="#181818" points="320.8349,133.6387,311.1502,131.8478,315.9727,134.8047,313.0159,139.6272,320.8349,133.6387" style="stroke:#181818;stroke-width:1;"/></g><!--link rrhh to revisionPackage--><g id="link_rrhh_revisionPackage"><path d="M137.86,127 C156.01,127 185.1269,127 218.6533,127 C235.4165,127 253.2821,127 271.4304,127 C280.5045,127 289.6494,127 298.7624,127 C303.3189,127 307.8675,127 312.3953,127 C314.6592,127 316.918,127 319.1699,127 C319.7329,127 314.2955,127 314.8576,127 " fill="#FFFFFF" fill-opacity="0.00000" id="rrhh-to-revisionPackage" style="stroke:#181818;stroke-width:1;"/><polygon fill="#181818" points="320.8576,127,311.8576,123,315.8576,127,311.8576,131,320.8576,127" style="stroke:#181818;stroke-width:1;"/></g><!--link tec to valoresPackage--><g id="link_tec_valoresPackage"><path d="M142.51,836.49 C170.57,795.88 220.65,733.76 281.22,704 C299.1075,695.21 319.1669,689.5956 339.2458,686.1263 C341.7556,685.6926 338.3297,686.1656 340.836,685.7969 " fill="#FFFFFF" fill-opacity="0.00000" id="tec-to-valoresPackage" style="stroke:#181818;stroke-width:1;"/><polygon fill="#181818" points="346.7721,684.9238,337.2858,682.2761,341.8253,685.6514,338.45,690.1909,346.7721,684.9238" style="stroke:#181818;stroke-width:1;"/></g><!--link tec to SIIUyDGUPackage--><g id="link_tec_SIIUyDGUPackage"><path d="M172.67,894.33 C220.46,911.26 291.405,936.395 351.135,957.5575 C358.6013,960.2028 365.8923,962.7861 372.9409,965.2834 C376.4652,966.5321 379.929,967.7594 383.3237,968.9622 C384.1724,969.2629 379.3613,967.5582 380.2012,967.8558 " fill="#FFFFFF" fill-opacity="0.00000" id="tec-to-SIIUyDGUPackage" style="stroke:#181818;stroke-width:1;"/><polygon fill="#181818" points="385.8567,969.8596,378.7093,963.0836,381.1438,968.1898,376.0376,970.6243,385.8567,969.8596" style="stroke:#181818;stroke-width:1;"/></g><!--link asignarValor to SIIU--><g id="link_asignarValor_SIIU"><path d="M567,1123.83 C607.86,1128.94 646.3564,1133.7551 676.8064,1137.5651 " fill="#FFFFFF" fill-opacity="0.00000" id="asignarValor-to-SIIU" style="stroke:#181818;stroke-width:1;stroke-dasharray:7.0,7.0;"/><polygon fill="#181818" points="682.76,1138.31,674.3263,1133.2236,677.7987,1137.6892,673.333,1141.1617,682.76,1138.31" style="stroke:#181818;stroke-width:1;"/></g><!--link asignarValor to DGU--><g id="link_asignarValor_DGU"><path d="M567,1098.17 C606.61,1093.21 643.6465,1088.5859 673.9765,1084.7859 " fill="#FFFFFF" fill-opacity="0.00000" id="asignarValor-to-DGU" style="stroke:#181818;stroke-width:1;stroke-dasharray:7.0,7.0;"/><polygon fill="#181818" points="679.93,1084.04,670.5026,1081.1899,674.9688,1084.6616,671.4971,1089.1278,679.93,1084.04" style="stroke:#181818;stroke-width:1;"/></g><!--link SIIU to PDI--><g id="link_SIIU_PDI"><path d="M756.62,1135.58 C779.21,1130.7 802.935,1125.5854 826.295,1120.5454 " fill="#FFFFFF" fill-opacity="0.00000" id="SIIU-to-PDI" style="stroke:#181818;stroke-width:1;stroke-dasharray:7.0,7.0;"/><polygon fill="#181818" points="832.16,1119.28,822.5188,1117.2681,827.2725,1120.3345,824.206,1125.0881,832.16,1119.28" style="stroke:#181818;stroke-width:1;"/></g><!--link DGU to PDI--><g id="link_DGU_PDI"><path d="M758.5,1086.83 C780.8,1091.64 803.4846,1096.5365 826.1846,1101.4265 " fill="#FFFFFF" fill-opacity="0.00000" id="DGU-to-PDI" style="stroke:#181818;stroke-width:1;stroke-dasharray:7.0,7.0;"/><polygon fill="#181818" points="832.05,1102.69,824.0942,1096.8844,827.1621,1101.6371,822.4095,1104.705,832.05,1102.69" style="stroke:#181818;stroke-width:1;"/></g><!--SRC=[bLL1Zjim3Bpx5KJksISii5WNsG0jQgJPddeX92LHQuk692yG57bGZqMVa8-LaXrRZhr9gqjWSYYHGt9Igfq7Js3r_k11Qgk4rsIoh4Rn0_SA5Ylbl3x_CI0LFAFT8-GabF5g0Jypu8F2auN5PokLGH6W2q07P6Ngtfv_2QC5yHsbbYWZnYkHOZQRbvTej_PmI1rFij96EszHaeq839OiOaBAQFObv_haz3xaG4QvIthXzCLS5S0NYM3f34K76mB3QPmIwFhRRSj2cqLhYOPHZ26lcDOQQFS-A9nSTNxVM7GJDq9jQQSSMJLsAYFZ8xtnb4sh_QGgihfDzGtBSCa_blYrHQT5TgPxPSx1mdac4m6I72SFNMeJMCtjtchVbEqapTSypM5HA5jfhsseayVBWaHFxfkHgWGy_oP0xg_LtVHqPEHgTvE_B-lrAnmXNxt6gF1vv8__uJ1ipThio5R9QgHKZOlfdzxgcaOZF7a6OpvzOhU0bmBuTmGxPVCL1DAAV1rZ-3TBI4h2ahtRg3VjUf5eghhKbUQDejabxD7jhiSlCdTOZK7CQj7lmn1zRmFV1OLpkVWZwmjFPwYWcD-vS4HpnB4Cyal02UBtXkDd5ZWA3BYcRbX8CGwu8CDIvkdUHYTaivh2ShbydDEhCU2ApwvNBAWttAp3hNUi4cFVrVYtaUaemyF3up2B4yzb-k9M1KCOhQY1g-4xcyXA5FeB9nzA6FqNWESn6oX38RXlJBgde3Cb1NrtDBIHczkusEDSrMWzLc5AMt_VWDDV]--></g></svg>