<svg xmlns="http://www.w3.org/2000/svg" xmlns:xlink="http://www.w3.org/1999/xlink" contentStyleType="text/css" height="228px" preserveAspectRatio="none" style="width:345px;height:228px;background:#FFFFFF;" version="1.1" viewBox="0 0 345 228" width="345px" zoomAndPan="magnify"><defs/><g><!--cluster Gesti?n de Datos de Profesorado--><g id="cluster_Gesti&#243;n de Datos de Profesorado"><rect fill="none" height="115.79" rx="2.5" ry="2.5" style="stroke:#181818;stroke-width:1.0;" width="332" x="7" y="106.79"/><text fill="#000000" font-family="sans-serif" font-size="14" font-weight="bold" lengthAdjust="spacing" textLength="260.9482" x="42.5259" y="121.7851">Gesti&#243;n de Datos de Profesorado</text></g><g id="elem_UC3"><ellipse cx="173.0048" cy="174.193" fill="#F1F1F1" rx="149.9648" ry="32.393" style="stroke:#181818;stroke-width:0.5;"/><text fill="#000000" font-family="sans-serif" font-size="14" lengthAdjust="spacing" textLength="270.4092" x="37.8002" y="177.0396">Actualizaci&#243;n de Datos de Profesorado</text></g><!--entity P--><g id="elem_P"><ellipse cx="114.0004" cy="14" fill="#F1F1F1" rx="8" ry="8" style="stroke:#181818;stroke-width:0.5;"/><path d="M114.0004,22 L114.0004,49 M101.0004,30 L127.0004,30 M114.0004,49 L101.0004,64 M114.0004,49 L127.0004,64 " fill="none" style="stroke:#181818;stroke-width:0.5;"/><text fill="#000000" font-family="sans-serif" font-size="14" lengthAdjust="spacing" textLength="57.9209" x="85.04" y="78.4951">Profesor</text></g><!--entity RH--><g id="elem_RH"><ellipse cx="232.0012" cy="14" fill="#F1F1F1" rx="8" ry="8" style="stroke:#181818;stroke-width:0.5;"/><path d="M232.0012,22 L232.0012,49 M219.0012,30 L245.0012,30 M232.0012,49 L219.0012,64 M232.0012,49 L245.0012,64 " fill="none" style="stroke:#181818;stroke-width:0.5;"/><text fill="#000000" font-family="sans-serif" font-size="14" lengthAdjust="spacing" textLength="107.5225" x="178.24" y="78.4951">Personal_RRHH</text></g><!--link P to UC3--><g id="link_P_UC3"><path d="M131.22,82.17 C139.86,100.99 147.7057,118.0876 155.9457,136.0276 " fill="none" id="P-to-UC3" style="stroke:#181818;stroke-width:1.0;"/><polygon fill="#181818" points="158.45,141.48,158.3284,131.6319,156.3631,136.9364,151.0586,134.971,158.45,141.48" style="stroke:#181818;stroke-width:1.0;"/></g><!--link RH to UC3--><g id="link_RH_UC3"><path d="M214.78,82.17 C206.14,100.99 198.2943,118.0876 190.0543,136.0276 " fill="none" id="RH-to-UC3" style="stroke:#181818;stroke-width:1.0;"/><polygon fill="#181818" points="187.55,141.48,194.9414,134.971,189.6369,136.9364,187.6716,131.6319,187.55,141.48" style="stroke:#181818;stroke-width:1.0;"/></g><!--SRC=[IqmkoIzI22ZAJqij1Z8IYnK2k18XOgb5nVbvYJdnGK4U7Y2980-kejJaaiIyz9nK1INtrEAIpCERynHIKXLS4aloYq4Cc3c9AVbA2jLS2a1GMfoQd5WCrE2ON5AQc9DPbPYCNnlGfb1dOx3U00LTNJiuByW3pgq50000]--></g></svg>