<svg xmlns="http://www.w3.org/2000/svg" xmlns:xlink="http://www.w3.org/1999/xlink" contentStyleType="text/css" data-diagram-type="DESCRIPTION" height="2715px" preserveAspectRatio="none" style="width:1146px;height:2715px;background:#FFFFFF;" version="1.1" viewBox="0 0 1146 2715" width="1146px" zoomAndPan="magnify"><defs/><g><!--cluster Gesti?n de Datos del Profesorado--><g id="cluster_Gesti&#243;n de Datos del Profesorado"><path d="M8.5,6 L275.2471,6 A3.75,3.75 0 0 1 277.7471,8.5 L284.7471,28.2969 L1136.67,28.2969 A2.5,2.5 0 0 1 1139.17,30.7969 L1139.17,2705.5 A2.5,2.5 0 0 1 1136.67,2708 L8.5,2708 A2.5,2.5 0 0 1 6,2705.5 L6,8.5 A2.5,2.5 0 0 1 8.5,6 " fill="transparent" style="stroke:#000000;stroke-width:1.5;"/><line style="stroke:#000000;stroke-width:1.5;" x1="6" x2="284.7471" y1="28.2969" y2="28.2969"/><text fill="#000000" font-family="sans-serif" font-size="14" font-weight="bold" lengthAdjust="spacing" textLength="265.7471" x="10" y="20.9951">Gesti&#243;n de Datos del Profesorado</text></g><!--cluster Introducci?n de Datos--><g id="cluster_Introducci&#243;n de Datos"><rect fill="transparent" height="1160" rx="2.5" ry="2.5" style="stroke:#181818;stroke-width:1;" width="669.3" x="428.52" y="1516"/><text fill="#000000" font-family="sans-serif" font-size="14" font-weight="bold" lengthAdjust="spacing" textLength="174.3369" x="676.0015" y="1530.9951">Introducci&#243;n de Datos</text></g><!--cluster datosAcadPackage--><g id="cluster_datosAcadPackage"><path d="M463.02,1998 L608.3403,1998 A3.75,3.75 0 0 1 610.8403,2000.5 L617.8403,2020.2969 L1063.32,2020.2969 A2.5,2.5 0 0 1 1065.82,2022.7969 L1065.82,2641.5 A2.5,2.5 0 0 1 1063.32,2644 L463.02,2644 A2.5,2.5 0 0 1 460.52,2641.5 L460.52,2000.5 A2.5,2.5 0 0 1 463.02,1998 " fill="transparent" style="stroke:#000000;stroke-width:1.5;"/><line style="stroke:#000000;stroke-width:1.5;" x1="460.52" x2="617.8403" y1="2020.2969" y2="2020.2969"/><text fill="#000000" font-family="sans-serif" font-size="14" font-weight="bold" lengthAdjust="spacing" textLength="144.3203" x="464.52" y="2012.9951">Datos Acad&#233;micos</text></g><!--cluster Tipos Acad?micos--><g id="cluster_Tipos Acad&#233;micos"><path d="M767.32,2057 L909.2497,2057 A3.75,3.75 0 0 1 911.7497,2059.5 L918.7497,2079.2969 L1031.32,2079.2969 A2.5,2.5 0 0 1 1033.82,2081.7969 L1033.82,2609.5 A2.5,2.5 0 0 1 1031.32,2612 L767.32,2612 A2.5,2.5 0 0 1 764.82,2609.5 L764.82,2059.5 A2.5,2.5 0 0 1 767.32,2057 " fill="transparent" style="stroke:#000000;stroke-width:1.5;"/><line style="stroke:#000000;stroke-width:1.5;" x1="764.82" x2="918.7497" y1="2079.2969" y2="2079.2969"/><text fill="#000000" font-family="sans-serif" font-size="14" font-weight="bold" lengthAdjust="spacing" textLength="140.9297" x="768.82" y="2071.9951">Tipos Acad&#233;micos</text></g><!--cluster datosLabPackage--><g id="cluster_datosLabPackage"><path d="M470.68,1567 L599.2523,1567 A3.75,3.75 0 0 1 601.7523,1569.5 L608.7523,1589.2969 L1048.41,1589.2969 A2.5,2.5 0 0 1 1050.91,1591.7969 L1050.91,1955.5 A2.5,2.5 0 0 1 1048.41,1958 L470.68,1958 A2.5,2.5 0 0 1 468.18,1955.5 L468.18,1569.5 A2.5,2.5 0 0 1 470.68,1567 " fill="transparent" style="stroke:#000000;stroke-width:1.5;"/><line style="stroke:#000000;stroke-width:1.5;" x1="468.18" x2="608.7523" y1="1589.2969" y2="1589.2969"/><text fill="#000000" font-family="sans-serif" font-size="14" font-weight="bold" lengthAdjust="spacing" textLength="127.5723" x="472.18" y="1581.9951">Datos Laborales</text></g><!--cluster Tipos Laborales--><g id="cluster_Tipos Laborales"><path d="M782.23,1626 L907.4116,1626 A3.75,3.75 0 0 1 909.9116,1628.5 L916.9116,1648.2969 L1016.41,1648.2969 A2.5,2.5 0 0 1 1018.91,1650.7969 L1018.91,1923.5 A2.5,2.5 0 0 1 1016.41,1926 L782.23,1926 A2.5,2.5 0 0 1 779.73,1923.5 L779.73,1628.5 A2.5,2.5 0 0 1 782.23,1626 " fill="transparent" style="stroke:#000000;stroke-width:1.5;"/><line style="stroke:#000000;stroke-width:1.5;" x1="779.73" x2="916.9116" y1="1648.2969" y2="1648.2969"/><text fill="#000000" font-family="sans-serif" font-size="14" font-weight="bold" lengthAdjust="spacing" textLength="124.1816" x="783.73" y="1640.9951">Tipos Laborales</text></g><!--cluster Consulta de Datos--><g id="cluster_Consulta de Datos"><rect fill="transparent" height="917" rx="2.5" ry="2.5" style="stroke:#181818;stroke-width:1;" width="685.8" x="421.37" y="575"/><text fill="#000000" font-family="sans-serif" font-size="14" font-weight="bold" lengthAdjust="spacing" textLength="144.0742" x="692.2329" y="589.9951">Consulta de Datos</text></g><!--cluster datosPersonalesPackage--><g id="cluster_datosPersonalesPackage"><path d="M498.28,1329 L636.5183,1329 A3.75,3.75 0 0 1 639.0183,1331.5 L646.0183,1351.2969 L1023.17,1351.2969 A2.5,2.5 0 0 1 1025.67,1353.7969 L1025.67,1457.5 A2.5,2.5 0 0 1 1023.17,1460 L498.28,1460 A2.5,2.5 0 0 1 495.78,1457.5 L495.78,1331.5 A2.5,2.5 0 0 1 498.28,1329 " fill="transparent" style="stroke:#000000;stroke-width:1.5;"/><line style="stroke:#000000;stroke-width:1.5;" x1="495.78" x2="646.0183" y1="1351.2969" y2="1351.2969"/><text fill="#000000" font-family="sans-serif" font-size="14" font-weight="bold" lengthAdjust="spacing" textLength="137.2383" x="499.78" y="1343.9951">Datos Personales</text></g><!--cluster asignacionesDocentesPackage--><g id="cluster_asignacionesDocentesPackage"><path d="M447.87,789 L605.0165,789 A3.75,3.75 0 0 1 607.5165,791.5 L614.5165,811.2969 L1080.67,811.2969 A2.5,2.5 0 0 1 1083.17,813.7969 L1083.17,1294.5 A2.5,2.5 0 0 1 1080.67,1297 L447.87,1297 A2.5,2.5 0 0 1 445.37,1294.5 L445.37,791.5 A2.5,2.5 0 0 1 447.87,789 " fill="transparent" style="stroke:#000000;stroke-width:1.5;"/><line style="stroke:#000000;stroke-width:1.5;" x1="445.37" x2="614.5165" y1="811.2969" y2="811.2969"/><text fill="#000000" font-family="sans-serif" font-size="14" font-weight="bold" lengthAdjust="spacing" textLength="156.1465" x="449.37" y="803.9951">Asignacion Docente</text></g><!--cluster porVarPackage--><g id="cluster_porVarPackage"><path d="M487.87,1016 L570.4638,1016 A3.75,3.75 0 0 1 572.9638,1018.5 L579.9638,1038.2969 L991.98,1038.2969 A2.5,2.5 0 0 1 994.48,1040.7969 L994.48,1254.5 A2.5,2.5 0 0 1 991.98,1257 L487.87,1257 A2.5,2.5 0 0 1 485.37,1254.5 L485.37,1018.5 A2.5,2.5 0 0 1 487.87,1016 " fill="transparent" style="stroke:#000000;stroke-width:1.5;"/><line style="stroke:#000000;stroke-width:1.5;" x1="485.37" x2="579.9638" y1="1038.2969" y2="1038.2969"/><text fill="#000000" font-family="sans-serif" font-size="14" font-weight="bold" lengthAdjust="spacing" textLength="81.5938" x="489.37" y="1030.9951">Por Varios</text></g><!--cluster porProfPackage--><g id="cluster_porProfPackage"><path d="M487.87,848 L587.7518,848 A3.75,3.75 0 0 1 590.2518,850.5 L597.2518,870.2969 L1040.67,870.2969 A2.5,2.5 0 0 1 1043.17,872.7969 L1043.17,973.5 A2.5,2.5 0 0 1 1040.67,976 L487.87,976 A2.5,2.5 0 0 1 485.37,973.5 L485.37,850.5 A2.5,2.5 0 0 1 487.87,848 " fill="transparent" style="stroke:#000000;stroke-width:1.5;"/><line style="stroke:#000000;stroke-width:1.5;" x1="485.37" x2="597.2518" y1="870.2969" y2="870.2969"/><text fill="#000000" font-family="sans-serif" font-size="14" font-weight="bold" lengthAdjust="spacing" textLength="98.8818" x="489.37" y="862.9951">Por Profesor</text></g><!--cluster claustroPackage--><g id="cluster_claustroPackage"><path d="M520.36,626 L657.4567,626 A3.75,3.75 0 0 1 659.9567,628.5 L666.9567,648.2969 L1006.16,648.2969 A2.5,2.5 0 0 1 1008.66,650.7969 L1008.66,754.5 A2.5,2.5 0 0 1 1006.16,757 L520.36,757 A2.5,2.5 0 0 1 517.86,754.5 L517.86,628.5 A2.5,2.5 0 0 1 520.36,626 " fill="transparent" style="stroke:#000000;stroke-width:1.5;"/><line style="stroke:#000000;stroke-width:1.5;" x1="517.86" x2="666.9567" y1="648.2969" y2="648.2969"/><text fill="#000000" font-family="sans-serif" font-size="14" font-weight="bold" lengthAdjust="spacing" textLength="136.0967" x="521.86" y="640.9951">Claustro Docente</text></g><!--cluster Modificaci?n y Validaci?n--><g id="cluster_Modificaci&#243;n y Validaci&#243;n"><rect fill="transparent" height="494" rx="2.5" ry="2.5" style="stroke:#181818;stroke-width:1;" width="602.92" x="467.6" y="57"/><text fill="#000000" font-family="sans-serif" font-size="14" font-weight="bold" lengthAdjust="spacing" textLength="200.5938" x="668.7631" y="71.9951">Modificaci&#243;n y Validaci&#243;n</text></g><!--cluster gestDatosPackage--><g id="cluster_gestDatosPackage"><path d="M504.16,108 L616.1414,108 A3.75,3.75 0 0 1 618.6414,110.5 L625.6414,130.2969 L1036.02,130.2969 A2.5,2.5 0 0 1 1038.52,132.7969 L1038.52,295.5 A2.5,2.5 0 0 1 1036.02,298 L504.16,298 A2.5,2.5 0 0 1 501.66,295.5 L501.66,110.5 A2.5,2.5 0 0 1 504.16,108 " fill="transparent" style="stroke:#000000;stroke-width:1.5;"/><line style="stroke:#000000;stroke-width:1.5;" x1="501.66" x2="625.6414" y1="130.2969" y2="130.2969"/><text fill="#000000" font-family="sans-serif" font-size="14" font-weight="bold" lengthAdjust="spacing" textLength="110.9814" x="505.66" y="122.9951">Gesti&#243;n Datos</text></g><!--cluster valMemPackage--><g id="cluster_valMemPackage"><path d="M494.1,330 L650.7885,330 A3.75,3.75 0 0 1 653.2885,332.5 L660.2885,352.2969 L1021.96,352.2969 A2.5,2.5 0 0 1 1024.46,354.7969 L1024.46,524.5 A2.5,2.5 0 0 1 1021.96,527 L494.1,527 A2.5,2.5 0 0 1 491.6,524.5 L491.6,332.5 A2.5,2.5 0 0 1 494.1,330 " fill="transparent" style="stroke:#000000;stroke-width:1.5;"/><line style="stroke:#000000;stroke-width:1.5;" x1="491.6" x2="660.2885" y1="352.2969" y2="352.2969"/><text fill="#000000" font-family="sans-serif" font-size="14" font-weight="bold" lengthAdjust="spacing" textLength="155.6885" x="495.6" y="344.9951">Validaci&#243;n Memoria</text></g><!--entity prof--><g id="elem_prof"><ellipse cx="289.2241" cy="1326.35" fill="#F1F1F1" rx="8" ry="8" style="stroke:#181818;stroke-width:0.5;"/><path d="M289.2241,1334.35 L289.2241,1361.35 M276.2241,1342.35 L302.2241,1342.35 M289.2241,1361.35 L276.2241,1376.35 M289.2241,1361.35 L302.2241,1376.35 " fill="transparent" style="stroke:#181818;stroke-width:0.5;"/><text fill="#000000" font-family="sans-serif" font-size="14" lengthAdjust="spacing" textLength="73.8281" x="252.31" y="1390.8451">Profesores</text></g><!--entity ord--><g id="elem_ord"><ellipse cx="71.5365" cy="675.35" fill="#F1F1F1" rx="8" ry="8" style="stroke:#181818;stroke-width:0.5;"/><path d="M71.5365,683.35 L71.5365,710.35 M58.5365,691.35 L84.5365,691.35 M71.5365,710.35 L58.5365,725.35 M71.5365,710.35 L84.5365,725.35 " fill="transparent" style="stroke:#181818;stroke-width:0.5;"/><text fill="#000000" font-family="sans-serif" font-size="14" lengthAdjust="spacing" textLength="80.7529" x="31.16" y="739.8451">Ordenaci&#243;n</text></g><!--entity tec--><g id="elem_tec"><ellipse cx="289.2221" cy="601.35" fill="#F1F1F1" rx="8" ry="8" style="stroke:#181818;stroke-width:0.5;"/><path d="M289.2221,609.35 L289.2221,636.35 M276.2221,617.35 L302.2221,617.35 M289.2221,636.35 L276.2221,651.35 M289.2221,636.35 L302.2221,651.35 " fill="transparent" style="stroke:#181818;stroke-width:0.5;"/><text fill="#000000" font-family="sans-serif" font-size="14" lengthAdjust="spacing" textLength="110.8242" x="233.81" y="665.8451">T&#233;cnico Calidad</text></g><!--entity rrhh--><g id="elem_rrhh"><ellipse cx="71.5449" cy="813.35" fill="#F1F1F1" rx="8" ry="8" style="stroke:#181818;stroke-width:0.5;"/><path d="M71.5449,821.35 L71.5449,848.35 M58.5449,829.35 L84.5449,829.35 M71.5449,848.35 L58.5449,863.35 M71.5449,848.35 L84.5449,863.35 " fill="transparent" style="stroke:#181818;stroke-width:0.5;"/><text fill="#000000" font-family="sans-serif" font-size="14" lengthAdjust="spacing" textLength="40.5098" x="51.29" y="877.8451">RRHH</text></g><!--entity admin--><g id="elem_admin"><ellipse cx="71.54" cy="175.35" fill="#F1F1F1" rx="8" ry="8" style="stroke:#181818;stroke-width:0.5;"/><path d="M71.54,183.35 L71.54,210.35 M58.54,191.35 L84.54,191.35 M71.54,210.35 L58.54,225.35 M71.54,210.35 L84.54,225.35 " fill="transparent" style="stroke:#181818;stroke-width:0.5;"/><text fill="#000000" font-family="sans-serif" font-size="14" lengthAdjust="spacing" textLength="99.0801" x="22" y="239.8451">Administrador</text></g><g id="elem_GMN91"><path d="M181.08,169.73 L181.08,201 L121.48,205 L181.08,209 L181.08,240.2613 A0,0 0 0 0 181.08,240.2613 L397.3656,240.2613 A0,0 0 0 0 397.3656,240.2613 L397.3656,179.73 L387.3656,169.73 L181.08,169.73 A0,0 0 0 0 181.08,169.73 " fill="#FEFFDD" style="stroke:#181818;stroke-width:0.5;"/><path d="M387.3656,169.73 L387.3656,179.73 L397.3656,179.73 L387.3656,169.73 " fill="#FEFFDD" style="stroke:#181818;stroke-width:0.5;"/><text fill="#000000" font-family="sans-serif" font-size="13" lengthAdjust="spacing" textLength="145.0376" x="187.08" y="186.7969">El Administrador tiene</text><text fill="#000000" font-family="sans-serif" font-size="13" lengthAdjust="spacing" textLength="160.4624" x="187.08" y="201.9297">acceso a todos los casos</text><text fill="#000000" font-family="sans-serif" font-size="13" lengthAdjust="spacing" textLength="195.2856" x="187.08" y="217.0625">de uso de T&#233;cnico de Calidad,</text><text fill="#000000" font-family="sans-serif" font-size="13" lengthAdjust="spacing" textLength="128.5591" x="187.08" y="232.1953">RRHH y Ordenaci&#243;n</text></g><g id="elem_datosAcad"><ellipse cx="601.996" cy="2351.9952" fill="#F1F1F1" rx="117.476" ry="25.8952" style="stroke:#181818;stroke-width:0.5;"/><text fill="#000000" font-family="sans-serif" font-size="14" lengthAdjust="spacing" textLength="201.9609" x="501.0155" y="2354.8419">Introducir Datos Acad&#233;micos</text></g><g id="elem_notaDatosAcad"><path d="M518.02,2155.87 L518.02,2196.1356 L685.9809,2196.1356 L685.9809,2165.87 L675.9809,2155.87 L518.02,2155.87 " fill="#FEFFDD" style="stroke:#181818;stroke-width:0.5;"/><path d="M675.9809,2155.87 L675.9809,2165.87 L685.9809,2165.87 L675.9809,2155.87 " fill="#FEFFDD" style="stroke:#181818;stroke-width:1;"/><text fill="#000000" font-family="sans-serif" font-size="13" lengthAdjust="spacing" textLength="146.9609" x="524.02" y="2172.9369">Permitir heredar datos</text><text fill="#000000" font-family="sans-serif" font-size="13" lengthAdjust="spacing" textLength="103.8413" x="524.02" y="2188.0697">del a&#241;o anterior</text></g><g id="elem_expDoc"><ellipse cx="899.3193" cy="2352.0039" fill="#F1F1F1" rx="101.3193" ry="22.6639" style="stroke:#181818;stroke-width:0.5;"/><text fill="#000000" font-family="sans-serif" font-size="14" lengthAdjust="spacing" textLength="166.9609" x="815.8388" y="2354.8505">de Experiencia Docente</text></g><g id="elem_expProf"><ellipse cx="899.3188" cy="2269.9958" fill="#F1F1F1" rx="109.9288" ry="24.3858" style="stroke:#181818;stroke-width:0.5;"/><text fill="#000000" font-family="sans-serif" font-size="14" lengthAdjust="spacing" textLength="185.7256" x="806.4561" y="2272.8424">de Experiencia Profesional</text></g><g id="elem_expInv"><ellipse cx="899.322" cy="2185.0004" fill="#F1F1F1" rx="118.502" ry="26.1004" style="stroke:#181818;stroke-width:0.5;"/><text fill="#000000" font-family="sans-serif" font-size="14" lengthAdjust="spacing" textLength="204.1553" x="797.2443" y="2187.8471">de Experiencia Investigadora</text></g><g id="elem_sexenios"><ellipse cx="899.3174" cy="2108.0015" fill="#F1F1F1" rx="67.1574" ry="15.8315" style="stroke:#181818;stroke-width:0.5;"/><text fill="#000000" font-family="sans-serif" font-size="14" lengthAdjust="spacing" textLength="84.9707" x="853.832" y="2111.749">de Sexenios</text></g><g id="elem_acred"><ellipse cx="899.3198" cy="2577.004" fill="#F1F1F1" rx="82.8698" ry="18.974" style="stroke:#181818;stroke-width:0.5;"/><text fill="#000000" font-family="sans-serif" font-size="14" lengthAdjust="spacing" textLength="125.3711" x="835.997" y="2580.0655">de Acreditaciones</text></g><g id="elem_mov"><ellipse cx="899.3154" cy="2507.0031" fill="#F1F1F1" rx="68.5654" ry="16.1131" style="stroke:#181818;stroke-width:0.5;"/><text fill="#000000" font-family="sans-serif" font-size="14" lengthAdjust="spacing" textLength="88.9014" x="851.8647" y="2510.7506">de Movilidad</text></g><g id="elem_titProf"><ellipse cx="899.321" cy="2433.0022" fill="#F1F1F1" rx="103.661" ry="23.1322" style="stroke:#181818;stroke-width:0.5;"/><text fill="#000000" font-family="sans-serif" font-size="14" lengthAdjust="spacing" textLength="172.0947" x="813.2737" y="2435.8489">de Titulaci&#243;n Profesional</text></g><g id="elem_datosLab"><ellipse cx="601.9982" cy="1804.0036" fill="#F1F1F1" rx="109.8182" ry="24.3636" style="stroke:#181818;stroke-width:0.5;"/><text fill="#000000" font-family="sans-serif" font-size="14" lengthAdjust="spacing" textLength="185.4863" x="509.2551" y="1806.8503">Introducir Datos Laborales</text></g><g id="elem_notaDatosLab"><path d="M518.02,1654.87 L518.02,1695.1356 L685.9809,1695.1356 L685.9809,1664.87 L675.9809,1654.87 L518.02,1654.87 " fill="#FEFFDD" style="stroke:#181818;stroke-width:0.5;"/><path d="M675.9809,1654.87 L675.9809,1664.87 L685.9809,1664.87 L675.9809,1654.87 " fill="#FEFFDD" style="stroke:#181818;stroke-width:1;"/><text fill="#000000" font-family="sans-serif" font-size="13" lengthAdjust="spacing" textLength="146.9609" x="524.02" y="1671.9369">Permitir heredar datos</text><text fill="#000000" font-family="sans-serif" font-size="13" lengthAdjust="spacing" textLength="103.8413" x="524.02" y="1687.0697">del a&#241;o anterior</text></g><g id="elem_contrato"><ellipse cx="899.3177" cy="1893.9955" fill="#F1F1F1" rx="66.4777" ry="15.6955" style="stroke:#181818;stroke-width:0.5;"/><text fill="#000000" font-family="sans-serif" font-size="14" lengthAdjust="spacing" textLength="83.043" x="854.7962" y="1897.7431">de Contrato</text></g><g id="elem_horas"><ellipse cx="899.3249" cy="1828.9993" fill="#F1F1F1" rx="56.8349" ry="14.7493" style="stroke:#181818;stroke-width:0.5;"/><text fill="#000000" font-family="sans-serif" font-size="14" lengthAdjust="spacing" textLength="62.6719" x="864.989" y="1832.7468">de Horas</text></g><g id="elem_temp"><ellipse cx="899.3207" cy="1761.0021" fill="#F1F1F1" rx="80.0607" ry="18.4121" style="stroke:#181818;stroke-width:0.5;"/><text fill="#000000" font-family="sans-serif" font-size="14" lengthAdjust="spacing" textLength="118.6719" x="838.3414" y="1764.3759">de Temporalidad</text></g><g id="elem_catProf"><ellipse cx="899.316" cy="1683.9972" fill="#F1F1F1" rx="103.586" ry="23.1172" style="stroke:#181818;stroke-width:0.5;"/><text fill="#000000" font-family="sans-serif" font-size="14" lengthAdjust="spacing" textLength="171.9307" x="813.3507" y="1686.8439">de Categor&#237;a Profesional</text></g><g id="elem_consultaValores"><ellipse cx="602.0015" cy="1410.0023" fill="#F1F1F1" rx="82.2115" ry="18.8423" style="stroke:#181818;stroke-width:0.5;"/><text fill="#000000" font-family="sans-serif" font-size="14" lengthAdjust="spacing" textLength="123.8193" x="539.2278" y="1413.137">Consultar Valores</text></g><g id="elem_GMN31"><path d="M796.97,1380.3 L796.97,1404.69 L684.48,1409.45 L796.97,1412.69 L796.97,1435.6984 A0,0 0 0 0 796.97,1435.6984 L1001.6648,1435.6984 A0,0 0 0 0 1001.6648,1435.6984 L1001.6648,1390.3 L991.6648,1380.3 L796.97,1380.3 A0,0 0 0 0 796.97,1380.3 " fill="#FEFFDD" style="stroke:#181818;stroke-width:0.5;"/><path d="M991.6648,1380.3 L991.6648,1390.3 L1001.6648,1390.3 L991.6648,1380.3 " fill="#FEFFDD" style="stroke:#181818;stroke-width:0.5;"/><text fill="#000000" font-family="sans-serif" font-size="13" lengthAdjust="spacing" textLength="183.6948" x="802.97" y="1397.3669">Consultar valores asignados</text><text fill="#000000" font-family="sans-serif" font-size="13" lengthAdjust="spacing" textLength="164.436" x="802.97" y="1412.4997">de contrato y otros datos</text><text fill="#000000" font-family="sans-serif" font-size="13" lengthAdjust="spacing" textLength="70.9097" x="802.97" y="1427.6325">personales</text></g><g id="elem_consAsig"><ellipse cx="602.0001" cy="1149.996" fill="#F1F1F1" rx="92.6301" ry="20.926" style="stroke:#181818;stroke-width:0.5;"/><text fill="#000000" font-family="sans-serif" font-size="14" lengthAdjust="spacing" textLength="147.6699" x="528.1651" y="1152.8427">Consultar Asignaci&#243;n</text></g><g id="elem_porTit"><ellipse cx="899.3217" cy="1216.0023" fill="#F1F1F1" rx="71.1617" ry="16.6323" style="stroke:#181818;stroke-width:0.5;"/><text fill="#000000" font-family="sans-serif" font-size="14" lengthAdjust="spacing" textLength="95.9561" x="848.3436" y="1219.7499">por Titulaci&#243;n</text></g><g id="elem_porCurso"><ellipse cx="899.3247" cy="1149.9968" fill="#F1F1F1" rx="60.7547" ry="14.7768" style="stroke:#181818;stroke-width:0.5;"/><text fill="#000000" font-family="sans-serif" font-size="14" lengthAdjust="spacing" textLength="67.9219" x="862.3637" y="1153.7443">por Curso</text></g><g id="elem_porSem"><ellipse cx="899.3218" cy="1083.9984" fill="#F1F1F1" rx="70.6418" ry="16.5284" style="stroke:#181818;stroke-width:0.5;"/><text fill="#000000" font-family="sans-serif" font-size="14" lengthAdjust="spacing" textLength="94.5615" x="849.041" y="1087.7459">por Semestre</text></g><g id="elem_consProf"><ellipse cx="602.0001" cy="930.996" fill="#F1F1F1" rx="92.6301" ry="20.926" style="stroke:#181818;stroke-width:0.5;"/><text fill="#000000" font-family="sans-serif" font-size="14" lengthAdjust="spacing" textLength="147.6699" x="528.1651" y="933.8427">Consultar Asignaci&#243;n</text></g><g id="elem_GMN42"><path d="M779.47,910.87 L779.47,927 L694.82,931 L779.47,935 L779.47,951.1356 A0,0 0 0 0 779.47,951.1356 L1019.1658,951.1356 A0,0 0 0 0 1019.1658,951.1356 L1019.1658,920.87 L1009.1658,910.87 L779.47,910.87 A0,0 0 0 0 779.47,910.87 " fill="#FEFFDD" style="stroke:#181818;stroke-width:0.5;"/><path d="M1009.1658,910.87 L1009.1658,920.87 L1019.1658,920.87 L1009.1658,910.87 " fill="#FEFFDD" style="stroke:#181818;stroke-width:0.5;"/><text fill="#000000" font-family="sans-serif" font-size="13" lengthAdjust="spacing" textLength="218.6958" x="785.47" y="927.9369">Consultar asignaci&#243;n docente por</text><text fill="#000000" font-family="sans-serif" font-size="13" lengthAdjust="spacing" textLength="212.8369" x="785.47" y="943.0697">profesor (cr&#233;ditos y asignaturas)</text></g><g id="elem_consClaustro"><ellipse cx="601.9971" cy="705.0027" fill="#F1F1F1" rx="60.1371" ry="14.7727" style="stroke:#181818;stroke-width:0.5;"/><text fill="#000000" font-family="sans-serif" font-size="14" lengthAdjust="spacing" textLength="67.0947" x="565.4497" y="708.7502">Consultar</text></g><g id="elem_GMN47"><path d="M813.98,677.3 L813.98,701 L662.4,705 L813.98,709 L813.98,732.6984 A0,0 0 0 0 813.98,732.6984 L984.6514,732.6984 A0,0 0 0 0 984.6514,732.6984 L984.6514,687.3 L974.6514,677.3 L813.98,677.3 A0,0 0 0 0 813.98,677.3 " fill="#FEFFDD" style="stroke:#181818;stroke-width:0.5;"/><path d="M974.6514,677.3 L974.6514,687.3 L984.6514,687.3 L974.6514,677.3 " fill="#FEFFDD" style="stroke:#181818;stroke-width:0.5;"/><text fill="#000000" font-family="sans-serif" font-size="13" lengthAdjust="spacing" textLength="134.4688" x="819.98" y="694.3669">Listado PDI asociado</text><text fill="#000000" font-family="sans-serif" font-size="13" lengthAdjust="spacing" textLength="149.6714" x="819.98" y="709.4997">a una titulaci&#243;n, anual,</text><text fill="#000000" font-family="sans-serif" font-size="13" lengthAdjust="spacing" textLength="86.3281" x="819.98" y="724.6325">por semestre</text></g><g id="elem_Validar Datos"><ellipse cx="602.0003" cy="257.0001" fill="#F1F1F1" rx="70.5503" ry="16.5101" style="stroke:#181818;stroke-width:0.5;"/><text fill="#000000" font-family="sans-serif" font-size="14" lengthAdjust="spacing" textLength="94.3154" x="551.8426" y="260.7476">Validar Datos</text></g><g id="elem_Modificar Datos"><ellipse cx="601.9966" cy="187.9973" fill="#F1F1F1" rx="76.3366" ry="17.6673" style="stroke:#181818;stroke-width:0.5;"/><text fill="#000000" font-family="sans-serif" font-size="14" lengthAdjust="spacing" textLength="109.4297" x="544.2818" y="191.7449">Modificar Datos</text></g><g id="elem_notaGestDatos"><path d="M784.12,233.87 L784.12,274.1356 L1014.5228,274.1356 L1014.5228,243.87 L1004.5228,233.87 L784.12,233.87 " fill="#FEFFDD" style="stroke:#181818;stroke-width:0.5;"/><path d="M1004.5228,233.87 L1004.5228,243.87 L1014.5228,243.87 L1004.5228,233.87 " fill="#FEFFDD" style="stroke:#181818;stroke-width:1;"/><text fill="#000000" font-family="sans-serif" font-size="13" lengthAdjust="spacing" textLength="209.4028" x="790.12" y="250.9369">Datos introducidos previamente</text><text fill="#000000" font-family="sans-serif" font-size="13" lengthAdjust="spacing" textLength="119.793" x="790.12" y="266.0697">por el profesorado</text></g><g id="elem_valCumpli1"><ellipse cx="601.9972" cy="400.9994" fill="#F1F1F1" rx="94.3972" ry="21.2794" style="stroke:#181818;stroke-width:0.5;"/><text fill="#000000" font-family="sans-serif" font-size="14" lengthAdjust="spacing" textLength="151.6279" x="526.1832" y="403.8461">Validar Cumplimiento</text></g><g id="elem_GMN57"><path d="M804.46,365.3 L804.46,391.56 L696.03,398.48 L804.46,399.56 L804.46,420.6984 A0,0 0 0 0 804.46,420.6984 L994.1744,420.6984 A0,0 0 0 0 994.1744,420.6984 L994.1744,375.3 L984.1744,365.3 L804.46,365.3 A0,0 0 0 0 804.46,365.3 " fill="#FEFFDD" style="stroke:#181818;stroke-width:0.5;"/><path d="M984.1744,365.3 L984.1744,375.3 L994.1744,375.3 L984.1744,365.3 " fill="#FEFFDD" style="stroke:#181818;stroke-width:0.5;"/><text fill="#000000" font-family="sans-serif" font-size="13" lengthAdjust="spacing" textLength="159.25" x="810.46" y="382.3669">Validar cumplimiento de</text><text fill="#000000" font-family="sans-serif" font-size="13" lengthAdjust="spacing" textLength="168.7144" x="810.46" y="397.4997">valores consignados en la</text><text fill="#000000" font-family="sans-serif" font-size="13" lengthAdjust="spacing" textLength="148.5923" x="810.46" y="412.6325">memoria por titulacion</text></g><g id="elem_valCumpli2"><ellipse cx="601.9972" cy="486.9994" fill="#F1F1F1" rx="94.3972" ry="21.2794" style="stroke:#181818;stroke-width:0.5;"/><text fill="#000000" font-family="sans-serif" font-size="14" lengthAdjust="spacing" textLength="151.6279" x="526.1832" y="489.8461">Validar Cumplimiento</text></g><g id="elem_GMN61"><path d="M790.18,455.3 L790.18,480.47 L696.44,485.73 L790.18,488.47 L790.18,510.6984 A0,0 0 0 0 790.18,510.6984 L1008.4588,510.6984 A0,0 0 0 0 1008.4588,510.6984 L1008.4588,465.3 L998.4588,455.3 L790.18,455.3 A0,0 0 0 0 790.18,455.3 " fill="#FEFFDD" style="stroke:#181818;stroke-width:0.5;"/><path d="M998.4588,455.3 L998.4588,465.3 L1008.4588,465.3 L998.4588,455.3 " fill="#FEFFDD" style="stroke:#181818;stroke-width:0.5;"/><text fill="#000000" font-family="sans-serif" font-size="13" lengthAdjust="spacing" textLength="159.25" x="796.18" y="472.3669">Validar cumplimiento de</text><text fill="#000000" font-family="sans-serif" font-size="13" lengthAdjust="spacing" textLength="197.2788" x="796.18" y="487.4997">compromisos de memoria con</text><text fill="#000000" font-family="sans-serif" font-size="13" lengthAdjust="spacing" textLength="170.6123" x="796.18" y="502.6325">los valores de la titulaci&#243;n</text></g><!--link datosAcad to expDoc--><g id="link_datosAcad_expDoc"><path d="M719.72,2352 C745.51,2352 766.63,2352 791.72,2352 " fill="transparent" id="datosAcad-to-expDoc" style="stroke:#181818;stroke-width:1;stroke-dasharray:7.0,7.0;"/><polygon fill="#181818" points="797.72,2352,788.72,2348,792.72,2352,788.72,2356,797.72,2352" style="stroke:#181818;stroke-width:1;"/></g><!--link datosAcad to expProf--><g id="link_datosAcad_expProf"><path d="M676.38,2331.62 C723.18,2318.63 777.6788,2303.4955 823.5888,2290.7455 " fill="transparent" id="datosAcad-to-expProf" style="stroke:#181818;stroke-width:1;stroke-dasharray:7.0,7.0;"/><polygon fill="#181818" points="829.37,2289.14,819.6278,2287.6942,824.5523,2290.4779,821.7686,2295.4024,829.37,2289.14" style="stroke:#181818;stroke-width:1;"/></g><!--link datosAcad to expInv--><g id="link_datosAcad_expInv"><path d="M628.26,2326.42 C657.05,2298.6 706.64,2254.55 756.82,2228 C775.31,2218.21 790.6393,2212.0773 810.7593,2205.8373 " fill="transparent" id="datosAcad-to-expInv" style="stroke:#181818;stroke-width:1;stroke-dasharray:7.0,7.0;"/><polygon fill="#181818" points="816.49,2204.06,806.709,2202.9055,811.7144,2205.5411,809.0788,2210.5465,816.49,2204.06" style="stroke:#181818;stroke-width:1;"/></g><!--link datosAcad to sexenios--><g id="link_datosAcad_sexenios"><path d="M627.66,2326.46 C652.66,2299.77 691.52,2256.03 719.47,2214 C739.65,2183.66 728.11,2163.45 756.82,2141 C778.48,2124.07 801.4257,2116.5198 827.4357,2112.3498 " fill="transparent" id="datosAcad-to-sexenios" style="stroke:#181818;stroke-width:1;stroke-dasharray:7.0,7.0;"/><polygon fill="#181818" points="833.36,2111.4,823.8403,2108.8751,828.423,2112.1915,825.1067,2116.7743,833.36,2111.4" style="stroke:#181818;stroke-width:1;"/></g><!--link datosAcad to acred--><g id="link_datosAcad_acred"><path d="M616.9,2378.16 C640.17,2419.36 691.04,2498.98 756.82,2541 C777.43,2554.17 796.7585,2561.1935 820.1385,2566.4935 " fill="transparent" id="datosAcad-to-acred" style="stroke:#181818;stroke-width:1;stroke-dasharray:7.0,7.0;"/><polygon fill="#181818" points="825.99,2567.82,818.097,2561.9293,821.1137,2566.7146,816.3284,2569.7313,825.99,2567.82" style="stroke:#181818;stroke-width:1;"/></g><!--link datosAcad to mov--><g id="link_datosAcad_mov"><path d="M627.77,2377.51 C656.31,2405.4 705.87,2449.4 756.82,2474 C782.37,2486.34 806.8948,2493.0934 832.9748,2498.0334 " fill="transparent" id="datosAcad-to-mov" style="stroke:#181818;stroke-width:1;stroke-dasharray:7.0,7.0;"/><polygon fill="#181818" points="838.87,2499.15,830.7717,2493.5449,833.9574,2498.2195,829.2828,2501.4051,838.87,2499.15" style="stroke:#181818;stroke-width:1;"/></g><!--link datosAcad to titProf--><g id="link_datosAcad_titProf"><path d="M677.14,2372.34 C724.98,2385.46 780.8536,2400.7833 826.9136,2413.4133 " fill="transparent" id="datosAcad-to-titProf" style="stroke:#181818;stroke-width:1;stroke-dasharray:7.0,7.0;"/><polygon fill="#181818" points="832.7,2415,825.0782,2408.7624,827.878,2413.6778,822.9626,2416.4776,832.7,2415" style="stroke:#181818;stroke-width:1;"/></g><!--link datosLab to contrato--><g id="link_datosLab_contrato"><path d="M656.18,1825.59 C685.55,1837.03 722.86,1850.79 756.82,1861 C786.53,1869.93 814.4957,1876.6312 841.6257,1882.5012 " fill="transparent" id="datosLab-to-contrato" style="stroke:#181818;stroke-width:1;stroke-dasharray:7.0,7.0;"/><polygon fill="#181818" points="847.49,1883.77,839.5394,1877.9572,842.6031,1882.7126,837.8477,1885.7763,847.49,1883.77" style="stroke:#181818;stroke-width:1;"/></g><!--link datosLab to horas--><g id="link_datosLab_horas"><path d="M705.04,1812.64 C752.06,1816.62 799.9413,1820.6744 838.8413,1823.9644 " fill="transparent" id="datosLab-to-horas" style="stroke:#181818;stroke-width:1;stroke-dasharray:7.0,7.0;"/><polygon fill="#181818" points="844.82,1824.47,836.1891,1819.7258,839.8378,1824.0486,835.5149,1827.6973,844.82,1824.47" style="stroke:#181818;stroke-width:1;"/></g><!--link datosLab to temp--><g id="link_datosLab_temp"><path d="M694.82,1790.63 C738.84,1784.22 784.6926,1777.5444 825.0126,1771.6744 " fill="transparent" id="datosLab-to-temp" style="stroke:#181818;stroke-width:1;stroke-dasharray:7.0,7.0;"/><polygon fill="#181818" points="830.95,1770.81,821.4676,1768.1483,826.0022,1771.5303,822.6202,1776.0649,830.95,1770.81" style="stroke:#181818;stroke-width:1;"/></g><!--link datosLab to catProf--><g id="link_datosLab_catProf"><path d="M642.49,1781.03 C672.99,1763.96 716.64,1740.96 756.82,1725 C779.75,1715.89 799.7341,1709.4446 822.9141,1702.9246 " fill="transparent" id="datosLab-to-catProf" style="stroke:#181818;stroke-width:1;stroke-dasharray:7.0,7.0;"/><polygon fill="#181818" points="828.69,1701.3,818.9431,1699.8863,823.8768,1702.6538,821.1093,1707.5875,828.69,1701.3" style="stroke:#181818;stroke-width:1;"/></g><!--link consAsig to porTit--><g id="link_consAsig_porTit"><path d="M669.27,1164.81 C723.01,1176.82 791.8144,1192.2017 841.0944,1203.2117 " fill="transparent" id="consAsig-to-porTit" style="stroke:#181818;stroke-width:1;stroke-dasharray:7.0,7.0;"/><polygon fill="#181818" points="846.95,1204.52,839.0387,1198.6539,842.0703,1203.4298,837.2944,1206.4614,846.95,1204.52" style="stroke:#181818;stroke-width:1;"/></g><!--link consAsig to porCurso--><g id="link_consAsig_porCurso"><path d="M694.82,1150 C741.55,1150 791.04,1150 832.26,1150 " fill="transparent" id="consAsig-to-porCurso" style="stroke:#181818;stroke-width:1;stroke-dasharray:7.0,7.0;"/><polygon fill="#181818" points="838.26,1150,829.26,1146,833.26,1150,829.26,1154,838.26,1150" style="stroke:#181818;stroke-width:1;"/></g><!--link consAsig to porSem--><g id="link_consAsig_porSem"><path d="M670.78,1135.62 C686.76,1132.18 703.72,1128.5 719.47,1125 C763.01,1115.34 806.5751,1105.3356 842.4051,1097.0256 " fill="transparent" id="consAsig-to-porSem" style="stroke:#181818;stroke-width:1;stroke-dasharray:7.0,7.0;"/><polygon fill="#181818" points="848.25,1095.67,838.579,1093.8068,843.3793,1096.7997,840.3864,1101.6,848.25,1095.67" style="stroke:#181818;stroke-width:1;"/></g><!--link prof to datosAcadPackage--><g id="link_prof_datosAcadPackage"><path d="M292.88,1394.63 C301.72,1512.49 333.71,1864.6 405.37,1950 C420.0975,1967.555 439.4238,1981.0119 460.1934,1991.3245 C462.7896,1992.6136 465.4084,1993.8536 468.0436,1995.0463 C469.3611,1995.6426 470.6828,1996.2271 472.0078,1996.8001 C472.6703,1997.0865 467.8071,1995.034 468.4712,1995.3147 " fill="transparent" id="prof-to-datosAcadPackage" style="stroke:#181818;stroke-width:1;"/><polygon fill="#181818" points="473.9977,1997.6508,467.2654,1990.4623,469.3923,1995.7041,464.1505,1997.831,473.9977,1997.6508" style="stroke:#181818;stroke-width:1;"/></g><!--link prof to datosPersonalesPackage--><g id="link_prof_datosPersonalesPackage"><path d="M326.48,1356 C366.83,1356 433.9625,1356 491.7388,1356 C492.6415,1356 487.542,1356 488.44,1356 " fill="transparent" id="prof-to-datosPersonalesPackage" style="stroke:#181818;stroke-width:1;"/><polygon fill="#181818" points="494.44,1356,485.44,1352,489.44,1356,485.44,1360,494.44,1356" style="stroke:#181818;stroke-width:1;"/></g><!--link prof to porVarPackage--><g id="link_prof_porVarPackage"><path d="M291.91,1317.39 C297.15,1250.38 318.52,1113.7 405.37,1051 C422.7325,1038.465 443.3969,1031.615 464.6864,1028.4111 C470.0088,1027.6101 475.3702,1027.037 480.7289,1026.6599 C482.0686,1026.5657 477.4164,1026.7982 478.7551,1026.7279 " fill="transparent" id="prof-to-porVarPackage" style="stroke:#181818;stroke-width:1;"/><polygon fill="#181818" points="484.7468,1026.4134,475.5495,1022.8906,479.7537,1026.6755,475.9688,1030.8796,484.7468,1026.4134" style="stroke:#181818;stroke-width:1;"/></g><!--link rrhh to gestDatosPackage--><g id="link_rrhh_gestDatosPackage"><path d="M92.18,813.49 C101.75,798.25 112.93,779.1 121.08,761 C156.76,681.8 142.88,653.01 181.08,575 C256.09,421.82 340.85,418.92 397.37,258 C405.05,236.13 389.14,170.55 405.37,154 C420.4175,138.6475 439.9063,129.7006 460.7391,124.9364 C471.1555,122.5543 481.9079,121.2179 492.6092,120.6492 C495.2845,120.507 497.9566,120.4129 500.6195,120.3623 C500.9524,120.356 495.2858,120.4399 495.6183,120.4349 " fill="transparent" id="rrhh-to-gestDatosPackage" style="stroke:#181818;stroke-width:1;"/><polygon fill="#181818" points="501.6176,120.3454,492.559,116.4801,496.6182,120.42,492.6783,124.4792,501.6176,120.3454" style="stroke:#181818;stroke-width:1;"/></g><!--link rrhh to datosLabPackage--><g id="link_rrhh_datosLabPackage"><path d="M75.24,881.48 C83.96,995.55 114.69,1329.08 181.08,1412 C244.15,1490.77 347.9875,1536.1775 436.6213,1561.9388 C442.1609,1563.5488 447.6411,1565.0822 453.0482,1566.5421 C455.7518,1567.2721 458.4371,1567.9837 461.1025,1568.6774 C462.4352,1569.0242 463.7628,1569.3666 465.0853,1569.7045 C465.7466,1569.8735 460.59,1568.5686 461.2486,1568.7354 " fill="transparent" id="rrhh-to-datosLabPackage" style="stroke:#181818;stroke-width:1;"/><polygon fill="#181818" points="467.0651,1570.2081,459.3222,1564.1214,462.2181,1568.9809,457.3586,1571.8767,467.0651,1570.2081" style="stroke:#181818;stroke-width:1;"/></g><!--link rrhh to claustroPackage--><g id="link_rrhh_claustroPackage"><path d="M92.23,843.55 C149.83,844 318.84,836.65 397.37,740 C408.49,726.31 392.52,673.1 405.37,661 C420.96,646.32 440.7244,638.3806 461.6644,634.7533 C472.1344,632.9396 482.8983,632.2039 493.5813,632.2427 C498.9227,632.2621 504.244,632.4751 509.4981,632.8437 C512.1252,633.0281 508.765,632.6574 511.3527,632.9148 " fill="transparent" id="rrhh-to-claustroPackage" style="stroke:#181818;stroke-width:1;"/><polygon fill="#181818" points="517.3232,633.5087,508.7634,628.6375,512.3478,633.0138,507.9715,636.5982,517.3232,633.5087" style="stroke:#181818;stroke-width:1;"/></g><!--link rrhh to porProfPackage--><g id="link_rrhh_porProfPackage"><path d="M92.29,844.2 C139.885,847.08 265.455,854.6825 379.92,861.6138 C408.5363,863.3466 436.4584,865.0374 462.2947,866.6021 C468.7538,866.9932 475.0824,867.3765 481.259,867.7505 C482.0311,867.7973 476.8118,867.4812 477.579,867.5277 " fill="transparent" id="rrhh-to-porProfPackage" style="stroke:#181818;stroke-width:1;"/><polygon fill="#181818" points="483.5681,867.8904,474.8263,863.3536,478.5772,867.5881,474.3427,871.339,483.5681,867.8904" style="stroke:#181818;stroke-width:1;"/></g><!--link ord to claustroPackage--><g id="link_ord_claustroPackage"><path d="M112.21,715.9 C178.84,731.63 314.07,752.16 397.37,687 C406.89,679.55 395.79,668.38 405.37,661 C422.3325,647.9275 442.7938,640.8044 464.0044,637.4942 C474.6097,635.8391 485.4023,635.1373 496.0387,635.1217 C501.3568,635.1138 506.6359,635.2776 511.833,635.5795 C513.1322,635.6549 514.4264,635.739 515.7147,635.8313 C516.3589,635.8774 511.0198,635.4581 511.661,635.5082 " fill="transparent" id="ord-to-claustroPackage" style="stroke:#181818;stroke-width:1;"/><polygon fill="#181818" points="517.6428,635.9756,508.9817,631.2866,512.6579,635.5861,508.3585,639.2623,517.6428,635.9756" style="stroke:#181818;stroke-width:1;"/></g><!--link ord to porProfPackage--><g id="link_ord_porProfPackage"><path d="M112.23,717.81 C132.78,724.44 158.28,732.66 181.08,740 C273.655,769.805 377.7225,803.2625 459.0963,829.4137 C479.4397,835.9516 498.3648,842.0327 515.3373,847.486 C515.8677,847.6565 510.6838,845.9909 511.2104,846.1601 " fill="transparent" id="ord-to-porProfPackage" style="stroke:#181818;stroke-width:1;"/><polygon fill="#181818" points="516.9228,847.9954,509.5778,841.4341,512.1624,846.466,507.1306,849.0506,516.9228,847.9954" style="stroke:#181818;stroke-width:1;"/></g><!--link ord to valCumpli1--><g id="link_ord_valCumpli1"><path d="M98.87,666.53 C119.13,638.82 149.02,601.74 181.08,575 C269.05,501.63 298.79,490.01 405.37,448 C444.04,432.76 483.1538,422.7423 520.2338,415.0923 " fill="transparent" id="ord-to-valCumpli1" style="stroke:#181818;stroke-width:1;"/><polygon fill="#181818" points="526.11,413.88,516.4874,411.781,521.2131,414.8903,518.1039,419.616,526.11,413.88" style="stroke:#181818;stroke-width:1;"/></g><!--link tec to claustroPackage--><g id="link_tec_claustroPackage"><path d="M345.07,634.88 C388.98,637.99 451.6625,642.4275 504.0013,646.1325 C507.2724,646.3641 510.5032,646.5928 513.6864,646.8181 C514.4823,646.8744 515.2751,646.9306 516.0649,646.9865 C516.4597,647.0144 510.8688,646.6186 511.2622,646.6465 " fill="transparent" id="tec-to-claustroPackage" style="stroke:#181818;stroke-width:1;"/><polygon fill="#181818" points="517.2472,647.0702,508.5521,642.4446,512.2597,646.7171,507.9872,650.4247,517.2472,647.0702" style="stroke:#181818;stroke-width:1;"/></g><!--link tec to porProfPackage--><g id="link_tec_porProfPackage"><path d="M323.76,669.59 C345.73,693.78 375.77,724.83 405.37,749 C444.79,781.2 492.795,812.2275 531.385,835.4363 C536.2088,838.3373 540.8854,841.1163 545.3798,843.76 C547.627,845.0819 544.6433,843.3512 546.795,844.6039 " fill="transparent" id="tec-to-porProfPackage" style="stroke:#181818;stroke-width:1;"/><polygon fill="#181818" points="551.9802,847.6227,546.2149,839.6377,547.6592,845.107,542.1898,846.5513,551.9802,847.6227" style="stroke:#181818;stroke-width:1;"/></g><!--link tec to valCumpli2--><g id="link_tec_valCumpli2"><path d="M345.07,605.59 C406.23,577.25 498.3657,534.5519 553.6957,508.9219 " fill="transparent" id="tec-to-valCumpli2" style="stroke:#181818;stroke-width:1;"/><polygon fill="#181818" points="559.14,506.4,549.2923,506.5533,554.6031,508.5016,552.6549,513.8124,559.14,506.4" style="stroke:#181818;stroke-width:1;"/></g><!--SRC=[lLZDZjis4BxxAGXVsW99WFG10YoyGNQ1B69i5Ztbmf9ScuX42XIrs4NX1zf33qKVmI_M6Vv8f4HPTj1M1yES6Gw7mu_pmqeyMc8rCNAtjuHB8vYLMgrM3MNVwKwGzIVHMddyMn4ko3MrkeK_5TaQ_IXQRIZNQ_B7Yi17cTM6h2D7j6j2MzB0C6L_CLmeob2Zusl3K_R3yPKfoJJPq4foofsC5IoLkR-_kN5qO_Rxb775QwbaQz4guoGeKfo8-x5w9-nUc60nVhXXgdOLxFHMMQDvnrYstNKYZ5_l6E-CAqRvyRK6a_r-ELAHk0ro-MpykbOmsYOBIaCMb4rqJ0YzMG-o6MkQcf2P0Jlz-Dm88uLYaf9hpOIomXaWdXiONZJTdpzWY5PHnJPYu5mTj-e9KRV3SwHH2n0NbNmLpqB9uBqs31PdNJ4ZkBI0Igq2R2cI5YVUwISvmBJMomO-IDjL7luJJrbfYvuwJ2XAMr2t5QQM5i03Y1QS6W-NRmhl9pt-fGc5OpGoN0MOGw-BUChrdmBxP_ex74Wb4dG2wKUGNjPqCSmJDSiWtsYm0bPoIx8mM9nr0mjuA_VuR_c4HTsWJKdqgfjbswWLEssEVqul4AF_2op6xX_K3_zAKHEysdQLfUS6J32lnRsbHp_Gpi1IND2GtsZLvnaMg85MzetFSlfnKHg_OPqdBmNBo9s2c5IMX_r7K94NeW7mONT5wQRVyeGj57VcNdn9hvnz6CMo84vxicW3_OIV2pcokDXMum6O66m1yp2QLtlY6AFPiIJ0mq7QiWvOD8seqH0WdJTtqy4Xn5bkSDwyhwA6_6H4d0hZuiJ3Qjc7iLwAkd3yhxbnDlEMhyH9yVnEq64rmZseqFgJivkmLV8pCyTNoBXmGrw29jj1SFrbTdhnJin7miF5TsTJqGwEL6StXmNY9L6fzttKU4OecXN5xpDKj11qoFRw5bHhg8zuMP2IJb6i8k9zU0EXlgFLcp88uHpQWEDBGz3fZ72dkNoKB83Z1SCq9CC0p9dSq7SP8OM03tT0SgCplE-N2CN5UbukcZOhwLEeprGo5YqGyG6xuadI6g7nJQ7l89isQHCKSkcdQFN524pSHEv4hOtqfIza7nXUu8HDLpULhA6M3hKEQF2qzwUmM4H9rCaIdP3fYh8nJIAYGw84896A5gLhlqM7muXPhLPdN_mBjlthVxfjfci0GYrRrnht-sA5pU1NwRRt58XNsOtziOju63hSdyYzg4AkH_Mk085kfky6dLJVLv9txpwaJTw4qMU42IUsOpaZwxborj1IvVJODkNKj1awiRCgDW232YXadOQimiyuGo6VaVj2FLT35mn9Co62USXdAmyFNyquPKbnCgOFvSUO4wkBykhuz16sZ_68l7txOV88KU1EIkvS9YldV1M3hot00-OuCe_Oexvmn1tbr14tBu3ymjhm-QazSpGpuoK1qBy32KRc54PUGLzaZGBBQfhKXtSd_3vM97kQ0d0BDLnfoXXa4KZVLcF8n001aIt9873CNOlnX_JFOwvbT3tcaDtnNGpIRVB2jif2oE4V]--></g></svg>