<svg xmlns="http://www.w3.org/2000/svg" xmlns:xlink="http://www.w3.org/1999/xlink" contentStyleType="text/css" data-diagram-type="DESCRIPTION" height="2869px" preserveAspectRatio="none" style="width:1188px;height:2869px;background:#FFFFFF;" version="1.1" viewBox="0 0 1188 2869" width="1188px" zoomAndPan="magnify"><defs/><g><!--cluster Gesti?n de Datos del Profesorado--><g id="cluster_Gesti&#243;n de Datos del Profesorado"><path d="M8.5,6 L275.2471,6 A3.75,3.75 0 0 1 277.7471,8.5 L284.7471,28.2969 L1179.31,28.2969 A2.5,2.5 0 0 1 1181.81,30.7969 L1181.81,2859.5 A2.5,2.5 0 0 1 1179.31,2862 L8.5,2862 A2.5,2.5 0 0 1 6,2859.5 L6,8.5 A2.5,2.5 0 0 1 8.5,6 " fill="#FFFFFF" fill-opacity="0.00000" style="stroke:#000000;stroke-width:1.5;"/><line style="stroke:#000000;stroke-width:1.5;" x1="6" x2="284.7471" y1="28.2969" y2="28.2969"/><text fill="#000000" font-family="sans-serif" font-size="14" font-weight="bold" lengthAdjust="spacing" textLength="265.7471" x="10" y="20.9951">Gesti&#243;n de Datos del Profesorado</text></g><!--cluster Introducci?n de Datos--><g id="cluster_Introducci&#243;n de Datos"><rect fill="#FFFFFF" fill-opacity="0.00000" height="1160" rx="2.5" ry="2.5" style="stroke:#181818;stroke-width:1;" width="682.33" x="467.48" y="1670"/><text fill="#000000" font-family="sans-serif" font-size="14" font-weight="bold" lengthAdjust="spacing" textLength="174.3369" x="721.4765" y="1684.9951">Introducci&#243;n de Datos</text></g><!--cluster datosAcadPackage--><g id="cluster_datosAcadPackage"><path d="M501.98,2152 L647.3003,2152 A3.75,3.75 0 0 1 649.8003,2154.5 L656.8003,2174.2969 L1115.31,2174.2969 A2.5,2.5 0 0 1 1117.81,2176.7969 L1117.81,2795.5 A2.5,2.5 0 0 1 1115.31,2798 L501.98,2798 A2.5,2.5 0 0 1 499.48,2795.5 L499.48,2154.5 A2.5,2.5 0 0 1 501.98,2152 " fill="#FFFFFF" fill-opacity="0.00000" style="stroke:#000000;stroke-width:1.5;"/><line style="stroke:#000000;stroke-width:1.5;" x1="499.48" x2="656.8003" y1="2174.2969" y2="2174.2969"/><text fill="#000000" font-family="sans-serif" font-size="14" font-weight="bold" lengthAdjust="spacing" textLength="144.3203" x="503.48" y="2166.9951">Datos Acad&#233;micos</text></g><!--cluster Tipos Acad?micos--><g id="cluster_Tipos Acad&#233;micos"><path d="M819.31,2211 L961.2397,2211 A3.75,3.75 0 0 1 963.7397,2213.5 L970.7397,2233.2969 L1083.31,2233.2969 A2.5,2.5 0 0 1 1085.81,2235.7969 L1085.81,2763.5 A2.5,2.5 0 0 1 1083.31,2766 L819.31,2766 A2.5,2.5 0 0 1 816.81,2763.5 L816.81,2213.5 A2.5,2.5 0 0 1 819.31,2211 " fill="#FFFFFF" fill-opacity="0.00000" style="stroke:#000000;stroke-width:1.5;"/><line style="stroke:#000000;stroke-width:1.5;" x1="816.81" x2="970.7397" y1="2233.2969" y2="2233.2969"/><text fill="#000000" font-family="sans-serif" font-size="14" font-weight="bold" lengthAdjust="spacing" textLength="140.9297" x="820.81" y="2225.9951">Tipos Acad&#233;micos</text></g><!--cluster datosLabPackage--><g id="cluster_datosLabPackage"><path d="M509.64,1721 L638.2123,1721 A3.75,3.75 0 0 1 640.7123,1723.5 L647.7123,1743.2969 L1100.39,1743.2969 A2.5,2.5 0 0 1 1102.89,1745.7969 L1102.89,2109.5 A2.5,2.5 0 0 1 1100.39,2112 L509.64,2112 A2.5,2.5 0 0 1 507.14,2109.5 L507.14,1723.5 A2.5,2.5 0 0 1 509.64,1721 " fill="#FFFFFF" fill-opacity="0.00000" style="stroke:#000000;stroke-width:1.5;"/><line style="stroke:#000000;stroke-width:1.5;" x1="507.14" x2="647.7123" y1="1743.2969" y2="1743.2969"/><text fill="#000000" font-family="sans-serif" font-size="14" font-weight="bold" lengthAdjust="spacing" textLength="127.5723" x="511.14" y="1735.9951">Datos Laborales</text></g><!--cluster Tipos Laborales--><g id="cluster_Tipos Laborales"><path d="M834.22,1780 L959.4016,1780 A3.75,3.75 0 0 1 961.9016,1782.5 L968.9016,1802.2969 L1068.39,1802.2969 A2.5,2.5 0 0 1 1070.89,1804.7969 L1070.89,2077.5 A2.5,2.5 0 0 1 1068.39,2080 L834.22,2080 A2.5,2.5 0 0 1 831.72,2077.5 L831.72,1782.5 A2.5,2.5 0 0 1 834.22,1780 " fill="#FFFFFF" fill-opacity="0.00000" style="stroke:#000000;stroke-width:1.5;"/><line style="stroke:#000000;stroke-width:1.5;" x1="831.72" x2="968.9016" y1="1802.2969" y2="1802.2969"/><text fill="#000000" font-family="sans-serif" font-size="14" font-weight="bold" lengthAdjust="spacing" textLength="124.1816" x="835.72" y="1794.9951">Tipos Laborales</text></g><!--cluster Consulta de Datos--><g id="cluster_Consulta de Datos"><rect fill="#FFFFFF" fill-opacity="0.00000" height="1161" rx="2.5" ry="2.5" style="stroke:#181818;stroke-width:1;" width="677.36" x="433.11" y="485"/><text fill="#000000" font-family="sans-serif" font-size="14" font-weight="bold" lengthAdjust="spacing" textLength="144.0742" x="699.7529" y="499.9951">Consulta de Datos</text></g><!--cluster datosPersonalesPackage--><g id="cluster_datosPersonalesPackage"><path d="M517.11,1399 L655.3483,1399 A3.75,3.75 0 0 1 657.8483,1401.5 L664.8483,1421.2969 L764.81,1421.2969 A2.5,2.5 0 0 1 767.31,1423.7969 L767.31,1611.5 A2.5,2.5 0 0 1 764.81,1614 L517.11,1614 A2.5,2.5 0 0 1 514.61,1611.5 L514.61,1401.5 A2.5,2.5 0 0 1 517.11,1399 " fill="#FFFFFF" fill-opacity="0.00000" style="stroke:#000000;stroke-width:1.5;"/><line style="stroke:#000000;stroke-width:1.5;" x1="514.61" x2="664.8483" y1="1421.2969" y2="1421.2969"/><text fill="#000000" font-family="sans-serif" font-size="14" font-weight="bold" lengthAdjust="spacing" textLength="137.2383" x="518.61" y="1413.9951">Datos Personales</text></g><!--cluster asignacionesDocentesPackage--><g id="cluster_asignacionesDocentesPackage"><path d="M459.61,784 L616.7565,784 A3.75,3.75 0 0 1 619.2565,786.5 L626.2565,806.2969 L1083.97,806.2969 A2.5,2.5 0 0 1 1086.47,808.7969 L1086.47,1364.5 A2.5,2.5 0 0 1 1083.97,1367 L459.61,1367 A2.5,2.5 0 0 1 457.11,1364.5 L457.11,786.5 A2.5,2.5 0 0 1 459.61,784 " fill="#FFFFFF" fill-opacity="0.00000" style="stroke:#000000;stroke-width:1.5;"/><line style="stroke:#000000;stroke-width:1.5;" x1="457.11" x2="626.2565" y1="806.2969" y2="806.2969"/><text fill="#000000" font-family="sans-serif" font-size="14" font-weight="bold" lengthAdjust="spacing" textLength="156.1465" x="461.11" y="798.9951">Asignacion Docente</text></g><!--cluster porVarPackage--><g id="cluster_porVarPackage"><path d="M526.83,1086 L609.4238,1086 A3.75,3.75 0 0 1 611.9238,1088.5 L618.9238,1108.2969 L1043.97,1108.2969 A2.5,2.5 0 0 1 1046.47,1110.7969 L1046.47,1324.5 A2.5,2.5 0 0 1 1043.97,1327 L526.83,1327 A2.5,2.5 0 0 1 524.33,1324.5 L524.33,1088.5 A2.5,2.5 0 0 1 526.83,1086 " fill="#FFFFFF" fill-opacity="0.00000" style="stroke:#000000;stroke-width:1.5;"/><line style="stroke:#000000;stroke-width:1.5;" x1="524.33" x2="618.9238" y1="1108.2969" y2="1108.2969"/><text fill="#000000" font-family="sans-serif" font-size="14" font-weight="bold" lengthAdjust="spacing" textLength="81.5938" x="528.33" y="1100.9951">Por Varios</text></g><!--cluster porProfPackage--><g id="cluster_porProfPackage"><path d="M499.61,843 L599.4918,843 A3.75,3.75 0 0 1 601.9918,845.5 L608.9918,865.2969 L782.31,865.2969 A2.5,2.5 0 0 1 784.81,867.7969 L784.81,1043.5 A2.5,2.5 0 0 1 782.31,1046 L499.61,1046 A2.5,2.5 0 0 1 497.11,1043.5 L497.11,845.5 A2.5,2.5 0 0 1 499.61,843 " fill="#FFFFFF" fill-opacity="0.00000" style="stroke:#000000;stroke-width:1.5;"/><line style="stroke:#000000;stroke-width:1.5;" x1="497.11" x2="608.9918" y1="865.2969" y2="865.2969"/><text fill="#000000" font-family="sans-serif" font-size="14" font-weight="bold" lengthAdjust="spacing" textLength="98.8818" x="501.11" y="857.9951">Por Profesor</text></g><!--cluster claustroPackage--><g id="cluster_claustroPackage"><path d="M534.12,536 L671.2167,536 A3.75,3.75 0 0 1 673.7167,538.5 L680.7167,558.2969 L747.79,558.2969 A2.5,2.5 0 0 1 750.29,560.7969 L750.29,749.5 A2.5,2.5 0 0 1 747.79,752 L534.12,752 A2.5,2.5 0 0 1 531.62,749.5 L531.62,538.5 A2.5,2.5 0 0 1 534.12,536 " fill="#FFFFFF" fill-opacity="0.00000" style="stroke:#000000;stroke-width:1.5;"/><line style="stroke:#000000;stroke-width:1.5;" x1="531.62" x2="680.7167" y1="558.2969" y2="558.2969"/><text fill="#000000" font-family="sans-serif" font-size="14" font-weight="bold" lengthAdjust="spacing" textLength="136.0967" x="535.62" y="550.9951">Claustro Docente</text></g><!--cluster Modificaci?n y Validaci?n--><g id="cluster_Modificaci&#243;n y Validaci&#243;n"><rect fill="#FFFFFF" fill-opacity="0.00000" height="404" rx="2.5" ry="2.5" style="stroke:#181818;stroke-width:1;" width="615.95" x="506.56" y="57"/><text fill="#000000" font-family="sans-serif" font-size="14" font-weight="bold" lengthAdjust="spacing" textLength="200.5938" x="714.2381" y="71.9951">Modificaci&#243;n y Validaci&#243;n</text></g><!--cluster gestDatosPackage--><g id="cluster_gestDatosPackage"><path d="M543.12,108 L655.1014,108 A3.75,3.75 0 0 1 657.6014,110.5 L664.6014,130.2969 L1088.01,130.2969 A2.5,2.5 0 0 1 1090.51,132.7969 L1090.51,295.5 A2.5,2.5 0 0 1 1088.01,298 L543.12,298 A2.5,2.5 0 0 1 540.62,295.5 L540.62,110.5 A2.5,2.5 0 0 1 543.12,108 " fill="#FFFFFF" fill-opacity="0.00000" style="stroke:#000000;stroke-width:1.5;"/><line style="stroke:#000000;stroke-width:1.5;" x1="540.62" x2="664.6014" y1="130.2969" y2="130.2969"/><text fill="#000000" font-family="sans-serif" font-size="14" font-weight="bold" lengthAdjust="spacing" textLength="110.9814" x="544.62" y="122.9951">Gesti&#243;n Datos</text></g><!--cluster valMemPackage--><g id="cluster_valMemPackage"><path d="M533.06,330 L689.7485,330 A3.75,3.75 0 0 1 692.2485,332.5 L699.2485,352.2969 L1073.95,352.2969 A2.5,2.5 0 0 1 1076.45,354.7969 L1076.45,434.5 A2.5,2.5 0 0 1 1073.95,437 L533.06,437 A2.5,2.5 0 0 1 530.56,434.5 L530.56,332.5 A2.5,2.5 0 0 1 533.06,330 " fill="#FFFFFF" fill-opacity="0.00000" style="stroke:#000000;stroke-width:1.5;"/><line style="stroke:#000000;stroke-width:1.5;" x1="530.56" x2="699.2485" y1="352.2969" y2="352.2969"/><text fill="#000000" font-family="sans-serif" font-size="14" font-weight="bold" lengthAdjust="spacing" textLength="155.6885" x="534.56" y="344.9951">Validaci&#243;n Memoria</text></g><!--entity prof--><g id="elem_prof"><ellipse cx="353.6941" cy="1396.35" fill="#F1F1F1" rx="8" ry="8" style="stroke:#181818;stroke-width:0.5;"/><path d="M353.6941,1404.35 L353.6941,1431.35 M340.6941,1412.35 L366.6941,1412.35 M353.6941,1431.35 L340.6941,1446.35 M353.6941,1431.35 L366.6941,1446.35 " fill="#FFFFFF" fill-opacity="0.00000" style="stroke:#181818;stroke-width:0.5;"/><text fill="#000000" font-family="sans-serif" font-size="14" lengthAdjust="spacing" textLength="73.8281" x="316.78" y="1460.8451">Profesores</text></g><!--entity ord--><g id="elem_ord"><ellipse cx="130.1465" cy="502.35" fill="#F1F1F1" rx="8" ry="8" style="stroke:#181818;stroke-width:0.5;"/><path d="M130.1465,510.35 L130.1465,537.35 M117.1465,518.35 L143.1465,518.35 M130.1465,537.35 L117.1465,552.35 M130.1465,537.35 L143.1465,552.35 " fill="#FFFFFF" fill-opacity="0.00000" style="stroke:#181818;stroke-width:0.5;"/><text fill="#000000" font-family="sans-serif" font-size="14" lengthAdjust="spacing" textLength="80.7529" x="89.77" y="566.8451">Ordenaci&#243;n</text></g><!--entity tec--><g id="elem_tec"><ellipse cx="353.7021" cy="576.35" fill="#F1F1F1" rx="8" ry="8" style="stroke:#181818;stroke-width:0.5;"/><path d="M353.7021,584.35 L353.7021,611.35 M340.7021,592.35 L366.7021,592.35 M353.7021,611.35 L340.7021,626.35 M353.7021,611.35 L366.7021,626.35 " fill="#FFFFFF" fill-opacity="0.00000" style="stroke:#181818;stroke-width:0.5;"/><text fill="#000000" font-family="sans-serif" font-size="14" lengthAdjust="spacing" textLength="110.8242" x="298.29" y="640.8451">T&#233;cnico Calidad</text></g><!--entity rrhh--><g id="elem_rrhh"><ellipse cx="130.1449" cy="750.35" fill="#F1F1F1" rx="8" ry="8" style="stroke:#181818;stroke-width:0.5;"/><path d="M130.1449,758.35 L130.1449,785.35 M117.1449,766.35 L143.1449,766.35 M130.1449,785.35 L117.1449,800.35 M130.1449,785.35 L143.1449,800.35 " fill="#FFFFFF" fill-opacity="0.00000" style="stroke:#181818;stroke-width:0.5;"/><text fill="#000000" font-family="sans-serif" font-size="14" lengthAdjust="spacing" textLength="40.5098" x="109.89" y="814.8451">RRHH</text></g><!--entity admin--><g id="elem_admin"><ellipse cx="130.14" cy="1801.35" fill="#F1F1F1" rx="8" ry="8" style="stroke:#181818;stroke-width:0.5;"/><path d="M130.14,1809.35 L130.14,1836.35 M117.14,1817.35 L143.14,1817.35 M130.14,1836.35 L117.14,1851.35 M130.14,1836.35 L143.14,1851.35 " fill="#FFFFFF" fill-opacity="0.00000" style="stroke:#181818;stroke-width:0.5;"/><text fill="#000000" font-family="sans-serif" font-size="14" lengthAdjust="spacing" textLength="99.0801" x="80.6" y="1865.8451">Administrador</text></g><g id="elem_GMN87"><path d="M22,1903.73 L22,1974.2613 A0,0 0 0 0 22,1974.2613 L238.2856,1974.2613 A0,0 0 0 0 238.2856,1974.2613 L238.2856,1913.73 L228.2856,1903.73 L134.14,1903.73 L130.14,1869.55 L126.14,1903.73 L22,1903.73 A0,0 0 0 0 22,1903.73 " fill="#FEFFDD" style="stroke:#181818;stroke-width:0.5;"/><path d="M228.2856,1903.73 L228.2856,1913.73 L238.2856,1913.73 L228.2856,1903.73 " fill="#FEFFDD" style="stroke:#181818;stroke-width:0.5;"/><text fill="#000000" font-family="sans-serif" font-size="13" lengthAdjust="spacing" textLength="145.0376" x="28" y="1920.7969">El Administrador tiene</text><text fill="#000000" font-family="sans-serif" font-size="13" lengthAdjust="spacing" textLength="160.4624" x="28" y="1935.9297">acceso a todos los casos</text><text fill="#000000" font-family="sans-serif" font-size="13" lengthAdjust="spacing" textLength="195.2856" x="28" y="1951.0625">de uso de T&#233;cnico de Calidad,</text><text fill="#000000" font-family="sans-serif" font-size="13" lengthAdjust="spacing" textLength="128.5591" x="28" y="1966.1953">RRHH y Ordenaci&#243;n</text></g><g id="elem_datosAcad"><ellipse cx="640.956" cy="2478.9952" fill="#F1F1F1" rx="117.476" ry="25.8952" style="stroke:#181818;stroke-width:0.5;"/><text fill="#000000" font-family="sans-serif" font-size="14" lengthAdjust="spacing" textLength="201.9609" x="539.9755" y="2481.8419">Introducir Datos Acad&#233;micos</text></g><g id="elem_notaDatosAcad"><path d="M556.98,2295.87 L556.98,2336.1356 L724.9409,2336.1356 L724.9409,2305.87 L714.9409,2295.87 L556.98,2295.87 " fill="#FEFFDD" style="stroke:#181818;stroke-width:0.5;"/><path d="M714.9409,2295.87 L714.9409,2305.87 L724.9409,2305.87 L714.9409,2295.87 " fill="#FEFFDD" style="stroke:#181818;stroke-width:1;"/><text fill="#000000" font-family="sans-serif" font-size="13" lengthAdjust="spacing" textLength="146.9609" x="562.98" y="2312.9369">Permitir heredar datos</text><text fill="#000000" font-family="sans-serif" font-size="13" lengthAdjust="spacing" textLength="103.8413" x="562.98" y="2328.0697">del a&#241;o anterior</text></g><g id="elem_expDoc"><ellipse cx="951.3093" cy="2646.0039" fill="#F1F1F1" rx="101.3193" ry="22.6639" style="stroke:#181818;stroke-width:0.5;"/><text fill="#000000" font-family="sans-serif" font-size="14" lengthAdjust="spacing" textLength="166.9609" x="867.8288" y="2648.8505">de Experiencia Docente</text></g><g id="elem_expProf"><ellipse cx="951.3088" cy="2563.9958" fill="#F1F1F1" rx="109.9288" ry="24.3858" style="stroke:#181818;stroke-width:0.5;"/><text fill="#000000" font-family="sans-serif" font-size="14" lengthAdjust="spacing" textLength="185.7256" x="858.4461" y="2566.8424">de Experiencia Profesional</text></g><g id="elem_expInv"><ellipse cx="951.312" cy="2479.0004" fill="#F1F1F1" rx="118.502" ry="26.1004" style="stroke:#181818;stroke-width:0.5;"/><text fill="#000000" font-family="sans-serif" font-size="14" lengthAdjust="spacing" textLength="204.1553" x="849.2343" y="2481.8471">de Experiencia Investigadora</text></g><g id="elem_sexenios"><ellipse cx="951.3074" cy="2402.0015" fill="#F1F1F1" rx="67.1574" ry="15.8315" style="stroke:#181818;stroke-width:0.5;"/><text fill="#000000" font-family="sans-serif" font-size="14" lengthAdjust="spacing" textLength="84.9707" x="905.822" y="2405.749">de Sexenios</text></g><g id="elem_acred"><ellipse cx="951.3098" cy="2332.004" fill="#F1F1F1" rx="82.8698" ry="18.974" style="stroke:#181818;stroke-width:0.5;"/><text fill="#000000" font-family="sans-serif" font-size="14" lengthAdjust="spacing" textLength="125.3711" x="887.987" y="2335.0655">de Acreditaciones</text></g><g id="elem_mov"><ellipse cx="951.3054" cy="2262.0031" fill="#F1F1F1" rx="68.5654" ry="16.1131" style="stroke:#181818;stroke-width:0.5;"/><text fill="#000000" font-family="sans-serif" font-size="14" lengthAdjust="spacing" textLength="88.9014" x="903.8547" y="2265.7506">de Movilidad</text></g><g id="elem_titProf"><ellipse cx="951.311" cy="2727.0022" fill="#F1F1F1" rx="103.661" ry="23.1322" style="stroke:#181818;stroke-width:0.5;"/><text fill="#000000" font-family="sans-serif" font-size="14" lengthAdjust="spacing" textLength="172.0947" x="865.2637" y="2729.8489">de Titulaci&#243;n Profesional</text></g><g id="elem_datosLab"><ellipse cx="640.9582" cy="1958.0036" fill="#F1F1F1" rx="109.8182" ry="24.3636" style="stroke:#181818;stroke-width:0.5;"/><text fill="#000000" font-family="sans-serif" font-size="14" lengthAdjust="spacing" textLength="185.4863" x="548.2151" y="1960.8503">Introducir Datos Laborales</text></g><g id="elem_notaDatosLab"><path d="M556.98,1808.87 L556.98,1849.1356 L724.9409,1849.1356 L724.9409,1818.87 L714.9409,1808.87 L556.98,1808.87 " fill="#FEFFDD" style="stroke:#181818;stroke-width:0.5;"/><path d="M714.9409,1808.87 L714.9409,1818.87 L724.9409,1818.87 L714.9409,1808.87 " fill="#FEFFDD" style="stroke:#181818;stroke-width:1;"/><text fill="#000000" font-family="sans-serif" font-size="13" lengthAdjust="spacing" textLength="146.9609" x="562.98" y="1825.9369">Permitir heredar datos</text><text fill="#000000" font-family="sans-serif" font-size="13" lengthAdjust="spacing" textLength="103.8413" x="562.98" y="1841.0697">del a&#241;o anterior</text></g><g id="elem_contrato"><ellipse cx="951.3077" cy="2047.9955" fill="#F1F1F1" rx="66.4777" ry="15.6955" style="stroke:#181818;stroke-width:0.5;"/><text fill="#000000" font-family="sans-serif" font-size="14" lengthAdjust="spacing" textLength="83.043" x="906.7862" y="2051.7431">de Contrato</text></g><g id="elem_horas"><ellipse cx="951.3149" cy="1982.9993" fill="#F1F1F1" rx="56.8349" ry="14.7493" style="stroke:#181818;stroke-width:0.5;"/><text fill="#000000" font-family="sans-serif" font-size="14" lengthAdjust="spacing" textLength="62.6719" x="916.979" y="1986.7468">de Horas</text></g><g id="elem_temp"><ellipse cx="951.3107" cy="1915.0021" fill="#F1F1F1" rx="80.0607" ry="18.4121" style="stroke:#181818;stroke-width:0.5;"/><text fill="#000000" font-family="sans-serif" font-size="14" lengthAdjust="spacing" textLength="118.6719" x="890.3314" y="1918.3759">de Temporalidad</text></g><g id="elem_catProf"><ellipse cx="951.306" cy="1837.9972" fill="#F1F1F1" rx="103.586" ry="23.1172" style="stroke:#181818;stroke-width:0.5;"/><text fill="#000000" font-family="sans-serif" font-size="14" lengthAdjust="spacing" textLength="171.9307" x="865.3407" y="1840.8439">de Categor&#237;a Profesional</text></g><g id="elem_consultaValores"><ellipse cx="640.9615" cy="1480.0023" fill="#F1F1F1" rx="82.2115" ry="18.8423" style="stroke:#181818;stroke-width:0.5;"/><text fill="#000000" font-family="sans-serif" font-size="14" lengthAdjust="spacing" textLength="123.8193" x="578.1878" y="1483.137">Consultar Valores</text></g><g id="elem_GMN31"><path d="M538.61,1534.3 L538.61,1589.6984 A0,0 0 0 0 538.61,1589.6984 L743.3048,1589.6984 A0,0 0 0 0 743.3048,1589.6984 L743.3048,1544.3 L733.3048,1534.3 L644.96,1534.3 L640.96,1499.34 L636.96,1534.3 L538.61,1534.3 A0,0 0 0 0 538.61,1534.3 " fill="#FEFFDD" style="stroke:#181818;stroke-width:0.5;"/><path d="M733.3048,1534.3 L733.3048,1544.3 L743.3048,1544.3 L733.3048,1534.3 " fill="#FEFFDD" style="stroke:#181818;stroke-width:0.5;"/><text fill="#000000" font-family="sans-serif" font-size="13" lengthAdjust="spacing" textLength="183.6948" x="544.61" y="1551.3669">Consultar valores asignados</text><text fill="#000000" font-family="sans-serif" font-size="13" lengthAdjust="spacing" textLength="164.436" x="544.61" y="1566.4997">de contrato y otros datos</text><text fill="#000000" font-family="sans-serif" font-size="13" lengthAdjust="spacing" textLength="70.9097" x="544.61" y="1581.6325">personales</text></g><g id="elem_consAsig"><ellipse cx="640.9601" cy="1219.996" fill="#F1F1F1" rx="92.6301" ry="20.926" style="stroke:#181818;stroke-width:0.5;"/><text fill="#000000" font-family="sans-serif" font-size="14" lengthAdjust="spacing" textLength="147.6699" x="567.1251" y="1222.8427">Consultar Asignaci&#243;n</text></g><g id="elem_porTit"><ellipse cx="951.3117" cy="1286.0023" fill="#F1F1F1" rx="71.1617" ry="16.6323" style="stroke:#181818;stroke-width:0.5;"/><text fill="#000000" font-family="sans-serif" font-size="14" lengthAdjust="spacing" textLength="95.9561" x="900.3336" y="1289.7499">por Titulaci&#243;n</text></g><g id="elem_porCurso"><ellipse cx="951.3147" cy="1219.9968" fill="#F1F1F1" rx="60.7547" ry="14.7768" style="stroke:#181818;stroke-width:0.5;"/><text fill="#000000" font-family="sans-serif" font-size="14" lengthAdjust="spacing" textLength="67.9219" x="914.3537" y="1223.7443">por Curso</text></g><g id="elem_porSem"><ellipse cx="951.3118" cy="1153.9984" fill="#F1F1F1" rx="70.6418" ry="16.5284" style="stroke:#181818;stroke-width:0.5;"/><text fill="#000000" font-family="sans-serif" font-size="14" lengthAdjust="spacing" textLength="94.5615" x="901.031" y="1157.7459">por Semestre</text></g><g id="elem_consProf"><ellipse cx="640.9601" cy="925.996" fill="#F1F1F1" rx="92.6301" ry="20.926" style="stroke:#181818;stroke-width:0.5;"/><text fill="#000000" font-family="sans-serif" font-size="14" lengthAdjust="spacing" textLength="147.6699" x="567.1251" y="928.8427">Consultar Asignaci&#243;n</text></g><g id="elem_GMN42"><path d="M521.11,981.87 L521.11,1022.1356 A0,0 0 0 0 521.11,1022.1356 L760.8058,1022.1356 A0,0 0 0 0 760.8058,1022.1356 L760.8058,991.87 L750.8058,981.87 L644.96,981.87 L640.96,947.25 L636.96,981.87 L521.11,981.87 A0,0 0 0 0 521.11,981.87 " fill="#FEFFDD" style="stroke:#181818;stroke-width:0.5;"/><path d="M750.8058,981.87 L750.8058,991.87 L760.8058,991.87 L750.8058,981.87 " fill="#FEFFDD" style="stroke:#181818;stroke-width:0.5;"/><text fill="#000000" font-family="sans-serif" font-size="13" lengthAdjust="spacing" textLength="218.6958" x="527.11" y="998.9369">Consultar asignaci&#243;n docente por</text><text fill="#000000" font-family="sans-serif" font-size="13" lengthAdjust="spacing" textLength="212.8369" x="527.11" y="1014.0697">profesor (cr&#233;ditos y asignaturas)</text></g><g id="elem_consClaustro"><ellipse cx="640.958" cy="618.0016" fill="#F1F1F1" rx="84.758" ry="19.3516" style="stroke:#181818;stroke-width:0.5;"/><text fill="#000000" font-family="sans-serif" font-size="14" lengthAdjust="spacing" textLength="129.7666" x="576.0601" y="620.8534">Consultar Claustro</text></g><g id="elem_GMN47"><path d="M555.62,672.3 L555.62,727.6984 A0,0 0 0 0 555.62,727.6984 L726.2914,727.6984 A0,0 0 0 0 726.2914,727.6984 L726.2914,682.3 L716.2914,672.3 L644.96,672.3 L640.96,637.76 L636.96,672.3 L555.62,672.3 A0,0 0 0 0 555.62,672.3 " fill="#FEFFDD" style="stroke:#181818;stroke-width:0.5;"/><path d="M716.2914,672.3 L716.2914,682.3 L726.2914,682.3 L716.2914,672.3 " fill="#FEFFDD" style="stroke:#181818;stroke-width:0.5;"/><text fill="#000000" font-family="sans-serif" font-size="13" lengthAdjust="spacing" textLength="134.4688" x="561.62" y="689.3669">Listado PDI asociado</text><text fill="#000000" font-family="sans-serif" font-size="13" lengthAdjust="spacing" textLength="149.6714" x="561.62" y="704.4997">a una titulaci&#243;n, anual,</text><text fill="#000000" font-family="sans-serif" font-size="13" lengthAdjust="spacing" textLength="86.3281" x="561.62" y="719.6325">por semestre</text></g><g id="elem_Validar Datos"><ellipse cx="640.9603" cy="257.0001" fill="#F1F1F1" rx="70.5503" ry="16.5101" style="stroke:#181818;stroke-width:0.5;"/><text fill="#000000" font-family="sans-serif" font-size="14" lengthAdjust="spacing" textLength="94.3154" x="590.8026" y="260.7476">Validar Datos</text></g><g id="elem_Modificar Datos"><ellipse cx="640.9566" cy="187.9973" fill="#F1F1F1" rx="76.3366" ry="17.6673" style="stroke:#181818;stroke-width:0.5;"/><text fill="#000000" font-family="sans-serif" font-size="14" lengthAdjust="spacing" textLength="109.4297" x="583.2418" y="191.7449">Modificar Datos</text></g><g id="elem_notaGestDatos"><path d="M836.11,233.87 L836.11,274.1356 L1066.5128,274.1356 L1066.5128,243.87 L1056.5128,233.87 L836.11,233.87 " fill="#FEFFDD" style="stroke:#181818;stroke-width:0.5;"/><path d="M1056.5128,233.87 L1056.5128,243.87 L1066.5128,243.87 L1056.5128,233.87 " fill="#FEFFDD" style="stroke:#181818;stroke-width:1;"/><text fill="#000000" font-family="sans-serif" font-size="13" lengthAdjust="spacing" textLength="209.4028" x="842.11" y="250.9369">Datos introducidos previamente</text><text fill="#000000" font-family="sans-serif" font-size="13" lengthAdjust="spacing" textLength="119.793" x="842.11" y="266.0697">por el profesorado</text></g><g id="elem_valCumpli1"><ellipse cx="640.9572" cy="399.9994" fill="#F1F1F1" rx="94.3972" ry="21.2794" style="stroke:#181818;stroke-width:0.5;"/><text fill="#000000" font-family="sans-serif" font-size="14" lengthAdjust="spacing" textLength="151.6279" x="565.1432" y="402.8461">Validar Cumplimiento</text></g><g id="elem_GMN57"><path d="M842.17,365.3 L842.17,391.46 L735.31,397.88 L842.17,399.46 L842.17,420.6984 A0,0 0 0 0 842.17,420.6984 L1060.4488,420.6984 A0,0 0 0 0 1060.4488,420.6984 L1060.4488,375.3 L1050.4488,365.3 L842.17,365.3 A0,0 0 0 0 842.17,365.3 " fill="#FEFFDD" style="stroke:#181818;stroke-width:0.5;"/><path d="M1050.4488,365.3 L1050.4488,375.3 L1060.4488,375.3 L1050.4488,365.3 " fill="#FEFFDD" style="stroke:#181818;stroke-width:0.5;"/><text fill="#000000" font-family="sans-serif" font-size="13" lengthAdjust="spacing" textLength="159.25" x="848.17" y="382.3669">Validar cumplimiento de</text><text fill="#000000" font-family="sans-serif" font-size="13" lengthAdjust="spacing" textLength="197.2788" x="848.17" y="397.4997">compromisos de memoria con</text><text fill="#000000" font-family="sans-serif" font-size="13" lengthAdjust="spacing" textLength="170.6123" x="848.17" y="412.6325">los valores de la titulaci&#243;n</text></g><!--link datosAcad to expDoc--><g id="link_datosAcad_expDoc"><path d="M668.71,2504.53 C699.98,2533.07 754.41,2578.84 808.81,2606 C829.59,2616.38 847.6932,2622.8449 869.8532,2628.9149 " fill="#FFFFFF" fill-opacity="0.00000" id="datosAcad-to-expDoc" style="stroke:#181818;stroke-width:1;stroke-dasharray:7.0,7.0;"/><polygon fill="#181818" points="875.64,2630.5,868.0165,2624.2644,870.8176,2629.1791,865.903,2631.9802,875.64,2630.5" style="stroke:#181818;stroke-width:1;"/></g><!--link datosAcad to expProf--><g id="link_datosAcad_expProf"><path d="M715.82,2499.36 C765.97,2513.19 826.0757,2529.7557 875.2357,2543.3057 " fill="#FFFFFF" fill-opacity="0.00000" id="datosAcad-to-expProf" style="stroke:#181818;stroke-width:1;stroke-dasharray:7.0,7.0;"/><polygon fill="#181818" points="881.02,2544.9,873.4064,2538.6523,876.1998,2543.5714,871.2807,2546.3647,881.02,2544.9" style="stroke:#181818;stroke-width:1;"/></g><!--link datosAcad to expInv--><g id="link_datosAcad_expInv"><path d="M758.53,2479 C782.75,2479 802.28,2479 826.54,2479 " fill="#FFFFFF" fill-opacity="0.00000" id="datosAcad-to-expInv" style="stroke:#181818;stroke-width:1;stroke-dasharray:7.0,7.0;"/><polygon fill="#181818" points="832.54,2479,823.54,2475,827.54,2479,823.54,2483,832.54,2479" style="stroke:#181818;stroke-width:1;"/></g><!--link datosAcad to sexenios--><g id="link_datosAcad_sexenios"><path d="M716.59,2458.83 C745.36,2451.18 778.57,2442.51 808.81,2435 C839.53,2427.37 868.2918,2420.631 895.5918,2414.371 " fill="#FFFFFF" fill-opacity="0.00000" id="datosAcad-to-sexenios" style="stroke:#181818;stroke-width:1;stroke-dasharray:7.0,7.0;"/><polygon fill="#181818" points="901.44,2413.03,891.7737,2411.1427,896.5665,2414.1475,893.5617,2418.9403,901.44,2413.03" style="stroke:#181818;stroke-width:1;"/></g><!--link datosAcad to acred--><g id="link_datosAcad_acred"><path d="M673.36,2453.73 C705.6,2428.92 758.1,2391.6 808.81,2369 C833.16,2358.15 855.5017,2351.3536 880.2717,2345.4836 " fill="#FFFFFF" fill-opacity="0.00000" id="datosAcad-to-acred" style="stroke:#181818;stroke-width:1;stroke-dasharray:7.0,7.0;"/><polygon fill="#181818" points="886.11,2344.1,876.4302,2342.2831,881.2447,2345.253,878.2749,2350.0675,886.11,2344.1" style="stroke:#181818;stroke-width:1;"/></g><!--link datosAcad to mov--><g id="link_datosAcad_mov"><path d="M689.13,2455.09 C725.92,2433.8 774.97,2399.06 800.81,2354 C813.75,2331.43 791.34,2315.29 808.81,2296 C827.38,2275.5 850.0099,2267.1557 876.6299,2263.3657 " fill="#FFFFFF" fill-opacity="0.00000" id="datosAcad-to-mov" style="stroke:#181818;stroke-width:1;stroke-dasharray:7.0,7.0;"/><polygon fill="#181818" points="882.57,2262.52,873.096,2259.8285,877.6199,2263.2248,874.2237,2267.7486,882.57,2262.52" style="stroke:#181818;stroke-width:1;"/></g><!--link datosAcad to titProf--><g id="link_datosAcad_titProf"><path d="M655.73,2504.88 C680.45,2548.82 736.56,2637.92 808.81,2686 C826.8,2697.97 842.5702,2704.8295 863.3402,2710.8895 " fill="#FFFFFF" fill-opacity="0.00000" id="datosAcad-to-titProf" style="stroke:#181818;stroke-width:1;stroke-dasharray:7.0,7.0;"/><polygon fill="#181818" points="869.1,2712.57,861.5806,2706.2093,864.3001,2711.1696,859.3399,2713.8891,869.1,2712.57" style="stroke:#181818;stroke-width:1;"/></g><!--link datosLab to contrato--><g id="link_datosLab_contrato"><path d="M699.04,1979.08 C731.06,1990.51 771.88,2004.41 808.81,2015 C838.87,2023.62 867.1494,2030.3442 894.3594,2036.3142 " fill="#FFFFFF" fill-opacity="0.00000" id="datosLab-to-contrato" style="stroke:#181818;stroke-width:1;stroke-dasharray:7.0,7.0;"/><polygon fill="#181818" points="900.22,2037.6,892.2863,2031.7642,895.3362,2036.5285,890.5719,2039.5783,900.22,2037.6" style="stroke:#181818;stroke-width:1;"/></g><!--link datosLab to horas--><g id="link_datosLab_horas"><path d="M744.63,1966.32 C795.44,1970.44 848.6996,1974.7651 890.5096,1978.1551 " fill="#FFFFFF" fill-opacity="0.00000" id="datosLab-to-horas" style="stroke:#181818;stroke-width:1;stroke-dasharray:7.0,7.0;"/><polygon fill="#181818" points="896.49,1978.64,887.8427,1973.9257,891.5064,1978.2359,887.1962,1981.8996,896.49,1978.64" style="stroke:#181818;stroke-width:1;"/></g><!--link datosLab to temp--><g id="link_datosLab_temp"><path d="M734.89,1945.04 C782.24,1938.44 832.8374,1931.378 876.1174,1925.348 " fill="#FFFFFF" fill-opacity="0.00000" id="datosLab-to-temp" style="stroke:#181818;stroke-width:1;stroke-dasharray:7.0,7.0;"/><polygon fill="#181818" points="882.06,1924.52,872.5941,1921.8002,877.1078,1925.21,873.6981,1929.7237,882.06,1924.52" style="stroke:#181818;stroke-width:1;"/></g><!--link datosLab to catProf--><g id="link_datosLab_catProf"><path d="M685.04,1935.26 C718.25,1918.3 765.65,1895.35 808.81,1879 C832.13,1870.17 852.4347,1863.7368 875.7947,1857.1568 " fill="#FFFFFF" fill-opacity="0.00000" id="datosLab-to-catProf" style="stroke:#181818;stroke-width:1;stroke-dasharray:7.0,7.0;"/><polygon fill="#181818" points="881.57,1855.53,871.8226,1854.12,876.7573,1856.8856,873.9916,1861.8203,881.57,1855.53" style="stroke:#181818;stroke-width:1;"/></g><!--link consAsig to porTit--><g id="link_consAsig_porTit"><path d="M709.25,1234.4 C765.95,1246.54 840.0728,1262.4047 892.0928,1273.5347 " fill="#FFFFFF" fill-opacity="0.00000" id="consAsig-to-porTit" style="stroke:#181818;stroke-width:1;stroke-dasharray:7.0,7.0;"/><polygon fill="#181818" points="897.96,1274.79,889.9961,1268.9955,893.0707,1273.7439,888.3223,1276.8185,897.96,1274.79" style="stroke:#181818;stroke-width:1;"/></g><!--link consAsig to porCurso--><g id="link_consAsig_porCurso"><path d="M734.06,1220 C784.63,1220 839.91,1220 884.3,1220 " fill="#FFFFFF" fill-opacity="0.00000" id="consAsig-to-porCurso" style="stroke:#181818;stroke-width:1;stroke-dasharray:7.0,7.0;"/><polygon fill="#181818" points="890.3,1220,881.3,1216,885.3,1220,881.3,1224,890.3,1220" style="stroke:#181818;stroke-width:1;"/></g><!--link consAsig to porSem--><g id="link_consAsig_porSem"><path d="M731.13,1214.89 C754.58,1211.19 779.31,1205.05 800.81,1195 C805.09,1193 804.61,1190.17 808.81,1188 C833.49,1175.23 857.2028,1168.3178 882.9328,1163.2578 " fill="#FFFFFF" fill-opacity="0.00000" id="consAsig-to-porSem" style="stroke:#181818;stroke-width:1;stroke-dasharray:7.0,7.0;"/><polygon fill="#181818" points="888.82,1162.1,879.2173,1159.9118,883.914,1163.0648,880.761,1167.7615,888.82,1162.1" style="stroke:#181818;stroke-width:1;"/></g><!--link prof to datosAcadPackage--><g id="link_prof_datosAcadPackage"><path d="M355.82,1464.44 C360.11,1600.47 377.29,2053.64 417.11,2104 C433.06,2124.175 454.6556,2138.9625 478.1522,2149.7922 C484.0263,2152.4996 490.0193,2154.9597 496.0725,2157.1947 C496.8292,2157.4741 491.9399,2155.7219 492.6984,2155.9943 " fill="#FFFFFF" fill-opacity="0.00000" id="prof-to-datosAcadPackage" style="stroke:#181818;stroke-width:1;"/><polygon fill="#181818" points="498.3452,2158.0223,491.227,2151.2156,493.6395,2156.3323,488.5229,2158.7448,498.3452,2158.0223" style="stroke:#181818;stroke-width:1;"/></g><!--link prof to datosPersonalesPackage--><g id="link_prof_datosPersonalesPackage"><path d="M390.83,1426 C409.72,1426 434.4,1426 460.8763,1426 C474.1144,1426 487.8016,1426 501.4386,1426 C504.8479,1426 508.254,1426 511.6492,1426 C512.498,1426 507.3461,1426 508.1934,1426 " fill="#FFFFFF" fill-opacity="0.00000" id="prof-to-datosPersonalesPackage" style="stroke:#181818;stroke-width:1;"/><polygon fill="#181818" points="514.1934,1426,505.1934,1422,509.1934,1426,505.1934,1430,514.1934,1426" style="stroke:#181818;stroke-width:1;"/></g><!--link prof to porVarPackage--><g id="link_prof_porVarPackage"><path d="M356.83,1387.53 C361.81,1313.38 376.99,1154.96 417.11,1121 C435.725,1105.2425 458.6744,1096.7563 482.6973,1092.9167 C494.7088,1090.997 506.9887,1090.2389 519.1294,1090.3144 C520.647,1090.3238 516.164,1090.2081 517.6764,1090.2429 " fill="#FFFFFF" fill-opacity="0.00000" id="prof-to-porVarPackage" style="stroke:#181818;stroke-width:1;"/><polygon fill="#181818" points="523.6748,1090.3812,514.7694,1086.1749,518.6762,1090.266,514.5851,1094.1728,523.6748,1090.3812" style="stroke:#181818;stroke-width:1;"/></g><!--link rrhh to gestDatosPackage--><g id="link_rrhh_gestDatosPackage"><path d="M150.73,747.67 C173.19,710 210.48,645.58 238.29,588 C329.01,400.14 248.85,277.33 417.11,154 C436.84,139.5375 460.355,131.0425 484.5972,126.4538 C496.7183,124.1594 509.0212,122.8416 521.1236,122.2427 C527.1749,121.9432 533.176,121.8235 539.0792,121.8513 C539.4482,121.853 533.8169,121.8084 534.1851,121.8112 " fill="#FFFFFF" fill-opacity="0.00000" id="rrhh-to-gestDatosPackage" style="stroke:#181818;stroke-width:1;"/><polygon fill="#181818" points="540.1849,121.8582,531.2165,117.7879,535.1851,121.8191,531.1539,125.7876,540.1849,121.8582" style="stroke:#181818;stroke-width:1;"/></g><!--link rrhh to datosLabPackage--><g id="link_rrhh_datosLabPackage"><path d="M133.25,818.26 C140.73,928.14 172.7,1251.53 298.29,1482 C343.97,1565.835 428.415,1631.955 501.92,1677.3038 C520.2962,1688.6409 537.9887,1698.6799 554.2209,1707.3729 C562.3369,1711.7195 570.0879,1715.7295 577.3767,1719.3971 C578.2877,1719.8555 573.8239,1717.6277 574.7203,1718.0754 " fill="#FFFFFF" fill-opacity="0.00000" id="rrhh-to-datosLabPackage" style="stroke:#181818;stroke-width:1;"/><polygon fill="#181818" points="580.0881,1720.7563,573.8237,1713.1565,575.615,1718.5223,570.2492,1720.3135,580.0881,1720.7563" style="stroke:#181818;stroke-width:1;"/></g><!--link rrhh to claustroPackage--><g id="link_rrhh_claustroPackage"><path d="M150.72,778.29 C202.72,772.59 344.73,749.36 409.11,662 C419.58,647.8 404.56,595.41 417.11,583 C434.5125,565.795 456.8456,555.8469 480.6288,550.6258 C492.5203,548.0152 504.7744,546.5864 516.9559,546.0232 C520.0012,545.8824 523.0421,545.7956 526.0716,545.7581 C527.5863,545.7393 523.0983,545.7122 524.6065,545.7174 " fill="#FFFFFF" fill-opacity="0.00000" id="rrhh-to-claustroPackage" style="stroke:#181818;stroke-width:1;"/><polygon fill="#181818" points="530.6065,545.738,521.6202,541.7071,525.6065,545.7208,521.5928,549.7071,530.6065,545.738" style="stroke:#181818;stroke-width:1;"/></g><!--link rrhh to porProfPackage--><g id="link_rrhh_porProfPackage"><path d="M150.78,783.47 C197.17,791.675 317.9225,813.035 427.84,832.4788 C441.5797,834.9092 455.1501,837.3097 468.3848,839.6509 C475.0021,840.8215 481.5355,841.9772 487.9642,843.1144 C489.5714,843.3987 491.172,843.6819 492.7658,843.9638 C493.5627,844.1047 488.4496,843.2003 489.243,843.3406 " fill="#FFFFFF" fill-opacity="0.00000" id="rrhh-to-porProfPackage" style="stroke:#181818;stroke-width:1;"/><polygon fill="#181818" points="495.1512,844.3858,486.9856,838.8792,490.2277,843.5148,485.5921,846.7569,495.1512,844.3858" style="stroke:#181818;stroke-width:1;"/></g><!--link ord to claustroPackage--><g id="link_ord_claustroPackage"><path d="M170.65,534.41 C229.955,538.02 345.92,545.085 447.7313,551.2888 C473.1841,552.8397 497.7523,554.3368 520.3294,555.7126 C523.1515,555.8846 525.9426,556.0547 528.7003,556.2228 C529.3898,556.2648 524.0882,555.9417 524.7735,555.9835 " fill="#FFFFFF" fill-opacity="0.00000" id="ord-to-claustroPackage" style="stroke:#181818;stroke-width:1;"/><polygon fill="#181818" points="530.7624,556.3484,522.0223,551.8084,525.7716,556.0443,521.5357,559.7936,530.7624,556.3484" style="stroke:#181818;stroke-width:1;"/></g><!--link ord to porProfPackage--><g id="link_ord_porProfPackage"><path d="M170.84,563.91 C204.4,590.63 253.96,629.51 298.29,662 C350.04,699.93 362.72,709.95 417.11,744 C464.575,773.715 519.3,804.7025 562.6413,828.5112 C568.0589,831.4873 573.2987,834.3513 578.3242,837.0865 C580.8369,838.4541 583.2961,839.7896 585.6972,841.0908 C586.2974,841.4161 586.8941,841.7393 587.487,842.0603 C587.7835,842.2208 582.802,839.5254 583.0966,839.6848 " fill="#FFFFFF" fill-opacity="0.00000" id="ord-to-porProfPackage" style="stroke:#181818;stroke-width:1;"/><polygon fill="#181818" points="588.3736,842.5402,582.3616,834.7391,583.9761,840.1607,578.5545,841.7751,588.3736,842.5402" style="stroke:#181818;stroke-width:1;"/></g><!--link ord to valCumpli1--><g id="link_ord_valCumpli1"><path d="M170.65,521.75 C258.67,498.92 465.7123,445.2067 571.8323,417.6767 " fill="#FFFFFF" fill-opacity="0.00000" id="ord-to-valCumpli1" style="stroke:#181818;stroke-width:1;"/><polygon fill="#181818" points="577.64,416.17,567.9239,414.5582,572.8002,417.4256,569.9328,422.3018,577.64,416.17" style="stroke:#181818;stroke-width:1;"/></g><!--link tec to claustroPackage--><g id="link_tec_claustroPackage"><path d="M409.59,584.88 C412.12,584.19 414.63,583.56 417.11,583 C440.985,577.6275 466.605,573.6881 491.6653,570.8019 C504.1955,569.3588 516.5857,568.1789 528.5479,567.2148 C529.2956,567.1546 524.06,567.566 524.8043,567.5074 " fill="#FFFFFF" fill-opacity="0.00000" id="tec-to-claustroPackage" style="stroke:#181818;stroke-width:1;"/><polygon fill="#181818" points="530.7858,567.0366,521.4996,563.7552,525.8012,567.4289,522.1274,571.7305,530.7858,567.0366" style="stroke:#181818;stroke-width:1;"/></g><!--link tec to porProfPackage--><g id="link_tec_porProfPackage"><path d="M364.92,644.54 C374.44,674.48 391.12,715.57 417.11,744 C454.89,785.335 509.465,816.505 555.15,837.5025 C558.0053,838.8148 560.8259,840.0875 563.6055,841.3203 C564.3004,841.6285 564.9927,841.9343 565.6824,842.2375 C566.0272,842.3891 560.8751,840.1338 561.2186,840.2842 " fill="#FFFFFF" fill-opacity="0.00000" id="tec-to-porProfPackage" style="stroke:#181818;stroke-width:1;"/><polygon fill="#181818" points="566.7149,842.6905,560.0746,835.4168,562.1346,840.6853,556.8662,842.7453,566.7149,842.6905" style="stroke:#181818;stroke-width:1;"/></g><!--link tec to valCumpli1--><g id="link_tec_valCumpli1"><path d="M381.01,567.38 C391.29,553.95 403.81,539.4 417.11,528 C472.83,480.23 543.517,443.5247 590.817,421.5847 " fill="#FFFFFF" fill-opacity="0.00000" id="tec-to-valCumpli1" style="stroke:#181818;stroke-width:1;"/><polygon fill="#181818" points="596.26,419.06,586.4124,419.2184,591.7242,421.1639,589.7787,426.4757,596.26,419.06" style="stroke:#181818;stroke-width:1;"/></g><!--SRC=[lLZDRjiu4BxxAGXVTXTe2-mB50YSeWdGO8qqs5ClN9AnYKgaG551Wi8Fb4CFYtq4lzZEy4SY9SgoYw8w6ERCS3WSVfmVLkBH4gk9aRkz9LmQmQpKQhLgAFjATuAiFuhMokD_Yd11hgdLBVofoDReHz5gGxbUasyh0XzbLXkoZXpHhWbjIGF3bFsNuK9HXXeTNnkUiX-Ehqn9fic6Lf9JxcIiOAdC_VtDZQCRiz-dZ2jUIoLRYrOP9q6HuaJSZzKxOVV218lnmmrJjQjWfxVA6iqxnhBjhXDX_7h7U6TSCSgFhpMOxFVBaOh4RP3BP-FNjOBHDbbG6hAWRA9ZGkZDUf3DMDFKXCmCsEc7vqOOAHIJb5nh9fGLpW3ntC3mekd-_053j8egjX43v-guLK-8kXsU8urQWBYevBDu5ae6xxLXi3ZhYXd1fGLKQXLWIv6qEF5EFya1fhLUDl11sgxoy9zuoafRzDHXGb7QWhgjCBMq01v0jE3KUBXyKNW_wV5VJIWSev7XAi0SUbt4Kwx_5DW_qN_WG2gHe1D8FuBqigQBOPweMGRvHeCLi99RaeN1ugmRMC1RkST_ooSiwWPjIg9NtIpRHgtOQNFyFhr0ZFuIM8pTFwWV_fMY9dYrxIfBpmsOO5wBUqkFVg2TWQMue25_qwhFConG0wti6wiReXyNPV4RLddoKh28t2c8I6Lvs7s457aX6k0UzbQKRleDJzX2SMVinLVqojc7CImBuRGdYpRGJtYva26BYsqrkj_4K0k8Xz6ysXE76CsE1G4U3jAMTS2YQJoDXW3flBcR3WuXpdA3y-Pz5ZLa9oFYL1WN9nvMopwCrLBKXUEVviRPl5kw42U5ynj1XxK8zv12sq_ERi96oU_C75yXsyBzU0cQR0U1zO_PwSKRCHy53nVVd4r5EpXGdTqR5eWNHQIegJ-2I5YCHxE2-7s2eXOY3zbUtu9Y3IKIBmjIqYcAXKIy56yWsdUqUbD68Xn76y1yQHmwdHJkD9UFaWMCl62aXdmOq3cJ7lf68sGHyE0EI6vqnY7u9K9ziPwNYwRDIleiwfELZ7KBX7s0i7YIj4Q4V57eEqYeJTe7XNJwCLfzCH0JDv4xKMiZVVKBAGY65pXXqzLD9MiefqEv0neyxS_oVdt_LqH9rCaIdP3kYh9Cr-2HMhQkJIIrtmC2l2XUwRPFho1UPT3zCKGUXcxlDt8lgf3vKBrBnr3PzvsHa-fxBFBktVkquPam-WWvuSJM96Ta_KVE6jgBd1vRY9oQDWOdTbR5OdXG0KMTqv1LknbdA6epSb-qvcheWY5fPi0RCiJtbOU7p-rEMPAgn_GX6OyvCTUMLyTdWB1zl9ZaxTltauQym9sKdxbCLjpud8ul3y03vZX4ZTYZ7cd47UMO4JSl1_p2sl3vgJrpD3FZ9P70lua8HkOKHbv1NsID0ijgdDk65nZyFbGaUwG1Q0irN6ZA60HJo69MOy35y01nBGcaSCXTYz67z0z5hdbotTQGvF252B9EyjQqoWB8uNy0]--></g></svg>