<svg xmlns="http://www.w3.org/2000/svg" xmlns:xlink="http://www.w3.org/1999/xlink" contentStyleType="text/css" height="531px" preserveAspectRatio="none" style="width:361px;height:531px;background:#FFFFFF;" version="1.1" viewBox="0 0 361 531" width="361px" zoomAndPan="magnify"><defs/><g><!--cluster Carga Docente--><g id="cluster_Carga Docente"><rect fill="none" height="339" rx="2.5" ry="2.5" style="stroke:#181818;stroke-width:1;" width="147" x="180" y="7"/><text fill="#000000" font-family="sans-serif" font-size="14" font-weight="bold" lengthAdjust="spacing" textLength="116.1563" x="195.4219" y="21.9951">Carga Docente</text></g><!--cluster Memoria Acad?mica--><g id="cluster_Memoria Acad&#233;mica"><rect fill="none" height="155" rx="2.5" ry="2.5" style="stroke:#181818;stroke-width:1;" width="203" x="152" y="370"/><text fill="#000000" font-family="sans-serif" font-size="14" font-weight="bold" lengthAdjust="spacing" textLength="158.8877" x="174.0562" y="384.9951">Memoria Acad&#233;mica</text></g><g id="elem_Caso1"><ellipse cx="253.4716" cy="315.16" fill="#F1F1F1" rx="46.9716" ry="14.66" style="stroke:#181818;stroke-width:0.5;"/><text fill="#000000" font-family="sans-serif" font-size="14" lengthAdjust="spacing" textLength="49.458" x="225.7426" y="318.9076">Ajustar</text></g><g id="elem_Caso2"><ellipse cx="253.4218" cy="185.7536" fill="#F1F1F1" rx="57.4218" ry="14.7536" style="stroke:#181818;stroke-width:0.5;"/><text fill="#000000" font-family="sans-serif" font-size="14" lengthAdjust="spacing" textLength="63.458" x="218.6928" y="189.5012">Proponer</text></g><g id="elem_Caso4"><ellipse cx="253.4766" cy="251.181" fill="#F1F1F1" rx="48.9766" ry="14.681" style="stroke:#181818;stroke-width:0.5;"/><text fill="#000000" font-family="sans-serif" font-size="14" lengthAdjust="spacing" textLength="52.1445" x="224.4043" y="254.9286">Revisar</text></g><g id="elem_Caso5"><ellipse cx="253.5072" cy="121.1863" fill="#F1F1F1" rx="49.5072" ry="14.6863" style="stroke:#181818;stroke-width:0.5;"/><text fill="#000000" font-family="sans-serif" font-size="14" lengthAdjust="spacing" textLength="52.8555" x="224.0795" y="124.9339">Asignar</text></g><g id="elem_Caso7"><ellipse cx="253.4179" cy="57.0236" fill="#F1F1F1" rx="28.4179" ry="14.5236" style="stroke:#181818;stroke-width:0.5;"/><text fill="#000000" font-family="sans-serif" font-size="14" lengthAdjust="spacing" textLength="23.9463" x="241.4447" y="59.8703">Ver</text></g><g id="elem_Caso6"><ellipse cx="253.5207" cy="425.0041" fill="#F1F1F1" rx="85.5207" ry="19.5041" style="stroke:#181818;stroke-width:0.5;"/><text fill="#000000" font-family="sans-serif" font-size="14" lengthAdjust="spacing" textLength="131.5234" x="187.759" y="427.8508">Verificar Contratos</text></g><g id="elem_Caso3"><ellipse cx="253.6299" cy="494.2153" fill="#F1F1F1" rx="52.6299" ry="14.7153" style="stroke:#181818;stroke-width:0.5;"/><text fill="#000000" font-family="sans-serif" font-size="14" lengthAdjust="spacing" textLength="57.0391" x="222.1104" y="497.9628">Generar</text></g><!--entity A_Profesor--><g id="elem_A_Profesor"><ellipse cx="56.9604" cy="27.5" fill="#F1F1F1" rx="8" ry="8" style="stroke:#181818;stroke-width:0.5;"/><path d="M56.9604,35.5 L56.9604,62.5 M43.9604,43.5 L69.9604,43.5 M56.9604,62.5 L43.9604,77.5 M56.9604,62.5 L69.9604,77.5 " fill="none" style="stroke:#181818;stroke-width:0.5;"/><text fill="#000000" font-family="sans-serif" font-size="14" lengthAdjust="spacing" textLength="57.9209" x="28" y="91.9951">Profesor</text></g><!--entity A_Departamento--><g id="elem_A_Departamento"><ellipse cx="56.9312" cy="156.5" fill="#F1F1F1" rx="8" ry="8" style="stroke:#181818;stroke-width:0.5;"/><path d="M56.9312,164.5 L56.9312,191.5 M43.9312,172.5 L69.9312,172.5 M56.9312,191.5 L43.9312,206.5 M56.9312,191.5 L69.9312,206.5 " fill="none" style="stroke:#181818;stroke-width:0.5;"/><text fill="#000000" font-family="sans-serif" font-size="14" lengthAdjust="spacing" textLength="101.8623" x="6" y="220.9951">Departamento</text></g><!--entity A_Sistema--><g id="elem_A_Sistema"><ellipse cx="57.1948" cy="395.5" fill="#F1F1F1" rx="8" ry="8" style="stroke:#181818;stroke-width:0.5;"/><path d="M57.1948,403.5 L57.1948,430.5 M44.1948,411.5 L70.1948,411.5 M57.1948,430.5 L44.1948,445.5 M57.1948,430.5 L70.1948,445.5 " fill="none" style="stroke:#181818;stroke-width:0.5;"/><text fill="#000000" font-family="sans-serif" font-size="14" lengthAdjust="spacing" textLength="56.3896" x="29" y="459.9951">Sistema</text></g><!--link A_Profesor to Caso7--><g id="link_A_Profesor_Caso7"><path d="M86.28,57 C123.37,57 182.03,57 218.81,57 " fill="none" id="A_Profesor-to-Caso7" style="stroke:#181818;stroke-width:1;"/><polygon fill="#181818" points="224.81,57,215.81,53,219.81,57,215.81,61,224.81,57" style="stroke:#181818;stroke-width:1;"/></g><!--link A_Departamento to Caso2--><g id="link_A_Departamento_Caso2"><path d="M108.09,186 C134.88,186 161.96,186 189.71,186 " fill="none" id="A_Departamento-to-Caso2" style="stroke:#181818;stroke-width:1;"/><polygon fill="#181818" points="195.71,186,186.71,182,190.71,186,186.71,190,195.71,186" style="stroke:#181818;stroke-width:1;"/></g><!--link A_Departamento to Caso4--><g id="link_A_Departamento_Caso4"><path d="M108.29,205.3 C119.97,209.62 132.38,214.07 144,218 C168.44,226.25 190.5136,233.0076 211.8736,239.2876 " fill="none" id="A_Departamento-to-Caso4" style="stroke:#181818;stroke-width:1;"/><polygon fill="#181818" points="217.63,240.98,210.1237,234.6038,212.833,239.5697,207.8672,242.279,217.63,240.98" style="stroke:#181818;stroke-width:1;"/></g><!--link A_Departamento to Caso5--><g id="link_A_Departamento_Caso5"><path d="M108.23,165.95 C119.91,161.51 132.34,156.95 144,153 C168,144.87 189.586,138.4411 210.826,132.4411 " fill="none" id="A_Departamento-to-Caso5" style="stroke:#181818;stroke-width:1;"/><polygon fill="#181818" points="216.6,130.81,206.8515,129.4073,211.7883,132.1692,209.0263,137.106,216.6,130.81" style="stroke:#181818;stroke-width:1;"/></g><!--link A_Sistema to Caso1--><g id="link_A_Sistema_Caso1"><path d="M85.04,409.7 C123.77,387.8 189.0774,350.8738 224.9874,330.5638 " fill="none" id="A_Sistema-to-Caso1" style="stroke:#181818;stroke-width:1;"/><polygon fill="#181818" points="230.21,327.61,220.407,328.559,225.8579,330.0715,224.3453,335.5224,230.21,327.61" style="stroke:#181818;stroke-width:1;"/></g><!--link A_Sistema to Caso6--><g id="link_A_Sistema_Caso6"><path d="M85.04,425 C106.55,425 131.85,425 161.6,425 " fill="none" id="A_Sistema-to-Caso6" style="stroke:#181818;stroke-width:1;"/><polygon fill="#181818" points="167.6,425,158.6,421,162.6,425,158.6,429,167.6,425" style="stroke:#181818;stroke-width:1;"/></g><!--link A_Sistema to Caso3--><g id="link_A_Sistema_Caso3"><path d="M85.16,437.68 C101.92,445.25 123.97,454.77 144,462 C167.27,470.4 188.1382,476.6867 209.1982,482.5267 " fill="none" id="A_Sistema-to-Caso3" style="stroke:#181818;stroke-width:1;"/><polygon fill="#181818" points="214.98,484.13,207.3762,477.8705,210.1618,482.7939,205.2384,485.5796,214.98,484.13" style="stroke:#181818;stroke-width:1;"/></g><!--SRC=[TP5DQWCn38NtFeMOVHRvxQumJ22hGccXso8SpTGbOmN9wQRqG3r7BrPxEfFO9V72ME-JdX_sWTe0WK5SznPWxuHiSEoDGHjOu56u9Oq7LAXVfsg4MpgY1Ep9HuEX8LV6fcUdWNhyusDXJBe6VNSWg1gK3c7BDWvH1Py6uZefMTH8w_UJ1fGgpJUeF2znJ7HaJnU-AFaJVJZDnbV_tDLrFiFh4hzandVcguZzG3sBGwWjxd- -UsTno9xFkZQg0Wtx81XOprwRh6z7CNuMOJb4I5kwyFBcC9lTZq5C-T1dihW5LhV0EdbDFpI9yolQvegs_0K0]--></g></svg>