<svg xmlns="http://www.w3.org/2000/svg" xmlns:xlink="http://www.w3.org/1999/xlink" contentStyleType="text/css" data-diagram-type="DESCRIPTION" height="564px" preserveAspectRatio="none" style="width:808px;height:564px;background:#FFFFFF;" version="1.1" viewBox="0 0 808 564" width="808px" zoomAndPan="magnify"><defs/><g><!--cluster Generaci?n de Indicadores e Informes--><g id="cluster_Generaci&#243;n de Indicadores e Informes"><rect fill="transparent" height="551" rx="2.5" ry="2.5" style="stroke:#181818;stroke-width:1;" width="795.22" x="7" y="7"/><text fill="#000000" font-family="sans-serif" font-size="14" font-weight="bold" lengthAdjust="spacing" textLength="300.3096" x="254.4552" y="21.9951">Generaci&#243;n de Indicadores e Informes</text></g><!--cluster indicadores--><g id="cluster_indicadores"><path d="M284.62,338 L377.7343,338 A3.75,3.75 0 0 1 380.2343,340.5 L387.2343,360.2969 L508.5,360.2969 A2.5,2.5 0 0 1 511,362.7969 L511,523.5 A2.5,2.5 0 0 1 508.5,526 L284.62,526 A2.5,2.5 0 0 1 282.12,523.5 L282.12,340.5 A2.5,2.5 0 0 1 284.62,338 " fill="transparent" style="stroke:#000000;stroke-width:1.5;"/><line style="stroke:#000000;stroke-width:1.5;" x1="282.12" x2="387.2343" y1="360.2969" y2="360.2969"/><text fill="#000000" font-family="sans-serif" font-size="14" font-weight="bold" lengthAdjust="spacing" textLength="92.1143" x="286.12" y="352.9951">Indicadores</text></g><!--cluster informes--><g id="cluster_informes"><path d="M251.72,58 L322.9251,58 A3.75,3.75 0 0 1 325.4251,60.5 L332.4251,80.2969 L767.72,80.2969 A2.5,2.5 0 0 1 770.22,82.7969 L770.22,295.5 A2.5,2.5 0 0 1 767.72,298 L251.72,298 A2.5,2.5 0 0 1 249.22,295.5 L249.22,60.5 A2.5,2.5 0 0 1 251.72,58 " fill="transparent" style="stroke:#000000;stroke-width:1.5;"/><line style="stroke:#000000;stroke-width:1.5;" x1="249.22" x2="332.4251" y1="80.2969" y2="80.2969"/><text fill="#000000" font-family="sans-serif" font-size="14" font-weight="bold" lengthAdjust="spacing" textLength="70.2051" x="253.22" y="72.9951">Informes</text></g><!--cluster Tipos de Informes--><g id="cluster_Tipos de Informes"><path d="M566.4,117 L709.191,117 A3.75,3.75 0 0 1 711.691,119.5 L718.691,139.2969 L735.72,139.2969 A2.5,2.5 0 0 1 738.22,141.7969 L738.22,263.5 A2.5,2.5 0 0 1 735.72,266 L566.4,266 A2.5,2.5 0 0 1 563.9,263.5 L563.9,119.5 A2.5,2.5 0 0 1 566.4,117 " fill="transparent" style="stroke:#000000;stroke-width:1.5;"/><line style="stroke:#000000;stroke-width:1.5;" x1="563.9" x2="718.691" y1="139.2969" y2="139.2969"/><text fill="#000000" font-family="sans-serif" font-size="14" font-weight="bold" lengthAdjust="spacing" textLength="141.791" x="567.9" y="131.9951">Tipos de Informes</text></g><!--entity tec--><g id="elem_tec"><ellipse cx="118.1121" cy="110.35" fill="#F1F1F1" rx="8" ry="8" style="stroke:#181818;stroke-width:0.5;"/><path d="M118.1121,118.35 L118.1121,145.35 M105.1121,126.35 L131.1121,126.35 M118.1121,145.35 L105.1121,160.35 M118.1121,145.35 L131.1121,160.35 " fill="transparent" style="stroke:#181818;stroke-width:0.5;"/><text fill="#000000" font-family="sans-serif" font-size="14" lengthAdjust="spacing" textLength="110.8242" x="62.7" y="174.8451">T&#233;cnico Calidad</text></g><!--entity admin--><g id="elem_admin"><ellipse cx="118.11" cy="275.35" fill="#F1F1F1" rx="8" ry="8" style="stroke:#181818;stroke-width:0.5;"/><path d="M118.11,283.35 L118.11,310.35 M105.11,291.35 L131.11,291.35 M118.11,310.35 L105.11,325.35 M118.11,310.35 L131.11,325.35 " fill="transparent" style="stroke:#181818;stroke-width:0.5;"/><text fill="#000000" font-family="sans-serif" font-size="14" lengthAdjust="spacing" textLength="99.0801" x="68.57" y="339.8451">Administrador</text></g><g id="elem_GMN19"><path d="M23,378.3 L23,433.6984 A0,0 0 0 0 23,433.6984 L213.2222,433.6984 A0,0 0 0 0 213.2222,433.6984 L213.2222,388.3 L203.2222,378.3 L122.11,378.3 L118.11,343.49 L114.11,378.3 L23,378.3 A0,0 0 0 0 23,378.3 " fill="#FEFFDD" style="stroke:#181818;stroke-width:0.5;"/><path d="M203.2222,378.3 L203.2222,388.3 L213.2222,388.3 L203.2222,378.3 " fill="#FEFFDD" style="stroke:#181818;stroke-width:0.5;"/><text fill="#000000" font-family="sans-serif" font-size="13" lengthAdjust="spacing" textLength="145.0376" x="29" y="395.3669">El Administrador tiene</text><text fill="#000000" font-family="sans-serif" font-size="13" lengthAdjust="spacing" textLength="160.4624" x="29" y="410.4997">acceso a todos los casos</text><text fill="#000000" font-family="sans-serif" font-size="13" lengthAdjust="spacing" textLength="169.2222" x="29" y="425.6325">de uso de Departamentos</text></g><g id="elem_Obtener indicadores"><ellipse cx="396.5638" cy="420.9988" fill="#F1F1F1" rx="90.3938" ry="20.4788" style="stroke:#181818;stroke-width:0.5;"/><text fill="#000000" font-family="sans-serif" font-size="14" lengthAdjust="spacing" textLength="142.6318" x="325.2479" y="423.8454">Obtener indicadores</text></g><g id="elem_GMN7"><path d="M306.12,476.43 L306.12,501.5628 A0,0 0 0 0 306.12,501.5628 L486.9921,501.5628 A0,0 0 0 0 486.9921,501.5628 L486.9921,486.43 L476.9921,476.43 L400.56,476.43 L396.56,441.62 L392.56,476.43 L306.12,476.43 A0,0 0 0 0 306.12,476.43 " fill="#FEFFDD" style="stroke:#181818;stroke-width:0.5;"/><path d="M476.9921,476.43 L476.9921,486.43 L486.9921,486.43 L476.9921,476.43 " fill="#FEFFDD" style="stroke:#181818;stroke-width:0.5;"/><text fill="#000000" font-family="sans-serif" font-size="13" lengthAdjust="spacing" textLength="159.8721" x="312.12" y="493.4969">Para Sistema de Gesti&#243;n</text></g><g id="elem_emitirInforme"><ellipse cx="396.5587" cy="199.9977" fill="#F1F1F1" rx="123.3387" ry="27.0677" style="stroke:#181818;stroke-width:0.5;"/><text fill="#000000" font-family="sans-serif" font-size="14" lengthAdjust="spacing" textLength="214.4639" x="289.3267" y="202.8444">Emitir informe del Profesorado</text></g><g id="elem_titulacion"><ellipse cx="651.0617" cy="233.0023" fill="#F1F1F1" rx="71.1617" ry="16.6323" style="stroke:#181818;stroke-width:0.5;"/><text fill="#000000" font-family="sans-serif" font-size="14" lengthAdjust="spacing" textLength="95.9561" x="600.0836" y="236.7499">por Titulaci&#243;n</text></g><g id="elem_global"><ellipse cx="651.0609" cy="166.9976" fill="#F1F1F1" rx="43.3909" ry="14.6176" style="stroke:#181818;stroke-width:0.5;"/><text fill="#000000" font-family="sans-serif" font-size="14" lengthAdjust="spacing" textLength="44.6592" x="625.7313" y="170.7452">Global</text></g><!--link emitirInforme to titulacion--><g id="link_emitirInforme_titulacion"><path d="M503.55,213.85 C532.43,217.63 556.8107,220.8117 582.3407,224.1517 " fill="transparent" id="emitirInforme-to-titulacion" style="stroke:#181818;stroke-width:1;stroke-dasharray:7.0,7.0;"/><polygon fill="#181818" points="588.29,224.93,579.8849,219.7963,583.3322,224.2814,578.8472,227.7287,588.29,224.93" style="stroke:#181818;stroke-width:1;"/></g><!--link emitirInforme to global--><g id="link_emitirInforme_global"><path d="M503.55,186.15 C541.2,181.23 575.3705,176.7568 604.0905,173.0068 " fill="transparent" id="emitirInforme-to-global" style="stroke:#181818;stroke-width:1;stroke-dasharray:7.0,7.0;"/><polygon fill="#181818" points="610.04,172.23,600.5979,169.4289,605.0821,172.8774,601.6336,177.3616,610.04,172.23" style="stroke:#181818;stroke-width:1;"/></g><!--link tec to indicadores--><g id="link_tec_indicadores"><path d="M156.82,178.65 C175.17,198.65 196.77,224.06 213.22,249 C224.38,265.93 218.74,275.82 233.22,290 C247.195,303.685 264.1231,315.1769 281.7045,324.7263 C290.4952,329.5009 299.4493,333.79 308.2791,337.6248 C308.5551,337.7446 303.3218,335.487 303.5975,335.6059 " fill="transparent" id="tec-to-indicadores" style="stroke:#181818;stroke-width:1;"/><polygon fill="#181818" points="309.1065,337.9829,302.4276,330.7447,304.5157,336.0021,299.2583,338.0901,309.1065,337.9829" style="stroke:#181818;stroke-width:1;"/></g><!--link tec to informes--><g id="link_tec_informes"><path d="M173.88,113.01 C192.3,105.14 213.25,97.46 233.22,93 C237.5575,92.03 241.9758,91.1491 246.4485,90.3499 C247.0076,90.25 247.5675,90.1514 248.1282,90.054 C248.4086,90.0054 242.7752,90.9691 243.0559,90.921 " fill="transparent" id="tec-to-informes" style="stroke:#181818;stroke-width:1;"/><polygon fill="#181818" points="248.9699,89.9089,239.4242,87.4844,244.0416,90.7523,240.7736,95.3697,248.9699,89.9089" style="stroke:#181818;stroke-width:1;"/></g><!--SRC=[bP9HQiCm38RVSmgHz_O8XR6LigSLrWkejfAPENQmrQUH0-rvH-Z59ZjEIDh2c24ujZv9loHRQXZOGp3j1uCsWHGRxwggH_M9BK5z84S1bRd-ED04hquRXTe7Yf1EZGyTnHg-Af25Yds0-dJzLiue3yzeZKPT0qPWKalcINV6cSWX1Si0fXj1CfM4e6ljVnK0pCeNO8vl5euJ3729f30A_dRcb6Y9rJFbF9FqgGVV_47AEc90U9VQgCEa-42Ha_gP8QTpn78nbFs-WAcsh7uyF9A-xmoRC26Iqi8n-8QYJztDxfIH4d6ECASwcTx7iRkt_LnbwcLq9yCNEyvZ76mvU_V8us3z6Mq6s_mxGyEg_A7AsqedRBUxs_3tG0cRhVB8OBFPBKTpSp-MDzBBgKwlBwszXTNp50qoy694fQInWEAefMTMFgdKnsAM7bx4BDiBzHWOEt9ShFFSXry0]--></g></svg>