<svg xmlns="http://www.w3.org/2000/svg" xmlns:xlink="http://www.w3.org/1999/xlink" contentStyleType="text/css" height="546px" preserveAspectRatio="none" style="width:437px;height:546px;background:#FFFFFF;" version="1.1" viewBox="0 0 437 546" width="437px" zoomAndPan="magnify"><defs/><g><!--class Usuario--><g id="elem_Usuario"><rect codeLine="1" fill="#F1F1F1" height="48" id="Usuario" rx="2.5" ry="2.5" style="stroke:#181818;stroke-width:0.5;" width="85.2041" x="145.5" y="116"/><ellipse cx="160.5" cy="132" fill="#A9DCDF" rx="11" ry="11" style="stroke:#181818;stroke-width:1;"/><path d="M160.6094,127.3438 L159.4531,132.4219 L161.7813,132.4219 L160.6094,127.3438 Z M159.125,125.1094 L162.1094,125.1094 L165.4688,137.5 L163.0156,137.5 L162.25,134.4375 L158.9688,134.4375 L158.2188,137.5 L155.7813,137.5 L159.125,125.1094 Z " fill="#000000"/><text fill="#000000" font-family="sans-serif" font-size="14" font-style="italic" lengthAdjust="spacing" textLength="53.2041" x="174.5" y="136.8467">Usuario</text><line style="stroke:#181818;stroke-width:0.5;" x1="146.5" x2="229.7041" y1="148" y2="148"/><line style="stroke:#181818;stroke-width:0.5;" x1="146.5" x2="229.7041" y1="156" y2="156"/></g><!--class Alumno--><g id="elem_Alumno"><rect codeLine="2" fill="#F1F1F1" height="48" id="Alumno" rx="2.5" ry="2.5" style="stroke:#181818;stroke-width:0.5;" width="85.416" x="81.5" y="7"/><ellipse cx="96.5" cy="23" fill="#ADD1B2" rx="11" ry="11" style="stroke:#181818;stroke-width:1;"/><path d="M99.4688,28.6406 Q98.8906,28.9375 98.25,29.0781 Q97.6094,29.2344 96.9063,29.2344 Q94.4063,29.2344 93.0781,27.5938 Q91.7656,25.9375 91.7656,22.8125 Q91.7656,19.6875 93.0781,18.0313 Q94.4063,16.375 96.9063,16.375 Q97.6094,16.375 98.25,16.5313 Q98.9063,16.6875 99.4688,16.9844 L99.4688,19.7031 Q98.8438,19.125 98.25,18.8594 Q97.6563,18.5781 97.0313,18.5781 Q95.6875,18.5781 95,19.6563 Q94.3125,20.7188 94.3125,22.8125 Q94.3125,24.9063 95,25.9844 Q95.6875,27.0469 97.0313,27.0469 Q97.6563,27.0469 98.25,26.7813 Q98.8438,26.5 99.4688,25.9219 L99.4688,28.6406 Z " fill="#000000"/><text fill="#000000" font-family="sans-serif" font-size="14" lengthAdjust="spacing" textLength="53.416" x="110.5" y="27.8467">Alumno</text><line style="stroke:#181818;stroke-width:0.5;" x1="82.5" x2="165.916" y1="39" y2="39"/><line style="stroke:#181818;stroke-width:0.5;" x1="82.5" x2="165.916" y1="47" y2="47"/></g><!--class Exalumno--><g id="elem_Exalumno"><rect codeLine="3" fill="#F1F1F1" height="48" id="Exalumno" rx="2.5" ry="2.5" style="stroke:#181818;stroke-width:0.5;" width="101.5488" x="202" y="7"/><ellipse cx="217" cy="23" fill="#ADD1B2" rx="11" ry="11" style="stroke:#181818;stroke-width:1;"/><path d="M219.9688,28.6406 Q219.3906,28.9375 218.75,29.0781 Q218.1094,29.2344 217.4063,29.2344 Q214.9063,29.2344 213.5781,27.5938 Q212.2656,25.9375 212.2656,22.8125 Q212.2656,19.6875 213.5781,18.0313 Q214.9063,16.375 217.4063,16.375 Q218.1094,16.375 218.75,16.5313 Q219.4063,16.6875 219.9688,16.9844 L219.9688,19.7031 Q219.3438,19.125 218.75,18.8594 Q218.1563,18.5781 217.5313,18.5781 Q216.1875,18.5781 215.5,19.6563 Q214.8125,20.7188 214.8125,22.8125 Q214.8125,24.9063 215.5,25.9844 Q216.1875,27.0469 217.5313,27.0469 Q218.1563,27.0469 218.75,26.7813 Q219.3438,26.5 219.9688,25.9219 L219.9688,28.6406 Z " fill="#000000"/><text fill="#000000" font-family="sans-serif" font-size="14" lengthAdjust="spacing" textLength="69.5488" x="231" y="27.8467">Exalumno</text><line style="stroke:#181818;stroke-width:0.5;" x1="203" x2="302.5488" y1="39" y2="39"/><line style="stroke:#181818;stroke-width:0.5;" x1="203" x2="302.5488" y1="47" y2="47"/></g><!--class Posts--><g id="elem_Posts"><rect codeLine="5" fill="#F1F1F1" height="48" id="Posts" rx="2.5" ry="2.5" style="stroke:#181818;stroke-width:0.5;" width="69.085" x="128.5" y="366"/><ellipse cx="143.5" cy="382" fill="#ADD1B2" rx="11" ry="11" style="stroke:#181818;stroke-width:1;"/><path d="M146.4688,387.6406 Q145.8906,387.9375 145.25,388.0781 Q144.6094,388.2344 143.9063,388.2344 Q141.4063,388.2344 140.0781,386.5938 Q138.7656,384.9375 138.7656,381.8125 Q138.7656,378.6875 140.0781,377.0313 Q141.4063,375.375 143.9063,375.375 Q144.6094,375.375 145.25,375.5313 Q145.9063,375.6875 146.4688,375.9844 L146.4688,378.7031 Q145.8438,378.125 145.25,377.8594 Q144.6563,377.5781 144.0313,377.5781 Q142.6875,377.5781 142,378.6563 Q141.3125,379.7188 141.3125,381.8125 Q141.3125,383.9063 142,384.9844 Q142.6875,386.0469 144.0313,386.0469 Q144.6563,386.0469 145.25,385.7813 Q145.8438,385.5 146.4688,384.9219 L146.4688,387.6406 Z " fill="#000000"/><text fill="#000000" font-family="sans-serif" font-size="14" lengthAdjust="spacing" textLength="37.085" x="157.5" y="386.8467">Posts</text><line style="stroke:#181818;stroke-width:0.5;" x1="129.5" x2="196.585" y1="398" y2="398"/><line style="stroke:#181818;stroke-width:0.5;" x1="129.5" x2="196.585" y1="406" y2="406"/></g><!--class Comunidades--><g id="elem_Comunidades"><rect codeLine="6" fill="#F1F1F1" height="48" id="Comunidades" rx="2.5" ry="2.5" style="stroke:#181818;stroke-width:0.5;" width="127.874" x="196" y="241"/><ellipse cx="211" cy="257" fill="#ADD1B2" rx="11" ry="11" style="stroke:#181818;stroke-width:1;"/><path d="M213.9688,262.6406 Q213.3906,262.9375 212.75,263.0781 Q212.1094,263.2344 211.4063,263.2344 Q208.9063,263.2344 207.5781,261.5938 Q206.2656,259.9375 206.2656,256.8125 Q206.2656,253.6875 207.5781,252.0313 Q208.9063,250.375 211.4063,250.375 Q212.1094,250.375 212.75,250.5313 Q213.4063,250.6875 213.9688,250.9844 L213.9688,253.7031 Q213.3438,253.125 212.75,252.8594 Q212.1563,252.5781 211.5313,252.5781 Q210.1875,252.5781 209.5,253.6563 Q208.8125,254.7188 208.8125,256.8125 Q208.8125,258.9063 209.5,259.9844 Q210.1875,261.0469 211.5313,261.0469 Q212.1563,261.0469 212.75,260.7813 Q213.3438,260.5 213.9688,259.9219 L213.9688,262.6406 Z " fill="#000000"/><text fill="#000000" font-family="sans-serif" font-size="14" lengthAdjust="spacing" textLength="95.874" x="225" y="261.8467">Comunidades</text><line style="stroke:#181818;stroke-width:0.5;" x1="197" x2="322.874" y1="273" y2="273"/><line style="stroke:#181818;stroke-width:0.5;" x1="197" x2="322.874" y1="281" y2="281"/></g><!--class Etiquetas--><g id="elem_Etiquetas"><rect codeLine="7" fill="#F1F1F1" height="48" id="Etiquetas" rx="2.5" ry="2.5" style="stroke:#181818;stroke-width:0.5;" width="97.96" x="7" y="491"/><ellipse cx="22" cy="507" fill="#ADD1B2" rx="11" ry="11" style="stroke:#181818;stroke-width:1;"/><path d="M24.9688,512.6406 Q24.3906,512.9375 23.75,513.0781 Q23.1094,513.2344 22.4063,513.2344 Q19.9063,513.2344 18.5781,511.5938 Q17.2656,509.9375 17.2656,506.8125 Q17.2656,503.6875 18.5781,502.0313 Q19.9063,500.375 22.4063,500.375 Q23.1094,500.375 23.75,500.5313 Q24.4063,500.6875 24.9688,500.9844 L24.9688,503.7031 Q24.3438,503.125 23.75,502.8594 Q23.1563,502.5781 22.5313,502.5781 Q21.1875,502.5781 20.5,503.6563 Q19.8125,504.7188 19.8125,506.8125 Q19.8125,508.9063 20.5,509.9844 Q21.1875,511.0469 22.5313,511.0469 Q23.1563,511.0469 23.75,510.7813 Q24.3438,510.5 24.9688,509.9219 L24.9688,512.6406 Z " fill="#000000"/><text fill="#000000" font-family="sans-serif" font-size="14" lengthAdjust="spacing" textLength="65.96" x="36" y="511.8467">Etiquetas</text><line style="stroke:#181818;stroke-width:0.5;" x1="8" x2="103.96" y1="523" y2="523"/><line style="stroke:#181818;stroke-width:0.5;" x1="8" x2="103.96" y1="531" y2="531"/></g><!--class Comentario--><g id="elem_Comentario"><rect codeLine="8" fill="#F1F1F1" height="48" id="Comentario" rx="2.5" ry="2.5" style="stroke:#181818;stroke-width:0.5;" width="113.7441" x="270" y="491"/><ellipse cx="285" cy="507" fill="#ADD1B2" rx="11" ry="11" style="stroke:#181818;stroke-width:1;"/><path d="M287.9688,512.6406 Q287.3906,512.9375 286.75,513.0781 Q286.1094,513.2344 285.4063,513.2344 Q282.9063,513.2344 281.5781,511.5938 Q280.2656,509.9375 280.2656,506.8125 Q280.2656,503.6875 281.5781,502.0313 Q282.9063,500.375 285.4063,500.375 Q286.1094,500.375 286.75,500.5313 Q287.4063,500.6875 287.9688,500.9844 L287.9688,503.7031 Q287.3438,503.125 286.75,502.8594 Q286.1563,502.5781 285.5313,502.5781 Q284.1875,502.5781 283.5,503.6563 Q282.8125,504.7188 282.8125,506.8125 Q282.8125,508.9063 283.5,509.9844 Q284.1875,511.0469 285.5313,511.0469 Q286.1563,511.0469 286.75,510.7813 Q287.3438,510.5 287.9688,509.9219 L287.9688,512.6406 Z " fill="#000000"/><text fill="#000000" font-family="sans-serif" font-size="14" lengthAdjust="spacing" textLength="81.7441" x="299" y="511.8467">Comentario</text><line style="stroke:#181818;stroke-width:0.5;" x1="271" x2="382.7441" y1="523" y2="523"/><line style="stroke:#181818;stroke-width:0.5;" x1="271" x2="382.7441" y1="531" y2="531"/></g><!--link Alumno to Usuario--><g id="link_Alumno_Usuario"><path codeLine="11" d="M137.89,55.22 C148.62,73.16 154.1706,82.4422 164.9006,100.3822 " fill="none" id="Alumno-to-Usuario" style="stroke:#181818;stroke-width:1;"/><polygon fill="none" points="174.14,115.83,170.0499,97.3024,159.7514,103.462,174.14,115.83" style="stroke:#181818;stroke-width:1;"/></g><!--link Exalumno to Usuario--><g id="link_Exalumno_Usuario"><path codeLine="12" d="M238.9,55.22 C227.99,73.16 222.3103,82.503 211.4203,100.443 " fill="none" id="Exalumno-to-Usuario" style="stroke:#181818;stroke-width:1;"/><polygon fill="none" points="202.08,115.83,216.5493,103.5564,206.2913,97.3296,202.08,115.83" style="stroke:#181818;stroke-width:1;"/></g><!--link Usuario to Posts--><g id="link_Usuario_Posts"><path codeLine="15" d="M170.79,164.21 C157.54,183.61 140.3,212.6 133,241 C121.78,284.68 136.8042,330.9604 149.4342,360.2504 " fill="none" id="Usuario-to-Posts" style="stroke:#181818;stroke-width:1;"/><polygon fill="#181818" points="151.81,365.76,151.9194,355.9117,149.8302,361.1687,144.5733,359.0794,151.81,365.76" style="stroke:#181818;stroke-width:1;"/><text fill="#000000" font-family="sans-serif" font-size="13" lengthAdjust="spacing" textLength="43.3228" x="134" y="269.5669">realiza</text></g><!--link Usuario to Comunidades--><g id="link_Usuario_Comunidades"><path codeLine="16" d="M201.54,164.14 C214.42,186.13 230.6397,213.8314 243.4897,235.7914 " fill="none" id="Usuario-to-Comunidades" style="stroke:#181818;stroke-width:1;"/><polygon fill="#181818" points="246.52,240.97,245.427,231.182,243.9948,236.6545,238.5222,235.2223,246.52,240.97" style="stroke:#181818;stroke-width:1;"/><text fill="#000000" font-family="sans-serif" font-size="13" lengthAdjust="spacing" textLength="57.2495" x="229" y="207.0669">participa</text></g><!--link Comunidades to Posts--><g id="link_Comunidades_Posts"><path codeLine="17" d="M241.76,289.14 C224.41,311.13 202.1956,339.2989 184.8756,361.2589 " fill="none" id="Comunidades-to-Posts" style="stroke:#181818;stroke-width:1;"/><polygon fill="#181818" points="181.16,365.97,189.8742,361.3805,184.2564,362.0441,183.5928,356.4263,181.16,365.97" style="stroke:#181818;stroke-width:1;"/><text fill="#000000" font-family="sans-serif" font-size="13" lengthAdjust="spacing" textLength="87.1787" x="218" y="332.0669">formadas por</text></g><!--link Posts to Etiquetas--><g id="link_Posts_Etiquetas"><path codeLine="18" d="M142.87,414.14 C123.74,436.13 99.0776,464.4828 79.9776,486.4428 " fill="none" id="Posts-to-Etiquetas" style="stroke:#181818;stroke-width:1;"/><polygon fill="#181818" points="76.04,490.97,84.9645,486.8043,79.3213,487.1973,78.9282,481.5542,76.04,490.97" style="stroke:#181818;stroke-width:1;"/><text fill="#000000" font-family="sans-serif" font-size="13" lengthAdjust="spacing" textLength="110.0493" x="117" y="457.0669">categorizado por</text></g><!--link Posts to Comentario--><g id="link_Posts_Comentario"><path codeLine="19" d="M195.12,414.03 C207.9,423.27 222.7,434.06 236,444 C256.6,459.39 274.7991,473.3725 292.4991,487.1025 " fill="none" id="Posts-to-Comentario" style="stroke:#181818;stroke-width:1;"/><polygon fill="#181818" points="297.24,490.78,292.5804,482.1031,293.2893,487.7154,287.677,488.4243,297.24,490.78" style="stroke:#181818;stroke-width:1;"/><text fill="#000000" font-family="sans-serif" font-size="13" lengthAdjust="spacing" textLength="32.9443" x="257" y="457.0669">tiene</text></g><!--link Comentario to Usuario--><g id="link_Comentario_Usuario"><path codeLine="20" d="M334.73,490.95 C349.61,442.49 377.78,327.39 342,241 C322.85,194.76 274.8962,169.6875 236.3262,155.6075 " fill="none" id="Comentario-to-Usuario" style="stroke:#181818;stroke-width:1;"/><polygon fill="#181818" points="230.69,153.55,237.7726,160.3937,235.3868,155.2646,240.516,152.8788,230.69,153.55" style="stroke:#181818;stroke-width:1;"/><text fill="#000000" font-family="sans-serif" font-size="13" lengthAdjust="spacing" textLength="69.6084" x="360" y="332.0669">escrito por</text></g><!--link Usuario to Etiquetas--><g id="link_Usuario_Etiquetas"><path codeLine="21" d="M156.78,164.2 C118.66,194.73 56.26,252.4 32,319 C10.46,378.13 30.3308,447.6992 44.2908,485.0792 " fill="none" id="Usuario-to-Etiquetas" style="stroke:#181818;stroke-width:1;"/><polygon fill="#181818" points="46.39,490.7,46.9885,480.8693,44.6407,486.016,39.4941,483.6682,46.39,490.7" style="stroke:#181818;stroke-width:1;"/><text fill="#000000" font-family="sans-serif" font-size="13" lengthAdjust="spacing" textLength="94.4023" x="33" y="332.0669">Asigna a Posts</text></g><!--SRC=[NO_1QWCn34Jl_WhTUieFv1089VTIw0TCRIKHxDfRIGkXzEFhnBkfjpVF-34pmgUv8Zh50MRqOJDKIcZgECnZNiNfXYON_LRCRNc_bd7Eaf1uTKukNpCxEeApFxB32xtpW2Wbir5Ykh9oZeBG-cYt-paybworMtURKPEL7nVK_WMf_A5jf3qfOv1lRFwwpPMOe2vH9eJUxpFEHKSa64r5GpFltyz3AnBXV2bQcrBvX_tTNpaNpXmwwqwis_R45bMy9VIB-wgZoIM3qERz0W00]--></g></svg>