<?xml version="1.0" encoding="us-ascii" standalone="no"?><svg xmlns="http://www.w3.org/2000/svg" xmlns:xlink="http://www.w3.org/1999/xlink" contentStyleType="text/css" height="743px" preserveAspectRatio="none" style="width:652px;height:743px;background:#FFFFFF;" version="1.1" viewBox="0 0 652 743" width="652px" zoomAndPan="magnify"><defs/><g><g id="NoAuth"><rect fill="#F1F1F1" height="50" rx="12.5" ry="12.5" style="stroke:#181818;stroke-width:0.5;" width="149" x="213.15" y="87"/><line style="stroke:#181818;stroke-width:0.5;" x1="213.15" x2="362.15" y1="113.4883" y2="113.4883"/><text fill="#000000" font-family="sans-serif" font-size="14" lengthAdjust="spacing" textLength="129" x="223.15" y="105.5352">NO_AUTENTICADO</text></g><g id="Menu"><rect fill="#F1F1F1" height="50" rx="12.5" ry="12.5" style="stroke:#181818;stroke-width:0.5;" width="137" x="219.15" y="232"/><line style="stroke:#181818;stroke-width:0.5;" x1="219.15" x2="356.15" y1="258.4883" y2="258.4883"/><text fill="#000000" font-family="sans-serif" font-size="14" lengthAdjust="spacing" textLength="117" x="229.15" y="250.5352">MENU_PRINCIPAL</text></g><g id="Test"><rect fill="#F1F1F1" height="50" rx="12.5" ry="12.5" style="stroke:#181818;stroke-width:0.5;" width="54" x="129.65" y="532.25"/><line style="stroke:#181818;stroke-width:0.5;" x1="129.65" x2="183.65" y1="558.7383" y2="558.7383"/><text fill="#000000" font-family="sans-serif" font-size="14" lengthAdjust="spacing" textLength="34" x="139.65" y="550.7852">TEST</text></g><path d="M268.42,377 L568.88,377 A12.5,12.5 0 0 1 581.38,389.5 L581.38,403.4883 L255.92,403.4883 L255.92,389.5 A12.5,12.5 0 0 1 268.42,377 " fill="#F1F1F1" style="stroke:#F1F1F1;stroke-width:1.0;"/><rect fill="none" height="360.4883" rx="12.5" ry="12.5" style="stroke:#181818;stroke-width:0.5;" width="325.46" x="255.92" y="377"/><line style="stroke:#181818;stroke-width:0.5;" x1="255.92" x2="581.38" y1="403.4883" y2="403.4883"/><text fill="#000000" font-family="sans-serif" font-size="14" lengthAdjust="spacing" textLength="106" x="365.65" y="395.5352">CAPACITACI&#211;N</text><g id="Capacitacion.SeleccionCap"><rect fill="#F1F1F1" height="50" rx="12.5" ry="12.5" style="stroke:#181818;stroke-width:0.5;" width="209" x="279.92" y="471.4883"/><line style="stroke:#181818;stroke-width:0.5;" x1="279.92" x2="488.92" y1="497.9766" y2="497.9766"/><text fill="#000000" font-family="sans-serif" font-size="14" lengthAdjust="spacing" textLength="189" x="289.92" y="490.0234">SELECCI&#211;N_CAPACITACI&#211;N</text></g><g id="Capacitacion.EnCurso"><rect fill="#F1F1F1" height="50" rx="12.5" ry="12.5" style="stroke:#181818;stroke-width:0.5;" width="93" x="267.92" y="574.4883"/><line style="stroke:#181818;stroke-width:0.5;" x1="267.92" x2="360.92" y1="600.9766" y2="600.9766"/><text fill="#000000" font-family="sans-serif" font-size="14" lengthAdjust="spacing" textLength="73" x="277.92" y="593.0234">EN_CURSO</text></g><g id="Capacitacion.Completada"><rect fill="#F1F1F1" height="50" rx="12.5" ry="12.5" style="stroke:#181818;stroke-width:0.5;" width="115" x="325.92" y="677.4883"/><line style="stroke:#181818;stroke-width:0.5;" x1="325.92" x2="440.92" y1="703.9766" y2="703.9766"/><text fill="#000000" font-family="sans-serif" font-size="14" lengthAdjust="spacing" textLength="95" x="335.92" y="696.0234">COMPLETADA</text></g><ellipse cx="384.42" cy="424.4883" fill="#222222" rx="10" ry="10" style="stroke:#222222;stroke-width:1.0;"/><!--link *start*Capacitacion to SeleccionCap--><g id="link_*start*Capacitacion_SeleccionCap"><path d="M384.42,434.9283 C384.42,444.1883 384.42,452.6783 384.42,465.1683 " fill="none" id="*start*Capacitacion-to-SeleccionCap" style="stroke:#181818;stroke-width:1.0;"/><polygon fill="#181818" points="384.42,471.1683,388.42,462.1683,384.42,466.1683,380.42,462.1683,384.42,471.1683" style="stroke:#181818;stroke-width:1.0;"/></g><!--link SeleccionCap to EnCurso--><g id="link_SeleccionCap_EnCurso"><path d="M332.23,521.7683 C325.96,526.7683 320.39,532.6483 316.42,539.4883 C310.45,549.7683 309.0908,556.8609 309.8208,568.0909 " fill="none" id="SeleccionCap-to-EnCurso" style="stroke:#181818;stroke-width:1.0;"/><polygon fill="#181818" points="310.21,574.0783,313.6178,564.8378,309.8857,569.0888,305.6346,565.3567,310.21,574.0783" style="stroke:#181818;stroke-width:1.0;"/><text fill="#000000" font-family="sans-serif" font-size="13" lengthAdjust="spacing" textLength="122" x="317.42" y="553.0566">Iniciar capacitaci&#243;n</text></g><!--link EnCurso to Completada--><g id="link_EnCurso_Completada"><path d="M309.2,624.8283 C308.05,636.0483 308.6,649.1283 314.42,659.4883 C318.27,666.3383 319.0522,668.4409 325.2522,673.4209 " fill="none" id="EnCurso-to-Completada" style="stroke:#181818;stroke-width:1.0;"/><polygon fill="#181818" points="329.93,677.1783,325.4181,668.4237,326.0318,674.0471,320.4083,674.6608,329.93,677.1783" style="stroke:#181818;stroke-width:1.0;"/><text fill="#000000" font-family="sans-serif" font-size="13" lengthAdjust="spacing" textLength="124" x="315.42" y="656.0566">Completar m&#243;dulos</text></g><!--link Completada to SeleccionCap--><g id="link_Completada_SeleccionCap"><path d="M426.37,677.1583 C432.03,672.0683 437.04,666.1783 440.42,659.4883 C464.47,611.8883 464.27,587.1883 440.42,539.4883 C437.1,532.8583 436.6235,531.0411 431.0635,525.9711 " fill="none" id="Completada-to-SeleccionCap" style="stroke:#181818;stroke-width:1.0;"/><polygon fill="#181818" points="426.63,521.9283,430.5851,530.9481,430.3246,525.2973,435.9754,525.0368,426.63,521.9283" style="stroke:#181818;stroke-width:1.0;"/><text fill="#000000" font-family="sans-serif" font-size="13" lengthAdjust="spacing" textLength="112" x="459.38" y="597.0566">Seleccionar nueva</text><text fill="#000000" font-family="sans-serif" font-size="13" lengthAdjust="spacing" textLength="79" x="475.88" y="612.3672">capacitaci&#243;n</text></g><ellipse cx="287.65" cy="16" fill="#222222" rx="10" ry="10" style="stroke:#222222;stroke-width:1.0;"/><!--link *start* to NoAuth--><g id="link_*start*_NoAuth"><path d="M287.65,26.36 C287.65,40.29 287.65,60.96 287.65,80.65 " fill="none" id="*start*-to-NoAuth" style="stroke:#181818;stroke-width:1.0;"/><polygon fill="#181818" points="287.65,86.65,291.65,77.65,287.65,81.65,283.65,77.65,287.65,86.65" style="stroke:#181818;stroke-width:1.0;"/></g><!--link NoAuth to Menu--><g id="link_NoAuth_Menu"><path d="M235.54,137.4 C224.37,145.21 214.02,155.02 207.65,167 C200.35,180.74 200.35,188.27 207.65,202 C214.02,213.99 219.4527,220.3519 230.6227,228.1619 " fill="none" id="NoAuth-to-Menu" style="stroke:#181818;stroke-width:1.0;"/><polygon fill="#181818" points="235.54,231.6,230.4562,223.1647,231.4423,228.7349,225.872,229.721,235.54,231.6" style="stroke:#181818;stroke-width:1.0;"/><path d="M212.65,172 L212.65,197 L317.65,197 L317.65,182 L307.65,172 L212.65,172 " fill="#FEFFDD" style="stroke:#181818;stroke-width:0.5;"/><path d="M307.65,172 L307.65,182 L317.65,182 L307.65,172 " fill="#FEFFDD" style="stroke:#181818;stroke-width:0.5;"/><text fill="#000000" font-family="sans-serif" font-size="13" lengthAdjust="spacing" textLength="84" x="218.65" y="189.5684">Iniciar sesi&#243;n</text></g><!--link Menu to NoAuth--><g id="link_Menu_NoAuth"><path d="M310.11,231.74 C316.77,223.01 323.2,212.68 326.65,202 C331.44,187.2 331.44,181.8 326.65,167 C323.2,156.33 320.4119,150.7583 313.7519,142.0383 " fill="none" id="Menu-to-NoAuth" style="stroke:#181818;stroke-width:1.0;"/><polygon fill="#181818" points="310.11,137.27,312.3939,146.8504,313.1449,141.2436,318.7517,141.9946,310.11,137.27" style="stroke:#181818;stroke-width:1.0;"/><path d="M335.24,172 L335.24,197 L439.24,197 L439.24,182 L429.24,172 L335.24,172 " fill="#FEFFDD" style="stroke:#181818;stroke-width:0.5;"/><path d="M429.24,172 L429.24,182 L439.24,182 L429.24,172 " fill="#FEFFDD" style="stroke:#181818;stroke-width:0.5;"/><text fill="#000000" font-family="sans-serif" font-size="13" lengthAdjust="spacing" textLength="83" x="341.24" y="189.5684">Cerrar sesi&#243;n</text></g><!--link Menu to Test--><g id="link_Menu_Test"><path d="M218.91,265.04 C159.48,272.72 80.15,287.33 60.65,312 C6,381.18 84.7223,480.9372 128.4123,527.6672 " fill="none" id="Menu-to-Test" style="stroke:#181818;stroke-width:1.0;"/><polygon fill="#181818" points="132.51,532.05,129.2853,522.744,129.0953,528.3977,123.4416,528.2076,132.51,532.05" style="stroke:#181818;stroke-width:1.0;"/><path d="M65.65,317 L65.65,342 L163.65,342 L163.65,327 L153.65,317 L65.65,317 " fill="#FEFFDD" style="stroke:#181818;stroke-width:0.5;"/><path d="M153.65,317 L153.65,327 L163.65,327 L153.65,317 " fill="#FEFFDD" style="stroke:#181818;stroke-width:0.5;"/><text fill="#000000" font-family="sans-serif" font-size="13" lengthAdjust="spacing" textLength="77" x="71.65" y="334.5684">Realizar test</text></g><!--link Test to Menu--><g id="link_Test_Menu"><path d="M156.09,531.78 C156.17,485.03 162.07,381.51 208.65,312 C216.52,300.27 222.9219,293.7736 234.5719,285.7836 " fill="none" id="Test-to-Menu" style="stroke:#181818;stroke-width:1.0;"/><polygon fill="#181818" points="239.52,282.39,229.8355,284.1816,235.3966,285.218,234.3603,290.7791,239.52,282.39" style="stroke:#181818;stroke-width:1.0;"/><path d="M213.65,317 L213.65,342 L315.65,342 L315.65,327 L305.65,317 L213.65,317 " fill="#FEFFDD" style="stroke:#181818;stroke-width:0.5;"/><path d="M305.65,317 L305.65,327 L315.65,327 L305.65,317 " fill="#FEFFDD" style="stroke:#181818;stroke-width:0.5;"/><text fill="#000000" font-family="sans-serif" font-size="13" lengthAdjust="spacing" textLength="81" x="219.65" y="334.5684">Finalizar test</text></g><!--link Menu to Capacitacion--><g id="link_Menu_Capacitacion"><path d="M306.05,282.24 C312.43,291.29 319.31,301.84 324.65,312 C335.44,332.51 343.3067,349.0208 352.7467,371.1608 " fill="none" id="Menu-to-Capacitacion" style="stroke:#181818;stroke-width:1.0;"/><polygon fill="#181818" points="355.1,376.68,355.2496,366.8323,353.1389,372.0806,347.8906,369.97,355.1,376.68" style="stroke:#181818;stroke-width:1.0;"/><path d="M345.44,317 L345.44,342 L498.44,342 L498.44,327 L488.44,317 L345.44,317 " fill="#FEFFDD" style="stroke:#181818;stroke-width:0.5;"/><path d="M488.44,317 L488.44,327 L498.44,327 L488.44,317 " fill="#FEFFDD" style="stroke:#181818;stroke-width:0.5;"/><text fill="#000000" font-family="sans-serif" font-size="13" lengthAdjust="spacing" textLength="132" x="351.44" y="334.5684">Realizar capacitaci&#243;n</text></g><!--link Capacitacion to Menu--><g id="link_Capacitacion_Menu"><path d="M529.24,376.6 C531.52,353.65 526.95,331.43 511.65,312 C492.56,287.76 421.1074,273.9227 362.5874,266.1227 " fill="none" id="Capacitacion-to-Menu" style="stroke:#181818;stroke-width:1.0;"/><polygon fill="#181818" points="356.64,265.33,365.0326,270.484,361.5962,265.9906,366.0896,262.5541,356.64,265.33" style="stroke:#181818;stroke-width:1.0;"/><path d="M531.51,317 L531.51,342 L645.51,342 L645.51,327 L635.51,317 L531.51,317 " fill="#FEFFDD" style="stroke:#181818;stroke-width:0.5;"/><path d="M635.51,317 L635.51,327 L645.51,327 L635.51,317 " fill="#FEFFDD" style="stroke:#181818;stroke-width:0.5;"/><text fill="#000000" font-family="sans-serif" font-size="13" lengthAdjust="spacing" textLength="93" x="537.51" y="334.5684">Volver al men&#250;</text></g><!--SRC=[ZP9DQiCm48NtEeN8if0BT54GYWg6n36nqarRWd06Qgf8mPApQEafUfJiklN5Ae-ZnFaZ4SX6e- -zcP7alF901-bqmUPIf3BXR3GTKELeQbdjFuZhW8b8vujibgGyoTWOWGcOEcvBaKiCId2Un2Xd6UE93BFvJN6RgxKgIX-cDVIRq31sR2x6WYEuE9VbeA5eDK7V5ua0psTvLx0mlAwSxU_pwIGR2yb6hCjkLsiDNYqLGlXvVNYdm-7JUOf-08cTFtsaYIcBKbMqs7VJR0sA8jFoXsn14XSLNJNRPQsjGxx7d1OHHFjba9aQDkhD7AVy8IJMlxikqlqnX1VKPZ4s74OuS5sQJmoq8pRXmEtB1xD4c91Ms_UzQiEXgcwxuBEuwZ43fSkluE8ZTi6Y_tJki3g_cuFdqIkyVL8lLc-WeahJ5PZcxyIiRUqEa-VIN6to7m00]--></g></svg>