<?xml version="1.0" encoding="us-ascii" standalone="no"?><svg xmlns="http://www.w3.org/2000/svg" xmlns:xlink="http://www.w3.org/1999/xlink" contentStyleType="text/css" height="578px" preserveAspectRatio="none" style="width:1355px;height:578px;background:#FFFFFF;" version="1.1" viewBox="0 0 1355 578" width="1355px" zoomAndPan="magnify"><defs/><g><g id="NoAuth"><rect fill="#F1F1F1" height="50" rx="12.5" ry="12.5" style="stroke:#181818;stroke-width:0.5;" width="149" x="427.08" y="87"/><line style="stroke:#181818;stroke-width:0.5;" x1="427.08" x2="576.08" y1="113.4883" y2="113.4883"/><text fill="#000000" font-family="sans-serif" font-size="14" lengthAdjust="spacing" textLength="129" x="437.08" y="105.5352">NO_AUTENTICADO</text></g><g id="Menu"><rect fill="#F1F1F1" height="50" rx="12.5" ry="12.5" style="stroke:#181818;stroke-width:0.5;" width="137" x="433.08" y="232"/><line style="stroke:#181818;stroke-width:0.5;" x1="433.08" x2="570.08" y1="258.4883" y2="258.4883"/><text fill="#000000" font-family="sans-serif" font-size="14" lengthAdjust="spacing" textLength="117" x="443.08" y="250.5352">MENU_PRINCIPAL</text></g><g id="Menu_estadisticas"><rect fill="#F1F1F1" height="50" rx="12.5" ry="12.5" style="stroke:#181818;stroke-width:0.5;" width="165" x="150.08" y="377"/><line style="stroke:#181818;stroke-width:0.5;" x1="150.08" x2="315.08" y1="403.4883" y2="403.4883"/><text fill="#000000" font-family="sans-serif" font-size="14" lengthAdjust="spacing" textLength="145" x="160.08" y="395.5352">MENU_ESTADISTICAS</text></g><g id="Menu_usuarios"><rect fill="#F1F1F1" height="50" rx="12.5" ry="12.5" style="stroke:#181818;stroke-width:0.5;" width="137" x="672.08" y="377"/><line style="stroke:#181818;stroke-width:0.5;" x1="672.08" x2="809.08" y1="403.4883" y2="403.4883"/><text fill="#000000" font-family="sans-serif" font-size="14" lengthAdjust="spacing" textLength="117" x="682.08" y="395.5352">MENU_USUARIOS</text></g><g id="Crear_usuario"><rect fill="#F1F1F1" height="50" rx="12.5" ry="12.5" style="stroke:#181818;stroke-width:0.5;" width="135" x="326.08" y="522"/><line style="stroke:#181818;stroke-width:0.5;" x1="326.08" x2="461.08" y1="548.4883" y2="548.4883"/><text fill="#000000" font-family="sans-serif" font-size="14" lengthAdjust="spacing" textLength="115" x="336.08" y="540.5352">CREAR_USUARIO</text></g><g id="Ver_usuario"><rect fill="#F1F1F1" height="50" rx="12.5" ry="12.5" style="stroke:#181818;stroke-width:0.5;" width="115" x="591.08" y="522"/><line style="stroke:#181818;stroke-width:0.5;" x1="591.08" x2="706.08" y1="548.4883" y2="548.4883"/><text fill="#000000" font-family="sans-serif" font-size="14" lengthAdjust="spacing" textLength="95" x="601.08" y="540.5352">VER_USUARIO</text></g><g id="Editar_usuario"><rect fill="#F1F1F1" height="50" rx="12.5" ry="12.5" style="stroke:#181818;stroke-width:0.5;" width="139" x="863.08" y="522"/><line style="stroke:#181818;stroke-width:0.5;" x1="863.08" x2="1002.08" y1="548.4883" y2="548.4883"/><text fill="#000000" font-family="sans-serif" font-size="14" lengthAdjust="spacing" textLength="119" x="873.08" y="540.5352">EDITAR_USUARIO</text></g><g id="Eliminar_usuario"><rect fill="#F1F1F1" height="50" rx="12.5" ry="12.5" style="stroke:#181818;stroke-width:0.5;" width="153" x="1149.08" y="522"/><line style="stroke:#181818;stroke-width:0.5;" x1="1149.08" x2="1302.08" y1="548.4883" y2="548.4883"/><text fill="#000000" font-family="sans-serif" font-size="14" lengthAdjust="spacing" textLength="133" x="1159.08" y="540.5352">ELIMINAR_USUARIO</text></g><g id="Consultar_estad&#237;sticas"><rect fill="#F1F1F1" height="50" rx="12.5" ry="12.5" style="stroke:#181818;stroke-width:0.5;" width="209" x="31.08" y="522"/><line style="stroke:#181818;stroke-width:0.5;" x1="31.08" x2="240.08" y1="548.4883" y2="548.4883"/><text fill="#000000" font-family="sans-serif" font-size="14" lengthAdjust="spacing" textLength="189" x="41.08" y="540.5352">CONSULTAR_ESTAD&#205;STICAS</text></g><ellipse cx="501.58" cy="16" fill="#222222" rx="10" ry="10" style="stroke:#222222;stroke-width:1.0;"/><!--link *start* to NoAuth--><g id="link_*start*_NoAuth"><path d="M501.58,26.36 C501.58,40.29 501.58,60.95 501.58,80.65 " fill="none" id="*start*-to-NoAuth" style="stroke:#181818;stroke-width:1.0;"/><polygon fill="#181818" points="501.58,86.65,505.58,77.65,501.58,81.65,497.58,77.65,501.58,86.65" style="stroke:#181818;stroke-width:1.0;"/></g><!--link NoAuth to Menu--><g id="link_NoAuth_Menu"><path d="M449.47,137.4 C438.3,145.21 427.95,155.01 421.58,167 C414.28,180.74 414.28,188.26 421.58,202 C427.95,213.99 433.3827,220.3519 444.5527,228.1619 " fill="none" id="NoAuth-to-Menu" style="stroke:#181818;stroke-width:1.0;"/><polygon fill="#181818" points="449.47,231.6,444.3862,223.1647,445.3723,228.7349,439.802,229.721,449.47,231.6" style="stroke:#181818;stroke-width:1.0;"/><path d="M426.58,172 L426.58,197 L531.58,197 L531.58,182 L521.58,172 L426.58,172 " fill="#FEFFDD" style="stroke:#181818;stroke-width:0.5;"/><path d="M521.58,172 L521.58,182 L531.58,182 L521.58,172 " fill="#FEFFDD" style="stroke:#181818;stroke-width:0.5;"/><text fill="#000000" font-family="sans-serif" font-size="13" lengthAdjust="spacing" textLength="84" x="432.58" y="189.5684">Iniciar sesi&#243;n</text></g><!--link Menu to NoAuth--><g id="link_Menu_NoAuth"><path d="M524.03,231.74 C530.69,223.01 537.13,212.67 540.58,202 C545.37,187.2 545.37,181.8 540.58,167 C537.13,156.33 534.3292,150.7603 527.6692,142.0303 " fill="none" id="Menu-to-NoAuth" style="stroke:#181818;stroke-width:1.0;"/><polygon fill="#181818" points="524.03,137.26,526.3086,146.8416,527.0627,141.2353,532.6691,141.9893,524.03,137.26" style="stroke:#181818;stroke-width:1.0;"/><path d="M549.17,172 L549.17,197 L653.17,197 L653.17,182 L643.17,172 L549.17,172 " fill="#FEFFDD" style="stroke:#181818;stroke-width:0.5;"/><path d="M643.17,172 L643.17,182 L653.17,182 L643.17,172 " fill="#FEFFDD" style="stroke:#181818;stroke-width:0.5;"/><text fill="#000000" font-family="sans-serif" font-size="13" lengthAdjust="spacing" textLength="83" x="555.17" y="189.5684">Cerrar sesi&#243;n</text></g><!--link Menu to Menu_usuarios--><g id="link_Menu_Menu_usuarios"><path d="M508.46,282.27 C515.39,302.43 528.06,330.42 548.58,347 C583.46,375.18 626.2579,387.7064 665.8979,394.1564 " fill="none" id="Menu-to-Menu_usuarios" style="stroke:#181818;stroke-width:1.0;"/><polygon fill="#181818" points="671.82,395.12,663.5792,389.7265,666.8849,394.317,662.2944,397.6227,671.82,395.12" style="stroke:#181818;stroke-width:1.0;"/><path d="M553.58,317 L553.58,342 L692.58,342 L692.58,327 L682.58,317 L553.58,317 " fill="#FEFFDD" style="stroke:#181818;stroke-width:0.5;"/><path d="M682.58,317 L682.58,327 L692.58,327 L682.58,317 " fill="#FEFFDD" style="stroke:#181818;stroke-width:0.5;"/><text fill="#000000" font-family="sans-serif" font-size="13" lengthAdjust="spacing" textLength="118" x="559.58" y="334.5684">Gestionar usuarios</text></g><!--link Menu_usuarios to Menu--><g id="link_Menu_usuarios_Menu"><path d="M736.02,376.75 C730.99,356.6 720.89,328.62 701.58,312 C665.19,280.68 618.3179,268.1287 576.0879,262.5287 " fill="none" id="Menu_usuarios-to-Menu" style="stroke:#181818;stroke-width:1.0;"/><polygon fill="#181818" points="570.14,261.74,578.5361,266.8884,575.0966,262.3973,579.5877,258.9578,570.14,261.74" style="stroke:#181818;stroke-width:1.0;"/><path d="M730.53,317 L730.53,342 L778.53,342 L778.53,327 L768.53,317 L730.53,317 " fill="#FEFFDD" style="stroke:#181818;stroke-width:0.5;"/><path d="M768.53,317 L768.53,327 L778.53,327 L768.53,317 " fill="#FEFFDD" style="stroke:#181818;stroke-width:0.5;"/><text fill="#000000" font-family="sans-serif" font-size="13" lengthAdjust="spacing" textLength="27" x="736.53" y="334.5684">Salir</text></g><!--link Menu_usuarios to Crear_usuario--><g id="link_Menu_usuarios_Crear_usuario"><path d="M672.01,407.02 C559.8,414.31 347.11,431.35 324.58,457 C306.13,478 325.0075,499.7267 349.5175,517.9767 " fill="none" id="Menu_usuarios-to-Crear_usuario" style="stroke:#181818;stroke-width:1.0;"/><polygon fill="#181818" points="354.33,521.56,349.5002,512.9767,350.3196,518.5739,344.7224,519.3933,354.33,521.56" style="stroke:#181818;stroke-width:1.0;"/><path d="M329.58,462 L329.58,487 L451.58,487 L451.58,472 L441.58,462 L329.58,462 " fill="#FEFFDD" style="stroke:#181818;stroke-width:0.5;"/><path d="M441.58,462 L441.58,472 L451.58,472 L441.58,462 " fill="#FEFFDD" style="stroke:#181818;stroke-width:0.5;"/><text fill="#000000" font-family="sans-serif" font-size="13" lengthAdjust="spacing" textLength="101" x="335.58" y="479.5684">Insertar registro</text></g><!--link Crear_usuario to Menu_usuarios--><g id="link_Crear_usuario_Menu_usuarios"><path d="M421.98,521.88 C446.97,501.81 485.12,473.88 522.58,457 C570.22,435.53 621.8133,422.8588 665.7933,414.5888 " fill="none" id="Crear_usuario-to-Menu_usuarios" style="stroke:#181818;stroke-width:1.0;"/><polygon fill="#181818" points="671.69,413.48,662.1058,411.2121,666.7761,414.404,663.5842,419.0743,671.69,413.48" style="stroke:#181818;stroke-width:1.0;"/><path d="M527.58,462 L527.58,487 L597.58,487 L597.58,472 L587.58,462 L527.58,462 " fill="#FEFFDD" style="stroke:#181818;stroke-width:0.5;"/><path d="M587.58,462 L587.58,472 L597.58,472 L587.58,462 " fill="#FEFFDD" style="stroke:#181818;stroke-width:0.5;"/><text fill="#000000" font-family="sans-serif" font-size="13" lengthAdjust="spacing" textLength="49" x="533.58" y="479.5684">Guardar</text></g><!--link Menu_usuarios to Editar_usuario--><g id="link_Menu_usuarios_Editar_usuario"><path d="M763.67,427.35 C782.31,446.25 809.77,472.45 836.58,492 C851.41,502.82 863.3633,510.2175 879.0833,518.8675 " fill="none" id="Menu_usuarios-to-Editar_usuario" style="stroke:#181818;stroke-width:1.0;"/><polygon fill="#181818" points="884.34,521.76,878.3833,513.9167,879.9594,519.3496,874.5265,520.9257,884.34,521.76" style="stroke:#181818;stroke-width:1.0;"/><path d="M841.58,462 L841.58,487 L978.58,487 L978.58,472 L968.58,462 L841.58,462 " fill="#FEFFDD" style="stroke:#181818;stroke-width:0.5;"/><path d="M968.58,462 L968.58,472 L978.58,472 L968.58,462 " fill="#FEFFDD" style="stroke:#181818;stroke-width:0.5;"/><text fill="#000000" font-family="sans-serif" font-size="13" lengthAdjust="spacing" textLength="116" x="847.58" y="479.5684">Actualizar registro</text></g><!--link Editar_usuario to Menu_usuarios--><g id="link_Editar_usuario_Menu_usuarios"><path d="M963.95,521.88 C984.26,503.34 1004.1,477.52 987.58,457 C965.56,429.65 880.5472,416.0166 815.4072,409.1766 " fill="none" id="Editar_usuario-to-Menu_usuarios" style="stroke:#181818;stroke-width:1.0;"/><polygon fill="#181818" points="809.44,408.55,817.9731,413.468,814.4127,409.0722,818.8085,405.5117,809.44,408.55" style="stroke:#181818;stroke-width:1.0;"/><path d="M998.71,462 L998.71,487 L1068.71,487 L1068.71,472 L1058.71,462 L998.71,462 " fill="#FEFFDD" style="stroke:#181818;stroke-width:0.5;"/><path d="M1058.71,462 L1058.71,472 L1068.71,472 L1058.71,462 " fill="#FEFFDD" style="stroke:#181818;stroke-width:0.5;"/><text fill="#000000" font-family="sans-serif" font-size="13" lengthAdjust="spacing" textLength="49" x="1004.71" y="479.5684">Guardar</text></g><!--link Menu_usuarios to Ver_usuario--><g id="link_Menu_usuarios_Ver_usuario"><path d="M671.59,417.32 C650.32,425.33 629.19,437.75 616.58,457 C603.53,476.91 612.1339,497.8737 624.9939,516.6037 " fill="none" id="Menu_usuarios-to-Ver_usuario" style="stroke:#181818;stroke-width:1.0;"/><polygon fill="#181818" points="628.39,521.55,626.5933,511.8664,625.5599,517.4281,619.9982,516.3946,628.39,521.55" style="stroke:#181818;stroke-width:1.0;"/><path d="M621.58,462 L621.58,487 L693.58,487 L693.58,472 L683.58,462 L621.58,462 " fill="#FEFFDD" style="stroke:#181818;stroke-width:0.5;"/><path d="M683.58,462 L683.58,472 L693.58,472 L683.58,462 " fill="#FEFFDD" style="stroke:#181818;stroke-width:0.5;"/><text fill="#000000" font-family="sans-serif" font-size="13" lengthAdjust="spacing" textLength="51" x="627.58" y="479.5684">Ver lista</text></g><!--link Ver_usuario to Menu_usuarios--><g id="link_Ver_usuario_Menu_usuarios"><path d="M676.86,521.71 C685.88,512.99 695.38,502.65 702.58,492 C716.22,471.82 724.6416,451.6214 731.0816,432.9714 " fill="none" id="Ver_usuario-to-Menu_usuarios" style="stroke:#181818;stroke-width:1.0;"/><polygon fill="#181818" points="733.04,427.3,726.3215,434.5015,731.408,432.0262,733.8834,437.1127,733.04,427.3" style="stroke:#181818;stroke-width:1.0;"/><path d="M726.41,462 L726.41,487 L774.41,487 L774.41,472 L764.41,462 L726.41,462 " fill="#FEFFDD" style="stroke:#181818;stroke-width:0.5;"/><path d="M764.41,462 L764.41,472 L774.41,472 L764.41,462 " fill="#FEFFDD" style="stroke:#181818;stroke-width:0.5;"/><text fill="#000000" font-family="sans-serif" font-size="13" lengthAdjust="spacing" textLength="27" x="732.41" y="479.5684">Salir</text></g><!--link Menu_usuarios to Eliminar_usuario--><g id="link_Menu_usuarios_Eliminar_usuario"><path d="M809.56,405.94 C879.9,410.76 991.25,423.48 1081.58,457 C1092.91,461.2 1144.0911,493.5083 1182.8411,518.3883 " fill="none" id="Menu_usuarios-to-Eliminar_usuario" style="stroke:#181818;stroke-width:1.0;"/><polygon fill="#181818" points="1187.89,521.63,1182.4778,513.4015,1183.6826,518.9286,1178.1555,520.1334,1187.89,521.63" style="stroke:#181818;stroke-width:1.0;"/><path d="M1144.89,462 L1144.89,487 L1253.89,487 L1253.89,472 L1243.89,462 L1144.89,462 " fill="#FEFFDD" style="stroke:#181818;stroke-width:0.5;"/><path d="M1243.89,462 L1243.89,472 L1253.89,472 L1243.89,462 " fill="#FEFFDD" style="stroke:#181818;stroke-width:0.5;"/><text fill="#000000" font-family="sans-serif" font-size="13" lengthAdjust="spacing" textLength="88" x="1150.89" y="479.5684">Borrar usuario</text></g><!--link Eliminar_usuario to Menu_usuarios--><g id="link_Eliminar_usuario_Menu_usuarios"><path d="M1250.32,521.82 C1267.11,502.52 1283.45,475.69 1266.58,457 C1236.5,423.67 951.2364,409.9586 815.5264,405.2386 " fill="none" id="Eliminar_usuario-to-Menu_usuarios" style="stroke:#181818;stroke-width:1.0;"/><polygon fill="#181818" points="809.53,405.03,818.3855,409.3404,814.527,405.2038,818.6636,401.3452,809.53,405.03" style="stroke:#181818;stroke-width:1.0;"/><path d="M1278.67,462 L1278.67,487 L1348.67,487 L1348.67,472 L1338.67,462 L1278.67,462 " fill="#FEFFDD" style="stroke:#181818;stroke-width:0.5;"/><path d="M1338.67,462 L1338.67,472 L1348.67,472 L1338.67,462 " fill="#FEFFDD" style="stroke:#181818;stroke-width:0.5;"/><text fill="#000000" font-family="sans-serif" font-size="13" lengthAdjust="spacing" textLength="49" x="1284.67" y="479.5684">Guardar</text></g><!--link Menu to Menu_estadisticas--><g id="link_Menu_Menu_estadisticas"><path d="M432.88,262.84 C363.66,269.27 263.61,283.34 238.58,312 C223.3,329.5 222.9453,351.1217 226.0353,370.9317 " fill="none" id="Menu-to-Menu_estadisticas" style="stroke:#181818;stroke-width:1.0;"/><polygon fill="#181818" points="226.96,376.86,229.5251,367.3511,226.1894,371.9197,221.6207,368.584,226.96,376.86" style="stroke:#181818;stroke-width:1.0;"/><path d="M243.58,317 L243.58,342 L404.58,342 L404.58,327 L394.58,317 L243.58,317 " fill="#FEFFDD" style="stroke:#181818;stroke-width:0.5;"/><path d="M394.58,317 L394.58,327 L404.58,327 L394.58,317 " fill="#FEFFDD" style="stroke:#181818;stroke-width:0.5;"/><text fill="#000000" font-family="sans-serif" font-size="13" lengthAdjust="spacing" textLength="140" x="249.58" y="334.5684">Consultar estad&#237;sticas</text></g><!--link Menu_estadisticas to Menu--><g id="link_Menu_estadisticas_Menu"><path d="M315.48,385.53 C347.62,377.22 383.78,364.89 413.58,347 C428.49,338.06 455.1084,309.9827 476.0084,286.8427 " fill="none" id="Menu_estadisticas-to-Menu" style="stroke:#181818;stroke-width:1.0;"/><polygon fill="#181818" points="480.03,282.39,471.0291,286.3879,476.6786,286.1006,476.966,291.7501,480.03,282.39" style="stroke:#181818;stroke-width:1.0;"/><path d="M455.13,317 L455.13,342 L503.13,342 L503.13,327 L493.13,317 L455.13,317 " fill="#FEFFDD" style="stroke:#181818;stroke-width:0.5;"/><path d="M493.13,317 L493.13,327 L503.13,327 L493.13,317 " fill="#FEFFDD" style="stroke:#181818;stroke-width:0.5;"/><text fill="#000000" font-family="sans-serif" font-size="13" lengthAdjust="spacing" textLength="27" x="461.13" y="334.5684">Salir</text></g><!--link Menu_estadisticas to Consultar_estad?sticas--><g id="link_Menu_estadisticas_Consultar_estad&#237;sticas"><path d="M149.6,413.03 C95.65,421.45 32.32,435.59 15.58,457 C6,469.26 7.13,478.94 15.58,492 C23.64,504.47 30.1393,511.1153 43.1193,518.5253 " fill="none" id="Menu_estadisticas-to-Consultar_estad&#237;sticas" style="stroke:#181818;stroke-width:1.0;"/><polygon fill="#181818" points="48.33,521.5,42.4971,513.5642,43.9878,519.0211,38.5308,520.5118,48.33,521.5" style="stroke:#181818;stroke-width:1.0;"/><path d="M20.58,462 L20.58,487 L181.58,487 L181.58,472 L171.58,462 L20.58,462 " fill="#FEFFDD" style="stroke:#181818;stroke-width:0.5;"/><path d="M171.58,462 L171.58,472 L181.58,472 L171.58,462 " fill="#FEFFDD" style="stroke:#181818;stroke-width:0.5;"/><text fill="#000000" font-family="sans-serif" font-size="13" lengthAdjust="spacing" textLength="140" x="26.58" y="479.5684">Consultar estad&#237;sticas</text></g><!--link Consultar_estad?sticas to Menu_estadisticas--><g id="link_Consultar_estad&#237;sticas_Menu_estadisticas"><path d="M164.17,521.63 C173.35,512.9 183.06,502.58 190.58,492 C204.93,471.8 214.3032,451.5134 221.6332,432.8834 " fill="none" id="Consultar_estad&#237;sticas-to-Menu_estadisticas" style="stroke:#181818;stroke-width:1.0;"/><polygon fill="#181818" points="223.83,427.3,216.8126,434.2105,221.9993,431.9528,224.2571,437.1396,223.83,427.3" style="stroke:#181818;stroke-width:1.0;"/><path d="M215.82,462 L215.82,487 L263.82,487 L263.82,472 L253.82,462 L215.82,462 " fill="#FEFFDD" style="stroke:#181818;stroke-width:0.5;"/><path d="M253.82,462 L253.82,472 L263.82,472 L253.82,462 " fill="#FEFFDD" style="stroke:#181818;stroke-width:0.5;"/><text fill="#000000" font-family="sans-serif" font-size="13" lengthAdjust="spacing" textLength="27" x="221.82" y="479.5684">Salir</text></g><!--SRC=[jPJVQiCW58VlynJIoq5VOU2C3A4r9NzwCqQHHZPPfg39pTvXZxAhFK9VRCOkdIPrRUcMcuBzykMSdqTDoreEPZJRmAh4j2G8fjaCC0EeWbtxd9WziCIqsgnoGX5PmOK3bbnsmT-uA65AYjvH78WDjqWjJ2ksp0HuLLGm9vc7TgPZMgW3Xd8Cyu5p6DASwO4Ri3KEeJMV83WbvKY5Qz5ENNX1beIEqKQy2Zc5KKQBQj6BNUkxTwztfAJfcluBBe3TntS2oSFD8vZFRuTya_slMtA90lj8PVLAWaR85xVGFqIAhM0Q66x4xbEwTIvh1oT9_wxlZMeGr_gq9ToFgEpUDYUKZGO4R2WyUCveic2Dq2STuHZyafZXscu1qFp9Jg1M8t6WkQXj2zJiT9sZ6OlwuBRjREDlyL93qt_Kwf-QgCn2Ti4Ez4ZdlNn9RUVjzkJuHNrtoissptaHZZH_4-AF9RZeuiTlk1T0U2yS2S4NNdDq9fxOtNHbqH7jfGaTw-CB]--></g></svg>