<?xml version="1.0" encoding="us-ascii" standalone="no"?><svg xmlns="http://www.w3.org/2000/svg" xmlns:xlink="http://www.w3.org/1999/xlink" contentStyleType="text/css" height="433px" preserveAspectRatio="none" style="width:657px;height:433px;background:#FFFFFF;" version="1.1" viewBox="0 0 657 433" width="657px" zoomAndPan="magnify"><defs/><g><g id="NoAuth"><rect fill="#F1F1F1" height="50" rx="12.5" ry="12.5" style="stroke:#181818;stroke-width:0.5;" width="149" x="168.14" y="87"/><line style="stroke:#181818;stroke-width:0.5;" x1="168.14" x2="317.14" y1="113.4883" y2="113.4883"/><text fill="#000000" font-family="sans-serif" font-size="14" lengthAdjust="spacing" textLength="129" x="178.14" y="105.5352">NO_AUTENTICADO</text></g><g id="Menu"><rect fill="#F1F1F1" height="50" rx="12.5" ry="12.5" style="stroke:#181818;stroke-width:0.5;" width="137" x="174.14" y="232"/><line style="stroke:#181818;stroke-width:0.5;" x1="174.14" x2="311.14" y1="258.4883" y2="258.4883"/><text fill="#000000" font-family="sans-serif" font-size="14" lengthAdjust="spacing" textLength="117" x="184.14" y="250.5352">MENU_PRINCIPAL</text></g><g id="Test"><rect fill="#F1F1F1" height="50" rx="12.5" ry="12.5" style="stroke:#181818;stroke-width:0.5;" width="54" x="65.64" y="377"/><line style="stroke:#181818;stroke-width:0.5;" x1="65.64" x2="119.64" y1="403.4883" y2="403.4883"/><text fill="#000000" font-family="sans-serif" font-size="14" lengthAdjust="spacing" textLength="34" x="75.64" y="395.5352">TEST</text></g><g id="Capacitaci&#243;n"><rect fill="#F1F1F1" height="50" rx="12.5" ry="12.5" style="stroke:#181818;stroke-width:0.5;" width="126" x="356.64" y="377"/><line style="stroke:#181818;stroke-width:0.5;" x1="356.64" x2="482.64" y1="403.4883" y2="403.4883"/><text fill="#000000" font-family="sans-serif" font-size="14" lengthAdjust="spacing" textLength="106" x="366.64" y="395.5352">CAPACITACI&#211;N</text></g><ellipse cx="242.64" cy="16" fill="#222222" rx="10" ry="10" style="stroke:#222222;stroke-width:1.0;"/><!--link *start* to NoAuth--><g id="link_*start*_NoAuth"><path d="M242.64,26.36 C242.64,40.29 242.64,60.95 242.64,80.65 " fill="none" id="*start*-to-NoAuth" style="stroke:#181818;stroke-width:1.0;"/><polygon fill="#181818" points="242.64,86.65,246.64,77.65,242.64,81.65,238.64,77.65,242.64,86.65" style="stroke:#181818;stroke-width:1.0;"/></g><!--link NoAuth to Menu--><g id="link_NoAuth_Menu"><path d="M190.53,137.4 C179.36,145.21 169.01,155.01 162.64,167 C155.34,180.74 155.34,188.26 162.64,202 C169.01,213.99 174.4427,220.3519 185.6127,228.1619 " fill="none" id="NoAuth-to-Menu" style="stroke:#181818;stroke-width:1.0;"/><polygon fill="#181818" points="190.53,231.6,185.4462,223.1647,186.4323,228.7349,180.862,229.721,190.53,231.6" style="stroke:#181818;stroke-width:1.0;"/><path d="M167.64,172 L167.64,197 L272.64,197 L272.64,182 L262.64,172 L167.64,172 " fill="#FEFFDD" style="stroke:#181818;stroke-width:0.5;"/><path d="M262.64,172 L262.64,182 L272.64,182 L262.64,172 " fill="#FEFFDD" style="stroke:#181818;stroke-width:0.5;"/><text fill="#000000" font-family="sans-serif" font-size="13" lengthAdjust="spacing" textLength="84" x="173.64" y="189.5684">Iniciar sesi&#243;n</text></g><!--link Menu to NoAuth--><g id="link_Menu_NoAuth"><path d="M265.09,231.74 C271.76,223.01 278.19,212.67 281.64,202 C286.43,187.2 286.43,181.8 281.64,167 C278.19,156.33 275.4027,150.7577 268.7327,142.0277 " fill="none" id="Menu-to-NoAuth" style="stroke:#181818;stroke-width:1.0;"/><polygon fill="#181818" points="265.09,137.26,267.3755,146.84,268.1256,141.2331,273.7325,141.9831,265.09,137.26" style="stroke:#181818;stroke-width:1.0;"/><path d="M290.23,172 L290.23,197 L394.23,197 L394.23,182 L384.23,172 L290.23,172 " fill="#FEFFDD" style="stroke:#181818;stroke-width:0.5;"/><path d="M384.23,172 L384.23,182 L394.23,182 L384.23,172 " fill="#FEFFDD" style="stroke:#181818;stroke-width:0.5;"/><text fill="#000000" font-family="sans-serif" font-size="13" lengthAdjust="spacing" textLength="83" x="296.23" y="189.5684">Cerrar sesi&#243;n</text></g><!--link Menu to Test--><g id="link_Menu_Test"><path d="M173.9,265.04 C114.47,272.72 35.14,287.33 15.64,312 C6,324.21 8.46,333.2 15.64,347 C26.04,366.99 42.2268,378.4501 59.8968,387.2301 " fill="none" id="Menu-to-Test" style="stroke:#181818;stroke-width:1.0;"/><polygon fill="#181818" points="65.27,389.9,58.9901,382.313,60.7923,387.6751,55.4302,389.4773,65.27,389.9" style="stroke:#181818;stroke-width:1.0;"/><path d="M20.64,317 L20.64,342 L118.64,342 L118.64,327 L108.64,317 L20.64,317 " fill="#FEFFDD" style="stroke:#181818;stroke-width:0.5;"/><path d="M108.64,317 L108.64,327 L118.64,327 L108.64,317 " fill="#FEFFDD" style="stroke:#181818;stroke-width:0.5;"/><text fill="#000000" font-family="sans-serif" font-size="13" lengthAdjust="spacing" textLength="77" x="26.64" y="334.5684">Realizar test</text></g><!--link Test to Menu--><g id="link_Test_Menu"><path d="M108.99,376.7 C122.38,357.83 142.5,331.64 163.64,312 C175.21,301.26 184.0789,294.38 196.9389,285.8 " fill="none" id="Test-to-Menu" style="stroke:#181818;stroke-width:1.0;"/><polygon fill="#181818" points="201.93,282.47,192.2233,284.1376,197.7707,285.245,196.6633,290.7924,201.93,282.47" style="stroke:#181818;stroke-width:1.0;"/><path d="M168.64,317 L168.64,342 L270.64,342 L270.64,327 L260.64,317 L168.64,317 " fill="#FEFFDD" style="stroke:#181818;stroke-width:0.5;"/><path d="M260.64,317 L260.64,327 L270.64,327 L260.64,317 " fill="#FEFFDD" style="stroke:#181818;stroke-width:0.5;"/><text fill="#000000" font-family="sans-serif" font-size="13" lengthAdjust="spacing" textLength="81" x="174.64" y="334.5684">Finalizar test</text></g><!--link Menu to Capacitaci?n--><g id="link_Menu_Capacitaci&#243;n"><path d="M258.39,282.21 C271.86,301.54 292.67,328.37 315.64,347 C329.71,358.4 341.2184,365.6775 357.2284,373.8675 " fill="none" id="Menu-to-Capacitaci&#243;n" style="stroke:#181818;stroke-width:1.0;"/><polygon fill="#181818" points="362.57,376.6,356.3792,368.9401,358.1186,374.3229,352.7358,376.0623,362.57,376.6" style="stroke:#181818;stroke-width:1.0;"/><path d="M320.64,317 L320.64,342 L473.64,342 L473.64,327 L463.64,317 L320.64,317 " fill="#FEFFDD" style="stroke:#181818;stroke-width:0.5;"/><path d="M463.64,317 L463.64,327 L473.64,327 L463.64,317 " fill="#FEFFDD" style="stroke:#181818;stroke-width:0.5;"/><text fill="#000000" font-family="sans-serif" font-size="13" lengthAdjust="spacing" textLength="132" x="326.64" y="334.5684">Realizar capacitaci&#243;n</text></g><!--link Capacitaci?n to Menu--><g id="link_Capacitaci&#243;n_Menu"><path d="M455.51,376.64 C477.91,358.43 499.55,333.14 482.64,312 C461.5,285.57 380.502,271.8438 317.322,264.7038 " fill="none" id="Capacitaci&#243;n-to-Menu" style="stroke:#181818;stroke-width:1.0;"/><polygon fill="#181818" points="311.36,264.03,319.8539,269.0154,316.3284,264.5915,320.7523,261.066,311.36,264.03" style="stroke:#181818;stroke-width:1.0;"/><path d="M493.69,317 L493.69,342 L650.69,342 L650.69,327 L640.69,317 L493.69,317 " fill="#FEFFDD" style="stroke:#181818;stroke-width:0.5;"/><path d="M640.69,317 L640.69,327 L650.69,327 L640.69,317 " fill="#FEFFDD" style="stroke:#181818;stroke-width:0.5;"/><text fill="#000000" font-family="sans-serif" font-size="13" lengthAdjust="spacing" textLength="136" x="499.69" y="334.5684">Finalizar capacitaci&#243;n</text></g><!--SRC=[bP112i8m44NtEKLmAVGAGeWL0ZOjDLs9b5031aigJRhn6Xx58_HYfYD1nHRhm33mvyyBFzP9f_22foKfHCm5esITBh2qc3UaSoTaduOavaMPvOnJbf4j619bkh0MyKw0A9HrGQGa8vG9t_sDmvRAYwoqyztV3KBxvG57qIeyXPuJ981ZNwRngCRWMfip24CneoijMsoL1TAWANC4CqB3xJjt4aDLs_wcGAH9HgvahQ-Uue9j1F6P-pUh-lA_e1-i6N-rqMO6TGZv5smaxWC0]--></g></svg>