<?xml version="1.0" encoding="us-ascii" standalone="no"?><svg xmlns="http://www.w3.org/2000/svg" xmlns:xlink="http://www.w3.org/1999/xlink" contentStyleType="text/css" height="433px" preserveAspectRatio="none" style="width:3519px;height:433px;background:#FFFFFF;" version="1.1" viewBox="0 0 3519 433" width="3519px" zoomAndPan="magnify"><defs/><g><g id="NoAuth"><rect fill="#F1F1F1" height="50" rx="12.5" ry="12.5" style="stroke:#181818;stroke-width:0.5;" width="149" x="1519" y="87"/><line style="stroke:#181818;stroke-width:0.5;" x1="1519" x2="1668" y1="113.4883" y2="113.4883"/><text fill="#000000" font-family="sans-serif" font-size="14" lengthAdjust="spacing" textLength="129" x="1529" y="105.5352">NO_AUTENTICADO</text></g><g id="Menu_usuarios"><rect fill="#F1F1F1" height="50" rx="12.5" ry="12.5" style="stroke:#181818;stroke-width:0.5;" width="137" x="556" y="232"/><line style="stroke:#181818;stroke-width:0.5;" x1="556" x2="693" y1="258.4883" y2="258.4883"/><text fill="#000000" font-family="sans-serif" font-size="14" lengthAdjust="spacing" textLength="117" x="566" y="250.5352">MENU_USUARIOS</text></g><g id="Menu_administrador"><rect fill="#F1F1F1" height="50" rx="12.5" ry="12.5" style="stroke:#181818;stroke-width:0.5;" width="183" x="2041" y="232"/><line style="stroke:#181818;stroke-width:0.5;" x1="2041" x2="2224" y1="258.4883" y2="258.4883"/><text fill="#000000" font-family="sans-serif" font-size="14" lengthAdjust="spacing" textLength="163" x="2051" y="250.5352">MENU_ADMINISTRADOR</text></g><g id="Crear_usuario"><rect fill="#F1F1F1" height="50" rx="12.5" ry="12.5" style="stroke:#181818;stroke-width:0.5;" width="135" x="47" y="377"/><line style="stroke:#181818;stroke-width:0.5;" x1="47" x2="182" y1="403.4883" y2="403.4883"/><text fill="#000000" font-family="sans-serif" font-size="14" lengthAdjust="spacing" textLength="115" x="57" y="395.5352">CREAR_USUARIO</text></g><g id="Ver_usuario"><rect fill="#F1F1F1" height="50" rx="12.5" ry="12.5" style="stroke:#181818;stroke-width:0.5;" width="115" x="283" y="377"/><line style="stroke:#181818;stroke-width:0.5;" x1="283" x2="398" y1="403.4883" y2="403.4883"/><text fill="#000000" font-family="sans-serif" font-size="14" lengthAdjust="spacing" textLength="95" x="293" y="395.5352">VER_USUARIO</text></g><g id="Editar_usuario"><rect fill="#F1F1F1" height="50" rx="12.5" ry="12.5" style="stroke:#181818;stroke-width:0.5;" width="139" x="525" y="377"/><line style="stroke:#181818;stroke-width:0.5;" x1="525" x2="664" y1="403.4883" y2="403.4883"/><text fill="#000000" font-family="sans-serif" font-size="14" lengthAdjust="spacing" textLength="119" x="535" y="395.5352">EDITAR_USUARIO</text></g><g id="Eliminar_usuario"><rect fill="#F1F1F1" height="50" rx="12.5" ry="12.5" style="stroke:#181818;stroke-width:0.5;" width="153" x="819" y="377"/><line style="stroke:#181818;stroke-width:0.5;" x1="819" x2="972" y1="403.4883" y2="403.4883"/><text fill="#000000" font-family="sans-serif" font-size="14" lengthAdjust="spacing" textLength="133" x="829" y="395.5352">ELIMINAR_USUARIO</text></g><g id="Crear_test"><rect fill="#F1F1F1" height="50" rx="12.5" ry="12.5" style="stroke:#181818;stroke-width:0.5;" width="107" x="1144" y="377"/><line style="stroke:#181818;stroke-width:0.5;" x1="1144" x2="1251" y1="403.4883" y2="403.4883"/><text fill="#000000" font-family="sans-serif" font-size="14" lengthAdjust="spacing" textLength="87" x="1154" y="395.5352">CREAR_TEST</text></g><g id="Ver_test"><rect fill="#F1F1F1" height="50" rx="12.5" ry="12.5" style="stroke:#181818;stroke-width:0.5;" width="87" x="1409" y="377"/><line style="stroke:#181818;stroke-width:0.5;" x1="1409" x2="1496" y1="403.4883" y2="403.4883"/><text fill="#000000" font-family="sans-serif" font-size="14" lengthAdjust="spacing" textLength="67" x="1419" y="395.5352">VER_TEST</text></g><g id="Editar_test"><rect fill="#F1F1F1" height="50" rx="12.5" ry="12.5" style="stroke:#181818;stroke-width:0.5;" width="111" x="1667" y="377"/><line style="stroke:#181818;stroke-width:0.5;" x1="1667" x2="1778" y1="403.4883" y2="403.4883"/><text fill="#000000" font-family="sans-serif" font-size="14" lengthAdjust="spacing" textLength="91" x="1677" y="395.5352">EDITAR_TEST</text></g><g id="Eliminar_test"><rect fill="#F1F1F1" height="50" rx="12.5" ry="12.5" style="stroke:#181818;stroke-width:0.5;" width="125" x="1908" y="377"/><line style="stroke:#181818;stroke-width:0.5;" x1="1908" x2="2033" y1="403.4883" y2="403.4883"/><text fill="#000000" font-family="sans-serif" font-size="14" lengthAdjust="spacing" textLength="105" x="1918" y="395.5352">ELIMINAR_TEST</text></g><g id="Crear_capacitaci&#243;n"><rect fill="#F1F1F1" height="50" rx="12.5" ry="12.5" style="stroke:#181818;stroke-width:0.5;" width="179" x="2147" y="377"/><line style="stroke:#181818;stroke-width:0.5;" x1="2147" x2="2326" y1="403.4883" y2="403.4883"/><text fill="#000000" font-family="sans-serif" font-size="14" lengthAdjust="spacing" textLength="159" x="2157" y="395.5352">CREAR_CAPACITACI&#211;N</text></g><g id="Ver_capacitaci&#243;n"><rect fill="#F1F1F1" height="50" rx="12.5" ry="12.5" style="stroke:#181818;stroke-width:0.5;" width="159" x="2432" y="377"/><line style="stroke:#181818;stroke-width:0.5;" x1="2432" x2="2591" y1="403.4883" y2="403.4883"/><text fill="#000000" font-family="sans-serif" font-size="14" lengthAdjust="spacing" textLength="139" x="2442" y="395.5352">VER_CAPACITACI&#211;N</text></g><g id="Editar_capacitaci&#243;n"><rect fill="#F1F1F1" height="50" rx="12.5" ry="12.5" style="stroke:#181818;stroke-width:0.5;" width="183" x="2654" y="377"/><line style="stroke:#181818;stroke-width:0.5;" x1="2654" x2="2837" y1="403.4883" y2="403.4883"/><text fill="#000000" font-family="sans-serif" font-size="14" lengthAdjust="spacing" textLength="163" x="2664" y="395.5352">EDITAR_CAPACITACI&#211;N</text></g><g id="Eliminar_capacitaci&#243;n"><rect fill="#F1F1F1" height="50" rx="12.5" ry="12.5" style="stroke:#181818;stroke-width:0.5;" width="197" x="2992" y="377"/><line style="stroke:#181818;stroke-width:0.5;" x1="2992" x2="3189" y1="403.4883" y2="403.4883"/><text fill="#000000" font-family="sans-serif" font-size="14" lengthAdjust="spacing" textLength="177" x="3002" y="395.5352">ELIMINAR_CAPACITACI&#211;N</text></g><g id="Consultar_estad&#237;sticas"><rect fill="#F1F1F1" height="50" rx="12.5" ry="12.5" style="stroke:#181818;stroke-width:0.5;" width="209" x="3303" y="377"/><line style="stroke:#181818;stroke-width:0.5;" x1="3303" x2="3512" y1="403.4883" y2="403.4883"/><text fill="#000000" font-family="sans-serif" font-size="14" lengthAdjust="spacing" textLength="189" x="3313" y="395.5352">CONSULTAR_ESTAD&#205;STICAS</text></g><ellipse cx="1593.5" cy="16" fill="#222222" rx="10" ry="10" style="stroke:#222222;stroke-width:1.0;"/><!--link *start* to NoAuth--><g id="link_*start*_NoAuth"><path d="M1593.5,26.36 C1593.5,40.29 1593.5,60.95 1593.5,80.65 " fill="none" id="*start*-to-NoAuth" style="stroke:#181818;stroke-width:1.0;"/><polygon fill="#181818" points="1593.5,86.65,1597.5,77.65,1593.5,81.65,1589.5,77.65,1593.5,86.65" style="stroke:#181818;stroke-width:1.0;"/></g><!--link NoAuth to Menu_usuarios--><g id="link_NoAuth_Menu_usuarios"><path d="M1518.67,124.04 C1336,151 875.2957,218.9839 699.1457,244.9839 " fill="none" id="NoAuth-to-Menu_usuarios" style="stroke:#181818;stroke-width:1.0;"/><polygon fill="#181818" points="693.21,245.86,702.6976,248.503,698.1564,245.1299,701.5295,240.5887,693.21,245.86" style="stroke:#181818;stroke-width:1.0;"/><path d="M1229.28,172 L1229.28,197 L1334.28,197 L1334.28,182 L1324.28,172 L1229.28,172 " fill="#FEFFDD" style="stroke:#181818;stroke-width:0.5;"/><path d="M1324.28,172 L1324.28,182 L1334.28,182 L1324.28,172 " fill="#FEFFDD" style="stroke:#181818;stroke-width:0.5;"/><text fill="#000000" font-family="sans-serif" font-size="13" lengthAdjust="spacing" textLength="84" x="1235.28" y="189.5684">Iniciar sesi&#243;n</text></g><!--link Menu_usuarios to NoAuth--><g id="link_Menu_usuarios_NoAuth"><path d="M693.44,253.25 C849.1,246.64 1223.88,228.46 1347.5,202 C1415.67,187.41 1485.0132,160.6789 1534.0332,139.7189 " fill="none" id="Menu_usuarios-to-NoAuth" style="stroke:#181818;stroke-width:1.0;"/><polygon fill="#181818" points="1539.55,137.36,1529.7021,137.2204,1534.9526,139.3257,1532.8473,144.5762,1539.55,137.36" style="stroke:#181818;stroke-width:1.0;"/><path d="M1468.99,172 L1468.99,197 L1572.99,197 L1572.99,182 L1562.99,172 L1468.99,172 " fill="#FEFFDD" style="stroke:#181818;stroke-width:0.5;"/><path d="M1562.99,172 L1562.99,182 L1572.99,182 L1562.99,172 " fill="#FEFFDD" style="stroke:#181818;stroke-width:0.5;"/><text fill="#000000" font-family="sans-serif" font-size="13" lengthAdjust="spacing" textLength="83" x="1474.99" y="189.5684">Cerrar sesi&#243;n</text></g><!--link Menu_usuarios to Crear_usuario--><g id="link_Menu_usuarios_Crear_usuario"><path d="M555.65,259 C404.12,261.91 52.31,272.86 16.5,312 C6,323.48 8.59,333.61 16.5,347 C23.81,359.38 29.9675,365.9696 42.3075,373.5496 " fill="none" id="Menu_usuarios-to-Crear_usuario" style="stroke:#181818;stroke-width:1.0;"/><polygon fill="#181818" points="47.42,376.69,41.8449,368.571,43.1596,374.073,37.6576,375.3877,47.42,376.69" style="stroke:#181818;stroke-width:1.0;"/><path d="M21.5,317 L21.5,342 L143.5,342 L143.5,327 L133.5,317 L21.5,317 " fill="#FEFFDD" style="stroke:#181818;stroke-width:0.5;"/><path d="M133.5,317 L133.5,327 L143.5,327 L133.5,317 " fill="#FEFFDD" style="stroke:#181818;stroke-width:0.5;"/><text fill="#000000" font-family="sans-serif" font-size="13" lengthAdjust="spacing" textLength="101" x="27.5" y="334.5684">Insertar registro</text></g><!--link Crear_usuario to Menu_usuarios--><g id="link_Crear_usuario_Menu_usuarios"><path d="M134.08,376.55 C152.29,355.69 181.38,326.79 213.5,312 C272.9,284.65 449.1338,269.326 549.8338,262.496 " fill="none" id="Crear_usuario-to-Menu_usuarios" style="stroke:#181818;stroke-width:1.0;"/><polygon fill="#181818" points="555.82,262.09,546.57,258.7082,550.8315,262.4283,547.1113,266.6899,555.82,262.09" style="stroke:#181818;stroke-width:1.0;"/><path d="M218.5,317 L218.5,342 L288.5,342 L288.5,327 L278.5,317 L218.5,317 " fill="#FEFFDD" style="stroke:#181818;stroke-width:0.5;"/><path d="M278.5,317 L278.5,327 L288.5,327 L278.5,317 " fill="#FEFFDD" style="stroke:#181818;stroke-width:0.5;"/><text fill="#000000" font-family="sans-serif" font-size="13" lengthAdjust="spacing" textLength="49" x="224.5" y="334.5684">Guardar</text></g><!--link Menu_usuarios to Editar_usuario--><g id="link_Menu_usuarios_Editar_usuario"><path d="M559.25,282.25 C546.98,289.86 535.74,299.62 528.5,312 C520.64,325.43 521.84,332.94 528.5,347 C534.01,358.64 538.7353,364.8263 548.7353,372.9163 " fill="none" id="Menu_usuarios-to-Editar_usuario" style="stroke:#181818;stroke-width:1.0;"/><polygon fill="#181818" points="553.4,376.69,548.9188,367.9197,549.5128,373.5452,543.8872,374.1392,553.4,376.69" style="stroke:#181818;stroke-width:1.0;"/><path d="M533.5,317 L533.5,342 L670.5,342 L670.5,327 L660.5,317 L533.5,317 " fill="#FEFFDD" style="stroke:#181818;stroke-width:0.5;"/><path d="M660.5,317 L660.5,327 L670.5,327 L660.5,317 " fill="#FEFFDD" style="stroke:#181818;stroke-width:0.5;"/><text fill="#000000" font-family="sans-serif" font-size="13" lengthAdjust="spacing" textLength="116" x="539.5" y="334.5684">Actualizar registro</text></g><!--link Editar_usuario to Menu_usuarios--><g id="link_Editar_usuario_Menu_usuarios"><path d="M650.67,376.61 C662.21,368.88 672.85,359.1 679.5,347 C686.99,333.37 685.52,326.34 679.5,312 C674.79,300.77 670.8206,294.8318 662.0706,286.5218 " fill="none" id="Editar_usuario-to-Menu_usuarios" style="stroke:#181818;stroke-width:1.0;"/><polygon fill="#181818" points="657.72,282.39,661.4914,291.4882,661.3455,285.8332,667.0005,285.6874,657.72,282.39" style="stroke:#181818;stroke-width:1.0;"/><path d="M689.58,317 L689.58,342 L759.58,342 L759.58,327 L749.58,317 L689.58,317 " fill="#FEFFDD" style="stroke:#181818;stroke-width:0.5;"/><path d="M749.58,317 L749.58,327 L759.58,327 L749.58,317 " fill="#FEFFDD" style="stroke:#181818;stroke-width:0.5;"/><text fill="#000000" font-family="sans-serif" font-size="13" lengthAdjust="spacing" textLength="49" x="695.58" y="334.5684">Guardar</text></g><!--link Menu_usuarios to Ver_usuario--><g id="link_Menu_usuarios_Ver_usuario"><path d="M555.81,259.76 C472.55,263.51 339.49,275.26 308.5,312 C292.83,330.57 302.4716,352.5454 316.3516,371.8854 " fill="none" id="Menu_usuarios-to-Ver_usuario" style="stroke:#181818;stroke-width:1.0;"/><polygon fill="#181818" points="319.85,376.76,317.8521,367.1159,316.9347,372.6979,311.3527,371.7804,319.85,376.76" style="stroke:#181818;stroke-width:1.0;"/><path d="M313.5,317 L313.5,342 L385.5,342 L385.5,327 L375.5,317 L313.5,317 " fill="#FEFFDD" style="stroke:#181818;stroke-width:0.5;"/><path d="M375.5,317 L375.5,327 L385.5,327 L375.5,317 " fill="#FEFFDD" style="stroke:#181818;stroke-width:0.5;"/><text fill="#000000" font-family="sans-serif" font-size="13" lengthAdjust="spacing" textLength="51" x="319.5" y="334.5684">Ver lista</text></g><!--link Ver_usuario to Menu_usuarios--><g id="link_Ver_usuario_Menu_usuarios"><path d="M367.07,376.58 C389.69,356.87 423.79,329.61 457.5,312 C488.28,295.91 519.002,285.0923 550.002,276.2123 " fill="none" id="Ver_usuario-to-Menu_usuarios" style="stroke:#181818;stroke-width:1.0;"/><polygon fill="#181818" points="555.77,274.56,546.0165,273.193,550.9633,275.9369,548.2195,280.8837,555.77,274.56" style="stroke:#181818;stroke-width:1.0;"/><path d="M462.5,317 L462.5,342 L510.5,342 L510.5,327 L500.5,317 L462.5,317 " fill="#FEFFDD" style="stroke:#181818;stroke-width:0.5;"/><path d="M500.5,317 L500.5,327 L510.5,327 L500.5,317 " fill="#FEFFDD" style="stroke:#181818;stroke-width:0.5;"/><text fill="#000000" font-family="sans-serif" font-size="13" lengthAdjust="spacing" textLength="27" x="468.5" y="334.5684">Salir</text></g><!--link Menu_usuarios to Eliminar_usuario--><g id="link_Menu_usuarios_Eliminar_usuario"><path d="M693.24,278.65 C718.8,287.47 747.62,298.79 772.5,312 C806.95,330.29 838.0159,353.4056 862.0259,372.8356 " fill="none" id="Menu_usuarios-to-Eliminar_usuario" style="stroke:#181818;stroke-width:1.0;"/><polygon fill="#181818" points="866.69,376.61,862.2101,367.839,862.8032,373.4647,857.1776,374.0578,866.69,376.61" style="stroke:#181818;stroke-width:1.0;"/><path d="M830.35,317 L830.35,342 L939.35,342 L939.35,327 L929.35,317 L830.35,317 " fill="#FEFFDD" style="stroke:#181818;stroke-width:0.5;"/><path d="M929.35,317 L929.35,327 L939.35,327 L929.35,317 " fill="#FEFFDD" style="stroke:#181818;stroke-width:0.5;"/><text fill="#000000" font-family="sans-serif" font-size="13" lengthAdjust="spacing" textLength="88" x="836.35" y="334.5684">Borrar usuario</text></g><!--link Eliminar_usuario to Menu_usuarios--><g id="link_Eliminar_usuario_Menu_usuarios"><path d="M928.06,376.75 C949.14,358.14 969.71,332.28 952.5,312 C919.91,273.61 785.3458,262.6933 699.1458,259.4833 " fill="none" id="Eliminar_usuario-to-Menu_usuarios" style="stroke:#181818;stroke-width:1.0;"/><polygon fill="#181818" points="693.15,259.26,701.9949,263.5921,698.1465,259.4461,702.2926,255.5977,693.15,259.26" style="stroke:#181818;stroke-width:1.0;"/><path d="M963.9,317 L963.9,342 L1033.9,342 L1033.9,327 L1023.9,317 L963.9,317 " fill="#FEFFDD" style="stroke:#181818;stroke-width:0.5;"/><path d="M1023.9,317 L1023.9,327 L1033.9,327 L1023.9,317 " fill="#FEFFDD" style="stroke:#181818;stroke-width:0.5;"/><text fill="#000000" font-family="sans-serif" font-size="13" lengthAdjust="spacing" textLength="49" x="969.9" y="334.5684">Guardar</text></g><!--link NoAuth to Menu_administrador--><g id="link_NoAuth_Menu_administrador"><path d="M1668.33,134.49 C1733.07,152.91 1829.27,179.91 1913.5,202 C1955.16,212.93 1995.6308,223.0187 2034.8808,232.5887 " fill="none" id="NoAuth-to-Menu_administrador" style="stroke:#181818;stroke-width:1.0;"/><polygon fill="#181818" points="2040.71,234.01,2032.9137,227.9919,2035.8523,232.8256,2031.0186,235.7642,2040.71,234.01" style="stroke:#181818;stroke-width:1.0;"/><path d="M1918.5,172 L1918.5,197 L2023.5,197 L2023.5,182 L2013.5,172 L1918.5,172 " fill="#FEFFDD" style="stroke:#181818;stroke-width:0.5;"/><path d="M2013.5,172 L2013.5,182 L2023.5,182 L2013.5,172 " fill="#FEFFDD" style="stroke:#181818;stroke-width:0.5;"/><text fill="#000000" font-family="sans-serif" font-size="13" lengthAdjust="spacing" textLength="84" x="1924.5" y="189.5684">Iniciar sesi&#243;n</text></g><!--link Menu_administrador to NoAuth--><g id="link_Menu_administrador_NoAuth"><path d="M2113.05,231.9 C2094.67,210.96 2065.11,181.75 2032.5,167 C1969.18,138.36 1781.9294,123.5762 1674.1394,117.1662 " fill="none" id="Menu_administrador-to-NoAuth" style="stroke:#181818;stroke-width:1.0;"/><polygon fill="#181818" points="1668.15,116.81,1676.8967,121.3372,1673.1412,117.1068,1677.3716,113.3513,1668.15,116.81" style="stroke:#181818;stroke-width:1.0;"/><path d="M2088.4,172 L2088.4,197 L2192.4,197 L2192.4,182 L2182.4,172 L2088.4,172 " fill="#FEFFDD" style="stroke:#181818;stroke-width:0.5;"/><path d="M2182.4,172 L2182.4,182 L2192.4,182 L2182.4,172 " fill="#FEFFDD" style="stroke:#181818;stroke-width:0.5;"/><text fill="#000000" font-family="sans-serif" font-size="13" lengthAdjust="spacing" textLength="83" x="2094.4" y="189.5684">Cerrar sesi&#243;n</text></g><!--link Menu_administrador to Crear_test--><g id="link_Menu_administrador_Crear_test"><path d="M2040.57,259.49 C1796.06,263.88 1146.1,278.67 1114.5,312 C1103.79,323.29 1107.08,333.33 1114.5,347 C1121.22,359.39 1127.1649,366.041 1138.9149,373.911 " fill="none" id="Menu_administrador-to-Crear_test" style="stroke:#181818;stroke-width:1.0;"/><polygon fill="#181818" points="1143.9,377.25,1138.6483,368.9181,1139.7457,374.4675,1134.1964,375.565,1143.9,377.25" style="stroke:#181818;stroke-width:1.0;"/><path d="M1119.5,317 L1119.5,342 L1241.5,342 L1241.5,327 L1231.5,317 L1119.5,317 " fill="#FEFFDD" style="stroke:#181818;stroke-width:0.5;"/><path d="M1231.5,317 L1231.5,327 L1241.5,327 L1231.5,317 " fill="#FEFFDD" style="stroke:#181818;stroke-width:0.5;"/><text fill="#000000" font-family="sans-serif" font-size="13" lengthAdjust="spacing" textLength="101" x="1125.5" y="334.5684">Insertar registro</text></g><!--link Crear_test to Menu_administrador--><g id="link_Crear_test_Menu_administrador"><path d="M1219.75,376.85 C1241.01,355.57 1275.13,325.87 1311.5,312 C1442.46,262.06 1849.12,256.9493 2034.61,257.2793 " fill="none" id="Crear_test-to-Menu_administrador" style="stroke:#181818;stroke-width:1.0;"/><polygon fill="#181818" points="2040.61,257.29,2031.6171,253.274,2035.61,257.2811,2031.6029,261.274,2040.61,257.29" style="stroke:#181818;stroke-width:1.0;"/><path d="M1316.5,317 L1316.5,342 L1386.5,342 L1386.5,327 L1376.5,317 L1316.5,317 " fill="#FEFFDD" style="stroke:#181818;stroke-width:0.5;"/><path d="M1376.5,317 L1376.5,327 L1386.5,327 L1376.5,317 " fill="#FEFFDD" style="stroke:#181818;stroke-width:0.5;"/><text fill="#000000" font-family="sans-serif" font-size="13" lengthAdjust="spacing" textLength="49" x="1322.5" y="334.5684">Guardar</text></g><!--link Menu_administrador to Editar_test--><g id="link_Menu_administrador_Editar_test"><path d="M2040.54,261.28 C1902.16,267.16 1653.61,281.84 1626.5,312 C1616.1,323.57 1618.64,333.57 1626.5,347 C1635.57,362.52 1645.608,371.1494 1661.398,379.3694 " fill="none" id="Menu_administrador-to-Editar_test" style="stroke:#181818;stroke-width:1.0;"/><polygon fill="#181818" points="1666.72,382.14,1660.584,374.4361,1662.285,379.8312,1656.8899,381.5322,1666.72,382.14" style="stroke:#181818;stroke-width:1.0;"/><path d="M1631.5,317 L1631.5,342 L1768.5,342 L1768.5,327 L1758.5,317 L1631.5,317 " fill="#FEFFDD" style="stroke:#181818;stroke-width:0.5;"/><path d="M1758.5,317 L1758.5,327 L1768.5,327 L1758.5,317 " fill="#FEFFDD" style="stroke:#181818;stroke-width:0.5;"/><text fill="#000000" font-family="sans-serif" font-size="13" lengthAdjust="spacing" textLength="116" x="1637.5" y="334.5684">Actualizar registro</text></g><!--link Editar_test to Menu_administrador--><g id="link_Editar_test_Menu_administrador"><path d="M1747.17,376.64 C1769.42,356.12 1804.02,327.69 1839.5,312 C1903.36,283.76 1975.3848,270.9351 2034.8448,264.5051 " fill="none" id="Editar_test-to-Menu_administrador" style="stroke:#181818;stroke-width:1.0;"/><polygon fill="#181818" points="2040.81,263.86,2031.4321,260.8508,2035.839,264.3976,2032.2922,268.8044,2040.81,263.86" style="stroke:#181818;stroke-width:1.0;"/><path d="M1844.5,317 L1844.5,342 L1914.5,342 L1914.5,327 L1904.5,317 L1844.5,317 " fill="#FEFFDD" style="stroke:#181818;stroke-width:0.5;"/><path d="M1904.5,317 L1904.5,327 L1914.5,327 L1904.5,317 " fill="#FEFFDD" style="stroke:#181818;stroke-width:0.5;"/><text fill="#000000" font-family="sans-serif" font-size="13" lengthAdjust="spacing" textLength="49" x="1850.5" y="334.5684">Guardar</text></g><!--link Menu_administrador to Ver_test--><g id="link_Menu_administrador_Ver_test"><path d="M2040.63,258.02 C1854.91,259.01 1448.79,266.44 1406.5,312 C1389.1,330.74 1402.7173,352.9502 1420.9873,372.1802 " fill="none" id="Menu_administrador-to-Ver_test" style="stroke:#181818;stroke-width:1.0;"/><polygon fill="#181818" points="1425.12,376.53,1421.8209,367.2501,1421.6761,372.9051,1416.0211,372.7604,1425.12,376.53" style="stroke:#181818;stroke-width:1.0;"/><path d="M1411.5,317 L1411.5,342 L1483.5,342 L1483.5,327 L1473.5,317 L1411.5,317 " fill="#FEFFDD" style="stroke:#181818;stroke-width:0.5;"/><path d="M1473.5,317 L1473.5,327 L1483.5,327 L1473.5,317 " fill="#FEFFDD" style="stroke:#181818;stroke-width:0.5;"/><text fill="#000000" font-family="sans-serif" font-size="13" lengthAdjust="spacing" textLength="51" x="1417.5" y="334.5684">Ver lista</text></g><!--link Ver_test to Menu_administrador--><g id="link_Ver_test_Menu_administrador"><path d="M1472.09,376.67 C1490.62,355.58 1520.45,326.27 1553.5,312 C1638.65,275.23 1893.8621,263.5791 2034.5221,259.8491 " fill="none" id="Ver_test-to-Menu_administrador" style="stroke:#181818;stroke-width:1.0;"/><polygon fill="#181818" points="2040.52,259.69,2031.4171,255.93,2035.5218,259.8225,2031.6292,263.9272,2040.52,259.69" style="stroke:#181818;stroke-width:1.0;"/><path d="M1558.5,317 L1558.5,342 L1606.5,342 L1606.5,327 L1596.5,317 L1558.5,317 " fill="#FEFFDD" style="stroke:#181818;stroke-width:0.5;"/><path d="M1596.5,317 L1596.5,327 L1606.5,327 L1596.5,317 " fill="#FEFFDD" style="stroke:#181818;stroke-width:0.5;"/><text fill="#000000" font-family="sans-serif" font-size="13" lengthAdjust="spacing" textLength="27" x="1564.5" y="334.5684">Salir</text></g><!--link Menu_administrador to Eliminar_test--><g id="link_Menu_administrador_Eliminar_test"><path d="M2040.72,271.88 C1995.24,280.83 1947.14,294.16 1933.5,312 C1918.66,331.41 1929.076,352.8998 1943.946,371.8498 " fill="none" id="Menu_administrador-to-Eliminar_test" style="stroke:#181818;stroke-width:1.0;"/><polygon fill="#181818" points="1947.65,376.57,1945.2409,367.0203,1944.5634,372.6365,1938.9472,371.9589,1947.65,376.57" style="stroke:#181818;stroke-width:1.0;"/><path d="M1938.5,317 L1938.5,342 L2024.5,342 L2024.5,327 L2014.5,317 L1938.5,317 " fill="#FEFFDD" style="stroke:#181818;stroke-width:0.5;"/><path d="M2014.5,317 L2014.5,327 L2024.5,327 L2014.5,317 " fill="#FEFFDD" style="stroke:#181818;stroke-width:0.5;"/><text fill="#000000" font-family="sans-serif" font-size="13" lengthAdjust="spacing" textLength="65" x="1944.5" y="334.5684">Borrar test</text></g><!--link Eliminar_test to Menu_administrador--><g id="link_Eliminar_test_Menu_administrador"><path d="M1999.16,376.68 C2009.97,367.44 2022.35,356.79 2033.5,347 C2058.16,325.35 2081.4741,304.3591 2101.3141,286.3791 " fill="none" id="Eliminar_test-to-Menu_administrador" style="stroke:#181818;stroke-width:1.0;"/><polygon fill="#181818" points="2105.76,282.35,2096.405,285.4297,2102.0551,285.7076,2101.7772,291.3576,2105.76,282.35" style="stroke:#181818;stroke-width:1.0;"/><path d="M2076.8,317 L2076.8,342 L2146.8,342 L2146.8,327 L2136.8,317 L2076.8,317 " fill="#FEFFDD" style="stroke:#181818;stroke-width:0.5;"/><path d="M2136.8,317 L2136.8,327 L2146.8,327 L2136.8,317 " fill="#FEFFDD" style="stroke:#181818;stroke-width:0.5;"/><text fill="#000000" font-family="sans-serif" font-size="13" lengthAdjust="spacing" textLength="49" x="2082.8" y="334.5684">Guardar</text></g><!--link Menu_administrador to Crear_capacitaci?n--><g id="link_Menu_administrador_Crear_capacitaci&#243;n"><path d="M2146.82,282.44 C2157.82,300.69 2173.77,326 2189.5,347 C2197.02,357.05 2201.9531,363.0773 2209.9731,372.1373 " fill="none" id="Menu_administrador-to-Crear_capacitaci&#243;n" style="stroke:#181818;stroke-width:1.0;"/><polygon fill="#181818" points="2213.95,376.63,2210.9797,367.2397,2210.6359,372.8861,2204.9895,372.5423,2213.95,376.63" style="stroke:#181818;stroke-width:1.0;"/><path d="M2194.5,317 L2194.5,342 L2316.5,342 L2316.5,327 L2306.5,317 L2194.5,317 " fill="#FEFFDD" style="stroke:#181818;stroke-width:0.5;"/><path d="M2306.5,317 L2306.5,327 L2316.5,327 L2306.5,317 " fill="#FEFFDD" style="stroke:#181818;stroke-width:0.5;"/><text fill="#000000" font-family="sans-serif" font-size="13" lengthAdjust="spacing" textLength="101" x="2200.5" y="334.5684">Insertar registro</text></g><!--link Crear_capacitaci?n to Menu_administrador--><g id="link_Crear_capacitaci&#243;n_Menu_administrador"><path d="M2296.17,376.5 C2307.9,368.84 2318.67,359.13 2325.5,347 C2333.13,333.44 2334.9,324.39 2325.5,312 C2312.59,294.99 2273.5631,283.0976 2230.3131,274.0576 " fill="none" id="Crear_capacitaci&#243;n-to-Menu_administrador" style="stroke:#181818;stroke-width:1.0;"/><polygon fill="#181818" points="2224.44,272.83,2232.4312,278.5867,2229.3342,273.853,2234.068,270.756,2224.44,272.83" style="stroke:#181818;stroke-width:1.0;"/><path d="M2336.9,317 L2336.9,342 L2406.9,342 L2406.9,327 L2396.9,317 L2336.9,317 " fill="#FEFFDD" style="stroke:#181818;stroke-width:0.5;"/><path d="M2396.9,317 L2396.9,327 L2406.9,327 L2396.9,317 " fill="#FEFFDD" style="stroke:#181818;stroke-width:0.5;"/><text fill="#000000" font-family="sans-serif" font-size="13" lengthAdjust="spacing" textLength="49" x="2342.9" y="334.5684">Guardar</text></g><!--link Menu_administrador to Editar_capacitaci?n--><g id="link_Menu_administrador_Editar_capacitaci&#243;n"><path d="M2224.24,262.18 C2346.68,268.76 2556.33,283.78 2627.5,312 C2664.23,326.56 2695.1066,351.6917 2717.3566,372.6917 " fill="none" id="Menu_administrador-to-Editar_capacitaci&#243;n" style="stroke:#181818;stroke-width:1.0;"/><polygon fill="#181818" points="2721.72,376.81,2717.9204,367.7236,2718.0838,373.3781,2712.4293,373.5415,2721.72,376.81" style="stroke:#181818;stroke-width:1.0;"/><path d="M2691.28,317 L2691.28,342 L2828.28,342 L2828.28,327 L2818.28,317 L2691.28,317 " fill="#FEFFDD" style="stroke:#181818;stroke-width:0.5;"/><path d="M2818.28,317 L2818.28,327 L2828.28,327 L2818.28,317 " fill="#FEFFDD" style="stroke:#181818;stroke-width:0.5;"/><text fill="#000000" font-family="sans-serif" font-size="13" lengthAdjust="spacing" textLength="116" x="2697.28" y="334.5684">Actualizar registro</text></g><!--link Editar_capacitaci?n to Menu_administrador--><g id="link_Editar_capacitaci&#243;n_Menu_administrador"><path d="M2810.75,376.75 C2823.02,369.14 2834.26,359.38 2841.5,347 C2849.35,333.57 2852.07,323.41 2841.5,312 C2800.38,267.63 2412.6198,259.5944 2230.2998,258.2444 " fill="none" id="Editar_capacitaci&#243;n-to-Menu_administrador" style="stroke:#181818;stroke-width:1.0;"/><polygon fill="#181818" points="2224.3,258.2,2233.2701,262.2665,2229.2999,258.237,2233.3294,254.2667,2224.3,258.2" style="stroke:#181818;stroke-width:1.0;"/><path d="M2853.44,317 L2853.44,342 L2923.44,342 L2923.44,327 L2913.44,317 L2853.44,317 " fill="#FEFFDD" style="stroke:#181818;stroke-width:0.5;"/><path d="M2913.44,317 L2913.44,327 L2923.44,327 L2913.44,317 " fill="#FEFFDD" style="stroke:#181818;stroke-width:0.5;"/><text fill="#000000" font-family="sans-serif" font-size="13" lengthAdjust="spacing" textLength="49" x="2859.44" y="334.5684">Guardar</text></g><!--link Menu_administrador to Ver_capacitaci?n--><g id="link_Menu_administrador_Ver_capacitaci&#243;n"><path d="M2224.47,261.8 C2283.07,267.4 2359.04,280.73 2419.5,312 C2449.5,327.52 2472.5095,351.3472 2489.3395,371.9072 " fill="none" id="Menu_administrador-to-Ver_capacitaci&#243;n" style="stroke:#181818;stroke-width:1.0;"/><polygon fill="#181818" points="2493.14,376.55,2490.5344,367.0521,2489.9729,372.681,2484.344,372.1194,2493.14,376.55" style="stroke:#181818;stroke-width:1.0;"/><path d="M2469.16,317 L2469.16,342 L2541.16,342 L2541.16,327 L2531.16,317 L2469.16,317 " fill="#FEFFDD" style="stroke:#181818;stroke-width:0.5;"/><path d="M2531.16,317 L2531.16,327 L2541.16,327 L2531.16,317 " fill="#FEFFDD" style="stroke:#181818;stroke-width:0.5;"/><text fill="#000000" font-family="sans-serif" font-size="13" lengthAdjust="spacing" textLength="51" x="2475.16" y="334.5684">Ver lista</text></g><!--link Ver_capacitaci?n to Menu_administrador--><g id="link_Ver_capacitaci&#243;n_Menu_administrador"><path d="M2537.31,376.63 C2554.51,357.47 2571.16,330.94 2554.5,312 C2533.04,287.62 2347.8766,271.6503 2230.3166,263.7903 " fill="none" id="Ver_capacitaci&#243;n-to-Menu_administrador" style="stroke:#181818;stroke-width:1.0;"/><polygon fill="#181818" points="2224.33,263.39,2233.0431,267.9815,2229.3189,263.7236,2233.5768,259.9993,2224.33,263.39" style="stroke:#181818;stroke-width:1.0;"/><path d="M2566.38,317 L2566.38,342 L2614.38,342 L2614.38,327 L2604.38,317 L2566.38,317 " fill="#FEFFDD" style="stroke:#181818;stroke-width:0.5;"/><path d="M2604.38,317 L2604.38,327 L2614.38,327 L2604.38,317 " fill="#FEFFDD" style="stroke:#181818;stroke-width:0.5;"/><text fill="#000000" font-family="sans-serif" font-size="13" lengthAdjust="spacing" textLength="27" x="2572.38" y="334.5684">Salir</text></g><!--link Menu_administrador to Eliminar_capacitaci?n--><g id="link_Menu_administrador_Eliminar_capacitaci&#243;n"><path d="M2224.41,258.95 C2406.29,261.7 2805.76,272.2 2936.5,312 C2960.35,319.26 3010.336,349.562 3047.726,373.322 " fill="none" id="Menu_administrador-to-Eliminar_capacitaci&#243;n" style="stroke:#181818;stroke-width:1.0;"/><polygon fill="#181818" points="3052.79,376.54,3047.3393,368.337,3048.57,373.8583,3043.0486,375.089,3052.79,376.54" style="stroke:#181818;stroke-width:1.0;"/><path d="M3007.88,317 L3007.88,342 L3148.88,342 L3148.88,327 L3138.88,317 L3007.88,317 " fill="#FEFFDD" style="stroke:#181818;stroke-width:0.5;"/><path d="M3138.88,317 L3138.88,327 L3148.88,327 L3138.88,317 " fill="#FEFFDD" style="stroke:#181818;stroke-width:0.5;"/><text fill="#000000" font-family="sans-serif" font-size="13" lengthAdjust="spacing" textLength="120" x="3013.88" y="334.5684">Borrar capacitaci&#243;n</text></g><!--link Eliminar_capacitaci?n to Menu_administrador--><g id="link_Eliminar_capacitaci&#243;n_Menu_administrador"><path d="M3130.63,376.66 C3156.17,358.23 3181.09,332.65 3161.5,312 C3129.48,278.26 2476.1891,263.8043 2230.0791,259.5243 " fill="none" id="Eliminar_capacitaci&#243;n-to-Menu_administrador" style="stroke:#181818;stroke-width:1.0;"/><polygon fill="#181818" points="2224.08,259.42,2233.0091,263.5759,2229.0792,259.5069,2233.1482,255.5771,2224.08,259.42" style="stroke:#181818;stroke-width:1.0;"/><path d="M3173.53,317 L3173.53,342 L3243.53,342 L3243.53,327 L3233.53,317 L3173.53,317 " fill="#FEFFDD" style="stroke:#181818;stroke-width:0.5;"/><path d="M3233.53,317 L3233.53,327 L3243.53,327 L3233.53,317 " fill="#FEFFDD" style="stroke:#181818;stroke-width:0.5;"/><text fill="#000000" font-family="sans-serif" font-size="13" lengthAdjust="spacing" textLength="49" x="3179.53" y="334.5684">Guardar</text></g><!--link Menu_administrador to Consultar_estad?sticas--><g id="link_Menu_administrador_Consultar_estad&#237;sticas"><path d="M2224.15,259.88 C2474.7,265.36 3158.92,282.85 3256.5,312 C3262.57,313.81 3319.472,347.8215 3362.122,373.5415 " fill="none" id="Menu_administrador-to-Consultar_estad&#237;sticas" style="stroke:#181818;stroke-width:1.0;"/><polygon fill="#181818" points="3367.26,376.64,3361.6186,368.5669,3362.9783,374.0579,3357.4873,375.4176,3367.26,376.64" style="stroke:#181818;stroke-width:1.0;"/><path d="M3318.68,317 L3318.68,342 L3438.68,342 L3438.68,327 L3428.68,317 L3318.68,317 " fill="#FEFFDD" style="stroke:#181818;stroke-width:0.5;"/><path d="M3428.68,317 L3428.68,327 L3438.68,327 L3428.68,317 " fill="#FEFFDD" style="stroke:#181818;stroke-width:0.5;"/><text fill="#000000" font-family="sans-serif" font-size="13" lengthAdjust="spacing" textLength="99" x="3324.68" y="334.5684">Ver estad&#237;sticas</text></g><!--link Consultar_estad?sticas to Menu_administrador--><g id="link_Consultar_estad&#237;sticas_Menu_administrador"><path d="M3433.81,376.67 C3451.7,357.27 3469.16,330.4 3451.5,312 C3409.07,267.8 2522.8999,259.7897 2230.4399,258.3397 " fill="none" id="Consultar_estad&#237;sticas-to-Menu_administrador" style="stroke:#181818;stroke-width:1.0;"/><polygon fill="#181818" points="2224.44,258.31,2233.4201,262.3546,2229.4399,258.3348,2233.4597,254.3547,2224.44,258.31" style="stroke:#181818;stroke-width:1.0;"/><path d="M3463.83,317 L3463.83,342 L3511.83,342 L3511.83,327 L3501.83,317 L3463.83,317 " fill="#FEFFDD" style="stroke:#181818;stroke-width:0.5;"/><path d="M3501.83,317 L3501.83,327 L3511.83,327 L3501.83,317 " fill="#FEFFDD" style="stroke:#181818;stroke-width:0.5;"/><text fill="#000000" font-family="sans-serif" font-size="13" lengthAdjust="spacing" textLength="27" x="3469.83" y="334.5684">Salir</text></g><!--SRC=[lPPDJiGW68RtFKNZqiGhc23Jc2PEn_J7ZJ4JqX8bZjG0tNW7Lvx3bKUOYmbj6Q7G-QiptKm2BoyFtxmVBHT8uF0YMIn1aKT97aCmMro4Y8T93Hhn4l1EC8-IObba1KZZHTREpp5jbWrl42CrjsHWDe-JECjJQPN-QL7rHYZXWg6gPde1J2EGQkDM2nb6J1jhsKDaYnwm8ubcSJwmYYeYNA_eBfPyG-cAI3fNtF7bKPORS09pOP9jfXMMETapRUPx84kYQVv46iMKTHmGt0CeBM6y_aeCe1Azer9QbsJzGqqoTu52zCfxLdT53-rVfEazo_Gnl0lX8icAExMXF3QOhJyp5RqkMR2cl5cfFMK1KBN-veAKY0VoURny2g-khdKuW-wt7RBp6Cg7rdAdceOhGb_R0VN4b9G4iP1ZtlAeCKohLXm4becvqwWVn8mTO6UdUmibnqnM86JuMRLCFJ2sR0uv_gqKL8Zjv1oqpgWVA4M3LkHZ7DLsEWMhUHcCcacH791v6jWPYmzXo-IXzwZYy5OPzRkfsnYPEgE40vlfHHpsZNqtJsaUo-cVEiZrDExXYJsaF0wkmvPakgpcfJ-zZqxFktc97TLBH_6DTfEdcjRRSLS_RKIUPZfz9NqlvubnjSpEajizyVSEy1bFu7xh71NfQSJ7P7jFw3xahjgJzZEMVUpxRMlnNQaHVR_XV_mLlm00]--></g></svg>