<?xml version="1.0" encoding="us-ascii" standalone="no"?><svg xmlns="http://www.w3.org/2000/svg" xmlns:xlink="http://www.w3.org/1999/xlink" contentStyleType="text/css" height="834px" preserveAspectRatio="none" style="width:2473px;height:834px;background:#FFFFFF;" version="1.1" viewBox="0 0 2473 834" width="2473px" zoomAndPan="magnify"><defs/><g><g id="NoAuth"><rect fill="#F1F1F1" height="50" rx="12.5" ry="12.5" style="stroke:#181818;stroke-width:0.5;" width="149" x="974" y="87"/><line style="stroke:#181818;stroke-width:0.5;" x1="974" x2="1123" y1="113.4883" y2="113.4883"/><text fill="#000000" font-family="sans-serif" font-size="14" lengthAdjust="spacing" textLength="129" x="984" y="105.5352">NO_AUTENTICADO</text></g><g id="Menu"><rect fill="#F1F1F1" height="50" rx="12.5" ry="12.5" style="stroke:#181818;stroke-width:0.5;" width="137" x="980" y="232"/><line style="stroke:#181818;stroke-width:0.5;" x1="980" x2="1117" y1="258.4883" y2="258.4883"/><text fill="#000000" font-family="sans-serif" font-size="14" lengthAdjust="spacing" textLength="117" x="990" y="250.5352">MENU_PRINCIPAL</text></g><g id="Menu_usuarios"><rect fill="#F1F1F1" height="50" rx="12.5" ry="12.5" style="stroke:#181818;stroke-width:0.5;" width="137" x="556" y="377"/><line style="stroke:#181818;stroke-width:0.5;" x1="556" x2="693" y1="403.4883" y2="403.4883"/><text fill="#000000" font-family="sans-serif" font-size="14" lengthAdjust="spacing" textLength="117" x="566" y="395.5352">MENU_USUARIOS</text></g><g id="Menu_administrador"><rect fill="#F1F1F1" height="50" rx="12.5" ry="12.5" style="stroke:#181818;stroke-width:0.5;" width="183" x="1141" y="633"/><line style="stroke:#181818;stroke-width:0.5;" x1="1141" x2="1324" y1="659.4883" y2="659.4883"/><text fill="#000000" font-family="sans-serif" font-size="14" lengthAdjust="spacing" textLength="163" x="1151" y="651.5352">MENU_ADMINISTRADOR</text></g><g id="Crear_usuario"><rect fill="#F1F1F1" height="50" rx="12.5" ry="12.5" style="stroke:#181818;stroke-width:0.5;" width="135" x="47" y="522"/><line style="stroke:#181818;stroke-width:0.5;" x1="47" x2="182" y1="548.4883" y2="548.4883"/><text fill="#000000" font-family="sans-serif" font-size="14" lengthAdjust="spacing" textLength="115" x="57" y="540.5352">CREAR_USUARIO</text></g><g id="Ver_usuario"><rect fill="#F1F1F1" height="50" rx="12.5" ry="12.5" style="stroke:#181818;stroke-width:0.5;" width="115" x="283" y="522"/><line style="stroke:#181818;stroke-width:0.5;" x1="283" x2="398" y1="548.4883" y2="548.4883"/><text fill="#000000" font-family="sans-serif" font-size="14" lengthAdjust="spacing" textLength="95" x="293" y="540.5352">VER_USUARIO</text></g><g id="Editar_usuario"><rect fill="#F1F1F1" height="50" rx="12.5" ry="12.5" style="stroke:#181818;stroke-width:0.5;" width="139" x="525" y="522"/><line style="stroke:#181818;stroke-width:0.5;" x1="525" x2="664" y1="548.4883" y2="548.4883"/><text fill="#000000" font-family="sans-serif" font-size="14" lengthAdjust="spacing" textLength="119" x="535" y="540.5352">EDITAR_USUARIO</text></g><g id="Eliminar_usuario"><rect fill="#F1F1F1" height="50" rx="12.5" ry="12.5" style="stroke:#181818;stroke-width:0.5;" width="153" x="836" y="522"/><line style="stroke:#181818;stroke-width:0.5;" x1="836" x2="989" y1="548.4883" y2="548.4883"/><text fill="#000000" font-family="sans-serif" font-size="14" lengthAdjust="spacing" textLength="133" x="846" y="540.5352">ELIMINAR_USUARIO</text></g><g id="Crear_test"><rect fill="#F1F1F1" height="50" rx="12.5" ry="12.5" style="stroke:#181818;stroke-width:0.5;" width="107" x="141" y="778"/><line style="stroke:#181818;stroke-width:0.5;" x1="141" x2="248" y1="804.4883" y2="804.4883"/><text fill="#000000" font-family="sans-serif" font-size="14" lengthAdjust="spacing" textLength="87" x="151" y="796.5352">CREAR_TEST</text></g><g id="Ver_test"><rect fill="#F1F1F1" height="50" rx="12.5" ry="12.5" style="stroke:#181818;stroke-width:0.5;" width="87" x="363" y="778"/><line style="stroke:#181818;stroke-width:0.5;" x1="363" x2="450" y1="804.4883" y2="804.4883"/><text fill="#000000" font-family="sans-serif" font-size="14" lengthAdjust="spacing" textLength="67" x="373" y="796.5352">VER_TEST</text></g><g id="Editar_test"><rect fill="#F1F1F1" height="50" rx="12.5" ry="12.5" style="stroke:#181818;stroke-width:0.5;" width="111" x="605" y="778"/><line style="stroke:#181818;stroke-width:0.5;" x1="605" x2="716" y1="804.4883" y2="804.4883"/><text fill="#000000" font-family="sans-serif" font-size="14" lengthAdjust="spacing" textLength="91" x="615" y="796.5352">EDITAR_TEST</text></g><g id="Eliminar_test"><rect fill="#F1F1F1" height="50" rx="12.5" ry="12.5" style="stroke:#181818;stroke-width:0.5;" width="125" x="862" y="778"/><line style="stroke:#181818;stroke-width:0.5;" x1="862" x2="987" y1="804.4883" y2="804.4883"/><text fill="#000000" font-family="sans-serif" font-size="14" lengthAdjust="spacing" textLength="105" x="872" y="796.5352">ELIMINAR_TEST</text></g><g id="Crear_capacitaci&#243;n"><rect fill="#F1F1F1" height="50" rx="12.5" ry="12.5" style="stroke:#181818;stroke-width:0.5;" width="179" x="1101" y="778"/><line style="stroke:#181818;stroke-width:0.5;" x1="1101" x2="1280" y1="804.4883" y2="804.4883"/><text fill="#000000" font-family="sans-serif" font-size="14" lengthAdjust="spacing" textLength="159" x="1111" y="796.5352">CREAR_CAPACITACI&#211;N</text></g><g id="Ver_capacitaci&#243;n"><rect fill="#F1F1F1" height="50" rx="12.5" ry="12.5" style="stroke:#181818;stroke-width:0.5;" width="159" x="1366" y="778"/><line style="stroke:#181818;stroke-width:0.5;" x1="1366" x2="1525" y1="804.4883" y2="804.4883"/><text fill="#000000" font-family="sans-serif" font-size="14" lengthAdjust="spacing" textLength="139" x="1376" y="796.5352">VER_CAPACITACI&#211;N</text></g><g id="Editar_capacitaci&#243;n"><rect fill="#F1F1F1" height="50" rx="12.5" ry="12.5" style="stroke:#181818;stroke-width:0.5;" width="183" x="1647" y="778"/><line style="stroke:#181818;stroke-width:0.5;" x1="1647" x2="1830" y1="804.4883" y2="804.4883"/><text fill="#000000" font-family="sans-serif" font-size="14" lengthAdjust="spacing" textLength="163" x="1657" y="796.5352">EDITAR_CAPACITACI&#211;N</text></g><g id="Eliminar_capacitaci&#243;n"><rect fill="#F1F1F1" height="50" rx="12.5" ry="12.5" style="stroke:#181818;stroke-width:0.5;" width="197" x="1946" y="778"/><line style="stroke:#181818;stroke-width:0.5;" x1="1946" x2="2143" y1="804.4883" y2="804.4883"/><text fill="#000000" font-family="sans-serif" font-size="14" lengthAdjust="spacing" textLength="177" x="1956" y="796.5352">ELIMINAR_CAPACITACI&#211;N</text></g><g id="Consultar_estad&#237;sticas"><rect fill="#F1F1F1" height="50" rx="12.5" ry="12.5" style="stroke:#181818;stroke-width:0.5;" width="209" x="2257" y="778"/><line style="stroke:#181818;stroke-width:0.5;" x1="2257" x2="2466" y1="804.4883" y2="804.4883"/><text fill="#000000" font-family="sans-serif" font-size="14" lengthAdjust="spacing" textLength="189" x="2267" y="796.5352">CONSULTAR_ESTAD&#205;STICAS</text></g><ellipse cx="1048.5" cy="16" fill="#222222" rx="10" ry="10" style="stroke:#222222;stroke-width:1.0;"/><!--link *start* to NoAuth--><g id="link_*start*_NoAuth"><path d="M1048.5,26.36 C1048.5,40.29 1048.5,60.95 1048.5,80.65 " fill="none" id="*start*-to-NoAuth" style="stroke:#181818;stroke-width:1.0;"/><polygon fill="#181818" points="1048.5,86.65,1052.5,77.65,1048.5,81.65,1044.5,77.65,1048.5,86.65" style="stroke:#181818;stroke-width:1.0;"/></g><!--link NoAuth to Menu--><g id="link_NoAuth_Menu"><path d="M996.39,137.4 C985.22,145.21 974.87,155.01 968.5,167 C961.2,180.74 961.2,188.26 968.5,202 C974.87,213.99 980.3027,220.3519 991.4727,228.1619 " fill="none" id="NoAuth-to-Menu" style="stroke:#181818;stroke-width:1.0;"/><polygon fill="#181818" points="996.39,231.6,991.3062,223.1647,992.2923,228.7349,986.722,229.721,996.39,231.6" style="stroke:#181818;stroke-width:1.0;"/><path d="M973.5,172 L973.5,197 L1078.5,197 L1078.5,182 L1068.5,172 L973.5,172 " fill="#FEFFDD" style="stroke:#181818;stroke-width:0.5;"/><path d="M1068.5,172 L1068.5,182 L1078.5,182 L1068.5,172 " fill="#FEFFDD" style="stroke:#181818;stroke-width:0.5;"/><text fill="#000000" font-family="sans-serif" font-size="13" lengthAdjust="spacing" textLength="84" x="979.5" y="189.5684">Iniciar sesi&#243;n</text></g><!--link Menu to NoAuth--><g id="link_Menu_NoAuth"><path d="M1070.95,231.74 C1077.61,223.01 1084.05,212.67 1087.5,202 C1092.28,187.2 1092.28,181.8 1087.5,167 C1084.05,156.33 1081.2519,150.7583 1074.5919,142.0383 " fill="none" id="Menu-to-NoAuth" style="stroke:#181818;stroke-width:1.0;"/><polygon fill="#181818" points="1070.95,137.27,1073.2339,146.8504,1073.9849,141.2436,1079.5917,141.9946,1070.95,137.27" style="stroke:#181818;stroke-width:1.0;"/><path d="M1096.09,172 L1096.09,197 L1200.09,197 L1200.09,182 L1190.09,172 L1096.09,172 " fill="#FEFFDD" style="stroke:#181818;stroke-width:0.5;"/><path d="M1190.09,172 L1190.09,182 L1200.09,182 L1190.09,172 " fill="#FEFFDD" style="stroke:#181818;stroke-width:0.5;"/><text fill="#000000" font-family="sans-serif" font-size="13" lengthAdjust="spacing" textLength="83" x="1102.09" y="189.5684">Cerrar sesi&#243;n</text></g><!--link Menu to Menu_usuarios--><g id="link_Menu_Menu_usuarios"><path d="M979.65,266.69 C926.34,274.74 851.27,289.02 788.5,312 C742.72,328.76 699.1767,353.4141 666.8667,373.4841 " fill="none" id="Menu-to-Menu_usuarios" style="stroke:#181818;stroke-width:1.0;"/><polygon fill="#181818" points="661.77,376.65,671.5257,375.2989,666.0173,374.0117,667.3045,368.5033,661.77,376.65" style="stroke:#181818;stroke-width:1.0;"/><path d="M793.5,317 L793.5,342 L932.5,342 L932.5,327 L922.5,317 L793.5,317 " fill="#FEFFDD" style="stroke:#181818;stroke-width:0.5;"/><path d="M922.5,317 L922.5,327 L932.5,327 L922.5,317 " fill="#FEFFDD" style="stroke:#181818;stroke-width:0.5;"/><text fill="#000000" font-family="sans-serif" font-size="13" lengthAdjust="spacing" textLength="118" x="799.5" y="334.5684">Gestionar usuarios</text></g><!--link Menu_usuarios to Menu--><g id="link_Menu_usuarios_Menu"><path d="M693.38,399.51 C759.72,395.76 861.49,383.81 941.5,347 C975.08,331.55 1002.5614,307.0758 1022.6014,286.4258 " fill="none" id="Menu_usuarios-to-Menu" style="stroke:#181818;stroke-width:1.0;"/><polygon fill="#181818" points="1026.78,282.12,1017.6416,285.7929,1023.2979,285.7081,1023.3827,291.3644,1026.78,282.12" style="stroke:#181818;stroke-width:1.0;"/><path d="M997.3,317 L997.3,342 L1045.3,342 L1045.3,327 L1035.3,317 L997.3,317 " fill="#FEFFDD" style="stroke:#181818;stroke-width:0.5;"/><path d="M1035.3,317 L1035.3,327 L1045.3,327 L1035.3,317 " fill="#FEFFDD" style="stroke:#181818;stroke-width:0.5;"/><text fill="#000000" font-family="sans-serif" font-size="13" lengthAdjust="spacing" textLength="27" x="1003.3" y="334.5684">Salir</text></g><!--link Menu_usuarios to Crear_usuario--><g id="link_Menu_usuarios_Crear_usuario"><path d="M555.65,404 C404.12,406.91 52.31,417.86 16.5,457 C6,468.48 8.59,478.61 16.5,492 C23.81,504.38 29.9675,510.9696 42.3075,518.5496 " fill="none" id="Menu_usuarios-to-Crear_usuario" style="stroke:#181818;stroke-width:1.0;"/><polygon fill="#181818" points="47.42,521.69,41.8449,513.571,43.1596,519.073,37.6576,520.3877,47.42,521.69" style="stroke:#181818;stroke-width:1.0;"/><path d="M21.5,462 L21.5,487 L143.5,487 L143.5,472 L133.5,462 L21.5,462 " fill="#FEFFDD" style="stroke:#181818;stroke-width:0.5;"/><path d="M133.5,462 L133.5,472 L143.5,472 L133.5,462 " fill="#FEFFDD" style="stroke:#181818;stroke-width:0.5;"/><text fill="#000000" font-family="sans-serif" font-size="13" lengthAdjust="spacing" textLength="101" x="27.5" y="479.5684">Insertar registro</text></g><!--link Crear_usuario to Menu_usuarios--><g id="link_Crear_usuario_Menu_usuarios"><path d="M134.08,521.55 C152.29,500.69 181.38,471.79 213.5,457 C272.9,429.65 449.1338,414.326 549.8338,407.496 " fill="none" id="Crear_usuario-to-Menu_usuarios" style="stroke:#181818;stroke-width:1.0;"/><polygon fill="#181818" points="555.82,407.09,546.57,403.7082,550.8315,407.4283,547.1113,411.6899,555.82,407.09" style="stroke:#181818;stroke-width:1.0;"/><path d="M218.5,462 L218.5,487 L288.5,487 L288.5,472 L278.5,462 L218.5,462 " fill="#FEFFDD" style="stroke:#181818;stroke-width:0.5;"/><path d="M278.5,462 L278.5,472 L288.5,472 L278.5,462 " fill="#FEFFDD" style="stroke:#181818;stroke-width:0.5;"/><text fill="#000000" font-family="sans-serif" font-size="13" lengthAdjust="spacing" textLength="49" x="224.5" y="479.5684">Guardar</text></g><!--link Menu_usuarios to Editar_usuario--><g id="link_Menu_usuarios_Editar_usuario"><path d="M559.25,427.25 C546.98,434.86 535.74,444.62 528.5,457 C520.64,470.43 521.84,477.94 528.5,492 C534.01,503.64 538.7353,509.8263 548.7353,517.9163 " fill="none" id="Menu_usuarios-to-Editar_usuario" style="stroke:#181818;stroke-width:1.0;"/><polygon fill="#181818" points="553.4,521.69,548.9188,512.9197,549.5128,518.5452,543.8872,519.1392,553.4,521.69" style="stroke:#181818;stroke-width:1.0;"/><path d="M533.5,462 L533.5,487 L670.5,487 L670.5,472 L660.5,462 L533.5,462 " fill="#FEFFDD" style="stroke:#181818;stroke-width:0.5;"/><path d="M660.5,462 L660.5,472 L670.5,472 L660.5,462 " fill="#FEFFDD" style="stroke:#181818;stroke-width:0.5;"/><text fill="#000000" font-family="sans-serif" font-size="13" lengthAdjust="spacing" textLength="116" x="539.5" y="479.5684">Actualizar registro</text></g><!--link Editar_usuario to Menu_usuarios--><g id="link_Editar_usuario_Menu_usuarios"><path d="M650.67,521.61 C662.21,513.88 672.85,504.1 679.5,492 C686.99,478.37 685.52,471.34 679.5,457 C674.79,445.77 670.8206,439.8318 662.0706,431.5218 " fill="none" id="Editar_usuario-to-Menu_usuarios" style="stroke:#181818;stroke-width:1.0;"/><polygon fill="#181818" points="657.72,427.39,661.4914,436.4882,661.3455,430.8332,667.0005,430.6874,657.72,427.39" style="stroke:#181818;stroke-width:1.0;"/><path d="M689.58,462 L689.58,487 L759.58,487 L759.58,472 L749.58,462 L689.58,462 " fill="#FEFFDD" style="stroke:#181818;stroke-width:0.5;"/><path d="M749.58,462 L749.58,472 L759.58,472 L749.58,462 " fill="#FEFFDD" style="stroke:#181818;stroke-width:0.5;"/><text fill="#000000" font-family="sans-serif" font-size="13" lengthAdjust="spacing" textLength="49" x="695.58" y="479.5684">Guardar</text></g><!--link Menu_usuarios to Ver_usuario--><g id="link_Menu_usuarios_Ver_usuario"><path d="M555.81,404.76 C472.55,408.51 339.49,420.26 308.5,457 C292.83,475.57 302.4716,497.5454 316.3516,516.8854 " fill="none" id="Menu_usuarios-to-Ver_usuario" style="stroke:#181818;stroke-width:1.0;"/><polygon fill="#181818" points="319.85,521.76,317.8521,512.1159,316.9347,517.6979,311.3527,516.7804,319.85,521.76" style="stroke:#181818;stroke-width:1.0;"/><path d="M313.5,462 L313.5,487 L385.5,487 L385.5,472 L375.5,462 L313.5,462 " fill="#FEFFDD" style="stroke:#181818;stroke-width:0.5;"/><path d="M375.5,462 L375.5,472 L385.5,472 L375.5,462 " fill="#FEFFDD" style="stroke:#181818;stroke-width:0.5;"/><text fill="#000000" font-family="sans-serif" font-size="13" lengthAdjust="spacing" textLength="51" x="319.5" y="479.5684">Ver lista</text></g><!--link Ver_usuario to Menu_usuarios--><g id="link_Ver_usuario_Menu_usuarios"><path d="M367.07,521.58 C389.69,501.87 423.79,474.61 457.5,457 C488.28,440.91 519.002,430.0923 550.002,421.2123 " fill="none" id="Ver_usuario-to-Menu_usuarios" style="stroke:#181818;stroke-width:1.0;"/><polygon fill="#181818" points="555.77,419.56,546.0165,418.193,550.9633,420.9369,548.2195,425.8837,555.77,419.56" style="stroke:#181818;stroke-width:1.0;"/><path d="M462.5,462 L462.5,487 L510.5,487 L510.5,472 L500.5,462 L462.5,462 " fill="#FEFFDD" style="stroke:#181818;stroke-width:0.5;"/><path d="M500.5,462 L500.5,472 L510.5,472 L500.5,462 " fill="#FEFFDD" style="stroke:#181818;stroke-width:0.5;"/><text fill="#000000" font-family="sans-serif" font-size="13" lengthAdjust="spacing" textLength="27" x="468.5" y="479.5684">Salir</text></g><!--link Menu_usuarios to Eliminar_usuario--><g id="link_Menu_usuarios_Eliminar_usuario"><path d="M693.2,424.59 C718.62,433.48 747.35,444.6 772.5,457 C810.47,475.72 846.0759,498.8617 873.6959,518.0917 " fill="none" id="Menu_usuarios-to-Eliminar_usuario" style="stroke:#181818;stroke-width:1.0;"/><polygon fill="#181818" points="878.62,521.52,873.5194,513.0948,874.5166,518.6631,868.9483,519.6602,878.62,521.52" style="stroke:#181818;stroke-width:1.0;"/><path d="M836.9,462 L836.9,487 L945.9,487 L945.9,472 L935.9,462 L836.9,462 " fill="#FEFFDD" style="stroke:#181818;stroke-width:0.5;"/><path d="M935.9,462 L935.9,472 L945.9,472 L935.9,462 " fill="#FEFFDD" style="stroke:#181818;stroke-width:0.5;"/><text fill="#000000" font-family="sans-serif" font-size="13" lengthAdjust="spacing" textLength="88" x="842.9" y="479.5684">Borrar usuario</text></g><!--link Eliminar_usuario to Menu_usuarios--><g id="link_Eliminar_usuario_Menu_usuarios"><path d="M939.8,521.54 C957.68,502.56 974.96,476.34 958.5,457 C925.13,417.81 786.9166,407.1711 699.2666,404.2311 " fill="none" id="Eliminar_usuario-to-Menu_usuarios" style="stroke:#181818;stroke-width:1.0;"/><polygon fill="#181818" points="693.27,404.03,702.1308,408.3295,698.2672,404.1976,702.399,400.334,693.27,404.03" style="stroke:#181818;stroke-width:1.0;"/><path d="M970.12,462 L970.12,487 L1040.12,487 L1040.12,472 L1030.12,462 L970.12,462 " fill="#FEFFDD" style="stroke:#181818;stroke-width:0.5;"/><path d="M1030.12,462 L1030.12,472 L1040.12,472 L1030.12,462 " fill="#FEFFDD" style="stroke:#181818;stroke-width:0.5;"/><text fill="#000000" font-family="sans-serif" font-size="13" lengthAdjust="spacing" textLength="49" x="976.12" y="479.5684">Guardar</text></g><!--link Menu to Menu_administrador--><g id="link_Menu_Menu_administrador"><path d="M1054.24,282.4 C1066.67,334.35 1096.36,454.24 1114.5,492 C1140.65,546.44 1180.8246,597.4265 1207.0646,628.1665 " fill="none" id="Menu-to-Menu_administrador" style="stroke:#181818;stroke-width:1.0;"/><polygon fill="#181818" points="1210.96,632.73,1208.1592,623.2878,1207.7138,628.9271,1202.0745,628.4817,1210.96,632.73" style="stroke:#181818;stroke-width:1.0;"/><path d="M1119.5,462 L1119.5,487 L1299.5,487 L1299.5,472 L1289.5,462 L1119.5,462 " fill="#FEFFDD" style="stroke:#181818;stroke-width:0.5;"/><path d="M1289.5,462 L1289.5,472 L1299.5,472 L1289.5,462 " fill="#FEFFDD" style="stroke:#181818;stroke-width:0.5;"/><text fill="#000000" font-family="sans-serif" font-size="13" lengthAdjust="spacing" textLength="159" x="1125.5" y="479.5684">Gesti&#243;n de administrador</text></g><!--link Menu_administrador to Menu--><g id="link_Menu_administrador_Menu"><path d="M1254.59,632.67 C1286.54,594.37 1338.68,518.11 1308.5,457 C1266.4,371.76 1173.7283,315.5789 1110.7983,285.0489 " fill="none" id="Menu_administrador-to-Menu" style="stroke:#181818;stroke-width:1.0;"/><polygon fill="#181818" points="1105.4,282.43,1111.7514,289.9572,1109.8986,284.6124,1115.2433,282.7595,1105.4,282.43" style="stroke:#181818;stroke-width:1.0;"/><path d="M1322.42,462 L1322.42,487 L1370.42,487 L1370.42,472 L1360.42,462 L1322.42,462 " fill="#FEFFDD" style="stroke:#181818;stroke-width:0.5;"/><path d="M1360.42,462 L1360.42,472 L1370.42,472 L1360.42,462 " fill="#FEFFDD" style="stroke:#181818;stroke-width:0.5;"/><text fill="#000000" font-family="sans-serif" font-size="13" lengthAdjust="spacing" textLength="27" x="1328.42" y="479.5684">Salir</text></g><!--link Menu_administrador to Crear_test--><g id="link_Menu_administrador_Crear_test"><path d="M1140.66,659.84 C872.2,662.75 105.34,674.41 68.5,713 C39.18,743.7 88.7972,768.5458 135.1572,784.5158 " fill="none" id="Menu_administrador-to-Crear_test" style="stroke:#181818;stroke-width:1.0;"/><polygon fill="#181818" points="140.83,786.47,133.6235,779.7568,136.1026,784.8415,131.0179,787.3206,140.83,786.47" style="stroke:#181818;stroke-width:1.0;"/><path d="M73.5,718 L73.5,743 L195.5,743 L195.5,728 L185.5,718 L73.5,718 " fill="#FEFFDD" style="stroke:#181818;stroke-width:0.5;"/><path d="M185.5,718 L185.5,728 L195.5,728 L185.5,718 " fill="#FEFFDD" style="stroke:#181818;stroke-width:0.5;"/><text fill="#000000" font-family="sans-serif" font-size="13" lengthAdjust="spacing" textLength="101" x="79.5" y="735.5684">Insertar registro</text></g><!--link Crear_test to Menu_administrador--><g id="link_Crear_test_Menu_administrador"><path d="M206.45,777.52 C218.25,756.34 238.45,726.96 265.5,713 C341.93,673.54 908.0005,662.7336 1134.5305,659.9536 " fill="none" id="Crear_test-to-Menu_administrador" style="stroke:#181818;stroke-width:1.0;"/><polygon fill="#181818" points="1140.53,659.88,1131.4816,655.9907,1135.5304,659.9414,1131.5798,663.9901,1140.53,659.88" style="stroke:#181818;stroke-width:1.0;"/><path d="M270.5,718 L270.5,743 L340.5,743 L340.5,728 L330.5,718 L270.5,718 " fill="#FEFFDD" style="stroke:#181818;stroke-width:0.5;"/><path d="M330.5,718 L330.5,728 L340.5,728 L330.5,718 " fill="#FEFFDD" style="stroke:#181818;stroke-width:0.5;"/><text fill="#000000" font-family="sans-serif" font-size="13" lengthAdjust="spacing" textLength="49" x="276.5" y="735.5684">Guardar</text></g><!--link Menu_administrador to Editar_test--><g id="link_Menu_administrador_Editar_test"><path d="M1140.55,659.87 C969.8,662.45 617.64,672.65 580.5,713 C569.96,724.44 573.2,734.26 580.5,748 C586.87,759.99 592.3027,766.3519 603.4727,774.1619 " fill="none" id="Menu_administrador-to-Editar_test" style="stroke:#181818;stroke-width:1.0;"/><polygon fill="#181818" points="608.39,777.6,603.3062,769.1647,604.2923,774.7349,598.722,775.721,608.39,777.6" style="stroke:#181818;stroke-width:1.0;"/><path d="M585.5,718 L585.5,743 L722.5,743 L722.5,728 L712.5,718 L585.5,718 " fill="#FEFFDD" style="stroke:#181818;stroke-width:0.5;"/><path d="M712.5,718 L712.5,728 L722.5,728 L712.5,718 " fill="#FEFFDD" style="stroke:#181818;stroke-width:0.5;"/><text fill="#000000" font-family="sans-serif" font-size="13" lengthAdjust="spacing" textLength="116" x="591.5" y="735.5684">Actualizar registro</text></g><!--link Editar_test to Menu_administrador--><g id="link_Editar_test_Menu_administrador"><path d="M692.93,777.55 C724.82,753.98 771.66,720.79 792.5,713 C854.32,689.9 1024.7971,673.9625 1134.5471,665.6625 " fill="none" id="Editar_test-to-Menu_administrador" style="stroke:#181818;stroke-width:1.0;"/><polygon fill="#181818" points="1140.53,665.21,1131.254,661.9001,1135.5442,665.5871,1131.8573,669.8773,1140.53,665.21" style="stroke:#181818;stroke-width:1.0;"/><path d="M797.5,718 L797.5,743 L867.5,743 L867.5,728 L857.5,718 L797.5,718 " fill="#FEFFDD" style="stroke:#181818;stroke-width:0.5;"/><path d="M857.5,718 L857.5,728 L867.5,728 L857.5,718 " fill="#FEFFDD" style="stroke:#181818;stroke-width:0.5;"/><text fill="#000000" font-family="sans-serif" font-size="13" lengthAdjust="spacing" textLength="49" x="803.5" y="735.5684">Guardar</text></g><!--link Menu_administrador to Ver_test--><g id="link_Menu_administrador_Ver_test"><path d="M1140.85,661.33 C922.35,667.35 386.92,684.89 360.5,713 C342.87,731.76 356.8552,754.2318 375.2852,773.5218 " fill="none" id="Menu_administrador-to-Ver_test" style="stroke:#181818;stroke-width:1.0;"/><polygon fill="#181818" points="379.43,777.86,376.1049,768.5894,375.976,774.2448,370.3206,774.1159,379.43,777.86" style="stroke:#181818;stroke-width:1.0;"/><path d="M365.5,718 L365.5,743 L437.5,743 L437.5,728 L427.5,718 L365.5,718 " fill="#FEFFDD" style="stroke:#181818;stroke-width:0.5;"/><path d="M427.5,718 L427.5,728 L437.5,728 L427.5,718 " fill="#FEFFDD" style="stroke:#181818;stroke-width:0.5;"/><text fill="#000000" font-family="sans-serif" font-size="13" lengthAdjust="spacing" textLength="51" x="371.5" y="735.5684">Ver lista</text></g><!--link Ver_test to Menu_administrador--><g id="link_Ver_test_Menu_administrador"><path d="M426.02,777.52 C444.51,756.33 474.32,726.96 507.5,713 C619.32,665.94 966.07,659.1274 1134.82,658.6374 " fill="none" id="Ver_test-to-Menu_administrador" style="stroke:#181818;stroke-width:1.0;"/><polygon fill="#181818" points="1140.82,658.62,1131.8084,654.6462,1135.82,658.6345,1131.8317,662.6461,1140.82,658.62" style="stroke:#181818;stroke-width:1.0;"/><path d="M512.5,718 L512.5,743 L560.5,743 L560.5,728 L550.5,718 L512.5,718 " fill="#FEFFDD" style="stroke:#181818;stroke-width:0.5;"/><path d="M550.5,718 L550.5,728 L560.5,728 L550.5,718 " fill="#FEFFDD" style="stroke:#181818;stroke-width:0.5;"/><text fill="#000000" font-family="sans-serif" font-size="13" lengthAdjust="spacing" textLength="27" x="518.5" y="735.5684">Salir</text></g><!--link Menu_administrador to Eliminar_test--><g id="link_Menu_administrador_Eliminar_test"><path d="M1140.87,660.37 C1049.9,663.9 919.52,675.57 887.5,713 C871.5,731.69 882.344,753.565 897.654,772.805 " fill="none" id="Menu_administrador-to-Eliminar_test" style="stroke:#181818;stroke-width:1.0;"/><polygon fill="#181818" points="901.39,777.5,898.916,767.9669,898.2767,773.5875,892.6561,772.9482,901.39,777.5" style="stroke:#181818;stroke-width:1.0;"/><path d="M892.5,718 L892.5,743 L978.5,743 L978.5,728 L968.5,718 L892.5,718 " fill="#FEFFDD" style="stroke:#181818;stroke-width:0.5;"/><path d="M968.5,718 L968.5,728 L978.5,728 L968.5,718 " fill="#FEFFDD" style="stroke:#181818;stroke-width:0.5;"/><text fill="#000000" font-family="sans-serif" font-size="13" lengthAdjust="spacing" textLength="65" x="898.5" y="735.5684">Borrar test</text></g><!--link Eliminar_test to Menu_administrador--><g id="link_Eliminar_test_Menu_administrador"><path d="M953.58,777.51 C978.29,757.75 1015.38,730.47 1051.5,713 C1079.39,699.5 1105.5918,690.2617 1134.8218,681.8917 " fill="none" id="Eliminar_test-to-Menu_administrador" style="stroke:#181818;stroke-width:1.0;"/><polygon fill="#181818" points="1140.59,680.24,1130.8366,678.8721,1135.7832,681.6164,1133.0389,686.563,1140.59,680.24" style="stroke:#181818;stroke-width:1.0;"/><path d="M1056.5,718 L1056.5,743 L1126.5,743 L1126.5,728 L1116.5,718 L1056.5,718 " fill="#FEFFDD" style="stroke:#181818;stroke-width:0.5;"/><path d="M1116.5,718 L1116.5,728 L1126.5,728 L1116.5,718 " fill="#FEFFDD" style="stroke:#181818;stroke-width:0.5;"/><text fill="#000000" font-family="sans-serif" font-size="13" lengthAdjust="spacing" textLength="49" x="1062.5" y="735.5684">Guardar</text></g><!--link Menu_administrador to Crear_capacitaci?n--><g id="link_Menu_administrador_Crear_capacitaci&#243;n"><path d="M1172.82,683.5 C1161.1,691.16 1150.32,700.87 1143.5,713 C1131.33,734.62 1143.0671,755.2157 1159.5471,773.2057 " fill="none" id="Menu_administrador-to-Crear_capacitaci&#243;n" style="stroke:#181818;stroke-width:1.0;"/><polygon fill="#181818" points="1163.6,777.63,1160.4702,768.2917,1160.2226,773.9431,1154.5711,773.6956,1163.6,777.63" style="stroke:#181818;stroke-width:1.0;"/><path d="M1148.5,718 L1148.5,743 L1270.5,743 L1270.5,728 L1260.5,718 L1148.5,718 " fill="#FEFFDD" style="stroke:#181818;stroke-width:0.5;"/><path d="M1260.5,718 L1260.5,728 L1270.5,728 L1260.5,718 " fill="#FEFFDD" style="stroke:#181818;stroke-width:0.5;"/><text fill="#000000" font-family="sans-serif" font-size="13" lengthAdjust="spacing" textLength="101" x="1154.5" y="735.5684">Insertar registro</text></g><!--link Crear_capacitaci?n to Menu_administrador--><g id="link_Crear_capacitaci&#243;n_Menu_administrador"><path d="M1250.17,777.5 C1261.9,769.84 1272.67,760.13 1279.5,748 C1291.67,726.38 1279.9329,705.7843 1263.4529,687.7943 " fill="none" id="Crear_capacitaci&#243;n-to-Menu_administrador" style="stroke:#181818;stroke-width:1.0;"/><polygon fill="#181818" points="1259.4,683.37,1262.5298,692.7083,1262.7774,687.0569,1268.4289,687.3044,1259.4,683.37" style="stroke:#181818;stroke-width:1.0;"/><path d="M1288.81,718 L1288.81,743 L1358.81,743 L1358.81,728 L1348.81,718 L1288.81,718 " fill="#FEFFDD" style="stroke:#181818;stroke-width:0.5;"/><path d="M1348.81,718 L1348.81,728 L1358.81,728 L1348.81,718 " fill="#FEFFDD" style="stroke:#181818;stroke-width:0.5;"/><text fill="#000000" font-family="sans-serif" font-size="13" lengthAdjust="spacing" textLength="49" x="1294.81" y="735.5684">Guardar</text></g><!--link Menu_administrador to Editar_capacitaci?n--><g id="link_Menu_administrador_Editar_capacitaci&#243;n"><path d="M1324.17,665.58 C1393.05,672.44 1488.97,686.15 1569.5,713 C1617.16,728.89 1662.4776,753.9994 1695.7176,774.4194 " fill="none" id="Menu_administrador-to-Editar_capacitaci&#243;n" style="stroke:#181818;stroke-width:1.0;"/><polygon fill="#181818" points="1700.83,777.56,1695.2552,769.4408,1696.5697,774.9428,1691.0677,776.2573,1700.83,777.56" style="stroke:#181818;stroke-width:1.0;"/><path d="M1651.09,718 L1651.09,743 L1788.09,743 L1788.09,728 L1778.09,718 L1651.09,718 " fill="#FEFFDD" style="stroke:#181818;stroke-width:0.5;"/><path d="M1778.09,718 L1778.09,728 L1788.09,728 L1778.09,718 " fill="#FEFFDD" style="stroke:#181818;stroke-width:0.5;"/><text fill="#000000" font-family="sans-serif" font-size="13" lengthAdjust="spacing" textLength="116" x="1657.09" y="735.5684">Actualizar registro</text></g><!--link Editar_capacitaci?n to Menu_administrador--><g id="link_Editar_capacitaci&#243;n_Menu_administrador"><path d="M1774.18,777.77 C1797.3,759.16 1819.97,733.31 1801.5,713 C1770.07,678.45 1483.1775,665.6835 1330.3575,661.2635 " fill="none" id="Editar_capacitaci&#243;n-to-Menu_administrador" style="stroke:#181818;stroke-width:1.0;"/><polygon fill="#181818" points="1324.36,661.09,1333.2406,665.3485,1329.3579,661.2346,1333.4719,657.3519,1324.36,661.09" style="stroke:#181818;stroke-width:1.0;"/><path d="M1813.27,718 L1813.27,743 L1883.27,743 L1883.27,728 L1873.27,718 L1813.27,718 " fill="#FEFFDD" style="stroke:#181818;stroke-width:0.5;"/><path d="M1873.27,718 L1873.27,728 L1883.27,728 L1873.27,718 " fill="#FEFFDD" style="stroke:#181818;stroke-width:0.5;"/><text fill="#000000" font-family="sans-serif" font-size="13" lengthAdjust="spacing" textLength="49" x="1819.27" y="735.5684">Guardar</text></g><!--link Menu_administrador to Ver_capacitaci?n--><g id="link_Menu_administrador_Ver_capacitaci&#243;n"><path d="M1315.79,683.47 C1335.06,691.21 1354.79,700.98 1371.5,713 C1395.8,730.49 1413.5147,752.8026 1426.8947,772.5526 " fill="none" id="Menu_administrador-to-Ver_capacitaci&#243;n" style="stroke:#181818;stroke-width:1.0;"/><polygon fill="#181818" points="1430.26,777.52,1428.5237,767.8254,1427.4556,773.3805,1421.9005,772.3124,1430.26,777.52" style="stroke:#181818;stroke-width:1.0;"/><path d="M1412.91,718 L1412.91,743 L1484.91,743 L1484.91,728 L1474.91,718 L1412.91,718 " fill="#FEFFDD" style="stroke:#181818;stroke-width:0.5;"/><path d="M1474.91,718 L1474.91,728 L1484.91,728 L1474.91,718 " fill="#FEFFDD" style="stroke:#181818;stroke-width:0.5;"/><text fill="#000000" font-family="sans-serif" font-size="13" lengthAdjust="spacing" textLength="51" x="1418.91" y="735.5684">Ver lista</text></g><!--link Ver_capacitaci?n to Menu_administrador--><g id="link_Ver_capacitaci&#243;n_Menu_administrador"><path d="M1475.61,777.65 C1495.05,758.98 1513.91,733.1 1497.5,713 C1475.7,686.32 1397.7886,673.0933 1330.1486,666.1433 " fill="none" id="Ver_capacitaci&#243;n-to-Menu_administrador" style="stroke:#181818;stroke-width:1.0;"/><polygon fill="#181818" points="1324.18,665.53,1332.724,670.429,1329.1538,666.0411,1333.5417,662.4709,1324.18,665.53" style="stroke:#181818;stroke-width:1.0;"/><path d="M1508.74,718 L1508.74,743 L1556.74,743 L1556.74,728 L1546.74,718 L1508.74,718 " fill="#FEFFDD" style="stroke:#181818;stroke-width:0.5;"/><path d="M1546.74,718 L1546.74,728 L1556.74,728 L1546.74,718 " fill="#FEFFDD" style="stroke:#181818;stroke-width:0.5;"/><text fill="#000000" font-family="sans-serif" font-size="13" lengthAdjust="spacing" textLength="27" x="1514.74" y="735.5684">Salir</text></g><!--link Menu_administrador to Eliminar_capacitaci?n--><g id="link_Menu_administrador_Eliminar_capacitaci&#243;n"><path d="M1324.38,661.3 C1480.94,666.08 1792.59,679.57 1896.5,713 C1919.54,720.42 1967.4027,750.5944 2003.3027,774.2944 " fill="none" id="Menu_administrador-to-Eliminar_capacitaci&#243;n" style="stroke:#181818;stroke-width:1.0;"/><polygon fill="#181818" points="2008.31,777.6,2003.0028,769.3034,2004.1373,774.8453,1998.5953,775.9797,2008.31,777.6" style="stroke:#181818;stroke-width:1.0;"/><path d="M1965.38,718 L1965.38,743 L2106.38,743 L2106.38,728 L2096.38,718 L1965.38,718 " fill="#FEFFDD" style="stroke:#181818;stroke-width:0.5;"/><path d="M2096.38,718 L2096.38,728 L2106.38,728 L2096.38,718 " fill="#FEFFDD" style="stroke:#181818;stroke-width:0.5;"/><text fill="#000000" font-family="sans-serif" font-size="13" lengthAdjust="spacing" textLength="120" x="1971.38" y="735.5684">Borrar capacitaci&#243;n</text></g><!--link Eliminar_capacitaci?n to Menu_administrador--><g id="link_Eliminar_capacitaci&#243;n_Menu_administrador"><path d="M2085.78,777.64 C2111.83,759.32 2137.15,733.89 2117.5,713 C2090.62,684.43 1551.2579,667.2793 1330.2779,661.4093 " fill="none" id="Eliminar_capacitaci&#243;n-to-Menu_administrador" style="stroke:#181818;stroke-width:1.0;"/><polygon fill="#181818" points="1324.28,661.25,1333.1706,665.4876,1329.2782,661.3828,1333.383,657.4904,1324.28,661.25" style="stroke:#181818;stroke-width:1.0;"/><path d="M2129.49,718 L2129.49,743 L2199.49,743 L2199.49,728 L2189.49,718 L2129.49,718 " fill="#FEFFDD" style="stroke:#181818;stroke-width:0.5;"/><path d="M2189.49,718 L2189.49,728 L2199.49,728 L2189.49,718 " fill="#FEFFDD" style="stroke:#181818;stroke-width:0.5;"/><text fill="#000000" font-family="sans-serif" font-size="13" lengthAdjust="spacing" textLength="49" x="2135.49" y="735.5684">Guardar</text></g><!--link Menu_administrador to Consultar_estad?sticas--><g id="link_Menu_administrador_Consultar_estad&#237;sticas"><path d="M1324.12,658.48 C1534.81,658.17 2048.22,662.77 2212.5,713 C2218.49,714.83 2274.6003,748.8013 2316.6703,774.5113 " fill="none" id="Menu_administrador-to-Consultar_estad&#237;sticas" style="stroke:#181818;stroke-width:1.0;"/><polygon fill="#181818" points="2321.79,777.64,2316.1963,769.5338,2317.5236,775.0327,2312.0247,776.36,2321.79,777.64" style="stroke:#181818;stroke-width:1.0;"/><path d="M2273.93,718 L2273.93,743 L2393.93,743 L2393.93,728 L2383.93,718 L2273.93,718 " fill="#FEFFDD" style="stroke:#181818;stroke-width:0.5;"/><path d="M2383.93,718 L2383.93,728 L2393.93,728 L2383.93,718 " fill="#FEFFDD" style="stroke:#181818;stroke-width:0.5;"/><text fill="#000000" font-family="sans-serif" font-size="13" lengthAdjust="spacing" textLength="99" x="2279.93" y="735.5684">Ver estad&#237;sticas</text></g><!--link Consultar_estad?sticas to Menu_administrador--><g id="link_Consultar_estad&#237;sticas_Menu_administrador"><path d="M2388.22,777.74 C2406.39,758.38 2424.2,731.53 2406.5,713 C2369.28,674.04 1600.0597,662.6725 1330.1597,659.8625 " fill="none" id="Consultar_estad&#237;sticas-to-Menu_administrador" style="stroke:#181818;stroke-width:1.0;"/><polygon fill="#181818" points="1324.16,659.8,1333.1179,663.8935,1329.1597,659.8521,1333.2012,655.8939,1324.16,659.8" style="stroke:#181818;stroke-width:1.0;"/><path d="M2418.78,718 L2418.78,743 L2466.78,743 L2466.78,728 L2456.78,718 L2418.78,718 " fill="#FEFFDD" style="stroke:#181818;stroke-width:0.5;"/><path d="M2456.78,718 L2456.78,728 L2466.78,728 L2456.78,718 " fill="#FEFFDD" style="stroke:#181818;stroke-width:0.5;"/><text fill="#000000" font-family="sans-serif" font-size="13" lengthAdjust="spacing" textLength="27" x="2424.78" y="735.5684">Salir</text></g><!--SRC=[lLPBRjim4Dth54IM1NA502mj10HisT0dcw8m28b8YRfIGKgRtg6hd2Eh7i4Nwr2_aA9aot9iRWIGRnxV3D-8L2KhENe8jdkSn7uGKu9NsmV450eAN9K_FDK0DdwGx7SX3GZTuNKDsF2yifQJAC4XtKRzwhvI5PEYK1OChpOqe54SmaxX1vPblqGkL2bPLiWkW8G-3ZlY6aiaPx8Zxc0llWrwuGx4Nz5uGELdedIv_3K5VKFeGO0w5zpeY_qeDiILN9McidvPop8NMqtzUYl8WdHgFa2T51FMw21uXmbG4dfy2mn1AVlDKg1EnV5VRYfp0xJ4KNYhrOreHOy7TUf7mheqHWF9DeYIjTuGqiQhuzz8ExDn5YboLHtqdb00bXtVLIbIfZmOtxvyHu-FJvrtlUPRJzLkHJ3o0ZOeSdGG-SzwGW-QYrGmYHHNjGmzn_Ei1dkUZZLv9sa8b_8yYzqQasJFa9uee4J8mjg4FS-C92Ds4F8iXzrW9ogck8H3G9A_wguj1iGMpKLf0o1ZvtKEkdUI3wTb1Od_cPPgCzr2g_a_cYG344o0fGTqHl0bskQTjlDZc-JxMjJUDd562GSqdrD4OEbvxElXTDD0xw6C8pTaK0aBO6oseAX3gYVpBhYoYJG7khWGqzPqjPeNp_MDT7kz_KMwg9aMwRlWvEqR-bn3zQ2HRhfz9SSU25VQrIAxYszdofzju3jcuBwt5bdwEiLBl3rJT6jo5ptYzZkMVUeDURBuBjIm_ZZXPnp5Vm00]--></g></svg>