<?xml version="1.0" encoding="us-ascii" standalone="no"?><svg xmlns="http://www.w3.org/2000/svg" xmlns:xlink="http://www.w3.org/1999/xlink" contentStyleType="text/css" height="337px" preserveAspectRatio="none" style="width:1030px;height:337px;background:#FFFFFF;" version="1.1" viewBox="0 0 1030 337" width="1030px" zoomAndPan="magnify"><defs/><g><g id="MenuPrincipal"><rect fill="#F1F1F1" height="50" rx="12.5" ry="12.5" style="stroke:#181818;stroke-width:0.5;" width="137" x="394.82" y="136"/><line style="stroke:#181818;stroke-width:0.5;" x1="394.82" x2="531.82" y1="162.4883" y2="162.4883"/><text fill="#000000" font-family="sans-serif" font-size="14" lengthAdjust="spacing" textLength="117" x="404.82" y="154.5352">MENU_PRINCIPAL</text></g><g id="ListandoMensaje"><rect fill="#F1F1F1" height="50" rx="12.5" ry="12.5" style="stroke:#181818;stroke-width:0.5;" width="164" x="22.32" y="281"/><line style="stroke:#181818;stroke-width:0.5;" x1="22.32" x2="186.32" y1="307.4883" y2="307.4883"/><text fill="#000000" font-family="sans-serif" font-size="14" lengthAdjust="spacing" textLength="144" x="32.32" y="299.5352">LISTANDO_MENSAJES</text></g><g id="Grupos"><rect fill="#F1F1F1" height="50" rx="12.5" ry="12.5" style="stroke:#181818;stroke-width:0.5;" width="152" x="387.32" y="281"/><line style="stroke:#181818;stroke-width:0.5;" x1="387.32" x2="539.32" y1="307.4883" y2="307.4883"/><text fill="#000000" font-family="sans-serif" font-size="14" lengthAdjust="spacing" textLength="132" x="397.32" y="299.5352">LISTANDO_GRUPOS</text></g><g id="Usuarios"><rect fill="#F1F1F1" height="50" rx="12.5" ry="12.5" style="stroke:#181818;stroke-width:0.5;" width="166" x="737.32" y="281"/><line style="stroke:#181818;stroke-width:0.5;" x1="737.32" x2="903.32" y1="307.4883" y2="307.4883"/><text fill="#000000" font-family="sans-serif" font-size="14" lengthAdjust="spacing" textLength="146" x="747.32" y="299.5352">LISTANDO_USUARIOS</text></g><ellipse cx="463.32" cy="16" fill="#222222" rx="10" ry="10" style="stroke:#222222;stroke-width:1.0;"/><ellipse cx="688.32" cy="161" fill="none" rx="11" ry="11" style="stroke:#222222;stroke-width:1.0;"/><ellipse cx="688.32" cy="161" fill="#222222" rx="6" ry="6" style="stroke:#222222;stroke-width:1.0;"/><!--link *start* to MenuPrincipal--><g id="link_*start*_MenuPrincipal"><path d="M463.32,26.38 C463.32,48.32 463.32,97.52 463.32,129.69 " fill="none" id="*start*-to-MenuPrincipal" style="stroke:#181818;stroke-width:1.0;"/><polygon fill="#181818" points="463.32,135.69,467.32,126.69,463.32,130.69,459.32,126.69,463.32,135.69" style="stroke:#181818;stroke-width:1.0;"/><path d="M468.32,61 L468.32,101 L568.32,101 L568.32,71 L558.32,61 L468.32,61 " fill="#FEFFDD" style="stroke:#181818;stroke-width:0.5;"/><path d="M558.32,61 L558.32,71 L568.32,71 L558.32,61 " fill="#FEFFDD" style="stroke:#181818;stroke-width:0.5;"/><text fill="#000000" font-family="sans-serif" font-size="13" lengthAdjust="spacing" textLength="48" x="474.32" y="78.5684">Usuario</text><text fill="#000000" font-family="sans-serif" font-size="13" lengthAdjust="spacing" textLength="79" x="474.32" y="93.8789">inicia sesi&#243;n</text></g><!--link MenuPrincipal to *end*--><g id="link_MenuPrincipal_*end*"><path d="M532.05,161 C584,161 644.71,161 670.97,161 " fill="none" id="MenuPrincipal-to-*end*" style="stroke:#181818;stroke-width:1.0;"/><polygon fill="#181818" points="676.97,161,667.97,157,671.97,161,667.97,165,676.97,161" style="stroke:#181818;stroke-width:1.0;"/><path d="M554.07,113 L554.07,153 L655.07,153 L655.07,123 L645.07,113 L554.07,113 " fill="#FEFFDD" style="stroke:#181818;stroke-width:0.5;"/><path d="M645.07,113 L645.07,123 L655.07,123 L645.07,113 " fill="#FEFFDD" style="stroke:#181818;stroke-width:0.5;"/><text fill="#000000" font-family="sans-serif" font-size="13" lengthAdjust="spacing" textLength="48" x="560.07" y="130.5684">Usuario</text><text fill="#000000" font-family="sans-serif" font-size="13" lengthAdjust="spacing" textLength="80" x="560.07" y="145.8789">cierra sesi&#243;n</text></g><!--link MenuPrincipal to ListandoMensaje--><g id="link_MenuPrincipal_ListandoMensaje"><path d="M394.42,165.38 C275.24,171.93 40.95,188.22 16.32,216 C6,227.64 8.72,237.43 16.32,251 C23.15,263.2 28.959,269.6952 40.729,277.3952 " fill="none" id="MenuPrincipal-to-ListandoMensaje" style="stroke:#181818;stroke-width:1.0;"/><polygon fill="#181818" points="45.75,280.68,40.4084,272.4055,41.5658,277.9427,36.0287,279.1002,45.75,280.68" style="stroke:#181818;stroke-width:1.0;"/><path d="M21.32,221 L21.32,246 L140.32,246 L140.32,231 L130.32,221 L21.32,221 " fill="#FEFFDD" style="stroke:#181818;stroke-width:0.5;"/><path d="M130.32,221 L130.32,231 L140.32,231 L130.32,221 " fill="#FEFFDD" style="stroke:#181818;stroke-width:0.5;"/><text fill="#000000" font-family="sans-serif" font-size="13" lengthAdjust="spacing" textLength="98" x="27.32" y="238.5684">Listar mensajes</text></g><!--link ListandoMensaje to MenuPrincipal--><g id="link_ListandoMensaje_MenuPrincipal"><path d="M126.85,280.83 C147.23,260.44 179.07,232.08 212.32,216 C270.1,188.05 336.3368,175.2081 388.4568,168.6581 " fill="none" id="ListandoMensaje-to-MenuPrincipal" style="stroke:#181818;stroke-width:1.0;"/><polygon fill="#181818" points="394.41,167.91,384.9815,165.0634,389.449,168.5335,385.979,173.001,394.41,167.91" style="stroke:#181818;stroke-width:1.0;"/><path d="M217.32,221 L217.32,246 L365.32,246 L365.32,231 L355.32,221 L217.32,221 " fill="#FEFFDD" style="stroke:#181818;stroke-width:0.5;"/><path d="M355.32,221 L355.32,231 L365.32,231 L355.32,221 " fill="#FEFFDD" style="stroke:#181818;stroke-width:0.5;"/><text fill="#000000" font-family="sans-serif" font-size="13" lengthAdjust="spacing" textLength="127" x="223.32" y="238.5684">Abrir Men&#250; Principal</text></g><!--link MenuPrincipal to Grupos--><g id="link_MenuPrincipal_Grupos"><path d="M411.21,186.4 C400.04,194.21 389.69,204.01 383.32,216 C376.02,229.74 376.02,237.26 383.32,251 C389.69,262.99 395.1227,269.3519 406.2927,277.1619 " fill="none" id="MenuPrincipal-to-Grupos" style="stroke:#181818;stroke-width:1.0;"/><polygon fill="#181818" points="411.21,280.6,406.1262,272.1647,407.1123,277.7349,401.542,278.721,411.21,280.6" style="stroke:#181818;stroke-width:1.0;"/><path d="M388.32,221 L388.32,246 L492.32,246 L492.32,231 L482.32,221 L388.32,221 " fill="#FEFFDD" style="stroke:#181818;stroke-width:0.5;"/><path d="M482.32,221 L482.32,231 L492.32,231 L482.32,221 " fill="#FEFFDD" style="stroke:#181818;stroke-width:0.5;"/><text fill="#000000" font-family="sans-serif" font-size="13" lengthAdjust="spacing" textLength="83" x="394.32" y="238.5684">Listar grupos</text></g><!--link Grupos to MenuPrincipal--><g id="link_Grupos_MenuPrincipal"><path d="M485.2,280.65 C491.69,271.92 497.96,261.6 501.32,251 C506.01,236.17 506.01,230.83 501.32,216 C497.96,205.4 495.2697,199.8952 488.7797,191.1652 " fill="none" id="Grupos-to-MenuPrincipal" style="stroke:#181818;stroke-width:1.0;"/><polygon fill="#181818" points="485.2,186.35,487.3594,195.9592,488.1831,190.3627,493.7796,191.1863,485.2,186.35" style="stroke:#181818;stroke-width:1.0;"/><path d="M509.84,221 L509.84,246 L657.84,246 L657.84,231 L647.84,221 L509.84,221 " fill="#FEFFDD" style="stroke:#181818;stroke-width:0.5;"/><path d="M647.84,221 L647.84,231 L657.84,231 L647.84,221 " fill="#FEFFDD" style="stroke:#181818;stroke-width:0.5;"/><text fill="#000000" font-family="sans-serif" font-size="13" lengthAdjust="spacing" textLength="127" x="515.84" y="238.5684">Abrir Men&#250; Principal</text></g><!--link MenuPrincipal to Usuarios--><g id="link_MenuPrincipal_Usuarios"><path d="M531.89,174.66 C573.23,183.54 626.4,197.21 671.32,216 C693.49,225.27 740.8007,254.3302 777.1407,277.3402 " fill="none" id="MenuPrincipal-to-Usuarios" style="stroke:#181818;stroke-width:1.0;"/><polygon fill="#181818" points="782.21,280.55,776.746,272.3558,777.9856,277.8752,772.4663,279.1148,782.21,280.55" style="stroke:#181818;stroke-width:1.0;"/><path d="M736.09,221 L736.09,246 L850.09,246 L850.09,231 L840.09,221 L736.09,221 " fill="#FEFFDD" style="stroke:#181818;stroke-width:0.5;"/><path d="M840.09,221 L840.09,231 L850.09,231 L840.09,221 " fill="#FEFFDD" style="stroke:#181818;stroke-width:0.5;"/><text fill="#000000" font-family="sans-serif" font-size="13" lengthAdjust="spacing" textLength="93" x="742.09" y="238.5684">Listar usuarios</text></g><!--link Usuarios to MenuPrincipal--><g id="link_Usuarios_MenuPrincipal"><path d="M846.1,280.67 C863.28,261.52 879.92,234.99 863.32,216 C860.61,212.9 651.5419,185.918 537.9219,171.448 " fill="none" id="Usuarios-to-MenuPrincipal" style="stroke:#181818;stroke-width:1.0;"/><polygon fill="#181818" points="531.97,170.69,540.3926,175.795,536.9299,171.3217,541.4032,167.8591,531.97,170.69" style="stroke:#181818;stroke-width:1.0;"/><path d="M875.16,221 L875.16,246 L1023.16,246 L1023.16,231 L1013.16,221 L875.16,221 " fill="#FEFFDD" style="stroke:#181818;stroke-width:0.5;"/><path d="M1013.16,221 L1013.16,231 L1023.16,231 L1013.16,221 " fill="#FEFFDD" style="stroke:#181818;stroke-width:0.5;"/><text fill="#000000" font-family="sans-serif" font-size="13" lengthAdjust="spacing" textLength="127" x="881.16" y="238.5684">Abrir Men&#250; Principal</text></g><!--SRC=[jPB1Qi9048RlUOh1Oo6lK5XK92N6a7HFKcGR5vcg4zanJzPRhxwOaqrgQgHLmUvnyltV_Eo6zsPlOJ0T9tgHPb4oZ58L3y0mJ2rLgKCgS6Ss0JTS7EMlAXdD5XB8rSiuzsYCyfcMfKJOVDWBU9BfTDQW4rVjIhuWTAvL5hMCvieu52gOFxr163xtke0SAYLV4coGrdvGdpO8fm4I5cY0BUFXa_pOqjA7W-1C2h95jjtXBj0wTwDRvFqx-dMH1nri6uvxufxcdjjHxmvT3H- -u1p_gtVxODVghZgiipNP_-zu-c6kjQn-WftnE__OeaS0]--></g></svg>