<svg xmlns="http://www.w3.org/2000/svg" xmlns:xlink="http://www.w3.org/1999/xlink" contentStyleType="text/css" height="508px" preserveAspectRatio="none" style="width:944px;height:508px;background:#FFFFFF;" version="1.1" viewBox="0 0 944 508" width="944px" zoomAndPan="magnify"><title>Eliminar Grado</title><defs/><g><text fill="#000000" font-family="sans-serif" font-size="14" font-weight="bold" lengthAdjust="spacing" textLength="117.2227" x="411.9658" y="32.9951">Eliminar Grado</text><ellipse cx="475.3247" cy="57.2969" fill="#222222" rx="10" ry="10" style="stroke:#222222;stroke-width:1;"/><rect fill="#F1F1F1" height="33.9688" rx="12.5" ry="12.5" style="stroke:#181818;stroke-width:0.5;" width="350.791" x="299.9292" y="87.2969"/><text fill="#000000" font-family="sans-serif" font-size="12" lengthAdjust="spacing" textLength="330.791" x="309.9292" y="108.4355">El usuario solicita introducir la eliminaci&#243;n de un grado</text><rect fill="#F1F1F1" height="33.9688" rx="12.5" ry="12.5" style="stroke:#181818;stroke-width:0.5;" width="311.7031" x="319.4731" y="141.2656"/><text fill="#000000" font-family="sans-serif" font-size="12" lengthAdjust="spacing" textLength="291.7031" x="329.4731" y="162.4043">El sistema presenta la lista de grados existentes</text><rect fill="#F1F1F1" height="33.9688" rx="12.5" ry="12.5" style="stroke:#181818;stroke-width:0.5;" width="287.709" x="331.4702" y="195.2344"/><text fill="#000000" font-family="sans-serif" font-size="12" lengthAdjust="spacing" textLength="267.709" x="341.4702" y="216.373">El usuario selecciona un grado para eliminar</text><rect fill="#F1F1F1" height="33.9688" rx="12.5" ry="12.5" style="stroke:#181818;stroke-width:0.5;" width="447.8516" x="251.3989" y="249.2031"/><text fill="#000000" font-family="sans-serif" font-size="12" lengthAdjust="spacing" textLength="427.8516" x="261.3989" y="270.3418">El sistema permite la confirmaci&#243;n para eliminar el grado seleccionado</text><polygon fill="#F1F1F1" points="404.3618,303.1719,546.2876,303.1719,558.2876,315.1719,546.2876,327.1719,404.3618,327.1719,392.3618,315.1719,404.3618,303.1719" style="stroke:#181818;stroke-width:0.5;"/><text fill="#000000" font-family="sans-serif" font-size="11" lengthAdjust="spacing" textLength="141.9258" x="404.3618" y="318.98">&#191;Confirma la eliminaci&#243;n?</text><text fill="#000000" font-family="sans-serif" font-size="11" lengthAdjust="spacing" textLength="10.0386" x="382.3232" y="312.5776">S&#237;</text><text fill="#000000" font-family="sans-serif" font-size="11" lengthAdjust="spacing" textLength="14.9585" x="558.2876" y="312.5776">No</text><rect fill="#F1F1F1" height="33.9688" rx="12.5" ry="12.5" style="stroke:#181818;stroke-width:0.5;" width="337.6426" x="70.9648" y="337.1719"/><text fill="#000000" font-family="sans-serif" font-size="12" lengthAdjust="spacing" textLength="317.6426" x="80.9648" y="358.3105">El sistema elimina el grado seleccionado del sistema</text><rect fill="#F1F1F1" height="33.9688" rx="12.5" ry="12.5" style="stroke:#181818;stroke-width:0.5;" width="457.5723" x="11" y="391.1406"/><text fill="#000000" font-family="sans-serif" font-size="12" lengthAdjust="spacing" textLength="437.5723" x="21" y="412.2793">El sistema presenta una confirmaci&#243;n: "Grado eliminado correctamente"</text><rect fill="#F1F1F1" height="33.9688" rx="12.5" ry="12.5" style="stroke:#181818;stroke-width:0.5;" width="301.1035" x="560.3115" y="337.1719"/><text fill="#000000" font-family="sans-serif" font-size="12" lengthAdjust="spacing" textLength="281.1035" x="570.3115" y="358.3105">El sistema cancela la operaci&#243;n de eliminaci&#243;n</text><rect fill="#F1F1F1" height="33.9688" rx="12.5" ry="12.5" style="stroke:#181818;stroke-width:0.5;" width="444.582" x="488.5723" y="391.1406"/><text fill="#000000" font-family="sans-serif" font-size="12" lengthAdjust="spacing" textLength="424.582" x="498.5723" y="412.2793">El sistema presenta un mensaje: "Operaci&#243;n cancelada por el usuario"</text><polygon fill="#F1F1F1" points="475.3247,431.1094,487.3247,443.1094,475.3247,455.1094,463.3247,443.1094,475.3247,431.1094" style="stroke:#181818;stroke-width:0.5;"/><ellipse cx="475.3247" cy="486.1094" fill="none" rx="11" ry="11" style="stroke:#222222;stroke-width:1;"/><ellipse cx="475.3247" cy="486.1094" fill="#222222" rx="6" ry="6" style="stroke:#222222;stroke-width:1;"/><line style="stroke:#181818;stroke-width:1;" x1="475.3247" x2="475.3247" y1="67.2969" y2="87.2969"/><polygon fill="#181818" points="471.3247,77.2969,475.3247,87.2969,479.3247,77.2969,475.3247,81.2969" style="stroke:#181818;stroke-width:1;"/><line style="stroke:#181818;stroke-width:1;" x1="475.3247" x2="475.3247" y1="121.2656" y2="141.2656"/><polygon fill="#181818" points="471.3247,131.2656,475.3247,141.2656,479.3247,131.2656,475.3247,135.2656" style="stroke:#181818;stroke-width:1;"/><line style="stroke:#181818;stroke-width:1;" x1="475.3247" x2="475.3247" y1="175.2344" y2="195.2344"/><polygon fill="#181818" points="471.3247,185.2344,475.3247,195.2344,479.3247,185.2344,475.3247,189.2344" style="stroke:#181818;stroke-width:1;"/><line style="stroke:#181818;stroke-width:1;" x1="475.3247" x2="475.3247" y1="229.2031" y2="249.2031"/><polygon fill="#181818" points="471.3247,239.2031,475.3247,249.2031,479.3247,239.2031,475.3247,243.2031" style="stroke:#181818;stroke-width:1;"/><line style="stroke:#181818;stroke-width:1;" x1="239.7861" x2="239.7861" y1="371.1406" y2="391.1406"/><polygon fill="#181818" points="235.7861,381.1406,239.7861,391.1406,243.7861,381.1406,239.7861,385.1406" style="stroke:#181818;stroke-width:1;"/><line style="stroke:#181818;stroke-width:1;" x1="710.8633" x2="710.8633" y1="371.1406" y2="391.1406"/><polygon fill="#181818" points="706.8633,381.1406,710.8633,391.1406,714.8633,381.1406,710.8633,385.1406" style="stroke:#181818;stroke-width:1;"/><line style="stroke:#181818;stroke-width:1;" x1="392.3618" x2="239.7861" y1="315.1719" y2="315.1719"/><line style="stroke:#181818;stroke-width:1;" x1="239.7861" x2="239.7861" y1="315.1719" y2="337.1719"/><polygon fill="#181818" points="235.7861,327.1719,239.7861,337.1719,243.7861,327.1719,239.7861,331.1719" style="stroke:#181818;stroke-width:1;"/><line style="stroke:#181818;stroke-width:1;" x1="558.2876" x2="710.8633" y1="315.1719" y2="315.1719"/><line style="stroke:#181818;stroke-width:1;" x1="710.8633" x2="710.8633" y1="315.1719" y2="337.1719"/><polygon fill="#181818" points="706.8633,327.1719,710.8633,337.1719,714.8633,327.1719,710.8633,331.1719" style="stroke:#181818;stroke-width:1;"/><line style="stroke:#181818;stroke-width:1;" x1="239.7861" x2="239.7861" y1="425.1094" y2="443.1094"/><line style="stroke:#181818;stroke-width:1;" x1="239.7861" x2="463.3247" y1="443.1094" y2="443.1094"/><polygon fill="#181818" points="453.3247,439.1094,463.3247,443.1094,453.3247,447.1094,457.3247,443.1094" style="stroke:#181818;stroke-width:1;"/><line style="stroke:#181818;stroke-width:1;" x1="710.8633" x2="710.8633" y1="425.1094" y2="443.1094"/><line style="stroke:#181818;stroke-width:1;" x1="710.8633" x2="487.3247" y1="443.1094" y2="443.1094"/><polygon fill="#181818" points="497.3247,439.1094,487.3247,443.1094,497.3247,447.1094,493.3247,443.1094" style="stroke:#181818;stroke-width:1;"/><line style="stroke:#181818;stroke-width:1;" x1="475.3247" x2="475.3247" y1="283.1719" y2="303.1719"/><polygon fill="#181818" points="471.3247,293.1719,475.3247,303.1719,479.3247,293.1719,475.3247,297.1719" style="stroke:#181818;stroke-width:1;"/><line style="stroke:#181818;stroke-width:1;" x1="475.3247" x2="475.3247" y1="455.1094" y2="475.1094"/><polygon fill="#181818" points="471.3247,465.1094,475.3247,475.1094,479.3247,465.1094,475.3247,469.1094" style="stroke:#181818;stroke-width:1;"/><!--SRC=[TL9BJiGm3Dtt5DQiEbUOBbYW4JjOS08hTS4eTIedaUPIh3W04dCnd19QMZ4xAte_FoTnyWHdpoCBAZmezg5fOa9DpUdi8SUCoW5YyEmu8R0a3NrshE0Hw8Ve-FeXq1DaWPSYqStao37HY30fHH8Z6yFR6nReZ8j0bmAIHB7R6f8dvpW8Bg8meIwMkhCW7JbHSN111jQnXjfmRAXIgtm9omEqNv_tbRXVxEu8wPK4skVh-t7ZMb7_ozgI2_967rbsSKzmc4_mgsoJ2wha4ewbf4FNa8y4xMFO9d4eZlmSFLWNwqN-Bd8p1PXun3So-wULNJLxWuQvkdgR4a9w7koRXEaR]--></g></svg>