<svg xmlns="http://www.w3.org/2000/svg" xmlns:xlink="http://www.w3.org/1999/xlink" contentStyleType="text/css" height="734px" preserveAspectRatio="none" style="width:1596px;height:734px;background:#FFFFFF;" version="1.1" viewBox="0 0 1596 734" width="1596px" zoomAndPan="magnify"><title>Registrar Grado</title><defs/><g><text fill="#000000" font-family="sans-serif" font-size="14" font-weight="bold" lengthAdjust="spacing" textLength="125.7334" x="734.0493" y="32.9951">Registrar Grado</text><ellipse cx="662.9646" cy="57.2969" fill="#222222" rx="10" ry="10" style="stroke:#222222;stroke-width:1;"/><rect fill="#F1F1F1" height="33.9688" rx="12.5" ry="12.5" style="stroke:#181818;stroke-width:0.5;" width="354.7285" x="485.6003" y="87.2969"/><text fill="#000000" font-family="sans-serif" font-size="12" lengthAdjust="spacing" textLength="334.7285" x="495.6003" y="108.4355">El usuario solicita introducir registro de un nuevo grado</text><rect fill="#F1F1F1" height="33.9688" rx="12.5" ry="12.5" style="stroke:#181818;stroke-width:0.5;" width="309.5469" x="508.1912" y="141.2656"/><text fill="#000000" font-family="sans-serif" font-size="12" lengthAdjust="spacing" textLength="289.5469" x="518.1912" y="162.4043">El sistema permite introduccion un nuevo grado</text><rect fill="#F1F1F1" height="33.9688" rx="12.5" ry="12.5" style="stroke:#181818;stroke-width:0.5;" width="287.9199" x="519.0046" y="195.2344"/><text fill="#000000" font-family="sans-serif" font-size="12" lengthAdjust="spacing" textLength="267.9199" x="529.0046" y="216.373">El usuario introduce "Registrar" o "Importar"</text><polygon fill="#F1F1F1" points="601.24,249.2031,724.6892,249.2031,736.6892,261.2031,724.6892,273.2031,601.24,273.2031,589.24,261.2031,601.24,249.2031" style="stroke:#181818;stroke-width:0.5;"/><text fill="#000000" font-family="sans-serif" font-size="11" lengthAdjust="spacing" textLength="123.4492" x="601.24" y="265.0112">&#191;Registrar o Importar?</text><text fill="#000000" font-family="sans-serif" font-size="11" lengthAdjust="spacing" textLength="50.2788" x="538.9612" y="258.6089">Registrar</text><text fill="#000000" font-family="sans-serif" font-size="11" lengthAdjust="spacing" textLength="47.7705" x="736.6892" y="258.6089">Importar</text><rect fill="#F1F1F1" height="33.9688" rx="12.5" ry="12.5" style="stroke:#181818;stroke-width:0.5;" width="527.5215" x="11" y="283.2031"/><text fill="#000000" font-family="sans-serif" font-size="12" lengthAdjust="spacing" textLength="507.5215" x="21" y="304.3418">El sistema permite introducir datos del grado (nombre, nivel educativo, descripci&#243;n)</text><rect fill="#F1F1F1" height="33.9688" rx="12.5" ry="12.5" style="stroke:#181818;stroke-width:0.5;" width="258.7461" x="145.3877" y="337.1719"/><text fill="#000000" font-family="sans-serif" font-size="12" lengthAdjust="spacing" textLength="238.7461" x="155.3877" y="358.3105">El usuario introduce los datos del grado</text><rect fill="#F1F1F1" height="33.9688" rx="12.5" ry="12.5" style="stroke:#181818;stroke-width:0.5;" width="195.7813" x="176.8701" y="391.1406"/><text fill="#000000" font-family="sans-serif" font-size="12" lengthAdjust="spacing" textLength="175.7813" x="186.8701" y="412.2793">El sistema incorpora el grado</text><rect fill="#F1F1F1" height="33.9688" rx="12.5" ry="12.5" style="stroke:#181818;stroke-width:0.5;" width="525.6465" x="788.3452" y="283.2031"/><text fill="#000000" font-family="sans-serif" font-size="12" lengthAdjust="spacing" textLength="505.6465" x="798.3452" y="304.3418">El sistema permite introducir un archivo para importar grados (archivo Excel o CSV)</text><rect fill="#F1F1F1" height="33.9688" rx="12.5" ry="12.5" style="stroke:#181818;stroke-width:0.5;" width="339.0254" x="881.6558" y="337.1719"/><text fill="#000000" font-family="sans-serif" font-size="12" lengthAdjust="spacing" textLength="319.0254" x="891.6558" y="358.3105">El usuario introduce carga del archivo con los grados</text><rect fill="#F1F1F1" height="33.9688" rx="12.5" ry="12.5" style="stroke:#181818;stroke-width:0.5;" width="326.5156" x="887.9106" y="391.1406"/><text fill="#000000" font-family="sans-serif" font-size="12" lengthAdjust="spacing" textLength="306.5156" x="897.9106" y="412.2793">El sistema valida el formato y los datos del archivo</text><polygon fill="#F1F1F1" points="972.8364,445.1094,1129.5005,445.1094,1141.5005,457.1094,1129.5005,469.1094,972.8364,469.1094,960.8364,457.1094,972.8364,445.1094" style="stroke:#181818;stroke-width:0.5;"/><text fill="#000000" font-family="sans-serif" font-size="11" lengthAdjust="spacing" textLength="156.6641" x="972.8364" y="460.9175">&#191;Formato y datos correctos?</text><text fill="#000000" font-family="sans-serif" font-size="11" lengthAdjust="spacing" textLength="10.0386" x="950.7979" y="454.5151">S&#237;</text><text fill="#000000" font-family="sans-serif" font-size="11" lengthAdjust="spacing" textLength="14.9585" x="1141.5005" y="454.5151">No</text><rect fill="#F1F1F1" height="33.9688" rx="12.5" ry="12.5" style="stroke:#181818;stroke-width:0.5;" width="345.0313" x="619.3252" y="479.1094"/><text fill="#000000" font-family="sans-serif" font-size="12" lengthAdjust="spacing" textLength="325.0313" x="629.3252" y="500.248">El sistema importa los datos de los grados del archivo</text><rect fill="#F1F1F1" height="33.9688" rx="12.5" ry="12.5" style="stroke:#181818;stroke-width:0.5;" width="273.5293" x="655.0762" y="533.0781"/><text fill="#000000" font-family="sans-serif" font-size="12" lengthAdjust="spacing" textLength="253.5293" x="665.0762" y="554.2168">El sistema incorpora los grados al sistema</text><rect fill="#F1F1F1" height="33.9688" rx="12.5" ry="12.5" style="stroke:#181818;stroke-width:0.5;" width="446.6387" x="568.5215" y="587.0469"/><text fill="#000000" font-family="sans-serif" font-size="12" lengthAdjust="spacing" textLength="426.6387" x="578.5215" y="608.1855">El sistema presenta confirmaci&#243;n: "Grados importados correctamente"</text><rect fill="#F1F1F1" height="33.9688" rx="12.5" ry="12.5" style="stroke:#181818;stroke-width:0.5;" width="550.6719" x="1035.1602" y="479.1094"/><text fill="#000000" font-family="sans-serif" font-size="12" lengthAdjust="spacing" textLength="530.6719" x="1045.1602" y="500.248">El sistema presenta mensaje de error: "El archivo no tiene el formato o datos correctos"</text><rect fill="#F1F1F1" height="33.9688" rx="12.5" ry="12.5" style="stroke:#181818;stroke-width:0.5;" width="447.4648" x="1086.7637" y="533.0781"/><text fill="#000000" font-family="sans-serif" font-size="12" lengthAdjust="spacing" textLength="427.4648" x="1096.7637" y="554.2168">El sistema permite introducir correcci&#243;n del archivo y volver a cargarlo</text><polygon fill="#F1F1F1" points="1051.1685,627.0156,1063.1685,639.0156,1051.1685,651.0156,1039.1685,639.0156,1051.1685,627.0156" style="stroke:#181818;stroke-width:0.5;"/><polygon fill="#F1F1F1" points="662.9646,657.0156,674.9646,669.0156,662.9646,681.0156,650.9646,669.0156,662.9646,657.0156" style="stroke:#181818;stroke-width:0.5;"/><ellipse cx="662.9646" cy="712.0156" fill="none" rx="11" ry="11" style="stroke:#222222;stroke-width:1;"/><ellipse cx="662.9646" cy="712.0156" fill="#222222" rx="6" ry="6" style="stroke:#222222;stroke-width:1;"/><line style="stroke:#181818;stroke-width:1;" x1="662.9646" x2="662.9646" y1="67.2969" y2="87.2969"/><polygon fill="#181818" points="658.9646,77.2969,662.9646,87.2969,666.9646,77.2969,662.9646,81.2969" style="stroke:#181818;stroke-width:1;"/><line style="stroke:#181818;stroke-width:1;" x1="662.9646" x2="662.9646" y1="121.2656" y2="141.2656"/><polygon fill="#181818" points="658.9646,131.2656,662.9646,141.2656,666.9646,131.2656,662.9646,135.2656" style="stroke:#181818;stroke-width:1;"/><line style="stroke:#181818;stroke-width:1;" x1="662.9646" x2="662.9646" y1="175.2344" y2="195.2344"/><polygon fill="#181818" points="658.9646,185.2344,662.9646,195.2344,666.9646,185.2344,662.9646,189.2344" style="stroke:#181818;stroke-width:1;"/><line style="stroke:#181818;stroke-width:1;" x1="274.7607" x2="274.7607" y1="317.1719" y2="337.1719"/><polygon fill="#181818" points="270.7607,327.1719,274.7607,337.1719,278.7607,327.1719,274.7607,331.1719" style="stroke:#181818;stroke-width:1;"/><line style="stroke:#181818;stroke-width:1;" x1="274.7607" x2="274.7607" y1="371.1406" y2="391.1406"/><polygon fill="#181818" points="270.7607,381.1406,274.7607,391.1406,278.7607,381.1406,274.7607,385.1406" style="stroke:#181818;stroke-width:1;"/><line style="stroke:#181818;stroke-width:1;" x1="1051.1685" x2="1051.1685" y1="317.1719" y2="337.1719"/><polygon fill="#181818" points="1047.1685,327.1719,1051.1685,337.1719,1055.1685,327.1719,1051.1685,331.1719" style="stroke:#181818;stroke-width:1;"/><line style="stroke:#181818;stroke-width:1;" x1="1051.1685" x2="1051.1685" y1="371.1406" y2="391.1406"/><polygon fill="#181818" points="1047.1685,381.1406,1051.1685,391.1406,1055.1685,381.1406,1051.1685,385.1406" style="stroke:#181818;stroke-width:1;"/><line style="stroke:#181818;stroke-width:1;" x1="791.8408" x2="791.8408" y1="513.0781" y2="533.0781"/><polygon fill="#181818" points="787.8408,523.0781,791.8408,533.0781,795.8408,523.0781,791.8408,527.0781" style="stroke:#181818;stroke-width:1;"/><line style="stroke:#181818;stroke-width:1;" x1="791.8408" x2="791.8408" y1="567.0469" y2="587.0469"/><polygon fill="#181818" points="787.8408,577.0469,791.8408,587.0469,795.8408,577.0469,791.8408,581.0469" style="stroke:#181818;stroke-width:1;"/><line style="stroke:#181818;stroke-width:1;" x1="1310.4961" x2="1310.4961" y1="513.0781" y2="533.0781"/><polygon fill="#181818" points="1306.4961,523.0781,1310.4961,533.0781,1314.4961,523.0781,1310.4961,527.0781" style="stroke:#181818;stroke-width:1;"/><line style="stroke:#181818;stroke-width:1;" x1="960.8364" x2="791.8408" y1="457.1094" y2="457.1094"/><line style="stroke:#181818;stroke-width:1;" x1="791.8408" x2="791.8408" y1="457.1094" y2="479.1094"/><polygon fill="#181818" points="787.8408,469.1094,791.8408,479.1094,795.8408,469.1094,791.8408,473.1094" style="stroke:#181818;stroke-width:1;"/><line style="stroke:#181818;stroke-width:1;" x1="1141.5005" x2="1310.4961" y1="457.1094" y2="457.1094"/><line style="stroke:#181818;stroke-width:1;" x1="1310.4961" x2="1310.4961" y1="457.1094" y2="479.1094"/><polygon fill="#181818" points="1306.4961,469.1094,1310.4961,479.1094,1314.4961,469.1094,1310.4961,473.1094" style="stroke:#181818;stroke-width:1;"/><line style="stroke:#181818;stroke-width:1;" x1="791.8408" x2="791.8408" y1="621.0156" y2="639.0156"/><line style="stroke:#181818;stroke-width:1;" x1="791.8408" x2="1039.1685" y1="639.0156" y2="639.0156"/><polygon fill="#181818" points="1029.1685,635.0156,1039.1685,639.0156,1029.1685,643.0156,1033.1685,639.0156" style="stroke:#181818;stroke-width:1;"/><line style="stroke:#181818;stroke-width:1;" x1="1310.4961" x2="1310.4961" y1="567.0469" y2="639.0156"/><line style="stroke:#181818;stroke-width:1;" x1="1310.4961" x2="1063.1685" y1="639.0156" y2="639.0156"/><polygon fill="#181818" points="1073.1685,635.0156,1063.1685,639.0156,1073.1685,643.0156,1069.1685,639.0156" style="stroke:#181818;stroke-width:1;"/><line style="stroke:#181818;stroke-width:1;" x1="1051.1685" x2="1051.1685" y1="425.1094" y2="445.1094"/><polygon fill="#181818" points="1047.1685,435.1094,1051.1685,445.1094,1055.1685,435.1094,1051.1685,439.1094" style="stroke:#181818;stroke-width:1;"/><line style="stroke:#181818;stroke-width:1;" x1="589.24" x2="274.7607" y1="261.2031" y2="261.2031"/><line style="stroke:#181818;stroke-width:1;" x1="274.7607" x2="274.7607" y1="261.2031" y2="283.2031"/><polygon fill="#181818" points="270.7607,273.2031,274.7607,283.2031,278.7607,273.2031,274.7607,277.2031" style="stroke:#181818;stroke-width:1;"/><line style="stroke:#181818;stroke-width:1;" x1="736.6892" x2="1051.1685" y1="261.2031" y2="261.2031"/><line style="stroke:#181818;stroke-width:1;" x1="1051.1685" x2="1051.1685" y1="261.2031" y2="283.2031"/><polygon fill="#181818" points="1047.1685,273.2031,1051.1685,283.2031,1055.1685,273.2031,1051.1685,277.2031" style="stroke:#181818;stroke-width:1;"/><line style="stroke:#181818;stroke-width:1;" x1="274.7607" x2="274.7607" y1="425.1094" y2="669.0156"/><line style="stroke:#181818;stroke-width:1;" x1="274.7607" x2="650.9646" y1="669.0156" y2="669.0156"/><polygon fill="#181818" points="640.9646,665.0156,650.9646,669.0156,640.9646,673.0156,644.9646,669.0156" style="stroke:#181818;stroke-width:1;"/><line style="stroke:#181818;stroke-width:1;" x1="1051.1685" x2="1051.1685" y1="651.0156" y2="669.0156"/><line style="stroke:#181818;stroke-width:1;" x1="1051.1685" x2="674.9646" y1="669.0156" y2="669.0156"/><polygon fill="#181818" points="684.9646,665.0156,674.9646,669.0156,684.9646,673.0156,680.9646,669.0156" style="stroke:#181818;stroke-width:1;"/><line style="stroke:#181818;stroke-width:1;" x1="662.9646" x2="662.9646" y1="229.2031" y2="249.2031"/><polygon fill="#181818" points="658.9646,239.2031,662.9646,249.2031,666.9646,239.2031,662.9646,243.2031" style="stroke:#181818;stroke-width:1;"/><line style="stroke:#181818;stroke-width:1;" x1="662.9646" x2="662.9646" y1="681.0156" y2="701.0156"/><polygon fill="#181818" points="658.9646,691.0156,662.9646,701.0156,666.9646,691.0156,662.9646,695.0156" style="stroke:#181818;stroke-width:1;"/><!--SRC=[ZPB1Jkj034Nt-GehgrJY2-ZYBL11R5Y0nDvluXQZoJZoJAB7HxqL7u04FuQJQT8s1SIcgkfxxvnhDt7o1FUquvWK5MuKQobYGat5vSP35pjK5eZYsN52u91KwiwnWcQNG4tG1GWTzGAx8M0zUgDDgK5eIHjED5iTI_ZIC3qs2GdAcQm4WVAsQKMDhLmNl8Ng_Uq0BZ0D_wmWFL60QXwk2e2VWAnBZKcY5V6P1weWpL-b2mZSsuzaAapSouLfebDk7N-yXjLwdtnExeUuqz3r0eE34pLcX8E2V2IefYg_0BSzehedGuCMBOhtrXmOePgcct_EdX6uUdZy0TkXxd14ddpEZZMKoNdB3ZrwhiS2Mz76-iBBele-Pp3ccrtFmYoo9IWv-pOVxk7Z_z1yiQrSx2Jz26pvrdUhFdBWF3ytj4gHWZrdzRTimEEzBw6yoTuzJNtWnyRqL0vH-OXtile-riGHdsdeGAgYbhmvx3m89AP0ntkLvRhABwZF_nzPFjAVdFK5Ul4zAM2-kVfnRHHgtXRvCoPfFm40]--></g></svg>