<svg xmlns="http://www.w3.org/2000/svg" xmlns:xlink="http://www.w3.org/1999/xlink" contentStyleType="text/css" height="789px" preserveAspectRatio="none" style="width:762px;height:789px;background:#FFFFFF;" version="1.1" viewBox="0 0 762 789" width="762px" zoomAndPan="magnify"><defs/><g><rect fill="#F5F5F5" height="40" rx="12.5" ry="12.5" style="stroke:#181818;stroke-width:0.5;" width="156.3027" x="300" y="7"/><text fill="#000000" font-family="sans-serif" font-size="14" lengthAdjust="spacing" textLength="146.3027" x="305" y="31.8467">Panel de Moderaci&#243;n</text><rect fill="#F5F5F5" height="40" rx="12.5" ry="12.5" style="stroke:#181818;stroke-width:0.5;" width="163.4873" x="296.5" y="743"/><text fill="#000000" font-family="sans-serif" font-size="14" lengthAdjust="spacing" textLength="153.4873" x="301.5" y="767.8467">Comunidad Eliminada</text><path d="M19.5,107 L736.5,107 A12.5,12.5 0 0 1 749,119.5 L749,133.2969 L7,133.2969 L7,119.5 A12.5,12.5 0 0 1 19.5,107 " fill="#F5F5F5" style="stroke:#F5F5F5;stroke-width:1;"/><rect fill="none" height="576.2969" rx="12.5" ry="12.5" style="stroke:#181818;stroke-width:0.5;" width="742" x="7" y="107"/><line style="stroke:#181818;stroke-width:0.5;" x1="7" x2="749" y1="133.2969" y2="133.2969"/><text fill="#000000" font-family="sans-serif" font-size="14" lengthAdjust="spacing" textLength="186.9971" x="284.5015" y="124.9951">Eliminaci&#243;n de Comunidad</text><rect fill="#F5F5F5" height="40" rx="12.5" ry="12.5" style="stroke:#181818;stroke-width:0.5;" width="50" x="185" y="145.2969"/><text fill="#000000" font-family="sans-serif" font-size="14" lengthAdjust="spacing" textLength="4.4502" x="207.7749" y="170.1436">&#160;</text><g id="elem_ValidarRaz&#243;nEliminaci&#243;n"><polygon fill="#F1F1F1" points="210,271.2969,222,283.2969,210,295.2969,198,283.2969,210,271.2969" style="stroke:#181818;stroke-width:0.5;"/></g><rect fill="#F5F5F5" height="40" rx="12.5" ry="12.5" style="stroke:#181818;stroke-width:0.5;" width="50" x="185" y="381.2969"/><text fill="#000000" font-family="sans-serif" font-size="14" lengthAdjust="spacing" textLength="4.4502" x="207.7749" y="406.1436">&#160;</text><rect fill="#F5F5F5" height="40" rx="12.5" ry="12.5" style="stroke:#181818;stroke-width:0.5;" width="50" x="185" y="507.2969"/><text fill="#000000" font-family="sans-serif" font-size="14" lengthAdjust="spacing" textLength="4.4502" x="207.7749" y="532.1436">&#160;</text><rect fill="#F5F5F5" height="40" rx="12.5" ry="12.5" style="stroke:#181818;stroke-width:0.5;" width="50" x="185" y="633.2969"/><text fill="#000000" font-family="sans-serif" font-size="14" lengthAdjust="spacing" textLength="4.4502" x="207.7749" y="658.1436">&#160;</text><!--link SeleccionarComunidad to ValidarRaz?nEliminaci?n--><g id="link_SeleccionarComunidad_ValidarRaz&#243;nEliminaci&#243;n"><path d="M184.9,171.1369 C132.86,181.1669 18,203.2969 18,203.2969 C18,203.2969 18,253.2969 18,253.2969 C18,253.2969 155.1573,274.0106 194.2773,279.9206 " fill="none" id="SeleccionarComunidad-to-ValidarRaz&#243;nEliminaci&#243;n" style="stroke:#008000;stroke-width:1;"/><polygon fill="#008000" points="200.21,280.8169,191.9085,275.5173,195.2661,280.07,190.7135,283.4276,200.21,280.8169" style="stroke:#008000;stroke-width:1;"/><path d="M23,208.2969 L23,248.2969 L376,248.2969 L376,218.2969 L366,208.2969 L23,208.2969 " fill="#F5F5F5" style="stroke:#000000;stroke-width:0.5;"/><path d="M366,208.2969 L366,218.2969 L376,218.2969 L366,208.2969 " fill="#F5F5F5" style="stroke:#000000;stroke-width:0.5;"/><text fill="#000000" font-family="sans-serif" font-size="13" font-weight="bold" lengthAdjust="spacing" textLength="277.8687" x="29" y="225.3638">Moderador selecciona una comunidad</text><ellipse cx="34.5" cy="236.0625" fill="#000000" rx="2.5" ry="2.5" style="stroke:#000000;stroke-width:0;"/><text fill="#000000" font-family="sans-serif" font-size="13" lengthAdjust="spacing" textLength="320.6836" x="41" y="240.4966">Sistema muestra detalles y actividades recientes</text></g><!--link ValidarRaz?nEliminaci?n to ConfirmarEliminaci?n--><g id="link_ValidarRaz&#243;nEliminaci&#243;n_ConfirmarEliminaci&#243;n"><path d="M210,295.4169 C210,315.1569 210,350.5169 210,374.9869 " fill="none" id="ValidarRaz&#243;nEliminaci&#243;n-to-ConfirmarEliminaci&#243;n" style="stroke:#008000;stroke-width:1;"/><polygon fill="#008000" points="210,380.9869,214,371.9869,210,375.9869,206,371.9869,210,380.9869" style="stroke:#008000;stroke-width:1;"/><path d="M215,318.2969 L215,358.2969 L640,358.2969 L640,328.2969 L630,318.2969 L215,318.2969 " fill="#F5F5F5" style="stroke:#000000;stroke-width:0.5;"/><path d="M630,318.2969 L630,328.2969 L640,328.2969 L630,318.2969 " fill="#F5F5F5" style="stroke:#000000;stroke-width:0.5;"/><text fill="#000000" font-family="sans-serif" font-size="13" font-weight="bold" lengthAdjust="spacing" textLength="280.8394" x="221" y="335.3638">Raz&#243;n v&#225;lida para eliminar comunidad</text><ellipse cx="226.5" cy="346.0625" fill="#000000" rx="2.5" ry="2.5" style="stroke:#000000;stroke-width:0;"/><text fill="#000000" font-family="sans-serif" font-size="13" lengthAdjust="spacing" textLength="392.3994" x="233" y="350.4966">Ejemplo: violaci&#243;n grave de normas o abandono prolongado</text></g><!--link ValidarRaz?nEliminaci?n to SeleccionarComunidad--><g id="link_ValidarRaz&#243;nEliminaci&#243;n_SeleccionarComunidad"><path d="M219.44,280.6969 C255.29,274.6169 381,253.2969 381,253.2969 C381,253.2969 381,203.2969 381,203.2969 C381,203.2969 288.6644,183.3154 241.0944,173.0254 " fill="none" id="ValidarRaz&#243;nEliminaci&#243;n-to-SeleccionarComunidad" style="stroke:#FF0000;stroke-width:1;"/><polygon fill="#FF0000" points="235.23,171.7569,243.1809,177.5693,240.117,172.814,244.8722,169.7501,235.23,171.7569" style="stroke:#FF0000;stroke-width:1;"/><path d="M386,208.2969 L386,248.2969 L740,248.2969 L740,218.2969 L730,208.2969 L386,208.2969 " fill="#F5F5F5" style="stroke:#000000;stroke-width:0.5;"/><path d="M730,208.2969 L730,218.2969 L740,218.2969 L730,208.2969 " fill="#F5F5F5" style="stroke:#000000;stroke-width:0.5;"/><text fill="#000000" font-family="sans-serif" font-size="13" font-weight="bold" lengthAdjust="spacing" textLength="116.0098" x="392" y="225.3638">Raz&#243;n no v&#225;lida</text><ellipse cx="397.5" cy="236.0625" fill="#000000" rx="2.5" ry="2.5" style="stroke:#000000;stroke-width:0;"/><text fill="#000000" font-family="sans-serif" font-size="13" lengthAdjust="spacing" textLength="321.0645" x="404" y="240.4966">Moderador regresa a seleccionar otra comunidad</text></g><!--link ConfirmarEliminaci?n to NotificarComunidadEliminada--><g id="link_ConfirmarEliminaci&#243;n_NotificarComunidadEliminada"><path d="M210,421.3969 C210,444.6369 210,477.6369 210,500.9669 " fill="none" id="ConfirmarEliminaci&#243;n-to-NotificarComunidadEliminada" style="stroke:#008000;stroke-width:1;"/><polygon fill="#008000" points="210,506.9669,214,497.9669,210,501.9669,206,497.9669,210,506.9669" style="stroke:#008000;stroke-width:1;"/><path d="M215,444.2969 L215,484.2969 L449,484.2969 L449,454.2969 L439,444.2969 L215,444.2969 " fill="#F5F5F5" style="stroke:#000000;stroke-width:0.5;"/><path d="M439,444.2969 L439,454.2969 L449,454.2969 L439,444.2969 " fill="#F5F5F5" style="stroke:#000000;stroke-width:0.5;"/><text fill="#000000" font-family="sans-serif" font-size="13" font-weight="bold" lengthAdjust="spacing" textLength="158.7295" x="221" y="461.3638">Comunidad eliminada</text><ellipse cx="226.5" cy="472.0625" fill="#000000" rx="2.5" ry="2.5" style="stroke:#000000;stroke-width:0;"/><text fill="#000000" font-family="sans-serif" font-size="13" lengthAdjust="spacing" textLength="201.3794" x="233" y="476.4966">Sistema registra la eliminaci&#243;n</text></g><!--link NotificarComunidadEliminada to ComunidadEliminada--><g id="link_NotificarComunidadEliminada_ComunidadEliminada"><path d="M210,547.3969 C210,570.6369 210,603.6369 210,626.9669 " fill="none" id="NotificarComunidadEliminada-to-ComunidadEliminada" style="stroke:#008000;stroke-width:1;"/><polygon fill="#008000" points="210,632.9669,214,623.9669,210,627.9669,206,623.9669,210,632.9669" style="stroke:#008000;stroke-width:1;"/><path d="M215,570.2969 L215,610.2969 L619,610.2969 L619,580.2969 L609,570.2969 L215,570.2969 " fill="#F5F5F5" style="stroke:#000000;stroke-width:0.5;"/><path d="M609,570.2969 L609,580.2969 L619,580.2969 L609,570.2969 " fill="#F5F5F5" style="stroke:#000000;stroke-width:0.5;"/><text fill="#000000" font-family="sans-serif" font-size="13" font-weight="bold" lengthAdjust="spacing" textLength="158.0884" x="221" y="587.3638">Miembros notificados</text><ellipse cx="226.5" cy="598.0625" fill="#000000" rx="2.5" ry="2.5" style="stroke:#000000;stroke-width:0;"/><text fill="#000000" font-family="sans-serif" font-size="13" lengthAdjust="spacing" textLength="371.4141" x="233" y="602.4966">Notificaci&#243;n enviada a los miembros sobre la eliminaci&#243;n</text></g><!--link startState to ProcesoDeEliminaci?nComunidad--><g id="link_startState_ProcesoDeEliminaci&#243;nComunidad"><path d="M378,47.16 C378,61.21 378,76.08 378,100.75 " fill="none" id="startState-to-ProcesoDeEliminaci&#243;nComunidad" style="stroke:#181818;stroke-width:1;"/><polygon fill="#181818" points="378,106.75,382,97.75,378,101.75,374,97.75,378,106.75" style="stroke:#181818;stroke-width:1;"/></g><!--link ProcesoDeEliminaci?nComunidad to endState--><g id="link_ProcesoDeEliminaci&#243;nComunidad_endState"><path d="M378,683.03 C378,707.87 378,722.87 378,736.96 " fill="none" id="ProcesoDeEliminaci&#243;nComunidad-to-endState" style="stroke:#181818;stroke-width:1;"/><polygon fill="#181818" points="378,742.96,382,733.96,378,737.96,374,733.96,378,742.96" style="stroke:#181818;stroke-width:1;"/></g><!--SRC=[bLJDRjim3BxxAOZqDY3OlGXoMDPZXw81TXbsa2KsqIAB1gLao8Ozp9vXZz0N6oN_n6vZRpMGm8O-VkH7VbGuM5yhLXNyB42UJnJnWzA77TFHcmqvOhZvlhSHjnKTy88XDiZjUUaa8Xyvwp6UQuIQt3bz5B-A8lGvGbGHsqnpMIHeRmq2LdKyWy6WsTRHaXUoJ27_7BVvLGLOF2YFJd1mJrALqlRvZr-qKFJc0jnGTVJMA0DtpbRMAwCMHIRjw9RBDJmmQGpq4LjGvkj3knhcKJdTy2ILrvyksYOqJ5jqgBN8KpoEXyK0zLavEU17zKFOHiohbTwJrRXU3-0Rya-MAyKZw2jM6QPzidgGkU_CQ_0q9eEkwbX-kTanelygZPsKaCEz-0h89nCrRahFgbmtGpNYaT0dWAFyT9TazRvSzn7lO6j3n4f1TSGGMKddet8E0vn1wMXFAKI-6BL57p7aKF59hg2HCjtiePwhFPxLqX32wVbtueUq5e1DC4_gkVicY-3e5awMN5l6ZjK9awSyIG4125Ifl25FKBCibDz9nzugZD4aMTVc-3-g97Shx8M0omGPfNb1R3EO9GEbAUbHgd7Lryqy7CMCZsTBlnWLE_o4cwHqc-ta-f5TvZqkTswfnlvvKwtt5gkIAIH0vZSKNXJRPMuQXFvayvA2awYg2mzKCixBa1lu7_TRkYYxk_Kl]--></g></svg>