<svg xmlns="http://www.w3.org/2000/svg" xmlns:xlink="http://www.w3.org/1999/xlink" contentStyleType="text/css" height="614px" preserveAspectRatio="none" style="width:596px;height:614px;background:#FFFFFF;" version="1.1" viewBox="0 0 596 614" width="596px" zoomAndPan="magnify"><defs/><g><rect fill="#F5F5F5" height="40" rx="12.5" ry="12.5" style="stroke:#181818;stroke-width:0.5;" width="156.3027" x="217" y="7"/><text fill="#000000" font-family="sans-serif" font-size="14" lengthAdjust="spacing" textLength="146.3027" x="222" y="31.8467">Panel de Moderaci&#243;n</text><rect fill="#F5F5F5" height="40" rx="12.5" ry="12.5" style="stroke:#181818;stroke-width:0.5;" width="157.5879" x="216" y="568"/><text fill="#000000" font-family="sans-serif" font-size="14" lengthAdjust="spacing" textLength="147.5879" x="221" y="592.8467">Publicaci&#243;n Revisada</text><path d="M19.5,107 L570.5,107 A12.5,12.5 0 0 1 583,119.5 L583,133.2969 L7,133.2969 L7,119.5 A12.5,12.5 0 0 1 19.5,107 " fill="#F5F5F5" style="stroke:#F5F5F5;stroke-width:1;"/><rect fill="none" height="401.2969" rx="12.5" ry="12.5" style="stroke:#181818;stroke-width:0.5;" width="576" x="7" y="107"/><line style="stroke:#181818;stroke-width:0.5;" x1="7" x2="583" y1="133.2969" y2="133.2969"/><text fill="#000000" font-family="sans-serif" font-size="14" lengthAdjust="spacing" textLength="180.7285" x="204.6357" y="124.9951">Revisi&#243;n de Publicaciones</text><rect fill="#F5F5F5" height="40" rx="12.5" ry="12.5" style="stroke:#181818;stroke-width:0.5;" width="50" x="145" y="145.2969"/><text fill="#000000" font-family="sans-serif" font-size="14" lengthAdjust="spacing" textLength="4.4502" x="167.7749" y="170.1436">&#160;</text><g id="elem_ValidarPublicaci&#243;n"><polygon fill="#F1F1F1" points="170,271.2969,182,283.2969,170,295.2969,158,283.2969,170,271.2969" style="stroke:#181818;stroke-width:0.5;"/></g><rect fill="#F5F5F5" height="40" rx="12.5" ry="12.5" style="stroke:#181818;stroke-width:0.5;" width="50" x="53" y="381.2969"/><text fill="#000000" font-family="sans-serif" font-size="14" lengthAdjust="spacing" textLength="4.4502" x="75.7749" y="406.1436">&#160;</text><rect fill="#F5F5F5" height="40" rx="12.5" ry="12.5" style="stroke:#181818;stroke-width:0.5;" width="50" x="236" y="381.2969"/><text fill="#000000" font-family="sans-serif" font-size="14" lengthAdjust="spacing" textLength="4.4502" x="258.7749" y="406.1436">&#160;</text><rect fill="#F5F5F5" height="40" rx="12.5" ry="12.5" style="stroke:#181818;stroke-width:0.5;" width="153.1377" x="92.5" y="458.2969"/><text fill="#000000" font-family="sans-serif" font-size="14" lengthAdjust="spacing" textLength="143.1377" x="97.5" y="483.1436">Publicaci&#243;nRevisada</text><!--link SeleccionarPublicaci?n to ValidarPublicaci?n--><g id="link_SeleccionarPublicaci&#243;n_ValidarPublicaci&#243;n"><path d="M170,185.4569 C170,209.9069 170,245.4069 170,265.1769 " fill="none" id="SeleccionarPublicaci&#243;n-to-ValidarPublicaci&#243;n" style="stroke:#008000;stroke-width:1;"/><polygon fill="#008000" points="170,271.1769,174,262.1769,170,266.1769,166,262.1769,170,271.1769" style="stroke:#008000;stroke-width:1;"/><path d="M175,208.2969 L175,248.2969 L493,248.2969 L493,218.2969 L483,208.2969 L175,208.2969 " fill="#F5F5F5" style="stroke:#000000;stroke-width:0.5;"/><path d="M483,208.2969 L483,218.2969 L493,218.2969 L483,208.2969 " fill="#F5F5F5" style="stroke:#000000;stroke-width:0.5;"/><text fill="#000000" font-family="sans-serif" font-size="13" font-weight="bold" lengthAdjust="spacing" textLength="280.9409" x="181" y="225.3638">Moderador selecciona una publicaci&#243;n</text><ellipse cx="186.5" cy="236.0625" fill="#000000" rx="2.5" ry="2.5" style="stroke:#000000;stroke-width:0;"/><text fill="#000000" font-family="sans-serif" font-size="13" lengthAdjust="spacing" textLength="285.3398" x="193" y="240.4966">Sistema carga los detalles de la publicaci&#243;n</text></g><!--link ValidarPublicaci?n to AprobarPublicaci?n--><g id="link_ValidarPublicaci&#243;n_AprobarPublicaci&#243;n"><path d="M160.49,286.1069 C127.22,292.4569 18,313.2969 18,313.2969 C18,313.2969 18,363.2969 18,363.2969 C18,363.2969 31.3533,371.5271 47.7933,381.6671 " fill="none" id="ValidarPublicaci&#243;n-to-AprobarPublicaci&#243;n" style="stroke:#008000;stroke-width:1;"/><polygon fill="#008000" points="52.9,384.8169,47.3397,376.6877,48.6444,382.1921,43.14,383.4967,52.9,384.8169" style="stroke:#008000;stroke-width:1;"/><path d="M23,318.2969 L23,358.2969 L288,358.2969 L288,328.2969 L278,318.2969 L23,318.2969 " fill="#F5F5F5" style="stroke:#000000;stroke-width:0.5;"/><path d="M278,318.2969 L278,328.2969 L288,328.2969 L278,318.2969 " fill="#F5F5F5" style="stroke:#000000;stroke-width:0.5;"/><text fill="#000000" font-family="sans-serif" font-size="13" font-weight="bold" lengthAdjust="spacing" textLength="244.2324" x="29" y="335.3638">Si publicaci&#243;n cumple las normas</text><ellipse cx="34.5" cy="346.0625" fill="#000000" rx="2.5" ry="2.5" style="stroke:#000000;stroke-width:0;"/><text fill="#000000" font-family="sans-serif" font-size="13" lengthAdjust="spacing" textLength="216.4106" x="41" y="350.4966">Se aprueba y pasa a estar visible</text></g><!--link ValidarPublicaci?n to RechazarPublicaci?n--><g id="link_ValidarPublicaci&#243;n_RechazarPublicaci&#243;n"><path d="M179.13,286.3869 C208.25,293.0369 297,313.2969 297,313.2969 C297,313.2969 297,363.2969 297,363.2969 C297,363.2969 292.7346,367.677 284.0246,376.627 " fill="none" id="ValidarPublicaci&#243;n-to-RechazarPublicaci&#243;n" style="stroke:#FF0000;stroke-width:1;"/><polygon fill="#FF0000" points="279.84,380.9269,288.9835,377.2668,283.3272,377.3436,283.2503,371.6873,279.84,380.9269" style="stroke:#FF0000;stroke-width:1;"/><path d="M302,318.2969 L302,358.2969 L574,358.2969 L574,328.2969 L564,318.2969 L302,318.2969 " fill="#F5F5F5" style="stroke:#000000;stroke-width:0.5;"/><path d="M564,318.2969 L564,328.2969 L574,328.2969 L564,318.2969 " fill="#F5F5F5" style="stroke:#000000;stroke-width:0.5;"/><text fill="#000000" font-family="sans-serif" font-size="13" font-weight="bold" lengthAdjust="spacing" textLength="226.2368" x="308" y="335.3638">Si publicaci&#243;n viola las normas</text><ellipse cx="313.5" cy="346.0625" fill="#000000" rx="2.5" ry="2.5" style="stroke:#000000;stroke-width:0;"/><text fill="#000000" font-family="sans-serif" font-size="13" lengthAdjust="spacing" textLength="239.1416" x="320" y="350.4966">Se rechaza y el usuario es notificado</text></g><!--link AprobarPublicaci?n to Publicaci?nRevisada--><g id="link_AprobarPublicaci&#243;n_Publicaci&#243;nRevisada"><path d="M101.43,421.6069 C115.02,432.8069 127.4409,443.0396 141.0109,454.2296 " fill="none" id="AprobarPublicaci&#243;n-to-Publicaci&#243;nRevisada" style="stroke:#008000;stroke-width:1;"/><polygon fill="#008000" points="145.64,458.0469,141.2411,449.2349,141.7824,454.8658,136.1515,455.4071,145.64,458.0469" style="stroke:#008000;stroke-width:1;"/></g><!--link RechazarPublicaci?n to Publicaci?nRevisada--><g id="link_RechazarPublicaci&#243;n_Publicaci&#243;nRevisada"><path d="M237.31,421.6069 C223.57,432.8069 210.9796,443.0647 197.2596,454.2547 " fill="none" id="RechazarPublicaci&#243;n-to-Publicaci&#243;nRevisada" style="stroke:#FF0000;stroke-width:1;"/><polygon fill="#FF0000" points="192.61,458.0469,202.1126,455.4583,196.4847,454.8867,197.0563,449.2588,192.61,458.0469" style="stroke:#FF0000;stroke-width:1;"/></g><!--link startState to ProcesoDeRevisi?n--><g id="link_startState_ProcesoDeRevisi&#243;n"><path d="M295,47.14 C295,61.46 295,76.69 295,100.94 " fill="none" id="startState-to-ProcesoDeRevisi&#243;n" style="stroke:#181818;stroke-width:1;"/><polygon fill="#181818" points="295,106.94,299,97.94,295,101.94,291,97.94,295,106.94" style="stroke:#181818;stroke-width:1;"/></g><!--link ProcesoDeRevisi?n to endState--><g id="link_ProcesoDeRevisi&#243;n_endState"><path d="M295,508.31 C295,532.45 295,547.57 295,561.84 " fill="none" id="ProcesoDeRevisi&#243;n-to-endState" style="stroke:#181818;stroke-width:1;"/><polygon fill="#181818" points="295,567.84,299,558.84,295,562.84,291,558.84,295,567.84" style="stroke:#181818;stroke-width:1;"/></g><!--SRC=[bLHBRjmm3DtFAGXd5s3G2mmCDCqsHH03tGHTq18x8umi2fASO5hqL3r2BXPAdeydKQQj0His-DxZ8qKwRetp6720NmkGwoidka6rNGSUdVx2bWDSFMzCecxWBPqm73I5VRotmYWXQnobdIVmR7VvO_5xiOZ7735XedscIrc4j36QW0QVTg0fgc1yCkn4h4Z8CwIkl6A4vXuTMS717OihLERbZslsK79w1XnxQzG4W0TwCX4rDaNreBTSjd0VM57aMogG33uaVXyfkgSlCN5CmevYioztedTaIUK0XZChMGEQ6V0RMgFVW5OhjM6Zg6rdmCy-SFytjGTI6_nPHnNOHxwMZrVhGEI-IrCgbWhNoJW0ktpsqn3aQzMtqrbeETfuL8THRZzJM7tgsoFf6ZeJ4mq82iCQmNAKVYQqbl8Bs7DkuSdn5WTJ7RMspMkeTEjY3PqvomXg7BpDHg9Gme3nhNyPCnz6wX5su34Y850UBiZpqLlwTy-1T7PSExh_ilnaMFfsoN6OKeXZMQ8nZXWCY-kSmVmG7SqLrxMvctTw7ZWiMY5MP_5KRvKd_uFAukLDFMptAm00]--></g></svg>