<svg xmlns="http://www.w3.org/2000/svg" xmlns:xlink="http://www.w3.org/1999/xlink" contentStyleType="text/css" height="1667px" preserveAspectRatio="none" style="width:1222px;height:1667px;background:#FFFFFF;" version="1.1" viewBox="0 0 1222 1667" width="1222px" zoomAndPan="magnify"><title>Asignar Asignatura a Titulaci&#243;n</title><defs/><g><text fill="#000000" font-family="sans-serif" font-size="14" font-weight="bold" lengthAdjust="spacing" textLength="248.7256" x="479.8108" y="22.9951">Asignar Asignatura a Titulaci&#243;n</text><g id="INICIO"><rect fill="#F1F1F1" height="50" rx="12.5" ry="12.5" style="stroke:#181818;stroke-width:0.5;" width="63.6543" x="748" y="44.2969"/><line style="stroke:#181818;stroke-width:0.5;" x1="748" x2="811.6543" y1="70.5938" y2="70.5938"/><text fill="#000000" font-family="sans-serif" font-size="14" lengthAdjust="spacing" textLength="43.6543" x="758" y="62.292">INICIO</text></g><g id="INICIAR_SESION"><rect fill="#F1F1F1" height="50" rx="12.5" ry="12.5" style="stroke:#181818;stroke-width:0.5;" width="128.6299" x="715.5" y="171.2969"/><line style="stroke:#181818;stroke-width:0.5;" x1="715.5" x2="844.1299" y1="197.5938" y2="197.5938"/><text fill="#000000" font-family="sans-serif" font-size="14" lengthAdjust="spacing" textLength="108.6299" x="725.5" y="189.292">INICIAR SESI&#211;N</text></g><g id="MENU_PRINCIPAL"><rect fill="#F1F1F1" height="50" rx="12.5" ry="12.5" style="stroke:#181818;stroke-width:0.5;" width="138.5898" x="710.5" y="298.2969"/><line style="stroke:#181818;stroke-width:0.5;" x1="710.5" x2="849.0898" y1="324.5938" y2="324.5938"/><text fill="#000000" font-family="sans-serif" font-size="14" lengthAdjust="spacing" textLength="118.5898" x="720.5" y="316.292">MEN&#218; PRINCIPAL</text></g><g id="LISTAR_ASIGNATURAS"><rect fill="#F1F1F1" height="50" rx="12.5" ry="12.5" style="stroke:#181818;stroke-width:0.5;" width="271.0498" x="644.5" y="425.2969"/><line style="stroke:#181818;stroke-width:0.5;" x1="644.5" x2="915.5498" y1="451.5938" y2="451.5938"/><text fill="#000000" font-family="sans-serif" font-size="14" lengthAdjust="spacing" textLength="251.0498" x="654.5" y="443.292">LISTAR ASIGNATURAS DISPONIBLES</text></g><g id="SELECCIONAR_ASIGNATURA"><rect fill="#F1F1F1" height="50" rx="12.5" ry="12.5" style="stroke:#181818;stroke-width:0.5;" width="214.8994" x="672.5" y="552.2969"/><line style="stroke:#181818;stroke-width:0.5;" x1="672.5" x2="887.3994" y1="578.5938" y2="578.5938"/><text fill="#000000" font-family="sans-serif" font-size="14" lengthAdjust="spacing" textLength="194.8994" x="682.5" y="570.292">SELECCIONAR ASIGNATURA</text></g><g id="LISTAR_TITULACIONES"><rect fill="#F1F1F1" height="50" rx="12.5" ry="12.5" style="stroke:#181818;stroke-width:0.5;" width="272.5537" x="634.5" y="1018.2969"/><line style="stroke:#181818;stroke-width:0.5;" x1="634.5" x2="907.0537" y1="1044.5938" y2="1044.5938"/><text fill="#000000" font-family="sans-serif" font-size="14" lengthAdjust="spacing" textLength="252.5537" x="644.5" y="1036.292">LISTAR TITULACIONES DISPONIBLES</text></g><g id="SELECCIONAR_TITULACION"><rect fill="#F1F1F1" height="50" rx="12.5" ry="12.5" style="stroke:#181818;stroke-width:0.5;" width="207.5576" x="667" y="1145.2969"/><line style="stroke:#181818;stroke-width:0.5;" x1="667" x2="874.5576" y1="1171.5938" y2="1171.5938"/><text fill="#000000" font-family="sans-serif" font-size="14" lengthAdjust="spacing" textLength="187.5576" x="677" y="1163.292">SELECCIONAR TITULACI&#211;N</text></g><g id="CONFIRMAR_CAMBIO"><rect fill="#F1F1F1" height="50" rx="12.5" ry="12.5" style="stroke:#181818;stroke-width:0.5;" width="282.6094" x="805.5" y="907.2969"/><line style="stroke:#181818;stroke-width:0.5;" x1="805.5" x2="1088.1094" y1="933.5938" y2="933.5938"/><text fill="#000000" font-family="sans-serif" font-size="14" lengthAdjust="spacing" textLength="262.6094" x="815.5" y="925.292">CONFIRMAR CAMBIO DE ASIGNACI&#211;N</text></g><g id="ASOCIAR_ASIGNATURA"><rect fill="#F1F1F1" height="50" rx="12.5" ry="12.5" style="stroke:#181818;stroke-width:0.5;" width="281.4678" x="630.5" y="1272.2969"/><line style="stroke:#181818;stroke-width:0.5;" x1="630.5" x2="911.9678" y1="1298.5938" y2="1298.5938"/><text fill="#000000" font-family="sans-serif" font-size="14" lengthAdjust="spacing" textLength="261.4678" x="640.5" y="1290.292">ASOCIAR ASIGNATURA A TITULACI&#211;N</text></g><g id="NOTIFICAR_EXITO"><rect fill="#F1F1F1" height="50" rx="12.5" ry="12.5" style="stroke:#181818;stroke-width:0.5;" width="142.0215" x="7" y="1500.2969"/><line style="stroke:#181818;stroke-width:0.5;" x1="7" x2="149.0215" y1="1526.5938" y2="1526.5938"/><text fill="#000000" font-family="sans-serif" font-size="14" lengthAdjust="spacing" textLength="122.0215" x="17" y="1518.292">NOTIFICAR &#201;XITO</text></g><g id="FINAL"><rect fill="#F1F1F1" height="50" rx="12.5" ry="12.5" style="stroke:#181818;stroke-width:0.5;" width="60.0313" x="48" y="1611.2969"/><line style="stroke:#181818;stroke-width:0.5;" x1="48" x2="108.0313" y1="1637.5938" y2="1637.5938"/><text fill="#000000" font-family="sans-serif" font-size="14" lengthAdjust="spacing" textLength="40.0313" x="58" y="1629.292">FINAL</text></g><g id="ASIGNATURA_ASIGNADA"><rect fill="#F1F1F1" height="50" rx="12.5" ry="12.5" style="stroke:#181818;stroke-width:0.5;" width="284.4756" x="805" y="780.2969"/><line style="stroke:#181818;stroke-width:0.5;" x1="805" x2="1089.4756" y1="806.5938" y2="806.5938"/><text fill="#000000" font-family="sans-serif" font-size="14" lengthAdjust="spacing" textLength="264.4756" x="815" y="798.292">MENSAJE: ASIGNATURA YA ASIGNADA</text></g><g id="ERROR_TECNICO"><rect fill="#F1F1F1" height="50" rx="12.5" ry="12.5" style="stroke:#181818;stroke-width:0.5;" width="246.3379" x="648" y="1500.2969"/><line style="stroke:#181818;stroke-width:0.5;" x1="648" x2="894.3379" y1="1526.5938" y2="1526.5938"/><text fill="#000000" font-family="sans-serif" font-size="14" lengthAdjust="spacing" textLength="226.3379" x="658" y="1518.292">NOTIFICACI&#211;N: ERROR T&#201;CNICO</text></g><g id="elem_Condicion1"><polygon fill="#F1F1F1" points="780,679.2969,792,691.2969,780,703.2969,768,691.2969,780,679.2969" style="stroke:#181818;stroke-width:0.5;"/></g><g id="elem_Condicion2"><polygon fill="#F1F1F1" points="586,1399.2969,598,1411.2969,586,1423.2969,574,1411.2969,586,1399.2969" style="stroke:#181818;stroke-width:0.5;"/></g><!--link INICIO to INICIAR_SESION--><g id="link_INICIO_INICIAR_SESION"><path d="M780,94.3969 C780,116.5369 780,143.1569 780,165.2669 " fill="none" id="INICIO-to-INICIAR_SESION" style="stroke:#181818;stroke-width:1;"/><polygon fill="#181818" points="780,171.2669,784,162.2669,780,166.2669,776,162.2669,780,171.2669" style="stroke:#181818;stroke-width:1;"/><text fill="#000000" font-family="sans-serif" font-size="13" lengthAdjust="spacing" textLength="262.3423" x="781" y="137.3638">T&#233;cnico de Calidad solicita iniciar sesi&#243;n</text></g><!--link INICIAR_SESION to MENU_PRINCIPAL--><g id="link_INICIAR_SESION_MENU_PRINCIPAL"><path d="M780,221.3969 C780,243.5369 780,270.1569 780,292.2669 " fill="none" id="INICIAR_SESION-to-MENU_PRINCIPAL" style="stroke:#181818;stroke-width:1;"/><polygon fill="#181818" points="780,298.2669,784,289.2669,780,293.2669,776,289.2669,780,298.2669" style="stroke:#181818;stroke-width:1;"/><text fill="#000000" font-family="sans-serif" font-size="13" lengthAdjust="spacing" textLength="383.8301" x="781" y="264.3638">Sistema permite iniciar sesi&#243;n y muestra el men&#250; principal</text></g><!--link MENU_PRINCIPAL to LISTAR_ASIGNATURAS--><g id="link_MENU_PRINCIPAL_LISTAR_ASIGNATURAS"><path d="M780,348.3969 C780,370.5369 780,397.1569 780,419.2669 " fill="none" id="MENU_PRINCIPAL-to-LISTAR_ASIGNATURAS" style="stroke:#181818;stroke-width:1;"/><polygon fill="#181818" points="780,425.2669,784,416.2669,780,420.2669,776,416.2669,780,425.2669" style="stroke:#181818;stroke-width:1;"/><text fill="#000000" font-family="sans-serif" font-size="13" lengthAdjust="spacing" textLength="282.1279" x="781" y="391.3638">T&#233;cnico selecciona "Gestionar asignaturas"</text></g><!--link LISTAR_ASIGNATURAS to SELECCIONAR_ASIGNATURA--><g id="link_LISTAR_ASIGNATURAS_SELECCIONAR_ASIGNATURA"><path d="M780,475.3969 C780,497.5369 780,524.1569 780,546.2669 " fill="none" id="LISTAR_ASIGNATURAS-to-SELECCIONAR_ASIGNATURA" style="stroke:#181818;stroke-width:1;"/><polygon fill="#181818" points="780,552.2669,784,543.2669,780,547.2669,776,543.2669,780,552.2669" style="stroke:#181818;stroke-width:1;"/><text fill="#000000" font-family="sans-serif" font-size="13" lengthAdjust="spacing" textLength="241.376" x="781" y="518.3638">Sistema lista asignaturas disponibles</text></g><!--link SELECCIONAR_ASIGNATURA to Condicion1--><g id="link_SELECCIONAR_ASIGNATURA_Condicion1"><path d="M780,602.3269 C780,626.1069 780,655.4569 780,673.2369 " fill="none" id="SELECCIONAR_ASIGNATURA-to-Condicion1" style="stroke:#181818;stroke-width:1;"/><polygon fill="#181818" points="780,679.2369,784,670.2369,780,674.2369,776,670.2369,780,679.2369" style="stroke:#181818;stroke-width:1;"/><text fill="#000000" font-family="sans-serif" font-size="13" lengthAdjust="spacing" textLength="224.7832" x="781" y="645.3638">T&#233;cnico selecciona una asignatura</text></g><!--link Condicion1 to ASIGNATURA_ASIGNADA--><g id="link_Condicion1_ASIGNATURA_ASIGNADA"><path d="M786.75,696.8269 C807.38,710.6569 865.6268,749.7251 906.2168,776.9451 " fill="none" id="Condicion1-to-ASIGNATURA_ASIGNADA" style="stroke:#181818;stroke-width:1;"/><polygon fill="#181818" points="911.2,780.2869,905.953,771.952,907.0473,777.5021,901.4973,778.5963,911.2,780.2869" style="stroke:#181818;stroke-width:1;"/><text fill="#000000" font-family="sans-serif" font-size="13" lengthAdjust="spacing" textLength="163.4775" x="865" y="746.3638">[Asignatura ya asignada]</text></g><!--link Condicion1 to LISTAR_TITULACIONES--><g id="link_Condicion1_LISTAR_TITULACIONES"><path d="M779.72,703.1569 C778.47,751.6169 773.5541,942.7889 771.7741,1012.0789 " fill="none" id="Condicion1-to-LISTAR_TITULACIONES" style="stroke:#181818;stroke-width:1;"/><polygon fill="#181818" points="771.62,1018.0769,775.8498,1009.1826,771.7484,1013.0785,767.8524,1008.9771,771.62,1018.0769" style="stroke:#181818;stroke-width:1;"/><text fill="#000000" font-family="sans-serif" font-size="13" lengthAdjust="spacing" textLength="155.5684" x="777" y="873.3638">[Asignatura sin asignar]</text></g><!--link ASIGNATURA_ASIGNADA to CONFIRMAR_CAMBIO--><g id="link_ASIGNATURA_ASIGNADA_CONFIRMAR_CAMBIO"><path d="M947,830.3969 C947,852.5369 947,879.1569 947,901.2669 " fill="none" id="ASIGNATURA_ASIGNADA-to-CONFIRMAR_CAMBIO" style="stroke:#181818;stroke-width:1;"/><polygon fill="#181818" points="947,907.2669,951,898.2669,947,902.2669,943,898.2669,947,907.2669" style="stroke:#181818;stroke-width:1;"/><text fill="#000000" font-family="sans-serif" font-size="13" lengthAdjust="spacing" textLength="258.3623" x="948" y="873.3638">T&#233;cnico confirma cambiar la asignaci&#243;n</text></g><!--link CONFIRMAR_CAMBIO to LISTAR_TITULACIONES--><g id="link_CONFIRMAR_CAMBIO_LISTAR_TITULACIONES"><path d="M907.94,957.4869 C878.77,975.5469 844.1907,996.9674 815.0507,1015.0174 " fill="none" id="CONFIRMAR_CAMBIO-to-LISTAR_TITULACIONES" style="stroke:#181818;stroke-width:1;"/><polygon fill="#181818" points="809.95,1018.1769,819.7074,1016.8381,814.2006,1015.5439,815.4948,1010.0371,809.95,1018.1769" style="stroke:#181818;stroke-width:1;"/></g><!--link LISTAR_TITULACIONES to SELECCIONAR_TITULACION--><g id="link_LISTAR_TITULACIONES_SELECCIONAR_TITULACION"><path d="M771,1068.3969 C771,1090.5369 771,1117.1569 771,1139.2669 " fill="none" id="LISTAR_TITULACIONES-to-SELECCIONAR_TITULACION" style="stroke:#181818;stroke-width:1;"/><polygon fill="#181818" points="771,1145.2669,775,1136.2669,771,1140.2669,767,1136.2669,771,1145.2669" style="stroke:#181818;stroke-width:1;"/><text fill="#000000" font-family="sans-serif" font-size="13" lengthAdjust="spacing" textLength="240.4937" x="772" y="1111.3638">Sistema lista titulaciones disponibles</text></g><!--link SELECCIONAR_TITULACION to ASOCIAR_ASIGNATURA--><g id="link_SELECCIONAR_TITULACION_ASOCIAR_ASIGNATURA"><path d="M771,1195.3969 C771,1217.5369 771,1244.1569 771,1266.2669 " fill="none" id="SELECCIONAR_TITULACION-to-ASOCIAR_ASIGNATURA" style="stroke:#181818;stroke-width:1;"/><polygon fill="#181818" points="771,1272.2669,775,1263.2669,771,1267.2669,767,1263.2669,771,1272.2669" style="stroke:#181818;stroke-width:1;"/><text fill="#000000" font-family="sans-serif" font-size="13" lengthAdjust="spacing" textLength="313.3711" x="772" y="1238.3638">T&#233;cnico selecciona la titulaci&#243;n correspondiente</text></g><!--link ASOCIAR_ASIGNATURA to Condicion2--><g id="link_ASOCIAR_ASIGNATURA_Condicion2"><path d="M731.31,1322.3269 C686.08,1349.7069 620.6526,1389.3194 598.2226,1402.8994 " fill="none" id="ASOCIAR_ASIGNATURA-to-Condicion2" style="stroke:#181818;stroke-width:1;"/><polygon fill="#181818" points="593.09,1406.0069,602.8606,1404.7674,597.3672,1403.4173,598.7172,1397.9239,593.09,1406.0069" style="stroke:#181818;stroke-width:1;"/><text fill="#000000" font-family="sans-serif" font-size="13" lengthAdjust="spacing" textLength="246.4541" x="680" y="1365.3638">Sistema intenta guardar la asociaci&#243;n</text></g><!--link Condicion2 to NOTIFICAR_EXITO--><g id="link_Condicion2_NOTIFICAR_EXITO"><path d="M575.02,1412.5069 C506.52,1413.9069 139.39,1422.8269 101,1453.2969 C87,1464.4169 82.227,1478.2328 80.047,1494.0928 " fill="none" id="Condicion2-to-NOTIFICAR_EXITO" style="stroke:#181818;stroke-width:1;"/><polygon fill="#181818" points="79.23,1500.0369,84.4183,1491.6654,79.9109,1495.0834,76.4928,1490.576,79.23,1500.0369" style="stroke:#181818;stroke-width:1;"/><text fill="#000000" font-family="sans-serif" font-size="13" lengthAdjust="spacing" textLength="466.375" x="102" y="1466.3638">[Guardado exitoso] Sistema notifica que la asignatura ha sido asignada</text></g><!--link Condicion2 to ERROR_TECNICO--><g id="link_Condicion2_ERROR_TECNICO"><path d="M582.63,1420.3569 C578.13,1432.5069 571.96,1455.6369 583,1470.2969 C592.19,1482.5069 612.3764,1491.2001 642.1864,1499.4301 " fill="none" id="Condicion2-to-ERROR_TECNICO" style="stroke:#181818;stroke-width:1;"/><polygon fill="#181818" points="647.97,1501.0269,640.3591,1494.776,643.1503,1499.6962,638.2301,1502.4875,647.97,1501.0269" style="stroke:#181818;stroke-width:1;"/><text fill="#000000" font-family="sans-serif" font-size="13" lengthAdjust="spacing" textLength="345.9727" x="584" y="1466.3638">[Error t&#233;cnico] Sistema permite reintentar o cancelar</text></g><!--link ERROR_TECNICO to ASOCIAR_ASIGNATURA--><g id="link_ERROR_TECNICO_ASOCIAR_ASIGNATURA"><path d="M894.12,1502.7169 C909.73,1494.9269 923.79,1484.4369 934,1470.2969 C964.7,1427.7769 964.7,1394.8169 934,1352.2969 C924.84,1339.6069 917.8446,1332.7351 904.1446,1325.2451 " fill="none" id="ERROR_TECNICO-to-ASOCIAR_ASIGNATURA" style="stroke:#181818;stroke-width:1;"/><polygon fill="#181818" points="898.88,1322.3669,904.8581,1330.1939,903.2672,1324.7654,908.6957,1323.1745,898.88,1322.3669" style="stroke:#181818;stroke-width:1;"/><text fill="#000000" font-family="sans-serif" font-size="13" lengthAdjust="spacing" textLength="255.3472" x="959" y="1415.8638">T&#233;cnico reintenta asignar la asignatura</text></g><!--link NOTIFICAR_EXITO to FINAL--><g id="link_NOTIFICAR_EXITO_FINAL"><path d="M78,1550.4869 C78,1568.5469 78,1587.1269 78,1605.1769 " fill="none" id="NOTIFICAR_EXITO-to-FINAL" style="stroke:#181818;stroke-width:1;"/><polygon fill="#181818" points="78,1611.1769,82,1602.1769,78,1606.1769,74,1602.1769,78,1611.1769" style="stroke:#181818;stroke-width:1;"/></g><!--SRC=[XLMxRjim5Dtv5HVUCpHZ40HGPCLWuKY6fG0j2aDW92OX89CkIGFD9sJkrZ_etAshVwmaJTeqBQEJpCjxphbFMZCzKCWKU-L4-g_UIW846gQt0-dOxWz7I6cYAU0IvxZoXuaxPKkeYnhlVfOJ80gyhRMsgWoUZqMv-mMB9IvplCZcpjFOdjg3ANZESTqOogp6ip9hdfPP3LDSBweIty-BsW7tBcta4i1rCIzo4s1vmk10qLM4J5GRt3pDC-jLN9IDVSPqmtqeI2nyn0PaNfKFUFbeS7dsU8yhc1O-yYF3mQVT-mHiLbUk_CTq83kJzquZEPTLWnzmRWXs7rzmKpdtWx4jhCtxFk3IT2XgPfrzBcvYuQ-PFqqpBnkksc1FTLsCDr0ibvMfskuZDvEp3yAPsgPmbY2R2zwpZWd-2MvlkpV1EdftbzvTntTeFwrmTNMNZ2NS6C7V7MUTWDx0oS1wqeCIWs7H19YvOMOT55Lk-XEq9JoTNaDOCwNfci26oZKpCIKSy0xhBLNQR1OTO4tvxYzi9ECTsv019MnMu7pAuwWL7MXdCoOmcHbQ-qkQseNrLHCqGc1vnnSXIc0mNn9JGS_KHd3sF525Bi0jSzIXyKYtFEP5A09O_CZC6A9lqPlq7l0zMQNeaVLCq8fn3vShXCRKN1R9jiMvT8A_C6bgr97ristk40BQlv9ds0k18JGMRTgTu-LPTxH_cWMdbziJuVVbJL-22sqQZlnsS3iX9RKAFQDSKpJ2SzBzwoXQPW3SnFkw9R8FzH9cB_o_IWIo7CdhO_itSyXU0Ft1j51YTU3cGhCNrX7ulgN7HhXElzbc6qmObbJdv86nAeMKGeBsnLYTBREaFXC9PWe8x-X093gb-N-D3onX34_3HYZDtrAwj_SV]--></g></svg>