<svg xmlns="http://www.w3.org/2000/svg" xmlns:xlink="http://www.w3.org/1999/xlink" contentStyleType="text/css" height="1605px" preserveAspectRatio="none" style="width:1182px;height:1605px;background:#FFFFFF;" version="1.1" viewBox="0 0 1182 1605" width="1182px" zoomAndPan="magnify"><title>Asignar Gu&#237;as Docentes a Profesor</title><defs/><g><text fill="#000000" font-family="sans-serif" font-size="14" font-weight="bold" lengthAdjust="spacing" textLength="274.0322" x="447.2615" y="22.9951">Asignar Gu&#237;as Docentes a Profesor</text><g id="INICIO"><rect fill="#F1F1F1" height="50" rx="12.5" ry="12.5" style="stroke:#181818;stroke-width:0.5;" width="63.6543" x="732.04" y="44.2969"/><line style="stroke:#181818;stroke-width:0.5;" x1="732.04" x2="795.6943" y1="70.5938" y2="70.5938"/><text fill="#000000" font-family="sans-serif" font-size="14" lengthAdjust="spacing" textLength="43.6543" x="742.04" y="62.292">INICIO</text></g><g id="INICIAR_SESION"><rect fill="#F1F1F1" height="50" rx="12.5" ry="12.5" style="stroke:#181818;stroke-width:0.5;" width="128.6299" x="699.54" y="171.2969"/><line style="stroke:#181818;stroke-width:0.5;" x1="699.54" x2="828.1699" y1="197.5938" y2="197.5938"/><text fill="#000000" font-family="sans-serif" font-size="14" lengthAdjust="spacing" textLength="108.6299" x="709.54" y="189.292">INICIAR SESI&#211;N</text></g><g id="MENU_PRINCIPAL"><rect fill="#F1F1F1" height="50" rx="12.5" ry="12.5" style="stroke:#181818;stroke-width:0.5;" width="138.5898" x="694.54" y="298.2969"/><line style="stroke:#181818;stroke-width:0.5;" x1="694.54" x2="833.1298" y1="324.5938" y2="324.5938"/><text fill="#000000" font-family="sans-serif" font-size="14" lengthAdjust="spacing" textLength="118.5898" x="704.54" y="316.292">MEN&#218; PRINCIPAL</text></g><g id="LISTAR_GUIAS"><rect fill="#F1F1F1" height="50" rx="12.5" ry="12.5" style="stroke:#181818;stroke-width:0.5;" width="214.2568" x="657.04" y="425.2969"/><line style="stroke:#181818;stroke-width:0.5;" x1="657.04" x2="871.2968" y1="451.5938" y2="451.5938"/><text fill="#000000" font-family="sans-serif" font-size="14" lengthAdjust="spacing" textLength="194.2568" x="667.04" y="443.292">LISTAR GU&#205;AS DISPONIBLES</text></g><g id="SELECCIONAR_GUIA"><rect fill="#F1F1F1" height="50" rx="12.5" ry="12.5" style="stroke:#181818;stroke-width:0.5;" width="158.1064" x="685.04" y="552.2969"/><line style="stroke:#181818;stroke-width:0.5;" x1="685.04" x2="843.1464" y1="578.5938" y2="578.5938"/><text fill="#000000" font-family="sans-serif" font-size="14" lengthAdjust="spacing" textLength="138.1064" x="695.04" y="570.292">SELECCIONAR GU&#205;A</text></g><g id="LISTAR_PROFESORES"><rect fill="#F1F1F1" height="50" rx="12.5" ry="12.5" style="stroke:#181818;stroke-width:0.5;" width="264.0225" x="632.04" y="907.2969"/><line style="stroke:#181818;stroke-width:0.5;" x1="632.04" x2="896.0625" y1="933.5938" y2="933.5938"/><text fill="#000000" font-family="sans-serif" font-size="14" lengthAdjust="spacing" textLength="244.0225" x="642.04" y="925.292">LISTAR PROFESORES DISPONIBLES</text></g><g id="SELECCIONAR_PROFESOR"><rect fill="#F1F1F1" height="50" rx="12.5" ry="12.5" style="stroke:#181818;stroke-width:0.5;" width="199.0264" x="408.54" y="1135.2969"/><line style="stroke:#181818;stroke-width:0.5;" x1="408.54" x2="607.5664" y1="1161.5938" y2="1161.5938"/><text fill="#000000" font-family="sans-serif" font-size="14" lengthAdjust="spacing" textLength="179.0264" x="418.54" y="1153.292">SELECCIONAR PROFESOR</text></g><g id="VALIDAR_ASIGNACION"><rect fill="#F1F1F1" height="50" rx="12.5" ry="12.5" style="stroke:#181818;stroke-width:0.5;" width="174.5059" x="328.54" y="1295.2969"/><line style="stroke:#181818;stroke-width:0.5;" x1="328.54" x2="503.0459" y1="1321.5938" y2="1321.5938"/><text fill="#000000" font-family="sans-serif" font-size="14" lengthAdjust="spacing" textLength="154.5059" x="338.54" y="1313.292">VALIDAR ASIGNACI&#211;N</text></g><g id="NOTIFICAR_EXITO"><rect fill="#F1F1F1" height="50" rx="12.5" ry="12.5" style="stroke:#181818;stroke-width:0.5;" width="253.8232" x="41.04" y="1422.2969"/><line style="stroke:#181818;stroke-width:0.5;" x1="41.04" x2="294.8632" y1="1448.5938" y2="1448.5938"/><text fill="#000000" font-family="sans-serif" font-size="14" lengthAdjust="spacing" textLength="233.8232" x="51.04" y="1440.292">NOTIFICAR ASIGNACI&#211;N EXITOSA</text></g><g id="FINAL"><rect fill="#F1F1F1" height="50" rx="12.5" ry="12.5" style="stroke:#181818;stroke-width:0.5;" width="60.0313" x="500.04" y="1549.2969"/><line style="stroke:#181818;stroke-width:0.5;" x1="500.04" x2="560.0713" y1="1575.5938" y2="1575.5938"/><text fill="#000000" font-family="sans-serif" font-size="14" lengthAdjust="spacing" textLength="40.0313" x="510.04" y="1567.292">FINAL</text></g><g id="GUIA_ASIGNADA"><rect fill="#F1F1F1" height="50" rx="12.5" ry="12.5" style="stroke:#181818;stroke-width:0.5;" width="227.6826" x="882.04" y="780.2969"/><line style="stroke:#181818;stroke-width:0.5;" x1="882.04" x2="1109.7226" y1="806.5938" y2="806.5938"/><text fill="#000000" font-family="sans-serif" font-size="14" lengthAdjust="spacing" textLength="207.6826" x="892.04" y="798.292">MENSAJE: GU&#205;A YA ASIGNADA</text></g><g id="SIN_PROFESORES"><rect fill="#F1F1F1" height="50" rx="12.5" ry="12.5" style="stroke:#181818;stroke-width:0.5;" width="341.9521" x="797.04" y="1215.2969"/><line style="stroke:#181818;stroke-width:0.5;" x1="797.04" x2="1138.9921" y1="1241.5938" y2="1241.5938"/><text fill="#000000" font-family="sans-serif" font-size="14" lengthAdjust="spacing" textLength="321.9521" x="807.04" y="1233.292">MENSAJE: NO HAY PROFESORES DISPONIBLES</text></g><g id="ERROR_TECNICO"><rect fill="#F1F1F1" height="50" rx="12.5" ry="12.5" style="stroke:#181818;stroke-width:0.5;" width="246.3379" x="370.04" y="1422.2969"/><line style="stroke:#181818;stroke-width:0.5;" x1="370.04" x2="616.3779" y1="1448.5938" y2="1448.5938"/><text fill="#000000" font-family="sans-serif" font-size="14" lengthAdjust="spacing" textLength="226.3379" x="380.04" y="1440.292">NOTIFICACI&#211;N: ERROR T&#201;CNICO</text></g><g id="elem_Condicion1"><polygon fill="#F1F1F1" points="764.04,679.2969,776.04,691.2969,764.04,703.2969,752.04,691.2969,764.04,679.2969" style="stroke:#181818;stroke-width:0.5;"/></g><g id="elem_Condicion2"><polygon fill="#F1F1F1" points="764.04,1034.2969,776.04,1046.2969,764.04,1058.2969,752.04,1046.2969,764.04,1034.2969" style="stroke:#181818;stroke-width:0.5;"/></g><!--link INICIO to INICIAR_SESION--><g id="link_INICIO_INICIAR_SESION"><path d="M764.04,94.3969 C764.04,116.5369 764.04,143.1569 764.04,165.2669 " fill="none" id="INICIO-to-INICIAR_SESION" style="stroke:#181818;stroke-width:1;"/><polygon fill="#181818" points="764.04,171.2669,768.04,162.2669,764.04,166.2669,760.04,162.2669,764.04,171.2669" style="stroke:#181818;stroke-width:1;"/><text fill="#000000" font-family="sans-serif" font-size="13" lengthAdjust="spacing" textLength="262.3423" x="765.04" y="137.3638">T&#233;cnico de Calidad solicita iniciar sesi&#243;n</text></g><!--link INICIAR_SESION to MENU_PRINCIPAL--><g id="link_INICIAR_SESION_MENU_PRINCIPAL"><path d="M764.04,221.3969 C764.04,243.5369 764.04,270.1569 764.04,292.2669 " fill="none" id="INICIAR_SESION-to-MENU_PRINCIPAL" style="stroke:#181818;stroke-width:1;"/><polygon fill="#181818" points="764.04,298.2669,768.04,289.2669,764.04,293.2669,760.04,289.2669,764.04,298.2669" style="stroke:#181818;stroke-width:1;"/><text fill="#000000" font-family="sans-serif" font-size="13" lengthAdjust="spacing" textLength="383.8301" x="765.04" y="264.3638">Sistema permite iniciar sesi&#243;n y muestra el men&#250; principal</text></g><!--link MENU_PRINCIPAL to LISTAR_GUIAS--><g id="link_MENU_PRINCIPAL_LISTAR_GUIAS"><path d="M764.04,348.3969 C764.04,370.5369 764.04,397.1569 764.04,419.2669 " fill="none" id="MENU_PRINCIPAL-to-LISTAR_GUIAS" style="stroke:#181818;stroke-width:1;"/><polygon fill="#181818" points="764.04,425.2669,768.04,416.2669,764.04,420.2669,760.04,416.2669,764.04,425.2669" style="stroke:#181818;stroke-width:1;"/><text fill="#000000" font-family="sans-serif" font-size="13" lengthAdjust="spacing" textLength="304.332" x="765.04" y="391.3638">T&#233;cnico selecciona "Gestionar gu&#237;as docentes"</text></g><!--link LISTAR_GUIAS to SELECCIONAR_GUIA--><g id="link_LISTAR_GUIAS_SELECCIONAR_GUIA"><path d="M764.04,475.3969 C764.04,497.5369 764.04,524.1569 764.04,546.2669 " fill="none" id="LISTAR_GUIAS-to-SELECCIONAR_GUIA" style="stroke:#181818;stroke-width:1;"/><polygon fill="#181818" points="764.04,552.2669,768.04,543.2669,764.04,547.2669,760.04,543.2669,764.04,552.2669" style="stroke:#181818;stroke-width:1;"/><text fill="#000000" font-family="sans-serif" font-size="13" lengthAdjust="spacing" textLength="263.5801" x="765.04" y="518.3638">Sistema lista gu&#237;as docentes disponibles</text></g><!--link SELECCIONAR_GUIA to Condicion1--><g id="link_SELECCIONAR_GUIA_Condicion1"><path d="M764.04,602.3269 C764.04,626.1069 764.04,655.4569 764.04,673.2369 " fill="none" id="SELECCIONAR_GUIA-to-Condicion1" style="stroke:#181818;stroke-width:1;"/><polygon fill="#181818" points="764.04,679.2369,768.04,670.2369,764.04,674.2369,760.04,670.2369,764.04,679.2369" style="stroke:#181818;stroke-width:1;"/><text fill="#000000" font-family="sans-serif" font-size="13" lengthAdjust="spacing" textLength="183.3965" x="765.04" y="645.3638">T&#233;cnico selecciona una gu&#237;a</text></g><!--link Condicion1 to GUIA_ASIGNADA--><g id="link_Condicion1_GUIA_ASIGNADA"><path d="M771.5,695.8969 C797.91,708.6469 883.0967,749.7684 940.8267,777.6384 " fill="none" id="Condicion1-to-GUIA_ASIGNADA" style="stroke:#181818;stroke-width:1;"/><polygon fill="#181818" points="946.23,780.2469,939.8641,772.7319,941.7273,778.0731,936.386,779.9363,946.23,780.2469" style="stroke:#181818;stroke-width:1;"/><text fill="#000000" font-family="sans-serif" font-size="13" lengthAdjust="spacing" textLength="122.9858" x="881.04" y="746.3638">[Gu&#237;a ya asignada]</text></g><!--link Condicion1 to LISTAR_PROFESORES--><g id="link_Condicion1_LISTAR_PROFESORES"><path d="M762.32,701.7569 C759.5,717.8369 754,751.5269 752.04,780.2969 C749,825.1669 754.4699,871.5363 759.0399,901.3163 " fill="none" id="Condicion1-to-LISTAR_PROFESORES" style="stroke:#181818;stroke-width:1;"/><polygon fill="#181818" points="759.95,907.2469,762.5386,897.7443,759.1916,902.3047,754.6311,898.9577,759.95,907.2469" style="stroke:#181818;stroke-width:1;"/><text fill="#000000" font-family="sans-serif" font-size="13" lengthAdjust="spacing" textLength="110.7222" x="753.04" y="809.8638">[Gu&#237;a disponible]</text></g><!--link GUIA_ASIGNADA to LISTAR_PROFESORES--><g id="link_GUIA_ASIGNADA_LISTAR_PROFESORES"><path d="M951.31,830.3969 C910.23,852.5369 854.9622,882.3111 813.9222,904.4211 " fill="none" id="GUIA_ASIGNADA-to-LISTAR_PROFESORES" style="stroke:#181818;stroke-width:1;"/><polygon fill="#181818" points="808.64,907.2669,818.4605,906.5197,813.0418,904.8954,814.6661,899.4768,808.64,907.2669" style="stroke:#181818;stroke-width:1;"/><text fill="#000000" font-family="sans-serif" font-size="13" lengthAdjust="spacing" textLength="225.2148" x="894.04" y="873.3638">T&#233;cnico confirma reasignar la gu&#237;a</text></g><!--link LISTAR_PROFESORES to Condicion2--><g id="link_LISTAR_PROFESORES_Condicion2"><path d="M764.04,957.3269 C764.04,981.1069 764.04,1010.4569 764.04,1028.2369 " fill="none" id="LISTAR_PROFESORES-to-Condicion2" style="stroke:#181818;stroke-width:1;"/><polygon fill="#181818" points="764.04,1034.2369,768.04,1025.2369,764.04,1029.2369,760.04,1025.2369,764.04,1034.2369" style="stroke:#181818;stroke-width:1;"/><text fill="#000000" font-family="sans-serif" font-size="13" lengthAdjust="spacing" textLength="234.1143" x="765.04" y="1000.3638">Sistema lista profesores disponibles</text></g><!--link Condicion2 to SIN_PROFESORES--><g id="link_Condicion2_SIN_PROFESORES"><path d="M771.78,1050.9169 C785.09,1057.3369 812.82,1071.6469 833.04,1088.2969 C880.55,1127.4069 922.5522,1178.8354 946.6822,1210.4854 " fill="none" id="Condicion2-to-SIN_PROFESORES" style="stroke:#181818;stroke-width:1;"/><polygon fill="#181818" points="950.32,1215.2569,948.0443,1205.6745,947.2885,1211.2807,941.6824,1210.5249,950.32,1215.2569" style="stroke:#181818;stroke-width:1;"/><text fill="#000000" font-family="sans-serif" font-size="13" lengthAdjust="spacing" textLength="206.4512" x="852.04" y="1101.3638">[No hay profesores registrados]</text></g><!--link Condicion2 to SELECCIONAR_PROFESOR--><g id="link_Condicion2_SELECCIONAR_PROFESOR"><path d="M756.38,1050.6469 C728.01,1063.0569 632.767,1104.7321 568.647,1132.7821 " fill="none" id="Condicion2-to-SELECCIONAR_PROFESOR" style="stroke:#181818;stroke-width:1;"/><polygon fill="#181818" points="563.15,1135.1869,572.9987,1135.2445,567.7309,1133.1829,569.7924,1127.9151,563.15,1135.1869" style="stroke:#181818;stroke-width:1;"/><text fill="#000000" font-family="sans-serif" font-size="13" lengthAdjust="spacing" textLength="156.1587" x="668.04" y="1101.3638">[Profesores disponibles]</text></g><!--link SIN_PROFESORES to FINAL--><g id="link_SIN_PROFESORES_FINAL"><path d="M963.86,1265.4169 C952.68,1321.6469 916.33,1461.0769 823.04,1519.2969 C779.27,1546.6169 631.7516,1563.5635 566.1316,1569.9735 " fill="none" id="SIN_PROFESORES-to-FINAL" style="stroke:#181818;stroke-width:1;"/><polygon fill="#181818" points="560.16,1570.5569,569.5062,1573.6629,565.1363,1570.0708,568.7285,1565.7008,560.16,1570.5569" style="stroke:#181818;stroke-width:1;"/><text fill="#000000" font-family="sans-serif" font-size="13" lengthAdjust="spacing" textLength="243.5151" x="931.04" y="1388.3638">Sistema sugiere registrar un profesor</text></g><!--link SELECCIONAR_PROFESOR to VALIDAR_ASIGNACION--><g id="link_SELECCIONAR_PROFESOR_VALIDAR_ASIGNACION"><path d="M470.12,1185.4969 C459.68,1193.8069 449.26,1203.9169 442.04,1215.2969 C426.6,1239.6569 421.0008,1266.6856 418.4608,1288.9256 " fill="none" id="SELECCIONAR_PROFESOR-to-VALIDAR_ASIGNACION" style="stroke:#181818;stroke-width:1;"/><polygon fill="#181818" points="417.78,1294.8869,422.7754,1286.3989,418.3474,1289.9192,414.8271,1285.4911,417.78,1294.8869" style="stroke:#181818;stroke-width:1;"/><text fill="#000000" font-family="sans-serif" font-size="13" lengthAdjust="spacing" textLength="335.4165" x="443.04" y="1244.8638">T&#233;cnico selecciona un profesor para asignar la gu&#237;a</text></g><!--link VALIDAR_ASIGNACION to NOTIFICAR_EXITO--><g id="link_VALIDAR_ASIGNACION_NOTIFICAR_EXITO"><path d="M328.31,1320.5569 C225.05,1321.7769 62.7,1330.9569 24.04,1375.2969 C6,1395.9969 17.5748,1409.0848 45.5248,1420.0548 " fill="none" id="VALIDAR_ASIGNACION-to-NOTIFICAR_EXITO" style="stroke:#181818;stroke-width:1;"/><polygon fill="#181818" points="51.11,1422.2469,44.1936,1415.2352,46.4557,1420.4201,41.2708,1422.6822,51.11,1422.2469" style="stroke:#181818;stroke-width:1;"/><text fill="#000000" font-family="sans-serif" font-size="13" lengthAdjust="spacing" textLength="324.873" x="25.04" y="1388.3638">[Validaci&#243;n exitosa] Sistema guarda la asignaci&#243;n</text></g><!--link VALIDAR_ASIGNACION to ERROR_TECNICO--><g id="link_VALIDAR_ASIGNACION_ERROR_TECNICO"><path d="M379.63,1345.4069 C363.9,1358.9069 351.27,1376.2069 362.04,1392.2969 C370.6,1405.0769 377.5241,1411.9328 391.0541,1419.3828 " fill="none" id="VALIDAR_ASIGNACION-to-ERROR_TECNICO" style="stroke:#181818;stroke-width:1;"/><polygon fill="#181818" points="396.31,1422.2769,390.3555,1414.4319,391.9301,1419.8652,386.4968,1421.4397,396.31,1422.2769" style="stroke:#181818;stroke-width:1;"/><text fill="#000000" font-family="sans-serif" font-size="13" lengthAdjust="spacing" textLength="274.333" x="363.04" y="1388.3638">[Error t&#233;cnico] Sistema permite reintentar</text></g><!--link ERROR_TECNICO to VALIDAR_ASIGNACION--><g id="link_ERROR_TECNICO_VALIDAR_ASIGNACION"><path d="M616.15,1422.5569 C642.91,1411.7869 658.82,1396.5569 642.04,1375.2969 C624.67,1353.2869 565.4762,1340.1296 509.5662,1331.9096 " fill="none" id="ERROR_TECNICO-to-VALIDAR_ASIGNACION" style="stroke:#181818;stroke-width:1;"/><polygon fill="#181818" points="503.63,1331.0369,511.9524,1336.3035,508.5768,1331.7642,513.1161,1328.3885,503.63,1331.0369" style="stroke:#181818;stroke-width:1;"/><text fill="#000000" font-family="sans-serif" font-size="13" lengthAdjust="spacing" textLength="258.8638" x="650.04" y="1388.3638">T&#233;cnico reintenta guardar la asignaci&#243;n</text></g><!--link NOTIFICAR_EXITO to FINAL--><g id="link_NOTIFICAR_EXITO_FINAL"><path d="M237.84,1472.3969 C316.94,1499.7069 436.6287,1541.0382 493.9587,1560.8382 " fill="none" id="NOTIFICAR_EXITO-to-FINAL" style="stroke:#181818;stroke-width:1;"/><polygon fill="#181818" points="499.63,1562.7969,492.4289,1556.078,494.9039,1561.1646,489.8173,1563.6397,499.63,1562.7969" style="stroke:#181818;stroke-width:1;"/><text fill="#000000" font-family="sans-serif" font-size="13" lengthAdjust="spacing" textLength="442.2285" x="372.04" y="1515.3638">Sistema notifica al T&#233;cnico de Calidad que la asignaci&#243;n fue exitosa</text></g><!--SRC=[XLGzRzim4DtrAmxUCpHZ40HGPSLbuKg6wGGD2aDW9TeX88ikAGFDJ-ZGgLl_GOTEtRhgZ-L8VLYYvDQBxUEzTu-FTrUACkVWQx4lc8B5gVhDDCnboekIQs2mKdB7jLGUVdJ9IWua8W69cpyp-yzV0mqfgNv4Cq1u4qjCB8xQp0zXLFs4rPf40LdvIvk9iOUa2xMPIq8tIBbugBxx5EQ4hkA8l5s6r6BgqsJnG7pQ8cYu30DK5RKmczcBsdI7VxMExqCQhyEBDSuPKuNQqr6jzg05FVfBCaU0JyaYyeFEfoQUjF6pLr6y8VSa668W_4WsCQtlrcKaDje0xqc4DlOSf_xxyAQs19xyXcrUKnXBaZOomaGnlFEV_cKI9T64GwqmA_a6mlKwNiEc-XPWKyGMPqF99hIHLcmWYqoaGXPluFOsVPOYvNTtxjbr_yoh6n6khkwSZeCRBFWhBKGg8KCuoqN6Cj0oHvQIWS0JWTskkHRLdy9pq8Pms9X8I8Kk-O71aQk3G4qE1xp0uSHrgHZm70wygFx2KOaY5KUMUmwRAT3luhvUpNEUchioc2sGqFnIiA_dCclcSkODu8RFxVMUv1o_cKi1cT17MOZFETVU26mOUoyohUzKDAoUryirq45d8VgJtIlmml3vpQB9sDQ5Z2Rk33ihtNhUaFeIifERoc8d59gWE6jsNDwf7YC7zxuUUNXibg5ZNmzXds8m5-OUaOHdzjA7AxuNfbiogRSZ_CGgCIohoUheYLFGSDX5qDElJtl15U_gAdozJe_dJPOqFECLTR4PEZeuCjM-TC_k2IfJmLbavgAFTc1JErVygoYbPjlk9liJKnapj7K5ctQ9VB1g37Me50eicmjiHsEjkC3fA4g6fWp1_tUZmpOQbIlIlUhKGnMo53kH8Z2VN69VJjoXXHs66fjU0G00]--></g></svg>