<svg xmlns="http://www.w3.org/2000/svg" xmlns:xlink="http://www.w3.org/1999/xlink" contentStyleType="text/css" height="1377px" preserveAspectRatio="none" style="width:1735px;height:1377px;background:#FFFFFF;" version="1.1" viewBox="0 0 1735 1377" width="1735px" zoomAndPan="magnify"><defs/><g><path d="M19.5,117 L1709.98,117 A12.5,12.5 0 0 1 1722.48,129.5 L1722.48,143.2969 L7,143.2969 L7,129.5 A12.5,12.5 0 0 1 19.5,117 " fill="#F1F1F1" style="stroke:#F1F1F1;stroke-width:1;"/><rect fill="none" height="1254.2969" rx="12.5" ry="12.5" style="stroke:#181818;stroke-width:0.5;" width="1715.48" x="7" y="117"/><line style="stroke:#181818;stroke-width:0.5;" x1="7" x2="1722.48" y1="143.2969" y2="143.2969"/><text fill="#000000" font-family="sans-serif" font-size="14" lengthAdjust="spacing" textLength="85.0459" x="822.2171" y="134.9951">AsignarGu&#237;a</text><g id="AsignarGu&#237;a.SolicitarSelecci&#243;nGu&#237;a"><rect fill="#F1F1F1" height="50" rx="12.5" ry="12.5" style="stroke:#181818;stroke-width:0.5;" width="50" x="549.48" y="260.2969"/><line style="stroke:#181818;stroke-width:0.5;" x1="549.48" x2="599.48" y1="286.5938" y2="286.5938"/><text fill="#000000" font-family="sans-serif" font-size="14" lengthAdjust="spacing" textLength="4.4502" x="572.2549" y="278.292">&#160;</text></g><g id="AsignarGu&#237;a.PermitirSelecci&#243;nGu&#237;a"><rect fill="#F1F1F1" height="50" rx="12.5" ry="12.5" style="stroke:#181818;stroke-width:0.5;" width="50" x="549.48" y="396.2969"/><line style="stroke:#181818;stroke-width:0.5;" x1="549.48" x2="599.48" y1="422.5938" y2="422.5938"/><text fill="#000000" font-family="sans-serif" font-size="14" lengthAdjust="spacing" textLength="4.4502" x="572.2549" y="414.292">&#160;</text></g><g id="AsignarGu&#237;a.SolicitarPresentaci&#243;nProfesores"><rect fill="#F1F1F1" height="50" rx="12.5" ry="12.5" style="stroke:#181818;stroke-width:0.5;" width="50" x="549.48" y="532.2969"/><line style="stroke:#181818;stroke-width:0.5;" x1="549.48" x2="599.48" y1="558.5938" y2="558.5938"/><text fill="#000000" font-family="sans-serif" font-size="14" lengthAdjust="spacing" textLength="4.4502" x="572.2549" y="550.292">&#160;</text></g><g id="AsignarGu&#237;a.PermitirPresentaci&#243;nProfesores"><rect fill="#F1F1F1" height="50" rx="12.5" ry="12.5" style="stroke:#181818;stroke-width:0.5;" width="50" x="549.48" y="668.2969"/><line style="stroke:#181818;stroke-width:0.5;" x1="549.48" x2="599.48" y1="694.5938" y2="694.5938"/><text fill="#000000" font-family="sans-serif" font-size="14" lengthAdjust="spacing" textLength="4.4502" x="572.2549" y="686.292">&#160;</text></g><g id="AsignarGu&#237;a.SolicitarSelecci&#243;nProfesor"><rect fill="#F1F1F1" height="50" rx="12.5" ry="12.5" style="stroke:#181818;stroke-width:0.5;" width="50" x="549.48" y="804.2969"/><line style="stroke:#181818;stroke-width:0.5;" x1="549.48" x2="599.48" y1="830.5938" y2="830.5938"/><text fill="#000000" font-family="sans-serif" font-size="14" lengthAdjust="spacing" textLength="4.4502" x="572.2549" y="822.292">&#160;</text></g><g id="AsignarGu&#237;a.PermitirSelecci&#243;nProfesor"><rect fill="#F1F1F1" height="50" rx="12.5" ry="12.5" style="stroke:#181818;stroke-width:0.5;" width="50" x="549.48" y="940.2969"/><line style="stroke:#181818;stroke-width:0.5;" x1="549.48" x2="599.48" y1="966.5938" y2="966.5938"/><text fill="#000000" font-family="sans-serif" font-size="14" lengthAdjust="spacing" textLength="4.4502" x="572.2549" y="958.292">&#160;</text></g><g id="elem_ValidarAsignaci&#243;n"><polygon fill="#F1F1F1" points="574.48,1076.2969,586.48,1088.2969,574.48,1100.2969,562.48,1088.2969,574.48,1076.2969" style="stroke:#181818;stroke-width:0.5;"/></g><g id="AsignarGu&#237;a.MostrarNotificaci&#243;n"><rect fill="#F1F1F1" height="50" rx="12.5" ry="12.5" style="stroke:#181818;stroke-width:0.5;" width="50" x="238.48" y="1203.2969"/><line style="stroke:#181818;stroke-width:0.5;" x1="238.48" x2="288.48" y1="1229.5938" y2="1229.5938"/><text fill="#000000" font-family="sans-serif" font-size="14" lengthAdjust="spacing" textLength="4.4502" x="261.2549" y="1221.292">&#160;</text></g><g id="AsignarGu&#237;a.MostrarErrorGu&#237;aNoDisponible"><rect fill="#F1F1F1" height="50" rx="12.5" ry="12.5" style="stroke:#181818;stroke-width:0.5;" width="50" x="549.48" y="1203.2969"/><line style="stroke:#181818;stroke-width:0.5;" x1="549.48" x2="599.48" y1="1229.5938" y2="1229.5938"/><text fill="#000000" font-family="sans-serif" font-size="14" lengthAdjust="spacing" textLength="4.4502" x="572.2549" y="1221.292">&#160;</text></g><g id="AsignarGu&#237;a.MostrarErrorSinProfesores"><rect fill="#F1F1F1" height="50" rx="12.5" ry="12.5" style="stroke:#181818;stroke-width:0.5;" width="50" x="907.48" y="1203.2969"/><line style="stroke:#181818;stroke-width:0.5;" x1="907.48" x2="957.48" y1="1229.5938" y2="1229.5938"/><text fill="#000000" font-family="sans-serif" font-size="14" lengthAdjust="spacing" textLength="4.4502" x="930.2549" y="1221.292">&#160;</text></g><ellipse cx="574.48" cy="164.2969" fill="#222222" rx="10" ry="10" style="stroke:#222222;stroke-width:1;"/><ellipse cx="574.48" cy="1350.2969" fill="none" rx="11" ry="11" style="stroke:#222222;stroke-width:1;"/><ellipse cx="574.48" cy="1350.2969" fill="#222222" rx="6" ry="6" style="stroke:#222222;stroke-width:1;"/><!--link *start*AsignarGu?a to SolicitarSelecci?nGu?a--><g id="link_*start*AsignarGu&#237;a_SolicitarSelecci&#243;nGu&#237;a"><path d="M574.48,174.6369 C574.48,192.8269 574.48,227.5369 574.48,253.9069 " fill="none" id="*start*AsignarGu&#237;a-to-SolicitarSelecci&#243;nGu&#237;a" style="stroke:#181818;stroke-width:1;"/><polygon fill="#181818" points="574.48,259.9069,578.48,250.9069,574.48,254.9069,570.48,250.9069,574.48,259.9069" style="stroke:#181818;stroke-width:1;"/><path d="M579.48,197.2969 L579.48,237.2969 L836.48,237.2969 L836.48,207.2969 L826.48,197.2969 L579.48,197.2969 " fill="#FEFFDD" style="stroke:#181818;stroke-width:0.5;"/><path d="M826.48,197.2969 L826.48,207.2969 L836.48,207.2969 L826.48,197.2969 " fill="#FEFFDD" style="stroke:#181818;stroke-width:0.5;"/><text fill="#000000" font-family="sans-serif" font-size="13" font-weight="bold" lengthAdjust="spacing" textLength="196.4028" x="585.48" y="214.3638">T&#233;cnico de Calidad Solicita</text><ellipse cx="590.98" cy="225.0625" fill="#000000" rx="2.5" ry="2.5" style="stroke:#000000;stroke-width:0;"/><text fill="#000000" font-family="sans-serif" font-size="13" lengthAdjust="spacing" textLength="224.1421" x="597.48" y="229.4966">seleccionnar de una gu&#237;a docente.</text></g><!--link SolicitarSelecci?nGu?a to PermitirSelecci?nGu?a--><g id="link_SolicitarSelecci&#243;nGu&#237;a_PermitirSelecci&#243;nGu&#237;a"><path d="M574.48,310.5669 C574.48,334.8469 574.48,365.9869 574.48,390.2069 " fill="none" id="SolicitarSelecci&#243;nGu&#237;a-to-PermitirSelecci&#243;nGu&#237;a" style="stroke:#181818;stroke-width:1;"/><polygon fill="#181818" points="574.48,396.2069,578.48,387.2069,574.48,391.2069,570.48,387.2069,574.48,396.2069" style="stroke:#181818;stroke-width:1;"/><path d="M579.48,333.2969 L579.48,373.2969 L897.48,373.2969 L897.48,343.2969 L887.48,333.2969 L579.48,333.2969 " fill="#FEFFDD" style="stroke:#181818;stroke-width:0.5;"/><path d="M887.48,333.2969 L887.48,343.2969 L897.48,343.2969 L887.48,333.2969 " fill="#FEFFDD" style="stroke:#181818;stroke-width:0.5;"/><text fill="#000000" font-family="sans-serif" font-size="13" font-weight="bold" lengthAdjust="spacing" textLength="121.2212" x="585.48" y="350.3638">Sistema Permite</text><ellipse cx="590.98" cy="361.0625" fill="#000000" rx="2.5" ry="2.5" style="stroke:#000000;stroke-width:0;"/><text fill="#000000" font-family="sans-serif" font-size="13" lengthAdjust="spacing" textLength="285.2764" x="597.48" y="365.4966">introducir la selecci&#243;n de una gu&#237;a docente.</text></g><!--link PermitirSelecci?nGu?a to SolicitarPresentaci?nProfesores--><g id="link_PermitirSelecci&#243;nGu&#237;a_SolicitarPresentaci&#243;nProfesores"><path d="M574.48,446.5669 C574.48,470.8469 574.48,501.9869 574.48,526.2069 " fill="none" id="PermitirSelecci&#243;nGu&#237;a-to-SolicitarPresentaci&#243;nProfesores" style="stroke:#181818;stroke-width:1;"/><polygon fill="#181818" points="574.48,532.2069,578.48,523.2069,574.48,527.2069,570.48,523.2069,574.48,532.2069" style="stroke:#181818;stroke-width:1;"/><path d="M579.48,469.2969 L579.48,509.2969 L909.48,509.2969 L909.48,479.2969 L899.48,469.2969 L579.48,469.2969 " fill="#FEFFDD" style="stroke:#181818;stroke-width:0.5;"/><path d="M899.48,469.2969 L899.48,479.2969 L909.48,479.2969 L899.48,469.2969 " fill="#FEFFDD" style="stroke:#181818;stroke-width:0.5;"/><text fill="#000000" font-family="sans-serif" font-size="13" font-weight="bold" lengthAdjust="spacing" textLength="196.4028" x="585.48" y="486.3638">T&#233;cnico de Calidad Solicita</text><ellipse cx="590.98" cy="497.0625" fill="#000000" rx="2.5" ry="2.5" style="stroke:#000000;stroke-width:0;"/><text fill="#000000" font-family="sans-serif" font-size="13" lengthAdjust="spacing" textLength="297.8574" x="597.48" y="501.4966">presentar una lista de profesores disponibles.</text></g><!--link SolicitarPresentaci?nProfesores to PermitirPresentaci?nProfesores--><g id="link_SolicitarPresentaci&#243;nProfesores_PermitirPresentaci&#243;nProfesores"><path d="M574.48,582.5669 C574.48,606.8469 574.48,637.9869 574.48,662.2069 " fill="none" id="SolicitarPresentaci&#243;nProfesores-to-PermitirPresentaci&#243;nProfesores" style="stroke:#181818;stroke-width:1;"/><polygon fill="#181818" points="574.48,668.2069,578.48,659.2069,574.48,663.2069,570.48,659.2069,574.48,668.2069" style="stroke:#181818;stroke-width:1;"/><path d="M579.48,605.2969 L579.48,645.2969 L990.48,645.2969 L990.48,615.2969 L980.48,605.2969 L579.48,605.2969 " fill="#FEFFDD" style="stroke:#181818;stroke-width:0.5;"/><path d="M980.48,605.2969 L980.48,615.2969 L990.48,615.2969 L980.48,605.2969 " fill="#FEFFDD" style="stroke:#181818;stroke-width:0.5;"/><text fill="#000000" font-family="sans-serif" font-size="13" font-weight="bold" lengthAdjust="spacing" textLength="121.2212" x="585.48" y="622.3638">Sistema Permite</text><ellipse cx="590.98" cy="633.0625" fill="#000000" rx="2.5" ry="2.5" style="stroke:#000000;stroke-width:0;"/><text fill="#000000" font-family="sans-serif" font-size="13" lengthAdjust="spacing" textLength="378.479" x="597.48" y="637.4966">la solicitud y presenta una lista de profesores disponibles.</text></g><!--link PermitirPresentaci?nProfesores to SolicitarSelecci?nProfesor--><g id="link_PermitirPresentaci&#243;nProfesores_SolicitarSelecci&#243;nProfesor"><path d="M574.48,718.5669 C574.48,742.8469 574.48,773.9869 574.48,798.2069 " fill="none" id="PermitirPresentaci&#243;nProfesores-to-SolicitarSelecci&#243;nProfesor" style="stroke:#181818;stroke-width:1;"/><polygon fill="#181818" points="574.48,804.2069,578.48,795.2069,574.48,799.2069,570.48,795.2069,574.48,804.2069" style="stroke:#181818;stroke-width:1;"/><path d="M579.48,741.2969 L579.48,781.2969 L796.48,781.2969 L796.48,751.2969 L786.48,741.2969 L579.48,741.2969 " fill="#FEFFDD" style="stroke:#181818;stroke-width:0.5;"/><path d="M786.48,741.2969 L786.48,751.2969 L796.48,751.2969 L786.48,741.2969 " fill="#FEFFDD" style="stroke:#181818;stroke-width:0.5;"/><text fill="#000000" font-family="sans-serif" font-size="13" font-weight="bold" lengthAdjust="spacing" textLength="196.4028" x="585.48" y="758.3638">T&#233;cnico de Calidad Solicita</text><ellipse cx="590.98" cy="769.0625" fill="#000000" rx="2.5" ry="2.5" style="stroke:#000000;stroke-width:0;"/><text fill="#000000" font-family="sans-serif" font-size="13" lengthAdjust="spacing" textLength="156.8633" x="597.48" y="773.4966">seleccionar un profesor.</text></g><!--link SolicitarSelecci?nProfesor to PermitirSelecci?nProfesor--><g id="link_SolicitarSelecci&#243;nProfesor_PermitirSelecci&#243;nProfesor"><path d="M574.48,854.5669 C574.48,878.8469 574.48,909.9869 574.48,934.2069 " fill="none" id="SolicitarSelecci&#243;nProfesor-to-PermitirSelecci&#243;nProfesor" style="stroke:#181818;stroke-width:1;"/><polygon fill="#181818" points="574.48,940.2069,578.48,931.2069,574.48,935.2069,570.48,931.2069,574.48,940.2069" style="stroke:#181818;stroke-width:1;"/><path d="M579.48,877.2969 L579.48,917.2969 L858.48,917.2969 L858.48,887.2969 L848.48,877.2969 L579.48,877.2969 " fill="#FEFFDD" style="stroke:#181818;stroke-width:0.5;"/><path d="M848.48,877.2969 L848.48,887.2969 L858.48,887.2969 L848.48,877.2969 " fill="#FEFFDD" style="stroke:#181818;stroke-width:0.5;"/><text fill="#000000" font-family="sans-serif" font-size="13" font-weight="bold" lengthAdjust="spacing" textLength="121.2212" x="585.48" y="894.3638">Sistema Permite</text><ellipse cx="590.98" cy="905.0625" fill="#000000" rx="2.5" ry="2.5" style="stroke:#000000;stroke-width:0;"/><text fill="#000000" font-family="sans-serif" font-size="13" lengthAdjust="spacing" textLength="246.6191" x="597.48" y="909.4966">introducir la selecci&#243;n de un profesor.</text></g><!--link PermitirSelecci?nProfesor to ValidarAsignaci?n--><g id="link_PermitirSelecci&#243;nProfesor_ValidarAsignaci&#243;n"><path d="M574.48,990.4969 C574.48,1016.5569 574.48,1050.9069 574.48,1070.2369 " fill="none" id="PermitirSelecci&#243;nProfesor-to-ValidarAsignaci&#243;n" style="stroke:#181818;stroke-width:1;"/><polygon fill="#181818" points="574.48,1076.2369,578.48,1067.2369,574.48,1071.2369,570.48,1067.2369,574.48,1076.2369" style="stroke:#181818;stroke-width:1;"/><path d="M579.48,1013.2969 L579.48,1053.2969 L969.48,1053.2969 L969.48,1023.2969 L959.48,1013.2969 L579.48,1013.2969 " fill="#FEFFDD" style="stroke:#181818;stroke-width:0.5;"/><path d="M959.48,1013.2969 L959.48,1023.2969 L969.48,1023.2969 L959.48,1013.2969 " fill="#FEFFDD" style="stroke:#181818;stroke-width:0.5;"/><text fill="#000000" font-family="sans-serif" font-size="13" font-weight="bold" lengthAdjust="spacing" textLength="109.2559" x="585.48" y="1030.3638">Sistema Valida</text><ellipse cx="590.98" cy="1041.0625" fill="#000000" rx="2.5" ry="2.5" style="stroke:#000000;stroke-width:0;"/><text fill="#000000" font-family="sans-serif" font-size="13" lengthAdjust="spacing" textLength="357.7793" x="597.48" y="1045.4966">la asignaci&#243;n entre el profesor y la gu&#237;a seleccionados.</text></g><!--link ValidarAsignaci?n to MostrarNotificaci?n--><g id="link_ValidarAsignaci&#243;n_MostrarNotificaci&#243;n"><path d="M563.22,1089.4769 C487.69,1090.6969 57.18,1098.5469 38.48,1118.2969 C18,1139.9169 19.45,1162.3869 38.48,1185.2969 C63.67,1215.6369 179.0756,1223.9169 232.3456,1226.2269 " fill="none" id="ValidarAsignaci&#243;n-to-MostrarNotificaci&#243;n" style="stroke:#181818;stroke-width:1;"/><polygon fill="#181818" points="238.34,1226.4869,229.5217,1222.1007,233.3447,1226.2703,229.1752,1230.0932,238.34,1226.4869" style="stroke:#181818;stroke-width:1;"/><text fill="#000000" font-family="sans-serif" font-size="13" lengthAdjust="spacing" textLength="113.9214" x="247.8294" y="1131.3638">Asignaci&#243;n v&#225;lida</text><path d="M43.48,1140.4297 L43.48,1180.4297 L565.48,1180.4297 L565.48,1150.4297 L555.48,1140.4297 L43.48,1140.4297 " fill="#FEFFDD" style="stroke:#181818;stroke-width:0.5;"/><path d="M555.48,1140.4297 L555.48,1150.4297 L565.48,1150.4297 L555.48,1140.4297 " fill="#FEFFDD" style="stroke:#181818;stroke-width:0.5;"/><text fill="#000000" font-family="sans-serif" font-size="13" font-weight="bold" lengthAdjust="spacing" textLength="128.9844" x="49.48" y="1157.4966">Sistema Presenta</text><ellipse cx="54.98" cy="1168.1953" fill="#000000" rx="2.5" ry="2.5" style="stroke:#000000;stroke-width:0;"/><text fill="#000000" font-family="sans-serif" font-size="13" lengthAdjust="spacing" textLength="489.6201" x="61.48" y="1172.6294">una notificaci&#243;n indicando que la asignaci&#243;n se ha realizado exitosamente.</text></g><!--link ValidarAsignaci?n to MostrarErrorGu?aNoDisponible--><g id="link_ValidarAsignaci&#243;n_MostrarErrorGu&#237;aNoDisponible"><path d="M574.48,1100.5869 C574.48,1122.9269 574.48,1167.1869 574.48,1197.2569 " fill="none" id="ValidarAsignaci&#243;n-to-MostrarErrorGu&#237;aNoDisponible" style="stroke:#181818;stroke-width:1;"/><polygon fill="#181818" points="574.48,1203.2569,578.48,1194.2569,574.48,1198.2569,570.48,1194.2569,574.48,1203.2569" style="stroke:#181818;stroke-width:1;"/><text fill="#000000" font-family="sans-serif" font-size="13" lengthAdjust="spacing" textLength="112.8423" x="831.4654" y="1131.3638">Gu&#237;a ya asignada</text><path d="M579.48,1140.4297 L579.48,1180.4297 L1195.48,1180.4297 L1195.48,1150.4297 L1185.48,1140.4297 L579.48,1140.4297 " fill="#FEFFDD" style="stroke:#181818;stroke-width:0.5;"/><path d="M1185.48,1140.4297 L1185.48,1150.4297 L1195.48,1150.4297 L1185.48,1140.4297 " fill="#FEFFDD" style="stroke:#181818;stroke-width:0.5;"/><text fill="#000000" font-family="sans-serif" font-size="13" font-weight="bold" lengthAdjust="spacing" textLength="128.9844" x="585.48" y="1157.4966">Sistema Presenta</text><ellipse cx="590.98" cy="1168.1953" fill="#000000" rx="2.5" ry="2.5" style="stroke:#000000;stroke-width:0;"/><text fill="#000000" font-family="sans-serif" font-size="13" lengthAdjust="spacing" textLength="583.813" x="597.48" y="1172.6294">un mensaje de error indicando que la gu&#237;a no est&#225; disponible para una nueva asignaci&#243;n.</text></g><!--link ValidarAsignaci?n to MostrarErrorSinProfesores--><g id="link_ValidarAsignaci&#243;n_MostrarErrorSinProfesores"><path d="M585.47,1089.3769 C667.32,1090.0369 1179.32,1095.0969 1201.48,1118.2969 C1222.04,1139.8369 1220.84,1162.6769 1201.48,1185.2969 C1170.2,1221.8369 1024.6698,1226.7766 963.8298,1227.2866 " fill="none" id="ValidarAsignaci&#243;n-to-MostrarErrorSinProfesores" style="stroke:#181818;stroke-width:1;"/><polygon fill="#181818" points="957.83,1227.3369,966.8632,1231.2613,962.8298,1227.295,966.7962,1223.2616,957.83,1227.3369" style="stroke:#181818;stroke-width:1;"/><text fill="#000000" font-family="sans-serif" font-size="13" lengthAdjust="spacing" textLength="170.6631" x="1382.0906" y="1131.3638">Sin profesores disponibles</text><path d="M1220.48,1140.4297 L1220.48,1180.4297 L1713.48,1180.4297 L1713.48,1150.4297 L1703.48,1140.4297 L1220.48,1140.4297 " fill="#FEFFDD" style="stroke:#181818;stroke-width:0.5;"/><path d="M1703.48,1140.4297 L1703.48,1150.4297 L1713.48,1150.4297 L1703.48,1140.4297 " fill="#FEFFDD" style="stroke:#181818;stroke-width:0.5;"/><text fill="#000000" font-family="sans-serif" font-size="13" font-weight="bold" lengthAdjust="spacing" textLength="128.9844" x="1226.48" y="1157.4966">Sistema Presenta</text><ellipse cx="1231.98" cy="1168.1953" fill="#000000" rx="2.5" ry="2.5" style="stroke:#000000;stroke-width:0;"/><text fill="#000000" font-family="sans-serif" font-size="13" lengthAdjust="spacing" textLength="460.8843" x="1238.48" y="1172.6294">un mensaje indicando que no hay profesores disponibles para asignar.</text></g><!--link MostrarErrorSinProfesores to *end*AsignarGu?a--><g id="link_MostrarErrorSinProfesores_*end*AsignarGu&#237;a"><path d="M907.3,1237.7369 C835.68,1261.7469 638.5491,1327.8206 590.4691,1343.9306 " fill="none" id="MostrarErrorSinProfesores-to-*end*AsignarGu&#237;a" style="stroke:#181818;stroke-width:1;"/><polygon fill="#181818" points="584.78,1345.8369,594.5845,1346.7703,589.5209,1344.2483,592.0429,1339.1848,584.78,1345.8369" style="stroke:#181818;stroke-width:1;"/><path d="M810.48,1276.2969 L810.48,1316.2969 L952.48,1316.2969 L952.48,1286.2969 L942.48,1276.2969 L810.48,1276.2969 " fill="#FEFFDD" style="stroke:#181818;stroke-width:0.5;"/><path d="M942.48,1276.2969 L942.48,1286.2969 L952.48,1286.2969 L942.48,1276.2969 " fill="#FEFFDD" style="stroke:#181818;stroke-width:0.5;"/><text fill="#000000" font-family="sans-serif" font-size="13" font-weight="bold" lengthAdjust="spacing" textLength="121.8433" x="816.48" y="1293.3638">Sistema Retorna</text><ellipse cx="821.98" cy="1304.0625" fill="#000000" rx="2.5" ry="2.5" style="stroke:#000000;stroke-width:0;"/><text fill="#000000" font-family="sans-serif" font-size="13" lengthAdjust="spacing" textLength="105.8154" x="828.48" y="1308.4966">al estado inicial.</text></g><!--link MostrarNotificaci?n to *end*AsignarGu?a--><g id="link_MostrarNotificaci&#243;n_*end*AsignarGu&#237;a"><path d="M288.66,1239.0169 C353.01,1263.8469 515.8122,1326.657 558.7822,1343.237 " fill="none" id="MostrarNotificaci&#243;n-to-*end*AsignarGu&#237;a" style="stroke:#181818;stroke-width:1;"/><polygon fill="#181818" points="564.38,1345.3969,557.4233,1338.4252,559.7152,1343.597,554.5434,1345.8889,564.38,1345.3969" style="stroke:#181818;stroke-width:1;"/></g><!--link MostrarErrorGu?aNoDisponible to *end*AsignarGu?a--><g id="link_MostrarErrorGu&#237;aNoDisponible_*end*AsignarGu&#237;a"><path d="M574.48,1253.5769 C574.48,1279.8769 574.48,1314.5669 574.48,1333.2769 " fill="none" id="MostrarErrorGu&#237;aNoDisponible-to-*end*AsignarGu&#237;a" style="stroke:#181818;stroke-width:1;"/><polygon fill="#181818" points="574.48,1339.2769,578.48,1330.2769,574.48,1334.2769,570.48,1330.2769,574.48,1339.2769" style="stroke:#181818;stroke-width:1;"/></g><g id="ListadoGu&#237;as"><rect fill="#F1F1F1" height="50" rx="12.5" ry="12.5" style="stroke:#181818;stroke-width:0.5;" width="109.9883" x="809.5" y="7"/><line style="stroke:#181818;stroke-width:0.5;" x1="809.5" x2="919.4883" y1="33.2969" y2="33.2969"/><text fill="#000000" font-family="sans-serif" font-size="14" lengthAdjust="spacing" textLength="89.9883" x="819.5" y="24.9951">ListadoGu&#237;as</text></g><!--reverse link AsignarGu?a to ListadoGu?as--><g id="link_AsignarGu&#237;a_ListadoGu&#237;as"><path d="M873.3315,110.7556 C872.2615,85.9456 871.26,71.5 869.8,57.03 " fill="none" id="AsignarGu&#237;a-backto-ListadoGu&#237;as" style="stroke:#181818;stroke-width:1;"/><polygon fill="#181818" points="873.59,116.75,877.1985,107.586,873.3746,111.7546,869.2059,107.9307,873.59,116.75" style="stroke:#181818;stroke-width:1;"/></g><!--reverse link ListadoGu?as to AsignarGu?a--><g id="link_ListadoGu&#237;as_AsignarGu&#237;a"><path d="M858.9245,63.0033 C857.5545,77.4733 856.93,91.94 855.92,116.75 " fill="none" id="ListadoGu&#237;as-backto-AsignarGu&#237;a" style="stroke:#181818;stroke-width:1;"/><polygon fill="#181818" points="859.49,57.03,854.6595,65.6129,859.0187,62.0077,862.6239,66.367,859.49,57.03" style="stroke:#181818;stroke-width:1;"/></g><!--SRC=[hLPDZzCm4BtdLupsk5BXNbML420kowgYY0lYuCQpsm7N3hQpeY1-p1uvSE8dv8_XZoRhREEaTEcfTPzdtfjvCyaL6SkuUbCtlvc1MLtDbl32qAraEfmLHU405dk7yAC0zub_h9MWaYpJQnHObjJyaH7aubt0HO9SeTwHfMbW5tAbqQ2qB81NMjsWKUue7_ha2mEiM_WfnFFO3qmGPpgMAs1XiIYtYafSBXFSMsMiPlfQMRgXye0yYdP0lTPQnT9VgrTaAYLf8t0SlgQ10WJinyjFC7DzpdKkWAHoyPG4GV9BE5Xibk-RNwMaKW57U1bqyYx8ulacohi44yCfwVpYeRLaS1iwpLNfkeFF0X0b3raYgQoDFDECSx94ryxLk6E7UvXm8scrudL96WHhcVhIdyepP-9UGJCsV6fXgqDO7QWAFxh-HlNGPjwPmumMEJSdQR7_LKI-wBxICNFDOT_9E5V5rB1dlDqY_fkzGnywtYUQkjiSmxwU97ckjKTvZYmuJ_DufqtIYrVw7c39JdHzqmWeEbhE5w8TluSASpNeW84bwtaExjGvfB2xvjvVdIxlmLk90kzMsGjDahllaYluMkDZXGPXoq2Ze_hTwG3yHbOPjiijbd5DcIV07EBssRUvpvK6ZfTXdz6R1NskOt6nDz8fCRQvJuOKAgRZCCiQxtfLE5De_zar1_Sxin-UgBOlqcdRidqcKrGPjGqEKLw0b-SUkfDStw5LMgPKcV3LzlOXjvc8YP74VTkdESSzr29_5aNl9I- -35wbBuX_0G00]--></g></svg>