<svg xmlns="http://www.w3.org/2000/svg" xmlns:xlink="http://www.w3.org/1999/xlink" contentStyleType="text/css" height="1147px" preserveAspectRatio="none" style="width:654px;height:1147px;background:#FFFFFF;" version="1.1" viewBox="0 0 654 1147" width="654px" zoomAndPan="magnify"><title>Automatizaci&#243;n de Gu&#237;as Docentes - Diagrama de Casos de Uso</title><defs/><g><text fill="#000000" font-family="sans-serif" font-size="14" font-weight="bold" lengthAdjust="spacing" textLength="500.3018" x="70.2094" y="22.9951">Automatizaci&#243;n de Gu&#237;as Docentes - Diagrama de Casos de Uso</text><!--entity Profesor--><g id="elem_Profesor"><ellipse cx="78.4604" cy="1074.2969" fill="#F1F1F1" rx="8" ry="8" style="stroke:#181818;stroke-width:0.5;"/><path d="M78.4604,1082.2969 L78.4604,1109.2969 M65.4604,1090.2969 L91.4604,1090.2969 M78.4604,1109.2969 L65.4604,1124.2969 M78.4604,1109.2969 L91.4604,1124.2969 " fill="none" style="stroke:#181818;stroke-width:0.5;"/><text fill="#000000" font-family="sans-serif" font-size="14" lengthAdjust="spacing" textLength="57.9209" x="49.5" y="1138.792">Profesor</text></g><!--entity DirectorGrado--><g id="elem_DirectorGrado"><ellipse cx="78.2915" cy="865.2969" fill="#F1F1F1" rx="8" ry="8" style="stroke:#181818;stroke-width:0.5;"/><path d="M78.2915,873.2969 L78.2915,900.2969 M65.2915,881.2969 L91.2915,881.2969 M78.2915,900.2969 L65.2915,915.2969 M78.2915,900.2969 L91.2915,915.2969 " fill="none" style="stroke:#181818;stroke-width:0.5;"/><text fill="#000000" font-family="sans-serif" font-size="14" lengthAdjust="spacing" textLength="125.583" x="15.5" y="929.792">Director de Grado</text></g><!--entity TecnicoCalidad--><g id="elem_TecnicoCalidad"><ellipse cx="78.3872" cy="460.2969" fill="#F1F1F1" rx="8" ry="8" style="stroke:#181818;stroke-width:0.5;"/><path d="M78.3872,468.2969 L78.3872,495.2969 M65.3872,476.2969 L91.3872,476.2969 M78.3872,495.2969 L65.3872,510.2969 M78.3872,495.2969 L91.3872,510.2969 " fill="none" style="stroke:#181818;stroke-width:0.5;"/><text fill="#000000" font-family="sans-serif" font-size="14" lengthAdjust="spacing" textLength="132.7744" x="12" y="524.792">T&#233;cnico de Calidad</text></g><!--entity DireccionCalidad--><g id="elem_DireccionCalidad"><ellipse cx="78.3242" cy="84.2969" fill="#F1F1F1" rx="8" ry="8" style="stroke:#181818;stroke-width:0.5;"/><path d="M78.3242,92.2969 L78.3242,119.2969 M65.3242,100.2969 L91.3242,100.2969 M78.3242,119.2969 L65.3242,134.2969 M78.3242,119.2969 L91.3242,134.2969 " fill="none" style="stroke:#181818;stroke-width:0.5;"/><text fill="#000000" font-family="sans-serif" font-size="14" lengthAdjust="spacing" textLength="144.6484" x="6" y="148.792">Direcci&#243;n de Calidad</text></g><g id="elem_EditarGuia"><ellipse cx="429.7713" cy="1103.8511" fill="#F1F1F1" rx="113.2713" ry="25.0543" style="stroke:#181818;stroke-width:0.5;"/><text fill="#000000" font-family="sans-serif" font-size="14" lengthAdjust="spacing" textLength="192.9375" x="333.3026" y="1106.6978">Editar Contenido de la Gu&#237;a</text></g><g id="elem_RevisarContenido"><ellipse cx="430.0493" cy="819.0067" fill="#F1F1F1" rx="84.0493" ry="19.2099" style="stroke:#181818;stroke-width:0.5;"/><text fill="#000000" font-family="sans-serif" font-size="14" lengthAdjust="spacing" textLength="128.126" x="365.7425" y="821.9372">Revisar Contenido</text></g><g id="elem_AuditarGuias"><ellipse cx="430.0919" cy="65.8153" fill="#F1F1F1" rx="100.5919" ry="22.5184" style="stroke:#181818;stroke-width:0.5;"/><text fill="#000000" font-family="sans-serif" font-size="14" lengthAdjust="spacing" textLength="165.3613" x="347.4113" y="68.6619">Auditar Gu&#237;as Docentes</text></g><g id="elem_GenerarVersion"><ellipse cx="429.8719" cy="264.6713" fill="#F1F1F1" rx="134.8719" ry="29.3744" style="stroke:#181818;stroke-width:0.5;"/><text fill="#000000" font-family="sans-serif" font-size="14" lengthAdjust="spacing" textLength="238.8408" x="310.4515" y="267.5179">Generar Nueva Versi&#243;n de la Gu&#237;a</text></g><g id="elem_AsignarGuiaProfesor"><ellipse cx="430.1448" cy="359.0258" fill="#F1F1F1" rx="136.6448" ry="29.729" style="stroke:#181818;stroke-width:0.5;"/><text fill="#000000" font-family="sans-serif" font-size="14" lengthAdjust="spacing" textLength="242.5664" x="308.8616" y="361.8725">Asignar Gu&#237;as Docentes a Profesor</text></g><g id="elem_AsignarGuiaTitulacion"><ellipse cx="430.1164" cy="446.7202" fill="#F1F1F1" rx="105.1164" ry="23.4233" style="stroke:#181818;stroke-width:0.5;"/><text fill="#000000" font-family="sans-serif" font-size="14" lengthAdjust="spacing" textLength="175.2734" x="342.4797" y="449.5668">Asignar Gu&#237;a a Titulaci&#243;n</text></g><g id="elem_AsignarAsignaturaTitulacion"><ellipse cx="429.9186" cy="532.7806" fill="#F1F1F1" rx="125.4186" ry="27.4837" style="stroke:#181818;stroke-width:0.5;"/><text fill="#000000" font-family="sans-serif" font-size="14" lengthAdjust="spacing" textLength="218.8799" x="320.4786" y="535.6273">Asignar Asignatura a Titulaci&#243;n</text></g><g id="elem_EditarPlantilla"><ellipse cx="429.9279" cy="624.7825" fill="#F1F1F1" rx="135.4279" ry="29.4856" style="stroke:#181818;stroke-width:0.5;"/><text fill="#000000" font-family="sans-serif" font-size="14" lengthAdjust="spacing" textLength="240.0098" x="309.923" y="627.6291">Editar Plantilla de la Gu&#237;a Docente</text></g><g id="elem_PublicarGuia"><ellipse cx="430.2405" cy="894.945" fill="#F1F1F1" rx="96.2405" ry="21.6481" style="stroke:#181818;stroke-width:0.5;"/><text fill="#000000" font-family="sans-serif" font-size="14" lengthAdjust="spacing" textLength="155.7363" x="352.3724" y="897.7917">Publicar Gu&#237;a Docente</text></g><g id="elem_VerificarMemoria"><ellipse cx="429.8509" cy="161.5671" fill="#F1F1F1" rx="179.3509" ry="38.2702" style="stroke:#181818;stroke-width:0.5;"/><text fill="#000000" font-family="sans-serif" font-size="14" lengthAdjust="spacing" textLength="331.1602" x="264.2708" y="164.4137">Verificar Cumplimiento con Memoria Verificada</text></g><g id="elem_VerEstadosGuias"><ellipse cx="429.7804" cy="726.553" fill="#F1F1F1" rx="174.2804" ry="37.2561" style="stroke:#181818;stroke-width:0.5;"/><text fill="#000000" font-family="sans-serif" font-size="14" lengthAdjust="spacing" textLength="320.7285" x="269.4162" y="729.3996">Ver Listado de Estados de las Gu&#237;as Docentes</text></g><g id="elem_VerEstadosGuiasGrado"><ellipse cx="429.8602" cy="997.9689" fill="#F1F1F1" rx="218.8602" ry="46.172" style="stroke:#181818;stroke-width:0.5;"/><text fill="#000000" font-family="sans-serif" font-size="14" lengthAdjust="spacing" textLength="411.9609" x="223.8798" y="1000.8156">Ver Listado de Estados de las Gu&#237;as Docentes de un Grado</text></g><!--link Profesor to EditarGuia--><g id="link_Profesor_EditarGuia"><path d="M107.51,1103.7969 C152.38,1103.7969 236.8,1103.7969 310.35,1103.7969 " fill="none" id="Profesor-to-EditarGuia" style="stroke:#181818;stroke-width:1;"/><polygon fill="#181818" points="316.35,1103.7969,307.35,1099.7969,311.35,1103.7969,307.35,1107.7969,316.35,1103.7969" style="stroke:#181818;stroke-width:1;"/></g><!--link DirectorGrado to RevisarContenido--><g id="link_DirectorGrado_RevisarContenido"><path d="M141.63,874.6969 C163.42,868.0969 188.15,861.1069 211,855.7969 C259.61,844.5069 309.1376,836.0348 351.9476,829.5548 " fill="none" id="DirectorGrado-to-RevisarContenido" style="stroke:#181818;stroke-width:1;"/><polygon fill="#181818" points="357.88,828.6569,348.3827,826.0489,352.9363,829.4052,349.58,833.9588,357.88,828.6569" style="stroke:#181818;stroke-width:1;"/></g><!--link DirectorGrado to PublicarGuia--><g id="link_DirectorGrado_PublicarGuia"><path d="M141.58,894.7969 C194.94,894.7969 266.72,894.7969 327.92,894.7969 " fill="none" id="DirectorGrado-to-PublicarGuia" style="stroke:#181818;stroke-width:1;"/><polygon fill="#181818" points="333.92,894.7969,324.92,890.7969,328.92,894.7969,324.92,898.7969,333.92,894.7969" style="stroke:#181818;stroke-width:1;"/></g><!--link DirectorGrado to VerEstadosGuiasGrado--><g id="link_DirectorGrado_VerEstadosGuiasGrado"><path d="M141.7,913.2869 C163.6,919.7769 188.39,927.1269 211,933.7969 C240.32,942.4469 266.1131,950.0364 295.8431,958.7664 " fill="none" id="DirectorGrado-to-VerEstadosGuiasGrado" style="stroke:#181818;stroke-width:1;"/><polygon fill="#181818" points="301.6,960.4569,294.0916,954.0832,296.8026,959.0481,291.8376,961.7591,301.6,960.4569" style="stroke:#181818;stroke-width:1;"/></g><!--link TecnicoCalidad to GenerarVersion--><g id="link_TecnicoCalidad_GenerarVersion"><path d="M97.16,451.7269 C118.27,410.5769 157.58,346.2969 211,311.7969 C238.73,293.8869 266.2949,283.9619 298.5649,277.0019 " fill="none" id="TecnicoCalidad-to-GenerarVersion" style="stroke:#181818;stroke-width:1;"/><polygon fill="#181818" points="304.43,275.7369,294.789,273.7243,299.5424,276.791,296.4756,281.5445,304.43,275.7369" style="stroke:#181818;stroke-width:1;"/></g><!--link TecnicoCalidad to AsignarGuiaProfesor--><g id="link_TecnicoCalidad_AsignarGuiaProfesor"><path d="M129.63,451.7769 C153.24,435.4969 182.44,417.5469 211,405.7969 C244.12,392.1669 275.8927,383.454 310.4627,376.354 " fill="none" id="TecnicoCalidad-to-AsignarGuiaProfesor" style="stroke:#181818;stroke-width:1;"/><polygon fill="#181818" points="316.34,375.1469,306.7193,373.0393,311.4422,376.1528,308.3287,380.8757,316.34,375.1469" style="stroke:#181818;stroke-width:1;"/></g><!--link TecnicoCalidad to AsignarGuiaTitulacion--><g id="link_TecnicoCalidad_AsignarGuiaTitulacion"><path d="M145.24,481.7069 C199.52,475.0269 271.2048,466.2091 331.5548,458.7891 " fill="none" id="TecnicoCalidad-to-AsignarGuiaTitulacion" style="stroke:#181818;stroke-width:1;"/><polygon fill="#181818" points="337.51,458.0569,328.0891,455.185,332.5474,458.667,329.0654,463.1253,337.51,458.0569" style="stroke:#181818;stroke-width:1;"/></g><!--link TecnicoCalidad to AsignarAsignaturaTitulacion--><g id="link_TecnicoCalidad_AsignarAsignaturaTitulacion"><path d="M145.24,497.8869 C194.47,503.9469 256.9848,511.6347 314.3248,518.6847 " fill="none" id="TecnicoCalidad-to-AsignarAsignaturaTitulacion" style="stroke:#181818;stroke-width:1;"/><polygon fill="#181818" points="320.28,519.4169,311.8354,514.3485,315.3174,518.8067,310.8591,522.2887,320.28,519.4169" style="stroke:#181818;stroke-width:1;"/></g><!--link TecnicoCalidad to EditarPlantilla--><g id="link_TecnicoCalidad_EditarPlantilla"><path d="M126.92,527.9069 C150.89,545.4569 181.16,565.1469 211,577.7969 C243.88,591.7369 275.4928,600.5294 310.0028,607.6194 " fill="none" id="TecnicoCalidad-to-EditarPlantilla" style="stroke:#181818;stroke-width:1;"/><polygon fill="#181818" points="315.88,608.8269,307.8691,603.0975,310.9823,607.8207,306.2592,610.9338,315.88,608.8269" style="stroke:#181818;stroke-width:1;"/></g><!--link TecnicoCalidad to VerEstadosGuias--><g id="link_TecnicoCalidad_VerEstadosGuias"><path d="M96.98,527.9969 C118.06,569.7269 157.45,635.4669 211,671.7969 C233.21,686.8669 253.4686,696.0643 279.6286,704.0043 " fill="none" id="TecnicoCalidad-to-VerEstadosGuias" style="stroke:#181818;stroke-width:1;"/><polygon fill="#181818" points="285.37,705.7469,277.9197,699.3054,280.5855,704.2947,275.5962,706.9606,285.37,705.7469" style="stroke:#181818;stroke-width:1;"/></g><!--link DireccionCalidad to AuditarGuias--><g id="link_DireccionCalidad_AuditarGuias"><path d="M151.07,103.9669 C206.99,96.2869 278.9259,86.4137 338.0159,78.2937 " fill="none" id="DireccionCalidad-to-AuditarGuias" style="stroke:#181818;stroke-width:1;"/><polygon fill="#181818" points="343.96,77.4769,334.4992,74.7394,339.0066,78.1576,335.5883,82.6649,343.96,77.4769" style="stroke:#181818;stroke-width:1;"/></g><!--link DireccionCalidad to VerificarMemoria--><g id="link_DireccionCalidad_VerificarMemoria"><path d="M151.07,123.6269 C187.82,128.6769 228.1057,134.211 272.2557,140.271 " fill="none" id="DireccionCalidad-to-VerificarMemoria" style="stroke:#181818;stroke-width:1;"/><polygon fill="#181818" points="278.2,141.0869,269.8275,135.9002,273.2464,140.407,268.7397,143.8259,278.2,141.0869" style="stroke:#181818;stroke-width:1;"/></g><!--SRC=[bLHBJiCm4Dtd5AFkUmMaggsw0LIXmdwmtJAIOoD_kk16B5XnX5wCn7OInp58hEhEl3VFC_CSHquAs7YdMtJqWOnktmguW8E_VQ65dMP2EM5X3Jl2Yy4M- -mMhRRzuTdgff7YxC1fC7HvSy392EP8gwP1vhI1ez5dORL9VrUx0EXElOn1hbVGAwLeY0pGq-sJAM8wQahYo0Fu948uXMQ5nmvoVCfeDJ0QRmL3As2rv-JGm5PtRIhYGKfYx3zm8-3W2IVIaxYIpLa1cQ9ZSC9lV5GffXfOATSBs8bn44gOZl7enHNXHHWxz3MxN8A5V3VnIT3IHIq50STjHEq8wxN7BTLhTCmJEI-ZGqhoaAfT8VuwR_weCM5gbTAAZXAL8oandyBGMhQg4JTLEFfNIMpi9USCgVc2ku7IEJ2sldsNr597qC2qWWVHQaDX9m72uoP6HihFQi4zMOVHNFjmih49MxL4nqYemXN_AjM7lSgUM54slhHcM3oirtUvsMSFCYGN_bv2PjDSfgitc3_cW2jiNK7KdFitB7FMxy2g4IlmqcaLIBd4yXiKPVF7NqMKlle1]--></g></svg>