<svg xmlns="http://www.w3.org/2000/svg" xmlns:xlink="http://www.w3.org/1999/xlink" contentStyleType="text/css" height="687px" preserveAspectRatio="none" style="width:237px;height:687px;background:#FFFFFF;" version="1.1" viewBox="0 0 237 687" width="237px" zoomAndPan="magnify"><defs/><g><!--class Profesores--><g id="elem_Profesores"><rect codeLine="1" fill="#F1F1F1" height="48" id="Profesores" rx="2.5" ry="2.5" style="stroke:#181818;stroke-width:0.5;" width="105.8281" x="7" y="257"/><ellipse cx="22" cy="273" fill="#ADD1B2" rx="11" ry="11" style="stroke:#181818;stroke-width:1.0;"/><path d="M24.9688,278.6406 Q24.3906,278.9375 23.75,279.0781 Q23.1094,279.2344 22.4063,279.2344 Q19.9063,279.2344 18.5781,277.5938 Q17.2656,275.9375 17.2656,272.8125 Q17.2656,269.6875 18.5781,268.0313 Q19.9063,266.375 22.4063,266.375 Q23.1094,266.375 23.75,266.5313 Q24.4063,266.6875 24.9688,266.9844 L24.9688,269.7031 Q24.3438,269.125 23.75,268.8594 Q23.1563,268.5781 22.5313,268.5781 Q21.1875,268.5781 20.5,269.6563 Q19.8125,270.7188 19.8125,272.8125 Q19.8125,274.9063 20.5,275.9844 Q21.1875,277.0469 22.5313,277.0469 Q23.1563,277.0469 23.75,276.7813 Q24.3438,276.5 24.9688,275.9219 L24.9688,278.6406 Z " fill="#000000"/><text fill="#000000" font-family="sans-serif" font-size="14" lengthAdjust="spacing" textLength="73.8281" x="36" y="277.8467">Profesores</text><line style="stroke:#181818;stroke-width:0.5;" x1="8" x2="111.8281" y1="289" y2="289"/><line style="stroke:#181818;stroke-width:0.5;" x1="8" x2="111.8281" y1="297" y2="297"/></g><!--class Indicadores--><g id="elem_Indicadores"><rect codeLine="2" fill="#F1F1F1" height="48" id="Indicadores" rx="2.5" ry="2.5" style="stroke:#181818;stroke-width:0.5;" width="113.1699" x="65.33" y="507"/><ellipse cx="80.33" cy="523" fill="#ADD1B2" rx="11" ry="11" style="stroke:#181818;stroke-width:1.0;"/><path d="M83.2988,528.6406 Q82.7206,528.9375 82.08,529.0781 Q81.4394,529.2344 80.7363,529.2344 Q78.2363,529.2344 76.9081,527.5938 Q75.5956,525.9375 75.5956,522.8125 Q75.5956,519.6875 76.9081,518.0313 Q78.2363,516.375 80.7363,516.375 Q81.4394,516.375 82.08,516.5313 Q82.7363,516.6875 83.2988,516.9844 L83.2988,519.7031 Q82.6738,519.125 82.08,518.8594 Q81.4863,518.5781 80.8613,518.5781 Q79.5175,518.5781 78.83,519.6563 Q78.1425,520.7188 78.1425,522.8125 Q78.1425,524.9063 78.83,525.9844 Q79.5175,527.0469 80.8613,527.0469 Q81.4863,527.0469 82.08,526.7813 Q82.6738,526.5 83.2988,525.9219 L83.2988,528.6406 Z " fill="#000000"/><text fill="#000000" font-family="sans-serif" font-size="14" lengthAdjust="spacing" textLength="81.1699" x="94.33" y="527.8467">Indicadores</text><line style="stroke:#181818;stroke-width:0.5;" x1="66.33" x2="177.4999" y1="539" y2="539"/><line style="stroke:#181818;stroke-width:0.5;" x1="66.33" x2="177.4999" y1="547" y2="547"/></g><!--class Informes--><g id="elem_Informes"><rect codeLine="3" fill="#F1F1F1" height="48" id="Informes" rx="2.5" ry="2.5" style="stroke:#181818;stroke-width:0.5;" width="93.7969" x="75.02" y="632"/><ellipse cx="90.02" cy="648" fill="#ADD1B2" rx="11" ry="11" style="stroke:#181818;stroke-width:1.0;"/><path d="M92.9888,653.6406 Q92.4106,653.9375 91.77,654.0781 Q91.1294,654.2344 90.4263,654.2344 Q87.9263,654.2344 86.5981,652.5938 Q85.2856,650.9375 85.2856,647.8125 Q85.2856,644.6875 86.5981,643.0313 Q87.9263,641.375 90.4263,641.375 Q91.1294,641.375 91.77,641.5313 Q92.4263,641.6875 92.9888,641.9844 L92.9888,644.7031 Q92.3638,644.125 91.77,643.8594 Q91.1763,643.5781 90.5513,643.5781 Q89.2075,643.5781 88.52,644.6563 Q87.8325,645.7188 87.8325,647.8125 Q87.8325,649.9063 88.52,650.9844 Q89.2075,652.0469 90.5513,652.0469 Q91.1763,652.0469 91.77,651.7813 Q92.3638,651.5 92.9888,650.9219 L92.9888,653.6406 Z " fill="#000000"/><text fill="#000000" font-family="sans-serif" font-size="14" lengthAdjust="spacing" textLength="61.7969" x="104.02" y="652.8467">Informes</text><line style="stroke:#181818;stroke-width:0.5;" x1="76.02" x2="167.8169" y1="664" y2="664"/><line style="stroke:#181818;stroke-width:0.5;" x1="76.02" x2="167.8169" y1="672" y2="672"/></g><!--class Titulacion--><g id="elem_Titulacion"><rect codeLine="4" fill="#F1F1F1" height="48" id="Titulacion" rx="2.5" ry="2.5" style="stroke:#181818;stroke-width:0.5;" width="100.2979" x="70.77" y="7"/><ellipse cx="85.77" cy="23" fill="#ADD1B2" rx="11" ry="11" style="stroke:#181818;stroke-width:1.0;"/><path d="M88.7388,28.6406 Q88.1606,28.9375 87.52,29.0781 Q86.8794,29.2344 86.1763,29.2344 Q83.6763,29.2344 82.3481,27.5938 Q81.0356,25.9375 81.0356,22.8125 Q81.0356,19.6875 82.3481,18.0313 Q83.6763,16.375 86.1763,16.375 Q86.8794,16.375 87.52,16.5313 Q88.1763,16.6875 88.7388,16.9844 L88.7388,19.7031 Q88.1138,19.125 87.52,18.8594 Q86.9263,18.5781 86.3013,18.5781 Q84.9575,18.5781 84.27,19.6563 Q83.5825,20.7188 83.5825,22.8125 Q83.5825,24.9063 84.27,25.9844 Q84.9575,27.0469 86.3013,27.0469 Q86.9263,27.0469 87.52,26.7813 Q88.1138,26.5 88.7388,25.9219 L88.7388,28.6406 Z " fill="#000000"/><text fill="#000000" font-family="sans-serif" font-size="14" lengthAdjust="spacing" textLength="68.2979" x="99.77" y="27.8467">Titulacion</text><line style="stroke:#181818;stroke-width:0.5;" x1="71.77" x2="170.0679" y1="39" y2="39"/><line style="stroke:#181818;stroke-width:0.5;" x1="71.77" x2="170.0679" y1="47" y2="47"/></g><!--class CargaTotal--><g id="elem_CargaTotal"><rect codeLine="5" fill="#F1F1F1" height="48" id="CargaTotal" rx="2.5" ry="2.5" style="stroke:#181818;stroke-width:0.5;" width="108.6514" x="67.59" y="382"/><ellipse cx="82.59" cy="398" fill="#ADD1B2" rx="11" ry="11" style="stroke:#181818;stroke-width:1.0;"/><path d="M85.5588,403.6406 Q84.9806,403.9375 84.34,404.0781 Q83.6994,404.2344 82.9963,404.2344 Q80.4963,404.2344 79.1681,402.5938 Q77.8556,400.9375 77.8556,397.8125 Q77.8556,394.6875 79.1681,393.0313 Q80.4963,391.375 82.9963,391.375 Q83.6994,391.375 84.34,391.5313 Q84.9963,391.6875 85.5588,391.9844 L85.5588,394.7031 Q84.9338,394.125 84.34,393.8594 Q83.7463,393.5781 83.1213,393.5781 Q81.7775,393.5781 81.09,394.6563 Q80.4025,395.7188 80.4025,397.8125 Q80.4025,399.9063 81.09,400.9844 Q81.7775,402.0469 83.1213,402.0469 Q83.7463,402.0469 84.34,401.7813 Q84.9338,401.5 85.5588,400.9219 L85.5588,403.6406 Z " fill="#000000"/><text fill="#000000" font-family="sans-serif" font-size="14" lengthAdjust="spacing" textLength="76.6514" x="96.59" y="402.8467">CargaTotal</text><line style="stroke:#181818;stroke-width:0.5;" x1="68.59" x2="175.2414" y1="414" y2="414"/><line style="stroke:#181818;stroke-width:0.5;" x1="68.59" x2="175.2414" y1="422" y2="422"/></g><!--class Asignaturas--><g id="elem_Asignaturas"><rect codeLine="6" fill="#F1F1F1" height="48" id="Asignaturas" rx="2.5" ry="2.5" style="stroke:#181818;stroke-width:0.5;" width="115.0908" x="63.37" y="132"/><ellipse cx="78.37" cy="148" fill="#ADD1B2" rx="11" ry="11" style="stroke:#181818;stroke-width:1.0;"/><path d="M81.3388,153.6406 Q80.7606,153.9375 80.12,154.0781 Q79.4794,154.2344 78.7763,154.2344 Q76.2763,154.2344 74.9481,152.5938 Q73.6356,150.9375 73.6356,147.8125 Q73.6356,144.6875 74.9481,143.0313 Q76.2763,141.375 78.7763,141.375 Q79.4794,141.375 80.12,141.5313 Q80.7763,141.6875 81.3388,141.9844 L81.3388,144.7031 Q80.7138,144.125 80.12,143.8594 Q79.5263,143.5781 78.9013,143.5781 Q77.5575,143.5781 76.87,144.6563 Q76.1825,145.7188 76.1825,147.8125 Q76.1825,149.9063 76.87,150.9844 Q77.5575,152.0469 78.9013,152.0469 Q79.5263,152.0469 80.12,151.7813 Q80.7138,151.5 81.3388,150.9219 L81.3388,153.6406 Z " fill="#000000"/><text fill="#000000" font-family="sans-serif" font-size="14" lengthAdjust="spacing" textLength="83.0908" x="92.37" y="152.8467">Asignaturas</text><line style="stroke:#181818;stroke-width:0.5;" x1="64.37" x2="177.4608" y1="164" y2="164"/><line style="stroke:#181818;stroke-width:0.5;" x1="64.37" x2="177.4608" y1="172" y2="172"/></g><!--link Titulacion to Asignaturas--><g id="link_Titulacion_Asignaturas"><path codeLine="8" d="M120.91,55.42 C120.91,77.31 120.91,109.8 120.91,131.66 " fill="none" id="Titulacion-Asignaturas" style="stroke:#181818;stroke-width:1.0;"/><text fill="#000000" font-family="sans-serif" font-size="13" lengthAdjust="spacing" textLength="56.2847" x="121.91" y="98.0669">contiene</text><text fill="#000000" font-family="sans-serif" font-size="13" lengthAdjust="spacing" textLength="8.271" x="112.0143" y="74.8838">1</text><text fill="#000000" font-family="sans-serif" font-size="13" lengthAdjust="spacing" textLength="36.5625" x="80.5897" y="120.9821">many</text></g><!--link Asignaturas to Profesores--><g id="link_Asignaturas_Profesores"><path codeLine="9" d="M83.24,180.35 C73.49,188.44 64.25,198.42 58.91,210 C52.25,224.46 52.67,242.45 54.67,256.57 " fill="none" id="Asignaturas-Profesores" style="stroke:#181818;stroke-width:1.0;"/><text fill="#000000" font-family="sans-serif" font-size="13" lengthAdjust="spacing" textLength="96.6367" x="59.91" y="223.0669">son impartidas</text><text fill="#000000" font-family="sans-serif" font-size="13" lengthAdjust="spacing" textLength="36.5625" x="33.7377" y="200.1965">many</text><text fill="#000000" font-family="sans-serif" font-size="13" lengthAdjust="spacing" textLength="36.5625" x="13.0728" y="245.8701">many</text></g><!--link Asignaturas to CargaTotal--><g id="link_Asignaturas_CargaTotal"><path codeLine="10" d="M143.72,180.4 C150.62,189.01 157.33,199.29 160.91,210 C180.96,269.84 180.6,292.04 160.91,352 C157.42,362.64 150.89,372.9 144.15,381.51 " fill="none" id="Asignaturas-CargaTotal" style="stroke:#181818;stroke-width:1.0;"/><text fill="#000000" font-family="sans-serif" font-size="13" lengthAdjust="spacing" textLength="45.7983" x="176.91" y="285.5669">genera</text><text fill="#000000" font-family="sans-serif" font-size="13" lengthAdjust="spacing" textLength="8.271" x="140.3366" y="200.2587">1</text><text fill="#000000" font-family="sans-serif" font-size="13" lengthAdjust="spacing" textLength="8.271" x="140.6276" y="370.7955">1</text></g><!--link Profesores to CargaTotal--><g id="link_Profesores_CargaTotal"><path codeLine="11" d="M71.72,305.42 C82.75,327.31 99.13,359.8 110.15,381.66 " fill="none" id="Profesores-CargaTotal" style="stroke:#181818;stroke-width:1.0;"/><text fill="#000000" font-family="sans-serif" font-size="13" lengthAdjust="spacing" textLength="57.3892" x="95.91" y="348.0669">obitenen</text><text fill="#000000" font-family="sans-serif" font-size="13" lengthAdjust="spacing" textLength="36.5625" x="34.3527" y="324.8838">many</text><text fill="#000000" font-family="sans-serif" font-size="13" lengthAdjust="spacing" textLength="8.271" x="98.3401" y="370.9821">1</text></g><!--link CargaTotal to Indicadores--><g id="link_CargaTotal_Indicadores"><path codeLine="12" d="M121.91,430.42 C121.91,452.31 121.91,484.8 121.91,506.66 " fill="none" id="CargaTotal-Indicadores" style="stroke:#181818;stroke-width:1.0;"/><text fill="#000000" font-family="sans-serif" font-size="13" lengthAdjust="spacing" textLength="106.3931" x="122.91" y="473.0669">esta medida por</text><text fill="#000000" font-family="sans-serif" font-size="13" lengthAdjust="spacing" textLength="8.271" x="113.015" y="449.8838">1</text><text fill="#000000" font-family="sans-serif" font-size="13" lengthAdjust="spacing" textLength="36.5625" x="81.5898" y="495.9821">many</text></g><!--link Indicadores to Informes--><g id="link_Indicadores_Informes"><path codeLine="13" d="M121.91,555.42 C121.91,577.31 121.91,609.8 121.91,631.66 " fill="none" id="Indicadores-Informes" style="stroke:#181818;stroke-width:1.0;"/><text fill="#000000" font-family="sans-serif" font-size="13" lengthAdjust="spacing" textLength="54.0376" x="122.91" y="598.0669">generan</text><text fill="#000000" font-family="sans-serif" font-size="13" lengthAdjust="spacing" textLength="8.271" x="113.0152" y="574.8838">1</text><text fill="#000000" font-family="sans-serif" font-size="13" lengthAdjust="spacing" textLength="8.271" x="112.966" y="620.9821">1</text></g><!--SRC=[NP2n3iCW34HtlWAnP-ZQhUhKhKD-m0KIMGeciidGlwzLfS7fX7ZS-Gx71KJya-kKfN8M5x_WGGaZf1EPAfVZEcBR5eXOQGTtu1d6sc3PmKrm9cWRWpZNvJvSWXy67mhGErYLl_fOgM6cx2pUbTtJswf5T2IM5RXXqgIJSK_IexTJowm93CwCCH7_ulh2fdfoXfw_O7Qb-YmDVCb9s_YrihElfj1ldKST-W00]--></g></svg>