<svg xmlns="http://www.w3.org/2000/svg" xmlns:xlink="http://www.w3.org/1999/xlink" contentStyleType="text/css" height="761px" preserveAspectRatio="none" style="width:880px;height:761px;background:#FFFFFF;" version="1.1" viewBox="0 0 880 761" width="880px" zoomAndPan="magnify"><title>Actores - Automatizaci&#243;n de Gu&#237;as Docentes</title><defs/><g><text fill="#000000" font-family="sans-serif" font-size="14" font-weight="bold" lengthAdjust="spacing" textLength="350.3486" x="257.8257" y="22.9951">Actores - Automatizaci&#243;n de Gu&#237;as Docentes</text><!--cluster Sistema_de_Automatizaci?n_de_Gu?as_Docentes--><g id="cluster_Sistema_de_Automatizaci&#243;n_de_Gu&#237;as_Docentes"><path d="M45.5,189.7969 L424.4453,189.7969 A3.75,3.75 0 0 1 426.9453,192.2969 L433.9453,212.0938 L870.5,212.0938 A2.5,2.5 0 0 1 873,214.5938 L873,752.2969 A2.5,2.5 0 0 1 870.5,754.7969 L45.5,754.7969 A2.5,2.5 0 0 1 43,752.2969 L43,192.2969 A2.5,2.5 0 0 1 45.5,189.7969 " fill="none" style="stroke:#000000;stroke-width:1.5;"/><line style="stroke:#000000;stroke-width:1.5;" x1="43" x2="433.9453" y1="212.0938" y2="212.0938"/><text fill="#000000" font-family="sans-serif" font-size="14" font-weight="bold" lengthAdjust="spacing" textLength="377.9453" x="47" y="204.792">Sistema_de_Automatizaci&#243;n_de_Gu&#237;as_Docentes</text></g><!--entity DireccionDeCalidad--><g id="elem_DireccionDeCalidad"><ellipse cx="504.2168" cy="241.2969" fill="#F1F1F1" rx="8" ry="8" style="stroke:#181818;stroke-width:0.5;"/><path d="M504.2168,249.2969 L504.2168,276.2969 M491.2168,257.2969 L517.2168,257.2969 M504.2168,276.2969 L491.2168,291.2969 M504.2168,276.2969 L517.2168,291.2969 " fill="none" style="stroke:#181818;stroke-width:0.5;"/><text fill="#000000" font-family="sans-serif" font-size="14" lengthAdjust="spacing" textLength="135.4336" x="436.5" y="305.792">Director de Calidad</text></g><!--entity DirectorDeGrado--><g id="elem_DirectorDeGrado"><ellipse cx="285.7915" cy="394.2969" fill="#F1F1F1" rx="8" ry="8" style="stroke:#181818;stroke-width:0.5;"/><path d="M285.7915,402.2969 L285.7915,429.2969 M272.7915,410.2969 L298.7915,410.2969 M285.7915,429.2969 L272.7915,444.2969 M285.7915,429.2969 L298.7915,444.2969 " fill="none" style="stroke:#181818;stroke-width:0.5;"/><text fill="#000000" font-family="sans-serif" font-size="14" lengthAdjust="spacing" textLength="125.583" x="223" y="458.792">Director de Grado</text></g><!--entity TecnicoDeCalidad--><g id="elem_TecnicoDeCalidad"><ellipse cx="503.8872" cy="394.2969" fill="#F1F1F1" rx="8" ry="8" style="stroke:#181818;stroke-width:0.5;"/><path d="M503.8872,402.2969 L503.8872,429.2969 M490.8872,410.2969 L516.8872,410.2969 M503.8872,429.2969 L490.8872,444.2969 M503.8872,429.2969 L516.8872,444.2969 " fill="none" style="stroke:#181818;stroke-width:0.5;"/><text fill="#000000" font-family="sans-serif" font-size="14" lengthAdjust="spacing" textLength="132.7744" x="437.5" y="458.792">T&#233;cnico de Calidad</text></g><!--entity Profesor--><g id="elem_Profesor"><ellipse cx="478.9604" cy="547.2969" fill="#F1F1F1" rx="8" ry="8" style="stroke:#181818;stroke-width:0.5;"/><path d="M478.9604,555.2969 L478.9604,582.2969 M465.9604,563.2969 L491.9604,563.2969 M478.9604,582.2969 L465.9604,597.2969 M478.9604,582.2969 L491.9604,597.2969 " fill="none" style="stroke:#181818;stroke-width:0.5;"/><text fill="#000000" font-family="sans-serif" font-size="14" lengthAdjust="spacing" textLength="57.9209" x="450" y="611.792">Profesor</text></g><g id="elem_GMN12"><path d="M543.5,541.2969 L543.5,611.8281 L848.7798,611.8281 L848.7798,551.2969 L838.7798,541.2969 L543.5,541.2969 " fill="#FEFFDD" style="stroke:#181818;stroke-width:0.5;"/><path d="M838.7798,541.2969 L838.7798,551.2969 L848.7798,551.2969 L838.7798,541.2969 " fill="#FEFFDD" style="stroke:#181818;stroke-width:1;"/><text fill="#000000" font-family="sans-serif" font-size="13" font-weight="bold" lengthAdjust="spacing" textLength="137.522" x="549.5" y="558.3638">T&#233;cnico de Calidad</text><text fill="#000000" font-family="sans-serif" font-size="13" lengthAdjust="spacing" textLength="4.3799" x="687.022" y="558.3638">:</text><text fill="#000000" font-family="sans-serif" font-size="13" lengthAdjust="spacing" textLength="274.0791" x="549.5" y="573.4966">- Realiza ediciones del contenido est&#225;tico.</text><text fill="#000000" font-family="sans-serif" font-size="13" lengthAdjust="spacing" textLength="219.0322" x="549.5" y="588.6294">- Asegura est&#225;ndares de formato.</text><text fill="#000000" font-family="sans-serif" font-size="13" lengthAdjust="spacing" textLength="284.2798" x="549.5" y="603.7622">- Prepara gu&#237;as para el trabajo del Profesor.</text></g><g id="elem_GMN15"><path d="M307.5,675.7969 L307.5,731.1953 A0,0 0 0 0 307.5,731.1953 L650.5674,731.1953 A0,0 0 0 0 650.5674,731.1953 L650.5674,685.7969 L640.5674,675.7969 L483,675.7969 L479,614.8169 L475,675.7969 L307.5,675.7969 A0,0 0 0 0 307.5,675.7969 " fill="#FEFFDD" style="stroke:#181818;stroke-width:0.5;"/><path d="M640.5674,675.7969 L640.5674,685.7969 L650.5674,685.7969 L640.5674,675.7969 " fill="#FEFFDD" style="stroke:#181818;stroke-width:0.5;"/><text fill="#000000" font-family="sans-serif" font-size="13" font-weight="bold" lengthAdjust="spacing" textLength="62.4229" x="313.5" y="692.8638">Profesor</text><text fill="#000000" font-family="sans-serif" font-size="13" lengthAdjust="spacing" textLength="4.3799" x="375.9229" y="692.8638">:</text><text fill="#000000" font-family="sans-serif" font-size="13" lengthAdjust="spacing" textLength="301.5264" x="313.5" y="707.9966">- Edita contenidos din&#225;micos de la asignatura.</text><text fill="#000000" font-family="sans-serif" font-size="13" lengthAdjust="spacing" textLength="322.0674" x="313.5" y="723.1294">- Env&#237;a la gu&#237;a al Director de Grado para revisi&#243;n.</text></g><g id="elem_GMN18"><path d="M75,549.2969 L75,604.6953 L414.6841,604.6953 L414.6841,559.2969 L404.6841,549.2969 L75,549.2969 " fill="#FEFFDD" style="stroke:#181818;stroke-width:0.5;"/><path d="M404.6841,549.2969 L404.6841,559.2969 L414.6841,559.2969 L404.6841,549.2969 " fill="#FEFFDD" style="stroke:#181818;stroke-width:1;"/><text fill="#000000" font-family="sans-serif" font-size="13" font-weight="bold" lengthAdjust="spacing" textLength="131.0029" x="81" y="566.3638">Director de Grado</text><text fill="#000000" font-family="sans-serif" font-size="13" lengthAdjust="spacing" textLength="4.3799" x="212.0029" y="566.3638">:</text><text fill="#000000" font-family="sans-serif" font-size="13" lengthAdjust="spacing" textLength="251.0562" x="81" y="581.4966">- Revisa y aprueba las gu&#237;as docentes.</text><text fill="#000000" font-family="sans-serif" font-size="13" lengthAdjust="spacing" textLength="318.6841" x="81" y="596.6294">- Garantiza alineaci&#243;n con objetivos acad&#233;micos.</text></g><g id="elem_GMN21"><path d="M605.5,396.2969 L605.5,451.6953 L848.4395,451.6953 L848.4395,406.2969 L838.4395,396.2969 L605.5,396.2969 " fill="#FEFFDD" style="stroke:#181818;stroke-width:0.5;"/><path d="M838.4395,396.2969 L838.4395,406.2969 L848.4395,406.2969 L838.4395,396.2969 " fill="#FEFFDD" style="stroke:#181818;stroke-width:1;"/><text fill="#000000" font-family="sans-serif" font-size="13" font-weight="bold" lengthAdjust="spacing" textLength="141.521" x="611.5" y="413.3638">Director de Calidad</text><text fill="#000000" font-family="sans-serif" font-size="13" lengthAdjust="spacing" textLength="4.3799" x="753.021" y="413.3638">:</text><text fill="#000000" font-family="sans-serif" font-size="13" lengthAdjust="spacing" textLength="186.6401" x="611.5" y="428.4966">- Audita gu&#237;as ya aprobadas.</text><text fill="#000000" font-family="sans-serif" font-size="13" lengthAdjust="spacing" textLength="221.9395" x="611.5" y="443.6294">- Supervisa est&#225;ndares generales.</text></g><!--entity SuperAdmin--><g id="elem_SuperAdmin"><ellipse cx="51.165" cy="51.2969" fill="#F1F1F1" rx="8" ry="8" style="stroke:#181818;stroke-width:0.5;"/><path d="M51.165,59.2969 L51.165,86.2969 M38.165,67.2969 L64.165,67.2969 M51.165,86.2969 L38.165,101.2969 M51.165,86.2969 L64.165,101.2969 " fill="none" style="stroke:#181818;stroke-width:0.5;"/><text fill="#000000" font-family="sans-serif" font-size="14" lengthAdjust="spacing" textLength="90.3301" x="6" y="115.792">Super Admin</text></g><!--link DireccionDeCalidad to DirectorDeGrado--><g id="link_DireccionDeCalidad_DirectorDeGrado"><path d="M436.22,307.7469 C414.29,319.7269 393.04,331.7869 383,338.7969 C362.91,352.8269 355.5702,358.2776 338.4502,373.6576 " fill="none" id="DireccionDeCalidad-to-DirectorDeGrado" style="stroke:#181818;stroke-width:1;"/><polygon fill="none" points="325.06,385.6869,342.4599,378.121,334.4404,369.1942,325.06,385.6869" style="stroke:#181818;stroke-width:1;"/><text fill="#000000" font-family="sans-serif" font-size="13" lengthAdjust="spacing" textLength="111.8394" x="384" y="351.8638">audita trabajo de</text></g><!--link DireccionDeCalidad to TecnicoDeCalidad--><g id="link_DireccionDeCalidad_TecnicoDeCalidad"><path d="M504,309.1269 C504,332.4369 504,344.3569 504,367.6369 " fill="none" id="DireccionDeCalidad-to-TecnicoDeCalidad" style="stroke:#181818;stroke-width:1;"/><polygon fill="none" points="504,385.6369,510,367.6369,498,367.6369,504,385.6369" style="stroke:#181818;stroke-width:1;"/><text fill="#000000" font-family="sans-serif" font-size="13" lengthAdjust="spacing" textLength="111.8394" x="505" y="351.8638">audita trabajo de</text></g><!--link DirectorDeGrado to Profesor--><g id="link_DirectorDeGrado_Profesor"><path d="M273.85,462.2069 C271.09,478.1869 271.53,496.0469 282,508.7969 C325.41,561.6869 371,509.8569 433,538.7969 C438.85,541.5269 430.0904,534.5182 435.4404,538.4382 " fill="none" id="DirectorDeGrado-to-Profesor" style="stroke:#181818;stroke-width:1;"/><polygon fill="none" points="449.96,549.0769,438.9866,533.5983,431.8942,543.2781,449.96,549.0769" style="stroke:#181818;stroke-width:1;"/><text fill="#000000" font-family="sans-serif" font-size="13" lengthAdjust="spacing" textLength="198.3706" x="283" y="504.8638">revisa y aprueba contenido de</text></g><!--link TecnicoDeCalidad to Profesor--><g id="link_TecnicoDeCalidad_Profesor"><path d="M497.82,462.1269 C493.96,485.4369 491.9543,497.5993 488.0943,520.8793 " fill="none" id="TecnicoDeCalidad-to-Profesor" style="stroke:#181818;stroke-width:1;"/><polygon fill="none" points="485.15,538.6369,494.0135,521.8608,482.1752,519.8979,485.15,538.6369" style="stroke:#181818;stroke-width:1;"/><text fill="#000000" font-family="sans-serif" font-size="13" lengthAdjust="spacing" textLength="116.9873" x="493" y="504.8638">prepara gu&#237;a para</text></g><!--link TecnicoDeCalidad to GMN12--><g id="link_TecnicoDeCalidad_GMN12"><path d="M570.66,459.5869 C586.77,469.1669 603.5,480.1469 618,491.7969 C636.15,506.3769 654,525.1769 668.04,541.2969 " fill="none" id="TecnicoDeCalidad-GMN12" style="stroke:#181818;stroke-width:1;stroke-dasharray:7.0,7.0;"/></g><!--link DirectorDeGrado to GMN18--><g id="link_DirectorDeGrado_GMN18"><path d="M262.44,461.8469 C257.48,471.2769 252.88,481.6369 250,491.7969 C244.7,510.4869 243.56,532.4369 243.68,549.2069 " fill="none" id="DirectorDeGrado-GMN18" style="stroke:#181818;stroke-width:1;stroke-dasharray:7.0,7.0;"/></g><!--link DireccionDeCalidad to GMN21--><g id="link_DireccionDeCalidad_GMN21"><path d="M571.56,306.3569 C589.34,316.2069 608.22,327.3869 625,338.7969 C650.8,356.3469 677.97,378.9569 697.78,396.2969 " fill="none" id="DireccionDeCalidad-GMN21" style="stroke:#181818;stroke-width:1;stroke-dasharray:7.0,7.0;"/></g><!--link SuperAdmin to Sistema_de_Automatizaci?n_de_Gu?as_Docentes--><g id="link_SuperAdmin_Sistema_de_Automatizaci&#243;n_de_Gu&#237;as_Docentes"><path d="M51,118.9369 C51,132.4219 51,148.4063 51,164.8431 C51,173.0616 51,175.3931 51,183.582 " fill="none" id="SuperAdmin-to-Sistema_de_Automatizaci&#243;n_de_Gu&#237;as_Docentes" style="stroke:#181818;stroke-width:1;"/><polygon fill="#181818" points="51,189.582,55,180.582,51,184.582,47,180.582,51,189.582" style="stroke:#181818;stroke-width:1;"/><text fill="#000000" font-family="sans-serif" font-size="13" lengthAdjust="spacing" textLength="297.4956" x="52" y="161.8638">Importa bases de datos que usar&#225; el sistema.</text></g><!--SRC=[bPHBRjmm38RtFWMHvG2J0ymYW9491jq5JVO3sk8OIZsIAya394qFCyiikkeHVB5IzBEsqSVEelMJ7wbV2ZgK16aUh2CFMqZhOCyOz1lcklbfG14SwkO7UjZRd4mWdoGOTyFDKrsHWrITjRa1tY1hMIP9XVaNB0YUj0zqngEYuonp3BMPZtrc-9O0TCdtsf5yCS0zbbgXaY8IpxKrU-h2wvg3GsL71KVt9B5n-tFpaHkTstc9PvBmii2ZioVorYKSMNB0Tlj-Dwy6Ey1QwO0G76Ru4elzGJqllIhlzPCg8kxnMEJeeZt2As3bQieGSii3DbfrzHTrvWagHnKwX2AU4CJFMDROG93Pm0S9zhGsA83DPcMkcyrEVcxXCt7a3O6KZltpeIig9tZaGtCDhBxj1AcdecOI-M4KEf70oJesqx3hSShh1HWuxpYrSkWkIiWeQMQbgU6GssRwvTZ1Wvp7GCmqsZJNCoCBM8di8LqO34pTupsOIvnZsGyKIrYOjOMMaultuo-OIrT7saNIwU1dbYXvJjsuL7S1Uzm3avXuKnbK6-gU0cuPRFP2GL-uLSnHDH_Izh-Wpg_id7PXbBJrVKVuYf7RPgXme9JtHfgQUgCWGmvB-ftgUvACpnEx_Uu_NwOTV3fNrZ5GXhvre6BxUVXQ4zGUNNEDVlDjqjjV]--></g></svg>