<svg xmlns="http://www.w3.org/2000/svg" xmlns:xlink="http://www.w3.org/1999/xlink" contentStyleType="text/css" height="911px" preserveAspectRatio="none" style="width:575px;height:911px;background:#FFFFFF;" version="1.1" viewBox="0 0 575 911" width="575px" zoomAndPan="magnify"><title>Automatizaci&#243;n de Gu&#237;as Docentes - Diagrama de Casos de Uso</title><defs/><g><text fill="#000000" font-family="sans-serif" font-size="14" font-weight="bold" lengthAdjust="spacing" textLength="500.3018" x="30.525" y="22.9951">Automatizaci&#243;n de Gu&#237;as Docentes - Diagrama de Casos de Uso</text><!--entity Profesor--><g id="elem_Profesor"><ellipse cx="78.3204" cy="838.1669" fill="#F1F1F1" rx="8" ry="8" style="stroke:#181818;stroke-width:0.5;"/><path d="M78.3204,846.1669 L78.3204,873.1669 M65.3204,854.1669 L91.3204,854.1669 M78.3204,873.1669 L65.3204,888.1669 M78.3204,873.1669 L91.3204,888.1669 " fill="none" style="stroke:#181818;stroke-width:0.5;"/><text fill="#000000" font-family="sans-serif" font-size="14" lengthAdjust="spacing" textLength="57.9209" x="49.36" y="902.662">Profesor</text></g><!--entity DirectorGrado--><g id="elem_DirectorGrado"><ellipse cx="78.3215" cy="699.1669" fill="#F1F1F1" rx="8" ry="8" style="stroke:#181818;stroke-width:0.5;"/><path d="M78.3215,707.1669 L78.3215,734.1669 M65.3215,715.1669 L91.3215,715.1669 M78.3215,734.1669 L65.3215,749.1669 M78.3215,734.1669 L91.3215,749.1669 " fill="none" style="stroke:#181818;stroke-width:0.5;"/><text fill="#000000" font-family="sans-serif" font-size="14" lengthAdjust="spacing" textLength="125.583" x="15.53" y="763.662">Director de Grado</text></g><!--entity TecnicoCalidad--><g id="elem_TecnicoCalidad"><ellipse cx="78.3272" cy="408.1669" fill="#F1F1F1" rx="8" ry="8" style="stroke:#181818;stroke-width:0.5;"/><path d="M78.3272,416.1669 L78.3272,443.1669 M65.3272,424.1669 L91.3272,424.1669 M78.3272,443.1669 L65.3272,458.1669 M78.3272,443.1669 L91.3272,458.1669 " fill="none" style="stroke:#181818;stroke-width:0.5;"/><text fill="#000000" font-family="sans-serif" font-size="14" lengthAdjust="spacing" textLength="132.7744" x="11.94" y="472.662">T&#233;cnico de Calidad</text></g><!--entity DireccionCalidad--><g id="elem_DireccionCalidad"><ellipse cx="78.3242" cy="84.1669" fill="#F1F1F1" rx="8" ry="8" style="stroke:#181818;stroke-width:0.5;"/><path d="M78.3242,92.1669 L78.3242,119.1669 M65.3242,100.1669 L91.3242,100.1669 M78.3242,119.1669 L65.3242,134.1669 M78.3242,119.1669 L91.3242,134.1669 " fill="none" style="stroke:#181818;stroke-width:0.5;"/><text fill="#000000" font-family="sans-serif" font-size="14" lengthAdjust="spacing" textLength="144.6484" x="6" y="148.662">Direcci&#243;n de Calidad</text></g><g id="elem_EditarGuia"><ellipse cx="390.0013" cy="867.8211" fill="#F1F1F1" rx="113.2713" ry="25.0543" style="stroke:#181818;stroke-width:0.5;"/><text fill="#000000" font-family="sans-serif" font-size="14" lengthAdjust="spacing" textLength="192.9375" x="293.5326" y="870.6678">Editar Contenido de la Gu&#237;a</text></g><g id="elem_AprobarContenido"><ellipse cx="389.9959" cy="701.82" fill="#F1F1F1" rx="123.4159" ry="27.0832" style="stroke:#181818;stroke-width:0.5;"/><text fill="#000000" font-family="sans-serif" font-size="14" lengthAdjust="spacing" textLength="214.6279" x="282.6819" y="704.6667">Aprobar o Rechazar Contenido</text></g><g id="elem_SupervisarGuias"><ellipse cx="390.0045" cy="259.8178" fill="#F1F1F1" rx="111.5045" ry="24.7009" style="stroke:#181818;stroke-width:0.5;"/><text fill="#000000" font-family="sans-serif" font-size="14" lengthAdjust="spacing" textLength="189.1299" x="295.4396" y="262.6645">Supervisar Gu&#237;as Docentes</text></g><g id="elem_AuditarGuias"><ellipse cx="390.0019" cy="65.8153" fill="#F1F1F1" rx="100.5919" ry="22.5184" style="stroke:#181818;stroke-width:0.5;"/><text fill="#000000" font-family="sans-serif" font-size="14" lengthAdjust="spacing" textLength="165.3613" x="307.3213" y="68.6619">Auditar Gu&#237;as Docentes</text></g><g id="elem_UtilizarPlantilla"><ellipse cx="390.0046" cy="346.8138" fill="#F1F1F1" rx="122.6346" ry="26.9269" style="stroke:#181818;stroke-width:0.5;"/><text fill="#000000" font-family="sans-serif" font-size="14" lengthAdjust="spacing" textLength="212.9668" x="283.5212" y="349.6605">Utilizar Plantilla Multititulaci&#243;n</text></g><g id="elem_GenerarVersion"><ellipse cx="390.0019" cy="437.8213" fill="#F1F1F1" rx="134.8719" ry="29.3744" style="stroke:#181818;stroke-width:0.5;"/><text fill="#000000" font-family="sans-serif" font-size="14" lengthAdjust="spacing" textLength="238.8408" x="270.5815" y="440.6679">Generar Nueva Versi&#243;n de la Gu&#237;a</text></g><g id="elem_AsignarGuiaTitulacion"><ellipse cx="389.9964" cy="525.8202" fill="#F1F1F1" rx="105.1164" ry="23.4233" style="stroke:#181818;stroke-width:0.5;"/><text fill="#000000" font-family="sans-serif" font-size="14" lengthAdjust="spacing" textLength="175.2734" x="302.3597" y="528.6668">Asignar Gu&#237;a a Titulaci&#243;n</text></g><g id="elem_AsignarAsignaturaTitulacion"><ellipse cx="389.9986" cy="611.8206" fill="#F1F1F1" rx="125.4186" ry="27.4837" style="stroke:#181818;stroke-width:0.5;"/><text fill="#000000" font-family="sans-serif" font-size="14" lengthAdjust="spacing" textLength="218.8799" x="280.5586" y="614.6673">Asignar Asignatura a Titulaci&#243;n</text></g><g id="elem_PublicarGuia"><ellipse cx="390.0005" cy="785.815" fill="#F1F1F1" rx="96.2405" ry="21.6481" style="stroke:#181818;stroke-width:0.5;"/><text fill="#000000" font-family="sans-serif" font-size="14" lengthAdjust="spacing" textLength="155.7363" x="312.1324" y="788.6617">Publicar Gu&#237;a Docente</text></g><g id="elem_VerificarMemoria"><ellipse cx="390.0009" cy="161.8171" fill="#F1F1F1" rx="179.3509" ry="38.2702" style="stroke:#181818;stroke-width:0.5;"/><text fill="#000000" font-family="sans-serif" font-size="14" lengthAdjust="spacing" textLength="331.1602" x="224.4208" y="164.6637">Verificar Cumplimiento con Memoria Verificada</text></g><!--link Profesor to EditarGuia--><g id="link_Profesor_EditarGuia"><path d="M107.63,867.8169 C145.7,867.8169 209.64,867.8169 270.27,867.8169 " fill="none" id="Profesor-to-EditarGuia" style="stroke:#181818;stroke-width:1.0;"/><polygon fill="#181818" points="276.27,867.8169,267.27,863.8169,271.27,867.8169,267.27,871.8169,276.27,867.8169" style="stroke:#181818;stroke-width:1.0;"/></g><!--link DirectorGrado to AprobarContenido--><g id="link_DirectorGrado_AprobarContenido"><path d="M141.25,723.4169 C179.37,720.0969 223.4426,716.2474 268.5726,712.3174 " fill="none" id="DirectorGrado-to-AprobarContenido" style="stroke:#181818;stroke-width:1.0;"/><polygon fill="#181818" points="274.55,711.7969,265.2369,708.5927,269.5689,712.2306,265.9309,716.5626,274.55,711.7969" style="stroke:#181818;stroke-width:1.0;"/></g><!--link DirectorGrado to PublicarGuia--><g id="link_DirectorGrado_PublicarGuia"><path d="M141.25,740.2169 C191.11,749.3969 255.4691,761.2407 308.4391,770.9907 " fill="none" id="DirectorGrado-to-PublicarGuia" style="stroke:#181818;stroke-width:1.0;"/><polygon fill="#181818" points="314.34,772.0769,306.2128,766.5137,309.4226,771.1717,304.7646,774.3816,314.34,772.0769" style="stroke:#181818;stroke-width:1.0;"/></g><!--link TecnicoCalidad to SupervisarGuias--><g id="link_TecnicoCalidad_SupervisarGuias"><path d="M106.79,399.4169 C130.78,368.7169 168.32,326.9369 210.65,302.8169 C235.83,288.4669 259.8007,280.2232 287.7707,273.8332 " fill="none" id="TecnicoCalidad-to-SupervisarGuias" style="stroke:#181818;stroke-width:1.0;"/><polygon fill="#181818" points="293.62,272.4969,283.9552,270.6018,288.7456,273.6105,285.7369,278.4009,293.62,272.4969" style="stroke:#181818;stroke-width:1.0;"/></g><!--link TecnicoCalidad to UtilizarPlantilla--><g id="link_TecnicoCalidad_UtilizarPlantilla"><path d="M145.02,412.8269 C165.86,405.2969 189.09,397.3169 210.65,390.8169 C240.57,381.7969 267.8877,374.6456 297.4077,367.5156 " fill="none" id="TecnicoCalidad-to-UtilizarPlantilla" style="stroke:#181818;stroke-width:1.0;"/><polygon fill="#181818" points="303.24,366.1069,293.5524,364.3317,298.3798,367.2808,295.4307,372.1081,303.24,366.1069" style="stroke:#181818;stroke-width:1.0;"/></g><!--link TecnicoCalidad to GenerarVersion--><g id="link_TecnicoCalidad_GenerarVersion"><path d="M145,437.8169 C177.04,437.8169 210.82,437.8169 248.9,437.8169 " fill="none" id="TecnicoCalidad-to-GenerarVersion" style="stroke:#181818;stroke-width:1.0;"/><polygon fill="#181818" points="254.9,437.8169,245.9,433.8169,249.9,437.8169,245.9,441.8169,254.9,437.8169" style="stroke:#181818;stroke-width:1.0;"/></g><!--link TecnicoCalidad to AsignarGuiaTitulacion--><g id="link_TecnicoCalidad_AsignarGuiaTitulacion"><path d="M144.96,463.0169 C165.79,470.5569 189.04,478.4869 210.65,484.8169 C243.27,494.3669 273.9206,501.8057 305.3706,508.7357 " fill="none" id="TecnicoCalidad-to-AsignarGuiaTitulacion" style="stroke:#181818;stroke-width:1.0;"/><polygon fill="#181818" points="311.23,510.0269,303.3016,504.1839,306.3471,508.9509,301.5801,511.9965,311.23,510.0269" style="stroke:#181818;stroke-width:1.0;"/></g><!--link TecnicoCalidad to AsignarAsignaturaTitulacion--><g id="link_TecnicoCalidad_AsignarAsignaturaTitulacion"><path d="M108.94,476.4469 C133.23,505.4869 170.11,544.0469 210.65,566.8169 C233.9,579.8769 255.1378,587.7174 281.0478,594.3574 " fill="none" id="TecnicoCalidad-to-AsignarAsignaturaTitulacion" style="stroke:#181818;stroke-width:1.0;"/><polygon fill="#181818" points="286.86,595.8469,279.1347,589.7378,282.0165,594.6056,277.1487,597.4874,286.86,595.8469" style="stroke:#181818;stroke-width:1.0;"/></g><!--link DireccionCalidad to AuditarGuias--><g id="link_DireccionCalidad_AuditarGuias"><path d="M151.15,102.6869 C197.51,95.4969 252.0509,87.0464 300.4109,79.5464 " fill="none" id="DireccionCalidad-to-AuditarGuias" style="stroke:#181818;stroke-width:1.0;"/><polygon fill="#181818" points="306.34,78.6269,296.8333,76.0534,301.3991,79.3931,298.0593,83.9589,306.34,78.6269" style="stroke:#181818;stroke-width:1.0;"/></g><!--link DireccionCalidad to VerificarMemoria--><g id="link_DireccionCalidad_VerificarMemoria"><path d="M151.15,124.9469 C178.84,129.2469 205.6409,133.3972 237.8109,138.3872 " fill="none" id="DireccionCalidad-to-VerificarMemoria" style="stroke:#181818;stroke-width:1.0;"/><polygon fill="#181818" points="243.74,139.3069,235.4595,133.9746,238.7991,138.5405,234.2332,141.8801,243.74,139.3069" style="stroke:#181818;stroke-width:1.0;"/></g><!--SRC=[VLDBJiCm4Dtd5AFkUmKarAAkG1Mqx0TdMaPoF9K_BBWH2rOSeHV3SPnl3SeYatdlpJ-UlIQu3ruQzFo9Ygy_1cg2NRX-euEjA3AU7AnXotYss62BRj29QusZawhITFBW1IoVtptKR4bv5bDLgBnOs5ivaHERFrVRH8XMcyPYBIjeCsLlylJKm_LB6LRIvTHSOvt81qhkx9e57ZgOyZCYfbTKmP52Hx1wgDcZXOt4DWtNAPN6hl-axGYxm3YAxYzMtg9Au9dKEtvE0oHH9WpEKVeIBcG_s4N9OiP9EC9jHZT96Rf2IwACBHH7pvhRqlOQJRHZLuz1UuvFqDscaxhd3RGnn8uCsHZXAT07mYjPrqztDg9CItZS-rYpuxFfQmQ4mo9pnjkwUwWaxzu-s7zYZ9nIf7ruqwo6IlBmahw7vWkEhV0fAJQXkMXkE0e4b1Xuf4OifsaaIjtDO51alAhwkuVr-cvwHRDBJ-3DjTnIPcNEpp_XoxifK6xtN20jLbbWb9VsDx6ucUKFsGccPrnaB8Vy2m00]--></g></svg>