<svg xmlns="http://www.w3.org/2000/svg" xmlns:xlink="http://www.w3.org/1999/xlink" contentStyleType="text/css" height="259px" preserveAspectRatio="none" style="width:2228px;height:259px;background:#FFFFFF;" version="1.1" viewBox="0 0 2228 259" width="2228px" zoomAndPan="magnify"><title>Automatizaci&#243;n de Gu&#237;as Docentes - Diagrama de Casos de Uso</title><defs/><g><text fill="#000000" font-family="sans-serif" font-size="14" font-weight="bold" lengthAdjust="spacing" textLength="500.3018" x="856.8491" y="22.9951">Automatizaci&#243;n de Gu&#237;as Docentes - Diagrama de Casos de Uso</text><!--cluster Gesti?n de Contenidos--><g id="cluster_Gesti&#243;n de Contenidos"><rect fill="none" height="105.17" rx="2.5" ry="2.5" style="stroke:#181818;stroke-width:1.0;" width="540" x="7" y="146.3869"/><text fill="#000000" font-family="sans-serif" font-size="14" font-weight="bold" lengthAdjust="spacing" textLength="178.4453" x="187.7773" y="161.382">Gesti&#243;n de Contenidos</text></g><!--cluster Control de Calidad--><g id="cluster_Control de Calidad"><rect fill="none" height="100.41" rx="2.5" ry="2.5" style="stroke:#181818;stroke-width:1.0;" width="492" x="571" y="148.7669"/><text fill="#000000" font-family="sans-serif" font-size="14" font-weight="bold" lengthAdjust="spacing" textLength="145.9473" x="744.0264" y="163.762">Control de Calidad</text></g><!--cluster Automatizaci?n de Plantillas--><g id="cluster_Automatizaci&#243;n de Plantillas"><rect fill="none" height="104.85" rx="2.5" ry="2.5" style="stroke:#181818;stroke-width:1.0;" width="278" x="1087" y="146.5469"/><text fill="#000000" font-family="sans-serif" font-size="14" font-weight="bold" lengthAdjust="spacing" textLength="225.5244" x="1113.2378" y="161.542">Automatizaci&#243;n de Plantillas</text></g><!--cluster Gesti?n de Versiones y Estructura--><g id="cluster_Gesti&#243;n de Versiones y Estructura"><rect fill="none" height="109.75" rx="2.5" ry="2.5" style="stroke:#181818;stroke-width:1.0;" width="833" x="1389" y="144.0969"/><text fill="#000000" font-family="sans-serif" font-size="14" font-weight="bold" lengthAdjust="spacing" textLength="269.083" x="1670.9585" y="159.092">Gesti&#243;n de Versiones y Estructura</text></g><g id="elem_UC1"><ellipse cx="136.0013" cy="208.4811" fill="#F1F1F1" rx="113.2713" ry="25.0543" style="stroke:#181818;stroke-width:0.5;"/><text fill="#000000" font-family="sans-serif" font-size="14" lengthAdjust="spacing" textLength="192.9375" x="39.5326" y="211.3278">Editar Contenido de la Gu&#237;a</text></g><g id="elem_UC2"><ellipse cx="407.9959" cy="208.48" fill="#F1F1F1" rx="123.4159" ry="27.0832" style="stroke:#181818;stroke-width:0.5;"/><text fill="#000000" font-family="sans-serif" font-size="14" lengthAdjust="spacing" textLength="214.6279" x="300.6819" y="211.3267">Aprobar o Rechazar Contenido</text></g><g id="elem_UC3"><ellipse cx="935.0045" cy="208.4778" fill="#F1F1F1" rx="111.5045" ry="24.7009" style="stroke:#181818;stroke-width:0.5;"/><text fill="#000000" font-family="sans-serif" font-size="14" lengthAdjust="spacing" textLength="189.1299" x="840.4396" y="211.3245">Supervisar Gu&#237;as Docentes</text></g><g id="elem_UC4"><ellipse cx="688.0019" cy="208.4753" fill="#F1F1F1" rx="100.5919" ry="22.5184" style="stroke:#181818;stroke-width:0.5;"/><text fill="#000000" font-family="sans-serif" font-size="14" lengthAdjust="spacing" textLength="165.3613" x="605.3213" y="211.3219">Auditar Gu&#237;as Docentes</text></g><g id="elem_UC5"><ellipse cx="1226.0046" cy="208.4738" fill="#F1F1F1" rx="122.6346" ry="26.9269" style="stroke:#181818;stroke-width:0.5;"/><text fill="#000000" font-family="sans-serif" font-size="14" lengthAdjust="spacing" textLength="212.9668" x="1119.5212" y="211.3205">Utilizar Plantilla Multititulaci&#243;n</text></g><g id="elem_UC6"><ellipse cx="1540.0019" cy="208.4813" fill="#F1F1F1" rx="134.8719" ry="29.3744" style="stroke:#181818;stroke-width:0.5;"/><text fill="#000000" font-family="sans-serif" font-size="14" lengthAdjust="spacing" textLength="238.8408" x="1420.5815" y="211.3279">Generar Nueva Versi&#243;n de la Gu&#237;a</text></g><g id="elem_UC7"><ellipse cx="1814.9964" cy="208.4802" fill="#F1F1F1" rx="105.1164" ry="23.4233" style="stroke:#181818;stroke-width:0.5;"/><text fill="#000000" font-family="sans-serif" font-size="14" lengthAdjust="spacing" textLength="175.2734" x="1727.3597" y="211.3268">Asignar Gu&#237;a a Titulaci&#243;n</text></g><g id="elem_UC8"><ellipse cx="2080.9986" cy="208.4806" fill="#F1F1F1" rx="125.4186" ry="27.4837" style="stroke:#181818;stroke-width:0.5;"/><text fill="#000000" font-family="sans-serif" font-size="14" lengthAdjust="spacing" textLength="218.8799" x="1971.5586" y="211.3273">Asignar Asignatura a Titulaci&#243;n</text></g><!--entity Profesor--><g id="elem_Profesor"><ellipse cx="136.0004" cy="51.2969" fill="#F1F1F1" rx="8" ry="8" style="stroke:#181818;stroke-width:0.5;"/><path d="M136.0004,59.2969 L136.0004,86.2969 M123.0004,67.2969 L149.0004,67.2969 M136.0004,86.2969 L123.0004,101.2969 M136.0004,86.2969 L149.0004,101.2969 " fill="none" style="stroke:#181818;stroke-width:0.5;"/><text fill="#000000" font-family="sans-serif" font-size="14" lengthAdjust="spacing" textLength="57.9209" x="107.04" y="115.792">Profesor</text></g><!--entity DirectorDeGrado--><g id="elem_DirectorDeGrado"><ellipse cx="407.9981" cy="51.2969" fill="#F1F1F1" rx="8" ry="8" style="stroke:#181818;stroke-width:0.5;"/><path d="M407.9981,59.2969 L407.9981,86.2969 M394.9981,67.2969 L420.9981,67.2969 M407.9981,86.2969 L394.9981,101.2969 M407.9981,86.2969 L420.9981,101.2969 " fill="none" style="stroke:#181818;stroke-width:0.5;"/><text fill="#000000" font-family="sans-serif" font-size="14" lengthAdjust="spacing" textLength="118.5762" x="348.71" y="115.792">DirectorDeGrado</text></g><!--entity T?cnicoDeCalidad--><g id="elem_T&#233;cnicoDeCalidad"><ellipse cx="1080.0038" cy="51.2969" fill="#F1F1F1" rx="8" ry="8" style="stroke:#181818;stroke-width:0.5;"/><path d="M1080.0038,59.2969 L1080.0038,86.2969 M1067.0038,67.2969 L1093.0038,67.2969 M1080.0038,86.2969 L1067.0038,101.2969 M1080.0038,86.2969 L1093.0038,101.2969 " fill="none" style="stroke:#181818;stroke-width:0.5;"/><text fill="#000000" font-family="sans-serif" font-size="14" lengthAdjust="spacing" textLength="125.7676" x="1017.12" y="115.792">T&#233;cnicoDeCalidad</text></g><!--entity Direcci?nDeCalidad--><g id="elem_Direcci&#243;nDeCalidad"><ellipse cx="688.0008" cy="51.2969" fill="#F1F1F1" rx="8" ry="8" style="stroke:#181818;stroke-width:0.5;"/><path d="M688.0008,59.2969 L688.0008,86.2969 M675.0008,67.2969 L701.0008,67.2969 M688.0008,86.2969 L675.0008,101.2969 M688.0008,86.2969 L701.0008,101.2969 " fill="none" style="stroke:#181818;stroke-width:0.5;"/><text fill="#000000" font-family="sans-serif" font-size="14" lengthAdjust="spacing" textLength="137.6416" x="619.18" y="115.792">Direcci&#243;nDeCalidad</text></g><!--entity Sistema--><g id="elem_Sistema"><ellipse cx="1815.0048" cy="51.2969" fill="#F1F1F1" rx="8" ry="8" style="stroke:#181818;stroke-width:0.5;"/><path d="M1815.0048,59.2969 L1815.0048,86.2969 M1802.0048,67.2969 L1828.0048,67.2969 M1815.0048,86.2969 L1802.0048,101.2969 M1815.0048,86.2969 L1828.0048,101.2969 " fill="none" style="stroke:#181818;stroke-width:0.5;"/><text fill="#000000" font-family="sans-serif" font-size="14" lengthAdjust="spacing" textLength="56.3896" x="1786.81" y="115.792">Sistema</text></g><!--link Profesor to UC1--><g id="link_Profesor_UC1"><path d="M136,119.2669 C136,139.9369 136,159.0369 136,177.1669 " fill="none" id="Profesor-to-UC1" style="stroke:#181818;stroke-width:1.0;"/><polygon fill="#181818" points="136,183.1669,140,174.1669,136,178.1669,132,174.1669,136,183.1669" style="stroke:#181818;stroke-width:1.0;"/></g><!--link DirectorDeGrado to UC2--><g id="link_DirectorDeGrado_UC2"><path d="M408,119.2669 C408,139.2169 408,157.2869 408,175.2469 " fill="none" id="DirectorDeGrado-to-UC2" style="stroke:#181818;stroke-width:1.0;"/><polygon fill="#181818" points="408,181.2469,412,172.2469,408,176.2469,404,172.2469,408,181.2469" style="stroke:#181818;stroke-width:1.0;"/></g><!--link T?cnicoDeCalidad to UC3--><g id="link_T&#233;cnicoDeCalidad_UC3"><path d="M1036.89,119.2669 C1012.51,140.3769 987.3369,162.1705 966.3069,180.3705 " fill="none" id="T&#233;cnicoDeCalidad-to-UC3" style="stroke:#181818;stroke-width:1.0;"/><polygon fill="#181818" points="961.77,184.2969,971.193,181.4319,965.5508,181.0249,965.9578,175.3827,961.77,184.2969" style="stroke:#181818;stroke-width:1.0;"/></g><!--link Direcci?nDeCalidad to UC4--><g id="link_Direcci&#243;nDeCalidad_UC4"><path d="M688,119.2669 C688,140.9469 688,161.5069 688,179.7769 " fill="none" id="Direcci&#243;nDeCalidad-to-UC4" style="stroke:#181818;stroke-width:1.0;"/><polygon fill="#181818" points="688,185.7769,692,176.7769,688,180.7769,684,176.7769,688,185.7769" style="stroke:#181818;stroke-width:1.0;"/></g><!--link T?cnicoDeCalidad to UC5--><g id="link_T&#233;cnicoDeCalidad_UC5"><path d="M1123.41,119.2669 C1146.95,139.5069 1170.8704,160.0752 1191.8404,178.1052 " fill="none" id="T&#233;cnicoDeCalidad-to-UC5" style="stroke:#181818;stroke-width:1.0;"/><polygon fill="#181818" points="1196.39,182.0169,1192.1735,173.1163,1192.5987,178.7571,1186.9578,179.1823,1196.39,182.0169" style="stroke:#181818;stroke-width:1.0;"/></g><!--link Sistema to UC6--><g id="link_Sistema_UC6"><path d="M1786.58,94.2269 C1761.59,105.0769 1724.28,121.4169 1692,136.0969 C1659.76,150.7669 1629.3033,165.0202 1600.5033,178.6502 " fill="none" id="Sistema-to-UC6" style="stroke:#181818;stroke-width:1.0;"/><polygon fill="#181818" points="1595.08,181.2169,1604.9261,180.9824,1599.5994,179.078,1601.5039,173.7514,1595.08,181.2169" style="stroke:#181818;stroke-width:1.0;"/></g><!--link Sistema to UC7--><g id="link_Sistema_UC7"><path d="M1815,119.2669 C1815,140.5169 1815,160.4469 1815,178.6769 " fill="none" id="Sistema-to-UC7" style="stroke:#181818;stroke-width:1.0;"/><polygon fill="#181818" points="1815,184.6769,1819,175.6769,1815,179.6769,1811,175.6769,1815,184.6769" style="stroke:#181818;stroke-width:1.0;"/></g><!--link Sistema to UC8--><g id="link_Sistema_UC8"><path d="M1843.51,94.0369 C1868.55,104.7669 1905.9,121.0269 1938,136.0969 C1969.9,151.0669 1999.9898,166.0411 2027.6098,180.0611 " fill="none" id="Sistema-to-UC8" style="stroke:#181818;stroke-width:1.0;"/><polygon fill="#181818" points="2032.96,182.7769,2026.7452,175.1364,2028.5015,180.5137,2023.1242,182.27,2032.96,182.7769" style="stroke:#181818;stroke-width:1.0;"/></g><!--SRC=[TL8xJWCn4Erz2Yjz2lAlaA9Tj1Ke8Wdzu1t2I8uT-HE980v4GSKHSZ7ih0E9TraNw_cycJVZvyX9v7Flz1OS7K3GyLln6ddbZrzWUQa5AeUMztb9i36mXHWjm6eRBskh6GFXjE4Ber_GQfFCaWp6IucLWLedx-huAHG9NM81acgeBxDFpVF8agp3BJ0Mou7Q1Bgz2gqx4orquAUerhR7tnaFdxSem8QqkveScB-Cc2wX6Qt7mtJhukOQCTyP_HmWcZ-YU8N39JeX1kpZYakC6osRhPo8jtWi_GxDdcoebgqrrHncB7n3l3jvb17eUBo51EL8IcZlP1ty5EVwpU7tNZeAnykcGkepplfSBlq9ZIMjWYxU-9rrnWld3RIQLQZGX5uF7lVGW5A1x1acsG8iRTHv0HpugaLksWre_f5B9seMHphhbFVxjoS5P4fD_W5hQJL5Xgn3hIas-XSrPad9oPvazZIpPpy0]--></g></svg>