<svg xmlns="http://www.w3.org/2000/svg" xmlns:xlink="http://www.w3.org/1999/xlink" contentStyleType="text/css" height="818px" preserveAspectRatio="none" style="width:814px;height:818px;background:#FFFFFF;" version="1.1" viewBox="0 0 814 818" width="814px" zoomAndPan="magnify"><title>Automatizaci&#243;n de Gu&#237;as Docentes - Refinado</title><defs/><g><text fill="#000000" font-family="sans-serif" font-size="14" font-weight="bold" lengthAdjust="spacing" textLength="360.3906" x="219.8389" y="22.9951">Automatizaci&#243;n de Gu&#237;as Docentes - Refinado</text><!--class Profesor--><g id="elem_Profesor"><rect codeLine="3" fill="#F1F1F1" height="48" id="Profesor" rx="2.5" ry="2.5" style="stroke:#181818;stroke-width:0.5;" width="89.9209" x="347" y="763.2969"/><ellipse cx="362" cy="779.2969" fill="#ADD1B2" rx="11" ry="11" style="stroke:#181818;stroke-width:1;"/><path d="M364.9688,784.9375 Q364.3906,785.2344 363.75,785.375 Q363.1094,785.5313 362.4063,785.5313 Q359.9063,785.5313 358.5781,783.8906 Q357.2656,782.2344 357.2656,779.1094 Q357.2656,775.9844 358.5781,774.3281 Q359.9063,772.6719 362.4063,772.6719 Q363.1094,772.6719 363.75,772.8281 Q364.4063,772.9844 364.9688,773.2813 L364.9688,776 Q364.3438,775.4219 363.75,775.1563 Q363.1563,774.875 362.5313,774.875 Q361.1875,774.875 360.5,775.9531 Q359.8125,777.0156 359.8125,779.1094 Q359.8125,781.2031 360.5,782.2813 Q361.1875,783.3438 362.5313,783.3438 Q363.1563,783.3438 363.75,783.0781 Q364.3438,782.7969 364.9688,782.2188 L364.9688,784.9375 Z " fill="#000000"/><text fill="#000000" font-family="sans-serif" font-size="14" lengthAdjust="spacing" textLength="57.9209" x="376" y="784.1436">Profesor</text><line style="stroke:#181818;stroke-width:0.5;" x1="348" x2="435.9209" y1="795.2969" y2="795.2969"/><line style="stroke:#181818;stroke-width:0.5;" x1="348" x2="435.9209" y1="803.2969" y2="803.2969"/></g><!--class DirectorDeGrado--><g id="elem_DirectorDeGrado"><rect codeLine="4" fill="#F1F1F1" height="48" id="DirectorDeGrado" rx="2.5" ry="2.5" style="stroke:#181818;stroke-width:0.5;" width="150.5762" x="100.5" y="638.2969"/><ellipse cx="115.5" cy="654.2969" fill="#ADD1B2" rx="11" ry="11" style="stroke:#181818;stroke-width:1;"/><path d="M118.4688,659.9375 Q117.8906,660.2344 117.25,660.375 Q116.6094,660.5313 115.9063,660.5313 Q113.4063,660.5313 112.0781,658.8906 Q110.7656,657.2344 110.7656,654.1094 Q110.7656,650.9844 112.0781,649.3281 Q113.4063,647.6719 115.9063,647.6719 Q116.6094,647.6719 117.25,647.8281 Q117.9063,647.9844 118.4688,648.2813 L118.4688,651 Q117.8438,650.4219 117.25,650.1563 Q116.6563,649.875 116.0313,649.875 Q114.6875,649.875 114,650.9531 Q113.3125,652.0156 113.3125,654.1094 Q113.3125,656.2031 114,657.2813 Q114.6875,658.3438 116.0313,658.3438 Q116.6563,658.3438 117.25,658.0781 Q117.8438,657.7969 118.4688,657.2188 L118.4688,659.9375 Z " fill="#000000"/><text fill="#000000" font-family="sans-serif" font-size="14" lengthAdjust="spacing" textLength="118.5762" x="129.5" y="659.1436">DirectorDeGrado</text><line style="stroke:#181818;stroke-width:0.5;" x1="101.5" x2="250.0762" y1="670.2969" y2="670.2969"/><line style="stroke:#181818;stroke-width:0.5;" x1="101.5" x2="250.0762" y1="678.2969" y2="678.2969"/></g><!--class T?cnicoDeCalidad--><g id="elem_T&#233;cnicoDeCalidad"><rect codeLine="5" fill="#F1F1F1" height="48" id="T&#233;cnicoDeCalidad" rx="2.5" ry="2.5" style="stroke:#181818;stroke-width:0.5;" width="157.7676" x="536" y="763.2969"/><ellipse cx="551" cy="779.2969" fill="#ADD1B2" rx="11" ry="11" style="stroke:#181818;stroke-width:1;"/><path d="M553.9688,784.9375 Q553.3906,785.2344 552.75,785.375 Q552.1094,785.5313 551.4063,785.5313 Q548.9063,785.5313 547.5781,783.8906 Q546.2656,782.2344 546.2656,779.1094 Q546.2656,775.9844 547.5781,774.3281 Q548.9063,772.6719 551.4063,772.6719 Q552.1094,772.6719 552.75,772.8281 Q553.4063,772.9844 553.9688,773.2813 L553.9688,776 Q553.3438,775.4219 552.75,775.1563 Q552.1563,774.875 551.5313,774.875 Q550.1875,774.875 549.5,775.9531 Q548.8125,777.0156 548.8125,779.1094 Q548.8125,781.2031 549.5,782.2813 Q550.1875,783.3438 551.5313,783.3438 Q552.1563,783.3438 552.75,783.0781 Q553.3438,782.7969 553.9688,782.2188 L553.9688,784.9375 Z " fill="#000000"/><text fill="#000000" font-family="sans-serif" font-size="14" lengthAdjust="spacing" textLength="125.7676" x="565" y="784.1436">T&#233;cnicoDeCalidad</text><line style="stroke:#181818;stroke-width:0.5;" x1="537" x2="692.7676" y1="795.2969" y2="795.2969"/><line style="stroke:#181818;stroke-width:0.5;" x1="537" x2="692.7676" y1="803.2969" y2="803.2969"/></g><!--class Direcci?nDeCalidad--><g id="elem_Direcci&#243;nDeCalidad"><rect codeLine="6" fill="#F1F1F1" height="48" id="Direcci&#243;nDeCalidad" rx="2.5" ry="2.5" style="stroke:#181818;stroke-width:0.5;" width="169.6416" x="446" y="638.2969"/><ellipse cx="461" cy="654.2969" fill="#ADD1B2" rx="11" ry="11" style="stroke:#181818;stroke-width:1;"/><path d="M463.9688,659.9375 Q463.3906,660.2344 462.75,660.375 Q462.1094,660.5313 461.4063,660.5313 Q458.9063,660.5313 457.5781,658.8906 Q456.2656,657.2344 456.2656,654.1094 Q456.2656,650.9844 457.5781,649.3281 Q458.9063,647.6719 461.4063,647.6719 Q462.1094,647.6719 462.75,647.8281 Q463.4063,647.9844 463.9688,648.2813 L463.9688,651 Q463.3438,650.4219 462.75,650.1563 Q462.1563,649.875 461.5313,649.875 Q460.1875,649.875 459.5,650.9531 Q458.8125,652.0156 458.8125,654.1094 Q458.8125,656.2031 459.5,657.2813 Q460.1875,658.3438 461.5313,658.3438 Q462.1563,658.3438 462.75,658.0781 Q463.3438,657.7969 463.9688,657.2188 L463.9688,659.9375 Z " fill="#000000"/><text fill="#000000" font-family="sans-serif" font-size="14" lengthAdjust="spacing" textLength="137.6416" x="475" y="659.1436">Direcci&#243;nDeCalidad</text><line style="stroke:#181818;stroke-width:0.5;" x1="447" x2="614.6416" y1="670.2969" y2="670.2969"/><line style="stroke:#181818;stroke-width:0.5;" x1="447" x2="614.6416" y1="678.2969" y2="678.2969"/></g><!--class Guia--><g id="elem_Guia"><rect codeLine="7" fill="#F1F1F1" height="48" id="Guia" rx="2.5" ry="2.5" style="stroke:#181818;stroke-width:0.5;" width="64.1904" x="506" y="44.2969"/><ellipse cx="521" cy="60.2969" fill="#ADD1B2" rx="11" ry="11" style="stroke:#181818;stroke-width:1;"/><path d="M523.9688,65.9375 Q523.3906,66.2344 522.75,66.375 Q522.1094,66.5313 521.4063,66.5313 Q518.9063,66.5313 517.5781,64.8906 Q516.2656,63.2344 516.2656,60.1094 Q516.2656,56.9844 517.5781,55.3281 Q518.9063,53.6719 521.4063,53.6719 Q522.1094,53.6719 522.75,53.8281 Q523.4063,53.9844 523.9688,54.2813 L523.9688,57 Q523.3438,56.4219 522.75,56.1563 Q522.1563,55.875 521.5313,55.875 Q520.1875,55.875 519.5,56.9531 Q518.8125,58.0156 518.8125,60.1094 Q518.8125,62.2031 519.5,63.2813 Q520.1875,64.3438 521.5313,64.3438 Q522.1563,64.3438 522.75,64.0781 Q523.3438,63.7969 523.9688,63.2188 L523.9688,65.9375 Z " fill="#000000"/><text fill="#000000" font-family="sans-serif" font-size="14" lengthAdjust="spacing" textLength="32.1904" x="535" y="65.1436">Guia</text><line style="stroke:#181818;stroke-width:0.5;" x1="507" x2="569.1904" y1="76.2969" y2="76.2969"/><line style="stroke:#181818;stroke-width:0.5;" x1="507" x2="569.1904" y1="84.2969" y2="84.2969"/></g><!--class Contenido--><g id="elem_Contenido"><rect codeLine="8" fill="#F1F1F1" height="48" id="Contenido" rx="2.5" ry="2.5" style="stroke:#181818;stroke-width:0.5;" width="103.5313" x="70" y="294.2969"/><ellipse cx="85" cy="310.2969" fill="#ADD1B2" rx="11" ry="11" style="stroke:#181818;stroke-width:1;"/><path d="M87.9688,315.9375 Q87.3906,316.2344 86.75,316.375 Q86.1094,316.5313 85.4063,316.5313 Q82.9063,316.5313 81.5781,314.8906 Q80.2656,313.2344 80.2656,310.1094 Q80.2656,306.9844 81.5781,305.3281 Q82.9063,303.6719 85.4063,303.6719 Q86.1094,303.6719 86.75,303.8281 Q87.4063,303.9844 87.9688,304.2813 L87.9688,307 Q87.3438,306.4219 86.75,306.1563 Q86.1563,305.875 85.5313,305.875 Q84.1875,305.875 83.5,306.9531 Q82.8125,308.0156 82.8125,310.1094 Q82.8125,312.2031 83.5,313.2813 Q84.1875,314.3438 85.5313,314.3438 Q86.1563,314.3438 86.75,314.0781 Q87.3438,313.7969 87.9688,313.2188 L87.9688,315.9375 Z " fill="#000000"/><text fill="#000000" font-family="sans-serif" font-size="14" lengthAdjust="spacing" textLength="71.5313" x="99" y="315.1436">Contenido</text><line style="stroke:#181818;stroke-width:0.5;" x1="71" x2="172.5313" y1="326.2969" y2="326.2969"/><line style="stroke:#181818;stroke-width:0.5;" x1="71" x2="172.5313" y1="334.2969" y2="334.2969"/></g><!--class Titulacion--><g id="elem_Titulacion"><rect codeLine="9" fill="#F1F1F1" height="48" id="Titulacion" rx="2.5" ry="2.5" style="stroke:#181818;stroke-width:0.5;" width="100.2979" x="227" y="419.2969"/><ellipse cx="242" cy="435.2969" fill="#ADD1B2" rx="11" ry="11" style="stroke:#181818;stroke-width:1;"/><path d="M244.9688,440.9375 Q244.3906,441.2344 243.75,441.375 Q243.1094,441.5313 242.4063,441.5313 Q239.9063,441.5313 238.5781,439.8906 Q237.2656,438.2344 237.2656,435.1094 Q237.2656,431.9844 238.5781,430.3281 Q239.9063,428.6719 242.4063,428.6719 Q243.1094,428.6719 243.75,428.8281 Q244.4063,428.9844 244.9688,429.2813 L244.9688,432 Q244.3438,431.4219 243.75,431.1563 Q243.1563,430.875 242.5313,430.875 Q241.1875,430.875 240.5,431.9531 Q239.8125,433.0156 239.8125,435.1094 Q239.8125,437.2031 240.5,438.2813 Q241.1875,439.3438 242.5313,439.3438 Q243.1563,439.3438 243.75,439.0781 Q244.3438,438.7969 244.9688,438.2188 L244.9688,440.9375 Z " fill="#000000"/><text fill="#000000" font-family="sans-serif" font-size="14" lengthAdjust="spacing" textLength="68.2979" x="256" y="440.1436">Titulacion</text><line style="stroke:#181818;stroke-width:0.5;" x1="228" x2="326.2979" y1="451.2969" y2="451.2969"/><line style="stroke:#181818;stroke-width:0.5;" x1="228" x2="326.2979" y1="459.2969" y2="459.2969"/></g><!--class Asignatura--><g id="elem_Asignatura"><rect codeLine="10" fill="#F1F1F1" height="48" id="Asignatura" rx="2.5" ry="2.5" style="stroke:#181818;stroke-width:0.5;" width="107.7969" x="223" y="169.2969"/><ellipse cx="238" cy="185.2969" fill="#ADD1B2" rx="11" ry="11" style="stroke:#181818;stroke-width:1;"/><path d="M240.9688,190.9375 Q240.3906,191.2344 239.75,191.375 Q239.1094,191.5313 238.4063,191.5313 Q235.9063,191.5313 234.5781,189.8906 Q233.2656,188.2344 233.2656,185.1094 Q233.2656,181.9844 234.5781,180.3281 Q235.9063,178.6719 238.4063,178.6719 Q239.1094,178.6719 239.75,178.8281 Q240.4063,178.9844 240.9688,179.2813 L240.9688,182 Q240.3438,181.4219 239.75,181.1563 Q239.1563,180.875 238.5313,180.875 Q237.1875,180.875 236.5,181.9531 Q235.8125,183.0156 235.8125,185.1094 Q235.8125,187.2031 236.5,188.2813 Q237.1875,189.3438 238.5313,189.3438 Q239.1563,189.3438 239.75,189.0781 Q240.3438,188.7969 240.9688,188.2188 L240.9688,190.9375 Z " fill="#000000"/><text fill="#000000" font-family="sans-serif" font-size="14" lengthAdjust="spacing" textLength="75.7969" x="252" y="190.1436">Asignatura</text><line style="stroke:#181818;stroke-width:0.5;" x1="224" x2="329.7969" y1="201.2969" y2="201.2969"/><line style="stroke:#181818;stroke-width:0.5;" x1="224" x2="329.7969" y1="209.2969" y2="209.2969"/></g><!--class Version--><g id="elem_Version"><rect codeLine="11" fill="#F1F1F1" height="48" id="Version" rx="2.5" ry="2.5" style="stroke:#181818;stroke-width:0.5;" width="84.5684" x="722.5" y="169.2969"/><ellipse cx="737.5" cy="185.2969" fill="#ADD1B2" rx="11" ry="11" style="stroke:#181818;stroke-width:1;"/><path d="M740.4688,190.9375 Q739.8906,191.2344 739.25,191.375 Q738.6094,191.5313 737.9063,191.5313 Q735.4063,191.5313 734.0781,189.8906 Q732.7656,188.2344 732.7656,185.1094 Q732.7656,181.9844 734.0781,180.3281 Q735.4063,178.6719 737.9063,178.6719 Q738.6094,178.6719 739.25,178.8281 Q739.9063,178.9844 740.4688,179.2813 L740.4688,182 Q739.8438,181.4219 739.25,181.1563 Q738.6563,180.875 738.0313,180.875 Q736.6875,180.875 736,181.9531 Q735.3125,183.0156 735.3125,185.1094 Q735.3125,187.2031 736,188.2813 Q736.6875,189.3438 738.0313,189.3438 Q738.6563,189.3438 739.25,189.0781 Q739.8438,188.7969 740.4688,188.2188 L740.4688,190.9375 Z " fill="#000000"/><text fill="#000000" font-family="sans-serif" font-size="14" lengthAdjust="spacing" textLength="52.5684" x="751.5" y="190.1436">Version</text><line style="stroke:#181818;stroke-width:0.5;" x1="723.5" x2="806.0684" y1="201.2969" y2="201.2969"/><line style="stroke:#181818;stroke-width:0.5;" x1="723.5" x2="806.0684" y1="209.2969" y2="209.2969"/></g><!--link Guia to Titulacion--><g id="link_Guia_Titulacion"><path codeLine="13" d="M518.63,92.3669 C491.6,125.2969 442.05,188.3069 408,247.2969 C384.92,287.2769 390.98,303.4769 366,342.2969 C347.51,371.0269 329.4085,391.2648 310.1085,410.5048 " fill="none" id="Guia-to-Titulacion" style="stroke:#181818;stroke-width:1;"/><polygon fill="#181818" points="301.61,418.9769,308.6833,417.5737,310.1085,410.5048,303.0352,411.908,301.61,418.9769" style="stroke:#181818;stroke-width:1;"/><text fill="#000000" font-family="sans-serif" font-size="13" lengthAdjust="spacing" textLength="102.4131" x="409" y="260.3638">forma_parte_de</text></g><!--reverse link Guia to Asignatura--><g id="link_Guia_Asignatura"><path codeLine="14" d="M493.7918,73.1673 C452.0118,77.7573 390.2,88.9469 337,122.2969 C318.15,134.1169 302.08,153.7369 291.33,169.2069 " fill="none" id="Guia-backto-Asignatura" style="stroke:#181818;stroke-width:1;"/><polygon fill="none" points="505.72,71.8569,499.3191,68.536,493.7918,73.1673,500.1927,76.4882,505.72,71.8569" style="stroke:#181818;stroke-width:1;"/><text fill="#000000" font-family="sans-serif" font-size="13" lengthAdjust="spacing" textLength="46.541" x="338" y="135.3638">incluye</text></g><!--reverse link Asignatura to Contenido--><g id="link_Asignatura_Contenido"><path codeLine="16" d="M217.3539,216.6731 C198.9939,225.0731 184.65,233.6269 169,247.2969 C154.01,260.3869 141.68,279.3269 133.42,294.2069 " fill="none" id="Asignatura-backto-Contenido" style="stroke:#181818;stroke-width:1;"/><polygon fill="#181818" points="222.81,214.1769,212.9617,214.2839,218.2633,216.2571,216.29,221.5586,222.81,214.1769" style="stroke:#181818;stroke-width:1;"/><text fill="#000000" font-family="sans-serif" font-size="13" lengthAdjust="spacing" textLength="80.5391" x="170" y="260.3638">pertenece_a</text></g><!--reverse link Asignatura to Titulacion--><g id="link_Asignatura_Titulacion"><path codeLine="17" d="M277,229.6269 C277,277.0169 277,372.0269 277,419.2069 " fill="none" id="Asignatura-backto-Titulacion" style="stroke:#181818;stroke-width:1;"/><polygon fill="none" points="277,217.6269,273,223.6269,277,229.6269,281,223.6269,277,217.6269" style="stroke:#181818;stroke-width:1;"/><text fill="#000000" font-family="sans-serif" font-size="13" lengthAdjust="spacing" textLength="79.6631" x="278" y="322.8638">forma_parte</text></g><!--link Guia to Direcci?nDeCalidad--><g id="link_Guia_Direcci&#243;nDeCalidad"><path codeLine="19" d="M538,92.4169 C538,117.1369 538,157.4869 538,192.2969 C538,192.2969 538,192.2969 538,553.7969 C538,582.9769 535.4,616.5069 533.37,638.2569 " fill="none" id="Guia-Direcci&#243;nDeCalidad" style="stroke:#181818;stroke-width:1;"/><text fill="#000000" font-family="sans-serif" font-size="13" lengthAdjust="spacing" textLength="106.6724" x="539" y="385.3638">es_auditada_por</text></g><!--reverse link Guia to T?cnicoDeCalidad--><g id="link_Guia_T&#233;cnicoDeCalidad"><path codeLine="20" d="M575.4713,85.0977 C614.2513,103.4877 669,138.1669 669,192.2969 C669,192.2969 669,192.2969 669,663.2969 C669,700.6069 647.91,739.3269 632.09,763.1169 " fill="none" id="Guia-backto-T&#233;cnicoDeCalidad" style="stroke:#181818;stroke-width:1;"/><polygon fill="#181818" points="570.05,82.5269,576.4681,89.9974,574.5678,84.6693,579.8959,82.769,570.05,82.5269" style="stroke:#181818;stroke-width:1;"/><text fill="#000000" font-family="sans-serif" font-size="13" lengthAdjust="spacing" textLength="98.4648" x="670" y="447.8638">es_editada_por</text></g><!--reverse link Guia to Version--><g id="link_Guia_Version"><path codeLine="21" d="M581.9537,78.2672 C615.0737,85.7672 655.52,97.7969 695,122.2969 C715.01,134.7169 733.65,153.8869 746.65,169.0269 " fill="none" id="Guia-backto-Version" style="stroke:#181818;stroke-width:1;"/><polygon fill="#181818" points="570.25,75.6169,575.2184,80.8432,581.9537,78.2672,576.9853,73.0408,570.25,75.6169" style="stroke:#181818;stroke-width:1;"/><text fill="#000000" font-family="sans-serif" font-size="13" lengthAdjust="spacing" textLength="32.9443" x="717" y="135.3638">tiene</text></g><!--reverse link Contenido to Titulacion--><g id="link_Contenido_Titulacion"><path codeLine="23" d="M126.9715,348.185 C130.4215,363.225 135.66,376.5269 148,389.2969 C169.03,411.0569 200.28,424.2069 226.75,431.9669 " fill="none" id="Contenido-backto-Titulacion" style="stroke:#181818;stroke-width:1;"/><polygon fill="#181818" points="125.63,342.3369,123.7435,352.0034,126.7479,347.2103,131.541,350.2147,125.63,342.3369" style="stroke:#181818;stroke-width:1;"/><text fill="#000000" font-family="sans-serif" font-size="13" lengthAdjust="spacing" textLength="101.8164" x="149" y="385.3638">es_definido_por</text></g><!--link Direcci?nDeCalidad to T?cnicoDeCalidad--><g id="link_Direcci&#243;nDeCalidad_T&#233;cnicoDeCalidad"><path codeLine="25" d="M539.64,686.3769 C545.48,700.5369 553.94,718.6969 564,733.2969 C571.32,743.9169 580.8,754.4069 589.6,763.2169 " fill="none" id="Direcci&#243;nDeCalidad-T&#233;cnicoDeCalidad" style="stroke:#181818;stroke-width:1;"/><text fill="#000000" font-family="sans-serif" font-size="13" lengthAdjust="spacing" textLength="77.1177" x="565" y="729.3638">supervisa_a</text></g><!--link Direcci?nDeCalidad to Profesor--><g id="link_Direcci&#243;nDeCalidad_Profesor"><path codeLine="26" d="M504.86,686.4369 C480,708.4269 442.84,741.3069 418.03,763.2669 " fill="none" id="Direcci&#243;nDeCalidad-Profesor" style="stroke:#181818;stroke-width:1;"/><text fill="#000000" font-family="sans-serif" font-size="13" lengthAdjust="spacing" textLength="55.5991" x="471" y="729.3638">audita_a</text></g><!--link DirectorDeGrado to Direcci?nDeCalidad--><g id="link_DirectorDeGrado_Direcci&#243;nDeCalidad"><path codeLine="27" d="M251.72,662.2969 C308.64,662.2969 386.64,662.2969 445.74,662.2969 " fill="none" id="DirectorDeGrado-Direcci&#243;nDeCalidad" style="stroke:#181818;stroke-width:1;"/><text fill="#000000" font-family="sans-serif" font-size="13" lengthAdjust="spacing" textLength="55.5991" x="321.25" y="655.3638">audita_a</text></g><!--link Titulacion to Profesor--><g id="link_Titulacion_Profesor"><path codeLine="29" d="M303.24,467.4069 C322.61,486.1069 347.8,514.1869 361,544.2969 C393.81,619.1669 395.1801,706.7039 393.6601,751.1539 " fill="none" id="Titulacion-to-Profesor" style="stroke:#181818;stroke-width:1;"/><polygon fill="none" points="393.25,763.1469,397.4527,757.2871,393.6601,751.1539,389.4574,757.0137,393.25,763.1469" style="stroke:#181818;stroke-width:1;"/><text fill="#000000" font-family="sans-serif" font-size="13" lengthAdjust="spacing" textLength="121.7988" x="382" y="604.3638">est&#225;_asociado_con</text></g><!--link Titulacion to DirectorDeGrado--><g id="link_Titulacion_DirectorDeGrado"><path codeLine="30" d="M266.19,467.5169 C246.75,509.2869 211.1735,585.7175 191.7935,627.3575 " fill="none" id="Titulacion-to-DirectorDeGrado" style="stroke:#181818;stroke-width:1;"/><polygon fill="none" points="186.73,638.2369,192.8882,634.485,191.7935,627.3575,185.6353,631.1094,186.73,638.2369" style="stroke:#181818;stroke-width:1;"/><text fill="#000000" font-family="sans-serif" font-size="13" lengthAdjust="spacing" textLength="121.7988" x="231" y="557.3638">est&#225;_asociado_con</text></g><!--reverse link Contenido to DirectorDeGrado--><g id="link_Contenido_DirectorDeGrado"><path codeLine="32" d="M115.0627,348.2772 C106.9727,385.1072 95.75,453.2869 109,514.2969 C119.06,560.6169 145.04,609.8469 161.53,637.9569 " fill="none" id="Contenido-backto-DirectorDeGrado" style="stroke:#181818;stroke-width:1;"/><polygon fill="#181818" points="116.35,342.4169,110.5123,350.3491,115.2773,347.3004,118.326,352.0655,116.35,342.4169" style="stroke:#181818;stroke-width:1;"/><text fill="#000000" font-family="sans-serif" font-size="13" lengthAdjust="spacing" textLength="126.458" x="110" y="510.3638">aprueba_o_rechaza</text></g><!--reverse link Contenido to Profesor--><g id="link_Contenido_Profesor"><path codeLine="33" d="M73.76,345.6869 C40.78,366.8469 6,398.2669 6,442.2969 C6,442.2969 6,442.2969 6,663.2969 C6,734.1569 245.14,769.6769 346.97,781.5769 " fill="none" id="Contenido-backto-Profesor" style="stroke:#181818;stroke-width:1;"/><polygon fill="#181818" points="78.81,342.4469,69.075,343.9403,74.6017,345.1469,73.3951,350.6736,78.81,342.4469" style="stroke:#181818;stroke-width:1;"/><text fill="#000000" font-family="sans-serif" font-size="13" lengthAdjust="spacing" textLength="32.9253" x="7" y="557.3638">edita</text></g><!--SRC=[ZLAxRiCm3Dpr5Pm3w0UCBa4CP2sAegl0IdHBm94CFLeqVzEnGwT-Wd-iygjs70VePfDtn-E9aMDDi4_HdJ3o6JMtFnOCmJ6rtnYWT9fif00I7gXYYyO9eMiC0UwzgoWuF_wMx4b7vqiw-WurL1_RBsrPkv8EMBD1iqJtmzQTOs8SFmykZxOyYt5CTRRex5ZO1twn69EV64_aGzSMdGf8kLjm2gYSFw5gq4TIXWQCat8XKm1RNQSF4c8kmfqqxjtAsKy13MKHIveKBf5kHDwOElaQG1iP5411OJ8SqMHE3hSdJ0Qkqkpnj8RlHlYOHW6HirSX_lndmKkFMSLqpvjxlOpOy0Poqq18EOit3fYJkC6QBgM0ORLRo5hAzHajA6AIoIcdvcg1s7ug34vpPYcTRs2bz4_MHKWRRXgVw1cLKxdnYcTSXJglsh_ABm00]--></g></svg>