<svg xmlns="http://www.w3.org/2000/svg" xmlns:xlink="http://www.w3.org/1999/xlink" contentStyleType="text/css" height="976px" preserveAspectRatio="none" style="width:1015px;height:976px;background:#FFFFFF;" version="1.1" viewBox="0 0 1015 976" width="1015px" zoomAndPan="magnify"><title>Automatizaci&#243;n de Gu&#237;as Docentes - Refinado</title><defs/><g><text fill="#000000" font-family="sans-serif" font-size="14" font-weight="bold" lengthAdjust="spacing" textLength="360.3906" x="320.3389" y="22.9951">Automatizaci&#243;n de Gu&#237;as Docentes - Refinado</text><!--class SuperAdmin--><g id="elem_SuperAdmin"><rect codeLine="3" fill="#F1F1F1" height="48" id="SuperAdmin" rx="2.5" ry="2.5" style="stroke:#181818;stroke-width:0.5;" width="117.8799" x="537" y="921.2969"/><ellipse cx="552" cy="937.2969" fill="#ADD1B2" rx="11" ry="11" style="stroke:#181818;stroke-width:1;"/><path d="M554.9688,942.9375 Q554.3906,943.2344 553.75,943.375 Q553.1094,943.5313 552.4063,943.5313 Q549.9063,943.5313 548.5781,941.8906 Q547.2656,940.2344 547.2656,937.1094 Q547.2656,933.9844 548.5781,932.3281 Q549.9063,930.6719 552.4063,930.6719 Q553.1094,930.6719 553.75,930.8281 Q554.4063,930.9844 554.9688,931.2813 L554.9688,934 Q554.3438,933.4219 553.75,933.1563 Q553.1563,932.875 552.5313,932.875 Q551.1875,932.875 550.5,933.9531 Q549.8125,935.0156 549.8125,937.1094 Q549.8125,939.2031 550.5,940.2813 Q551.1875,941.3438 552.5313,941.3438 Q553.1563,941.3438 553.75,941.0781 Q554.3438,940.7969 554.9688,940.2188 L554.9688,942.9375 Z " fill="#000000"/><text fill="#000000" font-family="sans-serif" font-size="14" lengthAdjust="spacing" textLength="85.8799" x="566" y="942.1436">SuperAdmin</text><line style="stroke:#181818;stroke-width:0.5;" x1="538" x2="653.8799" y1="953.2969" y2="953.2969"/><line style="stroke:#181818;stroke-width:0.5;" x1="538" x2="653.8799" y1="961.2969" y2="961.2969"/></g><!--class Profesor--><g id="elem_Profesor"><rect codeLine="4" fill="#F1F1F1" height="48" id="Profesor" rx="2.5" ry="2.5" style="stroke:#181818;stroke-width:0.5;" width="89.9209" x="460" y="796.2969"/><ellipse cx="475" cy="812.2969" fill="#ADD1B2" rx="11" ry="11" style="stroke:#181818;stroke-width:1;"/><path d="M477.9688,817.9375 Q477.3906,818.2344 476.75,818.375 Q476.1094,818.5313 475.4063,818.5313 Q472.9063,818.5313 471.5781,816.8906 Q470.2656,815.2344 470.2656,812.1094 Q470.2656,808.9844 471.5781,807.3281 Q472.9063,805.6719 475.4063,805.6719 Q476.1094,805.6719 476.75,805.8281 Q477.4063,805.9844 477.9688,806.2813 L477.9688,809 Q477.3438,808.4219 476.75,808.1563 Q476.1563,807.875 475.5313,807.875 Q474.1875,807.875 473.5,808.9531 Q472.8125,810.0156 472.8125,812.1094 Q472.8125,814.2031 473.5,815.2813 Q474.1875,816.3438 475.5313,816.3438 Q476.1563,816.3438 476.75,816.0781 Q477.3438,815.7969 477.9688,815.2188 L477.9688,817.9375 Z " fill="#000000"/><text fill="#000000" font-family="sans-serif" font-size="14" lengthAdjust="spacing" textLength="57.9209" x="489" y="817.1436">Profesor</text><line style="stroke:#181818;stroke-width:0.5;" x1="461" x2="548.9209" y1="828.2969" y2="828.2969"/><line style="stroke:#181818;stroke-width:0.5;" x1="461" x2="548.9209" y1="836.2969" y2="836.2969"/></g><!--class DirectorDeGrado--><g id="elem_DirectorDeGrado"><rect codeLine="5" fill="#F1F1F1" height="48" id="DirectorDeGrado" rx="2.5" ry="2.5" style="stroke:#181818;stroke-width:0.5;" width="150.5762" x="119.5" y="671.2969"/><ellipse cx="134.5" cy="687.2969" fill="#ADD1B2" rx="11" ry="11" style="stroke:#181818;stroke-width:1;"/><path d="M137.4688,692.9375 Q136.8906,693.2344 136.25,693.375 Q135.6094,693.5313 134.9063,693.5313 Q132.4063,693.5313 131.0781,691.8906 Q129.7656,690.2344 129.7656,687.1094 Q129.7656,683.9844 131.0781,682.3281 Q132.4063,680.6719 134.9063,680.6719 Q135.6094,680.6719 136.25,680.8281 Q136.9063,680.9844 137.4688,681.2813 L137.4688,684 Q136.8438,683.4219 136.25,683.1563 Q135.6563,682.875 135.0313,682.875 Q133.6875,682.875 133,683.9531 Q132.3125,685.0156 132.3125,687.1094 Q132.3125,689.2031 133,690.2813 Q133.6875,691.3438 135.0313,691.3438 Q135.6563,691.3438 136.25,691.0781 Q136.8438,690.7969 137.4688,690.2188 L137.4688,692.9375 Z " fill="#000000"/><text fill="#000000" font-family="sans-serif" font-size="14" lengthAdjust="spacing" textLength="118.5762" x="148.5" y="692.1436">DirectorDeGrado</text><line style="stroke:#181818;stroke-width:0.5;" x1="120.5" x2="269.0762" y1="703.2969" y2="703.2969"/><line style="stroke:#181818;stroke-width:0.5;" x1="120.5" x2="269.0762" y1="711.2969" y2="711.2969"/></g><!--class T?cnicoDeCalidad--><g id="elem_T&#233;cnicoDeCalidad"><rect codeLine="6" fill="#F1F1F1" height="48" id="T&#233;cnicoDeCalidad" rx="2.5" ry="2.5" style="stroke:#181818;stroke-width:0.5;" width="157.7676" x="585" y="796.2969"/><ellipse cx="600" cy="812.2969" fill="#ADD1B2" rx="11" ry="11" style="stroke:#181818;stroke-width:1;"/><path d="M602.9688,817.9375 Q602.3906,818.2344 601.75,818.375 Q601.1094,818.5313 600.4063,818.5313 Q597.9063,818.5313 596.5781,816.8906 Q595.2656,815.2344 595.2656,812.1094 Q595.2656,808.9844 596.5781,807.3281 Q597.9063,805.6719 600.4063,805.6719 Q601.1094,805.6719 601.75,805.8281 Q602.4063,805.9844 602.9688,806.2813 L602.9688,809 Q602.3438,808.4219 601.75,808.1563 Q601.1563,807.875 600.5313,807.875 Q599.1875,807.875 598.5,808.9531 Q597.8125,810.0156 597.8125,812.1094 Q597.8125,814.2031 598.5,815.2813 Q599.1875,816.3438 600.5313,816.3438 Q601.1563,816.3438 601.75,816.0781 Q602.3438,815.7969 602.9688,815.2188 L602.9688,817.9375 Z " fill="#000000"/><text fill="#000000" font-family="sans-serif" font-size="14" lengthAdjust="spacing" textLength="125.7676" x="614" y="817.1436">T&#233;cnicoDeCalidad</text><line style="stroke:#181818;stroke-width:0.5;" x1="586" x2="741.7676" y1="828.2969" y2="828.2969"/><line style="stroke:#181818;stroke-width:0.5;" x1="586" x2="741.7676" y1="836.2969" y2="836.2969"/></g><!--class DirectorDeCalidad--><g id="elem_DirectorDeCalidad"><rect codeLine="7" fill="#F1F1F1" height="48" id="DirectorDeCalidad" rx="2.5" ry="2.5" style="stroke:#181818;stroke-width:0.5;" width="160.4268" x="719" y="671.2969"/><ellipse cx="734" cy="687.2969" fill="#ADD1B2" rx="11" ry="11" style="stroke:#181818;stroke-width:1;"/><path d="M736.9688,692.9375 Q736.3906,693.2344 735.75,693.375 Q735.1094,693.5313 734.4063,693.5313 Q731.9063,693.5313 730.5781,691.8906 Q729.2656,690.2344 729.2656,687.1094 Q729.2656,683.9844 730.5781,682.3281 Q731.9063,680.6719 734.4063,680.6719 Q735.1094,680.6719 735.75,680.8281 Q736.4063,680.9844 736.9688,681.2813 L736.9688,684 Q736.3438,683.4219 735.75,683.1563 Q735.1563,682.875 734.5313,682.875 Q733.1875,682.875 732.5,683.9531 Q731.8125,685.0156 731.8125,687.1094 Q731.8125,689.2031 732.5,690.2813 Q733.1875,691.3438 734.5313,691.3438 Q735.1563,691.3438 735.75,691.0781 Q736.3438,690.7969 736.9688,690.2188 L736.9688,692.9375 Z " fill="#000000"/><text fill="#000000" font-family="sans-serif" font-size="14" lengthAdjust="spacing" textLength="128.4268" x="748" y="692.1436">DirectorDeCalidad</text><line style="stroke:#181818;stroke-width:0.5;" x1="720" x2="878.4268" y1="703.2969" y2="703.2969"/><line style="stroke:#181818;stroke-width:0.5;" x1="720" x2="878.4268" y1="711.2969" y2="711.2969"/></g><!--class Guia--><g id="elem_Guia"><rect codeLine="8" fill="#F1F1F1" height="48" id="Guia" rx="2.5" ry="2.5" style="stroke:#181818;stroke-width:0.5;" width="64.1904" x="799" y="44.2969"/><ellipse cx="814" cy="60.2969" fill="#ADD1B2" rx="11" ry="11" style="stroke:#181818;stroke-width:1;"/><path d="M816.9688,65.9375 Q816.3906,66.2344 815.75,66.375 Q815.1094,66.5313 814.4063,66.5313 Q811.9063,66.5313 810.5781,64.8906 Q809.2656,63.2344 809.2656,60.1094 Q809.2656,56.9844 810.5781,55.3281 Q811.9063,53.6719 814.4063,53.6719 Q815.1094,53.6719 815.75,53.8281 Q816.4063,53.9844 816.9688,54.2813 L816.9688,57 Q816.3438,56.4219 815.75,56.1563 Q815.1563,55.875 814.5313,55.875 Q813.1875,55.875 812.5,56.9531 Q811.8125,58.0156 811.8125,60.1094 Q811.8125,62.2031 812.5,63.2813 Q813.1875,64.3438 814.5313,64.3438 Q815.1563,64.3438 815.75,64.0781 Q816.3438,63.7969 816.9688,63.2188 L816.9688,65.9375 Z " fill="#000000"/><text fill="#000000" font-family="sans-serif" font-size="14" lengthAdjust="spacing" textLength="32.1904" x="828" y="65.1436">Guia</text><line style="stroke:#181818;stroke-width:0.5;" x1="800" x2="862.1904" y1="76.2969" y2="76.2969"/><line style="stroke:#181818;stroke-width:0.5;" x1="800" x2="862.1904" y1="84.2969" y2="84.2969"/></g><!--class Contenido--><g id="elem_Contenido"><rect codeLine="9" fill="#F1F1F1" height="80.5938" id="Contenido" rx="2.5" ry="2.5" style="stroke:#181818;stroke-width:0.5;" width="163.4434" x="262.5" y="294.2969"/><ellipse cx="304.4604" cy="310.2969" fill="#ADD1B2" rx="11" ry="11" style="stroke:#181818;stroke-width:1;"/><path d="M307.4292,315.9375 Q306.8511,316.2344 306.2104,316.375 Q305.5698,316.5313 304.8667,316.5313 Q302.3667,316.5313 301.0386,314.8906 Q299.7261,313.2344 299.7261,310.1094 Q299.7261,306.9844 301.0386,305.3281 Q302.3667,303.6719 304.8667,303.6719 Q305.5698,303.6719 306.2104,303.8281 Q306.8667,303.9844 307.4292,304.2813 L307.4292,307 Q306.8042,306.4219 306.2104,306.1563 Q305.6167,305.875 304.9917,305.875 Q303.6479,305.875 302.9604,306.9531 Q302.2729,308.0156 302.2729,310.1094 Q302.2729,312.2031 302.9604,313.2813 Q303.6479,314.3438 304.9917,314.3438 Q305.6167,314.3438 306.2104,314.0781 Q306.8042,313.7969 307.4292,313.2188 L307.4292,315.9375 Z " fill="#000000"/><text fill="#000000" font-family="sans-serif" font-size="14" lengthAdjust="spacing" textLength="71.5313" x="324.4517" y="315.1436">Contenido</text><line style="stroke:#181818;stroke-width:0.5;" x1="263.5" x2="424.9434" y1="326.2969" y2="326.2969"/><ellipse cx="273.5" cy="339.9453" fill="none" rx="3" ry="3" style="stroke:#038048;stroke-width:1;"/><text fill="#000000" font-family="sans-serif" font-size="14" lengthAdjust="spacing" textLength="127.3809" x="282.5" y="343.292">ContenidoEstatico</text><ellipse cx="273.5" cy="356.2422" fill="none" rx="3" ry="3" style="stroke:#038048;stroke-width:1;"/><text fill="#000000" font-family="sans-serif" font-size="14" lengthAdjust="spacing" textLength="137.4434" x="282.5" y="359.5889">ContenidoDin&#225;mico</text><line style="stroke:#181818;stroke-width:0.5;" x1="263.5" x2="424.9434" y1="366.8906" y2="366.8906"/></g><!--class Titulacion--><g id="elem_Titulacion"><rect codeLine="13" fill="#F1F1F1" height="48" id="Titulacion" rx="2.5" ry="2.5" style="stroke:#181818;stroke-width:0.5;" width="100.2979" x="7" y="546.2969"/><ellipse cx="22" cy="562.2969" fill="#ADD1B2" rx="11" ry="11" style="stroke:#181818;stroke-width:1;"/><path d="M24.9688,567.9375 Q24.3906,568.2344 23.75,568.375 Q23.1094,568.5313 22.4063,568.5313 Q19.9063,568.5313 18.5781,566.8906 Q17.2656,565.2344 17.2656,562.1094 Q17.2656,558.9844 18.5781,557.3281 Q19.9063,555.6719 22.4063,555.6719 Q23.1094,555.6719 23.75,555.8281 Q24.4063,555.9844 24.9688,556.2813 L24.9688,559 Q24.3438,558.4219 23.75,558.1563 Q23.1563,557.875 22.5313,557.875 Q21.1875,557.875 20.5,558.9531 Q19.8125,560.0156 19.8125,562.1094 Q19.8125,564.2031 20.5,565.2813 Q21.1875,566.3438 22.5313,566.3438 Q23.1563,566.3438 23.75,566.0781 Q24.3438,565.7969 24.9688,565.2188 L24.9688,567.9375 Z " fill="#000000"/><text fill="#000000" font-family="sans-serif" font-size="14" lengthAdjust="spacing" textLength="68.2979" x="36" y="567.1436">Titulacion</text><line style="stroke:#181818;stroke-width:0.5;" x1="8" x2="106.2979" y1="578.2969" y2="578.2969"/><line style="stroke:#181818;stroke-width:0.5;" x1="8" x2="106.2979" y1="586.2969" y2="586.2969"/></g><!--class Asignatura--><g id="elem_Asignatura"><rect codeLine="14" fill="#F1F1F1" height="48" id="Asignatura" rx="2.5" ry="2.5" style="stroke:#181818;stroke-width:0.5;" width="107.7969" x="491" y="169.2969"/><ellipse cx="506" cy="185.2969" fill="#ADD1B2" rx="11" ry="11" style="stroke:#181818;stroke-width:1;"/><path d="M508.9688,190.9375 Q508.3906,191.2344 507.75,191.375 Q507.1094,191.5313 506.4063,191.5313 Q503.9063,191.5313 502.5781,189.8906 Q501.2656,188.2344 501.2656,185.1094 Q501.2656,181.9844 502.5781,180.3281 Q503.9063,178.6719 506.4063,178.6719 Q507.1094,178.6719 507.75,178.8281 Q508.4063,178.9844 508.9688,179.2813 L508.9688,182 Q508.3438,181.4219 507.75,181.1563 Q507.1563,180.875 506.5313,180.875 Q505.1875,180.875 504.5,181.9531 Q503.8125,183.0156 503.8125,185.1094 Q503.8125,187.2031 504.5,188.2813 Q505.1875,189.3438 506.5313,189.3438 Q507.1563,189.3438 507.75,189.0781 Q508.3438,188.7969 508.9688,188.2188 L508.9688,190.9375 Z " fill="#000000"/><text fill="#000000" font-family="sans-serif" font-size="14" lengthAdjust="spacing" textLength="75.7969" x="520" y="190.1436">Asignatura</text><line style="stroke:#181818;stroke-width:0.5;" x1="492" x2="597.7969" y1="201.2969" y2="201.2969"/><line style="stroke:#181818;stroke-width:0.5;" x1="492" x2="597.7969" y1="209.2969" y2="209.2969"/></g><!--class Version--><g id="elem_Version"><rect codeLine="15" fill="#F1F1F1" height="48" id="Version" rx="2.5" ry="2.5" style="stroke:#181818;stroke-width:0.5;" width="84.5684" x="923.5" y="169.2969"/><ellipse cx="938.5" cy="185.2969" fill="#ADD1B2" rx="11" ry="11" style="stroke:#181818;stroke-width:1;"/><path d="M941.4688,190.9375 Q940.8906,191.2344 940.25,191.375 Q939.6094,191.5313 938.9063,191.5313 Q936.4063,191.5313 935.0781,189.8906 Q933.7656,188.2344 933.7656,185.1094 Q933.7656,181.9844 935.0781,180.3281 Q936.4063,178.6719 938.9063,178.6719 Q939.6094,178.6719 940.25,178.8281 Q940.9063,178.9844 941.4688,179.2813 L941.4688,182 Q940.8438,181.4219 940.25,181.1563 Q939.6563,180.875 939.0313,180.875 Q937.6875,180.875 937,181.9531 Q936.3125,183.0156 936.3125,185.1094 Q936.3125,187.2031 937,188.2813 Q937.6875,189.3438 939.0313,189.3438 Q939.6563,189.3438 940.25,189.0781 Q940.8438,188.7969 941.4688,188.2188 L941.4688,190.9375 Z " fill="#000000"/><text fill="#000000" font-family="sans-serif" font-size="14" lengthAdjust="spacing" textLength="52.5684" x="952.5" y="190.1436">Version</text><line style="stroke:#181818;stroke-width:0.5;" x1="924.5" x2="1007.0684" y1="201.2969" y2="201.2969"/><line style="stroke:#181818;stroke-width:0.5;" x1="924.5" x2="1007.0684" y1="209.2969" y2="209.2969"/></g><!--link Guia to Asignatura--><g id="link_Guia_Asignatura"><path codeLine="17" d="M798.75,83.1669 C750.1,104.0869 657.4,143.9569 598.52,169.2769 " fill="none" id="Guia-Asignatura" style="stroke:#181818;stroke-width:1;"/><polygon fill="#000000" points="706.4067,132.8386,715.8771,131.965,713.5549,126.5653,706.4067,132.8386" style="stroke:#000000;stroke-width:1;"/><text fill="#000000" font-family="sans-serif" font-size="13" lengthAdjust="spacing" textLength="80.5391" x="720" y="135.3638">pertenece_a</text></g><!--link Guia to Contenido--><g id="link_Guia_Contenido"><path codeLine="18" d="M798.73,70.4569 C696,74.8769 379.67,94.4469 318,169.2969 C289.32,204.1069 305.25,257.5769 322.07,294.0369 " fill="none" id="Guia-Contenido" style="stroke:#181818;stroke-width:1;"/><polygon fill="#000000" points="318.4732,195.4866,327.9103,194.3063,325.4142,188.9847,318.4732,195.4866" style="stroke:#000000;stroke-width:1;"/><text fill="#000000" font-family="sans-serif" font-size="13" lengthAdjust="spacing" textLength="140.4355" x="332" y="197.8638">est&#225;_conformado_por</text></g><!--link Asignatura to Contenido--><g id="link_Asignatura_Contenido"><path codeLine="21" d="M511.81,217.3369 C481.81,238.1469 437.02,269.2369 401.25,294.0669 " fill="none" id="Asignatura-Contenido" style="stroke:#181818;stroke-width:1;"/><polygon fill="#000000" points="478.1077,253.0125,469.0012,255.7552,472.3525,260.584,478.1077,253.0125" style="stroke:#000000;stroke-width:1;"/><text fill="#000000" font-family="sans-serif" font-size="13" lengthAdjust="spacing" textLength="80.5391" x="483" y="260.3638">pertenece_a</text></g><!--link Asignatura to Titulacion--><g id="link_Asignatura_Titulacion"><path codeLine="22" d="M490.92,213.8569 C487.57,215.0369 484.24,216.1869 481,217.2969 C295.94,280.7269 187.52,239.9269 83,405.2969 C55.28,449.1569 53.68,512.4169 55.18,546.1169 " fill="none" id="Asignatura-Titulacion" style="stroke:#181818;stroke-width:1;"/><polygon fill="#000000" points="84.024,416.895,92.9987,413.7476,89.4346,409.0735,84.024,416.895" style="stroke:#000000;stroke-width:1;"/><text fill="#000000" font-family="sans-serif" font-size="13" lengthAdjust="spacing" textLength="102.4131" x="97" y="418.3638">forma_parte_de</text></g><!--link Guia to DirectorDeCalidad--><g id="link_Guia_DirectorDeCalidad"><path codeLine="24" d="M843.13,92.6369 C854.57,116.8769 870,156.2269 870,192.2969 C870,192.2969 870,192.2969 870,571.2969 C870,610.2569 842.95,647.9769 822.25,671.1469 " fill="none" id="Guia-DirectorDeCalidad" style="stroke:#181818;stroke-width:1;"/><polygon fill="#000000" points="874.8197,418.86,878.0829,409.9268,872.2089,409.7148,874.8197,418.86" style="stroke:#000000;stroke-width:1;"/><text fill="#000000" font-family="sans-serif" font-size="13" lengthAdjust="spacing" textLength="106.6724" x="884" y="418.3638">es_auditada_por</text></g><!--link Guia to Version--><g id="link_Guia_Version"><path codeLine="25" d="M860.65,92.4269 C871.93,101.4969 884.76,112.1469 896,122.2969 C912.58,137.2769 930.37,155.0969 943.87,169.0069 " fill="none" id="Guia-Version" style="stroke:#181818;stroke-width:1;"/><text fill="#000000" font-family="sans-serif" font-size="13" lengthAdjust="spacing" textLength="32.9443" x="914" y="135.3638">tiene</text></g><!--link Contenido to Titulacion--><g id="link_Contenido_Titulacion"><path codeLine="27" d="M275.82,375.4469 C241.79,396.5069 200.79,423.8869 167,452.2969 C132,481.7269 96.7,521.4669 75.85,546.2269 " fill="none" id="Contenido-Titulacion" style="stroke:#181818;stroke-width:1;"/><polygon fill="#000000" points="168.1979,464.1104,176.9846,460.4711,173.1674,456.0015,168.1979,464.1104" style="stroke:#000000;stroke-width:1;"/><text fill="#000000" font-family="sans-serif" font-size="13" lengthAdjust="spacing" textLength="101.8164" x="181" y="465.3638">es_definido_por</text></g><!--link DirectorDeCalidad to T?cnicoDeCalidad--><g id="link_DirectorDeCalidad_T&#233;cnicoDeCalidad"><path codeLine="29" d="M756.92,719.5569 C743.44,728.0069 728.93,738.2269 717,749.2969 C702.03,763.1969 688.21,781.7169 678.44,796.2269 " fill="none" id="DirectorDeCalidad-T&#233;cnicoDeCalidad" style="stroke:#181818;stroke-width:1;"/><polygon fill="#000000" points="718.4235,761.3573,726.9472,757.1388,722.8397,752.9343,718.4235,761.3573" style="stroke:#000000;stroke-width:1;"/><text fill="#000000" font-family="sans-serif" font-size="13" lengthAdjust="spacing" textLength="55.5991" x="731" y="762.3638">audita_a</text></g><!--link DirectorDeCalidad to Profesor--><g id="link_DirectorDeCalidad_Profesor"><path codeLine="30" d="M718.78,716.5069 C688.79,725.1569 654.81,736.2769 625,749.2969 C594.94,762.4269 562.95,781.3669 539.57,796.2269 " fill="none" id="DirectorDeCalidad-Profesor" style="stroke:#181818;stroke-width:1;"/><polygon fill="#000000" points="625.4316,759.8955,634.8904,758.9044,632.5014,753.534,625.4316,759.8955" style="stroke:#000000;stroke-width:1;"/><text fill="#000000" font-family="sans-serif" font-size="13" lengthAdjust="spacing" textLength="55.5991" x="639" y="762.3638">audita_a</text></g><!--link DirectorDeGrado to DirectorDeCalidad--><g id="link_DirectorDeGrado_DirectorDeCalidad"><path codeLine="31" d="M270.58,695.2969 C385.01,695.2969 601.28,695.2969 718.53,695.2969 " fill="none" id="DirectorDeGrado-DirectorDeCalidad" style="stroke:#181818;stroke-width:1;"/><polygon fill="#000000" points="459.75,683.8633,468.7951,686.8022,468.7951,680.9244,459.75,683.8633" style="stroke:#000000;stroke-width:1;"/><text fill="#000000" font-family="sans-serif" font-size="13" lengthAdjust="spacing" textLength="55.5991" x="473.75" y="688.3638">audita_a</text></g><!--link Asignatura to Profesor--><g id="link_Asignatura_Profesor"><path codeLine="33" d="M559.53,217.5269 C604.85,291.2569 738.96,519.5169 710,594.2969 C691.3,642.5869 581.07,748.8269 530.42,795.9669 " fill="none" id="Asignatura-Profesor" style="stroke:#181818;stroke-width:1;"/><polygon fill="#000000" points="711.2513,502.8696,707.8615,511.7555,713.7319,512.051,711.2513,502.8696" style="stroke:#000000;stroke-width:1;"/><text fill="#000000" font-family="sans-serif" font-size="13" lengthAdjust="spacing" textLength="121.7988" x="720" y="512.3638">est&#225;_asociado_con</text></g><!--link Contenido to Profesor--><g id="link_Contenido_Profesor"><path codeLine="35" d="M351.42,375.3169 C357.26,411.9369 363.57,467.8969 358,516.2969 C356.43,529.8969 352.57,532.6969 351,546.2969 C348.56,567.4869 344.69,573.9169 351,594.2969 C376.89,677.9569 445.78,758.2069 482.01,796.2769 " fill="none" id="Contenido-Profesor" style="stroke:#181818;stroke-width:1;"/><polygon fill="#000000" points="357.4815,575.1388,357.6084,565.6291,351.9945,567.3706,357.4815,575.1388" style="stroke:#000000;stroke-width:1;"/><text fill="#000000" font-family="sans-serif" font-size="13" lengthAdjust="spacing" textLength="143.127" x="365" y="574.8638">din&#225;mico_editado_por</text></g><!--link Titulacion to DirectorDeGrado--><g id="link_Titulacion_DirectorDeGrado"><path codeLine="37" d="M49.36,594.3769 C46,609.0669 44.65,627.7969 54,641.2969 C69.11,663.1169 94.4,675.9669 119.43,683.5269 " fill="none" id="Titulacion-DirectorDeGrado" style="stroke:#181818;stroke-width:1;"/><polygon fill="#000000" points="55.9102,628.9322,59.189,637.8597,63.8103,634.2275,55.9102,628.9322" style="stroke:#000000;stroke-width:1;"/><text fill="#000000" font-family="sans-serif" font-size="13" lengthAdjust="spacing" textLength="121.7988" x="68" y="637.3638">est&#225;_asociado_con</text></g><!--link Contenido to DirectorDeGrado--><g id="link_Contenido_DirectorDeGrado"><path codeLine="38" d="M335.69,375.4969 C327.69,404.8069 312.9,443.8769 287,469.2969 C261.68,494.1569 234.16,470.8069 213,499.2969 C202.94,512.8369 197.66,622.6169 195.79,671.2569 " fill="none" id="Contenido-DirectorDeGrado" style="stroke:#181818;stroke-width:1;"/><polygon fill="#000000" points="220.138,503.3434,213.6136,510.2632,218.927,512.7766,220.138,503.3434" style="stroke:#000000;stroke-width:1;"/><text fill="#000000" font-family="sans-serif" font-size="13" lengthAdjust="spacing" textLength="126.458" x="227" y="512.3638">aprueba_o_rechaza</text></g><!--link Contenido to T?cnicoDeCalidad--><g id="link_Contenido_T&#233;cnicoDeCalidad"><path codeLine="39" d="M425.61,350.6469 C483.88,366.4969 552,398.2069 552,459.7969 C552,459.7969 552,459.7969 552,696.2969 C552,730.3269 560.97,740.3669 583,766.2969 C592.9,777.9569 606,788.0169 618.77,796.1569 " fill="none" id="Contenido-T&#233;cnicoDeCalidad" style="stroke:#181818;stroke-width:1;"/><polygon fill="#000000" points="558.989,574.9507,558.0873,565.4829,552.6945,567.8211,558.989,574.9507" style="stroke:#000000;stroke-width:1;"/><text fill="#000000" font-family="sans-serif" font-size="13" lengthAdjust="spacing" textLength="135.3257" x="566" y="574.8638">est&#225;tico_editado_por</text></g><!--reverse link Profesor to SuperAdmin--><g id="link_Profesor_SuperAdmin"><path codeLine="41" d="M520.2256,849.6753 C528.0556,863.6953 535.86,876.4469 547,891.2969 C554.74,901.6269 564.19,912.2169 572.71,921.1969 " fill="none" id="Profesor-backto-SuperAdmin" style="stroke:#181818;stroke-width:1;stroke-dasharray:7.0,7.0;"/><polygon fill="#181818" points="517.3,844.4369,518.1961,854.2449,519.738,848.8022,525.1807,850.3441,517.3,844.4369" style="stroke:#181818;stroke-width:1;"/><polygon fill="#000000" points="549.0419,878.8322,552.0238,887.8632,556.7626,884.3858,549.0419,878.8322" style="stroke:#000000;stroke-width:1;"/><text fill="#000000" font-family="sans-serif" font-size="13" lengthAdjust="spacing" textLength="56.2021" x="561" y="887.3638">inicializa</text></g><!--reverse link T?cnicoDeCalidad to SuperAdmin--><g id="link_T&#233;cnicoDeCalidad_SuperAdmin"><path codeLine="42" d="M648.3065,849.6876 C636.1465,871.6776 620.87,899.3069 608.73,921.2669 " fill="none" id="T&#233;cnicoDeCalidad-backto-SuperAdmin" style="stroke:#181818;stroke-width:1;stroke-dasharray:7.0,7.0;"/><polygon fill="#181818" points="651.21,844.4369,643.3543,850.3772,648.7904,848.8124,650.3552,854.2486,651.21,844.4369" style="stroke:#181818;stroke-width:1;"/><polygon fill="#000000" points="642.4193,878.4876,635.4707,884.9812,640.6147,887.8254,642.4193,878.4876" style="stroke:#000000;stroke-width:1;"/><text fill="#000000" font-family="sans-serif" font-size="13" lengthAdjust="spacing" textLength="56.2021" x="649" y="887.3638">inicializa</text></g><!--reverse link DirectorDeGrado to SuperAdmin--><g id="link_DirectorDeGrado_SuperAdmin"><path codeLine="43" d="M222.3884,723.633 C254.5284,754.933 311.25,806.9469 371,844.2969 C424.1,877.4969 490.11,905.4469 536.87,923.2769 " fill="none" id="DirectorDeGrado-backto-SuperAdmin" style="stroke:#181818;stroke-width:1;stroke-dasharray:7.0,7.0;"/><polygon fill="#181818" points="218.09,719.4469,221.7469,728.5916,221.672,722.9353,227.3284,722.8604,218.09,719.4469" style="stroke:#181818;stroke-width:1;"/><polygon fill="#000000" points="371.7788,817.6835,377.8399,825.0124,380.9902,820.0501,371.7788,817.6835" style="stroke:#000000;stroke-width:1;"/><text fill="#000000" font-family="sans-serif" font-size="13" lengthAdjust="spacing" textLength="56.2021" x="385" y="824.8638">inicializa</text></g><!--reverse link DirectorDeCalidad to SuperAdmin--><g id="link_DirectorDeCalidad_SuperAdmin"><path codeLine="44" d="M797.4275,725.5698 C796.3875,739.3198 794.84,750.9969 791,766.2969 C781.91,802.4769 780.33,813.0169 760,844.2969 C744.07,868.8069 737.97,874.5769 714,891.2969 C696.04,903.8269 674.65,914.4969 655.04,922.9169 " fill="none" id="DirectorDeCalidad-backto-SuperAdmin" style="stroke:#181818;stroke-width:1;stroke-dasharray:7.0,7.0;"/><polygon fill="#181818" points="797.88,719.5869,793.2126,728.2596,797.5029,724.5726,801.1898,728.8629,797.88,719.5869" style="stroke:#181818;stroke-width:1;"/><polygon fill="#000000" points="791.9255,816.3085,784.2498,821.9241,789.0165,825.3633,791.9255,816.3085" style="stroke:#000000;stroke-width:1;"/><text fill="#000000" font-family="sans-serif" font-size="13" lengthAdjust="spacing" textLength="56.2021" x="798" y="824.8638">inicializa</text></g><!--SRC=[ZLFBRjmm3BphAtWld0ymYWKMSR7NeYbw5HX9snBmYeOUA92Y7vDZ3pdb4_nZeRnsRA-DjZURdk7Ca7IYr3euviGNJFI4XlfN3zR1AVSl6A5Xutno4IhuuixaqR9IfiKOuI5tBXpjXVnO-1pux2A7yRMXu4pYqBXJABHhzMl_ntWotBXxRCcYtQ3NzLCc71_lMPnuiWo_5C27-VrJJ6BUyBhQaE-VBwNyUzAcb5k9o9FZOwJl7bCEayGt5sBvh8eiLDK2KOF4bSxEE8rmU4UywzNWOkgVjM5_vd2HoBhZ84YbvYvGMVxfLwnbsuyxqDbr3KDZtQ4mj2pfC1cz8ZSpB9OqPai9BOvkbeGnRWs9n85IyuIhQYqiVMpPFysfDcfb6flrrd3L7sQsIvdEvb_8jhezgHL3JNsWojtDvgwBmSY6obfaGuMmJBjmOQUxqMuOt4xWGNtGkHdIZinAPHkW2zazecOj7txWKpc11MEyWErG1wcqOtB-A-4kTtU7HJ3PdXXhvIyNu0Qt8_9tmYRB_y9t-xy1]--></g></svg>