<svg xmlns="http://www.w3.org/2000/svg" xmlns:xlink="http://www.w3.org/1999/xlink" contentStyleType="text/css" height="894px" preserveAspectRatio="none" style="width:4765px;height:894px;background:#FFFFFF;" version="1.1" viewBox="0 0 4765 894" width="4765px" zoomAndPan="magnify"><defs/><g><g id="MenuPrincipal"><rect fill="#F1F1F1" height="50" rx="12.5" ry="12.5" style="stroke:#181818;stroke-width:0.5;" width="141.1396" x="2141" y="245"/><line style="stroke:#181818;stroke-width:0.5;" x1="2141" x2="2282.1396" y1="271.2969" y2="271.2969"/><text fill="#000000" font-family="sans-serif" font-size="14" lengthAdjust="spacing" textLength="121.1396" x="2151" y="262.9951">MENU_PRINCIPAL</text></g><g id="EditarContenido"><rect fill="#F1F1F1" height="50" rx="12.5" ry="12.5" style="stroke:#181818;stroke-width:0.5;" width="163.6777" x="360.5" y="569"/><line style="stroke:#181818;stroke-width:0.5;" x1="360.5" x2="524.1777" y1="595.2969" y2="595.2969"/><text fill="#000000" font-family="sans-serif" font-size="14" lengthAdjust="spacing" textLength="143.6777" x="370.5" y="586.9951">EDITAR_CONTENIDO</text></g><g id="RevisarContenido"><rect fill="#F1F1F1" height="50" rx="12.5" ry="12.5" style="stroke:#181818;stroke-width:0.5;" width="172.5371" x="7" y="569"/><line style="stroke:#181818;stroke-width:0.5;" x1="7" x2="179.5371" y1="595.2969" y2="595.2969"/><text fill="#000000" font-family="sans-serif" font-size="14" lengthAdjust="spacing" textLength="152.5371" x="17" y="586.9951">REVISAR_CONTENIDO</text></g><g id="AprobarContenido"><rect fill="#F1F1F1" height="50" rx="12.5" ry="12.5" style="stroke:#181818;stroke-width:0.5;" width="179.7422" x="1556.5" y="838"/><line style="stroke:#181818;stroke-width:0.5;" x1="1556.5" x2="1736.2422" y1="864.2969" y2="864.2969"/><text fill="#000000" font-family="sans-serif" font-size="14" lengthAdjust="spacing" textLength="159.7422" x="1566.5" y="855.9951">APROBAR_CONTENIDO</text></g><g id="PublicarGuia"><rect fill="#F1F1F1" height="50" rx="12.5" ry="12.5" style="stroke:#181818;stroke-width:0.5;" width="131.1045" x="866" y="569"/><line style="stroke:#181818;stroke-width:0.5;" x1="866" x2="997.1045" y1="595.2969" y2="595.2969"/><text fill="#000000" font-family="sans-serif" font-size="14" lengthAdjust="spacing" textLength="111.1045" x="876" y="586.9951">PUBLICAR_GUIA</text></g><g id="AuditarGuia"><rect fill="#F1F1F1" height="50" rx="12.5" ry="12.5" style="stroke:#181818;stroke-width:0.5;" width="124.3916" x="1462.5" y="569"/><line style="stroke:#181818;stroke-width:0.5;" x1="1462.5" x2="1586.8916" y1="595.2969" y2="595.2969"/><text fill="#000000" font-family="sans-serif" font-size="14" lengthAdjust="spacing" textLength="104.3916" x="1472.5" y="586.9951">AUDITAR_GUIA</text></g><g id="GenerarVersion"><rect fill="#F1F1F1" height="50" rx="12.5" ry="12.5" style="stroke:#181818;stroke-width:0.5;" width="157.7031" x="1888.5" y="569"/><line style="stroke:#181818;stroke-width:0.5;" x1="1888.5" x2="2046.2031" y1="595.2969" y2="595.2969"/><text fill="#000000" font-family="sans-serif" font-size="14" lengthAdjust="spacing" textLength="137.7031" x="1898.5" y="586.9951">GENERAR_VERSION</text></g><g id="AsignarGuiaTitulacion"><rect fill="#F1F1F1" height="50" rx="12.5" ry="12.5" style="stroke:#181818;stroke-width:0.5;" width="216.2734" x="2496.5" y="569"/><line style="stroke:#181818;stroke-width:0.5;" x1="2496.5" x2="2712.7734" y1="595.2969" y2="595.2969"/><text fill="#000000" font-family="sans-serif" font-size="14" lengthAdjust="spacing" textLength="196.2734" x="2506.5" y="586.9951">ASIGNAR_GUIA_TITULACION</text></g><g id="AsignarAsignaturaTitulacion"><rect fill="#F1F1F1" height="50" rx="12.5" ry="12.5" style="stroke:#181818;stroke-width:0.5;" width="273.0664" x="3257" y="569"/><line style="stroke:#181818;stroke-width:0.5;" x1="3257" x2="3530.0664" y1="595.2969" y2="595.2969"/><text fill="#000000" font-family="sans-serif" font-size="14" lengthAdjust="spacing" textLength="253.0664" x="3267" y="586.9951">ASIGNAR_ASIGNATURA_TITULACION</text></g><g id="SupervisarGuias"><rect fill="#F1F1F1" height="50" rx="12.5" ry="12.5" style="stroke:#181818;stroke-width:0.5;" width="158.7354" x="3674" y="569"/><line style="stroke:#181818;stroke-width:0.5;" x1="3674" x2="3832.7354" y1="595.2969" y2="595.2969"/><text fill="#000000" font-family="sans-serif" font-size="14" lengthAdjust="spacing" textLength="138.7354" x="3684" y="586.9951">SUPERVISAR_GUIAS</text></g><g id="VerificarMemoria"><rect fill="#F1F1F1" height="50" rx="12.5" ry="12.5" style="stroke:#181818;stroke-width:0.5;" width="167.998" x="4308.5" y="569"/><line style="stroke:#181818;stroke-width:0.5;" x1="4308.5" x2="4476.498" y1="595.2969" y2="595.2969"/><text fill="#000000" font-family="sans-serif" font-size="14" lengthAdjust="spacing" textLength="147.998" x="4318.5" y="586.9951">VERIFICAR_MEMORIA</text></g><ellipse cx="2211.5" cy="16" fill="#222222" rx="10" ry="10" style="stroke:#222222;stroke-width:1;"/><ellipse cx="2211.5" cy="401" fill="none" rx="11" ry="11" style="stroke:#222222;stroke-width:1;"/><ellipse cx="2211.5" cy="401" fill="#222222" rx="6" ry="6" style="stroke:#222222;stroke-width:1;"/><!--link *start* to MenuPrincipal--><g id="link_*start*_MenuPrincipal"><path d="M2211.5,26.27 C2211.5,61.88 2211.5,184.6 2211.5,238.74 " fill="none" id="*start*-to-MenuPrincipal" style="stroke:#181818;stroke-width:1;"/><polygon fill="#181818" points="2211.5,244.74,2215.5,235.74,2211.5,239.74,2207.5,235.74,2211.5,244.74" style="stroke:#181818;stroke-width:1;"/><path d="M2216.5,123 L2216.5,148 L2392.5,148 L2392.5,133 L2382.5,123 L2216.5,123 " fill="#FEFFDD" style="stroke:#181818;stroke-width:0.5;"/><path d="M2382.5,123 L2382.5,133 L2392.5,133 L2382.5,123 " fill="#FEFFDD" style="stroke:#181818;stroke-width:0.5;"/><text fill="#000000" font-family="sans-serif" font-size="13" lengthAdjust="spacing" textLength="155.8032" x="2222.5" y="140.0669">Actor accede al sistema</text></g><!--link MenuPrincipal to *end*--><g id="link_MenuPrincipal_*end*"><path d="M2211.5,295.26 C2211.5,323.73 2211.5,363.6 2211.5,383.84 " fill="none" id="MenuPrincipal-to-*end*" style="stroke:#181818;stroke-width:1;"/><polygon fill="#181818" points="2211.5,389.84,2215.5,380.84,2211.5,384.84,2207.5,380.84,2211.5,389.84" style="stroke:#181818;stroke-width:1;"/><path d="M2216.5,330 L2216.5,355 L2321.5,355 L2321.5,340 L2311.5,330 L2216.5,330 " fill="#FEFFDD" style="stroke:#181818;stroke-width:0.5;"/><path d="M2311.5,330 L2311.5,340 L2321.5,340 L2311.5,330 " fill="#FEFFDD" style="stroke:#181818;stroke-width:0.5;"/><text fill="#000000" font-family="sans-serif" font-size="13" lengthAdjust="spacing" textLength="84.8237" x="2222.5" y="347.0669">Cierra sesi&#243;n</text></g><!--link MenuPrincipal to EditarContenido--><g id="link_MenuPrincipal_EditarContenido"><path d="M2140.91,271.55 C1907.5,273.74 1162.03,283.86 925.5,325 C753.49,354.92 691.97,339.68 550.5,442 C504.01,475.62 472.6123,530.108 456.1723,563.468 " fill="none" id="MenuPrincipal-to-EditarContenido" style="stroke:#181818;stroke-width:1;"/><polygon fill="#181818" points="453.52,568.85,461.0864,562.5452,455.7302,564.365,453.9104,559.0089,453.52,568.85" style="stroke:#181818;stroke-width:1;"/><path d="M555.5,447 L555.5,472 L814.5,472 L814.5,457 L804.5,447 L555.5,447 " fill="#FEFFDD" style="stroke:#181818;stroke-width:0.5;"/><path d="M804.5,447 L804.5,457 L814.5,457 L804.5,447 " fill="#FEFFDD" style="stroke:#181818;stroke-width:0.5;"/><text fill="#000000" font-family="sans-serif" font-size="13" lengthAdjust="spacing" textLength="238.9131" x="561.5" y="464.0669">T&#233;cnico de Calidad: Editar contenido</text></g><!--link EditarContenido to MenuPrincipal--><g id="link_EditarContenido_MenuPrincipal"><path d="M413.86,568.77 C380.89,537.9 334.83,483.54 364.5,442 C457.62,311.61 547.95,354.19 705.5,325 C986.06,273.02 1875.86,270.4117 2134.78,270.7717 " fill="none" id="EditarContenido-to-MenuPrincipal" style="stroke:#181818;stroke-width:1;"/><polygon fill="#181818" points="2140.78,270.78,2131.7856,266.7675,2135.78,270.773,2131.7744,274.7675,2140.78,270.78" style="stroke:#181818;stroke-width:1;"/><path d="M369.5,447 L369.5,472 L501.5,472 L501.5,457 L491.5,447 L369.5,447 " fill="#FEFFDD" style="stroke:#181818;stroke-width:0.5;"/><path d="M491.5,447 L491.5,457 L501.5,457 L491.5,447 " fill="#FEFFDD" style="stroke:#181818;stroke-width:0.5;"/><text fill="#000000" font-family="sans-serif" font-size="13" lengthAdjust="spacing" textLength="111.687" x="375.5" y="464.0669">Guardar cambios</text></g><!--link MenuPrincipal to RevisarContenido--><g id="link_MenuPrincipal_RevisarContenido"><path d="M2140.57,270.64 C1854.67,269.6 786.33,269.56 453.5,325 C279.61,353.97 179.17,300.15 74.5,442 C46.89,479.42 63.7158,531.3076 78.4958,563.4876 " fill="none" id="MenuPrincipal-to-RevisarContenido" style="stroke:#181818;stroke-width:1;"/><polygon fill="#181818" points="81,568.94,80.8786,559.0919,78.9131,564.3963,73.6087,562.4309,81,568.94" style="stroke:#181818;stroke-width:1;"/><path d="M79.5,447 L79.5,472 L342.5,472 L342.5,457 L332.5,447 L79.5,447 " fill="#FEFFDD" style="stroke:#181818;stroke-width:0.5;"/><path d="M332.5,447 L332.5,457 L342.5,457 L332.5,447 " fill="#FEFFDD" style="stroke:#181818;stroke-width:0.5;"/><text fill="#000000" font-family="sans-serif" font-size="13" lengthAdjust="spacing" textLength="242.1694" x="85.5" y="464.0669">Director de Grado: Revisar contenido</text></g><!--link RevisarContenido to AprobarContenido--><g id="link_RevisarContenido_AprobarContenido"><path d="M180.04,609.88 C450.9,656.45 1274.7668,798.0934 1550.4668,845.4934 " fill="none" id="RevisarContenido-to-AprobarContenido" style="stroke:#181818;stroke-width:1;"/><polygon fill="#181818" points="1556.38,846.51,1548.1879,841.0429,1551.4523,845.6628,1546.8324,848.9272,1556.38,846.51" style="stroke:#181818;stroke-width:1;"/><path d="M973.5,716 L973.5,741 L1187.5,741 L1187.5,726 L1177.5,716 L973.5,716 " fill="#FEFFDD" style="stroke:#181818;stroke-width:0.5;"/><path d="M1177.5,716 L1177.5,726 L1187.5,726 L1177.5,716 " fill="#FEFFDD" style="stroke:#181818;stroke-width:0.5;"/><text fill="#000000" font-family="sans-serif" font-size="13" lengthAdjust="spacing" textLength="193.6797" x="979.5" y="733.0669">Aprobar o rechazar contenido</text></g><!--link AprobarContenido to MenuPrincipal--><g id="link_AprobarContenido_MenuPrincipal"><path d="M1736.6,860.94 C2035.05,856.85 2972.5,839.07 2972.5,777 C2972.5,538 2972.5,538 2972.5,538 C2972.5,332.65 2762.45,371.78 2562.5,325 C2466.45,302.53 2359.3083,287.756 2287.9983,279.306 " fill="none" id="AprobarContenido-to-MenuPrincipal" style="stroke:#181818;stroke-width:1;"/><polygon fill="#181818" points="2282.04,278.6,2290.5068,283.6313,2287.0053,279.1884,2291.4482,275.6869,2282.04,278.6" style="stroke:#181818;stroke-width:1;"/><path d="M2977.5,581.5 L2977.5,606.5 L3207.5,606.5 L3207.5,591.5 L3197.5,581.5 L2977.5,581.5 " fill="#FEFFDD" style="stroke:#181818;stroke-width:0.5;"/><path d="M3197.5,581.5 L3197.5,591.5 L3207.5,591.5 L3197.5,581.5 " fill="#FEFFDD" style="stroke:#181818;stroke-width:0.5;"/><text fill="#000000" font-family="sans-serif" font-size="13" lengthAdjust="spacing" textLength="209.2886" x="2983.5" y="598.5669">Confirmar aprobaci&#243;n o rechazo</text></g><!--link MenuPrincipal to PublicarGuia--><g id="link_MenuPrincipal_PublicarGuia"><path d="M2140.8,272.14 C2012.67,275.16 1733.94,286.02 1502.5,325 C1301.26,358.89 1230.9,332.81 1058.5,442 C1006.84,474.72 968.5811,530.0835 948.2711,563.7235 " fill="none" id="MenuPrincipal-to-PublicarGuia" style="stroke:#181818;stroke-width:1;"/><polygon fill="#181818" points="945.17,568.86,953.246,563.2227,947.7543,564.5796,946.3974,559.0879,945.17,568.86" style="stroke:#181818;stroke-width:1;"/><path d="M1063.5,447 L1063.5,472 L1350.5,472 L1350.5,457 L1340.5,447 L1063.5,447 " fill="#FEFFDD" style="stroke:#181818;stroke-width:0.5;"/><path d="M1340.5,447 L1340.5,457 L1350.5,457 L1340.5,447 " fill="#FEFFDD" style="stroke:#181818;stroke-width:0.5;"/><text fill="#000000" font-family="sans-serif" font-size="13" lengthAdjust="spacing" textLength="266.1572" x="1069.5" y="464.0669">Director de Grado: Publicar gu&#237;a docente</text></g><!--link PublicarGuia to MenuPrincipal--><g id="link_PublicarGuia_MenuPrincipal"><path d="M897.54,568.92 C858.71,538.44 804.43,484.73 836.5,442 C948.19,293.17 1055.08,356.36 1238.5,325 C1412.14,295.31 1941.1523,278.3558 2134.7023,273.0058 " fill="none" id="PublicarGuia-to-MenuPrincipal" style="stroke:#181818;stroke-width:1;"/><polygon fill="#181818" points="2140.7,272.84,2131.5929,269.0902,2135.7019,272.9782,2131.814,277.0872,2140.7,272.84" style="stroke:#181818;stroke-width:1;"/><path d="M841.5,447 L841.5,472 L1004.5,472 L1004.5,457 L994.5,447 L841.5,447 " fill="#FEFFDD" style="stroke:#181818;stroke-width:0.5;"/><path d="M994.5,447 L994.5,457 L1004.5,457 L994.5,447 " fill="#FEFFDD" style="stroke:#181818;stroke-width:0.5;"/><text fill="#000000" font-family="sans-serif" font-size="13" lengthAdjust="spacing" textLength="142.9429" x="847.5" y="464.0669">Confirmar publicaci&#243;n</text></g><!--link MenuPrincipal to AuditarGuia--><g id="link_MenuPrincipal_AuditarGuia"><path d="M2140.99,273.26 C1954.5,280.98 1456.73,313.47 1371.5,442 C1337.42,493.4 1405.6964,538.7315 1462.2064,566.2715 " fill="none" id="MenuPrincipal-to-AuditarGuia" style="stroke:#181818;stroke-width:1;"/><polygon fill="#181818" points="1467.6,568.9,1461.262,561.3615,1463.1053,566.7095,1457.7573,568.5529,1467.6,568.9" style="stroke:#181818;stroke-width:1;"/><path d="M1376.5,447 L1376.5,472 L1626.5,472 L1626.5,457 L1616.5,447 L1376.5,447 " fill="#FEFFDD" style="stroke:#181818;stroke-width:0.5;"/><path d="M1616.5,447 L1616.5,457 L1626.5,457 L1616.5,447 " fill="#FEFFDD" style="stroke:#181818;stroke-width:0.5;"/><text fill="#000000" font-family="sans-serif" font-size="13" lengthAdjust="spacing" textLength="229.2075" x="1382.5" y="464.0669">Direcci&#243;n de Calidad: Auditar gu&#237;as</text></g><!--link AuditarGuia to MenuPrincipal--><g id="link_AuditarGuia_MenuPrincipal"><path d="M1549.19,568.92 C1582.54,537.22 1644.69,480.97 1704.5,442 C1803.26,377.66 1830.9,362.92 1942.5,325 C2008.01,302.74 2079.8468,289.2527 2134.8768,280.9727 " fill="none" id="AuditarGuia-to-MenuPrincipal" style="stroke:#181818;stroke-width:1;"/><polygon fill="#181818" points="2140.81,280.08,2131.315,277.4636,2135.8657,280.8239,2132.5053,285.3746,2140.81,280.08" style="stroke:#181818;stroke-width:1;"/><path d="M1709.5,447 L1709.5,472 L1846.5,472 L1846.5,457 L1836.5,447 L1709.5,447 " fill="#FEFFDD" style="stroke:#181818;stroke-width:0.5;"/><path d="M1836.5,447 L1836.5,457 L1846.5,457 L1836.5,447 " fill="#FEFFDD" style="stroke:#181818;stroke-width:0.5;"/><text fill="#000000" font-family="sans-serif" font-size="13" lengthAdjust="spacing" textLength="116.8286" x="1715.5" y="464.0669">Finalizar auditor&#237;a</text></g><!--link MenuPrincipal to GenerarVersion--><g id="link_MenuPrincipal_GenerarVersion"><path d="M2190.47,295.07 C2162.27,327.67 2111.05,388 2070.5,442 C2037.73,485.65 2005.7668,533.7773 1986.1768,563.9573 " fill="none" id="MenuPrincipal-to-GenerarVersion" style="stroke:#181818;stroke-width:1;"/><polygon fill="#181818" points="1982.91,568.99,1991.1653,563.6188,1985.6323,564.7961,1984.455,559.2631,1982.91,568.99" style="stroke:#181818;stroke-width:1;"/><path d="M2075.5,447 L2075.5,472 L2376.5,472 L2376.5,457 L2366.5,447 L2075.5,447 " fill="#FEFFDD" style="stroke:#181818;stroke-width:0.5;"/><path d="M2366.5,447 L2366.5,457 L2376.5,457 L2366.5,447 " fill="#FEFFDD" style="stroke:#181818;stroke-width:0.5;"/><text fill="#000000" font-family="sans-serif" font-size="13" lengthAdjust="spacing" textLength="280.7822" x="2081.5" y="464.0669">T&#233;cnico de Calidad: Generar nueva versi&#243;n</text></g><!--link GenerarVersion to MenuPrincipal--><g id="link_GenerarVersion_MenuPrincipal"><path d="M1931.39,568.75 C1892.05,539.2 1838.23,487.56 1866.5,442 C1926.33,345.57 2052.6464,303.1575 2134.9264,284.6375 " fill="none" id="GenerarVersion-to-MenuPrincipal" style="stroke:#181818;stroke-width:1;"/><polygon fill="#181818" points="2140.78,283.32,2131.1213,281.394,2135.902,284.418,2132.878,289.1987,2140.78,283.32" style="stroke:#181818;stroke-width:1;"/><path d="M1871.5,447 L1871.5,472 L2033.5,472 L2033.5,457 L2023.5,447 L1871.5,447 " fill="#FEFFDD" style="stroke:#181818;stroke-width:0.5;"/><path d="M2023.5,447 L2023.5,457 L2033.5,457 L2023.5,447 " fill="#FEFFDD" style="stroke:#181818;stroke-width:0.5;"/><text fill="#000000" font-family="sans-serif" font-size="13" lengthAdjust="spacing" textLength="141.6606" x="1877.5" y="464.0669">Confirmar generaci&#243;n</text></g><!--link MenuPrincipal to AsignarGuiaTitulacion--><g id="link_MenuPrincipal_AsignarGuiaTitulacion"><path d="M2282.13,292.93 C2300.59,300.97 2319.5,311.51 2334.5,325 C2392.38,377.04 2367.71,420.73 2421.5,477 C2459.32,516.56 2507.9226,545.8891 2547.4526,566.1891 " fill="none" id="MenuPrincipal-to-AsignarGuiaTitulacion" style="stroke:#181818;stroke-width:1;"/><polygon fill="#181818" points="2552.79,568.93,2546.6112,561.2604,2548.3422,566.6459,2542.9567,568.3769,2552.79,568.93" style="stroke:#181818;stroke-width:1;"/><path d="M2426.5,447 L2426.5,472 L2736.5,472 L2736.5,457 L2726.5,447 L2426.5,447 " fill="#FEFFDD" style="stroke:#181818;stroke-width:0.5;"/><path d="M2726.5,447 L2726.5,457 L2736.5,457 L2726.5,447 " fill="#FEFFDD" style="stroke:#181818;stroke-width:0.5;"/><text fill="#000000" font-family="sans-serif" font-size="13" lengthAdjust="spacing" textLength="289.8911" x="2432.5" y="464.0669">T&#233;cnico de Calidad: Asignar gu&#237;a a titulaci&#243;n</text></g><!--link AsignarGuiaTitulacion to MenuPrincipal--><g id="link_AsignarGuiaTitulacion_MenuPrincipal"><path d="M2655.62,568.99 C2709.2,540.49 2781.02,490.67 2745.5,442 C2690.05,366.02 2419.9215,308.3929 2287.9315,284.1729 " fill="none" id="AsignarGuiaTitulacion-to-MenuPrincipal" style="stroke:#181818;stroke-width:1;"/><polygon fill="#181818" points="2282.03,283.09,2290.1603,288.6487,2286.9479,283.9924,2291.6041,280.7801,2282.03,283.09" style="stroke:#181818;stroke-width:1;"/><path d="M2759.5,447 L2759.5,472 L2918.5,472 L2918.5,457 L2908.5,447 L2759.5,447 " fill="#FEFFDD" style="stroke:#181818;stroke-width:0.5;"/><path d="M2908.5,447 L2908.5,457 L2918.5,457 L2908.5,447 " fill="#FEFFDD" style="stroke:#181818;stroke-width:0.5;"/><text fill="#000000" font-family="sans-serif" font-size="13" lengthAdjust="spacing" textLength="138.6709" x="2765.5" y="464.0669">Confirmar asignaci&#243;n</text></g><!--link MenuPrincipal to AsignarAsignaturaTitulacion--><g id="link_MenuPrincipal_AsignarAsignaturaTitulacion"><path d="M2282.31,271.28 C2464.86,272.64 2940.99,280.47 2995.5,325 C3049.78,369.34 2989.08,426.33 3037.5,477 C3071.69,512.78 3185.2956,545.6301 3276.4856,567.5101 " fill="none" id="MenuPrincipal-to-AsignarAsignaturaTitulacion" style="stroke:#181818;stroke-width:1;"/><polygon fill="#181818" points="3282.32,568.91,3274.5017,562.9205,3277.458,567.7434,3272.6351,570.6998,3282.32,568.91" style="stroke:#181818;stroke-width:1;"/><path d="M3042.5,447 L3042.5,472 L3394.5,472 L3394.5,457 L3384.5,447 L3042.5,447 " fill="#FEFFDD" style="stroke:#181818;stroke-width:0.5;"/><path d="M3384.5,447 L3384.5,457 L3394.5,457 L3384.5,447 " fill="#FEFFDD" style="stroke:#181818;stroke-width:0.5;"/><text fill="#000000" font-family="sans-serif" font-size="13" lengthAdjust="spacing" textLength="331.2778" x="3048.5" y="464.0669">T&#233;cnico de Calidad: Asignar asignatura a titulaci&#243;n</text></g><!--link AsignarAsignaturaTitulacion to MenuPrincipal--><g id="link_AsignarAsignaturaTitulacion_MenuPrincipal"><path d="M3403.83,568.9 C3415.86,536.68 3430.84,479.29 3403.5,442 C3301.27,302.57 3202.43,356.9 3032.5,325 C2889.48,298.15 2460.0459,280.052 2288.2659,273.692 " fill="none" id="AsignarAsignaturaTitulacion-to-MenuPrincipal" style="stroke:#181818;stroke-width:1;"/><polygon fill="#181818" points="2282.27,273.47,2291.1158,277.8003,2287.2666,273.655,2291.4118,269.8057,2282.27,273.47" style="stroke:#181818;stroke-width:1;"/><path d="M3421.5,447 L3421.5,472 L3580.5,472 L3580.5,457 L3570.5,447 L3421.5,447 " fill="#FEFFDD" style="stroke:#181818;stroke-width:0.5;"/><path d="M3570.5,447 L3570.5,457 L3580.5,457 L3570.5,447 " fill="#FEFFDD" style="stroke:#181818;stroke-width:0.5;"/><text fill="#000000" font-family="sans-serif" font-size="13" lengthAdjust="spacing" textLength="138.6709" x="3427.5" y="464.0669">Confirmar asignaci&#243;n</text></g><!--link MenuPrincipal to SupervisarGuias--><g id="link_MenuPrincipal_SupervisarGuias"><path d="M2282.1,270.91 C2556.94,270.93 3546.74,274.55 3677.5,325 C3752.84,354.07 3782.43,368.79 3816.5,442 C3837.05,486.17 3805.676,534.3585 3780.166,564.3685 " fill="none" id="MenuPrincipal-to-SupervisarGuias" style="stroke:#181818;stroke-width:1;"/><polygon fill="#181818" points="3776.28,568.94,3785.1567,564.6734,3779.5184,565.1304,3779.0614,559.492,3776.28,568.94" style="stroke:#181818;stroke-width:1;"/><path d="M3827.5,447 L3827.5,472 L4088.5,472 L4088.5,457 L4078.5,447 L3827.5,447 " fill="#FEFFDD" style="stroke:#181818;stroke-width:0.5;"/><path d="M4078.5,447 L4078.5,457 L4088.5,457 L4078.5,447 " fill="#FEFFDD" style="stroke:#181818;stroke-width:0.5;"/><text fill="#000000" font-family="sans-serif" font-size="13" lengthAdjust="spacing" textLength="240.2524" x="3833.5" y="464.0669">T&#233;cnico de Calidad: Supervisar gu&#237;as</text></g><!--link SupervisarGuias to MenuPrincipal--><g id="link_SupervisarGuias_MenuPrincipal"><path d="M3734.41,568.92 C3706.78,535.63 3652.46,475.85 3593.5,442 C3433.61,350.2 3377.2,356.26 3195.5,325 C3019.62,294.74 2482.8979,278.0998 2288.0479,272.9098 " fill="none" id="SupervisarGuias-to-MenuPrincipal" style="stroke:#181818;stroke-width:1;"/><polygon fill="#181818" points="2282.05,272.75,2290.9403,276.9882,2287.0482,272.8831,2291.1533,268.9911,2282.05,272.75" style="stroke:#181818;stroke-width:1;"/><path d="M3647.5,447 L3647.5,472 L3801.5,472 L3801.5,457 L3791.5,447 L3647.5,447 " fill="#FEFFDD" style="stroke:#181818;stroke-width:0.5;"/><path d="M3791.5,447 L3791.5,457 L3801.5,457 L3791.5,447 " fill="#FEFFDD" style="stroke:#181818;stroke-width:0.5;"/><text fill="#000000" font-family="sans-serif" font-size="13" lengthAdjust="spacing" textLength="133.2754" x="3653.5" y="464.0669">Finalizar supervisi&#243;n</text></g><!--link MenuPrincipal to VerificarMemoria--><g id="link_MenuPrincipal_VerificarMemoria"><path d="M2282.37,270.9 C2543.96,270.92 3454.88,274.69 3740.5,325 C3906.6,354.26 3947.07,374.2 4101.5,442 C4130.47,454.72 4135.6,462.07 4163.5,477 C4224.99,509.91 4291.5015,543.2708 4338.1015,566.3108 " fill="none" id="MenuPrincipal-to-VerificarMemoria" style="stroke:#181818;stroke-width:1;"/><polygon fill="#181818" points="4343.48,568.97,4337.1851,561.3955,4338.9979,566.754,4333.6394,568.5668,4343.48,568.97" style="stroke:#181818;stroke-width:1;"/><path d="M4168.5,447 L4168.5,472 L4569.5,472 L4569.5,457 L4559.5,447 L4168.5,447 " fill="#FEFFDD" style="stroke:#181818;stroke-width:0.5;"/><path d="M4559.5,447 L4559.5,457 L4569.5,457 L4559.5,447 " fill="#FEFFDD" style="stroke:#181818;stroke-width:0.5;"/><text fill="#000000" font-family="sans-serif" font-size="13" lengthAdjust="spacing" textLength="380.3516" x="4174.5" y="464.0669">Direcci&#243;n de Calidad: Verificar cumplimiento con memoria</text></g><!--link VerificarMemoria to MenuPrincipal--><g id="link_VerificarMemoria_MenuPrincipal"><path d="M4463.5,568.99 C4533.18,541.7 4622.98,494.12 4578.5,442 C4363.77,190.39 4172.77,356.53 3843.5,325 C3533.61,295.33 2560.2691,276.9228 2288.2091,272.2628 " fill="none" id="VerificarMemoria-to-MenuPrincipal" style="stroke:#181818;stroke-width:1;"/><polygon fill="#181818" points="2282.21,272.16,2291.1402,276.3135,2287.2093,272.2456,2291.2772,268.3147,2282.21,272.16" style="stroke:#181818;stroke-width:1;"/><path d="M4594.5,447 L4594.5,472 L4758.5,472 L4758.5,457 L4748.5,447 L4594.5,447 " fill="#FEFFDD" style="stroke:#181818;stroke-width:0.5;"/><path d="M4748.5,447 L4748.5,457 L4758.5,457 L4748.5,447 " fill="#FEFFDD" style="stroke:#181818;stroke-width:0.5;"/><text fill="#000000" font-family="sans-serif" font-size="13" lengthAdjust="spacing" textLength="143.8125" x="4600.5" y="464.0669">Confirmar verificaci&#243;n</text></g><!--SRC=[lPRBZfim58RtUGfhbfNc1MOn4aCOX9GGn2MRgefEZ2Ur2dPaGnRpHbrqrKV8YzKsX10kcS2YR28b__cE_tCnaGKK13sj7J_P1Q7dsrvWhPuGIBGch0m4PPWU8Ll8IkSilTWAT_R6ZntVMswCqabf0SBch22CfloY3Psj5_N48JbHEQ2sWd3prbDRHy7t0-eWULjvjfAxYMSPPL3kCuf1k2M5XfbKnsr4LccEsjQuZk-4IhDrmiZR-4Rc4aO4Y2qHadBMq2BFzMlQBlRYP6NPbmXBqWEhm34joWpmG63r6IVXM7ZrKPHY018bWHDM1TK7Y4nSL1w9CFNKcUL5gxnuxwOyQsUz2MlpoWxzq2LQavmBLO75zsy_qBDwNZlDHkfXN94uGnbblymN-h5mmGK2Z4bA46H8KbcG7CplXAKcQB6uWI6DLud6eJObGW2IHDBpNtQVzTeRjb5iVFwD6SKSgQFQaD4KqfSw6k6Ry6ks3dnQSTmIHAhXaEyfbryKHODxkp3ANb91JEsL6LT0obykmQDUkl0wPs-ZnfjTAH57AlTF-BoJgmkTLZWLza55hlXWE5ZFGPEMFr38c-MVKiHB83gKvp-0Kew9ij39sARFTNQi6FZh4Q-wrBgexlkfYjMUyJgsijGTmnPucfLtobG2FGIW4Lme-0D6EbVfj6sjWn4hoGdGIJFwvRlDCBS_1qDvk3s3r_qqSpMZdZn0HGtgds0ms-mLCx29HWTVJFFiGeDwnFDGul_ZlFjgdURs6ZsyXXtwt5MKDUP1Jxr_05ElbWQ0S9aVCvfJTLro_Lf0UGjvFKKtuzpUdMfEltl_0000]--></g></svg>