<svg xmlns="http://www.w3.org/2000/svg" xmlns:xlink="http://www.w3.org/1999/xlink" contentStyleType="text/css" height="989px" preserveAspectRatio="none" style="width:774px;height:989px;background:#FFFFFF;" version="1.1" viewBox="0 0 774 989" width="774px" zoomAndPan="magnify"><title>Editar Contenido de la Gu&#237;a</title><defs/><g><text fill="#000000" font-family="sans-serif" font-size="14" font-weight="bold" lengthAdjust="spacing" textLength="216.8428" x="272.0476" y="22.9951">Editar Contenido de la Gu&#237;a</text><g id="INICIO"><rect fill="#F1F1F1" height="50" rx="12.5" ry="12.5" style="stroke:#181818;stroke-width:0.5;" width="63.6543" x="299" y="44.2969"/><line style="stroke:#181818;stroke-width:0.5;" x1="299" x2="362.6543" y1="70.5938" y2="70.5938"/><text fill="#000000" font-family="sans-serif" font-size="14" lengthAdjust="spacing" textLength="43.6543" x="309" y="62.292">INICIO</text></g><g id="INICIAR_SESION"><rect fill="#F1F1F1" height="50" rx="12.5" ry="12.5" style="stroke:#181818;stroke-width:0.5;" width="128.6299" x="266.5" y="171.2969"/><line style="stroke:#181818;stroke-width:0.5;" x1="266.5" x2="395.1299" y1="197.5938" y2="197.5938"/><text fill="#000000" font-family="sans-serif" font-size="14" lengthAdjust="spacing" textLength="108.6299" x="276.5" y="189.292">INICIAR SESI&#211;N</text></g><g id="MENU_PRINCIPAL"><rect fill="#F1F1F1" height="50" rx="12.5" ry="12.5" style="stroke:#181818;stroke-width:0.5;" width="138.5898" x="261.5" y="298.2969"/><line style="stroke:#181818;stroke-width:0.5;" x1="261.5" x2="400.0898" y1="324.5938" y2="324.5938"/><text fill="#000000" font-family="sans-serif" font-size="14" lengthAdjust="spacing" textLength="118.5898" x="271.5" y="316.292">MEN&#218; PRINCIPAL</text></g><g id="LISTAR_GUIAS"><rect fill="#F1F1F1" height="50" rx="12.5" ry="12.5" style="stroke:#181818;stroke-width:0.5;" width="203.9961" x="229" y="425.2969"/><line style="stroke:#181818;stroke-width:0.5;" x1="229" x2="432.9961" y1="451.5938" y2="451.5938"/><text fill="#000000" font-family="sans-serif" font-size="14" lengthAdjust="spacing" textLength="183.9961" x="239" y="443.292">LISTAR GUIAS ASIGNADAS</text></g><g id="SELECCIONAR_GUIA"><rect fill="#F1F1F1" height="50" rx="12.5" ry="12.5" style="stroke:#181818;stroke-width:0.5;" width="158.1064" x="252" y="552.2969"/><line style="stroke:#181818;stroke-width:0.5;" x1="252" x2="410.1064" y1="578.5938" y2="578.5938"/><text fill="#000000" font-family="sans-serif" font-size="14" lengthAdjust="spacing" textLength="138.1064" x="262" y="570.292">SELECCIONAR GUIA</text></g><g id="EDITAR_GUIA"><rect fill="#F1F1F1" height="50" rx="12.5" ry="12.5" style="stroke:#181818;stroke-width:0.5;" width="110.8633" x="275.5" y="679.2969"/><line style="stroke:#181818;stroke-width:0.5;" x1="275.5" x2="386.3633" y1="705.5938" y2="705.5938"/><text fill="#000000" font-family="sans-serif" font-size="14" lengthAdjust="spacing" textLength="90.8633" x="285.5" y="697.292">EDITAR GUIA</text></g><g id="GUARDAR_CAMBIOS"><rect fill="#F1F1F1" height="50" rx="12.5" ry="12.5" style="stroke:#181818;stroke-width:0.5;" width="160.0068" x="7" y="806.2969"/><line style="stroke:#181818;stroke-width:0.5;" x1="7" x2="167.0068" y1="832.5938" y2="832.5938"/><text fill="#000000" font-family="sans-serif" font-size="14" lengthAdjust="spacing" textLength="140.0068" x="17" y="824.292">GUARDAR CAMBIOS</text></g><g id="CANCELAR_CAMBIOS"><rect fill="#F1F1F1" height="50" rx="12.5" ry="12.5" style="stroke:#181818;stroke-width:0.5;" width="165.0723" x="261.5" y="806.2969"/><line style="stroke:#181818;stroke-width:0.5;" x1="261.5" x2="426.5723" y1="832.5938" y2="832.5938"/><text fill="#000000" font-family="sans-serif" font-size="14" lengthAdjust="spacing" textLength="145.0723" x="271.5" y="824.292">CANCELAR CAMBIOS</text></g><g id="FINAL"><rect fill="#F1F1F1" height="50" rx="12.5" ry="12.5" style="stroke:#181818;stroke-width:0.5;" width="60.0313" x="328" y="933.2969"/><line style="stroke:#181818;stroke-width:0.5;" x1="328" x2="388.0313" y1="959.5938" y2="959.5938"/><text fill="#000000" font-family="sans-serif" font-size="14" lengthAdjust="spacing" textLength="40.0313" x="338" y="951.292">FINAL</text></g><g id="ERROR_CONTENIDO"><rect fill="#F1F1F1" height="50" rx="12.5" ry="12.5" style="stroke:#181818;stroke-width:0.5;" width="182.333" x="488" y="806.2969"/><line style="stroke:#181818;stroke-width:0.5;" x1="488" x2="670.333" y1="832.5938" y2="832.5938"/><text fill="#000000" font-family="sans-serif" font-size="14" lengthAdjust="spacing" textLength="162.333" x="498" y="824.292">ERROR EN CONTENIDO</text></g><!--link INICIO to INICIAR_SESION--><g id="link_INICIO_INICIAR_SESION"><path d="M331,94.3969 C331,116.5369 331,143.1569 331,165.2669 " fill="none" id="INICIO-to-INICIAR_SESION" style="stroke:#181818;stroke-width:1;"/><polygon fill="#181818" points="331,171.2669,335,162.2669,331,166.2669,327,162.2669,331,171.2669" style="stroke:#181818;stroke-width:1;"/><text fill="#000000" font-family="sans-serif" font-size="13" lengthAdjust="spacing" textLength="137.5854" x="332" y="137.3638">Profesor inicia sesi&#243;n</text></g><!--link INICIAR_SESION to MENU_PRINCIPAL--><g id="link_INICIAR_SESION_MENU_PRINCIPAL"><path d="M331,221.3969 C331,243.5369 331,270.1569 331,292.2669 " fill="none" id="INICIAR_SESION-to-MENU_PRINCIPAL" style="stroke:#181818;stroke-width:1;"/><polygon fill="#181818" points="331,298.2669,335,289.2669,331,293.2669,327,289.2669,331,298.2669" style="stroke:#181818;stroke-width:1;"/><text fill="#000000" font-family="sans-serif" font-size="13" lengthAdjust="spacing" textLength="196.606" x="332" y="264.3638">Sistema permite iniciar sesi&#243;n</text></g><!--link MENU_PRINCIPAL to LISTAR_GUIAS--><g id="link_MENU_PRINCIPAL_LISTAR_GUIAS"><path d="M331,348.3969 C331,370.5369 331,397.1569 331,419.2669 " fill="none" id="MENU_PRINCIPAL-to-LISTAR_GUIAS" style="stroke:#181818;stroke-width:1;"/><polygon fill="#181818" points="331,425.2669,335,416.2669,331,420.2669,327,416.2669,331,425.2669" style="stroke:#181818;stroke-width:1;"/><text fill="#000000" font-family="sans-serif" font-size="13" lengthAdjust="spacing" textLength="203.0298" x="332" y="391.3638">Profesor selecciona "Mis gu&#237;as"</text></g><!--link LISTAR_GUIAS to SELECCIONAR_GUIA--><g id="link_LISTAR_GUIAS_SELECCIONAR_GUIA"><path d="M331,475.3969 C331,497.5369 331,524.1569 331,546.2669 " fill="none" id="LISTAR_GUIAS-to-SELECCIONAR_GUIA" style="stroke:#181818;stroke-width:1;"/><polygon fill="#181818" points="331,552.2669,335,543.2669,331,547.2669,327,543.2669,331,552.2669" style="stroke:#181818;stroke-width:1;"/><text fill="#000000" font-family="sans-serif" font-size="13" lengthAdjust="spacing" textLength="192.4609" x="332" y="518.3638">Sistema lista gu&#237;as asignadas</text></g><!--link SELECCIONAR_GUIA to EDITAR_GUIA--><g id="link_SELECCIONAR_GUIA_EDITAR_GUIA"><path d="M331,602.3969 C331,624.5369 331,651.1569 331,673.2669 " fill="none" id="SELECCIONAR_GUIA-to-EDITAR_GUIA" style="stroke:#181818;stroke-width:1;"/><polygon fill="#181818" points="331,679.2669,335,670.2669,331,674.2669,327,670.2669,331,679.2669" style="stroke:#181818;stroke-width:1;"/><text fill="#000000" font-family="sans-serif" font-size="13" lengthAdjust="spacing" textLength="263.2056" x="332" y="645.3638">Profesor selecciona una gu&#237;a para editar</text></g><!--link EDITAR_GUIA to GUARDAR_CAMBIOS--><g id="link_EDITAR_GUIA_GUARDAR_CAMBIOS"><path d="M275.36,705.5769 C227.48,708.7069 159.31,720.4269 115,759.2969 C101.35,771.2669 95.6477,784.9125 92.0377,800.4525 " fill="none" id="EDITAR_GUIA-to-GUARDAR_CAMBIOS" style="stroke:#181818;stroke-width:1;"/><polygon fill="#181818" points="90.68,806.2969,96.6128,798.4354,91.8114,801.4266,88.8203,796.6252,90.68,806.2969" style="stroke:#181818;stroke-width:1;"/><text fill="#000000" font-family="sans-serif" font-size="13" lengthAdjust="spacing" textLength="202.8774" x="116" y="772.3638">Profesor realiza modificaciones</text></g><!--link EDITAR_GUIA to CANCELAR_CAMBIOS--><g id="link_EDITAR_GUIA_CANCELAR_CAMBIOS"><path d="M327.77,729.3969 C326.47,743.1969 325.75,760.7869 328,776.2969 C329.45,786.2669 330.5067,791.2374 333.4267,800.4474 " fill="none" id="EDITAR_GUIA-to-CANCELAR_CAMBIOS" style="stroke:#181818;stroke-width:1;"/><polygon fill="#181818" points="335.24,806.1669,336.333,796.3789,333.7289,801.4007,328.7071,798.7966,335.24,806.1669" style="stroke:#181818;stroke-width:1;"/><text fill="#000000" font-family="sans-serif" font-size="13" lengthAdjust="spacing" textLength="219.229" x="329" y="772.3638">Profesor decide cancelar cambios</text></g><!--link GUARDAR_CAMBIOS to FINAL--><g id="link_GUARDAR_CAMBIOS_FINAL"><path d="M89.49,856.3669 C92.37,871.9369 98.59,891.4369 112,903.2969 C143.85,931.4669 263.3448,947.3617 321.7748,953.6817 " fill="none" id="GUARDAR_CAMBIOS-to-FINAL" style="stroke:#181818;stroke-width:1;"/><polygon fill="#181818" points="327.74,954.3269,319.2223,949.3822,322.769,953.7892,318.362,957.3359,327.74,954.3269" style="stroke:#181818;stroke-width:1;"/><text fill="#000000" font-family="sans-serif" font-size="13" lengthAdjust="spacing" textLength="229.5566" x="113" y="899.3638">Cambios guardados correctamente</text></g><!--link CANCELAR_CAMBIOS to FINAL--><g id="link_CANCELAR_CAMBIOS_FINAL"><path d="M346.7,856.3969 C349.18,878.5369 352.1612,905.1943 354.6412,927.3043 " fill="none" id="CANCELAR_CAMBIOS-to-FINAL" style="stroke:#181818;stroke-width:1;"/><polygon fill="#181818" points="355.31,933.2669,358.2819,923.8771,354.7527,928.298,350.3317,924.7688,355.31,933.2669" style="stroke:#181818;stroke-width:1;"/><text fill="#000000" font-family="sans-serif" font-size="13" lengthAdjust="spacing" textLength="139.9531" x="353" y="899.3638">Cambios descartados</text></g><!--link EDITAR_GUIA to ERROR_CONTENIDO--><g id="link_EDITAR_GUIA_ERROR_CONTENIDO"><path d="M386.75,712.7669 C444.2,721.5069 528.71,737.5969 553,759.2969 C566.31,771.1869 571.6156,784.609 574.7856,800.079 " fill="none" id="EDITAR_GUIA-to-ERROR_CONTENIDO" style="stroke:#181818;stroke-width:1;"/><polygon fill="#181818" points="575.99,805.9569,578.1019,796.3371,574.9863,801.0587,570.2647,797.943,575.99,805.9569" style="stroke:#181818;stroke-width:1;"/><text fill="#000000" font-family="sans-serif" font-size="13" lengthAdjust="spacing" textLength="191.0898" x="567" y="772.3638">Error detectado en contenido</text></g><!--link ERROR_CONTENIDO to FINAL--><g id="link_ERROR_CONTENIDO_FINAL"><path d="M557,856.5669 C542.31,871.6269 521.92,890.4769 501,903.2969 C464.91,925.4169 424.0502,939.2821 394.0202,947.8421 " fill="none" id="ERROR_CONTENIDO-to-FINAL" style="stroke:#181818;stroke-width:1;"/><polygon fill="#181818" points="388.25,949.4869,398.0018,950.8665,393.0585,948.1162,395.8087,943.1729,388.25,949.4869" style="stroke:#181818;stroke-width:1;"/><text fill="#000000" font-family="sans-serif" font-size="13" lengthAdjust="spacing" textLength="240.938" x="526" y="899.3638">El sistema muestra mensaje de error</text></g><!--SRC=[TLGxhjim4EnvYeNxTu4K0HIPCGZuKOParyA6slV0G9y7acvoZNIvGweSmHVBKX-3ffDAud1cThHBAjZG4yZE1dHGJcEWqNOJT0Gzmk5w-ur2-821G6bLgcfTxEPLKKCZ6tNxgNU07bQiZLYbD-QhrBTVSAgLBjMfECvCnYxj7TgOHzMSsV9mKKK3HQCEkjWNpInOjjfvQwCtyYXBZgHNpKnCm9czaULUdLFUidwW72v5lMTEMRn-KTLITyNQ5TkePQ5BUSou6vYHlohDdtZFKTTL3L93MUcpr6fVBN4YtDun8PPkmylBvwojy0bERdeZFpcmepKMmPEtjp-Zo8XH-zXerZRM1neGFiWDbWCj5kxkaGcYHzhxjBgddeonquWyPElXFPuMlnCF_6YGpoI9qVCJLoNtmRwFsA4NJufeaupiFp6ku-e57-WGQ3xL8jL5dsocgPSZxEqFX67gx9ir66t9FpdaaqujEZAMRu_1qL3FZJKuVBEJ5tdLw3CV3HQN2uUpe-kmupSpEKScu41y8yLJlN-9E_86NOXoyPGuEryiayxDQKCimpUUHYwwNd-HqzDwiWU_Jc-uaW_SQ4xfyJl5lmP5sxy0]--></g></svg>