<svg xmlns="http://www.w3.org/2000/svg" xmlns:xlink="http://www.w3.org/1999/xlink" contentStyleType="text/css" height="825px" preserveAspectRatio="none" style="width:703px;height:825px;background:#FFFFFF;" version="1.1" viewBox="0 0 703 825" width="703px" zoomAndPan="magnify"><defs/><g><g id="INICIO"><rect fill="#F1F1F1" height="50" rx="12.5" ry="12.5" style="stroke:#181818;stroke-width:0.5;" width="63.6543" x="250" y="7"/><line style="stroke:#181818;stroke-width:0.5;" x1="250" x2="313.6543" y1="33.2969" y2="33.2969"/><text fill="#000000" font-family="sans-serif" font-size="14" lengthAdjust="spacing" textLength="43.6543" x="260" y="24.9951">INICIO</text></g><g id="INICIAR_SESION"><rect fill="#F1F1F1" height="50" rx="12.5" ry="12.5" style="stroke:#181818;stroke-width:0.5;" width="128.6299" x="217.5" y="134"/><line style="stroke:#181818;stroke-width:0.5;" x1="217.5" x2="346.1299" y1="160.2969" y2="160.2969"/><text fill="#000000" font-family="sans-serif" font-size="14" lengthAdjust="spacing" textLength="108.6299" x="227.5" y="151.9951">INICIAR SESI&#211;N</text></g><g id="MENU_PRINCIPAL"><rect fill="#F1F1F1" height="50" rx="12.5" ry="12.5" style="stroke:#181818;stroke-width:0.5;" width="138.5898" x="212.5" y="261"/><line style="stroke:#181818;stroke-width:0.5;" x1="212.5" x2="351.0898" y1="287.2969" y2="287.2969"/><text fill="#000000" font-family="sans-serif" font-size="14" lengthAdjust="spacing" textLength="118.5898" x="222.5" y="278.9951">MEN&#218; PRINCIPAL</text></g><g id="LISTAR_GUIAS"><rect fill="#F1F1F1" height="50" rx="12.5" ry="12.5" style="stroke:#181818;stroke-width:0.5;" width="203.9961" x="56" y="388"/><line style="stroke:#181818;stroke-width:0.5;" x1="56" x2="259.9961" y1="414.2969" y2="414.2969"/><text fill="#000000" font-family="sans-serif" font-size="14" lengthAdjust="spacing" textLength="183.9961" x="66" y="405.9951">LISTAR GUIAS ASIGNADAS</text></g><g id="SELECCIONAR_GUIA"><rect fill="#F1F1F1" height="50" rx="12.5" ry="12.5" style="stroke:#181818;stroke-width:0.5;" width="158.1064" x="60" y="515"/><line style="stroke:#181818;stroke-width:0.5;" x1="60" x2="218.1064" y1="541.2969" y2="541.2969"/><text fill="#000000" font-family="sans-serif" font-size="14" lengthAdjust="spacing" textLength="138.1064" x="70" y="532.9951">SELECCIONAR GUIA</text></g><g id="CONFIRMAR_ENVIO"><rect fill="#F1F1F1" height="50" rx="12.5" ry="12.5" style="stroke:#181818;stroke-width:0.5;" width="153.0547" x="179.5" y="642"/><line style="stroke:#181818;stroke-width:0.5;" x1="179.5" x2="332.5547" y1="668.2969" y2="668.2969"/><text fill="#000000" font-family="sans-serif" font-size="14" lengthAdjust="spacing" textLength="133.0547" x="189.5" y="659.9951">CONFIRMAR ENV&#205;O</text></g><g id="GUIA_ENVIADA"><rect fill="#F1F1F1" height="50" rx="12.5" ry="12.5" style="stroke:#181818;stroke-width:0.5;" width="122.2109" x="7" y="769"/><line style="stroke:#181818;stroke-width:0.5;" x1="7" x2="129.2109" y1="795.2969" y2="795.2969"/><text fill="#000000" font-family="sans-serif" font-size="14" lengthAdjust="spacing" textLength="102.2109" x="17" y="786.9951">GU&#205;A ENVIADA</text></g><g id="ERROR_ENVIO"><rect fill="#F1F1F1" height="50" rx="12.5" ry="12.5" style="stroke:#181818;stroke-width:0.5;" width="141.6182" x="297" y="769"/><line style="stroke:#181818;stroke-width:0.5;" x1="297" x2="438.6182" y1="795.2969" y2="795.2969"/><text fill="#000000" font-family="sans-serif" font-size="14" lengthAdjust="spacing" textLength="121.6182" x="307" y="786.9951">ERROR DE ENV&#205;O</text></g><g id="FINAL"><rect fill="#F1F1F1" height="50" rx="12.5" ry="12.5" style="stroke:#181818;stroke-width:0.5;" width="60.0313" x="636" y="261"/><line style="stroke:#181818;stroke-width:0.5;" x1="636" x2="696.0313" y1="287.2969" y2="287.2969"/><text fill="#000000" font-family="sans-serif" font-size="14" lengthAdjust="spacing" textLength="40.0313" x="646" y="278.9951">FINAL</text></g><!--link INICIO to INICIAR_SESION--><g id="link_INICIO_INICIAR_SESION"><path d="M282,57.1 C282,79.24 282,105.86 282,127.97 " fill="none" id="INICIO-to-INICIAR_SESION" style="stroke:#181818;stroke-width:1;"/><polygon fill="#181818" points="282,133.97,286,124.97,282,128.97,278,124.97,282,133.97" style="stroke:#181818;stroke-width:1;"/><text fill="#000000" font-family="sans-serif" font-size="13" lengthAdjust="spacing" textLength="137.5854" x="283" y="100.0669">Profesor inicia sesi&#243;n</text></g><!--link INICIAR_SESION to MENU_PRINCIPAL--><g id="link_INICIAR_SESION_MENU_PRINCIPAL"><path d="M282,184.1 C282,206.24 282,232.86 282,254.97 " fill="none" id="INICIAR_SESION-to-MENU_PRINCIPAL" style="stroke:#181818;stroke-width:1;"/><polygon fill="#181818" points="282,260.97,286,251.97,282,255.97,278,251.97,282,260.97" style="stroke:#181818;stroke-width:1;"/><text fill="#000000" font-family="sans-serif" font-size="13" lengthAdjust="spacing" textLength="196.606" x="283" y="227.0669">Sistema permite iniciar sesi&#243;n</text></g><!--link MENU_PRINCIPAL to LISTAR_GUIAS--><g id="link_MENU_PRINCIPAL_LISTAR_GUIAS"><path d="M212.31,310.49 C197.87,318.21 184.02,328.21 174,341 C163.64,354.23 160.2668,366.905 158.9068,381.765 " fill="none" id="MENU_PRINCIPAL-to-LISTAR_GUIAS" style="stroke:#181818;stroke-width:1;"/><polygon fill="#181818" points="158.36,387.74,163.1636,379.142,158.8157,382.7608,155.1969,378.4129,158.36,387.74" style="stroke:#181818;stroke-width:1;"/><text fill="#000000" font-family="sans-serif" font-size="13" lengthAdjust="spacing" textLength="203.0298" x="175" y="354.0669">Profesor selecciona "Mis gu&#237;as"</text></g><!--link LISTAR_GUIAS to SELECCIONAR_GUIA--><g id="link_LISTAR_GUIAS_SELECCIONAR_GUIA"><path d="M154.34,438.1 C150.97,460.24 146.9115,486.9281 143.5515,509.0381 " fill="none" id="LISTAR_GUIAS-to-SELECCIONAR_GUIA" style="stroke:#181818;stroke-width:1;"/><polygon fill="#181818" points="142.65,514.97,147.9568,506.6731,143.4012,510.0268,140.0476,505.4712,142.65,514.97" style="stroke:#181818;stroke-width:1;"/><text fill="#000000" font-family="sans-serif" font-size="13" lengthAdjust="spacing" textLength="192.4609" x="151" y="481.0669">Sistema lista gu&#237;as asignadas</text></g><!--link SELECCIONAR_GUIA to CONFIRMAR_ENVIO--><g id="link_SELECCIONAR_GUIA_CONFIRMAR_ENVIO"><path d="M114.96,565.11 C103.7,579.39 94.77,597.47 105,612 C122.08,636.24 145.2785,648.1295 173.3285,655.5295 " fill="none" id="SELECCIONAR_GUIA-to-CONFIRMAR_ENVIO" style="stroke:#181818;stroke-width:1;"/><polygon fill="#181818" points="179.13,657.06,171.4481,650.8965,174.2954,655.7846,169.4074,658.6319,179.13,657.06" style="stroke:#181818;stroke-width:1;"/><text fill="#000000" font-family="sans-serif" font-size="13" lengthAdjust="spacing" textLength="272.543" x="106" y="608.0669">Profesor selecciona "Enviar para revisi&#243;n"</text></g><!--link CONFIRMAR_ENVIO to GUIA_ENVIADA--><g id="link_CONFIRMAR_ENVIO_GUIA_ENVIADA"><path d="M179.24,678.1 C148.67,685.66 115.3,698.88 92,722 C79.53,734.37 74.6527,747.5441 71.7727,762.8041 " fill="none" id="CONFIRMAR_ENVIO-to-GUIA_ENVIADA" style="stroke:#181818;stroke-width:1;"/><polygon fill="#181818" points="70.66,768.7,76.2597,760.5979,71.5873,763.7867,68.3985,759.1143,70.66,768.7" style="stroke:#181818;stroke-width:1;"/><text fill="#000000" font-family="sans-serif" font-size="13" lengthAdjust="spacing" textLength="146.396" x="93" y="735.0669">Confirmaci&#243;n de env&#237;o</text></g><!--link CONFIRMAR_ENVIO to MENU_PRINCIPAL--><g id="link_CONFIRMAR_ENVIO_MENU_PRINCIPAL"><path d="M332.61,649.75 C352.3,641.73 371.24,629.78 383,612 C449.45,511.54 444.92,444.31 383,341 C375.49,328.46 369.1006,321.7742 356.4906,314.1842 " fill="none" id="CONFIRMAR_ENVIO-to-MENU_PRINCIPAL" style="stroke:#181818;stroke-width:1;"/><polygon fill="#181818" points="351.35,311.09,356.9982,319.1583,355.6339,313.6685,361.1237,312.3042,351.35,311.09" style="stroke:#181818;stroke-width:1;"/><text fill="#000000" font-family="sans-serif" font-size="13" lengthAdjust="spacing" textLength="96.9795" x="433" y="481.0669">Cancelar env&#237;o</text></g><!--link CONFIRMAR_ENVIO to ERROR_ENVIO--><g id="link_CONFIRMAR_ENVIO_ERROR_ENVIO"><path d="M248.42,692.16 C245.34,706.81 244.27,725.25 253,739 C263.23,755.1 274.237,763.9653 291.527,771.9853 " fill="none" id="CONFIRMAR_ENVIO-to-ERROR_ENVIO" style="stroke:#181818;stroke-width:1;"/><polygon fill="#181818" points="296.97,774.51,290.4887,767.0943,292.4342,772.4061,287.1224,774.3515,296.97,774.51" style="stroke:#181818;stroke-width:1;"/><text fill="#000000" font-family="sans-serif" font-size="13" lengthAdjust="spacing" textLength="182.311" x="254" y="735.0669">Falla en el proceso de env&#237;o</text></g><!--link ERROR_ENVIO to CONFIRMAR_ENVIO--><g id="link_ERROR_ENVIO_CONFIRMAR_ENVIO"><path d="M418.2,768.87 C438.23,755.91 453.83,739.11 441,722 C427.55,704.06 383.3658,691.3246 338.7158,682.0946 " fill="none" id="ERROR_ENVIO-to-CONFIRMAR_ENVIO" style="stroke:#181818;stroke-width:1;"/><polygon fill="#181818" points="332.84,680.88,340.8439,686.6191,337.7365,681.8922,342.4634,678.7848,332.84,680.88" style="stroke:#181818;stroke-width:1;"/><text fill="#000000" font-family="sans-serif" font-size="13" lengthAdjust="spacing" textLength="108.2529" x="446" y="735.0669">Reintentar env&#237;o</text></g><!--link MENU_PRINCIPAL to FINAL--><g id="link_MENU_PRINCIPAL_FINAL"><path d="M351.54,286 C436.05,286 568.87,286 629.77,286 " fill="none" id="MENU_PRINCIPAL-to-FINAL" style="stroke:#181818;stroke-width:1;"/><polygon fill="#181818" points="635.77,286,626.77,282,630.77,286,626.77,290,635.77,286" style="stroke:#181818;stroke-width:1;"/><text fill="#000000" font-family="sans-serif" font-size="13" lengthAdjust="spacing" textLength="248.7139" x="369.75" y="279.0669">Profesor cierra sesi&#243;n o finaliza tareas</text></g><!--SRC=[VP91Ri8m44NtESM8FHVeeb8K0h947HINRgDHCDHIS92TikWTM7NNEx3g4NAnZaqIJA1THVbv_u_dExR1HWBZB65PPFtBnB_5EOXKiFQBJm0jT5hXj8ptv4lAsszOvOmdR1KlFKdQkXYadbmoyKgHYpMB1SI2BNWyYuKtN3uL_bEFYtIP9dGatday68YUxk4autEMln2QyhVsb7bu40iIhxijrkqfTXoZ-HvqIKKdz5IQvraEipGCzDfDs9nnMZ2wb0VJwVEe9NY2bQctqjO6b5QbGh3IglP7HoFGUMzx8wzGjf5xX8CqUqNZBX5co1WPN4POPJZToagMfQerqfqf2xkFzens4jtmBc1SSN2CYfxOEQaFjTEuGHlTELpCgFo_ZfBgerleW0R1oAFoUqsYiTibXhT4SKcjjyhiiNGEs4YG-jYUwuVMks8JrAMiQF0_fk2soJ77gaB2GLPmC7L9cmH3G_RnzhbKkf6wkSuSNvvHk_U6lFwV2ligbJHc-76WXgtIMAbF14gJQ7y1]--></g></svg>