<svg xmlns="http://www.w3.org/2000/svg" xmlns:xlink="http://www.w3.org/1999/xlink" contentStyleType="text/css" height="989px" preserveAspectRatio="none" style="width:681px;height:989px;background:#FFFFFF;" version="1.1" viewBox="0 0 681 989" width="681px" zoomAndPan="magnify"><title>Generar Nueva Versi&#243;n de la Gu&#237;a</title><defs/><g><text fill="#000000" font-family="sans-serif" font-size="14" font-weight="bold" lengthAdjust="spacing" textLength="267.2441" x="200.0217" y="22.9951">Generar Nueva Versi&#243;n de la Gu&#237;a</text><g id="INICIO"><rect fill="#F1F1F1" height="50" rx="12.5" ry="12.5" style="stroke:#181818;stroke-width:0.5;" width="63.6543" x="216" y="44.2969"/><line style="stroke:#181818;stroke-width:0.5;" x1="216" x2="279.6543" y1="70.5938" y2="70.5938"/><text fill="#000000" font-family="sans-serif" font-size="14" lengthAdjust="spacing" textLength="43.6543" x="226" y="62.292">INICIO</text></g><g id="INICIAR_SESION"><rect fill="#F1F1F1" height="50" rx="12.5" ry="12.5" style="stroke:#181818;stroke-width:0.5;" width="128.6299" x="183.5" y="171.2969"/><line style="stroke:#181818;stroke-width:0.5;" x1="183.5" x2="312.1299" y1="197.5938" y2="197.5938"/><text fill="#000000" font-family="sans-serif" font-size="14" lengthAdjust="spacing" textLength="108.6299" x="193.5" y="189.292">INICIAR SESI&#211;N</text></g><g id="MENU_PRINCIPAL"><rect fill="#F1F1F1" height="50" rx="12.5" ry="12.5" style="stroke:#181818;stroke-width:0.5;" width="138.5898" x="178.5" y="298.2969"/><line style="stroke:#181818;stroke-width:0.5;" x1="178.5" x2="317.0898" y1="324.5938" y2="324.5938"/><text fill="#000000" font-family="sans-serif" font-size="14" lengthAdjust="spacing" textLength="118.5898" x="188.5" y="316.292">MEN&#218; PRINCIPAL</text></g><g id="LISTAR_GUIAS"><rect fill="#F1F1F1" height="50" rx="12.5" ry="12.5" style="stroke:#181818;stroke-width:0.5;" width="214.2568" x="141" y="425.2969"/><line style="stroke:#181818;stroke-width:0.5;" x1="141" x2="355.2568" y1="451.5938" y2="451.5938"/><text fill="#000000" font-family="sans-serif" font-size="14" lengthAdjust="spacing" textLength="194.2568" x="151" y="443.292">LISTAR GUIAS DISPONIBLES</text></g><g id="SELECCIONAR_GUIA"><rect fill="#F1F1F1" height="50" rx="12.5" ry="12.5" style="stroke:#181818;stroke-width:0.5;" width="158.1064" x="169" y="552.2969"/><line style="stroke:#181818;stroke-width:0.5;" x1="169" x2="327.1064" y1="578.5938" y2="578.5938"/><text fill="#000000" font-family="sans-serif" font-size="14" lengthAdjust="spacing" textLength="138.1064" x="179" y="570.292">SELECCIONAR GUIA</text></g><g id="CREAR_NUEVA_VERSION"><rect fill="#F1F1F1" height="50" rx="12.5" ry="12.5" style="stroke:#181818;stroke-width:0.5;" width="187.9316" x="154" y="679.2969"/><line style="stroke:#181818;stroke-width:0.5;" x1="154" x2="341.9316" y1="705.5938" y2="705.5938"/><text fill="#000000" font-family="sans-serif" font-size="14" lengthAdjust="spacing" textLength="167.9316" x="164" y="697.292">CREAR NUEVA VERSI&#211;N</text></g><g id="CONFIRMAR_CREACION"><rect fill="#F1F1F1" height="50" rx="12.5" ry="12.5" style="stroke:#181818;stroke-width:0.5;" width="182.333" x="7" y="806.2969"/><line style="stroke:#181818;stroke-width:0.5;" x1="7" x2="189.333" y1="832.5938" y2="832.5938"/><text fill="#000000" font-family="sans-serif" font-size="14" lengthAdjust="spacing" textLength="162.333" x="17" y="824.292">CONFIRMAR CREACI&#211;N</text></g><g id="FINAL"><rect fill="#F1F1F1" height="50" rx="12.5" ry="12.5" style="stroke:#181818;stroke-width:0.5;" width="60.0313" x="232" y="933.2969"/><line style="stroke:#181818;stroke-width:0.5;" x1="232" x2="292.0313" y1="959.5938" y2="959.5938"/><text fill="#000000" font-family="sans-serif" font-size="14" lengthAdjust="spacing" textLength="40.0313" x="242" y="951.292">FINAL</text></g><g id="ERROR_CREACION"><rect fill="#F1F1F1" height="50" rx="12.5" ry="12.5" style="stroke:#181818;stroke-width:0.5;" width="170.5889" x="323.5" y="806.2969"/><line style="stroke:#181818;stroke-width:0.5;" x1="323.5" x2="494.0889" y1="832.5938" y2="832.5938"/><text fill="#000000" font-family="sans-serif" font-size="14" lengthAdjust="spacing" textLength="150.5889" x="333.5" y="824.292">ERROR EN CREACI&#211;N</text></g><!--link INICIO to INICIAR_SESION--><g id="link_INICIO_INICIAR_SESION"><path d="M248,94.3969 C248,116.5369 248,143.1569 248,165.2669 " fill="none" id="INICIO-to-INICIAR_SESION" style="stroke:#181818;stroke-width:1;"/><polygon fill="#181818" points="248,171.2669,252,162.2669,248,166.2669,244,162.2669,248,171.2669" style="stroke:#181818;stroke-width:1;"/><text fill="#000000" font-family="sans-serif" font-size="13" lengthAdjust="spacing" textLength="207.0923" x="249" y="137.3638">T&#233;cnico de Calidad inicia sesi&#243;n</text></g><!--link INICIAR_SESION to MENU_PRINCIPAL--><g id="link_INICIAR_SESION_MENU_PRINCIPAL"><path d="M248,221.3969 C248,243.5369 248,270.1569 248,292.2669 " fill="none" id="INICIAR_SESION-to-MENU_PRINCIPAL" style="stroke:#181818;stroke-width:1;"/><polygon fill="#181818" points="248,298.2669,252,289.2669,248,293.2669,244,289.2669,248,298.2669" style="stroke:#181818;stroke-width:1;"/><text fill="#000000" font-family="sans-serif" font-size="13" lengthAdjust="spacing" textLength="196.606" x="249" y="264.3638">Sistema permite iniciar sesi&#243;n</text></g><!--link MENU_PRINCIPAL to LISTAR_GUIAS--><g id="link_MENU_PRINCIPAL_LISTAR_GUIAS"><path d="M248,348.3969 C248,370.5369 248,397.1569 248,419.2669 " fill="none" id="MENU_PRINCIPAL-to-LISTAR_GUIAS" style="stroke:#181818;stroke-width:1;"/><polygon fill="#181818" points="248,425.2669,252,416.2669,248,420.2669,244,416.2669,248,425.2669" style="stroke:#181818;stroke-width:1;"/><text fill="#000000" font-family="sans-serif" font-size="13" lengthAdjust="spacing" textLength="287.6885" x="249" y="391.3638">T&#233;cnico selecciona "Generar nueva versi&#243;n"</text></g><!--link LISTAR_GUIAS to SELECCIONAR_GUIA--><g id="link_LISTAR_GUIAS_SELECCIONAR_GUIA"><path d="M248,475.3969 C248,497.5369 248,524.1569 248,546.2669 " fill="none" id="LISTAR_GUIAS-to-SELECCIONAR_GUIA" style="stroke:#181818;stroke-width:1;"/><polygon fill="#181818" points="248,552.2669,252,543.2669,248,547.2669,244,543.2669,248,552.2669" style="stroke:#181818;stroke-width:1;"/><text fill="#000000" font-family="sans-serif" font-size="13" lengthAdjust="spacing" textLength="199.9893" x="249" y="518.3638">Sistema lista gu&#237;as disponibles</text></g><!--link SELECCIONAR_GUIA to CREAR_NUEVA_VERSION--><g id="link_SELECCIONAR_GUIA_CREAR_NUEVA_VERSION"><path d="M248,602.3969 C248,624.5369 248,651.1569 248,673.2669 " fill="none" id="SELECCIONAR_GUIA-to-CREAR_NUEVA_VERSION" style="stroke:#181818;stroke-width:1;"/><polygon fill="#181818" points="248,679.2669,252,670.2669,248,674.2669,244,670.2669,248,679.2669" style="stroke:#181818;stroke-width:1;"/><text fill="#000000" font-family="sans-serif" font-size="13" lengthAdjust="spacing" textLength="351.0063" x="249" y="645.3638">T&#233;cnico selecciona una gu&#237;a para crear nueva versi&#243;n</text></g><!--link CREAR_NUEVA_VERSION to CONFIRMAR_CREACION--><g id="link_CREAR_NUEVA_VERSION_CONFIRMAR_CREACION"><path d="M153.57,714.6169 C125.71,722.2769 98.12,735.7669 81,759.2969 C71.16,772.8269 73.4048,785.8576 80.3948,800.5676 " fill="none" id="CREAR_NUEVA_VERSION-to-CONFIRMAR_CREACION" style="stroke:#181818;stroke-width:1;"/><polygon fill="#181818" points="82.97,805.9869,82.7201,796.1412,80.824,801.4708,75.4944,799.5747,82.97,805.9869" style="stroke:#181818;stroke-width:1;"/><text fill="#000000" font-family="sans-serif" font-size="13" lengthAdjust="spacing" textLength="287.6123" x="82" y="772.3638">T&#233;cnico confirma creaci&#243;n de nueva versi&#243;n</text></g><!--link CONFIRMAR_CREACION to FINAL--><g id="link_CONFIRMAR_CREACION_FINAL"><path d="M102.39,856.3969 C106.27,871.5769 113.37,890.6369 126,903.2969 C154.98,932.3369 195.6448,945.0097 226.0548,951.3097 " fill="none" id="CONFIRMAR_CREACION-to-FINAL" style="stroke:#181818;stroke-width:1;"/><polygon fill="#181818" points="231.93,952.5269,223.9286,946.7843,227.034,951.5126,222.3057,954.618,231.93,952.5269" style="stroke:#181818;stroke-width:1;"/><text fill="#000000" font-family="sans-serif" font-size="13" lengthAdjust="spacing" textLength="231.3975" x="127" y="899.3638">Nueva versi&#243;n guardada y activada</text></g><!--link CREAR_NUEVA_VERSION to ERROR_CREACION--><g id="link_CREAR_NUEVA_VERSION_ERROR_CREACION"><path d="M327.81,729.3869 C344.44,737.0369 360.88,746.8469 374,759.2969 C387.46,772.0669 394.4125,785.467 399.9125,800.617 " fill="none" id="CREAR_NUEVA_VERSION-to-ERROR_CREACION" style="stroke:#181818;stroke-width:1;"/><polygon fill="#181818" points="401.96,806.2569,402.6487,796.4321,400.2538,801.557,395.1289,799.1621,401.96,806.2569" style="stroke:#181818;stroke-width:1;"/><text fill="#000000" font-family="sans-serif" font-size="13" lengthAdjust="spacing" textLength="162.7222" x="389" y="772.3638">Error durante la creaci&#243;n</text></g><!--link ERROR_CREACION to FINAL--><g id="link_ERROR_CREACION_FINAL"><path d="M398.99,856.3369 C391.82,871.2969 380.97,890.1369 367,903.2969 C345.52,923.5469 320.5664,935.9078 297.9564,944.7678 " fill="none" id="ERROR_CREACION-to-FINAL" style="stroke:#181818;stroke-width:1;"/><polygon fill="#181818" points="292.37,946.9569,302.209,947.3975,297.0253,945.1326,299.2902,939.949,292.37,946.9569" style="stroke:#181818;stroke-width:1;"/><text fill="#000000" font-family="sans-serif" font-size="13" lengthAdjust="spacing" textLength="291.2876" x="382" y="899.3638">El sistema notifica error y permite reintentar</text></g><!--SRC=[TPDDRi8m48NtESM8FHVeeX9D3R843ag0RJHrJ6KfECWsI9oZkzwWYwvwX5oijlD32B1AClFUbnVFn4fR2bW89JHgO2TnHjW9RMJzfw0GK28iJlKlHf6nQ0LGHcEQj0-Jy3HB8ICPhR_O1D10MyjzBM6TSaLO_GthbBAOhcVBe7IrRTwNEkMIPXk7N6pfB8DtcgqJHj-M90kMffc7PcV8o9B4BXHhNK4uA0Pr9uvJucHiItOps97q6Ziqyj38G-EQFKxOdAOhv_EY-6hfwdbJxnrpojptT7QIfaaAX8tSeNnrHit9mdJwEZf2U85D_SELv9MVI8obBB00wGeImOWmgsZayPZRytMOJ1eh3WX7eG_IHMiGkcUC39unFF1X42DAmRci5CAasnuLjkVSRiyakl5ws7WeWqYbko9y-bKpK4Xph9JyA8M9xZmUz61OJyATL4k58se4hiLTqEWHBRpbRhx3b_1AxQK-D4pU_IzZz3t2ayE2E1YxKRkWgDre4Iw0tCgpktqQxdPz78jeNMaeJXgL3VzjdoiQQOS9I0cc7O6ghDnBZY02wTAlYHRI8PL5_Gy0]--></g></svg>