<svg xmlns="http://www.w3.org/2000/svg" xmlns:xlink="http://www.w3.org/1999/xlink" contentStyleType="text/css" height="1328px" preserveAspectRatio="none" style="width:903px;height:1328px;background:#FFFFFF;" version="1.1" viewBox="0 0 903 1328" width="903px" zoomAndPan="magnify"><defs/><g><path d="M19.5,117 L877.5,117 A12.5,12.5 0 0 1 890,129.5 L890,143.2969 L7,143.2969 L7,129.5 A12.5,12.5 0 0 1 19.5,117 " fill="#F1F1F1" style="stroke:#F1F1F1;stroke-width:1;"/><rect fill="none" height="1205.2969" rx="12.5" ry="12.5" style="stroke:#181818;stroke-width:0.5;" width="883" x="7" y="117"/><line style="stroke:#181818;stroke-width:0.5;" x1="7" x2="890" y1="143.2969" y2="143.2969"/><text fill="#000000" font-family="sans-serif" font-size="14" lengthAdjust="spacing" textLength="154.4307" x="371.2847" y="134.9951">GenerarNuevaVersi&#243;n</text><g id="GenerarNuevaVersi&#243;n.SolicitarGeneraci&#243;n"><rect fill="#F1F1F1" height="50" rx="12.5" ry="12.5" style="stroke:#181818;stroke-width:0.5;" width="50" x="244" y="260.2969"/><line style="stroke:#181818;stroke-width:0.5;" x1="244" x2="294" y1="286.5938" y2="286.5938"/><text fill="#000000" font-family="sans-serif" font-size="14" lengthAdjust="spacing" textLength="4.4502" x="266.7749" y="278.292">&#160;</text></g><g id="GenerarNuevaVersi&#243;n.PermitirGeneraci&#243;n"><rect fill="#F1F1F1" height="50" rx="12.5" ry="12.5" style="stroke:#181818;stroke-width:0.5;" width="50" x="244" y="396.2969"/><line style="stroke:#181818;stroke-width:0.5;" x1="244" x2="294" y1="422.5938" y2="422.5938"/><text fill="#000000" font-family="sans-serif" font-size="14" lengthAdjust="spacing" textLength="4.4502" x="266.7749" y="414.292">&#160;</text></g><g id="GenerarNuevaVersi&#243;n.MostrarPlantillas"><rect fill="#F1F1F1" height="50" rx="12.5" ry="12.5" style="stroke:#181818;stroke-width:0.5;" width="50" x="244" y="532.2969"/><line style="stroke:#181818;stroke-width:0.5;" x1="244" x2="294" y1="558.5938" y2="558.5938"/><text fill="#000000" font-family="sans-serif" font-size="14" lengthAdjust="spacing" textLength="4.4502" x="266.7749" y="550.292">&#160;</text></g><g id="GenerarNuevaVersi&#243;n.SolicitarSelecci&#243;n"><rect fill="#F1F1F1" height="50" rx="12.5" ry="12.5" style="stroke:#181818;stroke-width:0.5;" width="50" x="244" y="668.2969"/><line style="stroke:#181818;stroke-width:0.5;" x1="244" x2="294" y1="694.5938" y2="694.5938"/><text fill="#000000" font-family="sans-serif" font-size="14" lengthAdjust="spacing" textLength="4.4502" x="266.7749" y="686.292">&#160;</text></g><g id="GenerarNuevaVersi&#243;n.PermitirSelecci&#243;n"><rect fill="#F1F1F1" height="50" rx="12.5" ry="12.5" style="stroke:#181818;stroke-width:0.5;" width="50" x="244" y="804.2969"/><line style="stroke:#181818;stroke-width:0.5;" x1="244" x2="294" y1="830.5938" y2="830.5938"/><text fill="#000000" font-family="sans-serif" font-size="14" lengthAdjust="spacing" textLength="4.4502" x="266.7749" y="822.292">&#160;</text></g><g id="elem_ValidarSelecci&#243;n"><polygon fill="#F1F1F1" points="269,940.2969,281,952.2969,269,964.2969,257,952.2969,269,940.2969" style="stroke:#181818;stroke-width:0.5;"/></g><g id="GenerarNuevaVersi&#243;n.PermitirCreaci&#243;n"><rect fill="#F1F1F1" height="50" rx="12.5" ry="12.5" style="stroke:#181818;stroke-width:0.5;" width="50" x="19" y="1067.2969"/><line style="stroke:#181818;stroke-width:0.5;" x1="19" x2="69" y1="1093.5938" y2="1093.5938"/><text fill="#000000" font-family="sans-serif" font-size="14" lengthAdjust="spacing" textLength="4.4502" x="41.7749" y="1085.292">&#160;</text></g><g id="GenerarNuevaVersi&#243;n.MostrarConfirmaci&#243;n"><rect fill="#F1F1F1" height="50" rx="12.5" ry="12.5" style="stroke:#181818;stroke-width:0.5;" width="50" x="217" y="1203.2969"/><line style="stroke:#181818;stroke-width:0.5;" x1="217" x2="267" y1="1229.5938" y2="1229.5938"/><text fill="#000000" font-family="sans-serif" font-size="14" lengthAdjust="spacing" textLength="4.4502" x="239.7749" y="1221.292">&#160;</text></g><g id="GenerarNuevaVersi&#243;n.PermitirCancelaci&#243;n"><rect fill="#F1F1F1" height="50" rx="12.5" ry="12.5" style="stroke:#181818;stroke-width:0.5;" width="50" x="470" y="1135.2969"/><line style="stroke:#181818;stroke-width:0.5;" x1="470" x2="520" y1="1161.5938" y2="1161.5938"/><text fill="#000000" font-family="sans-serif" font-size="14" lengthAdjust="spacing" textLength="4.4502" x="492.7749" y="1153.292">&#160;</text></g><ellipse cx="269" cy="164.2969" fill="#222222" rx="10" ry="10" style="stroke:#222222;stroke-width:1;"/><ellipse cx="365" cy="1301.2969" fill="none" rx="11" ry="11" style="stroke:#222222;stroke-width:1;"/><ellipse cx="365" cy="1301.2969" fill="#222222" rx="6" ry="6" style="stroke:#222222;stroke-width:1;"/><!--link *start*GenerarNuevaVersi?n to SolicitarGeneraci?n--><g id="link_*start*GenerarNuevaVersi&#243;n_SolicitarGeneraci&#243;n"><path d="M269,174.6369 C269,192.8269 269,227.5369 269,253.9069 " fill="none" id="*start*GenerarNuevaVersi&#243;n-to-SolicitarGeneraci&#243;n" style="stroke:#181818;stroke-width:1;"/><polygon fill="#181818" points="269,259.9069,273,250.9069,269,254.9069,265,250.9069,269,259.9069" style="stroke:#181818;stroke-width:1;"/><path d="M274,197.2969 L274,237.2969 L648,237.2969 L648,207.2969 L638,197.2969 L274,197.2969 " fill="#FEFFDD" style="stroke:#181818;stroke-width:0.5;"/><path d="M638,197.2969 L638,207.2969 L648,207.2969 L638,197.2969 " fill="#FEFFDD" style="stroke:#181818;stroke-width:0.5;"/><text fill="#000000" font-family="sans-serif" font-size="13" font-weight="bold" lengthAdjust="spacing" textLength="196.4028" x="280" y="214.3638">T&#233;cnico de Calidad Solicita</text><ellipse cx="285.5" cy="225.0625" fill="#000000" rx="2.5" ry="2.5" style="stroke:#000000;stroke-width:0;"/><text fill="#000000" font-family="sans-serif" font-size="13" lengthAdjust="spacing" textLength="341.2056" x="292" y="229.4966">la creaci&#243;n de una nueva versi&#243;n de la gu&#237;a docente</text></g><!--link SolicitarGeneraci?n to PermitirGeneraci?n--><g id="link_SolicitarGeneraci&#243;n_PermitirGeneraci&#243;n"><path d="M269,310.5669 C269,334.8469 269,365.9869 269,390.2069 " fill="none" id="SolicitarGeneraci&#243;n-to-PermitirGeneraci&#243;n" style="stroke:#181818;stroke-width:1;"/><polygon fill="#181818" points="269,396.2069,273,387.2069,269,391.2069,265,387.2069,269,396.2069" style="stroke:#181818;stroke-width:1;"/><path d="M274,333.2969 L274,373.2969 L521,373.2969 L521,343.2969 L511,333.2969 L274,333.2969 " fill="#FEFFDD" style="stroke:#181818;stroke-width:0.5;"/><path d="M511,333.2969 L511,343.2969 L521,343.2969 L511,333.2969 " fill="#FEFFDD" style="stroke:#181818;stroke-width:0.5;"/><text fill="#000000" font-family="sans-serif" font-size="13" font-weight="bold" lengthAdjust="spacing" textLength="121.2212" x="280" y="350.3638">Sistema Permite</text><ellipse cx="285.5" cy="361.0625" fill="#000000" rx="2.5" ry="2.5" style="stroke:#000000;stroke-width:0;"/><text fill="#000000" font-family="sans-serif" font-size="13" lengthAdjust="spacing" textLength="214.9824" x="292" y="365.4966">la solicitud de una nueva versi&#243;n</text></g><!--link PermitirGeneraci?n to MostrarPlantillas--><g id="link_PermitirGeneraci&#243;n_MostrarPlantillas"><path d="M269,446.5669 C269,470.8469 269,501.9869 269,526.2069 " fill="none" id="PermitirGeneraci&#243;n-to-MostrarPlantillas" style="stroke:#181818;stroke-width:1;"/><polygon fill="#181818" points="269,532.2069,273,523.2069,269,527.2069,265,523.2069,269,532.2069" style="stroke:#181818;stroke-width:1;"/><path d="M274,469.2969 L274,509.2969 L575,509.2969 L575,479.2969 L565,469.2969 L274,469.2969 " fill="#FEFFDD" style="stroke:#181818;stroke-width:0.5;"/><path d="M565,469.2969 L565,479.2969 L575,479.2969 L565,469.2969 " fill="#FEFFDD" style="stroke:#181818;stroke-width:0.5;"/><text fill="#000000" font-family="sans-serif" font-size="13" font-weight="bold" lengthAdjust="spacing" textLength="123.5762" x="280" y="486.3638">Sistema Muestra</text><ellipse cx="285.5" cy="497.0625" fill="#000000" rx="2.5" ry="2.5" style="stroke:#000000;stroke-width:0;"/><text fill="#000000" font-family="sans-serif" font-size="13" lengthAdjust="spacing" textLength="268.0869" x="292" y="501.4966">las plantillas de gu&#237;a docente disponibles</text></g><!--link MostrarPlantillas to SolicitarSelecci?n--><g id="link_MostrarPlantillas_SolicitarSelecci&#243;n"><path d="M269,582.5669 C269,606.8469 269,637.9869 269,662.2069 " fill="none" id="MostrarPlantillas-to-SolicitarSelecci&#243;n" style="stroke:#181818;stroke-width:1;"/><polygon fill="#181818" points="269,668.2069,273,659.2069,269,663.2069,265,659.2069,269,668.2069" style="stroke:#181818;stroke-width:1;"/><path d="M274,605.2969 L274,645.2969 L624,645.2969 L624,615.2969 L614,605.2969 L274,605.2969 " fill="#FEFFDD" style="stroke:#181818;stroke-width:0.5;"/><path d="M614,605.2969 L614,615.2969 L624,615.2969 L614,605.2969 " fill="#FEFFDD" style="stroke:#181818;stroke-width:0.5;"/><text fill="#000000" font-family="sans-serif" font-size="13" font-weight="bold" lengthAdjust="spacing" textLength="196.4028" x="280" y="622.3638">T&#233;cnico de Calidad Solicita</text><ellipse cx="285.5" cy="633.0625" fill="#000000" rx="2.5" ry="2.5" style="stroke:#000000;stroke-width:0;"/><text fill="#000000" font-family="sans-serif" font-size="13" lengthAdjust="spacing" textLength="317.4399" x="292" y="637.4966">introducir la selecci&#243;n de una plantilla espec&#237;fica</text></g><!--link SolicitarSelecci?n to PermitirSelecci?n--><g id="link_SolicitarSelecci&#243;n_PermitirSelecci&#243;n"><path d="M269,718.5669 C269,742.8469 269,773.9869 269,798.2069 " fill="none" id="SolicitarSelecci&#243;n-to-PermitirSelecci&#243;n" style="stroke:#181818;stroke-width:1;"/><polygon fill="#181818" points="269,804.2069,273,795.2069,269,799.2069,265,795.2069,269,804.2069" style="stroke:#181818;stroke-width:1;"/><path d="M274,741.2969 L274,781.2969 L488,781.2969 L488,751.2969 L478,741.2969 L274,741.2969 " fill="#FEFFDD" style="stroke:#181818;stroke-width:0.5;"/><path d="M478,741.2969 L478,751.2969 L488,751.2969 L478,741.2969 " fill="#FEFFDD" style="stroke:#181818;stroke-width:0.5;"/><text fill="#000000" font-family="sans-serif" font-size="13" font-weight="bold" lengthAdjust="spacing" textLength="121.2212" x="280" y="758.3638">Sistema Permite</text><ellipse cx="285.5" cy="769.0625" fill="#000000" rx="2.5" ry="2.5" style="stroke:#000000;stroke-width:0;"/><text fill="#000000" font-family="sans-serif" font-size="13" lengthAdjust="spacing" textLength="181.251" x="292" y="773.4966">la selecci&#243;n de una plantilla</text></g><!--link PermitirSelecci?n to ValidarSelecci?n--><g id="link_PermitirSelecci&#243;n_ValidarSelecci&#243;n"><path d="M269,854.4969 C269,880.5569 269,914.9069 269,934.2369 " fill="none" id="PermitirSelecci&#243;n-to-ValidarSelecci&#243;n" style="stroke:#181818;stroke-width:1;"/><polygon fill="#181818" points="269,940.2369,273,931.2369,269,935.2369,265,931.2369,269,940.2369" style="stroke:#181818;stroke-width:1;"/><path d="M274,877.2969 L274,917.2969 L540,917.2969 L540,887.2969 L530,877.2969 L274,877.2969 " fill="#FEFFDD" style="stroke:#181818;stroke-width:0.5;"/><path d="M530,877.2969 L530,887.2969 L540,887.2969 L530,877.2969 " fill="#FEFFDD" style="stroke:#181818;stroke-width:0.5;"/><text fill="#000000" font-family="sans-serif" font-size="13" font-weight="bold" lengthAdjust="spacing" textLength="109.2559" x="280" y="894.3638">Sistema Valida</text><ellipse cx="285.5" cy="905.0625" fill="#000000" rx="2.5" ry="2.5" style="stroke:#000000;stroke-width:0;"/><text fill="#000000" font-family="sans-serif" font-size="13" lengthAdjust="spacing" textLength="233.1304" x="292" y="909.4966">si la plantilla seleccionada es v&#225;lida</text></g><!--link ValidarSelecci?n to PermitirCreaci?n--><g id="link_ValidarSelecci&#243;n_PermitirCreaci&#243;n"><path d="M257.37,952.8769 C215.11,951.6169 70.62,949.7969 42,982.2969 C21.86,1005.1669 26.1542,1036.6315 33.3642,1061.1015 " fill="none" id="ValidarSelecci&#243;n-to-PermitirCreaci&#243;n" style="stroke:#181818;stroke-width:1;"/><polygon fill="#181818" points="35.06,1066.8569,36.3532,1057.0933,33.6468,1062.0607,28.6794,1059.3544,35.06,1066.8569" style="stroke:#181818;stroke-width:1;"/><text fill="#000000" font-family="sans-serif" font-size="13" lengthAdjust="spacing" textLength="94.7896" x="211.759" y="995.3638">Plantilla v&#225;lida</text><path d="M47,1004.4297 L47,1044.4297 L471,1044.4297 L471,1014.4297 L461,1004.4297 L47,1004.4297 " fill="#FEFFDD" style="stroke:#181818;stroke-width:0.5;"/><path d="M461,1004.4297 L461,1014.4297 L471,1014.4297 L461,1004.4297 " fill="#FEFFDD" style="stroke:#181818;stroke-width:0.5;"/><text fill="#000000" font-family="sans-serif" font-size="13" font-weight="bold" lengthAdjust="spacing" textLength="121.2212" x="53" y="1021.4966">Sistema Permite</text><ellipse cx="58.5" cy="1032.1953" fill="#000000" rx="2.5" ry="2.5" style="stroke:#000000;stroke-width:0;"/><text fill="#000000" font-family="sans-serif" font-size="13" lengthAdjust="spacing" textLength="391.3076" x="65" y="1036.6294">la creaci&#243;n de la nueva versi&#243;n con la plantilla seleccionada</text></g><!--link PermitirCreaci?n to MostrarConfirmaci?n--><g id="link_PermitirCreaci&#243;n_MostrarConfirmaci&#243;n"><path d="M40.78,1117.6069 C39.48,1138.2469 41.28,1167.3069 58,1185.2969 C79.36,1208.2769 165.7514,1219.764 210.9414,1224.404 " fill="none" id="PermitirCreaci&#243;n-to-MostrarConfirmaci&#243;n" style="stroke:#181818;stroke-width:1;"/><polygon fill="#181818" points="216.91,1225.0169,208.3656,1220.1185,211.9362,1224.5062,207.5485,1228.0767,216.91,1225.0169" style="stroke:#181818;stroke-width:1;"/><path d="M63,1140.2969 L63,1180.2969 L456,1180.2969 L456,1150.2969 L446,1140.2969 L63,1140.2969 " fill="#FEFFDD" style="stroke:#181818;stroke-width:0.5;"/><path d="M446,1140.2969 L446,1150.2969 L456,1150.2969 L446,1140.2969 " fill="#FEFFDD" style="stroke:#181818;stroke-width:0.5;"/><text fill="#000000" font-family="sans-serif" font-size="13" font-weight="bold" lengthAdjust="spacing" textLength="123.5762" x="69" y="1157.3638">Sistema Muestra</text><ellipse cx="74.5" cy="1168.0625" fill="#000000" rx="2.5" ry="2.5" style="stroke:#000000;stroke-width:0;"/><text fill="#000000" font-family="sans-serif" font-size="13" lengthAdjust="spacing" textLength="360.7627" x="81" y="1172.4966">la confirmaci&#243;n de que la nueva versi&#243;n ha sido creada</text></g><!--link ValidarSelecci?n to PermitirCancelaci?n--><g id="link_ValidarSelecci&#243;n_PermitirCancelaci&#243;n"><path d="M280.31,953.1369 C319.52,952.8469 448.67,954.0769 476,982.2969 C515.66,1023.2569 509.1707,1091.2263 501.8007,1129.2863 " fill="none" id="ValidarSelecci&#243;n-to-PermitirCancelaci&#243;n" style="stroke:#181818;stroke-width:1;"/><polygon fill="#181818" points="500.66,1135.1769,506.298,1127.1015,501.6106,1130.2681,498.4439,1125.5806,500.66,1135.1769" style="stroke:#181818;stroke-width:1;"/><text fill="#000000" font-family="sans-serif" font-size="13" lengthAdjust="spacing" textLength="57.3511" x="666.3799" y="995.3638">Cancelar</text><path d="M509,1004.4297 L509,1044.4297 L881,1044.4297 L881,1014.4297 L871,1004.4297 L509,1004.4297 " fill="#FEFFDD" style="stroke:#181818;stroke-width:0.5;"/><path d="M871,1004.4297 L871,1014.4297 L881,1014.4297 L871,1004.4297 " fill="#FEFFDD" style="stroke:#181818;stroke-width:0.5;"/><text fill="#000000" font-family="sans-serif" font-size="13" font-weight="bold" lengthAdjust="spacing" textLength="196.4028" x="515" y="1021.4966">T&#233;cnico de Calidad Solicita</text><ellipse cx="520.5" cy="1032.1953" fill="#000000" rx="2.5" ry="2.5" style="stroke:#000000;stroke-width:0;"/><text fill="#000000" font-family="sans-serif" font-size="13" lengthAdjust="spacing" textLength="339.1108" x="527" y="1036.6294">cancelar la operaci&#243;n antes de confirmar la plantilla</text></g><!--link PermitirCancelaci?n to *end*GenerarNuevaVersi?n--><g id="link_PermitirCancelaci&#243;n_*end*GenerarNuevaVersi&#243;n"><path d="M472.36,1185.5069 C442.38,1217.5569 395.228,1267.9744 376.358,1288.1544 " fill="none" id="PermitirCancelaci&#243;n-to-*end*GenerarNuevaVersi&#243;n" style="stroke:#181818;stroke-width:1;"/><polygon fill="#181818" points="372.26,1292.5369,381.3287,1288.6951,375.675,1288.8848,375.4853,1283.2311,372.26,1292.5369" style="stroke:#181818;stroke-width:1;"/><path d="M459,1208.2969 L459,1248.2969 L796,1248.2969 L796,1218.2969 L786,1208.2969 L459,1208.2969 " fill="#FEFFDD" style="stroke:#181818;stroke-width:0.5;"/><path d="M786,1208.2969 L786,1218.2969 L796,1218.2969 L786,1208.2969 " fill="#FEFFDD" style="stroke:#181818;stroke-width:0.5;"/><text fill="#000000" font-family="sans-serif" font-size="13" font-weight="bold" lengthAdjust="spacing" textLength="121.8433" x="465" y="1225.3638">Sistema Retorna</text><ellipse cx="470.5" cy="1236.0625" fill="#000000" rx="2.5" ry="2.5" style="stroke:#000000;stroke-width:0;"/><text fill="#000000" font-family="sans-serif" font-size="13" lengthAdjust="spacing" textLength="304.3066" x="477" y="1240.4966">al estado inicial sin generar una nueva versi&#243;n</text></g><!--link MostrarConfirmaci?n to *end*GenerarNuevaVersi?n--><g id="link_MostrarConfirmaci&#243;n_*end*GenerarNuevaVersi&#243;n"><path d="M267.19,1243.8369 C294.6,1259.6569 331.8041,1281.1364 350.4541,1291.9064 " fill="none" id="MostrarConfirmaci&#243;n-to-*end*GenerarNuevaVersi&#243;n" style="stroke:#181818;stroke-width:1;"/><polygon fill="#181818" points="355.65,1294.9069,349.8565,1286.9422,351.3201,1292.4065,345.8559,1293.87,355.65,1294.9069" style="stroke:#181818;stroke-width:1;"/></g><g id="ListadoGu&#237;as"><rect fill="#F1F1F1" height="50" rx="12.5" ry="12.5" style="stroke:#181818;stroke-width:0.5;" width="109.9883" x="393.5" y="7"/><line style="stroke:#181818;stroke-width:0.5;" x1="393.5" x2="503.4883" y1="33.2969" y2="33.2969"/><text fill="#000000" font-family="sans-serif" font-size="14" lengthAdjust="spacing" textLength="89.9883" x="403.5" y="24.9951">ListadoGu&#237;as</text></g><!--reverse link GenerarNuevaVersi?n to ListadoGu?as--><g id="link_GenerarNuevaVersi&#243;n_ListadoGu&#237;as"><path d="M457.4596,110.8757 C456.3896,86.2457 455.39,71.89 453.92,57.4 " fill="none" id="GenerarNuevaVersi&#243;n-backto-ListadoGu&#237;as" style="stroke:#181818;stroke-width:1;"/><polygon fill="#181818" points="457.72,116.87,461.3256,107.7049,457.503,111.8747,453.3332,108.0521,457.72,116.87" style="stroke:#181818;stroke-width:1;"/></g><!--reverse link ListadoGu?as to GenerarNuevaVersi?n--><g id="link_ListadoGu&#237;as_GenerarNuevaVersi&#243;n"><path d="M442.8071,63.3726 C441.4171,77.8626 440.8,92.24 439.79,116.87 " fill="none" id="ListadoGu&#237;as-backto-GenerarNuevaVersi&#243;n" style="stroke:#181818;stroke-width:1;"/><polygon fill="#181818" points="443.38,57.4,438.5389,65.9769,442.9026,62.3772,446.5023,66.7408,443.38,57.4" style="stroke:#181818;stroke-width:1;"/></g><!--SRC=[fPQzRjim4CTtFSKXOm2ZUs1uyP0bAOAwo19qeCbBSYXDggJa9UZ3TEoGgO-W5-kHaYMgegKqyIRhUFUx_trGD-GheUnrtRmA3wkwN6tW6WqwuJxNU1Jtw3mrVqnHi5s5sNVmKW3_MeETrIIf4gwrbD60NL_0HM9rX-v05SqRtLfVSQmxBKn5MlFxYKaVROSQvKAmEPjxeKcDtApNyjcInCqcushhS85wQyqZkSEI05jX9EgnLJHxkFm6Aov6JizeO2oxiGOqcU_nZ_L-yxNvBGr92mfX6pDIlOFrftsRoILe0R9FW4rh8y24YiBnL5B-bwsUGbk0iX8D1ukdqQWOkgNCLZjWPmfybdh7FOW7qPt1CQXl8zGg3vfXolLMG9gqqoBGROtXo0Z8Gpdq8oED9LBaIsjehz5doAODFQhmq7mVBJ2PobbLIt9Hmg6fEmtx501zYR9vVIGfvigRp4LQtJSGpnVtFDbCOV-1cOpk8ajx8a7n56W6LJekQuGA4i6n-HLEP9YcUoFLPrWJLz1NVUJjloKR3QwUpAqCliwbCgFfG9gCocY7lMjQ0a-o1XdvHvt3VcPGKZPcznwTqorw1TsZ- -WOoSvF0BRbS57nfCVPFoNdHfBFgPnoXWHuoo_g-WKhwqpA9JGtPRYsUT2PcHyz6NXgh-QtBSdiBNKY-baKsNk-_JouIJyP_W80]--></g></svg>