<svg xmlns="http://www.w3.org/2000/svg" xmlns:xlink="http://www.w3.org/1999/xlink" contentStyleType="text/css" height="851px" preserveAspectRatio="none" style="width:1504px;height:851px;background:#FFFFFF;" version="1.1" viewBox="0 0 1504 851" width="1504px" zoomAndPan="magnify"><title>Generar Nueva Versi&#243;n de la Gu&#237;a</title><defs/><g><text fill="#000000" font-family="sans-serif" font-size="14" font-weight="bold" lengthAdjust="spacing" textLength="267.2441" x="611.3896" y="22.9951">Generar Nueva Versi&#243;n de la Gu&#237;a</text><g id="INICIO"><rect fill="#F1F1F1" height="50" rx="12.5" ry="12.5" style="stroke:#181818;stroke-width:0.5;" width="63.6543" x="278.17" y="44.2969"/><line style="stroke:#181818;stroke-width:0.5;" x1="278.17" x2="341.8243" y1="70.5938" y2="70.5938"/><text fill="#000000" font-family="sans-serif" font-size="14" lengthAdjust="spacing" textLength="43.6543" x="288.17" y="62.292">INICIO</text></g><g id="Estado1"><rect fill="#F1F1F1" height="50" rx="12.5" ry="12.5" style="stroke:#181818;stroke-width:0.5;" width="50" x="285" y="171.2969"/><line style="stroke:#181818;stroke-width:0.5;" x1="285" x2="335" y1="197.5938" y2="197.5938"/><text fill="#000000" font-family="sans-serif" font-size="14" lengthAdjust="spacing" textLength="4.4502" x="307.7749" y="189.292">&#160;</text></g><g id="Estado2"><rect fill="#F1F1F1" height="50" rx="12.5" ry="12.5" style="stroke:#181818;stroke-width:0.5;" width="50" x="285" y="298.2969"/><line style="stroke:#181818;stroke-width:0.5;" x1="285" x2="335" y1="324.5938" y2="324.5938"/><text fill="#000000" font-family="sans-serif" font-size="14" lengthAdjust="spacing" textLength="4.4502" x="307.7749" y="316.292">&#160;</text></g><g id="Estado3"><rect fill="#F1F1F1" height="50" rx="12.5" ry="12.5" style="stroke:#181818;stroke-width:0.5;" width="50" x="61" y="541.2969"/><line style="stroke:#181818;stroke-width:0.5;" x1="61" x2="111" y1="567.5938" y2="567.5938"/><text fill="#000000" font-family="sans-serif" font-size="14" lengthAdjust="spacing" textLength="4.4502" x="83.7749" y="559.292">&#160;</text></g><g id="Estado4"><rect fill="#F1F1F1" height="50" rx="12.5" ry="12.5" style="stroke:#181818;stroke-width:0.5;" width="50" x="7" y="668.2969"/><line style="stroke:#181818;stroke-width:0.5;" x1="7" x2="57" y1="694.5938" y2="694.5938"/><text fill="#000000" font-family="sans-serif" font-size="14" lengthAdjust="spacing" textLength="4.4502" x="29.7749" y="686.292">&#160;</text></g><g id="FINAL"><rect fill="#F1F1F1" height="50" rx="12.5" ry="12.5" style="stroke:#181818;stroke-width:0.5;" width="60.0313" x="232.98" y="795.2969"/><line style="stroke:#181818;stroke-width:0.5;" x1="232.98" x2="293.0113" y1="821.5938" y2="821.5938"/><text fill="#000000" font-family="sans-serif" font-size="14" lengthAdjust="spacing" textLength="40.0313" x="242.98" y="813.292">FINAL</text></g><g id="elem_Condicion1"><polygon fill="#F1F1F1" points="310,425.2969,322,437.2969,310,449.2969,298,437.2969,310,425.2969" style="stroke:#181818;stroke-width:0.5;"/></g><!--link INICIO to Estado1--><g id="link_INICIO_Estado1"><path d="M310,94.6969 C310,116.7169 310,142.9569 310,164.9569 " fill="none" id="INICIO-to-Estado1" style="stroke:#181818;stroke-width:1;"/><polygon fill="#181818" points="310,170.9569,314,161.9569,310,165.9569,306,161.9569,310,170.9569" style="stroke:#181818;stroke-width:1;"/><text fill="#000000" font-family="sans-serif" font-size="13" lengthAdjust="spacing" textLength="479.3115" x="311" y="137.3638">El T&#233;cnico de Calidad accede al sistema de gesti&#243;n de versiones de gu&#237;as</text></g><!--link Estado1 to Estado2--><g id="link_Estado1_Estado2"><path d="M310,221.6969 C310,243.7169 310,269.9569 310,291.9569 " fill="none" id="Estado1-to-Estado2" style="stroke:#181818;stroke-width:1;"/><polygon fill="#181818" points="310,297.9569,314,288.9569,310,292.9569,306,288.9569,310,297.9569" style="stroke:#181818;stroke-width:1;"/><text fill="#000000" font-family="sans-serif" font-size="13" lengthAdjust="spacing" textLength="460.4082" x="311" y="264.3638">El sistema muestra la lista de gu&#237;as con opci&#243;n de crear nueva versi&#243;n</text></g><!--link Estado2 to Condicion1--><g id="link_Estado2_Condicion1"><path d="M310,348.5969 C310,372.1469 310,400.8469 310,418.7169 " fill="none" id="Estado2-to-Condicion1" style="stroke:#181818;stroke-width:1;"/><polygon fill="#181818" points="310,424.7169,314,415.7169,310,419.7169,306,415.7169,310,424.7169" style="stroke:#181818;stroke-width:1;"/><text fill="#000000" font-family="sans-serif" font-size="13" lengthAdjust="spacing" textLength="514.2046" x="311" y="391.3638">El T&#233;cnico de Calidad selecciona una gu&#237;a y solicita generar una nueva versi&#243;n</text></g><!--link Condicion1 to Estado3--><g id="link_Condicion1_Estado3"><path d="M300.12,439.9969 C277.84,444.1269 222.49,456.0969 182,479.2969 C153.26,495.7569 129.7987,517.5732 111.6287,536.7332 " fill="none" id="Condicion1-to-Estado3" style="stroke:#181818;stroke-width:1;"/><polygon fill="#181818" points="107.5,541.0869,116.5954,537.3089,110.9406,537.4589,110.7906,531.804,107.5,541.0869" style="stroke:#181818;stroke-width:1;"/><text fill="#000000" font-family="sans-serif" font-size="13" lengthAdjust="spacing" textLength="292.3159" x="183" y="492.3638">El sistema crea una nueva versi&#243;n de la gu&#237;a</text><text fill="#000000" font-family="sans-serif" font-size="13" lengthAdjust="spacing" textLength="216.5503" x="220.8828" y="507.4966">basada en el contenido existente</text></g><!--link Estado3 to Estado4--><g id="link_Estado3_Estado4"><path d="M66.47,591.7169 C60.13,600.6069 53.57,611.0169 49,621.2969 C42.42,636.1269 39.2666,647.9779 36.6566,662.0179 " fill="none" id="Estado3-to-Estado4" style="stroke:#181818;stroke-width:1;"/><polygon fill="#181818" points="35.56,667.9169,41.1375,659.7995,36.4738,663.0011,33.2723,658.3374,35.56,667.9169" style="stroke:#181818;stroke-width:1;"/><text fill="#000000" font-family="sans-serif" font-size="13" lengthAdjust="spacing" textLength="408.2432" x="50" y="634.3638">El T&#233;cnico de Calidad confirma la creaci&#243;n de la nueva versi&#243;n</text></g><!--link Estado4 to FINAL--><g id="link_Estado4_FINAL"><path d="M20.13,718.7669 C14.76,733.7169 11.65,752.3769 22,765.2969 C48.13,797.9269 168.3012,811.6732 226.9412,816.6132 " fill="none" id="Estado4-to-FINAL" style="stroke:#181818;stroke-width:1;"/><polygon fill="#181818" points="232.92,817.1169,224.2875,812.3755,227.9376,816.6971,223.616,820.3472,232.92,817.1169" style="stroke:#181818;stroke-width:1;"/><text fill="#000000" font-family="sans-serif" font-size="13" lengthAdjust="spacing" textLength="452.3975" x="23" y="761.3638">El sistema guarda la nueva versi&#243;n y la marca como la versi&#243;n activa</text></g><!--link Condicion1 to FINAL--><g id="link_Condicion1_FINAL"><path d="M320.6,439.1869 C354.61,442.2769 459.9,453.7769 480,479.2969 C558.64,579.1569 558.28,665.1469 480,765.2969 C457.17,794.5069 353.5725,809.5175 299.4125,815.5975 " fill="none" id="Condicion1-to-FINAL" style="stroke:#181818;stroke-width:1;"/><polygon fill="#181818" points="293.45,816.2669,302.8401,819.2379,298.4188,815.7091,301.9476,811.2878,293.45,816.2669" style="stroke:#181818;stroke-width:1;"/><text fill="#000000" font-family="sans-serif" font-size="13" lengthAdjust="spacing" textLength="957.0234" x="539" y="634.3638">Si ocurre un error durante la generaci&#243;n de la nueva versi&#243;n, el sistema notifica al T&#233;cnico de Calidad y permite reintentar o cancelar la operaci&#243;n</text></g><!--SRC=[TLBDJiCm3BxtAIpEx03R2KsJq0HJ9JGE84vSZEEDI6ay9Ud47ea39nvXBuRJBMomJbMbsgw_loJPv1Xcx3bWW7dBQuGN3j5klpqO1eSmQxTVM5KnOMAev_MqVjmN5_fWX3kjZ5prDQ_xciE-vgWmtDVpsuTIJCKRIrRy5Op7z2wMU3Afgced0mQ3IM676xXpyBpz96z9ilGfEclG01AnbkWWsfYumJnSSap5uphx5S-n6sItiIge1uRh7KF1Q5f529W3Sjh2mowGU90L5NWAhD7wBjhrFjggAg2PuCZbMHUH7LF-1w7LjwE23KHnkgdqo_qHvk5_hYFyWv_XNpzPPS_o_WvqTA_-3ICQ1FR0BjjCxAqHu8yCebMnDJpY6Pttf0WB6veknCnFHup_F1IiZDlTaB_gboq6WwTxcf3s6Woa3D98hdvdICckyIIU0lzaGQWDWJKMu10aW6a3giqkaIxlyuelSqH5dfTa5rOrO7yG6rXnQAmY1xOvrQGdAK3eYPr-Ahgi2jqF]--></g></svg>