<svg xmlns="http://www.w3.org/2000/svg" xmlns:xlink="http://www.w3.org/1999/xlink" contentStyleType="text/css" height="876px" preserveAspectRatio="none" style="width:807px;height:876px;background:#FFFFFF;" version="1.1" viewBox="0 0 807 876" width="807px" zoomAndPan="magnify"><defs/><g><rect fill="#F1F1F1" height="40" rx="12.5" ry="12.5" style="stroke:#181818;stroke-width:0.5;" width="63.2041" x="369" y="7"/><text fill="#000000" font-family="sans-serif" font-size="14" lengthAdjust="spacing" textLength="53.2041" x="374" y="31.8467">Usuario</text><path d="M19.5,107 L781.35,107 A12.5,12.5 0 0 1 793.85,119.5 L793.85,133.2969 L7,133.2969 L7,119.5 A12.5,12.5 0 0 1 19.5,107 " fill="#F1F1F1" style="stroke:#F1F1F1;stroke-width:1;"/><rect fill="none" height="763.2969" rx="12.5" ry="12.5" style="stroke:#181818;stroke-width:0.5;" width="786.85" x="7" y="107"/><line style="stroke:#181818;stroke-width:0.5;" x1="7" x2="793.85" y1="133.2969" y2="133.2969"/><text fill="#000000" font-family="sans-serif" font-size="14" lengthAdjust="spacing" textLength="88.9355" x="355.9572" y="124.9951">IniciarSesion</text><rect fill="#F1F1F1" height="40" rx="12.5" ry="12.5" style="stroke:#181818;stroke-width:0.5;" width="50" x="370.85" y="250.2969"/><text fill="#000000" font-family="sans-serif" font-size="14" lengthAdjust="spacing" textLength="4.4502" x="393.6249" y="275.1436">&#160;</text><rect fill="#F1F1F1" height="40" rx="12.5" ry="12.5" style="stroke:#181818;stroke-width:0.5;" width="50" x="370.85" y="406.2969"/><text fill="#000000" font-family="sans-serif" font-size="14" lengthAdjust="spacing" textLength="4.4502" x="393.6249" y="431.1436">&#160;</text><g id="elem_ValidarCredenciales"><polygon fill="#F1F1F1" points="252.85,545.2969,264.85,557.2969,252.85,569.2969,240.85,557.2969,252.85,545.2969" style="stroke:#181818;stroke-width:0.5;"/></g><rect fill="#F1F1F1" height="40" rx="12.5" ry="12.5" style="stroke:#181818;stroke-width:0.5;" width="50" x="32.85" y="761.2969"/><text fill="#000000" font-family="sans-serif" font-size="14" lengthAdjust="spacing" textLength="4.4502" x="55.6249" y="786.1436">&#160;</text><rect fill="#F1F1F1" height="40" rx="12.5" ry="12.5" style="stroke:#181818;stroke-width:0.5;" width="50" x="369.85" y="761.2969"/><text fill="#000000" font-family="sans-serif" font-size="14" lengthAdjust="spacing" textLength="4.4502" x="392.6249" y="786.1436">&#160;</text><ellipse cx="395.85" cy="154.2969" fill="#222222" rx="10" ry="10" style="stroke:#222222;stroke-width:1;"/><ellipse cx="57.85" cy="849.2969" fill="none" rx="11" ry="11" style="stroke:#222222;stroke-width:1;"/><ellipse cx="57.85" cy="849.2969" fill="#222222" rx="6" ry="6" style="stroke:#222222;stroke-width:1;"/><!--link *start*IniciarSesion to SolicitarInicio--><g id="link_*start*IniciarSesion_SolicitarInicio"><path d="M395.85,164.6269 C395.85,183.2369 395.85,219.3169 395.85,244.0769 " fill="none" id="*start*IniciarSesion-to-SolicitarInicio" style="stroke:#181818;stroke-width:1;"/><polygon fill="#181818" points="395.85,250.0769,399.85,241.0769,395.85,245.0769,391.85,241.0769,395.85,250.0769" style="stroke:#181818;stroke-width:1;"/><path d="M400.85,187.2969 L400.85,227.2969 L609.85,227.2969 L609.85,197.2969 L599.85,187.2969 L400.85,187.2969 " fill="#FEFFDD" style="stroke:#181818;stroke-width:0.5;"/><path d="M599.85,187.2969 L599.85,197.2969 L609.85,197.2969 L599.85,187.2969 " fill="#FEFFDD" style="stroke:#181818;stroke-width:0.5;"/><text fill="#000000" font-family="sans-serif" font-size="13" font-weight="bold" lengthAdjust="spacing" textLength="115.0005" x="406.85" y="204.3638">Usuario Solicita</text><ellipse cx="412.35" cy="215.0625" fill="#000000" rx="2.5" ry="2.5" style="stroke:#000000;stroke-width:0;"/><text fill="#000000" font-family="sans-serif" font-size="13" lengthAdjust="spacing" textLength="176.1411" x="418.85" y="219.4966">iniciar sesi&#243;n en el sistema</text></g><!--link SolicitarInicio to MostrarFormulario--><g id="link_SolicitarInicio_MostrarFormulario"><path d="M395.85,290.4869 C395.85,319.9969 395.85,370.2069 395.85,399.8669 " fill="none" id="SolicitarInicio-to-MostrarFormulario" style="stroke:#008000;stroke-width:1;"/><polygon fill="#008000" points="395.85,405.8669,399.85,396.8669,395.85,400.8669,391.85,396.8669,395.85,405.8669" style="stroke:#008000;stroke-width:1;"/><path d="M400.85,313.2969 L400.85,383.2969 L577.85,383.2969 L577.85,323.2969 L567.85,313.2969 L400.85,313.2969 " fill="#FEFFDD" style="stroke:#181818;stroke-width:0.5;"/><path d="M567.85,313.2969 L567.85,323.2969 L577.85,323.2969 L567.85,313.2969 " fill="#FEFFDD" style="stroke:#181818;stroke-width:0.5;"/><text fill="#000000" font-family="sans-serif" font-size="13" font-weight="bold" lengthAdjust="spacing" textLength="121.2212" x="406.85" y="330.3638">Sistema Permite</text><ellipse cx="412.35" cy="341.0625" fill="#000000" rx="2.5" ry="2.5" style="stroke:#000000;stroke-width:0;"/><text fill="#000000" font-family="sans-serif" font-size="13" lengthAdjust="spacing" textLength="144.1299" x="418.85" y="345.4966">ingresar credenciales:</text><text fill="#000000" font-family="sans-serif" font-size="13" lengthAdjust="spacing" textLength="136.0493" x="406.85" y="360.6294">- Correo Institucional</text><text fill="#000000" font-family="sans-serif" font-size="13" lengthAdjust="spacing" textLength="83.478" x="406.85" y="375.7622">- Contrase&#241;a</text></g><!--link MostrarFormulario to ValidarCredenciales--><g id="link_MostrarFormulario_ValidarCredenciales"><path d="M370.84,428.7569 C344.9,431.5969 304.83,439.9369 280.85,464.2969 C258.71,486.7869 254.2982,520.2243 253.3482,539.3143 " fill="none" id="MostrarFormulario-to-ValidarCredenciales" style="stroke:#008000;stroke-width:1;"/><polygon fill="#008000" points="253.05,545.3069,257.4924,536.5168,253.2985,540.3131,249.5023,536.1192,253.05,545.3069" style="stroke:#008000;stroke-width:1;"/><path d="M285.85,469.2969 L285.85,509.2969 L518.85,509.2969 L518.85,479.2969 L508.85,469.2969 L285.85,469.2969 " fill="#FEFFDD" style="stroke:#181818;stroke-width:0.5;"/><path d="M508.85,469.2969 L508.85,479.2969 L518.85,479.2969 L508.85,469.2969 " fill="#FEFFDD" style="stroke:#181818;stroke-width:0.5;"/><text fill="#000000" font-family="sans-serif" font-size="13" font-weight="bold" lengthAdjust="spacing" textLength="115.0005" x="291.85" y="486.3638">Usuario Solicita</text><ellipse cx="297.35" cy="497.0625" fill="#000000" rx="2.5" ry="2.5" style="stroke:#000000;stroke-width:0;"/><text fill="#000000" font-family="sans-serif" font-size="13" lengthAdjust="spacing" textLength="200.1543" x="303.85" y="501.4966">ingresar y validar credenciales</text></g><!--link ValidarCredenciales to AccesoConcedido--><g id="link_ValidarCredenciales_AccesoConcedido"><path d="M242.19,558.8669 C204.67,561.1369 79.72,570.8069 55.85,600.2969 C18,647.0569 36.2592,719.6029 48.6092,755.5229 " fill="none" id="ValidarCredenciales-to-AccesoConcedido" style="stroke:#181818;stroke-width:1;"/><polygon fill="#181818" points="50.56,761.1969,51.4164,751.3853,48.9343,756.4685,43.8511,753.9864,50.56,761.1969" style="stroke:#181818;stroke-width:1;"/><text fill="#000000" font-family="sans-serif" font-size="13" lengthAdjust="spacing" textLength="150.8521" x="66.8161" y="613.3638">Credenciales Correctas</text><path d="M60.85,622.4297 L60.85,737.4297 L222.85,737.4297 L222.85,632.4297 L212.85,622.4297 L60.85,622.4297 " fill="#FEFFDD" style="stroke:#181818;stroke-width:0.5;"/><path d="M212.85,622.4297 L212.85,632.4297 L222.85,632.4297 L212.85,622.4297 " fill="#FEFFDD" style="stroke:#181818;stroke-width:0.5;"/><text fill="#000000" font-family="sans-serif" font-size="13" font-weight="bold" lengthAdjust="spacing" textLength="121.2212" x="66.85" y="639.4966">Sistema Permite</text><ellipse cx="72.35" cy="650.1953" fill="#000000" rx="2.5" ry="2.5" style="stroke:#000000;stroke-width:0;"/><text fill="#000000" font-family="sans-serif" font-size="13" lengthAdjust="spacing" textLength="129.7842" x="78.85" y="654.6294">acceso seg&#250;n el rol:</text><text fill="#000000" font-family="sans-serif" font-size="13" lengthAdjust="spacing" textLength="87.6421" x="66.85" y="669.7622">- Superadmin</text><text fill="#000000" font-family="sans-serif" font-size="13" lengthAdjust="spacing" textLength="132.1138" x="66.85" y="684.895">- T&#233;cnico de Calidad</text><text fill="#000000" font-family="sans-serif" font-size="13" lengthAdjust="spacing" textLength="62.6069" x="66.85" y="700.0278">- Profesor</text><text fill="#000000" font-family="sans-serif" font-size="13" lengthAdjust="spacing" textLength="125.436" x="66.85" y="715.1606">- Director de Grado</text><text fill="#000000" font-family="sans-serif" font-size="13" lengthAdjust="spacing" textLength="134.583" x="66.85" y="730.2935">- Director de Calidad</text></g><!--link ValidarCredenciales to AccesoDenegado--><g id="link_ValidarCredenciales_AccesoDenegado"><path d="M249.8,566.4169 C239.85,594.4669 211.33,688.4769 253.85,743.2969 C267.93,761.4469 326.9723,771.6661 363.6023,776.5361 " fill="none" id="ValidarCredenciales-to-AccesoDenegado" style="stroke:#181818;stroke-width:1;"/><polygon fill="#181818" points="369.55,777.3269,361.1557,772.1756,364.5936,776.6679,360.1013,780.1059,369.55,777.3269" style="stroke:#181818;stroke-width:1;"/><text fill="#000000" font-family="sans-serif" font-size="13" lengthAdjust="spacing" textLength="160.9956" x="308.3769" y="651.3638">Credenciales Incorrectas</text><path d="M258.85,660.4297 L258.85,700.4297 L518.85,700.4297 L518.85,670.4297 L508.85,660.4297 L258.85,660.4297 " fill="#FEFFDD" style="stroke:#181818;stroke-width:0.5;"/><path d="M508.85,660.4297 L508.85,670.4297 L518.85,670.4297 L508.85,660.4297 " fill="#FEFFDD" style="stroke:#181818;stroke-width:0.5;"/><text fill="#000000" font-family="sans-serif" font-size="13" font-weight="bold" lengthAdjust="spacing" textLength="120.5039" x="264.85" y="677.4966">Sistema Notifica</text><ellipse cx="270.35" cy="688.1953" fill="#000000" rx="2.5" ry="2.5" style="stroke:#000000;stroke-width:0;"/><text fill="#000000" font-family="sans-serif" font-size="13" lengthAdjust="spacing" textLength="227.0493" x="276.85" y="692.6294">"Usuario o contrase&#241;a incorrectos"</text></g><!--link AccesoDenegado to MostrarFormulario--><g id="link_AccesoDenegado_MostrarFormulario"><path d="M420,776.6969 C453.88,771.2769 511.37,759.8569 523.85,743.2969 C598.47,644.2669 598.37,563.4069 523.85,464.2969 C500.08,432.6769 456.9494,426.8829 426.9494,426.4529 " fill="none" id="AccesoDenegado-to-MostrarFormulario" style="stroke:#FF0000;stroke-width:1;"/><polygon fill="#FF0000" points="420.95,426.3669,429.8917,430.4955,425.9495,426.4385,430.0064,422.4963,420.95,426.3669" style="stroke:#FF0000;stroke-width:1;"/><path d="M582.85,537.2969 L582.85,577.2969 L784.85,577.2969 L784.85,547.2969 L774.85,537.2969 L582.85,537.2969 " fill="#FEFFDD" style="stroke:#181818;stroke-width:0.5;"/><path d="M774.85,537.2969 L774.85,547.2969 L784.85,547.2969 L774.85,537.2969 " fill="#FEFFDD" style="stroke:#181818;stroke-width:0.5;"/><text fill="#000000" font-family="sans-serif" font-size="13" font-weight="bold" lengthAdjust="spacing" textLength="115.0005" x="588.85" y="554.3638">Usuario Solicita</text><ellipse cx="594.35" cy="565.0625" fill="#000000" rx="2.5" ry="2.5" style="stroke:#000000;stroke-width:0;"/><text fill="#000000" font-family="sans-serif" font-size="13" lengthAdjust="spacing" textLength="169.1079" x="600.85" y="569.4966">reintentar inicio de sesi&#243;n</text></g><!--link AccesoConcedido to *end*IniciarSesion--><g id="link_AccesoConcedido_*end*IniciarSesion"><path d="M57.85,801.3869 C57.85,813.4169 57.85,822.4669 57.85,832.2269 " fill="none" id="AccesoConcedido-to-*end*IniciarSesion" style="stroke:#181818;stroke-width:1;"/><polygon fill="#181818" points="57.85,838.2269,61.85,829.2269,57.85,833.2269,53.85,829.2269,57.85,838.2269" style="stroke:#181818;stroke-width:1;"/></g><!--link Usuario to IniciarSesion--><g id="link_Usuario_IniciarSesion"><path d="M400.5,47.16 C400.5,61.09 400.5,75.85 400.5,100.9 " fill="none" id="Usuario-to-IniciarSesion" style="stroke:#181818;stroke-width:1;"/><polygon fill="#181818" points="400.5,106.9,404.5,97.9,400.5,101.9,396.5,97.9,400.5,106.9" style="stroke:#181818;stroke-width:1;"/></g><!--SRC=[fLHDIoD14BtFhoZYJGZUGnXO8YiU527gHJoqtMKiTgOhL7S4aVr1UroyUSqVsvgUIPoli0GdkKpNwwfNhrxD2pa4BDVn3Hm6AxIEn3xBGZGHuIviZ10tRvUUB1bPOb08l6UWJnsPwCy4M7AXY6Wa8Na8kE8GnSXFbd9JfCm3oBqfo1bP23hqMgx00FEvVM6ocET3_0zhCV22lKL7ZWy1pj7ZocWy0HvE7s4wpKS9UzQxsbz1_bSwg9xvKzveiRypFtlAz_5Je5eS2AhEziC3wh-0G25YQH8ElKl9QmgzqZ1zE5a9edzKMkCo7IAsh6l03Kf94GUyD6rGOhQbw0psY2aiM0HPfniYnOroyQReXBsI2RZzEzR6W6gdaP5XVa_ZffStUAqpTxeQeJVcfchmFTV033gG98cD9dn3U9DAg1zMsy_a1U5Yrj9rkLcZ65UIRntURlzOzGFhCi8YSNUjw8tmi-QKrj4vLKHPgWiNOfe56CRQoOwHQBStVOKklJrAeskEz4osFz79Rk8CzijdEkWcEuV92EKUDNMSKZj-SVxZDa7o4RskQBtSQIZDUXyazMMfIaFzpcI_isnNg3hgV4J_0G00]--></g></svg>