<svg xmlns="http://www.w3.org/2000/svg" xmlns:xlink="http://www.w3.org/1999/xlink" contentStyleType="text/css" height="724px" preserveAspectRatio="none" style="width:658px;height:724px;background:#FFFFFF;" version="1.1" viewBox="0 0 658 724" width="658px" zoomAndPan="magnify"><title>Publicar Gu&#237;a Docente</title><defs/><g><text fill="#000000" font-family="sans-serif" font-size="14" font-weight="bold" lengthAdjust="spacing" textLength="175.1367" x="234.5363" y="22.9951">Publicar Gu&#237;a Docente</text><g id="INICIO"><rect fill="#F1F1F1" height="50" rx="12.5" ry="12.5" style="stroke:#181818;stroke-width:0.5;" width="63.6543" x="210.29" y="44.2969"/><line style="stroke:#181818;stroke-width:0.5;" x1="210.29" x2="273.9443" y1="70.5938" y2="70.5938"/><text fill="#000000" font-family="sans-serif" font-size="14" lengthAdjust="spacing" textLength="43.6543" x="220.29" y="62.292">INICIO</text></g><g id="Estado1"><rect fill="#F1F1F1" height="50" rx="12.5" ry="12.5" style="stroke:#181818;stroke-width:0.5;" width="50" x="217.12" y="171.2969"/><line style="stroke:#181818;stroke-width:0.5;" x1="217.12" x2="267.12" y1="197.5938" y2="197.5938"/><text fill="#000000" font-family="sans-serif" font-size="14" lengthAdjust="spacing" textLength="4.4502" x="239.8949" y="189.292">&#160;</text></g><g id="Estado2"><rect fill="#F1F1F1" height="50" rx="12.5" ry="12.5" style="stroke:#181818;stroke-width:0.5;" width="50" x="217.12" y="298.2969"/><line style="stroke:#181818;stroke-width:0.5;" x1="217.12" x2="267.12" y1="324.5938" y2="324.5938"/><text fill="#000000" font-family="sans-serif" font-size="14" lengthAdjust="spacing" textLength="4.4502" x="239.8949" y="316.292">&#160;</text></g><g id="Estado3"><rect fill="#F1F1F1" height="50" rx="12.5" ry="12.5" style="stroke:#181818;stroke-width:0.5;" width="50" x="57.12" y="526.2969"/><line style="stroke:#181818;stroke-width:0.5;" x1="57.12" x2="107.12" y1="552.5938" y2="552.5938"/><text fill="#000000" font-family="sans-serif" font-size="14" lengthAdjust="spacing" textLength="4.4502" x="79.8949" y="544.292">&#160;</text></g><g id="PublicacionExitosa"><rect fill="#F1F1F1" height="50" rx="12.5" ry="12.5" style="stroke:#181818;stroke-width:0.5;" width="150.2314" x="7" y="668.2969"/><line style="stroke:#181818;stroke-width:0.5;" x1="7" x2="157.2314" y1="694.5938" y2="694.5938"/><text fill="#000000" font-family="sans-serif" font-size="14" lengthAdjust="spacing" textLength="130.2314" x="17" y="686.292">PublicacionExitosa</text></g><g id="OperacionCancelada"><rect fill="#F1F1F1" height="50" rx="12.5" ry="12.5" style="stroke:#181818;stroke-width:0.5;" width="165.3525" x="319.44" y="526.2969"/><line style="stroke:#181818;stroke-width:0.5;" x1="319.44" x2="484.7925" y1="552.5938" y2="552.5938"/><text fill="#000000" font-family="sans-serif" font-size="14" lengthAdjust="spacing" textLength="145.3525" x="329.44" y="544.292">OperacionCancelada</text></g><g id="elem_ConfirmacionPublicacion"><polygon fill="#F1F1F1" points="242.12,425.2969,254.12,437.2969,242.12,449.2969,230.12,437.2969,242.12,425.2969" style="stroke:#181818;stroke-width:0.5;"/></g><g id="FINAL"><rect fill="#F1F1F1" height="50" rx="12.5" ry="12.5" style="stroke:#181818;stroke-width:0.5;" width="60.0313" x="372.1" y="668.2969"/><line style="stroke:#181818;stroke-width:0.5;" x1="372.1" x2="432.1313" y1="694.5938" y2="694.5938"/><text fill="#000000" font-family="sans-serif" font-size="14" lengthAdjust="spacing" textLength="40.0313" x="382.1" y="686.292">FINAL</text></g><!--link INICIO to Estado1--><g id="link_INICIO_Estado1"><path d="M242.12,94.6969 C242.12,116.7169 242.12,142.9569 242.12,164.9569 " fill="none" id="INICIO-to-Estado1" style="stroke:#181818;stroke-width:1;"/><polygon fill="#181818" points="242.12,170.9569,246.12,161.9569,242.12,165.9569,238.12,161.9569,242.12,170.9569" style="stroke:#181818;stroke-width:1;"/><text fill="#000000" font-family="sans-serif" font-size="13" lengthAdjust="spacing" textLength="343.7637" x="243.12" y="137.3638">El Director de Grado solicita publicar la gu&#237;a docente</text></g><!--link Estado1 to Estado2--><g id="link_Estado1_Estado2"><path d="M242.12,221.6969 C242.12,243.7169 242.12,269.9569 242.12,291.9569 " fill="none" id="Estado1-to-Estado2" style="stroke:#181818;stroke-width:1;"/><polygon fill="#181818" points="242.12,297.9569,246.12,288.9569,242.12,292.9569,238.12,288.9569,242.12,297.9569" style="stroke:#181818;stroke-width:1;"/><text fill="#000000" font-family="sans-serif" font-size="13" lengthAdjust="spacing" textLength="340.7676" x="243.12" y="264.3638">El sistema muestra una confirmaci&#243;n de publicaci&#243;n</text></g><!--link Estado2 to ConfirmacionPublicacion--><g id="link_Estado2_ConfirmacionPublicacion"><path d="M242.12,348.5969 C242.12,372.1469 242.12,400.8469 242.12,418.7169 " fill="none" id="Estado2-to-ConfirmacionPublicacion" style="stroke:#181818;stroke-width:1;"/><polygon fill="#181818" points="242.12,424.7169,246.12,415.7169,242.12,419.7169,238.12,415.7169,242.12,424.7169" style="stroke:#181818;stroke-width:1;"/><text fill="#000000" font-family="sans-serif" font-size="13" lengthAdjust="spacing" textLength="156.7427" x="243.12" y="391.3638">&#191;Confirmar publicaci&#243;n?</text></g><!--link ConfirmacionPublicacion to Estado3--><g id="link_ConfirmacionPublicacion_Estado3"><path d="M231.48,439.3069 C198.38,442.6769 98.22,454.7869 79.12,479.2969 C69.03,492.2369 68.8651,505.0542 72.3551,519.9942 " fill="none" id="ConfirmacionPublicacion-to-Estado3" style="stroke:#181818;stroke-width:1;"/><polygon fill="#181818" points="73.72,525.8369,75.5678,516.1629,72.5826,520.968,67.7776,517.9827,73.72,525.8369" style="stroke:#181818;stroke-width:1;"/><text fill="#000000" font-family="sans-serif" font-size="13" lengthAdjust="spacing" textLength="278.5161" x="80.12" y="492.3638">El Director de Grado confirma la operaci&#243;n</text></g><!--link ConfirmacionPublicacion to OperacionCancelada--><g id="link_ConfirmacionPublicacion_OperacionCancelada"><path d="M252.75,439.3169 C275.48,441.9869 329.46,451.0869 363.12,479.2969 C377.67,491.4969 385.4523,505.0119 391.7023,520.3219 " fill="none" id="ConfirmacionPublicacion-to-OperacionCancelada" style="stroke:#181818;stroke-width:1;"/><polygon fill="#181818" points="393.97,525.8769,394.2718,516.0326,392.0803,521.2477,386.8651,519.0562,393.97,525.8769" style="stroke:#181818;stroke-width:1;"/><text fill="#000000" font-family="sans-serif" font-size="13" lengthAdjust="spacing" textLength="271.0894" x="379.12" y="492.3638">El Director de Grado cancela la operaci&#243;n</text></g><!--link Estado3 to PublicacionExitosa--><g id="link_Estado3_PublicacionExitosa"><path d="M82.12,576.6869 C82.12,602.3769 82.12,636.5969 82.12,662.1869 " fill="none" id="Estado3-to-PublicacionExitosa" style="stroke:#181818;stroke-width:1;"/><polygon fill="#181818" points="82.12,668.1869,86.12,659.1869,82.12,663.1869,78.12,659.1869,82.12,668.1869" style="stroke:#181818;stroke-width:1;"/><text fill="#000000" font-family="sans-serif" font-size="13" lengthAdjust="spacing" textLength="222.7837" x="105.359" y="619.3638">El sistema publica la gu&#237;a docente</text><text fill="#000000" font-family="sans-serif" font-size="13" lengthAdjust="spacing" textLength="267.2617" x="83.12" y="634.4966">La gu&#237;a es accesible para los estudiantes</text></g><!--link OperacionCancelada to FINAL--><g id="link_OperacionCancelada_FINAL"><path d="M402.12,576.6869 C402.12,602.3769 402.12,636.5969 402.12,662.1869 " fill="none" id="OperacionCancelada-to-FINAL" style="stroke:#181818;stroke-width:1;"/><polygon fill="#181818" points="402.12,668.1869,406.12,659.1869,402.12,663.1869,398.12,659.1869,402.12,668.1869" style="stroke:#181818;stroke-width:1;"/></g><!--SRC=[VL9BJiCm4Dtx52FsNT3kgYe8fQ6ALBKSWCtK6S2IOqV-I5oA5GT0eXV3JcnAIOAycZSpRzwRiHDE4ZpwanGS3Upy-HrXgpafHunPXuwWFjHbVKp1JNXeeGfHes-dmEKKk4fWciI5LjMRSDfYIXmxCZrSek8aiS4yljJgMPYsJ_vgXys6lsh1gIWO6oJ2Ob5aPR26Ii9M6E9E6sW8TYRWO7KW40wXovubmajlkqcsCyE5RJcmMM4TjGYj9-iCWbS8_4VT-KF5CLsM66B6Sd_acZEoXg_Fd3DN_NUCpJLTnAtch6PfqQ4UrXir_SSuli8i-L3mXvjbIP5iVElhDIQdemCygNr6o09oJbQSmY_jCEnSQXjGvnk1eTIo2SLnzaDzkDz_0m00]--></g></svg>