<svg xmlns="http://www.w3.org/2000/svg" xmlns:xlink="http://www.w3.org/1999/xlink" contentStyleType="text/css" data-diagram-type="STATE" height="816px" preserveAspectRatio="none" style="width:640px;height:816px;background:#FFFFFF;" version="1.1" viewBox="0 0 640 816" width="640px" zoomAndPan="magnify"><defs/><g><path d="M19.5,117 L614.5,117 A12.5,12.5 0 0 1 627,129.5 L627,143.2969 L7,143.2969 L7,129.5 A12.5,12.5 0 0 1 19.5,117 " fill="#F1F1F1" style="stroke:#F1F1F1;stroke-width:1;"/><rect fill="#FFFFFF" fill-opacity="0.00000" height="693.2969" rx="12.5" ry="12.5" style="stroke:#181818;stroke-width:0.5;" width="620" x="7" y="117"/><line style="stroke:#181818;stroke-width:0.5;" x1="7" x2="627" y1="143.2969" y2="143.2969"/><text fill="#000000" font-family="sans-serif" font-size="14" lengthAdjust="spacing" textLength="315.4375" x="159.2813" y="134.9951">VerificarCumplimientoConMemoriaVerificada</text><g id="VerificarCumplimientoConMemoriaVerificada.SeleccionarGuia"><rect fill="#F1F1F1" height="50" rx="12.5" ry="12.5" style="stroke:#181818;stroke-width:0.5;" width="50" x="169" y="260.2969"/><line style="stroke:#181818;stroke-width:0.5;" x1="169" x2="219" y1="286.5938" y2="286.5938"/><text fill="#000000" font-family="sans-serif" font-size="14" lengthAdjust="spacing" textLength="4.4502" x="191.7749" y="278.292">&#160;</text></g><g id="VerificarCumplimientoConMemoriaVerificada.VerificarGuia"><rect fill="#F1F1F1" height="50" rx="12.5" ry="12.5" style="stroke:#181818;stroke-width:0.5;" width="50" x="169" y="396.2969"/><line style="stroke:#181818;stroke-width:0.5;" x1="169" x2="219" y1="422.5938" y2="422.5938"/><text fill="#000000" font-family="sans-serif" font-size="14" lengthAdjust="spacing" textLength="4.4502" x="191.7749" y="414.292">&#160;</text></g><g id="elem_ResultadoVerificacion"><polygon fill="#F1F1F1" points="194,532.2969,206,544.2969,194,556.2969,182,544.2969,194,532.2969" style="stroke:#181818;stroke-width:0.5;"/></g><g id="VerificarCumplimientoConMemoriaVerificada.GuiaNoCumpleRequisitos"><rect fill="#F1F1F1" height="50" rx="12.5" ry="12.5" style="stroke:#181818;stroke-width:0.5;" width="50" x="19" y="642.2969"/><line style="stroke:#181818;stroke-width:0.5;" x1="19" x2="69" y1="668.5938" y2="668.5938"/><text fill="#000000" font-family="sans-serif" font-size="14" lengthAdjust="spacing" textLength="4.4502" x="41.7749" y="660.292">&#160;</text></g><g id="VerificarCumplimientoConMemoriaVerificada.GuiaCumpleRequisitos"><rect fill="#F1F1F1" height="50" rx="12.5" ry="12.5" style="stroke:#181818;stroke-width:0.5;" width="50" x="321" y="642.2969"/><line style="stroke:#181818;stroke-width:0.5;" x1="321" x2="371" y1="668.5938" y2="668.5938"/><text fill="#000000" font-family="sans-serif" font-size="14" lengthAdjust="spacing" textLength="4.4502" x="343.7749" y="660.292">&#160;</text></g><ellipse cx="194" cy="164.2969" fill="#222222" rx="10" ry="10" style="stroke:#222222;stroke-width:1;"/><ellipse cx="195" cy="789.2969" fill="#FFFFFF" fill-opacity="0.00000" rx="11" ry="11" style="stroke:#222222;stroke-width:1;"/><ellipse cx="195" cy="789.2969" fill="#222222" rx="6" ry="6" style="stroke:#222222;stroke-width:1;"/><!--link *start*VerificarCumplimientoConMemoriaVerificada to SeleccionarGuia--><g id="link_*start*VerificarCumplimientoConMemoriaVerificada_SeleccionarGuia"><path d="M194,174.6369 C194,192.8269 194,227.5369 194,253.9069 " fill="#FFFFFF" fill-opacity="0.00000" id="*start*VerificarCumplimientoConMemoriaVerificada-to-SeleccionarGuia" style="stroke:#181818;stroke-width:1;"/><polygon fill="#181818" points="194,259.9069,198,250.9069,194,254.9069,190,250.9069,194,259.9069" style="stroke:#181818;stroke-width:1;"/><path d="M199,197.2969 L199,237.2969 L458,237.2969 L458,207.2969 L448,197.2969 L199,197.2969 " fill="#FEFFDD" style="stroke:#181818;stroke-width:0.5;"/><path d="M448,197.2969 L448,207.2969 L458,207.2969 L448,197.2969 " fill="#FEFFDD" style="stroke:#181818;stroke-width:0.5;"/><text fill="#000000" font-family="sans-serif" font-size="13" font-weight="bold" lengthAdjust="spacing" textLength="129.835" x="205" y="214.3638">Selecci&#243;n de Gu&#237;a</text><ellipse cx="210.5" cy="225.0625" fill="#000000" rx="2.5" ry="2.5"/><text fill="#000000" font-family="sans-serif" font-size="13" lengthAdjust="spacing" textLength="226.8525" x="217" y="229.4966">director de calidad selecciona gu&#237;a</text></g><!--link SeleccionarGuia to VerificarGuia--><g id="link_SeleccionarGuia_VerificarGuia"><path d="M194,310.5669 C194,334.8469 194,365.9869 194,390.2069 " fill="#FFFFFF" fill-opacity="0.00000" id="SeleccionarGuia-to-VerificarGuia" style="stroke:#181818;stroke-width:1;"/><polygon fill="#181818" points="194,396.2069,198,387.2069,194,391.2069,190,387.2069,194,396.2069" style="stroke:#181818;stroke-width:1;"/><path d="M199,333.2969 L199,373.2969 L485,373.2969 L485,343.2969 L475,333.2969 L199,333.2969 " fill="#FEFFDD" style="stroke:#181818;stroke-width:0.5;"/><path d="M475,333.2969 L475,343.2969 L485,343.2969 L475,333.2969 " fill="#FEFFDD" style="stroke:#181818;stroke-width:0.5;"/><text fill="#000000" font-family="sans-serif" font-size="13" font-weight="bold" lengthAdjust="spacing" textLength="265.6494" x="205" y="350.3638">Verificaci&#243;n de la Gu&#237;a Seleccionada</text><ellipse cx="210.5" cy="361.0625" fill="#000000" rx="2.5" ry="2.5"/><text fill="#000000" font-family="sans-serif" font-size="13" lengthAdjust="spacing" textLength="222.0664" x="217" y="365.4966">director de calidad verifica la gu&#237;a</text></g><!--link VerificarGuia to ResultadoVerificacion--><g id="link_VerificarGuia_ResultadoVerificacion"><path d="M194,446.7869 C194,472.6069 194,506.2069 194,525.6669 " fill="#FFFFFF" fill-opacity="0.00000" id="VerificarGuia-to-ResultadoVerificacion" style="stroke:#181818;stroke-width:1;"/><polygon fill="#181818" points="194,531.6669,198,522.6669,194,526.6669,190,522.6669,194,531.6669" style="stroke:#181818;stroke-width:1;"/><path d="M199,469.2969 L199,509.2969 L537,509.2969 L537,479.2969 L527,469.2969 L199,469.2969 " fill="#FEFFDD" style="stroke:#181818;stroke-width:0.5;"/><path d="M527,469.2969 L527,479.2969 L537,479.2969 L527,469.2969 " fill="#FEFFDD" style="stroke:#181818;stroke-width:0.5;"/><text fill="#000000" font-family="sans-serif" font-size="13" font-weight="bold" lengthAdjust="spacing" textLength="283.1943" x="205" y="486.3638">Resultado de la Verificaci&#243;n de la Gu&#237;a</text><ellipse cx="210.5" cy="497.0625" fill="#000000" rx="2.5" ry="2.5"/><text fill="#000000" font-family="sans-serif" font-size="13" lengthAdjust="spacing" textLength="305.335" x="217" y="501.4966">sistema muestra el resultado de la verificaci&#243;n</text></g><!--link ResultadoVerificacion to GuiaNoCumpleRequisitos--><g id="link_ResultadoVerificacion_GuiaNoCumpleRequisitos"><path d="M182.78,545.6669 C150.74,546.9669 59.98,552.5669 42,574.2969 C26.62,592.8869 28.536,615.7589 33.966,636.1489 " fill="#FFFFFF" fill-opacity="0.00000" id="ResultadoVerificacion-to-GuiaNoCumpleRequisitos" style="stroke:#181818;stroke-width:1;"/><polygon fill="#181818" points="35.51,641.9469,37.0592,632.2206,34.2233,637.1153,29.3287,634.2793,35.51,641.9469" style="stroke:#181818;stroke-width:1;"/><path d="M47,579.2969 L47,619.2969 L320,619.2969 L320,589.2969 L310,579.2969 L47,579.2969 " fill="#FEFFDD" style="stroke:#181818;stroke-width:0.5;"/><path d="M310,579.2969 L310,589.2969 L320,589.2969 L310,579.2969 " fill="#FEFFDD" style="stroke:#181818;stroke-width:0.5;"/><text fill="#000000" font-family="sans-serif" font-size="13" font-weight="bold" lengthAdjust="spacing" textLength="139.0391" x="53" y="596.3638">Se Rechaza la Gu&#237;a</text><ellipse cx="58.5" cy="607.0625" fill="#000000" rx="2.5" ry="2.5"/><text fill="#000000" font-family="sans-serif" font-size="13" lengthAdjust="spacing" textLength="240.062" x="65" y="611.4966">gu&#237;a no cmple estandares de calidad</text></g><!--link GuiaNoCumpleRequisitos to *end*VerificarCumplimientoConMemoriaVerificada--><g id="link_GuiaNoCumpleRequisitos_*end*VerificarCumplimientoConMemoriaVerificada"><path d="M37.18,692.7869 C33.08,713.2569 31.3,741.9669 47,760.2969 C64.78,781.0569 146.1753,786.3237 177.6653,787.6537 " fill="#FFFFFF" fill-opacity="0.00000" id="GuiaNoCumpleRequisitos-to-*end*VerificarCumplimientoConMemoriaVerificada" style="stroke:#181818;stroke-width:1;"/><polygon fill="#181818" points="183.66,787.9069,174.8368,783.5307,178.6645,787.6959,174.4992,791.5235,183.66,787.9069" style="stroke:#181818;stroke-width:1;"/><path d="M52,715.2969 L52,755.2969 L319,755.2969 L319,725.2969 L309,715.2969 L52,715.2969 " fill="#FEFFDD" style="stroke:#181818;stroke-width:0.5;"/><path d="M309,715.2969 L309,725.2969 L319,725.2969 L309,715.2969 " fill="#FEFFDD" style="stroke:#181818;stroke-width:0.5;"/><text fill="#000000" font-family="sans-serif" font-size="13" font-weight="bold" lengthAdjust="spacing" textLength="121.8433" x="58" y="732.3638">Sistema Retorna</text><ellipse cx="63.5" cy="743.0625" fill="#000000" rx="2.5" ry="2.5"/><text fill="#000000" font-family="sans-serif" font-size="13" lengthAdjust="spacing" textLength="234.5649" x="70" y="747.4966">al estado inicial sin seleccionar gu&#237;a</text></g><!--link ResultadoVerificacion to GuiaCumpleRequisitos--><g id="link_ResultadoVerificacion_GuiaCumpleRequisitos"><path d="M204.68,546.2069 C232.8,548.8269 307.9,557.3069 325,574.2969 C342.78,591.9669 346.7062,615.3778 347.0662,636.1778 " fill="#FFFFFF" fill-opacity="0.00000" id="ResultadoVerificacion-to-GuiaCumpleRequisitos" style="stroke:#181818;stroke-width:1;"/><polygon fill="#181818" points="347.17,642.1769,351.0137,633.109,347.0835,637.1776,343.0149,633.2474,347.17,642.1769" style="stroke:#181818;stroke-width:1;"/><path d="M350,579.2969 L350,619.2969 L610,619.2969 L610,589.2969 L600,579.2969 L350,579.2969 " fill="#FEFFDD" style="stroke:#181818;stroke-width:0.5;"/><path d="M600,579.2969 L600,589.2969 L610,589.2969 L600,579.2969 " fill="#FEFFDD" style="stroke:#181818;stroke-width:0.5;"/><text fill="#000000" font-family="sans-serif" font-size="13" font-weight="bold" lengthAdjust="spacing" textLength="140.0674" x="356" y="596.3638">Se Aprueba la Gu&#237;a</text><ellipse cx="361.5" cy="607.0625" fill="#000000" rx="2.5" ry="2.5"/><text fill="#000000" font-family="sans-serif" font-size="13" lengthAdjust="spacing" textLength="227.9761" x="368" y="611.4966">gu&#237;a cumple estandares de calidad</text></g><!--link GuiaCumpleRequisitos to *end*VerificarCumplimientoConMemoriaVerificada--><g id="link_GuiaCumpleRequisitos_*end*VerificarCumplimientoConMemoriaVerificada"><path d="M346.9,692.4569 C346.3,713.2869 341.95,742.7169 324,760.2969 C307.22,776.7269 240.5654,784.2537 212.2954,786.8237 " fill="#FFFFFF" fill-opacity="0.00000" id="GuiaCumpleRequisitos-to-*end*VerificarCumplimientoConMemoriaVerificada" style="stroke:#181818;stroke-width:1;"/><polygon fill="#181818" points="206.32,787.3669,215.6452,790.5356,211.2995,786.9142,214.9209,782.5685,206.32,787.3669" style="stroke:#181818;stroke-width:1;"/><path d="M350,715.2969 L350,755.2969 L618,755.2969 L618,725.2969 L608,715.2969 L350,715.2969 " fill="#FEFFDD" style="stroke:#181818;stroke-width:0.5;"/><path d="M608,715.2969 L608,725.2969 L618,725.2969 L608,715.2969 " fill="#FEFFDD" style="stroke:#181818;stroke-width:0.5;"/><text fill="#000000" font-family="sans-serif" font-size="13" font-weight="bold" lengthAdjust="spacing" textLength="121.8433" x="356" y="732.3638">Sistema Retorna</text><ellipse cx="361.5" cy="743.0625" fill="#000000" rx="2.5" ry="2.5"/><text fill="#000000" font-family="sans-serif" font-size="13" lengthAdjust="spacing" textLength="235.4917" x="368" y="747.4966">Al estado inicial sin seleccionar gu&#237;a</text></g><g id="ListadoGu&#237;as"><rect fill="#F1F1F1" height="50" rx="12.5" ry="12.5" style="stroke:#181818;stroke-width:0.5;" width="109.9883" x="262.01" y="7"/><line style="stroke:#181818;stroke-width:0.5;" x1="262.01" x2="371.9983" y1="33.2969" y2="33.2969"/><text fill="#000000" font-family="sans-serif" font-size="14" lengthAdjust="spacing" textLength="89.9883" x="272.01" y="24.9951">ListadoGu&#237;as</text></g><!--reverse link VerificarCumplimientoConMemoriaVerificada to ListadoGu?as--><g id="link_VerificarCumplimientoConMemoriaVerificada_ListadoGu&#237;as"><path d="M327.6924,110.876 C326.6124,86.686 325.45,72.07 323.68,57.33 " fill="#FFFFFF" fill-opacity="0.00000" id="VerificarCumplimientoConMemoriaVerificada-backto-ListadoGu&#237;as" style="stroke:#181818;stroke-width:1;"/><polygon fill="#181818" points="327.96,116.87,331.5546,107.7005,327.737,111.875,323.5626,108.0574,327.96,116.87" style="stroke:#181818;stroke-width:1;"/></g><!--reverse link ListadoGu?as to VerificarCumplimientoConMemoriaVerificada--><g id="link_ListadoGu&#237;as_VerificarCumplimientoConMemoriaVerificada"><path d="M310.0145,63.2919 C308.3445,78.0319 307.67,92.68 306.65,116.87 " fill="#FFFFFF" fill-opacity="0.00000" id="ListadoGu&#237;as-backto-VerificarCumplimientoConMemoriaVerificada" style="stroke:#181818;stroke-width:1;"/><polygon fill="#181818" points="310.69,57.33,305.7022,65.8225,310.1271,62.2982,313.6514,66.7231,310.69,57.33" style="stroke:#181818;stroke-width:1;"/></g><!--SRC=[hPInJiCm48RtFCMfOwM85wWYLHsw58OYiI26gttG4uvTxBW3Y4TYuX7wOjXEMan9Ia5aS-w_tv_-Etd1ha5fvdxtXWvAloahk27BzopGpdozKLmpwSRCZBwasbZ6VLbYKOJcXivlW9S2mjTsNPCY8TXej7FF2E7-4OmomS6slxmavrM4t-kY5qmcOcrOK5LbqcXmPH8TBUd9i-F6kE-MKJUaAfBkTdm7PSZe23xLj0aM0K6nVam_9gkgq-tUDSZe7sAUNAnQjZ58jYGQOsDDe6A94jp16HwYF4b9osJVGXmdL-P3Eudp6LL7fB25oZpbJuJRpYGs3o5-dLq4x1tN8EX1tK4EWcUiBkmorGYr9zTO159WZsoskKqFTlzEHVo17Jen-60crlYCVQWfjj078jf1u4KjCT1cEVVW3Iro10oREGpJ9REaC4gTWw1AbuU0MBFWS7IiinsqWnF-8QhV13NTM4-h4q49VsvCyL3ia_h7dAP_oId1l1R5-UzZ-m0lyaVv0m00]--></g></svg>