<svg xmlns="http://www.w3.org/2000/svg" xmlns:xlink="http://www.w3.org/1999/xlink" contentStyleType="text/css" height="951px" preserveAspectRatio="none" style="width:549px;height:951px;background:#FFFFFF;" version="1.1" viewBox="0 0 549 951" width="549px" zoomAndPan="magnify"><title>Verificar Cumplimiento con Memoria Verificada</title><defs/><g><text fill="#000000" font-family="sans-serif" font-size="14" font-weight="bold" lengthAdjust="spacing" textLength="373.4814" x="81.2366" y="22.9951">Verificar Cumplimiento con Memoria Verificada</text><g id="INICIO"><rect fill="#F1F1F1" height="50" rx="12.5" ry="12.5" style="stroke:#181818;stroke-width:0.5;" width="63.6543" x="116.63" y="44.2969"/><line style="stroke:#181818;stroke-width:0.5;" x1="116.63" x2="180.2843" y1="70.5938" y2="70.5938"/><text fill="#000000" font-family="sans-serif" font-size="14" lengthAdjust="spacing" textLength="43.6543" x="126.63" y="62.292">INICIO</text></g><g id="Estado1"><rect fill="#F1F1F1" height="50" rx="12.5" ry="12.5" style="stroke:#181818;stroke-width:0.5;" width="50" x="123.46" y="171.2969"/><line style="stroke:#181818;stroke-width:0.5;" x1="123.46" x2="173.46" y1="197.5938" y2="197.5938"/><text fill="#000000" font-family="sans-serif" font-size="14" lengthAdjust="spacing" textLength="4.4502" x="146.2349" y="189.292">&#160;</text></g><g id="Estado2"><rect fill="#F1F1F1" height="50" rx="12.5" ry="12.5" style="stroke:#181818;stroke-width:0.5;" width="50" x="123.46" y="298.2969"/><line style="stroke:#181818;stroke-width:0.5;" x1="123.46" x2="173.46" y1="324.5938" y2="324.5938"/><text fill="#000000" font-family="sans-serif" font-size="14" lengthAdjust="spacing" textLength="4.4502" x="146.2349" y="316.292">&#160;</text></g><g id="Estado3"><rect fill="#F1F1F1" height="50" rx="12.5" ry="12.5" style="stroke:#181818;stroke-width:0.5;" width="50" x="123.46" y="541.2969"/><line style="stroke:#181818;stroke-width:0.5;" x1="123.46" x2="173.46" y1="567.5938" y2="567.5938"/><text fill="#000000" font-family="sans-serif" font-size="14" lengthAdjust="spacing" textLength="4.4502" x="146.2349" y="559.292">&#160;</text></g><g id="Estado4"><rect fill="#F1F1F1" height="50" rx="12.5" ry="12.5" style="stroke:#181818;stroke-width:0.5;" width="50" x="76.46" y="784.2969"/><line style="stroke:#181818;stroke-width:0.5;" x1="76.46" x2="126.46" y1="810.5938" y2="810.5938"/><text fill="#000000" font-family="sans-serif" font-size="14" lengthAdjust="spacing" textLength="4.4502" x="99.2349" y="802.292">&#160;</text></g><g id="FINAL"><rect fill="#F1F1F1" height="50" rx="12.5" ry="12.5" style="stroke:#181818;stroke-width:0.5;" width="60.0313" x="160.44" y="895.2969"/><line style="stroke:#181818;stroke-width:0.5;" x1="160.44" x2="220.4713" y1="921.5938" y2="921.5938"/><text fill="#000000" font-family="sans-serif" font-size="14" lengthAdjust="spacing" textLength="40.0313" x="170.44" y="913.292">FINAL</text></g><g id="elem_Condicion1"><polygon fill="#F1F1F1" points="148.46,425.2969,160.46,437.2969,148.46,449.2969,136.46,437.2969,148.46,425.2969" style="stroke:#181818;stroke-width:0.5;"/></g><g id="elem_Condicion2"><polygon fill="#F1F1F1" points="148.46,668.2969,160.46,680.2969,148.46,692.2969,136.46,680.2969,148.46,668.2969" style="stroke:#181818;stroke-width:0.5;"/></g><!--link INICIO to Estado1--><g id="link_INICIO_Estado1"><path d="M148.46,94.6969 C148.46,116.7169 148.46,142.9569 148.46,164.9569 " fill="none" id="INICIO-to-Estado1" style="stroke:#181818;stroke-width:1;"/><polygon fill="#181818" points="148.46,170.9569,152.46,161.9569,148.46,165.9569,144.46,161.9569,148.46,170.9569" style="stroke:#181818;stroke-width:1;"/><text fill="#000000" font-family="sans-serif" font-size="13" lengthAdjust="spacing" textLength="392.4946" x="149.46" y="137.3638">Direcci&#243;n de Calidad inicia la verificaci&#243;n de la gu&#237;a docente</text></g><!--link Estado1 to Estado2--><g id="link_Estado1_Estado2"><path d="M148.46,221.6969 C148.46,243.7169 148.46,269.9569 148.46,291.9569 " fill="none" id="Estado1-to-Estado2" style="stroke:#181818;stroke-width:1;"/><polygon fill="#181818" points="148.46,297.9569,152.46,288.9569,148.46,292.9569,144.46,288.9569,148.46,297.9569" style="stroke:#181818;stroke-width:1;"/><text fill="#000000" font-family="sans-serif" font-size="13" lengthAdjust="spacing" textLength="355.0625" x="149.46" y="264.3638">El sistema muestra las gu&#237;as disponibles para verificar</text></g><!--link Estado2 to Condicion1--><g id="link_Estado2_Condicion1"><path d="M148.46,348.5969 C148.46,372.1469 148.46,400.8469 148.46,418.7169 " fill="none" id="Estado2-to-Condicion1" style="stroke:#181818;stroke-width:1;"/><polygon fill="#181818" points="148.46,424.7169,152.46,415.7169,148.46,419.7169,144.46,415.7169,148.46,424.7169" style="stroke:#181818;stroke-width:1;"/><text fill="#000000" font-family="sans-serif" font-size="13" lengthAdjust="spacing" textLength="358.7632" x="149.46" y="391.3638">Direcci&#243;n de Calidad selecciona una gu&#237;a para verificar</text></g><!--link Condicion1 to Estado3--><g id="link_Condicion1_Estado3"><path d="M148.46,449.5669 C148.46,469.9669 148.46,507.4269 148.46,534.9069 " fill="none" id="Condicion1-to-Estado3" style="stroke:#181818;stroke-width:1;"/><polygon fill="#181818" points="148.46,540.9069,152.46,531.9069,148.46,535.9069,144.46,531.9069,148.46,540.9069" style="stroke:#181818;stroke-width:1;"/><text fill="#000000" font-family="sans-serif" font-size="13" lengthAdjust="spacing" textLength="233.7778" x="191.5862" y="492.3638">El sistema usa la API de verificaci&#243;n</text><text fill="#000000" font-family="sans-serif" font-size="13" lengthAdjust="spacing" textLength="318.0303" x="149.46" y="507.4966">para comparar la gu&#237;a con la memoria verificada</text></g><!--link Estado3 to Condicion2--><g id="link_Estado3_Condicion2"><path d="M148.46,591.5969 C148.46,615.1469 148.46,643.8469 148.46,661.7169 " fill="none" id="Estado3-to-Condicion2" style="stroke:#181818;stroke-width:1;"/><polygon fill="#181818" points="148.46,667.7169,152.46,658.7169,148.46,662.7169,144.46,658.7169,148.46,667.7169" style="stroke:#181818;stroke-width:1;"/><text fill="#000000" font-family="sans-serif" font-size="13" lengthAdjust="spacing" textLength="230.9849" x="149.46" y="634.3638">&#191;La gu&#237;a cumple con los requisitos?</text></g><!--link Condicion2 to FINAL--><g id="link_Condicion2_FINAL"><path d="M159.55,681.6069 C182.46,682.9269 234.79,689.5469 257.46,722.2969 C295.5,777.2469 247.3409,850.9899 215.6109,890.2599 " fill="none" id="Condicion2-to-FINAL" style="stroke:#181818;stroke-width:1;"/><polygon fill="#181818" points="211.84,894.9269,220.6076,890.4404,214.9824,891.0377,214.385,885.4125,211.84,894.9269" style="stroke:#181818;stroke-width:1;"/><text fill="#000000" font-family="sans-serif" font-size="13" lengthAdjust="spacing" textLength="217.1851" x="281.0572" y="806.3638">La gu&#237;a cumple con los requisitos</text><text fill="#000000" font-family="sans-serif" font-size="13" lengthAdjust="spacing" textLength="240.3794" x="269.46" y="821.4966">Direcci&#243;n de Calidad aprueba la gu&#237;a</text></g><!--link Condicion2 to Estado4--><g id="link_Condicion2_Estado4"><path d="M136.18,680.7069 C108.91,680.1569 43.4,683.1769 14.46,722.2969 C6,733.7269 7.54,741.8669 14.46,754.2969 C27.51,777.7569 49.834,790.1625 70.544,798.1725 " fill="none" id="Condicion2-to-Estado4" style="stroke:#181818;stroke-width:1;"/><polygon fill="#181818" points="76.14,800.3369,69.1889,793.3596,71.4766,798.5332,66.303,800.821,76.14,800.3369" style="stroke:#181818;stroke-width:1;"/><text fill="#000000" font-family="sans-serif" font-size="13" lengthAdjust="spacing" textLength="237.5103" x="15.46" y="735.3638">La gu&#237;a no cumple con los requisitos</text><text fill="#000000" font-family="sans-serif" font-size="13" lengthAdjust="spacing" textLength="234.8125" x="16.8089" y="750.4966">Direcci&#243;n de Calidad solicita ajustes</text></g><!--link Estado4 to FINAL--><g id="link_Estado4_FINAL"><path d="M121.43,834.7569 C136.09,852.7069 152.1152,872.3393 166.7552,890.2693 " fill="none" id="Estado4-to-FINAL" style="stroke:#181818;stroke-width:1;"/><polygon fill="#181818" points="170.55,894.9169,167.9562,885.4157,167.3877,891.0439,161.7595,890.4754,170.55,894.9169" style="stroke:#181818;stroke-width:1;"/></g><!--SRC=[bPA_JWCn3CRtUmgBlKDR9bGLLQL89vN2nDJ5JK8noYL7dFIjc7W09FfY9Bs_hGuXT4FaB_7FdttsvBM2P-NeXGGwM8QYr5IGCjw2i0OUL64TOVj4OfQnHwyWt-JB_B4EhkA73AiOIJiU4YT3udH8lAx5-topM3VLbjP84cJD66OpyMf9gFdyycxIlyigWp0QpHjVS0Dtv9GGTFmq86CcQf8eWKpCHz08XxhFzadKzk7uWI2jY5DHMSFgk9F8NMbWOgyAX28ezYxHk4fbaCIbDRJJYg54rvLnMTOm4g_NvMzMMUcaMeCGJEFjajdZT3QdvpO3dnfUFEK9VzRtrfo0mXRfTDqCqaR4eAYNuj1RYgR6MHjfCjzVwpOzRPUgA9R1gVT0JDxoRSzoDOdJpu_PV-TkpV2Wi7H1xR0rVrcXNhP-3MF_NuQjZb2FW6yX3fQpXjjsyGC0]--></g></svg>