<svg xmlns="http://www.w3.org/2000/svg" xmlns:xlink="http://www.w3.org/1999/xlink" contentStyleType="text/css" height="1116px" preserveAspectRatio="none" style="width:490px;height:1116px;background:#FFFFFF;" version="1.1" viewBox="0 0 490 1116" width="490px" zoomAndPan="magnify"><title>Verificar Cumplimiento con Memoria Verificada</title><defs/><g><text fill="#000000" font-family="sans-serif" font-size="14" font-weight="bold" lengthAdjust="spacing" textLength="373.4814" x="51.5542" y="22.9951">Verificar Cumplimiento con Memoria Verificada</text><g id="INICIO"><rect fill="#F1F1F1" height="50" rx="12.5" ry="12.5" style="stroke:#181818;stroke-width:0.5;" width="63.6543" x="93.5" y="44.2969"/><line style="stroke:#181818;stroke-width:0.5;" x1="93.5" x2="157.1543" y1="70.5938" y2="70.5938"/><text fill="#000000" font-family="sans-serif" font-size="14" lengthAdjust="spacing" textLength="43.6543" x="103.5" y="62.292">INICIO</text></g><g id="INICIAR_SESION"><rect fill="#F1F1F1" height="50" rx="12.5" ry="12.5" style="stroke:#181818;stroke-width:0.5;" width="128.6299" x="61" y="171.2969"/><line style="stroke:#181818;stroke-width:0.5;" x1="61" x2="189.6299" y1="197.5938" y2="197.5938"/><text fill="#000000" font-family="sans-serif" font-size="14" lengthAdjust="spacing" textLength="108.6299" x="71" y="189.292">INICIAR SESI&#211;N</text></g><g id="MENU_PRINCIPAL"><rect fill="#F1F1F1" height="50" rx="12.5" ry="12.5" style="stroke:#181818;stroke-width:0.5;" width="138.5898" x="56" y="298.2969"/><line style="stroke:#181818;stroke-width:0.5;" x1="56" x2="194.5898" y1="324.5938" y2="324.5938"/><text fill="#000000" font-family="sans-serif" font-size="14" lengthAdjust="spacing" textLength="118.5898" x="66" y="316.292">MEN&#218; PRINCIPAL</text></g><g id="LISTAR_GUIAS"><rect fill="#F1F1F1" height="50" rx="12.5" ry="12.5" style="stroke:#181818;stroke-width:0.5;" width="236.5762" x="7" y="425.2969"/><line style="stroke:#181818;stroke-width:0.5;" x1="7" x2="243.5762" y1="451.5938" y2="451.5938"/><text fill="#000000" font-family="sans-serif" font-size="14" lengthAdjust="spacing" textLength="216.5762" x="17" y="443.292">LISTAR GUIAS PARA VERIFICAR</text></g><g id="SELECCIONAR_GUIA"><rect fill="#F1F1F1" height="50" rx="12.5" ry="12.5" style="stroke:#181818;stroke-width:0.5;" width="158.1064" x="46.5" y="552.2969"/><line style="stroke:#181818;stroke-width:0.5;" x1="46.5" x2="204.6064" y1="578.5938" y2="578.5938"/><text fill="#000000" font-family="sans-serif" font-size="14" lengthAdjust="spacing" textLength="138.1064" x="56.5" y="570.292">SELECCIONAR GUIA</text></g><g id="VERIFICAR_GUIA"><rect fill="#F1F1F1" height="50" rx="12.5" ry="12.5" style="stroke:#181818;stroke-width:0.5;" width="132.793" x="59" y="679.2969"/><line style="stroke:#181818;stroke-width:0.5;" x1="59" x2="191.793" y1="705.5938" y2="705.5938"/><text fill="#000000" font-family="sans-serif" font-size="14" lengthAdjust="spacing" textLength="112.793" x="69" y="697.292">VERIFICAR GUIA</text></g><g id="RESULTADO_VERIFICACION"><rect fill="#F1F1F1" height="50" rx="12.5" ry="12.5" style="stroke:#181818;stroke-width:0.5;" width="209.0957" x="21" y="806.2969"/><line style="stroke:#181818;stroke-width:0.5;" x1="21" x2="230.0957" y1="832.5938" y2="832.5938"/><text fill="#000000" font-family="sans-serif" font-size="14" lengthAdjust="spacing" textLength="189.0957" x="31" y="824.292">RESULTADO VERIFICACI&#211;N</text></g><g id="FINAL"><rect fill="#F1F1F1" height="50" rx="12.5" ry="12.5" style="stroke:#181818;stroke-width:0.5;" width="60.0313" x="39.5" y="1060.2969"/><line style="stroke:#181818;stroke-width:0.5;" x1="39.5" x2="99.5313" y1="1086.5938" y2="1086.5938"/><text fill="#000000" font-family="sans-serif" font-size="14" lengthAdjust="spacing" textLength="40.0313" x="49.5" y="1078.292">FINAL</text></g><g id="GUIA_NO_CUMPLE"><rect fill="#F1F1F1" height="50" rx="12.5" ry="12.5" style="stroke:#181818;stroke-width:0.5;" width="142.3838" x="254.5" y="933.2969"/><line style="stroke:#181818;stroke-width:0.5;" x1="254.5" x2="396.8838" y1="959.5938" y2="959.5938"/><text fill="#000000" font-family="sans-serif" font-size="14" lengthAdjust="spacing" textLength="122.3838" x="264.5" y="951.292">GUIA NO CUMPLE</text></g><!--link INICIO to INICIAR_SESION--><g id="link_INICIO_INICIAR_SESION"><path d="M125.5,94.3969 C125.5,116.5369 125.5,143.1569 125.5,165.2669 " fill="none" id="INICIO-to-INICIAR_SESION" style="stroke:#181818;stroke-width:1;"/><polygon fill="#181818" points="125.5,171.2669,129.5,162.2669,125.5,166.2669,121.5,162.2669,125.5,171.2669" style="stroke:#181818;stroke-width:1;"/><text fill="#000000" font-family="sans-serif" font-size="13" lengthAdjust="spacing" textLength="218.1182" x="126.5" y="137.3638">Direcci&#243;n de Calidad inicia sesi&#243;n</text></g><!--link INICIAR_SESION to MENU_PRINCIPAL--><g id="link_INICIAR_SESION_MENU_PRINCIPAL"><path d="M125.5,221.3969 C125.5,243.5369 125.5,270.1569 125.5,292.2669 " fill="none" id="INICIAR_SESION-to-MENU_PRINCIPAL" style="stroke:#181818;stroke-width:1;"/><polygon fill="#181818" points="125.5,298.2669,129.5,289.2669,125.5,293.2669,121.5,289.2669,125.5,298.2669" style="stroke:#181818;stroke-width:1;"/><text fill="#000000" font-family="sans-serif" font-size="13" lengthAdjust="spacing" textLength="196.606" x="126.5" y="264.3638">Sistema permite iniciar sesi&#243;n</text></g><!--link MENU_PRINCIPAL to LISTAR_GUIAS--><g id="link_MENU_PRINCIPAL_LISTAR_GUIAS"><path d="M125.5,348.3969 C125.5,370.5369 125.5,397.1569 125.5,419.2669 " fill="none" id="MENU_PRINCIPAL-to-LISTAR_GUIAS" style="stroke:#181818;stroke-width:1;"/><polygon fill="#181818" points="125.5,425.2669,129.5,416.2669,125.5,420.2669,121.5,416.2669,125.5,425.2669" style="stroke:#181818;stroke-width:1;"/><text fill="#000000" font-family="sans-serif" font-size="13" lengthAdjust="spacing" textLength="297.4512" x="126.5" y="391.3638">Direcci&#243;n selecciona "Verificar cumplimiento"</text></g><!--link LISTAR_GUIAS to SELECCIONAR_GUIA--><g id="link_LISTAR_GUIAS_SELECCIONAR_GUIA"><path d="M125.5,475.3969 C125.5,497.5369 125.5,524.1569 125.5,546.2669 " fill="none" id="LISTAR_GUIAS-to-SELECCIONAR_GUIA" style="stroke:#181818;stroke-width:1;"/><polygon fill="#181818" points="125.5,552.2669,129.5,543.2669,125.5,547.2669,121.5,543.2669,125.5,552.2669" style="stroke:#181818;stroke-width:1;"/><text fill="#000000" font-family="sans-serif" font-size="13" lengthAdjust="spacing" textLength="199.9893" x="126.5" y="518.3638">Sistema lista gu&#237;as disponibles</text></g><!--link SELECCIONAR_GUIA to VERIFICAR_GUIA--><g id="link_SELECCIONAR_GUIA_VERIFICAR_GUIA"><path d="M125.5,602.3969 C125.5,624.5369 125.5,651.1569 125.5,673.2669 " fill="none" id="SELECCIONAR_GUIA-to-VERIFICAR_GUIA" style="stroke:#181818;stroke-width:1;"/><polygon fill="#181818" points="125.5,679.2669,129.5,670.2669,125.5,674.2669,121.5,670.2669,125.5,679.2669" style="stroke:#181818;stroke-width:1;"/><text fill="#000000" font-family="sans-serif" font-size="13" lengthAdjust="spacing" textLength="285.5112" x="126.5" y="645.3638">Direcci&#243;n selecciona una gu&#237;a para verificar</text></g><!--link VERIFICAR_GUIA to RESULTADO_VERIFICACION--><g id="link_VERIFICAR_GUIA_RESULTADO_VERIFICACION"><path d="M125.5,729.3969 C125.5,751.5369 125.5,778.1569 125.5,800.2669 " fill="none" id="VERIFICAR_GUIA-to-RESULTADO_VERIFICACION" style="stroke:#181818;stroke-width:1;"/><polygon fill="#181818" points="125.5,806.2669,129.5,797.2669,125.5,801.2669,121.5,797.2669,125.5,806.2669" style="stroke:#181818;stroke-width:1;"/><text fill="#000000" font-family="sans-serif" font-size="13" lengthAdjust="spacing" textLength="304.0972" x="126.5" y="772.3638">Sistema compara gu&#237;a con memoria verificada</text></g><!--link RESULTADO_VERIFICACION to FINAL--><g id="link_RESULTADO_VERIFICACION_FINAL"><path d="M103.6,856.3169 C87.63,875.5669 67.31,904.0869 58.5,933.2969 C45.45,976.5769 53.4389,1024.0475 61.0489,1054.3575 " fill="none" id="RESULTADO_VERIFICACION-to-FINAL" style="stroke:#181818;stroke-width:1;"/><polygon fill="#181818" points="62.51,1060.1769,64.198,1050.4737,61.2924,1055.3274,56.4388,1052.4219,62.51,1060.1769" style="stroke:#181818;stroke-width:1;"/><text fill="#000000" font-family="sans-serif" font-size="13" lengthAdjust="spacing" textLength="177.1948" x="59.5" y="962.8638">Gu&#237;a cumple con requisitos</text></g><!--link RESULTADO_VERIFICACION to GUIA_NO_CUMPLE--><g id="link_RESULTADO_VERIFICACION_GUIA_NO_CUMPLE"><path d="M164.06,856.3969 C199.48,878.5369 246.5918,907.9771 281.9718,930.0871 " fill="none" id="RESULTADO_VERIFICACION-to-GUIA_NO_CUMPLE" style="stroke:#181818;stroke-width:1;"/><polygon fill="#181818" points="287.06,933.2669,281.5476,925.1052,282.8199,930.6171,277.3079,931.8894,287.06,933.2669" style="stroke:#181818;stroke-width:1;"/><text fill="#000000" font-family="sans-serif" font-size="13" lengthAdjust="spacing" textLength="197.52" x="237.5" y="899.3638">Gu&#237;a no cumple con requisitos</text></g><!--link GUIA_NO_CUMPLE to FINAL--><g id="link_GUIA_NO_CUMPLE_FINAL"><path d="M276.14,983.3969 C223.98,1008.8669 148.7614,1045.5938 105.2514,1066.8438 " fill="none" id="GUIA_NO_CUMPLE-to-FINAL" style="stroke:#181818;stroke-width:1;"/><polygon fill="#181818" points="99.86,1069.4769,109.7024,1069.1215,104.3528,1067.2826,106.1916,1061.933,99.86,1069.4769" style="stroke:#181818;stroke-width:1;"/><text fill="#000000" font-family="sans-serif" font-size="13" lengthAdjust="spacing" textLength="269.0898" x="213.5" y="1026.3638">Direcci&#243;n recibe notificaci&#243;n para ajustes</text></g><!--SRC=[VPDDReCm48NtFiKe-roWYqg8aCWICGX2jiW1jvgAlsB8HRhh7Rhg4NAnsWOSe4rNs3FlVSoCxGwxGW2SHOilcF4MtBvi2YnHL5qDMLt1KPHrYznASau8aHtl1516NHgCcutPEH74Nanl7sm3NC8OItKiO9FowB7R9uGHPIuD7TyeLIn9RMXI-ZG-AUGXeKuCeHCvSFOYkgUk4ndNa4zDVlB4dk-vgYus6erm5ZJgIMnnTwaDBOIH5oV-oTa5Dk_QBcqklUTijtlAL3yJHYE11U0cnz3tZ5k7KXQaGuYGOQgmtJwlnWTFiCDMP1dUlYl81RYym9pdW1LcweIaa3f3LYuDMavNWMAKdIWvDA8jKHKs85hBM1aqOpxhPIbI57fPLrmDrDwaR7QJDcJXrhZrYSoAAjINmsj_-rBZoL4sTOMNGaZoowD1o_DwM5bVZKXeUClXEjL9LdwD_Fj0PnLcTMae0r0_at9y9jVPCtc0qNymjq813mD0ZqeOJYlUUvJOrV8_-_BEM4vLFq2jzFCAPjDI2xm8HUbC2qFGzCdVUjMu_040]--></g></svg>