<svg xmlns="http://www.w3.org/2000/svg" xmlns:xlink="http://www.w3.org/1999/xlink" contentStyleType="text/css" data-diagram-type="STATE" height="816px" preserveAspectRatio="none" style="width:643px;height:816px;background:#FFFFFF;" version="1.1" viewBox="0 0 643 816" width="643px" zoomAndPan="magnify"><defs/><g><path d="M19.5,117 L617.0729,117 A12.5,12.5 0 0 1 629.5729,129.5 L629.5729,143.2969 L7,143.2969 L7,129.5 A12.5,12.5 0 0 1 19.5,117 " fill="#F1F1F1" style="stroke:#F1F1F1;stroke-width:1;"/><rect fill="#FFFFFF" fill-opacity="0.00000" height="693.2969" rx="12.5" ry="12.5" style="stroke:#181818;stroke-width:0.5;" width="622.5729" x="7" y="117"/><line style="stroke:#181818;stroke-width:0.5;" x1="7" x2="629.5729" y1="143.2969" y2="143.2969"/><text fill="#000000" font-family="sans-serif" font-size="14" lengthAdjust="spacing" textLength="315.4375" x="160.5677" y="134.9951">VerificarCumplimientoConMemoriaVerificada</text><g id="VerificarCumplimientoConMemoriaVerificada.SeleccionarGuia"><rect fill="#F1F1F1" height="50" rx="12.5" ry="12.5" style="stroke:#181818;stroke-width:0.5;" width="50" x="169.5729" y="260.2969"/><line style="stroke:#181818;stroke-width:0.5;" x1="169.5729" x2="219.5729" y1="286.5938" y2="286.5938"/><text fill="#000000" font-family="sans-serif" font-size="14" lengthAdjust="spacing" textLength="4.4502" x="192.3478" y="278.292">&#160;</text></g><g id="VerificarCumplimientoConMemoriaVerificada.VerificarGuia"><rect fill="#F1F1F1" height="50" rx="12.5" ry="12.5" style="stroke:#181818;stroke-width:0.5;" width="50" x="169.5729" y="396.2969"/><line style="stroke:#181818;stroke-width:0.5;" x1="169.5729" x2="219.5729" y1="422.5938" y2="422.5938"/><text fill="#000000" font-family="sans-serif" font-size="14" lengthAdjust="spacing" textLength="4.4502" x="192.3478" y="414.292">&#160;</text></g><g id="elem_ResultadoVerificacion"><polygon fill="#F1F1F1" points="194.5729,532.2969,206.5729,544.2969,194.5729,556.2969,182.5729,544.2969,194.5729,532.2969" style="stroke:#181818;stroke-width:0.5;"/></g><g id="VerificarCumplimientoConMemoriaVerificada.GuiaNoCumpleRequisitos"><rect fill="#F1F1F1" height="50" rx="12.5" ry="12.5" style="stroke:#181818;stroke-width:0.5;" width="50" x="19.5729" y="642.2969"/><line style="stroke:#181818;stroke-width:0.5;" x1="19.5729" x2="69.5729" y1="668.5938" y2="668.5938"/><text fill="#000000" font-family="sans-serif" font-size="14" lengthAdjust="spacing" textLength="4.4502" x="42.3478" y="660.292">&#160;</text></g><g id="VerificarCumplimientoConMemoriaVerificada.GuiaCumpleRequisitos"><rect fill="#F1F1F1" height="50" rx="12.5" ry="12.5" style="stroke:#181818;stroke-width:0.5;" width="50" x="325.5729" y="642.2969"/><line style="stroke:#181818;stroke-width:0.5;" x1="325.5729" x2="375.5729" y1="668.5938" y2="668.5938"/><text fill="#000000" font-family="sans-serif" font-size="14" lengthAdjust="spacing" textLength="4.4502" x="348.3478" y="660.292">&#160;</text></g><ellipse cx="194.5729" cy="164.2969" fill="#222222" rx="10" ry="10" style="stroke:#222222;stroke-width:1;"/><ellipse cx="197.5729" cy="789.2969" fill="#FFFFFF" fill-opacity="0.00000" rx="11" ry="11" style="stroke:#222222;stroke-width:1;"/><ellipse cx="197.5729" cy="789.2969" fill="#222222" rx="6" ry="6" style="stroke:#222222;stroke-width:1;"/><!--link *start*VerificarCumplimientoConMemoriaVerificada to SeleccionarGuia--><g id="link_*start*VerificarCumplimientoConMemoriaVerificada_SeleccionarGuia"><path d="M194.5729,174.6369 C194.5729,192.8269 194.5729,227.5369 194.5729,253.9069 " fill="#FFFFFF" fill-opacity="0.00000" id="*start*VerificarCumplimientoConMemoriaVerificada-to-SeleccionarGuia" style="stroke:#181818;stroke-width:1;"/><polygon fill="#181818" points="194.5729,259.9069,198.5729,250.9069,194.5729,254.9069,190.5729,250.9069,194.5729,259.9069" style="stroke:#181818;stroke-width:1;"/><path d="M199.5729,197.2969 L199.5729,237.2969 L458.5729,237.2969 L458.5729,207.2969 L448.5729,197.2969 L199.5729,197.2969 " fill="#FEFFDD" style="stroke:#181818;stroke-width:0.5;"/><path d="M448.5729,197.2969 L448.5729,207.2969 L458.5729,207.2969 L448.5729,197.2969 " fill="#FEFFDD" style="stroke:#181818;stroke-width:0.5;"/><text fill="#000000" font-family="sans-serif" font-size="13" font-weight="bold" lengthAdjust="spacing" textLength="189.8838" x="205.5729" y="214.3638">Director de Grado Solicita</text><ellipse cx="211.0729" cy="225.0625" fill="#000000" rx="2.5" ry="2.5"/><text fill="#000000" font-family="sans-serif" font-size="13" lengthAdjust="spacing" textLength="226.8525" x="217.5729" y="229.4966">director de calidad selecciona gu&#237;a</text></g><!--link SeleccionarGuia to VerificarGuia--><g id="link_SeleccionarGuia_VerificarGuia"><path d="M194.5729,310.5669 C194.5729,334.8469 194.5729,365.9869 194.5729,390.2069 " fill="#FFFFFF" fill-opacity="0.00000" id="SeleccionarGuia-to-VerificarGuia" style="stroke:#181818;stroke-width:1;"/><polygon fill="#181818" points="194.5729,396.2069,198.5729,387.2069,194.5729,391.2069,190.5729,387.2069,194.5729,396.2069" style="stroke:#181818;stroke-width:1;"/><path d="M199.5729,333.2969 L199.5729,373.2969 L454.5729,373.2969 L454.5729,343.2969 L444.5729,333.2969 L199.5729,333.2969 " fill="#FEFFDD" style="stroke:#181818;stroke-width:0.5;"/><path d="M444.5729,333.2969 L444.5729,343.2969 L454.5729,343.2969 L444.5729,333.2969 " fill="#FEFFDD" style="stroke:#181818;stroke-width:0.5;"/><text fill="#000000" font-family="sans-serif" font-size="13" font-weight="bold" lengthAdjust="spacing" textLength="121.2212" x="205.5729" y="350.3638">Sistema Permite</text><ellipse cx="211.0729" cy="361.0625" fill="#000000" rx="2.5" ry="2.5"/><text fill="#000000" font-family="sans-serif" font-size="13" lengthAdjust="spacing" textLength="222.0664" x="217.5729" y="365.4966">director de calidad verifica la gu&#237;a</text></g><!--link VerificarGuia to ResultadoVerificacion--><g id="link_VerificarGuia_ResultadoVerificacion"><path d="M194.5729,446.7869 C194.5729,472.6069 194.5729,506.2069 194.5729,525.6669 " fill="#FFFFFF" fill-opacity="0.00000" id="VerificarGuia-to-ResultadoVerificacion" style="stroke:#181818;stroke-width:1;"/><polygon fill="#181818" points="194.5729,531.6669,198.5729,522.6669,194.5729,526.6669,190.5729,522.6669,194.5729,531.6669" style="stroke:#181818;stroke-width:1;"/><path d="M199.5729,469.2969 L199.5729,509.2969 L537.5729,509.2969 L537.5729,479.2969 L527.5729,469.2969 L199.5729,469.2969 " fill="#FEFFDD" style="stroke:#181818;stroke-width:0.5;"/><path d="M527.5729,469.2969 L527.5729,479.2969 L537.5729,479.2969 L527.5729,469.2969 " fill="#FEFFDD" style="stroke:#181818;stroke-width:0.5;"/><text fill="#000000" font-family="sans-serif" font-size="13" font-weight="bold" lengthAdjust="spacing" textLength="123.5762" x="205.5729" y="486.3638">Sistema Muestra</text><ellipse cx="211.0729" cy="497.0625" fill="#000000" rx="2.5" ry="2.5"/><text fill="#000000" font-family="sans-serif" font-size="13" lengthAdjust="spacing" textLength="305.335" x="217.5729" y="501.4966">sistema muestra el resultado de la verificaci&#243;n</text></g><!--link ResultadoVerificacion to GuiaNoCumpleRequisitos--><g id="link_ResultadoVerificacion_GuiaNoCumpleRequisitos"><path d="M183.5329,545.5969 C151.0829,546.7369 57.1529,551.9469 38.5729,574.2969 C23.1229,592.8869 26.1385,615.8374 32.7285,636.2374 " fill="#FFFFFF" fill-opacity="0.00000" id="ResultadoVerificacion-to-GuiaNoCumpleRequisitos" style="stroke:#181818;stroke-width:1;"/><polygon fill="#181818" points="34.5729,641.9469,35.6126,632.1531,33.0359,637.189,28,634.6122,34.5729,641.9469" style="stroke:#181818;stroke-width:1;"/><path d="M43.5729,579.2969 L43.5729,619.2969 L324.5729,619.2969 L324.5729,589.2969 L314.5729,579.2969 L43.5729,579.2969 " fill="#FEFFDD" style="stroke:#181818;stroke-width:0.5;"/><path d="M314.5729,579.2969 L314.5729,589.2969 L324.5729,589.2969 L314.5729,579.2969 " fill="#FEFFDD" style="stroke:#181818;stroke-width:0.5;"/><text fill="#000000" font-family="sans-serif" font-size="13" font-weight="bold" lengthAdjust="spacing" textLength="123.5762" x="49.5729" y="596.3638">Sistema Muestra</text><ellipse cx="55.0729" cy="607.0625" fill="#000000" rx="2.5" ry="2.5"/><text fill="#000000" font-family="sans-serif" font-size="13" lengthAdjust="spacing" textLength="248.3013" x="61.5729" y="611.4966">gu&#237;a no cumple estandares de calidad</text></g><!--link GuiaNoCumpleRequisitos to *end*VerificarCumplimientoConMemoriaVerificada--><g id="link_GuiaNoCumpleRequisitos_*end*VerificarCumplimientoConMemoriaVerificada"><path d="M38.7629,692.4869 C35.3629,713.0569 34.4629,742.0669 50.5729,760.2969 C68.5529,780.6369 149.1593,786.1502 180.3493,787.5902 " fill="#FFFFFF" fill-opacity="0.00000" id="GuiaNoCumpleRequisitos-to-*end*VerificarCumplimientoConMemoriaVerificada" style="stroke:#181818;stroke-width:1;"/><polygon fill="#181818" points="186.3429,787.8669,177.537,783.4561,181.3482,787.6363,177.168,791.4475,186.3429,787.8669" style="stroke:#181818;stroke-width:1;"/><path d="M55.5729,715.2969 L55.5729,755.2969 L322.5729,755.2969 L322.5729,725.2969 L312.5729,715.2969 L55.5729,715.2969 " fill="#FEFFDD" style="stroke:#181818;stroke-width:0.5;"/><path d="M312.5729,715.2969 L312.5729,725.2969 L322.5729,725.2969 L312.5729,715.2969 " fill="#FEFFDD" style="stroke:#181818;stroke-width:0.5;"/><text fill="#000000" font-family="sans-serif" font-size="13" font-weight="bold" lengthAdjust="spacing" textLength="121.8433" x="61.5729" y="732.3638">Sistema Retorna</text><ellipse cx="67.0729" cy="743.0625" fill="#000000" rx="2.5" ry="2.5"/><text fill="#000000" font-family="sans-serif" font-size="13" lengthAdjust="spacing" textLength="234.5649" x="73.5729" y="747.4966">al estado inicial sin seleccionar gu&#237;a</text></g><!--link ResultadoVerificacion to GuiaCumpleRequisitos--><g id="link_ResultadoVerificacion_GuiaCumpleRequisitos"><path d="M205.1629,546.1269 C233.8029,548.5869 311.8329,556.7769 329.5729,574.2969 C347.4129,591.9069 351.3221,615.3277 351.6721,636.1577 " fill="#FFFFFF" fill-opacity="0.00000" id="ResultadoVerificacion-to-GuiaCumpleRequisitos" style="stroke:#181818;stroke-width:1;"/><polygon fill="#181818" points="351.7729,642.1569,355.6211,633.0909,351.6889,637.1576,347.6223,633.2253,351.7729,642.1569" style="stroke:#181818;stroke-width:1;"/><path d="M354.5729,579.2969 L354.5729,619.2969 L614.5729,619.2969 L614.5729,589.2969 L604.5729,579.2969 L354.5729,579.2969 " fill="#FEFFDD" style="stroke:#181818;stroke-width:0.5;"/><path d="M604.5729,579.2969 L604.5729,589.2969 L614.5729,589.2969 L604.5729,579.2969 " fill="#FEFFDD" style="stroke:#181818;stroke-width:0.5;"/><text fill="#000000" font-family="sans-serif" font-size="13" font-weight="bold" lengthAdjust="spacing" textLength="132.939" x="360.5729" y="596.3638">SSistema Muestra</text><ellipse cx="366.0729" cy="607.0625" fill="#000000" rx="2.5" ry="2.5"/><text fill="#000000" font-family="sans-serif" font-size="13" lengthAdjust="spacing" textLength="227.9761" x="372.5729" y="611.4966">gu&#237;a cumple estandares de calidad</text></g><!--link GuiaCumpleRequisitos to *end*VerificarCumplimientoConMemoriaVerificada--><g id="link_GuiaCumpleRequisitos_*end*VerificarCumplimientoConMemoriaVerificada"><path d="M351.1929,692.4869 C350.3529,713.3369 345.6729,742.7769 327.5729,760.2969 C310.4829,776.8369 242.699,784.3523 214.529,786.8723 " fill="#FFFFFF" fill-opacity="0.00000" id="GuiaCumpleRequisitos-to-*end*VerificarCumplimientoConMemoriaVerificada" style="stroke:#181818;stroke-width:1;"/><polygon fill="#181818" points="208.5529,787.4069,217.8735,790.5891,213.533,786.9614,217.1607,782.6209,208.5529,787.4069" style="stroke:#181818;stroke-width:1;"/><path d="M353.5729,715.2969 L353.5729,755.2969 L620.5729,755.2969 L620.5729,725.2969 L610.5729,715.2969 L353.5729,715.2969 " fill="#FEFFDD" style="stroke:#181818;stroke-width:0.5;"/><path d="M610.5729,715.2969 L610.5729,725.2969 L620.5729,725.2969 L610.5729,715.2969 " fill="#FEFFDD" style="stroke:#181818;stroke-width:0.5;"/><text fill="#000000" font-family="sans-serif" font-size="13" font-weight="bold" lengthAdjust="spacing" textLength="121.8433" x="359.5729" y="732.3638">Sistema Retorna</text><ellipse cx="365.0729" cy="743.0625" fill="#000000" rx="2.5" ry="2.5"/><text fill="#000000" font-family="sans-serif" font-size="13" lengthAdjust="spacing" textLength="234.5649" x="371.5729" y="747.4966">al estado inicial sin seleccionar gu&#237;a</text></g><g id="ListadoGu&#237;as"><rect fill="#F1F1F1" height="50" rx="12.5" ry="12.5" style="stroke:#181818;stroke-width:0.5;" width="109.9883" x="263.29" y="7"/><line style="stroke:#181818;stroke-width:0.5;" x1="263.29" x2="373.2783" y1="33.2969" y2="33.2969"/><text fill="#000000" font-family="sans-serif" font-size="14" lengthAdjust="spacing" textLength="89.9883" x="273.29" y="24.9951">ListadoGu&#237;as</text></g><!--reverse link VerificarCumplimientoConMemoriaVerificada to ListadoGu?as--><g id="link_VerificarCumplimientoConMemoriaVerificada_ListadoGu&#237;as"><path d="M328.9824,110.876 C327.9024,86.686 326.74,72.07 324.96,57.33 " fill="#FFFFFF" fill-opacity="0.00000" id="VerificarCumplimientoConMemoriaVerificada-backto-ListadoGu&#237;as" style="stroke:#181818;stroke-width:1;"/><polygon fill="#181818" points="329.25,116.87,332.8446,107.7005,329.027,111.875,324.8526,108.0574,329.25,116.87" style="stroke:#181818;stroke-width:1;"/></g><!--reverse link ListadoGu?as to VerificarCumplimientoConMemoriaVerificada--><g id="link_ListadoGu&#237;as_VerificarCumplimientoConMemoriaVerificada"><path d="M311.3005,63.2914 C309.6205,78.0314 308.96,92.68 307.93,116.87 " fill="#FFFFFF" fill-opacity="0.00000" id="ListadoGu&#237;as-backto-VerificarCumplimientoConMemoriaVerificada" style="stroke:#181818;stroke-width:1;"/><polygon fill="#181818" points="311.98,57.33,306.9865,65.8191,311.4138,62.2978,314.9351,66.7251,311.98,57.33" style="stroke:#181818;stroke-width:1;"/></g><!--SRC=[nPInJiCm48RtFCMfOwM85uYo5AbBYr0hiI06rpdWX6CNs-c2U2Gc7g4lnjbfAbCI4h6GpRdV_ttwx-GLEIygisoE7y91tkpp4kxGqYD9OHTDlLTK4sfl5aQliJQMH5UkH9RnPO_JBy1R1lorjxQeK4eoMjXbGmAu_mncYU1isr_Ue6jKWEzqmGkAGZuRabYMYJGOt9X8XnjyRSYHD-wdPT0DgRAekvy_GCuPNS37cZPimGYAz4lyKUpAQx8elR5GiRjbMDWQHPAyAAvsBU8SgaGaXQ9ALE3E3U0f32TAKLUnIyjo6M2UpkvNgYrF7Mi1jsXhyZY2SZXvWXfc-JwhGD8xdb6YTOFEspGSTwhKRGLGWUsi0oL37SuTZf-w1wv_KmBam6Ry0JC6mtT0HY_Wkj2LODGaoXwseTqCTBnieoGRv6dfb4Ies9pJ8SsRnaT7EjadEpZ4aPocfpGMq_ICmY7hOlhla2BCUvPDV-_Q1tMLFh9V]--></g></svg>