<svg xmlns="http://www.w3.org/2000/svg" xmlns:xlink="http://www.w3.org/1999/xlink" contentStyleType="text/css" height="970px" preserveAspectRatio="none" style="width:1116px;height:970px;background:#FFFFFF;" version="1.1" viewBox="0 0 1116 970" width="1116px" zoomAndPan="magnify"><title>Ver listado de los estados de las gu&#237;as docentes</title><defs/><g><text fill="#000000" font-family="sans-serif" font-size="14" font-weight="bold" lengthAdjust="spacing" textLength="380.7275" x="360.8" y="22.9951">Ver listado de los estados de las gu&#237;as docentes</text><g id="INICIO"><rect fill="#F1F1F1" height="50" rx="12.5" ry="12.5" style="stroke:#181818;stroke-width:0.5;" width="63.6543" x="442" y="44.2969"/><line style="stroke:#181818;stroke-width:0.5;" x1="442" x2="505.6543" y1="70.5938" y2="70.5938"/><text fill="#000000" font-family="sans-serif" font-size="14" lengthAdjust="spacing" textLength="43.6543" x="452" y="62.292">INICIO</text></g><g id="INICIAR_SESION"><rect fill="#F1F1F1" height="50" rx="12.5" ry="12.5" style="stroke:#181818;stroke-width:0.5;" width="128.6299" x="409.5" y="171.2969"/><line style="stroke:#181818;stroke-width:0.5;" x1="409.5" x2="538.1299" y1="197.5938" y2="197.5938"/><text fill="#000000" font-family="sans-serif" font-size="14" lengthAdjust="spacing" textLength="108.6299" x="419.5" y="189.292">INICIAR SESI&#211;N</text></g><g id="MENU_PRINCIPAL"><rect fill="#F1F1F1" height="50" rx="12.5" ry="12.5" style="stroke:#181818;stroke-width:0.5;" width="138.5898" x="404.5" y="298.2969"/><line style="stroke:#181818;stroke-width:0.5;" x1="404.5" x2="543.0898" y1="324.5938" y2="324.5938"/><text fill="#000000" font-family="sans-serif" font-size="14" lengthAdjust="spacing" textLength="118.5898" x="414.5" y="316.292">MEN&#218; PRINCIPAL</text></g><g id="SELECCIONAR_OPCION"><rect fill="#F1F1F1" height="50" rx="12.5" ry="12.5" style="stroke:#181818;stroke-width:0.5;" width="383.4463" x="282.5" y="425.2969"/><line style="stroke:#181818;stroke-width:0.5;" x1="282.5" x2="665.9463" y1="451.5938" y2="451.5938"/><text fill="#000000" font-family="sans-serif" font-size="14" lengthAdjust="spacing" textLength="363.4463" x="292.5" y="443.292">SELECCIONAR OPCI&#211;N: 'VER LISTADO DE ESTADOS'</text></g><g id="VISUALIZAR_TABLA"><rect fill="#F1F1F1" height="50" rx="12.5" ry="12.5" style="stroke:#181818;stroke-width:0.5;" width="247.876" x="134" y="653.2969"/><line style="stroke:#181818;stroke-width:0.5;" x1="134" x2="381.876" y1="679.5938" y2="679.5938"/><text fill="#000000" font-family="sans-serif" font-size="14" lengthAdjust="spacing" textLength="227.876" x="144" y="671.292">VISUALIZAR TABLA DE ESTADOS</text></g><g id="FINAL"><rect fill="#F1F1F1" height="50" rx="12.5" ry="12.5" style="stroke:#181818;stroke-width:0.5;" width="60.0313" x="585" y="914.2969"/><line style="stroke:#181818;stroke-width:0.5;" x1="585" x2="645.0313" y1="940.5938" y2="940.5938"/><text fill="#000000" font-family="sans-serif" font-size="14" lengthAdjust="spacing" textLength="40.0313" x="595" y="932.292">FINAL</text></g><g id="SIN_GUIAS"><rect fill="#F1F1F1" height="50" rx="12.5" ry="12.5" style="stroke:#181818;stroke-width:0.5;" width="267.6182" x="558" y="733.2969"/><line style="stroke:#181818;stroke-width:0.5;" x1="558" x2="825.6182" y1="759.5938" y2="759.5938"/><text fill="#000000" font-family="sans-serif" font-size="14" lengthAdjust="spacing" textLength="247.6182" x="568" y="751.292">MENSAJE: SIN GU&#205;AS REGISTRADAS</text></g><g id="ERROR"><rect fill="#F1F1F1" height="50" rx="12.5" ry="12.5" style="stroke:#181818;stroke-width:0.5;" width="246.3379" x="7" y="914.2969"/><line style="stroke:#181818;stroke-width:0.5;" x1="7" x2="253.3379" y1="940.5938" y2="940.5938"/><text fill="#000000" font-family="sans-serif" font-size="14" lengthAdjust="spacing" textLength="226.3379" x="17" y="932.292">NOTIFICACI&#211;N: ERROR T&#201;CNICO</text></g><g id="elem_Condicion1"><polygon fill="#F1F1F1" points="474,552.2969,486,564.2969,474,576.2969,462,564.2969,474,552.2969" style="stroke:#181818;stroke-width:0.5;"/></g><g id="elem_Condicion2"><polygon fill="#F1F1F1" points="407,813.2969,419,825.2969,407,837.2969,395,825.2969,407,813.2969" style="stroke:#181818;stroke-width:0.5;"/></g><!--link INICIO to INICIAR_SESION--><g id="link_INICIO_INICIAR_SESION"><path d="M474,94.3969 C474,116.5369 474,143.1569 474,165.2669 " fill="none" id="INICIO-to-INICIAR_SESION" style="stroke:#181818;stroke-width:1;"/><polygon fill="#181818" points="474,171.2669,478,162.2669,474,166.2669,470,162.2669,474,171.2669" style="stroke:#181818;stroke-width:1;"/><text fill="#000000" font-family="sans-serif" font-size="13" lengthAdjust="spacing" textLength="262.3423" x="475" y="137.3638">T&#233;cnico de Calidad solicita iniciar sesi&#243;n</text></g><!--link INICIAR_SESION to MENU_PRINCIPAL--><g id="link_INICIAR_SESION_MENU_PRINCIPAL"><path d="M474,221.3969 C474,243.5369 474,270.1569 474,292.2669 " fill="none" id="INICIAR_SESION-to-MENU_PRINCIPAL" style="stroke:#181818;stroke-width:1;"/><polygon fill="#181818" points="474,298.2669,478,289.2669,474,293.2669,470,289.2669,474,298.2669" style="stroke:#181818;stroke-width:1;"/><text fill="#000000" font-family="sans-serif" font-size="13" lengthAdjust="spacing" textLength="383.8301" x="475" y="264.3638">Sistema permite iniciar sesi&#243;n y muestra el men&#250; principal</text></g><!--link MENU_PRINCIPAL to SELECCIONAR_OPCION--><g id="link_MENU_PRINCIPAL_SELECCIONAR_OPCION"><path d="M474,348.3969 C474,370.5369 474,397.1569 474,419.2669 " fill="none" id="MENU_PRINCIPAL-to-SELECCIONAR_OPCION" style="stroke:#181818;stroke-width:1;"/><polygon fill="#181818" points="474,425.2669,478,416.2669,474,420.2669,470,416.2669,474,425.2669" style="stroke:#181818;stroke-width:1;"/><text fill="#000000" font-family="sans-serif" font-size="13" lengthAdjust="spacing" textLength="283.6704" x="475" y="391.3638">T&#233;cnico selecciona "Ver listado de estados"</text></g><!--link SELECCIONAR_OPCION to Condicion1--><g id="link_SELECCIONAR_OPCION_Condicion1"><path d="M474,475.3269 C474,499.1069 474,528.4569 474,546.2369 " fill="none" id="SELECCIONAR_OPCION-to-Condicion1" style="stroke:#181818;stroke-width:1;"/><polygon fill="#181818" points="474,552.2369,478,543.2369,474,547.2369,470,543.2369,474,552.2369" style="stroke:#181818;stroke-width:1;"/><text fill="#000000" font-family="sans-serif" font-size="13" lengthAdjust="spacing" textLength="182.0698" x="475" y="518.3638">Sistema procesa la solicitud</text></g><!--link Condicion1 to VISUALIZAR_TABLA--><g id="link_Condicion1_VISUALIZAR_TABLA"><path d="M463.81,566.3169 C428.99,569.9669 315.45,583.4569 288,606.2969 C273.91,618.0269 267.8072,631.7267 263.7872,647.3267 " fill="none" id="Condicion1-to-VISUALIZAR_TABLA" style="stroke:#181818;stroke-width:1;"/><polygon fill="#181818" points="262.29,653.1369,268.4093,645.4198,263.5377,648.2951,260.6624,643.4234,262.29,653.1369" style="stroke:#181818;stroke-width:1;"/><text fill="#000000" font-family="sans-serif" font-size="13" lengthAdjust="spacing" textLength="347.2866" x="289" y="619.3638">[Gu&#237;as registradas] Sistema presenta tabla con datos</text></g><!--link Condicion1 to SIN_GUIAS--><g id="link_Condicion1_SIN_GUIAS"><path d="M485.88,564.5969 C515.95,563.5069 595.93,564.8969 641,606.2969 C677.27,639.6169 687.2208,693.6212 690.2408,727.0912 " fill="none" id="Condicion1-to-SIN_GUIAS" style="stroke:#181818;stroke-width:1;"/><polygon fill="#181818" points="690.78,733.0669,693.955,723.7438,690.3307,728.0871,685.9874,724.4627,690.78,733.0669" style="stroke:#181818;stroke-width:1;"/><text fill="#000000" font-family="sans-serif" font-size="13" lengthAdjust="spacing" textLength="452.3276" x="656" y="619.3638">[Sin gu&#237;as registradas] Sistema informa que no hay datos disponibles</text></g><!--link SIN_GUIAS to FINAL--><g id="link_SIN_GUIAS_FINAL"><path d="M691.15,783.6669 C689.35,809.8769 683.82,852.1369 667,884.2969 C661.27,895.2569 656.88,901.2817 648.28,909.8517 " fill="none" id="SIN_GUIAS-to-FINAL" style="stroke:#181818;stroke-width:1;"/><polygon fill="#181818" points="644.03,914.0869,653.2286,910.5674,647.5717,910.5575,647.5816,904.9007,644.03,914.0869" style="stroke:#181818;stroke-width:1;"/></g><!--link VISUALIZAR_TABLA to Condicion2--><g id="link_VISUALIZAR_TABLA_Condicion2"><path d="M246.28,703.4169 C237.01,726.3769 228.28,760.6969 246,783.2969 C280.45,827.2469 314.01,799.0469 368,813.2969 C378.48,816.0569 384.6978,817.8044 392.5878,820.0944 " fill="none" id="VISUALIZAR_TABLA-to-Condicion2" style="stroke:#181818;stroke-width:1;"/><polygon fill="#181818" points="398.35,821.7669,390.8216,815.4168,393.5482,820.3732,388.5917,823.0997,398.35,821.7669" style="stroke:#181818;stroke-width:1;"/><text fill="#000000" font-family="sans-serif" font-size="13" lengthAdjust="spacing" textLength="293.2363" x="247" y="762.8638">T&#233;cnico aplica filtros u ordena la informaci&#243;n</text></g><!--link Condicion2 to FINAL--><g id="link_Condicion2_FINAL"><path d="M415.14,829.4469 C431.53,835.8769 469.55,851.2769 500,867.2969 C529.7,882.9169 557.0761,899.9566 579.8961,914.8566 " fill="none" id="Condicion2-to-FINAL" style="stroke:#181818;stroke-width:1;"/><polygon fill="#181818" points="584.92,918.1369,579.571,909.8672,580.7334,915.4033,575.1973,916.5657,584.92,918.1369" style="stroke:#181818;stroke-width:1;"/><text fill="#000000" font-family="sans-serif" font-size="13" lengthAdjust="spacing" textLength="128.1147" x="530" y="880.3638">[Operaci&#243;n exitosa]</text></g><!--link Condicion2 to ERROR--><g id="link_Condicion2_ERROR"><path d="M398.41,829.0869 C390.56,831.5469 378.6,835.0769 368,837.2969 C320.57,847.2269 188.93,835.9269 152,867.2969 C138.53,878.7469 133.9511,892.3179 131.8911,908.0079 " fill="none" id="Condicion2-to-ERROR" style="stroke:#181818;stroke-width:1;"/><polygon fill="#181818" points="131.11,913.9569,136.2476,905.5542,131.7609,908.9994,128.3156,904.5128,131.11,913.9569" style="stroke:#181818;stroke-width:1;"/><text fill="#000000" font-family="sans-serif" font-size="13" lengthAdjust="spacing" textLength="338.4951" x="153" y="880.3638">[Error t&#233;cnico] Sistema notifica y permite reintentar</text></g><!--link ERROR to VISUALIZAR_TABLA--><g id="link_ERROR_VISUALIZAR_TABLA"><path d="M121.34,914.2069 C113.47,888.2269 105.03,846.1769 119,813.2969 C139.26,765.6369 180.7638,730.1221 214.4038,706.7321 " fill="none" id="ERROR-to-VISUALIZAR_TABLA" style="stroke:#181818;stroke-width:1;"/><polygon fill="#181818" points="219.33,703.3069,209.6572,705.1606,215.2248,706.1612,214.2241,711.7289,219.33,703.3069" style="stroke:#181818;stroke-width:1;"/><text fill="#000000" font-family="sans-serif" font-size="13" lengthAdjust="spacing" textLength="257.0674" x="120" y="829.8638">T&#233;cnico reintenta cargar la informaci&#243;n</text></g><!--SRC=[TLGzRzim4DtrAmvUCcLeHYCmmCgAmSAL3D7sq28m68bn2CYaIz90_HCwTEhMVz2XKxUk-cCzKX-MbNIIoRltxjtTevrqbG3O2WELj8wN6ae1bROWmic68xUmFzM_yLFgGYWdR1HXs0cWAOrfrXucuKHoO0cZzOzq0eXextR-Bakxp8z9Ml-4LKxJcAx8CcJYtMRNNtMPB5acCTP8aJTRnPvt2ZVR98SbPMiops2UG19-iPl0Cq3iFE9ITKlPXYpf9wHQa_TBCe06v2M-2_4Mzq1Jr3EGpiY7P0gCfh3OrDy9WpnPe9YSp4b3XA7TOaC9wq1fjgOFD2Qj_YJFCzHGVujnEbc0XAkkIAnLAGkfrJkulozUj2p4R3QEtGrZKRC9kBsTZKOEKopqgr2o2BkDUILBNeBL5R8u3X8ZaXkmmihwZuf6Q4zulHaaPEWLSU1m5EOWKTE80yvmEA6130THmK6e-YySZLI5FF8g6h7v0gzNDbHjHIKAtp775LuxjNNf97g3mHCF1ZbGRT35bgElkocSoYWQf7has0k8_xne7e4HU-cRAxbz790AYq-3W-DFI5ne1ILtsevvUsjuGYPLzxBU99NgMHlyVZa9K1fU-BaXXLBQerRogSAdU67q_ArPNyc_ciRTSBpyY3FWy2mhPv3w1DgKGeNnjFMBO8m1kY_acyZG1KqAYAyIrV77SMxZTynDZD46N5lwqgZIJZvx5UVUKqP8_AV1YPgeWVzdAtqVFG0ARlRenb43_m00]--></g></svg>