<svg xmlns="http://www.w3.org/2000/svg" xmlns:xlink="http://www.w3.org/1999/xlink" contentStyleType="text/css" height="194px" preserveAspectRatio="none" style="width:368px;height:194px;background:#FFFFFF;" version="1.1" viewBox="0 0 368 194" width="368px" zoomAndPan="magnify"><defs/><g><!--entity SuperAdmin--><g id="elem_SuperAdmin"><ellipse cx="51.165" cy="61" fill="#F1F1F1" rx="8" ry="8" style="stroke:#181818;stroke-width:0.5;"/><path d="M51.165,69 L51.165,96 M38.165,77 L64.165,77 M51.165,96 L38.165,111 M51.165,96 L64.165,111 " fill="none" style="stroke:#181818;stroke-width:0.5;"/><text fill="#000000" font-family="sans-serif" font-size="14" lengthAdjust="spacing" textLength="90.3301" x="6" y="125.4951">Super Admin</text></g><g id="elem_IniciarSesion"><ellipse cx="259.1192" cy="22.3238" fill="#F1F1F1" rx="69.6192" ry="16.3238" style="stroke:#181818;stroke-width:0.5;"/><text fill="#000000" font-family="sans-serif" font-size="14" lengthAdjust="spacing" textLength="91.793" x="210.2227" y="26.0714">Iniciar sesi&#243;n</text></g><g id="elem_CerrarSesion"><ellipse cx="259.1428" cy="90.4286" fill="#F1F1F1" rx="70.1428" ry="16.4286" style="stroke:#181818;stroke-width:0.5;"/><text fill="#000000" font-family="sans-serif" font-size="14" lengthAdjust="spacing" textLength="93.2148" x="209.5353" y="94.1761">Cerrar sesi&#243;n</text></g><g id="elem_ImportarBD"><ellipse cx="259.2205" cy="165.5441" fill="#F1F1F1" rx="103.2205" ry="23.0441" style="stroke:#181818;stroke-width:0.5;"/><text fill="#000000" font-family="sans-serif" font-size="14" lengthAdjust="spacing" textLength="171.1309" x="173.6551" y="168.3908">Importar bases de datos</text></g><!--link SuperAdmin to IniciarSesion--><g id="link_SuperAdmin_IniciarSesion"><path d="M96.19,75.91 C132.25,64.01 177.0721,49.2098 212.0221,37.6798 " fill="none" id="SuperAdmin-to-IniciarSesion" style="stroke:#181818;stroke-width:1;"/><polygon fill="#181818" points="217.72,35.8,207.9199,34.821,212.9717,37.3665,210.4263,42.4183,217.72,35.8" style="stroke:#181818;stroke-width:1;"/></g><!--link SuperAdmin to CerrarSesion--><g id="link_SuperAdmin_CerrarSesion"><path d="M96.19,90.5 C123.15,90.5 152.18,90.5 182.76,90.5 " fill="none" id="SuperAdmin-to-CerrarSesion" style="stroke:#181818;stroke-width:1;"/><polygon fill="#181818" points="188.76,90.5,179.76,86.5,183.76,90.5,179.76,94.5,188.76,90.5" style="stroke:#181818;stroke-width:1;"/></g><!--link SuperAdmin to ImportarBD--><g id="link_SuperAdmin_ImportarBD"><path d="M96.19,106.59 C127.88,118.12 165.082,131.6675 198.732,143.9175 " fill="none" id="SuperAdmin-to-ImportarBD" style="stroke:#181818;stroke-width:1;"/><polygon fill="#181818" points="204.37,145.97,197.2813,139.1326,199.6716,144.2596,194.5446,146.65,204.37,145.97" style="stroke:#181818;stroke-width:1;"/></g><!--SRC=[NOxB3SCm34FldeB8FIiKwEUISoPmRRKLqDY1f4pM4RfOZ3X8KHz9Ff5wqyDW6SBFbo6oK33EoJaVB0kwSPb9S8uJfmvUiUbDEhSe1Q-4RaWSs0kKbB-V2kxUMAnITw1N4cd8QhNWCCrPhA3t8XMH4BrbhTrxThavzti8VNzgPflmRwazF3fN]--></g></svg>