<svg xmlns="http://www.w3.org/2000/svg" xmlns:xlink="http://www.w3.org/1999/xlink" contentStyleType="text/css" data-diagram-type="STATE" height="1392px" preserveAspectRatio="none" style="width:749px;height:1392px;background:#FFFFFF;" version="1.1" viewBox="0 0 749 1392" width="749px" zoomAndPan="magnify"><defs/><g><path d="M19.5,86 L723.251,86 A12.5,12.5 0 0 1 735.751,98.5 L735.751,112.2969 L7,112.2969 L7,98.5 A12.5,12.5 0 0 1 19.5,86 " fill="#F1F1F1" style="stroke:#F1F1F1;stroke-width:1;"/><rect fill="#FFFFFF" fill-opacity="0.00000" height="1218.2969" rx="12.5" ry="12.5" style="stroke:#181818;stroke-width:0.5;" width="728.751" x="7" y="86"/><line style="stroke:#181818;stroke-width:0.5;" x1="7" x2="735.751" y1="112.2969" y2="112.2969"/><text fill="#000000" font-family="sans-serif" font-size="14" lengthAdjust="spacing" textLength="120.4082" x="311.1714" y="103.9951">AsignarSIIUyDGU</text><g id="AsignarSIIUyDGU.Estado1"><rect fill="#F1F1F1" height="50" rx="12.5" ry="12.5" style="stroke:#181818;stroke-width:0.5;" width="278.2139" x="420.33" y="180.2969"/><line style="stroke:#181818;stroke-width:0.5;" x1="420.33" x2="698.5439" y1="206.5938" y2="206.5938"/><text fill="#000000" font-family="sans-serif" font-size="14" lengthAdjust="spacing" textLength="258.2139" x="430.33" y="198.292">El Usuario solicita acceder al m&#243;dulo</text></g><g id="AsignarSIIUyDGU.Estado2"><rect fill="#F1F1F1" height="50" rx="12.5" ry="12.5" style="stroke:#181818;stroke-width:0.5;" width="213.2041" x="452.84" y="267.2969"/><line style="stroke:#181818;stroke-width:0.5;" x1="452.84" x2="666.0441" y1="293.5938" y2="293.5938"/><text fill="#000000" font-family="sans-serif" font-size="14" lengthAdjust="spacing" textLength="193.2041" x="462.84" y="285.292">El Sistema permite acceder</text></g><g id="AsignarSIIUyDGU.Estado3"><rect fill="#F1F1F1" height="50" rx="12.5" ry="12.5" style="stroke:#181818;stroke-width:0.5;" width="239.9668" x="439.46" y="354.2969"/><line style="stroke:#181818;stroke-width:0.5;" x1="439.46" x2="679.4268" y1="380.5938" y2="380.5938"/><text fill="#000000" font-family="sans-serif" font-size="14" lengthAdjust="spacing" textLength="219.9668" x="449.46" y="372.292">El Usuario solicita asignar valor</text></g><rect fill="#555555" height="8" style="stroke:#FFFFFF00;stroke-width:1;" width="80" x="433.44" y="441.2969"/><g id="AsignarSIIUyDGU.Estado4"><rect fill="#F1F1F1" height="50" rx="12.5" ry="12.5" style="stroke:#181818;stroke-width:0.5;" width="290.4844" x="328.2" y="486.2969"/><line style="stroke:#181818;stroke-width:0.5;" x1="328.2" x2="618.6844" y1="512.5938" y2="512.5938"/><text fill="#000000" font-family="sans-serif" font-size="14" lengthAdjust="spacing" textLength="270.4844" x="338.2" y="504.292">El Usuario selecciona par&#225;metros DGU</text></g><g id="AsignarSIIUyDGU.Estado5"><rect fill="#F1F1F1" height="50" rx="12.5" ry="12.5" style="stroke:#181818;stroke-width:0.5;" width="286" x="24.44" y="486.2969"/><line style="stroke:#181818;stroke-width:0.5;" x1="24.44" x2="310.44" y1="512.5938" y2="512.5938"/><text fill="#000000" font-family="sans-serif" font-size="14" lengthAdjust="spacing" textLength="266" x="34.44" y="504.292">El Usuario selecciona par&#225;metros SIIU</text></g><rect fill="#555555" height="8" style="stroke:#FFFFFF00;stroke-width:1;" width="80" x="287.44" y="573.2969"/><g id="AsignarSIIUyDGU.Estado6"><rect fill="#F1F1F1" height="50" rx="12.5" ry="12.5" style="stroke:#181818;stroke-width:0.5;" width="218.3857" x="218.25" y="618.2969"/><line style="stroke:#181818;stroke-width:0.5;" x1="218.25" x2="436.6357" y1="644.5938" y2="644.5938"/><text fill="#000000" font-family="sans-serif" font-size="14" lengthAdjust="spacing" textLength="198.3857" x="228.25" y="636.292">El Sistema solicita datos PDI</text></g><g id="AsignarSIIUyDGU.Estado7"><rect fill="#F1F1F1" height="50" rx="12.5" ry="12.5" style="stroke:#181818;stroke-width:0.5;" width="216.916" x="218.98" y="705.2969"/><line style="stroke:#181818;stroke-width:0.5;" x1="218.98" x2="435.896" y1="731.5938" y2="731.5938"/><text fill="#000000" font-family="sans-serif" font-size="14" lengthAdjust="spacing" textLength="196.916" x="228.98" y="723.292">El Usuario introduce valores</text></g><g id="elem_choice1"><polygon fill="#F1F1F1" points="338.44,792.2969,350.44,804.2969,338.44,816.2969,326.44,804.2969,338.44,792.2969" style="stroke:#181818;stroke-width:0.5;"/></g><g id="AsignarSIIUyDGU.Estado8"><rect fill="#F1F1F1" height="50" rx="12.5" ry="12.5" style="stroke:#181818;stroke-width:0.5;" width="220.2656" x="228.31" y="869.2969"/><line style="stroke:#181818;stroke-width:0.5;" x1="228.31" x2="448.5756" y1="895.5938" y2="895.5938"/><text fill="#000000" font-family="sans-serif" font-size="14" lengthAdjust="spacing" textLength="200.2656" x="238.31" y="887.292">El Sistema realiza validaci&#243;n</text></g><g id="AsignarSIIUyDGU.Estado9"><rect fill="#F1F1F1" height="50" rx="12.5" ry="12.5" style="stroke:#181818;stroke-width:0.5;" width="224.4082" x="380.24" y="937.2969"/><line style="stroke:#181818;stroke-width:0.5;" x1="380.24" x2="604.6482" y1="963.5938" y2="963.5938"/><text fill="#000000" font-family="sans-serif" font-size="14" lengthAdjust="spacing" textLength="204.4082" x="390.24" y="955.292">El Sistema guarda sin validar</text></g><g id="elem_choice2"><polygon fill="#F1F1F1" points="338.44,1005.2969,350.44,1017.2969,338.44,1029.2969,326.44,1017.2969,338.44,1005.2969" style="stroke:#181818;stroke-width:0.5;"/></g><g id="AsignarSIIUyDGU.Estado10"><rect fill="#F1F1F1" height="50" rx="12.5" ry="12.5" style="stroke:#181818;stroke-width:0.5;" width="235.291" x="344.79" y="1082.2969"/><line style="stroke:#181818;stroke-width:0.5;" x1="344.79" x2="580.081" y1="1108.5938" y2="1108.5938"/><text fill="#000000" font-family="sans-serif" font-size="14" lengthAdjust="spacing" textLength="215.291" x="354.79" y="1100.292">El Sistema guarda informaci&#243;n</text></g><g id="AsignarSIIUyDGU.Estado11"><rect fill="#F1F1F1" height="50" rx="12.5" ry="12.5" style="stroke:#181818;stroke-width:0.5;" width="206.1973" x="120.34" y="1082.2969"/><line style="stroke:#181818;stroke-width:0.5;" x1="120.34" x2="326.5373" y1="1108.5938" y2="1108.5938"/><text fill="#000000" font-family="sans-serif" font-size="14" lengthAdjust="spacing" textLength="186.1973" x="130.34" y="1100.292">El Sistema detecta errores</text></g><g id="AsignarSIIUyDGU.Estado12"><rect fill="#F1F1F1" height="50" rx="12.5" ry="12.5" style="stroke:#181818;stroke-width:0.5;" width="224.8799" x="19" y="1169.2969"/><line style="stroke:#181818;stroke-width:0.5;" x1="19" x2="243.8799" y1="1195.5938" y2="1195.5938"/><text fill="#000000" font-family="sans-serif" font-size="14" lengthAdjust="spacing" textLength="204.8799" x="29" y="1187.292">El Sistema solicita correcci&#243;n</text></g><g id="elem_choice3"><polygon fill="#F1F1F1" points="608.44,1182.2969,620.44,1194.2969,608.44,1206.2969,596.44,1194.2969,608.44,1182.2969" style="stroke:#181818;stroke-width:0.5;"/></g><ellipse cx="559.44" cy="133.2969" fill="#222222" rx="10" ry="10" style="stroke:#222222;stroke-width:1;"/><ellipse cx="608.44" cy="1283.2969" fill="#FFFFFF" fill-opacity="0.00000" rx="11" ry="11" style="stroke:#222222;stroke-width:1;"/><ellipse cx="608.44" cy="1283.2969" fill="#222222" rx="6" ry="6" style="stroke:#222222;stroke-width:1;"/><!--link *start*AsignarSIIUyDGU to Estado1--><g id="link_*start*AsignarSIIUyDGU_Estado1"><path d="M559.44,143.7369 C559.44,152.9969 559.44,161.4869 559.44,173.9769 " fill="#FFFFFF" fill-opacity="0.00000" id="*start*AsignarSIIUyDGU-to-Estado1" style="stroke:#181818;stroke-width:1;"/><polygon fill="#181818" points="559.44,179.9769,563.44,170.9769,559.44,174.9769,555.44,170.9769,559.44,179.9769" style="stroke:#181818;stroke-width:1;"/></g><!--link Estado1 to Estado2--><g id="link_Estado1_Estado2"><path d="M559.44,230.4269 C559.44,241.8169 559.44,249.3769 559.44,260.8069 " fill="#FFFFFF" fill-opacity="0.00000" id="Estado1-to-Estado2" style="stroke:#181818;stroke-width:1;"/><polygon fill="#181818" points="559.44,266.8069,563.44,257.8069,559.44,261.8069,555.44,257.8069,559.44,266.8069" style="stroke:#181818;stroke-width:1;"/></g><!--link Estado2 to Estado3--><g id="link_Estado2_Estado3"><path d="M559.44,317.4269 C559.44,328.8169 559.44,336.3769 559.44,347.8069 " fill="#FFFFFF" fill-opacity="0.00000" id="Estado2-to-Estado3" style="stroke:#181818;stroke-width:1;"/><polygon fill="#181818" points="559.44,353.8069,563.44,344.8069,559.44,348.8069,555.44,344.8069,559.44,353.8069" style="stroke:#181818;stroke-width:1;"/></g><!--link Estado3 to fork1--><g id="link_Estado3_fork1"><path d="M526.93,404.4969 C508.47,418.2269 492.0857,430.4279 482.8957,437.2579 " fill="#FFFFFF" fill-opacity="0.00000" id="Estado3-to-fork1" style="stroke:#181818;stroke-width:1;"/><polygon fill="#181818" points="478.08,440.8369,487.6895,438.6788,482.0931,437.8544,482.9175,432.2579,478.08,440.8369" style="stroke:#181818;stroke-width:1;"/></g><!--link fork1 to Estado4--><g id="link_fork1_Estado4"><path d="M473.44,449.7369 C473.44,456.5369 473.44,466.2369 473.44,479.9469 " fill="#FFFFFF" fill-opacity="0.00000" id="fork1-to-Estado4" style="stroke:#181818;stroke-width:1;"/><polygon fill="#181818" points="473.44,485.9469,477.44,476.9469,473.44,480.9469,469.44,476.9469,473.44,485.9469" style="stroke:#181818;stroke-width:1;"/></g><!--link fork1 to Estado5--><g id="link_fork1_Estado5"><path d="M456.99,449.7369 C424.53,456.5269 355.5629,470.9485 290.1129,484.6385 " fill="#FFFFFF" fill-opacity="0.00000" id="fork1-to-Estado5" style="stroke:#181818;stroke-width:1;"/><polygon fill="#181818" points="284.24,485.8669,293.8683,487.9395,289.1341,484.8432,292.2304,480.109,284.24,485.8669" style="stroke:#181818;stroke-width:1;"/></g><!--link Estado4 to join1--><g id="link_Estado4_join1"><path d="M417.83,536.6769 C386.56,550.3769 356.2639,563.6551 340.7739,570.4551 " fill="#FFFFFF" fill-opacity="0.00000" id="Estado4-to-join1" style="stroke:#181818;stroke-width:1;"/><polygon fill="#181818" points="335.28,572.8669,345.1288,572.9118,339.8583,570.857,341.913,565.5866,335.28,572.8669" style="stroke:#181818;stroke-width:1;"/></g><!--link Estado5 to join1--><g id="link_Estado5_join1"><path d="M228.39,536.6769 C262.65,550.3769 296.3,563.8363 313.28,570.6363 " fill="#FFFFFF" fill-opacity="0.00000" id="Estado5-to-join1" style="stroke:#181818;stroke-width:1;"/><polygon fill="#181818" points="318.85,572.8669,311.9821,565.8077,314.2084,571.008,309.008,573.2343,318.85,572.8669" style="stroke:#181818;stroke-width:1;"/></g><!--link join1 to Estado6--><g id="link_join1_Estado6"><path d="M327.44,581.7369 C327.44,588.5369 327.44,598.2369 327.44,611.9469 " fill="#FFFFFF" fill-opacity="0.00000" id="join1-to-Estado6" style="stroke:#181818;stroke-width:1;"/><polygon fill="#181818" points="327.44,617.9469,331.44,608.9469,327.44,612.9469,323.44,608.9469,327.44,617.9469" style="stroke:#181818;stroke-width:1;"/></g><!--link Estado6 to Estado7--><g id="link_Estado6_Estado7"><path d="M327.44,668.4269 C327.44,679.8169 327.44,687.3769 327.44,698.8069 " fill="#FFFFFF" fill-opacity="0.00000" id="Estado6-to-Estado7" style="stroke:#181818;stroke-width:1;"/><polygon fill="#181818" points="327.44,704.8069,331.44,695.8069,327.44,699.8069,323.44,695.8069,327.44,704.8069" style="stroke:#181818;stroke-width:1;"/></g><!--link Estado7 to choice1--><g id="link_Estado7_choice1"><path d="M331.16,755.6769 C333.13,768.5669 334.5332,777.7558 336.0132,787.4358 " fill="#FFFFFF" fill-opacity="0.00000" id="Estado7-to-choice1" style="stroke:#181818;stroke-width:1;"/><polygon fill="#181818" points="336.92,793.3669,339.5138,783.8657,336.1643,788.4243,331.6057,785.0748,336.92,793.3669" style="stroke:#181818;stroke-width:1;"/></g><!--link choice1 to Estado8--><g id="link_choice1_Estado8"><path d="M338.44,816.7969 C338.44,829.9369 338.44,845.8069 338.44,862.8069 " fill="#FFFFFF" fill-opacity="0.00000" id="choice1-to-Estado8" style="stroke:#181818;stroke-width:1;"/><polygon fill="#181818" points="338.44,868.8069,342.44,859.8069,338.44,863.8069,334.44,859.8069,338.44,868.8069" style="stroke:#181818;stroke-width:1;"/><text fill="#000000" font-family="sans-serif" font-size="13" lengthAdjust="spacing" textLength="45.646" x="339.44" y="847.3638">Validar</text></g><!--link choice1 to Estado9--><g id="link_choice1_Estado9"><path d="M347.59,807.7869 C369.6,814.2369 426.02,833.5069 457.44,869.2969 C474.35,888.5569 482.1083,910.9911 486.7583,931.1011 " fill="#FFFFFF" fill-opacity="0.00000" id="choice1-to-Estado9" style="stroke:#181818;stroke-width:1;"/><polygon fill="#181818" points="488.11,936.9469,489.9796,927.2771,486.9836,932.0754,482.1853,929.0794,488.11,936.9469" style="stroke:#181818;stroke-width:1;"/><text fill="#000000" font-family="sans-serif" font-size="13" lengthAdjust="spacing" textLength="66.2568" x="437.44" y="847.3638">No validar</text></g><!--link Estado8 to choice2--><g id="link_Estado8_choice2"><path d="M338.44,919.7869 C338.44,945.6069 338.44,979.2069 338.44,998.6669 " fill="#FFFFFF" fill-opacity="0.00000" id="Estado8-to-choice2" style="stroke:#181818;stroke-width:1;"/><polygon fill="#181818" points="338.44,1004.6669,342.44,995.6669,338.44,999.6669,334.44,995.6669,338.44,1004.6669" style="stroke:#181818;stroke-width:1;"/></g><!--link choice2 to Estado10--><g id="link_choice2_Estado10"><path d="M345.11,1023.0269 C360.45,1033.9169 394.2568,1057.9046 423.0468,1078.3346 " fill="#FFFFFF" fill-opacity="0.00000" id="choice2-to-Estado10" style="stroke:#181818;stroke-width:1;"/><polygon fill="#181818" points="427.94,1081.8069,422.9151,1073.3363,423.8624,1078.9133,418.2854,1079.8605,427.94,1081.8069" style="stroke:#181818;stroke-width:1;"/><text fill="#000000" font-family="sans-serif" font-size="13" lengthAdjust="spacing" textLength="40.3013" x="401.44" y="1060.3638">V&#225;lida</text></g><!--link choice2 to Estado11--><g id="link_choice2_Estado11"><path d="M331.93,1023.2769 C317.48,1034.3369 286.7157,1057.8816 260.2157,1078.1516 " fill="#FFFFFF" fill-opacity="0.00000" id="choice2-to-Estado11" style="stroke:#181818;stroke-width:1;"/><polygon fill="#181818" points="255.45,1081.7969,265.0287,1079.506,259.4214,1078.7591,260.1683,1073.1518,255.45,1081.7969" style="stroke:#181818;stroke-width:1;"/><text fill="#000000" font-family="sans-serif" font-size="13" lengthAdjust="spacing" textLength="60.9121" x="299.44" y="1060.3638">No v&#225;lida</text></g><!--link Estado11 to Estado12--><g id="link_Estado11_Estado12"><path d="M197.32,1132.4269 C185,1143.8169 174.7284,1153.3068 162.3484,1164.7368 " fill="#FFFFFF" fill-opacity="0.00000" id="Estado11-to-Estado12" style="stroke:#181818;stroke-width:1;"/><polygon fill="#181818" points="157.94,1168.8069,167.266,1165.6406,161.6137,1165.4151,161.8392,1159.7627,157.94,1168.8069" style="stroke:#181818;stroke-width:1;"/></g><!--link Estado12 to Estado7--><g id="link_Estado12_Estado7"><path d="M113.54,1168.9669 C103.29,1152.6569 92.44,1130.2169 92.44,1108.2969 C92.44,803.2969 92.44,803.2969 92.44,803.2969 C92.44,774.6569 151.1643,757.3166 212.6343,746.2866 " fill="#FFFFFF" fill-opacity="0.00000" id="Estado12-to-Estado7" style="stroke:#181818;stroke-width:1;"/><polygon fill="#181818" points="218.54,745.2269,208.975,742.8793,213.6186,746.11,210.3879,750.7535,218.54,745.2269" style="stroke:#181818;stroke-width:1;"/></g><!--link Estado9 to choice3--><g id="link_Estado9_choice3"><path d="M518.71,987.5569 C541.21,1009.9169 572.56,1045.1769 589.44,1082.2969 C604.81,1116.1169 607.6745,1154.8789 608.2145,1175.7089 " fill="#FFFFFF" fill-opacity="0.00000" id="Estado9-to-choice3" style="stroke:#181818;stroke-width:1;"/><polygon fill="#181818" points="608.37,1181.7069,612.1354,1172.6062,608.2404,1176.7086,604.1381,1172.8136,608.37,1181.7069" style="stroke:#181818;stroke-width:1;"/></g><!--link Estado10 to choice3--><g id="link_Estado10_choice3"><path d="M504.28,1132.6569 C538.49,1152.5669 578.7546,1176.0183 596.1046,1186.1183 " fill="#FFFFFF" fill-opacity="0.00000" id="Estado10-to-choice3" style="stroke:#181818;stroke-width:1;"/><polygon fill="#181818" points="601.29,1189.1369,595.5243,1181.1521,596.9688,1186.6214,591.4995,1188.0659,601.29,1189.1369" style="stroke:#181818;stroke-width:1;"/></g><!--link choice3 to Estado3--><g id="link_choice3_Estado3"><path d="M613.41,1187.1169 C623.71,1173.6469 646.44,1140.3069 646.44,1108.2969 C646.44,444.2969 646.44,444.2969 646.44,444.2969 C646.44,427.2369 640.4011,417.6061 626.2311,407.9061 " fill="#FFFFFF" fill-opacity="0.00000" id="choice3-to-Estado3" style="stroke:#181818;stroke-width:1;"/><polygon fill="#181818" points="621.28,404.5169,626.4471,412.9014,625.4059,407.3412,630.9661,406.3,621.28,404.5169" style="stroke:#181818;stroke-width:1;"/><text fill="#000000" font-family="sans-serif" font-size="13" lengthAdjust="spacing" textLength="78.311" x="647.44" y="734.8638">Nuevo valor</text></g><!--link choice3 to *end*AsignarSIIUyDGU--><g id="link_choice3_*end*AsignarSIIUyDGU"><path d="M608.44,1206.6669 C608.44,1223.7169 608.44,1249.6169 608.44,1266.0069 " fill="#FFFFFF" fill-opacity="0.00000" id="choice3-to-*end*AsignarSIIUyDGU" style="stroke:#181818;stroke-width:1;"/><polygon fill="#181818" points="608.44,1272.0069,612.44,1263.0069,608.44,1267.0069,604.44,1263.0069,608.44,1272.0069" style="stroke:#181818;stroke-width:1;"/><text fill="#000000" font-family="sans-serif" font-size="13" lengthAdjust="spacing" textLength="54.6533" x="609.44" y="1250.3638">Finalizar</text></g><ellipse cx="371.38" cy="16" fill="#222222" rx="10" ry="10" style="stroke:#222222;stroke-width:1;"/><ellipse cx="371.38" cy="1375.3" fill="#FFFFFF" fill-opacity="0.00000" rx="11" ry="11" style="stroke:#222222;stroke-width:1;"/><ellipse cx="371.38" cy="1375.3" fill="#222222" rx="6" ry="6" style="stroke:#222222;stroke-width:1;"/><!--link *start* to AsignarSIIUyDGU--><g id="link_*start*_AsignarSIIUyDGU"><path d="M371.38,26.06 C371.38,37.17 371.38,51.96 371.38,79.55 " fill="#FFFFFF" fill-opacity="0.00000" id="*start*-to-AsignarSIIUyDGU" style="stroke:#181818;stroke-width:1;"/><polygon fill="#181818" points="371.38,85.55,375.38,76.55,371.38,80.55,367.38,76.55,371.38,85.55" style="stroke:#181818;stroke-width:1;"/></g><!--link AsignarSIIUyDGU to *end*--><g id="link_AsignarSIIUyDGU_*end*"><path d="M371.38,1304.6 C371.38,1331.76 371.38,1346.46 371.38,1357.99 " fill="#FFFFFF" fill-opacity="0.00000" id="AsignarSIIUyDGU-to-*end*" style="stroke:#181818;stroke-width:1;"/><polygon fill="#181818" points="371.38,1363.99,375.38,1354.99,371.38,1358.99,367.38,1354.99,371.38,1363.99" style="stroke:#181818;stroke-width:1;"/></g><!--SRC=[bLLBQiCm4Dtd54EMXK1avzSG0eMa9PjI2EacT25aDLLhMqLs0ctfONA6724NgsGvyI1_SBMnyCoycVTc96rlNg3NcyDT8dOnLUlLQlErUDXqEg1NajAKkoRuoMncRVFWfNOC9Bd-lsuiG7SPmYRPKoKa938KJAGKA6Cyu0fe2D7v5En3sGMQbA0AXBL8KXvH-EGg4lfV3e2Yl5PvBHiuq53YOBzSVLuBekWvDW_P_3hwhr9z49ZDp7S-Tn3y325pQIKV3pbZGiPQ1whEnuYdIYQWsuAe3FuFO9gB48RbMYoBWkwWrZAi8_8kHMo4C5yaXAF888FAV1tBiCBIC2ZNbWSqrHIV5Yl4SDIWaOYr9i6USJiaF45nut9cIwlWFtBA7Y7RkAvmzYO5uqOTkoiDoZX3oTtQq5USXkAR6WuYe4oSJp7YCMc8t6aP0gsVYFDWV4vkoxaljHSq9rDujf4DJhTJU9IN3CswUFMwJ90kNXjTSdOYrdCRbNGX_ORGWAUSwO7YIZbZGKYRGMHIANFwd9HUdQJuUY5zhUdvQCHgyY9MLCVHlT9m6uXxgH6lUM3pxY7TVHUXNsciRArVrLg7eO-lMKrmpm_IdirAH_qiJU5UnDdyMvVVpXNMVSxoY3y0]--></g></svg>