<svg xmlns="http://www.w3.org/2000/svg" xmlns:xlink="http://www.w3.org/1999/xlink" contentStyleType="text/css" data-diagram-type="STATE" height="998px" preserveAspectRatio="none" style="width:755px;height:998px;background:#FFFFFF;" version="1.1" viewBox="0 0 755 998" width="755px" zoomAndPan="magnify"><defs/><g><path d="M19.5,86 L729.0341,86 A12.5,12.5 0 0 1 741.5341,98.5 L741.5341,112.2969 L7,112.2969 L7,98.5 A12.5,12.5 0 0 1 19.5,86 " fill="#F1F1F1" style="stroke:#F1F1F1;stroke-width:1;"/><rect fill="#FFFFFF" fill-opacity="0.00000" height="824.2969" rx="12.5" ry="12.5" style="stroke:#181818;stroke-width:0.5;" width="734.5341" x="7" y="86"/><line style="stroke:#181818;stroke-width:0.5;" x1="7" x2="741.5341" y1="112.2969" y2="112.2969"/><text fill="#000000" font-family="sans-serif" font-size="14" lengthAdjust="spacing" textLength="138.4209" x="305.0566" y="103.9951">ObtenerIndicadores</text><g id="ObtenerIndicadores.Estado1"><rect fill="#F1F1F1" height="50" rx="12.5" ry="12.5" style="stroke:#181818;stroke-width:0.5;" width="304.9766" x="379.38" y="180.2969"/><line style="stroke:#181818;stroke-width:0.5;" x1="379.38" x2="684.3566" y1="206.5938" y2="206.5938"/><text fill="#000000" font-family="sans-serif" font-size="14" lengthAdjust="spacing" textLength="284.9766" x="389.38" y="198.292">El Sistema presenta opciones de gesti&#243;n</text></g><g id="ObtenerIndicadores.Estado2"><rect fill="#F1F1F1" height="50" rx="12.5" ry="12.5" style="stroke:#181818;stroke-width:0.5;" width="208.7197" x="357.51" y="267.2969"/><line style="stroke:#181818;stroke-width:0.5;" x1="357.51" x2="566.2297" y1="293.5938" y2="293.5938"/><text fill="#000000" font-family="sans-serif" font-size="14" lengthAdjust="spacing" textLength="188.7197" x="367.51" y="285.292">El Sistema solicita criterios</text></g><rect fill="#555555" height="8" style="stroke:#FFFFFF00;stroke-width:1;" width="80" x="395.87" y="354.2969"/><g id="ObtenerIndicadores.Estado3"><rect fill="#F1F1F1" height="50" rx="12.5" ry="12.5" style="stroke:#181818;stroke-width:0.5;" width="259.7363" x="19" y="399.2969"/><line style="stroke:#181818;stroke-width:0.5;" x1="19" x2="278.7363" y1="425.5938" y2="425.5938"/><text fill="#000000" font-family="sans-serif" font-size="14" lengthAdjust="spacing" textLength="239.7363" x="29" y="417.292">El Sistema procesa datos globales</text></g><g id="ObtenerIndicadores.Estado4"><rect fill="#F1F1F1" height="50" rx="12.5" ry="12.5" style="stroke:#181818;stroke-width:0.5;" width="278.501" x="296.62" y="399.2969"/><line style="stroke:#181818;stroke-width:0.5;" x1="296.62" x2="575.121" y1="425.5938" y2="425.5938"/><text fill="#000000" font-family="sans-serif" font-size="14" lengthAdjust="spacing" textLength="258.501" x="306.62" y="417.292">El Sistema procesa datos espec&#237;ficos</text></g><rect fill="#555555" height="8" style="stroke:#FFFFFF00;stroke-width:1;" width="80" x="395.87" y="490.7969"/><g id="ObtenerIndicadores.Estado5"><rect fill="#F1F1F1" height="50" rx="12.5" ry="12.5" style="stroke:#181818;stroke-width:0.5;" width="241.1221" x="324.31" y="540.2969"/><line style="stroke:#181818;stroke-width:0.5;" x1="324.31" x2="565.4321" y1="566.5938" y2="566.5938"/><text fill="#000000" font-family="sans-serif" font-size="14" lengthAdjust="spacing" textLength="221.1221" x="334.31" y="558.292">El Sistema procesa informaci&#243;n</text></g><g id="ObtenerIndicadores.Estado6"><rect fill="#F1F1F1" height="50" rx="12.5" ry="12.5" style="stroke:#181818;stroke-width:0.5;" width="232.7275" x="334.5" y="627.2969"/><line style="stroke:#181818;stroke-width:0.5;" x1="334.5" x2="567.2275" y1="653.5938" y2="653.5938"/><text fill="#000000" font-family="sans-serif" font-size="14" lengthAdjust="spacing" textLength="212.7275" x="344.5" y="645.292">El Sistema genera indicadores</text></g><g id="ObtenerIndicadores.Estado7"><rect fill="#F1F1F1" height="50" rx="12.5" ry="12.5" style="stroke:#181818;stroke-width:0.5;" width="245.5107" x="329.11" y="714.2969"/><line style="stroke:#181818;stroke-width:0.5;" x1="329.11" x2="574.6207" y1="740.5938" y2="740.5938"/><text fill="#000000" font-family="sans-serif" font-size="14" lengthAdjust="spacing" textLength="225.5107" x="339.11" y="732.292">El Sistema presenta indicadores</text></g><g id="elem_choice1"><polygon fill="#F1F1F1" points="526.87,801.2969,538.87,813.2969,526.87,825.2969,514.87,813.2969,526.87,801.2969" style="stroke:#181818;stroke-width:0.5;"/></g><ellipse cx="531.87" cy="133.2969" fill="#222222" rx="10" ry="10" style="stroke:#222222;stroke-width:1;"/><ellipse cx="526.87" cy="889.2969" fill="#FFFFFF" fill-opacity="0.00000" rx="11" ry="11" style="stroke:#222222;stroke-width:1;"/><ellipse cx="526.87" cy="889.2969" fill="#222222" rx="6" ry="6" style="stroke:#222222;stroke-width:1;"/><!--link *start*ObtenerIndicadores to Estado1--><g id="link_*start*ObtenerIndicadores_Estado1"><path d="M531.87,143.7369 C531.87,152.9969 531.87,161.4869 531.87,173.9769 " fill="#FFFFFF" fill-opacity="0.00000" id="*start*ObtenerIndicadores-to-Estado1" style="stroke:#181818;stroke-width:1;"/><polygon fill="#181818" points="531.87,179.9769,535.87,170.9769,531.87,174.9769,527.87,170.9769,531.87,179.9769" style="stroke:#181818;stroke-width:1;"/></g><!--link Estado1 to Estado2--><g id="link_Estado1_Estado2"><path d="M512,230.4269 C502.62,241.8169 495.2659,250.7467 485.8459,262.1767 " fill="#FFFFFF" fill-opacity="0.00000" id="Estado1-to-Estado2" style="stroke:#181818;stroke-width:1;"/><polygon fill="#181818" points="482.03,266.8069,490.8407,262.4056,485.21,262.9484,484.6671,257.3176,482.03,266.8069" style="stroke:#181818;stroke-width:1;"/></g><!--link Estado2 to fork1--><g id="link_Estado2_fork1"><path d="M452.04,317.4969 C446.4,331.3669 442.1783,341.7681 439.4483,348.4881 " fill="#FFFFFF" fill-opacity="0.00000" id="Estado2-to-fork1" style="stroke:#181818;stroke-width:1;"/><polygon fill="#181818" points="437.19,354.0469,444.2833,347.2142,439.0719,349.4145,436.8715,344.2032,437.19,354.0469" style="stroke:#181818;stroke-width:1;"/></g><!--link fork1 to Estado3--><g id="link_fork1_Estado3"><path d="M420.44,362.7369 C389.99,369.5269 325.6562,383.8709 264.2662,397.5609 " fill="#FFFFFF" fill-opacity="0.00000" id="fork1-to-Estado3" style="stroke:#181818;stroke-width:1;"/><polygon fill="#181818" points="258.41,398.8669,268.0649,400.8121,263.2901,397.7786,266.3236,393.0039,258.41,398.8669" style="stroke:#181818;stroke-width:1;"/></g><!--link fork1 to Estado4--><g id="link_fork1_Estado4"><path d="M435.87,362.7369 C435.87,369.5369 435.87,379.2369 435.87,392.9469 " fill="#FFFFFF" fill-opacity="0.00000" id="fork1-to-Estado4" style="stroke:#181818;stroke-width:1;"/><polygon fill="#181818" points="435.87,398.9469,439.87,389.9469,435.87,393.9469,431.87,389.9469,435.87,398.9469" style="stroke:#181818;stroke-width:1;"/></g><!--link Estado3 to join1--><g id="link_Estado3_join1"><path d="M251.27,449.7369 C315.01,464.9569 384.7439,481.5943 415.7139,488.9843 " fill="#FFFFFF" fill-opacity="0.00000" id="Estado3-to-join1" style="stroke:#181818;stroke-width:1;"/><polygon fill="#181818" points="421.55,490.3769,413.7242,484.3972,416.6865,489.2164,411.8674,492.1787,421.55,490.3769" style="stroke:#181818;stroke-width:1;"/></g><!--link Estado4 to join1--><g id="link_Estado4_join1"><path d="M435.87,449.6369 C435.87,465.0269 435.87,477.3169 435.87,484.5869 " fill="#FFFFFF" fill-opacity="0.00000" id="Estado4-to-join1" style="stroke:#181818;stroke-width:1;"/><polygon fill="#181818" points="435.87,490.5869,439.87,481.5869,435.87,485.5869,431.87,481.5869,435.87,490.5869" style="stroke:#181818;stroke-width:1;"/></g><!--link join1 to Estado5--><g id="link_join1_Estado5"><path d="M436.3,499.0969 C437.26,506.4269 438.8685,518.628 440.8785,533.928 " fill="#FFFFFF" fill-opacity="0.00000" id="join1-to-Estado5" style="stroke:#181818;stroke-width:1;"/><polygon fill="#181818" points="441.66,539.8769,444.4536,530.4325,441.0087,534.9195,436.5218,531.4746,441.66,539.8769" style="stroke:#181818;stroke-width:1;"/></g><!--link Estado5 to Estado6--><g id="link_Estado5_Estado6"><path d="M446.57,590.4269 C447.38,601.8169 447.9059,609.3919 448.7159,620.8219 " fill="#FFFFFF" fill-opacity="0.00000" id="Estado5-to-Estado6" style="stroke:#181818;stroke-width:1;"/><polygon fill="#181818" points="449.14,626.8069,452.4938,617.5466,448.7866,621.8194,444.5138,618.1121,449.14,626.8069" style="stroke:#181818;stroke-width:1;"/></g><!--link Estado6 to Estado7--><g id="link_Estado6_Estado7"><path d="M451.15,677.4269 C451.29,688.8169 451.3818,696.3773 451.5118,707.8073 " fill="#FFFFFF" fill-opacity="0.00000" id="Estado6-to-Estado7" style="stroke:#181818;stroke-width:1;"/><polygon fill="#181818" points="451.58,713.8069,455.4774,704.762,451.5231,708.8072,447.4779,704.8529,451.58,713.8069" style="stroke:#181818;stroke-width:1;"/></g><!--link Estado7 to choice1--><g id="link_Estado7_choice1"><path d="M477.26,764.6769 C492.9,779.6869 507.3524,793.5609 516.6824,802.5209 " fill="#FFFFFF" fill-opacity="0.00000" id="Estado7-to-choice1" style="stroke:#181818;stroke-width:1;"/><polygon fill="#181818" points="521.01,806.6769,517.2893,797.5579,517.4037,803.2136,511.748,803.328,521.01,806.6769" style="stroke:#181818;stroke-width:1;"/></g><!--link choice1 to Estado1--><g id="link_choice1_Estado1"><path d="M535.29,809.0569 C555.08,800.8469 602.87,777.1969 602.87,740.2969 C602.87,291.2969 602.87,291.2969 602.87,291.2969 C602.87,266.8769 589.9486,249.668 572.3386,234.598 " fill="#FFFFFF" fill-opacity="0.00000" id="choice1-to-Estado1" style="stroke:#181818;stroke-width:1;"/><polygon fill="#181818" points="567.78,230.6969,572.0172,239.5877,571.5789,233.9478,577.2187,233.5095,567.78,230.6969" style="stroke:#181818;stroke-width:1;"/><text fill="#000000" font-family="sans-serif" font-size="13" lengthAdjust="spacing" textLength="127.6641" x="603.87" y="499.3638">Nuevos indicadores</text></g><!--link choice1 to *end*ObtenerIndicadores--><g id="link_choice1_*end*ObtenerIndicadores"><path d="M526.87,825.8569 C526.87,840.1669 526.87,858.3169 526.87,872.0069 " fill="#FFFFFF" fill-opacity="0.00000" id="choice1-to-*end*ObtenerIndicadores" style="stroke:#181818;stroke-width:1;"/><polygon fill="#181818" points="526.87,878.0069,530.87,869.0069,526.87,873.0069,522.87,869.0069,526.87,878.0069" style="stroke:#181818;stroke-width:1;"/><text fill="#000000" font-family="sans-serif" font-size="13" lengthAdjust="spacing" textLength="54.6533" x="527.87" y="856.3638">Finalizar</text></g><ellipse cx="374.27" cy="16" fill="#222222" rx="10" ry="10" style="stroke:#222222;stroke-width:1;"/><ellipse cx="374.27" cy="981.3" fill="#FFFFFF" fill-opacity="0.00000" rx="11" ry="11" style="stroke:#222222;stroke-width:1;"/><ellipse cx="374.27" cy="981.3" fill="#222222" rx="6" ry="6" style="stroke:#222222;stroke-width:1;"/><!--link *start* to ObtenerIndicadores--><g id="link_*start*_ObtenerIndicadores"><path d="M374.27,26.17 C374.27,37.45 374.27,52.49 374.27,79.66 " fill="#FFFFFF" fill-opacity="0.00000" id="*start*-to-ObtenerIndicadores" style="stroke:#181818;stroke-width:1;"/><polygon fill="#181818" points="374.27,85.66,378.27,76.66,374.27,80.66,370.27,76.66,374.27,85.66" style="stroke:#181818;stroke-width:1;"/></g><!--link ObtenerIndicadores to *end*--><g id="link_ObtenerIndicadores_*end*"><path d="M374.27,910.59 C374.27,937.53 374.27,952.56 374.27,964.2 " fill="#FFFFFF" fill-opacity="0.00000" id="ObtenerIndicadores-to-*end*" style="stroke:#181818;stroke-width:1;"/><polygon fill="#181818" points="374.27,970.2,378.27,961.2,374.27,965.2,370.27,961.2,374.27,970.2" style="stroke:#181818;stroke-width:1;"/></g><!--SRC=[ZLGzJyCm5DppAvuw8dLeFbgfgheLYGK6neh1TLxBWzIkOiC0uYSnyHFwnx2Ta1exgU8bLkxTwUxqaktD4qodQtZOQHHOtucIE2jbZIf9m1obcSOU53uTRC-sbTYOsLBEklVTfT6OR2fu9ANnoE1a551e1lB4IGeZLo8SK6aw_uW9C1M9nHfALiJ9QF2QDDOabKTCOnUjecSr7RAwb_Nh35Oh-rol0uNKARYHSL4bHyMWP5egE5HonohqhMQZoQXEoC_VU-B_ikQnZIR09MasYEH36Lua2Tk1VNeT16LaJihD1aZUWun8Ii8uF38UB49nXNgmgscPtN9wnFcOBUodBcBVJIcNzeeWTE5Xym2RUzXYg1B-B8cZxRsvHTktS2hjMApon_U-noNSl-6xMHylPU-y-OwNS4k2LVJ1QZVobNJgFR-0blGB]--></g></svg>