<svg xmlns="http://www.w3.org/2000/svg" xmlns:xlink="http://www.w3.org/1999/xlink" contentStyleType="text/css" data-diagram-type="DESCRIPTION" height="389px" preserveAspectRatio="none" style="width:715px;height:389px;background:#FFFFFF;" version="1.1" viewBox="0 0 715 389" width="715px" zoomAndPan="magnify"><defs/><g><!--entity ADMINISTRADOR--><g id="elem_ADMINISTRADOR"><rect fill="#FFB6C1" height="36.2969" rx="2.5" ry="2.5" style="stroke:#181818;stroke-width:0.5;" width="139.4375" x="191.19" y="7"/><text fill="#000000" font-family="sans-serif" font-size="14" lengthAdjust="spacing" textLength="119.4375" x="201.19" y="29.9951">ADMINISTRADOR</text></g><!--entity PAGINA_PRINCIPAL--><g id="elem_PAGINA_PRINCIPAL"><rect fill="#ADD8E6" height="36.2969" rx="2.5" ry="2.5" style="stroke:#181818;stroke-width:0.5;" width="152.542" x="184.64" y="120.3"/><text fill="#000000" font-family="sans-serif" font-size="14" lengthAdjust="spacing" textLength="132.542" x="194.64" y="143.2951">PAGINA_PRINCIPAL</text></g><!--entity VER_ESTADISTICAS--><g id="elem_VER_ESTADISTICAS"><rect fill="#FFFFE0" height="36.2969" rx="2.5" ry="2.5" style="stroke:#181818;stroke-width:0.5;" width="155.7275" x="78.04" y="233.6"/><text fill="#000000" font-family="sans-serif" font-size="14" lengthAdjust="spacing" textLength="135.7275" x="88.04" y="256.5951">VER_ESTADISTICAS</text></g><!--entity VER_OFERTAS--><g id="elem_VER_OFERTAS"><rect fill="#F08080" height="36.2969" rx="2.5" ry="2.5" style="stroke:#181818;stroke-width:0.5;" width="119.8115" x="305" y="233.6"/><text fill="#000000" font-family="sans-serif" font-size="14" lengthAdjust="spacing" textLength="99.8115" x="315" y="256.5951">VER_OFERTAS</text></g><!--entity ACEPTANDO_OFERTA--><g id="elem_ACEPTANDO_OFERTA"><rect fill="#FFFF00" height="36.2969" rx="2.5" ry="2.5" style="stroke:#181818;stroke-width:0.5;" width="169.8164" x="7" y="346.89"/><text fill="#000000" font-family="sans-serif" font-size="14" lengthAdjust="spacing" textLength="149.8164" x="17" y="369.8851">ACEPTANDO_OFERTA</text></g><!--entity CERRANDO_OFERTA--><g id="elem_CERRANDO_OFERTA"><rect fill="#98FB98" height="36.2969" rx="2.5" ry="2.5" style="stroke:#181818;stroke-width:0.5;" width="162.7002" x="237.56" y="346.89"/><text fill="#000000" font-family="sans-serif" font-size="14" lengthAdjust="spacing" textLength="142.7002" x="247.56" y="369.8851">CERRANDO_OFERTA</text></g><!--entity CANCELANDO_OFERTA--><g id="elem_CANCELANDO_OFERTA"><rect fill="#FFA07A" height="36.2969" rx="2.5" ry="2.5" style="stroke:#181818;stroke-width:0.5;" width="180.8701" x="526.47" y="346.89"/><text fill="#000000" font-family="sans-serif" font-size="14" lengthAdjust="spacing" textLength="160.8701" x="536.47" y="369.8851">CANCELANDO_OFERTA</text></g><!--link ADMINISTRADOR to PAGINA_PRINCIPAL--><g id="link_ADMINISTRADOR_PAGINA_PRINCIPAL"><path d="M260.91,43.54 C260.91,64.33 260.91,92.92 260.91,113.81 " fill="#FFFFFF" fill-opacity="0.00000" id="ADMINISTRADOR-to-PAGINA_PRINCIPAL" style="stroke:#000000;stroke-width:1;"/><polygon fill="#000000" points="260.91,119.81,264.91,110.81,260.91,114.81,256.91,110.81,260.91,119.81" style="stroke:#000000;stroke-width:1;"/><text fill="#000000" font-family="sans-serif" font-size="13" lengthAdjust="spacing" textLength="52.7808" x="261.91" y="86.3669">Acceder</text></g><!--link PAGINA_PRINCIPAL to VER_OFERTAS--><g id="link_PAGINA_PRINCIPAL_VER_OFERTAS"><path d="M272.01,156.95 C280.92,170.39 294.17,189.03 307.91,203.6 C317.95,214.25 325.6335,221.0513 336.3035,229.4413 " fill="#FFFFFF" fill-opacity="0.00000" id="PAGINA_PRINCIPAL-to-VER_OFERTAS" style="stroke:#ADD8E6;stroke-width:1;"/><polygon fill="#ADD8E6" points="341.02,233.15,336.4177,224.4426,337.0896,230.0594,331.4727,230.7313,341.02,233.15" style="stroke:#ADD8E6;stroke-width:1;"/><text fill="#000000" font-family="sans-serif" font-size="13" lengthAdjust="spacing" textLength="72.0776" x="308.91" y="199.6669">Ver ofertas</text></g><!--link VER_OFERTAS to PAGINA_PRINCIPAL--><g id="link_VER_OFERTAS_PAGINA_PRINCIPAL"><path d="M378.6,233.19 C387.44,219.55 395.64,200.67 385.91,186.6 C374.43,170 361.9491,161.3167 343.0291,154.3367 " fill="#FFFFFF" fill-opacity="0.00000" id="VER_OFERTAS-to-PAGINA_PRINCIPAL" style="stroke:#ADD8E6;stroke-width:1;"/><polygon fill="#ADD8E6" points="337.4,152.26,344.4592,159.1278,342.091,153.9906,347.2282,151.6223,337.4,152.26" style="stroke:#ADD8E6;stroke-width:1;"/><text fill="#000000" font-family="sans-serif" font-size="13" lengthAdjust="spacing" textLength="58.7095" x="391.91" y="199.6669">Regresar</text></g><!--link PAGINA_PRINCIPAL to VER_ESTADISTICAS--><g id="link_PAGINA_PRINCIPAL_VER_ESTADISTICAS"><path d="M184.18,147.91 C135.2,155.08 78.13,167.32 62.91,186.6 C47.47,206.14 64.6956,219.7867 91.5556,230.8967 " fill="#FFFFFF" fill-opacity="0.00000" id="PAGINA_PRINCIPAL-to-VER_ESTADISTICAS" style="stroke:#ADD8E6;stroke-width:1;"/><polygon fill="#ADD8E6" points="97.1,233.19,90.3122,226.0537,92.4796,231.2789,87.2545,233.4463,97.1,233.19" style="stroke:#ADD8E6;stroke-width:1;"/><text fill="#000000" font-family="sans-serif" font-size="13" lengthAdjust="spacing" textLength="103.4351" x="63.91" y="199.6669">Ver estad&#237;sticas</text></g><!--link VER_ESTADISTICAS to PAGINA_PRINCIPAL--><g id="link_VER_ESTADISTICAS_PAGINA_PRINCIPAL"><path d="M172.55,233.11 C192.26,212.21 220.772,181.9837 240.382,161.2037 " fill="#FFFFFF" fill-opacity="0.00000" id="VER_ESTADISTICAS-to-PAGINA_PRINCIPAL" style="stroke:#ADD8E6;stroke-width:1;"/><polygon fill="#ADD8E6" points="244.5,156.84,235.4138,160.6402,241.0683,160.4764,241.2321,166.1309,244.5,156.84" style="stroke:#ADD8E6;stroke-width:1;"/><text fill="#000000" font-family="sans-serif" font-size="13" lengthAdjust="spacing" textLength="58.7095" x="215.91" y="199.6669">Regresar</text></g><!--link VER_OFERTAS to ACEPTANDO_OFERTA--><g id="link_VER_OFERTAS_ACEPTANDO_OFERTA"><path d="M304.57,261.88 C287.25,264.49 268.33,267.32 250.91,269.89 C204.93,276.68 74.33,264.75 43.91,299.89 C30.8,315.04 42.8684,329.7894 60.0984,342.9994 " fill="#FFFFFF" fill-opacity="0.00000" id="VER_OFERTAS-to-ACEPTANDO_OFERTA" style="stroke:#FFFF00;stroke-width:1;"/><polygon fill="#FFFF00" points="64.86,346.65,60.1514,337.9996,60.892,343.6078,55.2838,344.3484,64.86,346.65" style="stroke:#FFFF00;stroke-width:1;"/><text fill="#000000" font-family="sans-serif" font-size="13" lengthAdjust="spacing" textLength="96.0464" x="44.91" y="312.9569">Aceptar Oferta</text></g><!--link ACEPTANDO_OFERTA to VER_OFERTAS--><g id="link_ACEPTANDO_OFERTA_VER_OFERTAS"><path d="M120.46,346.57 C144.09,332.63 178.86,313.28 210.91,299.89 C241.09,287.28 270.0861,277.9817 298.9261,269.8317 " fill="#FFFFFF" fill-opacity="0.00000" id="ACEPTANDO_OFERTA-to-VER_OFERTAS" style="stroke:#F08080;stroke-width:1;"/><polygon fill="#F08080" points="304.7,268.2,294.9514,266.7982,299.8884,269.5597,297.127,274.4967,304.7,268.2" style="stroke:#F08080;stroke-width:1;"/><text fill="#000000" font-family="sans-serif" font-size="13" lengthAdjust="spacing" textLength="74.3564" x="211.91" y="312.9569">Ver Ofertas</text></g><!--link VER_OFERTAS to CERRANDO_OFERTA--><g id="link_VER_OFERTAS_CERRANDO_OFERTA"><path d="M327.19,270.32 C315.65,277.71 304.33,287.52 297.91,299.89 C290.13,314.87 294.6065,328.1894 302.7565,341.4394 " fill="#FFFFFF" fill-opacity="0.00000" id="VER_OFERTAS-to-CERRANDO_OFERTA" style="stroke:#98FB98;stroke-width:1;"/><polygon fill="#98FB98" points="305.9,346.55,304.5918,336.7884,303.2804,342.2912,297.7777,340.9798,305.9,346.55" style="stroke:#98FB98;stroke-width:1;"/><text fill="#000000" font-family="sans-serif" font-size="13" lengthAdjust="spacing" textLength="86.4233" x="298.91" y="312.9569">Cerrar Oferta</text></g><!--link CERRANDO_OFERTA to VER_OFERTAS--><g id="link_CERRANDO_OFERTA_VER_OFERTAS"><path d="M359.58,346.48 C371.53,339.17 383.19,329.41 389.91,316.89 C398.04,301.73 392.5948,288.2114 383.2248,275.0214 " fill="#FFFFFF" fill-opacity="0.00000" id="CERRANDO_OFERTA-to-VER_OFERTAS" style="stroke:#F08080;stroke-width:1;"/><polygon fill="#F08080" points="379.75,270.13,381.7012,279.7836,382.6457,274.2062,388.2231,275.1506,379.75,270.13" style="stroke:#F08080;stroke-width:1;"/><text fill="#000000" font-family="sans-serif" font-size="13" lengthAdjust="spacing" textLength="74.3564" x="394.91" y="312.9569">Ver Ofertas</text></g><!--link VER_OFERTAS to CANCELANDO_OFERTA--><g id="link_VER_OFERTAS_CANCELANDO_OFERTA"><path d="M407.99,270.28 C429.14,279 454.94,289.81 477.91,299.89 C512.71,315.18 546.5693,330.8491 574.4793,343.9591 " fill="#FFFFFF" fill-opacity="0.00000" id="VER_OFERTAS-to-CANCELANDO_OFERTA" style="stroke:#FFA07A;stroke-width:1;"/><polygon fill="#FFA07A" points="579.91,346.51,573.4645,339.0631,575.3844,344.3842,570.0633,346.3041,579.91,346.51" style="stroke:#FFA07A;stroke-width:1;"/><text fill="#000000" font-family="sans-serif" font-size="13" lengthAdjust="spacing" textLength="102.6987" x="513.91" y="312.9569">Cancelar Oferta</text></g><!--link CANCELANDO_OFERTA to VER_OFERTAS--><g id="link_CANCELANDO_OFERTA_VER_OFERTAS"><path d="M625.55,346.52 C631.16,332.35 635.63,312.73 624.91,299.89 C599.95,270.01 499.7699,259.3687 431.0499,255.3687 " fill="#FFFFFF" fill-opacity="0.00000" id="CANCELANDO_OFERTA-to-VER_OFERTAS" style="stroke:#F08080;stroke-width:1;"/><polygon fill="#F08080" points="425.06,255.02,433.8124,259.5362,430.0516,255.3105,434.2772,251.5497,425.06,255.02" style="stroke:#F08080;stroke-width:1;"/><text fill="#000000" font-family="sans-serif" font-size="13" lengthAdjust="spacing" textLength="74.3564" x="632.91" y="312.9569">Ver Ofertas</text></g><!--SRC=[bP91QeGm68NtEKNAR3gBkK0NXKnCHR0gKGPAAKFGVwnCgYLQEfVgANgnHgjZZ1RgBf3tlRp__Rd9u5IKW3cZ2GbSdzrUjbX1seWobu0l28qtn7dq0YzEE752liKRlyXVcwWepuOc8guNa6F4lO1w4V47sLv-WEbrOFp8ueGusi-Z91vqJo1bzMa9mmV6ar53AoNa91XbaJuwOQ_KmfaFPPnF9P6Gu2g0qbIHW39_gklUZ8Lygqg49XtWtVDcBqLwVjdTOtjoV8T9ca862g7PdGQljRImCQNc3g1mTGBLYFf_gDbapqFTYEpxgswALBiWym7jy5jFYzlTTR7XlH4AXrq46xtMrj9MgngceDIVh55bHzjjjxmeKv2Z0ve577owRx1SNjYNPyTRWywohO0NvnuMjl1HEEGAQg7GR9ahu1y0]--></g></svg>