<svg xmlns="http://www.w3.org/2000/svg" xmlns:xlink="http://www.w3.org/1999/xlink" contentStyleType="text/css" data-diagram-type="DESCRIPTION" height="389px" preserveAspectRatio="none" style="width:532px;height:389px;background:#FFFFFF;" version="1.1" viewBox="0 0 532 389" width="532px" zoomAndPan="magnify"><defs/><g><!--entity ADMINISTRADOR--><g id="elem_ADMINISTRADOR"><rect fill="#FFB6C1" height="36.2969" rx="2.5" ry="2.5" style="stroke:#181818;stroke-width:0.5;" width="139.4375" x="178.32" y="7"/><text fill="#000000" font-family="sans-serif" font-size="14" lengthAdjust="spacing" textLength="119.4375" x="188.32" y="29.9951">ADMINISTRADOR</text></g><!--entity PAGINA_PRINCIPAL--><g id="elem_PAGINA_PRINCIPAL"><rect fill="#ADD8E6" height="36.2969" rx="2.5" ry="2.5" style="stroke:#181818;stroke-width:0.5;" width="152.542" x="171.77" y="120.3"/><text fill="#000000" font-family="sans-serif" font-size="14" lengthAdjust="spacing" textLength="132.542" x="181.77" y="143.2951">PAGINA_PRINCIPAL</text></g><!--entity NAVEGACION_MENUS--><g id="elem_NAVEGACION_MENUS"><rect fill="#87CEEB" height="36.2969" rx="2.5" ry="2.5" style="stroke:#181818;stroke-width:0.5;" width="171.8262" x="162.13" y="233.6"/><text fill="#000000" font-family="sans-serif" font-size="14" lengthAdjust="spacing" textLength="151.8262" x="172.13" y="256.5951">NAVEGACION_MENUS</text></g><!--entity MENU_GESTIONAR_OFERTAS--><g id="elem_MENU_GESTIONAR_OFERTAS"><rect fill="#FFFFE0" height="36.2969" rx="2.5" ry="2.5" style="stroke:#181818;stroke-width:0.5;" width="222.3643" x="7.86" y="346.89"/><text fill="#000000" font-family="sans-serif" font-size="14" lengthAdjust="spacing" textLength="202.3643" x="17.86" y="369.8851">MENU_GESTIONAR_OFERTAS</text></g><!--entity VER_ESTADISTICAS--><g id="elem_VER_ESTADISTICAS"><rect fill="#FFFFE0" height="36.2969" rx="2.5" ry="2.5" style="stroke:#181818;stroke-width:0.5;" width="155.7275" x="299.18" y="346.89"/><text fill="#000000" font-family="sans-serif" font-size="14" lengthAdjust="spacing" textLength="135.7275" x="309.18" y="369.8851">VER_ESTADISTICAS</text></g><!--link ADMINISTRADOR to PAGINA_PRINCIPAL--><g id="link_ADMINISTRADOR_PAGINA_PRINCIPAL"><path d="M248.04,43.54 C248.04,64.33 248.04,92.92 248.04,113.81 " fill="#FFFFFF" fill-opacity="0.00000" id="ADMINISTRADOR-to-PAGINA_PRINCIPAL" style="stroke:#000000;stroke-width:1;"/><polygon fill="#000000" points="248.04,119.81,252.04,110.81,248.04,114.81,244.04,110.81,248.04,119.81" style="stroke:#000000;stroke-width:1;"/><text fill="#000000" font-family="sans-serif" font-size="13" lengthAdjust="spacing" textLength="4.1323" x="249.04" y="86.3669">.</text></g><!--link PAGINA_PRINCIPAL to NAVEGACION_MENUS--><g id="link_PAGINA_PRINCIPAL_NAVEGACION_MENUS"><path d="M193.75,157.05 C180.43,164.07 167.79,173.66 160.04,186.6 C148,206.71 162.796,219.9334 186.906,230.7534 " fill="#FFFFFF" fill-opacity="0.00000" id="PAGINA_PRINCIPAL-to-NAVEGACION_MENUS" style="stroke:#87CEEB;stroke-width:1;"/><polygon fill="#87CEEB" points="192.38,233.21,185.8067,225.8757,187.8183,231.1628,182.5312,233.1744,192.38,233.21" style="stroke:#87CEEB;stroke-width:1;"/><text fill="#000000" font-family="sans-serif" font-size="13" lengthAdjust="spacing" textLength="128.6733" x="161.04" y="199.6669">Navegar por men&#250;s</text></g><!--link NAVEGACION_MENUS to PAGINA_PRINCIPAL--><g id="link_NAVEGACION_MENUS_PAGINA_PRINCIPAL"><path d="M273.21,233.32 C287.45,221.13 301.12,203.99 294.04,186.6 C289.39,175.16 284.9108,169.0148 276.1608,161.0648 " fill="#FFFFFF" fill-opacity="0.00000" id="NAVEGACION_MENUS-to-PAGINA_PRINCIPAL" style="stroke:#87CEEB;stroke-width:1;"/><polygon fill="#87CEEB" points="271.72,157.03,275.6913,166.0427,275.4207,160.3923,281.071,160.1216,271.72,157.03" style="stroke:#87CEEB;stroke-width:1;"/><text fill="#000000" font-family="sans-serif" font-size="13" lengthAdjust="spacing" textLength="112.728" x="296.04" y="199.6669">Regresar al inicio</text></g><!--link NAVEGACION_MENUS to MENU_GESTIONAR_OFERTAS--><g id="link_NAVEGACION_MENUS_MENU_GESTIONAR_OFERTAS"><path d="M161.79,259.6 C105.67,266.06 39.74,278.12 22.04,299.89 C6,319.63 23.6629,333.2673 51.4129,344.2773 " fill="#FFFFFF" fill-opacity="0.00000" id="NAVEGACION_MENUS-to-MENU_GESTIONAR_OFERTAS" style="stroke:#ADD8E6;stroke-width:1;"/><polygon fill="#ADD8E6" points="56.99,346.49,50.0995,339.4528,52.3424,344.646,47.1492,346.8889,56.99,346.49" style="stroke:#ADD8E6;stroke-width:1;"/><text fill="#000000" font-family="sans-serif" font-size="13" lengthAdjust="spacing" textLength="112.8994" x="23.04" y="312.9569">Gestionar ofertas</text></g><!--link MENU_GESTIONAR_OFERTAS to NAVEGACION_MENUS--><g id="link_MENU_GESTIONAR_OFERTAS_NAVEGACION_MENUS"><path d="M132.45,346.56 C143.35,332.97 159.58,314.11 176.04,299.89 C188.71,288.96 198.981,281.7324 212.251,273.5024 " fill="#FFFFFF" fill-opacity="0.00000" id="MENU_GESTIONAR_OFERTAS-to-NAVEGACION_MENUS" style="stroke:#ADD8E6;stroke-width:1;"/><polygon fill="#ADD8E6" points="217.35,270.34,207.5933,271.6842,213.1009,272.9753,211.8098,278.4829,217.35,270.34" style="stroke:#ADD8E6;stroke-width:1;"/><text fill="#000000" font-family="sans-serif" font-size="13" lengthAdjust="spacing" textLength="96.1543" x="177.04" y="312.9569">Cambiar men&#250;</text></g><!--link NAVEGACION_MENUS to VER_ESTADISTICAS--><g id="link_NAVEGACION_MENUS_VER_ESTADISTICAS"><path d="M264.84,270.26 C277.85,283.52 296.54,301.95 314.04,316.89 C326.09,327.18 335.3081,334.3002 347.0881,342.8702 " fill="#FFFFFF" fill-opacity="0.00000" id="NAVEGACION_MENUS-to-VER_ESTADISTICAS" style="stroke:#ADD8E6;stroke-width:1;"/><polygon fill="#ADD8E6" points="351.94,346.4,347.0154,337.8708,347.8968,343.4585,342.309,344.3399,351.94,346.4" style="stroke:#ADD8E6;stroke-width:1;"/><text fill="#000000" font-family="sans-serif" font-size="13" lengthAdjust="spacing" textLength="103.4351" x="315.04" y="312.9569">Ver estad&#237;sticas</text></g><!--link VER_ESTADISTICAS to NAVEGACION_MENUS--><g id="link_VER_ESTADISTICAS_NAVEGACION_MENUS"><path d="M403.33,346.4 C419.43,333.39 434.88,315.34 423.04,299.89 C411.56,284.91 378.2707,274.8005 339.8907,267.0305 " fill="#FFFFFF" fill-opacity="0.00000" id="VER_ESTADISTICAS-to-NAVEGACION_MENUS" style="stroke:#ADD8E6;stroke-width:1;"/><polygon fill="#ADD8E6" points="334.01,265.84,342.0374,271.5463,338.9106,266.8321,343.6247,263.7053,334.01,265.84" style="stroke:#ADD8E6;stroke-width:1;"/><text fill="#000000" font-family="sans-serif" font-size="13" lengthAdjust="spacing" textLength="96.1543" x="428.04" y="312.9569">Cambiar men&#250;</text></g><!--SRC=[bL8zJiCm5DvpYeSOQ0Su00EIcuOeKkjMJgc448fCyXgikdPb1sWFnSJ6seln4WgaFmWn9lh-dyyWyfNI5aeqwAGEJWgSAOCWed32U3o8EgikECmhQKgDi0g2Cs1vPHrwM0DgNA2fh8UbKoPNIwdH1pzSrXycF4adWlL7eWkd0rK-LcDbvYtCcCK9PzbO93nCncpm1Ulf9sp1E9j6CGkJ4S-64Rz92PRErms88WtHRDxhHBdqbAP0UFAsnQufMHob4-8paOsk8p5XwPVLBMfjNrhmQIGo0hC-PK_20o0P2jGoLzRWJdNe94RHxpg0HwysRuOo6VcC9Q7fgnliJ0BdTwSz4fhVdr_1_X1m2HV1mKzYR7lNdFrLYCCRDmTBws3Hp18Se7P5ZXWBBEd2f28rgARIv-6tbT4lCT-ypXJDJLqro691C5yvMLXtrE_xfhNZyNEGRupq7AqXOpj3Lqd_jzR-hKXbYeuYLhBOl98SPQp3yvyh0BrPXzjrw42kQMjRPNy9kEzzPFvGBXwKt4uV78Jxhy87]--></g></svg>