<svg xmlns="http://www.w3.org/2000/svg" xmlns:xlink="http://www.w3.org/1999/xlink" contentStyleType="text/css" height="546px" preserveAspectRatio="none" style="width:470px;height:546px;background:#FFFFFF;" version="1.1" viewBox="0 0 470 546" width="470px" zoomAndPan="magnify"><defs/><g><!--class Usuario--><g id="elem_Usuario"><rect codeLine="1" fill="#F1F1F1" height="48" id="Usuario" rx="2.5" ry="2.5" style="stroke:#181818;stroke-width:0.5;" width="85.2041" x="200.11" y="116"/><ellipse cx="215.11" cy="132" fill="#A9DCDF" rx="11" ry="11" style="stroke:#181818;stroke-width:1.0;"/><path d="M215.2194,127.3438 L214.0631,132.4219 L216.3913,132.4219 L215.2194,127.3438 Z M213.735,125.1094 L216.7194,125.1094 L220.0788,137.5 L217.6256,137.5 L216.86,134.4375 L213.5788,134.4375 L212.8288,137.5 L210.3913,137.5 L213.735,125.1094 Z " fill="#000000"/><text fill="#000000" font-family="sans-serif" font-size="14" font-style="italic" lengthAdjust="spacing" textLength="53.2041" x="229.11" y="136.8467">Usuario</text><line style="stroke:#181818;stroke-width:0.5;" x1="201.11" x2="284.3141" y1="148" y2="148"/><line style="stroke:#181818;stroke-width:0.5;" x1="201.11" x2="284.3141" y1="156" y2="156"/></g><!--class Alumno--><g id="elem_Alumno"><rect codeLine="2" fill="#F1F1F1" height="48" id="Alumno" rx="2.5" ry="2.5" style="stroke:#181818;stroke-width:0.5;" width="85.416" x="7" y="7"/><ellipse cx="22" cy="23" fill="#ADD1B2" rx="11" ry="11" style="stroke:#181818;stroke-width:1.0;"/><path d="M24.9688,28.6406 Q24.3906,28.9375 23.75,29.0781 Q23.1094,29.2344 22.4063,29.2344 Q19.9063,29.2344 18.5781,27.5938 Q17.2656,25.9375 17.2656,22.8125 Q17.2656,19.6875 18.5781,18.0313 Q19.9063,16.375 22.4063,16.375 Q23.1094,16.375 23.75,16.5313 Q24.4063,16.6875 24.9688,16.9844 L24.9688,19.7031 Q24.3438,19.125 23.75,18.8594 Q23.1563,18.5781 22.5313,18.5781 Q21.1875,18.5781 20.5,19.6563 Q19.8125,20.7188 19.8125,22.8125 Q19.8125,24.9063 20.5,25.9844 Q21.1875,27.0469 22.5313,27.0469 Q23.1563,27.0469 23.75,26.7813 Q24.3438,26.5 24.9688,25.9219 L24.9688,28.6406 Z " fill="#000000"/><text fill="#000000" font-family="sans-serif" font-size="14" lengthAdjust="spacing" textLength="53.416" x="36" y="27.8467">Alumno</text><line style="stroke:#181818;stroke-width:0.5;" x1="8" x2="91.416" y1="39" y2="39"/><line style="stroke:#181818;stroke-width:0.5;" x1="8" x2="91.416" y1="47" y2="47"/></g><!--class Exalumno--><g id="elem_Exalumno"><rect codeLine="3" fill="#F1F1F1" height="48" id="Exalumno" rx="2.5" ry="2.5" style="stroke:#181818;stroke-width:0.5;" width="101.5488" x="126.93" y="7"/><ellipse cx="141.93" cy="23" fill="#ADD1B2" rx="11" ry="11" style="stroke:#181818;stroke-width:1.0;"/><path d="M144.8988,28.6406 Q144.3206,28.9375 143.68,29.0781 Q143.0394,29.2344 142.3363,29.2344 Q139.8363,29.2344 138.5081,27.5938 Q137.1956,25.9375 137.1956,22.8125 Q137.1956,19.6875 138.5081,18.0313 Q139.8363,16.375 142.3363,16.375 Q143.0394,16.375 143.68,16.5313 Q144.3363,16.6875 144.8988,16.9844 L144.8988,19.7031 Q144.2738,19.125 143.68,18.8594 Q143.0863,18.5781 142.4613,18.5781 Q141.1175,18.5781 140.43,19.6563 Q139.7425,20.7188 139.7425,22.8125 Q139.7425,24.9063 140.43,25.9844 Q141.1175,27.0469 142.4613,27.0469 Q143.0863,27.0469 143.68,26.7813 Q144.2738,26.5 144.8988,25.9219 L144.8988,28.6406 Z " fill="#000000"/><text fill="#000000" font-family="sans-serif" font-size="14" lengthAdjust="spacing" textLength="69.5488" x="155.93" y="27.8467">Exalumno</text><line style="stroke:#181818;stroke-width:0.5;" x1="127.93" x2="227.4788" y1="39" y2="39"/><line style="stroke:#181818;stroke-width:0.5;" x1="127.93" x2="227.4788" y1="47" y2="47"/></g><!--class Profesor--><g id="elem_Profesor"><rect codeLine="4" fill="#F1F1F1" height="48" id="Profesor" rx="2.5" ry="2.5" style="stroke:#181818;stroke-width:0.5;" width="89.9209" x="263.75" y="7"/><ellipse cx="278.75" cy="23" fill="#ADD1B2" rx="11" ry="11" style="stroke:#181818;stroke-width:1.0;"/><path d="M281.7188,28.6406 Q281.1406,28.9375 280.5,29.0781 Q279.8594,29.2344 279.1563,29.2344 Q276.6563,29.2344 275.3281,27.5938 Q274.0156,25.9375 274.0156,22.8125 Q274.0156,19.6875 275.3281,18.0313 Q276.6563,16.375 279.1563,16.375 Q279.8594,16.375 280.5,16.5313 Q281.1563,16.6875 281.7188,16.9844 L281.7188,19.7031 Q281.0938,19.125 280.5,18.8594 Q279.9063,18.5781 279.2813,18.5781 Q277.9375,18.5781 277.25,19.6563 Q276.5625,20.7188 276.5625,22.8125 Q276.5625,24.9063 277.25,25.9844 Q277.9375,27.0469 279.2813,27.0469 Q279.9063,27.0469 280.5,26.7813 Q281.0938,26.5 281.7188,25.9219 L281.7188,28.6406 Z " fill="#000000"/><text fill="#000000" font-family="sans-serif" font-size="14" lengthAdjust="spacing" textLength="57.9209" x="292.75" y="27.8467">Profesor</text><line style="stroke:#181818;stroke-width:0.5;" x1="264.75" x2="352.6709" y1="39" y2="39"/><line style="stroke:#181818;stroke-width:0.5;" x1="264.75" x2="352.6709" y1="47" y2="47"/></g><!--class Grado--><g id="elem_Grado"><rect codeLine="5" fill="#F1F1F1" height="48" id="Grado" rx="2.5" ry="2.5" style="stroke:#181818;stroke-width:0.5;" width="74.6357" x="388.39" y="7"/><ellipse cx="403.39" cy="23" fill="#ADD1B2" rx="11" ry="11" style="stroke:#181818;stroke-width:1.0;"/><path d="M406.3588,28.6406 Q405.7806,28.9375 405.14,29.0781 Q404.4994,29.2344 403.7963,29.2344 Q401.2963,29.2344 399.9681,27.5938 Q398.6556,25.9375 398.6556,22.8125 Q398.6556,19.6875 399.9681,18.0313 Q401.2963,16.375 403.7963,16.375 Q404.4994,16.375 405.14,16.5313 Q405.7963,16.6875 406.3588,16.9844 L406.3588,19.7031 Q405.7338,19.125 405.14,18.8594 Q404.5463,18.5781 403.9213,18.5781 Q402.5775,18.5781 401.89,19.6563 Q401.2025,20.7188 401.2025,22.8125 Q401.2025,24.9063 401.89,25.9844 Q402.5775,27.0469 403.9213,27.0469 Q404.5463,27.0469 405.14,26.7813 Q405.7338,26.5 406.3588,25.9219 L406.3588,28.6406 Z " fill="#000000"/><text fill="#000000" font-family="sans-serif" font-size="14" lengthAdjust="spacing" textLength="42.6357" x="417.39" y="27.8467">Grado</text><line style="stroke:#181818;stroke-width:0.5;" x1="389.39" x2="462.0257" y1="39" y2="39"/><line style="stroke:#181818;stroke-width:0.5;" x1="389.39" x2="462.0257" y1="47" y2="47"/></g><!--class Posts--><g id="elem_Posts"><rect codeLine="6" fill="#F1F1F1" height="48" id="Posts" rx="2.5" ry="2.5" style="stroke:#181818;stroke-width:0.5;" width="69.085" x="156.17" y="366"/><ellipse cx="171.17" cy="382" fill="#ADD1B2" rx="11" ry="11" style="stroke:#181818;stroke-width:1.0;"/><path d="M174.1388,387.6406 Q173.5606,387.9375 172.92,388.0781 Q172.2794,388.2344 171.5763,388.2344 Q169.0763,388.2344 167.7481,386.5938 Q166.4356,384.9375 166.4356,381.8125 Q166.4356,378.6875 167.7481,377.0313 Q169.0763,375.375 171.5763,375.375 Q172.2794,375.375 172.92,375.5313 Q173.5763,375.6875 174.1388,375.9844 L174.1388,378.7031 Q173.5138,378.125 172.92,377.8594 Q172.3263,377.5781 171.7013,377.5781 Q170.3575,377.5781 169.67,378.6563 Q168.9825,379.7188 168.9825,381.8125 Q168.9825,383.9063 169.67,384.9844 Q170.3575,386.0469 171.7013,386.0469 Q172.3263,386.0469 172.92,385.7813 Q173.5138,385.5 174.1388,384.9219 L174.1388,387.6406 Z " fill="#000000"/><text fill="#000000" font-family="sans-serif" font-size="14" lengthAdjust="spacing" textLength="37.085" x="185.17" y="386.8467">Posts</text><line style="stroke:#181818;stroke-width:0.5;" x1="157.17" x2="224.255" y1="398" y2="398"/><line style="stroke:#181818;stroke-width:0.5;" x1="157.17" x2="224.255" y1="406" y2="406"/></g><!--class Comunidades--><g id="elem_Comunidades"><rect codeLine="7" fill="#F1F1F1" height="48" id="Comunidades" rx="2.5" ry="2.5" style="stroke:#181818;stroke-width:0.5;" width="127.874" x="178.77" y="241"/><ellipse cx="193.77" cy="257" fill="#ADD1B2" rx="11" ry="11" style="stroke:#181818;stroke-width:1.0;"/><path d="M196.7388,262.6406 Q196.1606,262.9375 195.52,263.0781 Q194.8794,263.2344 194.1763,263.2344 Q191.6763,263.2344 190.3481,261.5938 Q189.0356,259.9375 189.0356,256.8125 Q189.0356,253.6875 190.3481,252.0313 Q191.6763,250.375 194.1763,250.375 Q194.8794,250.375 195.52,250.5313 Q196.1763,250.6875 196.7388,250.9844 L196.7388,253.7031 Q196.1138,253.125 195.52,252.8594 Q194.9263,252.5781 194.3013,252.5781 Q192.9575,252.5781 192.27,253.6563 Q191.5825,254.7188 191.5825,256.8125 Q191.5825,258.9063 192.27,259.9844 Q192.9575,261.0469 194.3013,261.0469 Q194.9263,261.0469 195.52,260.7813 Q196.1138,260.5 196.7388,259.9219 L196.7388,262.6406 Z " fill="#000000"/><text fill="#000000" font-family="sans-serif" font-size="14" lengthAdjust="spacing" textLength="95.874" x="207.77" y="261.8467">Comunidades</text><line style="stroke:#181818;stroke-width:0.5;" x1="179.77" x2="305.644" y1="273" y2="273"/><line style="stroke:#181818;stroke-width:0.5;" x1="179.77" x2="305.644" y1="281" y2="281"/></g><!--class Etiquetas--><g id="elem_Etiquetas"><rect codeLine="8" fill="#F1F1F1" height="48" id="Etiquetas" rx="2.5" ry="2.5" style="stroke:#181818;stroke-width:0.5;" width="97.96" x="101.73" y="491"/><ellipse cx="116.73" cy="507" fill="#ADD1B2" rx="11" ry="11" style="stroke:#181818;stroke-width:1.0;"/><path d="M119.6988,512.6406 Q119.1206,512.9375 118.48,513.0781 Q117.8394,513.2344 117.1363,513.2344 Q114.6363,513.2344 113.3081,511.5938 Q111.9956,509.9375 111.9956,506.8125 Q111.9956,503.6875 113.3081,502.0313 Q114.6363,500.375 117.1363,500.375 Q117.8394,500.375 118.48,500.5313 Q119.1363,500.6875 119.6988,500.9844 L119.6988,503.7031 Q119.0738,503.125 118.48,502.8594 Q117.8863,502.5781 117.2613,502.5781 Q115.9175,502.5781 115.23,503.6563 Q114.5425,504.7188 114.5425,506.8125 Q114.5425,508.9063 115.23,509.9844 Q115.9175,511.0469 117.2613,511.0469 Q117.8863,511.0469 118.48,510.7813 Q119.0738,510.5 119.6988,509.9219 L119.6988,512.6406 Z " fill="#000000"/><text fill="#000000" font-family="sans-serif" font-size="14" lengthAdjust="spacing" textLength="65.96" x="130.73" y="511.8467">Etiquetas</text><line style="stroke:#181818;stroke-width:0.5;" x1="102.73" x2="198.69" y1="523" y2="523"/><line style="stroke:#181818;stroke-width:0.5;" x1="102.73" x2="198.69" y1="531" y2="531"/></g><!--class Comentario--><g id="elem_Comentario"><rect codeLine="9" fill="#F1F1F1" height="48" id="Comentario" rx="2.5" ry="2.5" style="stroke:#181818;stroke-width:0.5;" width="113.7441" x="273.84" y="491"/><ellipse cx="288.84" cy="507" fill="#ADD1B2" rx="11" ry="11" style="stroke:#181818;stroke-width:1.0;"/><path d="M291.8088,512.6406 Q291.2306,512.9375 290.59,513.0781 Q289.9494,513.2344 289.2463,513.2344 Q286.7463,513.2344 285.4181,511.5938 Q284.1056,509.9375 284.1056,506.8125 Q284.1056,503.6875 285.4181,502.0313 Q286.7463,500.375 289.2463,500.375 Q289.9494,500.375 290.59,500.5313 Q291.2463,500.6875 291.8088,500.9844 L291.8088,503.7031 Q291.1838,503.125 290.59,502.8594 Q289.9963,502.5781 289.3713,502.5781 Q288.0275,502.5781 287.34,503.6563 Q286.6525,504.7188 286.6525,506.8125 Q286.6525,508.9063 287.34,509.9844 Q288.0275,511.0469 289.3713,511.0469 Q289.9963,511.0469 290.59,510.7813 Q291.1838,510.5 291.8088,509.9219 L291.8088,512.6406 Z " fill="#000000"/><text fill="#000000" font-family="sans-serif" font-size="14" lengthAdjust="spacing" textLength="81.7441" x="302.84" y="511.8467">Comentario</text><line style="stroke:#181818;stroke-width:0.5;" x1="274.84" x2="386.5841" y1="523" y2="523"/><line style="stroke:#181818;stroke-width:0.5;" x1="274.84" x2="386.5841" y1="531" y2="531"/></g><!--link Alumno to Usuario--><g id="link_Alumno_Usuario"><path codeLine="12" d="M92.06,55.48 C124.24,73.32 152.5566,89.0238 184.7066,106.8438 " fill="none" id="Alumno-to-Usuario" style="stroke:#181818;stroke-width:1.0;"/><polygon fill="none" points="200.45,115.57,187.6154,101.596,181.7979,112.0916,200.45,115.57" style="stroke:#181818;stroke-width:1.0;"/></g><!--link Exalumno to Usuario--><g id="link_Exalumno_Usuario"><path codeLine="13" d="M191.97,55.48 C202.81,73.32 208.3016,82.3679 219.1316,100.1879 " fill="none" id="Exalumno-to-Usuario" style="stroke:#181818;stroke-width:1.0;"/><polygon fill="none" points="228.48,115.57,224.259,97.0718,214.0043,103.304,228.48,115.57" style="stroke:#181818;stroke-width:1.0;"/></g><!--link Profesor to Usuario--><g id="link_Profesor_Usuario"><path codeLine="14" d="M294.22,55.48 C283.22,73.32 277.5986,82.4293 266.6086,100.2493 " fill="none" id="Profesor-to-Usuario" style="stroke:#181818;stroke-width:1.0;"/><polygon fill="none" points="257.16,115.57,271.7155,103.3988,261.5017,97.0998,257.16,115.57" style="stroke:#181818;stroke-width:1.0;"/></g><!--link Grado to Usuario--><g id="link_Grado_Usuario"><path codeLine="15" d="M388.23,53.91 C357.49,71.89 329.6065,88.1806 298.2065,106.5506 " fill="none" id="Grado-to-Usuario" style="stroke:#181818;stroke-width:1.0;"/><polygon fill="none" points="282.67,115.64,301.2363,111.7295,295.1767,101.3718,282.67,115.64" style="stroke:#181818;stroke-width:1.0;"/></g><!--link Usuario to Posts--><g id="link_Usuario_Posts"><path codeLine="18" d="M199.64,161.94 C170.32,178.81 133.83,205.54 116.71,241 C95.34,285.23 131.3025,332.1623 160.3425,361.2723 " fill="none" id="Usuario-to-Posts" style="stroke:#181818;stroke-width:1.0;"/><polygon fill="#181818" points="164.58,365.52,161.0555,356.3234,161.0487,361.9802,155.3919,361.9734,164.58,365.52" style="stroke:#181818;stroke-width:1.0;"/><text fill="#000000" font-family="sans-serif" font-size="13" lengthAdjust="spacing" textLength="43.3228" x="117.71" y="269.5669">realiza</text></g><!--link Usuario to Comunidades--><g id="link_Usuario_Comunidades"><path codeLine="19" d="M242.71,164.42 C242.71,186.31 242.71,212.8 242.71,234.66 " fill="none" id="Usuario-to-Comunidades" style="stroke:#181818;stroke-width:1.0;"/><polygon fill="#181818" points="242.71,240.66,246.71,231.66,242.71,235.66,238.71,231.66,242.71,240.66" style="stroke:#181818;stroke-width:1.0;"/><text fill="#000000" font-family="sans-serif" font-size="13" lengthAdjust="spacing" textLength="57.2495" x="243.71" y="207.0669">participa</text></g><!--link Comunidades to Posts--><g id="link_Comunidades_Posts"><path codeLine="20" d="M232.8,289.42 C223.55,311.31 212.1582,338.2743 202.9082,360.1343 " fill="none" id="Comunidades-to-Posts" style="stroke:#181818;stroke-width:1.0;"/><polygon fill="#181818" points="200.57,365.66,207.761,358.9303,202.5185,361.0553,200.3935,355.8127,200.57,365.66" style="stroke:#181818;stroke-width:1.0;"/><text fill="#000000" font-family="sans-serif" font-size="13" lengthAdjust="spacing" textLength="87.1787" x="221.71" y="332.0669">formadas por</text></g><!--link Posts to Etiquetas--><g id="link_Posts_Etiquetas"><path codeLine="21" d="M166,414.4 C158.65,422.93 151.55,433.17 147.71,444 C142.42,458.9 142.3773,470.7883 144.4973,484.7183 " fill="none" id="Posts-to-Etiquetas" style="stroke:#181818;stroke-width:1.0;"/><polygon fill="#181818" points="145.4,490.65,148.0004,481.1506,144.6477,485.7069,140.0914,482.3543,145.4,490.65" style="stroke:#181818;stroke-width:1.0;"/><text fill="#000000" font-family="sans-serif" font-size="13" lengthAdjust="spacing" textLength="110.0493" x="148.71" y="457.0669">categorizado por</text></g><!--link Posts to Comentario--><g id="link_Posts_Comentario"><path codeLine="22" d="M225.48,414.32 C237.91,423.15 251.79,433.6 263.71,444 C280.31,458.49 293.442,472.0331 306.232,486.1531 " fill="none" id="Posts-to-Comentario" style="stroke:#181818;stroke-width:1.0;"/><polygon fill="#181818" points="310.26,490.6,307.1825,481.2443,306.9033,486.8942,301.2533,486.615,310.26,490.6" style="stroke:#181818;stroke-width:1.0;"/><text fill="#000000" font-family="sans-serif" font-size="13" lengthAdjust="spacing" textLength="32.9443" x="282.71" y="457.0669">tiene</text></g><!--link Comentario to Usuario--><g id="link_Comentario_Usuario"><path codeLine="23" d="M332.16,490.8 C334.67,443.48 338.25,332.54 323.71,241 C320.29,219.47 321.93,212.04 309.71,194 C302.05,182.7 296.014,176.3275 285.304,168.1275 " fill="none" id="Comentario-to-Usuario" style="stroke:#181818;stroke-width:1.0;"/><polygon fill="#181818" points="280.54,164.48,285.2543,173.1273,284.51,167.5196,290.1177,166.7753,280.54,164.48" style="stroke:#181818;stroke-width:1.0;"/><text fill="#000000" font-family="sans-serif" font-size="13" lengthAdjust="spacing" textLength="69.6084" x="333.71" y="332.0669">escrito por</text></g><!--SRC=[LP11QWCn34NtFeLsNUK2MGHA2DsMG0wWsaehcB6daWPAoU6hp8odzix_wsCzVVnG4um6SK1LkEcCmYMiwdMOnrp5vGTR-IxbJbfaas-2QHyLDTtUvpBEcHCcgix5-7icmoP1sPQjuGMkD63aaaaX4NoHK8wCOIM1m-5nsXahKEzMhjvTy7ghN-O8Gai93hf5F7zQZu4Z2E70lzZDckCyCQ4OHvumj7xxnxt8Y0aL9kzjDP_ZlH6FH3JwBEARdBUF_HVbEMFA51hhcQXiHo2DmhRyy0S0]--></g></svg>