<?xml version="1.0" encoding="us-ascii" standalone="no"?><svg xmlns="http://www.w3.org/2000/svg" xmlns:xlink="http://www.w3.org/1999/xlink" contentStyleType="text/css" height="569px" preserveAspectRatio="none" style="width:449px;height:569px;background:#FFFFFF;" version="1.1" viewBox="0 0 449 569" width="449px" zoomAndPan="magnify"><defs/><g><!--class Usuario--><g id="elem_Usuario"><rect codeLine="1" fill="#F1F1F1" height="48" id="Usuario" rx="2.5" ry="2.5" style="stroke:#181818;stroke-width:0.5;" width="81" x="189" y="116"/><ellipse cx="204" cy="132" fill="#A9DCDF" rx="11" ry="11" style="stroke:#181818;stroke-width:1.0;"/><path d="M206.1875,133.7656 L202.0469,133.7656 L201.625,134.7969 L202.0469,134.7969 Q202.6563,134.7969 202.9219,135.0313 Q203.1875,135.2656 203.1875,135.6563 Q203.1875,136.0313 202.9219,136.2656 Q202.6563,136.5 202.0469,136.5 L199.75,136.5 Q199.1406,136.5 198.8906,136.2656 Q198.625,136.0313 198.625,135.6406 Q198.625,135.2656 198.9063,135.0313 Q199.1719,134.7813 199.7969,134.7969 L202.4688,128.1406 L201.3594,128.1406 Q200.75,128.1406 200.4844,127.9063 Q200.2188,127.6719 200.2188,127.2813 Q200.2188,126.9063 200.4844,126.6719 Q200.75,126.4375 201.3594,126.4375 L205.0313,126.4375 L208.4219,134.7969 Q209.0156,134.7969 209.2031,134.9375 Q209.5938,135.2031 209.5938,135.6563 Q209.5938,136.0313 209.3281,136.2656 Q209.0781,136.5 208.4688,136.5 L206.1719,136.5 Q205.5625,136.5 205.2969,136.2656 Q205.0313,136.0313 205.0313,135.6406 Q205.0313,135.2656 205.2969,135.0313 Q205.5625,134.7969 206.1719,134.7969 L206.5938,134.7969 L206.1875,133.7656 Z M205.4688,132.0625 L204.1094,128.6875 L202.7344,132.0625 L205.4688,132.0625 Z " fill="#000000"/><text fill="#000000" font-family="sans-serif" font-size="14" font-style="italic" lengthAdjust="spacing" textLength="49" x="218" y="137.7969">Usuario</text><line style="stroke:#181818;stroke-width:0.5;" x1="190" x2="269" y1="148" y2="148"/><line style="stroke:#181818;stroke-width:0.5;" x1="190" x2="269" y1="156" y2="156"/></g><!--class Alumno--><g id="elem_Alumno"><rect codeLine="4" fill="#F1F1F1" height="48" id="Alumno" rx="2.5" ry="2.5" style="stroke:#181818;stroke-width:0.5;" width="79" x="7" y="7"/><ellipse cx="22" cy="23" fill="#ADD1B2" rx="11" ry="11" style="stroke:#181818;stroke-width:1.0;"/><path d="M24.7656,18.875 Q24.9219,18.6563 25.1094,18.5469 Q25.2969,18.4375 25.5156,18.4375 Q25.8906,18.4375 26.125,18.7031 Q26.3594,18.9531 26.3594,19.5625 L26.3594,21.0156 Q26.3594,21.625 26.125,21.8906 Q25.8906,22.1563 25.5156,22.1563 Q25.1719,22.1563 24.9688,21.9531 Q24.7656,21.7656 24.6563,21.25 Q24.6094,20.8906 24.4219,20.7031 Q24.0938,20.3281 23.4844,20.1094 Q22.875,19.8906 22.25,19.8906 Q21.4844,19.8906 20.8438,20.2188 Q20.2188,20.5469 19.7188,21.2969 Q19.2344,22.0469 19.2344,23.0781 L19.2344,24.1719 Q19.2344,25.4063 20.125,26.2344 Q21.0156,27.0469 22.6094,27.0469 Q23.5469,27.0469 24.2031,26.7969 Q24.5938,26.6406 25.0156,26.2031 Q25.2813,25.9375 25.4219,25.8594 Q25.5781,25.7813 25.7813,25.7813 Q26.1094,25.7813 26.3594,26.0469 Q26.625,26.2969 26.625,26.6406 Q26.625,26.9844 26.2813,27.3906 Q25.7813,27.9688 24.9844,28.2969 Q23.9063,28.75 22.6094,28.75 Q21.0938,28.75 19.8906,28.125 Q18.9063,27.625 18.2188,26.5625 Q17.5313,25.4844 17.5313,24.2031 L17.5313,23.0469 Q17.5313,21.7188 18.1406,20.5781 Q18.7656,19.4219 19.8594,18.8125 Q20.9531,18.1875 22.1875,18.1875 Q22.9219,18.1875 23.5625,18.3594 Q24.2188,18.5156 24.7656,18.875 Z " fill="#000000"/><text fill="#000000" font-family="sans-serif" font-size="14" lengthAdjust="spacing" textLength="47" x="36" y="28.7969">Alumno</text><line style="stroke:#181818;stroke-width:0.5;" x1="8" x2="85" y1="39" y2="39"/><line style="stroke:#181818;stroke-width:0.5;" x1="8" x2="85" y1="47" y2="47"/></g><!--class Exalumno--><g id="elem_Exalumno"><rect codeLine="7" fill="#F1F1F1" height="48" id="Exalumno" rx="2.5" ry="2.5" style="stroke:#181818;stroke-width:0.5;" width="93" x="121" y="7"/><ellipse cx="136" cy="23" fill="#ADD1B2" rx="11" ry="11" style="stroke:#181818;stroke-width:1.0;"/><path d="M138.7656,18.875 Q138.9219,18.6563 139.1094,18.5469 Q139.2969,18.4375 139.5156,18.4375 Q139.8906,18.4375 140.125,18.7031 Q140.3594,18.9531 140.3594,19.5625 L140.3594,21.0156 Q140.3594,21.625 140.125,21.8906 Q139.8906,22.1563 139.5156,22.1563 Q139.1719,22.1563 138.9688,21.9531 Q138.7656,21.7656 138.6563,21.25 Q138.6094,20.8906 138.4219,20.7031 Q138.0938,20.3281 137.4844,20.1094 Q136.875,19.8906 136.25,19.8906 Q135.4844,19.8906 134.8438,20.2188 Q134.2188,20.5469 133.7188,21.2969 Q133.2344,22.0469 133.2344,23.0781 L133.2344,24.1719 Q133.2344,25.4063 134.125,26.2344 Q135.0156,27.0469 136.6094,27.0469 Q137.5469,27.0469 138.2031,26.7969 Q138.5938,26.6406 139.0156,26.2031 Q139.2813,25.9375 139.4219,25.8594 Q139.5781,25.7813 139.7813,25.7813 Q140.1094,25.7813 140.3594,26.0469 Q140.625,26.2969 140.625,26.6406 Q140.625,26.9844 140.2813,27.3906 Q139.7813,27.9688 138.9844,28.2969 Q137.9063,28.75 136.6094,28.75 Q135.0938,28.75 133.8906,28.125 Q132.9063,27.625 132.2188,26.5625 Q131.5313,25.4844 131.5313,24.2031 L131.5313,23.0469 Q131.5313,21.7188 132.1406,20.5781 Q132.7656,19.4219 133.8594,18.8125 Q134.9531,18.1875 136.1875,18.1875 Q136.9219,18.1875 137.5625,18.3594 Q138.2188,18.5156 138.7656,18.875 Z " fill="#000000"/><text fill="#000000" font-family="sans-serif" font-size="14" lengthAdjust="spacing" textLength="61" x="150" y="28.7969">Exalumno</text><line style="stroke:#181818;stroke-width:0.5;" x1="122" x2="213" y1="39" y2="39"/><line style="stroke:#181818;stroke-width:0.5;" x1="122" x2="213" y1="47" y2="47"/></g><!--class Profesor--><g id="elem_Profesor"><rect codeLine="10" fill="#F1F1F1" height="48" id="Profesor" rx="2.5" ry="2.5" style="stroke:#181818;stroke-width:0.5;" width="86" x="249.5" y="7"/><ellipse cx="264.5" cy="23" fill="#ADD1B2" rx="11" ry="11" style="stroke:#181818;stroke-width:1.0;"/><path d="M267.2656,18.875 Q267.4219,18.6563 267.6094,18.5469 Q267.7969,18.4375 268.0156,18.4375 Q268.3906,18.4375 268.625,18.7031 Q268.8594,18.9531 268.8594,19.5625 L268.8594,21.0156 Q268.8594,21.625 268.625,21.8906 Q268.3906,22.1563 268.0156,22.1563 Q267.6719,22.1563 267.4688,21.9531 Q267.2656,21.7656 267.1563,21.25 Q267.1094,20.8906 266.9219,20.7031 Q266.5938,20.3281 265.9844,20.1094 Q265.375,19.8906 264.75,19.8906 Q263.9844,19.8906 263.3438,20.2188 Q262.7188,20.5469 262.2188,21.2969 Q261.7344,22.0469 261.7344,23.0781 L261.7344,24.1719 Q261.7344,25.4063 262.625,26.2344 Q263.5156,27.0469 265.1094,27.0469 Q266.0469,27.0469 266.7031,26.7969 Q267.0938,26.6406 267.5156,26.2031 Q267.7813,25.9375 267.9219,25.8594 Q268.0781,25.7813 268.2813,25.7813 Q268.6094,25.7813 268.8594,26.0469 Q269.125,26.2969 269.125,26.6406 Q269.125,26.9844 268.7813,27.3906 Q268.2813,27.9688 267.4844,28.2969 Q266.4063,28.75 265.1094,28.75 Q263.5938,28.75 262.3906,28.125 Q261.4063,27.625 260.7188,26.5625 Q260.0313,25.4844 260.0313,24.2031 L260.0313,23.0469 Q260.0313,21.7188 260.6406,20.5781 Q261.2656,19.4219 262.3594,18.8125 Q263.4531,18.1875 264.6875,18.1875 Q265.4219,18.1875 266.0625,18.3594 Q266.7188,18.5156 267.2656,18.875 Z " fill="#000000"/><text fill="#000000" font-family="sans-serif" font-size="14" lengthAdjust="spacing" textLength="54" x="278.5" y="28.7969">Profesor</text><line style="stroke:#181818;stroke-width:0.5;" x1="250.5" x2="334.5" y1="39" y2="39"/><line style="stroke:#181818;stroke-width:0.5;" x1="250.5" x2="334.5" y1="47" y2="47"/></g><!--class Grado--><g id="elem_Grado"><rect codeLine="13" fill="#F1F1F1" height="48" id="Grado" rx="2.5" ry="2.5" style="stroke:#181818;stroke-width:0.5;" width="72" x="370.5" y="7"/><ellipse cx="385.5" cy="23" fill="#ADD1B2" rx="11" ry="11" style="stroke:#181818;stroke-width:1.0;"/><path d="M388.2656,18.875 Q388.4219,18.6563 388.6094,18.5469 Q388.7969,18.4375 389.0156,18.4375 Q389.3906,18.4375 389.625,18.7031 Q389.8594,18.9531 389.8594,19.5625 L389.8594,21.0156 Q389.8594,21.625 389.625,21.8906 Q389.3906,22.1563 389.0156,22.1563 Q388.6719,22.1563 388.4688,21.9531 Q388.2656,21.7656 388.1563,21.25 Q388.1094,20.8906 387.9219,20.7031 Q387.5938,20.3281 386.9844,20.1094 Q386.375,19.8906 385.75,19.8906 Q384.9844,19.8906 384.3438,20.2188 Q383.7188,20.5469 383.2188,21.2969 Q382.7344,22.0469 382.7344,23.0781 L382.7344,24.1719 Q382.7344,25.4063 383.625,26.2344 Q384.5156,27.0469 386.1094,27.0469 Q387.0469,27.0469 387.7031,26.7969 Q388.0938,26.6406 388.5156,26.2031 Q388.7813,25.9375 388.9219,25.8594 Q389.0781,25.7813 389.2813,25.7813 Q389.6094,25.7813 389.8594,26.0469 Q390.125,26.2969 390.125,26.6406 Q390.125,26.9844 389.7813,27.3906 Q389.2813,27.9688 388.4844,28.2969 Q387.4063,28.75 386.1094,28.75 Q384.5938,28.75 383.3906,28.125 Q382.4063,27.625 381.7188,26.5625 Q381.0313,25.4844 381.0313,24.2031 L381.0313,23.0469 Q381.0313,21.7188 381.6406,20.5781 Q382.2656,19.4219 383.3594,18.8125 Q384.4531,18.1875 385.6875,18.1875 Q386.4219,18.1875 387.0625,18.3594 Q387.7188,18.5156 388.2656,18.875 Z " fill="#000000"/><text fill="#000000" font-family="sans-serif" font-size="14" lengthAdjust="spacing" textLength="40" x="399.5" y="28.7969">Grado</text><line style="stroke:#181818;stroke-width:0.5;" x1="371.5" x2="441.5" y1="39" y2="39"/><line style="stroke:#181818;stroke-width:0.5;" x1="371.5" x2="441.5" y1="47" y2="47"/></g><!--class Posts--><g id="elem_Posts"><rect codeLine="17" fill="#F1F1F1" height="48" id="Posts" rx="2.5" ry="2.5" style="stroke:#181818;stroke-width:0.5;" width="67" x="196" y="370"/><ellipse cx="211" cy="386" fill="#ADD1B2" rx="11" ry="11" style="stroke:#181818;stroke-width:1.0;"/><path d="M213.7656,381.875 Q213.9219,381.6563 214.1094,381.5469 Q214.2969,381.4375 214.5156,381.4375 Q214.8906,381.4375 215.125,381.7031 Q215.3594,381.9531 215.3594,382.5625 L215.3594,384.0156 Q215.3594,384.625 215.125,384.8906 Q214.8906,385.1563 214.5156,385.1563 Q214.1719,385.1563 213.9688,384.9531 Q213.7656,384.7656 213.6563,384.25 Q213.6094,383.8906 213.4219,383.7031 Q213.0938,383.3281 212.4844,383.1094 Q211.875,382.8906 211.25,382.8906 Q210.4844,382.8906 209.8438,383.2188 Q209.2188,383.5469 208.7188,384.2969 Q208.2344,385.0469 208.2344,386.0781 L208.2344,387.1719 Q208.2344,388.4063 209.125,389.2344 Q210.0156,390.0469 211.6094,390.0469 Q212.5469,390.0469 213.2031,389.7969 Q213.5938,389.6406 214.0156,389.2031 Q214.2813,388.9375 214.4219,388.8594 Q214.5781,388.7813 214.7813,388.7813 Q215.1094,388.7813 215.3594,389.0469 Q215.625,389.2969 215.625,389.6406 Q215.625,389.9844 215.2813,390.3906 Q214.7813,390.9688 213.9844,391.2969 Q212.9063,391.75 211.6094,391.75 Q210.0938,391.75 208.8906,391.125 Q207.9063,390.625 207.2188,389.5625 Q206.5313,388.4844 206.5313,387.2031 L206.5313,386.0469 Q206.5313,384.7188 207.1406,383.5781 Q207.7656,382.4219 208.8594,381.8125 Q209.9531,381.1875 211.1875,381.1875 Q211.9219,381.1875 212.5625,381.3594 Q213.2188,381.5156 213.7656,381.875 Z " fill="#000000"/><text fill="#000000" font-family="sans-serif" font-size="14" lengthAdjust="spacing" textLength="35" x="225" y="391.7969">Posts</text><line style="stroke:#181818;stroke-width:0.5;" x1="197" x2="262" y1="402" y2="402"/><line style="stroke:#181818;stroke-width:0.5;" x1="197" x2="262" y1="410" y2="410"/></g><!--class Comunidades--><g id="elem_Comunidades"><rect codeLine="20" fill="#F1F1F1" height="48" id="Comunidades" rx="2.5" ry="2.5" style="stroke:#181818;stroke-width:0.5;" width="119" x="276" y="243"/><ellipse cx="291" cy="259" fill="#ADD1B2" rx="11" ry="11" style="stroke:#181818;stroke-width:1.0;"/><path d="M293.7656,254.875 Q293.9219,254.6563 294.1094,254.5469 Q294.2969,254.4375 294.5156,254.4375 Q294.8906,254.4375 295.125,254.7031 Q295.3594,254.9531 295.3594,255.5625 L295.3594,257.0156 Q295.3594,257.625 295.125,257.8906 Q294.8906,258.1563 294.5156,258.1563 Q294.1719,258.1563 293.9688,257.9531 Q293.7656,257.7656 293.6563,257.25 Q293.6094,256.8906 293.4219,256.7031 Q293.0938,256.3281 292.4844,256.1094 Q291.875,255.8906 291.25,255.8906 Q290.4844,255.8906 289.8438,256.2188 Q289.2188,256.5469 288.7188,257.2969 Q288.2344,258.0469 288.2344,259.0781 L288.2344,260.1719 Q288.2344,261.4063 289.125,262.2344 Q290.0156,263.0469 291.6094,263.0469 Q292.5469,263.0469 293.2031,262.7969 Q293.5938,262.6406 294.0156,262.2031 Q294.2813,261.9375 294.4219,261.8594 Q294.5781,261.7813 294.7813,261.7813 Q295.1094,261.7813 295.3594,262.0469 Q295.625,262.2969 295.625,262.6406 Q295.625,262.9844 295.2813,263.3906 Q294.7813,263.9688 293.9844,264.2969 Q292.9063,264.75 291.6094,264.75 Q290.0938,264.75 288.8906,264.125 Q287.9063,263.625 287.2188,262.5625 Q286.5313,261.4844 286.5313,260.2031 L286.5313,259.0469 Q286.5313,257.7188 287.1406,256.5781 Q287.7656,255.4219 288.8594,254.8125 Q289.9531,254.1875 291.1875,254.1875 Q291.9219,254.1875 292.5625,254.3594 Q293.2188,254.5156 293.7656,254.875 Z " fill="#000000"/><text fill="#000000" font-family="sans-serif" font-size="14" lengthAdjust="spacing" textLength="87" x="305" y="264.7969">Comunidades</text><line style="stroke:#181818;stroke-width:0.5;" x1="277" x2="394" y1="275" y2="275"/><line style="stroke:#181818;stroke-width:0.5;" x1="277" x2="394" y1="283" y2="283"/></g><!--class Etiquetas--><g id="elem_Etiquetas"><rect codeLine="23" fill="#F1F1F1" height="48" id="Etiquetas" rx="2.5" ry="2.5" style="stroke:#181818;stroke-width:0.5;" width="91" x="61" y="514"/><ellipse cx="76" cy="530" fill="#ADD1B2" rx="11" ry="11" style="stroke:#181818;stroke-width:1.0;"/><path d="M78.7656,525.875 Q78.9219,525.6563 79.1094,525.5469 Q79.2969,525.4375 79.5156,525.4375 Q79.8906,525.4375 80.125,525.7031 Q80.3594,525.9531 80.3594,526.5625 L80.3594,528.0156 Q80.3594,528.625 80.125,528.8906 Q79.8906,529.1563 79.5156,529.1563 Q79.1719,529.1563 78.9688,528.9531 Q78.7656,528.7656 78.6563,528.25 Q78.6094,527.8906 78.4219,527.7031 Q78.0938,527.3281 77.4844,527.1094 Q76.875,526.8906 76.25,526.8906 Q75.4844,526.8906 74.8438,527.2188 Q74.2188,527.5469 73.7188,528.2969 Q73.2344,529.0469 73.2344,530.0781 L73.2344,531.1719 Q73.2344,532.4063 74.125,533.2344 Q75.0156,534.0469 76.6094,534.0469 Q77.5469,534.0469 78.2031,533.7969 Q78.5938,533.6406 79.0156,533.2031 Q79.2813,532.9375 79.4219,532.8594 Q79.5781,532.7813 79.7813,532.7813 Q80.1094,532.7813 80.3594,533.0469 Q80.625,533.2969 80.625,533.6406 Q80.625,533.9844 80.2813,534.3906 Q79.7813,534.9688 78.9844,535.2969 Q77.9063,535.75 76.6094,535.75 Q75.0938,535.75 73.8906,535.125 Q72.9063,534.625 72.2188,533.5625 Q71.5313,532.4844 71.5313,531.2031 L71.5313,530.0469 Q71.5313,528.7188 72.1406,527.5781 Q72.7656,526.4219 73.8594,525.8125 Q74.9531,525.1875 76.1875,525.1875 Q76.9219,525.1875 77.5625,525.3594 Q78.2188,525.5156 78.7656,525.875 Z " fill="#000000"/><text fill="#000000" font-family="sans-serif" font-size="14" lengthAdjust="spacing" textLength="59" x="90" y="535.7969">Etiquetas</text><line style="stroke:#181818;stroke-width:0.5;" x1="62" x2="151" y1="546" y2="546"/><line style="stroke:#181818;stroke-width:0.5;" x1="62" x2="151" y1="554" y2="554"/></g><!--class Pedir--><g id="elem_Pedir"><rect fill="#F1F1F1" height="48" id="Pedir" rx="2.5" ry="2.5" style="stroke:#181818;stroke-width:0.5;" width="65" x="197" y="514"/><ellipse cx="212" cy="530" fill="#ADD1B2" rx="11" ry="11" style="stroke:#181818;stroke-width:1.0;"/><path d="M214.7656,525.875 Q214.9219,525.6563 215.1094,525.5469 Q215.2969,525.4375 215.5156,525.4375 Q215.8906,525.4375 216.125,525.7031 Q216.3594,525.9531 216.3594,526.5625 L216.3594,528.0156 Q216.3594,528.625 216.125,528.8906 Q215.8906,529.1563 215.5156,529.1563 Q215.1719,529.1563 214.9688,528.9531 Q214.7656,528.7656 214.6563,528.25 Q214.6094,527.8906 214.4219,527.7031 Q214.0938,527.3281 213.4844,527.1094 Q212.875,526.8906 212.25,526.8906 Q211.4844,526.8906 210.8438,527.2188 Q210.2188,527.5469 209.7188,528.2969 Q209.2344,529.0469 209.2344,530.0781 L209.2344,531.1719 Q209.2344,532.4063 210.125,533.2344 Q211.0156,534.0469 212.6094,534.0469 Q213.5469,534.0469 214.2031,533.7969 Q214.5938,533.6406 215.0156,533.2031 Q215.2813,532.9375 215.4219,532.8594 Q215.5781,532.7813 215.7813,532.7813 Q216.1094,532.7813 216.3594,533.0469 Q216.625,533.2969 216.625,533.6406 Q216.625,533.9844 216.2813,534.3906 Q215.7813,534.9688 214.9844,535.2969 Q213.9063,535.75 212.6094,535.75 Q211.0938,535.75 209.8906,535.125 Q208.9063,534.625 208.2188,533.5625 Q207.5313,532.4844 207.5313,531.2031 L207.5313,530.0469 Q207.5313,528.7188 208.1406,527.5781 Q208.7656,526.4219 209.8594,525.8125 Q210.9531,525.1875 212.1875,525.1875 Q212.9219,525.1875 213.5625,525.3594 Q214.2188,525.5156 214.7656,525.875 Z " fill="#000000"/><text fill="#000000" font-family="sans-serif" font-size="14" lengthAdjust="spacing" textLength="33" x="226" y="535.7969">Pedir</text><line style="stroke:#181818;stroke-width:0.5;" x1="198" x2="261" y1="546" y2="546"/><line style="stroke:#181818;stroke-width:0.5;" x1="198" x2="261" y1="554" y2="554"/></g><!--class Ofrecer--><g id="elem_Ofrecer"><rect fill="#F1F1F1" height="48" id="Ofrecer" rx="2.5" ry="2.5" style="stroke:#181818;stroke-width:0.5;" width="80" x="297.5" y="514"/><ellipse cx="312.5" cy="530" fill="#ADD1B2" rx="11" ry="11" style="stroke:#181818;stroke-width:1.0;"/><path d="M315.2656,525.875 Q315.4219,525.6563 315.6094,525.5469 Q315.7969,525.4375 316.0156,525.4375 Q316.3906,525.4375 316.625,525.7031 Q316.8594,525.9531 316.8594,526.5625 L316.8594,528.0156 Q316.8594,528.625 316.625,528.8906 Q316.3906,529.1563 316.0156,529.1563 Q315.6719,529.1563 315.4688,528.9531 Q315.2656,528.7656 315.1563,528.25 Q315.1094,527.8906 314.9219,527.7031 Q314.5938,527.3281 313.9844,527.1094 Q313.375,526.8906 312.75,526.8906 Q311.9844,526.8906 311.3438,527.2188 Q310.7188,527.5469 310.2188,528.2969 Q309.7344,529.0469 309.7344,530.0781 L309.7344,531.1719 Q309.7344,532.4063 310.625,533.2344 Q311.5156,534.0469 313.1094,534.0469 Q314.0469,534.0469 314.7031,533.7969 Q315.0938,533.6406 315.5156,533.2031 Q315.7813,532.9375 315.9219,532.8594 Q316.0781,532.7813 316.2813,532.7813 Q316.6094,532.7813 316.8594,533.0469 Q317.125,533.2969 317.125,533.6406 Q317.125,533.9844 316.7813,534.3906 Q316.2813,534.9688 315.4844,535.2969 Q314.4063,535.75 313.1094,535.75 Q311.5938,535.75 310.3906,535.125 Q309.4063,534.625 308.7188,533.5625 Q308.0313,532.4844 308.0313,531.2031 L308.0313,530.0469 Q308.0313,528.7188 308.6406,527.5781 Q309.2656,526.4219 310.3594,525.8125 Q311.4531,525.1875 312.6875,525.1875 Q313.4219,525.1875 314.0625,525.3594 Q314.7188,525.5156 315.2656,525.875 Z " fill="#000000"/><text fill="#000000" font-family="sans-serif" font-size="14" lengthAdjust="spacing" textLength="48" x="326.5" y="535.7969">Ofrecer</text><line style="stroke:#181818;stroke-width:0.5;" x1="298.5" x2="376.5" y1="546" y2="546"/><line style="stroke:#181818;stroke-width:0.5;" x1="298.5" x2="376.5" y1="554" y2="554"/></g><!--link Alumno to Usuario--><g id="link_Alumno_Usuario"><path codeLine="26" d="M86.21,55.22 C116.9,73.16 143.6515,88.804 174.3315,106.744 " fill="none" id="Alumno-to-Usuario" style="stroke:#181818;stroke-width:1.0;"/><polygon fill="none" points="189.87,115.83,177.3602,101.5645,171.3029,111.9234,189.87,115.83" style="stroke:#181818;stroke-width:1.0;"/></g><!--link Exalumno to Usuario--><g id="link_Exalumno_Usuario"><path codeLine="27" d="M180.95,55.22 C191.35,73.16 196.659,82.3137 207.049,100.2537 " fill="none" id="Exalumno-to-Usuario" style="stroke:#181818;stroke-width:1.0;"/><polygon fill="none" points="216.07,115.83,212.241,97.2467,201.8569,103.2607,216.07,115.83" style="stroke:#181818;stroke-width:1.0;"/></g><!--link Profesor to Usuario--><g id="link_Profesor_Usuario"><path codeLine="28" d="M278.83,55.22 C268.26,73.16 262.8309,82.3779 252.2709,100.3179 " fill="none" id="Profesor-to-Usuario" style="stroke:#181818;stroke-width:1.0;"/><polygon fill="none" points="243.14,115.83,257.4416,103.3615,247.1002,97.2742,243.14,115.83" style="stroke:#181818;stroke-width:1.0;"/></g><!--link Grado to Usuario--><g id="link_Grado_Usuario"><path codeLine="29" d="M370.25,53.91 C340.42,71.95 313.6457,88.1407 283.2457,106.5107 " fill="none" id="Grado-to-Usuario" style="stroke:#181818;stroke-width:1.0;"/><polygon fill="none" points="267.84,115.82,286.3488,111.6459,280.1426,101.3754,267.84,115.82" style="stroke:#181818;stroke-width:1.0;"/></g><!--link Usuario to Posts--><g id="link_Usuario_Posts"><path codeLine="32" d="M226.3,164.03 C223.61,184.67 219.96,215.79 218.5,243 C217.35,264.3 217.35,269.7 218.5,291 C219.96,318.21 222.8346,343.3803 225.5246,364.0203 " fill="none" id="Usuario-to-Posts" style="stroke:#181818;stroke-width:1.0;"/><polygon fill="#181818" points="226.3,369.97,229.1033,360.5285,225.6538,365.0119,221.1704,361.5624,226.3,369.97" style="stroke:#181818;stroke-width:1.0;"/><text fill="#000000" font-family="sans-serif" font-size="13" lengthAdjust="spacing" textLength="38" x="219.5" y="272.5283">realiza</text></g><!--link Usuario to Comunidades--><g id="link_Usuario_Comunidades"><path codeLine="33" d="M249.19,164.22 C268.23,186.67 293.0287,215.9245 312.0387,238.3345 " fill="none" id="Usuario-to-Comunidades" style="stroke:#181818;stroke-width:1.0;"/><polygon fill="#181818" points="315.92,242.91,313.1484,233.4592,312.6856,239.0971,307.0477,238.6343,315.92,242.91" style="stroke:#181818;stroke-width:1.0;"/><text fill="#000000" font-family="sans-serif" font-size="13" lengthAdjust="spacing" textLength="49" x="289.5" y="209.0283">participa</text></g><!--link Comunidades to Posts--><g id="link_Comunidades_Posts"><path codeLine="34" d="M315.81,291.22 C296.77,313.67 271.9713,342.9245 252.9613,365.3345 " fill="none" id="Comunidades-to-Posts" style="stroke:#181818;stroke-width:1.0;"/><polygon fill="#181818" points="249.08,369.91,257.9523,365.6343,252.3144,366.0971,251.8516,360.4592,249.08,369.91" style="stroke:#181818;stroke-width:1.0;"/><text fill="#000000" font-family="sans-serif" font-size="13" lengthAdjust="spacing" textLength="75" x="289.5" y="336.0283">formadas por</text></g><!--link Posts to Pedir--><g id="link_Posts_Pedir"><path codeLine="35" d="M229.5,418.13 C229.5,444.54 229.5,481.48 229.5,507.88 " fill="none" id="Posts-to-Pedir" style="stroke:#181818;stroke-width:1.0;"/><polygon fill="#181818" points="229.5,513.88,233.5,504.88,229.5,508.88,225.5,504.88,229.5,513.88" style="stroke:#181818;stroke-width:1.0;"/><text fill="#000000" font-family="sans-serif" font-size="13" lengthAdjust="spacing" textLength="35" x="230.5" y="471.5283">puede</text></g><!--link Posts to Ofrecer--><g id="link_Posts_Ofrecer"><path codeLine="36" d="M249.89,418.11 C257.76,427.27 266.73,437.99 274.5,448 C291.45,469.84 306.1655,490.7557 318.6055,508.9657 " fill="none" id="Posts-to-Ofrecer" style="stroke:#181818;stroke-width:1.0;"/><polygon fill="#181818" points="321.99,513.92,320.2161,504.2322,319.1696,509.7914,313.6104,508.7449,321.99,513.92" style="stroke:#181818;stroke-width:1.0;"/><text fill="#000000" font-family="sans-serif" font-size="13" lengthAdjust="spacing" textLength="35" x="299.5" y="471.5283">puede</text></g><!--link Posts to Etiquetas--><g id="link_Posts_Etiquetas"><path codeLine="37" d="M190.2157,410.31 C171.1257,419.06 153.59,429.87 138.5,448 C122.64,467.05 115.5977,488.7312 111.4777,508.1112 " fill="none" id="Posts-Etiquetas" style="stroke:#181818;stroke-width:1.0;"/><polygon fill="#181818" points="195.67,407.81,185.8218,407.9238,191.1247,409.8934,189.1552,415.1963,195.67,407.81" style="stroke:#181818;stroke-width:1.0;"/><polygon fill="#181818" points="110.23,513.98,116.0141,506.0085,111.2697,509.0893,108.1889,504.345,110.23,513.98" style="stroke:#181818;stroke-width:1.0;"/><text fill="#000000" font-family="sans-serif" font-size="13" lengthAdjust="spacing" textLength="61" x="139.5" y="463.0283">contiene &gt;</text><polygon fill="#000000" points="148.1355,471.0419,140.1741,476.2444,144.7525,479.9304,148.1355,471.0419" style="stroke:#000000;stroke-width:1.0;"/><text fill="#000000" font-family="sans-serif" font-size="13" lengthAdjust="spacing" textLength="67" x="153" y="480.3193">categorizan</text></g><!--SRC=[PP1DJiGm34RtEONL3QjUe1fLGe1OCa9YnyOaBehKniLE9CJFgJW25oEbxKoYoV9zrfTduuj6GHl1ZgWAJvfGFCEd-JPcHTTZca95xjxnWXs51rAMajqBkcte2cvfyC5R__iJm15m_bM1GlGE7Mb68wZNI1FkZQnHoxeRdbBOnakRwDyIHTpWfjksN_s-ZJa9L_IaND5LkaBP_f56j9u3_JiBdStDVhAsxJVd3eHmz1zOPQL-1pDApDUOqPIyx1XO9dHvhPd5h729coCvByrIaSXHcJmCGfOkiiCIdg_KGMCvsrCWw65vp-405YEzicJfqFm1]--></g></svg>