<svg xmlns="http://www.w3.org/2000/svg" xmlns:xlink="http://www.w3.org/1999/xlink" contentStyleType="text/css" data-diagram-type="DESCRIPTION" height="1373px" preserveAspectRatio="none" style="width:418px;height:1373px;background:#FFFFFF;" version="1.1" viewBox="0 0 418 1373" width="418px" zoomAndPan="magnify"><defs/><g><!--cluster Gesti?n de Horarios Universitarios--><g id="cluster_Gesti&#243;n de Horarios Universitarios"><rect fill="#FFFFFF" fill-opacity="0.00000" height="1360" rx="2.5" ry="2.5" style="stroke:#181818;stroke-width:1;" width="287.27" x="125.08" y="7"/><text fill="#000000" font-family="sans-serif" font-size="14" font-weight="bold" lengthAdjust="spacing" textLength="272.46" x="132.485" y="21.9951">Gesti&#243;n de Horarios Universitarios</text></g><!--cluster Gesti?n de Profesores--><g id="cluster_Gesti&#243;n de Profesores"><path d="M169.47,1033 L345.1829,1033 A3.75,3.75 0 0 1 347.6829,1035.5 L354.6829,1055.2969 L367.97,1055.2969 A2.5,2.5 0 0 1 370.47,1057.7969 L370.47,1340.5 A2.5,2.5 0 0 1 367.97,1343 L169.47,1343 A2.5,2.5 0 0 1 166.97,1340.5 L166.97,1035.5 A2.5,2.5 0 0 1 169.47,1033 " fill="#FFFFFF" fill-opacity="0.00000" style="stroke:#000000;stroke-width:1.5;"/><line style="stroke:#000000;stroke-width:1.5;" x1="166.97" x2="354.6829" y1="1055.2969" y2="1055.2969"/><text fill="#000000" font-family="sans-serif" font-size="14" font-weight="bold" lengthAdjust="spacing" textLength="174.7129" x="170.97" y="1047.9951">Gesti&#243;n de Profesores</text></g><!--cluster Gesti?n de Aulas--><g id="cluster_Gesti&#243;n de Aulas"><path d="M180.59,718 L314.631,718 A3.75,3.75 0 0 1 317.131,720.5 L324.131,740.2969 L356.84,740.2969 A2.5,2.5 0 0 1 359.34,742.7969 L359.34,1006.5 A2.5,2.5 0 0 1 356.84,1009 L180.59,1009 A2.5,2.5 0 0 1 178.09,1006.5 L178.09,720.5 A2.5,2.5 0 0 1 180.59,718 " fill="#FFFFFF" fill-opacity="0.00000" style="stroke:#000000;stroke-width:1.5;"/><line style="stroke:#000000;stroke-width:1.5;" x1="178.09" x2="324.131" y1="740.2969" y2="740.2969"/><text fill="#000000" font-family="sans-serif" font-size="14" font-weight="bold" lengthAdjust="spacing" textLength="133.041" x="182.09" y="732.9951">Gesti&#243;n de Aulas</text></g><!--cluster Gesti?n de Grados--><g id="cluster_Gesti&#243;n de Grados"><path d="M175.94,396 L322.4156,396 A3.75,3.75 0 0 1 324.9156,398.5 L331.9156,418.2969 L361.49,418.2969 A2.5,2.5 0 0 1 363.99,420.7969 L363.99,691.5 A2.5,2.5 0 0 1 361.49,694 L175.94,694 A2.5,2.5 0 0 1 173.44,691.5 L173.44,398.5 A2.5,2.5 0 0 1 175.94,396 " fill="#FFFFFF" fill-opacity="0.00000" style="stroke:#000000;stroke-width:1.5;"/><line style="stroke:#000000;stroke-width:1.5;" x1="173.44" x2="331.9156" y1="418.2969" y2="418.2969"/><text fill="#000000" font-family="sans-serif" font-size="14" font-weight="bold" lengthAdjust="spacing" textLength="145.4756" x="177.44" y="410.9951">Gesti&#243;n de Grados</text></g><!--cluster Gesti?n de Asignaturas--><g id="cluster_Gesti&#243;n de Asignaturas"><path d="M161.58,50 L346.9863,50 A3.75,3.75 0 0 1 349.4863,52.5 L356.4863,72.2969 L375.85,72.2969 A2.5,2.5 0 0 1 378.35,74.7969 L378.35,369.5 A2.5,2.5 0 0 1 375.85,372 L161.58,372 A2.5,2.5 0 0 1 159.08,369.5 L159.08,52.5 A2.5,2.5 0 0 1 161.58,50 " fill="#FFFFFF" fill-opacity="0.00000" style="stroke:#000000;stroke-width:1.5;"/><line style="stroke:#000000;stroke-width:1.5;" x1="159.08" x2="356.4863" y1="72.2969" y2="72.2969"/><text fill="#000000" font-family="sans-serif" font-size="14" font-weight="bold" lengthAdjust="spacing" textLength="184.4063" x="163.08" y="64.9951">Gesti&#243;n de Asignaturas</text></g><g id="elem_UC1"><ellipse cx="268.7197" cy="1306.9999" fill="#F1F1F1" rx="85.7497" ry="19.5499" style="stroke:#181818;stroke-width:0.5;"/><text fill="#000000" font-family="sans-serif" font-size="14" lengthAdjust="spacing" textLength="132.0498" x="202.6948" y="1309.8466">Actualizar Profesor</text></g><g id="elem_UC2"><ellipse cx="268.7177" cy="1232.9955" fill="#F1F1F1" rx="84.6277" ry="19.3255" style="stroke:#181818;stroke-width:0.5;"/><text fill="#000000" font-family="sans-serif" font-size="14" lengthAdjust="spacing" textLength="129.4658" x="203.9284" y="1235.8618">Consultar Profesor</text></g><g id="elem_UC3"><ellipse cx="268.7192" cy="1159.9998" fill="#F1F1F1" rx="80.4992" ry="18.4998" style="stroke:#181818;stroke-width:0.5;"/><text fill="#000000" font-family="sans-serif" font-size="14" lengthAdjust="spacing" textLength="119.7314" x="207.3741" y="1163.3249">Eliminar Profesor</text></g><g id="elem_UC4"><ellipse cx="268.7226" cy="1086.9985" fill="#F1F1F1" rx="83.2926" ry="19.0585" style="stroke:#181818;stroke-width:0.5;"/><text fill="#000000" font-family="sans-serif" font-size="14" lengthAdjust="spacing" textLength="126.3623" x="205.047" y="1090.0131">Registrar Profesor</text></g><g id="elem_UC5"><ellipse cx="268.7151" cy="975.995" fill="#F1F1F1" rx="74.6251" ry="17.325" style="stroke:#181818;stroke-width:0.5;"/><text fill="#000000" font-family="sans-serif" font-size="14" lengthAdjust="spacing" textLength="105.0479" x="213.1912" y="979.7426">Actualizar Aula</text></g><g id="elem_UC6"><ellipse cx="268.7183" cy="906.9957" fill="#F1F1F1" rx="73.6283" ry="17.1257" style="stroke:#181818;stroke-width:0.5;"/><text fill="#000000" font-family="sans-serif" font-size="14" lengthAdjust="spacing" textLength="102.4639" x="214.4864" y="910.7432">Consultar Aula</text></g><g id="elem_UC7"><ellipse cx="268.7237" cy="838.0027" fill="#F1F1F1" rx="69.9637" ry="16.3927" style="stroke:#181818;stroke-width:0.5;"/><text fill="#000000" font-family="sans-serif" font-size="14" lengthAdjust="spacing" textLength="92.7295" x="219.3589" y="841.7503">Eliminar Aula</text></g><g id="elem_UC8"><ellipse cx="268.7239" cy="769.9988" fill="#F1F1F1" rx="72.4439" ry="16.8888" style="stroke:#181818;stroke-width:0.5;"/><text fill="#000000" font-family="sans-serif" font-size="14" lengthAdjust="spacing" textLength="99.3604" x="216.0437" y="773.7463">Registrar Aula</text></g><g id="elem_UC9"><ellipse cx="268.7172" cy="659.9954" fill="#F1F1F1" rx="79.2772" ry="18.2554" style="stroke:#181818;stroke-width:0.5;"/><text fill="#000000" font-family="sans-serif" font-size="14" lengthAdjust="spacing" textLength="116.7646" x="208.3917" y="663.4563">Actualizar Grado</text></g><g id="elem_UC10"><ellipse cx="268.7179" cy="588.9956" fill="#F1F1F1" rx="78.2279" ry="18.0456" style="stroke:#181818;stroke-width:0.5;"/><text fill="#000000" font-family="sans-serif" font-size="14" lengthAdjust="spacing" textLength="114.1807" x="209.2679" y="592.573">Consultar Grado</text></g><g id="elem_UC11"><ellipse cx="268.7222" cy="518.9984" fill="#F1F1F1" rx="74.3922" ry="17.2784" style="stroke:#181818;stroke-width:0.5;"/><text fill="#000000" font-family="sans-serif" font-size="14" lengthAdjust="spacing" textLength="104.4463" x="213.4991" y="522.746">Eliminar Grado</text></g><g id="elem_UC12"><ellipse cx="268.7169" cy="448.9974" fill="#F1F1F1" rx="76.9869" ry="17.7974" style="stroke:#181818;stroke-width:0.5;"/><text fill="#000000" font-family="sans-serif" font-size="14" lengthAdjust="spacing" textLength="111.0771" x="210.3026" y="452.7128">Registrar Grado</text></g><g id="elem_UC13"><ellipse cx="268.7162" cy="334.9972" fill="#F1F1F1" rx="93.6362" ry="21.1272" style="stroke:#181818;stroke-width:0.5;"/><text fill="#000000" font-family="sans-serif" font-size="14" lengthAdjust="spacing" textLength="149.9258" x="193.7533" y="337.8439">Actualizar Asignatura</text></g><g id="elem_UC14"><ellipse cx="268.724" cy="257.9968" fill="#F1F1F1" rx="92.484" ry="20.8968" style="stroke:#181818;stroke-width:0.5;"/><text fill="#000000" font-family="sans-serif" font-size="14" lengthAdjust="spacing" textLength="147.3418" x="195.0531" y="260.8435">Consultar Asignatura</text></g><g id="elem_UC15"><ellipse cx="268.7193" cy="181.9959" fill="#F1F1F1" rx="88.1793" ry="20.0359" style="stroke:#181818;stroke-width:0.5;"/><text fill="#000000" font-family="sans-serif" font-size="14" lengthAdjust="spacing" textLength="137.6074" x="199.9156" y="184.8425">Eliminar Asignatura</text></g><g id="elem_UC16"><ellipse cx="268.7152" cy="106.001" fill="#F1F1F1" rx="91.1052" ry="20.621" style="stroke:#181818;stroke-width:0.5;"/><text fill="#000000" font-family="sans-serif" font-size="14" lengthAdjust="spacing" textLength="144.2383" x="196.5961" y="108.8477">Registrar Asignatura</text></g><!--entity Administrador--><g id="elem_Administrador"><ellipse cx="55.54" cy="685.35" fill="#F1F1F1" rx="8" ry="8" style="stroke:#181818;stroke-width:0.5;"/><path d="M55.54,693.35 L55.54,720.35 M42.54,701.35 L68.54,701.35 M55.54,720.35 L42.54,735.35 M55.54,720.35 L68.54,735.35 " fill="#FFFFFF" fill-opacity="0.00000" style="stroke:#181818;stroke-width:0.5;"/><text fill="#000000" font-family="sans-serif" font-size="14" lengthAdjust="spacing" textLength="99.0801" x="6" y="749.8451">Administrador</text></g><!--link Administrador to UC1--><g id="link_Administrador_UC1"><path d="M58.21,753.43 C63.75,872.74 83.07,1231.17 117.08,1270 C133.85,1289.14 152.8815,1297.9987 177.6415,1303.0587 " fill="#FFFFFF" fill-opacity="0.00000" id="Administrador-to-UC1" style="stroke:#181818;stroke-width:1;"/><polygon fill="#181818" points="183.52,1304.26,175.5031,1298.539,178.6212,1303.2589,173.9014,1306.377,183.52,1304.26" style="stroke:#181818;stroke-width:1;"/></g><!--link Administrador to UC2--><g id="link_Administrador_UC2"><path d="M55.98,753.6 C55.31,855.94 59.08,1130.87 117.08,1196 C134.18,1215.21 153.6073,1224.0492 178.6173,1229.0692 " fill="#FFFFFF" fill-opacity="0.00000" id="Administrador-to-UC2" style="stroke:#181818;stroke-width:1;"/><polygon fill="#181818" points="184.5,1230.25,176.4632,1224.5571,179.5978,1229.266,174.8888,1232.4006,184.5,1230.25" style="stroke:#181818;stroke-width:1;"/></g><!--link Administrador to UC3--><g id="link_Administrador_UC3"><path d="M56.92,753.42 C58.64,844.58 67.87,1070.27 117.08,1124 C135.24,1143.83 156.2918,1152.6146 182.4018,1157.2346 " fill="#FFFFFF" fill-opacity="0.00000" id="Administrador-to-UC3" style="stroke:#181818;stroke-width:1;"/><polygon fill="#181818" points="188.31,1158.28,180.1446,1152.7731,183.3865,1157.4088,178.7507,1160.6507,188.31,1158.28" style="stroke:#181818;stroke-width:1;"/></g><!--link Administrador to UC4--><g id="link_Administrador_UC4"><path d="M60.34,753.46 C67.93,823.68 86.88,969.11 117.08,1009 C140.99,1040.58 175.7117,1058.486 208.6417,1070.286 " fill="#FFFFFF" fill-opacity="0.00000" id="Administrador-to-UC4" style="stroke:#181818;stroke-width:1;"/><polygon fill="#181818" points="214.29,1072.31,207.1669,1065.5085,209.5831,1070.6233,204.4682,1073.0396,214.29,1072.31" style="stroke:#181818;stroke-width:1;"/></g><!--link Administrador to UC5--><g id="link_Administrador_UC5"><path d="M61.94,753.54 C70.81,811.25 90.19,916.13 117.08,942 C137.46,961.61 160.6958,969.9437 187.9458,974.0137 " fill="#FFFFFF" fill-opacity="0.00000" id="Administrador-to-UC5" style="stroke:#181818;stroke-width:1;"/><polygon fill="#181818" points="193.88,974.9,185.5696,969.6144,188.9349,974.1614,184.3879,977.5266,193.88,974.9" style="stroke:#181818;stroke-width:1;"/></g><!--link Administrador to UC6--><g id="link_Administrador_UC6"><path d="M61.11,753.44 C67.44,789.35 82.35,841.82 117.08,872 C138.66,890.76 162.4346,899.0265 189.7546,903.3765 " fill="#FFFFFF" fill-opacity="0.00000" id="Administrador-to-UC6" style="stroke:#181818;stroke-width:1;"/><polygon fill="#181818" points="195.68,904.32,187.4209,898.9546,190.7422,903.5338,186.163,906.8551,195.68,904.32" style="stroke:#181818;stroke-width:1;"/></g><!--link Administrador to UC7--><g id="link_Administrador_UC7"><path d="M74.2,753.43 C84.32,771.37 98.7,791.49 117.08,804 C141.57,820.67 167.0538,828.352 194.8538,832.752 " fill="#FFFFFF" fill-opacity="0.00000" id="Administrador-to-UC7" style="stroke:#181818;stroke-width:1;"/><polygon fill="#181818" points="200.78,833.69,192.516,828.3322,195.8415,832.9084,191.2653,836.2339,200.78,833.69" style="stroke:#181818;stroke-width:1;"/></g><!--link Administrador to UC8--><g id="link_Administrador_UC8"><path d="M105.52,727.76 C139.63,736.64 179.1438,746.9275 213.1938,755.7975 " fill="#FFFFFF" fill-opacity="0.00000" id="Administrador-to-UC8" style="stroke:#181818;stroke-width:1;"/><polygon fill="#181818" points="219,757.31,211.299,751.1704,214.1615,756.0496,209.2823,758.912,219,757.31" style="stroke:#181818;stroke-width:1;"/></g><!--link Administrador to UC9--><g id="link_Administrador_UC9"><path d="M105.52,702.24 C138.29,693.71 175.5935,683.9914 209.1335,675.2614 " fill="#FFFFFF" fill-opacity="0.00000" id="Administrador-to-UC9" style="stroke:#181818;stroke-width:1;"/><polygon fill="#181818" points="214.94,673.75,205.2226,672.146,210.1012,675.0095,207.2378,679.8881,214.94,673.75" style="stroke:#181818;stroke-width:1;"/></g><!--link Administrador to UC10--><g id="link_Administrador_UC10"><path d="M73.55,676.68 C83.65,658.12 98.21,637.08 117.08,624 C139.59,608.4 162.1712,600.7771 188.3012,595.9171 " fill="#FFFFFF" fill-opacity="0.00000" id="Administrador-to-UC10" style="stroke:#181818;stroke-width:1;"/><polygon fill="#181818" points="194.2,594.82,184.6203,592.5332,189.2843,595.7343,186.0832,600.3983,194.2,594.82" style="stroke:#181818;stroke-width:1;"/></g><!--link Administrador to UC11--><g id="link_Administrador_UC11"><path d="M60.54,676.37 C66.47,639.28 81.11,584.39 117.08,553 C138.29,534.49 161.5123,526.3683 188.5223,522.1383 " fill="#FFFFFF" fill-opacity="0.00000" id="Administrador-to-UC11" style="stroke:#181818;stroke-width:1;"/><polygon fill="#181818" points="194.45,521.21,184.9395,518.6507,189.5102,521.9836,186.1773,526.5543,194.45,521.21" style="stroke:#181818;stroke-width:1;"/></g><!--link Administrador to UC12--><g id="link_Administrador_UC12"><path d="M61.72,676.77 C70.42,618.29 89.73,510.59 117.08,484 C136.91,464.72 159.2395,456.2634 185.9395,451.8734 " fill="#FFFFFF" fill-opacity="0.00000" id="Administrador-to-UC12" style="stroke:#181818;stroke-width:1;"/><polygon fill="#181818" points="191.86,450.9,182.3303,448.4132,186.9262,451.7112,183.6282,456.3072,191.86,450.9" style="stroke:#181818;stroke-width:1;"/></g><!--link Administrador to UC13--><g id="link_Administrador_UC13"><path d="M60.19,676.63 C67.63,605.35 86.46,456.05 117.08,415 C139.92,384.38 172.3914,366.4676 204.5414,354.0776 " fill="#FFFFFF" fill-opacity="0.00000" id="Administrador-to-UC13" style="stroke:#181818;stroke-width:1;"/><polygon fill="#181818" points="210.14,351.92,200.3036,351.424,205.4745,353.718,203.1805,358.8888,210.14,351.92" style="stroke:#181818;stroke-width:1;"/></g><!--link Administrador to UC14--><g id="link_Administrador_UC14"><path d="M56.82,676.37 C58.29,583.55 67.01,351.55 117.08,296 C132.88,278.47 149.6488,269.8932 172.5488,264.3432 " fill="#FFFFFF" fill-opacity="0.00000" id="Administrador-to-UC14" style="stroke:#181818;stroke-width:1;"/><polygon fill="#181818" points="178.38,262.93,168.6911,261.1624,173.5207,264.1077,170.5754,268.9373,178.38,262.93" style="stroke:#181818;stroke-width:1;"/></g><!--link Administrador to UC15--><g id="link_Administrador_UC15"><path d="M55.85,676.44 C54.78,572.1 57.53,287.53 117.08,220 C133.49,201.39 151.703,192.5521 175.813,187.1921 " fill="#FFFFFF" fill-opacity="0.00000" id="Administrador-to-UC15" style="stroke:#181818;stroke-width:1;"/><polygon fill="#181818" points="181.67,185.89,172.0164,183.9385,176.7892,186.9751,173.7526,191.7478,181.67,185.89" style="stroke:#181818;stroke-width:1;"/></g><!--link Administrador to UC16--><g id="link_Administrador_UC16"><path d="M58.09,676.76 C63.35,555.36 82.17,184.24 117.08,144 C132.81,125.87 149.9692,117.1231 173.2792,111.6431 " fill="#FFFFFF" fill-opacity="0.00000" id="Administrador-to-UC16" style="stroke:#181818;stroke-width:1;"/><polygon fill="#181818" points="179.12,110.27,169.4434,108.4358,174.2527,111.4143,171.2743,116.2235,179.12,110.27" style="stroke:#181818;stroke-width:1;"/></g><!--SRC=[ZPFDIiGm54RtUOfBzmEJwS_CR8GooBWKmGUuj9aQ9YQIf2uKdyf7yCLiIosjkQPcboydDnm-eiJ5WpTWPVFaePPML5uQpHXMtbWewsUffVCMQsCPwqzHDqf0SXREowzF3RM0EsFHIkFWKSjNOPtqmpQ1TmRTUi7gYislE_VMN8GpLanOlredAdGTMbQ-HINVq4va0jYzSE8XV3BQjSg7x2vaRvNib48q3T47qGpg0PiDx0Vxswvi5QwAzT0uCOz9pRWY8ZJ3zZ6P6NTO5JdtpQ-Q3DGuynXJcODy6v5PW3ocio1twyqusMZqhVr7FnFwCpwDrXJWMQojWCwZfGLuCQfsiemj_YbiDZV3Hw7I7PccP9gHQKwc1PdkoVH0faVQOal7j1sdzJZjnsb1JXlouXi0]--></g></svg>