<svg xmlns="http://www.w3.org/2000/svg" xmlns:xlink="http://www.w3.org/1999/xlink" contentStyleType="text/css" height="560px" preserveAspectRatio="none" style="width:1168px;height:560px;background:#FFFFFF;" version="1.1" viewBox="0 0 1168 560" width="1168px" zoomAndPan="magnify"><title>Consultar Asignatura</title><defs/><g><text fill="#000000" font-family="sans-serif" font-size="14" font-weight="bold" lengthAdjust="spacing" textLength="167.2891" x="498.9004" y="32.9951">Consultar Asignatura</text><ellipse cx="647.3359" cy="57.2969" fill="#222222" rx="10" ry="10" style="stroke:#222222;stroke-width:1;"/><rect fill="#F1F1F1" height="33.9688" rx="12.5" ry="12.5" style="stroke:#181818;stroke-width:0.5;" width="352.373" x="471.1494" y="87.2969"/><text fill="#000000" font-family="sans-serif" font-size="12" lengthAdjust="spacing" textLength="332.373" x="481.1494" y="108.4355">El usuario solicita visualizar las asignaturas disponibles</text><rect fill="#F1F1F1" height="33.9688" rx="12.5" ry="12.5" style="stroke:#181818;stroke-width:0.5;" width="340.9531" x="476.8594" y="141.2656"/><text fill="#000000" font-family="sans-serif" font-size="12" lengthAdjust="spacing" textLength="320.9531" x="486.8594" y="162.4043">El sistema presenta la lista de asignaturas existentes</text><polygon fill="#F1F1F1" points="568.6897,195.2344,725.9822,195.2344,737.9822,207.2344,725.9822,219.2344,568.6897,219.2344,556.6897,207.2344,568.6897,195.2344" style="stroke:#181818;stroke-width:0.5;"/><text fill="#000000" font-family="sans-serif" font-size="11" lengthAdjust="spacing" textLength="157.2925" x="568.6897" y="211.0425">&#191;Selecciona una asignatura?</text><text fill="#000000" font-family="sans-serif" font-size="11" lengthAdjust="spacing" textLength="10.0386" x="546.6511" y="204.6401">S&#237;</text><text fill="#000000" font-family="sans-serif" font-size="11" lengthAdjust="spacing" textLength="14.9585" x="737.9822" y="204.6401">No</text><polygon fill="#F1F1F1" points="309.3848,229.2344,410.3613,229.2344,422.3613,241.2344,410.3613,253.2344,309.3848,253.2344,297.3848,241.2344,309.3848,229.2344" style="stroke:#181818;stroke-width:0.5;"/><text fill="#000000" font-family="sans-serif" font-size="11" lengthAdjust="spacing" textLength="100.9766" x="309.3848" y="245.0425">&#191;Filtros aplicados?</text><text fill="#000000" font-family="sans-serif" font-size="11" lengthAdjust="spacing" textLength="10.0386" x="287.3462" y="238.6401">S&#237;</text><text fill="#000000" font-family="sans-serif" font-size="11" lengthAdjust="spacing" textLength="14.9585" x="422.3613" y="238.6401">No</text><rect fill="#F1F1F1" height="75.875" rx="12.5" ry="12.5" style="stroke:#181818;stroke-width:0.5;" width="351.9922" x="11" y="263.2344"/><text fill="#000000" font-family="sans-serif" font-size="12" lengthAdjust="spacing" textLength="331.9922" x="21" y="284.373">El sistema presenta las opciones reducidas mostrando:</text><text fill="#000000" font-family="sans-serif" font-size="12" lengthAdjust="spacing" textLength="241.6523" x="28.6289" y="298.3418">- Asignaturas de un grado seleccionado,</text><text fill="#000000" font-family="sans-serif" font-size="12" lengthAdjust="spacing" textLength="231.7676" x="28.6289" y="312.3105">- Asignaturas asignadas a un profesor,</text><text fill="#000000" font-family="sans-serif" font-size="12" lengthAdjust="spacing" textLength="323.8652" x="28.6289" y="326.2793">- O asignaturas que coincidan con el nombre buscado</text><rect fill="#F1F1F1" height="33.9688" rx="12.5" ry="12.5" style="stroke:#181818;stroke-width:0.5;" width="299.5156" x="382.9922" y="263.2344"/><text fill="#000000" font-family="sans-serif" font-size="12" lengthAdjust="spacing" textLength="279.5156" x="392.9922" y="284.373">El sistema presenta la lista completa sin filtrar</text><polygon fill="#F1F1F1" points="359.873,345.1094,371.873,357.1094,359.873,369.1094,347.873,357.1094,359.873,345.1094" style="stroke:#181818;stroke-width:0.5;"/><rect fill="#F1F1F1" height="33.9688" rx="12.5" ry="12.5" style="stroke:#181818;stroke-width:0.5;" width="304.3496" x="207.6982" y="389.1094"/><text fill="#000000" font-family="sans-serif" font-size="12" lengthAdjust="spacing" textLength="284.3496" x="217.6982" y="410.248">El usuario selecciona una asignatura espec&#237;fica</text><rect fill="#F1F1F1" height="33.9688" rx="12.5" ry="12.5" style="stroke:#181818;stroke-width:0.5;" width="390.5645" x="164.5908" y="443.0781"/><text fill="#000000" font-family="sans-serif" font-size="12" lengthAdjust="spacing" textLength="370.5645" x="174.5908" y="464.2168">El sistema muestra los detalles de la asignatura seleccionada</text><rect fill="#F1F1F1" height="33.9688" rx="12.5" ry="12.5" style="stroke:#181818;stroke-width:0.5;" width="444.582" x="712.5078" y="229.2344"/><text fill="#000000" font-family="sans-serif" font-size="12" lengthAdjust="spacing" textLength="424.582" x="722.5078" y="250.373">El sistema presenta un mensaje: "Operaci&#243;n cancelada por el usuario"</text><polygon fill="#F1F1F1" points="647.3359,483.0469,659.3359,495.0469,647.3359,507.0469,635.3359,495.0469,647.3359,483.0469" style="stroke:#181818;stroke-width:0.5;"/><ellipse cx="647.3359" cy="538.0469" fill="none" rx="11" ry="11" style="stroke:#222222;stroke-width:1;"/><ellipse cx="647.3359" cy="538.0469" fill="#222222" rx="6" ry="6" style="stroke:#222222;stroke-width:1;"/><line style="stroke:#181818;stroke-width:1;" x1="647.3359" x2="647.3359" y1="67.2969" y2="87.2969"/><polygon fill="#181818" points="643.3359,77.2969,647.3359,87.2969,651.3359,77.2969,647.3359,81.2969" style="stroke:#181818;stroke-width:1;"/><line style="stroke:#181818;stroke-width:1;" x1="647.3359" x2="647.3359" y1="121.2656" y2="141.2656"/><polygon fill="#181818" points="643.3359,131.2656,647.3359,141.2656,651.3359,131.2656,647.3359,135.2656" style="stroke:#181818;stroke-width:1;"/><line style="stroke:#181818;stroke-width:1;" x1="297.3848" x2="186.9961" y1="241.2344" y2="241.2344"/><line style="stroke:#181818;stroke-width:1;" x1="186.9961" x2="186.9961" y1="241.2344" y2="263.2344"/><polygon fill="#181818" points="182.9961,253.2344,186.9961,263.2344,190.9961,253.2344,186.9961,257.2344" style="stroke:#181818;stroke-width:1;"/><line style="stroke:#181818;stroke-width:1;" x1="422.3613" x2="532.75" y1="241.2344" y2="241.2344"/><line style="stroke:#181818;stroke-width:1;" x1="532.75" x2="532.75" y1="241.2344" y2="263.2344"/><polygon fill="#181818" points="528.75,253.2344,532.75,263.2344,536.75,253.2344,532.75,257.2344" style="stroke:#181818;stroke-width:1;"/><line style="stroke:#181818;stroke-width:1;" x1="186.9961" x2="186.9961" y1="339.1094" y2="357.1094"/><line style="stroke:#181818;stroke-width:1;" x1="186.9961" x2="347.873" y1="357.1094" y2="357.1094"/><polygon fill="#181818" points="337.873,353.1094,347.873,357.1094,337.873,361.1094,341.873,357.1094" style="stroke:#181818;stroke-width:1;"/><line style="stroke:#181818;stroke-width:1;" x1="532.75" x2="532.75" y1="297.2031" y2="357.1094"/><line style="stroke:#181818;stroke-width:1;" x1="532.75" x2="371.873" y1="357.1094" y2="357.1094"/><polygon fill="#181818" points="381.873,353.1094,371.873,357.1094,381.873,361.1094,377.873,357.1094" style="stroke:#181818;stroke-width:1;"/><line style="stroke:#181818;stroke-width:1;" x1="359.873" x2="359.873" y1="369.1094" y2="389.1094"/><polygon fill="#181818" points="355.873,379.1094,359.873,389.1094,363.873,379.1094,359.873,383.1094" style="stroke:#181818;stroke-width:1;"/><line style="stroke:#181818;stroke-width:1;" x1="359.873" x2="359.873" y1="423.0781" y2="443.0781"/><polygon fill="#181818" points="355.873,433.0781,359.873,443.0781,363.873,433.0781,359.873,437.0781" style="stroke:#181818;stroke-width:1;"/><line style="stroke:#181818;stroke-width:1;" x1="556.6897" x2="359.873" y1="207.2344" y2="207.2344"/><line style="stroke:#181818;stroke-width:1;" x1="359.873" x2="359.873" y1="207.2344" y2="229.2344"/><polygon fill="#181818" points="355.873,219.2344,359.873,229.2344,363.873,219.2344,359.873,223.2344" style="stroke:#181818;stroke-width:1;"/><line style="stroke:#181818;stroke-width:1;" x1="737.9822" x2="934.7988" y1="207.2344" y2="207.2344"/><line style="stroke:#181818;stroke-width:1;" x1="934.7988" x2="934.7988" y1="207.2344" y2="229.2344"/><polygon fill="#181818" points="930.7988,219.2344,934.7988,229.2344,938.7988,219.2344,934.7988,223.2344" style="stroke:#181818;stroke-width:1;"/><line style="stroke:#181818;stroke-width:1;" x1="359.873" x2="359.873" y1="477.0469" y2="495.0469"/><line style="stroke:#181818;stroke-width:1;" x1="359.873" x2="635.3359" y1="495.0469" y2="495.0469"/><polygon fill="#181818" points="625.3359,491.0469,635.3359,495.0469,625.3359,499.0469,629.3359,495.0469" style="stroke:#181818;stroke-width:1;"/><line style="stroke:#181818;stroke-width:1;" x1="934.7988" x2="934.7988" y1="263.2031" y2="495.0469"/><line style="stroke:#181818;stroke-width:1;" x1="934.7988" x2="659.3359" y1="495.0469" y2="495.0469"/><polygon fill="#181818" points="669.3359,491.0469,659.3359,495.0469,669.3359,499.0469,665.3359,495.0469" style="stroke:#181818;stroke-width:1;"/><line style="stroke:#181818;stroke-width:1;" x1="647.3359" x2="647.3359" y1="175.2344" y2="195.2344"/><polygon fill="#181818" points="643.3359,185.2344,647.3359,195.2344,651.3359,185.2344,647.3359,189.2344" style="stroke:#181818;stroke-width:1;"/><line style="stroke:#181818;stroke-width:1;" x1="647.3359" x2="647.3359" y1="507.0469" y2="527.0469"/><polygon fill="#181818" points="643.3359,517.0469,647.3359,527.0469,651.3359,517.0469,647.3359,521.0469" style="stroke:#181818;stroke-width:1;"/><!--SRC=[VP51IaGn38RtSuhWQWIzmBWG4Lqw2q-GwSlJI5vIcrR4Exdo089pCLCTTHweq489_z_y-LAv2i6vgJUfME3C-KQnjeABXKUXBbON0iqR5ZPm4qvS4HuuAi9FuH1qm6-Nmy2UJNaZv2SVPcUlD27aGauQPeaJDOI1Pavwx4gjtSWZBDzUhqae9JP5Q75_nAU7K6z9ONczVJxSYIzPQh48aoCa3kPp4S0VOHmiznxaK6XeYOSeJUQre0ws2YF0yHuOxxcRmas99k3V4GSx-aNxcRb_sMU8lZQIM_cIhcS4xXj1CjQUGUEbG09gqwOGR9htgKuM94wmlB9_HjhnJJPbeNWuAumT3vRmwy3ZVAr_OGRoJ6dxF0RG-JAdHXqGY7KS5INMtRd8pBu71_U3_nexw4oaZdUqWeDrfeA9jo-10JMHn0-GhNGWkzW7NwDujVmE]--></g></svg>