<svg xmlns="http://www.w3.org/2000/svg" xmlns:xlink="http://www.w3.org/1999/xlink" contentStyleType="text/css" height="680px" preserveAspectRatio="none" style="width:1532px;height:680px;background:#FFFFFF;" version="1.1" viewBox="0 0 1532 680" width="1532px" zoomAndPan="magnify"><title>Registrar Asignatura</title><defs/><g><text fill="#000000" font-family="sans-serif" font-size="14" font-weight="bold" lengthAdjust="spacing" textLength="164.6641" x="682.5156" y="32.9951">Registrar Asignatura</text><ellipse cx="604.1987" cy="57.2969" fill="#222222" rx="10" ry="10" style="stroke:#222222;stroke-width:1;"/><rect fill="#F1F1F1" height="33.9688" rx="12.5" ry="12.5" style="stroke:#181818;stroke-width:0.5;" width="391.3438" x="408.5269" y="87.2969"/><text fill="#000000" font-family="sans-serif" font-size="12" lengthAdjust="spacing" textLength="371.3438" x="418.5269" y="108.4355">El usuario solicita introducir registro de una nueva asignatura</text><rect fill="#F1F1F1" height="33.9688" rx="12.5" ry="12.5" style="stroke:#181818;stroke-width:0.5;" width="364.9766" x="421.7104" y="141.2656"/><text fill="#000000" font-family="sans-serif" font-size="12" lengthAdjust="spacing" textLength="344.9766" x="431.7104" y="162.4043">El sistema permite introduccion de una nueva asignatura</text><polygon fill="#F1F1F1" points="542.4741,195.2344,665.9233,195.2344,677.9233,207.2344,665.9233,219.2344,542.4741,219.2344,530.4741,207.2344,542.4741,195.2344" style="stroke:#181818;stroke-width:0.5;"/><text fill="#000000" font-family="sans-serif" font-size="11" lengthAdjust="spacing" textLength="123.4492" x="542.4741" y="211.0425">&#191;Registrar o Importar?</text><text fill="#000000" font-family="sans-serif" font-size="11" lengthAdjust="spacing" textLength="50.2788" x="480.1953" y="204.6401">Registrar</text><text fill="#000000" font-family="sans-serif" font-size="11" lengthAdjust="spacing" textLength="47.7705" x="677.9233" y="204.6401">Importar</text><rect fill="#F1F1F1" height="33.9688" rx="12.5" ry="12.5" style="stroke:#181818;stroke-width:0.5;" width="434.9492" x="11" y="229.2344"/><text fill="#000000" font-family="sans-serif" font-size="12" lengthAdjust="spacing" textLength="414.9492" x="21" y="250.373">El sistema permite introducir datos de la asignatura (grado, nombre)</text><rect fill="#F1F1F1" height="33.9688" rx="12.5" ry="12.5" style="stroke:#181818;stroke-width:0.5;" width="270.3828" x="93.2832" y="283.2031"/><text fill="#000000" font-family="sans-serif" font-size="12" lengthAdjust="spacing" textLength="250.3828" x="103.2832" y="304.3418">El usuario introduce los datos del registro</text><rect fill="#F1F1F1" height="33.9688" rx="12.5" ry="12.5" style="stroke:#181818;stroke-width:0.5;" width="225.002" x="115.9736" y="337.1719"/><text fill="#000000" font-family="sans-serif" font-size="12" lengthAdjust="spacing" textLength="205.002" x="125.9736" y="358.3105">El sistema incorpora la asignatura</text><rect fill="#F1F1F1" height="33.9688" rx="12.5" ry="12.5" style="stroke:#181818;stroke-width:0.5;" width="554.8965" x="702.4746" y="229.2344"/><text fill="#000000" font-family="sans-serif" font-size="12" lengthAdjust="spacing" textLength="534.8965" x="712.4746" y="250.373">El sistema permite introducir un archivo para importar asignaturas (archivo Excel o CSV)</text><rect fill="#F1F1F1" height="33.9688" rx="12.5" ry="12.5" style="stroke:#181818;stroke-width:0.5;" width="368.2871" x="795.7793" y="283.2031"/><text fill="#000000" font-family="sans-serif" font-size="12" lengthAdjust="spacing" textLength="348.2871" x="805.7793" y="304.3418">El usuario introduce carga del archivo con las asignaturas</text><rect fill="#F1F1F1" height="33.9688" rx="12.5" ry="12.5" style="stroke:#181818;stroke-width:0.5;" width="326.5156" x="816.665" y="337.1719"/><text fill="#000000" font-family="sans-serif" font-size="12" lengthAdjust="spacing" textLength="306.5156" x="826.665" y="358.3105">El sistema valida el formato y los datos del archivo</text><polygon fill="#F1F1F1" points="901.5908,391.1406,1058.2549,391.1406,1070.2549,403.1406,1058.2549,415.1406,901.5908,415.1406,889.5908,403.1406,901.5908,391.1406" style="stroke:#181818;stroke-width:0.5;"/><text fill="#000000" font-family="sans-serif" font-size="11" lengthAdjust="spacing" textLength="156.6641" x="901.5908" y="406.9487">&#191;Formato y datos correctos?</text><text fill="#000000" font-family="sans-serif" font-size="11" lengthAdjust="spacing" textLength="10.0386" x="879.5522" y="400.5464">S&#237;</text><text fill="#000000" font-family="sans-serif" font-size="11" lengthAdjust="spacing" textLength="14.9585" x="1070.2549" y="400.5464">No</text><rect fill="#F1F1F1" height="33.9688" rx="12.5" ry="12.5" style="stroke:#181818;stroke-width:0.5;" width="297.6523" x="564.6602" y="425.1406"/><text fill="#000000" font-family="sans-serif" font-size="12" lengthAdjust="spacing" textLength="277.6523" x="574.6602" y="446.2793">El sistema importa las asignaturas del archivo</text><rect fill="#F1F1F1" height="33.9688" rx="12.5" ry="12.5" style="stroke:#181818;stroke-width:0.5;" width="302.791" x="562.0908" y="479.1094"/><text fill="#000000" font-family="sans-serif" font-size="12" lengthAdjust="spacing" textLength="282.791" x="572.0908" y="500.248">El sistema incorpora las asignaturas al sistema</text><rect fill="#F1F1F1" height="33.9688" rx="12.5" ry="12.5" style="stroke:#181818;stroke-width:0.5;" width="475.0742" x="475.9492" y="533.0781"/><text fill="#000000" font-family="sans-serif" font-size="12" lengthAdjust="spacing" textLength="455.0742" x="485.9492" y="554.2168">El sistema presenta confirmaci&#243;n: "Asignaturas importadas correctamente"</text><rect fill="#F1F1F1" height="33.9688" rx="12.5" ry="12.5" style="stroke:#181818;stroke-width:0.5;" width="550.6719" x="971.0234" y="425.1406"/><text fill="#000000" font-family="sans-serif" font-size="12" lengthAdjust="spacing" textLength="530.6719" x="981.0234" y="446.2793">El sistema presenta mensaje de error: "El archivo no tiene el formato o datos correctos"</text><rect fill="#F1F1F1" height="33.9688" rx="12.5" ry="12.5" style="stroke:#181818;stroke-width:0.5;" width="447.4648" x="1022.627" y="479.1094"/><text fill="#000000" font-family="sans-serif" font-size="12" lengthAdjust="spacing" textLength="427.4648" x="1032.627" y="500.248">El sistema permite introducir correcci&#243;n del archivo y volver a cargarlo</text><polygon fill="#F1F1F1" points="979.9229,573.0469,991.9229,585.0469,979.9229,597.0469,967.9229,585.0469,979.9229,573.0469" style="stroke:#181818;stroke-width:0.5;"/><polygon fill="#F1F1F1" points="604.1987,603.0469,616.1987,615.0469,604.1987,627.0469,592.1987,615.0469,604.1987,603.0469" style="stroke:#181818;stroke-width:0.5;"/><ellipse cx="604.1987" cy="658.0469" fill="none" rx="11" ry="11" style="stroke:#222222;stroke-width:1;"/><ellipse cx="604.1987" cy="658.0469" fill="#222222" rx="6" ry="6" style="stroke:#222222;stroke-width:1;"/><line style="stroke:#181818;stroke-width:1;" x1="604.1987" x2="604.1987" y1="67.2969" y2="87.2969"/><polygon fill="#181818" points="600.1987,77.2969,604.1987,87.2969,608.1987,77.2969,604.1987,81.2969" style="stroke:#181818;stroke-width:1;"/><line style="stroke:#181818;stroke-width:1;" x1="604.1987" x2="604.1987" y1="121.2656" y2="141.2656"/><polygon fill="#181818" points="600.1987,131.2656,604.1987,141.2656,608.1987,131.2656,604.1987,135.2656" style="stroke:#181818;stroke-width:1;"/><line style="stroke:#181818;stroke-width:1;" x1="228.4746" x2="228.4746" y1="263.2031" y2="283.2031"/><polygon fill="#181818" points="224.4746,273.2031,228.4746,283.2031,232.4746,273.2031,228.4746,277.2031" style="stroke:#181818;stroke-width:1;"/><line style="stroke:#181818;stroke-width:1;" x1="228.4746" x2="228.4746" y1="317.1719" y2="337.1719"/><polygon fill="#181818" points="224.4746,327.1719,228.4746,337.1719,232.4746,327.1719,228.4746,331.1719" style="stroke:#181818;stroke-width:1;"/><line style="stroke:#181818;stroke-width:1;" x1="979.9229" x2="979.9229" y1="263.2031" y2="283.2031"/><polygon fill="#181818" points="975.9229,273.2031,979.9229,283.2031,983.9229,273.2031,979.9229,277.2031" style="stroke:#181818;stroke-width:1;"/><line style="stroke:#181818;stroke-width:1;" x1="979.9229" x2="979.9229" y1="317.1719" y2="337.1719"/><polygon fill="#181818" points="975.9229,327.1719,979.9229,337.1719,983.9229,327.1719,979.9229,331.1719" style="stroke:#181818;stroke-width:1;"/><line style="stroke:#181818;stroke-width:1;" x1="713.4863" x2="713.4863" y1="459.1094" y2="479.1094"/><polygon fill="#181818" points="709.4863,469.1094,713.4863,479.1094,717.4863,469.1094,713.4863,473.1094" style="stroke:#181818;stroke-width:1;"/><line style="stroke:#181818;stroke-width:1;" x1="713.4863" x2="713.4863" y1="513.0781" y2="533.0781"/><polygon fill="#181818" points="709.4863,523.0781,713.4863,533.0781,717.4863,523.0781,713.4863,527.0781" style="stroke:#181818;stroke-width:1;"/><line style="stroke:#181818;stroke-width:1;" x1="1246.3594" x2="1246.3594" y1="459.1094" y2="479.1094"/><polygon fill="#181818" points="1242.3594,469.1094,1246.3594,479.1094,1250.3594,469.1094,1246.3594,473.1094" style="stroke:#181818;stroke-width:1;"/><line style="stroke:#181818;stroke-width:1;" x1="889.5908" x2="713.4863" y1="403.1406" y2="403.1406"/><line style="stroke:#181818;stroke-width:1;" x1="713.4863" x2="713.4863" y1="403.1406" y2="425.1406"/><polygon fill="#181818" points="709.4863,415.1406,713.4863,425.1406,717.4863,415.1406,713.4863,419.1406" style="stroke:#181818;stroke-width:1;"/><line style="stroke:#181818;stroke-width:1;" x1="1070.2549" x2="1246.3594" y1="403.1406" y2="403.1406"/><line style="stroke:#181818;stroke-width:1;" x1="1246.3594" x2="1246.3594" y1="403.1406" y2="425.1406"/><polygon fill="#181818" points="1242.3594,415.1406,1246.3594,425.1406,1250.3594,415.1406,1246.3594,419.1406" style="stroke:#181818;stroke-width:1;"/><line style="stroke:#181818;stroke-width:1;" x1="713.4863" x2="713.4863" y1="567.0469" y2="585.0469"/><line style="stroke:#181818;stroke-width:1;" x1="713.4863" x2="967.9229" y1="585.0469" y2="585.0469"/><polygon fill="#181818" points="957.9229,581.0469,967.9229,585.0469,957.9229,589.0469,961.9229,585.0469" style="stroke:#181818;stroke-width:1;"/><line style="stroke:#181818;stroke-width:1;" x1="1246.3594" x2="1246.3594" y1="513.0781" y2="585.0469"/><line style="stroke:#181818;stroke-width:1;" x1="1246.3594" x2="991.9229" y1="585.0469" y2="585.0469"/><polygon fill="#181818" points="1001.9229,581.0469,991.9229,585.0469,1001.9229,589.0469,997.9229,585.0469" style="stroke:#181818;stroke-width:1;"/><line style="stroke:#181818;stroke-width:1;" x1="979.9229" x2="979.9229" y1="371.1406" y2="391.1406"/><polygon fill="#181818" points="975.9229,381.1406,979.9229,391.1406,983.9229,381.1406,979.9229,385.1406" style="stroke:#181818;stroke-width:1;"/><line style="stroke:#181818;stroke-width:1;" x1="530.4741" x2="228.4746" y1="207.2344" y2="207.2344"/><line style="stroke:#181818;stroke-width:1;" x1="228.4746" x2="228.4746" y1="207.2344" y2="229.2344"/><polygon fill="#181818" points="224.4746,219.2344,228.4746,229.2344,232.4746,219.2344,228.4746,223.2344" style="stroke:#181818;stroke-width:1;"/><line style="stroke:#181818;stroke-width:1;" x1="677.9233" x2="979.9229" y1="207.2344" y2="207.2344"/><line style="stroke:#181818;stroke-width:1;" x1="979.9229" x2="979.9229" y1="207.2344" y2="229.2344"/><polygon fill="#181818" points="975.9229,219.2344,979.9229,229.2344,983.9229,219.2344,979.9229,223.2344" style="stroke:#181818;stroke-width:1;"/><line style="stroke:#181818;stroke-width:1;" x1="228.4746" x2="228.4746" y1="371.1406" y2="615.0469"/><line style="stroke:#181818;stroke-width:1;" x1="228.4746" x2="592.1987" y1="615.0469" y2="615.0469"/><polygon fill="#181818" points="582.1987,611.0469,592.1987,615.0469,582.1987,619.0469,586.1987,615.0469" style="stroke:#181818;stroke-width:1;"/><line style="stroke:#181818;stroke-width:1;" x1="979.9229" x2="979.9229" y1="597.0469" y2="615.0469"/><line style="stroke:#181818;stroke-width:1;" x1="979.9229" x2="616.1987" y1="615.0469" y2="615.0469"/><polygon fill="#181818" points="626.1987,611.0469,616.1987,615.0469,626.1987,619.0469,622.1987,615.0469" style="stroke:#181818;stroke-width:1;"/><line style="stroke:#181818;stroke-width:1;" x1="604.1987" x2="604.1987" y1="175.2344" y2="195.2344"/><polygon fill="#181818" points="600.1987,185.2344,604.1987,195.2344,608.1987,185.2344,604.1987,189.2344" style="stroke:#181818;stroke-width:1;"/><line style="stroke:#181818;stroke-width:1;" x1="604.1987" x2="604.1987" y1="627.0469" y2="647.0469"/><polygon fill="#181818" points="600.1987,637.0469,604.1987,647.0469,608.1987,637.0469,604.1987,641.0469" style="stroke:#181818;stroke-width:1;"/><!--SRC=[ZP9DJiD038NtEONLLIfn0hf05IeI6nPKOcycRZ6QZ2FF9AA7OiK1aE1YECqFQQ28JHMfVf_VUvx4oHFSqvvZKbHOHzu7JBLY5XDgoYut7kfOex905C-E4mA7f5BKZXMqameK17L023Kr23XYLaT2j1ag4IhIaXED0CSIpYjv1_d7-xSvWTko4ZLVLqj8JnGW7_zSPW1_RJAh1IQ9xJO_NGFvNh6G2mXIFYejLpre23q0JDQgUuOVWwzcYpauKNE9fsjM6Vb8a0y9_k6t3e3gdhWHgD1ut4idr0ZvCB9vSUPAu7hxy4S6Xxh7e_z1v-m2ta0Jw3nIWvuB11FjH4jh00wpCdfOA-oETZCETaFMYPAph_5osy_NjeDPULt4kQ7vZlEDdyfm7FgfgfGY1Tjb1UpOt3h-V0kNi5XF0BsV0iS4M9g85YslE-YTBC-pRJZYCxMFZbH53R_vhZu89AP0qsPbNjZY5-i_tqetVenmSjq3DE8RiZVJdLxziK0A1U-oxZScgRu0]--></g></svg>