<svg xmlns="http://www.w3.org/2000/svg" xmlns:xlink="http://www.w3.org/1999/xlink" contentStyleType="text/css" data-diagram-type="STATE" height="994px" preserveAspectRatio="none" style="width:366px;height:994px;background:#FFFFFF;" version="1.1" viewBox="0 0 366 994" width="366px" zoomAndPan="magnify"><defs/><g><g id="Estado1"><rect fill="#F1F1F1" height="50" rx="12.5" ry="12.5" style="stroke:#181818;stroke-width:0.5;" width="278.2139" x="44.38" y="86"/><line style="stroke:#181818;stroke-width:0.5;" x1="44.38" x2="322.5939" y1="112.2969" y2="112.2969"/><text fill="#000000" font-family="sans-serif" font-size="14" lengthAdjust="spacing" textLength="258.2139" x="54.38" y="103.9951">El Usuario solicita acceder al m&#243;dulo</text></g><g id="Estado2"><rect fill="#F1F1F1" height="50" rx="12.5" ry="12.5" style="stroke:#181818;stroke-width:0.5;" width="213.2041" x="76.89" y="196"/><line style="stroke:#181818;stroke-width:0.5;" x1="76.89" x2="290.0941" y1="222.2969" y2="222.2969"/><text fill="#000000" font-family="sans-serif" font-size="14" lengthAdjust="spacing" textLength="193.2041" x="86.89" y="213.9951">El Sistema permite acceder</text></g><g id="Estado3"><rect fill="#F1F1F1" height="50" rx="12.5" ry="12.5" style="stroke:#181818;stroke-width:0.5;" width="269.0332" x="48.97" y="306"/><line style="stroke:#181818;stroke-width:0.5;" x1="48.97" x2="318.0032" y1="332.2969" y2="332.2969"/><text fill="#000000" font-family="sans-serif" font-size="14" lengthAdjust="spacing" textLength="249.0332" x="58.97" y="323.9951">El Usuario solicita consultar valores</text></g><g id="Estado4"><rect fill="#F1F1F1" height="50" rx="12.5" ry="12.5" style="stroke:#181818;stroke-width:0.5;" width="307.0068" x="29.99" y="416"/><line style="stroke:#181818;stroke-width:0.5;" x1="29.99" x2="336.9968" y1="442.2969" y2="442.2969"/><text fill="#000000" font-family="sans-serif" font-size="14" lengthAdjust="spacing" textLength="287.0068" x="39.99" y="433.9951">El Sistema presenta pantalla de consulta</text></g><g id="Estado5"><rect fill="#F1F1F1" height="50" rx="12.5" ry="12.5" style="stroke:#181818;stroke-width:0.5;" width="352.9785" x="7" y="526"/><line style="stroke:#181818;stroke-width:0.5;" x1="7" x2="359.9785" y1="552.2969" y2="552.2969"/><text fill="#000000" font-family="sans-serif" font-size="14" lengthAdjust="spacing" textLength="332.9785" x="17" y="543.9951">El Sistema presenta datos personales/laborales</text></g><g id="Estado6"><rect fill="#F1F1F1" height="50" rx="12.5" ry="12.5" style="stroke:#181818;stroke-width:0.5;" width="222.8838" x="72.05" y="636"/><line style="stroke:#181818;stroke-width:0.5;" x1="72.05" x2="294.9338" y1="662.2969" y2="662.2969"/><text fill="#000000" font-family="sans-serif" font-size="14" lengthAdjust="spacing" textLength="202.8838" x="82.05" y="653.9951">El Usuario introduce criterios</text></g><g id="Estado7"><rect fill="#F1F1F1" height="50" rx="12.5" ry="12.5" style="stroke:#181818;stroke-width:0.5;" width="206.3887" x="80.29" y="746"/><line style="stroke:#181818;stroke-width:0.5;" x1="80.29" x2="286.6787" y1="772.2969" y2="772.2969"/><text fill="#000000" font-family="sans-serif" font-size="14" lengthAdjust="spacing" textLength="186.3887" x="90.29" y="763.9951">El Sistema obtiene valores</text></g><g id="Estado8"><rect fill="#F1F1F1" height="50" rx="12.5" ry="12.5" style="stroke:#181818;stroke-width:0.5;" width="304.0195" x="31.48" y="856"/><line style="stroke:#181818;stroke-width:0.5;" x1="31.48" x2="335.4995" y1="882.2969" y2="882.2969"/><text fill="#000000" font-family="sans-serif" font-size="14" lengthAdjust="spacing" textLength="284.0195" x="41.48" y="873.9951">El Sistema presenta valores consultados</text></g><ellipse cx="183.49" cy="16" fill="#222222" rx="10" ry="10" style="stroke:#222222;stroke-width:1;"/><ellipse cx="183.49" cy="977" fill="#FFFFFF" fill-opacity="0.00000" rx="11" ry="11" style="stroke:#222222;stroke-width:1;"/><ellipse cx="183.49" cy="977" fill="#222222" rx="6" ry="6" style="stroke:#222222;stroke-width:1;"/><!--link *start* to Estado1--><g id="link_*start*_Estado1"><path d="M183.49,26.26 C183.49,39.95 183.49,60.07 183.49,79.52 " fill="#FFFFFF" fill-opacity="0.00000" id="*start*-to-Estado1" style="stroke:#181818;stroke-width:1;"/><polygon fill="#181818" points="183.49,85.52,187.49,76.52,183.49,80.52,179.49,76.52,183.49,85.52" style="stroke:#181818;stroke-width:1;"/></g><!--link Estado1 to Estado2--><g id="link_Estado1_Estado2"><path d="M183.49,136.24 C183.49,154.02 183.49,172.08 183.49,189.84 " fill="#FFFFFF" fill-opacity="0.00000" id="Estado1-to-Estado2" style="stroke:#181818;stroke-width:1;"/><polygon fill="#181818" points="183.49,195.84,187.49,186.84,183.49,190.84,179.49,186.84,183.49,195.84" style="stroke:#181818;stroke-width:1;"/></g><!--link Estado2 to Estado3--><g id="link_Estado2_Estado3"><path d="M183.49,246.24 C183.49,264.02 183.49,282.08 183.49,299.84 " fill="#FFFFFF" fill-opacity="0.00000" id="Estado2-to-Estado3" style="stroke:#181818;stroke-width:1;"/><polygon fill="#181818" points="183.49,305.84,187.49,296.84,183.49,300.84,179.49,296.84,183.49,305.84" style="stroke:#181818;stroke-width:1;"/></g><!--link Estado3 to Estado4--><g id="link_Estado3_Estado4"><path d="M183.49,356.24 C183.49,374.02 183.49,392.08 183.49,409.84 " fill="#FFFFFF" fill-opacity="0.00000" id="Estado3-to-Estado4" style="stroke:#181818;stroke-width:1;"/><polygon fill="#181818" points="183.49,415.84,187.49,406.84,183.49,410.84,179.49,406.84,183.49,415.84" style="stroke:#181818;stroke-width:1;"/></g><!--link Estado4 to Estado5--><g id="link_Estado4_Estado5"><path d="M183.49,466.24 C183.49,484.02 183.49,502.08 183.49,519.84 " fill="#FFFFFF" fill-opacity="0.00000" id="Estado4-to-Estado5" style="stroke:#181818;stroke-width:1;"/><polygon fill="#181818" points="183.49,525.84,187.49,516.84,183.49,520.84,179.49,516.84,183.49,525.84" style="stroke:#181818;stroke-width:1;"/></g><!--link Estado5 to Estado6--><g id="link_Estado5_Estado6"><path d="M183.49,576.24 C183.49,594.02 183.49,612.08 183.49,629.84 " fill="#FFFFFF" fill-opacity="0.00000" id="Estado5-to-Estado6" style="stroke:#181818;stroke-width:1;"/><polygon fill="#181818" points="183.49,635.84,187.49,626.84,183.49,630.84,179.49,626.84,183.49,635.84" style="stroke:#181818;stroke-width:1;"/></g><!--link Estado6 to Estado7--><g id="link_Estado6_Estado7"><path d="M183.49,686.24 C183.49,704.02 183.49,722.08 183.49,739.84 " fill="#FFFFFF" fill-opacity="0.00000" id="Estado6-to-Estado7" style="stroke:#181818;stroke-width:1;"/><polygon fill="#181818" points="183.49,745.84,187.49,736.84,183.49,740.84,179.49,736.84,183.49,745.84" style="stroke:#181818;stroke-width:1;"/></g><!--link Estado7 to Estado8--><g id="link_Estado7_Estado8"><path d="M183.49,796.24 C183.49,814.02 183.49,832.08 183.49,849.84 " fill="#FFFFFF" fill-opacity="0.00000" id="Estado7-to-Estado8" style="stroke:#181818;stroke-width:1;"/><polygon fill="#181818" points="183.49,855.84,187.49,846.84,183.49,850.84,179.49,846.84,183.49,855.84" style="stroke:#181818;stroke-width:1;"/></g><!--link Estado8 to *end*--><g id="link_Estado8_*end*"><path d="M183.49,906.21 C183.49,925.57 183.49,945.75 183.49,959.9 " fill="#FFFFFF" fill-opacity="0.00000" id="Estado8-to-*end*" style="stroke:#181818;stroke-width:1;"/><polygon fill="#181818" points="183.49,965.9,187.49,956.9,183.49,960.9,179.49,956.9,183.49,965.9" style="stroke:#181818;stroke-width:1;"/></g><!--SRC=[XP5DQWCn34RtFON8CX1Avt_LNKuGiWfPABOM1eqLB4ylrYFaOdN2a2ZGORmmziDFduLEspFiTj-mrunUlZwWhCTMxfbWisSuweGf2AXmS24Ze7FaAG4oZBTVFx5i0FMjnCi-1Cqq8bmfZQ6mMJP6jPRd9Eh46HFy84iYDNAz55UUKIpo5SlEZE3fMSZupPhlCOlUVwyIaKa_6I-IxYTJfLre8SISn4-kHAVIV47MwXQovP83HVgdstxjjxFoxDI_1GwlySx3ChEl3AyChmsl3MyCRmnl3MyDxmpl3EyDxmqV31yU_BGz_m40]--></g></svg>