<svg xmlns="http://www.w3.org/2000/svg" xmlns:xlink="http://www.w3.org/1999/xlink" contentStyleType="text/css" data-diagram-type="STATE" height="1286px" preserveAspectRatio="none" style="width:562px;height:1286px;background:#FFFFFF;" version="1.1" viewBox="0 0 562 1286" width="562px" zoomAndPan="magnify"><defs/><g><path d="M19.5,86 L536.8217,86 A12.5,12.5 0 0 1 549.3217,98.5 L549.3217,112.2969 L7,112.2969 L7,98.5 A12.5,12.5 0 0 1 19.5,86 " fill="#F1F1F1" style="stroke:#F1F1F1;stroke-width:1;"/><rect fill="#FFFFFF" fill-opacity="0.00000" height="1112.2969" rx="12.5" ry="12.5" style="stroke:#181818;stroke-width:0.5;" width="542.3217" x="7" y="86"/><line style="stroke:#181818;stroke-width:0.5;" x1="7" x2="549.3217" y1="112.2969" y2="112.2969"/><text fill="#000000" font-family="sans-serif" font-size="14" lengthAdjust="spacing" textLength="186.1563" x="185.0827" y="103.9951">ConsultarAsignacionFiltros</text><g id="ConsultarAsignacionFiltros.Estado1"><rect fill="#F1F1F1" height="50" rx="12.5" ry="12.5" style="stroke:#181818;stroke-width:0.5;" width="278.2139" x="213.44" y="180.2969"/><line style="stroke:#181818;stroke-width:0.5;" x1="213.44" x2="491.6539" y1="206.5938" y2="206.5938"/><text fill="#000000" font-family="sans-serif" font-size="14" lengthAdjust="spacing" textLength="258.2139" x="223.44" y="198.292">El Usuario solicita acceder al m&#243;dulo</text></g><g id="ConsultarAsignacionFiltros.Estado2"><rect fill="#F1F1F1" height="50" rx="12.5" ry="12.5" style="stroke:#181818;stroke-width:0.5;" width="213.2041" x="245.94" y="267.2969"/><line style="stroke:#181818;stroke-width:0.5;" x1="245.94" x2="459.1441" y1="293.5938" y2="293.5938"/><text fill="#000000" font-family="sans-serif" font-size="14" lengthAdjust="spacing" textLength="193.2041" x="255.94" y="285.292">El Sistema permite acceder</text></g><g id="ConsultarAsignacionFiltros.Estado3"><rect fill="#F1F1F1" height="50" rx="12.5" ry="12.5" style="stroke:#181818;stroke-width:0.5;" width="367.6553" x="168.72" y="354.2969"/><line style="stroke:#181818;stroke-width:0.5;" x1="168.72" x2="536.3753" y1="380.5938" y2="380.5938"/><text fill="#000000" font-family="sans-serif" font-size="14" lengthAdjust="spacing" textLength="347.6553" x="178.72" y="372.292">El Usuario solicita consultar asignaci&#243;n por varios</text></g><g id="ConsultarAsignacionFiltros.Estado4"><rect fill="#F1F1F1" height="50" rx="12.5" ry="12.5" style="stroke:#181818;stroke-width:0.5;" width="281.0918" x="128" y="441.2969"/><line style="stroke:#181818;stroke-width:0.5;" x1="128" x2="409.0918" y1="467.5938" y2="467.5938"/><text fill="#000000" font-family="sans-serif" font-size="14" lengthAdjust="spacing" textLength="261.0918" x="138" y="459.292">El Sistema permite seleccionar filtros</text></g><g id="ConsultarAsignacionFiltros.Estado5"><rect fill="#F1F1F1" height="50" rx="12.5" ry="12.5" style="stroke:#181818;stroke-width:0.5;" width="222.8838" x="157.1" y="528.2969"/><line style="stroke:#181818;stroke-width:0.5;" x1="157.1" x2="379.9838" y1="554.5938" y2="554.5938"/><text fill="#000000" font-family="sans-serif" font-size="14" lengthAdjust="spacing" textLength="202.8838" x="167.1" y="546.292">El Usuario introduce criterios</text></g><g id="elem_choice1"><polygon fill="#F1F1F1" points="268.54,615.2969,280.54,627.2969,268.54,639.2969,256.54,627.2969,268.54,615.2969" style="stroke:#181818;stroke-width:0.5;"/></g><g id="ConsultarAsignacionFiltros.Estado6"><rect fill="#F1F1F1" height="50" rx="12.5" ry="12.5" style="stroke:#181818;stroke-width:0.5;" width="232.9258" x="32.08" y="692.2969"/><line style="stroke:#181818;stroke-width:0.5;" x1="32.08" x2="265.0058" y1="718.5938" y2="718.5938"/><text fill="#000000" font-family="sans-serif" font-size="14" lengthAdjust="spacing" textLength="212.9258" x="42.08" y="710.292">El Sistema solicita par&#225;metros</text></g><g id="ConsultarAsignacionFiltros.Estado7"><rect fill="#F1F1F1" height="50" rx="12.5" ry="12.5" style="stroke:#181818;stroke-width:0.5;" width="247.0898" x="19" y="828.2969"/><line style="stroke:#181818;stroke-width:0.5;" x1="19" x2="266.0898" y1="854.5938" y2="854.5938"/><text fill="#000000" font-family="sans-serif" font-size="14" lengthAdjust="spacing" textLength="227.0898" x="29" y="846.292">El Usuario introduce par&#225;metros</text></g><g id="ConsultarAsignacionFiltros.Estado8"><rect fill="#F1F1F1" height="50" rx="12.5" ry="12.5" style="stroke:#181818;stroke-width:0.5;" width="234.8398" x="29.13" y="915.2969"/><line style="stroke:#181818;stroke-width:0.5;" x1="29.13" x2="263.9698" y1="941.5938" y2="941.5938"/><text fill="#000000" font-family="sans-serif" font-size="14" lengthAdjust="spacing" textLength="214.8398" x="39.13" y="933.292">El Sistema busca asignaciones</text></g><g id="ConsultarAsignacionFiltros.Estado9"><rect fill="#F1F1F1" height="50" rx="12.5" ry="12.5" style="stroke:#181818;stroke-width:0.5;" width="208.125" x="189.48" y="760.2969"/><line style="stroke:#181818;stroke-width:0.5;" x1="189.48" x2="397.605" y1="786.5938" y2="786.5938"/><text fill="#000000" font-family="sans-serif" font-size="14" lengthAdjust="spacing" textLength="188.125" x="199.48" y="778.292">El Sistema busca sin filtros</text></g><g id="ConsultarAsignacionFiltros.Estado10"><rect fill="#F1F1F1" height="50" rx="12.5" ry="12.5" style="stroke:#181818;stroke-width:0.5;" width="327.1455" x="81.97" y="1002.2969"/><line style="stroke:#181818;stroke-width:0.5;" x1="81.97" x2="409.1155" y1="1028.5938" y2="1028.5938"/><text fill="#000000" font-family="sans-serif" font-size="14" lengthAdjust="spacing" textLength="307.1455" x="91.97" y="1020.292">El Sistema presenta resultados combinados</text></g><g id="elem_choice2"><polygon fill="#F1F1F1" points="341.54,1089.2969,353.54,1101.2969,341.54,1113.2969,329.54,1101.2969,341.54,1089.2969" style="stroke:#181818;stroke-width:0.5;"/></g><ellipse cx="352.54" cy="133.2969" fill="#222222" rx="10" ry="10" style="stroke:#222222;stroke-width:1;"/><ellipse cx="341.54" cy="1177.2969" fill="#FFFFFF" fill-opacity="0.00000" rx="11" ry="11" style="stroke:#222222;stroke-width:1;"/><ellipse cx="341.54" cy="1177.2969" fill="#222222" rx="6" ry="6" style="stroke:#222222;stroke-width:1;"/><!--link *start*ConsultarAsignacionFiltros to Estado1--><g id="link_*start*ConsultarAsignacionFiltros_Estado1"><path d="M352.54,143.7369 C352.54,152.9969 352.54,161.4869 352.54,173.9769 " fill="#FFFFFF" fill-opacity="0.00000" id="*start*ConsultarAsignacionFiltros-to-Estado1" style="stroke:#181818;stroke-width:1;"/><polygon fill="#181818" points="352.54,179.9769,356.54,170.9769,352.54,174.9769,348.54,170.9769,352.54,179.9769" style="stroke:#181818;stroke-width:1;"/></g><!--link Estado1 to Estado2--><g id="link_Estado1_Estado2"><path d="M352.54,230.4269 C352.54,241.8169 352.54,249.3769 352.54,260.8069 " fill="#FFFFFF" fill-opacity="0.00000" id="Estado1-to-Estado2" style="stroke:#181818;stroke-width:1;"/><polygon fill="#181818" points="352.54,266.8069,356.54,257.8069,352.54,261.8069,348.54,257.8069,352.54,266.8069" style="stroke:#181818;stroke-width:1;"/></g><!--link Estado2 to Estado3--><g id="link_Estado2_Estado3"><path d="M352.54,317.4269 C352.54,328.8169 352.54,336.3769 352.54,347.8069 " fill="#FFFFFF" fill-opacity="0.00000" id="Estado2-to-Estado3" style="stroke:#181818;stroke-width:1;"/><polygon fill="#181818" points="352.54,353.8069,356.54,344.8069,352.54,348.8069,348.54,344.8069,352.54,353.8069" style="stroke:#181818;stroke-width:1;"/></g><!--link Estado3 to Estado4--><g id="link_Estado3_Estado4"><path d="M328.7,404.4269 C317.45,415.8169 308.2583,425.11 296.9583,436.54 " fill="#FFFFFF" fill-opacity="0.00000" id="Estado3-to-Estado4" style="stroke:#181818;stroke-width:1;"/><polygon fill="#181818" points="292.74,440.8069,301.912,437.2188,296.2553,437.2512,296.2229,431.5944,292.74,440.8069" style="stroke:#181818;stroke-width:1;"/></g><!--link Estado4 to Estado5--><g id="link_Estado4_Estado5"><path d="M268.54,491.4269 C268.54,502.8169 268.54,510.3769 268.54,521.8069 " fill="#FFFFFF" fill-opacity="0.00000" id="Estado4-to-Estado5" style="stroke:#181818;stroke-width:1;"/><polygon fill="#181818" points="268.54,527.8069,272.54,518.8069,268.54,522.8069,264.54,518.8069,268.54,527.8069" style="stroke:#181818;stroke-width:1;"/></g><!--link Estado5 to choice1--><g id="link_Estado5_choice1"><path d="M268.54,578.6769 C268.54,590.9169 268.54,599.1569 268.54,608.8569 " fill="#FFFFFF" fill-opacity="0.00000" id="Estado5-to-choice1" style="stroke:#181818;stroke-width:1;"/><polygon fill="#181818" points="268.54,614.8569,272.54,605.8569,268.54,609.8569,264.54,605.8569,268.54,614.8569" style="stroke:#181818;stroke-width:1;"/></g><!--link choice1 to Estado6--><g id="link_choice1_Estado6"><path d="M259.98,630.8869 C246.98,635.0869 221.85,644.2269 203.54,657.2969 C189.98,666.9769 181.0359,675.8352 171.1759,687.4352 " fill="#FFFFFF" fill-opacity="0.00000" id="choice1-to-Estado6" style="stroke:#181818;stroke-width:1;"/><polygon fill="#181818" points="167.29,692.0069,176.1666,687.74,170.5282,688.1972,170.0711,682.5588,167.29,692.0069" style="stroke:#181818;stroke-width:1;"/><text fill="#000000" font-family="sans-serif" font-size="13" lengthAdjust="spacing" textLength="66.5361" x="204.54" y="670.3638">Hay filtros</text></g><!--link choice1 to Estado9--><g id="link_choice1_Estado9"><path d="M270.11,638.0569 C273.97,662.1369 283.0913,719.0324 288.6913,754.0024 " fill="#FFFFFF" fill-opacity="0.00000" id="choice1-to-Estado9" style="stroke:#181818;stroke-width:1;"/><polygon fill="#181818" points="289.64,759.9269,292.1666,750.4076,288.8494,754.9898,284.2672,751.6726,289.64,759.9269" style="stroke:#181818;stroke-width:1;"/><text fill="#000000" font-family="sans-serif" font-size="13" lengthAdjust="spacing" textLength="61.2041" x="277.54" y="670.3638">Sin filtros</text></g><!--link Estado6 to Estado7--><g id="link_Estado6_Estado7"><path d="M147.46,742.5669 C146.37,766.8469 144.9798,797.9929 143.8898,822.2129 " fill="#FFFFFF" fill-opacity="0.00000" id="Estado6-to-Estado7" style="stroke:#181818;stroke-width:1;"/><polygon fill="#181818" points="143.62,828.2069,148.0206,819.3958,143.8448,823.2119,140.0287,819.0361,143.62,828.2069" style="stroke:#181818;stroke-width:1;"/></g><!--link Estado7 to Estado8--><g id="link_Estado7_Estado8"><path d="M143.68,878.4269 C144.22,889.8169 144.5669,897.3836 145.1069,908.8136 " fill="#FFFFFF" fill-opacity="0.00000" id="Estado7-to-Estado8" style="stroke:#181818;stroke-width:1;"/><polygon fill="#181818" points="145.39,914.8069,148.9608,905.6281,145.154,909.8124,140.9697,906.0057,145.39,914.8069" style="stroke:#181818;stroke-width:1;"/></g><!--link Estado8 to Estado10--><g id="link_Estado8_Estado10"><path d="M174.91,965.6569 C188.17,977.0369 199.3569,986.6493 212.6169,998.0293 " fill="#FFFFFF" fill-opacity="0.00000" id="Estado8-to-Estado10" style="stroke:#181818;stroke-width:1;"/><polygon fill="#181818" points="217.17,1001.9369,212.9454,993.0401,213.3757,998.6806,207.7353,999.1109,217.17,1001.9369" style="stroke:#181818;stroke-width:1;"/></g><!--link Estado9 to Estado10--><g id="link_Estado9_Estado10"><path d="M292.98,810.7669 C291.67,845.6469 287.27,911.4169 272.54,965.2969 C269.13,977.8069 266.1098,985.6298 260.8998,996.5698 " fill="#FFFFFF" fill-opacity="0.00000" id="Estado9-to-Estado10" style="stroke:#181818;stroke-width:1;"/><polygon fill="#181818" points="258.32,1001.9869,265.8011,995.5811,260.4698,997.4726,258.5783,992.1414,258.32,1001.9869" style="stroke:#181818;stroke-width:1;"/></g><!--link Estado10 to choice2--><g id="link_Estado10_choice2"><path d="M278.05,1052.6769 C298.72,1068.1769 318.881,1083.2955 330.381,1091.9255 " fill="#FFFFFF" fill-opacity="0.00000" id="Estado10-to-choice2" style="stroke:#181818;stroke-width:1;"/><polygon fill="#181818" points="335.18,1095.5269,330.3824,1086.9255,331.1808,1092.5258,325.5806,1093.3242,335.18,1095.5269" style="stroke:#181818;stroke-width:1;"/></g><!--link choice2 to Estado3--><g id="link_choice2_Estado3"><path d="M350.75,1098.1369 C374.78,1091.8769 437.54,1071.4269 437.54,1028.2969 C437.54,465.2969 437.54,465.2969 437.54,465.2969 C437.54,439.6269 422.8085,422.4857 402.4185,407.9757 " fill="#FFFFFF" fill-opacity="0.00000" id="choice2-to-Estado3" style="stroke:#181818;stroke-width:1;"/><polygon fill="#181818" points="397.53,404.4969,402.5436,412.9741,401.6038,407.3959,407.182,406.4561,397.53,404.4969" style="stroke:#181818;stroke-width:1;"/><text fill="#000000" font-family="sans-serif" font-size="13" lengthAdjust="spacing" textLength="100.7817" x="438.54" y="721.8638">Nueva consulta</text></g><!--link choice2 to *end*ConsultarAsignacionFiltros--><g id="link_choice2_*end*ConsultarAsignacionFiltros"><path d="M341.54,1113.8569 C341.54,1128.1669 341.54,1146.3169 341.54,1160.0069 " fill="#FFFFFF" fill-opacity="0.00000" id="choice2-to-*end*ConsultarAsignacionFiltros" style="stroke:#181818;stroke-width:1;"/><polygon fill="#181818" points="341.54,1166.0069,345.54,1157.0069,341.54,1161.0069,337.54,1157.0069,341.54,1166.0069" style="stroke:#181818;stroke-width:1;"/><text fill="#000000" font-family="sans-serif" font-size="13" lengthAdjust="spacing" textLength="54.6533" x="342.54" y="1144.3638">Finalizar</text></g><ellipse cx="278.16" cy="16" fill="#222222" rx="10" ry="10" style="stroke:#222222;stroke-width:1;"/><ellipse cx="278.16" cy="1269.3" fill="#FFFFFF" fill-opacity="0.00000" rx="11" ry="11" style="stroke:#222222;stroke-width:1;"/><ellipse cx="278.16" cy="1269.3" fill="#222222" rx="6" ry="6" style="stroke:#222222;stroke-width:1;"/><!--link *start* to ConsultarAsignacionFiltros--><g id="link_*start*_ConsultarAsignacionFiltros"><path d="M278.16,26.31 C278.16,37.53 278.16,52.35 278.16,79.77 " fill="#FFFFFF" fill-opacity="0.00000" id="*start*-to-ConsultarAsignacionFiltros" style="stroke:#181818;stroke-width:1;"/><polygon fill="#181818" points="278.16,85.77,282.16,76.77,278.16,80.77,274.16,76.77,278.16,85.77" style="stroke:#181818;stroke-width:1;"/></g><!--link ConsultarAsignacionFiltros to *end*--><g id="link_ConsultarAsignacionFiltros_*end*"><path d="M278.16,1198.71 C278.16,1225.71 278.16,1240.41 278.16,1251.96 " fill="#FFFFFF" fill-opacity="0.00000" id="ConsultarAsignacionFiltros-to-*end*" style="stroke:#181818;stroke-width:1;"/><polygon fill="#181818" points="278.16,1257.96,282.16,1248.96,278.16,1252.96,274.16,1248.96,278.16,1257.96" style="stroke:#181818;stroke-width:1;"/></g><!--SRC=[ZLHBQiCm4Dtt54EMXK3Y_4qmb9BGLJUbgz258azRWImPoGwqfOVf6NA4NApo9xOgVsejRA4txqbwCwF3xGkCnm7SIw5JdX1rfzcR89H9iMSyKLBVW1dvHoSamPv8-Ch3id4ePNU64yffjLvD2gtHZiEpJebY4hJaZBA40A4KGrH0E4INSvXoEGAY6rArmXFJ2KO4ObGHCskbWCNoXknBhnSplE9cbxE0M2euPO7QqfiDE8L6ZZHpnmY-5WPP2lEU4p5XWiEK8b1bb9oz5qqpIsiinpq7yonivc0p2vixsDp25brPfE-IKPp2TblCWi1HMUGgPLXJvSgljrhwy40-hhRr16vyuxje1FQafqftJDJb9q8dByj1UMddhdgsFQQQaggmf42RkFwNgEjBMhnDLoaiBOjM3hQoiFKGnsA56eLnpFop_WXDfrCP7Pd8fdPlJhhEixOVWua3Rjh1rYBpkejiEh6gpEkgiZ-DuCDZYgUwyrjZpLFcmzvSbhDFelAGx_fDx7aDI_8l]--></g></svg>