<svg xmlns="http://www.w3.org/2000/svg" xmlns:xlink="http://www.w3.org/1999/xlink" contentStyleType="text/css" data-diagram-type="STATE" height="1420px" preserveAspectRatio="none" style="width:946px;height:1420px;background:#FFFFFF;" version="1.1" viewBox="0 0 946 1420" width="946px" zoomAndPan="magnify"><defs/><g><path d="M19.5,86 L920.7209,86 A12.5,12.5 0 0 1 933.2209,98.5 L933.2209,112.2969 L7,112.2969 L7,98.5 A12.5,12.5 0 0 1 19.5,86 " fill="#F1F1F1" style="stroke:#F1F1F1;stroke-width:1;"/><rect fill="#FFFFFF" fill-opacity="0.00000" height="1246.2969" rx="12.5" ry="12.5" style="stroke:#181818;stroke-width:0.5;" width="926.2209" x="7" y="86"/><line style="stroke:#181818;stroke-width:0.5;" x1="7" x2="933.2209" y1="112.2969" y2="112.2969"/><text fill="#000000" font-family="sans-serif" font-size="14" lengthAdjust="spacing" textLength="193.0605" x="373.5802" y="103.9951">IntroducirDatosAcademicos</text><g id="IntroducirDatosAcademicos.Estado1"><rect fill="#F1F1F1" height="50" rx="12.5" ry="12.5" style="stroke:#181818;stroke-width:0.5;" width="278.2139" x="389.4" y="180.2969"/><line style="stroke:#181818;stroke-width:0.5;" x1="389.4" x2="667.6139" y1="206.5938" y2="206.5938"/><text fill="#000000" font-family="sans-serif" font-size="14" lengthAdjust="spacing" textLength="258.2139" x="399.4" y="198.292">El Usuario solicita acceder al m&#243;dulo</text></g><g id="IntroducirDatosAcademicos.Estado2"><rect fill="#F1F1F1" height="50" rx="12.5" ry="12.5" style="stroke:#181818;stroke-width:0.5;" width="267.2969" x="394.86" y="267.2969"/><line style="stroke:#181818;stroke-width:0.5;" x1="394.86" x2="662.1569" y1="293.5938" y2="293.5938"/><text fill="#000000" font-family="sans-serif" font-size="14" lengthAdjust="spacing" textLength="247.2969" x="404.86" y="285.292">El Sistema permite seleccionar a&#241;o</text></g><g id="elem_choice1"><polygon fill="#F1F1F1" points="528.51,354.2969,540.51,366.2969,528.51,378.2969,516.51,366.2969,528.51,354.2969" style="stroke:#181818;stroke-width:0.5;"/></g><g id="IntroducirDatosAcademicos.Estado3"><rect fill="#F1F1F1" height="50" rx="12.5" ry="12.5" style="stroke:#181818;stroke-width:0.5;" width="270.585" x="311.22" y="431.2969"/><line style="stroke:#181818;stroke-width:0.5;" x1="311.22" x2="581.805" y1="457.5938" y2="457.5938"/><text fill="#000000" font-family="sans-serif" font-size="14" lengthAdjust="spacing" textLength="250.585" x="321.22" y="449.292">El Sistema presenta opci&#243;n heredar</text></g><g id="IntroducirDatosAcademicos.Estado4"><rect fill="#F1F1F1" height="50" rx="12.5" ry="12.5" style="stroke:#181818;stroke-width:0.5;" width="226.8691" x="496.08" y="611.2969"/><line style="stroke:#181818;stroke-width:0.5;" x1="496.08" x2="722.9491" y1="637.5938" y2="637.5938"/><text fill="#000000" font-family="sans-serif" font-size="14" lengthAdjust="spacing" textLength="206.8691" x="506.08" y="629.292">El Sistema inicia datos vac&#237;os</text></g><g id="elem_choice2"><polygon fill="#F1F1F1" points="446.51,534.2969,458.51,546.2969,446.51,558.2969,434.51,546.2969,446.51,534.2969" style="stroke:#181818;stroke-width:0.5;"/></g><g id="IntroducirDatosAcademicos.Estado5"><rect fill="#F1F1F1" height="50" rx="12.5" ry="12.5" style="stroke:#181818;stroke-width:0.5;" width="259.3057" x="218.86" y="611.2969"/><line style="stroke:#181818;stroke-width:0.5;" x1="218.86" x2="478.1657" y1="637.5938" y2="637.5938"/><text fill="#000000" font-family="sans-serif" font-size="14" lengthAdjust="spacing" textLength="239.3057" x="228.86" y="629.292">El Sistema carga datos heredados</text></g><g id="IntroducirDatosAcademicos.Estado6"><rect fill="#F1F1F1" height="50" rx="12.5" ry="12.5" style="stroke:#181818;stroke-width:0.5;" width="292.6377" x="332.19" y="698.2969"/><line style="stroke:#181818;stroke-width:0.5;" x1="332.19" x2="624.8277" y1="724.5938" y2="724.5938"/><text fill="#000000" font-family="sans-serif" font-size="14" lengthAdjust="spacing" textLength="272.6377" x="342.19" y="716.292">El Usuario introduce datos acad&#233;micos</text></g><rect fill="#555555" height="8" style="stroke:#FFFFFF00;stroke-width:1;" width="80" x="438.51" y="785.2969"/><g id="IntroducirDatosAcademicos.Estado7"><rect fill="#F1F1F1" height="50" rx="12.5" ry="12.5" style="stroke:#181818;stroke-width:0.5;" width="83.0205" x="19" y="830.2969"/><line style="stroke:#181818;stroke-width:0.5;" x1="19" x2="102.0205" y1="856.5938" y2="856.5938"/><text fill="#000000" font-family="sans-serif" font-size="14" lengthAdjust="spacing" textLength="63.0205" x="29" y="848.292">Sexenios</text></g><g id="IntroducirDatosAcademicos.Estado8"><rect fill="#F1F1F1" height="50" rx="12.5" ry="12.5" style="stroke:#181818;stroke-width:0.5;" width="150.7441" x="120.14" y="830.2969"/><line style="stroke:#181818;stroke-width:0.5;" x1="120.14" x2="270.8841" y1="856.5938" y2="856.5938"/><text fill="#000000" font-family="sans-serif" font-size="14" lengthAdjust="spacing" textLength="130.7441" x="130.14" y="848.292">Exp. Investigadora</text></g><g id="IntroducirDatosAcademicos.Estado9"><rect fill="#F1F1F1" height="50" rx="12.5" ry="12.5" style="stroke:#181818;stroke-width:0.5;" width="114.9307" x="289.04" y="830.2969"/><line style="stroke:#181818;stroke-width:0.5;" x1="289.04" x2="403.9707" y1="856.5938" y2="856.5938"/><text fill="#000000" font-family="sans-serif" font-size="14" lengthAdjust="spacing" textLength="94.9307" x="299.04" y="848.292">Exp. Personal</text></g><g id="IntroducirDatosAcademicos.Estado10"><rect fill="#F1F1F1" height="50" rx="12.5" ry="12.5" style="stroke:#181818;stroke-width:0.5;" width="113.5498" x="421.74" y="830.2969"/><line style="stroke:#181818;stroke-width:0.5;" x1="421.74" x2="535.2898" y1="856.5938" y2="856.5938"/><text fill="#000000" font-family="sans-serif" font-size="14" lengthAdjust="spacing" textLength="93.5498" x="431.74" y="848.292">Exp. Docente</text></g><g id="IntroducirDatosAcademicos.Estado11"><rect fill="#F1F1F1" height="50" rx="12.5" ry="12.5" style="stroke:#181818;stroke-width:0.5;" width="124.2275" x="553.4" y="830.2969"/><line style="stroke:#181818;stroke-width:0.5;" x1="553.4" x2="677.6275" y1="856.5938" y2="856.5938"/><text fill="#000000" font-family="sans-serif" font-size="14" lengthAdjust="spacing" textLength="104.2275" x="563.4" y="848.292">T&#237;t. Profesional</text></g><g id="IntroducirDatosAcademicos.Estado12"><rect fill="#F1F1F1" height="50" rx="12.5" ry="12.5" style="stroke:#181818;stroke-width:0.5;" width="86.9512" x="696.03" y="830.2969"/><line style="stroke:#181818;stroke-width:0.5;" x1="696.03" x2="782.9812" y1="856.5938" y2="856.5938"/><text fill="#000000" font-family="sans-serif" font-size="14" lengthAdjust="spacing" textLength="66.9512" x="706.03" y="848.292">Movilidad</text></g><g id="IntroducirDatosAcademicos.Estado13"><rect fill="#F1F1F1" height="50" rx="12.5" ry="12.5" style="stroke:#181818;stroke-width:0.5;" width="123.4209" x="800.8" y="830.2969"/><line style="stroke:#181818;stroke-width:0.5;" x1="800.8" x2="924.2209" y1="856.5938" y2="856.5938"/><text fill="#000000" font-family="sans-serif" font-size="14" lengthAdjust="spacing" textLength="103.4209" x="810.8" y="848.292">Acreditaciones</text></g><rect fill="#555555" height="8" style="stroke:#FFFFFF00;stroke-width:1;" width="80" x="438.51" y="917.2969"/><g id="IntroducirDatosAcademicos.Estado14"><rect fill="#F1F1F1" height="50" rx="12.5" ry="12.5" style="stroke:#181818;stroke-width:0.5;" width="183.3994" x="386.81" y="962.2969"/><line style="stroke:#181818;stroke-width:0.5;" x1="386.81" x2="570.2094" y1="988.5938" y2="988.5938"/><text fill="#000000" font-family="sans-serif" font-size="14" lengthAdjust="spacing" textLength="163.3994" x="396.81" y="980.292">El Sistema valida datos</text></g><g id="elem_choice3"><polygon fill="#F1F1F1" points="411.51,1049.2969,423.51,1061.2969,411.51,1073.2969,399.51,1061.2969,411.51,1049.2969" style="stroke:#181818;stroke-width:0.5;"/></g><g id="IntroducirDatosAcademicos.Estado15"><rect fill="#F1F1F1" height="50" rx="12.5" ry="12.5" style="stroke:#181818;stroke-width:0.5;" width="190.8506" x="95.08" y="1126.2969"/><line style="stroke:#181818;stroke-width:0.5;" x1="95.08" x2="285.9306" y1="1152.5938" y2="1152.5938"/><text fill="#000000" font-family="sans-serif" font-size="14" lengthAdjust="spacing" textLength="170.8506" x="105.08" y="1144.292">El Sistema guarda datos</text></g><g id="IntroducirDatosAcademicos.Estado16"><rect fill="#F1F1F1" height="50" rx="12.5" ry="12.5" style="stroke:#181818;stroke-width:0.5;" width="214.9336" x="304.04" y="1126.2969"/><line style="stroke:#181818;stroke-width:0.5;" x1="304.04" x2="518.9736" y1="1152.5938" y2="1152.5938"/><text fill="#000000" font-family="sans-serif" font-size="14" lengthAdjust="spacing" textLength="194.9336" x="314.04" y="1144.292">El Sistema presenta errores</text></g><g id="IntroducirDatosAcademicos.Estado17"><rect fill="#F1F1F1" height="50" rx="12.5" ry="12.5" style="stroke:#181818;stroke-width:0.5;" width="218.6523" x="81.18" y="1213.2969"/><line style="stroke:#181818;stroke-width:0.5;" x1="81.18" x2="299.8323" y1="1239.5938" y2="1239.5938"/><text fill="#000000" font-family="sans-serif" font-size="14" lengthAdjust="spacing" textLength="198.6523" x="91.18" y="1231.292">El Sistema confirma registro</text></g><g id="IntroducirDatosAcademicos.Estado18"><rect fill="#F1F1F1" height="50" rx="12.5" ry="12.5" style="stroke:#181818;stroke-width:0.5;" width="187.2686" x="412.88" y="1213.2969"/><line style="stroke:#181818;stroke-width:0.5;" x1="412.88" x2="600.1486" y1="1239.5938" y2="1239.5938"/><text fill="#000000" font-family="sans-serif" font-size="14" lengthAdjust="spacing" textLength="167.2686" x="422.88" y="1231.292">El Usuario corrige datos</text></g><ellipse cx="528.51" cy="133.2969" fill="#222222" rx="10" ry="10" style="stroke:#222222;stroke-width:1;"/><ellipse cx="190.51" cy="1311.2969" fill="#FFFFFF" fill-opacity="0.00000" rx="11" ry="11" style="stroke:#222222;stroke-width:1;"/><ellipse cx="190.51" cy="1311.2969" fill="#222222" rx="6" ry="6" style="stroke:#222222;stroke-width:1;"/><!--link *start*IntroducirDatosAcademicos to Estado1--><g id="link_*start*IntroducirDatosAcademicos_Estado1"><path d="M528.51,143.7369 C528.51,152.9969 528.51,161.4869 528.51,173.9769 " fill="#FFFFFF" fill-opacity="0.00000" id="*start*IntroducirDatosAcademicos-to-Estado1" style="stroke:#181818;stroke-width:1;"/><polygon fill="#181818" points="528.51,179.9769,532.51,170.9769,528.51,174.9769,524.51,170.9769,528.51,179.9769" style="stroke:#181818;stroke-width:1;"/></g><!--link Estado1 to Estado2--><g id="link_Estado1_Estado2"><path d="M528.51,230.4269 C528.51,241.8169 528.51,249.3769 528.51,260.8069 " fill="#FFFFFF" fill-opacity="0.00000" id="Estado1-to-Estado2" style="stroke:#181818;stroke-width:1;"/><polygon fill="#181818" points="528.51,266.8069,532.51,257.8069,528.51,261.8069,524.51,257.8069,528.51,266.8069" style="stroke:#181818;stroke-width:1;"/></g><!--link Estado2 to choice1--><g id="link_Estado2_choice1"><path d="M528.51,317.6769 C528.51,329.9169 528.51,338.1569 528.51,347.8569 " fill="#FFFFFF" fill-opacity="0.00000" id="Estado2-to-choice1" style="stroke:#181818;stroke-width:1;"/><polygon fill="#181818" points="528.51,353.8569,532.51,344.8569,528.51,348.8569,524.51,344.8569,528.51,353.8569" style="stroke:#181818;stroke-width:1;"/></g><!--link choice1 to Estado3--><g id="link_choice1_Estado3"><path d="M522.87,373.3469 C511.95,385.0769 491.4295,407.0864 473.0895,426.7764 " fill="#FFFFFF" fill-opacity="0.00000" id="choice1-to-Estado3" style="stroke:#181818;stroke-width:1;"/><polygon fill="#181818" points="469,431.1669,478.0612,427.3075,472.4079,427.5081,472.2072,421.8548,469,431.1669" style="stroke:#181818;stroke-width:1;"/><text fill="#000000" font-family="sans-serif" font-size="13" lengthAdjust="spacing" textLength="89.5591" x="501.51" y="409.3638">Datos previos</text></g><!--link choice1 to Estado4--><g id="link_choice1_Estado4"><path d="M539.01,368.4669 C554.31,370.7869 582.36,377.4969 595.51,396.2969 C641.49,462.0269 627.4061,558.6308 617.0461,605.0808 " fill="#FFFFFF" fill-opacity="0.00000" id="choice1-to-Estado4" style="stroke:#181818;stroke-width:1;"/><polygon fill="#181818" points="615.74,610.9369,621.6033,603.0235,616.8284,606.0568,613.7951,601.282,615.74,610.9369" style="stroke:#181818;stroke-width:1;"/><text fill="#000000" font-family="sans-serif" font-size="13" lengthAdjust="spacing" textLength="60.2773" x="628.51" y="512.3638">Sin datos</text></g><!--link Estado3 to choice2--><g id="link_Estado3_choice2"><path d="M446.51,481.3469 C446.51,498.4469 446.51,514.6369 446.51,527.8869 " fill="#FFFFFF" fill-opacity="0.00000" id="Estado3-to-choice2" style="stroke:#181818;stroke-width:1;"/><polygon fill="#181818" points="446.51,533.8869,450.51,524.8869,446.51,528.8869,442.51,524.8869,446.51,533.8869" style="stroke:#181818;stroke-width:1;"/></g><!--link choice2 to Estado5--><g id="link_choice2_Estado5"><path d="M440.38,552.8069 C427.64,564.2369 402.104,587.1679 379.834,607.1679 " fill="#FFFFFF" fill-opacity="0.00000" id="choice2-to-Estado5" style="stroke:#181818;stroke-width:1;"/><polygon fill="#181818" points="375.37,611.1769,384.7388,608.1394,379.09,607.836,379.3934,602.1873,375.37,611.1769" style="stroke:#181818;stroke-width:1;"/><text fill="#000000" font-family="sans-serif" font-size="13" lengthAdjust="spacing" textLength="52.6792" x="413.51" y="589.3638">Heredar</text></g><!--link choice2 to Estado4--><g id="link_choice2_Estado4"><path d="M453.4,551.8569 C466.44,560.4169 495.74,579.2969 521.51,593.2969 C532.52,599.2769 539.1082,602.6952 550.6082,608.2552 " fill="#FFFFFF" fill-opacity="0.00000" id="choice2-to-Estado4" style="stroke:#181818;stroke-width:1;"/><polygon fill="#181818" points="556.01,610.8669,549.6484,603.3482,551.5085,608.6905,546.1662,610.5506,556.01,610.8669" style="stroke:#181818;stroke-width:1;"/><text fill="#000000" font-family="sans-serif" font-size="13" lengthAdjust="spacing" textLength="72.9536" x="522.51" y="589.3638">No heredar</text></g><!--link Estado5 to Estado6--><g id="link_Estado5_Estado6"><path d="M385.76,661.6569 C403.17,673.0369 418.8177,683.2741 436.2277,694.6541 " fill="#FFFFFF" fill-opacity="0.00000" id="Estado5-to-Estado6" style="stroke:#181818;stroke-width:1;"/><polygon fill="#181818" points="441.25,697.9369,435.9051,689.6645,437.0648,695.2012,431.5281,696.3609,441.25,697.9369" style="stroke:#181818;stroke-width:1;"/></g><!--link Estado4 to Estado6--><g id="link_Estado4_Estado6"><path d="M571.97,661.6569 C554.43,673.0369 538.6334,683.2912 521.0934,694.6712 " fill="#FFFFFF" fill-opacity="0.00000" id="Estado4-to-Estado6" style="stroke:#181818;stroke-width:1;"/><polygon fill="#181818" points="516.06,697.9369,525.7872,696.3939,520.2545,695.2155,521.433,689.6827,516.06,697.9369" style="stroke:#181818;stroke-width:1;"/></g><!--link Estado6 to fork1--><g id="link_Estado6_fork1"><path d="M478.51,748.4969 C478.51,762.3669 478.51,772.3269 478.51,779.0469 " fill="#FFFFFF" fill-opacity="0.00000" id="Estado6-to-fork1" style="stroke:#181818;stroke-width:1;"/><polygon fill="#181818" points="478.51,785.0469,482.51,776.0469,478.51,780.0469,474.51,776.0469,478.51,785.0469" style="stroke:#181818;stroke-width:1;"/></g><!--link fork1 to Estado7--><g id="link_fork1_Estado7"><path d="M438.04,790.3769 C369.53,791.4569 226.89,797.8469 111.51,830.2969 C108.5,831.1469 111.0701,830.0826 108.0301,831.2026 " fill="#FFFFFF" fill-opacity="0.00000" id="fork1-to-Estado7" style="stroke:#181818;stroke-width:1;"/><polygon fill="#181818" points="102.4,833.2769,112.2279,833.9189,107.0917,831.5483,109.4623,826.4122,102.4,833.2769" style="stroke:#181818;stroke-width:1;"/></g><!--link fork1 to Estado8--><g id="link_fork1_Estado8"><path d="M458.73,793.7769 C422.97,800.1869 345.28,814.6369 280.51,830.2969 C277.38,831.0569 280.0033,830.3619 276.7933,831.1819 " fill="#FFFFFF" fill-opacity="0.00000" id="fork1-to-Estado8" style="stroke:#181818;stroke-width:1;"/><polygon fill="#181818" points="270.98,832.6669,280.69,834.3149,275.8244,831.4294,278.71,826.5638,270.98,832.6669" style="stroke:#181818;stroke-width:1;"/></g><!--link fork1 to Estado9--><g id="link_fork1_Estado9"><path d="M471.41,793.7369 C457.38,800.5369 430.409,813.6195 402.129,827.3295 " fill="#FFFFFF" fill-opacity="0.00000" id="fork1-to-Estado9" style="stroke:#181818;stroke-width:1;"/><polygon fill="#181818" points="396.73,829.9469,406.5734,829.6201,401.2292,827.7657,403.0836,822.4214,396.73,829.9469" style="stroke:#181818;stroke-width:1;"/></g><!--link fork1 to Estado10--><g id="link_fork1_Estado10"><path d="M478.51,793.7369 C478.51,800.5369 478.51,810.2369 478.51,823.9469 " fill="#FFFFFF" fill-opacity="0.00000" id="fork1-to-Estado10" style="stroke:#181818;stroke-width:1;"/><polygon fill="#181818" points="478.51,829.9469,482.51,820.9469,478.51,824.9469,474.51,820.9469,478.51,829.9469" style="stroke:#181818;stroke-width:1;"/></g><!--link fork1 to Estado11--><g id="link_fork1_Estado11"><path d="M485.88,793.7369 C500.44,800.5369 528.6038,813.6975 557.9538,827.4075 " fill="#FFFFFF" fill-opacity="0.00000" id="fork1-to-Estado11" style="stroke:#181818;stroke-width:1;"/><polygon fill="#181818" points="563.39,829.9469,556.9287,822.5138,558.8599,827.8308,553.5429,829.762,563.39,829.9469" style="stroke:#181818;stroke-width:1;"/></g><!--link fork1 to Estado12--><g id="link_fork1_Estado12"><path d="M508.33,793.7869 C549.22,799.0769 624.65,810.6469 686.51,830.2969 C689.49,831.2469 686.9181,830.194 689.9581,831.344 " fill="#FFFFFF" fill-opacity="0.00000" id="fork1-to-Estado12" style="stroke:#181818;stroke-width:1;"/><polygon fill="#181818" points="695.57,833.4669,688.5675,826.5412,690.8934,831.6978,685.7369,834.0238,695.57,833.4669" style="stroke:#181818;stroke-width:1;"/></g><!--link fork1 to Estado13--><g id="link_fork1_Estado13"><path d="M518.98,792.8869 C579.07,797.3069 695.15,808.0869 791.51,830.2969 C794.43,830.9669 791.5952,830.1612 794.5752,830.9612 " fill="#FFFFFF" fill-opacity="0.00000" id="fork1-to-Estado13" style="stroke:#181818;stroke-width:1;"/><polygon fill="#181818" points="800.37,832.5169,792.7149,826.3202,795.541,831.2205,790.6407,834.0466,800.37,832.5169" style="stroke:#181818;stroke-width:1;"/></g><!--link Estado7 to join1--><g id="link_Estado7_join1"><path d="M102.4,877.3169 C105.44,878.4369 108.5,879.4469 111.51,880.2969 C226.89,912.7469 363.5307,919.0423 432.0407,920.1223 " fill="#FFFFFF" fill-opacity="0.00000" id="Estado7-to-join1" style="stroke:#181818;stroke-width:1;"/><polygon fill="#181818" points="438.04,920.2169,429.1042,916.0755,433.0406,920.1381,428.9781,924.0745,438.04,920.2169" style="stroke:#181818;stroke-width:1;"/></g><!--link Estado8 to join1--><g id="link_Estado8_join1"><path d="M270.98,877.9269 C274.19,878.7469 277.38,879.5369 280.51,880.2969 C345.28,895.9569 417.0641,909.3482 452.8241,915.7582 " fill="#FFFFFF" fill-opacity="0.00000" id="Estado8-to-join1" style="stroke:#181818;stroke-width:1;"/><polygon fill="#181818" points="458.73,916.8169,450.5769,911.2917,453.8084,915.9347,449.1654,919.1662,458.73,916.8169" style="stroke:#181818;stroke-width:1;"/></g><!--link Estado9 to join1--><g id="link_Estado9_join1"><path d="M396.79,880.6769 C425.06,894.3769 452.0115,907.4485 466.0315,914.2485 " fill="#FFFFFF" fill-opacity="0.00000" id="Estado9-to-join1" style="stroke:#181818;stroke-width:1;"/><polygon fill="#181818" points="471.43,916.8669,465.0778,909.3403,466.9312,914.6849,461.5866,916.5383,471.43,916.8669" style="stroke:#181818;stroke-width:1;"/></g><!--link Estado10 to join1--><g id="link_Estado10_join1"><path d="M478.51,880.4969 C478.51,894.3669 478.51,904.3269 478.51,911.0469 " fill="#FFFFFF" fill-opacity="0.00000" id="Estado10-to-join1" style="stroke:#181818;stroke-width:1;"/><polygon fill="#181818" points="478.51,917.0469,482.51,908.0469,478.51,912.0469,474.51,908.0469,478.51,917.0469" style="stroke:#181818;stroke-width:1;"/></g><!--link Estado11 to join1--><g id="link_Estado11_join1"><path d="M563.33,880.6769 C533.99,894.3769 505.8457,907.5265 491.2957,914.3265 " fill="#FFFFFF" fill-opacity="0.00000" id="Estado11-to-join1" style="stroke:#181818;stroke-width:1;"/><polygon fill="#181818" points="485.86,916.8669,495.7071,916.6801,490.3897,914.7499,492.3199,909.4325,485.86,916.8669" style="stroke:#181818;stroke-width:1;"/></g><!--link Estado12 to join1--><g id="link_Estado12_join1"><path d="M695.57,877.1269 C692.53,878.2769 689.49,879.3469 686.51,880.2969 C624.65,899.9469 555.1704,910.7471 514.2804,916.0371 " fill="#FFFFFF" fill-opacity="0.00000" id="Estado12-to-join1" style="stroke:#181818;stroke-width:1;"/><polygon fill="#181818" points="508.33,916.8069,517.7688,919.6191,513.2887,916.1654,516.7424,911.6852,508.33,916.8069" style="stroke:#181818;stroke-width:1;"/></g><!--link Estado13 to join1--><g id="link_Estado13_join1"><path d="M800.37,878.0769 C797.39,878.8769 794.43,879.6269 791.51,880.2969 C695.15,902.5069 585.0538,912.8467 524.9638,917.2667 " fill="#FFFFFF" fill-opacity="0.00000" id="Estado13-to-join1" style="stroke:#181818;stroke-width:1;"/><polygon fill="#181818" points="518.98,917.7069,528.2492,921.0359,523.9665,917.3401,527.6623,913.0574,518.98,917.7069" style="stroke:#181818;stroke-width:1;"/></g><!--link join1 to Estado14--><g id="link_join1_Estado14"><path d="M478.51,925.7369 C478.51,932.5369 478.51,942.2369 478.51,955.9469 " fill="#FFFFFF" fill-opacity="0.00000" id="join1-to-Estado14" style="stroke:#181818;stroke-width:1;"/><polygon fill="#181818" points="478.51,961.9469,482.51,952.9469,478.51,956.9469,474.51,952.9469,478.51,961.9469" style="stroke:#181818;stroke-width:1;"/></g><!--link Estado14 to choice3--><g id="link_Estado14_choice3"><path d="M455.83,1012.6769 C442.01,1027.5269 429.5272,1040.9343 421.0972,1049.9943 " fill="#FFFFFF" fill-opacity="0.00000" id="Estado14-to-choice3" style="stroke:#181818;stroke-width:1;"/><polygon fill="#181818" points="417.01,1054.3869,426.0692,1050.5227,420.416,1050.7264,420.2123,1045.0732,417.01,1054.3869" style="stroke:#181818;stroke-width:1;"/></g><!--link choice3 to Estado15--><g id="link_choice3_Estado15"><path d="M402.4,1064.7169 C385.59,1069.2669 348.66,1079.7069 318.51,1091.2969 C292.02,1101.4869 268.6644,1111.9716 245.1244,1123.2116 " fill="#FFFFFF" fill-opacity="0.00000" id="choice3-to-Estado15" style="stroke:#181818;stroke-width:1;"/><polygon fill="#181818" points="239.71,1125.7969,249.5552,1125.5285,244.222,1123.6424,246.1081,1118.3093,239.71,1125.7969" style="stroke:#181818;stroke-width:1;"/><text fill="#000000" font-family="sans-serif" font-size="13" lengthAdjust="spacing" textLength="87.7944" x="319.51" y="1104.3638">Datos v&#225;lidos</text></g><!--link choice3 to Estado16--><g id="link_choice3_Estado16"><path d="M411.51,1073.7969 C411.51,1086.9369 411.51,1102.8069 411.51,1119.8069 " fill="#FFFFFF" fill-opacity="0.00000" id="choice3-to-Estado16" style="stroke:#181818;stroke-width:1;"/><polygon fill="#181818" points="411.51,1125.8069,415.51,1116.8069,411.51,1120.8069,407.51,1116.8069,411.51,1125.8069" style="stroke:#181818;stroke-width:1;"/><text fill="#000000" font-family="sans-serif" font-size="13" lengthAdjust="spacing" textLength="46.9727" x="412.51" y="1104.3638">Errores</text></g><!--link Estado15 to Estado17--><g id="link_Estado15_Estado17"><path d="M190.51,1176.4269 C190.51,1187.8169 190.51,1195.3769 190.51,1206.8069 " fill="#FFFFFF" fill-opacity="0.00000" id="Estado15-to-Estado17" style="stroke:#181818;stroke-width:1;"/><polygon fill="#181818" points="190.51,1212.8069,194.51,1203.8069,190.51,1207.8069,186.51,1203.8069,190.51,1212.8069" style="stroke:#181818;stroke-width:1;"/></g><!--link Estado16 to Estado18--><g id="link_Estado16_Estado18"><path d="M438.73,1176.6569 C451.45,1188.0369 462.0884,1197.5563 474.8084,1208.9363 " fill="#FFFFFF" fill-opacity="0.00000" id="Estado16-to-Estado18" style="stroke:#181818;stroke-width:1;"/><polygon fill="#181818" points="479.28,1212.9369,475.2396,1203.9549,475.5536,1209.6031,469.9055,1209.9171,479.28,1212.9369" style="stroke:#181818;stroke-width:1;"/></g><!--link Estado18 to Estado14--><g id="link_Estado18_Estado14"><path d="M517,1212.8569 C521.16,1201.8869 525.44,1188.6669 527.51,1176.2969 C537.5,1116.5869 512.063,1053.5486 494.373,1017.9986 " fill="#FFFFFF" fill-opacity="0.00000" id="Estado18-to-Estado14" style="stroke:#181818;stroke-width:1;"/><polygon fill="#181818" points="491.7,1012.6269,492.1284,1022.4664,493.9275,1017.1033,499.2906,1018.9024,491.7,1012.6269" style="stroke:#181818;stroke-width:1;"/></g><!--link Estado17 to *end*IntroducirDatosAcademicos--><g id="link_Estado17_*end*IntroducirDatosAcademicos"><path d="M190.51,1263.7269 C190.51,1276.0869 190.51,1284.4269 190.51,1293.8969 " fill="#FFFFFF" fill-opacity="0.00000" id="Estado17-to-*end*IntroducirDatosAcademicos" style="stroke:#181818;stroke-width:1;"/><polygon fill="#181818" points="190.51,1299.8969,194.51,1290.8969,190.51,1294.8969,186.51,1290.8969,190.51,1299.8969" style="stroke:#181818;stroke-width:1;"/></g><ellipse cx="470.11" cy="16" fill="#222222" rx="10" ry="10" style="stroke:#222222;stroke-width:1;"/><ellipse cx="470.11" cy="1403.3" fill="#FFFFFF" fill-opacity="0.00000" rx="11" ry="11" style="stroke:#222222;stroke-width:1;"/><ellipse cx="470.11" cy="1403.3" fill="#222222" rx="6" ry="6" style="stroke:#222222;stroke-width:1;"/><!--link *start* to IntroducirDatosAcademicos--><g id="link_*start*_IntroducirDatosAcademicos"><path d="M470.11,26.25 C470.11,37.42 470.11,52.21 470.11,79.78 " fill="#FFFFFF" fill-opacity="0.00000" id="*start*-to-IntroducirDatosAcademicos" style="stroke:#181818;stroke-width:1;"/><polygon fill="#181818" points="470.11,85.78,474.11,76.78,470.11,80.78,466.11,76.78,470.11,85.78" style="stroke:#181818;stroke-width:1;"/></g><!--link IntroducirDatosAcademicos to *end*--><g id="link_IntroducirDatosAcademicos_*end*"><path d="M470.11,1332.77 C470.11,1359.89 470.11,1374.53 470.11,1386.03 " fill="#FFFFFF" fill-opacity="0.00000" id="IntroducirDatosAcademicos-to-*end*" style="stroke:#181818;stroke-width:1;"/><polygon fill="#181818" points="470.11,1392.03,474.11,1383.03,470.11,1387.03,466.11,1383.03,470.11,1392.03" style="stroke:#181818;stroke-width:1;"/></g><!--SRC=[ZLRBQjj05DtxAuOi2ocHv8TiWY4GGxjeAQHTXIo6qRKphQmnCx88b7vCbrraKV89-h5UlUohnrMjZOJEcJldFkP8Z- -UnFNrMdnCKckYezBsNgR6tIaPmLuhuoOJWPTBPGeyIVmiMSNrM0VSu9B8UAVtfuSgrDKc5j_SKLfjX3EnLZgLGYe54LWXOx7Ftw9ZRAw4TBrGvmWFsgMmb-80Tg_ndOCObD8caHWa_qkN-tqbTLmYr-VagcUZ5NZYzhPwMgyxKVmoIaqRI_easOA319Cs1wNpjqGyWuL8MY8v65ck4ooP557H1v59bRyQHvPE-nAQ5CxP1YjHzh7GacbiDK-Thd3dfDfkl4O-NwE0rCY_f4PAsbsJOrMUg9NbZClI9z9dA_6XAkq82VFxR9eMN3ApkZuAKCkJU1RoF-LX80BdtD3DoDxp3ZOTn3fQjiR-ACQnkFSAFIyZb1GsbmTuWKItr2vw-RuStkEXpy2bUeS4Amax76H_0Ulm-CM4k1matXk5um_qWDzqYL_prnH3MhC5fpjHlPuVV3APZZNE26NvNTQTmXwZsHGk0JHxB-ZNgghokHqB5WbPPCaY9E4UvF6GpqC1r-xlHYV5k1HtCYwTkLcKiKfk1mbPPCaYtWqFUJpayr0m08tOHoQBSQWEA6tqW3bMzI6Ld8wxNC2xd3SbDXTSedE7bZAaStR9vmEiDROzo7FE5WEQuQnn_op_ZNNgsN-BF5-9JRNHHRvjagss-61XXwziwpE-675LPQpLE-YN8cI_tjH9IUn6DqN3BXh-f-DDr9A6FpOby6joul3_G_M2Vm00]--></g></svg>