<svg xmlns="http://www.w3.org/2000/svg" xmlns:xlink="http://www.w3.org/1999/xlink" contentStyleType="text/css" height="634px" preserveAspectRatio="none" style="width:478px;height:634px;background:#FFFFFF;" version="1.1" viewBox="0 0 478 634" width="478px" zoomAndPan="magnify"><defs/><g><ellipse cx="217.0054" cy="20" fill="#222222" rx="10" ry="10" style="stroke:#222222;stroke-width:1;"/><rect fill="#F1F1F1" height="33.9688" rx="12.5" ry="12.5" style="stroke:#181818;stroke-width:0.5;" width="243.002" x="95.5044" y="50"/><text fill="#000000" font-family="sans-serif" font-size="12" lengthAdjust="spacing" textLength="223.002" x="105.5044" y="71.1387">Seleccionar 'de Experiencia Docente'</text><rect fill="#F1F1F1" height="33.9688" rx="12.5" ry="12.5" style="stroke:#181818;stroke-width:0.5;" width="276.8809" x="78.5649" y="125.3677"/><text fill="#000000" font-family="sans-serif" font-size="12" lengthAdjust="spacing" textLength="256.8809" x="88.5649" y="146.5063">Mostrar formulario de experiencia docente</text><rect fill="#F1F1F1" height="33.9688" rx="12.5" ry="12.5" style="stroke:#181818;stroke-width:0.5;" width="267.1367" x="83.437" y="200.7354"/><text fill="#000000" font-family="sans-serif" font-size="12" lengthAdjust="spacing" textLength="247.1367" x="93.437" y="221.874">Ingresar centros, asignaturas, periodos...</text><rect fill="#F1F1F1" height="33.9688" rx="12.5" ry="12.5" style="stroke:#181818;stroke-width:0.5;" width="137.3105" x="148.3501" y="276.103"/><text fill="#000000" font-family="sans-serif" font-size="12" lengthAdjust="spacing" textLength="117.3105" x="158.3501" y="297.2417">Validar informacion</text><polygon fill="#F1F1F1" points="165.9128,330.0718,268.0979,330.0718,280.0979,342.0718,268.0979,354.0718,165.9128,354.0718,153.9128,342.0718,165.9128,330.0718" style="stroke:#181818;stroke-width:0.5;"/><text fill="#000000" font-family="sans-serif" font-size="11" lengthAdjust="spacing" textLength="102.1851" x="165.9128" y="345.8799">Informacion valida</text><text fill="#000000" font-family="sans-serif" font-size="11" lengthAdjust="spacing" textLength="97.0127" x="56.9001" y="339.4775">"Datos correctos"</text><text fill="#000000" font-family="sans-serif" font-size="11" lengthAdjust="spacing" textLength="119.3296" x="280.0979" y="339.4775">"Se detectan errores"</text><rect fill="#F1F1F1" height="33.9688" rx="12.5" ry="12.5" style="stroke:#181818;stroke-width:0.5;" width="195.3828" x="11" y="364.0718"/><text fill="#000000" font-family="sans-serif" font-size="12" lengthAdjust="spacing" textLength="175.3828" x="21" y="385.2104">Guardar experiencia docente</text><rect fill="#F1F1F1" height="33.9688" rx="12.5" ry="12.5" style="stroke:#181818;stroke-width:0.5;" width="130.1094" x="43.6367" y="418.0405"/><text fill="#000000" font-family="sans-serif" font-size="12" lengthAdjust="spacing" textLength="110.1094" x="53.6367" y="439.1792">Confirmar registro</text><ellipse cx="108.6914" cy="491.6035" fill="none" rx="11" ry="11" style="stroke:#222222;stroke-width:1;"/><ellipse cx="108.6914" cy="491.6035" fill="#222222" rx="6" ry="6" style="stroke:#222222;stroke-width:1;"/><rect fill="#F1F1F1" height="33.9688" rx="12.5" ry="12.5" style="stroke:#181818;stroke-width:0.5;" width="112.8477" x="268.8955" y="364.0718"/><text fill="#000000" font-family="sans-serif" font-size="12" lengthAdjust="spacing" textLength="92.8477" x="278.8955" y="385.2104">Mostrar errores</text><rect fill="#F1F1F1" height="33.9688" rx="12.5" ry="12.5" style="stroke:#181818;stroke-width:0.5;" width="135.0313" x="257.8037" y="418.0405"/><text fill="#000000" font-family="sans-serif" font-size="12" lengthAdjust="spacing" textLength="115.0313" x="267.8037" y="439.1792">Solicitar correccion</text><rect fill="#F1F1F1" height="33.9688" rx="12.5" ry="12.5" style="stroke:#181818;stroke-width:0.5;" width="197.873" x="226.3828" y="493.4082"/><text fill="#000000" font-family="sans-serif" font-size="12" lengthAdjust="spacing" textLength="177.873" x="236.3828" y="514.5469">Volver a ingresar informacion</text><rect fill="#F1F1F1" height="33.9688" rx="12.5" ry="12.5" style="stroke:#181818;stroke-width:0.5;" width="137.3105" x="256.6641" y="547.377"/><text fill="#000000" font-family="sans-serif" font-size="12" lengthAdjust="spacing" textLength="117.3105" x="266.6641" y="568.5156">Validar informacion</text><ellipse cx="217.0054" cy="612.3457" fill="none" rx="11" ry="11" style="stroke:#222222;stroke-width:1;"/><ellipse cx="217.0054" cy="612.3457" fill="#222222" rx="6" ry="6" style="stroke:#222222;stroke-width:1;"/><line style="stroke:#181818;stroke-width:1;" x1="217.0054" x2="217.0054" y1="30" y2="50"/><polygon fill="#181818" points="213.0054,40,217.0054,50,221.0054,40,217.0054,44" style="stroke:#181818;stroke-width:1;"/><line style="stroke:#181818;stroke-width:1;" x1="217.0054" x2="217.0054" y1="83.9688" y2="125.3677"/><polygon fill="#181818" points="213.0054,115.3677,217.0054,125.3677,221.0054,115.3677,217.0054,119.3677" style="stroke:#181818;stroke-width:1;"/><text fill="#000000" font-family="sans-serif" font-size="11" lengthAdjust="spacing" textLength="110.521" x="221.0054" y="105.2734">"Se abre la secci&#243;n"</text><line style="stroke:#181818;stroke-width:1;" x1="217.0054" x2="217.0054" y1="159.3364" y2="200.7354"/><polygon fill="#181818" points="213.0054,190.7354,217.0054,200.7354,221.0054,190.7354,217.0054,194.7354" style="stroke:#181818;stroke-width:1;"/><text fill="#000000" font-family="sans-serif" font-size="11" lengthAdjust="spacing" textLength="120.6938" x="221.0054" y="180.6411">"Se introducen datos"</text><line style="stroke:#181818;stroke-width:1;" x1="217.0054" x2="217.0054" y1="234.7041" y2="276.103"/><polygon fill="#181818" points="213.0054,266.103,217.0054,276.103,221.0054,266.103,217.0054,270.103" style="stroke:#181818;stroke-width:1;"/><text fill="#000000" font-family="sans-serif" font-size="11" lengthAdjust="spacing" textLength="210.0474" x="221.0054" y="256.0088">"El sistema comprueba la coherencia"</text><line style="stroke:#181818;stroke-width:1;" x1="108.6914" x2="108.6914" y1="398.0405" y2="418.0405"/><polygon fill="#181818" points="104.6914,408.0405,108.6914,418.0405,112.6914,408.0405,108.6914,412.0405" style="stroke:#181818;stroke-width:1;"/><line style="stroke:#181818;stroke-width:1;" x1="108.6914" x2="108.6914" y1="452.0093" y2="480.6035"/><polygon fill="#181818" points="104.6914,470.6035,108.6914,480.6035,112.6914,470.6035,108.6914,474.6035" style="stroke:#181818;stroke-width:1;"/><line style="stroke:#181818;stroke-width:1;" x1="325.3193" x2="325.3193" y1="398.0405" y2="418.0405"/><polygon fill="#181818" points="321.3193,408.0405,325.3193,418.0405,329.3193,408.0405,325.3193,412.0405" style="stroke:#181818;stroke-width:1;"/><line style="stroke:#181818;stroke-width:1;" x1="325.3193" x2="325.3193" y1="452.0093" y2="493.4082"/><polygon fill="#181818" points="321.3193,483.4082,325.3193,493.4082,329.3193,483.4082,325.3193,487.4082" style="stroke:#181818;stroke-width:1;"/><text fill="#000000" font-family="sans-serif" font-size="11" lengthAdjust="spacing" textLength="136.8286" x="329.3193" y="473.314">"Se corrige y se reenv&#237;a"</text><line style="stroke:#181818;stroke-width:1;" x1="325.3193" x2="325.3193" y1="527.377" y2="547.377"/><polygon fill="#181818" points="321.3193,537.377,325.3193,547.377,329.3193,537.377,325.3193,541.377" style="stroke:#181818;stroke-width:1;"/><line style="stroke:#181818;stroke-width:1;" x1="153.9128" x2="108.6914" y1="342.0718" y2="342.0718"/><line style="stroke:#181818;stroke-width:1;" x1="108.6914" x2="108.6914" y1="342.0718" y2="364.0718"/><polygon fill="#181818" points="104.6914,354.0718,108.6914,364.0718,112.6914,354.0718,108.6914,358.0718" style="stroke:#181818;stroke-width:1;"/><line style="stroke:#181818;stroke-width:1;" x1="280.0979" x2="325.3193" y1="342.0718" y2="342.0718"/><line style="stroke:#181818;stroke-width:1;" x1="325.3193" x2="325.3193" y1="342.0718" y2="364.0718"/><polygon fill="#181818" points="321.3193,354.0718,325.3193,364.0718,329.3193,354.0718,325.3193,358.0718" style="stroke:#181818;stroke-width:1;"/><line style="stroke:#181818;stroke-width:1;" x1="325.3193" x2="325.3193" y1="581.3457" y2="586.3457"/><line style="stroke:#181818;stroke-width:1;" x1="325.3193" x2="217.0054" y1="586.3457" y2="586.3457"/><line style="stroke:#181818;stroke-width:1;" x1="217.0054" x2="217.0054" y1="586.3457" y2="601.3457"/><polygon fill="#181818" points="213.0054,591.3457,217.0054,601.3457,221.0054,591.3457,217.0054,595.3457" style="stroke:#181818;stroke-width:1;"/><line style="stroke:#181818;stroke-width:1;" x1="217.0054" x2="217.0054" y1="310.0718" y2="330.0718"/><polygon fill="#181818" points="213.0054,320.0718,217.0054,330.0718,221.0054,320.0718,217.0054,324.0718" style="stroke:#181818;stroke-width:1;"/><!--SRC=[RP51RW8n34NtEON51f1Q3W1IDwMgMBIRaTYRn3D42Z5oCgWzL5Sz0XUhFGEqbLZcntd_-wTKbEgM3INoFd96WMaWUFauaaJAFYAisLEkD5svnoUOD0Iu4uA4KEp9-JjFLcxvngMAFcvP3dr2YGoAeJ-OC69kb9YhSEXLX82LYr4skHCgYh5HuV80M6ANiVQ2UZ0O1owBnMB4l2GeiLGw87W-7AMd7LeoptkImTQeMqmnA3HcIuUsvigvsC9iywl0QPYQGzrhebaJvmx0FDOMJeaYvCUO0ClN7iMGTnVK-sVERLIoW52d2OLDBfMFZb8XcBtpbQzL1AhAnWmambh0w76jz28EMiCf-bYjeI7GkCiDP6Bi23xrRzIPykdyXIDjo-b40gWjN3h-LuTDtAk9SeYjSvRy1m00]--></g></svg>