<svg xmlns="http://www.w3.org/2000/svg" xmlns:xlink="http://www.w3.org/1999/xlink" contentStyleType="text/css" height="634px" preserveAspectRatio="none" style="width:515px;height:634px;background:#FFFFFF;" version="1.1" viewBox="0 0 515 634" width="515px" zoomAndPan="magnify"><defs/><g><ellipse cx="230.5713" cy="20" fill="#222222" rx="10" ry="10" style="stroke:#222222;stroke-width:1;"/><rect fill="#F1F1F1" height="33.9688" rx="12.5" ry="12.5" style="stroke:#181818;stroke-width:0.5;" width="259.0859" x="101.0283" y="50"/><text fill="#000000" font-family="sans-serif" font-size="12" lengthAdjust="spacing" textLength="239.0859" x="111.0283" y="71.1387">Seleccionar 'de Experiencia Profesional'</text><rect fill="#F1F1F1" height="33.9688" rx="12.5" ry="12.5" style="stroke:#181818;stroke-width:0.5;" width="294.9688" x="83.0869" y="125.3677"/><text fill="#000000" font-family="sans-serif" font-size="12" lengthAdjust="spacing" textLength="274.9688" x="93.0869" y="146.5063">Mostrar formulario de experiencia profesional</text><rect fill="#F1F1F1" height="33.9688" rx="12.5" ry="12.5" style="stroke:#181818;stroke-width:0.5;" width="294.4063" x="83.3682" y="200.7354"/><text fill="#000000" font-family="sans-serif" font-size="12" lengthAdjust="spacing" textLength="274.4063" x="93.3682" y="221.874">Ingresar datos de empresas, cargos, fechas...</text><rect fill="#F1F1F1" height="33.9688" rx="12.5" ry="12.5" style="stroke:#181818;stroke-width:0.5;" width="137.3105" x="161.916" y="276.103"/><text fill="#000000" font-family="sans-serif" font-size="12" lengthAdjust="spacing" textLength="117.3105" x="171.916" y="297.2417">Validar informacion</text><polygon fill="#F1F1F1" points="179.4788,330.0718,281.6638,330.0718,293.6638,342.0718,281.6638,354.0718,179.4788,354.0718,167.4788,342.0718,179.4788,330.0718" style="stroke:#181818;stroke-width:0.5;"/><text fill="#000000" font-family="sans-serif" font-size="11" lengthAdjust="spacing" textLength="102.1851" x="179.4788" y="345.8799">Informacion valida</text><text fill="#000000" font-family="sans-serif" font-size="11" lengthAdjust="spacing" textLength="140.54" x="26.9387" y="339.4775">"Los datos son correctos"</text><text fill="#000000" font-family="sans-serif" font-size="11" lengthAdjust="spacing" textLength="137.8384" x="293.6638" y="339.4775">"Existen inconsistencias"</text><rect fill="#F1F1F1" height="33.9688" rx="12.5" ry="12.5" style="stroke:#181818;stroke-width:0.5;" width="213.4707" x="11" y="364.0718"/><text fill="#000000" font-family="sans-serif" font-size="12" lengthAdjust="spacing" textLength="193.4707" x="21" y="385.2104">Guardar experiencia profesional</text><rect fill="#F1F1F1" height="33.9688" rx="12.5" ry="12.5" style="stroke:#181818;stroke-width:0.5;" width="130.1094" x="52.6807" y="418.0405"/><text fill="#000000" font-family="sans-serif" font-size="12" lengthAdjust="spacing" textLength="110.1094" x="62.6807" y="439.1792">Confirmar registro</text><ellipse cx="117.7354" cy="491.6035" fill="none" rx="11" ry="11" style="stroke:#222222;stroke-width:1;"/><ellipse cx="117.7354" cy="491.6035" fill="#222222" rx="6" ry="6" style="stroke:#222222;stroke-width:1;"/><rect fill="#F1F1F1" height="33.9688" rx="12.5" ry="12.5" style="stroke:#181818;stroke-width:0.5;" width="112.8477" x="286.9834" y="364.0718"/><text fill="#000000" font-family="sans-serif" font-size="12" lengthAdjust="spacing" textLength="92.8477" x="296.9834" y="385.2104">Mostrar errores</text><rect fill="#F1F1F1" height="33.9688" rx="12.5" ry="12.5" style="stroke:#181818;stroke-width:0.5;" width="135.0313" x="275.8916" y="418.0405"/><text fill="#000000" font-family="sans-serif" font-size="12" lengthAdjust="spacing" textLength="115.0313" x="285.8916" y="439.1792">Solicitar correccion</text><rect fill="#F1F1F1" height="33.9688" rx="12.5" ry="12.5" style="stroke:#181818;stroke-width:0.5;" width="197.873" x="244.4707" y="493.4082"/><text fill="#000000" font-family="sans-serif" font-size="12" lengthAdjust="spacing" textLength="177.873" x="254.4707" y="514.5469">Volver a ingresar informacion</text><rect fill="#F1F1F1" height="33.9688" rx="12.5" ry="12.5" style="stroke:#181818;stroke-width:0.5;" width="137.3105" x="274.752" y="547.377"/><text fill="#000000" font-family="sans-serif" font-size="12" lengthAdjust="spacing" textLength="117.3105" x="284.752" y="568.5156">Validar informacion</text><ellipse cx="230.5713" cy="612.3457" fill="none" rx="11" ry="11" style="stroke:#222222;stroke-width:1;"/><ellipse cx="230.5713" cy="612.3457" fill="#222222" rx="6" ry="6" style="stroke:#222222;stroke-width:1;"/><line style="stroke:#181818;stroke-width:1;" x1="230.5713" x2="230.5713" y1="30" y2="50"/><polygon fill="#181818" points="226.5713,40,230.5713,50,234.5713,40,230.5713,44" style="stroke:#181818;stroke-width:1;"/><line style="stroke:#181818;stroke-width:1;" x1="230.5713" x2="230.5713" y1="83.9688" y2="125.3677"/><polygon fill="#181818" points="226.5713,115.3677,230.5713,125.3677,234.5713,115.3677,230.5713,119.3677" style="stroke:#181818;stroke-width:1;"/><text fill="#000000" font-family="sans-serif" font-size="11" lengthAdjust="spacing" textLength="268.5386" x="234.5713" y="105.2734">"Se abre el apartado de experiencia profesional"</text><line style="stroke:#181818;stroke-width:1;" x1="230.5713" x2="230.5713" y1="159.3364" y2="200.7354"/><polygon fill="#181818" points="226.5713,190.7354,230.5713,200.7354,234.5713,190.7354,230.5713,194.7354" style="stroke:#181818;stroke-width:1;"/><text fill="#000000" font-family="sans-serif" font-size="11" lengthAdjust="spacing" textLength="120.6938" x="234.5713" y="180.6411">"Se introducen datos"</text><line style="stroke:#181818;stroke-width:1;" x1="230.5713" x2="230.5713" y1="234.7041" y2="276.103"/><polygon fill="#181818" points="226.5713,266.103,230.5713,276.103,234.5713,266.103,230.5713,270.103" style="stroke:#181818;stroke-width:1;"/><text fill="#000000" font-family="sans-serif" font-size="11" lengthAdjust="spacing" textLength="243.4556" x="234.5713" y="256.0088">"El sistema valida la informaci&#243;n ingresada"</text><line style="stroke:#181818;stroke-width:1;" x1="117.7354" x2="117.7354" y1="398.0405" y2="418.0405"/><polygon fill="#181818" points="113.7354,408.0405,117.7354,418.0405,121.7354,408.0405,117.7354,412.0405" style="stroke:#181818;stroke-width:1;"/><line style="stroke:#181818;stroke-width:1;" x1="117.7354" x2="117.7354" y1="452.0093" y2="480.6035"/><polygon fill="#181818" points="113.7354,470.6035,117.7354,480.6035,121.7354,470.6035,117.7354,474.6035" style="stroke:#181818;stroke-width:1;"/><line style="stroke:#181818;stroke-width:1;" x1="343.4072" x2="343.4072" y1="398.0405" y2="418.0405"/><polygon fill="#181818" points="339.4072,408.0405,343.4072,418.0405,347.4072,408.0405,343.4072,412.0405" style="stroke:#181818;stroke-width:1;"/><line style="stroke:#181818;stroke-width:1;" x1="343.4072" x2="343.4072" y1="452.0093" y2="493.4082"/><polygon fill="#181818" points="339.4072,483.4082,343.4072,493.4082,347.4072,483.4082,343.4072,487.4082" style="stroke:#181818;stroke-width:1;"/><text fill="#000000" font-family="sans-serif" font-size="11" lengthAdjust="spacing" textLength="136.8286" x="347.4072" y="473.314">"Se corrige y se reenv&#237;a"</text><line style="stroke:#181818;stroke-width:1;" x1="343.4072" x2="343.4072" y1="527.377" y2="547.377"/><polygon fill="#181818" points="339.4072,537.377,343.4072,547.377,347.4072,537.377,343.4072,541.377" style="stroke:#181818;stroke-width:1;"/><line style="stroke:#181818;stroke-width:1;" x1="167.4788" x2="117.7354" y1="342.0718" y2="342.0718"/><line style="stroke:#181818;stroke-width:1;" x1="117.7354" x2="117.7354" y1="342.0718" y2="364.0718"/><polygon fill="#181818" points="113.7354,354.0718,117.7354,364.0718,121.7354,354.0718,117.7354,358.0718" style="stroke:#181818;stroke-width:1;"/><line style="stroke:#181818;stroke-width:1;" x1="293.6638" x2="343.4072" y1="342.0718" y2="342.0718"/><line style="stroke:#181818;stroke-width:1;" x1="343.4072" x2="343.4072" y1="342.0718" y2="364.0718"/><polygon fill="#181818" points="339.4072,354.0718,343.4072,364.0718,347.4072,354.0718,343.4072,358.0718" style="stroke:#181818;stroke-width:1;"/><line style="stroke:#181818;stroke-width:1;" x1="343.4072" x2="343.4072" y1="581.3457" y2="586.3457"/><line style="stroke:#181818;stroke-width:1;" x1="343.4072" x2="230.5713" y1="586.3457" y2="586.3457"/><line style="stroke:#181818;stroke-width:1;" x1="230.5713" x2="230.5713" y1="586.3457" y2="601.3457"/><polygon fill="#181818" points="226.5713,591.3457,230.5713,601.3457,234.5713,591.3457,230.5713,595.3457" style="stroke:#181818;stroke-width:1;"/><line style="stroke:#181818;stroke-width:1;" x1="230.5713" x2="230.5713" y1="310.0718" y2="330.0718"/><polygon fill="#181818" points="226.5713,320.0718,230.5713,330.0718,234.5713,320.0718,230.5713,324.0718" style="stroke:#181818;stroke-width:1;"/><!--SRC=[VP51QiD034NtSmgHJH9eSu04kYcX1DfIC6IlZcL7C1uPpIIaX-ggHyZ5gh6JffIsA-DlwVslxvHHirjM5CXxbeWAqvfWVUn9cQ9dX1ULXbBv5gOhTti7aue0NvM00c1l-rWBs19zM-glIvELMpv9ochiHhJR1rJ-R-7BX6DMgVUU8jIO9HNI9hPAoL23Cb2wlYZf1ZngA_PioEymBHQBaRGEa3XbwX0E6BX626ZiaWKzdpwYlGpG6el3TfZHwuJ4bNFSm6npLSwaEUITfPjLF7S0nUonX1gY9Ploeaf-Z0wmVDYZ5lIVXzlClSI6pKL1gRNOAaLEMNf78H7CdkNYjJwMiqfyBt4uiH3FNfVAILNik46h9B1d- -NdOEDj8ypwBYAt16zWFaeK3wTt76bR2GTIm4jLF-ef4x_LHh7cnhcI_XC0]--></g></svg>