<svg xmlns="http://www.w3.org/2000/svg" xmlns:xlink="http://www.w3.org/1999/xlink" contentStyleType="text/css" height="634px" preserveAspectRatio="none" style="width:497px;height:634px;background:#FFFFFF;" version="1.1" viewBox="0 0 497 634" width="497px" zoomAndPan="magnify"><defs/><g><ellipse cx="213.6326" cy="20" fill="#222222" rx="10" ry="10" style="stroke:#222222;stroke-width:1;"/><rect fill="#F1F1F1" height="33.9688" rx="12.5" ry="12.5" style="stroke:#181818;stroke-width:0.5;" width="176.0938" x="125.5857" y="50"/><text fill="#000000" font-family="sans-serif" font-size="12" lengthAdjust="spacing" textLength="156.0938" x="135.5857" y="71.1387">Seleccionar 'de Movilidad'</text><rect fill="#F1F1F1" height="33.9688" rx="12.5" ry="12.5" style="stroke:#181818;stroke-width:0.5;" width="213.1309" x="107.0671" y="125.3677"/><text fill="#000000" font-family="sans-serif" font-size="12" lengthAdjust="spacing" textLength="193.1309" x="117.0671" y="146.5063">Mostrar formulario de movilidad</text><rect fill="#F1F1F1" height="33.9688" rx="12.5" ry="12.5" style="stroke:#181818;stroke-width:0.5;" width="329.7148" x="48.7751" y="200.7354"/><text fill="#000000" font-family="sans-serif" font-size="12" lengthAdjust="spacing" textLength="309.7148" x="58.7751" y="221.874">Ingresar datos de programas, destinos, fechas, etc.</text><rect fill="#F1F1F1" height="33.9688" rx="12.5" ry="12.5" style="stroke:#181818;stroke-width:0.5;" width="137.3105" x="144.9773" y="276.103"/><text fill="#000000" font-family="sans-serif" font-size="12" lengthAdjust="spacing" textLength="117.3105" x="154.9773" y="297.2417">Validar informacion</text><polygon fill="#F1F1F1" points="162.54,330.0718,264.7251,330.0718,276.7251,342.0718,264.7251,354.0718,162.54,354.0718,150.54,342.0718,162.54,330.0718" style="stroke:#181818;stroke-width:0.5;"/><text fill="#000000" font-family="sans-serif" font-size="11" lengthAdjust="spacing" textLength="102.1851" x="162.54" y="345.8799">Informacion valida</text><text fill="#000000" font-family="sans-serif" font-size="11" lengthAdjust="spacing" textLength="140.54" x="10" y="339.4775">"Los datos son correctos"</text><text fill="#000000" font-family="sans-serif" font-size="11" lengthAdjust="spacing" textLength="119.3296" x="276.7251" y="339.4775">"Se detectan errores"</text><rect fill="#F1F1F1" height="33.9688" rx="12.5" ry="12.5" style="stroke:#181818;stroke-width:0.5;" width="187.5313" x="13.5159" y="364.0718"/><text fill="#000000" font-family="sans-serif" font-size="12" lengthAdjust="spacing" textLength="167.5313" x="23.5159" y="385.2104">Guardar datos de movilidad</text><rect fill="#F1F1F1" height="33.9688" rx="12.5" ry="12.5" style="stroke:#181818;stroke-width:0.5;" width="130.1094" x="42.2268" y="418.0405"/><text fill="#000000" font-family="sans-serif" font-size="12" lengthAdjust="spacing" textLength="110.1094" x="52.2268" y="439.1792">Confirmar registro</text><ellipse cx="107.2815" cy="491.6035" fill="none" rx="11" ry="11" style="stroke:#222222;stroke-width:1;"/><ellipse cx="107.2815" cy="491.6035" fill="#222222" rx="6" ry="6" style="stroke:#222222;stroke-width:1;"/><rect fill="#F1F1F1" height="33.9688" rx="12.5" ry="12.5" style="stroke:#181818;stroke-width:0.5;" width="112.8477" x="263.5598" y="364.0718"/><text fill="#000000" font-family="sans-serif" font-size="12" lengthAdjust="spacing" textLength="92.8477" x="273.5598" y="385.2104">Mostrar errores</text><rect fill="#F1F1F1" height="33.9688" rx="12.5" ry="12.5" style="stroke:#181818;stroke-width:0.5;" width="135.0313" x="252.468" y="418.0405"/><text fill="#000000" font-family="sans-serif" font-size="12" lengthAdjust="spacing" textLength="115.0313" x="262.468" y="439.1792">Solicitar correccion</text><rect fill="#F1F1F1" height="33.9688" rx="12.5" ry="12.5" style="stroke:#181818;stroke-width:0.5;" width="197.873" x="221.0471" y="493.4082"/><text fill="#000000" font-family="sans-serif" font-size="12" lengthAdjust="spacing" textLength="177.873" x="231.0471" y="514.5469">Volver a ingresar informacion</text><rect fill="#F1F1F1" height="33.9688" rx="12.5" ry="12.5" style="stroke:#181818;stroke-width:0.5;" width="137.3105" x="251.3284" y="547.377"/><text fill="#000000" font-family="sans-serif" font-size="12" lengthAdjust="spacing" textLength="117.3105" x="261.3284" y="568.5156">Validar informacion</text><ellipse cx="213.6326" cy="612.3457" fill="none" rx="11" ry="11" style="stroke:#222222;stroke-width:1;"/><ellipse cx="213.6326" cy="612.3457" fill="#222222" rx="6" ry="6" style="stroke:#222222;stroke-width:1;"/><line style="stroke:#181818;stroke-width:1;" x1="213.6326" x2="213.6326" y1="30" y2="50"/><polygon fill="#181818" points="209.6326,40,213.6326,50,217.6326,40,213.6326,44" style="stroke:#181818;stroke-width:1;"/><line style="stroke:#181818;stroke-width:1;" x1="213.6326" x2="213.6326" y1="83.9688" y2="125.3677"/><polygon fill="#181818" points="209.6326,115.3677,213.6326,125.3677,217.6326,115.3677,213.6326,119.3677" style="stroke:#181818;stroke-width:1;"/><text fill="#000000" font-family="sans-serif" font-size="11" lengthAdjust="spacing" textLength="193.5205" x="217.6326" y="105.2734">"Se abre el apartado de movilidad"</text><line style="stroke:#181818;stroke-width:1;" x1="213.6326" x2="213.6326" y1="159.3364" y2="200.7354"/><polygon fill="#181818" points="209.6326,190.7354,213.6326,200.7354,217.6326,190.7354,213.6326,194.7354" style="stroke:#181818;stroke-width:1;"/><text fill="#000000" font-family="sans-serif" font-size="11" lengthAdjust="spacing" textLength="97.4746" x="217.6326" y="180.6411">"Introducir datos"</text><line style="stroke:#181818;stroke-width:1;" x1="213.6326" x2="213.6326" y1="234.7041" y2="276.103"/><polygon fill="#181818" points="209.6326,266.103,213.6326,276.103,217.6326,266.103,213.6326,270.103" style="stroke:#181818;stroke-width:1;"/><text fill="#000000" font-family="sans-serif" font-size="11" lengthAdjust="spacing" textLength="210.0474" x="217.6326" y="256.0088">"El sistema comprueba la coherencia"</text><line style="stroke:#181818;stroke-width:1;" x1="107.2815" x2="107.2815" y1="398.0405" y2="418.0405"/><polygon fill="#181818" points="103.2815,408.0405,107.2815,418.0405,111.2815,408.0405,107.2815,412.0405" style="stroke:#181818;stroke-width:1;"/><line style="stroke:#181818;stroke-width:1;" x1="107.2815" x2="107.2815" y1="452.0093" y2="480.6035"/><polygon fill="#181818" points="103.2815,470.6035,107.2815,480.6035,111.2815,470.6035,107.2815,474.6035" style="stroke:#181818;stroke-width:1;"/><line style="stroke:#181818;stroke-width:1;" x1="319.9836" x2="319.9836" y1="398.0405" y2="418.0405"/><polygon fill="#181818" points="315.9836,408.0405,319.9836,418.0405,323.9836,408.0405,319.9836,412.0405" style="stroke:#181818;stroke-width:1;"/><line style="stroke:#181818;stroke-width:1;" x1="319.9836" x2="319.9836" y1="452.0093" y2="493.4082"/><polygon fill="#181818" points="315.9836,483.4082,319.9836,493.4082,323.9836,483.4082,319.9836,487.4082" style="stroke:#181818;stroke-width:1;"/><text fill="#000000" font-family="sans-serif" font-size="11" lengthAdjust="spacing" textLength="161.3101" x="323.9836" y="473.314">"El usuario corrige y reenv&#237;a"</text><line style="stroke:#181818;stroke-width:1;" x1="319.9836" x2="319.9836" y1="527.377" y2="547.377"/><polygon fill="#181818" points="315.9836,537.377,319.9836,547.377,323.9836,537.377,319.9836,541.377" style="stroke:#181818;stroke-width:1;"/><line style="stroke:#181818;stroke-width:1;" x1="150.54" x2="107.2815" y1="342.0718" y2="342.0718"/><line style="stroke:#181818;stroke-width:1;" x1="107.2815" x2="107.2815" y1="342.0718" y2="364.0718"/><polygon fill="#181818" points="103.2815,354.0718,107.2815,364.0718,111.2815,354.0718,107.2815,358.0718" style="stroke:#181818;stroke-width:1;"/><line style="stroke:#181818;stroke-width:1;" x1="276.7251" x2="319.9836" y1="342.0718" y2="342.0718"/><line style="stroke:#181818;stroke-width:1;" x1="319.9836" x2="319.9836" y1="342.0718" y2="364.0718"/><polygon fill="#181818" points="315.9836,354.0718,319.9836,364.0718,323.9836,354.0718,319.9836,358.0718" style="stroke:#181818;stroke-width:1;"/><line style="stroke:#181818;stroke-width:1;" x1="319.9836" x2="319.9836" y1="581.3457" y2="586.3457"/><line style="stroke:#181818;stroke-width:1;" x1="319.9836" x2="213.6326" y1="586.3457" y2="586.3457"/><line style="stroke:#181818;stroke-width:1;" x1="213.6326" x2="213.6326" y1="586.3457" y2="601.3457"/><polygon fill="#181818" points="209.6326,591.3457,213.6326,601.3457,217.6326,591.3457,213.6326,595.3457" style="stroke:#181818;stroke-width:1;"/><line style="stroke:#181818;stroke-width:1;" x1="213.6326" x2="213.6326" y1="310.0718" y2="330.0718"/><polygon fill="#181818" points="209.6326,320.0718,213.6326,330.0718,217.6326,320.0718,213.6326,324.0718" style="stroke:#181818;stroke-width:1;"/><!--SRC=[RL51QiCm4Bph5KilIQ3j0nBefPGIQ7envBwHric2h3KhsT17zHNzM5UsGnFeJHhDpioESa4jRjjG9EzP4Ygi0i51HeuSCAnsxka57Xe2F2a1HS3U9Z086AsxqXvsRdkGNDJcMz5kYAXyJvc5zgceXC6pGi0YkGxkqrafuuBKeLxbhDXXVhHRBfp4JYtvIqMe-ETPx2r2vboeG_3IzJhG2I7MouMKacUiyaUi_WgSQZAiM-wSunRM-py4necrWNAX1Ek6DmwWUdpKH5EkR2mlgkJdt03Rzm4rt0Q_sTQUNoMrR0OAIcSBgbBXNAHt53F1-bEkDbPme6BIc81KnGgPBQwjBk24DHBPi_tSacTUQHQoJeOyJEtNHpuJV9azfV7d6sV9eyIH5D0QMOg_gwOo_gkCKk3MkHh_5m00]--></g></svg>