<svg xmlns="http://www.w3.org/2000/svg" xmlns:xlink="http://www.w3.org/1999/xlink" contentStyleType="text/css" data-diagram-type="DESCRIPTION" height="502px" preserveAspectRatio="none" style="width:724px;height:502px;background:#FFFFFF;" version="1.1" viewBox="0 0 724 502" width="724px" zoomAndPan="magnify"><defs/><g><!--entity ALUMNO--><g id="elem_ALUMNO"><rect fill="#ADD8E6" height="36.2969" rx="2.5" ry="2.5" style="stroke:#181818;stroke-width:0.5;" width="81.1953" x="389.43" y="7"/><text fill="#000000" font-family="sans-serif" font-size="14" lengthAdjust="spacing" textLength="61.1953" x="399.43" y="29.9951">ALUMNO</text></g><!--entity PAGINA_PRINCIPAL--><g id="elem_PAGINA_PRINCIPAL"><rect fill="#ADD8E6" height="36.2969" rx="2.5" ry="2.5" style="stroke:#181818;stroke-width:0.5;" width="152.542" x="353.76" y="120.29"/><text fill="#000000" font-family="sans-serif" font-size="14" lengthAdjust="spacing" textLength="132.542" x="363.76" y="143.2851">PAGINA_PRINCIPAL</text></g><!--entity BUSCAR_OFERTAS--><g id="elem_BUSCAR_OFERTAS"><rect fill="#FFFF00" height="36.2969" rx="2.5" ry="2.5" style="stroke:#181818;stroke-width:0.5;" width="149.4795" x="212.29" y="233.59"/><text fill="#000000" font-family="sans-serif" font-size="14" lengthAdjust="spacing" textLength="129.4795" x="222.29" y="256.5851">BUSCAR_OFERTAS</text></g><!--entity VER_OFERTAS--><g id="elem_VER_OFERTAS"><rect fill="#F08080" height="36.2969" rx="2.5" ry="2.5" style="stroke:#181818;stroke-width:0.5;" width="119.8115" x="179.12" y="346.89"/><text fill="#000000" font-family="sans-serif" font-size="14" lengthAdjust="spacing" textLength="99.8115" x="189.12" y="369.8851">VER_OFERTAS</text></g><!--entity POSTULAR_OFERTA--><g id="elem_POSTULAR_OFERTA"><rect fill="#90EE90" height="36.2969" rx="2.5" ry="2.5" style="stroke:#181818;stroke-width:0.5;" width="157.0264" x="336.51" y="460.18"/><text fill="#000000" font-family="sans-serif" font-size="14" lengthAdjust="spacing" textLength="137.0264" x="346.51" y="483.1751">POSTULAR_OFERTA</text></g><!--link ALUMNO to PAGINA_PRINCIPAL--><g id="link_ALUMNO_PAGINA_PRINCIPAL"><path d="M430.03,43.53 C430.03,64.32 430.03,92.91 430.03,113.81 " fill="#FFFFFF" fill-opacity="0.00000" id="ALUMNO-to-PAGINA_PRINCIPAL" style="stroke:#000000;stroke-width:1;"/><polygon fill="#000000" points="430.03,119.81,434.03,110.81,430.03,114.81,426.03,110.81,430.03,119.81" style="stroke:#000000;stroke-width:1;"/><text fill="#000000" font-family="sans-serif" font-size="13" lengthAdjust="spacing" textLength="171.2598" x="431.03" y="86.3569">Entra a la p&#225;gina principal</text></g><!--link PAGINA_PRINCIPAL to BUSCAR_OFERTAS--><g id="link_PAGINA_PRINCIPAL_BUSCAR_OFERTAS"><path d="M407.37,157.08 C380.59,177.92 341.0444,208.6941 314.3144,229.5041 " fill="#FFFFFF" fill-opacity="0.00000" id="PAGINA_PRINCIPAL-to-BUSCAR_OFERTAS" style="stroke:#FFFF00;stroke-width:1;"/><polygon fill="#FFFF00" points="309.58,233.19,319.1388,230.8175,313.5253,230.1185,314.2244,224.505,309.58,233.19" style="stroke:#FFFF00;stroke-width:1;"/><text fill="#000000" font-family="sans-serif" font-size="13" lengthAdjust="spacing" textLength="164.9375" x="369.03" y="199.6569">Buscar ofertas de trabajo</text></g><!--link BUSCAR_OFERTAS to VER_OFERTAS--><g id="link_BUSCAR_OFERTAS_VER_OFERTAS"><path d="M212.06,257.14 C149.03,262.59 65.95,274.49 45.03,299.89 C6,347.25 102.3263,359.616 172.7763,362.836 " fill="#FFFFFF" fill-opacity="0.00000" id="BUSCAR_OFERTAS-to-VER_OFERTAS" style="stroke:#F08080;stroke-width:1;"/><polygon fill="#F08080" points="178.77,363.11,169.962,358.7032,173.7752,362.8817,169.5968,366.6949,178.77,363.11" style="stroke:#F08080;stroke-width:1;"/><text fill="#000000" font-family="sans-serif" font-size="13" lengthAdjust="spacing" textLength="149.5381" x="46.03" y="312.9569">Ver ofertas disponibles</text></g><!--link VER_OFERTAS to BUSCAR_OFERTAS--><g id="link_VER_OFERTAS_BUSCAR_OFERTAS"><path d="M234.11,346.39 C231.35,333.05 229.59,314.6 236.03,299.89 C241.15,288.18 246.1313,281.8855 255.6513,274.0755 " fill="#FFFFFF" fill-opacity="0.00000" id="VER_OFERTAS-to-BUSCAR_OFERTAS" style="stroke:#FFFF00;stroke-width:1;"/><polygon fill="#FFFF00" points="260.29,270.27,250.7949,272.8858,256.4244,273.4413,255.8689,279.0708,260.29,270.27" style="stroke:#FFFF00;stroke-width:1;"/><text fill="#000000" font-family="sans-serif" font-size="13" lengthAdjust="spacing" textLength="151.29" x="237.03" y="312.9569">Volver a buscar ofertas</text></g><!--link VER_OFERTAS to POSTULAR_OFERTA--><g id="link_VER_OFERTAS_POSTULAR_OFERTA"><path d="M246.3,383.6 C253.07,397.98 264.48,417.89 280.03,430.18 C296.48,443.19 311.1198,450.7595 330.9398,457.7295 " fill="#FFFFFF" fill-opacity="0.00000" id="VER_OFERTAS-to-POSTULAR_OFERTA" style="stroke:#90EE90;stroke-width:1;"/><polygon fill="#90EE90" points="336.6,459.72,329.4367,452.9608,331.8832,458.0613,326.7827,460.5077,336.6,459.72" style="stroke:#90EE90;stroke-width:1;"/><text fill="#000000" font-family="sans-serif" font-size="13" lengthAdjust="spacing" textLength="107.9927" x="281.03" y="426.2469">Postular a oferta</text></g><!--link POSTULAR_OFERTA to BUSCAR_OFERTAS--><g id="link_POSTULAR_OFERTA_BUSCAR_OFERTAS"><path d="M418.05,459.93 C423,425.62 428.98,348.39 393.03,299.89 C383.31,286.78 374.5693,279.7827 359.7293,272.8727 " fill="#FFFFFF" fill-opacity="0.00000" id="POSTULAR_OFERTA-to-BUSCAR_OFERTAS" style="stroke:#FFFF00;stroke-width:1;"/><polygon fill="#FFFF00" points="354.29,270.34,360.7604,277.7652,358.8227,272.4506,364.1373,270.5129,354.29,270.34" style="stroke:#FFFF00;stroke-width:1;"/><text fill="#000000" font-family="sans-serif" font-size="13" lengthAdjust="spacing" textLength="151.29" x="421.03" y="369.5969">Volver a buscar ofertas</text></g><!--link POSTULAR_OFERTA to PAGINA_PRINCIPAL--><g id="link_POSTULAR_OFERTA_PAGINA_PRINCIPAL"><path d="M476.97,459.7 C514.25,445.54 558.68,421.55 581.03,383.18 C625.86,306.21 599.79,254.4 542.03,186.59 C530.88,173.5 520.9771,166.3745 505.1571,159.4545 " fill="#FFFFFF" fill-opacity="0.00000" id="POSTULAR_OFERTA-to-PAGINA_PRINCIPAL" style="stroke:#ADD8E6;stroke-width:1;"/><polygon fill="#ADD8E6" points="499.66,157.05,506.3026,164.3216,504.2409,159.0538,509.5087,156.9921,499.66,157.05" style="stroke:#ADD8E6;stroke-width:1;"/><text fill="#000000" font-family="sans-serif" font-size="13" lengthAdjust="spacing" textLength="112.728" x="604.03" y="312.9569">Regresar al inicio</text></g><!--SRC=[dP9DJiCm48NtFiMWBcWNlG0B92SALQIGHkcFX12gfkaq62mxijDIZiCPE48lXjEAnWsK1JlRy_JDUpE-Mj5QA88y2gSy7ILHVpS0GqMDgfG4EyRQ2azcz-bu0Br4bCzr83Va5JC-YbE-oF8u3UEC9nTamMmIydmnleloAPyuqGD9gTyynJpoomT6g0rAlzTuCfqb9yotR6I856FNa9F4GcX55YeZL24gbExSZvLmpx0Yi6J5_bF1EoZSKkdKxZPWnuGmVEm5Zl3wDBo5RYwuWKZL1W518bJxZr8eRDkm7te7EsPiQEVn7IlOs08Dw3MP6crZpR6N-A9PH-emxImQb3SdnvcJ1n6sqaeiNMRcg_vsCjTowo08opDBNK8xwSDqpZVXC9cszKPY0peIM5VpFnk_K4x_wyAUSYeDsSQA175O_HS0]--></g></svg>