<svg xmlns="http://www.w3.org/2000/svg" xmlns:xlink="http://www.w3.org/1999/xlink" contentStyleType="text/css" data-diagram-type="DESCRIPTION" height="275px" preserveAspectRatio="none" style="width:896px;height:275px;background:#FFFFFF;" version="1.1" viewBox="0 0 896 275" width="896px" zoomAndPan="magnify"><defs/><g><!--entity MENU_GESTIONAR_OFERTAS--><g id="elem_MENU_GESTIONAR_OFERTAS"><rect fill="#FFFF00" height="36.2969" rx="2.5" ry="2.5" style="stroke:#181818;stroke-width:0.5;" width="222.3643" x="317.73" y="7"/><text fill="#000000" font-family="sans-serif" font-size="14" lengthAdjust="spacing" textLength="202.3643" x="327.73" y="29.9951">MENU_GESTIONAR_OFERTAS</text></g><!--entity VER_OFERTAS--><g id="elem_VER_OFERTAS"><rect fill="#F08080" height="36.2969" rx="2.5" ry="2.5" style="stroke:#181818;stroke-width:0.5;" width="119.8115" x="369" y="120.3"/><text fill="#000000" font-family="sans-serif" font-size="14" lengthAdjust="spacing" textLength="99.8115" x="379" y="143.2951">VER_OFERTAS</text></g><!--entity ACEPTANDO_OFERTA--><g id="elem_ACEPTANDO_OFERTA"><rect fill="#FFFF00" height="36.2969" rx="2.5" ry="2.5" style="stroke:#181818;stroke-width:0.5;" width="169.8164" x="7" y="233.59"/><text fill="#000000" font-family="sans-serif" font-size="14" lengthAdjust="spacing" textLength="149.8164" x="17" y="256.5851">ACEPTANDO_OFERTA</text></g><!--entity CERRANDO_OFERTA--><g id="elem_CERRANDO_OFERTA"><rect fill="#98FB98" height="36.2969" rx="2.5" ry="2.5" style="stroke:#181818;stroke-width:0.5;" width="162.7002" x="237.56" y="233.59"/><text fill="#000000" font-family="sans-serif" font-size="14" lengthAdjust="spacing" textLength="142.7002" x="247.56" y="256.5851">CERRANDO_OFERTA</text></g><!--entity CANCELANDO_OFERTA--><g id="elem_CANCELANDO_OFERTA"><rect fill="#FFA07A" height="36.2969" rx="2.5" ry="2.5" style="stroke:#181818;stroke-width:0.5;" width="180.8701" x="478.47" y="233.59"/><text fill="#000000" font-family="sans-serif" font-size="14" lengthAdjust="spacing" textLength="160.8701" x="488.47" y="256.5851">CANCELANDO_OFERTA</text></g><!--entity NAVEGACION_MENUS--><g id="elem_NAVEGACION_MENUS"><rect fill="#87CEEB" height="36.2969" rx="2.5" ry="2.5" style="stroke:#181818;stroke-width:0.5;" width="171.8262" x="719" y="233.59"/><text fill="#000000" font-family="sans-serif" font-size="14" lengthAdjust="spacing" textLength="151.8262" x="729" y="256.5851">NAVEGACION_MENUS</text></g><!--link MENU_GESTIONAR_OFERTAS to VER_OFERTAS--><g id="link_MENU_GESTIONAR_OFERTAS_VER_OFERTAS"><path d="M428.91,43.54 C428.91,64.32 428.91,92.91 428.91,113.81 " fill="#FFFFFF" fill-opacity="0.00000" id="MENU_GESTIONAR_OFERTAS-to-VER_OFERTAS" style="stroke:#F08080;stroke-width:1;"/><polygon fill="#F08080" points="428.91,119.81,432.91,110.81,428.91,114.81,424.91,110.81,428.91,119.81" style="stroke:#F08080;stroke-width:1;"/><text fill="#000000" font-family="sans-serif" font-size="13" lengthAdjust="spacing" textLength="74.3564" x="429.91" y="86.3669">Ver Ofertas</text></g><!--link VER_OFERTAS to NAVEGACION_MENUS--><g id="link_VER_OFERTAS_NAVEGACION_MENUS"><path d="M489.07,142.4 C546.92,146.89 635.94,158.19 707.91,186.59 C736.45,197.86 760.5933,214.6389 779.3133,229.4389 " fill="#FFFFFF" fill-opacity="0.00000" id="VER_OFERTAS-to-NAVEGACION_MENUS" style="stroke:#87CEEB;stroke-width:1;"/><polygon fill="#87CEEB" points="784.02,233.16,779.4407,224.4405,780.0977,230.0591,774.4792,230.7161,784.02,233.16" style="stroke:#87CEEB;stroke-width:1;"/><text fill="#000000" font-family="sans-serif" font-size="13" lengthAdjust="spacing" textLength="94.707" x="739.91" y="199.6569">Cambiar Men&#250;</text></g><!--link VER_OFERTAS to ACEPTANDO_OFERTA--><g id="link_VER_OFERTAS_ACEPTANDO_OFERTA"><path d="M368.75,142.5 C265.85,148.35 65.05,162.7 43.91,186.59 C30.63,201.59 42.7186,216.3591 59.9986,229.6091 " fill="#FFFFFF" fill-opacity="0.00000" id="VER_OFERTAS-to-ACEPTANDO_OFERTA" style="stroke:#FFFF00;stroke-width:1;"/><polygon fill="#FFFF00" points="64.76,233.26,60.0519,224.6093,60.7922,230.2176,55.184,230.9578,64.76,233.26" style="stroke:#FFFF00;stroke-width:1;"/><text fill="#000000" font-family="sans-serif" font-size="13" lengthAdjust="spacing" textLength="96.0464" x="44.91" y="199.6569">Aceptar Oferta</text></g><!--link ACEPTANDO_OFERTA to VER_OFERTAS--><g id="link_ACEPTANDO_OFERTA_VER_OFERTAS"><path d="M118.98,233.11 C142.24,218.68 177.11,198.75 209.91,186.59 C261.87,167.33 317.9168,155.8572 362.6568,148.6272 " fill="#FFFFFF" fill-opacity="0.00000" id="ACEPTANDO_OFERTA-to-VER_OFERTAS" style="stroke:#F08080;stroke-width:1;"/><polygon fill="#F08080" points="368.58,147.67,359.0571,145.157,363.644,148.4677,360.3334,153.0545,368.58,147.67" style="stroke:#F08080;stroke-width:1;"/><text fill="#000000" font-family="sans-serif" font-size="13" lengthAdjust="spacing" textLength="74.3564" x="210.91" y="199.6569">Ver Ofertas</text></g><!--link VER_OFERTAS to CERRANDO_OFERTA--><g id="link_VER_OFERTAS_CERRANDO_OFERTA"><path d="M368.69,145.74 C342.44,151.82 314.03,163.65 297.91,186.59 C288.07,200.59 293.0081,214.4606 301.8881,228.1106 " fill="#FFFFFF" fill-opacity="0.00000" id="VER_OFERTAS-to-CERRANDO_OFERTA" style="stroke:#98FB98;stroke-width:1;"/><polygon fill="#98FB98" points="305.16,233.14,303.6051,223.4147,302.4334,228.9488,296.8993,227.7772,305.16,233.14" style="stroke:#98FB98;stroke-width:1;"/><text fill="#000000" font-family="sans-serif" font-size="13" lengthAdjust="spacing" textLength="86.4233" x="298.91" y="199.6569">Cerrar Oferta</text></g><!--link CERRANDO_OFERTA to VER_OFERTAS--><g id="link_CERRANDO_OFERTA_VER_OFERTAS"><path d="M351.56,233.24 C364.47,225.31 378.84,215.12 389.91,203.59 C403.18,189.78 411.3898,176.0481 418.2598,162.2881 " fill="#FFFFFF" fill-opacity="0.00000" id="CERRANDO_OFERTA-to-VER_OFERTAS" style="stroke:#F08080;stroke-width:1;"/><polygon fill="#F08080" points="420.94,156.92,413.341,163.1854,418.7065,161.3934,420.4985,166.759,420.94,156.92" style="stroke:#F08080;stroke-width:1;"/><text fill="#000000" font-family="sans-serif" font-size="13" lengthAdjust="spacing" textLength="74.3564" x="403.91" y="199.6569">Ver Ofertas</text></g><!--link VER_OFERTAS to CANCELANDO_OFERTA--><g id="link_VER_OFERTAS_CANCELANDO_OFERTA"><path d="M451.09,157.08 C477.31,177.92 515.9638,208.6456 542.1338,229.4556 " fill="#FFFFFF" fill-opacity="0.00000" id="VER_OFERTAS-to-CANCELANDO_OFERTA" style="stroke:#FFA07A;stroke-width:1;"/><polygon fill="#FFA07A" points="546.83,233.19,542.2752,224.4576,542.9165,230.078,537.2961,230.7193,546.83,233.19" style="stroke:#FFA07A;stroke-width:1;"/><text fill="#000000" font-family="sans-serif" font-size="13" lengthAdjust="spacing" textLength="102.6987" x="508.91" y="199.6569">Cancelar Oferta</text></g><!--link CANCELANDO_OFERTA to VER_OFERTAS--><g id="link_CANCELANDO_OFERTA_VER_OFERTAS"><path d="M598.03,233.1 C615.55,220.24 632.28,202.39 619.91,186.59 C603.8,166.02 544.6617,154.0347 494.9017,147.0447 " fill="#FFFFFF" fill-opacity="0.00000" id="CANCELANDO_OFERTA-to-VER_OFERTAS" style="stroke:#F08080;stroke-width:1;"/><polygon fill="#F08080" points="488.96,146.21,497.3161,151.4231,493.9114,146.9055,498.4289,143.5009,488.96,146.21" style="stroke:#F08080;stroke-width:1;"/><text fill="#000000" font-family="sans-serif" font-size="13" lengthAdjust="spacing" textLength="74.3564" x="624.91" y="199.6569">Ver Ofertas</text></g><!--SRC=[bP7HJeCm58RlUOhZlD1Tx0MyCAcr8oOC5fXBZ36aOsU8TeKKYFFLlFN5R959rsdCxaZwV-USx-TiZPj28iICBaZe1-noDmQ5MSDbBX1sdZUyp5Xud_eiMTn58OdJQChY1Kd6SFw0GfHltWKaxMhJogme9TQmHXX56rGDhqVMb2MpqQ38dnjQAYwi2A5ihZzlepuuh1WobCNnOMJE1VeAKTef4b8M7EQwbGaNsz9EXcJ9V4ArMceypMt9w_kDQD7JObFHlfHGgKBBLVhMtwk0oQCbz3Iv1aiMhc292lf6FFj5O_qkmxYNQ93oxQhW2cOeFp_CFIJhI-PGSTKKgclRcZzo5tmNQEQxxUhv9CEguNlOHN-ADRJJkpaEbVgJjShkQFT_T78oGp5Cq7envWhhKalLseiFieUAHoOdzEzwd88UIVm3s_GN]--></g></svg>