<svg xmlns="http://www.w3.org/2000/svg" xmlns:xlink="http://www.w3.org/1999/xlink" contentStyleType="text/css" height="2109px" preserveAspectRatio="none" style="width:520px;height:2109px;background:#FFFFFF;" version="1.1" viewBox="0 0 520 2109" width="520px" zoomAndPan="magnify"><defs/><g><!--cluster Aplicacion--><g id="cluster_Aplicacion"><path d="M100.19,6 L182.0728,6 A3.75,3.75 0 0 1 184.5728,8.5 L191.5728,28.2969 L511.01,28.2969 A2.5,2.5 0 0 1 513.51,30.7969 L513.51,2099.5 A2.5,2.5 0 0 1 511.01,2102 L100.19,2102 A2.5,2.5 0 0 1 97.69,2099.5 L97.69,8.5 A2.5,2.5 0 0 1 100.19,6 " fill="none" style="stroke:#000000;stroke-width:1.5;"/><line style="stroke:#000000;stroke-width:1.5;" x1="97.69" x2="191.5728" y1="28.2969" y2="28.2969"/><text fill="#000000" font-family="sans-serif" font-size="14" font-weight="bold" lengthAdjust="spacing" textLength="80.8828" x="101.69" y="20.9951">Aplicacion</text></g><!--cluster Sistema de Publicaciones--><g id="cluster_Sistema de Publicaciones"><rect fill="none" height="490" rx="2.5" ry="2.5" style="stroke:#181818;stroke-width:1.0;" width="242.02" x="184.59" y="330"/><text fill="#000000" font-family="sans-serif" font-size="14" font-weight="bold" lengthAdjust="spacing" textLength="200.8057" x="205.1972" y="344.9951">Sistema de Publicaciones</text></g><!--cluster Gesti?n de Usuarios--><g id="cluster_Gesti&#243;n de Usuarios"><rect fill="none" height="504" rx="2.5" ry="2.5" style="stroke:#181818;stroke-width:1.0;" width="351.82" x="129.69" y="1210"/><text fill="#000000" font-family="sans-serif" font-size="14" font-weight="bold" lengthAdjust="spacing" textLength="158.4297" x="226.3852" y="1224.9951">Gesti&#243;n de Usuarios</text></g><!--cluster Gesti?n de Contenido--><g id="cluster_Gesti&#243;n de Contenido"><rect fill="none" height="316" rx="2.5" ry="2.5" style="stroke:#181818;stroke-width:1.0;" width="326.01" x="142.59" y="1754"/><text fill="#000000" font-family="sans-serif" font-size="14" font-weight="bold" lengthAdjust="spacing" textLength="170.1123" x="220.5388" y="1768.9951">Gesti&#243;n de Contenido</text></g><!--cluster Comunidad y Notificaciones--><g id="cluster_Comunidad y Notificaciones"><rect fill="none" height="310" rx="2.5" ry="2.5" style="stroke:#181818;stroke-width:1.0;" width="304.51" x="153.34" y="860"/><text fill="#000000" font-family="sans-serif" font-size="14" font-weight="bold" lengthAdjust="spacing" textLength="219.5498" x="195.8201" y="874.9951">Comunidad y Notificaciones</text></g><g id="elem_GMN27"><path d="M156.92,265.87 L156.92,306.1356 L454.2652,306.1356 L454.2652,275.87 L444.2652,265.87 L156.92,265.87 " fill="#FEFFDD" style="stroke:#181818;stroke-width:0.5;"/><path d="M444.2652,265.87 L444.2652,275.87 L454.2652,275.87 L444.2652,265.87 " fill="#FEFFDD" style="stroke:#181818;stroke-width:1.0;"/><text fill="#000000" font-family="sans-serif" font-size="13" lengthAdjust="spacing" textLength="276.3452" x="162.92" y="282.9369">Administraci&#243;n de membres&#237;a de grupos y</text><text fill="#000000" font-family="sans-serif" font-size="13" lengthAdjust="spacing" textLength="177.1885" x="162.92" y="298.0697">notificaciones importantes.</text></g><g id="elem_GMN30"><path d="M175.79,190.87 L175.79,231.1356 L435.4111,231.1356 L435.4111,200.87 L425.4111,190.87 L175.79,190.87 " fill="#FEFFDD" style="stroke:#181818;stroke-width:0.5;"/><path d="M425.4111,190.87 L425.4111,200.87 L435.4111,200.87 L425.4111,190.87 " fill="#FEFFDD" style="stroke:#181818;stroke-width:1.0;"/><text fill="#000000" font-family="sans-serif" font-size="13" lengthAdjust="spacing" textLength="238.6211" x="181.79" y="207.9369">Controles de revisi&#243;n de contenido y</text><text fill="#000000" font-family="sans-serif" font-size="13" lengthAdjust="spacing" textLength="184.4121" x="181.79" y="223.0697">moderaci&#243;n de expresiones.</text></g><g id="elem_GMN33"><path d="M168.6,115.87 L168.6,156.1356 L442.6049,156.1356 L442.6049,125.87 L432.6049,115.87 L168.6,115.87 " fill="#FEFFDD" style="stroke:#181818;stroke-width:0.5;"/><path d="M432.6049,115.87 L432.6049,125.87 L442.6049,125.87 L432.6049,115.87 " fill="#FEFFDD" style="stroke:#181818;stroke-width:1.0;"/><text fill="#000000" font-family="sans-serif" font-size="13" lengthAdjust="spacing" textLength="253.0049" x="174.6" y="132.9369">Funciones de registro y administraci&#243;n</text><text fill="#000000" font-family="sans-serif" font-size="13" lengthAdjust="spacing" textLength="148.6177" x="174.6" y="148.0697">de cuentas de usuario.</text></g><g id="elem_GMN36"><path d="M168.06,40.87 L168.06,81.1356 L443.1376,81.1356 L443.1376,50.87 L433.1376,40.87 L168.06,40.87 " fill="#FEFFDD" style="stroke:#181818;stroke-width:0.5;"/><path d="M433.1376,40.87 L433.1376,50.87 L443.1376,50.87 L433.1376,40.87 " fill="#FEFFDD" style="stroke:#181818;stroke-width:1.0;"/><text fill="#000000" font-family="sans-serif" font-size="13" lengthAdjust="spacing" textLength="249.9453" x="174.06" y="57.9369">Sistema de gesti&#243;n de publicaciones y</text><text fill="#000000" font-family="sans-serif" font-size="13" lengthAdjust="spacing" textLength="241.9473" x="174.06" y="73.0697">contenido generado por los usuarios.</text></g><g id="elem_UC_U1"><ellipse cx="305.6043" cy="472.9967" fill="#F1F1F1" rx="59.2643" ry="14.7667" style="stroke:#181818;stroke-width:0.5;"/><text fill="#000000" font-family="sans-serif" font-size="14" lengthAdjust="spacing" textLength="65.9258" x="269.6414" y="476.7443">Ver posts</text></g><g id="elem_UC_U2"><ellipse cx="305.5983" cy="407.9957" fill="#F1F1F1" rx="65.5783" ry="15.5157" style="stroke:#181818;stroke-width:0.5;"/><text fill="#000000" font-family="sans-serif" font-size="14" lengthAdjust="spacing" textLength="80.459" x="262.3688" y="411.7432">Crear posts</text></g><g id="elem_UC_U3"><ellipse cx="305.6012" cy="619.0002" fill="#F1F1F1" rx="93.4012" ry="21.0802" style="stroke:#181818;stroke-width:0.5;"/><text fill="#000000" font-family="sans-serif" font-size="14" lengthAdjust="spacing" textLength="149.3994" x="230.9014" y="621.8469">Interactuar con posts</text></g><g id="elem_UC_U4"><ellipse cx="305.5983" cy="543.0037" fill="#F1F1F1" rx="88.0683" ry="20.0137" style="stroke:#181818;stroke-width:0.5;"/><text fill="#000000" font-family="sans-serif" font-size="14" lengthAdjust="spacing" textLength="137.3545" x="236.9211" y="545.8503">Reportar Contenido</text></g><g id="elem_UC_M1"><ellipse cx="305.5966" cy="775.0033" fill="#F1F1F1" rx="94.6666" ry="21.3333" style="stroke:#181818;stroke-width:0.5;"/><text fill="#000000" font-family="sans-serif" font-size="14" lengthAdjust="spacing" textLength="152.2295" x="229.4818" y="777.85">Revisar publicaciones</text></g><g id="elem_UC_M2"><ellipse cx="305.5999" cy="697.002" fill="#F1F1F1" rx="97.0099" ry="21.802" style="stroke:#181818;stroke-width:0.5;"/><text fill="#000000" font-family="sans-serif" font-size="14" lengthAdjust="spacing" textLength="157.4453" x="226.8772" y="699.8487">Eliminar publicaciones</text></g><g id="elem_UC_U5"><ellipse cx="305.605" cy="1287.997" fill="#F1F1F1" rx="65.385" ry="15.477" style="stroke:#181818;stroke-width:0.5;"/><text fill="#000000" font-family="sans-serif" font-size="14" lengthAdjust="spacing" textLength="79.8984" x="262.6558" y="1291.7446">Registrarse</text></g><g id="elem_UC_U6"><ellipse cx="305.5992" cy="1423.0038" fill="#F1F1F1" rx="69.6192" ry="16.3238" style="stroke:#181818;stroke-width:0.5;"/><text fill="#000000" font-family="sans-serif" font-size="14" lengthAdjust="spacing" textLength="91.793" x="256.7027" y="1426.7514">Iniciar sesi&#243;n</text></g><g id="elem_UC_U7"><ellipse cx="305.6028" cy="1354.9986" fill="#F1F1F1" rx="70.1428" ry="16.4286" style="stroke:#181818;stroke-width:0.5;"/><text fill="#000000" font-family="sans-serif" font-size="14" lengthAdjust="spacing" textLength="93.2148" x="255.9953" y="1358.7461">Cerrar sesi&#243;n</text></g><g id="elem_UC_M3"><ellipse cx="305.6046" cy="1494.0029" fill="#F1F1F1" rx="88.4646" ry="20.0929" style="stroke:#181818;stroke-width:0.5;"/><text fill="#000000" font-family="sans-serif" font-size="14" lengthAdjust="spacing" textLength="138.2568" x="236.4762" y="1496.8496">Suspender usuarios</text></g><g id="elem_UC_M4"><ellipse cx="305.6" cy="1657.002" fill="#F1F1F1" rx="151.91" ry="32.782" style="stroke:#181818;stroke-width:0.5;"/><text fill="#000000" font-family="sans-serif" font-size="14" lengthAdjust="spacing" textLength="274.4561" x="168.372" y="1659.8487">Desbloquear usuarios/borrar sanciones</text></g><g id="elem_UC_M5"><ellipse cx="305.6046" cy="1568.9989" fill="#F1F1F1" rx="88.8946" ry="20.1789" style="stroke:#181818;stroke-width:0.5;"/><text fill="#000000" font-family="sans-serif" font-size="14" lengthAdjust="spacing" textLength="139.2344" x="235.9874" y="1571.8456">Enviar advertencias</text></g><g id="elem_UC_M6"><ellipse cx="305.597" cy="1847.0014" fill="#F1F1F1" rx="139.007" ry="30.2014" style="stroke:#181818;stroke-width:0.5;"/><text fill="#000000" font-family="sans-serif" font-size="14" lengthAdjust="spacing" textLength="247.5225" x="181.8358" y="1849.8481">Responder a reportes de contenido</text></g><g id="elem_UC_M7"><ellipse cx="305.6023" cy="2025.0005" fill="#F1F1F1" rx="90.8023" ry="20.5605" style="stroke:#181818;stroke-width:0.5;"/><text fill="#000000" font-family="sans-serif" font-size="14" lengthAdjust="spacing" textLength="143.5547" x="233.8249" y="2027.8471">Revisar comentarios</text></g><g id="elem_UC_M8"><ellipse cx="305.5985" cy="1940.9977" fill="#F1F1F1" rx="130.5885" ry="28.5177" style="stroke:#181818;stroke-width:0.5;"/><text fill="#000000" font-family="sans-serif" font-size="14" lengthAdjust="spacing" textLength="229.8174" x="190.6899" y="1943.8444">Bloquear palabras o expresiones</text></g><g id="elem_UC_U8"><ellipse cx="305.5962" cy="944.0032" fill="#F1F1F1" rx="95.3162" ry="21.4632" style="stroke:#181818;stroke-width:0.5;"/><text fill="#000000" font-family="sans-serif" font-size="14" lengthAdjust="spacing" textLength="153.6787" x="228.7569" y="946.8499">Entrar/Salir de grupos</text></g><g id="elem_UC_U9"><ellipse cx="305.5966" cy="1029.0013" fill="#F1F1F1" rx="128.2566" ry="28.0513" style="stroke:#181818;stroke-width:0.5;"/><text fill="#000000" font-family="sans-serif" font-size="14" lengthAdjust="spacing" textLength="171.7051" x="214.5189" y="1024.6004">Recibir notificaciones de</text><text fill="#000000" font-family="sans-serif" font-size="14" lengthAdjust="spacing" textLength="137.0742" x="234.0594" y="1040.8973">Anuncios o Eventos</text></g><g id="elem_UC_M9"><ellipse cx="305.6004" cy="1118.9961" fill="#F1F1F1" rx="124.0304" ry="27.2061" style="stroke:#181818;stroke-width:0.5;"/><text fill="#000000" font-family="sans-serif" font-size="14" lengthAdjust="spacing" textLength="215.9336" x="197.6336" y="1121.8428">Comunicar cambios de pol&#237;tica</text></g><!--entity Usuario--><g id="elem_Usuario"><ellipse cx="43.8421" cy="914.35" fill="#F1F1F1" rx="8" ry="8" style="stroke:#181818;stroke-width:0.5;"/><path d="M43.8421,922.35 L43.8421,949.35 M30.8421,930.35 L56.8421,930.35 M43.8421,949.35 L30.8421,964.35 M43.8421,949.35 L56.8421,964.35 " fill="none" style="stroke:#181818;stroke-width:0.5;"/><text fill="#000000" font-family="sans-serif" font-size="14" lengthAdjust="spacing" textLength="53.2041" x="17.24" y="978.8451">Usuario</text></g><!--entity Moderador--><g id="elem_Moderador"><ellipse cx="43.8438" cy="1539.35" fill="#F1F1F1" rx="8" ry="8" style="stroke:#181818;stroke-width:0.5;"/><path d="M43.8438,1547.35 L43.8438,1574.35 M30.8438,1555.35 L56.8438,1555.35 M43.8438,1574.35 L30.8438,1589.35 M43.8438,1574.35 L56.8438,1589.35 " fill="none" style="stroke:#181818;stroke-width:0.5;"/><text fill="#000000" font-family="sans-serif" font-size="14" lengthAdjust="spacing" textLength="75.6875" x="6" y="1603.8451">Moderador</text></g><!--link GMN27 to Comunidad y Notificaciones--><g id="link_GMN27_Comunidad y Notificaciones"><path d="M156.62,287.34 C131.84,293.75 108.22,304.54 89.69,322 C83.88,327.47 86.58,331.57 85.69,339.5 C82.85,364.62 82.85,769.38 85.69,794.5 C86.58,802.43 84.36,806.06 89.69,812 C105.975,830.175 126.8963,843.9456 149.2863,854.3792 C152.085,855.6834 154.9067,856.9355 157.7452,858.1375 C159.1644,858.7385 160.5878,859.327 162.0147,859.9032 " fill="none" id="GMN27-Comunidad y Notificaciones" style="stroke:#181818;stroke-width:1.0;stroke-dasharray:7.0,7.0;"/></g><!--link GMN30 to Gesti?n de Contenido--><g id="link_GMN30_Gesti&#243;n de Contenido"><path d="M175.31,208.97 C143.93,214.58 112.82,226.11 89.69,248 C83.89,253.48 86.58,257.57 85.69,265.5 C81.26,304.78 81.26,1649.22 85.69,1688.5 C86.58,1696.43 84.36,1700.06 89.69,1706 C105.975,1724.175 126.8963,1737.9456 149.2863,1748.3792 C152.085,1749.6834 154.9067,1750.9355 157.7452,1752.1375 C159.1644,1752.7385 160.5878,1753.327 162.0147,1753.9032 " fill="none" id="GMN30-Gesti&#243;n de Contenido" style="stroke:#181818;stroke-width:1.0;stroke-dasharray:7.0,7.0;"/></g><!--link GMN33 to Gesti?n de Usuarios--><g id="link_GMN33_Gesti&#243;n de Usuarios"><path d="M168.29,135.33 C139.33,141.36 111.09,152.74 89.69,173 C83.89,178.48 86.58,182.57 85.69,190.5 C82.72,216.83 82.72,1118.17 85.69,1144.5 C86.58,1152.43 84.36,1156.06 89.69,1162 C105.975,1180.175 126.8963,1193.9456 149.2863,1204.3792 C152.085,1205.6834 154.9067,1206.9355 157.7452,1208.1375 C159.1644,1208.7385 160.5878,1209.327 162.0147,1209.9032 " fill="none" id="GMN33-Gesti&#243;n de Usuarios" style="stroke:#181818;stroke-width:1.0;stroke-dasharray:7.0,7.0;"/></g><!--link GMN36 to Sistema de Publicaciones--><g id="link_GMN36_Sistema de Publicaciones"><path d="M167.73,60.45 C138.96,66.5 110.96,77.87 89.69,98 C83.89,103.48 86.58,107.57 85.69,115.5 C82.95,139.79 82.95,311.21 85.69,335.5 C86.58,343.43 83.5,347.97 89.69,353 C98.6375,360.27 115.7469,364.2781 136.5802,366.172 C146.9968,367.119 158.3444,367.5374 170.0683,367.5707 C172.9992,367.579 175.9537,367.5633 178.923,367.5257 C180.4077,367.5069 181.8961,367.4827 183.3871,367.4532 C183.7598,367.4459 184.1327,367.4382 184.5058,367.4302 " fill="none" id="GMN36-Sistema de Publicaciones" style="stroke:#181818;stroke-width:1.0;stroke-dasharray:7.0,7.0;"/></g><!--link Usuario to UC_U1--><g id="link_Usuario_UC_U1"><path d="M46.12,905.43 C49.86,803.66 62.27,533.71 89.69,505 C131.76,460.94 200.312,459.1212 249.592,464.2312 " fill="none" id="Usuario-to-UC_U1" style="stroke:#181818;stroke-width:1.0;"/><polygon fill="#181818" points="255.56,464.85,247.0206,459.9431,250.5867,464.3343,246.1954,467.9004,255.56,464.85" style="stroke:#181818;stroke-width:1.0;"/></g><!--link Usuario to UC_U2--><g id="link_Usuario_UC_U2"><path d="M45.59,905.57 C48.12,793.8 58.08,474.68 89.69,441 C129.86,398.2 194.5423,394.7034 243.8323,398.9634 " fill="none" id="Usuario-to-UC_U2" style="stroke:#181818;stroke-width:1.0;"/><polygon fill="#181818" points="249.81,399.48,241.1879,394.7199,244.8286,399.0495,240.499,402.6902,249.81,399.48" style="stroke:#181818;stroke-width:1.0;"/></g><!--link Usuario to UC_U3--><g id="link_Usuario_UC_U3"><path d="M45.54,905.51 C47.63,835.76 56.03,692.48 89.69,658 C121.94,624.97 166.1254,614.7847 209.8954,612.9247 " fill="none" id="Usuario-to-UC_U3" style="stroke:#181818;stroke-width:1.0;"/><polygon fill="#181818" points="215.89,612.67,206.7283,609.0557,210.8945,612.8823,207.0679,617.0485,215.89,612.67" style="stroke:#181818;stroke-width:1.0;"/></g><!--link Usuario to UC_U4--><g id="link_Usuario_UC_U4"><path d="M44.03,905.35 C43.11,821.35 45.87,625.97 89.69,580 C123.52,544.51 172.1101,535.4968 217.8101,535.2168 " fill="none" id="Usuario-to-UC_U4" style="stroke:#181818;stroke-width:1.0;"/><polygon fill="#181818" points="223.81,535.18,214.7857,531.2352,218.8101,535.2106,214.8347,539.2351,223.81,535.18" style="stroke:#181818;stroke-width:1.0;"/></g><!--link Usuario to UC_U5--><g id="link_Usuario_UC_U5"><path d="M44.42,982.55 C44.44,1060.01 49.21,1230.46 89.69,1269 C134.04,1311.23 203.487,1308.2881 252.157,1299.9081 " fill="none" id="Usuario-to-UC_U5" style="stroke:#181818;stroke-width:1.0;"/><polygon fill="#181818" points="258.07,1298.89,248.5218,1296.4752,253.1425,1299.7384,249.8792,1304.3591,258.07,1298.89" style="stroke:#181818;stroke-width:1.0;"/></g><!--link Usuario to UC_U6--><g id="link_Usuario_UC_U6"><path d="M46.07,982.34 C49.71,1084.89 61.99,1359.69 89.69,1389 C128.74,1430.32 190.1638,1435.2162 239.0938,1431.8962 " fill="none" id="Usuario-to-UC_U6" style="stroke:#181818;stroke-width:1.0;"/><polygon fill="#181818" points="245.08,1431.49,235.8299,1428.1084,240.0915,1431.8285,236.3714,1436.0901,245.08,1431.49" style="stroke:#181818;stroke-width:1.0;"/></g><!--link Usuario to UC_U7--><g id="link_Usuario_UC_U7"><path d="M46.81,982.35 C51.85,1073.41 66.47,1296.87 89.69,1321 C128.84,1361.69 189.5719,1366.8285 238.3019,1363.7485 " fill="none" id="Usuario-to-UC_U7" style="stroke:#181818;stroke-width:1.0;"/><polygon fill="#181818" points="244.29,1363.37,235.0556,1359.9457,239.3,1363.6854,235.5602,1367.9297,244.29,1363.37" style="stroke:#181818;stroke-width:1.0;"/></g><!--link Usuario to UC_U8--><g id="link_Usuario_UC_U8"><path d="M70.7,944 C103.04,944 154.2,944 203.92,944 " fill="none" id="Usuario-to-UC_U8" style="stroke:#181818;stroke-width:1.0;"/><polygon fill="#181818" points="209.92,944,200.92,940,204.92,944,200.92,948,209.92,944" style="stroke:#181818;stroke-width:1.0;"/></g><!--link Usuario to UC_U9--><g id="link_Usuario_UC_U9"><path d="M70.74,970.33 C76.59,975.14 83.04,979.68 89.69,983 C121.09,998.69 151.7976,1007.858 185.7876,1014.688 " fill="none" id="Usuario-to-UC_U9" style="stroke:#181818;stroke-width:1.0;"/><polygon fill="#181818" points="191.67,1015.87,183.6344,1010.1754,186.768,1014.885,182.0584,1018.0186,191.67,1015.87" style="stroke:#181818;stroke-width:1.0;"/></g><!--link Moderador to UC_M1--><g id="link_Moderador_UC_M1"><path d="M47.49,1530.37 C53.75,1438.48 69.83,1199.61 81.69,1000 C82.66,983.56 79.85,865.21 89.69,852 C119.58,811.88 166.3787,793.7873 212.0987,784.5573 " fill="none" id="Moderador-to-UC_M1" style="stroke:#181818;stroke-width:1.0;"/><polygon fill="#181818" points="217.98,783.37,208.3664,781.2301,213.0789,784.3594,209.9495,789.0719,217.98,783.37" style="stroke:#181818;stroke-width:1.0;"/></g><!--link Moderador to UC_M2--><g id="link_Moderador_UC_M2"><path d="M47.8,1530.39 C54.74,1438.53 72.2,1199.74 81.69,1000 C82.38,985.34 80.11,747.12 89.69,736 C119.93,700.87 164.3028,690.5838 208.6728,689.2238 " fill="none" id="Moderador-to-UC_M2" style="stroke:#181818;stroke-width:1.0;"/><polygon fill="#181818" points="214.67,689.04,205.5517,685.3176,209.6723,689.1932,205.7968,693.3139,214.67,689.04" style="stroke:#181818;stroke-width:1.0;"/></g><!--link Moderador to UC_M3--><g id="link_Moderador_UC_M3"><path d="M82.03,1535.14 C84.54,1533.61 87.1,1532.21 89.69,1531 C129.83,1512.26 172.1984,1503.6074 212.8584,1498.9874 " fill="none" id="Moderador-to-UC_M3" style="stroke:#181818;stroke-width:1.0;"/><polygon fill="#181818" points="218.82,1498.31,209.4259,1495.3517,213.852,1498.8745,210.3291,1503.3005,218.82,1498.31" style="stroke:#181818;stroke-width:1.0;"/></g><!--link Moderador to UC_M4--><g id="link_Moderador_UC_M4"><path d="M82.12,1602.68 C84.6,1604.26 87.13,1605.72 89.69,1607 C117.41,1620.94 143.2775,1629.6523 173.6475,1636.9823 " fill="none" id="Moderador-to-UC_M4" style="stroke:#181818;stroke-width:1.0;"/><polygon fill="#181818" points="179.48,1638.39,171.6697,1632.3901,174.6196,1637.2169,169.7927,1640.1668,179.48,1638.39" style="stroke:#181818;stroke-width:1.0;"/></g><!--link Moderador to UC_M5--><g id="link_Moderador_UC_M5"><path d="M82.06,1569 C116.99,1569 164.58,1569 210.42,1569 " fill="none" id="Moderador-to-UC_M5" style="stroke:#181818;stroke-width:1.0;"/><polygon fill="#181818" points="216.42,1569,207.42,1565,211.42,1569,207.42,1573,216.42,1569" style="stroke:#181818;stroke-width:1.0;"/></g><!--link Moderador to UC_M6--><g id="link_Moderador_UC_M6"><path d="M46.64,1607.48 C50.33,1668.9 61.01,1785.03 89.69,1813 C110.51,1833.31 132.3653,1843.3096 160.9753,1848.9996 " fill="none" id="Moderador-to-UC_M6" style="stroke:#181818;stroke-width:1.0;"/><polygon fill="#181818" points="166.86,1850.17,158.8131,1844.4913,161.956,1849.1947,157.2526,1852.3376,166.86,1850.17" style="stroke:#181818;stroke-width:1.0;"/></g><!--link Moderador to UC_M7--><g id="link_Moderador_UC_M7"><path d="M46.37,1607.46 C50.63,1705.61 64.03,1959.53 89.69,1987 C122.47,2022.1 169.471,2031.6424 214.641,2032.4524 " fill="none" id="Moderador-to-UC_M7" style="stroke:#181818;stroke-width:1.0;"/><polygon fill="#181818" points="220.64,2032.56,211.7132,2028.3993,215.6408,2032.4704,211.5697,2036.398,220.64,2032.56" style="stroke:#181818;stroke-width:1.0;"/></g><!--link Moderador to UC_M8--><g id="link_Moderador_UC_M8"><path d="M44.8,1607.57 C45.54,1684.67 51.59,1853.97 89.69,1895 C111.88,1918.91 137.3618,1930.7291 169.2618,1937.5291 " fill="none" id="Moderador-to-UC_M8" style="stroke:#181818;stroke-width:1.0;"/><polygon fill="#181818" points="175.13,1938.78,167.1617,1932.9916,170.2399,1937.7376,165.4938,1940.8158,175.13,1938.78" style="stroke:#181818;stroke-width:1.0;"/></g><!--link Moderador to UC_M9--><g id="link_Moderador_UC_M9"><path d="M44.68,1530.64 C45.08,1447.17 50.33,1252.51 89.69,1202 C117.22,1166.66 156.0244,1147.9855 197.4544,1136.3255 " fill="none" id="Moderador-to-UC_M9" style="stroke:#181818;stroke-width:1.0;"/><polygon fill="#181818" points="203.23,1134.7,193.4829,1133.2878,198.417,1136.0546,195.6502,1140.9886,203.23,1134.7" style="stroke:#181818;stroke-width:1.0;"/></g><!--SRC=[ZLLDZzCm4BtdLupslgpeToz8fHJ4eGXjLKv8o76cmIAnW-rKh10_QK_yXFrZZDqaRMAteeTMVNbZl_Tcx1Hui60LQ95_jv09ZTmA9PE4SQiqx4tDj53DlwtAKBDCwIIf6F_1SeHLLGZEE9N0xoG10Fy5RXacymBXRYUCnP91Xl2vJbiscZigWEPJ6-JC4FaBQgYKiVIK6TYll-rVXwIrHZQaZKBQHsb9BRVa03ZfwnUCmu97h9Isn5uhAfKYKnrx4cCVXN4w-gPE1Tk8x4qXIY6lLfmS_4c203-WiUBbhtG9Dls8X_U8EMMjcJRO2P_6SX5Sa0o3nYtRKMUHf57h27CUCdUrgL3IU13KIcoCHP9-XoOjrC_QzR7bFwJgj1cJWsGYuM_aqLbWsH4rjOhydEdJ9aZmlpVZl6XqD4zJAU-9qG9kDj2uAZuSZ-ti-dXmLQAq_KGY-RrjuwXOmL9DH0NugzAKV2-BHMzA0dDhLTQaZ6Nm19-K5OVRnsqZtRWyx5WXj7EMwxewwzmlOhQuI8aiUukxsgzo9MlNEYTzSoJJ5oij8xFbfN8N4IjJLqQBLAfuURQ4TeQNhM7Q4Uccga0TRlhq_5L6HyqV1jxskiGofJXVdjdPAJnvzi2CAFqzG4qsh_np6cp7mRw6-23v0lTNg-8KZ7QJq1AxsMcsBlsLsecyQFd_RjrT2Px_lfRdbkZJXK1xqKdf1UAvJaxjXjEJctCus1Pw-rwzottHnTFyGc3lkYCfddlE8KVfNohKUmq5zQIz40PAt8V6eB4Bz_TlclV341a5o3X09W4o3P1PWCm3P14WIvBPlITRb5u78JQAOEC8DebWqmWsYs3p2BQ8OCj_]--></g></svg>