<svg xmlns="http://www.w3.org/2000/svg" xmlns:xlink="http://www.w3.org/1999/xlink" contentStyleType="text/css" data-diagram-type="DESCRIPTION" height="958px" preserveAspectRatio="none" style="width:366px;height:958px;background:#FFFFFF;" version="1.1" viewBox="0 0 366 958" width="366px" zoomAndPan="magnify"><defs/><g><!--cluster Cancelar Ofertas de Trabajo--><g id="cluster_Cancelar Ofertas de Trabajo"><rect fill="none" height="807" rx="2.5" ry="2.5" style="stroke:#181818;stroke-width:1;" width="237" x="7" y="7"/><text fill="#000000" font-family="sans-serif" font-size="14" font-weight="bold" lengthAdjust="spacing" textLength="221.4229" x="14.7886" y="21.9951">Cancelar Ofertas de Trabajo</text></g><g id="elem_IS"><ellipse cx="142.9959" cy="58.4412" fill="#F1F1F1" rx="70.2059" ry="16.4412" style="stroke:#181818;stroke-width:0.5;"/><text fill="#000000" font-family="sans-serif" font-size="14" lengthAdjust="spacing" textLength="93.3857" x="93.303" y="62.1887">Iniciar Sesi&#243;n</text></g><g id="elem_GO"><ellipse cx="140.0041" cy="190.0308" fill="#F1F1F1" rx="82.3041" ry="18.8608" style="stroke:#181818;stroke-width:0.5;"/><text fill="#000000" font-family="sans-serif" font-size="14" lengthAdjust="spacing" textLength="124.0381" x="77.1532" y="193.1553">Gestionar Ofertas</text></g><g id="elem_SO"><ellipse cx="143.0043" cy="324.5429" fill="#F1F1F1" rx="84.8143" ry="19.3629" style="stroke:#181818;stroke-width:0.5;"/><text fill="#000000" font-family="sans-serif" font-size="14" lengthAdjust="spacing" textLength="129.8965" x="78.0561" y="327.3895">Seleccionar Oferta</text></g><g id="elem_CO"><ellipse cx="136.9975" cy="438.6595" fill="#F1F1F1" rx="76.7975" ry="17.7595" style="stroke:#181818;stroke-width:0.5;"/><text fill="#000000" font-family="sans-serif" font-size="14" lengthAdjust="spacing" textLength="110.5986" x="78.7412" y="442.396">Cancelar Oferta</text></g><g id="elem_IM"><ellipse cx="138.0006" cy="551.0701" fill="#F1F1F1" rx="76.2506" ry="17.6501" style="stroke:#181818;stroke-width:0.5;"/><text fill="#000000" font-family="sans-serif" font-size="14" lengthAdjust="spacing" textLength="109.2109" x="80.3951" y="554.8177">Ingresar Motivo</text></g><g id="elem_AE"><ellipse cx="139.9971" cy="664.3914" fill="#F1F1F1" rx="81.3571" ry="18.6714" style="stroke:#181818;stroke-width:0.5;"/><text fill="#000000" font-family="sans-serif" font-size="14" lengthAdjust="spacing" textLength="121.7891" x="77.9362" y="667.6211">Actualizar Estado</text></g><g id="elem_NE"><ellipse cx="141.0024" cy="779.0305" fill="#F1F1F1" rx="82.8524" ry="18.9705" style="stroke:#181818;stroke-width:0.5;"/><text fill="#000000" font-family="sans-serif" font-size="14" lengthAdjust="spacing" textLength="125.3301" x="77.6941" y="782.094">Notificar Empresa</text></g><!--entity ADM--><g id="elem_ADM"><ellipse cx="310" cy="160.38" fill="#F1F1F1" rx="8" ry="8" style="stroke:#181818;stroke-width:0.5;"/><path d="M310,168.38 L310,195.38 M297,176.38 L323,176.38 M310,195.38 L297,210.38 M310,195.38 L323,210.38 " fill="none" style="stroke:#181818;stroke-width:0.5;"/><text fill="#000000" font-family="sans-serif" font-size="14" lengthAdjust="spacing" textLength="99.0801" x="260.46" y="224.8751">Administrador</text></g><!--entity EMP--><g id="elem_EMP"><ellipse cx="140.9962" cy="885.5" fill="#F1F1F1" rx="8" ry="8" style="stroke:#181818;stroke-width:0.5;"/><path d="M140.9962,893.5 L140.9962,920.5 M127.9962,901.5 L153.9962,901.5 M140.9962,920.5 L127.9962,935.5 M140.9962,920.5 L153.9962,935.5 " fill="none" style="stroke:#181818;stroke-width:0.5;"/><text fill="#000000" font-family="sans-serif" font-size="14" lengthAdjust="spacing" textLength="61.6123" x="110.19" y="949.9951">Empresa</text></g><!--link IS to GO--><g id="link_IS_GO"><path d="M142.63,75.33 C142.07,99.52 141.1491,139.4716 140.5591,164.9216 " fill="none" id="IS-to-GO" style="stroke:#181818;stroke-width:1;"/><polygon fill="#181818" points="140.42,170.92,144.6275,162.0151,140.5359,165.9213,136.6297,161.8297,140.42,170.92" style="stroke:#181818;stroke-width:1;"/><text fill="#000000" font-family="sans-serif" font-size="13" lengthAdjust="spacing" textLength="109.8335" x="142" y="117.9469">Gestiona Ofertas</text></g><!--link GO to SO--><g id="link_GO_SO"><path d="M140.41,209.17 C140.98,234.27 141.8655,273.3315 142.4355,298.7515 " fill="none" id="GO-to-SO" style="stroke:#181818;stroke-width:1;"/><polygon fill="#181818" points="142.57,304.75,146.3672,295.6626,142.4579,299.7513,138.3692,295.8419,142.57,304.75" style="stroke:#181818;stroke-width:1;"/><text fill="#000000" font-family="sans-serif" font-size="13" lengthAdjust="spacing" textLength="115.2734" x="142" y="271.2369">Selecciona Oferta</text></g><!--link SO to CO--><g id="link_SO_CO"><path d="M142,344.3 C140.85,365.62 139.3307,394.1286 138.2307,414.6786 " fill="none" id="SO-to-CO" style="stroke:#181818;stroke-width:1;"/><polygon fill="#181818" points="137.91,420.67,142.3853,411.8967,138.1773,415.6771,134.3968,411.4691,137.91,420.67" style="stroke:#181818;stroke-width:1;"/><text fill="#000000" font-family="sans-serif" font-size="13" lengthAdjust="spacing" textLength="97.354" x="141" y="386.9669">Cancela Oferta</text></g><!--link CO to IM--><g id="link_CO_IM"><path d="M137.16,456.91 C137.34,477.65 137.6078,506.2502 137.7878,526.9402 " fill="none" id="CO-to-IM" style="stroke:#181818;stroke-width:1;"/><polygon fill="#181818" points="137.84,532.94,141.7616,523.9055,137.7965,527.9402,133.7619,523.9751,137.84,532.94" style="stroke:#181818;stroke-width:1;"/><text fill="#000000" font-family="sans-serif" font-size="13" lengthAdjust="spacing" textLength="63.0068" x="138" y="499.4869">&#171;include&#187;</text></g><!--link IM to AE--><g id="link_IM_AE"><path d="M138.3,568.98 C138.68,589.66 139.1919,618.511 139.5719,639.591 " fill="none" id="IM-to-AE" style="stroke:#181818;stroke-width:1;"/><polygon fill="#181818" points="139.68,645.59,143.5171,636.5194,139.5899,640.5908,135.5184,636.6636,139.68,645.59" style="stroke:#181818;stroke-width:1;"/><text fill="#000000" font-family="sans-serif" font-size="13" lengthAdjust="spacing" textLength="63.0068" x="140" y="611.7869">&#171;include&#187;</text></g><!--link AE to NE--><g id="link_AE_NE"><path d="M140.16,683.49 C140.35,704.38 140.5958,732.5702 140.7858,753.6102 " fill="none" id="AE-to-NE" style="stroke:#181818;stroke-width:1;"/><polygon fill="#181818" points="140.84,759.61,144.7586,750.5742,140.7948,754.6102,136.7589,750.6465,140.84,759.61" style="stroke:#181818;stroke-width:1;"/><text fill="#000000" font-family="sans-serif" font-size="13" lengthAdjust="spacing" textLength="61.1851" x="141" y="726.1269">&#171;extend&#187;</text></g><!--link NE to EMP--><g id="link_NE_EMP"><path d="M141,798.4 C141,818.49 141,845.22 141,870.76 " fill="none" id="NE-to-EMP" style="stroke:#181818;stroke-width:1;"/><polygon fill="#181818" points="141,876.76,145,867.76,141,871.76,137,867.76,141,876.76" style="stroke:#181818;stroke-width:1;"/><text fill="#000000" font-family="sans-serif" font-size="13" lengthAdjust="spacing" textLength="124.814" x="142" y="843.0669">Recibe Notificaci&#243;n</text></g><!--reverse link IS to ADM--><g id="link_IS_ADM"><path d="M197.831,72.3765 C220.381,79.3665 240.63,88.47 260,104.88 C274.78,117.4 286.32,135.45 294.56,151.63 " fill="none" id="IS-backto-ADM" style="stroke:#181818;stroke-width:1;"/><polygon fill="#181818" points="192.1,70.6,199.5122,77.0854,196.8758,72.0804,201.8808,69.4441,192.1,70.6" style="stroke:#181818;stroke-width:1;"/><text fill="#000000" font-family="sans-serif" font-size="13" lengthAdjust="spacing" textLength="81.3706" x="275" y="117.9469">Inicia Sesi&#243;n</text></g><!--SRC=[NP91RiCW44Ntd6BaJLU-G6HPiXmhyi9sLNe1WYSHbGqHaAfgrLFr2BrO1qYSskpu_p7CV7Y2lH9dAsO18q9jjCSFRtPG2orn4XRC2QsFfhVYADuCioYzqES98Lke8L8kOAy9o-2B0QshGoaSiQrMKX7AqQdV7vq1uIrVCmTqNXdzA1Yfmx2cE4uevNykOdo3RPgBJ3ricpfRTCHqngjtavhgramb_LLCwfEendan9gfgrbHF1KvA1cY-X9gHwXlspPYGtbYenbbfvIZ6aNQXnBwxMRSZGMowPyPQ3dbUqk2mUuIoPC983pQFzYED-w2C9x-E_Ys6nQoJsNPa5eNIShgEM9QCXA1NpKOd8UXzqkbte1v9xfDCxOPBNb2g8y8z11bVE8nHv7cOCp3f0opl_mS0]--></g></svg>