<svg xmlns="http://www.w3.org/2000/svg" xmlns:xlink="http://www.w3.org/1999/xlink" contentStyleType="text/css" data-diagram-type="DESCRIPTION" height="961px" preserveAspectRatio="none" style="width:452px;height:961px;background:#FFFFFF;" version="1.1" viewBox="0 0 452 961" width="452px" zoomAndPan="magnify"><defs/><g><!--cluster Postular a Ofertas de Trabajo--><g id="cluster_Postular a Ofertas de Trabajo"><rect fill="none" height="810.05" rx="2.5" ry="2.5" style="stroke:#181818;stroke-width:1;" width="342" x="7" y="7"/><text fill="#000000" font-family="sans-serif" font-size="14" font-weight="bold" lengthAdjust="spacing" textLength="233.1328" x="61.4336" y="21.9951">Postular a Ofertas de Trabajo</text></g><g id="elem_IS"><ellipse cx="260.9959" cy="58.4412" fill="#F1F1F1" rx="70.2059" ry="16.4412" style="stroke:#181818;stroke-width:0.5;"/><text fill="#000000" font-family="sans-serif" font-size="14" lengthAdjust="spacing" textLength="93.3857" x="211.303" y="62.1887">Iniciar Sesi&#243;n</text></g><g id="elem_BU"><ellipse cx="231.9977" cy="190.0335" fill="#F1F1F1" rx="71.4177" ry="16.6835" style="stroke:#181818;stroke-width:0.5;"/><text fill="#000000" font-family="sans-serif" font-size="14" lengthAdjust="spacing" textLength="96.6396" x="180.6778" y="193.7811">Buscar Oferta</text></g><g id="elem_VDO"><ellipse cx="216.0028" cy="324.3006" fill="#F1F1F1" rx="83.6028" ry="19.1206" style="stroke:#181818;stroke-width:0.5;"/><text fill="#000000" font-family="sans-serif" font-size="14" lengthAdjust="spacing" textLength="127.0869" x="152.0685" y="327.2807">Ver Detalle Oferta</text></g><g id="elem_RF"><ellipse cx="209.0025" cy="440.4765" fill="#F1F1F1" rx="88.3325" ry="20.0665" style="stroke:#181818;stroke-width:0.5;"/><text fill="#000000" font-family="sans-serif" font-size="14" lengthAdjust="spacing" textLength="137.9561" x="140.0244" y="443.3232">Rellenar Formulario</text></g><g id="elem_ACV"><ellipse cx="89.9979" cy="554.0636" fill="#F1F1F1" rx="66.7179" ry="15.7436" style="stroke:#181818;stroke-width:0.5;"/><text fill="#000000" font-family="sans-serif" font-size="14" lengthAdjust="spacing" textLength="83.7266" x="45.1346" y="557.8111">Adjuntar CV</text></g><g id="elem_VD"><ellipse cx="262.0003" cy="554.0601" fill="#F1F1F1" rx="70.5503" ry="16.5101" style="stroke:#181818;stroke-width:0.5;"/><text fill="#000000" font-family="sans-serif" font-size="14" lengthAdjust="spacing" textLength="94.3154" x="211.8426" y="557.8076">Validar Datos</text></g><g id="elem_EP"><ellipse cx="216.9958" cy="666.8412" fill="#F1F1F1" rx="84.3558" ry="19.2712" style="stroke:#181818;stroke-width:0.5;"/><text fill="#000000" font-family="sans-serif" font-size="14" lengthAdjust="spacing" textLength="128.8369" x="152.4334" y="669.7376">Enviar Postulaci&#243;n</text></g><g id="elem_NE"><ellipse cx="217.0024" cy="782.0805" fill="#F1F1F1" rx="82.8524" ry="18.9705" style="stroke:#181818;stroke-width:0.5;"/><text fill="#000000" font-family="sans-serif" font-size="14" lengthAdjust="spacing" textLength="125.3301" x="153.6941" y="785.144">Notificar Empresa</text></g><!--entity AL--><g id="elem_AL"><ellipse cx="389.0001" cy="160.38" fill="#F1F1F1" rx="8" ry="8" style="stroke:#181818;stroke-width:0.5;"/><path d="M389.0001,168.38 L389.0001,195.38 M376.0001,176.38 L402.0001,176.38 M389.0001,195.38 L376.0001,210.38 M389.0001,195.38 L402.0001,210.38 " fill="none" style="stroke:#181818;stroke-width:0.5;"/><text fill="#000000" font-family="sans-serif" font-size="14" lengthAdjust="spacing" textLength="48.7402" x="364.63" y="224.8751">Alumni</text></g><!--entity EMP--><g id="elem_EMP"><ellipse cx="216.9962" cy="888.55" fill="#F1F1F1" rx="8" ry="8" style="stroke:#181818;stroke-width:0.5;"/><path d="M216.9962,896.55 L216.9962,923.55 M203.9962,904.55 L229.9962,904.55 M216.9962,923.55 L203.9962,938.55 M216.9962,923.55 L229.9962,938.55 " fill="none" style="stroke:#181818;stroke-width:0.5;"/><text fill="#000000" font-family="sans-serif" font-size="14" lengthAdjust="spacing" textLength="61.6123" x="186.19" y="953.0451">Empresa</text></g><!--reverse link IS to AL--><g id="link_IS_AL"><path d="M305.1744,74.8947 C322.3144,82.2447 336.16,90.5 350,104.88 C362.51,117.87 371.54,135.6 377.73,151.44 " fill="none" id="IS-backto-AL" style="stroke:#181818;stroke-width:1;"/><polygon fill="#181818" points="299.66,72.53,306.3551,79.7533,304.2553,74.5006,309.508,72.4008,299.66,72.53" style="stroke:#181818;stroke-width:1;"/><text fill="#000000" font-family="sans-serif" font-size="13" lengthAdjust="spacing" textLength="81.3706" x="363" y="117.9469">Inicia Sesi&#243;n</text></g><!--link IS to BU--><g id="link_IS_BU"><path d="M257.44,75.33 C251.88,100.2 242.4795,142.2047 236.8995,167.1547 " fill="none" id="IS-to-BU" style="stroke:#181818;stroke-width:1;"/><polygon fill="#181818" points="235.59,173.01,241.4579,165.1,236.6813,168.1305,233.6507,163.354,235.59,173.01" style="stroke:#181818;stroke-width:1;"/><text fill="#000000" font-family="sans-serif" font-size="13" lengthAdjust="spacing" textLength="91.165" x="251" y="117.9469">Busca Ofertas</text></g><!--link BU to VDO--><g id="link_BU_VDO"><path d="M230.07,206.98 C227.09,231.58 222.1195,272.6933 218.9695,298.7733 " fill="none" id="BU-to-VDO" style="stroke:#181818;stroke-width:1;"/><polygon fill="#181818" points="218.25,304.73,223.3003,296.2746,218.8496,299.7661,215.3581,295.3153,218.25,304.73" style="stroke:#181818;stroke-width:1;"/><text fill="#000000" font-family="sans-serif" font-size="13" lengthAdjust="spacing" textLength="63.0068" x="224" y="271.2469">&#171;include&#187;</text></g><!--link VDO to RF--><g id="link_VDO_RF"><path d="M214.86,343.9 C213.57,364.88 211.8557,392.8512 210.5557,414.1412 " fill="none" id="VDO-to-RF" style="stroke:#181818;stroke-width:1;"/><polygon fill="#181818" points="210.19,420.13,214.7311,411.3905,210.4947,415.1393,206.746,410.9029,210.19,420.13" style="stroke:#181818;stroke-width:1;"/><text fill="#000000" font-family="sans-serif" font-size="13" lengthAdjust="spacing" textLength="122.7573" x="213" y="386.4869">Rellena Formulario</text></g><!--link RF to ACV--><g id="link_RF_ACV"><path d="M188.81,460.41 C165.34,482.42 131.4666,514.1757 110.0966,534.2157 " fill="none" id="RF-to-ACV" style="stroke:#181818;stroke-width:1;"/><polygon fill="#181818" points="105.72,538.32,115.0211,535.0814,109.3672,534.8998,109.5488,529.2458,105.72,538.32" style="stroke:#181818;stroke-width:1;"/><text fill="#000000" font-family="sans-serif" font-size="13" lengthAdjust="spacing" textLength="63.0068" x="157" y="503.6169">&#171;include&#187;</text></g><!--link RF to VD--><g id="link_RF_VD"><path d="M218.23,460.92 C228.55,482.65 242.4854,511.9804 252.0054,532.0204 " fill="none" id="RF-to-VD" style="stroke:#181818;stroke-width:1;"/><polygon fill="#181818" points="254.58,537.44,254.3312,527.5943,252.4345,532.9237,247.1051,531.027,254.58,537.44" style="stroke:#181818;stroke-width:1;"/><text fill="#000000" font-family="sans-serif" font-size="13" lengthAdjust="spacing" textLength="63.0068" x="241" y="503.6169">&#171;include&#187;</text></g><!--link VD to EP--><g id="link_VD_EP"><path d="M255.55,570.93 C247.34,591.15 235.4279,620.4811 226.7479,641.8511 " fill="none" id="VD-to-EP" style="stroke:#181818;stroke-width:1;"/><polygon fill="#181818" points="224.49,647.41,231.5828,640.5769,226.3716,642.7775,224.1709,637.5663,224.49,647.41" style="stroke:#181818;stroke-width:1;"/><text fill="#000000" font-family="sans-serif" font-size="13" lengthAdjust="spacing" textLength="114.2896" x="243" y="613.6369">Env&#237;a Postulaci&#243;n</text></g><!--link EP to NE--><g id="link_EP_NE"><path d="M217,686.54 C217,707.65 217,735.77 217,756.73 " fill="none" id="EP-to-NE" style="stroke:#181818;stroke-width:1;"/><polygon fill="#181818" points="217,762.73,221,753.73,217,757.73,213,753.73,217,762.73" style="stroke:#181818;stroke-width:1;"/><text fill="#000000" font-family="sans-serif" font-size="13" lengthAdjust="spacing" textLength="63.0068" x="218" y="729.1769">&#171;include&#187;</text></g><!--link NE to EMP--><g id="link_NE_EMP"><path d="M217,801.45 C217,821.54 217,848.27 217,873.81 " fill="none" id="NE-to-EMP" style="stroke:#181818;stroke-width:1;"/><polygon fill="#181818" points="217,879.81,221,870.81,217,874.81,213,870.81,217,879.81" style="stroke:#181818;stroke-width:1;"/><text fill="#000000" font-family="sans-serif" font-size="13" lengthAdjust="spacing" textLength="124.814" x="218" y="846.1169">Recibe Notificaci&#243;n</text></g><!--SRC=[PP71Ri8m38RlUGghbvtw0WWX0IqIqe0AjjvDwg6WDfcIT9eqxP5ssYFmOdFIWWZhqTzdn_xx18N2ayKEeI5O6ktfqvi9LCRvlaKB2EQDh8_OMppYsGXBqgC-jGJPdRUBdWlYoo1cy2M0lzwHHCVsMYkfM3wGKvTVdG7hwqFgB7edMHccHMFncXerMIZ8OyiBt6briKkzFR6XUTRAs2uigKmKzwlKcpVdNdlsbdNaysNzy22sgc5Ue3TkV2irIlqHxXhJaBVZoYhrjiQhDnNkAxjtIsxOV5kARo5GUcDXtlQTLd6Dvx4qgd7UfX9YVO1fdZE7oJNIMw81vlcCCmimPddzCPdWOc0S5CFfL6dPzWtDPY9K0jclGjUOstriWaaGE9g7rX7KnR-HiLvMOIB7S_d1D1x1A1ZRyg6J2x5pKmtBI7Kak0OtzFu1]--></g></svg>