<svg xmlns="http://www.w3.org/2000/svg" xmlns:xlink="http://www.w3.org/1999/xlink" contentStyleType="text/css" height="1152px" preserveAspectRatio="none" style="width:1863px;height:1152px;background:#FFFFFF;" version="1.1" viewBox="0 0 1863 1152" width="1863px" zoomAndPan="magnify"><title>Sistema Acad&#233;mico</title><defs/><g><text fill="#000000" font-family="sans-serif" font-size="14" font-weight="bold" lengthAdjust="spacing" textLength="153.7129" x="847.6436" y="22.9951">Sistema Acad&#233;mico</text><!--cluster Gesti?n de Profesores--><g id="cluster_Gesti&#243;n de Profesores"><path d="M165.5,826.2969 L341.2129,826.2969 A3.75,3.75 0 0 1 343.7129,828.7969 L350.7129,848.5938 L526.5,848.5938 A2.5,2.5 0 0 1 529,851.0938 L529,1142.7969 A2.5,2.5 0 0 1 526.5,1145.2969 L165.5,1145.2969 A2.5,2.5 0 0 1 163,1142.7969 L163,828.7969 A2.5,2.5 0 0 1 165.5,826.2969 " fill="none" style="stroke:#000000;stroke-width:1.5;"/><line style="stroke:#000000;stroke-width:1.5;" x1="163" x2="350.7129" y1="848.5938" y2="848.5938"/><text fill="#000000" font-family="sans-serif" font-size="14" font-weight="bold" lengthAdjust="spacing" textLength="174.7129" x="167" y="841.292">Gesti&#243;n de Profesores</text></g><!--cluster Gesti?n de Recursos Humanos--><g id="cluster_Gesti&#243;n de Recursos Humanos"><path d="M970.5,43.2969 L1211.4004,43.2969 A3.75,3.75 0 0 1 1213.9004,45.7969 L1220.9004,65.5938 L1391.5,65.5938 A2.5,2.5 0 0 1 1394,68.0938 L1394,555.7969 A2.5,2.5 0 0 1 1391.5,558.2969 L970.5,558.2969 A2.5,2.5 0 0 1 968,555.7969 L968,45.7969 A2.5,2.5 0 0 1 970.5,43.2969 " fill="none" style="stroke:#000000;stroke-width:1.5;"/><line style="stroke:#000000;stroke-width:1.5;" x1="968" x2="1220.9004" y1="65.5938" y2="65.5938"/><text fill="#000000" font-family="sans-serif" font-size="14" font-weight="bold" lengthAdjust="spacing" textLength="239.9004" x="972" y="58.292">Gesti&#243;n de Recursos Humanos</text></g><!--cluster Gesti?n de Ordenaci?n--><g id="cluster_Gesti&#243;n de Ordenaci&#243;n"><path d="M1477.5,277.2969 L1658.5791,277.2969 A3.75,3.75 0 0 1 1661.0791,279.7969 L1668.0791,299.5938 L1853.5,299.5938 A2.5,2.5 0 0 1 1856,302.0938 L1856,755.7969 A2.5,2.5 0 0 1 1853.5,758.2969 L1477.5,758.2969 A2.5,2.5 0 0 1 1475,755.7969 L1475,279.7969 A2.5,2.5 0 0 1 1477.5,277.2969 " fill="none" style="stroke:#000000;stroke-width:1.5;"/><line style="stroke:#000000;stroke-width:1.5;" x1="1475" x2="1668.0791" y1="299.5938" y2="299.5938"/><text fill="#000000" font-family="sans-serif" font-size="14" font-weight="bold" lengthAdjust="spacing" textLength="180.0791" x="1479" y="292.292">Gesti&#243;n de Ordenaci&#243;n</text></g><!--cluster Gesti?n de Calidad--><g id="cluster_Gesti&#243;n de Calidad"><path d="M161.5,392.2969 L310.9697,392.2969 A3.75,3.75 0 0 1 313.4697,394.7969 L320.4697,414.5938 L886.5,414.5938 A2.5,2.5 0 0 1 889,417.0938 L889,681.7969 A2.5,2.5 0 0 1 886.5,684.2969 L161.5,684.2969 A2.5,2.5 0 0 1 159,681.7969 L159,394.7969 A2.5,2.5 0 0 1 161.5,392.2969 " fill="none" style="stroke:#000000;stroke-width:1.5;"/><line style="stroke:#000000;stroke-width:1.5;" x1="159" x2="320.4697" y1="414.5938" y2="414.5938"/><text fill="#000000" font-family="sans-serif" font-size="14" font-weight="bold" lengthAdjust="spacing" textLength="148.4697" x="163" y="407.292">Gesti&#243;n de Calidad</text></g><g id="elem_IntroducirExperiencia"><ellipse cx="345.9137" cy="897.0796" fill="#F1F1F1" rx="166.9137" ry="35.7827" style="stroke:#181818;stroke-width:0.5;"/><text fill="#000000" font-family="sans-serif" font-size="14" lengthAdjust="spacing" textLength="305.5391" x="193.1441" y="899.9263">Introducir Datos de Experiencia y Movilidad</text></g><g id="elem_ConsultarValores"><ellipse cx="346.2457" cy="1002.346" fill="#F1F1F1" rx="158.2457" ry="34.0491" style="stroke:#181818;stroke-width:0.5;"/><text fill="#000000" font-family="sans-serif" font-size="14" lengthAdjust="spacing" textLength="287.6084" x="202.4415" y="1005.1927">Consultar Valores Asignados de Contrato</text></g><g id="elem_ConsultarAsignaciones"><ellipse cx="346.0498" cy="1100.2068" fill="#F1F1F1" rx="132.5498" ry="28.91" style="stroke:#181818;stroke-width:0.5;"/><text fill="#000000" font-family="sans-serif" font-size="14" lengthAdjust="spacing" textLength="233.9531" x="229.0733" y="1103.0535">Consultar Asignaciones Docentes</text></g><g id="elem_ValidarDatosRRHH"><ellipse cx="1180.907" cy="507.0783" fill="#F1F1F1" rx="159.407" ry="34.2814" style="stroke:#181818;stroke-width:0.5;"/><text fill="#000000" font-family="sans-serif" font-size="14" lengthAdjust="spacing" textLength="290.0146" x="1035.8996" y="509.9249">Validar y Modificar Datos del Profesorado</text></g><g id="elem_IntroducirContrato"><ellipse cx="1181.1883" cy="120.1345" fill="#F1F1F1" rx="197.1883" ry="41.8377" style="stroke:#181818;stroke-width:0.5;"/><text fill="#000000" font-family="sans-serif" font-size="14" lengthAdjust="spacing" textLength="367.7324" x="997.3221" y="122.9812">Introducir Datos de Contrato y Categor&#237;a Profesional</text></g><g id="elem_RevisarCargaRRHH"><ellipse cx="1180.861" cy="313.2691" fill="#F1F1F1" rx="140.361" ry="30.4722" style="stroke:#181818;stroke-width:0.5;"/><text fill="#000000" font-family="sans-serif" font-size="14" lengthAdjust="spacing" textLength="250.3594" x="1055.6813" y="316.1157">Revisar Carga Docente No Ajustada</text></g><g id="elem_ConsultarClaustroRRHH"><ellipse cx="1181.2301" cy="222.3429" fill="#F1F1F1" rx="113.2301" ry="25.046" style="stroke:#181818;stroke-width:0.5;"/><text fill="#000000" font-family="sans-serif" font-size="14" lengthAdjust="spacing" textLength="192.8486" x="1084.8057" y="225.1896">Consultar Claustro Docente</text></g><g id="elem_ConsultarAsignacionRRHH"><ellipse cx="1180.8292" cy="408.0627" fill="#F1F1F1" rx="134.3292" ry="29.2658" style="stroke:#181818;stroke-width:0.5;"/><text fill="#000000" font-family="sans-serif" font-size="14" lengthAdjust="spacing" textLength="237.6992" x="1061.9796" y="410.9094">Consultar Asignaci&#243;n por Profesor</text></g><g id="elem_AsignarCargaOrdenacion"><ellipse cx="1665.5509" cy="610.5071" fill="#F1F1F1" rx="99.0509" ry="22.2102" style="stroke:#181818;stroke-width:0.5;"/><text fill="#000000" font-family="sans-serif" font-size="14" lengthAdjust="spacing" textLength="161.9639" x="1584.569" y="613.3537">Asignar Carga Docente</text></g><g id="elem_ConsultarClaustroOrdenacion"><ellipse cx="1665.7301" cy="337.3429" fill="#F1F1F1" rx="113.2301" ry="25.046" style="stroke:#181818;stroke-width:0.5;"/><text fill="#000000" font-family="sans-serif" font-size="14" lengthAdjust="spacing" textLength="192.8486" x="1569.3057" y="340.1896">Consultar Claustro Docente</text></g><g id="elem_ConsultarAsignacionOrdenacion"><ellipse cx="1665.3292" cy="523.0627" fill="#F1F1F1" rx="134.3292" ry="29.2658" style="stroke:#181818;stroke-width:0.5;"/><text fill="#000000" font-family="sans-serif" font-size="14" lengthAdjust="spacing" textLength="237.6992" x="1546.4796" y="525.9094">Consultar Asignaci&#243;n por Profesor</text></g><g id="elem_RevisarCargaOrdenacion"><ellipse cx="1665.361" cy="428.2691" fill="#F1F1F1" rx="140.361" ry="30.4722" style="stroke:#181818;stroke-width:0.5;"/><text fill="#000000" font-family="sans-serif" font-size="14" lengthAdjust="spacing" textLength="250.3594" x="1540.1813" y="431.1157">Revisar Carga Docente No Ajustada</text></g><g id="elem_RevisarMemoria"><ellipse cx="1665.3136" cy="705.0596" fill="#F1F1F1" rx="174.3136" ry="37.2627" style="stroke:#181818;stroke-width:0.5;"/><text fill="#000000" font-family="sans-serif" font-size="14" lengthAdjust="spacing" textLength="320.7969" x="1504.9152" y="707.9063">Revisar Cumplimiento de Valores en Memoria</text></g><g id="elem_AsignarValoresMemoria"><ellipse cx="749.7019" cy="642.2372" fill="#F1F1F1" rx="115.2019" ry="25.4404" style="stroke:#181818;stroke-width:0.5;"/><text fill="#000000" font-family="sans-serif" font-size="14" lengthAdjust="spacing" textLength="197.0869" x="651.1584" y="645.0839">Asignar Valores en Memoria</text></g><g id="elem_AsignarInformacion"><ellipse cx="346.0153" cy="640.0999" fill="#F1F1F1" rx="127.0153" ry="27.8031" style="stroke:#181818;stroke-width:0.5;"/><text fill="#000000" font-family="sans-serif" font-size="14" lengthAdjust="spacing" textLength="222.2637" x="234.8835" y="642.9466">Asignar Informaci&#243;n a SIIU/DGU</text></g><g id="elem_ValidarMemoria"><ellipse cx="345.8929" cy="464.3755" fill="#F1F1F1" rx="170.8929" ry="36.5786" style="stroke:#181818;stroke-width:0.5;"/><text fill="#000000" font-family="sans-serif" font-size="14" lengthAdjust="spacing" textLength="313.749" x="189.0184" y="467.2221">Validar Valores vs Compromisos de Memoria</text></g><g id="elem_ObtenerIndicadores"><ellipse cx="345.9997" cy="556.2968" fill="#F1F1F1" rx="90.4997" ry="20.4999" style="stroke:#181818;stroke-width:0.5;"/><text fill="#000000" font-family="sans-serif" font-size="14" lengthAdjust="spacing" textLength="142.8711" x="274.5641" y="559.1435">Obtener Indicadores</text></g><g id="elem_EmitirInforme"><ellipse cx="749.4512" cy="538.3871" fill="#F1F1F1" rx="123.4512" ry="27.0902" style="stroke:#181818;stroke-width:0.5;"/><text fill="#000000" font-family="sans-serif" font-size="14" lengthAdjust="spacing" textLength="214.7031" x="642.0997" y="541.2338">Emitir Informe del Profesorado</text></g><!--entity Profesor--><g id="elem_Profesor"><ellipse cx="58.9604" cy="972.7969" fill="#F1F1F1" rx="8" ry="8" style="stroke:#181818;stroke-width:0.5;"/><path d="M58.9604,980.7969 L58.9604,1007.7969 M45.9604,988.7969 L71.9604,988.7969 M58.9604,1007.7969 L45.9604,1022.7969 M58.9604,1007.7969 L71.9604,1022.7969 " fill="none" style="stroke:#181818;stroke-width:0.5;"/><text fill="#000000" font-family="sans-serif" font-size="14" lengthAdjust="spacing" textLength="57.9209" x="30" y="1037.292">Profesor</text></g><!--entity RecursosHumanos--><g id="elem_RecursosHumanos"><ellipse cx="749.2549" cy="283.7969" fill="#F1F1F1" rx="8" ry="8" style="stroke:#181818;stroke-width:0.5;"/><path d="M749.2549,291.7969 L749.2549,318.7969 M736.2549,299.7969 L762.2549,299.7969 M749.2549,318.7969 L736.2549,333.7969 M749.2549,318.7969 L762.2549,333.7969 " fill="none" style="stroke:#181818;stroke-width:0.5;"/><text fill="#000000" font-family="sans-serif" font-size="14" lengthAdjust="spacing" textLength="40.5098" x="729" y="348.292">RRHH</text></g><!--entity Ordenacion--><g id="elem_Ordenacion"><ellipse cx="1180.8765" cy="585.7969" fill="#F1F1F1" rx="8" ry="8" style="stroke:#181818;stroke-width:0.5;"/><path d="M1180.8765,593.7969 L1180.8765,620.7969 M1167.8765,601.7969 L1193.8765,601.7969 M1180.8765,620.7969 L1167.8765,635.7969 M1180.8765,620.7969 L1193.8765,635.7969 " fill="none" style="stroke:#181818;stroke-width:0.5;"/><text fill="#000000" font-family="sans-serif" font-size="14" lengthAdjust="spacing" textLength="80.7529" x="1140.5" y="650.292">Ordenacion</text></g><!--entity Tecnico--><g id="elem_Tecnico"><ellipse cx="59.187" cy="610.7969" fill="#F1F1F1" rx="8" ry="8" style="stroke:#181818;stroke-width:0.5;"/><path d="M59.187,618.7969 L59.187,645.7969 M46.187,626.7969 L72.187,626.7969 M59.187,645.7969 L46.187,660.7969 M59.187,645.7969 L72.187,660.7969 " fill="none" style="stroke:#181818;stroke-width:0.5;"/><text fill="#000000" font-family="sans-serif" font-size="14" lengthAdjust="spacing" textLength="106.374" x="6" y="675.292">TecnicoCalidad</text></g><!--link Profesor to IntroducirExperiencia--><g id="link_Profesor_IntroducirExperiencia"><path d="M88.21,984.1669 C105.75,973.4869 129.07,960.3469 151,951.2969 C176.78,940.6669 199.5482,933.0559 226.6282,925.3659 " fill="none" id="Profesor-to-IntroducirExperiencia" style="stroke:#181818;stroke-width:1;"/><polygon fill="#181818" points="232.4,923.7269,222.6496,922.3376,227.5902,925.0927,224.835,930.0333,232.4,923.7269" style="stroke:#181818;stroke-width:1;"/></g><!--link Profesor to ConsultarValores--><g id="link_Profesor_ConsultarValores"><path d="M88.11,1002.2969 C112.33,1002.2969 143.39,1002.2969 181.89,1002.2969 " fill="none" id="Profesor-to-ConsultarValores" style="stroke:#181818;stroke-width:1;"/><polygon fill="#181818" points="187.89,1002.2969,178.89,998.2969,182.89,1002.2969,178.89,1006.2969,187.89,1002.2969" style="stroke:#181818;stroke-width:1;"/></g><!--link Profesor to ConsultarAsignaciones--><g id="link_Profesor_ConsultarAsignaciones"><path d="M88.04,1021.1269 C105.52,1032.1369 128.83,1045.5469 151,1054.2969 C180.14,1065.7969 207.074,1073.5662 237.284,1080.5462 " fill="none" id="Profesor-to-ConsultarAsignaciones" style="stroke:#181818;stroke-width:1;"/><polygon fill="#181818" points="243.13,1081.8969,235.2615,1075.9735,238.2583,1080.7713,233.4605,1083.7681,243.13,1081.8969" style="stroke:#181818;stroke-width:1;"/></g><!--link RecursosHumanos to ValidarDatosRRHH--><g id="link_RecursosHumanos_ValidarDatosRRHH"><path d="M770.02,326.1769 C798.17,344.7869 851.78,380.3869 897,411.2969 C925.19,430.5669 928.83,441.3469 960,455.2969 C989.55,468.5269 1017.0769,477.2216 1048.7069,484.8416 " fill="none" id="RecursosHumanos-to-ValidarDatosRRHH" style="stroke:#181818;stroke-width:1;"/><polygon fill="#181818" points="1054.54,486.2469,1046.7272,480.2502,1049.6791,485.0758,1044.8535,488.0277,1054.54,486.2469" style="stroke:#181818;stroke-width:1;"/></g><!--link RecursosHumanos to IntroducirContrato--><g id="link_RecursosHumanos_IntroducirContrato"><path d="M770.13,297.7769 C805.9,270.1869 884.95,212.4069 960,179.2969 C985.96,167.8469 1008.8821,159.8296 1036.7321,151.8496 " fill="none" id="RecursosHumanos-to-IntroducirContrato" style="stroke:#181818;stroke-width:1;"/><polygon fill="#181818" points="1042.5,150.1969,1032.7464,148.8307,1037.6934,151.5741,1034.95,156.5212,1042.5,150.1969" style="stroke:#181818;stroke-width:1;"/></g><!--link RecursosHumanos to RevisarCargaRRHH--><g id="link_RecursosHumanos_RevisarCargaRRHH"><path d="M770.07,313.2969 C817.33,313.2969 935.13,313.2969 1034.41,313.2969 " fill="none" id="RecursosHumanos-to-RevisarCargaRRHH" style="stroke:#181818;stroke-width:1;"/><polygon fill="#181818" points="1040.41,313.2969,1031.41,309.2969,1035.41,313.2969,1031.41,317.2969,1040.41,313.2969" style="stroke:#181818;stroke-width:1;"/></g><!--link RecursosHumanos to ConsultarClaustroRRHH--><g id="link_RecursosHumanos_ConsultarClaustroRRHH"><path d="M770.09,308.5869 C807.12,299.7369 889.92,280.1669 960,265.2969 C1004.16,255.9269 1047.5774,247.3468 1088.3074,239.5368 " fill="none" id="RecursosHumanos-to-ConsultarClaustroRRHH" style="stroke:#181818;stroke-width:1;"/><polygon fill="#181818" points="1094.2,238.4069,1084.6078,236.1733,1089.2895,239.3485,1086.1143,244.0302,1094.2,238.4069" style="stroke:#181818;stroke-width:1;"/></g><!--link RecursosHumanos to ConsultarAsignacionRRHH--><g id="link_RecursosHumanos_ConsultarAsignacionRRHH"><path d="M770.12,317.8969 C807.18,326.5569 890.05,345.8169 960,361.2969 C1000.33,370.2269 1039.011,378.5497 1077.411,386.7097 " fill="none" id="RecursosHumanos-to-ConsultarAsignacionRRHH" style="stroke:#181818;stroke-width:1;"/><polygon fill="#181818" points="1083.28,387.9569,1075.308,382.1735,1078.3892,386.9176,1073.6451,389.9988,1083.28,387.9569" style="stroke:#181818;stroke-width:1;"/></g><!--link Ordenacion to AsignarCargaOrdenacion--><g id="link_Ordenacion_AsignarCargaOrdenacion"><path d="M1221.9,614.8869 C1296.74,614.1069 1454.2103,612.4792 1560.1703,611.3792 " fill="none" id="Ordenacion-to-AsignarCargaOrdenacion" style="stroke:#181818;stroke-width:1;"/><polygon fill="#181818" points="1566.17,611.3169,1557.129,607.4105,1561.1703,611.3688,1557.212,615.4101,1566.17,611.3169" style="stroke:#181818;stroke-width:1;"/></g><!--link Ordenacion to ConsultarClaustroOrdenacion--><g id="link_Ordenacion_ConsultarClaustroOrdenacion"><path d="M1221.55,617.9369 C1272.26,618.8969 1358.77,611.8869 1402,558.2969 C1415.82,541.1569 1394.82,376.2469 1410,360.2969 C1453.58,314.4969 1521.5485,311.7954 1578.5285,319.0854 " fill="none" id="Ordenacion-to-ConsultarClaustroOrdenacion" style="stroke:#181818;stroke-width:1;"/><polygon fill="#181818" points="1584.48,319.8469,1576.0604,314.7371,1579.5204,319.2123,1575.0451,322.6724,1584.48,319.8469" style="stroke:#181818;stroke-width:1;"/></g><!--link Ordenacion to ConsultarAsignacionOrdenacion--><g id="link_Ordenacion_ConsultarAsignacionOrdenacion"><path d="M1221.9,607.6869 C1296.07,593.5469 1451.3662,563.9409 1557.3862,543.7209 " fill="none" id="Ordenacion-to-ConsultarAsignacionOrdenacion" style="stroke:#181818;stroke-width:1;"/><polygon fill="#181818" points="1563.28,542.5969,1553.69,540.3538,1558.3685,543.5336,1555.1887,548.2121,1563.28,542.5969" style="stroke:#181818;stroke-width:1;"/></g><!--link Ordenacion to RevisarCargaOrdenacion--><g id="link_Ordenacion_RevisarCargaOrdenacion"><path d="M1221.64,617.6569 C1272.03,618.2569 1357.76,610.7969 1402,558.2969 C1415.79,541.9269 1395.24,477.8069 1410,462.2969 C1443.11,427.4969 1487.4338,416.1916 1534.6238,414.5016 " fill="none" id="Ordenacion-to-RevisarCargaOrdenacion" style="stroke:#181818;stroke-width:1;"/><polygon fill="#181818" points="1540.62,414.2869,1531.4826,410.6115,1535.6232,414.4658,1531.7689,418.6064,1540.62,414.2869" style="stroke:#181818;stroke-width:1;"/></g><!--link Ordenacion to RevisarMemoria--><g id="link_Ordenacion_RevisarMemoria"><path d="M1221.9,622.7369 C1289.35,635.3169 1422.8817,660.2267 1527.3217,679.7067 " fill="none" id="Ordenacion-to-RevisarMemoria" style="stroke:#181818;stroke-width:1;"/><polygon fill="#181818" points="1533.22,680.8069,1525.106,675.2245,1528.3048,679.8901,1523.6392,683.0889,1533.22,680.8069" style="stroke:#181818;stroke-width:1;"/></g><!--link Tecnico to AsignarValoresMemoria--><g id="link_Tecnico_AsignarValoresMemoria"><path d="M77.74,678.4269 C91.47,703.0269 113.04,733.0069 142,747.2969 C322.94,836.5969 403.32,807.2169 596,747.2969 C646.34,731.6469 690.3353,696.9983 718.6353,671.2083 " fill="none" id="Tecnico-to-AsignarValoresMemoria" style="stroke:#181818;stroke-width:1;"/><polygon fill="#181818" points="723.07,667.1669,713.7236,670.2725,719.3744,670.5347,719.1122,676.1855,723.07,667.1669" style="stroke:#181818;stroke-width:1;"/></g><!--link Tecnico to AsignarInformacion--><g id="link_Tecnico_AsignarInformacion"><path d="M112.27,640.2969 C142.24,640.2969 175.26,640.2969 212.75,640.2969 " fill="none" id="Tecnico-to-AsignarInformacion" style="stroke:#181818;stroke-width:1;"/><polygon fill="#181818" points="218.75,640.2969,209.75,636.2969,213.75,640.2969,209.75,644.2969,218.75,640.2969" style="stroke:#181818;stroke-width:1;"/></g><!--link Tecnico to ValidarMemoria--><g id="link_Tecnico_ValidarMemoria"><path d="M79.48,602.1669 C95.26,574.9669 119.94,539.5769 151,518.2969 C170.11,505.2069 186.6322,497.1872 209.0522,489.6572 " fill="none" id="Tecnico-to-ValidarMemoria" style="stroke:#181818;stroke-width:1;"/><polygon fill="#181818" points="214.74,487.7469,204.9348,486.8205,210.0002,489.3388,207.4819,494.4042,214.74,487.7469" style="stroke:#181818;stroke-width:1;"/></g><!--link Tecnico to ObtenerIndicadores--><g id="link_Tecnico_ObtenerIndicadores"><path d="M112.35,610.7669 C124.74,604.6469 138.11,598.7269 151,594.2969 C188.33,581.4769 225.3515,573.4922 261.3315,567.5022 " fill="none" id="Tecnico-to-ObtenerIndicadores" style="stroke:#181818;stroke-width:1;"/><polygon fill="#181818" points="267.25,566.5169,257.7153,564.0492,262.3179,567.338,259.0291,571.9406,267.25,566.5169" style="stroke:#181818;stroke-width:1;"/></g><!--link Tecnico to EmitirInforme--><g id="link_Tecnico_EmitirInforme"><path d="M112.36,671.2269 C124.64,677.0469 137.96,682.2469 151,685.2969 C318.05,724.3469 371.56,730.6769 537,685.2969 C566.4,677.2269 574.48,671.8969 596,650.2969 C614.56,631.6669 606.77,617.2369 626,599.2969 C642.85,583.5769 659.085,573.5587 679.505,564.0087 " fill="none" id="Tecnico-to-EmitirInforme" style="stroke:#181818;stroke-width:1;"/><polygon fill="#181818" points="684.94,561.4669,675.093,561.6563,680.4108,563.5851,678.4821,568.9029,684.94,561.4669" style="stroke:#181818;stroke-width:1;"/></g><!--reverse link ConsultarClaustroRRHH to ConsultarClaustroOrdenacion--><g id="link_ConsultarClaustroRRHH_ConsultarClaustroOrdenacion"><path d="M1275.4771,238.9634 C1315.9271,246.5534 1358.62,255.1269 1402,265.2969 C1468.83,280.9669 1544.33,302.0369 1597.14,317.3269 " fill="none" id="ConsultarClaustroRRHH-backto-ConsultarClaustroOrdenacion" style="stroke:#181818;stroke-width:1;stroke-dasharray:7.0,7.0;"/><polygon fill="#181818" points="1269.58,237.8569,1277.6879,243.448,1274.4942,238.779,1279.1633,235.5853,1269.58,237.8569" style="stroke:#181818;stroke-width:1;"/><text fill="#000000" font-family="sans-serif" font-size="13" lengthAdjust="spacing" textLength="47.0996" x="1411" y="265.3638">include</text></g><!--reverse link ConsultarAsignacionRRHH to ConsultarAsignacionOrdenacion--><g id="link_ConsultarAsignacionRRHH_ConsultarAsignacionOrdenacion"><path d="M1288.8753,428.8339 C1326.4353,436.6139 1363.42,444.9769 1402,455.2969 C1431.33,463.1469 1437.77,468.1069 1467,476.2969 C1500.43,485.6569 1537.37,494.7769 1570.18,502.4469 " fill="none" id="ConsultarAsignacionRRHH-backto-ConsultarAsignacionOrdenacion" style="stroke:#181818;stroke-width:1;stroke-dasharray:7.0,7.0;"/><polygon fill="#181818" points="1283,427.6169,1291.0016,433.3592,1287.8961,428.631,1292.6242,425.5255,1283,427.6169" style="stroke:#181818;stroke-width:1;"/><text fill="#000000" font-family="sans-serif" font-size="13" lengthAdjust="spacing" textLength="47.0996" x="1411" y="454.3638">include</text></g><!--reverse link ValidarMemoria to EmitirInforme--><g id="link_ValidarMemoria_EmitirInforme"><path d="M481.8706,489.1542 C539.8806,499.8442 601.21,511.1469 654.38,520.9469 " fill="none" id="ValidarMemoria-backto-EmitirInforme" style="stroke:#181818;stroke-width:1;stroke-dasharray:7.0,7.0;"/><polygon fill="#181818" points="475.97,488.0669,484.0961,493.6317,480.8872,488.973,485.5459,485.7642,475.97,488.0669" style="stroke:#181818;stroke-width:1;"/><text fill="#000000" font-family="sans-serif" font-size="13" lengthAdjust="spacing" textLength="45.2778" x="549" y="497.3638">extend</text></g><!--reverse link AsignarValoresMemoria to RevisarMemoria--><g id="link_AsignarValoresMemoria_RevisarMemoria"><path d="M830.4247,663.1355 C870.2647,672.6855 914.56,681.8869 960,687.2969 C1140.56,708.8069 1348.93,711.4069 1491.95,709.8069 " fill="none" id="AsignarValoresMemoria-backto-RevisarMemoria" style="stroke:#181818;stroke-width:1;stroke-dasharray:7.0,7.0;"/><polygon fill="#181818" points="824.59,661.7369,832.4096,667.7246,829.4523,662.9024,834.2745,659.945,824.59,661.7369" style="stroke:#181818;stroke-width:1;"/><text fill="#000000" font-family="sans-serif" font-size="13" lengthAdjust="spacing" textLength="47.0996" x="1157.5" y="683.3638">include</text></g><!--reverse link ObtenerIndicadores to EmitirInforme--><g id="link_ObtenerIndicadores_EmitirInforme"><path d="M441.104,552.0782 C497.774,549.5382 566.16,546.4669 628.23,543.6869 " fill="none" id="ObtenerIndicadores-backto-EmitirInforme" style="stroke:#181818;stroke-width:1;stroke-dasharray:7.0,7.0;"/><polygon fill="#181818" points="435.11,552.3469,444.2801,555.9399,440.105,552.123,443.9219,547.9479,435.11,552.3469" style="stroke:#181818;stroke-width:1;"/><text fill="#000000" font-family="sans-serif" font-size="13" lengthAdjust="spacing" textLength="47.0996" x="548" y="541.3638">include</text></g><!--reverse link RevisarCargaRRHH to RevisarCargaOrdenacion--><g id="link_RevisarCargaRRHH_RevisarCargaOrdenacion"><path d="M1289.4465,335.4953 C1326.7865,343.5053 1363.48,351.7669 1402,361.2969 C1431.1,368.4969 1438.01,371.6869 1467,379.2969 C1500.83,388.1769 1538.03,397.5169 1570.93,405.6269 " fill="none" id="RevisarCargaRRHH-backto-RevisarCargaOrdenacion" style="stroke:#181818;stroke-width:1;stroke-dasharray:7.0,7.0;"/><polygon fill="#181818" points="1283.58,334.2369,1291.5408,340.0356,1288.4688,335.2856,1293.2188,332.2135,1283.58,334.2369" style="stroke:#181818;stroke-width:1;"/><text fill="#000000" font-family="sans-serif" font-size="13" lengthAdjust="spacing" textLength="47.0996" x="1411" y="360.3638">include</text></g><!--reverse link AsignarInformacion to AsignarValoresMemoria--><g id="link_AsignarInformacion_AsignarValoresMemoria"><path d="M479.2099,640.9571 C530.8299,641.2171 584.11,641.4769 634.4,641.7269 " fill="none" id="AsignarInformacion-backto-AsignarValoresMemoria" style="stroke:#181818;stroke-width:1;stroke-dasharray:7.0,7.0;"/><polygon fill="#181818" points="473.21,640.9269,482.1897,644.9722,478.2099,640.9521,482.23,636.9723,473.21,640.9269" style="stroke:#181818;stroke-width:1;"/><text fill="#000000" font-family="sans-serif" font-size="13" lengthAdjust="spacing" textLength="47.0996" x="548" y="637.3638">include</text></g><!--reverse link EmitirInforme to ValidarDatosRRHH--><g id="link_EmitirInforme_ValidarDatosRRHH"><path d="M872.9945,529.4553 C923.0545,525.8453 976.2,522.0069 1029.52,518.1569 " fill="none" id="EmitirInforme-backto-ValidarDatosRRHH" style="stroke:#181818;stroke-width:1;stroke-dasharray:7.0,7.0;"/><polygon fill="#181818" points="867.01,529.8869,876.2744,533.2292,871.997,529.5272,875.699,525.2499,867.01,529.8869" style="stroke:#181818;stroke-width:1;"/><text fill="#000000" font-family="sans-serif" font-size="13" lengthAdjust="spacing" textLength="45.2778" x="906" y="521.3638">extend</text></g><!--SRC=[fLJ1RXiX4Btp5SZtfFUggcJPKUn3ciffUf_2sANT1GjOArNL3-gXftw2Vwmi2pRiWgseUrlcpMFc3VCQt5fg5TLYzzLIBZGoAvGan0hR87qInc8BTCw07t-tWYb2zi2-mmxfx1wD5SU_adAa7xNQeb4QpOp-9DHzdK46ni7Mqch5EoOqNO9LfeVVlUnH2vHC0Fr17zH1D883dr4mz8nFK3dbGadJDHOq_GnDVocT6x6Jm0Ts5xRQNUNfJjW0hJ4D3Cmrx-YMYg6qVJCfGmeXlofAR91rshX2LbqBKatrS7MuNhNlcukjO70MfZa9wNhnbmUq1smsgzLrRMFtxe85MDmfVVm3WTUL3ir8vOZFcJTu4CPLjW2zWwW7_Q3e_5jdB73mB07bGTFgpk8k6d1PMaMYNDSOlSGGjUzLtYjzqgas8SzLcz6ZvXZ89kCPA4QD-rj2n0SYWrkL_shvEizh6wynldwWLvcwTj-8rYseUsnErRYBAEa3jagBZ38SLMUoW601bNbKs4CuHECbHOQrt2hT1Yc1FgtNps-MzyyfpGaoxZakRQpYq6lVxhLgXHdMBYqge8lLF7wnAB6lXhlLvuDbkfnmdXpdUNUji28sWKMl6201qGiDp2Ol9lpscp7CPJ2gu5CXcWnzEFY4J3hV3-Ff4yC98P6OtjoyhzXs1fbOSJcQsImPbUcX4rCiWGeELu9DBAm4AblLHUJ8YiXPM8-hcCa8TSalQj2Y5Op0bJKle-8p9c7mQVsZlIiWqfLAmwCTIKE5LKZ3-JCdnTdGTxUtbzIZRwcGhEauaih4SeQIg0b7tenFpQfqK7nnJN5IrCqdv6edv5CvYXT4-FX1f-IZWITPqsdvl7AvvxIyY3vZl9kdrly1]--></g></svg>