<svg xmlns="http://www.w3.org/2000/svg" xmlns:xlink="http://www.w3.org/1999/xlink" contentStyleType="text/css" data-diagram-type="DESCRIPTION" height="1709px" preserveAspectRatio="none" style="width:1363px;height:1709px;background:#FFFFFF;" version="1.1" viewBox="0 0 1363 1709" width="1363px" zoomAndPan="magnify"><defs/><g><!--cluster Sistema Acad?mico--><g id="cluster_Sistema Acad&#233;mico"><path d="M35.22,102.32 L189.9329,102.32 A3.75,3.75 0 0 1 192.4329,104.82 L199.4329,124.6169 L1354.31,124.6169 A2.5,2.5 0 0 1 1356.81,127.1169 L1356.81,1699.82 A2.5,2.5 0 0 1 1354.31,1702.32 L35.22,1702.32 A2.5,2.5 0 0 1 32.72,1699.82 L32.72,104.82 A2.5,2.5 0 0 1 35.22,102.32 " fill="#FFFFFF" fill-opacity="0.00000" style="stroke:#000000;stroke-width:1.5;"/><line style="stroke:#000000;stroke-width:1.5;" x1="32.72" x2="199.4329" y1="124.6169" y2="124.6169"/><text fill="#000000" font-family="sans-serif" font-size="14" font-weight="bold" lengthAdjust="spacing" textLength="153.7129" x="36.72" y="117.3151">Sistema Acad&#233;mico</text></g><!--cluster Gesti?n de Profesores--><g id="cluster_Gesti&#243;n de Profesores"><path d="M266.59,1387.32 L442.3029,1387.32 A3.75,3.75 0 0 1 444.8029,1389.82 L451.8029,1409.6169 L594,1409.6169 A2.5,2.5 0 0 1 596.5,1412.1169 L596.5,1675.82 A2.5,2.5 0 0 1 594,1678.32 L266.59,1678.32 A2.5,2.5 0 0 1 264.09,1675.82 L264.09,1389.82 A2.5,2.5 0 0 1 266.59,1387.32 " fill="#FFFFFF" fill-opacity="0.00000" style="stroke:#000000;stroke-width:1.5;"/><line style="stroke:#000000;stroke-width:1.5;" x1="264.09" x2="451.8029" y1="1409.6169" y2="1409.6169"/><text fill="#000000" font-family="sans-serif" font-size="14" font-weight="bold" lengthAdjust="spacing" textLength="174.7129" x="268.09" y="1402.3151">Gesti&#243;n de Profesores</text></g><!--cluster Gesti?n de Recursos Humanos--><g id="cluster_Gesti&#243;n de Recursos Humanos"><path d="M282.47,987.32 L523.3704,987.32 A3.75,3.75 0 0 1 525.8704,989.82 L532.8704,1009.6169 L1321.95,1009.6169 A2.5,2.5 0 0 1 1324.45,1012.1169 L1324.45,1347.82 A2.5,2.5 0 0 1 1321.95,1350.32 L282.47,1350.32 A2.5,2.5 0 0 1 279.97,1347.82 L279.97,989.82 A2.5,2.5 0 0 1 282.47,987.32 " fill="#FFFFFF" fill-opacity="0.00000" style="stroke:#000000;stroke-width:1.5;"/><line style="stroke:#000000;stroke-width:1.5;" x1="279.97" x2="532.8704" y1="1009.6169" y2="1009.6169"/><text fill="#000000" font-family="sans-serif" font-size="14" font-weight="bold" lengthAdjust="spacing" textLength="239.9004" x="283.97" y="1002.3151">Gesti&#243;n de Recursos Humanos</text></g><!--cluster Gesti?n de Ordenaci?n--><g id="cluster_Gesti&#243;n de Ordenaci&#243;n"><path d="M282.47,609.32 L463.5491,609.32 A3.75,3.75 0 0 1 466.0491,611.82 L473.0491,631.6169 L954.79,631.6169 A2.5,2.5 0 0 1 957.29,634.1169 L957.29,960.82 A2.5,2.5 0 0 1 954.79,963.32 L282.47,963.32 A2.5,2.5 0 0 1 279.97,960.82 L279.97,611.82 A2.5,2.5 0 0 1 282.47,609.32 " fill="#FFFFFF" fill-opacity="0.00000" style="stroke:#000000;stroke-width:1.5;"/><line style="stroke:#000000;stroke-width:1.5;" x1="279.97" x2="473.0491" y1="631.6169" y2="631.6169"/><text fill="#000000" font-family="sans-serif" font-size="14" font-weight="bold" lengthAdjust="spacing" textLength="180.0791" x="283.97" y="624.3151">Gesti&#243;n de Ordenaci&#243;n</text></g><!--cluster Gesti?n de Calidad--><g id="cluster_Gesti&#243;n de Calidad"><path d="M289.78,145.32 L439.2497,145.32 A3.75,3.75 0 0 1 441.7497,147.82 L448.7497,167.6169 L1330.31,167.6169 A2.5,2.5 0 0 1 1332.81,170.1169 L1332.81,511.82 A2.5,2.5 0 0 1 1330.31,514.32 L289.78,514.32 A2.5,2.5 0 0 1 287.28,511.82 L287.28,147.82 A2.5,2.5 0 0 1 289.78,145.32 " fill="#FFFFFF" fill-opacity="0.00000" style="stroke:#000000;stroke-width:1.5;"/><line style="stroke:#000000;stroke-width:1.5;" x1="287.28" x2="448.7497" y1="167.6169" y2="167.6169"/><text fill="#000000" font-family="sans-serif" font-size="14" font-weight="bold" lengthAdjust="spacing" textLength="148.4697" x="291.28" y="160.3151">Gesti&#243;n de Calidad</text></g><!--entity Profesor--><g id="elem_Profesor"><ellipse cx="101.9104" cy="1513.67" fill="#F1F1F1" rx="8" ry="8" style="stroke:#181818;stroke-width:0.5;"/><path d="M101.9104,1521.67 L101.9104,1548.67 M88.9104,1529.67 L114.9104,1529.67 M101.9104,1548.67 L88.9104,1563.67 M101.9104,1548.67 L114.9104,1563.67 " fill="#FFFFFF" fill-opacity="0.00000" style="stroke:#181818;stroke-width:0.5;"/><text fill="#000000" font-family="sans-serif" font-size="14" lengthAdjust="spacing" textLength="57.9209" x="72.95" y="1578.1651">Profesor</text></g><!--entity RecursosHumanos--><g id="elem_RecursosHumanos"><ellipse cx="101.9049" cy="1157.67" fill="#F1F1F1" rx="8" ry="8" style="stroke:#181818;stroke-width:0.5;"/><path d="M101.9049,1165.67 L101.9049,1192.67 M88.9049,1173.67 L114.9049,1173.67 M101.9049,1192.67 L88.9049,1207.67 M101.9049,1192.67 L114.9049,1207.67 " fill="#FFFFFF" fill-opacity="0.00000" style="stroke:#181818;stroke-width:0.5;"/><text fill="#000000" font-family="sans-serif" font-size="14" lengthAdjust="spacing" textLength="40.5098" x="81.65" y="1222.1651">RRHH</text></g><!--entity Ordenacion--><g id="elem_Ordenacion"><ellipse cx="101.9065" cy="723.67" fill="#F1F1F1" rx="8" ry="8" style="stroke:#181818;stroke-width:0.5;"/><path d="M101.9065,731.67 L101.9065,758.67 M88.9065,739.67 L114.9065,739.67 M101.9065,758.67 L88.9065,773.67 M101.9065,758.67 L114.9065,773.67 " fill="#FFFFFF" fill-opacity="0.00000" style="stroke:#181818;stroke-width:0.5;"/><text fill="#000000" font-family="sans-serif" font-size="14" lengthAdjust="spacing" textLength="80.7529" x="61.53" y="788.1651">Ordenacion</text></g><!--entity Tecnico--><g id="elem_Tecnico"><ellipse cx="101.907" cy="356.67" fill="#F1F1F1" rx="8" ry="8" style="stroke:#181818;stroke-width:0.5;"/><path d="M101.907,364.67 L101.907,391.67 M88.907,372.67 L114.907,372.67 M101.907,391.67 L88.907,406.67 M101.907,391.67 L114.907,406.67 " fill="#FFFFFF" fill-opacity="0.00000" style="stroke:#181818;stroke-width:0.5;"/><text fill="#000000" font-family="sans-serif" font-size="14" lengthAdjust="spacing" textLength="106.374" x="48.72" y="421.1651">TecnicoCalidad</text></g><g id="elem_IntroducirExperiencia"><ellipse cx="430.296" cy="1636.3152" fill="#F1F1F1" rx="117.476" ry="25.8952" style="stroke:#181818;stroke-width:0.5;"/><text fill="#000000" font-family="sans-serif" font-size="14" lengthAdjust="spacing" textLength="201.9609" x="329.3155" y="1639.1619">Introducir Datos Acad&#233;micos</text></g><g id="elem_ConsultarDatosPersonales"><ellipse cx="430.3013" cy="1543.3203" fill="#F1F1F1" rx="150.2013" ry="32.4403" style="stroke:#181818;stroke-width:0.5;"/><text fill="#000000" font-family="sans-serif" font-size="14" lengthAdjust="spacing" textLength="270.9014" x="294.8506" y="1546.1669">Consultar Datos Personales y Contrato</text></g><g id="elem_ConsultarAsignaciones"><ellipse cx="430.304" cy="1449.3188" fill="#F1F1F1" rx="121.594" ry="26.7188" style="stroke:#181818;stroke-width:0.5;"/><text fill="#000000" font-family="sans-serif" font-size="14" lengthAdjust="spacing" textLength="210.752" x="324.928" y="1452.1655">Consultar Asignaci&#243;n Docente</text></g><g id="elem_ValidarDatosRRHH"><ellipse cx="828.0642" cy="1299.3228" fill="#F1F1F1" rx="120.5642" ry="26.5128" style="stroke:#181818;stroke-width:0.5;"/><text fill="#000000" font-family="sans-serif" font-size="14" lengthAdjust="spacing" textLength="208.5576" x="723.7854" y="1302.1695">Validar Datos del Profesorado</text></g><g id="elem_ModificarDatosRRHH"><ellipse cx="430.3005" cy="1306.3161" fill="#F1F1F1" rx="127.6805" ry="27.9361" style="stroke:#181818;stroke-width:0.5;"/><text fill="#000000" font-family="sans-serif" font-size="14" lengthAdjust="spacing" textLength="223.6719" x="318.4646" y="1309.1628">Modificar Datos del Profesorado</text></g><g id="elem_IntroducirContrato"><ellipse cx="430.2982" cy="1219.3236" fill="#F1F1F1" rx="109.8182" ry="24.3636" style="stroke:#181818;stroke-width:0.5;"/><text fill="#000000" font-family="sans-serif" font-size="14" lengthAdjust="spacing" textLength="185.4863" x="337.5551" y="1222.1703">Introducir Datos Laborales</text></g><g id="elem_RevisarCargaRRHH"><ellipse cx="430.2992" cy="1137.3158" fill="#F1F1F1" rx="98.7292" ry="22.1458" style="stroke:#181818;stroke-width:0.5;"/><text fill="#000000" font-family="sans-serif" font-size="14" lengthAdjust="spacing" textLength="161.2529" x="349.6727" y="1140.1625">Revisar Carga Docente</text></g><g id="elem_ConsultarClaustroRRHH"><ellipse cx="1195.2201" cy="1304.316" fill="#F1F1F1" rx="113.2301" ry="25.046" style="stroke:#181818;stroke-width:0.5;"/><text fill="#000000" font-family="sans-serif" font-size="14" lengthAdjust="spacing" textLength="192.8486" x="1098.7957" y="1307.1627">Consultar Claustro Docente</text></g><g id="elem_ConsultarAsignacionRRHH"><ellipse cx="430.2992" cy="1051.3158" fill="#F1F1F1" rx="134.3292" ry="29.2658" style="stroke:#181818;stroke-width:0.5;"/><text fill="#000000" font-family="sans-serif" font-size="14" lengthAdjust="spacing" textLength="237.6992" x="311.4496" y="1054.1625">Consultar Asignaci&#243;n por Profesor</text></g><g id="elem_AsignarCargaOrdenacion"><ellipse cx="430.3009" cy="925.3202" fill="#F1F1F1" rx="99.0509" ry="22.2102" style="stroke:#181818;stroke-width:0.5;"/><text fill="#000000" font-family="sans-serif" font-size="14" lengthAdjust="spacing" textLength="161.9639" x="349.319" y="928.1669">Asignar Carga Docente</text></g><g id="elem_ConsultarClaustroOrdenacion"><ellipse cx="828.0601" cy="730.316" fill="#F1F1F1" rx="113.2301" ry="25.046" style="stroke:#181818;stroke-width:0.5;"/><text fill="#000000" font-family="sans-serif" font-size="14" lengthAdjust="spacing" textLength="192.8486" x="731.6357" y="733.1627">Consultar Claustro Docente</text></g><g id="elem_ConsultarAsignacionOrdenacion"><ellipse cx="430.2992" cy="839.3158" fill="#F1F1F1" rx="134.3292" ry="29.2658" style="stroke:#181818;stroke-width:0.5;"/><text fill="#000000" font-family="sans-serif" font-size="14" lengthAdjust="spacing" textLength="237.6992" x="311.4496" y="842.1625">Consultar Asignaci&#243;n por Profesor</text></g><g id="elem_RevisarCargaOrdenacion"><ellipse cx="430.2992" cy="753.3158" fill="#F1F1F1" rx="98.7292" ry="22.1458" style="stroke:#181818;stroke-width:0.5;"/><text fill="#000000" font-family="sans-serif" font-size="14" lengthAdjust="spacing" textLength="161.2529" x="349.6727" y="756.1625">Revisar Carga Docente</text></g><g id="elem_RevisarMemoria"><ellipse cx="430.2987" cy="670.3217" fill="#F1F1F1" rx="116.6587" ry="25.7317" style="stroke:#181818;stroke-width:0.5;"/><text fill="#000000" font-family="sans-serif" font-size="14" lengthAdjust="spacing" textLength="200.2109" x="330.1932" y="673.1684">Validar Memoria y Titulaci&#243;n</text></g><g id="elem_ConsultarClaustroCalidad"><ellipse cx="828.0601" cy="468.316" fill="#F1F1F1" rx="113.2301" ry="25.046" style="stroke:#181818;stroke-width:0.5;"/><text fill="#000000" font-family="sans-serif" font-size="14" lengthAdjust="spacing" textLength="192.8486" x="731.6357" y="471.1627">Consultar Claustro Docente</text></g><g id="elem_ConsultarAsignacionCalidad"><ellipse cx="1195.224" cy="230.3188" fill="#F1F1F1" rx="121.594" ry="26.7188" style="stroke:#181818;stroke-width:0.5;"/><text fill="#000000" font-family="sans-serif" font-size="14" lengthAdjust="spacing" textLength="210.752" x="1089.848" y="233.1655">Consultar Asignacion Docente</text></g><g id="elem_AsignarValoresMemoria"><ellipse cx="430.3019" cy="386.3204" fill="#F1F1F1" rx="115.2019" ry="25.4404" style="stroke:#181818;stroke-width:0.5;"/><text fill="#000000" font-family="sans-serif" font-size="14" lengthAdjust="spacing" textLength="197.0869" x="331.7584" y="389.1671">Asignar Valores en Memoria</text></g><g id="elem_AsignarInformacion"><ellipse cx="430.2953" cy="208.3231" fill="#F1F1F1" rx="127.0153" ry="27.8031" style="stroke:#181818;stroke-width:0.5;"/><text fill="#000000" font-family="sans-serif" font-size="14" lengthAdjust="spacing" textLength="222.2637" x="319.1635" y="211.1697">Asignar Informaci&#243;n a SIIU/DGU</text></g><g id="elem_ValidarMemoria"><ellipse cx="430.2987" cy="472.3217" fill="#F1F1F1" rx="116.6587" ry="25.7317" style="stroke:#181818;stroke-width:0.5;"/><text fill="#000000" font-family="sans-serif" font-size="14" lengthAdjust="spacing" textLength="200.2109" x="330.1932" y="475.1684">Validar Memoria y Titulaci&#243;n</text></g><g id="elem_ObtenerIndicadores"><ellipse cx="828.0597" cy="298.3199" fill="#F1F1F1" rx="90.4997" ry="20.4999" style="stroke:#181818;stroke-width:0.5;"/><text fill="#000000" font-family="sans-serif" font-size="14" lengthAdjust="spacing" textLength="142.8711" x="756.6241" y="301.1666">Obtener Indicadores</text></g><g id="elem_EmitirInforme"><ellipse cx="430.3012" cy="298.3202" fill="#F1F1F1" rx="123.4512" ry="27.0902" style="stroke:#181818;stroke-width:0.5;"/><text fill="#000000" font-family="sans-serif" font-size="14" lengthAdjust="spacing" textLength="214.7031" x="322.9497" y="301.1669">Emitir Informe del Profesorado</text></g><!--link Profesor to IntroducirExperiencia--><g id="link_Profesor_IntroducirExperiencia"><path d="M131.23,1553.25 C161.84,1563.81 212.13,1580.7 256.09,1593.32 C286.02,1601.91 313.3209,1608.9582 342.5109,1616.0782 " fill="#FFFFFF" fill-opacity="0.00000" id="Profesor-to-IntroducirExperiencia" style="stroke:#181818;stroke-width:1;"/><polygon fill="#181818" points="348.34,1617.5,340.5442,1611.4812,343.4824,1616.3151,338.6485,1619.2533,348.34,1617.5" style="stroke:#181818;stroke-width:1;"/></g><!--link Profesor to ConsultarDatosPersonales--><g id="link_Profesor_ConsultarDatosPersonales"><path d="M131.3,1543.32 C164.88,1543.32 217.34,1543.32 273.64,1543.32 " fill="#FFFFFF" fill-opacity="0.00000" id="Profesor-to-ConsultarDatosPersonales" style="stroke:#181818;stroke-width:1;"/><polygon fill="#181818" points="279.64,1543.32,270.64,1539.32,274.64,1543.32,270.64,1547.32,279.64,1543.32" style="stroke:#181818;stroke-width:1;"/></g><!--link Profesor to ConsultarAsignaciones--><g id="link_Profesor_ConsultarAsignaciones"><path d="M131.25,1533.44 C161.86,1522.92 212.16,1506.05 256.09,1493.32 C285.45,1484.81 312.03,1477.7985 340.8,1470.5885 " fill="#FFFFFF" fill-opacity="0.00000" id="Profesor-to-ConsultarAsignaciones" style="stroke:#181818;stroke-width:1;"/><polygon fill="#181818" points="346.62,1469.13,336.9176,1467.4378,341.77,1470.3455,338.8623,1475.1978,346.62,1469.13" style="stroke:#181818;stroke-width:1;"/></g><!--link RecursosHumanos to ValidarDatosRRHH--><g id="link_RecursosHumanos_ValidarDatosRRHH"><path d="M121.76,1148.94 C145.94,1104.63 192.46,1034.04 256.09,1004.32 C326.24,971.56 535.2,969.79 604.5,1004.32 C720.21,1061.97 789.3642,1206.0825 814.5442,1267.1925 " fill="#FFFFFF" fill-opacity="0.00000" id="RecursosHumanos-to-ValidarDatosRRHH" style="stroke:#181818;stroke-width:1;"/><polygon fill="#181818" points="816.83,1272.74,817.0996,1262.8948,814.9251,1268.1171,809.7029,1265.9426,816.83,1272.74" style="stroke:#181818;stroke-width:1;"/></g><!--link RecursosHumanos to ModificarDatosRRHH--><g id="link_RecursosHumanos_ModificarDatosRRHH"><path d="M122.2,1198.17 C150.73,1213.85 206.19,1242.99 256.09,1261.32 C282.63,1271.07 306.3769,1278.084 333.4469,1285.004 " fill="#FFFFFF" fill-opacity="0.00000" id="RecursosHumanos-to-ModificarDatosRRHH" style="stroke:#181818;stroke-width:1;"/><polygon fill="#181818" points="339.26,1286.49,331.5311,1280.3856,334.4158,1285.2517,329.5497,1288.1364,339.26,1286.49" style="stroke:#181818;stroke-width:1;"/></g><!--link RecursosHumanos to IntroducirContrato--><g id="link_RecursosHumanos_IntroducirContrato"><path d="M122.35,1189.23 C162.21,1193.13 249.6886,1201.7149 323.0686,1208.9049 " fill="#FFFFFF" fill-opacity="0.00000" id="RecursosHumanos-to-IntroducirContrato" style="stroke:#181818;stroke-width:1;"/><polygon fill="#181818" points="329.04,1209.49,320.473,1204.6314,324.0638,1209.0024,319.6928,1212.5933,329.04,1209.49" style="stroke:#181818;stroke-width:1;"/></g><!--link RecursosHumanos to RevisarCargaRRHH--><g id="link_RecursosHumanos_RevisarCargaRRHH"><path d="M122.35,1184.34 C165.71,1177.7 266.5391,1162.248 341.9191,1150.708 " fill="#FFFFFF" fill-opacity="0.00000" id="RecursosHumanos-to-RevisarCargaRRHH" style="stroke:#181818;stroke-width:1;"/><polygon fill="#181818" points="347.85,1149.8,338.3483,1147.208,342.9076,1150.5566,339.559,1155.1159,347.85,1149.8" style="stroke:#181818;stroke-width:1;"/></g><!--link RecursosHumanos to ConsultarClaustroRRHH--><g id="link_RecursosHumanos_ConsultarClaustroRRHH"><path d="M122.59,1221.48 C147.72,1261.27 195.34,1324.93 256.09,1351.32 C400.66,1414.11 808.4,1358.34 965.29,1343.32 C1013.95,1338.66 1061.9743,1330.784 1105.2643,1322.604 " fill="#FFFFFF" fill-opacity="0.00000" id="RecursosHumanos-to-ConsultarClaustroRRHH" style="stroke:#181818;stroke-width:1;"/><polygon fill="#181818" points="1111.16,1321.49,1101.5738,1319.2306,1106.2469,1322.4184,1103.0592,1327.0915,1111.16,1321.49" style="stroke:#181818;stroke-width:1;"/></g><!--link RecursosHumanos to ConsultarAsignacionRRHH--><g id="link_RecursosHumanos_ConsultarAsignacionRRHH"><path d="M122.32,1173.56 C150.55,1154.11 205.14,1118.59 256.09,1097.32 C280.5,1087.13 301.9915,1080.182 327.5615,1073.382 " fill="#FFFFFF" fill-opacity="0.00000" id="RecursosHumanos-to-ConsultarAsignacionRRHH" style="stroke:#181818;stroke-width:1;"/><polygon fill="#181818" points="333.36,1071.84,323.6343,1070.2874,328.5279,1073.125,325.6903,1078.0187,333.36,1071.84" style="stroke:#181818;stroke-width:1;"/></g><!--link Ordenacion to AsignarCargaOrdenacion--><g id="link_Ordenacion_AsignarCargaOrdenacion"><path d="M136.86,791.8 C165.65,822.02 209.58,862.8 256.09,886.32 C282.91,899.88 308.549,907.5811 337.289,913.3911 " fill="#FFFFFF" fill-opacity="0.00000" id="Ordenacion-to-AsignarCargaOrdenacion" style="stroke:#181818;stroke-width:1;"/><polygon fill="#181818" points="343.17,914.58,335.141,908.876,338.2691,913.5893,333.5559,916.7173,343.17,914.58" style="stroke:#181818;stroke-width:1;"/></g><!--link Ordenacion to ConsultarClaustroOrdenacion--><g id="link_Ordenacion_ConsultarClaustroOrdenacion"><path d="M135.51,714.76 C163.82,684.48 207.79,644.63 256.09,627.32 C401.86,575.07 453.27,594.02 604.5,627.32 C673.31,642.47 741.0073,678.0228 783.9173,703.4328 " fill="#FFFFFF" fill-opacity="0.00000" id="Ordenacion-to-ConsultarClaustroOrdenacion" style="stroke:#181818;stroke-width:1;"/><polygon fill="#181818" points="789.08,706.49,783.3741,698.4624,784.7777,703.9423,779.2978,705.346,789.08,706.49" style="stroke:#181818;stroke-width:1;"/></g><!--link Ordenacion to ConsultarAsignacionOrdenacion--><g id="link_Ordenacion_ConsultarAsignacionOrdenacion"><path d="M142.6,763.78 C192.12,776.83 272.3882,797.9705 337.3282,815.0905 " fill="#FFFFFF" fill-opacity="0.00000" id="Ordenacion-to-ConsultarAsignacionOrdenacion" style="stroke:#181818;stroke-width:1;"/><polygon fill="#181818" points="343.13,816.62,335.447,810.4579,338.2952,815.3454,333.4077,818.1936,343.13,816.62" style="stroke:#181818;stroke-width:1;"/></g><!--link Ordenacion to RevisarCargaOrdenacion--><g id="link_Ordenacion_RevisarCargaOrdenacion"><path d="M142.6,753.32 C189.15,753.32 261.99,753.32 325.22,753.32 " fill="#FFFFFF" fill-opacity="0.00000" id="Ordenacion-to-RevisarCargaOrdenacion" style="stroke:#181818;stroke-width:1;"/><polygon fill="#181818" points="331.22,753.32,322.22,749.32,326.22,753.32,322.22,757.32,331.22,753.32" style="stroke:#181818;stroke-width:1;"/></g><!--link Ordenacion to RevisarMemoria--><g id="link_Ordenacion_RevisarMemoria"><path d="M142.55,742.83 C173.46,734.68 217.47,723.16 256.09,713.32 C287.17,705.41 315.6056,698.3009 345.3956,690.9309 " fill="#FFFFFF" fill-opacity="0.00000" id="Ordenacion-to-RevisarMemoria" style="stroke:#181818;stroke-width:1;"/><polygon fill="#181818" points="351.22,689.49,341.5228,687.7685,346.3663,690.6908,343.444,695.5344,351.22,689.49" style="stroke:#181818;stroke-width:1;"/></g><!--link Tecnico to AsignarValoresMemoria--><g id="link_Tecnico_AsignarValoresMemoria"><path d="M155.35,386.32 C198.23,386.32 254.44,386.32 308.75,386.32 " fill="#FFFFFF" fill-opacity="0.00000" id="Tecnico-to-AsignarValoresMemoria" style="stroke:#181818;stroke-width:1;"/><polygon fill="#181818" points="314.75,386.32,305.75,382.32,309.75,386.32,305.75,390.32,314.75,386.32" style="stroke:#181818;stroke-width:1;"/></g><!--link Tecnico to AsignarInformacion--><g id="link_Tecnico_AsignarInformacion"><path d="M137.36,347.94 C166.27,317.99 210.13,277.52 256.09,253.32 C278.91,241.31 299.3389,233.882 324.3689,227.272 " fill="#FFFFFF" fill-opacity="0.00000" id="Tecnico-to-AsignarInformacion" style="stroke:#181818;stroke-width:1;"/><polygon fill="#181818" points="330.17,225.74,320.447,224.1706,325.3357,227.0166,322.4896,231.9054,330.17,225.74" style="stroke:#181818;stroke-width:1;"/></g><!--link Tecnico to ValidarMemoria--><g id="link_Tecnico_ValidarMemoria"><path d="M155.26,401.44 C184.81,409.87 222.45,420.42 256.09,429.32 C286.8,437.44 314.8542,444.5147 344.4442,451.8047 " fill="#FFFFFF" fill-opacity="0.00000" id="Tecnico-to-ValidarMemoria" style="stroke:#181818;stroke-width:1;"/><polygon fill="#181818" points="350.27,453.24,342.4882,447.2032,345.4152,452.0439,340.5744,454.9709,350.27,453.24" style="stroke:#181818;stroke-width:1;"/></g><!--link Tecnico to ObtenerIndicadores--><g id="link_Tecnico_ObtenerIndicadores"><path d="M114.66,424.66 C126.71,456.62 148.9,500.06 185.09,520.32 C232.79,547.02 6,659.3 604.5,515.32 C639.67,506.86 651.3,504.27 677.5,479.32 C697.38,460.39 691.3,447.49 707.5,425.32 C737.52,384.25 775.2629,346.5044 800.6629,322.5744 " fill="#FFFFFF" fill-opacity="0.00000" id="Tecnico-to-ObtenerIndicadores" style="stroke:#181818;stroke-width:1;"/><polygon fill="#181818" points="805.03,318.46,795.7364,321.7202,801.3907,321.8887,801.2222,327.543,805.03,318.46" style="stroke:#181818;stroke-width:1;"/></g><!--link Tecnico to EmitirInforme--><g id="link_Tecnico_EmitirInforme"><path d="M155.53,352.63 C165.1,347.56 175.19,342.86 185.09,339.32 C226.59,324.5 268.0725,315.8436 310.0125,309.7436 " fill="#FFFFFF" fill-opacity="0.00000" id="Tecnico-to-EmitirInforme" style="stroke:#181818;stroke-width:1;"/><polygon fill="#181818" points="315.95,308.88,306.468,306.217,311.0021,309.5997,307.6194,314.1337,315.95,308.88" style="stroke:#181818;stroke-width:1;"/></g><!--link Tecnico to ConsultarClaustroCalidad--><g id="link_Tecnico_ConsultarClaustroCalidad"><path d="M134.47,424.85 C162.64,455.95 206.94,497.38 256.09,515.32 C432.45,579.68 653.4209,525.4042 760.3509,491.4842 " fill="#FFFFFF" fill-opacity="0.00000" id="Tecnico-to-ConsultarClaustroCalidad" style="stroke:#181818;stroke-width:1;"/><polygon fill="#181818" points="766.07,489.67,756.2818,488.5786,761.304,491.1818,758.7008,496.2041,766.07,489.67" style="stroke:#181818;stroke-width:1;"/></g><!--link Tecnico to ConsultarAsignacionCalidad--><g id="link_Tecnico_ConsultarAsignacionCalidad"><path d="M116.3,347.67 C136.95,294.86 182.11,202.26 256.09,163.32 C555.02,6 977.8596,144.5212 1131.2696,204.3112 " fill="#FFFFFF" fill-opacity="0.00000" id="Tecnico-to-ConsultarAsignacionCalidad" style="stroke:#181818;stroke-width:1;"/><polygon fill="#181818" points="1136.86,206.49,1129.9269,199.4948,1132.2013,204.6743,1127.0218,206.9487,1136.86,206.49" style="stroke:#181818;stroke-width:1;"/></g><!--link ValidarDatosRRHH to ConsultarClaustroRRHH--><g id="link_ValidarDatosRRHH_ConsultarClaustroRRHH"><path d="M948.88,1300.96 C991.71,1301.55 1033.8005,1302.1289 1075.9705,1302.6989 " fill="#FFFFFF" fill-opacity="0.00000" id="ValidarDatosRRHH-to-ConsultarClaustroRRHH" style="stroke:#181818;stroke-width:1;stroke-dasharray:7.0,7.0;"/><polygon fill="#181818" points="1081.97,1302.78,1073.0249,1298.6587,1076.9705,1302.7124,1072.9168,1306.658,1081.97,1302.78" style="stroke:#181818;stroke-width:1;"/><text fill="#000000" font-family="sans-serif" font-size="13" lengthAdjust="spacing" textLength="63.0068" x="979.63" y="1298.3869">&#171;include&#187;</text></g><!--link ModificarDatosRRHH to ValidarDatosRRHH--><g id="link_ModificarDatosRRHH_ValidarDatosRRHH"><path d="M558.14,1307.45 C596.49,1307.49 638.72,1307.23 677.5,1306.32 C688.15,1306.07 693.2341,1305.9417 704.3241,1305.5317 " fill="#FFFFFF" fill-opacity="0.00000" id="ModificarDatosRRHH-to-ValidarDatosRRHH" style="stroke:#181818;stroke-width:1;stroke-dasharray:7.0,7.0;"/><polygon fill="#181818" points="710.32,1305.31,701.1784,1301.6452,705.3234,1305.4947,701.4739,1309.6398,710.32,1305.31" style="stroke:#181818;stroke-width:1;"/><text fill="#000000" font-family="sans-serif" font-size="13" lengthAdjust="spacing" textLength="63.0068" x="613.5" y="1302.3869">&#171;include&#187;</text></g><!--link AsignarCargaOrdenacion to ConsultarClaustroOrdenacion--><g id="link_AsignarCargaOrdenacion_ConsultarClaustroOrdenacion"><path d="M529.33,923.55 C557.18,918.17 585.15,907.27 604.5,886.32 C621.55,867.85 597.52,850.51 612.5,830.32 C615.17,826.72 708.7057,783.9181 771.2857,755.5381 " fill="#FFFFFF" fill-opacity="0.00000" id="AsignarCargaOrdenacion-to-ConsultarClaustroOrdenacion" style="stroke:#181818;stroke-width:1;stroke-dasharray:7.0,7.0;"/><polygon fill="#181818" points="776.75,753.06,766.9014,753.1342,772.1964,755.1251,770.2055,760.42,776.75,753.06" style="stroke:#181818;stroke-width:1;"/><text fill="#000000" font-family="sans-serif" font-size="13" lengthAdjust="spacing" textLength="63.0068" x="613.5" y="797.3869">&#171;include&#187;</text></g><!--link ValidarMemoria to ConsultarClaustroCalidad--><g id="link_ValidarMemoria_ConsultarClaustroCalidad"><path d="M547.1,471.15 C599.91,470.62 656.2003,470.0507 708.6003,469.5207 " fill="#FFFFFF" fill-opacity="0.00000" id="ValidarMemoria-to-ConsultarClaustroCalidad" style="stroke:#181818;stroke-width:1;stroke-dasharray:7.0,7.0;"/><polygon fill="#181818" points="714.6,469.46,705.56,465.5512,709.6003,469.5106,705.6409,473.5508,714.6,469.46" style="stroke:#181818;stroke-width:1;"/><text fill="#000000" font-family="sans-serif" font-size="13" lengthAdjust="spacing" textLength="63.0068" x="613.5" y="466.3869">&#171;include&#187;</text></g><!--link EmitirInforme to ObtenerIndicadores--><g id="link_EmitirInforme_ObtenerIndicadores"><path d="M551.19,304.22 C591.34,305.53 636.35,306.28 677.5,305.32 C697.64,304.85 713.2961,304.2903 733.6961,303.3703 " fill="#FFFFFF" fill-opacity="0.00000" id="EmitirInforme-to-ObtenerIndicadores" style="stroke:#181818;stroke-width:1;stroke-dasharray:7.0,7.0;"/><polygon fill="#181818" points="739.69,303.1,730.5189,299.5095,734.6951,303.3253,730.8793,307.5014,739.69,303.1" style="stroke:#181818;stroke-width:1;"/><text fill="#000000" font-family="sans-serif" font-size="13" lengthAdjust="spacing" textLength="63.0068" x="613.5" y="301.3869">&#171;include&#187;</text></g><!--link ObtenerIndicadores to ConsultarAsignacionCalidad--><g id="link_ObtenerIndicadores_ConsultarAsignacionCalidad"><path d="M918.77,296.79 C957.49,294.8 1003.11,290.68 1043.63,282.32 C1075.05,275.84 1103.2941,266.6623 1130.9441,256.2623 " fill="#FFFFFF" fill-opacity="0.00000" id="ObtenerIndicadores-to-ConsultarAsignacionCalidad" style="stroke:#181818;stroke-width:1;stroke-dasharray:7.0,7.0;"/><polygon fill="#181818" points="1136.56,254.15,1126.728,253.5745,1131.8801,255.9103,1129.5444,261.0624,1136.56,254.15" style="stroke:#181818;stroke-width:1;"/><text fill="#000000" font-family="sans-serif" font-size="13" lengthAdjust="spacing" textLength="63.0068" x="979.63" y="278.3869">&#171;include&#187;</text></g><!--link AsignarInformacion to ValidarMemoria--><g id="link_AsignarInformacion_ValidarMemoria"><path d="M316.5,221.05 C294.49,227.86 273.05,238.07 256.09,253.32 C240.84,267.04 209.75,322.04 220.71,364.82 C228.83,396.49 230.17,409.39 256.09,429.32 C275.97,444.61 294.7778,453.0021 319.1578,459.4221 " fill="#FFFFFF" fill-opacity="0.00000" id="AsignarInformacion-to-ValidarMemoria" style="stroke:#181818;stroke-width:1;stroke-dasharray:7.0,7.0;"/><polygon fill="#181818" points="324.96,460.95,317.2753,454.79,320.1248,459.6768,315.2381,462.5263,324.96,460.95" style="stroke:#181818;stroke-width:1;"/><text fill="#000000" font-family="sans-serif" font-size="13" lengthAdjust="spacing" textLength="61.1851" x="186.09" y="360.8869">&#171;extend&#187;</text></g><!--SRC=[fPN1RXiX48RlVWgKUznx5LcAx2Ysr2YHa_HEOEoYxe85R9MgoWFrt4V8YvLbOSqkizXfzyXyyxFyCmmLx2onYcYn_sO95ngO5KhEPWVAljCza8j7OIpKb5mpojz_ruAf2_9hHjpN8xTWh7Z_8ma7yg3L3epIO2BMVeq1Her3Dz9gnHicD5bHgqmYwnAe8KVWvlK0Me1aWkOwIoLDKraQPHv06oLf1ORy92vejLlsWZtfmIDNqhmsOYyfysTQAGRImb0h0ae6eRVPj2LRO8tRrP1rKrEfS6E-qahm_ZWSgjv9ohk31C83s-rwdMlSAIvsWXLLUgQWanNf2trn2XMCInIDpYMsy4COzoDBglTqu668-02-_R4Eouesncs65o56JwcarJmetLioLT9UhrJKUyqXYABrxEGm0qB41wAAkt7_RSDvMXyrewHwNf5B2h7hxw1MMb1tTv-4RQhewr4f02VBilI272t9HmqDMkUugKxEYKcns2ZEYdPg4f3HZRHRGZIr0LNPo9tITQWl9O-RpVEdrUrpAjKZ_rQGG4p-oVsB1Gdjdt0tPdZt4hYyi9uivxatjR0Y7WBG-TKXWKZRWJARj7Eor5xdhfEwCHocS4ACEhHRV08ctQiKwjOAX9LkkxWHkRnS51wj0LPyYd1oyD1uRdGCZwDF0mPEJ7yCdPZo68gET0oS7jr5UZIQVSAnPfuj3DKHUMfkJk6J8t6KK1XzE1blaaT2ZwLdGgu-GerlTOeWLpODJzpC5CblNHejJauKpEUYPyTzJERpYQOXdydLbP2iQZWi5ZuvxssVdcaECtqgtZtuxaaSKHfQZIl4aP8VOM2pJyvhWwGXq63ZpEs21qaVaVcuTNmUlBhTk4jx-mi0]--></g></svg>