<svg xmlns="http://www.w3.org/2000/svg" xmlns:xlink="http://www.w3.org/1999/xlink" contentStyleType="text/css" data-diagram-type="DESCRIPTION" height="1535px" preserveAspectRatio="none" style="width:1536px;height:1535px;background:#FFFFFF;" version="1.1" viewBox="0 0 1536 1535" width="1536px" zoomAndPan="magnify"><defs/><g><!--cluster Sistema Acad?mico--><g id="cluster_Sistema Acad&#233;mico"><path d="M8.5,6 L163.2129,6 A3.75,3.75 0 0 1 165.7129,8.5 L172.7129,28.2969 L1526.68,28.2969 A2.5,2.5 0 0 1 1529.18,30.7969 L1529.18,1525.5 A2.5,2.5 0 0 1 1526.68,1528 L8.5,1528 A2.5,2.5 0 0 1 6,1525.5 L6,8.5 A2.5,2.5 0 0 1 8.5,6 " fill="#FFFFFF" fill-opacity="0.00000" style="stroke:#000000;stroke-width:1.5;"/><line style="stroke:#000000;stroke-width:1.5;" x1="6" x2="172.7129" y1="28.2969" y2="28.2969"/><text fill="#000000" font-family="sans-serif" font-size="14" font-weight="bold" lengthAdjust="spacing" textLength="153.7129" x="10" y="20.9951">Sistema Acad&#233;mico</text></g><!--cluster Gesti?n de Profesores--><g id="cluster_Gesti&#243;n de Profesores"><path d="M428.16,1213 L603.8729,1213 A3.75,3.75 0 0 1 606.3729,1215.5 L613.3729,1235.2969 L755.56,1235.2969 A2.5,2.5 0 0 1 758.06,1237.7969 L758.06,1501.5 A2.5,2.5 0 0 1 755.56,1504 L428.16,1504 A2.5,2.5 0 0 1 425.66,1501.5 L425.66,1215.5 A2.5,2.5 0 0 1 428.16,1213 " fill="#FFFFFF" fill-opacity="0.00000" style="stroke:#000000;stroke-width:1.5;"/><line style="stroke:#000000;stroke-width:1.5;" x1="425.66" x2="613.3729" y1="1235.2969" y2="1235.2969"/><text fill="#000000" font-family="sans-serif" font-size="14" font-weight="bold" lengthAdjust="spacing" textLength="174.7129" x="429.66" y="1227.9951">Gesti&#243;n de Profesores</text></g><!--cluster Gesti?n de Recursos Humanos--><g id="cluster_Gesti&#243;n de Recursos Humanos"><path d="M39.15,754 L280.0504,754 A3.75,3.75 0 0 1 282.5504,756.5 L289.5504,776.2969 L1130.12,776.2969 A2.5,2.5 0 0 1 1132.62,778.7969 L1132.62,1186.5 A2.5,2.5 0 0 1 1130.12,1189 L39.15,1189 A2.5,2.5 0 0 1 36.65,1186.5 L36.65,756.5 A2.5,2.5 0 0 1 39.15,754 " fill="#FFFFFF" fill-opacity="0.00000" style="stroke:#000000;stroke-width:1.5;"/><line style="stroke:#000000;stroke-width:1.5;" x1="36.65" x2="289.5504" y1="776.2969" y2="776.2969"/><text fill="#000000" font-family="sans-serif" font-size="14" font-weight="bold" lengthAdjust="spacing" textLength="239.9004" x="40.65" y="768.9951">Gesti&#243;n de Recursos Humanos</text></g><!--cluster Gesti?n de Ordenaci?n--><g id="cluster_Gesti&#243;n de Ordenaci&#243;n"><path d="M32.5,376 L213.5791,376 A3.75,3.75 0 0 1 216.0791,378.5 L223.0791,398.2969 L718.59,398.2969 A2.5,2.5 0 0 1 721.09,400.7969 L721.09,727.5 A2.5,2.5 0 0 1 718.59,730 L32.5,730 A2.5,2.5 0 0 1 30,727.5 L30,378.5 A2.5,2.5 0 0 1 32.5,376 " fill="#FFFFFF" fill-opacity="0.00000" style="stroke:#000000;stroke-width:1.5;"/><line style="stroke:#000000;stroke-width:1.5;" x1="30" x2="223.0791" y1="398.2969" y2="398.2969"/><text fill="#000000" font-family="sans-serif" font-size="14" font-weight="bold" lengthAdjust="spacing" textLength="180.0791" x="34" y="390.9951">Gesti&#243;n de Ordenaci&#243;n</text></g><!--cluster Gesti?n de Calidad--><g id="cluster_Gesti&#243;n de Calidad"><path d="M43.38,49 L192.8497,49 A3.75,3.75 0 0 1 195.3497,51.5 L202.3497,71.2969 L1502.68,71.2969 A2.5,2.5 0 0 1 1505.18,73.7969 L1505.18,349.5 A2.5,2.5 0 0 1 1502.68,352 L43.38,352 A2.5,2.5 0 0 1 40.88,349.5 L40.88,51.5 A2.5,2.5 0 0 1 43.38,49 " fill="#FFFFFF" fill-opacity="0.00000" style="stroke:#000000;stroke-width:1.5;"/><line style="stroke:#000000;stroke-width:1.5;" x1="40.88" x2="202.3497" y1="71.2969" y2="71.2969"/><text fill="#000000" font-family="sans-serif" font-size="14" font-weight="bold" lengthAdjust="spacing" textLength="148.4697" x="44.88" y="63.9951">Gesti&#243;n de Calidad</text></g><g id="elem_IntroducirExperiencia"><ellipse cx="591.856" cy="1461.9952" fill="#F1F1F1" rx="117.476" ry="25.8952" style="stroke:#181818;stroke-width:0.5;"/><text fill="#000000" font-family="sans-serif" font-size="14" lengthAdjust="spacing" textLength="201.9609" x="490.8755" y="1464.8419">Introducir Datos Acad&#233;micos</text></g><g id="elem_ConsultarDatosPersonales"><ellipse cx="591.8613" cy="1369.0003" fill="#F1F1F1" rx="150.2013" ry="32.4403" style="stroke:#181818;stroke-width:0.5;"/><text fill="#000000" font-family="sans-serif" font-size="14" lengthAdjust="spacing" textLength="270.9014" x="456.4106" y="1371.8469">Consultar Datos Personales y Contrato</text></g><g id="elem_ConsultarAsignaciones"><ellipse cx="591.864" cy="1274.9988" fill="#F1F1F1" rx="121.594" ry="26.7188" style="stroke:#181818;stroke-width:0.5;"/><text fill="#000000" font-family="sans-serif" font-size="14" lengthAdjust="spacing" textLength="210.752" x="486.488" y="1277.8455">Consultar Asignaci&#243;n Docente</text></g><g id="elem_ValidarDatosRRHH"><ellipse cx="591.8642" cy="1072.0028" fill="#F1F1F1" rx="120.5642" ry="26.5128" style="stroke:#181818;stroke-width:0.5;"/><text fill="#000000" font-family="sans-serif" font-size="14" lengthAdjust="spacing" textLength="208.5576" x="487.5854" y="1074.8495">Validar Datos del Profesorado</text></g><g id="elem_ModificarDatosRRHH"><ellipse cx="180.3305" cy="1137.9961" fill="#F1F1F1" rx="127.6805" ry="27.9361" style="stroke:#181818;stroke-width:0.5;"/><text fill="#000000" font-family="sans-serif" font-size="14" lengthAdjust="spacing" textLength="223.6719" x="68.4946" y="1140.8428">Modificar Datos del Profesorado</text></g><g id="elem_IntroducirContrato"><ellipse cx="591.8582" cy="986.0036" fill="#F1F1F1" rx="109.8182" ry="24.3636" style="stroke:#181818;stroke-width:0.5;"/><text fill="#000000" font-family="sans-serif" font-size="14" lengthAdjust="spacing" textLength="185.4863" x="499.1151" y="988.8503">Introducir Datos Laborales</text></g><g id="elem_RevisarCargaRRHH"><ellipse cx="591.8592" cy="903.9958" fill="#F1F1F1" rx="98.7292" ry="22.1458" style="stroke:#181818;stroke-width:0.5;"/><text fill="#000000" font-family="sans-serif" font-size="14" lengthAdjust="spacing" textLength="161.2529" x="511.2327" y="906.8425">Revisar Carga Docente</text></g><g id="elem_ConsultarClaustroRRHH"><ellipse cx="1003.3901" cy="945.996" fill="#F1F1F1" rx="113.2301" ry="25.046" style="stroke:#181818;stroke-width:0.5;"/><text fill="#000000" font-family="sans-serif" font-size="14" lengthAdjust="spacing" textLength="192.8486" x="906.9657" y="948.8427">Consultar Claustro Docente</text></g><g id="elem_ConsultarAsignacionRRHH"><ellipse cx="591.8592" cy="817.9958" fill="#F1F1F1" rx="134.3292" ry="29.2658" style="stroke:#181818;stroke-width:0.5;"/><text fill="#000000" font-family="sans-serif" font-size="14" lengthAdjust="spacing" textLength="237.6992" x="473.0096" y="820.8425">Consultar Asignaci&#243;n por Profesor</text></g><g id="elem_AsignarCargaOrdenacion"><ellipse cx="180.3309" cy="692.0002" fill="#F1F1F1" rx="99.0509" ry="22.2102" style="stroke:#181818;stroke-width:0.5;"/><text fill="#000000" font-family="sans-serif" font-size="14" lengthAdjust="spacing" textLength="161.9639" x="99.349" y="694.8469">Asignar Carga Docente</text></g><g id="elem_ConsultarClaustroOrdenacion"><ellipse cx="591.8601" cy="563.996" fill="#F1F1F1" rx="113.2301" ry="25.046" style="stroke:#181818;stroke-width:0.5;"/><text fill="#000000" font-family="sans-serif" font-size="14" lengthAdjust="spacing" textLength="192.8486" x="495.4357" y="566.8427">Consultar Claustro Docente</text></g><g id="elem_ConsultarAsignacionOrdenacion"><ellipse cx="180.3292" cy="605.9958" fill="#F1F1F1" rx="134.3292" ry="29.2658" style="stroke:#181818;stroke-width:0.5;"/><text fill="#000000" font-family="sans-serif" font-size="14" lengthAdjust="spacing" textLength="237.6992" x="61.4796" y="608.8425">Consultar Asignaci&#243;n por Profesor</text></g><g id="elem_RevisarCargaOrdenacion"><ellipse cx="180.3292" cy="519.9958" fill="#F1F1F1" rx="98.7292" ry="22.1458" style="stroke:#181818;stroke-width:0.5;"/><text fill="#000000" font-family="sans-serif" font-size="14" lengthAdjust="spacing" textLength="161.2529" x="99.7027" y="522.8425">Revisar Carga Docente</text></g><g id="elem_RevisarMemoria"><ellipse cx="180.3287" cy="437.0017" fill="#F1F1F1" rx="116.6587" ry="25.7317" style="stroke:#181818;stroke-width:0.5;"/><text fill="#000000" font-family="sans-serif" font-size="14" lengthAdjust="spacing" textLength="200.2109" x="80.2232" y="439.8484">Validar Memoria y Titulaci&#243;n</text></g><g id="elem_ConsultarClaustroCalidad"><ellipse cx="1375.9501" cy="158.996" fill="#F1F1F1" rx="113.2301" ry="25.046" style="stroke:#181818;stroke-width:0.5;"/><text fill="#000000" font-family="sans-serif" font-size="14" lengthAdjust="spacing" textLength="192.8486" x="1279.5257" y="161.8427">Consultar Claustro Docente</text></g><g id="elem_ConsultarAsignacionCalidad"><ellipse cx="1003.3892" cy="112.9958" fill="#F1F1F1" rx="134.3292" ry="29.2658" style="stroke:#181818;stroke-width:0.5;"/><text fill="#000000" font-family="sans-serif" font-size="14" lengthAdjust="spacing" textLength="237.6992" x="884.5396" y="115.8425">Consultar Asignacion por Profesor</text></g><g id="elem_AsignarValoresMemoria"><ellipse cx="591.8619" cy="203.0004" fill="#F1F1F1" rx="115.2019" ry="25.4404" style="stroke:#181818;stroke-width:0.5;"/><text fill="#000000" font-family="sans-serif" font-size="14" lengthAdjust="spacing" textLength="197.0869" x="493.3184" y="205.8471">Asignar Valores en Memoria</text></g><g id="elem_AsignarInformacion"><ellipse cx="1003.3853" cy="308.0031" fill="#F1F1F1" rx="127.0153" ry="27.8031" style="stroke:#181818;stroke-width:0.5;"/><text fill="#000000" font-family="sans-serif" font-size="14" lengthAdjust="spacing" textLength="222.2637" x="892.2535" y="310.8497">Asignar Informaci&#243;n a SIIU/DGU</text></g><g id="elem_ValidarMemoria"><ellipse cx="1003.3887" cy="203.0017" fill="#F1F1F1" rx="116.6587" ry="25.7317" style="stroke:#181818;stroke-width:0.5;"/><text fill="#000000" font-family="sans-serif" font-size="14" lengthAdjust="spacing" textLength="200.2109" x="903.2832" y="205.8484">Validar Memoria y Titulaci&#243;n</text></g><g id="elem_ObtenerIndicadores"><ellipse cx="591.8597" cy="112.9999" fill="#F1F1F1" rx="90.4997" ry="20.4999" style="stroke:#181818;stroke-width:0.5;"/><text fill="#000000" font-family="sans-serif" font-size="14" lengthAdjust="spacing" textLength="142.8711" x="520.4241" y="115.8466">Obtener Indicadores</text></g><g id="elem_EmitirInforme"><ellipse cx="180.3312" cy="113.0002" fill="#F1F1F1" rx="123.4512" ry="27.0902" style="stroke:#181818;stroke-width:0.5;"/><text fill="#000000" font-family="sans-serif" font-size="14" lengthAdjust="spacing" textLength="214.7031" x="72.9797" y="115.8469">Emitir Informe del Profesorado</text></g><!--link ValidarDatosRRHH to ConsultarClaustroRRHH--><g id="link_ValidarDatosRRHH_ConsultarClaustroRRHH"><path d="M675.19,1052.61 C704.07,1045.4 736.64,1036.82 766.06,1028 C827.42,1009.6 890.895,987.2408 938.445,969.8508 " fill="#FFFFFF" fill-opacity="0.00000" id="ValidarDatosRRHH-to-ConsultarClaustroRRHH" style="stroke:#181818;stroke-width:1;stroke-dasharray:7.0,7.0;"/><polygon fill="#181818" points="944.08,967.79,934.2536,967.1246,939.3842,969.5074,937.0014,974.6379,944.08,967.79" style="stroke:#181818;stroke-width:1;"/><text fill="#000000" font-family="sans-serif" font-size="13" lengthAdjust="spacing" textLength="63.0068" x="775.06" y="1002.0669">&#171;include&#187;</text></g><!--link ModificarDatosRRHH to ValidarDatosRRHH--><g id="link_ModificarDatosRRHH_ValidarDatosRRHH"><path d="M301.15,1147.48 C336.34,1148 374.75,1146.33 409.66,1140 C455.61,1131.66 499.6025,1114.7789 535.2325,1098.8489 " fill="#FFFFFF" fill-opacity="0.00000" id="ModificarDatosRRHH-to-ValidarDatosRRHH" style="stroke:#181818;stroke-width:1;stroke-dasharray:7.0,7.0;"/><polygon fill="#181818" points="540.71,1096.4,530.8612,1096.4218,536.1454,1098.4408,534.1264,1103.7251,540.71,1096.4" style="stroke:#181818;stroke-width:1;"/><text fill="#000000" font-family="sans-serif" font-size="13" lengthAdjust="spacing" textLength="63.0068" x="345.66" y="1136.0669">&#171;include&#187;</text></g><!--link IntroducirContrato to ConsultarClaustroRRHH--><g id="link_IntroducirContrato_ConsultarClaustroRRHH"><path d="M700.29,981.58 C743.49,979.25 793.71,975.84 839.06,971 C862.88,968.46 882.5984,965.8133 906.3684,962.1933 " fill="#FFFFFF" fill-opacity="0.00000" id="IntroducirContrato-to-ConsultarClaustroRRHH" style="stroke:#181818;stroke-width:1;stroke-dasharray:7.0,7.0;"/><polygon fill="#181818" points="912.3,961.29,902.8004,958.6906,907.357,962.0428,904.0048,966.5994,912.3,961.29" style="stroke:#181818;stroke-width:1;"/><text fill="#000000" font-family="sans-serif" font-size="13" lengthAdjust="spacing" textLength="63.0068" x="775.06" y="967.0669">&#171;include&#187;</text></g><!--link ConsultarAsignacionRRHH to ConsultarClaustroRRHH--><g id="link_ConsultarAsignacionRRHH_ConsultarClaustroRRHH"><path d="M681.33,840.14 C708.62,847.33 738.69,855.63 766.06,864 C827.32,882.73 890.8007,905.0512 938.3907,922.3412 " fill="#FFFFFF" fill-opacity="0.00000" id="ConsultarAsignacionRRHH-to-ConsultarClaustroRRHH" style="stroke:#181818;stroke-width:1;stroke-dasharray:7.0,7.0;"/><polygon fill="#181818" points="944.03,924.39,936.9369,917.5572,939.3305,922.6826,934.2051,925.0763,944.03,924.39" style="stroke:#181818;stroke-width:1;"/><text fill="#000000" font-family="sans-serif" font-size="13" lengthAdjust="spacing" textLength="63.0068" x="775.06" y="864.0669">&#171;include&#187;</text></g><!--link RevisarCargaRRHH to ConsultarClaustroRRHH--><g id="link_RevisarCargaRRHH_ConsultarClaustroRRHH"><path d="M682.48,913.19 C746.63,919.77 827.1413,928.0278 894.0213,934.8878 " fill="#FFFFFF" fill-opacity="0.00000" id="RevisarCargaRRHH-to-ConsultarClaustroRRHH" style="stroke:#181818;stroke-width:1;stroke-dasharray:7.0,7.0;"/><polygon fill="#181818" points="899.99,935.5,891.4451,930.6025,895.0161,934.9898,890.6288,938.5608,899.99,935.5" style="stroke:#181818;stroke-width:1;"/><text fill="#000000" font-family="sans-serif" font-size="13" lengthAdjust="spacing" textLength="63.0068" x="775.06" y="920.0669">&#171;include&#187;</text></g><!--link ValidarDatosRRHH to IntroducirExperiencia--><g id="link_ValidarDatosRRHH_IntroducirExperiencia"><path d="M487.53,1058.31 C448.25,1059.24 406.75,1068.68 380.44,1098.5 C333,1152.26 370.09,1365.35 417.66,1419 C433.57,1436.95 449.9043,1446.3298 473.0343,1452.9898 " fill="#FFFFFF" fill-opacity="0.00000" id="ValidarDatosRRHH-to-IntroducirExperiencia" style="stroke:#181818;stroke-width:1;stroke-dasharray:7.0,7.0;"/><polygon fill="#181818" points="478.8,1454.65,471.2582,1448.3159,473.9952,1453.2665,469.0446,1456.0036,478.8,1454.65" style="stroke:#181818;stroke-width:1;"/><text fill="#000000" font-family="sans-serif" font-size="13" lengthAdjust="spacing" textLength="63.0068" x="345.66" y="1111.5669">&#171;icnlude&#187;</text></g><!--link AsignarCargaOrdenacion to ConsultarClaustroOrdenacion--><g id="link_AsignarCargaOrdenacion_ConsultarClaustroOrdenacion"><path d="M242.83,674.39 C265.46,667.81 291.26,660.19 314.66,653 C387.86,630.51 465.7997,605.2226 521.6897,586.8626 " fill="#FFFFFF" fill-opacity="0.00000" id="AsignarCargaOrdenacion-to-ConsultarClaustroOrdenacion" style="stroke:#181818;stroke-width:1;stroke-dasharray:7.0,7.0;"/><polygon fill="#181818" points="527.39,584.99,517.5912,583.9986,522.6397,586.5505,520.0879,591.5991,527.39,584.99" style="stroke:#181818;stroke-width:1;"/><text fill="#000000" font-family="sans-serif" font-size="13" lengthAdjust="spacing" textLength="63.0068" x="345.66" y="621.0669">&#171;include&#187;</text></g><!--link RevisarMemoria to ConsultarClaustroOrdenacion--><g id="link_RevisarMemoria_ConsultarClaustroOrdenacion"><path d="M249.41,458.11 C325.84,481.81 443.2692,518.2328 518.9192,541.6928 " fill="#FFFFFF" fill-opacity="0.00000" id="RevisarMemoria-to-ConsultarClaustroOrdenacion" style="stroke:#181818;stroke-width:1;stroke-dasharray:7.0,7.0;"/><polygon fill="#181818" points="524.65,543.47,517.2386,536.9837,519.8744,541.989,514.8691,544.6247,524.65,543.47" style="stroke:#181818;stroke-width:1;"/><text fill="#000000" font-family="sans-serif" font-size="13" lengthAdjust="spacing" textLength="63.0068" x="345.66" y="486.0669">&#171;include&#187;</text></g><!--link ConsultarAsignacionOrdenacion to ConsultarClaustroOrdenacion--><g id="link_ConsultarAsignacionOrdenacion_ConsultarClaustroOrdenacion"><path d="M308.85,597.15 C341.72,594.54 377.03,591.44 409.66,588 C437.74,585.04 462.2525,582.0219 490.0425,578.3219 " fill="#FFFFFF" fill-opacity="0.00000" id="ConsultarAsignacionOrdenacion-to-ConsultarClaustroOrdenacion" style="stroke:#181818;stroke-width:1;stroke-dasharray:7.0,7.0;"/><polygon fill="#181818" points="495.99,577.53,486.5408,574.7528,491.0337,578.1899,487.5966,582.6828,495.99,577.53" style="stroke:#181818;stroke-width:1;"/><text fill="#000000" font-family="sans-serif" font-size="13" lengthAdjust="spacing" textLength="63.0068" x="345.66" y="584.0669">&#171;include&#187;</text></g><!--link RevisarCargaOrdenacion to ConsultarClaustroOrdenacion--><g id="link_RevisarCargaOrdenacion_ConsultarClaustroOrdenacion"><path d="M270.19,529.55 C334.65,536.47 415.9844,545.2085 483.2244,552.4385 " fill="#FFFFFF" fill-opacity="0.00000" id="RevisarCargaOrdenacion-to-ConsultarClaustroOrdenacion" style="stroke:#181818;stroke-width:1;stroke-dasharray:7.0,7.0;"/><polygon fill="#181818" points="489.19,553.08,480.6692,548.1407,484.2187,552.5455,479.8139,556.0949,489.19,553.08" style="stroke:#181818;stroke-width:1;"/><text fill="#000000" font-family="sans-serif" font-size="13" lengthAdjust="spacing" textLength="63.0068" x="345.66" y="535.0669">&#171;include&#187;</text></g><!--link ValidarMemoria to ConsultarClaustroCalidad--><g id="link_ValidarMemoria_ConsultarClaustroCalidad"><path d="M1114.02,194.45 C1151.7,191.11 1194.12,186.89 1232.72,182 C1249.84,179.83 1262.1423,178.0886 1279.6323,175.3486 " fill="#FFFFFF" fill-opacity="0.00000" id="ValidarMemoria-to-ConsultarClaustroCalidad" style="stroke:#181818;stroke-width:1;stroke-dasharray:7.0,7.0;"/><polygon fill="#181818" points="1285.56,174.42,1276.0494,171.8612,1280.6202,175.1939,1277.2875,179.7648,1285.56,174.42" style="stroke:#181818;stroke-width:1;"/><text fill="#000000" font-family="sans-serif" font-size="13" lengthAdjust="spacing" textLength="63.0068" x="1168.72" y="178.0669">&#171;include&#187;</text></g><!--link EmitirInforme to ObtenerIndicadores--><g id="link_EmitirInforme_ObtenerIndicadores"><path d="M304.2,113 C367.46,113 437.21,113 494.94,113 " fill="#FFFFFF" fill-opacity="0.00000" id="EmitirInforme-to-ObtenerIndicadores" style="stroke:#181818;stroke-width:1;stroke-dasharray:7.0,7.0;"/><polygon fill="#181818" points="500.94,113,491.94,109,495.94,113,491.94,117,500.94,113" style="stroke:#181818;stroke-width:1;"/><text fill="#000000" font-family="sans-serif" font-size="13" lengthAdjust="spacing" textLength="63.0068" x="345.66" y="109.0669">&#171;include&#187;</text></g><!--link ObtenerIndicadores to ConsultarAsignacionCalidad--><g id="link_ObtenerIndicadores_ConsultarAsignacionCalidad"><path d="M682.73,113 C737.24,113 801.81,113 862.77,113 " fill="#FFFFFF" fill-opacity="0.00000" id="ObtenerIndicadores-to-ConsultarAsignacionCalidad" style="stroke:#181818;stroke-width:1;stroke-dasharray:7.0,7.0;"/><polygon fill="#181818" points="868.77,113,859.77,109,863.77,113,859.77,117,868.77,113" style="stroke:#181818;stroke-width:1;"/><text fill="#000000" font-family="sans-serif" font-size="13" lengthAdjust="spacing" textLength="63.0068" x="775.06" y="109.0669">&#171;include&#187;</text></g><!--link AsignarValoresMemoria to ValidarMemoria--><g id="link_AsignarValoresMemoria_ValidarMemoria"><path d="M707.48,203 C763.33,203 824.35,203 880.37,203 " fill="#FFFFFF" fill-opacity="0.00000" id="AsignarValoresMemoria-to-ValidarMemoria" style="stroke:#181818;stroke-width:1;stroke-dasharray:7.0,7.0;"/><polygon fill="#181818" points="886.37,203,877.37,199,881.37,203,877.37,207,886.37,203" style="stroke:#181818;stroke-width:1;"/><text fill="#000000" font-family="sans-serif" font-size="13" lengthAdjust="spacing" textLength="63.0068" x="775.06" y="199.0669">&#171;include&#187;</text></g><!--link ConsultarAsignacionCalidad to ConsultarClaustroCalidad--><g id="link_ConsultarAsignacionCalidad_ConsultarClaustroCalidad"><path d="M1121.13,127.49 C1170.98,133.68 1222.5857,140.0909 1270.2757,146.0109 " fill="#FFFFFF" fill-opacity="0.00000" id="ConsultarAsignacionCalidad-to-ConsultarClaustroCalidad" style="stroke:#181818;stroke-width:1;stroke-dasharray:7.0,7.0;"/><polygon fill="#181818" points="1276.23,146.75,1267.7913,141.6718,1271.2681,146.1341,1266.8058,149.6108,1276.23,146.75" style="stroke:#181818;stroke-width:1;"/><text fill="#000000" font-family="sans-serif" font-size="13" lengthAdjust="spacing" textLength="63.0068" x="1168.72" y="131.0669">&#171;include&#187;</text></g><!--link AsignarInformacion to ValidarMemoria--><g id="link_AsignarInformacion_ValidarMemoria"><path d="M1003.39,279.86 C1003.39,264.07 1003.39,250.49 1003.39,235.05 " fill="#FFFFFF" fill-opacity="0.00000" id="AsignarInformacion-to-ValidarMemoria" style="stroke:#181818;stroke-width:1;stroke-dasharray:7.0,7.0;"/><polygon fill="#181818" points="1003.39,229.05,999.39,238.05,1003.39,234.05,1007.39,238.05,1003.39,229.05" style="stroke:#181818;stroke-width:1;"/><text fill="#000000" font-family="sans-serif" font-size="13" lengthAdjust="spacing" textLength="61.1851" x="961.39" y="259.0269">&#171;extend&#187;</text></g><!--SRC=[fPN1JXin48RlUOeH3q3l5Og44aGY5O42z3xOas1rruviBwAgUA2U-mYyM1t7tZYnTzc5FNh- -UpvnvwjQ6t1Aj1Yyso12qtC2YKdaosoNxWXEBiNnbADSCcGl_-j1LDdy6S2xcibrsIiUFydWHFSQRKcepIPADjzZI66nacNqch56oOqpD4gas1T0Xeu2AvUjwG5IIOmvyoKD4rbCMBkI1ibiI83ly45hNRB7jWglV2WwsDU6h6Ho7nDSyL8MZfcHO6I0VGswRPaHQnnknfOD3LALJRc9rQ2j-LmgbedaUyB2GelMAqMYvnnexXO2zPBQJKzdAn9F_394IewRL4qEaUiw4KOTv0PwWqUUHWYFb3U_j27MOMDSPkLcn2Z7r7IRcwLRYtfQcdBwslghUOKeCL-xd4b0qB41oB5lRWlsp2CDTQCFkgm9lSHugs_eLffWUxjFWZRLD7N0oa8FcpBp0DviILZ3Gsi8MwgOMPs4kDjSNxiHYUGZ9QaLoP4Ko-AbALSArs79YFSBvUFt-RNZocgbNokAq7HUPBR9qkITYVXRjRm_U_0vONrP3dFlQg55R48AWwnlIGeqZjnEYFX_7nQ7XZm7IukX6HLmsawzSdvQFJf6JFFp2VYg8qxPj0enkbO7PMSspOj_uZtkKo6N9zSdcVb_PDuPmdnreq7z8wlpn_eQvMb1lUM5eP3uHn7rzqdv- -ea5OG7MsSpQK2epXvqcSHbmPr8-upelxq5CdGWl89wDMLp5tQsty0]--></g></svg>