<svg xmlns="http://www.w3.org/2000/svg" xmlns:xlink="http://www.w3.org/1999/xlink" contentStyleType="text/css" height="860px" preserveAspectRatio="none" style="width:683px;height:860px;background:#FFFFFF;" version="1.1" viewBox="0 0 683 860" width="683px" zoomAndPan="magnify"><defs/><g><!--cluster Sistema Acad?mico--><g id="cluster_Sistema Acad&#233;mico"><path d="M158.5,6 L313.2129,6 A3.75,3.75 0 0 1 315.7129,8.5 L322.7129,28.2969 L673.5,28.2969 A2.5,2.5 0 0 1 676,30.7969 L676,850.5 A2.5,2.5 0 0 1 673.5,853 L158.5,853 A2.5,2.5 0 0 1 156,850.5 L156,8.5 A2.5,2.5 0 0 1 158.5,6 " fill="none" style="stroke:#000000;stroke-width:1.5;"/><line style="stroke:#000000;stroke-width:1.5;" x1="156" x2="322.7129" y1="28.2969" y2="28.2969"/><text fill="#000000" font-family="sans-serif" font-size="14" font-weight="bold" lengthAdjust="spacing" textLength="153.7129" x="160" y="20.9951">Sistema Acad&#233;mico</text></g><g id="elem_AsignarMemoria"><ellipse cx="416.1349" cy="84.827" fill="#F1F1F1" rx="207.1349" ry="43.827" style="stroke:#181818;stroke-width:0.5;"/><text fill="#000000" font-family="sans-serif" font-size="14" lengthAdjust="spacing" textLength="388.0557" x="222.1071" y="87.6737">Asignar valores consignados en Memoria por Titulaci&#243;n</text></g><g id="elem_AsignarInformacion"><ellipse cx="415.9554" cy="204.0911" fill="#F1F1F1" rx="188.4554" ry="40.0911" style="stroke:#181818;stroke-width:0.5;"/><text fill="#000000" font-family="sans-serif" font-size="14" lengthAdjust="spacing" textLength="349.8496" x="241.0306" y="206.9378">Asignar valor de Informaci&#243;n a SIIU y DGU del PDI</text></g><g id="elem_ObtenerIndicadores"><ellipse cx="415.8954" cy="316.1791" fill="#F1F1F1" rx="173.8954" ry="37.1791" style="stroke:#181818;stroke-width:0.5;"/><text fill="#000000" font-family="sans-serif" font-size="14" lengthAdjust="spacing" textLength="319.9355" x="255.9276" y="319.0258">Obtener Indicadores para Sistema de Gesti&#243;n</text></g><g id="elem_ConsultarClaustro"><ellipse cx="415.7796" cy="439.1559" fill="#F1F1F1" rx="243.7796" ry="51.1559" style="stroke:#181818;stroke-width:0.5;"/><text fill="#000000" font-family="sans-serif" font-size="14" lengthAdjust="spacing" textLength="462.6152" x="184.472" y="442.0026">Consultar Claustro Docente (listado PDI asociado a una titulaci&#243;n)</text></g><g id="elem_ConsultarAsignacion"><ellipse cx="415.8255" cy="560.8651" fill="#F1F1F1" rx="164.8255" ry="35.3651" style="stroke:#181818;stroke-width:0.5;"/><text fill="#000000" font-family="sans-serif" font-size="14" lengthAdjust="spacing" textLength="301.2256" x="265.2127" y="563.7118">Consultar Asignacion Docente por profesor</text></g><g id="elem_ValidarCumplimiento"><ellipse cx="415.8328" cy="672.9666" fill="#F1F1F1" rx="192.8328" ry="40.9666" style="stroke:#181818;stroke-width:0.5;"/><text fill="#000000" font-family="sans-serif" font-size="14" lengthAdjust="spacing" textLength="358.8184" x="236.4236" y="675.8132">Validar cumplimiento de compromisos de memoria</text></g><g id="elem_EmitirInforme"><ellipse cx="416.1851" cy="792.837" fill="#F1F1F1" rx="207.1851" ry="43.837" style="stroke:#181818;stroke-width:0.5;"/><text fill="#000000" font-family="sans-serif" font-size="14" lengthAdjust="spacing" textLength="388.1582" x="222.106" y="795.6837">Emitir Informe del Profesorado (Global o por Titulaci&#243;n)</text></g><!--entity TecnicoCalidad--><g id="elem_TecnicoCalidad"><ellipse cx="59.187" cy="409.5" fill="#F1F1F1" rx="8" ry="8" style="stroke:#181818;stroke-width:0.5;"/><path d="M59.187,417.5 L59.187,444.5 M46.187,425.5 L72.187,425.5 M59.187,444.5 L46.187,459.5 M59.187,444.5 L72.187,459.5 " fill="none" style="stroke:#181818;stroke-width:0.5;"/><text fill="#000000" font-family="sans-serif" font-size="14" lengthAdjust="spacing" textLength="106.374" x="6" y="473.9951">TecnicoCalidad</text></g><!--link TecnicoCalidad to AsignarMemoria--><g id="link_TecnicoCalidad_AsignarMemoria"><path d="M59.94,400.9 C62.01,338.24 75.65,213.65 148,146 C169.71,125.7 191.0449,113.5983 219.4949,103.9983 " fill="none" id="TecnicoCalidad-to-AsignarMemoria" style="stroke:#181818;stroke-width:1;"/><polygon fill="#181818" points="225.18,102.08,215.3735,101.1675,220.4424,103.6786,217.9313,108.7475,225.18,102.08" style="stroke:#181818;stroke-width:1;"/></g><!--link TecnicoCalidad to AsignarInformacion--><g id="link_TecnicoCalidad_AsignarInformacion"><path d="M68.43,400.75 C79.52,359.77 103.1,295.92 148,261 C174.38,240.49 200.6887,228.5188 233.3587,219.6688 " fill="none" id="TecnicoCalidad-to-AsignarInformacion" style="stroke:#181818;stroke-width:1;"/><polygon fill="#181818" points="239.15,218.1,229.4172,216.5924,234.3239,219.4073,231.509,224.3141,239.15,218.1" style="stroke:#181818;stroke-width:1;"/></g><!--link TecnicoCalidad to ObtenerIndicadores--><g id="link_TecnicoCalidad_ObtenerIndicadores"><path d="M100.32,400.98 C114.47,389.46 131.08,377.81 148,370 C183.86,353.46 218.853,343.1687 257.653,335.1887 " fill="none" id="TecnicoCalidad-to-ObtenerIndicadores" style="stroke:#181818;stroke-width:1;"/><polygon fill="#181818" points="263.53,333.98,253.9087,331.8751,258.6325,334.9873,255.5203,339.7111,263.53,333.98" style="stroke:#181818;stroke-width:1;"/></g><!--link TecnicoCalidad to EmitirInforme--><g id="link_TecnicoCalidad_EmitirInforme"><path d="M60.02,477.2 C62.22,539.69 76.06,663.56 148,731 C169.87,751.5 191.4665,763.7471 220.1665,773.4571 " fill="none" id="TecnicoCalidad-to-EmitirInforme" style="stroke:#181818;stroke-width:1;"/><polygon fill="#181818" points="225.85,775.38,218.6066,768.7066,221.1137,773.7776,216.0428,776.2847,225.85,775.38" style="stroke:#181818;stroke-width:1;"/></g><!--link TecnicoCalidad to ConsultarClaustro--><g id="link_TecnicoCalidad_ConsultarClaustro"><path d="M112,439 C129.24,439 143.71,439 165.75,439 " fill="none" id="TecnicoCalidad-to-ConsultarClaustro" style="stroke:#181818;stroke-width:1;"/><polygon fill="#181818" points="171.75,439,162.75,435,166.75,439,162.75,443,171.75,439" style="stroke:#181818;stroke-width:1;"/></g><!--link TecnicoCalidad to ConsultarAsignacion--><g id="link_TecnicoCalidad_ConsultarAsignacion"><path d="M101.29,477.16 C115.24,488.28 131.49,499.46 148,507 C185.96,524.35 223.593,535.0008 264.323,543.0208 " fill="none" id="TecnicoCalidad-to-ConsultarAsignacion" style="stroke:#181818;stroke-width:1;"/><polygon fill="#181818" points="270.21,544.18,262.1523,538.5166,265.3042,543.214,260.6068,546.3659,270.21,544.18" style="stroke:#181818;stroke-width:1;"/></g><!--link TecnicoCalidad to ValidarCumplimiento--><g id="link_TecnicoCalidad_ValidarCumplimiento"><path d="M68.87,477.29 C80.25,517.57 103.98,579.75 148,614 C174.13,634.33 200.0738,646.3367 232.3838,655.4167 " fill="none" id="TecnicoCalidad-to-ValidarCumplimiento" style="stroke:#181818;stroke-width:1;"/><polygon fill="#181818" points="238.16,657.04,230.5778,650.7542,233.3465,655.6873,228.4135,658.4559,238.16,657.04" style="stroke:#181818;stroke-width:1;"/></g><!--SRC=[VP9DJiCm48NtESMegxBe5P2g55LT891AsK-TQHbXUoBRGKA80x7c2BqOan_IfAHab-IzR-RvsT8XGH88V7n9K70WarXyXYP9W2SodetaQBd08YlHlEAHOBRbcCWXB0qMfo-daXbyPA1F5SbWLCaoyj5ZW3Uq4YY24TzyAIG2URWd9u4HodeAfygYuTEtdm56wAoTv1yi50GRVv3WMZSWR3UR7Rp3QhtJdnOULviXiXThmX7sOP_8Kr1QmPgfsRZ4eBmkgKvQKqpzZfrXe1y3SurRsQIRvXQhc8B0IWpvH32tobHFlPoYn73zWb1vX7G-YfjcJi_vnLmRqoQia_M3whCjWnmeIXZ3pk8nxhafEe2fN6dPiMAaZcx4ASXnrFBqrRNDDCpEaWySO-QTuyIXwudQLhgbwjppjPKzMf3Bgz3cRzsTEVlCnZSI5elRo-joNJ5iVq8rKUc4QhpGXE1lO_-91arCo2OEzmS0]--></g></svg>