<svg xmlns="http://www.w3.org/2000/svg" xmlns:xlink="http://www.w3.org/1999/xlink" contentStyleType="text/css" height="539px" preserveAspectRatio="none" style="width:929px;height:539px;background:#FFFFFF;" version="1.1" viewBox="0 0 929 539" width="929px" zoomAndPan="magnify"><defs/><g><ellipse cx="182" cy="16" fill="#222222" rx="10" ry="10" style="stroke:#222222;stroke-width:1;"/><g id="Inicio"><rect fill="#F1F1F1" height="50" rx="12.5" ry="12.5" style="stroke:#181818;stroke-width:0.5;" width="57.0439" x="153.48" y="87"/><line style="stroke:#181818;stroke-width:0.5;" x1="153.48" x2="210.5239" y1="113.2969" y2="113.2969"/><text fill="#000000" font-family="sans-serif" font-size="14" lengthAdjust="spacing" textLength="37.0439" x="163.48" y="104.9951">Inicio</text></g><g id="Usuario"><rect fill="#F1F1F1" height="50" rx="12.5" ry="12.5" style="stroke:#181818;stroke-width:0.5;" width="73.2041" x="63.4" y="214"/><line style="stroke:#181818;stroke-width:0.5;" x1="63.4" x2="136.6041" y1="240.2969" y2="240.2969"/><text fill="#000000" font-family="sans-serif" font-size="14" lengthAdjust="spacing" textLength="53.2041" x="73.4" y="231.9951">Usuario</text></g><g id="Moderador"><rect fill="#F1F1F1" height="50" rx="12.5" ry="12.5" style="stroke:#181818;stroke-width:0.5;" width="95.6875" x="217.16" y="341"/><line style="stroke:#181818;stroke-width:0.5;" x1="217.16" x2="312.8475" y1="367.2969" y2="367.2969"/><text fill="#000000" font-family="sans-serif" font-size="14" lengthAdjust="spacing" textLength="75.6875" x="227.16" y="358.9951">Moderador</text></g><g id="Publicaciones"><rect fill="#F1F1F1" height="50" rx="12.5" ry="12.5" style="stroke:#181818;stroke-width:0.5;" width="115.1904" x="807.4" y="483"/><line style="stroke:#181818;stroke-width:0.5;" x1="807.4" x2="922.5904" y1="509.2969" y2="509.2969"/><text fill="#000000" font-family="sans-serif" font-size="14" lengthAdjust="spacing" textLength="95.1904" x="817.4" y="500.9951">Publicaciones</text></g><g id="Reportes"><rect fill="#F1F1F1" height="50" rx="12.5" ry="12.5" style="stroke:#181818;stroke-width:0.5;" width="82.9453" x="80.53" y="483"/><line style="stroke:#181818;stroke-width:0.5;" x1="80.53" x2="163.4753" y1="509.2969" y2="509.2969"/><text fill="#000000" font-family="sans-serif" font-size="14" lengthAdjust="spacing" textLength="62.9453" x="90.53" y="500.9951">Reportes</text></g><g id="Usuarios"><rect fill="#F1F1F1" height="50" rx="12.5" ry="12.5" style="stroke:#181818;stroke-width:0.5;" width="80.498" x="224.75" y="483"/><line style="stroke:#181818;stroke-width:0.5;" x1="224.75" x2="305.248" y1="509.2969" y2="509.2969"/><text fill="#000000" font-family="sans-serif" font-size="14" lengthAdjust="spacing" textLength="60.498" x="234.75" y="500.9951">Usuarios</text></g><g id="Aplicacion"><rect fill="#F1F1F1" height="50" rx="12.5" ry="12.5" style="stroke:#181818;stroke-width:0.5;" width="91.5449" x="407.23" y="483"/><line style="stroke:#181818;stroke-width:0.5;" x1="407.23" x2="498.7749" y1="509.2969" y2="509.2969"/><text fill="#000000" font-family="sans-serif" font-size="14" lengthAdjust="spacing" textLength="71.5449" x="417.23" y="500.9951">Aplicacion</text></g><g id="Comunidades"><rect fill="#F1F1F1" height="50" rx="12.5" ry="12.5" style="stroke:#181818;stroke-width:0.5;" width="115.874" x="656.06" y="483"/><line style="stroke:#181818;stroke-width:0.5;" x1="656.06" x2="771.934" y1="509.2969" y2="509.2969"/><text fill="#000000" font-family="sans-serif" font-size="14" lengthAdjust="spacing" textLength="95.874" x="666.06" y="500.9951">Comunidades</text></g><ellipse cx="17" cy="508" fill="none" rx="11" ry="11" style="stroke:#222222;stroke-width:1;"/><ellipse cx="17" cy="508" fill="#222222" rx="6" ry="6" style="stroke:#222222;stroke-width:1;"/><!--link *start* to Inicio--><g id="link_*start*_Inicio"><path d="M182,26.36 C182,40.29 182,60.95 182,80.65 " fill="none" id="*start*-to-Inicio" style="stroke:#181818;stroke-width:1;"/><polygon fill="#181818" points="182,86.65,186,77.65,182,81.65,178,77.65,182,86.65" style="stroke:#181818;stroke-width:1;"/></g><!--link Inicio to Usuario--><g id="link_Inicio_Usuario"><path d="M153.14,122.82 C133.45,131.21 108.87,145.4 97,167 C89.28,181.06 89.0445,193.2565 91.7945,207.6565 " fill="none" id="Inicio-to-Usuario" style="stroke:#181818;stroke-width:1;"/><polygon fill="#181818" points="92.92,213.55,95.1608,203.9594,91.9821,208.6388,87.3028,205.4601,92.92,213.55" style="stroke:#181818;stroke-width:1;"/><text fill="#000000" font-family="sans-serif" font-size="13" lengthAdjust="spacing" textLength="140.3784" x="98" y="180.0669">Elije perfi de ususario</text></g><!--link Inicio to Moderador--><g id="link_Inicio_Moderador"><path d="M210.95,131.44 C222.89,140.63 235.64,152.81 243,167 C272.38,223.65 271.3223,295.5094 268.1723,334.5694 " fill="none" id="Inicio-to-Moderador" style="stroke:#181818;stroke-width:1;"/><polygon fill="#181818" points="267.69,340.55,272.4005,331.9007,268.0919,335.5662,264.4264,331.2576,267.69,340.55" style="stroke:#181818;stroke-width:1;"/><text fill="#000000" font-family="sans-serif" font-size="13" lengthAdjust="spacing" textLength="159.3706" x="268" y="243.5669">Elije perfil de Moderador</text></g><!--link Usuario to Moderador--><g id="link_Usuario_Moderador"><path d="M105.22,264.45 C109.58,279.58 117.2,298.44 130,311 C153.61,334.16 182.6127,346.1665 210.9727,353.9265 " fill="none" id="Usuario-to-Moderador" style="stroke:#181818;stroke-width:1;"/><polygon fill="#181818" points="216.76,355.51,209.1348,349.2765,211.9373,354.1904,207.0234,356.9929,216.76,355.51" style="stroke:#181818;stroke-width:1;"/><text fill="#000000" font-family="sans-serif" font-size="13" lengthAdjust="spacing" textLength="107.4468" x="131" y="307.0669">Cambia de perfil</text></g><!--link Moderador to Publicaciones--><g id="link_Moderador_Publicaciones"><path d="M313.16,369.15 C419.51,374.41 671.21,389.85 750,421 C785.24,434.93 814.7737,458.5568 836.5337,478.7668 " fill="none" id="Moderador-to-Publicaciones" style="stroke:#181818;stroke-width:1;"/><polygon fill="#181818" points="840.93,482.85,837.0576,473.7944,837.2664,479.4474,831.6134,479.6561,840.93,482.85" style="stroke:#181818;stroke-width:1;"/><text fill="#000000" font-family="sans-serif" font-size="13" lengthAdjust="spacing" textLength="106.7358" x="805" y="434.0669">Revisa y elimina</text><text fill="#000000" font-family="sans-serif" font-size="13" lengthAdjust="spacing" textLength="88.8037" x="813.9661" y="449.1997">publicaciones</text></g><!--link Moderador to Reportes--><g id="link_Moderador_Reportes"><path d="M216.88,380.11 C194.17,388.49 168.32,401.53 151,421 C135.71,438.19 129.5111,457.8482 126.0711,476.6282 " fill="none" id="Moderador-to-Reportes" style="stroke:#181818;stroke-width:1;"/><polygon fill="#181818" points="124.99,482.53,130.5461,474.398,125.8909,477.6118,122.677,472.9566,124.99,482.53" style="stroke:#181818;stroke-width:1;"/><text fill="#000000" font-family="sans-serif" font-size="13" lengthAdjust="spacing" textLength="101.9688" x="152" y="434.0669">Revisa reportes</text><text fill="#000000" font-family="sans-serif" font-size="13" lengthAdjust="spacing" textLength="84.8745" x="160.5471" y="449.1997">de contenido</text></g><!--link Moderador to Usuarios--><g id="link_Moderador_Usuarios"><path d="M263.35,391.45 C262.81,400.7 262.27,411.33 262,421 C261.61,435.22 261.61,438.78 262,453 C262.27,462.67 262.4603,467.3102 263.0003,476.5602 " fill="none" id="Moderador-to-Usuarios" style="stroke:#181818;stroke-width:1;"/><polygon fill="#181818" points="263.35,482.55,266.8187,473.3322,263.0586,477.5585,258.8323,473.7984,263.35,482.55" style="stroke:#181818;stroke-width:1;"/><text fill="#000000" font-family="sans-serif" font-size="13" lengthAdjust="spacing" textLength="125.6772" x="273.3689" y="434.0669">Advierte, suspende</text><text fill="#000000" font-family="sans-serif" font-size="13" lengthAdjust="spacing" textLength="146.415" x="263" y="449.1997">o desbloquea usuarios</text></g><!--link Moderador to Aplicacion--><g id="link_Moderador_Aplicacion"><path d="M313.02,374.41 C345,381.54 386.12,395.22 414,421 C431.81,437.47 440.4093,457.8715 445.8893,477.0215 " fill="none" id="Moderador-to-Aplicacion" style="stroke:#181818;stroke-width:1;"/><polygon fill="#181818" points="447.54,482.79,448.9096,473.0368,446.1644,477.9829,441.2183,475.2378,447.54,482.79" style="stroke:#181818;stroke-width:1;"/><text fill="#000000" font-family="sans-serif" font-size="13" lengthAdjust="spacing" textLength="195.165" x="449.0256" y="434.0669">Comunica cambios de pol&#237;tica</text><text fill="#000000" font-family="sans-serif" font-size="13" lengthAdjust="spacing" textLength="219.2163" x="437" y="449.1997">y bloquea palabras o expresiones</text></g><!--link Moderador to Comunidades--><g id="link_Moderador_Comunidades"><path d="M313.02,368.24 C406.44,371.49 608.44,382.84 665,421 C686.51,435.51 697.6541,457.186 704.8541,477.146 " fill="none" id="Moderador-to-Comunidades" style="stroke:#181818;stroke-width:1;"/><polygon fill="#181818" points="706.89,482.79,707.5988,472.9667,705.1934,478.0866,700.0734,475.6812,706.89,482.79" style="stroke:#181818;stroke-width:1;"/><text fill="#000000" font-family="sans-serif" font-size="13" lengthAdjust="spacing" textLength="47.9185" x="694" y="441.5669">Elimina</text></g><!--link Usuario to *end*--><g id="link_Usuario_*end*"><path d="M92.49,264.17 C74.97,320.52 33.7811,453.0305 21.8811,491.3105 " fill="none" id="Usuario-to-*end*" style="stroke:#181818;stroke-width:1;"/><polygon fill="#181818" points="20.1,497.04,26.5914,489.6331,21.5843,492.2654,18.952,487.2583,20.1,497.04" style="stroke:#181818;stroke-width:1;"/><text fill="#000000" font-family="sans-serif" font-size="13" lengthAdjust="spacing" textLength="48.8706" x="70" y="370.5669">Log out</text></g><!--link Moderador to *end*--><g id="link_Moderador_*end*"><path d="M216.83,376.24 C182.41,384.35 136.01,398.44 100,421 C65.71,442.48 39.0181,476.2797 26.5681,493.4797 " fill="none" id="Moderador-to-*end*" style="stroke:#181818;stroke-width:1;"/><polygon fill="#181818" points="23.05,498.34,31.5674,493.3949,25.9817,494.2897,25.0869,488.7041,23.05,498.34" style="stroke:#181818;stroke-width:1;"/><text fill="#000000" font-family="sans-serif" font-size="13" lengthAdjust="spacing" textLength="23.4482" x="101" y="441.5669">Log</text></g><!--SRC=[RP71QiCm38RlUGgTH_i2FGpAwA7GmIZirEoWnEhGS2pFZalxK7kAlLZbfEbIivEDz7-_zSk7fmzOBfzXwxXbgSPZgBp7X47lAzXO_YBm58uCXY3557DdBduLGm6DX4UvpVfxhveiI-85kuOnQqUg-cjcwLjgBBUeRpcAAj_JYIF21SXonmvhv-UAWjwJbz3FmN2hr4vVRCNrvDX8WTrcpTZQd9WKM80czwHKxKIdZOsLxqIODp9e2ukrduRA6QLBkY-4DeTLtvnMxEzFhyNQNM0oysYn2HX1WCu-KFmlrEXcq0ovDkCU7lPxq8zTmKu-GL9VqFVU5G00]--></g></svg>