<svg xmlns="http://www.w3.org/2000/svg" xmlns:xlink="http://www.w3.org/1999/xlink" contentStyleType="text/css" height="638px" preserveAspectRatio="none" style="width:767px;height:638px;background:#FFFFFF;" version="1.1" viewBox="0 0 767 638" width="767px" zoomAndPan="magnify"><defs/><g><ellipse cx="395.76" cy="16" fill="#222222" rx="10" ry="10" style="stroke:#222222;stroke-width:1;"/><g id="Inicio"><rect fill="#F1F1F1" height="50" rx="12.5" ry="12.5" style="stroke:#181818;stroke-width:0.5;" width="57.0439" x="367.24" y="87"/><line style="stroke:#181818;stroke-width:0.5;" x1="367.24" x2="424.2839" y1="113.2969" y2="113.2969"/><text fill="#000000" font-family="sans-serif" font-size="14" lengthAdjust="spacing" textLength="37.0439" x="377.24" y="104.9951">Inicio</text></g><g id="Usuario"><rect fill="#F1F1F1" height="50" rx="12.5" ry="12.5" style="stroke:#181818;stroke-width:0.5;" width="73.2041" x="359.16" y="229"/><line style="stroke:#181818;stroke-width:0.5;" x1="359.16" x2="432.3641" y1="255.2969" y2="255.2969"/><text fill="#000000" font-family="sans-serif" font-size="14" lengthAdjust="spacing" textLength="53.2041" x="369.16" y="246.9951">Usuario</text></g><g id="Dashboard"><rect fill="#F1F1F1" height="50" rx="12.5" ry="12.5" style="stroke:#181818;stroke-width:0.5;" width="96.2002" x="347.66" y="356"/><line style="stroke:#181818;stroke-width:0.5;" x1="347.66" x2="443.8602" y1="382.2969" y2="382.2969"/><text fill="#000000" font-family="sans-serif" font-size="14" lengthAdjust="spacing" textLength="76.2002" x="357.66" y="373.9951">Dashboard</text></g><g id="Perfil"><rect fill="#F1F1F1" height="50" rx="12.5" ry="12.5" style="stroke:#181818;stroke-width:0.5;" width="55.5195" x="7" y="483"/><line style="stroke:#181818;stroke-width:0.5;" x1="7" x2="62.5195" y1="509.2969" y2="509.2969"/><text fill="#000000" font-family="sans-serif" font-size="14" lengthAdjust="spacing" textLength="35.5195" x="17" y="500.9951">Perfil</text></g><g id="Comunidades"><rect fill="#F1F1F1" height="50" rx="12.5" ry="12.5" style="stroke:#181818;stroke-width:0.5;" width="115.874" x="161.82" y="483"/><line style="stroke:#181818;stroke-width:0.5;" x1="161.82" x2="277.694" y1="509.2969" y2="509.2969"/><text fill="#000000" font-family="sans-serif" font-size="14" lengthAdjust="spacing" textLength="95.874" x="171.82" y="500.9951">Comunidades</text></g><g id="Ajustes"><rect fill="#F1F1F1" height="50" rx="12.5" ry="12.5" style="stroke:#181818;stroke-width:0.5;" width="71.0303" x="344.24" y="483"/><line style="stroke:#181818;stroke-width:0.5;" x1="344.24" x2="415.2703" y1="509.2969" y2="509.2969"/><text fill="#000000" font-family="sans-serif" font-size="14" lengthAdjust="spacing" textLength="51.0303" x="354.24" y="500.9951">Ajustes</text></g><g id="Etiqueta"><rect fill="#F1F1F1" height="50" rx="12.5" ry="12.5" style="stroke:#181818;stroke-width:0.5;" width="78.666" x="593.43" y="483"/><line style="stroke:#181818;stroke-width:0.5;" x1="593.43" x2="672.096" y1="509.2969" y2="509.2969"/><text fill="#000000" font-family="sans-serif" font-size="14" lengthAdjust="spacing" textLength="58.666" x="603.43" y="500.9951">Etiqueta</text></g><ellipse cx="298.76" cy="621" fill="none" rx="11" ry="11" style="stroke:#222222;stroke-width:1;"/><ellipse cx="298.76" cy="621" fill="#222222" rx="6" ry="6" style="stroke:#222222;stroke-width:1;"/><!--link *start* to Inicio--><g id="link_*start*_Inicio"><path d="M395.76,26.36 C395.76,40.29 395.76,60.95 395.76,80.65 " fill="none" id="*start*-to-Inicio" style="stroke:#181818;stroke-width:1;"/><polygon fill="#181818" points="395.76,86.65,399.76,77.65,395.76,81.65,391.76,77.65,395.76,86.65" style="stroke:#181818;stroke-width:1;"/></g><!--link Inicio to Usuario--><g id="link_Inicio_Usuario"><path d="M395.76,137.39 C395.76,163.08 395.76,197.3 395.76,222.89 " fill="none" id="Inicio-to-Usuario" style="stroke:#181818;stroke-width:1;"/><polygon fill="#181818" points="395.76,228.89,399.76,219.89,395.76,223.89,391.76,219.89,395.76,228.89" style="stroke:#181818;stroke-width:1;"/><text fill="#000000" font-family="sans-serif" font-size="13" lengthAdjust="spacing" textLength="39.4316" x="399.2134" y="180.0669">Log in</text><text fill="#000000" font-family="sans-serif" font-size="13" lengthAdjust="spacing" textLength="44.3384" x="396.76" y="195.1997">Sign in</text></g><!--link Usuario to Dashboard--><g id="link_Usuario_Dashboard"><path d="M395.76,279.4 C395.76,301.42 395.76,327.66 395.76,349.66 " fill="none" id="Usuario-to-Dashboard" style="stroke:#181818;stroke-width:1;"/><polygon fill="#181818" points="395.76,355.66,399.76,346.66,395.76,350.66,391.76,346.66,395.76,355.66" style="stroke:#181818;stroke-width:1;"/><text fill="#000000" font-family="sans-serif" font-size="13" lengthAdjust="spacing" textLength="156.3872" x="396.76" y="322.0669">ve las etiquetas a elegir</text></g><!--link Dashboard to Perfil--><g id="link_Dashboard_Perfil"><path d="M347.19,384.67 C267.34,389.92 112.89,403.99 69.76,436 C54.64,447.22 47.5163,461.0579 42.4563,476.7979 " fill="none" id="Dashboard-to-Perfil" style="stroke:#181818;stroke-width:1;"/><polygon fill="#181818" points="40.62,482.51,47.1825,475.166,42.1502,477.7499,39.5664,472.7177,40.62,482.51" style="stroke:#181818;stroke-width:1;"/><text fill="#000000" font-family="sans-serif" font-size="13" lengthAdjust="spacing" textLength="92.3457" x="70.76" y="449.0669">Entra en Perfil</text></g><!--link Dashboard to Comunidades--><g id="link_Dashboard_Comunidades"><path d="M347.24,387 C289.04,394.11 196.66,409.35 175.76,436 C164.22,450.72 171.2585,464.3663 185.2685,478.5163 " fill="none" id="Dashboard-to-Comunidades" style="stroke:#181818;stroke-width:1;"/><polygon fill="#181818" points="189.49,482.78,186.0002,473.5701,185.9721,479.2269,180.3153,479.1988,189.49,482.78" style="stroke:#181818;stroke-width:1;"/><text fill="#000000" font-family="sans-serif" font-size="13" lengthAdjust="spacing" textLength="202.0142" x="176.76" y="449.0669">Ve las comunidades existentes</text></g><!--link Dashboard to Ajustes--><g id="link_Dashboard_Ajustes"><path d="M392.64,406.4 C389.82,428.42 386.4528,454.7087 383.6328,476.7087 " fill="none" id="Dashboard-to-Ajustes" style="stroke:#181818;stroke-width:1;"/><polygon fill="#181818" points="382.87,482.66,387.9818,474.2416,383.5057,477.7006,380.0467,473.2245,382.87,482.66" style="stroke:#181818;stroke-width:1;"/><text fill="#000000" font-family="sans-serif" font-size="13" lengthAdjust="spacing" textLength="195.4126" x="389.76" y="449.0669">ve los ajustes de la Aplicacion</text></g><!--link Dashboard to Etiqueta--><g id="link_Dashboard_Etiqueta"><path d="M444.06,384.67 C487.36,389.31 550.52,401.93 593.76,436 C608.78,447.84 616.6391,461.5622 622.7791,477.0522 " fill="none" id="Dashboard-to-Etiqueta" style="stroke:#181818;stroke-width:1;"/><polygon fill="#181818" points="624.99,482.63,625.3921,472.7894,623.1475,477.9818,617.9551,475.7373,624.99,482.63" style="stroke:#181818;stroke-width:1;"/><text fill="#000000" font-family="sans-serif" font-size="13" lengthAdjust="spacing" textLength="95.4243" x="608.76" y="449.0669">Elegir etiqueta</text></g><!--link Comunidades to *end*--><g id="link_Comunidades_*end*"><path d="M227.71,533.46 C233.11,547.86 241.2,565.95 251.76,580 C262.58,594.39 274.4872,603.7333 284.7972,610.7833 " fill="none" id="Comunidades-to-*end*" style="stroke:#181818;stroke-width:1;"/><polygon fill="#181818" points="289.75,614.17,284.5786,605.7881,285.6227,611.3477,280.063,612.3918,289.75,614.17" style="stroke:#181818;stroke-width:1;"/><text fill="#000000" font-family="sans-serif" font-size="13" lengthAdjust="spacing" textLength="48.8706" x="252.76" y="576.0669">Log out</text></g><!--link Dashboard to *end*--><g id="link_Dashboard_*end*"><path d="M444.13,382.93 C524.23,385.6 678.96,395.95 712.76,436 C717.63,441.77 713.81,445.52 712.76,453 C707.6,489.63 716.71,507.65 689.76,533 C632.14,587.2 374.1157,613.2407 316.0557,618.4807 " fill="none" id="Dashboard-to-*end*" style="stroke:#181818;stroke-width:1;"/><polygon fill="#181818" points="310.08,619.02,319.4031,622.1948,315.0598,618.5706,318.684,614.2272,310.08,619.02" style="stroke:#181818;stroke-width:1;"/><text fill="#000000" font-family="sans-serif" font-size="13" lengthAdjust="spacing" textLength="48.8706" x="710.76" y="512.5669">Log out</text></g><!--link Perfil to *end*--><g id="link_Perfil_*end*"><path d="M62.91,523.55 C92.56,538.62 140.82,562.36 183.76,580 C221.5,595.5 261.9723,608.5731 282.4223,614.9531 " fill="none" id="Perfil-to-*end*" style="stroke:#181818;stroke-width:1;"/><polygon fill="#181818" points="288.15,616.74,280.7497,610.2411,283.3769,615.2509,278.3671,617.8781,288.15,616.74" style="stroke:#181818;stroke-width:1;"/><text fill="#000000" font-family="sans-serif" font-size="13" lengthAdjust="spacing" textLength="48.8706" x="184.76" y="576.0669">Log out</text></g><!--link Ajustes to *end*--><g id="link_Ajustes_*end*"><path d="M361.98,533.36 C343.91,558.12 320.4566,590.2631 308.4466,606.7231 " fill="none" id="Ajustes-to-*end*" style="stroke:#181818;stroke-width:1;"/><polygon fill="#181818" points="304.91,611.57,313.4461,606.6573,307.8571,607.5309,306.9835,601.9419,304.91,611.57" style="stroke:#181818;stroke-width:1;"/><text fill="#000000" font-family="sans-serif" font-size="13" lengthAdjust="spacing" textLength="48.8706" x="340.76" y="576.0669">Log out</text></g><!--SRC=[PL0x3i8m3DrpYin8lG03KWKTa1YG42o58RIc60K7ya4S7wTDeRHPOhsVdbtEJZBB5d9DMA4HtTSYUnUKvNakDwQHI4VQOKCyY9w9gfLorxDHjcRT2wHMJeB7Pm3FavAWeK4hVghesOAze6P3GTwoXX8oaYtDFH3MgWR7saCNNWr0UAFpG1xSo9dV0XCkLJ9S905r397vGsEbU4yQ-OhKF5PhYtzt4TqRLeg6ag_NtSS4FmhxvzBEKwBlEc4-]--></g></svg>