<?xml version="1.0" encoding="us-ascii" standalone="no"?><svg xmlns="http://www.w3.org/2000/svg" xmlns:xlink="http://www.w3.org/1999/xlink" contentStyleType="text/css" height="658px" preserveAspectRatio="none" style="width:848px;height:658px;background:#FFFFFF;" version="1.1" viewBox="0 0 848 658" width="848px" zoomAndPan="magnify"><defs/><g><text fill="#000000" font-family="sans-serif" font-size="14" font-weight="bold" lengthAdjust="spacing" textLength="388" x="223.25" y="24.5332">Diagrama de Clases de Plataforma de Gesti&#243;n de Becas</text><!--class PLATAFORMA--><g id="elem_PLATAFORMA"><rect codeLine="6" fill="#F1F1F1" height="57.6094" id="PLATAFORMA" rx="2.5" ry="2.5" style="stroke:#181818;stroke-width:0.5;" width="126" x="328.5" y="45.6094"/><ellipse cx="343.5" cy="61.6094" fill="#ADD1B2" rx="11" ry="11" style="stroke:#181818;stroke-width:1.0;"/><path d="M346.2656,57.4844 Q346.4219,57.2656 346.6094,57.1563 Q346.7969,57.0469 347.0156,57.0469 Q347.3906,57.0469 347.625,57.3047 Q347.8594,57.5625 347.8594,58.1719 L347.8594,59.625 Q347.8594,60.2344 347.625,60.5 Q347.3906,60.7656 347.0156,60.7656 Q346.6719,60.7656 346.4688,60.5625 Q346.2656,60.375 346.1563,59.8594 Q346.1094,59.5 345.9219,59.3125 Q345.5938,58.9375 344.9844,58.7188 Q344.375,58.5 343.75,58.5 Q342.9844,58.5 342.3516,58.8281 Q341.7188,59.1563 341.2266,59.9063 Q340.7344,60.6563 340.7344,61.6875 L340.7344,62.7813 Q340.7344,64.0156 341.625,64.8359 Q342.5156,65.6563 344.1094,65.6563 Q345.0469,65.6563 345.7031,65.4063 Q346.0938,65.25 346.5156,64.8125 Q346.7813,64.5469 346.9297,64.4688 Q347.0781,64.3906 347.2813,64.3906 Q347.6094,64.3906 347.8672,64.6484 Q348.125,64.9063 348.125,65.25 Q348.125,65.5938 347.7813,66 Q347.2813,66.5781 346.4844,66.9063 Q345.4063,67.3594 344.1094,67.3594 Q342.5938,67.3594 341.3906,66.7344 Q340.4063,66.2344 339.7188,65.1641 Q339.0313,64.0938 339.0313,62.8125 L339.0313,61.6563 Q339.0313,60.3281 339.6484,59.1797 Q340.2656,58.0313 341.3594,57.4141 Q342.4531,56.7969 343.6875,56.7969 Q344.4219,56.7969 345.0703,56.9609 Q345.7188,57.125 346.2656,57.4844 Z " fill="#000000"/><text fill="#000000" font-family="sans-serif" font-size="14" lengthAdjust="spacing" textLength="94" x="357.5" y="67.3379">PLATAFORMA</text><line style="stroke:#181818;stroke-width:0.5;" x1="329.5" x2="453.5" y1="77.6094" y2="77.6094"/><text fill="#000000" font-family="sans-serif" font-size="14" lengthAdjust="spacing" textLength="39" x="334.5" y="96.1426">Novus</text></g><!--class ESTAD?STICA--><g id="elem_ESTAD&#205;STICA"><rect codeLine="10" fill="#F1F1F1" height="32" id="ESTAD&#205;STICA" rx="2.5" ry="2.5" style="stroke:#181818;stroke-width:0.5;" width="121" x="7" y="238.6094"/><ellipse cx="22" cy="254.6094" fill="#ADD1B2" rx="11" ry="11" style="stroke:#181818;stroke-width:1.0;"/><path d="M24.7656,250.4844 Q24.9219,250.2656 25.1094,250.1563 Q25.2969,250.0469 25.5156,250.0469 Q25.8906,250.0469 26.125,250.3047 Q26.3594,250.5625 26.3594,251.1719 L26.3594,252.625 Q26.3594,253.2344 26.125,253.5 Q25.8906,253.7656 25.5156,253.7656 Q25.1719,253.7656 24.9688,253.5625 Q24.7656,253.375 24.6563,252.8594 Q24.6094,252.5 24.4219,252.3125 Q24.0938,251.9375 23.4844,251.7188 Q22.875,251.5 22.25,251.5 Q21.4844,251.5 20.8516,251.8281 Q20.2188,252.1563 19.7266,252.9063 Q19.2344,253.6563 19.2344,254.6875 L19.2344,255.7813 Q19.2344,257.0156 20.125,257.8359 Q21.0156,258.6563 22.6094,258.6563 Q23.5469,258.6563 24.2031,258.4063 Q24.5938,258.25 25.0156,257.8125 Q25.2813,257.5469 25.4297,257.4688 Q25.5781,257.3906 25.7813,257.3906 Q26.1094,257.3906 26.3672,257.6484 Q26.625,257.9063 26.625,258.25 Q26.625,258.5938 26.2813,259 Q25.7813,259.5781 24.9844,259.9063 Q23.9063,260.3594 22.6094,260.3594 Q21.0938,260.3594 19.8906,259.7344 Q18.9063,259.2344 18.2188,258.1641 Q17.5313,257.0938 17.5313,255.8125 L17.5313,254.6563 Q17.5313,253.3281 18.1484,252.1797 Q18.7656,251.0313 19.8594,250.4141 Q20.9531,249.7969 22.1875,249.7969 Q22.9219,249.7969 23.5703,249.9609 Q24.2188,250.125 24.7656,250.4844 Z " fill="#000000"/><text fill="#000000" font-family="sans-serif" font-size="14" lengthAdjust="spacing" textLength="89" x="36" y="260.3379">ESTAD&#205;STICA</text></g><!--class USUARIO--><g id="elem_USUARIO"><rect codeLine="13" fill="#F1F1F1" height="145.6563" id="USUARIO" rx="2.5" ry="2.5" style="stroke:#181818;stroke-width:0.5;" width="145" x="163" y="181.6094"/><ellipse cx="200.5" cy="197.6094" fill="#A9DCDF" rx="11" ry="11" style="stroke:#181818;stroke-width:1.0;"/><path d="M202.6875,199.375 L198.5469,199.375 L198.125,200.4063 L198.5469,200.4063 Q199.1563,200.4063 199.4219,200.6406 Q199.6875,200.875 199.6875,201.2656 Q199.6875,201.6406 199.4219,201.875 Q199.1563,202.1094 198.5469,202.1094 L196.25,202.1094 Q195.6406,202.1094 195.3828,201.875 Q195.125,201.6406 195.125,201.25 Q195.125,200.875 195.3984,200.6328 Q195.6719,200.3906 196.2969,200.4063 L198.9688,193.75 L197.8594,193.75 Q197.25,193.75 196.9844,193.5156 Q196.7188,193.2813 196.7188,192.8906 Q196.7188,192.5156 196.9844,192.2813 Q197.25,192.0469 197.8594,192.0469 L201.5313,192.0469 L204.9219,200.4063 Q205.5156,200.4063 205.7031,200.5469 Q206.0938,200.8125 206.0938,201.2656 Q206.0938,201.6406 205.8359,201.875 Q205.5781,202.1094 204.9688,202.1094 L202.6719,202.1094 Q202.0625,202.1094 201.7969,201.875 Q201.5313,201.6406 201.5313,201.25 Q201.5313,200.875 201.7969,200.6406 Q202.0625,200.4063 202.6719,200.4063 L203.0938,200.4063 L202.6875,199.375 Z M201.9688,197.6719 L200.6094,194.2969 L199.2344,197.6719 L201.9688,197.6719 Z " fill="#000000"/><text fill="#000000" font-family="sans-serif" font-size="14" font-style="italic" lengthAdjust="spacing" textLength="63" x="219.5" y="203.3379">USUARIO</text><line style="stroke:#181818;stroke-width:0.5;" x1="164" x2="307" y1="213.6094" y2="213.6094"/><text fill="#000000" font-family="sans-serif" font-size="14" lengthAdjust="spacing" textLength="13" x="169" y="232.1426">ID</text><text fill="#000000" font-family="sans-serif" font-size="14" lengthAdjust="spacing" textLength="49" x="169" y="249.752">Nombre</text><text fill="#000000" font-family="sans-serif" font-size="14" lengthAdjust="spacing" textLength="50" x="169" y="267.3613">Apellido</text><text fill="#000000" font-family="sans-serif" font-size="14" lengthAdjust="spacing" textLength="133" x="169" y="284.9707">Fecha de Nacimiento</text><text fill="#000000" font-family="sans-serif" font-size="14" lengthAdjust="spacing" textLength="34" x="169" y="302.5801">Email</text><text fill="#000000" font-family="sans-serif" font-size="14" lengthAdjust="spacing" textLength="85" x="169" y="320.1895">Foto de Perfil</text></g><!--class ADMINISTRADOR--><g id="elem_ADMINISTRADOR"><rect codeLine="22" fill="#F1F1F1" height="32" id="ADMINISTRADOR" rx="2.5" ry="2.5" style="stroke:#181818;stroke-width:0.5;" width="145" x="363" y="444.6094"/><ellipse cx="378" cy="460.6094" fill="#ADD1B2" rx="11" ry="11" style="stroke:#181818;stroke-width:1.0;"/><path d="M380.7656,456.4844 Q380.9219,456.2656 381.1094,456.1563 Q381.2969,456.0469 381.5156,456.0469 Q381.8906,456.0469 382.125,456.3047 Q382.3594,456.5625 382.3594,457.1719 L382.3594,458.625 Q382.3594,459.2344 382.125,459.5 Q381.8906,459.7656 381.5156,459.7656 Q381.1719,459.7656 380.9688,459.5625 Q380.7656,459.375 380.6563,458.8594 Q380.6094,458.5 380.4219,458.3125 Q380.0938,457.9375 379.4844,457.7188 Q378.875,457.5 378.25,457.5 Q377.4844,457.5 376.8516,457.8281 Q376.2188,458.1563 375.7266,458.9063 Q375.2344,459.6563 375.2344,460.6875 L375.2344,461.7813 Q375.2344,463.0156 376.125,463.8359 Q377.0156,464.6563 378.6094,464.6563 Q379.5469,464.6563 380.2031,464.4063 Q380.5938,464.25 381.0156,463.8125 Q381.2813,463.5469 381.4297,463.4688 Q381.5781,463.3906 381.7813,463.3906 Q382.1094,463.3906 382.3672,463.6484 Q382.625,463.9063 382.625,464.25 Q382.625,464.5938 382.2813,465 Q381.7813,465.5781 380.9844,465.9063 Q379.9063,466.3594 378.6094,466.3594 Q377.0938,466.3594 375.8906,465.7344 Q374.9063,465.2344 374.2188,464.1641 Q373.5313,463.0938 373.5313,461.8125 L373.5313,460.6563 Q373.5313,459.3281 374.1484,458.1797 Q374.7656,457.0313 375.8594,456.4141 Q376.9531,455.7969 378.1875,455.7969 Q378.9219,455.7969 379.5703,455.9609 Q380.2188,456.125 380.7656,456.4844 Z " fill="#000000"/><text fill="#000000" font-family="sans-serif" font-size="14" lengthAdjust="spacing" textLength="113" x="392" y="466.3379">ADMINISTRADOR</text></g><!--class PRUEBAS--><g id="elem_PRUEBAS"><rect codeLine="25" fill="#F1F1F1" height="32" id="PRUEBAS" rx="2.5" ry="2.5" style="stroke:#181818;stroke-width:0.5;" width="96" x="343.5" y="238.6094"/><ellipse cx="358.5" cy="254.6094" fill="#ADD1B2" rx="11" ry="11" style="stroke:#181818;stroke-width:1.0;"/><path d="M361.2656,250.4844 Q361.4219,250.2656 361.6094,250.1563 Q361.7969,250.0469 362.0156,250.0469 Q362.3906,250.0469 362.625,250.3047 Q362.8594,250.5625 362.8594,251.1719 L362.8594,252.625 Q362.8594,253.2344 362.625,253.5 Q362.3906,253.7656 362.0156,253.7656 Q361.6719,253.7656 361.4688,253.5625 Q361.2656,253.375 361.1563,252.8594 Q361.1094,252.5 360.9219,252.3125 Q360.5938,251.9375 359.9844,251.7188 Q359.375,251.5 358.75,251.5 Q357.9844,251.5 357.3516,251.8281 Q356.7188,252.1563 356.2266,252.9063 Q355.7344,253.6563 355.7344,254.6875 L355.7344,255.7813 Q355.7344,257.0156 356.625,257.8359 Q357.5156,258.6563 359.1094,258.6563 Q360.0469,258.6563 360.7031,258.4063 Q361.0938,258.25 361.5156,257.8125 Q361.7813,257.5469 361.9297,257.4688 Q362.0781,257.3906 362.2813,257.3906 Q362.6094,257.3906 362.8672,257.6484 Q363.125,257.9063 363.125,258.25 Q363.125,258.5938 362.7813,259 Q362.2813,259.5781 361.4844,259.9063 Q360.4063,260.3594 359.1094,260.3594 Q357.5938,260.3594 356.3906,259.7344 Q355.4063,259.2344 354.7188,258.1641 Q354.0313,257.0938 354.0313,255.8125 L354.0313,254.6563 Q354.0313,253.3281 354.6484,252.1797 Q355.2656,251.0313 356.3594,250.4141 Q357.4531,249.7969 358.6875,249.7969 Q359.4219,249.7969 360.0703,249.9609 Q360.7188,250.125 361.2656,250.4844 Z " fill="#000000"/><text fill="#000000" font-family="sans-serif" font-size="14" lengthAdjust="spacing" textLength="64" x="372.5" y="260.3379">PRUEBAS</text></g><!--class CAPACITACI?N--><g id="elem_CAPACITACI&#211;N"><rect codeLine="28" fill="#F1F1F1" height="32" id="CAPACITACI&#211;N" rx="2.5" ry="2.5" style="stroke:#181818;stroke-width:0.5;" width="133" x="607" y="238.6094"/><ellipse cx="622" cy="254.6094" fill="#ADD1B2" rx="11" ry="11" style="stroke:#181818;stroke-width:1.0;"/><path d="M624.7656,250.4844 Q624.9219,250.2656 625.1094,250.1563 Q625.2969,250.0469 625.5156,250.0469 Q625.8906,250.0469 626.125,250.3047 Q626.3594,250.5625 626.3594,251.1719 L626.3594,252.625 Q626.3594,253.2344 626.125,253.5 Q625.8906,253.7656 625.5156,253.7656 Q625.1719,253.7656 624.9688,253.5625 Q624.7656,253.375 624.6563,252.8594 Q624.6094,252.5 624.4219,252.3125 Q624.0938,251.9375 623.4844,251.7188 Q622.875,251.5 622.25,251.5 Q621.4844,251.5 620.8516,251.8281 Q620.2188,252.1563 619.7266,252.9063 Q619.2344,253.6563 619.2344,254.6875 L619.2344,255.7813 Q619.2344,257.0156 620.125,257.8359 Q621.0156,258.6563 622.6094,258.6563 Q623.5469,258.6563 624.2031,258.4063 Q624.5938,258.25 625.0156,257.8125 Q625.2813,257.5469 625.4297,257.4688 Q625.5781,257.3906 625.7813,257.3906 Q626.1094,257.3906 626.3672,257.6484 Q626.625,257.9063 626.625,258.25 Q626.625,258.5938 626.2813,259 Q625.7813,259.5781 624.9844,259.9063 Q623.9063,260.3594 622.6094,260.3594 Q621.0938,260.3594 619.8906,259.7344 Q618.9063,259.2344 618.2188,258.1641 Q617.5313,257.0938 617.5313,255.8125 L617.5313,254.6563 Q617.5313,253.3281 618.1484,252.1797 Q618.7656,251.0313 619.8594,250.4141 Q620.9531,249.7969 622.1875,249.7969 Q622.9219,249.7969 623.5703,249.9609 Q624.2188,250.125 624.7656,250.4844 Z " fill="#000000"/><text fill="#000000" font-family="sans-serif" font-size="14" lengthAdjust="spacing" textLength="101" x="636" y="260.3379">CAPACITACI&#211;N</text></g><!--class CONTENIDO_CAPACITACI?N--><g id="elem_CONTENIDO_CAPACITACI&#211;N"><rect codeLine="31" fill="#F1F1F1" height="32" id="CONTENIDO_CAPACITACI&#211;N" rx="2.5" ry="2.5" style="stroke:#181818;stroke-width:0.5;" width="222" x="562.5" y="444.6094"/><ellipse cx="577.5" cy="460.6094" fill="#ADD1B2" rx="11" ry="11" style="stroke:#181818;stroke-width:1.0;"/><path d="M580.2656,456.4844 Q580.4219,456.2656 580.6094,456.1563 Q580.7969,456.0469 581.0156,456.0469 Q581.3906,456.0469 581.625,456.3047 Q581.8594,456.5625 581.8594,457.1719 L581.8594,458.625 Q581.8594,459.2344 581.625,459.5 Q581.3906,459.7656 581.0156,459.7656 Q580.6719,459.7656 580.4688,459.5625 Q580.2656,459.375 580.1563,458.8594 Q580.1094,458.5 579.9219,458.3125 Q579.5938,457.9375 578.9844,457.7188 Q578.375,457.5 577.75,457.5 Q576.9844,457.5 576.3516,457.8281 Q575.7188,458.1563 575.2266,458.9063 Q574.7344,459.6563 574.7344,460.6875 L574.7344,461.7813 Q574.7344,463.0156 575.625,463.8359 Q576.5156,464.6563 578.1094,464.6563 Q579.0469,464.6563 579.7031,464.4063 Q580.0938,464.25 580.5156,463.8125 Q580.7813,463.5469 580.9297,463.4688 Q581.0781,463.3906 581.2813,463.3906 Q581.6094,463.3906 581.8672,463.6484 Q582.125,463.9063 582.125,464.25 Q582.125,464.5938 581.7813,465 Q581.2813,465.5781 580.4844,465.9063 Q579.4063,466.3594 578.1094,466.3594 Q576.5938,466.3594 575.3906,465.7344 Q574.4063,465.2344 573.7188,464.1641 Q573.0313,463.0938 573.0313,461.8125 L573.0313,460.6563 Q573.0313,459.3281 573.6484,458.1797 Q574.2656,457.0313 575.3594,456.4141 Q576.4531,455.7969 577.6875,455.7969 Q578.4219,455.7969 579.0703,455.9609 Q579.7188,456.125 580.2656,456.4844 Z " fill="#000000"/><text fill="#000000" font-family="sans-serif" font-size="14" lengthAdjust="spacing" textLength="190" x="591.5" y="466.3379">CONTENIDO_CAPACITACI&#211;N</text></g><!--class VIDEO_TUTORIAL--><g id="elem_VIDEO_TUTORIAL"><rect codeLine="34" fill="#F1F1F1" height="32" id="VIDEO_TUTORIAL" rx="2.5" ry="2.5" style="stroke:#181818;stroke-width:0.5;" width="150" x="691.5" y="606.6094"/><ellipse cx="706.5" cy="622.6094" fill="#ADD1B2" rx="11" ry="11" style="stroke:#181818;stroke-width:1.0;"/><path d="M709.2656,618.4844 Q709.4219,618.2656 709.6094,618.1563 Q709.7969,618.0469 710.0156,618.0469 Q710.3906,618.0469 710.625,618.3047 Q710.8594,618.5625 710.8594,619.1719 L710.8594,620.625 Q710.8594,621.2344 710.625,621.5 Q710.3906,621.7656 710.0156,621.7656 Q709.6719,621.7656 709.4688,621.5625 Q709.2656,621.375 709.1563,620.8594 Q709.1094,620.5 708.9219,620.3125 Q708.5938,619.9375 707.9844,619.7188 Q707.375,619.5 706.75,619.5 Q705.9844,619.5 705.3516,619.8281 Q704.7188,620.1563 704.2266,620.9063 Q703.7344,621.6563 703.7344,622.6875 L703.7344,623.7813 Q703.7344,625.0156 704.625,625.8359 Q705.5156,626.6563 707.1094,626.6563 Q708.0469,626.6563 708.7031,626.4063 Q709.0938,626.25 709.5156,625.8125 Q709.7813,625.5469 709.9297,625.4688 Q710.0781,625.3906 710.2813,625.3906 Q710.6094,625.3906 710.8672,625.6484 Q711.125,625.9063 711.125,626.25 Q711.125,626.5938 710.7813,627 Q710.2813,627.5781 709.4844,627.9063 Q708.4063,628.3594 707.1094,628.3594 Q705.5938,628.3594 704.3906,627.7344 Q703.4063,627.2344 702.7188,626.1641 Q702.0313,625.0938 702.0313,623.8125 L702.0313,622.6563 Q702.0313,621.3281 702.6484,620.1797 Q703.2656,619.0313 704.3594,618.4141 Q705.4531,617.7969 706.6875,617.7969 Q707.4219,617.7969 708.0703,617.9609 Q708.7188,618.125 709.2656,618.4844 Z " fill="#000000"/><text fill="#000000" font-family="sans-serif" font-size="14" lengthAdjust="spacing" textLength="118" x="720.5" y="628.3379">VIDEO_TUTORIAL</text></g><!--class DOCUMENTACI?N--><g id="elem_DOCUMENTACI&#211;N"><rect codeLine="37" fill="#F1F1F1" height="32" id="DOCUMENTACI&#211;N" rx="2.5" ry="2.5" style="stroke:#181818;stroke-width:0.5;" width="152" x="504.5" y="606.6094"/><ellipse cx="519.5" cy="622.6094" fill="#ADD1B2" rx="11" ry="11" style="stroke:#181818;stroke-width:1.0;"/><path d="M522.2656,618.4844 Q522.4219,618.2656 522.6094,618.1563 Q522.7969,618.0469 523.0156,618.0469 Q523.3906,618.0469 523.625,618.3047 Q523.8594,618.5625 523.8594,619.1719 L523.8594,620.625 Q523.8594,621.2344 523.625,621.5 Q523.3906,621.7656 523.0156,621.7656 Q522.6719,621.7656 522.4688,621.5625 Q522.2656,621.375 522.1563,620.8594 Q522.1094,620.5 521.9219,620.3125 Q521.5938,619.9375 520.9844,619.7188 Q520.375,619.5 519.75,619.5 Q518.9844,619.5 518.3516,619.8281 Q517.7188,620.1563 517.2266,620.9063 Q516.7344,621.6563 516.7344,622.6875 L516.7344,623.7813 Q516.7344,625.0156 517.625,625.8359 Q518.5156,626.6563 520.1094,626.6563 Q521.0469,626.6563 521.7031,626.4063 Q522.0938,626.25 522.5156,625.8125 Q522.7813,625.5469 522.9297,625.4688 Q523.0781,625.3906 523.2813,625.3906 Q523.6094,625.3906 523.8672,625.6484 Q524.125,625.9063 524.125,626.25 Q524.125,626.5938 523.7813,627 Q523.2813,627.5781 522.4844,627.9063 Q521.4063,628.3594 520.1094,628.3594 Q518.5938,628.3594 517.3906,627.7344 Q516.4063,627.2344 515.7188,626.1641 Q515.0313,625.0938 515.0313,623.8125 L515.0313,622.6563 Q515.0313,621.3281 515.6484,620.1797 Q516.2656,619.0313 517.3594,618.4141 Q518.4531,617.7969 519.6875,617.7969 Q520.4219,617.7969 521.0703,617.9609 Q521.7188,618.125 522.2656,618.4844 Z " fill="#000000"/><text fill="#000000" font-family="sans-serif" font-size="14" lengthAdjust="spacing" textLength="120" x="533.5" y="628.3379">DOCUMENTACI&#211;N</text></g><!--class BECARIO--><g id="elem_BECARIO"><rect codeLine="40" fill="#F1F1F1" height="110.4375" id="BECARIO" rx="2.5" ry="2.5" style="stroke:#181818;stroke-width:0.5;" width="146" x="162.5" y="405.6094"/><ellipse cx="201.35" cy="421.6094" fill="#ADD1B2" rx="11" ry="11" style="stroke:#181818;stroke-width:1.0;"/><path d="M204.1156,417.4844 Q204.2719,417.2656 204.4594,417.1563 Q204.6469,417.0469 204.8656,417.0469 Q205.2406,417.0469 205.475,417.3047 Q205.7094,417.5625 205.7094,418.1719 L205.7094,419.625 Q205.7094,420.2344 205.475,420.5 Q205.2406,420.7656 204.8656,420.7656 Q204.5219,420.7656 204.3188,420.5625 Q204.1156,420.375 204.0063,419.8594 Q203.9594,419.5 203.7719,419.3125 Q203.4438,418.9375 202.8344,418.7188 Q202.225,418.5 201.6,418.5 Q200.8344,418.5 200.2016,418.8281 Q199.5688,419.1563 199.0766,419.9063 Q198.5844,420.6563 198.5844,421.6875 L198.5844,422.7813 Q198.5844,424.0156 199.475,424.8359 Q200.3656,425.6563 201.9594,425.6563 Q202.8969,425.6563 203.5531,425.4063 Q203.9438,425.25 204.3656,424.8125 Q204.6313,424.5469 204.7797,424.4688 Q204.9281,424.3906 205.1313,424.3906 Q205.4594,424.3906 205.7172,424.6484 Q205.975,424.9063 205.975,425.25 Q205.975,425.5938 205.6313,426 Q205.1313,426.5781 204.3344,426.9063 Q203.2563,427.3594 201.9594,427.3594 Q200.4438,427.3594 199.2406,426.7344 Q198.2563,426.2344 197.5688,425.1641 Q196.8813,424.0938 196.8813,422.8125 L196.8813,421.6563 Q196.8813,420.3281 197.4984,419.1797 Q198.1156,418.0313 199.2094,417.4141 Q200.3031,416.7969 201.5375,416.7969 Q202.2719,416.7969 202.9203,416.9609 Q203.5688,417.125 204.1156,417.4844 Z " fill="#000000"/><text fill="#000000" font-family="sans-serif" font-size="14" lengthAdjust="spacing" textLength="61" x="220.65" y="427.3379">BECARIO</text><line style="stroke:#181818;stroke-width:0.5;" x1="163.5" x2="307.5" y1="437.6094" y2="437.6094"/><text fill="#000000" font-family="sans-serif" font-size="14" lengthAdjust="spacing" textLength="22" x="168.5" y="456.1426">DNI</text><text fill="#000000" font-family="sans-serif" font-size="14" lengthAdjust="spacing" textLength="134" x="168.5" y="473.752">Carnet de Estudiante</text><text fill="#000000" font-family="sans-serif" font-size="14" lengthAdjust="spacing" textLength="59" x="168.5" y="491.3613">Direcci&#243;n</text><text fill="#000000" font-family="sans-serif" font-size="14" lengthAdjust="spacing" textLength="129" x="168.5" y="508.9707">N&#250;mero de Tel&#233;fono</text></g><!--class REQUISITO--><g id="elem_REQUISITO"><rect codeLine="47" fill="#F1F1F1" height="57.6094" id="REQUISITO" rx="2.5" ry="2.5" style="stroke:#181818;stroke-width:0.5;" width="202" x="134.5" y="593.6094"/><ellipse cx="194.25" cy="609.6094" fill="#ADD1B2" rx="11" ry="11" style="stroke:#181818;stroke-width:1.0;"/><path d="M197.0156,605.4844 Q197.1719,605.2656 197.3594,605.1563 Q197.5469,605.0469 197.7656,605.0469 Q198.1406,605.0469 198.375,605.3047 Q198.6094,605.5625 198.6094,606.1719 L198.6094,607.625 Q198.6094,608.2344 198.375,608.5 Q198.1406,608.7656 197.7656,608.7656 Q197.4219,608.7656 197.2188,608.5625 Q197.0156,608.375 196.9063,607.8594 Q196.8594,607.5 196.6719,607.3125 Q196.3438,606.9375 195.7344,606.7188 Q195.125,606.5 194.5,606.5 Q193.7344,606.5 193.1016,606.8281 Q192.4688,607.1563 191.9766,607.9063 Q191.4844,608.6563 191.4844,609.6875 L191.4844,610.7813 Q191.4844,612.0156 192.375,612.8359 Q193.2656,613.6563 194.8594,613.6563 Q195.7969,613.6563 196.4531,613.4063 Q196.8438,613.25 197.2656,612.8125 Q197.5313,612.5469 197.6797,612.4688 Q197.8281,612.3906 198.0313,612.3906 Q198.3594,612.3906 198.6172,612.6484 Q198.875,612.9063 198.875,613.25 Q198.875,613.5938 198.5313,614 Q198.0313,614.5781 197.2344,614.9063 Q196.1563,615.3594 194.8594,615.3594 Q193.3438,615.3594 192.1406,614.7344 Q191.1563,614.2344 190.4688,613.1641 Q189.7813,612.0938 189.7813,610.8125 L189.7813,609.6563 Q189.7813,608.3281 190.3984,607.1797 Q191.0156,606.0313 192.1094,605.4141 Q193.2031,604.7969 194.4375,604.7969 Q195.1719,604.7969 195.8203,604.9609 Q196.4688,605.125 197.0156,605.4844 Z " fill="#000000"/><text fill="#000000" font-family="sans-serif" font-size="14" lengthAdjust="spacing" textLength="74" x="214.75" y="615.3379">REQUISITO</text><line style="stroke:#181818;stroke-width:0.5;" x1="135.5" x2="335.5" y1="625.6094" y2="625.6094"/><text fill="#000000" font-family="sans-serif" font-size="14" lengthAdjust="spacing" textLength="190" x="140.5" y="644.1426">Aprobar pruebas de selecci&#243;n</text></g><!--link PLATAFORMA to ESTAD?STICA--><g id="link_PLATAFORMA_ESTAD&#205;STICA"><path codeLine="53" d="M328.32,94.4994 C276.23,111.9494 201.99,141.2794 145.5,181.6094 C121.35,198.8494 100.8995,218.5648 85.9495,234.0348 " fill="none" id="PLATAFORMA-to-ESTAD&#205;STICA" style="stroke:#181818;stroke-width:1.0;"/><polygon fill="#181818" points="81.78,238.3494,90.9106,234.6572,85.2546,234.7539,85.1579,229.0979,81.78,238.3494" style="stroke:#181818;stroke-width:1.0;"/><text fill="#000000" font-family="sans-serif" font-size="13" lengthAdjust="spacing" textLength="39" x="229.5" y="148.1045">genera</text></g><!--link PLATAFORMA to USUARIO--><g id="link_PLATAFORMA_USUARIO"><path codeLine="54" d="M333.91,103.7594 C320.54,112.0894 307.13,122.1194 296.5,133.6094 C283.65,147.5094 275.5898,159.297 266.7898,176.207 " fill="none" id="PLATAFORMA-to-USUARIO" style="stroke:#181818;stroke-width:1.0;"/><polygon fill="#181818" points="264.02,181.5294,271.723,175.3923,266.3282,177.094,264.6264,171.6992,264.02,181.5294" style="stroke:#181818;stroke-width:1.0;"/><text fill="#000000" font-family="sans-serif" font-size="13" lengthAdjust="spacing" textLength="85" x="297.5" y="148.1045">tiene acceso a</text></g><!--link PLATAFORMA to PRUEBAS--><g id="link_PLATAFORMA_PRUEBAS"><path codeLine="55" d="M391.5,103.8094 C391.5,141.8494 391.5,202.2594 391.5,232.1994 " fill="none" id="PLATAFORMA-to-PRUEBAS" style="stroke:#181818;stroke-width:1.0;"/><polygon fill="#181818" points="391.5,238.1994,395.5,229.1994,391.5,233.1994,387.5,229.1994,391.5,238.1994" style="stroke:#181818;stroke-width:1.0;"/><text fill="#000000" font-family="sans-serif" font-size="13" lengthAdjust="spacing" textLength="41" x="392.5" y="148.1045">incluye</text></g><!--link PLATAFORMA to CAPACITACI?N--><g id="link_PLATAFORMA_CAPACITACI&#211;N"><path codeLine="56" d="M454.63,95.8494 C480.62,105.4794 510.44,118.2694 535.5,133.6094 C585.87,164.4394 631.7451,209.4812 655.3451,234.1812 " fill="none" id="PLATAFORMA-to-CAPACITACI&#211;N" style="stroke:#181818;stroke-width:1.0;"/><polygon fill="#181818" points="659.49,238.5194,656.1647,229.2489,656.0359,234.9043,650.3805,234.7755,659.49,238.5194" style="stroke:#181818;stroke-width:1.0;"/><text fill="#000000" font-family="sans-serif" font-size="13" lengthAdjust="spacing" textLength="35" x="561.5" y="148.1045">ofrece</text></g><!--reverse link USUARIO to ADMINISTRADOR--><g id="link_USUARIO_ADMINISTRADOR"><path codeLine="58" d="M318.8915,340.6724 C360.4715,383.0824 396.83,420.1694 420.79,444.6094 " fill="none" id="USUARIO-backto-ADMINISTRADOR" style="stroke:#181818;stroke-width:1.0;"/><polygon fill="none" points="306.29,327.8194,314.6072,344.873,323.1759,336.4719,306.29,327.8194" style="stroke:#181818;stroke-width:1.0;"/></g><!--link ADMINISTRADOR to PLATAFORMA--><g id="link_ADMINISTRADOR_PLATAFORMA"><path codeLine="59" d="M438.94,444.4694 C447.98,402.5094 470.74,281.2694 456.5,181.6094 C453.36,159.6094 453.2,153.0794 442.5,133.6094 C436.69,123.0294 432.6552,117.2058 424.6852,108.2758 " fill="none" id="ADMINISTRADOR-to-PLATAFORMA" style="stroke:#181818;stroke-width:1.0;"/><polygon fill="#181818" points="420.69,103.7994,423.6985,113.1775,424.0193,107.5297,429.6671,107.8505,420.69,103.7994" style="stroke:#181818;stroke-width:1.0;"/><text fill="#000000" font-family="sans-serif" font-size="13" lengthAdjust="spacing" textLength="60" x="462.5" y="260.1045">administra</text></g><!--link CAPACITACI?N to CONTENIDO_CAPACITACI?N--><g id="link_CAPACITACI&#211;N_CONTENIDO_CAPACITACI&#211;N"><path codeLine="61" d="M673.5,270.6094 C673.5,308.3394 673.5,400.8394 673.5,438.5894 " fill="none" id="CAPACITACI&#211;N-to-CONTENIDO_CAPACITACI&#211;N" style="stroke:#181818;stroke-width:1.0;"/><polygon fill="#181818" points="673.5,444.5894,677.5,435.5894,673.5,439.5894,669.5,435.5894,673.5,444.5894" style="stroke:#181818;stroke-width:1.0;"/><text fill="#000000" font-family="sans-serif" font-size="13" lengthAdjust="spacing" textLength="49" x="674.5" y="372.1045">contiene</text></g><!--reverse link CONTENIDO_CAPACITACI?N to VIDEO_TUTORIAL--><g id="link_CONTENIDO_CAPACITACI&#211;N_VIDEO_TUTORIAL"><path codeLine="62" d="M691.2924,492.2233 C709.0124,522.7233 739.94,575.9194 757.71,606.4794 " fill="none" id="CONTENIDO_CAPACITACI&#211;N-backto-VIDEO_TUTORIAL" style="stroke:#181818;stroke-width:1.0;"/><polygon fill="none" points="682.25,476.6594,686.1044,495.2374,696.4803,489.2092,682.25,476.6594" style="stroke:#181818;stroke-width:1.0;"/></g><!--reverse link CONTENIDO_CAPACITACI?N to DOCUMENTACI?N--><g id="link_CONTENIDO_CAPACITACI&#211;N_DOCUMENTACI&#211;N"><path codeLine="63" d="M655.7076,492.2233 C637.9876,522.7233 607.06,575.9194 589.29,606.4794 " fill="none" id="CONTENIDO_CAPACITACI&#211;N-backto-DOCUMENTACI&#211;N" style="stroke:#181818;stroke-width:1.0;"/><polygon fill="none" points="664.75,476.6594,650.5197,489.2092,660.8956,495.2374,664.75,476.6594" style="stroke:#181818;stroke-width:1.0;"/></g><!--link BECARIO to REQUISITO--><g id="link_BECARIO_REQUISITO"><path codeLine="64" d="M235.5,515.7794 C235.5,541.8894 235.5,572.1094 235.5,593.5594 " fill="none" id="BECARIO-REQUISITO" style="stroke:#181818;stroke-width:1.0;"/><text fill="#000000" font-family="sans-serif" font-size="13" lengthAdjust="spacing" textLength="42" x="236.5" y="560.1045">cumple</text></g><!--reverse link USUARIO to BECARIO--><g id="link_USUARIO_BECARIO"><path codeLine="65" d="M235.5,345.8194 C235.5,371.3794 235.5,381.6794 235.5,405.4694 " fill="none" id="USUARIO-backto-BECARIO" style="stroke:#181818;stroke-width:1.0;"/><polygon fill="none" points="235.5,327.8194,229.5,345.8194,241.5,345.8194,235.5,327.8194" style="stroke:#181818;stroke-width:1.0;"/></g><!--SRC=[VL91Rjim4Bph5OJl_a1G5A15fI0GIwv4zHfGz3eXG8e6IGK8qZwXfxwYvzvwrSUweYF7QkeU92nsPtTsTXXrD42ObWzUMadsG78Z0uGfsXaPvS7vK_uJXAZ7N_qKRq39a6MF6cEmn_XCBDWEFEOKjWUokwE2tbRrbfANZ93IFGqX-pPNYqPGDdvl1C-dEkPb5wANAf8Je6rQMlCgzNAM1jZE0mRq2CRelSFm5jHZsgoKIbiDVPooXPNQJ5KNNH81_e29CpTbMrxoHjIKLVM9_7NbkYqsjBbCvNH7Soxm6t-KYq9LYgBahBg_2ld2ML7TYrPKDQTtbnLMvUssAF_HiodoisnMSlpdqlSG9nr5YCDUopvELs3QWrAJ6zDjnjyMV18hm8m_3wvtRpFhudFB6owgx2MTpxjEUdBq0tGokHp0pBEmARjmRht-kBJgXgmUe0SlLt_3PiCG4T49858f28wyHyvdHgJkbHcUuHraULC4kWFAHLmsqtpukbuldSoMlYQcjwauG-wjxlNqod3EaY5nNd4KEvNhawPLTWsKrbaQ_d_iyWbai-zOETk5p6gmHmDBqQ_GFm00]--></g></svg>