<svg xmlns="http://www.w3.org/2000/svg" xmlns:xlink="http://www.w3.org/1999/xlink" contentStyleType="text/css" height="458px" preserveAspectRatio="none" style="width:817px;height:458px;background:#FFFFFF;" version="1.1" viewBox="0 0 817 458" width="817px" zoomAndPan="magnify"><title>Diagrama de Clases de Plataforma de Gesti&#243;n de Becas</title><defs/><g><text fill="#000000" font-family="sans-serif" font-size="14" font-weight="bold" lengthAdjust="spacing" textLength="437.9512" x="182.687" y="22.9951">Diagrama de Clases de Plataforma de Gesti&#243;n de Becas</text><!--class PLATAFORMA--><g id="elem_PLATAFORMA"><rect codeLine="5" fill="#F1F1F1" height="56.2969" id="PLATAFORMA" rx="2.5" ry="2.5" style="stroke:#181818;stroke-width:0.5;" width="126.4043" x="284.64" y="44.2969"/><ellipse cx="299.64" cy="60.2969" fill="#ADD1B2" rx="11" ry="11" style="stroke:#181818;stroke-width:1.0;"/><path d="M302.6088,65.9375 Q302.0306,66.2344 301.39,66.375 Q300.7494,66.5313 300.0463,66.5313 Q297.5463,66.5313 296.2181,64.8906 Q294.9056,63.2344 294.9056,60.1094 Q294.9056,56.9844 296.2181,55.3281 Q297.5463,53.6719 300.0463,53.6719 Q300.7494,53.6719 301.39,53.8281 Q302.0463,53.9844 302.6088,54.2813 L302.6088,57 Q301.9838,56.4219 301.39,56.1563 Q300.7963,55.875 300.1713,55.875 Q298.8275,55.875 298.14,56.9531 Q297.4525,58.0156 297.4525,60.1094 Q297.4525,62.2031 298.14,63.2813 Q298.8275,64.3438 300.1713,64.3438 Q300.7963,64.3438 301.39,64.0781 Q301.9838,63.7969 302.6088,63.2188 L302.6088,65.9375 Z " fill="#000000"/><text fill="#000000" font-family="sans-serif" font-size="14" lengthAdjust="spacing" textLength="94.4043" x="313.64" y="65.1436">PLATAFORMA</text><line style="stroke:#181818;stroke-width:0.5;" x1="285.64" x2="410.0443" y1="76.2969" y2="76.2969"/><text fill="#000000" font-family="sans-serif" font-size="14" lengthAdjust="spacing" textLength="43.4902" x="290.64" y="93.292">Novus</text></g><!--class ESTAD?STICA--><g id="elem_ESTAD&#205;STICA"><rect codeLine="10" fill="#F1F1F1" height="32" id="ESTAD&#205;STICA" rx="2.5" ry="2.5" style="stroke:#181818;stroke-width:0.5;" width="123.6904" x="7" y="177.5869"/><ellipse cx="22" cy="193.5869" fill="#ADD1B2" rx="11" ry="11" style="stroke:#181818;stroke-width:1.0;"/><path d="M24.9688,199.2275 Q24.3906,199.5244 23.75,199.665 Q23.1094,199.8212 22.4063,199.8212 Q19.9063,199.8212 18.5781,198.1806 Q17.2656,196.5244 17.2656,193.3994 Q17.2656,190.2744 18.5781,188.6181 Q19.9063,186.9619 22.4063,186.9619 Q23.1094,186.9619 23.75,187.1181 Q24.4063,187.2744 24.9688,187.5712 L24.9688,190.29 Q24.3438,189.7119 23.75,189.4462 Q23.1563,189.165 22.5313,189.165 Q21.1875,189.165 20.5,190.2431 Q19.8125,191.3056 19.8125,193.3994 Q19.8125,195.4931 20.5,196.5712 Q21.1875,197.6337 22.5313,197.6337 Q23.1563,197.6337 23.75,197.3681 Q24.3438,197.0869 24.9688,196.5087 L24.9688,199.2275 Z " fill="#000000"/><text fill="#000000" font-family="sans-serif" font-size="14" lengthAdjust="spacing" textLength="91.6904" x="36" y="198.4336">ESTAD&#205;STICA</text></g><!--class USUARIO--><g id="elem_USUARIO"><rect codeLine="13" fill="#F1F1F1" height="32" id="USUARIO" rx="2.5" ry="2.5" style="stroke:#181818;stroke-width:0.5;" width="95.834" x="165.93" y="177.5869"/><ellipse cx="180.93" cy="193.5869" fill="#A9DCDF" rx="11" ry="11" style="stroke:#181818;stroke-width:1.0;"/><path d="M181.0394,188.9306 L179.8831,194.0087 L182.2113,194.0087 L181.0394,188.9306 Z M179.555,186.6962 L182.5394,186.6962 L185.8988,199.0869 L183.4456,199.0869 L182.68,196.0244 L179.3988,196.0244 L178.6488,199.0869 L176.2113,199.0869 L179.555,186.6962 Z " fill="#000000"/><text fill="#000000" font-family="sans-serif" font-size="14" font-style="italic" lengthAdjust="spacing" textLength="63.834" x="194.93" y="198.4336">USUARIO</text></g><!--class ADMINISTRADOR--><g id="elem_ADMINISTRADOR"><rect codeLine="16" fill="#F1F1F1" height="32" id="ADMINISTRADOR" rx="2.5" ry="2.5" style="stroke:#181818;stroke-width:0.5;" width="151.4375" x="317.13" y="286.5869"/><ellipse cx="332.13" cy="302.5869" fill="#ADD1B2" rx="11" ry="11" style="stroke:#181818;stroke-width:1.0;"/><path d="M335.0988,308.2275 Q334.5206,308.5244 333.88,308.665 Q333.2394,308.8212 332.5363,308.8212 Q330.0363,308.8212 328.7081,307.1806 Q327.3956,305.5244 327.3956,302.3994 Q327.3956,299.2744 328.7081,297.6181 Q330.0363,295.9619 332.5363,295.9619 Q333.2394,295.9619 333.88,296.1181 Q334.5363,296.2744 335.0988,296.5712 L335.0988,299.29 Q334.4738,298.7119 333.88,298.4462 Q333.2863,298.165 332.6613,298.165 Q331.3175,298.165 330.63,299.2431 Q329.9425,300.3056 329.9425,302.3994 Q329.9425,304.4931 330.63,305.5712 Q331.3175,306.6337 332.6613,306.6337 Q333.2863,306.6337 333.88,306.3681 Q334.4738,306.0869 335.0988,305.5087 L335.0988,308.2275 Z " fill="#000000"/><text fill="#000000" font-family="sans-serif" font-size="14" lengthAdjust="spacing" textLength="119.4375" x="346.13" y="307.4336">ADMINISTRADOR</text></g><!--class PRUEBAS--><g id="elem_PRUEBAS"><rect codeLine="19" fill="#F1F1F1" height="32" id="PRUEBAS" rx="2.5" ry="2.5" style="stroke:#181818;stroke-width:0.5;" width="97.3311" x="297.18" y="177.5869"/><ellipse cx="312.18" cy="193.5869" fill="#ADD1B2" rx="11" ry="11" style="stroke:#181818;stroke-width:1.0;"/><path d="M315.1488,199.2275 Q314.5706,199.5244 313.93,199.665 Q313.2894,199.8212 312.5863,199.8212 Q310.0863,199.8212 308.7581,198.1806 Q307.4456,196.5244 307.4456,193.3994 Q307.4456,190.2744 308.7581,188.6181 Q310.0863,186.9619 312.5863,186.9619 Q313.2894,186.9619 313.93,187.1181 Q314.5863,187.2744 315.1488,187.5712 L315.1488,190.29 Q314.5238,189.7119 313.93,189.4462 Q313.3363,189.165 312.7113,189.165 Q311.3675,189.165 310.68,190.2431 Q309.9925,191.3056 309.9925,193.3994 Q309.9925,195.4931 310.68,196.5712 Q311.3675,197.6337 312.7113,197.6337 Q313.3363,197.6337 313.93,197.3681 Q314.5238,197.0869 315.1488,196.5087 L315.1488,199.2275 Z " fill="#000000"/><text fill="#000000" font-family="sans-serif" font-size="14" lengthAdjust="spacing" textLength="65.3311" x="326.18" y="198.4336">PRUEBAS</text></g><!--class CAPACITACI?N--><g id="elem_CAPACITACI&#211;N"><rect codeLine="22" fill="#F1F1F1" height="32" id="CAPACITACI&#211;N" rx="2.5" ry="2.5" style="stroke:#181818;stroke-width:0.5;" width="136.8018" x="570.44" y="177.5869"/><ellipse cx="585.44" cy="193.5869" fill="#ADD1B2" rx="11" ry="11" style="stroke:#181818;stroke-width:1.0;"/><path d="M588.4088,199.2275 Q587.8306,199.5244 587.19,199.665 Q586.5494,199.8212 585.8463,199.8212 Q583.3463,199.8212 582.0181,198.1806 Q580.7056,196.5244 580.7056,193.3994 Q580.7056,190.2744 582.0181,188.6181 Q583.3463,186.9619 585.8463,186.9619 Q586.5494,186.9619 587.19,187.1181 Q587.8463,187.2744 588.4088,187.5712 L588.4088,190.29 Q587.7838,189.7119 587.19,189.4462 Q586.5963,189.165 585.9713,189.165 Q584.6275,189.165 583.94,190.2431 Q583.2525,191.3056 583.2525,193.3994 Q583.2525,195.4931 583.94,196.5712 Q584.6275,197.6337 585.9713,197.6337 Q586.5963,197.6337 587.19,197.3681 Q587.7838,197.0869 588.4088,196.5087 L588.4088,199.2275 Z " fill="#000000"/><text fill="#000000" font-family="sans-serif" font-size="14" lengthAdjust="spacing" textLength="104.8018" x="599.44" y="198.4336">CAPACITACI&#211;N</text></g><!--class CONTENIDO_CAPACITACI?N--><g id="elem_CONTENIDO_CAPACITACI&#211;N"><rect codeLine="25" fill="#F1F1F1" height="32" id="CONTENIDO_CAPACITACI&#211;N" rx="2.5" ry="2.5" style="stroke:#181818;stroke-width:0.5;" width="228.8682" x="524.41" y="286.5869"/><ellipse cx="539.41" cy="302.5869" fill="#ADD1B2" rx="11" ry="11" style="stroke:#181818;stroke-width:1.0;"/><path d="M542.3788,308.2275 Q541.8006,308.5244 541.16,308.665 Q540.5194,308.8212 539.8163,308.8212 Q537.3163,308.8212 535.9881,307.1806 Q534.6756,305.5244 534.6756,302.3994 Q534.6756,299.2744 535.9881,297.6181 Q537.3163,295.9619 539.8163,295.9619 Q540.5194,295.9619 541.16,296.1181 Q541.8163,296.2744 542.3788,296.5712 L542.3788,299.29 Q541.7538,298.7119 541.16,298.4462 Q540.5663,298.165 539.9413,298.165 Q538.5975,298.165 537.91,299.2431 Q537.2225,300.3056 537.2225,302.3994 Q537.2225,304.4931 537.91,305.5712 Q538.5975,306.6337 539.9413,306.6337 Q540.5663,306.6337 541.16,306.3681 Q541.7538,306.0869 542.3788,305.5087 L542.3788,308.2275 Z " fill="#000000"/><text fill="#000000" font-family="sans-serif" font-size="14" lengthAdjust="spacing" textLength="196.8682" x="553.41" y="307.4336">CONTENIDO_CAPACITACI&#211;N</text></g><!--class VIDEO_TUTORIAL--><g id="elem_VIDEO_TUTORIAL"><rect codeLine="28" fill="#F1F1F1" height="32" id="VIDEO_TUTORIAL" rx="2.5" ry="2.5" style="stroke:#181818;stroke-width:0.5;" width="152.9551" x="657.37" y="407.7369"/><ellipse cx="672.37" cy="423.7369" fill="#ADD1B2" rx="11" ry="11" style="stroke:#181818;stroke-width:1.0;"/><path d="M675.3388,429.3775 Q674.7606,429.6744 674.12,429.815 Q673.4794,429.9713 672.7763,429.9713 Q670.2763,429.9713 668.9481,428.3306 Q667.6356,426.6744 667.6356,423.5494 Q667.6356,420.4244 668.9481,418.7681 Q670.2763,417.1119 672.7763,417.1119 Q673.4794,417.1119 674.12,417.2681 Q674.7763,417.4244 675.3388,417.7213 L675.3388,420.44 Q674.7138,419.8619 674.12,419.5963 Q673.5263,419.315 672.9013,419.315 Q671.5575,419.315 670.87,420.3931 Q670.1825,421.4556 670.1825,423.5494 Q670.1825,425.6431 670.87,426.7213 Q671.5575,427.7838 672.9013,427.7838 Q673.5263,427.7838 674.12,427.5181 Q674.7138,427.2369 675.3388,426.6588 L675.3388,429.3775 Z " fill="#000000"/><text fill="#000000" font-family="sans-serif" font-size="14" lengthAdjust="spacing" textLength="120.9551" x="686.37" y="428.5836">VIDEO_TUTORIAL</text></g><!--class DOCUMENTACI?N--><g id="elem_DOCUMENTACI&#211;N"><rect codeLine="31" fill="#F1F1F1" height="32" id="DOCUMENTACI&#211;N" rx="2.5" ry="2.5" style="stroke:#181818;stroke-width:0.5;" width="158.7451" x="463.47" y="407.7369"/><ellipse cx="478.47" cy="423.7369" fill="#ADD1B2" rx="11" ry="11" style="stroke:#181818;stroke-width:1.0;"/><path d="M481.4388,429.3775 Q480.8606,429.6744 480.22,429.815 Q479.5794,429.9713 478.8763,429.9713 Q476.3763,429.9713 475.0481,428.3306 Q473.7356,426.6744 473.7356,423.5494 Q473.7356,420.4244 475.0481,418.7681 Q476.3763,417.1119 478.8763,417.1119 Q479.5794,417.1119 480.22,417.2681 Q480.8763,417.4244 481.4388,417.7213 L481.4388,420.44 Q480.8138,419.8619 480.22,419.5963 Q479.6263,419.315 479.0013,419.315 Q477.6575,419.315 476.97,420.3931 Q476.2825,421.4556 476.2825,423.5494 Q476.2825,425.6431 476.97,426.7213 Q477.6575,427.7838 479.0013,427.7838 Q479.6263,427.7838 480.22,427.5181 Q480.8138,427.2369 481.4388,426.6588 L481.4388,429.3775 Z " fill="#000000"/><text fill="#000000" font-family="sans-serif" font-size="14" lengthAdjust="spacing" textLength="126.7451" x="492.47" y="428.5836">DOCUMENTACI&#211;N</text></g><!--class BECARIO--><g id="elem_BECARIO"><rect codeLine="34" fill="#F1F1F1" height="32" id="BECARIO" rx="2.5" ry="2.5" style="stroke:#181818;stroke-width:0.5;" width="94.6787" x="166.51" y="286.5869"/><ellipse cx="181.51" cy="302.5869" fill="#ADD1B2" rx="11" ry="11" style="stroke:#181818;stroke-width:1.0;"/><path d="M184.4788,308.2275 Q183.9006,308.5244 183.26,308.665 Q182.6194,308.8212 181.9163,308.8212 Q179.4163,308.8212 178.0881,307.1806 Q176.7756,305.5244 176.7756,302.3994 Q176.7756,299.2744 178.0881,297.6181 Q179.4163,295.9619 181.9163,295.9619 Q182.6194,295.9619 183.26,296.1181 Q183.9163,296.2744 184.4788,296.5712 L184.4788,299.29 Q183.8538,298.7119 183.26,298.4462 Q182.6663,298.165 182.0413,298.165 Q180.6975,298.165 180.01,299.2431 Q179.3225,300.3056 179.3225,302.3994 Q179.3225,304.4931 180.01,305.5712 Q180.6975,306.6337 182.0413,306.6337 Q182.6663,306.6337 183.26,306.3681 Q183.8538,306.0869 184.4788,305.5087 L184.4788,308.2275 Z " fill="#000000"/><text fill="#000000" font-family="sans-serif" font-size="14" lengthAdjust="spacing" textLength="62.6787" x="195.51" y="307.4336">BECARIO</text></g><!--class REQUISITO--><g id="elem_REQUISITO"><rect codeLine="37" fill="#F1F1F1" height="56.2969" id="REQUISITO" rx="2.5" ry="2.5" style="stroke:#181818;stroke-width:0.5;" width="220.8789" x="103.41" y="395.5869"/><ellipse cx="171.3216" cy="411.5869" fill="#ADD1B2" rx="11" ry="11" style="stroke:#181818;stroke-width:1.0;"/><path d="M174.2904,417.2275 Q173.7122,417.5244 173.0716,417.665 Q172.431,417.8212 171.7279,417.8212 Q169.2279,417.8212 167.8997,416.1806 Q166.5872,414.5244 166.5872,411.3994 Q166.5872,408.2744 167.8997,406.6181 Q169.2279,404.9619 171.7279,404.9619 Q172.431,404.9619 173.0716,405.1181 Q173.7279,405.2744 174.2904,405.5712 L174.2904,408.29 Q173.6654,407.7119 173.0716,407.4462 Q172.4779,407.165 171.8529,407.165 Q170.5091,407.165 169.8216,408.2431 Q169.1341,409.3056 169.1341,411.3994 Q169.1341,413.4931 169.8216,414.5712 Q170.5091,415.6337 171.8529,415.6337 Q172.4779,415.6337 173.0716,415.3681 Q173.6654,415.0869 174.2904,414.5087 L174.2904,417.2275 Z " fill="#000000"/><text fill="#000000" font-family="sans-serif" font-size="14" lengthAdjust="spacing" textLength="76.5557" x="191.8216" y="416.4336">REQUISITO</text><line style="stroke:#181818;stroke-width:0.5;" x1="104.41" x2="323.2889" y1="427.5869" y2="427.5869"/><text fill="#000000" font-family="sans-serif" font-size="14" lengthAdjust="spacing" textLength="208.8789" x="109.41" y="444.582">Aprobar pruebas de selecci&#243;n</text></g><!--link PLATAFORMA to ESTAD?STICA--><g id="link_PLATAFORMA_ESTAD&#205;STICA"><path codeLine="43" d="M284.17,91.4169 C251.49,101.4669 211.4,115.0869 176.85,130.5869 C146.67,144.1369 119.0553,160.4367 97.6453,173.9367 " fill="none" id="PLATAFORMA-to-ESTAD&#205;STICA" style="stroke:#181818;stroke-width:1.0;"/><polygon fill="#181818" points="92.57,177.1369,102.3164,175.7201,96.7994,174.47,98.0495,168.953,92.57,177.1369" style="stroke:#181818;stroke-width:1.0;"/><text fill="#000000" font-family="sans-serif" font-size="13" lengthAdjust="spacing" textLength="45.7983" x="177.85" y="143.6538">genera</text></g><!--link PLATAFORMA to USUARIO--><g id="link_PLATAFORMA_USUARIO"><path codeLine="44" d="M284.15,99.7269 C269.29,108.0069 254.44,118.2669 242.85,130.5869 C230.31,143.9169 224.1829,157.9305 219.8429,171.5405 " fill="none" id="PLATAFORMA-to-USUARIO" style="stroke:#181818;stroke-width:1.0;"/><polygon fill="#181818" points="218.02,177.2569,224.5652,169.8975,219.5391,172.4932,216.9434,167.467,218.02,177.2569" style="stroke:#181818;stroke-width:1.0;"/><text fill="#000000" font-family="sans-serif" font-size="13" lengthAdjust="spacing" textLength="94.1611" x="243.85" y="143.6538">tiene acceso a</text></g><!--link PLATAFORMA to PRUEBAS--><g id="link_PLATAFORMA_PRUEBAS"><path codeLine="45" d="M347.38,101.0769 C346.98,124.7269 346.5329,151.9078 346.2029,171.1378 " fill="none" id="PLATAFORMA-to-PRUEBAS" style="stroke:#181818;stroke-width:1.0;"/><polygon fill="#181818" points="346.1,177.1369,350.2538,168.2068,346.1858,172.1376,342.255,168.0696,346.1,177.1369" style="stroke:#181818;stroke-width:1.0;"/><text fill="#000000" font-family="sans-serif" font-size="13" lengthAdjust="spacing" textLength="46.541" x="347.85" y="143.6538">incluye</text></g><!--link PLATAFORMA to CAPACITACI?N--><g id="link_PLATAFORMA_CAPACITACI&#211;N"><path codeLine="46" d="M411.29,98.5369 C436.14,108.4369 464.86,119.9569 490.85,130.5869 C529,146.2069 566.9839,162.1497 596.8939,174.7997 " fill="none" id="PLATAFORMA-to-CAPACITACI&#211;N" style="stroke:#181818;stroke-width:1.0;"/><polygon fill="#181818" points="602.42,177.1369,595.689,169.9471,597.8149,175.1892,592.5728,177.3152,602.42,177.1369" style="stroke:#181818;stroke-width:1.0;"/><text fill="#000000" font-family="sans-serif" font-size="13" lengthAdjust="spacing" textLength="41.0186" x="532.85" y="143.6538">ofrece</text></g><!--reverse link USUARIO to ADMINISTRADOR--><g id="link_USUARIO_ADMINISTRADOR"><path codeLine="48" d="M254.9385,219.155 C288.8685,239.445 332.9,265.7569 366.96,286.1169 " fill="none" id="USUARIO-backto-ADMINISTRADOR" style="stroke:#181818;stroke-width:1.0;"/><polygon fill="none" points="239.49,209.9169,251.8591,224.3045,258.0179,214.0055,239.49,209.9169" style="stroke:#181818;stroke-width:1.0;"/></g><!--link ADMINISTRADOR to PLATAFORMA--><g id="link_ADMINISTRADOR_PLATAFORMA"><path codeLine="49" d="M398.65,286.3469 C409.54,255.0869 429.64,182.3469 402.85,130.5869 C397.27,119.8269 393.2125,114.0188 384.8025,105.3688 " fill="none" id="ADMINISTRADOR-to-PLATAFORMA" style="stroke:#181818;stroke-width:1.0;"/><polygon fill="#181818" points="380.62,101.0669,384.0259,110.3081,384.1055,104.6518,389.7617,104.7314,380.62,101.0669" style="stroke:#181818;stroke-width:1.0;"/><text fill="#000000" font-family="sans-serif" font-size="13" lengthAdjust="spacing" textLength="69.5259" x="417.85" y="198.1538">administra</text></g><!--link CAPACITACI?N to CONTENIDO_CAPACITACI?N--><g id="link_CAPACITACI&#211;N_CONTENIDO_CAPACITACI&#211;N"><path codeLine="51" d="M638.85,209.9169 C638.85,230.2569 638.85,259.9569 638.85,280.2869 " fill="none" id="CAPACITACI&#211;N-to-CONTENIDO_CAPACITACI&#211;N" style="stroke:#181818;stroke-width:1.0;"/><polygon fill="#181818" points="638.85,286.2869,642.85,277.2869,638.85,281.2869,634.85,277.2869,638.85,286.2869" style="stroke:#181818;stroke-width:1.0;"/><text fill="#000000" font-family="sans-serif" font-size="13" lengthAdjust="spacing" textLength="56.2847" x="639.85" y="252.6538">contiene</text></g><!--reverse link CONTENIDO_CAPACITACI?N to VIDEO_TUTORIAL--><g id="link_CONTENIDO_CAPACITACI&#211;N_VIDEO_TUTORIAL"><path codeLine="52" d="M662.0981,332.7536 C680.2681,355.5536 703.32,384.4569 721.61,407.3969 " fill="none" id="CONTENIDO_CAPACITACI&#211;N-backto-VIDEO_TUTORIAL" style="stroke:#181818;stroke-width:1.0;"/><polygon fill="none" points="650.88,318.6769,657.4059,336.493,666.7904,329.0142,650.88,318.6769" style="stroke:#181818;stroke-width:1.0;"/></g><!--reverse link CONTENIDO_CAPACITACI?N to DOCUMENTACI?N--><g id="link_CONTENIDO_CAPACITACI&#211;N_DOCUMENTACI&#211;N"><path codeLine="53" d="M615.3968,332.6934 C597.0268,355.4934 573.69,384.4569 555.21,407.3969 " fill="none" id="CONTENIDO_CAPACITACI&#211;N-backto-DOCUMENTACI&#211;N" style="stroke:#181818;stroke-width:1.0;"/><polygon fill="none" points="626.69,318.6769,610.7246,328.9291,620.069,336.4578,626.69,318.6769" style="stroke:#181818;stroke-width:1.0;"/></g><!--link BECARIO to REQUISITO--><g id="link_BECARIO_REQUISITO"><path codeLine="54" d="M213.85,318.6769 C213.85,337.9669 213.85,371.7069 213.85,395.5269 " fill="none" id="BECARIO-REQUISITO" style="stroke:#181818;stroke-width:1.0;"/><text fill="#000000" font-family="sans-serif" font-size="13" lengthAdjust="spacing" textLength="47.9121" x="214.85" y="361.6538">cumple</text></g><!--reverse link USUARIO to BECARIO--><g id="link_USUARIO_BECARIO"><path codeLine="55" d="M213.85,227.9169 C213.85,248.2569 213.85,265.9569 213.85,286.2869 " fill="none" id="USUARIO-backto-BECARIO" style="stroke:#181818;stroke-width:1.0;"/><polygon fill="none" points="213.85,209.9169,207.85,227.9169,219.85,227.9169,213.85,209.9169" style="stroke:#181818;stroke-width:1.0;"/></g><!--SRC=[VP5DJiCm48NtFeNLVIw049AR16IfZKFYiArSCosMyYVRGQg08x3YA1oX5yD92CGjPM5fDEyRZ_sULRO472cnrw8I-15mM0e3fg_IKbYnQ_JOlmDZrV6pxkibI64GUbAkXggr1rn1jGNjUjAD6vok22UtB5iJ_88mJfhdpg0tDCbnpabqVCyv3Nl02M9hh1RIuX4eye9ab8tQs2BHcYOqvnc9M3ONqgo8boIVjqAIaf1oTuuVYIUmXCS9ZTZc8l90evXjUC5PHibghaGiBDPnyiVCCWvFdvl5zmNDAMUeDu2qkjaAZLlTmLOCxXeeGShUqS6OcMD1SECxT8KNUwX1YyKfDlda2AiSWeMKO1fyJaukELBLikmES8RubZYmsMcGZaFJcklN8F23G7uimwRVMzqTuh5IjUh3TVVu6uQT5m9naxAfXpyjq2LeU8wVr_-ido2QOdFAJrnki-ogjWJ_qz_e5m00]--></g></svg>