<svg xmlns="http://www.w3.org/2000/svg" xmlns:xlink="http://www.w3.org/1999/xlink" contentStyleType="text/css" height="1245px" preserveAspectRatio="none" style="width:801px;height:1245px;background:#FFFFFF;" version="1.1" viewBox="0 0 801 1245" width="801px" zoomAndPan="magnify"><defs/><g><rect fill="#F1F1F1" height="40" rx="12.5" ry="12.5" style="stroke:#181818;stroke-width:0.5;" width="95.1279" x="350" y="7"/><text fill="#000000" font-family="sans-serif" font-size="14" lengthAdjust="spacing" textLength="85.1279" x="355" y="31.8467">Menu_Retos</text><rect fill="#F1F1F1" height="40" rx="12.5" ry="12.5" style="stroke:#181818;stroke-width:0.5;" width="108.7383" x="343" y="1199"/><text fill="#000000" font-family="sans-serif" font-size="14" lengthAdjust="spacing" textLength="98.7383" x="348" y="1223.8467">CreandoRetos</text><path d="M19.5,107 L775.5,107 A12.5,12.5 0 0 1 788,119.5 L788,133.2969 L7,133.2969 L7,119.5 A12.5,12.5 0 0 1 19.5,107 " fill="#F1F1F1" style="stroke:#F1F1F1;stroke-width:1;"/><rect fill="none" height="1032.2969" rx="12.5" ry="12.5" style="stroke:#181818;stroke-width:0.5;" width="781" x="7" y="107"/><line style="stroke:#181818;stroke-width:0.5;" x1="7" x2="788" y1="133.2969" y2="133.2969"/><text fill="#000000" font-family="sans-serif" font-size="14" lengthAdjust="spacing" textLength="78.1689" x="358.4155" y="124.9951">CrearRetos</text><rect fill="#F1F1F1" height="40" rx="12.5" ry="12.5" style="stroke:#181818;stroke-width:0.5;" width="92.6191" x="197.5" y="235.2969"/><text fill="#000000" font-family="sans-serif" font-size="14" lengthAdjust="spacing" textLength="82.6191" x="202.5" y="260.1436">Crear Retos</text><g id="elem_reto"><polygon fill="#F1F1F1" points="244,568.2969,256,580.2969,244,592.2969,232,580.2969,244,568.2969" style="stroke:#181818;stroke-width:0.5;"/></g><ellipse cx="244" cy="154.2969" fill="#222222" rx="10" ry="10" style="stroke:#222222;stroke-width:1;"/><rect fill="#F1F1F1" height="40" rx="12.5" ry="12.5" style="stroke:#181818;stroke-width:0.5;" width="98.3271" x="195" y="346.2969"/><text fill="#000000" font-family="sans-serif" font-size="14" lengthAdjust="spacing" textLength="88.3271" x="200" y="371.1436">NombreReto</text><rect fill="#F1F1F1" height="40" rx="12.5" ry="12.5" style="stroke:#181818;stroke-width:0.5;" width="91.3271" x="198.5" y="457.2969"/><text fill="#000000" font-family="sans-serif" font-size="14" lengthAdjust="spacing" textLength="81.3271" x="203.5" y="482.1436">OpcionReto</text><rect fill="#F1F1F1" height="40" rx="12.5" ry="12.5" style="stroke:#181818;stroke-width:0.5;" width="119.8125" x="19" y="663.2969"/><text fill="#000000" font-family="sans-serif" font-size="14" lengthAdjust="spacing" textLength="109.8125" x="24" y="688.1436">RetoObligatorio</text><rect fill="#F1F1F1" height="40" rx="12.5" ry="12.5" style="stroke:#181818;stroke-width:0.5;" width="103.7959" x="383" y="663.2969"/><text fill="#000000" font-family="sans-serif" font-size="14" lengthAdjust="spacing" textLength="93.7959" x="388" y="688.1436">RetoOpcional</text><rect fill="#F1F1F1" height="40" rx="12.5" ry="12.5" style="stroke:#181818;stroke-width:0.5;" width="124.3379" x="196" y="774.2969"/><text fill="#000000" font-family="sans-serif" font-size="14" lengthAdjust="spacing" textLength="114.3379" x="201" y="799.1436">DescripcionReto</text><rect fill="#F1F1F1" height="40" rx="12.5" ry="12.5" style="stroke:#181818;stroke-width:0.5;" width="108.3008" x="204" y="885.2969"/><text fill="#000000" font-family="sans-serif" font-size="14" lengthAdjust="spacing" textLength="98.3008" x="209" y="910.1436">AsignarClases</text><rect fill="#F1F1F1" height="40" rx="12.5" ry="12.5" style="stroke:#181818;stroke-width:0.5;" width="80.875" x="217.5" y="996.2969"/><text fill="#000000" font-family="sans-serif" font-size="14" lengthAdjust="spacing" textLength="70.875" x="222.5" y="1021.1436">CrearReto</text><ellipse cx="258" cy="1118.2969" fill="none" rx="11" ry="11" style="stroke:#222222;stroke-width:1;"/><ellipse cx="258" cy="1118.2969" fill="#222222" rx="6" ry="6" style="stroke:#222222;stroke-width:1;"/><!--link *start*CrearRetos to IniciarRetos--><g id="link_*start*CrearRetos_IniciarRetos"><path d="M244,164.4369 C244,180.4169 244,207.7869 244,229.0669 " fill="none" id="*start*CrearRetos-to-IniciarRetos" style="stroke:#181818;stroke-width:1;"/><polygon fill="#181818" points="244,235.0669,248,226.0669,244,230.0669,240,226.0669,244,235.0669" style="stroke:#181818;stroke-width:1;"/><path d="M249,187.2969 L249,212.2969 L552,212.2969 L552,197.2969 L542,187.2969 L249,187.2969 " fill="#FEFFDD" style="stroke:#181818;stroke-width:0.5;"/><path d="M542,187.2969 L542,197.2969 L552,197.2969 L542,187.2969 " fill="#FEFFDD" style="stroke:#181818;stroke-width:0.5;"/><text fill="#000000" font-family="sans-serif" font-size="13" lengthAdjust="spacing" textLength="282.6167" x="255" y="204.3638">El profesor introduce: acceso a CrearRetos.</text></g><!--link IniciarRetos to NombreReto--><g id="link_IniciarRetos_NombreReto"><path d="M244,275.5369 C244,295.4569 244,320.3969 244,340.2569 " fill="none" id="IniciarRetos-to-NombreReto" style="stroke:#181818;stroke-width:1;"/><polygon fill="#181818" points="244,346.2569,248,337.2569,244,341.2569,240,337.2569,244,346.2569" style="stroke:#181818;stroke-width:1;"/><path d="M249,298.2969 L249,323.2969 L523,323.2969 L523,308.2969 L513,298.2969 L249,298.2969 " fill="#FEFFDD" style="stroke:#181818;stroke-width:0.5;"/><path d="M513,298.2969 L513,308.2969 L523,308.2969 L513,298.2969 " fill="#FEFFDD" style="stroke:#181818;stroke-width:0.5;"/><text fill="#000000" font-family="sans-serif" font-size="13" lengthAdjust="spacing" textLength="253.7856" x="255" y="315.3638">El profesor introduce: nombre del reto.</text></g><!--link NombreReto to OpcionReto--><g id="link_NombreReto_OpcionReto"><path d="M244,386.5369 C244,406.4569 244,431.3969 244,451.2569 " fill="none" id="NombreReto-to-OpcionReto" style="stroke:#181818;stroke-width:1;"/><polygon fill="#181818" points="244,457.2569,248,448.2569,244,452.2569,240,448.2569,244,457.2569" style="stroke:#181818;stroke-width:1;"/><path d="M249,409.2969 L249,434.2969 L494,434.2969 L494,419.2969 L484,409.2969 L249,409.2969 " fill="#FEFFDD" style="stroke:#181818;stroke-width:0.5;"/><path d="M484,409.2969 L484,419.2969 L494,419.2969 L484,409.2969 " fill="#FEFFDD" style="stroke:#181818;stroke-width:0.5;"/><text fill="#000000" font-family="sans-serif" font-size="13" lengthAdjust="spacing" textLength="224.6372" x="255" y="426.3638">El profesor introduce: tipo de reto.</text></g><!--link OpcionReto to reto--><g id="link_OpcionReto_reto"><path d="M244,497.7669 C244,518.6369 244,545.0369 244,562.0269 " fill="none" id="OpcionReto-to-reto" style="stroke:#181818;stroke-width:1;"/><polygon fill="#181818" points="244,568.0269,248,559.0269,244,563.0269,240,559.0269,244,568.0269" style="stroke:#181818;stroke-width:1;"/><path d="M249,520.2969 L249,545.2969 L565,545.2969 L565,530.2969 L555,520.2969 L249,520.2969 " fill="#FEFFDD" style="stroke:#181818;stroke-width:0.5;"/><path d="M555,520.2969 L555,530.2969 L565,530.2969 L555,520.2969 " fill="#FEFFDD" style="stroke:#181818;stroke-width:0.5;"/><text fill="#000000" font-family="sans-serif" font-size="13" lengthAdjust="spacing" textLength="295.9658" x="255" y="537.3638">El sistema muestra: opciones de tipo de reto.</text></g><!--link reto to RetoObligatorio--><g id="link_reto_RetoObligatorio"><path d="M232.83,581.1669 C195.3,580.9969 74.82,582.6269 51,610.2969 C37.96,625.4369 45.9439,642.5818 57.9339,658.2518 " fill="none" id="reto-to-RetoObligatorio" style="stroke:#181818;stroke-width:1;"/><polygon fill="#181818" points="61.58,663.0169,59.2877,653.4385,58.5416,659.0459,52.9342,658.2999,61.58,663.0169" style="stroke:#181818;stroke-width:1;"/><path d="M56,615.2969 L56,640.2969 L412,640.2969 L412,625.2969 L402,615.2969 L56,615.2969 " fill="#FEFFDD" style="stroke:#181818;stroke-width:0.5;"/><path d="M402,615.2969 L402,625.2969 L412,625.2969 L402,615.2969 " fill="#FEFFDD" style="stroke:#181818;stroke-width:0.5;"/><text fill="#000000" font-family="sans-serif" font-size="13" lengthAdjust="spacing" textLength="335.7783" x="62" y="632.3638">El profesor introduce: selección de RetoObligatorio.</text></g><!--link reto to RetoOpcional--><g id="link_reto_RetoOpcional"><path d="M254.99,581.6169 C289.23,582.8269 393.18,588.2869 417,610.2969 C431.48,623.6769 434.8793,640.7802 435.4293,657.2102 " fill="none" id="reto-to-RetoOpcional" style="stroke:#181818;stroke-width:1;"/><polygon fill="#181818" points="435.63,663.2069,439.3267,654.0781,435.4627,658.2097,431.3311,654.3457,435.63,663.2069" style="stroke:#181818;stroke-width:1;"/><path d="M438,615.2969 L438,640.2969 L779,640.2969 L779,625.2969 L769,615.2969 L438,615.2969 " fill="#FEFFDD" style="stroke:#181818;stroke-width:0.5;"/><path d="M769,615.2969 L769,625.2969 L779,625.2969 L769,615.2969 " fill="#FEFFDD" style="stroke:#181818;stroke-width:0.5;"/><text fill="#000000" font-family="sans-serif" font-size="13" lengthAdjust="spacing" textLength="320.9058" x="444" y="632.3638">El profesor introduce: selección de RetoOpcional.</text></g><!--link RetoObligatorio to DescripcionReto--><g id="link_RetoObligatorio_DescripcionReto"><path d="M77.38,703.4169 C77.1,719.6369 79.51,742.4169 93,756.2969 C107.32,771.0369 149.3894,779.8747 189.9494,785.6247 " fill="none" id="RetoObligatorio-to-DescripcionReto" style="stroke:#181818;stroke-width:1;"/><polygon fill="#181818" points="195.89,786.4669,187.5405,781.2432,190.9395,785.7651,186.4177,789.164,195.89,786.4669" style="stroke:#181818;stroke-width:1;"/><path d="M98,726.2969 L98,751.2969 L396,751.2969 L396,736.2969 L386,726.2969 L98,726.2969 " fill="#FEFFDD" style="stroke:#181818;stroke-width:0.5;"/><path d="M386,726.2969 L386,736.2969 L396,736.2969 L386,726.2969 " fill="#FEFFDD" style="stroke:#181818;stroke-width:0.5;"/><text fill="#000000" font-family="sans-serif" font-size="13" lengthAdjust="spacing" textLength="277.6655" x="104" y="743.3638">El profesor introduce: descripción del reto.</text></g><!--link RetoOpcional to DescripcionReto--><g id="link_RetoOpcional_DescripcionReto"><path d="M431.96,703.3169 C428.35,719.6969 420.69,742.7669 405,756.2969 C381.68,776.3969 354.9023,784.9582 326.2523,789.2982 " fill="none" id="RetoOpcional-to-DescripcionReto" style="stroke:#181818;stroke-width:1;"/><polygon fill="#181818" points="320.32,790.1969,329.8176,792.8038,325.2636,789.448,328.6194,784.894,320.32,790.1969" style="stroke:#181818;stroke-width:1;"/><path d="M431,726.2969 L431,751.2969 L729,751.2969 L729,736.2969 L719,726.2969 L431,726.2969 " fill="#FEFFDD" style="stroke:#181818;stroke-width:0.5;"/><path d="M719,726.2969 L719,736.2969 L729,736.2969 L719,726.2969 " fill="#FEFFDD" style="stroke:#181818;stroke-width:0.5;"/><text fill="#000000" font-family="sans-serif" font-size="13" lengthAdjust="spacing" textLength="277.6655" x="437" y="743.3638">El profesor introduce: descripción del reto.</text></g><!--link DescripcionReto to AsignarClases--><g id="link_DescripcionReto_AsignarClases"><path d="M258,814.5369 C258,834.4569 258,859.3969 258,879.2569 " fill="none" id="DescripcionReto-to-AsignarClases" style="stroke:#181818;stroke-width:1;"/><polygon fill="#181818" points="258,885.2569,262,876.2569,258,880.2569,254,876.2569,258,885.2569" style="stroke:#181818;stroke-width:1;"/><path d="M263,837.2969 L263,862.2969 L589,862.2969 L589,847.2969 L579,837.2969 L263,837.2969 " fill="#FEFFDD" style="stroke:#181818;stroke-width:0.5;"/><path d="M579,837.2969 L579,847.2969 L589,847.2969 L579,837.2969 " fill="#FEFFDD" style="stroke:#181818;stroke-width:0.5;"/><text fill="#000000" font-family="sans-serif" font-size="13" lengthAdjust="spacing" textLength="305.2524" x="269" y="854.3638">El profesor introduce: clases asignadas al reto.</text></g><!--link AsignarClases to CrearReto--><g id="link_AsignarClases_CrearReto"><path d="M258,925.5369 C258,945.4569 258,970.3969 258,990.2569 " fill="none" id="AsignarClases-to-CrearReto" style="stroke:#181818;stroke-width:1;"/><polygon fill="#181818" points="258,996.2569,262,987.2569,258,991.2569,254,987.2569,258,996.2569" style="stroke:#181818;stroke-width:1;"/><path d="M263,948.2969 L263,973.2969 L537,973.2969 L537,958.2969 L527,948.2969 L263,948.2969 " fill="#FEFFDD" style="stroke:#181818;stroke-width:0.5;"/><path d="M527,948.2969 L527,958.2969 L537,958.2969 L527,948.2969 " fill="#FEFFDD" style="stroke:#181818;stroke-width:0.5;"/><text fill="#000000" font-family="sans-serif" font-size="13" lengthAdjust="spacing" textLength="253.062" x="269" y="965.3638">El sistema muestra: opción de "Crear".</text></g><!--link CrearReto to *end*CrearRetos--><g id="link_CrearReto_*end*CrearRetos"><path d="M258,1036.5769 C258,1057.6869 258,1084.7369 258,1101.2269 " fill="none" id="CrearReto-to-*end*CrearRetos" style="stroke:#181818;stroke-width:1;"/><polygon fill="#181818" points="258,1107.2269,262,1098.2269,258,1102.2269,254,1098.2269,258,1107.2269" style="stroke:#181818;stroke-width:1;"/><path d="M263,1059.2969 L263,1084.2969 L605,1084.2969 L605,1069.2969 L595,1059.2969 L263,1059.2969 " fill="#FEFFDD" style="stroke:#181818;stroke-width:0.5;"/><path d="M595,1059.2969 L595,1069.2969 L605,1069.2969 L595,1059.2969 " fill="#FEFFDD" style="stroke:#181818;stroke-width:0.5;"/><text fill="#000000" font-family="sans-serif" font-size="13" lengthAdjust="spacing" textLength="321.8579" x="269" y="1076.3638">El sistema muestra: confirmación de reto creado.</text></g><!--link Menu_Retos to CrearRetos--><g id="link_Menu_Retos_CrearRetos"><path d="M397.5,47.09 C397.5,60.89 397.5,75.54 397.5,100.92 " fill="none" id="Menu_Retos-to-CrearRetos" style="stroke:#181818;stroke-width:1;"/><polygon fill="#181818" points="397.5,106.92,401.5,97.92,397.5,101.92,393.5,97.92,397.5,106.92" style="stroke:#181818;stroke-width:1;"/></g><!--link CrearRetos to CreandoRetos--><g id="link_CrearRetos_CreandoRetos"><path d="M397.5,1139.12 C397.5,1164.36 397.5,1178.92 397.5,1192.71 " fill="none" id="CrearRetos-to-CreandoRetos" style="stroke:#181818;stroke-width:1;"/><polygon fill="#181818" points="397.5,1198.71,401.5,1189.71,397.5,1193.71,393.5,1189.71,397.5,1198.71" style="stroke:#181818;stroke-width:1;"/></g><!--SRC=[lPJFIWCn4CRlUOgXHw4-G2a5gHuyQC6hYAJ9j1tC9akI7aHyAX_15pEPTDlTfQLiaUQMcSpt-_9lDgGHiAhZ9sWCobCToLaXGfGHuGdjzlq5emkxmDoZjDgLK2lcEG9VGa0Q9VveIL6JaG56l11uFk9rhpTlC1xFEYivOLsgTnOCsGyEvF5WeFPkXS5v81kzqrk54v1AfH38bezRha6hMQXuwhZ9q6TNBJtc-M2avT9qO0PygZ-6EwWpR56hTAmNmIBLBg5EaifXvonCfshZIE5infa3b3tuS_H08M8beTfYY5vEmB40Xem_PyCtcCnRB0sjPNIUXkyte46bwFV7PbnFxJoPBKlp7zYTr35cpnRZxyl_kVYYTLDVF9n-MsrproNtG0o_2xIsqi-D33ZyzoekI-qXY-ZK9UHfUeV4xFsN7_wkTnTTcjBe66ulpgZKguP1bBChyfNSe_YTgYIg-xlx5kBGQRiR2wBLNfjCqu7_0000]--></g></svg>