<svg xmlns="http://www.w3.org/2000/svg" xmlns:xlink="http://www.w3.org/1999/xlink" contentStyleType="text/css" height="802px" preserveAspectRatio="none" style="width:1078px;height:802px;background:#FFFFFF;" version="1.1" viewBox="0 0 1078 802" width="1078px" zoomAndPan="magnify"><defs/><g><g id="elem_rombo"><polygon fill="#F1F1F1" points="413.5,6,425.5,18,413.5,30,401.5,18,413.5,6" style="stroke:#181818;stroke-width:0.5;"/></g><path d="M463.5,345 L863.1826,345 A12.5,12.5 0 0 1 875.6826,357.5 L875.6826,371.2969 L451,371.2969 L451,357.5 A12.5,12.5 0 0 1 463.5,345 " fill="#F1F1F1" style="stroke:#F1F1F1;stroke-width:1;"/><rect fill="none" height="451.2969" rx="12.5" ry="12.5" style="stroke:#181818;stroke-width:0.5;" width="424.6826" x="451" y="345"/><line style="stroke:#181818;stroke-width:0.5;" x1="451" x2="875.6826" y1="371.2969" y2="371.2969"/><text fill="#000000" font-family="sans-serif" font-size="14" lengthAdjust="spacing" textLength="83.9111" x="621.3857" y="362.9951">CrearRutina</text><ellipse cx="546.5" cy="392.2969" fill="#222222" rx="10" ry="10" style="stroke:#222222;stroke-width:1;"/><g id="CrearRutina.SolicitarDatosRutina"><rect fill="#F1F1F1" height="50" rx="12.5" ry="12.5" style="stroke:#181818;stroke-width:0.5;" width="162.7822" x="465" y="455.2969"/><line style="stroke:#181818;stroke-width:0.5;" x1="465" x2="627.7822" y1="481.5938" y2="481.5938"/><text fill="#000000" font-family="sans-serif" font-size="14" lengthAdjust="spacing" textLength="142.7822" x="475" y="473.292">SolicitarDatosRutina</text></g><g id="CrearRutina.SeleccionarEjercicios"><rect fill="#F1F1F1" height="50" rx="12.5" ry="12.5" style="stroke:#181818;stroke-width:0.5;" width="167.1982" x="463" y="558.2969"/><line style="stroke:#181818;stroke-width:0.5;" x1="463" x2="630.1982" y1="584.5938" y2="584.5938"/><text fill="#000000" font-family="sans-serif" font-size="14" lengthAdjust="spacing" textLength="147.1982" x="473" y="576.292">SeleccionarEjercicios</text></g><g id="CrearRutina.ConfirmarCreacion"><rect fill="#F1F1F1" height="50" rx="12.5" ry="12.5" style="stroke:#181818;stroke-width:0.5;" width="151.5098" x="470.5" y="661.2969"/><line style="stroke:#181818;stroke-width:0.5;" x1="470.5" x2="622.0098" y1="687.5938" y2="687.5938"/><text fill="#000000" font-family="sans-serif" font-size="14" lengthAdjust="spacing" textLength="131.5098" x="480.5" y="679.292">ConfirmarCreacion</text></g><ellipse cx="546.5" cy="775.2969" fill="none" rx="11" ry="11" style="stroke:#222222;stroke-width:1;"/><ellipse cx="546.5" cy="775.2969" fill="#222222" rx="6" ry="6" style="stroke:#222222;stroke-width:1;"/><!--link *start*CrearRutina to SolicitarDatosRutina--><g id="link_*start*CrearRutina_SolicitarDatosRutina"><path d="M546.5,402.4969 C546.5,414.9769 546.5,431.7169 546.5,449.2269 " fill="none" id="*start*CrearRutina-to-SolicitarDatosRutina" style="stroke:#181818;stroke-width:1;"/><polygon fill="#181818" points="546.5,455.2269,550.5,446.2269,546.5,450.2269,542.5,446.2269,546.5,455.2269" style="stroke:#181818;stroke-width:1;"/><text fill="#000000" font-family="sans-serif" font-size="13" lengthAdjust="spacing" textLength="318.1826" x="547.5" y="433.3638">El sistema solicita nombre y objetivo de la rutina</text></g><!--link SolicitarDatosRutina to SeleccionarEjercicios--><g id="link_SolicitarDatosRutina_SeleccionarEjercicios"><path d="M546.5,505.4869 C546.5,521.3669 546.5,536.0469 546.5,551.9569 " fill="none" id="SolicitarDatosRutina-to-SeleccionarEjercicios" style="stroke:#181818;stroke-width:1;"/><polygon fill="#181818" points="546.5,557.9569,550.5,548.9569,546.5,552.9569,542.5,548.9569,546.5,557.9569" style="stroke:#181818;stroke-width:1;"/><text fill="#000000" font-family="sans-serif" font-size="13" lengthAdjust="spacing" textLength="275.3486" x="547.5" y="536.3638">El profesor selecciona ejercicios de la lista</text></g><!--link SeleccionarEjercicios to ConfirmarCreacion--><g id="link_SeleccionarEjercicios_ConfirmarCreacion"><path d="M546.5,608.4869 C546.5,624.3669 546.5,639.0469 546.5,654.9569 " fill="none" id="SeleccionarEjercicios-to-ConfirmarCreacion" style="stroke:#181818;stroke-width:1;"/><polygon fill="#181818" points="546.5,660.9569,550.5,651.9569,546.5,655.9569,542.5,651.9569,546.5,660.9569" style="stroke:#181818;stroke-width:1;"/><text fill="#000000" font-family="sans-serif" font-size="13" lengthAdjust="spacing" textLength="182.2476" x="547.5" y="639.3638">El profesor presiona "Crear"</text></g><!--link ConfirmarCreacion to *end*CrearRutina--><g id="link_ConfirmarCreacion_*end*CrearRutina"><path d="M546.5,711.5269 C546.5,728.8269 546.5,745.2169 546.5,758.0469 " fill="none" id="ConfirmarCreacion-to-*end*CrearRutina" style="stroke:#181818;stroke-width:1;"/><polygon fill="#181818" points="546.5,764.0469,550.5,755.0469,546.5,759.0469,542.5,755.0469,546.5,764.0469" style="stroke:#181818;stroke-width:1;"/><text fill="#000000" font-family="sans-serif" font-size="13" lengthAdjust="spacing" textLength="154.9526" x="547.5" y="742.3638">Rutina creada con &#233;xito</text></g><ellipse cx="762.5" cy="18" fill="#222222" rx="10" ry="10" style="stroke:#222222;stroke-width:1;"/><g id="Menu_Rutinas_y_Ejercicios"><rect fill="#F1F1F1" height="50" rx="12.5" ry="12.5" style="stroke:#181818;stroke-width:0.5;" width="206.5869" x="659" y="107"/><line style="stroke:#181818;stroke-width:0.5;" x1="659" x2="865.5869" y1="133.2969" y2="133.2969"/><text fill="#000000" font-family="sans-serif" font-size="14" lengthAdjust="spacing" textLength="186.5869" x="669" y="124.9951">Menu_Rutinas_y_Ejercicios</text></g><g id="Menu_Perfil"><rect fill="#F1F1F1" height="50" rx="12.5" ry="12.5" style="stroke:#181818;stroke-width:0.5;" width="100.958" x="7" y="107"/><line style="stroke:#181818;stroke-width:0.5;" x1="7" x2="107.958" y1="133.2969" y2="133.2969"/><text fill="#000000" font-family="sans-serif" font-size="14" lengthAdjust="spacing" textLength="80.958" x="17" y="124.9951">Menu_Perfil</text></g><g id="Menu_Retos"><rect fill="#F1F1F1" height="50" rx="12.5" ry="12.5" style="stroke:#181818;stroke-width:0.5;" width="105.1279" x="143" y="107"/><line style="stroke:#181818;stroke-width:0.5;" x1="143" x2="248.1279" y1="133.2969" y2="133.2969"/><text fill="#000000" font-family="sans-serif" font-size="14" lengthAdjust="spacing" textLength="85.1279" x="153" y="124.9951">Menu_Retos</text></g><g id="Clasificaci&#243;n"><rect fill="#F1F1F1" height="50" rx="12.5" ry="12.5" style="stroke:#181818;stroke-width:0.5;" width="107.5479" x="283.5" y="107"/><line style="stroke:#181818;stroke-width:0.5;" x1="283.5" x2="391.0479" y1="133.2969" y2="133.2969"/><text fill="#000000" font-family="sans-serif" font-size="14" lengthAdjust="spacing" textLength="87.5479" x="293.5" y="124.9951">Clasificaci&#243;n</text></g><g id="Menu_Principal"><rect fill="#F1F1F1" height="50" rx="12.5" ry="12.5" style="stroke:#181818;stroke-width:0.5;" width="125.3418" x="427" y="107"/><line style="stroke:#181818;stroke-width:0.5;" x1="427" x2="552.3418" y1="133.2969" y2="133.2969"/><text fill="#000000" font-family="sans-serif" font-size="14" lengthAdjust="spacing" textLength="105.3418" x="437" y="124.9951">Menu_Principal</text></g><g id="MostrarRutina"><rect fill="#F1F1F1" height="50" rx="12.5" ry="12.5" style="stroke:#181818;stroke-width:0.5;" width="118.9502" x="679" y="218"/><line style="stroke:#181818;stroke-width:0.5;" x1="679" x2="797.9502" y1="244.2969" y2="244.2969"/><text fill="#000000" font-family="sans-serif" font-size="14" lengthAdjust="spacing" textLength="98.9502" x="689" y="235.9951">MostrarRutina</text></g><!--link *start* to Menu_Rutinas_y_Ejercicios--><g id="link_*start*_Menu_Rutinas_y_Ejercicios"><path d="M762.5,28.17 C762.5,45.2 762.5,76.23 762.5,100.89 " fill="none" id="*start*-to-Menu_Rutinas_y_Ejercicios" style="stroke:#181818;stroke-width:1;"/><polygon fill="#181818" points="762.5,106.89,766.5,97.89,762.5,101.89,758.5,97.89,762.5,106.89" style="stroke:#181818;stroke-width:1;"/><text fill="#000000" font-family="sans-serif" font-size="13" lengthAdjust="spacing" textLength="113.9468" x="763.5" y="73.0669">Inicio del proceso</text></g><!--link rombo to Menu_Perfil--><g id="link_rombo_Menu_Perfil"><path d="M404.5,21.6 C368.92,31.9 234.76,71.05 125.5,107 C119.91,108.84 119.7512,108.851 113.9612,110.851 " fill="none" id="rombo-to-Menu_Perfil" style="stroke:#181818;stroke-width:1;"/><polygon fill="#181818" points="108.29,112.81,118.1028,113.6524,113.016,111.1775,115.4908,106.0908,108.29,112.81" style="stroke:#181818;stroke-width:1;"/></g><!--link rombo to Menu_Retos--><g id="link_rombo_Menu_Retos"><path d="M406,22.86 C380.62,35.89 301.9071,76.3387 247.9971,104.0287 " fill="none" id="rombo-to-Menu_Retos" style="stroke:#181818;stroke-width:1;"/><polygon fill="#181818" points="242.66,106.77,252.4933,106.2161,247.1076,104.4856,248.8382,99.0999,242.66,106.77" style="stroke:#181818;stroke-width:1;"/></g><!--link rombo to Clasificaci?n--><g id="link_rombo_Clasificaci&#243;n"><path d="M408.97,25.67 C398.36,41.31 374.8278,75.9844 357.2278,101.9344 " fill="none" id="rombo-to-Clasificaci&#243;n" style="stroke:#181818;stroke-width:1;"/><polygon fill="#181818" points="353.86,106.9,362.2222,101.6968,356.6665,102.762,355.6013,97.2063,353.86,106.9" style="stroke:#181818;stroke-width:1;"/></g><!--link rombo to Menu_Rutinas_y_Ejercicios--><g id="link_rombo_Menu_Rutinas_y_Ejercicios"><path d="M423.79,19.8 C455.55,22.49 554.57,32.67 631.5,60 C664.9,71.86 694.9502,88.2315 720.4302,103.8015 " fill="none" id="rombo-to-Menu_Rutinas_y_Ejercicios" style="stroke:#181818;stroke-width:1;"/><polygon fill="#181818" points="725.55,106.93,719.956,98.824,721.2835,104.3229,715.7846,105.6504,725.55,106.93" style="stroke:#181818;stroke-width:1;"/></g><!--link rombo to Menu_Principal--><g id="link_rombo_Menu_Principal"><path d="M418.03,25.67 C428.64,41.31 452.1722,75.9844 469.7722,101.9344 " fill="none" id="rombo-to-Menu_Principal" style="stroke:#181818;stroke-width:1;"/><polygon fill="#181818" points="473.14,106.9,471.3987,97.2063,470.3335,102.762,464.7778,101.6968,473.14,106.9" style="stroke:#181818;stroke-width:1;"/></g><!--link Menu_Rutinas_y_Ejercicios to CrearRutina--><g id="link_Menu_Rutinas_y_Ejercicios_CrearRutina"><path d="M792.5,157.21 C830.24,190.83 887.72,254.37 866.5,315 C863,325 861.453,329.4609 856.903,339.2309 " fill="none" id="Menu_Rutinas_y_Ejercicios-to-CrearRutina" style="stroke:#181818;stroke-width:1;"/><polygon fill="#181818" points="854.37,344.67,861.7956,338.2001,856.4809,340.1374,854.5435,334.8227,854.37,344.67" style="stroke:#181818;stroke-width:1;"/><text fill="#000000" font-family="sans-serif" font-size="13" lengthAdjust="spacing" textLength="200.8398" x="869.5" y="247.5669">Presionar bot&#243;n "Crear Rutina"</text></g><!--link Menu_Rutinas_y_Ejercicios to MostrarRutina--><g id="link_Menu_Rutinas_y_Ejercicios_MostrarRutina"><path d="M757.17,157.19 C753.2,175.25 749.082,193.9707 745.102,212.0207 " fill="none" id="Menu_Rutinas_y_Ejercicios-to-MostrarRutina" style="stroke:#181818;stroke-width:1;"/><polygon fill="#181818" points="743.81,217.88,749.6541,209.9524,744.8866,212.9973,741.8418,208.2298,743.81,217.88" style="stroke:#181818;stroke-width:1;"/></g><!--link MostrarRutina to CrearRutina--><g id="link_MostrarRutina_CrearRutina"><path d="M688.47,268.06 C677.27,275.96 666.84,285.89 660.5,298 C652.79,312.72 648.6233,322.6869 644.8133,339.0169 " fill="none" id="MostrarRutina-to-CrearRutina" style="stroke:#181818;stroke-width:1;"/><polygon fill="#181818" points="643.45,344.86,649.3903,337.0042,644.5861,339.9908,641.5995,335.1865,643.45,344.86" style="stroke:#181818;stroke-width:1;"/><text fill="#000000" font-family="sans-serif" font-size="13" lengthAdjust="spacing" textLength="200.8398" x="661.5" y="311.0669">Presionar bot&#243;n "Crear Rutina"</text></g><!--link CrearRutina to rombo--><g id="link_CrearRutina_rombo"><path d="M635.74,344.98 C620.08,247.2 597.91,146.05 569.5,107 C530.91,53.94 455.757,30.1076 428.487,22.8276 " fill="none" id="CrearRutina-to-rombo" style="stroke:#181818;stroke-width:1;"/><polygon fill="#181818" points="422.69,21.28,430.3538,27.466,427.5208,22.5696,432.4172,19.7367,422.69,21.28" style="stroke:#181818;stroke-width:1;"/></g><!--SRC=[XL91Ri8m4Bpx5IkEbVW0GbpQ77f0Gd14LUIOZRh8yKPhKnLLVL3FVG8Vg-sa518gJd5snpEpuzq-lC1qke0bkaEvFWHosfV7ijYZ63B47cRmxD89TcYX5JReMVcW0u9mKp7Cv-QLoU1YeRh2cM-5KfCTLjSOs5yK7wtsL9FHXaxVReI-uMca8-GCjTegzVySMKfGIzUDSwq4FR7J0XM7A0sJt8SECBd3jMGVv9TDNVqDjUvBNHfBb_E0ge_vilcX0BRTcstOHZT1ovEEWPwdAYnuyW4R3Rv7W8jqWd04hlOOw2qz9bWDqfa7kCcLZ6pGeZ7P-jLE57aNwhWB0lwC0Vp3T0esMia2DtboJkngaaPB6ZCX1knj7rqVsIIIZQyaeXJBh4yKJEpiuYVsJb_l55Xz_W00]--></g></svg>