<svg xmlns="http://www.w3.org/2000/svg" xmlns:xlink="http://www.w3.org/1999/xlink" contentStyleType="text/css" height="928px" preserveAspectRatio="none" style="width:1085px;height:928px;background:#FFFFFF;" version="1.1" viewBox="0 0 1085 928" width="1085px" zoomAndPan="magnify"><defs/><g><rect fill="#F1F1F1" height="40" rx="12.5" ry="12.5" style="stroke:#181818;stroke-width:0.5;" width="107.2002" x="486" y="882"/><text fill="#000000" font-family="sans-serif" font-size="14" lengthAdjust="spacing" textLength="97.2002" x="491" y="906.8467">CreandoClase</text><rect fill="#F1F1F1" height="40" rx="12.5" ry="12.5" style="stroke:#181818;stroke-width:0.5;" width="88.4082" x="495.5" y="7"/><text fill="#000000" font-family="sans-serif" font-size="14" lengthAdjust="spacing" textLength="78.4082" x="500.5" y="31.8467">Menu Perfil</text><path d="M19.5,107 L1059.14,107 A12.5,12.5 0 0 1 1071.64,119.5 L1071.64,133.2969 L7,133.2969 L7,119.5 A12.5,12.5 0 0 1 19.5,107 " fill="#F1F1F1" style="stroke:#F1F1F1;stroke-width:1;"/><rect fill="none" height="715.2969" rx="12.5" ry="12.5" style="stroke:#181818;stroke-width:0.5;" width="1064.64" x="7" y="107"/><line style="stroke:#181818;stroke-width:0.5;" x1="7" x2="1071.64" y1="133.2969" y2="133.2969"/><text fill="#000000" font-family="sans-serif" font-size="14" lengthAdjust="spacing" textLength="76.6309" x="501.0046" y="124.9951">CrearClase</text><rect fill="#F1F1F1" height="40" rx="12.5" ry="12.5" style="stroke:#181818;stroke-width:0.5;" width="91.0811" x="137.14" y="235.2969"/><text fill="#000000" font-family="sans-serif" font-size="14" lengthAdjust="spacing" textLength="81.0811" x="142.14" y="260.1436">Crear Clase</text><rect fill="#F1F1F1" height="40" rx="12.5" ry="12.5" style="stroke:#181818;stroke-width:0.5;" width="133.5254" x="115.64" y="346.2969"/><text fill="#000000" font-family="sans-serif" font-size="14" lengthAdjust="spacing" textLength="123.5254" x="120.64" y="371.1436">Llenar Formulario</text><rect fill="#F1F1F1" height="40" rx="12.5" ry="12.5" style="stroke:#181818;stroke-width:0.5;" width="104.3154" x="130.64" y="457.2969"/><text fill="#000000" font-family="sans-serif" font-size="14" lengthAdjust="spacing" textLength="94.3154" x="135.64" y="482.1436">Validar Datos</text><rect fill="#F1F1F1" height="40" rx="12.5" ry="12.5" style="stroke:#181818;stroke-width:0.5;" width="145.96" x="109.64" y="568.2969"/><text fill="#000000" font-family="sans-serif" font-size="14" lengthAdjust="spacing" textLength="135.96" x="114.64" y="593.1436">Confirmar Creación</text><rect fill="#F1F1F1" height="40" rx="12.5" ry="12.5" style="stroke:#181818;stroke-width:0.5;" width="102.791" x="131.14" y="679.2969"/><text fill="#000000" font-family="sans-serif" font-size="14" lengthAdjust="spacing" textLength="92.791" x="136.14" y="704.1436">Clase Creada</text><ellipse cx="182.64" cy="154.2969" fill="#222222" rx="10" ry="10" style="stroke:#222222;stroke-width:1;"/><ellipse cx="182.64" cy="801.2969" fill="none" rx="11" ry="11" style="stroke:#222222;stroke-width:1;"/><ellipse cx="182.64" cy="801.2969" fill="#222222" rx="6" ry="6" style="stroke:#222222;stroke-width:1;"/><!--link *start*CrearClase to IniciarClase--><g id="link_*start*CrearClase_IniciarClase"><path d="M182.64,164.4369 C182.64,180.4169 182.64,207.7869 182.64,229.0669 " fill="none" id="*start*CrearClase-to-IniciarClase" style="stroke:#181818;stroke-width:1;"/><polygon fill="#181818" points="182.64,235.0669,186.64,226.0669,182.64,230.0669,178.64,226.0669,182.64,235.0669" style="stroke:#181818;stroke-width:1;"/><path d="M187.64,187.2969 L187.64,212.2969 L520.64,212.2969 L520.64,197.2969 L510.64,187.2969 L187.64,187.2969 " fill="#FEFFDD" style="stroke:#181818;stroke-width:0.5;"/><path d="M510.64,187.2969 L510.64,197.2969 L520.64,197.2969 L510.64,187.2969 " fill="#FEFFDD" style="stroke:#181818;stroke-width:0.5;"/><text fill="#000000" font-family="sans-serif" font-size="13" lengthAdjust="spacing" textLength="312.3364" x="193.64" y="204.3638">El profesor introduce: solicitud para crear clase.</text></g><!--link IniciarClase to Formulario--><g id="link_IniciarClase_Formulario"><path d="M182.64,275.5369 C182.64,295.4569 182.64,320.3969 182.64,340.2569 " fill="none" id="IniciarClase-to-Formulario" style="stroke:#181818;stroke-width:1;"/><polygon fill="#181818" points="182.64,346.2569,186.64,337.2569,182.64,341.2569,178.64,337.2569,182.64,346.2569" style="stroke:#181818;stroke-width:1;"/><path d="M187.64,298.2969 L187.64,323.2969 L1062.64,323.2969 L1062.64,308.2969 L1052.64,298.2969 L187.64,298.2969 " fill="#FEFFDD" style="stroke:#181818;stroke-width:0.5;"/><path d="M1052.64,298.2969 L1052.64,308.2969 L1062.64,308.2969 L1052.64,298.2969 " fill="#FEFFDD" style="stroke:#181818;stroke-width:0.5;"/><text fill="#000000" font-family="sans-serif" font-size="13" lengthAdjust="spacing" textLength="854.0645" x="193.64" y="315.3638">El sistema muestra: formulario para crear la clase con los campos: Nombre de la clase, Descripción de la clase, Código de la clase.</text></g><!--link Formulario to ValidarDatos--><g id="link_Formulario_ValidarDatos"><path d="M115.47,375.0369 C78.88,380.7869 38.82,390.1269 27.64,404.2969 C18,416.5069 18,427.0869 27.64,439.2969 C40.37,455.4169 84.5353,464.4739 124.3853,469.9239 " fill="none" id="Formulario-to-ValidarDatos" style="stroke:#181818;stroke-width:1;"/><polygon fill="#181818" points="130.33,470.7369,121.955,465.5543,125.3761,470.0594,120.871,473.4805,130.33,470.7369" style="stroke:#181818;stroke-width:1;"/><path d="M32.64,409.2969 L32.64,434.2969 L311.64,434.2969 L311.64,419.2969 L301.64,409.2969 L32.64,409.2969 " fill="#FEFFDD" style="stroke:#181818;stroke-width:0.5;"/><path d="M301.64,409.2969 L301.64,419.2969 L311.64,419.2969 L301.64,409.2969 " fill="#FEFFDD" style="stroke:#181818;stroke-width:0.5;"/><text fill="#000000" font-family="sans-serif" font-size="13" lengthAdjust="spacing" textLength="258.5781" x="38.64" y="426.3638">El profesor introduce: datos de la clase.</text></g><!--link ValidarDatos to ConfirmarCreacion--><g id="link_ValidarDatos_ConfirmarCreacion"><path d="M182.64,497.5369 C182.64,517.4569 182.64,542.3969 182.64,562.2569 " fill="none" id="ValidarDatos-to-ConfirmarCreacion" style="stroke:#181818;stroke-width:1;"/><polygon fill="#181818" points="182.64,568.2569,186.64,559.2569,182.64,563.2569,178.64,559.2569,182.64,568.2569" style="stroke:#181818;stroke-width:1;"/><path d="M187.64,520.2969 L187.64,545.2969 L633.64,545.2969 L633.64,530.2969 L623.64,520.2969 L187.64,520.2969 " fill="#FEFFDD" style="stroke:#181818;stroke-width:0.5;"/><path d="M623.64,520.2969 L623.64,530.2969 L633.64,530.2969 L623.64,520.2969 " fill="#FEFFDD" style="stroke:#181818;stroke-width:0.5;"/><text fill="#000000" font-family="sans-serif" font-size="13" lengthAdjust="spacing" textLength="425.9023" x="193.64" y="537.3638">El sistema muestra: solicitud de confirmación para crear la clase.</text></g><!--link ValidarDatos to Formulario--><g id="link_ValidarDatos_Formulario"><path d="M234.66,468.5369 C267.85,462.4069 306.48,452.6469 316.64,439.2969 C326.06,426.9169 326.06,416.6769 316.64,404.2969 C308.01,392.9669 284.7395,385.4614 255.8295,379.3314 " fill="none" id="ValidarDatos-to-Formulario" style="stroke:#181818;stroke-width:1;"/><polygon fill="#181818" points="249.96,378.0869,257.9346,383.8667,254.8513,379.124,259.594,376.0407,249.96,378.0869" style="stroke:#181818;stroke-width:1;"/><path d="M328.64,409.2969 L328.64,434.2969 L776.64,434.2969 L776.64,419.2969 L766.64,409.2969 L328.64,409.2969 " fill="#FEFFDD" style="stroke:#181818;stroke-width:0.5;"/><path d="M766.64,409.2969 L766.64,419.2969 L776.64,419.2969 L766.64,409.2969 " fill="#FEFFDD" style="stroke:#181818;stroke-width:0.5;"/><text fill="#000000" font-family="sans-serif" font-size="13" lengthAdjust="spacing" textLength="427.6606" x="334.64" y="426.3638">El sistema muestra: errores o datos incompletos en el formulario.</text></g><!--link ConfirmarCreacion to ClaseCreada--><g id="link_ConfirmarCreacion_ClaseCreada"><path d="M182.64,608.5369 C182.64,628.4569 182.64,653.3969 182.64,673.2569 " fill="none" id="ConfirmarCreacion-to-ClaseCreada" style="stroke:#181818;stroke-width:1;"/><polygon fill="#181818" points="182.64,679.2569,186.64,670.2569,182.64,674.2569,178.64,670.2569,182.64,679.2569" style="stroke:#181818;stroke-width:1;"/><path d="M187.64,631.2969 L187.64,656.2969 L566.64,656.2969 L566.64,641.2969 L556.64,631.2969 L187.64,631.2969 " fill="#FEFFDD" style="stroke:#181818;stroke-width:0.5;"/><path d="M556.64,631.2969 L556.64,641.2969 L566.64,641.2969 L556.64,631.2969 " fill="#FEFFDD" style="stroke:#181818;stroke-width:0.5;"/><text fill="#000000" font-family="sans-serif" font-size="13" lengthAdjust="spacing" textLength="358.2046" x="193.64" y="648.3638">El profesor introduce: confirmación para crear la clase.</text></g><!--link ClaseCreada to *end*CrearClase--><g id="link_ClaseCreada_*end*CrearClase"><path d="M182.64,719.5769 C182.64,740.6869 182.64,767.7369 182.64,784.2269 " fill="none" id="ClaseCreada-to-*end*CrearClase" style="stroke:#181818;stroke-width:1;"/><polygon fill="#181818" points="182.64,790.2269,186.64,781.2269,182.64,785.2269,178.64,781.2269,182.64,790.2269" style="stroke:#181818;stroke-width:1;"/><path d="M187.64,742.2969 L187.64,767.2969 L860.64,767.2969 L860.64,752.2969 L850.64,742.2969 L187.64,742.2969 " fill="#FEFFDD" style="stroke:#181818;stroke-width:0.5;"/><path d="M850.64,742.2969 L850.64,752.2969 L860.64,752.2969 L850.64,742.2969 " fill="#FEFFDD" style="stroke:#181818;stroke-width:0.5;"/><text fill="#000000" font-family="sans-serif" font-size="13" lengthAdjust="spacing" textLength="652.4312" x="193.64" y="759.3638">El sistema muestra: mensaje de clase creada exitosamente. Código de la clase listo para compartir.</text></g><!--link Menu_Perfil to CrearClase--><g id="link_Menu_Perfil_CrearClase"><path d="M539.5,47.27 C539.5,61.18 539.5,75.84 539.5,100.64 " fill="none" id="Menu_Perfil-to-CrearClase" style="stroke:#181818;stroke-width:1;"/><polygon fill="#181818" points="539.5,106.64,543.5,97.64,539.5,101.64,535.5,97.64,539.5,106.64" style="stroke:#181818;stroke-width:1;"/></g><!--link CrearClase to CreandoClase--><g id="link_CrearClase_CreandoClase"><path d="M539.5,822.13 C539.5,847.16 539.5,861.99 539.5,875.94 " fill="none" id="CrearClase-to-CreandoClase" style="stroke:#181818;stroke-width:1;"/><polygon fill="#181818" points="539.5,881.94,543.5,872.94,539.5,876.94,535.5,872.94,539.5,881.94" style="stroke:#181818;stroke-width:1;"/></g><!--SRC=[dLJDRXGn3BxFKrXxhDe-m1vwsOA41AYdNb25JEA5G1AFd8n4XVfKVOI-68cpqydG5R2Tq-JppsT_TlBDMG8AOxu7Iyc86xFZEAICcM0dXD7opcEY0_I1ulJvXcJlF622JJr3Es-6Bamq27uD0vIluU-YCswsr61r13rlEh-tB67oA8xLwxsdMDmMjFUzHUyioZLcJkfz042HtdF7SUya5Fx2QagJhOGPXGO_FSPLKAsjMYmsTwsz0PlMswUpExYuk5frfuR89K6XyIx-KA1-RpoCmdjABE1Y5hQJeIqazYKwJnP650IZmfYQwb93ALhDroXNGbRkHPk_CYUNCWM4C57AWblOBqftl1uRDPYQe-XgC8oSjl2HmnUXiYZFBkTmtRP6bLjRTa-Frdtb7ZpMJ3Vjsae_q9DbjBe6_o1ShKobVB4PfucupCwgP9ghwN54rF-gwBNp914MIi079Lmq74PFzPyYaEycVgoGbtT4zLakmSaJUPKU_Qsh1PGhTfeEWMB2xxgfXqrkoUYdAr9WCMUwFBQW9NNAysKeqg5a9t-K-30C_Ike2Zs_U4Ft-CsM-Gdz3G00]--></g></svg>