<svg xmlns="http://www.w3.org/2000/svg" xmlns:xlink="http://www.w3.org/1999/xlink" contentStyleType="text/css" height="1134px" preserveAspectRatio="none" style="width:801px;height:1134px;background:#FFFFFF;" version="1.1" viewBox="0 0 801 1134" width="801px" zoomAndPan="magnify"><defs/><g><rect fill="#F1F1F1" height="40" rx="12.5" ry="12.5" style="stroke:#181818;stroke-width:0.5;" width="95.1279" x="350" y="7"/><text fill="#000000" font-family="sans-serif" font-size="14" lengthAdjust="spacing" textLength="85.1279" x="355" y="31.8467">Menu_Retos</text><rect fill="#F1F1F1" height="40" rx="12.5" ry="12.5" style="stroke:#181818;stroke-width:0.5;" width="108.7383" x="343" y="1088"/><text fill="#000000" font-family="sans-serif" font-size="14" lengthAdjust="spacing" textLength="98.7383" x="348" y="1112.8467">CreandoRetos</text><path d="M19.5,107 L775.5,107 A12.5,12.5 0 0 1 788,119.5 L788,133.2969 L7,133.2969 L7,119.5 A12.5,12.5 0 0 1 19.5,107 " fill="#F1F1F1" style="stroke:#F1F1F1;stroke-width:1;"/><rect fill="none" height="921.2969" rx="12.5" ry="12.5" style="stroke:#181818;stroke-width:0.5;" width="781" x="7" y="107"/><line style="stroke:#181818;stroke-width:0.5;" x1="7" x2="788" y1="133.2969" y2="133.2969"/><text fill="#000000" font-family="sans-serif" font-size="14" lengthAdjust="spacing" textLength="78.1689" x="358.4155" y="124.9951">CrearRetos</text><rect fill="#F1F1F1" height="40" rx="12.5" ry="12.5" style="stroke:#181818;stroke-width:0.5;" width="92.6191" x="197.5" y="235.2969"/><text fill="#000000" font-family="sans-serif" font-size="14" lengthAdjust="spacing" textLength="82.6191" x="202.5" y="260.1436">Crear Retos</text><g id="elem_reto"><polygon fill="#F1F1F1" points="244,457.2969,256,469.2969,244,481.2969,232,469.2969,244,457.2969" style="stroke:#181818;stroke-width:0.5;"/></g><ellipse cx="244" cy="154.2969" fill="#222222" rx="10" ry="10" style="stroke:#222222;stroke-width:1;"/><rect fill="#F1F1F1" height="40" rx="12.5" ry="12.5" style="stroke:#181818;stroke-width:0.5;" width="98.3271" x="195" y="346.2969"/><text fill="#000000" font-family="sans-serif" font-size="14" lengthAdjust="spacing" textLength="88.3271" x="200" y="371.1436">NombreReto</text><rect fill="#F1F1F1" height="40" rx="12.5" ry="12.5" style="stroke:#181818;stroke-width:0.5;" width="119.8125" x="19" y="552.2969"/><text fill="#000000" font-family="sans-serif" font-size="14" lengthAdjust="spacing" textLength="109.8125" x="24" y="577.1436">RetoObligatorio</text><rect fill="#F1F1F1" height="40" rx="12.5" ry="12.5" style="stroke:#181818;stroke-width:0.5;" width="103.7959" x="383" y="552.2969"/><text fill="#000000" font-family="sans-serif" font-size="14" lengthAdjust="spacing" textLength="93.7959" x="388" y="577.1436">RetoOpcional</text><rect fill="#F1F1F1" height="40" rx="12.5" ry="12.5" style="stroke:#181818;stroke-width:0.5;" width="124.3379" x="196" y="663.2969"/><text fill="#000000" font-family="sans-serif" font-size="14" lengthAdjust="spacing" textLength="114.3379" x="201" y="688.1436">DescripcionReto</text><rect fill="#F1F1F1" height="40" rx="12.5" ry="12.5" style="stroke:#181818;stroke-width:0.5;" width="108.3008" x="204" y="774.2969"/><text fill="#000000" font-family="sans-serif" font-size="14" lengthAdjust="spacing" textLength="98.3008" x="209" y="799.1436">AsignarClases</text><rect fill="#F1F1F1" height="40" rx="12.5" ry="12.5" style="stroke:#181818;stroke-width:0.5;" width="80.875" x="217.5" y="885.2969"/><text fill="#000000" font-family="sans-serif" font-size="14" lengthAdjust="spacing" textLength="70.875" x="222.5" y="910.1436">CrearReto</text><ellipse cx="258" cy="1007.2969" fill="none" rx="11" ry="11" style="stroke:#222222;stroke-width:1;"/><ellipse cx="258" cy="1007.2969" fill="#222222" rx="6" ry="6" style="stroke:#222222;stroke-width:1;"/><!--link *start*CrearRetos to IniciarRetos--><g id="link_*start*CrearRetos_IniciarRetos"><path d="M244,164.4369 C244,180.4169 244,207.7869 244,229.0669 " fill="none" id="*start*CrearRetos-to-IniciarRetos" style="stroke:#181818;stroke-width:1;"/><polygon fill="#181818" points="244,235.0669,248,226.0669,244,230.0669,240,226.0669,244,235.0669" style="stroke:#181818;stroke-width:1;"/><path d="M249,187.2969 L249,212.2969 L488,212.2969 L488,197.2969 L478,187.2969 L249,187.2969 " fill="#FEFFDD" style="stroke:#181818;stroke-width:0.5;"/><path d="M478,187.2969 L478,197.2969 L488,197.2969 L478,187.2969 " fill="#FEFFDD" style="stroke:#181818;stroke-width:0.5;"/><text fill="#000000" font-family="sans-serif" font-size="13" lengthAdjust="spacing" textLength="218.7593" x="255" y="204.3638">El profesor introduce: Crear Reto.</text></g><!--link IniciarRetos to NombreReto--><g id="link_IniciarRetos_NombreReto"><path d="M244,275.5369 C244,295.4569 244,320.3969 244,340.2569 " fill="none" id="IniciarRetos-to-NombreReto" style="stroke:#181818;stroke-width:1;"/><polygon fill="#181818" points="244,346.2569,248,337.2569,244,341.2569,240,337.2569,244,346.2569" style="stroke:#181818;stroke-width:1;"/><path d="M249,298.2969 L249,323.2969 L523,323.2969 L523,308.2969 L513,298.2969 L249,298.2969 " fill="#FEFFDD" style="stroke:#181818;stroke-width:0.5;"/><path d="M513,298.2969 L513,308.2969 L523,308.2969 L513,298.2969 " fill="#FEFFDD" style="stroke:#181818;stroke-width:0.5;"/><text fill="#000000" font-family="sans-serif" font-size="13" lengthAdjust="spacing" textLength="253.7856" x="255" y="315.3638">El profesor introduce: nombre del reto.</text></g><!--link NombreReto to reto--><g id="link_NombreReto_reto"><path d="M244,386.7669 C244,407.6369 244,434.0369 244,451.0269 " fill="none" id="NombreReto-to-reto" style="stroke:#181818;stroke-width:1;"/><polygon fill="#181818" points="244,457.0269,248,448.0269,244,452.0269,240,448.0269,244,457.0269" style="stroke:#181818;stroke-width:1;"/><path d="M249,409.2969 L249,434.2969 L494,434.2969 L494,419.2969 L484,409.2969 L249,409.2969 " fill="#FEFFDD" style="stroke:#181818;stroke-width:0.5;"/><path d="M484,409.2969 L484,419.2969 L494,419.2969 L484,409.2969 " fill="#FEFFDD" style="stroke:#181818;stroke-width:0.5;"/><text fill="#000000" font-family="sans-serif" font-size="13" lengthAdjust="spacing" textLength="224.6372" x="255" y="426.3638">El profesor introduce: tipo de reto.</text></g><!--link reto to RetoObligatorio--><g id="link_reto_RetoObligatorio"><path d="M232.83,470.1669 C195.3,469.9969 74.82,471.6269 51,499.2969 C37.96,514.4369 45.9439,531.5818 57.9339,547.2518 " fill="none" id="reto-to-RetoObligatorio" style="stroke:#181818;stroke-width:1;"/><polygon fill="#181818" points="61.58,552.0169,59.2877,542.4385,58.5416,548.0459,52.9342,547.2999,61.58,552.0169" style="stroke:#181818;stroke-width:1;"/><path d="M56,504.2969 L56,529.2969 L412,529.2969 L412,514.2969 L402,504.2969 L56,504.2969 " fill="#FEFFDD" style="stroke:#181818;stroke-width:0.5;"/><path d="M402,504.2969 L402,514.2969 L412,514.2969 L402,504.2969 " fill="#FEFFDD" style="stroke:#181818;stroke-width:0.5;"/><text fill="#000000" font-family="sans-serif" font-size="13" lengthAdjust="spacing" textLength="335.7783" x="62" y="521.3638">El profesor introduce: selección de RetoObligatorio.</text></g><!--link reto to RetoOpcional--><g id="link_reto_RetoOpcional"><path d="M254.99,470.6169 C289.23,471.8269 393.18,477.2869 417,499.2969 C431.48,512.6769 434.8793,529.7802 435.4293,546.2102 " fill="none" id="reto-to-RetoOpcional" style="stroke:#181818;stroke-width:1;"/><polygon fill="#181818" points="435.63,552.2069,439.3267,543.0781,435.4627,547.2097,431.3311,543.3457,435.63,552.2069" style="stroke:#181818;stroke-width:1;"/><path d="M438,504.2969 L438,529.2969 L779,529.2969 L779,514.2969 L769,504.2969 L438,504.2969 " fill="#FEFFDD" style="stroke:#181818;stroke-width:0.5;"/><path d="M769,504.2969 L769,514.2969 L779,514.2969 L769,504.2969 " fill="#FEFFDD" style="stroke:#181818;stroke-width:0.5;"/><text fill="#000000" font-family="sans-serif" font-size="13" lengthAdjust="spacing" textLength="320.9058" x="444" y="521.3638">El profesor introduce: selección de RetoOpcional.</text></g><!--link RetoObligatorio to DescripcionReto--><g id="link_RetoObligatorio_DescripcionReto"><path d="M77.38,592.4169 C77.1,608.6369 79.51,631.4169 93,645.2969 C107.32,660.0369 149.3894,668.8747 189.9494,674.6247 " fill="none" id="RetoObligatorio-to-DescripcionReto" style="stroke:#181818;stroke-width:1;"/><polygon fill="#181818" points="195.89,675.4669,187.5405,670.2432,190.9395,674.7651,186.4177,678.164,195.89,675.4669" style="stroke:#181818;stroke-width:1;"/><path d="M98,615.2969 L98,640.2969 L396,640.2969 L396,625.2969 L386,615.2969 L98,615.2969 " fill="#FEFFDD" style="stroke:#181818;stroke-width:0.5;"/><path d="M386,615.2969 L386,625.2969 L396,625.2969 L386,615.2969 " fill="#FEFFDD" style="stroke:#181818;stroke-width:0.5;"/><text fill="#000000" font-family="sans-serif" font-size="13" lengthAdjust="spacing" textLength="277.6655" x="104" y="632.3638">El profesor introduce: descripción del reto.</text></g><!--link RetoOpcional to DescripcionReto--><g id="link_RetoOpcional_DescripcionReto"><path d="M431.96,592.3169 C428.35,608.6969 420.69,631.7669 405,645.2969 C381.68,665.3969 354.9023,673.9582 326.2523,678.2982 " fill="none" id="RetoOpcional-to-DescripcionReto" style="stroke:#181818;stroke-width:1;"/><polygon fill="#181818" points="320.32,679.1969,329.8176,681.8038,325.2636,678.448,328.6194,673.894,320.32,679.1969" style="stroke:#181818;stroke-width:1;"/><path d="M431,615.2969 L431,640.2969 L729,640.2969 L729,625.2969 L719,615.2969 L431,615.2969 " fill="#FEFFDD" style="stroke:#181818;stroke-width:0.5;"/><path d="M719,615.2969 L719,625.2969 L729,625.2969 L719,615.2969 " fill="#FEFFDD" style="stroke:#181818;stroke-width:0.5;"/><text fill="#000000" font-family="sans-serif" font-size="13" lengthAdjust="spacing" textLength="277.6655" x="437" y="632.3638">El profesor introduce: descripción del reto.</text></g><!--link DescripcionReto to AsignarClases--><g id="link_DescripcionReto_AsignarClases"><path d="M258,703.5369 C258,723.4569 258,748.3969 258,768.2569 " fill="none" id="DescripcionReto-to-AsignarClases" style="stroke:#181818;stroke-width:1;"/><polygon fill="#181818" points="258,774.2569,262,765.2569,258,769.2569,254,765.2569,258,774.2569" style="stroke:#181818;stroke-width:1;"/><path d="M263,726.2969 L263,751.2969 L589,751.2969 L589,736.2969 L579,726.2969 L263,726.2969 " fill="#FEFFDD" style="stroke:#181818;stroke-width:0.5;"/><path d="M579,726.2969 L579,736.2969 L589,736.2969 L579,726.2969 " fill="#FEFFDD" style="stroke:#181818;stroke-width:0.5;"/><text fill="#000000" font-family="sans-serif" font-size="13" lengthAdjust="spacing" textLength="305.2524" x="269" y="743.3638">El profesor introduce: clases asignadas al reto.</text></g><!--link AsignarClases to CrearReto--><g id="link_AsignarClases_CrearReto"><path d="M258,814.5369 C258,834.4569 258,859.3969 258,879.2569 " fill="none" id="AsignarClases-to-CrearReto" style="stroke:#181818;stroke-width:1;"/><polygon fill="#181818" points="258,885.2569,262,876.2569,258,880.2569,254,876.2569,258,885.2569" style="stroke:#181818;stroke-width:1;"/><path d="M263,837.2969 L263,862.2969 L537,862.2969 L537,847.2969 L527,837.2969 L263,837.2969 " fill="#FEFFDD" style="stroke:#181818;stroke-width:0.5;"/><path d="M527,837.2969 L527,847.2969 L537,847.2969 L527,837.2969 " fill="#FEFFDD" style="stroke:#181818;stroke-width:0.5;"/><text fill="#000000" font-family="sans-serif" font-size="13" lengthAdjust="spacing" textLength="253.062" x="269" y="854.3638">El sistema muestra: opción de "Crear".</text></g><!--link CrearReto to *end*CrearRetos--><g id="link_CrearReto_*end*CrearRetos"><path d="M258,925.5769 C258,946.6869 258,973.7369 258,990.2269 " fill="none" id="CrearReto-to-*end*CrearRetos" style="stroke:#181818;stroke-width:1;"/><polygon fill="#181818" points="258,996.2269,262,987.2269,258,991.2269,254,987.2269,258,996.2269" style="stroke:#181818;stroke-width:1;"/><path d="M263,948.2969 L263,973.2969 L605,973.2969 L605,958.2969 L595,948.2969 L263,948.2969 " fill="#FEFFDD" style="stroke:#181818;stroke-width:0.5;"/><path d="M595,948.2969 L595,958.2969 L605,958.2969 L595,948.2969 " fill="#FEFFDD" style="stroke:#181818;stroke-width:0.5;"/><text fill="#000000" font-family="sans-serif" font-size="13" lengthAdjust="spacing" textLength="321.8579" x="269" y="965.3638">El sistema muestra: confirmación de reto creado.</text></g><!--link Menu_Retos to CrearRetos--><g id="link_Menu_Retos_CrearRetos"><path d="M397.5,47.17 C397.5,60.98 397.5,75.6 397.5,100.76 " fill="none" id="Menu_Retos-to-CrearRetos" style="stroke:#181818;stroke-width:1;"/><polygon fill="#181818" points="397.5,106.76,401.5,97.76,397.5,101.76,393.5,97.76,397.5,106.76" style="stroke:#181818;stroke-width:1;"/></g><!--link CrearRetos to CreandoRetos--><g id="link_CrearRetos_CreandoRetos"><path d="M397.5,1028.12 C397.5,1053.38 397.5,1068.06 397.5,1081.9 " fill="none" id="CrearRetos-to-CreandoRetos" style="stroke:#181818;stroke-width:1;"/><polygon fill="#181818" points="397.5,1087.9,401.5,1078.9,397.5,1082.9,393.5,1078.9,397.5,1087.9" style="stroke:#181818;stroke-width:1;"/></g><!--SRC=[lPJDIWCn483lUOgXHw4-G2a5gHuygE1LHD9asWvcaoL93o8-bO_WYvdC_dNNhR15p2tpzyqaCxCdZO156Tz0Or2UoaZE2X6YZ0XtQ0ylZnXTg0LhZz9gLucEP9uby2u4f5F9RoqfQZGom8mDWUypjdkwU8RvVDMpP8LroTzPC6HVMP3FZO7Ikoq6vu5iz4uV52wWYth9fcWr-rUfz9B8h7jNR3pc-sIIPTVqJWRyJrnNU5R2SgdsZXIkLgpfi9o5FuSVgNI9VWhkc-2Pyh0nj9FHUPhE2MXGAVhwj9asY3Rso7rogL87IVCNs3hK67EG5kElgmxEJcTzi6xygnn6lxc3rydzBta0OlXLe9sLVcramEdpezWj3MWEejESojFq7edPxV3_oWqK8XOIYWE6wEK2N5jglHPcOxWsEAFIjfW6KSvkoHUoHN6VgXHK3wlx4ABRTVt2WZXQS8scsO7V]--></g></svg>