<svg xmlns="http://www.w3.org/2000/svg" xmlns:xlink="http://www.w3.org/1999/xlink" contentStyleType="text/css" height="706px" preserveAspectRatio="none" style="width:648px;height:706px;background:#FFFFFF;" version="1.1" viewBox="0 0 648 706" width="648px" zoomAndPan="magnify"><defs/><g><rect fill="#F1F1F1" height="40" rx="12.5" ry="12.5" style="stroke:#181818;stroke-width:0.5;" width="149.9316" x="246" y="7"/><text fill="#000000" font-family="sans-serif" font-size="14" lengthAdjust="spacing" textLength="139.9316" x="251" y="31.8467">Mostrando_Ejercicio</text><rect fill="#F1F1F1" height="40" rx="12.5" ry="12.5" style="stroke:#181818;stroke-width:0.5;" width="130.8594" x="255.5" y="660"/><text fill="#000000" font-family="sans-serif" font-size="14" lengthAdjust="spacing" textLength="120.8594" x="260.5" y="684.8467">EditandoEjercicio</text><path d="M19.5,107 L622.5,107 A12.5,12.5 0 0 1 635,119.5 L635,133.2969 L7,133.2969 L7,119.5 A12.5,12.5 0 0 1 19.5,107 " fill="#F1F1F1" style="stroke:#F1F1F1;stroke-width:1;"/><rect fill="none" height="493.2969" rx="12.5" ry="12.5" style="stroke:#181818;stroke-width:0.5;" width="628" x="7" y="107"/><line style="stroke:#181818;stroke-width:0.5;" x1="7" x2="635" y1="133.2969" y2="133.2969"/><text fill="#000000" font-family="sans-serif" font-size="14" lengthAdjust="spacing" textLength="100.29" x="270.855" y="124.9951">EditarEjercicio</text><ellipse cx="98" cy="154.2969" fill="#222222" rx="10" ry="10" style="stroke:#222222;stroke-width:1;"/><rect fill="#F1F1F1" height="40" rx="12.5" ry="12.5" style="stroke:#181818;stroke-width:0.5;" width="157.998" x="19" y="235.2969"/><text fill="#000000" font-family="sans-serif" font-size="14" lengthAdjust="spacing" textLength="147.998" x="24" y="260.1436">SolicitarDatosEdicion</text><rect fill="#F1F1F1" height="40" rx="12.5" ry="12.5" style="stroke:#181818;stroke-width:0.5;" width="114.9795" x="40.5" y="346.2969"/><text fill="#000000" font-family="sans-serif" font-size="14" lengthAdjust="spacing" textLength="104.9795" x="45.5" y="371.1436">ModificarDatos</text><rect fill="#F1F1F1" height="40" rx="12.5" ry="12.5" style="stroke:#181818;stroke-width:0.5;" width="130.4082" x="33" y="457.2969"/><text fill="#000000" font-family="sans-serif" font-size="14" lengthAdjust="spacing" textLength="120.4082" x="38" y="482.1436">ConfirmarEdicion</text><ellipse cx="98" cy="579.2969" fill="none" rx="11" ry="11" style="stroke:#222222;stroke-width:1;"/><ellipse cx="98" cy="579.2969" fill="#222222" rx="6" ry="6" style="stroke:#222222;stroke-width:1;"/><!--link *start*EditarEjercicio to SolicitarDatosEdicion--><g id="link_*start*EditarEjercicio_SolicitarDatosEdicion"><path d="M98,164.4369 C98,180.4169 98,207.7869 98,229.0669 " fill="none" id="*start*EditarEjercicio-to-SolicitarDatosEdicion" style="stroke:#181818;stroke-width:1;"/><polygon fill="#181818" points="98,235.0669,102,226.0669,98,230.0669,94,226.0669,98,235.0669" style="stroke:#181818;stroke-width:1;"/><path d="M103,187.2969 L103,212.2969 L453,212.2969 L453,197.2969 L443,187.2969 L103,187.2969 " fill="#FEFFDD" style="stroke:#181818;stroke-width:0.5;"/><path d="M443,187.2969 L443,197.2969 L453,197.2969 L443,187.2969 " fill="#FEFFDD" style="stroke:#181818;stroke-width:0.5;"/><text fill="#000000" font-family="sans-serif" font-size="13" lengthAdjust="spacing" textLength="329.5259" x="109" y="204.3638">El sistema muestra: solicitud de los datos a editar.</text></g><!--link SolicitarDatosEdicion to ModificarDatos--><g id="link_SolicitarDatosEdicion_ModificarDatos"><path d="M98,275.5369 C98,295.4569 98,320.3969 98,340.2569 " fill="none" id="SolicitarDatosEdicion-to-ModificarDatos" style="stroke:#181818;stroke-width:1;"/><polygon fill="#181818" points="98,346.2569,102,337.2569,98,341.2569,94,337.2569,98,346.2569" style="stroke:#181818;stroke-width:1;"/><path d="M103,298.2969 L103,323.2969 L626,323.2969 L626,308.2969 L616,298.2969 L103,298.2969 " fill="#FEFFDD" style="stroke:#181818;stroke-width:0.5;"/><path d="M616,298.2969 L616,308.2969 L626,308.2969 L616,298.2969 " fill="#FEFFDD" style="stroke:#181818;stroke-width:0.5;"/><text fill="#000000" font-family="sans-serif" font-size="13" lengthAdjust="spacing" textLength="502.8105" x="109" y="315.3638">El profesor introduce: modificaciones al nombre, video, descripción o ambos.</text></g><!--link ModificarDatos to ConfirmarEdicion--><g id="link_ModificarDatos_ConfirmarEdicion"><path d="M98,386.5369 C98,406.4569 98,431.3969 98,451.2569 " fill="none" id="ModificarDatos-to-ConfirmarEdicion" style="stroke:#181818;stroke-width:1;"/><polygon fill="#181818" points="98,457.2569,102,448.2569,98,452.2569,94,448.2569,98,457.2569" style="stroke:#181818;stroke-width:1;"/><path d="M103,409.2969 L103,434.2969 L569,434.2969 L569,419.2969 L559,409.2969 L103,409.2969 " fill="#FEFFDD" style="stroke:#181818;stroke-width:0.5;"/><path d="M559,409.2969 L559,419.2969 L569,419.2969 L559,409.2969 " fill="#FEFFDD" style="stroke:#181818;stroke-width:0.5;"/><text fill="#000000" font-family="sans-serif" font-size="13" lengthAdjust="spacing" textLength="445.7642" x="109" y="426.3638">El profesor introduce: confirmación presionando "Guardar cambios".</text></g><!--link ConfirmarEdicion to *end*EditarEjercicio--><g id="link_ConfirmarEdicion_*end*EditarEjercicio"><path d="M98,497.5769 C98,518.6869 98,545.7369 98,562.2269 " fill="none" id="ConfirmarEdicion-to-*end*EditarEjercicio" style="stroke:#181818;stroke-width:1;"/><polygon fill="#181818" points="98,568.2269,102,559.2269,98,563.2269,94,559.2269,98,568.2269" style="stroke:#181818;stroke-width:1;"/><path d="M103,520.2969 L103,545.2969 L532,545.2969 L532,530.2969 L522,520.2969 L103,520.2969 " fill="#FEFFDD" style="stroke:#181818;stroke-width:0.5;"/><path d="M522,520.2969 L522,530.2969 L532,530.2969 L522,520.2969 " fill="#FEFFDD" style="stroke:#181818;stroke-width:0.5;"/><text fill="#000000" font-family="sans-serif" font-size="13" lengthAdjust="spacing" textLength="408.9224" x="109" y="537.3638">El sistema muestra: mensaje de cambios guardados con éxito.</text></g><!--link Mostrando_Ejercicio to EditarEjercicio--><g id="link_Mostrando_Ejercicio_EditarEjercicio"><path d="M321,47.33 C321,61.45 321,76.33 321,100.67 " fill="none" id="Mostrando_Ejercicio-to-EditarEjercicio" style="stroke:#181818;stroke-width:1;"/><polygon fill="#181818" points="321,106.67,325,97.67,321,101.67,317,97.67,321,106.67" style="stroke:#181818;stroke-width:1;"/></g><!--link EditarEjercicio to EditandoEjercicio--><g id="link_EditarEjercicio_EditandoEjercicio"><path d="M321,600.03 C321,624.54 321,639.58 321,653.76 " fill="none" id="EditarEjercicio-to-EditandoEjercicio" style="stroke:#181818;stroke-width:1;"/><polygon fill="#181818" points="321,659.76,325,650.76,321,654.76,317,650.76,321,659.76" style="stroke:#181818;stroke-width:1;"/></g><!--SRC=[ZP91JWCn34NtESLNbwZb05smWOfLLomHGcdYWiia7YKP148SY3L7wCLmfaDfHqMGLMBd-p_PVcHFeD2MLtZABd5RMA8nkTX2M4ekoKOlzuiD9SUEPSWiF9UQ-8aV9j8-Z3S3t9xTOJQxm8qq6jFqbIsIzQUhNa0K5Kf4m_59d_Ki6cJEXO95wAXIp95tyiuhAXh9yBKCBAZtF5SfHTzNCte_wTPpBCNpcjsG-HMWJRAcB0aSInBVEPeZ3D9QYzIxKMrO9PhYMJifq-ykEjv-HWXiM4aUantxzqYN4jUSWdRkZwwSWdA3U6VQ9ifQeKu7a-lE9cyJd8AmvCaOPUpRm-Yy_Z-LG37R3TMP32Puw4sztfGCsuyNBd9a_6xCYTNglKVxOyRxjFzpk7nV]--></g></svg>