<svg xmlns="http://www.w3.org/2000/svg" xmlns:xlink="http://www.w3.org/1999/xlink" contentStyleType="text/css" height="817px" preserveAspectRatio="none" style="width:709px;height:817px;background:#FFFFFF;" version="1.1" viewBox="0 0 709 817" width="709px" zoomAndPan="magnify"><defs/><g><rect fill="#F1F1F1" height="40" rx="12.5" ry="12.5" style="stroke:#181818;stroke-width:0.5;" width="149.9316" x="276.5" y="7"/><text fill="#000000" font-family="sans-serif" font-size="14" lengthAdjust="spacing" textLength="139.9316" x="281.5" y="31.8467">Mostrando_Ejercicio</text><rect fill="#F1F1F1" height="40" rx="12.5" ry="12.5" style="stroke:#181818;stroke-width:0.5;" width="130.8594" x="286" y="771"/><text fill="#000000" font-family="sans-serif" font-size="14" lengthAdjust="spacing" textLength="120.8594" x="291" y="795.8467">EditandoEjercicio</text><path d="M19.5,107 L683.5,107 A12.5,12.5 0 0 1 696,119.5 L696,133.2969 L7,133.2969 L7,119.5 A12.5,12.5 0 0 1 19.5,107 " fill="#F1F1F1" style="stroke:#F1F1F1;stroke-width:1;"/><rect fill="none" height="604.2969" rx="12.5" ry="12.5" style="stroke:#181818;stroke-width:0.5;" width="689" x="7" y="107"/><line style="stroke:#181818;stroke-width:0.5;" x1="7" x2="696" y1="133.2969" y2="133.2969"/><text fill="#000000" font-family="sans-serif" font-size="14" lengthAdjust="spacing" textLength="100.29" x="301.355" y="124.9951">EditarEjercicio</text><ellipse cx="90" cy="154.2969" fill="#222222" rx="10" ry="10" style="stroke:#222222;stroke-width:1;"/><rect fill="#F1F1F1" height="40" rx="12.5" ry="12.5" style="stroke:#181818;stroke-width:0.5;" width="141.708" x="19" y="235.2969"/><text fill="#000000" font-family="sans-serif" font-size="14" lengthAdjust="spacing" textLength="131.708" x="24" y="260.1436">SeleccionarEdicion</text><rect fill="#F1F1F1" height="40" rx="12.5" ry="12.5" style="stroke:#181818;stroke-width:0.5;" width="117.29" x="31.5" y="346.2969"/><text fill="#000000" font-family="sans-serif" font-size="14" lengthAdjust="spacing" textLength="107.29" x="36.5" y="371.1436">SolicitarEdicion</text><rect fill="#F1F1F1" height="40" rx="12.5" ry="12.5" style="stroke:#181818;stroke-width:0.5;" width="92.1543" x="44" y="457.2969"/><text fill="#000000" font-family="sans-serif" font-size="14" lengthAdjust="spacing" textLength="82.1543" x="49" y="482.1436">EditarDatos</text><rect fill="#F1F1F1" height="40" rx="12.5" ry="12.5" style="stroke:#181818;stroke-width:0.5;" width="130.4082" x="25" y="568.2969"/><text fill="#000000" font-family="sans-serif" font-size="14" lengthAdjust="spacing" textLength="120.4082" x="30" y="593.1436">ConfirmarEdicion</text><ellipse cx="90" cy="690.2969" fill="none" rx="11" ry="11" style="stroke:#222222;stroke-width:1;"/><ellipse cx="90" cy="690.2969" fill="#222222" rx="6" ry="6" style="stroke:#222222;stroke-width:1;"/><!--link *start*EditarEjercicio to SeleccionarEdicion--><g id="link_*start*EditarEjercicio_SeleccionarEdicion"><path d="M90,164.4369 C90,180.4169 90,207.7869 90,229.0669 " fill="none" id="*start*EditarEjercicio-to-SeleccionarEdicion" style="stroke:#181818;stroke-width:1;"/><polygon fill="#181818" points="90,235.0669,94,226.0669,90,230.0669,86,226.0669,90,235.0669" style="stroke:#181818;stroke-width:1;"/><path d="M95,187.2969 L95,212.2969 L373,212.2969 L373,197.2969 L363,187.2969 L95,187.2969 " fill="#FEFFDD" style="stroke:#181818;stroke-width:0.5;"/><path d="M363,187.2969 L363,197.2969 L373,197.2969 L363,187.2969 " fill="#FEFFDD" style="stroke:#181818;stroke-width:0.5;"/><text fill="#000000" font-family="sans-serif" font-size="13" lengthAdjust="spacing" textLength="257.8164" x="101" y="204.3638">El profesor introduce: "Editar ejercicio".</text></g><!--link SeleccionarEdicion to SolicitarEdicion--><g id="link_SeleccionarEdicion_SolicitarEdicion"><path d="M90,275.5369 C90,295.4569 90,320.3969 90,340.2569 " fill="none" id="SeleccionarEdicion-to-SolicitarEdicion" style="stroke:#181818;stroke-width:1;"/><polygon fill="#181818" points="90,346.2569,94,337.2569,90,341.2569,86,337.2569,90,346.2569" style="stroke:#181818;stroke-width:1;"/><path d="M95,298.2969 L95,323.2969 L570,323.2969 L570,308.2969 L560,298.2969 L95,298.2969 " fill="#FEFFDD" style="stroke:#181818;stroke-width:0.5;"/><path d="M560,298.2969 L560,308.2969 L570,308.2969 L560,298.2969 " fill="#FEFFDD" style="stroke:#181818;stroke-width:0.5;"/><text fill="#000000" font-family="sans-serif" font-size="13" lengthAdjust="spacing" textLength="454.8477" x="101" y="315.3638">El sistema muestra: El formmulario para editar los datos del ejercicio.</text></g><!--link SolicitarEdicion to EditarDatos--><g id="link_SolicitarEdicion_EditarDatos"><path d="M90,386.5369 C90,406.4569 90,431.3969 90,451.2569 " fill="none" id="SolicitarEdicion-to-EditarDatos" style="stroke:#181818;stroke-width:1;"/><polygon fill="#181818" points="90,457.2569,94,448.2569,90,452.2569,86,448.2569,90,457.2569" style="stroke:#181818;stroke-width:1;"/><path d="M95,409.2969 L95,434.2969 L596,434.2969 L596,419.2969 L586,409.2969 L95,409.2969 " fill="#FEFFDD" style="stroke:#181818;stroke-width:0.5;"/><path d="M586,409.2969 L586,419.2969 L596,419.2969 L586,409.2969 " fill="#FEFFDD" style="stroke:#181818;stroke-width:0.5;"/><text fill="#000000" font-family="sans-serif" font-size="13" lengthAdjust="spacing" textLength="480.0732" x="101" y="426.3638">El profesor introduce: cambios en el nombre, video, descripción o ambos.</text></g><!--link EditarDatos to ConfirmarEdicion--><g id="link_EditarDatos_ConfirmarEdicion"><path d="M90,497.5369 C90,517.4569 90,542.3969 90,562.2569 " fill="none" id="EditarDatos-to-ConfirmarEdicion" style="stroke:#181818;stroke-width:1;"/><polygon fill="#181818" points="90,568.2569,94,559.2569,90,563.2569,86,559.2569,90,568.2569" style="stroke:#181818;stroke-width:1;"/><path d="M95,520.2969 L95,545.2969 L488,545.2969 L488,530.2969 L478,520.2969 L95,520.2969 " fill="#FEFFDD" style="stroke:#181818;stroke-width:0.5;"/><path d="M478,520.2969 L478,530.2969 L488,530.2969 L478,520.2969 " fill="#FEFFDD" style="stroke:#181818;stroke-width:0.5;"/><text fill="#000000" font-family="sans-serif" font-size="13" lengthAdjust="spacing" textLength="372.563" x="101" y="537.3638">El profesor introduce: confirmación presionando "Editar".</text></g><!--link ConfirmarEdicion to *end*EditarEjercicio--><g id="link_ConfirmarEdicion_*end*EditarEjercicio"><path d="M90,608.5769 C90,629.6869 90,656.7369 90,673.2269 " fill="none" id="ConfirmarEdicion-to-*end*EditarEjercicio" style="stroke:#181818;stroke-width:1;"/><polygon fill="#181818" points="90,679.2269,94,670.2269,90,674.2269,86,670.2269,90,679.2269" style="stroke:#181818;stroke-width:1;"/><path d="M95,631.2969 L95,656.2969 L687,656.2969 L687,641.2969 L677,631.2969 L95,631.2969 " fill="#FEFFDD" style="stroke:#181818;stroke-width:0.5;"/><path d="M677,631.2969 L677,641.2969 L687,641.2969 L677,631.2969 " fill="#FEFFDD" style="stroke:#181818;stroke-width:0.5;"/><text fill="#000000" font-family="sans-serif" font-size="13" lengthAdjust="spacing" textLength="571.873" x="101" y="648.3638">El sistema muestra: confirmación de que los cambios fueron guardados correctamente.</text></g><!--link Mostrando_Ejercicio to EditarEjercicio--><g id="link_Mostrando_Ejercicio_EditarEjercicio"><path d="M351.5,47.1 C351.5,61.1 351.5,75.92 351.5,100.62 " fill="none" id="Mostrando_Ejercicio-to-EditarEjercicio" style="stroke:#181818;stroke-width:1;"/><polygon fill="#181818" points="351.5,106.62,355.5,97.62,351.5,101.62,347.5,97.62,351.5,106.62" style="stroke:#181818;stroke-width:1;"/></g><!--link EditarEjercicio to EditandoEjercicio--><g id="link_EditarEjercicio_EditandoEjercicio"><path d="M351.5,711.26 C351.5,735.95 351.5,750.76 351.5,764.78 " fill="none" id="EditarEjercicio-to-EditandoEjercicio" style="stroke:#181818;stroke-width:1;"/><polygon fill="#181818" points="351.5,770.78,355.5,761.78,351.5,765.78,347.5,761.78,351.5,770.78" style="stroke:#181818;stroke-width:1;"/></g><!--SRC=[ZPFDJiCm3CVlVGfhHxJn03jmWHqvxOWcb2Kk11gxE2aIGZmLZy2BuQJhrfKYgAggjMF__lxeetS86Dhq1WwZ5TycprHLCPc4SCinYI77zvid5EkjvuDdutpAZfDzx92Z6TuhWBkB7QnMLx351gqQIG-ux2Lr0X1h71CqdfwB8L-R1bhX6YCBU4h2hhEuXaMV7t00B2vB298hUVH3xvyWnM-vqTSqPi-GbHjzJ1WCX0vp-Ujigrb2w1eZMb9hn03sEXgEu4pAJsnEghAeewGiQC8kxUXBkSdHlsgPwu4rOU-LY0JA90vxmIMywYHvEKpH-gzF0WOzod6gPWGkGgwPQY_XxyxCgZa4zyHMCEQ-wseCirfCyLDSqQ0xyl-1d3DrWrywBACOMbDtA9hceJFYZCiE5a6RJ41AU2ReewfcrdmqeDEAJtVxU6Ry8tm3]--></g></svg>