<svg xmlns="http://www.w3.org/2000/svg" xmlns:xlink="http://www.w3.org/1999/xlink" contentStyleType="text/css" height="706px" preserveAspectRatio="none" style="width:703px;height:706px;background:#FFFFFF;" version="1.1" viewBox="0 0 703 706" width="703px" zoomAndPan="magnify"><defs/><g><rect fill="#F1F1F1" height="40" rx="12.5" ry="12.5" style="stroke:#181818;stroke-width:0.5;" width="149.9316" x="273.5" y="7"/><text fill="#000000" font-family="sans-serif" font-size="14" lengthAdjust="spacing" textLength="139.9316" x="278.5" y="31.8467">Mostrando_Ejercicio</text><rect fill="#F1F1F1" height="40" rx="12.5" ry="12.5" style="stroke:#181818;stroke-width:0.5;" width="130.8594" x="283" y="660"/><text fill="#000000" font-family="sans-serif" font-size="14" lengthAdjust="spacing" textLength="120.8594" x="288" y="684.8467">EditandoEjercicio</text><path d="M19.5,107 L677.5,107 A12.5,12.5 0 0 1 690,119.5 L690,133.2969 L7,133.2969 L7,119.5 A12.5,12.5 0 0 1 19.5,107 " fill="#F1F1F1" style="stroke:#F1F1F1;stroke-width:1;"/><rect fill="none" height="493.2969" rx="12.5" ry="12.5" style="stroke:#181818;stroke-width:0.5;" width="683" x="7" y="107"/><line style="stroke:#181818;stroke-width:0.5;" x1="7" x2="690" y1="133.2969" y2="133.2969"/><text fill="#000000" font-family="sans-serif" font-size="14" lengthAdjust="spacing" textLength="100.29" x="298.355" y="124.9951">EditarEjercicio</text><ellipse cx="84" cy="154.2969" fill="#222222" rx="10" ry="10" style="stroke:#222222;stroke-width:1;"/><rect fill="#F1F1F1" height="40" rx="12.5" ry="12.5" style="stroke:#181818;stroke-width:0.5;" width="117.29" x="25.5" y="235.2969"/><text fill="#000000" font-family="sans-serif" font-size="14" lengthAdjust="spacing" textLength="107.29" x="30.5" y="260.1436">SolicitarEdicion</text><rect fill="#F1F1F1" height="40" rx="12.5" ry="12.5" style="stroke:#181818;stroke-width:0.5;" width="92.1543" x="38" y="346.2969"/><text fill="#000000" font-family="sans-serif" font-size="14" lengthAdjust="spacing" textLength="82.1543" x="43" y="371.1436">EditarDatos</text><rect fill="#F1F1F1" height="40" rx="12.5" ry="12.5" style="stroke:#181818;stroke-width:0.5;" width="130.4082" x="19" y="457.2969"/><text fill="#000000" font-family="sans-serif" font-size="14" lengthAdjust="spacing" textLength="120.4082" x="24" y="482.1436">ConfirmarEdicion</text><ellipse cx="84" cy="579.2969" fill="none" rx="11" ry="11" style="stroke:#222222;stroke-width:1;"/><ellipse cx="84" cy="579.2969" fill="#222222" rx="6" ry="6" style="stroke:#222222;stroke-width:1;"/><!--link *start*EditarEjercicio to SolicitarEdicion--><g id="link_*start*EditarEjercicio_SolicitarEdicion"><path d="M84,164.4369 C84,180.4169 84,207.7869 84,229.0669 " fill="none" id="*start*EditarEjercicio-to-SolicitarEdicion" style="stroke:#181818;stroke-width:1;"/><polygon fill="#181818" points="84,235.0669,88,226.0669,84,230.0669,80,226.0669,84,235.0669" style="stroke:#181818;stroke-width:1;"/><path d="M89,187.2969 L89,212.2969 L655,212.2969 L655,197.2969 L645,187.2969 L89,187.2969 " fill="#FEFFDD" style="stroke:#181818;stroke-width:0.5;"/><path d="M645,187.2969 L645,197.2969 L655,197.2969 L645,187.2969 " fill="#FEFFDD" style="stroke:#181818;stroke-width:0.5;"/><text fill="#000000" font-family="sans-serif" font-size="13" lengthAdjust="spacing" textLength="545.2954" x="95" y="204.3638">El sistema muestra: los datos actuales del ejercicio y solicita los cambios a realizar.</text></g><!--link SolicitarEdicion to EditarDatos--><g id="link_SolicitarEdicion_EditarDatos"><path d="M84,275.5369 C84,295.4569 84,320.3969 84,340.2569 " fill="none" id="SolicitarEdicion-to-EditarDatos" style="stroke:#181818;stroke-width:1;"/><polygon fill="#181818" points="84,346.2569,88,337.2569,84,341.2569,80,337.2569,84,346.2569" style="stroke:#181818;stroke-width:1;"/><path d="M89,298.2969 L89,323.2969 L590,323.2969 L590,308.2969 L580,298.2969 L89,298.2969 " fill="#FEFFDD" style="stroke:#181818;stroke-width:0.5;"/><path d="M580,298.2969 L580,308.2969 L590,308.2969 L580,298.2969 " fill="#FEFFDD" style="stroke:#181818;stroke-width:0.5;"/><text fill="#000000" font-family="sans-serif" font-size="13" lengthAdjust="spacing" textLength="480.0732" x="95" y="315.3638">El profesor introduce: cambios en el nombre, video, descripción o ambos.</text></g><!--link EditarDatos to ConfirmarEdicion--><g id="link_EditarDatos_ConfirmarEdicion"><path d="M84,386.5369 C84,406.4569 84,431.3969 84,451.2569 " fill="none" id="EditarDatos-to-ConfirmarEdicion" style="stroke:#181818;stroke-width:1;"/><polygon fill="#181818" points="84,457.2569,88,448.2569,84,452.2569,80,448.2569,84,457.2569" style="stroke:#181818;stroke-width:1;"/><path d="M89,409.2969 L89,434.2969 L555,434.2969 L555,419.2969 L545,409.2969 L89,409.2969 " fill="#FEFFDD" style="stroke:#181818;stroke-width:0.5;"/><path d="M545,409.2969 L545,419.2969 L555,419.2969 L545,409.2969 " fill="#FEFFDD" style="stroke:#181818;stroke-width:0.5;"/><text fill="#000000" font-family="sans-serif" font-size="13" lengthAdjust="spacing" textLength="445.7642" x="95" y="426.3638">El profesor introduce: confirmación presionando "Guardar cambios".</text></g><!--link ConfirmarEdicion to *end*EditarEjercicio--><g id="link_ConfirmarEdicion_*end*EditarEjercicio"><path d="M84,497.5769 C84,518.6869 84,545.7369 84,562.2269 " fill="none" id="ConfirmarEdicion-to-*end*EditarEjercicio" style="stroke:#181818;stroke-width:1;"/><polygon fill="#181818" points="84,568.2269,88,559.2269,84,563.2269,80,559.2269,84,568.2269" style="stroke:#181818;stroke-width:1;"/><path d="M89,520.2969 L89,545.2969 L681,545.2969 L681,530.2969 L671,520.2969 L89,520.2969 " fill="#FEFFDD" style="stroke:#181818;stroke-width:0.5;"/><path d="M671,520.2969 L671,530.2969 L681,530.2969 L671,520.2969 " fill="#FEFFDD" style="stroke:#181818;stroke-width:0.5;"/><text fill="#000000" font-family="sans-serif" font-size="13" lengthAdjust="spacing" textLength="571.873" x="95" y="537.3638">El sistema muestra: confirmación de que los cambios fueron guardados correctamente.</text></g><!--link Mostrando_Ejercicio to EditarEjercicio--><g id="link_Mostrando_Ejercicio_EditarEjercicio"><path d="M348.5,47.33 C348.5,61.45 348.5,76.33 348.5,100.67 " fill="none" id="Mostrando_Ejercicio-to-EditarEjercicio" style="stroke:#181818;stroke-width:1;"/><polygon fill="#181818" points="348.5,106.67,352.5,97.67,348.5,101.67,344.5,97.67,348.5,106.67" style="stroke:#181818;stroke-width:1;"/></g><!--link EditarEjercicio to EditandoEjercicio--><g id="link_EditarEjercicio_EditandoEjercicio"><path d="M348.5,600.03 C348.5,624.54 348.5,639.58 348.5,653.76 " fill="none" id="EditarEjercicio-to-EditandoEjercicio" style="stroke:#181818;stroke-width:1;"/><polygon fill="#181818" points="348.5,659.76,352.5,650.76,348.5,654.76,344.5,650.76,348.5,659.76" style="stroke:#181818;stroke-width:1;"/></g><!--SRC=[ZPB1JiCm38RlVGfhHxJn03jmWOeJ9uu8eIpnm934nKcH1kAfU0HU3AVhkhOQWXwYnh_Z_vFj9t8869gy0uV92ZMPE5PLoYOZt73AOgBZX_ePnP8bxfNQKIx2CJuMP0Z3HmLmTtOFgzK5tBBNM95TqQ9AaVKDH_0KN_HQljf3efGn60Wj5e0rU4xWJDRJsDmQZtf53pZOx23rnRjSQyA6IZO86a_lHiwrEaRN6LRwFsVf0FVmLyNeLxP6U8k91IXcOTTQN0zs646f8eUDu1BUjBUyFFJLqlTN10PDvJId6Hbt89SSjoJXxqwTfEaVxnqRmQGLoh1WSTqQSKOEm8ivnzotWz7n_NzIKtDThjSM9oFPjYXQvh4ZSKLW4RJP18mP9q2VLNLY0qUJEcxVVEs6dF6E_W00]--></g></svg>