<svg xmlns="http://www.w3.org/2000/svg" xmlns:xlink="http://www.w3.org/1999/xlink" contentStyleType="text/css" height="706px" preserveAspectRatio="none" style="width:545px;height:706px;background:#FFFFFF;" version="1.1" viewBox="0 0 545 706" width="545px" zoomAndPan="magnify"><defs/><g><rect fill="#F1F1F1" height="40" rx="12.5" ry="12.5" style="stroke:#181818;stroke-width:0.5;" width="136.5195" x="201" y="7"/><text fill="#000000" font-family="sans-serif" font-size="14" lengthAdjust="spacing" textLength="126.5195" x="206" y="31.8467">Mostrando_Rutina</text><rect fill="#F1F1F1" height="40" rx="12.5" ry="12.5" style="stroke:#181818;stroke-width:0.5;" width="117.4473" x="211" y="660"/><text fill="#000000" font-family="sans-serif" font-size="14" lengthAdjust="spacing" textLength="107.4473" x="216" y="684.8467">EditandoRutina</text><path d="M19.5,107 L519.5,107 A12.5,12.5 0 0 1 532,119.5 L532,133.2969 L7,133.2969 L7,119.5 A12.5,12.5 0 0 1 19.5,107 " fill="#F1F1F1" style="stroke:#F1F1F1;stroke-width:1;"/><rect fill="none" height="493.2969" rx="12.5" ry="12.5" style="stroke:#181818;stroke-width:0.5;" width="525" x="7" y="107"/><line style="stroke:#181818;stroke-width:0.5;" x1="7" x2="532" y1="133.2969" y2="133.2969"/><text fill="#000000" font-family="sans-serif" font-size="14" lengthAdjust="spacing" textLength="86.8779" x="226.061" y="124.9951">EditarRutina</text><ellipse cx="89" cy="154.2969" fill="#222222" rx="10" ry="10" style="stroke:#222222;stroke-width:1;"/><rect fill="#F1F1F1" height="40" rx="12.5" ry="12.5" style="stroke:#181818;stroke-width:0.5;" width="117.29" x="30.5" y="235.2969"/><text fill="#000000" font-family="sans-serif" font-size="14" lengthAdjust="spacing" textLength="107.29" x="35.5" y="260.1436">SolicitarEdicion</text><rect fill="#F1F1F1" height="40" rx="12.5" ry="12.5" style="stroke:#181818;stroke-width:0.5;" width="140.4092" x="19" y="346.2969"/><text fill="#000000" font-family="sans-serif" font-size="14" lengthAdjust="spacing" textLength="130.4092" x="24" y="371.1436">ModificarEjercicios</text><rect fill="#F1F1F1" height="40" rx="12.5" ry="12.5" style="stroke:#181818;stroke-width:0.5;" width="130.4082" x="24" y="457.2969"/><text fill="#000000" font-family="sans-serif" font-size="14" lengthAdjust="spacing" textLength="120.4082" x="29" y="482.1436">ConfirmarEdicion</text><ellipse cx="89" cy="579.2969" fill="none" rx="11" ry="11" style="stroke:#222222;stroke-width:1;"/><ellipse cx="89" cy="579.2969" fill="#222222" rx="6" ry="6" style="stroke:#222222;stroke-width:1;"/><!--link *start*EditarRutina to SolicitarEdicion--><g id="link_*start*EditarRutina_SolicitarEdicion"><path d="M89,164.4369 C89,180.4169 89,207.7869 89,229.0669 " fill="none" id="*start*EditarRutina-to-SolicitarEdicion" style="stroke:#181818;stroke-width:1;"/><polygon fill="#181818" points="89,235.0669,93,226.0669,89,230.0669,85,226.0669,89,235.0669" style="stroke:#181818;stroke-width:1;"/><path d="M94,187.2969 L94,212.2969 L514,212.2969 L514,197.2969 L504,187.2969 L94,187.2969 " fill="#FEFFDD" style="stroke:#181818;stroke-width:0.5;"/><path d="M504,187.2969 L504,197.2969 L514,197.2969 L504,187.2969 " fill="#FEFFDD" style="stroke:#181818;stroke-width:0.5;"/><text fill="#000000" font-family="sans-serif" font-size="13" lengthAdjust="spacing" textLength="399.8198" x="100" y="204.3638">El sistema muestra: nombre y objetivo actuales para edición.</text></g><!--link SolicitarEdicion to ModificarEjercicios--><g id="link_SolicitarEdicion_ModificarEjercicios"><path d="M89,275.5369 C89,295.4569 89,320.3969 89,340.2569 " fill="none" id="SolicitarEdicion-to-ModificarEjercicios" style="stroke:#181818;stroke-width:1;"/><polygon fill="#181818" points="89,346.2569,93,337.2569,89,341.2569,85,337.2569,89,346.2569" style="stroke:#181818;stroke-width:1;"/><path d="M94,298.2969 L94,323.2969 L508,323.2969 L508,308.2969 L498,298.2969 L94,298.2969 " fill="#FEFFDD" style="stroke:#181818;stroke-width:0.5;"/><path d="M498,298.2969 L498,308.2969 L508,308.2969 L498,298.2969 " fill="#FEFFDD" style="stroke:#181818;stroke-width:0.5;"/><text fill="#000000" font-family="sans-serif" font-size="13" lengthAdjust="spacing" textLength="393.6816" x="100" y="315.3638">El profesor introduce: actualizaciones a la lista de ejercicios.</text></g><!--link ModificarEjercicios to ConfirmarEdicion--><g id="link_ModificarEjercicios_ConfirmarEdicion"><path d="M89,386.5369 C89,406.4569 89,431.3969 89,451.2569 " fill="none" id="ModificarEjercicios-to-ConfirmarEdicion" style="stroke:#181818;stroke-width:1;"/><polygon fill="#181818" points="89,457.2569,93,448.2569,89,452.2569,85,448.2569,89,457.2569" style="stroke:#181818;stroke-width:1;"/><path d="M94,409.2969 L94,434.2969 L487,434.2969 L487,419.2969 L477,409.2969 L94,409.2969 " fill="#FEFFDD" style="stroke:#181818;stroke-width:0.5;"/><path d="M477,409.2969 L477,419.2969 L487,419.2969 L477,409.2969 " fill="#FEFFDD" style="stroke:#181818;stroke-width:0.5;"/><text fill="#000000" font-family="sans-serif" font-size="13" lengthAdjust="spacing" textLength="372.563" x="100" y="426.3638">El profesor introduce: confirmación presionando "Editar".</text></g><!--link ConfirmarEdicion to *end*EditarRutina--><g id="link_ConfirmarEdicion_*end*EditarRutina"><path d="M89,497.5769 C89,518.6869 89,545.7369 89,562.2269 " fill="none" id="ConfirmarEdicion-to-*end*EditarRutina" style="stroke:#181818;stroke-width:1;"/><polygon fill="#181818" points="89,568.2269,93,559.2269,89,563.2269,85,559.2269,89,568.2269" style="stroke:#181818;stroke-width:1;"/><path d="M94,520.2969 L94,545.2969 L523,545.2969 L523,530.2969 L513,520.2969 L94,520.2969 " fill="#FEFFDD" style="stroke:#181818;stroke-width:0.5;"/><path d="M513,520.2969 L513,530.2969 L523,530.2969 L513,520.2969 " fill="#FEFFDD" style="stroke:#181818;stroke-width:0.5;"/><text fill="#000000" font-family="sans-serif" font-size="13" lengthAdjust="spacing" textLength="408.9224" x="100" y="537.3638">El sistema muestra: mensaje de cambios guardados con éxito.</text></g><!--link Mostrando_Rutina to EditarRutina--><g id="link_Mostrando_Rutina_EditarRutina"><path d="M269.5,47.33 C269.5,61.45 269.5,76.33 269.5,100.67 " fill="none" id="Mostrando_Rutina-to-EditarRutina" style="stroke:#181818;stroke-width:1;"/><polygon fill="#181818" points="269.5,106.67,273.5,97.67,269.5,101.67,265.5,97.67,269.5,106.67" style="stroke:#181818;stroke-width:1;"/></g><!--link EditarRutina to EditandoRutina--><g id="link_EditarRutina_EditandoRutina"><path d="M269.5,600.03 C269.5,624.54 269.5,639.58 269.5,653.76 " fill="none" id="EditarRutina-to-EditandoRutina" style="stroke:#181818;stroke-width:1;"/><polygon fill="#181818" points="269.5,659.76,273.5,650.76,269.5,654.76,265.5,650.76,269.5,659.76" style="stroke:#181818;stroke-width:1;"/></g><!--SRC=[ZL91JWCn3Bpd5LQFIEK1FN11FVO2HuGgR-85BvjubMGH1V4WpZoX7yD9LrMxAe8eXsHYpunZFxCZ83_a7JXADlAGMO8nAMCcs4ZA4OEJxTsOEU04hntdWaxWAHeF67mOW8UhHrWkR-1UUhRbJIDiOGS8eWaIeEVmejUorZqaJfayWX-fwAuqp3UHO0VIT9JvLG1j7h6d10D612g4- -zmhHmKNAKrUfuhLXiRSTooLR2ZQ0kUVdKoH6afIGGEEOeRBQqcQNx7mgWE47hTQXcX_E6HT6xcWcxrSokXvUZ__fPBPkoKNClN24hAK7e2YqCV5dCRSxdgGLlq_svu2WaxAjLQz4sfusd4wD3fIGt1_kkDivm9Vnep7w8gV3eivcnoZg_70Vi1]--></g></svg>