<svg xmlns="http://www.w3.org/2000/svg" xmlns:xlink="http://www.w3.org/1999/xlink" contentStyleType="text/css" height="928px" preserveAspectRatio="none" style="width:852px;height:928px;background:#FFFFFF;" version="1.1" viewBox="0 0 852 928" width="852px" zoomAndPan="magnify"><defs/><g><rect fill="#F1F1F1" height="40" rx="12.5" ry="12.5" style="stroke:#181818;stroke-width:0.5;" width="172.8047" x="336.5" y="7"/><text fill="#000000" font-family="sans-serif" font-size="14" lengthAdjust="spacing" textLength="162.8047" x="341.5" y="31.8467">Viendo_Retos_Alumnos</text><rect fill="#F1F1F1" height="40" rx="12.5" ry="12.5" style="stroke:#181818;stroke-width:0.5;" width="122.7725" x="361.5" y="882"/><text fill="#000000" font-family="sans-serif" font-size="14" lengthAdjust="spacing" textLength="112.7725" x="366.5" y="906.8467">Evaluando_Reto</text><path d="M19.5,107 L826.5,107 A12.5,12.5 0 0 1 839,119.5 L839,133.2969 L7,133.2969 L7,119.5 A12.5,12.5 0 0 1 19.5,107 " fill="#F1F1F1" style="stroke:#F1F1F1;stroke-width:1;"/><rect fill="none" height="715.2969" rx="12.5" ry="12.5" style="stroke:#181818;stroke-width:0.5;" width="832" x="7" y="107"/><line style="stroke:#181818;stroke-width:0.5;" x1="7" x2="839" y1="133.2969" y2="133.2969"/><text fill="#000000" font-family="sans-serif" font-size="14" lengthAdjust="spacing" textLength="85.2031" x="380.3984" y="124.9951">EvaluarReto</text><ellipse cx="254" cy="154.2969" fill="#222222" rx="10" ry="10" style="stroke:#222222;stroke-width:1;"/><rect fill="#F1F1F1" height="40" rx="12.5" ry="12.5" style="stroke:#181818;stroke-width:0.5;" width="102.2031" x="203" y="235.2969"/><text fill="#000000" font-family="sans-serif" font-size="14" lengthAdjust="spacing" textLength="92.2031" x="208" y="260.1436">Evaluar_Reto</text><rect fill="#F1F1F1" height="40" rx="12.5" ry="12.5" style="stroke:#181818;stroke-width:0.5;" width="124.3379" x="192" y="346.2969"/><text fill="#000000" font-family="sans-serif" font-size="14" lengthAdjust="spacing" textLength="114.3379" x="197" y="371.1436">DescripcionReto</text><rect fill="#F1F1F1" height="40" rx="12.5" ry="12.5" style="stroke:#181818;stroke-width:0.5;" width="131.0781" x="188.5" y="457.2969"/><text fill="#000000" font-family="sans-serif" font-size="14" lengthAdjust="spacing" textLength="121.0781" x="193.5" y="482.1436">MostrarEvidencia</text><rect fill="#F1F1F1" height="40" rx="12.5" ry="12.5" style="stroke:#181818;stroke-width:0.5;" width="126.7168" x="190.5" y="568.2969"/><text fill="#000000" font-family="sans-serif" font-size="14" lengthAdjust="spacing" textLength="116.7168" x="195.5" y="593.1436">ValidarEvidencia</text><rect fill="#F1F1F1" height="40" rx="12.5" ry="12.5" style="stroke:#181818;stroke-width:0.5;" width="77.7031" x="19" y="679.2969"/><text fill="#000000" font-family="sans-serif" font-size="14" lengthAdjust="spacing" textLength="67.7031" x="24" y="704.1436">Aprobado</text><rect fill="#F1F1F1" height="40" rx="12.5" ry="12.5" style="stroke:#181818;stroke-width:0.5;" width="86.8701" x="406.5" y="679.2969"/><text fill="#000000" font-family="sans-serif" font-size="14" lengthAdjust="spacing" textLength="76.8701" x="411.5" y="704.1436">Rechazado</text><ellipse cx="254" cy="801.2969" fill="none" rx="11" ry="11" style="stroke:#222222;stroke-width:1;"/><ellipse cx="254" cy="801.2969" fill="#222222" rx="6" ry="6" style="stroke:#222222;stroke-width:1;"/><!--link *start*EvaluarReto to Evaluar_Reto--><g id="link_*start*EvaluarReto_Evaluar_Reto"><path d="M254,164.4369 C254,180.4169 254,207.7869 254,229.0669 " fill="none" id="*start*EvaluarReto-to-Evaluar_Reto" style="stroke:#181818;stroke-width:1;"/><polygon fill="#181818" points="254,235.0669,258,226.0669,254,230.0669,250,226.0669,254,235.0669" style="stroke:#181818;stroke-width:1;"/><path d="M259,187.2969 L259,212.2969 L617,212.2969 L617,197.2969 L607,187.2969 L259,187.2969 " fill="#FEFFDD" style="stroke:#181818;stroke-width:0.5;"/><path d="M607,187.2969 L607,197.2969 L617,197.2969 L607,187.2969 " fill="#FEFFDD" style="stroke:#181818;stroke-width:0.5;"/><text fill="#000000" font-family="sans-serif" font-size="13" lengthAdjust="spacing" textLength="337.0479" x="265" y="204.3638">El sistema muestra: inicio de la evaluación del reto.</text></g><!--link Evaluar_Reto to DescripcionReto--><g id="link_Evaluar_Reto_DescripcionReto"><path d="M254,275.5369 C254,295.4569 254,320.3969 254,340.2569 " fill="none" id="Evaluar_Reto-to-DescripcionReto" style="stroke:#181818;stroke-width:1;"/><polygon fill="#181818" points="254,346.2569,258,337.2569,254,341.2569,250,337.2569,254,346.2569" style="stroke:#181818;stroke-width:1;"/><path d="M259,298.2969 L259,323.2969 L562,323.2969 L562,308.2969 L552,298.2969 L259,298.2969 " fill="#FEFFDD" style="stroke:#181818;stroke-width:0.5;"/><path d="M552,298.2969 L552,308.2969 L562,308.2969 L552,298.2969 " fill="#FEFFDD" style="stroke:#181818;stroke-width:0.5;"/><text fill="#000000" font-family="sans-serif" font-size="13" lengthAdjust="spacing" textLength="282.2612" x="265" y="315.3638">El sistema muestra: la descripción del reto.</text></g><!--link DescripcionReto to MostrarEvidencia--><g id="link_DescripcionReto_MostrarEvidencia"><path d="M254,386.5369 C254,406.4569 254,431.3969 254,451.2569 " fill="none" id="DescripcionReto-to-MostrarEvidencia" style="stroke:#181818;stroke-width:1;"/><polygon fill="#181818" points="254,457.2569,258,448.2569,254,452.2569,250,448.2569,254,457.2569" style="stroke:#181818;stroke-width:1;"/><path d="M259,409.2969 L259,434.2969 L550,434.2969 L550,419.2969 L540,409.2969 L259,409.2969 " fill="#FEFFDD" style="stroke:#181818;stroke-width:0.5;"/><path d="M540,409.2969 L540,419.2969 L550,419.2969 L540,409.2969 " fill="#FEFFDD" style="stroke:#181818;stroke-width:0.5;"/><text fill="#000000" font-family="sans-serif" font-size="13" lengthAdjust="spacing" textLength="270.4482" x="265" y="426.3638">El sistema muestra: la evidencia del reto.</text></g><!--link MostrarEvidencia to ValidarEvidencia--><g id="link_MostrarEvidencia_ValidarEvidencia"><path d="M254,497.5369 C254,517.4569 254,542.3969 254,562.2569 " fill="none" id="MostrarEvidencia-to-ValidarEvidencia" style="stroke:#181818;stroke-width:1;"/><polygon fill="#181818" points="254,568.2569,258,559.2569,254,563.2569,250,559.2569,254,568.2569" style="stroke:#181818;stroke-width:1;"/><path d="M259,520.2969 L259,545.2969 L684,545.2969 L684,530.2969 L674,520.2969 L259,520.2969 " fill="#FEFFDD" style="stroke:#181818;stroke-width:0.5;"/><path d="M674,520.2969 L674,530.2969 L684,530.2969 L674,520.2969 " fill="#FEFFDD" style="stroke:#181818;stroke-width:0.5;"/><text fill="#000000" font-family="sans-serif" font-size="13" lengthAdjust="spacing" textLength="404.8345" x="265" y="537.3638">El profesor introduce: calificación y comentarios sobre el reto.</text></g><!--link ValidarEvidencia to Aprobado--><g id="link_ValidarEvidencia_Aprobado"><path d="M190.44,592.8569 C140.14,597.1469 75.68,606.4369 59,626.2969 C46.86,640.7469 47.3888,657.3497 50.9388,673.3297 " fill="none" id="ValidarEvidencia-to-Aprobado" style="stroke:#181818;stroke-width:1;"/><polygon fill="#181818" points="52.24,679.1869,54.193,669.5336,51.1557,674.3059,46.3834,671.2685,52.24,679.1869" style="stroke:#181818;stroke-width:1;"/><path d="M64,631.2969 L64,656.2969 L424,656.2969 L424,641.2969 L414,631.2969 L64,631.2969 " fill="#FEFFDD" style="stroke:#181818;stroke-width:0.5;"/><path d="M414,631.2969 L414,641.2969 L424,641.2969 L414,631.2969 " fill="#FEFFDD" style="stroke:#181818;stroke-width:0.5;"/><text fill="#000000" font-family="sans-serif" font-size="13" lengthAdjust="spacing" textLength="339.1362" x="70" y="648.3638">El sistema muestra: confirmación de reto aprobado.</text></g><!--link ValidarEvidencia to Rechazado--><g id="link_ValidarEvidencia_Rechazado"><path d="M317.58,595.8569 C360.76,601.5569 412.83,611.3069 429,626.2969 C443.61,639.8469 447.7596,656.9378 449.1296,673.3078 " fill="none" id="ValidarEvidencia-to-Rechazado" style="stroke:#181818;stroke-width:1;"/><polygon fill="#181818" points="449.63,679.2869,452.8655,669.9846,449.213,674.3043,444.8934,670.6518,449.63,679.2869" style="stroke:#181818;stroke-width:1;"/><path d="M452,631.2969 L452,656.2969 L808,656.2969 L808,641.2969 L798,631.2969 L452,631.2969 " fill="#FEFFDD" style="stroke:#181818;stroke-width:0.5;"/><path d="M798,631.2969 L798,641.2969 L808,641.2969 L798,631.2969 " fill="#FEFFDD" style="stroke:#181818;stroke-width:0.5;"/><text fill="#000000" font-family="sans-serif" font-size="13" lengthAdjust="spacing" textLength="335.5879" x="458" y="648.3638">El sistema muestra: notificación de reto rechazado.</text></g><!--link Aprobado to *end*EvaluarReto--><g id="link_Aprobado_*end*EvaluarReto"><path d="M52.08,719.5469 C48.43,735.6169 46.54,758.1169 59,772.2969 C83.38,800.0369 199.4404,800.9624 236.9904,800.5524 " fill="none" id="Aprobado-to-*end*EvaluarReto" style="stroke:#181818;stroke-width:1;"/><polygon fill="#181818" points="242.99,800.4869,233.9469,796.5854,237.9903,800.5415,234.0342,804.5849,242.99,800.4869" style="stroke:#181818;stroke-width:1;"/><path d="M64,742.2969 L64,767.2969 L423,767.2969 L423,752.2969 L413,742.2969 L64,742.2969 " fill="#FEFFDD" style="stroke:#181818;stroke-width:0.5;"/><path d="M413,742.2969 L413,752.2969 L423,752.2969 L413,742.2969 " fill="#FEFFDD" style="stroke:#181818;stroke-width:0.5;"/><text fill="#000000" font-family="sans-serif" font-size="13" lengthAdjust="spacing" textLength="338.8442" x="70" y="759.3638">El sistema muestra: evaluación finalizada con éxito.</text></g><!--link Rechazado to *end*EvaluarReto--><g id="link_Rechazado_*end*EvaluarReto"><path d="M449.5,719.5069 C447.99,736.0069 443.08,759.1569 428,772.2969 C403.44,793.7069 305.2867,798.6793 270.9967,799.8093 " fill="none" id="Rechazado-to-*end*EvaluarReto" style="stroke:#181818;stroke-width:1;"/><polygon fill="#181818" points="265,800.0069,274.1269,803.7083,269.9973,799.8422,273.8634,795.7126,265,800.0069" style="stroke:#181818;stroke-width:1;"/><path d="M452,742.2969 L452,767.2969 L830,767.2969 L830,752.2969 L820,742.2969 L452,742.2969 " fill="#FEFFDD" style="stroke:#181818;stroke-width:0.5;"/><path d="M820,742.2969 L820,752.2969 L830,752.2969 L820,742.2969 " fill="#FEFFDD" style="stroke:#181818;stroke-width:0.5;"/><text fill="#000000" font-family="sans-serif" font-size="13" lengthAdjust="spacing" textLength="357.9634" x="458" y="759.3638">El sistema muestra: evaluación finalizada con rechazo.</text></g><!--link Viendo_Retos_Alumnos to EvaluarReto--><g id="link_Viendo_Retos_Alumnos_EvaluarReto"><path d="M423,47.27 C423,61.18 423,75.84 423,100.64 " fill="none" id="Viendo_Retos_Alumnos-to-EvaluarReto" style="stroke:#181818;stroke-width:1;"/><polygon fill="#181818" points="423,106.64,427,97.64,423,101.64,419,97.64,423,106.64" style="stroke:#181818;stroke-width:1;"/></g><!--link EvaluarReto to Evaluando_Reto--><g id="link_EvaluarReto_Evaluando_Reto"><path d="M423,822.13 C423,847.16 423,861.99 423,875.94 " fill="none" id="EvaluarReto-to-Evaluando_Reto" style="stroke:#181818;stroke-width:1;"/><polygon fill="#181818" points="423,881.94,427,872.94,423,876.94,419,872.94,423,881.94" style="stroke:#181818;stroke-width:1;"/></g><!--SRC=[hPHBJWCn38RtSmglaSe1ka2gH9TikkW6eIfDFAf5ngwIJ4L178WrH-Z5yAHD6KRbCHBPnO__ivt7XXm2Djkq1uVH1jec4gvYCWbXISXELWjC4bSptpOiyUIQxunlJV5-CORE0YyLwBg_Ue39vAPuZi6TWqNZXS4JFsP3j-OU8iM4ZO6cnPY2cG8nMH8j3hm1p3AM3k-i5Wz1vQvpkXQQDQkyw-Co__ROcohn-18Kx4h-R-G1ACFlfDC9yvtEcYsPqNGicJ-YXvZCNXfFxg_iRP0QemGTUWhYMejJi2fGapqDVGzM6kHa0ac4AEkWj-VxaeRqND9CCMlZHXw25QufDEV3pqmm9wq_mnTeD-PvD5q3UrCez534Bk5Bcnchxs0Si7_JQs9jHJcccm8StfxeyhZFpVqxyzZf4FfQLPU-YFwBpw-j_ozy-ahU1m00]--></g></svg>