<svg xmlns="http://www.w3.org/2000/svg" xmlns:xlink="http://www.w3.org/1999/xlink" contentStyleType="text/css" height="418px" preserveAspectRatio="none" style="width:767px;height:418px;background:#FFFFFF;" version="1.1" viewBox="0 0 767 418" width="767px" zoomAndPan="magnify"><defs/><g><g id="Menu_Clasificacion"><rect fill="#F1F1F1" height="50" rx="12.5" ry="12.5" style="stroke:#181818;stroke-width:0.5;" width="141.3926" x="397" y="122"/><line style="stroke:#181818;stroke-width:0.5;" x1="397" x2="538.3926" y1="150.6211" y2="150.6211"/><text fill="#000000" font-family="sans-serif" font-size="14" lengthAdjust="spacing" textLength="121.3926" x="407" y="142.1074">Menu_Clasificacion</text></g><g id="elem_rombo1"><polygon fill="#F1F1F1" points="276.5,264,288.5,276,276.5,288,264.5,276,276.5,264" style="stroke:#181818;stroke-width:0.5;"/></g><g id="Ver_Alumnos_Clase"><rect fill="#F1F1F1" height="50" rx="12.5" ry="12.5" style="stroke:#181818;stroke-width:0.5;" width="147.6201" x="462.5" y="251"/><line style="stroke:#181818;stroke-width:0.5;" x1="462.5" x2="610.1201" y1="279.6211" y2="279.6211"/><text fill="#000000" font-family="sans-serif" font-size="14" lengthAdjust="spacing" textLength="127.6201" x="472.5" y="271.1074">Ver_Alumnos_Clase</text></g><g id="Menu_Perfil"><rect fill="#F1F1F1" height="50" rx="12.5" ry="12.5" style="stroke:#181818;stroke-width:0.5;" width="94.7031" x="7" y="362"/><line style="stroke:#181818;stroke-width:0.5;" x1="7" x2="101.7031" y1="390.6211" y2="390.6211"/><text fill="#000000" font-family="sans-serif" font-size="14" lengthAdjust="spacing" textLength="74.7031" x="17" y="382.1074">Menu_Perfil</text></g><g id="Menu_Retos"><rect fill="#F1F1F1" height="50" rx="12.5" ry="12.5" style="stroke:#181818;stroke-width:0.5;" width="99.3789" x="137" y="362"/><line style="stroke:#181818;stroke-width:0.5;" x1="137" x2="236.3789" y1="390.6211" y2="390.6211"/><text fill="#000000" font-family="sans-serif" font-size="14" lengthAdjust="spacing" textLength="79.3789" x="147" y="382.1074">Menu_Retos</text></g><g id="Menu_Rutinas_y_Ejercicios"><rect fill="#F1F1F1" height="50" rx="12.5" ry="12.5" style="stroke:#181818;stroke-width:0.5;" width="192.751" x="271" y="362"/><line style="stroke:#181818;stroke-width:0.5;" x1="271" x2="463.751" y1="390.6211" y2="390.6211"/><text fill="#000000" font-family="sans-serif" font-size="14" lengthAdjust="spacing" textLength="172.751" x="281" y="382.1074">Menu_Rutinas_y_Ejercicios</text></g><g id="Menu_Principal"><rect fill="#F1F1F1" height="50" rx="12.5" ry="12.5" style="stroke:#181818;stroke-width:0.5;" width="116.4961" x="499.5" y="362"/><line style="stroke:#181818;stroke-width:0.5;" x1="499.5" x2="615.9961" y1="390.6211" y2="390.6211"/><text fill="#000000" font-family="sans-serif" font-size="14" lengthAdjust="spacing" textLength="96.4961" x="509.5" y="382.1074">Menu_Principal</text></g><ellipse cx="467.5" cy="16" fill="#222222" rx="10" ry="10" style="stroke:#222222;stroke-width:1.0;"/><ellipse cx="750.5" cy="276" fill="none" rx="11" ry="11" style="stroke:#222222;stroke-width:1.0;"/><ellipse cx="750.5" cy="276" fill="#222222" rx="6" ry="6" style="stroke:#222222;stroke-width:1.0;"/><!--link *start* to Menu_Clasificacion--><g id="link_*start*_Menu_Clasificacion"><path d="M467.5,26.28 C467.5,46.09 467.5,87.09 467.5,115.96 " fill="none" id="*start*-to-Menu_Clasificacion" style="stroke:#181818;stroke-width:1.0;"/><polygon fill="#181818" points="467.5,121.96,471.5,112.96,467.5,116.96,463.5,112.96,467.5,121.96" style="stroke:#181818;stroke-width:1.0;"/><text fill="#000000" font-family="sans-serif" font-size="13" lengthAdjust="spacing" textLength="159.2373" x="468.5" y="71.0283">"El profesor solicita entrar a</text><text fill="#000000" font-family="sans-serif" font-size="13" lengthAdjust="spacing" textLength="113.7183" x="491.2595" y="88.3193">Menu Clasificacion"</text></g><!--link Menu_Clasificacion to Ver_Alumnos_Clase--><g id="link_Menu_Clasificacion_Ver_Alumnos_Clase"><path d="M481.03,172.15 C486.21,181.46 492.16,192.21 497.5,202 C506.37,218.28 513.3838,231.392 520.9638,245.652 " fill="none" id="Menu_Clasificacion-to-Ver_Alumnos_Clase" style="stroke:#181818;stroke-width:1.0;"/><polygon fill="#181818" points="523.78,250.95,523.0877,241.1255,521.4332,246.535,516.0237,244.8804,523.78,250.95" style="stroke:#181818;stroke-width:1.0;"/><text fill="#000000" font-family="sans-serif" font-size="13" lengthAdjust="spacing" textLength="189.8584" x="508.5" y="217.0283">"El profesor solicita ver alumnos"</text></g><!--link Menu_Clasificacion to rombo1--><g id="link_Menu_Clasificacion_rombo1"><path d="M396.93,149.76 C313.06,153.51 180.53,165.26 149.5,202 C113.73,244.36 225.0619,266.5223 260.6519,272.4623 " fill="none" id="Menu_Clasificacion-to-rombo1" style="stroke:#181818;stroke-width:1.0;"/><polygon fill="#181818" points="266.57,273.45,258.3513,268.023,261.6382,272.6269,257.0343,275.9138,266.57,273.45" style="stroke:#181818;stroke-width:1.0;"/><text fill="#000000" font-family="sans-serif" font-size="13" lengthAdjust="spacing" textLength="205.042" x="150.5" y="217.0283">"El profesor solicita ir a otra opci&#243;n"</text></g><!--link rombo1 to Menu_Clasificacion--><g id="link_rombo1_Menu_Clasificacion"><path d="M283.51,270.58 C297.98,261.45 332.17,239.76 360.5,221 C384.69,204.98 406.7283,189.9729 427.5383,175.6429 " fill="none" id="rombo1-to-Menu_Clasificacion" style="stroke:#181818;stroke-width:1.0;"/><polygon fill="#181818" points="432.48,172.24,422.7989,174.0499,428.3619,175.0758,427.3361,180.6388,432.48,172.24" style="stroke:#181818;stroke-width:1.0;"/><text fill="#000000" font-family="sans-serif" font-size="13" lengthAdjust="spacing" textLength="95.9385" x="388.5" y="217.0283">"Volver al men&#250;"</text></g><!--link rombo1 to Menu_Perfil--><g id="link_rombo1_Menu_Perfil"><path d="M269.11,280.63 C243.53,293.19 162.6756,332.8851 107.6156,359.9251 " fill="none" id="rombo1-to-Menu_Perfil" style="stroke:#181818;stroke-width:1.0;"/><polygon fill="#181818" points="102.23,362.57,112.0716,362.1931,106.718,360.3659,108.5451,355.0123,102.23,362.57" style="stroke:#181818;stroke-width:1.0;"/></g><!--link rombo1 to Menu_Retos--><g id="link_rombo1_Menu_Retos"><path d="M271.4,283.17 C259.13,298.03 231.2305,331.8336 210.2305,357.2636 " fill="none" id="rombo1-to-Menu_Retos" style="stroke:#181818;stroke-width:1.0;"/><polygon fill="#181818" points="206.41,361.89,215.225,357.4973,209.5937,358.0346,209.0564,352.4034,206.41,361.89" style="stroke:#181818;stroke-width:1.0;"/></g><!--link rombo1 to Menu_Rutinas_y_Ejercicios--><g id="link_rombo1_Menu_Rutinas_y_Ejercicios"><path d="M281.65,283.17 C294.06,298.03 322.2948,331.8541 343.5248,357.2841 " fill="none" id="rombo1-to-Menu_Rutinas_y_Ejercicios" style="stroke:#181818;stroke-width:1.0;"/><polygon fill="#181818" points="347.37,361.89,344.6728,352.4177,344.1657,358.0517,338.5316,357.5446,347.37,361.89" style="stroke:#181818;stroke-width:1.0;"/></g><!--link rombo1 to Menu_Principal--><g id="link_rombo1_Menu_Principal"><path d="M284.61,280.14 C315.65,292.19 423.166,333.8903 493.656,361.2303 " fill="none" id="rombo1-to-Menu_Principal" style="stroke:#181818;stroke-width:1.0;"/><polygon fill="#181818" points="499.25,363.4,492.3055,356.4162,494.5884,361.592,489.4126,363.8748,499.25,363.4" style="stroke:#181818;stroke-width:1.0;"/></g><!--link Menu_Clasificacion to *end*--><g id="link_Menu_Clasificacion_*end*"><path d="M538.07,149.53 C589.11,153.85 657.44,166.58 706.5,202 C728.82,218.11 739.9621,243.6819 745.4721,259.5519 " fill="none" id="Menu_Clasificacion-to-*end*" style="stroke:#181818;stroke-width:1.0;"/><polygon fill="#181818" points="747.44,265.22,748.2668,255.4059,745.8001,260.4966,740.7094,258.0298,747.44,265.22" style="stroke:#181818;stroke-width:1.0;"/></g><!--SRC=[TP71gi8m44Nt-Oh1vGCNRaKA8Yu5ST6DFaeCKnn9CsMI2k-xtiwjFsPiWrZRRk_adfbxuuCE23jqJR6nsbD9HXjYftmx4AxEl83LoboO36PPqdEKOcsRoh5lVPZq5hH7ASb-AWSCx7j24yXfN_mLsokAeRYoDzyBEKErjaeTVtvXFiz6ReGbpBOMQk4IFGjujX4KDA0BeWNqoRrCq3FDb1eXlHOCCatoRnZXtSk8cmIcygOe5270yLBWsj3ZFvwM7E-ugSblkQjpe8vrEY2-Y_sU3AhDsNP1eKBtk4yN5t_e2G00]--></g></svg>