<svg xmlns="http://www.w3.org/2000/svg" xmlns:xlink="http://www.w3.org/1999/xlink" contentStyleType="text/css" height="640px" preserveAspectRatio="none" style="width:945px;height:640px;background:#FFFFFF;" version="1.1" viewBox="0 0 945 640" width="945px" zoomAndPan="magnify"><defs/><g><g id="elem_rombo"><polygon fill="#F1F1F1" points="413.5,6,425.5,18,413.5,30,401.5,18,413.5,6" style="stroke:#181818;stroke-width:0.5;"/></g><path d="M417,361 L851.5176,361 A12.5,12.5 0 0 1 864.0176,373.5 L864.0176,387.2969 L404.5,387.2969 L404.5,373.5 A12.5,12.5 0 0 1 417,361 " fill="#F1F1F1" style="stroke:#F1F1F1;stroke-width:1;"/><rect fill="none" height="273.2969" rx="12.5" ry="12.5" style="stroke:#181818;stroke-width:0.5;" width="459.5176" x="404.5" y="361"/><line style="stroke:#181818;stroke-width:0.5;" x1="404.5" x2="864.0176" y1="387.2969" y2="387.2969"/><text fill="#000000" font-family="sans-serif" font-size="14" lengthAdjust="spacing" textLength="112.3623" x="578.0776" y="378.9951">MostrarEjercicio</text><ellipse cx="567.5" cy="408.2969" fill="#222222" rx="10" ry="10" style="stroke:#222222;stroke-width:1;"/><g id="MostrarEjercicio.VerDetalles"><rect fill="#F1F1F1" height="50" rx="12.5" ry="12.5" style="stroke:#181818;stroke-width:0.5;" width="101.0947" x="517" y="471.2969"/><line style="stroke:#181818;stroke-width:0.5;" x1="517" x2="618.0947" y1="497.5938" y2="497.5938"/><text fill="#000000" font-family="sans-serif" font-size="14" lengthAdjust="spacing" textLength="81.0947" x="527" y="489.292">VerDetalles</text></g><g id="MostrarEjercicio.EditarEjercicio"><rect fill="#F1F1F1" height="50" rx="12.5" ry="12.5" style="stroke:#181818;stroke-width:0.5;" width="120.29" x="416.5" y="574.2969"/><line style="stroke:#181818;stroke-width:0.5;" x1="416.5" x2="536.79" y1="600.5938" y2="600.5938"/><text fill="#000000" font-family="sans-serif" font-size="14" lengthAdjust="spacing" textLength="100.29" x="426.5" y="592.292">EditarEjercicio</text></g><ellipse cx="658.5" cy="599.2969" fill="none" rx="11" ry="11" style="stroke:#222222;stroke-width:1;"/><ellipse cx="658.5" cy="599.2969" fill="#222222" rx="6" ry="6" style="stroke:#222222;stroke-width:1;"/><!--link *start*MostrarEjercicio to VerDetalles--><g id="link_*start*MostrarEjercicio_VerDetalles"><path d="M567.5,418.4969 C567.5,430.9769 567.5,447.7169 567.5,465.2269 " fill="none" id="*start*MostrarEjercicio-to-VerDetalles" style="stroke:#181818;stroke-width:1;"/><polygon fill="#181818" points="567.5,471.2269,571.5,462.2269,567.5,466.2269,563.5,462.2269,567.5,471.2269" style="stroke:#181818;stroke-width:1;"/><text fill="#000000" font-family="sans-serif" font-size="13" lengthAdjust="spacing" textLength="285.5176" x="568.5" y="449.3638">El sistema muestra los detalles del ejercicio</text></g><!--link VerDetalles to EditarEjercicio--><g id="link_VerDetalles_EditarEjercicio"><path d="M516.53,509.7369 C501.42,516.0369 486.51,525.4069 477.5,539.2969 C470.92,549.4369 469.5992,556.796 470.7292,568.216 " fill="none" id="VerDetalles-to-EditarEjercicio" style="stroke:#181818;stroke-width:1;"/><polygon fill="#181818" points="471.32,574.1869,474.4143,564.8367,470.8277,569.2112,466.4532,565.6245,471.32,574.1869" style="stroke:#181818;stroke-width:1;"/><text fill="#000000" font-family="sans-serif" font-size="13" lengthAdjust="spacing" textLength="157.2759" x="478.5" y="552.3638">Presionar bot&#243;n "Editar"</text></g><!--link VerDetalles to *end*MostrarEjercicio--><g id="link_VerDetalles_*end*MostrarEjercicio"><path d="M616.43,521.3069 C623.84,526.4869 630.87,532.4869 636.5,539.2969 C648.48,553.7969 653.1124,569.5636 655.6424,582.2036 " fill="none" id="VerDetalles-to-*end*MostrarEjercicio" style="stroke:#181818;stroke-width:1;"/><polygon fill="#181818" points="656.82,588.0869,658.9758,578.4769,655.8387,583.1841,651.1314,580.047,656.82,588.0869" style="stroke:#181818;stroke-width:1;"/><text fill="#000000" font-family="sans-serif" font-size="13" lengthAdjust="spacing" textLength="136.6904" x="646.5" y="552.3638">Finaliza visualizaci&#243;n</text></g><ellipse cx="762.5" cy="18" fill="#222222" rx="10" ry="10" style="stroke:#222222;stroke-width:1;"/><g id="Menu_Rutinas_y_Ejercicios"><rect fill="#F1F1F1" height="50" rx="12.5" ry="12.5" style="stroke:#181818;stroke-width:0.5;" width="206.5869" x="659" y="107"/><line style="stroke:#181818;stroke-width:0.5;" x1="659" x2="865.5869" y1="133.2969" y2="133.2969"/><text fill="#000000" font-family="sans-serif" font-size="14" lengthAdjust="spacing" textLength="186.5869" x="669" y="124.9951">Menu_Rutinas_y_Ejercicios</text></g><g id="Menu_Perfil"><rect fill="#F1F1F1" height="50" rx="12.5" ry="12.5" style="stroke:#181818;stroke-width:0.5;" width="100.958" x="7" y="107"/><line style="stroke:#181818;stroke-width:0.5;" x1="7" x2="107.958" y1="133.2969" y2="133.2969"/><text fill="#000000" font-family="sans-serif" font-size="14" lengthAdjust="spacing" textLength="80.958" x="17" y="124.9951">Menu_Perfil</text></g><g id="Menu_Retos"><rect fill="#F1F1F1" height="50" rx="12.5" ry="12.5" style="stroke:#181818;stroke-width:0.5;" width="105.1279" x="143" y="107"/><line style="stroke:#181818;stroke-width:0.5;" x1="143" x2="248.1279" y1="133.2969" y2="133.2969"/><text fill="#000000" font-family="sans-serif" font-size="14" lengthAdjust="spacing" textLength="85.1279" x="153" y="124.9951">Menu_Retos</text></g><g id="Clasificaci&#243;n"><rect fill="#F1F1F1" height="50" rx="12.5" ry="12.5" style="stroke:#181818;stroke-width:0.5;" width="107.5479" x="283.5" y="107"/><line style="stroke:#181818;stroke-width:0.5;" x1="283.5" x2="391.0479" y1="133.2969" y2="133.2969"/><text fill="#000000" font-family="sans-serif" font-size="14" lengthAdjust="spacing" textLength="87.5479" x="293.5" y="124.9951">Clasificaci&#243;n</text></g><g id="Menu_Principal"><rect fill="#F1F1F1" height="50" rx="12.5" ry="12.5" style="stroke:#181818;stroke-width:0.5;" width="125.3418" x="427" y="107"/><line style="stroke:#181818;stroke-width:0.5;" x1="427" x2="552.3418" y1="133.2969" y2="133.2969"/><text fill="#000000" font-family="sans-serif" font-size="14" lengthAdjust="spacing" textLength="105.3418" x="437" y="124.9951">Menu_Principal</text></g><g id="ListaEjercicios"><rect fill="#F1F1F1" height="50" rx="12.5" ry="12.5" style="stroke:#181818;stroke-width:0.5;" width="119.1895" x="681" y="234"/><line style="stroke:#181818;stroke-width:0.5;" x1="681" x2="800.1895" y1="260.2969" y2="260.2969"/><text fill="#000000" font-family="sans-serif" font-size="14" lengthAdjust="spacing" textLength="99.1895" x="691" y="251.9951">ListaEjercicios</text></g><!--link *start* to Menu_Rutinas_y_Ejercicios--><g id="link_*start*_Menu_Rutinas_y_Ejercicios"><path d="M762.5,28.17 C762.5,45.2 762.5,76.23 762.5,100.89 " fill="none" id="*start*-to-Menu_Rutinas_y_Ejercicios" style="stroke:#181818;stroke-width:1;"/><polygon fill="#181818" points="762.5,106.89,766.5,97.89,762.5,101.89,758.5,97.89,762.5,106.89" style="stroke:#181818;stroke-width:1;"/><text fill="#000000" font-family="sans-serif" font-size="13" lengthAdjust="spacing" textLength="113.9468" x="763.5" y="73.0669">Inicio del proceso</text></g><!--link rombo to Menu_Perfil--><g id="link_rombo_Menu_Perfil"><path d="M404.5,21.6 C368.92,31.9 234.76,71.05 125.5,107 C119.91,108.84 119.7512,108.851 113.9612,110.851 " fill="none" id="rombo-to-Menu_Perfil" style="stroke:#181818;stroke-width:1;"/><polygon fill="#181818" points="108.29,112.81,118.1028,113.6524,113.016,111.1775,115.4908,106.0908,108.29,112.81" style="stroke:#181818;stroke-width:1;"/></g><!--link rombo to Menu_Retos--><g id="link_rombo_Menu_Retos"><path d="M406,22.86 C380.62,35.89 301.9071,76.3387 247.9971,104.0287 " fill="none" id="rombo-to-Menu_Retos" style="stroke:#181818;stroke-width:1;"/><polygon fill="#181818" points="242.66,106.77,252.4933,106.2161,247.1076,104.4856,248.8382,99.0999,242.66,106.77" style="stroke:#181818;stroke-width:1;"/></g><!--link rombo to Clasificaci?n--><g id="link_rombo_Clasificaci&#243;n"><path d="M408.97,25.67 C398.36,41.31 374.8278,75.9844 357.2278,101.9344 " fill="none" id="rombo-to-Clasificaci&#243;n" style="stroke:#181818;stroke-width:1;"/><polygon fill="#181818" points="353.86,106.9,362.2222,101.6968,356.6665,102.762,355.6013,97.2063,353.86,106.9" style="stroke:#181818;stroke-width:1;"/></g><!--link rombo to Menu_Rutinas_y_Ejercicios--><g id="link_rombo_Menu_Rutinas_y_Ejercicios"><path d="M423.79,19.8 C455.55,22.49 554.57,32.67 631.5,60 C664.9,71.86 694.9502,88.2315 720.4302,103.8015 " fill="none" id="rombo-to-Menu_Rutinas_y_Ejercicios" style="stroke:#181818;stroke-width:1;"/><polygon fill="#181818" points="725.55,106.93,719.956,98.824,721.2835,104.3229,715.7846,105.6504,725.55,106.93" style="stroke:#181818;stroke-width:1;"/></g><!--link rombo to Menu_Principal--><g id="link_rombo_Menu_Principal"><path d="M418.03,25.67 C428.64,41.31 452.1722,75.9844 469.7722,101.9344 " fill="none" id="rombo-to-Menu_Principal" style="stroke:#181818;stroke-width:1;"/><polygon fill="#181818" points="473.14,106.9,471.3987,97.2063,470.3335,102.762,464.7778,101.6968,473.14,106.9" style="stroke:#181818;stroke-width:1;"/></g><!--link Menu_Rutinas_y_Ejercicios to ListaEjercicios--><g id="link_Menu_Rutinas_y_Ejercicios_ListaEjercicios"><path d="M758.26,157.1 C754.36,179.24 749.6597,205.9508 745.7697,228.0608 " fill="none" id="Menu_Rutinas_y_Ejercicios-to-ListaEjercicios" style="stroke:#181818;stroke-width:1;"/><polygon fill="#181818" points="744.73,233.97,750.229,225.7993,745.5964,229.0456,742.35,224.413,744.73,233.97" style="stroke:#181818;stroke-width:1;"/><text fill="#000000" font-family="sans-serif" font-size="13" lengthAdjust="spacing" textLength="180.2036" x="753.5" y="200.0669">Presionar bot&#243;n "Ejercicios"</text></g><!--link ListaEjercicios to MostrarEjercicio--><g id="link_ListaEjercicios_MostrarEjercicio"><path d="M729.56,284.42 C721.04,303.42 710.9344,325.965 697.7144,355.455 " fill="none" id="ListaEjercicios-to-MostrarEjercicio" style="stroke:#181818;stroke-width:1;"/><polygon fill="#181818" points="695.26,360.93,702.5916,354.3537,697.3053,356.3675,695.2916,351.0812,695.26,360.93" style="stroke:#181818;stroke-width:1;"/><text fill="#000000" font-family="sans-serif" font-size="13" lengthAdjust="spacing" textLength="221.7236" x="715.5" y="327.0669">Seleccionar un ejercicio de la lista</text></g><!--link MostrarEjercicio to rombo--><g id="link_MostrarEjercicio_rombo"><path d="M639.99,360.74 C636.79,280.43 620.94,180.41 569.5,107 C531.67,53.02 455.3211,29.5835 428.2011,22.6135 " fill="none" id="MostrarEjercicio-to-rombo" style="stroke:#181818;stroke-width:1;"/><polygon fill="#181818" points="422.39,21.12,430.1111,27.2343,427.2326,22.3646,432.1024,19.4861,422.39,21.12" style="stroke:#181818;stroke-width:1;"/></g><!--SRC=[TL7BQiD03BplLmWV0_c147nfNIYq41Be9HIZh1Mg8k-6VGJQqg_g9_J7kckdRXAxDp4QZMQaxUmPvlCI7id4UXq36_JrMrszajEisNfOmBt95JGaS71MaxVA1mm4phOx2ykbVh6igInL3mnwAt9xbcjqJS7wC_16qFEUDMh-_Z8ZzeIdqHx7HlC1HQd_SsJs0oVZ5zbMZZnRWmvsDgJrKFor2tNDxpPQ7now0KqY6nBIkfU91cXeDGI285b5ZUQoM1VaTCqHuKC1R4__UI9tIm55ABkk17mIfHQXZPJ7G9AzvfUHNpMuI2hdqrcjQZXSHfYuGySf9gQpfmNSfHCBloCSsSUkwl_t-GC0]--></g></svg>