<svg xmlns="http://www.w3.org/2000/svg" xmlns:xlink="http://www.w3.org/1999/xlink" contentStyleType="text/css" height="185px" preserveAspectRatio="none" style="width:324px;height:185px;background:#FFFFFF;" version="1.1" viewBox="0 0 324 185" width="324px" zoomAndPan="magnify"><defs/><g><g id="elem_AceptarOferta"><ellipse cx="242.0017" cy="23.2003" fill="#F1F1F1" rx="74.0017" ry="17.2003" style="stroke:#181818;stroke-width:0.5;"/><text fill="#000000" font-family="sans-serif" font-size="14" lengthAdjust="spacing" textLength="103.4346" x="187.2844" y="26.9479">Aceptar Oferta</text></g><g id="elem_CerrarOferta"><ellipse cx="242.0897" cy="91.9179" fill="#F1F1F1" rx="70.0897" ry="16.4179" style="stroke:#181818;stroke-width:0.5;"/><text fill="#000000" font-family="sans-serif" font-size="14" lengthAdjust="spacing" textLength="93.0713" x="192.5541" y="95.6655">Cerrar Oferta</text></g><g id="elem_CancelarOferta"><ellipse cx="241.7975" cy="161.7595" fill="#F1F1F1" rx="76.7975" ry="17.7595" style="stroke:#181818;stroke-width:0.5;"/><text fill="#000000" font-family="sans-serif" font-size="14" lengthAdjust="spacing" textLength="110.5986" x="183.5412" y="165.496">Cancelar Oferta</text></g><!--entity Administrador--><g id="elem_Administrador"><ellipse cx="55.54" cy="62.5" fill="#F1F1F1" rx="8" ry="8" style="stroke:#181818;stroke-width:0.5;"/><path d="M55.54,70.5 L55.54,97.5 M42.54,78.5 L68.54,78.5 M55.54,97.5 L42.54,112.5 M55.54,97.5 L68.54,112.5 " fill="none" style="stroke:#181818;stroke-width:0.5;"/><text fill="#000000" font-family="sans-serif" font-size="14" lengthAdjust="spacing" textLength="99.0801" x="6" y="126.9951">Administrador</text></g><!--link Administrador to AceptarOferta--><g id="link_Administrador_AceptarOferta"><path d="M105.46,73.69 C135.78,62.35 168.5402,50.1019 196.7202,39.5619 " fill="none" id="Administrador-to-AceptarOferta" style="stroke:#181818;stroke-width:1;"/><polygon fill="#181818" points="202.34,37.46,192.509,36.8664,197.6569,39.2116,195.3116,44.3594,202.34,37.46" style="stroke:#181818;stroke-width:1;"/></g><!--link Administrador to CerrarOferta--><g id="link_Administrador_CerrarOferta"><path d="M105.46,92 C125.74,92 143.64,92 165.67,92 " fill="none" id="Administrador-to-CerrarOferta" style="stroke:#181818;stroke-width:1;"/><polygon fill="#181818" points="171.67,92,162.67,88,166.67,92,162.67,96,171.67,92" style="stroke:#181818;stroke-width:1;"/></g><!--link Administrador to CancelarOferta--><g id="link_Administrador_CancelarOferta"><path d="M105.46,110.57 C135.24,121.88 167.1999,134.0024 195.2299,144.6324 " fill="none" id="Administrador-to-CancelarOferta" style="stroke:#181818;stroke-width:1;"/><polygon fill="#181818" points="200.84,146.76,193.8432,139.8286,196.1649,144.987,191.0064,147.3087,200.84,146.76" style="stroke:#181818;stroke-width:1;"/></g><!--SRC=[ROt12O0m303_dIBuTmL17C0PGffgeBQInlrzj21LltS75paOM0QLRJVmeamcEJbt5IOi3CDCV1egh87LS00iq50bJxcmQXzMykam4STNsLXhtUmFIL9CqMU5SPnUqw_lNZ-w6zm0]--></g></svg>