<svg xmlns="http://www.w3.org/2000/svg" xmlns:xlink="http://www.w3.org/1999/xlink" contentStyleType="text/css" height="180px" preserveAspectRatio="none" style="width:270px;height:180px;background:#FFFFFF;" version="1.1" viewBox="0 0 270 180" width="270px" zoomAndPan="magnify"><defs/><g><g id="elem_BuscarOferta"><ellipse cx="189.9177" cy="22.6835" fill="#F1F1F1" rx="71.4177" ry="16.6835" style="stroke:#181818;stroke-width:0.5;"/><text fill="#000000" font-family="sans-serif" font-size="14" lengthAdjust="spacing" textLength="96.6396" x="138.5978" y="26.4311">Buscar Oferta</text></g><g id="elem_PostularOferta"><ellipse cx="189.8878" cy="91.3776" fill="#F1F1F1" rx="74.8878" ry="17.3776" style="stroke:#181818;stroke-width:0.5;"/><text fill="#000000" font-family="sans-serif" font-size="14" lengthAdjust="spacing" textLength="105.7246" x="134.0255" y="95.1251">Postular Oferta</text></g><g id="elem_VerOfertas"><ellipse cx="189.9462" cy="159.4892" fill="#F1F1F1" rx="65.4462" ry="15.4892" style="stroke:#181818;stroke-width:0.5;"/><text fill="#000000" font-family="sans-serif" font-size="14" lengthAdjust="spacing" textLength="80.0762" x="146.9081" y="163.2368">Ver Ofertas</text></g><!--entity Alumni--><g id="elem_Alumni"><ellipse cx="30.3701" cy="62" fill="#F1F1F1" rx="8" ry="8" style="stroke:#181818;stroke-width:0.5;"/><path d="M30.3701,70 L30.3701,97 M17.3701,78 L43.3701,78 M30.3701,97 L17.3701,112 M30.3701,97 L43.3701,112 " fill="none" style="stroke:#181818;stroke-width:0.5;"/><text fill="#000000" font-family="sans-serif" font-size="14" lengthAdjust="spacing" textLength="48.7402" x="6" y="126.4951">Alumni</text></g><!--link Alumni to BuscarOferta--><g id="link_Alumni_BuscarOferta"><path d="M55.08,81.17 C81.77,69.48 119.9541,52.7474 150.1341,39.5274 " fill="none" id="Alumni-to-BuscarOferta" style="stroke:#181818;stroke-width:1;"/><polygon fill="#181818" points="155.63,37.12,145.7813,37.0672,151.0501,39.1262,148.9911,44.395,155.63,37.12" style="stroke:#181818;stroke-width:1;"/></g><!--link Alumni to PostularOferta--><g id="link_Alumni_PostularOferta"><path d="M55.08,91.5 C71.04,91.5 87.08,91.5 108.67,91.5 " fill="none" id="Alumni-to-PostularOferta" style="stroke:#181818;stroke-width:1;"/><polygon fill="#181818" points="114.67,91.5,105.67,87.5,109.67,91.5,105.67,95.5,114.67,91.5" style="stroke:#181818;stroke-width:1;"/></g><!--link Alumni to VerOfertas--><g id="link_Alumni_VerOfertas"><path d="M55.08,101.68 C82.37,113.46 121.9117,130.5313 152.1317,143.5813 " fill="none" id="Alumni-to-VerOfertas" style="stroke:#181818;stroke-width:1;"/><polygon fill="#181818" points="157.64,145.96,150.9633,138.7197,153.0497,143.9778,147.7917,146.0642,157.64,145.96" style="stroke:#181818;stroke-width:1;"/></g><!--SRC=[NOr13e0W30JllABnpXTCz0DwyawmA0b2Gil_9If1w6rd9rk7Xe43H7kS3BkDgDa6BqGYr8eGXZcHLX4MWv7L08hW9I-etXg8aslDmdftmwBHu-NyHP5lSkdo5gGSsrS_tWt_cZfr0m00]--></g></svg>