<svg xmlns="http://www.w3.org/2000/svg" xmlns:xlink="http://www.w3.org/1999/xlink" contentStyleType="text/css" height="614px" preserveAspectRatio="none" style="width:951px;height:614px;background:#FFFFFF;" version="1.1" viewBox="0 0 951 614" width="951px" zoomAndPan="magnify"><defs/><g><!--cluster Sistema Gesti?n de Usuarios--><g id="cluster_Sistema Gesti&#243;n de Usuarios"><path d="M8.5,285.65 L236.2412,285.65 A3.75,3.75 0 0 1 238.7412,288.15 L245.7412,307.9469 L442.4,307.9469 A2.5,2.5 0 0 1 444.9,310.4469 L444.9,512.15 A2.5,2.5 0 0 1 442.4,514.65 L8.5,514.65 A2.5,2.5 0 0 1 6,512.15 L6,288.15 A2.5,2.5 0 0 1 8.5,285.65 " fill="none" style="stroke:#000000;stroke-width:1.5;"/><line style="stroke:#000000;stroke-width:1.5;" x1="6" x2="245.7412" y1="307.9469" y2="307.9469"/><text fill="#000000" font-family="sans-serif" font-size="14" font-weight="bold" lengthAdjust="spacing" textLength="226.7412" x="10" y="300.6451">Sistema Gesti&#243;n de Usuarios</text></g><!--cluster Sistema Gesti?n Pruebas--><g id="cluster_Sistema Gesti&#243;n Pruebas"><path d="M13.47,97.65 L212.4798,97.65 A3.75,3.75 0 0 1 214.9798,100.15 L221.9798,119.9469 L445.56,119.9469 A2.5,2.5 0 0 1 448.06,122.4469 L448.06,259.15 A2.5,2.5 0 0 1 445.56,261.65 L13.47,261.65 A2.5,2.5 0 0 1 10.97,259.15 L10.97,100.15 A2.5,2.5 0 0 1 13.47,97.65 " fill="none" style="stroke:#000000;stroke-width:1.5;"/><line style="stroke:#000000;stroke-width:1.5;" x1="10.97" x2="221.9798" y1="119.9469" y2="119.9469"/><text fill="#000000" font-family="sans-serif" font-size="14" font-weight="bold" lengthAdjust="spacing" textLength="198.0098" x="14.97" y="112.6451">Sistema Gesti&#243;n Pruebas</text></g><!--cluster Sistema de Capacitaci?n--><g id="cluster_Sistema de Capacitaci&#243;n"><path d="M478.56,345.65 L673.3725,345.65 A3.75,3.75 0 0 1 675.8725,348.15 L682.8725,367.9469 L942.04,367.9469 A2.5,2.5 0 0 1 944.54,370.4469 L944.54,513.15 A2.5,2.5 0 0 1 942.04,515.65 L478.56,515.65 A2.5,2.5 0 0 1 476.06,513.15 L476.06,348.15 A2.5,2.5 0 0 1 478.56,345.65 " fill="none" style="stroke:#000000;stroke-width:1.5;"/><line style="stroke:#000000;stroke-width:1.5;" x1="476.06" x2="682.8725" y1="367.9469" y2="367.9469"/><text fill="#000000" font-family="sans-serif" font-size="14" font-weight="bold" lengthAdjust="spacing" textLength="193.8125" x="480.06" y="360.6451">Sistema de Capacitaci&#243;n</text></g><g id="elem_UCU1"><ellipse cx="107.8682" cy="481.6456" fill="#F1F1F1" rx="71.2282" ry="16.6456" style="stroke:#181818;stroke-width:0.5;"/><text fill="#000000" font-family="sans-serif" font-size="14" lengthAdjust="spacing" textLength="96.1338" x="56.8013" y="485.3932">Crear Usuario</text></g><g id="elem_UCU2"><ellipse cx="107.8662" cy="412.6512" fill="#F1F1F1" rx="75.3562" ry="17.4712" style="stroke:#181818;stroke-width:0.5;"/><text fill="#000000" font-family="sans-serif" font-size="14" lengthAdjust="spacing" textLength="106.9277" x="51.4023" y="416.3988">Activar Usuario</text></g><g id="elem_UCU3"><ellipse cx="107.8747" cy="340.6549" fill="#F1F1F1" rx="85.8747" ry="19.5749" style="stroke:#181818;stroke-width:0.5;"/><text fill="#000000" font-family="sans-serif" font-size="14" lengthAdjust="spacing" textLength="132.3369" x="41.7062" y="343.5016">Suspender Usuario</text></g><g id="elem_UCU4"><ellipse cx="342.9025" cy="479.6505" fill="#F1F1F1" rx="82.4025" ry="18.8805" style="stroke:#181818;stroke-width:0.5;"/><text fill="#000000" font-family="sans-serif" font-size="14" lengthAdjust="spacing" textLength="124.2705" x="279.9695" y="482.764">Reactivar Usuario</text></g><g id="elem_UCU5"><ellipse cx="342.8967" cy="406.6493" fill="#F1F1F1" rx="85.9967" ry="19.5993" style="stroke:#181818;stroke-width:0.5;"/><text fill="#000000" font-family="sans-serif" font-size="14" lengthAdjust="spacing" textLength="132.6172" x="276.5881" y="409.496">Desactivar Usuario</text></g><g id="elem_UCU6"><ellipse cx="107.8746" cy="229.6549" fill="#F1F1F1" rx="69.7246" ry="16.3449" style="stroke:#181818;stroke-width:0.5;"/><text fill="#000000" font-family="sans-serif" font-size="14" lengthAdjust="spacing" textLength="92.0801" x="58.8346" y="233.4025">Crear Prueba</text></g><g id="elem_UCU7"><ellipse cx="107.87" cy="159.65" fill="#F1F1F1" rx="80.9" ry="18.58" style="stroke:#181818;stroke-width:0.5;"/><text fill="#000000" font-family="sans-serif" font-size="14" lengthAdjust="spacing" textLength="120.6953" x="46.1905" y="162.9305">Consultar Prueba</text></g><g id="elem_UCU8"><ellipse cx="342.9035" cy="225.6507" fill="#F1F1F1" rx="89.1535" ry="20.2307" style="stroke:#181818;stroke-width:0.5;"/><text fill="#000000" font-family="sans-serif" font-size="14" lengthAdjust="spacing" textLength="139.8223" x="272.9924" y="228.4974">Revisar Estadisticas</text></g><g id="elem_UCU9"><ellipse cx="342.8978" cy="151.6476" fill="#F1F1F1" rx="84.2378" ry="19.2476" style="stroke:#181818;stroke-width:0.5;"/><text fill="#000000" font-family="sans-serif" font-size="14" lengthAdjust="spacing" textLength="128.5635" x="278.4338" y="154.5571">Desactivar Prueba</text></g><g id="elem_UCU10"><ellipse cx="591.1413" cy="479.6503" fill="#F1F1F1" rx="86.3513" ry="19.6703" style="stroke:#181818;stroke-width:0.5;"/><text fill="#000000" font-family="sans-serif" font-size="14" lengthAdjust="spacing" textLength="133.4307" x="524.426" y="482.4969">Crear Capacitacion</text></g><g id="elem_UCU11"><ellipse cx="591.1381" cy="402.6476" fill="#F1F1F1" rx="99.0881" ry="22.2176" style="stroke:#181818;stroke-width:0.5;"/><text fill="#000000" font-family="sans-serif" font-size="14" lengthAdjust="spacing" textLength="162.0459" x="510.1151" y="405.4943">Consultar Capacitacion</text></g><g id="elem_UCU12"><ellipse cx="839.3935" cy="479.6507" fill="#F1F1F1" rx="89.1535" ry="20.2307" style="stroke:#181818;stroke-width:0.5;"/><text fill="#000000" font-family="sans-serif" font-size="14" lengthAdjust="spacing" textLength="139.8223" x="769.4824" y="482.4974">Revisar Estadisticas</text></g><!--entity User--><g id="elem_User"><ellipse cx="107.8751" cy="542" fill="#F1F1F1" rx="8" ry="8" style="stroke:#181818;stroke-width:0.5;"/><path d="M107.8751,550 L107.8751,577 M94.8751,558 L120.8751,558 M107.8751,577 L94.8751,592 M107.8751,577 L120.8751,592 " fill="none" style="stroke:#181818;stroke-width:0.5;"/><text fill="#000000" font-family="sans-serif" font-size="14" lengthAdjust="spacing" textLength="31.9102" x="91.92" y="606.4951">User</text></g><!--entity Admin--><g id="elem_Admin"><ellipse cx="342.9021" cy="542" fill="#F1F1F1" rx="8" ry="8" style="stroke:#181818;stroke-width:0.5;"/><path d="M342.9021,550 L342.9021,577 M329.9021,558 L355.9021,558 M342.9021,577 L329.9021,592 M342.9021,577 L355.9021,592 " fill="none" style="stroke:#181818;stroke-width:0.5;"/><text fill="#000000" font-family="sans-serif" font-size="14" lengthAdjust="spacing" textLength="44.8643" x="320.47" y="606.4951">Admin</text></g><!--entity Time--><g id="elem_Time"><ellipse cx="107.8762" cy="14" fill="#F1F1F1" rx="8" ry="8" style="stroke:#181818;stroke-width:0.5;"/><path d="M107.8762,22 L107.8762,49 M94.8762,30 L120.8762,30 M107.8762,49 L94.8762,64 M107.8762,49 L120.8762,64 " fill="none" style="stroke:#181818;stroke-width:0.5;"/><text fill="#000000" font-family="sans-serif" font-size="14" lengthAdjust="spacing" textLength="34.6924" x="90.53" y="78.4951">Time</text></g><!--reverse link User to Admin--><g id="link_User_Admin"><path d="M142.16,571.65 C182.46,571.65 273.68,571.65 320.32,571.65 " fill="none" id="User-backto-Admin" style="stroke:#181818;stroke-width:1.0;"/><polygon fill="none" points="124.16,571.65,142.16,577.65,142.16,565.65,124.16,571.65" style="stroke:#181818;stroke-width:1.0;"/></g><!--SRC=[ZP5DJiCm44RtFiKe-qga_6-GghHYYoWzm60FPKHZLnwx6-YfE08NmqaKK9eOOSdIw9ldiP-yevS0mO7dxMi0mvvqO6ULGXsSXs8Zv0j0WQRemuMfsRPfM_Nn4zVKfasXsXRCukpZhZkir1xr6su9YZLBe1hXdYJmrwS5Guc9wDb90UyAqef26YN1bIVqVRjxIxKfXymYlVemfkP3QXrbJzRGY3iVSe-4q_CkXjoI90DUgkDVkWy-qZFcLBjkF-hg175MuYwCiEjJXGDBWbOIqAJhMJVNTUXDrc8uydPI8drLXIdba7QIoKZyCix-VDfPpcMIBl-lLCxLyHi0]--></g></svg>