<svg xmlns="http://www.w3.org/2000/svg" xmlns:xlink="http://www.w3.org/1999/xlink" contentStyleType="text/css" data-diagram-type="STATE" height="463px" preserveAspectRatio="none" style="width:1855px;height:463px;background:#FFFFFF;" version="1.1" viewBox="0 0 1855 463" width="1855px" zoomAndPan="magnify"><defs/><g><g id="NoAuth"><rect fill="#F1F1F1" height="50" rx="12.5" ry="12.5" style="stroke:#181818;stroke-width:0.5;" width="150.0195" x="967.12" y="87"/><line style="stroke:#181818;stroke-width:0.5;" x1="967.12" x2="1117.1395" y1="113.2969" y2="113.2969"/><text fill="#000000" font-family="sans-serif" font-size="14" lengthAdjust="spacing" textLength="130.0195" x="977.12" y="104.9951">NO_AUTENTICADO</text></g><g id="Menu"><rect fill="#F1F1F1" height="50" rx="12.5" ry="12.5" style="stroke:#181818;stroke-width:0.5;" width="141.1396" x="971.56" y="232"/><line style="stroke:#181818;stroke-width:0.5;" x1="971.56" x2="1112.6996" y1="258.2969" y2="258.2969"/><text fill="#000000" font-family="sans-serif" font-size="14" lengthAdjust="spacing" textLength="121.1396" x="981.56" y="249.9951">MENU_PRINCIPAL</text></g><g id="Acad"><rect fill="#F1F1F1" height="50" rx="12.5" ry="12.5" style="stroke:#181818;stroke-width:0.5;" width="170.2607" x="7" y="407"/><line style="stroke:#181818;stroke-width:0.5;" x1="7" x2="177.2607" y1="433.2969" y2="433.2969"/><text fill="#000000" font-family="sans-serif" font-size="14" lengthAdjust="spacing" textLength="150.2607" x="17" y="424.9951">DATOS_ACADEMICOS</text></g><g id="Pers"><rect fill="#F1F1F1" height="50" rx="12.5" ry="12.5" style="stroke:#181818;stroke-width:0.5;" width="170.0625" x="454.1" y="407"/><line style="stroke:#181818;stroke-width:0.5;" x1="454.1" x2="624.1625" y1="433.2969" y2="433.2969"/><text fill="#000000" font-family="sans-serif" font-size="14" lengthAdjust="spacing" textLength="150.0625" x="464.1" y="424.9951">PERSONAL_DOCENTE</text></g><g id="Lab"><rect fill="#F1F1F1" height="50" rx="12.5" ry="12.5" style="stroke:#181818;stroke-width:0.5;" width="158.6533" x="978.8" y="407"/><line style="stroke:#181818;stroke-width:0.5;" x1="978.8" x2="1137.4533" y1="433.2969" y2="433.2969"/><text fill="#000000" font-family="sans-serif" font-size="14" lengthAdjust="spacing" textLength="138.6533" x="988.8" y="424.9951">DATOS_LABORALES</text></g><g id="Cons"><rect fill="#F1F1F1" height="50" rx="12.5" ry="12.5" style="stroke:#181818;stroke-width:0.5;" width="201.8154" x="1203.22" y="407"/><line style="stroke:#181818;stroke-width:0.5;" x1="1203.22" x2="1405.0354" y1="433.2969" y2="433.2969"/><text fill="#000000" font-family="sans-serif" font-size="14" lengthAdjust="spacing" textLength="181.8154" x="1213.22" y="424.9951">CONSULTAS_Y_REPORTES</text></g><g id="Asig"><rect fill="#F1F1F1" height="50" rx="12.5" ry="12.5" style="stroke:#181818;stroke-width:0.5;" width="126.6201" x="1710.82" y="407"/><line style="stroke:#181818;stroke-width:0.5;" x1="1710.82" x2="1837.4401" y1="433.2969" y2="433.2969"/><text fill="#000000" font-family="sans-serif" font-size="14" lengthAdjust="spacing" textLength="106.6201" x="1720.82" y="424.9951">ASIGNACIONES</text></g><ellipse cx="1042.13" cy="16" fill="#222222" rx="10" ry="10" style="stroke:#222222;stroke-width:1;"/><!--link *start* to NoAuth--><g id="link_*start*_NoAuth"><path d="M1042.13,26.36 C1042.13,40.29 1042.13,60.95 1042.13,80.65 " fill="#FFFFFF" fill-opacity="0.00000" id="*start*-to-NoAuth" style="stroke:#181818;stroke-width:1;"/><polygon fill="#181818" points="1042.13,86.65,1046.13,77.65,1042.13,81.65,1038.13,77.65,1042.13,86.65" style="stroke:#181818;stroke-width:1;"/></g><!--link NoAuth to Menu--><g id="link_NoAuth_Menu"><path d="M1042.13,137.26 C1042.13,163.55 1042.13,199.28 1042.13,225.62 " fill="#FFFFFF" fill-opacity="0.00000" id="NoAuth-to-Menu" style="stroke:#181818;stroke-width:1;"/><polygon fill="#181818" points="1042.13,231.62,1046.13,222.62,1042.13,226.62,1038.13,222.62,1042.13,231.62" style="stroke:#181818;stroke-width:1;"/><path d="M1047.13,172 L1047.13,197 L1153.13,197 L1153.13,182 L1143.13,172 L1047.13,172 " fill="#FEFFDD" style="stroke:#181818;stroke-width:0.5;"/><path d="M1143.13,172 L1143.13,182 L1153.13,182 L1143.13,172 " fill="#FEFFDD" style="stroke:#181818;stroke-width:0.5;"/><text fill="#000000" font-family="sans-serif" font-size="13" lengthAdjust="spacing" textLength="85.2363" x="1053.13" y="189.0669">Iniciar sesi&#243;n</text></g><!--link Menu to Acad--><g id="link_Menu_Acad"><path d="M971.34,257.12 C850.77,257.12 598.57,263.61 392.13,312 C299.94,333.61 204.1341,375.9432 145.9841,403.9932 " fill="#FFFFFF" fill-opacity="0.00000" id="Menu-to-Acad" style="stroke:#181818;stroke-width:1;"/><polygon fill="#181818" points="140.58,406.6,150.4241,406.2925,145.0834,404.4277,146.9483,399.087,140.58,406.6" style="stroke:#181818;stroke-width:1;"/><path d="M397.13,332 L397.13,357 L638.13,357 L638.13,342 L628.13,332 L397.13,332 " fill="#FEFFDD" style="stroke:#181818;stroke-width:0.5;"/><path d="M628.13,332 L628.13,342 L638.13,342 L628.13,332 " fill="#FEFFDD" style="stroke:#181818;stroke-width:0.5;"/><text fill="#000000" font-family="sans-serif" font-size="13" lengthAdjust="spacing" textLength="220.7207" x="403.13" y="349.0669">Consultar Asignaci&#243;n por Profesor</text></g><!--link Menu to Pers--><g id="link_Menu_Pers"><path d="M971.3,270.12 C923.2,279.29 858.5,293.48 803.13,312 C724.46,338.32 642.8766,377.4272 591.0166,403.8372 " fill="#FFFFFF" fill-opacity="0.00000" id="Menu-to-Pers" style="stroke:#181818;stroke-width:1;"/><polygon fill="#181818" points="585.67,406.56,595.5051,406.0402,590.1255,404.291,591.8747,398.9114,585.67,406.56" style="stroke:#181818;stroke-width:1;"/><path d="M808.13,317 L808.13,372 L1023.13,372 L1023.13,327 L1013.13,317 L808.13,317 " fill="#FEFFDD" style="stroke:#181818;stroke-width:0.5;"/><path d="M1013.13,317 L1013.13,327 L1023.13,327 L1013.13,317 " fill="#FEFFDD" style="stroke:#181818;stroke-width:0.5;"/><text fill="#000000" font-family="sans-serif" font-size="13" lengthAdjust="spacing" textLength="179.0737" x="814.13" y="334.0669">Consultar Claustro Docente</text><text fill="#000000" font-family="sans-serif" font-size="13" lengthAdjust="spacing" textLength="150.395" x="814.13" y="349.1997">Asignar Carga Docente</text><text fill="#000000" font-family="sans-serif" font-size="13" lengthAdjust="spacing" textLength="194.2891" x="814.13" y="364.3325">Asignar Informaci&#243;n SIIU/DGU</text></g><!--link Menu to Lab--><g id="link_Menu_Lab"><path d="M1038.78,282.36 C1036.1,306.55 1033.6,344.61 1039.13,377 C1040.84,386.99 1042.0919,391.9725 1045.5219,401.1125 " fill="#FFFFFF" fill-opacity="0.00000" id="Menu-to-Lab" style="stroke:#181818;stroke-width:1;"/><polygon fill="#181818" points="1047.63,406.73,1048.2128,396.8984,1045.8733,402.0488,1040.7229,399.7092,1047.63,406.73" style="stroke:#181818;stroke-width:1;"/><path d="M1044.13,324.5 L1044.13,364.5 L1272.13,364.5 L1272.13,334.5 L1262.13,324.5 L1044.13,324.5 " fill="#FEFFDD" style="stroke:#181818;stroke-width:0.5;"/><path d="M1262.13,324.5 L1262.13,334.5 L1272.13,334.5 L1262.13,324.5 " fill="#FEFFDD" style="stroke:#181818;stroke-width:0.5;"/><text fill="#000000" font-family="sans-serif" font-size="13" lengthAdjust="spacing" textLength="172.2373" x="1050.13" y="341.5669">Introducir Datos Laborales</text><text fill="#000000" font-family="sans-serif" font-size="13" lengthAdjust="spacing" textLength="207.6953" x="1050.13" y="356.6997">Modificar Datos del Profesorado</text></g><!--link Menu to Cons--><g id="link_Menu_Cons"><path d="M1113.07,265.45 C1174.88,273.43 1258.11,288.25 1281.13,312 C1305.44,337.08 1308.1757,373.6768 1306.8957,400.5268 " fill="#FFFFFF" fill-opacity="0.00000" id="Menu-to-Cons" style="stroke:#181818;stroke-width:1;"/><polygon fill="#181818" points="1306.61,406.52,1311.034,397.7207,1306.8481,401.5257,1303.0431,397.3397,1306.61,406.52" style="stroke:#181818;stroke-width:1;"/><path d="M1310.13,332 L1310.13,357 L1424.13,357 L1424.13,342 L1414.13,332 L1310.13,332 " fill="#FEFFDD" style="stroke:#181818;stroke-width:0.5;"/><path d="M1414.13,332 L1414.13,342 L1424.13,342 L1414.13,332 " fill="#FEFFDD" style="stroke:#181818;stroke-width:0.5;"/><text fill="#000000" font-family="sans-serif" font-size="13" lengthAdjust="spacing" textLength="93.2852" x="1316.13" y="349.0669">Emitir Informe</text></g><!--link Menu to Asig--><g id="link_Menu_Asig"><path d="M1112.86,263.3 C1192.53,270.28 1325.46,284.95 1437.13,312 C1537.69,336.36 1644.6769,377.1976 1710.9269,404.3076 " fill="#FFFFFF" fill-opacity="0.00000" id="Menu-to-Asig" style="stroke:#181818;stroke-width:1;"/><polygon fill="#181818" points="1716.48,406.58,1709.6653,399.4694,1711.8525,404.6864,1706.6355,406.8735,1716.48,406.58" style="stroke:#181818;stroke-width:1;"/><path d="M1644.13,332 L1644.13,357 L1848.13,357 L1848.13,342 L1838.13,332 L1644.13,332 " fill="#FEFFDD" style="stroke:#181818;stroke-width:0.5;"/><path d="M1838.13,332 L1838.13,342 L1848.13,342 L1838.13,332 " fill="#FEFFDD" style="stroke:#181818;stroke-width:0.5;"/><text fill="#000000" font-family="sans-serif" font-size="13" lengthAdjust="spacing" textLength="183.0093" x="1650.13" y="349.0669">Asignar Valores en Memoria</text></g><!--link Acad to Acad--><g id="link_Acad_Acad"><path d="M177.7,415.94 C197.61,417.29 212.26,422.64 212.26,432 C212.26,441.36 203.5963,446.3041 183.6863,447.6541 " fill="#FFFFFF" fill-opacity="0.00000" id="Acad-to-Acad" style="stroke:#181818;stroke-width:1;"/><polygon fill="#181818" points="177.7,448.06,186.95,451.442,182.6885,447.7218,186.4088,443.4603,177.7,448.06" style="stroke:#181818;stroke-width:1;"/><path d="M217.26,419.5 L217.26,444.5 L431.26,444.5 L431.26,429.5 L421.26,419.5 L217.26,419.5 " fill="#FEFFDD" style="stroke:#181818;stroke-width:0.5;"/><path d="M421.26,419.5 L421.26,429.5 L431.26,429.5 L421.26,419.5 " fill="#FEFFDD" style="stroke:#181818;stroke-width:0.5;"/><text fill="#000000" font-family="sans-serif" font-size="13" lengthAdjust="spacing" textLength="193.6606" x="223.26" y="436.5669">Validar Datos del Profesorado</text></g><!--link Cons to Cons--><g id="link_Cons_Cons"><path d="M1405.48,416.27 C1425.65,418.04 1440.04,423.28 1440.04,432 C1440.04,440.72 1431.627,445.4355 1411.457,447.2055 " fill="#FFFFFF" fill-opacity="0.00000" id="Cons-to-Cons" style="stroke:#181818;stroke-width:1;"/><polygon fill="#181818" points="1405.48,447.73,1414.7952,450.9279,1410.4609,447.2929,1414.0959,442.9585,1405.48,447.73" style="stroke:#181818;stroke-width:1;"/><path d="M1445.04,412 L1445.04,452 L1688.04,452 L1688.04,422 L1678.04,412 L1445.04,412 " fill="#FEFFDD" style="stroke:#181818;stroke-width:0.5;"/><path d="M1678.04,412 L1678.04,422 L1688.04,422 L1678.04,412 " fill="#FEFFDD" style="stroke:#181818;stroke-width:0.5;"/><text fill="#000000" font-family="sans-serif" font-size="13" lengthAdjust="spacing" textLength="222.0664" x="1451.04" y="429.0669">Validar Cumplimiento de Memoria</text><text fill="#000000" font-family="sans-serif" font-size="13" lengthAdjust="spacing" textLength="132.666" x="1451.04" y="444.1997">Obtener Indicadores</text></g><!--link Pers to Pers--><g id="link_Pers_Pers"><path d="M624.63,415.94 C644.52,417.29 659.16,422.64 659.16,432 C659.16,441.36 650.5062,446.3037 630.6162,447.6537 " fill="#FFFFFF" fill-opacity="0.00000" id="Pers-to-Pers" style="stroke:#181818;stroke-width:1;"/><polygon fill="#181818" points="624.63,448.06,633.8802,451.4414,629.6185,447.7214,633.3385,443.4597,624.63,448.06" style="stroke:#181818;stroke-width:1;"/><path d="M664.16,419.5 L664.16,444.5 L956.16,444.5 L956.16,429.5 L946.16,419.5 L664.16,419.5 " fill="#FEFFDD" style="stroke:#181818;stroke-width:0.5;"/><path d="M946.16,419.5 L946.16,429.5 L956.16,429.5 L946.16,419.5 " fill="#FEFFDD" style="stroke:#181818;stroke-width:0.5;"/><text fill="#000000" font-family="sans-serif" font-size="13" lengthAdjust="spacing" textLength="271.6479" x="670.16" y="436.5669">Revisar Profesores con Carga no ajustada</text></g><!--SRC=[ZP9TQjqm48NVlGgHnqBe3WggR8B0LpB-APHGpCJIJPJQcY3PtLYNq8r5agzlkG47wyKW7Nypvypu6MPDxeJiQTSMekMCvlAEW2S2wJA_P7uLd0hHzLND1UCLBPFWfEsoFUUqbKrFmy_5YJFP904TG6s2ggWRAMZPvvA5CaKILDhvMq99lykQbiKAAE5fUsPID5tPqgR_sTT59Ulsec5ehmpQy0T16PVYyaYzUSwono-_oFtzjyrHjdxJLV90mh4O06Z9QEplT14FjsOmu8ZNtlpxQzEzjYg9iop-co39vouaDhYCSy34RYmC4KNUq97AuLbxT7lS5Cy1BXjXyRD3akEWRK1iahLW481xXjrNRi_efajV3UVTr_oXs-ifZkIJl48NQXcC8pdCc0Q83aRjhv8JAdCs0smAfSTh3g1mhsoQycxTOZApsOpetJ75PTXbR6dyW16TzW4GbcD2P-03BqxxmDW3nwY3DgEx0pOt95kcjz5C9amJ0_ccptZaqwojZdceaBIATZuKZ9jrOCLg_STu-B-e8POXQDPriaZWDUmTgDk4tW40]--></g></svg>