<svg xmlns="http://www.w3.org/2000/svg" xmlns:xlink="http://www.w3.org/1999/xlink" contentStyleType="text/css" data-diagram-type="STATE" height="463px" preserveAspectRatio="none" style="width:1836px;height:463px;background:#FFFFFF;" version="1.1" viewBox="0 0 1836 463" width="1836px" zoomAndPan="magnify"><defs/><g><g id="NoAuth"><rect fill="#F1F1F1" height="50" rx="12.5" ry="12.5" style="stroke:#181818;stroke-width:0.5;" width="150.0195" x="976.12" y="87"/><line style="stroke:#181818;stroke-width:0.5;" x1="976.12" x2="1126.1395" y1="113.2969" y2="113.2969"/><text fill="#000000" font-family="sans-serif" font-size="14" lengthAdjust="spacing" textLength="130.0195" x="986.12" y="104.9951">NO_AUTENTICADO</text></g><g id="Menu"><rect fill="#F1F1F1" height="50" rx="12.5" ry="12.5" style="stroke:#181818;stroke-width:0.5;" width="141.1396" x="980.56" y="232"/><line style="stroke:#181818;stroke-width:0.5;" x1="980.56" x2="1121.6996" y1="258.2969" y2="258.2969"/><text fill="#000000" font-family="sans-serif" font-size="14" lengthAdjust="spacing" textLength="121.1396" x="990.56" y="249.9951">MENU_PRINCIPAL</text></g><g id="Acad"><rect fill="#F1F1F1" height="50" rx="12.5" ry="12.5" style="stroke:#181818;stroke-width:0.5;" width="170.2607" x="7" y="407"/><line style="stroke:#181818;stroke-width:0.5;" x1="7" x2="177.2607" y1="433.2969" y2="433.2969"/><text fill="#000000" font-family="sans-serif" font-size="14" lengthAdjust="spacing" textLength="150.2607" x="17" y="424.9951">DATOS_ACADEMICOS</text></g><g id="Pers"><rect fill="#F1F1F1" height="50" rx="12.5" ry="12.5" style="stroke:#181818;stroke-width:0.5;" width="170.0625" x="454.1" y="407"/><line style="stroke:#181818;stroke-width:0.5;" x1="454.1" x2="624.1625" y1="433.2969" y2="433.2969"/><text fill="#000000" font-family="sans-serif" font-size="14" lengthAdjust="spacing" textLength="150.0625" x="464.1" y="424.9951">PERSONAL_DOCENTE</text></g><g id="Lab"><rect fill="#F1F1F1" height="50" rx="12.5" ry="12.5" style="stroke:#181818;stroke-width:0.5;" width="158.6533" x="978.8" y="407"/><line style="stroke:#181818;stroke-width:0.5;" x1="978.8" x2="1137.4533" y1="433.2969" y2="433.2969"/><text fill="#000000" font-family="sans-serif" font-size="14" lengthAdjust="spacing" textLength="138.6533" x="988.8" y="424.9951">DATOS_LABORALES</text></g><g id="Cons"><rect fill="#F1F1F1" height="50" rx="12.5" ry="12.5" style="stroke:#181818;stroke-width:0.5;" width="201.8154" x="1186.22" y="407"/><line style="stroke:#181818;stroke-width:0.5;" x1="1186.22" x2="1388.0354" y1="433.2969" y2="433.2969"/><text fill="#000000" font-family="sans-serif" font-size="14" lengthAdjust="spacing" textLength="181.8154" x="1196.22" y="424.9951">CONSULTAS_Y_REPORTES</text></g><g id="Asig"><rect fill="#F1F1F1" height="50" rx="12.5" ry="12.5" style="stroke:#181818;stroke-width:0.5;" width="126.6201" x="1693.82" y="407"/><line style="stroke:#181818;stroke-width:0.5;" x1="1693.82" x2="1820.4401" y1="433.2969" y2="433.2969"/><text fill="#000000" font-family="sans-serif" font-size="14" lengthAdjust="spacing" textLength="106.6201" x="1703.82" y="424.9951">ASIGNACIONES</text></g><ellipse cx="1051.13" cy="16" fill="#222222" rx="10" ry="10" style="stroke:#222222;stroke-width:1;"/><!--link *start* to NoAuth--><g id="link_*start*_NoAuth"><path d="M1051.13,26.36 C1051.13,40.29 1051.13,60.95 1051.13,80.65 " fill="#FFFFFF" fill-opacity="0.00000" id="*start*-to-NoAuth" style="stroke:#181818;stroke-width:1;"/><polygon fill="#181818" points="1051.13,86.65,1055.13,77.65,1051.13,81.65,1047.13,77.65,1051.13,86.65" style="stroke:#181818;stroke-width:1;"/></g><!--link NoAuth to Menu--><g id="link_NoAuth_Menu"><path d="M1051.13,137.26 C1051.13,163.55 1051.13,199.28 1051.13,225.62 " fill="#FFFFFF" fill-opacity="0.00000" id="NoAuth-to-Menu" style="stroke:#181818;stroke-width:1;"/><polygon fill="#181818" points="1051.13,231.62,1055.13,222.62,1051.13,226.62,1047.13,222.62,1051.13,231.62" style="stroke:#181818;stroke-width:1;"/><path d="M1056.13,172 L1056.13,197 L1162.13,197 L1162.13,182 L1152.13,172 L1056.13,172 " fill="#FEFFDD" style="stroke:#181818;stroke-width:0.5;"/><path d="M1152.13,172 L1152.13,182 L1162.13,182 L1152.13,172 " fill="#FEFFDD" style="stroke:#181818;stroke-width:0.5;"/><text fill="#000000" font-family="sans-serif" font-size="13" lengthAdjust="spacing" textLength="85.2363" x="1062.13" y="189.0669">Iniciar sesi&#243;n</text></g><!--link Menu to Acad--><g id="link_Menu_Acad"><path d="M980.42,257.2 C859.34,257.28 605.26,263.89 397.13,312 C303.54,333.64 206.0218,376.0002 146.8618,404.0402 " fill="#FFFFFF" fill-opacity="0.00000" id="Menu-to-Acad" style="stroke:#181818;stroke-width:1;"/><polygon fill="#181818" points="141.44,406.61,151.2859,406.3699,145.9582,404.4685,147.8596,399.1408,141.44,406.61" style="stroke:#181818;stroke-width:1;"/><path d="M402.13,324.5 L402.13,364.5 L643.13,364.5 L643.13,334.5 L633.13,324.5 L402.13,324.5 " fill="#FEFFDD" style="stroke:#181818;stroke-width:0.5;"/><path d="M633.13,324.5 L633.13,334.5 L643.13,334.5 L633.13,324.5 " fill="#FEFFDD" style="stroke:#181818;stroke-width:0.5;"/><text fill="#000000" font-family="sans-serif" font-size="13" lengthAdjust="spacing" textLength="220.7207" x="408.13" y="341.5669">Consultar Asignaci&#243;n por Profesor</text><text fill="#000000" font-family="sans-serif" font-size="13" lengthAdjust="spacing" textLength="207.6953" x="408.13" y="356.6997">Modificar Datos del Profesorado</text></g><!--link Menu to Pers--><g id="link_Menu_Pers"><path d="M980.21,270.6 C932.62,279.92 868.88,294.09 814.13,312 C732.55,338.69 647.2873,377.7891 593.1473,404.0791 " fill="#FFFFFF" fill-opacity="0.00000" id="Menu-to-Pers" style="stroke:#181818;stroke-width:1;"/><polygon fill="#181818" points="587.75,406.7,597.5932,406.3669,592.2478,404.5159,594.0987,399.1705,587.75,406.7" style="stroke:#181818;stroke-width:1;"/><path d="M819.13,317 L819.13,372 L1034.13,372 L1034.13,327 L1024.13,317 L819.13,317 " fill="#FEFFDD" style="stroke:#181818;stroke-width:0.5;"/><path d="M1024.13,317 L1024.13,327 L1034.13,327 L1024.13,317 " fill="#FEFFDD" style="stroke:#181818;stroke-width:0.5;"/><text fill="#000000" font-family="sans-serif" font-size="13" lengthAdjust="spacing" textLength="179.0737" x="825.13" y="334.0669">Consultar Claustro Docente</text><text fill="#000000" font-family="sans-serif" font-size="13" lengthAdjust="spacing" textLength="150.395" x="825.13" y="349.1997">Asignar Carga Docente</text><text fill="#000000" font-family="sans-serif" font-size="13" lengthAdjust="spacing" textLength="194.2891" x="825.13" y="364.3325">Asignar Informaci&#243;n SIIU/DGU</text></g><!--link Menu to Lab--><g id="link_Menu_Lab"><path d="M1048.87,282.21 C1047.01,306.3 1045.13,344.28 1048.13,377 C1049.03,386.78 1049.6543,391.5443 1051.4843,400.7843 " fill="#FFFFFF" fill-opacity="0.00000" id="Menu-to-Lab" style="stroke:#181818;stroke-width:1;"/><polygon fill="#181818" points="1052.65,406.67,1054.8253,397.0644,1051.6786,401.7653,1046.9777,398.6186,1052.65,406.67" style="stroke:#181818;stroke-width:1;"/><path d="M1053.13,332 L1053.13,357 L1246.13,357 L1246.13,342 L1236.13,332 L1053.13,332 " fill="#FEFFDD" style="stroke:#181818;stroke-width:0.5;"/><path d="M1236.13,332 L1236.13,342 L1246.13,342 L1236.13,332 " fill="#FEFFDD" style="stroke:#181818;stroke-width:0.5;"/><text fill="#000000" font-family="sans-serif" font-size="13" lengthAdjust="spacing" textLength="172.2373" x="1059.13" y="349.0669">Introducir Datos Laborales</text></g><!--link Menu to Cons--><g id="link_Menu_Cons"><path d="M1121.78,259.45 C1165.68,264.08 1220.22,277.22 1255.13,312 C1280.29,337.06 1286.0344,373.665 1287.1344,400.515 " fill="#FFFFFF" fill-opacity="0.00000" id="Menu-to-Cons" style="stroke:#181818;stroke-width:1;"/><polygon fill="#181818" points="1287.38,406.51,1291.0082,397.3538,1287.1753,401.5142,1283.0149,397.6813,1287.38,406.51" style="stroke:#181818;stroke-width:1;"/><path d="M1289.13,332 L1289.13,357 L1403.13,357 L1403.13,342 L1393.13,332 L1289.13,332 " fill="#FEFFDD" style="stroke:#181818;stroke-width:0.5;"/><path d="M1393.13,332 L1393.13,342 L1403.13,342 L1393.13,332 " fill="#FEFFDD" style="stroke:#181818;stroke-width:0.5;"/><text fill="#000000" font-family="sans-serif" font-size="13" lengthAdjust="spacing" textLength="93.2852" x="1295.13" y="349.0669">Emitir Informe</text></g><!--link Menu to Asig--><g id="link_Menu_Asig"><path d="M1121.87,264.46 C1195.97,272.16 1315.36,287.2 1416.13,312 C1517.35,336.91 1625.3502,377.4189 1692.5302,404.3289 " fill="#FFFFFF" fill-opacity="0.00000" id="Menu-to-Asig" style="stroke:#181818;stroke-width:1;"/><polygon fill="#181818" points="1698.1,406.56,1691.2327,399.5002,1693.4585,404.7008,1688.258,406.9266,1698.1,406.56" style="stroke:#181818;stroke-width:1;"/><path d="M1625.13,332 L1625.13,357 L1829.13,357 L1829.13,342 L1819.13,332 L1625.13,332 " fill="#FEFFDD" style="stroke:#181818;stroke-width:0.5;"/><path d="M1819.13,332 L1819.13,342 L1829.13,342 L1819.13,332 " fill="#FEFFDD" style="stroke:#181818;stroke-width:0.5;"/><text fill="#000000" font-family="sans-serif" font-size="13" lengthAdjust="spacing" textLength="183.0093" x="1631.13" y="349.0669">Asignar Valores en Memoria</text></g><!--link Acad to Acad--><g id="link_Acad_Acad"><path d="M177.7,415.94 C197.61,417.29 212.26,422.64 212.26,432 C212.26,441.36 203.5963,446.3041 183.6863,447.6541 " fill="#FFFFFF" fill-opacity="0.00000" id="Acad-to-Acad" style="stroke:#181818;stroke-width:1;"/><polygon fill="#181818" points="177.7,448.06,186.95,451.442,182.6885,447.7218,186.4088,443.4603,177.7,448.06" style="stroke:#181818;stroke-width:1;"/><path d="M217.26,419.5 L217.26,444.5 L431.26,444.5 L431.26,429.5 L421.26,419.5 L217.26,419.5 " fill="#FEFFDD" style="stroke:#181818;stroke-width:0.5;"/><path d="M421.26,419.5 L421.26,429.5 L431.26,429.5 L421.26,419.5 " fill="#FEFFDD" style="stroke:#181818;stroke-width:0.5;"/><text fill="#000000" font-family="sans-serif" font-size="13" lengthAdjust="spacing" textLength="193.6606" x="223.26" y="436.5669">Validar Datos del Profesorado</text></g><!--link Cons to Cons--><g id="link_Cons_Cons"><path d="M1388.48,416.27 C1408.65,418.04 1423.04,423.28 1423.04,432 C1423.04,440.72 1414.627,445.4355 1394.457,447.2055 " fill="#FFFFFF" fill-opacity="0.00000" id="Cons-to-Cons" style="stroke:#181818;stroke-width:1;"/><polygon fill="#181818" points="1388.48,447.73,1397.7952,450.9279,1393.4609,447.2929,1397.0959,442.9585,1388.48,447.73" style="stroke:#181818;stroke-width:1;"/><path d="M1428.04,412 L1428.04,452 L1671.04,452 L1671.04,422 L1661.04,412 L1428.04,412 " fill="#FEFFDD" style="stroke:#181818;stroke-width:0.5;"/><path d="M1661.04,412 L1661.04,422 L1671.04,422 L1661.04,412 " fill="#FEFFDD" style="stroke:#181818;stroke-width:0.5;"/><text fill="#000000" font-family="sans-serif" font-size="13" lengthAdjust="spacing" textLength="222.0664" x="1434.04" y="429.0669">Validar Cumplimiento de Memoria</text><text fill="#000000" font-family="sans-serif" font-size="13" lengthAdjust="spacing" textLength="132.666" x="1434.04" y="444.1997">Obtener Indicadores</text></g><!--link Pers to Pers--><g id="link_Pers_Pers"><path d="M624.63,415.94 C644.52,417.29 659.16,422.64 659.16,432 C659.16,441.36 650.5062,446.3037 630.6162,447.6537 " fill="#FFFFFF" fill-opacity="0.00000" id="Pers-to-Pers" style="stroke:#181818;stroke-width:1;"/><polygon fill="#181818" points="624.63,448.06,633.8802,451.4414,629.6185,447.7214,633.3385,443.4597,624.63,448.06" style="stroke:#181818;stroke-width:1;"/><path d="M664.16,419.5 L664.16,444.5 L956.16,444.5 L956.16,429.5 L946.16,419.5 L664.16,419.5 " fill="#FEFFDD" style="stroke:#181818;stroke-width:0.5;"/><path d="M946.16,419.5 L946.16,429.5 L956.16,429.5 L946.16,419.5 " fill="#FEFFDD" style="stroke:#181818;stroke-width:0.5;"/><text fill="#000000" font-family="sans-serif" font-size="13" lengthAdjust="spacing" textLength="271.6479" x="670.16" y="436.5669">Revisar Profesores con Carga no ajustada</text></g><!--SRC=[ZL9RQjmm5FttAaG-0w4xA2Yo2GAFPFm8b5ACOcbIDRPkaEniB4lendebZoSfOuRun-1x7lVSup2hsP0R8NlQjOLeEQEvl24g405qcNzdOGKS2j7rLSq5unKj4-1WtBADSzhAfgT8BWwSoIO1wA3q1gYAkf62bdqk6TeK2L0P7_vNAEczh6bPh0AbUjh6J8gcArlQz3_wkgXatPum3DnPWpRyGL36fJWDQR3FMVRpzXUvk_k-9ShMT_gKCZX0CZWoMlUI4NouiuDLdWGJxDztbncdIGHbMSGdOifsGOpBBEECrEZir13fv1KygJmSJG2VO0VGzcW7XELgXa2q6Sy0fM7FBvtgYXyRrH9c3oI7mJYanl6w10wLVrQx4-wEuAVJdWtdtRVyeTlpZrNit0aTzJBOBGYYCC5emfv4Qkf2evZiRBT5pEwfOuaNl2t1enh1cq2Cmp8dy5PzqeWjNQaBkLP_eOMu-PK8cmnRfjVHJXQl3AXstYTYvDDid8avDHQluygV36AxLsgkpPiDwkCdmhW3pjTQ7H3r1xjN-YFvFm00]--></g></svg>