<svg xmlns="http://www.w3.org/2000/svg" xmlns:xlink="http://www.w3.org/1999/xlink" contentStyleType="text/css" data-diagram-type="STATE" height="448px" preserveAspectRatio="none" style="width:818px;height:448px;background:#FFFFFF;" version="1.1" viewBox="0 0 818 448" width="818px" zoomAndPan="magnify"><defs/><g><g id="NoAuth"><rect fill="#F1F1F1" height="50" rx="12.5" ry="12.5" style="stroke:#181818;stroke-width:0.5;" width="150.0195" x="290.43" y="87"/><line style="stroke:#181818;stroke-width:0.5;" x1="290.43" x2="440.4495" y1="113.2969" y2="113.2969"/><text fill="#000000" font-family="sans-serif" font-size="14" lengthAdjust="spacing" textLength="130.0195" x="300.43" y="104.9951">NO_AUTENTICADO</text></g><g id="Menu"><rect fill="#F1F1F1" height="50" rx="12.5" ry="12.5" style="stroke:#181818;stroke-width:0.5;" width="141.1396" x="294.87" y="232"/><line style="stroke:#181818;stroke-width:0.5;" x1="294.87" x2="436.0096" y1="258.2969" y2="258.2969"/><text fill="#000000" font-family="sans-serif" font-size="14" lengthAdjust="spacing" textLength="121.1396" x="304.87" y="249.9951">MENU_PRINCIPAL</text></g><g id="Dat"><rect fill="#F1F1F1" height="50" rx="12.5" ry="12.5" style="stroke:#181818;stroke-width:0.5;" width="138.5693" x="135.16" y="392"/><line style="stroke:#181818;stroke-width:0.5;" x1="135.16" x2="273.7293" y1="418.2969" y2="418.2969"/><text fill="#000000" font-family="sans-serif" font-size="14" lengthAdjust="spacing" textLength="118.5693" x="145.16" y="409.9951">GESTION_DATOS</text></g><g id="Inf"><rect fill="#F1F1F1" height="50" rx="12.5" ry="12.5" style="stroke:#181818;stroke-width:0.5;" width="230.4102" x="412.24" y="392"/><line style="stroke:#181818;stroke-width:0.5;" x1="412.24" x2="642.6502" y1="418.2969" y2="418.2969"/><text fill="#000000" font-family="sans-serif" font-size="14" lengthAdjust="spacing" textLength="210.4102" x="422.24" y="409.9951">CONSULTA_DE_INFORMACION</text></g><ellipse cx="365.44" cy="16" fill="#222222" rx="10" ry="10" style="stroke:#222222;stroke-width:1;"/><!--link *start* to NoAuth--><g id="link_*start*_NoAuth"><path d="M365.44,26.36 C365.44,40.29 365.44,60.95 365.44,80.65 " fill="#FFFFFF" fill-opacity="0.00000" id="*start*-to-NoAuth" style="stroke:#181818;stroke-width:1;"/><polygon fill="#181818" points="365.44,86.65,369.44,77.65,365.44,81.65,361.44,77.65,365.44,86.65" style="stroke:#181818;stroke-width:1;"/></g><!--link NoAuth to Menu--><g id="link_NoAuth_Menu"><path d="M312.69,137.28 C301.38,145.09 290.9,154.93 284.44,167 C277.1,180.72 277.1,188.29 284.44,202 C290.9,214.07 296.4428,220.5006 307.7528,228.3106 " fill="#FFFFFF" fill-opacity="0.00000" id="NoAuth-to-Menu" style="stroke:#181818;stroke-width:1;"/><polygon fill="#181818" points="312.69,231.72,307.5571,223.3145,308.5756,228.8789,303.0112,229.8975,312.69,231.72" style="stroke:#181818;stroke-width:1;"/><path d="M289.44,172 L289.44,197 L395.44,197 L395.44,182 L385.44,172 L289.44,172 " fill="#FEFFDD" style="stroke:#181818;stroke-width:0.5;"/><path d="M385.44,172 L385.44,182 L395.44,182 L385.44,172 " fill="#FEFFDD" style="stroke:#181818;stroke-width:0.5;"/><text fill="#000000" font-family="sans-serif" font-size="13" lengthAdjust="spacing" textLength="85.2363" x="295.44" y="189.0669">Iniciar sesi&#243;n</text></g><!--link Menu to NoAuth--><g id="link_Menu_NoAuth"><path d="M387.89,231.74 C394.56,223.01 400.99,212.67 404.44,202 C409.23,187.2 409.23,181.8 404.44,167 C400.99,156.33 398.2027,150.7577 391.5327,142.0277 " fill="#FFFFFF" fill-opacity="0.00000" id="Menu-to-NoAuth" style="stroke:#181818;stroke-width:1;"/><polygon fill="#181818" points="387.89,137.26,390.1755,146.84,390.9256,141.2331,396.5325,141.9831,387.89,137.26" style="stroke:#181818;stroke-width:1;"/><path d="M412.44,172 L412.44,197 L519.44,197 L519.44,182 L509.44,172 L412.44,172 " fill="#FEFFDD" style="stroke:#181818;stroke-width:0.5;"/><path d="M509.44,172 L509.44,182 L519.44,182 L509.44,172 " fill="#FEFFDD" style="stroke:#181818;stroke-width:0.5;"/><text fill="#000000" font-family="sans-serif" font-size="13" lengthAdjust="spacing" textLength="86.5566" x="418.44" y="189.0669">Cerrar sesi&#243;n</text></g><!--link Menu to Dat--><g id="link_Menu_Dat"><path d="M294.43,258.68 C203.91,261.23 54.98,271.64 20.44,312 C6,328.88 7.12,344.21 20.44,362 C34.51,380.79 83.0166,394.0828 129.0466,403.2928 " fill="#FFFFFF" fill-opacity="0.00000" id="Menu-to-Dat" style="stroke:#181818;stroke-width:1;"/><polygon fill="#181818" points="134.93,404.47,126.8897,398.782,130.0272,403.489,125.3201,406.6265,134.93,404.47" style="stroke:#181818;stroke-width:1;"/><path d="M25.44,324.5 L25.44,349.5 L233.44,349.5 L233.44,334.5 L223.44,324.5 L25.44,324.5 " fill="#FEFFDD" style="stroke:#181818;stroke-width:0.5;"/><path d="M223.44,324.5 L223.44,334.5 L233.44,334.5 L223.44,324.5 " fill="#FEFFDD" style="stroke:#181818;stroke-width:0.5;"/><text fill="#000000" font-family="sans-serif" font-size="13" lengthAdjust="spacing" textLength="187.5352" x="31.44" y="341.5669">Introducir Datos Acad&#233;micos</text></g><!--link Dat to Menu--><g id="link_Dat_Menu"><path d="M221.63,391.59 C242.94,361.38 276.68,313.65 278.44,312 C290.37,300.8 299.8309,293.7932 313.6209,285.4232 " fill="#FFFFFF" fill-opacity="0.00000" id="Dat-to-Menu" style="stroke:#181818;stroke-width:1;"/><polygon fill="#181818" points="318.75,282.31,308.9808,283.5604,314.4757,284.9043,313.1318,290.3992,318.75,282.31" style="stroke:#181818;stroke-width:1;"/><path d="M283.44,324.5 L283.44,349.5 L402.44,349.5 L402.44,334.5 L392.44,324.5 L283.44,324.5 " fill="#FEFFDD" style="stroke:#181818;stroke-width:0.5;"/><path d="M392.44,324.5 L392.44,334.5 L402.44,334.5 L392.44,324.5 " fill="#FEFFDD" style="stroke:#181818;stroke-width:0.5;"/><text fill="#000000" font-family="sans-serif" font-size="13" lengthAdjust="spacing" textLength="98.4775" x="289.44" y="341.5669">Volver al men&#250;</text></g><!--link Menu to Inf--><g id="link_Menu_Inf"><path d="M386.94,282.38 C394.82,291.53 403.69,302.11 411.44,312 C428.34,333.55 427.79,342.93 447.44,362 C458.75,372.97 467.5293,379.8596 480.4493,388.3696 " fill="#FFFFFF" fill-opacity="0.00000" id="Menu-to-Inf" style="stroke:#181818;stroke-width:1;"/><polygon fill="#181818" points="485.46,391.67,480.1442,383.3789,481.2844,388.9197,475.7436,390.0599,485.46,391.67" style="stroke:#181818;stroke-width:1;"/><path d="M452.44,317 L452.44,357 L668.44,357 L668.44,327 L658.44,317 L452.44,317 " fill="#FEFFDD" style="stroke:#181818;stroke-width:0.5;"/><path d="M658.44,317 L658.44,327 L668.44,327 L658.44,317 " fill="#FEFFDD" style="stroke:#181818;stroke-width:0.5;"/><text fill="#000000" font-family="sans-serif" font-size="13" lengthAdjust="spacing" textLength="195.6982" x="458.44" y="334.0669">Consultar Asignaci&#243;n Docente</text><text fill="#000000" font-family="sans-serif" font-size="13" lengthAdjust="spacing" textLength="178.8643" x="458.44" y="349.1997">Consultar Datos Personales</text></g><!--link Inf to Menu--><g id="link_Inf_Menu"><path d="M643.09,391.64 C656.56,384.22 668.61,374.57 677.44,362 C690.22,343.82 691.75,329 677.44,312 C647.26,276.15 524.8828,264.3946 442.4928,260.3446 " fill="#FFFFFF" fill-opacity="0.00000" id="Inf-to-Menu" style="stroke:#181818;stroke-width:1;"/><polygon fill="#181818" points="436.5,260.05,445.2928,264.4871,441.494,260.2955,445.6855,256.4967,436.5,260.05" style="stroke:#181818;stroke-width:1;"/><path d="M692.44,324.5 L692.44,349.5 L811.44,349.5 L811.44,334.5 L801.44,324.5 L692.44,324.5 " fill="#FEFFDD" style="stroke:#181818;stroke-width:0.5;"/><path d="M801.44,324.5 L801.44,334.5 L811.44,334.5 L801.44,324.5 " fill="#FEFFDD" style="stroke:#181818;stroke-width:0.5;"/><text fill="#000000" font-family="sans-serif" font-size="13" lengthAdjust="spacing" textLength="98.4775" x="698.44" y="341.5669">Volver al men&#250;</text></g><!--SRC=[dP31QiGW48RlFeNiiR2lK12J5c6ZOPFqKaeGOxVIx0Xg-auzzzPhNgngcXAsIm_rCk3___FDZ0yoQBpZeYTTM_AMKLA87POUSqkcy8ByOgXAtlNraN7AQdB8Xah3jChtPTComVk2jAB9QY73AbB1c-xGahueUyRlnB4YD9gpZS4pGeytJtY_lrsHQAdvAqF0nZOMy6ZW5U7u61XbfCDUUpD_0D8mu6H2AFbpCF4lSWo2iyEaZ4kgzPWeESplPwEilzOYpNRHWbhmqnWYcdXp0gaI7XTMQOZHhRuGQksy1JdgBI1AV-psOCStxR0SyLd3_Bd9nNd-bVjPwFk-lw9KEtVbcby0]--></g></svg>