<svg xmlns="http://www.w3.org/2000/svg" xmlns:xlink="http://www.w3.org/1999/xlink" contentStyleType="text/css" data-diagram-type="STATE" height="448px" preserveAspectRatio="none" style="width:1502px;height:448px;background:#FFFFFF;" version="1.1" viewBox="0 0 1502 448" width="1502px" zoomAndPan="magnify"><defs/><g><g id="NoAuth"><rect fill="#F1F1F1" height="50" rx="12.5" ry="12.5" style="stroke:#181818;stroke-width:0.5;" width="150.0195" x="666.27" y="87"/><line style="stroke:#181818;stroke-width:0.5;" x1="666.27" x2="816.2895" y1="113.2969" y2="113.2969"/><text fill="#000000" font-family="sans-serif" font-size="14" lengthAdjust="spacing" textLength="130.0195" x="676.27" y="104.9951">NO_AUTENTICADO</text></g><g id="Menu"><rect fill="#F1F1F1" height="50" rx="12.5" ry="12.5" style="stroke:#181818;stroke-width:0.5;" width="141.1396" x="670.71" y="232"/><line style="stroke:#181818;stroke-width:0.5;" x1="670.71" x2="811.8496" y1="258.2969" y2="258.2969"/><text fill="#000000" font-family="sans-serif" font-size="14" lengthAdjust="spacing" textLength="121.1396" x="680.71" y="249.9951">MENU_PRINCIPAL</text></g><g id="Car"><rect fill="#F1F1F1" height="50" rx="12.5" ry="12.5" style="stroke:#181818;stroke-width:0.5;" width="214.5508" x="7" y="392"/><line style="stroke:#181818;stroke-width:0.5;" x1="7" x2="221.5508" y1="418.2969" y2="418.2969"/><text fill="#000000" font-family="sans-serif" font-size="14" lengthAdjust="spacing" textLength="194.5508" x="17" y="409.9951">GESTION_CARGA_DOCENTE</text></g><g id="Dat"><rect fill="#F1F1F1" height="50" rx="12.5" ry="12.5" style="stroke:#181818;stroke-width:0.5;" width="138.5693" x="576.99" y="392"/><line style="stroke:#181818;stroke-width:0.5;" x1="576.99" x2="715.5593" y1="418.2969" y2="418.2969"/><text fill="#000000" font-family="sans-serif" font-size="14" lengthAdjust="spacing" textLength="118.5693" x="586.99" y="409.9951">GESTION_DATOS</text></g><g id="Val"><rect fill="#F1F1F1" height="50" rx="12.5" ry="12.5" style="stroke:#181818;stroke-width:0.5;" width="236.959" x="750.8" y="392"/><line style="stroke:#181818;stroke-width:0.5;" x1="750.8" x2="987.759" y1="418.2969" y2="418.2969"/><text fill="#000000" font-family="sans-serif" font-size="14" lengthAdjust="spacing" textLength="216.959" x="760.8" y="409.9951">VALIDACION_Y_CUMPLIMIENTO</text></g><g id="Inf"><rect fill="#F1F1F1" height="50" rx="12.5" ry="12.5" style="stroke:#181818;stroke-width:0.5;" width="230.4102" x="1265.07" y="392"/><line style="stroke:#181818;stroke-width:0.5;" x1="1265.07" x2="1495.4802" y1="418.2969" y2="418.2969"/><text fill="#000000" font-family="sans-serif" font-size="14" lengthAdjust="spacing" textLength="210.4102" x="1275.07" y="409.9951">CONSULTA_DE_INFORMACION</text></g><ellipse cx="741.28" cy="16" fill="#222222" rx="10" ry="10" style="stroke:#222222;stroke-width:1;"/><!--link *start* to NoAuth--><g id="link_*start*_NoAuth"><path d="M741.28,26.36 C741.28,40.29 741.28,60.95 741.28,80.65 " fill="#FFFFFF" fill-opacity="0.00000" id="*start*-to-NoAuth" style="stroke:#181818;stroke-width:1;"/><polygon fill="#181818" points="741.28,86.65,745.28,77.65,741.28,81.65,737.28,77.65,741.28,86.65" style="stroke:#181818;stroke-width:1;"/></g><!--link NoAuth to Menu--><g id="link_NoAuth_Menu"><path d="M688.53,137.28 C677.22,145.09 666.74,154.93 660.28,167 C652.94,180.72 652.94,188.29 660.28,202 C666.74,214.07 672.2828,220.5006 683.5928,228.3106 " fill="#FFFFFF" fill-opacity="0.00000" id="NoAuth-to-Menu" style="stroke:#181818;stroke-width:1;"/><polygon fill="#181818" points="688.53,231.72,683.3971,223.3145,684.4156,228.8789,678.8512,229.8975,688.53,231.72" style="stroke:#181818;stroke-width:1;"/><path d="M665.28,172 L665.28,197 L771.28,197 L771.28,182 L761.28,172 L665.28,172 " fill="#FEFFDD" style="stroke:#181818;stroke-width:0.5;"/><path d="M761.28,172 L761.28,182 L771.28,182 L761.28,172 " fill="#FEFFDD" style="stroke:#181818;stroke-width:0.5;"/><text fill="#000000" font-family="sans-serif" font-size="13" lengthAdjust="spacing" textLength="85.2363" x="671.28" y="189.0669">Iniciar sesi&#243;n</text></g><!--link Menu to NoAuth--><g id="link_Menu_NoAuth"><path d="M763.73,231.74 C770.39,223.01 776.82,212.67 780.28,202 C785.06,187.2 785.06,181.8 780.28,167 C776.82,156.33 774.0292,150.7603 767.3692,142.0303 " fill="#FFFFFF" fill-opacity="0.00000" id="Menu-to-NoAuth" style="stroke:#181818;stroke-width:1;"/><polygon fill="#181818" points="763.73,137.26,766.0086,146.8416,766.7627,141.2353,772.3691,141.9893,763.73,137.26" style="stroke:#181818;stroke-width:1;"/><path d="M789.28,172 L789.28,197 L896.28,197 L896.28,182 L886.28,172 L789.28,172 " fill="#FEFFDD" style="stroke:#181818;stroke-width:0.5;"/><path d="M886.28,172 L886.28,182 L896.28,182 L886.28,172 " fill="#FEFFDD" style="stroke:#181818;stroke-width:0.5;"/><text fill="#000000" font-family="sans-serif" font-size="13" lengthAdjust="spacing" textLength="86.5566" x="795.28" y="189.0669">Cerrar sesi&#243;n</text></g><!--link Menu to Car--><g id="link_Menu_Car"><path d="M670.36,260.79 C525.54,267.05 206.01,283.88 165.28,312 C138.46,330.51 126.6219,361.4208 120.4719,385.9008 " fill="#FFFFFF" fill-opacity="0.00000" id="Menu-to-Car" style="stroke:#181818;stroke-width:1;"/><polygon fill="#181818" points="119.01,391.72,125.0823,383.9659,120.2283,386.8707,117.3234,382.0166,119.01,391.72" style="stroke:#181818;stroke-width:1;"/></g><!--link Car to Menu--><g id="link_Car_Menu"><path d="M139.45,391.6 C168.63,363.89 215.49,321.32 237.28,312 C313.53,279.37 544.7553,265.7722 664.5453,260.7322 " fill="#FFFFFF" fill-opacity="0.00000" id="Car-to-Menu" style="stroke:#181818;stroke-width:1;"/><polygon fill="#181818" points="670.54,260.48,661.3798,256.8619,665.5444,260.6902,661.7161,264.8548,670.54,260.48" style="stroke:#181818;stroke-width:1;"/><path d="M242.28,324.5 L242.28,349.5 L361.28,349.5 L361.28,334.5 L351.28,324.5 L242.28,324.5 " fill="#FEFFDD" style="stroke:#181818;stroke-width:0.5;"/><path d="M351.28,324.5 L351.28,334.5 L361.28,334.5 L351.28,324.5 " fill="#FEFFDD" style="stroke:#181818;stroke-width:0.5;"/><text fill="#000000" font-family="sans-serif" font-size="13" lengthAdjust="spacing" textLength="98.4775" x="248.28" y="341.5669">Volver al men&#250;</text></g><!--link Menu to Dat--><g id="link_Menu_Dat"><path d="M670.6,258.24 C577.26,260.23 420.45,269.94 384.28,312 C369.78,328.85 369.95,345.01 384.28,362 C409.71,392.16 520.77,383.41 559.28,392 C564.93,393.26 564.9509,393.1978 570.8009,394.6678 " fill="#FFFFFF" fill-opacity="0.00000" id="Menu-to-Dat" style="stroke:#181818;stroke-width:1;"/><polygon fill="#181818" points="576.62,396.13,568.8662,390.0573,571.7708,394.9115,566.9165,397.816,576.62,396.13" style="stroke:#181818;stroke-width:1;"/><path d="M389.28,317 L389.28,357 L617.28,357 L617.28,327 L607.28,317 L389.28,317 " fill="#FEFFDD" style="stroke:#181818;stroke-width:0.5;"/><path d="M607.28,317 L607.28,327 L617.28,327 L607.28,317 " fill="#FEFFDD" style="stroke:#181818;stroke-width:0.5;"/><text fill="#000000" font-family="sans-serif" font-size="13" lengthAdjust="spacing" textLength="172.2373" x="395.28" y="334.0669">Introducir Datos Laborales</text><text fill="#000000" font-family="sans-serif" font-size="13" lengthAdjust="spacing" textLength="207.6953" x="395.28" y="349.1997">Modificar Datos del Profesorado</text></g><!--link Dat to Menu--><g id="link_Dat_Menu"><path d="M644.74,391.83 C644.47,369.46 647.09,336.12 662.28,312 C669.71,300.19 675.8311,293.727 687.3411,285.787 " fill="#FFFFFF" fill-opacity="0.00000" id="Dat-to-Menu" style="stroke:#181818;stroke-width:1;"/><polygon fill="#181818" points="692.28,282.38,682.6004,284.1979,688.1643,285.2192,687.143,290.7831,692.28,282.38" style="stroke:#181818;stroke-width:1;"/><path d="M667.28,324.5 L667.28,349.5 L786.28,349.5 L786.28,334.5 L776.28,324.5 L667.28,324.5 " fill="#FEFFDD" style="stroke:#181818;stroke-width:0.5;"/><path d="M776.28,324.5 L776.28,334.5 L786.28,334.5 L776.28,324.5 " fill="#FEFFDD" style="stroke:#181818;stroke-width:0.5;"/><text fill="#000000" font-family="sans-serif" font-size="13" lengthAdjust="spacing" textLength="98.4775" x="673.28" y="341.5669">Volver al men&#250;</text></g><!--link Menu to Val--><g id="link_Menu_Val"><path d="M767.46,282.44 C776.6,291.42 786.71,301.88 795.28,312 C817.17,337.89 836.0127,364.9739 850.3027,386.6039 " fill="#FFFFFF" fill-opacity="0.00000" id="Menu-to-Val" style="stroke:#181818;stroke-width:1;"/><polygon fill="#181818" points="853.61,391.61,851.9864,381.8959,850.8539,387.4382,845.3116,386.3057,853.61,391.61" style="stroke:#181818;stroke-width:1;"/></g><!--link Val to Menu--><g id="link_Val_Menu"><path d="M866.68,391.74 C863.16,368.99 854.99,335.11 836.28,312 C826.61,300.06 818.7169,293.3031 805.3869,285.4931 " fill="#FFFFFF" fill-opacity="0.00000" id="Val-to-Menu" style="stroke:#181818;stroke-width:1;"/><polygon fill="#181818" points="800.21,282.46,805.9533,290.4609,804.5241,284.9876,809.9974,283.5584,800.21,282.46" style="stroke:#181818;stroke-width:1;"/><path d="M865.28,324.5 L865.28,349.5 L984.28,349.5 L984.28,334.5 L974.28,324.5 L865.28,324.5 " fill="#FEFFDD" style="stroke:#181818;stroke-width:0.5;"/><path d="M974.28,324.5 L974.28,334.5 L984.28,334.5 L974.28,324.5 " fill="#FEFFDD" style="stroke:#181818;stroke-width:0.5;"/><text fill="#000000" font-family="sans-serif" font-size="13" lengthAdjust="spacing" textLength="98.4775" x="871.28" y="341.5669">Volver al men&#250;</text></g><!--link Menu to Inf--><g id="link_Menu_Inf"><path d="M812.14,266.35 C864.61,274.1 937.11,288.13 997.28,312 C1036.95,327.74 1039.36,346.88 1079.28,362 C1150.2,388.87 1172.62,378.6 1247.28,392 C1252.93,393.02 1252.8244,393 1258.6744,394.05 " fill="#FFFFFF" fill-opacity="0.00000" id="Menu-to-Inf" style="stroke:#181818;stroke-width:1;"/><polygon fill="#181818" points="1264.58,395.11,1256.4282,389.5829,1259.6586,394.2267,1255.0149,397.4571,1264.58,395.11" style="stroke:#181818;stroke-width:1;"/><path d="M1084.28,317 L1084.28,357 L1325.28,357 L1325.28,327 L1315.28,317 L1084.28,317 " fill="#FEFFDD" style="stroke:#181818;stroke-width:0.5;"/><path d="M1315.28,317 L1315.28,327 L1325.28,327 L1315.28,317 " fill="#FEFFDD" style="stroke:#181818;stroke-width:0.5;"/><text fill="#000000" font-family="sans-serif" font-size="13" lengthAdjust="spacing" textLength="120.4976" x="1090.28" y="334.0669">Consultar Claustro</text><text fill="#000000" font-family="sans-serif" font-size="13" lengthAdjust="spacing" textLength="220.7207" x="1090.28" y="349.1997">Consultar Asignaci&#243;n por Profesor</text></g><!--link Inf to Menu--><g id="link_Inf_Menu"><path d="M1376.73,391.78 C1371.78,367.34 1360.26,330.65 1334.28,312 C1292.68,282.14 966.2755,266.3911 818.1155,260.6811 " fill="#FFFFFF" fill-opacity="0.00000" id="Inf-to-Menu" style="stroke:#181818;stroke-width:1;"/><polygon fill="#181818" points="812.12,260.45,820.9593,264.7936,817.1163,260.6426,821.2674,256.7996,812.12,260.45" style="stroke:#181818;stroke-width:1;"/><path d="M1373.28,324.5 L1373.28,349.5 L1492.28,349.5 L1492.28,334.5 L1482.28,324.5 L1373.28,324.5 " fill="#FEFFDD" style="stroke:#181818;stroke-width:0.5;"/><path d="M1482.28,324.5 L1482.28,334.5 L1492.28,334.5 L1482.28,324.5 " fill="#FEFFDD" style="stroke:#181818;stroke-width:0.5;"/><text fill="#000000" font-family="sans-serif" font-size="13" lengthAdjust="spacing" textLength="98.4775" x="1379.28" y="341.5669">Volver al men&#250;</text></g><!--link Car to Car--><g id="link_Car_Car"><path d="M221.92,402.74 C242.22,404.47 256.55,409.23 256.55,417 C256.55,424.77 248.1983,429.0205 227.8983,430.7505 " fill="#FFFFFF" fill-opacity="0.00000" id="Car-to-Car" style="stroke:#181818;stroke-width:1;"/><polygon fill="#181818" points="221.92,431.26,231.2272,434.4813,226.9019,430.8354,230.5478,426.5102,221.92,431.26" style="stroke:#181818;stroke-width:1;"/><path d="M261.55,404.5 L261.55,429.5 L553.55,429.5 L553.55,414.5 L543.55,404.5 L261.55,404.5 " fill="#FEFFDD" style="stroke:#181818;stroke-width:0.5;"/><path d="M543.55,404.5 L543.55,414.5 L553.55,414.5 L543.55,404.5 " fill="#FEFFDD" style="stroke:#181818;stroke-width:0.5;"/><text fill="#000000" font-family="sans-serif" font-size="13" lengthAdjust="spacing" textLength="271.6479" x="267.55" y="421.5669">Revisar Profesores con Carga no ajustada</text></g><!--link Val to Val--><g id="link_Val_Val"><path d="M988.01,402.97 C1008.52,404.86 1022.75,409.54 1022.75,417 C1022.75,424.46 1014.4947,428.5894 993.9847,430.4794 " fill="#FFFFFF" fill-opacity="0.00000" id="Val-to-Val" style="stroke:#181818;stroke-width:1;"/><polygon fill="#181818" points="988.01,431.03,997.3391,434.1873,992.9889,430.5712,996.605,426.221,988.01,431.03" style="stroke:#181818;stroke-width:1;"/><path d="M1027.75,404.5 L1027.75,429.5 L1241.75,429.5 L1241.75,414.5 L1231.75,404.5 L1027.75,404.5 " fill="#FEFFDD" style="stroke:#181818;stroke-width:0.5;"/><path d="M1231.75,404.5 L1231.75,414.5 L1241.75,414.5 L1231.75,404.5 " fill="#FEFFDD" style="stroke:#181818;stroke-width:0.5;"/><text fill="#000000" font-family="sans-serif" font-size="13" lengthAdjust="spacing" textLength="193.6606" x="1033.75" y="421.5669">Validar Datos del Profesorado</text></g><!--SRC=[dLBTJeCm5BxlKpIxDDahc3G5boPG28CbnXXIePjLR4qBUp7llDsBUTe9cxWB7JUav_ixNrhNYrxY1SzgKfKnBnabKRR0mc5koD0_8tSaf36lwhnWdBAS986GIZsCy2fUbopZDIN5YjHHHi4g3Ymgx9mKaJ9R1p0I_GXkIC8YGZr-NzCgpHEMCd0vBhCHtKYa6LzNIGafSStuNLQaGHLeJ6yHUhXvnClbxLW07VzX55RM1coCnftIhmZ3nxHgbB3OIQSE7nf9tM9FGiZpWz2tE9tysZCNfdjhsg5HrgF6uKGy6IiwwG1CJQksgX4ZrieEvzPifGDAQou5-iAda-yr2wH6kw7hmPDsOd2G_cD8dDffqVW- -DtOAUui2pfDtMRcXTmh9qugwN03A31t0jHOl42YQCMP6omyBJvpWv5g_r1-NEZoBMrCjvSMGyoRr8VFCntuNgKRL_wl3cxZAjrqdTylyvUKIcillCCl]--></g></svg>