<svg xmlns="http://www.w3.org/2000/svg" xmlns:xlink="http://www.w3.org/1999/xlink" contentStyleType="text/css" height="165px" preserveAspectRatio="none" style="width:389px;height:165px;background:#FFFFFF;" version="1.1" viewBox="0 0 389 165" width="389px" zoomAndPan="magnify"><defs/><g><!--cluster Manejo de Sesi?n--><g id="cluster_Manejo de Sesi&#243;n"><path d="M211.2,6 L351.0174,6 A3.75,3.75 0 0 1 353.5174,8.5 L360.5174,28.2969 L379.67,28.2969 A2.5,2.5 0 0 1 382.17,30.7969 L382.17,155.5 A2.5,2.5 0 0 1 379.67,158 L211.2,158 A2.5,2.5 0 0 1 208.7,155.5 L208.7,8.5 A2.5,2.5 0 0 1 211.2,6 " fill="none" style="stroke:#000000;stroke-width:1.5;"/><line style="stroke:#000000;stroke-width:1.5;" x1="208.7" x2="360.5174" y1="28.2969" y2="28.2969"/><text fill="#000000" font-family="sans-serif" font-size="14" font-weight="bold" lengthAdjust="spacing" textLength="138.8174" x="212.7" y="20.9951">Manejo de Sesi&#243;n</text></g><g id="elem_MS1"><ellipse cx="295.4359" cy="126.0012" fill="#F1F1F1" rx="70.2059" ry="16.4412" style="stroke:#181818;stroke-width:0.5;"/><text fill="#000000" font-family="sans-serif" font-size="14" lengthAdjust="spacing" textLength="93.3857" x="245.743" y="129.7487">Iniciar Sesi&#243;n</text></g><g id="elem_MS2"><ellipse cx="295.4433" cy="57.9967" fill="#F1F1F1" rx="70.7333" ry="16.5467" style="stroke:#181818;stroke-width:0.5;"/><text fill="#000000" font-family="sans-serif" font-size="14" lengthAdjust="spacing" textLength="94.8076" x="245.0395" y="61.7442">Cerrar Sesi&#243;n</text></g><!--entity AdminGeneral--><g id="elem_AdminGeneral"><ellipse cx="85.3516" cy="62.35" fill="#F1F1F1" rx="8" ry="8" style="stroke:#181818;stroke-width:0.5;"/><path d="M85.3516,70.35 L85.3516,97.35 M72.3516,78.35 L98.3516,78.35 M85.3516,97.35 L72.3516,112.35 M85.3516,97.35 L98.3516,112.35 " fill="none" style="stroke:#181818;stroke-width:0.5;"/><text fill="#000000" font-family="sans-serif" font-size="14" lengthAdjust="spacing" textLength="158.7031" x="6" y="126.8451">Administrador General</text></g><!--link AdminGeneral to MS1--><g id="link_AdminGeneral_MS1"><path d="M165.02,104.85 C188.84,108.75 208.6384,111.9835 230.8184,115.6035 " fill="none" id="AdminGeneral-to-MS1" style="stroke:#181818;stroke-width:1.0;"/><polygon fill="#181818" points="236.74,116.57,228.5018,111.1725,231.8053,115.7646,227.2132,119.0681,236.74,116.57" style="stroke:#181818;stroke-width:1.0;"/></g><!--link AdminGeneral to MS2--><g id="link_AdminGeneral_MS2"><path d="M165.02,79.15 C188.73,75.27 208.3884,72.0568 230.4984,68.4468 " fill="none" id="AdminGeneral-to-MS2" style="stroke:#181818;stroke-width:1.0;"/><polygon fill="#181818" points="236.42,67.48,226.8931,64.9825,231.4853,68.2857,228.1822,72.878,236.42,67.48" style="stroke:#181818;stroke-width:1.0;"/></g><!--SRC=[ROqn3i9030HxlyAwFWLv0594WIXIvGNMdGc6u4C-Ko5UnHFoCKuH4Y3OphlZtOdtZfxHP3mu9Z6EBbc1ecV3qAMpg1GtIlNSihBH590ABidB0BXGFD7867fIFcPCZ0CNcHyQy0POTIqSgLHYfnA5x9tNidvOVKCRDljXMhW3VEvYqwoNtpzc-mG0]--></g></svg>