<?xml version="1.0" encoding="us-ascii" standalone="no"?><svg xmlns="http://www.w3.org/2000/svg" xmlns:xlink="http://www.w3.org/1999/xlink" contentStyleType="text/css" height="875px" preserveAspectRatio="none" style="width:520px;height:875px;background:#FFFFFF;" version="1.1" viewBox="0 0 520 875" width="520px" zoomAndPan="magnify"><defs/><g><text fill="#000000" font-family="sans-serif" font-size="14" font-weight="bold" lengthAdjust="spacing" textLength="95" x="202.5" y="24.5332">Iniciar Sesi&#243;n</text><rect fill="#F1F1F1" height="40" rx="12.5" ry="12.5" style="stroke:#181818;stroke-width:0.5;" width="57" x="228.5" y="829.6094"/><text fill="#000000" font-family="sans-serif" font-size="14" lengthAdjust="spacing" textLength="47" x="233.5" y="855.3379">NOVUS</text><ellipse cx="257" cy="54.6094" fill="#222222" rx="10" ry="10" style="stroke:#222222;stroke-width:1.0;"/><path d="M19.5,176.6094 L494.5,176.6094 A12.5,12.5 0 0 1 507,189.1094 L507,204.2188 L7,204.2188 L7,189.1094 A12.5,12.5 0 0 1 19.5,176.6094 " fill="#F1F1F1" style="stroke:#F1F1F1;stroke-width:1.0;"/><rect fill="none" height="591.6094" rx="12.5" ry="12.5" style="stroke:#181818;stroke-width:0.5;" width="500" x="7" y="176.6094"/><line style="stroke:#181818;stroke-width:0.5;" x1="7" x2="507" y1="204.2188" y2="204.2188"/><text fill="#000000" font-family="sans-serif" font-size="14" lengthAdjust="spacing" textLength="80" x="217" y="196.1426">IniciarSesi&#243;n</text><rect fill="#F1F1F1" height="40" rx="12.5" ry="12.5" style="stroke:#181818;stroke-width:0.5;" width="50" x="106" y="272.2188"/><text fill="#000000" font-family="sans-serif" font-size="14" lengthAdjust="spacing" textLength="4" x="129" y="297.9473">&#160;</text><rect fill="#F1F1F1" height="40" rx="12.5" ry="12.5" style="stroke:#181818;stroke-width:0.5;" width="50" x="19" y="455.2188"/><text fill="#000000" font-family="sans-serif" font-size="14" lengthAdjust="spacing" textLength="4" x="42" y="480.9473">&#160;</text><g id="elem_4"><polygon fill="#F1F1F1" points="140,606.2188,152,618.2188,140,630.2188,128,618.2188,140,606.2188" style="stroke:#181818;stroke-width:0.5;"/></g><ellipse cx="131" cy="225.2188" fill="#222222" rx="10" ry="10" style="stroke:#222222;stroke-width:1.0;"/><rect fill="#F1F1F1" height="40" rx="12.5" ry="12.5" style="stroke:#181818;stroke-width:0.5;" width="50" x="115" y="718.2188"/><text fill="#000000" font-family="sans-serif" font-size="14" lengthAdjust="spacing" textLength="39" x="120.5" y="743.9473">INICIO</text><!--link *start*IniciarSesi?n to 2--><g id="link_*start*IniciarSesi&#243;n_2"><path d="M131,235.2587 C131,244.7487 131,253.9488 131,266.1088 " fill="none" id="*start*IniciarSesi&#243;n-to-2" style="stroke:#008000;stroke-width:1.0;"/><polygon fill="#008000" points="131,272.1088,135,263.1088,131,267.1088,127,263.1088,131,272.1088" style="stroke:#008000;stroke-width:1.0;"/></g><!--link 2 to 3--><g id="link_2_3"><path d="M105.54,303.1388 C77.4,314.0988 36,330.2188 36,330.2188 C36,330.2188 36,431.2188 36,431.2188 C36,431.2188 37.1927,437.6299 39.3227,449.0799 " fill="none" id="2-to-3" style="stroke:#008000;stroke-width:1.0;"/><polygon fill="#008000" points="40.42,454.9788,42.7065,445.399,39.5056,450.0631,34.8415,446.8621,40.42,454.9788" style="stroke:#008000;stroke-width:1.0;"/><path d="M41,335.2188 L41,426.2188 L209,426.2188 L209,345.2188 L199,335.2188 L41,335.2188 " fill="#F5F5F5" style="stroke:#008000;stroke-width:0.5;"/><path d="M199,335.2188 L199,345.2188 L209,345.2188 L199,335.2188 " fill="#F5F5F5" style="stroke:#008000;stroke-width:0.5;"/><text fill="#000000" font-family="sans-serif" font-size="13" font-weight="bold" lengthAdjust="spacing" textLength="103" x="47" y="353.7139">Sistema Solicita</text><ellipse cx="52.5" cy="365.4219" fill="#000000" rx="2.5" ry="2.5" style="stroke:#000000;stroke-width:0.0;"/><text fill="#000000" font-family="sans-serif" font-size="13" lengthAdjust="spacing" textLength="33" x="59" y="370.0654">Email</text><ellipse cx="52.5" cy="381.7734" fill="#000000" rx="2.5" ry="2.5" style="stroke:#000000;stroke-width:0.0;"/><text fill="#000000" font-family="sans-serif" font-size="13" lengthAdjust="spacing" textLength="66" x="59" y="386.417">Contrase&#241;a</text><text fill="#000000" font-family="sans-serif" font-size="13" font-weight="bold" lengthAdjust="spacing" textLength="105" x="47" y="402.7686">Sistema Permite</text><ellipse cx="52.5" cy="414.4766" fill="#000000" rx="2.5" ry="2.5" style="stroke:#000000;stroke-width:0.0;"/><text fill="#000000" font-family="sans-serif" font-size="13" lengthAdjust="spacing" textLength="135" x="59" y="419.1201">Iniciar Sesi&#243;n en Novus</text></g><!--link 3 to 4--><g id="link_3_4"><path d="M48.64,495.4688 C56.36,527.4988 71,588.2188 71,588.2188 C71,588.2188 108.4281,603.9555 126.5481,611.5655 " fill="none" id="3-to-4" style="stroke:#008000;stroke-width:1.0;"/><polygon fill="#008000" points="132.08,613.8888,125.331,606.7159,127.4701,611.9527,122.2332,614.0918,132.08,613.8888" style="stroke:#008000;stroke-width:1.0;"/><path d="M76,524.2188 L76,583.2188 L209,583.2188 L209,534.2188 L199,524.2188 L76,524.2188 " fill="#F5F5F5" style="stroke:#008000;stroke-width:0.5;"/><path d="M199,524.2188 L199,534.2188 L209,534.2188 L199,524.2188 " fill="#F5F5F5" style="stroke:#008000;stroke-width:0.5;"/><text fill="#000000" font-family="sans-serif" font-size="13" font-weight="bold" lengthAdjust="spacing" textLength="112" x="82" y="542.7139">Usuario introduce</text><ellipse cx="87.5" cy="554.4219" fill="#000000" rx="2.5" ry="2.5" style="stroke:#000000;stroke-width:0.0;"/><text fill="#000000" font-family="sans-serif" font-size="13" lengthAdjust="spacing" textLength="33" x="94" y="559.0654">Email</text><ellipse cx="87.5" cy="570.7734" fill="#000000" rx="2.5" ry="2.5" style="stroke:#000000;stroke-width:0.0;"/><text fill="#000000" font-family="sans-serif" font-size="13" lengthAdjust="spacing" textLength="66" x="94" y="575.417">Contrase&#241;a</text></g><!--link 4 to INICIO--><g id="link_4_INICIO"><path d="M140,630.5288 C140,650.7188 140,687.1588 140,711.9988 " fill="none" id="4-to-INICIO" style="stroke:#008000;stroke-width:1.0;"/><polygon fill="#008000" points="140,717.9988,144,708.9988,140,712.9988,136,708.9988,140,717.9988" style="stroke:#008000;stroke-width:1.0;"/><path d="M145,653.2188 L145,695.2188 L346,695.2188 L346,663.2188 L336,653.2188 L145,653.2188 " fill="#F5F5F5" style="stroke:#008000;stroke-width:0.5;"/><path d="M336,653.2188 L336,663.2188 L346,663.2188 L336,653.2188 " fill="#F5F5F5" style="stroke:#008000;stroke-width:0.5;"/><text fill="#000000" font-family="sans-serif" font-size="13" font-weight="bold" lengthAdjust="spacing" textLength="105" x="151" y="671.7139">Sistema Muestra</text><ellipse cx="156.5" cy="683.4219" fill="#000000" rx="2.5" ry="2.5" style="stroke:#000000;stroke-width:0.0;"/><text fill="#000000" font-family="sans-serif" font-size="13" lengthAdjust="spacing" textLength="168" x="163" y="688.0654">Pantalla de Inicio del Usuario</text></g><!--link 4 to 2--><g id="link_4_2"><path d="M147.92,614.1188 C167.01,606.6388 214,588.2188 214,588.2188 C214,588.2188 214,330.2188 214,330.2188 C214,330.2188 186.2403,317.8414 161.8303,306.9614 " fill="none" id="4-to-2" style="stroke:#FF0000;stroke-width:1.0;"/><polygon fill="#FF0000" points="156.35,304.5188,162.942,311.8363,160.9169,306.5543,166.1989,304.5292,156.35,304.5188" style="stroke:#FF0000;stroke-width:1.0;"/><path d="M219,454.2188 L219,496.2188 L498,496.2188 L498,464.2188 L488,454.2188 L219,454.2188 " fill="#F5F5F5" style="stroke:#008000;stroke-width:0.5;"/><path d="M488,454.2188 L488,464.2188 L498,464.2188 L488,454.2188 " fill="#F5F5F5" style="stroke:#008000;stroke-width:0.5;"/><text fill="#000000" font-family="sans-serif" font-size="13" font-weight="bold" lengthAdjust="spacing" textLength="105" x="225" y="472.7139">Sistema Muestra</text><ellipse cx="230.5" cy="484.4219" fill="#000000" rx="2.5" ry="2.5" style="stroke:#000000;stroke-width:0.0;"/><text fill="#000000" font-family="sans-serif" font-size="13" lengthAdjust="spacing" textLength="246" x="237" y="489.0654">Mensaje de error en los datos introducidos</text></g><!--link *start* to IniciarSesi?n--><g id="link_*start*_IniciarSesi&#243;n"><path d="M257,64.6894 C257,82.5994 257,119.2394 257,170.4894 " fill="none" id="*start*-to-IniciarSesi&#243;n" style="stroke:#008000;stroke-width:1.0;"/><polygon fill="#008000" points="257,176.4894,261,167.4894,257,171.4894,253,167.4894,257,176.4894" style="stroke:#008000;stroke-width:1.0;"/><path d="M262,99.6094 L262,141.6094 L430,141.6094 L430,109.6094 L420,99.6094 L262,99.6094 " fill="#F5F5F5" style="stroke:#008000;stroke-width:0.5;"/><path d="M420,99.6094 L420,109.6094 L430,109.6094 L420,99.6094 " fill="#F5F5F5" style="stroke:#008000;stroke-width:0.5;"/><text fill="#000000" font-family="sans-serif" font-size="13" font-weight="bold" lengthAdjust="spacing" textLength="100" x="268" y="118.1045">Usuario Solicita</text><ellipse cx="273.5" cy="129.8125" fill="#000000" rx="2.5" ry="2.5" style="stroke:#000000;stroke-width:0.0;"/><text fill="#000000" font-family="sans-serif" font-size="13" lengthAdjust="spacing" textLength="135" x="280" y="134.4561">Iniciar Sesi&#243;n en Novus</text></g><!--link IniciarSesi?n to endState--><g id="link_IniciarSesi&#243;n_endState"><path d="M257,768.6194 C257,793.8094 257,809.0794 257,823.3494 " fill="none" id="IniciarSesi&#243;n-to-endState" style="stroke:#008000;stroke-width:1.0;"/><polygon fill="#008000" points="257,829.3494,261,820.3494,257,824.3494,253,820.3494,257,829.3494" style="stroke:#008000;stroke-width:1.0;"/></g><!--SRC=[ZLBDJi904BxlKqpmHc9CW2DfeiG31z6amGlnC7OdiBBTQNQt4a9uAECZ-69EQmiKew67xKvdzllhHXCjmTIPpA27b8Bv-dHAXRLn1NhCOQT0dXb7kiDilVHSEZrXonwkDYiJASrvJVNChVUyQLfBJ-IE9zbhyhzQrZYAsuAWOBkj2hLNQcKq0UL5t8Aca7bJHCELeeXH6awdzGO3z6QFp_EqfzIY_mBNrqdheZNXX1dOLJJhcc_ycin3YTumf6nbDkBuvZMfU_tp38HAjB-NGGadL5XATGbgpbPGA_1iPDTy7jI2eTUKmsuvWl4uMx79A4aQEvetJk07IWqEnR1hIUoa9aJAiMkd3_Sv6Yll2RleCT3N1vvEFv7FvSyrmnVu7XuaZ7v9Q1CrGiMwpEWV3KV4qG5nEfjEfez_EdieASZv1lG9NKHhKQx6ZswMdOL6GnT_SUL9lzGPNWR-G2xW6rNO95VPLqbO3g0nojhwCvfFezchRm00]--></g></svg>