<?xml version="1.0" encoding="us-ascii" standalone="no"?><svg xmlns="http://www.w3.org/2000/svg" xmlns:xlink="http://www.w3.org/1999/xlink" contentStyleType="text/css" height="607px" preserveAspectRatio="none" style="width:427px;height:607px;background:#FFFFFF;" version="1.1" viewBox="0 0 427 607" width="427px" zoomAndPan="magnify"><defs/><g><text fill="#000000" font-family="sans-serif" font-size="14" font-weight="bold" lengthAdjust="spacing" textLength="166" x="120.5" y="24.5332">Listar datos del Usuario</text><rect fill="#F1F1F1" height="40" rx="12.5" ry="12.5" style="stroke:#181818;stroke-width:0.5;" width="124" x="148.5" y="45.6094"/><text fill="#000000" font-family="sans-serif" font-size="14" lengthAdjust="spacing" textLength="114" x="153.5" y="71.3379">CONFIGURACI&#211;N</text><rect fill="#F1F1F1" height="40" rx="12.5" ry="12.5" style="stroke:#181818;stroke-width:0.5;" width="124" x="148.5" y="561.6094"/><text fill="#000000" font-family="sans-serif" font-size="14" lengthAdjust="spacing" textLength="114" x="153.5" y="587.3379">CONFIGURACI&#211;N</text><path d="M19.5,197.6094 L401.5,197.6094 A12.5,12.5 0 0 1 414,210.1094 L414,225.2188 L7,225.2188 L7,210.1094 A12.5,12.5 0 0 1 19.5,197.6094 " fill="#F1F1F1" style="stroke:#F1F1F1;stroke-width:1.0;"/><rect fill="none" height="302.6094" rx="12.5" ry="12.5" style="stroke:#181818;stroke-width:0.5;" width="407" x="7" y="197.6094"/><line style="stroke:#181818;stroke-width:0.5;" x1="7" x2="414" y1="225.2188" y2="225.2188"/><text fill="#000000" font-family="sans-serif" font-size="14" lengthAdjust="spacing" textLength="120" x="150.5" y="217.1426">ListarDatosUsuario</text><rect fill="#F1F1F1" height="40" rx="12.5" ry="12.5" style="stroke:#181818;stroke-width:0.5;" width="50" x="19" y="334.2188"/><text fill="#000000" font-family="sans-serif" font-size="14" lengthAdjust="spacing" textLength="4" x="42" y="359.9473">&#160;</text><ellipse cx="159" cy="246.2188" fill="#222222" rx="10" ry="10" style="stroke:#222222;stroke-width:1.0;"/><ellipse cx="159" cy="479.2188" fill="none" rx="11" ry="11" style="stroke:#222222;stroke-width:1.0;"/><ellipse cx="159" cy="479.2188" fill="#222222" rx="6" ry="6" style="stroke:#222222;stroke-width:1.0;"/><!--link *start*ListarDatosUsuario to *end*ListarDatosUsuario--><g id="link_*start*ListarDatosUsuario_*end*ListarDatosUsuario"><path d="M168.69,249.7088 C194.68,256.3988 264,274.2188 264,274.2188 C264,274.2188 264,450.2188 264,450.2188 C264,450.2188 201.8076,466.8033 175.2476,473.8833 " fill="none" id="*start*ListarDatosUsuario-to-*end*ListarDatosUsuario" style="stroke:#008000;stroke-width:1.0;"/><polygon fill="#008000" points="169.45,475.4288,179.1766,476.9756,174.2813,474.1409,177.116,469.2456,169.45,475.4288" style="stroke:#008000;stroke-width:1.0;"/><path d="M269,333.2188 L269,375.2188 L405,375.2188 L405,343.2188 L395,333.2188 L269,333.2188 " fill="#F5F5F5" style="stroke:#008000;stroke-width:0.5;"/><path d="M395,333.2188 L395,343.2188 L405,343.2188 L395,333.2188 " fill="#F5F5F5" style="stroke:#008000;stroke-width:0.5;"/><text fill="#000000" font-family="sans-serif" font-size="13" font-weight="bold" lengthAdjust="spacing" textLength="105" x="275" y="351.7139">Sistema Muestra</text><ellipse cx="280.5" cy="363.4219" fill="#000000" rx="2.5" ry="2.5" style="stroke:#000000;stroke-width:0.0;"/><text fill="#000000" font-family="sans-serif" font-size="13" lengthAdjust="spacing" textLength="103" x="287" y="368.0654">Datos del Usuario</text></g><!--link *start*ListarDatosUsuario to 2--><g id="link_*start*ListarDatosUsuario_2"><path d="M149.31,249.7088 C123.32,256.3988 54,274.2188 54,274.2188 C54,274.2188 50.1336,304.7663 47.1736,328.1463 " fill="none" id="*start*ListarDatosUsuario-to-2" style="stroke:#FF0000;stroke-width:1.0;"/><polygon fill="#FF0000" points="46.42,334.0988,51.5187,325.6724,47.048,329.1383,43.5821,324.6676,46.42,334.0988" style="stroke:#FF0000;stroke-width:1.0;"/><path d="M59,279.2188 L59,305.2188 L259,305.2188 L259,289.2188 L249,279.2188 L59,279.2188 " fill="#F5F5F5" style="stroke:#008000;stroke-width:0.5;"/><path d="M249,279.2188 L249,289.2188 L259,289.2188 L249,279.2188 " fill="#F5F5F5" style="stroke:#008000;stroke-width:0.5;"/><text fill="#000000" font-family="sans-serif" font-size="13" lengthAdjust="spacing" textLength="179" x="65" y="297.7139">Error al listar datos del Usuario</text></g><!--link 2 to *end*ListarDatosUsuario--><g id="link_2_*end*ListarDatosUsuario"><path d="M43.11,374.4588 C42.57,385.9088 42,398.2188 42,398.2188 C42,398.2188 42,450.2188 42,450.2188 C42,450.2188 113.4052,467.3005 142.3652,474.2405 " fill="none" id="2-to-*end*ListarDatosUsuario" style="stroke:#FF0000;stroke-width:1.0;"/><polygon fill="#FF0000" points="148.2,475.6387,140.38,469.6515,143.3377,474.4735,138.5156,477.4312,148.2,475.6387" style="stroke:#FF0000;stroke-width:1.0;"/><path d="M47,403.2188 L47,445.2188 L259,445.2188 L259,413.2188 L249,403.2188 L47,403.2188 " fill="#F5F5F5" style="stroke:#008000;stroke-width:0.5;"/><path d="M249,403.2188 L249,413.2188 L259,413.2188 L249,403.2188 " fill="#F5F5F5" style="stroke:#008000;stroke-width:0.5;"/><text fill="#000000" font-family="sans-serif" font-size="13" font-weight="bold" lengthAdjust="spacing" textLength="105" x="53" y="421.7139">Sistema Muestra</text><ellipse cx="58.5" cy="433.4219" fill="#000000" rx="2.5" ry="2.5" style="stroke:#000000;stroke-width:0.0;"/><text fill="#000000" font-family="sans-serif" font-size="13" lengthAdjust="spacing" textLength="179" x="65" y="438.0654">Error al listar datos del Usuario</text></g><!--link startState to ListarDatosUsuario--><g id="link_startState_ListarDatosUsuario"><path d="M210.5,85.9594 C210.5,109.9294 210.5,147.0794 210.5,191.5394 " fill="none" id="startState-to-ListarDatosUsuario" style="stroke:#008000;stroke-width:1.0;"/><polygon fill="#008000" points="210.5,197.5394,214.5,188.5394,210.5,192.5394,206.5,188.5394,210.5,197.5394" style="stroke:#008000;stroke-width:1.0;"/><path d="M215.5,120.6094 L215.5,162.6094 L385.5,162.6094 L385.5,130.6094 L375.5,120.6094 L215.5,120.6094 " fill="#F5F5F5" style="stroke:#008000;stroke-width:0.5;"/><path d="M375.5,120.6094 L375.5,130.6094 L385.5,130.6094 L375.5,120.6094 " fill="#F5F5F5" style="stroke:#008000;stroke-width:0.5;"/><text fill="#000000" font-family="sans-serif" font-size="13" font-weight="bold" lengthAdjust="spacing" textLength="100" x="221.5" y="139.1045">Usuario Solicita</text><ellipse cx="227" cy="150.8125" fill="#000000" rx="2.5" ry="2.5" style="stroke:#000000;stroke-width:0.0;"/><text fill="#000000" font-family="sans-serif" font-size="13" lengthAdjust="spacing" textLength="137" x="233.5" y="155.4561">Listar datos del Usuario</text></g><!--link ListarDatosUsuario to endState--><g id="link_ListarDatosUsuario_endState"><path d="M210.5,500.6394 C210.5,524.8994 210.5,540.8494 210.5,555.5894 " fill="none" id="ListarDatosUsuario-to-endState" style="stroke:#008000;stroke-width:1.0;"/><polygon fill="#008000" points="210.5,561.5894,214.5,552.5894,210.5,556.5894,206.5,552.5894,210.5,561.5894" style="stroke:#008000;stroke-width:1.0;"/></g><!--SRC=[fPB1Qi9048Rl-nI3tWGfU1R1Qbk4DeK6J-9XTGTTijaDinD4If-YZzGNw-uQ6o7DeJIN93Ep___Dpx9cW_2iFKi29TbvK6XWxMj9sWdX2sqhIRA4Tm7XoHpZlTmN1tArLGjd7C7mTDICUUaAJ3Dp8dTgMWT2jEr9HmgfqpBQ8fyhXCgPS_mH7q8SjKB0ik9p8F9xqXLhPmCHIqQ8l9odJ-bXi7ZD7bTFwxVvOlNrcGsQ8RIgVqJSI8p7ioQ3POpWkhqDoE1iv2iIw7GtQtgGEwFtckNqRZTBlL5_Ye43efOGNPFaVGMzRlVBs2N-ItkI5e91Acr6swGHtwdGeMx8yo2AfOIN6ZrJ2tw1NtQeOxqb_x7Q30dLDXXE-jqUmWqWa2PKUoBfYazkf8FHFrRvgtkuRTy0]--></g></svg>