<svg xmlns="http://www.w3.org/2000/svg" xmlns:xlink="http://www.w3.org/1999/xlink" contentStyleType="text/css" height="308px" preserveAspectRatio="none" style="width:334px;height:308px;background:#FFFFFF;" version="1.1" viewBox="0 0 334 308" width="334px" zoomAndPan="magnify"><defs/><g><!--entity Profesor--><g id="elem_Profesor"><ellipse cx="55.4604" cy="236" fill="#F1F1F1" rx="8" ry="8" style="stroke:#181818;stroke-width:0.5;"/><path d="M55.4604,244 L55.4604,271 M42.4604,252 L68.4604,252 M55.4604,271 L42.4604,286 M55.4604,271 L68.4604,286 " fill="none" style="stroke:#181818;stroke-width:0.5;"/><text fill="#000000" font-family="sans-serif" font-size="14" lengthAdjust="spacing" textLength="57.9209" x="26.5" y="300.4951">Profesor</text></g><!--entity Administrador--><g id="elem_Administrador"><ellipse cx="55.54" cy="125" fill="#F1F1F1" rx="8" ry="8" style="stroke:#181818;stroke-width:0.5;"/><path d="M55.54,133 L55.54,160 M42.54,141 L68.54,141 M55.54,160 L42.54,175 M55.54,160 L68.54,175 " fill="none" style="stroke:#181818;stroke-width:0.5;"/><text fill="#000000" font-family="sans-serif" font-size="14" lengthAdjust="spacing" textLength="99.0801" x="6" y="189.4951">Administrador</text></g><!--entity Recursos Humanos--><g id="elem_Recursos Humanos"><ellipse cx="245.8101" cy="14" fill="#F1F1F1" rx="8" ry="8" style="stroke:#181818;stroke-width:0.5;"/><path d="M245.8101,22 L245.8101,49 M232.8101,30 L258.8101,30 M245.8101,49 L232.8101,64 M245.8101,49 L258.8101,64 " fill="none" style="stroke:#181818;stroke-width:0.5;"/><text fill="#000000" font-family="sans-serif" font-size="14" lengthAdjust="spacing" textLength="134.6201" x="178.5" y="78.4951">Recursos Humanos</text></g><!--entity Ordenaci?n Acad?mica--><g id="elem_Ordenaci&#243;n Acad&#233;mica"><ellipse cx="246.1802" cy="125" fill="#F1F1F1" rx="8" ry="8" style="stroke:#181818;stroke-width:0.5;"/><path d="M246.1802,133 L246.1802,160 M233.1802,141 L259.1802,141 M246.1802,160 L233.1802,175 M246.1802,160 L259.1802,175 " fill="none" style="stroke:#181818;stroke-width:0.5;"/><text fill="#000000" font-family="sans-serif" font-size="14" lengthAdjust="spacing" textLength="162.3604" x="165" y="189.4951">Ordenaci&#243;n Acad&#233;mica</text></g><!--entity T?cnico de Calidad--><g id="elem_T&#233;cnico de Calidad"><ellipse cx="245.8872" cy="236" fill="#F1F1F1" rx="8" ry="8" style="stroke:#181818;stroke-width:0.5;"/><path d="M245.8872,244 L245.8872,271 M232.8872,252 L258.8872,252 M245.8872,271 L232.8872,286 M245.8872,271 L258.8872,286 " fill="none" style="stroke:#181818;stroke-width:0.5;"/><text fill="#000000" font-family="sans-serif" font-size="14" lengthAdjust="spacing" textLength="132.7744" x="179.5" y="300.4951">T&#233;cnico de Calidad</text></g><!--link Administrador to Recursos Humanos--><g id="link_Administrador_Recursos Humanos"><path d="M105.04,125.91 C127.95,112.43 150.4406,99.1859 175.1006,84.6559 " fill="none" id="Administrador-to-Recursos Humanos" style="stroke:#181818;stroke-width:1;"/><polygon fill="#181818" points="180.27,81.61,170.4853,82.7326,175.9622,84.1482,174.5465,89.6251,180.27,81.61" style="stroke:#181818;stroke-width:1;"/></g><!--link Administrador to Ordenaci?n Acad?mica--><g id="link_Administrador_Ordenaci&#243;n Acad&#233;mica"><path d="M105.04,154.5 C123.26,154.5 138.48,154.5 158.81,154.5 " fill="none" id="Administrador-to-Ordenaci&#243;n Acad&#233;mica" style="stroke:#181818;stroke-width:1;"/><polygon fill="#181818" points="164.81,154.5,155.81,150.5,159.81,154.5,155.81,158.5,164.81,154.5" style="stroke:#181818;stroke-width:1;"/></g><!--link Administrador to T?cnico de Calidad--><g id="link_Administrador_T&#233;cnico de Calidad"><path d="M105.04,183.09 C127.95,196.57 150.4406,209.8141 175.1006,224.3441 " fill="none" id="Administrador-to-T&#233;cnico de Calidad" style="stroke:#181818;stroke-width:1;"/><polygon fill="#181818" points="180.27,227.39,174.5465,219.3749,175.9622,224.8518,170.4853,226.2674,180.27,227.39" style="stroke:#181818;stroke-width:1;"/></g><!--SRC=[TSgn3S903030FbDuWIpW0YcYeGCX5h1i1opbRSdl39MQ4Nun5WXNtwPhGGMalJy5OgbS5ZuHLoGyCbRjaHCkqiojLv948ipp1V2fl6UF3hUzaKV7ytPFKIUsyNLOc6GSpPZ-vDSus8q3HE5Acma9_W00]--></g></svg>