<svg xmlns="http://www.w3.org/2000/svg" xmlns:xlink="http://www.w3.org/1999/xlink" contentStyleType="text/css" data-diagram-type="DESCRIPTION" height="197px" preserveAspectRatio="none" style="width:312px;height:197px;background:#FFFFFF;" version="1.1" viewBox="0 0 312 197" width="312px" zoomAndPan="magnify"><defs/><g><!--entity profesor--><g id="elem_profesor"><ellipse cx="55.5404" cy="14" fill="#F1F1F1" rx="8" ry="8" style="stroke:#181818;stroke-width:0.5;"/><path d="M55.5404,22 L55.5404,49 M42.5404,30 L68.5404,30 M55.5404,49 L42.5404,64 M55.5404,49 L68.5404,64 " fill="#FFFFFF" fill-opacity="0.00000" style="stroke:#181818;stroke-width:0.5;"/><text fill="#000000" font-family="sans-serif" font-size="14" lengthAdjust="spacing" textLength="57.9209" x="26.58" y="78.4951">Profesor</text></g><!--entity administrador--><g id="elem_administrador"><ellipse cx="55.54" cy="125" fill="#F1F1F1" rx="8" ry="8" style="stroke:#181818;stroke-width:0.5;"/><path d="M55.54,133 L55.54,160 M42.54,141 L68.54,141 M55.54,160 L42.54,175 M55.54,160 L68.54,175 " fill="#FFFFFF" fill-opacity="0.00000" style="stroke:#181818;stroke-width:0.5;"/><text fill="#000000" font-family="sans-serif" font-size="14" lengthAdjust="spacing" textLength="99.0801" x="6" y="189.4951">Administrador</text></g><g id="elem_CerrarSesion"><ellipse cx="235.8133" cy="99.6467" fill="#F1F1F1" rx="70.7333" ry="16.5467" style="stroke:#181818;stroke-width:0.5;"/><text fill="#000000" font-family="sans-serif" font-size="14" lengthAdjust="spacing" textLength="94.8076" x="185.4095" y="103.3942">Cerrar Sesi&#243;n</text></g><!--link profesor to CerrarSesion--><g id="link_profesor_CerrarSesion"><path d="M84.79,52.52 C113.65,61.59 153.1157,73.9921 186.3557,84.4321 " fill="#FFFFFF" fill-opacity="0.00000" id="profesor-to-CerrarSesion" style="stroke:#181818;stroke-width:1;"/><polygon fill="#181818" points="192.08,86.23,184.6921,79.717,187.3098,84.7318,182.295,87.3494,192.08,86.23" style="stroke:#181818;stroke-width:1;"/></g><!--link administrador to CerrarSesion--><g id="link_administrador_CerrarSesion"><path d="M105.25,139.62 C132.26,131.29 159.8271,122.7902 185.8971,114.7402 " fill="#FFFFFF" fill-opacity="0.00000" id="administrador-to-CerrarSesion" style="stroke:#181818;stroke-width:1;"/><polygon fill="#181818" points="191.63,112.97,181.8505,111.8034,186.8526,114.4452,184.2108,119.4473,191.63,112.97" style="stroke:#181818;stroke-width:1;"/></g><!--SRC=[POt12SD030J_LyLoVxSGC6d0u0h4dPm8x5EGbCfSGXeBJco8oNDdbjsPfq0eJ6xtG1NZ4g8j9IgXXZoOJkng6UHuxE6GVLsaYOTHtHlqIr9wEXToHhwo6Hb6TdcjxLFzeeriTySqkkvoLgV9F_q6]--></g></svg>