<svg xmlns="http://www.w3.org/2000/svg" xmlns:xlink="http://www.w3.org/1999/xlink" contentStyleType="text/css" data-diagram-type="DESCRIPTION" height="165px" preserveAspectRatio="none" style="width:356px;height:165px;background:#FFFFFF;" version="1.1" viewBox="0 0 356 165" width="356px" zoomAndPan="magnify"><defs/><g><!--entity prof--><g id="elem_prof"><ellipse cx="34.9604" cy="92.05" fill="#F1F1F1" rx="8" ry="8" style="stroke:#181818;stroke-width:0.5;"/><path d="M34.9604,100.05 L34.9604,127.05 M21.9604,108.05 L47.9604,108.05 M34.9604,127.05 L21.9604,142.05 M34.9604,127.05 L47.9604,142.05 " fill="#FFFFFF" fill-opacity="0.00000" style="stroke:#181818;stroke-width:0.5;"/><text fill="#000000" font-family="sans-serif" font-size="14" lengthAdjust="spacing" textLength="57.9209" x="6" y="156.5451">Profesor</text></g><g id="elem_consultaValores"><ellipse cx="237.0453" cy="121.6951" fill="#F1F1F1" rx="113.1253" ry="25.0251" style="stroke:#181818;stroke-width:0.5;"/><text fill="#000000" font-family="sans-serif" font-size="14" lengthAdjust="spacing" textLength="192.623" x="140.7337" y="124.5417">Consultar Datos Personales</text></g><g id="elem_GMN4"><path d="M134.7,6 L134.7,61.3984 A0,0 0 0 0 134.7,61.3984 L233.05,61.3984 L237.05,96.26 L241.05,61.3984 L339.3948,61.3984 A0,0 0 0 0 339.3948,61.3984 L339.3948,16 L329.3948,6 L134.7,6 A0,0 0 0 0 134.7,6 " fill="#FEFFDD" style="stroke:#181818;stroke-width:0.5;"/><path d="M329.3948,6 L329.3948,16 L339.3948,16 L329.3948,6 " fill="#FEFFDD" style="stroke:#181818;stroke-width:0.5;"/><text fill="#000000" font-family="sans-serif" font-size="13" lengthAdjust="spacing" textLength="183.6948" x="140.7" y="23.0669">Consultar valores asignados</text><text fill="#000000" font-family="sans-serif" font-size="13" lengthAdjust="spacing" textLength="164.436" x="140.7" y="38.1997">de contrato y otros datos</text><text fill="#000000" font-family="sans-serif" font-size="13" lengthAdjust="spacing" textLength="70.9097" x="140.7" y="53.3325">personales</text></g><!--link prof to consultaValores--><g id="link_prof_consultaValores"><path d="M64.2,121.7 C80.25,121.7 95.52,121.7 117.6,121.7 " fill="#FFFFFF" fill-opacity="0.00000" id="prof-to-consultaValores" style="stroke:#181818;stroke-width:1;"/><polygon fill="#181818" points="123.6,121.7,114.6,117.7,118.6,121.7,114.6,125.7,123.6,121.7" style="stroke:#181818;stroke-width:1;"/></g><!--SRC=[POv13i9024NtdEAd-rx1ZHwWA_TaXkeaaw41QkBjdRP64sK73_wZoXm8XPNRFP2BIOgYZOXJg66OJ6TnjG7iM7f3jBeaTi5mrkPh3JPSEDGnYRashkBxTdhZArSrSMeQqbKBTFvZwFMDUnpJ7b9kZRCUFCjs5jPTU4B3kZ9lufqk7pb9ozXaHDl36CVJh-y5]--></g></svg>