<svg xmlns="http://www.w3.org/2000/svg" xmlns:xlink="http://www.w3.org/1999/xlink" contentStyleType="text/css" data-diagram-type="STATE" height="834px" preserveAspectRatio="none" style="width:423px;height:834px;background:#FFFFFF;" version="1.1" viewBox="0 0 423 834" width="423px" zoomAndPan="magnify"><defs/><g><path d="M19.5,7 L397.2,7 A12.5,12.5 0 0 1 409.7,19.5 L409.7,33.2969 L7,33.2969 L7,19.5 A12.5,12.5 0 0 1 19.5,7 " fill="#F1F1F1" style="stroke:#F1F1F1;stroke-width:1;"/><rect fill="#FFFFFF" fill-opacity="0.00000" height="821.8869" rx="12.5" ry="12.5" style="stroke:#181818;stroke-width:0.5;" width="402.7" x="7" y="7"/><line style="stroke:#181818;stroke-width:0.5;" x1="7" x2="409.7" y1="33.2969" y2="33.2969"/><text fill="#000000" font-family="sans-serif" font-size="14" lengthAdjust="spacing" textLength="75.7969" x="170.4516" y="24.9951">Asignatura</text><path d="M109.08,101.2969 L278.7946,101.2969 A12.5,12.5 0 0 1 291.2946,113.7969 L291.2946,127.5938 L96.58,127.5938 L96.58,113.7969 A12.5,12.5 0 0 1 109.08,101.2969 " fill="#F1F1F1" style="stroke:#F1F1F1;stroke-width:1;"/><rect fill="#FFFFFF" fill-opacity="0.00000" height="229.2969" rx="12.5" ry="12.5" style="stroke:#181818;stroke-width:0.5;" width="194.7146" x="96.58" y="101.2969"/><line style="stroke:#181818;stroke-width:0.5;" x1="96.58" x2="291.2946" y1="127.5938" y2="127.5938"/><text fill="#000000" font-family="sans-serif" font-size="14" lengthAdjust="spacing" textLength="34.9453" x="176.4646" y="119.292">Libre</text><ellipse cx="195.09" cy="148.5938" fill="#222222" rx="10" ry="10" style="stroke:#222222;stroke-width:1;"/><g id="Asignatura.Libre.VerificandoCapacidad"><rect fill="#F1F1F1" height="50" rx="12.5" ry="12.5" style="stroke:#181818;stroke-width:0.5;" width="173.0156" x="108.58" y="195.5938"/><line style="stroke:#181818;stroke-width:0.5;" x1="108.58" x2="281.5956" y1="221.8906" y2="221.8906"/><text fill="#000000" font-family="sans-serif" font-size="14" lengthAdjust="spacing" textLength="153.0156" x="118.58" y="213.5889">VerificandoCapacidad</text></g><ellipse cx="195.09" cy="309.5938" fill="#FFFFFF" fill-opacity="0.00000" rx="11" ry="11" style="stroke:#222222;stroke-width:1;"/><ellipse cx="195.09" cy="309.5938" fill="#222222" rx="6" ry="6" style="stroke:#222222;stroke-width:1;"/><!--link *start*Libre to VerificandoCapacidad--><g id="link_*start*Libre_VerificandoCapacidad"><path d="M195.09,159.0338 C195.09,168.2938 195.09,176.7838 195.09,189.2738 " fill="#FFFFFF" fill-opacity="0.00000" id="*start*Libre-to-VerificandoCapacidad" style="stroke:#181818;stroke-width:1;"/><polygon fill="#181818" points="195.09,195.2738,199.09,186.2738,195.09,190.2738,191.09,186.2738,195.09,195.2738" style="stroke:#181818;stroke-width:1;"/></g><!--link VerificandoCapacidad to *end*Libre--><g id="link_VerificandoCapacidad_*end*Libre"><path d="M195.09,245.8238 C195.09,263.1238 195.09,279.5138 195.09,292.3438 " fill="#FFFFFF" fill-opacity="0.00000" id="VerificandoCapacidad-to-*end*Libre" style="stroke:#181818;stroke-width:1;"/><polygon fill="#181818" points="195.09,298.3438,199.09,289.3438,195.09,293.3438,191.09,289.3438,195.09,298.3438" style="stroke:#181818;stroke-width:1;"/><text fill="#000000" font-family="sans-serif" font-size="13" lengthAdjust="spacing" textLength="85.2046" x="196.09" y="276.6606">No est&#225; llena</text></g><path d="M31.5,383.5869 L248.3812,383.5869 A12.5,12.5 0 0 1 260.8812,396.0869 L260.8812,409.8838 L19,409.8838 L19,396.0869 A12.5,12.5 0 0 1 31.5,383.5869 " fill="#F1F1F1" style="stroke:#F1F1F1;stroke-width:1;"/><rect fill="#FFFFFF" fill-opacity="0.00000" height="332.2969" rx="12.5" ry="12.5" style="stroke:#181818;stroke-width:0.5;" width="241.8812" x="19" y="383.5869"/><line style="stroke:#181818;stroke-width:0.5;" x1="19" x2="260.8812" y1="409.8838" y2="409.8838"/><text fill="#000000" font-family="sans-serif" font-size="14" lengthAdjust="spacing" textLength="72.6523" x="103.6144" y="401.582">EnProceso</text><ellipse cx="125.41" cy="430.8838" fill="#222222" rx="10" ry="10" style="stroke:#222222;stroke-width:1;"/><g id="Asignatura.EnProceso.ValidandoDisponibilidad"><rect fill="#F1F1F1" height="50" rx="12.5" ry="12.5" style="stroke:#181818;stroke-width:0.5;" width="188.8135" x="31" y="477.8838"/><line style="stroke:#181818;stroke-width:0.5;" x1="31" x2="219.8135" y1="504.1806" y2="504.1806"/><text fill="#000000" font-family="sans-serif" font-size="14" lengthAdjust="spacing" textLength="168.8135" x="41" y="495.8789">ValidandoDisponibilidad</text></g><g id="Asignatura.EnProceso.AsignandoProfesores"><rect fill="#F1F1F1" height="50" rx="12.5" ry="12.5" style="stroke:#181818;stroke-width:0.5;" width="167.2529" x="41.78" y="580.8838"/><line style="stroke:#181818;stroke-width:0.5;" x1="41.78" x2="209.0329" y1="607.1806" y2="607.1806"/><text fill="#000000" font-family="sans-serif" font-size="14" lengthAdjust="spacing" textLength="147.2529" x="51.78" y="598.8789">AsignandoProfesores</text></g><ellipse cx="125.41" cy="694.8838" fill="#FFFFFF" fill-opacity="0.00000" rx="11" ry="11" style="stroke:#222222;stroke-width:1;"/><ellipse cx="125.41" cy="694.8838" fill="#222222" rx="6" ry="6" style="stroke:#222222;stroke-width:1;"/><!--link *start*EnProceso to ValidandoDisponibilidad--><g id="link_*start*EnProceso_ValidandoDisponibilidad"><path d="M125.41,441.3238 C125.41,450.5838 125.41,459.0738 125.41,471.5638 " fill="#FFFFFF" fill-opacity="0.00000" id="*start*EnProceso-to-ValidandoDisponibilidad" style="stroke:#181818;stroke-width:1;"/><polygon fill="#181818" points="125.41,477.5638,129.41,468.5638,125.41,472.5638,121.41,468.5638,125.41,477.5638" style="stroke:#181818;stroke-width:1;"/></g><!--link ValidandoDisponibilidad to AsignandoProfesores--><g id="link_ValidandoDisponibilidad_AsignandoProfesores"><path d="M125.41,528.3338 C125.41,544.2138 125.41,558.8238 125.41,574.6638 " fill="#FFFFFF" fill-opacity="0.00000" id="ValidandoDisponibilidad-to-AsignandoProfesores" style="stroke:#181818;stroke-width:1;"/><polygon fill="#181818" points="125.41,580.6638,129.41,571.6638,125.41,575.6638,121.41,571.6638,125.41,580.6638" style="stroke:#181818;stroke-width:1;"/><text fill="#000000" font-family="sans-serif" font-size="13" lengthAdjust="spacing" textLength="124.4712" x="126.41" y="558.9506">Profesor disponible</text></g><!--link AsignandoProfesores to *end*EnProceso--><g id="link_AsignandoProfesores_*end*EnProceso"><path d="M125.41,631.1138 C125.41,648.4138 125.41,664.8038 125.41,677.6338 " fill="#FFFFFF" fill-opacity="0.00000" id="AsignandoProfesores-to-*end*EnProceso" style="stroke:#181818;stroke-width:1;"/><polygon fill="#181818" points="125.41,683.6338,129.41,674.6338,125.41,678.6338,121.41,674.6338,125.41,683.6338" style="stroke:#181818;stroke-width:1;"/><text fill="#000000" font-family="sans-serif" font-size="13" lengthAdjust="spacing" textLength="116.9302" x="126.41" y="661.9506">Profesor asignado</text></g><ellipse cx="193.94" cy="54.2969" fill="#222222" rx="10" ry="10" style="stroke:#222222;stroke-width:1;"/><g id="Asignatura.Completa"><rect fill="#F1F1F1" height="50" rx="12.5" ry="12.5" style="stroke:#181818;stroke-width:0.5;" width="87.4365" x="187.22" y="768.8869"/><line style="stroke:#181818;stroke-width:0.5;" x1="187.22" x2="274.6565" y1="795.1838" y2="795.1838"/><text fill="#000000" font-family="sans-serif" font-size="14" lengthAdjust="spacing" textLength="67.4365" x="197.22" y="786.882">Completa</text></g><!--link *start*Asignatura to Libre--><g id="link_*start*Asignatura_Libre"><path d="M193.94,64.3369 C193.94,72.5769 193.94,79.7769 193.94,95.0169 " fill="#FFFFFF" fill-opacity="0.00000" id="*start*Asignatura-to-Libre" style="stroke:#181818;stroke-width:1;"/><polygon fill="#181818" points="193.94,101.0169,197.94,92.0169,193.94,96.0169,189.94,92.0169,193.94,101.0169" style="stroke:#181818;stroke-width:1;"/></g><!--link Libre to EnProceso--><g id="link_Libre_EnProceso"><path d="M96.4,290.7969 C80.33,307.8769 65.99,327.3469 56.94,348.5869 C52.15,359.8369 50.0381,365.4582 49.7881,377.1682 " fill="#FFFFFF" fill-opacity="0.00000" id="Libre-to-EnProceso" style="stroke:#181818;stroke-width:1;"/><polygon fill="#181818" points="49.66,383.1669,53.8512,374.2543,49.7667,378.168,45.853,374.0835,49.66,383.1669" style="stroke:#181818;stroke-width:1;"/><text fill="#000000" font-family="sans-serif" font-size="13" lengthAdjust="spacing" textLength="113.6484" x="57.94" y="361.6538">Iniciar asignaci&#243;n</text></g><!--link EnProceso to Completa--><g id="link_EnProceso_Completa"><path d="M125.8,716.2869 C129.19,728.5069 134.1,740.2069 140.94,750.8869 C151.26,767.0069 163.8977,775.024 181.3077,781.224 " fill="#FFFFFF" fill-opacity="0.00000" id="EnProceso-to-Completa" style="stroke:#181818;stroke-width:1;"/><polygon fill="#181818" points="186.96,783.2369,179.8235,776.4494,182.2498,781.5595,177.1397,783.9858,186.96,783.2369" style="stroke:#181818;stroke-width:1;"/><text fill="#000000" font-family="sans-serif" font-size="13" lengthAdjust="spacing" textLength="166.3403" x="141.94" y="746.9538">Todas las horas cubiertas</text></g><!--link Completa to Libre--><g id="link_Completa_Libre"><path d="M274.98,779.2269 C288.24,772.8269 301.29,763.6969 308.94,750.8869 C400.7,597.2669 353.14,517.0969 292.94,348.5869 C290.82,342.6669 290.9258,342.2011 288.1558,336.4011 " fill="#FFFFFF" fill-opacity="0.00000" id="Completa-to-Libre" style="stroke:#181818;stroke-width:1;"/><polygon fill="#181818" points="285.57,330.9869,285.8392,340.8321,287.7248,335.4987,293.0581,337.3844,285.57,330.9869" style="stroke:#181818;stroke-width:1;"/><text fill="#000000" font-family="sans-serif" font-size="13" lengthAdjust="spacing" textLength="36.8989" x="360.94" y="554.3038">Reset</text></g><!--link EnProceso to Libre--><g id="link_EnProceso_Libre"><path d="M169.01,383.5469 C170.01,377.4869 170.99,371.4869 171.94,365.5869 C173.75,354.3869 174.6711,348.6276 176.4611,336.9476 " fill="#FFFFFF" fill-opacity="0.00000" id="EnProceso-to-Libre" style="stroke:#181818;stroke-width:1;"/><polygon fill="#181818" points="177.37,331.0169,172.0528,339.3071,176.6126,335.9592,179.9605,340.519,177.37,331.0169" style="stroke:#181818;stroke-width:1;"/><text fill="#000000" font-family="sans-serif" font-size="13" lengthAdjust="spacing" textLength="112.9058" x="175.94" y="361.6538">Cancelar proceso</text></g><!--SRC=[VP51QWCn34NtFONMXLp0YqAPTX48fPJIJUX2OokjmBK6orc57APdw15oiJgU6Kz2PsgmCTP_-fAi2HF1lV97mBIF28SR6DRszXrMgplOS1kfljQB5h84Bw1By8qYxzXYSD9WXvOTkYlXdA2GEOE19m7ITFe6xobW1OzBfJo6voYML9RAGPyDijS3QoU1M_P_AvhN5BuVKevbcrssYQG6nZku0V1qbN06cZgiC1QLa_-Qx2TzPckZ1jQ1BUEOmFBf9rHWciSPQkIhyvJGmAiuLF1vVqhCfzstJ36XLdBKJjzlu8MKqaBkGT9WiEHpDLqVA-hZBm00]--></g></svg>