<svg xmlns="http://www.w3.org/2000/svg" xmlns:xlink="http://www.w3.org/1999/xlink" contentStyleType="text/css" data-diagram-type="DESCRIPTION" height="741px" preserveAspectRatio="none" style="width:907px;height:741px;background:#FFFFFF;" version="1.1" viewBox="0 0 907 741" width="907px" zoomAndPan="magnify"><defs/><g><!--cluster datosAcadPackage--><g id="cluster_datosAcadPackage"><path d="M126.33,6 L271.6503,6 A3.75,3.75 0 0 1 274.1503,8.5 L281.1503,28.2969 L898.08,28.2969 A2.5,2.5 0 0 1 900.58,30.7969 L900.58,731.5 A2.5,2.5 0 0 1 898.08,734 L126.33,734 A2.5,2.5 0 0 1 123.83,731.5 L123.83,8.5 A2.5,2.5 0 0 1 126.33,6 " fill="transparent" style="stroke:#000000;stroke-width:1.5;"/><line style="stroke:#000000;stroke-width:1.5;" x1="123.83" x2="281.1503" y1="28.2969" y2="28.2969"/><text fill="#000000" font-family="sans-serif" font-size="14" font-weight="bold" lengthAdjust="spacing" textLength="144.3203" x="127.83" y="20.9951">Datos Acad&#233;micos</text></g><!--cluster Tipos Acad?micos--><g id="cluster_Tipos Acad&#233;micos"><path d="M515.27,49 L657.1997,49 A3.75,3.75 0 0 1 659.6997,51.5 L666.6997,71.2969 L874.08,71.2969 A2.5,2.5 0 0 1 876.58,73.7969 L876.58,707.5 A2.5,2.5 0 0 1 874.08,710 L515.27,710 A2.5,2.5 0 0 1 512.77,707.5 L512.77,51.5 A2.5,2.5 0 0 1 515.27,49 " fill="transparent" style="stroke:#000000;stroke-width:1.5;"/><line style="stroke:#000000;stroke-width:1.5;" x1="512.77" x2="666.6997" y1="71.2969" y2="71.2969"/><text fill="#000000" font-family="sans-serif" font-size="14" font-weight="bold" lengthAdjust="spacing" textLength="140.9297" x="516.77" y="63.9951">Tipos Acad&#233;micos</text></g><g id="elem_datosAcad"><ellipse cx="304.3022" cy="368.0044" fill="#F1F1F1" rx="164.4722" ry="35.2944" style="stroke:#181818;stroke-width:0.5;"/><text fill="#000000" font-family="sans-serif" font-size="20" lengthAdjust="spacing" textLength="288.5156" x="157.0444" y="374.5367">Introducir Datos Acad&#233;micos</text></g><g id="elem_notaDatosAcad"><path d="M220.32,149.87 L220.32,190.1356 L388.2809,190.1356 L388.2809,159.87 L378.2809,149.87 L220.32,149.87 " fill="#FEFFDD" style="stroke:#181818;stroke-width:0.5;"/><path d="M378.2809,149.87 L378.2809,159.87 L388.2809,159.87 L378.2809,149.87 " fill="#FEFFDD" style="stroke:#181818;stroke-width:1;"/><text fill="#000000" font-family="sans-serif" font-size="13" lengthAdjust="spacing" textLength="146.9609" x="226.32" y="166.9369">Permitir heredar datos</text><text fill="#000000" font-family="sans-serif" font-size="13" lengthAdjust="spacing" textLength="103.8413" x="226.32" y="182.0697">del a&#241;o anterior</text></g><g id="elem_expDoc"><ellipse cx="694.6817" cy="663.0003" fill="#F1F1F1" rx="142.0517" ry="30.8103" style="stroke:#181818;stroke-width:0.5;"/><text fill="#000000" font-family="sans-serif" font-size="20" lengthAdjust="spacing" textLength="238.5156" x="572.4239" y="669.5326">de Experiencia Docente</text></g><g id="elem_expProf"><ellipse cx="694.6814" cy="564.0043" fill="#F1F1F1" rx="153.9714" ry="33.1943" style="stroke:#181818;stroke-width:0.5;"/><text fill="#000000" font-family="sans-serif" font-size="20" lengthAdjust="spacing" textLength="265.3223" x="559.0203" y="570.5365">de Experiencia Profesional</text></g><g id="elem_expInv"><ellipse cx="694.6829" cy="460.0006" fill="#F1F1F1" rx="165.9029" ry="35.5806" style="stroke:#181818;stroke-width:0.5;"/><text fill="#000000" font-family="sans-serif" font-size="20" lengthAdjust="spacing" textLength="291.6504" x="545.8577" y="466.5328">de Experiencia Investigadora</text></g><g id="elem_sexenios"><ellipse cx="694.6781" cy="367.9996" fill="#F1F1F1" rx="94.8981" ry="21.3796" style="stroke:#181818;stroke-width:0.5;"/><text fill="#000000" font-family="sans-serif" font-size="20" lengthAdjust="spacing" textLength="121.3867" x="630.9847" y="374.5318">de Sexenios</text></g><g id="elem_acred"><ellipse cx="694.6759" cy="286.0032" fill="#F1F1F1" rx="116.8159" ry="25.7632" style="stroke:#181818;stroke-width:0.5;"/><text fill="#000000" font-family="sans-serif" font-size="20" lengthAdjust="spacing" textLength="179.1016" x="602.1251" y="292.5354">de Acreditaciones</text></g><g id="elem_mov"><ellipse cx="694.6758" cy="203.0032" fill="#F1F1F1" rx="96.8658" ry="21.7732" style="stroke:#181818;stroke-width:0.5;"/><text fill="#000000" font-family="sans-serif" font-size="20" lengthAdjust="spacing" textLength="127.002" x="628.1749" y="209.5354">de Movilidad</text></g><g id="elem_titProf"><ellipse cx="694.6766" cy="114.9973" fill="#F1F1F1" rx="145.2866" ry="31.4573" style="stroke:#181818;stroke-width:0.5;"/><text fill="#000000" font-family="sans-serif" font-size="20" lengthAdjust="spacing" textLength="245.8496" x="568.7518" y="121.5295">de Titulaci&#243;n Profesional</text></g><!--entity prof--><g id="elem_prof"><ellipse cx="42.9141" cy="338.35" fill="#F1F1F1" rx="8" ry="8" style="stroke:#181818;stroke-width:0.5;"/><path d="M42.9141,346.35 L42.9141,373.35 M29.9141,354.35 L55.9141,354.35 M42.9141,373.35 L29.9141,388.35 M42.9141,373.35 L55.9141,388.35 " fill="transparent" style="stroke:#181818;stroke-width:0.5;"/><text fill="#000000" font-family="sans-serif" font-size="14" lengthAdjust="spacing" textLength="73.8281" x="6" y="402.8451">Profesores</text></g><!--link datosAcad to expDoc--><g id="link_datosAcad_expDoc"><path d="M324,403.52 C354.41,457.73 419.86,560.56 504.77,615 C526.28,628.79 545.7542,636.9953 570.6742,644.0053 " fill="transparent" id="datosAcad-to-expDoc" style="stroke:#181818;stroke-width:1;stroke-dasharray:7.0,7.0;"/><polygon fill="#181818" points="576.45,645.63,568.8694,639.3423,571.6368,644.276,566.7031,647.0434,576.45,645.63" style="stroke:#181818;stroke-width:1;"/></g><!--link datosAcad to expProf--><g id="link_datosAcad_expProf"><path d="M343.79,402.65 C382.07,435.42 443.75,483.81 504.77,513 C528.83,524.51 550.1133,532.1284 576.0833,539.4184 " fill="transparent" id="datosAcad-to-expProf" style="stroke:#181818;stroke-width:1;stroke-dasharray:7.0,7.0;"/><polygon fill="#181818" points="581.86,541.04,574.276,534.7565,577.0461,539.6887,572.1139,542.4588,581.86,541.04" style="stroke:#181818;stroke-width:1;"/></g><!--link datosAcad to expInv--><g id="link_datosAcad_expInv"><path d="M416.07,394.24 C468.09,406.56 524.1217,419.8366 576.2417,432.1866 " fill="transparent" id="datosAcad-to-expInv" style="stroke:#181818;stroke-width:1;stroke-dasharray:7.0,7.0;"/><polygon fill="#181818" points="582.08,433.57,574.2448,427.6027,577.2147,432.4172,572.4002,435.3871,582.08,433.57" style="stroke:#181818;stroke-width:1;"/></g><!--link datosAcad to sexenios--><g id="link_datosAcad_sexenios"><path d="M469.16,368 C513.6,368 554.21,368 593.37,368 " fill="transparent" id="datosAcad-to-sexenios" style="stroke:#181818;stroke-width:1;stroke-dasharray:7.0,7.0;"/><polygon fill="#181818" points="599.37,368,590.37,364,594.37,368,590.37,372,599.37,368" style="stroke:#181818;stroke-width:1;"/></g><!--link datosAcad to acred--><g id="link_datosAcad_acred"><path d="M422.88,343.17 C482.82,330.52 548.4993,316.649 602.9893,305.149 " fill="transparent" id="datosAcad-to-acred" style="stroke:#181818;stroke-width:1;stroke-dasharray:7.0,7.0;"/><polygon fill="#181818" points="608.86,303.91,599.228,301.8547,603.9678,304.9425,600.88,309.6823,608.86,303.91" style="stroke:#181818;stroke-width:1;"/></g><!--link datosAcad to mov--><g id="link_datosAcad_mov"><path d="M349.57,333.84 C388.44,305.46 447.56,266.13 504.77,243 C538.18,229.49 570.9377,221.3483 604.5477,215.2083 " fill="transparent" id="datosAcad-to-mov" style="stroke:#181818;stroke-width:1;stroke-dasharray:7.0,7.0;"/><polygon fill="#181818" points="610.45,214.13,600.8777,211.8125,605.5314,215.0285,602.3154,219.6823,610.45,214.13" style="stroke:#181818;stroke-width:1;"/></g><!--link datosAcad to titProf--><g id="link_datosAcad_titProf"><path d="M343.15,333.22 C377.05,301.54 427.63,252.98 468.77,208 C485.83,189.36 483.49,177.62 504.77,164 C526.17,150.3 545.4837,142.0782 570.2437,134.9582 " fill="transparent" id="datosAcad-to-titProf" style="stroke:#181818;stroke-width:1;stroke-dasharray:7.0,7.0;"/><polygon fill="#181818" points="576.01,133.3,566.2551,131.943,571.2047,134.6818,568.466,139.6315,576.01,133.3" style="stroke:#181818;stroke-width:1;"/></g><!--link prof to datosAcad--><g id="link_prof_datosAcad"><path d="M80.25,368 C96.71,368 111.42,368 133.56,368 " fill="transparent" id="prof-to-datosAcad" style="stroke:#181818;stroke-width:1;"/><polygon fill="#181818" points="139.56,368,130.56,364,134.56,368,130.56,372,139.56,368" style="stroke:#181818;stroke-width:1;"/></g><!--SRC=[XLBBQiD03BplLmZV4qe_81182paK0icn5x6h92BsokpA8RJaWtei_OJyMDVFuiOG7mmQPZGhZNBQAwX0uCDHmN4WgopUc7XYNsB00gf85YF1fu7qlOhNBNyGF3-Pgp5eLG9aco1xYX8ePe0HobGQKw8zuO4WMw5AXAL5T_igs4fBSZLQWvkErnhqTjdQQn1NMGxme85fX8FTZil_xBRrgBqZUBcK59YyPOILMF9AJMEwbAbyA6c7Jjl2l9VLq4FTsfyfAX_GIS1UcS19uPOkvBcRE7R597Df0pbMjEb5NGvOGvFaDpbppWvTmojasdp7MkMfuUt7tqshhCEqr-RlHPDiGw5WJQ4TAPbZQ6DwzuvomDkt0AOr1vRGT4aQN0qvfeCQGeNvVD4dSGSspdTelSCnE2ni3BTx6MFr3iP8Fw6fpnbciyNVnVq2]--></g></svg>