<svg xmlns="http://www.w3.org/2000/svg" xmlns:xlink="http://www.w3.org/1999/xlink" contentStyleType="text/css" data-diagram-type="DESCRIPTION" height="151px" preserveAspectRatio="none" style="width:353px;height:151px;background:#FFFFFF;" version="1.1" viewBox="0 0 353 151" width="353px" zoomAndPan="magnify"><defs/><g><!--entity rrhh--><g id="elem_rrhh"><ellipse cx="26.2549" cy="78.48" fill="#F1F1F1" rx="8" ry="8" style="stroke:#181818;stroke-width:0.5;"/><path d="M26.2549,86.48 L26.2549,113.48 M13.2549,94.48 L39.2549,94.48 M26.2549,113.48 L13.2549,128.48 M26.2549,113.48 L39.2549,128.48 " fill="#FFFFFF" fill-opacity="0.00000" style="stroke:#181818;stroke-width:0.5;"/><text fill="#000000" font-family="sans-serif" font-size="14" lengthAdjust="spacing" textLength="40.5098" x="6" y="142.9751">RRHH</text></g><g id="elem_valDatos"><ellipse cx="227.0742" cy="108.1328" fill="#F1F1F1" rx="120.5642" ry="26.5128" style="stroke:#181818;stroke-width:0.5;"/><text fill="#000000" font-family="sans-serif" font-size="14" lengthAdjust="spacing" textLength="208.5576" x="122.7954" y="110.9795">Validar Datos del Profesorado</text></g><g id="elem_GMN4"><path d="M111.87,6 L111.87,46.2656 A0,0 0 0 0 111.87,46.2656 L223.07,46.2656 L227.07,81.23 L231.07,46.2656 L342.2728,46.2656 A0,0 0 0 0 342.2728,46.2656 L342.2728,16 L332.2728,6 L111.87,6 A0,0 0 0 0 111.87,6 " fill="#FEFFDD" style="stroke:#181818;stroke-width:0.5;"/><path d="M332.2728,6 L332.2728,16 L342.2728,16 L332.2728,6 " fill="#FEFFDD" style="stroke:#181818;stroke-width:0.5;"/><text fill="#000000" font-family="sans-serif" font-size="13" lengthAdjust="spacing" textLength="209.4028" x="117.87" y="23.0669">Datos introducidos previamente</text><text fill="#000000" font-family="sans-serif" font-size="13" lengthAdjust="spacing" textLength="119.793" x="117.87" y="38.1997">por el profesorado</text></g><!--link rrhh to valDatos--><g id="link_rrhh_valDatos"><path d="M46.68,108.13 C61.43,108.13 77.09,108.13 100.29,108.13 " fill="#FFFFFF" fill-opacity="0.00000" id="rrhh-to-valDatos" style="stroke:#181818;stroke-width:1;"/><polygon fill="#181818" points="106.29,108.13,97.29,104.13,101.29,108.13,97.29,112.13,106.29,108.13" style="stroke:#181818;stroke-width:1;"/></g><!--SRC=[HOwn3iCm24HtlW9bpozqwf2noj0T6T8WkSR29DzV9v4QjWFktMLP0iFGzRC6ihgaK2i0bC8SXtcUfW6feVkw0cnD4ZN1uKrPcHoV5DQG9UFBRP5cJcodOQTy7g5OI8-eQCkzn3wNLqkuyPQKkwWkkz9NIiZvKdk7pgut6wGm7aY0enAEu-DF_G40]--></g></svg>