<svg xmlns="http://www.w3.org/2000/svg" xmlns:xlink="http://www.w3.org/1999/xlink" contentStyleType="text/css" data-diagram-type="DESCRIPTION" height="231px" preserveAspectRatio="none" style="width:355px;height:231px;background:#FFFFFF;" version="1.1" viewBox="0 0 355 231" width="355px" zoomAndPan="magnify"><defs/><g><!--cluster Recordatorios--><g id="cluster_Recordatorios"><path d="M8.5,106.79 L120.0303,106.79 A3.75,3.75 0 0 1 122.5303,109.29 L129.5303,129.0869 L345.5,129.0869 A2.5,2.5 0 0 1 348,131.5869 L348,222.25 A2.5,2.5 0 0 1 345.5,224.75 L8.5,224.75 A2.5,2.5 0 0 1 6,222.25 L6,109.29 A2.5,2.5 0 0 1 8.5,106.79 " fill="none" style="stroke:#000000;stroke-width:1.5;"/><line style="stroke:#000000;stroke-width:1.5;" x1="6" x2="129.5303" y1="129.0869" y2="129.0869"/><text fill="#000000" font-family="sans-serif" font-size="14" font-weight="bold" lengthAdjust="spacing" textLength="110.5303" x="10" y="121.7851">Recordatorios</text></g><g id="elem_R1"><ellipse cx="177.0015" cy="175.2683" fill="#F1F1F1" rx="155.3915" ry="33.4783" style="stroke:#181818;stroke-width:0.5;"/><text fill="#000000" font-family="sans-serif" font-size="14" lengthAdjust="spacing" textLength="281.6885" x="36.1572" y="178.115">Enviar recordatorio de acci&#243;n pendiente</text></g><!--entity Tiempo--><g id="elem_Tiempo"><ellipse cx="177.0023" cy="14" fill="#F1F1F1" rx="8" ry="8" style="stroke:#181818;stroke-width:0.5;"/><path d="M177.0023,22 L177.0023,49 M164.0023,30 L190.0023,30 M177.0023,49 L164.0023,64 M177.0023,49 L190.0023,64 " fill="none" style="stroke:#181818;stroke-width:0.5;"/><text fill="#000000" font-family="sans-serif" font-size="14" lengthAdjust="spacing" textLength="52.1445" x="150.93" y="78.4951">Tiempo</text></g><!--link Tiempo to R1--><g id="link_Tiempo_R1"><path d="M177,82.14 C177,100.98 177,117.59 177,135.7 " fill="none" id="Tiempo-to-R1" style="stroke:#181818;stroke-width:1;"/><polygon fill="#181818" points="177,141.7,181,132.7,177,136.7,173,132.7,177,141.7" style="stroke:#181818;stroke-width:1;"/></g><!--SRC=[JOsn3O0m40Fxdy9AJy42T2o0ME3rUQ4N8eaIe45CnGWiHWGDhYpxPBEiCSEDfakA3bpmMQB4ClEaS8DAp9uhPx4u78IghQXmgMqVTkEC_8FW5InYznMGD7ZJiEgxFRHq4dqFQ9gk1Wy0]--></g></svg>