<svg xmlns="http://www.w3.org/2000/svg" xmlns:xlink="http://www.w3.org/1999/xlink" contentStyleType="text/css" height="736px" preserveAspectRatio="none" style="width:380px;height:736px;background:#FFFFFF;" version="1.1" viewBox="0 0 380 736" width="380px" zoomAndPan="magnify"><defs/><g><rect fill="#F1F1F1" height="40" rx="12.5" ry="12.5" style="stroke:#181818;stroke-width:0.5;" width="160.6982" x="106.65" y="7"/><text fill="#000000" font-family="sans-serif" font-size="14" lengthAdjust="spacing" textLength="150.6982" x="111.65" y="31.8467">LISTANDO_ACCIONES</text><rect fill="#F1F1F1" height="40" rx="12.5" ry="12.5" style="stroke:#181818;stroke-width:0.5;" width="142.9658" x="115.52" y="690.3"/><text fill="#000000" font-family="sans-serif" font-size="14" lengthAdjust="spacing" textLength="132.9658" x="120.52" y="715.1467">LISTANDO_ACCION</text><path d="M19.5,157 L354.5,157 A12.5,12.5 0 0 1 367,169.5 L367,183.2969 L7,183.2969 L7,169.5 A12.5,12.5 0 0 1 19.5,157 " fill="#F1F1F1" style="stroke:#F1F1F1;stroke-width:1;"/><rect fill="none" height="472.2969" rx="12.5" ry="12.5" style="stroke:#181818;stroke-width:0.5;" width="360" x="7" y="157"/><line style="stroke:#181818;stroke-width:0.5;" x1="7" x2="367" y1="183.2969" y2="183.2969"/><text fill="#000000" font-family="sans-serif" font-size="14" lengthAdjust="spacing" textLength="85.1074" x="144.4463" y="174.9951">ListarAccion</text><rect fill="#F1F1F1" height="40" rx="12.5" ry="12.5" style="stroke:#181818;stroke-width:0.5;" width="50" x="108" y="195.2969"/><text fill="#000000" font-family="sans-serif" font-size="14" lengthAdjust="spacing" textLength="4.4502" x="130.7749" y="220.1436">&#160;</text><rect fill="#F1F1F1" height="40" rx="12.5" ry="12.5" style="stroke:#181818;stroke-width:0.5;" width="50" x="19" y="356.2969"/><text fill="#000000" font-family="sans-serif" font-size="14" lengthAdjust="spacing" textLength="4.4502" x="41.7749" y="381.1436">&#160;</text><g id="elem_revisionFiltrosEnviados"><polygon fill="#F1F1F1" points="133,487.2969,145,499.2969,133,511.2969,121,499.2969,133,487.2969" style="stroke:#181818;stroke-width:0.5;"/></g><ellipse cx="133" cy="608.2969" fill="none" rx="11" ry="11" style="stroke:#222222;stroke-width:1;"/><ellipse cx="133" cy="608.2969" fill="#222222" rx="6" ry="6" style="stroke:#222222;stroke-width:1;"/><!--link solicitudFiltros to envioFiltros--><g id="link_solicitudFiltros_envioFiltros"><path d="M107.73,226.7969 C81.42,237.7369 44,253.2969 44,253.2969 C44,253.2969 44,315.5669 44,349.9669 " fill="none" id="solicitudFiltros-to-envioFiltros" style="stroke:#008000;stroke-width:1;"/><polygon fill="#008000" points="44,355.9669,48,346.9669,44,350.9669,40,346.9669,44,355.9669" style="stroke:#008000;stroke-width:1;"/><path d="M49,258.2969 L49,328.2969 L204,328.2969 L204,268.2969 L194,258.2969 L49,258.2969 " fill="#F5F5F5" style="stroke:#008000;stroke-width:0.5;"/><path d="M194,258.2969 L194,268.2969 L204,268.2969 L194,258.2969 " fill="#F5F5F5" style="stroke:#008000;stroke-width:0.5;"/><text fill="#000000" font-family="sans-serif" font-size="13" font-weight="bold" lengthAdjust="spacing" textLength="117.7871" x="55" y="275.3638">Sistema Solicita</text><ellipse cx="60.5" cy="286.0625" fill="#000000" rx="2.5" ry="2.5" style="stroke:#000000;stroke-width:0;"/><text fill="#000000" font-family="sans-serif" font-size="13" lengthAdjust="spacing" textLength="94.377" x="67" y="290.4966">Id de la acci&#243;n</text><text fill="#000000" font-family="sans-serif" font-size="13" font-weight="bold" lengthAdjust="spacing" textLength="121.2212" x="55" y="305.6294">Sistema Permite</text><ellipse cx="60.5" cy="316.3281" fill="#000000" rx="2.5" ry="2.5" style="stroke:#000000;stroke-width:0;"/><text fill="#000000" font-family="sans-serif" font-size="13" lengthAdjust="spacing" textLength="122.4082" x="67" y="320.7622">Listar datos acci&#243;n</text></g><!--link envioFiltros to revisionFiltrosEnviados--><g id="link_envioFiltros_revisionFiltrosEnviados"><path d="M44.62,396.3569 C45.5,423.3069 47,469.2969 47,469.2969 C47,469.2969 97.0042,486.1607 118.7542,493.4907 " fill="none" id="envioFiltros-to-revisionFiltrosEnviados" style="stroke:#008000;stroke-width:1;"/><polygon fill="#008000" points="124.44,495.4069,117.1888,488.7421,119.7018,493.8101,114.6339,496.3231,124.44,495.4069" style="stroke:#008000;stroke-width:1;"/><path d="M52,424.2969 L52,464.2969 L204,464.2969 L204,434.2969 L194,424.2969 L52,424.2969 " fill="#F5F5F5" style="stroke:#008000;stroke-width:0.5;"/><path d="M194,424.2969 L194,434.2969 L204,434.2969 L194,424.2969 " fill="#F5F5F5" style="stroke:#008000;stroke-width:0.5;"/><text fill="#000000" font-family="sans-serif" font-size="13" font-weight="bold" lengthAdjust="spacing" textLength="131.3774" x="58" y="441.3638">Usuario Introduce</text><ellipse cx="63.5" cy="452.0625" fill="#000000" rx="2.5" ry="2.5" style="stroke:#000000;stroke-width:0;"/><text fill="#000000" font-family="sans-serif" font-size="13" lengthAdjust="spacing" textLength="94.377" x="70" y="456.4966">Id de la acci&#243;n</text></g><!--link revisionFiltrosEnviados to solicitudFiltros--><g id="link_revisionFiltrosEnviados_solicitudFiltros"><path d="M141.42,495.0869 C161.21,487.5369 209,469.2969 209,469.2969 C209,469.2969 209,253.2969 209,253.2969 C209,253.2969 185.815,242.0024 163.705,231.2424 " fill="none" id="revisionFiltrosEnviados-to-solicitudFiltros" style="stroke:#FF0000;stroke-width:1;"/><polygon fill="#FF0000" points="158.31,228.6169,164.6522,236.1519,162.8059,230.8048,168.1529,228.9585,158.31,228.6169" style="stroke:#FF0000;stroke-width:1;"/><path d="M214,356.2969 L214,396.2969 L358,396.2969 L358,366.2969 L348,356.2969 L214,356.2969 " fill="#F5F5F5" style="stroke:#008000;stroke-width:0.5;"/><path d="M348,356.2969 L348,366.2969 L358,366.2969 L348,356.2969 " fill="#F5F5F5" style="stroke:#008000;stroke-width:0.5;"/><text fill="#000000" font-family="sans-serif" font-size="13" font-weight="bold" lengthAdjust="spacing" textLength="123.5762" x="220" y="373.3638">Sistema Muestra</text><text fill="#000000" font-family="sans-serif" font-size="13" lengthAdjust="spacing" textLength="110.3032" x="220" y="388.4966">Mensaje de error</text></g><!--link revisionFiltrosEnviados to *end*ListarAccion--><g id="link_revisionFiltrosEnviados_*end*ListarAccion"><path d="M133,511.7469 C133,532.6669 133,570.7469 133,590.8769 " fill="none" id="revisionFiltrosEnviados-to-*end*ListarAccion" style="stroke:#008000;stroke-width:1;"/><polygon fill="#008000" points="133,596.8769,137,587.8769,133,591.8769,129,587.8769,133,596.8769" style="stroke:#008000;stroke-width:1;"/><path d="M138,534.2969 L138,574.2969 L282,574.2969 L282,544.2969 L272,534.2969 L138,534.2969 " fill="#F5F5F5" style="stroke:#008000;stroke-width:0.5;"/><path d="M272,534.2969 L272,544.2969 L282,544.2969 L272,534.2969 " fill="#F5F5F5" style="stroke:#008000;stroke-width:0.5;"/><text fill="#000000" font-family="sans-serif" font-size="13" font-weight="bold" lengthAdjust="spacing" textLength="123.5762" x="144" y="551.3638">Sistema Muestra</text><text fill="#000000" font-family="sans-serif" font-size="13" lengthAdjust="spacing" textLength="120.0913" x="144" y="566.4966">Datos de la acci&#243;n</text></g><!--link startState to ListarAccion--><g id="link_startState_ListarAccion"><path d="M187,47.32 C187,70.19 187,104.97 187,150.68 " fill="none" id="startState-to-ListarAccion" style="stroke:#008000;stroke-width:1;"/><polygon fill="#008000" points="187,156.68,191,147.68,187,151.68,183,147.68,187,156.68" style="stroke:#008000;stroke-width:1;"/><path d="M192,82 L192,122 L328,122 L328,92 L318,82 L192,82 " fill="#F5F5F5" style="stroke:#008000;stroke-width:0.5;"/><path d="M318,82 L318,92 L328,92 L318,82 " fill="#F5F5F5" style="stroke:#008000;stroke-width:0.5;"/><text fill="#000000" font-family="sans-serif" font-size="13" font-weight="bold" lengthAdjust="spacing" textLength="115.0005" x="198" y="99.0669">Usuario Solicita</text><ellipse cx="203.5" cy="109.7656" fill="#000000" rx="2.5" ry="2.5" style="stroke:#000000;stroke-width:0;"/><text fill="#000000" font-family="sans-serif" font-size="13" lengthAdjust="spacing" textLength="82.2339" x="210" y="114.1997">Listar acci&#243;n</text></g><!--link ListarAccion to endState--><g id="link_ListarAccion_endState"><path d="M187,629.77 C187,654.35 187,669.54 187,683.85 " fill="none" id="ListarAccion-to-endState" style="stroke:#008000;stroke-width:1;"/><polygon fill="#008000" points="187,689.85,191,680.85,187,684.85,183,680.85,187,689.85" style="stroke:#008000;stroke-width:1;"/></g><!--SRC=[dLFjQi8m5FsVfmZwJv2zG2auTL3mOz3jbyY8oKKpswJSf8eCdsgFi1VRxOVJwXIt_YX9xpdtddFIkBKscK2HyW_6wPbO3uz2hfTeSwFwDh78szkLzX2dTWqbfeTejtLfYG3coBIe02zAYJRWTndmp2QxOiFsZAsq0WvfvdTSWPEeCw-jOSnvuO7J6trSBeNZhL4Kl_GcW-bRhz-FffDXtAfnODHLLAjiTcZJxOPyf8iFFIbf4cU657DQaA9rgJDOXAyk5wWjZssYfVOYU5Y4PQrJaxaWzjUdOJIP5nqOQtGjnXn47Smq05NEjSjgIgwUTEBHkj85RvqWm6oqlLf5s6X7JMl0aC124J08vCfg2M78AlJvd4hbiNM9kiYZpYGc-P2AoqogN2951yWJyPFCBzHdm9J-eJDcdQWIlZ1tmZvcM-rECYYKNx5zqyJXO2D359LBkCT5KyUrjBkpDeAQax3pdE-ATPo3yzXCTGp6YNSe907TDloB6j8nwyp_FNfGdiQDBFRV]--></g></svg>