<svg xmlns="http://www.w3.org/2000/svg" xmlns:xlink="http://www.w3.org/1999/xlink" contentStyleType="text/css" data-diagram-type="STATE" height="764px" preserveAspectRatio="none" style="width:380px;height:764px;background:#FFFFFF;" version="1.1" viewBox="0 0 380 764" width="380px" zoomAndPan="magnify"><defs/><g><rect fill="#F1F1F1" height="40" rx="12.5" ry="12.5" style="stroke:#181818;stroke-width:0.5;" width="160.6982" x="106.65" y="7"/><text fill="#000000" font-family="sans-serif" font-size="14" lengthAdjust="spacing" textLength="150.6982" x="111.65" y="31.8467">LISTANDO_ACCIONES</text><rect fill="#F1F1F1" height="40" rx="12.5" ry="12.5" style="stroke:#181818;stroke-width:0.5;" width="142.9658" x="115.52" y="718.89"/><text fill="#000000" font-family="sans-serif" font-size="14" lengthAdjust="spacing" textLength="132.9658" x="120.52" y="743.7367">LISTANDO_ACCION</text><path d="M19.5,107 L354.5,107 A12.5,12.5 0 0 1 367,119.5 L367,133.2969 L7,133.2969 L7,119.5 A12.5,12.5 0 0 1 19.5,107 " fill="#F1F1F1" style="stroke:#F1F1F1;stroke-width:1;"/><rect fill="none" height="551.8869" rx="12.5" ry="12.5" style="stroke:#181818;stroke-width:0.5;" width="360" x="7" y="107"/><line style="stroke:#181818;stroke-width:0.5;" x1="7" x2="367" y1="133.2969" y2="133.2969"/><text fill="#000000" font-family="sans-serif" font-size="14" lengthAdjust="spacing" textLength="85.1074" x="144.4463" y="124.9951">ListarAccion</text><rect fill="#F1F1F1" height="40" rx="12.5" ry="12.5" style="stroke:#181818;stroke-width:0.5;" width="50" x="108" y="224.8869"/><text fill="#000000" font-family="sans-serif" font-size="14" lengthAdjust="spacing" textLength="4.4502" x="130.7749" y="249.7336">&#160;</text><rect fill="#F1F1F1" height="40" rx="12.5" ry="12.5" style="stroke:#181818;stroke-width:0.5;" width="50" x="19" y="385.8869"/><text fill="#000000" font-family="sans-serif" font-size="14" lengthAdjust="spacing" textLength="4.4502" x="41.7749" y="410.7336">&#160;</text><g id="elem_revisionFiltrosEnviados"><polygon fill="#F1F1F1" points="133,516.8869,145,528.8869,133,540.8869,121,528.8869,133,516.8869" style="stroke:#181818;stroke-width:0.5;"/></g><rect fill="#F1F1F1" height="42.5938" rx="12.5" ry="12.5" style="stroke:#181818;stroke-width:0.5;" width="143.8955" x="61.05" y="145.2969"/><text fill="#000000" font-family="sans-serif" font-size="14" font-weight="bold" lengthAdjust="spacing" textLength="129.4453" x="66.05" y="163.292">Usuario Solicita:</text><text fill="#000000" font-family="sans-serif" font-size="14" lengthAdjust="spacing" textLength="4.4502" x="195.4953" y="163.292">&#160;</text><text fill="#000000" font-family="sans-serif" font-size="14" lengthAdjust="spacing" textLength="104.4736" x="70.5002" y="179.5889">Ver una acci&#243;n</text><ellipse cx="133" cy="637.8869" fill="none" rx="11" ry="11" style="stroke:#222222;stroke-width:1;"/><ellipse cx="133" cy="637.8869" fill="#222222" rx="6" ry="6" style="stroke:#222222;stroke-width:1;"/><!--link usuarioSolicita to solicitudFiltros--><g id="link_usuarioSolicita_solicitudFiltros"><path d="M133,188.0369 C133,199.3369 133,207.2969 133,218.4369 " fill="none" id="usuarioSolicita-to-solicitudFiltros" style="stroke:#008000;stroke-width:1;"/><polygon fill="#008000" points="133,224.4369,137,215.4369,133,219.4369,129,215.4369,133,224.4369" style="stroke:#008000;stroke-width:1;"/></g><!--link solicitudFiltros to envioFiltros--><g id="link_solicitudFiltros_envioFiltros"><path d="M107.73,256.3869 C81.42,267.3269 44,282.8869 44,282.8869 C44,282.8869 44,345.1569 44,379.5569 " fill="none" id="solicitudFiltros-to-envioFiltros" style="stroke:#008000;stroke-width:1;"/><polygon fill="#008000" points="44,385.5569,48,376.5569,44,380.5569,40,376.5569,44,385.5569" style="stroke:#008000;stroke-width:1;"/><path d="M49,287.8869 L49,357.8869 L204,357.8869 L204,297.8869 L194,287.8869 L49,287.8869 " fill="#F5F5F5" style="stroke:#008000;stroke-width:0.5;"/><path d="M194,287.8869 L194,297.8869 L204,297.8869 L194,287.8869 " fill="#F5F5F5" style="stroke:#008000;stroke-width:0.5;"/><text fill="#000000" font-family="sans-serif" font-size="13" font-weight="bold" lengthAdjust="spacing" textLength="117.7871" x="55" y="304.9538">Sistema Solicita</text><ellipse cx="60.5" cy="315.6525" fill="#000000" rx="2.5" ry="2.5" style="stroke:#000000;stroke-width:0;"/><text fill="#000000" font-family="sans-serif" font-size="13" lengthAdjust="spacing" textLength="94.377" x="67" y="320.0866">Id de la acci&#243;n</text><text fill="#000000" font-family="sans-serif" font-size="13" font-weight="bold" lengthAdjust="spacing" textLength="121.2212" x="55" y="335.2194">Sistema Permite</text><ellipse cx="60.5" cy="345.9181" fill="#000000" rx="2.5" ry="2.5" style="stroke:#000000;stroke-width:0;"/><text fill="#000000" font-family="sans-serif" font-size="13" lengthAdjust="spacing" textLength="122.4082" x="67" y="350.3522">Listar datos acci&#243;n</text></g><!--link envioFiltros to revisionFiltrosEnviados--><g id="link_envioFiltros_revisionFiltrosEnviados"><path d="M44.62,425.9469 C45.5,452.8969 47,498.8869 47,498.8869 C47,498.8869 97.0042,515.7507 118.7542,523.0807 " fill="none" id="envioFiltros-to-revisionFiltrosEnviados" style="stroke:#008000;stroke-width:1;"/><polygon fill="#008000" points="124.44,524.9969,117.1888,518.3321,119.7018,523.4001,114.6339,525.9131,124.44,524.9969" style="stroke:#008000;stroke-width:1;"/><path d="M52,453.8869 L52,493.8869 L204,493.8869 L204,463.8869 L194,453.8869 L52,453.8869 " fill="#F5F5F5" style="stroke:#008000;stroke-width:0.5;"/><path d="M194,453.8869 L194,463.8869 L204,463.8869 L194,453.8869 " fill="#F5F5F5" style="stroke:#008000;stroke-width:0.5;"/><text fill="#000000" font-family="sans-serif" font-size="13" font-weight="bold" lengthAdjust="spacing" textLength="131.3774" x="58" y="470.9538">Usuario Introduce</text><ellipse cx="63.5" cy="481.6525" fill="#000000" rx="2.5" ry="2.5" style="stroke:#000000;stroke-width:0;"/><text fill="#000000" font-family="sans-serif" font-size="13" lengthAdjust="spacing" textLength="94.377" x="70" y="486.0866">Id de la acci&#243;n</text></g><!--link revisionFiltrosEnviados to solicitudFiltros--><g id="link_revisionFiltrosEnviados_solicitudFiltros"><path d="M141.42,524.6769 C161.21,517.1269 209,498.8869 209,498.8869 C209,498.8869 209,282.8869 209,282.8869 C209,282.8869 185.815,271.5924 163.705,260.8324 " fill="none" id="revisionFiltrosEnviados-to-solicitudFiltros" style="stroke:#FF0000;stroke-width:1;"/><polygon fill="#FF0000" points="158.31,258.2069,164.6522,265.7419,162.8059,260.3948,168.1529,258.5485,158.31,258.2069" style="stroke:#FF0000;stroke-width:1;"/><path d="M214,385.8869 L214,425.8869 L358,425.8869 L358,395.8869 L348,385.8869 L214,385.8869 " fill="#F5F5F5" style="stroke:#008000;stroke-width:0.5;"/><path d="M348,385.8869 L348,395.8869 L358,395.8869 L348,385.8869 " fill="#F5F5F5" style="stroke:#008000;stroke-width:0.5;"/><text fill="#000000" font-family="sans-serif" font-size="13" font-weight="bold" lengthAdjust="spacing" textLength="123.5762" x="220" y="402.9538">Sistema Muestra</text><text fill="#000000" font-family="sans-serif" font-size="13" lengthAdjust="spacing" textLength="110.3032" x="220" y="418.0866">Mensaje de error</text></g><!--link revisionFiltrosEnviados to *end*ListarAccion--><g id="link_revisionFiltrosEnviados_*end*ListarAccion"><path d="M133,541.3369 C133,562.2569 133,600.3369 133,620.4669 " fill="none" id="revisionFiltrosEnviados-to-*end*ListarAccion" style="stroke:#008000;stroke-width:1;"/><polygon fill="#008000" points="133,626.4669,137,617.4669,133,621.4669,129,617.4669,133,626.4669" style="stroke:#008000;stroke-width:1;"/><path d="M138,563.8869 L138,603.8869 L282,603.8869 L282,573.8869 L272,563.8869 L138,563.8869 " fill="#F5F5F5" style="stroke:#008000;stroke-width:0.5;"/><path d="M272,563.8869 L272,573.8869 L282,573.8869 L272,563.8869 " fill="#F5F5F5" style="stroke:#008000;stroke-width:0.5;"/><text fill="#000000" font-family="sans-serif" font-size="13" font-weight="bold" lengthAdjust="spacing" textLength="123.5762" x="144" y="580.9538">Sistema Muestra</text><text fill="#000000" font-family="sans-serif" font-size="13" lengthAdjust="spacing" textLength="120.0913" x="144" y="596.0866">Datos de la acci&#243;n</text></g><!--link startState to ListarAccion--><g id="link_startState_ListarAccion"><path d="M187,47.28 C187,61.35 187,76.19 187,100.73 " fill="none" id="startState-to-ListarAccion" style="stroke:#008000;stroke-width:1;"/><polygon fill="#008000" points="187,106.73,191,97.73,187,101.73,183,97.73,187,106.73" style="stroke:#008000;stroke-width:1;"/></g><!--link ListarAccion to endState--><g id="link_ListarAccion_endState"><path d="M187,659.34 C187,683.79 187,698.57 187,712.6 " fill="none" id="ListarAccion-to-endState" style="stroke:#008000;stroke-width:1;"/><polygon fill="#008000" points="187,718.6,191,709.6,187,713.6,183,709.6,187,718.6" style="stroke:#008000;stroke-width:1;"/></g><!--SRC=[dLFRJiCm37tFLrZR6zB4EvegZG7I9DYG2hm0Gg6nM5YRL4uAcX1VnIVmOpXfknkKMnwgnZu-FZvktKARKf8iu4K0dwdrU2YpnGFPogYnpIr1_tckFQQ5NM34Z8ZiSvDw84IphhIaa3wbSctGBqk4qkRBS16lGiorGi2Yz4jGw3BIfTVM2E6yz0Zy99_6L-cWTpf9BqRJezdTQ3oUpAR7QQ_1eL6Tg5uaQsa6WmHETGYCiemxWH1Rrv1lsLeLMu3Qe4QUpNMcVQLETEx9kjWUUXi8D4_QTcO9dxHZqWPmp62f63WSPdEhCqoI3N3bAadQfdLF6Tc6zybb7OOsVZ3Slq_Wni0L4bI6SQpx_Ssm3O5hboNCkpj6tNHtjjgPzJWHPNZTmAxmEXSn40whIjaoBEHALH2rok_1HF6s8L-9-whq7AdW3swdiju5AEc3eHlLlBIeHZIt3T-3yWwhlnsYjNPYk4HL6VvcYcqTNHiUNFS9rMsN-J_PUbQXyxJjwXaQ9nynI4B-DUalQbZ7zTxjlriVnMryuyNh1m00]--></g></svg>