<svg xmlns="http://www.w3.org/2000/svg" xmlns:xlink="http://www.w3.org/1999/xlink" contentStyleType="text/css" height="906px" preserveAspectRatio="none" style="width:426px;height:906px;background:#FFFFFF;" version="1.1" viewBox="0 0 426 906" width="426px" zoomAndPan="magnify"><defs/><g><rect fill="#F1F1F1" height="40" rx="12.5" ry="12.5" style="stroke:#181818;stroke-width:0.5;" width="131.1396" x="144.5" y="7"/><text fill="#000000" font-family="sans-serif" font-size="14" lengthAdjust="spacing" textLength="121.1396" x="149.5" y="31.8467">MENU_PRINCIPAL</text><rect fill="#F1F1F1" height="40" rx="12.5" ry="12.5" style="stroke:#181818;stroke-width:0.5;" width="160.6982" x="129.5" y="860"/><text fill="#000000" font-family="sans-serif" font-size="14" lengthAdjust="spacing" textLength="150.6982" x="134.5" y="884.8467">LISTANDO_ACCIONES</text><path d="M19.5,157 L400.5,157 A12.5,12.5 0 0 1 413,169.5 L413,183.2969 L7,183.2969 L7,169.5 A12.5,12.5 0 0 1 19.5,157 " fill="#F1F1F1" style="stroke:#F1F1F1;stroke-width:1;"/><rect fill="none" height="642.2969" rx="12.5" ry="12.5" style="stroke:#181818;stroke-width:0.5;" width="406" x="7" y="157"/><line style="stroke:#181818;stroke-width:0.5;" x1="7" x2="413" y1="183.2969" y2="183.2969"/><text fill="#000000" font-family="sans-serif" font-size="14" lengthAdjust="spacing" textLength="101.0146" x="159.4927" y="174.9951">ListarAcciones</text><rect fill="#F1F1F1" height="40" rx="12.5" ry="12.5" style="stroke:#181818;stroke-width:0.5;" width="50" x="19" y="300.2969"/><text fill="#000000" font-family="sans-serif" font-size="14" lengthAdjust="spacing" textLength="4.4502" x="41.7749" y="325.1436">&#160;</text><rect fill="#F1F1F1" height="40" rx="12.5" ry="12.5" style="stroke:#181818;stroke-width:0.5;" width="50" x="56" y="471.2969"/><text fill="#000000" font-family="sans-serif" font-size="14" lengthAdjust="spacing" textLength="4.4502" x="78.7749" y="496.1436">&#160;</text><g id="elem_revisionFiltrosEnviados"><polygon fill="#F1F1F1" points="81,642.2969,93,654.2969,81,666.2969,69,654.2969,81,642.2969" style="stroke:#181818;stroke-width:0.5;"/></g><ellipse cx="44" cy="204.2969" fill="#222222" rx="10" ry="10" style="stroke:#222222;stroke-width:1;"/><ellipse cx="61" cy="778.2969" fill="none" rx="11" ry="11" style="stroke:#222222;stroke-width:1;"/><ellipse cx="61" cy="778.2969" fill="#222222" rx="6" ry="6" style="stroke:#222222;stroke-width:1;"/><!--link *start*ListarAcciones to solicitudFiltros--><g id="link_*start*ListarAcciones_solicitudFiltros"><path d="M44,214.6269 C44,233.2369 44,269.3169 44,294.0769 " fill="none" id="*start*ListarAcciones-to-solicitudFiltros" style="stroke:#008000;stroke-width:1;"/><polygon fill="#008000" points="44,300.0769,48,291.0769,44,295.0769,40,291.0769,44,300.0769" style="stroke:#008000;stroke-width:1;"/><path d="M49,237.2969 L49,277.2969 L193,277.2969 L193,247.2969 L183,237.2969 L49,237.2969 " fill="#F5F5F5" style="stroke:#008000;stroke-width:0.5;"/><path d="M183,237.2969 L183,247.2969 L193,247.2969 L183,237.2969 " fill="#F5F5F5" style="stroke:#008000;stroke-width:0.5;"/><text fill="#000000" font-family="sans-serif" font-size="13" font-weight="bold" lengthAdjust="spacing" textLength="123.5762" x="55" y="254.3638">Sistema Muestra</text><text fill="#000000" font-family="sans-serif" font-size="13" lengthAdjust="spacing" textLength="112.0425" x="55" y="269.4966">Lista de acciones</text></g><!--link solicitudFiltros to *end*ListarAcciones--><g id="link_solicitudFiltros_*end*ListarAcciones"><path d="M44.3,340.5569 C45.07,388.8669 47,511.2969 47,511.2969 C47,511.2969 57,749.2969 57,749.2969 C57,749.2969 57.5584,753.2276 58.7084,761.2476 " fill="none" id="solicitudFiltros-to-*end*ListarAcciones" style="stroke:#008000;stroke-width:1;"/><polygon fill="#008000" points="59.56,767.1869,62.242,757.7102,58.8503,762.2375,54.323,758.8458,59.56,767.1869" style="stroke:#008000;stroke-width:1;"/></g><!--link solicitudFiltros to envioFiltros--><g id="link_solicitudFiltros_envioFiltros"><path d="M48.17,340.3569 C55.28,372.8169 68.3656,432.606 75.5056,465.186 " fill="none" id="solicitudFiltros-to-envioFiltros" style="stroke:#008000;stroke-width:1;"/><polygon fill="#008000" points="76.79,471.0469,78.7706,461.3992,75.7196,466.1628,70.9561,463.1118,76.79,471.0469" style="stroke:#008000;stroke-width:1;"/><path d="M77,363.2969 L77,448.2969 L272,448.2969 L272,373.2969 L262,363.2969 L77,363.2969 " fill="#F5F5F5" style="stroke:#008000;stroke-width:0.5;"/><path d="M262,363.2969 L262,373.2969 L272,373.2969 L262,363.2969 " fill="#F5F5F5" style="stroke:#008000;stroke-width:0.5;"/><text fill="#000000" font-family="sans-serif" font-size="13" font-weight="bold" lengthAdjust="spacing" textLength="171.3486" x="83" y="380.3638">Sistema Permite Filtrar</text><ellipse cx="88.5" cy="391.0625" fill="#000000" rx="2.5" ry="2.5" style="stroke:#000000;stroke-width:0;"/><text fill="#000000" font-family="sans-serif" font-size="13" font-weight="bold" lengthAdjust="spacing" textLength="129.981" x="99.5259" y="395.4966">Filtros opcionales</text><text fill="#000000" font-family="sans-serif" font-size="13" lengthAdjust="spacing" textLength="157.8345" x="99.5293" y="410.6294">- T&#233;rminos de b&#250;squeda</text><text fill="#000000" font-family="sans-serif" font-size="13" lengthAdjust="spacing" textLength="58.2271" x="99.5293" y="425.7622">- Usuario</text><text fill="#000000" font-family="sans-serif" font-size="13" lengthAdjust="spacing" textLength="117.4824" x="99.5293" y="440.895">- Rango de fechas</text></g><!--link envioFiltros to revisionFiltrosEnviados--><g id="link_envioFiltros_revisionFiltrosEnviados"><path d="M81,511.3969 C81,545.2169 81,608.6269 81,635.9169 " fill="none" id="envioFiltros-to-revisionFiltrosEnviados" style="stroke:#008000;stroke-width:1;"/><polygon fill="#008000" points="81,641.9169,85,632.9169,81,636.9169,77,632.9169,81,641.9169" style="stroke:#008000;stroke-width:1;"/><path d="M86,534.2969 L86,619.2969 L281,619.2969 L281,544.2969 L271,534.2969 L86,534.2969 " fill="#F5F5F5" style="stroke:#008000;stroke-width:0.5;"/><path d="M271,534.2969 L271,544.2969 L281,544.2969 L271,534.2969 " fill="#F5F5F5" style="stroke:#008000;stroke-width:0.5;"/><text fill="#000000" font-family="sans-serif" font-size="13" font-weight="bold" lengthAdjust="spacing" textLength="131.3774" x="92" y="551.3638">Usuario Introduce</text><ellipse cx="97.5" cy="562.0625" fill="#000000" rx="2.5" ry="2.5" style="stroke:#000000;stroke-width:0;"/><text fill="#000000" font-family="sans-serif" font-size="13" font-weight="bold" lengthAdjust="spacing" textLength="129.981" x="108.5259" y="566.4966">Filtros opcionales</text><text fill="#000000" font-family="sans-serif" font-size="13" lengthAdjust="spacing" textLength="157.8345" x="108.5293" y="581.6294">- T&#233;rminos de b&#250;squeda</text><text fill="#000000" font-family="sans-serif" font-size="13" lengthAdjust="spacing" textLength="58.2271" x="108.5293" y="596.7622">- Usuario</text><text fill="#000000" font-family="sans-serif" font-size="13" lengthAdjust="spacing" textLength="117.4824" x="108.5293" y="611.895">- Rango de fechas</text></g><!--link revisionFiltrosEnviados to *end*ListarAcciones--><g id="link_revisionFiltrosEnviados_*end*ListarAcciones"><path d="M76.59,662.0269 C70.98,670.5869 62,684.2969 62,684.2969 C62,684.2969 61.4344,736.7772 61.1744,760.9872 " fill="none" id="revisionFiltrosEnviados-to-*end*ListarAcciones" style="stroke:#FF0000;stroke-width:1;"/><polygon fill="#FF0000" points="61.11,766.9869,65.2064,758.0303,61.1637,761.9872,57.2069,757.9444,61.11,766.9869" style="stroke:#FF0000;stroke-width:1;"/><path d="M67,689.2969 L67,744.2969 L211,744.2969 L211,699.2969 L201,689.2969 L67,689.2969 " fill="#F5F5F5" style="stroke:#008000;stroke-width:0.5;"/><path d="M201,689.2969 L201,699.2969 L211,699.2969 L201,689.2969 " fill="#F5F5F5" style="stroke:#008000;stroke-width:0.5;"/><text fill="#000000" font-family="sans-serif" font-size="13" font-weight="bold" lengthAdjust="spacing" textLength="123.5762" x="73" y="706.3638">Sistema Muestra</text><text fill="#000000" font-family="sans-serif" font-size="13" lengthAdjust="spacing" textLength="110.3032" x="73" y="721.4966">Mensaje de error</text><text fill="#000000" font-family="sans-serif" font-size="13" lengthAdjust="spacing" textLength="4.1323" x="73" y="736.6294">&#160;</text></g><!--link revisionFiltrosEnviados to *end*ListarAcciones--><g id="link_revisionFiltrosEnviados_*end*ListarAcciones"><path d="M90.28,657.2869 C120.78,663.8469 216,684.2969 216,684.2969 C216,684.2969 216,749.2969 216,749.2969 C216,749.2969 112.5743,767.9796 77.5543,774.3096 " fill="none" id="revisionFiltrosEnviados-to-*end*ListarAcciones-1" style="stroke:#008000;stroke-width:1;"/><polygon fill="#008000" points="71.65,775.3769,81.218,777.7122,76.5703,774.4875,79.795,769.8398,71.65,775.3769" style="stroke:#008000;stroke-width:1;"/><path d="M221,689.2969 L221,744.2969 L404,744.2969 L404,699.2969 L394,689.2969 L221,689.2969 " fill="#F5F5F5" style="stroke:#008000;stroke-width:0.5;"/><path d="M394,689.2969 L394,699.2969 L404,699.2969 L394,689.2969 " fill="#F5F5F5" style="stroke:#008000;stroke-width:0.5;"/><text fill="#000000" font-family="sans-serif" font-size="13" font-weight="bold" lengthAdjust="spacing" textLength="123.5762" x="227" y="706.3638">Sistema Muestra</text><text fill="#000000" font-family="sans-serif" font-size="13" lengthAdjust="spacing" textLength="162.6016" x="227" y="721.4966">Lista de acciones filtrada</text><text fill="#000000" font-family="sans-serif" font-size="13" lengthAdjust="spacing" textLength="4.1323" x="227" y="736.6294">&#160;</text></g><!--link startState to ListarAcciones--><g id="link_startState_ListarAcciones"><path d="M210,47.01 C210,69.41 210,103.63 210,150.79 " fill="none" id="startState-to-ListarAcciones" style="stroke:#008000;stroke-width:1;"/><polygon fill="#008000" points="210,156.79,214,147.79,210,151.79,206,147.79,210,156.79" style="stroke:#008000;stroke-width:1;"/><path d="M215,82 L215,122 L351,122 L351,92 L341,82 L215,82 " fill="#F5F5F5" style="stroke:#008000;stroke-width:0.5;"/><path d="M341,82 L341,92 L351,92 L341,82 " fill="#F5F5F5" style="stroke:#008000;stroke-width:0.5;"/><text fill="#000000" font-family="sans-serif" font-size="13" font-weight="bold" lengthAdjust="spacing" textLength="115.0005" x="221" y="99.0669">Usuario Solicita</text><ellipse cx="226.5" cy="109.7656" fill="#000000" rx="2.5" ry="2.5" style="stroke:#000000;stroke-width:0;"/><text fill="#000000" font-family="sans-serif" font-size="13" lengthAdjust="spacing" textLength="97.0049" x="233" y="114.1997">Listar acciones</text></g><!--link ListarAcciones to endState--><g id="link_ListarAcciones_endState"><path d="M221.05,799.02 C219.87,824.36 219.1061,839.6814 217.0561,853.9014 " fill="none" id="ListarAcciones-to-endState" style="stroke:#008000;stroke-width:1;"/><polygon fill="#008000" points="216.2,859.84,221.4433,851.5028,216.9134,854.8912,213.5251,850.3613,216.2,859.84" style="stroke:#008000;stroke-width:1;"/></g><!--link ListarAcciones to endState--><g id="link_ListarAcciones_endState"><path d="M199.56,799.02 C200.68,824.36 201.4031,839.6745 203.3331,853.8945 " fill="none" id="ListarAcciones-to-endState-1" style="stroke:#FF0000;stroke-width:1;"/><polygon fill="#FF0000" points="204.14,859.84,206.8932,850.3838,203.4675,854.8854,198.9659,851.4597,204.14,859.84" style="stroke:#FF0000;stroke-width:1;"/></g><!--SRC=[pLH1Rjim4Bpp5GldPi3e1mm1Yki20cp5Y99J40IqkB5PIwHAKWcC80_g5thDnxfaA2Youw9jBk51aBcpkpEpAzkTL0qtl8Od1dHoxV2SbxkDqQqICrrf0sUFM-cmgFKE0oOrHZ_6qCOWgZvJ6u7cA5H9XMxV83IwsliVx9cnhHG8M3Tk3m9jQMJZf5QCMSST0ZsDAy8hjp1QplFhkzLbbi-oLReOHH0gqKCMMN6LvbylxjBPBBl8vyKerEggJ2O9BAI_ICkI6g5bYXY3LfxUBl2ShfDhst8ZDHIwagLqVFfbdOJOE6O3xzAfE_WIZ0thXbOTjQFOpPb1SVi64BKCSQ_3Y5QyKcd5DravesrG2wCt25GFKf-C6doGbgf6m9p0N11mEYstMfQO92oWRyQtWVfXln0yyYhwLH1jh3aiMxJEz7Rv4oJHS7lB_6rlMw1uA6vYY09HEHKEtlPo_uhS2arD6mmXXvi1oR47GbTUDvufhsXI0vG_4xXw-Kc55E58rFhbb_tHek07eBX11xUNN6sqJxl7SilVSs8mH2_pnDp-gBXRtqnHYcXB_9nQJwra_3hY1lpltYrHMVuTFGEaloh3_eN11tiVxJpSXwKZwuOiddy3]--></g></svg>