<svg xmlns="http://www.w3.org/2000/svg" xmlns:xlink="http://www.w3.org/1999/xlink" contentStyleType="text/css" height="772px" preserveAspectRatio="none" style="width:436px;height:772px;background:#FFFFFF;" version="1.1" viewBox="0 0 436 772" width="436px" zoomAndPan="magnify"><defs/><g><!--cluster Aplicacion--><g id="cluster_Aplicacion"><path d="M120.5,6.0137 L192.293,6.0137 A3.75,3.75 0 0 1 194.793,8.5137 L201.793,30.6348 L426.5,30.6348 A2.5,2.5 0 0 1 429,33.1348 L429,762.5137 A2.5,2.5 0 0 1 426.5,765.0137 L120.5,765.0137 A2.5,2.5 0 0 1 118,762.5137 L118,8.5137 A2.5,2.5 0 0 1 120.5,6.0137 " fill="none" style="stroke:#000000;stroke-width:1.5;"/><line style="stroke:#000000;stroke-width:1.5;" x1="118" x2="201.793" y1="30.6348" y2="30.6348"/><text fill="#000000" font-family="sans-serif" font-size="14" font-weight="bold" lengthAdjust="spacing" textLength="70.793" x="122" y="23.1211">Aplicacion</text></g><g id="elem_UC1"><ellipse cx="273.3345" cy="64.0806" fill="#F1F1F1" rx="90.8345" ry="20.5669" style="stroke:#181818;stroke-width:0.5;"/><text fill="#000000" font-family="sans-serif" font-size="14" lengthAdjust="spacing" textLength="136.1787" x="202.2452" y="68.8843">Revisar publicaciones</text></g><g id="elem_UC2"><ellipse cx="273.5979" cy="140.8333" fill="#F1F1F1" rx="92.0979" ry="20.8196" style="stroke:#181818;stroke-width:0.5;"/><text fill="#000000" font-family="sans-serif" font-size="14" lengthAdjust="spacing" textLength="139.2891" x="200.9534" y="145.637">Eliminar publicaciones</text></g><g id="elem_UC3"><ellipse cx="273.6884" cy="217.1513" fill="#F1F1F1" rx="86.1884" ry="19.6377" style="stroke:#181818;stroke-width:0.5;"/><text fill="#000000" font-family="sans-serif" font-size="14" lengthAdjust="spacing" textLength="124.5234" x="208.4266" y="221.9551">Suspender usuarios</text></g><g id="elem_UC4"><ellipse cx="273.252" cy="299.9641" fill="#F1F1F1" rx="127.752" ry="27.9504" style="stroke:#181818;stroke-width:0.5;"/><text fill="#000000" font-family="sans-serif" font-size="14" lengthAdjust="spacing" textLength="219.4814" x="163.5113" y="303.761">Responder a reportes de contenido</text></g><g id="elem_UC5"><ellipse cx="273.5731" cy="383.0283" fill="#F1F1F1" rx="85.5731" ry="19.5146" style="stroke:#181818;stroke-width:0.5;"/><text fill="#000000" font-family="sans-serif" font-size="14" lengthAdjust="spacing" textLength="122.9512" x="209.0975" y="387.832">Enviar advertencias</text></g><g id="elem_UC6"><ellipse cx="273.4004" cy="457.8937" fill="#F1F1F1" rx="87.4004" ry="19.8801" style="stroke:#181818;stroke-width:0.5;"/><text fill="#000000" font-family="sans-serif" font-size="14" lengthAdjust="spacing" textLength="127.5996" x="206.6006" y="462.6975">Revisar comentarios</text></g><g id="elem_UC7"><ellipse cx="273.3574" cy="538.8851" fill="#F1F1F1" rx="114.8574" ry="25.3715" style="stroke:#181818;stroke-width:0.5;"/><text fill="#000000" font-family="sans-serif" font-size="14" lengthAdjust="spacing" textLength="191.4199" x="177.6474" y="542.682">Comunicar cambios de pol&#237;tica</text></g><g id="elem_UC8"><ellipse cx="273.4221" cy="626.0981" fill="#F1F1F1" rx="120.9221" ry="26.5844" style="stroke:#181818;stroke-width:0.5;"/><text fill="#000000" font-family="sans-serif" font-size="14" lengthAdjust="spacing" textLength="204.6885" x="171.0779" y="629.895">Bloquear palabras o expresiones</text></g><g id="elem_UC9"><ellipse cx="273.3706" cy="717.7878" fill="#F1F1F1" rx="139.3706" ry="30.2741" style="stroke:#181818;stroke-width:0.5;"/><text fill="#000000" font-family="sans-serif" font-size="14" lengthAdjust="spacing" textLength="244.3574" x="151.1919" y="721.5847">Desbloquear usuarios/borrar sanciones</text></g><!--entity Moderador--><g id="elem_Moderador"><ellipse cx="39.8516" cy="352.0137" fill="#F1F1F1" rx="8" ry="8" style="stroke:#181818;stroke-width:0.5;"/><path d="M39.8516,360.0137 L39.8516,387.0137 M26.8516,368.0137 L52.8516,368.0137 M39.8516,387.0137 L26.8516,402.0137 M39.8516,387.0137 L52.8516,402.0137 " fill="none" style="stroke:#181818;stroke-width:0.5;"/><text fill="#000000" font-family="sans-serif" font-size="14" lengthAdjust="spacing" textLength="67.7031" x="6" y="418.6211">Moderador</text></g><!--link Moderador to UC1--><g id="link_Moderador_UC1"><path d="M45.63,343.3037 C54.5,274.1037 76.07,135.5737 110,102.0137 C129.47,82.7637 150.8126,73.7004 177.4326,68.4704 " fill="none" id="Moderador-to-UC1" style="stroke:#181818;stroke-width:1.0;"/><polygon fill="#181818" points="183.32,67.3137,173.7177,65.1238,178.4138,68.2776,175.26,72.9737,183.32,67.3137" style="stroke:#181818;stroke-width:1.0;"/></g><!--link Moderador to UC2--><g id="link_Moderador_UC2"><path d="M43.39,343.3037 C48.34,297.2937 63.52,222.4037 110,180.0137 C130.15,161.6337 151.5344,152.7092 177.9744,147.2392 " fill="none" id="Moderador-to-UC2" style="stroke:#181818;stroke-width:1.0;"/><polygon fill="#181818" points="183.85,146.0237,174.2263,143.93,178.9537,147.0366,175.847,151.7641,183.85,146.0237" style="stroke:#181818;stroke-width:1.0;"/></g><!--link Moderador to UC3--><g id="link_Moderador_UC3"><path d="M52.37,343.2837 C62.73,314.2437 80.92,276.1937 110,254.0137 C132.89,236.5537 156.6277,228.1522 184.3177,223.0922 " fill="none" id="Moderador-to-UC3" style="stroke:#181818;stroke-width:1.0;"/><polygon fill="#181818" points="190.22,222.0137,180.6476,219.6967,185.3014,222.9125,182.0856,227.5664,190.22,222.0137" style="stroke:#181818;stroke-width:1.0;"/></g><!--link Moderador to UC4--><g id="link_Moderador_UC4"><path d="M74.34,363.2537 C85.44,357.1937 98.03,350.8537 110,346.0137 C134.33,336.1837 155.7312,329.2179 180.7912,322.2179 " fill="none" id="Moderador-to-UC4" style="stroke:#181818;stroke-width:1.0;"/><polygon fill="#181818" points="186.57,320.6037,176.8257,319.1724,181.7543,321.9488,178.9779,326.8775,186.57,320.6037" style="stroke:#181818;stroke-width:1.0;"/></g><!--link Moderador to UC5--><g id="link_Moderador_UC5"><path d="M74.17,383.0137 C103.8,383.0137 142.49,383.0137 181.96,383.0137 " fill="none" id="Moderador-to-UC5" style="stroke:#181818;stroke-width:1.0;"/><polygon fill="#181818" points="187.96,383.0137,178.96,379.0137,182.96,383.0137,178.96,387.0137,187.96,383.0137" style="stroke:#181818;stroke-width:1.0;"/></g><!--link Moderador to UC6--><g id="link_Moderador_UC6"><path d="M74.21,403.0937 C85.3,409.1837 97.92,415.4537 110,420.0137 C139.82,431.2737 168.1379,438.6315 197.4479,444.7815 " fill="none" id="Moderador-to-UC6" style="stroke:#181818;stroke-width:1.0;"/><polygon fill="#181818" points="203.32,446.0137,195.3332,440.2507,198.4266,444.9869,193.6904,448.0802,203.32,446.0137" style="stroke:#181818;stroke-width:1.0;"/></g><!--link Moderador to UC7--><g id="link_Moderador_UC7"><path d="M56.37,422.6037 C67.73,446.8737 85.48,476.7037 110,495.0137 C129.08,509.2637 146.7169,517.2693 169.7469,523.7893 " fill="none" id="Moderador-to-UC7" style="stroke:#181818;stroke-width:1.0;"/><polygon fill="#181818" points="175.52,525.4237,167.95,519.1233,170.7091,524.0617,165.7707,526.8208,175.52,525.4237" style="stroke:#181818;stroke-width:1.0;"/></g><!--link Moderador to UC8--><g id="link_Moderador_UC8"><path d="M43.93,422.5337 C49.4,467.5037 65.08,540.1037 110,582.0137 C125.81,596.7637 140.3426,604.854 161.1426,611.474 " fill="none" id="Moderador-to-UC8" style="stroke:#181818;stroke-width:1.0;"/><polygon fill="#181818" points="166.86,613.2937,159.497,606.7526,162.0955,611.7773,157.0708,614.3758,166.86,613.2937" style="stroke:#181818;stroke-width:1.0;"/></g><!--link Moderador to UC9--><g id="link_Moderador_UC9"><path d="M45.6,422.5337 C54.53,492.6037 76.34,634.5737 110,670.0137 C123.17,683.8737 134.5476,691.5943 152.5176,698.6743 " fill="none" id="Moderador-to-UC9" style="stroke:#181818;stroke-width:1.0;"/><polygon fill="#181818" points="158.1,700.8737,151.1927,693.853,153.448,699.0408,148.2602,701.2962,158.1,700.8737" style="stroke:#181818;stroke-width:1.0;"/></g><!--SRC=[TP5DJWCn34RtEONLVONeVpT8K5Yo0N40JsBQY4mSd6I4X3WIf-1Yf5M76OXOvkKvd_p5qNE2n21sVqXWh91Ebhr2dLZWdWq96XQb0keNt1DS1sSrwkAyAvKZQOm4amVgR4I1a9l-ck84CCBJxdBGxfnjhV_7cmtUOuw1VCc673EAvTwPZoDZu9E381HO4aKm19fz8cyDdqSMetZVsHAEfgDYUssnVtTPhwAv9P_6uQlHmZjkioyR50_RfZZ7wC3kwpCLUXvO3_wDuzTCnytHOIFbce7UWb0SLx0P1cufDlrCNy95moBb7D7_QcwhFfJw-IkOJgzEjVybiuhCAxAeoB8YgugiAxAfo5QfRm00]--></g></svg>
