<?xml version="1.0" encoding="us-ascii" standalone="no"?><svg xmlns="http://www.w3.org/2000/svg" xmlns:xlink="http://www.w3.org/1999/xlink" contentStyleType="text/css" height="599px" preserveAspectRatio="none" style="width:317px;height:599px;background:#FFFFFF;" version="1.1" viewBox="0 0 317 599" width="317px" zoomAndPan="magnify"><defs/><g><rect fill="#F1F1F1" height="40" rx="12.5" ry="12.5" style="stroke:#181818;stroke-width:0.5;" width="142" x="84.5" y="7"/><text fill="#000000" font-family="sans-serif" font-size="14" lengthAdjust="spacing" textLength="132" x="89.5" y="32.291">LISTANDO_GRUPOS</text><rect fill="#F1F1F1" height="40" rx="12.5" ry="12.5" style="stroke:#181818;stroke-width:0.5;" width="142" x="84.5" y="553.47"/><text fill="#000000" font-family="sans-serif" font-size="14" lengthAdjust="spacing" textLength="132" x="89.5" y="578.761">LISTANDO_GRUPOS</text><path d="M19.5,107 L291.5,107 A12.5,12.5 0 0 1 304,119.5 L304,133.4883 L7,133.4883 L7,119.5 A12.5,12.5 0 0 1 19.5,107 " fill="#F1F1F1" style="stroke:#F1F1F1;stroke-width:1.0;"/><rect fill="none" height="386.4683" rx="12.5" ry="12.5" style="stroke:#181818;stroke-width:0.5;" width="297" x="7" y="107"/><line style="stroke:#181818;stroke-width:0.5;" x1="7" x2="304" y1="133.4883" y2="133.4883"/><text fill="#000000" font-family="sans-serif" font-size="14" lengthAdjust="spacing" textLength="86" x="112.5" y="125.5352">BorrarGrupo</text><rect fill="#F1F1F1" height="40" rx="12.5" ry="12.5" style="stroke:#181818;stroke-width:0.5;" width="50" x="73" y="225.4683"/><text fill="#000000" font-family="sans-serif" font-size="14" lengthAdjust="spacing" textLength="4" x="96" y="250.7593">&#160;</text><g id="elem_revisionFiltrosEnviados"><polygon fill="#F1F1F1" points="98,351.4683,110,363.4683,98,375.4683,86,363.4683,98,351.4683" style="stroke:#181818;stroke-width:0.5;"/></g><rect fill="#F1F1F1" height="42.9766" rx="12.5" ry="12.5" style="stroke:#181818;stroke-width:0.5;" width="130" x="33" y="145.4883"/><text fill="#000000" font-family="sans-serif" font-size="14" font-weight="bold" lengthAdjust="spacing" textLength="116" x="38" y="164.0234">Usuario Solicita:</text><text fill="#000000" font-family="sans-serif" font-size="14" lengthAdjust="spacing" textLength="4" x="154" y="164.0234">&#160;</text><text fill="#000000" font-family="sans-serif" font-size="14" lengthAdjust="spacing" textLength="89" x="55.5" y="180.5117">Borrar grupo</text><ellipse cx="98" cy="472.4683" fill="none" rx="11" ry="11" style="stroke:#222222;stroke-width:1.0;"/><ellipse cx="98" cy="472.4683" fill="#222222" rx="6" ry="6" style="stroke:#222222;stroke-width:1.0;"/><!--link usuarioSolicita to solicitudFiltros--><g id="link_usuarioSolicita_solicitudFiltros"><path d="M98,188.8783 C98,200.2083 98,208.0983 98,219.1683 " fill="none" id="usuarioSolicita-to-solicitudFiltros" style="stroke:#008000;stroke-width:1.0;"/><polygon fill="#008000" points="98,225.1683,102,216.1683,98,220.1683,94,216.1683,98,225.1683" style="stroke:#008000;stroke-width:1.0;"/></g><!--link solicitudFiltros to revisionFiltrosEnviados--><g id="link_solicitudFiltros_revisionFiltrosEnviados"><path d="M72.69,258.1783 C49.25,269.0183 18,283.4683 18,283.4683 C18,283.4683 18,333.4683 18,333.4683 C18,333.4683 63.159,349.844 83.799,357.324 " fill="none" id="solicitudFiltros-to-revisionFiltrosEnviados" style="stroke:#008000;stroke-width:1.0;"/><polygon fill="#008000" points="89.44,359.3683,82.3414,352.5412,84.7392,357.6647,79.6156,360.0625,89.44,359.3683" style="stroke:#008000;stroke-width:1.0;"/><path d="M23,288.4683 L23,328.4683 L153,328.4683 L153,298.4683 L143,288.4683 L23,288.4683 " fill="#F5F5F5" style="stroke:#008000;stroke-width:0.5;"/><path d="M143,288.4683 L143,298.4683 L153,298.4683 L143,288.4683 " fill="#F5F5F5" style="stroke:#008000;stroke-width:0.5;"/><text fill="#000000" font-family="sans-serif" font-size="13" font-weight="bold" lengthAdjust="spacing" textLength="109" x="29" y="306.0366">Sistema permite</text><ellipse cx="34.5" cy="316.5894" fill="#000000" rx="2.5" ry="2.5" style="stroke:#000000;stroke-width:0.0;"/><text fill="#000000" font-family="sans-serif" font-size="13" lengthAdjust="spacing" textLength="78" x="41" y="321.3472">Borrar grupo</text></g><!--link revisionFiltrosEnviados to solicitudFiltros--><g id="link_revisionFiltrosEnviados_solicitudFiltros"><path d="M105.84,358.6783 C122.11,350.8183 158,333.4683 158,333.4683 C158,333.4683 158,283.4683 158,283.4683 C158,283.4683 144.906,275.3993 128.556,265.3093 " fill="none" id="revisionFiltrosEnviados-to-solicitudFiltros" style="stroke:#FF0000;stroke-width:1.0;"/><polygon fill="#FF0000" points="123.45,262.1583,129.0083,270.2888,127.705,264.7841,133.2097,263.4808,123.45,262.1583" style="stroke:#FF0000;stroke-width:1.0;"/><path d="M163,288.4683 L163,328.4683 L295,328.4683 L295,298.4683 L285,288.4683 L163,288.4683 " fill="#F5F5F5" style="stroke:#008000;stroke-width:0.5;"/><path d="M285,288.4683 L285,298.4683 L295,298.4683 L285,288.4683 " fill="#F5F5F5" style="stroke:#008000;stroke-width:0.5;"/><text fill="#000000" font-family="sans-serif" font-size="13" font-weight="bold" lengthAdjust="spacing" textLength="111" x="169" y="306.0366">Sistema Muestra</text><text fill="#000000" font-family="sans-serif" font-size="13" lengthAdjust="spacing" textLength="104" x="169" y="321.3472">Mensaje de error</text></g><!--link revisionFiltrosEnviados to *end*BorrarGrupo--><g id="link_revisionFiltrosEnviados_*end*BorrarGrupo"><path d="M98,375.9183 C98,396.8383 98,434.9183 98,455.0483 " fill="none" id="revisionFiltrosEnviados-to-*end*BorrarGrupo" style="stroke:#008000;stroke-width:1.0;"/><polygon fill="#008000" points="98,461.0483,102,452.0483,98,456.0483,94,452.0483,98,461.0483" style="stroke:#008000;stroke-width:1.0;"/><path d="M103,398.4683 L103,438.4683 L281,438.4683 L281,408.4683 L271,398.4683 L103,398.4683 " fill="#F5F5F5" style="stroke:#008000;stroke-width:0.5;"/><path d="M271,398.4683 L271,408.4683 L281,408.4683 L271,398.4683 " fill="#F5F5F5" style="stroke:#008000;stroke-width:0.5;"/><text fill="#000000" font-family="sans-serif" font-size="13" font-weight="bold" lengthAdjust="spacing" textLength="111" x="109" y="416.0366">Sistema Muestra</text><text fill="#000000" font-family="sans-serif" font-size="13" lengthAdjust="spacing" textLength="157" x="109" y="431.3472">Mensaje de confirmaci&#243;n</text></g><!--link startState to BorrarGrupo--><g id="link_startState_BorrarGrupo"><path d="M155.5,47.07 C155.5,61.36 155.5,76.55 155.5,100.67 " fill="none" id="startState-to-BorrarGrupo" style="stroke:#008000;stroke-width:1.0;"/><polygon fill="#008000" points="155.5,106.67,159.5,97.67,155.5,101.67,151.5,97.67,155.5,106.67" style="stroke:#008000;stroke-width:1.0;"/></g><!--link BorrarGrupo to endState--><g id="link_BorrarGrupo_endState"><path d="M155.5,493.65 C155.5,517.74 155.5,532.9 155.5,547.22 " fill="none" id="BorrarGrupo-to-endState" style="stroke:#008000;stroke-width:1.0;"/><polygon fill="#008000" points="155.5,553.22,159.5,544.22,155.5,548.22,151.5,544.22,155.5,553.22" style="stroke:#008000;stroke-width:1.0;"/></g><!--SRC=[hPBFJW8n4CRlVOe9t4Y8TxFP1FyH4m7ZoWcDATiHAhljPjg54CDJ-GY-c6rtqGN4Q68Fc-tCrw-_cOvPI5LmuZcyCd1hg2sUyNGn8rqgSQupJT1UpQN59DSB39eUaLxLgHaXgg-JcWJIGIgJ2kswG2XqjlORjc5iBWK2veLTWq2JaYoir8enOxb5S5-oIVZb1betrybzRtWnUkhVZMz7IQjMeH8_Q5Z3fDkDmT4HfpwLXMQiiGd9hTKMe9clMbE3wKocqfRYIcQMj0bNGwkX85nAuqgf1PTgARbmmYXAvrgc6CSDSMbAJb8dbIiFRj4q7bTXsCPFevDf30-gneAPvt8LUgDz2r_DFcMbF63tqYEuuO1oRmfQ-GTSX81V3Y-HncBEeK3AtMXukCzqPuSnX5rlWrL5SQm_tKcRK3n-H_yRba69nXBVOHcWClm5mK-Q6rhw2utZc7GU_-FgLAjdIJbFvVkRsaNOi0y0]--></g></svg>