<?xml version="1.0" encoding="us-ascii" standalone="no"?><svg xmlns="http://www.w3.org/2000/svg" xmlns:xlink="http://www.w3.org/1999/xlink" contentStyleType="text/css" height="766px" preserveAspectRatio="none" style="width:350px;height:766px;background:#FFFFFF;" version="1.1" viewBox="0 0 350 766" width="350px" zoomAndPan="magnify"><defs/><g><rect fill="#F1F1F1" height="40" rx="12.5" ry="12.5" style="stroke:#181818;stroke-width:0.5;" width="142" x="101" y="7"/><text fill="#000000" font-family="sans-serif" font-size="14" lengthAdjust="spacing" textLength="132" x="106" y="32.291">LISTANDO_GRUPOS</text><rect fill="#F1F1F1" height="40" rx="12.5" ry="12.5" style="stroke:#181818;stroke-width:0.5;" width="142" x="101" y="720.47"/><text fill="#000000" font-family="sans-serif" font-size="14" lengthAdjust="spacing" textLength="132" x="106" y="745.761">LISTANDO_GRUPOS</text><path d="M19.5,107 L324.5,107 A12.5,12.5 0 0 1 337,119.5 L337,133.4883 L7,133.4883 L7,119.5 A12.5,12.5 0 0 1 19.5,107 " fill="#F1F1F1" style="stroke:#F1F1F1;stroke-width:1.0;"/><rect fill="none" height="553.4683" rx="12.5" ry="12.5" style="stroke:#181818;stroke-width:0.5;" width="330" x="7" y="107"/><line style="stroke:#181818;stroke-width:0.5;" x1="7" x2="337" y1="133.4883" y2="133.4883"/><text fill="#000000" font-family="sans-serif" font-size="14" lengthAdjust="spacing" textLength="86" x="129" y="125.5352">BorrarGrupo</text><rect fill="#F1F1F1" height="40" rx="12.5" ry="12.5" style="stroke:#181818;stroke-width:0.5;" width="50" x="99" y="225.4683"/><text fill="#000000" font-family="sans-serif" font-size="14" lengthAdjust="spacing" textLength="4" x="122" y="250.7593">&#160;</text><rect fill="#F1F1F1" height="40" rx="12.5" ry="12.5" style="stroke:#181818;stroke-width:0.5;" width="50" x="19" y="387.4683"/><text fill="#000000" font-family="sans-serif" font-size="14" lengthAdjust="spacing" textLength="4" x="42" y="412.7593">&#160;</text><g id="elem_revisionFiltrosEnviados"><polygon fill="#F1F1F1" points="121,518.4683,133,530.4683,121,542.4683,109,530.4683,121,518.4683" style="stroke:#181818;stroke-width:0.5;"/></g><rect fill="#F1F1F1" height="42.9766" rx="12.5" ry="12.5" style="stroke:#181818;stroke-width:0.5;" width="130" x="59" y="145.4883"/><text fill="#000000" font-family="sans-serif" font-size="14" font-weight="bold" lengthAdjust="spacing" textLength="116" x="64" y="164.0234">Usuario Solicita:</text><text fill="#000000" font-family="sans-serif" font-size="14" lengthAdjust="spacing" textLength="4" x="180" y="164.0234">&#160;</text><text fill="#000000" font-family="sans-serif" font-size="14" lengthAdjust="spacing" textLength="89" x="81.5" y="180.5117">Borrar grupo</text><ellipse cx="121" cy="639.4683" fill="none" rx="11" ry="11" style="stroke:#222222;stroke-width:1.0;"/><ellipse cx="121" cy="639.4683" fill="#222222" rx="6" ry="6" style="stroke:#222222;stroke-width:1.0;"/><!--link usuarioSolicita to solicitudFiltros--><g id="link_usuarioSolicita_solicitudFiltros"><path d="M124,188.8783 C124,200.2083 124,208.0983 124,219.1683 " fill="none" id="usuarioSolicita-to-solicitudFiltros" style="stroke:#008000;stroke-width:1.0;"/><polygon fill="#008000" points="124,225.1683,128,216.1683,124,220.1683,120,216.1683,124,225.1683" style="stroke:#008000;stroke-width:1.0;"/></g><!--link solicitudFiltros to envioFiltros--><g id="link_solicitudFiltros_envioFiltros"><path d="M98.88,259.1983 C77.76,269.9083 51,283.4683 51,283.4683 C51,283.4683 47.4203,346.3079 45.4503,380.9879 " fill="none" id="solicitudFiltros-to-envioFiltros" style="stroke:#008000;stroke-width:1.0;"/><polygon fill="#008000" points="45.11,386.9783,49.614,378.2196,45.3936,381.9863,41.6269,377.7659,45.11,386.9783" style="stroke:#008000;stroke-width:1.0;"/><path d="M56,288.4683 L56,359.4683 L186,359.4683 L186,298.4683 L176,288.4683 L56,288.4683 " fill="#F5F5F5" style="stroke:#008000;stroke-width:0.5;"/><path d="M176,288.4683 L176,298.4683 L186,298.4683 L176,288.4683 " fill="#F5F5F5" style="stroke:#008000;stroke-width:0.5;"/><text fill="#000000" font-family="sans-serif" font-size="13" font-weight="bold" lengthAdjust="spacing" textLength="103" x="62" y="306.0366">Sistema Solicita</text><ellipse cx="67.5" cy="316.5894" fill="#000000" rx="2.5" ry="2.5" style="stroke:#000000;stroke-width:0.0;"/><text fill="#000000" font-family="sans-serif" font-size="13" lengthAdjust="spacing" textLength="91" x="74" y="321.3472">Grupo a borrar</text><text fill="#000000" font-family="sans-serif" font-size="13" font-weight="bold" lengthAdjust="spacing" textLength="109" x="62" y="336.6577">Sistema permite</text><ellipse cx="67.5" cy="347.2105" fill="#000000" rx="2.5" ry="2.5" style="stroke:#000000;stroke-width:0.0;"/><text fill="#000000" font-family="sans-serif" font-size="13" lengthAdjust="spacing" textLength="78" x="74" y="351.9683">Borrar grupo</text></g><!--link envioFiltros to revisionFiltrosEnviados--><g id="link_envioFiltros_revisionFiltrosEnviados"><path d="M41.73,427.4983 C40.41,438.6183 39,450.4683 39,450.4683 C39,450.4683 39,500.4683 39,500.4683 C39,500.4683 85.9234,517.0675 106.8734,524.4775 " fill="none" id="envioFiltros-to-revisionFiltrosEnviados" style="stroke:#008000;stroke-width:1.0;"/><polygon fill="#008000" points="112.53,526.4783,105.3789,519.7061,107.8162,524.811,102.7113,527.2482,112.53,526.4783" style="stroke:#008000;stroke-width:1.0;"/><path d="M44,455.4683 L44,495.4683 L186,495.4683 L186,465.4683 L176,455.4683 L44,455.4683 " fill="#F5F5F5" style="stroke:#008000;stroke-width:0.5;"/><path d="M176,455.4683 L176,465.4683 L186,465.4683 L176,455.4683 " fill="#F5F5F5" style="stroke:#008000;stroke-width:0.5;"/><text fill="#000000" font-family="sans-serif" font-size="13" font-weight="bold" lengthAdjust="spacing" textLength="121" x="50" y="473.0366">Usuario Introduce</text><ellipse cx="55.5" cy="483.5894" fill="#000000" rx="2.5" ry="2.5" style="stroke:#000000;stroke-width:0.0;"/><text fill="#000000" font-family="sans-serif" font-size="13" lengthAdjust="spacing" textLength="91" x="62" y="488.3472">Grupo a borrar</text></g><!--link revisionFiltrosEnviados to solicitudFiltros--><g id="link_revisionFiltrosEnviados_solicitudFiltros"><path d="M129.03,526.1383 C147.42,518.5283 191,500.4683 191,500.4683 C191,500.4683 191,283.4683 191,283.4683 C191,283.4683 173.5519,273.8397 154.5819,263.3597 " fill="none" id="revisionFiltrosEnviados-to-solicitudFiltros" style="stroke:#FF0000;stroke-width:1.0;"/><polygon fill="#FF0000" points="149.33,260.4583,155.2735,268.3116,153.7065,262.8761,159.142,261.3091,149.33,260.4583" style="stroke:#FF0000;stroke-width:1.0;"/><path d="M196,387.4683 L196,427.4683 L328,427.4683 L328,397.4683 L318,387.4683 L196,387.4683 " fill="#F5F5F5" style="stroke:#008000;stroke-width:0.5;"/><path d="M318,387.4683 L318,397.4683 L328,397.4683 L318,387.4683 " fill="#F5F5F5" style="stroke:#008000;stroke-width:0.5;"/><text fill="#000000" font-family="sans-serif" font-size="13" font-weight="bold" lengthAdjust="spacing" textLength="111" x="202" y="405.0366">Sistema Muestra</text><text fill="#000000" font-family="sans-serif" font-size="13" lengthAdjust="spacing" textLength="104" x="202" y="420.3472">Mensaje de error</text></g><!--link revisionFiltrosEnviados to *end*BorrarGrupo--><g id="link_revisionFiltrosEnviados_*end*BorrarGrupo"><path d="M121,542.9183 C121,563.8383 121,601.9183 121,622.0483 " fill="none" id="revisionFiltrosEnviados-to-*end*BorrarGrupo" style="stroke:#008000;stroke-width:1.0;"/><polygon fill="#008000" points="121,628.0483,125,619.0483,121,623.0483,117,619.0483,121,628.0483" style="stroke:#008000;stroke-width:1.0;"/><path d="M126,565.4683 L126,605.4683 L304,605.4683 L304,575.4683 L294,565.4683 L126,565.4683 " fill="#F5F5F5" style="stroke:#008000;stroke-width:0.5;"/><path d="M294,565.4683 L294,575.4683 L304,575.4683 L294,565.4683 " fill="#F5F5F5" style="stroke:#008000;stroke-width:0.5;"/><text fill="#000000" font-family="sans-serif" font-size="13" font-weight="bold" lengthAdjust="spacing" textLength="111" x="132" y="583.0366">Sistema Muestra</text><text fill="#000000" font-family="sans-serif" font-size="13" lengthAdjust="spacing" textLength="157" x="132" y="598.3472">Mensaje de confirmaci&#243;n</text></g><!--link startState to BorrarGrupo--><g id="link_startState_BorrarGrupo"><path d="M172,47.33 C172,61.35 172,76.1 172,100.52 " fill="none" id="startState-to-BorrarGrupo" style="stroke:#008000;stroke-width:1.0;"/><polygon fill="#008000" points="172,106.52,176,97.52,172,101.52,168,97.52,172,106.52" style="stroke:#008000;stroke-width:1.0;"/></g><!--link BorrarGrupo to endState--><g id="link_BorrarGrupo_endState"><path d="M172,660.74 C172,685.25 172,700.07 172,714.14 " fill="none" id="BorrarGrupo-to-endState" style="stroke:#008000;stroke-width:1.0;"/><polygon fill="#008000" points="172,720.14,176,711.14,172,715.14,168,711.14,172,720.14" style="stroke:#008000;stroke-width:1.0;"/></g><!--SRC=[hPDBJiCm48RtFiMex2fLx54LgJnLYG8Yi0A4t7XeJHDFD7QeAiIfE08NmtPII4lBGoABA9xvFVxcdzZEj2abomAU1VZdZ1pkosmsOQgCEg2S67RcK-qmBMY6KJDWfdcJcZ2Y-Tn9h92_f79jq2rAX9BoHLY85o6cMY5WKRe5ABGPwz9fCa9O9ns2VxDBuwUqq3aTfbU3iyFp-vFBwulpjDEeqAXlDA9LfDTBmDEnv1EkIXAYjOZ9PQabG3jVMzE0KQupxIfrh7F7PEFHq6afq3nfsffbVDBMDze8ZhnOAY_izxCfwGoJf2MkR2LPKrgVAMEr_ZYvhiEmZE_rTyS9t9e66YQ1slSV2gsN2Bskzr0hltHMs_BPJ5GPFsOW4sOwYu7mUAPKMuU5_60AI1_vBjH6IXX7maqRI-J2_sPh-zeTnR2VKsGGpQhbTU3TOk-tw4ixXyPlKLM6FxElKcoRQUzcXr7TRNByDrQEAhIELvqSeR7o4I7S7NyD_qJZEMwwT_znT4RcGNCXC_tsQbOHNiGx]--></g></svg>