<svg xmlns="http://www.w3.org/2000/svg" xmlns:xlink="http://www.w3.org/1999/xlink" contentStyleType="text/css" height="671px" preserveAspectRatio="none" style="width:382px;height:671px;background:#FFFFFF;" version="1.1" viewBox="0 0 382 671" width="382px" zoomAndPan="magnify"><defs/><g><rect fill="#F1F1F1" height="40" rx="12.5" ry="12.5" style="stroke:#181818;stroke-width:0.5;" width="147.3887" x="114.5" y="7"/><text fill="#000000" font-family="sans-serif" font-size="14" lengthAdjust="spacing" textLength="137.3887" x="119.5" y="31.8467">LISTANDO_GRUPOS</text><rect fill="#F1F1F1" height="40" rx="12.5" ry="12.5" style="stroke:#181818;stroke-width:0.5;" width="147.3887" x="114.5" y="625"/><text fill="#000000" font-family="sans-serif" font-size="14" lengthAdjust="spacing" textLength="137.3887" x="119.5" y="649.8467">LISTANDO_GRUPOS</text><rect fill="#F1F1F1" height="40" rx="12.5" ry="12.5" style="stroke:#181818;stroke-width:0.5;" width="95.1211" x="221.5" y="524"/><text fill="#000000" font-family="sans-serif" font-size="14" lengthAdjust="spacing" textLength="85.1211" x="226.5" y="548.8467">listarGrupos</text><path d="M19.5,157 L356.5,157 A12.5,12.5 0 0 1 369,169.5 L369,183.2969 L7,183.2969 L7,169.5 A12.5,12.5 0 0 1 19.5,157 " fill="#F1F1F1" style="stroke:#F1F1F1;stroke-width:1;"/><rect fill="none" height="306.2969" rx="12.5" ry="12.5" style="stroke:#181818;stroke-width:0.5;" width="362" x="7" y="157"/><line style="stroke:#181818;stroke-width:0.5;" x1="7" x2="369" y1="183.2969" y2="183.2969"/><text fill="#000000" font-family="sans-serif" font-size="14" lengthAdjust="spacing" textLength="86.9463" x="144.5269" y="174.9951">BorrarGrupo</text><rect fill="#F1F1F1" height="40" rx="12.5" ry="12.5" style="stroke:#181818;stroke-width:0.5;" width="50" x="80" y="195.2969"/><text fill="#000000" font-family="sans-serif" font-size="14" lengthAdjust="spacing" textLength="4.4502" x="102.7749" y="220.1436">&#160;</text><g id="elem_revisionFiltrosEnviados"><polygon fill="#F1F1F1" points="105,321.2969,117,333.2969,105,345.2969,93,333.2969,105,321.2969" style="stroke:#181818;stroke-width:0.5;"/></g><ellipse cx="105" cy="442.2969" fill="none" rx="11" ry="11" style="stroke:#222222;stroke-width:1;"/><ellipse cx="105" cy="442.2969" fill="#222222" rx="6" ry="6" style="stroke:#222222;stroke-width:1;"/><!--link solicitudFiltros to revisionFiltrosEnviados--><g id="link_solicitudFiltros_revisionFiltrosEnviados"><path d="M105,235.4569 C105,259.9069 105,295.4069 105,315.1769 " fill="none" id="solicitudFiltros-to-revisionFiltrosEnviados" style="stroke:#008000;stroke-width:1;"/><polygon fill="#008000" points="105,321.1769,109,312.1769,105,316.1769,101,312.1769,105,321.1769" style="stroke:#008000;stroke-width:1;"/><path d="M110,258.2969 L110,298.2969 L251,298.2969 L251,268.2969 L241,258.2969 L110,258.2969 " fill="#F5F5F5" style="stroke:#008000;stroke-width:0.5;"/><path d="M241,258.2969 L241,268.2969 L251,268.2969 L241,258.2969 " fill="#F5F5F5" style="stroke:#008000;stroke-width:0.5;"/><text fill="#000000" font-family="sans-serif" font-size="13" font-weight="bold" lengthAdjust="spacing" textLength="120.999" x="116" y="275.3638">Sistema permite</text><ellipse cx="121.5" cy="286.0625" fill="#000000" rx="2.5" ry="2.5" style="stroke:#000000;stroke-width:0;"/><text fill="#000000" font-family="sans-serif" font-size="13" lengthAdjust="spacing" textLength="83.0464" x="128" y="290.4966">Borrar grupo</text></g><!--link revisionFiltrosEnviados to *end*BorrarGrupo--><g id="link_revisionFiltrosEnviados_*end*BorrarGrupo"><path d="M96.66,337.0769 C74.88,344.3369 18,363.2969 18,363.2969 C18,363.2969 18,413.2969 18,413.2969 C18,413.2969 65.9186,428.7183 88.9686,436.1383 " fill="none" id="revisionFiltrosEnviados-to-*end*BorrarGrupo" style="stroke:#FF0000;stroke-width:1;"/><polygon fill="#FF0000" points="94.68,437.9769,87.3386,431.4115,89.9205,436.4448,84.8872,439.0266,94.68,437.9769" style="stroke:#FF0000;stroke-width:1;"/><path d="M23,368.2969 L23,408.2969 L167,408.2969 L167,378.2969 L157,368.2969 L23,368.2969 " fill="#F5F5F5" style="stroke:#008000;stroke-width:0.5;"/><path d="M157,368.2969 L157,378.2969 L167,378.2969 L157,368.2969 " fill="#F5F5F5" style="stroke:#008000;stroke-width:0.5;"/><text fill="#000000" font-family="sans-serif" font-size="13" font-weight="bold" lengthAdjust="spacing" textLength="123.5762" x="29" y="385.3638">Sistema Muestra</text><text fill="#000000" font-family="sans-serif" font-size="13" lengthAdjust="spacing" textLength="110.3032" x="29" y="400.4966">Mensaje de error</text></g><!--link revisionFiltrosEnviados to *end*BorrarGrupo--><g id="link_revisionFiltrosEnviados_*end*BorrarGrupo"><path d="M112.69,337.6269 C130.28,345.2369 172,363.2969 172,363.2969 C172,363.2969 172,413.2969 172,413.2969 C172,413.2969 139.0556,427.0622 120.4256,434.8522 " fill="none" id="revisionFiltrosEnviados-to-*end*BorrarGrupo-1" style="stroke:#008000;stroke-width:1;"/><polygon fill="#008000" points="114.89,437.1669,124.7364,437.3853,119.503,435.238,121.6502,430.0045,114.89,437.1669" style="stroke:#008000;stroke-width:1;"/><path d="M177,368.2969 L177,408.2969 L360,408.2969 L360,378.2969 L350,368.2969 L177,368.2969 " fill="#F5F5F5" style="stroke:#008000;stroke-width:0.5;"/><path d="M350,368.2969 L350,378.2969 L360,378.2969 L350,368.2969 " fill="#F5F5F5" style="stroke:#008000;stroke-width:0.5;"/><text fill="#000000" font-family="sans-serif" font-size="13" font-weight="bold" lengthAdjust="spacing" textLength="123.5762" x="183" y="385.3638">Sistema Muestra</text><text fill="#000000" font-family="sans-serif" font-size="13" lengthAdjust="spacing" textLength="162.7729" x="183" y="400.4966">Mensaje de confirmaci&#243;n</text></g><!--link startState to BorrarGrupo--><g id="link_startState_BorrarGrupo"><path d="M188,47.31 C188,70.94 188,107.21 188,150.98 " fill="none" id="startState-to-BorrarGrupo" style="stroke:#008000;stroke-width:1;"/><polygon fill="#008000" points="188,156.98,192,147.98,188,151.98,184,147.98,188,156.98" style="stroke:#008000;stroke-width:1;"/><path d="M193,82 L193,122 L329,122 L329,92 L319,82 L193,82 " fill="#F5F5F5" style="stroke:#008000;stroke-width:0.5;"/><path d="M319,82 L319,92 L329,92 L319,82 " fill="#F5F5F5" style="stroke:#008000;stroke-width:0.5;"/><text fill="#000000" font-family="sans-serif" font-size="13" font-weight="bold" lengthAdjust="spacing" textLength="115.0005" x="199" y="99.0669">Usuario Solicita</text><ellipse cx="204.5" cy="109.7656" fill="#000000" rx="2.5" ry="2.5" style="stroke:#000000;stroke-width:0;"/><text fill="#000000" font-family="sans-serif" font-size="13" lengthAdjust="spacing" textLength="84.8682" x="211" y="114.1997">Borrar Grupo</text></g><!--link BorrarGrupo to endState--><g id="link_BorrarGrupo_endState"><path d="M188,463.37 C188,526.91 188,587.21 188,618.9 " fill="none" id="BorrarGrupo-to-endState" style="stroke:#FF0000;stroke-width:1;"/><polygon fill="#FF0000" points="188,624.9,192,615.9,188,619.9,184,615.9,188,624.9" style="stroke:#FF0000;stroke-width:1;"/></g><!--link BorrarGrupo to listarGrupos--><g id="link_BorrarGrupo_listarGrupos"><path d="M241.12,463.16 C249.53,487.24 255.163,503.355 260.293,518.055 " fill="none" id="BorrarGrupo-to-listarGrupos" style="stroke:#008000;stroke-width:1;"/><polygon fill="#008000" points="262.27,523.72,263.0812,513.9046,260.6225,518.9992,255.5279,516.5405,262.27,523.72" style="stroke:#008000;stroke-width:1;"/></g><!--link listarGrupos to endState--><g id="link_listarGrupos_endState"><path d="M253.38,564.09 C239.04,581.62 221.7,602.8167 207.37,620.3267 " fill="none" id="listarGrupos-to-endState" style="stroke:#008000;stroke-width:1;"/><polygon fill="#008000" points="203.57,624.97,212.3655,620.5384,206.7367,621.1006,206.1745,615.4718,203.57,624.97" style="stroke:#008000;stroke-width:1;"/></g><!--SRC=[hL9RQiCm4FpNAHRdBs1w0MD8Nw7G9ALkla8eYhrDLDkIMSa9eUHKFK8lLbbH6hiXj8NwmrZQcTsPyUfSo8eJB-6DWNt6ok0bJ_CbgLfcLwfG1BtDIXXCIfMZmmo8rCQNbeGeZqn56T99gH0IpRP2g5InRGvinzXAP0XOLcOB6UgKH6M4aenfmms2VPD9t2VN4DpV9K-3yVNaUVWuVPWaWKUXp7x45ABfDQIwKjhXsXU1ctUO58OnM0lagqnQIw1aepztHg95FDKr9w4WKOL8XU7HnI9sjRwdmfvhfK73PwpL4S9PZp2Rspa7wTsoBRJbiOxui4tpxjhi_H_q-UtbrTcjA0nvvn2q48HheMtY7d0Zru9d5XX5wKg95EEOxT7VEpKopf0TuIGrdrnYlM39eK8gxJvz1TS9R-d2QwwE0JQdSsgFWSxwyr-D7zMe3V7E-15ApLyHcesqoqr_4V1_erCbNmILF1KVxx8hOVS9]--></g></svg>