<?xml version="1.0" encoding="us-ascii" standalone="no"?><svg xmlns="http://www.w3.org/2000/svg" xmlns:xlink="http://www.w3.org/1999/xlink" contentStyleType="text/css" height="901px" preserveAspectRatio="none" style="width:554px;height:901px;background:#FFFFFF;" version="1.1" viewBox="0 0 554 901" width="554px" zoomAndPan="magnify"><defs/><g><rect fill="#F1F1F1" height="40" rx="12.5" ry="12.5" style="stroke:#181818;stroke-width:0.5;" width="142" x="203" y="7"/><text fill="#000000" font-family="sans-serif" font-size="14" lengthAdjust="spacing" textLength="132" x="208" y="32.291">LISTANDO_GRUPOS</text><rect fill="#F1F1F1" height="40" rx="12.5" ry="12.5" style="stroke:#181818;stroke-width:0.5;" width="142" x="203" y="855.47"/><text fill="#000000" font-family="sans-serif" font-size="14" lengthAdjust="spacing" textLength="132" x="208" y="880.761">LISTANDO_GRUPOS</text><path d="M19.5,107 L528.5,107 A12.5,12.5 0 0 1 541,119.5 L541,133.4883 L7,133.4883 L7,119.5 A12.5,12.5 0 0 1 19.5,107 " fill="#F1F1F1" style="stroke:#F1F1F1;stroke-width:1.0;"/><rect fill="none" height="688.4683" rx="12.5" ry="12.5" style="stroke:#181818;stroke-width:0.5;" width="534" x="7" y="107"/><line style="stroke:#181818;stroke-width:0.5;" x1="7" x2="541" y1="133.4883" y2="133.4883"/><text fill="#000000" font-family="sans-serif" font-size="14" lengthAdjust="spacing" textLength="87" x="230.5" y="125.5352">ListarGrupos</text><rect fill="#F1F1F1" height="40" rx="12.5" ry="12.5" style="stroke:#181818;stroke-width:0.5;" width="50" x="167" y="251.9783"/><text fill="#000000" font-family="sans-serif" font-size="14" lengthAdjust="spacing" textLength="4" x="190" y="277.2693">&#160;</text><rect fill="#F1F1F1" height="40" rx="12.5" ry="12.5" style="stroke:#181818;stroke-width:0.5;" width="50" x="174" y="461.4683"/><text fill="#000000" font-family="sans-serif" font-size="14" lengthAdjust="spacing" textLength="4" x="197" y="486.7593">&#160;</text><g id="elem_revisionFiltrosEnviados"><polygon fill="#F1F1F1" points="192,638.4683,204,650.4683,192,662.4683,180,650.4683,192,638.4683" style="stroke:#181818;stroke-width:0.5;"/></g><rect fill="#F1F1F1" height="42.9766" rx="12.5" ry="12.5" style="stroke:#181818;stroke-width:0.5;" width="130" x="19" y="250.4883"/><text fill="#000000" font-family="sans-serif" font-size="14" font-weight="bold" lengthAdjust="spacing" textLength="116" x="24" y="269.0234">Usuario Solicita:</text><text fill="#000000" font-family="sans-serif" font-size="14" lengthAdjust="spacing" textLength="4" x="140" y="269.0234">&#160;</text><text fill="#000000" font-family="sans-serif" font-size="14" lengthAdjust="spacing" textLength="90" x="41" y="285.5117">Listar grupos</text><ellipse cx="192" cy="154.4883" fill="#222222" rx="10" ry="10" style="stroke:#222222;stroke-width:1.0;"/><ellipse cx="162" cy="774.4683" fill="none" rx="11" ry="11" style="stroke:#222222;stroke-width:1.0;"/><ellipse cx="162" cy="774.4683" fill="#222222" rx="6" ry="6" style="stroke:#222222;stroke-width:1.0;"/><!--link usuarioSolicita to solicitudFiltros--><g id="link_usuarioSolicita_solicitudFiltros"><path d="M149.4,271.9783 C153.31,271.9783 156,271.9783 156,271.9783 C156,271.9783 154.65,271.9783 160.61,271.9783 " fill="none" id="usuarioSolicita-to-solicitudFiltros" style="stroke:#008000;stroke-width:1.0;"/><polygon fill="#008000" points="166.61,271.9783,157.61,267.9783,161.61,271.9783,157.61,275.9783,166.61,271.9783" style="stroke:#008000;stroke-width:1.0;"/></g><!--link *start*ListarGrupos to solicitudFiltros--><g id="link_*start*ListarGrupos_solicitudFiltros"><path d="M192,164.9383 C192,183.7983 192,220.4283 192,245.5183 " fill="none" id="*start*ListarGrupos-to-solicitudFiltros" style="stroke:#008000;stroke-width:1.0;"/><polygon fill="#008000" points="192,251.5183,196,242.5183,192,246.5183,188,242.5183,192,251.5183" style="stroke:#008000;stroke-width:1.0;"/><path d="M197,187.4883 L197,227.4883 L329,227.4883 L329,197.4883 L319,187.4883 L197,187.4883 " fill="#F5F5F5" style="stroke:#008000;stroke-width:0.5;"/><path d="M319,187.4883 L319,197.4883 L329,197.4883 L319,187.4883 " fill="#F5F5F5" style="stroke:#008000;stroke-width:0.5;"/><text fill="#000000" font-family="sans-serif" font-size="13" font-weight="bold" lengthAdjust="spacing" textLength="111" x="203" y="205.0566">Sistema Muestra</text><text fill="#000000" font-family="sans-serif" font-size="13" lengthAdjust="spacing" textLength="97" x="203" y="220.3672">Lista de grupos</text></g><!--link solicitudFiltros to *end*ListarGrupos--><g id="link_solicitudFiltros_*end*ListarGrupos"><path d="M189.16,292.2683 C182.23,339.3783 165,456.4683 165,456.4683 C165,456.4683 162.6664,703.0185 162.1564,757.2785 " fill="none" id="solicitudFiltros-to-*end*ListarGrupos" style="stroke:#008000;stroke-width:1.0;"/><polygon fill="#008000" points="162.1,763.2783,166.1844,754.3163,162.147,758.2785,158.1848,754.2411,162.1,763.2783" style="stroke:#008000;stroke-width:1.0;"/></g><!--link solicitudFiltros to envioFiltros--><g id="link_solicitudFiltros_envioFiltros"><path d="M192.12,292.2883 C192.38,335.9383 193,438.4683 193,438.4683 C193,438.4683 193.8407,444.3787 195.4307,455.4987 " fill="none" id="solicitudFiltros-to-envioFiltros" style="stroke:#008000;stroke-width:1.0;"/><polygon fill="#008000" points="196.28,461.4383,198.9658,451.9627,195.5723,456.4886,191.0464,453.0951,196.28,461.4383" style="stroke:#008000;stroke-width:1.0;"/><path d="M198,316.4683 L198,433.4683 L390,433.4683 L390,326.4683 L380,316.4683 L198,316.4683 " fill="#F5F5F5" style="stroke:#008000;stroke-width:0.5;"/><path d="M380,316.4683 L380,326.4683 L390,326.4683 L380,316.4683 " fill="#F5F5F5" style="stroke:#008000;stroke-width:0.5;"/><text fill="#000000" font-family="sans-serif" font-size="13" font-weight="bold" lengthAdjust="spacing" textLength="103" x="204" y="334.0366">Sistema Solicita</text><ellipse cx="209.5" cy="344.5894" fill="#000000" rx="2.5" ry="2.5" style="stroke:#000000;stroke-width:0.0;"/><text fill="#000000" font-family="sans-serif" font-size="13" font-weight="bold" lengthAdjust="spacing" textLength="117" x="220" y="349.3472">Filtros opcionales</text><text fill="#000000" font-family="sans-serif" font-size="13" lengthAdjust="spacing" textLength="155" x="220" y="364.6577">- T&#233;rminos de b&#250;squeda</text><text fill="#000000" font-family="sans-serif" font-size="13" lengthAdjust="spacing" textLength="126" x="220" y="379.9683">- Nombre del grupo</text><text fill="#000000" font-family="sans-serif" font-size="13" lengthAdjust="spacing" textLength="124" x="220" y="395.2788">- Usuario del grupo</text><text fill="#000000" font-family="sans-serif" font-size="13" font-weight="bold" lengthAdjust="spacing" textLength="108" x="204" y="410.5894">Sistema Permite</text><ellipse cx="209.5" cy="421.1421" fill="#000000" rx="2.5" ry="2.5" style="stroke:#000000;stroke-width:0.0;"/><text fill="#000000" font-family="sans-serif" font-size="13" lengthAdjust="spacing" textLength="83" x="216" y="425.8999">Listar grupos</text></g><!--link envioFiltros to revisionFiltrosEnviados--><g id="link_envioFiltros_revisionFiltrosEnviados"><path d="M196.28,501.4983 C194.69,512.6183 193,524.4683 193,524.4683 C193,524.4683 192.3885,600.9885 192.1385,631.9285 " fill="none" id="envioFiltros-to-revisionFiltrosEnviados" style="stroke:#008000;stroke-width:1.0;"/><polygon fill="#008000" points="192.09,637.9283,196.1626,628.9609,192.1304,632.9284,188.1628,628.8963,192.09,637.9283" style="stroke:#008000;stroke-width:1.0;"/><path d="M198,529.4683 L198,615.4683 L390,615.4683 L390,539.4683 L380,529.4683 L198,529.4683 " fill="#F5F5F5" style="stroke:#008000;stroke-width:0.5;"/><path d="M380,529.4683 L380,539.4683 L390,539.4683 L380,529.4683 " fill="#F5F5F5" style="stroke:#008000;stroke-width:0.5;"/><text fill="#000000" font-family="sans-serif" font-size="13" font-weight="bold" lengthAdjust="spacing" textLength="121" x="204" y="547.0366">Usuario Introduce</text><ellipse cx="209.5" cy="557.5894" fill="#000000" rx="2.5" ry="2.5" style="stroke:#000000;stroke-width:0.0;"/><text fill="#000000" font-family="sans-serif" font-size="13" font-weight="bold" lengthAdjust="spacing" textLength="117" x="220" y="562.3472">Filtros opcionales</text><text fill="#000000" font-family="sans-serif" font-size="13" lengthAdjust="spacing" textLength="155" x="220" y="577.6577">- T&#233;rminos de b&#250;squeda</text><text fill="#000000" font-family="sans-serif" font-size="13" lengthAdjust="spacing" textLength="126" x="220" y="592.9683">- Nombre del grupo</text><text fill="#000000" font-family="sans-serif" font-size="13" lengthAdjust="spacing" textLength="124" x="220" y="608.2788">- Usuario del grupo</text></g><!--link revisionFiltrosEnviados to solicitudFiltros--><g id="link_revisionFiltrosEnviados_solicitudFiltros"><path d="M202.07,648.0283 C243.03,642.1783 395,620.4683 395,620.4683 C395,620.4683 395,311.4683 395,311.4683 C395,311.4683 277.6149,289.2162 223.1949,278.8962 " fill="none" id="revisionFiltrosEnviados-to-solicitudFiltros" style="stroke:#FF0000;stroke-width:1.0;"/><polygon fill="#FF0000" points="217.3,277.7783,225.3971,283.3851,222.2124,278.7099,226.8877,275.5252,217.3,277.7783" style="stroke:#FF0000;stroke-width:1.0;"/><path d="M400,461.4683 L400,501.4683 L532,501.4683 L532,471.4683 L522,461.4683 L400,461.4683 " fill="#F5F5F5" style="stroke:#008000;stroke-width:0.5;"/><path d="M522,461.4683 L522,471.4683 L532,471.4683 L522,461.4683 " fill="#F5F5F5" style="stroke:#008000;stroke-width:0.5;"/><text fill="#000000" font-family="sans-serif" font-size="13" font-weight="bold" lengthAdjust="spacing" textLength="111" x="406" y="479.0366">Sistema Muestra</text><text fill="#000000" font-family="sans-serif" font-size="13" lengthAdjust="spacing" textLength="104" x="406" y="494.3472">Mensaje de error</text></g><!--link revisionFiltrosEnviados to *end*ListarGrupos--><g id="link_revisionFiltrosEnviados_*end*ListarGrupos"><path d="M189.75,660.6383 C184.24,683.0283 171.5821,734.5017 165.8821,757.6917 " fill="none" id="revisionFiltrosEnviados-to-*end*ListarGrupos" style="stroke:#008000;stroke-width:1.0;"/><polygon fill="#008000" points="164.45,763.5183,170.4826,755.7332,165.6435,758.6628,162.7138,753.8237,164.45,763.5183" style="stroke:#008000;stroke-width:1.0;"/><path d="M189.75,685.4683 L189.75,740.4683 L356.75,740.4683 L356.75,695.4683 L346.75,685.4683 L189.75,685.4683 " fill="#F5F5F5" style="stroke:#008000;stroke-width:0.5;"/><path d="M346.75,685.4683 L346.75,695.4683 L356.75,695.4683 L346.75,685.4683 " fill="#F5F5F5" style="stroke:#008000;stroke-width:0.5;"/><text fill="#000000" font-family="sans-serif" font-size="13" font-weight="bold" lengthAdjust="spacing" textLength="111" x="195.75" y="703.0366">Sistema Muestra</text><text fill="#000000" font-family="sans-serif" font-size="13" lengthAdjust="spacing" textLength="146" x="195.75" y="718.3472">Lista de grupos filtrada</text><text fill="#000000" font-family="sans-serif" font-size="13" lengthAdjust="spacing" textLength="4" x="195.75" y="733.6577">&#160;</text></g><!--link startState to ListarGrupos--><g id="link_startState_ListarGrupos"><path d="M274,47.24 C274,61.2 274,75.94 274,100.78 " fill="none" id="startState-to-ListarGrupos" style="stroke:#008000;stroke-width:1.0;"/><polygon fill="#008000" points="274,106.78,278,97.78,274,101.78,270,97.78,274,106.78" style="stroke:#008000;stroke-width:1.0;"/></g><!--link ListarGrupos to endState--><g id="link_ListarGrupos_endState"><path d="M274,795.55 C274,820.34 274,835.07 274,849.05 " fill="none" id="ListarGrupos-to-endState" style="stroke:#008000;stroke-width:1.0;"/><polygon fill="#008000" points="274,855.05,278,846.05,274,850.05,270,846.05,274,855.05" style="stroke:#008000;stroke-width:1.0;"/></g><!--SRC=[pPJ1Jjmm48RlVehHxWqfwhrQHQAq8AHbGGsSA4BUUBhhRcAdOmUqGZnGNw5NNeonavGaow9Mub0VecJcp_YRVvouZJQL95d2Wm1U2-lnaymtAxArKKUsi0JJ-xNsc9LsWr5pI6JlszIA4CtBcvOKqawgq0RzjaAeRB4D3-9HYBLM25XMVWiANKwwyjeQ8PoN7e6lvBDuAnrCvgVPvU7Yy_djoTUhY_DiqghGg3SqebSaILAOwn0ueRgoJeZ-KqntnJg4WQ1nfsMpXSwrhzMnBZnnCkmEavu2pPssUxE4TzfnhwtW2ukbOk5ibg-jpZ5DU-BQrPAqpPezPQmsMwPNJHYw-CVPXsKAtqnB3Qk8pHw4IkCQtEouXwYxFhY9JhoQD3nVi2OCSnC3OJ59nXjYAU6iHkT91eu_wGZ3usrnOfnjZhKQj1ql4s801jcNZeDwSVUlqBh61sm7GG5TNLlbF15P88-XhmehWSkdNrHgmphkPVdqs_siKScHQ67B9I4hYgRTKRgRs6w-Htg1l8_74UXWfg-OE3XkmQ4z9-nDipg-KyElg3h7_z2jOTlxlgFaUageRjxp89-XSV97m0Naln_z2qrxdj_f6uBleRvaFuSCZyy0]--></g></svg>