<svg xmlns="http://www.w3.org/2000/svg" xmlns:xlink="http://www.w3.org/1999/xlink" contentStyleType="text/css" height="872px" preserveAspectRatio="none" style="width:382px;height:872px;background:#FFFFFF;" version="1.1" viewBox="0 0 382 872" width="382px" zoomAndPan="magnify"><defs/><g><rect fill="#F1F1F1" height="40" rx="12.5" ry="12.5" style="stroke:#181818;stroke-width:0.5;" width="147.3887" x="114.5" y="7"/><text fill="#000000" font-family="sans-serif" font-size="14" lengthAdjust="spacing" textLength="137.3887" x="119.5" y="31.8467">LISTANDO_GRUPOS</text><rect fill="#F1F1F1" height="40" rx="12.5" ry="12.5" style="stroke:#181818;stroke-width:0.5;" width="147.3887" x="114.5" y="826"/><text fill="#000000" font-family="sans-serif" font-size="14" lengthAdjust="spacing" textLength="137.3887" x="119.5" y="850.8467">LISTANDO_GRUPOS</text><rect fill="#F1F1F1" height="40" rx="12.5" ry="12.5" style="stroke:#181818;stroke-width:0.5;" width="95.1211" x="221.5" y="725"/><text fill="#000000" font-family="sans-serif" font-size="14" lengthAdjust="spacing" textLength="85.1211" x="226.5" y="749.8467">listarGrupos</text><path d="M19.5,157 L356.5,157 A12.5,12.5 0 0 1 369,169.5 L369,183.2969 L7,183.2969 L7,169.5 A12.5,12.5 0 0 1 19.5,157 " fill="#F1F1F1" style="stroke:#F1F1F1;stroke-width:1;"/><rect fill="none" height="507.2969" rx="12.5" ry="12.5" style="stroke:#181818;stroke-width:0.5;" width="362" x="7" y="157"/><line style="stroke:#181818;stroke-width:0.5;" x1="7" x2="369" y1="183.2969" y2="183.2969"/><text fill="#000000" font-family="sans-serif" font-size="14" lengthAdjust="spacing" textLength="112.6084" x="131.6958" y="174.9951">ActualizarGrupo</text><rect fill="#F1F1F1" height="40" rx="12.5" ry="12.5" style="stroke:#181818;stroke-width:0.5;" width="50" x="80" y="195.2969"/><text fill="#000000" font-family="sans-serif" font-size="14" lengthAdjust="spacing" textLength="4.4502" x="102.7749" y="220.1436">&#160;</text><rect fill="#F1F1F1" height="40" rx="12.5" ry="12.5" style="stroke:#181818;stroke-width:0.5;" width="50" x="80" y="321.2969"/><text fill="#000000" font-family="sans-serif" font-size="14" lengthAdjust="spacing" textLength="4.4502" x="102.7749" y="346.1436">&#160;</text><g id="elem_revisionFiltrosEnviados"><polygon fill="#F1F1F1" points="105,522.2969,117,534.2969,105,546.2969,93,534.2969,105,522.2969" style="stroke:#181818;stroke-width:0.5;"/></g><ellipse cx="105" cy="643.2969" fill="none" rx="11" ry="11" style="stroke:#222222;stroke-width:1;"/><ellipse cx="105" cy="643.2969" fill="#222222" rx="6" ry="6" style="stroke:#222222;stroke-width:1;"/><!--link solicitudFiltros to envioFiltros--><g id="link_solicitudFiltros_envioFiltros"><path d="M105,235.3969 C105,258.6369 105,291.6369 105,314.9669 " fill="none" id="solicitudFiltros-to-envioFiltros" style="stroke:#008000;stroke-width:1;"/><polygon fill="#008000" points="105,320.9669,109,311.9669,105,315.9669,101,311.9669,105,320.9669" style="stroke:#008000;stroke-width:1;"/><path d="M110,258.2969 L110,298.2969 L252,298.2969 L252,268.2969 L242,258.2969 L110,258.2969 " fill="#F5F5F5" style="stroke:#008000;stroke-width:0.5;"/><path d="M242,258.2969 L242,268.2969 L252,268.2969 L242,258.2969 " fill="#F5F5F5" style="stroke:#008000;stroke-width:0.5;"/><text fill="#000000" font-family="sans-serif" font-size="13" font-weight="bold" lengthAdjust="spacing" textLength="121.2212" x="116" y="275.3638">Sistema Permite</text><ellipse cx="121.5" cy="286.0625" fill="#000000" rx="2.5" ry="2.5" style="stroke:#000000;stroke-width:0;"/><text fill="#000000" font-family="sans-serif" font-size="13" lengthAdjust="spacing" textLength="106.8755" x="128" y="290.4966">Actualizar grupo</text></g><!--link envioFiltros to revisionFiltrosEnviados--><g id="link_envioFiltros_revisionFiltrosEnviados"><path d="M105,361.3069 C105,400.7469 105,484.4269 105,516.0269 " fill="none" id="envioFiltros-to-revisionFiltrosEnviados" style="stroke:#008000;stroke-width:1;"/><polygon fill="#008000" points="105,522.0269,109,513.0269,105,517.0269,101,513.0269,105,522.0269" style="stroke:#008000;stroke-width:1;"/><path d="M110,384.2969 L110,499.2969 L320,499.2969 L320,394.2969 L310,384.2969 L110,384.2969 " fill="#F5F5F5" style="stroke:#008000;stroke-width:0.5;"/><path d="M310,384.2969 L310,394.2969 L320,394.2969 L310,384.2969 " fill="#F5F5F5" style="stroke:#008000;stroke-width:0.5;"/><text fill="#000000" font-family="sans-serif" font-size="13" font-weight="bold" lengthAdjust="spacing" textLength="130.9966" x="116" y="401.3638">Usuario introduce</text><ellipse cx="121.5" cy="412.0625" fill="#000000" rx="2.5" ry="2.5" style="stroke:#000000;stroke-width:0;"/><text fill="#000000" font-family="sans-serif" font-size="13" lengthAdjust="spacing" textLength="132.6914" x="128" y="416.4966">Campos a actualizar</text><ellipse cx="121.5" cy="427.1953" fill="#000000" rx="2.5" ry="2.5" style="stroke:#000000;stroke-width:0;"/><text fill="#000000" font-family="sans-serif" font-size="13" font-weight="bold" lengthAdjust="spacing" textLength="57.8335" x="128" y="431.6294">Campos</text><text fill="#000000" font-family="sans-serif" font-size="13" lengthAdjust="spacing" textLength="126.9277" x="132.5293" y="446.7622">- Nombre del grupo</text><text fill="#000000" font-family="sans-serif" font-size="13" lengthAdjust="spacing" textLength="172.7197" x="132.5293" y="461.895">- Incorporar nuevo usuario</text><text fill="#000000" font-family="sans-serif" font-size="13" lengthAdjust="spacing" textLength="122.186" x="132.5293" y="477.0278">- Quitar un usuario</text><text fill="#000000" font-family="sans-serif" font-size="13" lengthAdjust="spacing" textLength="119.2471" x="132.5293" y="492.1606">- Estado del grupo</text></g><!--link revisionFiltrosEnviados to *end*ActualizarGrupo--><g id="link_revisionFiltrosEnviados_*end*ActualizarGrupo"><path d="M96.66,538.0769 C74.88,545.3369 18,564.2969 18,564.2969 C18,564.2969 18,614.2969 18,614.2969 C18,614.2969 65.9186,629.7183 88.9686,637.1383 " fill="none" id="revisionFiltrosEnviados-to-*end*ActualizarGrupo" style="stroke:#FF0000;stroke-width:1;"/><polygon fill="#FF0000" points="94.68,638.9769,87.3386,632.4115,89.9205,637.4448,84.8872,640.0266,94.68,638.9769" style="stroke:#FF0000;stroke-width:1;"/><path d="M23,569.2969 L23,609.2969 L167,609.2969 L167,579.2969 L157,569.2969 L23,569.2969 " fill="#F5F5F5" style="stroke:#008000;stroke-width:0.5;"/><path d="M157,569.2969 L157,579.2969 L167,579.2969 L157,569.2969 " fill="#F5F5F5" style="stroke:#008000;stroke-width:0.5;"/><text fill="#000000" font-family="sans-serif" font-size="13" font-weight="bold" lengthAdjust="spacing" textLength="123.5762" x="29" y="586.3638">Sistema Muestra</text><text fill="#000000" font-family="sans-serif" font-size="13" lengthAdjust="spacing" textLength="110.3032" x="29" y="601.4966">Mensaje de error</text></g><!--link revisionFiltrosEnviados to *end*ActualizarGrupo--><g id="link_revisionFiltrosEnviados_*end*ActualizarGrupo"><path d="M112.69,538.6269 C130.28,546.2369 172,564.2969 172,564.2969 C172,564.2969 172,614.2969 172,614.2969 C172,614.2969 139.0556,628.0622 120.4256,635.8522 " fill="none" id="revisionFiltrosEnviados-to-*end*ActualizarGrupo-1" style="stroke:#008000;stroke-width:1;"/><polygon fill="#008000" points="114.89,638.1669,124.7364,638.3853,119.503,636.238,121.6502,631.0045,114.89,638.1669" style="stroke:#008000;stroke-width:1;"/><path d="M177,569.2969 L177,609.2969 L360,609.2969 L360,579.2969 L350,569.2969 L177,569.2969 " fill="#F5F5F5" style="stroke:#008000;stroke-width:0.5;"/><path d="M350,569.2969 L350,579.2969 L360,579.2969 L350,569.2969 " fill="#F5F5F5" style="stroke:#008000;stroke-width:0.5;"/><text fill="#000000" font-family="sans-serif" font-size="13" font-weight="bold" lengthAdjust="spacing" textLength="123.5762" x="183" y="586.3638">Sistema Muestra</text><text fill="#000000" font-family="sans-serif" font-size="13" lengthAdjust="spacing" textLength="162.7729" x="183" y="601.4966">Mensaje de confirmaci&#243;n</text></g><!--link startState to ActualizarGrupo--><g id="link_startState_ActualizarGrupo"><path d="M188,47.18 C188,69.92 188,104.6 188,150.7 " fill="none" id="startState-to-ActualizarGrupo" style="stroke:#008000;stroke-width:1;"/><polygon fill="#008000" points="188,156.7,192,147.7,188,151.7,184,147.7,188,156.7" style="stroke:#008000;stroke-width:1;"/><path d="M193,82 L193,122 L334,122 L334,92 L324,82 L193,82 " fill="#F5F5F5" style="stroke:#008000;stroke-width:0.5;"/><path d="M324,82 L324,92 L334,92 L324,82 " fill="#F5F5F5" style="stroke:#008000;stroke-width:0.5;"/><text fill="#000000" font-family="sans-serif" font-size="13" font-weight="bold" lengthAdjust="spacing" textLength="115.0005" x="199" y="99.0669">Usuario Solicita</text><ellipse cx="204.5" cy="109.7656" fill="#000000" rx="2.5" ry="2.5" style="stroke:#000000;stroke-width:0;"/><text fill="#000000" font-family="sans-serif" font-size="13" lengthAdjust="spacing" textLength="108.6973" x="211" y="114.1997">Actualizar Grupo</text></g><!--link ActualizarGrupo to endState--><g id="link_ActualizarGrupo_endState"><path d="M188,664.3 C188,732.29 188,789.41 188,819.89 " fill="none" id="ActualizarGrupo-to-endState" style="stroke:#FF0000;stroke-width:1;"/><polygon fill="#FF0000" points="188,825.89,192,816.89,188,820.89,184,816.89,188,825.89" style="stroke:#FF0000;stroke-width:1;"/></g><!--link ActualizarGrupo to listarGrupos--><g id="link_ActualizarGrupo_listarGrupos"><path d="M249.6,664.36 C255.68,689.3 259.4503,704.8104 262.9303,719.1004 " fill="none" id="ActualizarGrupo-to-listarGrupos" style="stroke:#008000;stroke-width:1;"/><polygon fill="#008000" points="264.35,724.93,266.1069,715.2391,263.1669,720.072,258.3341,717.132,264.35,724.93" style="stroke:#008000;stroke-width:1;"/></g><!--link listarGrupos to endState--><g id="link_listarGrupos_endState"><path d="M253.38,765.09 C239.04,782.62 221.7,803.8167 207.37,821.3267 " fill="none" id="listarGrupos-to-endState" style="stroke:#008000;stroke-width:1;"/><polygon fill="#008000" points="203.57,825.97,212.3655,821.5384,206.7367,822.1006,206.1745,816.4718,203.57,825.97" style="stroke:#008000;stroke-width:1;"/></g><!--SRC=[hLJRRjim37tNLn3fMm5ZFn04IBkkAB3UvlMfA0P5uX8jjcZGKegiw5Vj4_PZessbiHra5s1-C2ppa3pda7QzThxIh4juKG0t5F1Cc_MIANfxJWKnd3olNC2yf3KAOivCpocmP4I_ooAsoAD0uJo6ROLGKR5j3kfLgPMp25XMOGiMQyEk2ewyKdNG0K7k7FBsKTSm-NYLVvxVlB_zSldfuUusdoGKUlj7JE6QMfSSAwfRNF_5fEstwvHbCvYR47NXlYU4yY8Ao3SQrY85OBgOFTHHioF8gN361JrzjvYriTDUEdJvGX6Q6agDAaFsUC9edwJdJiOXH89zkceW9kkd9hNZ2Yyjh-HfHpVQ3wu8dDo0IG-1VkFeQ9HnusgPKG9S25XR0KwdPaNEuAmpeSiOz-h8xiktg0Dpay6voCHImnroAKltvk-1nylMu-RrtkVkr1FIj3x2_RSiTcDsNb9iD6CUvxfiTmhq6w5UL0fqW45MSsNofPGBHjdxegTW7xxoXhWY5e4-ueOWTan6iFiekySG_P7uXOpDqgZBqATZ8ztlvkFfa_ghMLr7h0FhWTfhzBN-rWW5b1y6_mk3rFi_j3RalpekjN4_V_WXXTTV]--></g></svg>