<?xml version="1.0" encoding="us-ascii" standalone="no"?><svg xmlns="http://www.w3.org/2000/svg" xmlns:xlink="http://www.w3.org/1999/xlink" contentStyleType="text/css" height="935px" preserveAspectRatio="none" style="width:421px;height:935px;background:#FFFFFF;" version="1.1" viewBox="0 0 421 935" width="421px" zoomAndPan="magnify"><defs/><g><rect fill="#F1F1F1" height="40" rx="12.5" ry="12.5" style="stroke:#181818;stroke-width:0.5;" width="142" x="136.5" y="7"/><text fill="#000000" font-family="sans-serif" font-size="14" lengthAdjust="spacing" textLength="132" x="141.5" y="32.291">LISTANDO_GRUPOS</text><rect fill="#F1F1F1" height="40" rx="12.5" ry="12.5" style="stroke:#181818;stroke-width:0.5;" width="142" x="136.5" y="889.47"/><text fill="#000000" font-family="sans-serif" font-size="14" lengthAdjust="spacing" textLength="132" x="141.5" y="914.761">LISTANDO_GRUPOS</text><path d="M19.5,107 L395.5,107 A12.5,12.5 0 0 1 408,119.5 L408,133.4883 L7,133.4883 L7,119.5 A12.5,12.5 0 0 1 19.5,107 " fill="#F1F1F1" style="stroke:#F1F1F1;stroke-width:1.0;"/><rect fill="none" height="722.4683" rx="12.5" ry="12.5" style="stroke:#181818;stroke-width:0.5;" width="401" x="7" y="107"/><line style="stroke:#181818;stroke-width:0.5;" x1="7" x2="408" y1="133.4883" y2="133.4883"/><text fill="#000000" font-family="sans-serif" font-size="14" lengthAdjust="spacing" textLength="112" x="151.5" y="125.5352">ActualizarGrupo</text><rect fill="#F1F1F1" height="40" rx="12.5" ry="12.5" style="stroke:#181818;stroke-width:0.5;" width="50" x="135" y="225.4683"/><text fill="#000000" font-family="sans-serif" font-size="14" lengthAdjust="spacing" textLength="4" x="158" y="250.7593">&#160;</text><rect fill="#F1F1F1" height="40" rx="12.5" ry="12.5" style="stroke:#181818;stroke-width:0.5;" width="50" x="19" y="479.4683"/><text fill="#000000" font-family="sans-serif" font-size="14" lengthAdjust="spacing" textLength="4" x="42" y="504.7593">&#160;</text><g id="elem_revisionFiltrosEnviados"><polygon fill="#F1F1F1" points="160,687.4683,172,699.4683,160,711.4683,148,699.4683,160,687.4683" style="stroke:#181818;stroke-width:0.5;"/></g><rect fill="#F1F1F1" height="42.9766" rx="12.5" ry="12.5" style="stroke:#181818;stroke-width:0.5;" width="130" x="95" y="145.4883"/><text fill="#000000" font-family="sans-serif" font-size="14" font-weight="bold" lengthAdjust="spacing" textLength="116" x="100" y="164.0234">Usuario Solicita:</text><text fill="#000000" font-family="sans-serif" font-size="14" lengthAdjust="spacing" textLength="4" x="216" y="164.0234">&#160;</text><text fill="#000000" font-family="sans-serif" font-size="14" lengthAdjust="spacing" textLength="115" x="104.5" y="180.5117">Actualizar grupo</text><ellipse cx="160" cy="808.4683" fill="none" rx="11" ry="11" style="stroke:#222222;stroke-width:1.0;"/><ellipse cx="160" cy="808.4683" fill="#222222" rx="6" ry="6" style="stroke:#222222;stroke-width:1.0;"/><!--link usuarioSolicita to solicitudFiltros--><g id="link_usuarioSolicita_solicitudFiltros"><path d="M160,188.8783 C160,200.2083 160,208.0983 160,219.1683 " fill="none" id="usuarioSolicita-to-solicitudFiltros" style="stroke:#008000;stroke-width:1.0;"/><polygon fill="#008000" points="160,225.1683,164,216.1683,160,220.1683,156,216.1683,160,225.1683" style="stroke:#008000;stroke-width:1.0;"/></g><!--link solicitudFiltros to envioFiltros--><g id="link_solicitudFiltros_envioFiltros"><path d="M134.76,254.5883 C100.91,265.4783 45,283.4683 45,283.4683 C45,283.4683 44.3683,420.0883 44.1183,473.0083 " fill="none" id="solicitudFiltros-to-envioFiltros" style="stroke:#008000;stroke-width:1.0;"/><polygon fill="#008000" points="44.09,479.0083,48.1325,470.0273,44.1136,474.0083,40.1326,469.9895,44.09,479.0083" style="stroke:#008000;stroke-width:1.0;"/><path d="M50,288.4683 L50,451.4683 L257,451.4683 L257,298.4683 L247,288.4683 L50,288.4683 " fill="#F5F5F5" style="stroke:#008000;stroke-width:0.5;"/><path d="M247,288.4683 L247,298.4683 L257,298.4683 L247,288.4683 " fill="#F5F5F5" style="stroke:#008000;stroke-width:0.5;"/><text fill="#000000" font-family="sans-serif" font-size="13" font-weight="bold" lengthAdjust="spacing" textLength="103" x="56" y="306.0366">Sistema Solicita</text><ellipse cx="61.5" cy="316.5894" fill="#000000" rx="2.5" ry="2.5" style="stroke:#000000;stroke-width:0.0;"/><text fill="#000000" font-family="sans-serif" font-size="13" lengthAdjust="spacing" textLength="127" x="68" y="321.3472">Campos a actualizar</text><ellipse cx="61.5" cy="331.8999" fill="#000000" rx="2.5" ry="2.5" style="stroke:#000000;stroke-width:0.0;"/><text fill="#000000" font-family="sans-serif" font-size="13" font-weight="bold" lengthAdjust="spacing" textLength="54" x="68" y="336.6577">Campos</text><text fill="#000000" font-family="sans-serif" font-size="13" lengthAdjust="spacing" textLength="126" x="72" y="351.9683">- Nombre del grupo</text><text fill="#000000" font-family="sans-serif" font-size="13" lengthAdjust="spacing" textLength="170" x="72" y="367.2788">- Incorporar nuevo usuario</text><text fill="#000000" font-family="sans-serif" font-size="13" lengthAdjust="spacing" textLength="122" x="72" y="382.5894">- Quitar un usuario</text><text fill="#000000" font-family="sans-serif" font-size="13" lengthAdjust="spacing" textLength="118" x="72" y="397.8999">- Estado del grupo</text><text fill="#000000" font-family="sans-serif" font-size="13" lengthAdjust="spacing" textLength="4" x="56" y="413.2105">&#160;</text><text fill="#000000" font-family="sans-serif" font-size="13" font-weight="bold" lengthAdjust="spacing" textLength="108" x="56" y="428.521">Sistema Permite</text><ellipse cx="61.5" cy="439.0738" fill="#000000" rx="2.5" ry="2.5" style="stroke:#000000;stroke-width:0.0;"/><text fill="#000000" font-family="sans-serif" font-size="13" lengthAdjust="spacing" textLength="104" x="68" y="443.8316">Actualizar grupo</text></g><!--link envioFiltros to revisionFiltrosEnviados--><g id="link_envioFiltros_revisionFiltrosEnviados"><path d="M44.11,519.8583 C44.38,564.2483 45,669.4683 45,669.4683 C45,669.4683 118.0518,687.8925 145.1618,694.7225 " fill="none" id="envioFiltros-to-revisionFiltrosEnviados" style="stroke:#008000;stroke-width:1.0;"/><polygon fill="#008000" points="150.98,696.1883,143.2299,690.1108,146.1315,694.9668,141.2755,697.8684,150.98,696.1883" style="stroke:#008000;stroke-width:1.0;"/><path d="M50,547.4683 L50,664.4683 L257,664.4683 L257,557.4683 L247,547.4683 L50,547.4683 " fill="#F5F5F5" style="stroke:#008000;stroke-width:0.5;"/><path d="M247,547.4683 L247,557.4683 L257,557.4683 L247,547.4683 " fill="#F5F5F5" style="stroke:#008000;stroke-width:0.5;"/><text fill="#000000" font-family="sans-serif" font-size="13" font-weight="bold" lengthAdjust="spacing" textLength="121" x="56" y="565.0366">Usuario introduce</text><ellipse cx="61.5" cy="575.5894" fill="#000000" rx="2.5" ry="2.5" style="stroke:#000000;stroke-width:0.0;"/><text fill="#000000" font-family="sans-serif" font-size="13" lengthAdjust="spacing" textLength="127" x="68" y="580.3472">Campos a actualizar</text><ellipse cx="61.5" cy="590.8999" fill="#000000" rx="2.5" ry="2.5" style="stroke:#000000;stroke-width:0.0;"/><text fill="#000000" font-family="sans-serif" font-size="13" font-weight="bold" lengthAdjust="spacing" textLength="54" x="68" y="595.6577">Campos</text><text fill="#000000" font-family="sans-serif" font-size="13" lengthAdjust="spacing" textLength="126" x="72" y="610.9683">- Nombre del grupo</text><text fill="#000000" font-family="sans-serif" font-size="13" lengthAdjust="spacing" textLength="170" x="72" y="626.2788">- Incorporar nuevo usuario</text><text fill="#000000" font-family="sans-serif" font-size="13" lengthAdjust="spacing" textLength="122" x="72" y="641.5894">- Quitar un usuario</text><text fill="#000000" font-family="sans-serif" font-size="13" lengthAdjust="spacing" textLength="118" x="72" y="656.8999">- Estado del grupo</text></g><!--link revisionFiltrosEnviados to solicitudFiltros--><g id="link_revisionFiltrosEnviados_solicitudFiltros"><path d="M169.05,695.8983 C194.02,688.7983 262,669.4683 262,669.4683 C262,669.4683 262,283.4683 262,283.4683 C262,283.4683 221.3303,268.7145 191.1203,257.7545 " fill="none" id="revisionFiltrosEnviados-to-solicitudFiltros" style="stroke:#FF0000;stroke-width:1.0;"/><polygon fill="#FF0000" points="185.48,255.7083,192.5763,262.5379,190.1802,257.4135,195.3046,255.0175,185.48,255.7083" style="stroke:#FF0000;stroke-width:1.0;"/><path d="M267,479.4683 L267,519.4683 L399,519.4683 L399,489.4683 L389,479.4683 L267,479.4683 " fill="#F5F5F5" style="stroke:#008000;stroke-width:0.5;"/><path d="M389,479.4683 L389,489.4683 L399,489.4683 L389,479.4683 " fill="#F5F5F5" style="stroke:#008000;stroke-width:0.5;"/><text fill="#000000" font-family="sans-serif" font-size="13" font-weight="bold" lengthAdjust="spacing" textLength="111" x="273" y="497.0366">Sistema Muestra</text><text fill="#000000" font-family="sans-serif" font-size="13" lengthAdjust="spacing" textLength="104" x="273" y="512.3472">Mensaje de error</text></g><!--link revisionFiltrosEnviados to *end*ActualizarGrupo--><g id="link_revisionFiltrosEnviados_*end*ActualizarGrupo"><path d="M160,711.9183 C160,732.8383 160,770.9183 160,791.0483 " fill="none" id="revisionFiltrosEnviados-to-*end*ActualizarGrupo" style="stroke:#008000;stroke-width:1.0;"/><polygon fill="#008000" points="160,797.0483,164,788.0483,160,792.0483,156,788.0483,160,797.0483" style="stroke:#008000;stroke-width:1.0;"/><path d="M165,734.4683 L165,774.4683 L343,774.4683 L343,744.4683 L333,734.4683 L165,734.4683 " fill="#F5F5F5" style="stroke:#008000;stroke-width:0.5;"/><path d="M333,734.4683 L333,744.4683 L343,744.4683 L333,734.4683 " fill="#F5F5F5" style="stroke:#008000;stroke-width:0.5;"/><text fill="#000000" font-family="sans-serif" font-size="13" font-weight="bold" lengthAdjust="spacing" textLength="111" x="171" y="752.0366">Sistema Muestra</text><text fill="#000000" font-family="sans-serif" font-size="13" lengthAdjust="spacing" textLength="157" x="171" y="767.3472">Mensaje de confirmaci&#243;n</text></g><!--link startState to ActualizarGrupo--><g id="link_startState_ActualizarGrupo"><path d="M207.5,47.44 C207.5,61.39 207.5,76.06 207.5,100.87 " fill="none" id="startState-to-ActualizarGrupo" style="stroke:#008000;stroke-width:1.0;"/><polygon fill="#008000" points="207.5,106.87,211.5,97.87,207.5,101.87,203.5,97.87,207.5,106.87" style="stroke:#008000;stroke-width:1.0;"/></g><!--link ActualizarGrupo to endState--><g id="link_ActualizarGrupo_endState"><path d="M207.5,829.94 C207.5,854.71 207.5,869.32 207.5,883.21 " fill="none" id="ActualizarGrupo-to-endState" style="stroke:#008000;stroke-width:1.0;"/><polygon fill="#008000" points="207.5,889.21,211.5,880.21,207.5,884.21,203.5,880.21,207.5,889.21" style="stroke:#008000;stroke-width:1.0;"/></g><!--SRC=[rLJRRXCn47ttLupIjqeHxoXQAPHILQ8NMFfKAkJOqyHarxCQswa2wbVn2VmOzbx2ncqga7XX7rRhcUEPSux7wzR6Df9b3Ty5m2LvV2FLUiaKh3wXYXYE7bR6OrdJ6YDYpamFVMB9Y7ROHQoHiqHbBFfjWz1GjKqByIZ4ocW4h1k_1OrEiMcy8Ik4yz8Zn3VxilsK3YRlpyjFyyktLr_EFjvSNvMJ7eLMlu0HeoBJQG5pvOEip3V9PnmQ4Y8BjA2Xv40anoHx07gIL1bbVD3lJEMPN4i39YC4sesXWrd6ZN5HT0yuZM2f8t0sKoio2ejY10ukI3PKTZrbMsssA6wwC0pnrxDNYm8-sn5nM2RcqOzKB2-JDESwkgwvkCwTttfQb8rd3cJJ4Q_RG7eYhT8uZxNSqKgiTlbZE95ranm1kMCvoiRz7M1lLtgcSSZg1MCScQgJbQNFhI9kYADg6t13WzuCzY54JWp17iYVHiyrZReyf-qQkOvN8fEM-zwcubIrLeb-DPgAPEk1GNZHuU7WZOrRT53ulrlyrAT3zsDwUyIexvwRt3yQoek0plF-J5wWTV9hKWqO_styDtGYaTlZkt_HMf6zDrnBPNx-iFiK7iKl]--></g></svg>