<?xml version="1.0" encoding="us-ascii" standalone="no"?><svg xmlns="http://www.w3.org/2000/svg" xmlns:xlink="http://www.w3.org/1999/xlink" contentStyleType="text/css" height="814px" preserveAspectRatio="none" style="width:438px;height:814px;background:#FFFFFF;" version="1.1" viewBox="0 0 438 814" width="438px" zoomAndPan="magnify"><defs/><g><rect fill="#F1F1F1" height="40" rx="12.5" ry="12.5" style="stroke:#181818;stroke-width:0.5;" width="142" x="145" y="7"/><text fill="#000000" font-family="sans-serif" font-size="14" lengthAdjust="spacing" textLength="132" x="150" y="32.291">LISTANDO_GRUPOS</text><rect fill="#F1F1F1" height="40" rx="12.5" ry="12.5" style="stroke:#181818;stroke-width:0.5;" width="142" x="145" y="768.49"/><text fill="#000000" font-family="sans-serif" font-size="14" lengthAdjust="spacing" textLength="132" x="150" y="793.781">LISTANDO_GRUPOS</text><path d="M19.5,157 L412.5,157 A12.5,12.5 0 0 1 425,169.5 L425,183.4883 L7,183.4883 L7,169.5 A12.5,12.5 0 0 1 19.5,157 " fill="#F1F1F1" style="stroke:#F1F1F1;stroke-width:1.0;"/><rect fill="none" height="550.4883" rx="12.5" ry="12.5" style="stroke:#181818;stroke-width:0.5;" width="418" x="7" y="157"/><line style="stroke:#181818;stroke-width:0.5;" x1="7" x2="425" y1="183.4883" y2="183.4883"/><text fill="#000000" font-family="sans-serif" font-size="14" lengthAdjust="spacing" textLength="81" x="175.5" y="175.5352">CrearGrupo</text><rect fill="#F1F1F1" height="40" rx="12.5" ry="12.5" style="stroke:#181818;stroke-width:0.5;" width="50" x="143" y="195.4883"/><text fill="#000000" font-family="sans-serif" font-size="14" lengthAdjust="spacing" textLength="4" x="166" y="220.7793">&#160;</text><rect fill="#F1F1F1" height="40" rx="12.5" ry="12.5" style="stroke:#181818;stroke-width:0.5;" width="50" x="19" y="403.4883"/><text fill="#000000" font-family="sans-serif" font-size="14" lengthAdjust="spacing" textLength="4" x="42" y="428.7793">&#160;</text><g id="elem_revisionFiltrosEnviados"><polygon fill="#F1F1F1" points="168,565.4883,180,577.4883,168,589.4883,156,577.4883,168,565.4883" style="stroke:#181818;stroke-width:0.5;"/></g><ellipse cx="168" cy="686.4883" fill="none" rx="11" ry="11" style="stroke:#222222;stroke-width:1.0;"/><ellipse cx="168" cy="686.4883" fill="#222222" rx="6" ry="6" style="stroke:#222222;stroke-width:1.0;"/><!--link solicitudFiltros to envioFiltros--><g id="link_solicitudFiltros_envioFiltros"><path d="M142.51,224.1583 C106.49,234.9883 45,253.4883 45,253.4883 C45,253.4883 44.4165,352.7084 44.1465,397.0984 " fill="none" id="solicitudFiltros-to-envioFiltros" style="stroke:#008000;stroke-width:1.0;"/><polygon fill="#008000" points="44.11,403.0983,48.1647,394.1228,44.1404,398.0984,40.1648,394.0741,44.11,403.0983" style="stroke:#008000;stroke-width:1.0;"/><path d="M50,258.4883 L50,375.4883 L274,375.4883 L274,268.4883 L264,258.4883 L50,258.4883 " fill="#F5F5F5" style="stroke:#008000;stroke-width:0.5;"/><path d="M264,258.4883 L264,268.4883 L274,268.4883 L264,258.4883 " fill="#F5F5F5" style="stroke:#008000;stroke-width:0.5;"/><text fill="#000000" font-family="sans-serif" font-size="13" font-weight="bold" lengthAdjust="spacing" textLength="103" x="56" y="276.0566">Sistema Solicita</text><ellipse cx="61.5" cy="286.6094" fill="#000000" rx="2.5" ry="2.5" style="stroke:#000000;stroke-width:0.0;"/><text fill="#000000" font-family="sans-serif" font-size="13" lengthAdjust="spacing" textLength="114" x="68" y="291.3672">Nombre del grupo</text><ellipse cx="61.5" cy="301.9199" fill="#000000" rx="2.5" ry="2.5" style="stroke:#000000;stroke-width:0.0;"/><text fill="#000000" font-family="sans-serif" font-size="13" lengthAdjust="spacing" textLength="191" x="68" y="306.6777">Usuarios a incorporar al grupo</text><ellipse cx="61.5" cy="317.2305" fill="#000000" rx="2.5" ry="2.5" style="stroke:#000000;stroke-width:0.0;"/><text fill="#000000" font-family="sans-serif" font-size="13" lengthAdjust="spacing" textLength="106" x="68" y="321.9883">Estado del grupo</text><text fill="#000000" font-family="sans-serif" font-size="13" lengthAdjust="spacing" textLength="4" x="56" y="337.2988">&#160;</text><text fill="#000000" font-family="sans-serif" font-size="13" font-weight="bold" lengthAdjust="spacing" textLength="108" x="56" y="352.6094">Sistema Permite</text><ellipse cx="61.5" cy="363.1621" fill="#000000" rx="2.5" ry="2.5" style="stroke:#000000;stroke-width:0.0;"/><text fill="#000000" font-family="sans-serif" font-size="13" lengthAdjust="spacing" textLength="74" x="68" y="367.9199">Crear grupo</text></g><!--link envioFiltros to revisionFiltrosEnviados--><g id="link_envioFiltros_revisionFiltrosEnviados"><path d="M44.16,443.9783 C44.44,478.6583 45,547.4883 45,547.4883 C45,547.4883 124.31,566.192 152.91,572.932 " fill="none" id="envioFiltros-to-revisionFiltrosEnviados" style="stroke:#008000;stroke-width:1.0;"/><polygon fill="#008000" points="158.75,574.3083,150.9075,568.3505,153.8833,573.1614,149.0724,576.1372,158.75,574.3083" style="stroke:#008000;stroke-width:1.0;"/><path d="M50,471.4883 L50,542.4883 L274,542.4883 L274,481.4883 L264,471.4883 L50,471.4883 " fill="#F5F5F5" style="stroke:#008000;stroke-width:0.5;"/><path d="M264,471.4883 L264,481.4883 L274,481.4883 L264,471.4883 " fill="#F5F5F5" style="stroke:#008000;stroke-width:0.5;"/><text fill="#000000" font-family="sans-serif" font-size="13" font-weight="bold" lengthAdjust="spacing" textLength="121" x="56" y="489.0566">Usuario introduce</text><ellipse cx="61.5" cy="499.6094" fill="#000000" rx="2.5" ry="2.5" style="stroke:#000000;stroke-width:0.0;"/><text fill="#000000" font-family="sans-serif" font-size="13" lengthAdjust="spacing" textLength="114" x="68" y="504.3672">Nombre del grupo</text><ellipse cx="61.5" cy="514.9199" fill="#000000" rx="2.5" ry="2.5" style="stroke:#000000;stroke-width:0.0;"/><text fill="#000000" font-family="sans-serif" font-size="13" lengthAdjust="spacing" textLength="191" x="68" y="519.6777">Usuarios a incorporar al grupo</text><ellipse cx="61.5" cy="530.2305" fill="#000000" rx="2.5" ry="2.5" style="stroke:#000000;stroke-width:0.0;"/><text fill="#000000" font-family="sans-serif" font-size="13" lengthAdjust="spacing" textLength="106" x="68" y="534.9883">Estado del grupo</text></g><!--link revisionFiltrosEnviados to solicitudFiltros--><g id="link_revisionFiltrosEnviados_solicitudFiltros"><path d="M177.08,574.1183 C203.59,567.1883 279,547.4883 279,547.4883 C279,547.4883 279,253.4883 279,253.4883 C279,253.4883 231.9323,237.7951 199.1623,226.8751 " fill="none" id="revisionFiltrosEnviados-to-solicitudFiltros" style="stroke:#FF0000;stroke-width:1.0;"/><polygon fill="#FF0000" points="193.47,224.9783,200.7438,231.6184,198.2136,226.559,203.273,224.0287,193.47,224.9783" style="stroke:#FF0000;stroke-width:1.0;"/><path d="M284,403.4883 L284,443.4883 L416,443.4883 L416,413.4883 L406,403.4883 L284,403.4883 " fill="#F5F5F5" style="stroke:#008000;stroke-width:0.5;"/><path d="M406,403.4883 L406,413.4883 L416,413.4883 L406,403.4883 " fill="#F5F5F5" style="stroke:#008000;stroke-width:0.5;"/><text fill="#000000" font-family="sans-serif" font-size="13" font-weight="bold" lengthAdjust="spacing" textLength="111" x="290" y="421.0566">Sistema Muestra</text><text fill="#000000" font-family="sans-serif" font-size="13" lengthAdjust="spacing" textLength="104" x="290" y="436.3672">Mensaje de error</text></g><!--link revisionFiltrosEnviados to *end*CrearGrupo--><g id="link_revisionFiltrosEnviados_*end*CrearGrupo"><path d="M168,589.9383 C168,610.8583 168,648.9383 168,669.0683 " fill="none" id="revisionFiltrosEnviados-to-*end*CrearGrupo" style="stroke:#008000;stroke-width:1.0;"/><polygon fill="#008000" points="168,675.0683,172,666.0683,168,670.0683,164,666.0683,168,675.0683" style="stroke:#008000;stroke-width:1.0;"/><path d="M173,612.4883 L173,652.4883 L351,652.4883 L351,622.4883 L341,612.4883 L173,612.4883 " fill="#F5F5F5" style="stroke:#008000;stroke-width:0.5;"/><path d="M341,612.4883 L341,622.4883 L351,622.4883 L341,612.4883 " fill="#F5F5F5" style="stroke:#008000;stroke-width:0.5;"/><text fill="#000000" font-family="sans-serif" font-size="13" font-weight="bold" lengthAdjust="spacing" textLength="111" x="179" y="630.0566">Sistema Muestra</text><text fill="#000000" font-family="sans-serif" font-size="13" lengthAdjust="spacing" textLength="157" x="179" y="645.3672">Mensaje de confirmaci&#243;n</text></g><!--link startState to CrearGrupo--><g id="link_startState_CrearGrupo"><path d="M216,47.45 C216,70.11 216,104.38 216,150.56 " fill="none" id="startState-to-CrearGrupo" style="stroke:#008000;stroke-width:1.0;"/><polygon fill="#008000" points="216,156.56,220,147.56,216,151.56,212,147.56,216,156.56" style="stroke:#008000;stroke-width:1.0;"/><path d="M221,82 L221,122 L345,122 L345,92 L335,82 L221,82 " fill="#F5F5F5" style="stroke:#008000;stroke-width:0.5;"/><path d="M335,82 L335,92 L345,92 L335,82 " fill="#F5F5F5" style="stroke:#008000;stroke-width:0.5;"/><text fill="#000000" font-family="sans-serif" font-size="13" font-weight="bold" lengthAdjust="spacing" textLength="103" x="227" y="99.5684">Usuario Solicita</text><ellipse cx="232.5" cy="110.1211" fill="#000000" rx="2.5" ry="2.5" style="stroke:#000000;stroke-width:0.0;"/><text fill="#000000" font-family="sans-serif" font-size="13" lengthAdjust="spacing" textLength="74" x="239" y="114.8789">Crear grupo</text></g><!--link CrearGrupo to endState--><g id="link_CrearGrupo_endState"><path d="M216,707.55 C216,732.57 216,747.85 216,762.14 " fill="none" id="CrearGrupo-to-endState" style="stroke:#008000;stroke-width:1.0;"/><polygon fill="#008000" points="216,768.14,220,759.14,216,763.14,212,759.14,216,768.14" style="stroke:#008000;stroke-width:1.0;"/></g><!--SRC=[lLFRJjj047tVhnY5DwI87uWiKGge4WHKboU4gitkD9d6th5crw08yLNzXFvOnvSeJa9GaH0lbjTpvioPSzPnIQ6oOajuDW1JJlZ5kkLSk0x-Z0iME7fQKCAyv2KgubI4d_h2N133kel5e-mK2WgOLXL2nSMgEPWNOnRa4R2iqWeyHYTK9U9WJ4ms8UXJKjw-sWYZgs_vZzFfrvkVbz_lRc_oKO_2uD_0c079U9p1cQ2LIwahDa6b0eT6sL850ancsLsihH13pWKvIdPoCilQsd7N2VEsLMT2qsxCXg-bNujPhp0eFxSy_MOTVUqlg4Z2iTKEem42moFnmQhW8qLrgWUSAzXw1KucRi7aCCjCXzwTqsdSKBUeFIDwCtAA2KkxRqPdo9JBcQ06L_IkR4gzZQeSA3YMYaMzi_l0Szt7yu3ZjVctAALUkvtnmpoQBvjCkjF0lsRh0vQzQS3wDb3G5byx_0m7zdSvbFRu_aZGF-Xokpd_LwpNDSOaswbUOuZsTxCIeFxTyXurgkF- -E4ZHZiElqXAw-Zldx0juSNy0m00]--></g></svg>