<svg xmlns="http://www.w3.org/2000/svg" xmlns:xlink="http://www.w3.org/1999/xlink" contentStyleType="text/css" height="908px" preserveAspectRatio="none" style="width:1546px;height:908px;background:#FFFFFF;" version="1.1" viewBox="0 0 1546 908" width="1546px" zoomAndPan="magnify"><defs/><g><g id="elem_TipoDeRutina"><polygon fill="#F1F1F1" points="853.5,751.33,865.5,763.33,853.5,775.33,841.5,763.33,853.5,751.33" style="stroke:#181818;stroke-width:0.5;"/></g><ellipse cx="1231.5" cy="184.33" fill="#222222" rx="10" ry="10" style="stroke:#222222;stroke-width:1;"/><g id="MenuPrincipal"><rect fill="#F1F1F1" height="50" rx="12.5" ry="12.5" style="stroke:#181818;stroke-width:0.5;" width="118.3418" x="1172.5" y="296.83"/><line style="stroke:#181818;stroke-width:0.5;" x1="1172.5" x2="1290.8418" y1="323.1269" y2="323.1269"/><text fill="#000000" font-family="sans-serif" font-size="14" lengthAdjust="spacing" textLength="98.3418" x="1182.5" y="314.8251">MenuPrincipal</text></g><g id="MenuRutinas"><rect fill="#F1F1F1" height="50" rx="12.5" ry="12.5" style="stroke:#181818;stroke-width:0.5;" width="111.1641" x="1020" y="434.33"/><line style="stroke:#181818;stroke-width:0.5;" x1="1020" x2="1131.1641" y1="460.6269" y2="460.6269"/><text fill="#000000" font-family="sans-serif" font-size="14" lengthAdjust="spacing" textLength="91.1641" x="1030" y="452.3251">MenuRutinas</text></g><ellipse cx="1250.5" cy="586.33" fill="none" rx="11" ry="11" style="stroke:#222222;stroke-width:1;"/><ellipse cx="1250.5" cy="586.33" fill="#222222" rx="6" ry="6" style="stroke:#222222;stroke-width:1;"/><g id="CrearRutina"><rect fill="#F1F1F1" height="50" rx="12.5" ry="12.5" style="stroke:#181818;stroke-width:0.5;" width="103.9111" x="801.5" y="561.33"/><line style="stroke:#181818;stroke-width:0.5;" x1="801.5" x2="905.4111" y1="587.6269" y2="587.6269"/><text fill="#000000" font-family="sans-serif" font-size="14" lengthAdjust="spacing" textLength="83.9111" x="811.5" y="579.3251">CrearRutina</text></g><g id="RutinaPecho"><rect fill="#F1F1F1" height="50" rx="12.5" ry="12.5" style="stroke:#181818;stroke-width:0.5;" width="107.623" x="986.5" y="32.33"/><line style="stroke:#181818;stroke-width:0.5;" x1="986.5" x2="1094.123" y1="58.6269" y2="58.6269"/><text fill="#000000" font-family="sans-serif" font-size="14" lengthAdjust="spacing" textLength="87.623" x="996.5" y="50.3251">RutinaPecho</text></g><g id="RutinaEspalda"><rect fill="#F1F1F1" height="50" rx="12.5" ry="12.5" style="stroke:#181818;stroke-width:0.5;" width="120.3926" x="340.5" y="852.33"/><line style="stroke:#181818;stroke-width:0.5;" x1="340.5" x2="460.8926" y1="878.6269" y2="878.6269"/><text fill="#000000" font-family="sans-serif" font-size="14" lengthAdjust="spacing" textLength="100.3926" x="350.5" y="870.3251">RutinaEspalda</text></g><g id="RutinaPiernas"><rect fill="#F1F1F1" height="50" rx="12.5" ry="12.5" style="stroke:#181818;stroke-width:0.5;" width="116.8789" x="795" y="852.33"/><line style="stroke:#181818;stroke-width:0.5;" x1="795" x2="911.8789" y1="878.6269" y2="878.6269"/><text fill="#000000" font-family="sans-serif" font-size="14" lengthAdjust="spacing" textLength="96.8789" x="805" y="870.3251">RutinaPiernas</text></g><g id="ElegirEjercicios"><rect fill="#F1F1F1" height="50" rx="12.5" ry="12.5" style="stroke:#181818;stroke-width:0.5;" width="126.0186" x="519.5" y="159.33"/><line style="stroke:#181818;stroke-width:0.5;" x1="519.5" x2="645.5186" y1="185.6269" y2="185.6269"/><text fill="#000000" font-family="sans-serif" font-size="14" lengthAdjust="spacing" textLength="106.0186" x="529.5" y="177.3251">ElegirEjercicios</text></g><g id="PublicarRutina"><rect fill="#F1F1F1" height="50" rx="12.5" ry="12.5" style="stroke:#181818;stroke-width:0.5;" width="121.4453" x="775" y="296.83"/><line style="stroke:#181818;stroke-width:0.5;" x1="775" x2="896.4453" y1="323.1269" y2="323.1269"/><text fill="#000000" font-family="sans-serif" font-size="14" lengthAdjust="spacing" textLength="101.4453" x="785" y="314.8251">PublicarRutina</text></g><g id="elem_GMN2"><path d="M1130,44.83 L1130,53.33 L1094.92,57.33 L1130,61.33 L1130,69.9628 A0,0 0 0 0 1130,69.9628 L1382.626,69.9628 A0,0 0 0 0 1382.626,69.9628 L1382.626,54.83 L1372.626,44.83 L1130,44.83 A0,0 0 0 0 1130,44.83 " fill="#FEFFDD" style="stroke:#181818;stroke-width:0.5;"/><path d="M1372.626,44.83 L1372.626,54.83 L1382.626,54.83 L1372.626,44.83 " fill="#FEFFDD" style="stroke:#181818;stroke-width:0.5;"/><text fill="#000000" font-family="sans-serif" font-size="13" lengthAdjust="spacing" textLength="231.626" x="1136" y="61.8969">Profesor establece rutina de pecho.</text></g><g id="elem_GMN5"><path d="M495.5,864.83 L495.5,873.33 L460.8,877.33 L495.5,881.33 L495.5,889.9628 A0,0 0 0 0 495.5,889.9628 L759.355,889.9628 A0,0 0 0 0 759.355,889.9628 L759.355,874.83 L749.355,864.83 L495.5,864.83 A0,0 0 0 0 495.5,864.83 " fill="#FEFFDD" style="stroke:#181818;stroke-width:0.5;"/><path d="M749.355,864.83 L749.355,874.83 L759.355,874.83 L749.355,864.83 " fill="#FEFFDD" style="stroke:#181818;stroke-width:0.5;"/><text fill="#000000" font-family="sans-serif" font-size="13" lengthAdjust="spacing" textLength="242.855" x="501.5" y="881.8969">Profesor establece rutina de espalda.</text></g><g id="elem_GMN8"><path d="M947,864.83 L947,873.33 L912.12,877.33 L947,881.33 L947,889.9628 A0,0 0 0 0 947,889.9628 L1208.2207,889.9628 A0,0 0 0 0 1208.2207,889.9628 L1208.2207,874.83 L1198.2207,864.83 L947,864.83 A0,0 0 0 0 947,864.83 " fill="#FEFFDD" style="stroke:#181818;stroke-width:0.5;"/><path d="M1198.2207,864.83 L1198.2207,874.83 L1208.2207,874.83 L1198.2207,864.83 " fill="#FEFFDD" style="stroke:#181818;stroke-width:0.5;"/><text fill="#000000" font-family="sans-serif" font-size="13" lengthAdjust="spacing" textLength="240.2207" x="953" y="881.8969">Profesor establece rutina de piernas.</text></g><g id="elem_GMN11"><path d="M6,286.33 L6,356.8613 L346.96,356.8613 L346.96,296.33 L336.96,286.33 L6,286.33 " fill="#FEFFDD" style="stroke:#181818;stroke-width:0.5;"/><path d="M336.96,286.33 L336.96,296.33 L346.96,296.33 L336.96,286.33 " fill="#FEFFDD" style="stroke:#181818;stroke-width:1;"/><text fill="#000000" font-family="sans-serif" font-size="13" lengthAdjust="spacing" textLength="319.96" x="12" y="303.3969">El profesor define los detalles de la rutina, como:</text><text fill="#000000" font-family="sans-serif" font-size="13" lengthAdjust="spacing" textLength="139.4834" x="12" y="318.5297">- Nombre de la rutina</text><text fill="#000000" font-family="sans-serif" font-size="13" lengthAdjust="spacing" textLength="156.4951" x="12" y="333.6625">- Selecci&#243;n de ejercicios</text><text fill="#000000" font-family="sans-serif" font-size="13" lengthAdjust="spacing" textLength="144.771" x="12" y="348.7953">- Divisi&#243;n por m&#250;sculo</text></g><g id="elem_GMN14"><path d="M680.5,171.83 L680.5,196.9628 A0,0 0 0 0 680.5,196.9628 L831.5,196.9628 L835.5,296.66 L839.5,196.9628 L990.3057,196.9628 A0,0 0 0 0 990.3057,196.9628 L990.3057,181.83 L980.3057,171.83 L680.5,171.83 A0,0 0 0 0 680.5,171.83 " fill="#FEFFDD" style="stroke:#181818;stroke-width:0.5;"/><path d="M980.3057,171.83 L980.3057,181.83 L990.3057,181.83 L980.3057,171.83 " fill="#FEFFDD" style="stroke:#181818;stroke-width:0.5;"/><text fill="#000000" font-family="sans-serif" font-size="13" lengthAdjust="spacing" textLength="288.8057" x="686.5" y="188.8969">La rutina queda visible para los estudiantes.</text></g><!--link *start* to MenuPrincipal--><g id="link_*start*_MenuPrincipal"><path d="M1231.5,194.64 C1231.5,215.45 1231.5,260.27 1231.5,290.69 " fill="none" id="*start*-to-MenuPrincipal" style="stroke:#181818;stroke-width:1;"/><polygon fill="#181818" points="1231.5,296.69,1235.5,287.69,1231.5,291.69,1227.5,287.69,1231.5,296.69" style="stroke:#181818;stroke-width:1;"/></g><!--link MenuPrincipal to MenuRutinas--><g id="link_MenuPrincipal_MenuRutinas"><path d="M1172.34,340.67 C1147.27,350.83 1119.52,365.91 1100.5,387.33 C1088.88,400.43 1083.8869,413.4163 1080.5169,428.3963 " fill="none" id="MenuPrincipal-to-MenuRutinas" style="stroke:#181818;stroke-width:1;"/><polygon fill="#181818" points="1079.2,434.25,1085.0778,426.3474,1080.2974,429.3719,1077.2729,424.5915,1079.2,434.25" style="stroke:#181818;stroke-width:1;"/><text fill="#000000" font-family="sans-serif" font-size="13" lengthAdjust="spacing" textLength="231.2388" x="1101.5" y="400.3969">Profesor selecciona "Men&#250; Rutinas"</text></g><!--link MenuPrincipal to *end*--><g id="link_MenuPrincipal_*end*"><path d="M1290.69,345.03 C1309.01,355.02 1327.1,368.83 1337.5,387.33 C1355.16,418.75 1427.68,344.03 1319.5,531.33 C1305.5,555.57 1281.3382,570.1601 1265.8382,577.9701 " fill="none" id="MenuPrincipal-to-*end*" style="stroke:#181818;stroke-width:1;"/><polygon fill="#181818" points="1260.48,580.67,1270.3173,580.1924,1264.9452,578.4201,1266.7175,573.048,1260.48,580.67" style="stroke:#181818;stroke-width:1;"/><text fill="#000000" font-family="sans-serif" font-size="13" lengthAdjust="spacing" textLength="84.2651" x="1370.5" y="463.8969">Profesor sale</text></g><!--link MenuRutinas to CrearRutina--><g id="link_MenuRutinas_CrearRutina"><path d="M1031.51,484.37 C1014.59,493.67 995.11,504.44 977.5,514.33 C950.03,529.76 924.4996,544.3559 900.4996,558.1759 " fill="none" id="MenuRutinas-to-CrearRutina" style="stroke:#181818;stroke-width:1;"/><polygon fill="#181818" points="895.3,561.17,905.0954,560.1453,899.633,558.6749,901.1033,553.2125,895.3,561.17" style="stroke:#181818;stroke-width:1;"/><text fill="#000000" font-family="sans-serif" font-size="13" lengthAdjust="spacing" textLength="224.5039" x="978.5" y="527.3969">Profesor selecciona "Crear Rutina"</text></g><!--link MenuRutinas to *end*--><g id="link_MenuRutinas_*end*"><path d="M1131.19,472.98 C1157.86,481.25 1188.84,494.32 1211.5,514.33 C1230.9,531.46 1240.6626,554.9479 1245.6826,570.0079 " fill="none" id="MenuRutinas-to-*end*" style="stroke:#181818;stroke-width:1;"/><polygon fill="#181818" points="1247.58,575.7,1248.5287,565.8969,1245.9989,570.9566,1240.9392,568.4268,1247.58,575.7" style="stroke:#181818;stroke-width:1;"/><text fill="#000000" font-family="sans-serif" font-size="13" lengthAdjust="spacing" textLength="84.2651" x="1226.5" y="527.3969">Profesor sale</text></g><!--link CrearRutina to TipoDeRutina--><g id="link_CrearRutina_TipoDeRutina"><path d="M853.5,611.66 C853.5,649.98 853.5,716.9 853.5,744.95 " fill="none" id="CrearRutina-to-TipoDeRutina" style="stroke:#181818;stroke-width:1;"/><polygon fill="#181818" points="853.5,750.95,857.5,741.95,853.5,745.95,849.5,741.95,853.5,750.95" style="stroke:#181818;stroke-width:1;"/><path d="M858.5,646.33 L858.5,716.33 L1424.5,716.33 L1424.5,656.33 L1414.5,646.33 L858.5,646.33 " fill="#FEFFDD" style="stroke:#181818;stroke-width:0.5;"/><path d="M1414.5,646.33 L1414.5,656.33 L1424.5,656.33 L1414.5,646.33 " fill="#FEFFDD" style="stroke:#181818;stroke-width:0.5;"/><text fill="#000000" font-family="sans-serif" font-size="13" lengthAdjust="spacing" textLength="545.6826" x="864.5" y="663.3969">Profesor decide el tipo de rutina dependiendo de los grupos musculares a entrenar:</text><text fill="#000000" font-family="sans-serif" font-size="13" lengthAdjust="spacing" textLength="48.001" x="864.5" y="678.5297">- Pecho</text><text fill="#000000" font-family="sans-serif" font-size="13" lengthAdjust="spacing" textLength="59.8584" x="864.5" y="693.6625">- Espalda</text><text fill="#000000" font-family="sans-serif" font-size="13" lengthAdjust="spacing" textLength="56.5957" x="864.5" y="708.7953">- Piernas</text></g><!--link TipoDeRutina to RutinaPecho--><g id="link_TipoDeRutina_RutinaPecho"><path d="M864.62,762.22 C941.17,761.41 1388.66,755.24 1437.5,721.33 C1491.25,684.01 1498.5,652.77 1498.5,587.33 C1498.5,183.33 1498.5,183.33 1498.5,183.33 C1498.5,6 1282.49,132.84 1112.5,82.33 C1106.69,80.6 1106.3554,80.5459 1100.3454,78.6259 " fill="none" id="TipoDeRutina-to-RutinaPecho" style="stroke:#181818;stroke-width:1;"/><polygon fill="#181818" points="1094.63,76.8,1101.9859,83.3491,1099.3929,78.3216,1104.4204,75.7286,1094.63,76.8" style="stroke:#181818;stroke-width:1;"/><text fill="#000000" font-family="sans-serif" font-size="13" lengthAdjust="spacing" textLength="39.1777" x="1499.5" y="400.3969">Pecho</text></g><!--link TipoDeRutina to RutinaEspalda--><g id="link_TipoDeRutina_RutinaEspalda"><path d="M844.16,766.28 C801.76,775.16 623.09,813.17 478.5,852.33 C472.76,853.89 472.5588,853.8959 466.6088,855.6359 " fill="none" id="TipoDeRutina-to-RutinaEspalda" style="stroke:#181818;stroke-width:1;"/><polygon fill="#181818" points="460.85,857.32,470.6109,858.6331,465.649,855.9166,468.3655,850.9547,460.85,857.32" style="stroke:#181818;stroke-width:1;"/><text fill="#000000" font-family="sans-serif" font-size="13" lengthAdjust="spacing" textLength="51.0352" x="662.5" y="818.3969">Espalda</text></g><!--link TipoDeRutina to RutinaPiernas--><g id="link_TipoDeRutina_RutinaPiernas"><path d="M853.5,775.48 C853.5,793.18 853.5,822.15 853.5,845.89 " fill="none" id="TipoDeRutina-to-RutinaPiernas" style="stroke:#181818;stroke-width:1;"/><polygon fill="#181818" points="853.5,851.89,857.5,842.89,853.5,846.89,849.5,842.89,853.5,851.89" style="stroke:#181818;stroke-width:1;"/><text fill="#000000" font-family="sans-serif" font-size="13" lengthAdjust="spacing" textLength="47.7725" x="854.5" y="818.3969">Piernas</text></g><!--link RutinaPecho to ElegirEjercicios--><g id="link_RutinaPecho_ElegirEjercicios"><path d="M986.38,72.35 C913.04,91.46 778.12,127 663.5,159.33 C657.71,160.96 657.4633,161.0214 651.4533,162.7614 " fill="none" id="RutinaPecho-to-ElegirEjercicios" style="stroke:#181818;stroke-width:1;"/><polygon fill="#181818" points="645.69,164.43,655.4474,165.7693,650.4928,163.0395,653.2226,158.0849,645.69,164.43" style="stroke:#181818;stroke-width:1;"/><text fill="#000000" font-family="sans-serif" font-size="13" lengthAdjust="spacing" textLength="140.6006" x="829.5" y="125.3969">Seleccionar ejercicios</text></g><!--link RutinaEspalda to ElegirEjercicios--><g id="link_RutinaEspalda_ElegirEjercicios"><path d="M400.5,852.3 C400.5,829.62 400.5,794.66 400.5,764.33 C400.5,320.83 400.5,320.83 400.5,320.83 C400.5,259.97 461.1673,225.3142 513.7373,205.7342 " fill="none" id="RutinaEspalda-to-ElegirEjercicios" style="stroke:#181818;stroke-width:1;"/><polygon fill="#181818" points="519.36,203.64,509.5299,203.0328,514.6744,205.3852,512.3221,210.5297,519.36,203.64" style="stroke:#181818;stroke-width:1;"/><text fill="#000000" font-family="sans-serif" font-size="13" lengthAdjust="spacing" textLength="140.6006" x="401.5" y="527.3969">Seleccionar ejercicios</text></g><!--link RutinaPiernas to ElegirEjercicios--><g id="link_RutinaPiernas_ElegirEjercicios"><path d="M794.8,856.94 C788.99,855.27 783.15,853.7 777.5,852.33 C701.68,833.87 664.69,872 604.5,822.33 C583.24,804.78 582.5,791.9 582.5,764.33 C582.5,320.83 582.5,320.83 582.5,320.83 C582.5,282.01 582.5,242.95 582.5,215.81 " fill="none" id="RutinaPiernas-to-ElegirEjercicios" style="stroke:#181818;stroke-width:1;"/><polygon fill="#181818" points="582.5,209.81,578.5,218.81,582.5,214.81,586.5,218.81,582.5,209.81" style="stroke:#181818;stroke-width:1;"/><text fill="#000000" font-family="sans-serif" font-size="13" lengthAdjust="spacing" textLength="140.6006" x="583.5" y="527.3969">Seleccionar ejercicios</text></g><!--link ElegirEjercicios to PublicarRutina--><g id="link_ElegirEjercicios_PublicarRutina"><path d="M611.06,209.37 C629.51,224.16 654.48,242.79 678.5,256.33 C709.05,273.55 739.5071,286.5797 769.3671,297.8597 " fill="none" id="ElegirEjercicios-to-PublicarRutina" style="stroke:#181818;stroke-width:1;"/><polygon fill="#181818" points="774.98,299.98,767.9743,293.0576,770.3026,298.2131,765.1472,300.5414,774.98,299.98" style="stroke:#181818;stroke-width:1;"/><text fill="#000000" font-family="sans-serif" font-size="13" lengthAdjust="spacing" textLength="147.0688" x="679.5" y="252.3969">Finalizar configuraci&#243;n</text></g><!--link PublicarRutina to CrearRutina--><g id="link_PublicarRutina_CrearRutina"><path d="M815,347 C790.94,378.43 756.37,435.12 773.5,484.33 C784.01,514.54 803.4861,538.2786 822.3961,557.0886 " fill="none" id="PublicarRutina-to-CrearRutina" style="stroke:#181818;stroke-width:1;"/><polygon fill="#181818" points="826.65,561.32,823.0901,552.137,823.1051,557.7939,817.4483,557.8088,826.65,561.32" style="stroke:#181818;stroke-width:1;"/><text fill="#000000" font-family="sans-serif" font-size="13" lengthAdjust="spacing" textLength="108.856" x="774.5" y="463.8969">Crear otra rutina</text></g><!--link PublicarRutina to MenuRutinas--><g id="link_PublicarRutina_MenuRutinas"><path d="M852.35,347 C866.1,365.1 887.05,389.25 910.5,404.33 C943.71,425.69 980.3132,437.8989 1013.8232,446.1289 " fill="none" id="PublicarRutina-to-MenuRutinas" style="stroke:#181818;stroke-width:1;"/><polygon fill="#181818" points="1019.65,447.56,1011.8638,441.5288,1014.7943,446.3674,1009.9557,449.298,1019.65,447.56" style="stroke:#181818;stroke-width:1;"/><text fill="#000000" font-family="sans-serif" font-size="13" lengthAdjust="spacing" textLength="168.2637" x="911.5" y="400.3969">Volver al men&#250; de rutinas</text></g><!--link PublicarRutina to *end*--><g id="link_PublicarRutina_*end*"><path d="M847.15,347.06 C872.53,399.4 931.85,519.31 948.5,531.33 C996.75,566.18 1184.9537,580.9342 1233.4837,584.2242 " fill="none" id="PublicarRutina-to-*end*" style="stroke:#181818;stroke-width:1;"/><polygon fill="#181818" points="1239.47,584.63,1230.7612,580.0304,1234.4815,584.2918,1230.2201,588.0121,1239.47,584.63" style="stroke:#181818;stroke-width:1;"/><text fill="#000000" font-family="sans-serif" font-size="13" lengthAdjust="spacing" textLength="28.7866" x="916.5" y="463.8969">Salir</text></g><!--link ElegirEjercicios to GMN11--><g id="link_ElegirEjercicios_GMN11"><path d="M519.04,199.43 C477.5,209.23 422.27,223.38 374.5,239.33 C333.95,252.87 289.88,270.69 253.63,286.21 " fill="none" id="ElegirEjercicios-GMN11" style="stroke:#181818;stroke-width:1;stroke-dasharray:7.0,7.0;"/></g><!--SRC=[dLJDRjD04BxxAKOv8j87gAfSQ3WL5574fUAmMK_IWVMkcLttm6jnwpKlnkoFpRfnMo1I5Dixy_rvCdTlli9wlO4FQ8STazNKAzCqizkfuDCGo2eFbx1ZTq3l63mQr9gSLR2IajCZbABL0iQTaDMzoc2c6e5ZqJj6nVd1SqIff12jpW0MMNnG0U4pzUuQ2_ZLbRvtf76pQMhE257NDTP9fxDWo7vlG3uJT8kQMWGq4AH1Re4pHeizsfRacvuQv-78Goy_tU3rO1IZ1mLe0wDLV9bWrx13KLIkjrvIQzLuGiZYhn54Y7gQPcObQiwN2IBQJr19EjFnFe0xr1Lp7oZfx2NUIZ_qiUpYTSAYKoX7nKkajPiNQJ4N_WLnYIHwBU4ikYrdh_lDXJLndMZatHey4c-_8MkIIOpKjzDK2kfqqCoZ-P_UqTs_zUO8zYu4ryKCddQc6BO6-ZyJV22R1xJ5e8n1dmPMbMJUWdQT6-Vpe-lsZBE2SbBqd7xPz1BdX6kufWVowRGNqkxq6Fy4hehwp6BqlHlsXdIr3DxBZw6VubaxUw3Zm2fn5j_1zT7ql2qfk1dbmey1vOr4DJ80q2jMoRnCnD2IiW5d4_14mVbwofl81PxoM6YPhyulpZmWWwp4BktBQMlufTwyp6x5Dly6]--></g></svg>