<svg xmlns="http://www.w3.org/2000/svg" xmlns:xlink="http://www.w3.org/1999/xlink" contentStyleType="text/css" height="959px" preserveAspectRatio="none" style="width:726px;height:959px;background:#FFFFFF;" version="1.1" viewBox="0 0 726 959" width="726px" zoomAndPan="magnify"><defs/><g><g id="elem_rombo"><polygon fill="#F1F1F1" points="297.5,522,309.5,534,297.5,546,285.5,534,297.5,522" style="stroke:#181818;stroke-width:0.5;"/></g><ellipse cx="297.5" cy="16" fill="#222222" rx="10" ry="10" style="stroke:#222222;stroke-width:1;"/><g id="UsuarioRegistrado"><rect fill="#F1F1F1" height="50" rx="12.5" ry="12.5" style="stroke:#181818;stroke-width:0.5;" width="148.8916" x="223" y="87"/><line style="stroke:#181818;stroke-width:0.5;" x1="223" x2="371.8916" y1="113.2969" y2="113.2969"/><text fill="#000000" font-family="sans-serif" font-size="14" lengthAdjust="spacing" textLength="128.8916" x="233" y="104.9951">UsuarioRegistrado</text></g><g id="ProcesoDeCierreDeSesi&#243;n"><rect fill="#F1F1F1" height="50" rx="12.5" ry="12.5" style="stroke:#181818;stroke-width:0.5;" width="202.2461" x="196.5" y="232"/><line style="stroke:#181818;stroke-width:0.5;" x1="196.5" x2="398.7461" y1="258.2969" y2="258.2969"/><text fill="#000000" font-family="sans-serif" font-size="14" lengthAdjust="spacing" textLength="182.2461" x="206.5" y="249.9951">ProcesoDeCierreDeSesi&#243;n</text></g><g id="ConfirmarCierreDeSesi&#243;n"><rect fill="#F1F1F1" height="50" rx="12.5" ry="12.5" style="stroke:#181818;stroke-width:0.5;" width="197.6797" x="198.5" y="377"/><line style="stroke:#181818;stroke-width:0.5;" x1="198.5" x2="396.1797" y1="403.2969" y2="403.2969"/><text fill="#000000" font-family="sans-serif" font-size="14" lengthAdjust="spacing" textLength="177.6797" x="208.5" y="394.9951">ConfirmarCierreDeSesi&#243;n</text></g><g id="Sesi&#243;nAbierta"><rect fill="#F1F1F1" height="50" rx="12.5" ry="12.5" style="stroke:#181818;stroke-width:0.5;" width="116.9131" x="7" y="641"/><line style="stroke:#181818;stroke-width:0.5;" x1="7" x2="123.9131" y1="667.2969" y2="667.2969"/><text fill="#000000" font-family="sans-serif" font-size="14" lengthAdjust="spacing" textLength="96.9131" x="17" y="658.9951">Sesi&#243;nAbierta</text></g><g id="Sesi&#243;nCerrada"><rect fill="#F1F1F1" height="50" rx="12.5" ry="12.5" style="stroke:#181818;stroke-width:0.5;" width="122.0674" x="468.5" y="641"/><line style="stroke:#181818;stroke-width:0.5;" x1="468.5" x2="590.5674" y1="667.2969" y2="667.2969"/><text fill="#000000" font-family="sans-serif" font-size="14" lengthAdjust="spacing" textLength="102.0674" x="478.5" y="658.9951">Sesi&#243;nCerrada</text></g><g id="CerrandoSesi&#243;n"><rect fill="#F1F1F1" height="50" rx="12.5" ry="12.5" style="stroke:#181818;stroke-width:0.5;" width="130.9268" x="464" y="786"/><line style="stroke:#181818;stroke-width:0.5;" x1="464" x2="594.9268" y1="812.2969" y2="812.2969"/><text fill="#000000" font-family="sans-serif" font-size="14" lengthAdjust="spacing" textLength="110.9268" x="474" y="803.9951">CerrandoSesi&#243;n</text></g><ellipse cx="529.5" cy="942" fill="none" rx="11" ry="11" style="stroke:#222222;stroke-width:1;"/><ellipse cx="529.5" cy="942" fill="#222222" rx="6" ry="6" style="stroke:#222222;stroke-width:1;"/><!--link *start* to UsuarioRegistrado--><g id="link_*start*_UsuarioRegistrado"><path d="M297.5,26.01 C297.5,39.89 297.5,60.97 297.5,80.84 " fill="none" id="*start*-to-UsuarioRegistrado" style="stroke:#181818;stroke-width:1;"/><polygon fill="#181818" points="297.5,86.84,301.5,77.84,297.5,81.84,293.5,77.84,297.5,86.84" style="stroke:#181818;stroke-width:1;"/></g><!--link UsuarioRegistrado to ProcesoDeCierreDeSesi?n--><g id="link_UsuarioRegistrado_ProcesoDeCierreDeSesi&#243;n"><path d="M297.5,137.26 C297.5,163.55 297.5,199.28 297.5,225.62 " fill="none" id="UsuarioRegistrado-to-ProcesoDeCierreDeSesi&#243;n" style="stroke:#181818;stroke-width:1;"/><polygon fill="#181818" points="297.5,231.62,301.5,222.62,297.5,226.62,293.5,222.62,297.5,231.62" style="stroke:#181818;stroke-width:1;"/><path d="M302.5,172 L302.5,197 L525.5,197 L525.5,182 L515.5,172 L302.5,172 " fill="#FEFFDD" style="stroke:#181818;stroke-width:0.5;"/><path d="M515.5,172 L515.5,182 L525.5,182 L515.5,172 " fill="#FEFFDD" style="stroke:#181818;stroke-width:0.5;"/><text fill="#000000" font-family="sans-serif" font-size="13" lengthAdjust="spacing" textLength="202.9727" x="308.5" y="189.0669">Usuario desea salir del sistema</text></g><!--link ProcesoDeCierreDeSesi?n to ConfirmarCierreDeSesi?n--><g id="link_ProcesoDeCierreDeSesi&#243;n_ConfirmarCierreDeSesi&#243;n"><path d="M297.5,282.26 C297.5,308.55 297.5,344.28 297.5,370.62 " fill="none" id="ProcesoDeCierreDeSesi&#243;n-to-ConfirmarCierreDeSesi&#243;n" style="stroke:#181818;stroke-width:1;"/><polygon fill="#181818" points="297.5,376.62,301.5,367.62,297.5,371.62,293.5,367.62,297.5,376.62" style="stroke:#181818;stroke-width:1;"/><path d="M302.5,317 L302.5,342 L665.5,342 L665.5,327 L655.5,317 L302.5,317 " fill="#FEFFDD" style="stroke:#181818;stroke-width:0.5;"/><path d="M655.5,317 L655.5,327 L665.5,327 L655.5,317 " fill="#FEFFDD" style="stroke:#181818;stroke-width:0.5;"/><text fill="#000000" font-family="sans-serif" font-size="13" lengthAdjust="spacing" textLength="342.5005" x="308.5" y="334.0669">Sistema confirma que el usuario desea cerrar sesi&#243;n</text></g><!--link ConfirmarCierreDeSesi?n to rombo--><g id="link_ConfirmarCierreDeSesi&#243;n_rombo"><path d="M297.5,427.15 C297.5,455.34 297.5,494.79 297.5,515.75 " fill="none" id="ConfirmarCierreDeSesi&#243;n-to-rombo" style="stroke:#181818;stroke-width:1;"/><polygon fill="#181818" points="297.5,521.75,301.5,512.75,297.5,516.75,293.5,512.75,297.5,521.75" style="stroke:#181818;stroke-width:1;"/><path d="M302.5,462 L302.5,487 L466.5,487 L466.5,472 L456.5,462 L302.5,462 " fill="#FEFFDD" style="stroke:#181818;stroke-width:0.5;"/><path d="M456.5,462 L456.5,472 L466.5,472 L456.5,462 " fill="#FEFFDD" style="stroke:#181818;stroke-width:0.5;"/><text fill="#000000" font-family="sans-serif" font-size="13" lengthAdjust="spacing" textLength="143.3047" x="308.5" y="479.0669">&#191;Desea cerrar sesi&#243;n?</text></g><!--link rombo to Sesi?nAbierta--><g id="link_rombo_Sesi&#243;nAbierta"><path d="M290.3,539.03 C263.23,554.2 171.3641,605.6767 114.0141,637.8167 " fill="none" id="rombo-to-Sesi&#243;nAbierta" style="stroke:#181818;stroke-width:1;"/><polygon fill="#181818" points="108.78,640.75,118.5867,639.8395,113.1418,638.3056,114.6756,632.8607,108.78,640.75" style="stroke:#181818;stroke-width:1;"/><path d="M227.5,581 L227.5,606 L265.5,606 L265.5,591 L255.5,581 L227.5,581 " fill="#FEFFDD" style="stroke:#181818;stroke-width:0.5;"/><path d="M255.5,581 L255.5,591 L265.5,591 L255.5,581 " fill="#FEFFDD" style="stroke:#181818;stroke-width:0.5;"/><text fill="#000000" font-family="sans-serif" font-size="13" lengthAdjust="spacing" textLength="17.6782" x="233.5" y="598.0669">No</text></g><!--link rombo to Sesi?nCerrada--><g id="link_rombo_Sesi&#243;nCerrada"><path d="M304.7,539.03 C331.77,554.2 423.6359,605.6767 480.9859,637.8167 " fill="none" id="rombo-to-Sesi&#243;nCerrada" style="stroke:#181818;stroke-width:1;"/><polygon fill="#181818" points="486.22,640.75,480.3244,632.8607,481.8582,638.3056,476.4133,639.8395,486.22,640.75" style="stroke:#181818;stroke-width:1;"/><path d="M432.5,581 L432.5,606 L464.5,606 L464.5,591 L454.5,581 L432.5,581 " fill="#FEFFDD" style="stroke:#181818;stroke-width:0.5;"/><path d="M454.5,581 L454.5,591 L464.5,591 L454.5,581 " fill="#FEFFDD" style="stroke:#181818;stroke-width:0.5;"/><text fill="#000000" font-family="sans-serif" font-size="13" lengthAdjust="spacing" textLength="11.8638" x="438.5" y="598.0669">S&#237;</text></g><!--link Sesi?nCerrada to CerrandoSesi?n--><g id="link_Sesi&#243;nCerrada_CerrandoSesi&#243;n"><path d="M529.5,691.26 C529.5,717.55 529.5,753.28 529.5,779.62 " fill="none" id="Sesi&#243;nCerrada-to-CerrandoSesi&#243;n" style="stroke:#181818;stroke-width:1;"/><polygon fill="#181818" points="529.5,785.62,533.5,776.62,529.5,780.62,525.5,776.62,529.5,785.62" style="stroke:#181818;stroke-width:1;"/><path d="M534.5,726 L534.5,751 L713.5,751 L713.5,736 L703.5,726 L534.5,726 " fill="#FEFFDD" style="stroke:#181818;stroke-width:0.5;"/><path d="M703.5,726 L703.5,736 L713.5,736 L703.5,726 " fill="#FEFFDD" style="stroke:#181818;stroke-width:0.5;"/><text fill="#000000" font-family="sans-serif" font-size="13" lengthAdjust="spacing" textLength="158.8945" x="540.5" y="743.0669">Usuario sale del sistema</text></g><!--link Sesi?nAbierta to Sesi?nAbierta--><g id="link_Sesi&#243;nAbierta_Sesi&#243;nAbierta"><path d="M124.39,652.5 C143.66,652.57 159,657.07 159,666 C159,674.93 149.66,679.4082 130.39,679.4782 " fill="none" id="Sesi&#243;nAbierta-to-Sesi&#243;nAbierta" style="stroke:#181818;stroke-width:1;"/><polygon fill="#181818" points="124.39,679.5,133.4045,683.4673,129.39,679.4818,133.3754,675.4673,124.39,679.5" style="stroke:#181818;stroke-width:1;"/><path d="M164,653.5 L164,678.5 L445,678.5 L445,663.5 L435,653.5 L164,653.5 " fill="#FEFFDD" style="stroke:#181818;stroke-width:0.5;"/><path d="M435,653.5 L435,663.5 L445,663.5 L435,653.5 " fill="#FEFFDD" style="stroke:#181818;stroke-width:0.5;"/><text fill="#000000" font-family="sans-serif" font-size="13" lengthAdjust="spacing" textLength="260.2793" x="170" y="670.5669">Usuario se mantiene dentro del sistema</text></g><!--link CerrandoSesi?n to *end*--><g id="link_CerrandoSesi&#243;n_*end*"><path d="M529.5,836.26 C529.5,864.73 529.5,904.6 529.5,924.84 " fill="none" id="CerrandoSesi&#243;n-to-*end*" style="stroke:#181818;stroke-width:1;"/><polygon fill="#181818" points="529.5,930.84,533.5,921.84,529.5,925.84,525.5,921.84,529.5,930.84" style="stroke:#181818;stroke-width:1;"/><path d="M534.5,871 L534.5,896 L719.5,896 L719.5,881 L709.5,871 L534.5,871 " fill="#FEFFDD" style="stroke:#181818;stroke-width:0.5;"/><path d="M709.5,871 L709.5,881 L719.5,881 L709.5,871 " fill="#FEFFDD" style="stroke:#181818;stroke-width:0.5;"/><text fill="#000000" font-family="sans-serif" font-size="13" lengthAdjust="spacing" textLength="164.8359" x="540.5" y="888.0669">Cierre de Sesi&#243;n correcto</text></g><!--SRC=[ZP91JiCm44NtFiMiA_K6LH1ArWWHiQgwc3e3M2GUTUmSYnK7GA8NO-m4sf26afLb-R_txSbsjOFrke37qACuVg1d5w9WmsQsay_T2riAN57fI8GggYcuuxitdYC1UsYTVpMWtvY7XW8X16oTwBg5e3Zgq91l88MCMM9cOSd-oKc7SbLO3s2mOm8EFO4A-qaHgnGK22Fbr294LA1mjsVOREmBEqj5OPRykLm-FM_o-L5TSDsSoGPDGeousxtY8yvPT_nNh4o6vaAiFhwTvQQdXtTDQz_mrVdfv6XXSDFk_xhE3vMWGnyT-GJtKNZ1yQjdbcnNkpbvc8zIlZleZw0RDfuUy0i0]--></g></svg>