<?xml version="1.0" standalone="no"?>
<!DOCTYPE svg PUBLIC "-//W3C//DTD SVG 20010904//EN"
 "http://www.w3.org/TR/2001/REC-SVG-20010904/DTD/svg10.dtd">
<svg version="1.0" xmlns="http://www.w3.org/2000/svg"
 width="745.000000pt" height="560.000000pt" viewBox="0 0 745.000000 560.000000"
 preserveAspectRatio="xMidYMid meet">

<g transform="translate(0.000000,560.000000) scale(0.100000,-0.100000)"
fill="#000000" stroke="none">
<path d="M4588 5561 c-16 -14 -19 -24 -14 -45 8 -31 26 -41 60 -32 29 7 41 37
27 64 -15 28 -47 33 -73 13z"/>
<path d="M4608 5218 c2 -10 6 -18 8 -18 2 0 8 8 13 18 7 14 6 18 -8 18 -12 0
-17 -6 -13 -18z"/>
<path d="M4140 4630 c-11 -21 -6 -23 21 -12 14 6 15 9 3 20 -11 10 -15 8 -24
-8z"/>
<path d="M4268 4492 c-15 -6 -14 -8 5 -18 19 -8 23 -7 23 8 0 19 -2 20 -28 10z"/>
<path d="M3500 4045 c0 -16 3 -24 8 -19 4 5 11 11 15 15 4 3 1 12 -8 19 -13
11 -15 9 -15 -15z"/>
<path d="M2705 3379 c-9 -26 -3 -32 18 -16 13 10 14 14 2 24 -11 10 -15 9 -20
-8z"/>
<path d="M1326 2412 c-4 -7 -13 -9 -19 -5 -7 3 -3 -4 8 -16 17 -19 21 -21 23
-7 5 25 -3 43 -12 28z"/>
<path d="M2352 2397 c15 -30 15 -30 21 -8 3 13 -1 21 -14 24 -16 4 -17 2 -7
-16z"/>
<path d="M3691 2410 c0 -3 4 -13 8 -23 6 -17 8 -17 18 5 9 20 8 24 -8 24 -11
0 -19 -3 -18 -6z"/>
<path d="M2262 1661 c-10 -6 -10 -10 3 -21 19 -15 25 -11 16 12 -4 11 -11 14
-19 9z"/>
<path d="M2613 1563 c-19 -7 -16 -20 6 -26 14 -3 17 0 14 14 -3 11 -6 19 -7
18 0 0 -7 -3 -13 -6z"/>
<path d="M2044 1531 c0 -12 6 -17 18 -13 22 5 23 18 2 26 -21 8 -20 9 -20 -13z"/>
<path d="M3374 859 c0 -21 5 -23 23 -11 9 6 8 11 -5 19 -15 9 -18 7 -18 -8z"/>
<path d="M3688 148 c6 -23 18 -23 24 0 3 12 -1 18 -12 18 -11 0 -15 -6 -12
-18z"/>
<path d="M3682 101 c-23 -14 -10 -46 18 -46 16 0 26 6 28 19 3 16 -12 36 -28
36 -3 0 -11 -4 -18 -9z"/>
<path d="M3614 81 c0 -16 4 -18 19 -9 16 8 17 12 6 19 -21 13 -25 11 -25 -10z"/>
<path d="M3761 91 c-11 -7 -10 -11 6 -19 15 -9 19 -7 19 9 0 21 -4 23 -25 10z"/>
</g>
</svg>
