<svg xmlns="http://www.w3.org/2000/svg" xmlns:xlink="http://www.w3.org/1999/xlink" contentStyleType="text/css" height="899px" preserveAspectRatio="none" style="width:1468px;height:899px;background:#FFFFFF;" version="1.1" viewBox="0 0 1468 899" width="1468px" zoomAndPan="magnify"><defs/><g><g id="elem_TipoDeReto"><polygon fill="#F1F1F1" points="711.91,6,723.91,18,711.91,30,699.91,18,711.91,6" style="stroke:#181818;stroke-width:0.5;"/></g><ellipse cx="616.91" cy="437" fill="#222222" rx="10" ry="10" style="stroke:#222222;stroke-width:1;"/><g id="MenuPrincipal"><rect fill="#F1F1F1" height="50" rx="12.5" ry="12.5" style="stroke:#181818;stroke-width:0.5;" width="118.3418" x="557.91" y="557"/><line style="stroke:#181818;stroke-width:0.5;" x1="557.91" x2="676.2518" y1="583.2969" y2="583.2969"/><text fill="#000000" font-family="sans-serif" font-size="14" lengthAdjust="spacing" textLength="98.3418" x="567.91" y="574.9951">MenuPrincipal</text></g><g id="MenuRetos"><rect fill="#F1F1F1" height="50" rx="12.5" ry="12.5" style="stroke:#181818;stroke-width:0.5;" width="98.1279" x="807.91" y="700"/><line style="stroke:#181818;stroke-width:0.5;" x1="807.91" x2="906.0379" y1="726.2969" y2="726.2969"/><text fill="#000000" font-family="sans-serif" font-size="14" lengthAdjust="spacing" textLength="78.1279" x="817.91" y="717.9951">MenuRetos</text></g><ellipse cx="378.91" cy="868" fill="none" rx="11" ry="11" style="stroke:#222222;stroke-width:1;"/><ellipse cx="378.91" cy="868" fill="#222222" rx="6" ry="6" style="stroke:#222222;stroke-width:1;"/><g id="ListaDeRetos"><rect fill="#F1F1F1" height="50" rx="12.5" ry="12.5" style="stroke:#181818;stroke-width:0.5;" width="112.1348" x="860.91" y="843"/><line style="stroke:#181818;stroke-width:0.5;" x1="860.91" x2="973.0448" y1="869.2969" y2="869.2969"/><text fill="#000000" font-family="sans-serif" font-size="14" lengthAdjust="spacing" textLength="92.1348" x="870.91" y="860.9951">ListaDeRetos</text></g><g id="RetoObligatorio"><rect fill="#F1F1F1" height="50" rx="12.5" ry="12.5" style="stroke:#181818;stroke-width:0.5;" width="129.8125" x="646.91" y="107"/><line style="stroke:#181818;stroke-width:0.5;" x1="646.91" x2="776.7225" y1="133.2969" y2="133.2969"/><text fill="#000000" font-family="sans-serif" font-size="14" lengthAdjust="spacing" textLength="109.8125" x="656.91" y="124.9951">RetoObligatorio</text></g><g id="RetoOpcional"><rect fill="#F1F1F1" height="50" rx="12.5" ry="12.5" style="stroke:#181818;stroke-width:0.5;" width="113.7959" x="353.91" y="107"/><line style="stroke:#181818;stroke-width:0.5;" x1="353.91" x2="467.7059" y1="133.2969" y2="133.2969"/><text fill="#000000" font-family="sans-serif" font-size="14" lengthAdjust="spacing" textLength="93.7959" x="363.91" y="124.9951">RetoOpcional</text></g><g id="RealizarReto"><rect fill="#F1F1F1" height="50" rx="12.5" ry="12.5" style="stroke:#181818;stroke-width:0.5;" width="108.7783" x="346.41" y="267"/><line style="stroke:#181818;stroke-width:0.5;" x1="346.41" x2="455.1883" y1="293.2969" y2="293.2969"/><text fill="#000000" font-family="sans-serif" font-size="14" lengthAdjust="spacing" textLength="88.7783" x="356.41" y="284.9951">RealizarReto</text></g><g id="SubirEvidencia"><rect fill="#F1F1F1" height="50" rx="12.5" ry="12.5" style="stroke:#181818;stroke-width:0.5;" width="123.8516" x="163.91" y="412"/><line style="stroke:#181818;stroke-width:0.5;" x1="163.91" x2="287.7616" y1="438.2969" y2="438.2969"/><text fill="#000000" font-family="sans-serif" font-size="14" lengthAdjust="spacing" textLength="103.8516" x="173.91" y="429.9951">SubirEvidencia</text></g><g id="ConfirmarEnvio"><rect fill="#F1F1F1" height="50" rx="12.5" ry="12.5" style="stroke:#181818;stroke-width:0.5;" width="128.2197" x="69.91" y="557"/><line style="stroke:#181818;stroke-width:0.5;" x1="69.91" x2="198.1297" y1="583.2969" y2="583.2969"/><text fill="#000000" font-family="sans-serif" font-size="14" lengthAdjust="spacing" textLength="108.2197" x="79.91" y="574.9951">ConfirmarEnvio</text></g><!--link *start* to MenuPrincipal--><g id="link_*start*_MenuPrincipal"><path d="M616.91,447.38 C616.91,469.38 616.91,518.83 616.91,550.96 " fill="none" id="*start*-to-MenuPrincipal" style="stroke:#181818;stroke-width:1;"/><polygon fill="#181818" points="616.91,556.96,620.91,547.96,616.91,551.96,612.91,547.96,616.91,556.96" style="stroke:#181818;stroke-width:1;"/></g><!--link MenuPrincipal to MenuRetos--><g id="link_MenuPrincipal_MenuRetos"><path d="M657.9,607.08 C701.95,632.96 766.3866,670.8109 810.5266,696.7409 " fill="none" id="MenuPrincipal-to-MenuRetos" style="stroke:#181818;stroke-width:1;"/><polygon fill="#181818" points="815.7,699.78,809.966,691.7724,811.3888,697.2474,805.9139,698.6703,815.7,699.78" style="stroke:#181818;stroke-width:1;"/><text fill="#000000" font-family="sans-serif" font-size="13" lengthAdjust="spacing" textLength="214.9507" x="737.91" y="650.0669">Alumno selecciona "Menu Retos"</text></g><!--link MenuPrincipal to *end*--><g id="link_MenuPrincipal_*end*"><path d="M557.86,593.22 C506.46,605.45 434.48,631.3 396.91,684 C357.82,738.85 369.779,821.7134 375.599,851.2234 " fill="none" id="MenuPrincipal-to-*end*" style="stroke:#181818;stroke-width:1;"/><polygon fill="#181818" points="376.76,857.11,378.943,847.5061,375.7925,852.2045,371.0941,849.0541,376.76,857.11" style="stroke:#181818;stroke-width:1;"/><text fill="#000000" font-family="sans-serif" font-size="13" lengthAdjust="spacing" textLength="209.5996" x="489.1405" y="697.0669">"Finalizar desde Men&#250; Principal"</text><path d="M401.91,706.1328 L401.91,761.1328 L785.91,761.1328 L785.91,716.1328 L775.91,706.1328 L401.91,706.1328 " fill="#FEFFDD" style="stroke:#181818;stroke-width:0.5;"/><path d="M775.91,706.1328 L775.91,716.1328 L785.91,716.1328 L775.91,706.1328 " fill="#FEFFDD" style="stroke:#181818;stroke-width:0.5;"/><text fill="#000000" font-family="sans-serif" font-size="13" lengthAdjust="spacing" textLength="266.665" x="407.91" y="723.1997">El sistema muestra los retos disponibles:</text><text fill="#000000" font-family="sans-serif" font-size="13" lengthAdjust="spacing" textLength="363.0605" x="407.91" y="738.3325">- Obligatorios: necesarios para completar la asignatura.</text><text fill="#000000" font-family="sans-serif" font-size="13" lengthAdjust="spacing" textLength="209.7012" x="407.91" y="753.4653">- Opcionales: para puntos extra.</text></g><!--link MenuRetos to ListaDeRetos--><g id="link_MenuRetos_ListaDeRetos"><path d="M807.66,748.53 C788.83,759.89 769.39,775.64 758.91,796 C755.46,802.72 754.52,806.85 758.91,813 C781.93,845.19 819.3865,857.5091 854.8865,862.8391 " fill="none" id="MenuRetos-to-ListaDeRetos" style="stroke:#181818;stroke-width:1;"/><polygon fill="#181818" points="860.82,863.73,852.5137,858.438,855.8754,862.9876,851.3259,866.3494,860.82,863.73" style="stroke:#181818;stroke-width:1;"/><text fill="#000000" font-family="sans-serif" font-size="13" lengthAdjust="spacing" textLength="285.9937" x="759.91" y="809.0669">Alumno accede a Lista de Retos disponibles</text></g><!--link MenuRetos to *end*--><g id="link_MenuRetos_*end*"><path d="M817.86,750.01 C806.33,756.14 793.44,762.09 780.91,766 C675.79,798.86 640.94,766.17 534.91,796 C476.19,812.52 416.677,845.1115 393.227,858.6415 " fill="none" id="MenuRetos-to-*end*" style="stroke:#181818;stroke-width:1;"/><polygon fill="#181818" points="388.03,861.64,397.8245,860.6069,392.3608,859.1412,393.8265,853.6775,388.03,861.64" style="stroke:#181818;stroke-width:1;"/><text fill="#000000" font-family="sans-serif" font-size="13" lengthAdjust="spacing" textLength="211.2119" x="535.91" y="809.0669">"Finalizar desde Men&#250; de Retos"</text></g><!--link ListaDeRetos to TipoDeReto--><g id="link_ListaDeRetos_TipoDeReto"><path d="M973.01,856.57 C999.83,848.83 1030.28,835.55 1049.91,813 C1076.11,782.92 1071.91,765.88 1071.91,726 C1071.91,131 1071.91,131 1071.91,131 C1071.91,74.3 1018.67,80.77 965.91,60 C876.97,24.98 765.2387,19.9825 728.9987,19.2425 " fill="none" id="ListaDeRetos-to-TipoDeReto" style="stroke:#181818;stroke-width:1;"/><polygon fill="#181818" points="723,19.12,731.9165,23.3029,727.999,19.2221,732.0798,15.3046,723,19.12" style="stroke:#181818;stroke-width:1;"/><path d="M1076.91,424.5 L1076.91,449.5 L1461.91,449.5 L1461.91,434.5 L1451.91,424.5 L1076.91,424.5 " fill="#FEFFDD" style="stroke:#181818;stroke-width:0.5;"/><path d="M1451.91,424.5 L1451.91,434.5 L1461.91,434.5 L1451.91,424.5 " fill="#FEFFDD" style="stroke:#181818;stroke-width:0.5;"/><text fill="#000000" font-family="sans-serif" font-size="13" lengthAdjust="spacing" textLength="364.7871" x="1082.91" y="441.5669">El alumno decide realizar un reto obligatorio o opcional.</text></g><!--link TipoDeReto to RetoObligatorio--><g id="link_TipoDeReto_RetoObligatorio"><path d="M711.91,30.15 C711.91,47.85 711.91,76.82 711.91,100.56 " fill="none" id="TipoDeReto-to-RetoObligatorio" style="stroke:#181818;stroke-width:1;"/><polygon fill="#181818" points="711.91,106.56,715.91,97.56,711.91,101.56,707.91,97.56,711.91,106.56" style="stroke:#181818;stroke-width:1;"/><text fill="#000000" font-family="sans-serif" font-size="13" lengthAdjust="spacing" textLength="244.3721" x="712.91" y="73.0669">Alumno selecciona "Reto Obligatorio"</text></g><!--link TipoDeReto to RetoOpcional--><g id="link_TipoDeReto_RetoOpcional"><path d="M701.74,19.84 C661.45,23.28 513.39,37.28 472.91,60 C453.22,71.05 440.1566,85.8877 429.1566,101.7677 " fill="none" id="TipoDeReto-to-RetoOpcional" style="stroke:#181818;stroke-width:1;"/><polygon fill="#181818" points="425.74,106.7,434.153,101.5793,428.5871,102.5898,427.5767,97.0239,425.74,106.7" style="stroke:#181818;stroke-width:1;"/><text fill="#000000" font-family="sans-serif" font-size="13" lengthAdjust="spacing" textLength="229.4995" x="473.91" y="73.0669">Alumno selecciona "Reto Opcional"</text></g><!--link RetoObligatorio to RealizarReto--><g id="link_RetoObligatorio_RealizarReto"><path d="M709.57,157.03 C705.9,180.95 696.58,216.9 672.91,237 C640.76,264.31 531.1309,278.94 461.4009,285.83 " fill="none" id="RetoObligatorio-to-RealizarReto" style="stroke:#181818;stroke-width:1;"/><polygon fill="#181818" points="455.43,286.42,464.7797,289.5156,460.4058,285.9283,463.9931,281.5544,455.43,286.42" style="stroke:#181818;stroke-width:1;"/><path d="M706.91,192 L706.91,232 L982.91,232 L982.91,202 L972.91,192 L706.91,192 " fill="#FEFFDD" style="stroke:#181818;stroke-width:0.5;"/><path d="M972.91,192 L972.91,202 L982.91,202 L972.91,192 " fill="#FEFFDD" style="stroke:#181818;stroke-width:0.5;"/><text fill="#000000" font-family="sans-serif" font-size="13" lengthAdjust="spacing" textLength="255.3091" x="712.91" y="209.0669">El alumno comienza el reto obligatorio.</text><text fill="#000000" font-family="sans-serif" font-size="13" lengthAdjust="spacing" textLength="4.1323" x="712.91" y="224.1997">&#160;</text></g><!--link RetoOpcional to RealizarReto--><g id="link_RetoOpcional_RealizarReto"><path d="M403.79,157.24 C401.42,166.47 399.09,177.14 397.91,187 C394.68,214.26 395.8055,239.8439 397.6955,260.9739 " fill="none" id="RetoOpcional-to-RealizarReto" style="stroke:#181818;stroke-width:1;"/><polygon fill="#181818" points="398.23,266.95,401.4123,257.6294,397.7845,261.9699,393.4441,258.3422,398.23,266.95" style="stroke:#181818;stroke-width:1;"/><path d="M402.91,192 L402.91,232 L663.91,232 L663.91,202 L653.91,192 L402.91,192 " fill="#FEFFDD" style="stroke:#181818;stroke-width:0.5;"/><path d="M653.91,192 L653.91,202 L663.91,202 L653.91,192 " fill="#FEFFDD" style="stroke:#181818;stroke-width:0.5;"/><text fill="#000000" font-family="sans-serif" font-size="13" lengthAdjust="spacing" textLength="240.4365" x="408.91" y="209.0669">El alumno comienza el reto opcional.</text><text fill="#000000" font-family="sans-serif" font-size="13" lengthAdjust="spacing" textLength="4.1323" x="408.91" y="224.1997">&#160;</text></g><!--link RealizarReto to SubirEvidencia--><g id="link_RealizarReto_SubirEvidencia"><path d="M371.23,317.26 C338.95,343.63 292.316,381.7333 260.096,408.0633 " fill="none" id="RealizarReto-to-SubirEvidencia" style="stroke:#181818;stroke-width:1;"/><polygon fill="#181818" points="255.45,411.86,264.9501,409.2623,259.3217,408.6961,259.8879,403.0677,255.45,411.86" style="stroke:#181818;stroke-width:1;"/><path d="M339.91,352 L339.91,377 L646.91,377 L646.91,362 L636.91,352 L339.91,352 " fill="#FEFFDD" style="stroke:#181818;stroke-width:0.5;"/><path d="M636.91,352 L636.91,362 L646.91,362 L636.91,352 " fill="#FEFFDD" style="stroke:#181818;stroke-width:0.5;"/><text fill="#000000" font-family="sans-serif" font-size="13" lengthAdjust="spacing" textLength="286.8379" x="345.91" y="369.0669">El alumno sube una evidencia (foto o video)</text></g><!--link SubirEvidencia to ConfirmarEnvio--><g id="link_SubirEvidencia_ConfirmarEnvio"><path d="M210.31,462.26 C193.39,488.55 169.7969,525.2344 152.8469,551.5744 " fill="none" id="SubirEvidencia-to-ConfirmarEnvio" style="stroke:#181818;stroke-width:1;"/><polygon fill="#181818" points="149.6,556.62,157.834,551.2162,152.3057,552.4154,151.1066,546.8871,149.6,556.62" style="stroke:#181818;stroke-width:1;"/><path d="M195.91,497 L195.91,522 L542.91,522 L542.91,507 L532.91,497 L195.91,497 " fill="#FEFFDD" style="stroke:#181818;stroke-width:0.5;"/><path d="M532.91,497 L532.91,507 L542.91,507 L532.91,497 " fill="#FEFFDD" style="stroke:#181818;stroke-width:0.5;"/><text fill="#000000" font-family="sans-serif" font-size="13" lengthAdjust="spacing" textLength="326.8789" x="201.91" y="514.0669">El alumno revisa la evidencia y confirma su env&#237;o.</text></g><!--link ConfirmarEnvio to MenuRetos--><g id="link_ConfirmarEnvio_MenuRetos"><path d="M197.95,597.93 C268.05,613.81 383.95,638.71 484.91,654 C615.65,673.8 654.31,645.84 780.91,684 C793.48,687.79 801.0803,690.887 812.6103,697.007 " fill="none" id="ConfirmarEnvio-to-MenuRetos" style="stroke:#181818;stroke-width:1;"/><polygon fill="#181818" points="817.91,699.82,811.8358,692.0673,813.4936,697.4758,808.0851,699.1336,817.91,699.82" style="stroke:#181818;stroke-width:1;"/><text fill="#000000" font-family="sans-serif" font-size="13" lengthAdjust="spacing" textLength="220.3145" x="485.91" y="650.0669">Alumno regresa al Men&#250; de Retos</text></g><!--link ConfirmarEnvio to *end*--><g id="link_ConfirmarEnvio_*end*"><path d="M95.92,607.04 C71.45,624.93 41.73,651.76 27.91,684 C13.56,717.5 6,736.88 27.91,766 C71.2,823.5 307.7516,857.6548 362.1416,864.8348 " fill="none" id="ConfirmarEnvio-to-*end*" style="stroke:#181818;stroke-width:1;"/><polygon fill="#181818" points="368.09,865.62,359.6909,860.4765,363.133,864.9656,358.6439,868.4077,368.09,865.62" style="stroke:#181818;stroke-width:1;"/><text fill="#000000" font-family="sans-serif" font-size="13" lengthAdjust="spacing" textLength="306.2871" x="43.2259" y="704.5669">Alumno finaliza despu&#233;s de enviar la evidencia</text><path d="M32.91,713.6328 L32.91,753.6328 L358.91,753.6328 L358.91,723.6328 L348.91,713.6328 L32.91,713.6328 " fill="#FEFFDD" style="stroke:#181818;stroke-width:0.5;"/><path d="M348.91,713.6328 L348.91,723.6328 L358.91,723.6328 L348.91,713.6328 " fill="#FEFFDD" style="stroke:#181818;stroke-width:0.5;"/><text fill="#000000" font-family="sans-serif" font-size="13" lengthAdjust="spacing" textLength="222.8535" x="38.91" y="730.6997">Evidencia enviada correctamente.</text><text fill="#000000" font-family="sans-serif" font-size="13" lengthAdjust="spacing" textLength="305.9189" x="38.91" y="745.8325">Opci&#243;n de finalizar o continuar con otros retos.</text></g><!--SRC=[fLJ1ZjCm4BtdAqOv0LBt0wfL9GJbj2iGS5jnc3hJxWXd7DbE1Vj773XnuzeVOnmdJT8DvK1xSP8txxrvzlZXrHTOhJPmJz9-y2o66xHG5FFd0V6HeWkmXjUshSL184l6i1E4Cds6xdkvKFoWCcietx6WvIVqK56eA76UViCPMXRY8e4Ji2nV2z3VraBW4Ab6g5iAqIDOjU0x8nM7nWdlB8LrXrx1-vtb0qRdsOKr21aAcDRGe9OQLpUMekfR10ny48ojnvkXkEcQINGPtxIITEXRJ22I2fB1OemYzNQd_l0jNMI3nf1sYFcpzfl3cNg-uBcQqL1V5aKn4qoLdxbn-NanGCoEAZAiD9vw-bQw6C6DaO7- -mmcxHOgfwoZ2jpUcaV7XZQROl8sMKcBoHuidvKEFK6LYoozaMiKFKH3kTJDBBdJVmMZfu99dX38Faia7ur95ZDh_wToJlgPnCZOINngT-otHzqzdHEy9XBQ7Ud6giY0XXTxbyGWlN0l9p9praxeZPCz-nhzLevyjHkl0W7J68rAtxN7NAy-WEHu-kccnsZE_hTBnTF1wz2gqCNHNwhFCzDNxll9IOFJjASV8PMg3SxpJbS2FFVGmQjqKtXF9c9D4ka6EbJQzjClIQpxyv2cZPN8qkfQL-2Y7-wdiVS_]--></g></svg>