<svg xmlns="http://www.w3.org/2000/svg" xmlns:xlink="http://www.w3.org/1999/xlink" contentStyleType="text/css" height="1261px" preserveAspectRatio="none" style="width:1445px;height:1261px;background:#FFFFFF;" version="1.1" viewBox="0 0 1445 1261" width="1445px" zoomAndPan="magnify"><defs/><g><g id="elem_VerificarCredenciales"><polygon fill="#F1F1F1" points="938,6,950,18,938,30,926,18,938,6" style="stroke:#181818;stroke-width:0.5;"/></g><g id="elem_TipoDeReto"><polygon fill="#F1F1F1" points="348,669,360,681,348,693,336,681,348,669" style="stroke:#181818;stroke-width:0.5;"/></g><ellipse cx="1429" cy="132" fill="#222222" rx="10" ry="10" style="stroke:#222222;stroke-width:1;"/><g id="ProcesoDeInicioDeSesion"><rect fill="#F1F1F1" height="50" rx="12.5" ry="12.5" style="stroke:#181818;stroke-width:0.5;" width="196.8867" x="1014.5" y="252"/><line style="stroke:#181818;stroke-width:0.5;" x1="1014.5" x2="1211.3867" y1="278.2969" y2="278.2969"/><text fill="#000000" font-family="sans-serif" font-size="14" lengthAdjust="spacing" textLength="176.8867" x="1024.5" y="269.9951">ProcesoDeInicioDeSesion</text></g><g id="InicioSesionCorrecto"><rect fill="#F1F1F1" height="50" rx="12.5" ry="12.5" style="stroke:#181818;stroke-width:0.5;" width="163.3838" x="665.5" y="107"/><line style="stroke:#181818;stroke-width:0.5;" x1="665.5" x2="828.8838" y1="133.2969" y2="133.2969"/><text fill="#000000" font-family="sans-serif" font-size="14" lengthAdjust="spacing" textLength="143.3838" x="675.5" y="124.9951">InicioSesionCorrecto</text></g><g id="InicioSesionFallido"><rect fill="#F1F1F1" height="50" rx="12.5" ry="12.5" style="stroke:#181818;stroke-width:0.5;" width="148.9189" x="878.5" y="107"/><line style="stroke:#181818;stroke-width:0.5;" x1="878.5" x2="1027.4189" y1="133.2969" y2="133.2969"/><text fill="#000000" font-family="sans-serif" font-size="14" lengthAdjust="spacing" textLength="128.9189" x="888.5" y="124.9951">InicioSesionFallido</text></g><g id="MenuPrincipal"><rect fill="#F1F1F1" height="50" rx="12.5" ry="12.5" style="stroke:#181818;stroke-width:0.5;" width="118.3418" x="684" y="252"/><line style="stroke:#181818;stroke-width:0.5;" x1="684" x2="802.3418" y1="278.2969" y2="278.2969"/><text fill="#000000" font-family="sans-serif" font-size="14" lengthAdjust="spacing" textLength="98.3418" x="694" y="269.9951">MenuPrincipal</text></g><g id="MenuRetos"><rect fill="#F1F1F1" height="50" rx="12.5" ry="12.5" style="stroke:#181818;stroke-width:0.5;" width="98.1279" x="694" y="379"/><line style="stroke:#181818;stroke-width:0.5;" x1="694" x2="792.1279" y1="405.2969" y2="405.2969"/><text fill="#000000" font-family="sans-serif" font-size="14" lengthAdjust="spacing" textLength="78.1279" x="704" y="396.9951">MenuRetos</text></g><g id="ListaDeRetos"><rect fill="#F1F1F1" height="50" rx="12.5" ry="12.5" style="stroke:#181818;stroke-width:0.5;" width="112.1348" x="292" y="524"/><line style="stroke:#181818;stroke-width:0.5;" x1="292" x2="404.1348" y1="550.2969" y2="550.2969"/><text fill="#000000" font-family="sans-serif" font-size="14" lengthAdjust="spacing" textLength="92.1348" x="302" y="541.9951">ListaDeRetos</text></g><g id="RetoObligatorio"><rect fill="#F1F1F1" height="50" rx="12.5" ry="12.5" style="stroke:#181818;stroke-width:0.5;" width="129.8125" x="7" y="770"/><line style="stroke:#181818;stroke-width:0.5;" x1="7" x2="136.8125" y1="796.2969" y2="796.2969"/><text fill="#000000" font-family="sans-serif" font-size="14" lengthAdjust="spacing" textLength="109.8125" x="17" y="787.9951">RetoObligatorio</text></g><g id="RetoOpcional"><rect fill="#F1F1F1" height="50" rx="12.5" ry="12.5" style="stroke:#181818;stroke-width:0.5;" width="113.7959" x="340" y="770"/><line style="stroke:#181818;stroke-width:0.5;" x1="340" x2="453.7959" y1="796.2969" y2="796.2969"/><text fill="#000000" font-family="sans-serif" font-size="14" lengthAdjust="spacing" textLength="93.7959" x="350" y="787.9951">RetoOpcional</text></g><g id="RealizarReto"><rect fill="#F1F1F1" height="50" rx="12.5" ry="12.5" style="stroke:#181818;stroke-width:0.5;" width="108.7783" x="391.5" y="915"/><line style="stroke:#181818;stroke-width:0.5;" x1="391.5" x2="500.2783" y1="941.2969" y2="941.2969"/><text fill="#000000" font-family="sans-serif" font-size="14" lengthAdjust="spacing" textLength="88.7783" x="401.5" y="932.9951">RealizarReto</text></g><g id="SubirEvidencia"><rect fill="#F1F1F1" height="50" rx="12.5" ry="12.5" style="stroke:#181818;stroke-width:0.5;" width="123.8516" x="421" y="1060"/><line style="stroke:#181818;stroke-width:0.5;" x1="421" x2="544.8516" y1="1086.2969" y2="1086.2969"/><text fill="#000000" font-family="sans-serif" font-size="14" lengthAdjust="spacing" textLength="103.8516" x="431" y="1077.9951">SubirEvidencia</text></g><g id="ConfirmarEnvio"><rect fill="#F1F1F1" height="50" rx="12.5" ry="12.5" style="stroke:#181818;stroke-width:0.5;" width="128.2197" x="583" y="1205"/><line style="stroke:#181818;stroke-width:0.5;" x1="583" x2="711.2197" y1="1231.2969" y2="1231.2969"/><text fill="#000000" font-family="sans-serif" font-size="14" lengthAdjust="spacing" textLength="108.2197" x="593" y="1222.9951">ConfirmarEnvio</text></g><ellipse cx="743" cy="549" fill="none" rx="11" ry="11" style="stroke:#222222;stroke-width:1;"/><ellipse cx="743" cy="549" fill="#222222" rx="6" ry="6" style="stroke:#222222;stroke-width:1;"/><!--link *start* to ProcesoDeInicioDeSesion--><g id="link_*start*_ProcesoDeInicioDeSesion"><path d="M1421.3,138.56 C1413.98,143.7 1402.54,151.39 1392,157 C1321,194.81 1240.9996,227.7049 1183.4996,249.8349 " fill="none" id="*start*-to-ProcesoDeInicioDeSesion" style="stroke:#181818;stroke-width:1;"/><polygon fill="#181818" points="1177.9,251.99,1187.7361,252.4904,1182.5663,250.1941,1184.8627,245.0243,1177.9,251.99" style="stroke:#181818;stroke-width:1;"/></g><!--link ProcesoDeInicioDeSesion to VerificarCredenciales--><g id="link_ProcesoDeInicioDeSesion_VerificarCredenciales"><path d="M1118.49,251.9 C1126.95,208.08 1137.67,114.82 1091,60 C1072.02,37.7 984.6518,24.8792 953.8418,20.9492 " fill="none" id="ProcesoDeInicioDeSesion-to-VerificarCredenciales" style="stroke:#181818;stroke-width:1;"/><polygon fill="#181818" points="947.89,20.19,956.3115,25.2966,952.8498,20.8227,957.3238,17.3609,947.89,20.19" style="stroke:#181818;stroke-width:1;"/><path d="M1130,119.5 L1130,144.5 L1391,144.5 L1391,129.5 L1381,119.5 L1130,119.5 " fill="#FEFFDD" style="stroke:#181818;stroke-width:0.5;"/><path d="M1381,119.5 L1381,129.5 L1391,129.5 L1381,119.5 " fill="#FEFFDD" style="stroke:#181818;stroke-width:0.5;"/><text fill="#000000" font-family="sans-serif" font-size="13" lengthAdjust="spacing" textLength="240.6079" x="1136" y="136.5669">Alumno ingresa correo y contrase&#241;a.</text></g><!--link VerificarCredenciales to InicioSesionCorrecto--><g id="link_VerificarCredenciales_InicioSesionCorrecto"><path d="M926.86,19.19 C899.97,20.19 830.51,26.13 787,60 C771.7,71.91 763.584,85.8435 757.244,101.4035 " fill="none" id="VerificarCredenciales-to-InicioSesionCorrecto" style="stroke:#181818;stroke-width:1;"/><polygon fill="#181818" points="754.98,106.96,762.0803,100.1346,756.8667,102.3296,754.6717,97.116,754.98,106.96" style="stroke:#181818;stroke-width:1;"/><text fill="#000000" font-family="sans-serif" font-size="13" lengthAdjust="spacing" textLength="138.1567" x="788" y="73.0669">Credenciales v&#225;lidas.</text></g><!--link VerificarCredenciales to InicioSesionFallido--><g id="link_VerificarCredenciales_InicioSesionFallido"><path d="M937.05,29.1 C936.33,37.39 935.39,49.44 935,60 C934.72,67.55 933.79,69.54 935,77 C936.63,87.05 937.847,92.0977 941.127,101.3077 " fill="none" id="VerificarCredenciales-to-InicioSesionFallido" style="stroke:#181818;stroke-width:1;"/><polygon fill="#181818" points="943.14,106.96,943.8887,97.1396,941.4625,102.2498,936.3524,99.8236,943.14,106.96" style="stroke:#181818;stroke-width:1;"/><text fill="#000000" font-family="sans-serif" font-size="13" lengthAdjust="spacing" textLength="150.0078" x="936" y="73.0669">Credenciales inv&#225;lidas.</text></g><!--link InicioSesionFallido to ProcesoDeInicioDeSesion--><g id="link_InicioSesionFallido_ProcesoDeInicioDeSesion"><path d="M1006.18,157.06 C1021.27,165.3 1037.09,175.41 1050,187 C1070.85,205.71 1085.6164,227.3634 1096.9264,246.6634 " fill="none" id="InicioSesionFallido-to-ProcesoDeInicioDeSesion" style="stroke:#181818;stroke-width:1;"/><polygon fill="#181818" points="1099.96,251.84,1098.8607,242.0527,1097.432,247.5261,1091.9586,246.0974,1099.96,251.84" style="stroke:#181818;stroke-width:1;"/></g><!--link InicioSesionCorrecto to MenuPrincipal--><g id="link_InicioSesionCorrecto_MenuPrincipal"><path d="M743.2,157.13 C741.91,166.44 740.63,177.19 740,187 C738.59,208.91 739.2454,227.9143 740.4854,245.8143 " fill="none" id="InicioSesionCorrecto-to-MenuPrincipal" style="stroke:#181818;stroke-width:1;"/><polygon fill="#181818" points="740.9,251.8,744.2685,242.5451,740.5545,246.812,736.2876,243.0979,740.9,251.8" style="stroke:#181818;stroke-width:1;"/><path d="M745,192 L745,217 L1041,217 L1041,202 L1031,192 L745,192 " fill="#FEFFDD" style="stroke:#181818;stroke-width:0.5;"/><path d="M1031,192 L1031,202 L1041,202 L1031,192 " fill="#FEFFDD" style="stroke:#181818;stroke-width:0.5;"/><text fill="#000000" font-family="sans-serif" font-size="13" lengthAdjust="spacing" textLength="275.228" x="751" y="209.0669">Alumno accede al sistema correctamente.</text></g><!--link MenuPrincipal to MenuRetos--><g id="link_MenuPrincipal_MenuRetos"><path d="M743,302.1 C743,324.24 743,350.86 743,372.97 " fill="none" id="MenuPrincipal-to-MenuRetos" style="stroke:#181818;stroke-width:1;"/><polygon fill="#181818" points="743,378.97,747,369.97,743,373.97,739,369.97,743,378.97" style="stroke:#181818;stroke-width:1;"/><text fill="#000000" font-family="sans-serif" font-size="13" lengthAdjust="spacing" textLength="149.2397" x="744" y="345.0669">Selecciona "Ver Retos"</text></g><!--link MenuRetos to ListaDeRetos--><g id="link_MenuRetos_ListaDeRetos"><path d="M693.65,405.05 C601.65,406.22 409.05,414.12 363,459 C346.05,475.51 343.5625,497.5184 344.6325,517.7084 " fill="none" id="MenuRetos-to-ListaDeRetos" style="stroke:#181818;stroke-width:1;"/><polygon fill="#181818" points="344.95,523.7,348.4681,514.5009,344.6854,518.707,340.4793,514.9243,344.95,523.7" style="stroke:#181818;stroke-width:1;"/><path d="M368,464 L368,489 L730,489 L730,474 L720,464 L368,464 " fill="#FEFFDD" style="stroke:#181818;stroke-width:0.5;"/><path d="M720,464 L720,474 L730,474 L720,464 " fill="#FEFFDD" style="stroke:#181818;stroke-width:0.5;"/><text fill="#000000" font-family="sans-serif" font-size="13" lengthAdjust="spacing" textLength="341.8848" x="374" y="481.0669">Muestra retos disponibles: obligatorios y opcionales.</text></g><!--link ListaDeRetos to TipoDeReto--><g id="link_ListaDeRetos_TipoDeReto"><path d="M348,574.15 C348,602.34 348,641.79 348,662.75 " fill="none" id="ListaDeRetos-to-TipoDeReto" style="stroke:#181818;stroke-width:1;"/><polygon fill="#181818" points="348,668.75,352,659.75,348,663.75,344,659.75,348,668.75" style="stroke:#181818;stroke-width:1;"/><path d="M353,609 L353,634 L657,634 L657,619 L647,609 L353,609 " fill="#FEFFDD" style="stroke:#181818;stroke-width:0.5;"/><path d="M647,609 L647,619 L657,619 L647,609 " fill="#FEFFDD" style="stroke:#181818;stroke-width:0.5;"/><text fill="#000000" font-family="sans-serif" font-size="13" lengthAdjust="spacing" textLength="283.791" x="359" y="626.0669">Decide entre un reto obligatorio o opcional.</text></g><!--link TipoDeReto to RetoObligatorio--><g id="link_TipoDeReto_RetoObligatorio"><path d="M338.74,683.77 C315.06,688.46 250.59,702.3 200,723 C168.37,735.94 139.7725,751.7724 114.8825,766.8424 " fill="none" id="TipoDeReto-to-RetoObligatorio" style="stroke:#181818;stroke-width:1;"/><polygon fill="#181818" points="109.75,769.95,119.5205,768.7103,114.0271,767.3604,115.3771,761.8669,109.75,769.95" style="stroke:#181818;stroke-width:1;"/><text fill="#000000" font-family="sans-serif" font-size="13" lengthAdjust="spacing" textLength="157.9043" x="201" y="736.0669">Selecciona "Obligatorio"</text></g><!--link TipoDeReto to RetoOpcional--><g id="link_TipoDeReto_RetoOpcional"><path d="M351.37,689.7 C358.46,705.91 372.7855,738.6529 383.8955,764.0529 " fill="none" id="TipoDeReto-to-RetoOpcional" style="stroke:#181818;stroke-width:1;"/><polygon fill="#181818" points="386.3,769.55,386.3581,759.7013,384.2963,764.969,379.0285,762.9073,386.3,769.55" style="stroke:#181818;stroke-width:1;"/><text fill="#000000" font-family="sans-serif" font-size="13" lengthAdjust="spacing" textLength="143.0317" x="374" y="736.0669">Selecciona "Opcional"</text></g><!--link RetoObligatorio to RealizarReto--><g id="link_RetoObligatorio_RealizarReto"><path d="M57.5,820.39 C47.89,840.08 39.6,867.33 55,885 C97.99,934.34 288.48,940.1248 385.49,939.8848 " fill="none" id="RetoObligatorio-to-RealizarReto" style="stroke:#181818;stroke-width:1;"/><polygon fill="#181818" points="391.49,939.87,382.4801,935.8923,386.49,939.8824,382.4999,943.8923,391.49,939.87" style="stroke:#181818;stroke-width:1;"/><path d="M60,855 L60,880 L403,880 L403,865 L393,855 L60,855 " fill="#FEFFDD" style="stroke:#181818;stroke-width:0.5;"/><path d="M393,855 L393,865 L403,865 L393,855 " fill="#FEFFDD" style="stroke:#181818;stroke-width:0.5;"/><text fill="#000000" font-family="sans-serif" font-size="13" lengthAdjust="spacing" textLength="322.1753" x="66" y="872.0669">Inicia el reto obligatorio y sigue las instrucciones.</text></g><!--link RetoOpcional to RealizarReto--><g id="link_RetoOpcional_RealizarReto"><path d="M405.31,820.26 C414.32,846.55 426.6742,882.6043 435.7042,908.9443 " fill="none" id="RetoOpcional-to-RealizarReto" style="stroke:#181818;stroke-width:1;"/><polygon fill="#181818" points="437.65,914.62,438.5152,904.8092,436.0285,909.8902,430.9475,907.4036,437.65,914.62" style="stroke:#181818;stroke-width:1;"/><path d="M433,855 L433,880 L761,880 L761,865 L751,855 L433,855 " fill="#FEFFDD" style="stroke:#181818;stroke-width:0.5;"/><path d="M751,855 L751,865 L761,865 L751,855 " fill="#FEFFDD" style="stroke:#181818;stroke-width:0.5;"/><text fill="#000000" font-family="sans-serif" font-size="13" lengthAdjust="spacing" textLength="307.3027" x="439" y="872.0669">Inicia el reto opcional y sigue las instrucciones.</text></g><!--link RealizarReto to SubirEvidencia--><g id="link_RealizarReto_SubirEvidencia"><path d="M452.28,965.26 C459.08,991.55 468.3781,1027.471 475.1881,1053.811 " fill="none" id="RealizarReto-to-SubirEvidencia" style="stroke:#181818;stroke-width:1;"/><polygon fill="#181818" points="476.69,1059.62,478.3099,1049.9053,475.4384,1054.7792,470.5645,1051.9078,476.69,1059.62" style="stroke:#181818;stroke-width:1;"/><path d="M474,1000 L474,1025 L770,1025 L770,1010 L760,1000 L474,1000 " fill="#FEFFDD" style="stroke:#181818;stroke-width:0.5;"/><path d="M760,1000 L760,1010 L770,1010 L760,1000 " fill="#FEFFDD" style="stroke:#181818;stroke-width:0.5;"/><text fill="#000000" font-family="sans-serif" font-size="13" lengthAdjust="spacing" textLength="275.939" x="480" y="1017.0669">Alumno sube una evidencia (foto o video).</text></g><!--link SubirEvidencia to ConfirmarEnvio--><g id="link_SubirEvidencia_ConfirmarEnvio"><path d="M478.89,1110.13 C476.97,1129.67 477.66,1156.84 492,1175 C513.8,1202.62 544.7622,1214.9553 577.0622,1221.5753 " fill="none" id="SubirEvidencia-to-ConfirmarEnvio" style="stroke:#181818;stroke-width:1;"/><polygon fill="#181818" points="582.94,1222.78,574.9264,1217.0544,578.0418,1221.7761,573.3202,1224.8915,582.94,1222.78" style="stroke:#181818;stroke-width:1;"/><path d="M497,1145 L497,1170 L776,1170 L776,1155 L766,1145 L497,1145 " fill="#FEFFDD" style="stroke:#181818;stroke-width:0.5;"/><path d="M766,1145 L766,1155 L776,1155 L766,1145 " fill="#FEFFDD" style="stroke:#181818;stroke-width:0.5;"/><text fill="#000000" font-family="sans-serif" font-size="13" lengthAdjust="spacing" textLength="258.4004" x="503" y="1162.0669">Revisa la evidencia y confirma el env&#237;o.</text></g><!--link ConfirmarEnvio to MenuRetos--><g id="link_ConfirmarEnvio_MenuRetos"><path d="M711.19,1217.42 C737.47,1209.59 766.08,1196.56 785,1175 C811.87,1144.37 807,1126.75 807,1086 C807,548 807,548 807,548 C807,503.12 783.8219,461.6255 764.9219,434.2855 " fill="none" id="ConfirmarEnvio-to-MenuRetos" style="stroke:#181818;stroke-width:1;"/><polygon fill="#181818" points="761.51,429.35,763.3375,439.0278,764.3532,433.4629,769.9181,434.4787,761.51,429.35" style="stroke:#181818;stroke-width:1;"/><path d="M812,782.5 L812,807.5 L1328,807.5 L1328,792.5 L1318,782.5 L812,782.5 " fill="#FEFFDD" style="stroke:#181818;stroke-width:0.5;"/><path d="M1318,782.5 L1318,792.5 L1328,792.5 L1318,782.5 " fill="#FEFFDD" style="stroke:#181818;stroke-width:0.5;"/><text fill="#000000" font-family="sans-serif" font-size="13" lengthAdjust="spacing" textLength="495.2061" x="818" y="799.5669">Evidencia enviada. Regresa al men&#250; de retos mientras espera la validaci&#243;n.</text></g><!--link MenuRetos to *end*--><g id="link_MenuRetos_*end*"><path d="M743,429.26 C743,460.97 743,509.13 743,531.68 " fill="none" id="MenuRetos-to-*end*" style="stroke:#181818;stroke-width:1;"/><polygon fill="#181818" points="743,537.68,747,528.68,743,532.68,739,528.68,743,537.68" style="stroke:#181818;stroke-width:1;"/></g><!--SRC=[bPJ1QXj138RlynJ2fpOGFq08XcAdK6XeY4il8GTvBBiYuv6PsJMuRzC7wA7qrgjVh9fP9plhNPV45-zgfV-JDD8yN3p2vUK4xe9OYZAZJvujw_-S8eitP-mvvXi5Nh75C0sq96yP7KNZfI9G3yV-oO3-FhXwumNOhmD512iXaC1U7tmLCDBXDuuD-IMaI6DYXIemg0tNr_QxiAN9n0mxfBIQJ9iyfmbcAu4hwFZj3ZyTBp6ENwdp4PtwzsJOjq9coFz_hHtCCmNSag_l0YjaY-viFz5QpGJGGUHOqUROMLlXXdn5PKixWY-8UweaQaLpScGr4uymqcv0jezCwv82FYi3PvGD_PHkQufwbX2o_vBZLZmlj4DN80l7Qwmai7xPWsmpIJ-L2PRg6VULjzAyzs4pigo5Qv61eFOPMc90NYZzkMg5os4gh8cU7huKWjqU5Lz6Wv57-6dOqJmovbI_YKJ7Fp0Crvnd1O5Slzgzdl-w9d2Ovb6FeSx4ReCxURqTznpvIbOhdLdpUi7XPiVDtfmTw5WlqdagzjaLtgqauI4Pv7q9wMfcp5JyYiC6mutVyK1Hzwghzuyh0VaMob6fMD9r_YKbfglPNPq-eSr7bHYNE5PeS-jfytGj3tz19xVPaWrJll-0ufP2pck7wIwnVFZZJzUtNOs7YyT_]--></g></svg>