<svg xmlns="http://www.w3.org/2000/svg" xmlns:xlink="http://www.w3.org/1999/xlink" contentStyleType="text/css" height="1121px" preserveAspectRatio="none" style="width:651px;height:1121px;background:#FFFFFF;" version="1.1" viewBox="0 0 651 1121" width="651px" zoomAndPan="magnify"><defs/><g><g id="elem_reto"><polygon fill="#F1F1F1" points="235,484,247,496,235,508,223,496,235,484" style="stroke:#181818;stroke-width:0.5;"/></g><ellipse cx="235" cy="16" fill="#222222" rx="10" ry="10" style="stroke:#222222;stroke-width:1;"/><g id="CrearRetos"><rect fill="#F1F1F1" height="50" rx="12.5" ry="12.5" style="stroke:#181818;stroke-width:0.5;" width="98.1689" x="186" y="103"/><line style="stroke:#181818;stroke-width:0.5;" x1="186" x2="284.1689" y1="129.2969" y2="129.2969"/><text fill="#000000" font-family="sans-serif" font-size="14" lengthAdjust="spacing" textLength="78.1689" x="196" y="120.9951">CrearRetos</text></g><g id="UnidadesDidacticas"><rect fill="#F1F1F1" height="50" rx="12.5" ry="12.5" style="stroke:#181818;stroke-width:0.5;" width="158.0518" x="156" y="230"/><line style="stroke:#181818;stroke-width:0.5;" x1="156" x2="314.0518" y1="256.2969" y2="256.2969"/><text fill="#000000" font-family="sans-serif" font-size="14" lengthAdjust="spacing" textLength="138.0518" x="166" y="247.9951">UnidadesDidacticas</text></g><g id="OpcionReto"><rect fill="#F1F1F1" height="50" rx="12.5" ry="12.5" style="stroke:#181818;stroke-width:0.5;" width="101.3271" x="184.5" y="357"/><line style="stroke:#181818;stroke-width:0.5;" x1="184.5" x2="285.8271" y1="383.2969" y2="383.2969"/><text fill="#000000" font-family="sans-serif" font-size="14" lengthAdjust="spacing" textLength="81.3271" x="194.5" y="374.9951">OpcionReto</text></g><g id="RetoObligatorio"><rect fill="#F1F1F1" height="50" rx="12.5" ry="12.5" style="stroke:#181818;stroke-width:0.5;" width="129.8125" x="7" y="585"/><line style="stroke:#181818;stroke-width:0.5;" x1="7" x2="136.8125" y1="611.2969" y2="611.2969"/><text fill="#000000" font-family="sans-serif" font-size="14" lengthAdjust="spacing" textLength="109.8125" x="17" y="602.9951">RetoObligatorio</text></g><g id="RetoOpcional"><rect fill="#F1F1F1" height="50" rx="12.5" ry="12.5" style="stroke:#181818;stroke-width:0.5;" width="113.7959" x="323" y="585"/><line style="stroke:#181818;stroke-width:0.5;" x1="323" x2="436.7959" y1="611.2969" y2="611.2969"/><text fill="#000000" font-family="sans-serif" font-size="14" lengthAdjust="spacing" textLength="93.7959" x="333" y="602.9951">RetoOpcional</text></g><g id="DescripcionReto"><rect fill="#F1F1F1" height="50" rx="12.5" ry="12.5" style="stroke:#181818;stroke-width:0.5;" width="134.3379" x="154" y="712"/><line style="stroke:#181818;stroke-width:0.5;" x1="154" x2="288.3379" y1="738.2969" y2="738.2969"/><text fill="#000000" font-family="sans-serif" font-size="14" lengthAdjust="spacing" textLength="114.3379" x="164" y="729.9951">DescripcionReto</text></g><g id="ResultadoReto"><rect fill="#F1F1F1" height="50" rx="12.5" ry="12.5" style="stroke:#181818;stroke-width:0.5;" width="122.3135" x="160" y="839"/><line style="stroke:#181818;stroke-width:0.5;" x1="160" x2="282.3135" y1="865.2969" y2="865.2969"/><text fill="#000000" font-family="sans-serif" font-size="14" lengthAdjust="spacing" textLength="102.3135" x="170" y="856.9951">ResultadoReto</text></g><g id="GuardarReto"><rect fill="#F1F1F1" height="50" rx="12.5" ry="12.5" style="stroke:#181818;stroke-width:0.5;" width="109.6738" x="166" y="966"/><line style="stroke:#181818;stroke-width:0.5;" x1="166" x2="275.6738" y1="992.2969" y2="992.2969"/><text fill="#000000" font-family="sans-serif" font-size="14" lengthAdjust="spacing" textLength="89.6738" x="176" y="983.9951">GuardarReto</text></g><ellipse cx="221" cy="1104" fill="none" rx="11" ry="11" style="stroke:#222222;stroke-width:1;"/><ellipse cx="221" cy="1104" fill="#222222" rx="6" ry="6" style="stroke:#222222;stroke-width:1;"/><!--link *start* to CrearRetos--><g id="link_*start*_CrearRetos"><path d="M235,26 C235,42.63 235,72.66 235,96.87 " fill="none" id="*start*-to-CrearRetos" style="stroke:#181818;stroke-width:1;"/><polygon fill="#181818" points="235,102.87,239,93.87,235,97.87,231,93.87,235,102.87" style="stroke:#181818;stroke-width:1;"/><text fill="#000000" font-family="sans-serif" font-size="13" lengthAdjust="spacing" textLength="196.7773" x="236" y="69.0669">El profesor solicita CrearRetos</text></g><!--link CrearRetos to UnidadesDidacticas--><g id="link_CrearRetos_UnidadesDidacticas"><path d="M235,153.1 C235,175.24 235,201.86 235,223.97 " fill="none" id="CrearRetos-to-UnidadesDidacticas" style="stroke:#181818;stroke-width:1;"/><polygon fill="#181818" points="235,229.97,239,220.97,235,224.97,231,220.97,235,229.97" style="stroke:#181818;stroke-width:1;"/><text fill="#000000" font-family="sans-serif" font-size="13" lengthAdjust="spacing" textLength="279.8618" x="236" y="196.0669">El sistema muestra las UnidadesDidacticas</text></g><!--link UnidadesDidacticas to OpcionReto--><g id="link_UnidadesDidacticas_OpcionReto"><path d="M235,280.1 C235,302.24 235,328.86 235,350.97 " fill="none" id="UnidadesDidacticas-to-OpcionReto" style="stroke:#181818;stroke-width:1;"/><polygon fill="#181818" points="235,356.97,239,347.97,235,351.97,231,347.97,235,356.97" style="stroke:#181818;stroke-width:1;"/><text fill="#000000" font-family="sans-serif" font-size="13" lengthAdjust="spacing" textLength="270.5054" x="236" y="323.0669">El profesor ingresa la UnidadesDidacticas</text></g><!--link OpcionReto to reto--><g id="link_OpcionReto_reto"><path d="M235,407.03 C235,430.81 235,460.16 235,477.94 " fill="none" id="OpcionReto-to-reto" style="stroke:#181818;stroke-width:1;"/><polygon fill="#181818" points="235,483.94,239,474.94,235,478.94,231,474.94,235,483.94" style="stroke:#181818;stroke-width:1;"/><text fill="#000000" font-family="sans-serif" font-size="13" lengthAdjust="spacing" textLength="260.5078" x="236" y="450.0669">El sistema muestra las opciones de reto</text></g><!--link reto to RetoObligatorio--><g id="link_reto_RetoObligatorio"><path d="M223.94,497 C198,497.61 132.63,502.77 96,538 C83.24,550.27 78.3453,563.6371 75.5453,579.0071 " fill="none" id="reto-to-RetoObligatorio" style="stroke:#181818;stroke-width:1;"/><polygon fill="#181818" points="74.47,584.91,80.0182,576.7726,75.3661,579.991,72.1478,575.3388,74.47,584.91" style="stroke:#181818;stroke-width:1;"/><text fill="#000000" font-family="sans-serif" font-size="13" lengthAdjust="spacing" textLength="228.5728" x="97" y="551.0669">El profesor ingresa RetoObligatorio</text></g><!--link reto to RetoOpcional--><g id="link_reto_RetoOpcional"><path d="M244.15,498.86 C262.83,503.03 305.98,514.67 334,538 C349.24,550.69 358.4287,564.4184 366.3287,579.5884 " fill="none" id="reto-to-RetoOpcional" style="stroke:#181818;stroke-width:1;"/><polygon fill="#181818" points="369.1,584.91,368.4908,575.08,366.7906,580.4753,361.3953,578.7751,369.1,584.91" style="stroke:#181818;stroke-width:1;"/><text fill="#000000" font-family="sans-serif" font-size="13" lengthAdjust="spacing" textLength="213.7002" x="350" y="551.0669">El profesor ingresa RetoOpcional</text></g><!--link RetoObligatorio to DescripcionReto--><g id="link_RetoObligatorio_DescripcionReto"><path d="M56.98,635.31 C50,650.01 45.17,668.46 55,682 C77.53,713.02 112.4077,725.6077 147.9177,731.3777 " fill="none" id="RetoObligatorio-to-DescripcionReto" style="stroke:#181818;stroke-width:1;"/><polygon fill="#181818" points="153.84,732.34,145.5981,726.9483,148.9047,731.5381,144.315,734.8447,153.84,732.34" style="stroke:#181818;stroke-width:1;"/><text fill="#000000" font-family="sans-serif" font-size="13" lengthAdjust="spacing" textLength="284.0322" x="56" y="678.0669">El profesor ingresa una descripcion del reto</text></g><!--link RetoOpcional to DescripcionReto--><g id="link_RetoOpcional_DescripcionReto"><path d="M372.93,635.01 C367.42,650.15 358.43,669.2 345,682 C329.11,697.15 313.8408,706.1621 293.8108,714.3821 " fill="none" id="RetoOpcional-to-DescripcionReto" style="stroke:#181818;stroke-width:1;"/><polygon fill="#181818" points="288.26,716.66,298.1048,716.9436,292.8856,714.7617,295.0675,709.5426,288.26,716.66" style="stroke:#181818;stroke-width:1;"/><text fill="#000000" font-family="sans-serif" font-size="13" lengthAdjust="spacing" textLength="284.0322" x="359" y="678.0669">El profesor ingresa una descripcion del reto</text></g><!--link DescripcionReto to ResultadoReto--><g id="link_DescripcionReto_ResultadoReto"><path d="M221,762.1 C221,784.24 221,810.86 221,832.97 " fill="none" id="DescripcionReto-to-ResultadoReto" style="stroke:#181818;stroke-width:1;"/><polygon fill="#181818" points="221,838.97,225,829.97,221,833.97,217,829.97,221,838.97" style="stroke:#181818;stroke-width:1;"/><text fill="#000000" font-family="sans-serif" font-size="13" lengthAdjust="spacing" textLength="256.0137" x="222" y="805.0669">El sistema muestra como queda el reto</text></g><!--link ResultadoReto to GuardarReto--><g id="link_ResultadoReto_GuardarReto"><path d="M221,889.1 C221,911.24 221,937.86 221,959.97 " fill="none" id="ResultadoReto-to-GuardarReto" style="stroke:#181818;stroke-width:1;"/><polygon fill="#181818" points="221,965.97,225,956.97,221,960.97,217,956.97,221,965.97" style="stroke:#181818;stroke-width:1;"/><text fill="#000000" font-family="sans-serif" font-size="13" lengthAdjust="spacing" textLength="177.9692" x="222" y="932.0669">El profesor ingresa guardar</text></g><!--link GuardarReto to *end*--><g id="link_GuardarReto_*end*"><path d="M221,1016.09 C221,1040.06 221,1069.7 221,1086.94 " fill="none" id="GuardarReto-to-*end*" style="stroke:#181818;stroke-width:1;"/><polygon fill="#181818" points="221,1092.94,225,1083.94,221,1087.94,217,1083.94,221,1092.94" style="stroke:#181818;stroke-width:1;"/><text fill="#000000" font-family="sans-serif" font-size="13" lengthAdjust="spacing" textLength="163.2617" x="222" y="1059.0669">El sistema guarda el reto</text></g><!--SRC=[hP8nRiCm34LtdO9pWLoW2BmqGSS00Je56HY9TGd8PahAzwyL9QcZsktIIGBq_kENeCFJ4LQh1bwKKFUKnE0PjX7EAkzaec0IsNF22U4cSCw-zHmma6t6nIVsU7KOMw8EeHl8aYB4yU0dwsRYsRexUvO-JwaQSTygMTRDsInX8j0SMw_zXx2dfd4JMNRhtJhNKIum6OGYSdhBPS7k5Bd59CfBnIggYb_a67_BNX5NZykE3PbN_kjjXXx7zdTotCTobOSA_-2hu-MQDiI4GVQBp-ob4_WSA21yDvkcikTrG0tbeotKQWlXfcHE7iPV_J2tWBTPNm00]--></g></svg>