<svg xmlns="http://www.w3.org/2000/svg" xmlns:xlink="http://www.w3.org/1999/xlink" contentStyleType="text/css" height="963px" preserveAspectRatio="none" style="width:1986px;height:963px;background:#FFFFFF;" version="1.1" viewBox="0 0 1986 963" width="1986px" zoomAndPan="magnify"><defs/><g><g id="elem_TipoDeRutina"><polygon fill="#F1F1F1" points="873,531,885,543,873,555,861,543,873,531" style="stroke:#181818;stroke-width:0.5;"/></g><ellipse cx="1009" cy="16" fill="#222222" rx="10" ry="10" style="stroke:#222222;stroke-width:1;"/><g id="MenuPrincipal"><rect fill="#F1F1F1" height="50" rx="12.5" ry="12.5" style="stroke:#181818;stroke-width:0.5;" width="118.3418" x="950" y="87"/><line style="stroke:#181818;stroke-width:0.5;" x1="950" x2="1068.3418" y1="113.2969" y2="113.2969"/><text fill="#000000" font-family="sans-serif" font-size="14" lengthAdjust="spacing" textLength="98.3418" x="960" y="104.9951">MenuPrincipal</text></g><g id="MenuRutinas"><rect fill="#F1F1F1" height="50" rx="12.5" ry="12.5" style="stroke:#181818;stroke-width:0.5;" width="111.1641" x="1104.5" y="214"/><line style="stroke:#181818;stroke-width:0.5;" x1="1104.5" x2="1215.6641" y1="240.2969" y2="240.2969"/><text fill="#000000" font-family="sans-serif" font-size="14" lengthAdjust="spacing" textLength="91.1641" x="1114.5" y="231.9951">MenuRutinas</text></g><ellipse cx="980" cy="366" fill="none" rx="11" ry="11" style="stroke:#222222;stroke-width:1;"/><ellipse cx="980" cy="366" fill="#222222" rx="6" ry="6" style="stroke:#222222;stroke-width:1;"/><g id="CrearRutina"><rect fill="#F1F1F1" height="50" rx="12.5" ry="12.5" style="stroke:#181818;stroke-width:0.5;" width="103.9111" x="1112" y="341"/><line style="stroke:#181818;stroke-width:0.5;" x1="1112" x2="1215.9111" y1="367.2969" y2="367.2969"/><text fill="#000000" font-family="sans-serif" font-size="14" lengthAdjust="spacing" textLength="83.9111" x="1122" y="358.9951">CrearRutina</text></g><g id="RutinaPecho"><rect fill="#F1F1F1" height="50" rx="12.5" ry="12.5" style="stroke:#181818;stroke-width:0.5;" width="107.623" x="276" y="632"/><line style="stroke:#181818;stroke-width:0.5;" x1="276" x2="383.623" y1="658.2969" y2="658.2969"/><text fill="#000000" font-family="sans-serif" font-size="14" lengthAdjust="spacing" textLength="87.623" x="286" y="649.9951">RutinaPecho</text></g><g id="RutinaEspalda"><rect fill="#F1F1F1" height="50" rx="12.5" ry="12.5" style="stroke:#181818;stroke-width:0.5;" width="120.3926" x="708" y="632"/><line style="stroke:#181818;stroke-width:0.5;" x1="708" x2="828.3926" y1="658.2969" y2="658.2969"/><text fill="#000000" font-family="sans-serif" font-size="14" lengthAdjust="spacing" textLength="100.3926" x="718" y="649.9951">RutinaEspalda</text></g><g id="RutinaPiernas"><rect fill="#F1F1F1" height="50" rx="12.5" ry="12.5" style="stroke:#181818;stroke-width:0.5;" width="116.8789" x="1162.5" y="632"/><line style="stroke:#181818;stroke-width:0.5;" x1="1162.5" x2="1279.3789" y1="658.2969" y2="658.2969"/><text fill="#000000" font-family="sans-serif" font-size="14" lengthAdjust="spacing" textLength="96.8789" x="1172.5" y="649.9951">RutinaPiernas</text></g><g id="ElegirEjercicios"><rect fill="#F1F1F1" height="50" rx="12.5" ry="12.5" style="stroke:#181818;stroke-width:0.5;" width="126.0186" x="856" y="759"/><line style="stroke:#181818;stroke-width:0.5;" x1="856" x2="982.0186" y1="785.2969" y2="785.2969"/><text fill="#000000" font-family="sans-serif" font-size="14" lengthAdjust="spacing" textLength="106.0186" x="866" y="776.9951">ElegirEjercicios</text></g><g id="PublicarRutina"><rect fill="#F1F1F1" height="50" rx="12.5" ry="12.5" style="stroke:#181818;stroke-width:0.5;" width="121.4453" x="1326.5" y="896.5"/><line style="stroke:#181818;stroke-width:0.5;" x1="1326.5" x2="1447.9453" y1="922.7969" y2="922.7969"/><text fill="#000000" font-family="sans-serif" font-size="14" lengthAdjust="spacing" textLength="101.4453" x="1336.5" y="914.4951">PublicarRutina</text></g><g id="elem_GMN2"><path d="M419.5,644.5 L419.5,653 L384.42,657 L419.5,661 L419.5,669.6328 A0,0 0 0 0 419.5,669.6328 L672.126,669.6328 A0,0 0 0 0 672.126,669.6328 L672.126,654.5 L662.126,644.5 L419.5,644.5 A0,0 0 0 0 419.5,644.5 " fill="#FEFFDD" style="stroke:#181818;stroke-width:0.5;"/><path d="M662.126,644.5 L662.126,654.5 L672.126,654.5 L662.126,644.5 " fill="#FEFFDD" style="stroke:#181818;stroke-width:0.5;"/><text fill="#000000" font-family="sans-serif" font-size="13" lengthAdjust="spacing" textLength="231.626" x="425.5" y="661.5669">Profesor establece rutina de pecho.</text></g><g id="elem_GMN5"><path d="M863,644.5 L863,653 L828.3,657 L863,661 L863,669.6328 A0,0 0 0 0 863,669.6328 L1126.855,669.6328 A0,0 0 0 0 1126.855,669.6328 L1126.855,654.5 L1116.855,644.5 L863,644.5 A0,0 0 0 0 863,644.5 " fill="#FEFFDD" style="stroke:#181818;stroke-width:0.5;"/><path d="M1116.855,644.5 L1116.855,654.5 L1126.855,654.5 L1116.855,644.5 " fill="#FEFFDD" style="stroke:#181818;stroke-width:0.5;"/><text fill="#000000" font-family="sans-serif" font-size="13" lengthAdjust="spacing" textLength="242.855" x="869" y="661.5669">Profesor establece rutina de espalda.</text></g><g id="elem_GMN8"><path d="M1314.5,644.5 L1314.5,653 L1279.62,657 L1314.5,661 L1314.5,669.6328 A0,0 0 0 0 1314.5,669.6328 L1575.7207,669.6328 A0,0 0 0 0 1575.7207,669.6328 L1575.7207,654.5 L1565.7207,644.5 L1314.5,644.5 A0,0 0 0 0 1314.5,644.5 " fill="#FEFFDD" style="stroke:#181818;stroke-width:0.5;"/><path d="M1565.7207,644.5 L1565.7207,654.5 L1575.7207,654.5 L1565.7207,644.5 " fill="#FEFFDD" style="stroke:#181818;stroke-width:0.5;"/><text fill="#000000" font-family="sans-serif" font-size="13" lengthAdjust="spacing" textLength="240.2207" x="1320.5" y="661.5669">Profesor establece rutina de piernas.</text></g><g id="elem_GMN11"><path d="M748.5,886 L748.5,956.5313 A0,0 0 0 0 748.5,956.5313 L1089.46,956.5313 A0,0 0 0 0 1089.46,956.5313 L1089.46,896 L1079.46,886 L923,886 L919,809.22 L915,886 L748.5,886 A0,0 0 0 0 748.5,886 " fill="#FEFFDD" style="stroke:#181818;stroke-width:0.5;"/><path d="M1079.46,886 L1079.46,896 L1089.46,896 L1079.46,886 " fill="#FEFFDD" style="stroke:#181818;stroke-width:0.5;"/><text fill="#000000" font-family="sans-serif" font-size="13" lengthAdjust="spacing" textLength="319.96" x="754.5" y="903.0669">El profesor define los detalles de la rutina, como:</text><text fill="#000000" font-family="sans-serif" font-size="13" lengthAdjust="spacing" textLength="139.4834" x="754.5" y="918.1997">- Nombre de la rutina</text><text fill="#000000" font-family="sans-serif" font-size="13" lengthAdjust="spacing" textLength="156.4951" x="754.5" y="933.3325">- Selecci&#243;n de ejercicios</text><text fill="#000000" font-family="sans-serif" font-size="13" lengthAdjust="spacing" textLength="144.771" x="754.5" y="948.4653">- Divisi&#243;n por m&#250;sculo</text></g><g id="elem_GMN14"><path d="M1232,771.5 L1232,796.6328 A0,0 0 0 0 1232,796.6328 L1383,796.6328 L1387,896.33 L1391,796.6328 L1541.8057,796.6328 A0,0 0 0 0 1541.8057,796.6328 L1541.8057,781.5 L1531.8057,771.5 L1232,771.5 A0,0 0 0 0 1232,771.5 " fill="#FEFFDD" style="stroke:#181818;stroke-width:0.5;"/><path d="M1531.8057,771.5 L1531.8057,781.5 L1541.8057,781.5 L1531.8057,771.5 " fill="#FEFFDD" style="stroke:#181818;stroke-width:0.5;"/><text fill="#000000" font-family="sans-serif" font-size="13" lengthAdjust="spacing" textLength="288.8057" x="1238" y="788.5669">La rutina queda visible para los estudiantes.</text></g><!--link *start* to MenuPrincipal--><g id="link_*start*_MenuPrincipal"><path d="M1009,26.01 C1009,39.89 1009,60.97 1009,80.84 " fill="none" id="*start*-to-MenuPrincipal" style="stroke:#181818;stroke-width:1;"/><polygon fill="#181818" points="1009,86.84,1013,77.84,1009,81.84,1005,77.84,1009,86.84" style="stroke:#181818;stroke-width:1;"/></g><!--link MenuPrincipal to MenuRutinas--><g id="link_MenuPrincipal_MenuRutinas"><path d="M1038.11,137.1 C1064.85,159.24 1099.6374,188.0349 1126.3574,210.1449 " fill="none" id="MenuPrincipal-to-MenuRutinas" style="stroke:#181818;stroke-width:1;"/><polygon fill="#181818" points="1130.98,213.97,1126.5961,205.1506,1127.1278,210.7824,1121.496,211.3141,1130.98,213.97" style="stroke:#181818;stroke-width:1;"/><text fill="#000000" font-family="sans-serif" font-size="13" lengthAdjust="spacing" textLength="231.2388" x="1095" y="180.0669">Profesor selecciona "Men&#250; Rutinas"</text></g><!--link MenuPrincipal to *end*--><g id="link_MenuPrincipal_*end*"><path d="M1006.22,137.16 C1000.04,190.87 986.0563,312.3694 981.8363,349.0194 " fill="none" id="MenuPrincipal-to-*end*" style="stroke:#181818;stroke-width:1;"/><polygon fill="#181818" points="981.15,354.98,986.1532,346.4966,981.7219,350.0128,978.2057,345.5815,981.15,354.98" style="stroke:#181818;stroke-width:1;"/><text fill="#000000" font-family="sans-serif" font-size="13" lengthAdjust="spacing" textLength="84.2651" x="998" y="243.5669">Profesor sale</text></g><!--link MenuRutinas to CrearRutina--><g id="link_MenuRutinas_CrearRutina"><path d="M1160.77,264.1 C1161.48,286.24 1162.3274,312.8631 1163.0374,334.9731 " fill="none" id="MenuRutinas-to-CrearRutina" style="stroke:#181818;stroke-width:1;"/><polygon fill="#181818" points="1163.23,340.97,1166.9391,331.8463,1163.0695,335.9726,1158.9432,332.103,1163.23,340.97" style="stroke:#181818;stroke-width:1;"/><text fill="#000000" font-family="sans-serif" font-size="13" lengthAdjust="spacing" textLength="224.5039" x="1164" y="307.0669">Profesor selecciona "Crear Rutina"</text></g><!--link MenuRutinas to *end*--><g id="link_MenuRutinas_*end*"><path d="M1115.65,264.25 C1100.26,273.14 1083.08,283.57 1068,294 C1037,315.43 1007.5017,340.6833 992.4417,353.9533 " fill="none" id="MenuRutinas-to-*end*" style="stroke:#181818;stroke-width:1;"/><polygon fill="#181818" points="987.94,357.92,997.337,354.9712,991.6914,354.6144,992.0482,348.9689,987.94,357.92" style="stroke:#181818;stroke-width:1;"/><text fill="#000000" font-family="sans-serif" font-size="13" lengthAdjust="spacing" textLength="84.2651" x="1069" y="307.0669">Profesor sale</text></g><!--link CrearRutina to TipoDeRutina--><g id="link_CrearRutina_TipoDeRutina"><path d="M1111.83,387.87 C1090.35,397.12 1065.52,408.7 1044,421 C975.8,459.99 905.6136,515.5549 883.8836,533.1449 " fill="none" id="CrearRutina-to-TipoDeRutina" style="stroke:#181818;stroke-width:1;"/><polygon fill="#181818" points="879.22,536.92,888.7321,534.3664,883.1063,533.7741,883.6986,528.1484,879.22,536.92" style="stroke:#181818;stroke-width:1;"/><path d="M1049,426 L1049,496 L1615,496 L1615,436 L1605,426 L1049,426 " fill="#FEFFDD" style="stroke:#181818;stroke-width:0.5;"/><path d="M1605,426 L1605,436 L1615,436 L1605,426 " fill="#FEFFDD" style="stroke:#181818;stroke-width:0.5;"/><text fill="#000000" font-family="sans-serif" font-size="13" lengthAdjust="spacing" textLength="545.6826" x="1055" y="443.0669">Profesor decide el tipo de rutina dependiendo de los grupos musculares a entrenar:</text><text fill="#000000" font-family="sans-serif" font-size="13" lengthAdjust="spacing" textLength="48.001" x="1055" y="458.1997">- Pecho</text><text fill="#000000" font-family="sans-serif" font-size="13" lengthAdjust="spacing" textLength="59.8584" x="1055" y="473.3325">- Espalda</text><text fill="#000000" font-family="sans-serif" font-size="13" lengthAdjust="spacing" textLength="56.5957" x="1055" y="488.4653">- Piernas</text></g><!--link TipoDeRutina to RutinaPecho--><g id="link_TipoDeRutina_RutinaPecho"><path d="M863.27,545.31 C813.75,552.09 584.81,584.69 402,632 C396.13,633.52 395.7888,633.5189 389.7588,635.3589 " fill="none" id="TipoDeRutina-to-RutinaPecho" style="stroke:#181818;stroke-width:1;"/><polygon fill="#181818" points="384.02,637.11,393.7956,638.3091,388.8023,635.6507,391.4607,630.6574,384.02,637.11" style="stroke:#181818;stroke-width:1;"/><text fill="#000000" font-family="sans-serif" font-size="13" lengthAdjust="spacing" textLength="39.1777" x="609" y="598.0669">Pecho</text></g><!--link TipoDeRutina to RutinaEspalda--><g id="link_TipoDeRutina_RutinaEspalda"><path d="M867.65,549.71 C853.69,564.6 819.6433,600.9125 794.8033,627.4125 " fill="none" id="TipoDeRutina-to-RutinaEspalda" style="stroke:#181818;stroke-width:1;"/><polygon fill="#181818" points="790.7,631.79,799.7733,627.9592,794.1194,628.1421,793.9366,622.4882,790.7,631.79" style="stroke:#181818;stroke-width:1;"/><text fill="#000000" font-family="sans-serif" font-size="13" lengthAdjust="spacing" textLength="51.0352" x="834" y="598.0669">Espalda</text></g><!--link TipoDeRutina to RutinaPiernas--><g id="link_TipoDeRutina_RutinaPiernas"><path d="M881.6,546.77 C919.75,559.05 1069.8886,607.3617 1156.5086,635.2417 " fill="none" id="TipoDeRutina-to-RutinaPiernas" style="stroke:#181818;stroke-width:1;"/><polygon fill="#181818" points="1162.22,637.08,1154.8784,630.5149,1157.4605,635.5481,1152.4273,638.1302,1162.22,637.08" style="stroke:#181818;stroke-width:1;"/><text fill="#000000" font-family="sans-serif" font-size="13" lengthAdjust="spacing" textLength="47.7725" x="1048" y="598.0669">Piernas</text></g><!--link RutinaPecho to ElegirEjercicios--><g id="link_RutinaPecho_ElegirEjercicios"><path d="M384.03,676.84 C390.06,678.69 396.14,680.46 402,682 C563.63,724.54 752.0343,756.8689 850.0143,772.4289 " fill="none" id="RutinaPecho-to-ElegirEjercicios" style="stroke:#181818;stroke-width:1;"/><polygon fill="#181818" points="855.94,773.37,847.6788,768.0079,851.0019,772.5858,846.424,775.9089,855.94,773.37" style="stroke:#181818;stroke-width:1;"/><text fill="#000000" font-family="sans-serif" font-size="13" lengthAdjust="spacing" textLength="140.6006" x="601" y="725.0669">Seleccionar ejercicios</text></g><!--link RutinaEspalda to ElegirEjercicios--><g id="link_RutinaEspalda_ElegirEjercicios"><path d="M797.11,682.1 C823.85,704.24 858.6374,733.0349 885.3574,755.1449 " fill="none" id="RutinaEspalda-to-ElegirEjercicios" style="stroke:#181818;stroke-width:1;"/><polygon fill="#181818" points="889.98,758.97,885.5961,750.1506,886.1278,755.7824,880.496,756.3141,889.98,758.97" style="stroke:#181818;stroke-width:1;"/><text fill="#000000" font-family="sans-serif" font-size="13" lengthAdjust="spacing" textLength="140.6006" x="854" y="725.0669">Seleccionar ejercicios</text></g><!--link RutinaPiernas to ElegirEjercicios--><g id="link_RutinaPiernas_ElegirEjercicios"><path d="M1162.77,682.1 C1109.29,704.24 1036.0139,734.5654 982.5939,756.6754 " fill="none" id="RutinaPiernas-to-ElegirEjercicios" style="stroke:#181818;stroke-width:1;"/><polygon fill="#181818" points="977.05,758.97,986.8956,759.2241,981.6699,757.0579,983.8362,751.8322,977.05,758.97" style="stroke:#181818;stroke-width:1;"/><text fill="#000000" font-family="sans-serif" font-size="13" lengthAdjust="spacing" textLength="140.6006" x="1090" y="725.0669">Seleccionar ejercicios</text></g><!--link ElegirEjercicios to PublicarRutina--><g id="link_ElegirEjercicios_PublicarRutina"><path d="M982.12,803.27 C1072.44,829.42 1231.6766,875.5317 1320.5966,901.2717 " fill="none" id="ElegirEjercicios-to-PublicarRutina" style="stroke:#181818;stroke-width:1;"/><polygon fill="#181818" points="1326.36,902.94,1318.8272,896.5952,1321.5572,901.5497,1316.6027,904.2797,1326.36,902.94" style="stroke:#181818;stroke-width:1;"/><text fill="#000000" font-family="sans-serif" font-size="13" lengthAdjust="spacing" textLength="147.0688" x="1154" y="852.0669">Finalizar configuraci&#243;n</text></g><!--reverse link CrearRutina to PublicarRutina--><g id="link_CrearRutina_PublicarRutina"><path d="M1222.1908,370.002 C1336.4108,376.332 1594.69,393.48 1624,421 C1663.85,458.41 1646,487.34 1646,542 C1646,542 1646,542 1646,785 C1646,874.06 1524.28,904.69 1447.72,915.15 " fill="none" id="CrearRutina-backto-PublicarRutina" style="stroke:#181818;stroke-width:1;"/><polygon fill="#181818" points="1216.2,369.67,1224.9649,374.1619,1221.1923,369.9467,1225.4075,366.1741,1216.2,369.67" style="stroke:#181818;stroke-width:1;"/><text fill="#000000" font-family="sans-serif" font-size="13" lengthAdjust="spacing" textLength="108.856" x="1647" y="661.5669">Crear otra rutina</text></g><!--reverse link MenuRutinas to PublicarRutina--><g id="link_MenuRutinas_PublicarRutina"><path d="M1221.5848,245.3989 C1378.7748,259.8389 1809,304.8 1809,365 C1809,365 1809,365 1809,785 C1809,859.93 1564.78,899.27 1447.91,913.81 " fill="none" id="MenuRutinas-backto-PublicarRutina" style="stroke:#181818;stroke-width:1;"/><polygon fill="#181818" points="1215.61,244.85,1224.2064,249.6565,1220.589,245.3074,1224.9382,241.6901,1215.61,244.85" style="stroke:#181818;stroke-width:1;"/><text fill="#000000" font-family="sans-serif" font-size="13" lengthAdjust="spacing" textLength="168.2637" x="1810" y="598.0669">Volver al men&#250; de rutinas</text></g><!--reverse link *end* to PublicarRutina--><g id="link_*end*_PublicarRutina"><path d="M963.0749,368.1823 C856.0649,375.7323 6,438.92 6,542 C6,542 6,542 6,785 C6,907.85 984.86,872.88 1107,886 C1182.73,894.14 1269.77,905.12 1326.44,912.49 " fill="none" id="*end*-backto-PublicarRutina" style="stroke:#181818;stroke-width:1;"/><polygon fill="#181818" points="969.06,367.76,959.8008,364.4033,964.0724,368.1119,960.3638,372.3835,969.06,367.76" style="stroke:#181818;stroke-width:1;"/><text fill="#000000" font-family="sans-serif" font-size="13" lengthAdjust="spacing" textLength="233.7778" x="7" y="661.5669">Salir. El profesor vuelve a ir al inicio</text></g><!--SRC=[dLJBRjim4BphAnO-5bK-80XyQTnJ6nXDqKlG0qsjdMqeKkN3X_vMRxdwnxgaA9MqbJQj0KEFtPtP6QxsuSrNQDirV4GTjfQqf46efgaUeUrongVWIGi7rx2rPe_EM72eK4eoMi2AKqxFa9DMvo2CyS1iPQrGE79Dm8dfdKLXnpSlCQMKpBIwH5ZaSLvuXCyqc5lCw3Styj6GnFMwAKaJHfdOQCEbHeCY_TG0_sRi3YLr2AZ0Sm4_WXr1EXnGTyJ_z5OP1mSR1hxqmScWX4K70b1xYrhOwmJRmXQvfNo_SMnS9wO8eMM53ID2xATfAYsfwV4-OKG34bRgtTBXqOFPbncr46H_Tknm8G26c7Rr2iRSANDEFI-nbdh-o8jZuckOiojHRVPdKM-E_Ltnc5Wobvx68TueF93TV4ChYSSnKj_FeyceSw2flVcVsadTlzME5koCzwQF7fnN9Xis2eRVGxmdFSveXrueXIxDhCZEl0LfUZEDw9tfTnQhX1p9_Pn-wdIADM4BjtGabw83a_Qdv_WTcCBg2udfeBTXfqWMA-4zNnJzOD7Iw3qTWXM9D0ltPeYgwxBKmeUfN_WUa8yajiCJ08Em8gddaGWT2Usn6e6p3jfmiQN6XMIydHrPggbtw1UZZcY1TsEV5kUyEznYyRZKxbcvlQfExnYGWNYNK08Z7Rtx1G00]--></g></svg>