<svg xmlns="http://www.w3.org/2000/svg" xmlns:xlink="http://www.w3.org/1999/xlink" contentStyleType="text/css" height="829px" preserveAspectRatio="none" style="width:672px;height:829px;background:#FFFFFF;" version="1.1" viewBox="0 0 672 829" width="672px" zoomAndPan="magnify"><defs/><g><ellipse cx="397.5" cy="16" fill="#222222" rx="10" ry="10" style="stroke:#222222;stroke-width:1.0;"/><g id="Menu_Rutinas_y_Ejercicios"><rect fill="#F1F1F1" height="50" rx="12.5" ry="12.5" style="stroke:#181818;stroke-width:0.5;" width="192.751" x="301" y="105"/><line style="stroke:#181818;stroke-width:0.5;" x1="301" x2="493.751" y1="133.6211" y2="133.6211"/><text fill="#000000" font-family="sans-serif" font-size="14" lengthAdjust="spacing" textLength="172.751" x="311" y="125.1074">Menu_Rutinas_y_Ejercicios</text></g><g id="elem_rombo"><polygon fill="#F1F1F1" points="397.5,688,409.5,700,397.5,712,385.5,700,397.5,688" style="stroke:#181818;stroke-width:0.5;"/></g><g id="Menu_Perfil"><rect fill="#F1F1F1" height="50" rx="12.5" ry="12.5" style="stroke:#181818;stroke-width:0.5;" width="94.7031" x="151" y="773"/><line style="stroke:#181818;stroke-width:0.5;" x1="151" x2="245.7031" y1="801.6211" y2="801.6211"/><text fill="#000000" font-family="sans-serif" font-size="14" lengthAdjust="spacing" textLength="74.7031" x="161" y="793.1074">Menu_Perfil</text></g><g id="Menu_Retos"><rect fill="#F1F1F1" height="50" rx="12.5" ry="12.5" style="stroke:#181818;stroke-width:0.5;" width="99.3789" x="281" y="773"/><line style="stroke:#181818;stroke-width:0.5;" x1="281" x2="380.3789" y1="801.6211" y2="801.6211"/><text fill="#000000" font-family="sans-serif" font-size="14" lengthAdjust="spacing" textLength="79.3789" x="291" y="793.1074">Menu_Retos</text></g><g id="Clasificaci&#243;n"><rect fill="#F1F1F1" height="50" rx="12.5" ry="12.5" style="stroke:#181818;stroke-width:0.5;" width="98.5859" x="415" y="773"/><line style="stroke:#181818;stroke-width:0.5;" x1="415" x2="513.5859" y1="801.6211" y2="801.6211"/><text fill="#000000" font-family="sans-serif" font-size="14" lengthAdjust="spacing" textLength="78.5859" x="425" y="793.1074">Clasificaci&#243;n</text></g><g id="Menu_Principal"><rect fill="#F1F1F1" height="50" rx="12.5" ry="12.5" style="stroke:#181818;stroke-width:0.5;" width="116.4961" x="549.5" y="773"/><line style="stroke:#181818;stroke-width:0.5;" x1="549.5" x2="665.9961" y1="801.6211" y2="801.6211"/><text fill="#000000" font-family="sans-serif" font-size="14" lengthAdjust="spacing" textLength="96.4961" x="559.5" y="793.1074">Menu_Principal</text></g><path d="M19.5,234 L479.5723,234 A12.5,12.5 0 0 1 492.0723,246.5 L492.0723,262.6211 L7,262.6211 L7,246.5 A12.5,12.5 0 0 1 19.5,234 " fill="#F1F1F1" style="stroke:#F1F1F1;stroke-width:1.0;"/><rect fill="none" height="392.6211" rx="12.5" ry="12.5" style="stroke:#181818;stroke-width:0.5;" width="485.0723" x="7" y="234"/><line style="stroke:#181818;stroke-width:0.5;" x1="7" x2="492.0723" y1="262.6211" y2="262.6211"/><text fill="#000000" font-family="sans-serif" font-size="14" lengthAdjust="spacing" textLength="87.9102" x="205.5811" y="254.1074">CrearEjercicio</text><g id="CrearEjercicio.SolicitarDatos"><rect fill="#F1F1F1" height="54.582" rx="12.5" ry="12.5" style="stroke:#181818;stroke-width:0.5;" width="268.1035" x="19" y="274.6211"/><line style="stroke:#181818;stroke-width:0.5;" x1="19" x2="287.1035" y1="303.2422" y2="303.2422"/><text fill="#000000" font-family="sans-serif" font-size="14" lengthAdjust="spacing" textLength="86.3652" x="109.8691" y="294.7285">SolicitarDatos</text><text fill="#000000" font-family="sans-serif" font-size="12" lengthAdjust="spacing" textLength="248.1035" x="24" y="321.1914">El sistema solicita nombre, video y descripci&#243;n</text></g><g id="CrearEjercicio.AdjuntarDatos"><rect fill="#F1F1F1" height="50" rx="12.5" ry="12.5" style="stroke:#181818;stroke-width:0.5;" width="108.7168" x="98.5" y="384.6211"/><line style="stroke:#181818;stroke-width:0.5;" x1="98.5" x2="207.2168" y1="413.2422" y2="413.2422"/><text fill="#000000" font-family="sans-serif" font-size="14" lengthAdjust="spacing" textLength="88.7168" x="108.5" y="404.7285">AdjuntarDatos</text></g><g id="CrearEjercicio.ConfirmarCreacion"><rect fill="#F1F1F1" height="50" rx="12.5" ry="12.5" style="stroke:#181818;stroke-width:0.5;" width="137.4824" x="84.5" y="489.6211"/><line style="stroke:#181818;stroke-width:0.5;" x1="84.5" x2="221.9824" y1="518.2422" y2="518.2422"/><text fill="#000000" font-family="sans-serif" font-size="14" lengthAdjust="spacing" textLength="117.4824" x="94.5" y="509.7285">ConfirmarCreacion</text></g><ellipse cx="153" cy="605.6211" fill="none" rx="11" ry="11" style="stroke:#222222;stroke-width:1.0;"/><ellipse cx="153" cy="605.6211" fill="#222222" rx="6" ry="6" style="stroke:#222222;stroke-width:1.0;"/><!--link SolicitarDatos to AdjuntarDatos--><g id="link_SolicitarDatos_AdjuntarDatos"><path d="M153,329.7411 C153,346.5911 153,362.1911 153,378.5311 " fill="none" id="SolicitarDatos-to-AdjuntarDatos" style="stroke:#181818;stroke-width:1.0;"/><polygon fill="#181818" points="153,384.5311,157,375.5311,153,379.5311,149,375.5311,153,384.5311" style="stroke:#181818;stroke-width:1.0;"/><text fill="#000000" font-family="sans-serif" font-size="13" lengthAdjust="spacing" textLength="328.0723" x="154" y="362.6494">El profesor adjunta video e ingresa nombre y descripci&#243;n</text></g><!--link AdjuntarDatos to ConfirmarCreacion--><g id="link_AdjuntarDatos_ConfirmarCreacion"><path d="M153,434.7711 C153,451.1811 153,466.8111 153,483.2711 " fill="none" id="AdjuntarDatos-to-ConfirmarCreacion" style="stroke:#181818;stroke-width:1.0;"/><polygon fill="#181818" points="153,489.2711,157,480.2711,153,484.2711,149,480.2711,153,489.2711" style="stroke:#181818;stroke-width:1.0;"/><text fill="#000000" font-family="sans-serif" font-size="13" lengthAdjust="spacing" textLength="161.6875" x="154" y="467.6494">El profesor presiona "Crear"</text></g><!--link ConfirmarCreacion to *end*CrearEjercicio--><g id="link_ConfirmarCreacion_*end*CrearEjercicio"><path d="M153,539.9411 C153,557.8511 153,575.2911 153,588.4811 " fill="none" id="ConfirmarCreacion-to-*end*CrearEjercicio" style="stroke:#181818;stroke-width:1.0;"/><polygon fill="#181818" points="153,594.4811,157,585.4811,153,589.4811,149,585.4811,153,594.4811" style="stroke:#181818;stroke-width:1.0;"/><text fill="#000000" font-family="sans-serif" font-size="13" lengthAdjust="spacing" textLength="148.1289" x="154" y="572.6494">Ejercicio creado con &#233;xito</text></g><!--link *start* to Menu_Rutinas_y_Ejercicios--><g id="link_*start*_Menu_Rutinas_y_Ejercicios"><path d="M397.5,26.17 C397.5,43.2 397.5,74.23 397.5,98.89 " fill="none" id="*start*-to-Menu_Rutinas_y_Ejercicios" style="stroke:#181818;stroke-width:1.0;"/><polygon fill="#181818" points="397.5,104.89,401.5,95.89,397.5,99.89,393.5,95.89,397.5,104.89" style="stroke:#181818;stroke-width:1.0;"/><text fill="#000000" font-family="sans-serif" font-size="13" lengthAdjust="spacing" textLength="101.1689" x="398.5" y="71.0283">Inicio del proceso</text></g><!--link rombo to Menu_Perfil--><g id="link_rombo_Menu_Perfil"><path d="M389.94,704.65 C366.73,715.85 300.4839,747.8028 251.7339,771.3228 " fill="none" id="rombo-to-Menu_Perfil" style="stroke:#181818;stroke-width:1.0;"/><polygon fill="#181818" points="246.33,773.93,256.174,773.6218,250.8333,771.7573,252.6978,766.4166,246.33,773.93" style="stroke:#181818;stroke-width:1.0;"/></g><!--link rombo to Menu_Retos--><g id="link_rombo_Menu_Retos"><path d="M392.89,707.6 C383.67,720.82 365.9544,746.2001 350.8344,767.8601 " fill="none" id="rombo-to-Menu_Retos" style="stroke:#181818;stroke-width:1.0;"/><polygon fill="#181818" points="347.4,772.78,355.8315,767.6898,350.262,768.6801,349.2716,763.1106,347.4,772.78" style="stroke:#181818;stroke-width:1.0;"/></g><!--link rombo to Clasificaci?n--><g id="link_rombo_Clasificaci&#243;n"><path d="M402.11,707.6 C411.33,720.82 429.0456,746.2001 444.1656,767.8601 " fill="none" id="rombo-to-Clasificaci&#243;n" style="stroke:#181818;stroke-width:1.0;"/><polygon fill="#181818" points="447.6,772.78,445.7284,763.1106,444.738,768.6801,439.1685,767.6898,447.6,772.78" style="stroke:#181818;stroke-width:1.0;"/></g><!--link rombo to Menu_Rutinas_y_Ejercicios--><g id="link_rombo_Menu_Rutinas_y_Ejercicios"><path d="M406.28,696.47 C428.36,689.59 486.11,668.21 509.5,627 C602.36,463.41 520.39,392.08 523.5,204 C523.64,195.56 528.15,192.05 523.5,185 C515.12,172.28 508.2931,165.4672 494.9031,158.0172 " fill="none" id="rombo-to-Menu_Rutinas_y_Ejercicios" style="stroke:#181818;stroke-width:1.0;"/><polygon fill="#181818" points="489.66,155.1,495.5799,162.9712,494.0292,157.531,499.4694,155.9804,489.66,155.1" style="stroke:#181818;stroke-width:1.0;"/></g><!--link rombo to Menu_Principal--><g id="link_rombo_Menu_Principal"><path d="M405.22,704.53 C429.12,715.46 497.9131,746.9055 549.4731,770.4755 " fill="none" id="rombo-to-Menu_Principal" style="stroke:#181818;stroke-width:1.0;"/><polygon fill="#181818" points="554.93,772.97,548.4077,765.5903,550.3826,770.8912,545.0817,772.8661,554.93,772.97" style="stroke:#181818;stroke-width:1.0;"/></g><!--link Menu_Rutinas_y_Ejercicios to CrearEjercicio--><g id="link_Menu_Rutinas_y_Ejercicios_CrearEjercicio"><path d="M374.25,155.02 C366.37,163.97 357.94,174.5 351.5,185 C342,200.48 335.6782,211.6409 327.2582,228.5209 " fill="none" id="Menu_Rutinas_y_Ejercicios-to-CrearEjercicio" style="stroke:#181818;stroke-width:1.0;"/><polygon fill="#181818" points="324.58,233.89,332.1767,227.6218,326.8118,229.4157,325.0179,224.0509,324.58,233.89" style="stroke:#181818;stroke-width:1.0;"/><text fill="#000000" font-family="sans-serif" font-size="13" lengthAdjust="spacing" textLength="166.0103" x="352.5" y="200.0283">Seleccionar "Crear Ejercicio"</text></g><!--link CrearEjercicio to rombo--><g id="link_CrearEjercicio_rombo"><path d="M357.84,627.31 C373.88,656.31 384.2535,675.061 390.5935,686.511 " fill="none" id="CrearEjercicio-to-rombo" style="stroke:#181818;stroke-width:1.0;"/><polygon fill="#181818" points="393.5,691.76,392.6397,681.9488,391.078,687.3858,385.6409,685.8241,393.5,691.76" style="stroke:#181818;stroke-width:1.0;"/></g><!--SRC=[TP91JiCm44NtFiKeIqGlK5MH47J10gbgbnMAZ3E1gHmx6Zk82d4WrXoX5sDiGg09h3oQdta_y-tznJqi5YNSeUkhRH_9wL0Tg_K1sP0X7s09jovLKAE5Zht1u5M8EYAmRnyyh5RcoPF1ibH3PmHka1koi_OMemyAVhMlhGxKaD66JXyEvXD__PcQkZ4vGvssIlq_bDqODOyzsN275esKJZCKMOLHBjJayqJ8paCA4_bL5jjvAtNKVADZZd1j8L28s6e8WmPE68oNy4mrUZXAli4mTJc1EIEvNjM7tfrJvK8QkH06_QKDD0HoZupXssMEFsVbLBnhY5lDQQ4KniIX4rwAQ4Ye4CXy987sygQMFm624R6MG-JJ-mj5hzwK-WG0]--></g></svg>