<?xml version="1.0" encoding="UTF-8" standalone="no"?><svg xmlns="http://www.w3.org/2000/svg" xmlns:xlink="http://www.w3.org/1999/xlink" contentStyleType="text/css" height="1177px" preserveAspectRatio="none" style="width:1021px;height:1177px;background:#FFFFFF;" version="1.1" viewBox="0 0 1021 1177" width="1021px" zoomAndPan="magnify"><defs/><g><ellipse cx="727" cy="16" fill="#222222" rx="10" ry="10" style="stroke:none;stroke-width:1.0;"/><g id="MenuPrincipal"><rect fill="#F1F1F1" height="50" rx="12.5" ry="12.5" style="stroke:#181818;stroke-width:0.5;" width="116" x="669" y="87"/><line style="stroke:#181818;stroke-width:0.5;" x1="669" x2="785" y1="113.2969" y2="113.2969"/><text fill="#000000" font-family="sans-serif" font-size="14" lengthAdjust="spacing" textLength="96" x="679" y="104.9951">MenuPrincipal</text></g><g id="MenuRutinas"><rect fill="#F1F1F1" height="50" rx="12.5" ry="12.5" style="stroke:#181818;stroke-width:0.5;" width="111" x="671.5" y="214"/><line style="stroke:#181818;stroke-width:0.5;" x1="671.5" x2="782.5" y1="240.2969" y2="240.2969"/><text fill="#000000" font-family="sans-serif" font-size="14" lengthAdjust="spacing" textLength="91" x="681.5" y="231.9951">MenuRutinas</text></g><g id="CrearRutina"><rect fill="#F1F1F1" height="50" rx="12.5" ry="12.5" style="stroke:#181818;stroke-width:0.5;" width="101" x="555.5" y="341"/><line style="stroke:#181818;stroke-width:0.5;" x1="555.5" x2="656.5" y1="367.2969" y2="367.2969"/><text fill="#000000" font-family="sans-serif" font-size="14" lengthAdjust="spacing" textLength="81" x="565.5" y="358.9951">CrearRutina</text></g><g id="elem_SeleccionarCategoria"><polygon fill="#F1F1F1" points="258,531,270,543,258,555,246,543,258,531" style="stroke:#181818;stroke-width:0.5;"/></g><g id="ConfigurarRutina"><rect fill="#F1F1F1" height="50" rx="12.5" ry="12.5" style="stroke:#181818;stroke-width:0.5;" width="135" x="190.5" y="632"/><line style="stroke:#181818;stroke-width:0.5;" x1="190.5" x2="325.5" y1="658.2969" y2="658.2969"/><text fill="#000000" font-family="sans-serif" font-size="14" lengthAdjust="spacing" textLength="115" x="200.5" y="649.9951">ConfigurarRutina</text></g><g id="ElegirEjercicios"><rect fill="#F1F1F1" height="50" rx="12.5" ry="12.5" style="stroke:#181818;stroke-width:0.5;" width="123" x="167.5" y="761.5"/><line style="stroke:#181818;stroke-width:0.5;" x1="167.5" x2="290.5" y1="787.7969" y2="787.7969"/><text fill="#000000" font-family="sans-serif" font-size="14" lengthAdjust="spacing" textLength="103" x="177.5" y="779.4951">ElegirEjercicios</text></g><g id="elem_GMN563"><path d="M333.5,759 L333.5,814.3984 L518.5,814.3984 L518.5,769 L508.5,759 L333.5,759 " fill="#FEFFDD" style="stroke:#181818;stroke-width:0.5;"/><path d="M508.5,759 L508.5,769 L518.5,769 L508.5,759 " fill="#FEFFDD" style="stroke:#181818;stroke-width:1.0;"/><text fill="#000000" font-family="sans-serif" font-size="13" lengthAdjust="spacing" textLength="164" x="339.5" y="776.0669">Detalles básicos incluyen:</text><text fill="#000000" font-family="sans-serif" font-size="13" lengthAdjust="spacing" textLength="137" x="339.5" y="791.1997">- Nombre de la rutina</text><text fill="#000000" font-family="sans-serif" font-size="13" lengthAdjust="spacing" textLength="137" x="339.5" y="806.3325">- Objetivo de la rutina</text></g><g id="RevisarRutina"><rect fill="#F1F1F1" height="50" rx="12.5" ry="12.5" style="stroke:#181818;stroke-width:0.5;" width="114" x="7" y="891"/><line style="stroke:#181818;stroke-width:0.5;" x1="7" x2="121" y1="917.2969" y2="917.2969"/><text fill="#000000" font-family="sans-serif" font-size="14" lengthAdjust="spacing" textLength="94" x="17" y="908.9951">RevisarRutina</text></g><g id="elem_GMN568"><path d="M156,903.5 L156,928.6328 L664,928.6328 L664,913.5 L654,903.5 L156,903.5 " fill="#FEFFDD" style="stroke:#181818;stroke-width:0.5;"/><path d="M654,903.5 L654,913.5 L664,913.5 L654,903.5 " fill="#FEFFDD" style="stroke:#181818;stroke-width:1.0;"/><text fill="#000000" font-family="sans-serif" font-size="13" lengthAdjust="spacing" textLength="487" x="162" y="920.5669">El profesor selecciona ejercicios específicos basados en la categoría elegida.</text></g><g id="PublicarRutina"><rect fill="#F1F1F1" height="50" rx="12.5" ry="12.5" style="stroke:#181818;stroke-width:0.5;" width="118" x="658" y="1018"/><line style="stroke:#181818;stroke-width:0.5;" x1="658" x2="776" y1="1044.2969" y2="1044.2969"/><text fill="#000000" font-family="sans-serif" font-size="14" lengthAdjust="spacing" textLength="98" x="668" y="1035.9951">PublicarRutina</text></g><g id="elem_GMN574"><path d="M468,1145 L468,1170.1328 A0,0 0 0 0 468,1170.1328 L770,1170.1328 A0,0 0 0 0 770,1170.1328 L770,1155 L760,1145 L633.19,1145 L695.98,1068.13 L625.19,1145 L468,1145 A0,0 0 0 0 468,1145 " fill="#FEFFDD" style="stroke:#181818;stroke-width:0.5;"/><path d="M760,1145 L760,1155 L770,1155 L760,1145 " fill="#FEFFDD" style="stroke:#181818;stroke-width:0.5;"/><text fill="#000000" font-family="sans-serif" font-size="13" lengthAdjust="spacing" textLength="281" x="474" y="1162.0669">La rutina queda visible para los estudiantes.</text></g><ellipse cx="815" cy="1157.5" fill="none" rx="10" ry="10" style="stroke:#222222;stroke-width:1.0;"/><ellipse cx="815.5" cy="1158" fill="#222222" rx="6" ry="6" style="stroke:none;stroke-width:1.0;"/><!--MD5=[b8b7303f2d6b1c58259f80ec81e33cb5]
link *start to MenuPrincipal--><g id="link_*start_MenuPrincipal"><path d="M727,26.01 C727,38.7 727,62.41 727,81.57 " fill="none" id="*start-to-MenuPrincipal" style="stroke:#181818;stroke-width:1.0;"/><polygon fill="#181818" points="727,86.84,731,77.84,727,81.84,723,77.84,727,86.84" style="stroke:#181818;stroke-width:1.0;"/></g><!--MD5=[ef50b2c77f8ab9ab3bc55dd0634caf7e]
link MenuPrincipal to MenuRutinas--><g id="link_MenuPrincipal_MenuRutinas"><path d="M727,137.1 C727,157.59 727,187.08 727,208.88 " fill="none" id="MenuPrincipal-to-MenuRutinas" style="stroke:#181818;stroke-width:1.0;"/><polygon fill="#181818" points="727,213.97,731,204.97,727,208.97,723,204.97,727,213.97" style="stroke:#181818;stroke-width:1.0;"/><text fill="#000000" font-family="sans-serif" font-size="13" lengthAdjust="spacing" textLength="224" x="728" y="180.0669">Profesor selecciona "Menú Rutinas"</text></g><!--MD5=[85ad8e6e6d29d7b4cd4c5cf2e7074f85]
link MenuRutinas to CrearRutina--><g id="link_MenuRutinas_CrearRutina"><path d="M671.31,249.86 C645.95,257.43 618.25,270.73 603,294 C595.05,306.13 595.04,322.09 597.34,335.81 " fill="none" id="MenuRutinas-to-CrearRutina" style="stroke:#181818;stroke-width:1.0;"/><polygon fill="#181818" points="598.29,340.75,600.5225,331.1575,597.3479,335.8396,592.6658,332.6649,598.29,340.75" style="stroke:#181818;stroke-width:1.0;"/><text fill="#000000" font-family="sans-serif" font-size="13" lengthAdjust="spacing" textLength="217" x="604" y="307.0669">Profesor selecciona "Crear Rutina"</text></g><!--MD5=[a1f5873b7ead5ae96ecc9ac3ab2a9159]
link CrearRutina to SeleccionarCategoria--><g id="link_CrearRutina_SeleccionarCategoria"><path d="M555.3,367.06 C467.55,368.35 293.09,376.6 255,421 C228.56,451.82 243.75,505.06 252.78,529.31 " fill="none" id="CrearRutina-to-SeleccionarCategoria" style="stroke:#181818;stroke-width:1.0;"/><polygon fill="#181818" points="254.6,534.03,255.0864,524.1932,252.7974,529.3662,247.6244,527.0773,254.6,534.03" style="stroke:#181818;stroke-width:1.0;"/><path d="M260,426 L260,496 L686,496 L686,436 L676,426 L260,426 " fill="#FEFFDD" style="stroke:#181818;stroke-width:0.5;"/><path d="M676,426 L676,436 L686,436 L676,426 " fill="#FEFFDD" style="stroke:#181818;stroke-width:0.5;"/><text fill="#000000" font-family="sans-serif" font-size="13" lengthAdjust="spacing" textLength="405" x="266" y="443.0669">Profesor selecciona una categoría general para la rutina, como:</text><text fill="#000000" font-family="sans-serif" font-size="13" lengthAdjust="spacing" textLength="52" x="266" y="458.1997">- Fuerza</text><text fill="#000000" font-family="sans-serif" font-size="13" lengthAdjust="spacing" textLength="81" x="266" y="473.3325">- Resistencia</text><text fill="#000000" font-family="sans-serif" font-size="13" lengthAdjust="spacing" textLength="78" x="266" y="488.4653">- Flexibilidad</text></g><!--MD5=[a804a27250fb859e1f32d64b1393eba6]
link SeleccionarCategoria to ConfigurarRutina--><g id="link_SeleccionarCategoria_ConfigurarRutina"><path d="M247.52,544.79 C212.86,547.62 102.97,558.58 82,585 C49.82,625.54 123.4,643.06 185.06,650.55 " fill="none" id="SeleccionarCategoria-to-ConfigurarRutina" style="stroke:#181818;stroke-width:1.0;"/><polygon fill="#181818" points="190.23,651.16,181.7598,646.1344,185.2643,650.575,180.8238,654.0795,190.23,651.16" style="stroke:#181818;stroke-width:1.0;"/><text fill="#000000" font-family="sans-serif" font-size="13" lengthAdjust="spacing" textLength="131" x="83" y="598.0669">Seleccionar "Fuerza"</text></g><!--MD5=[a804a27250fb859e1f32d64b1393eba6]
link SeleccionarCategoria to ConfigurarRutina--><g id="link_SeleccionarCategoria_ConfigurarRutina"><path d="M257.05,554.1 C256.33,562.39 255.39,574.44 255,585 C254.5,598.59 254.99,613.65 255.71,626.38 " fill="none" id="SeleccionarCategoria-to-ConfigurarRutina-1" style="stroke:#181818;stroke-width:1.0;"/><polygon fill="#181818" points="256.03,631.69,259.4822,622.466,255.7297,626.699,251.4967,622.9465,256.03,631.69" style="stroke:#181818;stroke-width:1.0;"/><text fill="#000000" font-family="sans-serif" font-size="13" lengthAdjust="spacing" textLength="160" x="256" y="598.0669">Seleccionar "Resistencia"</text></g><!--MD5=[a804a27250fb859e1f32d64b1393eba6]
link SeleccionarCategoria to ConfigurarRutina--><g id="link_SeleccionarCategoria_ConfigurarRutina"><path d="M268.17,544.96 C300.8,548.27 401.8,560.38 421,585 C449.92,622.1 386.64,640.19 330.69,648.76 " fill="none" id="SeleccionarCategoria-to-ConfigurarRutina-2" style="stroke:#181818;stroke-width:1.0;"/><polygon fill="#181818" points="325.64,649.5,335.1345,652.118,330.5845,648.7569,333.9456,644.2068,325.64,649.5" style="stroke:#181818;stroke-width:1.0;"/><text fill="#000000" font-family="sans-serif" font-size="13" lengthAdjust="spacing" textLength="157" x="429" y="598.0669">Seleccionar "Flexibilidad"</text></g><!--MD5=[afd68427b7f944ded5a81cfa62c5c0eb]
link ConfigurarRutina to ElegirEjercicios--><g id="link_ConfigurarRutina_ElegirEjercicios"><path d="M240.04,682.01 C234.39,690.95 228.88,701.49 226,712 C222.13,726.14 222.33,742.37 223.73,755.98 " fill="none" id="ConfigurarRutina-to-ElegirEjercicios" style="stroke:#181818;stroke-width:1.0;"/><polygon fill="#181818" points="224.35,761.25,227.293,751.8511,223.7774,756.2829,219.3457,752.7673,224.35,761.25" style="stroke:#181818;stroke-width:1.0;"/><text fill="#000000" font-family="sans-serif" font-size="13" lengthAdjust="spacing" textLength="172" x="227" y="725.0669">Configurar detalles básicos</text></g><!--MD5=[f279cf6548b2a59e1457595cd4000be1]
link ConfigurarRutina to GMN563--><g id="link_ConfigurarRutina_GMN563"><path d="M325.7,669.29 C353.3,677.07 383.47,690.13 404,712 C415.85,724.63 421.34,743.38 423.87,758.79 " fill="none" id="ConfigurarRutina-GMN563" style="stroke:#181818;stroke-width:1.0;stroke-dasharray:7.0,7.0;"/></g><!--MD5=[a1493d49aafa4cd4aac4ca041fa766ea]
link ElegirEjercicios to RevisarRutina--><g id="link_ElegirEjercicios_RevisarRutina"><path d="M167.24,788.87 C125.96,793.4 74.37,806.84 47,844 C38.02,856.19 41.12,872.47 46.99,886.37 " fill="none" id="ElegirEjercicios-to-RevisarRutina" style="stroke:#181818;stroke-width:1.0;"/><polygon fill="#181818" points="49.07,890.98,49.0129,881.1313,47.0128,886.4228,41.7213,884.4228,49.07,890.98" style="stroke:#181818;stroke-width:1.0;"/><text fill="#000000" font-family="sans-serif" font-size="13" lengthAdjust="spacing" textLength="137" x="48" y="857.0669">Seleccionar ejercicios</text></g><!--MD5=[74f7eeee667b739f6317c52be947d4b0]
link RevisarRutina to ElegirEjercicios--><g id="link_RevisarRutina_ElegirEjercicios"><path d="M121.29,894.7 C149.24,883.97 179.14,870.99 190,861 C203.08,848.96 212.6,831.51 218.96,816.63 " fill="none" id="RevisarRutina-to-ElegirEjercicios" style="stroke:#181818;stroke-width:1.0;"/><polygon fill="#181818" points="220.99,811.69,213.8645,818.4891,219.0863,816.3134,221.262,821.5351,220.99,811.69" style="stroke:#181818;stroke-width:1.0;"/><text fill="#000000" font-family="sans-serif" font-size="13" lengthAdjust="spacing" textLength="156" x="205" y="857.0669">Volver a editar ejercicios</text></g><!--MD5=[eec970052933ef7bf06fececac0d31b9]
link ElegirEjercicios to GMN568--><g id="link_ElegirEjercicios_GMN568"><path d="M290.73,807.68 C322.6,818.97 357.4,832.97 370,844 C388.73,860.41 400.61,887.81 406.21,903.34 " fill="none" id="ElegirEjercicios-GMN568" style="stroke:#181818;stroke-width:1.0;stroke-dasharray:7.0,7.0;"/></g><!--MD5=[0d223700f94d475aa3b541ebf7c07373]
link RevisarRutina to PublicarRutina--><g id="link_RevisarRutina_PublicarRutina"><path d="M121.14,936.41 C126.8,938.07 132.49,939.63 138,941 C322.5,986.77 545.09,1019.41 652.63,1033.79 " fill="none" id="RevisarRutina-to-PublicarRutina" style="stroke:#181818;stroke-width:1.0;"/><polygon fill="#181818" points="657.66,1034.46,649.2637,1029.312,652.7034,1033.8029,648.2124,1037.2426,657.66,1034.46" style="stroke:#181818;stroke-width:1.0;"/><text fill="#000000" font-family="sans-serif" font-size="13" lengthAdjust="spacing" textLength="128" x="361" y="984.0669">Confirmar y publicar</text></g><!--MD5=[a6d033734214b35eacf35c6775ae6104]
link PublicarRutina to CrearRutina--><g id="link_PublicarRutina_CrearRutina"><path d="M717,1017.57 C717,992.37 717,951.94 717,917 C717,542 717,542 717,542 C717,487.34 725.98,466.03 695,421 C686.44,408.56 673.99,398.49 661.09,390.56 " fill="none" id="PublicarRutina-to-CrearRutina" style="stroke:#181818;stroke-width:1.0;"/><polygon fill="#181818" points="656.71,387.96,662.401,395.9982,661.0075,390.5157,666.49,389.1222,656.71,387.96" style="stroke:#181818;stroke-width:1.0;"/><text fill="#000000" font-family="sans-serif" font-size="13" lengthAdjust="spacing" textLength="106" x="718" y="725.0669">Crear otra rutina</text></g><!--MD5=[a8560394a7bb326a8965b347eef92cf3]
link PublicarRutina to MenuRutinas--><g id="link_PublicarRutina_MenuRutinas"><path d="M769.15,1017.8 C805.68,996.86 848,962.74 848,917 C848,365 848,365 848,365 C848,331.96 846.93,319.56 826,294 C815.6,281.3 801.4,271.13 787,263.19 " fill="none" id="PublicarRutina-to-MenuRutinas" style="stroke:#181818;stroke-width:1.0;"/><polygon fill="#181818" points="782.53,260.8,788.5849,268.5678,786.9406,263.1552,792.3532,261.5108,782.53,260.8" style="stroke:#181818;stroke-width:1.0;"/><text fill="#000000" font-family="sans-serif" font-size="13" lengthAdjust="spacing" textLength="164" x="849" y="661.5669">Volver al menú de rutinas</text></g><!--MD5=[24b68b6209ccc76301236f40318f57dd]
link PublicarRutina to *end--><g id="link_PublicarRutina_*end"><path d="M738.02,1068.13 C758.76,1091.94 789.56,1127.29 805.17,1145.21 " fill="none" id="PublicarRutina-to-*end" style="stroke:#181818;stroke-width:1.0;"/><polygon fill="#181818" points="808.79,1149.37,805.894,1139.9565,805.5056,1145.6,799.8621,1145.2116,808.79,1149.37" style="stroke:#181818;stroke-width:1.0;"/><text fill="#000000" font-family="sans-serif" font-size="13" lengthAdjust="spacing" textLength="224" x="778" y="1111.0669">Salir. El profesor vuelve a ir al inicio</text></g><!--MD5=[b95d621fc952274d159e36bd0547935b]
@startuml
top to bottom direction

[*] - -> MenuPrincipal

MenuPrincipal - -> MenuRutinas : Profesor selecciona "Menú Rutinas"

MenuRutinas - -> CrearRutina : Profesor selecciona "Crear Rutina"

state SeleccionarCategoria <<choice>>
CrearRutina - -> SeleccionarCategoria
note on link
    Profesor selecciona una categoría general para la rutina, como:
    - Fuerza
    - Resistencia
    - Flexibilidad
end note

SeleccionarCategoria - -> ConfigurarRutina : Seleccionar "Fuerza"
SeleccionarCategoria - -> ConfigurarRutina : Seleccionar "Resistencia"
SeleccionarCategoria - -> ConfigurarRutina : Seleccionar "Flexibilidad"

ConfigurarRutina - -> ElegirEjercicios : Configurar detalles básicos
note bottom of ConfigurarRutina
    Detalles básicos incluyen:
    - Nombre de la rutina
    - Objetivo de la rutina
end note

ElegirEjercicios - -> RevisarRutina : Seleccionar ejercicios
note bottom of ElegirEjercicios
    El profesor selecciona ejercicios específicos basados en la categoría elegida.
end note

RevisarRutina - -> ElegirEjercicios : Volver a editar ejercicios
RevisarRutina - -> PublicarRutina : Confirmar y publicar

note bottom of PublicarRutina
    La rutina queda visible para los estudiantes.
end note

PublicarRutina - -> CrearRutina : Crear otra rutina
PublicarRutina - -> MenuRutinas : Volver al menú de rutinas
PublicarRutina - -> [*] : Salir. El profesor vuelve a ir al inicio
@enduml

PlantUML version 1.2022.7(Mon Aug 22 17:01:30 UTC 2022)
(GPL source distribution)
Java Runtime: OpenJDK Runtime Environment
JVM: OpenJDK 64-Bit Server VM
Default Encoding: UTF-8
Language: en
Country: null
--></g></svg>