<svg xmlns="http://www.w3.org/2000/svg" xmlns:xlink="http://www.w3.org/1999/xlink" contentStyleType="text/css" height="1248px" preserveAspectRatio="none" style="width:651px;height:1248px;background:#FFFFFF;" version="1.1" viewBox="0 0 651 1248" width="651px" zoomAndPan="magnify"><defs/><g><g id="elem_reto"><polygon fill="#F1F1F1" points="235,611,247,623,235,635,223,623,235,611" style="stroke:#181818;stroke-width:0.5;"/></g><ellipse cx="235" cy="16" fill="#222222" rx="10" ry="10" style="stroke:#222222;stroke-width:1;"/><g id="MenuRetos"><rect fill="#F1F1F1" height="50" rx="12.5" ry="12.5" style="stroke:#181818;stroke-width:0.5;" width="98.1279" x="186" y="103"/><line style="stroke:#181818;stroke-width:0.5;" x1="186" x2="284.1279" y1="129.2969" y2="129.2969"/><text fill="#000000" font-family="sans-serif" font-size="14" lengthAdjust="spacing" textLength="78.1279" x="196" y="120.9951">MenuRetos</text></g><g id="CrearRetos"><rect fill="#F1F1F1" height="50" rx="12.5" ry="12.5" style="stroke:#181818;stroke-width:0.5;" width="98.1689" x="186" y="230"/><line style="stroke:#181818;stroke-width:0.5;" x1="186" x2="284.1689" y1="256.2969" y2="256.2969"/><text fill="#000000" font-family="sans-serif" font-size="14" lengthAdjust="spacing" textLength="78.1689" x="196" y="247.9951">CrearRetos</text></g><g id="NombreReto"><rect fill="#F1F1F1" height="50" rx="12.5" ry="12.5" style="stroke:#181818;stroke-width:0.5;" width="108.3271" x="181" y="357"/><line style="stroke:#181818;stroke-width:0.5;" x1="181" x2="289.3271" y1="383.2969" y2="383.2969"/><text fill="#000000" font-family="sans-serif" font-size="14" lengthAdjust="spacing" textLength="88.3271" x="191" y="374.9951">NombreReto</text></g><g id="OpcionReto"><rect fill="#F1F1F1" height="50" rx="12.5" ry="12.5" style="stroke:#181818;stroke-width:0.5;" width="101.3271" x="184.5" y="484"/><line style="stroke:#181818;stroke-width:0.5;" x1="184.5" x2="285.8271" y1="510.2969" y2="510.2969"/><text fill="#000000" font-family="sans-serif" font-size="14" lengthAdjust="spacing" textLength="81.3271" x="194.5" y="501.9951">OpcionReto</text></g><g id="RetoObligatorio"><rect fill="#F1F1F1" height="50" rx="12.5" ry="12.5" style="stroke:#181818;stroke-width:0.5;" width="129.8125" x="7" y="712"/><line style="stroke:#181818;stroke-width:0.5;" x1="7" x2="136.8125" y1="738.2969" y2="738.2969"/><text fill="#000000" font-family="sans-serif" font-size="14" lengthAdjust="spacing" textLength="109.8125" x="17" y="729.9951">RetoObligatorio</text></g><g id="RetoOpcional"><rect fill="#F1F1F1" height="50" rx="12.5" ry="12.5" style="stroke:#181818;stroke-width:0.5;" width="113.7959" x="323" y="712"/><line style="stroke:#181818;stroke-width:0.5;" x1="323" x2="436.7959" y1="738.2969" y2="738.2969"/><text fill="#000000" font-family="sans-serif" font-size="14" lengthAdjust="spacing" textLength="93.7959" x="333" y="729.9951">RetoOpcional</text></g><g id="DescripcionReto"><rect fill="#F1F1F1" height="50" rx="12.5" ry="12.5" style="stroke:#181818;stroke-width:0.5;" width="134.3379" x="154" y="839"/><line style="stroke:#181818;stroke-width:0.5;" x1="154" x2="288.3379" y1="865.2969" y2="865.2969"/><text fill="#000000" font-family="sans-serif" font-size="14" lengthAdjust="spacing" textLength="114.3379" x="164" y="856.9951">DescripcionReto</text></g><g id="AsignarClases"><rect fill="#F1F1F1" height="50" rx="12.5" ry="12.5" style="stroke:#181818;stroke-width:0.5;" width="118.3008" x="162" y="966"/><line style="stroke:#181818;stroke-width:0.5;" x1="162" x2="280.3008" y1="992.2969" y2="992.2969"/><text fill="#000000" font-family="sans-serif" font-size="14" lengthAdjust="spacing" textLength="98.3008" x="172" y="983.9951">AsignarClases</text></g><g id="CrearReto"><rect fill="#F1F1F1" height="50" rx="12.5" ry="12.5" style="stroke:#181818;stroke-width:0.5;" width="90.875" x="175.5" y="1093"/><line style="stroke:#181818;stroke-width:0.5;" x1="175.5" x2="266.375" y1="1119.2969" y2="1119.2969"/><text fill="#000000" font-family="sans-serif" font-size="14" lengthAdjust="spacing" textLength="70.875" x="185.5" y="1110.9951">CrearReto</text></g><ellipse cx="221" cy="1231" fill="none" rx="11" ry="11" style="stroke:#222222;stroke-width:1;"/><ellipse cx="221" cy="1231" fill="#222222" rx="6" ry="6" style="stroke:#222222;stroke-width:1;"/><!--link *start* to MenuRetos--><g id="link_*start*_MenuRetos"><path d="M235,26 C235,42.63 235,72.66 235,96.87 " fill="none" id="*start*-to-MenuRetos" style="stroke:#181818;stroke-width:1;"/><polygon fill="#181818" points="235,102.87,239,93.87,235,97.87,231,93.87,235,102.87" style="stroke:#181818;stroke-width:1;"/><text fill="#000000" font-family="sans-serif" font-size="13" lengthAdjust="spacing" textLength="218.7656" x="236" y="69.0669">El profesor accede al menu Retos</text></g><!--link MenuRetos to CrearRetos--><g id="link_MenuRetos_CrearRetos"><path d="M235,153.1 C235,175.24 235,201.86 235,223.97 " fill="none" id="MenuRetos-to-CrearRetos" style="stroke:#181818;stroke-width:1;"/><polygon fill="#181818" points="235,229.97,239,220.97,235,224.97,231,220.97,235,229.97" style="stroke:#181818;stroke-width:1;"/><text fill="#000000" font-family="sans-serif" font-size="13" lengthAdjust="spacing" textLength="209.6123" x="236" y="196.0669">El profesor accede a CrearRetos</text></g><!--link CrearRetos to NombreReto--><g id="link_CrearRetos_NombreReto"><path d="M235,280.1 C235,302.24 235,328.86 235,350.97 " fill="none" id="CrearRetos-to-NombreReto" style="stroke:#181818;stroke-width:1;"/><polygon fill="#181818" points="235,356.97,239,347.97,235,351.97,231,347.97,235,356.97" style="stroke:#181818;stroke-width:1;"/><text fill="#000000" font-family="sans-serif" font-size="13" lengthAdjust="spacing" textLength="170.9741" x="236" y="323.0669">El profesor nombra el reto</text></g><!--link NombreReto to OpcionReto--><g id="link_NombreReto_OpcionReto"><path d="M235,407.1 C235,429.24 235,455.86 235,477.97 " fill="none" id="NombreReto-to-OpcionReto" style="stroke:#181818;stroke-width:1;"/><polygon fill="#181818" points="235,483.97,239,474.97,235,478.97,231,474.97,235,483.97" style="stroke:#181818;stroke-width:1;"/><text fill="#000000" font-family="sans-serif" font-size="13" lengthAdjust="spacing" textLength="274.8027" x="236" y="450.0669">El profesor debe establecer el tipo de reto</text></g><!--link OpcionReto to reto--><g id="link_OpcionReto_reto"><path d="M235,534.03 C235,557.81 235,587.16 235,604.94 " fill="none" id="OpcionReto-to-reto" style="stroke:#181818;stroke-width:1;"/><polygon fill="#181818" points="235,610.94,239,601.94,235,605.94,231,601.94,235,610.94" style="stroke:#181818;stroke-width:1;"/><text fill="#000000" font-family="sans-serif" font-size="13" lengthAdjust="spacing" textLength="260.5078" x="236" y="577.0669">El sistema muestra las opciones de reto</text></g><!--link reto to RetoObligatorio--><g id="link_reto_RetoObligatorio"><path d="M223.94,624 C198,624.61 132.63,629.77 96,665 C83.24,677.27 78.3453,690.6371 75.5453,706.0071 " fill="none" id="reto-to-RetoObligatorio" style="stroke:#181818;stroke-width:1;"/><polygon fill="#181818" points="74.47,711.91,80.0182,703.7726,75.3661,706.991,72.1478,702.3388,74.47,711.91" style="stroke:#181818;stroke-width:1;"/><text fill="#000000" font-family="sans-serif" font-size="13" lengthAdjust="spacing" textLength="228.5728" x="97" y="678.0669">El profesor ingresa RetoObligatorio</text></g><!--link reto to RetoOpcional--><g id="link_reto_RetoOpcional"><path d="M244.15,625.86 C262.83,630.03 305.98,641.67 334,665 C349.24,677.69 358.4287,691.4184 366.3287,706.5884 " fill="none" id="reto-to-RetoOpcional" style="stroke:#181818;stroke-width:1;"/><polygon fill="#181818" points="369.1,711.91,368.4908,702.08,366.7906,707.4753,361.3953,705.7751,369.1,711.91" style="stroke:#181818;stroke-width:1;"/><text fill="#000000" font-family="sans-serif" font-size="13" lengthAdjust="spacing" textLength="213.7002" x="350" y="678.0669">El profesor ingresa RetoOpcional</text></g><!--link RetoObligatorio to DescripcionReto--><g id="link_RetoObligatorio_DescripcionReto"><path d="M56.98,762.31 C50,777.01 45.17,795.46 55,809 C77.53,840.02 112.4077,852.6077 147.9177,858.3777 " fill="none" id="RetoObligatorio-to-DescripcionReto" style="stroke:#181818;stroke-width:1;"/><polygon fill="#181818" points="153.84,859.34,145.5981,853.9483,148.9047,858.5381,144.315,861.8447,153.84,859.34" style="stroke:#181818;stroke-width:1;"/><text fill="#000000" font-family="sans-serif" font-size="13" lengthAdjust="spacing" textLength="284.0322" x="56" y="805.0669">El profesor ingresa una descripcion del reto</text></g><!--link RetoOpcional to DescripcionReto--><g id="link_RetoOpcional_DescripcionReto"><path d="M372.93,762.01 C367.42,777.15 358.43,796.2 345,809 C329.11,824.15 313.8408,833.1621 293.8108,841.3821 " fill="none" id="RetoOpcional-to-DescripcionReto" style="stroke:#181818;stroke-width:1;"/><polygon fill="#181818" points="288.26,843.66,298.1048,843.9436,292.8856,841.7617,295.0675,836.5426,288.26,843.66" style="stroke:#181818;stroke-width:1;"/><text fill="#000000" font-family="sans-serif" font-size="13" lengthAdjust="spacing" textLength="284.0322" x="359" y="805.0669">El profesor ingresa una descripcion del reto</text></g><!--link DescripcionReto to AsignarClases--><g id="link_DescripcionReto_AsignarClases"><path d="M221,889.1 C221,911.24 221,937.86 221,959.97 " fill="none" id="DescripcionReto-to-AsignarClases" style="stroke:#181818;stroke-width:1;"/><polygon fill="#181818" points="221,965.97,225,956.97,221,960.97,217,956.97,221,965.97" style="stroke:#181818;stroke-width:1;"/><text fill="#000000" font-family="sans-serif" font-size="13" lengthAdjust="spacing" textLength="279.4175" x="222" y="932.0669">El profesor asigna el reto a distintas clases</text></g><!--link AsignarClases to CrearReto--><g id="link_AsignarClases_CrearReto"><path d="M221,1016.1 C221,1038.24 221,1064.86 221,1086.97 " fill="none" id="AsignarClases-to-CrearReto" style="stroke:#181818;stroke-width:1;"/><polygon fill="#181818" points="221,1092.97,225,1083.97,221,1087.97,217,1083.97,221,1092.97" style="stroke:#181818;stroke-width:1;"/><text fill="#000000" font-family="sans-serif" font-size="13" lengthAdjust="spacing" textLength="260.2603" x="222" y="1059.0669">El sistema muestra la opcion de "Crear"</text></g><!--link CrearReto to *end*--><g id="link_CrearReto_*end*"><path d="M221,1143.09 C221,1167.06 221,1196.7 221,1213.94 " fill="none" id="CrearReto-to-*end*" style="stroke:#181818;stroke-width:1;"/><polygon fill="#181818" points="221,1219.94,225,1210.94,221,1214.94,217,1210.94,221,1219.94" style="stroke:#181818;stroke-width:1;"/><text fill="#000000" font-family="sans-serif" font-size="13" lengthAdjust="spacing" textLength="365.3203" x="222" y="1186.0669">El sistema crea el reto. El profesor vuelve al menuRetos</text></g><!--SRC=[hPF1JiCm38RlUGfhHwJn06YgX0P7cCHruk2cfaHAayf9z_muKTErWUt4BQt__yilspa_VC9-ty0RkUc3eW_m1AyMHlPV53m3QaqT0LeOH05PegxYP3qo8T_phXLgTKxcTp-qJEcxChjKG20BB4MrqYNRQTJ6kpzi7RK452AsbZHnyaSpUlcVEQ2a5EVpuQ2_lT7KD6h5ItXUmC64I0F2C0bKybWCuBEOGe4gBhu4EBNMz1WzcpgRSJrJm5fLsJDS-dt7EqjKVLrYl53GR6wrfs0cXv9-KSfvxlCcmZ_mQdj2FWVJE-IZz99-xKokbR7BxdGo0EEYj5rdlTgwDmjuQsJpnDAyTbcykwvX9fpb5MoyMiebnECcu6KYUraUH5xa7m00]--></g></svg>