<svg xmlns="http://www.w3.org/2000/svg" xmlns:xlink="http://www.w3.org/1999/xlink" contentStyleType="text/css" height="463.8px" preserveAspectRatio="none" style="width:315px;height:463px;background:#FFFFFF;" version="1.1" viewBox="0 0 315 463" width="315px" zoomAndPan="magnify"><defs/><g><g id="Estado1"><rect fill="#F1F1F1" height="30" rx="7.5" ry="7.5" style="stroke:#181818;stroke-width:0.3;" width="30" x="127.8" y="73.8"/><line style="stroke:#181818;stroke-width:0.3;" x1="127.8" x2="157.8" y1="90.9727" y2="90.9727"/><text fill="#000000" font-family="sans-serif" font-size="8.4" lengthAdjust="spacing" textLength="2.3338" x="141.6331" y="85.8645">&#160;</text></g><g id="Estado2"><rect fill="#F1F1F1" height="30" rx="7.5" ry="7.5" style="stroke:#181818;stroke-width:0.3;" width="30" x="81" y="182.4"/><line style="stroke:#181818;stroke-width:0.3;" x1="81" x2="111" y1="199.5727" y2="199.5727"/><text fill="#000000" font-family="sans-serif" font-size="8.4" lengthAdjust="spacing" textLength="2.3338" x="94.8331" y="194.4645">&#160;</text></g><g id="Estado3"><rect fill="#F1F1F1" height="30" rx="7.5" ry="7.5" style="stroke:#181818;stroke-width:0.3;" width="30" x="128.4" y="291"/><line style="stroke:#181818;stroke-width:0.3;" x1="128.4" x2="158.4" y1="308.1727" y2="308.1727"/><text fill="#000000" font-family="sans-serif" font-size="8.4" lengthAdjust="spacing" textLength="2.3338" x="142.2331" y="303.0645">&#160;</text></g><ellipse cx="142.8" cy="9.6" fill="#222222" rx="6" ry="6" style="stroke:#222222;stroke-width:0.6;"/><g id="elem_rombo"><polygon fill="#F1F1F1" points="143.4,379.2,150.6,386.4,143.4,393.6,136.2,386.4,143.4,379.2" style="stroke:#181818;stroke-width:0.3;"/></g><g id="Pagina_Principal_Profesor"><rect fill="#F1F1F1" height="30" rx="7.5" ry="7.5" style="stroke:#181818;stroke-width:0.3;" width="111.4588" x="4.2" y="430.2"/><line style="stroke:#181818;stroke-width:0.3;" x1="4.2" x2="115.6588" y1="447.3727" y2="447.3727"/><text fill="#000000" font-family="sans-serif" font-size="8.4" lengthAdjust="spacing" textLength="99.4588" x="10.2" y="442.2645">Pagina_Principal_Profesor</text></g><ellipse cx="143.4" cy="445.2" fill="none" rx="6.6" ry="6.6" style="stroke:#222222;stroke-width:0.6;"/><ellipse cx="143.4" cy="445.2" fill="#222222" rx="3.6" ry="3.6" style="stroke:#222222;stroke-width:0.6;"/><g id="Pagina_Principal_Alumno"><rect fill="#F1F1F1" height="30" rx="7.5" ry="7.5" style="stroke:#181818;stroke-width:0.3;" width="108.1939" x="171" y="430.2"/><line style="stroke:#181818;stroke-width:0.3;" x1="171" x2="279.1939" y1="447.3727" y2="447.3727"/><text fill="#000000" font-family="sans-serif" font-size="8.4" lengthAdjust="spacing" textLength="96.1939" x="177" y="442.2645">Pagina_Principal_Alumno</text></g><!--link *start* to Estado1--><g id="link_*start*_Estado1"><path d="M142.8,15.81 C142.8,27.792 142.8,52.608 142.8,70.062 " fill="none" id="*start*-to-Estado1" style="stroke:#181818;stroke-width:0.6;"/><polygon fill="#181818" points="142.8,73.662,145.2,68.262,142.8,70.662,140.4,68.262,142.8,73.662" style="stroke:#181818;stroke-width:0.6;"/><path d="M145.8,36.6 L145.8,52.8 L267.6,52.8 L267.6,42.6 L261.6,36.6 L145.8,36.6 " fill="#FEFFDD" style="stroke:#181818;stroke-width:0.3;"/><path d="M261.6,36.6 L261.6,42.6 L267.6,42.6 L261.6,36.6 " fill="#FEFFDD" style="stroke:#181818;stroke-width:0.3;"/><text fill="#000000" font-family="sans-serif" font-size="7.8" lengthAdjust="spacing" textLength="109.2419" x="149.4" y="48.017">El Usuario solicita iniciar sesi&#243;n</text></g><!--link Estado1 to Estado2--><g id="link_Estado1_Estado2"><path d="M127.752,94.722 C116.1,99.726 100.782,108.474 93.6,121.8 C83.406,140.724 86.4492,162.924 90.5412,178.794 " fill="none" id="Estado1-to-Estado2" style="stroke:#181818;stroke-width:0.6;"/><polygon fill="#181818" points="91.44,182.28,92.4157,176.4518,90.691,179.375,87.7677,177.6503,91.44,182.28" style="stroke:#181818;stroke-width:0.6;"/><path d="M96.6,124.8 L96.6,161.4 L172.2,161.4 L172.2,130.8 L166.2,124.8 L96.6,124.8 " fill="#FEFFDD" style="stroke:#181818;stroke-width:0.3;"/><path d="M166.2,124.8 L166.2,130.8 L172.2,130.8 L166.2,124.8 " fill="#FEFFDD" style="stroke:#181818;stroke-width:0.3;"/><text fill="#000000" font-family="sans-serif" font-size="7.8" lengthAdjust="spacing" textLength="63.2874" x="100.2" y="136.217">El Sistema solicita</text><text fill="#000000" font-family="sans-serif" font-size="7.8" lengthAdjust="spacing" textLength="28.6063" x="100.2" y="146.5916">- Correo</text><text fill="#000000" font-family="sans-serif" font-size="7.8" lengthAdjust="spacing" textLength="45.0899" x="100.2" y="156.9662">- Contrase&#241;a</text></g><!--link Estado2 to Estado3--><g id="link_Estado2_Estado3"><path d="M92.196,212.49 C88.872,228.336 85.974,253.998 96,273 C102.744,285.78 113.7846,292.973 124.9266,298.109 " fill="none" id="Estado2-to-Estado3" style="stroke:#181818;stroke-width:0.6;"/><polygon fill="#181818" points="128.196,299.616,124.2966,295.1758,125.4715,298.3601,122.2872,299.535,128.196,299.616" style="stroke:#181818;stroke-width:0.6;"/><path d="M99,233.4 L99,270 L172.2,270 L172.2,239.4 L166.2,233.4 L99,233.4 " fill="#FEFFDD" style="stroke:#181818;stroke-width:0.3;"/><path d="M166.2,233.4 L166.2,239.4 L172.2,239.4 L166.2,233.4 " fill="#FEFFDD" style="stroke:#181818;stroke-width:0.3;"/><text fill="#000000" font-family="sans-serif" font-size="7.8" lengthAdjust="spacing" textLength="61.1317" x="102.6" y="244.817">Usuario introcude</text><text fill="#000000" font-family="sans-serif" font-size="7.8" lengthAdjust="spacing" textLength="28.6063" x="102.6" y="255.1916">- Correo</text><text fill="#000000" font-family="sans-serif" font-size="7.8" lengthAdjust="spacing" textLength="45.0899" x="102.6" y="265.5662">- Contrase&#241;a</text></g><!--link Estado3 to rombo--><g id="link_Estado3_rombo"><path d="M143.4,321.126 C143.4,338.364 143.4,362.772 143.4,375.51 " fill="none" id="Estado3-to-rombo" style="stroke:#181818;stroke-width:0.6;"/><polygon fill="#181818" points="143.4,379.11,145.8,373.71,143.4,376.11,141,373.71,143.4,379.11" style="stroke:#181818;stroke-width:0.6;"/><path d="M146.4,342 L146.4,358.2 L310.8,358.2 L310.8,348 L304.8,342 L146.4,342 " fill="#FEFFDD" style="stroke:#181818;stroke-width:0.3;"/><path d="M304.8,342 L304.8,348 L310.8,348 L304.8,342 " fill="#FEFFDD" style="stroke:#181818;stroke-width:0.3;"/><text fill="#000000" font-family="sans-serif" font-size="7.8" lengthAdjust="spacing" textLength="152.1686" x="150" y="353.417">El sistema identifica si es alumno o profesor</text></g><!--link Estado3 to Estado1--><g id="link_Estado3_Estado1"><path d="M158.46,295.596 C165.708,289.956 173.658,282.168 177.6,273 C204.15,211.266 204.42,183.414 177.6,121.8 C173.55,112.488 168.2206,106.8238 160.8046,101.1898 " fill="none" id="Estado3-to-Estado1" style="stroke:#181818;stroke-width:0.6;"/><polygon fill="#181818" points="157.938,99.012,160.786,104.1897,160.3268,100.8268,163.6897,100.3676,157.938,99.012" style="stroke:#181818;stroke-width:0.6;"/><path d="M200.4,189.3 L200.4,205.5 L273.6,205.5 L273.6,195.3 L267.6,189.3 L200.4,189.3 " fill="#FEFFDD" style="stroke:#181818;stroke-width:0.3;"/><path d="M267.6,189.3 L267.6,195.3 L273.6,195.3 L267.6,189.3 " fill="#FEFFDD" style="stroke:#181818;stroke-width:0.3;"/><text fill="#000000" font-family="sans-serif" font-size="7.8" lengthAdjust="spacing" textLength="60.6899" x="204" y="200.717">Datos incorrectos</text></g><!--link rombo to Pagina_Principal_Profesor--><g id="link_rombo_Pagina_Principal_Profesor"><path d="M139.38,389.778 C129,396.948 103.7024,414.4205 83.8724,428.1125 " fill="none" id="rombo-to-Pagina_Principal_Profesor" style="stroke:#181818;stroke-width:0.6;"/><polygon fill="#181818" points="80.91,430.158,86.7173,429.0648,83.3787,428.4534,83.99,425.1148,80.91,430.158" style="stroke:#181818;stroke-width:0.6;"/></g><!--link rombo to *end*--><g id="link_rombo_*end*"><path d="M143.4,393.606 C143.4,404.898 143.4,424.128 143.4,434.988 " fill="none" id="rombo-to-*end*" style="stroke:#181818;stroke-width:0.6;"/><polygon fill="#181818" points="143.4,438.588,145.8,433.188,143.4,435.588,141,433.188,143.4,438.588" style="stroke:#181818;stroke-width:0.6;"/></g><!--link rombo to Pagina_Principal_Alumno--><g id="link_rombo_Pagina_Principal_Alumno"><path d="M147.336,389.778 C157.494,396.948 182.2009,414.39 201.5989,428.082 " fill="none" id="rombo-to-Pagina_Principal_Alumno" style="stroke:#181818;stroke-width:0.6;"/><polygon fill="#181818" points="204.54,430.158,201.5123,425.0833,202.0891,428.428,198.7443,429.0048,204.54,430.158" style="stroke:#181818;stroke-width:0.6;"/></g><!--SRC=[dL91QiCm4Bph5KkF0H-QN8EXjBa7GaybbAsyQPVQsg2L7rRwX7oiQpbrR98cKEaWiHhDx8oa2HF1dKrKM6d2IkwTdXVdbueBvrvcMoYAShWADe8OK0BK73vpeHkh6fwrnSW2AZLxJWWSRCK8Iig7xv2n5AfCu8wC8_RvLVODQw861_RXh817YP5aKWWfejBX2wUYcQiN6mal_XR-zSH6ABwjw5-oVRPHcZU1vT9_27igovExlelSKGPT3KAFGN158V6ElMN2G0fOjqqG4DX7sP5Ad3PnKUxckpvX4ZNxlZFhRNyUQE-hOrlZEmTyNKV3ynvhsuqwEU7iLzsw-P3Dk1y0]--></g></svg>