<svg xmlns="http://www.w3.org/2000/svg" xmlns:xlink="http://www.w3.org/1999/xlink" contentStyleType="text/css" height="959px" preserveAspectRatio="none" style="width:770px;height:959px;background:#FFFFFF;" version="1.1" viewBox="0 0 770 959" width="770px" zoomAndPan="magnify"><defs/><g><g id="elem_rombo"><polygon fill="#F1F1F1" points="330.5,522,342.5,534,330.5,546,318.5,534,330.5,522" style="stroke:#181818;stroke-width:0.5;"/></g><ellipse cx="330.5" cy="16" fill="#222222" rx="10" ry="10" style="stroke:#222222;stroke-width:1;"/><g id="UsuarioRegistrado"><rect fill="#F1F1F1" height="50" rx="12.5" ry="12.5" style="stroke:#181818;stroke-width:0.5;" width="148.8916" x="256" y="87"/><line style="stroke:#181818;stroke-width:0.5;" x1="256" x2="404.8916" y1="113.2969" y2="113.2969"/><text fill="#000000" font-family="sans-serif" font-size="14" lengthAdjust="spacing" textLength="128.8916" x="266" y="104.9951">UsuarioRegistrado</text></g><g id="ProcesoDeInicioDeSesi&#243;n"><rect fill="#F1F1F1" height="50" rx="12.5" ry="12.5" style="stroke:#181818;stroke-width:0.5;" width="196.8867" x="232" y="232"/><line style="stroke:#181818;stroke-width:0.5;" x1="232" x2="428.8867" y1="258.2969" y2="258.2969"/><text fill="#000000" font-family="sans-serif" font-size="14" lengthAdjust="spacing" textLength="176.8867" x="242" y="249.9951">ProcesoDeInicioDeSesi&#243;n</text></g><g id="VerificarUsuario"><rect fill="#F1F1F1" height="50" rx="12.5" ry="12.5" style="stroke:#181818;stroke-width:0.5;" width="131.8906" x="264.5" y="377"/><line style="stroke:#181818;stroke-width:0.5;" x1="264.5" x2="396.3906" y1="403.2969" y2="403.2969"/><text fill="#000000" font-family="sans-serif" font-size="14" lengthAdjust="spacing" textLength="111.8906" x="274.5" y="394.9951">VerificarUsuario</text></g><g id="UsuarioNoIdentificado"><rect fill="#F1F1F1" height="50" rx="12.5" ry="12.5" style="stroke:#181818;stroke-width:0.5;" width="174.6699" x="7" y="641"/><line style="stroke:#181818;stroke-width:0.5;" x1="7" x2="181.6699" y1="667.2969" y2="667.2969"/><text fill="#000000" font-family="sans-serif" font-size="14" lengthAdjust="spacing" textLength="154.6699" x="17" y="658.9951">UsuarioNoIdentificado</text></g><g id="UsuarioIdentificado"><rect fill="#F1F1F1" height="50" rx="12.5" ry="12.5" style="stroke:#181818;stroke-width:0.5;" width="155.6318" x="489.5" y="641"/><line style="stroke:#181818;stroke-width:0.5;" x1="489.5" x2="645.1318" y1="667.2969" y2="667.2969"/><text fill="#000000" font-family="sans-serif" font-size="14" lengthAdjust="spacing" textLength="135.6318" x="499.5" y="658.9951">UsuarioIdentificado</text></g><g id="IniciandoSesi&#243;n"><rect fill="#F1F1F1" height="50" rx="12.5" ry="12.5" style="stroke:#181818;stroke-width:0.5;" width="129.5049" x="502.5" y="786"/><line style="stroke:#181818;stroke-width:0.5;" x1="502.5" x2="632.0049" y1="812.2969" y2="812.2969"/><text fill="#000000" font-family="sans-serif" font-size="14" lengthAdjust="spacing" textLength="109.5049" x="512.5" y="803.9951">IniciandoSesi&#243;n</text></g><ellipse cx="567.5" cy="942" fill="none" rx="11" ry="11" style="stroke:#222222;stroke-width:1;"/><ellipse cx="567.5" cy="942" fill="#222222" rx="6" ry="6" style="stroke:#222222;stroke-width:1;"/><!--link *start* to UsuarioRegistrado--><g id="link_*start*_UsuarioRegistrado"><path d="M330.5,26.01 C330.5,39.89 330.5,60.97 330.5,80.84 " fill="none" id="*start*-to-UsuarioRegistrado" style="stroke:#181818;stroke-width:1;"/><polygon fill="#181818" points="330.5,86.84,334.5,77.84,330.5,81.84,326.5,77.84,330.5,86.84" style="stroke:#181818;stroke-width:1;"/></g><!--link UsuarioRegistrado to ProcesoDeInicioDeSesi?n--><g id="link_UsuarioRegistrado_ProcesoDeInicioDeSesi&#243;n"><path d="M330.5,137.26 C330.5,163.55 330.5,199.28 330.5,225.62 " fill="none" id="UsuarioRegistrado-to-ProcesoDeInicioDeSesi&#243;n" style="stroke:#181818;stroke-width:1;"/><polygon fill="#181818" points="330.5,231.62,334.5,222.62,330.5,226.62,326.5,222.62,330.5,231.62" style="stroke:#181818;stroke-width:1;"/><path d="M335.5,172 L335.5,197 L577.5,197 L577.5,182 L567.5,172 L335.5,172 " fill="#FEFFDD" style="stroke:#181818;stroke-width:0.5;"/><path d="M567.5,172 L567.5,182 L577.5,182 L567.5,172 " fill="#FEFFDD" style="stroke:#181818;stroke-width:0.5;"/><text fill="#000000" font-family="sans-serif" font-size="13" lengthAdjust="spacing" textLength="221.6919" x="341.5" y="189.0669">Usuario quiere acceder al sistema</text></g><!--link ProcesoDeInicioDeSesi?n to VerificarUsuario--><g id="link_ProcesoDeInicioDeSesi&#243;n_VerificarUsuario"><path d="M330.5,282.26 C330.5,308.55 330.5,344.28 330.5,370.62 " fill="none" id="ProcesoDeInicioDeSesi&#243;n-to-VerificarUsuario" style="stroke:#181818;stroke-width:1;"/><polygon fill="#181818" points="330.5,376.62,334.5,367.62,330.5,371.62,326.5,367.62,330.5,376.62" style="stroke:#181818;stroke-width:1;"/><path d="M335.5,317 L335.5,342 L570.5,342 L570.5,327 L560.5,317 L335.5,317 " fill="#FEFFDD" style="stroke:#181818;stroke-width:0.5;"/><path d="M560.5,317 L560.5,327 L570.5,327 L560.5,317 " fill="#FEFFDD" style="stroke:#181818;stroke-width:0.5;"/><text fill="#000000" font-family="sans-serif" font-size="13" lengthAdjust="spacing" textLength="214.6206" x="341.5" y="334.0669">Rellena con correo y contrase&#241;a.</text></g><!--link VerificarUsuario to rombo--><g id="link_VerificarUsuario_rombo"><path d="M330.5,427.15 C330.5,455.34 330.5,494.79 330.5,515.75 " fill="none" id="VerificarUsuario-to-rombo" style="stroke:#181818;stroke-width:1;"/><polygon fill="#181818" points="330.5,521.75,334.5,512.75,330.5,516.75,326.5,512.75,330.5,521.75" style="stroke:#181818;stroke-width:1;"/><path d="M335.5,462 L335.5,487 L567.5,487 L567.5,472 L557.5,462 L335.5,462 " fill="#FEFFDD" style="stroke:#181818;stroke-width:0.5;"/><path d="M557.5,462 L557.5,472 L567.5,472 L557.5,462 " fill="#FEFFDD" style="stroke:#181818;stroke-width:0.5;"/><text fill="#000000" font-family="sans-serif" font-size="13" lengthAdjust="spacing" textLength="211.0469" x="341.5" y="479.0669">&#191;Correo y contrase&#241;a correctos?</text></g><!--link rombo to UsuarioNoIdentificado--><g id="link_rombo_UsuarioNoIdentificado"><path d="M323.18,539.03 C295.64,554.2 202.1153,605.7148 143.7753,637.8548 " fill="none" id="rombo-to-UsuarioNoIdentificado" style="stroke:#181818;stroke-width:1;"/><polygon fill="#181818" points="138.52,640.75,148.333,639.9108,142.8994,638.3374,144.4728,632.9037,138.52,640.75" style="stroke:#181818;stroke-width:1;"/><path d="M259.5,581 L259.5,606 L297.5,606 L297.5,591 L287.5,581 L259.5,581 " fill="#FEFFDD" style="stroke:#181818;stroke-width:0.5;"/><path d="M287.5,581 L287.5,591 L297.5,591 L287.5,581 " fill="#FEFFDD" style="stroke:#181818;stroke-width:0.5;"/><text fill="#000000" font-family="sans-serif" font-size="13" lengthAdjust="spacing" textLength="17.6782" x="265.5" y="598.0669">No</text></g><!--link rombo to UsuarioIdentificado--><g id="link_rombo_UsuarioIdentificado"><path d="M337.85,539.03 C365.51,554.2 459.4395,605.7243 518.0295,637.8643 " fill="none" id="rombo-to-UsuarioIdentificado" style="stroke:#181818;stroke-width:1;"/><polygon fill="#181818" points="523.29,640.75,517.323,632.9145,518.9063,638.3453,513.4755,639.9285,523.29,640.75" style="stroke:#181818;stroke-width:1;"/><path d="M468.5,581 L468.5,606 L500.5,606 L500.5,591 L490.5,581 L468.5,581 " fill="#FEFFDD" style="stroke:#181818;stroke-width:0.5;"/><path d="M490.5,581 L490.5,591 L500.5,591 L490.5,581 " fill="#FEFFDD" style="stroke:#181818;stroke-width:0.5;"/><text fill="#000000" font-family="sans-serif" font-size="13" lengthAdjust="spacing" textLength="11.8638" x="474.5" y="598.0669">S&#237;</text></g><!--link UsuarioIdentificado to IniciandoSesi?n--><g id="link_UsuarioIdentificado_IniciandoSesi&#243;n"><path d="M567.5,691.26 C567.5,717.55 567.5,753.28 567.5,779.62 " fill="none" id="UsuarioIdentificado-to-IniciandoSesi&#243;n" style="stroke:#181818;stroke-width:1;"/><polygon fill="#181818" points="567.5,785.62,571.5,776.62,567.5,780.62,563.5,776.62,567.5,785.62" style="stroke:#181818;stroke-width:1;"/><path d="M572.5,726 L572.5,751 L763.5,751 L763.5,736 L753.5,726 L572.5,726 " fill="#FEFFDD" style="stroke:#181818;stroke-width:0.5;"/><path d="M753.5,726 L753.5,736 L763.5,736 L753.5,726 " fill="#FEFFDD" style="stroke:#181818;stroke-width:0.5;"/><text fill="#000000" font-family="sans-serif" font-size="13" lengthAdjust="spacing" textLength="170.771" x="578.5" y="743.0669">Usuario accede al sistema</text></g><!--link UsuarioNoIdentificado to UsuarioNoIdentificado--><g id="link_UsuarioNoIdentificado_UsuarioNoIdentificado"><path d="M182.04,652.8 C202.19,653.94 217,658.34 217,666 C217,673.66 208.1804,677.7211 188.0304,678.8611 " fill="none" id="UsuarioNoIdentificado-to-UsuarioNoIdentificado" style="stroke:#181818;stroke-width:1;"/><polygon fill="#181818" points="182.04,679.2,191.2516,682.6852,187.032,678.9176,190.7997,674.698,182.04,679.2" style="stroke:#181818;stroke-width:1;"/><path d="M222,646 L222,686 L466,686 L466,656 L456,646 L222,646 " fill="#FEFFDD" style="stroke:#181818;stroke-width:0.5;"/><path d="M456,646 L456,656 L466,656 L456,646 " fill="#FEFFDD" style="stroke:#181818;stroke-width:0.5;"/><text fill="#000000" font-family="sans-serif" font-size="13" lengthAdjust="spacing" textLength="176.8901" x="228" y="663.0669">El usuario comprueba si ha</text><text fill="#000000" font-family="sans-serif" font-size="13" lengthAdjust="spacing" textLength="223.7485" x="228" y="678.1997">rellenado los datos correctamente</text></g><!--link IniciandoSesi?n to *end*--><g id="link_IniciandoSesi&#243;n_*end*"><path d="M567.5,836.26 C567.5,864.73 567.5,904.6 567.5,924.84 " fill="none" id="IniciandoSesi&#243;n-to-*end*" style="stroke:#181818;stroke-width:1;"/><polygon fill="#181818" points="567.5,930.84,571.5,921.84,567.5,925.84,563.5,921.84,567.5,930.84" style="stroke:#181818;stroke-width:1;"/><path d="M572.5,871 L572.5,896 L752.5,896 L752.5,881 L742.5,871 L572.5,871 " fill="#FEFFDD" style="stroke:#181818;stroke-width:0.5;"/><path d="M742.5,871 L742.5,881 L752.5,881 L742.5,871 " fill="#FEFFDD" style="stroke:#181818;stroke-width:0.5;"/><text fill="#000000" font-family="sans-serif" font-size="13" lengthAdjust="spacing" textLength="159.8594" x="578.5" y="888.0669">Inicio de Sesi&#243;n correcto</text></g><!--SRC=[bPB1JiCm38RlUGgV9uqdcCe1EEmoeKrmcNRm4iCYqXYSzi13SK0y019zCRoqHTLQXkYbQkB__sp_tSvsC9yNS9Tg5CzhUlIf4dHiHYUvxbROKk9hMaPllRutb7pp4KtaYe0Z11-V3EZJwU6bzYG4Q2qv4i00IGsfH4FHmL5cp6-k6NbFuX-yHUaSnwWrXK0HmUgXPH5YU3r-QDk9cdUy6A1IXQeMBlSCYuKziBTK5EOKaicvQepx-hoQWBHaMt6w7E1Qq633AruwYbM6kGdp5PzJdzTkchU1U4AIhVAECJh-Cxesi-d89iVvpw0t0UgEOxbybfhsg1muOBwMDbFr39p0eUwrtp2Mwak3NaudocriPxinjFs_G8VgI_lKVko-0G00]--></g></svg>