<svg xmlns="http://www.w3.org/2000/svg" xmlns:xlink="http://www.w3.org/1999/xlink" contentStyleType="text/css" height="309px" preserveAspectRatio="none" style="width:519px;height:309px;background:#FFFFFF;" version="1.1" viewBox="0 0 519 309" width="519px" zoomAndPan="magnify"><defs/><g><g id="Estado1"><rect fill="#F1F1F1" height="50" rx="12.5" ry="12.5" style="stroke:#181818;stroke-width:0.5;" width="50" x="7" y="121"/><line style="stroke:#181818;stroke-width:0.5;" x1="7" x2="57" y1="147.2969" y2="147.2969"/><text fill="#000000" font-family="sans-serif" font-size="14" lengthAdjust="spacing" textLength="4.4502" x="29.7749" y="138.9951">&#160;</text></g><ellipse cx="32" cy="16" fill="#222222" rx="10" ry="10" style="stroke:#222222;stroke-width:1;"/><ellipse cx="32" cy="292" fill="none" rx="11" ry="11" style="stroke:#222222;stroke-width:1;"/><ellipse cx="32" cy="292" fill="#222222" rx="6" ry="6" style="stroke:#222222;stroke-width:1;"/><!--link *start* to Estado1--><g id="link_*start*_Estado1"><path d="M32,26.21 C32,45.81 32,86.23 32,114.89 " fill="none" id="*start*-to-Estado1" style="stroke:#181818;stroke-width:1;"/><polygon fill="#181818" points="32,120.89,36,111.89,32,115.89,28,111.89,32,120.89" style="stroke:#181818;stroke-width:1;"/><path d="M37,61 L37,86 L319,86 L319,71 L309,61 L37,61 " fill="#FEFFDD" style="stroke:#181818;stroke-width:0.5;"/><path d="M309,61 L309,71 L319,71 L309,61 " fill="#FEFFDD" style="stroke:#181818;stroke-width:0.5;"/><text fill="#000000" font-family="sans-serif" font-size="13" lengthAdjust="spacing" textLength="261.9995" x="43" y="78.0669">El usuario solicita ir a la p&#225;gina de inicio</text></g><!--link Estado1 to *end*--><g id="link_Estado1_*end*"><path d="M32,171.1 C32,203.13 32,252.29 32,274.9 " fill="none" id="Estado1-to-*end*" style="stroke:#181818;stroke-width:1;"/><polygon fill="#181818" points="32,280.9,36,271.9,32,275.9,28,271.9,32,280.9" style="stroke:#181818;stroke-width:1;"/><path d="M37,206 L37,246 L512,246 L512,216 L502,206 L37,206 " fill="#FEFFDD" style="stroke:#181818;stroke-width:0.5;"/><path d="M502,206 L502,216 L512,216 L502,206 " fill="#FEFFDD" style="stroke:#181818;stroke-width:0.5;"/><text fill="#000000" font-family="sans-serif" font-size="13" lengthAdjust="spacing" textLength="253.4873" x="43" y="223.0669">El Sistema muestra la p&#225;gina de inicio.</text><text fill="#000000" font-family="sans-serif" font-size="13" lengthAdjust="spacing" textLength="454.3779" x="43" y="238.1997">El profesor podra acceder a Crear Retos, Crear Rutinas, Cerrar Sesion</text></g><!--SRC=[VKv12i903Bpt5S6ZMC4FU95-G8_Y8NIZ1DjDIR8FyYr-p7HHKH0dfvaaCsEEJh28GOFE79DickQuF47RRjy21BB4eMGOE5-hCACRe5X1PG6JWNjs15P0612c- -t26I4HS8wLr2_AgLerJ- -Q4tb_CmviJYF2MCXSVxklFnycbJEPA4oIuXxxdXBDlNPAgB0d5rkzIF4mcYcf1Z-GiUIliWy0]--></g></svg>