<svg xmlns="http://www.w3.org/2000/svg" xmlns:xlink="http://www.w3.org/1999/xlink" contentStyleType="text/css" height="439px" preserveAspectRatio="none" style="width:361px;height:439px;background:#FFFFFF;" version="1.1" viewBox="0 0 361 439" width="361px" zoomAndPan="magnify"><defs/><g><g id="Estado1"><rect fill="#F1F1F1" height="50" rx="12.5" ry="12.5" style="stroke:#181818;stroke-width:0.5;" width="50" x="7" y="121"/><line style="stroke:#181818;stroke-width:0.5;" x1="7" x2="57" y1="147.2969" y2="147.2969"/><text fill="#000000" font-family="sans-serif" font-size="14" lengthAdjust="spacing" textLength="4.4502" x="29.7749" y="138.9951">&#160;</text></g><g id="Estado2"><rect fill="#F1F1F1" height="50" rx="12.5" ry="12.5" style="stroke:#181818;stroke-width:0.5;" width="50" x="7" y="266"/><line style="stroke:#181818;stroke-width:0.5;" x1="7" x2="57" y1="292.2969" y2="292.2969"/><text fill="#000000" font-family="sans-serif" font-size="14" lengthAdjust="spacing" textLength="4.4502" x="29.7749" y="283.9951">&#160;</text></g><ellipse cx="32" cy="16" fill="#222222" rx="10" ry="10" style="stroke:#222222;stroke-width:1;"/><ellipse cx="32" cy="422" fill="none" rx="11" ry="11" style="stroke:#222222;stroke-width:1;"/><ellipse cx="32" cy="422" fill="#222222" rx="6" ry="6" style="stroke:#222222;stroke-width:1;"/><!--link *start* to Estado1--><g id="link_*start*_Estado1"><path d="M32,26.21 C32,45.81 32,86.23 32,114.89 " fill="none" id="*start*-to-Estado1" style="stroke:#181818;stroke-width:1;"/><polygon fill="#181818" points="32,120.89,36,111.89,32,115.89,28,111.89,32,120.89" style="stroke:#181818;stroke-width:1;"/><path d="M37,61 L37,86 L319,86 L319,71 L309,61 L37,61 " fill="#FEFFDD" style="stroke:#181818;stroke-width:0.5;"/><path d="M309,61 L309,71 L319,71 L309,61 " fill="#FEFFDD" style="stroke:#181818;stroke-width:0.5;"/><text fill="#000000" font-family="sans-serif" font-size="13" lengthAdjust="spacing" textLength="261.9995" x="43" y="78.0669">El usuario solicita ir a la p&#225;gina de inicio</text></g><!--link Estado1 to Estado2--><g id="link_Estado1_Estado2"><path d="M32,171.26 C32,197.55 32,233.28 32,259.62 " fill="none" id="Estado1-to-Estado2" style="stroke:#181818;stroke-width:1;"/><polygon fill="#181818" points="32,265.62,36,256.62,32,260.62,28,256.62,32,265.62" style="stroke:#181818;stroke-width:1;"/><path d="M37,206 L37,231 L281,231 L281,216 L271,206 L37,206 " fill="#FEFFDD" style="stroke:#181818;stroke-width:0.5;"/><path d="M271,206 L271,216 L281,216 L271,206 " fill="#FEFFDD" style="stroke:#181818;stroke-width:0.5;"/><text fill="#000000" font-family="sans-serif" font-size="13" lengthAdjust="spacing" textLength="223.0313" x="43" y="223.0669">El Sistema va a la p&#225;gina de inicio</text></g><!--link Estado2 to *end*--><g id="link_Estado2_*end*"><path d="M32,316.26 C32,344.73 32,384.6 32,404.84 " fill="none" id="Estado2-to-*end*" style="stroke:#181818;stroke-width:1;"/><polygon fill="#181818" points="32,410.84,36,401.84,32,405.84,28,401.84,32,410.84" style="stroke:#181818;stroke-width:1;"/><path d="M37,351 L37,376 L354,376 L354,361 L344,351 L37,351 " fill="#FEFFDD" style="stroke:#181818;stroke-width:0.5;"/><path d="M344,351 L344,361 L354,361 L344,351 " fill="#FEFFDD" style="stroke:#181818;stroke-width:0.5;"/><text fill="#000000" font-family="sans-serif" font-size="13" lengthAdjust="spacing" textLength="296.5815" x="43" y="368.0669">El usuario se encuentra en la p&#225;gina de inicio</text></g><!--SRC=[bKzB2W8n3Dtt50-NmYpi0TpD2LoAYp0D4gofD1tlurcycB6828AVP1DUteTdZHfZuKk6qHgbiWhs3iOGjiiTXc7zPC57YnEB8eiUEd2VCMEscQeKMCaoIID81I4JJjVBNfIG6AB-Abt5chfLU7Y_vCIFEHknnaV2cVwmZztUw_nMWLq_pQojab_VKsu0]--></g></svg>