<svg xmlns="http://www.w3.org/2000/svg" xmlns:xlink="http://www.w3.org/1999/xlink" contentStyleType="text/css" height="294px" preserveAspectRatio="none" style="width:326px;height:294px;background:#FFFFFF;" version="1.1" viewBox="0 0 326 294" width="326px" zoomAndPan="magnify"><defs/><g><g id="Estado1"><rect fill="#F1F1F1" height="50" rx="12.5" ry="12.5" style="stroke:#181818;stroke-width:0.5;" width="50" x="7" y="121"/><line style="stroke:#181818;stroke-width:0.5;" x1="7" x2="57" y1="147.2969" y2="147.2969"/><text fill="#000000" font-family="sans-serif" font-size="14" lengthAdjust="spacing" textLength="4.4502" x="29.7749" y="138.9951">&#160;</text></g><ellipse cx="32" cy="16" fill="#222222" rx="10" ry="10" style="stroke:#222222;stroke-width:1;"/><ellipse cx="32" cy="277" fill="none" rx="11" ry="11" style="stroke:#222222;stroke-width:1;"/><ellipse cx="32" cy="277" fill="#222222" rx="6" ry="6" style="stroke:#222222;stroke-width:1;"/><!--link *start* to Estado1--><g id="link_*start*_Estado1"><path d="M32,26.21 C32,45.81 32,86.23 32,114.89 " fill="none" id="*start*-to-Estado1" style="stroke:#181818;stroke-width:1;"/><polygon fill="#181818" points="32,120.89,36,111.89,32,115.89,28,111.89,32,120.89" style="stroke:#181818;stroke-width:1;"/><path d="M37,61 L37,86 L319,86 L319,71 L309,61 L37,61 " fill="#FEFFDD" style="stroke:#181818;stroke-width:0.5;"/><path d="M309,61 L309,71 L319,71 L309,61 " fill="#FEFFDD" style="stroke:#181818;stroke-width:0.5;"/><text fill="#000000" font-family="sans-serif" font-size="13" lengthAdjust="spacing" textLength="261.9995" x="43" y="78.0669">El usuario solicita ir a la p&#225;gina de inicio</text></g><!--link Estado1 to *end*--><g id="link_Estado1_*end*"><path d="M32,171.26 C32,199.73 32,239.6 32,259.84 " fill="none" id="Estado1-to-*end*" style="stroke:#181818;stroke-width:1;"/><polygon fill="#181818" points="32,265.84,36,256.84,32,260.84,28,256.84,32,265.84" style="stroke:#181818;stroke-width:1;"/><path d="M37,206 L37,231 L307,231 L307,216 L297,206 L37,206 " fill="#FEFFDD" style="stroke:#181818;stroke-width:0.5;"/><path d="M297,206 L297,216 L307,216 L297,206 " fill="#FEFFDD" style="stroke:#181818;stroke-width:0.5;"/><text fill="#000000" font-family="sans-serif" font-size="13" lengthAdjust="spacing" textLength="249.355" x="43" y="223.0669">El Sistema muestra la p&#225;gina de inicio</text></g><!--SRC=[ZOsn3G8n34NxJF55UT8LB41t4r2UA2nYdInoDegTWPY5nGWHeaHyTz_sUnuKZ4CVSYmUbEsOqZfTCC-dRu4UjNveYY9w6yKxIq7pHbKCRaMk4WIf81J2_VdOH0cP8TfNDhvOyq2b3tjukk-duomUl1FsnXxr3_eB]--></g></svg>