<svg xmlns="http://www.w3.org/2000/svg" xmlns:xlink="http://www.w3.org/1999/xlink" contentStyleType="text/css" height="412px" preserveAspectRatio="none" style="width:838px;height:412px;background:#FFFFFF;" version="1.1" viewBox="0 0 838 412" width="838px" zoomAndPan="magnify"><defs/><g><g id="Menu_Clasificacion"><rect fill="#F1F1F1" height="50" rx="12.5" ry="12.5" style="stroke:#181818;stroke-width:0.5;" width="152.9863" x="428" y="118"/><line style="stroke:#181818;stroke-width:0.5;" x1="428" x2="580.9863" y1="144.2969" y2="144.2969"/><text fill="#000000" font-family="sans-serif" font-size="14" lengthAdjust="spacing" textLength="132.9863" x="438" y="135.9951">Menu_Clasificacion</text></g><g id="elem_rombo1"><polygon fill="#F1F1F1" points="290.5,258,302.5,270,290.5,282,278.5,270,290.5,258" style="stroke:#181818;stroke-width:0.5;"/></g><g id="Ver_Alumnos_Clase"><rect fill="#F1F1F1" height="50" rx="12.5" ry="12.5" style="stroke:#181818;stroke-width:0.5;" width="156.8076" x="502" y="245"/><line style="stroke:#181818;stroke-width:0.5;" x1="502" x2="658.8076" y1="271.2969" y2="271.2969"/><text fill="#000000" font-family="sans-serif" font-size="14" lengthAdjust="spacing" textLength="136.8076" x="512" y="262.9951">Ver_Alumnos_Clase</text></g><g id="Menu_Perfil"><rect fill="#F1F1F1" height="50" rx="12.5" ry="12.5" style="stroke:#181818;stroke-width:0.5;" width="100.958" x="7" y="356"/><line style="stroke:#181818;stroke-width:0.5;" x1="7" x2="107.958" y1="382.2969" y2="382.2969"/><text fill="#000000" font-family="sans-serif" font-size="14" lengthAdjust="spacing" textLength="80.958" x="17" y="373.9951">Menu_Perfil</text></g><g id="Menu_Retos"><rect fill="#F1F1F1" height="50" rx="12.5" ry="12.5" style="stroke:#181818;stroke-width:0.5;" width="105.1279" x="143" y="356"/><line style="stroke:#181818;stroke-width:0.5;" x1="143" x2="248.1279" y1="382.2969" y2="382.2969"/><text fill="#000000" font-family="sans-serif" font-size="14" lengthAdjust="spacing" textLength="85.1279" x="153" y="373.9951">Menu_Retos</text></g><g id="Menu_Rutinas_y_Ejercicios"><rect fill="#F1F1F1" height="50" rx="12.5" ry="12.5" style="stroke:#181818;stroke-width:0.5;" width="206.5869" x="283" y="356"/><line style="stroke:#181818;stroke-width:0.5;" x1="283" x2="489.5869" y1="382.2969" y2="382.2969"/><text fill="#000000" font-family="sans-serif" font-size="14" lengthAdjust="spacing" textLength="186.5869" x="293" y="373.9951">Menu_Rutinas_y_Ejercicios</text></g><g id="Menu_Principal"><rect fill="#F1F1F1" height="50" rx="12.5" ry="12.5" style="stroke:#181818;stroke-width:0.5;" width="125.3418" x="525" y="356"/><line style="stroke:#181818;stroke-width:0.5;" x1="525" x2="650.3418" y1="382.2969" y2="382.2969"/><text fill="#000000" font-family="sans-serif" font-size="14" lengthAdjust="spacing" textLength="105.3418" x="535" y="373.9951">Menu_Principal</text></g><ellipse cx="504.5" cy="16" fill="#222222" rx="10" ry="10" style="stroke:#222222;stroke-width:1;"/><ellipse cx="821.5" cy="270" fill="none" rx="11" ry="11" style="stroke:#222222;stroke-width:1;"/><ellipse cx="821.5" cy="270" fill="#222222" rx="6" ry="6" style="stroke:#222222;stroke-width:1;"/><!--link *start* to Menu_Clasificacion--><g id="link_*start*_Menu_Clasificacion"><path d="M504.5,26.4 C504.5,45.59 504.5,83.82 504.5,111.67 " fill="none" id="*start*-to-Menu_Clasificacion" style="stroke:#181818;stroke-width:1;"/><polygon fill="#181818" points="504.5,117.67,508.5,108.67,504.5,112.67,500.5,108.67,504.5,117.67" style="stroke:#181818;stroke-width:1;"/><text fill="#000000" font-family="sans-serif" font-size="13" lengthAdjust="spacing" textLength="182.2603" x="505.5" y="69.0669">"El profesor solicita entrar a</text><text fill="#000000" font-family="sans-serif" font-size="13" lengthAdjust="spacing" textLength="127.0991" x="533.0806" y="84.1997">Menu Clasificacion"</text></g><!--link Menu_Clasificacion to Ver_Alumnos_Clase--><g id="link_Menu_Clasificacion_Ver_Alumnos_Clase"><path d="M521.78,168.13 C528.18,177.34 535.37,188.03 541.5,198 C550.93,213.33 557.8666,225.7805 565.2566,239.7005 " fill="none" id="Menu_Clasificacion-to-Ver_Alumnos_Clase" style="stroke:#181818;stroke-width:1;"/><polygon fill="#181818" points="568.07,245,567.3828,235.1751,565.7255,240.5838,560.3168,238.9264,568.07,245" style="stroke:#181818;stroke-width:1;"/><text fill="#000000" font-family="sans-serif" font-size="13" lengthAdjust="spacing" textLength="216.7661" x="552.5" y="211.0669">"El profesor solicita ver alumnos"</text></g><!--link Menu_Clasificacion to rombo1--><g id="link_Menu_Clasificacion_rombo1"><path d="M427.83,144.45 C334.41,146.82 184.65,157.1 149.5,198 C110.2,243.73 236.6235,262.5791 274.6335,267.1791 " fill="none" id="Menu_Clasificacion-to-rombo1" style="stroke:#181818;stroke-width:1;"/><polygon fill="#181818" points="280.59,267.9,272.1358,262.8477,275.6262,267.2993,271.1746,270.7897,280.59,267.9" style="stroke:#181818;stroke-width:1;"/><text fill="#000000" font-family="sans-serif" font-size="13" lengthAdjust="spacing" textLength="234.9902" x="150.5" y="211.0669">"El profesor solicita ir a otra opci&#243;n"</text></g><!--link rombo1 to Menu_Clasificacion--><g id="link_rombo1_Menu_Clasificacion"><path d="M297.78,265.2 C314.26,256.56 355.64,234.67 389.5,215 C415.57,199.86 439.3701,185.2229 461.6601,171.2129 " fill="none" id="rombo1-to-Menu_Clasificacion" style="stroke:#181818;stroke-width:1;"/><polygon fill="#181818" points="466.74,168.02,456.9915,169.4227,462.5067,170.6807,461.2487,176.1959,466.74,168.02" style="stroke:#181818;stroke-width:1;"/><text fill="#000000" font-family="sans-serif" font-size="13" lengthAdjust="spacing" textLength="110.4365" x="416.5" y="211.0669">"Volver al men&#250;"</text></g><!--link rombo1 to Menu_Perfil--><g id="link_rombo1_Menu_Perfil"><path d="M282.75,274.63 C255.98,287.15 171.3445,326.7371 113.5345,353.7871 " fill="none" id="rombo1-to-Menu_Perfil" style="stroke:#181818;stroke-width:1;"/><polygon fill="#181818" points="108.1,356.33,117.947,356.1387,112.6288,354.2109,114.5565,348.8927,108.1,356.33" style="stroke:#181818;stroke-width:1;"/></g><!--link rombo1 to Menu_Retos--><g id="link_rombo1_Menu_Retos"><path d="M285.12,277.17 C272.17,292.03 242.6228,325.9374 220.4528,351.3674 " fill="none" id="rombo1-to-Menu_Retos" style="stroke:#181818;stroke-width:1;"/><polygon fill="#181818" points="216.51,355.89,225.4393,351.7346,219.7957,352.1212,219.4092,346.4775,216.51,355.89" style="stroke:#181818;stroke-width:1;"/></g><!--link rombo1 to Menu_Rutinas_y_Ejercicios--><g id="link_rombo1_Menu_Rutinas_y_Ejercicios"><path d="M295.66,276.86 C308.51,291.45 338.5638,325.5778 361.1338,351.1978 " fill="none" id="rombo1-to-Menu_Rutinas_y_Ejercicios" style="stroke:#181818;stroke-width:1;"/><polygon fill="#181818" points="365.1,355.7,362.1522,346.3026,361.7948,351.9482,356.1493,351.5909,365.1,355.7" style="stroke:#181818;stroke-width:1;"/></g><!--link rombo1 to Menu_Principal--><g id="link_rombo1_Menu_Principal"><path d="M298.75,274.03 C330.93,285.84 444.2674,327.4327 519.0874,354.8927 " fill="none" id="rombo1-to-Menu_Principal" style="stroke:#181818;stroke-width:1;"/><polygon fill="#181818" points="524.72,356.96,517.6492,350.104,520.0261,355.2373,514.8929,357.6142,524.72,356.96" style="stroke:#181818;stroke-width:1;"/></g><!--link Menu_Clasificacion to *end*--><g id="link_Menu_Clasificacion_*end*"><path d="M581.08,152.25 C650.4,160.94 746.27,176.37 777.5,198 C799.68,213.36 810.832,238.2295 816.382,253.7695 " fill="none" id="Menu_Clasificacion-to-*end*" style="stroke:#181818;stroke-width:1;"/><polygon fill="#181818" points="818.4,259.42,819.1399,249.599,816.7183,254.7113,811.606,252.2897,818.4,259.42" style="stroke:#181818;stroke-width:1;"/></g><!--SRC=[TP71gi8m44Nt-Oh1vGCNRaKA8Yu5ST6DFaeCKnn9CsMI2k-xtiwjFsPiWrZRRk_adfbxuuCE23jqJR6nsbD9HXjYftmx4AxEl83LoboO36PPqdEKOcsRoh5lVPZq5hH7ASb-AWSCx7j24yXfN_mLsokAeRYoDzyBEKErjaeTVtvXFiz6ReGbpBOMQk4IFGjujX4KDA0BeWNqoRrCq3FDb1eXlHOCCatoRnZXtSk8cmIcygOe5270yLBWsj3ZFvwM7E-ugSblkQjpe8vrEY2-Y_sU3AhDsNP1eKBtk4yN5t_e2G00]--></g></svg>