<svg xmlns="http://www.w3.org/2000/svg" xmlns:xlink="http://www.w3.org/1999/xlink" contentStyleType="text/css" height="558px" preserveAspectRatio="none" style="width:678px;height:558px;background:#FFFFFF;" version="1.1" viewBox="0 0 678 558" width="678px" zoomAndPan="magnify"><defs/><g><g id="Estado1"><rect fill="#F1F1F1" height="50" rx="12.5" ry="12.5" style="stroke:#181818;stroke-width:0.5;" width="50" x="383.5" y="123"/><line style="stroke:#181818;stroke-width:0.5;" x1="383.5" x2="433.5" y1="151.6211" y2="151.6211"/><text fill="#000000" font-family="sans-serif" font-size="14" lengthAdjust="spacing" textLength="3.8896" x="406.5552" y="143.1074">&#160;</text></g><g id="Estado2"><rect fill="#F1F1F1" height="50" rx="12.5" ry="12.5" style="stroke:#181818;stroke-width:0.5;" width="50" x="383.5" y="270"/><line style="stroke:#181818;stroke-width:0.5;" x1="383.5" x2="433.5" y1="298.6211" y2="298.6211"/><text fill="#000000" font-family="sans-serif" font-size="14" lengthAdjust="spacing" textLength="3.8896" x="406.5552" y="290.1074">&#160;</text></g><g id="elem_rombo"><polygon fill="#F1F1F1" points="329.5,417,341.5,429,329.5,441,317.5,429,329.5,417" style="stroke:#181818;stroke-width:0.5;"/></g><ellipse cx="408.5" cy="16" fill="#222222" rx="10" ry="10" style="stroke:#222222;stroke-width:1.0;"/><ellipse cx="487.5" cy="429" fill="none" rx="11" ry="11" style="stroke:#222222;stroke-width:1.0;"/><ellipse cx="487.5" cy="429" fill="#222222" rx="6" ry="6" style="stroke:#222222;stroke-width:1.0;"/><g id="Menu_Retos"><rect fill="#F1F1F1" height="50" rx="12.5" ry="12.5" style="stroke:#181818;stroke-width:0.5;" width="99.3789" x="7" y="502"/><line style="stroke:#181818;stroke-width:0.5;" x1="7" x2="106.3789" y1="530.6211" y2="530.6211"/><text fill="#000000" font-family="sans-serif" font-size="14" lengthAdjust="spacing" textLength="79.3789" x="17" y="522.1074">Menu_Retos</text></g><g id="Menu_Rutinas_Y_Ejercicios"><rect fill="#F1F1F1" height="50" rx="12.5" ry="12.5" style="stroke:#181818;stroke-width:0.5;" width="195.0889" x="141" y="502"/><line style="stroke:#181818;stroke-width:0.5;" x1="141" x2="336.0889" y1="530.6211" y2="530.6211"/><text fill="#000000" font-family="sans-serif" font-size="14" lengthAdjust="spacing" textLength="175.0889" x="151" y="522.1074">Menu_Rutinas_Y_Ejercicios</text></g><g id="Clasificacion"><rect fill="#F1F1F1" height="50" rx="12.5" ry="12.5" style="stroke:#181818;stroke-width:0.5;" width="98.5859" x="371" y="502"/><line style="stroke:#181818;stroke-width:0.5;" x1="371" x2="469.5859" y1="530.6211" y2="530.6211"/><text fill="#000000" font-family="sans-serif" font-size="14" lengthAdjust="spacing" textLength="78.5859" x="381" y="522.1074">Clasificacion</text></g><g id="Perfil"><rect fill="#F1F1F1" height="50" rx="12.5" ry="12.5" style="stroke:#181818;stroke-width:0.5;" width="51.8965" x="505.5" y="502"/><line style="stroke:#181818;stroke-width:0.5;" x1="505.5" x2="557.3965" y1="530.6211" y2="530.6211"/><text fill="#000000" font-family="sans-serif" font-size="14" lengthAdjust="spacing" textLength="31.8965" x="515.5" y="522.1074">Perfil</text></g><!--link *start* to Estado1--><g id="link_*start*_Estado1"><path d="M408.5,26.35 C408.5,46.32 408.5,87.68 408.5,116.77 " fill="none" id="*start*-to-Estado1" style="stroke:#181818;stroke-width:1.0;"/><polygon fill="#181818" points="408.5,122.77,412.5,113.77,408.5,117.77,404.5,113.77,408.5,122.77" style="stroke:#181818;stroke-width:1.0;"/><path d="M413.5,61 L413.5,88 L671.5,88 L671.5,71 L661.5,61 L413.5,61 " fill="#FEFFDD" style="stroke:#181818;stroke-width:0.5;"/><path d="M661.5,61 L661.5,71 L671.5,71 L661.5,61 " fill="#FEFFDD" style="stroke:#181818;stroke-width:0.5;"/><text fill="#000000" font-family="sans-serif" font-size="13" lengthAdjust="spacing" textLength="237.0088" x="419.5" y="80.0283">El Profesor solicita ir a la p&#225;gina de inicio</text></g><!--link Estado1 to Estado2--><g id="link_Estado1_Estado2"><path d="M408.5,173.27 C408.5,200.04 408.5,236.85 408.5,263.65 " fill="none" id="Estado1-to-Estado2" style="stroke:#181818;stroke-width:1.0;"/><polygon fill="#181818" points="408.5,269.65,412.5,260.65,408.5,264.65,404.5,260.65,408.5,269.65" style="stroke:#181818;stroke-width:1.0;"/><path d="M413.5,208 L413.5,235 L658.5,235 L658.5,218 L648.5,208 L413.5,208 " fill="#FEFFDD" style="stroke:#181818;stroke-width:0.5;"/><path d="M648.5,208 L648.5,218 L658.5,218 L648.5,208 " fill="#FEFFDD" style="stroke:#181818;stroke-width:0.5;"/><text fill="#000000" font-family="sans-serif" font-size="13" lengthAdjust="spacing" textLength="224.0024" x="419.5" y="227.0283">El Sistema muestra la p&#225;gina de inicio.</text></g><!--link Estado2 to *end*--><g id="link_Estado2_*end*"><path d="M433.66,314.64 C444.85,324.11 457.32,336.47 465.5,350 C478.82,372.04 483.5515,396.482 485.6115,412.022 " fill="none" id="Estado2-to-*end*" style="stroke:#181818;stroke-width:1.0;"/><polygon fill="#181818" points="486.4,417.97,489.1826,408.5224,485.7429,413.0134,481.252,409.5737,486.4,417.97" style="stroke:#181818;stroke-width:1.0;"/></g><!--link Estado2 to rombo--><g id="link_Estado2_rombo"><path d="M383.47,304.04 C362.99,312.1 335.38,326.7 322.5,350 C309.87,372.85 317.8917,399.7291 323.8117,414.5291 " fill="none" id="Estado2-to-rombo" style="stroke:#181818;stroke-width:1.0;"/><polygon fill="#181818" points="326.04,420.1,326.4114,410.2581,324.183,415.4576,318.9836,413.2293,326.04,420.1" style="stroke:#181818;stroke-width:1.0;"/><path d="M327.5,355 L327.5,382 L452.5,382 L452.5,365 L442.5,355 L327.5,355 " fill="#FEFFDD" style="stroke:#181818;stroke-width:0.5;"/><path d="M442.5,355 L442.5,365 L452.5,365 L442.5,355 " fill="#FEFFDD" style="stroke:#181818;stroke-width:0.5;"/><text fill="#000000" font-family="sans-serif" font-size="13" lengthAdjust="spacing" textLength="104.7808" x="333.5" y="374.0283">El profesor decide</text></g><!--link rombo to Menu_Retos--><g id="link_rombo_Menu_Retos"><path d="M321.25,432.86 C293.4,442.51 200.29,474.83 123.5,502 C117.91,503.98 117.7131,504.0494 111.8931,506.1194 " fill="none" id="rombo-to-Menu_Retos" style="stroke:#181818;stroke-width:1.0;"/><polygon fill="#181818" points="106.24,508.13,116.06,508.8828,110.9509,506.4545,113.3792,501.3453,106.24,508.13" style="stroke:#181818;stroke-width:1.0;"/></g><!--link rombo to Menu_Rutinas_Y_Ejercicios--><g id="link_rombo_Menu_Rutinas_Y_Ejercicios"><path d="M324.08,435.72 C312.07,448.39 286.728,475.1258 265.738,497.2658 " fill="none" id="rombo-to-Menu_Rutinas_Y_Ejercicios" style="stroke:#181818;stroke-width:1.0;"/><polygon fill="#181818" points="261.61,501.62,270.7049,497.8407,265.05,497.9915,264.8993,492.3366,261.61,501.62" style="stroke:#181818;stroke-width:1.0;"/></g><!--link rombo to Clasificacion--><g id="link_rombo_Clasificacion"><path d="M334.92,435.72 C346.93,448.39 372.272,475.1258 393.262,497.2658 " fill="none" id="rombo-to-Clasificacion" style="stroke:#181818;stroke-width:1.0;"/><polygon fill="#181818" points="397.39,501.62,394.1007,492.3366,393.95,497.9915,388.2951,497.8407,397.39,501.62" style="stroke:#181818;stroke-width:1.0;"/></g><!--link rombo to Perfil--><g id="link_rombo_Perfil"><path d="M337.49,433.4 C360.83,443.38 430.87,473.7 487.5,502 C493.26,504.88 494.0922,505.2461 499.8622,508.3661 " fill="none" id="rombo-to-Perfil" style="stroke:#181818;stroke-width:1.0;"/><polygon fill="#181818" points="505.14,511.22,499.1258,503.4206,500.7418,508.8418,495.3207,510.4577,505.14,511.22" style="stroke:#181818;stroke-width:1.0;"/></g><!--SRC=[VP1DQWCn38NtFeN8if10Pnrc4sOP2EsgX30ejYPHwx62vJbGpzABrUFyC24XyihFqllqh0aJmImVL6WqePDteuzYTH6Zz7k1vT8UXItLjTc-xM0-hs-pa2j8xfG0diDF4SPgF6oYTAGIGSMpvOJ04H0ymkdlzy01mH5mo4zInYYuucKkvXDGzHBqoPgeH-W7qXIV4nRF45L1v4ntznBQtC4ov7HDuyYo8tEpEl_HEBYcCBGVb4GVn27bRRJzQfjlYdPSQDgpygZSiSMiXuc-eTYn_mS0]--></g></svg>