<svg xmlns="http://www.w3.org/2000/svg" xmlns:xlink="http://www.w3.org/1999/xlink" contentStyleType="text/css" height="1225px" preserveAspectRatio="none" style="width:981px;height:1225px;background:#FFFFFF;" version="1.1" viewBox="0 0 981 1225" width="981px" zoomAndPan="magnify"><defs/><g><g id="elem_rombo"><polygon fill="#F1F1F1" points="258,643,270,655,258,667,246,655,258,643" style="stroke:#181818;stroke-width:0.5;"/></g><ellipse cx="465" cy="16" fill="#222222" rx="10" ry="10" style="stroke:#222222;stroke-width:1;"/><g id="UsuarioNoRegistrado"><rect fill="#F1F1F1" height="50" rx="12.5" ry="12.5" style="stroke:#181818;stroke-width:0.5;" width="167.9297" x="381" y="87"/><line style="stroke:#181818;stroke-width:0.5;" x1="381" x2="548.9297" y1="113.2969" y2="113.2969"/><text fill="#000000" font-family="sans-serif" font-size="14" lengthAdjust="spacing" textLength="147.9297" x="391" y="104.9951">UsuarioNoRegistrado</text></g><g id="Registrandose"><rect fill="#F1F1F1" height="50" rx="12.5" ry="12.5" style="stroke:#181818;stroke-width:0.5;" width="120.4678" x="260" y="232"/><line style="stroke:#181818;stroke-width:0.5;" x1="260" x2="380.4678" y1="258.2969" y2="258.2969"/><text fill="#000000" font-family="sans-serif" font-size="14" lengthAdjust="spacing" textLength="100.4678" x="270" y="249.9951">Registrandose</text></g><g id="ProcesoDeInicioDeSesi&#243;n"><rect fill="#F1F1F1" height="50" rx="12.5" ry="12.5" style="stroke:#181818;stroke-width:0.5;" width="196.8867" x="513.5" y="232"/><line style="stroke:#181818;stroke-width:0.5;" x1="513.5" x2="710.3867" y1="258.2969" y2="258.2969"/><text fill="#000000" font-family="sans-serif" font-size="14" lengthAdjust="spacing" textLength="176.8867" x="523.5" y="249.9951">ProcesoDeInicioDeSesi&#243;n</text></g><g id="RellenandoLogin"><rect fill="#F1F1F1" height="50" rx="12.5" ry="12.5" style="stroke:#181818;stroke-width:0.5;" width="136.5254" x="216.5" y="483"/><line style="stroke:#181818;stroke-width:0.5;" x1="216.5" x2="353.0254" y1="509.2969" y2="509.2969"/><text fill="#000000" font-family="sans-serif" font-size="14" lengthAdjust="spacing" textLength="116.5254" x="226.5" y="500.9951">RellenandoLogin</text></g><g id="EsProfesor"><rect fill="#F1F1F1" height="50" rx="12.5" ry="12.5" style="stroke:#181818;stroke-width:0.5;" width="94.0605" x="7" y="762"/><line style="stroke:#181818;stroke-width:0.5;" x1="7" x2="101.0605" y1="788.2969" y2="788.2969"/><text fill="#000000" font-family="sans-serif" font-size="14" lengthAdjust="spacing" textLength="74.0605" x="17" y="779.9951">EsProfesor</text></g><g id="EsAlumno"><rect fill="#F1F1F1" height="50" rx="12.5" ry="12.5" style="stroke:#181818;stroke-width:0.5;" width="89.5557" x="248" y="762"/><line style="stroke:#181818;stroke-width:0.5;" x1="248" x2="337.5557" y1="788.2969" y2="788.2969"/><text fill="#000000" font-family="sans-serif" font-size="14" lengthAdjust="spacing" textLength="69.5557" x="258" y="779.9951">EsAlumno</text></g><g id="RolEstablecido"><rect fill="#F1F1F1" height="50" rx="12.5" ry="12.5" style="stroke:#181818;stroke-width:0.5;" width="122.8193" x="251.5" y="907"/><line style="stroke:#181818;stroke-width:0.5;" x1="251.5" x2="374.3193" y1="933.2969" y2="933.2969"/><text fill="#000000" font-family="sans-serif" font-size="14" lengthAdjust="spacing" textLength="102.8193" x="261.5" y="924.9951">RolEstablecido</text></g><g id="IniciandoSesi&#243;n"><rect fill="#F1F1F1" height="50" rx="12.5" ry="12.5" style="stroke:#181818;stroke-width:0.5;" width="129.5049" x="404" y="1052"/><line style="stroke:#181818;stroke-width:0.5;" x1="404" x2="533.5049" y1="1078.2969" y2="1078.2969"/><text fill="#000000" font-family="sans-serif" font-size="14" lengthAdjust="spacing" textLength="109.5049" x="414" y="1069.9951">IniciandoSesi&#243;n</text></g><g id="VerificarUsuario"><rect fill="#F1F1F1" height="50" rx="12.5" ry="12.5" style="stroke:#181818;stroke-width:0.5;" width="131.8906" x="560" y="563"/><line style="stroke:#181818;stroke-width:0.5;" x1="560" x2="691.8906" y1="589.2969" y2="589.2969"/><text fill="#000000" font-family="sans-serif" font-size="14" lengthAdjust="spacing" textLength="111.8906" x="570" y="580.9951">VerificarUsuario</text></g><ellipse cx="469" cy="1208" fill="none" rx="11" ry="11" style="stroke:#222222;stroke-width:1;"/><ellipse cx="469" cy="1208" fill="#222222" rx="6" ry="6" style="stroke:#222222;stroke-width:1;"/><!--link *start* to UsuarioNoRegistrado--><g id="link_*start*_UsuarioNoRegistrado"><path d="M465,26.01 C465,39.89 465,60.97 465,80.84 " fill="none" id="*start*-to-UsuarioNoRegistrado" style="stroke:#181818;stroke-width:1;"/><polygon fill="#181818" points="465,86.84,469,77.84,465,81.84,461,77.84,465,86.84" style="stroke:#181818;stroke-width:1;"/></g><!--link UsuarioNoRegistrado to Registrandose--><g id="link_UsuarioNoRegistrado_Registrandose"><path d="M380.99,132.87 C363.12,140.76 346.04,151.74 334,167 C319.57,185.3 317.0238,206.4523 317.5638,225.9423 " fill="none" id="UsuarioNoRegistrado-to-Registrandose" style="stroke:#181818;stroke-width:1;"/><polygon fill="#181818" points="317.73,231.94,321.4792,222.8327,317.5915,226.9419,313.4823,223.0542,317.73,231.94" style="stroke:#181818;stroke-width:1;"/><path d="M339,172 L339,197 L558,197 L558,182 L548,172 L339,172 " fill="#FEFFDD" style="stroke:#181818;stroke-width:0.5;"/><path d="M548,172 L548,182 L558,182 L548,172 " fill="#FEFFDD" style="stroke:#181818;stroke-width:0.5;"/><text fill="#000000" font-family="sans-serif" font-size="13" lengthAdjust="spacing" textLength="198.5356" x="345" y="189.0669">Usuario sin cuenta se registra.</text></g><!--link UsuarioNoRegistrado to ProcesoDeInicioDeSesi?n--><g id="link_UsuarioNoRegistrado_ProcesoDeInicioDeSesi&#243;n"><path d="M525.3,137.11 C540.18,145.04 555.21,154.99 567,167 C584.95,185.29 595.113,206.5473 602.243,225.9773 " fill="none" id="UsuarioNoRegistrado-to-ProcesoDeInicioDeSesi&#243;n" style="stroke:#181818;stroke-width:1;"/><polygon fill="#181818" points="604.31,231.61,604.9647,221.7829,602.5875,226.9161,597.4544,224.5389,604.31,231.61" style="stroke:#181818;stroke-width:1;"/><path d="M595,172 L595,197 L819,197 L819,182 L809,172 L595,172 " fill="#FEFFDD" style="stroke:#181818;stroke-width:0.5;"/><path d="M809,172 L809,182 L819,182 L809,172 " fill="#FEFFDD" style="stroke:#181818;stroke-width:0.5;"/><text fill="#000000" font-family="sans-serif" font-size="13" lengthAdjust="spacing" textLength="203.252" x="601" y="189.0669">Usuario con cuenta se registra.</text></g><!--link Registrandose to RellenandoLogin--><g id="link_Registrandose_RellenandoLogin"><path d="M310.61,282.13 C307.38,291.35 304.07,302.03 302,312 C289.45,372.56 286.2889,439.5716 285.4289,476.7216 " fill="none" id="Registrandose-to-RellenandoLogin" style="stroke:#181818;stroke-width:1;"/><polygon fill="#181818" points="285.29,482.72,289.4972,473.815,285.4057,477.7213,281.4994,473.6298,285.29,482.72" style="stroke:#181818;stroke-width:1;"/><path d="M307,317 L307,448 L571,448 L571,327 L561,317 L307,317 " fill="#FEFFDD" style="stroke:#181818;stroke-width:0.5;"/><path d="M561,317 L561,327 L571,327 L561,317 " fill="#FEFFDD" style="stroke:#181818;stroke-width:0.5;"/><text fill="#000000" font-family="sans-serif" font-size="13" lengthAdjust="spacing" textLength="243.2422" x="313" y="334.0669">El usuario ingresa los datos de Login:</text><text fill="#000000" font-family="sans-serif" font-size="13" lengthAdjust="spacing" textLength="60.7598" x="313" y="349.1997">- Nombre</text><text fill="#000000" font-family="sans-serif" font-size="13" lengthAdjust="spacing" textLength="61.0073" x="313" y="364.3325">- Apellido</text><text fill="#000000" font-family="sans-serif" font-size="13" lengthAdjust="spacing" textLength="128.9463" x="313" y="379.4653">- Correo Electr&#243;nico</text><text fill="#000000" font-family="sans-serif" font-size="13" lengthAdjust="spacing" textLength="83.478" x="313" y="394.5981">- Contrase&#241;a</text><text fill="#000000" font-family="sans-serif" font-size="13" lengthAdjust="spacing" textLength="39.3872" x="313" y="409.731">- Peso</text><text fill="#000000" font-family="sans-serif" font-size="13" lengthAdjust="spacing" textLength="47.9756" x="313" y="424.8638">- Altura</text><text fill="#000000" font-family="sans-serif" font-size="13" lengthAdjust="spacing" textLength="63.2734" x="313" y="439.9966">- Objetivo</text></g><!--link RellenandoLogin to rombo--><g id="link_RellenandoLogin_rombo"><path d="M262.55,533.26 C255.89,541.99 249.45,552.33 246,563 C236.39,592.72 246.3525,624.6791 252.5725,640.6491 " fill="none" id="RellenandoLogin-to-rombo" style="stroke:#181818;stroke-width:1;"/><polygon fill="#181818" points="254.75,646.24,255.2109,636.4019,252.9354,641.5809,247.7564,639.3053,254.75,646.24" style="stroke:#181818;stroke-width:1;"/><path d="M251,575.5 L251,600.5 L538,600.5 L538,585.5 L528,575.5 L251,575.5 " fill="#FEFFDD" style="stroke:#181818;stroke-width:0.5;"/><path d="M528,575.5 L528,585.5 L538,585.5 L528,575.5 " fill="#FEFFDD" style="stroke:#181818;stroke-width:0.5;"/><text fill="#000000" font-family="sans-serif" font-size="13" lengthAdjust="spacing" textLength="266.0874" x="257" y="592.5669">El usuario usa correo @educantabria.es?</text></g><!--link rombo to EsProfesor--><g id="link_rombo_EsProfesor"><path d="M246.77,655.97 C218.99,656.46 146.04,661.3 101,697 C80.32,713.39 69.6244,735.7304 62.7344,755.9604 " fill="none" id="rombo-to-EsProfesor" style="stroke:#181818;stroke-width:1;"/><polygon fill="#181818" points="60.8,761.64,67.488,754.4102,62.412,756.907,59.9152,751.831,60.8,761.64" style="stroke:#181818;stroke-width:1;"/><path d="M106,702 L106,727 L257,727 L257,712 L247,702 L106,702 " fill="#FEFFDD" style="stroke:#181818;stroke-width:0.5;"/><path d="M247,702 L247,712 L257,712 L247,702 " fill="#FEFFDD" style="stroke:#181818;stroke-width:0.5;"/><text fill="#000000" font-family="sans-serif" font-size="13" lengthAdjust="spacing" textLength="130.9204" x="112" y="719.0669">El usuario ingresa s&#237;</text></g><!--link rombo to EsAlumno--><g id="link_rombo_EsAlumno"><path d="M260.41,664.94 C265.72,684.67 277.0507,726.7462 284.9307,756.0262 " fill="none" id="rombo-to-EsAlumno" style="stroke:#181818;stroke-width:1;"/><polygon fill="#181818" points="286.49,761.82,288.0137,752.0897,285.1906,756.9918,280.2885,754.1687,286.49,761.82" style="stroke:#181818;stroke-width:1;"/><path d="M283,702 L283,727 L440,727 L440,712 L430,702 L283,702 " fill="#FEFFDD" style="stroke:#181818;stroke-width:0.5;"/><path d="M430,702 L430,712 L440,712 L430,702 " fill="#FEFFDD" style="stroke:#181818;stroke-width:0.5;"/><text fill="#000000" font-family="sans-serif" font-size="13" lengthAdjust="spacing" textLength="136.7285" x="289" y="719.0669">El usuario ingresa no</text></g><!--link EsAlumno to RolEstablecido--><g id="link_EsAlumno_RolEstablecido"><path d="M296.39,812.26 C300.07,838.55 305.0798,874.3377 308.7598,900.6777 " fill="none" id="EsAlumno-to-RolEstablecido" style="stroke:#181818;stroke-width:1;"/><polygon fill="#181818" points="309.59,906.62,312.3062,897.1531,308.8982,901.6681,304.3832,898.26,309.59,906.62" style="stroke:#181818;stroke-width:1;"/><path d="M310,847 L310,872 L544,872 L544,857 L534,847 L310,847 " fill="#FEFFDD" style="stroke:#181818;stroke-width:0.5;"/><path d="M534,847 L534,857 L544,857 L534,847 " fill="#FEFFDD" style="stroke:#181818;stroke-width:0.5;"/><text fill="#000000" font-family="sans-serif" font-size="13" lengthAdjust="spacing" textLength="213.0718" x="316" y="864.0669">El sistema asigna rol de Alumno.</text></g><!--link EsProfesor to RolEstablecido--><g id="link_EsProfesor_RolEstablecido"><path d="M42.52,812.25 C35.11,831.87 29.32,859.08 44,877 C69.7,908.37 174.2081,921.4341 245.3381,926.9741 " fill="none" id="EsProfesor-to-RolEstablecido" style="stroke:#181818;stroke-width:1;"/><polygon fill="#181818" points="251.32,927.44,242.6578,922.7532,246.3351,927.0517,242.0366,930.7291,251.32,927.44" style="stroke:#181818;stroke-width:1;"/><path d="M49,847 L49,872 L287,872 L287,857 L277,847 L49,847 " fill="#FEFFDD" style="stroke:#181818;stroke-width:0.5;"/><path d="M277,847 L277,857 L287,857 L277,847 " fill="#FEFFDD" style="stroke:#181818;stroke-width:0.5;"/><text fill="#000000" font-family="sans-serif" font-size="13" lengthAdjust="spacing" textLength="217.2549" x="55" y="864.0669">El sistema asigna rol de Profesor.</text></g><!--link RolEstablecido to IniciandoSesi?n--><g id="link_RolEstablecido_IniciandoSesi&#243;n"><path d="M304.73,957.22 C299.76,976.56 296.67,1003.4 310,1022 C331.31,1051.74 364.0349,1064.2373 397.8749,1070.3273 " fill="none" id="RolEstablecido-to-IniciandoSesi&#243;n" style="stroke:#181818;stroke-width:1;"/><polygon fill="#181818" points="403.78,1071.39,395.6308,1065.8592,398.8591,1070.5044,394.2138,1073.7327,403.78,1071.39" style="stroke:#181818;stroke-width:1;"/><path d="M315,992 L315,1017 L595,1017 L595,1002 L585,992 L315,992 " fill="#FEFFDD" style="stroke:#181818;stroke-width:0.5;"/><path d="M585,992 L585,1002 L595,1002 L585,992 " fill="#FEFFDD" style="stroke:#181818;stroke-width:0.5;"/><text fill="#000000" font-family="sans-serif" font-size="13" lengthAdjust="spacing" textLength="259.854" x="321" y="1009.0669">El usuario cepta condiciones y pol&#237;ticas.</text></g><!--link ProcesoDeInicioDeSesi?n to VerificarUsuario--><g id="link_ProcesoDeInicioDeSesi&#243;n_VerificarUsuario"><path d="M613.03,282.19 C615.62,343.03 622.125,495.8954 624.715,556.7754 " fill="none" id="ProcesoDeInicioDeSesi&#243;n-to-VerificarUsuario" style="stroke:#181818;stroke-width:1;"/><polygon fill="#181818" points="624.97,562.77,628.5838,553.6081,624.7575,557.7745,620.5911,553.9482,624.97,562.77" style="stroke:#181818;stroke-width:1;"/><path d="M625,370 L625,395 L925,395 L925,380 L915,370 L625,370 " fill="#FEFFDD" style="stroke:#181818;stroke-width:0.5;"/><path d="M915,370 L915,380 L925,380 L915,370 " fill="#FEFFDD" style="stroke:#181818;stroke-width:0.5;"/><text fill="#000000" font-family="sans-serif" font-size="13" lengthAdjust="spacing" textLength="279.1509" x="631" y="387.0669">El usuario rellena con correo y contrase&#241;a.</text></g><!--link VerificarUsuario to IniciandoSesi?n--><g id="link_VerificarUsuario_IniciandoSesi&#243;n"><path d="M626,613.33 C626,638.43 626,678.7 626,713.5 C626,713.5 626,713.5 626,933 C626,973.75 630.75,991.27 604,1022 C586.1,1042.56 564.9987,1053.5744 539.9587,1061.5244 " fill="none" id="VerificarUsuario-to-IniciandoSesi&#243;n" style="stroke:#181818;stroke-width:1;"/><polygon fill="#181818" points="534.24,1063.34,544.0285,1064.429,539.0056,1061.827,541.6076,1056.8041,534.24,1063.34" style="stroke:#181818;stroke-width:1;"/><path d="M631,774.5 L631,799.5 L974,799.5 L974,784.5 L964,774.5 L631,774.5 " fill="#FEFFDD" style="stroke:#181818;stroke-width:0.5;"/><path d="M964,774.5 L964,784.5 L974,784.5 L964,774.5 " fill="#FEFFDD" style="stroke:#181818;stroke-width:0.5;"/><text fill="#000000" font-family="sans-serif" font-size="13" lengthAdjust="spacing" textLength="322.5054" x="637" y="791.5669">El sistema verifica correo y contrase&#241;a correctos.</text></g><!--link IniciandoSesi?n to *end*--><g id="link_IniciandoSesi&#243;n_*end*"><path d="M469,1102.26 C469,1130.73 469,1170.6 469,1190.84 " fill="none" id="IniciandoSesi&#243;n-to-*end*" style="stroke:#181818;stroke-width:1;"/><polygon fill="#181818" points="469,1196.84,473,1187.84,469,1191.84,465,1187.84,469,1196.84" style="stroke:#181818;stroke-width:1;"/><path d="M474,1137 L474,1162 L777,1162 L777,1147 L767,1137 L474,1137 " fill="#FEFFDD" style="stroke:#181818;stroke-width:0.5;"/><path d="M767,1137 L767,1147 L777,1147 L767,1137 " fill="#FEFFDD" style="stroke:#181818;stroke-width:0.5;"/><text fill="#000000" font-family="sans-serif" font-size="13" lengthAdjust="spacing" textLength="282.6929" x="480" y="1154.0669">El sistema verifica inicio de Sesi&#243;n correcto</text></g><!--SRC=[fPFHRbCn38RlznI-djG-09eA4_G22Oq913VJBj8ShtXBxIhEcRI7sWNY4VfYECa9QtjALuHKjN8Q_vz_ExuvluN9P0RVj7UHv4g-u98qHTV96HmwBRTRo9qesZsMX20CWVZ1mZ-9eCJWU-JaG17Ya3QrEyXTIJixWhcEub7b0tvaycI_Nr5fyukF4RsSGjmnC5WA0JaVV98b7KJC0_G3XNWPKHq4KUXSojy89V5DkJg1Araj8Wx1vThKgRGqX-ybHXJJGv-Y-I7_yWzRLOgRdsuukRO6D9MG-jZEFo_kCT6ZR1i3i8ycPtL7mmjSNFWVGXvdi-9vns5nNQwzuhKtdxvM_0wxtZlhxIAIcwA-7T4hDqlFrSPtPzN74tkfc-UZSfUXNx6SACQoD_6MNuSjOMvzMjW0wbGEIQgz45mvS4fBTbPAo4EkAjDHfIzs_vVGTCQCNT72APkHPtfaDRRQut6TyZIvoml5gF04QmcRvqJUwPZujmqixEyOwSxouh1xhx1ZVNzrG-jxUif1U_1Z-ZxWNnottZuE6WUHzT3R_exX-vm2lpc_FPL7fMDve4sWmRPGlm40]--></g></svg>