<svg xmlns="http://www.w3.org/2000/svg" xmlns:xlink="http://www.w3.org/1999/xlink" contentStyleType="text/css" height="1224px" preserveAspectRatio="none" style="width:972px;height:1224px;background:#FFFFFF;" version="1.1" viewBox="0 0 972 1224" width="972px" zoomAndPan="magnify"><defs/><g><g id="elem_rombo"><polygon fill="#F1F1F1" points="282,612,294,624,282,636,270,624,282,612" style="stroke:#181818;stroke-width:0.5;"/></g><ellipse cx="466" cy="16" fill="#222222" rx="10" ry="10" style="stroke:#222222;stroke-width:1;"/><g id="UsuarioNoRegistrado"><rect fill="#F1F1F1" height="50" rx="12.5" ry="12.5" style="stroke:#181818;stroke-width:0.5;" width="167.9297" x="382" y="87"/><line style="stroke:#181818;stroke-width:0.5;" x1="382" x2="549.9297" y1="113.2969" y2="113.2969"/><text fill="#000000" font-family="sans-serif" font-size="14" lengthAdjust="spacing" textLength="147.9297" x="392" y="104.9951">UsuarioNoRegistrado</text></g><g id="Registrandose"><rect fill="#F1F1F1" height="50" rx="12.5" ry="12.5" style="stroke:#181818;stroke-width:0.5;" width="120.4678" x="261" y="232"/><line style="stroke:#181818;stroke-width:0.5;" x1="261" x2="381.4678" y1="258.2969" y2="258.2969"/><text fill="#000000" font-family="sans-serif" font-size="14" lengthAdjust="spacing" textLength="100.4678" x="271" y="249.9951">Registrandose</text></g><g id="ProcesoDeInicioDeSesi&#243;n"><rect fill="#F1F1F1" height="50" rx="12.5" ry="12.5" style="stroke:#181818;stroke-width:0.5;" width="196.8867" x="512.5" y="232"/><line style="stroke:#181818;stroke-width:0.5;" x1="512.5" x2="709.3867" y1="258.2969" y2="258.2969"/><text fill="#000000" font-family="sans-serif" font-size="14" lengthAdjust="spacing" textLength="176.8867" x="522.5" y="249.9951">ProcesoDeInicioDeSesi&#243;n</text></g><g id="RellenandoLogin"><rect fill="#F1F1F1" height="50" rx="12.5" ry="12.5" style="stroke:#181818;stroke-width:0.5;" width="136.5254" x="224.5" y="467"/><line style="stroke:#181818;stroke-width:0.5;" x1="224.5" x2="361.0254" y1="493.2969" y2="493.2969"/><text fill="#000000" font-family="sans-serif" font-size="14" lengthAdjust="spacing" textLength="116.5254" x="234.5" y="484.9951">RellenandoLogin</text></g><g id="EsProfesor"><rect fill="#F1F1F1" height="50" rx="12.5" ry="12.5" style="stroke:#181818;stroke-width:0.5;" width="94.0605" x="7" y="746"/><line style="stroke:#181818;stroke-width:0.5;" x1="7" x2="101.0605" y1="772.2969" y2="772.2969"/><text fill="#000000" font-family="sans-serif" font-size="14" lengthAdjust="spacing" textLength="74.0605" x="17" y="763.9951">EsProfesor</text></g><g id="EsAlumno"><rect fill="#F1F1F1" height="50" rx="12.5" ry="12.5" style="stroke:#181818;stroke-width:0.5;" width="89.5557" x="255" y="746"/><line style="stroke:#181818;stroke-width:0.5;" x1="255" x2="344.5557" y1="772.2969" y2="772.2969"/><text fill="#000000" font-family="sans-serif" font-size="14" lengthAdjust="spacing" textLength="69.5557" x="265" y="763.9951">EsAlumno</text></g><g id="RolEstablecido"><rect fill="#F1F1F1" height="50" rx="12.5" ry="12.5" style="stroke:#181818;stroke-width:0.5;" width="122.8193" x="189.5" y="891"/><line style="stroke:#181818;stroke-width:0.5;" x1="189.5" x2="312.3193" y1="917.2969" y2="917.2969"/><text fill="#000000" font-family="sans-serif" font-size="14" lengthAdjust="spacing" textLength="102.8193" x="199.5" y="908.9951">RolEstablecido</text></g><g id="UsuarioRegistrado"><rect fill="#F1F1F1" height="50" rx="12.5" ry="12.5" style="stroke:#181818;stroke-width:0.5;" width="148.8916" x="197.5" y="1036"/><line style="stroke:#181818;stroke-width:0.5;" x1="197.5" x2="346.3916" y1="1062.2969" y2="1062.2969"/><text fill="#000000" font-family="sans-serif" font-size="14" lengthAdjust="spacing" textLength="128.8916" x="207.5" y="1053.9951">UsuarioRegistrado</text></g><g id="VerificarUsuario"><rect fill="#F1F1F1" height="50" rx="12.5" ry="12.5" style="stroke:#181818;stroke-width:0.5;" width="131.8906" x="551" y="467"/><line style="stroke:#181818;stroke-width:0.5;" x1="551" x2="682.8906" y1="493.2969" y2="493.2969"/><text fill="#000000" font-family="sans-serif" font-size="14" lengthAdjust="spacing" textLength="111.8906" x="561" y="484.9951">VerificarUsuario</text></g><g id="IniciandoSesi&#243;n"><rect fill="#F1F1F1" height="50" rx="12.5" ry="12.5" style="stroke:#181818;stroke-width:0.5;" width="129.5049" x="554" y="666"/><line style="stroke:#181818;stroke-width:0.5;" x1="554" x2="683.5049" y1="692.2969" y2="692.2969"/><text fill="#000000" font-family="sans-serif" font-size="14" lengthAdjust="spacing" textLength="109.5049" x="564" y="683.9951">IniciandoSesi&#243;n</text></g><ellipse cx="455" cy="1207" fill="none" rx="11" ry="11" style="stroke:#222222;stroke-width:1;"/><ellipse cx="455" cy="1207" fill="#222222" rx="6" ry="6" style="stroke:#222222;stroke-width:1;"/><!--link *start* to UsuarioNoRegistrado--><g id="link_*start*_UsuarioNoRegistrado"><path d="M466,26.01 C466,39.89 466,60.97 466,80.84 " fill="none" id="*start*-to-UsuarioNoRegistrado" style="stroke:#181818;stroke-width:1;"/><polygon fill="#181818" points="466,86.84,470,77.84,466,81.84,462,77.84,466,86.84" style="stroke:#181818;stroke-width:1;"/></g><!--link UsuarioNoRegistrado to Registrandose--><g id="link_UsuarioNoRegistrado_Registrandose"><path d="M381.99,132.87 C364.12,140.76 347.04,151.74 335,167 C320.57,185.3 318.0238,206.4523 318.5638,225.9423 " fill="none" id="UsuarioNoRegistrado-to-Registrandose" style="stroke:#181818;stroke-width:1;"/><polygon fill="#181818" points="318.73,231.94,322.4792,222.8327,318.5915,226.9419,314.4823,223.0542,318.73,231.94" style="stroke:#181818;stroke-width:1;"/><path d="M340,172 L340,197 L559,197 L559,182 L549,172 L340,172 " fill="#FEFFDD" style="stroke:#181818;stroke-width:0.5;"/><path d="M549,172 L549,182 L559,182 L549,172 " fill="#FEFFDD" style="stroke:#181818;stroke-width:0.5;"/><text fill="#000000" font-family="sans-serif" font-size="13" lengthAdjust="spacing" textLength="198.5356" x="346" y="189.0669">Usuario sin cuenta se registra.</text></g><!--link UsuarioNoRegistrado to ProcesoDeInicioDeSesi?n--><g id="link_UsuarioNoRegistrado_ProcesoDeInicioDeSesi&#243;n"><path d="M526.71,137.1 C541.5,145.02 556.39,154.95 568,167 C585.62,185.29 595.2919,206.5051 601.9619,225.9351 " fill="none" id="UsuarioNoRegistrado-to-ProcesoDeInicioDeSesi&#243;n" style="stroke:#181818;stroke-width:1;"/><polygon fill="#181818" points="603.91,231.61,604.7711,221.7989,602.2866,226.8809,597.2045,224.3963,603.91,231.61" style="stroke:#181818;stroke-width:1;"/><path d="M595,172 L595,197 L819,197 L819,182 L809,172 L595,172 " fill="#FEFFDD" style="stroke:#181818;stroke-width:0.5;"/><path d="M809,172 L809,182 L819,182 L809,172 " fill="#FEFFDD" style="stroke:#181818;stroke-width:0.5;"/><text fill="#000000" font-family="sans-serif" font-size="13" lengthAdjust="spacing" textLength="203.252" x="601" y="189.0669">Usuario con cuenta se registra.</text></g><!--link Registrandose to RellenandoLogin--><g id="link_Registrandose_RellenandoLogin"><path d="M318.11,282.06 C312.74,326.71 302.0152,415.9528 296.6352,460.7628 " fill="none" id="Registrandose-to-RellenandoLogin" style="stroke:#181818;stroke-width:1;"/><polygon fill="#181818" points="295.92,466.72,300.9643,458.261,296.516,461.7557,293.0214,457.3073,295.92,466.72" style="stroke:#181818;stroke-width:1;"/><path d="M319,317 L319,432 L583,432 L583,327 L573,317 L319,317 " fill="#FEFFDD" style="stroke:#181818;stroke-width:0.5;"/><path d="M573,317 L573,327 L583,327 L573,317 " fill="#FEFFDD" style="stroke:#181818;stroke-width:0.5;"/><text fill="#000000" font-family="sans-serif" font-size="13" lengthAdjust="spacing" textLength="243.2422" x="325" y="334.0669">El usuario ingresa los datos de Login:</text><text fill="#000000" font-family="sans-serif" font-size="13" lengthAdjust="spacing" textLength="60.7598" x="325" y="349.1997">- Nombre</text><text fill="#000000" font-family="sans-serif" font-size="13" lengthAdjust="spacing" textLength="61.0073" x="325" y="364.3325">- Apellido</text><text fill="#000000" font-family="sans-serif" font-size="13" lengthAdjust="spacing" textLength="128.9463" x="325" y="379.4653">- Correo Electr&#243;nico</text><text fill="#000000" font-family="sans-serif" font-size="13" lengthAdjust="spacing" textLength="83.478" x="325" y="394.5981">- Contrase&#241;a</text><text fill="#000000" font-family="sans-serif" font-size="13" lengthAdjust="spacing" textLength="39.3872" x="325" y="409.731">- Peso</text><text fill="#000000" font-family="sans-serif" font-size="13" lengthAdjust="spacing" textLength="47.9756" x="325" y="424.8638">- Altura</text></g><!--link RellenandoLogin to rombo--><g id="link_RellenandoLogin_rombo"><path d="M285.33,517.21 C282.77,526.43 280.26,537.1 279,547 C277.03,562.43 278.43,566.45 279,582 C279.39,592.56 279.8108,598.6325 280.5308,606.9225 " fill="none" id="RellenandoLogin-to-rombo" style="stroke:#181818;stroke-width:1;"/><polygon fill="#181818" points="281.05,612.9,284.2563,603.5876,280.6174,607.9188,276.2863,604.2799,281.05,612.9" style="stroke:#181818;stroke-width:1;"/><path d="M284,552 L284,577 L571,577 L571,562 L561,552 L284,552 " fill="#FEFFDD" style="stroke:#181818;stroke-width:0.5;"/><path d="M561,552 L561,562 L571,562 L561,552 " fill="#FEFFDD" style="stroke:#181818;stroke-width:0.5;"/><text fill="#000000" font-family="sans-serif" font-size="13" lengthAdjust="spacing" textLength="266.0874" x="290" y="569.0669">El usuario usa correo @educantabria.es?</text></g><!--link rombo to EsProfesor--><g id="link_rombo_EsProfesor"><path d="M270.93,625.04 C242.79,625.68 167.36,630.79 119,666 C91.29,686.18 75.0288,716.572 65.0688,740.462 " fill="none" id="rombo-to-EsProfesor" style="stroke:#181818;stroke-width:1;"/><polygon fill="#181818" points="62.76,746,69.9153,739.2323,64.684,741.385,62.5313,736.1538,62.76,746" style="stroke:#181818;stroke-width:1;"/><path d="M124,678.5 L124,703.5 L275,703.5 L275,688.5 L265,678.5 L124,678.5 " fill="#FEFFDD" style="stroke:#181818;stroke-width:0.5;"/><path d="M265,678.5 L265,688.5 L275,688.5 L265,678.5 " fill="#FEFFDD" style="stroke:#181818;stroke-width:0.5;"/><text fill="#000000" font-family="sans-serif" font-size="13" lengthAdjust="spacing" textLength="130.9204" x="130" y="695.5669">El usuario ingresa s&#237;</text></g><!--link rombo to EsAlumno--><g id="link_rombo_EsAlumno"><path d="M283.24,634.97 C286.05,657.62 292.2515,707.5456 296.2615,739.8756 " fill="none" id="rombo-to-EsAlumno" style="stroke:#181818;stroke-width:1;"/><polygon fill="#181818" points="297,745.83,299.8618,736.4061,296.3845,740.868,291.9226,737.3908,297,745.83" style="stroke:#181818;stroke-width:1;"/><path d="M298,678.5 L298,703.5 L455,703.5 L455,688.5 L445,678.5 L298,678.5 " fill="#FEFFDD" style="stroke:#181818;stroke-width:0.5;"/><path d="M445,678.5 L445,688.5 L455,688.5 L445,678.5 " fill="#FEFFDD" style="stroke:#181818;stroke-width:0.5;"/><text fill="#000000" font-family="sans-serif" font-size="13" lengthAdjust="spacing" textLength="136.7285" x="304" y="695.5669">El usuario ingresa no</text></g><!--link EsAlumno to RolEstablecido--><g id="link_EsAlumno_RolEstablecido"><path d="M303,796.28 C304.31,814.67 304.05,840.23 296,861 C291.77,871.92 288.3369,877.7397 280.7569,886.3797 " fill="none" id="EsAlumno-to-RolEstablecido" style="stroke:#181818;stroke-width:1;"/><polygon fill="#181818" points="276.8,890.89,285.7423,886.7625,280.0974,887.1314,279.7286,881.4866,276.8,890.89" style="stroke:#181818;stroke-width:1;"/><path d="M307,831 L307,856 L541,856 L541,841 L531,831 L307,831 " fill="#FEFFDD" style="stroke:#181818;stroke-width:0.5;"/><path d="M531,831 L531,841 L541,841 L531,831 " fill="#FEFFDD" style="stroke:#181818;stroke-width:0.5;"/><text fill="#000000" font-family="sans-serif" font-size="13" lengthAdjust="spacing" textLength="213.0718" x="313" y="848.0669">El sistema asigna rol de Alumno.</text></g><!--link EsProfesor to RolEstablecido--><g id="link_EsProfesor_RolEstablecido"><path d="M41.05,796.39 C32.7,815.82 25.8,842.71 40,861 C58.26,884.52 127.9825,898.6759 183.5025,906.7559 " fill="none" id="EsProfesor-to-RolEstablecido" style="stroke:#181818;stroke-width:1;"/><polygon fill="#181818" points="189.44,907.62,181.1099,902.3656,184.4921,906.8999,179.9578,910.2822,189.44,907.62" style="stroke:#181818;stroke-width:1;"/><path d="M45,831 L45,856 L283,856 L283,841 L273,831 L45,831 " fill="#FEFFDD" style="stroke:#181818;stroke-width:0.5;"/><path d="M273,831 L273,841 L283,841 L273,831 " fill="#FEFFDD" style="stroke:#181818;stroke-width:0.5;"/><text fill="#000000" font-family="sans-serif" font-size="13" lengthAdjust="spacing" textLength="217.2549" x="51" y="848.0669">El sistema asigna rol de Profesor.</text></g><!--link RolEstablecido to UsuarioRegistrado--><g id="link_RolEstablecido_UsuarioRegistrado"><path d="M247.08,941.07 C244.88,959.14 243.41,984.37 248,1006 C250.17,1016.24 251.8443,1021.471 256.1743,1030.581 " fill="none" id="RolEstablecido-to-UsuarioRegistrado" style="stroke:#181818;stroke-width:1;"/><polygon fill="#181818" points="258.75,1036,258.4992,1026.1543,256.6036,1031.4841,251.2738,1029.5886,258.75,1036" style="stroke:#181818;stroke-width:1;"/><path d="M253,976 L253,1001 L588,1001 L588,986 L578,976 L253,976 " fill="#FEFFDD" style="stroke:#181818;stroke-width:0.5;"/><path d="M578,976 L578,986 L588,986 L578,976 " fill="#FEFFDD" style="stroke:#181818;stroke-width:0.5;"/><text fill="#000000" font-family="sans-serif" font-size="13" lengthAdjust="spacing" textLength="314.5898" x="259" y="993.0669">El usuario queda registrado con su rol asignado.</text></g><!--link ProcesoDeInicioDeSesi?n to VerificarUsuario--><g id="link_ProcesoDeInicioDeSesi&#243;n_VerificarUsuario"><path d="M611.62,282.06 C612.77,326.71 615.0661,415.912 616.2161,460.722 " fill="none" id="ProcesoDeInicioDeSesi&#243;n-to-VerificarUsuario" style="stroke:#181818;stroke-width:1;"/><polygon fill="#181818" points="616.37,466.72,620.1378,457.6203,616.2417,461.7216,612.1404,457.8256,616.37,466.72" style="stroke:#181818;stroke-width:1;"/><path d="M620,362 L620,387 L920,387 L920,372 L910,362 L620,362 " fill="#FEFFDD" style="stroke:#181818;stroke-width:0.5;"/><path d="M910,362 L910,372 L920,372 L910,362 " fill="#FEFFDD" style="stroke:#181818;stroke-width:0.5;"/><text fill="#000000" font-family="sans-serif" font-size="13" lengthAdjust="spacing" textLength="279.1509" x="626" y="379.0669">El usuario rellena con correo y contrase&#241;a.</text></g><!--link VerificarUsuario to IniciandoSesi?n--><g id="link_VerificarUsuario_IniciandoSesi&#243;n"><path d="M617.25,517.16 C617.63,555.07 618.3082,622.1103 618.6982,659.9503 " fill="none" id="VerificarUsuario-to-IniciandoSesi&#243;n" style="stroke:#181818;stroke-width:1;"/><polygon fill="#181818" points="618.76,665.95,622.667,656.9093,618.7085,660.9503,614.6675,656.9917,618.76,665.95" style="stroke:#181818;stroke-width:1;"/><path d="M622,552 L622,577 L965,577 L965,562 L955,552 L622,552 " fill="#FEFFDD" style="stroke:#181818;stroke-width:0.5;"/><path d="M955,552 L955,562 L965,562 L955,552 " fill="#FEFFDD" style="stroke:#181818;stroke-width:0.5;"/><text fill="#000000" font-family="sans-serif" font-size="13" lengthAdjust="spacing" textLength="322.5054" x="628" y="569.0669">El sistema verifica correo y contrase&#241;a correctos.</text></g><!--link IniciandoSesi?n to *end*--><g id="link_IniciandoSesi&#243;n_*end*"><path d="M619,716.24 C619,745.98 619,797.95 619,842.5 C619,842.5 619,842.5 619,1062 C619,1109.25 629.28,1131.51 597,1166 C561.47,1203.96 498.9993,1206.9639 472.1693,1206.5439 " fill="none" id="IniciandoSesi&#243;n-to-*end*" style="stroke:#181818;stroke-width:1;"/><polygon fill="#181818" points="466.17,1206.45,475.1063,1210.5904,471.1694,1206.5283,475.2315,1202.5914,466.17,1206.45" style="stroke:#181818;stroke-width:1;"/><path d="M624,903.5 L624,928.5 L930,928.5 L930,913.5 L920,903.5 L624,903.5 " fill="#FEFFDD" style="stroke:#181818;stroke-width:0.5;"/><path d="M920,903.5 L920,913.5 L930,913.5 L920,903.5 " fill="#FEFFDD" style="stroke:#181818;stroke-width:0.5;"/><text fill="#000000" font-family="sans-serif" font-size="13" lengthAdjust="spacing" textLength="285.3462" x="630" y="920.5669">El sistema verifica inicio de sesi&#243;n correcto.</text></g><!--link UsuarioRegistrado to *end*--><g id="link_UsuarioRegistrado_*end*"><path d="M279.3,1086.08 C287.65,1109.68 303.56,1145.07 329,1166 C364.09,1194.87 414.306,1202.4518 437.956,1204.6618 " fill="none" id="UsuarioRegistrado-to-*end*" style="stroke:#181818;stroke-width:1;"/><polygon fill="#181818" points="443.93,1205.22,435.3412,1200.4,438.9517,1204.7548,434.5969,1208.3653,443.93,1205.22" style="stroke:#181818;stroke-width:1;"/><path d="M334,1121 L334,1161 L588,1161 L588,1131 L578,1121 L334,1121 " fill="#FEFFDD" style="stroke:#181818;stroke-width:0.5;"/><path d="M578,1121 L578,1131 L588,1131 L578,1121 " fill="#FEFFDD" style="stroke:#181818;stroke-width:0.5;"/><text fill="#000000" font-family="sans-serif" font-size="13" lengthAdjust="spacing" textLength="233.4858" x="340" y="1138.0669">El proceso de registro ha finalizado.</text><text fill="#000000" font-family="sans-serif" font-size="13" lengthAdjust="spacing" textLength="165.3311" x="340" y="1153.1997">El usuario iniciara sesi&#243;n.</text></g><!--SRC=[fLJDQXj13BxdANGEs0zGWjlG-b088RGqbv33U5PsHCUZTBGJIDwfXz97y8jLyxF9shlU60h6HcFf-v56StT-3xFP0dv8D87uch_XXgGDfk4p63lDsLte6nRKFCyj0djmv7zg-5e8GXviHDyQ48HGo-QQWxx9PMSJD3U1BGf_mQ-UBEdlTnJQ_VLJZ9PFOTmpK2qvXpuTNF66HYcM3c9b8Ry9A0OS2pIcJTy8kV13Jft1DMzN0Mjm-QZeb5kQmiyS0hBYeMs3-Y7xzezNLOAxFwQUt6W3EXJNnc3wJW3q8wrHeK7v62ukx0EJnSKYczopb6tcj7VCHJLcYyHFs4Hhj9chG6QEyd70NdWJz59qNckL6qvidkn-Jy9TkhZrV29OJkoFkAilqsMtr3wjjEDb36EGebS2jmQCqCORbUBIL0lAVA3qpUx_CdGuGuvzqFwYxgtfL7z-HMpCwnuqPK4aPkuYenanTsppieHR3BGcQqBLyew2KAvXsSnohPvJq5tq8ViXGMRDIj9bddW4UYr-gXYZbENGwjuEoGzvCldT-VsfV9GxbkOg5Q0ZE_Bi7JnwnwaUor0IT9qdmuE1DNdZwANEyM0vafTWEYbz1Vy0]--></g></svg>