<svg xmlns="http://www.w3.org/2000/svg" xmlns:xlink="http://www.w3.org/1999/xlink" contentStyleType="text/css" height="430px" preserveAspectRatio="none" style="width:686px;height:430px;background:#FFFFFF;" version="1.1" viewBox="0 0 686 430" width="686px" zoomAndPan="magnify"><defs/><g><!--cluster GestionandoMensajes--><g id="cluster_GestionandoMensajes"><path d="M161,7 L660,7 A12.5,12.5 0 0 1 672.5,19.5 L672.5,28.2969 L148.5,28.2969 L148.5,19.5 A12.5,12.5 0 0 1 161,7 " fill="#F1F1F1" style="stroke:#F1F1F1;stroke-width:1;"/><rect fill="none" height="417" rx="12.5" ry="12.5" style="stroke:#181818;stroke-width:0.5;" width="524" x="148.5" y="7"/><line style="stroke:#181818;stroke-width:0.5;" x1="148.5" x2="672.5" y1="28.2969" y2="28.2969"/><text fill="#000000" font-family="sans-serif" font-size="14" lengthAdjust="spacing" textLength="153.7129" x="333.6436" y="23.9951">GestionandoMensajes</text></g><ellipse cx="354.5" cy="60" fill="#222222" rx="10" ry="10" style="stroke:#222222;stroke-width:1;"/><g id="GestionandoMensajes.UsuarioRemitente"><rect fill="#F1F1F1" height="50" rx="12.5" ry="12.5" style="stroke:#181818;stroke-width:0.5;" width="146.1504" x="281.5" y="130"/><line style="stroke:#181818;stroke-width:0.5;" x1="281.5" x2="427.6504" y1="156.2969" y2="156.2969"/><text fill="#000000" font-family="sans-serif" font-size="14" lengthAdjust="spacing" textLength="126.1504" x="291.5" y="147.9951">UsuarioRemitente</text></g><g id="GestionandoMensajes.CreandoMensaje"><rect fill="#F1F1F1" height="50" rx="12.5" ry="12.5" style="stroke:#181818;stroke-width:0.5;" width="136.9902" x="181" y="240"/><line style="stroke:#181818;stroke-width:0.5;" x1="181" x2="317.9902" y1="266.2969" y2="266.2969"/><text fill="#000000" font-family="sans-serif" font-size="14" lengthAdjust="spacing" textLength="116.9902" x="191" y="257.9951">CreandoMensaje</text></g><g id="GestionandoMensajes.AbriendoMensaje"><rect fill="#F1F1F1" height="50" rx="12.5" ry="12.5" style="stroke:#181818;stroke-width:0.5;" width="140.9893" x="391" y="240"/><line style="stroke:#181818;stroke-width:0.5;" x1="391" x2="531.9893" y1="266.2969" y2="266.2969"/><text fill="#000000" font-family="sans-serif" font-size="14" lengthAdjust="spacing" textLength="120.9893" x="401" y="257.9951">AbriendoMensaje</text></g><g id="GestionandoMensajes.EnviandoMensaje"><rect fill="#F1F1F1" height="50" rx="12.5" ry="12.5" style="stroke:#181818;stroke-width:0.5;" width="142.7393" x="181" y="350"/><line style="stroke:#181818;stroke-width:0.5;" x1="181" x2="323.7393" y1="376.2969" y2="376.2969"/><text fill="#000000" font-family="sans-serif" font-size="14" lengthAdjust="spacing" textLength="122.7393" x="191" y="367.9951">EnviandoMensaje</text></g><g id="GestionandoMensajes.MesajePendiente"><rect fill="#F1F1F1" height="50" rx="12.5" ry="12.5" style="stroke:#181818;stroke-width:0.5;" width="139.3623" x="359" y="350"/><line style="stroke:#181818;stroke-width:0.5;" x1="359" x2="498.3623" y1="376.2969" y2="376.2969"/><text fill="#000000" font-family="sans-serif" font-size="14" lengthAdjust="spacing" textLength="119.3623" x="369" y="367.9951">MesajePendiente</text></g><g id="GestionandoMensajes.MensajeAlDia"><rect fill="#F1F1F1" height="50" rx="12.5" ry="12.5" style="stroke:#181818;stroke-width:0.5;" width="114.6572" x="533" y="350"/><line style="stroke:#181818;stroke-width:0.5;" x1="533" x2="647.6572" y1="376.2969" y2="376.2969"/><text fill="#000000" font-family="sans-serif" font-size="14" lengthAdjust="spacing" textLength="94.6572" x="543" y="367.9951">MensajeAlDia</text></g><ellipse cx="65.5" cy="155" fill="#222222" rx="10" ry="10" style="stroke:#222222;stroke-width:1;"/><g id="UsuarioActivo"><rect fill="#F1F1F1" height="50" rx="12.5" ry="12.5" style="stroke:#181818;stroke-width:0.5;" width="116.708" x="7" y="240"/><line style="stroke:#181818;stroke-width:0.5;" x1="7" x2="123.708" y1="266.2969" y2="266.2969"/><text fill="#000000" font-family="sans-serif" font-size="14" lengthAdjust="spacing" textLength="96.708" x="17" y="257.9951">UsuarioActivo</text></g><ellipse cx="65.5" cy="375" fill="none" rx="11" ry="11" style="stroke:#222222;stroke-width:1;"/><ellipse cx="65.5" cy="375" fill="#222222" rx="6" ry="6" style="stroke:#222222;stroke-width:1;"/><!--link *start* to UsuarioActivo--><g id="link_*start*_UsuarioActivo"><path d="M65.5,165.21 C65.5,181.53 65.5,210.04 65.5,233.63 " fill="none" id="*start*-to-UsuarioActivo" style="stroke:#181818;stroke-width:1;"/><polygon fill="#181818" points="65.5,239.63,69.5,230.63,65.5,234.63,61.5,230.63,65.5,239.63" style="stroke:#181818;stroke-width:1;"/></g><!--reverse link GestionandoMensajes to UsuarioActivo--><g id="link_GestionandoMensajes_UsuarioActivo"><path d="M145.9464,84.539 C140.1849,97.3925 132.8463,113.7637 124.4475,132.5 C107.65,169.9725 88.165,213.44 76.34,239.82 " fill="none" id="GestionandoMensajes-backto-UsuarioActivo" style="stroke:#181818;stroke-width:1;"/><polygon fill="#181818" points="148.4006,79.0639,141.0692,85.6404,146.3555,83.6265,148.3694,88.9127,148.4006,79.0639" style="stroke:#181818;stroke-width:1;"/></g><!--link *start*GestionandoMensajes to UsuarioRemitente--><g id="link_*start*GestionandoMensajes_UsuarioRemitente"><path d="M354.5,70.26 C354.5,84.04 354.5,104.42 354.5,123.91 " fill="none" id="*start*GestionandoMensajes-to-UsuarioRemitente" style="stroke:#181818;stroke-width:1;"/><polygon fill="#181818" points="354.5,129.91,358.5,120.91,354.5,124.91,350.5,120.91,354.5,129.91" style="stroke:#181818;stroke-width:1;"/></g><!--link UsuarioRemitente to CreandoMensaje--><g id="link_UsuarioRemitente_CreandoMensaje"><path d="M330.94,180.24 C313.64,198.02 294.4429,217.7784 277.1729,235.5384 " fill="none" id="UsuarioRemitente-to-CreandoMensaje" style="stroke:#181818;stroke-width:1;"/><polygon fill="#181818" points="272.99,239.84,282.132,236.1762,276.4757,236.2554,276.3966,230.5991,272.99,239.84" style="stroke:#181818;stroke-width:1;"/></g><!--link UsuarioRemitente to AbriendoMensaje--><g id="link_UsuarioRemitente_AbriendoMensaje"><path d="M367.67,180.24 C382.75,198.02 402.0778,218.1138 422.2378,235.8738 " fill="none" id="UsuarioRemitente-to-AbriendoMensaje" style="stroke:#181818;stroke-width:1;"/><polygon fill="#181818" points="426.74,239.84,422.6309,230.8893,422.9882,236.5348,417.3426,236.8922,426.74,239.84" style="stroke:#181818;stroke-width:1;"/></g><!--link AbriendoMensaje to UsuarioRemitente--><g id="link_AbriendoMensaje_UsuarioRemitente"><path d="M449.04,239.84 C434.14,222.08 414.8255,201.971 394.5055,184.191 " fill="none" id="AbriendoMensaje-to-UsuarioRemitente" style="stroke:#181818;stroke-width:1;"/><polygon fill="#181818" points="389.99,180.24,394.1292,189.1768,393.7529,183.5325,399.3972,183.1562,389.99,180.24" style="stroke:#181818;stroke-width:1;"/></g><!--link UsuarioRemitente to UsuarioActivo--><g id="link_UsuarioRemitente_UsuarioActivo"><path d="M290,180.1 C240.43,198.63 178.1305,221.9099 130.0105,239.8899 " fill="none" id="UsuarioRemitente-to-UsuarioActivo" style="stroke:#181818;stroke-width:1;"/><polygon fill="#181818" points="124.39,241.99,134.2208,242.5869,129.0737,240.2399,131.4206,235.0929,124.39,241.99" style="stroke:#181818;stroke-width:1;"/></g><!--link CreandoMensaje to EnviandoMensaje--><g id="link_CreandoMensaje_EnviandoMensaje"><path d="M250.17,290.24 C250.67,308.02 251.1745,326.0823 251.6645,343.8423 " fill="none" id="CreandoMensaje-to-EnviandoMensaje" style="stroke:#181818;stroke-width:1;"/><polygon fill="#181818" points="251.83,349.84,255.5803,340.7331,251.6921,344.8419,247.5833,340.9537,251.83,349.84" style="stroke:#181818;stroke-width:1;"/></g><!--link EnviandoMensaje to UsuarioRemitente--><g id="link_EnviandoMensaje_UsuarioRemitente"><path d="M284.84,349.99 C302.77,334.84 323.76,313.7 335.5,290 C353.03,254.63 355.7752,213.9798 355.5652,186.0798 " fill="none" id="EnviandoMensaje-to-UsuarioRemitente" style="stroke:#181818;stroke-width:1;"/><polygon fill="#181818" points="355.52,180.08,351.5879,189.1099,355.5576,185.0799,359.5876,189.0496,355.52,180.08" style="stroke:#181818;stroke-width:1;"/></g><!--link AbriendoMensaje to MesajePendiente--><g id="link_AbriendoMensaje_MesajePendiente"><path d="M454.09,290.24 C448.66,308.02 443.0643,326.3422 437.6343,344.1022 " fill="none" id="AbriendoMensaje-to-MesajePendiente" style="stroke:#181818;stroke-width:1;"/><polygon fill="#181818" points="435.88,349.84,442.3366,342.4028,437.3419,345.0585,434.6862,340.0638,435.88,349.84" style="stroke:#181818;stroke-width:1;"/></g><!--link AbriendoMensaje to MensajeAlDia--><g id="link_AbriendoMensaje_MensajeAlDia"><path d="M490.45,290.24 C511.7,308.02 535.818,328.2302 557.048,345.9902 " fill="none" id="AbriendoMensaje-to-MensajeAlDia" style="stroke:#181818;stroke-width:1;"/><polygon fill="#181818" points="561.65,349.84,557.3135,340.9972,557.815,346.6318,552.1804,347.1333,561.65,349.84" style="stroke:#181818;stroke-width:1;"/></g><!--link UsuarioActivo to *end*--><g id="link_UsuarioActivo_*end*"><path d="M65.5,290.24 C65.5,313.37 65.5,341.11 65.5,357.83 " fill="none" id="UsuarioActivo-to-*end*" style="stroke:#181818;stroke-width:1;"/><polygon fill="#181818" points="65.5,363.83,69.5,354.83,65.5,358.83,61.5,354.83,65.5,363.83" style="stroke:#181818;stroke-width:1;"/></g><!--SRC=[XP6n2iCW48Ptd-BcWAzGaBPq2fH2fv31DZTSQHNqaYNqtMiaGzH8mU6y-_Z_-xLhUf3o07S_QaTMFPacAqHo1Ja6ueAUoHfj1jkYyVg5NWZFcd5l1BC0w9f-ett33p4QnZ099-_6DOuEDoerIZqSuHziA495rzGWgftDHAbfre5wY6oJI4ABItqDVLh9FMojrVj4ke8Kdj_YPvQOuPb_]--></g></svg>