<svg xmlns="http://www.w3.org/2000/svg" xmlns:xlink="http://www.w3.org/1999/xlink" contentStyleType="text/css" height="988px" preserveAspectRatio="none" style="width:385px;height:988px;background:#FFFFFF;" version="1.1" viewBox="0 0 385 988" width="385px" zoomAndPan="magnify"><defs/><g><rect fill="#F1F1F1" height="40" rx="12.5" ry="12.5" style="stroke:#181818;stroke-width:0.5;" width="146.1514" x="116.5" y="7"/><text fill="#000000" font-family="sans-serif" font-size="14" lengthAdjust="spacing" textLength="136.1514" x="121.5" y="31.8467">LEYENDO_MENSAJE</text><rect fill="#F1F1F1" height="40" rx="12.5" ry="12.5" style="stroke:#181818;stroke-width:0.5;" width="146.1514" x="116.5" y="942"/><text fill="#000000" font-family="sans-serif" font-size="14" lengthAdjust="spacing" textLength="136.1514" x="121.5" y="966.8467">LEYENDO_MENSAJE</text><path d="M19.5,157 L359.5,157 A12.5,12.5 0 0 1 372,169.5 L372,183.2969 L7,183.2969 L7,169.5 A12.5,12.5 0 0 1 19.5,157 " fill="#F1F1F1" style="stroke:#F1F1F1;stroke-width:1;"/><rect fill="none" height="724.2969" rx="12.5" ry="12.5" style="stroke:#181818;stroke-width:0.5;" width="365" x="7" y="157"/><line style="stroke:#181818;stroke-width:0.5;" x1="7" x2="372" y1="183.2969" y2="183.2969"/><text fill="#000000" font-family="sans-serif" font-size="14" lengthAdjust="spacing" textLength="88.7236" x="145.1382" y="174.9951">LeerMensaje</text><rect fill="#F1F1F1" height="40" rx="12.5" ry="12.5" style="stroke:#181818;stroke-width:0.5;" width="50" x="115" y="195.2969"/><text fill="#000000" font-family="sans-serif" font-size="14" lengthAdjust="spacing" textLength="4.4502" x="137.7749" y="220.1436">&#160;</text><rect fill="#F1F1F1" height="40" rx="12.5" ry="12.5" style="stroke:#181818;stroke-width:0.5;" width="50" x="25" y="321.2969"/><text fill="#000000" font-family="sans-serif" font-size="14" lengthAdjust="spacing" textLength="4.4502" x="47.7749" y="346.1436">&#160;</text><rect fill="#F1F1F1" height="40" rx="12.5" ry="12.5" style="stroke:#181818;stroke-width:0.5;" width="50" x="19" y="507.2969"/><text fill="#000000" font-family="sans-serif" font-size="14" lengthAdjust="spacing" textLength="4.4502" x="41.7749" y="532.1436">&#160;</text><g id="elem_revisionConfirmacionLecturaFirma"><polygon fill="#F1F1F1" points="132,739.2969,144,751.2969,132,763.2969,120,751.2969,132,739.2969" style="stroke:#181818;stroke-width:0.5;"/></g><ellipse cx="132" cy="860.2969" fill="none" rx="11" ry="11" style="stroke:#222222;stroke-width:1;"/><ellipse cx="132" cy="860.2969" fill="#222222" rx="6" ry="6" style="stroke:#222222;stroke-width:1;"/><!--link solicitudAbrirMensaje to solicitudAbrirDocumento--><g id="link_solicitudAbrirMensaje_solicitudAbrirDocumento"><path d="M114.89,228.2069 C92.09,239.0269 62,253.2969 62,253.2969 C62,253.2969 57.0209,289.4133 53.4809,315.0433 " fill="none" id="solicitudAbrirMensaje-to-solicitudAbrirDocumento" style="stroke:#008000;stroke-width:1;"/><polygon fill="#008000" points="52.66,320.9869,57.8538,312.6188,53.3441,316.0339,49.929,311.5242,52.66,320.9869" style="stroke:#008000;stroke-width:1;"/><path d="M67,258.2969 L67,298.2969 L209,298.2969 L209,268.2969 L199,258.2969 L67,258.2969 " fill="#F5F5F5" style="stroke:#008000;stroke-width:0.5;"/><path d="M199,258.2969 L199,268.2969 L209,268.2969 L199,258.2969 " fill="#F5F5F5" style="stroke:#008000;stroke-width:0.5;"/><text fill="#000000" font-family="sans-serif" font-size="13" font-weight="bold" lengthAdjust="spacing" textLength="121.2212" x="73" y="275.3638">Sistema Permite</text><ellipse cx="78.5" cy="286.0625" fill="#000000" rx="2.5" ry="2.5" style="stroke:#000000;stroke-width:0;"/><text fill="#000000" font-family="sans-serif" font-size="13" lengthAdjust="spacing" textLength="89.3813" x="85" y="290.4966">Abrir Mensaje</text></g><!--link solicitudAbrirDocumento to solicitudConfirmacionLecturaFirma--><g id="link_solicitudAbrirDocumento_solicitudConfirmacionLecturaFirma"><path d="M49.37,361.6369 C48.21,397.0669 45.9657,465.9801 44.8157,501.2201 " fill="none" id="solicitudAbrirDocumento-to-solicitudConfirmacionLecturaFirma" style="stroke:#008000;stroke-width:1;"/><polygon fill="#008000" points="44.62,507.2169,48.9114,498.3521,44.7831,502.2195,40.9157,498.0912,44.62,507.2169" style="stroke:#008000;stroke-width:1;"/><path d="M54,384.2969 L54,484.2969 L197,484.2969 L197,394.2969 L187,384.2969 L54,384.2969 " fill="#F5F5F5" style="stroke:#008000;stroke-width:0.5;"/><path d="M187,384.2969 L187,394.2969 L197,394.2969 L187,384.2969 " fill="#F5F5F5" style="stroke:#008000;stroke-width:0.5;"/><text fill="#000000" font-family="sans-serif" font-size="13" font-weight="bold" lengthAdjust="spacing" textLength="115.0005" x="60" y="401.3638">Usuario Solicita</text><ellipse cx="65.5" cy="412.0625" fill="#000000" rx="2.5" ry="2.5" style="stroke:#000000;stroke-width:0;"/><text fill="#000000" font-family="sans-serif" font-size="13" lengthAdjust="spacing" textLength="110.8809" x="72" y="416.4966">Abrir Documento</text><text fill="#000000" font-family="sans-serif" font-size="13" lengthAdjust="spacing" textLength="4.1323" x="60" y="431.6294">&#160;</text><text fill="#000000" font-family="sans-serif" font-size="13" font-weight="bold" lengthAdjust="spacing" textLength="121.2212" x="60" y="446.7622">Sistema Permite</text><ellipse cx="65.5" cy="457.4609" fill="#000000" rx="2.5" ry="2.5" style="stroke:#000000;stroke-width:0;"/><text fill="#000000" font-family="sans-serif" font-size="13" lengthAdjust="spacing" textLength="110.8809" x="72" y="461.895">Abrir Documento</text><text fill="#000000" font-family="sans-serif" font-size="13" lengthAdjust="spacing" textLength="4.1323" x="60" y="477.0278">&#160;</text></g><!--link solicitudConfirmacionLecturaFirma to revisionConfirmacionLecturaFirma--><g id="link_solicitudConfirmacionLecturaFirma_revisionConfirmacionLecturaFirma"><path d="M40.86,547.6669 C39.41,556.6169 38,565.2969 38,565.2969 C38,565.2969 38,721.2969 38,721.2969 C38,721.2969 94.3165,738.6686 117.5965,745.8486 " fill="none" id="solicitudConfirmacionLecturaFirma-to-revisionConfirmacionLecturaFirma" style="stroke:#008000;stroke-width:1;"/><polygon fill="#008000" points="123.33,747.6169,115.9086,741.1421,118.5521,746.1433,113.5509,748.7867,123.33,747.6169" style="stroke:#008000;stroke-width:1;"/><path d="M43,570.2969 L43,716.2969 L209,716.2969 L209,580.2969 L199,570.2969 L43,570.2969 " fill="#F5F5F5" style="stroke:#008000;stroke-width:0.5;"/><path d="M199,570.2969 L199,580.2969 L209,580.2969 L199,570.2969 " fill="#F5F5F5" style="stroke:#008000;stroke-width:0.5;"/><text fill="#000000" font-family="sans-serif" font-size="13" font-weight="bold" lengthAdjust="spacing" textLength="63.9336" x="49" y="587.3638">Opcional</text><text fill="#000000" font-family="sans-serif" font-size="13" lengthAdjust="spacing" textLength="16.5293" x="49" y="602.4966">&#160;&#160;&#160;&#160;</text><text fill="#000000" font-family="sans-serif" font-size="13" font-weight="bold" lengthAdjust="spacing" textLength="121.2212" x="65.5293" y="602.4966">Sistema Permite</text><text fill="#000000" font-family="sans-serif" font-size="13" lengthAdjust="spacing" textLength="128.5781" x="65.5293" y="617.6294">* Confirmar Lectura</text><text fill="#000000" font-family="sans-serif" font-size="13" lengthAdjust="spacing" textLength="116.6064" x="65.5293" y="632.7622">* Confirmar Firma</text><text fill="#000000" font-family="sans-serif" font-size="13" lengthAdjust="spacing" textLength="16.5293" x="49" y="647.895">&#160;&#160;&#160;&#160;</text><text fill="#000000" font-family="sans-serif" font-size="13" font-weight="bold" lengthAdjust="spacing" textLength="63.9336" x="49" y="663.0278">Opcional</text><text fill="#000000" font-family="sans-serif" font-size="13" lengthAdjust="spacing" textLength="16.5293" x="112.9336" y="663.0278">&#160;&#160;&#160;&#160;</text><text fill="#000000" font-family="sans-serif" font-size="13" lengthAdjust="spacing" textLength="16.5293" x="49" y="678.1606">&#160;&#160;&#160;&#160;</text><text fill="#000000" font-family="sans-serif" font-size="13" font-weight="bold" lengthAdjust="spacing" textLength="105.2441" x="65.5293" y="678.1606">Usuario Marca</text><text fill="#000000" font-family="sans-serif" font-size="13" lengthAdjust="spacing" textLength="128.5781" x="65.5293" y="693.2935">* Confirmar Lectura</text><text fill="#000000" font-family="sans-serif" font-size="13" lengthAdjust="spacing" textLength="116.6064" x="65.5293" y="708.4263">* Confirmar Firma</text></g><!--link revisionConfirmacionLecturaFirma to solicitudAbrirMensaje--><g id="link_revisionConfirmacionLecturaFirma_solicitudAbrirMensaje"><path d="M140.16,747.4069 C160.9,740.0769 214,721.2969 214,721.2969 C214,721.2969 214,253.2969 214,253.2969 C214,253.2969 191.8871,242.2392 170.4171,231.5092 " fill="none" id="revisionConfirmacionLecturaFirma-to-solicitudAbrirMensaje" style="stroke:#FF0000;stroke-width:1;"/><polygon fill="#FF0000" points="165.05,228.8269,171.3124,236.4283,169.5226,231.0621,174.8888,229.2723,165.05,228.8269" style="stroke:#FF0000;stroke-width:1;"/><path d="M219,414.2969 L219,454.2969 L363,454.2969 L363,424.2969 L353,414.2969 L219,414.2969 " fill="#F5F5F5" style="stroke:#008000;stroke-width:0.5;"/><path d="M353,414.2969 L353,424.2969 L363,424.2969 L353,414.2969 " fill="#F5F5F5" style="stroke:#008000;stroke-width:0.5;"/><text fill="#000000" font-family="sans-serif" font-size="13" font-weight="bold" lengthAdjust="spacing" textLength="123.5762" x="225" y="431.3638">Sistema Muestra</text><text fill="#000000" font-family="sans-serif" font-size="13" lengthAdjust="spacing" textLength="110.3032" x="225" y="446.4966">Mensaje de error</text></g><!--link revisionConfirmacionLecturaFirma to *end*LeerMensaje--><g id="link_revisionConfirmacionLecturaFirma_*end*LeerMensaje"><path d="M132,763.3469 C132,784.1669 132,822.9369 132,843.0969 " fill="none" id="revisionConfirmacionLecturaFirma-to-*end*LeerMensaje" style="stroke:#008000;stroke-width:1;"/><polygon fill="#008000" points="132,849.0969,136,840.0969,132,844.0969,128,840.0969,132,849.0969" style="stroke:#008000;stroke-width:1;"/><path d="M137,786.2969 L137,826.2969 L356,826.2969 L356,796.2969 L346,786.2969 L137,786.2969 " fill="#F5F5F5" style="stroke:#008000;stroke-width:0.5;"/><path d="M346,786.2969 L346,796.2969 L356,796.2969 L346,786.2969 " fill="#F5F5F5" style="stroke:#008000;stroke-width:0.5;"/><text fill="#000000" font-family="sans-serif" font-size="13" font-weight="bold" lengthAdjust="spacing" textLength="123.5762" x="143" y="803.3638">Sistema Muestra</text><text fill="#000000" font-family="sans-serif" font-size="13" lengthAdjust="spacing" textLength="198.6182" x="143" y="818.4966">Mensaje de respuesta enviada</text></g><!--link startState to LeerMensaje--><g id="link_startState_LeerMensaje"><path d="M189.5,47.21 C189.5,69.5 189.5,103.34 189.5,150.73 " fill="none" id="startState-to-LeerMensaje" style="stroke:#008000;stroke-width:1;"/><polygon fill="#008000" points="189.5,156.73,193.5,147.73,189.5,151.73,185.5,147.73,189.5,156.73" style="stroke:#008000;stroke-width:1;"/><path d="M194.5,82 L194.5,122 L330.5,122 L330.5,92 L320.5,82 L194.5,82 " fill="#F5F5F5" style="stroke:#008000;stroke-width:0.5;"/><path d="M320.5,82 L320.5,92 L330.5,92 L320.5,82 " fill="#F5F5F5" style="stroke:#008000;stroke-width:0.5;"/><text fill="#000000" font-family="sans-serif" font-size="13" font-weight="bold" lengthAdjust="spacing" textLength="115.0005" x="200.5" y="99.0669">Usuario Solicita</text><ellipse cx="206" cy="109.7656" fill="#000000" rx="2.5" ry="2.5" style="stroke:#000000;stroke-width:0;"/><text fill="#000000" font-family="sans-serif" font-size="13" lengthAdjust="spacing" textLength="86.5186" x="212.5" y="114.1997">Leer Mensaje</text></g><!--link LeerMensaje to endState--><g id="link_LeerMensaje_endState"><path d="M179.41,881.14 C180.54,906.48 181.2511,921.6208 183.1011,935.7508 " fill="none" id="LeerMensaje-to-endState" style="stroke:#008000;stroke-width:1;"/><polygon fill="#008000" points="183.88,941.7,186.6778,932.2569,183.2309,936.7423,178.7455,933.2954,183.88,941.7" style="stroke:#008000;stroke-width:1;"/></g><!--link LeerMensaje to endState--><g id="link_LeerMensaje_endState"><path d="M200.18,881.14 C198.98,906.48 198.2344,921.6269 196.2744,935.7569 " fill="none" id="LeerMensaje-to-endState-1" style="stroke:#FF0000;stroke-width:1;"/><polygon fill="#FF0000" points="195.45,941.7,200.6486,933.3349,196.137,936.7474,192.7245,932.2358,195.45,941.7" style="stroke:#FF0000;stroke-width:1;"/></g><!--SRC=[hPJFQi904CRl-nI3lGdI5n31jlPG_5C8FHIHicwckZNP3RER5Yc-UtTZebarfeLw22RppSplczd4RAJAEF4KlXd0L5kyusAp8fsh-5udck3cQoqjHgdUe5CCYVHN6LWHeggoDCL89u54AhJR327JoTRVi1rZQnaZO9hPBSHe1CdCIgqOCvPR17Sb6nL_kO7EUFGwcZxCtYQZQJHy6dLA5QhuYgQeLLNfzGOmHgG9AiC_a2a72rfvjer31EWl1oycvoGrH3gHGbhUlrqEYbYtI8KgrxK5dyzOhMBHeG8A0_CRmdXH3vVyTTLtqQbqlmV8u-6Iv47XJKAdKVQWHPwYilgAy5whTqaf5sxKOnGs9_xexyzJ23-bSQh6Z7vVhBKKEDYFw3Aodqa3PP5rjeLo4v4q5bsJPwJKdRh38lRBA0eTjk6V7JTopdASIq3JPEmgL-C9gOE55ltlhzRg5K9_XshjA_LksxROPDPnpZ8lvaa0sEh0UwYQ4PIj6g97Wc1A9xs3-GLBc70I_1-wdm-tzV0VN-cBv_vNPtkIex4K6gZU6_zfT5zOkipNZkV0vjt5Vs0GcimhkCFub3m-6HdR_G00]--></g></svg>