<svg xmlns="http://www.w3.org/2000/svg" xmlns:xlink="http://www.w3.org/1999/xlink" contentStyleType="text/css" height="482px" preserveAspectRatio="none" style="width:389px;height:482px;background:#FFFFFF;" version="1.1" viewBox="0 0 389 482" width="389px" zoomAndPan="magnify"><defs/><g><g id="MenuPrincipal"><rect fill="#F1F1F1" height="50" rx="12.5" ry="12.5" style="stroke:#181818;stroke-width:0.5;" width="141.1396" x="32.31" y="136"/><line style="stroke:#181818;stroke-width:0.5;" x1="32.31" x2="173.4496" y1="162.2969" y2="162.2969"/><text fill="#000000" font-family="sans-serif" font-size="14" lengthAdjust="spacing" textLength="121.1396" x="42.31" y="153.9951">MENU_PRINCIPAL</text></g><g id="LeyendoMensaje"><rect fill="#F1F1F1" height="50" rx="12.5" ry="12.5" style="stroke:#181818;stroke-width:0.5;" width="156.1514" x="24.8" y="281"/><line style="stroke:#181818;stroke-width:0.5;" x1="24.8" x2="180.9514" y1="307.2969" y2="307.2969"/><text fill="#000000" font-family="sans-serif" font-size="14" lengthAdjust="spacing" textLength="136.1514" x="34.8" y="298.9951">LEYENDO_MENSAJE</text></g><g id="LeyendoDocumento"><rect fill="#F1F1F1" height="50" rx="12.5" ry="12.5" style="stroke:#181818;stroke-width:0.5;" width="186.1064" x="9.83" y="426"/><line style="stroke:#181818;stroke-width:0.5;" x1="9.83" x2="195.9364" y1="452.2969" y2="452.2969"/><text fill="#000000" font-family="sans-serif" font-size="14" lengthAdjust="spacing" textLength="166.1064" x="19.83" y="443.9951">LEYENDO_DOCUMENTO</text></g><ellipse cx="102.88" cy="16" fill="#222222" rx="10" ry="10" style="stroke:#222222;stroke-width:1;"/><ellipse cx="332.88" cy="161" fill="none" rx="11" ry="11" style="stroke:#222222;stroke-width:1;"/><ellipse cx="332.88" cy="161" fill="#222222" rx="6" ry="6" style="stroke:#222222;stroke-width:1;"/><!--link *start* to MenuPrincipal--><g id="link_*start*_MenuPrincipal"><path d="M102.88,26.38 C102.88,48.32 102.88,97.52 102.88,129.69 " fill="none" id="*start*-to-MenuPrincipal" style="stroke:#181818;stroke-width:1;"/><polygon fill="#181818" points="102.88,135.69,106.88,126.69,102.88,130.69,98.88,126.69,102.88,135.69" style="stroke:#181818;stroke-width:1;"/><path d="M107.88,61 L107.88,101 L211.88,101 L211.88,71 L201.88,61 L107.88,61 " fill="#FEFFDD" style="stroke:#181818;stroke-width:0.5;"/><path d="M201.88,61 L201.88,71 L211.88,71 L201.88,61 " fill="#FEFFDD" style="stroke:#181818;stroke-width:0.5;"/><text fill="#000000" font-family="sans-serif" font-size="13" lengthAdjust="spacing" textLength="79.6694" x="113.88" y="78.0669">Destinatario</text><text fill="#000000" font-family="sans-serif" font-size="13" lengthAdjust="spacing" textLength="79.6694" x="113.88" y="93.1997">inicia sesión</text></g><!--link MenuPrincipal to *end*--><g id="link_MenuPrincipal_*end*"><path d="M173.76,161 C227.09,161 289.33,161 315.75,161 " fill="none" id="MenuPrincipal-to-*end*" style="stroke:#181818;stroke-width:1;"/><polygon fill="#181818" points="321.75,161,312.75,157,316.75,161,312.75,165,321.75,161" style="stroke:#181818;stroke-width:1;"/><path d="M195.67,113 L195.67,153 L299.67,153 L299.67,123 L289.67,113 L195.67,113 " fill="#FEFFDD" style="stroke:#181818;stroke-width:0.5;"/><path d="M289.67,113 L289.67,123 L299.67,123 L289.67,113 " fill="#FEFFDD" style="stroke:#181818;stroke-width:0.5;"/><text fill="#000000" font-family="sans-serif" font-size="13" lengthAdjust="spacing" textLength="79.6694" x="201.67" y="130.0669">Destinatario</text><text fill="#000000" font-family="sans-serif" font-size="13" lengthAdjust="spacing" textLength="82.894" x="201.67" y="145.1997">cierra sesión</text></g><!--link MenuPrincipal to LeyendoMensaje--><g id="link_MenuPrincipal_LeyendoMensaje"><path d="M48.43,186.33 C37,194.1 26.44,203.91 19.88,216 C12.46,229.67 12.46,237.33 19.88,251 C26.44,263.09 32.038,269.5269 43.468,277.2969 " fill="none" id="MenuPrincipal-to-LeyendoMensaje" style="stroke:#181818;stroke-width:1;"/><polygon fill="#181818" points="48.43,280.67,43.2357,272.3022,44.295,277.859,38.7382,278.9183,48.43,280.67" style="stroke:#181818;stroke-width:1;"/><path d="M24.88,221 L24.88,246 L135.88,246 L135.88,231 L125.88,221 L24.88,221 " fill="#FEFFDD" style="stroke:#181818;stroke-width:0.5;"/><path d="M125.88,221 L125.88,231 L135.88,231 L125.88,221 " fill="#FEFFDD" style="stroke:#181818;stroke-width:0.5;"/><text fill="#000000" font-family="sans-serif" font-size="13" lengthAdjust="spacing" textLength="90.8286" x="30.88" y="238.0669">Abrir mensaje</text></g><!--link LeyendoMensaje to MenuPrincipal--><g id="link_LeyendoMensaje_MenuPrincipal"><path d="M127.26,280.72 C134.35,272.07 141.18,261.78 144.88,251 C149.93,236.29 149.93,230.71 144.88,216 C141.18,205.22 138.1535,199.5704 131.0635,190.9204 " fill="none" id="LeyendoMensaje-to-MenuPrincipal" style="stroke:#181818;stroke-width:1;"/><polygon fill="#181818" points="127.26,186.28,129.8717,195.7763,130.4296,190.147,136.0589,190.7049,127.26,186.28" style="stroke:#181818;stroke-width:1;"/><path d="M152.88,221 L152.88,246 L273.88,246 L273.88,231 L263.88,221 L152.88,221 " fill="#FEFFDD" style="stroke:#181818;stroke-width:0.5;"/><path d="M263.88,221 L263.88,231 L273.88,231 L263.88,221 " fill="#FEFFDD" style="stroke:#181818;stroke-width:0.5;"/><text fill="#000000" font-family="sans-serif" font-size="13" lengthAdjust="spacing" textLength="100.458" x="158.88" y="238.0669">Cerrar mensaje</text></g><!--link LeyendoMensaje to LeyendoDocumento--><g id="link_LeyendoMensaje_LeyendoDocumento"><path d="M40.1,331.31 C28.03,338.95 16.96,348.7 9.88,361 C6,367.74 6,389.26 9.88,396 C16.96,408.3 22.9603,414.841 35.0303,422.481 " fill="none" id="LeyendoMensaje-to-LeyendoDocumento" style="stroke:#181818;stroke-width:1;"/><polygon fill="#181818" points="40.1,425.69,34.6347,417.4967,35.8752,423.0158,30.3561,424.2563,40.1,425.69" style="stroke:#181818;stroke-width:1;"/><path d="M14.88,366 L14.88,391 L144.88,391 L144.88,376 L134.88,366 L14.88,366 " fill="#FEFFDD" style="stroke:#181818;stroke-width:0.5;"/><path d="M134.88,366 L134.88,376 L144.88,376 L134.88,366 " fill="#FEFFDD" style="stroke:#181818;stroke-width:0.5;"/><text fill="#000000" font-family="sans-serif" font-size="13" lengthAdjust="spacing" textLength="109.1226" x="20.88" y="383.0669">Abrir documento</text></g><!--link LeyendoDocumento to LeyendoMensaje--><g id="link_LeyendoDocumento_LeyendoMensaje"><path d="M133.19,425.76 C141.51,417.32 149.45,407.14 153.88,396 C159.63,381.54 159.63,375.46 153.88,361 C149.45,349.86 145.7222,343.9529 137.4022,335.5129 " fill="none" id="LeyendoDocumento-to-LeyendoMensaje" style="stroke:#181818;stroke-width:1;"/><polygon fill="#181818" points="133.19,331.24,136.6596,340.4575,136.7001,334.8008,142.3568,334.8413,133.19,331.24" style="stroke:#181818;stroke-width:1;"/><path d="M162.88,366 L162.88,391 L311.88,391 L311.88,376 L301.88,366 L162.88,366 " fill="#FEFFDD" style="stroke:#181818;stroke-width:0.5;"/><path d="M301.88,366 L301.88,376 L311.88,376 L301.88,366 " fill="#FEFFDD" style="stroke:#181818;stroke-width:0.5;"/><text fill="#000000" font-family="sans-serif" font-size="13" lengthAdjust="spacing" textLength="128.4575" x="168.88" y="383.0669">Cerrar visualización</text></g><!--link LeyendoDocumento to LeyendoDocumento--><g id="link_LeyendoDocumento_LeyendoDocumento"><path d="M196.4,437.83 C216.44,439.14 230.93,443.53 230.93,451 C230.93,458.47 222.4272,462.4686 202.3872,463.7786 " fill="none" id="LeyendoDocumento-to-LeyendoDocumento" style="stroke:#181818;stroke-width:1;"/><polygon fill="#181818" points="196.4,464.17,205.6418,467.5744,201.3894,463.8438,205.1199,459.5914,196.4,464.17" style="stroke:#181818;stroke-width:1;"/><path d="M235.93,431 L235.93,471 L382.93,471 L382.93,441 L372.93,431 L235.93,431 " fill="#FEFFDD" style="stroke:#181818;stroke-width:0.5;"/><path d="M372.93,431 L372.93,441 L382.93,441 L372.93,431 " fill="#FEFFDD" style="stroke:#181818;stroke-width:0.5;"/><text fill="#000000" font-family="sans-serif" font-size="13" lengthAdjust="spacing" textLength="122.6367" x="241.93" y="448.0669">-Confirmar Lectura</text><text fill="#000000" font-family="sans-serif" font-size="13" lengthAdjust="spacing" textLength="126.5342" x="241.93" y="463.1997">-Firmar Documento</text></g><!--SRC=[dPBXIiCm4CU_vocEVHJw2a9fAaowjgZx82BZp38uRI-If8A-be_WYvbrihPnOzFxUFddzmjtSHwzXjaYBvUh-cPUPlCwBMQ03XQQkzeIAth5HhXThiZlyr9Mgv2_JQ_pFbZeTyrh4_8EdtMSb5Ms3EcxQfoLHdMjPc-4UBXuX2IvZ7GGYatW68Q6-ALlR4jgvudHeoK3-ounAK9msj7N9_VjeEa9Gap845H1-LU18ctjCK5i28fe9aTjwPCb2-qeDc2d31Yem_HESDUJu2_odZD-yXdm93Ey8TkY3PUKxomEHrUxllo7-UImikqEBBoHwx2X3rG7TX4FxVoVzKC_j8jl]--></g></svg>