<svg xmlns="http://www.w3.org/2000/svg" xmlns:xlink="http://www.w3.org/1999/xlink" contentStyleType="text/css" height="508px" preserveAspectRatio="none" style="width:1047px;height:508px;background:#FFFFFF;" version="1.1" viewBox="0 0 1047 508" width="1047px" zoomAndPan="magnify"><title>Actualizar Asignatura-Grado</title><defs/><g><text fill="#000000" font-family="sans-serif" font-size="14" font-weight="bold" lengthAdjust="spacing" textLength="223.918" x="410.1484" y="32.9951">Actualizar Asignatura-Grado</text><ellipse cx="520.3994" cy="57.2969" fill="#222222" rx="10" ry="10" style="stroke:#222222;stroke-width:1;"/><rect fill="#F1F1F1" height="33.9688" rx="12.5" ry="12.5" style="stroke:#181818;stroke-width:0.5;" width="354.4355" x="343.1816" y="87.2969"/><text fill="#000000" font-family="sans-serif" font-size="12" lengthAdjust="spacing" textLength="334.4355" x="353.1816" y="108.4355">El usuario solicita introducir cambios en una asignaci&#243;n</text><rect fill="#F1F1F1" height="33.9688" rx="12.5" ry="12.5" style="stroke:#181818;stroke-width:0.5;" width="425.1406" x="307.8291" y="141.2656"/><text fill="#000000" font-family="sans-serif" font-size="12" lengthAdjust="spacing" textLength="405.1406" x="317.8291" y="162.4043">El sistema permite introducir los datos de la asignaci&#243;n a modificar</text><rect fill="#F1F1F1" height="33.9688" rx="12.5" ry="12.5" style="stroke:#181818;stroke-width:0.5;" width="346.5488" x="347.125" y="195.2344"/><text fill="#000000" font-family="sans-serif" font-size="12" lengthAdjust="spacing" textLength="326.5488" x="357.125" y="216.373">El usuario introduce los nuevos datos de la asignaci&#243;n</text><polygon fill="#F1F1F1" points="477.4172,249.2031,563.3816,249.2031,575.3816,261.2031,563.3816,273.2031,477.4172,273.2031,465.4172,261.2031,477.4172,249.2031" style="stroke:#181818;stroke-width:0.5;"/><text fill="#000000" font-family="sans-serif" font-size="11" lengthAdjust="spacing" textLength="85.9644" x="477.4172" y="265.0112">&#191;Datos v&#225;lidos?</text><text fill="#000000" font-family="sans-serif" font-size="11" lengthAdjust="spacing" textLength="10.0386" x="455.3787" y="258.6089">S&#237;</text><text fill="#000000" font-family="sans-serif" font-size="11" lengthAdjust="spacing" textLength="14.9585" x="575.3816" y="258.6089">No</text><rect fill="#F1F1F1" height="33.9688" rx="12.5" ry="12.5" style="stroke:#181818;stroke-width:0.5;" width="258.5293" x="129.8311" y="283.2031"/><text fill="#000000" font-family="sans-serif" font-size="12" lengthAdjust="spacing" textLength="238.5293" x="139.8311" y="304.3418">El sistema permite guardar los cambios</text><rect fill="#F1F1F1" height="33.9688" rx="12.5" ry="12.5" style="stroke:#181818;stroke-width:0.5;" width="378.0605" x="70.0654" y="337.1719"/><text fill="#000000" font-family="sans-serif" font-size="12" lengthAdjust="spacing" textLength="358.0605" x="80.0654" y="358.3105">El sistema actualiza la asignaci&#243;n con la nueva informaci&#243;n</text><rect fill="#F1F1F1" height="33.9688" rx="12.5" ry="12.5" style="stroke:#181818;stroke-width:0.5;" width="496.1914" x="11" y="391.1406"/><text fill="#000000" font-family="sans-serif" font-size="12" lengthAdjust="spacing" textLength="476.1914" x="21" y="412.2793">El sistema presenta una confirmaci&#243;n: "Asignaci&#243;n actualizada correctamente"</text><rect fill="#F1F1F1" height="33.9688" rx="12.5" ry="12.5" style="stroke:#181818;stroke-width:0.5;" width="509.0234" x="527.1914" y="283.2031"/><text fill="#000000" font-family="sans-serif" font-size="12" lengthAdjust="spacing" textLength="489.0234" x="537.1914" y="304.3418">El sistema presenta un mensaje de error: "Los datos introducidos no son v&#225;lidos"</text><rect fill="#F1F1F1" height="33.9688" rx="12.5" ry="12.5" style="stroke:#181818;stroke-width:0.5;" width="331.8359" x="615.7852" y="337.1719"/><text fill="#000000" font-family="sans-serif" font-size="12" lengthAdjust="spacing" textLength="311.8359" x="625.7852" y="358.3105">El sistema permite introducir nuevamente los datos</text><polygon fill="#F1F1F1" points="520.3994,431.1094,532.3994,443.1094,520.3994,455.1094,508.3994,443.1094,520.3994,431.1094" style="stroke:#181818;stroke-width:0.5;"/><ellipse cx="520.3994" cy="486.1094" fill="none" rx="11" ry="11" style="stroke:#222222;stroke-width:1;"/><ellipse cx="520.3994" cy="486.1094" fill="#222222" rx="6" ry="6" style="stroke:#222222;stroke-width:1;"/><line style="stroke:#181818;stroke-width:1;" x1="520.3994" x2="520.3994" y1="67.2969" y2="87.2969"/><polygon fill="#181818" points="516.3994,77.2969,520.3994,87.2969,524.3994,77.2969,520.3994,81.2969" style="stroke:#181818;stroke-width:1;"/><line style="stroke:#181818;stroke-width:1;" x1="520.3994" x2="520.3994" y1="121.2656" y2="141.2656"/><polygon fill="#181818" points="516.3994,131.2656,520.3994,141.2656,524.3994,131.2656,520.3994,135.2656" style="stroke:#181818;stroke-width:1;"/><line style="stroke:#181818;stroke-width:1;" x1="520.3994" x2="520.3994" y1="175.2344" y2="195.2344"/><polygon fill="#181818" points="516.3994,185.2344,520.3994,195.2344,524.3994,185.2344,520.3994,189.2344" style="stroke:#181818;stroke-width:1;"/><line style="stroke:#181818;stroke-width:1;" x1="259.0957" x2="259.0957" y1="317.1719" y2="337.1719"/><polygon fill="#181818" points="255.0957,327.1719,259.0957,337.1719,263.0957,327.1719,259.0957,331.1719" style="stroke:#181818;stroke-width:1;"/><line style="stroke:#181818;stroke-width:1;" x1="259.0957" x2="259.0957" y1="371.1406" y2="391.1406"/><polygon fill="#181818" points="255.0957,381.1406,259.0957,391.1406,263.0957,381.1406,259.0957,385.1406" style="stroke:#181818;stroke-width:1;"/><line style="stroke:#181818;stroke-width:1;" x1="781.7031" x2="781.7031" y1="317.1719" y2="337.1719"/><polygon fill="#181818" points="777.7031,327.1719,781.7031,337.1719,785.7031,327.1719,781.7031,331.1719" style="stroke:#181818;stroke-width:1;"/><line style="stroke:#181818;stroke-width:1;" x1="465.4172" x2="259.0957" y1="261.2031" y2="261.2031"/><line style="stroke:#181818;stroke-width:1;" x1="259.0957" x2="259.0957" y1="261.2031" y2="283.2031"/><polygon fill="#181818" points="255.0957,273.2031,259.0957,283.2031,263.0957,273.2031,259.0957,277.2031" style="stroke:#181818;stroke-width:1;"/><line style="stroke:#181818;stroke-width:1;" x1="575.3816" x2="781.7031" y1="261.2031" y2="261.2031"/><line style="stroke:#181818;stroke-width:1;" x1="781.7031" x2="781.7031" y1="261.2031" y2="283.2031"/><polygon fill="#181818" points="777.7031,273.2031,781.7031,283.2031,785.7031,273.2031,781.7031,277.2031" style="stroke:#181818;stroke-width:1;"/><line style="stroke:#181818;stroke-width:1;" x1="259.0957" x2="259.0957" y1="425.1094" y2="443.1094"/><line style="stroke:#181818;stroke-width:1;" x1="259.0957" x2="508.3994" y1="443.1094" y2="443.1094"/><polygon fill="#181818" points="498.3994,439.1094,508.3994,443.1094,498.3994,447.1094,502.3994,443.1094" style="stroke:#181818;stroke-width:1;"/><line style="stroke:#181818;stroke-width:1;" x1="781.7031" x2="781.7031" y1="371.1406" y2="443.1094"/><line style="stroke:#181818;stroke-width:1;" x1="781.7031" x2="532.3994" y1="443.1094" y2="443.1094"/><polygon fill="#181818" points="542.3994,439.1094,532.3994,443.1094,542.3994,447.1094,538.3994,443.1094" style="stroke:#181818;stroke-width:1;"/><line style="stroke:#181818;stroke-width:1;" x1="520.3994" x2="520.3994" y1="229.2031" y2="249.2031"/><polygon fill="#181818" points="516.3994,239.2031,520.3994,249.2031,524.3994,239.2031,520.3994,243.2031" style="stroke:#181818;stroke-width:1;"/><line style="stroke:#181818;stroke-width:1;" x1="520.3994" x2="520.3994" y1="455.1094" y2="475.1094"/><polygon fill="#181818" points="516.3994,465.1094,520.3994,475.1094,524.3994,465.1094,520.3994,469.1094" style="stroke:#181818;stroke-width:1;"/><!--SRC=[XP91JiGm34NtFOKrgtR11QOBL0d41h6P4vZ47OpIPEGui-0s780L1q2Y5oCfj4pHZDXaaVZRt-z7MHr1PpIXunSKw2BlFMeIlBeJjA6geg9ejRrra692uG0nE3Qi2EnLWas61GmEZnmYa8Va4N1gOtXyz-saZHoL1eG3oS1AfrANPHQrd0HkfGM48LZksQ2qAm-pdYQvJtIytAMjk8Vwy-DcUZwEhuvjYDSDw5EsM-_6j-QintqUPV7RuCz-wsLmvlRNjWc-N1LRXL8VP3WBGoYIpo0BigpfUQxRmgOxnJ0FigLEX8pYa9MqQIjoaQ1-2Csbrf0h8pvJ0KCYGNBp-uNM4eGj74kuVa6q-JUxQSF9oM-CsPBFcUMF4mvV]--></g></svg>