<svg xmlns="http://www.w3.org/2000/svg" xmlns:xlink="http://www.w3.org/1999/xlink" contentStyleType="text/css" height="644px" preserveAspectRatio="none" style="width:494px;height:644px;background:#FFFFFF;" version="1.1" viewBox="0 0 494 644" width="494px" zoomAndPan="magnify"><defs/><g><text fill="#000000" font-family="sans-serif" font-size="14" font-weight="bold" lengthAdjust="spacing" textLength="341.3594" x="69.7773" y="22.9951">Proceso de Edici&#243;n de Contenido - Profesor</text><ellipse cx="281" cy="53.2969" fill="#222222" rx="10" ry="10" style="stroke:#222222;stroke-width:1.0;"/><g id="EdicionEnProgreso"><rect fill="#F1F1F1" height="50.2656" rx="12.5" ry="12.5" style="stroke:#181818;stroke-width:0.5;" width="253.7188" x="154" y="124.2969"/><line style="stroke:#181818;stroke-width:0.5;" x1="154" x2="407.7188" y1="150.5938" y2="150.5938"/><text fill="#000000" font-family="sans-serif" font-size="14" lengthAdjust="spacing" textLength="130.2451" x="215.7368" y="142.292">EdicionEnProgreso</text><text fill="#000000" font-family="sans-serif" font-size="12" lengthAdjust="spacing" textLength="233.7188" x="159" y="166.7324">El profesor actualiza y guarda cambios</text></g><g id="RevisionInterna"><rect fill="#F1F1F1" height="50.2656" rx="12.5" ry="12.5" style="stroke:#181818;stroke-width:0.5;" width="286.877" x="36.5" y="251.2969"/><line style="stroke:#181818;stroke-width:0.5;" x1="36.5" x2="323.377" y1="277.5938" y2="277.5938"/><text fill="#000000" font-family="sans-serif" font-size="14" lengthAdjust="spacing" textLength="109.4502" x="125.2134" y="269.292">RevisionInterna</text><text fill="#000000" font-family="sans-serif" font-size="12" lengthAdjust="spacing" textLength="266.877" x="41.5" y="293.7324">Revisi&#243;n preliminar realizada por el profesor</text></g><g id="EnviadoParaRevision"><rect fill="#F1F1F1" height="50.2656" rx="12.5" ry="12.5" style="stroke:#181818;stroke-width:0.5;" width="166.4189" x="94" y="378.2969"/><line style="stroke:#181818;stroke-width:0.5;" x1="94" x2="260.4189" y1="404.5938" y2="404.5938"/><text fill="#000000" font-family="sans-serif" font-size="14" lengthAdjust="spacing" textLength="146.4189" x="104" y="396.292">EnviadoParaRevision</text><text fill="#000000" font-family="sans-serif" font-size="12" lengthAdjust="spacing" textLength="115.1367" x="99" y="420.7324">Env&#237;o para revisi&#243;n</text></g><g id="DevueltoParaModificaciones"><rect fill="#F1F1F1" height="50" rx="12.5" ry="12.5" style="stroke:#181818;stroke-width:0.5;" width="217.9141" x="270" y="489.2969"/><line style="stroke:#181818;stroke-width:0.5;" x1="270" x2="487.9141" y1="515.5938" y2="515.5938"/><text fill="#000000" font-family="sans-serif" font-size="14" lengthAdjust="spacing" textLength="197.9141" x="280" y="507.292">DevueltoParaModificaciones</text></g><g id="Aprobada"><rect fill="#F1F1F1" height="50.2656" rx="12.5" ry="12.5" style="stroke:#181818;stroke-width:0.5;" width="227.7383" x="7" y="489.2969"/><line style="stroke:#181818;stroke-width:0.5;" x1="7" x2="234.7383" y1="515.5938" y2="515.5938"/><text fill="#000000" font-family="sans-serif" font-size="14" lengthAdjust="spacing" textLength="67.7168" x="87.0107" y="507.292">Aprobada</text><text fill="#000000" font-family="sans-serif" font-size="12" lengthAdjust="spacing" textLength="207.7383" x="12" y="531.7324">Aprobada por el Director de Grado</text></g><ellipse cx="121" cy="627.2969" fill="none" rx="11" ry="11" style="stroke:#222222;stroke-width:1.0;"/><ellipse cx="121" cy="627.2969" fill="#222222" rx="6" ry="6" style="stroke:#222222;stroke-width:1.0;"/><!--link *start* to EdicionEnProgreso--><g id="link_*start*_EdicionEnProgreso"><path d="M281,63.3069 C281,77.1869 281,98.2669 281,118.1369 " fill="none" id="*start*-to-EdicionEnProgreso" style="stroke:#181818;stroke-width:1.0;"/><polygon fill="#181818" points="281,124.1369,285,115.1369,281,119.1369,277,115.1369,281,124.1369" style="stroke:#181818;stroke-width:1.0;"/></g><!--link EdicionEnProgreso to RevisionInterna--><g id="link_EdicionEnProgreso_RevisionInterna"><path d="M261.53,174.3969 C243.64,196.5369 221.0515,224.4905 203.1815,246.6005 " fill="none" id="EdicionEnProgreso-to-RevisionInterna" style="stroke:#181818;stroke-width:1.0;"/><polygon fill="#181818" points="199.41,251.2669,208.1783,246.7816,202.553,247.3782,201.9564,241.7529,199.41,251.2669" style="stroke:#181818;stroke-width:1.0;"/><text fill="#000000" font-family="sans-serif" font-size="13" lengthAdjust="spacing" textLength="107.8086" x="238" y="217.3638">Finaliza cambios</text></g><!--link RevisionInterna to EnviadoParaRevision--><g id="link_RevisionInterna_EnviadoParaRevision"><path d="M176.74,301.4469 C175.63,310.7569 174.54,321.5069 174,331.2969 C173.14,346.8169 173.4355,358.2712 174.3855,371.9912 " fill="none" id="RevisionInterna-to-EnviadoParaRevision" style="stroke:#181818;stroke-width:1.0;"/><polygon fill="#181818" points="174.8,377.9769,178.1688,368.7221,174.4546,372.9888,170.1879,369.2747,174.8,377.9769" style="stroke:#181818;stroke-width:1.0;"/><text fill="#000000" font-family="sans-serif" font-size="13" lengthAdjust="spacing" textLength="177.5249" x="175" y="344.3638">Enviar al Director de Grado</text></g><!--link EnviadoParaRevision to DevueltoParaModificaciones--><g id="link_EnviadoParaRevision_DevueltoParaModificaciones"><path d="M221.83,428.4869 C255.31,446.5469 295.5701,468.2769 329.0101,486.3269 " fill="none" id="EnviadoParaRevision-to-DevueltoParaModificaciones" style="stroke:#181818;stroke-width:1.0;"/><polygon fill="#181818" points="334.29,489.1769,328.2701,481.382,329.8901,486.8019,324.4701,488.4219,334.29,489.1769" style="stroke:#181818;stroke-width:1.0;"/></g><!--link EnviadoParaRevision to Aprobada--><g id="link_EnviadoParaRevision_Aprobada"><path d="M164.57,428.4869 C155.29,446.5469 145.4134,465.7908 136.1334,483.8408 " fill="none" id="EnviadoParaRevision-to-Aprobada" style="stroke:#181818;stroke-width:1.0;"/><polygon fill="#181818" points="133.39,489.1769,141.0625,483.0017,135.6762,484.7301,133.9477,479.3438,133.39,489.1769" style="stroke:#181818;stroke-width:1.0;"/></g><!--link DevueltoParaModificaciones to EdicionEnProgreso--><g id="link_DevueltoParaModificaciones_EdicionEnProgreso"><path d="M383.44,488.9169 C392.14,434.0569 406.3,298.3769 354,204.2969 C347.41,192.4469 341.8407,186.0256 330.9407,177.9956 " fill="none" id="DevueltoParaModificaciones-to-EdicionEnProgreso" style="stroke:#181818;stroke-width:1.0;"/><polygon fill="#181818" points="326.11,174.4369,330.9835,182.9954,330.1356,177.4025,335.7285,176.5545,326.11,174.4369" style="stroke:#181818;stroke-width:1.0;"/></g><!--link Aprobada to *end*--><g id="link_Aprobada_*end*"><path d="M121,539.3869 C121,563.3569 121,592.9969 121,610.2369 " fill="none" id="Aprobada-to-*end*" style="stroke:#181818;stroke-width:1.0;"/><polygon fill="#181818" points="121,616.2369,125,607.2369,121,611.2369,117,607.2369,121,616.2369" style="stroke:#181818;stroke-width:1.0;"/><text fill="#000000" font-family="sans-serif" font-size="13" lengthAdjust="spacing" textLength="106.3677" x="122" y="582.3638">Fin de la edici&#243;n</text></g><!--SRC=[TL8nRiCm3Dpr2iu5_84C1Oh6BJeK2B8M7HY92GWeaa7B1fe_PUeJyh6IjbCFZZVXU7UyarIuH8ATP4zjXa1G1_Py-qrsVisfKEAGeJBAKIdYtDVJDrJLyyZCgKuwEedEt0A13TGHcaaAw4k7aIy8Ft3gK0A2n_E1S-iUQ6t7ddfk5VxG899G_TuuZHPtvP8o8jQX4OfyLeM0q23JbOqceJcLMpWCvLBF6F8E1UzZAsEezeYmPI5Vr4clwLsKwLOLjsk6Hb6DCELo3ycsTajzHx4CWyyS-CWUxLgeNPMyQ963zNB_fyqCJcMNSTSthJpkR6zp-mJ3OvXZHA3fs_m1]--></g></svg>