<svg xmlns="http://www.w3.org/2000/svg" xmlns:xlink="http://www.w3.org/1999/xlink" contentStyleType="text/css" height="608px" preserveAspectRatio="none" style="width:507px;height:608px;background:#FFFFFF;" version="1.1" viewBox="0 0 507 608" width="507px" zoomAndPan="magnify"><title>Ciclo de Vida de un T&#233;cnico de calidad</title><defs/><g><text fill="#000000" font-family="sans-serif" font-size="14" font-weight="bold" lengthAdjust="spacing" textLength="302.3535" x="92.4185" y="22.9951">Ciclo de Vida de un T&#233;cnico de calidad</text><path d="M258.5,251.2969 L481.6904,251.2969 A12.5,12.5 0 0 1 494.1904,263.7969 L494.1904,277.5938 L246,277.5938 L246,263.7969 A12.5,12.5 0 0 1 258.5,251.2969 " fill="#F1F1F1" style="stroke:#F1F1F1;stroke-width:1;"/><rect fill="none" height="239.5625" rx="12.5" ry="12.5" style="stroke:#181818;stroke-width:0.5;" width="248.1904" x="246" y="251.2969"/><line style="stroke:#181818;stroke-width:0.5;" x1="246" x2="494.1904" y1="277.5938" y2="277.5938"/><text fill="#000000" font-family="sans-serif" font-size="14" lengthAdjust="spacing" textLength="91.2393" x="324.4756" y="269.292">CreandoGu&#237;a</text><ellipse cx="371.5" cy="298.5938" fill="#222222" rx="10" ry="10" style="stroke:#222222;stroke-width:1;"/><g id="CreandoGu&#237;a.GenerandoNuevaVersi&#243;nGu&#237;a"><rect fill="#F1F1F1" height="50" rx="12.5" ry="12.5" style="stroke:#181818;stroke-width:0.5;" width="227.1904" x="258" y="344.5938"/><line style="stroke:#181818;stroke-width:0.5;" x1="258" x2="485.1904" y1="370.8906" y2="370.8906"/><text fill="#000000" font-family="sans-serif" font-size="14" lengthAdjust="spacing" textLength="207.1904" x="268" y="362.5889">GenerandoNuevaVersi&#243;nGu&#237;a</text></g><g id="CreandoGu&#237;a.EditandoGu&#237;a"><rect fill="#F1F1F1" height="50.2656" rx="12.5" ry="12.5" style="stroke:#181818;stroke-width:0.5;" width="187.9883" x="277.5" y="430.5938"/><line style="stroke:#181818;stroke-width:0.5;" x1="277.5" x2="465.4883" y1="456.8906" y2="456.8906"/><text fill="#000000" font-family="sans-serif" font-size="14" lengthAdjust="spacing" textLength="94.2061" x="324.3911" y="448.5889">EditandoGu&#237;a</text><text fill="#000000" font-family="sans-serif" font-size="12" lengthAdjust="spacing" textLength="167.9883" x="282.5" y="473.0293">Editando contenido est&#225;tico</text></g><!--link *start*CreandoGu?a to GenerandoNuevaVersi?nGu?a--><g id="link_*start*CreandoGu&#237;a_GenerandoNuevaVersi&#243;nGu&#237;a"><path d="M371.5,308.6138 C371.5,317.6738 371.5,326.0338 371.5,338.4238 " fill="none" id="*start*CreandoGu&#237;a-to-GenerandoNuevaVersi&#243;nGu&#237;a" style="stroke:#181818;stroke-width:1;"/><polygon fill="#181818" points="371.5,344.4238,375.5,335.4238,371.5,339.4238,367.5,335.4238,371.5,344.4238" style="stroke:#181818;stroke-width:1;"/></g><!--link GenerandoNuevaVersi?nGu?a to EditandoGu?a--><g id="link_GenerandoNuevaVersi&#243;nGu&#237;a_EditandoGu&#237;a"><path d="M365.31,394.8938 C364.56,406.0338 364.1516,413.2277 364.9116,424.3677 " fill="none" id="GenerandoNuevaVersi&#243;nGu&#237;a-to-EditandoGu&#237;a" style="stroke:#181818;stroke-width:1;"/><polygon fill="#181818" points="365.32,430.3538,368.6981,421.1024,364.9797,425.3653,360.7167,421.6469,365.32,430.3538" style="stroke:#181818;stroke-width:1;"/></g><!--link EditandoGu?a to GenerandoNuevaVersi?nGu?a--><g id="link_EditandoGu&#237;a_GenerandoNuevaVersi&#243;nGu&#237;a"><path d="M377.68,430.3538 C378.44,419.2138 378.843,412.0202 378.093,400.8802 " fill="none" id="EditandoGu&#237;a-to-GenerandoNuevaVersi&#243;nGu&#237;a" style="stroke:#181818;stroke-width:1;"/><polygon fill="#181818" points="377.69,394.8938,374.3036,404.1421,378.0259,399.8825,382.2855,403.6047,377.69,394.8938" style="stroke:#181818;stroke-width:1;"/></g><ellipse cx="370" cy="53.2969" fill="#222222" rx="10" ry="10" style="stroke:#222222;stroke-width:1;"/><g id="Libre"><rect fill="#F1F1F1" height="50" rx="12.5" ry="12.5" style="stroke:#181818;stroke-width:0.5;" width="54.9453" x="342.5" y="140.2969"/><line style="stroke:#181818;stroke-width:0.5;" x1="342.5" x2="397.4453" y1="166.5938" y2="166.5938"/><text fill="#000000" font-family="sans-serif" font-size="14" lengthAdjust="spacing" textLength="34.9453" x="352.5" y="158.292">Libre</text></g><g id="VisualizandoGu&#237;as"><rect fill="#F1F1F1" height="50" rx="12.5" ry="12.5" style="stroke:#181818;stroke-width:0.5;" width="147.7295" x="63" y="346.2969"/><line style="stroke:#181818;stroke-width:0.5;" x1="63" x2="210.7295" y1="372.5938" y2="372.5938"/><text fill="#000000" font-family="sans-serif" font-size="14" lengthAdjust="spacing" textLength="127.7295" x="73" y="364.292">VisualizandoGu&#237;as</text></g><ellipse cx="17" cy="371.2969" fill="none" rx="11" ry="11" style="stroke:#222222;stroke-width:1;"/><ellipse cx="17" cy="371.2969" fill="#222222" rx="6" ry="6" style="stroke:#222222;stroke-width:1;"/><g id="AsignandoGu&#237;a"><rect fill="#F1F1F1" height="50" rx="12.5" ry="12.5" style="stroke:#181818;stroke-width:0.5;" width="125.6152" x="74" y="552.2969"/><line style="stroke:#181818;stroke-width:0.5;" x1="74" x2="199.6152" y1="578.5938" y2="578.5938"/><text fill="#000000" font-family="sans-serif" font-size="14" lengthAdjust="spacing" textLength="105.6152" x="84" y="570.292">AsignandoGu&#237;a</text></g><!--link *start* to Libre--><g id="link_*start*_Libre"><path d="M370,63.2969 C370,79.9269 370,109.9569 370,134.1669 " fill="none" id="*start*-to-Libre" style="stroke:#181818;stroke-width:1;"/><polygon fill="#181818" points="370,140.1669,374,131.1669,370,135.1669,366,131.1669,370,140.1669" style="stroke:#181818;stroke-width:1;"/><text fill="#000000" font-family="sans-serif" font-size="13" lengthAdjust="spacing" textLength="115.4639" x="371" y="106.3638">Sin gu&#237;a asignada</text></g><!--link Libre to CreandoGu?a--><g id="link_Libre_CreandoGu&#237;a"><path d="M370,190.4969 C370,206.2269 370,222.0269 370,245.0369 " fill="none" id="Libre-to-CreandoGu&#237;a" style="stroke:#181818;stroke-width:1;"/><polygon fill="#181818" points="370,251.0369,374,242.0369,370,246.0369,366,242.0369,370,251.0369" style="stroke:#181818;stroke-width:1;"/></g><!--link VisualizandoGu?as to CreandoGu?a--><g id="link_VisualizandoGu&#237;as_CreandoGu&#237;a"><path d="M211.18,387.5769 C222.76,388.9269 228.3413,389.6025 239.9213,389.8425 " fill="none" id="VisualizandoGu&#237;as-to-CreandoGu&#237;a" style="stroke:#181818;stroke-width:1;"/><polygon fill="#181818" points="245.92,389.9669,237.0048,385.7812,240.9211,389.8633,236.839,393.7795,245.92,389.9669" style="stroke:#181818;stroke-width:1;"/></g><!--link CreandoGu?a to VisualizandoGu?as--><g id="link_CreandoGu&#237;a_VisualizandoGu&#237;as"><path d="M245.92,352.6269 C234.34,352.8669 228.7196,352.9721 217.1396,354.3221 " fill="none" id="CreandoGu&#237;a-to-VisualizandoGu&#237;as" style="stroke:#181818;stroke-width:1;"/><polygon fill="#181818" points="211.18,355.0169,220.5826,357.9478,216.1464,354.4379,219.6563,350.0016,211.18,355.0169" style="stroke:#181818;stroke-width:1;"/></g><!--reverse link *end* to VisualizandoGu?as--><g id="link_*end*_VisualizandoGu&#237;as"><path d="M34.25,371.2969 C45.72,371.2969 51.19,371.2969 62.66,371.2969 " fill="none" id="*end*-backto-VisualizandoGu&#237;as" style="stroke:#181818;stroke-width:1;"/><polygon fill="#181818" points="28.25,371.2969,37.25,375.2969,33.25,371.2969,37.25,367.2969,28.25,371.2969" style="stroke:#181818;stroke-width:1;"/></g><!--link CreandoGu?a to AsignandoGu?a--><g id="link_CreandoGu&#237;a_AsignandoGu&#237;a"><path d="M246,480.8669 C215.35,507.6969 189.9153,529.9757 169.1853,548.1157 " fill="none" id="CreandoGu&#237;a-to-AsignandoGu&#237;a" style="stroke:#181818;stroke-width:1;"/><polygon fill="#181818" points="164.67,552.0669,174.0771,549.1503,168.4328,548.7742,168.8089,543.1299,164.67,552.0669" style="stroke:#181818;stroke-width:1;"/></g><!--link AsignandoGu?a to VisualizandoGu?as--><g id="link_AsignandoGu&#237;a_VisualizandoGu&#237;as"><path d="M146.1,552.1269 C151.96,512.8869 152.8558,441.6911 146.9958,402.4311 " fill="none" id="AsignandoGu&#237;a-to-VisualizandoGu&#237;as" style="stroke:#181818;stroke-width:1;"/><polygon fill="#181818" points="146.11,396.4969,143.4825,405.9888,146.8481,401.4421,151.3948,404.8078,146.11,396.4969" style="stroke:#181818;stroke-width:1;"/></g><!--link VisualizandoGu?as to AsignandoGu?a--><g id="link_VisualizandoGu&#237;as_AsignandoGu&#237;a"><path d="M128.4,396.4969 C122.87,435.7569 122.0327,506.9456 127.5627,546.1856 " fill="none" id="VisualizandoGu&#237;as-to-AsignandoGu&#237;a" style="stroke:#181818;stroke-width:1;"/><polygon fill="#181818" points="128.4,552.1269,131.1049,542.6567,127.7023,547.1758,123.1832,543.7731,128.4,552.1269" style="stroke:#181818;stroke-width:1;"/></g><!--SRC=[XL4nJiGm4Ept5LCZvGDN8A4JkkP40qfpebZilR1Ij95ivuf3F8QIWeedv6FOEP4ZHmILlJEpi-jnqjGArkhQ3bvGg-TozeQ7uTsPkX5st6R2WsXtzOYgkiPMdu9WXNirDFtmmU2eZR5deXDNLEiWRBxR505HhR7FHiS9YgY2Di_fKlcpE4lmkt_PivLzqUTLYMBY93Dtl13m_OoDc8H2tVLou5f2rE7JJblWBtRillMQphwvOGxyFs2cNqqbN6T9JFDDOXhUKlu6ebVA7VDeye2RCVOfEbm0esOXkAKq5_o-0000]--></g></svg>