<svg xmlns="http://www.w3.org/2000/svg" xmlns:xlink="http://www.w3.org/1999/xlink" contentStyleType="text/css" height="695px" preserveAspectRatio="none" style="width:404px;height:695px;background:#FFFFFF;" version="1.1" viewBox="0 0 404 695" width="404px" zoomAndPan="magnify"><title>Ciclo de Vida de un Director de Calidad</title><defs/><g><text fill="#000000" font-family="sans-serif" font-size="14" font-weight="bold" lengthAdjust="spacing" textLength="308.6357" x="40.8228" y="22.9951">Ciclo de Vida de un Director de Calidad</text><path d="M19.5,378.2969 L344.293,378.2969 A12.5,12.5 0 0 1 356.793,390.7969 L356.793,404.5938 L7,404.5938 L7,390.7969 A12.5,12.5 0 0 1 19.5,378.2969 " fill="#F1F1F1" style="stroke:#F1F1F1;stroke-width:1;"/><rect fill="none" height="311.2969" rx="12.5" ry="12.5" style="stroke:#181818;stroke-width:0.5;" width="349.793" x="7" y="378.2969"/><line style="stroke:#181818;stroke-width:0.5;" x1="7" x2="356.793" y1="404.5938" y2="404.5938"/><text fill="#000000" font-family="sans-serif" font-size="14" lengthAdjust="spacing" textLength="81.2246" x="141.2842" y="396.292">EnAuditor&#237;a</text><ellipse cx="183.5" cy="425.5938" fill="#222222" rx="10" ry="10" style="stroke:#222222;stroke-width:1;"/><g id="EnAuditor&#237;a.AuditandoGu&#237;a"><rect fill="#F1F1F1" height="50" rx="12.5" ry="12.5" style="stroke:#181818;stroke-width:0.5;" width="123.8105" x="121.5" y="471.5938"/><line style="stroke:#181818;stroke-width:0.5;" x1="121.5" x2="245.3105" y1="497.8906" y2="497.8906"/><text fill="#000000" font-family="sans-serif" font-size="14" lengthAdjust="spacing" textLength="103.8105" x="131.5" y="489.5889">AuditandoGu&#237;a</text></g><g id="EnAuditor&#237;a.VerificandoCumplimientoMemoriaVerificada"><rect fill="#F1F1F1" height="64.2344" rx="12.5" ry="12.5" style="stroke:#181818;stroke-width:0.5;" width="328.793" x="19" y="557.5938"/><line style="stroke:#181818;stroke-width:0.5;" x1="19" x2="347.793" y1="583.8906" y2="583.8906"/><text fill="#000000" font-family="sans-serif" font-size="14" lengthAdjust="spacing" textLength="308.793" x="29" y="575.5889">VerificandoCumplimientoMemoriaVerificada</text><text fill="#000000" font-family="sans-serif" font-size="12" lengthAdjust="spacing" textLength="291.9141" x="24" y="600.0293">Los contenidos se verifican externamente con la</text><text fill="#000000" font-family="sans-serif" font-size="12" lengthAdjust="spacing" textLength="195.2578" x="27.8145" y="613.998">memoria verificada de la ANECA</text></g><ellipse cx="183.5" cy="668.5938" fill="none" rx="11" ry="11" style="stroke:#222222;stroke-width:1;"/><ellipse cx="183.5" cy="668.5938" fill="#222222" rx="6" ry="6" style="stroke:#222222;stroke-width:1;"/><!--link *start*EnAuditor?a to AuditandoGu?a--><g id="link_*start*EnAuditor&#237;a_AuditandoGu&#237;a"><path d="M183.5,435.6138 C183.5,444.6738 183.5,453.0338 183.5,465.4238 " fill="none" id="*start*EnAuditor&#237;a-to-AuditandoGu&#237;a" style="stroke:#181818;stroke-width:1;"/><polygon fill="#181818" points="183.5,471.4238,187.5,462.4238,183.5,466.4238,179.5,462.4238,183.5,471.4238" style="stroke:#181818;stroke-width:1;"/></g><!--link AuditandoGu?a to VerificandoCumplimientoMemoriaVerificada--><g id="link_AuditandoGu&#237;a_VerificandoCumplimientoMemoriaVerificada"><path d="M183.5,521.9838 C183.5,532.8238 183.5,539.7238 183.5,551.2738 " fill="none" id="AuditandoGu&#237;a-to-VerificandoCumplimientoMemoriaVerificada" style="stroke:#181818;stroke-width:1;"/><polygon fill="#181818" points="183.5,557.2738,187.5,548.2738,183.5,552.2738,179.5,548.2738,183.5,557.2738" style="stroke:#181818;stroke-width:1;"/></g><!--link VerificandoCumplimientoMemoriaVerificada to *end*EnAuditor?a--><g id="link_VerificandoCumplimientoMemoriaVerificada_*end*EnAuditor&#237;a"><path d="M183.5,621.9137 C183.5,634.5738 183.5,642.3038 183.5,651.3638 " fill="none" id="VerificandoCumplimientoMemoriaVerificada-to-*end*EnAuditor&#237;a" style="stroke:#181818;stroke-width:1;"/><polygon fill="#181818" points="183.5,657.3638,187.5,648.3638,183.5,652.3638,179.5,648.3638,183.5,657.3638" style="stroke:#181818;stroke-width:1;"/></g><ellipse cx="182" cy="53.2969" fill="#222222" rx="10" ry="10" style="stroke:#222222;stroke-width:1;"/><g id="Libre"><rect fill="#F1F1F1" height="50" rx="12.5" ry="12.5" style="stroke:#181818;stroke-width:0.5;" width="54.9453" x="154.5" y="140.2969"/><line style="stroke:#181818;stroke-width:0.5;" x1="154.5" x2="209.4453" y1="166.5938" y2="166.5938"/><text fill="#000000" font-family="sans-serif" font-size="14" lengthAdjust="spacing" textLength="34.9453" x="164.5" y="158.292">Libre</text></g><g id="VisualizandoGu&#237;as"><rect fill="#F1F1F1" height="50" rx="12.5" ry="12.5" style="stroke:#181818;stroke-width:0.5;" width="147.7295" x="108" y="267.2969"/><line style="stroke:#181818;stroke-width:0.5;" x1="108" x2="255.7295" y1="293.5938" y2="293.5938"/><text fill="#000000" font-family="sans-serif" font-size="14" lengthAdjust="spacing" textLength="127.7295" x="118" y="285.292">VisualizandoGu&#237;as</text></g><ellipse cx="302" cy="292.2969" fill="none" rx="11" ry="11" style="stroke:#222222;stroke-width:1;"/><ellipse cx="302" cy="292.2969" fill="#222222" rx="6" ry="6" style="stroke:#222222;stroke-width:1;"/><!--link *start* to Libre--><g id="link_*start*_Libre"><path d="M182,63.2969 C182,79.9269 182,109.9569 182,134.1669 " fill="none" id="*start*-to-Libre" style="stroke:#181818;stroke-width:1;"/><polygon fill="#181818" points="182,140.1669,186,131.1669,182,135.1669,178,131.1669,182,140.1669" style="stroke:#181818;stroke-width:1;"/><text fill="#000000" font-family="sans-serif" font-size="13" lengthAdjust="spacing" textLength="213.2813" x="183" y="106.3638">Sin gu&#237;as asignadas para auditar</text></g><!--link Libre to VisualizandoGu?as--><g id="link_Libre_VisualizandoGu&#237;as"><path d="M182,190.3969 C182,212.5369 182,239.1569 182,261.2669 " fill="none" id="Libre-to-VisualizandoGu&#237;as" style="stroke:#181818;stroke-width:1;"/><polygon fill="#181818" points="182,267.2669,186,258.2669,182,262.2669,178,258.2669,182,267.2669" style="stroke:#181818;stroke-width:1;"/><text fill="#000000" font-family="sans-serif" font-size="13" lengthAdjust="spacing" textLength="106.5962" x="183" y="233.3638">Gu&#237;as asignadas</text></g><!--link VisualizandoGu?as to EnAuditor?a--><g id="link_VisualizandoGu&#237;as_EnAuditor&#237;a"><path d="M173.92,317.5769 C171.82,333.0969 170.5931,348.6894 169.9131,372.2494 " fill="none" id="VisualizandoGu&#237;as-to-EnAuditor&#237;a" style="stroke:#181818;stroke-width:1;"/><polygon fill="#181818" points="169.74,378.2469,173.998,369.366,169.8843,373.249,166.0013,369.1352,169.74,378.2469" style="stroke:#181818;stroke-width:1;"/></g><!--reverse link VisualizandoGu?as to EnAuditor?a--><g id="link_VisualizandoGu&#237;as_EnAuditor&#237;a"><path d="M191.4033,323.5159 C193.6333,339.0359 194.26,354.6869 194.98,378.2469 " fill="none" id="VisualizandoGu&#237;as-backto-EnAuditor&#237;a" style="stroke:#181818;stroke-width:1;"/><polygon fill="#181818" points="190.55,317.5769,187.8707,327.0543,191.2611,322.526,195.7894,325.9165,190.55,317.5769" style="stroke:#181818;stroke-width:1;"/></g><!--link VisualizandoGu?as to *end*--><g id="link_VisualizandoGu&#237;as_*end*"><path d="M256.06,292.2969 C267.67,292.2969 273.27,292.2969 284.87,292.2969 " fill="none" id="VisualizandoGu&#237;as-to-*end*" style="stroke:#181818;stroke-width:1;"/><polygon fill="#181818" points="290.87,292.2969,281.87,288.2969,285.87,292.2969,281.87,296.2969,290.87,292.2969" style="stroke:#181818;stroke-width:1;"/></g><!--SRC=[bL6xJiGm4Epz5LCZvGTI89t2wPg31kaQe5ZY9QoKs94VW41y4b_1Zx5Eb9E2Ka3btTcPMO-T9FMCHjhUmp9EOgcSsU5A0hV9Xz8srEl0mfYxYmTKrIMEyXWODMx5eSlVNnH1KJf7LgkH0e6obKJ1c9bQH2U9MPtUoLb_c4Kr3h_KncpGAkjVdJhitQxO-g2etcRLLdbKniQIJSCWtNDIlWOoC35HuhNxXm6Mj1DyLkjW3SpXECYJj0LiyZ3sCWYxvAzvy45ecTgY_Ykrnj57jDubTcArZ8oNHGj-InmS3IhbGa9Fzmx3R7BcpV_P4tOt-sRtZ-LJgEbvFdy0]--></g></svg>